<svg width="83" height="119" viewBox="0 0 83 119" fill="none" xmlns="http://www.w3.org/2000/svg">
<path d="M21.8788 1.46221C36.6189 -1.34099 44.864 4.93781 61.1598 1.46221C72.8663 4.26542 79.1474 10.8378 80.8003 20.5922C83.2408 49.3345 82.5505 79.772 80.8003 97.8224C79.5266 110.314 71.1842 113.695 61.1598 116.952C48.5393 116.384 28.5488 118.932 21.8788 116.952C12.0196 117.644 2.75359 113.003 2.23827 97.8224C5.84551 70.6521 -0.892544 45.1392 2.23827 20.5922C1.52849 10.9893 7.51787 1.12128 21.8788 1.46221Z" fill="white"/>
<path d="M21.8787 1.46223C38.262 2.53238 53.0702 1.73687 61.1597 1.46223M21.8787 1.46223C32.7296 2.01151 44.8348 1.34859 61.1597 1.46223M21.8787 1.46223C7.5567 2.16303 3.06467 7.82627 2.23821 20.5922M21.8787 1.46223C10.6972 1.19706 3.30774 9.92867 2.23821 20.5922M61.1597 1.46223C74.8789 0.477323 79.196 6.31102 80.8003 20.5922M61.1597 1.46223C74.6456 2.05886 79.0793 6.45307 80.8003 20.5922M80.8003 20.5922C81.1892 36.275 80.1002 50.632 80.8003 97.8224M80.8003 20.5922C81.1503 40.6882 81.8406 61.7217 80.8003 97.8224M80.8003 97.8224C82.2393 112.35 74.6067 116.867 61.1597 116.952M80.8003 97.8224C81.1892 109.944 72.1468 116.848 61.1597 116.952M61.1597 116.952C48.4323 118.392 37.173 115.115 21.8787 116.952M61.1597 116.952C46.8183 117.038 33.4297 116.271 21.8787 116.952M21.8787 116.952C7.27474 116.924 0.89643 109.802 2.23821 97.8224M21.8787 116.952C9.50131 118.051 1.5187 112.7 2.23821 97.8224M2.23821 97.8224C3.80362 80.113 3.18134 63.2085 2.23821 20.5922M2.23821 97.8224C1.24646 79.8099 1.48953 60.8315 2.23821 20.5922" stroke="#1E1E1E" stroke-width="2" stroke-linecap="round"/>
<path d="M10.0629 83.7715C20.7485 83.7715 63.5103 83.7715 74.1959 83.7715" stroke="#1E1E1E" stroke-width="2" stroke-linecap="round"/>
<path d="M26.9953 1.89746C33.8792 1.89746 40.7631 1.89746 53.442 1.89746M26.9953 1.89746C36.2614 1.89746 45.5371 1.89746 53.442 1.89746M26.9953 1.89746C24.5743 1.89746 23.3687 3.07178 23.3687 5.42988M53.442 1.89746C55.8533 1.89746 57.0687 3.07178 57.0687 5.42988M57.0687 5.42988C57.0687 7.09665 57.0687 8.77289 57.0687 12.4852M57.0687 5.42988C57.0687 8.22361 57.0687 11.0173 57.0687 12.4852M57.0687 12.4852C57.0687 14.8339 55.8533 16.0082 53.442 16.0082M53.442 16.0082C46.8109 16.0082 40.1798 16.0082 26.9953 16.0082M53.442 16.0082C45.7122 16.0082 37.9726 16.0082 26.9953 16.0082M26.9953 16.0082C24.5743 16.0082 23.3687 14.8339 23.3687 12.4852M23.3687 12.4852C23.3687 10.5154 23.3687 8.5456 23.3687 5.42988M23.3687 12.4852C23.3687 9.71045 23.3687 6.94512 23.3687 5.42988" stroke="#1E1E1E" stroke-width="2" stroke-linecap="round"/>
<path d="M34.4491 10.0569C34.3938 10.0569 34.3514 10.0293 34.3221 9.97394C34.2961 9.9186 34.2831 9.84047 34.2831 9.73956C34.2831 9.72329 34.2831 9.70538 34.2831 9.68585C34.2831 9.66307 34.2863 9.62075 34.2928 9.5589C34.3026 9.32452 34.4182 9.18781 34.6395 9.14874L34.7518 9.13898C34.8267 9.12921 34.8853 9.10642 34.9276 9.07062C34.9699 9.03156 35.0009 8.97784 35.0204 8.90948C35.0757 8.72394 35.1311 8.53676 35.1864 8.34796C35.2417 8.15916 35.3003 7.97198 35.3622 7.78644C35.3947 7.68227 35.4273 7.57159 35.4598 7.45441C35.4956 7.33396 35.5331 7.21515 35.5721 7.09796C35.6145 6.98077 35.6617 6.86521 35.7137 6.75128C35.7691 6.63735 35.8309 6.53318 35.8993 6.43878C35.9286 6.39972 35.9693 6.35903 36.0214 6.31671C36.0734 6.27439 36.132 6.23696 36.1971 6.20441C36.2655 6.1686 36.3371 6.14093 36.412 6.1214C36.4901 6.09861 36.5666 6.08722 36.6415 6.08722C36.7391 6.08722 36.8352 6.11814 36.9296 6.17999C37.0565 6.26788 37.1818 6.37368 37.3055 6.49738C37.4292 6.62107 37.5676 6.77895 37.7206 6.97101C37.8736 7.16307 38.051 7.39581 38.2528 7.66925C38.4546 7.93943 38.6971 8.26658 38.9803 8.6507C39.0227 8.69952 39.0666 8.73696 39.1122 8.763C39.161 8.78579 39.218 8.79718 39.2831 8.79718H39.5614C39.6753 8.79718 39.7632 8.82485 39.8251 8.88019C39.8902 8.93227 39.9227 9.00551 39.9227 9.09991C39.9227 9.11945 39.9211 9.14223 39.9178 9.16827C39.9178 9.19432 39.913 9.22036 39.9032 9.2464L39.8104 9.51984C39.8039 9.54588 39.799 9.56866 39.7958 9.5882C39.7925 9.60773 39.7909 9.62726 39.7909 9.64679C39.7909 9.71515 39.8137 9.78514 39.8593 9.85675L40.3817 10.5696C40.4403 10.6575 40.4696 10.7405 40.4696 10.8187C40.4696 10.9359 40.4029 11.0384 40.2694 11.1263L40.0839 11.2581C40.0383 11.2874 39.9943 11.3102 39.952 11.3265C39.913 11.3428 39.8723 11.3509 39.83 11.3509C39.7714 11.3509 39.716 11.333 39.6639 11.2972C39.6151 11.2646 39.5679 11.2191 39.5223 11.1605C39.3661 10.9391 39.2082 10.721 39.0487 10.5062C38.8925 10.2913 38.733 10.0781 38.5702 9.86652C38.4953 9.76235 38.396 9.71027 38.2723 9.71027C37.8752 9.72654 37.4813 9.74933 37.0907 9.77863C36.7033 9.80467 36.3143 9.83722 35.9237 9.87628C35.7837 9.8893 35.6958 9.96417 35.66 10.1009L35.4403 10.9066C35.3817 11.1214 35.2515 11.2288 35.0497 11.2288H34.9716L34.8202 11.2093C34.7095 11.1995 34.6249 11.1653 34.5663 11.1068C34.5109 11.0482 34.4833 10.9717 34.4833 10.8773C34.4833 10.8577 34.4849 10.8366 34.4882 10.8138C34.4914 10.791 34.4963 10.7666 34.5028 10.7405C34.5191 10.6754 34.5354 10.6087 34.5516 10.5403C34.5712 10.472 34.5907 10.4053 34.6102 10.3401C34.6167 10.3141 34.6216 10.2913 34.6249 10.2718C34.6281 10.249 34.6298 10.2278 34.6298 10.2083C34.6298 10.1074 34.5907 10.0569 34.5126 10.0569H34.4491ZM36.7733 7.47882C36.7408 7.44952 36.7115 7.42511 36.6854 7.40558C36.6594 7.38605 36.6317 7.37628 36.6024 7.37628C36.521 7.37628 36.4641 7.43325 36.4315 7.54718C36.3664 7.73924 36.3029 7.92967 36.2411 8.11847C36.1825 8.30402 36.1223 8.49445 36.0604 8.68976C36.0539 8.70603 36.0507 8.72068 36.0507 8.7337C36.0507 8.74672 36.0507 8.76137 36.0507 8.77765C36.0507 8.89809 36.1141 8.95831 36.2411 8.95831H36.2899C36.4852 8.93227 36.6805 8.91274 36.8759 8.89972C37.0712 8.88344 37.2665 8.87042 37.4618 8.86066C37.5269 8.85415 37.5774 8.83787 37.6132 8.81183C37.6522 8.78253 37.6718 8.7451 37.6718 8.69952C37.6718 8.65721 37.6522 8.60675 37.6132 8.54816C37.4764 8.36587 37.3381 8.18683 37.1981 8.01105C37.0614 7.83201 36.9198 7.6546 36.7733 7.47882ZM40.5282 7.0882C40.5282 7.03937 40.5494 6.99217 40.5917 6.94659C40.634 6.89777 40.6893 6.85545 40.7577 6.81964C40.826 6.78058 40.9025 6.74965 40.9872 6.72687C41.0751 6.70083 41.163 6.68781 41.2509 6.68781C41.2997 6.68781 41.3404 6.70083 41.3729 6.72687C41.4087 6.75291 41.4397 6.80337 41.4657 6.87823C41.4917 6.94985 41.5145 7.05239 41.5341 7.18585C41.5568 7.31606 41.578 7.48696 41.5975 7.69855C41.6106 7.76365 41.6219 7.81411 41.6317 7.84991C41.6447 7.88247 41.661 7.89874 41.6805 7.89874C41.7098 7.89874 41.7391 7.84829 41.7684 7.74738C42.0061 7.06053 42.3495 6.7171 42.7987 6.7171C43.007 6.7171 43.1958 6.78221 43.3651 6.91241C43.5376 7.04262 43.6971 7.25584 43.8436 7.55206C43.9934 7.84503 44.135 8.2324 44.2684 8.71417C44.4019 9.19269 44.5354 9.78351 44.6688 10.4866C44.6753 10.5224 44.6802 10.555 44.6835 10.5843C44.6867 10.6136 44.6884 10.6413 44.6884 10.6673C44.6884 10.7422 44.6705 10.8073 44.6346 10.8626C44.6021 10.9147 44.5581 10.9586 44.5028 10.9944C44.4475 11.027 44.3856 11.0514 44.3173 11.0677C44.2489 11.0872 44.1805 11.097 44.1122 11.097C43.9755 11.097 43.8762 11.0823 43.8143 11.053C43.7557 11.0237 43.7183 10.9684 43.702 10.887C43.6076 10.3922 43.5149 9.95278 43.4237 9.56866C43.3358 9.18455 43.2479 8.86228 43.16 8.60187C43.0754 8.3382 42.9908 8.138 42.9061 8.00128C42.8215 7.86456 42.7369 7.7962 42.6522 7.7962C42.5676 7.7962 42.4878 7.84991 42.413 7.95734C42.3413 8.0615 42.2714 8.22589 42.203 8.4505C42.1346 8.67511 42.0679 8.95994 42.0028 9.30499C41.941 9.65004 41.8807 10.0618 41.8221 10.5403C41.8059 10.6706 41.7408 10.7747 41.6268 10.8528C41.5129 10.931 41.368 10.97 41.1923 10.97C41.0751 10.97 40.9856 10.9456 40.9237 10.8968C40.8619 10.848 40.8277 10.7812 40.8212 10.6966C40.7919 10.0195 40.7593 9.46287 40.7235 9.02667C40.691 8.58722 40.66 8.23566 40.6307 7.97198C40.6014 7.70506 40.577 7.50649 40.5575 7.37628C40.538 7.24607 40.5282 7.15004 40.5282 7.0882ZM48.4677 7.45929C48.4807 7.4658 48.5002 7.46906 48.5262 7.46906C48.5979 7.46906 48.6337 7.42185 48.6337 7.32745V5.8089C48.6337 5.61684 48.676 5.48012 48.7606 5.39874C48.8485 5.31736 48.9934 5.27667 49.1952 5.27667C49.4003 5.27667 49.5451 5.31899 49.6298 5.40363C49.7144 5.48826 49.7567 5.63312 49.7567 5.8382C49.7567 5.91632 49.7518 6.03188 49.7421 6.18488C49.7323 6.33462 49.7209 6.50551 49.7079 6.69757C49.6981 6.88963 49.6884 7.09633 49.6786 7.31769C49.6688 7.53579 49.6639 7.75226 49.6639 7.9671C49.6639 8.29913 49.6867 8.58559 49.7323 8.82648C49.7779 9.06736 49.843 9.26756 49.9276 9.42706C50.0122 9.58331 50.1132 9.7005 50.2303 9.77863C50.3475 9.8535 50.4794 9.89093 50.6259 9.89093C50.7072 9.89093 50.7805 9.88116 50.8456 9.86163C50.9139 9.83885 50.9937 9.82745 51.0848 9.82745C51.1499 9.82745 51.2037 9.86163 51.246 9.92999C51.2915 9.9951 51.3143 10.0748 51.3143 10.1693C51.3143 10.2539 51.2883 10.3336 51.2362 10.4085C51.1874 10.4834 51.119 10.5485 51.0311 10.6038C50.9465 10.6592 50.8472 10.7031 50.7333 10.7357C50.6193 10.765 50.5005 10.7796 50.3768 10.7796C50.1099 10.7796 49.8658 10.6982 49.6444 10.5355C49.4231 10.3694 49.257 10.1172 49.1464 9.77863C49.1366 9.72654 49.1203 9.7005 49.0975 9.7005C49.0715 9.7005 49.0503 9.72654 49.0341 9.77863C48.9462 10.0163 48.8306 10.2311 48.6874 10.4232C48.5474 10.612 48.383 10.7747 48.1942 10.9114C48.0087 11.0449 47.8036 11.1474 47.579 11.2191C47.3576 11.2907 47.1233 11.3265 46.8759 11.3265C46.6154 11.3265 46.3762 11.2825 46.1581 11.1946C45.9432 11.11 45.7577 10.9912 45.6014 10.8382C45.4452 10.6819 45.3231 10.4997 45.2352 10.2913C45.1473 10.0797 45.1034 9.85187 45.1034 9.60773C45.1034 9.29523 45.1685 9.00063 45.2987 8.72394C45.4289 8.44725 45.6047 8.20636 45.826 8.00128C46.0507 7.79295 46.3111 7.62856 46.6073 7.50812C46.9035 7.38767 47.2193 7.32745 47.5546 7.32745C47.6913 7.32745 47.8361 7.33885 47.9891 7.36163C48.1421 7.38116 48.3016 7.41372 48.4677 7.45929ZM47.0663 10.4476C47.2518 10.4476 47.4162 10.4069 47.5594 10.3255C47.7059 10.2441 47.8345 10.1416 47.9452 10.0179C48.0591 9.89093 48.1552 9.75258 48.2333 9.60284C48.3114 9.44985 48.3749 9.30174 48.4237 9.15851C48.4725 9.01528 48.5083 8.8867 48.5311 8.77277C48.5539 8.65883 48.5653 8.57745 48.5653 8.52863C48.5653 8.49282 48.5555 8.46189 48.536 8.43585C48.5165 8.40656 48.4872 8.38377 48.4481 8.36749C48.3602 8.34471 48.2691 8.32517 48.1747 8.3089C48.0803 8.28937 47.9875 8.27309 47.8964 8.26007C47.8052 8.24705 47.7173 8.23728 47.6327 8.23077C47.5513 8.22426 47.4764 8.22101 47.4081 8.22101C47.2128 8.22101 47.0354 8.25031 46.8759 8.3089C46.7163 8.36749 46.5796 8.4505 46.4657 8.55792C46.355 8.66534 46.2688 8.79392 46.2069 8.94366C46.1451 9.09015 46.1141 9.25128 46.1141 9.42706C46.1141 9.58331 46.1369 9.72491 46.1825 9.85187C46.2313 9.97557 46.2964 10.0814 46.3778 10.1693C46.4624 10.2571 46.5634 10.3255 46.6805 10.3743C46.7977 10.4232 46.9263 10.4476 47.0663 10.4476Z" fill="#1E1E1E"/>
<path d="M27.6298 49.9485C27.6687 47.1169 25.5491 37.2394 27.2701 33.205C28.991 29.1707 34.222 26.0076 37.9459 25.7425C41.6796 25.4678 47.1828 27.807 49.6525 31.5856C52.1221 35.3643 52.3652 45.7153 52.7735 48.4238M26.5603 49.1719C26.463 46.454 24.6837 38.2148 26.4436 34.5498C28.2035 30.8754 33.2205 27.9774 37.1098 27.1441C40.999 26.3201 47.3092 25.9603 49.7691 29.5685C52.2388 33.1766 51.8401 45.3838 51.8985 48.7931" stroke="#1E1E1E" stroke-linecap="round"/>
<path d="M27.0368 49.7126C31.1691 49.5516 47.883 49.0781 52.0541 48.9929M26.434 49.2202C30.4593 48.8698 47.3871 48.2921 51.5874 48.15" stroke="#1E1E1E" stroke-linecap="round"/>
<path d="M46.8132 53.2502C46.9688 51.7918 46.8716 50.1345 46.8132 48.7613C46.7257 50.0114 46.8424 51.4793 46.8132 53.2502ZM46.8132 53.2502C46.0646 55.2579 47.241 58.0801 50.8386 57.1709M46.8132 53.2502C47.7758 55.6557 47.9897 56.3565 50.8386 57.1709M50.8386 57.1709C52.5984 57.1236 54.7472 58.8945 54.8639 61.0916M50.8386 57.1709C53.5318 56.3754 55.7098 57.7107 54.8639 61.0916M54.8639 61.0916C54.932 61.8492 54.8639 62.8247 54.8639 65.5805C54.8833 63.0898 54.7667 62.0197 54.8639 61.0916Z" stroke="#1E1E1E" stroke-linecap="round"/>
<path d="M54.9126 64.4252C55.2529 64.4725 55.5057 64.7851 55.6613 64.9176C55.8071 65.0502 55.7002 65.1165 55.8169 65.2302C55.9433 65.3438 56.4002 65.4196 56.3711 65.6184C56.3516 65.8173 55.9821 66.1677 55.6516 66.4139C55.3307 66.6507 54.6987 67.1053 54.3973 67.0579C54.0862 67.0011 53.9306 66.3098 53.8139 66.1014C53.6972 65.8931 53.6194 65.9499 53.6972 65.7889C53.7847 65.6279 54.1542 65.3817 54.3098 65.1355C54.4751 64.8892 54.6209 64.4725 54.6598 64.3115C54.6987 64.1505 54.4654 64.2168 54.5431 64.1695M55.3599 63.9517C55.6224 64.0369 56.2155 64.6998 56.2933 65.0029C56.3613 65.3059 55.7293 65.5427 55.8071 65.751C55.8752 65.9594 56.7016 65.9783 56.7211 66.234C56.7405 66.4897 56.3419 67.2 55.9238 67.2852C55.5057 67.3799 54.6987 67.0485 54.232 66.7738C53.7653 66.4992 53.1139 65.8647 53.1139 65.6279C53.1041 65.3911 53.9695 65.4006 54.1834 65.3343C54.407 65.2586 54.3584 65.4385 54.4167 65.2017C54.4751 64.9555 54.4362 63.9327 54.5431 63.8948C54.6598 63.857 55.0293 64.8608 55.0876 64.965" fill="#1E1E1E"/>
<path d="M54.7959 64.4346C54.9709 64.2736 55.2529 63.999 55.4182 64.16C55.5834 64.3115 55.6515 65.0975 55.7779 65.3722C55.9043 65.6563 56.3029 65.6468 56.1863 65.8078C56.0696 65.9688 55.282 66.0919 55.0681 66.3287C54.8639 66.5654 55.1654 67.2378 54.932 67.2189C54.6889 67.1999 53.9305 66.5938 53.6388 66.215C53.3471 65.8362 53.143 65.1638 53.1624 64.946C53.1819 64.7282 53.4347 65.0407 53.775 64.9176C54.1055 64.7945 55.0001 64.2736 55.1751 64.2168C55.3404 64.16 54.8056 64.4914 54.7959 64.5767M55.3015 64.1126C55.4279 64.16 55.1167 64.463 55.2529 64.7756C55.389 65.0881 56.0113 65.7699 56.1085 65.9688C56.2154 66.1677 55.9335 65.8836 55.8362 65.9499C55.7487 66.0162 55.9724 66.1866 55.564 66.3666C55.1654 66.537 53.6388 67.039 53.4152 67.0011C53.1916 66.9632 54.2806 66.4707 54.2319 66.1393C54.1931 65.8173 53.1721 65.4385 53.1235 65.0502C53.0846 64.6619 53.7263 63.9516 53.9694 63.8285C54.2222 63.7054 54.4945 64.2736 54.6014 64.3115C54.7181 64.3494 54.5334 63.9706 54.6598 64.0558" stroke="#1E1E1E" stroke-linecap="round"/>
<path d="M32.0349 52.5048C32.0349 51.3021 32.1419 50.5634 32.0349 49.6164C32.0349 50.3551 31.9668 50.9991 32.0349 52.5048ZM32.0349 52.5048C31.1307 55.3364 31.8793 55.2039 29.0694 55.3838M32.0349 52.5048C31.8793 53.6129 29.9445 54.986 29.0694 55.3838M29.0694 55.3838C27.4651 55.5069 26.065 55.5448 24.7524 55.3838M29.0694 55.3838C27.3873 55.3554 25.5691 55.3838 24.7524 55.3838M24.7524 55.3838C22.6619 55.8005 21.7966 55.6584 21.7966 58.2722M24.7524 55.3838C23.6342 54.6167 20.7076 56.8706 21.7966 58.2722M21.7966 58.2722C21.7966 59.3424 21.6702 60.422 21.7966 61.1607C21.7577 60.0716 21.8063 59.1719 21.7966 58.2722Z" stroke="#1E1E1E" stroke-linecap="round"/>
<path d="M21.8159 60.8387C21.8743 60.8009 21.7576 60.6399 21.9229 60.5925C22.0882 60.5357 22.691 60.422 22.8174 60.5167C22.9341 60.6209 22.8077 60.9145 22.6618 61.1702C22.516 61.4259 22.1076 61.9846 21.9326 62.0604C21.7479 62.1362 21.6992 61.6532 21.602 61.6248C21.5048 61.5869 21.3589 61.871 21.3395 61.8521C21.3103 61.8331 21.4951 61.7195 21.4659 61.5206C21.4367 61.3217 21.1548 60.8577 21.1548 60.6493C21.1645 60.4315 21.32 60.3558 21.4756 60.2421C21.6409 60.1285 22.0979 59.8633 22.1173 59.9769M22.3507 60.8577C22.3507 60.9713 21.7381 60.9713 21.884 61.0092C22.0201 61.0376 23.0216 60.8671 23.216 61.0376C23.4008 61.2081 23.2549 61.8805 23.0313 62.0036C22.8077 62.1362 22.2146 61.9373 21.8743 61.8142C21.5242 61.6816 20.97 61.2933 20.9603 61.2365C20.9506 61.1891 21.7187 61.4354 21.8062 61.5017C21.8937 61.5679 21.6312 61.871 21.4951 61.6532C21.3589 61.4448 20.9117 60.3273 21.0089 60.2232C21.0964 60.119 21.8937 60.9903 22.0396 61.0376C22.1854 61.085 21.8256 60.5641 21.8645 60.5073" fill="#1E1E1E"/>
<path d="M21.7187 60.0053C21.816 60.0243 21.8646 60.6398 22.0299 60.7724C22.1952 60.9145 22.7105 60.7629 22.7202 60.8387C22.7202 60.9145 22.1271 60.9997 22.059 61.2459C22.0007 61.5016 22.4869 62.2592 22.3605 62.3445C22.2243 62.4202 21.5437 61.9846 21.2618 61.7478C20.9895 61.5111 20.7367 61.0186 20.6686 60.9239C20.6006 60.8198 20.7075 61.227 20.8826 61.1417C21.0673 61.0565 21.5826 60.4788 21.7479 60.4031C21.9229 60.3273 21.8062 60.6209 21.8937 60.6777C21.9813 60.744 22.1952 60.8008 22.2924 60.7819M21.0965 60.3462C21.2229 60.422 21.9618 60.8387 22.2049 60.8671C22.4577 60.8955 22.4382 60.4694 22.5744 60.4978C22.7202 60.5262 23.2355 60.7535 23.0411 61.047C22.8369 61.3311 21.5048 62.0604 21.3687 62.2308C21.2229 62.4108 22.3216 62.2024 22.1952 62.0888C22.0688 61.9751 20.8534 61.8236 20.6103 61.549C20.3672 61.2743 20.7075 60.6019 20.7173 60.4409C20.7367 60.2799 20.62 60.6209 20.7075 60.5546C20.8048 60.4978 21.0576 60.0621 21.2812 60.0905C21.4951 60.1284 21.9715 60.5735 22.0201 60.7535" stroke="#1E1E1E" stroke-linecap="round"/>
<path d="M35.8393 56.8806C35.674 53.4713 35.8587 51.8708 35.8393 49.7589C35.7032 51.2079 35.674 53.0546 35.8393 56.8806ZM35.8393 56.8806C36.6755 58.6042 36.6755 59.0209 38.7659 59.7311M35.8393 56.8806C34.7406 58.3863 37.5019 60.4509 38.7659 59.7311M38.7659 59.7311C40.7203 59.0398 42.4315 60.0152 41.6926 62.5817M38.7659 59.7311C39.6313 60.2615 42.7038 60.9812 41.6926 62.5817M41.6926 62.5817C41.3911 63.9549 41.6828 65.6311 41.6926 69.7128C41.5856 66.1709 41.6439 64.6083 41.6926 62.5817Z" stroke="#1E1E1E" stroke-linecap="round"/>
<path d="M41.4981 68.1502C41.8579 68.0082 42.7621 67.9229 43.0927 68.1029C43.4233 68.2828 43.5205 68.7847 43.4719 69.2393C43.433 69.6844 43.0733 70.5367 42.8496 70.8303C42.626 71.1239 42.4218 70.8871 42.1496 70.9913C41.8773 71.0955 41.4495 71.4648 41.2065 71.4459C40.9634 71.4175 40.8759 71.1902 40.6814 70.8398C40.4772 70.4894 40.0591 69.7791 40.03 69.3435C39.9911 68.9079 40.098 68.5196 40.4675 68.2449C40.8467 67.9608 42.0329 67.601 42.2565 67.6578C42.4704 67.7146 41.8968 68.4059 41.7898 68.5764M41.1384 68.5669C41.469 68.4438 42.8108 68.226 43.258 68.4249C43.6955 68.6237 43.8414 69.4477 43.7831 69.7602C43.7344 70.0727 43.2775 70.1863 42.9469 70.3095C42.6163 70.4326 41.9551 70.3568 41.7996 70.4989C41.6343 70.6504 42.1301 71.0765 41.9746 71.1997C41.819 71.3228 41.2162 71.5785 40.8564 71.247C40.5064 70.9156 39.8355 69.5613 39.8258 69.2298C39.8161 68.8889 40.5064 69.4192 40.8175 69.2393C41.1189 69.0688 41.4398 68.3396 41.644 68.1786C41.8482 68.0271 42.0718 68.4059 42.0232 68.3207" fill="#1E1E1E"/>
<path d="M41.4301 68.1597C41.8287 68.1692 42.7232 68.0177 42.9858 68.1787C43.2483 68.3397 42.9371 68.6332 43.0247 69.1162C43.1122 69.5897 43.6858 70.6978 43.5205 71.0482C43.3552 71.3986 42.5191 71.2754 42.0329 71.2281C41.5565 71.1807 40.9731 70.8303 40.6425 70.7451C40.3022 70.6504 40.0591 70.9534 40.0202 70.7072C39.9813 70.4515 40.3119 69.5803 40.4092 69.2299C40.5161 68.8889 40.3314 68.7753 40.6231 68.6427C40.9148 68.5101 41.8482 68.5006 42.1593 68.4344C42.4607 68.3586 42.4899 68.226 42.4413 68.2165M41.4884 68.3775C41.9357 68.2544 42.2663 67.7904 42.6649 67.8567C43.0538 67.9324 43.8803 68.3207 43.8511 68.8132C43.8122 69.2961 42.6066 70.3379 42.4704 70.7735C42.3343 71.1997 43.3163 71.3228 43.0344 71.408C42.7427 71.4933 41.2356 71.5122 40.7397 71.2849C40.2439 71.0576 40.2439 70.3379 40.0397 70.0443C39.8258 69.7507 39.4855 69.836 39.4855 69.5329C39.4855 69.2299 39.6508 68.4249 40.0397 68.2449C40.4286 68.0555 41.5856 68.3396 41.8093 68.4344C42.0232 68.5196 41.4592 68.9079 41.3426 68.7942" stroke="#1E1E1E" stroke-linecap="round"/>
<path d="M41.5457 54.4647C41.3416 53.4135 41.4096 51.2164 41.5457 49.4739C41.4096 51.2259 41.6332 52.7127 41.5457 54.4647ZM41.5457 54.4647C41.4096 54.9382 41.1957 55.8947 43.3737 56.2451M41.5457 54.4647C42.2263 56.3682 42.0027 55.9894 43.3737 56.2451M43.3737 56.2451C45.3377 55.5727 44.2585 57.2963 45.2016 58.0255M43.3737 56.2451C45.61 56.5387 44.4335 56.8228 45.2016 58.0255M45.2016 58.0255C45.1821 59.1525 45.0752 60.7056 45.2016 63.0164C45.1335 61.5864 45.1141 59.6923 45.2016 58.0255Z" stroke="#1E1E1E" stroke-linecap="round"/>
<path d="M45.7073 61.6432C45.9893 61.6243 46.1157 61.861 46.174 62.1356C46.2226 62.4103 46.0476 63.0732 46.0087 63.2816C45.9698 63.4899 46.0281 63.2342 45.9406 63.3857C45.8531 63.5467 45.6392 64.0676 45.4934 64.2096C45.3573 64.3517 45.3281 64.3801 45.1045 64.2286C44.8808 64.0771 44.3461 63.6035 44.1613 63.31C43.9863 63.0164 43.8599 62.7417 44.0252 62.4766C44.1808 62.2114 44.91 61.7095 45.1336 61.719C45.3573 61.7284 45.3184 62.4008 45.3573 62.5334C45.3864 62.666 45.3573 62.4955 45.3378 62.505M46.0281 62.1356C46.3782 62.1641 46.5046 62.7702 46.4948 62.9027C46.4851 63.0448 46.1545 62.9406 45.9601 62.9501C45.7753 62.9596 45.3378 62.808 45.3573 62.9596C45.367 63.1016 46.0768 63.613 46.0476 63.8592C46.0184 64.096 45.5323 64.56 45.192 64.4085C44.8517 64.2665 44.1322 63.1395 44.0252 62.9596C43.9182 62.7796 44.4238 63.4615 44.56 63.3478C44.6961 63.2247 44.6086 62.4576 44.8322 62.2777C45.0558 62.0978 45.8337 62.3913 45.892 62.2588C45.9601 62.1167 45.192 61.539 45.2211 61.4633" fill="#1E1E1E"/>
<path d="M45.1238 61.6906C45.3377 61.558 45.1335 61.4822 45.3766 61.7095C45.6294 61.9368 46.5045 62.7986 46.6212 63.0543C46.7378 63.31 46.2906 63.1964 46.0864 63.2532C45.8725 63.3005 45.5808 63.2058 45.3766 63.3763C45.1822 63.5468 44.978 64.2286 44.8807 64.2665C44.7738 64.3044 44.8905 63.7551 44.7641 63.5941C44.6279 63.4426 44.0835 63.4521 44.064 63.3195C44.0446 63.1774 44.414 62.9596 44.6474 62.7607C44.8807 62.5618 45.4155 62.2399 45.4836 62.1357C45.5419 62.041 45.1335 62.2209 45.0363 62.1452M45.2016 61.5201C45.5127 61.3686 46.3586 61.4822 46.4073 61.7569C46.4559 62.0315 45.4447 62.8554 45.503 63.1774C45.5614 63.4994 46.8351 63.5657 46.7573 63.6888C46.6892 63.8119 45.4252 63.9729 45.0655 63.9161C44.696 63.8593 44.7932 63.4142 44.5793 63.3384C44.3557 63.2721 43.8987 63.632 43.7529 63.4994C43.607 63.3668 43.5195 62.7134 43.6848 62.5618C43.8598 62.4198 44.5599 62.6092 44.7738 62.6281C44.9877 62.6565 44.9683 62.9028 44.9585 62.7323C44.9488 62.5618 44.7349 61.6432 44.7252 61.6148" stroke="#1E1E1E" stroke-linecap="round"/>
<path d="M35.1805 58.0249C35.6569 57.987 36.075 58.0249 36.5708 58.0249C36.2597 58.0249 35.9097 58.0155 35.1805 58.0249ZM35.1805 58.0249C33.615 57.7882 34.1887 58.8867 33.7901 59.3792M35.1805 58.0249C34.1498 57.8545 34.2179 58.8488 33.7901 59.3792M33.7901 59.3792C33.7998 60.4114 33.7706 61.3206 33.7901 62.0877M33.7901 59.3792C33.7901 60.1463 33.829 60.9512 33.7901 62.0877M33.7901 62.0877C33.1581 63.2904 33.9165 63.6124 32.3997 63.4419M33.7901 62.0877C33.2747 62.9779 33.0317 62.8358 32.3997 63.4419M32.3997 63.4419C32.0691 63.4514 31.8066 63.423 31.0093 63.4419C31.301 63.4419 31.8357 63.4514 32.3997 63.4419Z" stroke="#1E1E1E" stroke-linecap="round"/>
<path d="M31.1066 63.0821C31.0871 63.1484 30.9705 63.4325 30.9802 63.4514C30.9899 63.4798 31.126 63.1768 31.1746 63.2147C31.2233 63.2525 31.2427 63.5651 31.2719 63.6787C31.3108 63.7829 31.4372 63.8776 31.3788 63.8681C31.3108 63.8492 31.0191 63.6787 30.9121 63.6124C30.7954 63.5367 30.6691 63.4988 30.6982 63.423C30.7274 63.3473 31.0774 63.101 31.0969 63.1294C31.1163 63.1578 30.8441 63.5461 30.8149 63.6124C30.776 63.6882 30.883 63.5461 30.8927 63.5367C30.9024 63.5272 30.8149 63.6314 30.8635 63.5651M31.3691 63.6314C31.301 63.6124 31.058 63.4041 30.9607 63.2904C30.8538 63.1863 30.6496 62.9495 30.7566 62.9779C30.8538 63.0063 31.4858 63.2999 31.583 63.4609C31.69 63.6219 31.515 63.9912 31.3788 63.9628C31.2427 63.9439 30.8441 63.3283 30.7857 63.3188C30.7371 63.3188 31.0482 63.9155 31.0774 63.9439C31.0969 63.9628 30.9121 63.5461 30.951 63.4609C30.9802 63.3851 31.2719 63.5367 31.2622 63.442C31.2622 63.3473 30.8927 62.94 30.9316 62.8737C30.9607 62.8074 31.5538 63.0063 31.4858 63.0347" fill="#1E1E1E"/>
<path d="M30.8051 62.9873C30.8828 63.0726 31.3787 63.5272 31.4371 63.5934C31.4857 63.6597 31.2037 63.4324 31.1162 63.3756C31.0287 63.3093 30.9412 63.1483 30.912 63.2146C30.8828 63.2809 30.9023 63.7355 30.9412 63.7828C30.9898 63.8397 31.1843 63.565 31.1648 63.5461C31.1356 63.5366 30.8148 63.6787 30.7856 63.6976C30.7564 63.7166 30.9412 63.6976 31.0092 63.6408C31.087 63.584 31.2134 63.423 31.2134 63.3756C31.2134 63.3188 31.0481 63.3946 30.9995 63.3377C30.9606 63.2715 30.9217 62.9968 30.9217 62.9873M31.3884 62.9495C31.3495 63.0442 30.6203 63.4514 30.6592 63.5556C30.6981 63.6503 31.5926 63.5556 31.6218 63.5556C31.6412 63.5461 30.9412 63.584 30.8148 63.5272C30.6884 63.4609 30.9023 63.1957 30.8634 63.2052C30.8245 63.2146 30.6203 63.565 30.562 63.584C30.5036 63.6029 30.4453 63.3093 30.5231 63.3188C30.6009 63.3283 30.9703 63.565 30.9995 63.6408C31.0384 63.7166 30.8051 63.8776 30.7564 63.7734C30.7078 63.6597 30.6981 63.0158 30.7078 62.9779C30.7175 62.94 30.7273 63.4703 30.8051 63.5461" stroke="#1E1E1E" stroke-linecap="round"/>
<path d="M26.7674 60.2317C26.5827 57.1349 26.816 56.0837 26.7674 55.1746C26.7674 57.0876 26.6605 59.1331 26.7674 60.2317ZM26.7674 60.2317C27.3605 61.8038 26.1451 61.4344 25.309 61.6617M26.7674 60.2317C27.4091 61.7375 27.1077 62.6845 25.309 61.6617M25.309 61.6617C25.2117 61.9174 23.1699 62.1163 23.8408 63.0823M25.309 61.6617C23.8894 60.7526 22.9754 62.1163 23.8408 63.0823M23.8408 63.0823C23.9575 64.1713 24.0839 65.2604 23.8408 68.1394C23.9575 65.4025 23.8602 64.3134 23.8408 63.0823Z" stroke="#1E1E1E" stroke-linecap="round"/>
<path d="M23.4227 67.467C23.5783 67.4196 24.0158 66.9556 24.2589 67.0503C24.502 67.1355 24.7159 67.7322 24.8714 68.0257C25.027 68.3193 25.2895 68.6697 25.1923 68.8212C25.0853 68.9728 24.57 68.9159 24.2783 68.9254C23.9964 68.9444 23.5977 68.9917 23.481 68.897C23.3546 68.7928 23.6561 68.3761 23.5394 68.3383C23.4227 68.2909 22.8782 68.6981 22.781 68.6413C22.674 68.5845 22.8004 68.1488 22.9171 67.9879C23.0241 67.8269 23.2671 67.8363 23.4616 67.6753C23.6463 67.5143 23.9672 67.0219 24.0644 67.0314M23.6074 67.1923C23.5977 66.984 23.5102 66.6715 23.8214 66.7946C24.1228 66.9082 25.202 67.5049 25.4159 67.9026C25.6298 68.2909 25.3673 69.0485 25.1145 69.1716C24.8714 69.2853 24.1228 68.5277 23.9089 68.6034C23.695 68.6792 23.9478 69.6262 23.8214 69.6357C23.7047 69.6452 23.238 68.9159 23.1796 68.6697C23.1116 68.4235 23.4713 68.4708 23.4616 68.1678C23.4519 67.8553 22.9366 67.0408 23.1213 66.823C23.2963 66.6147 24.5506 66.8704 24.5603 66.8704C24.57 66.8798 23.2963 66.681 23.1505 66.8704" fill="#1E1E1E"/>
<path d="M24.1325 67.6658C24.3464 67.6848 24.1617 67.3439 24.1908 67.287C24.2297 67.2397 24.2783 67.1166 24.3367 67.3533C24.395 67.5901 24.4825 68.4803 24.5311 68.7265C24.5798 68.9727 24.7937 68.7549 24.6381 68.8496C24.4728 68.9443 23.7922 69.2663 23.5783 69.3042C23.3741 69.3421 23.4227 69.2569 23.3936 69.0864C23.3547 68.9065 23.4227 68.4803 23.3741 68.2435C23.3255 68.0068 23.0727 67.9026 23.1019 67.6564C23.131 67.4196 23.4616 66.8798 23.5686 66.804C23.6755 66.7283 23.6755 67.1166 23.7339 67.2113M22.9657 67.5996C23.1699 67.6753 24.7548 67.5143 24.959 67.5522C25.1631 67.5901 24.2978 67.77 24.2006 67.8174C24.1131 67.8647 24.502 67.6753 24.4242 67.8553C24.3464 68.0352 23.9478 68.7644 23.7436 68.9065C23.5394 69.058 23.2477 68.717 23.1796 68.7455C23.1213 68.7739 23.4616 69.0674 23.3741 69.0864C23.2866 69.1053 22.8004 69.1716 22.6838 68.8402C22.5671 68.5182 22.5477 67.3249 22.6643 67.126C22.7713 66.9272 23.1408 67.5996 23.3449 67.6469C23.5491 67.7037 23.695 67.5617 23.87 67.4386" stroke="#1E1E1E" stroke-linecap="round"/>
<path d="M40.0093 64.2957C40.6219 64.3336 41.0205 64.2484 41.5456 64.2957C41.0886 64.2862 40.6997 64.3052 40.0093 64.2957ZM40.0093 64.2957C38.9009 64.1442 38.8426 65.1196 38.4731 65.792M40.0093 64.2957C39.5329 64.9776 38.6092 64.7598 38.4731 65.792M38.4731 65.792C38.4731 66.1045 38.4828 66.4265 38.4731 66.7864M38.4731 65.792C38.4634 66.0288 38.4926 66.2466 38.4731 66.7864M38.4731 66.7864C38.0259 67.7808 37.705 67.7618 36.9369 68.2827M38.4731 66.7864C37.8897 67.7808 37.4425 67.9891 36.9369 68.2827M36.9369 68.2827C36.4799 68.2543 35.8868 68.2638 35.4006 68.2827C35.8479 68.3016 36.4118 68.2732 36.9369 68.2827Z" stroke="#1E1E1E" stroke-linecap="round"/>
<path d="M35.3716 67.866C35.4591 67.866 35.5563 68.1501 35.6439 68.2543C35.7411 68.3584 35.9453 68.4721 35.9258 68.5005C35.9161 68.5194 35.6633 68.4153 35.5661 68.3963C35.4688 68.3774 35.3327 68.4153 35.3327 68.3869C35.3424 68.3584 35.6341 68.169 35.5952 68.2259C35.5661 68.2732 35.216 68.671 35.1188 68.7183C35.0313 68.7657 35.0508 68.5857 35.041 68.5289C35.041 68.4816 34.9924 68.51 35.0799 68.4153C35.1772 68.3111 35.5077 67.9228 35.5952 67.9133C35.6827 67.9039 35.6341 68.2922 35.605 68.3584M35.0021 67.6103C35.148 67.6103 35.848 67.8849 36.0036 68.0554C36.1689 68.2259 36.0522 68.6236 35.955 68.6426C35.8578 68.6615 35.4786 68.1122 35.4299 68.1596C35.3911 68.2069 35.673 68.8698 35.6633 68.9361C35.6633 69.0024 35.4202 68.6236 35.3911 68.5478C35.3716 68.4816 35.5952 68.6331 35.5369 68.51C35.4883 68.3869 35.0508 67.9228 35.0799 67.8186C35.1188 67.705 35.7605 67.8565 35.7411 67.8565C35.7119 67.8565 35.0216 67.6955 34.9535 67.8092C34.8855 67.9133 35.2744 68.4721 35.3327 68.51" fill="#1E1E1E"/>
<path d="M35.3035 68.027C35.2548 67.9134 35.2451 67.724 35.2743 67.7903C35.3035 67.8471 35.4007 68.3206 35.4979 68.4058C35.5854 68.5005 35.8382 68.2827 35.8285 68.3206C35.8091 68.3679 35.4785 68.5952 35.4299 68.6615C35.3812 68.7278 35.5076 68.7657 35.5174 68.7373C35.5368 68.7089 35.5854 68.5479 35.5271 68.4816C35.4687 68.4153 35.2257 68.4437 35.1576 68.3395C35.0993 68.2259 35.0993 67.8944 35.1382 67.8471C35.1673 67.7903 35.2937 67.9891 35.3521 68.027C35.4201 68.0649 35.5465 68.027 35.5174 68.0744M35.8188 68.1975C35.8868 68.1501 35.2548 68.1596 35.1868 68.0933C35.1284 68.0365 35.4201 67.7808 35.4201 67.8281C35.4299 67.8755 35.2743 68.2922 35.2257 68.3679C35.1868 68.4437 35.1187 68.2259 35.1673 68.2922C35.2159 68.349 35.5174 68.6426 35.5076 68.7373C35.4882 68.8415 35.1673 69.0119 35.0604 68.8793C34.9534 68.7562 34.8659 68.0554 34.8659 67.9797C34.8562 67.8944 34.9145 68.3585 35.0215 68.3964C35.1284 68.4248 35.3618 68.2827 35.5076 68.1785C35.6438 68.0744 35.8479 67.7429 35.8382 67.7713" stroke="#1E1E1E" stroke-linecap="round"/>
<path d="M40.5735 55.8872C41.1082 55.8777 41.361 55.9156 41.5458 55.8872C41.3416 55.8966 41.1082 55.8777 40.5735 55.8872ZM40.5735 55.8872C40.3012 56.2092 40.0776 56.7963 39.6012 56.8342M40.5735 55.8872C40.0582 55.8588 39.7276 55.9914 39.6012 56.8342M39.6012 56.8342C39.6303 57.2225 39.5526 57.6676 39.6012 58.7377M39.6012 56.8342C39.6206 57.2793 39.572 57.7055 39.6012 58.7377M39.6012 58.7377C39.3484 58.3305 39.1636 58.9177 39.7859 58.9177M39.6012 58.7377C39.0859 58.5673 39.9026 59.287 39.7859 58.9177M39.7859 58.9177C39.5039 58.643 40.2526 58.8514 39.9804 58.7377M39.7859 58.9177C39.4456 59.1923 40.3401 59.5522 39.9804 58.7377M39.9804 58.7377C39.9706 58.4347 39.9998 58.1222 39.9804 57.9706M39.9804 58.7377C39.9901 58.5294 39.9901 58.3305 39.9804 57.9706M39.9804 57.9706C39.6595 57.7812 40.2332 57.1088 39.0081 57.0236M39.9804 57.9706C40.5054 57.8759 39.3873 56.9763 39.0081 57.0236M39.0081 57.0236C38.7942 57.052 38.6191 57.0236 38.0358 57.0236C38.5414 57.0331 38.7747 57.0331 39.0081 57.0236Z" stroke="#1E1E1E" stroke-linecap="round"/>
<path d="M38.1524 57.1751C38.2107 57.2604 38.376 57.3172 38.3468 57.2982C38.3176 57.2793 38.0746 57.1088 37.9968 57.0425C37.919 56.9857 37.8218 56.9857 37.8704 56.9289C37.919 56.8815 38.2788 56.6827 38.2885 56.749C38.2982 56.8153 38.0065 57.2414 37.9384 57.3266C37.8801 57.4213 37.919 57.2888 37.9093 57.2888C37.8996 57.2793 37.8218 57.374 37.8801 57.3077C37.9384 57.2319 38.1912 56.8721 38.2496 56.8721C38.3176 56.8721 38.2885 57.2509 38.2593 57.3077C38.2301 57.374 38.0746 57.3172 38.0746 57.2509M38.4732 56.9478C38.5996 57.0899 38.4635 57.4213 38.3663 57.3929C38.2593 57.3645 37.9093 56.7584 37.8898 56.7679C37.8704 56.7774 38.2107 57.4119 38.2496 57.4687C38.2885 57.5161 38.1135 57.1467 38.1329 57.0994C38.1524 57.0425 38.4149 57.2414 38.376 57.1657C38.3468 57.0804 37.9093 56.6827 37.9287 56.6164C37.9482 56.5596 38.5607 56.7584 38.4927 56.7774C38.4343 56.8058 37.6468 56.6543 37.5592 56.7679C37.462 56.8815 37.8898 57.4308 37.9384 57.4687C37.9871 57.4971 37.919 56.9857 37.8607 56.9762" fill="#1E1E1E"/>
<path d="M37.7926 56.7205C37.7829 56.7584 37.8412 57.1751 37.919 57.2225C37.987 57.2604 38.2398 56.9857 38.2496 56.9857C38.2496 56.9857 37.9676 57.1657 37.9579 57.213C37.9481 57.2509 38.1329 57.2793 38.2009 57.2604C38.2593 57.2414 38.3662 57.1183 38.3371 57.0804C38.3079 57.052 38.0843 57.1372 38.0162 57.0804C37.9579 57.0236 37.9384 56.749 37.9384 56.73C37.9384 56.7111 37.9773 56.9384 38.0162 56.9857C38.0551 57.0425 38.2107 56.9857 38.1718 57.0331C38.1426 57.0804 37.8606 57.3172 37.7926 57.2698M37.6953 57.0236C37.5981 56.9289 37.8509 56.6353 37.8412 56.6353C37.8315 56.6353 37.6759 56.9857 37.6565 57.0236C37.6273 57.052 37.6078 56.7963 37.6953 56.8342C37.7829 56.8721 38.1621 57.1562 38.1912 57.2698C38.2204 57.374 37.9579 57.5823 37.8801 57.4876C37.8023 57.4024 37.7342 56.7679 37.7245 56.73C37.7148 56.6921 37.744 57.2225 37.812 57.2888C37.8898 57.3551 38.0454 57.2319 38.1621 57.1372C38.2787 57.0425 38.5121 56.7016 38.5024 56.73C38.4926 56.749 38.2593 57.2035 38.1134 57.2793" stroke="#1E1E1E" stroke-linecap="round"/>
<path d="M46.2626 59.165C45.4362 59.1176 45.1834 59.1555 44.9111 59.165C45.2612 59.1555 45.6404 59.1745 46.2626 59.165ZM46.2626 59.165C47.6433 59.7616 47.7405 59.5817 47.6141 60.4814M46.2626 59.165C47.2933 58.9566 46.9141 59.5722 47.6141 60.4814M47.6141 60.4814C47.6141 60.5476 47.6141 60.595 47.6141 60.6992M47.6141 60.4814C47.6141 60.5571 47.6141 60.6329 47.6141 60.6992M47.6141 60.6992C47.1183 61.5704 47.6239 61.7598 48.9754 62.0155M47.6141 60.6992C47.8572 61.9398 47.828 62.7258 48.9754 62.0155M48.9754 62.0155C49.3157 62.025 49.6171 62.0629 50.3269 62.0155C49.5976 62.0061 49.2768 62.0155 48.9754 62.0155Z" stroke="#1E1E1E" stroke-linecap="round"/>
<path d="M50.6186 62.1387C50.6283 62.1102 50.4241 61.9493 50.3658 61.9114C50.3171 61.864 50.2491 61.9019 50.3074 61.883C50.3658 61.864 50.7158 61.703 50.7158 61.7977C50.7158 61.8924 50.3852 62.347 50.2977 62.4512C50.2005 62.5554 50.2005 62.4322 50.1616 62.4228C50.1227 62.4133 50.0157 62.4796 50.0546 62.3849C50.0935 62.2902 50.3269 61.883 50.3949 61.8451C50.4533 61.8167 50.4435 62.1576 50.4435 62.1955C50.4338 62.2334 50.3366 62.1576 50.356 62.0913C50.3755 62.0155 50.5699 61.8356 50.5602 61.7504M50.6283 62.2334C50.5602 62.1955 50.2491 61.5989 50.2588 61.6273C50.2685 61.6557 50.6283 62.3186 50.6866 62.4038C50.7352 62.4891 50.5505 62.1576 50.5602 62.1387C50.5699 62.1197 50.8033 62.347 50.745 62.2807C50.6866 62.2239 50.2102 61.8261 50.1907 61.7598C50.181 61.6841 50.7547 61.864 50.6672 61.864C50.5894 61.864 49.7921 61.6651 49.6949 61.7504C49.6074 61.8356 50.0449 62.347 50.113 62.3565C50.181 62.3659 50.1713 61.8356 50.1227 61.8167C50.0838 61.8072 49.7921 62.3281 49.8699 62.2712" fill="#1E1E1E"/>
<path d="M50.2005 62.0534C50.3074 62.1008 50.5991 61.8356 50.6283 61.8545C50.6672 61.8735 50.3949 62.0913 50.3949 62.167C50.3949 62.2428 50.5699 62.3091 50.6186 62.3186C50.6672 62.328 50.745 62.2333 50.6866 62.2144C50.6283 62.1955 50.356 62.2807 50.2588 62.2144C50.1713 62.1386 50.1227 61.8356 50.1032 61.7977C50.0838 61.7504 50.113 61.9398 50.1616 61.9587C50.2102 61.9682 50.3755 61.8829 50.3658 61.9019C50.356 61.9303 50.1324 62.1576 50.0838 62.1008C50.0449 62.0439 50.0352 61.5515 50.1032 61.561M50.1421 61.4662C50.1616 61.4662 50.0449 61.8451 50.0449 61.9019C50.0449 61.9492 50.0449 61.7314 50.1421 61.8072C50.2296 61.8735 50.5991 62.1955 50.6088 62.3375C50.6186 62.4701 50.3171 62.6974 50.2102 62.6216C50.1032 62.5459 49.9963 61.9019 49.9574 61.8545C49.9185 61.8072 49.9185 62.3091 49.9768 62.347C50.0352 62.3849 50.1907 62.2144 50.3074 62.0913C50.4241 61.9682 50.6866 61.5894 50.6963 61.5988C50.7158 61.5988 50.5408 62.0534 50.4144 62.1197C50.2782 62.186 49.9671 62.0818 49.899 62.0061" stroke="#1E1E1E" stroke-linecap="round"/>
<path d="M51.423 55.0321C50.3534 55.1646 48.613 54.8237 47.106 55.0321C48.7491 55.0889 50.3437 55.1362 51.423 55.0321ZM51.423 55.0321C52.4731 54.9942 52.9106 54.3313 52.7356 53.7536M51.423 55.0321C51.248 54.9847 52.5995 55.0794 52.7356 53.7536M52.7356 53.7536C52.0647 52.513 53.494 52.9486 54.0579 52.4656M52.7356 53.7536C52.3758 53.9525 52.4633 51.7838 54.0579 52.4656M54.0579 52.4656C55.2052 52.6645 56.1192 52.494 58.3749 52.4656C57.1498 52.4561 55.5164 52.4183 54.0579 52.4656Z" stroke="#1E1E1E" stroke-linecap="round"/>
<path d="M58.4041 51.7837C58.443 51.6985 58.4916 51.8027 58.6764 51.8406C58.8611 51.869 59.4834 51.7553 59.5028 52.011C59.532 52.2667 59.0264 53.0906 58.8319 53.3463C58.6375 53.602 58.5208 53.5263 58.3555 53.5547C58.1805 53.5831 57.8596 53.6967 57.8013 53.5168C57.7429 53.3463 57.9763 52.655 58.0055 52.5129C58.0346 52.3709 57.986 52.7402 57.986 52.6834C57.986 52.6361 57.8791 52.3804 58.0249 52.2004C58.161 52.0205 58.7736 51.7269 58.8514 51.5849C58.9292 51.4523 58.618 51.2534 58.4722 51.367M58.1221 51.3576C58.2485 51.367 58.9681 52.3804 59.1528 52.5603C59.3472 52.7308 59.1917 52.3425 59.2597 52.4182C59.3278 52.494 59.6876 52.9865 59.5612 53.0054C59.4348 53.0243 58.6277 52.5508 58.5013 52.5129C58.3847 52.4845 59.0847 52.7876 58.8319 52.7781C58.5889 52.7686 57.2471 52.4182 57.0234 52.4561C56.7901 52.494 57.3832 53.1285 57.4804 53.0243C57.5777 52.9296 57.5679 51.9731 57.5971 51.869C57.636 51.7553 57.4999 52.4751 57.6943 52.3614C57.8888 52.2383 58.6666 51.3197 58.7639 51.1587" fill="#1E1E1E"/>
<path d="M58.5111 51.708C58.6667 51.6606 58.4528 51.9637 58.5889 52.0963C58.725 52.2289 59.1431 52.4183 59.3084 52.5224C59.4737 52.6361 59.639 52.6455 59.5515 52.7497C59.464 52.8539 59.007 53.1475 58.7737 53.138C58.5403 53.138 58.3167 52.7687 58.1514 52.7308C57.9958 52.6929 57.8597 52.9391 57.8111 52.9107C57.7527 52.8728 57.8986 52.6077 57.8305 52.5224C57.7625 52.4372 57.4027 52.6077 57.4027 52.4088C57.4124 52.2099 57.6847 51.3386 57.8597 51.3102C58.0347 51.2818 58.375 52.172 58.4625 52.2099M57.8014 51.7459C57.918 51.7838 58.093 51.4712 58.3458 51.6322C58.6084 51.7838 59.2793 52.3804 59.3473 52.7024C59.4251 53.0149 58.9876 53.5168 58.7931 53.5168C58.5986 53.5168 58.3361 52.6929 58.1611 52.6929C57.9958 52.6929 57.8305 53.4789 57.7916 53.5263C57.7527 53.5831 57.8208 53.2611 57.918 52.9865C58.0055 52.7213 58.3167 52.011 58.3264 51.8974C58.3458 51.7838 58.1125 52.2857 58.0055 52.3046C57.9083 52.3141 57.743 52.0963 57.7236 51.9542C57.7138 51.8122 57.7527 51.4712 57.9083 51.4523" stroke="#1E1E1E" stroke-linecap="round"/>
<path d="M39.5482 44.4921C38.981 43.4426 35.8612 40.7527 35.6994 38.736C35.5279 36.7193 37.9486 33.4733 38.5189 32.4015M39.229 45.0423C38.5453 44.0405 35.0761 41.5221 35.0301 39.2304C34.9744 36.9482 38.4025 32.4776 38.9239 31.3207" stroke="#1E1E1E" stroke-linecap="round"/>
<path d="M39.6375 44.5606C40.2275 43.5792 42.9127 40.4418 42.956 38.349C42.9895 36.2563 40.4143 33.1439 39.8676 32.0231M39.4488 43.6977C40.0787 42.565 43.5432 39.2239 43.4682 37.3577C43.3933 35.4821 39.5177 33.451 38.9798 32.4723" stroke="#1E1E1E" stroke-linecap="round"/>
<path d="M39.4223 36.8898C39.4223 36.8898 39.4547 36.9372 39.5195 37.0319C39.5908 37.1203 39.6427 37.2181 39.6751 37.3255C39.714 37.4391 39.7302 37.5464 39.7237 37.6475C39.7237 37.7611 39.701 37.8716 39.6556 37.9789C39.6167 38.0863 39.5617 38.1841 39.4904 38.2725C39.419 38.3609 39.3348 38.4367 39.2376 38.4998C39.1338 38.5629 39.0269 38.6071 38.9167 38.6324C38.8065 38.6576 38.6963 38.6671 38.5861 38.6608C38.4694 38.6482 38.356 38.6197 38.2458 38.5756C38.1421 38.5314 38.0449 38.4714 37.9541 38.3956C37.8698 38.3199 37.7985 38.2315 37.7402 38.1304C37.6819 38.0357 37.643 37.9316 37.6235 37.8179C37.6041 37.7043 37.6008 37.597 37.6138 37.4959C37.6268 37.3823 37.6592 37.275 37.711 37.1739C37.7629 37.0729 37.831 36.9814 37.9152 36.8993C37.9995 36.8172 38.0935 36.7509 38.1972 36.7004C38.3009 36.6499 38.4111 36.6184 38.5278 36.6057C38.638 36.5931 38.7482 36.5963 38.8584 36.6152C38.975 36.6341 39.082 36.672 39.1792 36.7288C39.2829 36.7857 39.3737 36.8551 39.4515 36.9372C39.5292 37.0256 39.5908 37.1203 39.6362 37.2213C39.6816 37.3286 39.7107 37.4391 39.7237 37.5528C39.7302 37.6601 39.7205 37.7674 39.6945 37.8748C39.6621 37.9821 39.6167 38.0863 39.5584 38.1873C39.4936 38.282 39.4158 38.364 39.3251 38.4335C39.2343 38.5029 39.1338 38.5566 39.0236 38.5945C38.9135 38.6387 38.8 38.6608 38.6833 38.6608C38.5731 38.6671 38.463 38.6513 38.3528 38.6134C38.2426 38.5819 38.1421 38.5314 38.0513 38.4619C37.9541 38.3988 37.9055 38.3672 37.9055 38.3672C37.9055 38.3672 37.8796 38.3325 37.8277 38.263C37.7694 38.1999 37.724 38.1304 37.6916 38.0547C37.6527 37.9789 37.6268 37.8968 37.6138 37.8085C37.6008 37.7264 37.5944 37.6475 37.5944 37.5717C37.6008 37.4833 37.617 37.4012 37.643 37.3255C37.6689 37.2434 37.7046 37.1645 37.7499 37.0887C37.7953 37.0193 37.8504 36.9561 37.9152 36.8993C37.9736 36.8362 38.0384 36.7825 38.1097 36.7383C38.1875 36.6941 38.2685 36.6594 38.3528 36.6341C38.4305 36.6089 38.5148 36.5931 38.6056 36.5868C38.6833 36.5868 38.7644 36.5931 38.8486 36.6057C38.9394 36.6184 39.0236 36.6436 39.1014 36.6815C39.1792 36.7131 39.2505 36.7573 39.3153 36.8141C39.3866 36.8646 39.4223 36.8898 39.4223 36.8898Z" fill="#1E1E1E"/>
</svg>
