<svg width="83" height="119" viewBox="0 0 83 119" fill="none" xmlns="http://www.w3.org/2000/svg">
<path d="M21.6508 1.9225C37.3725 0.497476 53.7567 2.04518 61.5978 1.9225C76.5582 3.31921 80.2661 7.79246 81.5713 20.9857C80.009 53.6102 79.6135 84.5832 81.5713 97.9464C85.1112 108.375 77.8733 113.744 61.5978 117.01C51.8681 119.435 37.7186 117.906 21.6508 117.01C11.6937 119.444 2.14196 107.884 1.67723 97.9464C2.21118 73.3718 0.965303 55.4505 1.67723 20.9857C4.57438 4.92354 4.92046 1.9225 21.6508 1.9225Z" fill="white"/>
<path d="M21.6508 1.92254C36.1464 3.18713 50.5234 2.58315 61.5978 1.92254M21.6508 1.92254C31.0344 1.34687 42.3362 2.11128 61.5978 1.92254M21.6508 1.92254C8.37134 3.30981 2.21119 7.62263 1.67725 20.9858M21.6508 1.92254C10.1116 2.03579 1.89478 6.37692 1.67725 20.9858M61.5978 1.92254C74.7586 1.62999 81.0868 9.2364 81.5713 20.9858M61.5978 1.92254C76.3505 3.16826 83.3611 6.9809 81.5713 20.9858M81.5713 20.9858C79.2675 44.173 80.5727 69.5686 81.5713 97.9464M81.5713 20.9858C81.8185 40.6435 81.2352 58.4327 81.5713 97.9464M81.5713 97.9464C81.334 111.564 74.9761 115.311 61.5978 117.01M81.5713 97.9464C82.2141 111.696 74.2049 117.274 61.5978 117.01M61.5978 117.01C46.5089 118.425 34.5446 116.028 21.6508 117.01M61.5978 117.01C51.9571 117.774 39.6467 116.632 21.6508 117.01M21.6508 117.01C6.37399 115.603 2.21119 110.281 1.67725 97.9464M21.6508 117.01C7.65942 115.056 2.53749 111.97 1.67725 97.9464M1.67725 97.9464C3.17032 72.2111 1.21252 46.9476 1.67725 20.9858M1.67725 97.9464C2.22108 71.5977 1.90467 44.9752 1.67725 20.9858" stroke="#1E1E1E" stroke-width="2" stroke-linecap="round"/>
<path d="M10.3937 85.1802C21.2605 85.1802 64.7474 85.1802 75.6142 85.1802" stroke="#1E1E1E" stroke-width="2" stroke-linecap="round"/>
<path d="M22.9633 1.81573C30.8242 1.81573 38.6851 1.81573 58.9453 1.81573C61.3975 1.81573 62.6335 2.98595 62.6335 5.33582C62.6335 7.44033 62.6335 9.55427 62.6335 12.3666C62.6335 14.707 61.3975 15.8772 58.9453 15.8772C48.1873 15.8772 37.4293 15.8772 22.9633 15.8772C20.5012 15.8772 19.2751 14.707 19.2751 12.3666C19.2751 10.5169 19.2751 8.66717 19.2751 5.33582C19.2751 2.98595 20.5012 1.81573 22.9633 1.81573Z" fill="white"/>
<path d="M22.9633 1.81573C33.6225 1.81573 44.2816 1.81573 58.9453 1.81573M22.9633 1.81573C30.5276 1.81573 38.0918 1.81573 58.9453 1.81573M22.9633 1.81573C20.5012 1.81573 19.2751 2.98595 19.2751 5.33582M58.9453 1.81573C61.3975 1.81573 62.6335 2.98595 62.6335 5.33582M62.6335 5.33582C62.6335 8.04431 62.6335 10.7528 62.6335 12.3666M62.6335 5.33582C62.6335 7.29877 62.6335 9.27115 62.6335 12.3666M62.6335 12.3666C62.6335 14.707 61.3975 15.8772 58.9453 15.8772M58.9453 15.8772C45.8538 15.8772 32.7622 15.8772 22.9633 15.8772M58.9453 15.8772C45.4978 15.8772 32.0503 15.8772 22.9633 15.8772M22.9633 15.8772C20.5012 15.8772 19.2751 14.707 19.2751 12.3666M19.2751 12.3666C19.2751 10.3564 19.2751 8.3463 19.2751 5.33582M19.2751 12.3666C19.2751 9.68639 19.2751 7.01565 19.2751 5.33582" stroke="#1E1E1E" stroke-width="2" stroke-linecap="round"/>
<path d="M35.1339 10.0263C35.0786 10.0263 35.0363 9.99864 35.007 9.9433C34.9809 9.88796 34.9679 9.80983 34.9679 9.70892C34.9679 9.69265 34.9679 9.67474 34.9679 9.65521C34.9679 9.63243 34.9712 9.59011 34.9777 9.52826C34.9874 9.29388 35.103 9.15717 35.3243 9.1181L35.4366 9.10834C35.5115 9.09857 35.5701 9.07579 35.6124 9.03998C35.6547 9.00092 35.6857 8.9472 35.7052 8.87885C35.7605 8.6933 35.8159 8.50612 35.8712 8.31732C35.9266 8.12852 35.9851 7.94135 36.047 7.7558C36.0795 7.65163 36.1121 7.54095 36.1447 7.42377C36.1805 7.30332 36.2179 7.18451 36.257 7.06732C36.2993 6.95013 36.3465 6.83457 36.3986 6.72064C36.4539 6.60671 36.5157 6.50254 36.5841 6.40814C36.6134 6.36908 36.6541 6.32839 36.7062 6.28607C36.7583 6.24375 36.8169 6.20632 36.882 6.17377C36.9503 6.13796 37.0219 6.11029 37.0968 6.09076C37.1749 6.06797 37.2514 6.05658 37.3263 6.05658C37.424 6.05658 37.52 6.0875 37.6144 6.14935C37.7413 6.23724 37.8667 6.34304 37.9904 6.46674C38.1141 6.59043 38.2524 6.74831 38.4054 6.94037C38.5584 7.13243 38.7358 7.36517 38.9376 7.63861C39.1394 7.90879 39.382 8.23594 39.6652 8.62006C39.7075 8.66888 39.7514 8.70632 39.797 8.73236C39.8458 8.75515 39.9028 8.76654 39.9679 8.76654H40.2462C40.3601 8.76654 40.448 8.79421 40.5099 8.84955C40.575 8.90163 40.6075 8.97487 40.6075 9.06927C40.6075 9.08881 40.6059 9.11159 40.6027 9.13763C40.6027 9.16368 40.5978 9.18972 40.588 9.21576L40.4952 9.4892C40.4887 9.51524 40.4838 9.53802 40.4806 9.55756C40.4773 9.57709 40.4757 9.59662 40.4757 9.61615C40.4757 9.68451 40.4985 9.7545 40.5441 9.82611L41.0665 10.539C41.1251 10.6269 41.1544 10.7099 41.1544 10.788C41.1544 10.9052 41.0877 11.0078 40.9542 11.0956L40.7687 11.2275C40.7231 11.2568 40.6792 11.2796 40.6368 11.2958C40.5978 11.3121 40.5571 11.3203 40.5148 11.3203C40.4562 11.3203 40.4008 11.3023 40.3488 11.2665C40.2999 11.234 40.2527 11.1884 40.2072 11.1298C40.0509 10.9085 39.893 10.6904 39.7335 10.4755C39.5773 10.2607 39.4178 10.0475 39.255 9.83588C39.1801 9.73171 39.0809 9.67963 38.9572 9.67963C38.56 9.6959 38.1661 9.71869 37.7755 9.74799C37.3881 9.77403 36.9991 9.80658 36.6085 9.84564C36.4685 9.85866 36.3807 9.93353 36.3448 10.0703L36.1251 10.8759C36.0665 11.0908 35.9363 11.1982 35.7345 11.1982H35.6564L35.505 11.1786C35.3943 11.1689 35.3097 11.1347 35.2511 11.0761C35.1958 11.0175 35.1681 10.941 35.1681 10.8466C35.1681 10.8271 35.1697 10.8059 35.173 10.7831C35.1762 10.7604 35.1811 10.7359 35.1876 10.7099C35.2039 10.6448 35.2202 10.5781 35.2365 10.5097C35.256 10.4413 35.2755 10.3746 35.295 10.3095C35.3016 10.2835 35.3064 10.2607 35.3097 10.2411C35.3129 10.2184 35.3146 10.1972 35.3146 10.1777C35.3146 10.0768 35.2755 10.0263 35.1974 10.0263H35.1339ZM37.4581 7.44818C37.4256 7.41888 37.3963 7.39447 37.3702 7.37494C37.3442 7.35541 37.3165 7.34564 37.2872 7.34564C37.2059 7.34564 37.1489 7.40261 37.1163 7.51654C37.0512 7.7086 36.9878 7.89903 36.9259 8.08783C36.8673 8.27338 36.8071 8.46381 36.7452 8.65912C36.7387 8.67539 36.7355 8.69004 36.7355 8.70306C36.7355 8.71608 36.7355 8.73073 36.7355 8.74701C36.7355 8.86745 36.799 8.92767 36.9259 8.92767H36.9747C37.17 8.90163 37.3654 8.8821 37.5607 8.86908C37.756 8.8528 37.9513 8.83978 38.1466 8.83002C38.2117 8.82351 38.2622 8.80723 38.298 8.78119C38.337 8.75189 38.3566 8.71446 38.3566 8.66888C38.3566 8.62657 38.337 8.57611 38.298 8.51752C38.1613 8.33523 38.0229 8.15619 37.8829 7.98041C37.7462 7.80137 37.6046 7.62396 37.4581 7.44818ZM43.7765 7.34564C43.656 7.34564 43.5503 7.37819 43.4591 7.4433C43.368 7.50515 43.2898 7.59304 43.2247 7.70697C43.1596 7.81765 43.1059 7.94948 43.0636 8.10248C43.0213 8.25222 42.9871 8.41661 42.9611 8.59564C42.935 8.77468 42.9171 8.96185 42.9073 9.15717C42.8976 9.35248 42.8927 9.54942 42.8927 9.74799C42.8927 10.0084 42.9025 10.2656 42.922 10.5195C42.9448 10.7701 42.9562 11.0029 42.9562 11.2177C42.9562 11.3577 42.9041 11.4667 42.7999 11.5449C42.6958 11.6262 42.5476 11.6669 42.3556 11.6669C42.3198 11.6669 42.2791 11.6637 42.2335 11.6572C42.1879 11.6507 42.144 11.6376 42.1017 11.6181C42.0626 11.5986 42.0268 11.5709 41.9943 11.5351C41.965 11.5025 41.9487 11.457 41.9454 11.3984C41.9161 11.1119 41.8738 10.8189 41.8185 10.5195C41.7631 10.22 41.6932 9.92214 41.6085 9.62592C41.5271 9.32644 41.4279 9.03021 41.3107 8.73724C41.1967 8.44427 41.0649 8.15782 40.9152 7.87787C40.8891 7.82904 40.8663 7.78347 40.8468 7.74115C40.8305 7.69883 40.8224 7.65814 40.8224 7.61908C40.8224 7.57025 40.8435 7.51817 40.8859 7.46283C40.9314 7.40424 40.9868 7.35052 41.0519 7.3017C41.1202 7.25287 41.1935 7.21381 41.2716 7.18451C41.353 7.15196 41.4311 7.13568 41.506 7.13568C41.6297 7.13568 41.7387 7.22194 41.8331 7.39447C41.9275 7.56374 42.0154 7.83555 42.0968 8.2099C42.1131 8.275 42.1261 8.32058 42.1359 8.34662C42.1456 8.37266 42.1587 8.38568 42.1749 8.38568C42.2107 8.38568 42.2335 8.33034 42.2433 8.21967C42.2823 7.91042 42.3491 7.64512 42.4435 7.42377C42.5379 7.19916 42.6551 7.01524 42.795 6.87201C42.9383 6.72552 43.101 6.6181 43.2833 6.54974C43.4689 6.48138 43.6723 6.4472 43.8937 6.4472C44.0206 6.4472 44.1492 6.4586 44.2794 6.48138C44.4096 6.50417 44.5268 6.53835 44.631 6.58392C44.7351 6.6295 44.8198 6.68483 44.8849 6.74994C44.95 6.81504 44.9825 6.88829 44.9825 6.96967C44.9825 7.02826 44.9695 7.09825 44.9435 7.17963C44.9207 7.25775 44.8898 7.33425 44.8507 7.40912C44.8116 7.48073 44.7661 7.54258 44.714 7.59467C44.6652 7.64349 44.6147 7.66791 44.5626 7.66791C44.504 7.66791 44.4471 7.65163 44.3917 7.61908C44.3364 7.58327 44.2762 7.54584 44.2111 7.50677C44.1492 7.46771 44.0825 7.43191 44.0109 7.39935C43.9425 7.36355 43.8644 7.34564 43.7765 7.34564ZM44.2013 7.58978C44.2013 7.46283 44.2583 7.3668 44.3722 7.3017C44.4861 7.23334 44.6489 7.19916 44.8605 7.19916C44.9093 7.19916 44.9532 7.20567 44.9923 7.21869C45.0314 7.23171 45.0656 7.25775 45.0948 7.29681C45.1274 7.33262 45.1567 7.38308 45.1827 7.44818C45.2088 7.51329 45.2348 7.59629 45.2609 7.6972C45.2869 7.81114 45.3129 7.8681 45.339 7.8681C45.3618 7.8681 45.3894 7.8209 45.422 7.7265C45.4806 7.54095 45.5571 7.37982 45.6515 7.2431C45.7491 7.10313 45.8582 6.98757 45.9786 6.89642C46.0991 6.80202 46.2293 6.73204 46.3693 6.68646C46.5125 6.64089 46.6622 6.6181 46.8185 6.6181C47.1342 6.6181 47.4288 6.67832 47.7023 6.79877C47.9757 6.91595 48.2117 7.08034 48.4103 7.29193C48.6088 7.50026 48.7651 7.74766 48.879 8.03412C48.993 8.31732 49.0499 8.62494 49.0499 8.95697C49.0499 9.30853 48.9881 9.63405 48.8644 9.93353C48.7439 10.233 48.5747 10.4918 48.3566 10.7099C48.1385 10.9247 47.8781 11.0924 47.5753 11.2128C47.2758 11.3365 46.9471 11.3984 46.589 11.3984L46.34 11.3886C46.1935 11.3886 46.1202 11.4716 46.1202 11.6376L46.3693 13.8788C46.366 13.9342 46.3465 13.9846 46.3107 14.0302C46.2781 14.079 46.2325 14.1214 46.174 14.1572C46.1186 14.193 46.0519 14.2206 45.9738 14.2402C45.8989 14.2597 45.8208 14.2695 45.7394 14.2695C45.505 14.2695 45.3781 14.193 45.3585 14.04C45.2902 13.4475 45.2137 12.8844 45.129 12.3505C45.0476 11.8167 44.963 11.3203 44.8751 10.8613C44.7905 10.399 44.7075 9.97911 44.6261 9.6015C44.5447 9.2239 44.4715 8.89512 44.4064 8.61517C44.3445 8.33523 44.2957 8.10736 44.2599 7.93158C44.2208 7.7558 44.2013 7.64187 44.2013 7.58978ZM45.7882 8.87885C45.7882 9.09043 45.7963 9.30039 45.8126 9.50873C45.8289 9.71381 45.8549 9.93679 45.8907 10.1777C45.9103 10.3242 45.99 10.4072 46.13 10.4267C46.2146 10.4462 46.309 10.4658 46.4132 10.4853C46.5206 10.5016 46.6101 10.5097 46.6818 10.5097C46.8901 10.5097 47.0789 10.4788 47.2482 10.4169C47.4174 10.3551 47.5623 10.2672 47.6827 10.1533C47.8032 10.0361 47.896 9.89773 47.9611 9.73822C48.0262 9.57872 48.0587 9.40131 48.0587 9.20599C48.0587 8.96836 48.0262 8.74701 47.9611 8.54193C47.896 8.3336 47.8064 8.15293 47.6925 7.99994C47.5818 7.84694 47.45 7.7265 47.297 7.63861C47.1473 7.55072 46.9845 7.50677 46.8087 7.50677C46.6557 7.50677 46.5157 7.54095 46.3888 7.60931C46.2651 7.67442 46.1577 7.76719 46.0665 7.88763C45.9786 8.00482 45.9103 8.14805 45.8615 8.31732C45.8126 8.48659 45.7882 8.67377 45.7882 8.87885Z" fill="#1E1E1E"/>
<path d="M45.1135 45.0635C45.6585 46.8206 48.2511 48.8456 49.9605 49.7263C48.6875 51.5299 50.4481 50.1552 49.9426 54.0504C49.1382 55.8225 47.5535 55.2226 45.394 58.3575C42.7416 60.6431 40.5356 59.8206 40.8564 58.3471C39.9039 57.0288 37.4365 55.1644 36.0093 53.6842C34.6103 53.8525 33.8645 51.6075 36.0343 49.3534C37.0163 48.5964 38.8445 46.0942 40.5828 45.0464C44.6775 43.9741 43.6885 43.0361 45.1135 45.0635Z" fill="white"/>
<path d="M45.1135 45.0635C46.7065 47.0247 48.9174 48.361 49.9605 49.7263M45.1135 45.0635C46.3459 46.3026 47.6133 47.5486 49.9605 49.7263M45.1135 45.0635C43.5129 43.2423 40.924 43.713 40.5829 45.0464M45.1135 45.0635C42.7012 43.4128 41.809 42.7421 40.5829 45.0464M49.9605 49.7263C51.5 51.1134 51.989 52.897 49.9426 54.0504M49.9605 49.7263C51.4009 49.7184 51.2022 52.0999 49.9426 54.0504M49.9426 54.0504C49.1062 55.1083 48.3415 55.7394 45.3941 58.3575M49.9426 54.0504C48.7428 55.0669 47.4293 56.5367 45.3941 58.3575M45.3941 58.3575C43.6206 59.4519 41.4442 59.9308 40.8564 58.3471M45.3941 58.3575C43.9893 59.9004 41.1385 59.4492 40.8564 58.3471M40.8564 58.3471C39.198 56.9795 38.3441 55.5015 36.0094 53.6842M40.8564 58.3471C39.9729 57.2827 38.7814 56.2705 36.0094 53.6842M36.0094 53.6842C34.9234 52.5457 35.2573 51.2724 36.0343 49.3534M36.0094 53.6842C34.6348 51.3167 34.539 50.8226 36.0343 49.3534M36.0343 49.3534C37.5361 48.0245 39.0795 46.7624 40.5829 45.0464M36.0343 49.3534C37.7966 47.5917 39.4955 45.9298 40.5829 45.0464" stroke="#1E1E1E" stroke-linecap="round"/>
<path d="M47.7548 46.7794C51.0178 43.8161 55.8925 40.5131 58.226 37.5309ZM47.7548 46.7794C50.5629 44.3258 52.4416 42.5138 58.226 37.5309Z" stroke="#1E1E1E" stroke-linecap="round"/>
<path d="M54.9235 43.5613C55.8529 41.5606 57.5932 39.3995 58.226 37.5309ZM54.9235 43.5613C55.8529 42.0042 56.3275 40.749 58.226 37.5309Z" stroke="#1E1E1E" stroke-linecap="round"/>
<path d="M51.6307 40.1262C53.7467 39.3806 56.6834 38.4747 58.226 37.5309ZM51.6307 40.1262C53.3809 39.3806 54.6465 38.9654 58.226 37.5309Z" stroke="#1E1E1E" stroke-linecap="round"/>
<path d="M37.3582 47.0778C34.0458 43.3029 30.2488 40.3491 26.887 37.8293ZM37.3582 47.0778C34.6292 44.4165 31.2277 41.4249 26.887 37.8293Z" stroke="#1E1E1E" stroke-linecap="round"/>
<path d="M33.5316 40.3113C31.386 39.1789 29.003 38.4428 26.887 37.8293ZM33.5316 40.3113C31.7716 39.5847 29.6655 38.707 26.887 37.8293Z" stroke="#1E1E1E" stroke-linecap="round"/>
<path d="M30.2983 43.8031C29.2798 41.4438 28.0142 39.4903 26.887 37.8293ZM30.2983 43.8031C29.4479 42.095 28.2713 40.2075 26.887 37.8293Z" stroke="#1E1E1E" stroke-linecap="round"/>
<path d="M48.1066 56.1799C51.7354 58.8412 55.7499 62.2953 58.5778 65.4284ZM48.1066 56.1799C50.7565 58.5864 53.357 60.7664 58.5778 65.4284Z" stroke="#1E1E1E" stroke-linecap="round"/>
<path d="M52.0024 62.7859C54.2865 63.4277 56.7684 64.4658 58.5779 65.4284ZM52.0024 62.7859C53.6636 63.4843 55.305 64.06 58.5779 65.4284Z" stroke="#1E1E1E" stroke-linecap="round"/>
<path d="M55.3247 59.3697C56.442 61.2005 57.7571 63.4277 58.5778 65.4284ZM55.3247 59.3697C56.1454 60.9457 56.9463 62.399 58.5778 65.4284Z" stroke="#1E1E1E" stroke-linecap="round"/>
<path d="M37.7102 55.8815C35.5744 57.6085 32.4992 60.8171 27.2389 65.13ZM37.7102 55.8815C34.2791 58.6183 31.1842 61.9779 27.2389 65.13Z" stroke="#1E1E1E" stroke-linecap="round"/>
<path d="M30.6008 59.1279C29.9679 60.317 28.8704 62.2516 27.2389 65.13ZM30.6008 59.1279C29.4637 60.9209 28.5045 63.0349 27.2389 65.13Z" stroke="#1E1E1E" stroke-linecap="round"/>
<path d="M33.8539 62.6008C32.4696 62.9688 30.6008 64.0824 27.2389 65.1299ZM33.8539 62.6008C31.7181 63.318 29.7405 64.3467 27.2389 65.1299Z" stroke="#1E1E1E" stroke-linecap="round"/>
<path d="M18.9515 31.112C20.3952 30.6684 21.0082 30.8477 22.6199 31.112C23.9251 30.1211 26.8322 31.1308 24.4591 32.8673C24.2514 35.1889 24.0735 35.8778 24.4591 39.6527C24.3009 40.2283 24.1822 40.3793 22.6199 41.408C21.6608 41.4552 20.4842 41.6345 18.9515 41.408C15.4117 40.8323 15.8764 41.5779 17.1124 39.6527C17.0234 38.3503 17.231 36.2364 17.1124 32.8673C18.4868 34.0375 16.7762 29.8851 18.9515 31.112Z" fill="white"/>
<path d="M18.9515 31.112C19.6931 31.2441 20.3259 31.0837 22.6199 31.112M18.9515 31.112C20.3259 31.112 21.9574 31.0365 22.6199 31.112M18.9515 31.112C16.7662 31.4045 17.142 32.5181 17.1123 32.8673M18.9515 31.112C18.5065 31.2252 16.2323 31.2441 17.1123 32.8673M22.6199 31.112C23.935 30.3948 23.6779 31.0837 24.459 32.8673M22.6199 31.112C24.6073 30.4703 23.5889 32.2539 24.459 32.8673M24.459 32.8673C24.7359 35.1606 24.7557 37.2273 24.459 39.6527M24.459 32.8673C24.2909 35.6419 24.3898 38.3409 24.459 39.6527M24.459 39.6527C24.2711 40.0207 22.9066 41.7572 22.6199 41.408M24.459 39.6527C24.8842 40.7002 24.4096 41.7855 22.6199 41.408M22.6199 41.408C21.3147 41.3231 20.1875 41.3514 18.9515 41.408M22.6199 41.408C21.6509 41.408 20.6423 41.408 18.9515 41.408M18.9515 41.408C17.2804 40.9739 17.8737 40.9173 17.1123 39.6527M18.9515 41.408C18.1604 42.0026 18.1011 41.1815 17.1123 39.6527M17.1123 39.6527C17.053 37.6897 17.3694 35.2644 17.1123 32.8673M17.1123 39.6527C17.1815 37.0763 17.2903 34.7642 17.1123 32.8673" stroke="#1E1E1E" stroke-linecap="round"/>
<path d="M62.2184 31.2985C64.0477 31.0059 64.898 31.7232 65.8868 31.2985C67.103 29.2695 70.1683 30.6945 67.726 33.0538C67.9732 35.8378 67.1129 36.3097 67.726 39.8392C65.7978 42.2174 64.9771 40.3582 65.8868 41.5945C64.5223 41.5001 63.6818 41.8682 62.2184 41.5945C61.3483 40.0374 61.7438 39.5089 60.3793 39.8392C59.5091 36.9419 60.7352 35.2716 60.3793 33.0538C59.5487 30.4397 60.3002 29.3733 62.2184 31.2985Z" fill="white"/>
<path d="M62.2185 31.2985C63.2468 31.3928 63.7808 31.1758 65.8869 31.2985M62.2185 31.2985C63.6226 31.3834 65.0069 31.2324 65.8869 31.2985M62.2185 31.2985C61.2989 31.5533 59.4004 32.2044 60.3793 33.0538M62.2185 31.2985C60.053 30.5435 60.4288 31.3645 60.3793 33.0538M65.8869 31.2985C66.1638 30.4586 67.6469 31.3173 67.726 33.0538M65.8869 31.2985C67.6667 31.1569 67.7953 31.3268 67.726 33.0538M67.726 33.0538C67.8051 34.6864 67.815 36.2436 67.726 39.8392M67.726 33.0538C67.8546 34.8846 67.7557 37.008 67.726 39.8392M67.726 39.8392C67.2712 40.9999 66.1835 40.9433 65.8869 41.5945M67.726 39.8392C68.2995 41.5945 66.9943 42.576 65.8869 41.5945M65.8869 41.5945C64.6114 41.5284 63.5929 41.5001 62.2185 41.5945M65.8869 41.5945C64.73 41.5284 63.7017 41.6889 62.2185 41.5945M62.2185 41.5945C60.5672 41.4529 61.111 40.1883 60.3793 39.8392M62.2185 41.5945C60.6859 41.6511 60.8836 40.9433 60.3793 39.8392M60.3793 39.8392C60.4881 38.0272 60.6859 36.6399 60.3793 33.0538M60.3793 39.8392C60.3497 38.5463 60.4683 36.9231 60.3793 33.0538" stroke="#1E1E1E" stroke-linecap="round"/>
<path d="M62.3748 60.6937C63.9766 60.8447 65.4005 60.9957 66.0432 60.6937C68.9206 60.3162 68.792 60.2407 67.8823 62.449C66.9825 64.2043 67.3088 66.96 67.8823 69.2344C67.912 70.5745 66.5178 72.2826 66.0432 70.9897C65.4005 71.3861 64.5303 70.6311 62.3748 70.9897C61.1685 70.2347 59.1711 69.6496 60.5356 69.2344C59.6556 66.3277 60.2588 64.2704 60.5356 62.449C57.9846 62.4584 63.3735 59.3819 62.3748 60.6937Z" fill="white"/>
<path d="M62.3748 60.6937C63.5218 60.8447 64.8962 60.5427 66.0432 60.6937M62.3748 60.6937C63.6108 60.7409 64.6787 60.6087 66.0432 60.6937M62.3748 60.6937C60.6444 61.3732 60.8224 60.3445 60.5357 62.449M62.3748 60.6937C60.9312 60.269 60.6148 62.2603 60.5357 62.449M66.0432 60.6937C67.6055 60.9862 68.1592 61.3165 67.8824 62.449M66.0432 60.6937C66.7255 59.7971 67.0913 62.0526 67.8824 62.449M67.8824 62.449C67.6846 64.9216 68.2482 67.4696 67.8824 69.2344M67.8824 62.449C67.8922 63.874 67.8428 65.45 67.8824 69.2344M67.8824 69.2344C68.8316 69.81 66.5673 70.2819 66.0432 70.9897M67.8824 69.2344C68.446 69.5081 66.6958 70.9614 66.0432 70.9897M66.0432 70.9897C64.6985 70.9708 63.5515 70.9991 62.3748 70.9897M66.0432 70.9897C65.2324 70.9331 64.382 70.8953 62.3748 70.9897M62.3748 70.9897C60.6049 71.3011 60.8422 70.1026 60.5357 69.2344M62.3748 70.9897C60.4763 70.6971 59.6457 70.7821 60.5357 69.2344M60.5357 69.2344C60.7829 66.658 60.5653 64.176 60.5357 62.449M60.5357 69.2344C60.5554 66.6297 60.6642 64.1949 60.5357 62.449" stroke="#1E1E1E" stroke-linecap="round"/>
<path d="M19.8504 61.4397C20.9875 61.6568 22.2234 61.0245 23.5188 61.4397C24.5273 61.6662 26.0402 61.704 25.3579 63.195C25.6447 64.6767 24.5768 66.7717 25.3579 69.9804C26.4752 73.1985 24.4977 74.095 23.5188 71.7357C22.2136 72.1038 21.818 71.8867 19.8504 71.7357C17.7838 69.584 19.5537 69.2915 18.0112 69.9804C17.0817 66.6585 18.1694 64.8277 18.0112 63.195C15.6381 64.1765 16.0732 62.2607 19.8504 61.4397Z" fill="white"/>
<path d="M19.8503 61.4397C20.9578 61.4397 22.1443 61.2793 23.5188 61.4397M19.8503 61.4397C20.7501 61.4114 21.6895 61.3548 23.5188 61.4397M19.8503 61.4397C17.9321 60.5338 17.9222 62.4212 18.0112 63.1951M19.8503 61.4397C18.031 61.8927 17.9914 62.4306 18.0112 63.1951M23.5188 61.4397C23.9736 61.9399 25.5853 62.7987 25.3579 63.1951M23.5188 61.4397C24.7448 60.5338 25.3678 61.6851 25.3579 63.1951M25.3579 63.1951C25.3282 64.9881 25.0118 66.215 25.3579 69.9804M25.3579 63.1951C25.4073 65.1674 25.2294 66.8756 25.3579 69.9804M25.3579 69.9804C25.8721 70.4523 24.1714 71.7924 23.5188 71.7357M25.3579 69.9804C25.2294 71.7169 24.992 72.7361 23.5188 71.7357M23.5188 71.7357C22.4014 71.9151 21.205 71.7357 19.8503 71.7357M23.5188 71.7357C22.7475 71.6508 22.085 71.6697 19.8503 71.7357M19.8503 71.7357C19.1285 71.7169 17.3586 71.1601 18.0112 69.9804M19.8503 71.7357C18.12 71.6791 17.4179 71.1601 18.0112 69.9804M18.0112 69.9804C17.9716 67.6211 17.9123 65.8469 18.0112 63.1951M18.0112 69.9804C18.1595 67.64 18.0112 65.5827 18.0112 63.1951" stroke="#1E1E1E" stroke-linecap="round"/>
<path d="M40.1907 49.1646C41.9211 49.3911 42.4254 49.2307 44.7589 49.1646C47.4385 51.1842 44.2843 51.2314 45.718 50.08C45.6488 50.6179 45.55 51.0898 45.718 51.9203C45.2632 51.4579 45.283 51.1464 44.7589 52.8357C43.1868 53.0622 41.4465 52.5903 40.1907 52.8357C38.134 53.921 41.2191 52.9961 39.2316 51.9203C39.0437 51.3824 39.1031 50.7784 39.2316 50.08C37.3232 48.0227 41.397 51.1276 40.1907 49.1646Z" fill="white"/>
<path d="M40.1907 49.1646C41.3575 49.1269 42.2968 49.2024 44.7589 49.1646M40.1907 49.1646C41.8321 49.1363 43.2659 49.1552 44.7589 49.1646M40.1907 49.1646C39.8446 48.8155 39.1031 49.2213 39.2316 50.08M40.1907 49.1646C39.2415 48.9476 39.8842 48.9664 39.2316 50.08M44.7589 49.1646C44.8677 49.6837 45.9257 49.6931 45.718 50.08M44.7589 49.1646C45.1544 48.5323 46.1729 48.9193 45.718 50.08M45.718 50.08C45.6686 50.7501 45.7378 51.5239 45.718 51.9203M45.718 50.08C45.7378 50.4387 45.718 50.8633 45.718 51.9203M45.718 51.9203C45.3522 52.2884 45.4511 52.8452 44.7589 52.8357M45.718 51.9203C45.7477 52.411 44.8281 52.9206 44.7589 52.8357M44.7589 52.8357C43.4933 52.8735 42.3463 52.9395 40.1907 52.8357M44.7589 52.8357C43.5625 52.8829 42.4452 52.8452 40.1907 52.8357M40.1907 52.8357C39.9831 52.7885 39.192 52.0241 39.2316 51.9203M40.1907 52.8357C38.8657 53.1566 39.548 53.1566 39.2316 51.9203M39.2316 51.9203C39.281 51.4956 39.2019 50.9577 39.2316 50.08M39.2316 51.9203C39.2415 51.4673 39.2711 51.0143 39.2316 50.08" stroke="#1E1E1E" stroke-linecap="round"/>
<path d="M40.3687 49.2998C40.7741 49.6207 41.9903 50.7909 42.2572 51.0552M40.0819 49.0167C40.4774 49.2527 41.753 50.1586 42.0298 50.5267" stroke="#1E1E1E" stroke-width="0.5" stroke-linecap="round"/>
<path d="M42.3858 51.0049C42.9494 50.7218 45.1346 49.8535 45.6488 49.5799M41.9507 50.6935C42.5044 50.2877 44.9467 49.2401 45.5004 49.0703" stroke="#1E1E1E" stroke-width="0.5" stroke-linecap="round"/>
<path d="M17.8788 29.317C19.006 29.1566 21.0133 29.5152 22.9018 29.317C24.296 30.2702 25.4529 29.7228 25.4134 31.7141C25.7594 32.9692 24.0389 35.857 25.4134 41.3873C22.8425 41.1985 24.1675 43.539 22.9018 43.7843C21.6263 43.7277 20.0442 43.6805 17.8788 43.7843C18.6303 42.0951 16.6329 43.0199 15.3673 41.3873C16.1286 37.4708 15.6046 36.4705 15.3673 31.7141C13.0931 29.468 18.6402 29.553 17.8788 29.317Z" fill="white"/>
<path d="M17.8787 29.317C18.9861 29.2321 20.3408 29.2132 22.9017 29.317M17.8787 29.317C19.7574 29.3925 21.3889 29.2793 22.9017 29.317M17.8787 29.317C16.5933 29.77 14.3784 30.827 15.3672 31.7141M17.8787 29.317C16.6229 30.3174 14.6948 29.468 15.3672 31.7141M22.9017 29.317C24.4047 28.562 25.7297 29.77 25.4133 31.7141M22.9017 29.317C24.8793 28.6847 26.491 29.9776 25.4133 31.7141M25.4133 31.7141C25.1562 33.8374 25.3836 35.3096 25.4133 41.3872M25.4133 31.7141C25.6308 35.3096 25.5517 39.2639 25.4133 41.3872M25.4133 41.3872C25.0573 43.8598 25.2452 43.0671 22.9017 43.7843M25.4133 41.3872C24.7112 42.6518 24.464 44.6242 22.9017 43.7843M22.9017 43.7843C21.0824 43.8598 19.8958 43.9825 17.8787 43.7843M22.9017 43.7843C20.9835 43.7088 18.9664 43.8315 17.8787 43.7843M17.8787 43.7843C15.7923 43.1426 14.4377 42.3687 15.3672 41.3872M17.8787 43.7843C16.1285 43.8881 15.4364 42.3593 15.3672 41.3872M15.3672 41.3872C15.5847 38.6221 15.3177 36.8574 15.3672 31.7141M15.3672 41.3872C15.1892 37.3858 15.4562 33.5638 15.3672 31.7141" stroke="#1E1E1E" stroke-width="0.5" stroke-linecap="round"/>
<path d="M18.2222 29.9186C19.3494 29.8337 20.8227 30.0224 22.5531 29.9186M18.2222 29.9186C19.7647 29.8903 21.4061 29.8242 22.5531 29.9186M18.2222 29.9186C16.1952 29.3618 16.4423 31.0605 16.0567 31.9854M18.2222 29.9186C17.0653 30.8623 16.4819 31.6079 16.0567 31.9854M22.5531 29.9186C24.3131 29.5694 24.9756 30.0507 24.7086 31.9854M22.5531 29.9186C25.0745 29.777 23.5913 29.6072 24.7086 31.9854M24.7086 31.9854C24.7086 34.2031 25.1338 36.9588 24.7086 41.1678M24.7086 31.9854C24.8866 34.9392 24.6691 38.1573 24.7086 41.1678M24.7086 41.1678C25.3909 41.8284 23.3836 42.942 22.5531 43.2345M24.7086 41.1678C24.5999 43.3855 24.1846 43.5554 22.5531 43.2345M22.5531 43.2345C21.7521 43.4327 20.8622 43.4233 18.2222 43.2345M22.5531 43.2345C21.327 43.2629 19.9328 43.1496 18.2222 43.2345M18.2222 43.2345C15.8491 42.6117 15.9974 42.6306 16.0567 41.1678M18.2222 43.2345C16.8478 42.6117 15.4437 41.5358 16.0567 41.1678M16.0567 41.1678C15.948 38.9028 16.5215 35.9867 16.0567 31.9854M16.0567 41.1678C16.1556 38.2894 15.859 35.7791 16.0567 31.9854" stroke="#1E1E1E" stroke-width="0.5" stroke-linecap="round"/>
<path d="M20.911 32.8276C21.4845 32.7899 22.1272 33.2523 22.503 33.7053C22.8787 34.1488 23.116 34.9227 23.1655 35.5267C23.2149 36.1212 23.1457 36.7818 22.7897 37.2914C22.4338 37.8011 21.6427 38.49 21.0297 38.5749C20.4166 38.6598 19.7245 38.1219 19.1213 37.8199C18.5083 37.5179 17.6777 37.1971 17.3909 36.7441C17.0943 36.2911 17.1437 35.6871 17.3613 35.102C17.5788 34.5263 18.0732 33.6392 18.6863 33.2806C19.2993 32.922 20.6638 32.9409 21.0297 32.9503C21.3955 32.9598 20.9605 33.2429 20.8616 33.3278M20.7034 32.62C21.2967 32.4785 21.5735 32.9409 22.0185 33.4316C22.4535 33.9129 23.1457 34.9038 23.3435 35.5172C23.5313 36.1307 23.5214 36.7441 23.1556 37.1216C22.7798 37.4896 21.7021 37.5274 21.1187 37.7633C20.5353 38.0087 20.12 38.5938 19.6454 38.556C19.1708 38.5183 18.5775 38.0842 18.2809 37.5368C17.9842 36.98 17.7667 35.9419 17.8557 35.2436C17.9348 34.5452 18.3105 33.6959 18.7752 33.3467C19.24 32.9975 20.4166 33.2617 20.6539 33.1579C20.8814 33.0541 20.2782 32.7521 20.1596 32.7144" stroke="#1E1E1E" stroke-width="0.5" stroke-linecap="round"/>
<path d="M19.3316 34.8049C19.3612 34.8521 19.381 35.0125 19.4502 35.1069C19.5194 35.2107 19.7172 35.2579 19.737 35.3995C19.7567 35.5316 19.6084 35.9091 19.5491 35.9279C19.4996 35.9468 19.5194 35.541 19.3909 35.4938C19.2525 35.4561 18.8767 35.6543 18.7482 35.6826C18.6295 35.7014 18.6592 35.7486 18.6592 35.6259C18.6691 35.5127 18.679 35.1163 18.7877 34.9936C18.8965 34.871 19.203 34.8615 19.3118 34.8898C19.4304 34.9087 19.5095 35.1069 19.4799 35.1352C19.4502 35.1635 19.1733 35.0975 19.1536 35.0408M19.0844 34.7105C19.1338 34.8427 19.5293 35.2579 19.6776 35.3806C19.8161 35.5033 19.994 35.4938 19.9446 35.4655C19.8853 35.4372 19.3909 35.0975 19.3414 35.2107C19.2821 35.324 19.5886 35.9657 19.6183 36.1356C19.6381 36.3054 19.559 36.3243 19.4898 36.2205C19.4205 36.1167 19.2722 35.7203 19.2129 35.4938C19.1536 35.2673 19.114 34.9465 19.1338 34.8804C19.1437 34.8143 19.3019 35.1541 19.3118 35.0975C19.3217 35.0408 19.2525 34.6256 19.1832 34.5407C19.1239 34.4463 18.8965 34.484 18.9262 34.5595" stroke="#1E1E1E" stroke-width="0.5" stroke-linecap="round"/>
<path d="M20.9981 34.945C21.097 34.9544 21.4035 34.9167 21.5123 35.011C21.6211 35.1054 21.6112 35.464 21.6507 35.5018C21.6903 35.5301 21.8386 35.1903 21.7694 35.2186C21.7002 35.247 21.364 35.5678 21.2354 35.6811C21.1168 35.7943 21.0871 35.9453 21.0278 35.8981C20.9685 35.8509 20.8597 35.5112 20.8696 35.398C20.8696 35.2847 21.0476 35.2658 21.0673 35.2375C21.0871 35.2186 21.008 35.2941 21.008 35.2564C20.9981 35.2186 20.9784 35.1054 21.0278 35.0205C21.0673 34.9261 21.1662 34.7185 21.2651 34.7373M21.1959 35.2092C21.364 35.2375 21.6507 35.1337 21.6903 35.0582C21.7298 34.9827 21.3838 34.6241 21.4431 34.7562C21.4925 34.8789 21.9276 35.5867 22.0166 35.8321C22.1155 36.0774 22.0759 36.2284 22.0067 36.219C21.9375 36.2096 21.7397 35.9264 21.6013 35.7754C21.4727 35.6244 21.3047 35.3696 21.2157 35.313C21.1267 35.2658 21.1366 35.5867 21.0476 35.4829C20.9586 35.3696 20.741 34.8317 20.7015 34.6807C20.6521 34.5203 20.6916 34.5014 20.7707 34.5297C20.8597 34.5675 21.1267 34.8789 21.2157 34.8978" stroke="#1E1E1E" stroke-width="0.5" stroke-linecap="round"/>
<path d="M20.2221 36.4215C20.4199 36.4404 20.5682 36.7613 20.7363 36.7896C20.9044 36.8179 21.1912 36.5065 21.2109 36.5914C21.2307 36.6763 20.9736 37.0916 20.8649 37.2992C20.7561 37.4974 20.6968 37.7711 20.5682 37.8088C20.4397 37.8466 20.2024 37.5918 20.0936 37.5163C19.9848 37.4408 19.9848 37.4313 19.8958 37.3747C19.8069 37.3275 19.619 37.3275 19.5498 37.2143C19.4904 37.101 19.3718 36.8556 19.5003 36.6858C19.6289 36.5253 20.1233 36.2422 20.321 36.2234C20.5089 36.2045 20.7066 36.5631 20.677 36.5631M20.4001 36.4782C20.5287 36.3272 20.3408 35.9308 20.5188 36.0535C20.6869 36.1762 21.2703 36.9123 21.4482 37.2143C21.6361 37.5068 21.6757 37.7522 21.6262 37.8277C21.5669 37.9126 21.3296 37.7522 21.1417 37.6767C20.944 37.6106 20.6473 37.4313 20.4397 37.4219C20.232 37.4124 20.0936 37.7427 19.8958 37.6106C19.6981 37.4785 19.3619 36.8651 19.263 36.6386C19.1641 36.4027 19.1147 36.2611 19.2828 36.2139C19.4509 36.1762 20.1134 36.4027 20.2914 36.3838C20.4693 36.3555 20.3902 36.1479 20.3507 36.0818" stroke="#1E1E1E" stroke-width="0.5" stroke-linecap="round"/>
<path d="M20.5213 37.3396C20.551 37.2736 20.7191 36.8017 20.7092 36.7451C20.6993 36.6884 20.4818 36.9338 20.4719 37.0093C20.4521 37.0942 20.5807 37.2547 20.6202 37.2547C20.6696 37.2452 20.6795 36.9904 20.7389 36.9716C20.8081 36.9527 20.9959 37.0565 20.9959 37.132C20.9959 37.1981 20.8476 37.3868 20.7488 37.4151C20.6499 37.434 20.4126 37.3396 20.4027 37.2641C20.3829 37.1886 20.5411 36.9433 20.64 36.9338C20.7488 36.9338 21.0553 37.2641 21.0256 37.2547C20.9959 37.2358 20.5411 36.8866 20.4719 36.8489M20.3236 36.613C20.3532 36.6413 20.8081 37.2264 20.9564 37.3868C21.1047 37.5472 21.1838 37.6133 21.2135 37.5661C21.253 37.5284 21.2036 37.2452 21.1739 37.132C21.1542 37.0093 21.1047 36.8394 21.0652 36.8678C21.0355 36.9055 21.0751 37.3491 20.9762 37.3396C20.8773 37.3302 20.5905 36.9055 20.462 36.8111C20.3236 36.7168 20.1654 36.7262 20.195 36.7734C20.2247 36.8206 20.5609 37.0942 20.6499 37.0942C20.7488 37.0942 20.7883 36.8489 20.7488 36.7639C20.7191 36.6884 20.4818 36.528 20.4521 36.6035" stroke="#1E1E1E" stroke-width="0.5" stroke-linecap="round"/>
<path d="M18.1871 33.0171C18.2662 32.9888 18.4244 32.6585 18.5925 32.7623C18.7606 32.8566 19.1067 33.4418 19.1858 33.6211C19.255 33.8004 19.1759 33.6777 19.0572 33.8287C18.9386 33.9702 18.5233 34.376 18.4442 34.4893C18.3651 34.5931 18.6123 34.5554 18.5826 34.4893C18.5628 34.4232 18.4343 34.2628 18.2761 34.1024C18.1179 33.9419 17.6927 33.6683 17.6531 33.5267C17.6037 33.3851 17.8707 33.3191 17.9893 33.2436C18.108 33.1681 18.2958 33.1115 18.3651 33.0548C18.4442 32.9982 18.4442 32.951 18.4244 32.8944M17.9992 32.6302C17.9893 32.649 18.1574 32.649 18.3057 32.8095C18.4442 32.9605 18.7507 33.3946 18.8693 33.5644C18.988 33.7343 19.0869 33.6399 18.988 33.8192C18.8891 34.008 18.3848 34.5365 18.2563 34.678C18.1179 34.8196 18.2563 34.7158 18.197 34.678C18.1376 34.6403 17.9992 34.612 17.9003 34.4515C17.8015 34.2911 17.5345 33.9702 17.574 33.7249C17.6136 33.4795 17.9201 33.0643 18.1278 32.9793C18.3453 32.885 18.7408 33.253 18.8595 33.1681C18.9682 33.0926 18.8397 32.4886 18.7902 32.498" fill="white"/>
<path d="M18.4046 32.6207C18.4936 32.5546 18.4145 32.8661 18.4738 33.0454C18.543 33.2247 18.7408 33.555 18.81 33.6966C18.8693 33.8381 18.8693 33.7815 18.8792 33.8853C18.8891 33.9985 18.9781 34.2345 18.8891 34.3666C18.7902 34.4893 18.5035 34.678 18.3057 34.6497C18.108 34.6308 17.7718 34.4138 17.7026 34.2062C17.6235 33.9985 17.752 33.555 17.8707 33.404C17.9893 33.253 18.3552 33.4134 18.4046 33.3002C18.4639 33.1869 18.2167 32.8 18.2069 32.7434C18.197 32.6773 18.2761 32.8661 18.3651 32.9133M18.6518 33.2624C18.899 33.404 19.1067 33.5456 19.2253 33.6022C19.344 33.6494 19.3637 33.5456 19.3637 33.5739C19.3539 33.6022 19.2945 33.6211 19.2055 33.7909C19.1264 33.9608 19.0671 34.5365 18.8693 34.5837C18.6716 34.6214 18.2464 34.1967 18.019 34.0552C17.7817 33.9136 17.5147 33.8004 17.4949 33.7154C17.4653 33.6305 17.7718 33.7154 17.8806 33.5644C17.9893 33.4134 18.0882 32.9888 18.1376 32.8095C18.1871 32.6301 18.1574 32.4414 18.1871 32.498C18.2167 32.5452 18.3255 33.0359 18.3057 33.1114" stroke="white" stroke-width="0.5" stroke-linecap="round"/>
<path fill-rule="evenodd" clip-rule="evenodd" d="M17.2111 33.8689C17.7016 33.6869 18.9817 33.5529 19.4162 33.5751C19.85 33.6067 20.0012 33.9489 19.8071 34.02C19.613 34.091 18.264 34.3431 18.2721 33.9935" fill="white"/>
<path d="M17.5087 33.3701C17.6726 33.5524 18.2761 34.4386 18.4786 34.5102C18.6713 34.581 18.6611 34.0881 18.7148 33.7891C18.7691 33.4807 18.7414 32.8351 18.7838 32.6773M17.0844 33.9638C17.2142 34.2004 17.9625 34.889 18.3379 34.9069C18.714 34.9153 19.2832 34.37 19.3588 34.0442C19.4351 33.709 18.9092 33.0934 18.7854 32.9046" stroke="#1E1E1E" stroke-width="0.5" stroke-linecap="round"/>
<path fill-rule="evenodd" clip-rule="evenodd" d="M17.4441 33.7828C17.8625 33.3734 18.9958 32.4665 19.3651 32.2639C19.7261 32.072 19.7497 32.2975 19.6264 32.6098" fill="white"/>
<path d="M17.8891 33.3507C17.938 33.344 17.7926 33.3066 17.9368 33.2012C18.0809 33.0959 18.5957 32.7972 18.7775 32.744M17.5886 33.0769C17.7425 33.1037 18.4233 33.383 18.5827 33.3805C18.7421 33.3779 18.4514 33.1028 18.5549 33.0601" stroke="#1E1E1E" stroke-width="0.5" stroke-linecap="round"/>
<path d="M22.5998 32.6787C22.6295 32.6504 22.4812 32.9524 22.5998 33.0751C22.7284 33.2072 23.2129 33.311 23.3315 33.4431C23.4502 33.5658 23.4403 33.7451 23.3118 33.8678C23.1733 33.9905 22.6888 34.0848 22.5405 34.1792C22.3823 34.283 22.4416 34.4435 22.3724 34.4529C22.2933 34.4529 22.1549 34.3585 22.0955 34.2075C22.0362 34.066 22.0263 33.7829 22.0066 33.5564C21.9967 33.3204 21.8879 32.9335 21.9868 32.8297C22.0857 32.7353 22.5899 33.0184 22.6196 32.9807C22.6394 32.9335 22.2043 32.641 22.145 32.5749M22.5998 32.5749C22.669 32.5938 22.4416 33.0562 22.5108 33.2449C22.5801 33.4337 22.9459 33.5092 23.025 33.6979C23.0942 33.8772 23.0646 34.217 22.9657 34.3491C22.8668 34.4812 22.5207 34.5284 22.4317 34.5095C22.3329 34.5001 22.412 34.283 22.4218 34.2453C22.4317 34.2075 22.5108 34.4812 22.501 34.2925C22.4812 34.1037 22.3724 33.2827 22.3329 33.1128C22.2933 32.9524 22.323 33.3487 22.2735 33.2827C22.2241 33.2261 21.9176 32.8014 22.0263 32.7353C22.1351 32.6787 22.9459 32.8863 22.936 32.9241" fill="white"/>
<path d="M22.5208 32.6598C22.6988 32.6221 23.0548 32.8014 23.1536 32.9712C23.2525 33.1505 23.1932 33.528 23.124 33.7262C23.0548 33.915 22.8076 34.0565 22.7383 34.132C22.6691 34.2075 22.7087 34.1226 22.6988 34.1886C22.6889 34.2641 22.8174 34.6039 22.679 34.5378C22.5307 34.4812 21.9671 33.9999 21.8385 33.8206C21.71 33.6413 21.8089 33.6035 21.9078 33.4808C22.0066 33.3582 22.3132 33.2543 22.4318 33.1034C22.5505 32.9618 22.6494 32.6221 22.6098 32.6032C22.5801 32.5843 22.2044 32.8957 22.2242 32.9995M22.9559 32.5654C23.0449 32.6126 23.2327 33.1788 23.213 33.3015C23.2031 33.4148 22.9757 33.2072 22.8471 33.2827C22.7285 33.3582 22.5109 33.5941 22.4714 33.7734C22.4318 33.9621 22.6296 34.3585 22.5999 34.3963C22.5702 34.4246 22.4417 34.1509 22.3033 33.9905C22.1648 33.83 21.8385 33.5186 21.7693 33.4337C21.71 33.3582 21.8781 33.613 21.8979 33.5186C21.9078 33.4337 21.71 32.9052 21.8682 32.8769C22.0264 32.8391 22.768 33.3298 22.857 33.3393C22.946 33.3393 22.501 33.009 22.3923 32.8957" stroke="white" stroke-width="0.5" stroke-linecap="round"/>
<path fill-rule="evenodd" clip-rule="evenodd" d="M23.0213 34.7681C22.9138 34.7867 23.874 33.5871 23.5208 33.4182C23.1684 33.2586 21.1649 33.7036 20.8926 33.7646C20.6213 33.8351 21.6712 33.9164 21.8907 33.822" fill="white"/>
<path d="M23.2997 33.3895C23.2599 33.6013 23.0893 34.3264 22.8079 34.5019C22.5157 34.6689 21.7341 34.6974 21.5798 34.4263C21.4353 34.1543 21.7934 33.2048 21.8934 32.8932M23.8475 32.9829C23.8147 33.27 22.895 34.7977 22.6306 34.9434C22.3671 35.0984 22.369 34.1602 22.263 33.8755C22.1472 33.5917 22.0355 33.459 21.9742 33.2274" stroke="#1E1E1E" stroke-width="0.5" stroke-linecap="round"/>
<path fill-rule="evenodd" clip-rule="evenodd" d="M22.5883 34.5766C22.5068 34.4428 23.7851 32.9543 23.5451 32.5917C23.2965 32.2184 21.4301 32.1595 21.1128 32.3677" fill="white"/>
<path d="M23.3574 33.463C23.2075 33.5396 22.4703 33.8293 22.2132 33.7405C21.9645 33.6623 21.8466 33.1339 21.8511 32.9536M23.0424 33.1387C23.0105 33.1538 23.191 33.3663 22.937 33.4016C22.6941 33.4287 21.8146 33.444 21.5515 33.3259" stroke="#1E1E1E" stroke-width="0.5" stroke-linecap="round"/>
<path d="M19.7975 37.1747C19.7876 37.1087 19.9557 36.8916 20.0645 36.9105C20.1732 36.9294 20.4699 37.2785 20.4402 37.288C20.4105 37.288 19.9458 36.9577 19.8766 36.9294C19.7975 36.9011 19.9161 37.0804 19.9854 37.1275C20.0546 37.1747 20.2622 37.2597 20.282 37.2125C20.3018 37.1747 20.1831 36.8822 20.0842 36.8727C19.9854 36.8727 19.6591 37.1275 19.6788 37.203C19.6986 37.2691 20.1139 37.2974 20.2326 37.3069C20.3512 37.3163 20.4105 37.2785 20.3809 37.2691C20.3512 37.2502 20.1337 37.2408 20.0447 37.2219M19.5898 36.6934C19.6393 36.7501 19.9854 37.0521 20.0842 37.0709C20.1732 37.0898 20.2029 36.8633 20.1633 36.8067C20.1238 36.7406 19.8964 36.6085 19.8568 36.6934C19.8173 36.7784 19.9755 37.2597 19.9359 37.3257C19.8964 37.3918 19.58 37.0237 19.6294 37.0709C19.6788 37.1181 20.2029 37.59 20.2227 37.59C20.2424 37.59 19.8568 37.2219 19.7579 37.0804C19.6591 36.9388 19.5404 36.7784 19.6096 36.7312C19.6788 36.6934 20.193 36.7029 20.193 36.8067C20.1831 36.9105 19.5602 37.288 19.5701 37.3635" stroke="#1E1E1E" stroke-width="0.5" stroke-linecap="round"/>
<path d="M17.7793 40.3198C17.8485 40.3293 17.9968 40.5086 18.0166 40.5935M17.3344 40.0745C17.4036 40.2538 17.8189 40.7068 17.898 40.8861" stroke="#1E1E1E" stroke-width="0.5" stroke-linecap="round"/>
<path fill-rule="evenodd" clip-rule="evenodd" d="M17.7974 40.4253C17.7678 40.0195 17.1053 38.4623 17.2832 38.6228C17.4612 38.7832 18.6379 40.8311 18.8653 41.369C19.1026 41.9069 18.717 42.0013 18.6676 41.8597" fill="white"/>
<path d="M17.8766 39.7741C18.0546 39.7175 18.5292 39.6043 18.5786 39.7647C18.6281 39.9346 18.3413 40.6801 18.193 40.7745C18.0348 40.8594 17.837 40.3593 17.6689 40.3026M17.6096 40.3593C17.7579 40.3498 18.3512 40.1894 18.4006 40.1705C18.4501 40.1611 17.9952 40.2271 17.9063 40.2838C17.8173 40.3309 17.8964 40.4442 17.8667 40.4819" stroke="#1E1E1E" stroke-width="0.5" stroke-linecap="round"/>
<path fill-rule="evenodd" clip-rule="evenodd" d="M18.58 39.6007C18.6591 39.5535 19.9148 40.4878 20.3796 40.9031C20.8443 41.3183 21.1805 42.2903 21.3486 42.111C21.5265 41.9317 21.4376 40.318 21.4079 39.8083" fill="white"/>
<path d="M19.8851 40.752C19.8357 40.7142 19.628 40.3368 19.7071 40.3084C19.7764 40.2801 20.3004 40.6576 20.3499 40.5633C20.4092 40.4689 20.0631 39.8271 20.0334 39.7516M19.5588 40.4406C19.4303 40.3368 19.2424 39.8177 19.3611 39.8743C19.4797 39.9404 20.1422 40.7803 20.251 40.7992C20.3597 40.8181 20.073 40.0725 19.9939 39.997" stroke="#1E1E1E" stroke-width="0.5" stroke-linecap="round"/>
<path fill-rule="evenodd" clip-rule="evenodd" d="M21.8779 40.792C22.1548 41.245 21.8285 41.4432 21.8977 41.4054C21.9768 41.3677 22.4119 40.792 22.3229 40.5561C22.2438 40.3296 21.5813 39.8766 21.4033 40.0087" fill="white"/>
<path d="M21.1957 40.1974C21.0968 40.1974 20.9386 39.8011 20.8991 39.8577C20.8595 39.9049 21.0375 40.2918 20.9584 40.4994C20.8694 40.7071 20.4937 41.0279 20.4146 41.094M21.7692 40.0653C21.6209 40.1031 20.7606 40.0276 20.7507 40.1503C20.731 40.2729 21.7296 40.7542 21.6802 40.8109C21.6406 40.8769 20.731 40.4711 20.4739 40.5183" stroke="#1E1E1E" stroke-width="0.5" stroke-linecap="round"/>
<path fill-rule="evenodd" clip-rule="evenodd" d="M23.3386 41.1678C23.3584 41.064 22.8146 40.3562 22.7553 40.1486C22.686 39.941 23.0816 39.7239 22.9629 39.9316C22.8541 40.1392 22.429 41.3943 22.0433 41.4038" fill="white"/>
<path d="M22.34 39.6201C22.2411 39.6013 21.4402 39.8561 21.3809 40.092C21.3215 40.3185 21.9939 40.8658 21.984 41.0168C21.9741 41.1773 21.4797 41.0829 21.3116 41.0074M22.0433 40.2147C22.0631 40.3845 22.1027 40.4129 22.0532 40.46C22.0038 40.5072 21.8456 40.3468 21.7368 40.4978C21.6379 40.6488 21.46 41.3566 21.4105 41.366" stroke="#1E1E1E" stroke-width="0.5" stroke-linecap="round"/>
<path fill-rule="evenodd" clip-rule="evenodd" d="M19.8719 42.032C20.04 41.7206 20.1093 40.1163 20.1686 39.7671C20.2279 39.4085 20.2576 39.6538 20.2378 39.8992" fill="white"/>
<path d="M18.4185 40.6353C18.4382 40.5693 18.8239 40.0313 18.9722 40.0691C19.1304 40.0974 19.338 40.7769 19.3479 40.8335M18.9425 40.2956C18.8931 40.154 18.6459 39.6255 18.6854 39.6161C18.7151 39.6067 19.1106 40.0785 19.1502 40.239" stroke="#1E1E1E" stroke-width="0.5" stroke-linecap="round"/>
<path d="M18.6943 40.7757C18.8328 40.7663 19.2975 40.4832 19.3469 40.3416M18.2593 40.6248C18.3779 40.5115 18.8624 39.8792 19.1096 39.8037" stroke="#1E1E1E" stroke-width="0.5" stroke-linecap="round"/>
<path fill-rule="evenodd" clip-rule="evenodd" d="M23.3715 39.985C23.3814 39.9095 23.7571 40.3436 23.6384 40.3436C23.5099 40.353 22.9166 40.0699 22.6299 40.0227" fill="white"/>
<path d="M22.4815 40.9192C22.5111 40.6644 22.4122 39.5131 22.5606 39.5508C22.699 39.5886 23.1835 40.8626 23.3417 41.1457M22.0859 40.6739C22.2244 40.4285 23.0154 39.8245 23.2033 39.8151C23.3813 39.8056 23.2725 40.4662 23.1934 40.6172" stroke="#1E1E1E" stroke-width="0.5" stroke-linecap="round"/>
<path d="M22.2401 40.1277C22.3588 40.1277 23.0509 40.458 23.2487 40.543M22.7345 40.694C22.8136 40.5996 22.9422 40.156 23.041 40.0711" stroke="#1E1E1E" stroke-width="0.5" stroke-linecap="round"/>
<path d="M62.4924 28.7416C64.816 28.232 66.4475 28.6284 67.5154 28.7416C67.3671 31.0066 70.0072 30.7046 70.027 31.1387C68.8997 33.413 69.7007 37.1974 70.027 40.8118C67.9406 41.3781 67.4264 42.9541 67.5154 43.2089C66.3684 43.6808 64.1832 42.6521 62.4924 43.2089C61.2168 43.794 58.4285 44.7094 59.9809 40.8118C60.1786 38.2638 58.7548 35.6591 59.9809 31.1387C59.2887 29.7514 59.526 27.024 62.4924 28.7416Z" fill="white"/>
<path d="M62.4925 28.7416C63.9757 28.6755 65.2908 28.6189 67.5155 28.7416M62.4925 28.7416C64.4404 28.685 66.4378 28.7133 67.5155 28.7416M62.4925 28.7416C60.9302 28.5529 60.9302 28.7322 59.981 31.1387M62.4925 28.7416C61.6916 29.5438 59.981 29.2229 59.981 31.1387M67.5155 28.7416C69.4338 28.232 69.325 28.987 70.0271 31.1387M67.5155 28.7416C68.8504 27.9111 69.9578 29.6476 70.0271 31.1387M70.0271 31.1387C70.0864 34.9324 70.0271 38.2543 70.0271 40.8118M70.0271 31.1387C70.205 34.8475 69.9183 38.7828 70.0271 40.8118M70.0271 40.8118C69.5623 42.3878 68.5142 42.3973 67.5155 43.2089M70.0271 40.8118C69.0383 42.3123 69.7403 44.1904 67.5155 43.2089M67.5155 43.2089C66.24 43.0201 64.4404 43.2183 62.4925 43.2089M67.5155 43.2089C65.973 43.3033 64.5788 43.2466 62.4925 43.2089M62.4925 43.2089C60.4457 42.8031 59.7338 42.1708 59.981 40.8118M62.4925 43.2089C59.7041 42.133 60.1589 42.6521 59.981 40.8118M59.981 40.8118C60.2974 38.9338 60.0996 36.3669 59.981 31.1387M59.981 40.8118C60.0897 38.5658 60.1787 36.6406 59.981 31.1387" stroke="#1E1E1E" stroke-width="0.5" stroke-linecap="round"/>
<path d="M62.8357 29.3432C64.2596 29.2488 65.723 29.1545 67.1666 29.3432M62.8357 29.3432C64.5166 29.3432 66.0493 29.296 67.1666 29.3432M62.8357 29.3432C61.3921 29.0601 60.7889 29.8434 60.6703 31.41M62.8357 29.3432C62.1238 28.3995 61.5404 30.8343 60.6703 31.41M67.1666 29.3432C67.9082 28.7958 69.0354 29.3149 69.3222 31.41M67.1666 29.3432C68.541 29.447 70.3011 30.2586 69.3222 31.41M69.3222 31.41C69.3222 33.2502 69.7869 35.7983 69.3222 40.5924M69.3222 31.41C69.2529 34.5903 69.2431 37.7801 69.3222 40.5924M69.3222 40.5924C68.6498 41.1586 67.7401 42.5742 67.1666 42.6591M69.3222 40.5924C69.8759 42.9517 68.4125 42.8668 67.1666 42.6591M67.1666 42.6591C65.5549 42.6403 64.3189 42.612 62.8357 42.6591M67.1666 42.6591C65.7922 42.7063 64.4375 42.6308 62.8357 42.6591M62.8357 42.6591C61.1449 42.4138 59.7012 41.0359 60.6703 40.5924M62.8357 42.6591C61.5701 42.8951 59.9979 42.0929 60.6703 40.5924M60.6703 40.5924C60.7592 37.8367 60.2846 34.6281 60.6703 31.41M60.6703 40.5924C60.8285 38.8276 60.8779 36.4778 60.6703 31.41" stroke="#1E1E1E" stroke-width="0.5" stroke-linecap="round"/>
<path d="M64.437 32.6958C64.9907 32.5731 66.0092 32.6486 66.553 32.8657C67.0969 33.0827 67.5319 33.4791 67.7198 33.9981C67.8978 34.5172 67.9077 35.3949 67.6704 35.9705C67.4232 36.5462 66.7805 37.103 66.2564 37.4427C65.7225 37.7825 65.0797 38.16 64.4964 38.0184C63.913 37.8768 63.1714 37.0841 62.7561 36.6028C62.3507 36.1121 62.054 35.678 62.054 35.1023C62.0442 34.5172 62.2617 33.5546 62.7462 33.111C63.2208 32.6769 64.5853 32.5354 64.9413 32.4599C65.2874 32.3938 64.9215 32.6675 64.8424 32.6864M64.6842 31.9974C65.2676 31.9503 65.9499 32.4787 66.5431 32.9884C67.1364 33.4885 68.0758 34.4606 68.2538 35.0457C68.4218 35.6402 67.9176 36.0555 67.5715 36.5273C67.2353 37.0086 66.8694 37.8014 66.207 37.9146C65.5445 38.0278 64.2294 37.4427 63.6064 37.1974C62.9736 36.9426 62.6968 36.8199 62.4199 36.4046C62.1529 35.9894 61.9354 35.1872 61.9848 34.6871C62.0244 34.1869 62.2221 33.7622 62.7066 33.3942C63.1813 33.0355 64.526 32.7052 64.882 32.5165C65.2379 32.3278 64.8325 32.2523 64.8424 32.2523" stroke="#1E1E1E" stroke-width="0.5" stroke-linecap="round"/>
<path d="M63.9056 34.3522C64.0044 34.2767 64.0539 34.1351 64.1132 34.1823C64.1725 34.22 64.2714 34.4654 64.2813 34.5975C64.2813 34.7391 64.1627 34.8523 64.133 34.9939C64.1132 35.1449 64.1824 35.4846 64.1231 35.4846C64.0638 35.4846 63.8957 35.0788 63.7869 35.0033C63.6781 34.9278 63.5397 35.1166 63.4705 35.0222C63.4013 34.9278 63.3024 34.5409 63.3716 34.4371C63.4507 34.3333 63.777 34.4088 63.8957 34.4182C64.0242 34.4182 64.1231 34.5315 64.1033 34.4843C64.0934 34.4371 63.8265 34.1917 63.7968 34.1445M63.4903 34.2295C63.6979 34.3616 64.3703 34.7296 64.5186 34.8146C64.6669 34.8995 64.3802 34.6825 64.3802 34.758C64.3802 34.8429 64.6373 35.277 64.5285 35.277C64.4099 35.2864 63.8364 34.7863 63.7078 34.7674C63.5694 34.7485 63.7869 35.1071 63.7375 35.1543C63.6781 35.2015 63.4903 35.0694 63.3716 35.0505C63.2431 35.0316 62.986 35.126 62.9959 35.0316C63.0058 34.9467 63.3024 34.6636 63.4211 34.5032C63.5397 34.3427 63.6683 34.1351 63.7375 34.0785C63.7968 34.0219 63.8462 34.2012 63.7968 34.1634" stroke="#1E1E1E" stroke-width="0.5" stroke-linecap="round"/>
<path d="M65.8194 34.0486C65.9084 34.0298 66.0765 34.2185 66.1457 34.3318C66.2051 34.445 66.1853 34.5488 66.2248 34.7092C66.2644 34.8791 66.4127 35.2566 66.3929 35.3132C66.3732 35.3604 66.2248 35.0301 66.1161 35.0207C65.9974 35.0018 65.8194 35.266 65.7008 35.2189C65.5821 35.1622 65.4042 34.8036 65.4042 34.7092C65.4042 34.6149 65.6513 34.6621 65.7107 34.6337C65.7799 34.6054 65.7601 34.6337 65.7898 34.5488C65.8096 34.4639 65.8096 34.1996 65.8491 34.1241C65.8887 34.0581 65.9875 34.143 66.0073 34.1336M66.0864 34.6998C66.2545 34.6998 66.0469 34.3978 66.1359 34.4261C66.215 34.4544 66.5907 34.8697 66.5709 34.8791C66.561 34.8885 66.0963 34.445 66.0271 34.4827C65.9579 34.5205 66.2347 34.9829 66.1853 35.115C66.1359 35.2472 65.9183 35.2189 65.7403 35.266C65.5624 35.3132 65.1965 35.4737 65.1075 35.4076C65.0284 35.3321 65.1965 35.0395 65.2262 34.8508C65.2657 34.6526 65.2459 34.3412 65.325 34.2279C65.414 34.1053 65.7206 34.2185 65.7206 34.1524C65.7305 34.0769 65.325 33.7655 65.3646 33.8127" stroke="#1E1E1E" stroke-width="0.5" stroke-linecap="round"/>
<path d="M64.826 35.6668C65.004 35.6951 65.1622 35.7612 65.3401 35.931C65.5181 36.0915 65.8345 36.5256 65.9136 36.6483C65.9927 36.7615 65.9235 36.5539 65.8148 36.6483C65.7159 36.7332 65.4885 37.139 65.2907 37.1862C65.0929 37.2239 64.7568 36.9597 64.6282 36.9031C64.4898 36.8464 64.559 36.8936 64.4898 36.837C64.4305 36.7709 64.292 36.7049 64.2525 36.5256C64.2129 36.3463 64.1338 35.9122 64.2624 35.7612C64.4008 35.6102 64.9051 35.6479 65.0336 35.6196C65.1622 35.5818 65.1028 35.5724 65.0534 35.563M64.8853 35.8461C65.0534 35.8178 65.5873 36.1953 65.6763 36.2047C65.7752 36.2047 65.4489 35.7989 65.4588 35.8933C65.4786 35.9876 65.8148 36.5444 65.7752 36.7615C65.7357 36.9691 65.4786 37.0541 65.2314 37.1767C64.9842 37.2994 64.4997 37.5354 64.3019 37.4976C64.1042 37.4599 64.1239 37.1673 64.0547 36.9502C63.9855 36.7238 63.8669 36.3463 63.8965 36.1575C63.9361 35.9688 64.1734 35.9593 64.2624 35.8083C64.3612 35.6668 64.3514 35.2799 64.4799 35.2893C64.6084 35.3082 65.0138 35.78 65.0435 35.8744" stroke="#1E1E1E" stroke-width="0.5" stroke-linecap="round"/>
<path d="M65.0756 36.4434C65.1152 36.5 65.3327 36.7642 65.392 36.7454C65.4514 36.717 65.4514 36.3301 65.4514 36.3112C65.4514 36.2829 65.4316 36.5849 65.4118 36.5944C65.4019 36.6038 65.3129 36.3584 65.3426 36.3679C65.3822 36.3773 65.6195 36.566 65.6294 36.6321C65.6491 36.6982 65.5206 36.8208 65.4415 36.7831C65.3525 36.7359 65.135 36.4528 65.1152 36.3773C65.0855 36.3112 65.2437 36.3584 65.2833 36.3395C65.3129 36.3112 65.3525 36.2735 65.3129 36.2452C65.2734 36.2263 65.046 36.1319 65.0361 36.1886M65.4613 36.7454C65.4217 36.6604 64.9768 36.0847 64.957 36.0376C64.9471 35.9998 65.3228 36.3773 65.3822 36.4717C65.4415 36.566 65.3723 36.5377 65.2932 36.6227C65.2239 36.6982 64.9768 36.9435 64.957 36.953C64.9372 36.9718 65.135 36.802 65.1547 36.6982C65.1745 36.6038 65.0855 36.4056 65.0855 36.349C65.0855 36.3018 65.2042 36.4434 65.1547 36.3867C65.1053 36.3301 64.7691 35.9715 64.8185 36.0092C64.8581 36.0376 65.3723 36.4811 65.4118 36.566C65.4514 36.651 65.0361 36.4811 65.046 36.5189" stroke="#1E1E1E" stroke-width="0.5" stroke-linecap="round"/>
<path d="M62.959 32.5926C63.1567 32.6115 63.6017 32.7531 63.6511 32.8286C63.7006 32.8946 63.3051 32.8946 63.2754 32.9984C63.2358 33.1117 63.4534 33.3004 63.4336 33.4703C63.4138 33.6496 63.1864 33.961 63.1271 34.0554C63.0776 34.1403 63.2457 34.1403 63.1073 34.0271C62.9788 33.9138 62.3558 33.593 62.3064 33.3759C62.2471 33.1683 62.6821 32.8757 62.7711 32.7247C62.8601 32.5738 62.8304 32.4888 62.8403 32.4699C62.8403 32.4605 62.7711 32.6398 62.8008 32.6492C62.8403 32.6587 62.9985 32.5266 63.0381 32.5171M62.8502 32.3567C62.959 32.3473 62.8799 32.2151 62.9392 32.3001C62.9985 32.385 63.0677 32.7153 63.2062 32.8663C63.3446 33.0173 63.7896 32.9512 63.75 33.1777C63.7105 33.4042 63.0381 34.1026 62.959 34.2253C62.8898 34.3574 63.4336 34.0554 63.3051 33.9516C63.1765 33.8478 62.3064 33.81 62.1877 33.6118C62.079 33.4137 62.4745 32.9229 62.6327 32.7531C62.7909 32.5832 62.9985 32.5926 63.137 32.5832C63.2655 32.5832 63.4435 32.7342 63.4435 32.7247C63.4435 32.7059 63.2556 32.5171 63.1172 32.5171" fill="white"/>
<path d="M63.048 32.6304C63.2062 32.5832 63.3347 32.2529 63.4237 32.3095C63.5127 32.3661 63.572 32.8286 63.5819 32.9796C63.6017 33.14 63.5028 33.0834 63.4929 33.2344C63.4929 33.3759 63.6313 33.7062 63.5621 33.8384C63.483 33.9705 63.2259 34.112 63.0381 34.0365C62.8502 33.961 62.5239 33.5647 62.4349 33.3759C62.3459 33.1777 62.4745 33.0362 62.514 32.8663C62.5536 32.6964 62.6426 32.47 62.6722 32.3378C62.7118 32.2151 62.6821 32.0547 62.7315 32.083C62.7909 32.1113 62.8996 32.47 62.9985 32.5266M62.6426 31.9132C62.7315 31.8565 63.2457 32.3001 63.3841 32.4888C63.5226 32.687 63.5325 32.8191 63.483 33.0456C63.4336 33.2816 63.1765 33.7157 63.1073 33.8667C63.0282 34.0082 63.1271 33.9799 63.0578 33.9327C62.9787 33.895 62.7612 33.7062 62.6524 33.6024C62.5536 33.5081 62.5536 33.5269 62.4547 33.3382C62.3558 33.1589 61.9801 32.6115 62.0394 32.4888C62.0987 32.3661 62.6722 32.6304 62.7909 32.6209C62.9095 32.6115 62.7019 32.4039 62.7612 32.4039C62.8205 32.4133 63.0381 32.6398 63.1666 32.6681" stroke="white" stroke-width="0.5" stroke-linecap="round"/>
<path fill-rule="evenodd" clip-rule="evenodd" d="M62.1268 33.6089C62.5833 33.4813 63.5615 33.401 63.7117 33.3836C63.8626 33.3567 63.1727 33.6756 63.0201 33.4752C62.8781 33.2661 62.9034 32.577 62.8463 32.1754" fill="white"/>
<path d="M61.9298 32.7239C62.0922 32.9251 62.3962 33.8369 62.7315 33.9843C63.066 34.1411 63.8569 33.9242 63.9492 33.6375C64.0316 33.3501 63.3159 32.503 63.2452 32.2707M62.474 33.3598C62.591 33.6333 62.1811 34.2944 62.4102 34.4058C62.6393 34.5171 63.7153 34.3304 63.8486 34.0277C63.972 33.7244 63.3063 32.8714 63.1802 32.5878" stroke="#1E1E1E" stroke-width="0.5" stroke-linecap="round"/>
<path fill-rule="evenodd" clip-rule="evenodd" d="M62.424 33.4532C62.8116 33.1051 63.6721 32.3115 63.745 32.1301C63.8262 31.9379 63.0233 32.3138 62.8792 32.3524" fill="white"/>
<path d="M62.1614 32.8978C62.3586 32.9474 63.0563 33.0052 63.2424 32.9132C63.4382 32.8199 63.2357 32.4661 63.2889 32.354M61.6917 32.6947C61.8666 32.6614 62.6456 32.3937 63.0442 32.3873C63.4413 32.3715 63.9557 32.6067 64.0606 32.6402" stroke="#1E1E1E" stroke-width="0.5" stroke-linecap="round"/>
<path d="M67.1641 32.2921C67.3026 32.3392 67.3223 32.6318 67.441 32.7828C67.5695 32.9432 67.9453 33.1225 67.9156 33.2263C67.8859 33.3302 67.3322 33.349 67.263 33.3962C67.1938 33.4434 67.53 33.4717 67.4904 33.5095C67.4509 33.5472 67.2136 33.6133 67.0356 33.6227C66.8576 33.6416 66.4819 33.7076 66.4225 33.5944C66.3533 33.4811 66.561 33.1131 66.65 32.9338C66.7291 32.7639 66.8477 32.7073 66.9169 32.5563C66.996 32.4053 67.0554 32.0656 67.085 32.0089C67.1048 31.9523 67.0356 32.2071 67.0652 32.226M67.3421 32.0373C67.4608 32.0939 67.0356 32.7073 67.1542 32.8583C67.2729 33.0187 68.054 32.8677 68.0639 32.9715C68.0639 33.0659 67.3026 33.3585 67.2037 33.434C67.1048 33.5189 67.4311 33.3773 67.4805 33.434C67.5201 33.4906 67.5201 33.7076 67.4608 33.7737C67.4113 33.8303 67.2828 33.9341 67.1542 33.8209C67.0356 33.7076 66.8774 33.2735 66.7389 33.0942C66.6104 32.9244 66.3237 32.8866 66.3632 32.7545C66.4028 32.6318 66.8972 32.4525 66.9763 32.3204C67.0554 32.1977 66.8972 31.9806 66.8576 31.9712" fill="white"/>
<path d="M67.0849 32.0655C67.2332 32.0372 67.6288 32.2826 67.7573 32.443C67.8759 32.6035 67.8562 32.9055 67.8067 33.0376C67.7573 33.1603 67.5398 33.1036 67.4607 33.198C67.3914 33.2829 67.4409 33.5 67.3717 33.5661C67.2926 33.6227 67.164 33.6132 67.0157 33.5472C66.8575 33.4906 66.5015 33.2735 66.4323 33.2074C66.3631 33.1319 66.4818 33.2641 66.5905 33.1319C66.6993 33.0093 66.9663 32.5846 67.0651 32.4619C67.164 32.3298 67.1245 32.4336 67.164 32.3675C67.2036 32.292 67.3816 32.0372 67.3123 32.0372M66.7487 32.6412C66.8476 32.6412 67.2135 32.5563 67.3321 32.5657C67.4508 32.5657 67.4508 32.5657 67.4705 32.6884C67.5002 32.8111 67.5892 33.1791 67.4804 33.2735C67.3816 33.3773 66.9168 33.1697 66.8476 33.2641C66.7784 33.3679 67.1245 33.8114 67.0553 33.8492C66.9762 33.8869 66.4521 33.5755 66.4027 33.4717C66.3532 33.3679 66.5905 33.3584 66.7388 33.2169C66.8773 33.0659 67.1541 32.7922 67.2629 32.5846C67.3618 32.3675 67.3816 32.0467 67.3519 31.9334C67.3222 31.8202 67.0849 31.839 67.0849 31.8862" stroke="white" stroke-width="0.5" stroke-linecap="round"/>
<path fill-rule="evenodd" clip-rule="evenodd" d="M67.3725 32.9739C67.1819 32.9522 66.62 32.782 66.251 32.8702C65.882 32.9584 65.0119 33.4208 65.1881 33.5006C65.3643 33.5804 67.1253 33.516 67.3181 33.348" fill="white"/>
<path d="M67.7922 33.0045C67.6272 33.1511 67.6054 33.7688 67.3411 33.9145C67.066 34.0515 66.2977 34.1168 66.1747 33.862C66.0517 33.6071 66.502 32.6877 66.6019 32.3761M68.2888 32.6875C68.0601 32.8964 67.3717 34.2435 67.1236 34.3498C66.8852 34.4553 66.9197 33.7608 66.8391 33.3223C66.7585 32.8839 66.7012 31.9507 66.6327 31.7481" stroke="#1E1E1E" stroke-width="0.5" stroke-linecap="round"/>
<path fill-rule="evenodd" clip-rule="evenodd" d="M67.221 32.757C67.0673 32.5667 66.6269 31.7702 66.3147 31.646C66.0012 31.5312 65.2277 31.7213 65.3453 32.0308" fill="white"/>
<path d="M67.9049 32.8604C67.7686 32.9102 67.0349 33.2479 66.8046 33.1814C66.5743 33.1149 66.5396 32.6349 66.533 32.4628M67.5422 32.5206C67.5447 32.5019 67.7047 32.9403 67.5187 32.8413C67.3242 32.7316 66.5132 31.9465 66.413 31.877" stroke="#1E1E1E" stroke-width="0.5" stroke-linecap="round"/>
<path d="M64.51 36.2879C64.5002 36.2219 64.6781 36.3068 64.7177 36.3068C64.7572 36.3068 64.7869 36.2879 64.7375 36.2785C64.6979 36.2785 64.4606 36.203 64.4507 36.2785C64.4408 36.354 64.5793 36.6937 64.6682 36.7409C64.7473 36.7787 64.9352 36.5522 64.9352 36.5333C64.9352 36.5144 64.688 36.6843 64.6584 36.6277C64.6386 36.5805 64.8462 36.2691 64.7869 36.2313C64.7276 36.203 64.3321 36.42 64.3123 36.4484C64.2826 36.4672 64.5694 36.42 64.6386 36.3823C64.6979 36.3351 64.6584 36.1936 64.7078 36.1841M64.5496 36.3068C64.5199 36.2596 64.1936 35.9293 64.2332 35.9859C64.2826 36.0331 64.7869 36.4955 64.8265 36.5994C64.8561 36.7032 64.4507 36.5616 64.4408 36.6088C64.4408 36.656 64.6979 36.8636 64.8067 36.8825C64.9154 36.9013 65.0934 36.8164 65.0934 36.7032C65.1033 36.5899 64.9056 36.3068 64.8067 36.203C64.7177 36.0992 64.5298 36.0614 64.5397 36.0897C64.5397 36.1086 64.7375 36.2124 64.8265 36.3351C64.9056 36.4672 64.9847 36.8825 65.044 36.8353C65.0934 36.7787 65.1923 36.1086 65.1429 36.0237" stroke="#1E1E1E" stroke-width="0.5" stroke-linecap="round"/>
<path d="M62.4721 39.8199C62.5314 39.8388 62.6105 40.0464 62.5512 40.1219M62.0667 39.6028C62.126 39.8105 62.4325 40.2918 62.4028 40.4616" stroke="#1E1E1E" stroke-width="0.5" stroke-linecap="round"/>
<path fill-rule="evenodd" clip-rule="evenodd" d="M61.9463 39.7083C62.0353 39.6045 63.38 40.199 63.3504 40.0197C63.3207 39.8404 62.0056 38.6891 61.7881 38.6513C61.5705 38.623 62.0353 39.595 62.0353 39.831" fill="white"/>
<path d="M62.4209 39.3024C62.5198 39.2364 62.7769 39.1326 62.8362 39.2269C62.8955 39.3213 62.9351 39.8026 62.767 39.8781C62.5989 39.9631 61.976 39.6799 61.8079 39.6988M62.1144 39.9347C62.1539 39.9159 62.4209 39.595 62.4802 39.6516C62.5396 39.6988 62.5791 40.2084 62.4605 40.2462C62.3418 40.2745 61.798 39.8876 61.7584 39.8498" stroke="#1E1E1E" stroke-width="0.5" stroke-linecap="round"/>
<path fill-rule="evenodd" clip-rule="evenodd" d="M64.6472 40.9977C64.5285 40.6202 63.2925 38.3364 63.3024 38.1854C63.3123 38.0344 64.4989 39.8841 64.7164 40.0917C64.9438 40.2993 64.8054 39.3839 64.6571 39.4122" fill="white"/>
<path d="M64.1429 40.205C64.0935 40.1012 64.222 39.4594 64.2813 39.4122C64.3407 39.3745 64.4395 39.9785 64.489 39.9502C64.5285 39.9219 64.4692 39.3084 64.5582 39.2424M64.6966 39.9124C64.578 39.8747 63.8364 39.7992 63.9254 39.8369C64.0045 39.8841 65.1119 40.2238 65.2009 40.1672C65.2998 40.12 64.5582 39.7614 64.4791 39.5349" stroke="#1E1E1E" stroke-width="0.5" stroke-linecap="round"/>
<path fill-rule="evenodd" clip-rule="evenodd" d="M64.8008 38.0743C64.6228 37.9611 65.137 39.0369 65.2655 39.3861C65.3941 39.7353 65.7896 39.8485 65.5721 40.16C65.3644 40.4808 64.1581 41.1886 63.9999 41.2641" fill="white"/>
<path d="M65.7699 39.3012C65.6512 39.2917 65.0876 39.1313 65.0382 39.2445C64.9887 39.3578 65.4436 39.7825 65.4831 39.9995C65.5128 40.2166 65.315 40.5091 65.2359 40.5657M66.3335 39.0086C66.3335 39.0369 65.7303 39.3012 65.7007 39.5277C65.671 39.7447 66.2148 40.2638 66.1654 40.3487C66.116 40.4336 65.6611 39.9901 65.3941 40.009" stroke="#1E1E1E" stroke-width="0.5" stroke-linecap="round"/>
<path fill-rule="evenodd" clip-rule="evenodd" d="M66.7064 39.1486C66.7757 39.4317 66.1923 39.4129 66.0044 39.7526C65.8066 40.0923 65.6583 41.0361 65.5693 41.1776C65.4705 41.3286 65.5001 40.8851 65.4606 40.6491" fill="white"/>
<path d="M66.479 39.007C66.3702 39.0542 65.8561 39.3373 65.9055 39.5827C65.9648 39.8375 66.8152 40.3565 66.8053 40.4887C66.7855 40.6208 65.9451 40.3943 65.8066 40.4037M66.9932 39.5827C67.0031 39.6865 66.5878 39.9319 66.5383 39.9979C66.479 40.064 66.7757 39.8658 66.6669 39.9979C66.5482 40.1206 66.0242 40.6113 65.8462 40.734" stroke="#1E1E1E" stroke-width="0.5" stroke-linecap="round"/>
<path fill-rule="evenodd" clip-rule="evenodd" d="M63.2396 40.0127C63.4572 40.0882 63.477 39.1728 63.4176 39.371C63.3484 39.5597 62.8244 40.9753 62.8342 41.1546" fill="white"/>
<path d="M62.943 40.1354C63.0715 40.0788 63.645 39.522 63.7934 39.5409C63.9417 39.5503 63.8131 40.0882 63.8428 40.2203M63.4275 39.824C63.5462 39.7107 63.5758 38.9746 63.6055 39.1068C63.6351 39.2389 63.5066 40.5129 63.5857 40.6167" stroke="#1E1E1E" stroke-width="0.5" stroke-linecap="round"/>
<path d="M63.5156 40.2475C63.6541 40.2192 63.7628 39.7945 63.8419 39.7284M63.1794 40.1154C63.2882 39.9738 63.4365 39.3038 63.5453 39.1716" stroke="#1E1E1E" stroke-width="0.5" stroke-linecap="round"/>
<path fill-rule="evenodd" clip-rule="evenodd" d="M65.9679 41.2405C66.0074 41.1084 66.8281 39.8343 67.0457 39.589C67.2731 39.3436 67.2237 39.7116 67.2929 39.7777" fill="white"/>
<path d="M66.9766 40.3061C67.0359 40.1268 67.4512 39.5229 67.5402 39.4757C67.6391 39.4285 67.4809 39.8909 67.5204 40.023M66.5217 40.0419C66.5217 39.9192 67.0359 38.9566 67.3128 38.9944C67.5995 39.0227 68.1137 39.9664 68.2126 40.2306" stroke="#1E1E1E" stroke-width="0.5" stroke-linecap="round"/>
<path d="M67.2296 40.0525C67.2889 39.9676 67.3483 39.4769 67.4274 39.4202M66.8539 39.8638C67.022 39.8072 67.9514 39.6562 68.0602 39.6845" stroke="#1E1E1E" stroke-width="0.5" stroke-linecap="round"/>
<path d="M62.6934 57.8957C64.7204 58.0278 65.8476 58.1599 67.7164 57.8957C70.6828 59.7548 67.8351 59.7737 70.228 60.2927C71.2563 63.3599 70.7718 66.1533 70.228 69.9659C72.4033 74.0051 69.2491 73.9862 67.7164 72.363C66.52 72.514 65.8971 72.3441 62.6934 72.363C58.9459 72.731 57.8879 70.7964 60.1819 69.9659C60.0632 67.5405 59.1338 63.4825 60.1819 60.2927C61.3981 60.6891 60.6268 59.7831 62.6934 57.8957Z" fill="white"/>
<path d="M62.6933 57.8957C64.0875 57.99 65.5213 57.9995 67.7164 57.8957M62.6933 57.8957C63.9095 57.9146 65.0961 57.8579 67.7164 57.8957M62.6933 57.8957C60.2906 58.4242 60.8146 59.4528 60.1818 60.2927M62.6933 57.8957C60.429 58.5563 61.2794 58.3581 60.1818 60.2927M67.7164 57.8957C68.7151 57.8013 70.7025 58.1977 70.2279 60.2927M67.7164 57.8957C68.7052 58.896 71.1574 58.9621 70.2279 60.2927M70.2279 60.2927C69.9313 62.8314 70.2477 64.9075 70.2279 69.9659M70.2279 60.2927C70.0301 64.0771 70.1686 67.6066 70.2279 69.9659M70.2279 69.9659C69.7335 70.9096 68.6261 72.212 67.7164 72.363M70.2279 69.9659C70.8508 71.4192 69.0414 71.6835 67.7164 72.363M67.7164 72.363C66.599 72.3913 65.5015 72.1648 62.6933 72.363M67.7164 72.363C66.4013 72.4573 65.106 72.3724 62.6933 72.363M62.6933 72.363C60.3499 72.5328 60.3796 72.3913 60.1818 69.9659M62.6933 72.363C60.7553 72.9858 60.073 71.6457 60.1818 69.9659M60.1818 69.9659C60.6367 67.2574 60.6564 65.5115 60.1818 60.2927M60.1818 69.9659C60.34 66.2382 59.9841 62.6332 60.1818 60.2927" stroke="#1E1E1E" stroke-width="0.5" stroke-linecap="round"/>
<path d="M63.0367 58.4973C64.7572 58.6011 66.3195 58.2991 67.3676 58.4973M63.0367 58.4973C63.986 58.4501 65.044 58.4879 67.3676 58.4973M63.0367 58.4973C62.5423 58.2047 60.1495 59.7053 60.8713 60.5641M63.0367 58.4973C61.5338 58.2142 60.278 59.8468 60.8713 60.5641M67.3676 58.4973C69.276 57.9971 68.9398 60.0544 69.5232 60.5641M67.3676 58.4973C69.7407 58.7615 68.5739 59.3561 69.5232 60.5641M69.5232 60.5641C69.5133 63.952 69.8693 66.6228 69.5232 69.7465M69.5232 60.5641C69.4243 63.6123 69.365 66.4623 69.5232 69.7465M69.5232 69.7465C68.7618 70.9828 69.3551 71.6906 67.3676 71.8132M69.5232 69.7465C69.1771 70.4448 67.8126 71.2564 67.3676 71.8132M67.3676 71.8132C66.3195 71.6622 65.3109 71.9925 63.0367 71.8132M67.3676 71.8132C65.9042 71.8321 64.3024 71.851 63.0367 71.8132M63.0367 71.8132C61.7909 72.6343 60.6439 71.6622 60.8713 69.7465M63.0367 71.8132C61.4843 71.8887 60.1 70.8506 60.8713 69.7465M60.8713 69.7465C61.2668 67.7364 61.2569 65.2732 60.8713 60.5641M60.8713 69.7465C60.6241 66.6039 60.9998 63.2914 60.8713 60.5641" stroke="#1E1E1E" stroke-width="0.5" stroke-linecap="round"/>
<path d="M64.7863 61.3309C65.3895 61.1988 66.1212 61.3686 66.6749 61.7367C67.2188 62.1047 67.8615 62.9918 68.0691 63.5392C68.2669 64.096 68.0592 64.4924 67.8812 65.0492C67.7033 65.606 67.5154 66.6157 66.9913 66.88C66.4673 67.1442 65.3994 66.7762 64.727 66.6346C64.0447 66.4931 63.3823 66.3704 62.9274 66.0118C62.4825 65.6531 62.0078 65.0303 62.0177 64.4924C62.0276 63.945 62.4627 63.2278 62.9769 62.7559C63.491 62.284 64.7468 61.8877 65.083 61.6612C65.4192 61.4253 64.994 61.3498 64.994 61.3686M64.8951 61.4819C65.5971 61.5008 66.9617 61.8122 67.4857 62.1519C68.0197 62.4917 68.0889 62.9824 68.0691 63.5298C68.0592 64.0677 67.7725 64.8604 67.4066 65.3889C67.0408 65.9268 66.3981 66.5025 65.874 66.7101C65.3499 66.9177 64.8654 66.8611 64.2623 66.6346C63.6492 66.4176 62.4923 65.8513 62.2353 65.3983C61.9683 64.9548 62.5022 64.4452 62.6901 63.9639C62.878 63.4826 62.8978 62.8975 63.3625 62.5011C63.8272 62.0953 65.2016 61.6801 65.4686 61.5479C65.7356 61.4158 64.9643 61.5763 64.9445 61.6989" stroke="#1E1E1E" stroke-width="0.5" stroke-linecap="round"/>
<path d="M63.9583 63.2137C64.0671 63.2704 64.3341 63.6101 64.4231 63.6762C64.512 63.7422 64.4033 63.4969 64.4923 63.6195C64.5714 63.7328 64.9273 64.3085 64.9175 64.3934C64.9076 64.4689 64.5714 64.082 64.4231 64.0914C64.2648 64.1008 64.1759 64.384 64.0177 64.45C63.8496 64.5066 63.5331 64.5255 63.4639 64.4689C63.3947 64.4217 63.4936 64.2801 63.5826 64.1386C63.6716 63.997 63.899 63.7988 64.0078 63.6384C64.1066 63.4685 64.1561 63.2137 64.2055 63.1666C64.255 63.1194 64.3044 63.327 64.2945 63.3553M64.3341 63.3742C64.4824 63.3175 64.2945 63.1854 64.2747 63.2137C64.255 63.2421 64.2253 63.393 64.2253 63.5252C64.2253 63.6667 64.2352 63.9027 64.2747 64.0159C64.3143 64.1292 64.5714 64.1763 64.4626 64.2046C64.3637 64.2424 63.6914 64.1763 63.632 64.2141C63.5628 64.2518 64.1066 64.4123 64.1066 64.4123C64.0968 64.4217 63.6419 64.3556 63.6122 64.2235C63.5727 64.082 63.8891 63.6856 63.9089 63.5724C63.9287 63.4591 63.6815 63.4685 63.721 63.5157C63.7705 63.5629 64.1264 63.8177 64.1561 63.8555" stroke="#1E1E1E" stroke-width="0.5" stroke-linecap="round"/>
<path d="M66.0203 63.5709C66.1192 63.5614 66.0895 63.2311 66.2477 63.3066C66.4059 63.3821 66.8806 63.9295 66.9597 64.0144C67.0289 64.0993 66.8015 63.7596 66.7125 63.8162C66.6334 63.8823 66.5839 64.2598 66.4356 64.4013C66.2873 64.5429 65.9313 64.6561 65.8127 64.6656C65.6841 64.6845 65.694 64.5995 65.7039 64.4863C65.7039 64.3636 65.8127 64.156 65.8324 63.9578C65.8522 63.7596 65.7434 63.4199 65.8127 63.3161C65.8819 63.2122 66.1983 63.3444 66.2477 63.3349C66.2972 63.3349 66.1686 63.2877 66.0994 63.2689M65.961 63.1179C65.961 63.0801 65.9808 63.1839 66.0401 63.2783C66.0994 63.3821 66.1983 63.5992 66.3071 63.7124C66.4158 63.8351 66.7619 63.92 66.7026 63.9955C66.6432 64.071 66.0203 64.0805 65.961 64.1843C65.9017 64.2787 66.4158 64.524 66.3763 64.5712C66.3268 64.6278 65.7929 64.6184 65.694 64.4863C65.5951 64.3636 65.8127 63.9672 65.7731 63.8162C65.7237 63.6747 65.3479 63.6275 65.427 63.6275C65.4963 63.6275 66.1192 63.8162 66.2082 63.8257C66.3071 63.8445 66.0203 63.7502 66.0005 63.703" stroke="#1E1E1E" stroke-width="0.5" stroke-linecap="round"/>
<path d="M64.9084 64.736C65.1457 64.7265 65.7785 65.2173 65.9861 65.2928C66.1938 65.3588 66.1246 65.038 66.1345 65.1607C66.1444 65.2739 66.1938 65.7458 66.0653 65.9817C65.9466 66.2082 65.5709 66.4441 65.3929 66.5479C65.205 66.6517 65.0962 66.6706 64.9776 66.5951C64.8688 66.5291 64.8095 66.3309 64.7106 66.1233C64.6117 65.9062 64.3744 65.5004 64.3744 65.3211C64.3744 65.1418 64.5821 65.1418 64.7106 65.0474C64.8293 64.9625 65.0962 64.8209 65.116 64.7643C65.1457 64.6982 64.8886 64.6227 64.8787 64.6888M64.7304 64.6699C64.8787 64.6888 65.1556 64.8681 65.3929 64.9813C65.6302 65.0946 66.1345 65.2078 66.1641 65.3494C66.2037 65.4815 65.65 65.6042 65.6104 65.793C65.5709 65.9817 66.0455 66.3592 65.9367 66.5007C65.8181 66.6329 65.1457 66.7178 64.9281 66.6234C64.7007 66.5385 64.76 66.1516 64.592 65.9817C64.4337 65.8118 63.9394 65.6797 63.9492 65.6042C63.969 65.5193 64.503 65.5665 64.6809 65.5004C64.8688 65.4343 64.9776 65.2739 65.0468 65.189C65.116 65.0946 65.1556 65.0191 65.116 64.9625" stroke="#1E1E1E" stroke-width="0.5" stroke-linecap="round"/>
<path d="M65.8402 65.8712C65.8896 65.8618 65.682 65.3899 65.6523 65.371C65.6128 65.3521 65.682 65.6447 65.6424 65.7485C65.593 65.8618 65.3952 65.9656 65.3755 66.0127C65.3656 66.0599 65.4941 66.0694 65.5534 66.0316C65.6227 66.0033 65.7611 65.9184 65.7611 65.824C65.7611 65.7202 65.593 65.4937 65.5831 65.4465C65.5633 65.4088 65.6721 65.5786 65.6622 65.5786C65.6523 65.5881 65.5831 65.5031 65.5238 65.4748C65.4645 65.4371 65.3161 65.3144 65.3062 65.371C65.2964 65.4276 65.4546 65.7674 65.4842 65.7957M65.1678 65.522C65.2667 65.5409 65.6523 65.4937 65.6523 65.4937C65.6622 65.4843 65.1579 65.4276 65.2173 65.4937C65.2766 65.5692 65.9391 65.8334 65.9984 65.9278C66.0676 66.0222 65.6424 66.1071 65.593 66.0788C65.5436 66.0505 65.7809 65.7863 65.7018 65.7391C65.6325 65.6919 65.1678 65.7485 65.148 65.8051C65.1283 65.8618 65.5337 66.0694 65.5732 66.0882C65.6128 66.1071 65.3952 65.975 65.3755 65.9089C65.3557 65.8334 65.504 65.7202 65.4743 65.6541C65.4447 65.5786 65.2469 65.4371 65.1876 65.4937" stroke="#1E1E1E" stroke-width="0.5" stroke-linecap="round"/>
<path d="M63.1995 61.2183C63.3082 61.1995 63.6345 61.728 63.7631 61.8318C63.9015 61.9261 63.9806 61.6336 64.0103 61.8035C64.0301 61.9733 64.0103 62.6906 63.9114 62.851C63.8026 63.0114 63.4763 62.7377 63.3874 62.766C63.2885 62.7849 63.4368 62.9548 63.328 62.9831C63.2291 63.002 62.7941 63.0114 62.7446 62.8982C62.6853 62.7944 62.9523 62.4829 62.9918 62.3225C63.0215 62.1526 62.893 62.0111 62.9523 61.9167C63.0116 61.8223 63.3577 61.794 63.3478 61.7563C63.3379 61.7091 62.9028 61.6713 62.893 61.6713M63.4269 61.3693C63.5456 61.4448 63.951 61.9828 64.0004 62.1621C64.0498 62.3414 63.8323 62.3697 63.7334 62.4546C63.6345 62.5301 63.3972 62.549 63.3972 62.6434C63.3874 62.7283 63.7433 62.8604 63.7038 62.9831C63.6642 63.1058 63.3082 63.521 63.15 63.3983C62.9819 63.2757 62.7941 62.5301 62.7348 62.247C62.6754 61.9639 62.7941 61.8035 62.7941 61.6996C62.804 61.6053 62.7249 61.7374 62.7545 61.643C62.7743 61.5581 62.8732 61.1523 62.9424 61.1523C63.0116 61.1617 63.1896 61.6525 63.1698 61.6808" fill="white"/>
<path d="M63.2687 61.2466C63.3281 61.1994 63.5456 61.5297 63.5851 61.7185C63.6346 61.8978 63.5258 62.162 63.5456 62.3508C63.5654 62.5395 63.6939 62.7471 63.7236 62.8604C63.7532 62.9642 63.8126 63.0397 63.7236 63.0114C63.6346 62.9925 63.3281 62.7943 63.2094 62.7283C63.0908 62.6622 63.0809 62.7283 63.0018 62.615C62.9227 62.5018 62.804 62.2375 62.7447 62.0488C62.6853 61.86 62.5667 61.5581 62.6359 61.492C62.7051 61.4354 63.0611 61.6996 63.1402 61.6902C63.2292 61.6807 63.1896 61.492 63.16 61.4354M63.2885 61.3787C63.3973 61.341 63.0314 61.3221 63.1699 61.4826C63.3182 61.6336 64.0697 62.0488 64.1685 62.2847C64.2674 62.5207 63.8323 62.8038 63.7532 62.917C63.6642 63.0208 63.8126 62.9076 63.6445 62.9359C63.4863 62.9642 62.893 63.0491 62.7645 63.0774C62.6458 63.1058 62.9325 63.2096 62.9128 63.1058C62.8831 63.002 62.6161 62.6905 62.6062 62.464C62.5865 62.247 62.7842 61.945 62.8238 61.7657C62.8633 61.5864 62.8633 61.3693 62.8534 61.3976C62.8534 61.4259 62.8337 61.8317 62.8139 61.9355" stroke="white" stroke-width="0.5" stroke-linecap="round"/>
<path fill-rule="evenodd" clip-rule="evenodd" d="M62.5124 62.5588C62.2478 62.6437 61.5865 63.7219 61.7519 63.7623C61.9081 63.7926 63.2532 63.3415 63.4666 62.7797C63.6892 62.228 63.2051 60.7163 63.0585 60.4406" fill="white"/>
<path d="M61.9868 62.4354C62.1197 62.6344 62.9702 63.16 63.2341 63.2076C63.4973 63.2647 63.4638 63.0635 63.55 62.729C63.6461 62.3953 63.7038 61.4246 63.781 61.2031M62.5199 62.3417C62.6299 62.4538 62.8628 62.5181 63.1496 62.6525C63.4257 62.7957 64.0836 63.3736 64.2086 63.1745C64.3245 62.9652 63.9505 61.6887 63.8729 61.418" stroke="#1E1E1E" stroke-width="0.5" stroke-linecap="round"/>
<path fill-rule="evenodd" clip-rule="evenodd" d="M62.7595 62.37C62.491 62.3778 62.0109 63.0435 62.113 62.9248C62.2138 62.7967 63.2226 61.9926 63.3543 61.603" fill="white"/>
<path d="M62.6744 62.0669C62.7779 62.0243 62.6742 62.2671 62.8533 62.1284C63.0324 61.9897 63.567 61.3548 63.7587 61.2335M62.3627 61.8518C62.6255 62.0068 63.3452 62.5478 63.5466 62.4919C63.7578 62.4346 63.6675 61.6271 63.6214 61.519" stroke="#1E1E1E" stroke-width="0.5" stroke-linecap="round"/>
<path d="M67.5826 61.7482C67.632 61.7671 67.543 61.4462 67.6222 61.5028C67.7013 61.5689 68.0572 61.9086 68.0671 62.1257C68.077 62.3427 67.7408 62.6636 67.6815 62.8051C67.632 62.9561 67.8298 62.9656 67.7507 63.0033C67.6716 63.0411 67.3354 63.06 67.2167 63.0128C67.0981 62.975 67.1475 62.8806 67.0289 62.7296C66.9201 62.5787 66.5246 62.2955 66.5345 62.1162C66.5543 61.9464 66.9794 61.7671 67.1278 61.6916C67.2761 61.6161 67.3947 61.6916 67.4343 61.6727C67.4837 61.6538 67.4244 61.5594 67.4046 61.5783M67.1376 61.4367C67.2959 61.4084 67.899 61.5122 68.0374 61.7104C68.1759 61.9086 68.0177 62.5126 67.9682 62.6164C67.9089 62.7108 67.7804 62.305 67.7111 62.2861C67.632 62.2672 67.6419 62.4182 67.5134 62.5032C67.3848 62.5975 67.0981 62.8806 66.93 62.8051C66.7718 62.7391 66.574 62.22 66.5444 62.0974C66.5246 61.9747 66.7619 62.2295 66.7718 62.0879C66.7916 61.9464 66.5048 61.2763 66.6531 61.2291C66.8015 61.1914 67.5529 61.7293 67.6617 61.8331C67.7804 61.9275 67.4145 61.8614 67.3552 61.8237" fill="white"/>
<path d="M67.3749 61.7199C67.5628 61.6821 67.8594 61.6915 67.9583 61.7104C68.0473 61.7293 67.9583 61.6915 67.9682 61.8237C67.9682 61.9558 68.0473 62.3522 67.9781 62.5032C67.899 62.6541 67.7111 62.7202 67.5331 62.7485C67.3552 62.7674 67.0387 62.6447 66.9201 62.6447C66.8014 62.6353 66.8509 62.8335 66.8311 62.7108C66.8113 62.5975 66.7915 62.1634 66.7915 61.9369C66.7915 61.701 66.752 61.4367 66.8212 61.3235C66.8904 61.2008 67.1178 61.1819 67.2068 61.2102C67.2859 61.2386 67.3057 61.5028 67.3156 61.5122M67.3453 61.7765C67.4145 61.7199 67.8199 61.5217 67.8496 61.5783C67.8792 61.6255 67.5134 61.8709 67.5233 62.0973C67.5331 62.3238 67.9287 62.758 67.9188 62.9373C67.899 63.1071 67.5727 63.1449 67.4441 63.1449C67.3156 63.1449 67.2958 63.0505 67.1475 62.9467C67.0091 62.8335 66.6927 62.5598 66.574 62.4843C66.4554 62.4088 66.4554 62.5786 66.4455 62.5126C66.4356 62.4465 66.3565 62.1823 66.5147 62.069C66.663 61.9652 67.2859 61.9086 67.3453 61.852C67.4145 61.7954 66.8707 61.7954 66.9003 61.7387" stroke="white" stroke-width="0.5" stroke-linecap="round"/>
<path fill-rule="evenodd" clip-rule="evenodd" d="M67.4418 61.2486C67.2043 61.3635 66.4317 62.7651 66.4107 62.9658C66.3996 63.1657 67.3617 62.8376 67.3347 62.442C67.3077 62.0463 66.5616 60.8591 66.2488 60.592" fill="white"/>
<path d="M68.2757 61.8883C68.2602 62.0412 68.0517 62.8927 67.8294 63.0632C67.5963 63.2251 67.0951 63.1729 66.9318 62.912C66.7676 62.6418 66.9172 61.6911 66.837 61.4705M67.9593 62.5405C67.958 62.7396 67.9511 63.5171 67.7605 63.4954C67.5699 63.4737 66.9501 62.6831 66.8245 62.4001C66.6988 62.117 66.9588 61.9244 66.9885 61.8176" stroke="#1E1E1E" stroke-width="0.5" stroke-linecap="round"/>
<path fill-rule="evenodd" clip-rule="evenodd" d="M67.4919 61.0253C67.2616 60.9588 66.2615 61.6443 66.2624 61.711C66.2646 61.7684 67.4686 61.5648 67.494 61.3776" fill="white"/>
<path d="M68.3778 62.0671C68.2867 62.151 67.8415 62.4196 67.5733 62.339C67.305 62.2583 66.9838 61.6858 66.7905 61.5668M68.1609 61.7549C68.0505 61.7603 67.7673 62.0108 67.5263 61.8764C67.2754 61.7408 66.8735 61.1012 66.6938 60.9554" stroke="#1E1E1E" stroke-width="0.5" stroke-linecap="round"/>
<path d="M65.057 65.4987C65.0669 65.5176 65.0075 65.4609 64.9482 65.4421C64.8988 65.4326 64.7307 65.3382 64.7208 65.4137C64.7109 65.4798 64.8592 65.8384 64.8889 65.8856C64.9087 65.9234 64.8889 65.7157 64.8493 65.6497C64.8098 65.5742 64.6713 65.4987 64.6318 65.4704C64.5922 65.4421 64.612 65.4326 64.6318 65.4798C64.6417 65.5176 64.7109 65.7252 64.7307 65.7063C64.7406 65.6874 64.7208 65.3382 64.7208 65.3666C64.7307 65.3854 64.7109 65.8101 64.7603 65.8479C64.8098 65.895 64.968 65.6308 65.0273 65.6119M64.968 65.9894C65.0273 66.0272 64.8197 65.9234 64.8098 65.8762C64.7999 65.8195 64.9383 65.7346 64.8988 65.6874C64.8691 65.6402 64.6713 65.5081 64.6021 65.5836C64.5428 65.6591 64.5527 66.0555 64.5131 66.1499C64.4736 66.2442 64.3154 66.1782 64.3648 66.1687C64.4241 66.1687 64.8296 66.1593 64.8296 66.1215C64.8296 66.0838 64.3352 66.0177 64.3747 65.9422C64.4143 65.8573 65.0471 65.6497 65.0471 65.6497C65.057 65.6497 64.3846 65.8856 64.4044 65.9422C64.4241 65.9894 65.1756 65.98 65.1855 65.9705" stroke="#1E1E1E" stroke-width="0.5" stroke-linecap="round"/>
<path d="M62.7225 68.9174C62.594 69.0023 62.2776 69.5402 62.2281 69.6252M62.3369 68.672C62.2974 68.6531 62.8906 68.9457 62.861 69.1344" stroke="#1E1E1E" stroke-width="0.5" stroke-linecap="round"/>
<path fill-rule="evenodd" clip-rule="evenodd" d="M61.1881 67.9376C61.2277 67.9942 61.8407 68.0131 62.2066 68.1357C62.5724 68.249 63.5612 68.5699 63.3931 68.6548C63.2349 68.7492 61.2178 68.4944 61.2178 68.6737" fill="white"/>
<path d="M62.0879 68.8058C62.1967 68.7586 62.958 68.4189 63.1063 68.4189C63.2448 68.4189 63.1459 68.6926 62.958 68.8058C62.7702 68.9191 62.0582 69.0417 61.9791 69.0889M62.5823 68.6076C62.6218 68.6076 62.7702 68.7869 62.78 68.853C62.7899 68.9285 62.7899 68.9662 62.6416 69.0512C62.4933 69.1361 61.9989 69.3437 61.9099 69.3626" stroke="#1E1E1E" stroke-width="0.5" stroke-linecap="round"/>
<path fill-rule="evenodd" clip-rule="evenodd" d="M63.5133 69.1137C63.7704 69.0288 64.8383 68.2266 64.9075 68.1983C64.9767 68.1605 63.6814 68.7928 63.8989 68.9249C64.1264 69.0665 66.0248 68.9533 66.2424 69.0288" fill="white"/>
<path d="M64.4033 69.3968C64.4528 69.1986 64.4231 68.3493 64.4626 68.3398C64.5121 68.3304 64.522 69.3402 64.6505 69.3402C64.7889 69.3496 65.2141 68.5758 65.2636 68.387M64.9966 69.1231C65.1845 68.9438 65.1054 68.5569 65.1647 68.6513C65.224 68.7456 65.313 69.6799 65.3526 69.6799C65.402 69.6894 65.402 68.9155 65.4317 68.6702" stroke="#1E1E1E" stroke-width="0.5" stroke-linecap="round"/>
<path fill-rule="evenodd" clip-rule="evenodd" d="M66.406 68.0778C66.2873 68.0873 64.3295 67.9363 64.4482 68.2194C64.5767 68.5025 67.0091 69.4274 67.1575 69.786C67.3058 70.1352 65.5952 70.4088 65.3677 70.3428" fill="white"/>
<path d="M65.961 68.2289C65.8225 68.2572 65.1699 68.4837 65.1996 68.6347C65.2391 68.7857 66.1884 69.0499 66.1785 69.1443C66.1785 69.2387 65.3677 69.1915 65.16 69.2009M66.5147 68.8329C66.485 68.9084 65.9313 68.9272 65.8522 69.0405C65.7731 69.1443 66.1686 69.418 66.0598 69.484C65.9412 69.5407 65.2787 69.4368 65.1798 69.3991" stroke="#1E1E1E" stroke-width="0.5" stroke-linecap="round"/>
<path fill-rule="evenodd" clip-rule="evenodd" d="M65.889 67.9818C65.9583 68.1989 67.4118 68.9916 67.5799 69.3691C67.7578 69.756 67.0954 70.2562 66.9273 70.2656C66.7592 70.2845 66.8877 69.5484 66.5911 69.4635" fill="white"/>
<path d="M66.6405 68.3971C66.6207 68.482 66.5911 68.6047 66.6109 68.7274C66.6207 68.85 66.8679 69.0294 66.7295 69.1237C66.5812 69.2275 65.9088 69.2653 65.7605 69.3125M67.1448 68.0856C67.1053 68.2461 66.5515 68.9161 66.4329 69.1332C66.3142 69.3502 66.5713 69.3125 66.4527 69.388C66.3241 69.454 65.7012 69.5107 65.6814 69.5295" stroke="#1E1E1E" stroke-width="0.5" stroke-linecap="round"/>
<path fill-rule="evenodd" clip-rule="evenodd" d="M62.4222 68.846C62.6398 68.8554 64.6965 68.7516 64.9931 68.9875C65.2897 69.214 64.2614 70.1955 64.2021 70.2427" fill="white"/>
<path d="M63.6483 69.2706C63.7372 69.0913 63.6977 68.1948 63.7175 68.1759C63.7471 68.1571 63.7768 68.9592 63.7966 69.1385M63.322 68.9592C63.3813 68.8271 63.1934 68.4213 63.3912 68.4968C63.579 68.5723 64.4096 69.2423 64.4788 69.4122" stroke="#1E1E1E" stroke-width="0.5" stroke-linecap="round"/>
<path d="M63.4397 68.892C63.4496 68.8165 63.7363 68.6655 63.8055 68.6466M64.0231 69.5054C64.122 69.4771 64.3395 69.0524 64.4285 68.9769" stroke="#1E1E1E" stroke-width="0.5" stroke-linecap="round"/>
<path fill-rule="evenodd" clip-rule="evenodd" d="M67.3355 70.319C67.2959 70.0548 68.2155 68.4976 68.176 68.4033C68.1364 68.2994 67.0685 69.3564 67.0883 69.7245" fill="white"/>
<path d="M66.9302 69.2243C66.9796 69.0828 67.207 68.3372 67.4048 68.3655C67.5927 68.3938 68.0277 69.2243 68.0871 69.3942M67.4147 69.8566C67.5729 69.7906 67.9783 68.7808 68.0574 68.7525C68.1365 68.7336 67.9585 69.5641 67.8992 69.7151" stroke="#1E1E1E" stroke-width="0.5" stroke-linecap="round"/>
<path d="M67.0845 68.9424C67.2427 68.9329 67.8953 68.8197 67.9843 68.7914M67.5986 68.6215C67.7371 68.6781 67.6184 69.0934 67.747 69.1689" stroke="#1E1E1E" stroke-width="0.5" stroke-linecap="round"/>
<path d="M19.0175 59.2384C21.2225 58.8137 21.8158 59.3611 24.0405 59.2384C24.5349 61.2768 26.117 58.4362 26.552 61.6354C25.3655 63.2114 27.2541 67.2411 26.552 71.3086C29.0636 73.8283 26.4235 73.2149 24.0405 73.7057C22.0926 74.2719 19.858 73.9416 19.0175 73.7057C17.3662 73.2338 17.3761 73.9793 16.506 71.3086C17.7518 68.1471 15.8237 63.504 16.506 61.6354C14.4592 60.0877 15.2106 60.503 19.0175 59.2384Z" fill="white"/>
<path d="M19.0174 59.2384C20.026 59.3516 21.2521 59.3611 24.0405 59.2384M19.0174 59.2384C20.9456 59.2762 23.0912 59.229 24.0405 59.2384M19.0174 59.2384C16.4664 59.6253 16.3971 59.2384 16.5059 61.6355M19.0174 59.2384C17.1091 58.7477 17.2376 59.7763 16.5059 61.6355M24.0405 59.2384C24.7821 59.9745 26.0279 60.5407 26.552 61.6355M24.0405 59.2384C24.7128 58.6533 27.3826 60.4558 26.552 61.6355M26.552 61.6355C26.7201 64.6176 26.9277 67.798 26.552 71.3086M26.552 61.6355C26.641 64.042 26.4136 66.2125 26.552 71.3086M26.552 71.3086C27.432 72.6298 24.7623 73.6774 24.0405 73.7057M26.552 71.3086C27.1552 72.8469 25.8994 73.1111 24.0405 73.7057M24.0405 73.7057C22.4584 73.6208 21.2026 73.7434 19.0174 73.7057M24.0405 73.7057C23.0022 73.5924 21.6476 73.8001 19.0174 73.7057M19.0174 73.7057C17.7814 73.5641 16.941 72.3845 16.5059 71.3086M19.0174 73.7057C17.9001 72.6676 16.7828 72.5072 16.5059 71.3086M16.5059 71.3086C16.5553 69.6288 16.1302 66.741 16.5059 61.6355M16.5059 71.3086C16.5356 69.1286 16.6246 66.5145 16.5059 61.6355" stroke="#1E1E1E" stroke-width="0.5" stroke-linecap="round"/>
<path d="M19.361 59.84C20.7255 59.9438 22.6536 59.7362 23.6919 59.84M19.361 59.84C20.5574 59.8211 21.5067 59.9155 23.6919 59.84M19.361 59.84C18.5502 59.6135 16.3254 60.9158 17.1955 61.9067M19.361 59.84C18.0558 59.8588 16.9681 60.0381 17.1955 61.9067M23.6919 59.84C24.6114 60.3496 24.9773 60.0193 25.8474 61.9067M23.6919 59.84C25.9661 60.2552 25.8178 60.9158 25.8474 61.9067M25.8474 61.9067C26.2034 65.6816 25.5409 69.079 25.8474 71.0891M25.8474 61.9067C25.6892 65.5401 26.0749 68.9375 25.8474 71.0891M25.8474 71.0891C24.9081 72.4387 25.6596 73.0993 23.6919 73.1559M25.8474 71.0891C26.0353 71.8724 25.1948 72.1461 23.6919 73.1559M23.6919 73.1559C23.0195 73.2031 21.8033 72.9766 19.361 73.1559M23.6919 73.1559C22.5449 73.2314 21.5956 73.1276 19.361 73.1559M19.361 73.1559C18.3524 72.6369 17.68 71.5704 17.1955 71.0891M19.361 73.1559C18.1942 72.7595 16.2166 71.9479 17.1955 71.0891M17.1955 71.0891C16.8198 68.2108 16.9286 66.2667 17.1955 61.9067M17.1955 71.0891C17.3142 68.9941 17.1659 66.7858 17.1955 61.9067" stroke="#1E1E1E" stroke-width="0.5" stroke-linecap="round"/>
<path d="M21.427 63.1264C22.0499 63.0321 22.7322 62.8433 23.2859 63.117C23.8396 63.3907 24.5516 64.2117 24.7493 64.7685C24.9471 65.3347 24.8185 65.9104 24.4626 66.4955C24.1066 67.0806 23.2167 68.0055 22.6234 68.2886C22.0203 68.5717 21.4369 68.3452 20.8634 68.1848C20.2899 68.0244 19.5483 67.7884 19.1824 67.326C18.8067 66.8636 18.5694 65.967 18.6485 65.4008C18.7375 64.8346 19.2615 64.3061 19.6867 63.938C20.1119 63.57 20.8634 63.3435 21.2193 63.1925C21.5753 63.0321 21.7533 63.0509 21.8324 63.0132M21.2886 62.8905C21.8719 62.9094 23.3551 63.2586 23.9187 63.6172C24.4725 63.9758 24.6109 64.5326 24.6504 65.0422C24.6801 65.5424 24.5614 66.1463 24.1066 66.656C23.6518 67.1656 22.5641 67.7979 21.9214 68.1093C21.2688 68.4207 20.7052 68.7699 20.2108 68.4962C19.7263 68.2225 19.311 67.0901 18.9748 66.4578C18.6386 65.8255 17.9959 65.2781 18.2035 64.7119C18.4211 64.1362 19.7065 63.2491 20.2306 63.0132C20.7645 62.7867 21.1205 63.3435 21.4072 63.3246C21.694 63.2963 21.8818 62.9566 21.9708 62.8905" stroke="#1E1E1E" stroke-width="0.5" stroke-linecap="round"/>
<path d="M20.3517 64.4809C20.5 64.4054 20.8955 64.6319 21.024 64.6979C21.1625 64.764 21.202 64.6885 21.1625 64.8583C21.113 65.0188 20.8263 65.5567 20.767 65.6888C20.7076 65.8304 20.8658 65.6416 20.8065 65.6794C20.7472 65.7266 20.5395 65.9436 20.4209 65.9342C20.3022 65.9248 20.144 65.6794 20.0946 65.6039C20.0451 65.5284 20.1737 65.5473 20.1341 65.4812C20.0847 65.4151 19.7386 65.3113 19.8375 65.1981C19.9265 65.0943 20.5593 64.9433 20.6977 64.83C20.8263 64.7262 20.6681 64.5186 20.6384 64.5564M20.6879 64.7451C20.8856 64.6979 20.8065 64.613 20.8658 64.613C20.9153 64.6035 21.0834 64.5752 21.0142 64.7074C20.9449 64.8395 20.5297 65.1603 20.4407 65.3963C20.3616 65.6322 20.5297 66.1324 20.5297 66.1324C20.5198 66.1324 20.5692 65.5284 20.411 65.3868C20.2429 65.2358 19.5705 65.368 19.5705 65.2641C19.5606 65.1698 20.3418 64.7828 20.3616 64.7923C20.3912 64.8017 19.6793 65.3302 19.7188 65.3208C19.7683 65.3019 20.4901 64.83 20.6384 64.6979C20.7867 64.5658 20.6285 64.5752 20.6384 64.5186" stroke="#1E1E1E" stroke-width="0.5" stroke-linecap="round"/>
<path d="M22.7697 64.6021C22.918 64.6115 23.0169 64.4983 23.0268 64.6398C23.0366 64.7814 22.829 65.3004 22.8191 65.4514C22.8191 65.593 23.0366 65.442 23.0169 65.5269C22.9971 65.6024 22.8191 65.8855 22.6906 65.9233C22.5719 65.961 22.384 65.7912 22.2951 65.7534C22.2159 65.7157 22.2753 65.7629 22.1764 65.7062C22.0775 65.6496 21.6523 65.5269 21.7018 65.3948C21.7413 65.2627 22.2555 65.0456 22.4335 64.9041C22.6115 64.7625 22.7103 64.5171 22.74 64.5455C22.7796 64.5738 22.7202 65.0645 22.6609 65.0551M22.5324 64.4983C22.6016 64.4228 22.8389 64.3378 22.829 64.4322C22.829 64.5266 22.5027 64.838 22.5027 65.0834C22.4928 65.3287 22.7499 65.8667 22.7993 65.9139C22.8389 65.961 22.918 65.442 22.7598 65.3665C22.6016 65.2816 21.8995 65.4986 21.8501 65.4514C21.7908 65.4042 22.4829 65.0645 22.4335 65.0834C22.384 65.1023 21.5732 65.6213 21.5535 65.5836C21.5337 65.5364 22.127 64.9796 22.3148 64.8003C22.4928 64.621 22.6016 64.5832 22.6609 64.4983C22.7301 64.4228 22.7005 64.3001 22.6906 64.319" stroke="#1E1E1E" stroke-width="0.5" stroke-linecap="round"/>
<path d="M21.5389 65.9843C21.6477 66.022 21.6378 66.4655 21.796 66.5882C21.9542 66.7109 22.3794 66.5882 22.4882 66.7298C22.6068 66.8619 22.5475 67.2772 22.4684 67.4376C22.3992 67.5886 22.1915 67.5791 22.0432 67.6641C21.8949 67.749 21.8059 67.9283 21.5587 67.9378C21.3214 67.9378 20.6886 67.8528 20.5798 67.7018C20.4612 67.5414 20.8072 67.2488 20.8863 67.0129C20.9654 66.777 20.9358 66.3523 21.0445 66.2768C21.1434 66.2013 21.4697 66.5977 21.5093 66.541C21.5587 66.4939 21.3313 65.9843 21.3115 65.9748M21.529 65.8144C21.618 65.8427 21.4697 66.0975 21.5884 66.3429C21.7169 66.5788 22.1223 67.1639 22.2607 67.2677C22.3992 67.3715 22.5574 66.9657 22.419 66.9846C22.2805 67.0035 21.529 67.3338 21.4104 67.381C21.2818 67.4187 21.8356 67.1639 21.6675 67.23C21.4994 67.2866 20.5106 67.8151 20.3722 67.7396C20.2337 67.6641 20.6985 67.0412 20.827 66.777C20.9555 66.5127 20.9852 66.3334 21.1335 66.1636C21.2818 66.0031 21.6576 65.8144 21.7367 65.8049C21.8158 65.7955 21.7268 66.0503 21.618 66.0975" stroke="#1E1E1E" stroke-width="0.5" stroke-linecap="round"/>
<path d="M21.67 67.1855C21.67 67.2327 21.9568 66.959 22.0161 66.959C22.0755 66.9685 22.026 67.1949 22.026 67.2233C22.026 67.2516 21.9865 67.11 22.0062 67.1289C22.0161 67.1572 22.1743 67.3176 22.1051 67.3648C22.0458 67.4026 21.6206 67.4214 21.6206 67.3743C21.6107 67.3365 22.026 67.2233 22.0952 67.1289C22.1644 67.0251 22.0458 66.7797 22.0161 66.7986C21.9963 66.8175 21.9865 67.2799 21.9469 67.261C21.8975 67.2327 21.7689 66.6759 21.7492 66.657C21.7393 66.6381 21.8283 67.0723 21.8381 67.1289M21.3536 66.8835C21.3437 67.0251 21.6404 67.4403 21.7492 67.4026C21.8678 67.3648 22.0755 66.7797 22.0359 66.6759C21.9865 66.5721 21.4327 66.808 21.4822 66.808C21.5415 66.808 22.3424 66.5627 22.3424 66.6853C22.3424 66.7986 21.5415 67.4592 21.4921 67.5064C21.4327 67.563 21.937 67.1194 22.026 66.9968C22.115 66.8646 22.0062 66.8363 22.0161 66.7608C22.0161 66.6853 22.0656 66.5249 22.0557 66.5249C22.0458 66.5343 22.0755 66.7514 21.9667 66.7891C21.8678 66.8175 21.4723 66.7042 21.4229 66.7325" stroke="#1E1E1E" stroke-width="0.5" stroke-linecap="round"/>
<path d="M19.8499 63.014C19.9884 63.0045 19.8697 62.9762 19.8598 63.014C19.8598 63.0517 19.7609 63.0234 19.8104 63.2216C19.8499 63.4292 20.1762 64.0332 20.1466 64.2125C20.1169 64.3824 19.8005 64.2314 19.6423 64.2597C19.494 64.2786 19.3061 64.3541 19.2171 64.3446C19.1281 64.3257 19.0787 64.3541 19.1083 64.1748C19.1281 63.9954 19.3753 63.4386 19.3654 63.2593C19.3654 63.0706 19.0589 63.1178 19.0688 63.0989C19.0787 63.0706 19.3654 63.1838 19.4445 63.1178C19.5236 63.0423 19.5533 62.6837 19.5434 62.6648M19.9093 63.2877C20.1663 63.3726 20.3938 63.2593 20.4432 63.2877C20.5025 63.3254 20.2356 63.4103 20.2257 63.5047C20.2158 63.5991 20.5619 63.7123 20.4037 63.8539C20.2454 63.9954 19.3753 64.3163 19.2764 64.3446C19.1677 64.3824 19.7906 64.137 19.7906 64.0615C19.7906 63.9766 19.4346 63.9671 19.2962 63.8728C19.1578 63.7878 18.9402 63.6368 18.9699 63.5141C19.0095 63.4009 19.3753 63.2216 19.5137 63.1744C19.6423 63.1272 19.6621 63.2782 19.7708 63.2405C19.8697 63.2027 20.1861 63.0612 20.1268 62.9385" fill="white"/>
<path d="M19.6126 62.8535C19.7708 62.8157 19.8697 63.08 19.9587 63.1744C20.0477 63.2782 20.107 63.2782 20.1564 63.448C20.2158 63.6085 20.374 63.9671 20.285 64.1558C20.1861 64.3351 19.6818 64.5144 19.5928 64.5522C19.5038 64.5994 19.7807 64.5239 19.7411 64.4012C19.7115 64.288 19.4643 63.9388 19.3753 63.8538C19.2764 63.7595 19.2171 64.0426 19.1677 63.8633C19.1182 63.6934 19.0193 62.9479 19.0688 62.8063C19.1281 62.6647 19.4148 63.0045 19.4841 63.0234C19.5533 63.0517 19.5137 62.9384 19.4841 62.9196M19.3456 63.297C19.5533 63.2215 19.9092 62.6553 19.9587 62.627C20.0081 62.5987 19.5533 62.9762 19.6423 63.1083C19.7313 63.2499 20.5421 63.2121 20.5124 63.4669C20.4827 63.7312 19.6027 64.5428 19.4643 64.6749C19.3259 64.8164 19.6917 64.4106 19.6818 64.2691C19.662 64.1275 19.4346 64.0048 19.3753 63.8161C19.3061 63.6273 19.2962 63.2876 19.2764 63.1366C19.2665 62.9951 19.3259 63.0234 19.2863 62.9384C19.2468 62.8535 19.049 62.6459 19.0589 62.6364C19.0589 62.627 19.1874 62.9101 19.3259 62.9007" stroke="white" stroke-width="0.5" stroke-linecap="round"/>
<path fill-rule="evenodd" clip-rule="evenodd" d="M19.7049 64.7029C19.6498 65.1437 19.562 65.3739 19.4657 65.3385C19.3792 65.3038 18.8709 64.964 19.1678 64.4745C19.464 63.9944 21.3287 62.7483 21.2443 62.4393" fill="white"/>
<path d="M18.2516 63.2816C18.4474 63.4379 19.2095 64.4492 19.5251 64.5953C19.8407 64.7413 20.0323 64.4523 20.155 64.1584C20.267 63.8732 20.243 63.0574 20.2292 62.8577M18.6745 63.9465C18.8702 63.9797 19.2047 64.1366 19.4186 64.0669C19.6316 64.0067 19.8149 63.6983 19.9748 63.5585C20.1348 63.4187 20.4426 63.2897 20.3978 63.2296" stroke="#1E1E1E" stroke-width="0.5" stroke-linecap="round"/>
<path fill-rule="evenodd" clip-rule="evenodd" d="M20.1122 64.3164C20.1287 64.6287 20.0087 64.359 19.8564 64.2081C19.6943 64.0585 18.9198 63.7537 19.1396 63.4189" fill="white"/>
<path d="M18.976 63.4602C19.1619 63.5017 19.2569 63.6032 19.471 63.4979C19.6864 63.4019 20.1663 62.9365 20.2839 62.8538M18.6489 63.2758C18.8027 63.2359 18.8755 63.1879 19.1105 63.0225C19.354 62.8465 19.9136 62.3798 20.0983 62.2784" stroke="#1E1E1E" stroke-width="0.5" stroke-linecap="round"/>
<path d="M23.7979 62.9775C23.9364 63.0058 23.8869 62.8076 23.9265 62.8831C23.966 62.9586 24.0056 63.2229 24.0352 63.4305C24.0748 63.6287 24.1143 64.0062 24.1341 64.11C24.1539 64.2138 24.3121 64.0062 24.1737 64.0439C24.0451 64.0817 23.5112 64.3082 23.3233 64.327C23.1453 64.3459 23.1058 64.3648 23.0662 64.176C23.0267 63.9967 23.0959 63.4022 23.0959 63.204C23.1058 63.0153 22.9476 63.1379 23.0959 63.0247C23.2442 62.902 23.9265 62.4962 23.9957 62.4868C24.055 62.4773 23.5112 62.8454 23.5112 62.9586M24.1341 62.5528C24.1539 62.5717 23.5507 62.8737 23.6397 62.987C23.7386 63.1002 24.5593 63.0813 24.6779 63.2418C24.7867 63.4022 24.4901 63.7514 24.3319 63.9496C24.1737 64.1477 23.8375 64.3365 23.7287 64.412C23.6101 64.4969 23.7386 64.4592 23.6793 64.4308C23.6101 64.4025 23.3233 64.412 23.3233 64.2515C23.3134 64.0817 23.6793 63.7136 23.6397 63.4211C23.6101 63.1285 23.175 62.6095 23.1157 62.5057C23.0563 62.4018 23.2838 62.7038 23.3134 62.7888C23.3431 62.8831 23.264 63.0908 23.2936 63.0341" fill="white"/>
<path d="M23.9562 63.053C24.0156 63.1002 23.7387 63.2229 23.8277 63.2984C23.9167 63.3833 24.4012 63.4683 24.4803 63.5438C24.5594 63.6193 24.4012 63.591 24.3122 63.7514C24.2232 63.9213 24.0848 64.5158 23.9167 64.5441C23.7585 64.563 23.4618 63.9968 23.3333 63.9024C23.2146 63.808 23.2047 64.0911 23.1751 63.9968C23.1454 63.9118 23.1454 63.5532 23.1454 63.3645C23.1553 63.1852 23.1553 63.0719 23.1949 62.9209C23.2443 62.7699 23.3531 62.5057 23.4322 62.4679C23.5212 62.4396 23.6003 62.6378 23.6991 62.7133M24.0749 62.383C24.1836 62.4585 23.5508 63.1757 23.6101 63.3173C23.6596 63.4588 24.2627 63.204 24.3913 63.2418C24.5198 63.2795 24.4111 63.4872 24.3715 63.5721C24.332 63.657 24.2627 63.6665 24.1441 63.7514C24.0353 63.8363 23.887 64.0911 23.6695 64.0911C23.4519 64.0911 22.9378 63.8552 22.8191 63.7514C22.7104 63.657 22.8488 63.6948 22.9872 63.506C23.1355 63.3267 23.6596 62.8077 23.6794 62.6472C23.709 62.4868 23.1553 62.5623 23.1652 62.5246C23.1751 62.4962 23.6398 62.3264 23.7288 62.4396" stroke="white" stroke-width="0.5" stroke-linecap="round"/>
<path fill-rule="evenodd" clip-rule="evenodd" d="M25.7148 62.9466C25.5338 63.0283 22.8466 64.3367 22.5034 64.4891C22.1602 64.6414 23.518 64.2986 23.6379 63.881C23.7578 63.4634 23.3293 62.3819 23.2227 61.9835" fill="white"/>
<path d="M24.7854 63.5183C24.6839 63.7069 24.1915 64.6015 23.9274 64.6429C23.6632 64.6843 23.2858 64.0436 23.2004 63.7667C23.115 63.4897 23.4281 63.122 23.415 62.981M24.468 63.3084C24.3165 63.3876 23.8649 64.0797 23.648 64.2024C23.4303 64.3156 23.3399 64.3043 23.1551 64.0263C22.9695 63.7389 22.5983 62.6335 22.5458 62.4958" stroke="#1E1E1E" stroke-width="0.5" stroke-linecap="round"/>
<path fill-rule="evenodd" clip-rule="evenodd" d="M25.6391 63.1161C25.4715 63.0288 22.6228 63.2293 22.32 63.1824C22.0075 63.1344 23.6123 62.9898 23.786 62.8114" fill="white"/>
<path d="M24.4362 63.6052C24.3236 63.5533 24.1323 63.2728 23.9535 63.1936C23.7638 63.1226 23.4705 63.1531 23.3247 63.1256M24.0766 63.3896C23.9307 63.3621 23.9161 63.6172 23.794 63.488C23.6622 63.3575 23.4193 62.7947 23.333 62.6223" stroke="#1E1E1E" stroke-width="0.5" stroke-linecap="round"/>
<path d="M21.4306 66.6997C21.4207 66.7469 21.4207 67.2282 21.3811 67.2282C21.3416 67.2282 21.2032 66.7092 21.1735 66.6997C21.1537 66.6997 21.2427 67.1527 21.2427 67.2282C21.2526 67.2943 21.2328 67.1622 21.1933 67.1338C21.1438 67.115 21.0351 67.1622 20.9757 67.0961C20.9065 67.03 20.7978 66.7564 20.8175 66.7186C20.8274 66.6903 20.956 66.8507 21.0647 66.8979C21.1735 66.9451 21.4701 67.0583 21.4504 67.0112C21.4405 66.9734 21.045 66.6242 20.9757 66.662C20.9065 66.6997 21.045 67.2188 21.0351 67.2188M21.4207 66.662C21.4405 66.6054 21.4998 66.4732 21.4899 66.5015C21.4899 66.5299 21.4998 66.7752 21.391 66.8319C21.2823 66.8885 20.8868 66.7847 20.8274 66.8319C20.778 66.879 20.9362 67.1244 21.0548 67.1055C21.1735 67.0867 21.6185 66.7658 21.5492 66.7092C21.4899 66.6525 20.7285 66.7941 20.6791 66.7847C20.6198 66.7658 21.1438 66.5299 21.2328 66.6242C21.3218 66.7092 21.1933 67.2754 21.2328 67.3131C21.2724 67.3509 21.48 66.9828 21.4602 66.8507C21.4504 66.7186 21.2724 66.4827 21.1537 66.5299" stroke="#1E1E1E" stroke-width="0.5" stroke-linecap="round"/>
<path d="M19.2739 70.4488C19.2245 70.6281 19.0267 70.9301 18.9081 71.0056M19.0168 70.3073C18.8982 70.4111 18.6213 70.5243 18.6708 70.5337" stroke="#1E1E1E" stroke-width="0.5" stroke-linecap="round"/>
<path fill-rule="evenodd" clip-rule="evenodd" d="M18.7879 68.7423C18.6594 68.7801 18.1057 69.0443 18.1452 69.5162C18.1946 69.988 18.956 71.5829 19.0846 71.5829C19.2032 71.5924 19.1933 69.8559 18.9066 69.5539" fill="white"/>
<path d="M18.778 70.1862C18.8175 70.1202 19.1142 69.8465 19.2724 69.8559C19.4405 69.8748 19.9447 70.1862 19.7668 70.2806C19.5888 70.3844 18.4022 70.441 18.2341 70.4693M18.3825 70.0069C18.511 69.988 19.7173 69.2425 19.9348 69.3369C20.1524 69.4407 20.0041 70.3561 19.7074 70.6015C19.4009 70.8374 18.3429 70.7808 18.1353 70.7713" stroke="#1E1E1E" stroke-width="0.5" stroke-linecap="round"/>
<path fill-rule="evenodd" clip-rule="evenodd" d="M19.4517 70.4941C19.4023 70.7678 20.2328 71.2302 20.5888 71.1169C20.9448 71.0037 21.6468 70.1543 21.5875 69.8146C21.5282 69.4749 20.045 69.2767 20.2328 69.0785" fill="white"/>
<path d="M20.5789 70.8433C20.6382 70.6545 21.2216 69.8335 21.2809 69.8241C21.3402 69.8052 20.8656 70.7395 20.915 70.73C20.9645 70.7206 21.4885 69.9467 21.5775 69.758M21.093 70.6168C21.1326 70.4658 21.0831 70.1166 21.1622 70.1921C21.2413 70.2676 21.4885 71.1075 21.5775 71.0886C21.6764 71.0603 21.8346 70.2959 21.7456 70.0505" stroke="#1E1E1E" stroke-width="0.5" stroke-linecap="round"/>
<path fill-rule="evenodd" clip-rule="evenodd" d="M22.0874 71.0058C22.2654 70.9303 22.295 69.3071 22.1368 69.1089C21.9786 68.9108 21.0195 69.7412 21.148 69.8356C21.2667 69.9205 22.9674 69.2882 22.8784 69.628" fill="white"/>
<path d="M22.7794 69.7035C22.6509 69.7224 21.5138 69.8923 21.4643 70.0244C21.4149 70.1565 22.463 70.4113 22.5026 70.5057C22.5322 70.6 21.8005 70.5812 21.6522 70.5717M22.5125 69.3638C22.5125 69.4204 22.0972 70.1942 22.0774 70.4396C22.0576 70.6944 22.4235 70.8077 22.374 70.8643C22.3147 70.9209 21.9488 70.8643 21.7511 70.7888" stroke="#1E1E1E" stroke-width="0.5" stroke-linecap="round"/>
<path fill-rule="evenodd" clip-rule="evenodd" d="M23.5777 68.8715C23.3601 68.6072 21.432 69.3056 21.5704 69.4188C21.7188 69.5321 24.4676 69.1263 24.4379 69.5509C24.4181 69.9851 21.6594 71.8064 21.4122 71.9857" fill="white"/>
<path d="M22.9053 69.7868C22.7965 69.8529 22.8756 69.9756 22.9251 70.0982C22.9745 70.2115 23.3008 70.4285 23.2118 70.4946C23.1228 70.5701 22.6086 70.4757 22.4109 70.5229M23.37 69.4943C23.2118 69.6169 22.8064 70.2964 22.7471 70.5135C22.6877 70.7211 23.0635 70.74 23.0239 70.7683C22.9745 70.7966 22.579 70.655 22.49 70.6645" stroke="#1E1E1E" stroke-width="0.5" stroke-linecap="round"/>
<path fill-rule="evenodd" clip-rule="evenodd" d="M20.1109 69.7357C20.0417 69.2638 18.7168 69.0751 18.9837 69.0373C19.2507 68.9996 21.6337 69.0656 21.7128 69.528" fill="white"/>
<path d="M19.9627 70.6416C20.0912 70.4528 20.1307 69.5941 20.2098 69.5469C20.289 69.4997 20.4669 70.1697 20.4472 70.3396M19.6364 70.3396C19.755 70.198 19.8638 69.8394 19.9627 69.8772C20.0615 69.9149 20.2395 70.3773 20.2395 70.5472" stroke="#1E1E1E" stroke-width="0.5" stroke-linecap="round"/>
<path d="M19.932 70.2535C19.9913 70.1591 20.4264 69.876 20.4561 69.8477M19.5365 70.8858C19.5365 70.8198 19.9913 70.1875 20.1891 70.112" stroke="#1E1E1E" stroke-width="0.5" stroke-linecap="round"/>
<path fill-rule="evenodd" clip-rule="evenodd" d="M24.8464 69.6044C24.9453 69.7554 22.9875 70.7557 23.0072 70.9256C23.0171 71.0955 24.619 70.7746 24.9453 70.633" fill="white"/>
<path d="M23.5807 70.4254C23.5807 70.2838 23.5214 69.5949 23.6301 69.7176C23.7389 69.8402 24.1146 71.001 24.2432 71.1426M23.1654 70.9916C23.2643 70.9161 24.1048 70.1705 24.2333 70.1139C24.3717 70.0573 23.9169 70.5386 23.9762 70.6518" stroke="#1E1E1E" stroke-width="0.5" stroke-linecap="round"/>
<path d="M23.3098 70.2944C23.3889 70.3793 23.9723 70.587 24.1503 70.5398M23.7745 69.983C23.7943 70.0018 23.7548 70.0585 23.824 70.1057" stroke="#1E1E1E" stroke-width="0.5" stroke-linecap="round"/>
</svg>
