<svg width="82" height="120" viewBox="0 0 82 120" fill="none" xmlns="http://www.w3.org/2000/svg">
<path d="M22.2934 2.0153C31.5083 4.66724 38.2143 0.313872 60.398 2.0153C72.1878 1.67311 81.2329 8.79248 79.4503 21.2157C81.3367 39.8174 83.5531 54.1797 79.4503 98.7304C80.9877 114.509 71.6879 118.378 60.398 117.931C45.9579 116.743 37.7993 115.089 22.2934 117.931C9.24917 116.134 4.46723 108.302 3.24109 98.7304C0.00596899 78.5509 -0.116645 57.4114 3.24109 21.2157C5.34439 7.75642 9.4661 1.06478 22.2934 2.0153Z" fill="white"/>
<path d="M22.2934 2.01525C33.1872 0.551456 40.6666 0.988694 60.398 2.01525M22.2934 2.01525C34.187 1.47346 46.354 2.07228 60.398 2.01525M22.2934 2.01525C7.75899 3.44103 2.78841 8.83046 3.24114 21.2157M22.2934 2.01525C9.91888 2.41447 1.76034 7.57578 3.24114 21.2157M60.398 2.01525C72.0652 2.68061 80.0163 9.52434 79.4503 21.2157M60.398 2.01525C73.0839 3.5741 80.1766 10.4749 79.4503 21.2157M79.4503 21.2157C78.045 49.9879 78.4128 76.7639 79.4503 98.7304M79.4503 21.2157C79.9502 49.7502 78.9693 76.6879 79.4503 98.7304M79.4503 98.7304C79.0919 112.503 72.4896 119.157 60.398 117.931M79.4503 98.7304C78.4694 110.203 74.4232 116.933 60.398 117.931M60.398 117.931C50.9662 117.608 46.7219 116.933 22.2934 117.931M60.398 117.931C50.4946 117.37 39.516 118.416 22.2934 117.931M22.2934 117.931C9.06058 116.543 2.31682 112.123 3.24114 98.7304M22.2934 117.931C8.88138 118.235 3.18455 111.363 3.24114 98.7304M3.24114 98.7304C1.56228 69.1883 1.38307 39.7223 3.24114 21.2157M3.24114 98.7304C3.86364 72.9143 2.78841 44.817 3.24114 21.2157" stroke="#1E1E1E" stroke-width="2" stroke-linecap="round"/>
<path d="M11.5555 85.8723C21.9211 85.8723 63.4023 85.8723 73.7679 85.8723" stroke="#1E1E1E" stroke-width="2" stroke-linecap="round"/>
<path d="M23.5455 1.90765C37.0519 1.90765 50.5677 1.90765 57.868 1.90765C60.2071 1.90765 61.386 3.0863 61.386 5.45308C61.386 8.08602 61.386 10.7189 61.386 12.5344C61.386 14.8917 60.2071 16.0704 57.868 16.0704C48.2381 16.0704 38.5987 16.0704 23.5455 16.0704C21.197 16.0704 20.0275 14.8917 20.0275 12.5344C20.0275 10.1581 20.0275 7.78185 20.0275 5.45308C20.0275 3.0863 21.197 1.90765 23.5455 1.90765Z" fill="white"/>
<path d="M23.5455 1.90765C31.44 1.90765 39.3344 1.90765 57.868 1.90765M23.5455 1.90765C31.6852 1.90765 39.8343 1.90765 57.868 1.90765M23.5455 1.90765C21.197 1.90765 20.0275 3.0863 20.0275 5.45308M57.868 1.90765C60.2071 1.90765 61.386 3.0863 61.386 5.45308M61.386 5.45308C61.386 8.04799 61.386 10.6429 61.386 12.5344M61.386 5.45308C61.386 8.11453 61.386 10.7855 61.386 12.5344M61.386 12.5344C61.386 14.8917 60.2071 16.0704 57.868 16.0704M57.868 16.0704C48.6153 16.0704 39.3627 16.0704 23.5455 16.0704M57.868 16.0704C48.2475 16.0704 38.627 16.0704 23.5455 16.0704M23.5455 16.0704C21.197 16.0704 20.0275 14.8917 20.0275 12.5344M20.0275 12.5344C20.0275 10.6619 20.0275 8.7989 20.0275 5.45308M20.0275 12.5344C20.0275 9.86348 20.0275 7.19253 20.0275 5.45308" stroke="#1E1E1E" stroke-width="2" stroke-linecap="round"/>
<path d="M23.4706 9.47864C23.4152 9.47864 23.3729 9.45097 23.3436 9.39563C23.3176 9.34029 23.3046 9.26217 23.3046 9.16125C23.3046 9.14498 23.3046 9.12708 23.3046 9.10754C23.3046 9.08476 23.3078 9.04244 23.3143 8.98059C23.3241 8.74622 23.4397 8.6095 23.661 8.57043L23.7733 8.56067C23.8482 8.5509 23.9068 8.52812 23.9491 8.49231C23.9914 8.45325 24.0223 8.39954 24.0419 8.33118C24.0972 8.14563 24.1525 7.95846 24.2079 7.76965C24.2632 7.58085 24.3218 7.39368 24.3837 7.20813C24.4162 7.10396 24.4488 6.99329 24.4813 6.8761C24.5171 6.75566 24.5546 6.63684 24.5936 6.51965C24.6359 6.40247 24.6831 6.28691 24.7352 6.17297C24.7906 6.05904 24.8524 5.95487 24.9208 5.86047C24.9501 5.82141 24.9908 5.78072 25.0428 5.7384C25.0949 5.69609 25.1535 5.65865 25.2186 5.6261C25.287 5.59029 25.3586 5.56262 25.4335 5.54309C25.5116 5.5203 25.5881 5.50891 25.663 5.50891C25.7606 5.50891 25.8566 5.53984 25.951 5.60168C26.078 5.68958 26.2033 5.79537 26.327 5.91907C26.4507 6.04277 26.5891 6.20064 26.7421 6.3927C26.8951 6.58476 27.0725 6.8175 27.2743 7.09094C27.4761 7.36112 27.7186 7.68827 28.0018 8.07239C28.0441 8.12122 28.0881 8.15865 28.1337 8.18469C28.1825 8.20748 28.2395 8.21887 28.3046 8.21887H28.5829C28.6968 8.21887 28.7847 8.24654 28.8466 8.30188C28.9117 8.35396 28.9442 8.42721 28.9442 8.52161C28.9442 8.54114 28.9426 8.56392 28.9393 8.58997C28.9393 8.61601 28.9344 8.64205 28.9247 8.66809L28.8319 8.94153C28.8254 8.96757 28.8205 8.99036 28.8173 9.00989C28.814 9.02942 28.8124 9.04895 28.8124 9.06848C28.8124 9.13684 28.8352 9.20683 28.8807 9.27844L29.4032 9.99133C29.4618 10.0792 29.4911 10.1622 29.4911 10.2404C29.4911 10.3575 29.4244 10.4601 29.2909 10.548L29.1053 10.6798C29.0598 10.7091 29.0158 10.7319 28.9735 10.7482C28.9344 10.7644 28.8938 10.7726 28.8514 10.7726C28.7928 10.7726 28.7375 10.7547 28.6854 10.7189C28.6366 10.6863 28.5894 10.6407 28.5438 10.5822C28.3876 10.3608 28.2297 10.1427 28.0702 9.92786C27.9139 9.71301 27.7544 9.4998 27.5917 9.28821C27.5168 9.18404 27.4175 9.13196 27.2938 9.13196C26.8967 9.14823 26.5028 9.17102 26.1122 9.20032C25.7248 9.22636 25.3358 9.25891 24.9452 9.29797C24.8052 9.31099 24.7173 9.38586 24.6815 9.52258L24.4618 10.3282C24.4032 10.5431 24.273 10.6505 24.0712 10.6505H23.993L23.8417 10.631C23.731 10.6212 23.6464 10.587 23.5878 10.5284C23.5324 10.4698 23.5048 10.3934 23.5048 10.299C23.5048 10.2794 23.5064 10.2583 23.5096 10.2355C23.5129 10.2127 23.5178 10.1883 23.5243 10.1622C23.5406 10.0971 23.5568 10.0304 23.5731 9.96204C23.5927 9.89368 23.6122 9.82694 23.6317 9.76184C23.6382 9.7358 23.6431 9.71301 23.6464 9.69348C23.6496 9.67069 23.6512 9.64954 23.6512 9.63C23.6512 9.52909 23.6122 9.47864 23.5341 9.47864H23.4706ZM25.7948 6.90051C25.7622 6.87122 25.733 6.8468 25.7069 6.82727C25.6809 6.80774 25.6532 6.79797 25.6239 6.79797C25.5425 6.79797 25.4856 6.85494 25.453 6.96887C25.3879 7.16093 25.3244 7.35136 25.2626 7.54016C25.204 7.72571 25.1438 7.91614 25.0819 8.11145C25.0754 8.12773 25.0721 8.14237 25.0721 8.1554C25.0721 8.16842 25.0721 8.18306 25.0721 8.19934C25.0721 8.31978 25.1356 8.38 25.2626 8.38H25.3114C25.5067 8.35396 25.702 8.33443 25.8973 8.32141C26.0927 8.30514 26.288 8.29211 26.4833 8.28235C26.5484 8.27584 26.5988 8.25956 26.6346 8.23352C26.6737 8.20422 26.6932 8.16679 26.6932 8.12122C26.6932 8.0789 26.6737 8.02844 26.6346 7.96985C26.4979 7.78756 26.3596 7.60852 26.2196 7.43274C26.0829 7.2537 25.9413 7.07629 25.7948 6.90051ZM32.1132 6.79797C31.9927 6.79797 31.8869 6.83053 31.7958 6.89563C31.7046 6.95748 31.6265 7.04537 31.5614 7.1593C31.4963 7.26998 31.4426 7.40181 31.4003 7.55481C31.358 7.70455 31.3238 7.86894 31.2977 8.04797C31.2717 8.22701 31.2538 8.41418 31.244 8.6095C31.2343 8.80481 31.2294 9.00175 31.2294 9.20032C31.2294 9.46073 31.2391 9.7179 31.2587 9.9718C31.2815 10.2225 31.2928 10.4552 31.2928 10.67C31.2928 10.81 31.2408 10.9191 31.1366 10.9972C31.0324 11.0786 30.8843 11.1193 30.6923 11.1193C30.6565 11.1193 30.6158 11.116 30.5702 11.1095C30.5246 11.103 30.4807 11.09 30.4384 11.0704C30.3993 11.0509 30.3635 11.0232 30.3309 10.9874C30.3016 10.9549 30.2854 10.9093 30.2821 10.8507C30.2528 10.5642 30.2105 10.2713 30.1552 9.9718C30.0998 9.67232 30.0298 9.37447 29.9452 9.07825C29.8638 8.77877 29.7645 8.48254 29.6473 8.18958C29.5334 7.89661 29.4016 7.61015 29.2518 7.3302C29.2258 7.28137 29.203 7.2358 29.1835 7.19348C29.1672 7.15116 29.1591 7.11047 29.1591 7.07141C29.1591 7.02258 29.1802 6.9705 29.2225 6.91516C29.2681 6.85657 29.3234 6.80286 29.3885 6.75403C29.4569 6.7052 29.5302 6.66614 29.6083 6.63684C29.6897 6.60429 29.7678 6.58801 29.8427 6.58801C29.9663 6.58801 30.0754 6.67428 30.1698 6.8468C30.2642 7.01607 30.3521 7.28788 30.4335 7.66223C30.4497 7.72734 30.4628 7.77291 30.4725 7.79895C30.4823 7.82499 30.4953 7.83801 30.5116 7.83801C30.5474 7.83801 30.5702 7.78267 30.58 7.672C30.619 7.36275 30.6858 7.09745 30.7802 6.8761C30.8746 6.65149 30.9917 6.46757 31.1317 6.32434C31.2749 6.17786 31.4377 6.07043 31.62 6.00208C31.8055 5.93372 32.009 5.89954 32.2303 5.89954C32.3573 5.89954 32.4859 5.91093 32.6161 5.93372C32.7463 5.9565 32.8635 5.99068 32.9677 6.03625C33.0718 6.08183 33.1565 6.13717 33.2216 6.20227C33.2867 6.26737 33.3192 6.34062 33.3192 6.422C33.3192 6.48059 33.3062 6.55058 33.2802 6.63196C33.2574 6.71008 33.2264 6.78658 33.1874 6.86145C33.1483 6.93306 33.1027 6.99491 33.0507 7.047C33.0018 7.09583 32.9514 7.12024 32.8993 7.12024C32.8407 7.12024 32.7837 7.10396 32.7284 7.07141C32.6731 7.0356 32.6128 6.99817 32.5477 6.95911C32.4859 6.92004 32.4191 6.88424 32.3475 6.85168C32.2792 6.81588 32.201 6.79797 32.1132 6.79797ZM35.6239 6.68079C35.6337 6.58964 35.6451 6.51477 35.6581 6.45618C35.6744 6.39433 35.6971 6.3455 35.7264 6.30969C35.759 6.27063 35.7997 6.24296 35.8485 6.22668C35.8973 6.21041 35.9592 6.20227 36.0341 6.20227C36.2717 6.20227 36.4458 6.23808 36.5565 6.30969C36.6705 6.37805 36.7274 6.48873 36.7274 6.64172C36.7274 6.67102 36.7209 6.73612 36.7079 6.83704C36.6981 6.93469 36.6835 7.05676 36.6639 7.20325C36.6444 7.34648 36.6216 7.50598 36.5956 7.68176C36.5728 7.85429 36.55 8.03007 36.5272 8.20911C36.4686 8.62577 36.4019 9.0929 36.327 9.61047C36.2815 9.91646 36.1903 10.1362 36.0536 10.2697C35.9201 10.4031 35.7216 10.4698 35.4579 10.4698C35.2593 10.4698 35.0542 10.4194 34.8427 10.3185C34.6311 10.2176 34.426 10.0809 34.2274 9.90833C34.0288 9.7358 33.84 9.5356 33.661 9.30774C33.4852 9.07662 33.3306 8.83248 33.1971 8.57532C33.0637 8.3149 32.9579 8.0496 32.8798 7.77942C32.8049 7.50924 32.7675 7.24556 32.7675 6.9884C32.7675 6.69869 32.8081 6.48222 32.8895 6.33899C32.9742 6.1925 33.119 6.11926 33.3241 6.11926C33.4673 6.11926 33.5861 6.12903 33.6805 6.14856C33.7749 6.16484 33.8498 6.19576 33.9052 6.24133C33.9637 6.28365 34.0044 6.34062 34.0272 6.41223C34.0533 6.48385 34.0663 6.57336 34.0663 6.68079C34.0663 6.7524 34.063 6.82402 34.0565 6.89563C34.05 6.96724 34.0468 7.03886 34.0468 7.11047C34.0468 7.27649 34.063 7.45064 34.0956 7.63293C34.1314 7.81197 34.1786 7.98775 34.2372 8.16028C34.2958 8.3328 34.3641 8.49719 34.4423 8.65344C34.5204 8.80644 34.6034 8.94153 34.6913 9.05872C34.7792 9.1759 34.8671 9.26868 34.955 9.33704C35.0461 9.4054 35.134 9.43958 35.2186 9.43958C35.2772 9.43958 35.3212 9.42004 35.3505 9.38098C35.383 9.34192 35.4042 9.27519 35.4139 9.18079L35.6239 6.68079ZM37.4891 8.82922C37.4891 8.77389 37.4956 8.71204 37.5087 8.64368C37.5217 8.57532 37.5282 8.50045 37.5282 8.41907C37.5282 8.36373 37.5038 8.32141 37.455 8.29211C37.4094 8.26282 37.3573 8.23027 37.2987 8.19446C37.2401 8.15865 37.1864 8.11308 37.1376 8.05774C37.092 8.0024 37.0692 7.92265 37.0692 7.81848C37.0692 7.74361 37.0887 7.66874 37.1278 7.59387C37.1701 7.519 37.2303 7.45064 37.3085 7.38879C37.5005 7.24556 37.6991 7.11698 37.9042 7.00305C38.1125 6.88912 38.3192 6.79309 38.5243 6.71497C38.7326 6.63684 38.9377 6.57662 39.1395 6.5343C39.3413 6.49198 39.535 6.47083 39.7206 6.47083C40.0331 6.47083 40.326 6.52942 40.5995 6.64661C40.8762 6.76054 41.1154 6.91842 41.3173 7.12024C41.5223 7.31881 41.6835 7.55318 41.8007 7.82336C41.9211 8.09029 41.9813 8.37675 41.9813 8.68274C41.9813 8.98222 41.9178 9.26705 41.7909 9.53723C41.6672 9.80416 41.4996 10.0385 41.288 10.2404C41.0764 10.4422 40.8274 10.6017 40.5409 10.7189C40.2577 10.8393 39.9582 10.8995 39.6425 10.8995C39.3332 10.8995 39.0468 10.8475 38.7831 10.7433C38.5194 10.6391 38.2915 10.4959 38.0995 10.3136C37.9074 10.1281 37.7577 9.90995 37.6503 9.6593C37.5428 9.4054 37.4891 9.1287 37.4891 8.82922ZM39.7499 10.0206C39.8866 10.0206 40.0282 9.99296 40.1747 9.93762C40.3212 9.88228 40.4546 9.80253 40.5751 9.69836C40.6988 9.59094 40.7997 9.46073 40.8778 9.30774C40.9592 9.15474 40.9999 8.98222 40.9999 8.79016C40.9999 8.59485 40.9641 8.41256 40.8925 8.24329C40.8208 8.07402 40.7216 7.92753 40.5946 7.80383C40.4709 7.67688 40.3228 7.5776 40.1503 7.50598C39.981 7.43437 39.7971 7.39856 39.5985 7.39856C39.2372 7.39856 38.9605 7.49296 38.7684 7.68176C38.5764 7.86731 38.4803 8.15377 38.4803 8.54114C38.4803 8.75273 38.5113 8.94967 38.5731 9.13196C38.6382 9.31099 38.7277 9.46724 38.8417 9.60071C38.9556 9.73092 39.0891 9.83346 39.2421 9.90833C39.3983 9.98319 39.5676 10.0206 39.7499 10.0206ZM45.2675 6.79797C45.147 6.79797 45.0412 6.83053 44.9501 6.89563C44.8589 6.95748 44.7808 7.04537 44.7157 7.1593C44.6506 7.26998 44.5969 7.40181 44.5546 7.55481C44.5122 7.70455 44.4781 7.86894 44.452 8.04797C44.426 8.22701 44.4081 8.41418 44.3983 8.6095C44.3885 8.80481 44.3837 9.00175 44.3837 9.20032C44.3837 9.46073 44.3934 9.7179 44.413 9.9718C44.4358 10.2225 44.4471 10.4552 44.4471 10.67C44.4471 10.81 44.3951 10.9191 44.2909 10.9972C44.1867 11.0786 44.0386 11.1193 43.8466 11.1193C43.8108 11.1193 43.7701 11.116 43.7245 11.1095C43.6789 11.103 43.635 11.09 43.5927 11.0704C43.5536 11.0509 43.5178 11.0232 43.4852 10.9874C43.4559 10.9549 43.4397 10.9093 43.4364 10.8507C43.4071 10.5642 43.3648 10.2713 43.3094 9.9718C43.2541 9.67232 43.1841 9.37447 43.0995 9.07825C43.0181 8.77877 42.9188 8.48254 42.8016 8.18958C42.6877 7.89661 42.5559 7.61015 42.4061 7.3302C42.3801 7.28137 42.3573 7.2358 42.3378 7.19348C42.3215 7.15116 42.3134 7.11047 42.3134 7.07141C42.3134 7.02258 42.3345 6.9705 42.3768 6.91516C42.4224 6.85657 42.4777 6.80286 42.5428 6.75403C42.6112 6.7052 42.6844 6.66614 42.7626 6.63684C42.844 6.60429 42.9221 6.58801 42.9969 6.58801C43.1206 6.58801 43.2297 6.67428 43.3241 6.8468C43.4185 7.01607 43.5064 7.28788 43.5878 7.66223C43.604 7.72734 43.6171 7.77291 43.6268 7.79895C43.6366 7.82499 43.6496 7.83801 43.6659 7.83801C43.7017 7.83801 43.7245 7.78267 43.7343 7.672C43.7733 7.36275 43.84 7.09745 43.9344 6.8761C44.0288 6.65149 44.146 6.46757 44.286 6.32434C44.4292 6.17786 44.592 6.07043 44.7743 6.00208C44.9598 5.93372 45.1633 5.89954 45.3846 5.89954C45.5116 5.89954 45.6402 5.91093 45.7704 5.93372C45.9006 5.9565 46.0178 5.99068 46.1219 6.03625C46.2261 6.08183 46.3108 6.13717 46.3759 6.20227C46.441 6.26737 46.4735 6.34062 46.4735 6.422C46.4735 6.48059 46.4605 6.55058 46.4344 6.63196C46.4117 6.71008 46.3807 6.78658 46.3417 6.86145C46.3026 6.93306 46.257 6.99491 46.205 7.047C46.1561 7.09583 46.1057 7.12024 46.0536 7.12024C45.995 7.12024 45.938 7.10396 45.8827 7.07141C45.8274 7.0356 45.7671 6.99817 45.702 6.95911C45.6402 6.92004 45.5734 6.88424 45.5018 6.85168C45.4335 6.81588 45.3553 6.79797 45.2675 6.79797ZM50.3212 9.38098C50.4156 9.2996 50.5083 9.25891 50.5995 9.25891C50.6516 9.25891 50.6988 9.27193 50.7411 9.29797C50.7834 9.32402 50.8306 9.36471 50.8827 9.42004C50.9315 9.49491 50.9657 9.55676 50.9852 9.60559C51.008 9.65116 51.0194 9.69674 51.0194 9.74231C51.0194 9.83997 50.9706 9.93274 50.8729 10.0206C50.7167 10.1508 50.5474 10.268 50.3651 10.3722C50.1828 10.4731 49.9924 10.5594 49.7938 10.631C49.5953 10.7026 49.3902 10.7563 49.1786 10.7921C48.967 10.8312 48.757 10.8507 48.5487 10.8507C48.285 10.8507 48.0376 10.8165 47.8065 10.7482C47.5754 10.6831 47.3687 10.5887 47.1864 10.465C47.0074 10.3413 46.856 10.1932 46.7323 10.0206C46.6086 9.84485 46.5207 9.64791 46.4686 9.42981C46.4393 9.33866 46.4117 9.28007 46.3856 9.25403C46.3628 9.22473 46.3238 9.21008 46.2684 9.21008C46.148 9.21008 46.0552 9.18079 45.9901 9.12219C45.925 9.0636 45.8925 8.97896 45.8925 8.86829C45.8925 8.82271 45.8957 8.79342 45.9022 8.7804L45.912 8.68274C45.9283 8.56555 45.9592 8.48092 46.0048 8.42883C46.0536 8.37675 46.1285 8.35071 46.2294 8.35071H46.3026C46.4393 8.35071 46.5354 8.28723 46.5907 8.16028C46.6916 7.93567 46.8202 7.73059 46.9764 7.54504C47.1327 7.3595 47.3085 7.20162 47.5038 7.07141C47.6991 6.93795 47.9074 6.83541 48.1288 6.76379C48.3534 6.68892 48.5813 6.65149 48.8124 6.65149C49.0533 6.65149 49.2779 6.6873 49.4862 6.75891C49.6978 6.82727 49.8817 6.9233 50.038 7.047C50.1942 7.17069 50.3163 7.31555 50.4042 7.48157C50.4953 7.64758 50.5409 7.82662 50.5409 8.01868C50.5409 8.15214 50.5149 8.27421 50.4628 8.38489C50.4107 8.49556 50.3358 8.59322 50.2382 8.67786C50.1405 8.75924 50.0217 8.82597 49.8817 8.87805C49.745 8.93014 49.5887 8.96431 49.413 8.98059L47.7186 9.15149C47.6535 9.15149 47.5998 9.16777 47.5575 9.20032C47.5184 9.23287 47.4989 9.27681 47.4989 9.33215C47.4989 9.41679 47.5298 9.49817 47.5917 9.57629C47.6568 9.65442 47.7414 9.72441 47.8456 9.78625C47.953 9.84485 48.0751 9.89205 48.2118 9.92786C48.3518 9.96366 48.495 9.98157 48.6415 9.98157C48.7815 9.98157 48.9247 9.96855 49.0712 9.9425C49.2209 9.91321 49.3674 9.87252 49.5106 9.82043C49.6571 9.76835 49.7987 9.7065 49.9354 9.63489C50.0721 9.56002 50.2007 9.47538 50.3212 9.38098ZM49.2323 8.12122C49.2811 8.11145 49.3234 8.08866 49.3593 8.05286C49.3951 8.01379 49.413 7.96659 49.413 7.91125C49.413 7.86243 49.3951 7.81685 49.3593 7.77454C49.3234 7.73222 49.2746 7.69478 49.2128 7.66223C49.1509 7.62642 49.0793 7.59875 48.9979 7.57922C48.9165 7.55969 48.8303 7.54993 48.7391 7.54993C48.6057 7.54993 48.469 7.56946 48.329 7.60852C48.189 7.64758 48.0621 7.69967 47.9481 7.76477C47.8342 7.82662 47.7414 7.89661 47.6698 7.97473C47.5982 8.0496 47.5624 8.12447 47.5624 8.19934C47.5624 8.27421 47.608 8.31165 47.6991 8.31165C47.7544 8.31165 47.844 8.30514 47.9677 8.29211C48.0913 8.27909 48.2281 8.26444 48.3778 8.24817C48.5275 8.22864 48.6789 8.20748 48.8319 8.18469C48.9849 8.16191 49.1184 8.14075 49.2323 8.12122ZM24.1835 22.88C24.1314 22.281 24.063 21.6886 23.9784 21.1027C23.897 20.5167 23.7977 19.9259 23.6805 19.3302C23.6708 19.2911 23.6578 19.2602 23.6415 19.2374C23.6285 19.2114 23.6089 19.1984 23.5829 19.1984C23.5634 19.1984 23.5406 19.2 23.5145 19.2032C23.4917 19.2065 23.4673 19.2081 23.4413 19.2081C23.3176 19.2081 23.2216 19.1772 23.1532 19.1154C23.0848 19.0535 23.0507 18.9754 23.0507 18.881C23.0507 18.7736 23.0946 18.6694 23.1825 18.5685C23.2736 18.4676 23.3925 18.3732 23.5389 18.2853C23.6854 18.1941 23.8531 18.1111 24.0419 18.0363C24.2307 17.9614 24.4244 17.8979 24.6229 17.8458C24.8247 17.7905 25.0233 17.7482 25.2186 17.7189C25.4139 17.6863 25.5913 17.67 25.7509 17.67C26.0406 17.67 26.2896 17.7059 26.4979 17.7775C26.7095 17.8491 26.882 17.9435 27.0155 18.0607C27.1522 18.1779 27.2515 18.3129 27.3134 18.4659C27.3785 18.6189 27.411 18.7768 27.411 18.9396C27.411 19.1023 27.3752 19.2814 27.3036 19.4767C27.2352 19.6687 27.118 19.8527 26.952 20.0284C26.9325 20.0512 26.9195 20.0708 26.913 20.087C26.9065 20.1001 26.9032 20.1147 26.9032 20.131C26.9032 20.1603 26.9358 20.1798 27.0009 20.1896C27.1897 20.2059 27.3719 20.2514 27.5477 20.3263C27.7268 20.4012 27.883 20.4988 28.0165 20.6193C28.1499 20.7365 28.2574 20.8748 28.3387 21.0343C28.4201 21.1938 28.4608 21.3631 28.4608 21.5421C28.4608 21.7928 28.412 22.0125 28.3143 22.2013C28.2199 22.3868 28.0881 22.5415 27.9188 22.6652C27.7496 22.7889 27.5477 22.88 27.3134 22.9386C27.0822 23.0004 26.8316 23.0314 26.5614 23.0314C26.3498 23.0314 26.1366 23.0118 25.9218 22.9728C25.7102 22.937 25.5035 22.8898 25.3016 22.8312C25.2886 22.8247 25.2691 22.8214 25.243 22.8214C25.1877 22.8214 25.1438 22.854 25.1112 22.9191C25.0559 23.0297 24.9761 23.116 24.8719 23.1779C24.771 23.2397 24.6685 23.2706 24.5643 23.2706C24.4699 23.2706 24.3869 23.2397 24.3153 23.1779C24.2437 23.1193 24.1997 23.02 24.1835 22.88ZM25.1307 21.0197C25.0591 21.0457 25.0233 21.0962 25.0233 21.171C25.0233 21.1808 25.0266 21.2166 25.0331 21.2784C25.0428 21.3403 25.0542 21.407 25.0673 21.4786C25.0803 21.5633 25.0949 21.6544 25.1112 21.7521C25.121 21.8367 25.1649 21.8888 25.243 21.9083C25.344 21.9376 25.4546 21.9685 25.5751 22.0011C25.6955 22.0304 25.8208 22.0581 25.951 22.0841C26.0813 22.1101 26.2131 22.1313 26.3466 22.1476C26.48 22.1639 26.6086 22.172 26.7323 22.172C26.8267 22.172 26.9178 22.1622 27.0057 22.1427C27.0936 22.1199 27.1718 22.0857 27.2401 22.0402C27.3085 21.9946 27.3622 21.9376 27.4012 21.8693C27.4436 21.7976 27.4647 21.7114 27.4647 21.6105C27.4647 21.464 27.424 21.3403 27.3427 21.2394C27.2613 21.1385 27.1587 21.0571 27.035 20.9952C26.9113 20.9334 26.7762 20.8894 26.6298 20.8634C26.4833 20.8341 26.3449 20.8195 26.2147 20.8195C26.0389 20.8195 25.8599 20.839 25.6776 20.8781C25.4986 20.9171 25.3163 20.9643 25.1307 21.0197ZM24.7548 18.6906C24.719 18.7003 24.6913 18.7117 24.6718 18.7247C24.6522 18.7378 24.6425 18.7622 24.6425 18.798C24.6425 18.8338 24.649 18.8989 24.662 18.9933C24.6783 19.0844 24.6962 19.1886 24.7157 19.3058C24.7385 19.423 24.7613 19.545 24.7841 19.672C24.8101 19.7957 24.8329 19.908 24.8524 20.0089C24.8589 20.0708 24.8719 20.1131 24.8915 20.1359C24.9143 20.1587 24.9419 20.17 24.9745 20.17C24.994 20.17 25.0184 20.1668 25.0477 20.1603C25.0803 20.1505 25.1226 20.1375 25.1747 20.1212C25.3081 20.0789 25.4481 20.0317 25.5946 19.9796C25.7443 19.9243 25.8794 19.8592 25.9999 19.7843C26.1236 19.7094 26.2245 19.6215 26.3026 19.5206C26.384 19.4165 26.4247 19.296 26.4247 19.1593C26.4247 19.0519 26.4019 18.9624 26.3563 18.8907C26.3108 18.8159 26.2473 18.7557 26.1659 18.7101C26.0845 18.6613 25.9901 18.6271 25.8827 18.6075C25.7753 18.588 25.6581 18.5782 25.5311 18.5782C25.4009 18.5782 25.2691 18.588 25.1356 18.6075C25.0054 18.6271 24.8785 18.6547 24.7548 18.6906Z" fill="#1E1E1E"/>
<path d="M65.4582 37.1112C66.8258 37.1017 68.0991 36.6074 71.8435 37.1112C73.0319 38.6035 75.0786 39.63 73.0885 38.3658C72.8527 38.9742 73.2017 39.3259 73.0885 40.8657C73.0602 42.6527 73.3809 41.1223 71.8435 42.1204C69.4478 41.6641 67.3162 41.4455 65.4582 42.1204C65.7788 43.2895 65.2601 41.3219 64.2132 40.8657C64.0151 39.9342 64.2132 39.4209 64.2132 38.3658C64.4584 39.5635 64.6942 38.1472 65.4582 37.1112Z" fill="white"/>
<path d="M65.4581 37.1111C67.9293 37.0826 70.5041 37.0446 71.8435 37.1111M65.4581 37.1111C67.2785 37.1587 69.2214 37.0731 71.8435 37.1111M65.4581 37.1111C64.7602 37.5294 64.1565 38.0617 64.2131 38.3658M65.4581 37.1111C64.0245 37.691 64.6941 38.0236 64.2131 38.3658M71.8435 37.1111C72.4565 36.4743 73.6732 37.2347 73.0885 38.3658M71.8435 37.1111C72.8715 36.5694 72.7018 37.2062 73.0885 38.3658M73.0885 38.3658C73.013 39.0027 73.1451 39.668 73.0885 40.8657M73.0885 38.3658C73.0602 38.8886 73.0507 39.4209 73.0885 40.8657M73.0885 40.8657C73.5318 41.9398 72.7206 41.8067 71.8435 42.1204M73.0885 40.8657C72.598 41.5976 72.0698 42.4435 71.8435 42.1204M71.8435 42.1204C70.4664 42.0919 69.1743 42.32 65.4581 42.1204M71.8435 42.1204C70.3721 42.1299 69.1082 42.0633 65.4581 42.1204M65.4581 42.1204C64.1471 41.8922 63.6755 41.436 64.2131 40.8657M65.4581 42.1204C64.3829 42.6337 64.3546 42.3485 64.2131 40.8657M64.2131 40.8657C64.1471 40.0197 64.2225 39.0977 64.2131 38.3658M64.2131 40.8657C64.2508 40.2954 64.1848 39.6775 64.2131 38.3658" stroke="#1E1E1E" stroke-linecap="round"/>
<path d="M11.5151 101.987C11.5057 101.131 11.4868 97.6999 11.4774 96.8445" stroke="#1E1E1E" stroke-linecap="round"/>
<path d="M11.4473 97.0373C11.6831 96.6951 12.6357 95.3454 12.8715 95.0032" stroke="#1E1E1E" stroke-linecap="round"/>
<path d="M14.2795 102.048C14.289 101.192 14.3078 97.761 14.3173 96.9055" stroke="#1E1E1E" stroke-linecap="round"/>
<path d="M14.3474 97.0983C14.1116 96.7561 13.159 95.4064 12.9232 95.0642" stroke="#1E1E1E" stroke-linecap="round"/>
<path d="M9.42871 102.51C10.5417 102.491 14.9746 102.415 16.0782 102.396" stroke="#1E1E1E" stroke-linecap="round"/>
<path d="M13.0679 102.596C13.0773 103.195 13.115 105.609 13.1245 106.208" stroke="#1E1E1E" stroke-linecap="round"/>
<path d="M52.1263 97.9205C52.4659 97.5688 53.8241 96.1431 54.1636 95.7819" stroke="#1E1E1E" stroke-linecap="round"/>
<path d="M54.1594 95.7436C54.5367 96.0573 56.0269 97.3119 56.4042 97.6256" stroke="#1E1E1E" stroke-linecap="round"/>
<path d="M56.4889 97.8779C55.8381 98.8854 53.2443 102.925 52.5935 103.942" stroke="#1E1E1E" stroke-linecap="round"/>
<path d="M52.1899 97.9205C51.8503 97.5688 50.4921 96.1431 50.1526 95.7819" stroke="#1E1E1E" stroke-linecap="round"/>
<path d="M50.1569 95.7436C49.7796 96.0573 48.2894 97.3119 47.9121 97.6256" stroke="#1E1E1E" stroke-linecap="round"/>
<path d="M47.8273 97.8779C48.4781 98.8854 51.0718 102.925 51.7226 103.942" stroke="#1E1E1E" stroke-linecap="round"/>
<path d="M39.0483 57.1038C40.5291 56.5716 42.2174 57.5031 45.4337 57.1038C45.3299 56.2579 45.7261 55.8492 46.6787 58.3585C46.8862 58.8718 46.4806 59.3946 46.6787 60.8584C44.9244 60.1265 46.2071 62.9115 45.4337 62.1131C43.7171 61.8184 42.208 61.4097 39.0483 62.1131C39.9349 61.2576 38.407 63.0636 37.8033 60.8584C37.9637 59.9459 38.0674 59.2045 37.8033 58.3585C37.9354 58.1684 38.3976 57.9973 39.0483 57.1038Z" fill="white"/>
<path d="M39.0483 57.1038C40.6989 57.3035 42.8305 57.1989 45.4337 57.1038M39.0483 57.1038C41.6515 57.1894 44.0566 57.1324 45.4337 57.1038M39.0483 57.1038C38.1806 56.8947 38.1712 56.9613 37.8033 58.3585M39.0483 57.1038C37.9542 56.8282 37.3789 57.9498 37.8033 58.3585M45.4337 57.1038C46.2448 57.5886 46.8202 58.1399 46.6787 58.3585M45.4337 57.1038C45.8676 57.5791 46.6693 57.446 46.6787 58.3585M46.6787 58.3585C46.7259 59.214 46.6881 59.9364 46.6787 60.8584M46.6787 58.3585C46.6881 59.1379 46.6976 59.9744 46.6787 60.8584M46.6787 60.8584C46.6504 61.6948 45.8487 61.5998 45.4337 62.1131M46.6787 60.8584C46.5089 61.5428 45.6695 61.5998 45.4337 62.1131M45.4337 62.1131C43.9906 62.037 42.8211 61.9705 39.0483 62.1131M45.4337 62.1131C43.4907 62.1131 41.4912 62.1606 39.0483 62.1131M39.0483 62.1131C38.6994 61.5713 38.2561 62.0085 37.8033 60.8584M39.0483 62.1131C37.5675 61.7994 38.2278 61.039 37.8033 60.8584M37.8033 60.8584C37.7845 59.8033 37.8411 58.9098 37.8033 58.3585M37.8033 60.8584C37.8411 60.2025 37.8316 59.4991 37.8033 58.3585" stroke="#1E1E1E" stroke-linecap="round"/>
<path d="M42.0783 57.3949C42.0688 58.1364 42.0877 61.197 42.0311 61.9764M41.701 57.0338C41.6633 57.6706 41.9085 60.6837 41.8708 61.4251" stroke="#1E1E1E" stroke-linecap="round"/>
<path d="M23.6516 47.4411C26.6886 47.3365 28.1883 47.8973 30.0369 47.4411C29.6785 48.4676 30.5368 47.2605 31.2819 48.6958C31.4517 49.4657 31.0272 49.4657 31.2819 51.1956C32.027 52.9541 28.9051 51.6899 30.0369 52.4503C28.0751 52.0986 27.0847 52.6404 23.6516 52.4503C21.237 53.705 24.5381 50.4447 22.4066 51.1956C22.4066 50.1786 22.1991 49.4182 22.4066 48.6958C23.7836 48.7813 24.2646 45.6066 23.6516 47.4411Z" fill="white"/>
<path d="M23.6515 47.4411C24.9625 47.5932 26.2736 47.3175 30.0369 47.4411M23.6515 47.4411C25.0286 47.4126 26.2547 47.5552 30.0369 47.4411M23.6515 47.4411C22.5386 47.0609 22.3688 47.346 22.4065 48.6958M23.6515 47.4411C23.0007 47.5647 22.2084 47.4601 22.4065 48.6958M30.0369 47.4411C30.782 47.3841 30.782 48.4582 31.2819 48.6958M30.0369 47.4411C30.8197 47.9734 31.6308 48.23 31.2819 48.6958M31.2819 48.6958C31.263 49.4657 31.2253 50.4067 31.2819 51.1956M31.2819 48.6958C31.3007 49.3136 31.2819 49.979 31.2819 51.1956M31.2819 51.1956C31.5554 52.5454 30.7631 52.9256 30.0369 52.4503M31.2819 51.1956C31.3856 52.2982 30.1972 52.1462 30.0369 52.4503M30.0369 52.4503C27.6412 52.3838 25.2078 52.5644 23.6515 52.4503M30.0369 52.4503C27.5752 52.4408 25.1606 52.4408 23.6515 52.4503M23.6515 52.4503C22.8592 52.5834 22.2179 52.6594 22.4065 51.1956M23.6515 52.4503C22.5574 51.823 22.4065 51.4143 22.4065 51.1956M22.4065 51.1956C22.3782 50.6538 22.4914 50.0645 22.4065 48.6958M22.4065 51.1956C22.3971 50.2641 22.416 49.4277 22.4065 48.6958" stroke="#1E1E1E" stroke-linecap="round"/>
<path d="M26.8607 47.6846C26.7947 48.369 26.2759 51.2015 26.2571 51.9144M26.5778 48.312C26.6155 49.0344 26.8984 51.5342 26.9173 52.1806" stroke="#1E1E1E" stroke-linecap="round"/>
<path d="M38.7125 46.9964C40.7969 46.3691 44.2961 46.3976 45.0978 46.9964C44.4942 49.0496 46.7012 46.3216 46.3428 48.2511C46.107 49.021 46.2768 49.7054 46.3428 50.751C47.6161 53.1558 45.9278 50.5704 45.0978 52.0057C43.0794 51.5494 40.8346 51.7395 38.7125 52.0057C36.6469 53.46 39.2784 50.0856 37.4675 50.751C37.4486 49.5818 37.4863 48.9545 37.4675 48.2511C38.9294 48.9355 36.0244 46.5782 38.7125 46.9964Z" fill="white"/>
<path d="M38.7124 46.9964C41.2213 47.196 43.8339 46.8823 45.0978 46.9964M38.7124 46.9964C40.2875 47.0249 41.9004 46.9679 45.0978 46.9964M38.7124 46.9964C37.8258 47.4241 37.3448 47.3671 37.4674 48.2511M38.7124 46.9964C37.9767 46.3881 37.1939 46.8443 37.4674 48.2511M45.0978 46.9964C46.0032 47.3576 46.7483 47.5002 46.3428 48.2511M45.0978 46.9964C45.3902 47.6237 46.7766 46.9204 46.3428 48.2511M46.3428 48.2511C46.3616 48.7549 46.3428 49.3727 46.3428 50.751M46.3428 48.2511C46.3145 48.9545 46.3522 49.7244 46.3428 50.751M46.3428 50.751C46.7389 51.9581 45.3336 51.7775 45.0978 52.0056M46.3428 50.751C47.0124 51.3498 46.3805 51.3593 45.0978 52.0056M45.0978 52.0056C43.2869 51.9201 41.5703 52.2052 38.7124 52.0056M45.0978 52.0056C43.6264 52.0817 41.9947 52.0246 38.7124 52.0056M38.7124 52.0056C37.4203 52.3478 37.2505 51.2452 37.4674 50.751M38.7124 52.0056C38.3823 51.4353 37.6466 51.0361 37.4674 50.751M37.4674 50.751C37.4391 49.7529 37.5429 48.7549 37.4674 48.2511M37.4674 50.751C37.4957 50.1236 37.4769 49.4678 37.4674 48.2511" stroke="#1E1E1E" stroke-linecap="round"/>
<path d="M42.0065 47.5822C41.9405 48.2761 41.4312 50.9185 41.3463 51.6029M41.7613 47.3636C41.799 48.105 42.1009 51.1657 42.016 51.9356" stroke="#1E1E1E" stroke-linecap="round"/>
<path d="M52.6877 46.9501C54.508 47.4728 56.7905 46.6079 59.073 46.9501C58.1865 46.4083 60.95 47.1877 60.3181 48.2047C60.4407 48.9747 60.2615 50.1058 60.3181 50.7046C61.497 50.0297 58.8278 51.1704 59.073 51.9593C55.9983 51.9878 53.6592 51.3034 52.6877 51.9593C50.5561 52.2635 49.5941 51.2939 51.4427 50.7046C51.2069 50.2389 51.4899 49.1933 51.4427 48.2047C52.1124 46.3227 53.0367 45.3152 52.6877 46.9501Z" fill="white"/>
<path d="M52.6877 46.9501C54.5363 46.9596 56.2906 46.9025 59.073 46.9501M52.6877 46.9501C55.0268 46.8645 57.2527 47.0261 59.073 46.9501M52.6877 46.9501C51.9048 46.7315 51.0088 47.6154 51.4427 48.2048M52.6877 46.9501C51.6124 46.4653 52.1406 47.0356 51.4427 48.2048M59.073 46.9501C60.3463 47.2733 60.4218 47.9291 60.318 48.2048M59.073 46.9501C59.5163 46.6649 60.7142 47.9196 60.318 48.2048M60.318 48.2048C60.2709 49.0602 60.3746 50.0012 60.318 50.7046M60.318 48.2048C60.2803 49.1077 60.3274 50.0678 60.318 50.7046M60.318 50.7046C59.8464 51.5221 59.6389 52.1114 59.073 51.9593M60.318 50.7046C60.5067 51.6741 60.3652 52.3015 59.073 51.9593M59.073 51.9593C57.9318 51.9213 56.6679 51.9593 52.6877 51.9593M59.073 51.9593C57.0546 51.9973 55.0079 52.0353 52.6877 51.9593M52.6877 51.9593C51.32 52.0829 51.6502 51.6837 51.4427 50.7046M52.6877 51.9593C51.603 52.4916 52.1501 52.0924 51.4427 50.7046M51.4427 50.7046C51.4993 49.7826 51.5087 48.7941 51.4427 48.2048M51.4427 50.7046C51.4332 50.1438 51.4615 49.4594 51.4427 48.2048" stroke="#1E1E1E" stroke-linecap="round"/>
<path d="M55.6704 47.4123C55.6421 48.1537 55.3875 51.2429 55.4063 51.9368M55.2649 47.1367C55.1988 47.7735 55.0291 50.6631 55.1045 51.452" stroke="#1E1E1E" stroke-linecap="round"/>
<path d="M11.6159 37.7581C14.4171 37.0167 17.0863 37.2068 18.0012 37.7581C18.8312 37.9862 18.8407 36.2943 19.2462 39.0128C19.133 40.2009 19.3594 40.8758 19.2462 41.5126C21.01 40.7332 20.4346 43.2236 18.0012 42.7673C16.445 42.8909 13.191 43.081 11.6159 42.7673C11.6064 40.7712 9.88042 42.1685 10.3709 41.5126C10.1917 40.8663 10.5595 40.0964 10.3709 39.0128C10.8613 36.8456 9.05985 35.6099 11.6159 37.7581Z" fill="white"/>
<path d="M11.6159 37.7581C13.6909 37.5395 15.9546 37.8436 18.0013 37.7581M11.6159 37.7581C14.1814 37.7391 16.7657 37.8246 18.0013 37.7581M11.6159 37.7581C10.5407 37.5775 10.8991 37.9387 10.3709 39.0128M11.6159 37.7581C10.6539 38.2429 10.7482 38.3759 10.3709 39.0128M18.0013 37.7581C18.2748 37.53 19.1425 38.0623 19.2463 39.0128M18.0013 37.7581C18.1333 37.2068 18.8501 38.2714 19.2463 39.0128M19.2463 39.0128C19.2463 39.8873 19.2651 40.7712 19.2463 41.5126M19.2463 39.0128C19.2651 39.6781 19.218 40.4291 19.2463 41.5126M19.2463 41.5126C19.5858 42.5202 18.4634 42.4822 18.0013 42.7673M19.2463 41.5126C19.8028 42.2445 18.3597 42.7293 18.0013 42.7673M18.0013 42.7673C15.7942 42.7008 14.0022 42.8529 11.6159 42.7673M18.0013 42.7673C15.615 42.8529 13.3231 42.7103 11.6159 42.7673M11.6159 42.7673C10.9934 43.1951 9.99365 42.9764 10.3709 41.5126M11.6159 42.7673C10.9085 42.5677 9.82388 41.8929 10.3709 41.5126M10.3709 41.5126C10.3238 40.4861 10.3049 39.5546 10.3709 39.0128M10.3709 41.5126C10.3992 40.8188 10.4087 40.0488 10.3709 39.0128" stroke="#1E1E1E" stroke-linecap="round"/>
<path d="M14.278 38.3629C14.2214 39.1613 14.5799 42.2315 14.5799 42.8778M14.7308 38.1633C14.6176 38.8762 14.5138 41.7372 14.4101 42.4596" stroke="#1E1E1E" stroke-linecap="round"/>
<path d="M26.0092 36.9333C28.4898 37.5796 29.2443 37.5321 32.3946 36.9333C33.8942 36.8382 35.4033 35.7451 33.6396 38.1879C33.4509 39.3191 33.8659 40.089 33.6396 40.6878C31.989 42.3132 34.0451 39.9464 32.3946 41.9425C29.9234 42.1896 28.3295 41.7714 26.0092 41.9425C26.4148 40.2696 25.2547 40.1935 24.7642 40.6878C24.6227 39.9084 24.5567 39.3951 24.7642 38.1879C26.6223 36.6481 24.6793 37.5036 26.0092 36.9333Z" fill="white"/>
<path d="M26.0092 36.9333C27.5183 37.0473 28.5746 36.8572 32.3945 36.9333M26.0092 36.9333C27.7352 36.8953 29.6404 37.0283 32.3945 36.9333M26.0092 36.9333C25.481 36.3154 24.5944 37.6081 24.7642 38.188M26.0092 36.9333C25.1792 37.0093 25.3206 36.8287 24.7642 38.188M32.3945 36.9333C32.9416 36.5055 33.6489 37.0473 33.6395 38.188M32.3945 36.9333C33.3943 36.2869 33.4697 37.342 33.6395 38.188M33.6395 38.188C33.5829 38.9294 33.6867 39.5567 33.6395 40.6878M33.6395 38.188C33.6301 38.7678 33.6301 39.4046 33.6395 40.6878M33.6395 40.6878C34.262 42.0185 32.668 41.7144 32.3945 41.9425M33.6395 40.6878C33.7999 41.7714 33.6867 41.914 32.3945 41.9425M32.3945 41.9425C30.5647 41.857 28.9236 42.1041 26.0092 41.9425M32.3945 41.9425C30.8383 41.8665 29.2726 42.0376 26.0092 41.9425M26.0092 41.9425C25.3678 41.5623 24.4529 41.1061 24.7642 40.6878M26.0092 41.9425C24.651 41.8475 24.6698 40.8874 24.7642 40.6878M24.7642 40.6878C24.8208 39.8324 24.8302 39.0339 24.7642 38.188M24.7642 40.6878C24.7736 40.0225 24.7925 39.4141 24.7642 38.188" stroke="#1E1E1E" stroke-linecap="round"/>
<path d="M29.1525 37.0628C29.1148 37.7472 28.7564 40.9504 28.6903 41.6728M28.8318 37.6426C28.7564 38.3555 28.4168 41.4067 28.3602 42.072" stroke="#1E1E1E" stroke-linecap="round"/>
<path d="M18.334 29.1235C20.9277 29.3041 22.7292 29.5702 24.7193 29.1235C27.2282 29.3421 24.3138 30.3401 25.9643 30.3782C25.9172 31.053 25.6625 32.1841 25.9643 32.878C24.4081 33.3438 26.7849 32.4598 24.7193 34.1327C21.937 34.3798 20.1543 33.4673 18.334 34.1327C15.7119 32.6689 18.9471 33.0111 17.089 32.878C17.2776 32.0606 17.1927 31.6233 17.089 30.3782C15.0706 29.3706 19.1357 30.939 18.334 29.1235Z" fill="white"/>
<path d="M18.334 29.1235C19.6545 29.2756 20.8334 28.9904 24.7194 29.1235M18.334 29.1235C20.1638 29.095 22.1822 29.0855 24.7194 29.1235M18.334 29.1235C18.1076 29.7318 16.542 30.017 17.089 30.3782M18.334 29.1235C17.7304 29.095 16.7306 30.1881 17.089 30.3782M24.7194 29.1235C25.7946 28.6957 25.5022 30.112 25.9644 30.3782M24.7194 29.1235C25.9361 29.3136 25.5399 29.209 25.9644 30.3782M25.9644 30.3782C25.9644 31.3287 26.0492 32.3267 25.9644 32.878M25.9644 30.3782C25.9738 30.9295 25.9644 31.4237 25.9644 32.878M25.9644 32.878C25.6059 34.2468 25.3796 33.8285 24.7194 34.1327M25.9644 32.878C26.2002 34.1992 25.1155 34.8551 24.7194 34.1327M24.7194 34.1327C22.5689 34.3038 20.7391 33.9901 18.334 34.1327M24.7194 34.1327C23.1159 34.1042 21.4371 34.1422 18.334 34.1327M18.334 34.1327C17.7964 34.5319 17.5795 33.3438 17.089 32.878M18.334 34.1327C18.1171 33.8571 16.8061 33.5054 17.089 32.878M17.089 32.878C17.1456 32.0701 17.0607 31.1481 17.089 30.3782M17.089 32.878C17.0701 32.0035 17.0984 31.1291 17.089 30.3782" stroke="#1E1E1E" stroke-linecap="round"/>
<path d="M21.6311 29.2089C21.5934 29.9218 21.0935 32.9539 20.9991 33.7238M21.3387 29.8552C21.4236 30.6251 21.7254 33.4292 21.6405 34.1516" stroke="#1E1E1E" stroke-linecap="round"/>
<path d="M30.861 24.3308C32.8794 23.8461 34.728 24.2263 37.2463 24.3308C37.6519 23.5039 38.8403 23.694 38.4913 25.5855C38.746 26.555 38.2933 27.382 38.4913 28.0854C39.0195 27.6386 37.7839 29.5777 37.2463 29.34C35.3977 29.1499 33.0586 29.321 30.861 29.34C30.3328 29.0929 28.9557 28.6937 29.616 28.0854C29.6065 27.7242 29.5311 26.8592 29.616 25.5855C28.5407 25.8041 30.9459 26.0227 30.861 24.3308Z" fill="white"/>
<path d="M30.861 24.3308C32.2946 24.3593 33.5019 24.4544 37.2464 24.3308M30.861 24.3308C33.2095 24.3593 35.4354 24.2453 37.2464 24.3308M30.861 24.3308C30.0593 24.9106 29.7009 24.2928 29.616 25.5855M30.861 24.3308C30.6158 24.7681 30.0593 24.3118 29.616 25.5855M37.2464 24.3308C38.0292 24.3403 38.9158 24.692 38.4914 25.5855M37.2464 24.3308C38.68 24.1692 39.0573 25.0627 38.4914 25.5855M38.4914 25.5855C38.4631 26.4885 38.5291 27.5531 38.4914 28.0854M38.4914 25.5855C38.4819 26.1748 38.4819 26.8212 38.4914 28.0854M38.4914 28.0854C38.6611 28.4276 37.8877 28.8363 37.2464 29.3401M38.4914 28.0854C37.8689 28.7317 38.6045 28.9503 37.2464 29.3401M37.2464 29.3401C35.2657 29.5111 33.7754 29.5016 30.861 29.3401M37.2464 29.3401C35.4166 29.4161 33.3227 29.3496 30.861 29.3401M30.861 29.3401C30.031 29.4826 29.5594 29.5111 29.616 28.0854M30.861 29.3401C30.2385 29.9104 30.163 28.5226 29.616 28.0854M29.616 28.0854C29.5971 27.4105 29.6915 26.7927 29.616 25.5855M29.616 28.0854C29.5877 27.1063 29.5971 26.0988 29.616 25.5855" stroke="#1E1E1E" stroke-linecap="round"/>
<path d="M33.9003 24.6124C33.8814 25.3538 33.938 28.5571 33.872 29.327M33.5325 25.2588C33.4759 25.8956 33.7683 28.2719 33.7117 28.8422" stroke="#1E1E1E" stroke-linecap="round"/>
<path d="M45.6042 24.8131C46.8964 24.547 48.5941 24.4709 51.9896 24.8131C53.31 25.2884 53.6968 27.1229 53.2346 26.0678C53.2818 26.7902 53.178 27.8833 53.2346 28.5677C52.9045 31.5428 52.4989 29.7178 51.9896 29.8223C50.339 29.7368 48.2452 29.7463 45.6042 29.8223C43.3312 29.8128 43.4632 29.3376 44.3592 28.5677C44.2272 27.7597 44.4913 26.8947 44.3592 26.0678C45.6514 23.1402 43.6801 26.5906 45.6042 24.8131Z" fill="white"/>
<path d="M45.6042 24.8131C47.7736 24.68 49.7637 24.8987 51.9896 24.8131M45.6042 24.8131C47.7358 24.8321 49.9523 24.8226 51.9896 24.8131M45.6042 24.8131C45.2836 25.1933 44.7459 24.8511 44.3592 26.0678M45.6042 24.8131C44.1234 25.0697 44.1895 25.0697 44.3592 26.0678M51.9896 24.8131C53.3383 24.6705 53.725 25.507 53.2346 26.0678M51.9896 24.8131C53.4138 24.4044 52.8007 25.0507 53.2346 26.0678M53.2346 26.0678C53.1874 26.6761 53.2346 27.2559 53.2346 28.5676M53.2346 26.0678C53.244 26.6856 53.2157 27.3415 53.2346 28.5676M53.2346 28.5676C52.697 29.233 53.2723 29.4801 51.9896 29.8223M53.2346 28.5676C53.1308 28.9193 52.5178 29.29 51.9896 29.8223M51.9896 29.8223C49.5467 29.6893 47.0379 30.0219 45.6042 29.8223M51.9896 29.8223C49.5845 29.8508 47.1794 29.9269 45.6042 29.8223M45.6042 29.8223C44.9534 30.3166 44.8403 29.0524 44.3592 28.5676M45.6042 29.8223C44.5573 30.155 44.7365 29.2995 44.3592 28.5676M44.3592 28.5676C44.4253 27.8833 44.3121 27.0088 44.3592 26.0678M44.3592 28.5676C44.3687 27.7787 44.3592 27.0943 44.3592 26.0678" stroke="#1E1E1E" stroke-linecap="round"/>
<path d="M48.3984 25.3704C48.3607 26.0833 48.5776 29.0584 48.5587 29.7238M48.9077 25.1423C48.8228 25.7411 48.521 28.4406 48.3795 29.1915" stroke="#1E1E1E" stroke-linecap="round"/>
<path d="M38.2771 33.2016C40.1069 33.4012 41.7763 33.8765 44.6625 33.2016C46.6998 31.6618 47.2751 34.1521 45.9075 34.4563C45.8603 35.3403 45.8603 35.6444 45.9075 36.9561C45.3793 36.1482 45.4925 38.515 44.6625 38.2108C42.3328 38.2013 40.6728 38.1728 38.2771 38.2108C39.1354 37.555 36.5322 36.709 37.0321 36.9561C37.1925 35.806 36.8718 35.4448 37.0321 34.4563C37.5509 32.9259 37.466 32.5933 38.2771 33.2016Z" fill="white"/>
<path d="M38.2771 33.2016C39.9182 33.1351 41.267 33.1731 44.6624 33.2016M38.2771 33.2016C40.2955 33.1826 42.2196 33.2491 44.6624 33.2016M38.2771 33.2016C36.8812 33.4202 36.8812 33.4868 37.0321 34.4563M38.2771 33.2016C37.2773 33.059 36.4945 33.962 37.0321 34.4563M44.6624 33.2016C46.0112 32.8404 45.5302 33.4582 45.9074 34.4563M44.6624 33.2016C45.0869 33.5343 46.4073 33.1921 45.9074 34.4563M45.9074 34.4563C45.8792 35.1882 45.964 35.9866 45.9074 36.9561M45.9074 34.4563C45.8697 34.9981 45.9357 35.5399 45.9074 36.9561M45.9074 36.9561C45.8226 37.3744 45.2284 37.7451 44.6624 38.2108M45.9074 36.9561C46.5111 38.4104 46.0867 38.2203 44.6624 38.2108M44.6624 38.2108C43.3609 38.0873 41.7669 38.2298 38.2771 38.2108M44.6624 38.2108C42.6346 38.3154 40.6256 38.1728 38.2771 38.2108M38.2771 38.2108C37.2585 38.496 37.3622 37.707 37.0321 36.9561M38.2771 38.2108C37.466 38.8952 37.5131 38.458 37.0321 36.9561M37.0321 36.9561C37.0415 35.9676 36.9849 35.0171 37.0321 34.4563M37.0321 36.9561C37.0604 36.3573 37.0698 35.844 37.0321 34.4563" stroke="#1E1E1E" stroke-linecap="round"/>
<path d="M41.2535 33.2014C41.1969 33.9143 41.1309 37.0415 41.1497 37.8019M41.8194 33.8097C41.7062 34.5702 40.9611 37.5168 40.8762 38.2392" stroke="#1E1E1E" stroke-linecap="round"/>
<path d="M50.352 36.3196C53.2664 35.9204 54.8415 37.1085 56.7373 36.3196C57.1429 36.5097 56.8411 35.4641 57.9823 37.5743C58.2747 38.097 58.2559 39.4088 57.9823 40.0741C56.03 41.6235 58.2464 40.749 56.7373 41.3288C54.502 41.9086 53.3042 41.4999 50.352 41.3288C49.5597 39.9506 49.9559 38.8765 49.107 40.0741C49.041 39.2282 49.0693 38.2776 49.107 37.5743C47.5979 35.6352 49.5126 37.2701 50.352 36.3196Z" fill="white"/>
<path d="M50.352 36.3196C51.4932 36.5287 52.9175 36.2815 56.7373 36.3196M50.352 36.3196C52.0686 36.3196 53.7569 36.3766 56.7373 36.3196M50.352 36.3196C49.0598 36.0059 49.6823 37.0039 49.107 37.5742M50.352 36.3196C49.6729 36.7948 49.041 37.3461 49.107 37.5742M56.7373 36.3196C57.1523 36.6903 57.822 36.5667 57.9823 37.5742M56.7373 36.3196C57.3127 35.5877 58.652 36.3956 57.9823 37.5742M57.9823 37.5742C57.9446 38.3727 57.9823 39.2091 57.9823 40.0741M57.9823 37.5742C57.9446 38.059 57.9541 38.5913 57.9823 40.0741M57.9823 40.0741C57.5768 40.9581 57.0014 41.6139 56.7373 41.3288M57.9823 40.0741C58.4917 41.1862 57.6145 40.9676 56.7373 41.3288M56.7373 41.3288C55.3509 41.1197 53.7852 41.3003 50.352 41.3288M56.7373 41.3288C54.9736 41.2432 52.9363 41.2527 50.352 41.3288M50.352 41.3288C49.0881 41.4714 49.4465 40.6919 49.107 40.0741M50.352 41.3288C48.9655 41.0721 48.4939 40.5969 49.107 40.0741M49.107 40.0741C49.173 39.4373 49.041 38.7909 49.107 37.5742M49.107 40.0741C49.0787 39.5228 49.1164 39.0285 49.107 37.5742" stroke="#1E1E1E" stroke-linecap="round"/>
<path d="M53.6462 36.6678C53.6179 37.4282 53.1746 40.2892 53.0803 41.0211M53.4009 36.3351C53.3349 37.1715 52.8728 40.5554 52.7784 41.4108" stroke="#1E1E1E" stroke-linecap="round"/>
<path d="M68.375 37.5353C68.3467 38.2767 68.2241 41.1378 68.1486 41.8887M67.9505 37.2407C67.8657 38.0486 67.7242 41.6035 67.8279 42.3164" stroke="#1E1E1E" stroke-linecap="round"/>
<path d="M57.9611 28.6727C60.055 29.224 62.5827 29.4236 64.3465 28.6727C63.1864 30.6403 67.4779 27.1234 65.5915 29.9274C65.6009 30.8874 65.6952 31.4673 65.5915 32.4273C67.2326 34.4044 65.6292 33.72 64.3465 33.682C63.2335 34.0051 61.6867 33.4824 57.9611 33.682C57.4235 33.5394 56.5369 31.7429 56.7161 32.4273C56.7444 32.0756 56.7256 31.3152 56.7161 29.9274C58.329 30.1555 57.5556 26.7622 57.9611 28.6727Z" fill="white"/>
<path d="M57.9611 28.6727C59.7626 28.4731 61.7056 28.5397 64.3465 28.6727M57.9611 28.6727C60.2153 28.5682 62.6488 28.6252 64.3465 28.6727M57.9611 28.6727C56.603 29.1765 57.1311 29.5187 56.7161 29.9274M57.9611 28.6727C57.848 28.5302 56.2634 28.9104 56.7161 29.9274M64.3465 28.6727C65.3463 28.1975 65.2614 28.8153 65.5915 29.9274M64.3465 28.6727C64.9879 28.7013 65.6292 28.4351 65.5915 29.9274M65.5915 29.9274C65.5255 30.4882 65.5349 31.0775 65.5915 32.4273M65.5915 29.9274C65.6104 30.7164 65.5915 31.4483 65.5915 32.4273M65.5915 32.4273C65.1671 33.1687 64.6483 33.9671 64.3465 33.682M65.5915 32.4273C64.969 33.3208 65.1576 33.6154 64.3465 33.682M64.3465 33.682C62.3281 33.5299 60.4889 33.5489 57.9611 33.682M64.3465 33.682C62.2055 33.6344 60.121 33.6249 57.9611 33.682M57.9611 33.682C56.9236 34.1287 56.8388 33.8245 56.7161 32.4273M57.9611 33.682C57.433 33.1782 57.1877 32.5984 56.7161 32.4273M56.7161 32.4273C56.6595 31.6669 56.7256 30.935 56.7161 29.9274M56.7161 32.4273C56.7161 31.6003 56.735 30.7354 56.7161 29.9274" stroke="#1E1E1E" stroke-linecap="round"/>
<path d="M60.7112 29.0908C60.664 29.8512 60.6263 32.7883 60.6357 33.4632M61.1639 28.8912C61.2299 29.5565 61.3808 32.2085 61.2771 32.9784" stroke="#1E1E1E" stroke-linecap="round"/>
<path d="M37.4063 57.6956C35.52 56.9067 28.4933 53.6939 26.588 52.886M38.2741 57.4485C36.3028 56.4884 28.116 53.0761 26.2296 52.1731" stroke="#1E1E1E" stroke-linecap="round"/>
<path d="M41.6079 57.0354C41.5797 56.0183 41.457 52.0262 41.4193 51.0186M42.1078 56.8263C42.1927 55.8282 42.0607 52.2733 42.0512 51.3323" stroke="#1E1E1E" stroke-linecap="round"/>
<path d="M46.0479 57.2688C47.6418 56.3278 53.8763 52.8109 55.4137 51.9649M46.5855 56.9646C48.1889 56.2137 53.8574 53.039 55.2628 52.3071" stroke="#1E1E1E" stroke-linecap="round"/>
<path d="M22.8349 47.9856C21.4578 47.1682 15.7138 43.9554 14.299 43.0239M22.4293 47.6434C21.0428 46.7404 15.4969 43.4326 14.1293 42.5962" stroke="#1E1E1E" stroke-linecap="round"/>
<path d="M26.5165 48.1429C25.5639 45.8237 22.0458 36.0429 21.1875 33.6666M25.9034 47.7627C24.8282 45.548 21.5176 36.4326 20.7159 34.2084" stroke="#1E1E1E" stroke-linecap="round"/>
<path d="M31.3482 48.4632C30.886 47.2846 29.0279 42.7411 28.6035 41.61M31.0558 48.1305C30.6691 46.9709 29.6222 42.9217 29.2072 41.8951" stroke="#1E1E1E" stroke-linecap="round"/>
<path d="M42.1522 46.6661C41.9729 45.1833 41.2939 39.3567 41.0958 37.8168M41.7277 47.2745C41.5014 45.7156 41.0109 38.9765 40.8223 37.3891" stroke="#1E1E1E" stroke-linecap="round"/>
<path d="M37.5261 48.0742C36.8282 45.1276 34.5645 32.5522 34.0835 29.4916M38.2712 47.8936C37.4695 44.8234 34.2156 31.8584 33.5836 28.7026" stroke="#1E1E1E" stroke-linecap="round"/>
<path d="M45.62 47.3613C45.9878 44.4432 47.9968 32.7898 48.4778 29.9668M46.318 46.8195C46.6198 43.9679 47.9025 33.4267 48.242 30.5561" stroke="#1E1E1E" stroke-linecap="round"/>
<path d="M55.2549 46.9988C56.2641 44.8507 60.4613 35.9063 61.395 33.7106M56.132 46.5901C57.113 44.3089 60.4424 35.1934 61.1498 32.9217" stroke="#1E1E1E" stroke-linecap="round"/>
<path d="M51.6572 46.9048C51.8553 46.0113 52.7513 42.0857 52.9683 41.1447M52.1477 46.6957C52.2986 45.7167 52.5721 41.5914 52.657 40.5934" stroke="#1E1E1E" stroke-linecap="round"/>
<path d="M59.8707 47.5757C61.2383 46.6632 66.7088 42.671 68.0764 41.768M59.4934 47.3475C60.8139 46.4731 66.4069 43.0037 67.7934 42.0341" stroke="#1E1E1E" stroke-linecap="round"/>
<path d="M41.4886 56.0732C41.5735 59.305 41.9885 71.9374 42.0923 75.1216M42.3658 55.6075C42.4224 58.9248 41.9885 72.2986 41.9225 75.6254" stroke="#1E1E1E" stroke-linecap="round"/>
<path d="M41.7263 74.3142C42.3582 74.2096 43.5749 74.3237 44.1974 74.6089C44.8105 74.9035 45.3293 75.4168 45.433 76.0441C45.5273 76.681 45.0935 77.8121 44.8011 78.4204C44.5087 79.0193 44.2729 79.4755 43.6787 79.6751C43.075 79.8652 41.8395 79.8272 41.1887 79.5896C40.5473 79.3519 40.2078 78.7151 39.8022 78.2493C39.3872 77.7836 38.6798 77.2703 38.727 76.795C38.7647 76.3198 39.5098 75.8255 40.0663 75.4073C40.6133 74.9891 41.6791 74.4853 42.0281 74.2952C42.3771 74.1146 42.1696 74.2382 42.1696 74.2952M41.9338 74.5518C42.5374 74.4092 43.358 74.3237 43.8768 74.6374C44.3861 74.951 44.7916 75.854 44.9991 76.4338C45.2066 77.0042 45.4236 77.584 45.1218 78.0877C44.8105 78.582 43.839 79.1333 43.1694 79.447C42.4997 79.7607 41.6508 80.1599 41.0944 79.9793C40.5379 79.7892 40.1795 78.9052 39.8211 78.3349C39.4721 77.7551 38.8873 77.0422 38.9911 76.5384C39.0948 76.0251 39.9908 75.5689 40.4436 75.2932C40.8963 75.0081 41.4716 74.9891 41.7263 74.8655C41.9715 74.7514 41.9149 74.6089 41.9338 74.5803" fill="white"/>
<path d="M41.7074 74.2476C42.3205 74.1051 43.009 74.3047 43.5372 74.6564C44.0559 74.9985 44.5747 75.8065 44.8482 76.3293C45.1217 76.8521 45.3575 77.3083 45.1877 77.7931C45.0085 78.2873 44.3672 79.0192 43.7918 79.2759C43.2071 79.542 42.3676 79.485 41.698 79.3709C41.0283 79.2569 40.2077 78.9812 39.7644 78.601C39.3306 78.2113 39.0193 77.6695 39.0665 77.0802C39.1137 76.4814 39.5569 75.4738 40.038 75.0176C40.519 74.5613 41.6791 74.4568 41.9621 74.3617C42.2544 74.2667 41.7923 74.3332 41.764 74.4377M42.0658 74.1241C42.6223 73.9245 43.3014 74.1811 43.8013 74.4663C44.2917 74.7514 44.8859 75.2457 45.018 75.8255C45.15 76.4053 44.7727 77.2893 44.5935 77.9261C44.4049 78.5725 44.4426 79.3519 43.905 79.6751C43.3674 79.9888 42.0564 79.9983 41.3584 79.8272C40.6699 79.6656 40.0946 79.0858 39.7456 78.658C39.3966 78.2208 39.1891 77.8786 39.2646 77.2513C39.3306 76.6239 39.7456 75.3217 40.17 74.875C40.5944 74.4187 41.5282 74.6754 41.8017 74.5518C42.0752 74.4282 41.7829 74.1811 41.8017 74.1431" stroke="#1E1E1E" stroke-linecap="round"/>
</svg>
