<svg width="83" height="119" viewBox="0 0 83 119" fill="none" xmlns="http://www.w3.org/2000/svg">
<path d="M21.3071 2.0983C35.4875 2.7678 47.6984 2.004 61.091 2.0983C76.5811 0.749862 80.5891 6.36993 80.9829 21.1462C83.3956 46.361 80.9337 78.0729 80.9829 98.0449C81.9972 110.275 73.6367 120.11 61.091 117.093C45.335 120.421 30.288 118.215 21.3071 117.093C8.25912 115.452 3.2172 111.029 1.41511 98.0449C0.489443 78.8555 2.87254 58.695 1.41511 21.1462C-1.06646 6.88856 9.28326 2.5132 21.3071 2.0983Z" fill="white"/>
<path d="M21.3071 2.09831C36.935 1.77771 48.4172 1.76828 61.091 2.09831M21.3071 2.09831C32.0605 1.4571 43.9366 2.70181 61.091 2.09831M21.3071 2.09831C7.50085 2.39063 1.21814 9.444 1.41509 21.1462M21.3071 2.09831C6.45701 1.99459 -0.377155 8.12385 1.41509 21.1462M61.091 2.09831C75.8031 0.62729 79.5353 7.1526 80.9829 21.1462M61.091 2.09831C75.1926 3.09786 80.9534 6.6434 80.9829 21.1462M80.9829 21.1462C82.1154 42.1837 79.3581 65.4183 80.9829 98.0449M80.9829 21.1462C81.8101 39.4774 80.4413 59.9774 80.9829 98.0449M80.9829 98.0449C79.9489 111.416 72.6125 116.725 61.091 117.093M80.9829 98.0449C80.3921 108.955 76.5319 118.328 61.091 117.093M61.091 117.093C49.2937 116.772 34.3747 117.215 21.3071 117.093M61.091 117.093C51.9722 116.404 43.9366 117.536 21.3071 117.093M21.3071 117.093C9.60821 116.027 2.59679 111.972 1.41509 98.0449M21.3071 117.093C10.1597 118.413 2.38015 112.218 1.41509 98.0449M1.41509 98.0449C2.29152 80.4115 2.48847 61.0053 1.41509 21.1462M1.41509 98.0449C2.66572 75.6401 2.53771 55.6587 1.41509 21.1462" stroke="#1E1E1E" stroke-width="2" stroke-linecap="round"/>
<path d="M10.0959 85.289C20.9183 85.289 64.2276 85.289 75.05 85.289" stroke="#1E1E1E" stroke-width="2" stroke-linecap="round"/>
<path d="M9.37649 99.9963C9.36649 99.1477 9.34649 95.7436 9.33649 94.8949" stroke="#1E1E1E" stroke-linecap="round"/>
<path d="M9.30493 95.0862C9.55112 94.7467 10.5457 93.4077 10.7919 93.0682" stroke="#1E1E1E" stroke-linecap="round"/>
<path d="M12.2619 100.057C12.2719 99.2082 12.2919 95.8041 12.3019 94.9554" stroke="#1E1E1E" stroke-linecap="round"/>
<path d="M12.3328 95.1467C12.0866 94.8073 11.092 93.4683 10.8458 93.1288" stroke="#1E1E1E" stroke-linecap="round"/>
<path d="M7.19733 100.515C8.35933 100.497 12.9877 100.421 14.1398 100.402" stroke="#1E1E1E" stroke-linecap="round"/>
<path d="M10.997 100.601C11.007 101.195 11.047 103.59 11.057 104.184" stroke="#1E1E1E" stroke-linecap="round"/>
<path d="M51.7767 95.9624C52.1312 95.6135 53.5493 94.1991 53.9038 93.8408" stroke="#1E1E1E" stroke-linecap="round"/>
<path d="M53.8994 93.8028C54.2933 94.114 55.8492 95.3587 56.2431 95.6699" stroke="#1E1E1E" stroke-linecap="round"/>
<path d="M56.3316 95.92C55.6521 96.9196 52.9441 100.927 52.2646 101.936" stroke="#1E1E1E" stroke-linecap="round"/>
<path d="M51.8431 95.9624C51.4886 95.6135 50.0705 94.1991 49.716 93.8408" stroke="#1E1E1E" stroke-linecap="round"/>
<path d="M49.7204 93.8028C49.3265 94.114 47.7706 95.3587 47.3767 95.6699" stroke="#1E1E1E" stroke-linecap="round"/>
<path d="M47.2882 95.92C47.9677 96.9196 50.6757 100.927 51.3552 101.936" stroke="#1E1E1E" stroke-linecap="round"/>
<path d="M22.6143 1.99158C33.673 1.99158 44.7318 1.99158 58.4493 1.99158C60.8915 1.99158 62.1225 3.16085 62.1225 5.50883C62.1225 7.69651 62.1225 9.89361 62.1225 12.5339C62.1225 14.8725 60.8915 16.0417 58.4493 16.0417C46.7998 16.0417 35.1403 16.0417 22.6143 16.0417C20.1623 16.0417 18.9412 14.8725 18.9412 12.5339C18.9412 10.1011 18.9412 7.66822 18.9412 5.50883C18.9412 3.16085 20.1623 1.99158 22.6143 1.99158Z" fill="white"/>
<path d="M22.6143 1.99158C35.1994 1.99158 47.7943 1.99158 58.4493 1.99158M22.6143 1.99158C32.6587 1.99158 42.713 1.99158 58.4493 1.99158M22.6143 1.99158C20.1623 1.99158 18.9412 3.16085 18.9412 5.50883M58.4493 1.99158C60.8915 1.99158 62.1225 3.16085 62.1225 5.50883M62.1225 5.50883C62.1225 7.49848 62.1225 9.48814 62.1225 12.5339M62.1225 5.50883C62.1225 8.07369 62.1225 10.6386 62.1225 12.5339M62.1225 12.5339C62.1225 14.8725 60.8915 16.0417 58.4493 16.0417M58.4493 16.0417C45.037 16.0417 31.6247 16.0417 22.6143 16.0417M58.4493 16.0417C47.1346 16.0417 35.8296 16.0417 22.6143 16.0417M22.6143 16.0417C20.1623 16.0417 18.9412 14.8725 18.9412 12.5339M18.9412 12.5339C18.9412 10.8554 18.9412 9.17696 18.9412 5.50883M18.9412 12.5339C18.9412 10.2142 18.9412 7.90396 18.9412 5.50883" stroke="#1E1E1E" stroke-width="2" stroke-linecap="round"/>
<path d="M28.1895 10.7497C28.1277 9.98798 28.0561 9.23114 27.9747 8.47919C27.8965 7.72723 27.781 6.97691 27.628 6.22821C27.6215 6.20217 27.6182 6.17938 27.6182 6.15985C27.6182 6.13706 27.6182 6.11591 27.6182 6.09637C27.6182 6.0215 27.6329 5.9564 27.6622 5.90106C27.6947 5.84572 27.737 5.80015 27.7891 5.76434C27.8412 5.72528 27.8998 5.69598 27.9649 5.67645C28.0333 5.65692 28.1049 5.64716 28.1797 5.64716C28.3783 5.64716 28.515 5.73993 28.5899 5.92548C28.6225 6.01988 28.655 6.15497 28.6876 6.33075C28.7234 6.50653 28.7592 6.70998 28.795 6.9411C28.834 7.17222 28.8715 7.42613 28.9073 7.70282C28.9431 7.97626 28.9773 8.25783 29.0098 8.54755C29.0196 8.62893 29.0456 8.66962 29.088 8.66962C29.1238 8.66962 29.1612 8.6452 29.2003 8.59637C29.6755 7.97137 30.2387 7.65887 30.8897 7.65887C31.1339 7.65887 31.3617 7.71259 31.5733 7.82001C31.7849 7.92743 31.9688 8.07391 32.1251 8.25946C32.2813 8.44501 32.4034 8.66473 32.4913 8.91864C32.5824 9.17255 32.628 9.44598 32.628 9.73895C32.628 10.0124 32.584 10.2663 32.4962 10.5007C32.4115 10.735 32.2927 10.9369 32.1397 11.1061C31.9867 11.2754 31.8044 11.4089 31.5928 11.5065C31.3845 11.6009 31.1566 11.6481 30.9092 11.6481C30.6033 11.6481 30.3038 11.5895 30.0108 11.4724C29.7178 11.3519 29.4411 11.1908 29.1807 10.989C29.1514 10.9629 29.1205 10.9499 29.088 10.9499C29.0456 10.9499 29.0066 10.9727 28.9708 11.0182C28.9187 11.0768 28.8633 11.1159 28.8047 11.1354C28.7462 11.1517 28.6745 11.1599 28.5899 11.1599C28.3327 11.1599 28.1993 11.0231 28.1895 10.7497ZM30.7188 8.56708C30.5886 8.56708 30.4584 8.598 30.3282 8.65985C30.2012 8.71844 30.0808 8.80308 29.9669 8.91376C29.8529 9.02443 29.7471 9.1579 29.6495 9.31415C29.5551 9.46714 29.4753 9.63804 29.4102 9.82684C29.4037 9.83661 29.3988 9.85126 29.3956 9.87079C29.3923 9.89032 29.3907 9.9066 29.3907 9.91962C29.3907 9.97496 29.4102 10.0173 29.4493 10.0466C29.5665 10.1475 29.6869 10.2419 29.8106 10.3298C29.9376 10.4177 30.0629 10.4942 30.1866 10.5593C30.3103 10.6244 30.4324 10.6765 30.5528 10.7155C30.6732 10.7513 30.7855 10.7692 30.8897 10.7692C31.1241 10.7692 31.3015 10.7009 31.4219 10.5641C31.5456 10.4274 31.6075 10.2289 31.6075 9.96844C31.6075 9.76662 31.5847 9.58108 31.5391 9.4118C31.4936 9.23928 31.4317 9.09117 31.3536 8.96747C31.2755 8.84052 31.1811 8.74286 31.0704 8.6745C30.963 8.60288 30.8458 8.56708 30.7188 8.56708ZM33.3409 10.2565C33.3409 10.2012 33.3474 10.1393 33.3604 10.071C33.3734 10.0026 33.3799 9.92775 33.3799 9.84637C33.3799 9.79104 33.3555 9.74872 33.3067 9.71942C33.2611 9.69012 33.209 9.65757 33.1505 9.62177C33.0919 9.58596 33.0381 9.54038 32.9893 9.48505C32.9437 9.42971 32.921 9.34996 32.921 9.24579C32.921 9.17092 32.9405 9.09605 32.9796 9.02118C33.0219 8.94631 33.0821 8.87795 33.1602 8.8161C33.3523 8.67287 33.5508 8.54429 33.7559 8.43036C33.9643 8.31643 34.171 8.2204 34.376 8.14227C34.5844 8.06415 34.7894 8.00393 34.9913 7.96161C35.1931 7.91929 35.3868 7.89813 35.5723 7.89813C35.8848 7.89813 36.1778 7.95673 36.4512 8.07391C36.7279 8.18785 36.9672 8.34572 37.169 8.54755C37.3741 8.74611 37.5352 8.98049 37.6524 9.25067C37.7728 9.5176 37.8331 9.80406 37.8331 10.11C37.8331 10.4095 37.7696 10.6944 37.6426 10.9645C37.5189 11.2315 37.3513 11.4658 37.1397 11.6677C36.9281 11.8695 36.6791 12.029 36.3926 12.1462C36.1094 12.2666 35.81 12.3268 35.4942 12.3268C35.185 12.3268 34.8985 12.2748 34.6348 12.1706C34.3712 12.0664 34.1433 11.9232 33.9512 11.7409C33.7592 11.5554 33.6094 11.3373 33.502 11.0866C33.3946 10.8327 33.3409 10.556 33.3409 10.2565ZM35.6016 11.4479C35.7383 11.4479 35.8799 11.4203 36.0264 11.3649C36.1729 11.3096 36.3064 11.2298 36.4268 11.1257C36.5505 11.0182 36.6514 10.888 36.7296 10.735C36.8109 10.5821 36.8516 10.4095 36.8516 10.2175C36.8516 10.0222 36.8158 9.83986 36.7442 9.67059C36.6726 9.50132 36.5733 9.35484 36.4464 9.23114C36.3227 9.10419 36.1745 9.0049 36.002 8.93329C35.8327 8.86167 35.6488 8.82587 35.4503 8.82587C35.0889 8.82587 34.8122 8.92027 34.6202 9.10907C34.4281 9.29462 34.3321 9.58108 34.3321 9.96844C34.3321 10.18 34.363 10.377 34.4249 10.5593C34.49 10.7383 34.5795 10.8946 34.6934 11.028C34.8074 11.1582 34.9408 11.2608 35.0938 11.3356C35.2501 11.4105 35.4193 11.4479 35.6016 11.4479ZM38.9073 12.0876C38.8845 11.6546 38.8471 11.2559 38.795 10.8913C38.7462 10.5235 38.6941 10.2028 38.6387 9.92938C38.5866 9.65594 38.5394 9.43459 38.4971 9.26532C38.4581 9.09605 38.4385 8.99025 38.4385 8.94794C38.4385 8.88609 38.4613 8.82587 38.5069 8.76727C38.5557 8.70868 38.6159 8.65822 38.6876 8.61591C38.7592 8.57033 38.8357 8.53453 38.9171 8.50848C39.0017 8.48244 39.0782 8.46942 39.1465 8.46942C39.2019 8.46942 39.2491 8.47919 39.2881 8.49872C39.3305 8.51825 39.3598 8.5508 39.376 8.59637C39.3923 8.65171 39.407 8.71031 39.42 8.77216C39.4363 8.83075 39.4525 8.90236 39.4688 8.987C39.4883 9.10744 39.5144 9.16766 39.5469 9.16766C39.5827 9.16766 39.6234 9.11395 39.669 9.00653C39.7341 8.85679 39.8041 8.73309 39.879 8.63544C39.9538 8.53778 40.0336 8.46128 40.1182 8.40594C40.2061 8.34735 40.2956 8.30666 40.3868 8.28387C40.4812 8.26109 40.5788 8.24969 40.6797 8.24969C40.9857 8.24969 41.2445 8.37014 41.4561 8.61102C41.671 8.85191 41.8386 9.20022 41.959 9.65594C41.9753 9.70803 41.99 9.74221 42.003 9.75848C42.016 9.7715 42.0307 9.77802 42.0469 9.77802C42.0632 9.77802 42.0795 9.7715 42.0958 9.75848C42.1153 9.74221 42.1332 9.71128 42.1495 9.66571C42.2276 9.45412 42.3187 9.27509 42.4229 9.1286C42.5271 8.97886 42.6345 8.85842 42.7452 8.76727C42.8591 8.67287 42.9747 8.60451 43.0919 8.56219C43.209 8.51988 43.3214 8.49872 43.4288 8.49872C43.6273 8.49872 43.8064 8.57196 43.9659 8.71844C44.1286 8.86167 44.2719 9.08466 44.3956 9.38739C44.5225 9.68687 44.6316 10.0677 44.7227 10.53C44.8171 10.989 44.8952 11.5342 44.9571 12.1657C44.9571 12.3415 44.9034 12.4636 44.796 12.5319C44.6885 12.6035 44.5421 12.6393 44.3565 12.6393C44.2361 12.6393 44.1417 12.6133 44.0733 12.5612C44.0049 12.5091 43.9659 12.4408 43.9561 12.3561C43.9138 11.9037 43.8666 11.5016 43.8145 11.1501C43.7657 10.7953 43.712 10.4974 43.6534 10.2565C43.5948 10.0124 43.5297 9.82684 43.4581 9.69989C43.3897 9.57294 43.3132 9.50946 43.2286 9.50946C43.1863 9.50946 43.1325 9.54038 43.0674 9.60223C43.0056 9.66408 42.9389 9.77802 42.8672 9.94403C42.7956 10.1068 42.7208 10.3314 42.6426 10.6179C42.5645 10.9011 42.4896 11.264 42.418 11.7067C42.3985 11.8304 42.3383 11.9248 42.2374 11.9899C42.1397 12.055 42.0193 12.0876 41.876 12.0876C41.71 12.0876 41.5945 12.0615 41.5294 12.0095C41.4675 11.9574 41.4333 11.8695 41.4268 11.7458C41.4138 11.5309 41.391 11.3177 41.3585 11.1061C41.3292 10.8913 41.2917 10.6878 41.2462 10.4958C41.2006 10.3005 41.1501 10.1214 41.0948 9.95868C41.0394 9.79266 40.9809 9.64943 40.919 9.52899C40.8572 9.40529 40.7937 9.30927 40.7286 9.24091C40.6635 9.17255 40.6 9.13837 40.5381 9.13837C40.4568 9.13837 40.377 9.19533 40.2989 9.30927C40.224 9.4232 40.1557 9.58433 40.0938 9.79266C40.0352 10.001 39.988 10.2516 39.9522 10.5446C39.9164 10.8376 39.8985 11.1647 39.8985 11.5261C39.8985 11.5879 39.9001 11.6498 39.9034 11.7116C39.9066 11.7702 39.9083 11.8321 39.9083 11.8972C39.9083 11.9948 39.892 12.0746 39.8594 12.1364C39.8301 12.1983 39.7862 12.2471 39.7276 12.2829C39.6723 12.3187 39.6072 12.3431 39.5323 12.3561C39.4574 12.3692 39.376 12.3757 39.2881 12.3757C39.2068 12.3757 39.1417 12.3692 39.0928 12.3561C39.044 12.3464 39.0066 12.3301 38.9805 12.3073C38.9545 12.2845 38.9366 12.2536 38.9268 12.2145C38.9171 12.1787 38.9105 12.1364 38.9073 12.0876ZM45.7676 10.7497C45.7058 9.98798 45.6342 9.23114 45.5528 8.47919C45.4747 7.72723 45.3591 6.97691 45.2061 6.22821C45.1996 6.20217 45.1964 6.17938 45.1964 6.15985C45.1964 6.13706 45.1964 6.11591 45.1964 6.09637C45.1964 6.0215 45.211 5.9564 45.2403 5.90106C45.2728 5.84572 45.3152 5.80015 45.3672 5.76434C45.4193 5.72528 45.4779 5.69598 45.543 5.67645C45.6114 5.65692 45.683 5.64716 45.7579 5.64716C45.9564 5.64716 46.0932 5.73993 46.168 5.92548C46.2006 6.01988 46.2331 6.15497 46.2657 6.33075C46.3015 6.50653 46.3373 6.70998 46.3731 6.9411C46.4122 7.17222 46.4496 7.42613 46.4854 7.70282C46.5212 7.97626 46.5554 8.25783 46.588 8.54755C46.5977 8.62893 46.6238 8.66962 46.6661 8.66962C46.7019 8.66962 46.7393 8.6452 46.7784 8.59637C47.2536 7.97137 47.8168 7.65887 48.4678 7.65887C48.712 7.65887 48.9398 7.71259 49.1514 7.82001C49.363 7.92743 49.5469 8.07391 49.7032 8.25946C49.8594 8.44501 49.9815 8.66473 50.0694 8.91864C50.1605 9.17255 50.2061 9.44598 50.2061 9.73895C50.2061 10.0124 50.1622 10.2663 50.0743 10.5007C49.9896 10.735 49.8708 10.9369 49.7178 11.1061C49.5648 11.2754 49.3825 11.4089 49.171 11.5065C48.9626 11.6009 48.7348 11.6481 48.4874 11.6481C48.1814 11.6481 47.8819 11.5895 47.5889 11.4724C47.296 11.3519 47.0193 11.1908 46.7589 10.989C46.7296 10.9629 46.6986 10.9499 46.6661 10.9499C46.6238 10.9499 46.5847 10.9727 46.5489 11.0182C46.4968 11.0768 46.4415 11.1159 46.3829 11.1354C46.3243 11.1517 46.2527 11.1599 46.168 11.1599C45.9109 11.1599 45.7774 11.0231 45.7676 10.7497ZM48.2969 8.56708C48.1667 8.56708 48.0365 8.598 47.9063 8.65985C47.7794 8.71844 47.6589 8.80308 47.545 8.91376C47.4311 9.02443 47.3253 9.1579 47.2276 9.31415C47.1332 9.46714 47.0534 9.63804 46.9883 9.82684C46.9818 9.83661 46.9769 9.85126 46.9737 9.87079C46.9704 9.89032 46.9688 9.9066 46.9688 9.91962C46.9688 9.97496 46.9883 10.0173 47.0274 10.0466C47.1446 10.1475 47.265 10.2419 47.3887 10.3298C47.5157 10.4177 47.641 10.4942 47.7647 10.5593C47.8884 10.6244 48.0105 10.6765 48.1309 10.7155C48.2514 10.7513 48.3637 10.7692 48.4678 10.7692C48.7022 10.7692 48.8796 10.7009 49.0001 10.5641C49.1238 10.4274 49.1856 10.2289 49.1856 9.96844C49.1856 9.76662 49.1628 9.58108 49.1172 9.4118C49.0717 9.23928 49.0098 9.09117 48.9317 8.96747C48.8536 8.84052 48.7592 8.74286 48.6485 8.6745C48.5411 8.60288 48.4239 8.56708 48.2969 8.56708ZM55.0108 10.8083C55.1052 10.7269 55.198 10.6862 55.2891 10.6862C55.3412 10.6862 55.3884 10.6992 55.4307 10.7253C55.473 10.7513 55.5202 10.792 55.5723 10.8474C55.6212 10.9222 55.6553 10.9841 55.6749 11.0329C55.6977 11.0785 55.709 11.124 55.709 11.1696C55.709 11.2673 55.6602 11.36 55.5626 11.4479C55.4063 11.5781 55.237 11.6953 55.0547 11.7995C54.8725 11.9004 54.682 11.9867 54.4835 12.0583C54.2849 12.1299 54.0798 12.1836 53.8682 12.2194C53.6566 12.2585 53.4467 12.278 53.2383 12.278C52.9747 12.278 52.7273 12.2438 52.4962 12.1755C52.265 12.1104 52.0583 12.016 51.876 11.8923C51.697 11.7686 51.5456 11.6205 51.4219 11.4479C51.2982 11.2722 51.2103 11.0752 51.1583 10.8571C51.129 10.766 51.1013 10.7074 51.0753 10.6813C51.0525 10.652 51.0134 10.6374 50.9581 10.6374C50.8376 10.6374 50.7449 10.6081 50.6797 10.5495C50.6146 10.4909 50.5821 10.4063 50.5821 10.2956C50.5821 10.25 50.5853 10.2207 50.5919 10.2077L50.6016 10.11C50.6179 9.99286 50.6488 9.90822 50.6944 9.85614C50.7432 9.80406 50.8181 9.77802 50.919 9.77802H50.9922C51.129 9.77802 51.225 9.71454 51.2803 9.58759C51.3812 9.36298 51.5098 9.1579 51.6661 8.97235C51.8223 8.7868 51.9981 8.62893 52.1934 8.49872C52.3887 8.36525 52.5971 8.26272 52.8184 8.1911C53.043 8.11623 53.2709 8.0788 53.502 8.0788C53.7429 8.0788 53.9675 8.1146 54.1758 8.18622C54.3874 8.25458 54.5714 8.35061 54.7276 8.4743C54.8839 8.598 55.0059 8.74286 55.0938 8.90887C55.185 9.07489 55.2305 9.25393 55.2305 9.44598C55.2305 9.57945 55.2045 9.70152 55.1524 9.81219C55.1003 9.92287 55.0255 10.0205 54.9278 10.1052C54.8301 10.1865 54.7113 10.2533 54.5714 10.3054C54.4346 10.3574 54.2784 10.3916 54.1026 10.4079L52.4083 10.5788C52.3432 10.5788 52.2894 10.5951 52.2471 10.6276C52.2081 10.6602 52.1885 10.7041 52.1885 10.7595C52.1885 10.8441 52.2195 10.9255 52.2813 11.0036C52.3464 11.0817 52.4311 11.1517 52.5352 11.2136C52.6426 11.2722 52.7647 11.3194 52.9014 11.3552C53.0414 11.391 53.1846 11.4089 53.3311 11.4089C53.4711 11.4089 53.6143 11.3959 53.7608 11.3698C53.9105 11.3405 54.057 11.2998 54.2003 11.2477C54.3467 11.1957 54.4883 11.1338 54.6251 11.0622C54.7618 10.9873 54.8904 10.9027 55.0108 10.8083ZM53.9219 9.54852C53.9708 9.53876 54.0131 9.51597 54.0489 9.48016C54.0847 9.4411 54.1026 9.3939 54.1026 9.33856C54.1026 9.28973 54.0847 9.24416 54.0489 9.20184C54.0131 9.15953 53.9643 9.12209 53.9024 9.08954C53.8406 9.05373 53.7689 9.02606 53.6876 9.00653C53.6062 8.987 53.5199 8.97723 53.4288 8.97723C53.2953 8.97723 53.1586 8.99677 53.0186 9.03583C52.8786 9.07489 52.7517 9.12697 52.6378 9.19208C52.5238 9.25393 52.4311 9.32391 52.3594 9.40204C52.2878 9.47691 52.252 9.55178 52.252 9.62665C52.252 9.70152 52.2976 9.73895 52.3887 9.73895C52.4441 9.73895 52.5336 9.73244 52.6573 9.71942C52.781 9.7064 52.9177 9.69175 53.0674 9.67548C53.2172 9.65594 53.3686 9.63479 53.5215 9.612C53.6745 9.58921 53.808 9.56805 53.9219 9.54852Z" fill="#1E1E1E"/>
<path d="M25.6581 32.1924C35.9389 34.2009 43.4723 33.2202 57.5739 32.1924C62.3893 30.2593 67.3623 33.2674 68.4357 42.6027C68.5933 51.7683 68.1009 55.5779 68.4357 63.4139C69.2235 67.5158 63.6104 73.7865 57.5739 73.8242C49.3315 75.2764 45.4713 76.738 25.6581 73.8242C20.3306 72.8153 12.4231 67.4592 14.7865 63.4139C13.6343 60.321 12.5117 55.1913 14.7865 42.6027C16.3621 33.1071 17.6127 34.8421 25.6581 32.1924Z" fill="white"/>
<path d="M25.6581 32.1924C36.4017 30.7496 48.1695 30.5139 57.5739 32.1924M25.6581 32.1924C35.998 32.777 44.9986 32.0792 57.5739 32.1924M25.6581 32.1924C17.9475 31.6832 15.9485 36.9355 14.7865 42.6027M25.6581 32.1924C17.8096 30.3442 12.6791 37.5013 14.7865 42.6027M57.5739 32.1924C66.0821 32.7016 68.8197 37.1335 68.4357 42.6027M57.5739 32.1924C65.3829 31.7963 68.8 34.6724 68.4357 42.6027M68.4357 42.6027C69.4598 48.3642 69.7454 54.2955 68.4357 63.4139M68.4357 42.6027C68.475 47.5061 67.7759 53.9277 68.4357 63.4139M68.4357 63.4139C69.0364 71.9477 65.117 72.7021 57.5739 73.8242M68.4357 63.4139C69.6863 69.0811 65.1663 75.9648 57.5739 73.8242M57.5739 73.8242C46.3379 72.5229 38.0463 74.2014 25.6581 73.8242M57.5739 73.8242C48.7899 74.522 39.7991 74.0411 25.6581 73.8242M25.6581 73.8242C17.977 73.1736 15.5053 70.0995 14.7865 63.4139M25.6581 73.8242C19.6807 74.9275 13.9987 68.9774 14.7865 63.4139M14.7865 63.4139C15.6924 59.3969 13.4373 54.4746 14.7865 42.6027M14.7865 63.4139C14.363 57.841 14.0085 50.401 14.7865 42.6027" stroke="#1E1E1E" stroke-linecap="round"/>
<path d="M29.7582 35.923C30.5952 35.9418 31.6095 36.2625 32.2398 36.8942C32.87 37.526 33.451 38.7707 33.5396 39.6948C33.6184 40.6189 33.2541 41.7505 32.7617 42.4483C32.2595 43.1461 31.4323 43.6836 30.5559 43.9005C29.6696 44.1079 28.3402 44.1456 27.4933 43.7402C26.6464 43.3347 25.8881 42.3351 25.4942 41.477C25.0905 40.6189 24.8541 39.4025 25.0905 38.5821C25.3367 37.7618 26.1639 37.0828 26.9517 36.5736C27.7395 36.055 29.3348 35.6212 29.8271 35.4798C30.3097 35.3289 29.9256 35.5835 29.8862 35.6872M29.3151 35.2629C30.1127 35.2346 31.0581 35.9136 31.8557 36.5736C32.6632 37.2337 33.8351 38.3275 34.1305 39.2328C34.4358 40.138 34.2487 41.213 33.6874 41.9768C33.1261 42.75 31.7376 43.5516 30.7627 43.8627C29.7877 44.1739 28.675 44.1362 27.8281 43.8344C26.9812 43.5233 26.0949 42.7123 25.701 42.0145C25.3071 41.3073 25.317 40.5246 25.4745 39.6288C25.6223 38.7424 25.9571 37.2997 26.607 36.6679C27.2569 36.0456 28.9803 36.0456 29.3643 35.8664C29.7484 35.6872 28.9409 35.5175 28.9212 35.6118" fill="white"/>
<path d="M29.512 35.5364C30.3589 35.4704 31.3436 36.0456 32.0625 36.6019C32.7912 37.1583 33.6479 38.0069 33.8646 38.865C34.0911 39.7326 33.8646 40.9773 33.3919 41.7694C32.9291 42.552 32.0034 43.2592 31.0482 43.5893C30.0832 43.9193 28.5076 43.957 27.6311 43.7307C26.7547 43.5138 26.1737 43.0424 25.7896 42.2314C25.4056 41.4205 25.1988 39.7608 25.3465 38.865C25.4844 37.9786 25.9964 37.3846 26.6562 36.9037C27.316 36.4133 28.7931 36.1116 29.3052 35.9513C29.8173 35.791 29.6696 35.9136 29.7483 35.9418M29.2067 35.3289C30.093 35.4326 31.6686 36.3945 32.4269 37.13C33.1753 37.8561 33.707 38.9499 33.7464 39.7326C33.776 40.5152 33.1457 41.1093 32.6238 41.8071C32.1019 42.5049 31.4027 43.6459 30.6051 43.9287C29.8173 44.2022 28.7636 43.8722 27.8478 43.4573C26.9418 43.0424 25.6419 42.2314 25.1299 41.4299C24.6178 40.6378 24.4898 39.5534 24.7753 38.6859C25.0609 37.8183 26.0358 36.7622 26.8335 36.253C27.641 35.7344 29.1181 35.6307 29.5908 35.6118C30.0635 35.5835 29.6006 36.1116 29.6696 36.121" stroke="#1E1E1E" stroke-linecap="round"/>
<path d="M40.4973 35.4184C41.3737 35.277 42.772 35.7107 43.5303 36.2011C44.2787 36.6914 44.8203 37.5023 45.0271 38.351C45.2241 39.2091 45.0862 40.4915 44.7415 41.3025C44.387 42.1134 43.8159 42.8584 42.9591 43.2167C42.0926 43.575 40.517 43.7165 39.5618 43.4619C38.6066 43.2073 37.7301 42.4152 37.2279 41.6985C36.7355 40.9913 36.4598 40.0672 36.5878 39.1903C36.7158 38.3227 37.3362 37.1346 38.0059 36.4557C38.6853 35.7862 40.2018 35.2958 40.6253 35.1355C41.0389 34.9752 40.4579 35.3524 40.5071 35.4938M41.679 35.2392C42.5456 35.3524 43.5894 36.0408 44.1802 36.7951C44.7711 37.5589 45.1354 38.9074 45.2241 39.822C45.3127 40.7273 45.3029 41.6137 44.712 42.2643C44.131 42.9244 42.6637 43.6505 41.7184 43.7542C40.773 43.8674 39.867 43.3582 39.03 42.915C38.2028 42.4718 37.0211 41.8871 36.6961 41.095C36.381 40.2935 36.7946 38.9451 37.1196 38.1341C37.4544 37.3232 37.9468 36.7385 38.6558 36.2482C39.3747 35.7579 40.8616 35.2675 41.4032 35.1921C41.9547 35.1261 41.9646 35.7484 41.935 35.8427" fill="white"/>
<path d="M41.157 35.1355C42.063 35.1732 43.2447 36.0785 43.9734 36.8046C44.7119 37.5307 45.5194 38.6056 45.549 39.4826C45.5785 40.3595 44.7119 41.4157 44.1605 42.0757C43.5992 42.7264 43.0379 43.179 42.2304 43.4053C41.4229 43.6316 40.1526 43.7259 39.3057 43.4147C38.4489 43.113 37.543 42.3681 37.1097 41.5571C36.6862 40.7462 36.509 39.5015 36.7453 38.5585C36.9817 37.6155 37.7892 36.4651 38.5277 35.8993C39.2564 35.343 40.6449 35.2204 41.1471 35.1921C41.6395 35.1638 41.4623 35.5882 41.5017 35.739M40.3298 35.5882C41.2062 35.3524 42.1811 35.2393 42.9 35.6259C43.6287 36.0031 44.387 36.946 44.6923 37.8607C44.9877 38.7848 45.0468 40.2558 44.7218 41.1422C44.387 42.038 43.5106 42.7735 42.7129 43.2073C41.9251 43.6316 40.7926 43.8297 39.9851 43.7259C39.1776 43.6222 38.5277 43.2827 37.8778 42.5849C37.2377 41.8777 36.0954 40.3973 36.1052 39.492C36.1249 38.5868 37.2869 37.8135 37.9664 37.1346C38.6557 36.4651 39.8473 35.6636 40.2116 35.4467C40.5661 35.2298 40.1624 35.7862 40.1132 35.8333" stroke="#1E1E1E" stroke-linecap="round"/>
<path d="M52.7564 34.6937C53.6131 34.524 54.8736 35.0049 55.6023 35.5613C56.3311 36.127 56.9022 37.136 57.1484 38.0507C57.4044 38.9748 57.5128 40.2572 57.1287 41.0682C56.7446 41.8791 55.7501 42.6052 54.8539 42.9258C53.9677 43.2464 52.6579 43.1615 51.7914 42.9729C50.9248 42.7749 50.0976 42.4355 49.6446 41.766C49.1916 41.1059 48.9553 39.9555 49.0636 38.9936C49.1621 38.0224 49.6249 36.6645 50.2847 35.9667C50.9543 35.2689 52.589 34.9578 53.0518 34.7975C53.5048 34.6466 53.0518 34.8823 53.0321 35.0143M53.879 35.1275C54.6865 35.1652 55.4645 35.4104 56.075 36.0893C56.6954 36.7682 57.4734 38.2864 57.562 39.2105C57.6408 40.1346 57.0992 41.0022 56.5772 41.6339C56.0553 42.2752 55.3758 42.7655 54.4403 43.0295C53.5147 43.2841 51.811 43.6142 50.9937 43.1898C50.1764 42.7655 49.8908 41.3133 49.556 40.493C49.2212 39.6631 48.7977 39.0314 49.0045 38.2393C49.2113 37.4378 50.0286 36.259 50.7968 35.7027C51.5649 35.1464 53.1306 35.0143 53.6033 34.9106C54.076 34.8163 53.5245 35.0803 53.623 35.0992" fill="white"/>
<path d="M52.3132 35.2407C53.1798 35.0332 54.6668 35.2501 55.5531 35.665C56.4394 36.0893 57.3158 36.9097 57.6309 37.7395C57.9362 38.5693 57.8377 39.8423 57.4241 40.6344C57.0007 41.4265 56.0061 42.0489 55.1296 42.4826C54.2532 42.9164 53.0124 43.3596 52.1754 43.237C51.3383 43.1144 50.5998 42.5015 50.0976 41.7566C49.5953 41.0116 49.2211 39.6726 49.162 38.7674C49.103 37.8621 49.1227 36.9474 49.7234 36.3251C50.3142 35.7027 52.2443 35.3067 52.7367 35.0521C53.2192 34.7881 52.6875 34.7598 52.6481 34.7786M52.7958 34.8541C53.6722 34.8258 54.9327 35.5519 55.7697 36.0045C56.6166 36.4477 57.6014 36.6928 57.8377 37.5509C58.074 38.409 57.6014 40.2667 57.1976 41.1436C56.7939 42.03 56.2719 42.5204 55.4251 42.8221C54.588 43.1333 53.042 43.2747 52.136 42.9918C51.23 42.6995 50.5604 41.8509 49.9991 41.0871C49.4476 40.3327 48.7288 39.3143 48.7878 38.4562C48.8371 37.5887 49.6249 36.4854 50.3241 35.9196C51.0331 35.3538 52.6185 35.2124 53.0321 35.0615C53.4457 34.9106 52.7958 34.9484 52.8056 35.0049" stroke="#1E1E1E" stroke-linecap="round"/>
<path d="M30.2065 45.6749C31.0337 45.6278 32.0677 46.2124 32.8456 46.8442C33.6236 47.4665 34.6182 48.5321 34.884 49.4279C35.1499 50.3143 34.9628 51.4176 34.4409 52.2002C33.919 52.9735 32.6979 53.775 31.7525 54.0861C30.817 54.4068 29.6649 54.3973 28.8081 54.0956C27.9514 53.7938 27.0356 53.0112 26.6023 52.2945C26.1789 51.5779 26.1099 50.6632 26.2478 49.7768C26.3955 48.8904 26.7992 47.5797 27.4787 46.9668C28.1582 46.3444 29.8717 46.2501 30.2951 46.071C30.7284 45.9012 30.0686 45.8446 30.0588 45.9295M29.9406 45.7032C30.886 45.6278 32.5994 46.5424 33.3281 47.1082C34.0569 47.6834 34.0962 48.3246 34.303 49.1262C34.5098 49.9371 34.9234 51.1724 34.5591 51.955C34.1947 52.7377 33.0426 53.4732 32.107 53.8127C31.1814 54.1427 29.8815 54.1333 28.9755 53.9824C28.0794 53.8221 27.2719 53.5769 26.7106 52.8792C26.1493 52.1814 25.5486 50.7952 25.6175 49.7862C25.6865 48.7867 26.297 47.4571 27.1242 46.8442C27.9514 46.2313 29.9997 46.2501 30.5708 46.1181C31.1518 45.9955 30.6299 46.0049 30.5807 46.0898" fill="white"/>
<path d="M30.2557 45.7126C31.1321 45.7787 32.5797 46.5896 33.3084 47.2874C34.0371 47.9758 34.5787 49.0507 34.6477 49.8711C34.7067 50.6821 34.1947 51.4647 33.6728 52.1719C33.1607 52.8886 32.3729 53.8976 31.5457 54.1616C30.7185 54.4351 29.6057 54.1993 28.7096 53.8033C27.8135 53.4167 26.6515 52.6057 26.169 51.8136C25.6864 51.0215 25.5486 49.8994 25.8046 49.0413C26.0606 48.1738 26.9174 47.1365 27.715 46.6085C28.5225 46.0898 30.0981 45.9672 30.6102 45.9107C31.1124 45.8541 30.7185 46.2596 30.7677 46.2879M30.236 45.9484C31.0435 45.8918 32.2843 46.6556 32.9342 47.212C33.5841 47.7683 34.0076 48.4095 34.1454 49.2676C34.2833 50.1351 34.1947 51.5496 33.7614 52.3794C33.3281 53.1998 32.3532 53.9636 31.5555 54.237C30.7579 54.5105 29.8027 54.3313 28.9656 54.0296C28.1286 53.7184 27.006 53.1998 26.5235 52.4171C26.0508 51.625 25.972 50.2294 26.1 49.2865C26.228 48.3341 26.6022 47.2497 27.3014 46.731C27.9907 46.2124 29.7928 46.3633 30.2557 46.1841C30.7185 46.005 30.108 45.6561 30.0686 45.6561" stroke="#1E1E1E" stroke-linecap="round"/>
<path d="M41.4392 45.8635C42.3157 45.9578 43.3792 46.6273 43.9799 47.3534C44.5806 48.0889 44.9745 49.3431 45.0434 50.2483C45.1124 51.1536 44.9745 52.1154 44.3935 52.7849C43.8125 53.4544 42.4831 54.1522 41.5476 54.2842C40.6121 54.4162 39.6076 54.0202 38.7804 53.577C37.9434 53.1432 36.8897 52.4643 36.5647 51.6533C36.2398 50.8424 36.4958 49.5505 36.8109 48.7302C37.126 47.9098 37.6873 47.2026 38.4554 46.7311C39.2137 46.2502 40.8189 45.9201 41.39 45.8541C41.9612 45.7881 41.8824 46.2502 41.8627 46.335M41.0946 45.939C41.9612 45.9861 43.0247 46.7405 43.7731 47.344C44.5215 47.9475 45.4767 48.7207 45.5752 49.5694C45.6737 50.4181 45.0631 51.5873 44.3836 52.436C43.6943 53.2847 42.3649 54.3502 41.4589 54.6614C40.5431 54.9726 39.6864 54.7651 38.9084 54.3125C38.1206 53.8504 37.1063 52.7378 36.7617 51.9079C36.4072 51.0876 36.6337 50.2578 36.8306 49.3431C37.0276 48.4378 37.1753 47.0045 37.9434 46.4482C38.7016 45.8918 40.8189 46.0427 41.4097 46.005C42.0006 45.9578 41.5673 46.071 41.4786 46.2124" fill="white"/>
<path d="M40.1098 46.0898C40.9764 45.8729 42.0498 45.8918 42.7982 46.3067C43.5466 46.7122 44.3049 47.6457 44.6102 48.5415C44.9154 49.4373 44.945 50.8046 44.6102 51.6722C44.2753 52.5491 43.4186 53.3318 42.621 53.7655C41.8233 54.1993 40.6613 54.3879 39.8243 54.2653C38.9774 54.1333 38.1994 53.709 37.5692 53.0017C36.9389 52.3039 36.0527 50.9461 36.0625 50.0408C36.0822 49.145 36.9882 48.2681 37.6578 47.5891C38.3373 46.9102 39.7159 46.2124 40.1394 45.9861C40.553 45.7692 40.2182 46.203 40.1788 46.2596M40.425 46.0992C41.262 45.9861 42.3157 46.137 43.0838 46.6273C43.8617 47.1082 44.8366 48.1832 45.0828 49.013C45.329 49.8428 45.0041 50.7952 44.5708 51.6062C44.1276 52.4077 43.2217 53.4355 42.4536 53.8315C41.6756 54.2276 40.8878 54.2276 39.9523 53.9824C39.0168 53.7467 37.4609 53.1338 36.8306 52.3794C36.1905 51.6156 36.033 50.3049 36.161 49.4373C36.2792 48.5698 36.8405 47.806 37.5593 47.1837C38.2782 46.5613 40.0409 45.9484 40.4939 45.6938C40.9469 45.4392 40.356 45.524 40.2773 45.6372" stroke="#1E1E1E" stroke-linecap="round"/>
<path d="M53.4489 45.7251C54.276 45.7628 55.1722 46.1211 55.8024 46.7906C56.4228 47.4696 57.1023 48.8369 57.1712 49.7515C57.25 50.6662 56.7576 51.6186 56.2259 52.2787C55.6941 52.9388 54.8964 53.4857 53.9708 53.7214C53.0451 53.9572 51.5089 54.1363 50.6817 53.712C49.8644 53.2971 49.3917 52.0429 49.047 51.2131C48.7122 50.3927 48.4069 49.5818 48.6334 48.7614C48.8599 47.9505 49.6379 46.8472 50.4257 46.3191C51.2135 45.7817 52.858 45.6779 53.3701 45.5931C53.8723 45.4988 53.4095 45.7251 53.4784 45.7534M53.5769 45.7439C54.5813 45.7817 55.6941 46.1211 56.3145 46.7529C56.9447 47.3847 57.2303 48.7048 57.3288 49.5158C57.4371 50.3267 57.5159 50.9114 56.9447 51.6375C56.3736 52.3635 54.8767 53.5234 53.9117 53.8911C52.9368 54.2495 51.9323 54.2212 51.1347 53.7968C50.3272 53.3725 49.4311 52.2221 49.0963 51.3263C48.7516 50.4305 48.8304 49.2518 49.0864 48.422C49.3523 47.5921 49.9431 46.8189 50.662 46.3474C51.3809 45.876 52.9368 45.6779 53.4193 45.5931C53.892 45.5082 53.6163 45.7062 53.5473 45.8477" fill="white"/>
<path d="M52.4148 45.5365C53.2912 45.4705 54.5419 46.0646 55.3592 46.5361C56.1667 47.0075 57.0727 47.4884 57.309 48.3465C57.5552 49.2046 57.2007 50.836 56.8068 51.6941C56.4031 52.5522 55.7728 53.1557 54.9259 53.4857C54.079 53.8252 52.6512 53.9572 51.7452 53.6837C50.8392 53.4197 50.0514 52.6276 49.5 51.8827C48.9485 51.1377 48.3675 50.0816 48.4266 49.2046C48.4857 48.3371 49.1651 47.2433 49.8643 46.6492C50.5635 46.0646 52.1785 45.8383 52.6216 45.6685C53.0648 45.4988 52.5231 45.5931 52.5231 45.6591M52.5724 45.81C53.4488 45.678 54.532 45.5554 55.2411 46.0269C55.9501 46.4889 56.6591 47.6582 56.8364 48.5917C57.0038 49.5252 56.6591 50.7511 56.2652 51.6281C55.8713 52.505 55.3001 53.4857 54.4729 53.844C53.6458 54.2023 52.2277 54.1175 51.2725 53.778C50.3173 53.4385 49.2045 52.4767 48.7417 51.7978C48.2789 51.1189 48.269 50.4682 48.4955 49.695C48.722 48.9123 49.3818 47.8468 50.0908 47.1207C50.7998 46.3946 52.3065 45.6119 52.7496 45.3291C53.1928 45.0556 52.7595 45.3385 52.7299 45.4516" stroke="#1E1E1E" stroke-linecap="round"/>
<path d="M30.2903 56.9217C31.216 56.8369 32.7719 57.5724 33.5006 58.1381C34.2293 58.6945 34.4853 59.4489 34.6921 60.2787C34.8989 61.1085 35.1254 62.3249 34.7414 63.1076C34.3573 63.8902 33.2839 64.6446 32.378 64.9935C31.472 65.333 30.1918 65.3424 29.2957 65.1538C28.3996 64.9652 27.533 64.5597 26.9914 63.8431C26.4498 63.1264 25.9574 61.8251 26.046 60.8539C26.1347 59.8921 26.7058 58.6568 27.5035 58.0438C28.3011 57.4403 30.2509 57.3366 30.8221 57.1952C31.3834 57.0537 30.9599 57.1197 30.9205 57.1952M31.4228 57.1386C32.4174 57.2706 33.5695 57.893 34.1111 58.6379C34.6528 59.3829 34.7414 60.6841 34.6528 61.6271C34.574 62.5606 34.1702 63.5979 33.6286 64.2674C33.087 64.9369 32.2598 65.4744 31.4031 65.6536C30.5562 65.8327 29.3056 65.8422 28.5276 65.3518C27.7497 64.8709 27.0111 63.7016 26.7354 62.7304C26.4695 61.7686 26.6566 60.4107 26.9126 59.562C27.1686 58.7039 27.6019 58.0344 28.2617 57.5912C28.9215 57.1575 30.3888 57.0349 30.8615 56.9217C31.3243 56.818 31.0092 56.7614 31.0486 56.9217" fill="white"/>
<path d="M30.5562 57.082C31.3933 57.016 32.6144 57.6855 33.284 58.2418C33.9635 58.7982 34.4558 59.5714 34.6036 60.4389C34.7513 61.3065 34.6233 62.636 34.1801 63.4376C33.737 64.2485 32.7719 65.0123 31.9447 65.2952C31.1274 65.5875 30.0836 65.4649 29.2268 65.1632C28.3701 64.8614 27.3164 64.2674 26.8339 63.4847C26.3612 62.702 26.2332 61.3819 26.371 60.4578C26.5089 59.5337 26.9619 58.4681 27.6611 57.9307C28.3701 57.3932 30.1426 57.412 30.6252 57.2423C31.0979 57.0726 30.5759 56.8934 30.5464 56.9123M30.182 56.8462C31.0585 56.5916 32.1614 56.7331 32.8802 57.2423C33.5991 57.7421 34.1013 58.9113 34.4854 59.8637C34.8596 60.8161 35.3618 62.0891 35.1452 62.9472C34.9285 63.8147 34.1112 64.6163 33.1757 65.0406C32.2402 65.4555 30.5562 65.663 29.5321 65.4744C28.508 65.2858 27.5626 64.6163 27.0111 63.8902C26.4695 63.1735 26.1347 61.976 26.243 61.1367C26.3612 60.3069 27.0604 59.5714 27.6906 58.883C28.311 58.2041 29.6306 57.2989 30.0146 57.0443C30.4085 56.7991 30.0836 57.3272 30.0245 57.3837" stroke="#1E1E1E" stroke-linecap="round"/>
<path d="M42.055 56.315C42.9314 56.3621 44.0146 57.0693 44.7237 57.6823C45.4327 58.3046 46.2303 59.1816 46.3091 60.0397C46.3977 60.9072 45.866 62.067 45.2259 62.8686C44.576 63.6701 43.3549 64.5942 42.439 64.8677C41.5331 65.1411 40.5582 64.9525 39.7605 64.5188C38.953 64.0756 37.9978 63.0477 37.6433 62.2179C37.2986 61.3975 37.4168 60.4452 37.6433 59.5588C37.86 58.6629 38.2046 57.3994 38.9826 56.8713C39.7605 56.3433 41.7596 56.4187 42.3307 56.3621C42.9117 56.315 42.4981 56.4187 42.439 56.5413M41.3755 56.3621C42.2519 56.2395 43.6995 56.5979 44.4282 57.1448C45.157 57.6917 45.6001 58.8327 45.738 59.6436C45.8857 60.4452 45.6395 61.3032 45.2751 62.001C44.9108 62.6894 44.3396 63.3966 43.542 63.7927C42.7443 64.1887 41.4149 64.5093 40.4695 64.3585C39.5242 64.2076 38.3425 63.6229 37.8698 62.8969C37.407 62.1708 37.5941 60.8318 37.6729 60.0208C37.7615 59.2099 37.7122 58.6818 38.3622 58.0312C39.0023 57.3711 41.0407 56.3715 41.5331 56.0981C42.0353 55.8246 41.4937 56.249 41.3558 56.3904" fill="white"/>
<path d="M41.2574 56.4185C42.1141 56.2959 43.2269 56.5034 44.0048 56.9937C44.7828 57.4746 45.6691 58.5119 45.9251 59.3511C46.1811 60.1904 45.9448 61.2182 45.5214 62.0197C45.1078 62.8307 44.2215 63.8019 43.4337 64.198C42.636 64.6034 41.7104 64.6412 40.7847 64.4149C39.8492 64.1791 38.4705 63.5662 37.86 62.8212C37.2593 62.0763 37.0328 60.8222 37.1313 59.9452C37.2396 59.0682 37.7615 58.2007 38.4607 57.5689C39.1697 56.9372 40.893 56.3808 41.3657 56.1451C41.8384 55.8999 41.3263 56.0319 41.2771 56.1262M42.4391 56.1168C43.3057 56.0885 44.4381 56.8146 45.029 57.5218C45.6198 58.2384 45.994 59.3983 45.9842 60.3884C45.9743 61.3785 45.482 62.7458 44.96 63.4625C44.4381 64.1697 43.7685 64.5469 42.8428 64.6789C41.927 64.8109 40.2825 64.7355 39.4356 64.2357C38.5887 63.7359 38.0963 62.5101 37.7418 61.6614C37.3873 60.8033 36.9934 59.9263 37.3282 59.1154C37.6532 58.295 38.8743 57.2106 39.7015 56.7863C40.5385 56.3619 41.9073 56.6826 42.3111 56.5788C42.7148 56.4845 42.0846 56.1073 42.1338 56.1922" stroke="#1E1E1E" stroke-linecap="round"/>
<path d="M53.7197 56.8116C54.6848 56.8399 55.8172 57.2453 56.4573 57.8677C57.0974 58.49 57.4815 59.7159 57.5799 60.5551C57.6882 61.3944 57.639 62.1582 57.0876 62.8937C56.5459 63.6292 55.2165 64.6382 54.2712 64.9682C53.3357 65.2888 52.2524 65.2511 51.4252 64.855C50.6079 64.4496 49.7216 63.4123 49.3474 62.5542C48.9831 61.6867 48.9831 60.5174 49.2292 59.6687C49.4754 58.8295 50.086 57.9808 50.8245 57.4905C51.5631 57.0002 53.1781 56.821 53.6803 56.7267C54.1727 56.623 53.8674 56.8116 53.828 56.9247M52.1638 56.5287C53.0205 56.3307 54.4484 56.491 55.2756 57.0662C56.1126 57.6508 56.8906 59.1124 57.1565 60.0082C57.4224 60.8946 57.1466 61.583 56.8709 62.4222C56.5952 63.2614 56.349 64.5722 55.5218 65.0342C54.7045 65.5057 52.9122 65.5528 51.9373 65.2134C50.9526 64.8833 50.1352 63.6952 49.6428 63.0068C49.1406 62.3185 48.9043 61.9507 48.9634 61.0832C49.0323 60.2157 49.505 58.5183 50.0269 57.8017C50.5587 57.0945 51.6813 57.0379 52.1146 56.8116C52.5479 56.5947 52.4592 56.4061 52.6266 56.4721" fill="white"/>
<path d="M52.8827 56.8587C53.769 56.7456 54.8916 56.7927 55.6203 57.2736C56.3392 57.764 57.0384 58.8672 57.2156 59.7819C57.4027 60.6966 57.127 61.9036 56.7232 62.7617C56.3195 63.6103 55.64 64.525 54.803 64.8833C53.9659 65.2417 52.6168 65.2039 51.6813 64.8928C50.7458 64.5816 49.6823 63.7046 49.1997 62.9974C48.7172 62.2996 48.6187 61.4887 48.8058 60.6683C48.9929 59.8573 49.6035 58.8012 50.3125 58.1129C51.0314 57.4245 52.6267 56.7833 53.0994 56.5381C53.5819 56.2929 53.2077 56.5475 53.188 56.6418M53.1486 56.6135C53.9856 56.5098 55.3052 57.2359 55.965 57.7828C56.6149 58.3297 56.9005 58.9804 57.0581 59.8856C57.2255 60.7814 57.3436 62.375 56.93 63.1954C56.5164 64.0064 55.4135 64.525 54.5863 64.7796C53.7591 65.0248 52.8827 64.9116 51.9767 64.6853C51.0708 64.459 49.6232 64.195 49.1505 63.4123C48.6877 62.6391 48.9831 60.8852 49.1604 59.9988C49.3376 59.1124 49.5543 58.6315 50.1943 58.094C50.8246 57.5659 52.5184 57.0284 52.9615 56.8021C53.4145 56.5758 52.8827 56.6701 52.8729 56.7361" stroke="#1E1E1E" stroke-linecap="round"/>
<path d="M20.3581 39.317C19.8855 40.1563 17.1872 42.1648 17.2857 44.2393C17.3743 46.3044 20.4074 50.51 20.9194 51.7359M21.2247 38.9964C20.9391 39.6942 18.3 41.3633 18.2311 43.5698C18.1523 45.7858 20.4369 50.8589 20.7816 52.2639" stroke="#1E1E1E" stroke-linecap="round"/>
<path d="M20.7358 58.8114C21.0509 58.0664 23.0204 56.454 23.109 54.3134C23.1878 52.1729 21.5925 47.2223 21.2478 45.9776M20.0267 59.726C20.4699 59.0848 23.8771 57.0952 24.0445 54.8603C24.2218 52.6161 21.5432 47.7787 21.0607 46.2888" stroke="#1E1E1E" stroke-linecap="round"/>
<path d="M19.7499 54.5773C19.2674 55.2563 17.7312 57.0573 17.741 59.245C17.7509 61.4421 19.4348 66.2795 19.8188 67.7317M20.5672 55.5014C20.0158 56.2275 17.7607 57.5665 17.5638 59.7071C17.3668 61.8382 18.9621 67.0905 19.3954 68.3163" stroke="#1E1E1E" stroke-linecap="round"/>
<path d="M63.151 39.4294C62.698 40.2121 60.6104 42.1168 60.6596 44.2197C60.7088 46.3319 62.9836 50.6695 63.4661 52.0651M62.4912 38.9202C61.9792 39.7877 60.246 42.5978 60.3839 44.8609C60.5217 47.124 62.7374 51.3767 63.3184 52.4989" stroke="#1E1E1E" stroke-linecap="round"/>
<path d="M62.8047 54.2934C62.3812 55.0289 60.5299 56.5848 60.5201 58.6499C60.5004 60.7056 62.3025 65.3921 62.7161 66.6368M63.6516 54.0765C63.1887 54.614 60.461 55.5947 60.2246 57.7824C59.9883 59.9795 61.7609 65.7881 62.2335 67.2215" stroke="#1E1E1E" stroke-linecap="round"/>
<path d="M63.2133 59.3823C63.7746 58.6657 66.2168 57.2607 66.2266 55.1296C66.2266 52.9891 63.6269 47.9819 63.2231 46.5486M62.5338 58.958C63.0754 58.0905 65.8327 56.4403 65.882 54.4601C65.9214 52.4799 63.0951 48.3308 62.8095 47.0861" stroke="#1E1E1E" stroke-linecap="round"/>
<path d="M29.1553 37.5253C29.0962 37.9213 29.0272 39.3829 28.978 39.845M28.7121 37.3084C28.5841 37.7422 28.5152 39.7695 28.653 40.1844" stroke="#1E1E1E" stroke-linecap="round"/>
<path d="M41.3149 37.1423C41.3543 37.6704 41.4134 39.6883 41.3051 40.1221M40.9998 36.8123C41.0097 37.2743 41.118 39.132 41.1869 39.66" stroke="#1E1E1E" stroke-linecap="round"/>
<path d="M53.7635 36.8978C53.6552 37.3976 53.4976 38.9818 53.5469 39.4155M54.3248 36.6998C54.2953 37.2844 54.2559 39.5004 54.1968 39.8682" stroke="#1E1E1E" stroke-linecap="round"/>
<path d="M52.7553 48.7988C52.7257 49.2326 52.5879 51.2505 52.5091 51.6371M52.4106 48.4876C52.3318 48.8082 52.322 50.6659 52.2531 51.1373" stroke="#1E1E1E" stroke-linecap="round"/>
<path d="M52.3214 59.6231C52.3116 60.0946 52.7843 61.8674 52.8237 62.3389M52.7744 59.2931C52.735 59.8306 52.7744 62.3294 52.6956 62.7632" stroke="#1E1E1E" stroke-linecap="round"/>
<path d="M41.4892 59.2579C41.4498 59.654 41.1544 61.4833 41.0953 61.936M41.1347 59.8331C41.0461 60.2669 40.7999 61.8322 40.7605 62.2283" stroke="#1E1E1E" stroke-linecap="round"/>
<path d="M28.9362 60.0154C28.9855 60.4586 29.2316 62.2691 29.2119 62.75M29.4581 59.6665C29.5074 60.1757 29.0052 62.7123 29.0248 63.1649" stroke="#1E1E1E" stroke-linecap="round"/>
<path d="M30.7587 50.1656C30.7095 50.5899 30.286 51.929 30.2466 52.3816M30.4239 49.9299C30.483 50.4014 30.9261 52.2496 30.9064 52.655" stroke="#1E1E1E" stroke-linecap="round"/>
<path d="M39.763 49.0688C39.8319 49.4931 39.7236 50.9547 39.6645 51.3414M39.438 48.9274C39.5069 49.3989 39.5365 51.2659 39.4971 51.728" stroke="#1E1E1E" stroke-linecap="round"/>
<path fill-rule="evenodd" clip-rule="evenodd" d="M28.3263 70.5104C30.6897 70.02 37.327 66.9082 42.0932 66.8328C46.8593 66.7668 56.5788 69.0959 56.9432 70.1049C57.3075 71.1044 49.5379 72.6792 44.2891 72.8678C39.0404 73.0658 28.218 71.8777 25.4213 71.2459" fill="white"/>
<path d="M27.0068 70.7461C29.3702 70.1049 35.8794 66.465 41.0198 66.4462C46.1602 66.4179 57.5636 69.3317 57.8491 70.6141C58.1446 71.8871 47.8441 74.0936 42.7529 74.1125C37.6618 74.1313 29.9512 71.3307 27.3022 70.7178M27.9226 70.2652C30.4829 69.7183 37.13 67.012 42.0538 66.9271C46.9677 66.8422 57.3272 68.7187 57.4159 69.7749C57.5045 70.8215 47.7062 73.0375 42.6052 73.245C37.5042 73.443 29.3308 71.5382 26.8098 70.9818" stroke="#1E1E1E" stroke-linecap="round"/>
<path d="M31.5316 69.3387C32.3095 70.4325 33.2253 71.5264 33.7177 72.1864ZM31.5316 69.3387C32.1421 70.0365 32.6049 70.8474 33.7177 72.1864Z" stroke="#1E1E1E" stroke-linecap="round"/>
<path fill-rule="evenodd" clip-rule="evenodd" d="M33.3048 72.4538L37.7362 67.9182L39.686 72.7461" fill="white"/>
<path d="M33.9252 72.4821C35.2153 70.6999 36.3773 69.1817 37.2734 67.8616M33.9252 72.4821C35.1069 70.8319 36.3477 69.1629 37.2734 67.8616M33.9252 72.4821C35.3236 72.4255 37.4408 72.9347 39.5974 73.1045M33.9252 72.4821C36.6136 72.8404 38.1498 72.9064 39.5974 73.1045M37.2734 67.8616C37.8544 69.1157 38.3271 70.087 39.5974 73.1045M37.2734 67.8616C38.0415 69.8229 38.8687 71.5957 39.5974 73.1045" stroke="#1E1E1E" stroke-linecap="round"/>
<path fill-rule="evenodd" clip-rule="evenodd" d="M39.9362 73.1014L43.8555 67.4907L46.3666 73.3842" fill="white"/>
<path d="M40.2513 72.875C41.0982 71.5831 41.9156 69.8481 43.2253 67.3115M40.2513 72.875C40.9702 71.8 41.4527 70.4893 43.2253 67.3115M40.2513 72.875C43.1662 72.809 44.535 72.9693 45.9629 73.007M40.2513 72.875C42.6147 72.9693 44.2396 72.941 45.9629 73.007M43.2253 67.3115C43.5995 68.3865 44.3479 69.7349 45.9629 73.007M43.2253 67.3115C44.0623 69.0843 44.8994 70.9514 45.9629 73.007" stroke="#1E1E1E" stroke-linecap="round"/>
<path fill-rule="evenodd" clip-rule="evenodd" d="M46.4512 72.4463L48.9229 68.2784L51.5325 72.1634" fill="white"/>
<path d="M46.3723 72.8423C47.3866 71.0507 48.6372 69.0233 49.5531 67.9012M46.3723 72.8423C47.6623 70.8527 49.0114 68.797 49.5531 67.9012M46.3723 72.8423C48.785 72.3708 50.5181 72.0031 52.0445 71.8899M46.3723 72.8423C49.3758 72.2954 50.8332 72.1257 52.0445 71.8899M49.5531 67.9012C50.3606 69.5608 51.5816 70.947 52.0445 71.8899M49.5531 67.9012C50.2227 69.127 51.0203 70.2114 52.0445 71.8899" stroke="#1E1E1E" stroke-linecap="round"/>
</svg>
