<svg width="83" height="119" viewBox="0 0 83 119" fill="none" xmlns="http://www.w3.org/2000/svg">
<path d="M21.7619 1.6639C39.2205 0.749384 50.1174 0.268553 61.2097 1.6639C73.4834 -0.909953 80.9433 4.67145 80.9336 20.7086C79.8985 44.6558 83.941 73.2888 80.9336 97.5943C80.3868 108.201 75.241 115.112 61.2097 116.639C47.3541 120.024 36.506 114.659 21.7619 116.639C8.05279 116.743 5.49454 109.992 2.03798 97.5943C0.895555 80.869 0.661212 62.8802 2.03798 20.7086C2.54572 5.09572 11.1285 0.457114 21.7619 1.6639Z" fill="white"/>
<path d="M21.7618 1.66389C28.2258 -0.0237302 39.9234 3.16295 61.2096 1.66389M21.7618 1.66389C35.0608 2.239 46.8366 2.56898 61.2096 1.66389M21.7618 1.66389C8.52144 -0.184007 3.39518 7.04731 2.03795 20.7086M21.7618 1.66389C10.8453 1.37162 0.456128 10.0171 2.03795 20.7086M61.2096 1.66389C75.1823 2.55956 82.115 7.20759 80.9335 20.7086M61.2096 1.66389C72.917 -0.429136 79.5079 5.90652 80.9335 20.7086M80.9335 20.7086C79.6446 40.0549 80.8359 57.28 80.9335 97.5943M80.9335 20.7086C80.3086 37.877 81.5292 53.2636 80.9335 97.5943M80.9335 97.5943C82.5739 111.501 74.9285 115.234 61.2096 116.639M80.9335 97.5943C79.713 112.066 72.5655 114.838 61.2096 116.639M61.2096 116.639C45.6941 115.583 34.2992 118.393 21.7618 116.639M61.2096 116.639C48.4867 116.007 36.2618 117.148 21.7618 116.639M21.7618 116.639C6.73458 117.129 1.49114 110.577 2.03795 97.5943M21.7618 116.639C8.66791 118.27 2.82885 109.728 2.03795 97.5943M2.03795 97.5943C1.23727 71.3466 0.329192 47.0411 2.03795 20.7086M2.03795 97.5943C1.49114 73.6471 1.74502 48.8701 2.03795 20.7086" stroke="#1E1E1E" stroke-width="2" stroke-linecap="round"/>
<path d="M10.6454 84.8406C21.3764 84.8406 64.3198 84.8406 75.0507 84.8406" stroke="#1E1E1E" stroke-width="2" stroke-linecap="round"/>
<path d="M23.058 1.55719C32.8028 1.55719 42.5476 1.55719 58.5903 1.55719C61.0119 1.55719 62.2324 2.72627 62.2324 5.07385C62.2324 6.93118 62.2324 8.79793 62.2324 12.0978C62.2324 14.4359 61.0119 15.605 58.5903 15.605C44.9594 15.605 31.3186 15.605 23.058 15.605C20.6267 15.605 19.416 14.4359 19.416 12.0978C19.416 9.84445 19.416 7.60057 19.416 5.07385C19.416 2.72627 20.6267 1.55719 23.058 1.55719Z" fill="white"/>
<path d="M23.058 1.55719C30.9964 1.55719 38.9348 1.55719 58.5903 1.55719M23.058 1.55719C34.453 1.55719 45.8577 1.55719 58.5903 1.55719M23.058 1.55719C20.6267 1.55719 19.416 2.72627 19.416 5.07385M58.5903 1.55719C61.0119 1.55719 62.2324 2.72627 62.2324 5.07385M62.2324 5.07385C62.2324 7.23288 62.2324 9.40133 62.2324 12.0978M62.2324 5.07385C62.2324 7.69485 62.2324 10.3253 62.2324 12.0978M62.2324 12.0978C62.2324 14.4359 61.0119 15.605 58.5903 15.605M58.5903 15.605C49.9782 15.605 41.3759 15.605 23.058 15.605M58.5903 15.605C51.0425 15.605 43.4947 15.605 23.058 15.605M23.058 15.605C20.6267 15.605 19.416 14.4359 19.416 12.0978M19.416 12.0978C19.416 10.165 19.416 8.24168 19.416 5.07385M19.416 12.0978C19.416 9.64646 19.416 7.20459 19.416 5.07385" stroke="#1E1E1E" stroke-width="2" stroke-linecap="round"/>
<path d="M30.8951 10.6884C30.8332 9.92667 30.7616 9.16983 30.6802 8.41788C30.6021 7.66592 30.4866 6.9156 30.3336 6.1669C30.327 6.14086 30.3238 6.11807 30.3238 6.09854C30.3238 6.07575 30.3238 6.0546 30.3238 6.03506C30.3238 5.96019 30.3384 5.89509 30.3677 5.83975C30.4003 5.78441 30.4426 5.73884 30.4947 5.70303C30.5468 5.66397 30.6054 5.63467 30.6705 5.61514C30.7388 5.59561 30.8104 5.58585 30.8853 5.58585C31.0839 5.58585 31.2206 5.67862 31.2955 5.86417C31.328 5.95857 31.3606 6.09366 31.3931 6.26944C31.4289 6.44522 31.4647 6.64867 31.5005 6.87979C31.5396 7.11091 31.577 7.36482 31.6129 7.64151C31.6487 7.91495 31.6828 8.19652 31.7154 8.48624C31.7252 8.56762 31.7512 8.60831 31.7935 8.60831C31.8293 8.60831 31.8668 8.58389 31.9058 8.53506C32.3811 7.91006 32.9442 7.59756 33.5953 7.59756C33.8394 7.59756 34.0673 7.65128 34.2789 7.7587C34.4905 7.86612 34.6744 8.0126 34.8306 8.19815C34.9869 8.3837 35.1089 8.60342 35.1968 8.85733C35.288 9.11124 35.3336 9.38467 35.3336 9.67764C35.3336 9.95108 35.2896 10.205 35.2017 10.4394C35.1171 10.6737 34.9983 10.8756 34.8453 11.0448C34.6923 11.2141 34.51 11.3476 34.2984 11.4452C34.0901 11.5396 33.8622 11.5868 33.6148 11.5868C33.3088 11.5868 33.0093 11.5282 32.7164 11.411C32.4234 11.2906 32.1467 11.1295 31.8863 10.9276C31.857 10.9016 31.8261 10.8886 31.7935 10.8886C31.7512 10.8886 31.7121 10.9114 31.6763 10.9569C31.6242 11.0155 31.5689 11.0546 31.5103 11.0741C31.4517 11.0904 31.3801 11.0985 31.2955 11.0985C31.0383 11.0985 30.9048 10.9618 30.8951 10.6884ZM33.4244 8.50577C33.2942 8.50577 33.164 8.53669 33.0338 8.59854C32.9068 8.65714 32.7864 8.74177 32.6724 8.85245C32.5585 8.96312 32.4527 9.09659 32.355 9.25284C32.2606 9.40583 32.1809 9.57673 32.1158 9.76553C32.1093 9.7753 32.1044 9.78995 32.1011 9.80948C32.0979 9.82901 32.0963 9.84529 32.0963 9.85831C32.0963 9.91365 32.1158 9.95596 32.1548 9.98526C32.272 10.0862 32.3925 10.1806 32.5162 10.2685C32.6431 10.3564 32.7685 10.4329 32.8922 10.498C33.0158 10.5631 33.1379 10.6151 33.2584 10.6542C33.3788 10.69 33.4911 10.7079 33.5953 10.7079C33.8297 10.7079 34.0071 10.6396 34.1275 10.5028C34.2512 10.3661 34.313 10.1676 34.313 9.90714C34.313 9.70531 34.2903 9.51977 34.2447 9.35049C34.1991 9.17797 34.1373 9.02986 34.0591 8.90616C33.981 8.77921 33.8866 8.68155 33.7759 8.61319C33.6685 8.54158 33.5513 8.50577 33.4244 8.50577ZM38.6295 8.16397C38.509 8.16397 38.4032 8.19652 38.3121 8.26163C38.2209 8.32348 38.1428 8.41137 38.0777 8.5253C38.0126 8.63598 37.9589 8.76781 37.9166 8.92081C37.8742 9.07055 37.8401 9.23493 37.814 9.41397C37.788 9.59301 37.7701 9.78018 37.7603 9.97549C37.7505 10.1708 37.7457 10.3677 37.7457 10.5663C37.7457 10.8267 37.7554 11.0839 37.775 11.3378C37.7977 11.5885 37.8091 11.8212 37.8091 12.036C37.8091 12.176 37.7571 12.2851 37.6529 12.3632C37.5487 12.4446 37.4006 12.4853 37.2086 12.4853C37.1727 12.4853 37.1321 12.482 37.0865 12.4755C37.0409 12.469 36.997 12.456 36.9547 12.4364C36.9156 12.4169 36.8798 12.3892 36.8472 12.3534C36.8179 12.3209 36.8017 12.2753 36.7984 12.2167C36.7691 11.9302 36.7268 11.6373 36.6714 11.3378C36.6161 11.0383 36.5461 10.7405 36.4615 10.4442C36.3801 10.1448 36.2808 9.84854 36.1636 9.55557C36.0497 9.2626 35.9179 8.97615 35.7681 8.6962C35.7421 8.64737 35.7193 8.6018 35.6998 8.55948C35.6835 8.51716 35.6754 8.47647 35.6754 8.43741C35.6754 8.38858 35.6965 8.3365 35.7388 8.28116C35.7844 8.22256 35.8397 8.16885 35.9048 8.12003C35.9732 8.0712 36.0464 8.03214 36.1246 8.00284C36.206 7.97029 36.2841 7.95401 36.3589 7.95401C36.4826 7.95401 36.5917 8.04027 36.6861 8.2128C36.7805 8.38207 36.8684 8.65388 36.9498 9.02823C36.966 9.09333 36.9791 9.13891 36.9888 9.16495C36.9986 9.19099 37.0116 9.20401 37.0279 9.20401C37.0637 9.20401 37.0865 9.14867 37.0963 9.03799C37.1353 8.72875 37.202 8.46345 37.2964 8.2421C37.3908 8.01749 37.508 7.83357 37.648 7.69034C37.7912 7.54385 37.954 7.43643 38.1363 7.36807C38.3218 7.29971 38.5253 7.26553 38.7466 7.26553C38.8736 7.26553 39.0022 7.27693 39.1324 7.29971C39.2626 7.3225 39.3798 7.35668 39.4839 7.40225C39.5881 7.44783 39.6727 7.50316 39.7379 7.56827C39.803 7.63337 39.8355 7.70661 39.8355 7.78799C39.8355 7.84659 39.8225 7.91658 39.7964 7.99796C39.7737 8.07608 39.7427 8.15258 39.7037 8.22745C39.6646 8.29906 39.619 8.36091 39.567 8.41299C39.5181 8.46182 39.4677 8.48624 39.4156 8.48624C39.357 8.48624 39.3 8.46996 39.2447 8.43741C39.1894 8.4016 39.1291 8.36417 39.064 8.3251C39.0022 8.28604 38.9354 8.25023 38.8638 8.21768C38.7955 8.18187 38.7173 8.16397 38.6295 8.16397ZM43.6832 10.747C43.7776 10.6656 43.8703 10.6249 43.9615 10.6249C44.0136 10.6249 44.0608 10.6379 44.1031 10.664C44.1454 10.69 44.1926 10.7307 44.2447 10.786C44.2935 10.8609 44.3277 10.9228 44.3472 10.9716C44.37 11.0172 44.3814 11.0627 44.3814 11.1083C44.3814 11.206 44.3326 11.2987 44.2349 11.3866C44.0787 11.5168 43.9094 11.634 43.7271 11.7382C43.5448 11.8391 43.3544 11.9254 43.1558 11.997C42.9573 12.0686 42.7522 12.1223 42.5406 12.1581C42.329 12.1972 42.119 12.2167 41.9107 12.2167C41.647 12.2167 41.3996 12.1825 41.1685 12.1142C40.9374 12.0491 40.7307 11.9547 40.5484 11.831C40.3694 11.7073 40.218 11.5592 40.0943 11.3866C39.9706 11.2108 39.8827 11.0139 39.8306 10.7958C39.8013 10.7047 39.7737 10.6461 39.7476 10.62C39.7248 10.5907 39.6858 10.5761 39.6304 10.5761C39.51 10.5761 39.4172 10.5468 39.3521 10.4882C39.287 10.4296 39.2545 10.345 39.2545 10.2343C39.2545 10.1887 39.2577 10.1594 39.2642 10.1464L39.274 10.0487C39.2903 9.93155 39.3212 9.84691 39.3668 9.79483C39.4156 9.74275 39.4905 9.71671 39.5914 9.71671H39.6646C39.8013 9.71671 39.8974 9.65323 39.9527 9.52628C40.0536 9.30167 40.1822 9.09659 40.3384 8.91104C40.4947 8.72549 40.6705 8.56762 40.8658 8.43741C41.0611 8.30394 41.2694 8.20141 41.4908 8.12979C41.7154 8.05492 41.9433 8.01749 42.1744 8.01749C42.4153 8.01749 42.6399 8.05329 42.8482 8.12491C43.0598 8.19327 43.2437 8.2893 43.4 8.41299C43.5562 8.53669 43.6783 8.68155 43.7662 8.84756C43.8573 9.01358 43.9029 9.19262 43.9029 9.38467C43.9029 9.51814 43.8769 9.64021 43.8248 9.75089C43.7727 9.86156 43.6978 9.95922 43.6002 10.0439C43.5025 10.1252 43.3837 10.192 43.2437 10.244C43.107 10.2961 42.9507 10.3303 42.775 10.3466L41.0806 10.5175C41.0155 10.5175 40.9618 10.5338 40.9195 10.5663C40.8804 10.5989 40.8609 10.6428 40.8609 10.6982C40.8609 10.7828 40.8918 10.8642 40.9537 10.9423C41.0188 11.0204 41.1034 11.0904 41.2076 11.1523C41.315 11.2108 41.4371 11.258 41.5738 11.2939C41.7138 11.3297 41.857 11.3476 42.0035 11.3476C42.1435 11.3476 42.2867 11.3345 42.4332 11.3085C42.5829 11.2792 42.7294 11.2385 42.8726 11.1864C43.0191 11.1343 43.1607 11.0725 43.2974 11.0009C43.4341 10.926 43.5627 10.8414 43.6832 10.747ZM42.5943 9.48721C42.6431 9.47745 42.6854 9.45466 42.7213 9.41885C42.7571 9.37979 42.775 9.33259 42.775 9.27725C42.775 9.22842 42.7571 9.18285 42.7213 9.14053C42.6854 9.09822 42.6366 9.06078 42.5748 9.02823C42.5129 8.99242 42.4413 8.96475 42.3599 8.94522C42.2785 8.92569 42.1923 8.91592 42.1011 8.91592C41.9677 8.91592 41.831 8.93546 41.691 8.97452C41.551 9.01358 41.4241 9.06566 41.3101 9.13077C41.1962 9.19262 41.1034 9.2626 41.0318 9.34073C40.9602 9.4156 40.9244 9.49047 40.9244 9.56534C40.9244 9.64021 40.97 9.67764 41.0611 9.67764C41.1164 9.67764 41.206 9.67113 41.3297 9.65811C41.4533 9.64509 41.5901 9.63044 41.7398 9.61417C41.8895 9.59464 42.0409 9.57348 42.1939 9.55069C42.3469 9.5279 42.4804 9.50674 42.5943 9.48721ZM47.7603 7.54874C47.9394 7.54874 48.1119 7.57641 48.2779 7.63174C48.4439 7.68708 48.5904 7.76358 48.7173 7.86124C48.8443 7.95889 48.9452 8.07608 49.0201 8.2128C49.0982 8.34952 49.1373 8.50089 49.1373 8.6669C49.1373 8.73526 49.121 8.80199 49.0884 8.8671C49.0591 8.92894 49.0185 8.98428 48.9664 9.03311C48.9143 9.07868 48.8541 9.11612 48.7857 9.14542C48.7206 9.17146 48.6522 9.18448 48.5806 9.18448C48.5741 9.18448 48.5676 9.18611 48.5611 9.18936C48.5578 9.18936 48.553 9.18936 48.5464 9.18936C48.5399 9.19262 48.5334 9.19424 48.5269 9.19424L48.5464 9.58487C48.5595 10.0504 48.6246 10.3905 48.7418 10.6054C48.8622 10.8202 49.0185 10.9276 49.2105 10.9276C49.2789 10.9276 49.3391 10.9211 49.3912 10.9081C49.4465 10.8951 49.497 10.8804 49.5425 10.8642C49.5914 10.8446 49.6369 10.8284 49.6793 10.8153C49.7216 10.8023 49.7639 10.7958 49.8062 10.7958C49.8811 10.7958 49.9462 10.8284 50.0015 10.8935C50.0601 10.9586 50.0894 11.0367 50.0894 11.1278C50.0894 11.219 50.0536 11.3101 49.982 11.4013C49.9136 11.4924 49.8225 11.5754 49.7086 11.6503C49.5946 11.7219 49.466 11.7805 49.3228 11.8261C49.1796 11.8717 49.0347 11.8944 48.8882 11.8944C48.6343 11.8944 48.4114 11.7903 48.2193 11.5819C48.0272 11.3704 47.8905 11.0611 47.8091 10.6542C47.7896 10.5891 47.7636 10.5565 47.731 10.5565C47.692 10.5565 47.6578 10.5761 47.6285 10.6151C47.3062 11.022 46.9628 11.328 46.5982 11.5331C46.2336 11.7349 45.8739 11.8358 45.5191 11.8358C45.3531 11.8358 45.2033 11.8114 45.0699 11.7626C44.9364 11.7138 44.8225 11.6454 44.7281 11.5575C44.6369 11.4664 44.5653 11.3573 44.5132 11.2304C44.4644 11.1002 44.44 10.9553 44.44 10.7958C44.44 10.5712 44.4888 10.3352 44.5865 10.0878C44.6874 9.8404 44.8225 9.59626 44.9918 9.35538C45.161 9.11449 45.3563 8.885 45.5777 8.6669C45.8023 8.4488 46.0367 8.25674 46.2808 8.09073C46.5282 7.92471 46.7789 7.79288 47.0328 7.69522C47.2867 7.59756 47.5292 7.54874 47.7603 7.54874ZM47.5992 9.23819C47.6578 9.12751 47.7115 9.04776 47.7603 8.99893C47.8091 8.94685 47.8791 8.91267 47.9703 8.89639C48.0419 8.88663 48.0777 8.86384 48.0777 8.82803C48.0777 8.80199 48.0679 8.77432 48.0484 8.74503C47.9866 8.66039 47.9214 8.58715 47.8531 8.5253C47.7847 8.46019 47.6936 8.42764 47.5797 8.42764C47.456 8.42764 47.3176 8.46345 47.1646 8.53506C47.0116 8.60668 46.8554 8.70271 46.6959 8.82315C46.5396 8.94034 46.385 9.07543 46.232 9.22842C46.0823 9.37816 45.9488 9.53279 45.8316 9.69229C45.7144 9.8518 45.62 10.0097 45.5484 10.1659C45.4768 10.3222 45.441 10.4621 45.441 10.5858C45.441 10.6965 45.4703 10.7828 45.5289 10.8446C45.5907 10.9065 45.6737 10.9374 45.7779 10.9374C46.0448 10.9374 46.3362 10.7958 46.6519 10.5126C46.9677 10.2294 47.2834 9.8046 47.5992 9.23819ZM50.5435 11.7187C50.5435 11.4355 50.5354 11.1278 50.5191 10.7958C50.5028 10.4638 50.4817 10.1285 50.4556 9.78995C50.4328 9.44815 50.4068 9.11449 50.3775 8.78897C50.3515 8.46345 50.3254 8.1656 50.2994 7.89542C50.2766 7.62523 50.2571 7.39249 50.2408 7.19717C50.2245 7.00186 50.2164 6.86514 50.2164 6.78702C50.2164 6.65681 50.2652 6.55753 50.3629 6.48917C50.4605 6.42081 50.6021 6.38663 50.7877 6.38663C50.869 6.38663 50.9374 6.39477 50.9927 6.41104C51.0513 6.42732 51.0985 6.45499 51.1343 6.49405C51.1701 6.53311 51.1978 6.58519 51.2173 6.6503C51.2401 6.71215 51.2564 6.79027 51.2662 6.88467C51.2792 7.01488 51.2906 7.15486 51.3004 7.3046C51.3101 7.45108 51.3199 7.61872 51.3297 7.80753C51.3427 7.99633 51.3557 8.20954 51.3687 8.44717C51.3817 8.6848 51.398 8.95824 51.4175 9.26749C51.4175 9.31306 51.4257 9.34561 51.442 9.36514C51.4582 9.38467 51.4761 9.39444 51.4957 9.39444C51.5315 9.39444 51.564 9.36514 51.5933 9.30655C51.87 8.7434 52.1597 8.31371 52.4625 8.01749C52.7652 7.71801 53.0598 7.56827 53.3463 7.56827C53.5155 7.56827 53.649 7.61872 53.7466 7.71964C53.8443 7.82055 53.8931 7.95564 53.8931 8.12491C53.8931 8.3072 53.8524 8.47647 53.7711 8.63272C53.6929 8.78572 53.5936 8.93057 53.4732 9.06729C53.356 9.20401 53.2274 9.33259 53.0875 9.45303C52.9507 9.57348 52.8222 9.69066 52.7017 9.8046C52.5845 9.91853 52.4852 10.0308 52.4039 10.1415C52.3257 10.2489 52.2867 10.358 52.2867 10.4687C52.2867 10.5696 52.3453 10.6737 52.4625 10.7812C52.5829 10.8853 52.7554 10.9895 52.98 11.0937C53.2047 11.1946 53.4797 11.2939 53.8052 11.3915C54.1308 11.4859 54.5002 11.5771 54.9136 11.6649C54.9787 11.6812 55.0243 11.7073 55.0504 11.7431C55.0797 11.7789 55.0943 11.8261 55.0943 11.8847C55.0943 11.9563 55.078 12.0295 55.0455 12.1044C55.0129 12.1825 54.9722 12.2525 54.9234 12.3144C54.8746 12.3795 54.8192 12.4315 54.7574 12.4706C54.6988 12.5129 54.6418 12.5341 54.5865 12.5341C54.4758 12.5341 54.344 12.5194 54.191 12.4901C54.038 12.4608 53.872 12.4202 53.6929 12.3681C53.5172 12.3192 53.3349 12.2607 53.1461 12.1923C52.9573 12.1272 52.7733 12.0556 52.5943 11.9774C52.4185 11.9026 52.2509 11.8245 52.0914 11.7431C51.9351 11.6584 51.8 11.5754 51.6861 11.494C51.6503 11.4745 51.621 11.4582 51.5982 11.4452C51.5787 11.4322 51.5608 11.4257 51.5445 11.4257C51.525 11.4257 51.5136 11.4338 51.5103 11.4501C51.5071 11.4631 51.5054 11.4924 51.5054 11.538C51.5054 11.6519 51.4957 11.7447 51.4761 11.8163C51.4599 11.8879 51.4306 11.9433 51.3882 11.9823C51.3459 12.0246 51.2873 12.0539 51.2125 12.0702C51.1376 12.0865 51.0448 12.0946 50.9341 12.0946C50.7877 12.0946 50.6851 12.067 50.6265 12.0116C50.5712 11.9563 50.5435 11.8586 50.5435 11.7187Z" fill="#1E1E1E"/>
<path d="M46.9126 46.1016C49.9884 46.111 54.2847 47.8552 56.4719 50.0613C58.6493 52.2581 59.7527 56.2461 60.0163 59.3008C60.2897 62.3555 59.8601 65.891 58.0732 68.3989C56.2864 70.9068 52.4295 73.6126 49.2951 74.3669C46.1608 75.1117 42.2355 74.282 39.2672 72.8867C36.2988 71.4819 32.9302 68.6346 31.4948 65.957C30.0692 63.2889 29.786 59.7722 30.6746 56.8495C31.5534 53.9174 34.0433 50.1179 36.8066 48.402C39.5699 46.6767 45.4382 46.7898 47.2446 46.5258C49.0413 46.2618 47.5864 46.5258 47.6059 46.7898M43.6025 45.7433C46.6588 45.0079 50.5059 46.0638 53.3083 47.8363C56.1008 49.6088 59.3328 53.2574 60.3776 56.3593C61.4224 59.4611 61.0611 63.5717 59.5867 66.4284C58.1123 69.2851 54.4116 72.3115 51.5312 73.4995C48.6604 74.6874 45.4187 74.4046 42.3234 73.5749C39.2281 72.7358 35.0002 70.7465 32.9594 68.5026C30.9285 66.2587 29.9911 62.9683 30.1083 60.1211C30.2254 57.2644 31.4753 53.6157 33.6527 51.4001C35.8302 49.1845 41.4349 47.61 43.1729 46.8275C44.911 46.045 44.0126 46.507 44.0908 46.6767" stroke="#1E1E1E" stroke-width="2" stroke-linecap="round"/>
<path d="M31.2456 58.4751C31.4604 54.0816 31.2651 35.9798 32.1732 31.7089C33.091 27.438 35.8251 29.7573 36.7136 32.8308C37.5924 35.9043 37.2604 47.1237 37.485 50.1596M30.7086 58.23C30.8746 53.6762 30.9038 35.2255 31.8315 30.8603C32.7591 26.4857 35.3368 28.7485 36.2547 32.0011C37.1823 35.2632 37.1725 47.4254 37.3678 50.4047" stroke="#1E1E1E" stroke-width="2" stroke-linecap="round"/>
<path d="M38.2107 53.4234C38.3084 49.0016 37.9568 31.522 38.8356 27.1663C39.7242 22.8011 42.4777 24.0927 43.5225 27.2794C44.5575 30.4661 44.8407 43.1562 45.0653 46.2769M37.6346 53.0368C37.6249 48.4359 37.1464 30.6641 38.3084 26.4214C39.4605 22.1882 43.4249 24.451 44.5868 27.6094C45.739 30.7772 45.2996 42.2983 45.241 45.4095" stroke="#1E1E1E" stroke-width="2" stroke-linecap="round"/>
<path d="M45.4426 53.9316C45.511 49.425 45.179 30.9083 46.214 26.6563C47.249 22.4136 50.6275 25.1761 51.6625 28.4476C52.7073 31.7191 52.2288 43.2779 52.4632 46.3043M46.3117 53.6582C46.5265 49.1893 46.3507 31.4174 47.2002 27.09C48.0497 22.7531 50.5005 24.3747 51.3891 27.6651C52.2776 30.9649 52.3265 43.9096 52.5315 46.8794" stroke="#1E1E1E" stroke-width="2" stroke-linecap="round"/>
<path d="M51.8423 59.7432C52.0669 55.3403 52.3501 38.2944 53.3851 34.1366C54.4299 29.9789 57.037 31.6099 58.0915 34.7872C59.1363 37.9644 59.5171 50.2209 59.6733 53.2001M52.5942 60.6294C52.7797 56.0663 52.1743 37.9173 53.0336 33.4578C53.8831 28.9983 56.8124 30.7237 57.7107 33.8726C58.609 37.0216 58.3258 49.2026 58.4235 52.3516" stroke="#1E1E1E" stroke-width="2" stroke-linecap="round"/>
<path d="M31.9562 69.0437C30.2768 65.5364 21.1764 49.6502 20.698 46.0864C20.2195 42.5225 26.3515 45.1247 29.0758 47.642C31.8 50.1593 35.7253 58.9368 37.0239 61.1901M30.6771 68.5628C28.9098 64.7916 19.9852 48.0568 19.6923 44.295C19.3993 40.5332 26.0195 43.0128 28.9293 45.9921C31.8391 48.9713 35.5007 59.5873 37.1508 62.1612" stroke="#1E1E1E" stroke-width="2" stroke-linecap="round"/>
<path d="M47.5223 48.3717C50.0806 48.8148 53.4004 50.8324 55.0213 52.8312C56.6422 54.8299 57.355 58.0826 57.228 60.3642C57.0913 62.6458 55.9489 64.7954 54.2304 66.5207C52.5119 68.246 49.6509 70.4334 46.9169 70.7162C44.1927 71.0085 40.1405 69.5188 37.8459 68.2366C35.561 66.9544 33.8816 65.2385 33.1981 63.0323C32.5243 60.8262 32.7391 57.2058 33.7839 54.9996C34.8287 52.8029 37.0159 50.8513 39.4668 49.8142C41.9078 48.7771 46.9365 48.928 48.4499 48.7677C49.9634 48.6168 48.6257 48.7017 48.5573 48.8808M46.1944 47.9569C48.7038 47.9946 52.4338 49.9368 54.2694 51.813C56.1149 53.6797 57.1694 56.7721 57.2378 59.1763C57.3061 61.5804 56.3199 64.2863 54.6795 66.219C53.0391 68.1518 49.9243 70.2825 47.3954 70.7728C44.8567 71.2724 41.7614 70.3579 39.457 69.1983C37.1429 68.0292 34.5748 65.9173 33.5398 63.7866C32.495 61.6558 32.3681 58.7709 33.2176 56.4138C34.0573 54.0474 36.4593 50.8984 38.5977 49.6162C40.7459 48.334 44.8176 48.9563 46.0772 48.7206C47.3368 48.4848 45.9698 48.0606 46.1553 48.1926" fill="white"/>
<path d="M46.0186 48.2869C48.6257 48.268 52.0725 49.7576 53.9961 51.417C55.9294 53.0763 57.4624 55.8387 57.5893 58.224C57.7065 60.6188 56.3785 63.7489 54.7284 65.7476C53.0782 67.7558 50.2661 69.6131 47.6883 70.2542C45.1105 70.9048 41.5759 70.6502 39.2812 69.632C36.9866 68.6232 34.8775 66.3982 33.9206 64.1637C32.9735 61.9198 32.8856 58.4315 33.5594 56.2064C34.2331 53.972 35.7173 52.1052 37.9533 50.7665C40.1893 49.4277 45.4035 48.5226 46.9853 48.1643C48.5573 47.8155 47.4052 48.4377 47.3954 48.6451M43.021 48.7866C45.4816 48.2963 48.8796 48.8243 51.1937 49.9745C53.5078 51.1247 56.0563 53.3309 56.8961 55.6596C57.7358 57.9883 57.1695 61.703 56.2223 63.9563C55.2752 66.2096 53.5371 68.1612 51.2425 69.1889C48.9381 70.2071 44.9641 70.5559 42.4254 70.0751C39.8866 69.6037 37.553 68.0481 36.0004 66.3133C34.4382 64.5785 33.1981 61.9481 33.0614 59.676C32.9247 57.4132 33.4324 54.6508 35.1607 52.7181C36.889 50.7947 42.0445 48.8714 43.4311 48.1266C44.8274 47.3818 43.5092 47.9946 43.5092 48.2586" stroke="white" stroke-width="4" stroke-linecap="round"/>
<path d="M47.5218 46.5568C50.0898 46.7925 53.3414 48.5461 55.177 50.2903C57.0127 52.0439 58.3797 54.7309 58.5262 57.0313C58.6727 59.3318 57.706 62.3111 56.0754 64.1118C54.4545 65.9126 51.4568 67.2325 48.7814 67.8265C46.1158 68.411 42.5616 68.7316 40.0717 67.6568C37.5818 66.5725 34.9845 63.631 33.842 61.3494C32.6996 59.0678 32.3774 56.1828 33.2074 53.9672C34.0471 51.7516 36.4003 49.2815 38.8316 48.037C41.2727 46.7925 46.3306 46.6793 47.8245 46.5002C49.3282 46.3117 47.805 46.6511 47.805 46.9245M47.9515 47.0282C50.5097 47.3676 53.6733 48.4801 55.3919 50.1772C57.1006 51.8742 58.2333 54.8158 58.2333 57.201C58.2235 59.5958 57.2373 62.6693 55.3528 64.5172C53.4683 66.3651 49.6114 67.8925 46.9457 68.279C44.2801 68.675 41.7023 68.0622 39.3784 66.8742C37.0643 65.6769 34.0471 63.3481 33.0316 61.1325C32.0259 58.9264 32.3188 55.7774 33.3148 53.5901C34.3107 51.4122 36.5565 49.0646 38.9878 48.037C41.4191 47.0093 46.2329 47.6033 47.8831 47.4147C49.543 47.2356 48.8498 46.8773 48.9084 46.9528" fill="white"/>
<path d="M46.2818 46.2551C48.8693 46.2834 52.3357 48.0464 54.3471 49.6869C56.3488 51.3274 57.9208 53.8352 58.3212 56.098C58.7313 58.3607 58.2724 61.2834 56.7784 63.2633C55.2845 65.2526 52.0134 67.2702 49.3575 68.0245C46.7114 68.7787 43.3427 68.741 40.8724 67.7699C38.402 66.8082 35.9121 64.3381 34.5451 62.2356C33.1683 60.1238 32.1235 57.3142 32.6508 55.1269C33.1683 52.9396 35.4239 50.4883 37.6892 49.1212C39.9448 47.7447 44.5926 47.2639 46.2037 46.8773C47.8148 46.5002 47.2875 46.7265 47.3363 46.8302M45.071 46.8396C47.6586 46.9151 51.74 48.1407 54.0737 49.6492C56.3976 51.1577 58.5848 53.7504 59.0633 55.8811C59.5417 58.0119 58.5555 60.4443 56.9346 62.4242C55.3138 64.4041 52.0623 66.9308 49.338 67.7416C46.6138 68.5619 43.0693 68.1659 40.599 67.3268C38.1384 66.4971 35.9316 64.7246 34.5549 62.7542C33.1781 60.7837 31.7623 57.927 32.3481 55.5229C32.934 53.1093 35.7168 49.9415 38.0798 48.3293C40.433 46.7076 45.2175 45.9628 46.4771 45.812C47.7367 45.6611 45.6959 47.1413 45.6178 47.3959" stroke="white" stroke-width="4" stroke-linecap="round"/>
<path d="M37.7689 44.3259C37.681 45.2404 37.642 49.0682 37.5931 50.0204M37.349 44.0619C37.1928 44.9953 37.3588 49.2945 37.3393 50.341" stroke="#1E1E1E" stroke-width="2" stroke-linecap="round"/>
<path d="M37.6551 44.2156C37.5868 45.1773 37.4013 49.1842 37.4208 50.0893M38.1727 44.0271C38.2215 45.0453 38.1531 48.5997 38.0555 49.5802" stroke="#1E1E1E" stroke-width="2" stroke-linecap="round"/>
<path d="M45.5222 41.7937C45.444 42.8025 45.3659 46.9225 45.3366 47.9313M45.073 42.3876C44.9265 43.4624 45.0437 47.3751 45.0535 48.3273" stroke="#1E1E1E" stroke-width="2" stroke-linecap="round"/>
<path d="M46.4599 41.9323C46.4209 42.96 46.2939 47.1272 46.2549 48.1265M46.167 42.5734C46.0693 43.4974 46.1084 46.6275 46.0986 47.5797" stroke="#1E1E1E" stroke-width="2" stroke-linecap="round"/>
<path d="M52.79 42.9792C52.7118 43.8937 52.5263 47.5235 52.4287 48.4286M52.4873 42.8095C52.3408 43.7429 52.2724 47.7498 52.1846 48.7209" stroke="#1E1E1E" stroke-width="2" stroke-linecap="round"/>
<path d="M58.7432 48.8989C58.7335 49.8982 58.6944 53.6506 58.7628 54.5651M59.2119 48.682C59.1631 49.7474 58.4698 53.9334 58.4308 54.9234" stroke="#1E1E1E" stroke-width="2" stroke-linecap="round"/>
<path d="M59.5989 49.2415C59.5891 50.2503 59.5599 54.0781 59.472 55.0963M59.1888 48.9115C59.14 49.9957 59.1595 54.2949 59.2474 55.4357" stroke="#1E1E1E" stroke-width="2" stroke-linecap="round"/>
<path d="M31.489 51.1205C32.0065 51.9879 34.1352 55.5705 34.5941 56.4756M31.2059 50.9131C31.6648 51.9596 33.7739 55.8251 34.3988 56.8056" stroke="#1E1E1E" stroke-width="2" stroke-linecap="round"/>
<path d="M31.8822 50.1919C32.3997 51.097 34.5869 54.9436 35.0458 55.9713M31.5111 50.8047C31.9798 51.7381 34.1768 55.4904 34.8017 56.3201" stroke="#1E1E1E" stroke-width="2" stroke-linecap="round"/>
<path d="M29.7397 60.9141C30.5111 61.8381 33.499 65.6659 34.3192 66.5898M30.3061 60.5653C31.0189 61.5458 33.2647 65.9864 33.9775 67.0047" stroke="white" stroke-width="2" stroke-linecap="round"/>
<path d="M28.0669 56.2136C28.7602 57.2036 31.211 61.1916 31.8457 62.2099M27.7642 56.0628C28.4184 57.0999 30.8693 60.7674 31.5235 61.7196" stroke="white" stroke-width="2" stroke-linecap="round"/>
<path d="M28.1353 53.2789C28.8871 54.1934 31.6114 57.5592 32.3046 58.502M27.8814 53.0149C28.5649 53.986 31.2892 57.8892 31.9727 58.7849" stroke="white" stroke-width="2" stroke-linecap="round"/>
<path d="M28.4401 49.8015C28.9772 50.8292 30.8519 54.6287 31.3597 55.5621M28.1277 49.6318C28.6452 50.7161 30.6078 54.9304 31.1546 55.9203" stroke="white" stroke-width="2" stroke-linecap="round"/>
<path d="M46.4056 54.9605C46.6888 54.9887 47.011 55.2904 47.2844 55.5733C47.5675 55.8561 48.0265 56.271 48.0655 56.6575C48.1046 57.0441 47.6945 57.5626 47.5187 57.8737C47.3527 58.1848 47.3234 58.4583 47.05 58.5054C46.7766 58.562 46.181 58.3451 45.8685 58.2037C45.5463 58.0623 45.2827 57.9209 45.1558 57.6569C45.0191 57.3835 44.9898 56.9592 45.0679 56.5821C45.146 56.205 45.3901 55.6864 45.644 55.3941C45.8978 55.1019 46.4837 54.8567 46.5911 54.8285C46.6985 54.8096 46.2787 55.1773 46.2689 55.2716M46.2689 55.4036C46.5618 55.2999 47.4015 55.083 47.6749 55.2999C47.9483 55.5167 47.9386 56.2804 47.9093 56.7141C47.88 57.1478 47.6945 57.5532 47.4797 57.8737C47.2648 58.1943 46.8645 58.5337 46.6302 58.6468C46.3958 58.7505 46.2201 58.7222 46.0736 58.5148C45.9271 58.3074 45.8588 57.7794 45.7709 57.4117C45.6733 57.0346 45.5366 56.5632 45.517 56.2898C45.4975 56.0164 45.4292 55.8938 45.644 55.7618C45.8588 55.6204 46.718 55.5638 46.7962 55.479C46.884 55.3941 46.2494 55.3187 46.1322 55.2339" fill="white"/>
<path d="M46.4446 55.0736C46.7278 54.9416 46.7473 54.9604 47.0207 55.1302C47.2844 55.2999 48.0167 55.7618 48.085 56.1012C48.1436 56.4406 47.5675 56.8649 47.3918 57.176C47.2258 57.4872 47.2746 57.8266 47.05 57.968C46.8352 58.1094 46.3763 58.1 46.0736 58.0246C45.7709 57.9586 45.3608 57.7794 45.2534 57.5437C45.1362 57.308 45.3315 56.9309 45.4194 56.6292C45.5073 56.3181 45.644 55.941 45.7904 55.6958C45.9271 55.4507 46.1615 55.1961 46.2689 55.1584C46.386 55.1207 46.4056 55.4318 46.4544 55.4601M46.718 54.7907C47.0695 54.8096 47.4503 55.4413 47.5675 55.6393C47.6749 55.8373 47.3625 55.7335 47.3918 55.9881C47.4211 56.2332 47.7628 56.8178 47.753 57.1383C47.7433 57.4589 47.6749 57.7229 47.3234 57.9114C46.9817 58.1 45.9174 58.3734 45.6732 58.2791C45.4194 58.1848 45.9076 57.5909 45.8392 57.3363C45.7709 57.0912 45.3706 57.0629 45.2436 56.7801C45.1264 56.5066 44.9312 55.875 45.1264 55.677C45.3217 55.479 46.1126 55.7053 46.4153 55.5921C46.718 55.4884 46.9621 55.1113 46.9328 55.0264" stroke="#1E1E1E" stroke-width="2" stroke-linecap="round"/>
<path d="M46.8282 62.971C46.4962 63.6592 44.846 66.6008 44.4945 67.355M46.4279 62.707C46.0568 63.5932 44.4652 67.0628 44.1528 67.7604" stroke="#1E1E1E" stroke-width="2" stroke-linecap="round"/>
<path d="M54.9809 45.5459C55.2055 46.2907 56.3577 48.9023 56.5529 49.5811M55.4496 45.3857C55.6644 46.187 56.3772 49.138 56.4553 49.8828" stroke="white" stroke-width="2" stroke-linecap="round"/>
</svg>
