<svg width="82" height="119" viewBox="0 0 82 119" fill="none" xmlns="http://www.w3.org/2000/svg">
<path d="M21.6587 1.61782C36.2833 -1.88897 51.7366 4.11996 59.7034 1.61782C70.2881 4.96349 81.3248 8.16699 78.7257 20.763C82.4172 51.2057 82.1629 77.6962 78.7257 98.0545C77.1908 113.655 69.563 118.024 59.7034 117.2C47.8756 117.655 32.7519 114.423 21.6587 117.2C6.26189 115.92 4.54799 110.859 2.63634 98.0545C0.47043 72.5213 -1.06454 42.524 2.63634 20.763C-0.669028 9.92039 6.43139 4.63177 21.6587 1.61782Z" fill="white"/>
<path d="M21.6587 1.61782C34.56 3.19114 48.3842 0.869073 59.7034 1.61782M21.6587 1.61782C37.0084 1.76946 51.1528 2.84046 59.7034 1.61782M21.6587 1.61782C9.19059 3.17218 4.42558 7.97743 2.63635 20.763M21.6587 1.61782C9.01166 1.95902 2.44801 9.08634 2.63635 20.763M59.7034 1.61782C73.876 3.35226 79.8935 7.02017 78.7258 20.763M59.7034 1.61782C70.8343 -0.315653 79.6675 8.19542 78.7258 20.763M78.7258 20.763C77.6522 49.2343 79.3755 75.232 78.7258 98.0545M78.7258 20.763C78.9329 42.9411 79.0459 66.1807 78.7258 98.0545M78.7258 98.0545C78.0571 109.968 74.1962 118.185 59.7034 117.2M78.7258 98.0545C77.4733 110.84 71.0226 119.171 59.7034 117.2M59.7034 117.2C48.6855 117.171 36.0385 116.565 21.6587 117.2M59.7034 117.2C47.612 116.574 36.0385 116.811 21.6587 117.2M21.6587 117.2C7.23185 115.825 4.34083 111.921 2.63635 98.0545M21.6587 117.2C9.68969 119 1.996 108.992 2.63635 98.0545M2.63635 98.0545C2.09017 74.8623 3.92648 50.5802 2.63635 20.763M2.63635 98.0545C2.74936 77.4119 2.19375 56.0394 2.63635 20.763" stroke="#1E1E1E" stroke-width="2" stroke-linecap="round"/>
<path d="M10.9377 85.2335C21.287 85.2335 62.703 85.2335 73.0522 85.2335" stroke="#1E1E1E" stroke-width="2" stroke-linecap="round"/>
<path d="M22.9088 1.51056C33.2299 1.51056 43.5603 1.51056 57.1773 1.51056C59.5127 1.51056 60.6899 2.68581 60.6899 5.04578C60.6899 7.78487 60.6899 10.524 60.6899 12.1068C60.6899 14.4572 59.5127 15.6325 57.1773 15.6325C49.8697 15.6325 42.5527 15.6325 22.9088 15.6325C20.564 15.6325 19.3963 14.4572 19.3963 12.1068C19.3963 9.46244 19.3963 6.81813 19.3963 5.04578C19.3963 2.68581 20.564 1.51056 22.9088 1.51056Z" fill="white"/>
<path d="M22.9088 1.51056C33.0039 1.51056 43.0989 1.51056 57.1773 1.51056M22.9088 1.51056C34.972 1.51056 47.0352 1.51056 57.1773 1.51056M22.9088 1.51056C20.564 1.51056 19.3963 2.68581 19.3963 5.04578M57.1773 1.51056C59.5127 1.51056 60.6899 2.68581 60.6899 5.04578M60.6899 5.04578C60.6899 6.74231 60.6899 8.43884 60.6899 12.1068M60.6899 5.04578C60.6899 7.57636 60.6899 10.1069 60.6899 12.1068M60.6899 12.1068C60.6899 14.4572 59.5127 15.6325 57.1773 15.6325M57.1773 15.6325C46.3101 15.6325 35.4429 15.6325 22.9088 15.6325M57.1773 15.6325C44.0971 15.6325 31.0075 15.6325 22.9088 15.6325M22.9088 15.6325C20.564 15.6325 19.3963 14.4572 19.3963 12.1068M19.3963 12.1068C19.3963 9.94581 19.3963 7.79435 19.3963 5.04578M19.3963 12.1068C19.3963 10.6566 19.3963 9.21602 19.3963 5.04578" stroke="#1E1E1E" stroke-width="2" stroke-linecap="round"/>
<path d="M31.7 9.74091C31.6382 8.97919 31.5665 8.22235 31.4852 7.4704C31.407 6.71844 31.2915 5.96812 31.1385 5.21942C31.132 5.19338 31.1287 5.17059 31.1287 5.15106C31.1287 5.12828 31.1287 5.10712 31.1287 5.08759C31.1287 5.01272 31.1434 4.94761 31.1727 4.89227C31.2052 4.83693 31.2475 4.79136 31.2996 4.75555C31.3517 4.71649 31.4103 4.68719 31.4754 4.66766C31.5438 4.64813 31.6154 4.63837 31.6902 4.63837C31.8888 4.63837 32.0255 4.73114 32.1004 4.91669C32.133 5.01109 32.1655 5.14618 32.1981 5.32196C32.2339 5.49774 32.2697 5.70119 32.3055 5.93231C32.3445 6.16343 32.382 6.41734 32.4178 6.69403C32.4536 6.96747 32.4878 7.24904 32.5203 7.53876C32.5301 7.62014 32.5561 7.66083 32.5984 7.66083C32.6343 7.66083 32.6717 7.63641 32.7108 7.58759C33.186 6.96259 33.7492 6.65009 34.4002 6.65009C34.6443 6.65009 34.8722 6.7038 35.0838 6.81122C35.2954 6.91864 35.4793 7.06512 35.6356 7.25067C35.7918 7.43622 35.9139 7.65594 36.0018 7.90985C36.0929 8.16376 36.1385 8.43719 36.1385 8.73016C36.1385 9.0036 36.0945 9.25751 36.0067 9.49188C35.922 9.72626 35.8032 9.92808 35.6502 10.0974C35.4972 10.2666 35.3149 10.4001 35.1033 10.4977C34.895 10.5921 34.6671 10.6393 34.4197 10.6393C34.1137 10.6393 33.8143 10.5807 33.5213 10.4636C33.2283 10.3431 32.9516 10.182 32.6912 9.98016C32.6619 9.95412 32.631 9.9411 32.5984 9.9411C32.5561 9.9411 32.5171 9.96389 32.4813 10.0095C32.4292 10.0681 32.3738 10.1071 32.3152 10.1266C32.2567 10.1429 32.185 10.1511 32.1004 10.1511C31.8432 10.1511 31.7098 10.0143 31.7 9.74091ZM34.2293 7.55829C34.0991 7.55829 33.9689 7.58921 33.8387 7.65106C33.7117 7.70966 33.5913 7.79429 33.4774 7.90497C33.3634 8.01565 33.2576 8.14911 33.16 8.30536C33.0656 8.45835 32.9858 8.62925 32.9207 8.81805C32.9142 8.82782 32.9093 8.84247 32.9061 8.862C32.9028 8.88153 32.9012 8.89781 32.9012 8.91083C32.9012 8.96617 32.9207 9.00848 32.9598 9.03778C33.077 9.13869 33.1974 9.23309 33.3211 9.32098C33.4481 9.40887 33.5734 9.48537 33.6971 9.55048C33.8208 9.61558 33.9429 9.66766 34.0633 9.70673C34.1837 9.74253 34.296 9.76044 34.4002 9.76044C34.6346 9.76044 34.812 9.69208 34.9324 9.55536C35.0561 9.41864 35.118 9.22007 35.118 8.95966C35.118 8.75783 35.0952 8.57229 35.0496 8.40302C35.004 8.23049 34.9422 8.08238 34.8641 7.95868C34.7859 7.83173 34.6915 7.73407 34.5809 7.66571C34.4734 7.5941 34.3563 7.55829 34.2293 7.55829ZM37.8133 9.14032C37.8133 9.57652 37.88 9.91343 38.0135 10.1511C38.147 10.3887 38.3406 10.5075 38.5945 10.5075C38.754 10.5075 38.9005 10.4603 39.034 10.3659C39.1707 10.2715 39.2879 10.1397 39.3856 9.9704C39.4832 9.80113 39.5581 9.60093 39.6102 9.36981C39.6655 9.13544 39.6932 8.88153 39.6932 8.60809C39.6932 8.44208 39.6867 8.29885 39.6736 8.17841C39.6606 8.05471 39.646 7.94566 39.6297 7.85126C39.6167 7.7536 39.6037 7.66734 39.5906 7.59247C39.5776 7.5176 39.5711 7.44598 39.5711 7.37762C39.5711 7.27346 39.6151 7.19859 39.7029 7.15302C39.7908 7.10419 39.9308 7.07977 40.1229 7.07977C40.367 7.07977 40.5558 7.13511 40.6893 7.24579C40.826 7.35647 40.8943 7.5176 40.8943 7.72919C40.8943 8.30536 40.8374 8.82294 40.7234 9.28192C40.6128 9.74091 40.4516 10.1315 40.2401 10.4538C40.0317 10.7728 39.7778 11.0186 39.4783 11.1911C39.1789 11.3636 38.8436 11.4499 38.4725 11.4499C38.2088 11.4499 37.9647 11.3946 37.7401 11.2839C37.5187 11.1765 37.3266 11.0251 37.1639 10.8298C37.0044 10.6312 36.879 10.3968 36.7879 10.1266C36.6968 9.85321 36.6512 9.55373 36.6512 9.22821C36.6512 9.10451 36.6544 8.97268 36.6609 8.8327C36.6675 8.69273 36.6772 8.54299 36.6902 8.38348C36.7033 8.22072 36.7195 8.04494 36.7391 7.85614C36.7619 7.66734 36.7863 7.46226 36.8123 7.24091C36.8221 7.1465 36.866 7.07163 36.9442 7.0163C37.0255 6.9577 37.1281 6.92841 37.2518 6.92841C37.3624 6.92841 37.4666 6.9398 37.5643 6.96259C37.6619 6.98537 37.7449 7.0163 37.8133 7.05536C37.8849 7.09442 37.9402 7.13999 37.9793 7.19208C38.0216 7.24416 38.0428 7.2995 38.0428 7.35809C38.0428 7.41669 38.0298 7.50946 38.0037 7.63641C37.9809 7.76011 37.9549 7.90334 37.9256 8.0661C37.8996 8.22561 37.8735 8.39976 37.8475 8.58856C37.8247 8.77411 37.8133 8.95803 37.8133 9.14032ZM44.0682 7.06024C44.2244 7.06024 44.3725 7.07326 44.5125 7.0993C44.6525 7.12209 44.7794 7.14813 44.8934 7.17743C45.0073 7.20347 45.105 7.22951 45.1863 7.25555C45.2677 7.27834 45.3263 7.28973 45.3621 7.28973C45.3914 7.28973 45.4191 7.27509 45.4451 7.24579C45.4712 7.21324 45.5037 7.17906 45.5428 7.14325C45.5818 7.10744 45.6339 7.07489 45.699 7.04559C45.7641 7.01304 45.8504 6.99677 45.9578 6.99677C46.0815 6.99677 46.1792 7.02932 46.2508 7.09442C46.3224 7.15627 46.3582 7.2344 46.3582 7.3288C46.3582 8.5202 46.3175 9.53257 46.2361 10.3659C46.1548 11.196 46.0229 11.8714 45.8406 12.3923C45.6583 12.9131 45.4223 13.2907 45.1326 13.5251C44.8429 13.7595 44.4914 13.8766 44.0779 13.8766C43.8891 13.8766 43.6922 13.8343 43.4871 13.7497C43.2853 13.6651 43.0998 13.556 42.9305 13.4225C42.7612 13.2923 42.6212 13.1475 42.5106 12.988C42.4031 12.8285 42.3494 12.6755 42.3494 12.529C42.3494 12.4802 42.3755 12.4232 42.4276 12.3581C42.4796 12.293 42.5431 12.2295 42.618 12.1677C42.6929 12.1058 42.771 12.0537 42.8524 12.0114C42.9337 11.9691 43.0037 11.9479 43.0623 11.9479C43.1242 11.9479 43.1762 11.9724 43.2186 12.0212C43.2609 12.0733 43.2999 12.1367 43.3358 12.2116C43.3748 12.2865 43.4139 12.3679 43.4529 12.4557C43.492 12.5469 43.5408 12.6299 43.5994 12.7048C43.658 12.7796 43.7296 12.8415 43.8143 12.8903C43.8989 12.9424 44.0047 12.9684 44.1317 12.9684C44.8413 12.9684 45.258 11.8845 45.3817 9.71649C45.3817 9.61884 45.354 9.57001 45.2986 9.57001C45.2531 9.57001 45.2173 9.59279 45.1912 9.63837C44.8852 10.0518 44.5272 10.3627 44.117 10.571C43.7101 10.7761 43.2576 10.8786 42.7596 10.8786C42.5285 10.8786 42.3152 10.8444 42.1199 10.7761C41.9246 10.7044 41.7554 10.6068 41.6121 10.4831C41.4721 10.3561 41.3631 10.2064 41.285 10.0339C41.2068 9.85809 41.1678 9.66604 41.1678 9.4577C41.1678 9.25262 41.2036 9.0508 41.2752 8.85223C41.3501 8.65041 41.4526 8.46161 41.5828 8.28583C41.7163 8.10679 41.8742 7.9424 42.0565 7.79266C42.2387 7.64292 42.4373 7.51434 42.6522 7.40692C42.867 7.29624 43.0932 7.21161 43.3309 7.15302C43.5718 7.09117 43.8175 7.06024 44.0682 7.06024ZM42.9109 9.98016C43.3569 9.98016 43.7654 9.84019 44.1365 9.56024C44.5076 9.27704 44.825 8.86688 45.0887 8.32977C45.0952 8.31024 45.1001 8.29559 45.1033 8.28583C45.1066 8.27281 45.1082 8.25979 45.1082 8.24677C45.1082 8.21421 45.074 8.18003 45.0057 8.14423C44.9373 8.10842 44.8478 8.07749 44.7371 8.05145C44.6264 8.02541 44.4995 8.00425 44.3563 7.98798C44.2163 7.96844 44.0747 7.95868 43.9315 7.95868C43.7003 7.95868 43.4774 7.99774 43.2625 8.07587C43.0477 8.15399 42.8572 8.25816 42.6912 8.38837C42.5252 8.51858 42.3917 8.66669 42.2908 8.8327C42.1899 8.99872 42.1395 9.17124 42.1395 9.35028C42.1395 9.54234 42.2095 9.69533 42.3494 9.80927C42.4927 9.9232 42.6798 9.98016 42.9109 9.98016Z" fill="#1E1E1E"/>
<path d="M30.9671 50.2208C29.6769 49.7849 25.1097 50.3914 22.9438 48.439C20.7779 46.4866 18.7814 40.0322 17.9622 38.4968M30.3079 51.1781C28.9895 51.0265 24.6106 50.9601 22.5294 48.9224C20.4388 46.8847 18.4989 40.7051 17.7927 38.9517" stroke="#1E1E1E" stroke-width="2" stroke-linecap="round"/>
<path d="M30.0881 56.2519C28.6473 56.1666 23.8917 56.2614 21.3209 55.1904C18.7406 54.1194 15.8025 50.8022 14.6442 49.8354M30.8886 55.8633C29.4478 55.8823 23.8352 56.8964 21.0666 55.759C18.298 54.6122 15.4164 50.0155 14.2864 49.0203" stroke="#1E1E1E" stroke-width="2" stroke-linecap="round"/>
<path d="M30.311 60.2441C29.3128 60.8886 25.2352 61.7795 24.8209 63.9973C24.4065 66.2151 27.2693 71.9776 27.8343 73.532M31.0644 61.2298C30.0097 61.9501 24.9433 62.5093 24.576 64.4238C24.2182 66.3289 28.2581 71.1057 28.889 72.679" stroke="#1E1E1E" stroke-width="2" stroke-linecap="round"/>
<path fill-rule="evenodd" clip-rule="evenodd" d="M37.1676 45.8674C36.2259 45.4788 31.056 46.0285 29.6811 43.9434C28.3062 41.8488 28.4004 35.2333 28.9277 33.3283C29.4456 31.4232 32.2613 32.1151 32.8358 32.5227C33.4008 32.9207 32.3743 34.5225 32.3272 35.7356C32.2802 36.9488 32.638 39.2329 32.5721 39.7921C32.4968 40.3418 31.9977 38.5505 31.9129 39.0813C31.8376 39.6121 31.4515 42.5407 32.0918 42.9956C32.7322 43.4506 35.1994 42.1237 35.7645 41.8109" fill="white"/>
<path d="M35.5667 45.7158C34.3802 45.384 29.408 46.057 28.3721 44.2562C27.3362 42.4554 28.9183 36.6645 29.3326 34.9016C29.7564 33.1482 30.3968 33.3946 30.9053 33.6979C31.4138 34.0012 32.2896 35.9157 32.3932 36.7213C32.4968 37.5269 31.3385 38.0861 31.5174 38.5221C31.6963 38.9676 33.156 38.8444 33.4761 39.3562C33.8057 39.868 33.0335 41.0811 33.4667 41.6024C33.8905 42.1237 35.6044 42.3606 36.0564 42.4933M36.386 46.7299C35.1335 46.2086 29.0501 45.2798 27.8353 43.4127C26.63 41.5361 28.6358 37.0151 29.1255 35.4892C29.6152 33.9633 30.3308 34.0391 30.7829 34.2666C31.2255 34.4846 31.6021 35.9631 31.7999 36.8256C31.9977 37.6975 31.6398 38.9012 31.9694 39.4699C32.299 40.0386 33.5891 39.9059 33.7963 40.2376C34.0035 40.5693 32.9394 41.1759 33.203 41.4413C33.4667 41.7161 34.8133 41.7351 35.3784 41.8488" stroke="#1E1E1E" stroke-linecap="round"/>
<path d="M51.1657 50.7229C52.5877 50.5144 57.2962 51.6044 59.528 49.5856C61.7598 47.5763 63.6809 40.4395 64.5379 38.6198M50.5159 50.1827C51.9191 49.851 56.9854 50.7798 59.2643 48.9127C61.5432 47.0361 63.2666 40.6196 64.1894 38.961" stroke="#1E1E1E" stroke-width="2" stroke-linecap="round"/>
<path d="M52.1293 56.9246C53.6925 56.754 58.5894 56.517 61.1696 55.266C63.7499 54.0149 66.5373 50.4323 67.6109 49.4371M51.649 56.7161C53.1369 56.6023 58.1279 56.8582 60.7459 55.7019C63.3544 54.5551 66.1607 50.8588 67.3378 49.8162" stroke="#1E1E1E" stroke-width="2" stroke-linecap="round"/>
<path d="M51.4827 60.4145C52.4809 60.9357 57.3777 62.3385 57.8203 64.4425C58.2629 66.5466 54.6845 71.4656 54.1289 73.0389M50.8423 61.3149C51.7558 62.1205 56.9634 62.9166 57.4625 64.9164C57.9616 66.9257 54.2984 72.0058 53.8464 73.3422" stroke="#1E1E1E" stroke-width="2" stroke-linecap="round"/>
<path fill-rule="evenodd" clip-rule="evenodd" d="M46.9521 46.597C48.0256 46.4453 53.1391 47.63 53.9489 45.4881C54.7494 43.3461 52.2633 35.8396 51.783 33.7545C51.3027 31.6694 51.4817 32.3802 51.0673 32.9774C50.653 33.5745 49.2687 36.4557 49.3063 37.3466C49.3534 38.247 51.444 38.0101 51.331 38.3607C51.2274 38.7019 49.231 38.6166 48.6566 39.4317C48.0821 40.2374 48.1763 42.5594 47.8938 43.2134C47.6019 43.8579 46.9898 43.1565 46.9521 43.3176" fill="white"/>
<path d="M46.5001 45.9335C47.7243 45.6113 52.5364 45.6776 53.7041 43.9432C54.8718 42.1993 53.996 37.1192 53.5252 35.5079C53.0449 33.9062 51.4629 34.1147 50.8696 34.3232C50.2763 34.5222 50.1351 35.8681 49.975 36.7401C49.8149 37.612 50.1539 38.9768 49.9091 39.555C49.6548 40.1426 48.666 39.8203 48.4777 40.2279C48.2893 40.6354 49.1086 41.5832 48.8073 42.0002C48.5059 42.4267 47.1499 42.6542 46.679 42.7395M45.9257 46.8718C47.0934 46.6349 52.1032 46.3695 53.3463 44.3318C54.5987 42.3035 53.8077 36.4747 53.4122 34.6549C53.0167 32.8447 51.6512 33.1195 50.9826 33.4607C50.3046 33.7925 49.5041 35.707 49.3817 36.6832C49.2687 37.6499 50.3987 38.7588 50.2669 39.2801C50.1256 39.8014 48.6566 39.3844 48.5718 39.8203C48.4965 40.2468 50.1727 41.2515 49.7772 41.8865C49.3817 42.5215 46.792 43.5925 46.1893 43.6399" stroke="#1E1E1E" stroke-linecap="round"/>
<path d="M40.2857 41.2423C42.3575 40.8442 45.5687 41.4034 47.3202 42.8345C49.0718 44.2752 50.3713 47.2796 50.8139 49.8671C51.2471 52.445 50.8328 55.9044 49.9476 58.3402C49.0624 60.7665 47.3767 63.3255 45.5028 64.4629C43.6193 65.6002 40.7942 65.7519 38.6943 65.1832C36.5848 64.6051 34.1553 63.2023 32.8745 61.0224C31.5844 58.8331 30.7557 54.7292 30.9817 52.0754C31.2077 49.4216 32.5638 46.9668 34.2306 45.0997C35.8974 43.2326 39.9185 41.4413 40.9826 40.8726C42.0561 40.2945 40.6812 41.4508 40.6247 41.6688M42.235 41.2138C44.3633 41.1475 46.3409 42.7492 47.9229 44.4458C49.5144 46.1423 51.426 48.8624 51.7274 51.3835C52.0287 53.8951 51.0117 57.2977 49.731 59.5439C48.4503 61.7807 46.0489 63.9795 44.0243 64.8325C41.9996 65.695 39.5041 65.6571 37.5642 64.6904C35.6243 63.7331 33.3548 61.4774 32.4037 59.0605C31.4526 56.6437 31.4902 52.682 31.8481 50.1893C32.2059 47.6966 32.8275 45.5452 34.5414 44.0951C36.2553 42.645 40.9167 41.9057 42.1409 41.4697C43.3651 41.0243 42.075 41.3465 41.9055 41.4697" fill="white"/>
<path d="M42.8471 41.2802C44.8718 41.6119 47.7722 43.8013 49.2036 45.839C50.635 47.8767 51.4637 50.9381 51.4543 53.516C51.4449 56.094 50.5408 59.2975 49.166 61.3257C47.7911 63.3445 45.3897 65.1074 43.2144 65.6476C41.0485 66.1878 38.0727 65.9414 36.1611 64.5861C34.2588 63.2402 32.5355 60.0936 31.7727 57.5441C31.0006 54.9946 30.7651 51.8005 31.5656 49.27C32.3754 46.7394 34.7203 43.6212 36.6037 42.3512C38.4871 41.0906 41.783 41.7635 42.8471 41.6688C43.9113 41.574 42.9602 41.5929 42.9884 41.773M40.5211 40.7778C42.5176 40.266 44.8624 41.119 46.5104 42.6165C48.1583 44.114 49.8534 47.2417 50.4278 49.7628C51.0117 52.2839 50.8893 55.1746 50.0135 57.7431C49.1377 60.3116 47.0377 63.8658 45.1826 65.1832C43.318 66.5006 40.9732 66.2447 38.8449 65.6571C36.7261 65.06 33.7692 63.6952 32.4602 61.629C31.1512 59.5629 30.7275 55.9044 30.9911 53.2412C31.2548 50.5779 32.4508 47.6208 34.0328 45.6494C35.6149 43.6686 39.4099 42.1426 40.4741 41.3844C41.5288 40.6262 40.4741 40.9674 40.3799 41.1001" stroke="#1E1E1E" stroke-width="2" stroke-linecap="round"/>
<path d="M32.2897 50.0523C35.1901 50.0049 46.9425 49.3983 49.7959 49.3225M31.7435 49.7585C34.578 49.7774 46.66 49.6732 49.5416 49.73" stroke="#1E1E1E" stroke-width="2" stroke-linecap="round"/>
<path d="M41.2751 50.0688C41.4729 52.5235 41.8684 62.0582 41.859 64.4466M40.776 49.6233C40.9738 52.2013 41.6706 62.5321 41.6706 65.0816" stroke="#1E1E1E" stroke-width="2" stroke-linecap="round"/>
</svg>
