<svg width="83" height="119" viewBox="0 0 83 119" fill="none" xmlns="http://www.w3.org/2000/svg">
<path d="M21.2839 1.84913C34.4402 0.818418 43.0805 0.61984 59.8551 1.84913C72.8586 0.411805 80.0669 11.2674 79.1408 20.9505C82.0145 34.5956 82.4823 52.061 79.1408 98.0649C77.4032 110.868 75.2073 116.136 59.8551 117.166C54.0981 119.634 42.8323 115.691 21.2839 117.166C5.29214 118.651 2.25609 110.244 1.99831 98.0649C4.87206 68.5903 4.9198 39.6262 1.99831 20.9505C1.54004 8.4684 11.813 -0.15556 21.2839 1.84913Z" fill="white"/>
<path d="M21.2839 1.84913C37.0275 2.2652 51.1384 1.37633 59.8552 1.84913M21.2839 1.84913C32.292 1.21557 42.6509 1.85859 59.8552 1.84913M21.2839 1.84913C7.86994 2.09499 0.690343 8.51568 1.99833 20.9505M21.2839 1.84913C6.77199 4.00512 0.88129 6.54882 1.99833 20.9505M59.8552 1.84913C71.2929 0.165948 78.3197 8.95066 79.1408 20.9505M59.8552 1.84913C72.2094 2.48269 78.0142 9.56531 79.1408 20.9505M79.1408 20.9505C77.6323 38.7279 79.5418 54.6425 79.1408 98.0649M79.1408 20.9505C80.4297 44.2692 79.9714 67.8054 79.1408 98.0649M79.1408 98.0649C77.9283 111.984 73.3074 117.214 59.8552 117.166M79.1408 98.0649C78.0428 111.644 71.3883 115.18 59.8552 117.166M59.8552 117.166C44.7704 117.781 29.7333 115.88 21.2839 117.166M59.8552 117.166C46.5653 116.977 33.8005 116.741 21.2839 117.166M21.2839 117.166C7.78401 118.083 0.337092 112.419 1.99833 98.0649M21.2839 117.166C8.66237 118.131 -0.12118 109.734 1.99833 98.0649M1.99833 98.0649C2.49479 80.2496 3.14401 65.9709 1.99833 20.9505M1.99833 98.0649C2.92442 83.2189 2.28475 65.6683 1.99833 20.9505" stroke="#1E1E1E" stroke-width="2" stroke-linecap="round"/>
<path d="M10.4146 84.9552C20.9071 84.9552 62.8963 84.9552 73.3888 84.9552" stroke="#1E1E1E" stroke-width="2" stroke-linecap="round"/>
<path d="M22.5514 1.42407C32.4138 1.42407 42.2762 1.42407 57.2941 1.42407C59.6619 1.42407 60.8553 2.59663 60.8553 4.9512C60.8553 6.64384 60.8553 8.34594 60.8553 11.996C60.8553 14.3411 59.6619 15.5137 57.2941 15.5137C45.9996 15.5137 34.6956 15.5137 22.5514 15.5137C20.1741 15.5137 18.9902 14.3411 18.9902 11.996C18.9902 10.5492 18.9902 9.11188 18.9902 4.9512C18.9902 2.59663 20.1741 1.42407 22.5514 1.42407Z" fill="white"/>
<path d="M22.5514 1.42407C35.1157 1.42407 47.68 1.42407 57.2941 1.42407M22.5514 1.42407C33.0535 1.42407 43.5651 1.42407 57.2941 1.42407M22.5514 1.42407C20.1741 1.42407 18.9902 2.59663 18.9902 4.9512M57.2941 1.42407C59.6619 1.42407 60.8553 2.59663 60.8553 4.9512M60.8553 4.9512C60.8553 7.09773 60.8553 9.24426 60.8553 11.996M60.8553 4.9512C60.8553 7.6651 60.8553 10.3885 60.8553 11.996M60.8553 11.996C60.8553 14.3411 59.6619 15.5137 57.2941 15.5137M57.2941 15.5137C45.9424 15.5137 34.5906 15.5137 22.5514 15.5137M57.2941 15.5137C46.4197 15.5137 35.5358 15.5137 22.5514 15.5137M22.5514 15.5137C20.1741 15.5137 18.9902 14.3411 18.9902 11.996M18.9902 11.996C18.9902 9.24426 18.9902 6.502 18.9902 4.9512M18.9902 11.996C18.9902 9.90619 18.9902 7.80694 18.9902 4.9512" stroke="#1E1E1E" stroke-width="2" stroke-linecap="round"/>
<path d="M28.327 4.948C28.1629 4.948 28.0106 4.98755 27.8699 5.06665C27.7322 5.14282 27.6107 5.24976 27.5052 5.38745C27.4026 5.52222 27.3221 5.68188 27.2635 5.86646C27.2049 6.05103 27.1756 6.24878 27.1756 6.45972C27.1756 6.67651 27.2239 6.8772 27.3206 7.06177C27.4202 7.24341 27.5565 7.40308 27.7293 7.54077C27.9051 7.67554 28.1102 7.78101 28.3445 7.85718C28.5818 7.93335 28.8397 7.97144 29.118 7.97144C29.3201 7.97144 29.5106 7.95386 29.6893 7.9187C29.8709 7.88062 30.0291 7.83081 30.1639 7.76929C30.2986 7.70776 30.4056 7.63599 30.4847 7.55396C30.5638 7.46899 30.6033 7.37964 30.6033 7.28589C30.6033 7.21265 30.5901 7.15259 30.5638 7.10571C30.5374 7.05591 30.5067 7.01196 30.4715 6.97388C30.4393 6.93286 30.41 6.89331 30.3836 6.85522C30.3572 6.81421 30.3441 6.76294 30.3441 6.70142C30.3441 6.64282 30.3587 6.58716 30.388 6.53442C30.4173 6.48169 30.4568 6.43481 30.5067 6.3938C30.5594 6.35278 30.618 6.32056 30.6824 6.29712C30.7498 6.27368 30.8187 6.26196 30.889 6.26196C30.9739 6.26196 31.053 6.28394 31.1263 6.32788C31.2025 6.37183 31.2669 6.43335 31.3196 6.51245C31.3753 6.58862 31.4178 6.67944 31.4471 6.78491C31.4793 6.88745 31.4954 6.99731 31.4954 7.1145C31.4954 7.35181 31.4324 7.573 31.3065 7.77808C31.1805 7.98022 31.0062 8.15454 30.7835 8.30103C30.5609 8.44751 30.2972 8.56323 29.9925 8.64819C29.6878 8.73022 29.3568 8.77124 28.9993 8.77124C28.6038 8.77124 28.2391 8.71851 27.9051 8.61304C27.5711 8.50464 27.2825 8.35522 27.0394 8.16479C26.7991 7.97437 26.6116 7.74878 26.4769 7.48804C26.3421 7.22729 26.2747 6.94165 26.2747 6.6311C26.2747 6.29126 26.3333 5.97046 26.4505 5.6687C26.5706 5.36694 26.7332 5.10327 26.9383 4.87769C27.1434 4.6521 27.3821 4.47339 27.6546 4.34155C27.93 4.20972 28.223 4.1438 28.5335 4.1438C28.6712 4.1438 28.7972 4.15991 28.9114 4.19214C29.0286 4.22144 29.1297 4.26392 29.2147 4.31958C29.2996 4.37524 29.3655 4.44116 29.4124 4.51733C29.4622 4.59058 29.4871 4.67114 29.4871 4.75903C29.4871 4.82935 29.471 4.89673 29.4388 4.96118C29.4095 5.02271 29.3699 5.07837 29.3201 5.12817C29.2703 5.17505 29.2117 5.21313 29.1443 5.24243C29.0799 5.27173 29.011 5.28638 28.9378 5.28638C28.8616 5.28638 28.8001 5.2688 28.7532 5.23364C28.7093 5.19849 28.6683 5.1604 28.6302 5.11938C28.5921 5.07544 28.5511 5.03589 28.5071 5.00073C28.4632 4.96558 28.4031 4.948 28.327 4.948ZM34.1146 4.93921C34.2757 4.93921 34.431 4.96411 34.5804 5.01392C34.7298 5.06372 34.8616 5.13257 34.9759 5.22046C35.0901 5.30835 35.181 5.41382 35.2484 5.53687C35.3187 5.65991 35.3538 5.79614 35.3538 5.94556C35.3538 6.00708 35.3392 6.06714 35.3099 6.12573C35.2835 6.1814 35.2469 6.2312 35.2 6.27515C35.1531 6.31616 35.0989 6.34985 35.0374 6.37622C34.9788 6.39966 34.9173 6.41138 34.8528 6.41138C34.847 6.41138 34.8411 6.41284 34.8353 6.41577C34.8323 6.41577 34.8279 6.41577 34.8221 6.41577C34.8162 6.4187 34.8104 6.42017 34.8045 6.42017L34.8221 6.77173C34.8338 7.19067 34.8924 7.49683 34.9979 7.69019C35.1063 7.88354 35.2469 7.98022 35.4197 7.98022C35.4813 7.98022 35.5355 7.97437 35.5823 7.96265C35.6321 7.95093 35.6776 7.93774 35.7186 7.9231C35.7625 7.90552 35.8035 7.89087 35.8416 7.87915C35.8797 7.86743 35.9178 7.86157 35.9559 7.86157C36.0233 7.86157 36.0818 7.89087 36.1317 7.94946C36.1844 8.00806 36.2108 8.07837 36.2108 8.1604C36.2108 8.24243 36.1785 8.32446 36.1141 8.40649C36.0526 8.48853 35.9705 8.56323 35.868 8.63062C35.7654 8.69507 35.6497 8.7478 35.5208 8.78882C35.3919 8.82983 35.2615 8.85034 35.1297 8.85034C34.9012 8.85034 34.7005 8.75659 34.5276 8.56909C34.3548 8.37866 34.2318 8.10034 34.1585 7.73413C34.1409 7.67554 34.1175 7.64624 34.0882 7.64624C34.053 7.64624 34.0223 7.66382 33.9959 7.69897C33.7059 8.06519 33.3968 8.34058 33.0687 8.52515C32.7405 8.70679 32.4168 8.79761 32.0975 8.79761C31.9481 8.79761 31.8133 8.77563 31.6932 8.73169C31.5731 8.68774 31.4705 8.62622 31.3856 8.54712C31.3035 8.46509 31.2391 8.36694 31.1922 8.25269C31.1483 8.1355 31.1263 8.00513 31.1263 7.86157C31.1263 7.65942 31.1702 7.44702 31.2581 7.22437C31.3489 7.00171 31.4705 6.78198 31.6229 6.56519C31.7752 6.34839 31.951 6.14185 32.1502 5.94556C32.3524 5.74927 32.5633 5.57642 32.783 5.427C33.0057 5.27759 33.2313 5.15894 33.4598 5.07104C33.6883 4.98315 33.9066 4.93921 34.1146 4.93921ZM33.9695 6.45972C34.0223 6.36011 34.0706 6.28833 34.1146 6.24438C34.1585 6.19751 34.2215 6.16675 34.3035 6.1521C34.368 6.14331 34.4002 6.1228 34.4002 6.09058C34.4002 6.06714 34.3914 6.04224 34.3738 6.01587C34.3182 5.9397 34.2596 5.87378 34.1981 5.81812C34.1365 5.75952 34.0545 5.73022 33.952 5.73022C33.8406 5.73022 33.7161 5.76245 33.5784 5.8269C33.4407 5.89136 33.3001 5.97778 33.1566 6.08618C33.0159 6.19165 32.8768 6.31323 32.7391 6.45093C32.6043 6.58569 32.4842 6.72485 32.3787 6.86841C32.2733 7.01196 32.1883 7.15405 32.1238 7.29468C32.0594 7.4353 32.0272 7.56128 32.0272 7.67261C32.0272 7.77222 32.0535 7.84985 32.1063 7.90552C32.1619 7.96118 32.2366 7.98901 32.3304 7.98901C32.5706 7.98901 32.8328 7.86157 33.117 7.60669C33.4012 7.35181 33.6854 6.96948 33.9695 6.45972ZM39.2957 5.56763C39.3074 5.57349 39.325 5.57642 39.3484 5.57642C39.4129 5.57642 39.4451 5.53394 39.4451 5.44897V4.08228C39.4451 3.90942 39.4832 3.78638 39.5594 3.71313C39.6385 3.63989 39.7689 3.60327 39.9505 3.60327C40.1351 3.60327 40.2654 3.64136 40.3416 3.71753C40.4178 3.7937 40.4559 3.92407 40.4559 4.10864C40.4559 4.17896 40.4515 4.28296 40.4427 4.42065C40.4339 4.55542 40.4236 4.70923 40.4119 4.88208C40.4031 5.05493 40.3943 5.24097 40.3856 5.44019C40.3768 5.63647 40.3724 5.8313 40.3724 6.02466C40.3724 6.32349 40.3929 6.5813 40.4339 6.7981C40.4749 7.01489 40.5335 7.19507 40.6097 7.33862C40.6859 7.47925 40.7767 7.58472 40.8821 7.65503C40.9876 7.72241 41.1063 7.7561 41.2381 7.7561C41.3113 7.7561 41.3773 7.74731 41.4359 7.72974C41.4974 7.70923 41.5692 7.69897 41.6512 7.69897C41.7098 7.69897 41.7581 7.72974 41.7962 7.79126C41.8372 7.84985 41.8577 7.92163 41.8577 8.00659C41.8577 8.08276 41.8343 8.15454 41.7874 8.22192C41.7435 8.28931 41.6819 8.3479 41.6028 8.39771C41.5267 8.44751 41.4373 8.48706 41.3348 8.51636C41.2322 8.54272 41.1253 8.55591 41.014 8.55591C40.7737 8.55591 40.554 8.48267 40.3548 8.33618C40.1556 8.18677 40.0062 7.95972 39.9066 7.65503C39.8978 7.60815 39.8831 7.58472 39.8626 7.58472C39.8392 7.58472 39.8201 7.60815 39.8055 7.65503C39.7264 7.8689 39.6224 8.06226 39.4935 8.23511C39.3675 8.40503 39.2195 8.55151 39.0496 8.67456C38.8826 8.79468 38.6981 8.88696 38.4959 8.95142C38.2967 9.01587 38.0858 9.0481 37.8631 9.0481C37.6287 9.0481 37.4134 9.00854 37.2171 8.92944C37.0237 8.85327 36.8568 8.74634 36.7161 8.60864C36.5755 8.46802 36.4656 8.30396 36.3865 8.11646C36.3074 7.92603 36.2679 7.72095 36.2679 7.50122C36.2679 7.21997 36.3265 6.95483 36.4437 6.70581C36.5609 6.45679 36.7191 6.23999 36.9183 6.05542C37.1204 5.86792 37.3548 5.71997 37.6214 5.61157C37.888 5.50317 38.1722 5.44897 38.4739 5.44897C38.597 5.44897 38.7274 5.45923 38.8651 5.47974C39.0027 5.49731 39.1463 5.52661 39.2957 5.56763ZM38.0345 8.25708C38.2015 8.25708 38.3494 8.22046 38.4783 8.14722C38.6102 8.07397 38.7259 7.98169 38.8255 7.87036C38.928 7.7561 39.0145 7.63159 39.0848 7.49683C39.1551 7.35913 39.2122 7.22583 39.2562 7.09692C39.3001 6.96802 39.3323 6.85229 39.3528 6.74976C39.3734 6.64722 39.3836 6.57397 39.3836 6.53003C39.3836 6.4978 39.3748 6.46997 39.3572 6.44653C39.3397 6.42017 39.3133 6.39966 39.2781 6.38501C39.199 6.3645 39.117 6.34692 39.032 6.33228C38.9471 6.3147 38.8636 6.30005 38.7816 6.28833C38.6995 6.27661 38.6204 6.26782 38.5443 6.26196C38.471 6.2561 38.4036 6.25317 38.3421 6.25317C38.1663 6.25317 38.0067 6.27954 37.8631 6.33228C37.7195 6.38501 37.5965 6.45972 37.494 6.5564C37.3943 6.65308 37.3167 6.7688 37.261 6.90356C37.2054 7.0354 37.1776 7.18042 37.1776 7.33862C37.1776 7.47925 37.1981 7.60669 37.2391 7.72095C37.283 7.83228 37.3416 7.92749 37.4149 8.00659C37.491 8.08569 37.5818 8.14722 37.6873 8.19116C37.7928 8.23511 37.9085 8.25708 38.0345 8.25708ZM45.369 7.81763C45.4539 7.74438 45.5374 7.70776 45.6194 7.70776C45.6663 7.70776 45.7088 7.71948 45.7469 7.74292C45.785 7.76636 45.8275 7.80298 45.8743 7.85278C45.9183 7.92017 45.949 7.97583 45.9666 8.01978C45.9871 8.06079 45.9974 8.10181 45.9974 8.14282C45.9974 8.23071 45.9534 8.31421 45.8655 8.39331C45.7249 8.5105 45.5726 8.61597 45.4085 8.70972C45.2444 8.80054 45.0731 8.87817 44.8943 8.94263C44.7156 9.00708 44.5311 9.05542 44.3406 9.08765C44.1502 9.1228 43.9612 9.14038 43.7737 9.14038C43.5364 9.14038 43.3138 9.10962 43.1058 9.0481C42.8978 8.9895 42.7117 8.90454 42.5477 8.79321C42.3865 8.68188 42.2503 8.54858 42.139 8.39331C42.0276 8.23511 41.9485 8.05786 41.9017 7.86157C41.8753 7.77954 41.8504 7.72681 41.827 7.70337C41.8065 7.677 41.7713 7.66382 41.7215 7.66382C41.6131 7.66382 41.5296 7.63745 41.471 7.58472C41.4124 7.53198 41.3831 7.45581 41.3831 7.3562C41.3831 7.31519 41.386 7.28882 41.3919 7.2771L41.4007 7.18921C41.4153 7.08374 41.4432 7.00757 41.4842 6.96069C41.5281 6.91382 41.5955 6.89038 41.6863 6.89038H41.7523C41.8753 6.89038 41.9617 6.83325 42.0115 6.71899C42.1024 6.51685 42.2181 6.33228 42.3587 6.16528C42.4993 5.99829 42.6575 5.8562 42.8333 5.73901C43.0091 5.6189 43.1966 5.52661 43.3958 5.46216C43.598 5.39478 43.803 5.36108 44.011 5.36108C44.2278 5.36108 44.43 5.39331 44.6175 5.45776C44.8079 5.51929 44.9734 5.60571 45.1141 5.71704C45.2547 5.82837 45.3646 5.95874 45.4437 6.10815C45.5257 6.25757 45.5667 6.4187 45.5667 6.59155C45.5667 6.71167 45.5433 6.82153 45.4964 6.92114C45.4495 7.02075 45.3821 7.10864 45.2943 7.18481C45.2064 7.25806 45.0994 7.31812 44.9734 7.36499C44.8504 7.41187 44.7098 7.44263 44.5516 7.45728L43.0267 7.61108C42.9681 7.61108 42.9197 7.62573 42.8817 7.65503C42.8465 7.68433 42.8289 7.72388 42.8289 7.77368C42.8289 7.84985 42.8568 7.9231 42.9124 7.99341C42.971 8.06372 43.0472 8.12671 43.1409 8.18237C43.2376 8.23511 43.3475 8.27759 43.4705 8.30981C43.5965 8.34204 43.7254 8.35815 43.8572 8.35815C43.9832 8.35815 44.1121 8.34644 44.244 8.323C44.3787 8.29663 44.5106 8.26001 44.6395 8.21313C44.7713 8.16626 44.8987 8.1106 45.0218 8.04614C45.1448 7.97876 45.2606 7.90259 45.369 7.81763ZM44.389 6.68384C44.4329 6.67505 44.471 6.65454 44.5032 6.62231C44.5355 6.58716 44.5516 6.54468 44.5516 6.49487C44.5516 6.45093 44.5355 6.40991 44.5032 6.37183C44.471 6.33374 44.4271 6.30005 44.3714 6.27075C44.3157 6.23853 44.2513 6.21362 44.178 6.19604C44.1048 6.17847 44.0272 6.16968 43.9451 6.16968C43.825 6.16968 43.702 6.18726 43.576 6.22241C43.45 6.25757 43.3358 6.30444 43.2332 6.36304C43.1307 6.4187 43.0472 6.48169 42.9827 6.552C42.9183 6.61938 42.886 6.68677 42.886 6.75415C42.886 6.82153 42.9271 6.85522 43.0091 6.85522C43.0589 6.85522 43.1395 6.84937 43.2508 6.83765C43.3621 6.82593 43.4852 6.81274 43.6199 6.7981C43.7547 6.78052 43.8909 6.76147 44.0286 6.74097C44.1663 6.72046 44.2864 6.70142 44.389 6.68384ZM46.9378 4.29761C46.8528 4.29761 46.7723 4.28589 46.6961 4.26245C46.6229 4.23608 46.5584 4.20093 46.5027 4.15698C46.45 4.11011 46.4075 4.05591 46.3753 3.99438C46.3431 3.93286 46.327 3.86548 46.327 3.79224C46.327 3.66919 46.3753 3.56958 46.472 3.49341C46.5716 3.41724 46.7034 3.37915 46.8675 3.37915C46.9437 3.37915 47.0169 3.3938 47.0872 3.4231C47.1575 3.44946 47.2191 3.48608 47.2718 3.53296C47.3275 3.57983 47.3714 3.6355 47.4036 3.69995C47.4359 3.76147 47.452 3.82593 47.452 3.89331C47.452 4.01929 47.4051 4.1189 47.3113 4.19214C47.2205 4.26245 47.096 4.29761 46.9378 4.29761ZM46.3358 5.63794C46.3358 5.5354 46.3797 5.4519 46.4676 5.38745C46.5584 5.32007 46.6771 5.28638 46.8235 5.28638C47.0872 5.28638 47.2278 5.3772 47.2454 5.55884C47.2571 5.68481 47.2689 5.8269 47.2806 5.98511C47.2952 6.14331 47.3084 6.31177 47.3201 6.49048C47.3348 6.66626 47.3465 6.84937 47.3553 7.03979C47.367 7.22729 47.3773 7.41333 47.386 7.5979C47.3948 7.77954 47.4022 7.95532 47.408 8.12524C47.4139 8.29517 47.4168 8.45044 47.4168 8.59106C47.4168 8.73755 47.3641 8.84741 47.2586 8.92065C47.1561 8.9939 47.0052 9.03052 46.806 9.03052C46.7151 9.03052 46.6434 9.00854 46.5906 8.9646C46.5408 8.92358 46.5159 8.86206 46.5159 8.78003C46.5159 8.37573 46.5057 7.9978 46.4852 7.64624C46.4676 7.29175 46.4471 6.97681 46.4236 6.70142C46.4031 6.42603 46.3826 6.19751 46.3621 6.01587C46.3445 5.8313 46.3358 5.70532 46.3358 5.63794ZM50.9896 4.93921C51.1507 4.93921 51.306 4.96411 51.4554 5.01392C51.6048 5.06372 51.7366 5.13257 51.8509 5.22046C51.9651 5.30835 52.056 5.41382 52.1234 5.53687C52.1937 5.65991 52.2288 5.79614 52.2288 5.94556C52.2288 6.00708 52.2142 6.06714 52.1849 6.12573C52.1585 6.1814 52.1219 6.2312 52.075 6.27515C52.0281 6.31616 51.9739 6.34985 51.9124 6.37622C51.8538 6.39966 51.7923 6.41138 51.7278 6.41138C51.722 6.41138 51.7161 6.41284 51.7103 6.41577C51.7073 6.41577 51.7029 6.41577 51.6971 6.41577C51.6912 6.4187 51.6854 6.42017 51.6795 6.42017L51.6971 6.77173C51.7088 7.19067 51.7674 7.49683 51.8729 7.69019C51.9813 7.88354 52.1219 7.98022 52.2947 7.98022C52.3563 7.98022 52.4105 7.97437 52.4573 7.96265C52.5071 7.95093 52.5526 7.93774 52.5936 7.9231C52.6375 7.90552 52.6785 7.89087 52.7166 7.87915C52.7547 7.86743 52.7928 7.86157 52.8309 7.86157C52.8983 7.86157 52.9568 7.89087 53.0067 7.94946C53.0594 8.00806 53.0858 8.07837 53.0858 8.1604C53.0858 8.24243 53.0535 8.32446 52.9891 8.40649C52.9276 8.48853 52.8455 8.56323 52.743 8.63062C52.6404 8.69507 52.5247 8.7478 52.3958 8.78882C52.2669 8.82983 52.1365 8.85034 52.0047 8.85034C51.7762 8.85034 51.5755 8.75659 51.4026 8.56909C51.2298 8.37866 51.1068 8.10034 51.0335 7.73413C51.0159 7.67554 50.9925 7.64624 50.9632 7.64624C50.928 7.64624 50.8973 7.66382 50.8709 7.69897C50.5809 8.06519 50.2718 8.34058 49.9437 8.52515C49.6155 8.70679 49.2918 8.79761 48.9725 8.79761C48.8231 8.79761 48.6883 8.77563 48.5682 8.73169C48.4481 8.68774 48.3455 8.62622 48.2606 8.54712C48.1785 8.46509 48.1141 8.36694 48.0672 8.25269C48.0233 8.1355 48.0013 8.00513 48.0013 7.86157C48.0013 7.65942 48.0452 7.44702 48.1331 7.22437C48.2239 7.00171 48.3455 6.78198 48.4979 6.56519C48.6502 6.34839 48.826 6.14185 49.0252 5.94556C49.2274 5.74927 49.4383 5.57642 49.658 5.427C49.8807 5.27759 50.1063 5.15894 50.3348 5.07104C50.5633 4.98315 50.7816 4.93921 50.9896 4.93921ZM50.8445 6.45972C50.8973 6.36011 50.9456 6.28833 50.9896 6.24438C51.0335 6.19751 51.0965 6.16675 51.1785 6.1521C51.243 6.14331 51.2752 6.1228 51.2752 6.09058C51.2752 6.06714 51.2664 6.04224 51.2488 6.01587C51.1932 5.9397 51.1346 5.87378 51.0731 5.81812C51.0115 5.75952 50.9295 5.73022 50.827 5.73022C50.7156 5.73022 50.5911 5.76245 50.4534 5.8269C50.3157 5.89136 50.1751 5.97778 50.0316 6.08618C49.8909 6.19165 49.7518 6.31323 49.6141 6.45093C49.4793 6.58569 49.3592 6.72485 49.2537 6.86841C49.1483 7.01196 49.0633 7.15405 48.9988 7.29468C48.9344 7.4353 48.9022 7.56128 48.9022 7.67261C48.9022 7.77222 48.9285 7.84985 48.9813 7.90552C49.0369 7.96118 49.1116 7.98901 49.2054 7.98901C49.4456 7.98901 49.7078 7.86157 49.992 7.60669C50.2762 7.35181 50.5604 6.96948 50.8445 6.45972Z" fill="#1E1E1E"/>
<path d="M75.9933 37.517C75.1319 38.3507 70.9059 40.4874 70.3888 43.0292C69.8852 45.5718 72.4931 51.2708 72.9175 52.7693M76.0887 36.826C75.1162 37.9345 71.3409 41.3569 70.7064 44.0525C70.0647 46.7545 71.93 51.6396 72.2617 52.992" stroke="#1E1E1E" stroke-linecap="round"/>
<g clip-path="url(#clip0_110_79)">
<path d="M21.3947 19.7007C21.5247 20.9965 20.8332 25.8635 22.4605 27.8356C24.0879 29.8078 29.7476 30.8385 31.1493 31.5334M20.7562 19.2258C20.7715 20.578 20.3065 26.3912 21.9812 28.5053C23.6655 30.6195 29.3645 31.2343 30.8427 31.9011" stroke="#1E1E1E" stroke-linecap="round"/>
<path d="M25.9368 75.1617C27.5598 72.8545 28.3332 69.9042 29.7844 67.0201C28.9728 68.6749 28.2091 70.377 25.9368 75.1617ZM25.9368 75.1617C23.2158 72.6937 20.1607 70.1122 16.9527 66.6891M25.9368 75.1617C23.7886 73.4124 21.8219 71.1335 16.9527 66.6891M16.9527 66.6891C17.0673 72.5802 15.4538 80.0978 15.9694 83.7006C16.4372 74.1783 16.6854 69.9325 16.9527 66.6891Z" stroke="#1E1E1E" stroke-linecap="round"/>
<path fill-rule="evenodd" clip-rule="evenodd" d="M39.4366 54.0559C38.8066 56.2759 37.0066 63.8859 36.0566 64.8559C35.1166 65.8259 32.5266 60.9959 33.7866 59.8959C35.0366 58.7959 42.0866 58.5259 43.6066 58.2759" fill="white"/>
<path d="M38.8966 52.8959C38.6466 54.9459 38.7466 64.3059 37.9566 65.7559C37.1566 67.2159 33.2766 62.7859 34.1166 61.6159C34.9566 60.4359 41.4566 59.2659 43.0066 58.6859M39.6766 53.9659C39.3766 56.0659 38.6366 65.3159 37.6866 66.4459C36.7366 67.5859 33.1066 62.2359 33.9766 60.7859C34.8566 59.3359 41.4566 58.1759 42.9166 57.7559" stroke="#1E1E1E" stroke-linecap="round"/>
<path d="M36.2929 50.8795C36.9029 50.8295 37.8529 50.7695 38.3629 51.1895C38.8829 51.6195 39.3229 52.6895 39.3929 53.4395C39.4529 54.1895 39.0929 55.0995 38.7629 55.6895C38.4429 56.2695 38.0529 56.7695 37.4429 56.9495C36.8329 57.1295 35.7229 57.0595 35.1129 56.7595C34.5029 56.4595 34.0929 55.7695 33.7729 55.1595C33.4429 54.5495 33.0629 53.7595 33.1829 53.0795C33.3129 52.3995 34.0229 51.4995 34.5329 51.0795C35.0529 50.6695 35.9929 50.7095 36.3029 50.6095C36.6029 50.5095 36.3329 50.4895 36.3829 50.4995M35.9329 50.1995C36.5629 50.1595 37.2829 50.9995 37.8029 51.4795C38.3229 51.9595 38.7929 52.4495 39.0629 53.0695C39.3329 53.6995 39.6829 54.5695 39.4229 55.2395C39.1629 55.8995 38.1629 56.7895 37.5029 57.0595C36.8429 57.3295 36.0029 57.1295 35.4429 56.8595C34.8829 56.5895 34.4829 55.8995 34.1529 55.4295C33.8229 54.9495 33.4229 54.5995 33.4429 54.0195C33.4729 53.4395 33.8229 52.4395 34.2829 51.9395C34.7429 51.4495 35.9029 51.2595 36.2029 51.0495C36.5129 50.8395 36.1329 50.7395 36.1329 50.6895" fill="white"/>
<path d="M36.2229 50.5895C36.8329 50.5195 37.8729 50.6795 38.4129 51.1095C38.9629 51.5295 39.3929 52.4295 39.4929 53.1495C39.5929 53.8695 39.3929 54.8695 38.9829 55.4295C38.5829 55.9995 37.7229 56.2595 37.0629 56.5395C36.4029 56.8195 35.6129 57.3195 35.0429 57.0995C34.4729 56.8695 33.9729 55.8095 33.6629 55.1895C33.3529 54.5595 33.0729 53.9895 33.2029 53.3495C33.3329 52.7195 33.8729 51.7895 34.4229 51.3695C34.9729 50.9495 36.1629 50.9995 36.4929 50.8395C36.8129 50.6795 36.4429 50.4495 36.3729 50.3995M36.4629 51.0495C36.9529 51.0895 37.6529 50.9495 38.0429 51.4195C38.4429 51.8895 38.7629 53.1795 38.8529 53.8595C38.9329 54.5495 38.8329 54.9795 38.5729 55.5095C38.3029 56.0495 37.8829 56.9595 37.2429 57.0995C36.6029 57.2295 35.2929 56.6695 34.7229 56.3295C34.1629 55.9895 34.0329 55.5895 33.8629 55.0695C33.6929 54.5495 33.5629 53.8495 33.6929 53.2095C33.8329 52.5695 34.2529 51.6595 34.6829 51.2195C35.1129 50.7795 35.9029 50.7095 36.2729 50.5595C36.6429 50.4095 36.8329 50.2695 36.9029 50.3095" stroke="#1E1E1E" stroke-linecap="round"/>
<path d="M42.0941 48.3709C42.1541 49.0409 42.7141 51.7509 42.7141 52.4409M42.6841 48.0709C42.7141 48.7609 42.5941 51.9409 42.6041 52.7209" stroke="#1E1E1E" stroke-linecap="round"/>
<path d="M27.7012 68.4417C27.8212 65.0617 25.8712 54.3617 27.7012 49.8617C29.5412 45.3617 35.4512 41.7117 38.7012 41.4517C41.9612 41.1917 45.5512 43.8417 47.2212 48.3017C48.8912 52.7717 48.7612 64.7517 48.7412 68.2517M26.7612 70.4917C26.7712 66.6917 25.3112 52.5917 27.2712 47.9817C29.2312 43.3717 35.1512 43.1517 38.5312 42.8217C41.9012 42.4917 46.0012 41.7317 47.5112 46.0017C49.0212 50.2817 47.5112 64.7117 47.5912 68.4917" stroke="#1E1E1E" stroke-linecap="round"/>
<path d="M27.3204 69.9318C30.8604 69.7018 44.2304 68.5818 47.6504 68.4918M26.8704 69.6618C30.6204 69.4618 45.2604 69.1518 48.6904 68.9718" stroke="#1E1E1E" stroke-linecap="round"/>
<path d="M27.2012 53.0335C30.6512 52.8135 44.1312 52.5135 47.5012 52.4135M26.7812 54.0835C30.1312 53.9035 43.5912 53.1735 46.9512 52.9635" stroke="#1E1E1E" stroke-linecap="round"/>
<path d="M27.1193 62.2284C30.4793 62.1884 44.4293 61.3584 47.8893 61.2484M26.3993 62.0184C29.8893 61.8284 45.1793 60.5584 48.9393 60.3384" stroke="#1E1E1E" stroke-linecap="round"/>
<path d="M34.2916 42.7426C33.7516 43.8626 31.7316 45.5926 31.2616 50.0426C30.7816 54.5026 31.5516 66.2926 31.4616 69.4526M35.2016 43.7826C34.6016 44.7126 31.6216 45.0326 30.9616 49.1526C30.3016 53.2726 31.3016 65.1226 31.2416 68.4926" stroke="#1E1E1E" stroke-linecap="round"/>
<path d="M38.0983 41.9152C37.8483 42.8852 36.5283 43.9952 36.4383 48.4952C36.3483 52.9952 37.4083 65.3952 37.5583 68.8952M37.4983 42.8852C37.4283 43.9052 37.5383 44.6952 37.4983 49.0852C37.4583 53.4752 37.2583 65.7352 37.2483 69.2252" stroke="#1E1E1E" stroke-linecap="round"/>
<path d="M39.205 41.5163C39.615 42.6563 40.705 43.7863 41.315 48.3363C41.925 52.8763 42.585 65.3163 42.875 68.7663M38.715 42.4363C39.295 43.4463 41.695 42.9763 42.325 47.4263C42.945 51.8763 42.335 65.4563 42.485 69.1263" stroke="#1E1E1E" stroke-linecap="round"/>
<path d="M27.326 52.9832C24.096 51.9832 8.70603 52.1032 7.98603 48.0832C7.26603 44.0532 20.676 31.9132 22.986 28.8432M26.326 55.2732C22.876 53.8432 7.72603 50.3232 7.12603 46.0632C6.52603 41.8032 20.246 32.2532 22.736 29.7032" stroke="#1E1E1E" stroke-linecap="round"/>
<path d="M48.9012 53.2117C50.6312 51.7917 55.1112 46.7317 59.3012 45.3117C63.5012 43.8817 71.5312 44.8117 74.0512 44.6617M48.4312 52.6917C50.0512 51.3617 54.6212 45.7417 58.8312 44.4917C63.0312 43.2517 71.0212 45.1717 73.6712 45.2017" stroke="#1E1E1E" stroke-linecap="round"/>
<path d="M47.211 77.0904C46.241 75.4004 44.961 72.0904 43.181 69.1604C44.721 71.9204 46.071 74.7504 47.211 77.0904ZM47.211 77.0904C49.341 74.7304 52.111 73.3504 56.711 69.5704M47.211 77.0904C49.561 75.2604 52.291 73.1804 56.711 69.5704M56.711 69.5704C56.831 75.6904 57.951 81.7304 58.421 85.6504C57.471 79.6404 57.101 74.2004 56.711 69.5704Z" stroke="#1E1E1E" stroke-linecap="round"/>
<path d="M39.8795 37.9532C40.1695 38.6332 41.7295 39.0932 42.8195 40.9532C46.0695 40.4732 43.2595 41.9732 42.8195 43.9532C42.1895 44.5932 40.8995 44.6232 39.8795 45.0732C36.9495 48.3332 36.6195 47.7132 36.8795 45.0732C36.0295 44.3532 34.3695 44.6032 33.8795 43.9532C31.2195 43.0632 33.4895 41.8032 33.8795 40.9532C34.2295 40.2432 35.2995 39.4432 36.8795 37.9532C37.5595 36.7432 39.5495 36.0932 39.8795 37.9532Z" fill="white"/>
<path d="M39.8795 37.9533C41.1095 39.2033 42.1495 40.4033 42.8195 40.9533M39.8795 37.9533C40.9495 39.0033 41.9495 40.0533 42.8195 40.9533M39.8795 37.9533C37.4095 35.5333 37.8195 35.7433 36.8795 37.9533M39.8795 37.9533C39.3695 36.1133 39.4295 36.2833 36.8795 37.9533M42.8195 40.9533C44.0395 42.8633 44.5095 42.7133 42.8195 43.9533M42.8195 40.9533C45.0095 41.7133 43.5695 41.9233 42.8195 43.9533M42.8195 43.9533C41.7595 44.4233 40.7795 44.7433 39.8795 45.0733M42.8195 43.9533C42.1795 44.1433 41.4295 44.5133 39.8795 45.0733M39.8795 45.0733C37.5595 47.0633 38.8595 46.1133 36.8795 45.0733M39.8795 45.0733C37.5895 46.4233 39.3395 47.4533 36.8795 45.0733M36.8795 45.0733C35.7395 44.6533 34.4695 44.0433 33.8795 43.9533M36.8795 45.0733C35.7395 44.7033 34.5695 44.2333 33.8795 43.9533M33.8795 43.9533C32.3895 43.1433 32.0995 42.6533 33.8795 40.9533M33.8795 43.9533C31.8595 41.8033 31.3695 42.9233 33.8795 40.9533M33.8795 40.9533C34.7795 40.0233 35.3795 39.4033 36.8795 37.9533M33.8795 40.9533C34.6995 40.2033 35.3495 39.4233 36.8795 37.9533" stroke="#1E1E1E" stroke-linecap="round"/>
<path d="M38.4416 40.3276C38.4516 40.7576 38.3016 42.6476 38.3116 43.0976M38.1516 40.9576C38.1016 41.4376 37.9916 43.0476 38.0216 43.4476" stroke="#1E1E1E" stroke-linecap="round"/>
</g>
<defs>
<clipPath id="clip0_110_79">
<rect width="71.605" height="65.2471" fill="white" transform="translate(4.84985 18.9493)"/>
</clipPath>
</defs>
</svg>
