<svg width="82" height="120" viewBox="0 0 82 120" fill="none" xmlns="http://www.w3.org/2000/svg">
<path d="M20.9518 2.53248C35.5545 4.73404 46.1941 -0.56673 60.0992 2.53248C73.3453 2.91043 76.8143 7.57813 79.6729 21.619C82.764 42.8505 82.0372 61.1717 79.6729 98.674C80.7678 113.008 76.3783 116.844 60.0992 117.761C50.6321 114.737 39.479 118.016 20.9518 117.761C7.60871 118.157 -0.530851 109.417 1.37807 98.674C-0.937829 69.1748 4.92459 43.6631 1.37807 21.619C-1.53861 6.72774 5.41878 -0.727359 20.9518 2.53248Z" fill="white"/>
<path d="M20.9518 2.53247C32.9964 0.425386 47.7445 1.0679 60.0992 2.53247M20.9518 2.53247C30.3122 2.66475 39.4402 3.05215 60.0992 2.53247M20.9518 2.53247C6.45559 3.18443 1.43619 8.40017 1.37805 21.619M20.9518 2.53247C7.76373 1.09625 1.88193 10.0821 1.37805 21.619M60.0992 2.53247C74.5759 2.62696 80.2349 7.60647 79.6729 21.619M60.0992 2.53247C74.5663 4.18601 81.7077 10.923 79.6729 21.619M79.6729 21.619C79.3628 49.1434 80.3996 75.2504 79.6729 98.674M79.6729 21.619C79.2077 49.956 79.7213 77.7827 79.6729 98.674M79.6729 98.674C78.481 111.354 74.5081 117.836 60.0992 117.761M79.6729 98.674C80.0701 112.611 73.5682 118.375 60.0992 117.761M60.0992 117.761C49.8278 119.102 39.0429 116.721 20.9518 117.761M60.0992 117.761C46.0197 117.751 32.5894 117.231 20.9518 117.761M20.9518 117.761C6.1552 118.79 1.95945 112.186 1.37805 98.674M20.9518 117.761C7.00792 118.337 1.36836 110.617 1.37805 98.674M1.37805 98.674C1.37805 66.6992 0.796658 36.3214 1.37805 21.619M1.37805 98.674C0.845108 78.4063 0.951697 57.893 1.37805 21.619" stroke="#1E1E1E" stroke-width="2" stroke-linecap="round"/>
<path d="M22.3264 3.13123C35.6695 3.13123 49.0125 3.13123 57.8982 3.13123M22.3264 3.13123C35.6888 3.13123 49.0513 3.13123 57.8982 3.13123M22.3264 3.13123C20.0299 3.13123 18.8865 4.24618 18.8865 6.48555M57.8982 3.13123C60.185 3.13123 61.3382 4.24618 61.3382 6.48555M61.3382 6.48555C61.3382 8.0446 61.3382 9.5942 61.3382 13.2036M61.3382 6.48555C61.3382 8.63987 61.3382 10.7942 61.3382 13.2036M61.3382 13.2036C61.3382 15.443 60.185 16.558 57.8982 16.558M57.8982 16.558C49.09 16.558 40.2819 16.558 22.3264 16.558M57.8982 16.558C45.8439 16.558 33.7993 16.558 22.3264 16.558M22.3264 16.558C20.0299 16.558 18.8865 15.443 18.8865 13.2036M18.8865 13.2036C18.8865 10.6147 18.8865 8.0257 18.8865 6.48555M18.8865 13.2036C18.8865 10.6525 18.8865 8.11074 18.8865 6.48555" stroke="#1E1E1E" stroke-width="2" stroke-linecap="round"/>
<path d="M9.1095 86.3019C19.7588 86.3019 62.3752 86.3019 73.0244 86.3019" stroke="#1E1E1E" stroke-width="2" stroke-linecap="round"/>
<path d="M22.4897 7.93448C22.3075 7.93448 22.1382 7.97842 21.9819 8.06631C21.8289 8.15095 21.6938 8.26977 21.5767 8.42276C21.4627 8.5725 21.3732 8.74991 21.3081 8.95499C21.243 9.16006 21.2104 9.37979 21.2104 9.61417C21.2104 9.85505 21.2642 10.078 21.3716 10.2831C21.4823 10.4849 21.6336 10.6623 21.8257 10.8153C22.021 10.9651 22.2489 11.0823 22.5093 11.1669C22.7729 11.2515 23.0594 11.2939 23.3687 11.2939C23.5933 11.2939 23.8049 11.2743 24.0034 11.2353C24.2052 11.1929 24.381 11.1376 24.5308 11.0692C24.6805 11.0009 24.7993 10.9211 24.8872 10.83C24.9751 10.7356 25.019 10.6363 25.019 10.5321C25.019 10.4508 25.0044 10.384 24.9751 10.3319C24.9458 10.2766 24.9116 10.2278 24.8726 10.1855C24.8368 10.1399 24.8042 10.0959 24.7749 10.0536C24.7456 10.008 24.731 9.95108 24.731 9.88272C24.731 9.81762 24.7472 9.75577 24.7798 9.69717C24.8123 9.63858 24.8563 9.5865 24.9116 9.54092C24.9702 9.49535 25.0353 9.45954 25.1069 9.4335C25.1818 9.40746 25.2583 9.39444 25.3364 9.39444C25.4308 9.39444 25.5187 9.41885 25.6001 9.46768C25.6847 9.51651 25.7563 9.58487 25.8149 9.67276C25.8768 9.7574 25.924 9.85831 25.9565 9.97549C25.9924 10.0894 26.0103 10.2115 26.0103 10.3417C26.0103 10.6054 25.9403 10.8511 25.8003 11.079C25.6603 11.3036 25.4666 11.4973 25.2192 11.6601C24.9718 11.8228 24.6789 11.9514 24.3403 12.0458C24.0018 12.137 23.634 12.1825 23.2368 12.1825C22.7974 12.1825 22.3921 12.1239 22.021 12.0067C21.6499 11.8863 21.3293 11.7203 21.0591 11.5087C20.7922 11.2971 20.5838 11.0465 20.4341 10.7567C20.2843 10.467 20.2095 10.1496 20.2095 9.8046C20.2095 9.42699 20.2746 9.07055 20.4048 8.73526C20.5382 8.39997 20.7189 8.107 20.9468 7.85635C21.1746 7.6057 21.4399 7.40714 21.7427 7.26065C22.0487 7.11417 22.3742 7.04092 22.7192 7.04092C22.8722 7.04092 23.0122 7.05883 23.1392 7.09464C23.2694 7.12719 23.3817 7.17439 23.4761 7.23624C23.5705 7.29809 23.6437 7.37133 23.6958 7.45596C23.7511 7.53734 23.7788 7.62686 23.7788 7.72452C23.7788 7.80264 23.7609 7.87751 23.7251 7.94913C23.6925 8.01749 23.6486 8.07934 23.5933 8.13467C23.5379 8.18676 23.4728 8.22908 23.3979 8.26163C23.3263 8.29418 23.2498 8.31046 23.1685 8.31046C23.0838 8.31046 23.0155 8.29092 22.9634 8.25186C22.9146 8.2128 22.869 8.17048 22.8267 8.12491C22.7843 8.07608 22.7388 8.03214 22.6899 7.99307C22.6411 7.95401 22.5744 7.93448 22.4897 7.93448ZM28.9204 7.92471C29.0994 7.92471 29.272 7.95238 29.438 8.00772C29.604 8.06306 29.7505 8.13956 29.8774 8.23721C30.0044 8.33487 30.1053 8.45206 30.1802 8.58878C30.2583 8.72549 30.2974 8.87686 30.2974 9.04288C30.2974 9.11124 30.2811 9.17797 30.2485 9.24307C30.2192 9.30492 30.1785 9.36026 30.1265 9.40909C30.0744 9.45466 30.0142 9.4921 29.9458 9.52139C29.8807 9.54743 29.8123 9.56046 29.7407 9.56046C29.7342 9.56046 29.7277 9.56208 29.7212 9.56534C29.7179 9.56534 29.7131 9.56534 29.7065 9.56534C29.7 9.56859 29.6935 9.57022 29.687 9.57022L29.7065 9.96085C29.7196 10.4263 29.7847 10.7665 29.9019 10.9814C30.0223 11.1962 30.1785 11.3036 30.3706 11.3036C30.439 11.3036 30.4992 11.2971 30.5513 11.2841C30.6066 11.2711 30.6571 11.2564 30.7026 11.2401C30.7515 11.2206 30.797 11.2043 30.8394 11.1913C30.8817 11.1783 30.924 11.1718 30.9663 11.1718C31.0412 11.1718 31.1063 11.2043 31.1616 11.2694C31.2202 11.3345 31.2495 11.4127 31.2495 11.5038C31.2495 11.595 31.2137 11.6861 31.1421 11.7773C31.0737 11.8684 30.9826 11.9514 30.8687 12.0263C30.7547 12.0979 30.6261 12.1565 30.4829 12.2021C30.3397 12.2476 30.1948 12.2704 30.0483 12.2704C29.7944 12.2704 29.5715 12.1662 29.3794 11.9579C29.1873 11.7463 29.0506 11.4371 28.9692 11.0302C28.9497 10.9651 28.9237 10.9325 28.8911 10.9325C28.8521 10.9325 28.8179 10.9521 28.7886 10.9911C28.4663 11.398 28.1229 11.704 27.7583 11.9091C27.3937 12.1109 27.034 12.2118 26.6792 12.2118C26.5132 12.2118 26.3634 12.1874 26.23 12.1386C26.0965 12.0898 25.9826 12.0214 25.8882 11.9335C25.797 11.8424 25.7254 11.7333 25.6733 11.6064C25.6245 11.4761 25.6001 11.3313 25.6001 11.1718C25.6001 10.9472 25.6489 10.7112 25.7466 10.4638C25.8475 10.2164 25.9826 9.97224 26.1519 9.73135C26.3211 9.49047 26.5164 9.26098 26.7378 9.04288C26.9624 8.82478 27.1968 8.63272 27.4409 8.46671C27.6883 8.30069 27.939 8.16885 28.1929 8.0712C28.4468 7.97354 28.6893 7.92471 28.9204 7.92471ZM28.7593 9.61417C28.8179 9.50349 28.8716 9.42374 28.9204 9.37491C28.9692 9.32283 29.0392 9.28865 29.1304 9.27237C29.202 9.2626 29.2378 9.23982 29.2378 9.20401C29.2378 9.17797 29.228 9.1503 29.2085 9.121C29.1466 9.03637 29.0815 8.96312 29.0132 8.90128C28.9448 8.83617 28.8537 8.80362 28.7397 8.80362C28.616 8.80362 28.4777 8.83943 28.3247 8.91104C28.1717 8.98266 28.0155 9.07868 27.856 9.19913C27.6997 9.31631 27.5451 9.45141 27.3921 9.6044C27.2424 9.75414 27.1089 9.90876 26.9917 10.0683C26.8745 10.2278 26.7801 10.3857 26.7085 10.5419C26.6369 10.6982 26.6011 10.8381 26.6011 10.9618C26.6011 11.0725 26.6304 11.1588 26.689 11.2206C26.7508 11.2825 26.8338 11.3134 26.938 11.3134C27.2049 11.3134 27.4963 11.1718 27.812 10.8886C28.1278 10.6054 28.4435 10.1806 28.7593 9.61417ZM30.937 8.78409C30.937 8.65714 30.994 8.56111 31.1079 8.496C31.2218 8.42764 31.3846 8.39346 31.5962 8.39346C31.645 8.39346 31.689 8.39997 31.728 8.41299C31.7671 8.42602 31.8013 8.45206 31.8306 8.49112C31.8631 8.52693 31.8924 8.57738 31.9185 8.64249C31.9445 8.70759 31.9705 8.7906 31.9966 8.89151C32.0226 9.00544 32.0487 9.06241 32.0747 9.06241C32.0975 9.06241 32.1252 9.01521 32.1577 8.92081C32.2163 8.73526 32.2928 8.57413 32.3872 8.43741C32.4849 8.29743 32.5939 8.18187 32.7144 8.09073C32.8348 7.99633 32.965 7.92634 33.105 7.88077C33.2482 7.83519 33.3979 7.81241 33.5542 7.81241C33.87 7.81241 34.1646 7.87263 34.438 7.99307C34.7114 8.11026 34.9474 8.27465 35.146 8.48624C35.3446 8.69457 35.5008 8.94197 35.6147 9.22842C35.7287 9.51163 35.7856 9.81924 35.7856 10.1513C35.7856 10.5028 35.7238 10.8284 35.6001 11.1278C35.4797 11.4273 35.3104 11.6861 35.0923 11.9042C34.8742 12.119 34.6138 12.2867 34.311 12.4071C34.0116 12.5308 33.6828 12.5927 33.3247 12.5927L33.0757 12.5829C32.9292 12.5829 32.856 12.6659 32.856 12.8319L33.105 15.0732C33.1017 15.1285 33.0822 15.1789 33.0464 15.2245C33.0138 15.2733 32.9683 15.3157 32.9097 15.3515C32.8543 15.3873 32.7876 15.4149 32.7095 15.4345C32.6346 15.454 32.5565 15.4638 32.4751 15.4638C32.2407 15.4638 32.1138 15.3873 32.0942 15.2343C32.0259 14.6418 31.9494 14.0787 31.8647 13.5448C31.7834 13.011 31.6987 12.5146 31.6108 12.0556C31.5262 11.5933 31.4432 11.1734 31.3618 10.7958C31.2804 10.4182 31.2072 10.0894 31.1421 9.80948C31.0802 9.52953 31.0314 9.30167 30.9956 9.12589C30.9565 8.9501 30.937 8.83617 30.937 8.78409ZM32.5239 10.0732C32.5239 10.2847 32.5321 10.4947 32.5483 10.703C32.5646 10.9081 32.5907 11.1311 32.6265 11.372C32.646 11.5185 32.7257 11.6015 32.8657 11.621C32.9504 11.6405 33.0448 11.6601 33.1489 11.6796C33.2563 11.6959 33.3459 11.704 33.4175 11.704C33.6258 11.704 33.8146 11.6731 33.9839 11.6112C34.1532 11.5494 34.298 11.4615 34.4185 11.3476C34.5389 11.2304 34.6317 11.092 34.6968 10.9325C34.7619 10.773 34.7944 10.5956 34.7944 10.4003C34.7944 10.1627 34.7619 9.94131 34.6968 9.73624C34.6317 9.5279 34.5422 9.34724 34.4282 9.19424C34.3175 9.04125 34.1857 8.92081 34.0327 8.83292C33.883 8.74503 33.7202 8.70108 33.5444 8.70108C33.3914 8.70108 33.2515 8.73526 33.1245 8.80362C33.0008 8.86872 32.8934 8.9615 32.8022 9.08194C32.7144 9.19913 32.646 9.34236 32.5972 9.51163C32.5483 9.6809 32.5239 9.86807 32.5239 10.0732ZM39.3989 7.92471C39.578 7.92471 39.7505 7.95238 39.9165 8.00772C40.0825 8.06306 40.229 8.13956 40.356 8.23721C40.4829 8.33487 40.5838 8.45206 40.6587 8.58878C40.7368 8.72549 40.7759 8.87686 40.7759 9.04288C40.7759 9.11124 40.7596 9.17797 40.7271 9.24307C40.6978 9.30492 40.6571 9.36026 40.605 9.40909C40.5529 9.45466 40.4927 9.4921 40.4243 9.52139C40.3592 9.54743 40.2909 9.56046 40.2192 9.56046C40.2127 9.56046 40.2062 9.56208 40.1997 9.56534C40.1965 9.56534 40.1916 9.56534 40.1851 9.56534C40.1785 9.56859 40.172 9.57022 40.1655 9.57022L40.1851 9.96085C40.1981 10.4263 40.2632 10.7665 40.3804 10.9814C40.5008 11.1962 40.6571 11.3036 40.8491 11.3036C40.9175 11.3036 40.9777 11.2971 41.0298 11.2841C41.0851 11.2711 41.1356 11.2564 41.1812 11.2401C41.23 11.2206 41.2756 11.2043 41.3179 11.1913C41.3602 11.1783 41.4025 11.1718 41.4448 11.1718C41.5197 11.1718 41.5848 11.2043 41.6401 11.2694C41.6987 11.3345 41.728 11.4127 41.728 11.5038C41.728 11.595 41.6922 11.6861 41.6206 11.7773C41.5522 11.8684 41.4611 11.9514 41.3472 12.0263C41.2332 12.0979 41.1047 12.1565 40.9614 12.2021C40.8182 12.2476 40.6733 12.2704 40.5269 12.2704C40.2729 12.2704 40.05 12.1662 39.8579 11.9579C39.6659 11.7463 39.5291 11.4371 39.4478 11.0302C39.4282 10.9651 39.4022 10.9325 39.3696 10.9325C39.3306 10.9325 39.2964 10.9521 39.2671 10.9911C38.9448 11.398 38.6014 11.704 38.2368 11.9091C37.8722 12.1109 37.5125 12.2118 37.1577 12.2118C36.9917 12.2118 36.842 12.1874 36.7085 12.1386C36.575 12.0898 36.4611 12.0214 36.3667 11.9335C36.2756 11.8424 36.2039 11.7333 36.1519 11.6064C36.103 11.4761 36.0786 11.3313 36.0786 11.1718C36.0786 10.9472 36.1274 10.7112 36.2251 10.4638C36.326 10.2164 36.4611 9.97224 36.6304 9.73135C36.7996 9.49047 36.995 9.26098 37.2163 9.04288C37.4409 8.82478 37.6753 8.63272 37.9194 8.46671C38.1668 8.30069 38.4175 8.16885 38.6714 8.0712C38.9253 7.97354 39.1678 7.92471 39.3989 7.92471ZM39.2378 9.61417C39.2964 9.50349 39.3501 9.42374 39.3989 9.37491C39.4478 9.32283 39.5177 9.28865 39.6089 9.27237C39.6805 9.2626 39.7163 9.23982 39.7163 9.20401C39.7163 9.17797 39.7065 9.1503 39.687 9.121C39.6252 9.03637 39.5601 8.96312 39.4917 8.90128C39.4233 8.83617 39.3322 8.80362 39.2183 8.80362C39.0946 8.80362 38.9562 8.83943 38.8032 8.91104C38.6502 8.98266 38.494 9.07868 38.3345 9.19913C38.1782 9.31631 38.0236 9.45141 37.8706 9.6044C37.7209 9.75414 37.5874 9.90876 37.4702 10.0683C37.353 10.2278 37.2586 10.3857 37.187 10.5419C37.1154 10.6982 37.0796 10.8381 37.0796 10.9618C37.0796 11.0725 37.1089 11.1588 37.1675 11.2206C37.2293 11.2825 37.3123 11.3134 37.4165 11.3134C37.6834 11.3134 37.9748 11.1718 38.2905 10.8886C38.6063 10.6054 38.922 10.1806 39.2378 9.61417ZM43.6128 8.16397C43.7821 8.16397 43.9465 8.18839 44.106 8.23721C44.2655 8.28604 44.4054 8.35277 44.5259 8.43741C44.6496 8.51879 44.7489 8.61319 44.8237 8.72061C44.8986 8.82478 44.936 8.9322 44.936 9.04288C44.936 9.11449 44.9214 9.18448 44.8921 9.25284C44.8628 9.31794 44.8237 9.37654 44.7749 9.42862C44.7261 9.47745 44.6707 9.51814 44.6089 9.55069C44.547 9.57999 44.4819 9.59464 44.4136 9.59464C44.3387 9.59464 44.2703 9.56697 44.2085 9.51163C44.1466 9.45303 44.0799 9.38956 44.0083 9.3212C43.9399 9.24958 43.8618 9.18611 43.7739 9.13077C43.6893 9.07217 43.5868 9.04288 43.4663 9.04288C43.3491 9.04288 43.2433 9.07055 43.1489 9.12589C43.0545 9.18122 42.9748 9.25935 42.9097 9.36026C42.8478 9.45792 42.799 9.5751 42.7632 9.71182C42.7306 9.84529 42.7144 9.99177 42.7144 10.1513C42.7144 10.607 42.8006 10.9553 42.9731 11.1962C43.1457 11.4338 43.3931 11.5526 43.7153 11.5526C43.8683 11.5526 43.9985 11.5282 44.106 11.4794C44.2166 11.4306 44.3127 11.3769 44.394 11.3183C44.4787 11.2597 44.5552 11.206 44.6235 11.1571C44.6919 11.1083 44.7619 11.0839 44.8335 11.0839C44.8726 11.0839 44.9116 11.0969 44.9507 11.123C44.9897 11.1457 45.0239 11.1767 45.0532 11.2157C45.0858 11.2515 45.1118 11.2922 45.1313 11.3378C45.1541 11.3834 45.1655 11.4289 45.1655 11.4745C45.1655 11.5819 45.1118 11.6926 45.0044 11.8065C44.9002 11.9205 44.7651 12.0246 44.5991 12.119C44.4331 12.2102 44.2476 12.2851 44.0425 12.3437C43.8407 12.4023 43.6437 12.4315 43.4517 12.4315C43.1945 12.4315 42.9585 12.3811 42.7437 12.2802C42.5288 12.1825 42.3433 12.0458 42.187 11.87C42.0308 11.691 41.9087 11.4778 41.8208 11.2304C41.7362 10.983 41.6938 10.7095 41.6938 10.4101C41.6938 10.0845 41.741 9.78506 41.8354 9.51163C41.9331 9.23819 42.0666 9.00219 42.2358 8.80362C42.4084 8.6018 42.6118 8.44555 42.8462 8.33487C43.0806 8.22094 43.3361 8.16397 43.6128 8.16397ZM46.02 7.21182C45.9256 7.21182 45.8361 7.1988 45.7515 7.17276C45.6701 7.14346 45.5985 7.1044 45.5366 7.05557C45.478 7.00349 45.4308 6.94327 45.395 6.87491C45.3592 6.80655 45.3413 6.73168 45.3413 6.6503C45.3413 6.51358 45.395 6.4029 45.5024 6.31827C45.6131 6.23363 45.7596 6.19131 45.9419 6.19131C46.0265 6.19131 46.1079 6.20759 46.186 6.24014C46.2642 6.26944 46.3325 6.31013 46.3911 6.36221C46.453 6.4143 46.5018 6.47615 46.5376 6.54776C46.5734 6.61612 46.5913 6.68773 46.5913 6.7626C46.5913 6.90258 46.5392 7.01325 46.4351 7.09464C46.3341 7.17276 46.1958 7.21182 46.02 7.21182ZM45.3511 8.70108C45.3511 8.58715 45.3999 8.49437 45.4976 8.42276C45.5985 8.34789 45.7303 8.31046 45.8931 8.31046C46.186 8.31046 46.3423 8.41137 46.3618 8.61319C46.3748 8.75316 46.3879 8.91104 46.4009 9.08682C46.4172 9.2626 46.4318 9.44978 46.4448 9.64835C46.4611 9.84366 46.4741 10.0471 46.4839 10.2587C46.4969 10.467 46.5083 10.6737 46.5181 10.8788C46.5278 11.0806 46.536 11.276 46.5425 11.4648C46.549 11.6536 46.5522 11.8261 46.5522 11.9823C46.5522 12.1451 46.4937 12.2672 46.3765 12.3485C46.2625 12.4299 46.0949 12.4706 45.8735 12.4706C45.7726 12.4706 45.6929 12.4462 45.6343 12.3974C45.5789 12.3518 45.5513 12.2834 45.5513 12.1923C45.5513 11.7431 45.5399 11.3232 45.5171 10.9325C45.4976 10.5386 45.4748 10.1887 45.4487 9.88272C45.4259 9.57673 45.4032 9.32283 45.3804 9.121C45.3608 8.91592 45.3511 8.77595 45.3511 8.70108ZM47.9097 6.55264C47.9097 6.38012 47.9585 6.25967 48.0562 6.19131C48.1538 6.1197 48.3149 6.08389 48.5396 6.08389C48.6209 6.08389 48.6893 6.09203 48.7446 6.10831C48.8032 6.12133 48.8521 6.14737 48.8911 6.18643C48.9334 6.22549 48.966 6.27758 48.9888 6.34268C49.0148 6.40453 49.036 6.48428 49.0522 6.58194C49.0913 6.88467 49.1336 7.19717 49.1792 7.51944C49.228 7.84171 49.2785 8.1656 49.3306 8.49112C49.3501 8.6376 49.4266 8.71085 49.5601 8.71085C49.5959 8.71085 49.6545 8.70759 49.7358 8.70108C49.8205 8.69131 49.9198 8.68155 50.0337 8.67178C50.1476 8.65876 50.2697 8.64574 50.3999 8.63272C50.5334 8.6197 50.6652 8.60831 50.7954 8.59854C50.9289 8.58552 51.0542 8.57575 51.1714 8.56924C51.2918 8.55948 51.3976 8.5546 51.4888 8.5546C51.5604 8.5546 51.6174 8.56924 51.6597 8.59854C51.702 8.62458 51.7345 8.66039 51.7573 8.70596C51.7834 8.74828 51.7996 8.79711 51.8062 8.85245C51.8159 8.90453 51.8208 8.95824 51.8208 9.01358C51.8208 9.06241 51.811 9.11286 51.7915 9.16495C51.7752 9.21703 51.7508 9.26423 51.7183 9.30655C51.689 9.34561 51.6515 9.37816 51.606 9.40421C51.5604 9.43025 51.5083 9.44327 51.4497 9.44327C51.1665 9.44327 50.88 9.45303 50.5903 9.47256C50.3039 9.48884 50.0174 9.51163 49.731 9.54092C49.5845 9.56046 49.5112 9.6337 49.5112 9.76065C49.5112 9.77042 49.5129 9.78344 49.5161 9.79971C49.5194 9.81273 49.521 9.82413 49.521 9.83389C49.5601 10.1171 49.5959 10.3824 49.6284 10.6298C49.6642 10.8772 49.6935 11.0985 49.7163 11.2939C49.7424 11.4859 49.7619 11.647 49.7749 11.7773C49.7912 11.9042 49.7993 11.9888 49.7993 12.0312C49.7993 12.1483 49.7879 12.246 49.7651 12.3241C49.7424 12.4055 49.7049 12.4706 49.6528 12.5194C49.6007 12.5715 49.5308 12.6073 49.4429 12.6269C49.3582 12.6496 49.2508 12.661 49.1206 12.661C48.9969 12.661 48.9058 12.6317 48.8472 12.5732C48.7886 12.5146 48.756 12.425 48.7495 12.3046C48.73 11.9205 48.6991 11.5347 48.6567 11.1474C48.6144 10.7567 48.5656 10.3677 48.5103 9.98038C48.481 9.8404 48.4077 9.77042 48.2905 9.77042C48.2808 9.77042 48.2694 9.77204 48.2563 9.7753C48.2433 9.77855 48.2319 9.78018 48.2222 9.78018C48.0203 9.82575 47.8299 9.87133 47.6509 9.9169C47.4718 9.96247 47.3042 10.0113 47.1479 10.0634C47.0601 10.0927 46.9819 10.1138 46.9136 10.1269C46.8452 10.1366 46.7834 10.1415 46.728 10.1415C46.6532 10.1415 46.5978 10.109 46.562 10.0439C46.5262 9.97549 46.5083 9.89086 46.5083 9.78995C46.5083 9.75414 46.5116 9.71345 46.5181 9.66788C46.5246 9.61905 46.5376 9.57185 46.5571 9.52628C46.5734 9.47745 46.5994 9.4335 46.6353 9.39444C46.6678 9.35212 46.7134 9.31794 46.772 9.2919C46.9087 9.23656 47.091 9.1796 47.3188 9.121C47.5467 9.05915 47.8039 9.00219 48.0903 8.9501C48.1554 8.93383 48.2059 8.90779 48.2417 8.87198C48.2808 8.83292 48.3003 8.77595 48.3003 8.70108C48.3003 8.6848 48.3003 8.66853 48.3003 8.65225C48.3003 8.63272 48.297 8.61319 48.2905 8.59366C48.2384 8.29418 48.188 8.02237 48.1392 7.77823C48.0936 7.53083 48.0529 7.31924 48.0171 7.14346C47.9845 6.96768 47.9585 6.82934 47.939 6.72842C47.9194 6.62751 47.9097 6.56892 47.9097 6.55264ZM51.6011 10.5712C51.6011 10.5159 51.6076 10.454 51.6206 10.3857C51.6336 10.3173 51.6401 10.2424 51.6401 10.161C51.6401 10.1057 51.6157 10.0634 51.5669 10.0341C51.5213 10.0048 51.4692 9.97224 51.4106 9.93643C51.3521 9.90062 51.2983 9.85505 51.2495 9.79971C51.2039 9.74437 51.1812 9.66462 51.1812 9.56046C51.1812 9.48559 51.2007 9.41072 51.2397 9.33585C51.2821 9.26098 51.3423 9.19262 51.4204 9.13077C51.6125 8.98754 51.811 8.85896 52.0161 8.74503C52.2244 8.63109 52.4312 8.53506 52.6362 8.45694C52.8446 8.37881 53.0496 8.31859 53.2515 8.27628C53.4533 8.23396 53.647 8.2128 53.8325 8.2128C54.145 8.2128 54.438 8.27139 54.7114 8.38858C54.9881 8.50251 55.2274 8.66039 55.4292 8.86221C55.6343 9.06078 55.7954 9.29516 55.9126 9.56534C56.033 9.83227 56.0933 10.1187 56.0933 10.4247C56.0933 10.7242 56.0298 11.009 55.9028 11.2792C55.7791 11.5461 55.6115 11.7805 55.3999 11.9823C55.1883 12.1842 54.9393 12.3437 54.6528 12.4608C54.3696 12.5813 54.0701 12.6415 53.7544 12.6415C53.4451 12.6415 53.1587 12.5894 52.895 12.4853C52.6313 12.3811 52.4035 12.2379 52.2114 12.0556C52.0194 11.87 51.8696 11.6519 51.7622 11.4013C51.6548 11.1474 51.6011 10.8707 51.6011 10.5712ZM53.8618 11.7626C53.9985 11.7626 54.1401 11.7349 54.2866 11.6796C54.4331 11.6243 54.5666 11.5445 54.687 11.4403C54.8107 11.3329 54.9116 11.2027 54.9897 11.0497C55.0711 10.8967 55.1118 10.7242 55.1118 10.5321C55.1118 10.3368 55.076 10.1545 55.0044 9.98526C54.9328 9.81599 54.8335 9.6695 54.7065 9.54581C54.5828 9.41885 54.4347 9.31957 54.2622 9.24796C54.0929 9.17634 53.909 9.14053 53.7104 9.14053C53.3491 9.14053 53.0724 9.23493 52.8804 9.42374C52.6883 9.60928 52.5923 9.89574 52.5923 10.2831C52.5923 10.4947 52.6232 10.6916 52.6851 10.8739C52.7502 11.053 52.8397 11.2092 52.9536 11.3427C53.0675 11.4729 53.201 11.5754 53.354 11.6503C53.5103 11.7252 53.6795 11.7626 53.8618 11.7626ZM59.3794 8.53995C59.259 8.53995 59.1532 8.5725 59.062 8.6376C58.9709 8.69945 58.8927 8.78734 58.8276 8.90128C58.7625 9.01195 58.7088 9.14379 58.6665 9.29678C58.6242 9.44652 58.59 9.61091 58.564 9.78995C58.5379 9.96898 58.52 10.1562 58.5103 10.3515C58.5005 10.5468 58.4956 10.7437 58.4956 10.9423C58.4956 11.2027 58.5054 11.4599 58.5249 11.7138C58.5477 11.9644 58.5591 12.1972 58.5591 12.412C58.5591 12.552 58.507 12.661 58.4028 12.7392C58.2987 12.8205 58.1506 12.8612 57.9585 12.8612C57.9227 12.8612 57.882 12.858 57.8364 12.8515C57.7909 12.845 57.7469 12.8319 57.7046 12.8124C57.6655 12.7929 57.6297 12.7652 57.5972 12.7294C57.5679 12.6968 57.5516 12.6513 57.5483 12.5927C57.519 12.3062 57.4767 12.0133 57.4214 11.7138C57.366 11.4143 57.2961 11.1164 57.2114 10.8202C57.13 10.5207 57.0308 10.2245 56.9136 9.93155C56.7996 9.63858 56.6678 9.35212 56.5181 9.07217C56.492 9.02335 56.4692 8.97777 56.4497 8.93546C56.4334 8.89314 56.4253 8.85245 56.4253 8.81339C56.4253 8.76456 56.4465 8.71247 56.4888 8.65714C56.5343 8.59854 56.5897 8.54483 56.6548 8.496C56.7231 8.44717 56.7964 8.40811 56.8745 8.37881C56.9559 8.34626 57.034 8.32999 57.1089 8.32999C57.2326 8.32999 57.3416 8.41625 57.436 8.58878C57.5304 8.75805 57.6183 9.02986 57.6997 9.40421C57.716 9.46931 57.729 9.51488 57.7388 9.54092C57.7485 9.56697 57.7616 9.57999 57.7778 9.57999C57.8136 9.57999 57.8364 9.52465 57.8462 9.41397C57.8853 9.10473 57.952 8.83943 58.0464 8.61807C58.1408 8.39346 58.258 8.20954 58.3979 8.06631C58.5412 7.91983 58.7039 7.81241 58.8862 7.74405C59.0718 7.67569 59.2752 7.64151 59.4966 7.64151C59.6235 7.64151 59.7521 7.6529 59.8823 7.67569C60.0125 7.69848 60.1297 7.73266 60.2339 7.77823C60.3381 7.8238 60.4227 7.87914 60.4878 7.94424C60.5529 8.00935 60.5854 8.08259 60.5854 8.16397C60.5854 8.22256 60.5724 8.29255 60.5464 8.37393C60.5236 8.45206 60.4927 8.52855 60.4536 8.60342C60.4146 8.67504 60.369 8.73689 60.3169 8.78897C60.2681 8.8378 60.2176 8.86221 60.1655 8.86221C60.1069 8.86221 60.05 8.84594 59.9946 8.81339C59.9393 8.77758 59.8791 8.74014 59.814 8.70108C59.7521 8.66202 59.6854 8.62621 59.6138 8.59366C59.5454 8.55785 59.4673 8.53995 59.3794 8.53995Z" fill="#1E1E1E"/>
<path d="M41.9815 93.0002V104.637H40.5724V94.4775H40.5042L37.6633 96.3639V94.9321L40.5724 93.0002H41.9815ZM49.1235 104.796C48.2675 104.796 47.5383 104.563 46.936 104.097C46.3338 103.627 45.8735 102.947 45.5554 102.057C45.2372 101.163 45.0781 100.084 45.0781 98.8184C45.0781 97.5608 45.2372 96.487 45.5554 95.5968C45.8773 94.7029 46.3394 94.0211 46.9417 93.5514C47.5478 93.0779 48.2751 92.8411 49.1235 92.8411C49.972 92.8411 50.6974 93.0779 51.2997 93.5514C51.9057 94.0211 52.3679 94.7029 52.686 95.5968C53.008 96.487 53.169 97.5608 53.169 98.8184C53.169 100.084 53.0099 101.163 52.6917 102.057C52.3735 102.947 51.9133 103.627 51.311 104.097C50.7088 104.563 49.9796 104.796 49.1235 104.796ZM49.1235 103.546C49.972 103.546 50.6311 103.137 51.1008 102.318C51.5705 101.5 51.8054 100.334 51.8054 98.8184C51.8054 97.8108 51.6974 96.9529 51.4815 96.2446C51.2694 95.5362 50.9626 94.9964 50.561 94.6252C50.1633 94.254 49.6841 94.0684 49.1235 94.0684C48.2826 94.0684 47.6254 94.4832 47.1519 95.3127C46.6785 96.1385 46.4417 97.3071 46.4417 98.8184C46.4417 99.826 46.5478 100.682 46.7599 101.387C46.972 102.091 47.2769 102.627 47.6747 102.995C48.0762 103.362 48.5591 103.546 49.1235 103.546Z" fill="#1E1E1E"/>
<path d="M30.9396 97.5004C31.2884 97.1508 32.6838 95.7334 33.0326 95.3744" stroke="#1E1E1E" stroke-linecap="round"/>
<path d="M33.0282 95.3364C33.4158 95.6482 34.9468 96.8955 35.3344 97.2073" stroke="#1E1E1E" stroke-linecap="round"/>
<path d="M35.4215 97.4579C34.7529 98.4595 32.0882 102.475 31.4196 103.486" stroke="#1E1E1E" stroke-linecap="round"/>
<path d="M31.0048 97.5004C30.6559 97.1508 29.2606 95.7334 28.9117 95.3744" stroke="#1E1E1E" stroke-linecap="round"/>
<path d="M28.9162 95.3364C28.5286 95.6482 26.9976 96.8955 26.61 97.2073" stroke="#1E1E1E" stroke-linecap="round"/>
<path d="M26.5229 97.4579C27.1916 98.4595 29.8563 102.475 30.5249 103.486" stroke="#1E1E1E" stroke-linecap="round"/>
<path d="M30.1061 93.9138C31.2496 93.6776 33.3232 94.2634 34.2631 94.9721C35.2031 95.6902 35.4356 97.0224 35.7554 98.1941C36.0751 99.3563 36.5693 100.906 36.172 101.974C35.7748 103.051 34.5054 104.128 33.3717 104.61C32.2379 105.092 30.4259 105.233 29.36 104.846C28.2941 104.459 27.6255 103.23 26.9666 102.267C26.3077 101.303 25.3096 100.178 25.3871 99.0728C25.4647 97.9673 26.4918 96.4272 27.4317 95.6429C28.3716 94.8587 30.5034 94.6224 30.9976 94.3579C31.4918 94.1028 30.5034 94.0933 30.3968 94.0839M31.6178 93.7437C32.7806 93.687 34.4375 94.2539 35.1449 95.0571C35.862 95.8508 35.9395 97.3531 35.891 98.5437C35.8523 99.7342 35.4744 101.161 34.9027 102.191C34.3406 103.211 33.4395 104.449 32.5092 104.695C31.5887 104.941 30.5325 104.109 29.36 103.674C28.1972 103.23 26.2108 102.937 25.5131 102.068C24.8154 101.208 24.9026 99.5925 25.1643 98.4776C25.4356 97.3626 26.0364 96.0492 27.1023 95.3595C28.1681 94.6697 30.8813 94.4713 31.5596 94.3201C32.2379 94.1595 31.3465 94.3862 31.1914 94.4335" fill="white"/>
<path d="M31.0365 93.7626C32.1217 93.7531 33.9919 94.8019 34.9221 95.6807C35.8524 96.55 36.55 97.8917 36.6082 98.9972C36.6663 100.112 35.8814 101.416 35.2613 102.352C34.6411 103.278 34.0113 104.232 32.8872 104.6C31.7729 104.959 29.5927 104.95 28.5365 104.515C27.4802 104.09 26.9279 103.117 26.5306 102.011C26.143 100.906 25.9202 99.0445 26.1915 97.8728C26.4725 96.7012 27.4027 95.5484 28.207 94.9815C29.0113 94.424 30.4938 94.5657 31.0462 94.5185C31.5985 94.4807 31.3756 94.6602 31.521 94.7264M30.0481 94.5185C31.1334 94.4334 32.4803 94.4429 33.5462 95.0287C34.6121 95.6051 36.0268 96.9752 36.4628 98.0145C36.8892 99.0634 36.55 100.244 36.1043 101.293C35.6586 102.342 34.7865 103.693 33.7787 104.289C32.7807 104.884 31.2206 105.082 30.0965 104.846C28.9725 104.61 27.8 103.797 27.0248 102.881C26.2496 101.964 25.4454 100.481 25.4357 99.3185C25.4357 98.1657 26.114 96.6823 27.0248 95.9358C27.9357 95.1893 30.3775 95.076 30.9008 94.8397C31.4337 94.6035 30.3097 94.5752 30.1837 94.4996" stroke="#1E1E1E" stroke-linecap="round"/>
<path d="M30.8818 99.8556C30.9108 99.1753 30.9108 96.2367 30.843 95.5848M30.5135 99.6856C30.5135 99.043 30.5135 96.643 30.6104 95.9344" stroke="#1E1E1E" stroke-width="0.5" stroke-linecap="round"/>
<path d="M34.1524 100.674C33.5614 100.4 31.1195 99.6343 30.5865 99.4359M33.7842 101.316C33.2804 100.929 31.6912 99.3508 31.1873 98.9634" stroke="#1E1E1E" stroke-width="0.5" stroke-linecap="round"/>
<path d="M50.1188 30.2301C50.6198 32.3089 52.7984 31.2955 57.2046 35.5361C57.4709 35.3066 59.3537 41.5414 58.0345 41.6496C52.4931 45.5059 53.6867 50.0095 42.4715 61.4115C42.0358 64.5401 39.4122 63.326 36.2002 62.2075C34.1903 61.5483 31.8266 58.1581 29.1143 56.9014C27.2826 53.7666 27.7334 56.6537 28.2921 50.7937C31.9656 50.5661 32.9755 40.2547 43.8551 31.0319C44.0236 30.3836 48.9591 29.6238 50.1188 30.2301Z" fill="white"/>
<path d="M50.1188 30.2301C52.712 31.7311 54.6872 33.365 57.2047 35.5361M50.1188 30.2301C51.9873 31.3791 53.0627 32.8991 57.2047 35.5361M50.1188 30.2301C46.38 29.2531 44.7596 28.7664 43.8552 31.0318M50.1188 30.2301C46.5501 26.4618 45.2978 30.1464 43.8552 31.0318M57.2047 35.5361C59.6725 36.979 58.3648 38.7637 58.0346 41.6496M57.2047 35.5361C60.272 36.0936 61.127 39.7241 58.0346 41.6496M58.0346 41.6496C55.2832 46.5706 52.66 49.3121 42.4716 61.4114M58.0346 41.6496C53.6894 46.7948 50.0762 53.3221 42.4716 61.4114M42.4716 61.4114C40.1298 62.2907 39.7394 63.8569 36.2003 62.2074M42.4716 61.4114C42.005 63.6949 39.3474 66.3869 36.2003 62.2074M36.2003 62.2074C34.9547 61.9895 33.1764 59.9193 29.1144 56.9014M36.2003 62.2074C33.9611 60.1018 30.6674 58.0167 29.1144 56.9014M29.1144 56.9014C26.7231 57.2075 25.3758 52.7438 28.2922 50.7936M29.1144 56.9014C26.4837 57.1236 24.8397 53.8434 28.2922 50.7936M28.2922 50.7936C33.4167 41.4786 37.7084 35.9359 43.8552 31.0318M28.2922 50.7936C34.0057 42.825 39.1224 36.8398 43.8552 31.0318" stroke="#1E1E1E" stroke-linecap="round"/>
<path d="M28.9107 58.1512C27.8338 59.7513 24.0706 65.6778 22.9753 67.1927M29.66 58.3787C28.5377 60.0521 23.9089 65.9142 22.5773 67.4189" stroke="#1E1E1E" stroke-linecap="round"/>
<path d="M35.52 61.9614C34.1602 63.564 29.3623 69.9666 28.1224 71.5876M36.475 62.1761C35.1014 63.6255 29.6063 69.3154 28.2463 70.7631" stroke="#1E1E1E" stroke-linecap="round"/>
<path d="M42.7378 36.1226C44.519 37.4445 51.6368 43.5012 53.3312 44.7937M41.6227 36.5147C43.4623 37.6539 51.7029 42.6571 53.6714 44.0359" stroke="#1E1E1E" stroke-linecap="round"/>
</svg>
