<svg width="86" height="86" viewBox="0 0 86 86" fill="none" xmlns="http://www.w3.org/2000/svg">
<path d="M2.47181 2C2.21047 2 2 2.21047 2 2.4718V83.5282C2 83.7895 2.21047 84 2.47181 84H83.5282C83.7895 84 84 83.7895 84 83.5282V2.4718C84 2.21047 83.7895 2 83.5282 2H2.47181ZM41.4363 12.7575C45.376 12.7574 49.2771 13.5334 52.9169 15.041C56.5567 16.5487 59.8639 18.7585 62.6497 21.5442C65.4355 24.33 67.6452 27.6372 69.1529 31.277C70.6605 34.9168 71.4365 38.8179 71.4365 42.7576C71.4364 50.7141 68.2756 58.3447 62.6495 63.9707C57.0234 69.5967 49.3927 72.7574 41.4363 72.7573C33.4798 72.7573 25.8492 69.5967 20.2231 63.9707C14.5969 58.3447 11.4362 50.7141 11.4361 42.7576C11.4361 38.8179 12.212 34.9168 13.7197 31.277C15.2273 27.6372 17.4371 24.33 20.2229 21.5442C23.0087 18.7585 26.3159 16.5487 29.9557 15.041C33.5955 13.5334 37.4966 12.7574 41.4363 12.7575Z" fill="white" stroke="white" stroke-width="3.96801" stroke-linecap="round" stroke-linejoin="round"/>
<path d="M41.0606 12.6836C46.7577 12.3398 54.8577 15.508 59.586 18.9601C64.3142 22.4122 67.7014 28.1882 69.4145 33.4187C71.1197 38.6417 71.6235 44.9332 69.8175 50.3281C68.0192 55.7304 63.3143 62.3208 58.5861 65.7879C53.8578 69.2549 47.1221 71.1977 41.4482 71.1304C35.7743 71.0557 29.1781 68.6721 24.5274 65.362C19.8766 62.0593 15.4585 56.6868 13.5284 51.292C11.5984 45.8971 11.0791 38.5445 12.9471 32.9928C14.8151 27.4485 19.5201 21.3288 24.7211 18.0037C29.9222 14.6786 40.8436 13.782 44.1689 13.0572C47.4941 12.3324 44.8742 13.3336 44.6727 13.6549M27.1628 16.3374C31.9685 13.2739 39.5802 11.1742 45.2618 11.9438C50.9434 12.7209 57.1366 16.6513 61.2525 20.9627C65.3683 25.2666 68.8951 32.2306 69.957 37.7973C71.0112 43.3566 70.0733 49.4613 67.5929 54.3555C65.1203 59.2498 60.1285 64.3532 55.098 67.1553C50.0753 69.9573 43.0449 72.0196 37.4331 71.1827C31.8212 70.3458 25.5118 66.3109 21.4269 62.1116C17.3343 57.9123 14.1408 51.4414 12.8851 45.9793C11.6294 40.5172 11.3348 34.5021 13.8927 29.3389C16.4584 24.1682 25.9768 17.0921 28.2479 14.9775C30.5113 12.8629 27.3565 15.9414 27.5116 16.6587" stroke="#1E1E1E" stroke-width="4" stroke-linecap="round"/>
</svg>
