<svg width="84" height="119" viewBox="0 0 84 119" fill="none" xmlns="http://www.w3.org/2000/svg">
<path d="M22.5259 1.70262C36.3043 2.22809 43.5571 -1.26257 62.2297 1.70262C74.6421 -1.1875 81.777 8.59949 82.0816 20.6573C79.9195 41.0289 81.6394 61.072 82.0816 97.1798C85.0496 113.075 76.9221 118.49 62.2297 116.134C48.5496 117.129 38.7612 118.161 22.5259 116.134C12.0889 118.846 0.875543 108.365 2.67401 97.1798C1.26865 81.894 4.55109 61.4286 2.67401 20.6573C1.76986 6.66649 8.39371 4.79917 22.5259 1.70262Z" fill="white"/>
<path d="M22.5259 1.70261C31.2037 0.445218 41.3459 1.1959 62.2297 1.70261M22.5259 1.70261C35.7441 1.07391 49.6208 1.14898 62.2297 1.70261M22.5259 1.70261C10.0742 2.64096 4.54122 6.36621 2.67396 20.6573M22.5259 1.70261C10.7327 -0.38053 2.79189 7.9051 2.67396 20.6573M62.2297 1.70261C77.1776 2.49082 83.0348 6.74155 82.0816 20.6573M62.2297 1.70261C76.2931 0.71734 84.3419 9.30325 82.0816 20.6573M82.0816 20.6573C80.4502 39.246 83.7031 59.0827 82.0816 97.1798M82.0816 20.6573C83.0152 48.1322 83.369 76.705 82.0816 97.1798M82.0816 97.1798C81.089 110.608 75.1629 114.445 62.2297 116.134M82.0816 97.1798C80.8334 108.093 75.8115 116.773 62.2297 116.134M62.2297 116.134C46.5644 117.833 35.066 118.058 22.5259 116.134M62.2297 116.134C53.6501 116.96 44.8249 115.947 22.5259 116.134M22.5259 116.134C8.63936 114.539 1.85827 109.303 2.67396 97.1798M22.5259 116.134C8.57057 115.449 3.97122 108.252 2.67396 97.1798M2.67396 97.1798C1.10154 74.9315 2.4381 55.9862 2.67396 20.6573M2.67396 97.1798C3.50932 72.8765 2.67396 50.1684 2.67396 20.6573" stroke="#1E1E1E" stroke-width="2" stroke-linecap="round"/>
<path d="M23.9201 2.29724C35.3988 2.29724 46.8775 2.29724 59.9975 2.29724M23.9201 2.29724C34.7895 2.29724 45.6491 2.29724 59.9975 2.29724M23.9201 2.29724C21.5909 2.29724 20.4313 3.40449 20.4313 5.62839M59.9975 2.29724C62.3168 2.29724 63.4863 3.40449 63.4863 5.62839M63.4863 5.62839C63.4863 7.58015 63.4863 9.53192 63.4863 12.3001M63.4863 5.62839C63.4863 8.1244 63.4863 10.6204 63.4863 12.3001M63.4863 12.3001C63.4863 14.5239 62.3168 15.6312 59.9975 15.6312M59.9975 15.6312C47.7719 15.6312 35.5561 15.6312 23.9201 15.6312M59.9975 15.6312C46.5925 15.6312 33.1876 15.6312 23.9201 15.6312M23.9201 15.6312C21.5909 15.6312 20.4313 14.5239 20.4313 12.3001M20.4313 12.3001C20.4313 10.4046 20.4313 8.5185 20.4313 5.62839M20.4313 12.3001C20.4313 10.733 20.4313 9.17535 20.4313 5.62839" stroke="#1E1E1E" stroke-width="2" stroke-linecap="round"/>
<path d="M10.5153 84.8932C21.3159 84.8932 64.538 84.8932 75.3386 84.8932" stroke="#1E1E1E" stroke-width="2" stroke-linecap="round"/>
<path d="M49.2317 44.3385C47.2859 44.5167 46.1164 44.1883 44.5439 44.3385C46.0869 44.3197 47.6593 44.4323 49.2317 44.3385ZM49.2317 44.3385C53.2611 44.8827 53.2807 46.3841 53.9294 48.8144M49.2317 44.3385C53.1432 44.5074 54.7254 44.7795 53.9294 48.8144M53.9294 48.8144C53.7721 50.2031 53.949 52.5115 53.9294 56.978M53.9294 48.8144C54.0964 51.3573 54.0964 53.6563 53.9294 56.978M53.9294 56.978C54.1554 59.7086 56.1013 61.3695 58.6172 61.454M53.9294 56.978C54.4306 59.0987 55.8065 61.576 58.6172 61.454M58.6172 61.454C60.111 61.5384 62.0077 61.6041 63.3148 61.454C61.0544 61.3883 59.708 61.454 58.6172 61.454Z" stroke="#1E1E1E" stroke-linecap="round"/>
<path d="M37.1049 60.9423C34.6578 61.1018 33.3901 60.9048 32.4171 60.9423C33.9601 61.0174 35.6111 61.0174 37.1049 60.9423ZM37.1049 60.9423C40.0041 61.327 41.3996 58.8216 41.8025 56.4664M37.1049 60.9423C41.1048 61.9276 42.3824 60.3512 41.8025 56.4664M41.8025 56.4664C41.7731 54.0924 42.2055 51.6527 41.8025 48.3027M41.8025 56.4664C41.9794 53.3323 41.8713 50.217 41.8025 48.3027M41.8025 48.3027C41.2424 44.6995 44.0531 44.493 46.4903 43.8268M41.8025 48.3027C40.8394 46.1727 43.601 44.5118 46.4903 43.8268M46.4903 43.8268C47.5222 43.93 48.7409 43.7611 51.188 43.8268C49.5173 43.855 48.0136 43.7799 46.4903 43.8268Z" stroke="#1E1E1E" stroke-linecap="round"/>
<path d="M25.7691 44.2646C24.2065 44.2927 22.6734 44.4522 21.0813 44.2646C22.4277 44.3772 23.7348 44.3021 25.7691 44.2646ZM25.7691 44.2646C29.0515 43.4576 29.484 46.3759 30.4667 48.7405M25.7691 44.2646C29.425 44.1895 31.0564 46.2445 30.4667 48.7405M30.4667 48.7405C30.1522 50.1668 30.3291 52.6253 30.4667 56.9041M30.4667 48.7405C30.3193 51.2928 30.4372 54.0422 30.4667 56.9041M30.4667 56.9041C30.3193 60.2447 32.9138 61.8211 35.1545 61.3801M30.4667 56.9041C30.2505 58.9404 31.361 61.9994 35.1545 61.3801M35.1545 61.3801C36.5992 61.2581 38.1028 61.5396 39.8522 61.3801C37.179 61.4364 36.0587 61.2956 35.1545 61.3801Z" stroke="#1E1E1E" stroke-linecap="round"/>
<path d="M14.0641 61.4725C12.3246 61.5382 10.9684 61.4819 9.37634 61.4725C10.5655 61.4819 11.7252 61.3599 14.0641 61.4725ZM14.0641 61.4725C16.2164 62.0825 19.2138 59.9149 18.7618 56.9966M14.0641 61.4725C17.7888 61.9511 17.779 60.4404 18.7618 56.9966M18.7618 56.9966C18.634 55.1199 18.9485 52.0515 18.7618 48.833M18.7618 56.9966C18.7913 54.1065 18.7519 51.648 18.7618 48.833M18.7618 48.833C19.6364 46.29 20.1376 43.5313 23.4496 44.357M18.7618 48.833C18.0935 46.4683 20.688 44.2726 23.4496 44.357M23.4496 44.357C24.9827 44.5447 26.6534 44.5166 28.1472 44.357C25.7591 44.479 24.5994 44.4227 23.4496 44.357Z" stroke="#1E1E1E" stroke-linecap="round"/>
<path d="M61.1478 61.1705C60.1453 61.0016 58.0619 61.0203 56.46 61.1705C57.5312 61.1611 58.8579 61.0579 61.1478 61.1705ZM61.1478 61.1705C64.155 61.9774 65.3835 59.6879 65.8454 56.6945M61.1478 61.1705C64.0764 60.7951 66.6021 59.0686 65.8454 56.6945M65.8454 56.6945C65.5997 54.1516 65.5997 52.2843 65.8454 48.5309M65.8454 56.6945C66.0911 54.4331 65.7864 52.0497 65.8454 48.5309M65.8454 48.5309C65.7078 45.8191 67.064 43.2574 70.5332 44.055M65.8454 48.5309C66.9461 44.5147 67.2213 43.1072 70.5332 44.055M70.5332 44.055C71.9582 43.8579 72.9508 44.0643 75.2308 44.055C72.6854 44.13 71.7322 44.055 70.5332 44.055Z" stroke="#1E1E1E" stroke-linecap="round"/>
<path d="M34.5933 7.75552C34.7625 7.75552 34.9269 7.77994 35.0864 7.82877C35.2459 7.87759 35.3859 7.94433 35.5063 8.02896C35.63 8.11034 35.7293 8.20474 35.8042 8.31216C35.8791 8.41633 35.9165 8.52375 35.9165 8.63443C35.9165 8.70604 35.9019 8.77603 35.8726 8.84439C35.8433 8.9095 35.8042 8.96809 35.7554 9.02017C35.7065 9.069 35.6512 9.10969 35.5894 9.14224C35.5275 9.17154 35.4624 9.18619 35.394 9.18619C35.3192 9.18619 35.2508 9.15852 35.189 9.10318C35.1271 9.04459 35.0604 8.98111 34.9888 8.91275C34.9204 8.84114 34.8423 8.77766 34.7544 8.72232C34.6698 8.66373 34.5672 8.63443 34.4468 8.63443C34.3296 8.63443 34.2238 8.6621 34.1294 8.71744C34.035 8.77278 33.9552 8.8509 33.8901 8.95181C33.8283 9.04947 33.7795 9.16666 33.7437 9.30338C33.7111 9.43684 33.6948 9.58332 33.6948 9.74283C33.6948 10.1986 33.7811 10.5469 33.9536 10.7878C34.1261 11.0254 34.3735 11.1442 34.6958 11.1442C34.8488 11.1442 34.979 11.1198 35.0864 11.071C35.1971 11.0221 35.2931 10.9684 35.3745 10.9098C35.4591 10.8512 35.5356 10.7975 35.604 10.7487C35.6724 10.6999 35.7424 10.6754 35.814 10.6754C35.853 10.6754 35.8921 10.6885 35.9312 10.7145C35.9702 10.7373 36.0044 10.7682 36.0337 10.8073C36.0662 10.8431 36.0923 10.8838 36.1118 10.9294C36.1346 10.9749 36.146 11.0205 36.146 11.0661C36.146 11.1735 36.0923 11.2842 35.9849 11.3981C35.8807 11.512 35.7456 11.6162 35.5796 11.7106C35.4136 11.8017 35.228 11.8766 35.0229 11.9352C34.8211 11.9938 34.6242 12.0231 34.4321 12.0231C34.175 12.0231 33.939 11.9726 33.7241 11.8717C33.5093 11.7741 33.3237 11.6374 33.1675 11.4616C33.0112 11.2825 32.8892 11.0693 32.8013 10.8219C32.7166 10.5745 32.6743 10.3011 32.6743 10.0016C32.6743 9.6761 32.7215 9.37662 32.8159 9.10318C32.9136 8.82974 33.047 8.59374 33.2163 8.39517C33.3888 8.19335 33.5923 8.0371 33.8267 7.92642C34.061 7.81249 34.3166 7.75552 34.5933 7.75552ZM36.0044 6.22232C36.0044 6.05305 36.0532 5.93261 36.1509 5.86099C36.2485 5.78938 36.4097 5.75357 36.6343 5.75357C36.7124 5.75357 36.7808 5.76171 36.8394 5.77798C36.8979 5.79426 36.9468 5.82193 36.9858 5.86099C37.0249 5.8968 37.0558 5.94726 37.0786 6.01236C37.1047 6.07421 37.1258 6.15396 37.1421 6.25162C37.1844 6.54133 37.2267 6.84569 37.269 7.1647C37.3146 7.48046 37.3569 7.79621 37.396 8.11197C37.4383 8.42447 37.4774 8.73046 37.5132 9.02994C37.549 9.32616 37.5799 9.60285 37.606 9.86002C37.6353 10.1139 37.6564 10.3402 37.6694 10.5387C37.6857 10.734 37.6938 10.8887 37.6938 11.0026C37.6938 11.1198 37.6825 11.2191 37.6597 11.3004C37.6401 11.3818 37.6043 11.4469 37.5522 11.4958C37.5034 11.5446 37.4383 11.5804 37.3569 11.6032C37.2788 11.6227 37.1812 11.6325 37.064 11.6325C36.95 11.6325 36.8589 11.6032 36.7905 11.5446C36.7254 11.486 36.6929 11.3965 36.6929 11.276C36.6929 11.1523 36.6831 10.9879 36.6636 10.7829C36.644 10.5745 36.618 10.3434 36.5854 10.0895C36.5529 9.8356 36.5155 9.56542 36.4731 9.27896C36.4341 8.9925 36.3918 8.7093 36.3462 8.42935C36.3039 8.1494 36.2616 7.88085 36.2192 7.62369C36.1802 7.36327 36.1444 7.13378 36.1118 6.93521C36.0793 6.73339 36.0532 6.569 36.0337 6.44205C36.0142 6.31184 36.0044 6.2386 36.0044 6.22232ZM38.5386 10.1628C38.5386 10.1074 38.5451 10.0456 38.5581 9.9772C38.5711 9.90884 38.5776 9.83397 38.5776 9.75259C38.5776 9.69726 38.5532 9.65494 38.5044 9.62564C38.4588 9.59634 38.4067 9.56379 38.3481 9.52798C38.2896 9.49218 38.2358 9.4466 38.187 9.39127C38.1414 9.33593 38.1187 9.25617 38.1187 9.15201C38.1187 9.07714 38.1382 9.00227 38.1772 8.9274C38.2196 8.85253 38.2798 8.78417 38.3579 8.72232C38.55 8.57909 38.7485 8.45051 38.9536 8.33658C39.1619 8.22265 39.3687 8.12662 39.5737 8.04849C39.7821 7.97037 39.9871 7.91015 40.189 7.86783C40.3908 7.82551 40.5845 7.80435 40.77 7.80435C41.0825 7.80435 41.3755 7.86295 41.6489 7.98013C41.9256 8.09407 42.1649 8.25194 42.3667 8.45377C42.5718 8.65233 42.7329 8.88671 42.8501 9.15689C42.9705 9.42382 43.0308 9.71028 43.0308 10.0163C43.0308 10.3157 42.9673 10.6006 42.8403 10.8708C42.7166 11.1377 42.549 11.3721 42.3374 11.5739C42.1258 11.7757 41.8768 11.9352 41.5903 12.0524C41.3071 12.1728 41.0076 12.2331 40.6919 12.2331C40.3826 12.2331 40.0962 12.181 39.8325 12.0768C39.5688 11.9726 39.341 11.8294 39.1489 11.6471C38.9569 11.4616 38.8071 11.2435 38.6997 10.9928C38.5923 10.7389 38.5386 10.4622 38.5386 10.1628ZM40.7993 11.3542C40.936 11.3542 41.0776 11.3265 41.2241 11.2711C41.3706 11.2158 41.5041 11.1361 41.6245 11.0319C41.7482 10.9245 41.8491 10.7943 41.9272 10.6413C42.0086 10.4883 42.0493 10.3157 42.0493 10.1237C42.0493 9.92838 42.0135 9.74608 41.9419 9.57681C41.8703 9.40754 41.771 9.26106 41.644 9.13736C41.5203 9.01041 41.3722 8.91112 41.1997 8.83951C41.0304 8.76789 40.8465 8.73209 40.6479 8.73209C40.2866 8.73209 40.0099 8.82649 39.8179 9.01529C39.6258 9.20084 39.5298 9.48729 39.5298 9.87466C39.5298 10.0863 39.5607 10.2832 39.6226 10.4655C39.6877 10.6445 39.7772 10.8008 39.8911 10.9342C40.005 11.0644 40.1385 11.167 40.2915 11.2419C40.4478 11.3167 40.617 11.3542 40.7993 11.3542ZM45.394 7.75552C45.5633 7.75552 45.7277 7.77994 45.8872 7.82877C46.0467 7.87759 46.1867 7.94433 46.3071 8.02896C46.4308 8.11034 46.5301 8.20474 46.605 8.31216C46.6799 8.41633 46.7173 8.52375 46.7173 8.63443C46.7173 8.70604 46.7026 8.77603 46.6733 8.84439C46.644 8.9095 46.605 8.96809 46.5562 9.02017C46.5073 9.069 46.452 9.10969 46.3901 9.14224C46.3283 9.17154 46.2632 9.18619 46.1948 9.18619C46.12 9.18619 46.0516 9.15852 45.9897 9.10318C45.9279 9.04459 45.8612 8.98111 45.7896 8.91275C45.7212 8.84114 45.6431 8.77766 45.5552 8.72232C45.4705 8.66373 45.368 8.63443 45.2476 8.63443C45.1304 8.63443 45.0246 8.6621 44.9302 8.71744C44.8358 8.77278 44.756 8.8509 44.6909 8.95181C44.6291 9.04947 44.5802 9.16666 44.5444 9.30338C44.5119 9.43684 44.4956 9.58332 44.4956 9.74283C44.4956 10.1986 44.5819 10.5469 44.7544 10.7878C44.9269 11.0254 45.1743 11.1442 45.4966 11.1442C45.6496 11.1442 45.7798 11.1198 45.8872 11.071C45.9979 11.0221 46.0939 10.9684 46.1753 10.9098C46.2599 10.8512 46.3364 10.7975 46.4048 10.7487C46.4731 10.6999 46.5431 10.6754 46.6147 10.6754C46.6538 10.6754 46.6929 10.6885 46.7319 10.7145C46.771 10.7373 46.8052 10.7682 46.8345 10.8073C46.867 10.8431 46.8931 10.8838 46.9126 10.9294C46.9354 10.9749 46.9468 11.0205 46.9468 11.0661C46.9468 11.1735 46.8931 11.2842 46.7856 11.3981C46.6815 11.512 46.5464 11.6162 46.3804 11.7106C46.2144 11.8017 46.0288 11.8766 45.8237 11.9352C45.6219 11.9938 45.425 12.0231 45.2329 12.0231C44.9757 12.0231 44.7397 11.9726 44.5249 11.8717C44.3101 11.7741 44.1245 11.6374 43.9683 11.4616C43.812 11.2825 43.6899 11.0693 43.6021 10.8219C43.5174 10.5745 43.4751 10.3011 43.4751 10.0016C43.4751 9.6761 43.5223 9.37662 43.6167 9.10318C43.7144 8.82974 43.8478 8.59374 44.0171 8.39517C44.1896 8.19335 44.3931 8.0371 44.6274 7.92642C44.8618 7.81249 45.1174 7.75552 45.394 7.75552ZM47.3618 11.6862C47.3618 11.403 47.3537 11.0954 47.3374 10.7633C47.3211 10.4313 47.3 10.096 47.2739 9.75748C47.2511 9.41568 47.2251 9.08202 47.1958 8.7565C47.1698 8.43098 47.1437 8.13313 47.1177 7.86295C47.0949 7.59276 47.0754 7.36002 47.0591 7.1647C47.0428 6.96939 47.0347 6.83267 47.0347 6.75455C47.0347 6.62434 47.0835 6.52505 47.1812 6.4567C47.2788 6.38834 47.4204 6.35416 47.606 6.35416C47.6873 6.35416 47.7557 6.36229 47.811 6.37857C47.8696 6.39485 47.9168 6.42252 47.9526 6.46158C47.9884 6.50064 48.0161 6.55272 48.0356 6.61783C48.0584 6.67968 48.0747 6.7578 48.0845 6.8522C48.0975 6.98241 48.1089 7.12239 48.1187 7.27213C48.1284 7.41861 48.1382 7.58625 48.1479 7.77505C48.161 7.96386 48.174 8.17707 48.187 8.4147C48.2 8.65233 48.2163 8.92577 48.2358 9.23502C48.2358 9.28059 48.244 9.31314 48.2603 9.33267C48.2765 9.3522 48.2944 9.36197 48.314 9.36197C48.3498 9.36197 48.3823 9.33267 48.4116 9.27408C48.6883 8.71093 48.978 8.28124 49.2808 7.98502C49.5835 7.68554 49.8781 7.5358 50.1646 7.5358C50.3338 7.5358 50.4673 7.58625 50.5649 7.68716C50.6626 7.78808 50.7114 7.92317 50.7114 8.09244C50.7114 8.27473 50.6707 8.444 50.5894 8.60025C50.5112 8.75325 50.4119 8.8981 50.2915 9.03482C50.1743 9.17154 50.0457 9.30012 49.9058 9.42056C49.769 9.54101 49.6405 9.65819 49.52 9.77213C49.4028 9.88606 49.3035 9.99836 49.2222 10.109C49.144 10.2165 49.105 10.3255 49.105 10.4362C49.105 10.5371 49.1636 10.6413 49.2808 10.7487C49.4012 10.8529 49.5737 10.957 49.7983 11.0612C50.0229 11.1621 50.298 11.2614 50.6235 11.359C50.9491 11.4534 51.3185 11.5446 51.7319 11.6325C51.797 11.6488 51.8426 11.6748 51.8687 11.7106C51.8979 11.7464 51.9126 11.7936 51.9126 11.8522C51.9126 11.9238 51.8963 11.9971 51.8638 12.0719C51.8312 12.1501 51.7905 12.22 51.7417 12.2819C51.6929 12.347 51.6375 12.3991 51.5757 12.4381C51.5171 12.4805 51.4601 12.5016 51.4048 12.5016C51.2941 12.5016 51.1623 12.487 51.0093 12.4577C50.8563 12.4284 50.6903 12.3877 50.5112 12.3356C50.3354 12.2868 50.1532 12.2282 49.9644 12.1598C49.7756 12.0947 49.5916 12.0231 49.4126 11.945C49.2368 11.8701 49.0692 11.792 48.9097 11.7106C48.7534 11.626 48.6183 11.543 48.5044 11.4616C48.4686 11.442 48.4393 11.4258 48.4165 11.4128C48.397 11.3997 48.3791 11.3932 48.3628 11.3932C48.3433 11.3932 48.3319 11.4014 48.3286 11.4176C48.3254 11.4307 48.3237 11.46 48.3237 11.5055C48.3237 11.6195 48.314 11.7122 48.2944 11.7838C48.2782 11.8555 48.2489 11.9108 48.2065 11.9499C48.1642 11.9922 48.1056 12.0215 48.0308 12.0378C47.9559 12.054 47.8631 12.0622 47.7524 12.0622C47.606 12.0622 47.5034 12.0345 47.4448 11.9792C47.3895 11.9238 47.3618 11.8262 47.3618 11.6862Z" fill="#1E1E1E"/>
</svg>
