<svg width="83" height="118" viewBox="0 0 83 118" fill="none" xmlns="http://www.w3.org/2000/svg">
<path d="M22.2214 2.60513C32.1575 0.195699 41.4163 0.0375508 61.3078 2.60513C75.3073 4.86572 83.2988 12.1964 80.851 21.3969C78.5 35.7511 83.3762 50.6264 80.851 97.2615C80.5124 107.253 73.7594 113.411 61.3078 116.053C49.0788 115.951 32.2252 119.895 22.2214 116.053C11.6177 115.337 3.5489 106.983 2.67816 97.2615C-0.175925 79.707 -0.0114523 60.0594 2.67816 21.3969C4.99045 8.52174 9.28609 4.18662 22.2214 2.60513Z" fill="white"/>
<path d="M22.2214 2.6051C32.8347 4.49357 43.864 1.13525 61.3078 2.6051M22.2214 2.6051C32.9024 3.36793 43.7673 3.30281 61.3078 2.6051M22.2214 2.6051C7.46722 4.36333 0.83027 9.5171 2.67817 21.3968M22.2214 2.6051C11.2501 1.3027 2.91036 10.9497 2.67817 21.3968M61.3078 2.6051C73.4304 0.800346 80.7156 8.33564 80.851 21.3968M61.3078 2.6051C75.2977 2.10274 81.8766 6.76346 80.851 21.3968M80.851 21.3968C81.5186 43.1189 80.8317 64.469 80.851 97.2615M80.851 21.3968C80.7833 50.0589 81.151 80.228 80.851 97.2615M80.851 97.2615C81.1413 110.071 73.6239 117.123 61.3078 116.053M80.851 97.2615C80.2125 107.857 75.8588 116.863 61.3078 116.053M61.3078 116.053C50.917 115.309 43.9898 116.407 22.2214 116.053M61.3078 116.053C51.6426 116.211 42.7031 116.369 22.2214 116.053M22.2214 116.053C7.80584 114.825 2.3976 110.109 2.67817 97.2615M22.2214 116.053C8.29926 118.174 4.83566 110.862 2.67817 97.2615M2.67817 97.2615C2.23312 76.5905 3.57793 55.5847 2.67817 21.3968M2.67817 97.2615C1.86548 70.0972 3.18126 43.4911 2.67817 21.3968" stroke="#1E1E1E" stroke-width="2" stroke-linecap="round"/>
<path d="M11.2068 84.6771C21.8395 84.6771 64.3895 84.6771 75.0222 84.6771" stroke="#1E1E1E" stroke-width="2" stroke-linecap="round"/>
<path d="M23.5057 2.49982C31.0908 2.49982 38.6759 2.49982 58.7125 2.49982C61.1119 2.49982 62.3212 3.65337 62.3212 5.96977C62.3212 7.83964 62.3212 9.70952 62.3212 12.9004C62.3212 15.2075 61.1119 16.361 58.7125 16.361C48.8732 16.361 39.0338 16.361 23.5057 16.361C21.0967 16.361 19.897 15.2075 19.897 12.9004C19.897 10.9282 19.897 8.95599 19.897 5.96977C19.897 3.65337 21.0967 2.49982 23.5057 2.49982Z" fill="white"/>
<path d="M23.5057 2.49982C37.215 2.49982 50.9242 2.49982 58.7125 2.49982M23.5057 2.49982C36.054 2.49982 48.6023 2.49982 58.7125 2.49982M23.5057 2.49982C21.0967 2.49982 19.897 3.65337 19.897 5.96977C19.897 9.28158 19.897 11.0863 19.897 12.9004C19.897 15.2075 21.0967 16.361 23.5057 16.361M58.7125 2.49982C61.1119 2.49982 62.3212 3.65337 62.3212 5.96977M62.3212 5.96977C62.3212 7.83964 62.3212 9.70952 62.3212 12.9004M62.3212 5.96977C62.3212 7.64429 62.3212 9.3281 62.3212 12.9004M62.3212 12.9004C62.3212 15.2075 61.1119 16.361 58.7125 16.361M58.7125 16.361C50.1309 16.361 41.5493 16.361 23.5057 16.361M58.7125 16.361C46.1642 16.361 33.6256 16.361 23.5057 16.361" stroke="#1E1E1E" stroke-width="2" stroke-linecap="round"/>
<path d="M25.1552 7.14709C25.3075 7.14709 25.4554 7.16907 25.599 7.21301C25.7426 7.25696 25.8685 7.31702 25.9769 7.39319C26.0883 7.46643 26.1776 7.55139 26.245 7.64807C26.3124 7.74182 26.3461 7.8385 26.3461 7.93811C26.3461 8.00256 26.3329 8.06555 26.3065 8.12708C26.2802 8.18567 26.245 8.2384 26.201 8.28528C26.1571 8.32922 26.1073 8.36584 26.0516 8.39514C25.996 8.42151 25.9374 8.43469 25.8759 8.43469C25.8085 8.43469 25.7469 8.40979 25.6913 8.35999C25.6356 8.30725 25.5756 8.25012 25.5111 8.1886C25.4496 8.12415 25.3793 8.06702 25.3002 8.01721C25.224 7.96448 25.1317 7.93811 25.0233 7.93811C24.9178 7.93811 24.8226 7.96301 24.7377 8.01282C24.6527 8.06262 24.5809 8.13293 24.5223 8.22375C24.4667 8.31165 24.4227 8.41711 24.3905 8.54016C24.3612 8.66028 24.3466 8.79211 24.3466 8.93567C24.3466 9.34583 24.4242 9.6593 24.5795 9.8761C24.7347 10.09 24.9574 10.1969 25.2474 10.1969C25.3851 10.1969 25.5023 10.1749 25.599 10.131C25.6986 10.087 25.785 10.0387 25.8583 9.98596C25.9344 9.93323 26.0033 9.88489 26.0648 9.84094C26.1263 9.797 26.1893 9.77502 26.2538 9.77502C26.2889 9.77502 26.3241 9.78674 26.3593 9.81018C26.3944 9.83069 26.4252 9.85852 26.4515 9.89368C26.4808 9.9259 26.5043 9.96252 26.5219 10.0035C26.5424 10.0446 26.5526 10.0856 26.5526 10.1266C26.5526 10.2233 26.5043 10.3229 26.4076 10.4254C26.3138 10.528 26.1923 10.6217 26.0428 10.7067C25.8934 10.7887 25.7264 10.8561 25.5419 10.9088C25.3602 10.9615 25.183 10.9879 25.0101 10.9879C24.7787 10.9879 24.5663 10.9425 24.3729 10.8517C24.1796 10.7638 24.0126 10.6407 23.8719 10.4825C23.7313 10.3214 23.6215 10.1295 23.5424 9.90686C23.4662 9.6842 23.4281 9.43811 23.4281 9.16858C23.4281 8.87561 23.4706 8.60608 23.5555 8.35999C23.6434 8.11389 23.7635 7.90149 23.9159 7.72278C24.0712 7.54114 24.2543 7.40051 24.4652 7.3009C24.6761 7.19836 24.9061 7.14709 25.1552 7.14709ZM26.7196 9.3136C26.7196 9.26379 26.7255 9.20813 26.7372 9.14661C26.7489 9.08508 26.7548 9.0177 26.7548 8.94446C26.7548 8.89465 26.7328 8.85657 26.6888 8.8302C26.6478 8.80383 26.601 8.77454 26.5482 8.74231C26.4955 8.71008 26.4471 8.66907 26.4032 8.61926C26.3622 8.56946 26.3417 8.49768 26.3417 8.40393C26.3417 8.33655 26.3593 8.26917 26.3944 8.20178C26.4325 8.1344 26.4867 8.07288 26.557 8.01721C26.7299 7.88831 26.9086 7.77258 27.0931 7.67004C27.2806 7.5675 27.4667 7.48108 27.6512 7.41077C27.8387 7.34045 28.0233 7.28625 28.205 7.24817C28.3866 7.21008 28.5609 7.19104 28.7279 7.19104C29.0092 7.19104 29.2728 7.24377 29.5189 7.34924C29.7679 7.45178 29.9833 7.59387 30.1649 7.77551C30.3495 7.95422 30.4945 8.16516 30.6 8.40833C30.7084 8.64856 30.7626 8.90637 30.7626 9.18176C30.7626 9.45129 30.7054 9.70764 30.5912 9.95081C30.4799 10.191 30.329 10.402 30.1385 10.5836C29.9481 10.7653 29.724 10.9088 29.4662 11.0143C29.2113 11.1227 28.9418 11.1769 28.6576 11.1769C28.3793 11.1769 28.1215 11.13 27.8842 11.0363C27.6469 10.9425 27.4418 10.8136 27.2689 10.6495C27.0961 10.4825 26.9613 10.2863 26.8646 10.0607C26.7679 9.83215 26.7196 9.58313 26.7196 9.3136ZM28.7543 10.3859C28.8773 10.3859 29.0048 10.361 29.1366 10.3112C29.2684 10.2614 29.3885 10.1896 29.4969 10.0958C29.6083 9.99915 29.6991 9.88196 29.7694 9.74426C29.8427 9.60657 29.8793 9.45129 29.8793 9.27844C29.8793 9.10266 29.847 8.9386 29.7826 8.78625C29.7181 8.63391 29.6288 8.50208 29.5145 8.39075C29.4032 8.27649 29.2699 8.18713 29.1146 8.12268C28.9623 8.05823 28.7968 8.026 28.618 8.026C28.2928 8.026 28.0438 8.11096 27.871 8.28088C27.6981 8.44788 27.6117 8.70569 27.6117 9.05432C27.6117 9.24475 27.6395 9.422 27.6952 9.58606C27.7538 9.74719 27.8344 9.88782 27.9369 10.0079C28.0394 10.1251 28.1595 10.2174 28.2972 10.2848C28.4379 10.3522 28.5902 10.3859 28.7543 10.3859ZM31.413 7.2262C31.413 7.18225 31.432 7.13977 31.4701 7.09875C31.5082 7.05481 31.558 7.01672 31.6195 6.9845C31.681 6.94934 31.7499 6.92151 31.826 6.901C31.9052 6.87756 31.9843 6.86584 32.0634 6.86584C32.1073 6.86584 32.1439 6.87756 32.1732 6.901C32.2054 6.92444 32.2333 6.96985 32.2567 7.03723C32.2802 7.10168 32.3007 7.19397 32.3182 7.31409C32.3387 7.43127 32.3578 7.58508 32.3754 7.77551C32.3871 7.83411 32.3973 7.87952 32.4061 7.91174C32.4178 7.94104 32.4325 7.95569 32.4501 7.95569C32.4764 7.95569 32.5028 7.91028 32.5292 7.81946C32.743 7.20129 33.0521 6.89221 33.4564 6.89221C33.6439 6.89221 33.8138 6.95081 33.9662 7.06799C34.1215 7.18518 34.265 7.37708 34.3969 7.64368C34.5316 7.90735 34.6591 8.25598 34.7792 8.68958C34.8993 9.12024 35.0194 9.65198 35.1395 10.2848C35.1454 10.317 35.1498 10.3463 35.1527 10.3727C35.1556 10.399 35.1571 10.424 35.1571 10.4474C35.1571 10.5148 35.141 10.5734 35.1088 10.6232C35.0795 10.67 35.0399 10.7096 34.9901 10.7418C34.9403 10.7711 34.8846 10.7931 34.8231 10.8077C34.7616 10.8253 34.7001 10.8341 34.6385 10.8341C34.5155 10.8341 34.4261 10.8209 34.3705 10.7946C34.3177 10.7682 34.2841 10.7184 34.2694 10.6451C34.1844 10.1998 34.101 9.80432 34.0189 9.45862C33.9398 9.11292 33.8607 8.82288 33.7816 8.5885C33.7054 8.3512 33.6293 8.17102 33.5531 8.04797C33.4769 7.92493 33.4008 7.8634 33.3246 7.8634C33.2484 7.8634 33.1766 7.91174 33.1093 8.00842C33.0448 8.10217 32.9818 8.25012 32.9203 8.45227C32.8588 8.65442 32.7987 8.91077 32.7401 9.22131C32.6844 9.53186 32.6302 9.90247 32.5775 10.3331C32.5629 10.4503 32.5043 10.5441 32.4017 10.6144C32.2992 10.6847 32.1688 10.7198 32.0106 10.7198C31.9052 10.7198 31.8246 10.6979 31.7689 10.6539C31.7133 10.61 31.6825 10.5499 31.6766 10.4738C31.6503 9.86438 31.621 9.3634 31.5887 8.97083C31.5594 8.57532 31.5316 8.25891 31.5052 8.02161C31.4789 7.78137 31.4569 7.60266 31.4393 7.48547C31.4218 7.36829 31.413 7.28186 31.413 7.2262ZM35.245 8.3512C35.1776 8.34534 35.1234 8.30139 35.0824 8.21936C35.0414 8.13733 35.0209 8.04651 35.0209 7.9469C35.0209 7.90002 35.0253 7.85461 35.0341 7.81067C35.0399 7.76379 35.0516 7.72278 35.0692 7.68762C35.0868 7.65247 35.1088 7.62463 35.1351 7.60413C35.1615 7.58069 35.1923 7.56897 35.2274 7.56897C35.3358 7.56897 35.4603 7.56604 35.601 7.56018C35.7416 7.55139 35.8925 7.5426 36.0536 7.53381C36.1356 7.52502 36.181 7.47668 36.1898 7.38879C36.2162 6.96399 36.2528 6.59778 36.2997 6.29016C36.3466 5.98254 36.4037 5.72327 36.4711 5.51233C36.5385 5.29846 36.6146 5.12561 36.6996 4.99377C36.7875 4.86194 36.8842 4.76086 36.9896 4.69055C37.0219 4.66711 37.0599 4.64368 37.1039 4.62024C37.1478 4.59387 37.1888 4.58069 37.2269 4.58069C37.3002 4.58069 37.3763 4.59973 37.4554 4.63782C37.5375 4.67297 37.6122 4.71985 37.6796 4.77844C37.7499 4.83411 37.807 4.89856 37.851 4.9718C37.8949 5.04211 37.9169 5.11243 37.9169 5.18274C37.9169 5.20911 37.911 5.23108 37.8993 5.24866C37.8876 5.26331 37.8729 5.27795 37.8553 5.2926C37.7411 5.37756 37.64 5.47278 37.5521 5.57825C37.4642 5.68372 37.3895 5.81262 37.328 5.96497C37.2665 6.11731 37.2152 6.30042 37.1742 6.51428C37.1332 6.72815 37.1024 6.98596 37.0819 7.28772C37.0819 7.33459 37.0892 7.36975 37.1039 7.39319C37.1215 7.4137 37.1522 7.42395 37.1962 7.42395C37.3104 7.42395 37.4247 7.41516 37.5389 7.39758C37.6561 7.38 37.7675 7.36243 37.8729 7.34485C37.9784 7.32434 38.078 7.3053 38.1718 7.28772C38.2655 7.27014 38.349 7.26135 38.4222 7.26135C38.475 7.26135 38.5131 7.29358 38.5365 7.35803C38.5629 7.41956 38.576 7.49573 38.576 7.58655C38.576 7.63928 38.5717 7.69348 38.5629 7.74915C38.5541 7.80481 38.5394 7.85461 38.5189 7.89856C38.5013 7.9425 38.4779 7.98059 38.4486 8.01282C38.4193 8.04211 38.3827 8.05969 38.3387 8.06555L37.1698 8.1886C37.1083 8.19739 37.0702 8.22229 37.0555 8.26331C37.0438 8.30432 37.038 8.36145 37.038 8.43469C37.038 9.08215 37.0541 9.63879 37.0863 10.1046C37.1185 10.5704 37.1537 10.9615 37.1918 11.278C37.2328 11.5973 37.2694 11.8478 37.3016 12.0294C37.3339 12.214 37.35 12.3473 37.35 12.4293C37.35 12.4908 37.3251 12.5465 37.2753 12.5963C37.2284 12.6461 37.1669 12.6886 37.0907 12.7238C37.0175 12.7589 36.9369 12.7853 36.849 12.8029C36.7611 12.8234 36.6791 12.8336 36.6029 12.8336C36.5297 12.8336 36.4637 12.8204 36.4052 12.7941C36.3495 12.7706 36.3173 12.7296 36.3085 12.671C36.2792 12.4659 36.2543 12.2404 36.2338 11.9943C36.2133 11.7511 36.1957 11.4801 36.181 11.1813C36.1693 10.8854 36.1605 10.5616 36.1547 10.2101C36.1488 9.85559 36.1459 9.46741 36.1459 9.04553C36.1459 8.93713 36.1459 8.83167 36.1459 8.72913C36.1459 8.62659 36.1488 8.52405 36.1547 8.42151C36.1547 8.33362 36.1063 8.28967 36.0096 8.28967L35.245 8.3512ZM40.7601 7.48547C40.6517 7.48547 40.5565 7.51477 40.4745 7.57336C40.3925 7.62903 40.3221 7.70813 40.2635 7.81067C40.205 7.91028 40.1566 8.02893 40.1185 8.16663C40.0804 8.30139 40.0497 8.44934 40.0262 8.61047C40.0028 8.77161 39.9867 8.94006 39.9779 9.11584C39.9691 9.29163 39.9647 9.46887 39.9647 9.64758C39.9647 9.88196 39.9735 10.1134 39.9911 10.3419C40.0116 10.5675 40.0219 10.777 40.0219 10.9703C40.0219 11.0963 39.975 11.1945 39.8812 11.2648C39.7875 11.338 39.6542 11.3746 39.4813 11.3746C39.4491 11.3746 39.4125 11.3717 39.3715 11.3658C39.3304 11.36 39.2909 11.3483 39.2528 11.3307C39.2177 11.3131 39.1854 11.2882 39.1561 11.256C39.1298 11.2267 39.1151 11.1857 39.1122 11.1329C39.0858 10.8751 39.0477 10.6115 38.9979 10.3419C38.9481 10.0724 38.8851 9.80432 38.809 9.53772C38.7357 9.26819 38.6464 9.00159 38.5409 8.73792C38.4384 8.47424 38.3197 8.21643 38.1849 7.96448C38.1615 7.92053 38.141 7.87952 38.1234 7.84143C38.1088 7.80334 38.1014 7.76672 38.1014 7.73157C38.1014 7.68762 38.1205 7.64075 38.1586 7.59094C38.1996 7.53821 38.2494 7.48987 38.308 7.44592C38.3695 7.40198 38.4354 7.36682 38.5057 7.34045C38.579 7.31116 38.6493 7.29651 38.7167 7.29651C38.828 7.29651 38.9261 7.37415 39.0111 7.52942C39.0961 7.68176 39.1752 7.92639 39.2484 8.26331C39.2631 8.3219 39.2748 8.36292 39.2836 8.38635C39.2924 8.40979 39.3041 8.42151 39.3187 8.42151C39.351 8.42151 39.3715 8.3717 39.3802 8.27209C39.4154 7.99377 39.4755 7.755 39.5604 7.55579C39.6454 7.35364 39.7509 7.18811 39.8768 7.0592C40.0057 6.92737 40.1522 6.83069 40.3163 6.76917C40.4833 6.70764 40.6664 6.67688 40.8656 6.67688C40.9799 6.67688 41.0956 6.68713 41.2128 6.70764C41.33 6.72815 41.4354 6.75891 41.5292 6.79993C41.6229 6.84094 41.6991 6.89075 41.7577 6.94934C41.8163 7.00793 41.8456 7.07385 41.8456 7.14709C41.8456 7.19983 41.8339 7.26282 41.8104 7.33606C41.7899 7.40637 41.7621 7.47522 41.7269 7.5426C41.6918 7.60706 41.6508 7.66272 41.6039 7.70959C41.5599 7.75354 41.5145 7.77551 41.4677 7.77551C41.4149 7.77551 41.3636 7.76086 41.3138 7.73157C41.264 7.69934 41.2098 7.66565 41.1512 7.63049C41.0956 7.59534 41.0355 7.56311 40.9711 7.53381C40.9095 7.50159 40.8392 7.48547 40.7601 7.48547ZM41.6259 9.3136C41.6259 9.26379 41.6317 9.20813 41.6434 9.14661C41.6552 9.08508 41.661 9.0177 41.661 8.94446C41.661 8.89465 41.639 8.85657 41.5951 8.8302C41.5541 8.80383 41.5072 8.77454 41.4545 8.74231C41.4017 8.71008 41.3534 8.66907 41.3094 8.61926C41.2684 8.56946 41.2479 8.49768 41.2479 8.40393C41.2479 8.33655 41.2655 8.26917 41.3007 8.20178C41.3387 8.1344 41.3929 8.07288 41.4633 8.01721C41.6361 7.88831 41.8148 7.77258 41.9994 7.67004C42.1869 7.5675 42.3729 7.48108 42.5575 7.41077C42.745 7.34045 42.9296 7.28625 43.1112 7.24817C43.2928 7.21008 43.4672 7.19104 43.6342 7.19104C43.9154 7.19104 44.1791 7.24377 44.4252 7.34924C44.6742 7.45178 44.8895 7.59387 45.0712 7.77551C45.2557 7.95422 45.4008 8.16516 45.5062 8.40833C45.6146 8.64856 45.6688 8.90637 45.6688 9.18176C45.6688 9.45129 45.6117 9.70764 45.4974 9.95081C45.3861 10.191 45.2352 10.402 45.0448 10.5836C44.8544 10.7653 44.6302 10.9088 44.3724 11.0143C44.1176 11.1227 43.848 11.1769 43.5638 11.1769C43.2855 11.1769 43.0277 11.13 42.7904 11.0363C42.5531 10.9425 42.348 10.8136 42.1752 10.6495C42.0023 10.4825 41.8676 10.2863 41.7709 10.0607C41.6742 9.83215 41.6259 9.58313 41.6259 9.3136ZM43.6605 10.3859C43.7836 10.3859 43.911 10.361 44.0428 10.3112C44.1747 10.2614 44.2948 10.1896 44.4032 10.0958C44.5145 9.99915 44.6053 9.88196 44.6757 9.74426C44.7489 9.60657 44.7855 9.45129 44.7855 9.27844C44.7855 9.10266 44.7533 8.9386 44.6888 8.78625C44.6244 8.63391 44.535 8.50208 44.4208 8.39075C44.3094 8.27649 44.1761 8.18713 44.0209 8.12268C43.8685 8.05823 43.703 8.026 43.5243 8.026C43.1991 8.026 42.9501 8.11096 42.7772 8.28088C42.6044 8.44788 42.5179 8.70569 42.5179 9.05432C42.5179 9.24475 42.5458 9.422 42.6014 9.58606C42.66 9.74719 42.7406 9.88782 42.8431 10.0079C42.9457 10.1251 43.0658 10.2174 43.2035 10.2848C43.3441 10.3522 43.4965 10.3859 43.6605 10.3859ZM46.3192 7.2262C46.3192 7.18225 46.3383 7.13977 46.3763 7.09875C46.4144 7.05481 46.4642 7.01672 46.5258 6.9845C46.5873 6.94934 46.6561 6.92151 46.7323 6.901C46.8114 6.87756 46.8905 6.86584 46.9696 6.86584C47.0135 6.86584 47.0502 6.87756 47.0795 6.901C47.1117 6.92444 47.1395 6.96985 47.163 7.03723C47.1864 7.10168 47.2069 7.19397 47.2245 7.31409C47.245 7.43127 47.264 7.58508 47.2816 7.77551C47.2933 7.83411 47.3036 7.87952 47.3124 7.91174C47.3241 7.94104 47.3387 7.95569 47.3563 7.95569C47.3827 7.95569 47.4091 7.91028 47.4354 7.81946C47.6493 7.20129 47.9584 6.89221 48.3627 6.89221C48.5502 6.89221 48.7201 6.95081 48.8724 7.06799C49.0277 7.18518 49.1713 7.37708 49.3031 7.64368C49.4379 7.90735 49.5653 8.25598 49.6854 8.68958C49.8055 9.12024 49.9257 9.65198 50.0458 10.2848C50.0516 10.317 50.056 10.3463 50.059 10.3727C50.0619 10.399 50.0634 10.424 50.0634 10.4474C50.0634 10.5148 50.0472 10.5734 50.015 10.6232C49.9857 10.67 49.9462 10.7096 49.8964 10.7418C49.8466 10.7711 49.7909 10.7931 49.7294 10.8077C49.6678 10.8253 49.6063 10.8341 49.5448 10.8341C49.4218 10.8341 49.3324 10.8209 49.2767 10.7946C49.224 10.7682 49.1903 10.7184 49.1757 10.6451C49.0907 10.1998 49.0072 9.80432 48.9252 9.45862C48.8461 9.11292 48.767 8.82288 48.6879 8.5885C48.6117 8.3512 48.5355 8.17102 48.4594 8.04797C48.3832 7.92493 48.307 7.8634 48.2308 7.8634C48.1547 7.8634 48.0829 7.91174 48.0155 8.00842C47.951 8.10217 47.8881 8.25012 47.8265 8.45227C47.765 8.65442 47.705 8.91077 47.6464 9.22131C47.5907 9.53186 47.5365 9.90247 47.4838 10.3331C47.4691 10.4503 47.4105 10.5441 47.308 10.6144C47.2054 10.6847 47.0751 10.7198 46.9169 10.7198C46.8114 10.7198 46.7308 10.6979 46.6752 10.6539C46.6195 10.61 46.5887 10.5499 46.5829 10.4738C46.5565 9.86438 46.5272 9.3634 46.495 8.97083C46.4657 8.57532 46.4379 8.25891 46.4115 8.02161C46.3851 7.78137 46.3632 7.60266 46.3456 7.48547C46.328 7.36829 46.3192 7.28186 46.3192 7.2262ZM50.9335 5.6969C50.9335 5.54163 50.9774 5.43323 51.0653 5.3717C51.1532 5.30725 51.2982 5.27502 51.5004 5.27502C51.5736 5.27502 51.6351 5.28235 51.6849 5.297C51.7377 5.30872 51.7816 5.33215 51.8168 5.36731C51.8549 5.40247 51.8842 5.44934 51.9047 5.50793C51.9281 5.5636 51.9471 5.63538 51.9618 5.72327C51.9969 5.99573 52.035 6.27698 52.076 6.56702C52.12 6.85706 52.1654 7.14856 52.2123 7.44153C52.2299 7.57336 52.2987 7.63928 52.4188 7.63928C52.451 7.63928 52.5038 7.63635 52.577 7.63049C52.6532 7.6217 52.7426 7.61292 52.8451 7.60413C52.9476 7.59241 53.0575 7.58069 53.1747 7.56897C53.2948 7.55725 53.4135 7.547 53.5306 7.53821C53.6508 7.52649 53.7635 7.5177 53.869 7.51184C53.9774 7.50305 54.0726 7.49866 54.1547 7.49866C54.2191 7.49866 54.2704 7.51184 54.3085 7.53821C54.3466 7.56165 54.3759 7.59387 54.3964 7.63489C54.4198 7.67297 54.4344 7.71692 54.4403 7.76672C54.4491 7.8136 54.4535 7.86194 54.4535 7.91174C54.4535 7.95569 54.4447 8.0011 54.4271 8.04797C54.4125 8.09485 54.3905 8.13733 54.3612 8.17542C54.3348 8.21057 54.3011 8.23987 54.2601 8.26331C54.2191 8.28674 54.1722 8.29846 54.1195 8.29846C53.8646 8.29846 53.6068 8.30725 53.3461 8.32483C53.0883 8.33948 52.8304 8.35999 52.5726 8.38635C52.4408 8.40393 52.3749 8.46985 52.3749 8.58411C52.3749 8.5929 52.3763 8.60461 52.3793 8.61926C52.3822 8.63098 52.3837 8.64124 52.3837 8.65002C52.4188 8.90491 52.451 9.14368 52.4803 9.36633C52.5126 9.58899 52.5389 9.78821 52.5594 9.96399C52.5829 10.1368 52.6005 10.2819 52.6122 10.399C52.6268 10.5133 52.6342 10.5895 52.6342 10.6276C52.6342 10.733 52.6239 10.8209 52.6034 10.8912C52.5829 10.9645 52.5492 11.0231 52.5023 11.067C52.4554 11.1139 52.3925 11.1461 52.3134 11.1637C52.2372 11.1842 52.1405 11.1945 52.0233 11.1945C51.912 11.1945 51.83 11.1681 51.7772 11.1154C51.7245 11.0626 51.6952 10.9821 51.6893 10.8737C51.6718 10.528 51.6439 10.1808 51.6058 9.83215C51.5677 9.48059 51.5238 9.13049 51.474 8.78186C51.4476 8.65588 51.3817 8.5929 51.2762 8.5929C51.2675 8.5929 51.2572 8.59436 51.2455 8.59729C51.2338 8.60022 51.2235 8.60168 51.2147 8.60168C51.0331 8.6427 50.8617 8.68372 50.7006 8.72473C50.5394 8.76575 50.3885 8.80969 50.2479 8.85657C50.1688 8.88293 50.0985 8.90198 50.037 8.9137C49.9755 8.92249 49.9198 8.92688 49.87 8.92688C49.8026 8.92688 49.7528 8.89758 49.7206 8.83899C49.6884 8.77747 49.6722 8.70129 49.6722 8.61047C49.6722 8.57825 49.6752 8.54163 49.681 8.50061C49.6869 8.45667 49.6986 8.41418 49.7162 8.37317C49.7308 8.32922 49.7543 8.28967 49.7865 8.25452C49.8158 8.21643 49.8568 8.18567 49.9095 8.16223C50.0326 8.11243 50.1967 8.06116 50.4017 8.00842C50.6068 7.95276 50.8383 7.90149 51.0961 7.85461C51.1547 7.83997 51.2001 7.81653 51.2323 7.7843C51.2675 7.74915 51.285 7.69788 51.285 7.63049C51.285 7.61584 51.285 7.6012 51.285 7.58655C51.285 7.56897 51.2821 7.55139 51.2762 7.53381C51.2294 7.26428 51.184 7.01965 51.14 6.79993C51.099 6.57727 51.0624 6.38684 51.0302 6.22864C51.0009 6.07043 50.9774 5.94592 50.9598 5.8551C50.9423 5.76428 50.9335 5.71155 50.9335 5.6969ZM54.2557 9.3136C54.2557 9.26379 54.2616 9.20813 54.2733 9.14661C54.285 9.08508 54.2909 9.0177 54.2909 8.94446C54.2909 8.89465 54.2689 8.85657 54.225 8.8302C54.184 8.80383 54.1371 8.77454 54.0844 8.74231C54.0316 8.71008 53.9833 8.66907 53.9393 8.61926C53.8983 8.56946 53.8778 8.49768 53.8778 8.40393C53.8778 8.33655 53.8954 8.26917 53.9305 8.20178C53.9686 8.1344 54.0228 8.07288 54.0931 8.01721C54.266 7.88831 54.4447 7.77258 54.6293 7.67004C54.8168 7.5675 55.0028 7.48108 55.1874 7.41077C55.3749 7.34045 55.5594 7.28625 55.7411 7.24817C55.9227 7.21008 56.097 7.19104 56.264 7.19104C56.5453 7.19104 56.809 7.24377 57.0551 7.34924C57.3041 7.45178 57.5194 7.59387 57.701 7.77551C57.8856 7.95422 58.0306 8.16516 58.1361 8.40833C58.2445 8.64856 58.2987 8.90637 58.2987 9.18176C58.2987 9.45129 58.2416 9.70764 58.1273 9.95081C58.016 10.191 57.8651 10.402 57.6747 10.5836C57.4843 10.7653 57.2601 10.9088 57.0023 11.0143C56.7474 11.1227 56.4779 11.1769 56.1937 11.1769C55.9154 11.1769 55.6576 11.13 55.4203 11.0363C55.183 10.9425 54.9779 10.8136 54.8051 10.6495C54.6322 10.4825 54.4974 10.2863 54.4008 10.0607C54.3041 9.83215 54.2557 9.58313 54.2557 9.3136ZM56.2904 10.3859C56.4135 10.3859 56.5409 10.361 56.6727 10.3112C56.8046 10.2614 56.9247 10.1896 57.0331 10.0958C57.1444 9.99915 57.2352 9.88196 57.3055 9.74426C57.3788 9.60657 57.4154 9.45129 57.4154 9.27844C57.4154 9.10266 57.3832 8.9386 57.3187 8.78625C57.2543 8.63391 57.1649 8.50208 57.0507 8.39075C56.9393 8.27649 56.806 8.18713 56.6508 8.12268C56.4984 8.05823 56.3329 8.026 56.1542 8.026C55.829 8.026 55.58 8.11096 55.4071 8.28088C55.2343 8.44788 55.1478 8.70569 55.1478 9.05432C55.1478 9.24475 55.1757 9.422 55.2313 9.58606C55.2899 9.74719 55.3705 9.88782 55.473 10.0079C55.5756 10.1251 55.6957 10.2174 55.8334 10.2848C55.974 10.3522 56.1263 10.3859 56.2904 10.3859Z" fill="#1E1E1E"/>
<path d="M20.5394 31.1546C20.6072 38.7643 21.4876 69.3707 21.5843 76.8501M21.3231 30.7081C21.2941 38.1875 20.9941 68.5706 21.1393 76.1803" stroke="#1E1E1E" stroke-linecap="round"/>
<path d="M9.81641 65.0106C19.53 65.0665 58.6164 65.7642 68.5622 65.8107M11.3741 64.0524C20.9425 63.7175 57.7553 63.578 67.3625 63.9501" stroke="#1E1E1E" stroke-linecap="round"/>
<path d="M9.25793 43.4912C11.9572 41.8167 20.4614 35.3791 25.9664 34.3186C31.4714 33.2487 36.0186 38.6444 42.3073 37.1001C48.5862 35.5558 60.3025 26.8205 63.679 25.0436M11.1349 42.5516C13.6406 40.9887 19.6971 36.4489 24.7958 35.7512C29.8847 35.0628 35.1962 40.0305 41.7171 38.3839C48.2379 36.7373 60.1961 28.281 63.9209 25.8623" stroke="#1E1E1E" stroke-width="0.5" stroke-linecap="round"/>
<path d="M12.1495 48.1926C14.8875 47.7088 22.4339 44.8529 27.9486 44.5366C33.4729 44.2203 39.3262 47.6902 45.2472 46.2948C51.1683 44.8994 58.5211 34.9918 63.4843 36.1454C68.4572 37.299 72.8496 50.5555 75.0458 53.1975M11.2595 47.039C13.833 46.8251 21.5438 45.839 27.1553 45.9041C32.7667 45.9692 38.8135 48.8996 44.9376 47.4204C51.0618 45.9506 58.5985 35.9593 63.9004 37.0478C69.2022 38.1362 74.92 51.6718 76.7583 53.9696" stroke="#1E1E1E" stroke-width="0.5" stroke-linecap="round"/>
<path d="M8.0141 54.8596C11.4487 54.2921 20.872 51.8083 30.2276 52.3757C39.5832 52.9432 56.0595 60.9902 64.138 58.2737C72.2165 55.5666 76.2896 39.8913 78.6889 36.0958M9.69752 56.9062C13.432 56.4783 23.5422 53.1944 32.4334 53.6409C41.3343 54.0967 55.2661 62.367 63.0544 59.6226C70.8426 56.8783 76.812 41.1751 79.1824 37.1749" stroke="#1E1E1E" stroke-width="0.5" stroke-linecap="round"/>
<path d="M71.4172 63.4146L72.0449 64.4858L72.6726 63.4146H73.1365L72.2905 64.7246L73.1365 66.0345H72.6726L72.0449 65.0179L71.4172 66.0345H70.9532L71.7856 64.7246L70.9532 63.4146H71.4172Z" fill="#1E1E1E"/>
<path d="M19.6649 27.3541C19.5967 27.3541 19.5359 27.3484 19.4824 27.337C19.429 27.3268 19.392 27.3165 19.3715 27.3063L19.4739 26.9515C19.5717 26.9765 19.6581 26.9856 19.7332 26.9788C19.8082 26.972 19.8747 26.9384 19.9327 26.8782C19.9919 26.819 20.0459 26.723 20.0948 26.5899L20.1698 26.3852L19.201 23.7516H19.6376L20.3609 25.8394H20.3881L21.1114 23.7516H21.548L20.4359 26.7537C20.3859 26.889 20.3239 27.001 20.25 27.0897C20.1761 27.1795 20.0902 27.246 19.9924 27.2892C19.8958 27.3325 19.7866 27.3541 19.6649 27.3541Z" fill="#1E1E1E"/>
</svg>
