<svg width="83" height="120" viewBox="0 0 83 120" fill="none" xmlns="http://www.w3.org/2000/svg">
<path d="M21.7443 2.3702C34.2784 4.89243 41.3945 3.10032 61.3982 2.3702C76.3371 0.426376 83.6004 10.5248 81.2251 21.524C82.3244 43.3422 78.1137 57.6507 81.2251 98.8502C82.9722 112.618 77.9566 116.383 61.3982 118.004C46.312 120.441 34.7986 117.065 21.7443 118.004C5.76491 119.578 1.46579 109.214 1.9173 98.8502C-1.42973 73.0875 3.85092 50.8994 1.9173 21.524C-1.00767 9.62398 7.65926 0.578089 21.7443 2.3702Z" fill="white"/>
<path d="M21.7442 2.37019C36.3396 3.69768 53.5556 0.928913 61.3981 2.37019M21.7442 2.37019C36.1923 1.93401 51.4453 3.46063 61.3981 2.37019M21.7442 2.37019C9.81855 3.87784 2.82023 10.6196 1.91722 21.524M21.7442 2.37019C9.57317 1.50732 0.739378 8.42923 1.91722 21.524M61.3981 2.37019C74.6193 2.07624 81.9612 8.89385 81.225 21.524M61.3981 2.37019C76.3566 4.40883 80.3122 7.41465 81.225 21.524M81.225 21.524C79.5761 48.8134 81.9219 78.5491 81.225 98.8502M81.225 21.524C81.4017 47.1919 82.3734 74.7468 81.225 98.8502M81.225 98.8502C80.2828 110.162 76.1309 119.161 61.3981 118.004M81.225 98.8502C81.1367 113.149 73.5298 119.417 61.3981 118.004M61.3981 118.004C49.9043 117.957 36.8892 120.137 21.7442 118.004M61.3981 118.004C50.719 117.833 38.7247 118.63 21.7442 118.004M21.7442 118.004C7.65918 118.213 1.30867 110.826 1.91722 98.8502M21.7442 118.004C9.53391 119.075 1.82888 110.485 1.91722 98.8502M1.91722 98.8502C1.72091 76.0933 1.91722 56.143 1.91722 21.524M1.91722 98.8502C1.93685 68.0525 3.36988 37.5013 1.91722 21.524" stroke="#1E1E1E" stroke-width="2" stroke-linecap="round"/>
<path d="M10.5698 86.0235C21.3569 86.0235 64.5247 86.0235 75.3117 86.0235" stroke="#1E1E1E" stroke-width="2" stroke-linecap="round"/>
<path d="M9.85274 100.813C9.84274 99.9593 9.82274 96.5362 9.81274 95.6829" stroke="#1E1E1E" stroke-linecap="round"/>
<path d="M9.78137 95.8752C10.0268 95.5338 11.0181 94.1874 11.2635 93.846" stroke="#1E1E1E" stroke-linecap="round"/>
<path d="M12.7288 100.874C12.7388 100.02 12.7588 96.5972 12.7688 95.7438" stroke="#1E1E1E" stroke-linecap="round"/>
<path d="M12.7993 95.9361C12.5539 95.5947 11.5625 94.2483 11.3171 93.9069" stroke="#1E1E1E" stroke-linecap="round"/>
<path d="M7.68066 101.335C8.83887 101.316 13.4521 101.24 14.6005 101.221" stroke="#1E1E1E" stroke-linecap="round"/>
<path d="M11.4679 101.42C11.4777 102.018 11.517 104.426 11.5268 105.024" stroke="#1E1E1E" stroke-linecap="round"/>
<path d="M52.1144 96.7563C52.4677 96.4054 53.8811 94.9831 54.2345 94.6228" stroke="#1E1E1E" stroke-linecap="round"/>
<path d="M54.2301 94.5847C54.6227 94.8976 56.1735 96.1492 56.5661 96.4621" stroke="#1E1E1E" stroke-linecap="round"/>
<path d="M56.6543 96.7137C55.9771 97.7188 53.2778 101.749 52.6006 102.763" stroke="#1E1E1E" stroke-linecap="round"/>
<path d="M52.1805 96.7563C51.8272 96.4054 50.4138 94.9831 50.0604 94.6228" stroke="#1E1E1E" stroke-linecap="round"/>
<path d="M50.0647 94.5847C49.6721 94.8976 48.1213 96.1492 47.7286 96.4621" stroke="#1E1E1E" stroke-linecap="round"/>
<path d="M47.6405 96.7137C48.3178 97.7188 51.017 101.749 51.6942 102.763" stroke="#1E1E1E" stroke-linecap="round"/>
<path d="M23.0473 2.26294C31.2431 2.26294 39.4488 2.26294 58.7653 2.26294C61.1995 2.26294 62.4264 3.43872 62.4264 5.79975C62.4264 7.54445 62.4264 9.28915 62.4264 12.8639C62.4264 15.2154 61.1995 16.3912 58.7653 16.3912C49.0285 16.3912 39.2917 16.3912 23.0473 16.3912C20.6033 16.3912 19.3862 15.2154 19.3862 12.8639C19.3862 10.5029 19.3862 8.14182 19.3862 5.79975C19.3862 3.43872 20.6033 2.26294 23.0473 2.26294Z" fill="white"/>
<path d="M23.0473 2.26294C33.8049 2.26294 44.5625 2.26294 58.7653 2.26294M23.0473 2.26294C35.9545 2.26294 48.8616 2.26294 58.7653 2.26294M23.0473 2.26294C20.6033 2.26294 19.3862 3.43872 19.3862 5.79975M58.7653 2.26294C61.1995 2.26294 62.4264 3.43872 62.4264 5.79975M62.4264 5.79975C62.4264 8.44525 62.4264 11.1002 62.4264 12.8639M62.4264 5.79975C62.4264 7.62031 62.4264 9.45035 62.4264 12.8639M62.4264 12.8639C62.4264 15.2154 61.1995 16.3912 58.7653 16.3912M58.7653 16.3912C50.864 16.3912 42.9626 16.3912 23.0473 16.3912M58.7653 16.3912C45.2005 16.3912 31.6456 16.3912 23.0473 16.3912M23.0473 16.3912C20.6033 16.3912 19.3862 15.2154 19.3862 12.8639M19.3862 12.8639C19.3862 10.3796 19.3862 7.88581 19.3862 5.79975M19.3862 12.8639C19.3862 11.2994 19.3862 9.72533 19.3862 5.79975" stroke="#1E1E1E" stroke-width="2" stroke-linecap="round"/>
<path d="M22.1289 7.97168C22.2982 7.97168 22.4626 7.99609 22.6221 8.04492C22.7816 8.09375 22.9215 8.16048 23.042 8.24512C23.1657 8.3265 23.265 8.4209 23.3398 8.52832C23.4147 8.63249 23.4521 8.73991 23.4521 8.85059C23.4521 8.9222 23.4375 8.99219 23.4082 9.06055C23.3789 9.12565 23.3398 9.18424 23.291 9.23633C23.2422 9.28516 23.1868 9.32585 23.125 9.3584C23.0632 9.3877 22.998 9.40234 22.9297 9.40234C22.8548 9.40234 22.7865 9.37467 22.7246 9.31934C22.6628 9.26074 22.596 9.19727 22.5244 9.12891C22.4561 9.05729 22.3779 8.99382 22.29 8.93848C22.2054 8.87988 22.1029 8.85059 21.9824 8.85059C21.8652 8.85059 21.7594 8.87826 21.665 8.93359C21.5706 8.98893 21.4909 9.06706 21.4258 9.16797C21.3639 9.26562 21.3151 9.38281 21.2793 9.51953C21.2467 9.65299 21.2305 9.79948 21.2305 9.95898C21.2305 10.4147 21.3167 10.763 21.4893 11.0039C21.6618 11.2415 21.9092 11.3604 22.2314 11.3604C22.3844 11.3604 22.5146 11.3359 22.6221 11.2871C22.7327 11.2383 22.8288 11.1846 22.9102 11.126C22.9948 11.0674 23.0713 11.0137 23.1396 10.9648C23.208 10.916 23.278 10.8916 23.3496 10.8916C23.3887 10.8916 23.4277 10.9046 23.4668 10.9307C23.5059 10.9535 23.54 10.9844 23.5693 11.0234C23.6019 11.0592 23.6279 11.0999 23.6475 11.1455C23.6702 11.1911 23.6816 11.2367 23.6816 11.2822C23.6816 11.3896 23.6279 11.5003 23.5205 11.6143C23.4163 11.7282 23.2812 11.8324 23.1152 11.9268C22.9492 12.0179 22.7637 12.0928 22.5586 12.1514C22.3568 12.21 22.1598 12.2393 21.9678 12.2393C21.7106 12.2393 21.4746 12.1888 21.2598 12.0879C21.0449 11.9902 20.8594 11.8535 20.7031 11.6777C20.5469 11.4987 20.4248 11.2855 20.3369 11.0381C20.2523 10.7907 20.21 10.5173 20.21 10.2178C20.21 9.89225 20.2572 9.59277 20.3516 9.31934C20.4492 9.0459 20.5827 8.8099 20.752 8.61133C20.9245 8.40951 21.1279 8.25326 21.3623 8.14258C21.5967 8.02865 21.8522 7.97168 22.1289 7.97168ZM23.8672 10.3789C23.8672 10.3236 23.8737 10.2617 23.8867 10.1934C23.8997 10.125 23.9062 10.0501 23.9062 9.96875C23.9062 9.91341 23.8818 9.87109 23.833 9.8418C23.7874 9.8125 23.7354 9.77995 23.6768 9.74414C23.6182 9.70833 23.5645 9.66276 23.5156 9.60742C23.4701 9.55208 23.4473 9.47233 23.4473 9.36816C23.4473 9.29329 23.4668 9.21842 23.5059 9.14355C23.5482 9.06868 23.6084 9.00033 23.6865 8.93848C23.8786 8.79525 24.0771 8.66667 24.2822 8.55273C24.4906 8.4388 24.6973 8.34277 24.9023 8.26465C25.1107 8.18652 25.3158 8.1263 25.5176 8.08398C25.7194 8.04167 25.9131 8.02051 26.0986 8.02051C26.4111 8.02051 26.7041 8.0791 26.9775 8.19629C27.2542 8.31022 27.4935 8.4681 27.6953 8.66992C27.9004 8.86849 28.0615 9.10286 28.1787 9.37305C28.2992 9.63997 28.3594 9.92643 28.3594 10.2324C28.3594 10.5319 28.2959 10.8167 28.1689 11.0869C28.0452 11.3538 27.8776 11.5882 27.666 11.79C27.4544 11.9919 27.2054 12.1514 26.9189 12.2686C26.6357 12.389 26.3363 12.4492 26.0205 12.4492C25.7113 12.4492 25.4248 12.3971 25.1611 12.293C24.8975 12.1888 24.6696 12.0456 24.4775 11.8633C24.2855 11.6777 24.1357 11.4596 24.0283 11.209C23.9209 10.9551 23.8672 10.6784 23.8672 10.3789ZM26.1279 11.5703C26.2646 11.5703 26.4062 11.5426 26.5527 11.4873C26.6992 11.432 26.8327 11.3522 26.9531 11.248C27.0768 11.1406 27.1777 11.0104 27.2559 10.8574C27.3372 10.7044 27.3779 10.5319 27.3779 10.3398C27.3779 10.1445 27.3421 9.96224 27.2705 9.79297C27.1989 9.6237 27.0996 9.47721 26.9727 9.35352C26.849 9.22656 26.7008 9.12728 26.5283 9.05566C26.359 8.98405 26.1751 8.94824 25.9766 8.94824C25.6152 8.94824 25.3385 9.04264 25.1465 9.23145C24.9544 9.41699 24.8584 9.70345 24.8584 10.0908C24.8584 10.3024 24.8893 10.4993 24.9512 10.6816C25.0163 10.8607 25.1058 11.0169 25.2197 11.1504C25.3337 11.2806 25.4671 11.3831 25.6201 11.458C25.7764 11.5329 25.9456 11.5703 26.1279 11.5703ZM29.082 8.05957C29.082 8.01074 29.1032 7.96354 29.1455 7.91797C29.1878 7.86914 29.2432 7.82682 29.3115 7.79102C29.3799 7.75195 29.4564 7.72103 29.541 7.69824C29.6289 7.6722 29.7168 7.65918 29.8047 7.65918C29.8535 7.65918 29.8942 7.6722 29.9268 7.69824C29.9626 7.72428 29.9935 7.77474 30.0195 7.84961C30.0456 7.92122 30.0684 8.02376 30.0879 8.15723C30.1107 8.28743 30.1318 8.45833 30.1514 8.66992C30.1644 8.73503 30.1758 8.78548 30.1855 8.82129C30.1986 8.85384 30.2148 8.87012 30.2344 8.87012C30.2637 8.87012 30.293 8.81966 30.3223 8.71875C30.5599 8.0319 30.9033 7.68848 31.3525 7.68848C31.5609 7.68848 31.7497 7.75358 31.9189 7.88379C32.0915 8.014 32.251 8.22721 32.3975 8.52344C32.5472 8.81641 32.6888 9.20378 32.8223 9.68555C32.9557 10.1641 33.0892 10.7549 33.2227 11.458C33.2292 11.4938 33.234 11.5264 33.2373 11.5557C33.2406 11.585 33.2422 11.6126 33.2422 11.6387C33.2422 11.7135 33.2243 11.7786 33.1885 11.834C33.1559 11.8861 33.112 11.93 33.0566 11.9658C33.0013 11.9984 32.9395 12.0228 32.8711 12.0391C32.8027 12.0586 32.7344 12.0684 32.666 12.0684C32.5293 12.0684 32.43 12.0537 32.3682 12.0244C32.3096 11.9951 32.2721 11.9398 32.2559 11.8584C32.1615 11.3636 32.0687 10.9242 31.9775 10.54C31.8896 10.1559 31.8018 9.83366 31.7139 9.57324C31.6292 9.30957 31.5446 9.10938 31.46 8.97266C31.3753 8.83594 31.2907 8.76758 31.2061 8.76758C31.1214 8.76758 31.0417 8.82129 30.9668 8.92871C30.8952 9.03288 30.8252 9.19727 30.7568 9.42188C30.6885 9.64648 30.6217 9.93132 30.5566 10.2764C30.4948 10.6214 30.4346 11.0332 30.376 11.5117C30.3597 11.6419 30.2946 11.7461 30.1807 11.8242C30.0667 11.9023 29.9219 11.9414 29.7461 11.9414C29.6289 11.9414 29.5394 11.917 29.4775 11.8682C29.4157 11.8193 29.3815 11.7526 29.375 11.668C29.3457 10.9909 29.3132 10.4342 29.2773 9.99805C29.2448 9.55859 29.2139 9.20703 29.1846 8.94336C29.1553 8.67643 29.1309 8.47786 29.1113 8.34766C29.0918 8.21745 29.082 8.12142 29.082 8.05957ZM34.9707 7.76172C35.1888 7.76172 35.4134 7.79102 35.6445 7.84961C35.8757 7.90495 36.0872 7.97819 36.2793 8.06934C36.4714 8.15723 36.6292 8.25651 36.7529 8.36719C36.8766 8.47786 36.9385 8.58529 36.9385 8.68945C36.9385 8.74154 36.9157 8.80013 36.8701 8.86523C36.8245 8.92708 36.7692 8.9873 36.7041 9.0459C36.639 9.10124 36.5674 9.14844 36.4893 9.1875C36.4144 9.22331 36.3477 9.24121 36.2891 9.24121C36.2109 9.24121 36.123 9.20866 36.0254 9.14355C35.931 9.07845 35.8252 9.00684 35.708 8.92871C35.5941 8.84733 35.4688 8.77409 35.332 8.70898C35.1953 8.64388 35.0472 8.61133 34.8877 8.61133C34.7835 8.61133 34.6973 8.63737 34.6289 8.68945C34.5638 8.73828 34.5312 8.80827 34.5312 8.89941C34.5312 8.98079 34.5703 9.0638 34.6484 9.14844C34.7266 9.22982 34.8291 9.31445 34.9561 9.40234C35.0863 9.49023 35.2327 9.58301 35.3955 9.68066C35.5583 9.77832 35.7243 9.88249 35.8936 9.99316C36.0661 10.1038 36.2337 10.2243 36.3965 10.3545C36.5592 10.4847 36.7041 10.6263 36.8311 10.7793C36.9613 10.9323 37.0654 11.0999 37.1436 11.2822C37.2217 11.4613 37.2607 11.6566 37.2607 11.8682C37.2607 12.0505 37.2282 12.2165 37.1631 12.3662C37.098 12.516 37.0052 12.6445 36.8848 12.752C36.7643 12.8594 36.6211 12.9424 36.4551 13.001C36.2891 13.0596 36.1068 13.0889 35.9082 13.0889C35.6576 13.0889 35.4264 13.0498 35.2148 12.9717C35.0033 12.8968 34.821 12.7926 34.668 12.6592C34.515 12.5257 34.3945 12.3662 34.3066 12.1807C34.222 11.9951 34.1797 11.7917 34.1797 11.5703C34.1797 11.2839 34.2301 11.0755 34.3311 10.9453C34.4352 10.8151 34.598 10.75 34.8193 10.75C34.9561 10.75 35.0651 10.776 35.1465 10.8281C35.2279 10.8802 35.2686 10.9437 35.2686 11.0186C35.2686 11.0576 35.262 11.0983 35.249 11.1406C35.236 11.1797 35.2214 11.222 35.2051 11.2676C35.1921 11.3099 35.179 11.3555 35.166 11.4043C35.1562 11.4531 35.1514 11.502 35.1514 11.5508C35.1514 11.6354 35.1709 11.7168 35.21 11.7949C35.249 11.873 35.3011 11.9414 35.3662 12C35.4346 12.0618 35.5127 12.1107 35.6006 12.1465C35.6885 12.1823 35.7812 12.2002 35.8789 12.2002C36.1393 12.2002 36.2695 12.0928 36.2695 11.8779C36.2695 11.7087 36.2028 11.5492 36.0693 11.3994C35.9359 11.2464 35.7682 11.0983 35.5664 10.9551C35.3646 10.8086 35.1465 10.6621 34.9121 10.5156C34.681 10.3691 34.4645 10.2161 34.2627 10.0566C34.0609 9.89714 33.8932 9.72786 33.7598 9.54883C33.6263 9.36654 33.5596 9.1696 33.5596 8.95801C33.5596 8.78223 33.5954 8.62109 33.667 8.47461C33.7419 8.32812 33.8428 8.2028 33.9697 8.09863C34.0967 7.99121 34.2448 7.9082 34.4141 7.84961C34.5866 7.79102 34.7721 7.76172 34.9707 7.76172ZM37.8906 6.36035C37.8906 6.18783 37.9395 6.06738 38.0371 5.99902C38.1348 5.92741 38.2959 5.8916 38.5205 5.8916C38.6019 5.8916 38.6702 5.89974 38.7256 5.91602C38.7842 5.92904 38.833 5.95508 38.8721 5.99414C38.9144 6.0332 38.9469 6.08529 38.9697 6.15039C38.9958 6.21224 39.0169 6.29199 39.0332 6.38965C39.0723 6.69238 39.1146 7.00488 39.1602 7.32715C39.209 7.64941 39.2594 7.97331 39.3115 8.29883C39.3311 8.44531 39.4076 8.51855 39.541 8.51855C39.5768 8.51855 39.6354 8.5153 39.7168 8.50879C39.8014 8.49902 39.9007 8.48926 40.0146 8.47949C40.1286 8.46647 40.2507 8.45345 40.3809 8.44043C40.5143 8.42741 40.6462 8.41602 40.7764 8.40625C40.9098 8.39323 41.0352 8.38346 41.1523 8.37695C41.2728 8.36719 41.3786 8.3623 41.4697 8.3623C41.5413 8.3623 41.5983 8.37695 41.6406 8.40625C41.6829 8.43229 41.7155 8.4681 41.7383 8.51367C41.7643 8.55599 41.7806 8.60482 41.7871 8.66016C41.7969 8.71224 41.8018 8.76595 41.8018 8.82129C41.8018 8.87012 41.792 8.92057 41.7725 8.97266C41.7562 9.02474 41.7318 9.07194 41.6992 9.11426C41.6699 9.15332 41.6325 9.18587 41.5869 9.21191C41.5413 9.23796 41.4893 9.25098 41.4307 9.25098C41.1475 9.25098 40.861 9.26074 40.5713 9.28027C40.2848 9.29655 39.9984 9.31934 39.7119 9.34863C39.5654 9.36816 39.4922 9.44141 39.4922 9.56836C39.4922 9.57812 39.4938 9.59115 39.4971 9.60742C39.5003 9.62044 39.502 9.63184 39.502 9.6416C39.541 9.9248 39.5768 10.1901 39.6094 10.4375C39.6452 10.6849 39.6745 10.9062 39.6973 11.1016C39.7233 11.2936 39.7428 11.4548 39.7559 11.585C39.7721 11.7119 39.7803 11.7965 39.7803 11.8389C39.7803 11.9561 39.7689 12.0537 39.7461 12.1318C39.7233 12.2132 39.6859 12.2783 39.6338 12.3271C39.5817 12.3792 39.5117 12.415 39.4238 12.4346C39.3392 12.4574 39.2318 12.4688 39.1016 12.4688C38.9779 12.4688 38.8867 12.4395 38.8281 12.3809C38.7695 12.3223 38.737 12.2327 38.7305 12.1123C38.7109 11.7282 38.68 11.3424 38.6377 10.9551C38.5954 10.5645 38.5465 10.1755 38.4912 9.78809C38.4619 9.64811 38.3887 9.57812 38.2715 9.57812C38.2617 9.57812 38.2503 9.57975 38.2373 9.58301C38.2243 9.58626 38.2129 9.58789 38.2031 9.58789C38.0013 9.63346 37.8109 9.67904 37.6318 9.72461C37.4528 9.77018 37.2852 9.81901 37.1289 9.87109C37.041 9.90039 36.9629 9.92155 36.8945 9.93457C36.8262 9.94434 36.7643 9.94922 36.709 9.94922C36.6341 9.94922 36.5788 9.91667 36.543 9.85156C36.5072 9.7832 36.4893 9.69857 36.4893 9.59766C36.4893 9.56185 36.4925 9.52116 36.499 9.47559C36.5055 9.42676 36.5186 9.37956 36.5381 9.33398C36.5544 9.28516 36.5804 9.24121 36.6162 9.20215C36.6488 9.15983 36.6943 9.12565 36.7529 9.09961C36.8896 9.04427 37.0719 8.9873 37.2998 8.92871C37.5277 8.86686 37.7848 8.8099 38.0713 8.75781C38.1364 8.74154 38.1868 8.71549 38.2227 8.67969C38.2617 8.64062 38.2812 8.58366 38.2812 8.50879C38.2812 8.49251 38.2812 8.47624 38.2812 8.45996C38.2812 8.44043 38.278 8.4209 38.2715 8.40137C38.2194 8.10189 38.1689 7.83008 38.1201 7.58594C38.0745 7.33854 38.0339 7.12695 37.998 6.95117C37.9655 6.77539 37.9395 6.63704 37.9199 6.53613C37.9004 6.43522 37.8906 6.37663 37.8906 6.36035ZM44.585 7.73242C44.764 7.73242 44.9365 7.76009 45.1025 7.81543C45.2686 7.87077 45.415 7.94727 45.542 8.04492C45.6689 8.14258 45.7699 8.25977 45.8447 8.39648C45.9229 8.5332 45.9619 8.68457 45.9619 8.85059C45.9619 8.91895 45.9456 8.98568 45.9131 9.05078C45.8838 9.11263 45.8431 9.16797 45.791 9.2168C45.7389 9.26237 45.6787 9.2998 45.6104 9.3291C45.5452 9.35514 45.4769 9.36816 45.4053 9.36816C45.3988 9.36816 45.3923 9.36979 45.3857 9.37305C45.3825 9.37305 45.3776 9.37305 45.3711 9.37305C45.3646 9.3763 45.3581 9.37793 45.3516 9.37793L45.3711 9.76855C45.3841 10.234 45.4492 10.5742 45.5664 10.7891C45.6868 11.0039 45.8431 11.1113 46.0352 11.1113C46.1035 11.1113 46.1637 11.1048 46.2158 11.0918C46.2712 11.0788 46.3216 11.0641 46.3672 11.0479C46.416 11.0283 46.4616 11.012 46.5039 10.999C46.5462 10.986 46.5885 10.9795 46.6309 10.9795C46.7057 10.9795 46.7708 11.012 46.8262 11.0771C46.8848 11.1423 46.9141 11.2204 46.9141 11.3115C46.9141 11.4027 46.8783 11.4938 46.8066 11.585C46.7383 11.6761 46.6471 11.7591 46.5332 11.834C46.4193 11.9056 46.2907 11.9642 46.1475 12.0098C46.0042 12.0553 45.8594 12.0781 45.7129 12.0781C45.459 12.0781 45.236 11.974 45.0439 11.7656C44.8519 11.554 44.7152 11.2448 44.6338 10.8379C44.6143 10.7728 44.5882 10.7402 44.5557 10.7402C44.5166 10.7402 44.4824 10.7598 44.4531 10.7988C44.1309 11.2057 43.7874 11.5117 43.4229 11.7168C43.0583 11.9186 42.6986 12.0195 42.3438 12.0195C42.1777 12.0195 42.028 11.9951 41.8945 11.9463C41.7611 11.8975 41.6471 11.8291 41.5527 11.7412C41.4616 11.6501 41.39 11.541 41.3379 11.4141C41.2891 11.2839 41.2646 11.139 41.2646 10.9795C41.2646 10.7549 41.3135 10.5189 41.4111 10.2715C41.512 10.0241 41.6471 9.77995 41.8164 9.53906C41.9857 9.29818 42.181 9.06868 42.4023 8.85059C42.627 8.63249 42.8613 8.44043 43.1055 8.27441C43.3529 8.1084 43.6035 7.97656 43.8574 7.87891C44.1113 7.78125 44.3538 7.73242 44.585 7.73242ZM44.4238 9.42188C44.4824 9.3112 44.5361 9.23145 44.585 9.18262C44.6338 9.13053 44.7038 9.09635 44.7949 9.08008C44.8665 9.07031 44.9023 9.04753 44.9023 9.01172C44.9023 8.98568 44.8926 8.95801 44.873 8.92871C44.8112 8.84408 44.7461 8.77083 44.6777 8.70898C44.6094 8.64388 44.5182 8.61133 44.4043 8.61133C44.2806 8.61133 44.1423 8.64714 43.9893 8.71875C43.8363 8.79036 43.68 8.88639 43.5205 9.00684C43.3643 9.12402 43.2096 9.25911 43.0566 9.41211C42.9069 9.56185 42.7734 9.71647 42.6562 9.87598C42.5391 10.0355 42.4447 10.1934 42.373 10.3496C42.3014 10.5059 42.2656 10.6458 42.2656 10.7695C42.2656 10.8802 42.2949 10.9665 42.3535 11.0283C42.4154 11.0902 42.4984 11.1211 42.6025 11.1211C42.8695 11.1211 43.1608 10.9795 43.4766 10.6963C43.7923 10.4131 44.1081 9.98828 44.4238 9.42188ZM47.1582 8.05957C47.1582 8.01074 47.1794 7.96354 47.2217 7.91797C47.264 7.86914 47.3193 7.82682 47.3877 7.79102C47.4561 7.75195 47.5326 7.72103 47.6172 7.69824C47.7051 7.6722 47.793 7.65918 47.8809 7.65918C47.9297 7.65918 47.9704 7.6722 48.0029 7.69824C48.0387 7.72428 48.0697 7.77474 48.0957 7.84961C48.1217 7.92122 48.1445 8.02376 48.1641 8.15723C48.1868 8.28743 48.208 8.45833 48.2275 8.66992C48.2406 8.73503 48.252 8.78548 48.2617 8.82129C48.2747 8.85384 48.291 8.87012 48.3105 8.87012C48.3398 8.87012 48.3691 8.81966 48.3984 8.71875C48.6361 8.0319 48.9795 7.68848 49.4287 7.68848C49.637 7.68848 49.8258 7.75358 49.9951 7.88379C50.1676 8.014 50.3271 8.22721 50.4736 8.52344C50.6234 8.81641 50.765 9.20378 50.8984 9.68555C51.0319 10.1641 51.1654 10.7549 51.2988 11.458C51.3053 11.4938 51.3102 11.5264 51.3135 11.5557C51.3167 11.585 51.3184 11.6126 51.3184 11.6387C51.3184 11.7135 51.3005 11.7786 51.2646 11.834C51.2321 11.8861 51.1882 11.93 51.1328 11.9658C51.0775 11.9984 51.0156 12.0228 50.9473 12.0391C50.8789 12.0586 50.8105 12.0684 50.7422 12.0684C50.6055 12.0684 50.5062 12.0537 50.4443 12.0244C50.3857 11.9951 50.3483 11.9398 50.332 11.8584C50.2376 11.3636 50.1449 10.9242 50.0537 10.54C49.9658 10.1559 49.8779 9.83366 49.79 9.57324C49.7054 9.30957 49.6208 9.10938 49.5361 8.97266C49.4515 8.83594 49.3669 8.76758 49.2822 8.76758C49.1976 8.76758 49.1178 8.82129 49.043 8.92871C48.9714 9.03288 48.9014 9.19727 48.833 9.42188C48.7646 9.64648 48.6979 9.93132 48.6328 10.2764C48.571 10.6214 48.5107 11.0332 48.4521 11.5117C48.4359 11.6419 48.3708 11.7461 48.2568 11.8242C48.1429 11.9023 47.998 11.9414 47.8223 11.9414C47.7051 11.9414 47.6156 11.917 47.5537 11.8682C47.4919 11.8193 47.4577 11.7526 47.4512 11.668C47.4219 10.9909 47.3893 10.4342 47.3535 9.99805C47.321 9.55859 47.29 9.20703 47.2607 8.94336C47.2314 8.67643 47.207 8.47786 47.1875 8.34766C47.168 8.21745 47.1582 8.12142 47.1582 8.05957ZM52.2852 6.36035C52.2852 6.18783 52.334 6.06738 52.4316 5.99902C52.5293 5.92741 52.6904 5.8916 52.915 5.8916C52.9964 5.8916 53.0648 5.89974 53.1201 5.91602C53.1787 5.92904 53.2275 5.95508 53.2666 5.99414C53.3089 6.0332 53.3415 6.08529 53.3643 6.15039C53.3903 6.21224 53.4115 6.29199 53.4277 6.38965C53.4668 6.69238 53.5091 7.00488 53.5547 7.32715C53.6035 7.64941 53.654 7.97331 53.7061 8.29883C53.7256 8.44531 53.8021 8.51855 53.9355 8.51855C53.9714 8.51855 54.0299 8.5153 54.1113 8.50879C54.196 8.49902 54.2952 8.48926 54.4092 8.47949C54.5231 8.46647 54.6452 8.45345 54.7754 8.44043C54.9089 8.42741 55.0407 8.41602 55.1709 8.40625C55.3044 8.39323 55.4297 8.38346 55.5469 8.37695C55.6673 8.36719 55.7731 8.3623 55.8643 8.3623C55.9359 8.3623 55.9928 8.37695 56.0352 8.40625C56.0775 8.43229 56.11 8.4681 56.1328 8.51367C56.1589 8.55599 56.1751 8.60482 56.1816 8.66016C56.1914 8.71224 56.1963 8.76595 56.1963 8.82129C56.1963 8.87012 56.1865 8.92057 56.167 8.97266C56.1507 9.02474 56.1263 9.07194 56.0938 9.11426C56.0645 9.15332 56.027 9.18587 55.9814 9.21191C55.9359 9.23796 55.8838 9.25098 55.8252 9.25098C55.542 9.25098 55.2555 9.26074 54.9658 9.28027C54.6794 9.29655 54.3929 9.31934 54.1064 9.34863C53.96 9.36816 53.8867 9.44141 53.8867 9.56836C53.8867 9.57812 53.8883 9.59115 53.8916 9.60742C53.8949 9.62044 53.8965 9.63184 53.8965 9.6416C53.9355 9.9248 53.9714 10.1901 54.0039 10.4375C54.0397 10.6849 54.069 10.9062 54.0918 11.1016C54.1178 11.2936 54.1374 11.4548 54.1504 11.585C54.1667 11.7119 54.1748 11.7965 54.1748 11.8389C54.1748 11.9561 54.1634 12.0537 54.1406 12.1318C54.1178 12.2132 54.0804 12.2783 54.0283 12.3271C53.9762 12.3792 53.9062 12.415 53.8184 12.4346C53.7337 12.4574 53.6263 12.4688 53.4961 12.4688C53.3724 12.4688 53.2812 12.4395 53.2227 12.3809C53.1641 12.3223 53.1315 12.2327 53.125 12.1123C53.1055 11.7282 53.0745 11.3424 53.0322 10.9551C52.9899 10.5645 52.9411 10.1755 52.8857 9.78809C52.8564 9.64811 52.7832 9.57812 52.666 9.57812C52.6562 9.57812 52.6449 9.57975 52.6318 9.58301C52.6188 9.58626 52.6074 9.58789 52.5977 9.58789C52.3958 9.63346 52.2054 9.67904 52.0264 9.72461C51.8473 9.77018 51.6797 9.81901 51.5234 9.87109C51.4355 9.90039 51.3574 9.92155 51.2891 9.93457C51.2207 9.94434 51.1589 9.94922 51.1035 9.94922C51.0286 9.94922 50.9733 9.91667 50.9375 9.85156C50.9017 9.7832 50.8838 9.69857 50.8838 9.59766C50.8838 9.56185 50.887 9.52116 50.8936 9.47559C50.9001 9.42676 50.9131 9.37956 50.9326 9.33398C50.9489 9.28516 50.9749 9.24121 51.0107 9.20215C51.0433 9.15983 51.0889 9.12565 51.1475 9.09961C51.2842 9.04427 51.4665 8.9873 51.6943 8.92871C51.9222 8.86686 52.1794 8.8099 52.4658 8.75781C52.5309 8.74154 52.5814 8.71549 52.6172 8.67969C52.6562 8.64062 52.6758 8.58366 52.6758 8.50879C52.6758 8.49251 52.6758 8.47624 52.6758 8.45996C52.6758 8.44043 52.6725 8.4209 52.666 8.40137C52.6139 8.10189 52.5635 7.83008 52.5146 7.58594C52.4691 7.33854 52.4284 7.12695 52.3926 6.95117C52.36 6.77539 52.334 6.63704 52.3145 6.53613C52.2949 6.43522 52.2852 6.37663 52.2852 6.36035ZM60.0684 10.9307C60.1628 10.8493 60.2555 10.8086 60.3467 10.8086C60.3988 10.8086 60.446 10.8216 60.4883 10.8477C60.5306 10.8737 60.5778 10.9144 60.6299 10.9697C60.6787 11.0446 60.7129 11.1064 60.7324 11.1553C60.7552 11.2008 60.7666 11.2464 60.7666 11.292C60.7666 11.3896 60.7178 11.4824 60.6201 11.5703C60.4639 11.7005 60.2946 11.8177 60.1123 11.9219C59.93 12.0228 59.7396 12.109 59.541 12.1807C59.3424 12.2523 59.1374 12.306 58.9258 12.3418C58.7142 12.3809 58.5042 12.4004 58.2959 12.4004C58.0322 12.4004 57.7848 12.3662 57.5537 12.2979C57.3226 12.2327 57.1159 12.1383 56.9336 12.0146C56.7546 11.891 56.6032 11.7428 56.4795 11.5703C56.3558 11.3945 56.2679 11.1976 56.2158 10.9795C56.1865 10.8883 56.1589 10.8298 56.1328 10.8037C56.11 10.7744 56.071 10.7598 56.0156 10.7598C55.8952 10.7598 55.8024 10.7305 55.7373 10.6719C55.6722 10.6133 55.6396 10.5286 55.6396 10.418C55.6396 10.3724 55.6429 10.3431 55.6494 10.3301L55.6592 10.2324C55.6755 10.1152 55.7064 10.0306 55.752 9.97852C55.8008 9.92643 55.8757 9.90039 55.9766 9.90039H56.0498C56.1865 9.90039 56.2826 9.83691 56.3379 9.70996C56.4388 9.48535 56.5674 9.28027 56.7236 9.09473C56.8799 8.90918 57.0557 8.7513 57.251 8.62109C57.4463 8.48763 57.6546 8.38509 57.876 8.31348C58.1006 8.23861 58.3285 8.20117 58.5596 8.20117C58.8005 8.20117 59.0251 8.23698 59.2334 8.30859C59.445 8.37695 59.6289 8.47298 59.7852 8.59668C59.9414 8.72038 60.0635 8.86523 60.1514 9.03125C60.2425 9.19727 60.2881 9.3763 60.2881 9.56836C60.2881 9.70182 60.262 9.82389 60.21 9.93457C60.1579 10.0452 60.083 10.1429 59.9854 10.2275C59.8877 10.3089 59.7689 10.3757 59.6289 10.4277C59.4922 10.4798 59.3359 10.514 59.1602 10.5303L57.4658 10.7012C57.4007 10.7012 57.347 10.7174 57.3047 10.75C57.2656 10.7826 57.2461 10.8265 57.2461 10.8818C57.2461 10.9665 57.277 11.0479 57.3389 11.126C57.404 11.2041 57.4886 11.2741 57.5928 11.3359C57.7002 11.3945 57.8223 11.4417 57.959 11.4775C58.099 11.5133 58.2422 11.5312 58.3887 11.5312C58.5286 11.5312 58.6719 11.5182 58.8184 11.4922C58.9681 11.4629 59.1146 11.4222 59.2578 11.3701C59.4043 11.318 59.5459 11.2562 59.6826 11.1846C59.8193 11.1097 59.9479 11.0251 60.0684 10.9307ZM58.9795 9.6709C59.0283 9.66113 59.0706 9.63835 59.1064 9.60254C59.1423 9.56348 59.1602 9.51628 59.1602 9.46094C59.1602 9.41211 59.1423 9.36654 59.1064 9.32422C59.0706 9.2819 59.0218 9.24447 58.96 9.21191C58.8981 9.17611 58.8265 9.14844 58.7451 9.12891C58.6637 9.10938 58.5775 9.09961 58.4863 9.09961C58.3529 9.09961 58.2161 9.11914 58.0762 9.1582C57.9362 9.19727 57.8092 9.24935 57.6953 9.31445C57.5814 9.3763 57.4886 9.44629 57.417 9.52441C57.3454 9.59928 57.3096 9.67415 57.3096 9.74902C57.3096 9.82389 57.3551 9.86133 57.4463 9.86133C57.5016 9.86133 57.5911 9.85482 57.7148 9.8418C57.8385 9.82878 57.9753 9.81413 58.125 9.79785C58.2747 9.77832 58.4261 9.75716 58.5791 9.73438C58.7321 9.71159 58.8656 9.69043 58.9795 9.6709Z" fill="#1E1E1E"/>
<path d="M24.9964 45.7599C23.0824 57.3375 21.6199 63.8802 19.5391 70.072C21.8162 61.5476 23.4063 52.6724 24.9964 45.7599ZM24.9964 45.7599C27.4698 44.9065 30.1691 43.6075 31.4843 43.0101C30.0218 43.7497 27.4208 44.641 24.9964 45.7599Z" stroke="#1E1E1E" stroke-width="2" stroke-linecap="round"/>
<path d="M32.3609 36.9698C32.2431 38.4965 31.8996 40.592 31.4088 42.9341C31.7425 40.7153 32.2333 38.3258 32.3609 36.9698ZM32.3609 36.9698C34.059 37.0173 35.8944 36.9414 37.3471 37.0457C35.4527 36.9793 33.9412 37.0457 32.3609 36.9698Z" stroke="#1E1E1E" stroke-width="2" stroke-linecap="round"/>
<path d="M39.641 28.6384C39.0913 32.4313 38.3454 34.7923 37.4227 37.2007C38.4926 33.9389 39.1993 30.6581 39.641 28.6384ZM39.641 28.6384C43.096 27.9083 45.9228 27.4153 47.9448 27.1877M39.641 28.6384C41.7709 28.1359 43.9008 27.9462 47.9448 27.1877M47.9448 27.1877C48.5729 29.8237 49.4367 31.5684 49.6134 34.2234C48.7594 30.5538 48.4159 28.8281 47.9448 27.1877Z" stroke="#1E1E1E" stroke-width="2" stroke-linecap="round"/>
<path d="M49.9255 34.678C50.5537 34.8772 51.1034 34.972 52.1438 35.2849ZM49.9255 34.678C50.7795 34.8961 51.6236 35.1427 52.1438 35.2849Z" stroke="#1E1E1E" stroke-width="2" stroke-linecap="round"/>
<path d="M52.2202 35.2132C53.8201 39.556 54.8016 44.8185 55.2237 48.82ZM52.2202 35.2132C53.3882 39.1293 54.0459 43.3393 55.2237 48.82Z" stroke="#1E1E1E" stroke-width="2" stroke-linecap="round"/>
<path d="M55.4646 49.4319C56.6424 49.5267 57.6534 49.4698 58.4681 49.4319ZM55.4646 49.4319C56.2695 49.4698 57.0449 49.4414 58.4681 49.4319Z" stroke="#1E1E1E" stroke-width="2" stroke-linecap="round"/>
<path d="M63.3008 69.9143C60.9648 61.8356 59.8066 55.7386 58.4717 49.5848C59.7084 55.6438 61.2004 61.4279 63.3008 69.9143ZM63.3008 69.9143C47.7141 69.7721 33.531 70.2652 19.5343 69.9143C36.024 69.6014 50.2563 70.4169 63.3008 69.9143Z" stroke="#1E1E1E" stroke-width="2" stroke-linecap="round"/>
<path d="M36.7976 50.0206C35.5805 50.1155 33.1365 50.362 30.8201 50.362C33.058 50.1913 35.4038 50.1534 36.7976 50.0206ZM36.7976 50.0206C35.1879 50.8076 33.4506 51.3766 31.1243 52.4386M36.7976 50.0206C34.9032 50.7318 33.1365 51.5662 31.1243 52.4386M31.1243 52.4386C34.1376 52.5239 36.8663 52.1825 38.6821 52.2679C35.5511 52.4196 33.2445 52.486 31.1243 52.4386Z" stroke="#1E1E1E" stroke-width="2" stroke-linecap="round"/>
<path d="M50.6101 49.5328C48.8728 49.5423 46.6643 49.7793 44.6326 49.8741C46.5367 49.8267 48.3428 49.6181 50.6101 49.5328ZM50.6101 49.5328C49.0102 50.1586 47.4103 51.0594 44.9368 51.9507M50.6101 49.5328C48.2544 50.481 46.1539 51.4766 44.9368 51.9507M44.9368 51.9507C47.7538 51.7516 50.1292 51.9317 52.4946 51.78C48.9906 51.7895 47.0275 51.9602 44.9368 51.9507Z" stroke="#1E1E1E" stroke-width="2" stroke-linecap="round"/>
<path d="M34.6438 61.1399C33.6917 62.0312 32.3961 63.482 30.6882 65.0844C31.6992 63.9845 32.7004 63.0837 34.6438 61.1399ZM34.6438 61.1399C35.7039 62.7898 36.9504 63.8044 37.6669 65.4637M34.6438 61.1399C35.3996 62.1545 36.0572 63.2259 37.6669 65.4637M37.6669 65.4637C38.8546 64.0509 40.0226 62.2872 41.0532 61.2252M37.6669 65.4637C39.0116 63.8423 40.1797 62.42 41.0532 61.2252M41.0532 61.2252C41.8384 62.1734 43.0065 63.3208 44.783 65.3404C43.9389 64.2216 42.4863 62.7993 41.0532 61.2252Z" stroke="#1E1E1E" stroke-width="2" stroke-linecap="round"/>
<path d="M41.561 61.0551C39.9808 62.6291 38.8716 63.6721 37.6055 64.9996C38.9698 63.6816 40.4225 62.2593 41.561 61.0551ZM41.561 61.0551C42.6211 61.9179 42.9548 63.1032 44.5842 65.3789M41.561 61.0551C42.5426 62.4774 43.4848 63.7574 44.5842 65.3789M44.5842 65.3789C45.3203 64.241 46.4491 63.5299 47.9705 61.1404M44.5842 65.3789C45.8209 63.9566 46.8711 62.4868 47.9705 61.1404M47.9705 61.1404C49.3937 62.6955 50.7874 63.8143 51.7003 65.2556C49.747 62.9041 48.9422 61.9843 47.9705 61.1404Z" stroke="#1E1E1E" stroke-width="2" stroke-linecap="round"/>
<path d="M34.4903 70.5806C34.4019 72.714 34.6669 74.6104 34.5688 78.4696ZM34.4903 70.5806C34.559 72.5434 34.4804 74.5156 34.5688 78.4696Z" stroke="#1E1E1E" stroke-width="2" stroke-linecap="round"/>
<path d="M34.6568 78.7908C33.5869 78.7813 32.311 78.7528 30.446 78.7433ZM34.6568 78.7908C33.2042 78.7908 31.8496 78.8287 30.446 78.7433Z" stroke="#1E1E1E" stroke-width="2" stroke-linecap="round"/>
<path d="M49.0008 70.0404C48.9615 72.7428 49.2952 75.6253 49.2462 78.0053ZM49.0008 70.0404C49.1676 72.61 49.0106 74.8194 49.2462 78.0053Z" stroke="#1E1E1E" stroke-width="2" stroke-linecap="round"/>
<path d="M49.3151 78.219C50.8168 78.2665 52.2106 78.1242 54.1835 78.1622ZM49.3151 78.219C50.7677 78.1242 52.3284 78.1622 54.1835 78.1622Z" stroke="#1E1E1E" stroke-width="2" stroke-linecap="round"/>
<path d="M24.0752 70.4196C23.9967 71.5859 23.9181 72.9513 23.7415 74.6865ZM24.0752 70.4196C23.8691 72.1168 23.8396 73.8331 23.7415 74.6865Z" stroke="#1E1E1E" stroke-width="2" stroke-linecap="round"/>
<path d="M59.2623 70.1781C59.3114 71.5435 59.4488 72.6055 59.3409 73.9614ZM59.2623 70.1781C59.3114 71.0505 59.3212 71.9512 59.3409 73.9614Z" stroke="#1E1E1E" stroke-width="2" stroke-linecap="round"/>
</svg>
