<svg width="83" height="119" viewBox="0 0 83 119" fill="none" xmlns="http://www.w3.org/2000/svg">
<path d="M21.6021 1.73865C31.359 4.3227 43.0418 0.731634 61.2979 1.73865C73.5308 1.51065 83.612 7.68575 81.1457 20.929C82.0399 44.5369 82.5901 60.0222 81.1457 98.4028C82.875 107.931 71.4674 117.09 61.2979 117.593C50.018 120.339 37.5689 115.209 21.6021 117.593C6.10706 116.577 3.61134 108.539 1.75429 98.4028C-0.839692 78.215 4.63321 55.5191 1.75429 20.929C-1.3015 5.65272 8.70104 2.92617 21.6021 1.73865Z" fill="white"/>
<path d="M21.6022 1.73868C36.7828 3.44871 50.3324 1.32068 61.2979 1.73868M21.6022 1.73868C34.6998 1.90019 48.721 1.23518 61.2979 1.73868M21.6022 1.73868C9.32989 2.10919 1.4497 7.71429 1.75429 20.929M21.6022 1.73868C8.62244 2.8027 0.575213 8.3508 1.75429 20.929M61.2979 1.73868C73.4522 2.03319 82.8947 7.35328 81.1457 20.929M61.2979 1.73868C72.6662 -0.398852 82.0693 8.6738 81.1457 20.929M81.1457 20.929C81.9023 47.14 80.1828 76.8375 81.1457 98.4028M81.1457 20.929C81.2931 42.4374 80.9492 62.5112 81.1457 98.4028M81.1457 98.4028C81.4896 111.219 75.2405 117.916 61.2979 117.593M81.1457 98.4028C82.5312 111.817 75.8202 115.57 61.2979 117.593M61.2979 117.593C49.3597 117.584 34.69 116.643 21.6022 117.593M61.2979 117.593C51.0595 118.144 41.6858 117.65 21.6022 117.593M21.6022 117.593C9.22181 118.344 2.74669 110.867 1.75429 98.4028M21.6022 117.593C7.87569 116.282 0.938763 110.25 1.75429 98.4028M1.75429 98.4028C3.95524 71.0804 2.36349 43.1974 1.75429 20.929M1.75429 98.4028C2.56982 69.7883 2.56982 41.1359 1.75429 20.929" stroke="#1E1E1E" stroke-width="2" stroke-linecap="round"/>
<path d="M10.4159 85.5516C21.2143 85.5516 64.4276 85.5516 75.226 85.5516" stroke="#1E1E1E" stroke-width="2" stroke-linecap="round"/>
<path d="M22.9065 1.63123C35.6504 1.63123 48.3943 1.63123 58.6621 1.63123C61.0989 1.63123 62.3271 2.80925 62.3271 5.17479C62.3271 7.96783 62.3271 10.7704 62.3271 12.2524C62.3271 14.6084 61.0989 15.7865 58.6621 15.7865C44.5131 15.7865 30.3642 15.7865 22.9065 15.7865C20.4599 15.7865 19.2415 14.6084 19.2415 12.2524C19.2415 9.81087 19.2415 7.37882 19.2415 5.17479C19.2415 2.80925 20.4599 1.63123 22.9065 1.63123Z" fill="white"/>
<path d="M22.9065 1.63123C36.2596 1.63123 49.6225 1.63123 58.6621 1.63123M22.9065 1.63123C33.0564 1.63123 43.2162 1.63123 58.6621 1.63123M22.9065 1.63123C20.4599 1.63123 19.2415 2.80925 19.2415 5.17479M58.6621 1.63123C61.0989 1.63123 62.3271 2.80925 62.3271 5.17479M62.3271 5.17479C62.3271 6.73281 62.3271 8.30034 62.3271 12.2524M62.3271 5.17479C62.3271 7.73983 62.3271 10.3049 62.3271 12.2524M62.3271 12.2524C62.3271 14.6084 61.0989 15.7865 58.6621 15.7865M58.6621 15.7865C48.0209 15.7865 37.3797 15.7865 22.9065 15.7865M58.6621 15.7865C47.0285 15.7865 35.3851 15.7865 22.9065 15.7865M22.9065 15.7865C20.4599 15.7865 19.2415 14.6084 19.2415 12.2524M19.2415 12.2524C19.2415 10.2764 19.2415 8.30034 19.2415 5.17479M19.2415 12.2524C19.2415 10.3334 19.2415 8.42384 19.2415 5.17479" stroke="#1E1E1E" stroke-width="2" stroke-linecap="round"/>
<path fill-rule="evenodd" clip-rule="evenodd" d="M39.3127 26.1027L37.5932 53.5677L21.4692 51.9337L40.4623 74.6011L64.0242 54.2802L48.2933 54.7932L53.1079 28.0978L40.7669 26.3212" fill="white"/>
<path d="M39.3421 27.2617C37.996 34.6053 36.3944 46.5185 36.1095 53.2067M39.3421 27.2617C38.7624 33.6458 37.092 39.4979 36.1095 53.2067M39.3421 27.2617C40.079 27.5277 40.197 27.7747 40.4426 27.9362M39.3421 27.2617C39.912 27.6607 40.1282 27.7747 40.4426 27.9362M36.1095 53.2067C30.5088 53.9572 27.6889 52.6177 20.6733 51.3921M36.1095 53.2067C30.6169 52.6177 24.5938 51.4016 20.6733 51.3921M20.6733 51.3921C26.6867 58.7263 36.247 67.9319 40.9928 76.0736M20.6733 51.3921C27.0404 59.2583 34.1443 66.8489 40.9928 76.0736M40.9928 76.0736C48.6765 70.858 50.7989 63.3338 62.2065 53.8052M40.9928 76.0736C45.7288 72.3495 49.8458 65.7944 62.2065 53.8052M62.2065 53.8052C56.8318 53.1117 52.1646 52.8552 46.5345 54.8217M62.2065 53.8052C57.2936 54.7077 53.0784 54.7362 46.5345 54.8217M46.5345 54.8217C46.1611 50.5086 47.7332 42.918 52.0172 27.8412M46.5345 54.8217C47.4974 47.9911 49.6296 40.6854 52.0172 27.8412M52.0172 27.8412C47.6153 28.7437 45.945 28.2687 40.4426 27.9362M52.0172 27.8412C48.2737 27.9362 44.8445 27.9077 40.4426 27.9362" stroke="#1E1E1E" stroke-width="2" stroke-linecap="round"/>
<path d="M25.617 7.047C25.7863 7.047 25.9507 7.07141 26.1102 7.12024C26.2697 7.16907 26.4096 7.2358 26.5301 7.32043C26.6538 7.40181 26.7531 7.49622 26.8279 7.60364C26.9028 7.7078 26.9402 7.81523 26.9402 7.9259C26.9402 7.99752 26.9256 8.0675 26.8963 8.13586C26.867 8.20097 26.8279 8.25956 26.7791 8.31165C26.7303 8.36047 26.6749 8.40116 26.6131 8.43372C26.5512 8.46301 26.4861 8.47766 26.4178 8.47766C26.3429 8.47766 26.2746 8.44999 26.2127 8.39465C26.1509 8.33606 26.0841 8.27258 26.0125 8.20422C25.9442 8.13261 25.866 8.06913 25.7781 8.01379C25.6935 7.9552 25.591 7.9259 25.4705 7.9259C25.3533 7.9259 25.2475 7.95357 25.1531 8.00891C25.0587 8.06425 24.979 8.14237 24.9139 8.24329C24.852 8.34094 24.8032 8.45813 24.7674 8.59485C24.7348 8.72831 24.7186 8.8748 24.7186 9.0343C24.7186 9.49003 24.8048 9.83834 24.9774 10.0792C25.1499 10.3169 25.3973 10.4357 25.7195 10.4357C25.8725 10.4357 26.0027 10.4113 26.1102 10.3624C26.2208 10.3136 26.3169 10.2599 26.3983 10.2013C26.4829 10.1427 26.5594 10.089 26.6277 10.0402C26.6961 9.99133 26.7661 9.96692 26.8377 9.96692C26.8768 9.96692 26.9158 9.97994 26.9549 10.006C26.994 10.0288 27.0281 10.0597 27.0574 10.0988C27.09 10.1346 27.116 10.1753 27.1356 10.2208C27.1583 10.2664 27.1697 10.312 27.1697 10.3575C27.1697 10.465 27.116 10.5756 27.0086 10.6896C26.9044 10.8035 26.7693 10.9077 26.6033 11.0021C26.4373 11.0932 26.2518 11.1681 26.0467 11.2267C25.8449 11.2853 25.6479 11.3146 25.4559 11.3146C25.1987 11.3146 24.9627 11.2641 24.7479 11.1632C24.533 11.0656 24.3475 10.9288 24.1912 10.7531C24.035 10.574 23.9129 10.3608 23.825 10.1134C23.7404 9.86601 23.6981 9.59257 23.6981 9.29309C23.6981 8.96757 23.7453 8.66809 23.8397 8.39465C23.9373 8.12122 24.0708 7.88521 24.2401 7.68665C24.4126 7.48482 24.616 7.32857 24.8504 7.2179C25.0848 7.10396 25.3403 7.047 25.617 7.047ZM27.3553 9.45422C27.3553 9.39889 27.3618 9.33704 27.3748 9.26868C27.3878 9.20032 27.3943 9.12545 27.3943 9.04407C27.3943 8.98873 27.3699 8.94641 27.3211 8.91711C27.2755 8.88782 27.2234 8.85527 27.1649 8.81946C27.1063 8.78365 27.0526 8.73808 27.0037 8.68274C26.9582 8.6274 26.9354 8.54765 26.9354 8.44348C26.9354 8.36861 26.9549 8.29374 26.994 8.21887C27.0363 8.144 27.0965 8.07564 27.1746 8.01379C27.3667 7.87056 27.5652 7.74198 27.7703 7.62805C27.9787 7.51412 28.1854 7.41809 28.3904 7.33997C28.5988 7.26184 28.8039 7.20162 29.0057 7.1593C29.2075 7.11698 29.4012 7.09583 29.5867 7.09583C29.8992 7.09583 30.1922 7.15442 30.4656 7.27161C30.7423 7.38554 30.9816 7.54342 31.1834 7.74524C31.3885 7.94381 31.5496 8.17818 31.6668 8.44836C31.7873 8.71529 31.8475 9.00175 31.8475 9.30774C31.8475 9.60722 31.784 9.89205 31.657 10.1622C31.5333 10.4292 31.3657 10.6635 31.1541 10.8654C30.9425 11.0672 30.6935 11.2267 30.407 11.3439C30.1238 11.4643 29.8244 11.5245 29.5086 11.5245C29.1994 11.5245 28.9129 11.4725 28.6492 11.3683C28.3856 11.2641 28.1577 11.1209 27.9656 10.9386C27.7736 10.7531 27.6238 10.535 27.5164 10.2843C27.409 10.0304 27.3553 9.7537 27.3553 9.45422ZM29.616 10.6456C29.7527 10.6456 29.8943 10.618 30.0408 10.5626C30.1873 10.5073 30.3208 10.4275 30.4412 10.3234C30.5649 10.2159 30.6658 10.0857 30.744 9.93274C30.8253 9.77974 30.866 9.60722 30.866 9.41516C30.866 9.21985 30.8302 9.03756 30.7586 8.86829C30.687 8.69902 30.5877 8.55253 30.4608 8.42883C30.3371 8.30188 30.1889 8.2026 30.0164 8.13098C29.8471 8.05937 29.6632 8.02356 29.4647 8.02356C29.1033 8.02356 28.8266 8.11796 28.6346 8.30676C28.4425 8.49231 28.3465 8.77877 28.3465 9.16614C28.3465 9.37773 28.3774 9.57467 28.4393 9.75696C28.5044 9.93599 28.5939 10.0922 28.7078 10.2257C28.8218 10.3559 28.9552 10.4585 29.1082 10.5333C29.2645 10.6082 29.4337 10.6456 29.616 10.6456ZM32.5701 7.13489C32.5701 7.08606 32.5913 7.03886 32.6336 6.99329C32.6759 6.94446 32.7313 6.90214 32.7996 6.86633C32.868 6.82727 32.9445 6.79635 33.0291 6.77356C33.117 6.74752 33.2049 6.7345 33.2928 6.7345C33.3416 6.7345 33.3823 6.74752 33.4149 6.77356C33.4507 6.7996 33.4816 6.85006 33.5076 6.92493C33.5337 6.99654 33.5565 7.09908 33.576 7.23254C33.5988 7.36275 33.6199 7.53365 33.6395 7.74524C33.6525 7.81034 33.6639 7.8608 33.6736 7.89661C33.6867 7.92916 33.7029 7.94543 33.7225 7.94543C33.7518 7.94543 33.7811 7.89498 33.8104 7.79407C34.048 7.10722 34.3914 6.76379 34.8406 6.76379C35.049 6.76379 35.2378 6.8289 35.407 6.95911C35.5796 7.08931 35.7391 7.30253 35.8856 7.59875C36.0353 7.89172 36.1769 8.27909 36.3104 8.76086C36.4438 9.23938 36.5773 9.8302 36.7108 10.5333C36.7173 10.5691 36.7221 10.6017 36.7254 10.631C36.7287 10.6603 36.7303 10.6879 36.7303 10.714C36.7303 10.7889 36.7124 10.854 36.6766 10.9093C36.644 10.9614 36.6001 11.0053 36.5447 11.0411C36.4894 11.0737 36.4276 11.0981 36.3592 11.1144C36.2908 11.1339 36.2225 11.1437 36.1541 11.1437C36.0174 11.1437 35.9181 11.129 35.8563 11.0997C35.7977 11.0704 35.7602 11.0151 35.744 10.9337C35.6496 10.4389 35.5568 9.99947 35.4656 9.61536C35.3777 9.23124 35.2899 8.90898 35.202 8.64856C35.1173 8.38489 35.0327 8.18469 34.9481 8.04797C34.8634 7.91125 34.7788 7.8429 34.6942 7.8429C34.6095 7.8429 34.5298 7.89661 34.4549 8.00403C34.3833 8.10819 34.3133 8.27258 34.2449 8.49719C34.1766 8.7218 34.1098 9.00663 34.0447 9.35168C33.9829 9.69674 33.9227 10.1085 33.8641 10.587C33.8478 10.7172 33.7827 10.8214 33.6688 10.8995C33.5548 10.9777 33.41 11.0167 33.2342 11.0167C33.117 11.0167 33.0275 10.9923 32.9656 10.9435C32.9038 10.8947 32.8696 10.8279 32.8631 10.7433C32.8338 10.0662 32.8012 9.50956 32.7654 9.07336C32.7329 8.63391 32.702 8.28235 32.6727 8.01868C32.6434 7.75175 32.619 7.55318 32.5994 7.42297C32.5799 7.29277 32.5701 7.19674 32.5701 7.13489ZM37.6971 5.43567C37.6971 5.26314 37.7459 5.1427 37.8436 5.07434C37.9412 5.00273 38.1024 4.96692 38.327 4.96692C38.4083 4.96692 38.4767 4.97506 38.532 4.99133C38.5906 5.00435 38.6395 5.0304 38.6785 5.06946C38.7208 5.10852 38.7534 5.1606 38.7762 5.22571C38.8022 5.28756 38.8234 5.36731 38.8397 5.46497C38.8787 5.7677 38.921 6.0802 38.9666 6.40247C39.0154 6.72473 39.0659 7.04862 39.118 7.37415C39.1375 7.52063 39.214 7.59387 39.3475 7.59387C39.3833 7.59387 39.4419 7.59062 39.5233 7.58411C39.6079 7.57434 39.7072 7.56458 39.8211 7.55481C39.935 7.54179 40.0571 7.52877 40.1873 7.51575C40.3208 7.50273 40.4526 7.49133 40.5828 7.48157C40.7163 7.46855 40.8416 7.45878 40.9588 7.45227C41.0792 7.4425 41.185 7.43762 41.2762 7.43762C41.3478 7.43762 41.4048 7.45227 41.4471 7.48157C41.4894 7.50761 41.522 7.54342 41.5447 7.58899C41.5708 7.63131 41.5871 7.68014 41.5936 7.73547C41.6033 7.78756 41.6082 7.84127 41.6082 7.89661C41.6082 7.94543 41.5984 7.99589 41.5789 8.04797C41.5626 8.10006 41.5382 8.14726 41.5057 8.18958C41.4764 8.22864 41.4389 8.26119 41.3934 8.28723C41.3478 8.31327 41.2957 8.32629 41.2371 8.32629C40.9539 8.32629 40.6675 8.33606 40.3777 8.35559C40.0913 8.37187 39.8048 8.39465 39.5184 8.42395C39.3719 8.44348 39.2986 8.51672 39.2986 8.64368C39.2986 8.65344 39.3003 8.66646 39.3035 8.68274C39.3068 8.69576 39.3084 8.70715 39.3084 8.71692C39.3475 9.00012 39.3833 9.26542 39.4158 9.51282C39.4516 9.76021 39.4809 9.98157 39.5037 10.1769C39.5298 10.3689 39.5493 10.5301 39.5623 10.6603C39.5786 10.7872 39.5867 10.8719 39.5867 10.9142C39.5867 11.0314 39.5753 11.129 39.5526 11.2072C39.5298 11.2885 39.4923 11.3536 39.4402 11.4025C39.3882 11.4545 39.3182 11.4904 39.2303 11.5099C39.1457 11.5327 39.0382 11.5441 38.908 11.5441C38.7843 11.5441 38.6932 11.5148 38.6346 11.4562C38.576 11.3976 38.5434 11.3081 38.5369 11.1876C38.5174 10.8035 38.4865 10.4178 38.4442 10.0304C38.4018 9.63977 38.353 9.25077 38.2977 8.8634C38.2684 8.72343 38.1951 8.65344 38.0779 8.65344C38.0682 8.65344 38.0568 8.65507 38.0438 8.65833C38.0307 8.66158 38.0193 8.66321 38.0096 8.66321C37.8078 8.70878 37.6173 8.75435 37.4383 8.79993C37.2593 8.8455 37.0916 8.89433 36.9354 8.94641C36.8475 8.97571 36.7693 8.99687 36.701 9.00989C36.6326 9.01965 36.5708 9.02454 36.5154 9.02454C36.4406 9.02454 36.3852 8.99198 36.3494 8.92688C36.3136 8.85852 36.2957 8.77389 36.2957 8.67297C36.2957 8.63717 36.299 8.59648 36.3055 8.5509C36.312 8.50208 36.325 8.45487 36.3445 8.4093C36.3608 8.36047 36.3869 8.31653 36.4227 8.27747C36.4552 8.23515 36.5008 8.20097 36.5594 8.17493C36.6961 8.11959 36.8784 8.06262 37.1063 8.00403C37.3341 7.94218 37.5913 7.88521 37.8777 7.83313C37.9429 7.81685 37.9933 7.79081 38.0291 7.755C38.0682 7.71594 38.0877 7.65898 38.0877 7.58411C38.0877 7.56783 38.0877 7.55155 38.0877 7.53528C38.0877 7.51575 38.0845 7.49622 38.0779 7.47668C38.0259 7.17721 37.9754 6.9054 37.9266 6.66125C37.881 6.41386 37.8403 6.20227 37.8045 6.02649C37.772 5.85071 37.7459 5.71236 37.7264 5.61145C37.7068 5.51054 37.6971 5.45194 37.6971 5.43567ZM42.0574 6.09485C41.963 6.09485 41.8735 6.08183 41.7889 6.05579C41.7075 6.02649 41.6359 5.98743 41.574 5.9386C41.5154 5.88652 41.4682 5.82629 41.4324 5.75793C41.3966 5.68958 41.3787 5.61471 41.3787 5.53333C41.3787 5.39661 41.4324 5.28593 41.5399 5.20129C41.6505 5.11666 41.797 5.07434 41.9793 5.07434C42.0639 5.07434 42.1453 5.09062 42.2234 5.12317C42.3016 5.15247 42.3699 5.19316 42.4285 5.24524C42.4904 5.29732 42.5392 5.35917 42.575 5.43079C42.6108 5.49915 42.6287 5.57076 42.6287 5.64563C42.6287 5.7856 42.5766 5.89628 42.4725 5.97766C42.3716 6.05579 42.2332 6.09485 42.0574 6.09485ZM41.3885 7.58411C41.3885 7.47017 41.4373 7.3774 41.535 7.30579C41.6359 7.23092 41.7677 7.19348 41.9305 7.19348C42.2234 7.19348 42.3797 7.29439 42.3992 7.49622C42.4123 7.63619 42.4253 7.79407 42.4383 7.96985C42.4546 8.14563 42.4692 8.3328 42.4822 8.53137C42.4985 8.72668 42.5115 8.93014 42.5213 9.14172C42.5343 9.35006 42.5457 9.55676 42.5555 9.76184C42.5652 9.96366 42.5734 10.159 42.5799 10.3478C42.5864 10.5366 42.5897 10.7091 42.5897 10.8654C42.5897 11.0281 42.5311 11.1502 42.4139 11.2316C42.2999 11.3129 42.1323 11.3536 41.9109 11.3536C41.81 11.3536 41.7303 11.3292 41.6717 11.2804C41.6164 11.2348 41.5887 11.1665 41.5887 11.0753C41.5887 10.6261 41.5773 10.2062 41.5545 9.81555C41.535 9.42167 41.5122 9.07174 41.4861 8.76575C41.4634 8.45976 41.4406 8.20585 41.4178 8.00403C41.3983 7.79895 41.3885 7.65898 41.3885 7.58411ZM43.576 7.13489C43.576 7.08606 43.5971 7.03886 43.6395 6.99329C43.6818 6.94446 43.7371 6.90214 43.8055 6.86633C43.8738 6.82727 43.9503 6.79635 44.035 6.77356C44.1229 6.74752 44.2108 6.7345 44.2986 6.7345C44.3475 6.7345 44.3882 6.74752 44.4207 6.77356C44.4565 6.7996 44.4874 6.85006 44.5135 6.92493C44.5395 6.99654 44.5623 7.09908 44.5818 7.23254C44.6046 7.36275 44.6258 7.53365 44.6453 7.74524C44.6583 7.81034 44.6697 7.8608 44.6795 7.89661C44.6925 7.92916 44.7088 7.94543 44.7283 7.94543C44.7576 7.94543 44.7869 7.89498 44.8162 7.79407C45.0539 7.10722 45.3973 6.76379 45.8465 6.76379C46.0548 6.76379 46.2436 6.8289 46.4129 6.95911C46.5854 7.08931 46.7449 7.30253 46.8914 7.59875C47.0412 7.89172 47.1828 8.27909 47.3162 8.76086C47.4497 9.23938 47.5832 9.8302 47.7166 10.5333C47.7231 10.5691 47.728 10.6017 47.7313 10.631C47.7345 10.6603 47.7361 10.6879 47.7361 10.714C47.7361 10.7889 47.7182 10.854 47.6824 10.9093C47.6499 10.9614 47.6059 11.0053 47.5506 11.0411C47.4953 11.0737 47.4334 11.0981 47.3651 11.1144C47.2967 11.1339 47.2283 11.1437 47.16 11.1437C47.0233 11.1437 46.924 11.129 46.8621 11.0997C46.8035 11.0704 46.7661 11.0151 46.7498 10.9337C46.6554 10.4389 46.5626 9.99947 46.4715 9.61536C46.3836 9.23124 46.2957 8.90898 46.2078 8.64856C46.1232 8.38489 46.0386 8.18469 45.9539 8.04797C45.8693 7.91125 45.7846 7.8429 45.7 7.8429C45.6154 7.8429 45.5356 7.89661 45.4608 8.00403C45.3891 8.10819 45.3192 8.27258 45.2508 8.49719C45.1824 8.7218 45.1157 9.00663 45.0506 9.35168C44.9887 9.69674 44.9285 10.1085 44.8699 10.587C44.8537 10.7172 44.7886 10.8214 44.6746 10.8995C44.5607 10.9777 44.4158 11.0167 44.2401 11.0167C44.1229 11.0167 44.0333 10.9923 43.9715 10.9435C43.9096 10.8947 43.8755 10.8279 43.869 10.7433C43.8397 10.0662 43.8071 9.50956 43.7713 9.07336C43.7387 8.63391 43.7078 8.28235 43.6785 8.01868C43.6492 7.75175 43.6248 7.55318 43.6053 7.42297C43.5858 7.29277 43.576 7.19674 43.576 7.13489ZM49.2742 9.3468C49.2742 9.783 49.341 10.1199 49.4744 10.3575C49.6079 10.5952 49.8016 10.714 50.0555 10.714C50.215 10.714 50.3615 10.6668 50.4949 10.5724C50.6317 10.478 50.7488 10.3462 50.8465 10.1769C50.9442 10.0076 51.019 9.80741 51.0711 9.57629C51.1264 9.34192 51.1541 9.08801 51.1541 8.81458C51.1541 8.64856 51.1476 8.50533 51.1346 8.38489C51.1216 8.26119 51.1069 8.15214 51.0906 8.05774C51.0776 7.96008 51.0646 7.87382 51.0516 7.79895C51.0386 7.72408 51.032 7.65247 51.032 7.58411C51.032 7.47994 51.076 7.40507 51.1639 7.3595C51.2518 7.31067 51.3917 7.28625 51.5838 7.28625C51.8279 7.28625 52.0167 7.34159 52.1502 7.45227C52.2869 7.56295 52.3553 7.72408 52.3553 7.93567C52.3553 8.51184 52.2983 9.02942 52.1844 9.4884C52.0737 9.94739 51.9126 10.338 51.701 10.6603C51.4927 10.9793 51.2387 11.2251 50.9393 11.3976C50.6398 11.5701 50.3045 11.6564 49.9334 11.6564C49.6697 11.6564 49.4256 11.601 49.201 11.4904C48.9796 11.3829 48.7876 11.2316 48.6248 11.0363C48.4653 10.8377 48.34 10.6033 48.2488 10.3331C48.1577 10.0597 48.1121 9.76021 48.1121 9.43469C48.1121 9.31099 48.1154 9.17916 48.1219 9.03918C48.1284 8.89921 48.1382 8.74947 48.1512 8.58997C48.1642 8.42721 48.1805 8.25142 48.2 8.06262C48.2228 7.87382 48.2472 7.66874 48.2733 7.44739C48.283 7.35299 48.327 7.27812 48.4051 7.22278C48.4865 7.16418 48.589 7.13489 48.7127 7.13489C48.8234 7.13489 48.9276 7.14628 49.0252 7.16907C49.1229 7.19185 49.2059 7.22278 49.2742 7.26184C49.3458 7.3009 49.4012 7.34648 49.4402 7.39856C49.4826 7.45064 49.5037 7.50598 49.5037 7.56458C49.5037 7.62317 49.4907 7.71594 49.4647 7.8429C49.4419 7.96659 49.4158 8.10982 49.3865 8.27258C49.3605 8.43209 49.3345 8.60624 49.3084 8.79504C49.2856 8.98059 49.2742 9.16451 49.2742 9.3468ZM57.1014 10.006C57.1958 9.9246 57.2886 9.88391 57.3797 9.88391C57.4318 9.88391 57.479 9.89693 57.5213 9.92297C57.5636 9.94902 57.6108 9.98971 57.6629 10.045C57.7117 10.1199 57.7459 10.1818 57.7654 10.2306C57.7882 10.2762 57.7996 10.3217 57.7996 10.3673C57.7996 10.465 57.7508 10.5577 57.6531 10.6456C57.4969 10.7758 57.3276 10.893 57.1453 10.9972C56.963 11.0981 56.7726 11.1844 56.574 11.256C56.3755 11.3276 56.1704 11.3813 55.9588 11.4171C55.7472 11.4562 55.5373 11.4757 55.3289 11.4757C55.0652 11.4757 54.8179 11.4415 54.5867 11.3732C54.3556 11.3081 54.1489 11.2137 53.9666 11.09C53.7876 10.9663 53.6362 10.8182 53.5125 10.6456C53.3888 10.4698 53.3009 10.2729 53.2488 10.0548C53.2195 9.96366 53.1919 9.90507 53.1658 9.87903C53.143 9.84973 53.104 9.83508 53.0486 9.83508C52.9282 9.83508 52.8354 9.80579 52.7703 9.74719C52.7052 9.6886 52.6727 9.60396 52.6727 9.49329C52.6727 9.44771 52.6759 9.41842 52.6824 9.4054L52.6922 9.30774C52.7085 9.19055 52.7394 9.10592 52.785 9.05383C52.8338 9.00175 52.9087 8.97571 53.0096 8.97571H53.0828C53.2195 8.97571 53.3156 8.91223 53.3709 8.78528C53.4718 8.56067 53.6004 8.35559 53.7567 8.17004C53.9129 7.9845 54.0887 7.82662 54.284 7.69641C54.4793 7.56295 54.6876 7.46041 54.909 7.38879C55.1336 7.31392 55.3615 7.27649 55.5926 7.27649C55.8335 7.27649 56.0581 7.3123 56.2664 7.38391C56.478 7.45227 56.6619 7.5483 56.8182 7.672C56.9744 7.79569 57.0965 7.94055 57.1844 8.10657C57.2755 8.27258 57.3211 8.45162 57.3211 8.64368C57.3211 8.77714 57.2951 8.89921 57.243 9.00989C57.1909 9.12056 57.116 9.21822 57.0184 9.30286C56.9207 9.38424 56.8019 9.45097 56.6619 9.50305C56.5252 9.55514 56.369 9.58931 56.1932 9.60559L54.4988 9.77649C54.4337 9.77649 54.38 9.79277 54.3377 9.82532C54.2986 9.85787 54.2791 9.90181 54.2791 9.95715C54.2791 10.0418 54.31 10.1232 54.3719 10.2013C54.437 10.2794 54.5216 10.3494 54.6258 10.4113C54.7332 10.4698 54.8553 10.517 54.992 10.5529C55.132 10.5887 55.2752 10.6066 55.4217 10.6066C55.5617 10.6066 55.7049 10.5935 55.8514 10.5675C56.0011 10.5382 56.1476 10.4975 56.2908 10.4454C56.4373 10.3934 56.5789 10.3315 56.7156 10.2599C56.8524 10.185 56.9809 10.1004 57.1014 10.006ZM56.0125 8.74622C56.0613 8.73645 56.1037 8.71366 56.1395 8.67786C56.1753 8.63879 56.1932 8.59159 56.1932 8.53625C56.1932 8.48743 56.1753 8.44185 56.1395 8.39954C56.1037 8.35722 56.0548 8.31978 55.993 8.28723C55.9311 8.25142 55.8595 8.22375 55.7781 8.20422C55.6968 8.18469 55.6105 8.17493 55.5193 8.17493C55.3859 8.17493 55.2492 8.19446 55.1092 8.23352C54.9692 8.27258 54.8423 8.32467 54.7283 8.38977C54.6144 8.45162 54.5216 8.52161 54.45 8.59973C54.3784 8.6746 54.3426 8.74947 54.3426 8.82434C54.3426 8.89921 54.3882 8.93665 54.4793 8.93665C54.5346 8.93665 54.6242 8.93014 54.7479 8.91711C54.8716 8.90409 55.0083 8.88944 55.158 8.87317C55.3078 8.85364 55.4591 8.83248 55.6121 8.80969C55.7651 8.78691 55.8986 8.76575 56.0125 8.74622Z" fill="#1E1E1E"/>
</svg>
