<svg width="83" height="119" viewBox="0 0 83 119" fill="none" xmlns="http://www.w3.org/2000/svg">
<path d="M21.5372 2.13934C37.8833 0.700008 49.5383 5.33995 60.7756 2.13934C74.5382 2.75484 77.1217 10.0746 80.3949 21.2672C82.9978 44.448 82.114 60.9718 80.3949 98.489C81.91 109.663 74.4314 119.085 60.7756 117.617C51.9275 121.035 43.1183 116.064 21.5372 117.617C8.06596 119.501 1.8694 108.091 1.91796 98.489C1.58774 71.6721 0.101725 40.6982 1.91796 21.2672C1.61687 11.5991 11.038 2.54651 21.5372 2.13934Z" fill="white"/>
<path d="M21.5371 2.13934C34.9112 3.5692 45.1773 3.98584 60.7756 2.13934M21.5371 2.13934C32.522 2.01624 41.9236 1.54278 60.7756 2.13934M21.5371 2.13934C10.0278 1.63747 1.6654 7.07282 1.91792 21.2672M21.5371 2.13934C7.36663 0.58638 1.33517 10.1314 1.91792 21.2672M60.7756 2.13934C73.9069 3.75858 80.288 8.37011 80.3948 21.2672M60.7756 2.13934C74.9267 0.643196 78.598 7.27168 80.3948 21.2672M80.3948 21.2672C79.7052 51.1333 82.7355 77.3631 80.3948 98.489M80.3948 21.2672C78.9379 38.9842 79.6178 56.2846 80.3948 98.489M80.3948 98.489C80.5988 110.335 72.5277 116.803 60.7756 117.617M80.3948 98.489C79.5887 111.197 72.1003 116.623 60.7756 117.617M60.7756 117.617C47.0616 115.998 30.56 118.176 21.5371 117.617M60.7756 117.617C50.1695 116.774 40.1948 116.803 21.5371 117.617M21.5371 117.617C8.9789 118.071 1.3546 112.125 1.91792 98.489M21.5371 117.617C6.28854 118.659 2.2093 109.644 1.91792 98.489M1.91792 98.489C0.490187 84.5029 1.91792 68.2442 1.91792 21.2672M1.91792 98.489C1.87907 67.1742 0.247375 37.8195 1.91792 21.2672" stroke="#1E1E1E" stroke-width="2" stroke-linecap="round"/>
<path d="M10.4797 85.6796C21.1538 85.6796 63.8693 85.6796 74.5433 85.6796" stroke="#1E1E1E" stroke-width="2" stroke-linecap="round"/>
<path d="M22.8265 2.03223C31.9562 2.03223 41.0957 2.03223 58.1702 2.03223C60.5789 2.03223 61.793 3.20641 61.793 5.56426C61.793 8.36716 61.793 11.1701 61.793 12.6189C61.793 14.9672 60.5789 16.1414 58.1702 16.1414C44.6699 16.1414 31.1695 16.1414 22.8265 16.1414C20.4081 16.1414 19.2037 14.9672 19.2037 12.6189C19.2037 10.1095 19.2037 7.60962 19.2037 5.56426C19.2037 3.20641 20.4081 2.03223 22.8265 2.03223Z" fill="white"/>
<path d="M22.8265 2.03223C35.9092 2.03223 49.0016 2.03223 58.1702 2.03223M22.8265 2.03223C32.8109 2.03223 42.8051 2.03223 58.1702 2.03223M22.8265 2.03223C20.4081 2.03223 19.2037 3.20641 19.2037 5.56426M58.1702 2.03223C60.5789 2.03223 61.793 3.20641 61.793 5.56426M61.793 5.56426C61.793 8.32928 61.793 11.0943 61.793 12.6189M61.793 5.56426C61.793 7.86529 61.793 10.1758 61.793 12.6189M61.793 12.6189C61.793 14.9672 60.5789 16.1414 58.1702 16.1414M58.1702 16.1414C50.6431 16.1414 43.1256 16.1414 22.8265 16.1414M58.1702 16.1414C50.2448 16.1414 42.3195 16.1414 22.8265 16.1414M22.8265 16.1414C20.4081 16.1414 19.2037 14.9672 19.2037 12.6189M19.2037 12.6189C19.2037 9.8633 19.2037 7.10775 19.2037 5.56426M19.2037 12.6189C19.2037 11.1701 19.2037 9.73073 19.2037 5.56426" stroke="#1E1E1E" stroke-width="2" stroke-linecap="round"/>
<path d="M27.8674 8.15637C27.8251 8.16288 27.7893 8.16777 27.76 8.17102C27.7307 8.17428 27.7063 8.1759 27.6868 8.1759C27.5761 8.16939 27.498 8.13847 27.4524 8.08313C27.4068 8.02454 27.384 7.92851 27.384 7.79504C27.384 7.53137 27.511 7.36536 27.7649 7.297C27.9895 7.24491 28.2304 7.20748 28.4875 7.18469C28.7447 7.15865 29.0312 7.14563 29.3469 7.14563C29.7701 7.14563 30.19 7.18632 30.6067 7.2677C31.0266 7.34908 31.4254 7.46139 31.803 7.60461C32.1838 7.74459 32.537 7.91223 32.8625 8.10754C33.1881 8.2996 33.4696 8.50956 33.7073 8.73743C33.9482 8.96204 34.1353 9.19967 34.2688 9.45032C34.4055 9.69771 34.4739 9.94674 34.4739 10.1974C34.4739 10.4513 34.3876 10.6938 34.2151 10.9249C34.0458 11.1528 33.8163 11.3546 33.5266 11.5304C33.2369 11.7062 32.9016 11.8462 32.5208 11.9503C32.1399 12.0545 31.7411 12.1066 31.3245 12.1066C30.9924 12.1066 30.6458 12.0756 30.2844 12.0138C29.9231 11.9519 29.5243 11.8527 29.0881 11.7159C28.8863 11.6606 28.7854 11.5369 28.7854 11.3448C28.7854 11.3025 28.7952 11.2635 28.8147 11.2277C28.8342 11.1919 28.8538 11.1577 28.8733 11.1251C28.8961 11.0926 28.9172 11.0616 28.9368 11.0323C28.9563 10.9998 28.9661 10.9672 28.9661 10.9347C28.9661 10.7491 28.9563 10.5506 28.9368 10.339C28.9205 10.1274 28.8961 9.91581 28.8635 9.70422C28.8342 9.49264 28.7984 9.29081 28.7561 9.09875C28.717 8.90344 28.6764 8.73092 28.634 8.58118C28.5917 8.43144 28.5478 8.31262 28.5022 8.22473C28.4599 8.13359 28.4208 8.08801 28.385 8.08801C28.3297 8.08801 28.2613 8.09452 28.1799 8.10754C28.1018 8.12056 27.9976 8.13684 27.8674 8.15637ZM29.7473 8.07825C29.6529 8.07825 29.6057 8.1108 29.6057 8.1759C29.6057 8.19218 29.6106 8.21985 29.6204 8.25891C29.6301 8.29797 29.6448 8.35982 29.6643 8.44446C29.6936 8.58118 29.7213 8.72766 29.7473 8.88391C29.7734 9.04016 29.7994 9.21594 29.8254 9.41125C29.8515 9.60331 29.8759 9.81978 29.8987 10.0607C29.9247 10.2983 29.9508 10.5669 29.9768 10.8663C29.9801 10.9152 30.024 10.9624 30.1086 11.0079C30.1933 11.0503 30.3056 11.0893 30.4456 11.1251C30.5855 11.1577 30.745 11.1853 30.9241 11.2081C31.1064 11.2277 31.2935 11.2374 31.4856 11.2374C31.7395 11.2374 31.982 11.2081 32.2131 11.1495C32.4475 11.0877 32.6526 11.0063 32.8284 10.9054C33.0074 10.8045 33.149 10.6873 33.2532 10.5538C33.3606 10.4204 33.4143 10.282 33.4143 10.1388C33.4143 9.90116 33.3199 9.67004 33.1311 9.44543C32.9456 9.22083 32.6884 9.01737 32.3596 8.83508C32.0308 8.64954 31.6435 8.49166 31.1975 8.36145C30.7515 8.22799 30.2681 8.13359 29.7473 8.07825ZM34.3909 8.15637C34.3486 8.16288 34.3127 8.16777 34.2834 8.17102C34.2542 8.17428 34.2297 8.1759 34.2102 8.1759C34.0995 8.16939 34.0214 8.13847 33.9758 8.08313C33.9303 8.02454 33.9075 7.92851 33.9075 7.79504C33.9075 7.53137 34.0344 7.36536 34.2883 7.297C34.5129 7.24491 34.7538 7.20748 35.011 7.18469C35.2681 7.15865 35.5546 7.14563 35.8704 7.14563C36.2935 7.14563 36.7135 7.18632 37.1301 7.2677C37.55 7.34908 37.9488 7.46139 38.3264 7.60461C38.7073 7.74459 39.0605 7.91223 39.386 8.10754C39.7115 8.2996 39.9931 8.50956 40.2307 8.73743C40.4716 8.96204 40.6588 9.19967 40.7922 9.45032C40.929 9.69771 40.9973 9.94674 40.9973 10.1974C40.9973 10.4513 40.9111 10.6938 40.7385 10.9249C40.5693 11.1528 40.3398 11.3546 40.05 11.5304C39.7603 11.7062 39.425 11.8462 39.0442 11.9503C38.6633 12.0545 38.2646 12.1066 37.8479 12.1066C37.5159 12.1066 37.1692 12.0756 36.8079 12.0138C36.4465 11.9519 36.0478 11.8527 35.6116 11.7159C35.4097 11.6606 35.3088 11.5369 35.3088 11.3448C35.3088 11.3025 35.3186 11.2635 35.3381 11.2277C35.3577 11.1919 35.3772 11.1577 35.3967 11.1251C35.4195 11.0926 35.4407 11.0616 35.4602 11.0323C35.4797 10.9998 35.4895 10.9672 35.4895 10.9347C35.4895 10.7491 35.4797 10.5506 35.4602 10.339C35.4439 10.1274 35.4195 9.91581 35.387 9.70422C35.3577 9.49264 35.3219 9.29081 35.2795 9.09875C35.2405 8.90344 35.1998 8.73092 35.1575 8.58118C35.1152 8.43144 35.0712 8.31262 35.0256 8.22473C34.9833 8.13359 34.9443 8.08801 34.9084 8.08801C34.8531 8.08801 34.7847 8.09452 34.7034 8.10754C34.6252 8.12056 34.5211 8.13684 34.3909 8.15637ZM36.2708 8.07825C36.1764 8.07825 36.1292 8.1108 36.1292 8.1759C36.1292 8.19218 36.134 8.21985 36.1438 8.25891C36.1536 8.29797 36.1682 8.35982 36.1877 8.44446C36.217 8.58118 36.2447 8.72766 36.2708 8.88391C36.2968 9.04016 36.3228 9.21594 36.3489 9.41125C36.3749 9.60331 36.3993 9.81978 36.4221 10.0607C36.4482 10.2983 36.4742 10.5669 36.5002 10.8663C36.5035 10.9152 36.5474 10.9624 36.6321 11.0079C36.7167 11.0503 36.829 11.0893 36.969 11.1251C37.109 11.1577 37.2685 11.1853 37.4475 11.2081C37.6298 11.2277 37.817 11.2374 38.009 11.2374C38.2629 11.2374 38.5055 11.2081 38.7366 11.1495C38.9709 11.0877 39.176 11.0063 39.3518 10.9054C39.5308 10.8045 39.6724 10.6873 39.7766 10.5538C39.884 10.4204 39.9377 10.282 39.9377 10.1388C39.9377 9.90116 39.8433 9.67004 39.6545 9.44543C39.469 9.22083 39.2118 9.01737 38.8831 8.83508C38.5543 8.64954 38.1669 8.49166 37.7209 8.36145C37.275 8.22799 36.7916 8.13359 36.2708 8.07825ZM43.6926 12.4972C43.3378 12.4972 43.0107 12.437 42.7112 12.3165C42.415 12.1961 42.1594 12.0284 41.9446 11.8136C41.7297 11.5955 41.5621 11.3367 41.4417 11.0372C41.3212 10.7378 41.261 10.4073 41.261 10.046C41.261 9.85071 41.2773 9.66353 41.3098 9.4845C41.3456 9.30221 41.3928 9.13293 41.4514 8.97668C41.4775 8.91484 41.4905 8.87089 41.4905 8.84485C41.4905 8.8123 41.4823 8.78137 41.4661 8.75208C41.4498 8.72278 41.4319 8.69185 41.4124 8.6593C41.3928 8.62675 41.3749 8.59257 41.3586 8.55676C41.3424 8.52096 41.3342 8.48027 41.3342 8.43469C41.3342 8.29797 41.4124 8.16451 41.5686 8.0343C41.7249 7.90084 41.9316 7.78365 42.1887 7.68274C42.4459 7.57857 42.7372 7.49556 43.0627 7.43372C43.3883 7.36861 43.7219 7.33606 44.0637 7.33606C44.4836 7.33606 44.8612 7.38977 45.1965 7.49719C45.5351 7.60461 45.8215 7.75924 46.0559 7.96106C46.2935 8.15963 46.4758 8.40214 46.6028 8.6886C46.7297 8.97506 46.7932 9.29732 46.7932 9.6554C46.7932 10.0558 46.7135 10.4301 46.554 10.7784C46.3944 11.1235 46.1747 11.423 45.8948 11.6769C45.6181 11.9308 45.2909 12.131 44.9133 12.2775C44.5357 12.424 44.1288 12.4972 43.6926 12.4972ZM45.8118 9.84583C45.8118 9.59192 45.7678 9.36405 45.6799 9.16223C45.592 8.96041 45.4651 8.79114 45.2991 8.65442C45.1331 8.51444 44.928 8.40865 44.6838 8.33704C44.443 8.26217 44.1695 8.22473 43.8635 8.22473C43.3264 8.22473 42.9211 8.36145 42.6477 8.63489C42.3775 8.90507 42.2424 9.30872 42.2424 9.84583C42.2424 10.1062 42.2831 10.3455 42.3645 10.5636C42.4459 10.7784 42.5598 10.964 42.7063 11.1202C42.8528 11.2732 43.0269 11.3937 43.2288 11.4816C43.4338 11.5662 43.6584 11.6085 43.9026 11.6085C44.1825 11.6085 44.4397 11.5662 44.6741 11.4816C44.9084 11.3937 45.1086 11.2716 45.2747 11.1154C45.4439 10.9591 45.5758 10.7736 45.6702 10.5587C45.7646 10.3406 45.8118 10.103 45.8118 9.84583ZM48.3899 9.88489C48.3899 10.0802 48.4371 10.2625 48.5315 10.4318C48.6292 10.5978 48.7561 10.7443 48.9124 10.8712C49.0686 10.9949 49.2476 11.0926 49.4495 11.1642C49.6513 11.2325 49.858 11.2667 50.0696 11.2667C50.1347 11.2667 50.2014 11.2618 50.2698 11.2521C50.3381 11.2391 50.4 11.2179 50.4553 11.1886C50.5107 11.1593 50.5562 11.1219 50.592 11.0763C50.6278 11.0275 50.6458 10.9672 50.6458 10.8956C50.6458 10.7589 50.5969 10.6238 50.4993 10.4904C50.4049 10.3569 50.2795 10.2251 50.1233 10.0948C49.967 9.96139 49.788 9.82955 49.5862 9.69934C49.3844 9.56588 49.1793 9.43404 48.9709 9.30383C48.7626 9.17362 48.5575 9.04342 48.3557 8.91321C48.1539 8.77974 47.9749 8.64791 47.8186 8.5177C47.6624 8.38424 47.5354 8.25077 47.4377 8.11731C47.3433 7.98059 47.2961 7.84387 47.2961 7.70715C47.2961 7.57694 47.3287 7.4565 47.3938 7.34583C47.4622 7.23189 47.5517 7.12935 47.6624 7.03821C47.773 6.94706 47.9016 6.86568 48.0481 6.79407C48.1946 6.72245 48.3476 6.66223 48.5071 6.6134C48.6666 6.56458 48.8261 6.52877 48.9856 6.50598C49.1484 6.47994 49.303 6.46692 49.4495 6.46692C49.5569 6.46692 49.6741 6.47017 49.801 6.47668C49.9312 6.47994 50.0517 6.49459 50.1624 6.52063C50.2763 6.54342 50.3707 6.57922 50.4456 6.62805C50.5204 6.67688 50.5579 6.74687 50.5579 6.83801C50.5579 6.86731 50.553 6.90474 50.5432 6.95032C50.5334 6.99264 50.5058 7.06425 50.4602 7.16516C50.4146 7.25956 50.3609 7.33118 50.2991 7.38C50.2405 7.42558 50.164 7.44836 50.0696 7.44836C49.9361 7.44836 49.7945 7.43372 49.6448 7.40442C49.4983 7.37187 49.3502 7.35559 49.2004 7.35559C49.1191 7.35559 49.0361 7.36047 48.9514 7.37024C48.87 7.37675 48.7952 7.3914 48.7268 7.41418C48.6584 7.43372 48.6031 7.46464 48.5608 7.50696C48.5185 7.54602 48.4973 7.59648 48.4973 7.65833C48.4973 7.72017 48.5413 7.79016 48.6292 7.86829C48.7203 7.94641 48.8391 8.03267 48.9856 8.12708C49.1353 8.22148 49.3046 8.32564 49.4934 8.43958C49.6822 8.55025 49.8743 8.67069 50.0696 8.8009C50.2681 8.92786 50.4618 9.06458 50.6506 9.21106C50.8394 9.35429 51.0071 9.50728 51.1536 9.67004C51.3033 9.82955 51.4221 9.99882 51.51 10.1779C51.6012 10.3569 51.6467 10.5424 51.6467 10.7345C51.6467 10.9689 51.593 11.1756 51.4856 11.3546C51.3782 11.5337 51.2398 11.6834 51.0706 11.8038C50.9013 11.9243 50.7141 12.0138 50.509 12.0724C50.304 12.1342 50.1038 12.1652 49.9084 12.1652C49.7099 12.1652 49.5081 12.1407 49.303 12.0919C49.1012 12.0463 48.9058 11.9796 48.717 11.8917C48.5282 11.8071 48.3508 11.7045 48.1848 11.5841C48.0221 11.4604 47.8805 11.3237 47.76 11.174C47.6396 11.021 47.5435 10.8566 47.4719 10.6808C47.4036 10.505 47.3694 10.3211 47.3694 10.129C47.3694 10.0476 47.3743 9.96627 47.384 9.88489C47.3971 9.80025 47.4182 9.72701 47.4475 9.66516C47.4768 9.60006 47.5175 9.54797 47.5696 9.50891C47.6217 9.46659 47.6884 9.44543 47.7698 9.44543C47.7958 9.44543 47.8251 9.44869 47.8577 9.4552C47.8902 9.45846 47.9472 9.4731 48.0286 9.49915C48.123 9.52844 48.206 9.57564 48.2776 9.64075C48.3525 9.7026 48.3899 9.78398 48.3899 9.88489Z" fill="#1E1E1E"/>
<path d="M40.3396 26.895C41.7285 27.3495 44.3606 27.1601 45.6038 26.895C49.6344 27.3684 47.9639 28.7225 47.9542 29.177C47.7308 29.8778 48.5175 31.7432 47.9542 33.7507C50.0229 37.2827 45.5552 35.7677 45.6038 36.0423C44.2246 36.6294 41.34 36.1748 40.3396 36.0423C40.1745 35.7298 37.6978 35.0669 37.9989 33.7507C37.6298 31.4497 38.368 30.7584 37.9989 29.177C35.8524 28.7036 39.9997 27.662 40.3396 26.895Z" fill="white"/>
<path d="M40.3396 26.895C42.1655 26.7435 43.8944 26.8855 45.6038 26.895M40.3396 26.895C42.4375 26.8098 44.3023 26.8192 45.6038 26.895M40.3396 26.895C38.8147 27.4442 38.6302 28.2491 37.9989 29.1771M40.3396 26.895C39.8345 27.1128 37.5327 27.4537 37.9989 29.1771M45.6038 26.895C47.7988 27.4631 47.0121 27.0938 47.9542 29.1771M45.6038 26.895C48.197 27.9366 47.8668 26.8571 47.9542 29.1771M47.9542 29.1771C48.0027 30.1998 47.9639 31.374 47.9542 33.7507M47.9542 29.1771C47.8959 30.3323 47.8473 31.4402 47.9542 33.7507M47.9542 33.7507C48.6535 35.6825 47.2549 36.4874 45.6038 36.0423M47.9542 33.7507C46.9829 34.7355 47.488 35.6635 45.6038 36.0423M45.6038 36.0423C44.2149 36.0896 43.0299 36.0991 40.3396 36.0423M45.6038 36.0423C43.7778 36.1181 42.2141 35.9571 40.3396 36.0423M40.3396 36.0423C37.8435 36.6483 38.5136 34.8302 37.9989 33.7507M40.3396 36.0423C39.7957 36.3264 38.6787 36.298 37.9989 33.7507M37.9989 33.7507C37.7852 31.7338 38.0474 30.1335 37.9989 29.1771M37.9989 33.7507C37.9503 32.8133 37.9212 31.6202 37.9989 29.1771" stroke="#1E1E1E" stroke-linecap="round"/>
<path d="M37.3537 29.9641C35.3044 32.6913 26.1746 40.4845 25.6307 46.6395C25.0771 52.7945 32.5946 63.561 34.0417 66.8847M38.1695 30.9016C36.0328 33.5151 25.961 39.869 25.2131 45.9577C24.4652 52.037 32.1284 63.9493 33.6824 67.434" stroke="#1E1E1E" stroke-linecap="round"/>
<path d="M37.9709 35.1495C37.3979 37.3558 34.251 42.9143 34.2316 47.611C34.2122 52.3078 37.3687 60.7165 37.8544 63.3489M37.3299 34.9317C36.7083 37.2517 33.746 43.454 33.7945 48.2549C33.8528 53.0559 37.1065 61.1521 37.6504 63.7277" stroke="#1E1E1E" stroke-linecap="round"/>
<path d="M39.2347 36.5595C39.5455 40.4419 40.9441 56.3503 41.148 60.3274M38.5742 36.0861C38.8365 40.2525 40.371 56.6817 40.8664 60.8008" stroke="#1E1E1E" stroke-linecap="round"/>
<path fill-rule="evenodd" clip-rule="evenodd" d="M33.8387 64.9762L34.6393 68.6704L32.2448 67.4968L34.9593 64.7829" fill="#1E1E1E"/>
<path d="M34.5143 65.2319C34.7648 66.1222 34.8145 66.8745 35.0089 68.1697M34.5143 65.2319C34.6158 66.2763 34.8819 67.3789 35.0089 68.1697M34.5143 65.2319C33.9616 65.57 33.1026 66.2692 32.2494 66.7526M34.5143 65.2319C33.4607 65.9768 32.8783 66.3715 32.2494 66.7526M35.0089 68.1697C34.3472 67.8687 33.6843 67.4862 32.2494 66.7526M35.0089 68.1697C34.3304 67.7985 33.6633 67.4425 32.2494 66.7526" stroke="#1E1E1E" stroke-linecap="round"/>
<path fill-rule="evenodd" clip-rule="evenodd" d="M37.9941 63.3621L38.7235 66.5779L36.523 63.8802L38.7336 63.2265" fill="#1E1E1E"/>
<path d="M38.3827 62.8753C38.5212 63.8142 38.6439 65.0501 38.7647 65.829M38.3827 62.8753C38.5112 63.6147 38.6149 64.3019 38.7647 65.829M38.3827 62.8753C37.5615 63.466 36.8054 63.8303 36.0612 64.3126M38.3827 62.8753C37.2875 63.5447 36.7017 63.9678 36.0612 64.3126M38.7647 65.829C38.2039 65.5139 37.7515 65.2528 36.0612 64.3126M38.7647 65.829C38.1223 65.4306 37.3293 65.0519 36.0612 64.3126" stroke="#1E1E1E" stroke-linecap="round"/>
<path fill-rule="evenodd" clip-rule="evenodd" d="M41.498 60.6829L41.2459 62.6307L39.2986 60.5366L41.429 60.2583" fill="#1E1E1E"/>
<path d="M41.949 60.0753C41.5972 60.7657 41.4227 61.1677 40.6273 62.7591M41.949 60.0753C41.4613 61.1573 40.9528 62.183 40.6273 62.7591M41.949 60.0753C40.4044 60.0839 39.8226 60.1262 39.199 60.0559M41.949 60.0753C40.4423 60.0451 39.8015 60.0604 39.199 60.0559M40.6273 62.7591C40.2899 62.0947 39.9014 61.3273 39.199 60.0559M40.6273 62.7591C40.1691 61.9271 39.7796 61.1218 39.199 60.0559" stroke="#1E1E1E" stroke-linecap="round"/>
<path d="M47.6138 29.0333C49.4786 31.7983 59.1716 40.0461 59.6767 46.22C60.1914 52.394 52.2369 62.7344 50.6926 66.0676M48.3131 29.9992C50.1293 32.6032 59.1813 39.4874 59.5116 45.5572C59.8515 51.6364 51.8581 62.9427 50.3333 66.4369" stroke="#1E1E1E" stroke-linecap="round"/>
<path d="M48.3639 35.3655C48.8884 37.4014 50.7532 42.1929 50.5006 46.7949C50.2481 51.3875 47.4995 60.1939 46.8682 62.959M47.9657 35.1667C48.461 37.2878 50.0636 42.5527 50.0636 47.2589C50.0636 51.9557 48.5581 60.6106 47.9754 63.3851" stroke="#1E1E1E" stroke-linecap="round"/>
<path d="M45.4994 35.7368C45.2081 39.6666 44.5573 56.0578 44.3242 60.2054M44.8293 36.6648C44.6739 40.8881 45.3052 56.6355 45.3537 60.7262" stroke="#1E1E1E" stroke-linecap="round"/>
<path fill-rule="evenodd" clip-rule="evenodd" d="M50.7029 64.4814L49.7804 68.241L52.4504 65.7129L50.4967 64.4509" fill="#1E1E1E"/>
<path d="M50.2876 64.7594C50.1252 65.7248 49.9513 66.4819 49.793 67.6973M50.2876 64.7594C50.1503 65.7076 49.9949 66.5839 49.793 67.6973M50.2876 64.7594C51.0038 65.3443 51.7907 65.8036 52.5525 66.2801M50.2876 64.7594C50.9424 65.2179 51.8232 65.7446 52.5525 66.2801M49.793 67.6973C50.3786 67.3533 50.9242 67.1101 52.5525 66.2801M49.793 67.6973C50.5012 67.3826 51.1547 67.0286 52.5525 66.2801" stroke="#1E1E1E" stroke-linecap="round"/>
<path fill-rule="evenodd" clip-rule="evenodd" d="M46.4275 62.9465L45.9217 64.7987L48.9299 63.5188L46.5786 62.6459" fill="#1E1E1E"/>
<path d="M46.4193 62.4028C46.2856 63.1159 46.2278 63.7877 46.0373 65.3566M46.4193 62.4028C46.3283 63.1557 46.2425 63.935 46.0373 65.3566M46.4193 62.4028C47.1933 62.8591 47.8963 63.4173 48.7407 63.8401M46.4193 62.4028C47.6564 63.155 48.1754 63.5223 48.7407 63.8401M46.0373 65.3566C46.9557 64.832 48.1038 64.2308 48.7407 63.8401M46.0373 65.3566C46.7494 64.9929 47.4457 64.5844 48.7407 63.8401" stroke="#1E1E1E" stroke-linecap="round"/>
<path fill-rule="evenodd" clip-rule="evenodd" d="M42.4456 59.1953L44.1646 61.9171L45.8623 59.7034L42.2445 59.4652" fill="#1E1E1E"/>
<path d="M42.853 59.6029C43.1118 60.1301 43.4361 60.7535 44.1747 62.2868M42.853 59.6029C43.2335 60.313 43.4988 60.9634 44.1747 62.2868M42.853 59.6029C44.1726 59.6724 44.8165 59.5647 45.603 59.5835M42.853 59.6029C43.5732 59.5539 44.5539 59.5774 45.603 59.5835M44.1747 62.2868C44.6627 61.427 45.0891 60.6984 45.603 59.5835M44.1747 62.2868C44.5417 61.6041 44.9304 60.8272 45.603 59.5835" stroke="#1E1E1E" stroke-linecap="round"/>
<path d="M42.7882 28.4974C42.7396 29.4349 42.7591 30.4955 42.8368 32.2567ZM42.7882 28.4974C42.8368 29.6432 42.8173 30.7701 42.8368 32.2567Z" stroke="#1E1E1E" stroke-linecap="round"/>
<path d="M36.9984 69.1507C38.0599 68.9878 38.4202 68.4324 39.5201 68.1835C39.1186 69.9045 42.2548 65.6491 41.2742 68.9354C41.8153 70.4577 43.0789 72.4254 43.1479 73.5793C41.6569 75.6266 41.4059 75.9874 42.3858 75.286C41.5972 75.6596 40.6291 75.8987 39.8641 76.2531C38.3627 78.223 38.7366 77.5199 38.1045 75.5135C37.6318 73.385 36.2331 71.7031 36.2308 70.8696C36.2414 68.749 36.1779 68.2036 36.9984 69.1507Z" fill="white"/>
<path d="M36.9983 69.1507C37.5519 68.8671 38.153 68.7791 39.52 68.1836M36.9983 69.1507C37.8102 68.8088 38.7266 68.4675 39.52 68.1836M36.9983 69.1507C35.7681 70.1109 36.231 69.9131 36.2307 70.8697M36.9983 69.1507C36.506 69.7669 36.3556 69.2649 36.2307 70.8697M39.52 68.1836C39.8395 67.8372 40.6356 67.715 41.2741 68.9354M39.52 68.1836C40.3061 67.3122 41.1973 68.2017 41.2741 68.9354M41.2741 68.9354C41.88 70.1785 42.1185 71.3386 43.1478 73.5793M41.2741 68.9354C42.0452 70.6137 42.7311 72.3654 43.1478 73.5793M43.1478 73.5793C43.9678 74.0077 43.4271 74.2456 42.3857 75.286M43.1478 73.5793C42.8559 74.7699 42.9297 74.4872 42.3857 75.286M42.3857 75.286C41.4677 75.5974 40.4186 76.1015 39.864 76.2531M42.3857 75.286C41.4548 75.643 40.6032 75.99 39.864 76.2531M39.864 76.2531C38.9115 75.9876 38.6122 75.9701 38.1045 75.5136M39.864 76.2531C39.7963 77.0423 39.0091 76.8761 38.1045 75.5136M38.1045 75.5136C37.442 74.0785 36.9537 72.4545 36.2307 70.8697M38.1045 75.5136C37.7676 74.5234 37.2057 73.467 36.2307 70.8697" stroke="#1E1E1E" stroke-linecap="round"/>
<path d="M40.8525 67.9259C41.6781 67.746 42.1637 68.1058 43.5623 67.9259C46.6023 66.0983 45.8447 69.4031 44.9123 69.2516C45.2425 71.3822 44.3393 72.689 44.9123 74.2419C42.8435 75.4256 46.408 76.3346 43.5623 75.5581C43.0766 75.5203 41.9403 75.7475 40.8525 75.5581C39.7744 76.7702 41.2021 75.2835 39.4927 74.2419C39.1431 72.2912 39.6676 70.9182 39.4927 69.2516C39.9881 67.1873 39.551 66.3635 40.8525 67.9259Z" fill="white"/>
<path d="M40.8524 67.9259C41.5226 67.9922 42.319 67.9449 43.5622 67.9259M40.8524 67.9259C41.8042 67.9165 42.6978 67.9165 43.5622 67.9259M40.8524 67.9259C40.5707 67.443 38.9002 68.8161 39.4926 69.2516M40.8524 67.9259C39.852 67.8407 39.716 68.7687 39.4926 69.2516M43.5622 67.9259C44.3295 67.443 45.0579 67.907 44.9122 69.2516M43.5622 67.9259C44.6597 68.0964 44.6985 68.7119 44.9122 69.2516M44.9122 69.2516C44.7957 70.0944 45.0288 71.3633 44.9122 74.2419M44.9122 69.2516C44.9802 70.5868 45.0093 71.7421 44.9122 74.2419M44.9122 74.2419C45.3784 74.5166 43.8341 75.6718 43.5622 75.5582M44.9122 74.2419C44.8151 74.5734 45.0676 75.3688 43.5622 75.5582M43.5622 75.5582C42.756 75.615 42.1344 75.5582 40.8524 75.5582M43.5622 75.5582C42.6298 75.5676 41.6294 75.5203 40.8524 75.5582M40.8524 75.5582C40.2405 75.293 39.9686 75.7381 39.4926 74.2419M40.8524 75.5582C40.2794 76.2684 39.6383 75.1226 39.4926 74.2419M39.4926 74.2419C39.5703 72.4617 39.3664 70.9656 39.4926 69.2516M39.4926 74.2419C39.4247 72.5375 39.5218 70.8425 39.4926 69.2516" stroke="#1E1E1E" stroke-linecap="round"/>
<path d="M45.0039 67.932C45.6017 68.4072 47.2432 68.5738 47.5101 68.9368C48.8052 70.572 49.3669 69.7631 48.2416 70.6635C47.1454 71.8929 46.6352 73.1525 46.2949 75.2788C47.4577 77.5265 44.1996 77.2339 44.5329 75.9955C43.4836 75.7694 42.8136 75.4905 42.0267 74.9908C42.7058 75.4473 40.4991 75.351 41.2826 73.2693C42.113 71.923 42.5471 70.6944 43.2292 68.6539C43.8177 66.238 44.6927 68.9438 45.0039 67.932Z" fill="white"/>
<path d="M45.0041 67.9319C45.588 68.166 46.1871 68.3141 47.5103 68.9367M45.0041 67.9319C45.6006 68.1609 46.2548 68.4027 47.5103 68.9367M45.0041 67.9319C44.2027 67.9895 44.3489 67.6181 43.2294 68.6538M45.0041 67.9319C43.851 68.1761 43.52 67.7158 43.2294 68.6538M47.5103 68.9367C48.6487 68.9017 48.6915 70.0451 48.2417 70.6634M47.5103 68.9367C48.0061 69.5041 47.7875 69.8977 48.2417 70.6634M48.2417 70.6634C47.6888 72.2232 46.8828 73.6611 46.2951 75.2787M48.2417 70.6634C47.7073 72.1794 47.0762 73.626 46.2951 75.2787M46.2951 75.2787C45.336 75.959 45.4723 75.8601 44.5331 75.9954M46.2951 75.2787C46.5861 76.1325 44.9782 76.7575 44.5331 75.9954M44.5331 75.9954C43.9545 75.7737 43.3315 75.483 42.0269 74.9907M44.5331 75.9954C43.8472 75.6795 43.1444 75.4285 42.0269 74.9907M42.0269 74.9907C41.3789 75.4066 40.9686 74.7609 41.2828 73.2692M42.0269 74.9907C41.3136 74.7149 41.3686 73.8872 41.2828 73.2692M41.2828 73.2692C41.7058 71.8927 42.5187 70.4883 43.2294 68.6538M41.2828 73.2692C42.0791 71.5305 42.6826 69.7759 43.2294 68.6538" stroke="#1E1E1E" stroke-linecap="round"/>
<path d="M48.4939 69.6485C49.4049 70.0552 49.5118 70.6721 50.541 71.3795C51.9788 72.119 50.1556 73.2723 50.6699 73.2434C48.8722 74.3681 48.2974 76.5895 47.3162 77.0132C45.3213 78.1717 45.3795 79.3491 45.4117 77.1452C44.6901 76.7857 44.4041 76.3557 43.3647 75.4141C41.8437 75.8954 42.6298 72.6994 43.222 73.5511C44.2637 72.5392 44.9022 71.4747 46.5758 69.7813C47.2243 70.5553 48.4632 70.5501 48.4939 69.6485Z" fill="white"/>
<path d="M48.494 69.6485C49.3373 70.2613 49.9643 70.9294 50.541 71.3795M48.494 69.6485C49.0487 70.0799 49.6063 70.5515 50.541 71.3795M48.494 69.6485C47.7965 68.9584 47.0853 69.4977 46.5758 69.7813M48.494 69.6485C48.1652 69.4833 46.6772 69.5662 46.5758 69.7813M50.541 71.3795C51.2536 72.1827 50.9251 72.682 50.6699 73.2434M50.541 71.3795C50.4376 71.7559 51.6915 72.2396 50.6699 73.2434M50.6699 73.2434C49.8358 74.0799 49.2821 74.8902 47.3162 77.0133M50.6699 73.2434C49.4622 74.7166 47.9712 76.1758 47.3162 77.0133M47.3162 77.0133C46.9902 77.2641 46.5985 77.9356 45.4118 77.1452M47.3162 77.0133C46.2149 77.9622 46.1589 77.1001 45.4118 77.1452M45.4118 77.1452C44.7191 76.5219 43.843 75.9314 43.3647 75.4141M45.4118 77.1452C44.7861 76.5911 44.1023 76.088 43.3647 75.4141M43.3647 75.4141C42.4751 75.4892 42.7256 74.2971 43.2221 73.5512M43.3647 75.4141C43.1472 74.7915 42.5156 74.5332 43.2221 73.5512M43.2221 73.5512C44.0635 72.7209 45.1659 71.5974 46.5758 69.7813M43.2221 73.5512C44.0852 72.4509 45.2599 71.3761 46.5758 69.7813" stroke="#1E1E1E" stroke-linecap="round"/>
</svg>
