<svg width="83" height="119" viewBox="0 0 83 119" fill="none" xmlns="http://www.w3.org/2000/svg">
<path d="M20.4031 1.17579C32.4116 4.49647 39.8244 4.49647 58.2162 1.17579C71.9656 -1.12241 74.6986 8.30493 77.1228 20.1243C75.7656 35.996 74.474 57.6273 77.1228 96.6217C75.5504 109.745 68.6335 118.356 58.2162 115.57C41.6589 118.319 26.1874 116.077 20.4031 115.57C10.2197 117.625 -1.80746 110.28 1.49651 96.6217C4.21082 78.6113 -0.515823 51.6707 1.49651 20.1243C3.16253 4.6747 10.9311 1.69172 20.4031 1.17579Z" fill="white"/>
<path d="M24.1469 3.0519C35.547 2.44218 47.4245 4.53401 61.9601 3.0519M24.1469 3.0519C35.4815 2.93934 46.1703 2.47032 61.9601 3.0519M24.1469 3.0519C12.1572 4.17756 6.41967 7.64832 5.24035 22.0004M24.1469 3.0519C10.9123 4.29012 6.41031 10.2936 5.24035 22.0004M61.9601 3.0519C73.8843 1.73864 80.7262 8.1361 80.8666 22.0004M61.9601 3.0519C74.5582 3.19261 82.0085 8.45504 80.8666 22.0004M80.8666 22.0004C81.2317 43.9412 83.0849 66.8764 80.8666 98.4979M80.8666 22.0004C80.9509 45.7704 81.1287 69.3622 80.8666 98.4979M80.8666 98.4979C79.5001 112.662 74.9513 116.321 61.9601 117.446M80.8666 98.4979C79.5469 112.634 72.9296 118.403 61.9601 117.446M61.9601 117.446C52.9841 116.949 42.6978 118.516 24.1469 117.446M61.9601 117.446C54.1822 117.625 46.3107 117.306 24.1469 117.446M24.1469 117.446C10.098 118.178 3.96743 111.809 5.24035 98.4979M24.1469 117.446C10.0887 116.715 6.52262 113.263 5.24035 98.4979M5.24035 98.4979C5.60538 73.227 3.18122 49.9166 5.24035 22.0004M5.24035 98.4979C3.57432 73.1332 4.20142 48.4626 5.24035 22.0004" stroke="#1E1E1E" stroke-width="2" stroke-linecap="round"/>
<path d="M25.153 2.88885C33.3989 2.88885 41.6447 2.88885 59.2129 2.88885C61.5341 2.88885 62.704 4.05203 62.704 6.38776C62.704 8.1888 62.704 9.99923 62.704 13.3762C62.704 15.7025 61.5341 16.8657 59.2129 16.8657C48.5709 16.8657 37.9289 16.8657 25.153 16.8657C22.8224 16.8657 21.6618 15.7025 21.6618 13.3762C21.6618 11.9597 21.6618 10.5433 21.6618 6.38776C21.6618 4.05203 22.8224 2.88885 25.153 2.88885Z" fill="white"/>
<path d="M25.153 2.88885C38.7058 2.88885 52.2586 2.88885 59.2129 2.88885M25.153 2.88885C34.026 2.88885 42.8989 2.88885 59.2129 2.88885M25.153 2.88885C22.8224 2.88885 21.6618 4.05203 21.6618 6.38776M59.2129 2.88885C61.5341 2.88885 62.704 4.05203 62.704 6.38776M62.704 6.38776C62.704 8.75163 62.704 11.1249 62.704 13.3762M62.704 6.38776C62.704 9.12685 62.704 11.8753 62.704 13.3762M62.704 13.3762C62.704 15.7025 61.5341 16.8657 59.2129 16.8657M59.2129 16.8657C49.5724 16.8657 39.9226 16.8657 25.153 16.8657M59.2129 16.8657C46.1374 16.8657 33.0525 16.8657 25.153 16.8657M25.153 16.8657C22.8224 16.8657 21.6618 15.7025 21.6618 13.3762M21.6618 13.3762C21.6618 10.7028 21.6618 8.01995 21.6618 6.38776M21.6618 13.3762C21.6618 11.8847 21.6618 10.4026 21.6618 6.38776" stroke="#1E1E1E" stroke-width="2" stroke-linecap="round"/>
<path d="M24.3338 8.38416C24.2957 8.39001 24.2635 8.39441 24.2371 8.39734C24.2108 8.40027 24.1888 8.40173 24.1712 8.40173C24.0716 8.39587 24.0013 8.36804 23.9603 8.31824C23.9193 8.2655 23.8987 8.17908 23.8987 8.05896C23.8987 7.82166 24.013 7.67224 24.2415 7.61072C24.4437 7.56384 24.6605 7.53015 24.8919 7.50964C25.1234 7.48621 25.3812 7.47449 25.6653 7.47449C26.0462 7.47449 26.4241 7.51111 26.7991 7.58435C27.1771 7.65759 27.5359 7.75867 27.8758 7.88757C28.2186 8.01355 28.5364 8.16443 28.8294 8.34021C29.1224 8.51306 29.3758 8.70203 29.5897 8.9071C29.8065 9.10925 29.9749 9.32312 30.095 9.54871C30.2181 9.77136 30.2796 9.99548 30.2796 10.2211C30.2796 10.4496 30.202 10.6678 30.0467 10.8759C29.8943 11.0809 29.6878 11.2626 29.4271 11.4208C29.1663 11.579 28.8646 11.705 28.5218 11.7987C28.179 11.8925 27.8201 11.9393 27.4451 11.9393C27.1463 11.9393 26.8343 11.9115 26.5091 11.8558C26.1839 11.8002 25.825 11.7108 25.4324 11.5878C25.2508 11.538 25.16 11.4266 25.16 11.2538C25.16 11.2157 25.1688 11.1805 25.1863 11.1483C25.2039 11.1161 25.2215 11.0853 25.2391 11.056C25.2596 11.0267 25.2786 10.9989 25.2962 10.9725C25.3138 10.9432 25.3226 10.9139 25.3226 10.8846C25.3226 10.7177 25.3138 10.5389 25.2962 10.3485C25.2816 10.1581 25.2596 9.96765 25.2303 9.77722C25.2039 9.58679 25.1717 9.40515 25.1336 9.2323C25.0984 9.05652 25.0618 8.90125 25.0237 8.76648C24.9857 8.63171 24.9461 8.52478 24.9051 8.44568C24.867 8.36365 24.8318 8.32263 24.7996 8.32263C24.7498 8.32263 24.6883 8.32849 24.6151 8.34021C24.5447 8.35193 24.451 8.36658 24.3338 8.38416ZM26.0257 8.31384C25.9407 8.31384 25.8983 8.34314 25.8983 8.40173C25.8983 8.41638 25.9026 8.44128 25.9114 8.47644C25.9202 8.5116 25.9334 8.56726 25.951 8.64343C25.9774 8.76648 26.0023 8.89832 26.0257 9.03894C26.0491 9.17957 26.0726 9.33777 26.096 9.51355C26.1194 9.6864 26.1414 9.88123 26.1619 10.098C26.1854 10.3119 26.2088 10.5536 26.2322 10.8231C26.2352 10.8671 26.2747 10.9095 26.3509 10.9506C26.4271 10.9886 26.5281 11.0238 26.6541 11.056C26.7801 11.0853 26.9236 11.1102 27.0848 11.1307C27.2488 11.1483 27.4173 11.1571 27.5901 11.1571C27.8187 11.1571 28.0369 11.1307 28.2449 11.078C28.4559 11.0223 28.6404 10.9491 28.7986 10.8583C28.9598 10.7675 29.0872 10.662 29.181 10.5419C29.2776 10.4218 29.326 10.2972 29.326 10.1683C29.326 9.95447 29.241 9.74646 29.0711 9.54431C28.9041 9.34216 28.6727 9.15906 28.3768 8.995C28.0809 8.828 27.7322 8.68591 27.3309 8.56873C26.9295 8.44861 26.4944 8.36365 26.0257 8.31384ZM34.3709 10.7792C34.4559 10.7059 34.5394 10.6693 34.6214 10.6693C34.6683 10.6693 34.7108 10.681 34.7488 10.7045C34.7869 10.7279 34.8294 10.7645 34.8763 10.8143C34.9202 10.8817 34.951 10.9374 34.9686 10.9813C34.9891 11.0223 34.9993 11.0634 34.9993 11.1044C34.9993 11.1923 34.9554 11.2758 34.8675 11.3549C34.7269 11.472 34.5745 11.5775 34.4105 11.6713C34.2464 11.7621 34.075 11.8397 33.8963 11.9042C33.7176 11.9686 33.533 12.017 33.3426 12.0492C33.1522 12.0844 32.9632 12.1019 32.7757 12.1019C32.5384 12.1019 32.3157 12.0712 32.1077 12.0096C31.8997 11.951 31.7137 11.8661 31.5496 11.7548C31.3885 11.6434 31.2523 11.5101 31.1409 11.3549C31.0296 11.1967 30.9505 11.0194 30.9036 10.8231C30.8773 10.7411 30.8524 10.6884 30.8289 10.6649C30.8084 10.6385 30.7733 10.6254 30.7234 10.6254C30.6151 10.6254 30.5316 10.599 30.473 10.5463C30.4144 10.4935 30.3851 10.4174 30.3851 10.3177C30.3851 10.2767 30.388 10.2504 30.3939 10.2386L30.4026 10.1508C30.4173 10.0453 30.4451 9.96912 30.4861 9.92224C30.5301 9.87537 30.5975 9.85193 30.6883 9.85193H30.7542C30.8773 9.85193 30.9637 9.7948 31.0135 9.68054C31.1043 9.47839 31.22 9.29382 31.3607 9.12683C31.5013 8.95984 31.6595 8.81775 31.8353 8.70056C32.011 8.58044 32.1985 8.48816 32.3978 8.42371C32.5999 8.35632 32.805 8.32263 33.013 8.32263C33.2298 8.32263 33.4319 8.35486 33.6194 8.41931C33.8099 8.48083 33.9754 8.56726 34.116 8.67859C34.2567 8.78992 34.3665 8.92029 34.4456 9.0697C34.5276 9.21912 34.5687 9.38025 34.5687 9.5531C34.5687 9.67322 34.5452 9.78308 34.4984 9.88269C34.4515 9.9823 34.3841 10.0702 34.2962 10.1464C34.2083 10.2196 34.1014 10.2797 33.9754 10.3265C33.8524 10.3734 33.7117 10.4042 33.5535 10.4188L32.0286 10.5726C31.97 10.5726 31.9217 10.5873 31.8836 10.6166C31.8484 10.6459 31.8309 10.6854 31.8309 10.7352C31.8309 10.8114 31.8587 10.8846 31.9144 10.955C31.973 11.0253 32.0491 11.0883 32.1429 11.1439C32.2396 11.1967 32.3494 11.2391 32.4725 11.2714C32.5984 11.3036 32.7274 11.3197 32.8592 11.3197C32.9852 11.3197 33.1141 11.308 33.2459 11.2845C33.3807 11.2582 33.5125 11.2216 33.6414 11.1747C33.7733 11.1278 33.9007 11.0721 34.0237 11.0077C34.1468 10.9403 34.2625 10.8641 34.3709 10.7792ZM33.3909 9.64539C33.4349 9.6366 33.473 9.61609 33.5052 9.58386C33.5374 9.54871 33.5535 9.50623 33.5535 9.45642C33.5535 9.41248 33.5374 9.37146 33.5052 9.33337C33.473 9.29529 33.429 9.2616 33.3734 9.2323C33.3177 9.20007 33.2532 9.17517 33.18 9.15759C33.1068 9.14001 33.0291 9.13123 32.9471 9.13123C32.827 9.13123 32.7039 9.1488 32.5779 9.18396C32.452 9.21912 32.3377 9.26599 32.2352 9.32458C32.1326 9.38025 32.0491 9.44324 31.9847 9.51355C31.9202 9.58093 31.888 9.64832 31.888 9.7157C31.888 9.78308 31.929 9.81677 32.011 9.81677C32.0609 9.81677 32.1414 9.81091 32.2527 9.79919C32.3641 9.78748 32.4871 9.77429 32.6219 9.75964C32.7567 9.74207 32.8929 9.72302 33.0306 9.70251C33.1683 9.68201 33.2884 9.66296 33.3909 9.64539ZM37.6624 8.45447C37.554 8.45447 37.4588 8.48376 37.3768 8.54236C37.2947 8.59802 37.2244 8.67712 37.1658 8.77966C37.1072 8.87927 37.0589 8.99792 37.0208 9.13562C36.9827 9.27039 36.952 9.41833 36.9285 9.57947C36.9051 9.7406 36.889 9.90906 36.8802 10.0848C36.8714 10.2606 36.867 10.4379 36.867 10.6166C36.867 10.851 36.8758 11.0824 36.8934 11.3109C36.9139 11.5365 36.9241 11.746 36.9241 11.9393C36.9241 12.0653 36.8773 12.1635 36.7835 12.2338C36.6898 12.307 36.5565 12.3436 36.3836 12.3436C36.3514 12.3436 36.3148 12.3407 36.2737 12.3348C36.2327 12.329 36.1932 12.3173 36.1551 12.2997C36.1199 12.2821 36.0877 12.2572 36.0584 12.225C36.032 12.1957 36.0174 12.1547 36.0145 12.1019C35.9881 11.8441 35.95 11.5804 35.9002 11.3109C35.8504 11.0414 35.7874 10.7733 35.7112 10.5067C35.638 10.2372 35.5486 9.97058 35.4432 9.70691C35.3406 9.44324 35.222 9.18542 35.0872 8.93347C35.0638 8.88953 35.0433 8.84851 35.0257 8.81042C35.011 8.77234 35.0037 8.73572 35.0037 8.70056C35.0037 8.65662 35.0228 8.60974 35.0609 8.55994C35.1019 8.5072 35.1517 8.45886 35.2103 8.41492C35.2718 8.37097 35.3377 8.33582 35.408 8.30945C35.4813 8.28015 35.5516 8.2655 35.619 8.2655C35.7303 8.2655 35.8284 8.34314 35.9134 8.49841C35.9984 8.65076 36.0775 8.89539 36.1507 9.2323C36.1653 9.29089 36.1771 9.33191 36.1859 9.35535C36.1946 9.37878 36.2064 9.3905 36.221 9.3905C36.2532 9.3905 36.2737 9.3407 36.2825 9.24109C36.3177 8.96277 36.3777 8.724 36.4627 8.52478C36.5477 8.32263 36.6531 8.1571 36.7791 8.0282C36.908 7.89636 37.0545 7.79968 37.2186 7.73816C37.3856 7.67664 37.5687 7.64587 37.7679 7.64587C37.8821 7.64587 37.9979 7.65613 38.1151 7.67664C38.2322 7.69714 38.3377 7.72791 38.4315 7.76892C38.5252 7.80994 38.6014 7.85974 38.66 7.91833C38.7186 7.97693 38.7479 8.04285 38.7479 8.11609C38.7479 8.16882 38.7361 8.23181 38.7127 8.30505C38.6922 8.37537 38.6644 8.44421 38.6292 8.5116C38.5941 8.57605 38.553 8.63171 38.5062 8.67859C38.4622 8.72253 38.4168 8.74451 38.3699 8.74451C38.3172 8.74451 38.2659 8.72986 38.2161 8.70056C38.1663 8.66833 38.1121 8.63464 38.0535 8.59949C37.9979 8.56433 37.9378 8.5321 37.8734 8.50281C37.8118 8.47058 37.7415 8.45447 37.6624 8.45447ZM39.1302 7.25916C39.0452 7.25916 38.9647 7.24744 38.8885 7.224C38.8152 7.19763 38.7508 7.16248 38.6951 7.11853C38.6424 7.07166 38.5999 7.01746 38.5677 6.95593C38.5355 6.89441 38.5193 6.82703 38.5193 6.75378C38.5193 6.63074 38.5677 6.53113 38.6644 6.45496C38.764 6.37878 38.8958 6.3407 39.0599 6.3407C39.136 6.3407 39.2093 6.35535 39.2796 6.38464C39.3499 6.41101 39.4114 6.44763 39.4642 6.49451C39.5198 6.54138 39.5638 6.59705 39.596 6.6615C39.6282 6.72302 39.6443 6.78748 39.6443 6.85486C39.6443 6.98083 39.5975 7.08044 39.5037 7.15369C39.4129 7.224 39.2884 7.25916 39.1302 7.25916ZM38.5281 8.59949C38.5281 8.49695 38.5721 8.41345 38.66 8.349C38.7508 8.28162 38.8694 8.24792 39.0159 8.24792C39.2796 8.24792 39.4202 8.33875 39.4378 8.52039C39.4495 8.64636 39.4612 8.78845 39.473 8.94666C39.4876 9.10486 39.5008 9.27332 39.5125 9.45203C39.5272 9.62781 39.5389 9.81091 39.5477 10.0013C39.5594 10.1888 39.5696 10.3749 39.5784 10.5594C39.5872 10.7411 39.5945 10.9169 39.6004 11.0868C39.6063 11.2567 39.6092 11.412 39.6092 11.5526C39.6092 11.6991 39.5565 11.809 39.451 11.8822C39.3484 11.9554 39.1976 11.9921 38.9984 11.9921C38.9075 11.9921 38.8358 11.9701 38.783 11.9261C38.7332 11.8851 38.7083 11.8236 38.7083 11.7416C38.7083 11.3373 38.6981 10.9594 38.6776 10.6078C38.66 10.2533 38.6395 9.93835 38.616 9.66296C38.5955 9.38757 38.575 9.15906 38.5545 8.97742C38.5369 8.79285 38.5281 8.66687 38.5281 8.59949ZM42.7733 8.349C42.782 8.26697 42.7923 8.19958 42.804 8.14685C42.8187 8.09119 42.8392 8.04724 42.8655 8.01501C42.8948 7.97986 42.9315 7.95496 42.9754 7.94031C43.0193 7.92566 43.075 7.91833 43.1424 7.91833C43.3563 7.91833 43.513 7.95056 43.6126 8.01501C43.7151 8.07654 43.7664 8.17615 43.7664 8.31384C43.7664 8.34021 43.7606 8.3988 43.7488 8.48962C43.7401 8.57751 43.7269 8.68738 43.7093 8.81921C43.6917 8.94812 43.6712 9.09167 43.6478 9.24988C43.6273 9.40515 43.6068 9.56335 43.5862 9.72449C43.5335 10.0995 43.4734 10.5199 43.4061 10.9857C43.3651 11.2611 43.283 11.4589 43.16 11.579C43.0399 11.6991 42.8611 11.7592 42.6238 11.7592C42.4451 11.7592 42.2606 11.7137 42.0701 11.6229C41.8797 11.5321 41.6951 11.4091 41.5164 11.2538C41.3377 11.0985 41.1678 10.9183 41.0067 10.7133C40.8484 10.5052 40.7093 10.2855 40.5892 10.0541C40.4691 9.8197 40.3738 9.58093 40.3035 9.33777C40.2361 9.0946 40.2025 8.8573 40.2025 8.62585C40.2025 8.36511 40.2391 8.17029 40.3123 8.04138C40.3885 7.90955 40.5189 7.84363 40.7034 7.84363C40.8323 7.84363 40.9393 7.85242 41.0242 7.87C41.1092 7.88464 41.1766 7.91248 41.2264 7.95349C41.2791 7.99158 41.3157 8.04285 41.3362 8.1073C41.3597 8.17175 41.3714 8.25232 41.3714 8.349C41.3714 8.41345 41.3685 8.47791 41.3626 8.54236C41.3568 8.60681 41.3538 8.67126 41.3538 8.73572C41.3538 8.88513 41.3685 9.04187 41.3978 9.20593C41.43 9.36707 41.4725 9.52527 41.5252 9.68054C41.5779 9.83582 41.6395 9.98376 41.7098 10.1244C41.7801 10.2621 41.8548 10.3837 41.9339 10.4891C42.013 10.5946 42.0921 10.6781 42.1712 10.7396C42.2532 10.8011 42.3323 10.8319 42.4085 10.8319C42.4612 10.8319 42.5008 10.8143 42.5272 10.7792C42.5565 10.744 42.5755 10.684 42.5843 10.599L42.7733 8.349ZM47.1546 7.90076C47.3157 7.90076 47.471 7.92566 47.6204 7.97546C47.7698 8.02527 47.9017 8.09412 48.0159 8.18201C48.1302 8.2699 48.221 8.37537 48.2884 8.49841C48.3587 8.62146 48.3939 8.75769 48.3939 8.9071C48.3939 8.96863 48.3792 9.02869 48.3499 9.08728C48.3235 9.14294 48.2869 9.19275 48.2401 9.23669C48.1932 9.27771 48.139 9.3114 48.0775 9.33777C48.0189 9.36121 47.9573 9.37292 47.8929 9.37292C47.887 9.37292 47.8812 9.37439 47.8753 9.37732C47.8724 9.37732 47.868 9.37732 47.8621 9.37732C47.8563 9.38025 47.8504 9.38171 47.8445 9.38171L47.8621 9.73328C47.8738 10.1522 47.9324 10.4584 48.0379 10.6517C48.1463 10.8451 48.2869 10.9418 48.4598 10.9418C48.5213 10.9418 48.5755 10.9359 48.6224 10.9242C48.6722 10.9125 48.7176 10.8993 48.7586 10.8846C48.8026 10.8671 48.8436 10.8524 48.8817 10.8407C48.9197 10.829 48.9578 10.8231 48.9959 10.8231C49.0633 10.8231 49.1219 10.8524 49.1717 10.911C49.2244 10.9696 49.2508 11.0399 49.2508 11.1219C49.2508 11.204 49.2186 11.286 49.1541 11.368C49.0926 11.4501 49.0106 11.5248 48.908 11.5922C48.8055 11.6566 48.6898 11.7094 48.5609 11.7504C48.4319 11.7914 48.3016 11.8119 48.1697 11.8119C47.9412 11.8119 47.7405 11.7181 47.5677 11.5306C47.3948 11.3402 47.2718 11.0619 47.1985 10.6957C47.181 10.6371 47.1575 10.6078 47.1282 10.6078C47.0931 10.6078 47.0623 10.6254 47.0359 10.6605C46.7459 11.0267 46.4368 11.3021 46.1087 11.4867C45.7806 11.6683 45.4568 11.7592 45.1375 11.7592C44.9881 11.7592 44.8533 11.7372 44.7332 11.6932C44.6131 11.6493 44.5106 11.5878 44.4256 11.5087C44.3436 11.4266 44.2791 11.3285 44.2322 11.2142C44.1883 11.097 44.1663 10.9667 44.1663 10.8231C44.1663 10.621 44.2103 10.4086 44.2982 10.1859C44.389 9.96326 44.5106 9.74353 44.6629 9.52673C44.8152 9.30994 44.991 9.10339 45.1902 8.9071C45.3924 8.71082 45.6033 8.53796 45.8231 8.38855C46.0457 8.23914 46.2713 8.12048 46.4998 8.03259C46.7283 7.9447 46.9466 7.90076 47.1546 7.90076ZM47.0096 9.42126C47.0623 9.32166 47.1107 9.24988 47.1546 9.20593C47.1985 9.15906 47.2615 9.1283 47.3436 9.11365C47.408 9.10486 47.4402 9.08435 47.4402 9.05212C47.4402 9.02869 47.4315 9.00378 47.4139 8.97742C47.3582 8.90125 47.2996 8.83533 47.2381 8.77966C47.1766 8.72107 47.0945 8.69177 46.992 8.69177C46.8807 8.69177 46.7562 8.724 46.6185 8.78845C46.4808 8.85291 46.3401 8.93933 46.1966 9.04773C46.056 9.1532 45.9168 9.27478 45.7791 9.41248C45.6443 9.54724 45.5242 9.6864 45.4188 9.82996C45.3133 9.97351 45.2283 10.1156 45.1639 10.2562C45.0994 10.3969 45.0672 10.5228 45.0672 10.6342C45.0672 10.7338 45.0936 10.8114 45.1463 10.8671C45.202 10.9227 45.2767 10.9506 45.3704 10.9506C45.6107 10.9506 45.8729 10.8231 46.157 10.5682C46.4412 10.3134 46.7254 9.93103 47.0096 9.42126ZM52.3358 8.52917C52.3475 8.53503 52.3651 8.53796 52.3885 8.53796C52.4529 8.53796 52.4852 8.49548 52.4852 8.41052V7.04382C52.4852 6.87097 52.5233 6.74792 52.5994 6.67468C52.6785 6.60144 52.8089 6.56482 52.9905 6.56482C53.1751 6.56482 53.3055 6.60291 53.3817 6.67908C53.4578 6.75525 53.4959 6.88562 53.4959 7.07019C53.4959 7.1405 53.4915 7.24451 53.4827 7.3822C53.4739 7.51697 53.4637 7.67078 53.452 7.84363C53.4432 8.01648 53.4344 8.20251 53.4256 8.40173C53.4168 8.59802 53.4124 8.79285 53.4124 8.98621C53.4124 9.28503 53.4329 9.54285 53.4739 9.75964C53.515 9.97644 53.5735 10.1566 53.6497 10.3002C53.7259 10.4408 53.8167 10.5463 53.9222 10.6166C54.0276 10.684 54.1463 10.7177 54.2781 10.7177C54.3514 10.7177 54.4173 10.7089 54.4759 10.6913C54.5374 10.6708 54.6092 10.6605 54.6912 10.6605C54.7498 10.6605 54.7982 10.6913 54.8362 10.7528C54.8773 10.8114 54.8978 10.8832 54.8978 10.9681C54.8978 11.0443 54.8743 11.1161 54.8275 11.1835C54.7835 11.2509 54.722 11.3094 54.6429 11.3593C54.5667 11.4091 54.4774 11.4486 54.3748 11.4779C54.2723 11.5043 54.1653 11.5175 54.054 11.5175C53.8138 11.5175 53.5941 11.4442 53.3948 11.2977C53.1956 11.1483 53.0462 10.9213 52.9466 10.6166C52.9378 10.5697 52.9232 10.5463 52.9026 10.5463C52.8792 10.5463 52.8602 10.5697 52.8455 10.6166C52.7664 10.8304 52.6624 11.0238 52.5335 11.1967C52.4075 11.3666 52.2596 11.5131 52.0897 11.6361C51.9227 11.7562 51.7381 11.8485 51.5359 11.913C51.3367 11.9774 51.1258 12.0096 50.9031 12.0096C50.6688 12.0096 50.4534 11.9701 50.2571 11.891C50.0638 11.8148 49.8968 11.7079 49.7562 11.5702C49.6155 11.4296 49.5057 11.2655 49.4266 11.078C49.3475 10.8876 49.3079 10.6825 49.3079 10.4628C49.3079 10.1815 49.3665 9.91638 49.4837 9.66736C49.6009 9.41833 49.7591 9.20154 49.9583 9.01697C50.1605 8.82947 50.3948 8.68152 50.6614 8.57312C50.928 8.46472 51.2122 8.41052 51.514 8.41052C51.637 8.41052 51.7674 8.42078 51.9051 8.44128C52.0428 8.45886 52.1863 8.48816 52.3358 8.52917ZM51.0745 11.2186C51.2415 11.2186 51.3895 11.182 51.5184 11.1088C51.6502 11.0355 51.7659 10.9432 51.8655 10.8319C51.9681 10.7177 52.0545 10.5931 52.1248 10.4584C52.1951 10.3207 52.2523 10.1874 52.2962 10.0585C52.3401 9.92957 52.3724 9.81384 52.3929 9.7113C52.4134 9.60876 52.4236 9.53552 52.4236 9.49158C52.4236 9.45935 52.4149 9.43152 52.3973 9.40808C52.3797 9.38171 52.3533 9.36121 52.3182 9.34656C52.2391 9.32605 52.157 9.30847 52.0721 9.29382C51.9871 9.27625 51.9036 9.2616 51.8216 9.24988C51.7396 9.23816 51.6605 9.22937 51.5843 9.22351C51.511 9.21765 51.4437 9.21472 51.3821 9.21472C51.2064 9.21472 51.0467 9.24109 50.9031 9.29382C50.7596 9.34656 50.6365 9.42126 50.534 9.51794C50.4344 9.61462 50.3568 9.73035 50.3011 9.86511C50.2454 9.99695 50.2176 10.142 50.2176 10.3002C50.2176 10.4408 50.2381 10.5682 50.2791 10.6825C50.3231 10.7938 50.3817 10.889 50.4549 10.9681C50.5311 11.0472 50.6219 11.1088 50.7274 11.1527C50.8328 11.1967 50.9485 11.2186 51.0745 11.2186ZM57.429 7.90076C57.5901 7.90076 57.7454 7.92566 57.8948 7.97546C58.0443 8.02527 58.1761 8.09412 58.2903 8.18201C58.4046 8.2699 58.4954 8.37537 58.5628 8.49841C58.6331 8.62146 58.6683 8.75769 58.6683 8.9071C58.6683 8.96863 58.6536 9.02869 58.6243 9.08728C58.598 9.14294 58.5613 9.19275 58.5145 9.23669C58.4676 9.27771 58.4134 9.3114 58.3519 9.33777C58.2933 9.36121 58.2318 9.37292 58.1673 9.37292C58.1614 9.37292 58.1556 9.37439 58.1497 9.37732C58.1468 9.37732 58.1424 9.37732 58.1365 9.37732C58.1307 9.38025 58.1248 9.38171 58.119 9.38171L58.1365 9.73328C58.1483 10.1522 58.2068 10.4584 58.3123 10.6517C58.4207 10.8451 58.5613 10.9418 58.7342 10.9418C58.7957 10.9418 58.8499 10.9359 58.8968 10.9242C58.9466 10.9125 58.992 10.8993 59.033 10.8846C59.077 10.8671 59.118 10.8524 59.1561 10.8407C59.1942 10.829 59.2322 10.8231 59.2703 10.8231C59.3377 10.8231 59.3963 10.8524 59.4461 10.911C59.4988 10.9696 59.5252 11.0399 59.5252 11.1219C59.5252 11.204 59.493 11.286 59.4285 11.368C59.367 11.4501 59.285 11.5248 59.1824 11.5922C59.0799 11.6566 58.9642 11.7094 58.8353 11.7504C58.7064 11.7914 58.576 11.8119 58.4442 11.8119C58.2156 11.8119 58.015 11.7181 57.8421 11.5306C57.6693 11.3402 57.5462 11.0619 57.473 10.6957C57.4554 10.6371 57.4319 10.6078 57.4026 10.6078C57.3675 10.6078 57.3367 10.6254 57.3104 10.6605C57.0203 11.0267 56.7112 11.3021 56.3831 11.4867C56.055 11.6683 55.7313 11.7592 55.4119 11.7592C55.2625 11.7592 55.1277 11.7372 55.0076 11.6932C54.8875 11.6493 54.785 11.5878 54.7 11.5087C54.618 11.4266 54.5535 11.3285 54.5067 11.2142C54.4627 11.097 54.4407 10.9667 54.4407 10.8231C54.4407 10.621 54.4847 10.4086 54.5726 10.1859C54.6634 9.96326 54.785 9.74353 54.9373 9.52673C55.0897 9.30994 55.2654 9.10339 55.4647 8.9071C55.6668 8.71082 55.8777 8.53796 56.0975 8.38855C56.3201 8.23914 56.5457 8.12048 56.7742 8.03259C57.0027 7.9447 57.221 7.90076 57.429 7.90076ZM57.284 9.42126C57.3367 9.32166 57.3851 9.24988 57.429 9.20593C57.473 9.15906 57.5359 9.1283 57.618 9.11365C57.6824 9.10486 57.7147 9.08435 57.7147 9.05212C57.7147 9.02869 57.7059 9.00378 57.6883 8.97742C57.6326 8.90125 57.574 8.83533 57.5125 8.77966C57.451 8.72107 57.369 8.69177 57.2664 8.69177C57.1551 8.69177 57.0306 8.724 56.8929 8.78845C56.7552 8.85291 56.6146 8.93933 56.471 9.04773C56.3304 9.1532 56.1912 9.27478 56.0535 9.41248C55.9188 9.54724 55.7986 9.6864 55.6932 9.82996C55.5877 9.97351 55.5027 10.1156 55.4383 10.2562C55.3738 10.3969 55.3416 10.5228 55.3416 10.6342C55.3416 10.7338 55.368 10.8114 55.4207 10.8671C55.4764 10.9227 55.5511 10.9506 55.6448 10.9506C55.8851 10.9506 56.1473 10.8231 56.4315 10.5682C56.7156 10.3134 56.9998 9.93103 57.284 9.42126Z" fill="#1E1E1E"/>
<path d="M13.2548 85.7516C23.5411 85.7516 64.705 85.7516 74.9913 85.7516" stroke="#1E1E1E" stroke-width="2" stroke-linecap="round"/>
<path d="M25.5227 47.1818C24.7955 47.1818 24.1534 46.9981 23.5966 46.6307C23.0398 46.2595 22.6042 45.7367 22.2898 45.0625C21.9754 44.3845 21.8182 43.5833 21.8182 42.6591C21.8182 41.7424 21.9754 40.947 22.2898 40.2727C22.6042 39.5985 23.0417 39.0777 23.6023 38.7102C24.1629 38.3428 24.8106 38.1591 25.5455 38.1591C26.1136 38.1591 26.5625 38.2538 26.892 38.4432C27.2254 38.6288 27.4792 38.8409 27.6534 39.0795C27.8314 39.3144 27.9697 39.5076 28.0682 39.6591H28.1818V35.3636H29.5227V47H28.2273V45.6591H28.0682C27.9697 45.8182 27.8295 46.0189 27.6477 46.2614C27.4659 46.5 27.2064 46.714 26.8693 46.9034C26.5322 47.089 26.0833 47.1818 25.5227 47.1818ZM25.7045 45.9773C26.2424 45.9773 26.697 45.8371 27.0682 45.5568C27.4394 45.2727 27.7216 44.8807 27.9148 44.3807C28.108 43.8769 28.2045 43.2955 28.2045 42.6364C28.2045 41.9848 28.1098 41.4148 27.9205 40.9261C27.7311 40.4337 27.4508 40.0511 27.0795 39.7784C26.7083 39.5019 26.25 39.3636 25.7045 39.3636C25.1364 39.3636 24.6629 39.5095 24.2841 39.8011C23.9091 40.089 23.6269 40.4811 23.4375 40.9773C23.2519 41.4697 23.1591 42.0227 23.1591 42.6364C23.1591 43.2576 23.2538 43.822 23.4432 44.3295C23.6364 44.8333 23.9205 45.2348 24.2955 45.5341C24.6742 45.8295 25.1439 45.9773 25.7045 45.9773Z" fill="#1E1E1E"/>
<path d="M25.5227 46.9427C24.7955 46.9427 24.1534 46.759 23.5966 46.3915C23.0398 46.0203 22.6042 45.4976 22.2898 44.8234C21.9754 44.1453 21.8182 43.3442 21.8182 42.42C21.8182 41.5033 21.9754 40.7078 22.2898 40.0336C22.6042 39.3593 23.0417 38.8385 23.6023 38.4711C24.1629 38.1037 24.8106 37.92 25.5455 37.92C26.1136 37.92 26.5625 38.0147 26.892 38.204C27.2254 38.3897 27.4792 38.6018 27.6534 38.8404C27.8314 39.0753 27.9697 39.2684 28.0682 39.42H28.1818V35.1245H29.5227V46.7609H28.2273V45.42H28.0682C27.9697 45.579 27.8295 45.7798 27.6477 46.0222C27.4659 46.2609 27.2064 46.4749 26.8693 46.6643C26.5322 46.8499 26.0833 46.9427 25.5227 46.9427ZM25.7045 45.7381C26.2424 45.7381 26.697 45.598 27.0682 45.3177C27.4394 45.0336 27.7216 44.6415 27.9148 44.1415C28.108 43.6378 28.2045 43.0563 28.2045 42.3972C28.2045 41.7457 28.1098 41.1756 27.9205 40.687C27.7311 40.1946 27.4508 39.812 27.0795 39.5393C26.7083 39.2628 26.25 39.1245 25.7045 39.1245C25.1364 39.1245 24.6629 39.2703 24.2841 39.562C23.9091 39.8499 23.6269 40.2419 23.4375 40.7381C23.2519 41.2306 23.1591 41.7836 23.1591 42.3972C23.1591 43.0184 23.2538 43.5828 23.4432 44.0904C23.6364 44.5942 23.9205 44.9957 24.2955 45.295C24.6742 45.5904 25.1439 45.7381 25.7045 45.7381ZM23.2273 57.0336L25.3182 60.6018L27.4091 57.0336H28.9545L26.1364 61.3972L28.9545 65.7609H27.4091L25.3182 62.3745L23.2273 65.7609H21.6818L24.4545 61.3972L21.6818 57.0336H23.2273Z" fill="#1E1E1E"/>
<path d="M38.3174 53.4459C38.3174 50.6593 38.6786 48.0976 39.4011 45.7606C40.1309 43.4164 41.1703 41.2601 42.5194 39.2917H44.8195C44.2887 40.0216 43.7911 40.9209 43.3266 41.9899C42.8696 43.0514 42.4678 44.2199 42.1213 45.4953C41.7748 46.7632 41.5021 48.0754 41.303 49.4319C41.1114 50.7883 41.0155 52.1263 41.0155 53.4459C41.0155 55.2005 41.1851 56.9808 41.5242 58.7869C41.8633 60.5931 42.3204 62.2702 42.8954 63.8183C43.4704 65.3664 44.1118 66.627 44.8195 67.6001H42.5194C41.1703 65.6318 40.1309 63.4792 39.4011 61.1423C38.6786 58.798 38.3174 56.2325 38.3174 53.4459ZM63.0015 53.4459C63.0015 56.2325 62.6366 58.798 61.9068 61.1423C61.1843 63.4792 60.1486 65.6318 58.7995 67.6001H56.4994C57.0302 66.8703 57.5241 65.9709 57.9812 64.902C58.4456 63.8404 58.8511 62.6756 59.1976 61.4077C59.5441 60.1323 59.8131 58.8164 60.0048 57.46C60.2039 56.0961 60.3034 54.7581 60.3034 53.4459C60.3034 51.6914 60.1338 49.9111 59.7947 48.1049C59.4556 46.2988 58.9985 44.6217 58.4235 43.0736C57.8485 41.5254 57.2071 40.2648 56.4994 39.2917H58.7995C60.1486 41.2601 61.1843 43.4164 61.9068 45.7606C62.6366 48.0976 63.0015 50.6593 63.0015 53.4459Z" fill="#1E1E1E"/>
<path d="M16.0705 53.0116C19.0937 52.8897 31.0273 52.3362 34.0505 52.233M15.6774 52.824C18.607 53.0116 30.55 52.824 33.5919 52.8615" stroke="#1E1E1E" stroke-width="2" stroke-linecap="round"/>
<path d="M46.9359 43.5983C48.761 44.1517 49.594 43.6639 52.4113 43.5983C53.4128 44.8834 53.6374 46.1122 55.1537 46.3467C54.9946 48.6825 56.1832 54.3858 55.1537 58.3162C53.9556 59.0572 52.327 60.2392 52.4113 61.0646C51.4379 60.6519 49.5285 60.4831 46.9359 61.0646C46.1871 58.9634 42.6398 61.8901 44.1935 58.3162C44.0344 55.2206 45.092 52.4722 44.1935 46.3467C44.9516 43.8422 45.7753 44.5175 46.9359 43.5983Z" fill="white"/>
<path d="M46.9358 43.5982C47.9467 43.8515 49.2851 43.7952 52.4112 43.5982M46.9358 43.5982C48.7797 43.4951 51.0354 43.6827 52.4112 43.5982M46.9358 43.5982C45.5506 44.0016 43.3698 43.617 44.1934 46.3467M46.9358 43.5982C44.3245 43.9172 44.4555 45.4368 44.1934 46.3467M52.4112 43.5982C53.8714 43.9735 54.7044 44.949 55.1536 46.3467M52.4112 43.5982C54.5546 43.2981 56.1364 44.4425 55.1536 46.3467M55.1536 46.3467C54.7325 50.7837 55.3128 55.3238 55.1536 58.3161M55.1536 46.3467C54.9477 49.5454 55.4063 53.0162 55.1536 58.3161M55.1536 58.3161C54.826 60.1641 54.2457 61.0271 52.4112 61.0646M55.1536 58.3161C54.5733 59.3105 54.1709 61.5618 52.4112 61.0646M52.4112 61.0646C50.8669 60.8489 49.3974 61.271 46.9358 61.0646M52.4112 61.0646C50.6048 60.9145 48.4989 60.9614 46.9358 61.0646M46.9358 61.0646C45.7284 60.3423 44.9329 60.4643 44.1934 58.3161M46.9358 61.0646C44.3245 60.8395 44.5398 59.4418 44.1934 58.3161M44.1934 58.3161C44.521 55.7271 44.0062 51.7967 44.1934 46.3467M44.1934 58.3161C44.3806 54.9298 44.4742 51.9374 44.1934 46.3467" stroke="#1E1E1E" stroke-linecap="round"/>
<path d="M46.7976 43.2774C48.2858 43.8778 49.4745 43.5307 52.7317 43.2774C56.7657 41.0167 56.9903 43.3525 55.6987 46.251C54.5849 50.4253 55.2401 54.2056 55.6987 58.2486C54.0607 58.3893 56.8874 58.8208 52.7317 61.2222C51.075 62.0008 49.905 60.8751 46.7976 61.2222C43.4094 60.2373 43.2597 59.7682 43.8306 58.2486C45.1597 55.6033 45.0661 51.8887 43.8306 46.251C43.2129 43.8496 45.8523 43.0804 46.7976 43.2774Z" fill="white"/>
<path d="M46.7976 43.2774C48.9877 43.6057 51.5336 43.1836 52.7316 43.2774M46.7976 43.2774C48.2015 43.1461 49.54 43.4181 52.7316 43.2774M46.7976 43.2774C45.1503 43.0241 43.4655 44.7501 43.8306 46.251M46.7976 43.2774C45.4872 42.724 43.3532 43.9622 43.8306 46.251M52.7316 43.2774C54.0607 43.5025 56.307 44.844 55.6986 46.251M52.7316 43.2774C55.2119 42.2643 55.1277 44.4031 55.6986 46.251M55.6986 46.251C55.5208 48.8025 55.5957 51.7855 55.6986 58.2486M55.6986 46.251C55.9233 49.0276 55.4085 51.2883 55.6986 58.2486M55.6986 58.2486C55.1464 61.0815 54.9405 60.3311 52.7316 61.2222M55.6986 58.2486C54.6878 60.5562 54.0139 61.7663 52.7316 61.2222M52.7316 61.2222C50.7754 61.4379 48.8941 61.0252 46.7976 61.2222M52.7316 61.2222C50.4666 61.2785 47.9863 61.2879 46.7976 61.2222M46.7976 61.2222C44.5606 60.4718 43.3907 60.725 43.8306 58.2486M46.7976 61.2222C43.7557 60.3217 42.9695 60.725 43.8306 58.2486M43.8306 58.2486C43.4468 53.3239 43.6434 48.3991 43.8306 46.251M43.8306 58.2486C43.6153 55.3407 44.0552 52.2826 43.8306 46.251" stroke="#1E1E1E" stroke-width="0.5" stroke-linecap="round"/>
<path d="M47.2002 44.0235C48.3608 43.8922 49.1095 43.8265 52.3105 44.0235M47.2002 44.0235C48.3888 44.1548 49.6618 44.0798 52.3105 44.0235M47.2002 44.0235C45.0849 43.7608 44.9726 44.6238 44.645 46.5844M47.2002 44.0235C44.6356 44.9709 45.3095 44.3237 44.645 46.5844M52.3105 44.0235C54.6318 44.6051 55.3057 43.9954 54.8657 46.5844M52.3105 44.0235C53.4524 44.1642 54.2199 44.3612 54.8657 46.5844M54.8657 46.5844C54.7909 50.027 54.3416 53.5353 54.8657 57.9816M54.8657 46.5844C54.6786 50.6086 54.7534 54.886 54.8657 57.9816M54.8657 57.9816C55.0997 58.7977 53.1436 60.8239 52.3105 60.5424M54.8657 57.9816C54.1731 60.2235 54.0047 59.6982 52.3105 60.5424M52.3105 60.5424C50.2421 60.3736 48.9036 60.5518 47.2002 60.5424M52.3105 60.5424C50.5603 60.6081 49.0066 60.4486 47.2002 60.5424M47.2002 60.5424C45.0568 61.0302 43.7184 58.9009 44.645 57.9816M47.2002 60.5424C44.6356 61.0302 45.6745 59.6982 44.645 57.9816M44.645 57.9816C44.5046 53.8823 44.4016 50.8712 44.645 46.5844M44.645 57.9816C44.9351 54.2388 44.5701 50.5335 44.645 46.5844" stroke="#1E1E1E" stroke-width="0.5" stroke-linecap="round"/>
<path d="M49.0964 47.6213C49.8827 47.4713 51.3428 47.6964 52.0447 48.1654C52.7467 48.6344 53.1024 49.685 53.3083 50.4355C53.5048 51.1765 53.6359 52.0583 53.2615 52.6586C52.8965 53.2496 51.8014 53.7374 51.09 54C50.3787 54.2627 49.7142 54.3565 48.9935 54.2252C48.2728 54.0938 47.2432 53.7843 46.7752 53.2121C46.3072 52.6305 46.1013 51.5236 46.1669 50.7826C46.2324 50.0321 46.6816 49.2629 47.1871 48.7376C47.6831 48.2123 48.7595 47.7339 49.1807 47.6401C49.5925 47.5463 49.5831 48.1279 49.6767 48.1748M49.9294 47.3775C50.6314 47.2836 51.1556 48.1748 51.6704 48.747C52.1851 49.3192 52.8122 50.201 53.0181 50.8295C53.2241 51.4486 53.1773 51.9457 52.8871 52.4804C52.597 53.0057 51.9418 53.7937 51.2772 54.0188C50.6127 54.2533 49.7048 53.9719 48.8905 53.8406C48.0669 53.7092 46.8033 53.7749 46.3728 53.2402C45.9329 52.7149 46.0639 51.4204 46.2792 50.67C46.4944 49.9196 47.1403 49.1879 47.655 48.747C48.1698 48.3061 49.0496 48.2311 49.3866 48.0247C49.7235 47.8183 49.6487 47.4525 49.6861 47.5088" stroke="#1E1E1E" stroke-width="0.5" stroke-linecap="round"/>
<path d="M48.7337 49.9259C48.9303 49.9822 48.8741 50.3387 48.9771 50.4794C49.0707 50.6201 49.3515 50.7045 49.314 50.7702C49.2859 50.8358 48.8554 50.8077 48.7618 50.864C48.6682 50.9203 48.8647 51.0235 48.7618 51.1079C48.6495 51.1923 48.2751 51.4081 48.1253 51.3705C47.9756 51.333 47.9101 51.0235 47.8539 50.8828C47.7977 50.742 47.8165 50.6576 47.8071 50.5263C47.7977 50.395 47.6386 50.1136 47.779 50.0948C47.9194 50.076 48.4904 50.4513 48.6495 50.4137C48.8086 50.3856 48.7899 49.9635 48.7618 49.8978M48.1441 50.2918C48.2096 50.4137 48.5091 50.5638 48.6682 50.5826C48.8367 50.592 49.0332 50.3199 49.1268 50.3574C49.2298 50.4043 49.2859 50.742 49.2579 50.8265C49.2204 50.9109 49.1643 50.7233 48.9303 50.864C48.6963 51.0047 48.013 51.6519 47.8352 51.6801C47.6573 51.7082 47.8352 51.2111 47.8726 51.0516C47.9007 50.8921 48.0317 50.8077 48.013 50.7045C47.9849 50.6013 47.648 50.5826 47.7229 50.4325C47.7977 50.273 48.35 49.7759 48.4529 49.7759C48.5652 49.7665 48.4248 50.4043 48.3593 50.4043" stroke="#1E1E1E" stroke-width="0.5" stroke-linecap="round"/>
<path d="M50.8557 50.3345C50.9774 50.3814 51.3517 50.3627 51.3985 50.372C51.4547 50.3814 51.1645 50.3251 51.1833 50.3908C51.1926 50.4565 51.5202 50.6159 51.4921 50.7754C51.4547 50.9349 51.1365 51.2632 50.9961 51.3288C50.8463 51.3851 50.7434 51.1975 50.631 51.1412C50.5094 51.085 50.4064 51.0756 50.2941 50.963C50.1724 50.8598 49.8823 50.5596 49.9197 50.494C49.9665 50.4283 50.3596 50.691 50.5468 50.5878C50.734 50.4846 51.0054 49.9781 51.0522 49.8749C51.0897 49.7717 50.7902 49.8936 50.7995 49.9593M50.4439 50.372C50.6498 50.2595 50.968 49.8655 51.1833 49.8467C51.3892 49.828 51.6232 50.1375 51.7261 50.2407C51.8291 50.3439 51.9227 50.2407 51.7729 50.4752C51.6232 50.7191 51.0054 51.5071 50.8276 51.6665C50.6591 51.8166 50.7714 51.4789 50.7153 51.4039C50.6591 51.3382 50.6498 51.3382 50.4906 51.2538C50.3315 51.1788 49.8168 51.1319 49.77 50.9161C49.7325 50.7004 50.1069 50.0531 50.2286 49.9593C50.3596 49.8749 50.5187 50.4189 50.5281 50.3814C50.5374 50.3439 50.3128 49.7529 50.2847 49.7529" stroke="#1E1E1E" stroke-width="0.5" stroke-linecap="round"/>
<path d="M49.8071 52.1328C49.9568 52.039 49.8632 51.9171 50.0317 51.964C50.2002 52.0109 50.715 52.2079 50.7992 52.4236C50.8928 52.6394 50.6775 53.099 50.5746 53.2773C50.4623 53.4461 50.3312 53.4273 50.144 53.4742C49.9568 53.5305 49.7135 53.6431 49.4514 53.5962C49.1893 53.5493 48.7026 53.2773 48.5997 53.1834C48.4967 53.099 48.7307 53.2773 48.8337 53.0803C48.9366 52.8833 49.0864 52.2079 49.2268 52.0015C49.3578 51.7858 49.5169 51.7951 49.6386 51.8045C49.7603 51.8233 49.9849 52.0859 49.9381 52.0859M49.779 51.6169C50.0972 51.5231 50.4997 51.8139 50.7243 51.9265C50.949 52.039 51.183 51.9828 51.1174 52.2923C51.0426 52.5925 50.481 53.5024 50.3031 53.7463C50.1253 53.9995 50.1815 53.7838 50.0411 53.7932C49.9007 53.8026 49.7416 53.8776 49.4608 53.8213C49.18 53.765 48.5061 53.7181 48.3563 53.4649C48.2066 53.2116 48.478 52.4705 48.5622 52.2923C48.6465 52.1141 48.7401 52.5268 48.8711 52.4049C49.0021 52.2923 49.2361 51.6263 49.3297 51.5888C49.4233 51.5606 49.2642 52.1328 49.414 52.2173" stroke="#1E1E1E" stroke-width="0.5" stroke-linecap="round"/>
<path d="M49.8566 52.6927C49.8472 52.6364 50.2029 52.6364 50.231 52.6927C50.2684 52.7396 50.0812 52.9741 50.0625 52.9929C50.0438 53.021 50.1187 52.8334 50.128 52.8146C50.1374 52.8052 50.1748 52.899 50.128 52.899C50.0812 52.899 49.8191 52.7583 49.8379 52.8146C49.8566 52.8709 50.1655 53.2743 50.2497 53.2461C50.3339 53.218 50.3714 52.749 50.3526 52.6552C50.3246 52.5614 50.0999 52.6364 50.1187 52.6833C50.128 52.7302 50.4837 52.9553 50.4369 52.9272C50.3994 52.9084 49.894 52.6083 49.8566 52.5614M50.4088 52.5614C50.4837 52.552 50.596 52.2893 50.5118 52.4113C50.4182 52.5426 49.9315 53.2367 49.8753 53.3399C49.8285 53.4525 50.1187 53.1054 50.1935 53.0773C50.259 53.0491 50.3901 53.1429 50.3058 53.1711C50.2216 53.1898 49.7536 53.3118 49.6881 53.218C49.6319 53.1148 49.9315 52.6083 49.9595 52.5989C49.9876 52.5895 49.9127 53.1805 49.8659 53.1617C49.8098 53.1429 49.66 52.4863 49.6507 52.4769C49.6319 52.4582 49.6226 53.0022 49.7817 53.0679C49.9408 53.1336 50.5118 52.9459 50.6054 52.8615" stroke="#1E1E1E" stroke-width="0.5" stroke-linecap="round"/>
<path d="M47.6365 48.0515C47.7488 48.0703 47.8611 47.817 47.9641 47.9389C48.0577 48.0515 48.2449 48.5581 48.2262 48.755C48.2074 48.952 47.9734 48.9427 47.8518 49.1209C47.7301 49.2897 47.6365 49.7681 47.4961 49.7963C47.3464 49.8244 47.0562 49.3648 47 49.271C46.9439 49.1772 47.1592 49.3273 47.1498 49.2334C47.1311 49.1303 46.9252 48.877 46.9252 48.68C46.9158 48.483 46.9813 48.2297 47.1311 48.0328C47.2715 47.8264 47.702 47.5356 47.7956 47.4793C47.8892 47.423 47.7301 47.5637 47.702 47.6763M47.3276 47.7138C47.468 47.6575 47.3838 47.6106 47.571 47.6951C47.7675 47.7701 48.4508 47.9483 48.4789 48.1641C48.507 48.3798 47.8518 48.755 47.7582 48.9802C47.6646 49.2053 47.9641 49.4117 47.936 49.5336C47.9079 49.6462 47.8237 49.815 47.6084 49.6931C47.3931 49.5711 46.7848 49.0271 46.6257 48.8019C46.4759 48.5768 46.5976 48.483 46.6537 48.3235C46.7193 48.1735 46.9252 47.9765 47.0094 47.8545C47.0843 47.742 46.9907 47.6013 47.1311 47.6294C47.2808 47.6575 47.7488 47.9577 47.8705 48.0234" fill="white"/>
<path d="M47.5336 47.5731C47.6833 47.62 47.6553 47.9483 47.7301 48.089C47.805 48.2391 47.9548 48.2672 47.9829 48.4361C48.0203 48.6049 48.0297 48.9426 47.9173 49.1021C47.805 49.2616 47.4213 49.2803 47.3277 49.3929C47.2341 49.5148 47.3838 49.9088 47.3464 49.815C47.3183 49.7212 47.2341 49.0927 47.1498 48.8394C47.0656 48.5768 46.8129 48.4173 46.8503 48.2766C46.8784 48.1453 47.2996 48.1453 47.3651 48.014C47.4306 47.8826 47.1686 47.5449 47.2154 47.4793C47.2528 47.4042 47.5429 47.5262 47.6178 47.5825M47.674 47.3104C47.7021 47.3855 47.3838 48.1171 47.44 48.3235C47.4961 48.5205 47.908 48.361 48.0203 48.5111C48.142 48.6518 48.2824 48.9989 48.1607 49.2053C48.039 49.4023 47.4681 49.7212 47.2996 49.7212C47.1405 49.7306 47.2715 49.2709 47.1779 49.2334C47.0843 49.1959 46.8691 49.6649 46.7287 49.5054C46.5976 49.346 46.3823 48.4642 46.3636 48.2578C46.3449 48.0515 46.373 48.361 46.607 48.2766C46.8503 48.1922 47.6646 47.9014 47.8144 47.7701C47.9641 47.6387 47.5991 47.498 47.5055 47.4887" stroke="white" stroke-width="0.5" stroke-linecap="round"/>
<path fill-rule="evenodd" clip-rule="evenodd" d="M45.3724 49.1615C45.7582 49.7649 47.8753 50.9333 48.1567 50.936C48.4474 50.9394 47.2591 49.5315 47.0895 49.1704C46.9105 48.8087 46.8993 49.2029 47.1215 48.7495" fill="white"/>
<path d="M46.4194 48.235C46.4999 48.4105 46.6694 49.637 46.9222 49.7692C47.1836 49.9115 47.7927 49.4312 47.9805 49.0599C48.159 48.6878 48.0673 47.7965 48.0391 47.5497M46.05 48.7712C46.221 48.9913 47.1177 50.1605 47.5513 50.2595C47.9749 50.3671 48.5532 49.7998 48.6498 49.3933C48.7371 48.986 48.1752 48.1058 48.1218 47.8195" stroke="#1E1E1E" stroke-width="0.5" stroke-linecap="round"/>
<path fill-rule="evenodd" clip-rule="evenodd" d="M45.7142 49.1866C46.1891 49.5358 48.4075 49.5798 48.6115 49.3518C48.8169 49.133 47.1313 47.9141 46.9328 47.8476" fill="white"/>
<path d="M46.2546 48.4652C46.3539 48.4985 46.8079 48.4338 47.0993 48.288C47.3998 48.141 47.9322 47.6956 48.0501 47.5936M46.7354 48.122C46.9285 48.2176 47.5928 48.5683 47.7861 48.5313C47.9899 48.5022 47.9135 48.0299 47.9188 47.9344" stroke="#1E1E1E" stroke-width="0.5" stroke-linecap="round"/>
<path d="M52.1678 47.528C52.2521 47.5187 52.4767 47.9408 52.5703 48.044C52.6639 48.1471 52.6452 47.9408 52.7388 48.1284C52.8324 48.3254 53.1412 48.9257 53.1225 49.1884C53.1038 49.451 52.7762 49.648 52.6171 49.7137C52.4486 49.7887 52.2427 49.7606 52.1398 49.6105C52.0462 49.4698 52.093 49.0383 52.0368 48.8319C51.99 48.6255 51.8496 48.4848 51.8402 48.3817C51.8309 48.2785 51.8777 48.3723 51.99 48.2034C52.093 48.044 52.4112 47.528 52.4673 47.4155C52.5141 47.3123 52.3457 47.5468 52.3082 47.5656M52.0274 47.4155C52.1398 47.4436 52.7575 47.5749 52.9728 47.7532C53.188 47.9314 53.3752 48.3254 53.3191 48.4848C53.2629 48.6443 52.7762 48.5505 52.6171 48.6912C52.458 48.8319 52.4767 49.1978 52.3831 49.3197C52.2989 49.451 52.224 49.4979 52.0649 49.451C51.9058 49.4041 51.4284 49.1415 51.4284 49.0289C51.4191 48.9257 51.9151 48.9445 52.0368 48.7944C52.1585 48.6443 52.1585 48.3254 52.1678 48.119C52.1865 47.922 52.0555 47.6781 52.093 47.5937C52.1398 47.5187 52.355 47.6687 52.4112 47.6594" fill="white"/>
<path d="M52.2803 47.5562C52.3645 47.5468 52.2896 47.5093 52.43 47.7157C52.5611 47.9127 52.9635 48.5599 53.0758 48.7475C53.1788 48.9352 53.1788 48.7382 53.0852 48.832C52.9916 48.9258 52.6172 49.1884 52.4862 49.3104C52.3645 49.4229 52.5143 49.6387 52.3458 49.5449C52.168 49.4511 51.5409 48.9727 51.4473 48.7475C51.3537 48.5224 51.6719 48.3536 51.7748 48.2035C51.8778 48.0628 52.0182 47.9221 52.065 47.8658C52.1212 47.8001 52.065 47.8376 52.0744 47.847C52.0931 47.847 52.1492 47.9502 52.1399 47.9033M52.5236 47.8283C52.5798 47.8658 52.2803 48.1191 52.3271 48.1847C52.3739 48.2504 52.7483 47.9971 52.7857 48.2035C52.8231 48.4098 52.7015 49.2728 52.5611 49.4323C52.4207 49.5824 52.1118 49.0852 51.9527 49.1228C51.8029 49.1603 51.5877 49.6668 51.6251 49.6387C51.6532 49.6105 52.1305 49.2166 52.168 48.9445C52.2054 48.6725 51.9059 48.2222 51.8497 48.0065C51.7936 47.7907 51.7842 47.7532 51.831 47.6594C51.8778 47.5656 51.962 47.4155 52.1118 47.453C52.2615 47.4812 52.7295 47.772 52.7295 47.8564" stroke="white" stroke-width="0.5" stroke-linecap="round"/>
<path fill-rule="evenodd" clip-rule="evenodd" d="M52.6686 49.7381C52.7416 49.7128 53.0897 48.448 52.6855 48.4464C52.2804 48.4355 50.5434 49.7206 50.2316 49.7013C49.9105 49.6829 50.5976 48.8493 50.8045 48.3223" fill="white"/>
<path d="M53.3778 48.4129C53.2469 48.6318 52.6469 49.5988 52.2874 49.678C51.9288 49.7665 51.4027 49.2389 51.2525 48.9227C51.1023 48.6065 51.2805 47.9691 51.3961 47.7892M52.9852 48.1183C52.9813 48.3918 53.3082 49.8506 52.9757 50.0215C52.6441 50.2018 51.2775 49.6268 51.0004 49.1524C50.7233 48.678 51.2034 47.5239 51.2956 47.1861" stroke="#1E1E1E" stroke-width="0.5" stroke-linecap="round"/>
<path fill-rule="evenodd" clip-rule="evenodd" d="M52.2265 49.4641C52.3433 49.2901 53.0369 47.4977 52.7117 47.238C52.3959 46.9796 50.6443 47.7553 50.3011 47.9284" fill="white"/>
<path d="M52.9579 48.3293C52.7839 48.2878 52.4186 48.1932 52.1462 48.1106C51.8737 48.0281 51.3763 47.8596 51.3219 47.8431M53.508 48.0884C53.2631 48.0851 52.0263 48.4545 51.7958 48.3395C51.5571 48.2141 52.1915 47.5395 52.0703 47.382" stroke="#1E1E1E" stroke-width="0.5" stroke-linecap="round"/>
<path d="M49.6193 52.5488C49.6193 52.4738 49.404 52.577 49.4227 52.6427C49.4414 52.7177 49.7877 52.9616 49.7409 52.9616C49.6941 52.9616 49.1981 52.6896 49.1606 52.6614C49.1138 52.6333 49.4414 52.7458 49.4976 52.8021C49.5631 52.8584 49.5725 52.9522 49.4976 53.0085C49.4227 53.0648 49.1138 53.1304 49.0483 53.1492C48.9734 53.168 49.0951 53.2055 49.0858 53.1117M49.0858 53.1117C49.0764 53.0272 48.8986 52.6708 48.9922 52.6145C49.0858 52.5676 49.5631 52.7552 49.638 52.8021C49.7035 52.849 49.4508 52.9522 49.4227 52.9053M49.0858 53.1117C48.936 53.0272 48.9641 52.455 48.9734 52.4457C48.9828 52.4363 49.1232 53.0554 49.1606 53.0554M49.0858 53.1117C49.2449 53.2055 49.8158 53.0366 49.8907 52.971C49.9656 52.9053 49.6567 52.7271 49.535 52.7083C49.4227 52.6896 49.2823 52.8584 49.1887 52.8584C49.1045 52.8584 48.936 52.6989 49.0109 52.7271C49.0764 52.7552 49.6193 52.9991 49.6286 53.046C49.6286 53.0929 49.0202 53.0272 49.0483 52.9991C49.0764 52.9803 49.769 52.8959 49.7971 52.9053C49.8252 52.9147 49.2355 53.0929 49.1981 53.0554" stroke="#1E1E1E" stroke-width="0.5" stroke-linecap="round"/>
<path d="M46.5201 56.9954C46.5669 57.2205 46.9225 57.774 46.8851 57.8772M47.0161 56.7984C47.0536 56.9579 46.7822 57.2487 46.7728 57.4363" stroke="#1E1E1E" stroke-width="0.5" stroke-linecap="round"/>
<path fill-rule="evenodd" clip-rule="evenodd" d="M46.4134 55.551C46.8346 55.2602 47.8174 55.4478 48.1169 55.4854C48.4164 55.5323 48.6504 55.3353 48.1917 55.8231C47.7238 56.3015 45.6646 58.0931 45.337 58.3745" fill="white"/>
<path d="M46.7223 56.8549C46.872 56.7798 47.0499 56.2076 47.1154 56.292C47.1809 56.3859 47.2464 57.3051 47.1247 57.4083C46.9937 57.5021 46.5444 56.9205 46.3572 56.9112M46.4696 56.7142C46.741 56.6766 47.6676 56.686 47.7238 56.7235C47.7799 56.7517 47.0218 56.8549 46.8159 56.9112C46.6006 56.9674 46.5351 56.9581 46.4602 57.0519" stroke="#1E1E1E" stroke-width="0.5" stroke-linecap="round"/>
<path fill-rule="evenodd" clip-rule="evenodd" d="M49.6535 56.708C49.8314 56.5016 50.1683 54.9164 49.9718 55.2447C49.7846 55.573 48.5678 58.4622 48.5023 58.6967C48.4368 58.9218 49.3259 56.9238 49.5693 56.6048" fill="white"/>
<path d="M48.6614 57.5147C48.6053 57.3459 48.7644 56.8768 48.9048 56.8299C49.0545 56.783 49.457 57.2896 49.5225 57.2239C49.588 57.1583 49.3166 56.5579 49.2979 56.4453M49.12 57.2239C49.1481 57.1207 49.5131 56.3609 49.5506 56.3984C49.588 56.4266 49.4102 57.3646 49.354 57.4303C49.2979 57.4959 49.12 56.9144 49.2043 56.7924" stroke="#1E1E1E" stroke-width="0.5" stroke-linecap="round"/>
<path fill-rule="evenodd" clip-rule="evenodd" d="M51.7458 55.0995C51.334 55.4747 49.331 57.4071 49.1531 57.8198C48.966 58.2232 50.4729 57.5103 50.6601 57.5384C50.8379 57.5665 50.5665 57.8949 50.2295 57.9887" fill="white"/>
<path d="M50.6694 56.6848C50.6039 56.6754 50.2201 56.2345 50.164 56.3471C50.1172 56.4596 50.4635 57.1444 50.3793 57.3789C50.2857 57.604 49.7147 57.7447 49.6211 57.7354M51.1748 56.5534C51.0999 56.5722 49.9768 56.5722 49.9487 56.6097C49.9206 56.6472 51.0719 56.7035 51.0157 56.7786C50.9502 56.863 49.8458 57.0318 49.5837 57.1163" stroke="#1E1E1E" stroke-width="0.5" stroke-linecap="round"/>
<path fill-rule="evenodd" clip-rule="evenodd" d="M50.8494 57.5246C50.606 57.8436 50.9523 56.9712 51.1582 57.0275C51.3642 57.0931 52.3376 57.6935 52.0755 57.8905C51.8134 58.0968 49.8666 58.4345 49.5858 58.2188" fill="white"/>
<path d="M51.8696 56.0519C51.7479 56.0894 50.9429 56.6053 50.8774 56.868C50.8119 57.1306 51.4858 57.5528 51.4671 57.6372C51.4484 57.7216 50.8587 57.4308 50.7745 57.3933M51.5139 56.6147C51.5045 56.6804 51.3641 56.2582 51.4671 56.3333C51.57 56.4083 52.2627 56.868 52.1503 57.0743C52.0474 57.2807 51.0927 57.5058 50.84 57.5715" stroke="#1E1E1E" stroke-width="0.5" stroke-linecap="round"/>
<path fill-rule="evenodd" clip-rule="evenodd" d="M46.7551 58.5963C46.6802 58.662 47.7565 56.6733 48.1029 56.5514C48.4492 56.4295 48.992 57.6208 48.861 57.8647" fill="white"/>
<path d="M47.3821 57.5457C47.4009 57.4332 47.7378 56.5139 47.9156 56.4576C48.1028 56.3919 48.3368 57.0486 48.4585 57.1799M47.8314 57.3018C47.9531 57.1236 48.4866 55.9417 48.5521 55.9604C48.627 55.9792 48.2058 57.1611 48.2432 57.405" stroke="#1E1E1E" stroke-width="0.5" stroke-linecap="round"/>
<path d="M47.5915 57.3408C47.7506 57.2188 48.2841 56.6841 48.4619 56.5622M48.0876 57.1344C48.228 57.0406 48.125 56.8999 48.1999 56.853" stroke="#1E1E1E" stroke-width="0.5" stroke-linecap="round"/>
<path fill-rule="evenodd" clip-rule="evenodd" d="M52.5557 57.9593C52.4433 57.8092 51.4419 57.1245 51.4699 56.9087C51.498 56.6836 52.5557 56.3834 52.7241 56.6273" fill="white"/>
<path d="M52.1626 57.2745C52.303 57.0119 52.6493 56.1301 52.8458 56.1395C53.033 56.1489 53.3044 57.0306 53.3044 57.3308M51.7507 57.8655C51.8911 57.6216 52.434 56.5147 52.6773 56.4584C52.9207 56.4021 53.1921 57.3683 53.2108 57.5278" stroke="#1E1E1E" stroke-width="0.5" stroke-linecap="round"/>
<path d="M52.4735 56.8524C52.6232 56.8149 53.1474 56.5241 53.1942 56.5804M52.1646 57.4715C52.2956 57.4809 52.8385 56.965 53.0444 56.8337" stroke="#1E1E1E" stroke-width="0.5" stroke-linecap="round"/>
</svg>
