<svg width="83" height="120" viewBox="0 0 83 120" fill="none" xmlns="http://www.w3.org/2000/svg">
<path fill-rule="evenodd" clip-rule="evenodd" d="M64.5383 28.9809C64.7726 28.754 64.7726 28.0637 65.9539 27.6099C67.145 27.1466 70.6891 26.4563 71.6361 26.2294" fill="white"/>
<path d="M64.0892 28.1015C64.0892 28.1015 64.3593 27.9755 64.8996 27.7233C65.4528 27.4712 66.491 27.0646 68.014 26.5036C69.5306 25.9426 70.3442 25.6526 70.4548 25.6337C70.5655 25.6085 70.6729 25.6053 70.777 25.6242C70.8877 25.6369 70.9918 25.6652 71.0894 25.7093C71.1936 25.7598 71.2847 25.8228 71.3628 25.8985C71.4409 25.9741 71.5027 26.0592 71.5483 26.1537C71.6004 26.2483 71.6329 26.3492 71.6459 26.4563C71.659 26.5635 71.6557 26.6675 71.6362 26.7683C71.6167 26.8755 71.5809 26.9764 71.5288 27.0709C71.4702 27.1592 71.4019 27.2411 71.3238 27.3167C71.2391 27.3861 71.148 27.4428 71.0504 27.4869C70.9462 27.5311 70.8389 27.5563 70.7282 27.5626C70.6176 27.5689 70.5102 27.5594 70.406 27.5342C70.2954 27.509 70.1945 27.468 70.1034 27.4113C70.0122 27.3546 69.9309 27.2852 69.8593 27.2033C69.7942 27.1213 69.7421 27.0299 69.7031 26.9291C69.664 26.8282 69.6412 26.7242 69.6347 26.6171C69.6347 26.5099 69.651 26.4059 69.6835 26.305C69.7161 26.2042 69.7649 26.1096 69.83 26.0214C69.8886 25.9331 69.9634 25.8575 70.0545 25.7944C70.1457 25.7314 70.2433 25.6841 70.3474 25.6526C70.4516 25.6211 70.559 25.6085 70.6696 25.6148C70.7803 25.6148 70.8877 25.6337 70.9918 25.6715C71.0959 25.7093 71.1903 25.7598 71.2749 25.8228C71.3596 25.8921 71.4344 25.9709 71.4995 26.0592C71.5581 26.1474 71.6004 26.2451 71.6264 26.3523C71.6525 26.4532 71.6622 26.5572 71.6557 26.6643C71.6427 26.7715 71.6167 26.8755 71.5776 26.9764C71.532 27.0709 71.4735 27.1592 71.4019 27.2411C71.3238 27.3231 71.2391 27.3892 71.148 27.4397C71.0504 27.4901 71.0016 27.5153 71.0016 27.5153C71.0016 27.5153 70.2693 27.7706 68.8048 28.2812C67.3404 28.7855 66.338 29.1731 65.7978 29.4442C65.2575 29.7216 64.9484 29.8728 64.8703 29.8981C64.7987 29.9296 64.7206 29.9485 64.636 29.9548C64.5579 29.9611 64.4797 29.9579 64.4016 29.9453C64.317 29.939 64.2389 29.9201 64.1673 29.8886C64.0892 29.8571 64.0176 29.8193 63.9525 29.7751C63.8874 29.7247 63.8256 29.6711 63.767 29.6144C63.715 29.5514 63.6727 29.4852 63.6401 29.4158C63.6011 29.3465 63.5718 29.2708 63.5522 29.1889C63.5327 29.1133 63.5262 29.0376 63.5327 28.962C63.5327 28.8863 63.5425 28.8107 63.562 28.735C63.5815 28.6531 63.6141 28.5775 63.6596 28.5081C63.6987 28.4388 63.7443 28.3757 63.7963 28.319C63.8549 28.2623 63.9167 28.2119 63.9818 28.1677C64.0534 28.1236 64.0892 28.1015 64.0892 28.1015Z" fill="#1E1E1E"/>
<path d="M21.3878 2.1848C32.0688 0.397741 45.4053 4.19878 60.8312 2.1848C71.3364 1.20144 78.6491 7.49868 80.5529 21.2845C83.5014 45.84 81.8905 72.5229 80.5529 98.3926C77.6532 109.181 72.7033 114.703 60.8312 117.492C47.5337 119.317 39.4888 114.58 21.3878 117.492C9.15454 118.438 1.15847 112.046 1.66616 98.3926C1.82237 71.9745 4.97589 50.7568 1.66616 21.2845C2.45698 11.8954 11.3513 3.19651 21.3878 2.1848Z" fill="white"/>
<path d="M21.3878 2.18479C32.9669 0.68139 48.178 3.25324 60.8311 2.18479M21.3878 2.18479C32.0199 2.04296 42.4958 2.99794 60.8311 2.18479M21.3878 2.18479C9.65239 3.83947 0.60189 8.07545 1.66608 21.2845M21.3878 2.18479C6.86987 4.2555 1.793 7.35685 1.66608 21.2845M60.8311 2.18479C74.5582 0.738122 79.391 9.73013 80.5528 21.2845M60.8311 2.18479C73.9724 4.22713 78.9712 7.42303 80.5528 21.2845M80.5528 21.2845C80.094 51.1917 78.9907 82.9521 80.5528 98.3926M80.5528 21.2845C81.2851 48.7995 80.9238 74.3289 80.5528 98.3926M80.5528 98.3926C82.3786 109.531 74.9195 119.213 60.8311 117.492M80.5528 98.3926C78.6392 109.701 75.1538 116.046 60.8311 117.492M60.8311 117.492C49.0762 118.996 34.0214 119.185 21.3878 117.492M60.8311 117.492C50.8141 116.481 41.539 117.076 21.3878 117.492M21.3878 117.492C7.3678 118.504 2.84743 111.148 1.66608 98.3926M21.3878 117.492C9.60357 118.296 3.32583 110.836 1.66608 98.3926M1.66608 98.3926C1.35366 79.1511 0.826444 57.3376 1.66608 21.2845M1.66608 98.3926C1.78324 74.934 1.76371 53.2624 1.66608 21.2845" stroke="#1E1E1E" stroke-width="2" stroke-linecap="round"/>
<path d="M22.4373 2.02048C33.2159 2.02048 43.9944 2.02048 57.9656 2.02048C60.3869 2.02048 61.6073 3.19294 61.6073 5.54731C61.6073 7.76931 61.6073 9.99131 61.6073 12.5915C61.6073 14.9364 60.3869 16.1089 57.9656 16.1089C46.0545 16.1089 34.1336 16.1089 22.4373 16.1089C20.0062 16.1089 18.7956 14.9364 18.7956 12.5915C18.7956 11.1638 18.7956 9.74547 18.7956 5.54731C18.7956 3.19294 20.0062 2.02048 22.4373 2.02048Z" fill="white"/>
<path d="M22.4373 2.02048C34.4753 2.02048 46.5133 2.02048 57.9656 2.02048M22.4373 2.02048C31.3511 2.02048 40.2747 2.02048 57.9656 2.02048M22.4373 2.02048C20.0062 2.02048 18.7956 3.19294 18.7956 5.54731M57.9656 2.02048C60.3869 2.02048 61.6073 3.19294 61.6073 5.54731M61.6073 5.54731C61.6073 7.37219 61.6073 9.19706 61.6073 12.5915M61.6073 5.54731C61.6073 8.08134 61.6073 10.6154 61.6073 12.5915M61.6073 12.5915C61.6073 14.9364 60.3869 16.1089 57.9656 16.1089M57.9656 16.1089C45.9178 16.1089 33.87 16.1089 22.4373 16.1089M57.9656 16.1089C48.7003 16.1089 39.435 16.1089 22.4373 16.1089M22.4373 16.1089C20.0062 16.1089 18.7956 14.9364 18.7956 12.5915M18.7956 12.5915C18.7956 10.1426 18.7956 7.70312 18.7956 5.54731M18.7956 12.5915C18.7956 9.87785 18.7956 7.17362 18.7956 5.54731" stroke="#1E1E1E" stroke-width="2" stroke-linecap="round"/>
<path d="M9.98531 101.575C9.97531 100.724 9.95531 97.3103 9.94531 96.4594" stroke="#1E1E1E" stroke-linecap="round"/>
<path d="M9.91406 96.6511C10.1581 96.3107 11.1442 94.9681 11.3883 94.6277" stroke="#1E1E1E" stroke-linecap="round"/>
<path d="M12.8457 101.635C12.8557 100.784 12.8757 97.3711 12.8857 96.5201" stroke="#1E1E1E" stroke-linecap="round"/>
<path d="M12.916 96.7119C12.6719 96.3715 11.6859 95.0288 11.4418 94.6884" stroke="#1E1E1E" stroke-linecap="round"/>
<path d="M7.82446 102.095C8.97652 102.076 13.5652 102.001 14.7075 101.982" stroke="#1E1E1E" stroke-linecap="round"/>
<path d="M11.5916 102.181C11.6014 102.776 11.6404 105.178 11.6502 105.774" stroke="#1E1E1E" stroke-linecap="round"/>
<path d="M52.0223 97.5298C52.3738 97.1799 53.7797 95.7616 54.1311 95.4023" stroke="#1E1E1E" stroke-linecap="round"/>
<path d="M54.1268 95.3643C54.5173 95.6763 56.0599 96.9244 56.4504 97.2364" stroke="#1E1E1E" stroke-linecap="round"/>
<path d="M56.5381 97.4873C55.8645 98.4896 53.1796 102.508 52.5059 103.52" stroke="#1E1E1E" stroke-linecap="round"/>
<path d="M52.088 97.5298C51.7366 97.1799 50.3307 95.7616 49.9792 95.4023" stroke="#1E1E1E" stroke-linecap="round"/>
<path d="M49.9836 95.3643C49.593 95.6763 48.0504 96.9244 47.6599 97.2364" stroke="#1E1E1E" stroke-linecap="round"/>
<path d="M47.5722 97.4873C48.2459 98.4896 50.9307 102.508 51.6044 103.52" stroke="#1E1E1E" stroke-linecap="round"/>
<path d="M23.3448 6.76947C23.3067 6.77533 23.2745 6.77972 23.2481 6.78265C23.2217 6.78558 23.1998 6.78705 23.1822 6.78705C23.0826 6.78119 23.0123 6.75336 22.9713 6.70355C22.9302 6.65082 22.9097 6.56439 22.9097 6.44427C22.9097 6.20697 23.024 6.05756 23.2525 5.99603C23.4547 5.94916 23.6714 5.91547 23.9029 5.89496C24.1343 5.87152 24.3922 5.8598 24.6763 5.8598C25.0572 5.8598 25.4351 5.89642 25.8101 5.96967C26.188 6.04291 26.5469 6.14398 26.8868 6.27289C27.2296 6.39886 27.5474 6.54974 27.8404 6.72552C28.1334 6.89838 28.3868 7.08734 28.6006 7.29242C28.8174 7.49457 28.9859 7.70844 29.106 7.93402C29.2291 8.15668 29.2906 8.3808 29.2906 8.60638C29.2906 8.8349 29.213 9.05316 29.0577 9.26117C28.9053 9.46625 28.6988 9.64789 28.438 9.80609C28.1773 9.96429 27.8755 10.0903 27.5328 10.184C27.19 10.2778 26.8311 10.3246 26.4561 10.3246C26.1573 10.3246 25.8453 10.2968 25.5201 10.2411C25.1949 10.1855 24.836 10.0961 24.4434 9.97308C24.2618 9.92328 24.171 9.81195 24.171 9.6391C24.171 9.60101 24.1797 9.56586 24.1973 9.53363C24.2149 9.5014 24.2325 9.47064 24.2501 9.44135C24.2706 9.41205 24.2896 9.38422 24.3072 9.35785C24.3248 9.32855 24.3336 9.29926 24.3336 9.26996C24.3336 9.10297 24.3248 8.92426 24.3072 8.73383C24.2925 8.5434 24.2706 8.35297 24.2413 8.16254C24.2149 7.97211 24.1827 7.79047 24.1446 7.61761C24.1094 7.44183 24.0728 7.28656 24.0347 7.15179C23.9966 7.01703 23.9571 6.9101 23.9161 6.83099C23.878 6.74896 23.8428 6.70795 23.8106 6.70795C23.7608 6.70795 23.6993 6.71381 23.626 6.72552C23.5557 6.73724 23.462 6.75189 23.3448 6.76947ZM25.0367 6.69916C24.9517 6.69916 24.9092 6.72845 24.9092 6.78705C24.9092 6.8017 24.9136 6.8266 24.9224 6.86176C24.9312 6.89691 24.9444 6.95258 24.962 7.02875C24.9883 7.15179 25.0132 7.28363 25.0367 7.42426C25.0601 7.56488 25.0836 7.72308 25.107 7.89886C25.1304 8.07172 25.1524 8.26654 25.1729 8.48334C25.1964 8.6972 25.2198 8.9389 25.2432 9.20844C25.2462 9.25238 25.2857 9.29486 25.3619 9.33588C25.438 9.37396 25.5391 9.40912 25.6651 9.44135C25.7911 9.47064 25.9346 9.49554 26.0958 9.51605C26.2598 9.53363 26.4283 9.54242 26.6011 9.54242C26.8297 9.54242 27.0479 9.51605 27.2559 9.46332C27.4669 9.40765 27.6514 9.33441 27.8096 9.24359C27.9708 9.15277 28.0982 9.0473 28.192 8.92719C28.2886 8.80707 28.337 8.68256 28.337 8.55365C28.337 8.33978 28.252 8.13177 28.0821 7.92963C27.9151 7.72748 27.6837 7.54437 27.3878 7.38031C27.0919 7.21332 26.7432 7.07123 26.3419 6.95404C25.9405 6.83392 25.5054 6.74896 25.0367 6.69916ZM30.3013 5.64447C30.2164 5.64447 30.1358 5.63275 30.0596 5.60931C29.9864 5.58295 29.9219 5.54779 29.8663 5.50385C29.8135 5.45697 29.7711 5.40277 29.7388 5.34125C29.7066 5.27972 29.6905 5.21234 29.6905 5.1391C29.6905 5.01605 29.7388 4.91644 29.8355 4.84027C29.9351 4.7641 30.067 4.72601 30.231 4.72601C30.3072 4.72601 30.3804 4.74066 30.4507 4.76996C30.5211 4.79633 30.5826 4.83295 30.6353 4.87982C30.691 4.9267 30.7349 4.98236 30.7672 5.04681C30.7994 5.10834 30.8155 5.17279 30.8155 5.24017C30.8155 5.36615 30.7686 5.46576 30.6749 5.539C30.584 5.60931 30.4595 5.64447 30.3013 5.64447ZM29.6993 6.9848C29.6993 6.88226 29.7432 6.79877 29.8311 6.73431C29.9219 6.66693 30.0406 6.63324 30.1871 6.63324C30.4507 6.63324 30.5914 6.72406 30.6089 6.9057C30.6207 7.03168 30.6324 7.17377 30.6441 7.33197C30.6588 7.49017 30.6719 7.65863 30.6837 7.83734C30.6983 8.01312 30.71 8.19623 30.7188 8.38666C30.7305 8.57416 30.7408 8.76019 30.7496 8.94476C30.7584 9.1264 30.7657 9.30219 30.7715 9.47211C30.7774 9.64203 30.7803 9.7973 30.7803 9.93793C30.7803 10.0844 30.7276 10.1943 30.6221 10.2675C30.5196 10.3408 30.3687 10.3774 30.1695 10.3774C30.0787 10.3774 30.0069 10.3554 29.9542 10.3115C29.9044 10.2704 29.8795 10.2089 29.8795 10.1269C29.8795 9.7226 29.8692 9.34467 29.8487 8.9931C29.8311 8.63861 29.8106 8.32367 29.7872 8.04828C29.7667 7.77289 29.7462 7.54437 29.7256 7.36273C29.7081 7.17816 29.6993 7.05219 29.6993 6.9848ZM31.9405 11.6298C32.0167 11.6298 32.0797 11.6181 32.1295 11.5947C32.1793 11.5742 32.2188 11.5346 32.2481 11.476C32.2774 11.4174 32.2979 11.3383 32.3096 11.2387C32.3214 11.1391 32.3272 11.0117 32.3272 10.8564C32.3272 10.2558 32.3052 9.73871 32.2613 9.30511C32.2203 8.87152 32.1749 8.50531 32.1251 8.20648C32.0753 7.90765 32.0284 7.66888 31.9844 7.49017C31.9434 7.30853 31.9229 7.17084 31.9229 7.07709C31.9229 6.97748 31.9683 6.89691 32.0591 6.83539C32.15 6.77386 32.2745 6.74017 32.4327 6.73431C32.6583 6.73431 32.7945 6.80023 32.8414 6.93207C32.9029 7.14008 32.9586 7.38031 33.0084 7.65277C33.0611 7.9223 33.105 8.21381 33.1402 8.52728C33.1783 8.84076 33.2061 9.16888 33.2237 9.51166C33.2442 9.8515 33.2545 10.1943 33.2545 10.54C33.2545 10.9062 33.2325 11.2138 33.1885 11.4628C33.1475 11.7148 33.0757 11.9169 32.9732 12.0693C32.8736 12.2216 32.7418 12.33 32.5777 12.3945C32.4136 12.4619 32.21 12.4955 31.9669 12.4955C31.8233 12.4955 31.6724 12.4765 31.5142 12.4384C31.3589 12.4033 31.2066 12.3549 31.0572 12.2934C30.9078 12.2348 30.7672 12.1645 30.6353 12.0825C30.5005 12.0004 30.3834 11.914 30.2838 11.8232C30.1812 11.7353 30.1006 11.6445 30.0421 11.5507C29.9805 11.457 29.9498 11.3661 29.9498 11.2783C29.9498 11.2343 29.9673 11.1845 30.0025 11.1288C30.0377 11.0732 30.0816 11.0204 30.1343 10.9706C30.1841 10.9238 30.2383 10.8842 30.2969 10.852C30.3555 10.8198 30.4083 10.8036 30.4551 10.8036C30.5108 10.8036 30.5694 10.8242 30.6309 10.8652C30.6895 10.9062 30.754 10.9575 30.8243 11.019C30.8917 11.0805 30.9649 11.1464 31.044 11.2167C31.1202 11.287 31.2037 11.353 31.2945 11.4145C31.3882 11.476 31.4879 11.5273 31.5933 11.5683C31.6988 11.6093 31.8145 11.6298 31.9405 11.6298ZM32.5162 6.00482C32.4312 6.00189 32.3521 5.98724 32.2789 5.96088C32.2086 5.93451 32.147 5.89935 32.0943 5.85541C32.0416 5.80853 31.9991 5.7558 31.9669 5.6972C31.9376 5.63568 31.9229 5.56976 31.9229 5.49945C31.9229 5.3764 31.9698 5.27679 32.0635 5.20062C32.1573 5.12445 32.2833 5.08636 32.4415 5.08636C32.5206 5.08636 32.5953 5.10101 32.6656 5.13031C32.7388 5.15668 32.8033 5.19476 32.8589 5.24457C32.9146 5.29144 32.9586 5.34711 32.9908 5.41156C33.023 5.47308 33.0391 5.539 33.0391 5.60931C33.0391 5.73529 32.9937 5.83344 32.9029 5.90375C32.8121 5.97113 32.6832 6.00482 32.5162 6.00482ZM34.4761 10.039C34.4761 9.78412 34.4688 9.50726 34.4542 9.20844C34.4395 8.90961 34.4205 8.60785 34.397 8.30316C34.3765 7.99554 34.3531 7.69525 34.3267 7.40228C34.3033 7.10931 34.2798 6.84125 34.2564 6.59808C34.2359 6.35492 34.2183 6.14545 34.2037 5.96967C34.189 5.79388 34.1817 5.67084 34.1817 5.60052C34.1817 5.48334 34.2256 5.39398 34.3135 5.33246C34.4014 5.27094 34.5289 5.24017 34.6959 5.24017C34.7691 5.24017 34.8306 5.2475 34.8804 5.26215C34.9332 5.27679 34.9756 5.3017 35.0079 5.33685C35.0401 5.37201 35.065 5.41888 35.0826 5.47748C35.1031 5.53314 35.1177 5.60345 35.1265 5.68842C35.1382 5.8056 35.1485 5.93158 35.1573 6.06635C35.1661 6.19818 35.1749 6.34906 35.1837 6.51898C35.1954 6.6889 35.2071 6.8808 35.2188 7.09467C35.2305 7.30853 35.2452 7.55463 35.2628 7.83295C35.2628 7.87396 35.2701 7.90326 35.2847 7.92084C35.2994 7.93842 35.3155 7.9472 35.3331 7.9472C35.3653 7.9472 35.3946 7.92084 35.421 7.8681C35.67 7.36127 35.9307 6.97455 36.2032 6.70795C36.4756 6.43842 36.7408 6.30365 36.9986 6.30365C37.1509 6.30365 37.2711 6.34906 37.3589 6.43988C37.4468 6.5307 37.4908 6.65228 37.4908 6.80463C37.4908 6.96869 37.4542 7.12103 37.3809 7.26166C37.3106 7.39935 37.2213 7.52972 37.1129 7.65277C37.0074 7.77582 36.8917 7.89154 36.7657 7.99994C36.6426 8.10834 36.5269 8.21381 36.4185 8.31635C36.313 8.41888 36.2237 8.51996 36.1505 8.61957C36.0801 8.71625 36.045 8.81439 36.045 8.914C36.045 9.00482 36.0977 9.09857 36.2032 9.19525C36.3116 9.289 36.4669 9.38275 36.669 9.4765C36.8712 9.56732 37.1187 9.65668 37.4117 9.74457C37.7047 9.82953 38.0372 9.91156 38.4092 9.99066C38.4678 10.0053 38.5089 10.0287 38.5323 10.061C38.5587 10.0932 38.5718 10.1357 38.5718 10.1884C38.5718 10.2529 38.5572 10.3188 38.5279 10.3862C38.4986 10.4565 38.462 10.5195 38.418 10.5751C38.3741 10.6337 38.3243 10.6806 38.2686 10.7158C38.2159 10.7538 38.1646 10.7729 38.1148 10.7729C38.0152 10.7729 37.8965 10.7597 37.7589 10.7333C37.6212 10.707 37.4717 10.6703 37.3106 10.6235C37.1524 10.5795 36.9883 10.5268 36.8184 10.4653C36.6485 10.4067 36.483 10.3422 36.3218 10.2719C36.1636 10.2045 36.0128 10.1342 35.8692 10.061C35.7286 9.9848 35.607 9.9101 35.5045 9.83685C35.4722 9.81927 35.4459 9.80463 35.4254 9.79291C35.4078 9.78119 35.3917 9.77533 35.377 9.77533C35.3594 9.77533 35.3492 9.78265 35.3463 9.7973C35.3433 9.80902 35.3419 9.83539 35.3419 9.8764C35.3419 9.97894 35.3331 10.0624 35.3155 10.1269C35.3008 10.1913 35.2745 10.2411 35.2364 10.2763C35.1983 10.3144 35.1456 10.3408 35.0782 10.3554C35.0108 10.3701 34.9273 10.3774 34.8277 10.3774C34.6959 10.3774 34.6036 10.3525 34.5508 10.3027C34.501 10.2529 34.4761 10.165 34.4761 10.039ZM39.3233 6.31244C39.5196 6.31244 39.7217 6.33881 39.9297 6.39154C40.1378 6.44135 40.3282 6.50726 40.501 6.58929C40.6739 6.6684 40.816 6.75775 40.9273 6.85736C41.0386 6.95697 41.0943 7.05365 41.0943 7.1474C41.0943 7.19427 41.0738 7.24701 41.0328 7.3056C40.9918 7.36127 40.942 7.41547 40.8834 7.4682C40.8248 7.51801 40.7603 7.56049 40.69 7.59564C40.6226 7.62787 40.5626 7.64398 40.5098 7.64398C40.4395 7.64398 40.3604 7.61469 40.2725 7.55609C40.1876 7.4975 40.0923 7.43304 39.9869 7.36273C39.8843 7.28949 39.7715 7.22357 39.6485 7.16498C39.5255 7.10638 39.3922 7.07709 39.2486 7.07709C39.1548 7.07709 39.0772 7.10052 39.0157 7.1474C38.9571 7.19135 38.9278 7.25433 38.9278 7.33636C38.9278 7.40961 38.963 7.48431 39.0333 7.56049C39.1036 7.63373 39.1959 7.7099 39.3101 7.789C39.4273 7.8681 39.5591 7.9516 39.7056 8.03949C39.8521 8.12738 40.0015 8.22113 40.1539 8.32074C40.3091 8.42035 40.46 8.52875 40.6065 8.64594C40.753 8.76312 40.8834 8.89056 40.9976 9.02826C41.1148 9.16595 41.2086 9.31683 41.2789 9.4809C41.3492 9.64203 41.3843 9.81781 41.3843 10.0082C41.3843 10.1723 41.355 10.3217 41.2964 10.4565C41.2379 10.5912 41.1544 10.707 41.046 10.8036C40.9376 10.9003 40.8087 10.975 40.6592 11.0278C40.5098 11.0805 40.3458 11.1069 40.1671 11.1069C39.9415 11.1069 39.7335 11.0717 39.543 11.0014C39.3526 10.934 39.1885 10.8403 39.0508 10.7202C38.9131 10.6 38.8047 10.4565 38.7256 10.2895C38.6495 10.1225 38.6114 9.93939 38.6114 9.74017C38.6114 9.48236 38.6568 9.29486 38.7476 9.17767C38.8414 9.06049 38.9879 9.00189 39.1871 9.00189C39.3101 9.00189 39.4083 9.02533 39.4815 9.0722C39.5547 9.11908 39.5914 9.17621 39.5914 9.24359C39.5914 9.27875 39.5855 9.31537 39.5738 9.35345C39.5621 9.38861 39.5489 9.4267 39.5342 9.46771C39.5225 9.5058 39.5108 9.54681 39.4991 9.59076C39.4903 9.6347 39.4859 9.67865 39.4859 9.7226C39.4859 9.79877 39.5035 9.87201 39.5386 9.94232C39.5738 10.0126 39.6207 10.0742 39.6793 10.1269C39.7408 10.1826 39.8111 10.2265 39.8902 10.2587C39.9693 10.291 40.0528 10.3071 40.1407 10.3071C40.3751 10.3071 40.4922 10.2104 40.4922 10.017C40.4922 9.86469 40.4322 9.72113 40.3121 9.58636C40.192 9.44867 40.0411 9.31537 39.8594 9.18646C39.6778 9.05463 39.4815 8.92279 39.2706 8.79095C39.0626 8.65912 38.8677 8.52142 38.6861 8.37787C38.5045 8.23431 38.3536 8.08197 38.2335 7.92084C38.1133 7.75677 38.0533 7.57953 38.0533 7.3891C38.0533 7.2309 38.0855 7.08588 38.15 6.95404C38.2173 6.8222 38.3082 6.70941 38.4224 6.61566C38.5367 6.51898 38.67 6.44427 38.8223 6.39154C38.9776 6.33881 39.1446 6.31244 39.3233 6.31244ZM41.9512 5.05121C41.9512 4.89594 41.9952 4.78754 42.0831 4.72601C42.171 4.66156 42.316 4.62933 42.5181 4.62933C42.5914 4.62933 42.6529 4.63666 42.7027 4.65131C42.7554 4.66302 42.7994 4.68646 42.8345 4.72162C42.8726 4.75677 42.9019 4.80365 42.9224 4.86224C42.9459 4.91791 42.9649 4.98969 42.9796 5.07758C43.0147 5.35004 43.0528 5.63129 43.0938 5.92133C43.1378 6.21136 43.1832 6.50287 43.23 6.79584C43.2476 6.92767 43.3165 6.99359 43.4366 6.99359C43.4688 6.99359 43.5215 6.99066 43.5948 6.9848C43.671 6.97601 43.7603 6.96722 43.8629 6.95844C43.9654 6.94672 44.0753 6.935 44.1924 6.92328C44.3126 6.91156 44.4312 6.90131 44.5484 6.89252C44.6685 6.8808 44.7813 6.87201 44.8868 6.86615C44.9952 6.85736 45.0904 6.85297 45.1724 6.85297C45.2369 6.85297 45.2881 6.86615 45.3262 6.89252C45.3643 6.91595 45.3936 6.94818 45.4141 6.9892C45.4376 7.02728 45.4522 7.07123 45.4581 7.12103C45.4669 7.16791 45.4713 7.21625 45.4713 7.26605C45.4713 7.31 45.4625 7.35541 45.4449 7.40228C45.4302 7.44916 45.4083 7.49164 45.379 7.52972C45.3526 7.56488 45.3189 7.59418 45.2779 7.61761C45.2369 7.64105 45.19 7.65277 45.1373 7.65277C44.8824 7.65277 44.6246 7.66156 44.3638 7.67914C44.106 7.69379 43.8482 7.71429 43.5904 7.74066C43.4586 7.75824 43.3926 7.82416 43.3926 7.93842C43.3926 7.9472 43.3941 7.95892 43.397 7.97357C43.4 7.98529 43.4014 7.99554 43.4014 8.00433C43.4366 8.25922 43.4688 8.49799 43.4981 8.72064C43.5303 8.9433 43.5567 9.14252 43.5772 9.3183C43.6006 9.49115 43.6182 9.63617 43.6299 9.75336C43.6446 9.86761 43.6519 9.94379 43.6519 9.98187C43.6519 10.0873 43.6417 10.1752 43.6212 10.2455C43.6006 10.3188 43.567 10.3774 43.5201 10.4213C43.4732 10.4682 43.4102 10.5004 43.3311 10.518C43.2549 10.5385 43.1583 10.5488 43.0411 10.5488C42.9297 10.5488 42.8477 10.5224 42.795 10.4697C42.7422 10.4169 42.713 10.3364 42.7071 10.228C42.6895 9.88226 42.6617 9.5351 42.6236 9.18646C42.5855 8.8349 42.5416 8.4848 42.4918 8.13617C42.4654 8.01019 42.3995 7.9472 42.294 7.9472C42.2852 7.9472 42.275 7.94867 42.2632 7.9516C42.2515 7.95453 42.2413 7.95599 42.2325 7.95599C42.0508 7.99701 41.8795 8.03802 41.7183 8.07904C41.5572 8.12006 41.4063 8.164 41.2657 8.21088C41.1866 8.23724 41.1163 8.25629 41.0547 8.26801C40.9932 8.27679 40.9376 8.28119 40.8878 8.28119C40.8204 8.28119 40.7706 8.25189 40.7383 8.1933C40.7061 8.13177 40.69 8.0556 40.69 7.96478C40.69 7.93256 40.6929 7.89594 40.6988 7.85492C40.7047 7.81097 40.7164 7.76849 40.7339 7.72748C40.7486 7.68353 40.772 7.64398 40.8043 7.60883C40.8336 7.57074 40.8746 7.53998 40.9273 7.51654C41.0504 7.46674 41.2144 7.41547 41.4195 7.36273C41.6246 7.30707 41.856 7.2558 42.1138 7.20892C42.1724 7.19427 42.2178 7.17084 42.2501 7.13861C42.2852 7.10345 42.3028 7.05219 42.3028 6.9848C42.3028 6.97015 42.3028 6.95551 42.3028 6.94086C42.3028 6.92328 42.2999 6.9057 42.294 6.88812C42.2471 6.61859 42.2017 6.37396 42.1578 6.15424C42.1168 5.93158 42.0801 5.74115 42.0479 5.58295C42.0186 5.42474 41.9952 5.30023 41.9776 5.20941C41.96 5.11859 41.9512 5.06586 41.9512 5.05121ZM47.5982 6.83978C47.4898 6.83978 47.3946 6.86908 47.3126 6.92767C47.2305 6.98334 47.1602 7.06244 47.1016 7.16498C47.043 7.26459 46.9947 7.38324 46.9566 7.52094C46.9185 7.6557 46.8878 7.80365 46.8643 7.96478C46.8409 8.12592 46.8248 8.29437 46.816 8.47015C46.8072 8.64594 46.8028 8.82318 46.8028 9.00189C46.8028 9.23627 46.8116 9.46771 46.8292 9.69623C46.8497 9.92181 46.8599 10.1313 46.8599 10.3246C46.8599 10.4506 46.813 10.5488 46.7193 10.6191C46.6255 10.6923 46.4922 10.7289 46.3194 10.7289C46.2872 10.7289 46.2505 10.726 46.2095 10.7202C46.1685 10.7143 46.129 10.7026 46.0909 10.685C46.0557 10.6674 46.0235 10.6425 45.9942 10.6103C45.9678 10.581 45.9532 10.54 45.9503 10.4872C45.9239 10.2294 45.8858 9.96576 45.836 9.69623C45.7862 9.4267 45.7232 9.15863 45.647 8.89203C45.5738 8.6225 45.4844 8.3559 45.379 8.09222C45.2764 7.82855 45.1578 7.57074 45.023 7.31879C44.9996 7.27484 44.9791 7.23383 44.9615 7.19574C44.9468 7.15765 44.9395 7.12103 44.9395 7.08588C44.9395 7.04193 44.9586 6.99506 44.9966 6.94525C45.0377 6.89252 45.0875 6.84418 45.1461 6.80023C45.2076 6.75629 45.2735 6.72113 45.3438 6.69476C45.4171 6.66547 45.4874 6.65082 45.5547 6.65082C45.6661 6.65082 45.7642 6.72845 45.8492 6.88373C45.9341 7.03607 46.0132 7.2807 46.0865 7.61761C46.1011 7.67621 46.1129 7.71722 46.1216 7.74066C46.1304 7.7641 46.1422 7.77582 46.1568 7.77582C46.189 7.77582 46.2095 7.72601 46.2183 7.6264C46.2535 7.34808 46.3135 7.10931 46.3985 6.9101C46.4835 6.70795 46.5889 6.54242 46.7149 6.41351C46.8438 6.28168 46.9903 6.185 47.1544 6.12347C47.3214 6.06195 47.5045 6.03119 47.7037 6.03119C47.8179 6.03119 47.9337 6.04144 48.0508 6.06195C48.168 6.08246 48.2735 6.11322 48.3672 6.15424C48.461 6.19525 48.5372 6.24506 48.5958 6.30365C48.6544 6.36224 48.6837 6.42816 48.6837 6.5014C48.6837 6.55414 48.6719 6.61713 48.6485 6.69037C48.628 6.76068 48.6002 6.82953 48.565 6.89691C48.5298 6.96136 48.4888 7.01703 48.442 7.0639C48.398 7.10785 48.3526 7.12982 48.3057 7.12982C48.253 7.12982 48.2017 7.11517 48.1519 7.08588C48.1021 7.05365 48.0479 7.01996 47.9893 6.9848C47.9337 6.94965 47.8736 6.91742 47.8091 6.88812C47.7476 6.8559 47.6773 6.83978 47.5982 6.83978ZM51.1666 6.28607C51.3277 6.28607 51.483 6.31097 51.6324 6.36078C51.7818 6.41058 51.9136 6.47943 52.0279 6.56732C52.1422 6.65521 52.233 6.76068 52.3004 6.88373C52.3707 7.00677 52.4058 7.14301 52.4058 7.29242C52.4058 7.35394 52.3912 7.414 52.3619 7.4726C52.3355 7.52826 52.2989 7.57806 52.252 7.62201C52.2051 7.66302 52.1509 7.69672 52.0894 7.72308C52.0308 7.74652 51.9693 7.75824 51.9048 7.75824C51.899 7.75824 51.8931 7.7597 51.8873 7.76263C51.8843 7.76263 51.8799 7.76263 51.8741 7.76263C51.8682 7.76556 51.8624 7.76703 51.8565 7.76703L51.8741 8.11859C51.8858 8.53754 51.9444 8.84369 52.0499 9.03705C52.1583 9.23041 52.2989 9.32709 52.4717 9.32709C52.5333 9.32709 52.5875 9.32123 52.6343 9.30951C52.6841 9.29779 52.7296 9.28461 52.7706 9.26996C52.8145 9.25238 52.8555 9.23773 52.8936 9.22601C52.9317 9.21429 52.9698 9.20844 53.0079 9.20844C53.0753 9.20844 53.1339 9.23773 53.1837 9.29633C53.2364 9.35492 53.2628 9.42523 53.2628 9.50726C53.2628 9.58929 53.2305 9.67133 53.1661 9.75336C53.1046 9.83539 53.0225 9.9101 52.92 9.97748C52.8174 10.0419 52.7017 10.0947 52.5728 10.1357C52.4439 10.1767 52.3135 10.1972 52.1817 10.1972C51.9532 10.1972 51.7525 10.1035 51.5797 9.91595C51.4068 9.72552 51.2838 9.4472 51.2105 9.08099C51.1929 9.0224 51.1695 8.9931 51.1402 8.9931C51.105 8.9931 51.0743 9.01068 51.0479 9.04584C50.7579 9.41205 50.4488 9.68744 50.1207 9.87201C49.7925 10.0536 49.4688 10.1445 49.1495 10.1445C49.0001 10.1445 48.8653 10.1225 48.7452 10.0786C48.6251 10.0346 48.5225 9.97308 48.4376 9.89398C48.3555 9.81195 48.2911 9.71381 48.2442 9.59955C48.2003 9.48236 48.1783 9.35199 48.1783 9.20844C48.1783 9.00629 48.2222 8.79388 48.3101 8.57123C48.4009 8.34857 48.5225 8.12885 48.6749 7.91205C48.8272 7.69525 49.003 7.48871 49.2022 7.29242C49.4044 7.09613 49.6153 6.92328 49.835 6.77386C50.0577 6.62445 50.2833 6.5058 50.5118 6.41791C50.7403 6.33002 50.9586 6.28607 51.1666 6.28607ZM51.0215 7.80658C51.0743 7.70697 51.1226 7.63519 51.1666 7.59125C51.2105 7.54437 51.2735 7.51361 51.3555 7.49896C51.42 7.49017 51.4522 7.46967 51.4522 7.43744C51.4522 7.414 51.4434 7.3891 51.4258 7.36273C51.3702 7.28656 51.3116 7.22064 51.2501 7.16498C51.1885 7.10638 51.1065 7.07709 51.004 7.07709C50.8926 7.07709 50.7681 7.10931 50.6304 7.17377C50.4927 7.23822 50.3521 7.32465 50.2086 7.43304C50.0679 7.53851 49.9288 7.6601 49.7911 7.79779C49.6563 7.93256 49.5362 8.07172 49.4307 8.21527C49.3253 8.35883 49.2403 8.50092 49.1758 8.64154C49.1114 8.78217 49.0792 8.90814 49.0792 9.01947C49.0792 9.11908 49.1055 9.19672 49.1583 9.25238C49.2139 9.30804 49.2886 9.33588 49.3824 9.33588C49.6226 9.33588 49.8848 9.20844 50.169 8.95355C50.4532 8.69867 50.7374 8.31635 51.0215 7.80658Z" fill="#1E1E1E"/>
<path d="M10.0261 85.5447C20.7558 85.5447 63.6944 85.5447 74.4242 85.5447" stroke="#1E1E1E" stroke-width="2" stroke-linecap="round"/>
<path d="M41.2588 66.4459C42.2546 64.2996 46.3552 54.9577 47.517 52.6601M40.7413 66.2379C41.8641 64.1956 47.2729 55.3454 48.4933 53.1423" stroke="#1E1E1E" stroke-linecap="round"/>
<path d="M46.8713 51.8681C44.7624 51.7073 36.9616 51.6128 34.9406 51.7073M47.6133 52.8231C45.4361 52.9365 36.8542 52.3976 34.6672 52.1896" stroke="#1E1E1E" stroke-linecap="round"/>
<path d="M35.3495 51.8681C36.4333 50.2796 40.1238 43.9445 41.1001 42.3371M34.8419 52.8136C35.906 51.1117 39.7039 43.5285 40.7291 41.6091" stroke="#1E1E1E" stroke-linecap="round"/>
<path d="M41.2552 41.8707C41.2845 40.2066 41.5189 33.0773 41.6067 31.1957M40.6597 41.5965C40.6206 39.8095 41.1381 32.179 41.2943 30.392" stroke="#1E1E1E" stroke-linecap="round"/>
<path d="M40.6446 41.9679C39.0922 41.2682 32.8145 38.5261 31.2523 37.8453M40.2931 41.7504C38.7114 41.0601 32.629 38.7247 31.1157 38.129" stroke="#1E1E1E" stroke-linecap="round"/>
<path d="M41.873 41.3124C43.7573 40.5371 51.3433 37.9558 53.0519 37.3128M41.4239 42.2107C43.2594 41.4731 50.904 38.5136 52.8468 37.795" stroke="#1E1E1E" stroke-linecap="round"/>
<path d="M53.4545 37.317C55.2022 37.4966 62.1243 38.1963 63.8719 38.3192M53.0347 38.2625C54.8995 38.5556 62.8175 38.8582 64.8092 38.8771" stroke="#1E1E1E" stroke-linecap="round"/>
<path d="M63.868 38.3145C63.8777 40.4231 64.6881 48.6586 64.8443 50.7955M64.5905 37.7661C64.7174 39.9408 65.6156 48.9045 65.8206 51.2116" stroke="#1E1E1E" stroke-linecap="round"/>
<path d="M29.754 37.1059C27.5475 37.7299 18.5947 40.3869 16.4077 41.1244M30.5156 37.9852C28.5043 38.7038 19.7663 41.2662 17.3743 41.7106" stroke="#1E1E1E" stroke-linecap="round"/>
<path d="M16.4054 41.1336C16.4444 41.2565 17.079 43.6298 16.6299 41.5496C16.1808 39.4789 14.1891 30.8084 13.7009 28.6998M17.1474 40.6041C17.1278 40.623 16.6885 42.6748 16.0929 40.7837C15.4876 38.8927 13.8864 31.1582 13.535 29.2671" stroke="#1E1E1E" stroke-linecap="round"/>
<path d="M50.9353 34.8505C51.5309 34.7087 52.5755 34.8505 53.0832 35.1625C53.6007 35.484 53.835 36.0986 54.0009 36.7416C54.1767 37.3845 54.2646 38.4435 54.1083 39.0392C53.9521 39.6349 53.5616 40.0226 53.0734 40.3251C52.5853 40.6182 51.8237 40.9586 51.1794 40.8357C50.5252 40.7128 49.6173 40.0982 49.1779 39.5782C48.7386 39.0581 48.5238 38.4057 48.5433 37.7155C48.5628 37.0252 48.8264 35.9095 49.2658 35.4462C49.7051 34.9734 50.8474 35.0301 51.1794 34.8978C51.5211 34.7749 51.2868 34.6898 51.277 34.6708M51.7749 34.8978C52.4486 34.7843 53.2785 34.7465 53.7666 35.0396C54.2646 35.3327 54.7137 36.004 54.7234 36.6565C54.7234 37.2994 54.1376 38.3584 53.8057 38.9068C53.464 39.4647 53.337 39.72 52.7024 39.9753C52.0776 40.2211 50.6229 40.5804 50.0176 40.4008C49.4122 40.2211 49.4025 39.4363 49.0608 38.8785C48.719 38.3206 47.8989 37.5925 47.9673 37.0725C48.0356 36.5525 48.9045 36.1932 49.4708 35.7582C50.0273 35.3327 50.9353 34.6898 51.3258 34.5007C51.7261 34.3115 51.814 34.4817 51.8237 34.6236" fill="white"/>
<path d="M51.8726 34.9734C52.4876 34.9545 53.1906 35.0869 53.5811 35.5218C53.9716 35.9662 54.1669 36.9117 54.1962 37.602C54.2255 38.2922 54.1279 39.1621 53.7471 39.6727C53.3663 40.1738 52.5462 40.4953 51.9409 40.6466C51.3356 40.7979 50.6033 40.8262 50.1054 40.5709C49.6075 40.3157 49.2658 39.6916 48.9534 39.1148C48.6409 38.5381 48.0942 37.7816 48.2309 37.1008C48.3676 36.4295 49.1877 35.4178 49.7637 35.068C50.3495 34.7087 51.3356 35.0112 51.7261 34.9734C52.1264 34.9356 52.1655 34.8505 52.1459 34.8316M51.9409 34.7276C52.5365 34.7843 53.0149 35.6069 53.4932 36.0324C53.9619 36.4579 54.7527 36.7321 54.782 37.271C54.8113 37.81 54.1474 38.7083 53.669 39.2756C53.1808 39.8334 52.4388 40.4859 51.8726 40.6655C51.3063 40.8357 50.7791 40.6466 50.2812 40.3157C49.7832 39.9942 49.1681 39.2567 48.885 38.6988C48.6116 38.1315 48.5335 37.5925 48.6312 36.9496C48.7288 36.3161 48.9631 35.3043 49.4806 34.8788C49.998 34.4439 51.3356 34.425 51.7456 34.3777C52.1557 34.3304 51.8921 34.5006 51.9507 34.5857" stroke="#1E1E1E" stroke-width="0.5" stroke-linecap="round"/>
<path d="M63.713 35.6691C64.2891 35.6502 64.8163 35.9717 65.2556 36.4444C65.695 36.9266 66.1929 37.8816 66.3589 38.5246C66.5248 39.1581 66.4955 39.7254 66.2319 40.2549C65.9586 40.7844 65.3728 41.4936 64.7382 41.6827C64.1036 41.8718 63.0687 41.6448 62.4341 41.3706C61.8092 41.1059 61.2429 40.6709 60.95 40.0564C60.6474 39.4323 60.5205 38.2693 60.6571 37.6547C60.7938 37.0496 61.2527 36.7564 61.7799 36.4066C62.3071 36.0473 63.469 35.688 63.8107 35.5273C64.1426 35.3665 63.8204 35.3665 63.7911 35.4422M63.9864 35.3098C64.5917 35.1869 65.4314 35.4894 65.8024 35.9244C66.1734 36.3688 66.1245 37.3332 66.2124 37.9573C66.2905 38.5813 66.6322 39.1108 66.271 39.6687C65.9195 40.2266 64.6601 41.0964 64.0547 41.3234C63.4494 41.5503 63.2444 41.2666 62.6293 41.0208C62.024 40.7844 60.7255 40.3211 60.374 39.8767C60.0323 39.4228 60.3545 38.969 60.5498 38.3355C60.745 37.702 60.9696 36.5484 61.5456 36.0757C62.1216 35.6029 63.674 35.4989 64.0059 35.4894C64.3476 35.48 63.6935 35.8866 63.5666 36.0284" fill="white"/>
<path d="M63.7716 35.5745C64.3281 35.584 64.9725 36.1797 65.4118 36.6903C65.8414 37.2008 66.3198 38.0329 66.3784 38.657C66.4272 39.281 66.0757 39.9334 65.7242 40.444C65.363 40.9451 64.7772 41.5219 64.2402 41.6921C63.6935 41.8623 63.0979 41.7583 62.4633 41.4841C61.8287 41.2099 60.7548 40.6709 60.4521 40.028C60.1397 39.385 60.4033 38.2315 60.6181 37.6169C60.8329 37.0117 61.1258 36.7092 61.7213 36.3877C62.3169 36.0662 63.8302 35.8298 64.1719 35.688C64.5136 35.5462 63.7716 35.5178 63.7716 35.5462M63.5861 35.9527C64.25 35.9244 65.529 35.8393 65.9976 36.1986C66.4662 36.5673 66.437 37.4372 66.4077 38.1369C66.3784 38.8461 66.1245 39.8672 65.8121 40.4346C65.5094 40.9924 65.1092 41.399 64.5527 41.5314C63.9961 41.6543 63.0784 41.4652 62.4536 41.2099C61.8287 40.9641 61.1648 40.6426 60.7841 40.028C60.413 39.4134 60.042 38.2126 60.1885 37.5034C60.3349 36.7943 61.0281 36.104 61.6432 35.7636C62.2583 35.4138 63.4787 35.4611 63.8692 35.4232C64.2598 35.3949 63.9766 35.4043 64.0059 35.5651" stroke="#1E1E1E" stroke-width="0.5" stroke-linecap="round"/>
<path d="M64.9422 49.2579C65.5182 49.2957 66.4457 49.8819 67.012 50.3169C67.5685 50.7518 68.125 51.2529 68.291 51.877C68.457 52.4916 68.3691 53.5222 68.0078 54.0517C67.6466 54.5812 66.7777 54.8932 66.1235 55.054C65.4792 55.2147 64.6884 55.3093 64.0928 55.0067C63.4875 54.7041 62.8333 53.7964 62.5307 53.248C62.228 52.6901 62.1206 52.2836 62.2671 51.6879C62.4135 51.1017 62.8724 50.175 63.3898 49.7212C63.9073 49.2673 65.0496 49.0309 65.3718 48.9742C65.694 48.9175 65.3425 49.2295 65.3327 49.3619M65.5963 48.7946C66.0943 48.8229 66.4555 49.4281 66.9046 49.863C67.3537 50.298 68.2519 50.7518 68.3007 51.4042C68.3496 52.0472 67.5587 53.2007 67.217 53.7491C66.8656 54.2975 66.8363 54.5245 66.2017 54.6852C65.5768 54.8554 64.0733 54.8838 63.4387 54.7419C62.8138 54.5907 62.6478 54.3826 62.4233 53.8059C62.1987 53.2291 61.8863 51.9621 62.1109 51.2718C62.3354 50.5816 63.2141 49.9386 63.7511 49.655C64.2783 49.3713 65.0984 49.551 65.3034 49.5604C65.5182 49.5699 65.0789 49.7495 65.0203 49.6928" fill="white"/>
<path d="M65.2155 49.4092C65.8111 49.5037 66.7288 49.9954 67.178 50.4492C67.6271 50.9125 67.8419 51.5271 67.9004 52.1512C67.959 52.7752 67.8321 53.683 67.5294 54.203C67.2268 54.723 66.7581 55.1485 66.0747 55.2904C65.401 55.4322 64.0733 55.3944 63.4484 55.0351C62.8236 54.6758 62.5697 53.7397 62.3549 53.1629C62.1304 52.5767 61.8961 52.1228 62.1304 51.5461C62.3647 50.9787 63.2043 50.1372 63.7511 49.7306C64.2978 49.3146 65.03 49.1539 65.401 49.0782C65.7623 49.0026 65.899 49.1917 65.9576 49.2673M65.3718 48.8797C66.0161 48.7473 66.475 49.1728 66.9046 49.6455C67.3342 50.1278 67.7637 51.0638 67.959 51.7352C68.1543 52.4065 68.33 53.1724 68.0859 53.7019C67.8419 54.2314 67.1291 54.6569 66.475 54.9121C65.8306 55.158 64.9031 55.4511 64.1709 55.2053C63.4484 54.9594 62.4721 54.0612 62.1011 53.4182C61.7301 52.7658 61.7691 51.9337 61.9449 51.3191C62.1206 50.7045 62.6185 50.0899 63.1653 49.7117C63.7218 49.3335 64.9031 49.0782 65.2546 49.0782C65.6158 49.0688 65.4108 49.5793 65.3132 49.6739" stroke="#1E1E1E" stroke-width="0.5" stroke-linecap="round"/>
<path d="M40.8864 63.782C41.5893 63.7537 42.5852 63.8482 43.1612 64.2548C43.7372 64.6614 44.2547 65.588 44.3523 66.212C44.4499 66.8361 44.118 67.4602 43.7568 67.9802C43.3955 68.4908 42.8 69.1527 42.1946 69.3039C41.5796 69.4552 40.7009 69.1054 40.0858 68.8879C39.4707 68.6799 38.8263 68.5475 38.5041 68.0275C38.182 67.5074 38.0453 66.4579 38.1527 65.7676C38.2698 65.0774 38.6604 64.2548 39.1485 63.886C39.6367 63.5078 40.7399 63.5456 41.0914 63.5362C41.4331 63.5173 41.2086 63.7064 41.2281 63.7915M40.3689 63.3187C40.9547 63.2147 42.3411 63.1485 42.8585 63.5173C43.3857 63.8766 43.3076 64.8883 43.5029 65.5124C43.6982 66.1364 44.3035 66.7037 44.0496 67.2616C43.786 67.8289 42.5461 68.5191 41.931 68.9068C41.3257 69.2945 40.9254 69.7578 40.3592 69.5971C39.8026 69.4363 38.8654 68.5475 38.553 67.9613C38.2308 67.3751 38.3967 66.6375 38.4456 66.0986C38.4846 65.5596 38.4944 65.0963 38.8263 64.7276C39.1485 64.3588 40.1346 64.1413 40.3982 63.8955C40.6618 63.6402 40.2713 63.2053 40.3787 63.2242" fill="white"/>
<path d="M40.7204 63.7631C41.3452 63.6875 42.0775 63.8293 42.6242 64.2075C43.1612 64.5763 43.747 65.38 43.9813 66.0135C44.2156 66.647 44.3621 67.4507 44.0106 68.0086C43.6689 68.5664 42.5656 69.1905 41.9212 69.3701C41.2769 69.5403 40.7497 69.2472 40.1639 69.0676C39.5781 68.8785 38.7092 68.7461 38.3967 68.245C38.0843 67.7438 38.2405 66.7699 38.3089 66.0702C38.3674 65.3705 38.2991 64.5101 38.797 64.0752C39.2852 63.6308 40.8571 63.4984 41.2671 63.4133C41.6772 63.3187 41.2866 63.5173 41.2378 63.5457M41.1988 63.2336C41.7455 63.3377 42.5363 63.9617 43.0635 64.4723C43.5908 64.9734 44.2644 65.6731 44.3816 66.2783C44.4987 66.8928 44.2058 67.5831 43.786 68.122C43.3564 68.661 42.5851 69.408 41.8431 69.5214C41.0914 69.6349 39.9393 69.181 39.3145 68.8028C38.6896 68.4246 38.2796 67.81 38.0843 67.2427C37.889 66.6754 37.9086 65.9568 38.1429 65.38C38.3772 64.8127 38.9239 64.0752 39.5 63.8199C40.076 63.574 41.3355 63.8955 41.5698 63.8671C41.8041 63.8482 40.9059 63.7064 40.8863 63.678" stroke="#1E1E1E" stroke-width="0.5" stroke-linecap="round"/>
<path d="M34.4165 49.4903C35.1097 49.4525 36.0372 49.9914 36.5253 50.398C37.0037 50.8141 37.2478 51.3436 37.3161 51.9392C37.3943 52.5349 37.3064 53.4805 36.9744 53.9627C36.6522 54.4449 35.9688 54.6245 35.344 54.842C34.7289 55.0595 33.8795 55.4566 33.2644 55.2675C32.6591 55.0689 32.0147 54.2936 31.6925 53.679C31.3606 53.055 31.1946 52.1378 31.2922 51.5421C31.3801 50.9559 31.7511 50.4548 32.2588 50.1427C32.7567 49.8212 33.9674 49.7361 34.3286 49.67C34.6898 49.6038 34.4848 49.7078 34.4458 49.7456M33.9088 49.0081C34.4848 48.8946 34.7777 49.4336 35.344 49.774C35.9102 50.1238 37.1014 50.502 37.3161 51.0788C37.5212 51.665 36.8573 52.5727 36.5937 53.263C36.3301 53.9627 36.2227 54.946 35.7247 55.2391C35.2268 55.5323 34.1626 55.2202 33.5964 55.0217C33.0203 54.8231 32.7079 54.4449 32.3076 54.0478C31.9073 53.6506 31.2922 53.1684 31.1849 52.6295C31.0775 52.0905 31.2727 51.4097 31.6535 50.8235C32.0245 50.2373 33.0301 49.3012 33.4402 49.1216C33.8502 48.9419 34.0748 49.6038 34.1041 49.7456" fill="white"/>
<path d="M34.2115 49.547C34.8558 49.547 35.7833 50.0387 36.3301 50.502C36.8866 50.9653 37.5114 51.6839 37.531 52.3175C37.5407 52.9415 36.8475 53.8019 36.4375 54.2558C36.0274 54.7096 35.6564 54.8515 35.0706 55.0217C34.4751 55.1919 33.4304 55.4944 32.8837 55.2675C32.3369 55.0311 32.0636 54.2842 31.7609 53.6412C31.468 53.0077 30.931 52.0527 31.1068 51.4287C31.2727 50.8046 32.171 50.2278 32.7665 49.8874C33.3718 49.5565 34.4165 49.5281 34.7094 49.4336C35.0023 49.339 34.5141 49.2445 34.5044 49.3296M33.694 49.5376C34.3774 49.4809 35.5686 49.6416 36.1836 49.9631C36.8085 50.2846 37.2576 50.833 37.4138 51.4665C37.5602 52.0905 37.4529 53.2063 37.0819 53.7452C36.7206 54.2842 35.8322 54.53 35.2073 54.7096C34.5922 54.8893 33.9381 54.9744 33.3718 54.842C32.8056 54.7096 32.171 54.3598 31.8292 53.8965C31.4973 53.4332 31.2923 52.5727 31.3606 52.0527C31.429 51.5232 31.8878 51.145 32.2198 50.7384C32.5615 50.3224 33.0985 49.7834 33.3914 49.5565C33.6843 49.339 33.8893 49.3863 33.9869 49.4241" stroke="#1E1E1E" stroke-width="0.5" stroke-linecap="round"/>
<path d="M48.7832 49.7267C49.3886 49.7929 49.9743 50.0482 50.3746 50.4926C50.7652 50.9464 51.1362 51.8541 51.1557 52.4215C51.1655 52.9888 50.8628 53.4332 50.443 53.9249C50.0329 54.426 49.3007 55.2581 48.6563 55.3999C48.0217 55.5512 47.1821 55.1824 46.606 54.8042C46.03 54.426 45.4442 53.6979 45.1904 53.1306C44.9268 52.5728 44.8487 51.9582 45.0635 51.4476C45.2782 50.937 45.864 50.3697 46.4498 50.086C47.0454 49.7929 48.3146 49.7929 48.627 49.7267C48.9297 49.67 48.3927 49.7456 48.3146 49.7172M47.3383 49.3674C47.9631 49.3107 49.4764 49.3107 49.9939 49.67C50.5113 50.0293 50.3356 50.8046 50.4625 51.5232C50.5797 52.2324 50.9409 53.4237 50.7261 53.9721C50.5016 54.5205 49.6717 54.6529 49.1445 54.8326C48.6173 55.0028 48.1779 55.1068 47.5628 55.0217C46.9478 54.9366 45.9324 54.738 45.4442 54.3125C44.9658 53.8776 44.6534 53.159 44.6729 52.4215C44.7022 51.6934 44.9951 50.3602 45.5711 49.8969C46.1472 49.4336 47.7874 49.6889 48.1291 49.6511C48.4708 49.6132 47.6312 49.5849 47.6214 49.6605" fill="white"/>
<path d="M48.3927 49.6889C49.1054 49.7551 50.1403 50.1711 50.5211 50.6439C50.9116 51.1072 50.7456 51.9393 50.7261 52.5066C50.7066 53.0644 50.7554 53.5183 50.3942 54.01C50.0232 54.5111 49.1054 55.3148 48.5099 55.4661C47.9143 55.6268 47.4066 55.3337 46.8208 54.965C46.2253 54.5962 45.2099 53.8492 44.9756 53.2535C44.7315 52.6484 45.1318 51.9203 45.4052 51.3625C45.6688 50.7952 46.0886 50.2089 46.5963 49.8591C47.104 49.5187 48.0901 49.3201 48.4415 49.2918C48.793 49.2634 48.754 49.6511 48.7051 49.7078M48.0119 49.4998C48.6954 49.3863 49.5057 49.5281 49.9939 49.9158C50.482 50.3035 50.9116 51.2585 50.9702 51.8352C51.0288 52.4026 50.648 52.8564 50.3356 53.3292C50.0232 53.7925 49.6131 54.3598 49.0957 54.634C48.5782 54.9082 47.7972 55.0879 47.2309 54.965C46.6549 54.842 46.0105 54.3031 45.6688 53.887C45.3173 53.4805 45.2197 53.0739 45.1709 52.4877C45.122 51.9109 44.9268 50.9275 45.3661 50.4075C45.8152 49.8874 47.4262 49.4998 47.8362 49.358C48.2463 49.2161 47.8557 49.5943 47.8362 49.5754" stroke="#1E1E1E" stroke-width="0.5" stroke-linecap="round"/>
<path d="M41.0131 39.4634C41.5989 39.4161 42.4971 39.8984 42.9755 40.2671C43.4637 40.6264 43.8347 41.0141 43.9225 41.6476C44.0104 42.2811 43.8347 43.5008 43.493 44.0587C43.1415 44.6166 42.4776 44.8908 41.843 45.0137C41.2181 45.1366 40.3394 45.0042 39.7048 44.7962C39.08 44.5882 38.377 44.2383 38.0744 43.775C37.7717 43.3023 37.7034 42.5553 37.8693 41.9691C38.0256 41.3923 38.5723 40.6831 39.0507 40.286C39.5389 39.8889 40.4859 39.7565 40.7788 39.5958C41.0717 39.4256 40.7788 39.2365 40.7885 39.2743M40.5445 39.1136C41.14 38.9717 41.3646 39.2459 41.8918 39.6714C42.419 40.1064 43.4148 41.1086 43.698 41.6854C43.9811 42.2716 43.7468 42.6593 43.5906 43.1699C43.4246 43.6805 43.2782 44.3613 42.7119 44.7489C42.1554 45.1461 40.9838 45.581 40.2223 45.5526C39.4607 45.5243 38.6211 45.1839 38.1622 44.5882C37.7034 43.983 37.3421 42.612 37.4593 41.9596C37.5764 41.2977 38.4063 41.033 38.8554 40.6453C39.3045 40.2482 39.8708 39.7471 40.1539 39.6147C40.4468 39.4918 40.5152 39.87 40.564 39.87" fill="white"/>
<path d="M41.2767 39.643C41.8527 39.643 42.1847 40.078 42.6143 40.4467C43.0439 40.8155 43.7468 41.2221 43.8542 41.8461C43.9616 42.4796 43.5711 43.6521 43.2489 44.2005C42.9267 44.7584 42.5752 45.0799 41.9406 45.1839C41.2962 45.2879 39.988 45.1177 39.4022 44.8435C38.8066 44.5787 38.6114 44.106 38.3868 43.5765C38.1623 43.0375 37.9572 42.2811 38.0549 41.6476C38.1623 41.0235 38.4454 40.1442 38.9824 39.8038C39.5096 39.4634 40.935 39.662 41.2474 39.5958C41.5501 39.5201 40.9057 39.3783 40.8374 39.3783M41.1889 39.3688C41.7649 39.3878 42.5264 40.0118 42.8974 40.3995C43.2684 40.7777 43.3563 41.1464 43.4149 41.6665C43.4637 42.1865 43.4734 42.9713 43.2001 43.5103C42.9267 44.0587 42.3311 44.6733 41.7746 44.9002C41.2084 45.1366 40.4078 45.042 39.8318 44.9097C39.2655 44.7678 38.7578 44.6071 38.3478 44.0965C37.9377 43.5954 37.2543 42.5458 37.3812 41.8556C37.4984 41.1654 38.4552 40.3427 39.0702 39.9551C39.6756 39.558 40.73 39.6525 41.0424 39.4918C41.3548 39.331 40.9448 39.0001 40.9252 38.9906" stroke="#1E1E1E" stroke-width="0.5" stroke-linecap="round"/>
<path d="M30.5659 35.4918C31.1907 35.4823 31.9425 35.5674 32.3721 36.0496C32.8017 36.5318 33.1141 37.7043 33.1336 38.3662C33.1531 39.028 32.8895 39.5765 32.4795 40.0019C32.0597 40.418 31.3079 40.7489 30.644 40.9097C29.9801 41.0609 29.0721 41.146 28.4961 40.938C27.92 40.7205 27.4026 40.1816 27.1878 39.6237C26.9828 39.0753 27.0511 38.2433 27.2171 37.6287C27.3831 37.0235 27.6662 36.3806 28.1641 35.974C28.6621 35.5674 29.8239 35.2648 30.2144 35.1986C30.5952 35.1325 30.478 35.539 30.4682 35.5769M29.4529 35.2081C30.0387 35.2648 31.3372 35.9267 31.9132 36.3049C32.4892 36.6926 32.7138 36.9573 32.9091 37.4963C33.1043 38.0447 33.3874 38.9051 33.0848 39.5481C32.7821 40.1911 31.8058 41.042 31.0833 41.3541C30.3609 41.6755 29.3943 41.7795 28.7206 41.4675C28.0567 41.1555 27.3147 40.0492 27.0804 39.4819C26.8461 38.9146 27.2073 38.612 27.3245 38.0731C27.4514 37.5341 27.344 36.6453 27.8127 36.2576C28.2813 35.87 29.7848 35.8889 30.1558 35.7376C30.5171 35.5769 30.107 35.3405 29.9996 35.3027" fill="white"/>
<path d="M30.0875 35.6052C30.6635 35.5768 31.7765 35.6619 32.2549 36.1253C32.7236 36.5886 32.87 37.7232 32.9384 38.3851C33.0067 39.0469 33.0946 39.671 32.6845 40.0965C32.2745 40.5314 31.1029 40.8529 30.4683 40.9758C29.8337 41.0987 29.4041 41.0893 28.8964 40.834C28.3789 40.5787 27.6955 40.0303 27.3831 39.4346C27.0804 38.8389 26.8656 37.8272 27.0609 37.2504C27.2464 36.6831 28.0177 36.3333 28.5449 36.0023C29.0624 35.6714 29.902 35.3972 30.1949 35.2932C30.4878 35.1797 30.273 35.2554 30.3121 35.3499M30.1168 35.5958C30.6245 35.5296 31.1517 35.5107 31.591 35.8227C32.0401 36.1347 32.6455 36.8439 32.8114 37.4679C32.9774 38.1014 32.8895 39.0186 32.6064 39.5954C32.3233 40.1721 31.7082 40.6165 31.1224 40.9191C30.5366 41.2217 29.8044 41.5904 29.1014 41.4108C28.3887 41.2311 27.1878 40.4558 26.8559 39.8223C26.5337 39.1982 26.9145 38.2622 27.139 37.6381C27.3636 37.0141 27.7346 36.5413 28.2227 36.078C28.7109 35.6241 29.7751 35.0379 30.0875 34.8866C30.3999 34.7353 30.0192 35.0001 30.0875 35.1608" stroke="#1E1E1E" stroke-width="0.5" stroke-linecap="round"/>
<path d="M17.2223 37.7013C17.8373 37.6918 18.6672 38.4482 19.1554 38.9021C19.6338 39.3465 20.0536 39.8382 20.1317 40.396C20.2098 40.9539 20.0145 41.6536 19.6435 42.2209C19.2725 42.7882 18.5403 43.5068 17.9155 43.7905C17.2906 44.0741 16.49 44.1214 15.914 43.9229C15.338 43.7243 14.801 43.1664 14.4495 42.5991C14.098 42.0318 13.7368 41.2186 13.8051 40.5189C13.8637 39.8287 14.2835 38.8264 14.8303 38.4199C15.3673 38.0227 16.7146 38.2118 17.0758 38.0984C17.4273 37.9944 16.9587 37.7202 16.9684 37.7769M16.6951 38.3159C17.3687 38.2024 18.0229 37.9849 18.6379 38.2591C19.253 38.5333 20.1708 39.2425 20.366 39.9422C20.5613 40.6419 20.1805 41.767 19.7998 42.4289C19.419 43.1002 18.7258 43.7905 18.0912 43.9701C17.4566 44.1403 16.5193 43.6392 15.9921 43.469C15.4649 43.2894 15.2794 43.3366 14.9084 42.9206C14.5471 42.4951 13.7856 41.5401 13.8051 40.935C13.8247 40.3298 14.5471 39.8003 15.0353 39.2898C15.5235 38.7886 16.5388 38.1267 16.7439 37.9093C16.9391 37.6918 16.2557 37.8998 16.2362 37.9755" fill="white"/>
<path d="M17.4175 37.8431C18.0716 37.8809 18.677 38.6751 19.1554 39.1668C19.6435 39.6585 20.3172 40.2542 20.3367 40.812C20.3465 41.3699 19.6435 42.0412 19.253 42.5235C18.8625 43.0151 18.5696 43.5635 17.9935 43.7337C17.4273 43.9134 16.4705 43.8756 15.8359 43.573C15.2013 43.261 14.4397 42.4667 14.1859 41.9183C13.932 41.3699 14.1468 40.8499 14.303 40.2542C14.4593 39.668 14.6155 38.7602 15.1232 38.3726C15.6211 37.9849 16.9001 37.9471 17.3199 37.9376C17.7397 37.9282 17.6225 38.2118 17.6518 38.3064M16.5779 37.7296C17.1637 37.5783 18.1888 37.8714 18.7648 38.278C19.3409 38.6846 19.8485 39.5072 20.034 40.1596C20.2098 40.8215 20.1219 41.5685 19.829 42.2209C19.5459 42.8733 19.0187 43.7999 18.306 44.0741C17.5932 44.3389 16.1776 44.1214 15.543 43.8377C14.9181 43.5541 14.7619 42.9111 14.5276 42.3627C14.2933 41.8143 14.059 41.2375 14.1468 40.5473C14.2347 39.8571 14.5764 38.7035 15.0548 38.2402C15.5332 37.7674 16.6169 37.7391 17.0075 37.7485C17.4077 37.758 17.437 38.1173 17.4468 38.278" stroke="#1E1E1E" stroke-width="0.5" stroke-linecap="round"/>
<path d="M13.3946 25.3866C14.0195 25.415 14.8396 25.5473 15.3082 25.9066C15.7769 26.2659 16.1381 26.8995 16.1869 27.5613C16.2357 28.2137 15.9819 29.2349 15.6206 29.8495C15.2594 30.4641 14.6248 31.0314 14.0292 31.2489C13.4337 31.4664 12.6819 31.4191 12.0375 31.1543C11.3932 30.8991 10.534 30.3317 10.1728 29.6982C9.80177 29.0553 9.68461 27.9395 9.85058 27.306C10.0166 26.682 10.6316 26.3132 11.1686 25.9256C11.7056 25.5284 12.6819 25.0368 13.0529 24.9611C13.4239 24.876 13.3751 25.4055 13.3849 25.4528M12.9065 25.0178C13.5899 24.8666 14.8591 25.1975 15.3863 25.6703C15.9135 26.1336 16.06 27.1358 16.0795 27.8355C16.1088 28.5447 15.894 29.4618 15.5425 29.9157C15.2008 30.3601 14.4881 30.3412 13.9902 30.5587C13.502 30.7761 13.1701 31.3245 12.5648 31.23C11.9692 31.126 10.7683 30.4641 10.3973 29.963C10.0166 29.4618 10.2021 28.8756 10.329 28.2043C10.4461 27.5235 10.7488 26.4267 11.1198 25.9161C11.481 25.4055 12.223 25.2353 12.5159 25.1408C12.8088 25.0557 12.8284 25.3677 12.8772 25.3771" fill="white"/>
<path d="M13.4044 25.4812C14.0585 25.5474 15.1911 25.7932 15.6206 26.1903C16.0502 26.578 15.9331 27.2115 15.9721 27.8355C16.0112 28.4501 16.1771 29.3389 15.855 29.8779C15.523 30.4168 14.7029 30.9274 14.0097 31.0598C13.3263 31.1827 12.2914 30.8991 11.7154 30.6438C11.1296 30.3885 10.8074 30.0859 10.5145 29.5186C10.2216 28.9513 9.83106 27.8828 9.95798 27.2304C10.0947 26.578 10.6805 25.9067 11.276 25.6135C11.8813 25.3204 13.1994 25.4812 13.5899 25.4623C13.9804 25.4433 13.6289 25.4906 13.5997 25.5095M13.1994 24.8571C13.8926 24.876 14.7712 25.3772 15.2887 25.8594C15.8061 26.3416 16.226 27.0224 16.3138 27.7504C16.4017 28.488 16.3138 29.6793 15.8354 30.2466C15.357 30.8045 14.0976 31.0598 13.4532 31.1449C12.8088 31.2395 12.4671 31.0503 11.9692 30.7856C11.481 30.5114 10.7879 30.1615 10.495 29.5186C10.2021 28.8851 10.0458 27.6275 10.2021 26.9562C10.3485 26.2943 10.7879 25.7743 11.3932 25.5284C12.0083 25.2732 13.4923 25.4339 13.8437 25.4717C14.1952 25.519 13.4923 25.7365 13.4825 25.7743" stroke="#1E1E1E" stroke-width="0.5" stroke-linecap="round"/>
<path d="M41.1705 29.7876C41.1635 29.986 41.135 30.7893 41.128 30.9877" stroke="#1E1E1E" stroke-width="0.5" stroke-linecap="round"/>
<path d="M39.4701 30.2333C39.7606 30.034 40.6482 28.9911 41.2327 29.029C41.8175 29.0574 42.6833 30.214 42.9774 30.4511" stroke="#1E1E1E" stroke-width="0.5" stroke-linecap="round"/>
<path d="M42.9084 30.6062C42.608 30.7918 41.6319 31.8572 41.0858 31.7279C40.5389 31.608 39.8759 30.164 39.6302 29.849" stroke="#1E1E1E" stroke-width="0.5" stroke-linecap="round"/>
<path d="M41.5248 27.0482C42.1497 26.9631 43.126 27.1522 43.6337 27.4737C44.1414 27.7952 44.444 28.457 44.571 28.9771C44.7076 29.4971 44.6588 30.0266 44.4343 30.6034C44.2097 31.1707 43.8094 32.1257 43.2334 32.4094C42.6574 32.693 41.6127 32.4283 40.9976 32.3054C40.3728 32.1824 39.8846 32.1635 39.4941 31.6718C39.1036 31.1707 38.6545 29.9604 38.6642 29.3175C38.674 28.6651 39.0352 28.1923 39.5527 27.7573C40.0701 27.3319 41.437 26.8591 41.7494 26.7551C42.0618 26.6511 41.4858 27.0671 41.4467 27.1238M41.9544 26.4525C42.6769 26.4525 43.9949 27.3697 44.4636 27.9086C44.942 28.457 44.7662 29.0527 44.7858 29.7051C44.8053 30.3576 44.942 31.3787 44.5905 31.842C44.2488 32.2959 43.4482 32.3999 42.7062 32.4661C41.9642 32.5323 40.734 32.5039 40.1287 32.2486C39.5136 32.0028 39.2598 31.5773 39.045 30.9627C38.8302 30.3481 38.6837 29.2418 38.8204 28.5421C38.9669 27.8519 39.3476 27.1806 39.9041 26.8118C40.4509 26.4431 41.6908 26.254 42.1594 26.3201C42.6183 26.3958 42.6769 27.0766 42.6769 27.2373" fill="white"/>
<path d="M41.8177 26.7929C42.3742 26.6794 43.0674 26.7267 43.6044 27.1144C44.1414 27.4926 44.9029 28.4759 45.0396 29.0905C45.186 29.7146 44.776 30.3008 44.444 30.8209C44.1218 31.3504 43.6044 31.9366 43.0674 32.2581C42.5304 32.589 41.8372 32.8727 41.2417 32.7686C40.6461 32.6552 39.9041 32.1541 39.5038 31.6151C39.1133 31.0761 38.8009 30.2346 38.8692 29.5349C38.9376 28.8258 39.4746 27.8708 39.9041 27.398C40.3435 26.9158 41.2124 26.7551 41.476 26.6605C41.7299 26.566 41.437 26.7645 41.437 26.8496M41.2905 26.8969C41.8861 26.7456 43.2529 26.9064 43.868 27.2751C44.4928 27.6533 44.8736 28.5705 45.0103 29.1189C45.1372 29.6673 44.9615 30.055 44.6588 30.5656C44.3464 31.0761 43.6727 31.8042 43.1553 32.1635C42.6281 32.5323 42.1301 32.8254 41.5151 32.7592C40.9097 32.693 39.8553 32.3337 39.4843 31.7948C39.1231 31.2463 39.2598 30.1779 39.3281 29.5066C39.4062 28.8352 39.5038 28.1923 39.9334 27.7668C40.363 27.3318 41.681 27.0576 41.9056 26.9253C42.1301 26.8023 41.2807 26.9442 41.2905 26.9915" stroke="#1E1E1E" stroke-width="0.5" stroke-linecap="round"/>
<path fill-rule="evenodd" clip-rule="evenodd" d="M41.8077 27.8414C41.6515 28.0967 40.8314 28.7869 40.8412 29.3826C40.8607 29.9688 41.7296 31.0373 41.9151 31.3777" fill="white"/>
<path d="M41.8077 27.8414C41.6515 28.0967 40.8314 28.7869 40.8412 29.3826C40.8607 29.9688 41.7296 31.0373 41.9151 31.3777" stroke="#1E1E1E" stroke-width="0.5" stroke-linecap="round"/>
<path fill-rule="evenodd" clip-rule="evenodd" d="M41.7946 27.8666C41.9508 28.1219 42.7709 28.8121 42.7611 29.4078C42.7416 29.9941 41.8727 31.0625 41.6872 31.4029" fill="white"/>
<path d="M41.7946 27.8666C41.9508 28.1219 42.7709 28.8121 42.7611 29.4078C42.7416 29.9941 41.8727 31.0625 41.6872 31.4029" stroke="#1E1E1E" stroke-width="0.5" stroke-linecap="round"/>
<path d="M41.9139 29.3847C41.9039 29.413 41.8839 29.5454 41.8839 29.5832" stroke="#1E1E1E" stroke-width="0.5" stroke-linecap="round"/>
</svg>
