<svg width="83" height="119" viewBox="0 0 83 119" fill="none" xmlns="http://www.w3.org/2000/svg">
<path d="M21.2467 1.99027C37.2387 -0.846197 51.4647 1.34734 60.4505 1.99027C76.1611 0.288389 78.2184 7.27555 80.0524 21.0891C83.2547 54.9754 82.4105 79.6621 80.0524 98.1937C79.9845 112.404 72.5222 117.557 60.4505 117.293C46.341 114.948 29.1068 113.596 21.2467 117.293C11.3293 118.484 3.72139 110.92 1.64476 98.1937C-0.412474 77.1755 4.80823 60.5349 1.64476 21.0891C0.509398 7.82393 5.49721 -1.29058 21.2467 1.99027Z" fill="white"/>
<path d="M21.2467 1.99025C34.5896 2.82228 52.2604 2.79392 60.4505 1.99025M21.2467 1.99025C35.9869 2.63318 50.0091 2.29281 60.4505 1.99025M21.2467 1.99025C8.43751 0.269464 -0.0340063 7.75773 1.64477 21.0891M21.2467 1.99025C8.35988 3.70159 2.65398 6.64206 1.64477 21.0891M60.4505 1.99025C74.7638 2.71828 80.3144 9.29888 80.0524 21.0891M60.4505 1.99025C71.4547 3.7205 80.819 8.79777 80.0524 21.0891M80.0524 21.0891C80.6055 43.1852 78.7521 62.6244 80.0524 98.1937M80.0524 21.0891C81.246 37.8243 80.722 54.8241 80.0524 98.1937M80.0524 98.1937C78.7909 110.078 75.1422 117.226 60.4505 117.293M80.0524 98.1937C81.0713 110.258 72.6289 115.373 60.4505 117.293M60.4505 117.293C47.9616 116.791 35.9287 117.992 21.2467 117.293M60.4505 117.293C51.0474 116.99 40.9165 116.895 21.2467 117.293M21.2467 117.293C8.10758 118.541 -0.237789 109.076 1.64477 98.1937M21.2467 117.293C9.28175 119.25 0.431782 110.807 1.64477 98.1937M1.64477 98.1937C2.58605 66.3402 2.42108 37.1057 1.64477 21.0891M1.64477 98.1937C2.11056 81.8746 1.965 66.1984 1.64477 21.0891" stroke="#1E1E1E" stroke-width="2" stroke-linecap="round"/>
<path d="M10.1989 85.4037C20.8635 85.4037 63.5413 85.4037 74.2059 85.4037" stroke="#1E1E1E" stroke-width="2" stroke-linecap="round"/>
<path d="M22.5348 1.88324C33.1315 1.88324 43.7184 1.88324 57.8473 1.88324C60.2539 1.88324 61.4669 3.05565 61.4669 5.40991C61.4669 6.8376 61.4669 8.27474 61.4669 12.4538C61.4669 14.7986 60.2539 15.971 57.8473 15.971C46.4355 15.971 35.0237 15.971 22.5348 15.971C20.1185 15.971 18.9152 14.7986 18.9152 12.4538C18.9152 10.2792 18.9152 8.11401 18.9152 5.40991C18.9152 3.05565 20.1185 1.88324 22.5348 1.88324Z" fill="white"/>
<path d="M22.5348 1.88324C35.965 1.88324 49.3952 1.88324 57.8473 1.88324M22.5348 1.88324C33.0053 1.88324 43.4855 1.88324 57.8473 1.88324M22.5348 1.88324C20.1185 1.88324 18.9152 3.05565 18.9152 5.40991M57.8473 1.88324C60.2539 1.88324 61.4669 3.05565 61.4669 5.40991M61.4669 5.40991C61.4669 7.58453 61.4669 9.75916 61.4669 12.4538M61.4669 5.40991C61.4669 6.82814 61.4669 8.25583 61.4669 12.4538M61.4669 12.4538C61.4669 14.7986 60.2539 15.971 57.8473 15.971M57.8473 15.971C45.7951 15.971 33.7331 15.971 22.5348 15.971M57.8473 15.971C50.4627 15.971 43.0877 15.971 22.5348 15.971M22.5348 15.971C20.1185 15.971 18.9152 14.7986 18.9152 12.4538M18.9152 12.4538C18.9152 10.5628 18.9152 8.67185 18.9152 5.40991M18.9152 12.4538C18.9152 10.8465 18.9152 9.23914 18.9152 5.40991" stroke="#1E1E1E" stroke-width="2" stroke-linecap="round"/>
<path d="M27.5985 6.65533C27.6102 6.66119 27.6278 6.66412 27.6512 6.66412C27.7157 6.66412 27.7479 6.62164 27.7479 6.53668V5.16998C27.7479 4.99713 27.786 4.87408 27.8622 4.80084C27.9413 4.7276 28.0717 4.69098 28.2533 4.69098C28.4379 4.69098 28.5682 4.72906 28.6444 4.80524C28.7206 4.88141 28.7587 5.01178 28.7587 5.19635C28.7587 5.26666 28.7543 5.37067 28.7455 5.50836C28.7367 5.64313 28.7264 5.79694 28.7147 5.96979C28.7059 6.14264 28.6971 6.32867 28.6884 6.52789C28.6796 6.72418 28.6752 6.91901 28.6752 7.11237C28.6752 7.41119 28.6957 7.66901 28.7367 7.8858C28.7777 8.1026 28.8363 8.28278 28.9125 8.42633C28.9886 8.56696 29.0795 8.67242 29.1849 8.74274C29.2904 8.81012 29.4091 8.84381 29.5409 8.84381C29.6141 8.84381 29.6801 8.83502 29.7386 8.81744C29.8002 8.79694 29.8719 8.78668 29.954 8.78668C30.0126 8.78668 30.0609 8.81744 30.099 8.87897C30.14 8.93756 30.1605 9.00934 30.1605 9.0943C30.1605 9.17047 30.1371 9.24225 30.0902 9.30963C30.0463 9.37701 29.9847 9.43561 29.9056 9.48541C29.8295 9.53522 29.7401 9.57477 29.6376 9.60406C29.535 9.63043 29.4281 9.64362 29.3168 9.64362C29.0765 9.64362 28.8568 9.57037 28.6576 9.42389C28.4584 9.27448 28.309 9.04742 28.2094 8.74274C28.2006 8.69586 28.1859 8.67242 28.1654 8.67242C28.142 8.67242 28.1229 8.69586 28.1083 8.74274C28.0292 8.9566 27.9252 9.14996 27.7963 9.32281C27.6703 9.49274 27.5223 9.63922 27.3524 9.76227C27.1854 9.88239 27.0009 9.97467 26.7987 10.0391C26.5995 10.1036 26.3885 10.1358 26.1659 10.1358C25.9315 10.1358 25.7162 10.0963 25.5199 10.0172C25.3265 9.94098 25.1595 9.83405 25.0189 9.69635C24.8783 9.55573 24.7684 9.39166 24.6893 9.20416C24.6102 9.01373 24.5707 8.80865 24.5707 8.58893C24.5707 8.30768 24.6293 8.04254 24.7465 7.79352C24.8636 7.54449 25.0219 7.3277 25.2211 7.14313C25.4232 6.95563 25.6576 6.80768 25.9242 6.69928C26.1908 6.59088 26.475 6.53668 26.7767 6.53668C26.8998 6.53668 27.0302 6.54694 27.1678 6.56744C27.3055 6.58502 27.4491 6.61432 27.5985 6.65533ZM26.3373 9.34479C26.5043 9.34479 26.6522 9.30817 26.7811 9.23492C26.913 9.16168 27.0287 9.0694 27.1283 8.95807C27.2308 8.84381 27.3173 8.7193 27.3876 8.58453C27.4579 8.44684 27.515 8.31354 27.559 8.18463C27.6029 8.05573 27.6351 7.94 27.6556 7.83746C27.6761 7.73492 27.6864 7.66168 27.6864 7.61774C27.6864 7.58551 27.6776 7.55768 27.66 7.53424C27.6425 7.50787 27.6161 7.48737 27.5809 7.47272C27.5018 7.45221 27.4198 7.43463 27.3348 7.41998C27.2499 7.4024 27.1664 7.38776 27.0844 7.37604C27.0023 7.36432 26.9232 7.35553 26.847 7.34967C26.7738 7.34381 26.7064 7.34088 26.6449 7.34088C26.4691 7.34088 26.3094 7.36725 26.1659 7.41998C26.0223 7.47272 25.8993 7.54742 25.7968 7.6441C25.6971 7.74078 25.6195 7.85651 25.5638 7.99127C25.5082 8.12311 25.4803 8.26813 25.4803 8.42633C25.4803 8.56696 25.5009 8.6944 25.5419 8.80865C25.5858 8.91998 25.6444 9.0152 25.7177 9.0943C25.7938 9.1734 25.8846 9.23492 25.9901 9.27887C26.0956 9.32281 26.2113 9.34479 26.3373 9.34479ZM29.9891 8.40875C29.9891 8.35895 29.995 8.30328 30.0067 8.24176C30.0184 8.18024 30.0243 8.11285 30.0243 8.03961C30.0243 7.98981 30.0023 7.95172 29.9584 7.92535C29.9174 7.89899 29.8705 7.86969 29.8177 7.83746C29.765 7.80524 29.7167 7.76422 29.6727 7.71442C29.6317 7.66461 29.6112 7.59283 29.6112 7.49908C29.6112 7.4317 29.6288 7.36432 29.6639 7.29694C29.702 7.22955 29.7562 7.16803 29.8265 7.11237C29.9994 6.98346 30.1781 6.86774 30.3627 6.7652C30.5502 6.66266 30.7362 6.57623 30.9208 6.50592C31.1083 6.43561 31.2928 6.38141 31.4745 6.34332C31.6561 6.30524 31.8304 6.28619 31.9974 6.28619C32.2787 6.28619 32.5424 6.33893 32.7885 6.4444C33.0375 6.54694 33.2528 6.68903 33.4344 6.87067C33.619 7.04938 33.764 7.26031 33.8695 7.50348C33.9779 7.74371 34.0321 8.00153 34.0321 8.27692C34.0321 8.54645 33.975 8.8028 33.8607 9.04596C33.7494 9.28619 33.5985 9.49713 33.4081 9.67877C33.2177 9.86041 32.9935 10.004 32.7357 10.1094C32.4808 10.2178 32.2113 10.272 31.9271 10.272C31.6488 10.272 31.391 10.2252 31.1537 10.1314C30.9164 10.0377 30.7113 9.90875 30.5385 9.74469C30.3656 9.5777 30.2308 9.38141 30.1342 9.15582C30.0375 8.92731 29.9891 8.67828 29.9891 8.40875ZM32.0238 9.48102C32.1469 9.48102 32.2743 9.45612 32.4061 9.40631C32.538 9.35651 32.6581 9.28473 32.7665 9.19098C32.8778 9.0943 32.9686 8.97711 33.0389 8.83942C33.1122 8.70172 33.1488 8.54645 33.1488 8.3736C33.1488 8.19781 33.1166 8.03375 33.0521 7.88141C32.9877 7.72906 32.8983 7.59723 32.7841 7.4859C32.6727 7.37164 32.5394 7.28229 32.3842 7.21783C32.2318 7.15338 32.0663 7.12115 31.8876 7.12115C31.5624 7.12115 31.3134 7.20612 31.1405 7.37604C30.9677 7.54303 30.8812 7.80084 30.8812 8.14948C30.8812 8.3399 30.9091 8.51715 30.9647 8.68121C31.0233 8.84235 31.1039 8.98297 31.2064 9.10309C31.309 9.22028 31.4291 9.31256 31.5668 9.37994C31.7074 9.44733 31.8597 9.48102 32.0238 9.48102ZM34.3881 5.96979C34.3881 5.78229 34.4891 5.66803 34.6913 5.62701L34.8802 5.59186C34.9008 5.586 34.9183 5.58307 34.933 5.58307C34.9506 5.58307 34.9667 5.58307 34.9813 5.58307C35.16 5.58307 35.2655 5.68561 35.2977 5.89069C35.3094 5.9903 35.3241 6.11627 35.3417 6.26862C35.3593 6.42096 35.3812 6.58795 35.4076 6.76959C35.4369 6.95123 35.4691 7.14166 35.5043 7.34088C35.5424 7.5401 35.5848 7.73639 35.6317 7.92975C35.6786 8.12018 35.7313 8.30182 35.7899 8.47467C35.8485 8.64752 35.9144 8.79987 35.9877 8.9317C36.0609 9.06354 36.14 9.16901 36.225 9.24811C36.3129 9.32428 36.4081 9.36237 36.5106 9.36237C36.5839 9.36237 36.6571 9.34039 36.7303 9.29645C36.8065 9.2525 36.8812 9.19537 36.9545 9.12506C37.0277 9.05182 37.098 8.96979 37.1654 8.87897C37.2328 8.78815 37.2943 8.69586 37.35 8.60211C37.4056 8.50836 37.4554 8.41901 37.4994 8.33405C37.5463 8.24615 37.5829 8.16998 37.6093 8.10553C37.6268 8.04987 37.6356 7.9986 37.6356 7.95172C37.6356 7.92828 37.6342 7.90485 37.6312 7.88141C37.6283 7.85797 37.6239 7.83307 37.618 7.8067C37.5624 7.62506 37.5199 7.44342 37.4906 7.26178C37.4613 7.08014 37.4467 6.88385 37.4467 6.67291C37.4467 6.54987 37.4569 6.42828 37.4774 6.30817C37.4979 6.18805 37.5331 6.07819 37.5829 5.97858C37.6093 5.92584 37.6488 5.88043 37.7015 5.84235C37.7543 5.80426 37.8114 5.7735 37.8729 5.75006C37.9374 5.72662 38.0033 5.71051 38.0707 5.70172C38.141 5.69 38.2054 5.68414 38.264 5.68414C38.3285 5.68414 38.3871 5.69733 38.4398 5.72369C38.4926 5.74713 38.5394 5.78815 38.5804 5.84674C38.6625 5.95807 38.7196 6.08551 38.7518 6.22906C38.787 6.37262 38.8046 6.51764 38.8046 6.66412C38.8046 6.82233 38.7899 6.98492 38.7606 7.15192C38.7313 7.31598 38.6962 7.48004 38.6552 7.6441C38.6346 7.68512 38.6244 7.73053 38.6244 7.78033C38.6244 7.80377 38.6273 7.82867 38.6332 7.85504C38.642 7.88141 38.6522 7.91071 38.6639 7.94293C38.7167 8.08063 38.7782 8.22125 38.8485 8.36481C38.9218 8.50543 39.0052 8.63287 39.099 8.74713C39.1927 8.86139 39.2982 8.95514 39.4154 9.02838C39.5326 9.10162 39.6659 9.13824 39.8153 9.13824C39.9471 9.13824 40.0658 9.08258 40.1713 8.97125C40.2767 8.85992 40.3646 8.7193 40.4349 8.54938C40.5082 8.37946 40.5638 8.19489 40.6019 7.99567C40.64 7.79352 40.6591 7.60162 40.6591 7.41998C40.6591 7.22662 40.6517 7.03619 40.6371 6.84869C40.6224 6.66119 40.6034 6.48834 40.58 6.33014C40.5741 6.31549 40.5712 6.30084 40.5712 6.28619C40.5712 6.27155 40.5712 6.2569 40.5712 6.24225C40.5712 6.07526 40.6605 5.961 40.8392 5.89948L41.037 5.83356C41.0927 5.81598 41.1439 5.80719 41.1908 5.80719C41.3461 5.80719 41.4398 5.90387 41.472 6.09723C41.5043 6.27887 41.5292 6.46051 41.5468 6.64215C41.5673 6.82379 41.5775 7.00543 41.5775 7.18707C41.5775 7.57379 41.5321 7.93707 41.4413 8.27692C41.3505 8.61676 41.223 8.91412 41.059 9.16901C40.8978 9.42096 40.7059 9.62018 40.4833 9.76666C40.2606 9.91315 40.016 9.98639 39.7494 9.98639C39.4886 9.98639 39.2264 9.90875 38.9628 9.75348C38.6991 9.59528 38.4603 9.34479 38.2465 9.00201C38.2054 8.92584 38.1586 8.88776 38.1058 8.88776C38.056 8.88776 38.0106 8.92584 37.9696 9.00201C37.8671 9.18365 37.7543 9.35211 37.6312 9.50739C37.5082 9.65973 37.3778 9.79156 37.2401 9.90289C37.1024 10.0142 36.9589 10.1006 36.8094 10.1622C36.66 10.2237 36.5092 10.2545 36.3568 10.2545C36.1107 10.2545 35.8939 10.1871 35.7064 10.0523C35.5219 9.92047 35.3607 9.74323 35.223 9.52057C35.0883 9.29791 34.974 9.04303 34.8802 8.75592C34.7865 8.46588 34.7074 8.16559 34.6429 7.85504C34.5814 7.54156 34.5302 7.22809 34.4891 6.91461C34.451 6.60114 34.4174 6.30817 34.3881 6.03571V5.96979ZM42.14 5.6358C42.14 5.3194 42.3451 5.16119 42.7552 5.16119C42.8256 5.16119 42.8871 5.18024 42.9398 5.21832C42.9926 5.25641 43.0233 5.30914 43.0321 5.37653C43.0585 5.55524 43.0819 5.73248 43.1024 5.90826C43.1229 6.08405 43.142 6.2818 43.1595 6.50153C43.1801 6.71832 43.1991 6.97028 43.2167 7.25739C43.2372 7.54156 43.2592 7.88141 43.2826 8.27692C43.2826 8.31793 43.2885 8.34723 43.3002 8.36481C43.3148 8.38239 43.3309 8.39117 43.3485 8.39117C43.3749 8.39117 43.4012 8.36481 43.4276 8.31207C43.5272 8.09235 43.6385 7.89606 43.7616 7.72321C43.8846 7.54742 44.0165 7.39948 44.1571 7.27936C44.2977 7.15631 44.4457 7.06403 44.601 7.0025C44.7592 6.93805 44.9203 6.90582 45.0844 6.90582C45.3011 6.90582 45.4974 6.96735 45.6732 7.09039C45.849 7.21344 45.9984 7.38776 46.1215 7.61334C46.2445 7.83893 46.3397 8.11285 46.4071 8.43512C46.4745 8.75446 46.5082 9.11188 46.5082 9.50739C46.5082 9.61578 46.4994 9.70514 46.4818 9.77545C46.4672 9.84283 46.4408 9.89703 46.4027 9.93805C46.3646 9.97906 46.3119 10.0069 46.2445 10.0215C46.1771 10.0391 46.0936 10.0479 45.994 10.0479C45.8563 10.0479 45.7567 10.0215 45.6952 9.96881C45.6366 9.91608 45.6073 9.83405 45.6073 9.72272C45.6073 9.44733 45.5883 9.18805 45.5502 8.94489C45.515 8.69879 45.4652 8.48346 45.4008 8.29889C45.3363 8.11432 45.2601 7.96783 45.1722 7.85944C45.0873 7.75104 44.995 7.69684 44.8954 7.69684C44.6698 7.69684 44.4442 7.87994 44.2186 8.24615C43.996 8.61237 43.7631 9.16461 43.5199 9.90289C43.4965 9.97028 43.4701 10.0259 43.4408 10.0699C43.4115 10.1138 43.3763 10.149 43.3353 10.1754C43.2972 10.2017 43.2504 10.2193 43.1947 10.2281C43.139 10.2398 43.0731 10.2457 42.9969 10.2457C42.8417 10.2457 42.7303 10.2164 42.663 10.1578C42.5985 10.0992 42.5634 10.0025 42.5575 9.86774C42.5399 9.35797 42.5077 8.87164 42.4608 8.40875C42.4169 7.94293 42.37 7.52252 42.3202 7.14752C42.2733 6.76959 42.2308 6.45026 42.1927 6.18951C42.1576 5.92584 42.14 5.74127 42.14 5.6358ZM47.7562 5.38531C47.6713 5.38531 47.5907 5.3736 47.5145 5.35016C47.4413 5.32379 47.3768 5.28864 47.3212 5.24469C47.2684 5.19781 47.226 5.14362 47.1937 5.08209C47.1615 5.02057 47.1454 4.95319 47.1454 4.87994C47.1454 4.7569 47.1937 4.65729 47.2904 4.58112C47.39 4.50494 47.5219 4.46686 47.6859 4.46686C47.7621 4.46686 47.8353 4.48151 47.9056 4.5108C47.976 4.53717 48.0375 4.57379 48.0902 4.62067C48.1459 4.66754 48.1898 4.72321 48.222 4.78766C48.2543 4.84918 48.2704 4.91364 48.2704 4.98102C48.2704 5.10699 48.2235 5.2066 48.1298 5.27985C48.0389 5.35016 47.9144 5.38531 47.7562 5.38531ZM47.1542 6.72565C47.1542 6.62311 47.1981 6.53961 47.286 6.47516C47.3768 6.40778 47.4955 6.37408 47.642 6.37408C47.9056 6.37408 48.0463 6.4649 48.0638 6.64655C48.0756 6.77252 48.0873 6.91461 48.099 7.07281C48.1136 7.23102 48.1268 7.39948 48.1385 7.57819C48.1532 7.75397 48.1649 7.93707 48.1737 8.1275C48.1854 8.315 48.1957 8.50104 48.2045 8.68561C48.2133 8.86725 48.2206 9.04303 48.2264 9.21295C48.2323 9.38287 48.2352 9.53815 48.2352 9.67877C48.2352 9.82526 48.1825 9.93512 48.077 10.0084C47.9745 10.0816 47.8236 10.1182 47.6244 10.1182C47.5336 10.1182 47.4618 10.0963 47.4091 10.0523C47.3593 10.0113 47.3344 9.94977 47.3344 9.86774C47.3344 9.46344 47.3241 9.08551 47.3036 8.73395C47.286 8.37946 47.2655 8.06451 47.2421 7.78912C47.2216 7.51373 47.201 7.28522 47.1805 7.10358C47.163 6.91901 47.1542 6.79303 47.1542 6.72565ZM48.8109 4.86237C48.8109 4.71002 48.8549 4.60162 48.9427 4.53717C49.0306 4.47272 49.1757 4.44049 49.3778 4.44049C49.4481 4.44049 49.5096 4.44781 49.5624 4.46246C49.6151 4.47711 49.6591 4.50201 49.6942 4.53717C49.7294 4.5694 49.7572 4.61481 49.7777 4.6734C49.8011 4.72906 49.8202 4.80084 49.8348 4.88873C49.8729 5.14948 49.911 5.4234 49.9491 5.71051C49.9901 5.99469 50.0282 6.27887 50.0634 6.56305C50.1014 6.8443 50.1366 7.11969 50.1688 7.38922C50.201 7.65582 50.2289 7.90485 50.2523 8.13629C50.2787 8.36481 50.2977 8.56842 50.3094 8.74713C50.3241 8.92291 50.3314 9.06207 50.3314 9.16461C50.3314 9.27008 50.3212 9.35944 50.3007 9.43268C50.2831 9.50592 50.2509 9.56451 50.204 9.60846C50.16 9.6524 50.1014 9.68463 50.0282 9.70514C49.9579 9.72272 49.87 9.73151 49.7645 9.73151C49.662 9.73151 49.58 9.70514 49.5184 9.6524C49.4598 9.59967 49.4305 9.5191 49.4305 9.41071C49.4305 9.29938 49.4218 9.15143 49.4042 8.96686C49.3866 8.77936 49.3632 8.57135 49.3339 8.34283C49.3046 8.11432 49.2709 7.87115 49.2328 7.61334C49.1976 7.35553 49.1595 7.10065 49.1185 6.84869C49.0804 6.59674 49.0424 6.35504 49.0043 6.1236C48.9691 5.88922 48.9369 5.68268 48.9076 5.50397C48.8783 5.32233 48.8549 5.17438 48.8373 5.06012C48.8197 4.94293 48.8109 4.87701 48.8109 4.86237ZM54.7743 8.90533C54.8593 8.83209 54.9427 8.79547 55.0248 8.79547C55.0717 8.79547 55.1141 8.80719 55.1522 8.83063C55.1903 8.85406 55.2328 8.89069 55.2797 8.94049C55.3236 9.00787 55.3544 9.06354 55.3719 9.10748C55.3925 9.1485 55.4027 9.18951 55.4027 9.23053C55.4027 9.31842 55.3588 9.40192 55.2709 9.48102C55.1302 9.59821 54.9779 9.70367 54.8138 9.79742C54.6498 9.88824 54.4784 9.96588 54.2997 10.0303C54.121 10.0948 53.9364 10.1431 53.746 10.1754C53.5555 10.2105 53.3666 10.2281 53.1791 10.2281C52.9418 10.2281 52.7191 10.1973 52.5111 10.1358C52.3031 10.0772 52.1171 9.99225 51.953 9.88092C51.7919 9.76959 51.6556 9.63629 51.5443 9.48102C51.433 9.32281 51.3539 9.14557 51.307 8.94928C51.2806 8.86725 51.2557 8.81451 51.2323 8.79108C51.2118 8.76471 51.1766 8.75153 51.1268 8.75153C51.0184 8.75153 50.9349 8.72516 50.8763 8.67242C50.8177 8.61969 50.7885 8.54352 50.7885 8.44391C50.7885 8.40289 50.7914 8.37653 50.7972 8.36481L50.806 8.27692C50.8207 8.17145 50.8485 8.09528 50.8895 8.0484C50.9335 8.00153 51.0009 7.97809 51.0917 7.97809H51.1576C51.2806 7.97809 51.3671 7.92096 51.4169 7.8067C51.5077 7.60455 51.6234 7.41998 51.764 7.25299C51.9047 7.086 52.0629 6.94391 52.2386 6.82672C52.4144 6.7066 52.6019 6.61432 52.8011 6.54987C53.0033 6.48248 53.2084 6.44879 53.4164 6.44879C53.6332 6.44879 53.8353 6.48102 54.0228 6.54547C54.2133 6.60699 54.3788 6.69342 54.5194 6.80475C54.66 6.91608 54.7699 7.04645 54.849 7.19586C54.931 7.34528 54.972 7.50641 54.972 7.67926C54.972 7.79938 54.9486 7.90924 54.9017 8.00885C54.8549 8.10846 54.7875 8.19635 54.6996 8.27252C54.6117 8.34576 54.5048 8.40582 54.3788 8.4527C54.2557 8.49957 54.1151 8.53033 53.9569 8.54498L52.432 8.69879C52.3734 8.69879 52.3251 8.71344 52.287 8.74274C52.2518 8.77203 52.2343 8.81158 52.2343 8.86139C52.2343 8.93756 52.2621 9.0108 52.3177 9.08112C52.3763 9.15143 52.4525 9.21442 52.5463 9.27008C52.6429 9.32281 52.7528 9.3653 52.8759 9.39752C53.0018 9.42975 53.1307 9.44586 53.2626 9.44586C53.3885 9.44586 53.5175 9.43414 53.6493 9.41071C53.7841 9.38434 53.9159 9.34772 54.0448 9.30084C54.1766 9.25397 54.3041 9.1983 54.4271 9.13385C54.5502 9.06647 54.6659 8.9903 54.7743 8.90533ZM53.7943 7.77155C53.8383 7.76276 53.8763 7.74225 53.9086 7.71002C53.9408 7.67487 53.9569 7.63239 53.9569 7.58258C53.9569 7.53864 53.9408 7.49762 53.9086 7.45953C53.8763 7.42145 53.8324 7.38776 53.7767 7.35846C53.7211 7.32623 53.6566 7.30133 53.5834 7.28375C53.5101 7.26617 53.4325 7.25739 53.3505 7.25739C53.2303 7.25739 53.1073 7.27496 52.9813 7.31012C52.8553 7.34528 52.7411 7.39215 52.6385 7.45074C52.536 7.50641 52.4525 7.5694 52.3881 7.63971C52.3236 7.70709 52.2914 7.77448 52.2914 7.84186C52.2914 7.90924 52.3324 7.94293 52.4144 7.94293C52.4642 7.94293 52.5448 7.93707 52.6561 7.92535C52.7675 7.91364 52.8905 7.90045 53.0253 7.8858C53.16 7.86823 53.2963 7.84918 53.434 7.82867C53.5717 7.80817 53.6918 7.78912 53.7943 7.77155Z" fill="#1E1E1E"/>
<path d="M42.6872 54.8886C43.9099 56.0704 44.2204 57.2617 45.1617 59.616C45.0549 60.8735 45.0646 62.0459 45.1617 64.3434C44.0845 65.2889 43.6867 66.7828 42.6872 67.7661C42.3475 71.8601 39.1355 70.9808 38.8056 67.7661C37.9419 66.5275 36.1758 65.1376 34.924 64.3434C32.236 62.2161 33.779 61.5732 34.924 59.616C36.3796 57.8857 37.1559 56.2973 38.8056 54.8886C41.5324 53.8107 41.3674 50.4069 42.6872 54.8886Z" fill="white"/>
<path d="M42.6871 54.8886C43.7934 56.9025 44.5115 58.6516 45.1616 59.616M42.6871 54.8886C43.5993 56.6755 44.3271 58.3491 45.1616 59.616M42.6871 54.8886C41.0569 51.5983 41.4839 53.1394 38.8056 54.8886M42.6871 54.8886C41.1927 51.9481 39.6789 52.2223 38.8056 54.8886M45.1616 59.616C46.8501 61.2801 46.2679 61.9608 45.1616 64.3435M45.1616 59.616C47.6361 62.3958 46.5881 63.0103 45.1616 64.3435M45.1616 64.3435C44.657 65.1093 43.8322 65.8468 42.6871 67.7661M45.1616 64.3435C44.6279 65.0998 44.0554 65.9981 42.6871 67.7661M42.6871 67.7661C40.1641 69.7895 40.2806 70.6593 38.8056 67.7661M42.6871 67.7661C39.9701 69.468 39.9215 71.0942 38.8056 67.7661M38.8056 67.7661C37.3403 66.2155 35.7003 65.0053 34.924 64.3435M38.8056 67.7661C37.6702 66.8112 36.7775 65.8657 34.924 64.3435M34.924 64.3435C32.9347 61.3935 33.2646 62.859 34.924 59.616M34.924 64.3435C32.6533 62.6699 33.614 61.2328 34.924 59.616M34.924 59.616C35.7877 58.0654 36.9812 56.9214 38.8056 54.8886M34.924 59.616C35.9235 58.1789 37.1753 56.8174 38.8056 54.8886" stroke="#1E1E1E" stroke-linecap="round"/>
<path d="M36.949 65.8145C36.2309 66.6371 33.1742 69.5776 32.3397 71.2322C31.5148 72.8868 32.1165 74.8439 31.9806 75.7421M36.4735 66.8073C35.6875 67.4597 32.7375 68.9157 31.9806 70.4569C31.214 72.0075 31.9418 75.2032 31.903 76.0825" stroke="#1E1E1E" stroke-linecap="round"/>
<path d="M45.0497 65.1591C45.7581 65.9533 47.9318 68.213 48.8148 70.0284C49.6979 71.8532 50.1152 75.2097 50.3578 76.0511M44.5645 66.0952C45.4573 66.965 48.8925 68.9694 49.8434 70.5011C50.7944 72.0234 50.1346 74.4627 50.2607 75.2664" stroke="#1E1E1E" stroke-linecap="round"/>
<path d="M38.1444 63.1121C37.8647 63.1121 37.6178 63.0414 37.4037 62.9002C37.1896 62.7574 37.0221 62.5564 36.9012 62.2971C36.7803 62.0364 36.7198 61.7283 36.7198 61.3729C36.7198 61.0204 36.7803 60.7146 36.9012 60.4553C37.0221 60.196 37.1903 59.9957 37.4059 59.8545C37.6215 59.7132 37.8705 59.6425 38.1531 59.6425C38.3716 59.6425 38.5442 59.6789 38.6709 59.7518C38.7991 59.8231 38.8967 59.9047 38.9637 59.9965C39.0321 60.0868 39.0853 60.1611 39.1232 60.2193H39.1669V58.5676H39.6825V63.0422H39.1844V62.5265H39.1232C39.0853 62.5877 39.0314 62.6649 38.9615 62.7581C38.8916 62.8499 38.7918 62.9322 38.6622 63.005C38.5325 63.0764 38.3599 63.1121 38.1444 63.1121ZM38.2143 62.6489C38.4211 62.6489 38.5959 62.595 38.7386 62.4872C38.8814 62.378 38.9899 62.2272 39.0642 62.035C39.1385 61.8412 39.1756 61.6176 39.1756 61.3642C39.1756 61.1137 39.1392 60.8945 39.0664 60.7066C38.9935 60.5172 38.8858 60.3701 38.743 60.2652C38.6003 60.1589 38.424 60.1057 38.2143 60.1057C37.9958 60.1057 37.8137 60.1618 37.6681 60.274C37.5239 60.3847 37.4153 60.5354 37.3425 60.7262C37.2711 60.9156 37.2355 61.1282 37.2355 61.3642C37.2355 61.6031 37.2719 61.8201 37.3447 62.0153C37.419 62.209 37.5282 62.3634 37.6724 62.4785C37.8181 62.5921 37.9987 62.6489 38.2143 62.6489ZM42.0618 63.1121C41.7589 63.1121 41.493 63.04 41.2643 62.8958C41.0371 62.7516 40.8594 62.5499 40.7312 62.2906C40.6045 62.0313 40.5412 61.7283 40.5412 61.3817C40.5412 61.0321 40.6045 60.7269 40.7312 60.4662C40.8594 60.2055 41.0371 60.003 41.2643 59.8588C41.493 59.7146 41.7589 59.6425 42.0618 59.6425C42.3648 59.6425 42.6299 59.7146 42.8571 59.8588C43.0858 60.003 43.2635 60.2055 43.3902 60.4662C43.5184 60.7269 43.5825 61.0321 43.5825 61.3817C43.5825 61.7283 43.5184 62.0313 43.3902 62.2906C43.2635 62.5499 43.0858 62.7516 42.8571 62.8958C42.6299 63.04 42.3648 63.1121 42.0618 63.1121ZM42.0618 62.6489C42.292 62.6489 42.4813 62.5899 42.6299 62.4719C42.7785 62.3539 42.8884 62.1988 42.9598 62.0066C43.0312 61.8143 43.0669 61.606 43.0669 61.3817C43.0669 61.1574 43.0312 60.9483 42.9598 60.7546C42.8884 60.5609 42.7785 60.4043 42.6299 60.2849C42.4813 60.1654 42.292 60.1057 42.0618 60.1057C41.8317 60.1057 41.6423 60.1654 41.4938 60.2849C41.3452 60.4043 41.2352 60.5609 41.1638 60.7546C41.0925 60.9483 41.0568 61.1574 41.0568 61.3817C41.0568 61.606 41.0925 61.8143 41.1638 62.0066C41.2352 62.1988 41.3452 62.3539 41.4938 62.4719C41.6423 62.5899 41.8317 62.6489 42.0618 62.6489Z" fill="#1E1E1E"/>
<path d="M33.2656 62.0627C31.5772 61.2874 25.0658 59.6423 22.8048 56.8342C20.5438 54.0355 18.7389 47.9466 19.6899 45.2709C20.6506 42.5951 27.1522 41.4794 28.5398 40.7798M34.1099 61.7507C32.3923 61.07 24.8329 60.3041 22.3681 57.4015C19.9131 54.5083 18.2925 47.0862 19.3502 44.3537C20.4177 41.6307 27.1716 41.5456 28.7436 41.0256" stroke="#1E1E1E" stroke-linecap="round"/>
<path d="M26.5101 42.2011L26.3931 41.4181C27.0973 41.3213 27.5666 41.1065 27.8009 40.7736C28.0394 40.4401 28.1071 39.9281 28.004 39.2377L27.7021 37.2171C27.6153 36.6361 27.595 36.1255 27.6411 35.6853C27.6915 35.2444 27.8224 34.8677 28.0339 34.5551C28.2454 34.2425 28.5519 33.9899 28.9535 33.7972C29.355 33.6046 29.8658 33.4657 30.4856 33.3805L30.6705 34.6182C30.1814 34.6854 29.8068 34.8142 29.547 35.0045C29.2913 35.1943 29.1283 35.4573 29.058 35.7935C28.9913 36.1248 28.9948 36.5368 29.0684 37.0293L29.4457 39.5552C29.4947 39.8835 29.4951 40.1885 29.4468 40.4701C29.4027 40.7511 29.2791 41.0044 29.0761 41.2299C28.8731 41.4554 28.5644 41.6503 28.1501 41.8147C27.7399 41.9784 27.1932 42.1072 26.5101 42.2011ZM32.9004 49.5459C32.2805 49.631 31.7497 49.6352 31.3079 49.5585C30.8661 49.4817 30.4979 49.3218 30.2034 49.0787C29.9089 48.8356 29.6729 48.5093 29.4956 48.0998C29.3224 47.6897 29.1925 47.1941 29.1057 46.6132L28.8038 44.5925C28.7007 43.9021 28.4859 43.429 28.1593 43.1731C27.837 42.9167 27.3237 42.8368 26.6195 42.9336L26.5026 42.1506C27.1857 42.0567 27.7481 42.0332 28.1897 42.0799C28.6355 42.126 28.9888 42.23 29.2497 42.3918C29.5106 42.5536 29.7033 42.7634 29.8279 43.0212C29.9566 43.2784 30.0456 43.5713 30.0946 43.8996L30.4719 46.4255C30.5455 46.918 30.6628 47.3143 30.8238 47.6144C30.989 47.9139 31.2221 48.1203 31.5231 48.2336C31.8289 48.3506 32.2263 48.3754 32.7155 48.3082L32.9004 49.5459ZM26.6195 42.9336L26.3931 41.4181L27.8859 41.213L28.1123 42.7285L26.6195 42.9336Z" fill="#1E1E1E"/>
<path d="M45.4841 62.0846C47.3181 61.1107 54.6349 59.2198 57.1094 56.1375C59.5839 53.0552 61.3403 46.1153 60.3311 43.5719C59.3219 41.0286 52.5679 41.4068 51.0444 40.8584M46.3865 63.0679C48.1526 62.1791 54.5669 59.7587 56.8571 56.5913C59.1569 53.4145 61.1171 46.8055 60.1661 44.0163C59.2054 41.2366 52.7232 40.5086 51.122 39.9034" stroke="#1E1E1E" stroke-linecap="round"/>
<path d="M53.175 39.815L53.1942 40.6064C52.4836 40.622 51.9914 40.7818 51.7178 41.0858C51.4399 41.3899 51.3094 41.8909 51.3263 42.5888L51.3758 44.6312C51.3901 45.2184 51.3471 45.7281 51.2469 46.1603C51.1424 46.5926 50.9659 46.952 50.7174 47.2384C50.4689 47.5248 50.1335 47.7408 49.7112 47.8863C49.289 48.0318 48.7651 48.1114 48.1396 48.1251L48.1093 46.8741C48.6029 46.8633 48.9904 46.7782 49.2718 46.6187C49.5489 46.4594 49.7432 46.2167 49.8545 45.8907C49.9616 45.5691 50.0092 45.1593 49.9971 44.6615L49.9352 42.1084C49.9272 41.7765 49.9645 41.4734 50.0473 41.1991C50.1258 40.9249 50.2797 40.6874 50.509 40.4865C50.7383 40.2856 51.0687 40.1273 51.5002 40.0114C51.9274 39.8955 52.4857 39.8301 53.175 39.815ZM47.7436 31.7855C48.3691 31.7718 48.8963 31.8283 49.3251 31.9551C49.7539 32.082 50.0994 32.283 50.3616 32.5582C50.6237 32.8335 50.8174 33.1847 50.9427 33.612C51.0638 34.0393 51.1314 34.5466 51.1456 35.1338L51.1951 37.1762C51.2121 37.8741 51.3667 38.3688 51.659 38.6604C51.9471 38.9521 52.4464 39.0902 53.1571 39.0746L53.1763 39.866C52.4869 39.8811 51.926 39.8402 51.4937 39.7433C51.057 39.6464 50.7193 39.5027 50.4805 39.3121C50.2418 39.1215 50.0765 38.891 49.9848 38.6205C49.8888 38.3501 49.8368 38.049 49.8288 37.7171L49.7669 35.164C49.7548 34.6662 49.6875 34.259 49.5649 33.9423C49.438 33.6258 49.2323 33.394 48.9477 33.247C48.6588 33.0958 48.2675 33.0257 47.7739 33.0365L47.7436 31.7855ZM53.1571 39.0746L53.1942 40.6064L51.6878 40.6395L51.6507 39.1076L53.1571 39.0746Z" fill="#1E1E1E"/>
<path fill-rule="evenodd" clip-rule="evenodd" d="M38.4208 41.95C37.596 41.9784 36.3151 42.8482 35.2573 42.7442C34.2093 42.6497 31.9968 42.0635 32.123 41.3733C32.2491 40.6736 34.0152 38.1397 36.0239 38.5652C38.0327 39.0001 42.2927 43.7843 44.1849 43.9545C46.0869 44.1152 47.5619 40.39 47.4163 39.5768C47.2708 38.7637 44.6895 38.5652 43.3407 39.0946C41.9822 39.6147 40.1481 41.9973 39.2942 42.7253" fill="white"/>
<path d="M39.5368 42.0446C39.0613 42.1675 37.0235 43.4155 35.9075 43.0184C34.7916 42.6213 32.5791 40.5602 32.8508 39.6525C33.1128 38.7448 35.5582 37.024 37.499 37.5913C39.4398 38.1492 42.8167 42.6213 44.4858 43.0373C46.1549 43.4533 47.4552 40.9667 47.494 40.0969C47.5231 39.227 46.0578 37.5062 44.6702 37.8371C43.2922 38.1775 40.0414 41.3355 39.1777 42.1108M39.1098 41.5907C38.6149 41.7704 36.5286 43.841 35.6552 43.5763C34.7722 43.3021 33.7533 40.9194 33.86 39.9739C33.957 39.0285 34.5781 37.4022 36.2375 37.9033C37.8968 38.4044 42.0695 42.4511 43.8259 42.9901C45.5726 43.5195 46.5527 42.0162 46.7565 41.0896C46.9603 40.1536 46.3683 37.2415 45.0389 37.3928C43.7095 37.544 39.7794 41.2125 38.7605 42.0067" stroke="#1E1E1E" stroke-linecap="round"/>
<path d="M36.423 39.5309C36.4521 39.8145 36.5685 40.968 36.5976 41.2611" stroke="#1E1E1E" stroke-width="0.5" stroke-linecap="round"/>
<path d="M44.3321 39.4034C44.3612 39.687 44.4777 40.8405 44.5068 41.1336" stroke="#1E1E1E" stroke-width="0.5" stroke-linecap="round"/>
<path d="M47.7177 76.0629C48.5037 76.1101 51.7545 76.3276 52.6667 76.3749M48.2902 76.6302C49.1733 76.5829 52.5114 75.9778 53.3072 75.8454" stroke="#1E1E1E" stroke-linecap="round"/>
<path d="M29.348 77.1794C30.2311 77.1511 33.6566 76.9809 34.5008 76.8769M29.9303 77.0282C30.7939 76.8863 33.5207 76.3663 34.2291 76.3285" stroke="#1E1E1E" stroke-linecap="round"/>
</svg>
