<svg width="83" height="120" viewBox="0 0 83 120" fill="none" xmlns="http://www.w3.org/2000/svg">
<path d="M22.3423 1.78174C34.2051 3.29978 52.9788 3.2049 61.7223 1.78174C77.7765 3.02463 81.6755 9.6281 81.4123 20.947C78.956 46.061 83.5568 73.8886 81.4123 98.3195C78.8877 111.308 71.5771 120.872 61.7223 117.485C56.6244 118.045 44.206 114.06 22.3423 117.485C11.3958 117.959 2.52559 110.711 2.6523 98.3195C-0.135489 77.6457 1.12194 56.0327 2.6523 20.947C-0.564381 7.45541 10.4601 4.89372 22.3423 1.78174Z" fill="white"/>
<path d="M22.3423 1.78173C33.7762 3.03411 43.0753 0.017009 61.7223 1.78173M22.3423 1.78173C35.4625 2.68307 48.105 1.68685 61.7223 1.78173M22.3423 1.78173C11.1424 1.89558 2.65232 7.15179 2.65232 20.947M22.3423 1.78173C8.28639 1.4971 1.48261 9.17268 2.65232 20.947M61.7223 1.78173C74.9595 2.24663 81.1394 8.78369 81.4124 20.947M61.7223 1.78173C76.5191 1.76275 79.804 9.04934 81.4124 20.947M81.4124 20.947C80.7788 49.6569 81.5586 81.1847 81.4124 98.3195M81.4124 20.947C80.7983 43.6227 82.6308 66.0232 81.4124 98.3195M81.4124 98.3195C82.0459 112.978 76.6166 119.05 61.7223 117.485M81.4124 98.3195C81.2174 110.227 76.2267 115.995 61.7223 117.485M61.7223 117.485C48.9531 117.437 32.5967 119.145 22.3423 117.485M61.7223 117.485C54.4799 117.997 45.2393 117.238 22.3423 117.485M22.3423 117.485C8.51058 117.124 2.10645 110.369 2.65232 98.3195M22.3423 117.485C10.0799 119.126 1.35589 109.411 2.65232 98.3195M2.65232 98.3195C1.1317 73.4806 2.1162 47.266 2.65232 20.947M2.65232 98.3195C2.74004 68.2908 1.94075 35.9945 2.65232 20.947" stroke="#1E1E1E" stroke-width="2" stroke-linecap="round"/>
<path d="M23.2705 1.58374C31.4779 1.58374 39.6951 1.58374 58.7417 1.58374C61.1591 1.58374 62.3776 2.76022 62.3776 5.12267C62.3776 7.46614 62.3776 9.8191 62.3776 12.191C62.3776 14.544 61.1591 15.7205 58.7417 15.7205C51.0314 15.7205 43.3211 15.7205 23.2705 15.7205C20.8433 15.7205 19.6346 14.544 19.6346 12.191C19.6346 10.6161 19.6346 9.0506 19.6346 5.12267C19.6346 2.76022 20.8433 1.58374 23.2705 1.58374Z" fill="white"/>
<path d="M23.2705 1.58374C36.6928 1.58374 50.1249 1.58374 58.7417 1.58374M23.2705 1.58374C31.3902 1.58374 39.5099 1.58374 58.7417 1.58374M23.2705 1.58374C20.8433 1.58374 19.6346 2.76022 19.6346 5.12267M58.7417 1.58374C61.1591 1.58374 62.3776 2.76022 62.3776 5.12267M62.3776 5.12267C62.3776 7.37126 62.3776 9.61986 62.3776 12.191M62.3776 5.12267C62.3776 7.32383 62.3776 9.53447 62.3776 12.191M62.3776 12.191C62.3776 14.544 61.1591 15.7205 58.7417 15.7205M58.7417 15.7205C48.1169 15.7205 37.4824 15.7205 23.2705 15.7205M58.7417 15.7205C45.836 15.7205 32.9303 15.7205 23.2705 15.7205M23.2705 15.7205C20.8433 15.7205 19.6346 14.544 19.6346 12.191M19.6346 12.191C19.6346 9.52498 19.6346 6.85893 19.6346 5.12267M19.6346 12.191C19.6346 9.92347 19.6346 7.66538 19.6346 5.12267" stroke="#1E1E1E" stroke-width="2" stroke-linecap="round"/>
<path d="M33.1747 6.97498C33.1128 6.97498 33.0412 6.98637 32.9598 7.00916C32.8785 7.02869 32.7938 7.0531 32.7059 7.0824C32.618 7.10844 32.5302 7.13285 32.4423 7.15564C32.3576 7.17517 32.2811 7.18494 32.2128 7.18494C32.1412 7.18494 32.0842 7.17354 32.0419 7.15076C32.0028 7.12472 31.9735 7.09216 31.954 7.0531C31.9344 7.01404 31.9231 6.97172 31.9198 6.92615C31.9165 6.88057 31.9149 6.83663 31.9149 6.79431C31.9149 6.67061 31.9507 6.5697 32.0223 6.49158C32.0972 6.41345 32.203 6.34835 32.3397 6.29626C32.4764 6.24093 32.6408 6.19535 32.8329 6.15955C33.0282 6.12048 33.2479 6.07817 33.4921 6.03259C33.8762 5.96098 34.2261 5.90564 34.5419 5.86658C34.8609 5.82751 35.1636 5.79985 35.4501 5.78357C35.7398 5.76404 36.023 5.75264 36.2997 5.74939C36.5764 5.74613 36.8677 5.74451 37.1737 5.74451C37.2649 5.74451 37.3365 5.7559 37.3885 5.77869C37.4406 5.80147 37.4781 5.83077 37.5009 5.86658C37.5269 5.90238 37.5415 5.94307 37.5448 5.98865C37.5513 6.03422 37.5546 6.07979 37.5546 6.12537C37.5546 6.17745 37.5464 6.23442 37.5302 6.29626C37.5171 6.35486 37.4927 6.4102 37.4569 6.46228C37.4244 6.51111 37.3788 6.5518 37.3202 6.58435C37.2649 6.6169 37.1965 6.63318 37.1151 6.63318H36.7245C36.5682 6.63318 36.4022 6.63481 36.2264 6.63806C36.0507 6.63806 35.8765 6.64132 35.704 6.64783C35.5315 6.65108 35.3654 6.65759 35.2059 6.66736C35.0497 6.67712 34.9097 6.69177 34.786 6.7113C34.6656 6.72758 34.5695 6.74874 34.4979 6.77478C34.4263 6.80082 34.3905 6.83337 34.3905 6.87244C34.3905 6.9115 34.4052 6.9766 34.4344 7.06775C34.4637 7.15889 34.4996 7.25818 34.5419 7.3656C34.5842 7.46977 34.6265 7.57393 34.6688 7.6781C34.7144 7.77901 34.7518 7.86365 34.7811 7.93201C34.8072 7.98735 34.8365 8.02478 34.869 8.04431C34.9016 8.06384 34.9455 8.07361 35.0009 8.07361C35.1343 8.07361 35.271 8.06547 35.411 8.04919C35.551 8.03292 35.691 8.01501 35.8309 7.99548C35.9742 7.9727 36.1158 7.95317 36.2557 7.93689C36.399 7.92061 36.5406 7.91248 36.6805 7.91248C36.7587 7.91248 36.8221 7.92712 36.871 7.95642C36.9231 7.98246 36.9637 8.01664 36.993 8.05896C37.0223 8.09802 37.0419 8.14034 37.0516 8.18591C37.0647 8.23149 37.0712 8.27055 37.0712 8.3031C37.0712 8.44958 37.0256 8.56026 36.9344 8.63513C36.8433 8.70675 36.7196 8.76046 36.5634 8.79626C36.4071 8.83207 36.2248 8.85649 36.0165 8.86951C35.8114 8.88253 35.5933 8.90043 35.3622 8.92322L35.245 8.93298C35.2027 8.93949 35.1701 8.95414 35.1473 8.97693C35.1246 8.99972 35.1132 9.02901 35.1132 9.06482C35.1132 9.07458 35.1148 9.08272 35.118 9.08923C35.1213 9.09574 35.1229 9.10388 35.1229 9.11365C35.1522 9.22107 35.1864 9.34151 35.2255 9.47498C35.2645 9.60518 35.3003 9.73539 35.3329 9.8656C35.3687 9.99581 35.398 10.1195 35.4208 10.2367C35.4436 10.3539 35.455 10.4499 35.455 10.5248C35.455 10.6745 35.398 10.7885 35.2841 10.8666C35.1734 10.9447 35.0155 10.9838 34.8104 10.9838C34.7356 10.9838 34.6623 10.9659 34.5907 10.9301C34.5223 10.8975 34.48 10.8357 34.4637 10.7445C34.4117 10.4776 34.3531 10.2172 34.288 9.96326C34.2229 9.7061 34.1545 9.45056 34.0829 9.19666C34.0536 9.10876 33.9966 9.06482 33.912 9.06482C33.8143 9.06482 33.7037 9.06156 33.58 9.05505C33.4595 9.04854 33.3358 9.03552 33.2089 9.01599C33.0819 8.99646 32.9582 8.97205 32.8378 8.94275C32.7206 8.9102 32.6148 8.86788 32.5204 8.8158C32.4292 8.76371 32.3544 8.70186 32.2958 8.63025C32.2404 8.55863 32.2128 8.474 32.2128 8.37634C32.2128 8.31449 32.2274 8.25427 32.2567 8.19568C32.286 8.13383 32.3234 8.08012 32.369 8.03455C32.4146 7.98572 32.4634 7.94666 32.5155 7.91736C32.5708 7.88806 32.6229 7.87341 32.6718 7.87341C32.7303 7.87341 32.7938 7.88806 32.8622 7.91736C32.9305 7.94666 33.0038 7.97921 33.0819 8.01501C33.16 8.05082 33.243 8.08337 33.3309 8.11267C33.4221 8.14197 33.5197 8.15662 33.6239 8.15662C33.676 8.15662 33.702 8.12895 33.702 8.07361C33.702 8.02153 33.6923 7.95317 33.6727 7.86853C33.6565 7.78389 33.6337 7.696 33.6044 7.60486C33.5751 7.51046 33.5409 7.41931 33.5018 7.33142C33.466 7.24028 33.427 7.16378 33.3846 7.10193C33.3586 7.06287 33.3309 7.03194 33.3016 7.00916C33.2756 6.98637 33.2333 6.97498 33.1747 6.97498ZM38.2675 5.56384C38.1731 5.56384 38.0835 5.55082 37.9989 5.52478C37.9175 5.49548 37.8459 5.45642 37.7841 5.40759C37.7255 5.35551 37.6783 5.29529 37.6425 5.22693C37.6066 5.15857 37.5887 5.0837 37.5887 5.00232C37.5887 4.8656 37.6425 4.75492 37.7499 4.67029C37.8606 4.58565 38.007 4.54333 38.1893 4.54333C38.274 4.54333 38.3553 4.55961 38.4335 4.59216C38.5116 4.62146 38.58 4.66215 38.6385 4.71423C38.7004 4.76632 38.7492 4.82817 38.785 4.89978C38.8208 4.96814 38.8387 5.03975 38.8387 5.11462C38.8387 5.2546 38.7867 5.36528 38.6825 5.44666C38.5816 5.52478 38.4432 5.56384 38.2675 5.56384ZM37.5985 7.0531C37.5985 6.93917 37.6473 6.84639 37.745 6.77478C37.8459 6.69991 37.9777 6.66248 38.1405 6.66248C38.4335 6.66248 38.5897 6.76339 38.6093 6.96521C38.6223 7.10518 38.6353 7.26306 38.6483 7.43884C38.6646 7.61462 38.6792 7.8018 38.6923 8.00037C38.7085 8.19568 38.7216 8.39913 38.7313 8.61072C38.7443 8.81905 38.7557 9.02576 38.7655 9.23083C38.7753 9.43266 38.7834 9.62797 38.7899 9.81677C38.7964 10.0056 38.7997 10.1781 38.7997 10.3344C38.7997 10.4971 38.7411 10.6192 38.6239 10.7006C38.51 10.7819 38.3423 10.8226 38.121 10.8226C38.0201 10.8226 37.9403 10.7982 37.8817 10.7494C37.8264 10.7038 37.7987 10.6355 37.7987 10.5443C37.7987 10.0951 37.7873 9.67517 37.7645 9.28455C37.745 8.89067 37.7222 8.54073 37.6962 8.23474C37.6734 7.92875 37.6506 7.67485 37.6278 7.47302C37.6083 7.26794 37.5985 7.12797 37.5985 7.0531ZM39.4393 4.98279C39.4393 4.81352 39.4882 4.69307 39.5858 4.62146C39.6835 4.54985 39.8446 4.51404 40.0692 4.51404C40.1473 4.51404 40.2157 4.52218 40.2743 4.53845C40.3329 4.55473 40.3817 4.5824 40.4208 4.62146C40.4598 4.65727 40.4908 4.70772 40.5135 4.77283C40.5396 4.83468 40.5608 4.91443 40.577 5.01208C40.6193 5.3018 40.6617 5.60616 40.704 5.92517C40.7496 6.24093 40.7919 6.55668 40.8309 6.87244C40.8733 7.18494 40.9123 7.49093 40.9481 7.79041C40.9839 8.08663 41.0149 8.36332 41.0409 8.62048C41.0702 8.87439 41.0913 9.10063 41.1044 9.29919C41.1206 9.49451 41.1288 9.64913 41.1288 9.76306C41.1288 9.88025 41.1174 9.97953 41.0946 10.0609C41.0751 10.1423 41.0393 10.2074 40.9872 10.2562C40.9384 10.3051 40.8733 10.3409 40.7919 10.3636C40.7137 10.3832 40.6161 10.3929 40.4989 10.3929C40.385 10.3929 40.2938 10.3636 40.2255 10.3051C40.1604 10.2465 40.1278 10.1569 40.1278 10.0365C40.1278 9.9128 40.118 9.74841 40.0985 9.54333C40.079 9.335 40.0529 9.10388 40.0204 8.84998C39.9878 8.59607 39.9504 8.32589 39.9081 8.03943C39.869 7.75297 39.8267 7.46977 39.7811 7.18982C39.7388 6.90987 39.6965 6.64132 39.6542 6.38416C39.6151 6.12374 39.5793 5.89425 39.5468 5.69568C39.5142 5.49386 39.4882 5.32947 39.4686 5.20251C39.4491 5.07231 39.4393 4.99906 39.4393 4.98279ZM44.9764 6.27673C45.1555 6.27673 45.328 6.3044 45.494 6.35974C45.66 6.41508 45.8065 6.49158 45.9335 6.58923C46.0604 6.68689 46.1613 6.80408 46.2362 6.9408C46.3143 7.07751 46.3534 7.22888 46.3534 7.3949C46.3534 7.46326 46.3371 7.52999 46.3046 7.59509C46.2753 7.65694 46.2346 7.71228 46.1825 7.76111C46.1304 7.80668 46.0702 7.84412 46.0018 7.87341C45.9367 7.89945 45.8684 7.91248 45.7968 7.91248C45.7902 7.91248 45.7837 7.9141 45.7772 7.91736C45.774 7.91736 45.7691 7.91736 45.7626 7.91736C45.7561 7.92061 45.7496 7.92224 45.743 7.92224L45.7626 8.31287C45.7756 8.77836 45.8407 9.11853 45.9579 9.33337C46.0783 9.54822 46.2346 9.65564 46.4266 9.65564C46.495 9.65564 46.5552 9.64913 46.6073 9.63611C46.6626 9.62309 46.7131 9.60844 46.7587 9.59216C46.8075 9.57263 46.8531 9.55636 46.8954 9.54333C46.9377 9.53031 46.98 9.5238 47.0223 9.5238C47.0972 9.5238 47.1623 9.55636 47.2177 9.62146C47.2762 9.68656 47.3055 9.76469 47.3055 9.85583C47.3055 9.94698 47.2697 10.0381 47.1981 10.1293C47.1298 10.2204 47.0386 10.3034 46.9247 10.3783C46.8108 10.4499 46.6822 10.5085 46.5389 10.5541C46.3957 10.5997 46.2509 10.6224 46.1044 10.6224C45.8505 10.6224 45.6275 10.5183 45.4354 10.3099C45.2434 10.0983 45.1066 9.7891 45.0253 9.3822C45.0057 9.3171 44.9797 9.28455 44.9471 9.28455C44.9081 9.28455 44.8739 9.30408 44.8446 9.34314C44.5223 9.75004 44.1789 10.056 43.8143 10.2611C43.4497 10.4629 43.09 10.5638 42.7352 10.5638C42.5692 10.5638 42.4195 10.5394 42.286 10.4906C42.1525 10.4418 42.0386 10.3734 41.9442 10.2855C41.8531 10.1944 41.7815 10.0853 41.7294 9.95837C41.6805 9.82817 41.6561 9.68331 41.6561 9.5238C41.6561 9.29919 41.705 9.06319 41.8026 8.8158C41.9035 8.5684 42.0386 8.32426 42.2079 8.08337C42.3772 7.84249 42.5725 7.613 42.7938 7.3949C43.0184 7.1768 43.2528 6.98474 43.4969 6.81873C43.7443 6.65271 43.995 6.52087 44.2489 6.42322C44.5028 6.32556 44.7453 6.27673 44.9764 6.27673ZM44.8153 7.96619C44.8739 7.85551 44.9276 7.77576 44.9764 7.72693C45.0253 7.67485 45.0953 7.64067 45.1864 7.62439C45.258 7.61462 45.2938 7.59184 45.2938 7.55603C45.2938 7.52999 45.2841 7.50232 45.2645 7.47302C45.2027 7.38839 45.1376 7.31514 45.0692 7.2533C45.0009 7.18819 44.9097 7.15564 44.7958 7.15564C44.6721 7.15564 44.5337 7.19145 44.3807 7.26306C44.2277 7.33468 44.0715 7.4307 43.912 7.55115C43.7557 7.66833 43.6011 7.80343 43.4481 7.95642C43.2984 8.10616 43.1649 8.26078 43.0477 8.42029C42.9305 8.57979 42.8361 8.73767 42.7645 8.89392C42.6929 9.05017 42.6571 9.19014 42.6571 9.31384C42.6571 9.42452 42.6864 9.51078 42.745 9.57263C42.8068 9.63448 42.8899 9.66541 42.994 9.66541C43.2609 9.66541 43.5523 9.5238 43.868 9.2406C44.1838 8.9574 44.4996 8.53259 44.8153 7.96619Z" fill="#1E1E1E"/>
<path d="M10.8793 85.3945C21.5918 85.3945 64.4614 85.3945 75.174 85.3945" stroke="#1E1E1E" stroke-width="2" stroke-linecap="round"/>
<path d="M64.6677 46.1523C64.3438 42.1538 64.5193 39.2372 64.0142 35.4415ZM64.6677 46.1523C64.7445 43.6645 64.2758 41.1967 64.0142 35.4415Z" stroke="#1E1E1E" stroke-linecap="round"/>
<path d="M66.209 40.3628C65.4213 38.5178 64.8978 37.2087 64.0142 35.4414ZM66.209 40.3628C65.8061 39.2317 65.1398 38.0961 64.0142 35.4414Z" stroke="#1E1E1E" stroke-linecap="round"/>
<path d="M62.4404 40.5862C62.9086 38.651 63.6314 37.2613 64.0142 35.4415ZM62.4404 40.5862C62.9234 39.3909 63.1238 38.2009 64.0142 35.4415Z" stroke="#1E1E1E" stroke-linecap="round"/>
<path d="M22.4614 35.2518C22.8053 39.7623 22.7874 44.2133 22.4482 46.26ZM22.4614 35.2518C22.3651 37.7399 22.2248 39.9821 22.4482 46.26Z" stroke="#1E1E1E" stroke-linecap="round"/>
<path d="M20.3957 41.1366C21.3737 43.2342 22.1659 45.3068 22.4483 46.2599ZM20.3957 41.1366C20.8089 42.2959 21.2097 43.3227 22.4483 46.2599Z" stroke="#1E1E1E" stroke-linecap="round"/>
<path d="M24.2545 41.0443C23.7223 43.1896 23.0141 45.3097 22.4482 46.2599ZM24.2545 41.0443C23.8004 42.2202 23.3243 43.2731 22.4482 46.2599Z" stroke="#1E1E1E" stroke-linecap="round"/>
<path d="M20.1835 59.2263C19.5709 56.875 19.1541 56.9968 20.0386 51.998C20.9092 51.6588 20.0699 50.1564 22.1601 49.8605C22.9694 49.3801 24.7725 49.3554 26.4774 49.7785C29.9391 49.3236 28.2784 48.188 28.683 51.8337C28.3905 54.7526 27.9718 55.7475 28.8279 59.062C31.2188 61.6073 30.2377 60.3258 26.7066 61.209C26.0703 61.0788 24.91 61.0723 22.3893 61.291C23.3261 60.8462 19.4792 59.1068 20.1835 59.2263Z" fill="white"/>
<path d="M20.1836 59.2263C20.3412 57.3633 20.0851 55.29 20.0386 51.998M20.1836 59.2263C19.9711 56.4119 20.2112 53.7977 20.0386 51.998M20.1836 59.2263C19.4603 61.081 20.491 61.4315 22.3893 61.2911M20.1836 59.2263C19.2314 61.3321 20.6274 62.3969 22.3893 61.2911M20.0386 51.998C20.2756 49.716 20.2247 50.0966 22.1601 49.8605M20.0386 51.998C19.8041 50.9966 20.295 50.1996 22.1601 49.8605M22.1601 49.8605C23.7028 49.9735 25.2495 49.8018 26.4775 49.7785M22.1601 49.8605C23.2016 49.7743 24.0601 49.8054 26.4775 49.7785M26.4775 49.7785C28.6979 49.6604 27.8797 51.1563 28.683 51.8338M26.4775 49.7785C27.3156 49.7626 28.7016 49.3566 28.683 51.8338M28.683 51.8338C28.9246 53.6702 28.4826 55.4531 28.828 59.0621M28.683 51.8338C28.8914 53.4715 28.7886 55.1531 28.828 59.0621M28.828 59.0621C29.2183 60.051 28.4725 61.7544 26.7067 61.209M28.828 59.0621C28.5054 60.9661 28.3056 60.2392 26.7067 61.209M26.7067 61.209C25.5233 61.0228 24.5605 61.1454 22.3893 61.2911M26.7067 61.209C25.0908 61.3346 23.3345 61.2636 22.3893 61.2911" stroke="#1E1E1E" stroke-linecap="round"/>
<path d="M29.9068 59.1073C28.9769 57.4643 30.2076 54.6605 29.7618 51.879C29.0859 50.7436 32.5047 50.5838 31.8833 49.7415C33.7454 49.2506 35.4281 49.5413 36.2007 49.6595C37.2664 47.3807 36.6615 50.761 38.4063 51.7148C37.5427 54.3503 39.3759 57.7697 38.5512 58.9431C40.6681 59.4912 36.3659 63.2454 36.4299 61.09C35.0728 60.9925 34.1672 61.0476 32.1126 61.1721C29.9377 59.6761 30.7459 59.1388 29.9068 59.1073Z" fill="white"/>
<path d="M29.9068 59.1073C29.8403 56.7647 29.7679 53.644 29.7618 51.879M29.9068 59.1073C30.0241 57.1787 29.918 55.2923 29.7618 51.879M29.9068 59.1073C29.6514 61.4466 29.9188 61.6503 32.1125 61.1721M29.9068 59.1073C29.721 61.5117 29.6801 61.9015 32.1125 61.1721M29.7618 51.879C29.2408 50.6932 30.2626 50.1139 31.8833 49.7415M29.7618 51.879C29.3111 50.7963 31.2803 49.326 31.8833 49.7415M31.8833 49.7415C33.0923 49.747 34.1091 49.889 36.2006 49.6595M31.8833 49.7415C33.0623 49.7096 34.2901 49.6768 36.2006 49.6595M36.2006 49.6595C36.8677 50.3491 37.852 50.3304 38.4062 51.7148M36.2006 49.6595C37.6895 48.5494 38.9062 50.8797 38.4062 51.7148M38.4062 51.7148C38.2104 53.6164 38.6225 55.6963 38.5512 58.9431M38.4062 51.7148C38.4967 54.2847 38.6077 56.9017 38.5512 58.9431M38.5512 58.9431C38.9028 60.9197 37.5689 61.4954 36.4299 61.0901M38.5512 58.9431C38.7359 59.4046 37.9562 61.8487 36.4299 61.0901M36.4299 61.0901C35.3561 61.0251 34.7112 60.9519 32.1125 61.1721M36.4299 61.0901C35.2501 61.084 34.0322 61.1261 32.1125 61.1721" stroke="#1E1E1E" stroke-linecap="round"/>
<path d="M39.7638 58.92C40.1654 57.5554 39.5386 55.4701 39.6188 51.6917C41.6643 51.112 42.2083 48.0934 41.7403 49.5542C43.2288 49.3931 43.7566 48.975 46.0577 49.4722C45.7832 49.8855 45.8621 47.9861 48.2633 51.5275C49.1086 53.8174 49.0424 54.891 48.4082 58.7558C46.93 62.3424 48.2248 60.3061 46.2869 60.9028C45.3011 60.8456 43.0934 60.6313 41.9696 60.9848C41.3381 59.6398 41.483 61.516 39.7638 58.92Z" fill="white"/>
<path d="M39.7637 58.92C39.6973 56.0934 39.9851 53.9148 39.6187 51.6918M39.7637 58.92C39.7597 57.2594 39.5876 55.9721 39.6187 51.6918M39.7637 58.92C38.9365 60.9381 40.2436 61.9476 41.9695 60.9848M39.7637 58.92C40.8074 59.9156 40.3132 62.0127 41.9695 60.9848M39.6187 51.6918C39.4125 50.6423 39.9329 49.8543 41.7402 49.5543M39.6187 51.6918C40.4301 49.8543 39.4431 50.2242 41.7402 49.5543M41.7402 49.5543C43.3225 49.695 44.7432 49.5636 46.0576 49.4722M41.7402 49.5543C43.543 49.5105 45.0845 49.5666 46.0576 49.4722M46.0576 49.4722C46.9737 49.4548 48.2748 49.1929 48.2632 51.5275M46.0576 49.4722C48.0279 50.0042 48.098 50.5817 48.2632 51.5275M48.2632 51.5275C48.4079 54.3716 48.441 56.5062 48.4081 58.7558M48.2632 51.5275C48.3854 54.2202 48.435 57.18 48.4081 58.7558M48.4081 58.7558C48.133 60.5925 47.8687 60.0566 46.2868 60.9028M48.4081 58.7558C48.5203 60.9458 48.8605 61.8693 46.2868 60.9028M46.2868 60.9028C45.4451 60.7385 44.2903 61.0071 41.9695 60.9848M46.2868 60.9028C44.6694 60.9525 43.0717 61.0113 41.9695 60.9848" stroke="#1E1E1E" stroke-linecap="round"/>
<path d="M49.7556 58.7302C49.4458 57.3791 50.4543 56.1357 49.6106 51.5019C51.493 48.6193 52.2183 50.7596 51.7321 49.3644C53.1935 48.8242 54.443 49.3888 56.0495 49.2824C55.1187 47.108 58.7657 51.0338 58.255 51.3377C59.1661 52.5255 57.8257 55.2081 58.4 58.5659C58.9237 59.4006 58.3195 59.412 56.2787 60.7129C54.7907 60.4091 53.7974 60.4659 51.9614 60.7949C52.2101 62.0144 47.9133 60.2076 49.7556 58.7302Z" fill="white"/>
<path d="M49.7556 58.7302C50.0373 56.732 49.8997 54.7323 49.6107 51.5019M49.7556 58.7302C49.5965 56.1426 49.6029 53.5423 49.6107 51.5019M49.7556 58.7302C49.5966 61.0107 49.6635 61.427 51.9614 60.795M49.7556 58.7302C48.8894 60.7489 51.5345 60.414 51.9614 60.795M49.6107 51.5019C49.2177 50.3801 51.0133 49.008 51.7322 49.3644M49.6107 51.5019C48.7279 50.75 50.1748 49.0049 51.7322 49.3644M51.7322 49.3644C53.4587 49.4075 54.9737 49.113 56.0495 49.2824M51.7322 49.3644C53.0299 49.4157 54.4413 49.3034 56.0495 49.2824M56.0495 49.2824C57.5315 48.3148 58.6853 50.428 58.2551 51.3377M56.0495 49.2824C57.3546 49.7036 58.1261 49.2809 58.2551 51.3377M58.2551 51.3377C58.401 52.7773 58.4623 54.3799 58.4001 58.5659M58.2551 51.3377C58.3701 53.6699 58.2973 55.8729 58.4001 58.5659M58.4001 58.5659C58.5678 59.1511 57.7933 61.3674 56.2787 60.7129M58.4001 58.5659C59.5596 60.9638 58.3256 61.661 56.2787 60.7129M56.2787 60.7129C55.1595 60.8101 54.4248 60.6343 51.9614 60.795M56.2787 60.7129C54.9153 60.7863 53.6885 60.8665 51.9614 60.795" stroke="#1E1E1E" stroke-linecap="round"/>
<path d="M60.015 58.4038C60.782 56.3015 60.6671 53.0013 59.87 51.1755C61.7706 51.1489 60.9101 47.6161 61.9915 49.038C63.2495 49.052 64.7485 48.4447 66.3089 48.956C68.2898 50.0191 67.3029 51.8504 68.5144 51.0112C68.0811 54.6824 68.8969 56.47 68.6594 58.2395C69.2762 58.3701 68.4055 60.1612 66.5381 60.3865C65.0124 60.1498 63.5133 60.7476 62.2208 60.4685C58.8982 60.5696 60.1646 60.5171 60.015 58.4038Z" fill="white"/>
<path d="M60.0149 58.4038C60.1735 56.5882 60.2359 53.8636 59.87 51.1755M60.0149 58.4038C59.9492 56.099 59.8721 53.7091 59.87 51.1755M60.0149 58.4038C60.9233 59.4588 60.5912 61.3725 62.2207 60.4685M60.0149 58.4038C59.5773 60.8888 59.8743 61.111 62.2207 60.4685M59.87 51.1755C60.5655 49.3972 59.8096 49.6203 61.9915 49.038M59.87 51.1755C59.727 49.3942 59.6066 48.2482 61.9915 49.038M61.9915 49.038C63.5371 48.8093 65.1093 48.9408 66.3088 48.956M61.9915 49.038C63.5705 49.0175 65.2739 48.8807 66.3088 48.956M66.3088 48.956C68.2094 49.4133 68.3675 50.0081 68.5144 51.0112M66.3088 48.956C67.6502 48.2662 67.7606 50.3708 68.5144 51.0112M68.5144 51.0112C68.7026 53.1049 68.7754 55.7605 68.6594 58.2395M68.5144 51.0112C68.5165 53.5449 68.6485 55.7535 68.6594 58.2395M68.6594 58.2395C68.7597 60.3253 68.9629 61.223 66.5381 60.3865M68.6594 58.2395C69.292 60.6189 69.012 61.241 66.5381 60.3865M66.5381 60.3865C65.1223 60.2806 63.6338 60.4417 62.2207 60.4685M66.5381 60.3865C65.4095 60.5028 64.249 60.4869 62.2207 60.4685" stroke="#1E1E1E" stroke-linecap="round"/>
</svg>
