<svg width="83" height="119" viewBox="0 0 83 119" fill="none" xmlns="http://www.w3.org/2000/svg">
<path d="M21.6095 2.40916C33.5347 4.7292 47.6415 0.419204 61.1319 2.40916C72.4017 0.164565 82.3117 11.2178 80.8932 21.4599C80.5214 37.6813 83.9649 57.4017 80.8932 98.3702C82.3703 112.819 75.1115 119.335 61.1319 117.421C50.0187 120.458 36.7532 117.836 21.6095 117.421C6.96466 116.44 -1.31157 112.215 1.84827 98.3702C4.88093 73.5948 2.01457 51.4507 1.84827 21.4599C1.0363 6.37021 5.33094 0.438066 21.6095 2.40916Z" fill="white"/>
<path d="M21.6096 2.40918C31.8423 4.06904 40.0794 3.94644 61.132 2.40918M21.6096 2.40918C29.8173 1.5981 37.2522 2.06966 61.132 2.40918M21.6096 2.40918C6.95495 2.24885 0.742884 6.97381 1.84834 21.4599M21.6096 2.40918C10.5257 3.71066 3.14945 8.93547 1.84834 21.4599M61.132 2.40918C75.0431 1.41891 82.4878 7.51138 80.8932 21.4599M61.132 2.40918C72.2061 0.85305 82.9085 8.29416 80.8932 21.4599M80.8932 21.4599C78.6334 44.5377 81.0106 71.8407 80.8932 98.3702M80.8932 21.4599C81.5584 45.8675 80.316 70.1619 80.8932 98.3702M80.8932 98.3702C79.6117 112.573 75.7279 116.167 61.132 117.421M80.8932 98.3702C79.3867 111.894 76.0605 117.374 61.132 117.421M61.132 117.421C43.6795 118.091 28.9662 117.119 21.6096 117.421M61.132 117.421C50.1166 117.77 39.6686 117.704 21.6096 117.421M21.6096 117.421C8.10932 117.893 0.126569 110.499 1.84834 98.3702M21.6096 117.421C9.5376 118.345 3.67772 112.555 1.84834 98.3702M1.84834 98.3702C1.5842 80.3286 1.43746 61.9569 1.84834 21.4599M1.84834 98.3702C2.70922 73.8306 1.88747 49.2155 1.84834 21.4599" stroke="#1E1E1E" stroke-width="2" stroke-linecap="round"/>
<path d="M10.4722 85.6124C21.2234 85.6124 64.2481 85.6124 74.9994 85.6124" stroke="#1E1E1E" stroke-width="2" stroke-linecap="round"/>
<path d="M22.9081 2.30246C34.7942 2.30246 46.6705 2.30246 58.5077 2.30246C60.9338 2.30246 62.1567 3.47191 62.1567 5.82025C62.1567 7.51784 62.1567 9.21543 62.1567 12.8464C62.1567 15.1853 60.9338 16.3547 58.5077 16.3547C49.9967 16.3547 41.4759 16.3547 22.9081 16.3547C20.4722 16.3547 19.2592 15.1853 19.2592 12.8464C19.2592 10.8093 19.2592 8.77217 19.2592 5.82025C19.2592 3.47191 20.4722 2.30246 22.9081 2.30246Z" fill="white"/>
<path d="M22.9081 2.30246C36.0464 2.30246 49.1945 2.30246 58.5077 2.30246M22.9081 2.30246C31.2333 2.30246 39.5584 2.30246 58.5077 2.30246M22.9081 2.30246C20.4722 2.30246 19.2592 3.47191 19.2592 5.82025M58.5077 2.30246C60.9338 2.30246 62.1567 3.47191 62.1567 5.82025M62.1567 5.82025C62.1567 7.63101 62.1567 9.44178 62.1567 12.8464M62.1567 5.82025C62.1567 7.71589 62.1567 9.6021 62.1567 12.8464M62.1567 12.8464C62.1567 15.1853 60.9338 16.3547 58.5077 16.3547M58.5077 16.3547C45.6824 16.3547 32.8572 16.3547 22.9081 16.3547M58.5077 16.3547C48.1281 16.3547 37.7388 16.3547 22.9081 16.3547M22.9081 16.3547C20.4722 16.3547 19.2592 15.1853 19.2592 12.8464M19.2592 12.8464C19.2592 10.2246 19.2592 7.61215 19.2592 5.82025M19.2592 12.8464C19.2592 10.4603 19.2592 8.0837 19.2592 5.82025" stroke="#1E1E1E" stroke-width="2" stroke-linecap="round"/>
<path d="M25.5364 7.86295C25.4745 7.86295 25.4029 7.87434 25.3215 7.89713C25.2402 7.91666 25.1555 7.94107 25.0676 7.97037C24.9797 7.99641 24.8918 8.02082 24.804 8.04361C24.7193 8.06314 24.6428 8.07291 24.5745 8.07291C24.5028 8.07291 24.4459 8.06151 24.4036 8.03873C24.3645 8.01269 24.3352 7.98013 24.3157 7.94107C24.2961 7.90201 24.2847 7.85969 24.2815 7.81412C24.2782 7.76854 24.2766 7.7246 24.2766 7.68228C24.2766 7.55858 24.3124 7.45767 24.384 7.37955C24.4589 7.30142 24.5647 7.23632 24.7014 7.18423C24.8381 7.1289 25.0025 7.08332 25.1946 7.04752C25.3899 7.00845 25.6096 6.96614 25.8538 6.92056C26.2379 6.84895 26.5878 6.79361 26.9036 6.75455C27.2226 6.71548 27.5253 6.68782 27.8118 6.67154C28.1015 6.65201 28.3847 6.64061 28.6614 6.63736C28.9381 6.6341 29.2294 6.63248 29.5354 6.63248C29.6265 6.63248 29.6982 6.64387 29.7502 6.66666C29.8023 6.68944 29.8398 6.71874 29.8625 6.75455C29.8886 6.79035 29.9032 6.83104 29.9065 6.87662C29.913 6.92219 29.9163 6.96776 29.9163 7.01334C29.9163 7.06542 29.9081 7.12239 29.8918 7.18423C29.8788 7.24283 29.8544 7.29817 29.8186 7.35025C29.7861 7.39908 29.7405 7.43977 29.6819 7.47232C29.6265 7.50487 29.5582 7.52115 29.4768 7.52115H29.0862C28.9299 7.52115 28.7639 7.52278 28.5881 7.52603C28.4124 7.52603 28.2382 7.52929 28.0657 7.5358C27.8931 7.53905 27.7271 7.54556 27.5676 7.55533C27.4114 7.56509 27.2714 7.57974 27.1477 7.59927C27.0273 7.61555 26.9312 7.63671 26.8596 7.66275C26.788 7.68879 26.7522 7.72134 26.7522 7.76041C26.7522 7.79947 26.7668 7.86457 26.7961 7.95572C26.8254 8.04686 26.8612 8.14615 26.9036 8.25357C26.9459 8.35774 26.9882 8.4619 27.0305 8.56607C27.0761 8.66698 27.1135 8.75162 27.1428 8.81998C27.1689 8.87532 27.1982 8.91275 27.2307 8.93228C27.2633 8.95181 27.3072 8.96158 27.3625 8.96158C27.496 8.96158 27.6327 8.95344 27.7727 8.93716C27.9127 8.92089 28.0527 8.90298 28.1926 8.88345C28.3359 8.86067 28.4775 8.84114 28.6174 8.82486C28.7607 8.80858 28.9023 8.80045 29.0422 8.80045C29.1204 8.80045 29.1838 8.81509 29.2327 8.84439C29.2847 8.87043 29.3254 8.90461 29.3547 8.94693C29.384 8.98599 29.4036 9.02831 29.4133 9.07388C29.4264 9.11946 29.4329 9.15852 29.4329 9.19107C29.4329 9.33755 29.3873 9.44823 29.2961 9.5231C29.205 9.59472 29.0813 9.64843 28.925 9.68423C28.7688 9.72004 28.5865 9.74446 28.3782 9.75748C28.1731 9.7705 27.955 9.7884 27.7239 9.81119L27.6067 9.82095C27.5644 9.82746 27.5318 9.84211 27.509 9.8649C27.4862 9.88769 27.4749 9.91698 27.4749 9.95279C27.4749 9.96255 27.4765 9.97069 27.4797 9.9772C27.483 9.98371 27.4846 9.99185 27.4846 10.0016C27.5139 10.109 27.5481 10.2295 27.5872 10.3629C27.6262 10.4932 27.662 10.6234 27.6946 10.7536C27.7304 10.8838 27.7597 11.0075 27.7825 11.1247C27.8053 11.2419 27.8167 11.3379 27.8167 11.4128C27.8167 11.5625 27.7597 11.6764 27.6458 11.7545C27.5351 11.8327 27.3772 11.8717 27.1721 11.8717C27.0972 11.8717 27.024 11.8538 26.9524 11.818C26.884 11.7855 26.8417 11.7236 26.8254 11.6325C26.7734 11.3655 26.7148 11.1051 26.6497 10.8512C26.5846 10.5941 26.5162 10.3385 26.4446 10.0846C26.4153 9.99673 26.3583 9.95279 26.2737 9.95279C26.176 9.95279 26.0653 9.94953 25.9417 9.94302C25.8212 9.93651 25.6975 9.92349 25.5706 9.90396C25.4436 9.88443 25.3199 9.86002 25.1995 9.83072C25.0823 9.79817 24.9765 9.75585 24.8821 9.70377C24.7909 9.65168 24.7161 9.58983 24.6575 9.51822C24.6021 9.4466 24.5745 9.36197 24.5745 9.26431C24.5745 9.20246 24.5891 9.14224 24.6184 9.08365C24.6477 9.0218 24.6851 8.96809 24.7307 8.92252C24.7763 8.87369 24.8251 8.83463 24.8772 8.80533C24.9325 8.77603 24.9846 8.76138 25.0334 8.76138C25.092 8.76138 25.1555 8.77603 25.2239 8.80533C25.2922 8.83463 25.3655 8.86718 25.4436 8.90298C25.5217 8.93879 25.6047 8.97134 25.6926 9.00064C25.7838 9.02994 25.8814 9.04459 25.9856 9.04459C26.0377 9.04459 26.0637 9.01692 26.0637 8.96158C26.0637 8.9095 26.054 8.84114 26.0344 8.7565C26.0181 8.67186 25.9954 8.58397 25.9661 8.49283C25.9368 8.39843 25.9026 8.30728 25.8635 8.21939C25.8277 8.12825 25.7887 8.05175 25.7463 7.9899C25.7203 7.95084 25.6926 7.91991 25.6633 7.89713C25.6373 7.87434 25.595 7.86295 25.5364 7.86295ZM30.6292 6.45181C30.5347 6.45181 30.4452 6.43879 30.3606 6.41275C30.2792 6.38345 30.2076 6.34439 30.1458 6.29556C30.0872 6.24348 30.04 6.18326 30.0042 6.1149C29.9683 6.04654 29.9504 5.97167 29.9504 5.89029C29.9504 5.75357 30.0042 5.64289 30.1116 5.55826C30.2222 5.47362 30.3687 5.4313 30.551 5.4313C30.6357 5.4313 30.717 5.44758 30.7952 5.48013C30.8733 5.50943 30.9417 5.55012 31.0002 5.6022C31.0621 5.65429 31.1109 5.71614 31.1467 5.78775C31.1825 5.85611 31.2004 5.92772 31.2004 6.00259C31.2004 6.14257 31.1484 6.25325 31.0442 6.33463C30.9433 6.41275 30.8049 6.45181 30.6292 6.45181ZM29.9602 7.94107C29.9602 7.82714 30.009 7.73436 30.1067 7.66275C30.2076 7.58788 30.3394 7.55045 30.5022 7.55045C30.7952 7.55045 30.9514 7.65136 30.9709 7.85318C30.984 7.99315 30.997 8.15103 31.01 8.32681C31.0263 8.50259 31.0409 8.68977 31.054 8.88834C31.0702 9.08365 31.0833 9.2871 31.093 9.49869C31.106 9.70702 31.1174 9.91373 31.1272 10.1188C31.137 10.3206 31.1451 10.5159 31.1516 10.7047C31.1581 10.8935 31.1614 11.0661 31.1614 11.2223C31.1614 11.3851 31.1028 11.5072 30.9856 11.5885C30.8717 11.6699 30.704 11.7106 30.4827 11.7106C30.3818 11.7106 30.302 11.6862 30.2434 11.6374C30.1881 11.5918 30.1604 11.5234 30.1604 11.4323C30.1604 10.9831 30.149 10.5631 30.1262 10.1725C30.1067 9.77864 30.0839 9.4287 30.0579 9.12271C30.0351 8.81672 30.0123 8.56282 29.9895 8.36099C29.97 8.15591 29.9602 8.01594 29.9602 7.94107ZM34.7112 7.77994C34.5907 7.77994 34.4849 7.81249 34.3938 7.87759C34.3027 7.93944 34.2245 8.02733 34.1594 8.14127C34.0943 8.25194 34.0406 8.38378 33.9983 8.53677C33.956 8.68651 33.9218 8.8509 33.8958 9.02994C33.8697 9.20897 33.8518 9.39615 33.842 9.59146C33.8323 9.78677 33.8274 9.98371 33.8274 10.1823C33.8274 10.4427 33.8372 10.6999 33.8567 10.9538C33.8795 11.2044 33.8909 11.4372 33.8909 11.652C33.8909 11.792 33.8388 11.901 33.7346 11.9792C33.6305 12.0605 33.4823 12.1012 33.2903 12.1012C33.2545 12.1012 33.2138 12.098 33.1682 12.0915C33.1226 12.085 33.0787 12.0719 33.0364 12.0524C32.9973 12.0329 32.9615 12.0052 32.929 11.9694C32.8997 11.9368 32.8834 11.8913 32.8801 11.8327C32.8508 11.5462 32.8085 11.2532 32.7532 10.9538C32.6978 10.6543 32.6278 10.3564 32.5432 10.0602C32.4618 9.76073 32.3625 9.46451 32.2454 9.17154C32.1314 8.87857 31.9996 8.59211 31.8499 8.31216C31.8238 8.26334 31.801 8.21776 31.7815 8.17545C31.7652 8.13313 31.7571 8.09244 31.7571 8.05338C31.7571 8.00455 31.7782 7.95246 31.8206 7.89713C31.8661 7.83853 31.9215 7.78482 31.9866 7.73599C32.0549 7.68716 32.1282 7.6481 32.2063 7.6188C32.2877 7.58625 32.3658 7.56998 32.4407 7.56998C32.5644 7.56998 32.6734 7.65624 32.7678 7.82877C32.8622 7.99804 32.9501 8.26985 33.0315 8.6442C33.0478 8.7093 33.0608 8.75487 33.0706 8.78091C33.0803 8.80696 33.0933 8.81998 33.1096 8.81998C33.1454 8.81998 33.1682 8.76464 33.178 8.65396C33.217 8.34472 33.2838 8.07942 33.3782 7.85806C33.4726 7.63345 33.5898 7.44953 33.7297 7.3063C33.873 7.15982 34.0357 7.0524 34.218 6.98404C34.4036 6.91568 34.607 6.8815 34.8284 6.8815C34.9553 6.8815 35.0839 6.89289 35.2141 6.91568C35.3443 6.93847 35.4615 6.97265 35.5657 7.01822C35.6698 7.06379 35.7545 7.11913 35.8196 7.18423C35.8847 7.24934 35.9172 7.32258 35.9172 7.40396C35.9172 7.46255 35.9042 7.53254 35.8782 7.61392C35.8554 7.69205 35.8245 7.76854 35.7854 7.84341C35.7463 7.91503 35.7008 7.97688 35.6487 8.02896C35.5999 8.07779 35.5494 8.1022 35.4973 8.1022C35.4387 8.1022 35.3818 8.08593 35.3264 8.05338C35.2711 8.01757 35.2109 7.98013 35.1458 7.94107C35.0839 7.90201 35.0172 7.8662 34.9456 7.83365C34.8772 7.79784 34.7991 7.77994 34.7112 7.77994ZM39.7649 10.3629C39.8593 10.2816 39.9521 10.2409 40.0432 10.2409C40.0953 10.2409 40.1425 10.2539 40.1848 10.2799C40.2271 10.306 40.2743 10.3467 40.3264 10.402C40.3752 10.4769 40.4094 10.5387 40.429 10.5876C40.4517 10.6331 40.4631 10.6787 40.4631 10.7243C40.4631 10.8219 40.4143 10.9147 40.3167 11.0026C40.1604 11.1328 39.9911 11.25 39.8088 11.3542C39.6265 11.4551 39.4361 11.5413 39.2375 11.6129C39.039 11.6846 38.8339 11.7383 38.6223 11.7741C38.4107 11.8131 38.2008 11.8327 37.9924 11.8327C37.7288 11.8327 37.4814 11.7985 37.2502 11.7301C37.0191 11.665 36.8124 11.5706 36.6301 11.4469C36.4511 11.3232 36.2997 11.1751 36.176 11.0026C36.0523 10.8268 35.9644 10.6299 35.9124 10.4118C35.8831 10.3206 35.8554 10.262 35.8293 10.236C35.8066 10.2067 35.7675 10.192 35.7122 10.192C35.5917 10.192 35.4989 10.1628 35.4338 10.1042C35.3687 10.0456 35.3362 9.96093 35.3362 9.85025C35.3362 9.80468 35.3394 9.77538 35.3459 9.76236L35.3557 9.6647C35.372 9.54752 35.4029 9.46288 35.4485 9.4108C35.4973 9.35871 35.5722 9.33267 35.6731 9.33267H35.7463C35.8831 9.33267 35.9791 9.2692 36.0344 9.14224C36.1353 8.91763 36.2639 8.71255 36.4202 8.52701C36.5764 8.34146 36.7522 8.18358 36.9475 8.05338C37.1428 7.91991 37.3512 7.81737 37.5725 7.74576C37.7971 7.67089 38.025 7.63345 38.2561 7.63345C38.497 7.63345 38.7216 7.66926 38.9299 7.74088C39.1415 7.80923 39.3254 7.90526 39.4817 8.02896C39.6379 8.15266 39.76 8.29752 39.8479 8.46353C39.939 8.62955 39.9846 8.80858 39.9846 9.00064C39.9846 9.1341 39.9586 9.25617 39.9065 9.36685C39.8544 9.47753 39.7795 9.57519 39.6819 9.65982C39.5842 9.7412 39.4654 9.80793 39.3254 9.86002C39.1887 9.9121 39.0325 9.94628 38.8567 9.96255L37.1624 10.1335C37.0972 10.1335 37.0435 10.1497 37.0012 10.1823C36.9622 10.2148 36.9426 10.2588 36.9426 10.3141C36.9426 10.3988 36.9736 10.4801 37.0354 10.5583C37.1005 10.6364 37.1851 10.7064 37.2893 10.7682C37.3967 10.8268 37.5188 10.874 37.6555 10.9098C37.7955 10.9456 37.9387 10.9635 38.0852 10.9635C38.2252 10.9635 38.3684 10.9505 38.5149 10.9245C38.6646 10.8952 38.8111 10.8545 38.9543 10.8024C39.1008 10.7503 39.2424 10.6885 39.3792 10.6169C39.5159 10.542 39.6444 10.4573 39.7649 10.3629ZM38.676 9.10318C38.7249 9.09341 38.7672 9.07063 38.803 9.03482C38.8388 8.99576 38.8567 8.94856 38.8567 8.89322C38.8567 8.84439 38.8388 8.79882 38.803 8.7565C38.7672 8.71418 38.7183 8.67675 38.6565 8.6442C38.5946 8.60839 38.523 8.58072 38.4417 8.56119C38.3603 8.54166 38.274 8.53189 38.1829 8.53189C38.0494 8.53189 37.9127 8.55142 37.7727 8.59048C37.6327 8.62955 37.5058 8.68163 37.3918 8.74673C37.2779 8.80858 37.1851 8.87857 37.1135 8.9567C37.0419 9.03157 37.0061 9.10644 37.0061 9.1813C37.0061 9.25617 37.0517 9.29361 37.1428 9.29361C37.1982 9.29361 37.2877 9.2871 37.4114 9.27408C37.5351 9.26106 37.6718 9.24641 37.8215 9.23013C37.9713 9.2106 38.1226 9.18944 38.2756 9.16666C38.4286 9.14387 38.5621 9.12271 38.676 9.10318ZM46.2542 9.34244C46.2542 8.82811 46.316 8.43261 46.4397 8.15591C46.5634 7.87922 46.7408 7.74088 46.9719 7.74088C47.3398 7.74088 47.5237 8.05826 47.5237 8.69302C47.5237 8.91763 47.5107 9.12922 47.4846 9.32779C47.4618 9.52636 47.4277 9.71841 47.3821 9.90396C47.3756 9.93 47.3707 9.95442 47.3674 9.9772C47.3642 9.99999 47.3625 10.0211 47.3625 10.0407C47.3625 10.109 47.3756 10.1693 47.4016 10.2213C47.5644 10.6348 47.8655 10.8415 48.3049 10.8415C48.4612 10.8415 48.6077 10.8073 48.7444 10.7389C48.8811 10.6706 48.9999 10.5778 49.1008 10.4606C49.2017 10.3402 49.2799 10.2002 49.3352 10.0407C49.3938 9.88117 49.4231 9.70865 49.4231 9.5231C49.4231 9.31477 49.3987 9.14224 49.3499 9.00552C49.301 8.86555 49.2473 8.74673 49.1887 8.64908C49.1301 8.54817 49.0764 8.45702 49.0276 8.37564C48.9788 8.29101 48.9543 8.1966 48.9543 8.09244C48.9543 8.04361 48.9755 7.99315 49.0178 7.94107C49.0634 7.88573 49.1187 7.83528 49.1838 7.7897C49.2522 7.74413 49.3254 7.7067 49.4036 7.6774C49.4849 7.6481 49.5614 7.63345 49.6331 7.63345C49.7275 7.63345 49.8202 7.68554 49.9114 7.7897C50.0058 7.89387 50.0888 8.03059 50.1604 8.19986C50.2353 8.36588 50.2939 8.5563 50.3362 8.77115C50.3818 8.98599 50.4045 9.20246 50.4045 9.42056C50.4045 9.73632 50.3459 10.0342 50.2288 10.3141C50.1116 10.5941 49.9521 10.8398 49.7502 11.0514C49.5484 11.263 49.3124 11.4307 49.0422 11.5544C48.7753 11.678 48.4921 11.7399 48.1926 11.7399C47.9387 11.7399 47.7125 11.6943 47.5139 11.6032C47.3186 11.5153 47.1379 11.359 46.9719 11.1344C46.9459 11.0921 46.9198 11.0628 46.8938 11.0465C46.8678 11.0303 46.8417 11.0221 46.8157 11.0221C46.7831 11.0221 46.7538 11.0303 46.7278 11.0465C46.7017 11.0628 46.6741 11.0921 46.6448 11.1344C46.4234 11.4241 46.1858 11.6308 45.9319 11.7545C45.6812 11.8782 45.4045 11.9401 45.1018 11.9401C44.7665 11.9401 44.4638 11.8473 44.1936 11.6618C43.9267 11.4795 43.6988 11.2191 43.51 10.8805C43.3212 10.542 43.1764 10.1318 43.0754 9.65005C42.9745 9.16503 42.9241 8.62304 42.9241 8.02408C42.9241 7.77994 42.9338 7.57811 42.9534 7.41861C42.9729 7.25585 43.0087 7.1289 43.0608 7.03775C43.1129 6.94335 43.1812 6.87825 43.2659 6.84244C43.3505 6.80338 43.4596 6.78384 43.593 6.78384C43.733 6.78384 43.8339 6.81151 43.8958 6.86685C43.9609 6.91894 43.9934 7.01008 43.9934 7.14029C43.9934 7.2412 43.9836 7.35513 43.9641 7.48209C43.9446 7.60578 43.9348 7.71321 43.9348 7.80435C43.9348 8.27636 43.9674 8.71093 44.0325 9.10806C44.1008 9.5052 44.1936 9.847 44.3108 10.1335C44.4312 10.4199 44.5728 10.6429 44.7356 10.8024C44.9016 10.9619 45.0839 11.0417 45.2825 11.0417C45.7252 11.0417 46.0523 10.8154 46.2639 10.3629C46.2834 10.3271 46.2965 10.2946 46.303 10.2653C46.3095 10.2327 46.3127 10.1986 46.3127 10.1628C46.3127 10.1432 46.3127 10.1237 46.3127 10.1042C46.3127 10.0814 46.3095 10.057 46.303 10.0309C46.2867 9.90722 46.2737 9.79003 46.2639 9.67935C46.2574 9.56542 46.2542 9.45311 46.2542 9.34244ZM53.969 7.1647C54.148 7.1647 54.3206 7.19237 54.4866 7.24771C54.6526 7.30305 54.7991 7.37955 54.926 7.4772C55.053 7.57486 55.1539 7.69205 55.2288 7.82877C55.3069 7.96548 55.3459 8.11685 55.3459 8.28287C55.3459 8.35123 55.3297 8.41796 55.2971 8.48306C55.2678 8.54491 55.2271 8.60025 55.175 8.64908C55.123 8.69465 55.0627 8.73209 54.9944 8.76138C54.9293 8.78742 54.8609 8.80045 54.7893 8.80045C54.7828 8.80045 54.7763 8.80207 54.7698 8.80533C54.7665 8.80533 54.7616 8.80533 54.7551 8.80533C54.7486 8.80858 54.7421 8.81021 54.7356 8.81021L54.7551 9.20084C54.7681 9.66633 54.8333 10.0065 54.9504 10.2213C55.0709 10.4362 55.2271 10.5436 55.4192 10.5436C55.4875 10.5436 55.5478 10.5371 55.5999 10.5241C55.6552 10.5111 55.7056 10.4964 55.7512 10.4801C55.8 10.4606 55.8456 10.4443 55.8879 10.4313C55.9303 10.4183 55.9726 10.4118 56.0149 10.4118C56.0898 10.4118 56.1549 10.4443 56.2102 10.5094C56.2688 10.5745 56.2981 10.6527 56.2981 10.7438C56.2981 10.835 56.2623 10.9261 56.1907 11.0172C56.1223 11.1084 56.0312 11.1914 55.9172 11.2663C55.8033 11.3379 55.6747 11.3965 55.5315 11.442C55.3883 11.4876 55.2434 11.5104 55.0969 11.5104C54.843 11.5104 54.62 11.4062 54.428 11.1979C54.2359 10.9863 54.0992 10.6771 54.0178 10.2702C53.9983 10.2051 53.9722 10.1725 53.9397 10.1725C53.9006 10.1725 53.8665 10.192 53.8372 10.2311C53.5149 10.638 53.1715 10.944 52.8069 11.1491C52.4423 11.3509 52.0826 11.4518 51.7278 11.4518C51.5618 11.4518 51.412 11.4274 51.2786 11.3786C51.1451 11.3297 51.0312 11.2614 50.9368 11.1735C50.8456 11.0823 50.774 10.9733 50.7219 10.8463C50.6731 10.7161 50.6487 10.5713 50.6487 10.4118C50.6487 10.1872 50.6975 9.95116 50.7952 9.70377C50.8961 9.45637 51.0312 9.21223 51.2004 8.97134C51.3697 8.73046 51.565 8.50097 51.7864 8.28287C52.011 8.06477 52.2454 7.87271 52.4895 7.7067C52.7369 7.54068 52.9875 7.40884 53.2415 7.31119C53.4954 7.21353 53.7379 7.1647 53.969 7.1647ZM53.8079 8.85416C53.8665 8.74348 53.9202 8.66373 53.969 8.6149C54.0178 8.56282 54.0878 8.52864 54.179 8.51236C54.2506 8.50259 54.2864 8.47981 54.2864 8.444C54.2864 8.41796 54.2766 8.39029 54.2571 8.36099C54.1952 8.27636 54.1301 8.20311 54.0618 8.14127C53.9934 8.07616 53.9023 8.04361 53.7883 8.04361C53.6646 8.04361 53.5263 8.07942 53.3733 8.15103C53.2203 8.22265 53.064 8.31867 52.9045 8.43912C52.7483 8.5563 52.5937 8.6914 52.4407 8.84439C52.2909 8.99413 52.1575 9.14875 52.0403 9.30826C51.9231 9.46776 51.8287 9.62564 51.7571 9.78189C51.6855 9.93814 51.6497 10.0781 51.6497 10.2018C51.6497 10.3125 51.679 10.3988 51.7375 10.4606C51.7994 10.5225 51.8824 10.5534 51.9866 10.5534C52.2535 10.5534 52.5448 10.4118 52.8606 10.1286C53.1764 9.84537 53.4921 9.42056 53.8079 8.85416ZM56.1956 5.87076C56.1956 5.70149 56.2444 5.58104 56.342 5.50943C56.4397 5.43782 56.6008 5.40201 56.8254 5.40201C56.9036 5.40201 56.9719 5.41015 57.0305 5.42642C57.0891 5.4427 57.1379 5.47037 57.177 5.50943C57.2161 5.54524 57.247 5.59569 57.2698 5.6608C57.2958 5.72265 57.317 5.8024 57.3333 5.90005C57.3756 6.18977 57.4179 6.49413 57.4602 6.81314C57.5058 7.1289 57.5481 7.44465 57.5872 7.76041C57.6295 8.07291 57.6685 8.3789 57.7043 8.67838C57.7402 8.9746 57.7711 9.25129 57.7971 9.50845C57.8264 9.76236 57.8476 9.9886 57.8606 10.1872C57.8769 10.3825 57.885 10.5371 57.885 10.651C57.885 10.7682 57.8736 10.8675 57.8508 10.9489C57.8313 11.0303 57.7955 11.0954 57.7434 11.1442C57.6946 11.193 57.6295 11.2288 57.5481 11.2516C57.47 11.2711 57.3723 11.2809 57.2551 11.2809C57.1412 11.2809 57.05 11.2516 56.9817 11.193C56.9166 11.1344 56.884 11.0449 56.884 10.9245C56.884 10.8008 56.8743 10.6364 56.8547 10.4313C56.8352 10.223 56.8092 9.99185 56.7766 9.73795C56.7441 9.48404 56.7066 9.21386 56.6643 8.9274C56.6252 8.64094 56.5829 8.35774 56.5374 8.07779C56.495 7.79784 56.4527 7.52929 56.4104 7.27213C56.3713 7.01171 56.3355 6.78222 56.303 6.58365C56.2704 6.38183 56.2444 6.21744 56.2249 6.09048C56.2053 5.96028 56.1956 5.88703 56.1956 5.87076ZM58.4026 5.87076C58.4026 5.70149 58.4514 5.58104 58.5491 5.50943C58.6467 5.43782 58.8079 5.40201 59.0325 5.40201C59.1106 5.40201 59.179 5.41015 59.2375 5.42642C59.2961 5.4427 59.345 5.47037 59.384 5.50943C59.4231 5.54524 59.454 5.59569 59.4768 5.6608C59.5028 5.72265 59.524 5.8024 59.5403 5.90005C59.5826 6.18977 59.6249 6.49413 59.6672 6.81314C59.7128 7.1289 59.7551 7.44465 59.7942 7.76041C59.8365 8.07291 59.8756 8.3789 59.9114 8.67838C59.9472 8.9746 59.9781 9.25129 60.0042 9.50845C60.0334 9.76236 60.0546 9.9886 60.0676 10.1872C60.0839 10.3825 60.092 10.5371 60.092 10.651C60.092 10.7682 60.0806 10.8675 60.0579 10.9489C60.0383 11.0303 60.0025 11.0954 59.9504 11.1442C59.9016 11.193 59.8365 11.2288 59.7551 11.2516C59.677 11.2711 59.5793 11.2809 59.4622 11.2809C59.3482 11.2809 59.2571 11.2516 59.1887 11.193C59.1236 11.1344 59.0911 11.0449 59.0911 10.9245C59.0911 10.8008 59.0813 10.6364 59.0618 10.4313C59.0422 10.223 59.0162 9.99185 58.9836 9.73795C58.9511 9.48404 58.9137 9.21386 58.8713 8.9274C58.8323 8.64094 58.79 8.35774 58.7444 8.07779C58.7021 7.79784 58.6597 7.52929 58.6174 7.27213C58.5784 7.01171 58.5426 6.78222 58.51 6.58365C58.4775 6.38183 58.4514 6.21744 58.4319 6.09048C58.4124 5.96028 58.4026 5.88703 58.4026 5.87076Z" fill="#1E1E1E"/>
<path d="M46.6183 53.6679C45.4248 53.1586 40.9247 53.0266 39.4573 50.6028C37.9997 48.179 38.1073 41.0303 37.8334 39.1158" stroke="#1E1E1E" stroke-linecap="round"/>
<path d="M38.0004 39.0704C38.4015 39.2779 39.8395 39.7306 40.4069 40.287C40.9645 40.8435 41.2189 42.0601 41.3852 42.409" stroke="#1E1E1E" stroke-linecap="round"/>
<path d="M41.8322 42.4501C41.9104 41.4504 41.3528 38.4513 42.3213 36.433C43.2898 34.4242 46.7725 31.3968 47.6627 30.3877" stroke="#1E1E1E" stroke-linecap="round"/>
<path d="M48.1504 30.8965C48.2971 31.8962 48.5319 35.3857 49.0113 36.8664C49.4808 38.3565 50.6743 39.3279 51.007 39.8183" stroke="#1E1E1E" stroke-linecap="round"/>
<path d="M51.2892 39.8957C51.5435 39.6411 52.1501 38.7451 52.7957 38.3585C53.4414 37.9812 54.7719 37.7454 55.1632 37.6134" stroke="#1E1E1E" stroke-linecap="round"/>
<path d="M55.5693 37.7343C55.628 39.5262 57.2715 45.7601 55.8921 48.4669C54.5225 51.1641 48.7604 53.0504 47.3322 53.9652" stroke="#1E1E1E" stroke-linecap="round"/>
<path d="M47.0969 51.6423C46.4317 51.3877 43.9273 51.3217 43.1153 50.1145C42.3034 48.9073 42.3719 45.3518 42.2153 44.3898" stroke="#1E1E1E" stroke-linecap="round"/>
<path d="M42.3079 44.3704C42.5329 44.4742 43.3351 44.7005 43.6481 44.974C43.9612 45.2569 44.0981 45.8605 44.1862 46.0303" stroke="#1E1E1E" stroke-linecap="round"/>
<path d="M44.4371 46.054C44.486 45.5542 44.173 44.0641 44.7111 43.055C45.2491 42.0553 47.1861 40.5463 47.6752 40.0464" stroke="#1E1E1E" stroke-linecap="round"/>
<path d="M47.9482 40.2985C48.0265 40.7984 48.1635 42.5337 48.4276 43.2787C48.6917 44.0144 49.3472 44.4953 49.5331 44.7406" stroke="#1E1E1E" stroke-linecap="round"/>
<path d="M49.6926 44.7815C49.8296 44.6589 50.172 44.2062 50.5339 44.0176C50.8861 43.829 51.6296 43.7064 51.8448 43.6498" stroke="#1E1E1E" stroke-linecap="round"/>
<path d="M52.071 43.7048C52.1004 44.5914 53.0102 47.7036 52.2569 49.0522C51.4938 50.4009 48.2851 51.3346 47.4927 51.7873" stroke="#1E1E1E" stroke-linecap="round"/>
<path d="M27.7439 51.3714C37.5952 51.3714 47.4464 51.3714 54.9498 51.3714C59.4401 51.3714 61.6901 53.5405 61.6901 57.8788C61.6901 60.5195 61.6901 63.1602 61.6901 70.8842C61.6901 75.2131 59.4401 77.3822 54.9498 77.3822C46.3899 77.3822 37.8299 77.3822 27.7439 77.3822C23.2438 77.3822 20.9938 75.2131 20.9938 70.8842C20.9938 68.0078 20.9938 65.1407 20.9938 57.8788C20.9938 53.5405 23.2438 51.3714 27.7439 51.3714Z" fill="white"/>
<path d="M27.7439 51.3714C35.4038 51.3714 43.0637 51.3714 54.9498 51.3714M27.7439 51.3714C38.3484 51.3714 48.9627 51.3714 54.9498 51.3714M27.7439 51.3714C23.2438 51.3714 20.9938 53.5405 20.9938 57.8788M54.9498 51.3714C59.4401 51.3714 61.6901 53.5405 61.6901 57.8788M61.6901 57.8788C61.6901 60.8873 61.6901 63.9053 61.6901 70.8842M61.6901 57.8788C61.6901 61.5098 61.6901 65.1407 61.6901 70.8842M61.6901 70.8842C61.6901 75.2131 59.4401 77.3822 54.9498 77.3822M54.9498 77.3822C45.4116 77.3822 35.8734 77.3822 27.7439 77.3822M54.9498 77.3822C47.1236 77.3822 39.2974 77.3822 27.7439 77.3822M27.7439 77.3822C23.2438 77.3822 20.9938 75.2131 20.9938 70.8842M20.9938 70.8842C20.9938 66.2819 20.9938 61.6795 20.9938 57.8788M20.9938 70.8842C20.9938 67.9135 20.9938 64.9427 20.9938 57.8788" stroke="white" stroke-width="0.5" stroke-linecap="round"/>
<path d="M25.732 37.5302C27.2581 37.7848 30.0854 37.5113 31.4452 37.5302C34.5659 37.6528 31.7093 39.0769 32.9126 38.9448C32.58 39.539 32.6778 40.218 32.9126 41.7742C30.7604 41.3215 34.1354 43.2831 31.4452 43.1888C29.743 43.1794 28.5299 42.8587 25.732 43.1888C25.1646 45.1976 26.4266 41.661 24.2646 41.7742C24.5483 41.0574 23.9711 40.3972 24.2646 38.9448C24.7244 38.4733 26.8766 37.964 25.732 37.5302Z" fill="white"/>
<path d="M25.732 37.5302C27.7767 37.4453 29.9973 37.5113 31.4452 37.5302M25.732 37.5302C27.1701 37.5679 28.5984 37.5208 31.4452 37.5302M25.732 37.5302C24.2548 37.3133 24.3625 37.766 24.2646 38.9448M25.732 37.5302C24.9103 37.483 24.2059 37.5585 24.2646 38.9448M31.4452 37.5302C32.6093 37.285 32.893 38.1904 32.9126 38.9448M31.4452 37.5302C33.0202 37.285 32.2963 38.0772 32.9126 38.9448M32.9126 38.9448C32.8246 39.5862 32.9811 40.2558 32.9126 41.7742M32.9126 38.9448C32.9517 39.9728 32.9517 40.9631 32.9126 41.7742M32.9126 41.7742C33.4213 43.1322 32.4333 42.8587 31.4452 43.1888M32.9126 41.7742C32.8148 42.3683 31.8072 43.302 31.4452 43.1888M31.4452 43.1888C29.0288 43.3397 26.8962 43.3209 25.732 43.1888M31.4452 43.1888C29.2539 43.2548 26.8962 43.2926 25.732 43.1888M25.732 43.1888C24.1375 43.5189 24.0494 43.2737 24.2646 41.7742M25.732 43.1888C25.2527 43.5755 24.8516 43.0096 24.2646 41.7742M24.2646 41.7742C24.3135 41.1329 24.2157 40.6141 24.2646 38.9448M24.2646 41.7742C24.2842 41.1329 24.294 40.4915 24.2646 38.9448" stroke="#1E1E1E" stroke-linecap="round"/>
<path d="M31.3449 44.7134C33.458 45.2227 35.8156 44.5248 37.058 44.7134C39.5135 44.7228 36.5395 43.4402 38.5254 46.128C38.408 47.0146 38.6037 47.8351 38.5254 48.9574C37.4102 49.6553 39.5428 52.2677 37.058 50.372C35.6591 50.9945 34.5438 50.2023 31.3449 50.372C28.6253 51.9187 31.6579 51.1642 29.8775 48.9574C29.6524 47.9105 30.1025 47.2786 29.8775 46.128C32.0884 47.1749 30.4938 44.487 31.3449 44.7134Z" fill="white"/>
<path d="M31.3448 44.7134C33.3503 44.8926 34.9057 44.6756 37.058 44.7134M31.3448 44.7134C32.5774 44.6096 33.8199 44.7134 37.058 44.7134M31.3448 44.7134C29.7209 44.4021 29.4567 45.3641 29.8774 46.128M31.3448 44.7134C30.2002 44.421 30.3078 44.9114 29.8774 46.128M37.058 44.7134C38.1732 45.317 38.6525 45.4962 38.5254 46.128M37.058 44.7134C37.821 44.0249 37.8895 45.317 38.5254 46.128M38.5254 46.128C38.4765 46.8542 38.4373 47.7219 38.5254 48.9574M38.5254 46.128C38.4862 47.2032 38.5156 48.3255 38.5254 48.9574M38.5254 48.9574C38.6525 50.24 37.958 50.7021 37.058 50.372M38.5254 48.9574C38.3982 50.1551 38.2319 49.9099 37.058 50.372M37.058 50.372C35.1894 50.4946 33.5362 50.3814 31.3448 50.372M37.058 50.372C34.9155 50.3909 32.7829 50.4003 31.3448 50.372M31.3448 50.372C30.1807 50.8341 30.1709 49.3346 29.8774 48.9574M31.3448 50.372C29.8285 50.5418 30.5328 50.3343 29.8774 48.9574M29.8774 48.9574C29.7796 47.8539 29.8285 46.9863 29.8774 46.128M29.8774 48.9574C29.8872 47.8916 29.9263 46.9485 29.8774 46.128" stroke="#1E1E1E" stroke-linecap="round"/>
<path d="M26.0231 51.9954C27.5785 52.3161 29.7307 51.7125 31.7362 51.9954C30.8362 50.6845 33.2623 51.986 33.2036 53.4101C32.9395 53.7873 32.9688 54.3721 33.2036 56.2394C34.7591 58.0879 34.7493 55.815 31.7362 57.6541C29.0949 57.4654 27.0503 57.1731 26.0231 57.6541C24.4383 57.1731 26.3557 55.7018 24.5557 56.2394C24.5948 55.1926 24.3698 54.4381 24.5557 53.4101C25.8861 51.8068 25.6513 53.9194 26.0231 51.9954Z" fill="white"/>
<path d="M26.023 51.9954C27.8133 51.8917 29.535 52.184 31.7362 51.9954M26.023 51.9954C27.8328 52.0426 29.5448 51.9577 31.7362 51.9954M26.023 51.9954C24.6632 52.3821 25.0447 52.7027 24.5556 53.4101M26.023 51.9954C25.4654 51.8634 24.536 51.7691 24.5556 53.4101M31.7362 51.9954C32.1862 51.8068 32.5873 52.8536 33.2036 53.4101M31.7362 51.9954C32.3525 52.2312 33.5264 53.1649 33.2036 53.4101M33.2036 53.4101C33.1742 54.3532 33.1057 55.2208 33.2036 56.2394M33.2036 53.4101C33.2134 54.5607 33.1742 55.7018 33.2036 56.2394M33.2036 56.2394C32.9884 57.4088 32.421 57.4654 31.7362 57.654M33.2036 56.2394C33.3112 57.7767 33.2036 57.5975 31.7362 57.654M31.7362 57.654C30.5916 57.5786 29.4079 57.7672 26.023 57.654M31.7362 57.654C30.5133 57.654 29.3002 57.5975 26.023 57.654M26.023 57.654C24.81 57.0976 25.035 57.588 24.5556 56.2394M26.023 57.654C25.485 58.2199 23.9491 57.4843 24.5556 56.2394M24.5556 56.2394C24.6143 55.6075 24.6143 54.9568 24.5556 53.4101M24.5556 56.2394C24.5262 55.2963 24.5752 54.2966 24.5556 53.4101" stroke="#1E1E1E" stroke-linecap="round"/>
<path d="M36.8383 52.1609C38.6873 51.8025 40.2721 52.1515 42.5515 52.1609C43.8917 52.689 45.6429 51.0292 44.0189 53.5756C44.2048 54.2169 43.745 54.8676 44.0189 56.4049C44.7722 57.4046 45.6526 57.5838 42.5515 57.8195C40.5656 57.6781 39.7243 57.5083 36.8383 57.8195C35.4785 58.1213 35.6351 55.575 35.3709 56.4049C35.4003 55.4523 35.684 54.7262 35.3709 53.5756C34.3437 51.0197 33.7176 53.9717 36.8383 52.1609Z" fill="white"/>
<path d="M36.8384 52.1609C38.6873 52.2364 40.8395 52.1138 42.5515 52.1609M36.8384 52.1609C39.0395 52.1703 41.0352 52.2269 42.5515 52.1609M36.8384 52.1609C35.4785 52.7456 34.7253 52.557 35.3709 53.5756M36.8384 52.1609C36.1144 52.4061 35.3612 52.359 35.3709 53.5756M42.5515 52.1609C43.4026 52.3118 44.3417 52.3024 44.0189 53.5756M42.5515 52.1609C43.1874 52.491 44.0287 52.2741 44.0189 53.5756M44.0189 53.5756C43.9896 54.1037 43.97 54.811 44.0189 56.4049M44.0189 53.5756C43.97 54.2452 44.0287 54.8959 44.0189 56.4049M44.0189 56.4049C43.4515 57.8007 43.97 57.9893 42.5515 57.8196M44.0189 56.4049C43.4124 57.1122 43.0113 57.2348 42.5515 57.8196M42.5515 57.8196C40.8591 57.8856 39.2547 57.9893 36.8384 57.8196M42.5515 57.8196C40.8395 57.8667 39.059 57.8384 36.8384 57.8196M36.8384 57.8196C36.447 57.8667 35.097 56.9142 35.3709 56.4049M36.8384 57.8196C36.0264 57.3197 35.0872 57.15 35.3709 56.4049M35.3709 56.4049C35.4199 55.3486 35.322 54.3395 35.3709 53.5756M35.3709 56.4049C35.3514 55.292 35.3416 54.2829 35.3709 53.5756" stroke="#1E1E1E" stroke-linecap="round"/>
<path d="M31.5164 60.1049C33.0034 60.3313 34.1774 60.4822 37.2296 60.1049C38.2176 61.7177 39.5872 59.8692 38.697 61.5196C38.3742 62.4627 38.8046 63.1418 38.697 64.3489C40.2916 66.6595 38.7361 67.8856 37.2296 65.7636C35.5861 66.2634 33.9817 65.8485 31.5164 65.7636C32.0545 65.226 31.9371 64.2263 30.049 64.3489C30.2545 63.6039 29.7653 62.4533 30.049 61.5196C31.7317 60.2558 28.5033 61.9723 31.5164 60.1049Z" fill="white"/>
<path d="M31.5166 60.105C32.9351 60.1899 34.5199 60.0107 37.2297 60.105M31.5166 60.105C32.7883 60.0672 34.0796 60.0484 37.2297 60.105M31.5166 60.105C31.047 60.6708 29.5796 60.9632 30.0491 61.5196M31.5166 60.105C30.0981 60.0955 29.6578 60.6425 30.0491 61.5196M37.2297 60.105C38.5504 59.4825 38.6189 60.2087 38.6971 61.5196M37.2297 60.105C38.9026 60.0955 38.4036 60.8217 38.6971 61.5196M38.6971 61.5196C38.658 62.491 38.6286 63.4341 38.6971 64.349M38.6971 61.5196C38.7265 62.3213 38.6482 63.1606 38.6971 64.349M38.6971 64.349C38.4623 65.6882 38.296 65.2921 37.2297 65.7636M38.6971 64.349C38.9123 65.5373 38.2275 66.4615 37.2297 65.7636M37.2297 65.7636C35.4199 65.6599 33.9036 65.8768 31.5166 65.7636M37.2297 65.7636C35.7623 65.6882 34.246 65.7447 31.5166 65.7636M31.5166 65.7636C30.372 65.8013 29.6285 65.8768 30.0491 64.349M31.5166 65.7636C30.1078 65.4335 29.4817 64.5942 30.0491 64.349M30.0491 64.349C30.1176 63.2172 30.0002 62.1421 30.0491 61.5196M30.0491 64.349C30.0296 63.6416 30.0198 62.8023 30.0491 61.5196" stroke="#1E1E1E" stroke-linecap="round"/>
<path d="M42.6753 60.2705C44.5438 60.6666 46.1776 60.7703 48.3885 60.2705C48.2613 61.2042 50.4722 60.6854 49.8559 61.6851C49.9244 62.9583 49.8265 63.4582 49.8559 64.5145C51.7929 67.4098 48.2613 67.0326 48.3885 65.9291C46.0406 65.8914 44.4949 66.3252 42.6753 65.9291C43.7906 64.0712 40.4644 63.6091 41.2079 64.5145C41.3253 63.8637 41.2666 62.5434 41.2079 61.6851C41.1199 61.5342 42.196 59.7423 42.6753 60.2705Z" fill="white"/>
<path d="M42.6753 60.2705C44.1916 60.2705 45.6786 60.3271 48.3884 60.2705M42.6753 60.2705C44.759 60.2516 46.9993 60.2988 48.3884 60.2705M42.6753 60.2705C42.1177 60.4214 41.3351 61.1947 41.2079 61.6851M42.6753 60.2705C41.4818 60.8835 41.9514 60.8269 41.2079 61.6851M48.3884 60.2705C48.8776 60.4497 50.0711 60.7609 49.8559 61.6851M48.3884 60.2705C50.0809 60.1856 49.7482 60.3082 49.8559 61.6851M49.8559 61.6851C49.9146 62.251 49.8265 62.9206 49.8559 64.5145M49.8559 61.6851C49.8363 62.5528 49.8461 63.4205 49.8559 64.5145M49.8559 64.5145C50.4526 65.0992 49.0635 65.4576 48.3884 65.9291M49.8559 64.5145C49.1319 66.0706 49.4548 65.4859 48.3884 65.9291M48.3884 65.9291C46.2167 65.8631 44.2895 66.014 42.6753 65.9291M48.3884 65.9291C46.7254 65.8537 45.2677 65.9951 42.6753 65.9291M42.6753 65.9291C42.284 65.599 41.2666 65.0897 41.2079 64.5145M42.6753 65.9291C41.6872 65.5802 41.1101 65.3915 41.2079 64.5145M41.2079 64.5145C41.2666 63.6468 41.2764 62.8074 41.2079 61.6851M41.2079 64.5145C41.2177 63.7222 41.2372 63.0243 41.2079 61.6851" stroke="#1E1E1E" stroke-linecap="round"/>
<path d="M27.5681 68.5455C28.9964 68.14 30.1508 68.008 33.2812 68.5455C34.015 68.7436 35.4432 69.0548 34.7487 69.9602C34.6802 71.0542 34.6215 71.3371 34.7487 72.7895C32.9095 72.7424 35.4041 73.0536 33.2812 74.2042C31.1486 73.676 29.4855 74.6003 27.5681 74.2042C25.23 73.893 26.1203 75.3548 26.1007 72.7895C25.7974 72.2519 25.7779 71.5446 26.1007 69.9602C27.3138 68.14 27.4801 67.0932 27.5681 68.5455Z" fill="white"/>
<path d="M27.5681 68.5456C29.7398 68.4512 31.8823 68.4701 33.2812 68.5456M27.5681 68.5456C29.2409 68.5173 30.904 68.5456 33.2812 68.5456M27.5681 68.5456C26.4039 68.074 26.4822 69.0077 26.1006 69.9602M27.5681 68.5456C26.5898 69.168 25.5039 69.715 26.1006 69.9602M33.2812 68.5456C34.7486 68.8002 34.5334 68.8662 34.7486 69.9602M33.2812 68.5456C33.7312 68.6493 34.0736 69.3849 34.7486 69.9602M34.7486 69.9602C34.8073 70.941 34.8465 71.8936 34.7486 72.7895M34.7486 69.9602C34.7878 70.7524 34.7584 71.5258 34.7486 72.7895M34.7486 72.7895C34.5823 74.2702 33.9269 74.4777 33.2812 74.2042M34.7486 72.7895C34.9541 73.7138 34.7388 74.704 33.2812 74.2042M33.2812 74.2042C32.0094 74.0533 30.9725 74.3834 27.5681 74.2042M33.2812 74.2042C31.8529 74.2608 30.3953 74.2136 27.5681 74.2042M27.5681 74.2042C27.0789 74.572 26.717 73.1856 26.1006 72.7895M27.5681 74.2042C26.3354 73.5817 26.0811 74.2985 26.1006 72.7895M26.1006 72.7895C26.1202 72.1199 26.0909 71.6578 26.1006 69.9602M26.1006 72.7895C26.13 71.903 26.1398 70.9599 26.1006 69.9602" stroke="#1E1E1E" stroke-linecap="round"/>
<path d="M37.8685 68.2145C39.0718 67.8939 40.1479 68.0825 43.5817 68.2145C46.0274 66.9036 44.7262 68.7049 45.0491 69.6292C45.1469 70.3931 45.2839 71.4494 45.0491 72.4585C47.2209 74.5711 43.6501 74.7408 43.5817 73.8732C41.7425 73.8449 40.7349 73.8071 37.8685 73.8732C37.7805 74.6465 37.0565 72.6 36.4011 72.4585C36.4696 71.6663 36.3815 70.4685 36.4011 69.6292C37.7609 66.7338 37.6924 67.5732 37.8685 68.2145Z" fill="white"/>
<path d="M37.8685 68.2145C40.0109 68.3277 41.9185 68.3937 43.5816 68.2145M37.8685 68.2145C39.6685 68.2617 41.4685 68.2051 43.5816 68.2145M37.8685 68.2145C37.5065 68.0164 36.8804 68.5917 36.401 69.6292M37.8685 68.2145C36.5478 68.5917 35.9119 68.0919 36.401 69.6292M43.5816 68.2145C45.0001 68.0542 45.5968 68.3748 45.049 69.6292M43.5816 68.2145C44.8827 68.4126 45.0294 69.1576 45.049 69.6292M45.049 69.6292C45.1077 70.6571 44.9512 71.7983 45.049 72.4585M45.049 69.6292C45.0784 70.742 45.0588 71.836 45.049 72.4585M45.049 72.4585C44.9805 73.8826 44.9414 74.4673 43.5816 73.8731M45.049 72.4585C44.3936 73.1658 43.9044 73.8637 43.5816 73.8731M43.5816 73.8731C41.537 73.9297 39.1011 73.8731 37.8685 73.8731M43.5816 73.8731C41.7033 73.9297 39.7761 73.9392 37.8685 73.8731M37.8685 73.8731C36.8119 74.241 36.3913 73.2224 36.401 72.4585M37.8685 73.8731C36.3228 73.2978 37.125 73.4016 36.401 72.4585M36.401 72.4585C36.4891 71.3833 36.3521 70.2705 36.401 69.6292M36.401 72.4585C36.4206 71.8266 36.3913 71.1759 36.401 69.6292" stroke="#1E1E1E" stroke-linecap="round"/>
<path d="M49.3705 67.718C51.5423 67.586 52.8336 67.5671 55.0836 67.718C54.8782 66.3694 56.3945 69.4628 56.5511 69.1327C56.4826 70.0758 56.3554 71.6036 56.5511 71.962C58.0674 71.349 55.925 73.7162 55.0836 73.3767C52.4912 73.188 50.8771 73.7539 49.3705 73.3767C48.9107 73.8105 47.5607 72.7448 47.9031 71.962C47.7955 71.3773 47.7368 70.7925 47.9031 69.1327C47.502 68.2933 47.0618 68.0387 49.3705 67.718Z" fill="white"/>
<path d="M49.3705 67.718C51.4641 67.718 54.0271 67.5577 55.0837 67.718M49.3705 67.718C51.239 67.7086 53.313 67.7369 55.0837 67.718M49.3705 67.718C48.8814 67.52 48.0988 67.9538 47.9031 69.1327M49.3705 67.718C49.0281 67.6614 47.8053 68.3027 47.9031 69.1327M55.0837 67.718C55.8957 68.0198 56.962 68.4819 56.5511 69.1327M55.0837 67.718C56.6294 67.6331 56.9913 68.1801 56.5511 69.1327M56.5511 69.1327C56.6391 69.8966 56.6294 70.5945 56.5511 71.962M56.5511 69.1327C56.5315 70.1984 56.5218 71.2641 56.5511 71.962M56.5511 71.962C56.6098 73.1032 56.0717 73.2541 55.0837 73.3767M56.5511 71.962C56.1696 73.4332 55.9446 74.0557 55.0837 73.3767M55.0837 73.3767C53.4597 73.4615 51.9238 73.4144 49.3705 73.3767M55.0837 73.3767C52.726 73.3578 50.5934 73.3106 49.3705 73.3767M49.3705 73.3767C48.2944 73.3861 48.3923 72.7542 47.9031 71.962M49.3705 73.3767C48.3629 73.6124 47.2085 73.4427 47.9031 71.962M47.9031 71.962C47.8542 71.4244 47.8249 70.802 47.9031 69.1327M47.9031 71.962C47.8933 70.8963 47.9325 69.8589 47.9031 69.1327" stroke="#1E1E1E" stroke-linecap="round"/>
<path d="M54.3061 60.105C55.8812 59.8032 56.8497 60.4256 60.0193 60.105C60.8508 61.0669 61.6139 60.9538 61.4867 61.5196C61.7704 62.1327 61.2813 62.8777 61.4867 64.349C61.6824 65.3109 60.2247 66.4615 60.0193 65.7636C57.3095 65.1789 56.1453 66.1691 54.3061 65.7636C52.8094 65.9239 53.4746 67.1123 52.8387 64.349C52.555 63.5662 52.6137 61.9818 52.8387 61.5196C51.3909 61.5479 53.4257 61.6234 54.3061 60.105Z" fill="white"/>
<path d="M54.3062 60.105C56.3703 60.0484 58.1215 60.1427 60.0193 60.105M54.3062 60.105C56.566 60.0107 58.7378 60.0673 60.0193 60.105M54.3062 60.105C53.0638 60.6991 53.3768 60.5294 52.8388 61.5196M54.3062 60.105C53.9638 59.5014 52.2616 61.265 52.8388 61.5196M60.0193 60.105C60.5672 59.8881 61.1346 60.1804 61.4867 61.5196M60.0193 60.105C60.9389 60.5388 62.1617 61.1801 61.4867 61.5196M61.4867 61.5196C61.4183 62.1893 61.5454 62.6419 61.4867 64.349M61.4867 61.5196C61.4574 62.3307 61.4574 63.1701 61.4867 64.349M61.4867 64.349C61.7802 65.6976 61.1443 65.8957 60.0193 65.7636M61.4867 64.349C61.3693 65.2355 60.3519 65.1789 60.0193 65.7636M60.0193 65.7636C57.9552 65.7919 56.0769 65.7731 54.3062 65.7636M60.0193 65.7636C58.5812 65.7259 57.3486 65.7165 54.3062 65.7636M54.3062 65.7636C52.9464 65.6316 52.5942 65.2261 52.8388 64.349M54.3062 65.7636C53.9736 65.9711 52.3301 64.9808 52.8388 64.349M52.8388 64.349C52.7801 63.6794 52.9072 62.9626 52.8388 61.5196M52.8388 64.349C52.8779 63.2927 52.8583 62.2836 52.8388 61.5196" stroke="#1E1E1E" stroke-linecap="round"/>
<path d="M48.7363 52.2936C50.6928 52.0012 52.7668 52.4822 54.4494 52.2936C54.6744 50.9921 56.8853 53.8026 55.9168 53.7082C55.8288 54.7834 55.9266 54.972 55.9168 56.5376C55.8777 55.651 54.8994 56 54.4494 57.9522C53.0114 57.6127 50.8102 57.5467 48.7363 57.9522C48.658 59.1783 49.1961 55.9623 47.2689 56.5376C47.0243 55.9717 46.9265 54.9437 47.2689 53.7082C48.1493 54.2835 46.3884 53.7743 48.7363 52.2936Z" fill="white"/>
<path d="M48.7362 52.2936C50.7515 52.1898 52.4341 52.4162 54.4494 52.2936M48.7362 52.2936C50.5167 52.2747 52.1015 52.369 54.4494 52.2936M48.7362 52.2936C48.1493 51.9163 46.9655 52.982 47.2688 53.7082M48.7362 52.2936C47.3079 51.6051 46.9362 52.6331 47.2688 53.7082M54.4494 52.2936C54.9189 52.8877 56.4646 52.237 55.9168 53.7082M54.4494 52.2936C55.2418 51.8032 55.2222 52.7651 55.9168 53.7082M55.9168 53.7082C55.8972 54.4344 55.907 55.0946 55.9168 56.5375M55.9168 53.7082C55.9559 54.3401 55.8874 54.9814 55.9168 56.5375M55.9168 56.5375C55.9755 57.4901 55.1929 58.1597 54.4494 57.9522M55.9168 56.5375C56.5233 56.8299 55.4374 57.3581 54.4494 57.9522M54.4494 57.9522C53.2265 57.9805 52.1504 58.122 48.7362 57.9522M54.4494 57.9522C52.17 58.056 49.9982 57.9145 48.7362 57.9522M48.7362 57.9522C47.3373 58.2351 47.2982 57.9333 47.2688 56.5375M48.7362 57.9522C47.9438 57.6127 47.5427 57.0185 47.2688 56.5375M47.2688 56.5375C47.2395 55.6793 47.2786 54.84 47.2688 53.7082M47.2688 56.5375C47.3079 55.6982 47.3079 54.84 47.2688 53.7082" stroke="#1E1E1E" stroke-linecap="round"/>
</svg>
