<svg width="81" height="117" viewBox="0 0 81 117" fill="none" xmlns="http://www.w3.org/2000/svg">
<path d="M20.7245 8.3161C30.8581 7.93974 43.0942 6.14792 55.5372 8.3161C69.6433 8.15246 72.7368 13.5197 72.9436 24.8434C72.0733 41.8697 73.4779 60.827 72.9436 91.5661C74.7187 103.381 67.782 110.63 55.5372 108.093C46.0068 109.926 39.8112 107.21 20.7245 108.093C7.66105 105.295 4.3952 104.289 3.31808 91.5661C2.93031 74.9079 3.28361 53.5534 3.31808 24.8434C4.28318 13.7406 6.13584 6.19701 20.7245 8.3161Z" fill="white"/>
<path d="M20.7245 8.31611C29.0227 8.88065 35.5113 9.52702 55.5372 8.31611M20.7245 8.31611C30.2463 7.89884 40.7074 8.61884 55.5372 8.31611M20.7245 8.31611C10.6684 9.15065 1.6981 14.0188 3.3181 24.8434M20.7245 8.31611C8.1781 9.4452 1.52576 12.8243 3.3181 24.8434M55.5372 8.31611C65.7398 9.05247 73.8484 14.6979 72.9436 24.8434M55.5372 8.31611C68.0061 8.04611 73.1332 13.9207 72.9436 24.8434M72.9436 24.8434C71.8234 51.2952 71.8751 76.667 72.9436 91.5661M72.9436 24.8434C72.2543 47.7034 72.7885 72.3552 72.9436 91.5661M72.9436 91.5661C73.5296 103.454 67.3081 106.768 55.5372 108.093M72.9436 91.5661C71.4529 104.06 66.972 107.267 55.5372 108.093M55.5372 108.093C44.4644 109.697 33.5466 109.983 20.7245 108.093M55.5372 108.093C43.8439 107.823 32.2799 107.897 20.7245 108.093M20.7245 108.093C8.0747 107.652 2.9131 103.168 3.3181 91.5661M20.7245 108.093C8.78991 106.817 1.90491 104.199 3.3181 91.5661M3.3181 91.5661C3.53352 71.7007 4.74852 51.9252 3.3181 24.8434M3.3181 91.5661C4.0764 65.777 3.25778 39.1534 3.3181 24.8434" stroke="#1E1E1E" stroke-width="2" stroke-linecap="round"/>
<path d="M48.1367 28.8334C48.3004 28.8416 48.6192 28.997 48.9036 29.1443C49.1793 29.2834 49.6532 29.4798 49.7911 29.6761C49.929 29.8807 49.8945 30.1752 49.7394 30.3389C49.5757 30.5025 49.0414 30.5598 48.8432 30.658C48.6451 30.7643 48.7657 30.9443 48.5417 30.9525C48.3262 30.9607 47.7144 30.8461 47.5335 30.707C47.3611 30.5761 47.4387 30.347 47.4818 30.1425C47.5335 29.9298 47.6196 29.6189 47.8178 29.4552C48.0074 29.2916 48.5503 29.2098 48.6537 29.1443C48.7657 29.087 48.4899 29.128 48.4813 29.087M48.1539 28.7598C48.3952 28.7925 48.826 29.0952 49.0587 29.1934C49.2913 29.2916 49.5068 29.1034 49.5412 29.357C49.5757 29.6107 49.3517 30.4698 49.2569 30.7152C49.1621 30.9525 49.2052 30.7725 48.9725 30.8134C48.7398 30.8625 48.1022 30.977 47.8523 30.9852C47.5938 31.0016 47.5679 31.0016 47.4301 30.8707C47.3008 30.7398 46.9906 30.5352 47.0509 30.2161C47.1026 29.897 47.4818 29.1934 47.7747 28.9725C48.0763 28.7516 48.7226 28.9643 48.8346 28.8907C48.9467 28.8089 48.5675 28.4816 48.4296 28.5061" stroke="#1E1E1E" stroke-linecap="round"/>
<path d="M23.2356 9.08679C30.7324 9.08679 38.2379 9.08679 54.5585 9.08679M23.2356 9.08679C35.3253 9.08679 47.415 9.08679 54.5585 9.08679M23.2356 9.08679C21.09 9.08679 20.0215 10.1013 20.0215 12.1386M54.5585 9.08679C56.7041 9.08679 57.7727 10.1013 57.7727 12.1386M57.7727 12.1386C57.7727 13.3904 57.7727 14.6422 57.7727 18.2341M57.7727 12.1386C57.7727 14.3313 57.7727 16.5241 57.7727 18.2341M57.7727 18.2341C57.7727 20.2632 56.7041 21.2777 54.5585 21.2777M54.5585 21.2777C46.9755 21.2777 39.3839 21.2777 23.2356 21.2777M54.5585 21.2777C42.4602 21.2777 30.3619 21.2777 23.2356 21.2777M23.2356 21.2777C21.09 21.2777 20.0215 20.2632 20.0215 18.2341M20.0215 18.2341C20.0215 16.4995 20.0215 14.765 20.0215 12.1386M20.0215 18.2341C20.0215 16.8432 20.0215 15.4522 20.0215 12.1386" stroke="#1E1E1E" stroke-width="2" stroke-linecap="round"/>
<path d="M24.8884 14.0116C24.8266 14.0116 24.755 14.023 24.6736 14.0458C24.5922 14.0653 24.5076 14.0897 24.4197 14.119C24.3318 14.1451 24.2439 14.1695 24.156 14.1923C24.0714 14.2118 23.9949 14.2216 23.9265 14.2216C23.8549 14.2216 23.7979 14.2102 23.7556 14.1874C23.7166 14.1613 23.6873 14.1288 23.6677 14.0897C23.6482 14.0507 23.6368 14.0083 23.6335 13.9628C23.6303 13.9172 23.6287 13.8733 23.6287 13.8309C23.6287 13.7072 23.6645 13.6063 23.7361 13.5282C23.811 13.4501 23.9167 13.385 24.0535 13.3329C24.1902 13.2775 24.3546 13.232 24.5466 13.1962C24.7419 13.1571 24.9617 13.1148 25.2058 13.0692C25.5899 12.9976 25.9399 12.9423 26.2556 12.9032C26.5746 12.8641 26.8774 12.8365 27.1638 12.8202C27.4535 12.8007 27.7367 12.7893 28.0134 12.786C28.2901 12.7828 28.5815 12.7811 28.8875 12.7811C28.9786 12.7811 29.0502 12.7925 29.1023 12.8153C29.1544 12.8381 29.1918 12.8674 29.2146 12.9032C29.2406 12.939 29.2553 12.9797 29.2585 13.0253C29.2651 13.0708 29.2683 13.1164 29.2683 13.162C29.2683 13.2141 29.2602 13.271 29.2439 13.3329C29.2309 13.3915 29.2065 13.4468 29.1707 13.4989C29.1381 13.5477 29.0925 13.5884 29.0339 13.621C28.9786 13.6535 28.9102 13.6698 28.8289 13.6698H28.4382C28.282 13.6698 28.116 13.6714 27.9402 13.6747C27.7644 13.6747 27.5903 13.6779 27.4177 13.6844C27.2452 13.6877 27.0792 13.6942 26.9197 13.704C26.7634 13.7137 26.6235 13.7284 26.4998 13.7479C26.3793 13.7642 26.2833 13.7854 26.2117 13.8114C26.1401 13.8374 26.1042 13.87 26.1042 13.9091C26.1042 13.9481 26.1189 14.0132 26.1482 14.1044C26.1775 14.1955 26.2133 14.2948 26.2556 14.4022C26.2979 14.5064 26.3403 14.6106 26.3826 14.7147C26.4281 14.8156 26.4656 14.9003 26.4949 14.9686C26.5209 15.024 26.5502 15.0614 26.5828 15.0809C26.6153 15.1005 26.6593 15.1102 26.7146 15.1102C26.8481 15.1102 26.9848 15.1021 27.1248 15.0858C27.2647 15.0695 27.4047 15.0516 27.5447 15.0321C27.6879 15.0093 27.8295 14.9898 27.9695 14.9735C28.1127 14.9572 28.2543 14.9491 28.3943 14.9491C28.4724 14.9491 28.5359 14.9637 28.5847 14.993C28.6368 15.0191 28.6775 15.0533 28.7068 15.0956C28.7361 15.1346 28.7556 15.177 28.7654 15.2225C28.7784 15.2681 28.7849 15.3072 28.7849 15.3397C28.7849 15.4862 28.7393 15.5969 28.6482 15.6718C28.557 15.7434 28.4333 15.7971 28.2771 15.8329C28.1208 15.8687 27.9386 15.8931 27.7302 15.9061C27.5251 15.9191 27.307 15.9371 27.0759 15.9598L26.9587 15.9696C26.9164 15.9761 26.8839 15.9908 26.8611 16.0135C26.8383 16.0363 26.8269 16.0656 26.8269 16.1014C26.8269 16.1112 26.8285 16.1193 26.8318 16.1259C26.835 16.1324 26.8367 16.1405 26.8367 16.1503C26.866 16.2577 26.9001 16.3781 26.9392 16.5116C26.9783 16.6418 27.0141 16.772 27.0466 16.9022C27.0824 17.0324 27.1117 17.1561 27.1345 17.2733C27.1573 17.3905 27.1687 17.4865 27.1687 17.5614C27.1687 17.7111 27.1117 17.8251 26.9978 17.9032C26.8871 17.9813 26.7292 18.0204 26.5242 18.0204C26.4493 18.0204 26.3761 18.0025 26.3044 17.9667C26.2361 17.9341 26.1938 17.8723 26.1775 17.7811C26.1254 17.5142 26.0668 17.2538 26.0017 16.9999C25.9366 16.7427 25.8682 16.4872 25.7966 16.2333C25.7673 16.1454 25.7104 16.1014 25.6257 16.1014C25.5281 16.1014 25.4174 16.0982 25.2937 16.0917C25.1733 16.0852 25.0496 16.0721 24.9226 16.0526C24.7957 16.0331 24.672 16.0087 24.5515 15.9794C24.4343 15.9468 24.3285 15.9045 24.2341 15.8524C24.143 15.8003 24.0681 15.7385 24.0095 15.6669C23.9542 15.5953 23.9265 15.5106 23.9265 15.413C23.9265 15.3511 23.9412 15.2909 23.9705 15.2323C23.9998 15.1705 24.0372 15.1167 24.0828 15.0712C24.1283 15.0223 24.1772 14.9833 24.2292 14.954C24.2846 14.9247 24.3367 14.91 24.3855 14.91C24.4441 14.91 24.5076 14.9247 24.5759 14.954C24.6443 14.9833 24.7175 15.0158 24.7957 15.0516C24.8738 15.0874 24.9568 15.12 25.0447 15.1493C25.1358 15.1786 25.2335 15.1932 25.3376 15.1932C25.3897 15.1932 25.4158 15.1656 25.4158 15.1102C25.4158 15.0581 25.406 14.9898 25.3865 14.9052C25.3702 14.8205 25.3474 14.7326 25.3181 14.6415C25.2888 14.5471 25.2546 14.4559 25.2156 14.368C25.1798 14.2769 25.1407 14.2004 25.0984 14.1385C25.0723 14.0995 25.0447 14.0686 25.0154 14.0458C24.9893 14.023 24.947 14.0116 24.8884 14.0116ZM28.9851 12.0194C28.9851 11.8501 29.0339 11.7297 29.1316 11.6581C29.2292 11.5865 29.3904 11.5507 29.615 11.5507C29.6931 11.5507 29.7615 11.5588 29.8201 11.5751C29.8787 11.5913 29.9275 11.619 29.9666 11.6581C30.0056 11.6939 30.0365 11.7443 30.0593 11.8094C30.0854 11.8713 30.1065 11.951 30.1228 12.0487C30.1651 12.3384 30.2074 12.6428 30.2498 12.9618C30.2953 13.2775 30.3376 13.5933 30.3767 13.9091C30.419 14.2216 30.4581 14.5275 30.4939 14.827C30.5297 15.1233 30.5606 15.3999 30.5867 15.6571C30.616 15.911 30.6371 16.1372 30.6501 16.3358C30.6664 16.5311 30.6746 16.6858 30.6746 16.7997C30.6746 16.9169 30.6632 17.0162 30.6404 17.0975C30.6208 17.1789 30.585 17.244 30.533 17.2928C30.4841 17.3417 30.419 17.3775 30.3376 17.4003C30.2595 17.4198 30.1619 17.4296 30.0447 17.4296C29.9307 17.4296 29.8396 17.4003 29.7712 17.3417C29.7061 17.2831 29.6736 17.1936 29.6736 17.0731C29.6736 16.9494 29.6638 16.785 29.6443 16.58C29.6248 16.3716 29.5987 16.1405 29.5662 15.8866C29.5336 15.6327 29.4962 15.3625 29.4539 15.076C29.4148 14.7896 29.3725 14.5064 29.3269 14.2264C29.2846 13.9465 29.2423 13.6779 29.2 13.4208C29.1609 13.1604 29.1251 12.9309 29.0925 12.7323C29.06 12.5305 29.0339 12.3661 29.0144 12.2391C28.9949 12.1089 28.9851 12.0357 28.9851 12.0194ZM32.1882 12.6005C32.0938 12.6005 32.0043 12.5874 31.9197 12.5614C31.8383 12.5321 31.7667 12.493 31.7048 12.4442C31.6462 12.3921 31.599 12.3319 31.5632 12.2635C31.5274 12.1952 31.5095 12.1203 31.5095 12.0389C31.5095 11.9022 31.5632 11.7915 31.6707 11.7069C31.7813 11.6223 31.9278 11.58 32.1101 11.58C32.1947 11.58 32.2761 11.5962 32.3542 11.6288C32.4324 11.6581 32.5007 11.6988 32.5593 11.7509C32.6212 11.8029 32.67 11.8648 32.7058 11.9364C32.7416 12.0048 32.7595 12.0764 32.7595 12.1512C32.7595 12.2912 32.7074 12.4019 32.6033 12.4833C32.5024 12.5614 32.364 12.6005 32.1882 12.6005ZM31.5193 14.0897C31.5193 13.9758 31.5681 13.883 31.6658 13.8114C31.7667 13.7365 31.8985 13.6991 32.0613 13.6991C32.3542 13.6991 32.5105 13.8 32.53 14.0018C32.5431 14.1418 32.5561 14.2997 32.5691 14.4755C32.5854 14.6512 32.6 14.8384 32.613 15.037C32.6293 15.2323 32.6423 15.4358 32.6521 15.6473C32.6651 15.8557 32.6765 16.0624 32.6863 16.2675C32.696 16.4693 32.7042 16.6646 32.7107 16.8534C32.7172 17.0422 32.7205 17.2147 32.7205 17.371C32.7205 17.5337 32.6619 17.6558 32.5447 17.7372C32.4307 17.8186 32.2631 17.8593 32.0417 17.8593C31.9408 17.8593 31.8611 17.8348 31.8025 17.786C31.7472 17.7404 31.7195 17.6721 31.7195 17.5809C31.7195 17.1317 31.7081 16.7118 31.6853 16.3212C31.6658 15.9273 31.643 15.5774 31.6169 15.2714C31.5942 14.9654 31.5714 14.7115 31.5486 14.5096C31.5291 14.3046 31.5193 14.1646 31.5193 14.0897ZM33.1501 14.1727C33.1501 14.0458 33.2071 13.9497 33.321 13.8846C33.435 13.8163 33.5977 13.7821 33.8093 13.7821C33.8582 13.7821 33.9021 13.7886 33.9412 13.8016C33.9802 13.8147 34.0144 13.8407 34.0437 13.8798C34.0763 13.9156 34.1056 13.966 34.1316 14.0311C34.1576 14.0962 34.1837 14.1792 34.2097 14.2802C34.2358 14.3941 34.2618 14.451 34.2878 14.451C34.3106 14.451 34.3383 14.4038 34.3708 14.3094C34.4294 14.1239 34.5059 13.9628 34.6003 13.826C34.698 13.6861 34.807 13.5705 34.9275 13.4794C35.0479 13.385 35.1781 13.315 35.3181 13.2694C35.4613 13.2238 35.6111 13.201 35.7673 13.201C36.0831 13.201 36.3777 13.2613 36.6511 13.3817C36.9246 13.4989 37.1606 13.6633 37.3591 13.8749C37.5577 14.0832 37.7139 14.3306 37.8279 14.6171C37.9418 14.9003 37.9988 15.2079 37.9988 15.5399C37.9988 15.8915 37.9369 16.217 37.8132 16.5165C37.6928 16.816 37.5235 17.0747 37.3054 17.2928C37.0873 17.5077 36.8269 17.6753 36.5242 17.7958C36.2247 17.9195 35.8959 17.9813 35.5378 17.9813L35.2888 17.9716C35.1423 17.9716 35.0691 18.0546 35.0691 18.2206L35.3181 20.4618C35.3149 20.5171 35.2953 20.5676 35.2595 20.6132C35.227 20.662 35.1814 20.7043 35.1228 20.7401C35.0675 20.7759 35.0007 20.8036 34.9226 20.8231C34.8477 20.8427 34.7696 20.8524 34.6882 20.8524C34.4539 20.8524 34.3269 20.7759 34.3074 20.6229C34.239 20.0305 34.1625 19.4673 34.0779 18.9335C33.9965 18.3996 33.9119 17.9032 33.824 17.4442C33.7393 16.982 33.6563 16.5621 33.575 16.1844C33.4936 15.8068 33.4203 15.4781 33.3552 15.1981C33.2934 14.9182 33.2445 14.6903 33.2087 14.5145C33.1697 14.3387 33.1501 14.2248 33.1501 14.1727ZM34.7371 15.4618C34.7371 15.6734 34.7452 15.8833 34.7615 16.0917C34.7778 16.2968 34.8038 16.5197 34.8396 16.7606C34.8591 16.9071 34.9389 16.9901 35.0789 17.0096C35.1635 17.0292 35.2579 17.0487 35.3621 17.0682C35.4695 17.0845 35.559 17.0927 35.6306 17.0927C35.8389 17.0927 36.0278 17.0617 36.197 16.9999C36.3663 16.938 36.5111 16.8501 36.6316 16.7362C36.752 16.619 36.8448 16.4807 36.9099 16.3212C36.975 16.1617 37.0076 15.9843 37.0076 15.7889C37.0076 15.5513 36.975 15.33 36.9099 15.1249C36.8448 14.9165 36.7553 14.7359 36.6414 14.5829C36.5307 14.4299 36.3988 14.3094 36.2458 14.2216C36.0961 14.1337 35.9333 14.0897 35.7576 14.0897C35.6046 14.0897 35.4646 14.1239 35.3376 14.1923C35.2139 14.2574 35.1065 14.3501 35.0154 14.4706C34.9275 14.5878 34.8591 14.731 34.8103 14.9003C34.7615 15.0695 34.7371 15.2567 34.7371 15.4618ZM38.6726 15.8719C38.5815 15.8719 38.5066 15.8345 38.448 15.7596C38.3894 15.6815 38.3601 15.5692 38.3601 15.4227C38.3601 15.2925 38.4187 15.1949 38.5359 15.1298C38.6531 15.0647 38.8516 15.0191 39.1316 14.993C39.2227 14.9833 39.3416 14.9703 39.488 14.954C39.6378 14.9344 39.7891 14.9165 39.9421 14.9003C40.0984 14.8807 40.2449 14.8645 40.3816 14.8514C40.5216 14.8384 40.6306 14.8319 40.7087 14.8319C40.8292 14.8319 40.922 14.8677 40.9871 14.9393C41.0554 15.0109 41.0896 15.1379 41.0896 15.3202C41.0896 15.509 40.9024 15.6229 40.5281 15.662C40.4792 15.6685 40.406 15.6783 40.3083 15.6913C40.2139 15.701 40.1065 15.7141 39.9861 15.7303C39.8656 15.7466 39.7387 15.7629 39.6052 15.7792C39.475 15.7955 39.3497 15.8101 39.2292 15.8231C39.1088 15.8361 38.9981 15.8475 38.8972 15.8573C38.7996 15.8671 38.7247 15.8719 38.6726 15.8719ZM44.4832 12.1805C44.4832 12.008 44.532 11.8876 44.6296 11.8192C44.7273 11.7476 44.8884 11.7118 45.113 11.7118C45.1944 11.7118 45.2628 11.7199 45.3181 11.7362C45.3767 11.7492 45.4255 11.7753 45.4646 11.8143C45.5069 11.8534 45.5395 11.9055 45.5623 11.9706C45.5883 12.0324 45.6095 12.1122 45.6257 12.2098C45.6681 12.4996 45.7104 12.8039 45.7527 13.1229C45.7983 13.4387 45.8406 13.7544 45.8796 14.0702C45.922 14.3827 45.961 14.6887 45.9968 14.9882C46.0326 15.2844 46.0636 15.5611 46.0896 15.8182C46.1156 16.0721 46.1352 16.2984 46.1482 16.4969C46.1645 16.6923 46.1726 16.8469 46.1726 16.9608C46.1726 17.078 46.1612 17.1773 46.1384 17.2587C46.1189 17.3368 46.0847 17.4019 46.0359 17.454C45.9871 17.5028 45.922 17.5386 45.8406 17.5614C45.7592 17.5809 45.6599 17.5907 45.5427 17.5907C45.4288 17.5907 45.3393 17.5614 45.2742 17.5028C45.2091 17.441 45.1765 17.3498 45.1765 17.2294C45.1765 17.1187 45.1667 16.9722 45.1472 16.7899C45.1309 16.6076 45.1082 16.4058 45.0789 16.1844C45.0528 15.9598 45.0219 15.7222 44.9861 15.4716C44.9503 15.2177 44.9128 14.9637 44.8738 14.7098C44.8673 14.661 44.8494 14.6285 44.8201 14.6122C44.794 14.5927 44.755 14.5829 44.7029 14.5829L43.4138 14.7098C43.3455 14.7196 43.3031 14.7473 43.2869 14.7928C43.2738 14.8384 43.2673 14.9019 43.2673 14.9833C43.2673 15.7027 43.2852 16.3212 43.321 16.8387C43.3569 17.3563 43.3959 17.7909 43.4382 18.1425C43.4838 18.4973 43.5245 18.7756 43.5603 18.9774C43.5961 19.1825 43.614 19.3306 43.614 19.4218C43.614 19.4901 43.5863 19.552 43.531 19.6073C43.4789 19.6626 43.4106 19.7098 43.3259 19.7489C43.2445 19.788 43.155 19.8173 43.0574 19.8368C42.9597 19.8596 42.8686 19.871 42.7839 19.871C42.7026 19.871 42.6293 19.8563 42.5642 19.827C42.5024 19.801 42.4666 19.7554 42.4568 19.6903C42.4242 19.4624 42.3966 19.2118 42.3738 18.9384C42.351 18.6682 42.3315 18.3671 42.3152 18.035C42.3022 17.7063 42.2924 17.3466 42.2859 16.9559C42.2794 16.5621 42.2761 16.1307 42.2761 15.662C42.2761 15.5415 42.2761 15.4244 42.2761 15.3104C42.2761 15.1965 42.2794 15.0826 42.2859 14.9686C42.2859 14.871 42.2322 14.8221 42.1248 14.8221L41.2751 14.8905C41.2003 14.884 41.1401 14.8352 41.0945 14.744C41.0489 14.6529 41.0261 14.552 41.0261 14.4413C41.0261 14.3892 41.031 14.3387 41.0408 14.2899C41.0473 14.2378 41.0603 14.1923 41.0798 14.1532C41.0994 14.1141 41.1238 14.0832 41.1531 14.0604C41.1824 14.0344 41.2166 14.0214 41.2556 14.0214C41.3761 14.0214 41.5144 14.0181 41.6707 14.0116C41.8269 14.0018 41.9945 13.9921 42.1736 13.9823C42.2647 13.9725 42.3152 13.9188 42.325 13.8212C42.3542 13.3492 42.3949 12.9423 42.447 12.6005C42.4991 12.2587 42.5626 11.9706 42.6375 11.7362C42.7123 11.4986 42.797 11.3065 42.8914 11.16C42.989 11.0135 43.0964 10.9012 43.2136 10.8231C43.2494 10.7971 43.2917 10.771 43.3406 10.745C43.3894 10.7157 43.435 10.701 43.4773 10.701C43.5587 10.701 43.6433 10.7222 43.7312 10.7645C43.8223 10.8036 43.9054 10.8557 43.9802 10.9208C44.0583 10.9826 44.1218 11.0542 44.1707 11.1356C44.2195 11.2137 44.2439 11.2919 44.2439 11.37C44.2439 11.3993 44.2374 11.4237 44.2244 11.4432C44.2113 11.4595 44.1951 11.4758 44.1755 11.4921C44.0486 11.5865 43.9363 11.6923 43.8386 11.8094C43.741 11.9266 43.658 12.0699 43.5896 12.2391C43.5212 12.4084 43.4643 12.6119 43.4187 12.8495C43.3731 13.0871 43.3389 13.3736 43.3162 13.7089C43.3162 13.7609 43.3243 13.8 43.3406 13.826C43.3601 13.8488 43.3943 13.8602 43.4431 13.8602C43.4952 13.8602 43.5668 13.8553 43.658 13.8456C43.7524 13.8358 43.8516 13.8244 43.9558 13.8114C44.06 13.7951 44.1641 13.7788 44.2683 13.7626C44.3757 13.743 44.4685 13.7251 44.5466 13.7089C44.6052 13.6991 44.6427 13.6828 44.6589 13.66C44.6752 13.634 44.6833 13.5917 44.6833 13.5331C44.6833 13.4875 44.6768 13.4305 44.6638 13.3622C44.6541 13.2906 44.641 13.2108 44.6248 13.1229C44.5792 12.856 44.5434 12.6379 44.5173 12.4686C44.4945 12.2961 44.4832 12.2001 44.4832 12.1805ZM47.0173 15.9598C47.0173 15.9045 47.0238 15.8427 47.0369 15.7743C47.0499 15.7059 47.0564 15.6311 47.0564 15.5497C47.0564 15.4943 47.032 15.452 46.9832 15.4227C46.9376 15.3934 46.8855 15.3609 46.8269 15.3251C46.7683 15.2893 46.7146 15.2437 46.6658 15.1884C46.6202 15.133 46.5974 15.0533 46.5974 14.9491C46.5974 14.8742 46.6169 14.7994 46.656 14.7245C46.6983 14.6496 46.7585 14.5813 46.8367 14.5194C47.0287 14.3762 47.2273 14.2476 47.4324 14.1337C47.6407 14.0197 47.8474 13.9237 48.0525 13.8456C48.2608 13.7675 48.4659 13.7072 48.6677 13.6649C48.8695 13.6226 49.0632 13.6014 49.2488 13.6014C49.5613 13.6014 49.8542 13.66 50.1277 13.7772C50.4044 13.8912 50.6436 14.049 50.8455 14.2509C51.0505 14.4494 51.2117 14.6838 51.3289 14.954C51.4493 15.2209 51.5095 15.5074 51.5095 15.8134C51.5095 16.1128 51.446 16.3977 51.3191 16.6678C51.1954 16.9348 51.0278 17.1691 50.8162 17.371C50.6046 17.5728 50.3556 17.7323 50.0691 17.8495C49.7859 17.9699 49.4864 18.0302 49.1707 18.0302C48.8614 18.0302 48.575 17.9781 48.3113 17.8739C48.0476 17.7697 47.8197 17.6265 47.6277 17.4442C47.4356 17.2587 47.2859 17.0406 47.1785 16.7899C47.071 16.536 47.0173 16.2593 47.0173 15.9598ZM49.2781 17.1512C49.4148 17.1512 49.5564 17.1236 49.7029 17.0682C49.8494 17.0129 49.9828 16.9331 50.1033 16.829C50.227 16.7216 50.3279 16.5913 50.406 16.4384C50.4874 16.2854 50.5281 16.1128 50.5281 15.9208C50.5281 15.7255 50.4923 15.5432 50.4207 15.3739C50.349 15.2046 50.2498 15.0581 50.1228 14.9344C49.9991 14.8075 49.851 14.7082 49.6785 14.6366C49.5092 14.565 49.3253 14.5292 49.1267 14.5292C48.7654 14.5292 48.4887 14.6236 48.2966 14.8124C48.1046 14.9979 48.0085 15.2844 48.0085 15.6718C48.0085 15.8833 48.0395 16.0803 48.1013 16.2626C48.1664 16.4416 48.2559 16.5979 48.3699 16.7313C48.4838 16.8615 48.6173 16.9641 48.7703 17.0389C48.9265 17.1138 49.0958 17.1512 49.2781 17.1512ZM51.6755 14.1727C51.6755 14.0458 51.7325 13.9497 51.8464 13.8846C51.9604 13.8163 52.1231 13.7821 52.3347 13.7821C52.3835 13.7821 52.4275 13.7886 52.4666 13.8016C52.5056 13.8147 52.5398 13.8407 52.5691 13.8798C52.6016 13.9156 52.6309 13.966 52.657 14.0311C52.683 14.0962 52.7091 14.1792 52.7351 14.2802C52.7611 14.3941 52.7872 14.451 52.8132 14.451C52.836 14.451 52.8637 14.4038 52.8962 14.3094C52.9548 14.1239 53.0313 13.9628 53.1257 13.826C53.2234 13.6861 53.3324 13.5705 53.4529 13.4794C53.5733 13.385 53.7035 13.315 53.8435 13.2694C53.9867 13.2238 54.1365 13.201 54.2927 13.201C54.6085 13.201 54.9031 13.2613 55.1765 13.3817C55.45 13.4989 55.686 13.6633 55.8845 13.8749C56.0831 14.0832 56.2393 14.3306 56.3533 14.6171C56.4672 14.9003 56.5242 15.2079 56.5242 15.5399C56.5242 15.8915 56.4623 16.217 56.3386 16.5165C56.2182 16.816 56.0489 17.0747 55.8308 17.2928C55.6127 17.5077 55.3523 17.6753 55.0496 17.7958C54.7501 17.9195 54.4213 17.9813 54.0632 17.9813L53.8142 17.9716C53.6677 17.9716 53.5945 18.0546 53.5945 18.2206L53.8435 20.4618C53.8403 20.5171 53.8207 20.5676 53.7849 20.6132C53.7524 20.662 53.7068 20.7043 53.6482 20.7401C53.5929 20.7759 53.5261 20.8036 53.448 20.8231C53.3731 20.8427 53.295 20.8524 53.2136 20.8524C52.9792 20.8524 52.8523 20.7759 52.8328 20.6229C52.7644 20.0305 52.6879 19.4673 52.6033 18.9335C52.5219 18.3996 52.4373 17.9032 52.3494 17.4442C52.2647 16.982 52.1817 16.5621 52.1003 16.1844C52.019 15.8068 51.9457 15.4781 51.8806 15.1981C51.8188 14.9182 51.7699 14.6903 51.7341 14.5145C51.6951 14.3387 51.6755 14.2248 51.6755 14.1727ZM53.2625 15.4618C53.2625 15.6734 53.2706 15.8833 53.2869 16.0917C53.3031 16.2968 53.3292 16.5197 53.365 16.7606C53.3845 16.9071 53.4643 16.9901 53.6042 17.0096C53.6889 17.0292 53.7833 17.0487 53.8875 17.0682C53.9949 17.0845 54.0844 17.0927 54.156 17.0927C54.3643 17.0927 54.5531 17.0617 54.7224 16.9999C54.8917 16.938 55.0365 16.8501 55.157 16.7362C55.2774 16.619 55.3702 16.4807 55.4353 16.3212C55.5004 16.1617 55.533 15.9843 55.533 15.7889C55.533 15.5513 55.5004 15.33 55.4353 15.1249C55.3702 14.9165 55.2807 14.7359 55.1667 14.5829C55.0561 14.4299 54.9242 14.3094 54.7712 14.2216C54.6215 14.1337 54.4587 14.0897 54.283 14.0897C54.13 14.0897 53.99 14.1239 53.863 14.1923C53.7393 14.2574 53.6319 14.3501 53.5408 14.4706C53.4529 14.5878 53.3845 14.731 53.3357 14.9003C53.2869 15.0695 53.2625 15.2567 53.2625 15.4618Z" fill="#1E1E1E"/>
<path d="M10.7362 80.4313C20.2063 80.4313 58.104 80.4313 67.5741 80.4313" stroke="#1E1E1E" stroke-width="2" stroke-linecap="round"/>
<path d="M10.1061 93.375C10.0975 92.6386 10.0803 89.685 10.0717 88.9486" stroke="#1E1E1E" stroke-linecap="round"/>
<path d="M10.0441 89.1146C10.2595 88.82 11.1298 87.6582 11.3452 87.3636" stroke="#1E1E1E" stroke-linecap="round"/>
<path d="M12.6315 93.4275C12.6401 92.6911 12.6573 89.7375 12.6659 89.0011" stroke="#1E1E1E" stroke-linecap="round"/>
<path d="M12.6935 89.1671C12.4781 88.8726 11.6078 87.7107 11.3923 87.4162" stroke="#1E1E1E" stroke-linecap="round"/>
<path d="M8.19983 93.8254C9.21664 93.809 13.2666 93.7435 14.2748 93.7272" stroke="#1E1E1E" stroke-linecap="round"/>
<path d="M11.5247 93.8994C11.5333 94.4148 11.5677 96.493 11.5764 97.0084" stroke="#1E1E1E" stroke-linecap="round"/>
<path d="M47.2087 89.8748C47.519 89.5721 48.7598 88.3448 49.07 88.0339" stroke="#1E1E1E" stroke-linecap="round"/>
<path d="M49.0662 88.001C49.4108 88.271 50.7723 89.351 51.117 89.621" stroke="#1E1E1E" stroke-linecap="round"/>
<path d="M51.1944 89.8381C50.5999 90.7053 48.2302 94.1826 47.6356 95.0581" stroke="#1E1E1E" stroke-linecap="round"/>
<path d="M47.2669 89.8748C46.9567 89.5721 45.7159 88.3448 45.4056 88.0339" stroke="#1E1E1E" stroke-linecap="round"/>
<path d="M45.4094 88.001C45.0647 88.271 43.7032 89.351 43.3585 89.621" stroke="#1E1E1E" stroke-linecap="round"/>
<path d="M43.2811 89.8381C43.8757 90.7053 46.2454 94.1826 46.84 95.0581" stroke="#1E1E1E" stroke-linecap="round"/>
<path d="M25.5397 53.8854C24.9857 53.0524 22.5413 50.8174 22.3985 49.3614C22.2643 47.8972 24.315 45.805 24.7001 45.1166M25.1711 54.3856C24.6689 53.5606 23.0071 51.0615 22.9762 49.5807C22.9452 48.0916 24.6608 46.1968 24.9855 45.4758" stroke="#1E1E1E" stroke-linecap="round"/>
<path d="M25.2843 53.5085C25.7026 52.7828 27.9459 50.775 27.9476 49.3594C27.9406 47.9438 25.6414 45.7946 25.2598 45.0314M24.8425 53.915C25.2947 53.2713 28.1924 51.2019 28.3145 49.7871C28.4279 48.3804 25.9218 46.2954 25.5579 45.4505" stroke="#1E1E1E" stroke-linecap="round"/>
<path d="M25.6865 48.3054C25.6865 48.3054 25.7153 48.3463 25.7727 48.4281C25.8359 48.5045 25.8818 48.589 25.9106 48.6818C25.945 48.7799 25.9594 48.8727 25.9537 48.9599C25.9537 49.0581 25.9335 49.1536 25.8933 49.2463C25.8589 49.339 25.81 49.4236 25.7468 49.4999C25.6837 49.5763 25.609 49.6418 25.5228 49.6963C25.4309 49.7509 25.3361 49.789 25.2384 49.8109C25.1408 49.8327 25.0431 49.8409 24.9455 49.8354C24.8421 49.8245 24.7415 49.7999 24.6439 49.7618C24.552 49.7236 24.4658 49.6718 24.3854 49.6063C24.3107 49.5409 24.2475 49.4645 24.1958 49.3772C24.1441 49.2954 24.1096 49.2054 24.0924 49.1072C24.0751 49.009 24.0723 48.9163 24.0838 48.829C24.0953 48.7309 24.124 48.6381 24.1699 48.5509C24.2159 48.4636 24.2762 48.3845 24.3509 48.3136C24.4256 48.2427 24.5089 48.1854 24.6008 48.1418C24.6927 48.0981 24.7904 48.0709 24.8938 48.0599C24.9914 48.049 25.0891 48.0518 25.1867 48.0681C25.2901 48.0845 25.3849 48.1172 25.4711 48.1663C25.563 48.2154 25.6434 48.2754 25.7124 48.3463C25.7813 48.4227 25.8359 48.5045 25.8761 48.5918C25.9163 48.6845 25.9422 48.7799 25.9537 48.8781C25.9594 48.9709 25.9508 49.0636 25.9278 49.1563C25.8991 49.249 25.8589 49.339 25.8072 49.4263C25.7497 49.5081 25.6808 49.579 25.6004 49.639C25.5199 49.699 25.4309 49.7454 25.3332 49.7781C25.2356 49.8163 25.135 49.8354 25.0316 49.8354C24.934 49.8409 24.8363 49.8272 24.7387 49.7945C24.641 49.7672 24.552 49.7236 24.4715 49.6636C24.3854 49.609 24.3423 49.5818 24.3423 49.5818C24.3423 49.5818 24.3193 49.5518 24.2733 49.4918C24.2216 49.4372 24.1814 49.3772 24.1527 49.3118C24.1182 49.2463 24.0953 49.1754 24.0838 49.099C24.0723 49.0281 24.0665 48.9599 24.0665 48.8945C24.0723 48.8181 24.0866 48.7472 24.1096 48.6818C24.1326 48.6109 24.1642 48.5427 24.2044 48.4772C24.2446 48.4172 24.2934 48.3627 24.3509 48.3136C24.4026 48.259 24.46 48.2127 24.5232 48.1745C24.5922 48.1363 24.664 48.1063 24.7387 48.0845C24.8076 48.0627 24.8823 48.049 24.9627 48.0436C25.0316 48.0436 25.1034 48.049 25.1781 48.0599C25.2585 48.0709 25.3332 48.0927 25.4022 48.1254C25.4711 48.1527 25.5343 48.1909 25.5917 48.2399C25.6549 48.2836 25.6865 48.3054 25.6865 48.3054Z" fill="#1E1E1E"/>
<path d="M16.1869 57.2324C19.2804 57.1914 31.8009 56.9542 34.8427 56.9378M16.9107 58.0014C19.9525 58.0669 31.3787 57.7724 34.4636 57.5105" stroke="#1E1E1E" stroke-linecap="round"/>
<path d="M16.4111 56.6857C16.3852 54.9921 14.2568 48.4303 15.7217 45.6566C17.178 42.8748 22.1758 40.4448 25.166 40.0357C28.1561 39.6266 32.0854 40.5512 33.6623 43.2021C35.2479 45.8612 34.3345 53.9939 34.6533 55.9657M15.1357 55.8185C15.4718 53.9121 16.0061 47.0557 17.6174 44.1512C19.2288 41.2466 22.0466 38.4076 24.7954 38.3912C27.5443 38.3748 32.6714 41.0503 34.119 44.0366C35.5581 47.023 33.4297 54.1985 33.4469 56.3094" stroke="#1E1E1E" stroke-linecap="round"/>
<path d="M25.03 36.0627C25.2368 36.0954 25.6418 36.4309 25.7797 36.6109C25.9089 36.799 25.8228 36.9872 25.8314 37.159C25.8314 37.339 25.9175 37.5518 25.8055 37.6663C25.7021 37.789 25.3833 37.8381 25.1937 37.8709C24.9955 37.9036 24.8921 37.9118 24.6422 37.8463C24.401 37.789 23.8925 37.65 23.7288 37.5027C23.5651 37.3472 23.5393 37.1427 23.6771 36.9381C23.8064 36.7418 24.2631 36.4636 24.5216 36.3163C24.7887 36.169 25.1851 36.1363 25.2368 36.0627C25.2971 35.9809 24.8577 35.8418 24.8663 35.85M25.254 36.21C25.5039 36.2345 25.7711 36.5045 25.9779 36.6272C26.1847 36.75 26.4346 36.7418 26.4863 36.9463C26.538 37.159 26.4863 37.7481 26.2881 37.8872C26.0899 38.0345 25.5987 37.7972 25.2885 37.7972C24.9869 37.8054 24.7025 37.9281 24.4527 37.8954C24.2028 37.8545 23.9012 37.7072 23.7805 37.5845C23.6685 37.4618 23.6944 37.3881 23.7547 37.1345C23.8064 36.8809 23.9787 36.1772 24.1166 36.0545C24.2545 35.9318 24.4613 36.3981 24.5819 36.3818C24.7025 36.3736 24.849 36.0218 24.8318 35.9809" stroke="#1E1E1E" stroke-linecap="round"/>
<path d="M41.2573 48.8694C41.49 46.8566 39.982 39.6566 41.2746 36.7112C42.5585 33.7739 46.1173 31.6466 48.9868 31.2048C51.8563 30.7712 56.768 31.4257 58.5 34.1012C60.2406 36.7766 59.3875 45.0812 59.422 47.2821M40.2836 48.2885C40.4904 46.3903 39.3444 40.5566 40.6886 37.8975C42.0415 35.2385 45.8157 32.8739 48.3836 32.3094C50.9515 31.753 54.4241 32.0148 56.1045 34.5348C57.7848 37.063 57.8451 45.4903 58.4655 47.4539" stroke="#1E1E1E" stroke-linecap="round"/>
<path d="M40.9986 48.4032C44.0318 48.256 56.1388 47.9778 59.2495 47.806M40.5333 47.986C43.489 47.8878 55.7251 48.4442 58.9048 48.3869" stroke="#1E1E1E" stroke-linecap="round"/>
<path d="M54.3752 40.3925C53.5723 40.9332 51.0225 43.6293 49.4039 43.7117C47.7941 43.8023 45.4197 41.3789 44.6901 40.9116M54.9227 40.7634C54.1623 41.2545 51.209 43.398 49.5285 43.3501C47.848 43.3022 45.6037 40.9511 44.8482 40.4841" stroke="#1E1E1E" stroke-linecap="round"/>
<path d="M54.3656 41.1063C53.5288 40.6495 51.2398 38.0515 49.7576 37.9641C48.2667 37.8685 46.1004 40.188 45.4377 40.5574M54.6913 40.3365C53.8975 39.8224 51.4712 37.4865 49.9805 37.4564C48.4984 37.418 46.4436 39.5328 45.7728 40.1313" stroke="#1E1E1E" stroke-linecap="round"/>
<path d="M48.457 40.2981C48.457 40.2981 48.4998 40.2705 48.5854 40.2153C48.6652 40.1547 48.7538 40.1103 48.8511 40.0823C48.9541 40.0488 49.0516 40.0344 49.1435 40.0391C49.2468 40.0384 49.3474 40.0567 49.4454 40.0941C49.5433 40.1261 49.6327 40.1718 49.7136 40.2312C49.7946 40.2906 49.8641 40.361 49.9223 40.4423C49.9805 40.5292 50.0216 40.6189 50.0454 40.7115C50.0692 40.804 50.0787 40.8967 50.0738 40.9895C50.0633 41.0878 50.0384 41.1834 49.999 41.2765C49.9597 41.3641 49.9059 41.4463 49.8377 41.5232C49.7695 41.5947 49.6897 41.6553 49.5983 41.7051C49.5127 41.7549 49.4183 41.7883 49.3151 41.8055C49.2119 41.8226 49.1144 41.8261 49.0224 41.8159C48.919 41.8058 48.8211 41.7793 48.7289 41.7363C48.6366 41.6934 48.5528 41.6367 48.4775 41.5664C48.4022 41.4961 48.3412 41.4174 48.2945 41.3305C48.2477 41.2436 48.2182 41.151 48.2058 41.0529C48.1934 40.9603 48.1954 40.8675 48.2117 40.7746C48.228 40.6763 48.2616 40.586 48.3125 40.5038C48.3634 40.4161 48.4258 40.3393 48.4998 40.2732C48.5796 40.2071 48.6652 40.1547 48.7567 40.1158C48.8539 40.0768 48.9541 40.0515 49.0574 40.0398C49.1549 40.0336 49.2526 40.041 49.3504 40.0621C49.4482 40.0886 49.5433 40.1261 49.6356 40.1745C49.7222 40.2284 49.7975 40.2933 49.8613 40.3692C49.9252 40.4451 49.9748 40.5292 50.0101 40.6217C50.0512 40.7141 50.0721 40.8095 50.0731 40.9077C50.0797 41.0004 50.0662 41.0932 50.0326 41.1862C50.0048 41.2792 49.9597 41.3641 49.8973 41.4409C49.8406 41.5232 49.8123 41.5643 49.8123 41.5643C49.8123 41.5643 49.7809 41.5864 49.7182 41.6305C49.6613 41.6801 49.5985 41.7187 49.5298 41.7465C49.4613 41.7798 49.3868 41.8022 49.3066 41.8137C49.232 41.8252 49.1603 41.8312 49.0915 41.8318C49.011 41.8269 48.9363 41.8138 48.8672 41.7926C48.7924 41.7713 48.7203 41.7419 48.6511 41.7042C48.5876 41.6665 48.5297 41.6206 48.4775 41.5664C48.4197 41.5177 48.3704 41.4636 48.3296 41.4039C48.2888 41.3387 48.2566 41.2708 48.233 41.2C48.2094 41.1347 48.1944 41.0639 48.1879 40.9876C48.1873 40.9221 48.1924 40.8539 48.2032 40.7829C48.214 40.7064 48.2363 40.6353 48.2701 40.5696C48.2982 40.5039 48.3378 40.4436 48.389 40.3886C48.4343 40.3283 48.457 40.2981 48.457 40.2981Z" fill="#1E1E1E"/>
<path d="M44.1625 52.9444C43.9815 51.1363 44.2745 49.8272 44.1625 48.7963C44.2056 49.7863 44.1797 50.5799 44.1625 52.9444ZM44.1625 52.9444C43.5162 54.1063 43.8178 53.3617 43.3525 53.7217M44.1625 52.9444C44.5589 53.6972 44.7226 54.1308 43.3525 53.7217M43.3525 53.7217C42.6631 53.1654 41.9221 54.679 42.5339 54.4908M43.3525 53.7217C42.6718 53.5499 41.5774 54.0244 42.5339 54.4908M42.5339 54.4908C42.7407 55.5708 42.4305 56.8063 42.5339 58.639C42.6373 57.0681 42.4391 55.7672 42.5339 54.4908Z" stroke="#1E1E1E" stroke-linecap="round"/>
<path d="M42.5684 57.9599C42.6545 57.9271 42.7321 58.009 42.87 58.0335C43.0078 58.0662 43.3008 58.0008 43.4042 58.1481C43.5162 58.2871 43.6196 58.7044 43.5162 58.8762C43.4214 59.0481 43.0423 59.0644 42.8183 59.179C42.5942 59.3017 42.2926 59.6453 42.172 59.5799C42.0513 59.5144 42.1289 58.9662 42.0858 58.7944C42.0341 58.6226 41.8273 58.6144 41.879 58.5571C41.9221 58.4917 42.2581 58.5081 42.3788 58.4262C42.4908 58.3526 42.508 58.1971 42.5856 58.0744C42.6718 57.9599 42.8958 57.7308 42.8613 57.7062M42.284 57.7062C42.2495 57.7062 42.0858 58.2135 42.2926 58.3035C42.508 58.3935 43.4301 58.1644 43.5679 58.2381C43.7058 58.3117 43.2577 58.5408 43.1199 58.7453C42.982 58.9417 42.8786 59.449 42.7493 59.4571C42.6201 59.4571 42.4477 58.8353 42.3529 58.7617C42.2668 58.6962 42.3788 59.1217 42.1892 59.0235C41.9996 58.9171 41.2586 58.2462 41.2241 58.1726C41.1983 58.0908 41.7756 58.5081 41.9996 58.5408C42.2323 58.5735 42.5253 58.459 42.5942 58.3771C42.6631 58.2953 42.4563 58.1399 42.4046 58.0417" fill="#1E1E1E"/>
<path d="M42.0858 58.1808C42.3271 58.189 42.9475 58.1644 43.1629 58.2053C43.387 58.2544 43.4645 58.3935 43.4128 58.4426C43.3611 58.4999 42.8699 58.4263 42.8441 58.549C42.8096 58.6635 43.3353 59.0153 43.2318 59.1626C43.1371 59.3181 42.4305 59.4081 42.2409 59.449C42.0599 59.4899 42.1547 59.4899 42.1203 59.4163C42.0944 59.3344 41.991 59.1135 42.0341 58.9908C42.0858 58.8599 42.3357 58.7535 42.4132 58.639C42.4994 58.5163 42.4822 58.4181 42.5425 58.2872C42.6114 58.1644 42.8613 57.9435 42.801 57.8699M42.2926 58.2135C42.4735 58.1481 42.7234 57.5508 42.7924 57.6735C42.8699 57.7963 42.6804 58.7863 42.7321 58.9663C42.7838 59.1544 43.1715 58.729 43.094 58.7781C43.0078 58.8272 42.396 59.089 42.2323 59.2526C42.0685 59.4163 42.2323 59.6944 42.103 59.7435C41.9651 59.8008 41.474 59.8253 41.4395 59.5799C41.4137 59.3344 41.7239 58.5081 41.9307 58.279C42.1289 58.0581 42.5683 58.3772 42.6545 58.2299C42.7493 58.0826 42.6028 57.4363 42.4649 57.4117C42.3271 57.3872 41.7411 57.919 41.8359 58.0826" stroke="#1E1E1E" stroke-linecap="round"/>
<path d="M47.933 48.2085C46.718 48.2412 46.3044 48.2003 45.9425 48.2085C46.6836 48.1757 47.3902 48.233 47.933 48.2085ZM47.933 48.2085C49.217 47.9712 50.1562 48.9776 49.9236 50.0985M47.933 48.2085C49.8202 48.4866 50.4664 49.4439 49.9236 50.0985M49.9236 50.0985C49.9753 50.7448 49.8891 51.3912 49.9236 51.7512M49.9236 50.0985C49.915 50.5157 49.9236 50.8921 49.9236 51.7512M49.9236 51.7512C49.5186 53.4857 50.5181 53.5512 51.9227 53.6494M49.9236 51.7512C49.2859 53.0521 50.2941 54.1239 51.9227 53.6494M51.9227 53.6494C52.3105 53.7066 52.7758 53.6494 53.9132 53.6494C52.7069 53.6248 52.3622 53.6576 51.9227 53.6494Z" stroke="#1E1E1E" stroke-linecap="round"/>
<path d="M53.8874 53.1748C53.9822 53.1339 54.2235 53.0439 54.3355 53.1094C54.4561 53.1748 54.594 53.4367 54.5854 53.5594C54.5768 53.6739 54.3872 53.7148 54.2752 53.8376C54.1718 53.9521 53.9994 54.2385 53.9305 54.2548C53.8529 54.263 53.8874 53.9685 53.8271 53.8948C53.7668 53.8212 53.5686 53.8539 53.5427 53.8294C53.5255 53.7967 53.672 53.8048 53.6978 53.723C53.7323 53.6494 53.6289 53.4858 53.7065 53.3712C53.784 53.2485 54.1459 53.0521 54.1718 53.0194C54.1976 52.9785 53.9305 53.0848 53.8702 53.1585M53.5083 53.3548C53.6548 53.3548 54.3183 53.1585 54.4475 53.1748C54.5854 53.1994 54.3527 53.3303 54.3183 53.4694C54.2752 53.6167 54.2752 53.9767 54.2321 54.0176C54.1804 54.0585 54.1028 53.7067 54.0425 53.7148C53.9822 53.7148 54.0425 54.0667 53.8874 54.0421C53.7323 54.0176 53.1808 53.6085 53.1119 53.5676C53.0343 53.5267 53.3532 53.7967 53.4566 53.7967C53.56 53.7967 53.6548 53.6576 53.7237 53.5676C53.8012 53.4776 53.8702 53.3221 53.8874 53.2321C53.9046 53.1421 53.7668 53.0112 53.8099 53.0276" fill="#1E1E1E"/>
<path d="M54.0942 53.3058C54.2493 53.2812 54.3355 53.3221 54.3441 53.3303C54.3441 53.3385 54.0856 53.273 54.1201 53.3549C54.1459 53.4367 54.5596 53.6903 54.5337 53.8294C54.4992 53.9603 54.0684 54.083 53.9477 54.1567C53.8357 54.2303 53.896 54.2958 53.8443 54.2876C53.7926 54.2712 53.672 54.1649 53.6634 54.0912C53.6461 54.0258 53.7409 53.9439 53.7496 53.8539C53.7582 53.7558 53.6289 53.6412 53.6978 53.5185C53.7582 53.3958 54.1373 53.1994 54.1373 53.1258C54.1459 53.0521 53.7926 53.093 53.7237 53.0849M53.8185 52.9376C53.8788 52.9621 53.8013 53.5594 53.8788 53.6494C53.9564 53.7476 54.2838 53.4449 54.2924 53.4776C54.2924 53.5185 53.9564 53.723 53.8874 53.8703C53.8185 54.0176 53.965 54.263 53.8874 54.353C53.8099 54.443 53.4566 54.533 53.4135 54.4185C53.3618 54.2958 53.5083 53.7885 53.5944 53.6576C53.672 53.5185 53.8874 53.723 53.896 53.6085C53.896 53.4858 53.6978 52.9949 53.6289 52.9376C53.56 52.8803 53.379 53.183 53.491 53.2649C53.5944 53.3467 54.2752 53.4694 54.2838 53.4285" stroke="#1E1E1E" stroke-linecap="round"/>
<path d="M45.865 53.7948C46.0115 51.2666 45.6582 50.2438 45.865 49.0902C45.7702 50.8411 45.8564 52.3629 45.865 53.7948ZM45.865 53.7948C46.2097 54.6048 46.9076 55.0711 46.8301 54.7111M45.865 53.7948C46.675 55.3166 47.1662 54.9729 46.8301 54.7111M46.8301 54.7111C47.3643 54.5638 46.9593 55.0629 47.8038 55.6275M46.8301 54.7111C47.0283 55.4229 46.9507 55.832 47.8038 55.6275M47.8038 55.6275C47.7952 57.1084 47.5539 58.3438 47.8038 60.332C47.7607 58.6302 47.709 57.0348 47.8038 55.6275Z" stroke="#1E1E1E" stroke-linecap="round"/>
<path d="M47.9848 59.244C48.2175 59.2358 48.5622 59.5549 48.6656 59.7022C48.7603 59.8494 48.6311 59.9149 48.5794 60.1358C48.5191 60.3567 48.3812 60.8967 48.3123 61.0113C48.2519 61.1258 48.3209 60.8231 48.2002 60.8231C48.071 60.8231 47.6918 60.9949 47.5626 61.0194C47.4333 61.044 47.5109 61.0931 47.4333 60.9704C47.3644 60.8476 47.0714 60.5531 47.1059 60.2994C47.1317 60.0458 47.5281 59.5876 47.6315 59.4485C47.7349 59.3094 47.7263 59.3831 47.7263 59.4485C47.7263 59.514 47.6143 59.8331 47.6315 59.8413M48.0796 59.3504C48.3381 59.2604 48.1313 59.3585 48.2002 59.5304C48.2692 59.694 48.4329 60.2422 48.4846 60.3404C48.5363 60.4385 48.5449 60.0131 48.5277 60.1276C48.5105 60.2422 48.6311 60.9213 48.3726 61.0113C48.1141 61.1013 47.2007 60.6267 46.9852 60.6513C46.7784 60.6758 47.0886 61.134 47.1145 61.1422C47.1317 61.1422 47.1145 60.8885 47.1231 60.6676C47.1317 60.4549 47.0886 60.0622 47.1576 59.8331C47.2265 59.5958 47.3902 59.2931 47.5453 59.2685C47.7005 59.244 48.1485 59.6285 48.0796 59.7022" fill="#1E1E1E"/>
<path d="M48.1227 59.5956C48.183 59.5302 47.9072 59.3747 48.0451 59.4893C48.1916 59.5956 48.924 60.0047 48.9585 60.2502C49.0016 60.4956 48.4156 60.7575 48.2691 60.962C48.1313 61.1584 48.2088 61.3629 48.0968 61.4366C47.9934 61.502 47.7263 61.4284 47.6229 61.3629C47.5195 61.2975 47.5453 61.2075 47.4591 61.052C47.3816 60.8884 47.0886 60.6511 47.1317 60.4056C47.1662 60.152 47.6056 59.7266 47.6918 59.5466C47.778 59.3747 47.6315 59.3911 47.6315 59.3502C47.6315 59.3175 47.6573 59.3011 47.6832 59.3256M47.4074 60.0784C47.5798 60.1356 48.2002 59.6366 48.295 59.6693C48.3898 59.7102 48.0106 60.0375 47.9934 60.2993C47.9675 60.5611 48.2691 61.0275 48.183 61.2484C48.0882 61.4693 47.5625 61.7147 47.4591 61.6166C47.3471 61.5266 47.4936 60.8556 47.5281 60.7002C47.5712 60.5447 47.7694 60.8802 47.6832 60.6838C47.6056 60.4956 47.192 59.6938 47.0283 59.5466C46.8646 59.3911 46.4854 59.7102 46.7181 59.7675C46.9594 59.8166 48.3553 59.9556 48.4501 59.8656C48.5449 59.7756 47.4333 59.2193 47.2868 59.2438" stroke="#1E1E1E" stroke-linecap="round"/>
<path d="M56.6439 48.4289C55.653 48.4371 54.9894 48.4616 54.2225 48.4289C54.7482 48.3962 55.3083 48.4371 56.6439 48.4289ZM56.6439 48.4289C58.9705 48.7889 59.7633 49.9835 59.0567 50.728M56.6439 48.4289C59.229 48.6907 59.7633 49.9507 59.0567 50.728M59.0567 50.728C59.0222 50.998 59.0394 51.3171 59.0567 51.8653M59.0567 50.728C59.0394 51.1289 59.0567 51.4889 59.0567 51.8653M59.0567 51.8653C58.2208 53.4362 59.4703 54.778 61.4781 54.1562M59.0567 51.8653C58.2122 54.2135 59.9873 53.6407 61.4781 54.1562M61.4781 54.1562C62.3225 54.0498 63.4169 54.2625 63.8994 54.1562C63.1756 54.1807 62.2967 54.1971 61.4781 54.1562Z" stroke="#1E1E1E" stroke-linecap="round"/>
<path d="M64.2183 53.5589C64.3045 53.5916 64.2356 53.5262 64.2442 53.6571C64.2614 53.788 64.2442 54.2462 64.2959 54.3362C64.3476 54.4262 64.563 54.148 64.5458 54.1971C64.5199 54.2462 64.2442 54.5243 64.158 54.6471C64.0718 54.7698 64.158 54.958 64.046 54.9498C63.934 54.9334 63.5548 54.7453 63.4859 54.5489C63.4256 54.3607 63.6668 53.9434 63.6496 53.788C63.6324 53.6325 63.3825 53.6162 63.3825 53.6325C63.3911 53.6407 63.5807 53.878 63.6755 53.8534C63.7703 53.8289 63.934 53.5916 63.9426 53.4853M63.8995 53.428C63.9426 53.5098 64.1322 53.9516 64.227 53.9843C64.3304 54.0089 64.4251 53.5098 64.4855 53.5916C64.5458 53.6734 64.7784 54.3607 64.6061 54.4753C64.4338 54.5898 63.5979 54.1889 63.4342 54.2789C63.2705 54.3689 63.5979 54.9416 63.6065 55.0234C63.6151 55.1134 63.5376 54.9498 63.4773 54.7862C63.417 54.6225 63.2705 54.2789 63.2532 54.0416C63.236 53.8125 63.2015 53.4525 63.3825 53.3953C63.5634 53.338 64.3217 53.6653 64.3217 53.7143C64.3131 53.7553 63.4773 53.6325 63.3566 53.6734" fill="#1E1E1E"/>
<path d="M63.5979 53.2725C63.7444 53.2644 64.5544 53.5507 64.675 53.7144C64.7957 53.878 64.3476 54.0825 64.3217 54.2707C64.2959 54.4589 64.5199 54.7044 64.5113 54.8353C64.4941 54.9662 64.3217 55.0071 64.2442 55.0562C64.1666 55.0971 64.1838 55.1462 64.0546 55.0889C63.9167 55.0316 63.5203 54.9007 63.4514 54.6962C63.3825 54.4998 63.6754 54.0825 63.641 53.878C63.6151 53.6735 63.2446 53.5671 63.2618 53.4771C63.2791 53.3871 63.641 53.338 63.7444 53.338C63.8564 53.3462 63.8478 53.4689 63.9081 53.5098M63.7013 53.4771C63.7961 53.3707 63.5031 53.5344 63.5807 53.6898C63.6582 53.8535 64.1321 54.2298 64.1838 54.4262C64.2442 54.6307 63.9081 54.9089 63.9253 54.8925C63.9426 54.8762 64.2011 54.3525 64.2786 54.328C64.3648 54.3035 64.5544 54.8189 64.4165 54.7535C64.2786 54.6962 63.7358 54.0335 63.4428 53.9435C63.1498 53.8616 62.5725 54.2053 62.6672 54.2298C62.762 54.2544 63.9167 54.2625 64.0029 54.0989C64.0891 53.9353 63.2963 53.2807 63.2101 53.2644C63.124 53.2398 63.3911 53.878 63.4859 53.968" stroke="#1E1E1E" stroke-linecap="round"/>
<path d="M30.311 59.9858C30.2248 59.2085 30.3799 58.5376 30.311 57.7603C30.3369 58.6194 30.3627 59.4703 30.311 59.9858ZM30.311 59.9858C31.009 62.2521 31.9396 62.4321 32.6548 62.203M30.311 59.9858C31.0176 62.2276 30.7677 61.5894 32.6548 62.203M32.6548 62.203C32.7927 62.203 32.9564 62.203 33.2322 62.203M32.6548 62.203C32.7841 62.203 32.9047 62.203 33.2322 62.203M33.2322 62.203C34.4041 62.8249 34.8349 63.6594 35.576 64.4285M33.2322 62.203C34.9125 61.6876 36.5411 62.9885 35.576 64.4285M35.576 64.4285C35.576 65.2058 35.6191 65.6803 35.576 66.654C35.5588 65.5167 35.5674 64.993 35.576 64.4285Z" stroke="#1E1E1E" stroke-linecap="round"/>
<path d="M35.4295 66.0485C35.4553 66.073 35.5243 66.4249 35.6621 66.4494C35.7914 66.4821 36.1447 66.1549 36.2309 66.2121C36.317 66.2694 36.1705 66.5885 36.1705 66.7849C36.1619 66.9812 36.317 67.2921 36.2222 67.374C36.1275 67.464 35.7138 67.4067 35.5932 67.3003C35.4726 67.194 35.6104 66.8503 35.4898 66.7276C35.3692 66.6049 34.9814 66.5885 34.878 66.564C34.7832 66.5312 34.7832 66.6621 34.8866 66.564C34.99 66.4658 35.4381 66.1221 35.507 65.983C35.5846 65.8358 35.2916 65.6394 35.3175 65.7049M35.4209 66.3103C35.5415 66.2367 35.7311 65.6394 35.8862 65.6721C36.0413 65.6967 36.4204 66.3594 36.3515 66.4903C36.2826 66.613 35.5846 66.2776 35.4898 66.4494C35.4036 66.6212 35.7828 67.3249 35.8 67.513C35.8086 67.7012 35.688 67.6685 35.5587 67.5867C35.4295 67.5049 35.1624 67.2267 35.0417 67.014C34.9125 66.8012 34.7401 66.4167 34.8177 66.3103C34.9038 66.204 35.507 66.4003 35.5243 66.3758C35.5415 66.3512 34.99 66.1549 34.9297 66.163C34.8608 66.1794 34.9555 66.4085 35.1451 66.4412" fill="#1E1E1E"/>
<path d="M35.9292 66.0403C36.0757 66.1139 35.7224 66.2367 35.7828 66.3839C35.8345 66.5312 36.1878 66.7603 36.2739 66.9076C36.3515 67.0548 36.2912 67.1694 36.2739 67.2839C36.2567 67.3985 36.317 67.5621 36.1791 67.5948C36.0499 67.6276 35.6018 67.6112 35.4725 67.4721C35.3433 67.3412 35.5242 66.9812 35.395 66.793C35.2657 66.6048 34.7832 66.4739 34.7056 66.3348C34.6367 66.1957 34.8263 66.0157 34.9555 65.9585C35.0934 65.9012 35.3691 65.9748 35.507 65.983C35.6449 65.9994 35.8431 66.0485 35.8086 66.0321M35.0762 66.1221C35.1623 66.2367 35.6621 66.5885 35.7569 66.7685C35.8431 66.9485 35.5587 67.2185 35.619 67.2103C35.6794 67.1939 35.9809 66.6948 36.093 66.6948C36.205 66.703 36.4204 67.2676 36.2825 67.243C36.1533 67.2185 35.5932 66.6048 35.2744 66.5476C34.9555 66.4903 34.3437 66.8667 34.3954 66.8994C34.4471 66.9321 35.5501 66.9239 35.6018 66.7439C35.6535 66.5639 34.7487 65.8685 34.7142 65.8194C34.6798 65.7703 35.2313 66.3839 35.395 66.4576C35.5587 66.5312 35.6535 66.3267 35.6966 66.2612" stroke="#1E1E1E" stroke-linecap="round"/>
<path d="M21.8376 57.8338C22.5184 57.8256 23.0526 57.7929 23.7334 57.8338C23.2767 57.8501 22.7855 57.8665 21.8376 57.8338ZM21.8376 57.8338C21.1396 57.9892 20.3469 58.8729 19.9419 59.6338M21.8376 57.8338C20.3555 57.4247 19.6144 58.0874 19.9419 59.6338M19.9419 59.6338C19.9591 60.0265 19.8988 60.4029 19.9419 61.3274M19.9419 59.6338C19.916 60.2883 19.9246 60.9592 19.9419 61.3274M19.9419 61.3274C19.4507 62.9965 19.3818 62.8247 18.0461 63.1274M19.9419 61.3274C20.5882 62.5465 19.3301 62.5301 18.0461 63.1274M18.0461 63.1274C17.6842 63.0783 17.2275 63.1029 16.1504 63.1274C16.676 63.1438 17.3568 63.1192 18.0461 63.1274Z" stroke="#1E1E1E" stroke-linecap="round"/>
<path d="M16.0126 62.9311C16.1074 62.8983 16.3831 62.6447 16.4779 62.6611C16.5727 62.6774 16.5382 62.882 16.5813 63.0129C16.6244 63.152 16.7709 63.3893 16.7364 63.4711C16.7019 63.5611 16.452 63.5774 16.3745 63.5529C16.2969 63.5202 16.3659 63.3483 16.2625 63.2993C16.1504 63.2502 15.8402 63.2665 15.7282 63.2583C15.6162 63.2502 15.5645 63.3238 15.5903 63.242C15.6162 63.1602 15.823 62.882 15.8919 62.7511C15.9609 62.6283 15.9609 62.4483 16.0212 62.4647C16.0815 62.4893 16.2538 62.8493 16.2625 62.8902M16.116 62.3829C16.228 62.3502 16.5296 62.7347 16.5382 62.8002C16.5468 62.8574 16.1504 62.6202 16.1418 62.7429C16.1332 62.8656 16.452 63.3647 16.5037 63.5365C16.5468 63.7002 16.4865 63.7493 16.4003 63.7493C16.3228 63.7411 16.116 63.6265 15.9953 63.5283C15.8747 63.422 15.6937 63.2011 15.6937 63.1438C15.6937 63.0783 16.0212 63.2011 15.9867 63.1602C15.9522 63.1111 15.4869 62.9229 15.4697 62.8902C15.4525 62.8574 15.711 62.9556 15.8833 62.9638C16.047 62.9638 16.4951 62.8983 16.4779 62.8983" fill="#1E1E1E"/>
<path d="M15.9694 62.8411C16.0298 62.8656 16.3314 62.9556 16.4434 63.0211C16.564 63.0865 16.6157 63.1438 16.676 63.2256C16.7364 63.3156 16.857 63.4711 16.8139 63.5447C16.7708 63.6183 16.5037 63.692 16.4175 63.6674C16.3314 63.6511 16.4175 63.4956 16.2883 63.422C16.159 63.3483 15.754 63.3074 15.6334 63.2256C15.5127 63.1438 15.5472 63.0129 15.5731 62.9393C15.5989 62.8656 15.6592 62.8329 15.7713 62.792C15.8747 62.7511 16.1849 62.7265 16.2107 62.6856C16.228 62.6447 15.8919 62.5383 15.9177 62.5465M15.9436 63.0374C16.0384 63.0865 15.9264 63.2011 16.0384 63.1683C16.1504 63.1356 16.4606 62.792 16.6071 62.8165C16.7622 62.8493 16.9863 63.2829 16.9345 63.332C16.8915 63.3729 16.5382 63.0702 16.3141 63.1029C16.0987 63.1438 15.6334 63.4793 15.6161 63.5529C15.5903 63.6183 16.228 63.6593 16.1849 63.5365C16.1418 63.422 15.4352 62.9229 15.349 62.8493C15.2628 62.7674 15.5386 63.0783 15.6678 63.0702C15.7971 63.0702 16.0642 62.8983 16.1332 62.8329C16.2107 62.7674 16.1073 62.6774 16.0987 62.6938" stroke="#1E1E1E" stroke-linecap="round"/>
<path d="M25.668 61.2852C25.668 60.197 25.668 59.3052 25.668 58.4216C25.668 59.3543 25.668 60.2788 25.668 61.2852ZM25.668 61.2852C25.668 62.0952 26.0902 62.4961 26.9433 62.4961C27.7964 62.4961 28.2186 62.9052 28.2186 63.7152M28.2186 63.7152C28.2186 64.8279 28.2186 65.9488 28.2186 66.5788C28.2186 65.5807 28.2186 64.6479 28.2186 63.7152Z" stroke="#1E1E1E" stroke-linecap="round"/>
<path d="M28.9941 66.5788C28.9941 66.6197 28.9855 66.6607 28.9855 66.7016C28.9769 66.7425 28.9596 66.7916 28.9424 66.8243C28.9338 66.8652 28.9079 66.9061 28.8907 66.947C28.8649 66.9797 28.839 67.0125 28.8131 67.0452C28.7873 67.0779 28.7528 67.1107 28.7184 67.1352C28.6839 67.1679 28.6494 67.1925 28.6063 67.2088C28.5719 67.2334 28.5288 67.2497 28.4857 67.2661C28.4426 67.2825 28.3995 67.2907 28.3564 67.2988C28.3134 67.307 28.2703 67.307 28.2186 67.307C28.1755 67.307 28.1324 67.307 28.0893 67.2988C28.0462 67.2907 28.0031 67.2825 27.9601 67.2661C27.917 67.2497 27.8739 67.2334 27.8394 67.2088C27.7963 67.1925 27.7619 67.1679 27.7274 67.1352C27.6929 67.1107 27.6585 67.0779 27.6326 67.0452C27.5981 67.0125 27.5723 66.9797 27.5551 66.947C27.5292 66.9061 27.512 66.8652 27.4947 66.8243C27.4775 66.7916 27.4689 66.7425 27.4603 66.7016C27.4517 66.6607 27.4517 66.6197 27.4517 66.5788C27.4517 66.5379 27.4517 66.4888 27.4603 66.4479C27.4689 66.407 27.4775 66.3661 27.4947 66.3252C27.512 66.2843 27.5292 66.2516 27.5551 66.2107C27.5723 66.1779 27.5981 66.137 27.6326 66.1043C27.6585 66.0716 27.6929 66.047 27.7274 66.0143C27.7619 65.9897 27.7963 65.9652 27.8394 65.9406C27.8739 65.9243 27.917 65.8997 27.9601 65.8916C28.0031 65.8752 28.0462 65.867 28.0893 65.8588C28.1324 65.8507 28.1755 65.8425 28.2186 65.8425C28.2703 65.8425 28.3134 65.8507 28.3564 65.8588C28.3995 65.867 28.4426 65.8752 28.4857 65.8916C28.5288 65.8997 28.5719 65.9243 28.6063 65.9406C28.6494 65.9652 28.6839 65.9897 28.7184 66.0143C28.7528 66.047 28.7873 66.0716 28.8131 66.1043C28.839 66.137 28.8649 66.1779 28.8907 66.2107C28.9079 66.2516 28.9338 66.2843 28.9424 66.3252C28.9596 66.3661 28.9769 66.407 28.9855 66.4479C28.9855 66.4888 28.9941 66.5543 28.9941 66.5788C28.9941 66.5952 28.9941 66.5543 28.9941 66.5788Z" fill="#1E1E1E"/>
<path d="M28.9941 66.5788C28.9941 66.6197 28.9855 66.6607 28.9855 66.7016C28.9769 66.7425 28.9596 66.7916 28.9424 66.8243C28.9338 66.8652 28.9079 66.9061 28.8907 66.947C28.8649 66.9797 28.839 67.0125 28.8131 67.0452C28.7873 67.0779 28.7528 67.1107 28.7184 67.1352C28.6839 67.1679 28.6494 67.1925 28.6063 67.2088C28.5719 67.2334 28.5288 67.2497 28.4857 67.2661C28.4426 67.2825 28.3995 67.2907 28.3564 67.2988C28.3134 67.307 28.2703 67.307 28.2186 67.307C28.1755 67.307 28.1324 67.307 28.0893 67.2988C28.0462 67.2907 28.0031 67.2825 27.9601 67.2661C27.917 67.2497 27.8739 67.2334 27.8394 67.2088C27.7963 67.1925 27.7619 67.1679 27.7274 67.1352C27.6929 67.1107 27.6585 67.0779 27.6326 67.0452C27.5981 67.0125 27.5723 66.9797 27.5551 66.947C27.5292 66.9061 27.512 66.8652 27.4947 66.8243C27.4775 66.7916 27.4689 66.7425 27.4603 66.7016C27.4517 66.6607 27.4517 66.6197 27.4517 66.5788C27.4517 66.5379 27.4517 66.4888 27.4603 66.4479C27.4689 66.407 27.4775 66.3661 27.4947 66.3252C27.512 66.2843 27.5292 66.2516 27.5551 66.2107C27.5723 66.1779 27.5981 66.137 27.6326 66.1043C27.6585 66.0716 27.6929 66.047 27.7274 66.0143C27.7619 65.9897 27.7963 65.9652 27.8394 65.9406C27.8739 65.9243 27.917 65.8997 27.9601 65.8916C28.0031 65.8752 28.0462 65.867 28.0893 65.8588C28.1324 65.8507 28.1755 65.8425 28.2186 65.8425C28.2703 65.8425 28.3134 65.8507 28.3564 65.8588C28.3995 65.867 28.4426 65.8752 28.4857 65.8916C28.5288 65.8997 28.5719 65.9243 28.6063 65.9406C28.6494 65.9652 28.6839 65.9897 28.7184 66.0143C28.7528 66.047 28.7873 66.0716 28.8131 66.1043C28.839 66.137 28.8649 66.1779 28.8907 66.2107C28.9079 66.2516 28.9338 66.2843 28.9424 66.3252C28.9596 66.3661 28.9769 66.407 28.9855 66.4479C28.9855 66.4888 28.9941 66.5543 28.9941 66.5788ZM28.9941 66.5788C28.9941 66.5543 28.9941 66.5952 28.9941 66.5788Z" stroke="#1E1E1E" stroke-linecap="round"/>
<path d="M24.237 62.3893C25.1504 62.3893 25.5295 62.3893 25.9 62.3893C25.3313 62.3893 24.754 62.3893 24.237 62.3893ZM24.237 62.3893C24.056 62.3893 23.9612 62.4711 23.9612 62.6429C23.9612 62.8147 23.875 62.9047 23.6941 62.9047M23.6941 62.9047C23.3494 62.9047 22.9961 62.9047 22.031 62.9047C22.729 62.9047 23.2115 62.9047 23.6941 62.9047Z" stroke="#1E1E1E" stroke-linecap="round"/>
<path d="M22.0913 62.9047V62.9129C22.0913 62.9211 22.0913 62.9211 22.0913 62.9211C22.0913 62.9293 22.0913 62.9293 22.0827 62.9375C22.0827 62.9375 22.0827 62.9375 22.0827 62.9457C22.0741 62.9457 22.0741 62.9457 22.0741 62.9457C22.0655 62.9538 22.0655 62.9538 22.0655 62.9538C22.0569 62.9538 22.0569 62.962 22.0483 62.962C22.0483 62.962 22.0483 62.962 22.0396 62.962H22.031H22.0224C22.0138 62.962 22.0138 62.962 22.0052 62.962C22.0052 62.962 22.0052 62.9538 21.9966 62.9538C21.9966 62.9538 21.9966 62.9538 21.9879 62.9457C21.9879 62.9457 21.9879 62.9457 21.9793 62.9457C21.9793 62.9375 21.9793 62.9375 21.9793 62.9375C21.9707 62.9293 21.9707 62.9293 21.9707 62.9211C21.9707 62.9211 21.9707 62.9211 21.9707 62.9129V62.9047C21.9707 62.8966 21.9707 62.8966 21.9707 62.8966C21.9707 62.8884 21.9707 62.8884 21.9707 62.8802C21.9707 62.8802 21.9707 62.8802 21.9793 62.872V62.8638C21.9879 62.8638 21.9879 62.8638 21.9879 62.8557C21.9966 62.8557 21.9966 62.8557 21.9966 62.8475C22.0052 62.8475 22.0052 62.8475 22.0052 62.8475C22.0138 62.8475 22.0138 62.8475 22.0224 62.8475H22.031H22.0396C22.0483 62.8475 22.0483 62.8475 22.0483 62.8475C22.0569 62.8475 22.0569 62.8475 22.0655 62.8475C22.0655 62.8557 22.0655 62.8557 22.0741 62.8557C22.0741 62.8638 22.0741 62.8638 22.0827 62.8638V62.872C22.0913 62.8802 22.0913 62.8802 22.0913 62.8802C22.0913 62.8884 22.0913 62.8884 22.0913 62.8966V62.9047Z" fill="#1E1E1E"/>
<path d="M22.0913 62.9047V62.9129C22.0913 62.9211 22.0913 62.9211 22.0913 62.9211C22.0913 62.9293 22.0913 62.9293 22.0827 62.9375C22.0827 62.9375 22.0827 62.9375 22.0827 62.9457C22.0741 62.9457 22.0741 62.9457 22.0741 62.9457C22.0655 62.9538 22.0655 62.9538 22.0655 62.9538C22.0569 62.9538 22.0569 62.962 22.0483 62.962C22.0483 62.962 22.0483 62.962 22.0396 62.962H22.031H22.0224C22.0138 62.962 22.0138 62.962 22.0052 62.962C22.0052 62.962 22.0052 62.9538 21.9966 62.9538C21.9966 62.9538 21.9966 62.9538 21.9879 62.9457C21.9879 62.9457 21.9879 62.9457 21.9793 62.9457C21.9793 62.9375 21.9793 62.9375 21.9793 62.9375C21.9707 62.9293 21.9707 62.9293 21.9707 62.9211C21.9707 62.9211 21.9707 62.9211 21.9707 62.9129V62.9047C21.9707 62.8966 21.9707 62.8966 21.9707 62.8966C21.9707 62.8884 21.9707 62.8884 21.9707 62.8802C21.9707 62.8802 21.9707 62.8802 21.9793 62.872V62.8638C21.9879 62.8638 21.9879 62.8638 21.9879 62.8557C21.9966 62.8557 21.9966 62.8557 21.9966 62.8475C22.0052 62.8475 22.0052 62.8475 22.0052 62.8475C22.0138 62.8475 22.0138 62.8475 22.0224 62.8475H22.031H22.0396C22.0483 62.8475 22.0483 62.8475 22.0483 62.8475C22.0569 62.8475 22.0569 62.8475 22.0655 62.8475C22.0655 62.8557 22.0655 62.8557 22.0741 62.8557C22.0741 62.8638 22.0741 62.8638 22.0827 62.8638V62.872C22.0913 62.8802 22.0913 62.8802 22.0913 62.8802C22.0913 62.8884 22.0913 62.8884 22.0913 62.8966V62.9047Z" stroke="#1E1E1E" stroke-linecap="round"/>
<path d="M22.1856 61.0651C22.2287 59.8869 22.2115 59.0197 22.1856 58.0542C22.2373 59.2897 22.177 60.4106 22.1856 61.0651ZM22.1856 61.0651C21.9013 61.3024 21.5566 61.7278 21.3325 61.8751M22.1856 61.0651C22.0305 61.8342 21.7892 61.4497 21.3325 61.8751M21.3325 61.8751C20.7897 61.3597 19.9452 62.2106 20.4795 62.6851M21.3325 61.8751C21.3584 62.1942 19.8849 61.8097 20.4795 62.6851M20.4795 62.6851C20.5139 63.4378 20.4795 64.1906 20.4795 65.696C20.4708 64.7551 20.4708 63.7242 20.4795 62.6851Z" stroke="#1E1E1E" stroke-linecap="round"/>
<path d="M20.6432 65.2051C20.7897 65.1969 20.8241 65.1969 20.9534 65.2133C21.074 65.2378 21.3756 65.2133 21.3929 65.3278C21.4101 65.4424 21.1774 65.7124 21.0482 65.9006C20.9189 66.0887 20.7552 66.4078 20.6346 66.4651C20.5139 66.5224 20.4622 66.3669 20.3244 66.2606C20.1865 66.146 19.859 65.8924 19.7901 65.8106C19.7125 65.7369 19.8763 65.9006 19.8935 65.8024C19.9107 65.7042 19.8159 65.3524 19.8935 65.2133C19.9711 65.0824 20.2554 65.0333 20.3674 65.0006C20.4795 64.976 20.5915 65.0169 20.5656 65.0496M20.4622 65.2706C20.6863 65.3524 20.9103 65.3933 21.0223 65.4506C21.1344 65.5078 21.1344 65.5406 21.1344 65.606C21.1257 65.6633 21.0051 65.696 20.9792 65.8269C20.9534 65.9578 21.1602 66.3015 20.9706 66.3915C20.7811 66.4815 20.0745 66.3833 19.8504 66.3669C19.635 66.3424 19.5833 66.3587 19.635 66.2606C19.6867 66.1542 20.1434 65.8924 20.152 65.7533C20.1606 65.606 19.5747 65.516 19.6781 65.4015C19.7901 65.2869 20.6863 65.1969 20.8069 65.0824C20.9189 64.9678 20.4278 64.6569 20.3674 64.7142" fill="#1E1E1E"/>
<path d="M20.8587 65.3197C20.9879 65.3278 20.9879 65.4097 21.0741 65.4506C21.1689 65.4997 21.4446 65.4997 21.4015 65.5815C21.3671 65.6715 20.9965 65.8597 20.8414 65.9578C20.6863 66.056 20.5915 66.1297 20.4623 66.1706C20.3416 66.2115 20.1693 66.2524 20.0831 66.2033C19.997 66.1624 20.0228 66.0478 19.9453 65.8924C19.8763 65.7451 19.5661 65.4342 19.635 65.3033C19.704 65.1724 20.2124 65.1888 20.3675 65.1069C20.514 65.0251 20.5054 64.8124 20.5485 64.7878C20.5915 64.7633 20.5829 64.9269 20.626 64.9433M21.0052 65.066C21.1344 65.0497 21.0482 64.7633 21.0138 64.8778C20.9707 64.9842 20.7036 65.4833 20.7639 65.7288C20.8328 65.966 21.4963 66.2442 21.4102 66.3097C21.324 66.3751 20.4795 66.0806 20.2296 66.1133C19.9883 66.146 20.0142 66.5224 19.9539 66.5142C19.8849 66.4978 19.8677 66.2197 19.8419 66.0397C19.816 65.8678 19.7557 65.5651 19.7902 65.4506C19.8246 65.336 19.9797 65.3524 20.0573 65.336C20.1348 65.3278 20.1779 65.4342 20.2555 65.3851C20.3416 65.3278 20.514 65.1151 20.5571 65.0333" stroke="#1E1E1E" stroke-linecap="round"/>
<path d="M52.7521 49.682C52.8125 49.1502 52.778 48.512 52.7521 47.8411C52.7435 48.422 52.7435 49.0275 52.7521 49.682ZM52.7521 49.682C52.4075 50.7539 53.2605 51.7111 54.691 51.5148M52.7521 49.682C52.6401 50.4757 52.9245 52.0548 54.691 51.5148M54.691 51.5148C54.7944 51.5066 54.915 51.5066 55.0701 51.5148M54.691 51.5148C54.8461 51.5148 54.9839 51.5066 55.0701 51.5148M55.0701 51.5148C55.8198 51.5802 57.526 52.4066 57.0089 53.3557M55.0701 51.5148C55.7681 51.1793 56.6901 52.5048 57.0089 53.3557M57.0089 53.3557C57.0003 53.8957 57.0434 54.4111 57.0089 55.1884C57.0348 54.7548 57.0003 54.0348 57.0089 53.3557Z" stroke="#1E1E1E" stroke-linecap="round"/>
<path d="M57.0692 54.632C57.2071 54.5584 57.5776 54.452 57.6638 54.5175C57.75 54.5748 57.6207 54.812 57.5776 55.0002C57.5432 55.1966 57.4829 55.5484 57.4312 55.6711C57.3708 55.7857 57.3881 55.7202 57.2588 55.6957C57.1296 55.6629 56.7849 55.5157 56.6642 55.5075C56.5436 55.5075 56.6212 55.7366 56.5522 55.6629C56.4919 55.5893 56.2765 55.2375 56.2679 55.0738C56.2679 54.9102 56.3713 54.7711 56.5091 54.6811C56.647 54.5993 57.0692 54.5666 57.1123 54.5666C57.1554 54.5584 56.7935 54.7057 56.7763 54.6729M57.0262 54.8366C57.1554 54.7793 57.2502 54.6975 57.3364 54.6975C57.4139 54.6975 57.4398 54.6811 57.5259 54.8202C57.6121 54.9511 57.9568 55.352 57.8534 55.5157C57.75 55.6793 57.1123 55.7038 56.9055 55.7938C56.6987 55.8757 56.6212 56.0311 56.6125 56.0229C56.5953 56.0066 56.94 55.8348 56.8366 55.7202C56.7332 55.6138 56.0007 55.5075 56.0007 55.3602C56.0093 55.2048 56.7246 54.992 56.8624 54.8038C56.9917 54.6157 56.8107 54.2148 56.8193 54.2393C56.828 54.2557 56.8538 54.8775 56.8969 54.9184" fill="#1E1E1E"/>
<path d="M57.1727 54.7711C57.302 54.722 57.6725 54.6484 57.7156 54.6893C57.7673 54.7302 57.526 54.9102 57.4657 55.0247C57.4054 55.1475 57.4226 55.2866 57.3623 55.4011C57.2933 55.5157 57.1641 55.6793 57.0693 55.7202C56.9745 55.7693 56.9487 55.7693 56.8108 55.6875C56.6643 55.6057 56.2421 55.3438 56.2162 55.2293C56.1817 55.1066 56.5695 55.0984 56.6385 54.9675C56.7074 54.8284 56.5264 54.4847 56.6126 54.4029C56.6902 54.3211 57.009 54.4684 57.1296 54.4602C57.2503 54.452 57.3106 54.3293 57.345 54.362M56.9659 54.1902C56.9573 54.1738 56.7936 54.5584 56.9745 54.7302C57.1469 54.9102 57.9827 55.1557 58.0172 55.2375C58.0603 55.3193 57.3623 55.0984 57.2072 55.2293C57.0521 55.352 57.1382 55.8757 57.0779 55.9902C57.0176 56.0966 56.9487 55.9657 56.8453 55.8838C56.7332 55.8102 56.535 55.5975 56.4403 55.4993C56.3541 55.4093 56.3369 55.4011 56.3024 55.3357C56.2679 55.262 56.1214 55.2129 56.2248 55.0902C56.3282 54.9593 56.8108 54.6647 56.9228 54.5502C57.0348 54.4357 56.8453 54.362 56.9056 54.3947" stroke="#1E1E1E" stroke-linecap="round"/>
<path d="M39.7682 52.8374C40.8195 53.0011 42.586 53.0502 44.0078 52.8374C42.3447 52.772 40.7161 52.7965 39.7682 52.8374ZM39.7682 52.8374C36.7436 53.132 35.3908 50.9393 35.5373 48.812M39.7682 52.8374C36.2352 53.6474 35.3994 51.332 35.5373 48.812M35.5373 48.812C35.8475 46.8729 35.8906 45.662 35.5373 40.9165M35.5373 48.812C35.5028 46.6929 35.296 44.9665 35.5373 40.9165M35.5373 40.9165C36.3042 38.6502 33.3399 36.4574 31.2977 36.8911M35.5373 40.9165C35.0633 38.7974 34.1241 37.1365 31.2977 36.8911M31.2977 36.8911C30.1689 36.7356 28.9969 36.8829 27.0581 36.8911C28.7557 36.8911 30.1344 36.9074 31.2977 36.8911Z" stroke="#1E1E1E" stroke-linecap="round"/>
<path d="M33.2306 61.9484C32.7912 61.9075 31.8864 62.0138 31.0074 61.9484C31.4986 61.9402 32.0415 61.9729 33.2306 61.9484ZM33.2306 61.9484C34.5749 61.392 34.842 61.9484 35.4538 59.8375M33.2306 61.9484C34.5835 61.7847 34.4973 61.2938 35.4538 59.8375M35.4538 59.8375C35.4711 59.772 35.4452 59.7147 35.4538 59.5756M35.4538 59.8375C35.4538 59.7556 35.4624 59.682 35.4538 59.5756M35.4538 59.5756C34.6783 57.7347 35.7899 57.9556 37.6856 57.4647M35.4538 59.5756C35.4538 58.4138 36.1087 57.3747 37.6856 57.4647M37.6856 57.4647C38.4095 57.4647 38.9437 57.4647 39.9088 57.4647C38.7972 57.5056 38.2113 57.4647 37.6856 57.4647Z" stroke="#1E1E1E" stroke-linecap="round"/>
<path d="M39.8572 56.5729C39.9261 56.6629 40.1071 57.0393 40.2535 57.162C40.4 57.2766 40.7275 57.2111 40.7533 57.2684C40.7792 57.3257 40.4776 57.3093 40.4 57.5138C40.3311 57.7102 40.4604 58.3566 40.2966 58.4629C40.1415 58.5693 39.6417 58.2829 39.4349 58.1684C39.2281 58.0457 39.0902 57.9147 39.0558 57.7593C39.0299 57.612 39.254 57.4075 39.254 57.2684C39.254 57.1375 38.9179 57.1211 39.0385 56.9575C39.1678 56.7938 39.8658 56.3275 39.9864 56.2784C40.0984 56.2375 39.6848 56.5893 39.7279 56.6793M39.883 56.3929C40.1157 56.4257 40.8654 56.8838 40.9084 57.072C40.9515 57.2684 40.2708 57.3257 40.1415 57.5384C40.0209 57.7429 40.1071 58.1602 40.176 58.3157C40.2535 58.4793 40.7878 58.4711 40.5896 58.4957C40.3828 58.5202 39.1247 58.5775 38.9696 58.4629C38.8059 58.3484 39.6159 58.1029 39.6159 57.8084C39.6073 57.5138 38.9782 56.7857 38.9524 56.6957C38.9179 56.6057 39.2109 57.3175 39.4177 57.2684C39.6245 57.2193 40.0295 56.5157 40.176 56.4093C40.3311 56.3029 40.2622 56.5238 40.3311 56.6302" fill="#1E1E1E"/>
<path d="M39.7709 56.4829C39.8485 56.4747 40.1673 56.5647 40.3052 56.712C40.4517 56.8593 40.5637 57.1702 40.624 57.3747C40.693 57.5711 40.8395 57.8166 40.7016 57.9147C40.5551 58.0129 39.9002 57.9229 39.7537 57.9556C39.6158 57.9884 39.9778 58.2011 39.8571 58.0947C39.7365 57.9966 39.1678 57.522 39.0471 57.3338C38.9265 57.1538 39.0213 57.1538 39.1505 57.0066C39.2798 56.8511 39.5986 56.4666 39.814 56.4256C40.0381 56.3847 40.4603 56.6302 40.4775 56.7447C40.4948 56.8593 39.9778 57.1129 39.9088 57.1211M40.288 57.0066C40.4603 56.892 39.6848 56.3438 39.6934 56.4256C39.702 56.5075 40.1932 57.2766 40.3655 57.5138C40.5292 57.7511 40.7188 57.7593 40.7102 57.8493C40.7016 57.9393 40.4775 57.9475 40.3138 58.0702C40.1501 58.1847 39.9691 58.4793 39.7192 58.5529C39.4693 58.6266 38.9265 58.692 38.8145 58.512C38.7024 58.332 38.9782 57.7756 39.0385 57.4729C39.0988 57.1702 38.9782 56.8102 39.1678 56.7038C39.3573 56.5975 40.1587 56.8266 40.1846 56.8347C40.2104 56.8429 39.4263 56.6793 39.3401 56.7529" stroke="#1E1E1E" stroke-linecap="round"/>
<path d="M36.8886 52.9829C36.7335 53.7683 37.0695 55.5602 36.8886 57.3929C36.8713 56.3538 36.88 55.1674 36.8886 52.9829ZM36.8886 52.9829C36.2681 53.1956 36.518 52.1074 36.113 52.2465M36.8886 52.9829C35.9235 52.5492 36.182 52.9583 36.113 52.2465M36.113 52.2465C35.191 52.7374 35.3375 52.2138 35.3375 51.5183M36.113 52.2465C35.5098 52.1565 35.1996 52.4592 35.3375 51.5183M35.3375 51.5183C35.303 50.5038 35.2083 49.6938 35.3375 47.1083C35.4237 48.6956 35.3375 50.1765 35.3375 51.5183Z" stroke="#1E1E1E" stroke-linecap="round"/>
<path d="M41.8603 59.4319C43.239 59.2519 45.4364 59.2764 47.8577 59.4319C46.1947 59.3419 44.4713 59.5628 41.8603 59.4319ZM41.8603 59.4319C40.8435 59.2846 39.6716 59.9064 40.5074 60.7164M41.8603 59.4319C40.5074 60.1437 39.663 60.6755 40.5074 60.7164M40.5074 60.7164C40.5074 61.7882 39.9818 61.9191 39.1546 62.001M40.5074 60.7164C40.3609 62.0255 39.3097 62.7619 39.1546 62.001M39.1546 62.001C37.2416 62.2055 35.6905 61.8373 33.1571 62.001C35.5009 62.1482 37.3967 62.0664 39.1546 62.001Z" stroke="#1E1E1E" stroke-linecap="round"/>
<path d="M34.8959 38.5483C34.8701 37.3783 34.7667 32.6492 34.7581 31.5119M35.3785 39.0964C35.4474 37.9837 35.4733 33.1564 35.3526 31.8392" stroke="#1E1E1E" stroke-linecap="round"/>
<path d="M34.6609 31.4646C36.6687 31.3337 44.7514 30.7773 46.7764 30.5482M35.3761 31.0146C37.3322 30.7692 44.5015 29.9428 46.3456 29.8364" stroke="#1E1E1E" stroke-linecap="round"/>
<path d="M49.618 69.4341C49.618 69.4341 49.6468 69.475 49.7042 69.5568C49.7674 69.6332 49.8134 69.7177 49.8421 69.8104C49.8766 69.9086 49.8909 70.0013 49.8852 70.0886C49.8852 70.1868 49.8651 70.2822 49.8249 70.375C49.7904 70.4677 49.7416 70.5522 49.6784 70.6286C49.6152 70.705 49.5405 70.7704 49.4543 70.825C49.3624 70.8795 49.2676 70.9177 49.17 70.9395C49.0723 70.9613 48.9746 70.9695 48.877 70.9641C48.7736 70.9532 48.673 70.9286 48.5754 70.8904C48.4835 70.8522 48.3973 70.8004 48.3169 70.735C48.2422 70.6695 48.179 70.5932 48.1273 70.5059C48.0756 70.4241 48.0411 70.3341 48.0239 70.2359C48.0067 70.1377 48.0038 70.045 48.0153 69.9577C48.0268 69.8595 48.0555 69.7668 48.1015 69.6795C48.1474 69.5922 48.2077 69.5132 48.2824 69.4422C48.3571 69.3713 48.4404 69.3141 48.5323 69.2704C48.6242 69.2268 48.7219 69.1995 48.8253 69.1886C48.9229 69.1777 49.0206 69.1804 49.1183 69.1968C49.2217 69.2132 49.3165 69.2459 49.4026 69.295C49.4945 69.3441 49.575 69.4041 49.6439 69.475C49.7128 69.5513 49.7674 69.6332 49.8076 69.7204C49.8478 69.8132 49.8737 69.9086 49.8852 70.0068C49.8909 70.0995 49.8823 70.1922 49.8593 70.285C49.8306 70.3777 49.7904 70.4677 49.7387 70.555C49.6812 70.6368 49.6123 70.7077 49.5319 70.7677C49.4515 70.8277 49.3624 70.8741 49.2647 70.9068C49.1671 70.945 49.0666 70.9641 48.9632 70.9641C48.8655 70.9695 48.7678 70.9559 48.6702 70.9232C48.5725 70.8959 48.4835 70.8522 48.403 70.7922C48.3169 70.7377 48.2738 70.7104 48.2738 70.7104C48.2738 70.7104 48.2508 70.6804 48.2049 70.6204C48.1532 70.5659 48.1129 70.5059 48.0842 70.4404C48.0497 70.375 48.0268 70.3041 48.0153 70.2277C48.0038 70.1568 47.998 70.0886 47.998 70.0232C48.0038 69.9468 48.0182 69.8759 48.0411 69.8104C48.0641 69.7395 48.0957 69.6713 48.1359 69.6059C48.1761 69.5459 48.225 69.4913 48.2824 69.4422C48.3341 69.3877 48.3916 69.3413 48.4547 69.3032C48.5237 69.265 48.5955 69.235 48.6702 69.2132C48.7391 69.1913 48.8138 69.1777 48.8942 69.1722C48.9632 69.1722 49.035 69.1777 49.1096 69.1886C49.1901 69.1995 49.2647 69.2213 49.3337 69.2541C49.4026 69.2813 49.4658 69.3195 49.5233 69.3686C49.5865 69.4122 49.618 69.4341 49.618 69.4341Z" fill="#1E1E1E"/>
</svg>
