<svg width="82" height="117" viewBox="0 0 82 117" fill="none" xmlns="http://www.w3.org/2000/svg">
<g clip-path="url(#clip0_22_25)">
<path d="M20.1862 3.7306C31.7273 3.3072 45.6629 1.2914 59.8341 3.7306C75.8993 3.54651 79.4225 9.5847 79.658 22.3238C78.6668 41.4784 80.2665 62.8054 79.658 97.3868C81.6797 110.678 73.7795 118.833 59.8341 115.98C48.98 118.042 41.9238 114.986 20.1862 115.98C5.30845 112.832 1.58901 111.7 0.362277 97.3868C-0.0793451 78.6464 0.323022 54.6225 0.362277 22.3238C1.46143 9.83322 3.5714 1.34663 20.1862 3.7306Z" fill="white"/>
<path d="M20.1862 3.7306C29.637 4.36571 37.0268 5.09287 59.8341 3.7306M20.1862 3.7306C31.0305 3.26117 42.9445 4.07117 59.8341 3.7306M20.1862 3.7306C8.73351 4.66946 -1.48269 10.1462 0.362309 22.3238M20.1862 3.7306C5.89731 5.00083 -1.67897 8.80231 0.362309 22.3238M59.8341 3.7306C71.4537 4.55901 80.6885 10.9101 79.6581 22.3238M59.8341 3.7306C74.0347 3.42685 79.874 10.0357 79.6581 22.3238M79.6581 22.3238C78.3823 52.0821 78.4411 80.6254 79.6581 97.3868M79.6581 22.3238C78.873 48.0413 79.4814 75.7746 79.6581 97.3868M79.6581 97.3868C80.3254 110.761 73.2398 114.489 59.8341 115.98M79.6581 97.3868C77.9603 111.442 72.8571 115.05 59.8341 115.98M59.8341 115.98C47.2234 117.784 34.7892 118.106 20.1862 115.98M59.8341 115.98C46.5168 115.676 33.3466 115.759 20.1862 115.98M20.1862 115.98C5.77955 115.483 -0.0989406 110.439 0.362309 97.3868M20.1862 115.98C6.59409 114.544 -1.24716 111.599 0.362309 97.3868M0.362309 97.3868C0.607655 75.0382 1.99141 52.7908 0.362309 22.3238M0.362309 97.3868C1.22593 68.3741 0.293613 38.4225 0.362309 22.3238" stroke="#1E1E1E" stroke-width="2" stroke-linecap="round"/>
<path d="M51.4055 26.8126C51.5919 26.8218 51.955 26.9967 52.2789 27.1624C52.5929 27.3188 53.1327 27.5397 53.2897 27.7607C53.4467 27.9908 53.4075 28.3221 53.2308 28.5062C53.0444 28.6903 52.4359 28.7547 52.2102 28.8652C51.9845 28.9849 52.1219 29.1874 51.8667 29.1966C51.6214 29.2058 50.9246 29.0769 50.7185 28.9204C50.5222 28.7732 50.6105 28.5154 50.6596 28.2853C50.7185 28.046 50.8166 27.6962 51.0423 27.5121C51.2583 27.328 51.8765 27.236 51.9943 27.1624C52.1219 27.0979 51.8078 27.144 51.798 27.0979M51.4251 26.7297C51.6999 26.7666 52.1906 27.1071 52.4555 27.2176C52.7205 27.328 52.9659 27.1163 53.0051 27.4017C53.0444 27.687 52.7892 28.6535 52.6813 28.9296C52.5733 29.1966 52.6224 28.9941 52.3574 29.0401C52.0924 29.0953 51.3662 29.2242 51.0816 29.2334C50.7872 29.2518 50.7577 29.2518 50.6007 29.1045C50.4535 28.9572 50.1002 28.7271 50.1689 28.3682C50.2278 28.0092 50.6596 27.2176 50.9933 26.9691C51.3368 26.7205 52.0728 26.9599 52.2004 26.877C52.328 26.785 51.8962 26.4168 51.7391 26.4444" stroke="#1E1E1E" stroke-linecap="round"/>
<path d="M23.0462 4.59766C31.5842 4.59766 40.1321 4.59766 58.7195 4.59766M23.0462 4.59766C36.815 4.59766 50.5838 4.59766 58.7195 4.59766M23.0462 4.59766C20.6025 4.59766 19.3856 5.73902 19.3856 8.03095M58.7195 4.59766C61.1631 4.59766 62.38 5.73902 62.38 8.03095M62.38 8.03095C62.38 9.43925 62.38 10.8475 62.38 14.8883M62.38 8.03095C62.38 10.4978 62.38 12.9646 62.38 14.8883M62.38 14.8883C62.38 17.1711 61.1631 18.3124 58.7195 18.3124M58.7195 18.3124C50.0833 18.3124 41.4373 18.3124 23.0462 18.3124M58.7195 18.3124C44.9408 18.3124 31.1622 18.3124 23.0462 18.3124M23.0462 18.3124C20.6025 18.3124 19.3856 17.1711 19.3856 14.8883M19.3856 14.8883C19.3856 12.937 19.3856 10.9856 19.3856 8.03095M19.3856 14.8883C19.3856 13.3236 19.3856 11.7588 19.3856 8.03095" stroke="#1E1E1E" stroke-width="2" stroke-linecap="round"/>
<path d="M24.7657 9.58423C24.7039 9.58423 24.6323 9.59562 24.5509 9.61841C24.4695 9.63794 24.3849 9.66235 24.297 9.69165C24.2091 9.71769 24.1212 9.74211 24.0333 9.76489C23.9487 9.78442 23.8722 9.79419 23.8038 9.79419C23.7322 9.79419 23.6753 9.7828 23.6329 9.76001C23.5939 9.73397 23.5646 9.70142 23.545 9.66235C23.5255 9.62329 23.5141 9.58097 23.5109 9.5354C23.5076 9.48983 23.506 9.44588 23.506 9.40356C23.506 9.27987 23.5418 9.17896 23.6134 9.10083C23.6883 9.02271 23.7941 8.9576 23.9308 8.90552C24.0675 8.85018 24.2319 8.80461 24.424 8.7688C24.6193 8.72974 24.839 8.68742 25.0831 8.64185C25.4672 8.57023 25.8172 8.51489 26.1329 8.47583C26.4519 8.43677 26.7547 8.4091 27.0411 8.39282C27.3309 8.37329 27.6141 8.3619 27.8907 8.35864C28.1674 8.35539 28.4588 8.35376 28.7648 8.35376C28.8559 8.35376 28.9275 8.36515 28.9796 8.38794C29.0317 8.41073 29.0691 8.44002 29.0919 8.47583C29.118 8.51164 29.1326 8.55233 29.1359 8.5979C29.1424 8.64347 29.1456 8.68905 29.1456 8.73462C29.1456 8.7867 29.1375 8.84367 29.1212 8.90552C29.1082 8.96411 29.0838 9.01945 29.048 9.07153C29.0154 9.12036 28.9698 9.16105 28.9113 9.1936C28.8559 9.22616 28.7876 9.24243 28.7062 9.24243H28.3156C28.1593 9.24243 27.9933 9.24406 27.8175 9.24731C27.6417 9.24731 27.4676 9.25057 27.295 9.25708C27.1225 9.26034 26.9565 9.26685 26.797 9.27661C26.6407 9.28638 26.5008 9.30103 26.3771 9.32056C26.2566 9.33683 26.1606 9.35799 26.089 9.38403C26.0174 9.41007 25.9816 9.44263 25.9816 9.48169C25.9816 9.52075 25.9962 9.58586 26.0255 9.677C26.0548 9.76815 26.0906 9.86743 26.1329 9.97485C26.1753 10.079 26.2176 10.1832 26.2599 10.2874C26.3055 10.3883 26.3429 10.4729 26.3722 10.5413C26.3982 10.5966 26.4275 10.634 26.4601 10.6536C26.4926 10.6731 26.5366 10.6829 26.5919 10.6829C26.7254 10.6829 26.8621 10.6747 27.0021 10.6584C27.142 10.6422 27.282 10.6243 27.422 10.6047C27.5652 10.5819 27.7068 10.5624 27.8468 10.5461C27.99 10.5299 28.1316 10.5217 28.2716 10.5217C28.3497 10.5217 28.4132 10.5364 28.462 10.5657C28.5141 10.5917 28.5548 10.6259 28.5841 10.6682C28.6134 10.7073 28.6329 10.7496 28.6427 10.7952C28.6557 10.8407 28.6622 10.8798 28.6622 10.9124C28.6622 11.0588 28.6167 11.1695 28.5255 11.2444C28.4344 11.316 28.3107 11.3697 28.1544 11.4055C27.9982 11.4413 27.8159 11.4657 27.6075 11.4788C27.4025 11.4918 27.1844 11.5097 26.9532 11.5325L26.8361 11.5422C26.7937 11.5487 26.7612 11.5634 26.7384 11.5862C26.7156 11.609 26.7042 11.6383 26.7042 11.6741C26.7042 11.6838 26.7059 11.692 26.7091 11.6985C26.7124 11.705 26.714 11.7131 26.714 11.7229C26.7433 11.8303 26.7775 11.9508 26.8165 12.0842C26.8556 12.2144 26.8914 12.3446 26.924 12.4749C26.9598 12.6051 26.9891 12.7288 27.0118 12.8459C27.0346 12.9631 27.046 13.0592 27.046 13.134C27.046 13.2838 26.9891 13.3977 26.8751 13.4758C26.7644 13.554 26.6066 13.593 26.4015 13.593C26.3266 13.593 26.2534 13.5751 26.1818 13.5393C26.1134 13.5068 26.0711 13.4449 26.0548 13.3538C26.0027 13.0868 25.9441 12.8264 25.879 12.5725C25.8139 12.3153 25.7456 12.0598 25.674 11.8059C25.6447 11.718 25.5877 11.6741 25.5031 11.6741C25.4054 11.6741 25.2947 11.6708 25.171 11.6643C25.0506 11.6578 24.9269 11.6448 24.7999 11.6252C24.673 11.6057 24.5493 11.5813 24.4288 11.552C24.3116 11.5194 24.2059 11.4771 24.1115 11.425C24.0203 11.373 23.9454 11.3111 23.8868 11.2395C23.8315 11.1679 23.8038 11.0833 23.8038 10.9856C23.8038 10.9237 23.8185 10.8635 23.8478 10.8049C23.8771 10.7431 23.9145 10.6894 23.9601 10.6438C24.0057 10.595 24.0545 10.5559 24.1066 10.5266C24.1619 10.4973 24.214 10.4827 24.2628 10.4827C24.3214 10.4827 24.3849 10.4973 24.4532 10.5266C24.5216 10.5559 24.5948 10.5885 24.673 10.6243C24.7511 10.6601 24.8341 10.6926 24.922 10.7219C25.0131 10.7512 25.1108 10.7659 25.215 10.7659C25.267 10.7659 25.2931 10.7382 25.2931 10.6829C25.2931 10.6308 25.2833 10.5624 25.2638 10.4778C25.2475 10.3931 25.2247 10.3053 25.1954 10.2141C25.1661 10.1197 25.132 10.0286 25.0929 9.94067C25.0571 9.84953 25.018 9.77303 24.9757 9.71118C24.9497 9.67212 24.922 9.64119 24.8927 9.61841C24.8667 9.59562 24.8243 9.58423 24.7657 9.58423ZM28.8624 7.59204C28.8624 7.42277 28.9113 7.30233 29.0089 7.23071C29.1066 7.1591 29.2677 7.12329 29.4923 7.12329C29.5704 7.12329 29.6388 7.13143 29.6974 7.14771C29.756 7.16398 29.8048 7.19165 29.8439 7.23071C29.8829 7.26652 29.9139 7.31698 29.9366 7.38208C29.9627 7.44393 29.9838 7.52368 30.0001 7.62134C30.0424 7.91105 30.0848 8.21541 30.1271 8.53442C30.1726 8.85018 30.215 9.16593 30.254 9.48169C30.2963 9.79419 30.3354 10.1002 30.3712 10.3997C30.407 10.6959 30.4379 10.9726 30.464 11.2297C30.4933 11.4836 30.5144 11.7099 30.5275 11.9084C30.5437 12.1038 30.5519 12.2584 30.5519 12.3723C30.5519 12.4895 30.5405 12.5888 30.5177 12.6702C30.4982 12.7515 30.4624 12.8167 30.4103 12.8655C30.3615 12.9143 30.2963 12.9501 30.215 12.9729C30.1368 12.9924 30.0392 13.0022 29.922 13.0022C29.8081 13.0022 29.7169 12.9729 29.6486 12.9143C29.5835 12.8557 29.5509 12.7662 29.5509 12.6458C29.5509 12.5221 29.5411 12.3577 29.5216 12.1526C29.5021 11.9443 29.476 11.7131 29.4435 11.4592C29.4109 11.2053 29.3735 10.9351 29.3312 10.6487C29.2921 10.3622 29.2498 10.079 29.2042 9.79907C29.1619 9.51912 29.1196 9.25057 29.0773 8.99341C29.0382 8.73299 29.0024 8.5035 28.9698 8.30493C28.9373 8.10311 28.9113 7.93872 28.8917 7.81177C28.8722 7.68156 28.8624 7.60832 28.8624 7.59204ZM32.0656 8.1731C31.9712 8.1731 31.8816 8.16007 31.797 8.13403C31.7156 8.10474 31.644 8.06567 31.5822 8.01685C31.5236 7.96476 31.4764 7.90454 31.4406 7.83618C31.4047 7.76782 31.3868 7.69295 31.3868 7.61157C31.3868 7.47485 31.4406 7.36418 31.548 7.27954C31.6587 7.19491 31.8051 7.15259 31.9874 7.15259C32.0721 7.15259 32.1534 7.16886 32.2316 7.20142C32.3097 7.23071 32.3781 7.2714 32.4366 7.32349C32.4985 7.37557 32.5473 7.43742 32.5831 7.50903C32.6189 7.57739 32.6368 7.64901 32.6368 7.72388C32.6368 7.86385 32.5848 7.97453 32.4806 8.05591C32.3797 8.13403 32.2413 8.1731 32.0656 8.1731ZM31.3966 9.66235C31.3966 9.54842 31.4454 9.45565 31.5431 9.38403C31.644 9.30916 31.7758 9.27173 31.9386 9.27173C32.2316 9.27173 32.3878 9.37264 32.4073 9.57446C32.4204 9.71444 32.4334 9.87231 32.4464 10.0481C32.4627 10.2239 32.4773 10.4111 32.4904 10.6096C32.5066 10.8049 32.5197 11.0084 32.5294 11.22C32.5424 11.4283 32.5538 11.635 32.5636 11.8401C32.5734 12.0419 32.5815 12.2372 32.588 12.426C32.5945 12.6148 32.5978 12.7874 32.5978 12.9436C32.5978 13.1064 32.5392 13.2284 32.422 13.3098C32.3081 13.3912 32.1404 13.4319 31.9191 13.4319C31.8182 13.4319 31.7384 13.4075 31.6798 13.3586C31.6245 13.3131 31.5968 13.2447 31.5968 13.1536C31.5968 12.7043 31.5854 12.2844 31.5626 11.8938C31.5431 11.4999 31.5203 11.15 31.4943 10.844C31.4715 10.538 31.4487 10.2841 31.4259 10.0823C31.4064 9.8772 31.3966 9.73722 31.3966 9.66235ZM33.0275 9.74536C33.0275 9.61841 33.0844 9.52238 33.1984 9.45728C33.3123 9.38892 33.4751 9.35474 33.6866 9.35474C33.7355 9.35474 33.7794 9.36125 33.8185 9.37427C33.8575 9.38729 33.8917 9.41333 33.921 9.45239C33.9536 9.4882 33.9829 9.53866 34.0089 9.60376C34.035 9.66886 34.061 9.75187 34.087 9.85278C34.1131 9.96672 34.1391 10.0237 34.1652 10.0237C34.1879 10.0237 34.2156 9.97648 34.2482 9.88208C34.3068 9.69653 34.3833 9.5354 34.4777 9.39868C34.5753 9.25871 34.6844 9.14315 34.8048 9.052C34.9253 8.9576 35.0555 8.88761 35.1954 8.84204C35.3387 8.79647 35.4884 8.77368 35.6447 8.77368C35.9604 8.77368 36.255 8.8339 36.5284 8.95435C36.8019 9.07153 37.0379 9.23592 37.2365 9.44751C37.435 9.65584 37.5913 9.90324 37.7052 10.1897C37.8191 10.4729 37.8761 10.7805 37.8761 11.1125C37.8761 11.4641 37.8142 11.7896 37.6906 12.0891C37.5701 12.3886 37.4008 12.6474 37.1827 12.8655C36.9646 13.0803 36.7042 13.248 36.4015 13.3684C36.102 13.4921 35.7732 13.554 35.4152 13.554L35.1661 13.5442C35.0197 13.5442 34.9464 13.6272 34.9464 13.7932L35.1954 16.0344C35.1922 16.0898 35.1726 16.1402 35.1368 16.1858C35.1043 16.2346 35.0587 16.2769 35.0001 16.3127C34.9448 16.3486 34.8781 16.3762 34.7999 16.3958C34.7251 16.4153 34.6469 16.425 34.5656 16.425C34.3312 16.425 34.2042 16.3486 34.1847 16.1956C34.1163 15.6031 34.0398 15.04 33.9552 14.5061C33.8738 13.9722 33.7892 13.4758 33.7013 13.0168C33.6167 12.5546 33.5337 12.1347 33.4523 11.7571C33.3709 11.3795 33.2976 11.0507 33.2325 10.7708C33.1707 10.4908 33.1219 10.2629 33.0861 10.0872C33.047 9.91138 33.0275 9.79744 33.0275 9.74536ZM34.6144 11.0344C34.6144 11.246 34.6225 11.456 34.6388 11.6643C34.6551 11.8694 34.6811 12.0924 34.7169 12.3333C34.7365 12.4797 34.8162 12.5627 34.9562 12.5823C35.0408 12.6018 35.1352 12.6213 35.2394 12.6409C35.3468 12.6571 35.4363 12.6653 35.5079 12.6653C35.7163 12.6653 35.9051 12.6344 36.0743 12.5725C36.2436 12.5107 36.3885 12.4228 36.5089 12.3088C36.6294 12.1917 36.7221 12.0533 36.7872 11.8938C36.8523 11.7343 36.8849 11.5569 36.8849 11.3616C36.8849 11.1239 36.8523 10.9026 36.7872 10.6975C36.7221 10.4892 36.6326 10.3085 36.5187 10.1555C36.408 10.0025 36.2762 9.88208 36.1232 9.79419C35.9734 9.7063 35.8107 9.66235 35.6349 9.66235C35.4819 9.66235 35.3419 9.69653 35.215 9.76489C35.0913 9.83 34.9838 9.92277 34.8927 10.0432C34.8048 10.1604 34.7365 10.3036 34.6876 10.4729C34.6388 10.6422 34.6144 10.8293 34.6144 11.0344ZM38.5499 11.4446C38.4588 11.4446 38.3839 11.4071 38.3253 11.3323C38.2667 11.2542 38.2374 11.1418 38.2374 10.9954C38.2374 10.8652 38.296 10.7675 38.4132 10.7024C38.5304 10.6373 38.729 10.5917 39.0089 10.5657C39.1001 10.5559 39.2189 10.5429 39.3654 10.5266C39.5151 10.5071 39.6665 10.4892 39.8195 10.4729C39.9757 10.4534 40.1222 10.4371 40.2589 10.4241C40.3989 10.4111 40.5079 10.4045 40.5861 10.4045C40.7065 10.4045 40.7993 10.4403 40.8644 10.512C40.9327 10.5836 40.9669 10.7105 40.9669 10.8928C40.9669 11.0816 40.7797 11.1956 40.4054 11.2346C40.3566 11.2411 40.2833 11.2509 40.1857 11.2639C40.0913 11.2737 39.9838 11.2867 39.8634 11.303C39.743 11.3193 39.616 11.3355 39.4825 11.3518C39.3523 11.3681 39.227 11.3827 39.1066 11.3958C38.9861 11.4088 38.8754 11.4202 38.7745 11.4299C38.6769 11.4397 38.602 11.4446 38.5499 11.4446ZM44.3605 7.75317C44.3605 7.58065 44.4093 7.46021 44.507 7.39185C44.6046 7.32023 44.7657 7.28442 44.9904 7.28442C45.0717 7.28442 45.1401 7.29256 45.1954 7.30884C45.254 7.32186 45.3029 7.3479 45.3419 7.38696C45.3842 7.42603 45.4168 7.47811 45.4396 7.54321C45.4656 7.60506 45.4868 7.68481 45.5031 7.78247C45.5454 8.07218 45.5877 8.37655 45.63 8.69556C45.6756 9.01131 45.7179 9.32707 45.757 9.64282C45.7993 9.95532 45.8383 10.2613 45.8741 10.5608C45.91 10.857 45.9409 11.1337 45.9669 11.3909C45.993 11.6448 46.0125 11.871 46.0255 12.0696C46.0418 12.2649 46.0499 12.4195 46.0499 12.5334C46.0499 12.6506 46.0385 12.7499 46.0157 12.8313C45.9962 12.9094 45.962 12.9745 45.9132 13.0266C45.8644 13.0754 45.7993 13.1112 45.7179 13.134C45.6365 13.1536 45.5372 13.1633 45.42 13.1633C45.3061 13.1633 45.2166 13.134 45.1515 13.0754C45.0864 13.0136 45.0538 12.9224 45.0538 12.802C45.0538 12.6913 45.0441 12.5448 45.0245 12.3625C45.0083 12.1803 44.9855 11.9784 44.9562 11.7571C44.9301 11.5325 44.8992 11.2948 44.8634 11.0442C44.8276 10.7903 44.7902 10.5364 44.7511 10.2825C44.7446 10.2336 44.7267 10.2011 44.6974 10.1848C44.6713 10.1653 44.6323 10.1555 44.5802 10.1555L43.2911 10.2825C43.2228 10.2922 43.1805 10.3199 43.1642 10.3655C43.1512 10.4111 43.1447 10.4745 43.1447 10.5559C43.1447 11.2753 43.1626 11.8938 43.1984 12.4114C43.2342 12.929 43.2732 13.3635 43.3156 13.7151C43.3611 14.0699 43.4018 14.3482 43.4376 14.55C43.4734 14.7551 43.4913 14.9032 43.4913 14.9944C43.4913 15.0627 43.4637 15.1246 43.4083 15.1799C43.3562 15.2353 43.2879 15.2825 43.2032 15.3215C43.1219 15.3606 43.0323 15.3899 42.9347 15.4094C42.837 15.4322 42.7459 15.4436 42.6613 15.4436C42.5799 15.4436 42.5066 15.429 42.4415 15.3997C42.3797 15.3736 42.3439 15.328 42.3341 15.2629C42.3016 15.0351 42.2739 14.7844 42.2511 14.511C42.2283 14.2408 42.2088 13.9397 42.1925 13.6077C42.1795 13.2789 42.1697 12.9192 42.1632 12.5286C42.1567 12.1347 42.1534 11.7034 42.1534 11.2346C42.1534 11.1142 42.1534 10.997 42.1534 10.8831C42.1534 10.7691 42.1567 10.6552 42.1632 10.5413C42.1632 10.4436 42.1095 10.3948 42.0021 10.3948L41.1525 10.4631C41.0776 10.4566 41.0174 10.4078 40.9718 10.3167C40.9262 10.2255 40.9034 10.1246 40.9034 10.0139C40.9034 9.96183 40.9083 9.91138 40.9181 9.86255C40.9246 9.81047 40.9376 9.76489 40.9572 9.72583C40.9767 9.68677 41.0011 9.65584 41.0304 9.63306C41.0597 9.60701 41.0939 9.59399 41.1329 9.59399C41.2534 9.59399 41.3917 9.59074 41.548 9.58423C41.7042 9.57446 41.8719 9.5647 42.0509 9.55493C42.142 9.54517 42.1925 9.49146 42.2023 9.3938C42.2316 8.92179 42.2723 8.51489 42.3243 8.1731C42.3764 7.8313 42.4399 7.54321 42.5148 7.30884C42.5896 7.07121 42.6743 6.87915 42.7687 6.73267C42.8663 6.58618 42.9738 6.47388 43.0909 6.39575C43.1267 6.36971 43.1691 6.34367 43.2179 6.31763C43.2667 6.28833 43.3123 6.27368 43.3546 6.27368C43.436 6.27368 43.5206 6.29484 43.6085 6.33716C43.6997 6.37622 43.7827 6.4283 43.8575 6.49341C43.9357 6.55526 43.9991 6.62687 44.048 6.70825C44.0968 6.78638 44.1212 6.8645 44.1212 6.94263C44.1212 6.97192 44.1147 6.99634 44.1017 7.01587C44.0887 7.03215 44.0724 7.04842 44.0529 7.0647C43.9259 7.1591 43.8136 7.26489 43.7159 7.38208C43.6183 7.49927 43.5353 7.6425 43.4669 7.81177C43.3986 7.98104 43.3416 8.18449 43.296 8.42212C43.2504 8.65975 43.2163 8.94621 43.1935 9.28149C43.1935 9.33358 43.2016 9.37264 43.2179 9.39868C43.2374 9.42147 43.2716 9.43286 43.3204 9.43286C43.3725 9.43286 43.4441 9.42798 43.5353 9.41821C43.6297 9.40845 43.729 9.39705 43.8331 9.38403C43.9373 9.36776 44.0415 9.35148 44.1456 9.33521C44.2531 9.31567 44.3458 9.29777 44.424 9.28149C44.4825 9.27173 44.52 9.25545 44.5363 9.23267C44.5525 9.20662 44.5607 9.16431 44.5607 9.10571C44.5607 9.06014 44.5542 9.00317 44.5411 8.93481C44.5314 8.8632 44.5184 8.78345 44.5021 8.69556C44.4565 8.42863 44.4207 8.21053 44.3947 8.04126C44.3719 7.86873 44.3605 7.77271 44.3605 7.75317ZM46.8947 11.5325C46.8947 11.4771 46.9012 11.4153 46.9142 11.3469C46.9272 11.2786 46.9337 11.2037 46.9337 11.1223C46.9337 11.067 46.9093 11.0247 46.8605 10.9954C46.8149 10.9661 46.7628 10.9335 46.7042 10.8977C46.6456 10.8619 46.5919 10.8163 46.5431 10.761C46.4975 10.7056 46.4747 10.6259 46.4747 10.5217C46.4747 10.4469 46.4943 10.372 46.5333 10.2971C46.5756 10.2222 46.6359 10.1539 46.714 10.092C46.906 9.94881 47.1046 9.82023 47.3097 9.7063C47.518 9.59237 47.7247 9.49634 47.9298 9.41821C48.1381 9.34009 48.3432 9.27987 48.545 9.23755C48.7469 9.19523 48.9406 9.17407 49.1261 9.17407C49.4386 9.17407 49.7316 9.23267 50.005 9.34985C50.2817 9.46379 50.521 9.62166 50.7228 9.82349C50.9279 10.0221 51.089 10.2564 51.2062 10.5266C51.3266 10.7935 51.3868 11.08 51.3868 11.386C51.3868 11.6855 51.3234 11.9703 51.1964 12.2405C51.0727 12.5074 50.9051 12.7418 50.6935 12.9436C50.4819 13.1454 50.2329 13.3049 49.9464 13.4221C49.6632 13.5426 49.3637 13.6028 49.048 13.6028C48.7387 13.6028 48.4523 13.5507 48.1886 13.4465C47.9249 13.3424 47.6971 13.1991 47.505 13.0168C47.3129 12.8313 47.1632 12.6132 47.0558 12.3625C46.9484 12.1086 46.8947 11.8319 46.8947 11.5325ZM49.1554 12.7239C49.2921 12.7239 49.4337 12.6962 49.5802 12.6409C49.7267 12.5855 49.8601 12.5058 49.9806 12.4016C50.1043 12.2942 50.2052 12.164 50.2833 12.011C50.3647 11.858 50.4054 11.6855 50.4054 11.4934C50.4054 11.2981 50.3696 11.1158 50.298 10.9465C50.2264 10.7773 50.1271 10.6308 50.0001 10.5071C49.8764 10.3801 49.7283 10.2808 49.5558 10.2092C49.3865 10.1376 49.2026 10.1018 49.004 10.1018C48.6427 10.1018 48.366 10.1962 48.174 10.385C47.9819 10.5706 47.8859 10.857 47.8859 11.2444C47.8859 11.456 47.9168 11.6529 47.9786 11.8352C48.0437 12.0142 48.1333 12.1705 48.2472 12.304C48.3611 12.4342 48.4946 12.5367 48.6476 12.6116C48.8038 12.6864 48.9731 12.7239 49.1554 12.7239ZM51.5529 9.74536C51.5529 9.61841 51.6098 9.52238 51.7238 9.45728C51.8377 9.38892 52.0004 9.35474 52.212 9.35474C52.2609 9.35474 52.3048 9.36125 52.3439 9.37427C52.3829 9.38729 52.4171 9.41333 52.4464 9.45239C52.479 9.4882 52.5083 9.53866 52.5343 9.60376C52.5603 9.66886 52.5864 9.75187 52.6124 9.85278C52.6385 9.96672 52.6645 10.0237 52.6906 10.0237C52.7133 10.0237 52.741 9.97648 52.7736 9.88208C52.8322 9.69653 52.9087 9.5354 53.0031 9.39868C53.1007 9.25871 53.2098 9.14315 53.3302 9.052C53.4506 8.9576 53.5809 8.88761 53.7208 8.84204C53.8641 8.79647 54.0138 8.77368 54.17 8.77368C54.4858 8.77368 54.7804 8.8339 55.0538 8.95435C55.3273 9.07153 55.5633 9.23592 55.7618 9.44751C55.9604 9.65584 56.1167 9.90324 56.2306 10.1897C56.3445 10.4729 56.4015 10.7805 56.4015 11.1125C56.4015 11.4641 56.3396 11.7896 56.2159 12.0891C56.0955 12.3886 55.9262 12.6474 55.7081 12.8655C55.49 13.0803 55.2296 13.248 54.9269 13.3684C54.6274 13.4921 54.2986 13.554 53.9406 13.554L53.6915 13.5442C53.545 13.5442 53.4718 13.6272 53.4718 13.7932L53.7208 16.0344C53.7176 16.0898 53.698 16.1402 53.6622 16.1858C53.6297 16.2346 53.5841 16.2769 53.5255 16.3127C53.4702 16.3486 53.4034 16.3762 53.3253 16.3958C53.2504 16.4153 53.1723 16.425 53.0909 16.425C52.8566 16.425 52.7296 16.3486 52.7101 16.1956C52.6417 15.6031 52.5652 15.04 52.4806 14.5061C52.3992 13.9722 52.3146 13.4758 52.2267 13.0168C52.142 12.5546 52.059 12.1347 51.9777 11.7571C51.8963 11.3795 51.823 11.0507 51.7579 10.7708C51.6961 10.4908 51.6473 10.2629 51.6115 10.0872C51.5724 9.91138 51.5529 9.79744 51.5529 9.74536ZM53.1398 11.0344C53.1398 11.246 53.1479 11.456 53.1642 11.6643C53.1805 11.8694 53.2065 12.0924 53.2423 12.3333C53.2618 12.4797 53.3416 12.5627 53.4816 12.5823C53.5662 12.6018 53.6606 12.6213 53.7648 12.6409C53.8722 12.6571 53.9617 12.6653 54.0333 12.6653C54.2417 12.6653 54.4305 12.6344 54.5997 12.5725C54.769 12.5107 54.9139 12.4228 55.0343 12.3088C55.1547 12.1917 55.2475 12.0533 55.3126 11.8938C55.3777 11.7343 55.4103 11.5569 55.4103 11.3616C55.4103 11.1239 55.3777 10.9026 55.3126 10.6975C55.2475 10.4892 55.158 10.3085 55.0441 10.1555C54.9334 10.0025 54.8016 9.88208 54.6486 9.79419C54.4988 9.7063 54.3361 9.66235 54.1603 9.66235C54.0073 9.66235 53.8673 9.69653 53.7404 9.76489C53.6167 9.83 53.5092 9.92277 53.4181 10.0432C53.3302 10.1604 53.2618 10.3036 53.213 10.4729C53.1642 10.6422 53.1398 10.8293 53.1398 11.0344Z" fill="#1E1E1E"/>
<path d="M8.81055 84.8602C19.5959 84.8602 62.7572 84.8602 73.5426 84.8602" stroke="#1E1E1E" stroke-width="2" stroke-linecap="round"/>
<g clip-path="url(#clip1_22_25)">
<path d="M25.67 54.996C25.0392 54.0589 22.2558 51.5445 22.0931 49.9066C21.9401 48.2593 24.2748 45.9056 24.7132 45.1312M25.2505 55.5587C24.6785 54.6306 22.7862 51.8192 22.7508 50.1533C22.7154 48.4781 24.6685 46.3463 25.0382 45.5353" stroke="#1E1E1E" stroke-linecap="round"/>
<path d="M25.3792 54.5721C25.8556 53.7556 28.4096 51.4969 28.4118 49.9044C28.4042 48.3119 25.7874 45.894 25.353 45.0353M24.8762 55.0294C25.391 54.3052 28.6901 51.9772 28.8294 50.3855C28.9589 48.803 26.1064 46.4574 25.6923 45.5068" stroke="#1E1E1E" stroke-linecap="round"/>
<path d="M25.8374 48.7186C25.8374 48.7186 25.8701 48.7646 25.9356 48.8566C26.0075 48.9425 26.0599 49.0376 26.0926 49.142C26.1318 49.2524 26.1482 49.3567 26.1417 49.4549C26.1417 49.5654 26.1188 49.6728 26.073 49.7771C26.0337 49.8814 25.9781 49.9765 25.9061 50.0624C25.8342 50.1483 25.7491 50.222 25.651 50.2833C25.5463 50.3447 25.4383 50.3876 25.3271 50.4122C25.2159 50.4367 25.1047 50.4459 24.9934 50.4398C24.8757 50.4275 24.7612 50.3999 24.65 50.357C24.5453 50.314 24.4471 50.2557 24.3555 50.1821C24.2705 50.1084 24.1985 50.0225 24.1396 49.9244C24.0808 49.8323 24.0415 49.7311 24.0219 49.6206C24.0022 49.5101 23.999 49.4058 24.0121 49.3076C24.0251 49.1972 24.0579 49.0929 24.1102 48.9947C24.1625 48.8965 24.2312 48.8075 24.3163 48.7278C24.4013 48.648 24.4962 48.5836 24.6009 48.5345C24.7056 48.4854 24.8168 48.4547 24.9346 48.4424C25.0458 48.4301 25.157 48.4332 25.2682 48.4516C25.386 48.47 25.4939 48.5069 25.5921 48.5621C25.6968 48.6173 25.7884 48.6848 25.8669 48.7646C25.9454 48.8505 26.0075 48.9425 26.0533 49.0407C26.0991 49.145 26.1286 49.2524 26.1417 49.3629C26.1482 49.4672 26.1384 49.5715 26.1122 49.6758C26.0795 49.7801 26.0337 49.8814 25.9748 49.9796C25.9094 50.0716 25.8309 50.1514 25.7393 50.2189C25.6477 50.2864 25.5463 50.3386 25.4351 50.3754C25.3238 50.4183 25.2093 50.4398 25.0916 50.4398C24.9804 50.4459 24.8691 50.4306 24.7579 50.3938C24.6467 50.3631 24.5453 50.314 24.4537 50.2465C24.3555 50.1851 24.3065 50.1545 24.3065 50.1545C24.3065 50.1545 24.2803 50.1207 24.228 50.0532C24.1691 49.9919 24.1233 49.9244 24.0906 49.8507C24.0513 49.7771 24.0251 49.6973 24.0121 49.6114C23.999 49.5316 23.9924 49.4549 23.9924 49.3813C23.999 49.2954 24.0153 49.2156 24.0415 49.142C24.0677 49.0622 24.1037 48.9855 24.1495 48.9119C24.1953 48.8444 24.2509 48.783 24.3163 48.7278C24.3752 48.6664 24.4406 48.6142 24.5126 48.5713C24.5911 48.5283 24.6729 48.4946 24.7579 48.47C24.8364 48.4455 24.9215 48.4301 25.0131 48.424C25.0916 48.424 25.1734 48.4301 25.2584 48.4424C25.35 48.4547 25.4351 48.4792 25.5136 48.5161C25.5921 48.5467 25.6641 48.5897 25.7295 48.6449C25.8014 48.694 25.8374 48.7186 25.8374 48.7186Z" fill="#1E1E1E"/>
<path d="M15.0184 58.7614C18.5416 58.7154 32.8011 58.4485 36.2654 58.4301M15.8428 59.6266C19.3071 59.7003 32.3202 59.3689 35.8336 59.0744" stroke="#1E1E1E" stroke-linecap="round"/>
<path d="M15.2736 58.1465C15.2442 56.2411 12.8202 48.8591 14.4885 45.7387C16.147 42.6092 21.8391 39.8754 25.2445 39.4152C28.6499 38.955 33.125 39.9951 34.9209 42.9774C36.7266 45.9688 35.6864 55.1182 36.0495 57.3365M13.8212 57.1708C14.2039 55.0261 14.8124 47.3127 16.6476 44.0451C18.4827 40.7775 21.6919 37.5835 24.8225 37.5651C27.9531 37.5467 33.7923 40.5566 35.441 43.9162C37.0799 47.2759 34.6559 55.3483 34.6756 57.723" stroke="#1E1E1E" stroke-linecap="round"/>
<path d="M25.0896 34.9455C25.3252 34.9823 25.7864 35.3597 25.9434 35.5622C26.0907 35.7739 25.9925 35.9856 26.0023 36.1789C26.0023 36.3814 26.1005 36.6207 25.9729 36.7496C25.8551 36.8877 25.492 36.9429 25.2761 36.9797C25.0504 37.0165 24.9326 37.0257 24.648 36.9521C24.3732 36.8877 23.7942 36.7312 23.6078 36.5655C23.4213 36.3906 23.3919 36.1605 23.5489 35.9304C23.6961 35.7095 24.2162 35.3965 24.5106 35.2309C24.8149 35.0652 25.2663 35.0284 25.3252 34.9455C25.3939 34.8535 24.8934 34.697 24.9032 34.7062M25.3448 35.1112C25.6294 35.1388 25.9336 35.4426 26.1692 35.5806C26.4047 35.7187 26.6893 35.7095 26.7482 35.9396C26.8071 36.1789 26.7482 36.8417 26.5225 36.9981C26.2967 37.1638 25.7374 36.8969 25.3841 36.8969C25.0406 36.9061 24.7167 37.0442 24.4321 37.0073C24.1475 36.9613 23.804 36.7956 23.6666 36.6576C23.5391 36.5195 23.5685 36.4367 23.6372 36.1513C23.6961 35.866 23.8924 35.0744 24.0494 34.9363C24.2064 34.7982 24.4419 35.3229 24.5793 35.3045C24.7167 35.2953 24.8836 34.8995 24.8639 34.8535" stroke="#1E1E1E" stroke-linecap="round"/>
<path d="M43.5708 49.3531C43.8358 47.0888 42.1184 38.9888 43.5905 35.6751C45.0527 32.3707 49.1058 29.9775 52.3738 29.4805C55.6418 28.9926 61.2357 29.729 63.2083 32.7389C65.1907 35.7488 64.2191 45.0914 64.2584 47.5674M42.4619 48.6995C42.6974 46.5641 41.3922 40.0012 42.9231 37.0098C44.4639 34.0183 48.7623 31.3582 51.6869 30.7231C54.6114 30.0972 58.5664 30.3917 60.4801 33.2267C62.3938 36.0709 62.4625 45.5516 63.1691 47.7607" stroke="#1E1E1E" stroke-linecap="round"/>
<path d="M43.2762 48.8287C46.7306 48.663 60.5191 48.35 64.0619 48.1567M42.7462 48.3592C46.1124 48.2488 60.048 48.8747 63.6693 48.8103" stroke="#1E1E1E" stroke-linecap="round"/>
<path d="M58.5094 39.8166C57.5953 40.4248 54.6926 43.4578 52.8495 43.5506C51.0163 43.6525 48.3115 40.9264 47.4804 40.4008M59.133 40.2338C58.2673 40.7863 54.905 43.1976 52.9912 43.1438C51.0775 43.09 48.5209 40.4453 47.6604 39.92" stroke="#1E1E1E" stroke-linecap="round"/>
<path d="M58.4997 40.6195C57.5467 40.1056 54.9397 37.1829 53.2516 37.0846C51.5537 36.9771 49.0867 39.5865 48.332 40.002M58.8706 39.7535C57.9665 39.1752 55.2032 36.5473 53.5055 36.5134C51.8175 36.4703 49.4776 38.8494 48.7137 39.5227" stroke="#1E1E1E" stroke-linecap="round"/>
<path d="M51.7704 39.7104C51.7704 39.7104 51.8191 39.6793 51.9165 39.6172C52.0074 39.549 52.1082 39.4991 52.219 39.4676C52.3363 39.4299 52.4473 39.4137 52.5519 39.419C52.6696 39.4181 52.7842 39.4387 52.8957 39.4809C53.0072 39.5168 53.109 39.5682 53.2012 39.635C53.2934 39.7019 53.3726 39.781 53.4388 39.8726C53.5052 39.9703 53.5519 40.0712 53.5791 40.1753C53.6062 40.2795 53.6171 40.3837 53.6115 40.4881C53.5996 40.5987 53.5712 40.7063 53.5264 40.811C53.4817 40.9095 53.4205 41.0021 53.3429 41.0886C53.2652 41.1689 53.1744 41.2372 53.0703 41.2932C52.9728 41.3492 52.8653 41.3868 52.7478 41.4061C52.6304 41.4254 52.5193 41.4293 52.4146 41.4179C52.2968 41.4065 52.1854 41.3766 52.0803 41.3283C51.9753 41.28 51.8798 41.2163 51.7941 41.1372C51.7083 41.058 51.6388 40.9696 51.5856 40.8718C51.5323 40.774 51.4986 40.6699 51.4845 40.5595C51.4704 40.4553 51.4726 40.3509 51.4912 40.2465C51.5098 40.1358 51.548 40.0343 51.6059 39.9418C51.6638 39.8431 51.7349 39.7567 51.8191 39.6824C51.9099 39.608 52.0074 39.549 52.1115 39.5052C52.2222 39.4614 52.3364 39.4329 52.4539 39.4198C52.5649 39.4128 52.6762 39.4212 52.7875 39.4449C52.8989 39.4747 53.0072 39.5168 53.1123 39.5713C53.211 39.6319 53.2967 39.7049 53.3694 39.7903C53.4421 39.8756 53.4986 39.9703 53.5389 40.0744C53.5856 40.1784 53.6096 40.2856 53.6106 40.3961C53.6182 40.5003 53.6029 40.6048 53.5647 40.7094C53.533 40.814 53.4817 40.9095 53.4106 40.996C53.3461 41.0885 53.3139 41.1348 53.3139 41.1348C53.3139 41.1348 53.2782 41.1596 53.2068 41.2093C53.1419 41.265 53.0705 41.3085 52.9923 41.3398C52.9142 41.3772 52.8295 41.4024 52.7381 41.4154C52.6533 41.4283 52.5716 41.4351 52.4932 41.4357C52.4016 41.4302 52.3165 41.4155 52.2378 41.3916C52.1526 41.3677 52.0706 41.3345 51.9917 41.2922C51.9194 41.2498 51.8535 41.1981 51.7941 41.1372C51.7282 41.0824 51.672 41.0215 51.6256 40.9543C51.5791 40.881 51.5424 40.8046 51.5155 40.725C51.4887 40.6516 51.4715 40.5719 51.4642 40.486C51.4634 40.4124 51.4692 40.3356 51.4815 40.2557C51.4938 40.1697 51.5191 40.0897 51.5576 40.0158C51.5896 39.9419 51.6347 39.874 51.6929 39.8122C51.7445 39.7443 51.7704 39.7104 51.7704 39.7104Z" fill="#1E1E1E"/>
<path d="M46.8795 53.9375C46.6734 51.9033 47.0071 50.4305 46.8795 49.2708C46.9286 50.3845 46.8992 51.2773 46.8795 53.9375ZM46.8795 53.9375C46.1435 55.2445 46.487 54.4069 45.957 54.8119M46.8795 53.9375C47.331 54.7843 47.5174 55.2721 45.957 54.8119M45.957 54.8119C45.1719 54.186 44.3279 55.8888 45.0247 55.6771M45.957 54.8119C45.1817 54.6186 43.9354 55.1525 45.0247 55.6771M45.0247 55.6771C45.2602 56.8921 44.9069 58.282 45.0247 60.3438C45.1425 58.5765 44.9168 57.113 45.0247 55.6771Z" stroke="#1E1E1E" stroke-linecap="round"/>
<path d="M45.064 59.5798C45.1622 59.543 45.2505 59.6351 45.4075 59.6627C45.5645 59.6995 45.8982 59.6259 46.016 59.7915C46.1435 59.948 46.2613 60.4174 46.1435 60.6107C46.0356 60.804 45.6038 60.8224 45.3486 60.9513C45.0935 61.0894 44.75 61.476 44.6126 61.4023C44.4752 61.3287 44.5635 60.712 44.5144 60.5187C44.4556 60.3254 44.22 60.3162 44.2789 60.2518C44.328 60.1781 44.7107 60.1965 44.8481 60.1045C44.9757 60.0217 44.9953 59.8468 45.0836 59.7087C45.1818 59.5798 45.4369 59.3221 45.3977 59.2945M44.7402 59.2945C44.7009 59.2945 44.5144 59.8652 44.75 59.9664C44.9953 60.0677 46.0454 59.8099 46.2024 59.8928C46.3594 59.9756 45.8491 60.2334 45.6921 60.4635C45.5351 60.6844 45.4173 61.2551 45.2701 61.2643C45.1229 61.2643 44.9266 60.5647 44.8187 60.4819C44.7205 60.4082 44.8481 60.8869 44.6322 60.7764C44.4163 60.6568 43.5723 59.902 43.5331 59.8192C43.5036 59.7271 44.1611 60.1965 44.4163 60.2334C44.6813 60.2702 45.015 60.1413 45.0935 60.0493C45.172 59.9572 44.9364 59.7823 44.8776 59.6719" fill="#1E1E1E"/>
<path d="M44.5145 59.8284C44.7893 59.8376 45.4959 59.81 45.7412 59.856C45.9964 59.9112 46.0847 60.0677 46.0258 60.1229C45.9669 60.1873 45.4076 60.1045 45.3781 60.2426C45.3389 60.3714 45.9375 60.7672 45.8197 60.9329C45.7118 61.1078 44.9071 61.2091 44.6911 61.2551C44.4851 61.3011 44.593 61.3011 44.5538 61.2183C44.5243 61.1262 44.4065 60.8777 44.4556 60.7396C44.5145 60.5923 44.7991 60.4727 44.8874 60.3438C44.9856 60.2058 44.9659 60.0953 45.0346 59.948C45.1131 59.81 45.3977 59.5614 45.329 59.4786M44.75 59.8652C44.9561 59.7916 45.2407 59.1196 45.3192 59.2577C45.4076 59.3958 45.1917 60.5095 45.2505 60.712C45.3094 60.9237 45.751 60.4451 45.6627 60.5003C45.5646 60.5555 44.8678 60.8501 44.6813 61.0342C44.4949 61.2183 44.6813 61.5312 44.5341 61.5864C44.3771 61.6509 43.8177 61.6785 43.7785 61.4023C43.749 61.1262 44.1023 60.1966 44.3378 59.9388C44.5636 59.6903 45.0641 60.0493 45.1622 59.8836C45.2702 59.7179 45.1033 58.9908 44.9463 58.9631C44.7893 58.9355 44.1219 59.5338 44.2299 59.7179" stroke="#1E1E1E" stroke-linecap="round"/>
<path d="M51.1737 48.6096C49.79 48.6464 49.3189 48.6004 48.9067 48.6096C49.7507 48.5727 50.5555 48.6372 51.1737 48.6096ZM51.1737 48.6096C52.636 48.3426 53.7057 49.4748 53.4407 50.7358M51.1737 48.6096C53.323 48.9225 54.059 49.9995 53.4407 50.7358M53.4407 50.7358C53.4996 51.463 53.4015 52.1901 53.4407 52.5951M53.4407 50.7358C53.4309 51.2052 53.4407 51.6287 53.4407 52.5951M53.4407 52.5951C52.9795 54.5465 54.1179 54.6201 55.7175 54.7306M53.4407 52.5951C52.7145 54.0587 53.8627 55.2645 55.7175 54.7306M55.7175 54.7306C56.1592 54.795 56.6891 54.7306 57.9845 54.7306C56.6106 54.703 56.218 54.7398 55.7175 54.7306Z" stroke="#1E1E1E" stroke-linecap="round"/>
<path d="M57.9551 54.1968C58.063 54.1507 58.3378 54.0495 58.4654 54.1231C58.6028 54.1968 58.7598 54.4913 58.75 54.6294C58.7402 54.7582 58.5243 54.8043 58.3967 54.9423C58.2789 55.0712 58.0826 55.3933 58.0041 55.4118C57.9158 55.421 57.9551 55.0896 57.8864 55.0068C57.8177 54.9239 57.5919 54.9607 57.5625 54.9331C57.5429 54.8963 57.7097 54.9055 57.7391 54.8135C57.7784 54.7306 57.6606 54.5465 57.749 54.4177C57.8373 54.2796 58.2495 54.0587 58.2789 54.0219C58.3083 53.9758 58.0041 54.0955 57.9354 54.1783M57.5232 54.3993C57.6901 54.3993 58.4457 54.1783 58.5929 54.1968C58.75 54.2244 58.485 54.3716 58.4457 54.5281C58.3967 54.6938 58.3967 55.0988 58.3476 55.1448C58.2887 55.1908 58.2004 54.7951 58.1317 54.8043C58.063 54.8043 58.1317 55.2001 57.9551 55.1724C57.7784 55.1448 57.1503 54.6846 57.0718 54.6386C56.9835 54.5926 57.3466 54.8963 57.4644 54.8963C57.5821 54.8963 57.6901 54.7398 57.7686 54.6386C57.8569 54.5373 57.9354 54.3624 57.9551 54.2612C57.9747 54.1599 57.8177 54.0127 57.8667 54.0311" fill="#1E1E1E"/>
<path d="M58.1905 54.344C58.3672 54.3164 58.4653 54.3624 58.4751 54.3716C58.4751 54.3808 58.1807 54.3072 58.22 54.3992C58.2494 54.4913 58.7205 54.7766 58.691 54.9331C58.6518 55.0804 58.1611 55.2184 58.0237 55.3013C57.8961 55.3841 57.9648 55.4578 57.9059 55.4486C57.847 55.4301 57.7096 55.3105 57.6998 55.2276C57.6802 55.154 57.7882 55.062 57.798 54.9607C57.8078 54.8503 57.6606 54.7214 57.7391 54.5833C57.8078 54.4453 58.2396 54.2244 58.2396 54.1415C58.2494 54.0587 57.847 54.1047 57.7685 54.0955M57.8765 53.9298C57.9452 53.9574 57.8569 54.6294 57.9452 54.7306C58.0335 54.8411 58.4064 54.5005 58.4162 54.5373C58.4162 54.5833 58.0335 54.8134 57.955 54.9791C57.8765 55.1448 58.0433 55.4209 57.955 55.5222C57.8667 55.6234 57.4643 55.7247 57.4152 55.5958C57.3563 55.4578 57.5232 54.8871 57.6213 54.7398C57.7096 54.5833 57.955 54.8134 57.9648 54.6846C57.9648 54.5465 57.7391 53.9942 57.6606 53.9298C57.5821 53.8654 57.376 54.2059 57.5036 54.298C57.6213 54.39 58.3966 54.5281 58.4064 54.4821" stroke="#1E1E1E" stroke-linecap="round"/>
<path d="M48.8185 54.8941C48.9853 52.0498 48.5829 50.8993 48.8185 49.6014C48.7105 51.5712 48.8087 53.2833 48.8185 54.8941ZM48.8185 54.8941C49.211 55.8053 50.0059 56.33 49.9176 55.925M48.8185 54.8941C49.741 56.6061 50.3004 56.2195 49.9176 55.925M49.9176 55.925C50.5261 55.7593 50.0648 56.3208 51.0266 56.9559M49.9176 55.925C50.1433 56.7258 50.055 57.186 51.0266 56.9559M51.0266 56.9559C51.0168 58.6219 50.742 60.0118 51.0266 62.2485C50.9775 60.3339 50.9186 58.5391 51.0266 56.9559Z" stroke="#1E1E1E" stroke-linecap="round"/>
<path d="M51.2327 61.0243C51.4977 61.0151 51.8902 61.3741 52.008 61.5398C52.116 61.7055 51.9687 61.7791 51.9099 62.0276C51.8412 62.2762 51.6841 62.8837 51.6056 63.0125C51.5369 63.1414 51.6154 62.8008 51.4781 62.8008C51.3308 62.8008 50.899 62.9941 50.7518 63.0217C50.6046 63.0493 50.6929 63.1046 50.6046 62.9665C50.5261 62.8284 50.1924 62.4971 50.2317 62.2117C50.2611 61.9264 50.7126 61.4109 50.8303 61.2545C50.9481 61.098 50.9383 61.1808 50.9383 61.2545C50.9383 61.3281 50.8107 61.6871 50.8303 61.6963M51.3407 61.144C51.6351 61.0428 51.3995 61.1532 51.4781 61.3465C51.5566 61.5306 51.743 62.1473 51.8019 62.2578C51.8608 62.3682 51.8706 61.8896 51.851 62.0184C51.8314 62.1473 51.9687 62.9113 51.6743 63.0125C51.3799 63.1138 50.3397 62.5799 50.0943 62.6075C49.8588 62.6351 50.2121 63.1506 50.2415 63.1598C50.2611 63.1598 50.2415 62.8745 50.2513 62.6259C50.2611 62.3866 50.2121 61.9448 50.2906 61.6871C50.3691 61.4201 50.5556 61.0796 50.7322 61.052C50.9089 61.0243 51.4192 61.457 51.3407 61.5398" fill="#1E1E1E"/>
<path d="M51.3897 61.4201C51.4584 61.3464 51.1444 61.1715 51.3014 61.3004C51.4682 61.4201 52.3024 61.8803 52.3417 62.1564C52.3907 62.4326 51.7234 62.7271 51.5566 62.9572C51.3995 63.1781 51.4879 63.4082 51.3603 63.4911C51.2425 63.5647 50.9383 63.4819 50.8205 63.4082C50.7028 63.3346 50.7322 63.2334 50.6341 63.0585C50.5457 62.8744 50.2121 62.6074 50.2611 62.3313C50.3004 62.046 50.8009 61.5673 50.899 61.3648C50.9972 61.1715 50.8303 61.1899 50.8303 61.1439C50.8303 61.1071 50.8598 61.0887 50.8892 61.1163M50.5752 61.9631C50.7714 62.0276 51.478 61.4661 51.586 61.5029C51.6939 61.5489 51.2621 61.9171 51.2425 62.2116C51.2131 62.5062 51.5566 63.0309 51.4584 63.2794C51.3505 63.5279 50.7518 63.804 50.6341 63.6936C50.5065 63.5923 50.6733 62.8376 50.7126 62.6627C50.7616 62.4878 50.9874 62.8652 50.8892 62.6443C50.8009 62.4326 50.3298 61.5305 50.1434 61.3648C49.9569 61.1899 49.5251 61.5489 49.7901 61.6134C50.0649 61.6686 51.6547 61.8251 51.7626 61.7238C51.8706 61.6226 50.6046 60.9966 50.4378 61.0243" stroke="#1E1E1E" stroke-linecap="round"/>
<path d="M61.0944 48.8575C59.9658 48.8667 59.2101 48.8943 58.3367 48.8575C58.9353 48.8207 59.5732 48.8667 61.0944 48.8575ZM61.0944 48.8575C63.7441 49.2625 64.647 50.6064 63.8422 51.444M61.0944 48.8575C64.0385 49.1521 64.647 50.5696 63.8422 51.444M63.8422 51.444C63.803 51.7477 63.8226 52.1067 63.8422 52.7234M63.8422 51.444C63.8226 51.895 63.8422 52.3 63.8422 52.7234M63.8422 52.7234C62.8903 54.4907 64.3133 56.0002 66.5999 55.3007M63.8422 52.7234C62.8805 55.3651 64.9021 54.7208 66.5999 55.3007M66.5999 55.3007C67.5617 55.181 68.808 55.4204 69.3576 55.3007C68.5332 55.3283 67.5322 55.3467 66.5999 55.3007Z" stroke="#1E1E1E" stroke-linecap="round"/>
<path d="M69.7207 54.6288C69.8189 54.6656 69.7403 54.5919 69.7502 54.7392C69.7698 54.8865 69.7502 55.4019 69.809 55.5032C69.8679 55.6044 70.1133 55.2915 70.0936 55.3467C70.0642 55.4019 69.7502 55.7149 69.652 55.853C69.5539 55.991 69.652 56.2027 69.5244 56.1935C69.3969 56.1751 68.9651 55.9634 68.8865 55.7425C68.8178 55.5308 69.0926 55.0614 69.073 54.8865C69.0534 54.7116 68.7688 54.6932 68.7688 54.7116C68.7786 54.7208 68.9945 54.9877 69.1025 54.9601C69.2104 54.9325 69.3969 54.6656 69.4067 54.5459M69.3576 54.4815C69.4067 54.5735 69.6226 55.0706 69.7305 55.1074C69.8483 55.135 69.9563 54.5735 70.025 54.6656C70.0936 54.7576 70.3586 55.5308 70.1623 55.6597C69.9661 55.7885 69.0141 55.3375 68.8277 55.4388C68.6412 55.54 69.0141 56.1843 69.0239 56.2764C69.0338 56.3776 68.9454 56.1935 68.8767 56.0094C68.808 55.8254 68.6412 55.4388 68.6216 55.1718C68.6019 54.9141 68.5627 54.5091 68.7688 54.4447C68.9749 54.3802 69.8385 54.7484 69.8385 54.8037C69.8287 54.8497 68.8767 54.7116 68.7393 54.7576" fill="#1E1E1E"/>
<path d="M69.0141 54.3066C69.1809 54.2974 70.1034 54.6196 70.2408 54.8037C70.3782 54.9877 69.8679 55.2179 69.8385 55.4296C69.809 55.6413 70.0642 55.9174 70.0544 56.0647C70.0347 56.212 69.8385 56.258 69.7501 56.3132C69.6618 56.3592 69.6814 56.4145 69.5342 56.35C69.3772 56.2856 68.9258 56.1383 68.8473 55.9082C68.7688 55.6873 69.1024 55.2179 69.0632 54.9877C69.0337 54.7576 68.6117 54.638 68.6314 54.5367C68.651 54.4355 69.0632 54.3802 69.1809 54.3802C69.3085 54.3895 69.2987 54.5275 69.3674 54.5735M69.1319 54.5367C69.2398 54.4171 68.9062 54.6012 68.9945 54.776C69.0828 54.9601 69.6226 55.3835 69.6814 55.6045C69.7501 55.8346 69.3674 56.1475 69.387 56.1291C69.4067 56.1107 69.7011 55.5216 69.7894 55.494C69.8875 55.4664 70.1034 56.0463 69.9464 55.9726C69.7894 55.9082 69.1711 55.1626 68.8375 55.0614C68.5038 54.9693 67.8463 55.3559 67.9542 55.3835C68.0622 55.4112 69.3772 55.4204 69.4754 55.2363C69.5735 55.0522 68.6706 54.3158 68.5725 54.2974C68.4743 54.2698 68.7786 54.9877 68.8865 55.089" stroke="#1E1E1E" stroke-linecap="round"/>
<path d="M31.1042 61.859C31.006 60.9846 31.1827 60.2298 31.1042 59.3553C31.1336 60.3218 31.163 61.2791 31.1042 61.859ZM31.1042 61.859C31.8991 64.4086 32.959 64.6111 33.7735 64.3534M31.1042 61.859C31.9089 64.381 31.6243 63.6631 33.7735 64.3534M33.7735 64.3534C33.9305 64.3534 34.117 64.3534 34.4311 64.3534M33.7735 64.3534C33.9207 64.3534 34.0581 64.3534 34.4311 64.3534M34.4311 64.3534C35.7657 65.053 36.2564 65.9918 37.1004 66.8571M34.4311 64.3534C36.3447 63.7735 38.1996 65.2371 37.1004 66.8571M37.1004 66.8571C37.1004 67.7315 37.1495 68.2653 37.1004 69.3607C37.0808 68.0813 37.0906 67.4922 37.1004 66.8571Z" stroke="#1E1E1E" stroke-linecap="round"/>
<path d="M36.9336 68.6796C36.9631 68.7072 37.0416 69.103 37.1986 69.1306C37.3458 69.1674 37.7482 68.7992 37.8463 68.8637C37.9445 68.9281 37.7776 69.2871 37.7776 69.508C37.7678 69.7289 37.9445 70.0787 37.8365 70.1707C37.7286 70.272 37.2575 70.2075 37.1201 70.0879C36.9827 69.9682 37.1397 69.5816 37.0023 69.4435C36.8649 69.3055 36.4233 69.2871 36.3056 69.2595C36.1976 69.2226 36.1976 69.3699 36.3154 69.2595C36.4331 69.149 36.9435 68.7624 37.022 68.6059C37.1103 68.4402 36.7766 68.2193 36.8061 68.293M36.9238 68.9741C37.0612 68.8913 37.2771 68.2193 37.4538 68.2562C37.6304 68.2838 38.0622 69.0293 37.9837 69.1766C37.9052 69.3147 37.1103 68.9373 37.0023 69.1306C36.9042 69.3239 37.336 70.1155 37.3556 70.3272C37.3654 70.5389 37.2281 70.5021 37.0808 70.41C36.9336 70.318 36.6294 70.005 36.492 69.7657C36.3448 69.5264 36.1485 69.0938 36.2369 68.9741C36.335 68.8545 37.022 69.0754 37.0416 69.0477C37.0612 69.0201 36.4331 68.7992 36.3644 68.8084C36.2859 68.8268 36.3939 69.0846 36.6098 69.1214" fill="#1E1E1E"/>
<path d="M37.5028 68.6704C37.6696 68.7532 37.2673 68.8913 37.336 69.057C37.3949 69.2226 37.7972 69.4804 37.8954 69.646C37.9837 69.8117 37.915 69.9406 37.8954 70.0695C37.8757 70.1983 37.9444 70.3824 37.7874 70.4192C37.6402 70.456 37.1299 70.4376 36.9827 70.2812C36.8355 70.1339 37.0416 69.7289 36.8944 69.5172C36.7471 69.3055 36.1976 69.1582 36.1092 69.0017C36.0307 68.8453 36.2466 68.6428 36.3938 68.5783C36.5509 68.5139 36.8649 68.5967 37.0219 68.6059C37.179 68.6243 37.4047 68.6796 37.3654 68.6612M36.5312 68.7624C36.6294 68.8913 37.1986 69.2871 37.3065 69.4896C37.4047 69.6921 37.0808 69.9958 37.1495 69.9866C37.2182 69.9682 37.5617 69.4067 37.6893 69.4067C37.8169 69.4159 38.0622 70.051 37.9052 70.0234C37.758 69.9958 37.1201 69.3055 36.757 69.241C36.3938 69.1766 35.6971 69.6 35.7559 69.6368C35.8148 69.6737 37.071 69.6645 37.1299 69.462C37.1888 69.2595 36.1583 68.4771 36.1191 68.4218C36.0798 68.3666 36.7079 69.057 36.8944 69.1398C37.0808 69.2226 37.1888 68.9925 37.2378 68.9189" stroke="#1E1E1E" stroke-linecap="round"/>
<path d="M21.4538 59.4379C22.2291 59.4287 22.8376 59.3919 23.6129 59.4379C23.0927 59.4564 22.5333 59.4748 21.4538 59.4379ZM21.4538 59.4379C20.6589 59.6128 19.756 60.6069 19.2948 61.4629M21.4538 59.4379C19.7658 58.9777 18.9218 59.7233 19.2948 61.4629M19.2948 61.4629C19.3144 61.9048 19.2457 62.3282 19.2948 63.3683M19.2948 61.4629C19.2653 62.1993 19.2751 62.9541 19.2948 63.3683M19.2948 63.3683C18.7354 65.246 18.6569 65.0527 17.1357 65.3933M19.2948 63.3683C20.0308 64.7398 18.598 64.7214 17.1357 65.3933M17.1357 65.3933C16.7235 65.3381 16.2034 65.3657 14.9767 65.3933C15.5753 65.4117 16.3506 65.3841 17.1357 65.3933Z" stroke="#1E1E1E" stroke-linecap="round"/>
<path d="M14.8198 65.1724C14.9277 65.1356 15.2418 64.8502 15.3497 64.8686C15.4577 64.887 15.4184 65.1172 15.4675 65.2644C15.5165 65.4209 15.6834 65.6878 15.6441 65.7799C15.6049 65.8811 15.3203 65.8995 15.2319 65.8719C15.1436 65.8351 15.2221 65.6418 15.1044 65.5866C14.9768 65.5314 14.6235 65.5498 14.4959 65.5406C14.3683 65.5314 14.3094 65.6142 14.3389 65.5222C14.3683 65.4301 14.6039 65.1172 14.6824 64.9699C14.7609 64.8318 14.7609 64.6293 14.8296 64.6477C14.8983 64.6753 15.0946 65.0803 15.1044 65.1264M14.9375 64.5557C15.0651 64.5189 15.4086 64.9515 15.4184 65.0251C15.4282 65.0895 14.9768 64.8226 14.967 64.9607C14.9572 65.0988 15.3203 65.6602 15.3792 65.8535C15.4282 66.0376 15.3595 66.0928 15.2614 66.0928C15.1731 66.0836 14.9375 65.9548 14.8001 65.8443C14.6627 65.7247 14.4567 65.4761 14.4567 65.4117C14.4567 65.3381 14.8296 65.4761 14.7903 65.4301C14.7511 65.3749 14.2211 65.1632 14.2015 65.1264C14.1819 65.0895 14.4763 65.2 14.6726 65.2092C14.859 65.2092 15.3693 65.1356 15.3497 65.1356" fill="#1E1E1E"/>
<path d="M14.7707 65.0711C14.8394 65.0987 15.1828 65.2 15.3104 65.2736C15.4478 65.3473 15.5067 65.4117 15.5754 65.5037C15.6441 65.605 15.7815 65.7799 15.7324 65.8627C15.6833 65.9456 15.3791 66.0284 15.281 66.0008C15.1828 65.9824 15.281 65.8075 15.1338 65.7246C14.9866 65.6418 14.5253 65.5958 14.3879 65.5037C14.2505 65.4117 14.2898 65.2644 14.3192 65.1816C14.3487 65.0987 14.4174 65.0619 14.5449 65.0159C14.6627 64.9699 15.016 64.9423 15.0454 64.8962C15.0651 64.8502 14.6823 64.7306 14.7118 64.7398M14.7412 65.292C14.8492 65.3473 14.7216 65.4761 14.8492 65.4393C14.9767 65.4025 15.33 65.0159 15.4969 65.0435C15.6735 65.0803 15.9287 65.5682 15.8698 65.6234C15.8207 65.6694 15.4184 65.3289 15.1632 65.3657C14.9179 65.4117 14.3879 65.7891 14.3683 65.8719C14.3388 65.9456 15.0651 65.9916 15.016 65.8535C14.9669 65.7246 14.1622 65.1632 14.0641 65.0803C13.9659 64.9883 14.28 65.3381 14.4272 65.3289C14.5744 65.3289 14.8786 65.1356 14.9571 65.0619C15.0454 64.9883 14.9277 64.887 14.9179 64.9054" stroke="#1E1E1E" stroke-linecap="round"/>
<path d="M25.8163 63.3208C25.8163 62.0966 25.8163 61.0933 25.8163 60.0992C25.8163 61.1486 25.8163 62.1887 25.8163 63.3208ZM25.8163 63.3208C25.8163 64.2321 26.2972 64.6831 27.2687 64.6831C28.2403 64.6831 28.7212 65.1433 28.7212 66.0546M28.7212 66.0546C28.7212 67.3064 28.7212 68.5674 28.7212 69.2762C28.7212 68.1532 28.7212 67.1039 28.7212 66.0546Z" stroke="#1E1E1E" stroke-linecap="round"/>
<path d="M29.6045 69.2762C29.6045 69.3222 29.5946 69.3682 29.5946 69.4142C29.5848 69.4603 29.5652 69.5155 29.5456 69.5523C29.5358 69.5983 29.5063 69.6443 29.4867 69.6904C29.4572 69.7272 29.4278 69.764 29.3984 69.8008C29.3689 69.8376 29.3297 69.8745 29.2904 69.9021C29.2512 69.9389 29.2119 69.9665 29.1628 69.9849C29.1236 70.0125 29.0745 70.0309 29.0254 70.0493C28.9764 70.0678 28.9273 70.077 28.8782 70.0862C28.8292 70.0954 28.7801 70.0954 28.7212 70.0954C28.6721 70.0954 28.6231 70.0954 28.574 70.0862C28.5249 70.077 28.4759 70.0678 28.4268 70.0493C28.3777 70.0309 28.3287 70.0125 28.2894 69.9849C28.2403 69.9665 28.2011 69.9389 28.1618 69.9021C28.1226 69.8745 28.0833 69.8376 28.0539 69.8008C28.0146 69.764 27.9852 69.7272 27.9655 69.6904C27.9361 69.6443 27.9165 69.5983 27.8968 69.5523C27.8772 69.5155 27.8674 69.4603 27.8576 69.4142C27.8478 69.3682 27.8478 69.3222 27.8478 69.2762C27.8478 69.2301 27.8478 69.1749 27.8576 69.1289C27.8674 69.0829 27.8772 69.0368 27.8968 68.9908C27.9165 68.9448 27.9361 68.908 27.9655 68.862C27.9852 68.8251 28.0146 68.7791 28.0539 68.7423C28.0833 68.7055 28.1226 68.6779 28.1618 68.641C28.2011 68.6134 28.2403 68.5858 28.2894 68.5582C28.3287 68.5398 28.3777 68.5122 28.4268 68.503C28.4759 68.4846 28.5249 68.4754 28.574 68.4662C28.6231 68.457 28.6721 68.4478 28.7212 68.4478C28.7801 68.4478 28.8292 68.457 28.8782 68.4662C28.9273 68.4754 28.9764 68.4846 29.0254 68.503C29.0745 68.5122 29.1236 68.5398 29.1628 68.5582C29.2119 68.5858 29.2512 68.6134 29.2904 68.641C29.3297 68.6779 29.3689 68.7055 29.3984 68.7423C29.4278 68.7791 29.4572 68.8251 29.4867 68.862C29.5063 68.908 29.5358 68.9448 29.5456 68.9908C29.5652 69.0368 29.5848 69.0829 29.5946 69.1289C29.5946 69.1749 29.6045 69.2485 29.6045 69.2762C29.6045 69.2946 29.6045 69.2485 29.6045 69.2762Z" fill="#1E1E1E"/>
<path d="M29.6045 69.2762C29.6045 69.3222 29.5946 69.3682 29.5946 69.4142C29.5848 69.4603 29.5652 69.5155 29.5456 69.5523C29.5358 69.5983 29.5063 69.6443 29.4867 69.6904C29.4572 69.7272 29.4278 69.764 29.3984 69.8008C29.3689 69.8376 29.3297 69.8745 29.2904 69.9021C29.2512 69.9389 29.2119 69.9665 29.1628 69.9849C29.1236 70.0125 29.0745 70.0309 29.0254 70.0493C28.9764 70.0678 28.9273 70.077 28.8782 70.0862C28.8292 70.0954 28.7801 70.0954 28.7212 70.0954C28.6721 70.0954 28.6231 70.0954 28.574 70.0862C28.5249 70.077 28.4759 70.0678 28.4268 70.0493C28.3777 70.0309 28.3287 70.0125 28.2894 69.9849C28.2403 69.9665 28.2011 69.9389 28.1618 69.9021C28.1226 69.8745 28.0833 69.8376 28.0539 69.8008C28.0146 69.764 27.9852 69.7272 27.9655 69.6904C27.9361 69.6443 27.9165 69.5983 27.8968 69.5523C27.8772 69.5155 27.8674 69.4603 27.8576 69.4142C27.8478 69.3682 27.8478 69.3222 27.8478 69.2762C27.8478 69.2301 27.8478 69.1749 27.8576 69.1289C27.8674 69.0829 27.8772 69.0368 27.8968 68.9908C27.9165 68.9448 27.9361 68.908 27.9655 68.862C27.9852 68.8251 28.0146 68.7791 28.0539 68.7423C28.0833 68.7055 28.1226 68.6779 28.1618 68.641C28.2011 68.6134 28.2403 68.5858 28.2894 68.5582C28.3287 68.5398 28.3777 68.5122 28.4268 68.503C28.4759 68.4846 28.5249 68.4754 28.574 68.4662C28.6231 68.457 28.6721 68.4478 28.7212 68.4478C28.7801 68.4478 28.8292 68.457 28.8782 68.4662C28.9273 68.4754 28.9764 68.4846 29.0254 68.503C29.0745 68.5122 29.1236 68.5398 29.1628 68.5582C29.2119 68.5858 29.2512 68.6134 29.2904 68.641C29.3297 68.6779 29.3689 68.7055 29.3984 68.7423C29.4278 68.7791 29.4572 68.8251 29.4867 68.862C29.5063 68.908 29.5358 68.9448 29.5456 68.9908C29.5652 69.0368 29.5848 69.0829 29.5946 69.1289C29.5946 69.1749 29.6045 69.2485 29.6045 69.2762ZM29.6045 69.2762C29.6045 69.2485 29.6045 69.2946 29.6045 69.2762Z" stroke="#1E1E1E" stroke-linecap="round"/>
<path d="M24.1867 64.5629C25.2269 64.5629 25.6587 64.5629 26.0807 64.5629C25.433 64.5629 24.7755 64.5629 24.1867 64.5629ZM24.1867 64.5629C23.9806 64.5629 23.8726 64.6549 23.8726 64.8482C23.8726 65.0415 23.7745 65.1428 23.5684 65.1428M23.5684 65.1428C23.1758 65.1428 22.7735 65.1428 21.6743 65.1428C22.4692 65.1428 23.0188 65.1428 23.5684 65.1428Z" stroke="#1E1E1E" stroke-linecap="round"/>
<path d="M21.743 65.1427V65.1519C21.743 65.1611 21.743 65.1611 21.743 65.1611C21.743 65.1704 21.743 65.1704 21.7332 65.1796C21.7332 65.1796 21.7332 65.1796 21.7332 65.1888C21.7234 65.1888 21.7234 65.1888 21.7234 65.1888C21.7135 65.198 21.7135 65.198 21.7135 65.198C21.7037 65.198 21.7037 65.2072 21.6939 65.2072C21.6939 65.2072 21.6939 65.2072 21.6841 65.2072H21.6743H21.6645C21.6547 65.2072 21.6547 65.2072 21.6448 65.2072C21.6448 65.2072 21.6448 65.198 21.635 65.198C21.635 65.198 21.635 65.198 21.6252 65.1888C21.6252 65.1888 21.6252 65.1888 21.6154 65.1888C21.6154 65.1796 21.6154 65.1796 21.6154 65.1796C21.6056 65.1704 21.6056 65.1704 21.6056 65.1611C21.6056 65.1611 21.6056 65.1611 21.6056 65.1519V65.1427C21.6056 65.1335 21.6056 65.1335 21.6056 65.1335C21.6056 65.1243 21.6056 65.1243 21.6056 65.1151C21.6056 65.1151 21.6056 65.1151 21.6154 65.1059V65.0967C21.6252 65.0967 21.6252 65.0967 21.6252 65.0875C21.635 65.0875 21.635 65.0875 21.635 65.0783C21.6448 65.0783 21.6448 65.0783 21.6448 65.0783C21.6547 65.0783 21.6547 65.0783 21.6645 65.0783H21.6743H21.6841C21.6939 65.0783 21.6939 65.0783 21.6939 65.0783C21.7037 65.0783 21.7037 65.0783 21.7135 65.0783C21.7135 65.0875 21.7135 65.0875 21.7234 65.0875C21.7234 65.0967 21.7234 65.0967 21.7332 65.0967V65.1059C21.743 65.1151 21.743 65.1151 21.743 65.1151C21.743 65.1243 21.743 65.1243 21.743 65.1335V65.1427Z" fill="#1E1E1E"/>
<path d="M21.743 65.1427V65.1519C21.743 65.1611 21.743 65.1611 21.743 65.1611C21.743 65.1704 21.743 65.1704 21.7332 65.1796C21.7332 65.1796 21.7332 65.1796 21.7332 65.1888C21.7234 65.1888 21.7234 65.1888 21.7234 65.1888C21.7135 65.198 21.7135 65.198 21.7135 65.198C21.7037 65.198 21.7037 65.2072 21.6939 65.2072C21.6939 65.2072 21.6939 65.2072 21.6841 65.2072H21.6743H21.6645C21.6547 65.2072 21.6547 65.2072 21.6448 65.2072C21.6448 65.2072 21.6448 65.198 21.635 65.198C21.635 65.198 21.635 65.198 21.6252 65.1888C21.6252 65.1888 21.6252 65.1888 21.6154 65.1888C21.6154 65.1796 21.6154 65.1796 21.6154 65.1796C21.6056 65.1704 21.6056 65.1704 21.6056 65.1611C21.6056 65.1611 21.6056 65.1611 21.6056 65.1519V65.1427C21.6056 65.1335 21.6056 65.1335 21.6056 65.1335C21.6056 65.1243 21.6056 65.1243 21.6056 65.1151C21.6056 65.1151 21.6056 65.1151 21.6154 65.1059V65.0967C21.6252 65.0967 21.6252 65.0967 21.6252 65.0875C21.635 65.0875 21.635 65.0875 21.635 65.0783C21.6448 65.0783 21.6448 65.0783 21.6448 65.0783C21.6547 65.0783 21.6547 65.0783 21.6645 65.0783H21.6743H21.6841C21.6939 65.0783 21.6939 65.0783 21.6939 65.0783C21.7037 65.0783 21.7037 65.0783 21.7135 65.0783C21.7135 65.0875 21.7135 65.0875 21.7234 65.0875C21.7234 65.0967 21.7234 65.0967 21.7332 65.0967V65.1059C21.743 65.1151 21.743 65.1151 21.743 65.1151C21.743 65.1243 21.743 65.1243 21.743 65.1335V65.1427Z" stroke="#1E1E1E" stroke-linecap="round"/>
<path d="M21.8503 63.0732C21.8994 61.7478 21.8797 60.7721 21.8503 59.686C21.9092 61.0759 21.8405 62.3369 21.8503 63.0732ZM21.8503 63.0732C21.5264 63.3402 21.1339 63.8188 20.8787 63.9845M21.8503 63.0732C21.6737 63.9385 21.3989 63.5059 20.8787 63.9845M20.8787 63.9845C20.2605 63.4046 19.2987 64.3619 19.9072 64.8957M20.8787 63.9845C20.9082 64.3435 19.23 63.9109 19.9072 64.8957M19.9072 64.8957C19.9464 65.7426 19.9072 66.5894 19.9072 68.283C19.8974 67.2245 19.8974 66.0647 19.9072 64.8957Z" stroke="#1E1E1E" stroke-linecap="round"/>
<path d="M20.0936 67.7307C20.2605 67.7215 20.2997 67.7215 20.4469 67.7399C20.5843 67.7675 20.9278 67.7399 20.9474 67.8688C20.9671 67.9976 20.7021 68.3014 20.5549 68.5131C20.4077 68.7248 20.2212 69.0838 20.0838 69.1482C19.9464 69.2126 19.8876 69.0378 19.7305 68.9181C19.5735 68.7892 19.2006 68.5039 19.1221 68.4118C19.0338 68.329 19.2202 68.5131 19.2398 68.4026C19.2595 68.2922 19.1515 67.8964 19.2398 67.7399C19.3282 67.5926 19.652 67.5374 19.7796 67.5006C19.9072 67.473 20.0348 67.519 20.0053 67.5558M19.8876 67.8043C20.1427 67.8964 20.3979 67.9424 20.5255 68.0068C20.653 68.0713 20.653 68.1081 20.653 68.1817C20.6432 68.2462 20.5058 68.283 20.4764 68.4303C20.4469 68.5775 20.6825 68.9641 20.4666 69.0654C20.2507 69.1666 19.4459 69.0562 19.1908 69.0378C18.9454 69.0101 18.8865 69.0286 18.9454 68.9181C19.0043 68.7984 19.5244 68.5039 19.5343 68.3474C19.5441 68.1817 18.8767 68.0805 18.9945 67.9516C19.1221 67.8228 20.1427 67.7215 20.2801 67.5926C20.4077 67.4638 19.8483 67.114 19.7796 67.1784" fill="#1E1E1E"/>
<path d="M20.339 67.8596C20.4862 67.8688 20.4862 67.9608 20.5843 68.0069C20.6923 68.0621 21.0063 68.0621 20.9572 68.1541C20.918 68.2554 20.496 68.4671 20.3193 68.5776C20.1427 68.688 20.0347 68.7708 19.8875 68.8169C19.7501 68.8629 19.5538 68.9089 19.4557 68.8537C19.3576 68.8077 19.387 68.6788 19.2987 68.5039C19.2202 68.3382 18.8669 67.9885 18.9454 67.8412C19.0239 67.6939 19.6029 67.7123 19.7796 67.6203C19.9464 67.5282 19.9366 67.2889 19.9857 67.2613C20.0347 67.2337 20.0249 67.4178 20.074 67.4362M20.5058 67.5743C20.653 67.5558 20.5549 67.2337 20.5156 67.3626C20.4665 67.4822 20.1623 68.0437 20.231 68.3198C20.3095 68.5868 21.0652 68.8997 20.967 68.9733C20.8689 69.047 19.9071 68.7156 19.6225 68.7524C19.3478 68.7893 19.3772 69.2127 19.3085 69.2035C19.23 69.1851 19.2104 68.8721 19.1809 68.6696C19.1515 68.4763 19.0828 68.1357 19.122 68.0069C19.1613 67.878 19.3379 67.8964 19.4263 67.878C19.5146 67.8688 19.5637 67.9885 19.652 67.9332C19.7501 67.8688 19.9464 67.6295 19.9955 67.5374" stroke="#1E1E1E" stroke-linecap="round"/>
<path d="M56.6622 50.2673C56.7308 49.669 56.6916 48.9511 56.6622 48.1963C56.6523 48.8498 56.6523 49.5309 56.6622 50.2673ZM56.6622 50.2673C56.2696 51.4731 57.2412 52.55 58.8703 52.3291M56.6622 50.2673C56.5346 51.1602 56.8584 52.9366 58.8703 52.3291M58.8703 52.3291C58.988 52.3199 59.1254 52.3199 59.3021 52.3291M58.8703 52.3291C59.0469 52.3291 59.2039 52.3199 59.3021 52.3291M59.3021 52.3291C60.1559 52.4028 62.099 53.3324 61.5102 54.4002M59.3021 52.3291C60.097 51.9517 61.1471 53.4429 61.5102 54.4002M61.5102 54.4002C61.5004 55.0077 61.5494 55.5875 61.5102 56.462C61.5396 55.9741 61.5004 55.1641 61.5102 54.4002Z" stroke="#1E1E1E" stroke-linecap="round"/>
<path d="M61.5789 55.836C61.7359 55.7532 62.1579 55.6335 62.256 55.7072C62.3541 55.7716 62.2069 56.0385 62.1579 56.2502C62.1186 56.4711 62.0499 56.8669 61.991 57.005C61.9223 57.1339 61.942 57.0602 61.7948 57.0326C61.6476 56.9958 61.255 56.8301 61.1176 56.8209C60.9802 56.8209 61.0685 57.0787 60.99 56.9958C60.9213 56.913 60.676 56.5172 60.6662 56.3331C60.6662 56.149 60.7839 55.9925 60.941 55.8913C61.098 55.7992 61.5789 55.7624 61.6279 55.7624C61.677 55.7532 61.2648 55.9189 61.2452 55.8821M61.5298 56.0661C61.677 56.0017 61.7849 55.9097 61.8831 55.9097C61.9714 55.9097 62.0008 55.8913 62.099 56.0477C62.1971 56.195 62.5897 56.646 62.4719 56.8301C62.3541 57.0142 61.6279 57.0418 61.3924 57.1431C61.1569 57.2351 61.0685 57.41 61.0587 57.4008C61.0391 57.3824 61.4316 57.1891 61.3139 57.0602C61.1961 56.9406 60.3619 56.8209 60.3619 56.6552C60.3718 56.4804 61.1863 56.241 61.3433 56.0293C61.4905 55.8176 61.2844 55.3666 61.2943 55.3942C61.3041 55.4126 61.3335 56.1122 61.3826 56.1582" fill="#1E1E1E"/>
<path d="M61.6966 55.9925C61.8438 55.9373 62.2658 55.8545 62.3149 55.9005C62.3738 55.9465 62.099 56.149 62.0303 56.2779C61.9616 56.4159 61.9812 56.5724 61.9125 56.7013C61.834 56.8301 61.6868 57.0142 61.5788 57.0603C61.4709 57.1155 61.4415 57.1155 61.2844 57.0234C61.1176 56.9314 60.6367 56.6369 60.6073 56.508C60.568 56.3699 61.0096 56.3607 61.0882 56.2134C61.1667 56.057 60.9606 55.6704 61.0587 55.5783C61.147 55.4863 61.5102 55.652 61.6475 55.6428C61.7849 55.6336 61.8536 55.4955 61.8929 55.5323M61.4611 55.339C61.4513 55.3206 61.2648 55.7532 61.4709 55.9465C61.6672 56.149 62.6191 56.4251 62.6584 56.5172C62.7074 56.6092 61.9125 56.3607 61.7359 56.508C61.5592 56.6461 61.6574 57.2351 61.5887 57.364C61.52 57.4837 61.4415 57.3364 61.3237 57.2444C61.1961 57.1615 60.9704 56.9222 60.8624 56.8117C60.7643 56.7105 60.7447 56.7013 60.7054 56.6276C60.6662 56.5448 60.4993 56.4896 60.6171 56.3515C60.7349 56.2042 61.2844 55.8729 61.412 55.744C61.5396 55.6151 61.3237 55.5323 61.3924 55.5691" stroke="#1E1E1E" stroke-linecap="round"/>
<path d="M41.8749 53.8171C43.0722 54.0012 45.0841 54.0564 46.7033 53.8171C44.8093 53.7434 42.9545 53.7711 41.8749 53.8171ZM41.8749 53.8171C38.4303 54.1484 36.8895 51.6816 37.0563 49.2884M41.8749 53.8171C37.8513 54.7283 36.8993 52.1234 37.0563 49.2884M37.0563 49.2884C37.4096 47.107 37.4587 45.7447 37.0563 40.4061M37.0563 49.2884C37.0171 46.9045 36.7816 44.9623 37.0563 40.4061M37.0563 40.4061C37.9298 37.8564 34.5538 35.3896 32.2279 35.8774M37.0563 40.4061C36.5166 38.0221 35.4469 36.1536 32.2279 35.8774M32.2279 35.8774C30.9423 35.7025 29.6076 35.8682 27.3995 35.8774C29.3329 35.8774 30.9031 35.8958 32.2279 35.8774Z" stroke="#1E1E1E" stroke-linecap="round"/>
<path d="M34.4293 64.0669C33.9288 64.0209 32.8983 64.1405 31.8973 64.0669C32.4567 64.0577 33.075 64.0945 34.4293 64.0669ZM34.4293 64.0669C35.9603 63.441 36.2645 64.0669 36.9613 61.6921M34.4293 64.0669C35.9701 63.8828 35.8719 63.3305 36.9613 61.6921M36.9613 61.6921C36.9809 61.6185 36.9515 61.554 36.9613 61.3976M36.9613 61.6921C36.9613 61.6001 36.9711 61.5172 36.9613 61.3976M36.9613 61.3976C36.078 59.3265 37.344 59.5751 39.5031 59.0228M36.9613 61.3976C36.9613 60.0905 37.7071 58.9215 39.5031 59.0228M39.5031 59.0228C40.3274 59.0228 40.9359 59.0228 42.035 59.0228C40.769 59.0688 40.1017 59.0228 39.5031 59.0228Z" stroke="#1E1E1E" stroke-linecap="round"/>
<path d="M41.9761 58.0195C42.0547 58.1208 42.2607 58.5442 42.4276 58.6822C42.5944 58.8111 42.9673 58.7375 42.9968 58.8019C43.0262 58.8663 42.6827 58.8479 42.5944 59.078C42.5159 59.299 42.6631 60.0261 42.4766 60.1458C42.3 60.2654 41.7308 59.9433 41.4953 59.8144C41.2597 59.6763 41.1027 59.5291 41.0635 59.3542C41.034 59.1885 41.2892 58.9584 41.2892 58.8019C41.2892 58.6546 40.9064 58.6362 41.0438 58.4521C41.191 58.268 41.986 57.7434 42.1233 57.6882C42.2509 57.6421 41.7799 58.0379 41.8289 58.1392M42.0056 57.817C42.2706 57.8538 43.1244 58.3693 43.1734 58.581C43.2225 58.8019 42.4472 58.8663 42.3 59.1057C42.1626 59.3358 42.2607 59.8052 42.3393 59.9801C42.4276 60.1642 43.036 60.155 42.8103 60.1826C42.5748 60.2102 41.142 60.2746 40.9653 60.1458C40.7789 60.0169 41.7014 59.7408 41.7014 59.4094C41.6915 59.078 40.9751 58.2588 40.9457 58.1576C40.9064 58.0563 41.2401 58.8571 41.4756 58.8019C41.7112 58.7467 42.1724 57.9551 42.3393 57.8354C42.5159 57.7158 42.4374 57.9643 42.5159 58.084" fill="#1E1E1E"/>
<path d="M41.878 57.9183C41.9664 57.9091 42.3295 58.0103 42.4865 58.176C42.6533 58.3417 42.7809 58.6915 42.8496 58.9216C42.9281 59.1425 43.095 59.4186 42.9379 59.5291C42.7711 59.6395 42.0253 59.5383 41.8584 59.5751C41.7014 59.6119 42.1136 59.8513 41.9762 59.7316C41.8388 59.6211 41.1911 59.0873 41.0537 58.8756C40.9163 58.6731 41.0242 58.6731 41.1715 58.5074C41.3187 58.3325 41.6818 57.8999 41.9271 57.8539C42.1823 57.8078 42.6632 58.084 42.6828 58.2128C42.7024 58.3417 42.1136 58.627 42.0351 58.6363M42.4669 58.5074C42.6632 58.3785 41.7799 57.7618 41.7897 57.8539C41.7995 57.9459 42.3589 58.8111 42.5552 59.0781C42.7417 59.345 42.9576 59.3542 42.9478 59.4555C42.9379 59.5567 42.6828 59.5659 42.4963 59.704C42.3099 59.8328 42.1038 60.1642 41.8192 60.247C41.5346 60.3299 40.9163 60.4035 40.7887 60.201C40.6611 59.9985 40.9752 59.3726 41.0439 59.032C41.1126 58.6915 40.9752 58.2865 41.1911 58.1668C41.407 58.0472 42.3197 58.3049 42.3491 58.3141C42.3786 58.3233 41.4855 58.1392 41.3874 58.222" stroke="#1E1E1E" stroke-linecap="round"/>
<path d="M38.5952 53.9808C38.4186 54.8644 38.8013 56.8802 38.5952 58.942C38.5756 57.773 38.5854 56.4384 38.5952 53.9808ZM38.5952 53.9808C37.8886 54.2201 38.1732 52.9959 37.712 53.1523M38.5952 53.9808C37.4961 53.4929 37.7905 53.9531 37.712 53.1523M37.712 53.1523C36.6619 53.7046 36.8287 53.1155 36.8287 52.3331M37.712 53.1523C37.025 53.0511 36.6717 53.3917 36.8287 52.3331M36.8287 52.3331C36.7895 51.1918 36.6815 50.2805 36.8287 47.3719C36.9269 49.1576 36.8287 50.8236 36.8287 52.3331Z" stroke="#1E1E1E" stroke-linecap="round"/>
<path d="M44.2575 61.2358C45.8278 61.0333 48.3303 61.0609 51.088 61.2358C49.1939 61.1346 47.2311 61.3831 44.2575 61.2358ZM44.2575 61.2358C43.0995 61.0701 41.7648 61.7697 42.7168 62.6809M44.2575 61.2358C42.7168 62.0366 41.755 62.6349 42.7168 62.6809M42.7168 62.6809C42.7168 63.8867 42.1181 64.034 41.176 64.1261M42.7168 62.6809C42.5499 64.1537 41.3527 64.9821 41.176 64.1261M41.176 64.1261C38.9973 64.3562 37.2308 63.942 34.3456 64.1261C37.0149 64.2917 39.174 64.1997 41.176 64.1261Z" stroke="#1E1E1E" stroke-linecap="round"/>
<path d="M36.3258 37.7418C36.2964 36.4256 36.1786 31.1054 36.1688 29.8259M36.8754 38.3585C36.9539 37.1067 36.9834 31.676 36.846 30.1941" stroke="#1E1E1E" stroke-linecap="round"/>
<path d="M36.0583 29.7726C38.345 29.6253 47.5503 28.9994 49.8566 28.7417M36.8729 29.2664C39.1006 28.9902 47.2657 28.0606 49.3659 27.9409" stroke="#1E1E1E" stroke-linecap="round"/>
<path d="M53.0928 72.4883C53.0928 72.4883 53.1255 72.5343 53.1909 72.6263C53.2629 72.7122 53.3152 72.8074 53.348 72.9117C53.3872 73.0221 53.4036 73.1265 53.397 73.2246C53.397 73.3351 53.3741 73.4425 53.3283 73.5468C53.2891 73.6511 53.2335 73.7462 53.1615 73.8321C53.0895 73.918 53.0045 73.9917 52.9063 74.053C52.8017 74.1144 52.6937 74.1574 52.5825 74.1819C52.4713 74.2065 52.36 74.2157 52.2488 74.2095C52.131 74.1972 52.0166 74.1696 51.9053 74.1267C51.8006 74.0837 51.7025 74.0254 51.6109 73.9518C51.5259 73.8782 51.4539 73.7922 51.395 73.6941C51.3361 73.602 51.2969 73.5008 51.2772 73.3903C51.2576 73.2799 51.2543 73.1755 51.2674 73.0774C51.2805 72.9669 51.3132 72.8626 51.3656 72.7644C51.4179 72.6662 51.4866 72.5772 51.5717 72.4975C51.6567 72.4177 51.7516 72.3533 51.8563 72.3042C51.9609 72.2551 52.0722 72.2244 52.1899 72.2121C52.3012 72.1999 52.4124 72.2029 52.5236 72.2213C52.6414 72.2397 52.7493 72.2766 52.8475 72.3318C52.9521 72.387 53.0437 72.4545 53.1222 72.5343C53.2008 72.6202 53.2629 72.7122 53.3087 72.8104C53.3545 72.9147 53.3839 73.0221 53.397 73.1326C53.4036 73.2369 53.3938 73.3412 53.3676 73.4455C53.3349 73.5499 53.2891 73.6511 53.2302 73.7493C53.1648 73.8413 53.0863 73.9211 52.9947 73.9886C52.9031 74.0561 52.8017 74.1083 52.6904 74.1451C52.5792 74.188 52.4647 74.2095 52.347 74.2095C52.2357 74.2157 52.1245 74.2003 52.0133 74.1635C51.9021 74.1328 51.8006 74.0837 51.7091 74.0162C51.6109 73.9549 51.5618 73.9242 51.5618 73.9242C51.5618 73.9242 51.5357 73.8904 51.4833 73.8229C51.4245 73.7616 51.3787 73.6941 51.3459 73.6204C51.3067 73.5468 51.2805 73.467 51.2674 73.3811C51.2543 73.3013 51.2478 73.2246 51.2478 73.151C51.2543 73.0651 51.2707 72.9853 51.2969 72.9117C51.323 72.8319 51.359 72.7552 51.4048 72.6816C51.4506 72.6141 51.5062 72.5527 51.5717 72.4975C51.6305 72.4361 51.696 72.384 51.7679 72.341C51.8464 72.298 51.9282 72.2643 52.0133 72.2397C52.0918 72.2152 52.1768 72.1999 52.2684 72.1937C52.347 72.1937 52.4287 72.1999 52.5138 72.2121C52.6054 72.2244 52.6904 72.249 52.7689 72.2858C52.8475 72.3165 52.9194 72.3594 52.9849 72.4146C53.0568 72.4637 53.0928 72.4883 53.0928 72.4883Z" fill="#1E1E1E"/>
</g>
</g>
<defs>
<clipPath id="clip0_22_25">
<rect width="82" height="117" fill="white"/>
</clipPath>
<clipPath id="clip1_22_25">
<rect width="67.7154" height="47.8636" fill="white" transform="translate(6.39722 26.5909)"/>
</clipPath>
</defs>
</svg>
