<svg width="84" height="119" viewBox="0 0 84 119" fill="none" xmlns="http://www.w3.org/2000/svg">
<path d="M22.6114 1.90046C39.2752 3.46393 50.0726 4.9516 62.376 1.90046C78.9708 0.877088 80.2405 7.86062 82.2583 21.0412C81.0968 51.8559 81.7661 80.5481 82.2583 98.3149C81.4905 112.585 73.8624 116.413 62.376 117.456C46.4505 115.001 33.7435 116.688 22.6114 117.456C6.92217 120.819 2.27641 114.101 2.72917 98.3149C0.701573 72.6928 4.84535 50.5293 2.72917 21.0412C4.41227 6.50561 7.25682 3.30285 22.6114 1.90046Z" fill="white"/>
<path d="M22.6115 1.90044C34.6393 0.137974 45.3088 2.93328 62.3761 1.90044M22.6115 1.90044C34.9641 1.49299 48.616 1.74883 62.3761 1.90044M22.6115 1.90044C9.12704 1.01921 2.8966 9.23457 2.72928 21.0412M22.6115 1.90044C11.1349 0.46962 2.64069 6.42979 2.72928 21.0412M62.3761 1.90044C76.274 3.42601 83.0261 7.25416 82.2584 21.0412M62.3761 1.90044C74.1972 1.67302 82.5438 10.0495 82.2584 21.0412M82.2584 21.0412C82.3765 49.3733 82.8489 80.3965 82.2584 98.3149M82.2584 21.0412C82.4552 38.8933 83.1245 55.3998 82.2584 98.3149M82.2584 98.3149C83.2722 111.619 76.3724 116.432 62.3761 117.456M82.2584 98.3149C80.3587 109.922 75.083 119.569 62.3761 117.456M62.3761 117.456C50.0629 118.1 38.4386 118.204 22.6115 117.456M62.3761 117.456C54.374 117.399 43.7635 117.332 22.6115 117.456M22.6115 117.456C11.2924 118.109 1.41035 111.704 2.72928 98.3149M22.6115 117.456C10.9479 119.152 0.88869 111.287 2.72928 98.3149M2.72928 98.3149C4.14663 81.6567 2.01076 64.7996 2.72928 21.0412M2.72928 98.3149C1.25287 82.1115 1.43988 64.7333 2.72928 21.0412" stroke="#1E1E1E" stroke-width="2" stroke-linecap="round"/>
<path d="M23.6695 1.73578C31.3862 1.73578 39.1029 1.73578 59.4871 1.73578C61.9281 1.73578 63.1584 2.91076 63.1584 5.27018C63.1584 7.69594 63.1584 10.1122 63.1584 12.3295C63.1584 14.6795 61.9281 15.8544 59.4871 15.8544C45.5794 15.8544 31.6716 15.8544 23.6695 15.8544C21.2187 15.8544 19.9982 14.6795 19.9982 12.3295C19.9982 10.2165 19.9982 8.11287 19.9982 5.27018C19.9982 2.91076 21.2187 1.73578 23.6695 1.73578Z" fill="white"/>
<path d="M23.6695 1.73578C33.9847 1.73578 44.3097 1.73578 59.4871 1.73578M23.6695 1.73578C31.77 1.73578 39.8706 1.73578 59.4871 1.73578M23.6695 1.73578C21.2187 1.73578 19.9982 2.91076 19.9982 5.27018M59.4871 1.73578C61.9281 1.73578 63.1584 2.91076 63.1584 5.27018M63.1584 5.27018C63.1584 7.11793 63.1584 8.97515 63.1584 12.3295M63.1584 5.27018C63.1584 7.03265 63.1584 8.79511 63.1584 12.3295M63.1584 12.3295C63.1584 14.6795 61.9281 15.8544 59.4871 15.8544M59.4871 15.8544C45.6286 15.8544 31.77 15.8544 23.6695 15.8544M59.4871 15.8544C46.1207 15.8544 32.7543 15.8544 23.6695 15.8544M23.6695 15.8544C21.2187 15.8544 19.9982 14.6795 19.9982 12.3295M19.9982 12.3295C19.9982 9.79005 19.9982 7.26006 19.9982 5.27018M19.9982 12.3295C19.9982 10.008 19.9982 7.69594 19.9982 5.27018" stroke="#1E1E1E" stroke-width="2" stroke-linecap="round"/>
<path d="M31.1805 7.27521C31.1187 7.27521 31.0471 7.2866 30.9657 7.30939C30.8843 7.32892 30.7997 7.35333 30.7118 7.38263C30.6239 7.40867 30.536 7.43309 30.4481 7.45587C30.3635 7.4754 30.287 7.48517 30.2186 7.48517C30.147 7.48517 30.09 7.47378 30.0477 7.45099C30.0087 7.42495 29.9794 7.3924 29.9598 7.35333C29.9403 7.31427 29.9289 7.27195 29.9257 7.22638C29.9224 7.18081 29.9208 7.13686 29.9208 7.09454C29.9208 6.97085 29.9566 6.86993 30.0282 6.79181C30.1031 6.71368 30.2089 6.64858 30.3456 6.5965C30.4823 6.54116 30.6467 6.49559 30.8387 6.45978C31.0341 6.42072 31.2538 6.3784 31.4979 6.33282C31.882 6.26121 32.232 6.20587 32.5477 6.16681C32.8667 6.12775 33.1695 6.10008 33.4559 6.0838C33.7456 6.06427 34.0288 6.05288 34.3055 6.04962C34.5822 6.04637 34.8736 6.04474 35.1796 6.04474C35.2707 6.04474 35.3423 6.05613 35.3944 6.07892C35.4465 6.1017 35.4839 6.131 35.5067 6.16681C35.5328 6.20262 35.5474 6.24331 35.5507 6.28888C35.5572 6.33445 35.5604 6.38003 35.5604 6.4256C35.5604 6.47768 35.5523 6.53465 35.536 6.5965C35.523 6.65509 35.4986 6.71043 35.4628 6.76251C35.4302 6.81134 35.3846 6.85203 35.326 6.88458C35.2707 6.91713 35.2024 6.93341 35.121 6.93341H34.7303C34.5741 6.93341 34.4081 6.93504 34.2323 6.93829C34.0565 6.93829 33.8824 6.94155 33.7098 6.94806C33.5373 6.95131 33.3713 6.95782 33.2118 6.96759C33.0555 6.97736 32.9156 6.992 32.7919 7.01154C32.6714 7.02781 32.5754 7.04897 32.5038 7.07501C32.4322 7.10105 32.3964 7.13361 32.3964 7.17267C32.3964 7.21173 32.411 7.27684 32.4403 7.36798C32.4696 7.45913 32.5054 7.55841 32.5477 7.66583C32.59 7.77 32.6324 7.87417 32.6747 7.97833C32.7203 8.07924 32.7577 8.16388 32.787 8.23224C32.813 8.28758 32.8423 8.32501 32.8749 8.34454C32.9074 8.36407 32.9514 8.37384 33.0067 8.37384C33.1402 8.37384 33.2769 8.3657 33.4169 8.34943C33.5568 8.33315 33.6968 8.31525 33.8368 8.29572C33.98 8.27293 34.1216 8.2534 34.2616 8.23712C34.4048 8.22085 34.5464 8.21271 34.6864 8.21271C34.7645 8.21271 34.828 8.22736 34.8768 8.25665C34.9289 8.28269 34.9696 8.31687 34.9989 8.35919C35.0282 8.39825 35.0477 8.44057 35.0575 8.48615C35.0705 8.53172 35.077 8.57078 35.077 8.60333C35.077 8.74982 35.0315 8.86049 34.9403 8.93536C34.8492 9.00698 34.7255 9.06069 34.5692 9.0965C34.413 9.1323 34.2307 9.15672 34.0223 9.16974C33.8173 9.18276 33.5992 9.20066 33.368 9.22345L33.2509 9.23322C33.2085 9.23973 33.176 9.25437 33.1532 9.27716C33.1304 9.29995 33.119 9.32924 33.119 9.36505C33.119 9.37482 33.1206 9.38295 33.1239 9.38947C33.1272 9.39598 33.1288 9.40411 33.1288 9.41388C33.1581 9.5213 33.1923 9.64174 33.2313 9.77521C33.2704 9.90542 33.3062 10.0356 33.3387 10.1658C33.3746 10.296 33.4038 10.4197 33.4266 10.5369C33.4494 10.6541 33.4608 10.7501 33.4608 10.825C33.4608 10.9748 33.4038 11.0887 33.2899 11.1668C33.1792 11.2449 33.0214 11.284 32.8163 11.284C32.7414 11.284 32.6682 11.2661 32.5966 11.2303C32.5282 11.1977 32.4859 11.1359 32.4696 11.0447C32.4175 10.7778 32.3589 10.5174 32.2938 10.2635C32.2287 10.0063 32.1604 9.75079 32.0887 9.49689C32.0594 9.409 32.0025 9.36505 31.9178 9.36505C31.8202 9.36505 31.7095 9.3618 31.5858 9.35529C31.4654 9.34878 31.3417 9.33575 31.2147 9.31622C31.0878 9.29669 30.9641 9.27228 30.8436 9.24298C30.7264 9.21043 30.6206 9.16811 30.5262 9.11603C30.4351 9.06394 30.3602 9.0021 30.3016 8.93048C30.2463 8.85887 30.2186 8.77423 30.2186 8.67657C30.2186 8.61473 30.2333 8.5545 30.2626 8.49591C30.2919 8.43406 30.3293 8.38035 30.3749 8.33478C30.4205 8.28595 30.4693 8.24689 30.5214 8.21759C30.5767 8.18829 30.6288 8.17365 30.6776 8.17365C30.7362 8.17365 30.7997 8.18829 30.868 8.21759C30.9364 8.24689 31.0096 8.27944 31.0878 8.31525C31.1659 8.35105 31.2489 8.38361 31.3368 8.4129C31.4279 8.4422 31.5256 8.45685 31.6298 8.45685C31.6818 8.45685 31.7079 8.42918 31.7079 8.37384C31.7079 8.32176 31.6981 8.2534 31.6786 8.16876C31.6623 8.08413 31.6395 7.99624 31.6102 7.90509C31.5809 7.81069 31.5468 7.71954 31.5077 7.63165C31.4719 7.54051 31.4328 7.46401 31.3905 7.40216C31.3645 7.3631 31.3368 7.33217 31.3075 7.30939C31.2815 7.2866 31.2391 7.27521 31.1805 7.27521ZM35.6044 9.22345C35.6044 9.16811 35.6109 9.10626 35.6239 9.0379C35.6369 8.96954 35.6434 8.89467 35.6434 8.81329C35.6434 8.75795 35.619 8.71564 35.5702 8.68634C35.5246 8.65704 35.4725 8.62449 35.4139 8.58868C35.3553 8.55288 35.3016 8.5073 35.2528 8.45197C35.2072 8.39663 35.1844 8.31687 35.1844 8.21271C35.1844 8.13784 35.204 8.06297 35.243 7.9881C35.2854 7.91323 35.3456 7.84487 35.4237 7.78302C35.6158 7.63979 35.8143 7.51121 36.0194 7.39728C36.2277 7.28335 36.4344 7.18732 36.6395 7.10919C36.8479 7.03107 37.0529 6.97085 37.2548 6.92853C37.4566 6.88621 37.6503 6.86505 37.8358 6.86505C38.1483 6.86505 38.4413 6.92365 38.7147 7.04083C38.9914 7.15476 39.2307 7.31264 39.4325 7.51447C39.6376 7.71303 39.7987 7.94741 39.9159 8.21759C40.0363 8.48452 40.0966 8.77098 40.0966 9.07697C40.0966 9.37644 40.0331 9.66128 39.9061 9.93146C39.7824 10.1984 39.6148 10.4328 39.4032 10.6346C39.1916 10.8364 38.9426 10.9959 38.6561 11.1131C38.3729 11.2335 38.0734 11.2938 37.7577 11.2938C37.4484 11.2938 37.162 11.2417 36.8983 11.1375C36.6346 11.0333 36.4068 10.8901 36.2147 10.7078C36.0227 10.5223 35.8729 10.3042 35.7655 10.0535C35.6581 9.79962 35.6044 9.52293 35.6044 9.22345ZM37.8651 10.4149C38.0018 10.4149 38.1434 10.3872 38.2899 10.3318C38.4364 10.2765 38.5699 10.1968 38.6903 10.0926C38.814 9.98517 38.9149 9.85496 38.993 9.70197C39.0744 9.54897 39.1151 9.37644 39.1151 9.18439C39.1151 8.98907 39.0793 8.80678 39.0077 8.63751C38.9361 8.46824 38.8368 8.32176 38.7098 8.19806C38.5861 8.07111 38.438 7.97182 38.2655 7.90021C38.0962 7.82859 37.9123 7.79279 37.7137 7.79279C37.3524 7.79279 37.0757 7.88719 36.8837 8.07599C36.6916 8.26154 36.5956 8.54799 36.5956 8.93536C36.5956 9.14695 36.6265 9.34389 36.6884 9.52618C36.7535 9.70522 36.843 9.86147 36.9569 9.99493C37.0708 10.1251 37.2043 10.2277 37.3573 10.3026C37.5135 10.3774 37.6828 10.4149 37.8651 10.4149ZM40.8192 6.90411C40.8192 6.85529 40.8404 6.80809 40.8827 6.76251C40.925 6.71368 40.9803 6.67137 41.0487 6.63556C41.1171 6.5965 41.1936 6.56557 41.2782 6.54279C41.3661 6.51674 41.454 6.50372 41.5419 6.50372C41.5907 6.50372 41.6314 6.51674 41.6639 6.54279C41.6997 6.56883 41.7307 6.61928 41.7567 6.69415C41.7828 6.76577 41.8055 6.86831 41.8251 7.00177C41.8479 7.13198 41.869 7.30288 41.8885 7.51447C41.9016 7.57957 41.913 7.63003 41.9227 7.66583C41.9358 7.69838 41.952 7.71466 41.9716 7.71466C42.0009 7.71466 42.0302 7.6642 42.0594 7.56329C42.2971 6.87644 42.6405 6.53302 43.0897 6.53302C43.2981 6.53302 43.4869 6.59812 43.6561 6.72833C43.8287 6.85854 43.9882 7.07176 44.1346 7.36798C44.2844 7.66095 44.426 8.04832 44.5594 8.53009C44.6929 9.00861 44.8264 9.59943 44.9598 10.3026C44.9663 10.3384 44.9712 10.3709 44.9745 10.4002C44.9777 10.4295 44.9794 10.4572 44.9794 10.4832C44.9794 10.5581 44.9615 10.6232 44.9257 10.6785C44.8931 10.7306 44.8492 10.7746 44.7938 10.8104C44.7385 10.8429 44.6766 10.8673 44.6083 10.8836C44.5399 10.9031 44.4716 10.9129 44.4032 10.9129C44.2665 10.9129 44.1672 10.8983 44.1053 10.869C44.0468 10.8397 44.0093 10.7843 43.993 10.7029C43.8986 10.2082 43.8059 9.7687 43.7147 9.38458C43.6268 9.00047 43.5389 8.6782 43.451 8.41779C43.3664 8.15411 43.2818 7.95392 43.1971 7.8172C43.1125 7.68048 43.0279 7.61212 42.9432 7.61212C42.8586 7.61212 42.7788 7.66583 42.704 7.77325C42.6324 7.87742 42.5624 8.04181 42.494 8.26642C42.4257 8.49103 42.3589 8.77586 42.2938 9.12091C42.232 9.46596 42.1718 9.87775 42.1132 10.3563C42.0969 10.4865 42.0318 10.5906 41.9178 10.6688C41.8039 10.7469 41.6591 10.7859 41.4833 10.7859C41.3661 10.7859 41.2766 10.7615 41.2147 10.7127C41.1529 10.6639 41.1187 10.5971 41.1122 10.5125C41.0829 9.83543 41.0503 9.27879 41.0145 8.84259C40.982 8.40314 40.951 8.05157 40.9218 7.7879C40.8925 7.52098 40.868 7.32241 40.8485 7.1922C40.829 7.06199 40.8192 6.96596 40.8192 6.90411ZM45.9462 5.2049C45.9462 5.03237 45.995 4.91193 46.0927 4.84357C46.1903 4.77195 46.3514 4.73615 46.576 4.73615C46.6574 4.73615 46.7258 4.74428 46.7811 4.76056C46.8397 4.77358 46.8885 4.79962 46.9276 4.83868C46.9699 4.87775 47.0025 4.92983 47.0253 4.99493C47.0513 5.05678 47.0725 5.13654 47.0887 5.23419C47.1278 5.53693 47.1701 5.84943 47.2157 6.17169C47.2645 6.49396 47.315 6.81785 47.3671 7.14337C47.3866 7.28986 47.4631 7.3631 47.5966 7.3631C47.6324 7.3631 47.691 7.35984 47.7723 7.35333C47.857 7.34357 47.9563 7.3338 48.0702 7.32404C48.1841 7.31101 48.3062 7.29799 48.4364 7.28497C48.5699 7.27195 48.7017 7.26056 48.8319 7.25079C48.9654 7.23777 49.0907 7.22801 49.2079 7.2215C49.3283 7.21173 49.4341 7.20685 49.5253 7.20685C49.5969 7.20685 49.6538 7.2215 49.6962 7.25079C49.7385 7.27684 49.771 7.31264 49.7938 7.35822C49.8199 7.40053 49.8361 7.44936 49.8427 7.5047C49.8524 7.55678 49.8573 7.61049 49.8573 7.66583C49.8573 7.71466 49.8475 7.76512 49.828 7.8172C49.8117 7.86928 49.7873 7.91648 49.7548 7.9588C49.7255 7.99786 49.688 8.03042 49.6425 8.05646C49.5969 8.0825 49.5448 8.09552 49.4862 8.09552C49.203 8.09552 48.9165 8.10529 48.6268 8.12482C48.3404 8.14109 48.0539 8.16388 47.7675 8.19318C47.621 8.21271 47.5477 8.28595 47.5477 8.4129C47.5477 8.42267 47.5494 8.43569 47.5526 8.45197C47.5559 8.46499 47.5575 8.47638 47.5575 8.48615C47.5966 8.76935 47.6324 9.03465 47.6649 9.28204C47.7007 9.52944 47.73 9.75079 47.7528 9.94611C47.7788 10.1382 47.7984 10.2993 47.8114 10.4295C47.8277 10.5565 47.8358 10.6411 47.8358 10.6834C47.8358 10.8006 47.8244 10.8983 47.8016 10.9764C47.7788 11.0578 47.7414 11.1229 47.6893 11.1717C47.6372 11.2238 47.5673 11.2596 47.4794 11.2791C47.3947 11.3019 47.2873 11.3133 47.1571 11.3133C47.0334 11.3133 46.9423 11.284 46.8837 11.2254C46.8251 11.1668 46.7925 11.0773 46.786 10.9568C46.7665 10.5727 46.7356 10.187 46.6932 9.79962C46.6509 9.409 46.6021 9.02 46.5468 8.63263C46.5175 8.49266 46.4442 8.42267 46.327 8.42267C46.3173 8.42267 46.3059 8.4243 46.2928 8.42755C46.2798 8.43081 46.2684 8.43243 46.2587 8.43243C46.0568 8.47801 45.8664 8.52358 45.6874 8.56915C45.5083 8.61473 45.3407 8.66355 45.1844 8.71564C45.0966 8.74493 45.0184 8.76609 44.9501 8.77911C44.8817 8.78888 44.8199 8.79376 44.7645 8.79376C44.6897 8.79376 44.6343 8.76121 44.5985 8.69611C44.5627 8.62775 44.5448 8.54311 44.5448 8.4422C44.5448 8.40639 44.5481 8.3657 44.5546 8.32013C44.5611 8.2713 44.5741 8.2241 44.5936 8.17853C44.6099 8.1297 44.6359 8.08575 44.6718 8.04669C44.7043 8.00437 44.7499 7.97019 44.8085 7.94415C44.9452 7.88881 45.1275 7.83185 45.3553 7.77325C45.5832 7.71141 45.8404 7.65444 46.1268 7.60236C46.1919 7.58608 46.2424 7.56004 46.2782 7.52423C46.3173 7.48517 46.3368 7.4282 46.3368 7.35333C46.3368 7.33706 46.3368 7.32078 46.3368 7.3045C46.3368 7.28497 46.3335 7.26544 46.327 7.24591C46.2749 6.94643 46.2245 6.67462 46.1757 6.43048C46.1301 6.18309 46.0894 5.9715 46.0536 5.79572C46.021 5.61993 45.995 5.48159 45.9755 5.38068C45.9559 5.27976 45.9462 5.22117 45.9462 5.2049ZM53.7294 9.77521C53.8238 9.69383 53.9165 9.65314 54.0077 9.65314C54.0598 9.65314 54.107 9.66616 54.1493 9.6922C54.1916 9.71824 54.2388 9.75893 54.2909 9.81427C54.3397 9.88914 54.3739 9.95099 54.3934 9.99982C54.4162 10.0454 54.4276 10.091 54.4276 10.1365C54.4276 10.2342 54.3788 10.327 54.2811 10.4149C54.1249 10.5451 53.9556 10.6623 53.7733 10.7664C53.591 10.8673 53.4006 10.9536 53.202 11.0252C53.0035 11.0968 52.7984 11.1505 52.5868 11.1863C52.3752 11.2254 52.1652 11.2449 51.9569 11.2449C51.6932 11.2449 51.4458 11.2108 51.2147 11.1424C50.9836 11.0773 50.7769 10.9829 50.5946 10.8592C50.4156 10.7355 50.2642 10.5874 50.1405 10.4149C50.0168 10.2391 49.9289 10.0421 49.8768 9.82404C49.8475 9.73289 49.8199 9.6743 49.7938 9.64825C49.771 9.61896 49.732 9.60431 49.6766 9.60431C49.5562 9.60431 49.4634 9.57501 49.3983 9.51642C49.3332 9.45782 49.3007 9.37319 49.3007 9.26251C49.3007 9.21694 49.3039 9.18764 49.3104 9.17462L49.3202 9.07697C49.3365 8.95978 49.3674 8.87514 49.413 8.82306C49.4618 8.77098 49.5367 8.74493 49.6376 8.74493H49.7108C49.8475 8.74493 49.9436 8.68146 49.9989 8.5545C50.0998 8.3299 50.2284 8.12482 50.3846 7.93927C50.5409 7.75372 50.7167 7.59585 50.912 7.46564C51.1073 7.33217 51.3156 7.22963 51.537 7.15802C51.7616 7.08315 51.9895 7.04572 52.2206 7.04572C52.4615 7.04572 52.6861 7.08152 52.8944 7.15314C53.106 7.2215 53.2899 7.31753 53.4462 7.44122C53.6024 7.56492 53.7245 7.70978 53.8124 7.87579C53.9035 8.04181 53.9491 8.22085 53.9491 8.4129C53.9491 8.54637 53.9231 8.66844 53.871 8.77911C53.8189 8.88979 53.744 8.98745 53.6464 9.07208C53.5487 9.15346 53.4299 9.22019 53.2899 9.27228C53.1532 9.32436 52.9969 9.35854 52.8212 9.37482L51.1268 9.54572C51.0617 9.54572 51.008 9.56199 50.9657 9.59454C50.9266 9.6271 50.9071 9.67104 50.9071 9.72638C50.9071 9.81101 50.938 9.8924 50.9999 9.97052C51.065 10.0486 51.1496 10.1186 51.2538 10.1805C51.3612 10.2391 51.4833 10.2863 51.62 10.3221C51.76 10.3579 51.9032 10.3758 52.0497 10.3758C52.1897 10.3758 52.3329 10.3628 52.4794 10.3367C52.6291 10.3074 52.7756 10.2667 52.9188 10.2147C53.0653 10.1626 53.2069 10.1007 53.3436 10.0291C53.4803 9.95424 53.6089 9.86961 53.7294 9.77521ZM52.6405 8.51544C52.6893 8.50568 52.7316 8.48289 52.7675 8.44708C52.8033 8.40802 52.8212 8.36082 52.8212 8.30548C52.8212 8.25665 52.8033 8.21108 52.7675 8.16876C52.7316 8.12644 52.6828 8.08901 52.621 8.05646C52.5591 8.02065 52.4875 7.99298 52.4061 7.97345C52.3247 7.95392 52.2385 7.94415 52.1473 7.94415C52.0139 7.94415 51.8772 7.96368 51.7372 8.00275C51.5972 8.04181 51.4703 8.09389 51.3563 8.159C51.2424 8.22085 51.1496 8.29083 51.078 8.36896C51.0064 8.44383 50.9706 8.5187 50.9706 8.59357C50.9706 8.66844 51.0162 8.70587 51.1073 8.70587C51.1626 8.70587 51.2522 8.69936 51.3759 8.68634C51.4996 8.67332 51.6363 8.65867 51.786 8.6424C51.9358 8.62286 52.0871 8.6017 52.2401 8.57892C52.3931 8.55613 52.5266 8.53497 52.6405 8.51544Z" fill="#1E1E1E"/>
<path d="M75.7079 33.3304C75.6499 32.8367 75.4093 30.8576 75.3427 30.3594" stroke="#1E1E1E" stroke-linecap="round"/>
<g clip-path="url(#clip0_55_28)">
<path d="M11.1573 85.4393C21.9745 85.4393 65.2627 85.4393 76.0799 85.4393" stroke="#1E1E1E" stroke-width="2" stroke-linecap="round"/>
<path d="M35.9903 50.186C35.065 49.0205 31.2264 45.9599 30.5079 43.6004C29.7894 41.2505 32.9095 38.73 31.6693 36.0578C30.439 33.3857 24.4448 29.0838 23.0963 27.5772M35.4391 51.1715C34.6517 50.0533 32.1811 46.7653 31.4921 44.1216C30.7933 41.4779 32.6437 38.2183 31.2658 35.3093C29.8779 32.4003 24.5235 28.0225 23.1849 26.6486" stroke="#1E1E1E" stroke-linecap="round"/>
<path d="M40.6107 49.6395C41.9296 48.2561 45.9553 43.1677 49.1739 41.3294C52.4023 39.4912 56.4476 38.6668 59.9418 38.6194C63.4458 38.5815 68.5443 40.6851 70.1881 41.0831M41.3588 50.625C42.5793 49.1373 45.6502 42.8076 48.6817 40.6756C51.7231 38.5341 56.2016 37.6624 59.5776 37.7855C62.9438 37.9182 67.3041 40.903 68.9085 41.4621" stroke="#1E1E1E" stroke-linecap="round"/>
<path d="M42.6948 54.4872C44.496 55.2168 49.9784 58.0974 53.1773 58.0879C56.3762 58.0784 59.6538 55.5485 61.8586 54.4398C64.0633 53.3312 65.648 51.9572 66.4059 51.436M43.6102 54.2977C45.372 54.9041 49.7028 57.2446 52.7245 57.3488C55.7463 57.4531 59.457 55.8327 61.7601 54.9041C64.0633 53.9755 65.8842 52.4025 66.5634 51.7866" stroke="#1E1E1E" stroke-linecap="round"/>
<path d="M33.8519 56.7865C31.155 56.3885 21.4894 56.7201 17.6409 54.5407C13.7924 52.3614 11.9026 45.5294 10.7609 43.6912M33.1629 56.5117C30.4561 56.4074 21.2433 57.1655 17.4637 55.0998C13.6743 53.0341 11.5483 46.0222 10.4656 44.1365" stroke="#1E1E1E" stroke-linecap="round"/>
<path d="M38.7415 57.1316C37.1863 59.2447 28.9972 66.3609 28.8791 70.3501C28.761 74.3488 36.5958 79.1909 38.0131 81.1049M38.3281 56.582C36.7139 58.733 28.6035 66.7494 28.5051 70.8997C28.4066 75.05 36.2808 79.7973 37.7375 81.4745" stroke="#1E1E1E" stroke-linecap="round"/>
<path fill-rule="evenodd" clip-rule="evenodd" d="M41.2971 45.9516L45.1037 44.6475L44.0788 48.5496L41.4179 45.6519" fill="#1E1E1E"/>
<path d="M41.5387 45.9986C42.8542 45.5352 44.2777 44.9481 45.0638 44.8264M41.5387 45.9986C42.8316 45.5169 44.1928 45.1774 45.0638 44.8264M41.5387 45.9986C42.2698 46.6149 43.436 47.4962 44.3751 48.4174M41.5387 45.9986C42.4605 46.7195 43.4181 47.5314 44.3751 48.4174M45.0638 44.8264C45.051 45.6481 44.8192 46.4417 44.3751 48.4174M45.0638 44.8264C44.8845 45.9854 44.7041 47.1311 44.3751 48.4174" stroke="#1E1E1E" stroke-linecap="round"/>
<path fill-rule="evenodd" clip-rule="evenodd" d="M47.9738 53.4374L49.5964 56.1797L46.3585 56.538L48.0434 53.9957" fill="#1E1E1E"/>
<path d="M47.7738 53.4504C48.5635 54.3641 48.9073 55.3728 49.8041 56.419M47.7738 53.4504C48.2554 54.289 48.8401 54.984 49.8041 56.419M47.7738 53.4504C46.7847 55.3683 46.379 56.1035 46.042 56.7431M47.7738 53.4504C46.9569 55.1504 46.5086 55.972 46.042 56.7431M49.8041 56.419C48.478 56.593 46.9265 56.6553 46.042 56.7431M49.8041 56.419C48.3906 56.6171 46.901 56.7071 46.042 56.7431" stroke="#1E1E1E" stroke-linecap="round"/>
<path fill-rule="evenodd" clip-rule="evenodd" d="M37.9162 61.7265L34.2623 63.4787L34.107 59.6646L36.9802 61.7523" fill="#1E1E1E"/>
<path d="M37.6243 61.8681C36.5036 62.1173 35.3516 62.768 34.1324 63.1363M37.6243 61.8681C36.7801 62.2072 35.8284 62.464 34.1324 63.1363M37.6243 61.8681C36.1426 60.6743 35.3565 60.0489 34.7224 59.5275M37.6243 61.8681C36.0229 60.5463 35.2658 60.0525 34.7224 59.5275M34.1324 63.1363C34.2856 62.2688 34.3527 61.445 34.7224 59.5275M34.1324 63.1363C34.252 62.0973 34.5283 61.1416 34.7224 59.5275" stroke="#1E1E1E" stroke-linecap="round"/>
<path d="M39.3615 47.2261C39.3615 47.2261 39.3943 47.2734 39.46 47.3682C39.5321 47.4566 39.5846 47.5546 39.6174 47.6619C39.6568 47.7757 39.6732 47.883 39.6667 47.9841C39.6667 48.0978 39.6437 48.2084 39.5978 48.3158C39.5584 48.4232 39.5026 48.5211 39.4304 48.6095C39.3583 48.698 39.273 48.7738 39.1745 48.8369C39.0695 48.9001 38.9613 48.9443 38.8497 48.9696C38.7382 48.9949 38.6266 49.0043 38.5151 48.998C38.397 48.9854 38.2821 48.957 38.1706 48.9127C38.0656 48.8685 37.9672 48.8085 37.8753 48.7327C37.79 48.6569 37.7178 48.5685 37.6587 48.4674C37.5997 48.3726 37.5603 48.2684 37.5406 48.1547C37.521 48.041 37.5177 47.9336 37.5308 47.8325C37.5439 47.7188 37.5767 47.6114 37.6292 47.5103C37.6817 47.4093 37.7506 47.3177 37.8359 47.2355C37.9212 47.1534 38.0164 47.0871 38.1214 47.0366C38.2263 46.986 38.3379 46.9544 38.456 46.9418C38.5676 46.9292 38.6791 46.9323 38.7907 46.9513C38.9088 46.9702 39.017 47.0081 39.1155 47.065C39.2205 47.1218 39.3123 47.1913 39.3911 47.2734C39.4698 47.3619 39.5321 47.4566 39.5781 47.5577C39.624 47.6651 39.6535 47.7757 39.6667 47.8894C39.6732 47.9968 39.6634 48.1041 39.6371 48.2115C39.6043 48.3189 39.5584 48.4232 39.4993 48.5242C39.4337 48.619 39.355 48.7011 39.2631 48.7706C39.1712 48.8401 39.0695 48.8938 38.958 48.9317C38.8464 48.9759 38.7316 48.998 38.6135 48.998C38.5019 49.0043 38.3904 48.9885 38.2788 48.9506C38.1673 48.919 38.0656 48.8685 37.9737 48.799C37.8753 48.7359 37.8261 48.7043 37.8261 48.7043C37.8261 48.7043 37.7998 48.6695 37.7473 48.6C37.6883 48.5369 37.6423 48.4674 37.6095 48.3916C37.5702 48.3158 37.5439 48.2336 37.5308 48.1452C37.5177 48.0631 37.5111 47.9841 37.5111 47.9083C37.5177 47.8199 37.5341 47.7378 37.5603 47.6619C37.5866 47.5798 37.6227 47.5009 37.6686 47.4251C37.7145 47.3556 37.7703 47.2924 37.8359 47.2355C37.895 47.1724 37.9606 47.1187 38.0328 47.0745C38.1115 47.0302 38.1935 46.9955 38.2788 46.9702C38.3576 46.945 38.4429 46.9292 38.5348 46.9229C38.6135 46.9229 38.6955 46.9292 38.7808 46.9418C38.8727 46.9544 38.958 46.9797 39.0367 47.0176C39.1155 47.0492 39.1876 47.0934 39.2533 47.1503C39.3254 47.2008 39.3615 47.2261 39.3615 47.2261Z" fill="#1E1E1E"/>
<path d="M37.2592 48.6125C38.2927 48.4135 40.0939 48.5366 41.1569 49.001C42.2297 49.4747 43.214 50.517 43.6766 51.4362C44.1294 52.3553 44.2869 53.445 43.8833 54.5158C43.4798 55.5865 42.2691 57.2163 41.2455 57.8796C40.2218 58.5334 38.8537 58.7419 37.7415 58.486C36.6391 58.2397 35.2906 57.2542 34.6115 56.373C33.9225 55.4917 33.6272 54.2031 33.6469 53.1986C33.6764 52.1942 34.0505 51.1235 34.7394 50.337C35.4383 49.5411 37.2592 48.8683 37.8202 48.4608C38.3911 48.0534 38.0564 47.8734 38.1253 47.8734M38.4403 47.9586C39.6903 47.8354 41.777 48.4135 42.8006 49.2094C43.8341 50.0148 44.464 51.5878 44.592 52.7533C44.72 53.9188 44.2377 55.378 43.5782 56.2024C42.9286 57.0173 41.8065 57.33 40.6746 57.6617C39.5427 57.9838 37.8694 58.5618 36.7966 58.1354C35.7139 57.7185 34.7985 56.0319 34.2276 55.1412C33.6567 54.241 33.1449 53.843 33.3812 52.7817C33.6272 51.7205 34.6607 49.56 35.6647 48.7641C36.6588 47.9681 38.8635 48.0913 39.395 47.9871C39.9364 47.8923 38.962 47.9965 38.8832 48.1766" fill="white"/>
<path d="M40.2514 48.5082C41.3537 48.6883 42.84 48.982 43.4995 49.759C44.1491 50.536 44.2869 51.9763 44.1589 53.1892C44.031 54.4021 43.4601 56.1266 42.7219 57.0173C41.9837 57.9081 40.901 58.3818 39.7297 58.5145C38.5486 58.6566 36.7277 58.4387 35.645 57.8512C34.5721 57.2542 33.5288 56.1645 33.2532 54.9611C32.9874 53.7672 33.4304 51.7868 34.0406 50.6687C34.6509 49.5506 35.8418 48.6409 36.9245 48.2334C38.0072 47.8355 39.9364 48.2334 40.5466 48.2429C41.1471 48.2524 40.6746 48.2145 40.5565 48.2808M38.2533 47.4564C39.0998 47.2954 39.7002 48.3851 40.6549 48.9157C41.5998 49.4463 43.3223 49.56 43.9424 50.6497C44.5723 51.73 44.8282 54.3263 44.405 55.4065C43.9818 56.4772 42.4857 56.5246 41.4128 57.1121C40.3399 57.6901 39.0604 58.9314 37.9679 58.903C36.8753 58.8746 35.6351 57.8228 34.8379 56.9226C34.0406 56.0224 33.263 54.6674 33.1941 53.4829C33.1351 52.2985 33.7355 50.6592 34.454 49.8159C35.1725 48.982 37.023 48.7451 37.4954 48.4419C37.9679 48.1482 37.1903 48.0724 37.3084 48.0155" stroke="#1E1E1E" stroke-linecap="round"/>
<path fill-rule="evenodd" clip-rule="evenodd" d="M35.8416 52.647C36.3337 52.2585 37.8199 50.3539 38.8141 50.3065C39.818 50.2592 41.3436 52.0122 41.8554 52.3533" fill="white"/>
<path d="M35.8416 52.647C36.3337 52.2585 37.8199 50.3539 38.8141 50.3065C39.818 50.2592 41.3436 52.0122 41.8554 52.3533" stroke="#1E1E1E" stroke-width="0.5" stroke-linecap="round"/>
<path fill-rule="evenodd" clip-rule="evenodd" d="M35.9935 52.5295C36.4857 52.918 37.9719 54.8226 38.966 54.87C39.97 54.9174 41.4956 53.1644 42.0074 52.8233" fill="white"/>
<path d="M35.9935 52.5295C36.4857 52.918 37.9719 54.8226 38.966 54.87C39.97 54.9174 41.4956 53.1644 42.0074 52.8233" stroke="#1E1E1E" stroke-width="0.5" stroke-linecap="round"/>
<path d="M38.2472 52.5366C38.5326 52.5461 39.6842 52.565 39.9697 52.5745" stroke="#1E1E1E" stroke-width="0.5" stroke-linecap="round"/>
<path d="M38.9847 51.6301C38.9747 51.9239 38.9547 53.1083 38.9447 53.4021" stroke="#1E1E1E" stroke-width="0.5" stroke-linecap="round"/>
<path fill-rule="evenodd" clip-rule="evenodd" d="M31.5168 57.3754L28.0604 56.4605L30.3789 54.6424L31.0989 57.5106" fill="#1E1E1E"/>
<path d="M31.7029 57.9086C30.9975 57.6291 30.1946 57.323 28.1618 56.8088M31.7029 57.9086C30.7505 57.5681 29.86 57.3508 28.1618 56.8088M31.7029 57.9086C31.4328 56.7446 31.0935 55.3904 30.8757 54.3125M31.7029 57.9086C31.5141 57.1378 31.2222 55.7336 30.8757 54.3125M28.1618 56.8088C28.7756 56.148 29.456 55.6682 30.8757 54.3125M28.1618 56.8088C28.6736 56.2205 29.3707 55.7662 30.8757 54.3125" stroke="#1E1E1E" stroke-linecap="round"/>
<path fill-rule="evenodd" clip-rule="evenodd" d="M32.2988 48.4979L30.5294 45.0696L34.7893 45.4878L32.0174 48.3149" fill="#1E1E1E"/>
<path d="M32.0461 48.7634C31.9351 47.9477 31.6595 47.2822 31.0905 45.3015M32.0461 48.7634C31.8328 48.0767 31.6248 47.2895 31.0905 45.3015M32.0461 48.7634C32.8134 48.0269 33.6905 47.1948 34.7597 46.1986M32.0461 48.7634C32.9102 47.9851 33.8137 47.0721 34.7597 46.1986M31.0905 45.3015C32.1885 45.6116 33.3572 45.9875 34.7597 46.1986M31.0905 45.3015C31.951 45.5619 32.802 45.6684 34.7597 46.1986" stroke="#1E1E1E" stroke-linecap="round"/>
<path d="M69.6698 36.8602C70.1726 35.9476 72.1827 32.3182 72.6808 31.4139" stroke="#1E1E1E" stroke-linecap="round"/>
<path d="M72.5378 31.6056C72.9991 31.3787 74.8528 30.4757 75.3226 30.2532" stroke="#1E1E1E" stroke-linecap="round"/>
<path d="M72.6909 38.5193C73.2106 37.6155 75.2716 34.0127 75.7867 33.1173" stroke="#1E1E1E" stroke-linecap="round"/>
<path d="M67.0528 36.212C68.291 36.8355 73.2361 39.3038 74.4791 39.9189" stroke="#1E1E1E" stroke-linecap="round"/>
<path d="M71.0267 38.3991C70.6787 39.0368 69.2901 41.6004 68.9374 42.2464" stroke="#1E1E1E" stroke-linecap="round"/>
<path d="M71.3853 74.2928C71.0281 75.2669 69.597 79.1424 69.2432 80.1076" stroke="#1E1E1E" stroke-linecap="round"/>
<path d="M69.3575 79.8964C68.9355 80.1869 67.2385 81.3458 66.8073 81.6331" stroke="#1E1E1E" stroke-linecap="round"/>
<path d="M68.1423 73.0818C67.7671 74.0497 66.2821 77.9063 65.9102 78.8652" stroke="#1E1E1E" stroke-linecap="round"/>
<path d="M65.9723 78.6432C66.0999 79.1232 66.6195 81.0464 66.7562 81.5296" stroke="#1E1E1E" stroke-linecap="round"/>
<path d="M74.0731 74.5599C72.7526 74.1198 67.4822 72.3844 66.1582 71.9535" stroke="#1E1E1E" stroke-linecap="round"/>
<path d="M69.806 72.9637C70.0525 72.2835 71.0328 69.5507 71.2826 68.8616" stroke="#1E1E1E" stroke-linecap="round"/>
<path d="M38.3786 78.0467C39.1689 77.3481 42.3217 74.5734 43.1046 73.8812" stroke="#1E1E1E" stroke-linecap="round"/>
<path d="M42.9084 74.0018C43.4204 73.9411 45.4753 73.7052 45.994 73.6515" stroke="#1E1E1E" stroke-linecap="round"/>
<path d="M40.6495 80.5812C41.453 79.8968 44.6455 77.1645 45.4417 76.4863" stroke="#1E1E1E" stroke-linecap="round"/>
<path d="M45.2965 76.6614C45.4122 76.1774 45.8683 74.2345 45.9774 73.7435" stroke="#1E1E1E" stroke-linecap="round"/>
<path d="M36.1366 76.591C37.0871 77.5778 40.8904 81.4983 41.8482 82.4788" stroke="#1E1E1E" stroke-linecap="round"/>
<path d="M39.1212 79.9329C38.5723 80.4221 36.3757 82.3924 35.8195 82.888" stroke="#1E1E1E" stroke-linecap="round"/>
<path d="M11.6398 41.7209C12.1425 40.8083 14.1527 37.1789 14.6508 36.2747" stroke="#1E1E1E" stroke-linecap="round"/>
<path d="M14.5078 36.4663C14.9691 36.2395 16.8227 35.3364 17.2926 35.114" stroke="#1E1E1E" stroke-linecap="round"/>
<path d="M14.6606 43.3801C15.1803 42.4763 17.2414 38.8735 17.7564 37.978" stroke="#1E1E1E" stroke-linecap="round"/>
<path d="M17.6638 38.1911C17.6105 37.6974 17.3889 35.7182 17.327 35.2201" stroke="#1E1E1E" stroke-linecap="round"/>
<path d="M9.02269 41.0727C10.2609 41.6963 15.206 44.1645 16.449 44.7796" stroke="#1E1E1E" stroke-linecap="round"/>
<path d="M12.9965 43.2598C12.6484 43.8975 11.2599 46.4611 10.9071 47.1072" stroke="#1E1E1E" stroke-linecap="round"/>
<path d="M19.2109 27.07C18.339 26.4681 14.8735 24.0641 14.0096 23.4678" stroke="#1E1E1E" stroke-linecap="round"/>
<path d="M14.1671 23.6269C14.0024 23.1569 13.3497 21.2694 13.1909 20.7917" stroke="#1E1E1E" stroke-linecap="round"/>
<path d="M21.3238 24.4125C20.4637 23.7952 17.0335 21.3447 16.1814 20.733" stroke="#1E1E1E" stroke-linecap="round"/>
<path d="M16.3893 20.8282C15.8734 20.8198 13.8039 20.7941 13.2821 20.7934" stroke="#1E1E1E" stroke-linecap="round"/>
<path d="M18.1875 29.4802C18.9971 28.3829 22.208 23.9979 23.0097 22.895" stroke="#1E1E1E" stroke-linecap="round"/>
<path d="M20.9768 25.9858C21.5864 26.4031 24.0387 28.07 24.6563 28.4928" stroke="#1E1E1E" stroke-linecap="round"/>
<path d="M41.3365 57.9307C42.1043 59.4658 42.9114 65.3786 46.4843 66.6767C50.0473 67.9654 58.5514 65.1511 62.7543 65.7102C66.9473 66.2598 70.3036 69.2446 71.6619 70.0027M42.1633 57.5896C42.813 58.992 42.5275 64.4215 45.9331 65.8713C49.3288 67.3305 58.2365 65.5207 62.5771 66.2977C66.9177 67.0747 70.4611 69.8416 71.9867 70.5522" stroke="#1E1E1E" stroke-linecap="round"/>
<path fill-rule="evenodd" clip-rule="evenodd" d="M44.0958 58.7614L42.9007 63.1332L40.4912 60.3166L44.2788 58.6119" fill="#1E1E1E"/>
<path d="M44.2711 59.0837C43.9426 59.8456 43.7139 60.6437 43.185 62.5115M44.2711 59.0837C43.9329 60.2012 43.5875 61.291 43.185 62.5115M44.2711 59.0837C42.6352 59.4164 41.6366 59.5256 40.576 59.8257M44.2711 59.0837C42.8183 59.3453 41.6817 59.5841 40.576 59.8257M43.185 62.5115C42.572 61.8066 41.9042 61.2417 40.576 59.8257M43.185 62.5115C42.2654 61.5523 41.3577 60.6788 40.576 59.8257" stroke="#1E1E1E" stroke-linecap="round"/>
<path d="M69.524 54.4735C70.0007 55.4095 71.8948 59.1491 72.3673 60.0766" stroke="#1E1E1E" stroke-linecap="round"/>
<path d="M72.2826 59.855C72.1957 60.3493 71.8739 62.3357 71.8 62.8346" stroke="#1E1E1E" stroke-linecap="round"/>
<path d="M66.3226 55.8682C66.782 56.8123 68.624 60.5758 69.0792 61.5113" stroke="#1E1E1E" stroke-linecap="round"/>
<path d="M68.9423 61.3078C69.4003 61.5527 71.2232 62.5576 71.6768 62.8152" stroke="#1E1E1E" stroke-linecap="round"/>
<path d="M71.6282 52.7981C70.3678 53.4006 65.3263 55.8324 64.0703 56.4436" stroke="#1E1E1E" stroke-linecap="round"/>
<path d="M67.4132 54.6282C67.0768 53.9741 65.7225 51.3618 65.386 50.7077" stroke="#1E1E1E" stroke-linecap="round"/>
</g>
<defs>
<clipPath id="clip0_55_28">
<rect width="70.8675" height="75.8049" fill="white" transform="translate(5.93225 10.4915)"/>
</clipPath>
</defs>
</svg>
