<svg width="85" height="126" viewBox="0 0 85 126" fill="none" xmlns="http://www.w3.org/2000/svg">
<path d="M22.1387 2.02914C29.4687 3.43914 44.7087 -0.310858 62.5387 2.02914C76.2687 4.45914 79.9387 9.13914 82.7387 22.2291C84.2087 52.6691 85.6787 81.1091 82.7387 103.779C82.8387 119.019 74.0187 126.519 62.5387 123.979C46.7787 122.899 38.2887 127.309 22.1387 123.979C6.78873 124.669 2.24873 116.489 1.93873 103.779C6.64873 80.4691 6.12873 64.6691 1.93873 22.2291C-0.671271 5.80914 6.47873 0.849141 22.1387 2.02914Z" fill="white"/>
<path d="M22.1387 2.02916C37.2587 3.37916 54.2587 3.88916 62.5387 2.02916M22.1387 2.02916C35.2887 1.17916 49.1387 1.08916 62.5387 2.02916M22.1387 2.02916C8.90873 0.389157 1.31873 9.39916 1.93873 22.2292M22.1387 2.02916C10.5387 3.27916 1.50873 7.65916 1.93873 22.2292M62.5387 2.02916C75.8987 3.41916 82.0087 7.18916 82.7387 22.2292M62.5387 2.02916C76.0887 1.23916 80.8487 7.17916 82.7387 22.2292M82.7387 22.2292C81.6687 44.7092 80.8787 70.1592 82.7387 103.779M82.7387 22.2292C83.9987 41.9792 82.8087 62.7692 82.7387 103.779M82.7387 103.779C81.6087 116.679 76.4587 124.799 62.5387 123.979M82.7387 103.779C83.2487 117.819 77.9887 122.999 62.5387 123.979M62.5387 123.979C53.1187 125.179 45.6187 122.419 22.1387 123.979M62.5387 123.979C50.4987 124.309 40.1287 123.329 22.1387 123.979M22.1387 123.979C6.90873 122.479 0.0487301 117.149 1.93873 103.779M22.1387 123.979C9.14873 124.729 -0.33127 116.539 1.93873 103.779M1.93873 103.779C3.59873 85.1692 2.28873 65.1492 1.93873 22.2292M1.93873 103.779C1.99873 72.7392 1.91873 41.0592 1.93873 22.2292" stroke="#1E1E1E" stroke-width="2" stroke-linecap="round"/>
<path d="M10.754 90.2517C21.744 90.2517 65.724 90.2517 76.714 90.2517" stroke="#1E1E1E" stroke-width="2" stroke-linecap="round"/>
<path d="M10.0228 105.849C10.0128 104.949 9.99279 101.339 9.98279 100.439" stroke="#1E1E1E" stroke-linecap="round"/>
<path d="M9.95081 100.642C10.2008 100.282 11.2108 98.8616 11.4608 98.5016" stroke="#1E1E1E" stroke-linecap="round"/>
<path d="M12.9536 105.913C12.9636 105.013 12.9836 101.403 12.9936 100.503" stroke="#1E1E1E" stroke-linecap="round"/>
<path d="M13.0256 100.706C12.7756 100.346 11.7656 98.9258 11.5156 98.5658" stroke="#1E1E1E" stroke-linecap="round"/>
<path d="M7.81055 106.399C8.99055 106.379 13.6905 106.299 14.8605 106.279" stroke="#1E1E1E" stroke-linecap="round"/>
<path d="M11.669 106.49C11.679 107.12 11.719 109.66 11.729 110.29" stroke="#1E1E1E" stroke-linecap="round"/>
<path d="M53.0803 101.571C53.4403 101.201 54.8803 99.7008 55.2403 99.3208" stroke="#1E1E1E" stroke-linecap="round"/>
<path d="M55.2358 99.2806C55.6358 99.6106 57.2158 100.931 57.6158 101.261" stroke="#1E1E1E" stroke-linecap="round"/>
<path d="M57.7056 101.526C57.0156 102.586 54.2656 106.836 53.5756 107.906" stroke="#1E1E1E" stroke-linecap="round"/>
<path d="M53.1476 101.571C52.7876 101.201 51.3476 99.7008 50.9876 99.3208" stroke="#1E1E1E" stroke-linecap="round"/>
<path d="M50.9921 99.2806C50.5921 99.6106 49.0121 100.931 48.6121 101.261" stroke="#1E1E1E" stroke-linecap="round"/>
<path d="M48.5223 101.526C49.2123 102.586 51.9623 106.836 52.6523 107.906" stroke="#1E1E1E" stroke-linecap="round"/>
<path d="M23.4663 1.91602C33.6163 1.91602 43.7763 1.91602 59.8563 1.91602C62.3363 1.91602 63.5863 3.15602 63.5863 5.64602C63.5863 7.63602 63.5863 9.62602 63.5863 13.096C63.5863 15.576 62.3363 16.816 59.8563 16.816C47.5563 16.816 35.2463 16.816 23.4663 16.816C20.9763 16.816 19.7363 15.576 19.7363 13.096C19.7363 10.806 19.7363 8.51602 19.7363 5.64602C19.7363 3.15602 20.9763 1.91602 23.4663 1.91602Z" fill="white"/>
<path d="M23.4663 1.91602C37.6863 1.91602 51.9063 1.91602 59.8563 1.91602M23.4663 1.91602C35.8863 1.91602 48.3063 1.91602 59.8563 1.91602M23.4663 1.91602C20.9763 1.91602 19.7363 3.15602 19.7363 5.64602M59.8563 1.91602C62.3363 1.91602 63.5863 3.15602 63.5863 5.64602M63.5863 5.64602C63.5863 7.26602 63.5863 8.89602 63.5863 13.096M63.5863 5.64602C63.5863 7.84602 63.5863 10.046 63.5863 13.096M63.5863 13.096C63.5863 15.576 62.3363 16.816 59.8563 16.816M59.8563 16.816C47.4063 16.816 34.9463 16.816 23.4663 16.816M59.8563 16.816C51.9263 16.816 43.9963 16.816 23.4663 16.816M23.4663 16.816C20.9763 16.816 19.7363 15.576 19.7363 13.096M19.7363 13.096C19.7363 10.776 19.7363 8.46602 19.7363 5.64602M19.7363 13.096C19.7363 10.246 19.7363 7.40602 19.7363 5.64602" stroke="#1E1E1E" stroke-width="2" stroke-linecap="round"/>
<path d="M22.6962 11.5857C22.2493 11.5857 21.8646 11.4802 21.5419 11.2692C21.2192 11.0582 20.971 10.7676 20.7972 10.3973C20.6234 10.027 20.5366 9.60398 20.5366 9.12821C20.5366 8.64416 20.6255 8.217 20.8034 7.84673C20.9834 7.47438 21.2337 7.18375 21.5543 6.97482C21.877 6.76383 22.2535 6.65833 22.6837 6.65833C23.0189 6.65833 23.3209 6.72039 23.5898 6.8445C23.8587 6.96862 24.079 7.14238 24.2507 7.36578C24.4224 7.58919 24.5289 7.84983 24.5703 8.1477H23.838C23.7822 7.9305 23.658 7.73813 23.4657 7.57057C23.2754 7.40095 23.0189 7.31614 22.6962 7.31614C22.4107 7.31614 22.1604 7.39061 21.9453 7.53954C21.7322 7.68641 21.5657 7.8943 21.4457 8.16322C21.3278 8.43007 21.2688 8.74346 21.2688 9.10339C21.2688 9.47159 21.3268 9.79222 21.4426 10.0653C21.5605 10.3383 21.726 10.5504 21.9391 10.7014C22.1542 10.8524 22.4066 10.9279 22.6962 10.9279C22.8865 10.9279 23.0592 10.8948 23.2143 10.8286C23.3695 10.7624 23.5008 10.6672 23.6084 10.5431C23.716 10.419 23.7925 10.2701 23.838 10.0963H24.5703C24.5289 10.3776 24.4265 10.631 24.2631 10.8565C24.1018 11.0799 23.8877 11.2578 23.6208 11.3902C23.356 11.5205 23.0478 11.5857 22.6962 11.5857ZM27.577 11.5857C27.1467 11.5857 26.7692 11.4833 26.4444 11.2785C26.1217 11.0737 25.8694 10.7872 25.6873 10.419C25.5074 10.0508 25.4174 9.62053 25.4174 9.12821C25.4174 8.63175 25.5074 8.19838 25.6873 7.82811C25.8694 7.45783 26.1217 7.1703 26.4444 6.96551C26.7692 6.76072 27.1467 6.65833 27.577 6.65833C28.0072 6.65833 28.3837 6.76072 28.7064 6.96551C29.0312 7.1703 29.2835 7.45783 29.4635 7.82811C29.6455 8.19838 29.7366 8.63175 29.7366 9.12821C29.7366 9.62053 29.6455 10.0508 29.4635 10.419C29.2835 10.7872 29.0312 11.0737 28.7064 11.2785C28.3837 11.4833 28.0072 11.5857 27.577 11.5857ZM27.577 10.9279C27.9038 10.9279 28.1727 10.8441 28.3837 10.6765C28.5947 10.509 28.7509 10.2887 28.8522 10.0156C28.9536 9.74258 29.0043 9.44677 29.0043 9.12821C29.0043 8.80965 28.9536 8.51281 28.8522 8.23769C28.7509 7.96257 28.5947 7.7402 28.3837 7.57057C28.1727 7.40095 27.9038 7.31614 27.577 7.31614C27.2501 7.31614 26.9812 7.40095 26.7702 7.57057C26.5592 7.7402 26.4031 7.96257 26.3017 8.23769C26.2003 8.51281 26.1497 8.80965 26.1497 9.12821C26.1497 9.44677 26.2003 9.74258 26.3017 10.0156C26.4031 10.2887 26.5592 10.509 26.7702 10.6765C26.9812 10.8441 27.2501 10.9279 27.577 10.9279ZM31.5866 8.61934V11.4864H30.8544V6.72039H31.5618V7.46507H31.6239C31.7356 7.22305 31.9052 7.0286 32.1328 6.88174C32.3603 6.7328 32.654 6.65833 33.014 6.65833C33.3367 6.65833 33.619 6.72452 33.861 6.85691C34.1031 6.98723 34.2913 7.18582 34.4258 7.45266C34.5602 7.71744 34.6275 8.05255 34.6275 8.45799V11.4864H33.8952V8.50764C33.8952 8.13322 33.798 7.84156 33.6035 7.63263C33.4091 7.42163 33.1422 7.31614 32.803 7.31614C32.5692 7.31614 32.3603 7.36682 32.1762 7.46818C31.9942 7.56954 31.8504 7.71744 31.7449 7.91189C31.6394 8.10633 31.5866 8.34215 31.5866 8.61934ZM39.3415 7.78777L38.6837 7.97394C38.6423 7.86431 38.5813 7.75778 38.5006 7.65435C38.422 7.54885 38.3144 7.46197 38.1779 7.39371C38.0414 7.32545 37.8666 7.29131 37.6535 7.29131C37.3619 7.29131 37.1188 7.35854 36.9244 7.493C36.732 7.62539 36.6358 7.79398 36.6358 7.99877C36.6358 8.1808 36.702 8.32457 36.8344 8.43007C36.9668 8.53556 37.1736 8.62348 37.4549 8.69381L38.1624 8.86757C38.5885 8.971 38.9061 9.12924 39.115 9.34231C39.3239 9.5533 39.4284 9.82532 39.4284 10.1584C39.4284 10.4314 39.3498 10.6755 39.1925 10.8906C39.0374 11.1058 38.8202 11.2754 38.5409 11.3995C38.2617 11.5236 37.9369 11.5857 37.5666 11.5857C37.0805 11.5857 36.6782 11.4802 36.3596 11.2692C36.0411 11.0582 35.8394 10.75 35.7546 10.3445L36.4496 10.1708C36.5158 10.4273 36.641 10.6197 36.8251 10.7479C37.0112 10.8762 37.2543 10.9403 37.5542 10.9403C37.8956 10.9403 38.1665 10.8679 38.3672 10.7231C38.5699 10.5762 38.6713 10.4004 38.6713 10.1956C38.6713 10.0301 38.6133 9.89152 38.4975 9.77981C38.3817 9.66604 38.2038 9.58123 37.9638 9.52538L37.1695 9.33921C36.733 9.23578 36.4124 9.07546 36.2076 8.85826C36.0049 8.63899 35.9035 8.36491 35.9035 8.036C35.9035 7.76709 35.979 7.5292 36.13 7.32234C36.2831 7.11548 36.491 6.9531 36.7537 6.83519C37.0185 6.71728 37.3184 6.65833 37.6535 6.65833C38.1252 6.65833 38.4954 6.76176 38.7644 6.96862C39.0353 7.17547 39.2277 7.44853 39.3415 7.78777ZM42.6034 6.72039V7.34096H40.1335V6.72039H42.6034ZM40.8534 5.57853H41.5856V10.1211C41.5856 10.328 41.6156 10.4831 41.6756 10.5866C41.7377 10.6879 41.8163 10.7562 41.9114 10.7913C42.0087 10.8244 42.1111 10.841 42.2186 10.841C42.2993 10.841 42.3655 10.8369 42.4172 10.8286C42.4689 10.8182 42.5103 10.81 42.5413 10.8038L42.6903 11.4616C42.6406 11.4802 42.5713 11.4988 42.4824 11.5174C42.3934 11.5381 42.2807 11.5484 42.1442 11.5484C41.9373 11.5484 41.7346 11.504 41.536 11.415C41.3395 11.3261 41.1761 11.1906 41.0457 11.0085C40.9175 10.8265 40.8534 10.5969 40.8534 10.3197V5.57853ZM45.1074 11.5981C44.8054 11.5981 44.5313 11.5412 44.2851 11.4274C44.039 11.3116 43.8435 11.1451 43.6987 10.9279C43.5539 10.7086 43.4815 10.4438 43.4815 10.1335C43.4815 9.86049 43.5353 9.63915 43.6428 9.46953C43.7504 9.29783 43.8942 9.16338 44.0741 9.06615C44.2541 8.96893 44.4527 8.89653 44.6699 8.84895C44.8892 8.79931 45.1095 8.76 45.3308 8.73104C45.6204 8.69381 45.8552 8.66588 46.0351 8.64727C46.2172 8.62658 46.3496 8.59245 46.4323 8.54487C46.5171 8.49729 46.5595 8.41455 46.5595 8.29664V8.27182C46.5595 7.96567 46.4758 7.72778 46.3082 7.55816C46.1427 7.38854 45.8914 7.30373 45.5542 7.30373C45.2046 7.30373 44.9305 7.38026 44.7319 7.53334C44.5334 7.68641 44.3937 7.84983 44.3131 8.02359L43.618 7.77536C43.7421 7.48576 43.9076 7.26028 44.1145 7.09894C44.3234 6.93552 44.5509 6.82175 44.7971 6.75762C45.0453 6.69143 45.2894 6.65833 45.5294 6.65833C45.6825 6.65833 45.8583 6.67695 46.0569 6.71418C46.2575 6.74935 46.4509 6.82278 46.6371 6.93448C46.8253 7.04619 46.9815 7.21478 47.1056 7.44025C47.2297 7.66573 47.2918 7.96774 47.2918 8.34629V11.4864H46.5595V10.841H46.5223C46.4726 10.9444 46.3899 11.0551 46.2741 11.173C46.1582 11.2909 46.0041 11.3912 45.8117 11.474C45.6194 11.5567 45.3846 11.5981 45.1074 11.5981ZM45.2191 10.9403C45.5087 10.9403 45.7528 10.8834 45.9514 10.7696C46.152 10.6559 46.303 10.509 46.4044 10.329C46.5078 10.1491 46.5595 9.95978 46.5595 9.7612V9.09098C46.5285 9.12821 46.4602 9.16234 46.3547 9.19337C46.2513 9.22233 46.1313 9.24819 45.9948 9.27094C45.8604 9.29163 45.729 9.31025 45.6007 9.32679C45.4746 9.34127 45.3722 9.35369 45.2936 9.36403C45.1033 9.38885 44.9254 9.42919 44.7599 9.48504C44.5964 9.53882 44.4641 9.62053 44.3627 9.73017C44.2634 9.83773 44.2138 9.9846 44.2138 10.1708C44.2138 10.4252 44.3079 10.6176 44.4961 10.7479C44.6864 10.8762 44.9274 10.9403 45.2191 10.9403ZM49.3606 8.61934V11.4864H48.6284V6.72039H49.3358V7.46507H49.3979C49.5096 7.22305 49.6792 7.0286 49.9067 6.88174C50.1343 6.7328 50.428 6.65833 50.788 6.65833C51.1107 6.65833 51.393 6.72452 51.635 6.85691C51.8771 6.98723 52.0653 7.18582 52.1998 7.45266C52.3342 7.71744 52.4015 8.05255 52.4015 8.45799V11.4864H51.6692V8.50764C51.6692 8.13322 51.572 7.84156 51.3775 7.63263C51.1831 7.42163 50.9162 7.31614 50.577 7.31614C50.3432 7.31614 50.1343 7.36682 49.9502 7.46818C49.7682 7.56954 49.6244 7.71744 49.5189 7.91189C49.4134 8.10633 49.3606 8.34215 49.3606 8.61934ZM55.8123 6.72039V7.34096H53.3424V6.72039H55.8123ZM54.0623 5.57853H54.7945V10.1211C54.7945 10.328 54.8245 10.4831 54.8845 10.5866C54.9466 10.6879 55.0252 10.7562 55.1203 10.7913C55.2176 10.8244 55.32 10.841 55.4275 10.841C55.5082 10.841 55.5744 10.8369 55.6261 10.8286C55.6778 10.8182 55.7192 10.81 55.7502 10.8038L55.8992 11.4616C55.8495 11.4802 55.7802 11.4988 55.6913 11.5174C55.6023 11.5381 55.4896 11.5484 55.3531 11.5484C55.1462 11.5484 54.9435 11.504 54.7449 11.415C54.5484 11.3261 54.385 11.1906 54.2546 11.0085C54.1264 10.8265 54.0623 10.5969 54.0623 10.3197V5.57853ZM58.8608 11.5857C58.4016 11.5857 58.0055 11.4843 57.6724 11.2816C57.3415 11.0768 57.086 10.7913 56.906 10.4252C56.7281 10.057 56.6392 9.62881 56.6392 9.14062C56.6392 8.65244 56.7281 8.22217 56.906 7.84983C57.086 7.47542 57.3363 7.18375 57.6569 6.97482C57.9796 6.76383 58.3561 6.65833 58.7864 6.65833C59.0346 6.65833 59.2797 6.6997 59.5218 6.78244C59.7638 6.86519 59.9841 6.99964 60.1827 7.18582C60.3812 7.36992 60.5395 7.61401 60.6574 7.91809C60.7753 8.22217 60.8343 8.59659 60.8343 9.04133V9.35162H57.1605V8.71863H60.0896C60.0896 8.44972 60.0358 8.20976 59.9282 7.99877C59.8227 7.78777 59.6717 7.62125 59.4752 7.49921C59.2808 7.37716 59.0512 7.31614 58.7864 7.31614C58.4947 7.31614 58.2423 7.38854 58.0293 7.53334C57.8183 7.67607 57.6559 7.86224 57.5421 8.09185C57.4284 8.32147 57.3715 8.56763 57.3715 8.83034V9.25233C57.3715 9.61226 57.4335 9.91737 57.5576 10.1677C57.6838 10.4159 57.8586 10.6052 58.082 10.7355C58.3054 10.8637 58.565 10.9279 58.8608 10.9279C59.0532 10.9279 59.227 10.901 59.3821 10.8472C59.5393 10.7913 59.6748 10.7086 59.7886 10.599C59.9024 10.4873 59.9903 10.3487 60.0523 10.1832L60.7598 10.3818C60.6853 10.6217 60.5602 10.8327 60.3844 11.0148C60.2085 11.1947 59.9913 11.3354 59.7327 11.4367C59.4742 11.536 59.1835 11.5857 58.8608 11.5857Z" fill="#1E1E1E"/>
<path d="M25.452 47.7888C22.892 61.7888 21.692 67.3988 19.892 73.4288C21.112 66.7488 23.222 60.5188 25.452 47.7888ZM25.452 47.7888C26.652 46.8088 28.832 46.4288 32.062 44.8888C29.152 46.2788 27.122 47.0088 25.452 47.7888Z" stroke="#1E1E1E" stroke-width="2" stroke-linecap="round"/>
<path d="M32.955 38.5187C32.515 40.5887 32.345 42.9587 31.985 44.8087C32.275 43.5787 32.325 42.2187 32.955 38.5187ZM32.955 38.5187C34.775 38.5687 36.315 38.4387 38.035 38.5987C35.155 38.5287 34.115 38.5687 32.955 38.5187Z" stroke="#1E1E1E" stroke-width="2" stroke-linecap="round"/>
<path d="M40.3722 29.7321C39.1122 32.6421 38.6322 35.4821 38.1122 38.7621C38.5522 36.1921 39.4122 33.5021 40.3722 29.7321ZM40.3722 29.7321C42.1122 29.0121 43.7422 28.6521 48.8322 28.2021M40.3722 29.7321C42.6522 29.2021 45.2322 28.9021 48.8322 28.2021M48.8322 28.2021C49.6522 30.9521 50.4722 34.0521 50.5322 35.6221C49.9422 33.3221 49.4922 30.6021 48.8322 28.2021Z" stroke="#1E1E1E" stroke-width="2" stroke-linecap="round"/>
<path d="M50.8502 36.1017C51.6502 36.3117 52.5702 36.6617 53.1102 36.7417ZM50.8502 36.1017C51.6602 36.2917 52.4102 36.5817 53.1102 36.7417Z" stroke="#1E1E1E" stroke-width="2" stroke-linecap="round"/>
<path d="M53.1882 36.666C53.6382 40.396 54.8582 42.576 56.2482 51.016ZM53.1882 36.666C53.7682 40.936 54.9282 44.566 56.2482 51.016Z" stroke="#1E1E1E" stroke-width="2" stroke-linecap="round"/>
<path d="M56.4936 51.6614C57.2736 51.5914 57.9236 51.6914 59.5536 51.6614ZM56.4936 51.6614C57.1136 51.6414 57.6736 51.6114 59.5536 51.6614Z" stroke="#1E1E1E" stroke-width="2" stroke-linecap="round"/>
<path d="M64.4771 73.2626C62.2771 67.0026 61.2271 60.1726 59.5571 51.8226C60.9571 59.4726 62.7671 67.8326 64.4771 73.2626ZM64.4771 73.2626C49.8771 72.3926 36.2971 73.8826 19.8871 73.2626C29.0771 73.5526 46.5471 73.7426 64.4771 73.2626Z" stroke="#1E1E1E" stroke-width="2" stroke-linecap="round"/>
<path d="M37.4752 52.2823C34.3952 52.4723 32.6152 52.3823 31.3852 52.6423C32.9652 52.5523 34.7652 52.4923 37.4752 52.2823ZM37.4752 52.2823C36.3952 52.9623 35.3552 53.3523 31.6952 54.8323M37.4752 52.2823C35.5852 53.1923 33.6552 54.0023 31.6952 54.8323M31.6952 54.8323C34.3552 54.8123 36.6352 54.6723 39.3952 54.6523C35.4852 54.6523 33.5552 54.8023 31.6952 54.8323Z" stroke="#1E1E1E" stroke-width="2" stroke-linecap="round"/>
<path d="M51.5476 51.7677C49.4876 51.7277 47.6476 52.0277 45.4576 52.1277C46.8476 52.0777 48.0976 51.9377 51.5476 51.7677ZM51.5476 51.7677C50.4076 52.4377 48.9176 52.9277 45.7676 54.3177M51.5476 51.7677C49.3976 52.7477 47.1876 53.6477 45.7676 54.3177M45.7676 54.3177C47.6276 54.2177 49.7876 54.4277 53.4676 54.1377C51.2576 54.3077 48.4076 54.1677 45.7676 54.3177Z" stroke="#1E1E1E" stroke-width="2" stroke-linecap="round"/>
<path d="M35.281 64.009C32.781 66.079 32.041 66.999 31.251 68.169C32.291 66.889 33.531 65.759 35.281 64.009ZM35.281 64.009C36.581 65.689 37.891 67.629 38.361 68.569M35.281 64.009C36.391 65.469 37.351 67.159 38.361 68.569M38.361 68.569C39.321 67.409 40.691 65.609 41.811 64.099M38.361 68.569C39.521 67.279 40.481 65.719 41.811 64.099M41.811 64.099C43.321 65.749 44.711 67.379 45.611 68.439C44.551 67.379 43.231 65.749 41.811 64.099Z" stroke="#1E1E1E" stroke-width="2" stroke-linecap="round"/>
<path d="M42.3284 63.9195C40.7384 65.6295 39.3084 66.5595 38.2984 68.0795C39.5584 66.7595 41.1184 65.4595 42.3284 63.9195ZM42.3284 63.9195C43.5584 65.5195 44.4484 66.9995 45.4084 68.4795M42.3284 63.9195C43.2084 65.3295 44.1884 66.5395 45.4084 68.4795M45.4084 68.4795C46.5484 67.0295 47.4184 65.7495 48.8584 64.0095M45.4084 68.4795C46.1184 67.4095 47.1384 66.2295 48.8584 64.0095M48.8584 64.0095C50.1684 65.4495 51.4284 66.9095 52.6584 68.3495C51.7984 67.2995 50.2284 65.7595 48.8584 64.0095Z" stroke="#1E1E1E" stroke-width="2" stroke-linecap="round"/>
<path d="M35.1245 73.9653C35.1045 75.7853 35.2345 77.2153 35.2045 82.2853ZM35.1245 73.9653C35.2445 76.3453 35.1845 78.4953 35.2045 82.2853Z" stroke="#1E1E1E" stroke-width="2" stroke-linecap="round"/>
<path d="M35.2943 82.6239C34.4543 82.4739 33.4843 82.5139 31.0043 82.5739ZM35.2943 82.6239C33.8543 82.6439 32.3543 82.6639 31.0043 82.5739Z" stroke="#1E1E1E" stroke-width="2" stroke-linecap="round"/>
<path d="M49.9081 73.3956C49.9081 75.9056 50.1981 79.0156 50.1581 81.7956ZM49.9081 73.3956C49.9881 76.8656 50.1781 80.1656 50.1581 81.7956Z" stroke="#1E1E1E" stroke-width="2" stroke-linecap="round"/>
<path d="M50.2283 82.0209C51.2883 82.1609 52.3883 82.0509 55.1883 81.9609ZM50.2283 82.0209C51.9183 82.0209 53.5783 81.9609 55.1883 81.9609Z" stroke="#1E1E1E" stroke-width="2" stroke-linecap="round"/>
<path d="M24.5134 73.7955C24.5934 74.8855 24.4134 75.8655 24.1734 78.2955ZM24.5134 73.7955C24.4234 75.5055 24.2834 77.1655 24.1734 78.2955Z" stroke="#1E1E1E" stroke-width="2" stroke-linecap="round"/>
<path d="M60.3627 73.5408C60.4527 75.0408 60.5527 76.6608 60.4427 77.5308ZM60.3627 73.5408C60.4227 74.8508 60.4027 76.2808 60.4427 77.5308Z" stroke="#1E1E1E" stroke-width="2" stroke-linecap="round"/>
</svg>
