<svg width="85" height="126" viewBox="0 0 85 126" fill="none" xmlns="http://www.w3.org/2000/svg">
<path d="M22.2613 2.35253C32.5313 3.40253 37.0113 2.02253 62.6613 2.35253C73.3013 1.10253 85.7313 9.41253 82.8613 22.5525C83.6313 50.2225 85.9913 82.3525 82.8613 104.103C81.6413 117.743 76.3313 127.823 62.6613 124.303C54.5813 123.183 41.0113 126.763 22.2613 124.303C6.50133 126.123 -0.798669 115.543 2.06133 104.103C3.40133 72.3325 -0.238669 44.8925 2.06133 22.5525C4.78133 7.93253 6.14133 -0.777467 22.2613 2.35253Z" fill="white"/>
<path d="M22.2614 2.35251C30.8914 2.97251 43.6014 1.44251 62.6614 2.35251M22.2614 2.35251C36.9114 2.13251 51.1314 2.70251 62.6614 2.35251M22.2614 2.35251C7.94136 2.20251 0.281357 7.09251 2.06136 22.5525M22.2614 2.35251C7.63136 3.03251 3.38136 8.41251 2.06136 22.5525M62.6614 2.35251C77.7514 1.82251 81.1514 9.99251 82.8614 22.5525M62.6614 2.35251C75.7014 0.182508 80.7614 7.14251 82.8614 22.5525M82.8614 22.5525C83.9514 49.8125 83.8814 75.1725 82.8614 104.103M82.8614 22.5525C83.4814 53.5225 82.2814 83.1025 82.8614 104.103M82.8614 104.103C83.2114 116.103 77.0914 124.143 62.6614 124.303M82.8614 104.103C83.9714 116.793 75.9114 123.453 62.6614 124.303M62.6614 124.303C52.9814 124.113 43.0814 124.403 22.2614 124.303M62.6614 124.303C54.9014 124.453 45.3214 123.833 22.2614 124.303M22.2614 124.303C9.83136 122.713 0.411357 118.073 2.06136 104.103M22.2614 124.303C8.23136 122.123 2.08136 115.713 2.06136 104.103M2.06136 104.103C1.91136 86.4825 1.61136 66.5225 2.06136 22.5525M2.06136 104.103C2.25136 75.1125 2.30136 46.5725 2.06136 22.5525" stroke="#1E1E1E" stroke-width="2" stroke-linecap="round"/>
<path d="M10.8766 90.5751C21.8666 90.5751 65.8466 90.5751 76.8366 90.5751" stroke="#1E1E1E" stroke-width="2" stroke-linecap="round"/>
<path d="M23.5888 2.23938C35.1788 2.23938 46.7688 2.23938 59.9788 2.23938C62.4588 2.23938 63.7088 3.47938 63.7088 5.96938C63.7088 7.99938 63.7088 10.0294 63.7088 13.4194C63.7088 15.8994 62.4588 17.1394 59.9788 17.1394C50.2288 17.1394 40.4888 17.1394 23.5888 17.1394C21.0988 17.1394 19.8588 15.8994 19.8588 13.4194C19.8588 11.6794 19.8588 9.93938 19.8588 5.96938C19.8588 3.47938 21.0988 2.23938 23.5888 2.23938Z" fill="white"/>
<path d="M23.5888 2.23938C36.2588 2.23938 48.9288 2.23938 59.9788 2.23938M23.5888 2.23938C32.9588 2.23938 42.3288 2.23938 59.9788 2.23938M23.5888 2.23938C21.0988 2.23938 19.8588 3.47938 19.8588 5.96938M59.9788 2.23938C62.4588 2.23938 63.7088 3.47938 63.7088 5.96938M63.7088 5.96938C63.7088 8.67938 63.7088 11.3894 63.7088 13.4194M63.7088 5.96938C63.7088 8.38938 63.7088 10.8094 63.7088 13.4194M63.7088 13.4194C63.7088 15.8994 62.4588 17.1394 59.9788 17.1394M59.9788 17.1394C49.3188 17.1394 38.6588 17.1394 23.5888 17.1394M59.9788 17.1394C48.2688 17.1394 36.5588 17.1394 23.5888 17.1394M23.5888 17.1394C21.0988 17.1394 19.8588 15.8994 19.8588 13.4194M19.8588 13.4194C19.8588 11.0194 19.8588 8.62938 19.8588 5.96938M19.8588 13.4194C19.8588 11.3494 19.8588 9.28938 19.8588 5.96938" stroke="#1E1E1E" stroke-width="2" stroke-linecap="round"/>
<path d="M32.3611 10.7975V4.44281H33.0934V6.78858H33.1555C33.2092 6.70584 33.2837 6.60034 33.3789 6.47209C33.4761 6.34177 33.6147 6.22593 33.7946 6.12457C33.9767 6.02114 34.2228 5.96943 34.5331 5.96943C34.9344 5.96943 35.2882 6.06975 35.5943 6.2704C35.9005 6.47106 36.1394 6.75548 36.3111 7.12369C36.4828 7.4919 36.5686 7.9263 36.5686 8.4269C36.5686 8.93163 36.4828 9.36913 36.3111 9.73941C36.1394 10.1076 35.9015 10.3931 35.5974 10.5958C35.2933 10.7965 34.9427 10.8968 34.5455 10.8968C34.2394 10.8968 33.9943 10.8461 33.8102 10.7447C33.6261 10.6413 33.4844 10.5244 33.3851 10.3941C33.2858 10.2617 33.2092 10.1521 33.1555 10.0652H33.0686V10.7975H32.3611ZM33.081 8.41448C33.081 8.77442 33.1337 9.09194 33.2392 9.36706C33.3447 9.64012 33.4988 9.85421 33.7016 10.0094C33.9043 10.1624 34.1525 10.239 34.4463 10.239C34.7524 10.239 35.0079 10.1583 35.2127 9.99695C35.4195 9.83353 35.5747 9.61426 35.6781 9.33914C35.7836 9.06195 35.8363 8.75373 35.8363 8.41448C35.8363 8.07937 35.7846 7.77736 35.6812 7.50845C35.5798 7.23746 35.4257 7.02337 35.2189 6.86615C35.0141 6.70687 34.7565 6.62723 34.4463 6.62723C34.1484 6.62723 33.8981 6.70274 33.6954 6.85374C33.4926 7.00268 33.3396 7.21161 33.2361 7.48052C33.1327 7.74737 33.081 8.05869 33.081 8.41448ZM37.6887 10.7975V6.03148H38.3962V6.75135H38.4458C38.5327 6.51553 38.6899 6.32419 38.9175 6.17732C39.145 6.03045 39.4015 5.95701 39.687 5.95701C39.7408 5.95701 39.808 5.95805 39.8887 5.96012C39.9694 5.96218 40.0304 5.96529 40.0717 5.96943V6.71411C40.0469 6.70791 39.99 6.6986 39.9011 6.68619C39.8142 6.67171 39.7222 6.66447 39.6249 6.66447C39.3933 6.66447 39.1864 6.71308 39.0044 6.8103C38.8244 6.90546 38.6817 7.03785 38.5762 7.20747C38.4727 7.37502 38.421 7.56637 38.421 7.7815V10.7975H37.6887ZM42.793 10.8968C42.3337 10.8968 41.9376 10.7954 41.6046 10.5927C41.2736 10.3879 41.0181 10.1024 40.8382 9.73631C40.6603 9.3681 40.5713 8.9399 40.5713 8.45172C40.5713 7.96353 40.6603 7.53327 40.8382 7.16093C41.0181 6.78651 41.2684 6.49484 41.589 6.28592C41.9117 6.07492 42.2882 5.96943 42.7185 5.96943C42.9667 5.96943 43.2118 6.0108 43.4539 6.09354C43.6959 6.17628 43.9162 6.31074 44.1148 6.49691C44.3134 6.68102 44.4716 6.92511 44.5895 7.22919C44.7074 7.53327 44.7664 7.90768 44.7664 8.35243V8.66271H41.0926V8.02973H44.0217C44.0217 7.76081 43.9679 7.52086 43.8603 7.30986C43.7549 7.09887 43.6038 6.93235 43.4073 6.8103C43.2129 6.68826 42.9833 6.62723 42.7185 6.62723C42.4268 6.62723 42.1745 6.69963 41.9614 6.84443C41.7504 6.98717 41.588 7.17334 41.4742 7.40295C41.3605 7.63256 41.3036 7.87872 41.3036 8.14143V8.56342C41.3036 8.92335 41.3656 9.22847 41.4898 9.47877C41.6159 9.727 41.7907 9.91627 42.0141 10.0466C42.2375 10.1748 42.4972 10.239 42.793 10.239C42.9853 10.239 43.1591 10.2121 43.3142 10.1583C43.4715 10.1024 43.6069 10.0197 43.7207 9.91007C43.8345 9.79836 43.9224 9.65977 43.9845 9.49428L44.6919 9.69286C44.6174 9.93282 44.4923 10.1438 44.3165 10.3258C44.1406 10.5058 43.9234 10.6465 43.6649 10.7478C43.4063 10.8471 43.1157 10.8968 42.793 10.8968ZM47.2828 10.9092C46.9808 10.9092 46.7067 10.8523 46.4605 10.7385C46.2144 10.6227 46.0189 10.4562 45.8741 10.239C45.7293 10.0197 45.6569 9.75492 45.6569 9.44464C45.6569 9.17158 45.7107 8.95025 45.8183 8.78062C45.9258 8.60893 46.0696 8.47447 46.2496 8.37725C46.4295 8.28003 46.6281 8.20763 46.8453 8.16005C47.0646 8.1104 47.2849 8.0711 47.5062 8.04214C47.7958 8.00491 48.0306 7.97698 48.2106 7.95836C48.3926 7.93768 48.525 7.90355 48.6077 7.85597C48.6925 7.80839 48.735 7.72565 48.735 7.60774V7.58292C48.735 7.27677 48.6512 7.03888 48.4836 6.86926C48.3181 6.69963 48.0668 6.61482 47.7296 6.61482C47.38 6.61482 47.1059 6.69136 46.9074 6.84443C46.7088 6.99751 46.5691 7.16093 46.4885 7.33469L45.7934 7.08646C45.9175 6.79686 46.083 6.57138 46.2899 6.41003C46.4988 6.24661 46.7264 6.13284 46.9725 6.06872C47.2208 6.00252 47.4648 5.96943 47.7048 5.96943C47.8579 5.96943 48.0337 5.98804 48.2323 6.02528C48.4329 6.06044 48.6264 6.13388 48.8125 6.24558C49.0008 6.35728 49.1569 6.52587 49.2811 6.75135C49.4052 6.97682 49.4672 7.27883 49.4672 7.65738V10.7975H48.735V10.1521H48.6977C48.6481 10.2555 48.5653 10.3662 48.4495 10.4841C48.3336 10.602 48.1795 10.7023 47.9872 10.7851C47.7948 10.8678 47.56 10.9092 47.2828 10.9092ZM47.3945 10.2514C47.6841 10.2514 47.9282 10.1945 48.1268 10.0807C48.3274 9.96695 48.4784 9.82008 48.5798 9.64012C48.6832 9.46015 48.735 9.27088 48.735 9.07229V8.40207C48.7039 8.43931 48.6357 8.47344 48.5302 8.50447C48.4267 8.53343 48.3068 8.55928 48.1702 8.58204C48.0358 8.60272 47.9044 8.62134 47.7762 8.63789C47.65 8.65237 47.5476 8.66478 47.469 8.67512C47.2787 8.69995 47.1008 8.74028 46.9353 8.79614C46.7719 8.84992 46.6395 8.93163 46.5381 9.04126C46.4388 9.14883 46.3892 9.2957 46.3892 9.48187C46.3892 9.7363 46.4833 9.92868 46.6715 10.059C46.8619 10.1873 47.1028 10.2514 47.3945 10.2514ZM51.4864 9.05988L51.474 8.15384H51.6229L53.7081 6.03148H54.6141L52.3925 8.27796H52.3304L51.4864 9.05988ZM50.8038 10.7975V4.44281H51.5361V10.7975H50.8038ZM53.8322 10.7975L51.9705 8.43931L52.4917 7.93044L54.763 10.7975H53.8322Z" fill="#1E1E1E"/>
<path d="M43.0292 49.516C46.0992 48.616 51.0092 49.766 53.8892 51.256C56.7692 52.746 59.1692 55.466 60.3092 58.466C61.4492 61.456 61.6592 66.036 60.7492 69.206C59.8292 72.376 57.5392 75.746 54.8292 77.486C52.1192 79.216 47.7692 80.086 44.4792 79.616C41.1892 79.156 37.2792 77.096 35.0792 74.686C32.8892 72.286 31.3792 68.356 31.2892 65.176C31.1992 61.996 32.4792 58.206 34.5492 55.596C36.6192 52.976 42.1992 50.396 43.7192 49.486C45.2292 48.586 43.6592 49.826 43.6292 50.176M46.0392 49.346C49.0292 49.096 52.9592 50.696 55.5392 52.696C58.1192 54.696 60.7992 58.286 61.5392 61.346C62.2692 64.396 61.5192 68.296 59.9392 71.026C58.3492 73.756 55.2492 76.476 52.0492 77.726C48.8592 78.976 43.8592 79.406 40.7692 78.526C37.6792 77.636 35.2292 75.166 33.5192 72.396C31.7992 69.626 29.9792 65.206 30.4992 61.916C31.0092 58.636 34.0992 54.716 36.5992 52.696C39.0992 50.676 43.9392 50.396 45.4892 49.806C47.0492 49.226 45.8192 49.086 45.9292 49.206" stroke="#1E1E1E" stroke-width="2" stroke-linecap="round"/>
<path d="M31.304 62.2702C31.564 57.6002 32.224 38.4502 33.224 33.9502C34.224 29.4602 36.404 32.0002 37.324 35.3002C38.234 38.6002 38.534 50.6602 38.704 53.7502M32.064 61.8302C32.304 57.2602 31.964 39.1502 33.024 34.5802C34.074 30.0002 37.444 31.1302 38.394 34.3602C39.354 37.6002 38.654 50.7502 38.764 53.9802" stroke="#1E1E1E" stroke-width="2" stroke-linecap="round"/>
<path d="M39.4073 56.982C39.5673 52.332 38.5873 33.872 39.4973 29.292C40.4173 24.702 43.8873 26.232 44.8773 29.472C45.8773 32.722 45.2873 45.422 45.4973 48.742M38.9673 56.432C39.3373 51.612 39.5773 32.892 40.4973 28.452C41.4073 24.012 43.6673 26.382 44.4773 29.812C45.2873 33.232 45.1773 45.692 45.3473 49.012" stroke="#1E1E1E" stroke-width="2" stroke-linecap="round"/>
<path d="M46.2638 57.6811C46.3438 52.9311 46.6438 33.4611 47.6438 28.8211C48.6438 24.1811 51.2138 26.3511 52.2538 29.8311C53.2938 33.3111 53.5638 46.3811 53.8738 49.7011M47.0238 57.3311C46.9838 52.6511 46.1138 33.7711 47.1638 29.2511C48.2138 24.7311 52.1738 26.6811 53.3138 30.1911C54.4638 33.7011 53.9838 47.0011 54.0438 50.3011" stroke="#1E1E1E" stroke-width="2" stroke-linecap="round"/>
<path d="M53.408 63.9052C53.568 59.1052 52.978 40.2752 54.018 35.8652C55.058 31.4652 58.488 34.0052 59.638 37.4852C60.788 40.9552 60.688 53.5252 60.898 56.7252M52.688 64.8252C53.058 60.0552 53.888 41.0452 54.998 36.3252C56.098 31.6052 58.308 33.2952 59.338 36.5152C60.378 39.7452 61.018 52.2652 61.198 55.6752" stroke="#1E1E1E" stroke-width="2" stroke-linecap="round"/>
<path d="M31.3218 71.7898C29.5518 68.0898 21.8818 53.0198 21.5518 49.4698C21.2218 45.9198 26.4618 47.7198 29.3518 50.4798C32.2418 53.2498 37.3518 63.3898 38.8818 66.0598M32.9518 73.8698C31.0518 69.8998 21.3818 51.8098 20.7218 47.5698C20.0618 43.3198 25.8518 45.0898 28.9918 48.3898C32.1218 51.6998 38.1518 64.2298 39.5318 67.3998" stroke="#1E1E1E" stroke-width="2" stroke-linecap="round"/>
<path d="M43.1737 52.4939C45.7037 51.8139 49.1937 51.9439 51.6237 52.9539C54.0537 53.9639 56.6337 56.2739 57.7737 58.5739C58.9037 60.8739 59.2037 64.2839 58.4337 66.7639C57.6537 69.2439 55.4837 72.0839 53.1137 73.4639C50.7437 74.8439 46.9837 75.3939 44.1937 75.0339C41.4037 74.6739 38.0837 73.1239 36.3537 71.3139C34.6237 69.5039 33.8337 66.6539 33.8037 64.1739C33.7837 61.6939 34.6037 58.4139 36.2237 56.4339C37.8337 54.4439 42.1837 52.8739 43.4837 52.2639C44.7737 51.6439 43.8837 52.6039 44.0037 52.7439M46.0137 51.5939C48.5837 51.4639 52.2337 53.7039 54.2637 55.4239C56.2937 57.1439 57.6837 59.6439 58.1937 61.9139C58.7137 64.1839 58.6137 67.0339 57.3437 69.0439C56.0637 71.0539 53.2437 72.9939 50.5437 73.9739C47.8437 74.9539 43.6037 75.8139 41.1237 74.9239C38.6437 74.0339 36.8237 70.9539 35.6637 68.6239C34.5037 66.2839 33.8037 63.2639 34.1637 60.9039C34.5237 58.5439 35.7137 55.9939 37.8037 54.4539C39.9037 52.9139 45.4237 52.1639 46.7237 51.6739C48.0237 51.1839 45.6237 51.2339 45.5937 51.4939" fill="white"/>
<path d="M48.2037 52.2239C50.7937 52.4239 54.1337 54.1639 55.9337 56.0639C57.7237 57.9639 58.9837 61.2239 58.9837 63.6439C58.9737 66.0639 57.7337 68.6639 55.8837 70.5739C54.0437 72.4839 50.6437 74.5439 47.9037 75.1139C45.1737 75.6739 41.7637 75.1739 39.4737 73.9839C37.1837 72.7839 35.0937 70.3239 34.1737 67.9439C33.2537 65.5639 33.0637 62.1439 33.9337 59.6839C34.7937 57.2139 36.9437 54.4139 39.3737 53.1439C41.7937 51.8839 46.8937 52.2239 48.4937 52.1139C50.0937 52.0039 49.0837 52.2939 48.9937 52.5039M43.4137 52.4039C45.8737 51.6739 48.5837 51.8439 51.0037 52.8239C53.4237 53.8039 56.8637 55.9339 57.9337 58.3039C59.0137 60.6739 58.3337 64.6739 57.4737 67.0439C56.6137 69.4239 54.9437 71.3139 52.7937 72.5639C50.6537 73.8139 47.3537 74.6239 44.6037 74.5539C41.8537 74.4839 38.2137 73.8239 36.2837 72.1439C34.3537 70.4639 33.0837 67.0439 33.0437 64.4739C32.9937 61.8939 34.4337 58.6839 36.0137 56.7039C37.5837 54.7339 41.3637 53.2239 42.4637 52.6339C43.5737 52.0439 42.5337 53.0639 42.6437 53.1539" stroke="white" stroke-width="4" stroke-linecap="round"/>
<path d="M45.2032 49.7088C47.9132 49.1788 51.8832 49.9988 54.3432 51.3888C56.8032 52.7788 59.1432 55.5688 59.9632 58.0588C60.7832 60.5588 60.5032 64.0588 59.2432 66.3688C57.9832 68.6788 55.0832 70.8688 52.4032 71.9288C49.7332 72.9788 45.8332 73.2688 43.1632 72.6988C40.4932 72.1188 37.9632 70.4688 36.3932 68.4688C34.8132 66.4588 33.6232 63.1488 33.7232 60.6688C33.8232 58.1988 35.0332 55.3188 36.9832 53.6088C38.9332 51.9088 43.9132 51.0188 45.4432 50.4188C46.9832 49.8088 46.1332 49.8688 46.1832 49.9888M50.0432 50.9288C52.6932 51.4588 55.5532 53.1088 57.3132 54.9388C59.0632 56.7688 60.6632 59.5388 60.5632 61.8988C60.4632 64.2488 58.8632 67.1088 56.7232 69.0588C54.5832 71.0088 50.5232 73.3488 47.7232 73.5988C44.9332 73.8488 42.1732 72.1188 39.9632 70.5588C37.7632 69.0088 35.4232 66.5688 34.4932 64.2588C33.5632 61.9488 33.2132 58.9488 34.3832 56.7088C35.5432 54.4688 38.9832 52.0188 41.4932 50.8388C44.0032 49.6488 47.9632 49.6288 49.4432 49.5988C50.9132 49.5588 50.2832 50.3688 50.3332 50.6088" fill="white"/>
<path d="M49.2631 50.1488C52.0031 50.3888 55.3931 52.3388 57.2231 54.1488C59.0431 55.9588 60.3131 58.5288 60.2131 61.0088C60.1231 63.4788 58.5431 66.9588 56.6531 68.9988C54.7731 71.0388 51.6531 72.7488 48.9131 73.2388C46.1731 73.7388 42.7031 73.2488 40.2331 71.9788C37.7731 70.7188 35.1831 68.0988 34.1431 65.6588C33.0931 63.2188 33.0431 59.6888 33.9831 57.3288C34.9231 54.9688 37.1931 52.6888 39.7731 51.4888C42.3531 50.2888 47.7631 50.2888 49.4531 50.1388C51.1431 49.9988 49.9831 50.4888 49.8831 50.6088M45.6531 49.5988C48.3631 49.2388 53.0631 50.1388 55.3131 51.7488C57.5731 53.3588 58.6631 56.8588 59.1731 59.2788C59.6831 61.6988 59.6031 64.1988 58.3731 66.2788C57.1431 68.3588 54.5231 70.5888 51.8131 71.7388C49.1031 72.8988 44.8831 73.8288 42.1031 73.1888C39.3231 72.5588 36.5031 70.1288 35.1131 67.9288C33.7131 65.7388 33.3631 62.4588 33.7131 60.0288C34.0731 57.5888 35.2331 54.8888 37.2431 53.3188C39.2531 51.7488 44.3331 51.1488 45.7931 50.5988C47.2631 50.0388 45.9731 49.8888 46.0331 49.9688" stroke="white" stroke-width="4" stroke-linecap="round"/>
<path d="M38.8848 47.6826C38.8248 48.7526 38.6248 53.0526 38.5648 54.1226M38.5648 47.4426C38.4648 48.4026 38.3848 52.6226 38.3448 53.6426" stroke="#1E1E1E" stroke-width="2" stroke-linecap="round"/>
<path d="M38.8883 47.5356C38.8283 48.6156 38.6683 52.8156 38.6383 53.8356M38.5183 47.3756C38.3983 48.3356 38.3883 52.2256 38.3983 53.3456" stroke="#1E1E1E" stroke-width="2" stroke-linecap="round"/>
<path d="M46.7152 45.4567C46.6952 46.4767 46.6952 50.6267 46.6052 51.5767M46.3252 45.2867C46.2552 46.1667 46.3152 49.9767 46.4052 50.9967" stroke="#1E1E1E" stroke-width="2" stroke-linecap="round"/>
<path d="M47.4756 45.3438C47.3856 46.2938 46.8956 50.2438 46.8456 51.2338M47.1256 45.0838C47.1456 46.0438 47.5356 50.4438 47.5056 51.5238" stroke="#1E1E1E" stroke-width="2" stroke-linecap="round"/>
<path d="M53.5485 45.6042C53.4985 46.5942 53.6385 50.8642 53.6785 51.9642M54.0585 46.2142C53.9585 47.2342 53.4985 51.2242 53.4285 52.2842" stroke="#1E1E1E" stroke-width="2" stroke-linecap="round"/>
<path d="M60.5154 52.033C60.5554 53.133 60.4354 57.493 60.4254 58.563M60.1254 52.663C60.1554 53.853 60.2054 57.983 60.2354 59.003" stroke="#1E1E1E" stroke-width="2" stroke-linecap="round"/>
<path d="M61.1618 52.8664C61.1518 53.9464 61.0318 58.0464 60.9618 59.0764M60.8218 52.5464C60.7718 53.6964 60.8218 58.3264 60.7718 59.4664" stroke="#1E1E1E" stroke-width="2" stroke-linecap="round"/>
<path d="M32.1334 54.5194C32.6534 55.5094 34.7434 59.5394 35.2134 60.5394M31.7934 54.1494C32.2434 55.1894 34.2734 59.7994 34.9234 60.9294" stroke="#1E1E1E" stroke-width="2" stroke-linecap="round"/>
<path d="M32.496 53.9345C32.966 54.9445 34.976 58.9845 35.526 59.9945M32.046 53.5645C32.606 54.6245 35.596 59.2645 36.176 60.3845" stroke="#1E1E1E" stroke-width="2" stroke-linecap="round"/>
<path d="M30.2919 65.2172C31.0719 66.1972 34.4019 70.1372 35.2319 71.0772M30.7919 64.8572C31.5219 65.8972 34.2319 70.4172 34.9319 71.4572" stroke="white" stroke-width="2" stroke-linecap="round"/>
<path d="M28.4386 59.7715C29.1786 60.8115 31.9586 64.9815 32.6786 66.0215M27.9886 59.3915C28.7086 60.4715 31.6286 65.1615 32.3886 66.3015" stroke="white" stroke-width="2" stroke-linecap="round"/>
<path d="M28.4587 56.6987C29.2487 57.6587 32.4587 61.5687 33.1987 62.5987M28.0087 57.2987C28.7687 58.2887 32.0087 61.8887 32.9387 62.8787" stroke="white" stroke-width="2" stroke-linecap="round"/>
<path d="M28.9108 52.8104C29.3808 53.9404 31.1308 58.4404 31.6708 59.6004M28.4908 53.4104C29.0708 54.6204 31.7308 58.9004 32.3108 60.0204" stroke="white" stroke-width="2" stroke-linecap="round"/>
<path d="M47.8399 58.9523C48.1599 58.9623 48.3699 59.3823 48.5199 59.6423C48.6599 59.9123 48.6899 60.2823 48.6899 60.5623C48.6799 60.8423 48.5699 61.0023 48.4999 61.3423C48.4299 61.6723 48.5499 62.3823 48.2799 62.5823C48.0099 62.7923 47.2099 62.7423 46.8699 62.5723C46.5199 62.3923 46.3199 61.8223 46.2099 61.5223C46.0999 61.2223 46.1399 61.1223 46.1999 60.7423C46.2599 60.3623 46.3899 59.4923 46.5699 59.2423C46.7499 58.9923 47.0999 59.2623 47.2899 59.2423C47.4699 59.2223 47.6499 59.0723 47.6699 59.1223M47.5799 59.0523C47.7999 59.1923 48.0599 59.8623 48.2999 60.0823C48.5299 60.3023 48.9699 60.0323 49.0099 60.3823C49.0399 60.7223 48.6499 61.8823 48.5299 62.1723C48.4099 62.4523 48.4699 62.1123 48.2799 62.0923C48.0999 62.0623 47.7499 62.1523 47.4099 62.0023C47.0699 61.8523 46.4299 61.5423 46.2499 61.2023C46.0799 60.8623 46.2299 60.2523 46.3499 59.9523C46.4699 59.6523 46.6499 59.5823 46.9499 59.4123C47.2599 59.2323 48.0099 58.9123 48.1999 58.9023C48.3999 58.8823 48.1699 59.3523 48.0999 59.3423" fill="white"/>
<path d="M47.5599 59.2423C47.7799 59.2423 48.0299 59.0623 48.2699 59.2723C48.5099 59.4823 48.9899 60.1023 49.0099 60.5023C49.0199 60.9123 48.5899 61.4323 48.3699 61.6923C48.1499 61.9623 47.8499 62.0223 47.6599 62.0923C47.4799 62.1523 47.4499 62.1823 47.2499 62.0823C47.0399 61.9923 46.5899 61.8523 46.4299 61.5123C46.2699 61.1723 46.2099 60.4423 46.2999 60.0523C46.3899 59.6623 46.6899 59.3523 46.9799 59.1623C47.2699 58.9823 47.9099 58.9923 48.0199 58.9723C48.1299 58.9423 47.7099 59.0323 47.6499 59.0223M47.6399 58.9423C47.8999 58.8923 47.8899 59.1723 48.0099 59.4423C48.1299 59.7123 48.2599 60.2023 48.3599 60.5723C48.4499 60.9323 48.5799 61.3823 48.5799 61.6123C48.5799 61.8523 48.5599 61.9123 48.3399 61.9723C48.1099 62.0323 47.5599 61.9523 47.2299 61.9923C46.9099 62.0223 46.5199 62.3723 46.3699 62.2023C46.2099 62.0323 46.2599 61.4323 46.2699 60.9823C46.2899 60.5223 46.2599 59.8123 46.4699 59.4723C46.6699 59.1323 47.2699 58.9523 47.4999 58.9523C47.7299 58.9523 47.8799 59.4123 47.8299 59.4723" stroke="#1E1E1E" stroke-width="2" stroke-linecap="round"/>
<path d="M48.0828 67.3988C47.7228 68.1688 45.7828 71.1888 45.4128 71.9188M47.7528 67.1288C47.5228 67.9588 46.3928 71.4888 46.0628 72.2988" stroke="#1E1E1E" stroke-width="2" stroke-linecap="round"/>
<path d="M56.3223 48.4866C56.4823 49.2266 57.5723 52.3166 57.7323 53.1666M56.8223 48.1066C56.9323 48.8766 57.3523 52.4966 57.5423 53.4666" stroke="white" stroke-width="2" stroke-linecap="round"/>
</svg>
