<svg width="85" height="125" viewBox="0 0 85 125" fill="none" xmlns="http://www.w3.org/2000/svg">
<path d="M22.8598 1.70738C41.3698 -0.472621 50.7198 4.80738 63.2598 1.70738C74.2198 2.38738 83.9998 7.42738 83.4598 21.9074C82.7198 48.6874 81.0898 66.8174 83.4598 103.457C87.0398 118.857 79.5098 121.437 63.2598 123.657C46.2398 123.107 36.0798 126.217 22.8598 123.657C10.1498 120.597 5.30978 116.727 2.65978 103.457C4.31978 79.8774 -0.0902166 53.7674 2.65978 21.9074C1.91978 11.3674 6.97978 -0.652621 22.8598 1.70738Z" fill="white"/>
<path d="M22.8598 1.70738C37.3498 1.80738 53.1598 2.31738 63.2598 1.70738M22.8598 1.70738C39.3798 2.45738 54.2698 1.74738 63.2598 1.70738M22.8598 1.70738C10.6098 0.207385 0.699782 8.11738 2.65978 21.9074M22.8598 1.70738C7.84978 0.237385 1.60978 6.48738 2.65978 21.9074M63.2598 1.70738C75.0298 2.51738 83.5698 7.90738 83.4598 21.9074M63.2598 1.70738C76.6598 3.31738 81.8498 10.2574 83.4598 21.9074M83.4598 21.9074C83.8498 39.6274 84.0398 59.5674 83.4598 103.457M83.4598 21.9074C83.7898 46.7274 81.8098 73.2474 83.4598 103.457M83.4598 103.457C85.3598 117.877 77.1598 123.977 63.2598 123.657M83.4598 103.457C81.7098 115.327 76.3998 125.817 63.2598 123.657M63.2598 123.657C49.4398 123.047 32.9698 121.717 22.8598 123.657M63.2598 123.657C55.5698 123.827 46.0398 123.137 22.8598 123.657M22.8598 123.657C8.77978 123.527 4.30978 115.527 2.65978 103.457M22.8598 123.657C7.82978 122.327 0.459782 116.397 2.65978 103.457M2.65978 103.457C1.12978 84.3874 1.00978 64.7874 2.65978 21.9074M2.65978 103.457C2.31978 76.3674 2.25978 51.3274 2.65978 21.9074" stroke="#1E1E1E" stroke-width="2" stroke-linecap="round"/>
<path d="M11.475 89.93C22.465 89.93 66.445 89.93 77.435 89.93" stroke="#1E1E1E" stroke-width="2" stroke-linecap="round"/>
<path d="M10.7439 105.527C10.7339 104.627 10.7139 101.017 10.7039 100.117" stroke="#1E1E1E" stroke-linecap="round"/>
<path d="M10.6718 100.32C10.9218 99.9598 11.9318 98.5398 12.1818 98.1798" stroke="#1E1E1E" stroke-linecap="round"/>
<path d="M13.6746 105.591C13.6846 104.691 13.7046 101.081 13.7146 100.181" stroke="#1E1E1E" stroke-linecap="round"/>
<path d="M13.7466 100.384C13.4966 100.024 12.4866 98.604 12.2366 98.244" stroke="#1E1E1E" stroke-linecap="round"/>
<path d="M8.53156 106.077C9.71156 106.057 14.4116 105.977 15.5816 105.957" stroke="#1E1E1E" stroke-linecap="round"/>
<path d="M12.3901 106.168C12.4001 106.798 12.4401 109.338 12.4501 109.968" stroke="#1E1E1E" stroke-linecap="round"/>
<path d="M53.8013 101.249C54.1613 100.879 55.6013 99.379 55.9613 98.999" stroke="#1E1E1E" stroke-linecap="round"/>
<path d="M55.9568 98.9588C56.3568 99.2888 57.9368 100.609 58.3368 100.939" stroke="#1E1E1E" stroke-linecap="round"/>
<path d="M58.4267 101.204C57.7367 102.264 54.9867 106.514 54.2967 107.584" stroke="#1E1E1E" stroke-linecap="round"/>
<path d="M53.8687 101.249C53.5087 100.879 52.0687 99.379 51.7087 98.999" stroke="#1E1E1E" stroke-linecap="round"/>
<path d="M51.7131 98.9588C51.3131 99.2888 49.7331 100.609 49.3331 100.939" stroke="#1E1E1E" stroke-linecap="round"/>
<path d="M49.2433 101.204C49.9333 102.264 52.6833 106.514 53.3733 107.584" stroke="#1E1E1E" stroke-linecap="round"/>
<path d="M24.1873 1.59424C34.9073 1.59424 45.6273 1.59424 60.5773 1.59424C63.0573 1.59424 64.3073 2.83424 64.3073 5.32424C64.3073 7.06424 64.3073 8.81424 64.3073 12.7742C64.3073 15.2542 63.0573 16.4942 60.5773 16.4942C49.5273 16.4942 38.4673 16.4942 24.1873 16.4942C21.6973 16.4942 20.4573 15.2542 20.4573 12.7742C20.4573 10.6942 20.4573 8.61424 20.4573 5.32424C20.4573 2.83424 21.6973 1.59424 24.1873 1.59424Z" fill="white"/>
<path d="M24.1873 1.59424C38.6773 1.59424 53.1773 1.59424 60.5773 1.59424M24.1873 1.59424C35.6973 1.59424 47.2073 1.59424 60.5773 1.59424M24.1873 1.59424C21.6973 1.59424 20.4573 2.83424 20.4573 5.32424M60.5773 1.59424C63.0573 1.59424 64.3073 2.83424 64.3073 5.32424M64.3073 5.32424C64.3073 7.95424 64.3073 10.5842 64.3073 12.7742M64.3073 5.32424C64.3073 7.03424 64.3073 8.75424 64.3073 12.7742M64.3073 12.7742C64.3073 15.2542 63.0573 16.4942 60.5773 16.4942M60.5773 16.4942C52.2473 16.4942 43.9173 16.4942 24.1873 16.4942M60.5773 16.4942C52.3873 16.4942 44.1973 16.4942 24.1873 16.4942M24.1873 16.4942C21.6973 16.4942 20.4573 15.2542 20.4573 12.7742M20.4573 12.7742C20.4573 10.7442 20.4573 8.71424 20.4573 5.32424M20.4573 12.7742C20.4573 10.9742 20.4573 9.18424 20.4573 5.32424" stroke="#1E1E1E" stroke-width="2" stroke-linecap="round"/>
<path d="M30.281 11.8596C29.8838 11.8596 29.5332 11.7593 29.2291 11.5586C28.925 11.3559 28.6871 11.0704 28.5154 10.7022C28.3438 10.332 28.2579 9.89446 28.2579 9.38973C28.2579 8.88913 28.3438 8.45473 28.5154 8.08652C28.6871 7.71831 28.9261 7.43388 29.2322 7.23323C29.5384 7.03258 29.8921 6.93225 30.2934 6.93225C30.6037 6.93225 30.8488 6.98397 31.0288 7.0874C31.2108 7.18876 31.3494 7.3046 31.4446 7.43492C31.5418 7.56317 31.6173 7.66867 31.6711 7.75141H31.7331V5.40564H32.4654V11.7603H31.7579V11.028H31.6711C31.6173 11.1149 31.5407 11.2246 31.4415 11.3569C31.3422 11.4873 31.2005 11.6041 31.0164 11.7076C30.8323 11.8089 30.5871 11.8596 30.281 11.8596ZM30.3803 11.2018C30.674 11.2018 30.9222 11.1253 31.125 10.9722C31.3277 10.817 31.4818 10.6029 31.5873 10.3299C31.6928 10.0548 31.7455 9.73725 31.7455 9.37731C31.7455 9.02152 31.6938 8.7102 31.5904 8.44335C31.487 8.17444 31.3339 7.96551 31.1312 7.81657C30.9284 7.66557 30.6781 7.59006 30.3803 7.59006C30.07 7.59006 29.8114 7.6697 29.6046 7.82898C29.3998 7.9862 29.2457 8.20029 29.1422 8.47128C29.0409 8.74019 28.9902 9.0422 28.9902 9.37731C28.9902 9.71656 29.0419 10.0248 29.1453 10.302C29.2508 10.5771 29.406 10.7964 29.6108 10.9598C29.8176 11.1211 30.0741 11.2018 30.3803 11.2018ZM35.8444 11.8596C35.4142 11.8596 35.0366 11.7572 34.7119 11.5524C34.3892 11.3476 34.1368 11.0611 33.9548 10.6929C33.7748 10.3247 33.6848 9.89446 33.6848 9.40214C33.6848 8.90568 33.7748 8.47231 33.9548 8.10204C34.1368 7.73176 34.3892 7.44423 34.7119 7.23944C35.0366 7.03465 35.4142 6.93225 35.8444 6.93225C36.2747 6.93225 36.6512 7.03465 36.9739 7.23944C37.2986 7.44423 37.551 7.73176 37.731 8.10204C37.913 8.47231 38.004 8.90568 38.004 9.40214C38.004 9.89446 37.913 10.3247 37.731 10.6929C37.551 11.0611 37.2986 11.3476 36.9739 11.5524C36.6512 11.7572 36.2747 11.8596 35.8444 11.8596ZM35.8444 11.2018C36.1713 11.2018 36.4402 11.118 36.6512 10.9505C36.8622 10.7829 37.0183 10.5626 37.1197 10.2896C37.2211 10.0165 37.2717 9.7207 37.2717 9.40214C37.2717 9.08358 37.2211 8.78673 37.1197 8.51161C37.0183 8.23649 36.8622 8.01412 36.6512 7.8445C36.4402 7.67487 36.1713 7.59006 35.8444 7.59006C35.5176 7.59006 35.2487 7.67487 35.0377 7.8445C34.8267 8.01412 34.6705 8.23649 34.5691 8.51161C34.4678 8.78673 34.4171 9.08358 34.4171 9.40214C34.4171 9.7207 34.4678 10.0165 34.5691 10.2896C34.6705 10.5626 34.8267 10.7829 35.0377 10.9505C35.2487 11.118 35.5176 11.2018 35.8444 11.2018ZM39.9317 11.7603L38.1941 5.40564H38.976L40.304 10.5812H40.3661L41.7189 5.40564H42.5877L43.9406 10.5812H44.0026L45.3307 5.40564H46.1126L44.375 11.7603H43.5806L42.1781 6.69644H42.1285L40.726 11.7603H39.9317ZM47.7043 8.89327V11.7603H46.9721V5.40564H47.7043V7.739H47.7664C47.8781 7.49284 48.0457 7.29736 48.2691 7.15256C48.4945 7.00569 48.7945 6.93225 49.1689 6.93225C49.4937 6.93225 49.7781 6.99741 50.0222 7.12774C50.2663 7.25599 50.4556 7.45354 50.59 7.72038C50.7265 7.98516 50.7948 8.32234 50.7948 8.73192V11.7603H50.0625V8.78156C50.0625 8.40301 49.9643 8.11031 49.7678 7.90345C49.5733 7.69453 49.3034 7.59006 48.9579 7.59006C48.718 7.59006 48.5028 7.64074 48.3125 7.7421C48.1243 7.84346 47.9753 7.99137 47.8657 8.18581C47.7581 8.38026 47.7043 8.61608 47.7043 8.89327ZM52.1345 11.7603V6.99431H52.8667V11.7603H52.1345ZM52.5068 6.19998C52.3641 6.19998 52.241 6.15137 52.1376 6.05414C52.0362 5.95692 51.9855 5.84005 51.9855 5.70352C51.9855 5.56699 52.0362 5.45012 52.1376 5.3529C52.241 5.25567 52.3641 5.20706 52.5068 5.20706C52.6495 5.20706 52.7716 5.25567 52.8729 5.3529C52.9764 5.45012 53.0281 5.56699 53.0281 5.70352C53.0281 5.84005 52.9764 5.95692 52.8729 6.05414C52.7716 6.15137 52.6495 6.19998 52.5068 6.19998ZM54.9402 5.40564V11.7603H54.208V5.40564H54.9402ZM58.2797 11.8596C57.8205 11.8596 57.4243 11.7582 57.0913 11.5555C56.7603 11.3507 56.5049 11.0653 56.3249 10.6991C56.147 10.3309 56.058 9.90273 56.058 9.41455C56.058 8.92636 56.147 8.4961 56.3249 8.12376C56.5049 7.74934 56.7552 7.45767 57.0758 7.24875C57.3985 7.03775 57.775 6.93225 58.2052 6.93225C58.4535 6.93225 58.6986 6.97363 58.9406 7.05637C59.1826 7.13911 59.4029 7.27357 59.6015 7.45974C59.8001 7.64385 59.9583 7.88794 60.0763 8.19202C60.1942 8.4961 60.2531 8.87051 60.2531 9.31526V9.62554H56.5793V8.99256H59.5084C59.5084 8.72364 59.4546 8.48369 59.3471 8.27269C59.2416 8.0617 59.0906 7.89518 58.8941 7.77313C58.6996 7.65109 58.47 7.59006 58.2052 7.59006C57.9136 7.59006 57.6612 7.66246 57.4481 7.80726C57.2371 7.94999 57.0747 8.13617 56.961 8.36578C56.8472 8.59539 56.7903 8.84155 56.7903 9.10426V9.52625C56.7903 9.88618 56.8524 10.1913 56.9765 10.4416C57.1027 10.6898 57.2775 10.8791 57.5009 11.0094C57.7243 11.1377 57.9839 11.2018 58.2797 11.2018C58.4721 11.2018 58.6458 11.1749 58.801 11.1211C58.9582 11.0653 59.0937 10.9825 59.2074 10.8729C59.3212 10.7612 59.4091 10.6226 59.4712 10.4571L60.1786 10.6557C60.1042 10.8956 59.979 11.1066 59.8032 11.2887C59.6274 11.4686 59.4102 11.6093 59.1516 11.7107C58.893 11.81 58.6024 11.8596 58.2797 11.8596Z" fill="#1E1E1E"/>
<path d="M44.9546 57.6555C46.4146 59.3455 47.4446 60.8255 47.5046 62.6555C47.7946 63.7055 49.7846 64.5155 47.5046 67.6555C46.5546 68.1755 46.3846 69.8855 44.9546 71.2755C43.0546 75.0555 40.5446 73.3055 40.9546 71.2755C40.3746 69.9055 39.2246 69.4455 36.9546 67.6555C34.4046 63.4855 34.8646 64.4355 36.9546 62.6555C37.5746 61.3655 39.1746 58.8355 40.9546 57.6555C41.0946 53.2955 42.8246 55.7655 44.9546 57.6555Z" fill="white"/>
<path d="M44.9546 57.6555C46.0146 59.4155 46.7846 61.5655 47.5046 62.6555M44.9546 57.6555C45.8746 59.6855 46.9546 61.5255 47.5046 62.6555M44.9546 57.6555C42.1046 55.8955 43.4746 55.3655 40.9546 57.6555M44.9546 57.6555C43.4546 55.2055 42.8946 55.3855 40.9546 57.6555M47.5046 62.6555C48.6746 64.1855 49.7646 66.0355 47.5046 67.6555M47.5046 62.6555C50.1146 64.9455 48.5946 64.1555 47.5046 67.6555M47.5046 67.6555C46.6546 68.4955 46.0046 69.4055 44.9546 71.2755M47.5046 67.6555C46.8546 68.5855 46.1046 69.5855 44.9546 71.2755M44.9546 71.2755C43.2046 73.9855 42.4946 73.0955 40.9546 71.2755M44.9546 71.2755C42.1346 72.6455 42.0646 73.8855 40.9546 71.2755M40.9546 71.2755C39.9446 70.4355 39.1146 69.6455 36.9546 67.6555M40.9546 71.2755C40.0446 70.5655 38.9846 69.4855 36.9546 67.6555M36.9546 67.6555C35.8846 64.4555 35.1446 65.3055 36.9546 62.6555M36.9546 67.6555C34.6346 65.0255 35.3646 64.7755 36.9546 62.6555M36.9546 62.6555C37.8046 61.6655 39.2246 60.2655 40.9546 57.6555M36.9546 62.6555C38.0546 61.3155 38.7946 60.2655 40.9546 57.6555" stroke="#1E1E1E" stroke-linecap="round"/>
<path d="M38.2814 69.1015C37.4914 70.0315 34.8614 73.2615 34.1014 75.1815C33.3514 77.0915 33.9514 79.7315 33.7714 80.6015M39.0714 70.0915C38.1914 70.8815 34.5414 72.8615 33.6314 74.4815C32.7214 76.0915 33.7214 78.9415 33.6114 79.7615" stroke="#1E1E1E" stroke-linecap="round"/>
<path d="M47.0092 69.4183C47.8892 70.4183 51.1392 72.7783 51.9692 74.5083C52.7992 76.2483 51.9292 79.0383 51.9892 79.8483M46.3092 69.2083C47.1892 70.0883 50.5892 72.1483 51.7192 73.7683C52.8492 75.3883 52.9892 77.9183 53.0992 78.9183" stroke="#1E1E1E" stroke-linecap="round"/>
<path d="M40.2201 66.0033C39.9404 66.0033 39.6936 65.9326 39.4794 65.7913C39.2653 65.6486 39.0978 65.4476 38.9769 65.1883C38.856 64.9276 38.7956 64.6195 38.7956 64.2641C38.7956 63.9116 38.856 63.6057 38.9769 63.3465C39.0978 63.0872 39.2661 62.8869 39.4816 62.7456C39.6972 62.6043 39.9463 62.5337 40.2288 62.5337C40.4473 62.5337 40.6199 62.5701 40.7467 62.6429C40.8748 62.7143 40.9724 62.7959 41.0394 62.8877C41.1079 62.978 41.1611 63.0522 41.1989 63.1105H41.2426V61.4588H41.7583V65.9333H41.2601V65.4177H41.1989C41.1611 65.4789 41.1072 65.5561 41.0372 65.6493C40.9673 65.7411 40.8676 65.8234 40.7379 65.8962C40.6083 65.9676 40.4357 66.0033 40.2201 66.0033ZM40.29 65.5401C40.4969 65.5401 40.6716 65.4862 40.8144 65.3784C40.9571 65.2692 41.0656 65.1184 41.1399 64.9261C41.2142 64.7324 41.2514 64.5088 41.2514 64.2554C41.2514 64.0048 41.2149 63.7856 41.1421 63.5977C41.0693 63.4084 40.9615 63.2613 40.8188 63.1564C40.676 63.0501 40.4998 62.9969 40.29 62.9969C40.0715 62.9969 39.8895 63.053 39.7438 63.1651C39.5996 63.2758 39.4911 63.4266 39.4183 63.6174C39.3469 63.8067 39.3112 64.0194 39.3112 64.2554C39.3112 64.4943 39.3476 64.7113 39.4204 64.9065C39.4947 65.1002 39.604 65.2546 39.7482 65.3697C39.8938 65.4833 40.0745 65.5401 40.29 65.5401ZM44.1376 66.0033C43.8346 66.0033 43.5688 65.9312 43.3401 65.787C43.1129 65.6428 42.9352 65.441 42.807 65.1818C42.6803 64.9225 42.6169 64.6195 42.6169 64.2729C42.6169 63.9233 42.6803 63.6181 42.807 63.3574C42.9352 63.0967 43.1129 62.8942 43.3401 62.75C43.5688 62.6058 43.8346 62.5337 44.1376 62.5337C44.4405 62.5337 44.7056 62.6058 44.9329 62.75C45.1615 62.8942 45.3392 63.0967 45.466 63.3574C45.5941 63.6181 45.6582 63.9233 45.6582 64.2729C45.6582 64.6195 45.5941 64.9225 45.466 65.1818C45.3392 65.441 45.1615 65.6428 44.9329 65.787C44.7056 65.9312 44.4405 66.0033 44.1376 66.0033ZM44.1376 65.5401C44.3677 65.5401 44.5571 65.4811 44.7056 65.3631C44.8542 65.2451 44.9642 65.09 45.0355 64.8977C45.1069 64.7055 45.1426 64.4972 45.1426 64.2729C45.1426 64.0485 45.1069 63.8395 45.0355 63.6458C44.9642 63.4521 44.8542 63.2955 44.7056 63.1761C44.5571 63.0566 44.3677 62.9969 44.1376 62.9969C43.9074 62.9969 43.7181 63.0566 43.5695 63.1761C43.4209 63.2955 43.311 63.4521 43.2396 63.6458C43.1682 63.8395 43.1325 64.0485 43.1325 64.2729C43.1325 64.4972 43.1682 64.7055 43.2396 64.8977C43.311 65.09 43.4209 65.2451 43.5695 65.3631C43.7181 65.4811 43.9074 65.5401 44.1376 65.5401Z" fill="#1E1E1E"/>
<path d="M35.1155 65.2233C33.2055 64.2733 26.7955 62.7733 24.4055 59.7033C22.0255 56.6233 19.8255 49.4233 20.8055 46.7533C21.7955 44.0933 28.7155 44.3133 30.3255 43.7033M35.9155 64.8833C33.8955 63.9733 26.2655 63.2533 23.9355 60.2933C21.5955 57.3233 20.7955 50.0033 21.8955 47.0833C22.9855 44.1633 29.1655 43.4333 30.5055 42.7933" stroke="#1E1E1E" stroke-linecap="round"/>
<path d="M28.131 43.5581L28.0189 42.7744C28.7225 42.6737 29.1923 42.456 29.4282 42.1212C29.6682 41.7859 29.7388 41.2727 29.6399 40.5817L29.3505 38.5593C29.2673 37.9778 29.25 37.4665 29.2986 37.0252C29.3515 36.5834 29.4844 36.2053 29.6974 35.8911C29.9104 35.5768 30.218 35.3221 30.62 35.127C31.022 34.9318 31.5328 34.7899 32.1521 34.7013L32.3294 35.94C31.8407 36.01 31.466 36.141 31.2054 36.3331C30.949 36.5246 30.7848 36.7889 30.7126 37.126C30.6441 37.4583 30.6451 37.8709 30.7156 38.3639L31.0775 40.8919C31.1245 41.2206 31.1231 41.5261 31.0732 41.8084C31.0275 42.0901 30.9027 42.3445 30.6987 42.5714C30.4947 42.7984 30.1853 42.9953 29.7706 43.1622C29.3602 43.3284 28.8136 43.4604 28.131 43.5581ZM34.4678 50.8809C33.8484 50.9695 33.3184 50.9766 32.8777 50.902C32.4371 50.8275 32.0705 50.6693 31.7779 50.4274C31.4853 50.1855 31.2516 49.8599 31.077 49.4506C30.9065 49.0407 30.7797 48.5451 30.6965 47.9636L30.407 45.9412C30.3081 45.2502 30.0964 44.7774 29.7719 44.5229C29.4516 44.2677 28.9396 44.1905 28.236 44.2912L28.1238 43.5075C28.8064 43.4098 29.368 43.3832 29.8086 43.4276C30.2535 43.4715 30.6056 43.5737 30.8651 43.7343C31.1246 43.895 31.3158 44.1041 31.4386 44.3617C31.5657 44.6187 31.6527 44.9115 31.6998 45.2402L32.0616 47.7682C32.1322 48.2612 32.2469 48.6576 32.4059 48.9573C32.5691 49.2564 32.8006 49.4619 33.1004 49.5738C33.405 49.6893 33.8017 49.7121 34.2905 49.6421L34.4678 50.8809ZM28.236 44.2912L28.0189 42.7744L29.5104 42.5609L29.7275 44.0777L28.236 44.2912Z" fill="#1E1E1E"/>
<path d="M47.5068 65.0165C49.4568 64.1065 57.0168 63.0865 59.6168 59.8865C62.2068 56.6965 64.1468 48.8065 63.0768 45.8365C62.0068 42.8665 54.7968 42.6165 53.1868 42.0565M48.2668 65.9365C50.1768 64.8965 56.8168 62.4365 59.2568 59.1765C61.6868 55.9165 63.9068 49.1965 62.8768 46.3865C61.8468 43.5765 54.4968 42.9365 53.0768 42.3165" stroke="#1E1E1E" stroke-linecap="round"/>
<path d="M55.8071 42.4295L55.8253 43.221C55.1147 43.2374 54.6224 43.3977 54.3484 43.702C54.0702 44.0065 53.9391 44.5076 53.9552 45.2055L54.0022 47.248C54.0157 47.8352 53.9721 48.345 53.8713 48.7773C53.7663 49.2097 53.5894 49.5693 53.3406 49.856C53.0917 50.1428 52.7561 50.3591 52.3337 50.5051C51.9113 50.651 51.3874 50.7312 50.7619 50.7456L50.7331 49.4946C51.2267 49.4832 51.6143 49.3977 51.8958 49.2379C52.1731 49.0782 52.3677 48.8353 52.4794 48.5092C52.5869 48.1874 52.6349 47.7776 52.6235 47.2797L52.5647 44.7266C52.5571 44.3947 52.5948 44.0915 52.6779 43.8171C52.7567 43.5428 52.9109 43.3051 53.1404 43.104C53.37 42.9029 53.7005 42.7441 54.1321 42.6277C54.5594 42.5115 55.1178 42.4454 55.8071 42.4295ZM50.3857 34.4055C51.0112 34.3911 51.5383 34.4471 51.9669 34.5735C52.3956 34.6998 52.7408 34.9005 53.0026 35.1755C53.2644 35.4504 53.4577 35.8015 53.5824 36.2286C53.703 36.6559 53.77 37.1631 53.7835 37.7503L53.8305 39.7928C53.8466 40.4907 54.0006 40.9853 54.2926 41.2766C54.5803 41.568 55.0794 41.7055 55.7901 41.6891L55.8083 42.4806C55.1189 42.4965 54.5582 42.4562 54.1259 42.3597C53.6894 42.2633 53.3519 42.1199 53.1134 41.9296C52.8748 41.7392 52.7099 41.5088 52.6185 41.2385C52.5229 40.9682 52.4712 40.6671 52.4636 40.3352L52.4048 37.782C52.3934 37.2842 52.3265 36.877 52.2043 36.5605C52.0778 36.2441 51.8723 36.0125 51.588 35.8658C51.2992 35.7149 50.9081 35.6452 50.4145 35.6565L50.3857 34.4055ZM55.7901 41.6891L55.8253 43.221L54.319 43.2557L54.2837 41.7238L55.7901 41.6891Z" fill="#1E1E1E"/>
<path fill-rule="evenodd" clip-rule="evenodd" d="M40.5281 42.9411C39.6681 42.8211 37.5581 43.8411 36.4881 43.7111C35.4081 43.5911 33.9181 42.9111 34.0781 42.1911C34.2481 41.4811 35.2081 39.0711 37.4981 39.4311C39.7881 39.7811 45.9881 44.1011 47.8381 44.3511C49.6981 44.5911 48.9881 41.9111 48.6381 40.9011C48.2881 39.8911 46.7581 37.5411 45.7381 38.3011C44.7281 39.0611 43.1981 44.2511 42.5481 45.4511" fill="white"/>
<path d="M41.5681 43.9611C40.8681 44.0111 38.2781 45.1711 37.2181 44.8411C36.1481 44.5211 34.7881 42.9311 35.1781 42.0111C35.5681 41.0811 37.6781 38.7611 39.5581 39.3011C41.4381 39.8511 44.9181 44.7811 46.4681 45.2611C48.0181 45.7311 48.8481 43.1311 48.8581 42.1711C48.8681 41.2111 47.7181 39.2311 46.5181 39.4911C45.3081 39.7411 42.4881 43.0011 41.6381 43.6911M41.0581 43.4311C40.5081 43.7711 39.2781 45.4411 38.2281 45.3011C37.1781 45.1611 34.4681 43.5311 34.7481 42.5911C35.0281 41.6411 37.8181 39.1611 39.8981 39.6111C41.9881 40.0611 45.7181 44.9311 47.2681 45.2711C48.8281 45.6111 49.3381 42.6911 49.2281 41.6311C49.1281 40.5811 47.9481 38.6611 46.6381 38.9411C45.3281 39.2311 42.3381 42.4211 41.3581 43.3511" stroke="#1E1E1E" stroke-linecap="round"/>
<path d="M38.4993 41.4124C38.5293 41.7124 38.6493 42.9324 38.6793 43.2424" stroke="#1E1E1E" stroke-width="0.5" stroke-linecap="round"/>
<path d="M46.6497 41.2776C46.6797 41.5776 46.7997 42.7976 46.8297 43.1076" stroke="#1E1E1E" stroke-width="0.5" stroke-linecap="round"/>
<path d="M50.5286 80.1507C51.3886 80.1007 54.4686 80.0707 55.2386 80.0807M50.2586 80.7907C51.2286 80.7907 54.9886 80.4607 55.9086 80.4207" stroke="#1E1E1E" stroke-linecap="round"/>
<path d="M31.0485 80.7416C31.8185 80.7416 35.3185 80.7116 36.1885 80.7416M31.5685 81.4016C32.4185 81.4816 35.8985 81.1616 36.8185 81.1516" stroke="#1E1E1E" stroke-linecap="round"/>
</svg>
