<svg width="86" height="126" viewBox="0 0 86 126" fill="none" xmlns="http://www.w3.org/2000/svg">
<path d="M23.0181 2.25452C33.5081 4.86452 46.6081 4.99452 63.4181 2.25452C76.4481 3.76452 83.6781 12.5245 83.6181 22.4545C81.8681 51.6045 80.8381 79.0045 83.6181 104.005C87.1081 117.945 78.9381 126.355 63.4181 124.205C56.6581 121.645 48.4181 124.875 23.0181 124.205C7.24813 124.715 3.25813 117.555 2.81813 104.005C6.38813 76.7045 4.86813 57.1145 2.81813 22.4545C-0.541872 11.9645 8.07813 3.85452 23.0181 2.25452Z" fill="white"/>
<path d="M23.0182 2.25453C32.7182 2.06453 46.0381 1.74453 63.4181 2.25453M23.0182 2.25453C32.4082 2.44453 43.7681 1.82453 63.4181 2.25453M23.0182 2.25453C9.35815 2.12453 3.00815 10.1045 2.81815 22.4545M23.0182 2.25453C8.12815 1.16453 0.93815 9.09453 2.81815 22.4545M63.4181 2.25453C77.6281 2.41453 82.2582 9.72453 83.6182 22.4545M63.4181 2.25453C78.1581 1.53453 83.8782 9.20453 83.6182 22.4545M83.6182 22.4545C83.7182 48.8045 85.7682 73.9745 83.6182 104.005M83.6182 22.4545C83.8982 45.4345 84.2982 68.0445 83.6182 104.005M83.6182 104.005C81.6982 117.105 77.4981 122.285 63.4181 124.205M83.6182 104.005C84.0482 116.545 75.1981 123.065 63.4181 124.205M63.4181 124.205C55.2381 123.815 44.8782 124.265 23.0182 124.205M63.4181 124.205C51.1581 123.455 40.3981 123.265 23.0182 124.205M23.0182 124.205C9.73815 122.425 2.48815 116.075 2.81815 104.005M23.0182 124.205C10.5082 124.365 4.07815 115.845 2.81815 104.005M2.81815 104.005C2.35815 82.5245 0.49815 57.4245 2.81815 22.4545M2.81815 104.005C2.26815 87.2345 1.81815 69.1145 2.81815 22.4545" stroke="#1E1E1E" stroke-width="2" stroke-linecap="round"/>
<path d="M11.6334 90.4771C22.6234 90.4771 66.6034 90.4771 77.5934 90.4771" stroke="#1E1E1E" stroke-width="2" stroke-linecap="round"/>
<path d="M24.3457 2.14136C37.5457 2.14136 50.7457 2.14136 60.7357 2.14136C63.2157 2.14136 64.4657 3.38136 64.4657 5.87136C64.4657 8.18136 64.4657 10.5014 64.4657 13.3214C64.4657 15.8014 63.2157 17.0414 60.7357 17.0414C51.9857 17.0414 43.2357 17.0414 24.3457 17.0414C21.8557 17.0414 20.6157 15.8014 20.6157 13.3214C20.6157 11.6114 20.6157 9.90136 20.6157 5.87136C20.6157 3.38136 21.8557 2.14136 24.3457 2.14136Z" fill="white"/>
<path d="M24.3457 2.14136C34.8057 2.14136 45.2757 2.14136 60.7357 2.14136M24.3457 2.14136C36.7957 2.14136 49.2557 2.14136 60.7357 2.14136M24.3457 2.14136C21.8557 2.14136 20.6157 3.38136 20.6157 5.87136M60.7357 2.14136C63.2157 2.14136 64.4657 3.38136 64.4657 5.87136M64.4657 5.87136C64.4657 7.96136 64.4657 10.0514 64.4657 13.3214M64.4657 5.87136C64.4657 8.12136 64.4657 10.3814 64.4657 13.3214M64.4657 13.3214C64.4657 15.8014 63.2157 17.0414 60.7357 17.0414M60.7357 17.0414C50.3657 17.0414 39.9857 17.0414 24.3457 17.0414M60.7357 17.0414C52.2957 17.0414 43.8457 17.0414 24.3457 17.0414M24.3457 17.0414C21.8557 17.0414 20.6157 15.8014 20.6157 13.3214M20.6157 13.3214C20.6157 10.7614 20.6157 8.20136 20.6157 5.87136M20.6157 13.3214C20.6157 10.7614 20.6157 8.21136 20.6157 5.87136" stroke="#1E1E1E" stroke-width="2" stroke-linecap="round"/>
<path d="M30.7759 7.0241L29.0134 11.7901H28.2688L26.5063 7.0241H27.3007L28.6163 10.822H28.6659L29.9815 7.0241H30.7759ZM33.57 11.8894C33.1108 11.8894 32.7146 11.788 32.3816 11.5853C32.0506 11.3805 31.7952 11.0951 31.6152 10.7289C31.4373 10.3607 31.3483 9.93252 31.3483 9.44433C31.3483 8.95615 31.4373 8.52588 31.6152 8.15354C31.7952 7.77913 32.0455 7.48746 32.3661 7.27853C32.6888 7.06754 33.0653 6.96204 33.4955 6.96204C33.7438 6.96204 33.9889 7.00341 34.2309 7.08615C34.4729 7.1689 34.6932 7.30336 34.8918 7.48953C35.0904 7.67363 35.2486 7.91772 35.3666 8.2218C35.4845 8.52588 35.5434 8.9003 35.5434 9.34504V9.65533H31.8696V9.02234H34.7987C34.7987 8.75343 34.7449 8.51347 34.6374 8.30248C34.5319 8.09148 34.3809 7.92496 34.1844 7.80292C33.9899 7.68087 33.7603 7.61985 33.4955 7.61985C33.2039 7.61985 32.9515 7.69225 32.7384 7.83705C32.5274 7.97978 32.3651 8.16595 32.2513 8.39556C32.1375 8.62518 32.0806 8.87134 32.0806 9.13405V9.55604C32.0806 9.91597 32.1427 10.2211 32.2668 10.4714C32.393 10.7196 32.5678 10.9089 32.7912 11.0392C33.0146 11.1675 33.2742 11.2316 33.57 11.2316C33.7624 11.2316 33.9361 11.2047 34.0913 11.1509C34.2485 11.0951 34.384 11.0123 34.4978 10.9027C34.6115 10.791 34.6994 10.6524 34.7615 10.4869L35.469 10.6855C35.3945 10.9254 35.2693 11.1364 35.0935 11.3185C34.9177 11.4984 34.7005 11.6391 34.4419 11.7405C34.1833 11.8397 33.8927 11.8894 33.57 11.8894ZM38.7301 7.0241V7.64467H36.2602V7.0241H38.7301ZM36.98 5.88224H37.7123V10.4248C37.7123 10.6317 37.7423 10.7868 37.8023 10.8903C37.8644 10.9916 37.943 11.0599 38.0381 11.0951C38.1353 11.1282 38.2377 11.1447 38.3453 11.1447C38.426 11.1447 38.4922 11.1406 38.5439 11.1323C38.5956 11.1219 38.637 11.1137 38.668 11.1075L38.8169 11.7653C38.7673 11.7839 38.698 11.8025 38.6091 11.8211C38.5201 11.8418 38.4074 11.8522 38.2708 11.8522C38.064 11.8522 37.8613 11.8077 37.6627 11.7187C37.4662 11.6298 37.3027 11.4943 37.1724 11.3123C37.0442 11.1302 36.98 10.9006 36.98 10.6234V5.88224ZM41.7166 11.8894C41.2863 11.8894 40.9088 11.787 40.584 11.5822C40.2613 11.3774 40.009 11.0909 39.8269 10.7227C39.647 10.3545 39.557 9.92424 39.557 9.43192C39.557 8.93546 39.647 8.5021 39.8269 8.13182C40.009 7.76154 40.2613 7.47401 40.584 7.26922C40.9088 7.06443 41.2863 6.96204 41.7166 6.96204C42.1468 6.96204 42.5233 7.06443 42.846 7.26922C43.1708 7.47401 43.4232 7.76154 43.6031 8.13182C43.7852 8.5021 43.8762 8.93546 43.8762 9.43192C43.8762 9.92424 43.7852 10.3545 43.6031 10.7227C43.4232 11.0909 43.1708 11.3774 42.846 11.5822C42.5233 11.787 42.1468 11.8894 41.7166 11.8894ZM41.7166 11.2316C42.0434 11.2316 42.3123 11.1478 42.5233 10.9803C42.7343 10.8127 42.8905 10.5924 42.9919 10.3193C43.0932 10.0463 43.1439 9.75048 43.1439 9.43192C43.1439 9.11336 43.0932 8.81652 42.9919 8.5414C42.8905 8.26628 42.7343 8.04391 42.5233 7.87428C42.3123 7.70466 42.0434 7.61985 41.7166 7.61985C41.3897 7.61985 41.1208 7.70466 40.9098 7.87428C40.6988 8.04391 40.5427 8.26628 40.4413 8.5414C40.3399 8.81652 40.2893 9.11336 40.2893 9.43192C40.2893 9.75048 40.3399 10.0463 40.4413 10.3193C40.5427 10.5924 40.6988 10.8127 40.9098 10.9803C41.1208 11.1478 41.3897 11.2316 41.7166 11.2316ZM44.994 11.7901V7.0241H45.7014V7.74396H45.7511C45.838 7.50814 45.9952 7.3168 46.2227 7.16993C46.4503 7.02306 46.7068 6.94963 46.9922 6.94963C47.046 6.94963 47.1132 6.95066 47.1939 6.95273C47.2746 6.9548 47.3356 6.9579 47.377 6.96204V7.70673C47.3522 7.70052 47.2953 7.69121 47.2063 7.6788C47.1194 7.66432 47.0274 7.65708 46.9302 7.65708C46.6985 7.65708 46.4916 7.70569 46.3096 7.80292C46.1296 7.89807 45.9869 8.03046 45.8814 8.20008C45.778 8.36764 45.7263 8.55898 45.7263 8.77411V11.7901H44.994ZM48.245 11.7901V7.0241H48.9773V11.7901H48.245ZM48.6173 6.22976C48.4746 6.22976 48.3515 6.18115 48.2481 6.08393C48.1467 5.98671 48.0961 5.86983 48.0961 5.7333C48.0961 5.59678 48.1467 5.4799 48.2481 5.38268C48.3515 5.28546 48.4746 5.23685 48.6173 5.23685C48.7601 5.23685 48.8821 5.28546 48.9835 5.38268C49.0869 5.4799 49.1386 5.59678 49.1386 5.7333C49.1386 5.86983 49.0869 5.98671 48.9835 6.08393C48.8821 6.18115 48.7601 6.22976 48.6173 6.22976ZM51.721 11.9018C51.419 11.9018 51.1449 11.8449 50.8987 11.7311C50.6526 11.6153 50.4571 11.4488 50.3123 11.2316C50.1675 11.0123 50.0951 10.7475 50.0951 10.4373C50.0951 10.1642 50.1489 9.94286 50.2564 9.77324C50.364 9.60154 50.5078 9.46709 50.6877 9.36986C50.8677 9.27264 51.0663 9.20024 51.2835 9.15266C51.5028 9.10302 51.7231 9.06371 51.9444 9.03475C52.234 8.99752 52.4688 8.96959 52.6487 8.95098C52.8308 8.93029 52.9632 8.89616 53.0459 8.84858C53.1307 8.80101 53.1731 8.71826 53.1731 8.60035V8.57553C53.1731 8.26938 53.0894 8.03149 52.9218 7.86187C52.7563 7.69225 52.505 7.60744 52.1678 7.60744C51.8182 7.60744 51.5441 7.68397 51.3455 7.83705C51.147 7.99012 51.0073 8.15354 50.9267 8.3273L50.2316 8.07907C50.3557 7.78947 50.5212 7.564 50.7281 7.40265C50.937 7.23923 51.1645 7.12546 51.4107 7.06133C51.6589 6.99514 51.903 6.96204 52.143 6.96204C52.2961 6.96204 52.4719 6.98066 52.6705 7.01789C52.8711 7.05306 53.0645 7.12649 53.2507 7.23819C53.4389 7.3499 53.5951 7.51849 53.7192 7.74396C53.8434 7.96944 53.9054 8.27145 53.9054 8.65V11.7901H53.1731V11.1447H53.1359C53.0863 11.2481 53.0035 11.3588 52.8877 11.4767C52.7718 11.5946 52.6177 11.6949 52.4253 11.7777C52.233 11.8604 51.9982 11.9018 51.721 11.9018ZM51.8327 11.244C52.1223 11.244 52.3664 11.1871 52.565 11.0733C52.7656 10.9596 52.9166 10.8127 53.018 10.6327C53.1214 10.4528 53.1731 10.2635 53.1731 10.0649V9.39469C53.1421 9.43192 53.0738 9.46605 52.9683 9.49708C52.8649 9.52604 52.7449 9.5519 52.6084 9.57465C52.474 9.59534 52.3426 9.61396 52.2143 9.63051C52.0882 9.64499 51.9858 9.6574 51.9072 9.66774C51.7169 9.69256 51.539 9.7329 51.3735 9.78875C51.2101 9.84253 51.0777 9.92424 50.9763 10.0339C50.877 10.1414 50.8274 10.2883 50.8274 10.4745C50.8274 10.7289 50.9215 10.9213 51.1097 11.0516C51.3 11.1799 51.541 11.244 51.8327 11.244ZM55.9742 5.43543V11.7901H55.242V5.43543H55.9742Z" fill="#1E1E1E"/>
<path d="M46.8853 35.6688C50.9953 36.1088 56.2653 39.8988 59.2053 43.2488C62.1553 46.6088 64.3953 51.5988 64.5553 55.8188C64.7153 60.0488 62.9853 65.2588 60.1553 68.6088C57.3253 71.9588 51.8953 75.0788 47.5653 75.8988C43.2453 76.7288 37.9953 75.7588 34.1853 73.5588C30.3753 71.3688 26.2953 66.8188 24.6953 62.7288C23.0953 58.6488 23.1653 53.0888 24.5953 49.0388C26.0253 44.9888 29.2953 40.5988 33.2753 38.4388C37.2553 36.2788 45.8153 36.2688 48.4553 36.0688C51.0953 35.8588 49.1453 36.7888 49.1153 37.2188M44.1253 36.2688C48.2753 35.8788 53.5753 37.5088 56.8453 40.1288C60.1253 42.7588 63.0153 47.8088 63.7953 52.0188C64.5853 56.2288 63.4553 61.5788 61.5553 65.3888C59.6453 69.1988 56.2953 73.1588 52.3653 74.8688C48.4353 76.5788 42.4053 76.9388 37.9753 75.6288C33.5553 74.3188 28.2853 70.7088 25.8253 67.0188C23.3553 63.3288 22.5253 57.7688 23.1953 53.5088C23.8653 49.2388 26.4453 44.4388 29.8553 41.4188C33.2553 38.4088 41.3453 36.2388 43.6153 35.3988C45.8953 34.5588 43.5353 35.9488 43.5153 36.3688" fill="white"/>
<path d="M46.9253 35.7288C51.1653 36.0588 56.5953 39.5388 59.5153 42.8188C62.4353 46.0988 64.3253 51.0988 64.4553 55.3888C64.5853 59.6888 62.9153 65.2088 60.2953 68.5888C57.6753 71.9788 53.0853 74.8588 48.7353 75.7188C44.3753 76.5788 38.0953 75.8488 34.1753 73.7388C30.2653 71.6388 26.9053 67.0688 25.2653 63.0988C23.6153 59.1288 22.9553 53.9388 24.3253 49.9188C25.6853 45.8988 29.5553 41.2188 33.4353 38.9688C37.3253 36.7188 45.1753 36.8788 47.6153 36.4188C50.0553 35.9688 48.1553 35.9088 48.0753 36.2288M38.5753 36.0688C42.4553 34.8588 48.4753 35.7288 52.4953 37.7288C56.5153 39.7388 60.8553 44.1888 62.7153 48.1088C64.5753 52.0188 64.8853 57.1388 63.6853 61.2288C62.4753 65.3288 59.2153 70.2388 55.5053 72.6888C51.8053 75.1388 45.9353 76.4888 41.4453 75.9488C36.9453 75.4188 31.5353 72.6688 28.5353 69.4588C25.5253 66.2488 23.5753 61.0288 23.3953 56.6888C23.2253 52.3488 24.8653 46.8988 27.4653 43.4288C30.0753 39.9688 36.9953 37.0088 39.0053 35.9188C41.0153 34.8288 39.3653 36.5688 39.5353 36.8888" stroke="#1E1E1E" stroke-width="2" stroke-linecap="round"/>
<path d="M43.7037 45.1339C43.7137 48.9639 43.2737 64.5439 43.0637 68.4639M43.1937 44.6039C43.1837 48.5139 42.6737 65.3339 42.7437 69.1839" stroke="#1E1E1E" stroke-width="2" stroke-linecap="round"/>
<path d="M31.3884 56.9584C35.6684 57.0184 52.7584 57.1584 57.1684 57.1184M30.8284 56.5084C35.2584 56.4084 53.7384 56.1384 58.2084 56.2584" stroke="#1E1E1E" stroke-width="2" stroke-linecap="round"/>
</svg>
