<svg width="84" height="127" viewBox="0 0 84 127" fill="none" xmlns="http://www.w3.org/2000/svg">
<path d="M21.7849 2.69577C37.2649 5.32577 48.8548 4.94577 62.1848 2.69577C72.2848 3.89577 79.9449 9.37577 82.3849 22.8958C79.8049 43.3458 85.0349 65.2858 82.3849 104.446C80.7349 117.276 78.8348 126.776 62.1848 124.646C52.8248 122.386 40.0249 122.836 21.7849 124.646C10.1249 126.246 0.714851 116.266 1.58485 104.446C4.69485 85.4058 -0.125149 68.0658 1.58485 22.8958C-1.74515 8.98577 7.88485 2.41577 21.7849 2.69577Z" fill="white"/>
<path d="M21.7849 2.69578C38.6749 1.09578 50.8249 1.65578 62.1849 2.69578M21.7849 2.69578C31.1249 3.39578 39.7049 2.84578 62.1849 2.69578M21.7849 2.69578C7.59488 0.875783 0.454875 10.3058 1.58487 22.8958M21.7849 2.69578C8.44488 0.805783 1.80487 7.38578 1.58487 22.8958M62.1849 2.69578C75.8049 4.06578 83.3949 7.88578 82.3849 22.8958M62.1849 2.69578C77.3649 2.28578 83.8049 9.67578 82.3849 22.8958M82.3849 22.8958C82.5849 41.7258 82.3249 60.1858 82.3849 104.446M82.3849 22.8958C82.3249 41.4858 82.6849 61.9758 82.3849 104.446M82.3849 104.446C80.6049 119.326 77.1249 125.906 62.1849 124.646M82.3849 104.446C81.9449 118.046 73.4349 124.066 62.1849 124.646M62.1849 124.646C47.5349 123.756 38.2749 125.856 21.7849 124.646M62.1849 124.646C49.1049 123.926 34.8849 123.846 21.7849 124.646M21.7849 124.646C9.43488 123.236 1.12487 117.696 1.58487 104.446M21.7849 124.646C10.0049 124.906 0.724874 119.566 1.58487 104.446M1.58487 104.446C1.68487 76.6758 0.284875 46.8758 1.58487 22.8958M1.58487 104.446C0.684875 82.4558 1.38487 61.0158 1.58487 22.8958" stroke="#1E1E1E" stroke-width="2" stroke-linecap="round"/>
<path d="M10.4001 90.9183C21.3901 90.9183 65.3701 90.9183 76.3601 90.9183" stroke="#1E1E1E" stroke-width="2" stroke-linecap="round"/>
<path d="M9.66891 106.515C9.65891 105.615 9.63891 102.005 9.62891 101.105" stroke="#1E1E1E" stroke-linecap="round"/>
<path d="M9.59686 101.308C9.84686 100.948 10.8569 99.5282 11.1069 99.1682" stroke="#1E1E1E" stroke-linecap="round"/>
<path d="M12.5996 106.58C12.6096 105.68 12.6296 102.07 12.6396 101.17" stroke="#1E1E1E" stroke-linecap="round"/>
<path d="M12.6716 101.372C12.4216 101.012 11.4116 99.5924 11.1616 99.2324" stroke="#1E1E1E" stroke-linecap="round"/>
<path d="M7.4566 107.066C8.6366 107.046 13.3366 106.966 14.5066 106.946" stroke="#1E1E1E" stroke-linecap="round"/>
<path d="M11.3151 107.156C11.3251 107.786 11.3651 110.326 11.3751 110.956" stroke="#1E1E1E" stroke-linecap="round"/>
<path d="M52.7263 102.237C53.0863 101.867 54.5263 100.367 54.8863 99.9874" stroke="#1E1E1E" stroke-linecap="round"/>
<path d="M54.8818 99.9471C55.2818 100.277 56.8618 101.597 57.2618 101.927" stroke="#1E1E1E" stroke-linecap="round"/>
<path d="M57.3517 102.193C56.6617 103.253 53.9117 107.503 53.2217 108.573" stroke="#1E1E1E" stroke-linecap="round"/>
<path d="M52.7937 102.237C52.4337 101.867 50.9937 100.367 50.6337 99.9874" stroke="#1E1E1E" stroke-linecap="round"/>
<path d="M50.6382 99.9471C50.2382 100.277 48.6582 101.597 48.2582 101.927" stroke="#1E1E1E" stroke-linecap="round"/>
<path d="M48.1683 102.193C48.8583 103.253 51.6083 107.503 52.2983 108.573" stroke="#1E1E1E" stroke-linecap="round"/>
<path d="M23.1123 2.58258C32.3723 2.58258 41.6323 2.58258 59.5023 2.58258C61.9823 2.58258 63.2323 3.82258 63.2323 6.31258C63.2323 8.48258 63.2323 10.6626 63.2323 13.7626C63.2323 16.2426 61.9823 17.4826 59.5023 17.4826C48.6023 17.4826 37.7023 17.4826 23.1123 17.4826C20.6223 17.4826 19.3823 16.2426 19.3823 13.7626C19.3823 10.8726 19.3823 7.99258 19.3823 6.31258C19.3823 3.82258 20.6223 2.58258 23.1123 2.58258Z" fill="white"/>
<path d="M23.1123 2.58258C32.5123 2.58258 41.9123 2.58258 59.5023 2.58258M23.1123 2.58258C36.3223 2.58258 49.5323 2.58258 59.5023 2.58258M23.1123 2.58258C20.6223 2.58258 19.3823 3.82258 19.3823 6.31258M59.5023 2.58258C61.9823 2.58258 63.2323 3.82258 63.2323 6.31258M63.2323 6.31258C63.2323 9.11258 63.2323 11.9226 63.2323 13.7626M63.2323 6.31258C63.2323 8.46258 63.2323 10.6226 63.2323 13.7626M63.2323 13.7626C63.2323 16.2426 61.9823 17.4826 59.5023 17.4826M59.5023 17.4826C49.2723 17.4826 39.0423 17.4826 23.1123 17.4826M59.5023 17.4826C51.9023 17.4826 44.2923 17.4826 23.1123 17.4826M23.1123 17.4826C20.6223 17.4826 19.3823 16.2426 19.3823 13.7626M19.3823 13.7626C19.3823 11.5326 19.3823 9.31258 19.3823 6.31258M19.3823 13.7626C19.3823 12.0726 19.3823 10.3826 19.3823 6.31258" stroke="#1E1E1E" stroke-width="2" stroke-linecap="round"/>
<path d="M29.3088 9.05004L28.651 9.23621C28.6097 9.12658 28.5486 9.02005 28.468 8.91662C28.3894 8.81112 28.2818 8.72424 28.1453 8.65598C28.0087 8.58771 27.8339 8.55358 27.6209 8.55358C27.3292 8.55358 27.0861 8.62081 26.8917 8.75527C26.6993 8.88766 26.6031 9.05625 26.6031 9.26104C26.6031 9.44307 26.6693 9.58684 26.8017 9.69233C26.9341 9.79783 27.141 9.88575 27.4223 9.95608L28.1297 10.1298C28.5559 10.2333 28.8734 10.3915 29.0823 10.6046C29.2913 10.8156 29.3957 11.0876 29.3957 11.4206C29.3957 11.6937 29.3171 11.9378 29.1599 12.1529C29.0048 12.368 28.7876 12.5377 28.5083 12.6618C28.229 12.7859 27.9043 12.8479 27.534 12.8479C27.0479 12.8479 26.6455 12.7425 26.327 12.5315C26.0084 12.3205 25.8067 12.0122 25.7219 11.6068L26.417 11.433C26.4832 11.6895 26.6083 11.8819 26.7924 12.0102C26.9786 12.1384 27.2216 12.2026 27.5216 12.2026C27.8629 12.2026 28.1339 12.1302 28.3345 11.9854C28.5373 11.8385 28.6386 11.6627 28.6386 11.4579C28.6386 11.2924 28.5807 11.1538 28.4649 11.0421C28.349 10.9283 28.1711 10.8435 27.9312 10.7876L27.1368 10.6015C26.7004 10.498 26.3797 10.3377 26.1749 10.1205C25.9722 9.90126 25.8709 9.62717 25.8709 9.29827C25.8709 9.02935 25.9464 8.79147 26.0974 8.58461C26.2504 8.37775 26.4583 8.21537 26.721 8.09746C26.9858 7.97955 27.2858 7.9206 27.6209 7.9206C28.0925 7.9206 28.4628 8.02403 28.7317 8.23088C29.0027 8.43774 29.1951 8.71079 29.3088 9.05004ZM33.5016 10.8001V7.98265H34.2339V12.7487H33.5016V11.9419H33.4519C33.3402 12.1839 33.1665 12.3898 32.9307 12.5594C32.6948 12.7269 32.397 12.8107 32.037 12.8107C31.7392 12.8107 31.4744 12.7456 31.2427 12.6152C31.011 12.4828 30.829 12.2843 30.6966 12.0195C30.5642 11.7526 30.498 11.4165 30.498 11.0111V7.98265H31.2303V10.9614C31.2303 11.3089 31.3275 11.5861 31.522 11.793C31.7185 11.9998 31.9688 12.1033 32.2728 12.1033C32.4549 12.1033 32.64 12.0567 32.8283 11.9636C33.0186 11.8705 33.1778 11.7278 33.3061 11.5354C33.4364 11.3431 33.5016 11.0979 33.5016 10.8001ZM35.6744 12.7487V6.39399H36.4066V8.73975H36.4687C36.5225 8.65701 36.5969 8.55151 36.6921 8.42326C36.7893 8.29294 36.9279 8.1771 37.1079 8.07574C37.2899 7.97231 37.5361 7.9206 37.8464 7.9206C38.2477 7.9206 38.6014 8.02092 38.9075 8.22157C39.2137 8.42223 39.4526 8.70666 39.6243 9.07486C39.796 9.44307 39.8818 9.87747 39.8818 10.3781C39.8818 10.8828 39.796 11.3203 39.6243 11.6906C39.4526 12.0588 39.2147 12.3443 38.9107 12.547C38.6066 12.7476 38.2559 12.8479 37.8588 12.8479C37.5526 12.8479 37.3075 12.7973 37.1234 12.6959C36.9393 12.5925 36.7976 12.4756 36.6983 12.3453C36.599 12.2129 36.5225 12.1033 36.4687 12.0164H36.3818V12.7487H35.6744ZM36.3942 10.3657C36.3942 10.7256 36.447 11.0431 36.5525 11.3182C36.658 11.5913 36.8121 11.8054 37.0148 11.9605C37.2175 12.1136 37.4658 12.1901 37.7595 12.1901C38.0656 12.1901 38.3211 12.1095 38.5259 11.9481C38.7328 11.7847 38.8879 11.5654 38.9913 11.2903C39.0968 11.0131 39.1496 10.7049 39.1496 10.3657C39.1496 10.0305 39.0979 9.72853 38.9944 9.45962C38.8931 9.18864 38.739 8.97454 38.5321 8.81733C38.3273 8.65804 38.0698 8.5784 37.7595 8.5784C37.4616 8.5784 37.2113 8.65391 37.0086 8.80491C36.8059 8.95385 36.6528 9.16278 36.5494 9.43169C36.4459 9.69854 36.3942 10.0099 36.3942 10.3657ZM40.4039 7.07662V6.39399H45.1699V7.07662H43.1717V12.7487H42.4022V7.07662H40.4039ZM45.7633 12.7487V7.98265H46.4708V8.70252H46.5204C46.6073 8.4667 46.7645 8.27536 46.9921 8.12849C47.2196 7.98162 47.4761 7.90819 47.7616 7.90819C47.8154 7.90819 47.8826 7.90922 47.9633 7.91129C48.0439 7.91336 48.105 7.91646 48.1463 7.9206V8.66528C48.1215 8.65908 48.0646 8.64977 47.9757 8.63736C47.8888 8.62288 47.7967 8.61564 47.6995 8.61564C47.4678 8.61564 47.261 8.66425 47.0789 8.76147C46.899 8.85663 46.7562 8.98902 46.6508 9.15864C46.5473 9.3262 46.4956 9.51754 46.4956 9.73267V12.7487H45.7633ZM49.0144 12.7487V7.98265H49.7466V12.7487H49.0144ZM49.3867 7.18832C49.244 7.18832 49.1209 7.13971 49.0175 7.04249C48.9161 6.94526 48.8654 6.82839 48.8654 6.69186C48.8654 6.55534 48.9161 6.43846 49.0175 6.34124C49.1209 6.24401 49.244 6.1954 49.3867 6.1954C49.5294 6.1954 49.6515 6.24401 49.7528 6.34124C49.8563 6.43846 49.908 6.55534 49.908 6.69186C49.908 6.82839 49.8563 6.94526 49.7528 7.04249C49.6515 7.13971 49.5294 7.18832 49.3867 7.18832ZM53.0116 14.6352C52.6579 14.6352 52.3538 14.5897 52.0994 14.4987C51.845 14.4097 51.6329 14.2918 51.4633 14.1449C51.2957 14.0001 51.1623 13.845 51.063 13.6795L51.6464 13.2699C51.7126 13.3568 51.7963 13.4561 51.8977 13.5678C51.9991 13.6816 52.1377 13.7798 52.3135 13.8626C52.4914 13.9474 52.7241 13.9898 53.0116 13.9898C53.3964 13.9898 53.7139 13.8967 53.9642 13.7105C54.2145 13.5244 54.3397 13.2327 54.3397 12.8355V11.8674H54.2776C54.2238 11.9543 54.1473 12.0619 54.048 12.1901C53.9508 12.3163 53.8101 12.4291 53.626 12.5284C53.444 12.6256 53.1978 12.6742 52.8875 12.6742C52.5028 12.6742 52.1573 12.5832 51.8512 12.4011C51.5471 12.2191 51.3061 11.9543 51.1282 11.6068C50.9524 11.2593 50.8644 10.8373 50.8644 10.3408C50.8644 9.85265 50.9503 9.42756 51.122 9.06555C51.2937 8.70148 51.5326 8.42016 51.8387 8.22157C52.1449 8.02092 52.4986 7.9206 52.8999 7.9206C53.2102 7.9206 53.4564 7.97231 53.6384 8.07574C53.8225 8.1771 53.9632 8.29294 54.0604 8.42326C54.1597 8.55151 54.2362 8.65701 54.29 8.73975H54.3645V7.98265H55.0719V12.8852C55.0719 13.2948 54.9788 13.6278 54.7927 13.8843C54.6086 14.1429 54.3603 14.3322 54.048 14.4521C53.7377 14.5742 53.3922 14.6352 53.0116 14.6352ZM52.9868 12.0164C53.2805 12.0164 53.5288 11.9492 53.7315 11.8147C53.9342 11.6802 54.0883 11.4868 54.1938 11.2345C54.2993 10.9821 54.3521 10.6801 54.3521 10.3284C54.3521 9.98504 54.3004 9.68199 54.1969 9.41928C54.0935 9.15657 53.9404 8.95075 53.7377 8.80181C53.535 8.65287 53.2847 8.5784 52.9868 8.5784C52.6765 8.5784 52.4179 8.65701 52.2111 8.81422C52.0063 8.97143 51.8522 9.18243 51.7488 9.44721C51.6474 9.71199 51.5967 10.0057 51.5967 10.3284C51.5967 10.6594 51.6484 10.9521 51.7519 11.2065C51.8574 11.4589 52.0125 11.6575 52.2173 11.8023C52.4242 11.945 52.6807 12.0164 52.9868 12.0164Z" fill="#1E1E1E"/>
<path fill-rule="evenodd" clip-rule="evenodd" d="M49.3918 54.8969L72.5016 54.7233L49.5079 27.3428L49.562 54.1745" fill="white"/>
<path d="M49.3222 54.1878C54.2099 54.7215 59.6824 54.1372 71.5634 54.126M49.3222 54.1878C55.9045 54.3185 61.1292 53.8876 71.5634 54.126M49.3222 54.1878C48.9155 41.1721 48.5847 33.7459 48.8235 27.0221M49.3222 54.1878C49.0831 38.7796 49.2498 33.3769 48.8235 27.0221M71.5634 54.126C62.6123 43.7865 54.9472 34.6197 48.8235 27.0221M71.5634 54.126C65.949 47.2116 60.0818 40.8206 48.8235 27.0221" stroke="#1E1E1E" stroke-width="2" stroke-linecap="round"/>
<path d="M53.217 46.1258C53.2396 45.7653 54.0857 45.3033 54.5547 45.0689C55.0153 44.8232 55.3665 44.7029 56.0127 44.7069C56.659 44.7108 57.8774 44.8795 58.424 45.0811C58.9705 45.2826 59.19 45.5776 59.2919 45.916C59.3938 46.2544 59.3451 46.793 59.0553 47.1143C58.7656 47.4357 58.1182 47.7146 57.5351 47.8311C56.9505 47.9575 56.116 47.9967 55.5706 47.856C55.0154 47.7139 54.587 47.3276 54.2191 47.0108C53.8625 46.6855 53.4943 46.0958 53.3761 45.9369C53.248 45.7766 53.37 46.0472 53.4902 46.0548M53.4114 46.3161C53.3819 45.8974 53.9588 45.2038 54.38 44.8816C54.7929 44.548 55.2898 44.3986 55.935 44.3417C56.5786 44.2947 57.7141 44.3401 58.2449 44.5797C58.7644 44.8278 58.9376 45.3687 59.0873 45.795C59.2355 46.2311 59.2898 46.8253 59.1301 47.1556C58.9605 47.4845 58.7534 47.6562 58.0882 47.7809C57.4315 47.917 55.8387 48.0268 55.1743 47.9394C54.5001 47.8505 54.4631 47.5519 54.1022 47.2564C53.7427 46.9509 53.0998 46.4422 53.0302 46.159C52.9507 45.8745 53.5163 45.533 53.635 45.5504" fill="white"/>
<path d="M53.6322 46.2575C53.5105 45.9162 53.4776 45.6587 53.8607 45.3208C54.2538 44.9843 55.2575 44.3433 55.9594 44.2442C56.6513 44.1436 57.4947 44.3887 58.0549 44.7034C58.625 45.0196 59.1201 45.7088 59.342 46.1255C59.5624 46.552 59.5738 46.8872 59.3914 47.2344C59.2105 47.5717 58.8172 47.9789 58.2536 48.1691C57.7014 48.3508 56.6559 48.45 56.0369 48.3288C55.4264 48.2189 55.0262 47.8469 54.5849 47.4789C54.1452 47.101 53.547 46.3562 53.4122 46.1039C53.269 45.8403 53.679 45.8702 53.7736 45.9144M53.3299 46.1828C53.3513 45.7615 53.5946 44.6551 54.0482 44.3881C54.5032 44.1113 55.3446 44.5077 56.0444 44.5599C56.7329 44.6205 57.6416 44.4204 58.2146 44.7168C58.7862 45.0231 59.3795 45.9389 59.4442 46.3932C59.5202 46.8389 59.0085 47.158 58.6567 47.4197C58.2936 47.6898 57.8601 47.8889 57.3026 47.9688C56.7535 48.06 55.8879 48.1048 55.3454 47.9443C54.7931 47.7823 54.2773 47.3023 54.0113 46.9803C53.7551 46.6596 53.8444 46.2584 53.7675 46.0247C53.7005 45.7925 53.6699 45.6566 53.6094 45.5871" stroke="#1E1E1E" stroke-linecap="round"/>
<path d="M56.287 47.3036C56.3175 47.0959 56.5846 46.0334 56.5956 45.752M56.0089 46.7878C56.0846 46.617 56.8908 46.2199 56.9748 46.0604" stroke="#1E1E1E" stroke-linecap="round"/>
<path fill-rule="evenodd" clip-rule="evenodd" d="M49.0363 54.0151L49.3153 31.2194L21.0261 54.1849L49.6397 53.517" fill="white"/>
<path d="M49.0494 54.2549C48.9144 50.0863 48.1133 44.7064 48.9957 32.0137M49.0494 54.2549C49.4216 45.3292 49.332 37.0297 48.9957 32.0137M49.0494 54.2549C38.7294 54.3212 30.3547 55.5319 21.8835 54.7437M49.0494 54.2549C36.9849 53.9942 29.245 54.8065 21.8835 54.7437M48.9957 32.0137C39.0153 39.6161 30.3893 48.3108 21.8835 54.7437M48.9957 32.0137C40.7471 38.9832 32.2917 46.2055 21.8835 54.7437" stroke="#1E1E1E" stroke-width="2" stroke-linecap="round"/>
<path fill-rule="evenodd" clip-rule="evenodd" d="M31.8011 46.468L48.1583 31.6963L14.4936 25.8744L30.8273 46.2488" fill="white"/>
<path d="M30.9822 46.7179C36.2603 41.2544 42.0469 38.85 48.2616 32.7145M30.9822 46.7179C37.2402 42.014 43.0751 37.0502 48.2616 32.7145M30.9822 46.7179C21.6774 36.2073 17.6 30.2354 13.5487 25.878M30.9822 46.7179C25.0206 38.8007 19.3502 32.0189 13.5487 25.878M48.2616 32.7145C35.2579 30.5924 23.8968 27.616 13.5487 25.878M48.2616 32.7145C35.6185 30.3067 22.9101 27.4595 13.5487 25.878" stroke="#1E1E1E" stroke-width="2" stroke-linecap="round"/>
<path fill-rule="evenodd" clip-rule="evenodd" d="M22.6032 54.2677L45.0224 55.0451L22.6055 81.8428L21.4768 56.0198" fill="white"/>
<path d="M22.0497 55.1285C28.9748 55.845 36.0443 55.2284 44.2809 54.4593M22.0497 55.1285C27.1499 55.0901 32.1296 55.0239 44.2809 54.4593M22.0497 55.1285C22.7316 61.4365 21.7979 71.6165 22.4442 82.296M22.0497 55.1285C22.7039 63.6275 22.8746 72.9859 22.4442 82.296M44.2809 54.4593C38.7004 62.2585 31.83 70.5926 22.4442 82.296M44.2809 54.4593C39.0221 61.8222 33.1125 68.6375 22.4442 82.296" stroke="#1E1E1E" stroke-width="2" stroke-linecap="round"/>
<path fill-rule="evenodd" clip-rule="evenodd" d="M35.7019 64.6073L22.6308 81.9228L57.4599 80.4743L37.0742 63.9843" fill="white"/>
<path d="M36.6282 64.4206C33.4053 67.741 30.7372 72.8813 22.3895 81.5067M36.6282 64.4206C32.5097 68.9978 29.2902 73.4692 22.3895 81.5067M36.6282 64.4206C45.2768 71.9486 51.3002 77.0784 57.7692 81.4877M36.6282 64.4206C48.8058 74.2192 53.1554 78.1263 57.7692 81.4877M22.3895 81.5067C35.2942 80.712 49.3576 81.4554 57.7692 81.4877M22.3895 81.5067C32.5972 81.8679 42.1129 81.5745 57.7692 81.4877" stroke="#1E1E1E" stroke-width="2" stroke-linecap="round"/>
<path d="M23.4853 29.9881C23.0629 29.5757 22.5647 29.0697 22.2146 28.5882C22.5323 28.9346 22.8702 29.331 23.4853 29.9881ZM23.4853 29.9881C23.2094 30.6398 23.0468 31.2799 22.6965 32.418M23.4853 29.9881C23.3815 30.5305 23.13 31.0342 22.6965 32.418M22.6965 32.418C23.8547 31.531 24.6549 30.5159 25.6875 29.8737M22.6965 32.418C23.3587 31.895 23.9077 31.3695 25.6875 29.8737M25.6875 29.8737C28.7205 33.1582 32.6311 36.7378 35.4321 39.6353C31.3547 35.2741 28.2806 32.2503 25.6875 29.8737Z" stroke="#1E1E1E" stroke-width="2" stroke-linecap="round"/>
<path d="M24.7837 34.119C24.6858 34.0167 24.6162 33.9055 24.575 33.7852C24.5344 33.6643 24.5275 33.5442 24.5541 33.4248C24.5814 33.3047 24.6476 33.1943 24.7526 33.0938C24.8451 33.0053 24.9375 32.9518 25.0298 32.9332C25.1228 32.914 25.2149 32.9191 25.3061 32.9485C25.3974 32.9779 25.4863 33.0217 25.5728 33.0799C25.6606 33.138 25.7454 33.1999 25.8269 33.2654C25.9334 33.3514 26.0189 33.4219 26.0835 33.4768C26.1495 33.5317 26.204 33.5655 26.2469 33.5781C26.2905 33.5914 26.3323 33.5789 26.3722 33.5407L26.3806 33.5327C26.4843 33.4334 26.5377 33.328 26.5408 33.2163C26.5446 33.1052 26.4919 32.9927 26.3826 32.8785C26.2693 32.7601 26.1546 32.6921 26.0384 32.6745C25.9222 32.6568 25.8216 32.6625 25.7366 32.6915L25.5954 32.3757C25.7337 32.3239 25.8637 32.3069 25.9853 32.3246C26.1084 32.3424 26.2206 32.3826 26.3221 32.4451C26.425 32.5077 26.5153 32.5797 26.5931 32.6609C26.6427 32.7127 26.6934 32.7783 26.7451 32.8576C26.7983 32.937 26.8361 33.0263 26.8586 33.1255C26.8818 33.2254 26.8753 33.333 26.8392 33.4481C26.8031 33.5632 26.7209 33.6821 26.5927 33.8047L25.5295 34.8224L25.2921 34.5745L25.5107 34.3653L25.4986 34.3527C25.4475 34.3694 25.3832 34.3773 25.3057 34.3762C25.2283 34.3752 25.1444 34.3556 25.054 34.3172C24.9636 34.2789 24.8735 34.2128 24.7837 34.119ZM25.0426 33.9436C25.1365 34.0417 25.2349 34.1059 25.3377 34.1363C25.4413 34.1673 25.54 34.1709 25.6338 34.1468C25.7282 34.1235 25.8091 34.0797 25.8763 34.0154L26.1032 33.7981C26.0806 33.7997 26.0469 33.7876 26.0022 33.762C25.9589 33.7363 25.9112 33.7041 25.8593 33.6652C25.8087 33.6264 25.7598 33.588 25.7127 33.5499C25.6669 33.5119 25.6295 33.4812 25.6005 33.458C25.5304 33.4016 25.4591 33.3544 25.3865 33.3165C25.3154 33.2786 25.2448 33.2602 25.1748 33.2614C25.1062 33.2627 25.0404 33.2935 24.9774 33.3538C24.8912 33.4363 24.8566 33.5305 24.8735 33.6365C24.8917 33.7425 24.9481 33.8448 25.0426 33.9436ZM28.6821 36.0381L28.4509 36.2594L27.5499 35.318L27.781 35.0968L28.6821 36.0381ZM30.6489 36.9404L30.3591 37.9585L31.389 37.7137L31.6625 37.9994L30.3568 38.2506L30.0487 39.5441L29.7752 39.2583L30.0313 38.2723L29.0351 38.485L28.7615 38.1992L30.0592 37.9396L30.3753 36.6546L30.6489 36.9404Z" fill="#1E1E1E"/>
<path d="M26.3137 34.2386L26.3874 34.168L26.9556 34.1548C27.0222 34.1533 27.0786 34.1506 27.125 34.1465C27.1716 34.1422 27.2113 34.1339 27.2442 34.1218C27.2776 34.1097 27.3072 34.0914 27.3328 34.0668C27.3623 34.0386 27.3811 34.0071 27.389 33.9722C27.3973 33.9376 27.3957 33.9026 27.3841 33.867C27.3726 33.8315 27.3523 33.7986 27.3233 33.7683C27.2925 33.736 27.2589 33.7143 27.2225 33.7031C27.1867 33.6919 27.1506 33.6911 27.1143 33.7007C27.0782 33.7106 27.0442 33.7309 27.0123 33.7615L26.9198 33.6648C26.9689 33.6177 27.0229 33.5878 27.0817 33.5749C27.1406 33.562 27.1991 33.5652 27.2572 33.5844C27.3156 33.6038 27.3682 33.638 27.4149 33.6869C27.462 33.736 27.4933 33.7895 27.5089 33.8473C27.5245 33.9051 27.525 33.9617 27.5104 34.017C27.4958 34.0723 27.4669 34.1206 27.4238 34.1619C27.3929 34.1914 27.3574 34.2147 27.3172 34.2317C27.2775 34.2488 27.2266 34.2609 27.1644 34.2681C27.1028 34.2753 27.0231 34.2795 26.9255 34.2809L26.5437 34.2854L26.5371 34.2916L26.9103 34.6816L26.8202 34.7678L26.3137 34.2386Z" fill="#1E1E1E"/>
<path d="M31.8345 39.9492L31.9082 39.8787L32.4764 39.8654C32.543 39.864 32.5994 39.8612 32.6458 39.8571C32.6924 39.8528 32.7321 39.8446 32.765 39.8325C32.7984 39.8204 32.828 39.802 32.8536 39.7775C32.8831 39.7492 32.9019 39.7177 32.9099 39.6829C32.9181 39.6483 32.9165 39.6132 32.9049 39.5777C32.8934 39.5421 32.8732 39.5092 32.8441 39.4789C32.8133 39.4467 32.7797 39.425 32.7433 39.4137C32.7075 39.4025 32.6714 39.4017 32.6351 39.4114C32.599 39.4213 32.5651 39.4415 32.5331 39.4721L32.4406 39.3754C32.4897 39.3284 32.5437 39.2984 32.6026 39.2855C32.6614 39.2726 32.7199 39.2758 32.778 39.295C32.8364 39.3144 32.889 39.3486 32.9358 39.3975C32.9828 39.4466 33.0141 39.5001 33.0297 39.558C33.0453 39.6158 33.0458 39.6723 33.0312 39.7276C33.0166 39.7829 32.9878 39.8312 32.9446 39.8725C32.9137 39.902 32.8782 39.9253 32.838 39.9423C32.7983 39.9594 32.7474 39.9715 32.6852 39.9787C32.6236 39.9859 32.5439 39.9902 32.4463 39.9915L32.0645 39.996L32.0579 40.0023L32.4311 40.3922L32.341 40.4785L31.8345 39.9492Z" fill="#1E1E1E"/>
</svg>
