<svg width="85" height="126" viewBox="0 0 85 126" fill="none" xmlns="http://www.w3.org/2000/svg">
<path d="M21.946 1.56905C35.616 3.66905 50.016 3.43905 62.346 1.56905C73.786 -0.160952 81.316 10.259 82.546 21.769C80.216 43.419 86.046 62.089 82.546 103.319C82.506 114.179 77.296 124.189 62.346 123.519C47.336 125.809 35.416 124.779 21.946 123.519C6.09596 125.799 0.78596 118.269 1.74596 103.319C-0.71404 82.719 2.50596 70.219 1.74596 21.769C1.43596 9.72905 6.46596 -0.900952 21.946 1.56905Z" fill="white"/>
<path d="M21.946 1.56905C38.716 3.51905 54.656 0.999047 62.346 1.56905M21.946 1.56905C34.576 1.26905 47.886 2.75905 62.346 1.56905M21.946 1.56905C7.03596 3.32905 1.56596 7.22905 1.74596 21.769M21.946 1.56905C9.42596 2.17905 3.50596 9.33905 1.74596 21.769M62.346 1.56905C77.596 2.08905 83.576 9.39905 82.546 21.769M62.346 1.56905C76.326 1.68905 82.026 6.44905 82.546 21.769M82.546 21.769C84.866 48.509 82.206 73.439 82.546 103.319M82.546 21.769C83.076 41.189 81.846 61.149 82.546 103.319M82.546 103.319C84.246 117.309 75.186 123.519 62.346 123.519M82.546 103.319C82.576 118.819 75.256 122.699 62.346 123.519M62.346 123.519C47.576 124.009 30.736 125.499 21.946 123.519M62.346 123.519C48.786 122.959 35.366 123.839 21.946 123.519M21.946 123.519C8.98596 123.809 1.06596 116.269 1.74596 103.319M21.946 123.519C7.83596 122.289 2.03596 117.439 1.74596 103.319M1.74596 103.319C1.93596 77.849 2.69596 50.109 1.74596 21.769M1.74596 103.319C1.68596 77.449 1.79596 52.509 1.74596 21.769" stroke="#1E1E1E" stroke-width="2" stroke-linecap="round"/>
<path d="M23.0208 1.39526C33.7508 1.39526 44.4908 1.39526 59.4108 1.39526C61.8908 1.39526 63.1408 2.63526 63.1408 5.12526C63.1408 8.05526 63.1408 10.9853 63.1408 12.5753C63.1408 15.0553 61.8908 16.2953 59.4108 16.2953C45.2808 16.2953 31.1508 16.2953 23.0208 16.2953C20.5308 16.2953 19.2908 15.0553 19.2908 12.5753C19.2908 9.87526 19.2908 7.17526 19.2908 5.12526C19.2908 2.63526 20.5308 1.39526 23.0208 1.39526Z" fill="white"/>
<path d="M23.0208 1.39526C33.4108 1.39526 43.8008 1.39526 59.4108 1.39526M23.0208 1.39526C31.9808 1.39526 40.9408 1.39526 59.4108 1.39526M23.0208 1.39526C20.5308 1.39526 19.2908 2.63526 19.2908 5.12526M59.4108 1.39526C61.8908 1.39526 63.1408 2.63526 63.1408 5.12526M63.1408 5.12526C63.1408 6.90526 63.1408 8.68526 63.1408 12.5753M63.1408 5.12526C63.1408 7.50526 63.1408 9.89526 63.1408 12.5753M63.1408 12.5753C63.1408 15.0553 61.8908 16.2953 59.4108 16.2953M59.4108 16.2953C48.4308 16.2953 37.4408 16.2953 23.0208 16.2953M59.4108 16.2953C48.6908 16.2953 37.9808 16.2953 23.0208 16.2953M23.0208 16.2953C20.5308 16.2953 19.2908 15.0553 19.2908 12.5753M19.2908 12.5753C19.2908 10.7653 19.2908 8.95526 19.2908 5.12526M19.2908 12.5753C19.2908 10.8053 19.2908 9.04526 19.2908 5.12526" stroke="#1E1E1E" stroke-width="2" stroke-linecap="round"/>
<path d="M19.9127 109.616C19.0567 109.616 18.3275 109.383 17.7252 108.917C17.1229 108.448 16.6627 107.768 16.3445 106.878C16.0264 105.984 15.8673 104.904 15.8673 103.639C15.8673 102.381 16.0264 101.308 16.3445 100.417C16.6665 99.5235 17.1286 98.8417 17.7309 98.372C18.337 97.8985 19.0642 97.6618 19.9127 97.6618C20.7612 97.6618 21.4866 97.8985 22.0889 98.372C22.6949 98.8417 23.157 99.5235 23.4752 100.417C23.7972 101.308 23.9582 102.381 23.9582 103.639C23.9582 104.904 23.7991 105.984 23.4809 106.878C23.1627 107.768 22.7025 108.448 22.1002 108.917C21.4979 109.383 20.7688 109.616 19.9127 109.616ZM19.9127 108.366C20.7612 108.366 21.4203 107.957 21.89 107.139C22.3597 106.321 22.5945 105.154 22.5945 103.639C22.5945 102.631 22.4866 101.774 22.2707 101.065C22.0586 100.357 21.7517 99.8171 21.3502 99.4459C20.9525 99.0746 20.4733 98.889 19.9127 98.889C19.0718 98.889 18.4146 99.3038 17.9411 100.133C17.4676 100.959 17.2309 102.128 17.2309 103.639C17.2309 104.647 17.337 105.503 17.5491 106.207C17.7612 106.912 18.0661 107.448 18.4639 107.815C18.8654 108.183 19.3483 108.366 19.9127 108.366Z" fill="#1E1E1E"/>
<path d="M10.2658 106.684C10.2558 105.784 10.2358 102.174 10.2258 101.274" stroke="#1E1E1E" stroke-linecap="round"/>
<path d="M10.1938 101.477C10.4438 101.117 11.4538 99.6973 11.7038 99.3373" stroke="#1E1E1E" stroke-linecap="round"/>
<path d="M13.1967 106.749C13.2067 105.849 13.2267 102.239 13.2367 101.339" stroke="#1E1E1E" stroke-linecap="round"/>
<path d="M13.2686 101.541C13.0186 101.181 12.0086 99.7615 11.7586 99.4015" stroke="#1E1E1E" stroke-linecap="round"/>
<path d="M8.05359 107.235C9.23359 107.215 13.9336 107.135 15.1036 107.115" stroke="#1E1E1E" stroke-linecap="round"/>
<path d="M11.9121 107.325C11.9221 107.955 11.9621 110.495 11.9721 111.125" stroke="#1E1E1E" stroke-linecap="round"/>
<path d="M64.5491 97.4476V109.084H63.14V98.9248H63.0718L60.2309 100.811V99.3794L63.14 97.4476H64.5491ZM71.6911 109.243C70.835 109.243 70.1059 109.01 69.5036 108.544C68.9013 108.074 68.4411 107.395 68.1229 106.504C67.8047 105.61 67.6456 104.531 67.6456 103.266C67.6456 102.008 67.8047 100.934 68.1229 100.044C68.4449 99.1502 68.907 98.4684 69.5093 97.9987C70.1153 97.5252 70.8426 97.2885 71.6911 97.2885C72.5396 97.2885 73.265 97.5252 73.8672 97.9987C74.4733 98.4684 74.9354 99.1502 75.2536 100.044C75.5756 100.934 75.7366 102.008 75.7366 103.266C75.7366 104.531 75.5775 105.61 75.2593 106.504C74.9411 107.395 74.4809 108.074 73.8786 108.544C73.2763 109.01 72.5472 109.243 71.6911 109.243ZM71.6911 107.993C72.5396 107.993 73.1987 107.584 73.6684 106.766C74.1381 105.948 74.3729 104.781 74.3729 103.266C74.3729 102.258 74.265 101.4 74.0491 100.692C73.8369 99.9835 73.5301 99.4438 73.1286 99.0726C72.7309 98.7013 72.2517 98.5157 71.6911 98.5157C70.8502 98.5157 70.193 98.9305 69.7195 99.7601C69.246 100.586 69.0093 101.754 69.0093 103.266C69.0093 104.273 69.1153 105.129 69.3275 105.834C69.5396 106.538 69.8445 107.074 70.2422 107.442C70.6438 107.809 71.1267 107.993 71.6911 107.993Z" fill="#1E1E1E"/>
<path d="M53.3234 102.406C53.6834 102.036 55.1234 100.536 55.4834 100.156" stroke="#1E1E1E" stroke-linecap="round"/>
<path d="M55.4788 100.116C55.8788 100.446 57.4588 101.766 57.8588 102.096" stroke="#1E1E1E" stroke-linecap="round"/>
<path d="M57.9487 102.362C57.2587 103.422 54.5087 107.672 53.8187 108.742" stroke="#1E1E1E" stroke-linecap="round"/>
<path d="M53.3907 102.406C53.0307 102.036 51.5907 100.536 51.2307 100.156" stroke="#1E1E1E" stroke-linecap="round"/>
<path d="M51.2352 100.116C50.8352 100.446 49.2552 101.766 48.8552 102.096" stroke="#1E1E1E" stroke-linecap="round"/>
<path d="M48.7653 102.362C49.4553 103.422 52.2053 107.672 52.8953 108.742" stroke="#1E1E1E" stroke-linecap="round"/>
<path d="M30.2307 11.5654V5.21076H34.041V5.89339H31.0002V8.04057H33.7555V8.7232H31.0002V11.5654H30.2307ZM36.846 11.6647C36.4157 11.6647 36.0382 11.5623 35.7135 11.3575C35.3908 11.1527 35.1384 10.8663 34.9564 10.498C34.7764 10.1298 34.6864 9.69957 34.6864 9.20725C34.6864 8.71079 34.7764 8.27743 34.9564 7.90715C35.1384 7.53687 35.3908 7.24934 35.7135 7.04455C36.0382 6.83976 36.4157 6.73737 36.846 6.73737C37.2763 6.73737 37.6527 6.83976 37.9754 7.04455C38.3002 7.24934 38.5526 7.53687 38.7325 7.90715C38.9146 8.27743 39.0056 8.71079 39.0056 9.20725C39.0056 9.69957 38.9146 10.1298 38.7325 10.498C38.5526 10.8663 38.3002 11.1527 37.9754 11.3575C37.6527 11.5623 37.2763 11.6647 36.846 11.6647ZM36.846 11.0069C37.1728 11.0069 37.4418 10.9231 37.6527 10.7556C37.8637 10.588 38.0199 10.3677 38.1213 10.0947C38.2226 9.82162 38.2733 9.52581 38.2733 9.20725C38.2733 8.88869 38.2226 8.59185 38.1213 8.31673C38.0199 8.04161 37.8637 7.81924 37.6527 7.64961C37.4418 7.47999 37.1728 7.39518 36.846 7.39518C36.5192 7.39518 36.2503 7.47999 36.0393 7.64961C35.8283 7.81924 35.6721 8.04161 35.5707 8.31673C35.4694 8.59185 35.4187 8.88869 35.4187 9.20725C35.4187 9.52581 35.4694 9.82162 35.5707 10.0947C35.6721 10.3677 35.8283 10.588 36.0393 10.7556C36.2503 10.9231 36.5192 11.0069 36.846 11.0069ZM40.8557 8.69838V11.5654H40.1234V6.79943H40.8309V7.54411H40.8929C41.0046 7.30209 41.1742 7.10764 41.4018 6.96078C41.6293 6.81184 41.9231 6.73737 42.283 6.73737C42.6057 6.73737 42.8881 6.80356 43.1301 6.93595C43.3721 7.06627 43.5603 7.26486 43.6948 7.5317C43.8293 7.79648 43.8965 8.13159 43.8965 8.53703V11.5654H43.1642V8.58668C43.1642 8.21227 43.067 7.9206 42.8725 7.71167C42.6781 7.50067 42.4113 7.39518 42.072 7.39518C41.8383 7.39518 41.6293 7.44586 41.4452 7.54722C41.2632 7.64858 41.1194 7.79648 41.0139 7.99093C40.9084 8.18537 40.8557 8.42119 40.8557 8.69838ZM47.3073 6.79943V7.42H44.8374V6.79943H47.3073ZM45.5573 5.65757H46.2896V10.2002C46.2896 10.407 46.3196 10.5622 46.3796 10.6656C46.4416 10.767 46.5202 10.8352 46.6154 10.8704C46.7126 10.9035 46.815 10.92 46.9226 10.92C47.0032 10.92 47.0694 10.9159 47.1211 10.9076C47.1729 10.8973 47.2142 10.889 47.2453 10.8828L47.3942 11.5406C47.3446 11.5592 47.2753 11.5778 47.1863 11.5965C47.0974 11.6171 46.9846 11.6275 46.8481 11.6275C46.6412 11.6275 46.4385 11.583 46.2399 11.4941C46.0434 11.4051 45.88 11.2696 45.7497 11.0876C45.6214 10.9056 45.5573 10.6759 45.5573 10.3988V5.65757ZM50.3559 11.6647C49.8967 11.6647 49.5005 11.5634 49.1675 11.3606C48.8365 11.1559 48.581 10.8704 48.4011 10.5042C48.2232 10.136 48.1342 9.70785 48.1342 9.21966C48.1342 8.73148 48.2232 8.30121 48.4011 7.92887C48.581 7.55446 48.8313 7.26279 49.152 7.05386C49.4747 6.84287 49.8512 6.73737 50.2814 6.73737C50.5296 6.73737 50.7748 6.77874 51.0168 6.86148C51.2588 6.94423 51.4791 7.07868 51.6777 7.26486C51.8763 7.44896 52.0345 7.69305 52.1524 7.99713C52.2704 8.30121 52.3293 8.67563 52.3293 9.12037V9.43066H48.6555V8.79767H51.5846C51.5846 8.52876 51.5308 8.2888 51.4233 8.07781C51.3178 7.86681 51.1668 7.70029 50.9703 7.57825C50.7758 7.4562 50.5462 7.39518 50.2814 7.39518C49.9897 7.39518 49.7374 7.46758 49.5243 7.61238C49.3133 7.75511 49.1509 7.94128 49.0372 8.17089C48.9234 8.40051 48.8665 8.64667 48.8665 8.90938V9.33137C48.8665 9.6913 48.9286 9.99641 49.0527 10.2467C49.1789 10.4949 49.3537 10.6842 49.5771 10.8145C49.8005 10.9428 50.0601 11.0069 50.3559 11.0069C50.5483 11.0069 50.722 10.98 50.8772 10.9262C51.0344 10.8704 51.1699 10.7876 51.2836 10.678C51.3974 10.5663 51.4853 10.4277 51.5474 10.2622L52.2548 10.4608C52.1804 10.7008 52.0552 10.9118 51.8794 11.0938C51.7036 11.2738 51.4864 11.4144 51.2278 11.5158C50.9692 11.6151 50.6786 11.6647 50.3559 11.6647Z" fill="#1E1E1E"/>
<path d="M10.3086 89.731C21.2986 89.731 65.2786 89.731 76.2686 89.731" stroke="#1E1E1E" stroke-width="2" stroke-linecap="round"/>
<path d="M35.1583 52.8267C34.2583 51.7267 31.1083 49.0167 30.4383 46.3567C29.7683 43.6967 32.4083 39.9767 31.1483 36.8867C29.8983 33.7967 24.3383 29.2067 22.8983 27.7867M36.0683 52.3567C35.0683 51.0967 30.8983 48.1367 30.0083 45.6367C29.1183 43.1467 31.8683 40.3267 30.7383 37.3867C29.5983 34.4567 24.7083 29.4967 23.2183 28.0267" stroke="#1E1E1E" stroke-linecap="round"/>
<path d="M40.7027 52.7301C42.1027 51.1001 45.6627 44.6601 48.9327 42.4501C52.2027 40.2401 56.8527 39.3201 60.3327 39.4501C63.8127 39.5801 68.2127 42.6801 69.8227 43.2301M40.0427 52.5001C41.3727 50.9501 45.0727 45.1701 48.4327 43.0501C51.7927 40.9301 56.6127 39.6601 60.1927 39.7901C63.7827 39.9101 68.4127 43.2901 69.9327 43.7801" stroke="#1E1E1E" stroke-linecap="round"/>
<path d="M42.3502 56.3459C44.1702 56.8359 50.2902 59.8259 53.4602 59.9859C56.6302 60.1559 59.1802 58.3659 61.3502 57.3259C63.5202 56.2759 65.5602 54.1959 66.4802 53.6959M43.2802 55.7659C45.0702 56.5459 50.2802 60.0559 53.2402 60.4259C56.1902 60.7959 58.7702 59.0359 61.0102 57.9659C63.2502 56.8959 65.7502 54.5659 66.6602 53.9959" stroke="#1E1E1E" stroke-linecap="round"/>
<path d="M33.8258 58.6225C31.0158 58.3725 20.4058 59.6125 16.4258 57.4225C12.4558 55.2425 10.9558 47.4125 9.94577 45.5225M33.3658 59.5525C30.4958 59.1325 19.9558 58.7825 16.0058 56.5025C12.0558 54.2325 10.8158 47.5525 9.66577 45.9225" stroke="#1E1E1E" stroke-linecap="round"/>
<path d="M37.8636 60.1667C36.2136 62.5167 28.3336 69.3967 28.3536 73.6567C28.3836 77.9267 36.5836 83.7867 38.0236 85.7667M37.2036 59.7367C35.4636 62.1867 27.8736 69.9867 27.9936 74.1567C28.1236 78.3367 36.4736 82.8267 37.9536 84.8067" stroke="#1E1E1E" stroke-linecap="round"/>
<path fill-rule="evenodd" clip-rule="evenodd" d="M40.7291 47.9467L45.378 47.1259L44.3667 50.2865L41.3047 48.3653" fill="#1E1E1E"/>
<path d="M41.1753 48.0997C42.105 47.7709 43.4412 47.3005 44.7529 46.8747M41.1753 48.0997C42.2254 47.7676 43.2871 47.4061 44.7529 46.8747M41.1753 48.0997C41.7901 48.6427 42.811 49.6971 44.0654 50.6604M41.1753 48.0997C42.647 49.4416 43.3637 50.0965 44.0654 50.6604M44.7529 46.8747C44.5041 47.8544 44.3918 48.9358 44.0654 50.6604M44.7529 46.8747C44.5546 48.0275 44.3335 49.0828 44.0654 50.6604" stroke="#1E1E1E" stroke-linecap="round"/>
<path fill-rule="evenodd" clip-rule="evenodd" d="M47.4115 56.6453L50.0204 59.321L45.5139 59.6204L46.9091 56.022" fill="#1E1E1E"/>
<path d="M47.485 55.9725C48.2498 57.095 48.8533 58.0201 49.5861 59.1166M47.485 55.9725C47.9869 56.7613 48.5505 57.5129 49.5861 59.1166M47.485 55.9725C47.1177 56.8938 46.4129 58.1094 45.7508 59.4224M47.485 55.9725C47.016 56.7575 46.3858 58.0966 45.7508 59.4224M49.5861 59.1166C48.5014 59.2139 47.5641 59.3033 45.7508 59.4224M49.5861 59.1166C48.4072 59.2028 47.2437 59.3735 45.7508 59.4224" stroke="#1E1E1E" stroke-linecap="round"/>
<path fill-rule="evenodd" clip-rule="evenodd" d="M36.9079 65.2478L33.5177 65.9123L34.3222 61.7994L36.6125 64.6552" fill="#1E1E1E"/>
<path d="M37.1988 64.8658C35.7995 65.3885 34.4393 65.9423 33.656 66.1883M37.1988 64.8658C36.0211 65.3347 34.8199 65.785 33.656 66.1883M37.1988 64.8658C36.4281 64.0997 35.3407 63.4268 34.2396 62.3853M37.1988 64.8658C36.2735 64.1174 35.2602 63.1584 34.2396 62.3853M33.656 66.1883C33.7979 65.0619 34.0469 63.7524 34.2396 62.3853M33.656 66.1883C33.7911 64.8776 33.998 63.5729 34.2396 62.3853" stroke="#1E1E1E" stroke-linecap="round"/>
<path d="M38.9634 49.4031C38.9634 49.4031 38.9968 49.4531 39.0634 49.5531C39.1368 49.6464 39.1901 49.7497 39.2234 49.8631C39.2634 49.9831 39.2801 50.0964 39.2734 50.2031C39.2734 50.3231 39.2501 50.4397 39.2034 50.5531C39.1634 50.6664 39.1068 50.7697 39.0334 50.8631C38.9601 50.9564 38.8734 51.0364 38.7734 51.1031C38.6668 51.1697 38.5568 51.2164 38.4434 51.2431C38.3301 51.2697 38.2168 51.2797 38.1034 51.2731C37.9834 51.2597 37.8668 51.2297 37.7534 51.1831C37.6468 51.1364 37.5468 51.0731 37.4534 50.9931C37.3668 50.9131 37.2934 50.8197 37.2334 50.7131C37.1734 50.6131 37.1334 50.5031 37.1134 50.3831C37.0934 50.2631 37.0901 50.1497 37.1034 50.0431C37.1168 49.9231 37.1501 49.8097 37.2034 49.7031C37.2568 49.5964 37.3268 49.4997 37.4134 49.4131C37.5001 49.3264 37.5968 49.2564 37.7034 49.2031C37.8101 49.1497 37.9234 49.1164 38.0434 49.1031C38.1568 49.0897 38.2701 49.0931 38.3834 49.1131C38.5034 49.1331 38.6134 49.1731 38.7134 49.2331C38.8201 49.2931 38.9134 49.3664 38.9934 49.4531C39.0734 49.5464 39.1368 49.6464 39.1834 49.7531C39.2301 49.8664 39.2601 49.9831 39.2734 50.1031C39.2801 50.2164 39.2701 50.3297 39.2434 50.4431C39.2101 50.5564 39.1634 50.6664 39.1034 50.7731C39.0368 50.8731 38.9568 50.9597 38.8634 51.0331C38.7701 51.1064 38.6668 51.1631 38.5534 51.2031C38.4401 51.2497 38.3234 51.2731 38.2034 51.2731C38.0901 51.2797 37.9768 51.2631 37.8634 51.2231C37.7501 51.1897 37.6468 51.1364 37.5534 51.0631C37.4534 50.9964 37.4034 50.9631 37.4034 50.9631C37.4034 50.9631 37.3768 50.9264 37.3234 50.8531C37.2634 50.7864 37.2168 50.7131 37.1834 50.6331C37.1434 50.5531 37.1168 50.4664 37.1034 50.3731C37.0901 50.2864 37.0834 50.2031 37.0834 50.1231C37.0901 50.0297 37.1068 49.9431 37.1334 49.8631C37.1601 49.7764 37.1968 49.6931 37.2434 49.6131C37.2901 49.5397 37.3468 49.4731 37.4134 49.4131C37.4734 49.3464 37.5401 49.2897 37.6134 49.2431C37.6934 49.1964 37.7768 49.1597 37.8634 49.1331C37.9434 49.1064 38.0301 49.0897 38.1234 49.0831C38.2034 49.0831 38.2868 49.0897 38.3734 49.1031C38.4668 49.1164 38.5534 49.1431 38.6334 49.1831C38.7134 49.2164 38.7868 49.2631 38.8534 49.3231C38.9268 49.3764 38.9634 49.4031 38.9634 49.4031Z" fill="#1E1E1E"/>
<path d="M38.6676 50.5861C39.7276 50.6661 41.3976 51.3961 42.1876 52.1361C42.9776 52.8761 43.2476 53.9861 43.3876 55.0361C43.5376 56.0861 43.7376 57.4461 43.0476 58.4361C42.3576 59.4161 40.3776 60.5861 39.2576 60.9261C38.1376 61.2661 37.2576 61.0361 36.3176 60.4761C35.3676 59.9161 34.1776 58.5961 33.5976 57.5461C33.0176 56.4861 32.5776 55.2461 32.8276 54.1561C33.0876 53.0661 34.0676 51.7261 35.1376 50.9961C36.1976 50.2761 38.4976 49.8461 39.2376 49.8061C39.9776 49.7561 39.5776 50.5961 39.5576 50.7261M39.3976 50.7161C40.4376 50.5761 41.4376 50.5661 42.2476 51.2361C43.0676 51.9161 44.2176 53.4261 44.3076 54.7661C44.3976 56.1061 43.4676 58.2661 42.7676 59.2661C42.0776 60.2761 41.2676 60.6161 40.1176 60.7961C38.9776 60.9661 36.9576 60.8561 35.8976 60.3161C34.8376 59.7761 34.2976 58.6161 33.7776 57.5761C33.2476 56.5361 32.4076 55.2861 32.7576 54.0961C33.1176 52.9161 34.8176 51.1361 35.8976 50.4761C36.9676 49.8261 38.5876 50.1361 39.2176 50.1661C39.8476 50.1961 39.8376 50.4961 39.6676 50.6661" fill="white"/>
<path d="M38.5976 50.1061C39.6476 50.1461 40.9676 50.9561 41.8576 51.7961C42.7476 52.6461 43.7476 54.0861 43.9176 55.1861C44.0776 56.2761 43.5176 57.3961 42.8576 58.3861C42.1976 59.3761 41.0076 60.7461 39.9376 61.0961C38.8676 61.4561 37.4876 60.9461 36.4176 60.5161C35.3576 60.0761 34.1576 59.4661 33.5476 58.4961C32.9476 57.5261 32.5776 55.8361 32.7876 54.6961C32.9876 53.5561 33.8076 52.4061 34.7876 51.6661C35.7776 50.9161 38.0176 50.4961 38.7176 50.2261C39.4176 49.9561 38.8676 49.8961 38.9776 50.0561M39.5176 50.9561C40.5676 50.9361 41.4876 50.9861 42.2776 51.6461C43.0576 52.3161 44.0876 53.7961 44.2276 54.9361C44.3676 56.0661 43.9476 57.5061 43.1276 58.4661C42.2976 59.4261 40.4176 60.3961 39.2876 60.6861C38.1576 60.9761 37.3476 60.5461 36.3676 60.1861C35.3876 59.8261 34.0476 59.5061 33.4276 58.5361C32.8176 57.5561 32.2276 55.5861 32.6676 54.3161C33.1176 53.0461 35.0376 51.6561 36.0976 50.8961C37.1476 50.1361 38.4476 49.7861 38.9776 49.7261C39.5076 49.6661 39.2376 50.2461 39.2876 50.5161" stroke="#1E1E1E" stroke-linecap="round"/>
<path fill-rule="evenodd" clip-rule="evenodd" d="M35.3873 55.1239C35.8873 54.7139 37.3973 52.7039 38.4073 52.6539C39.4273 52.6039 40.9773 54.4539 41.4973 54.8139" fill="white"/>
<path d="M35.3873 55.1239C35.8873 54.7139 37.3973 52.7039 38.4073 52.6539C39.4273 52.6039 40.9773 54.4539 41.4973 54.8139" stroke="#1E1E1E" stroke-width="0.5" stroke-linecap="round"/>
<path fill-rule="evenodd" clip-rule="evenodd" d="M35.5416 55.0001C36.0416 55.4101 37.5516 57.4201 38.5616 57.4701C39.5816 57.5201 41.1316 55.6701 41.6516 55.3101" fill="white"/>
<path d="M35.5416 55.0001C36.0416 55.4101 37.5516 57.4201 38.5616 57.4701C39.5816 57.5201 41.1316 55.6701 41.6516 55.3101" stroke="#1E1E1E" stroke-width="0.5" stroke-linecap="round"/>
<path d="M37.8314 55.0074C38.1214 55.0174 39.2914 55.0374 39.5814 55.0474" stroke="#1E1E1E" stroke-width="0.5" stroke-linecap="round"/>
<path d="M38.5801 54.0508C38.5701 54.3608 38.5501 55.6108 38.5401 55.9208" stroke="#1E1E1E" stroke-width="0.5" stroke-linecap="round"/>
<path fill-rule="evenodd" clip-rule="evenodd" d="M30.5908 60.5114L28.0776 59.826L30.0272 57.6021L31.6649 60.5691" fill="#1E1E1E"/>
<path d="M31.1817 60.6558C29.9808 60.3304 28.9768 59.9263 27.5726 59.5268M31.1817 60.6558C29.882 60.2207 28.6377 59.8441 27.5726 59.5268M31.1817 60.6558C31.038 59.5999 30.6218 58.3117 30.3665 56.8815M31.1817 60.6558C30.7573 58.7419 30.6173 57.8703 30.3665 56.8815M27.5726 59.5268C28.5485 58.6308 29.7349 57.416 30.3665 56.8815M27.5726 59.5268C28.5805 58.551 29.476 57.7054 30.3665 56.8815" stroke="#1E1E1E" stroke-linecap="round"/>
<path fill-rule="evenodd" clip-rule="evenodd" d="M31.5423 51.6051L29.769 47.4692L34.6264 48.6753L31.6778 51.2492" fill="#1E1E1E"/>
<path d="M31.5327 51.0253C31.266 49.877 30.9265 48.6026 30.5595 47.3711M31.5327 51.0253C31.2231 49.8494 30.9356 48.7227 30.5595 47.3711M31.5327 51.0253C32.312 50.2627 33.3363 49.3475 34.2881 48.3203M31.5327 51.0253C32.0884 50.422 33.2441 49.3278 34.2881 48.3203M30.5595 47.3711C31.8015 47.6404 32.8105 47.9206 34.2881 48.3203M30.5595 47.3711C31.7666 47.6622 33.0086 47.9314 34.2881 48.3203" stroke="#1E1E1E" stroke-linecap="round"/>
<path d="M69.7572 38.4635C70.2676 37.5003 72.3088 33.6702 72.8145 32.7158" stroke="#1E1E1E" stroke-linecap="round"/>
<path d="M72.67 32.9053C73.1386 32.6701 75.0219 31.7343 75.4993 31.5039" stroke="#1E1E1E" stroke-linecap="round"/>
<path d="M72.8254 40.2139C73.3534 39.2603 75.4473 35.4587 75.9706 34.5139" stroke="#1E1E1E" stroke-linecap="round"/>
<path d="M75.8908 34.7384C75.8319 34.2174 75.5874 32.1287 75.5197 31.6029" stroke="#1E1E1E" stroke-linecap="round"/>
<path d="M67.0973 37.7768C68.3553 38.4357 73.3795 41.0441 74.6423 41.6942" stroke="#1E1E1E" stroke-linecap="round"/>
<path d="M71.1335 40.0875C70.7802 40.7605 69.3712 43.466 69.0132 44.1478" stroke="#1E1E1E" stroke-linecap="round"/>
<path d="M71.4977 77.9676C71.1353 78.9957 69.683 83.0856 69.324 84.1042" stroke="#1E1E1E" stroke-linecap="round"/>
<path d="M69.4388 83.8956C69.0101 84.1974 67.2859 85.4015 66.8479 85.7" stroke="#1E1E1E" stroke-linecap="round"/>
<path d="M68.2043 76.6901C67.8231 77.7113 66.3144 81.7808 65.9366 82.7926" stroke="#1E1E1E" stroke-linecap="round"/>
<path d="M65.9823 82.5589C66.1177 83.0654 66.6684 85.095 66.8131 85.605" stroke="#1E1E1E" stroke-linecap="round"/>
<path d="M74.2299 78.2534C72.8882 77.7878 67.5336 75.9511 66.1886 75.4949" stroke="#1E1E1E" stroke-linecap="round"/>
<path d="M69.8964 76.565C70.1462 75.8472 71.1396 72.9631 71.3929 72.2358" stroke="#1E1E1E" stroke-linecap="round"/>
<path d="M37.9647 81.9293C38.7676 81.192 41.971 78.2638 42.7665 77.5332" stroke="#1E1E1E" stroke-linecap="round"/>
<path d="M42.5671 77.6635C43.0874 77.5984 45.1751 77.3455 45.702 77.2878" stroke="#1E1E1E" stroke-linecap="round"/>
<path d="M40.272 84.6042C41.0883 83.8818 44.3319 80.9981 45.1407 80.2824" stroke="#1E1E1E" stroke-linecap="round"/>
<path d="M44.9905 80.4672C45.109 79.9565 45.5763 77.9061 45.6881 77.3879" stroke="#1E1E1E" stroke-linecap="round"/>
<path d="M35.6871 80.3935C36.6528 81.4348 40.5169 85.5717 41.49 86.6063" stroke="#1E1E1E" stroke-linecap="round"/>
<path d="M38.7194 83.9198C38.1616 84.4361 35.9297 86.5155 35.3645 87.0385" stroke="#1E1E1E" stroke-linecap="round"/>
<path d="M10.7997 43.5932C11.3102 42.6301 13.3513 38.7999 13.857 37.8456" stroke="#1E1E1E" stroke-linecap="round"/>
<path d="M13.7126 38.035C14.1812 37.7999 16.0645 36.864 16.5419 36.6336" stroke="#1E1E1E" stroke-linecap="round"/>
<path d="M13.8679 45.3437C14.396 44.3901 16.4899 40.5885 17.0132 39.6437" stroke="#1E1E1E" stroke-linecap="round"/>
<path d="M16.9334 39.8681C16.8745 39.3471 16.63 37.2584 16.5623 36.7327" stroke="#1E1E1E" stroke-linecap="round"/>
<path d="M8.13991 42.9065C9.39795 43.5654 14.4221 46.1738 15.6849 46.8239" stroke="#1E1E1E" stroke-linecap="round"/>
<path d="M12.176 45.2173C11.8227 45.8903 10.4137 48.5958 10.0557 49.2775" stroke="#1E1E1E" stroke-linecap="round"/>
<path d="M18.4907 28.1318C17.605 27.4964 14.0841 24.9587 13.2064 24.3293" stroke="#1E1E1E" stroke-linecap="round"/>
<path d="M13.3746 24.4979C13.2047 24.0019 12.5306 22.0099 12.3665 21.5059" stroke="#1E1E1E" stroke-linecap="round"/>
<path d="M20.6378 25.3268C19.7639 24.6753 16.2784 22.0892 15.4126 21.4436" stroke="#1E1E1E" stroke-linecap="round"/>
<path d="M15.6242 21.5529C15.1 21.5412 12.9974 21.5026 12.4673 21.499" stroke="#1E1E1E" stroke-linecap="round"/>
<path d="M17.4525 30.6752C18.2746 29.5172 21.535 24.8895 22.349 23.7256" stroke="#1E1E1E" stroke-linecap="round"/>
<path d="M20.285 26.9864C20.9044 27.427 23.3958 29.187 24.0233 29.6335" stroke="#1E1E1E" stroke-linecap="round"/>
<path d="M40.9901 60.0901C41.8701 61.5501 42.9501 67.9401 46.4901 69.4001C50.0301 70.8701 58.1901 68.2101 62.2501 68.8801C66.3001 69.5601 69.2501 72.7101 70.8201 73.4401M41.8401 61.0901C42.6401 62.5901 42.7501 68.5601 46.0801 69.9601C49.4101 71.3601 57.7301 68.8101 61.8201 69.4901C65.9201 70.1701 69.0901 73.3701 70.6501 74.0301" stroke="#1E1E1E" stroke-linecap="round"/>
<path fill-rule="evenodd" clip-rule="evenodd" d="M43.407 62.3405L42.7457 65.9561L40.0042 62.9035L44.4257 61.4882" fill="#1E1E1E"/>
<path d="M43.9733 61.916C43.7572 62.8116 43.431 63.8057 42.8367 65.5227M43.9733 61.916C43.6337 63.0677 43.1895 64.2548 42.8367 65.5227M43.9733 61.916C42.0354 62.1979 41.2208 62.4457 40.1974 62.7232M43.9733 61.916C42.7464 62.1603 41.5074 62.3972 40.1974 62.7232M42.8367 65.5227C41.985 64.4216 41.0542 63.5042 40.1974 62.7232M42.8367 65.5227C41.9136 64.552 40.9516 63.5906 40.1974 62.7232" stroke="#1E1E1E" stroke-linecap="round"/>
<path d="M69.6081 57.0517C70.0925 58.0394 72.0166 61.9854 72.4966 62.964" stroke="#1E1E1E" stroke-linecap="round"/>
<path d="M72.4266 62.7309C72.3329 63.2526 71.9846 65.349 71.9042 65.8754" stroke="#1E1E1E" stroke-linecap="round"/>
<path d="M66.3566 58.5231C66.8229 59.5194 68.6929 63.4913 69.1549 64.4786" stroke="#1E1E1E" stroke-linecap="round"/>
<path d="M69.017 64.278C69.4823 64.5318 71.3345 65.5738 71.7951 65.8409" stroke="#1E1E1E" stroke-linecap="round"/>
<path d="M71.7473 55.2835C70.4664 55.9194 65.3422 58.4857 64.0656 59.1307" stroke="#1E1E1E" stroke-linecap="round"/>
<path d="M67.4634 57.2141C67.1217 56.524 65.7456 53.7681 65.4039 53.078" stroke="#1E1E1E" stroke-linecap="round"/>
</svg>
