<svg width="85" height="126" viewBox="0 0 85 126" fill="none" xmlns="http://www.w3.org/2000/svg">
<path d="M22.2324 1.88968C32.3924 -0.730318 39.8024 4.36968 62.6324 1.88968C77.9324 3.95968 80.1825 5.52968 82.8325 22.0897C82.8025 41.4297 85.8225 64.8897 82.8325 103.64C81.2725 115.87 76.0124 123.97 62.6324 123.84C50.7124 125.11 41.6124 124.27 22.2324 123.84C7.24245 125.33 2.47245 119.06 2.03245 103.64C0.0624474 89.2597 0.452447 71.0397 2.03245 22.0897C2.80245 5.87968 5.45245 3.64968 22.2324 1.88968Z" fill="white"/>
<path d="M22.2325 1.88966C30.9725 2.78966 39.4725 2.83966 62.6325 1.88966M22.2325 1.88966C31.3725 2.27966 39.9425 1.25966 62.6325 1.88966M22.2325 1.88966C8.20246 2.42966 3.07246 7.47966 2.03246 22.0897M22.2325 1.88966C10.9725 1.78966 0.162455 10.8997 2.03246 22.0897M62.6325 1.88966C75.5525 1.05966 83.9825 6.82966 82.8325 22.0897M62.6325 1.88966C77.2925 2.83966 81.4425 6.63966 82.8325 22.0897M82.8325 22.0897C82.1025 48.6197 81.1725 71.8597 82.8325 103.64M82.8325 22.0897C83.6525 39.5697 83.8825 56.0397 82.8325 103.64M82.8325 103.64C81.0625 116.62 75.3025 122.25 62.6325 123.84M82.8325 103.64C82.5225 117.54 74.2825 124.63 62.6325 123.84M62.6325 123.84C48.3125 122.86 33.9825 125.92 22.2325 123.84M62.6325 123.84C46.3825 123.68 31.5425 123.58 22.2325 123.84M22.2325 123.84C7.00246 123.3 3.57246 117.84 2.03246 103.64M22.2325 123.84C6.64246 123.65 2.99246 116.93 2.03246 103.64M2.03246 103.64C1.92246 72.1297 1.62246 42.6497 2.03246 22.0897M2.03246 103.64C1.83246 85.7897 1.74246 68.9697 2.03246 22.0897" stroke="#1E1E1E" stroke-width="2" stroke-linecap="round"/>
<path d="M23.3073 1.71588C37.4173 1.71588 51.5273 1.71588 59.6973 1.71588C62.1773 1.71588 63.4273 2.95588 63.4273 5.44588C63.4273 7.14588 63.4273 8.85588 63.4273 12.8959C63.4273 15.3759 62.1773 16.6159 59.6973 16.6159C50.6073 16.6159 41.5173 16.6159 23.3073 16.6159C20.8173 16.6159 19.5773 15.3759 19.5773 12.8959C19.5773 10.1759 19.5773 7.45588 19.5773 5.44588C19.5773 2.95588 20.8173 1.71588 23.3073 1.71588Z" fill="white"/>
<path d="M23.3073 1.71588C31.4173 1.71588 39.5373 1.71588 59.6973 1.71588M23.3073 1.71588C35.1773 1.71588 47.0573 1.71588 59.6973 1.71588M23.3073 1.71588C20.8173 1.71588 19.5773 2.95588 19.5773 5.44588M59.6973 1.71588C62.1773 1.71588 63.4273 2.95588 63.4273 5.44588M63.4273 5.44588C63.4273 8.30588 63.4273 11.1759 63.4273 12.8959M63.4273 5.44588C63.4273 7.52588 63.4273 9.60588 63.4273 12.8959M63.4273 12.8959C63.4273 15.3759 62.1773 16.6159 59.6973 16.6159M59.6973 16.6159C45.6073 16.6159 31.5173 16.6159 23.3073 16.6159M59.6973 16.6159C52.2273 16.6159 44.7473 16.6159 23.3073 16.6159M23.3073 16.6159C20.8173 16.6159 19.5773 15.3759 19.5773 12.8959M19.5773 12.8959C19.5773 10.5959 19.5773 8.28588 19.5773 5.44588M19.5773 12.8959C19.5773 10.2659 19.5773 7.63588 19.5773 5.44588" stroke="#1E1E1E" stroke-width="2" stroke-linecap="round"/>
<path d="M10.5525 107.005C10.5425 106.105 10.5225 102.495 10.5125 101.595" stroke="#1E1E1E" stroke-linecap="round"/>
<path d="M10.4804 101.798C10.7304 101.438 11.7404 100.018 11.9904 99.6578" stroke="#1E1E1E" stroke-linecap="round"/>
<path d="M13.4832 107.069C13.4932 106.169 13.5132 102.559 13.5232 101.659" stroke="#1E1E1E" stroke-linecap="round"/>
<path d="M13.5552 101.862C13.3052 101.502 12.2952 100.082 12.0452 99.722" stroke="#1E1E1E" stroke-linecap="round"/>
<path d="M8.34015 107.555C9.52015 107.535 14.2201 107.455 15.3901 107.435" stroke="#1E1E1E" stroke-linecap="round"/>
<path d="M12.1987 107.646C12.2087 108.276 12.2487 110.816 12.2587 111.446" stroke="#1E1E1E" stroke-linecap="round"/>
<path d="M53.6099 102.727C53.9699 102.357 55.4099 100.857 55.7699 100.477" stroke="#1E1E1E" stroke-linecap="round"/>
<path d="M55.7654 100.437C56.1654 100.767 57.7454 102.087 58.1454 102.417" stroke="#1E1E1E" stroke-linecap="round"/>
<path d="M58.2352 102.682C57.5452 103.742 54.7952 107.992 54.1052 109.062" stroke="#1E1E1E" stroke-linecap="round"/>
<path d="M53.6773 102.727C53.3173 102.357 51.8773 100.857 51.5173 100.477" stroke="#1E1E1E" stroke-linecap="round"/>
<path d="M51.5217 100.437C51.1217 100.767 49.5417 102.087 49.1417 102.417" stroke="#1E1E1E" stroke-linecap="round"/>
<path d="M49.0519 102.682C49.7419 103.742 52.4919 107.992 53.1819 109.062" stroke="#1E1E1E" stroke-linecap="round"/>
<path d="M32.882 11.2869V6.52086H33.5895V7.24073H33.6391C33.726 7.00491 33.8832 6.81357 34.1107 6.6667C34.3383 6.51983 34.5948 6.44639 34.8803 6.44639C34.934 6.44639 35.0013 6.44743 35.0819 6.4495C35.1626 6.45156 35.2236 6.45467 35.265 6.45881V7.20349C35.2402 7.19729 35.1833 7.18798 35.0944 7.17557C35.0075 7.16109 34.9154 7.15385 34.8182 7.15385C34.5865 7.15385 34.3797 7.20246 34.1976 7.29968C34.0177 7.39484 33.8749 7.52723 33.7694 7.69685C33.666 7.8644 33.6143 8.05575 33.6143 8.27088V11.2869H32.882ZM39.1366 9.33827V6.52086H39.8689V11.2869H39.1366V10.4801H39.087C38.9753 10.7221 38.8015 10.928 38.5657 11.0976C38.3299 11.2651 38.032 11.3489 37.6721 11.3489C37.3742 11.3489 37.1094 11.2838 36.8777 11.1534C36.646 11.0211 36.464 10.8225 36.3316 10.5577C36.1992 10.2908 36.133 9.9547 36.133 9.54926V6.52086H36.8653V9.49961C36.8653 9.84714 36.9625 10.1243 37.157 10.3312C37.3535 10.538 37.6038 10.6415 37.9079 10.6415C38.0899 10.6415 38.2751 10.5949 38.4633 10.5018C38.6536 10.4088 38.8129 10.266 38.9411 10.0736C39.0715 9.88127 39.1366 9.63614 39.1366 9.33827ZM41.3094 11.2869V4.93219H42.0417V7.27796H42.1037C42.1575 7.19522 42.232 7.08972 42.3271 6.96147C42.4244 6.83115 42.563 6.71531 42.7429 6.61395C42.925 6.51052 43.1711 6.45881 43.4814 6.45881C43.8827 6.45881 44.2364 6.55913 44.5426 6.75978C44.8487 6.96044 45.0877 7.24486 45.2593 7.61307C45.431 7.98128 45.5169 8.41568 45.5169 8.91628C45.5169 9.42101 45.431 9.85851 45.2593 10.2288C45.0877 10.597 44.8498 10.8825 44.5457 11.0852C44.2416 11.2858 43.891 11.3862 43.4938 11.3862C43.1877 11.3862 42.9425 11.3355 42.7584 11.2341C42.5743 11.1307 42.4326 11.0138 42.3333 10.8835C42.2341 10.7511 42.1575 10.6415 42.1037 10.5546H42.0168V11.2869H41.3094ZM42.0293 8.90386C42.0293 9.2638 42.082 9.58132 42.1875 9.85644C42.293 10.1295 42.4471 10.3436 42.6498 10.4987C42.8526 10.6518 43.1008 10.7283 43.3945 10.7283C43.7007 10.7283 43.9561 10.6477 44.1609 10.4863C44.3678 10.3229 44.5229 10.1036 44.6264 9.82852C44.7319 9.55133 44.7846 9.24311 44.7846 8.90386C44.7846 8.56875 44.7329 8.26674 44.6295 7.99783C44.5281 7.72684 44.374 7.51275 44.1671 7.35553C43.9623 7.19625 43.7048 7.11661 43.3945 7.11661C43.0966 7.11661 42.8463 7.19212 42.6436 7.34312C42.4409 7.49206 42.2878 7.70099 42.1844 7.9699C42.081 8.23675 42.0293 8.54807 42.0293 8.90386ZM46.637 11.2869V6.52086H47.3445V7.24073H47.3941C47.481 7.00491 47.6382 6.81357 47.8658 6.6667C48.0933 6.51983 48.3498 6.44639 48.6353 6.44639C48.689 6.44639 48.7563 6.44743 48.837 6.4495C48.9176 6.45156 48.9786 6.45467 49.02 6.45881V7.20349C48.9952 7.19729 48.9383 7.18798 48.8494 7.17557C48.7625 7.16109 48.6704 7.15385 48.5732 7.15385C48.3415 7.15385 48.1347 7.20246 47.9526 7.29968C47.7727 7.39484 47.6299 7.52723 47.5244 7.69685C47.421 7.8644 47.3693 8.05575 47.3693 8.27088V11.2869H46.637ZM51.6792 11.3862C51.2489 11.3862 50.8714 11.2838 50.5466 11.079C50.2239 10.8742 49.9716 10.5877 49.7895 10.2195C49.6096 9.85127 49.5196 9.42101 49.5196 8.92869C49.5196 8.43223 49.6096 7.99886 49.7895 7.62859C49.9716 7.25831 50.2239 6.97078 50.5466 6.76599C50.8714 6.5612 51.2489 6.45881 51.6792 6.45881C52.1094 6.45881 52.4859 6.5612 52.8086 6.76599C53.1334 6.97078 53.3858 7.25831 53.5657 7.62859C53.7478 7.99886 53.8388 8.43223 53.8388 8.92869C53.8388 9.42101 53.7478 9.85127 53.5657 10.2195C53.3858 10.5877 53.1334 10.8742 52.8086 11.079C52.4859 11.2838 52.1094 11.3862 51.6792 11.3862ZM51.6792 10.7283C52.006 10.7283 52.2749 10.6446 52.4859 10.477C52.6969 10.3095 52.8531 10.0892 52.9545 9.81611C53.0558 9.54305 53.1065 9.24725 53.1065 8.92869C53.1065 8.61013 53.0558 8.31328 52.9545 8.03816C52.8531 7.76304 52.6969 7.54067 52.4859 7.37105C52.2749 7.20142 52.006 7.11661 51.6792 7.11661C51.3523 7.11661 51.0834 7.20142 50.8724 7.37105C50.6614 7.54067 50.5053 7.76304 50.4039 8.03816C50.3025 8.31328 50.2519 8.61013 50.2519 8.92869C50.2519 9.24725 50.3025 9.54305 50.4039 9.81611C50.5053 10.0892 50.6614 10.3095 50.8724 10.477C51.0834 10.6446 51.3523 10.7283 51.6792 10.7283Z" fill="#1E1E1E"/>
<path d="M10.5952 90.0516C21.5852 90.0516 65.5652 90.0516 76.5552 90.0516" stroke="#1E1E1E" stroke-width="2" stroke-linecap="round"/>
<path d="M44.625 61.467C44.855 61.507 45.045 61.347 45.195 61.527C45.345 61.697 45.485 62.277 45.535 62.507C45.575 62.737 45.595 62.747 45.475 62.917C45.355 63.077 45.015 63.447 44.795 63.487C44.575 63.537 44.335 63.317 44.155 63.187C43.965 63.057 43.845 62.857 43.695 62.707C43.555 62.547 43.275 62.447 43.285 62.247C43.295 62.057 43.525 61.677 43.755 61.537C43.975 61.397 44.445 61.427 44.625 61.417C44.815 61.407 44.875 61.527 44.845 61.487M44.395 61.367C44.715 61.267 45.405 61.037 45.555 61.237C45.705 61.437 45.295 62.207 45.295 62.567C45.295 62.937 45.655 63.197 45.545 63.407C45.425 63.617 44.795 63.787 44.585 63.847C44.365 63.907 44.445 63.897 44.255 63.767C44.065 63.627 43.625 63.327 43.425 63.037C43.225 62.757 43.005 62.277 43.045 62.057C43.085 61.837 43.395 61.927 43.655 61.717C43.905 61.507 44.355 60.817 44.575 60.787C44.795 60.767 44.955 61.527 44.965 61.577" fill="#1E1E1E"/>
<path d="M44.715 61.527C44.965 61.597 45.285 61.737 45.475 61.807C45.675 61.877 45.815 61.717 45.895 61.957C45.965 62.197 46.025 63.017 45.925 63.237C45.835 63.447 45.655 63.247 45.325 63.247C44.995 63.247 44.215 63.287 43.945 63.237C43.685 63.197 43.805 63.217 43.735 62.997C43.665 62.777 43.545 62.137 43.555 61.937C43.565 61.737 43.595 61.967 43.795 61.807C43.985 61.647 44.605 61.027 44.735 60.957C44.875 60.897 44.625 61.317 44.605 61.427M44.395 61.117C44.635 61.037 45.235 60.867 45.445 61.087C45.665 61.297 45.665 62.137 45.665 62.427C45.675 62.707 45.605 62.587 45.475 62.797C45.335 63.007 45.015 63.627 44.855 63.697C44.705 63.757 44.765 63.287 44.545 63.197C44.315 63.097 43.765 63.217 43.525 63.137C43.285 63.067 42.965 63.007 43.095 62.737C43.235 62.477 44.145 61.857 44.345 61.537C44.545 61.217 44.205 60.857 44.315 60.817C44.435 60.777 45.025 61.277 45.025 61.317" stroke="#1E1E1E" stroke-linecap="round"/>
<path d="M43.7206 62.3973C42.0106 61.5173 34.9006 57.5273 33.3006 56.5673M43.0206 61.9773C41.5006 60.9673 35.8106 56.7473 34.3106 55.6973" stroke="#1E1E1E" stroke-linecap="round"/>
<path d="M45.5456 62.0715C47.4956 60.1515 55.6256 52.3915 57.6556 50.4615M46.3156 61.6915C48.2456 59.6015 55.5556 51.6415 57.4356 49.6115" stroke="#1E1E1E" stroke-linecap="round"/>
<path d="M32.7146 50.9379C33.3646 50.8379 34.1646 51.3279 34.7046 51.7179C35.2446 52.1079 35.7946 52.6579 35.9746 53.2879C36.1546 53.9079 36.1346 54.8079 35.7746 55.4679C35.4246 56.1279 34.5246 56.9279 33.8546 57.2179C33.1846 57.5179 32.3646 57.4379 31.7446 57.2379C31.1246 57.0279 30.4546 56.5479 30.1446 55.9979C29.8346 55.4479 29.8146 54.6779 29.8746 53.9579C29.9346 53.2379 29.9746 52.1979 30.5046 51.6779C31.0346 51.1479 32.6246 50.9379 33.0546 50.8079C33.4846 50.6779 33.1146 50.7979 33.0946 50.9079M32.5246 51.4479C33.1746 51.3379 33.7046 51.5579 34.2846 51.9179C34.8746 52.2779 35.7946 53.0079 36.0146 53.6179C36.2446 54.2279 35.9846 55.0279 35.6246 55.5779C35.2646 56.1279 34.4746 56.6179 33.8546 56.9379C33.2246 57.2579 32.4846 57.7079 31.8846 57.4879C31.2946 57.2679 30.5746 56.1179 30.2646 55.5979C29.9546 55.0679 29.9846 54.9579 30.0246 54.3279C30.0746 53.6979 30.2146 52.3879 30.5546 51.7979C30.8946 51.2079 31.6646 50.8379 32.0446 50.7779C32.4346 50.7179 32.7646 51.3379 32.8446 51.4579" fill="#1E1E1E"/>
<path d="M33.6746 51.3979C34.3346 51.4579 35.1846 51.4979 35.5246 51.9079C35.8646 52.3279 35.7346 53.1679 35.7146 53.8679C35.7046 54.5679 35.7946 55.6179 35.4346 56.1279C35.0846 56.6479 34.2746 56.7679 33.5946 56.9479C32.9146 57.1279 31.9246 57.5079 31.3546 57.1879C30.7746 56.8679 30.3846 55.6779 30.1446 55.0379C29.9146 54.3979 29.7546 53.8879 29.9346 53.3479C30.1246 52.8079 30.6846 52.1679 31.2546 51.7979C31.8346 51.4279 33.0146 51.2779 33.3846 51.1579C33.7546 51.0379 33.5046 51.0179 33.4846 51.0779M32.3246 50.9779C32.9246 50.8479 33.7346 51.4679 34.3646 51.7979C35.0046 52.1179 35.9246 52.3279 36.1346 52.9379C36.3546 53.5579 36.0246 54.7379 35.6646 55.4879C35.3046 56.2379 34.4646 57.1479 33.9746 57.4379C33.4946 57.7179 33.3846 57.5079 32.7546 57.2179C32.1246 56.9179 30.6146 56.1779 30.1946 55.6579C29.7846 55.1479 30.2246 54.7579 30.2446 54.1179C30.2646 53.4679 29.8846 52.2479 30.3246 51.7879C30.7746 51.3279 32.5046 51.5279 32.9146 51.3679C33.3246 51.1979 32.9146 50.8179 32.7746 50.7979" stroke="#1E1E1E" stroke-linecap="round"/>
<path d="M54.9324 50.7241C55.5824 50.7241 56.4824 50.9641 56.9824 51.4141C57.4824 51.8641 57.9424 52.6941 57.9524 53.4241C57.9624 54.1541 57.4724 55.2141 57.0324 55.7941C56.5824 56.3741 55.9124 56.7541 55.2824 56.9141C54.6624 57.0841 53.8124 57.0441 53.2624 56.7741C52.7024 56.5041 52.2524 55.9641 51.9524 55.2941C51.6424 54.6241 51.2224 53.4941 51.4324 52.7741C51.6324 52.0541 52.5624 51.3641 53.2024 50.9841C53.8524 50.6041 54.9724 50.5241 55.3024 50.5041C55.6324 50.4841 55.2724 50.8341 55.1924 50.8741M54.6824 51.0641C55.3424 51.0841 56.5624 51.5241 57.0624 51.9641C57.5624 52.4041 57.7224 53.1241 57.6824 53.7241C57.6424 54.3241 57.2224 55.0141 56.8124 55.5741C56.4024 56.1341 55.8124 56.9941 55.2224 57.0941C54.6324 57.1941 53.7824 56.4441 53.2724 56.1741C52.7524 55.8941 52.4224 56.0141 52.1524 55.4441C51.8824 54.8741 51.6024 53.5041 51.6524 52.7541C51.7124 52.0041 51.8624 51.2541 52.4724 50.9641C53.0824 50.6741 54.9024 51.0341 55.3224 51.0141C55.7324 51.0041 55.0724 50.7741 54.9624 50.8541" fill="#1E1E1E"/>
<path d="M54.6824 50.5241C55.2124 50.3241 55.6324 50.5941 56.1524 51.0041C56.6824 51.4141 57.5624 52.3341 57.8124 52.9641C58.0624 53.5941 57.9324 54.1341 57.6424 54.7841C57.3424 55.4341 56.6224 56.5841 56.0424 56.8741C55.4524 57.1741 54.7724 56.7241 54.1324 56.5441C53.4924 56.3641 52.6324 56.2541 52.2124 55.8141C51.7924 55.3641 51.5824 54.5741 51.6124 53.8841C51.6524 53.2041 51.9424 52.2541 52.4224 51.7041C52.8924 51.1641 54.1024 50.7341 54.4524 50.5941C54.7924 50.4541 54.5324 50.7941 54.4924 50.8641M54.8224 50.9741C55.5224 50.9641 56.7224 50.8841 57.2124 51.3441C57.6924 51.7941 57.7624 52.8941 57.7124 53.6941C57.6524 54.4841 57.1724 55.5941 56.8924 56.1141C56.6124 56.6341 56.6524 56.8041 56.0324 56.8141C55.4124 56.8241 53.7724 56.4741 53.1624 56.1941C52.5524 55.9241 52.6424 55.7541 52.3624 55.1741C52.0824 54.5841 51.2924 53.3041 51.4624 52.6941C51.6324 52.0941 52.7524 51.9241 53.3924 51.5341C54.0324 51.1441 55.1024 50.5141 55.3024 50.3541C55.5024 50.2041 54.5824 50.5741 54.5824 50.6241" stroke="#1E1E1E" stroke-linecap="round"/>
<path d="M30.8595 53.3003C30.2795 52.3003 28.4795 48.2703 27.8995 47.1303M31.3895 53.1603C30.7595 52.0503 28.3195 47.7403 27.7795 46.6703" stroke="#1E1E1E" stroke-linecap="round"/>
<path d="M33.956 53.5431C34.476 52.2531 36.126 47.0331 36.556 45.8231M33.686 53.3931C34.346 52.2831 36.636 47.2231 37.236 46.1031" stroke="#1E1E1E" stroke-linecap="round"/>
<path d="M32.5959 51.0143C33.1659 50.9443 34.1059 51.0643 34.6859 51.4243C35.2559 51.7943 35.8159 52.5443 36.0459 53.1943C36.2859 53.8543 36.4059 54.8143 36.1159 55.3643C35.8159 55.9243 34.8559 56.2943 34.2959 56.5243C33.7259 56.7543 33.2759 56.8743 32.7159 56.7243C32.1559 56.5643 31.3459 56.0643 30.9259 55.5843C30.5059 55.1143 30.2059 54.5343 30.1659 53.8543C30.1259 53.1743 30.2059 52.0143 30.6859 51.5143C31.1659 51.0243 32.6459 50.9943 33.0659 50.8543C33.4859 50.7243 33.1759 50.6443 33.1959 50.7043M33.0759 50.8443C33.6859 50.8943 34.6259 51.6743 35.1359 52.0843C35.6459 52.4843 36.0059 52.6243 36.1459 53.2943C36.2759 53.9643 36.3059 55.5343 35.9259 56.1043C35.5459 56.6643 34.6159 56.6543 33.8459 56.7043C33.0859 56.7543 31.8659 56.6143 31.3359 56.4143C30.8059 56.2143 30.8559 56.0343 30.6659 55.4843C30.4759 54.9343 30.1059 53.7443 30.1959 53.1343C30.2859 52.5143 30.6359 52.1843 31.1859 51.7743C31.7259 51.3643 32.9959 50.7643 33.4459 50.6643C33.9059 50.5643 33.9059 51.0043 33.9159 51.1643" fill="#FF4242"/>
<path d="M32.8959 50.5743C33.4859 50.5043 34.2659 51.2543 34.8359 51.6143C35.4059 51.9743 36.1159 52.1443 36.3159 52.7643C36.5159 53.3743 36.3259 54.6243 36.0459 55.3343C35.7559 56.0343 35.1859 56.7143 34.5759 56.9943C33.9759 57.2843 33.0659 57.2343 32.4159 57.0143C31.7659 56.7943 31.0659 56.2143 30.6659 55.6843C30.2559 55.1643 30.0059 54.5143 30.0059 53.8543C30.0059 53.2043 30.1559 52.2943 30.6659 51.7743C31.1759 51.2643 32.6959 50.9243 33.0659 50.7543C33.4259 50.5943 32.8359 50.6843 32.8459 50.7843M32.5059 51.3543C33.2359 51.2243 34.8859 51.1543 35.4559 51.3743C36.0259 51.5943 35.7759 52.0243 35.9459 52.6743C36.1159 53.3243 36.7559 54.6543 36.4759 55.2843C36.2059 55.9043 34.8759 56.1243 34.2759 56.4443C33.6659 56.7643 33.4159 57.4043 32.8559 57.2243C32.3059 57.0543 31.4859 56.0143 30.9559 55.3943C30.4259 54.7843 29.6259 54.2143 29.6759 53.5443C29.7259 52.8843 30.7659 51.9243 31.2859 51.4143C31.8059 50.9143 32.4659 50.6243 32.7859 50.5143C33.1059 50.4143 33.2259 50.7343 33.2159 50.8143" stroke="#1E1E1E" stroke-width="0.5" stroke-linecap="round"/>
<path d="M26.9713 41.3169C27.6213 41.2269 28.5313 41.5469 29.1213 41.9469C29.7113 42.3469 30.3713 43.1469 30.5213 43.7369C30.6613 44.3269 30.2213 44.9369 29.9613 45.4669C29.7113 45.9869 29.5013 46.6269 28.9913 46.9069C28.4713 47.1869 27.5313 47.2369 26.8613 47.1269C26.1913 47.0069 25.4313 46.7569 24.9713 46.1969C24.5113 45.6369 24.0313 44.4369 24.1113 43.7569C24.1913 43.0869 24.8713 42.5969 25.4313 42.1369C26.0013 41.6869 27.1313 41.1569 27.4813 41.0369C27.8313 40.9069 27.5313 41.3169 27.5413 41.3869M27.3113 41.4969C28.0013 41.4269 28.8513 41.1469 29.4313 41.6069C30.0113 42.0669 30.6913 43.5869 30.7813 44.2769C30.8713 44.9769 30.4713 45.3269 29.9813 45.7869C29.5013 46.2369 28.4513 46.7269 27.8713 47.0069C27.3013 47.2969 27.0813 47.6969 26.5413 47.4969C26.0013 47.2969 25.0513 46.3869 24.6513 45.8069C24.2413 45.2269 23.9813 44.7369 24.1213 44.0469C24.2613 43.3469 24.8413 42.0769 25.4913 41.6469C26.1413 41.2169 27.6513 41.4669 28.0113 41.4769C28.3713 41.4869 27.7213 41.6669 27.6313 41.7269" fill="#1E1E1E"/>
<path d="M27.3913 41.4969C28.0313 41.4569 29.0813 41.2569 29.6013 41.6669C30.1213 42.0769 30.4213 43.2069 30.5113 43.9569C30.5913 44.7169 30.4713 45.6169 30.1313 46.1769C29.7813 46.7369 29.0713 47.1469 28.4413 47.3069C27.8113 47.4769 26.9713 47.3669 26.3413 47.1469C25.7113 46.9269 25.0313 46.5469 24.6613 45.9769C24.2913 45.4169 23.9513 44.4469 24.1213 43.7569C24.2813 43.0669 25.0913 42.2969 25.6513 41.8569C26.2013 41.4169 27.0913 41.1669 27.4413 41.1069C27.7913 41.0369 27.7613 41.4169 27.7413 41.4769M28.0813 41.2169C28.7413 41.0469 28.8213 41.1469 29.3013 41.6069C29.7913 42.0669 30.9113 43.2969 30.9913 43.9769C31.0813 44.6569 30.1713 45.1069 29.8113 45.7069C29.4513 46.3069 29.3713 47.3869 28.8313 47.5769C28.2813 47.7669 27.3113 47.1869 26.5513 46.8569C25.7913 46.5269 24.5813 46.2069 24.2713 45.6169C23.9613 45.0269 24.5213 43.9969 24.7213 43.3169C24.9213 42.6369 24.9213 41.8969 25.4513 41.5369C25.9813 41.1769 27.5813 41.1969 27.9013 41.1369C28.2213 41.0669 27.4413 41.0569 27.3913 41.1269" stroke="#1E1E1E" stroke-linecap="round"/>
<path d="M37.6905 40.2579C38.3705 40.2779 39.3605 40.7679 39.8105 41.1779C40.2605 41.5879 40.2805 42.1079 40.3705 42.6979C40.4705 43.2879 40.6705 44.1579 40.3805 44.7079C40.0905 45.2579 39.3105 45.7479 38.6405 45.9879C37.9805 46.2279 37.0605 46.4179 36.3805 46.1279C35.6905 45.8479 34.8105 44.8779 34.5305 44.2679C34.2605 43.6479 34.4905 43.0779 34.7405 42.4479C34.9905 41.8179 35.4505 40.8579 36.0105 40.4779C36.5605 40.1079 37.7405 40.2679 38.1005 40.2079C38.4505 40.1379 38.1605 40.0979 38.1405 40.0779M37.3905 39.6279C38.1205 39.5879 39.2705 40.6479 39.8005 41.1079C40.3305 41.5579 40.5705 41.8179 40.5805 42.3779C40.5805 42.9279 40.0905 43.7579 39.8305 44.4279C39.5605 45.1079 39.5505 46.1379 39.0005 46.4279C38.4505 46.7279 37.2505 46.4279 36.5205 46.2179C35.7805 46.0179 34.9405 45.8379 34.5905 45.2179C34.2405 44.5979 34.1805 43.1879 34.4005 42.4979C34.6205 41.8179 35.4105 41.4079 35.9305 41.0879C36.4605 40.7579 37.3005 40.6279 37.5505 40.5379C37.8005 40.4379 37.4205 40.4779 37.4105 40.4979" fill="#1E1E1E"/>
<path d="M37.2605 39.8379C37.8905 39.6779 38.6605 40.2679 39.2005 40.7079C39.7405 41.1479 40.3205 41.8779 40.5205 42.4979C40.7305 43.1079 40.6605 43.8379 40.4105 44.3979C40.1605 44.9579 39.6205 45.5079 39.0305 45.8379C38.4405 46.1579 37.5605 46.4779 36.8705 46.3579C36.1805 46.2379 35.2405 45.6679 34.8705 45.1079C34.5005 44.5579 34.6105 43.7179 34.6605 43.0279C34.7105 42.3479 34.7305 41.4779 35.1805 41.0179C35.6305 40.5679 37.0505 40.4579 37.3705 40.3079C37.6805 40.1479 37.0905 40.1179 37.0805 40.0979M37.8405 39.6979C38.4605 39.7679 39.9705 40.6979 40.4005 41.2279C40.8305 41.7579 40.4305 42.1579 40.4305 42.8679C40.4405 43.5679 40.7605 44.9479 40.4305 45.4579C40.1005 45.9679 39.2505 45.8679 38.4505 45.9179C37.6505 45.9679 36.2105 46.0979 35.6305 45.7679C35.0505 45.4379 35.1605 44.6079 34.9705 43.9579C34.7905 43.3079 34.3105 42.4279 34.5305 41.8479C34.7605 41.2579 35.7505 40.7379 36.3105 40.4279C36.8705 40.1179 37.5905 40.0079 37.8905 39.9779C38.1905 39.9479 38.1205 40.1279 38.0805 40.2279" stroke="#1E1E1E" stroke-linecap="round"/>
<path d="M54.739 50.8424C55.339 50.7724 55.829 50.8824 56.349 51.2524C56.879 51.6224 57.709 52.4224 57.879 53.0824C58.059 53.7324 57.809 54.5724 57.429 55.2024C57.049 55.8224 56.319 56.6224 55.609 56.8124C54.889 57.0024 53.759 56.6224 53.159 56.3524C52.559 56.0924 52.229 55.8024 51.999 55.2324C51.759 54.6624 51.619 53.5524 51.769 52.9124C51.919 52.2724 52.369 51.7924 52.899 51.4024C53.439 51.0124 54.639 50.7224 54.979 50.5624C55.309 50.3924 54.949 50.3724 54.909 50.4024M55.069 50.9524C55.719 51.0024 56.349 50.9224 56.709 51.2924C57.059 51.6624 57.079 52.4124 57.209 53.1724C57.329 53.9324 57.759 55.2424 57.449 55.8524C57.149 56.4624 56.109 56.6524 55.359 56.8524C54.609 57.0424 53.569 57.3424 52.949 57.0224C52.329 56.6924 51.809 55.5324 51.639 54.8924C51.469 54.2624 51.739 53.7424 51.929 53.2024C52.119 52.6624 52.319 52.0224 52.779 51.6524C53.239 51.2824 54.359 51.1224 54.689 51.0024C55.029 50.8824 54.699 50.9124 54.779 50.9524" fill="#1E1E1E"/>
<path d="M54.959 50.8224C55.559 50.9624 56.409 51.4524 56.849 51.9224C57.289 52.3924 57.589 53.0624 57.619 53.6624C57.649 54.2624 57.419 55.0024 57.009 55.5424C56.599 56.0824 55.859 56.7424 55.169 56.9024C54.479 57.0624 53.419 56.8324 52.869 56.5024C52.319 56.1624 52.109 55.5024 51.879 54.8724C51.659 54.2424 51.329 53.3024 51.519 52.7124C51.719 52.1224 52.519 51.6824 53.069 51.3324C53.619 50.9724 54.489 50.7424 54.829 50.6024C55.179 50.4624 55.069 50.3724 55.149 50.4924M54.999 50.6924C55.629 50.6724 55.779 50.5924 56.289 51.0524C56.809 51.5124 57.869 52.8224 58.079 53.4724C58.289 54.1224 58.049 54.4324 57.579 54.9424C57.109 55.4524 55.859 56.2924 55.239 56.5324C54.619 56.7624 54.409 56.6024 53.839 56.3524C53.259 56.1024 52.109 55.5424 51.769 55.0124C51.439 54.4824 51.709 53.7824 51.809 53.1524C51.899 52.5224 51.889 51.6424 52.349 51.2324C52.809 50.8224 54.239 50.7424 54.549 50.6824C54.859 50.6224 54.249 50.8924 54.209 50.8724" stroke="#1E1E1E" stroke-linecap="round"/>
<path d="M52.7426 52.9183C52.4626 51.8183 50.7426 47.2083 50.4326 46.0583M52.4626 52.6783C52.3026 51.6383 51.3426 47.5383 51.0626 46.4983" stroke="#1E1E1E" stroke-linecap="round"/>
<path d="M54.6891 53.0312C55.6991 51.7112 60.2291 46.5512 61.3591 45.2412M55.1691 52.7112C56.1191 51.4312 60.1191 46.8812 61.1591 45.6812" stroke="#1E1E1E" stroke-linecap="round"/>
<path d="M48.9362 40.2372C49.5362 40.1872 50.3862 40.6972 50.8562 41.0572C51.3362 41.4172 51.5962 41.7672 51.7962 42.3972C51.9962 43.0272 52.2562 44.2072 52.0662 44.8272C51.8862 45.4572 51.2462 45.8472 50.6562 46.1572C50.0662 46.4672 49.1862 46.8172 48.5462 46.6772C47.8962 46.5372 47.1862 45.9072 46.7762 45.2972C46.3662 44.6872 46.0762 43.7172 46.0762 43.0272C46.0762 42.3472 46.3262 41.6272 46.7962 41.1872C47.2762 40.7372 48.6562 40.4372 48.9362 40.3572C49.2162 40.2672 48.4762 40.6172 48.4862 40.6772M49.0862 40.7672C49.7862 40.7272 50.3562 40.6772 50.7962 41.0772C51.2362 41.4772 51.5862 42.5672 51.7462 43.1672C51.9062 43.7572 51.9362 44.0872 51.7662 44.6672C51.6062 45.2372 51.3362 46.2272 50.7562 46.6172C50.1662 47.0072 48.9862 47.1672 48.2562 47.0072C47.5262 46.8572 46.7562 46.2872 46.3662 45.7072C45.9662 45.1272 45.7562 44.2172 45.8862 43.5372C46.0162 42.8572 46.7062 42.2172 47.1462 41.6472C47.5962 41.0772 48.2662 40.2872 48.5462 40.1072C48.8362 39.9372 48.8962 40.4972 48.8562 40.5872" fill="#1E1E1E"/>
<path d="M49.4062 40.3572C50.0362 40.4072 50.8362 41.0372 51.2462 41.5472C51.6662 42.0472 51.8162 42.7472 51.8862 43.3872C51.9662 44.0172 52.0862 44.8372 51.7062 45.3572C51.3362 45.8772 50.3062 46.2872 49.6562 46.4772C48.9962 46.6672 48.4062 46.8072 47.7962 46.5072C47.1862 46.2072 46.2662 45.3672 45.9962 44.6772C45.7262 43.9872 45.8962 42.9372 46.1762 42.3672C46.4662 41.8072 47.1562 41.6072 47.7062 41.2672C48.2662 40.9272 49.2462 40.3872 49.5062 40.3172C49.7662 40.2472 49.2762 40.8072 49.2762 40.8572M49.0062 40.1072C49.4962 39.9272 49.8062 40.4472 50.3662 40.8172C50.9162 41.1872 52.1062 41.7372 52.3462 42.3472C52.5862 42.9572 52.0562 43.8372 51.7862 44.4872C51.5162 45.1372 51.3462 45.9372 50.7262 46.2572C50.1162 46.5772 48.7962 46.5572 48.1062 46.4272C47.4062 46.2872 46.9562 45.9172 46.5362 45.4272C46.1162 44.9472 45.5962 44.2472 45.5962 43.5172C45.6062 42.7872 46.0062 41.6072 46.5562 41.0472C47.1162 40.4772 48.5662 40.2472 48.9462 40.1272C49.3262 40.0072 48.8362 40.2072 48.8362 40.3272" stroke="#1E1E1E" stroke-linecap="round"/>
<path d="M61.0432 41.4262C61.5932 41.2862 62.2232 41.1562 62.8032 41.4962C63.3832 41.8462 64.2432 42.8362 64.5232 43.4862C64.8132 44.1462 64.7432 44.7762 64.5032 45.4062C64.2632 46.0462 63.6632 46.9562 63.0732 47.2762C62.4832 47.6062 61.6432 47.5862 60.9732 47.3762C60.3032 47.1662 59.5032 46.5662 59.0532 46.0162C58.6032 45.4662 58.2332 44.7162 58.2732 44.0862C58.3032 43.4562 58.8632 42.6562 59.2632 42.2262C59.6732 41.7962 60.3732 41.6362 60.7132 41.4962C61.0432 41.3462 61.2532 41.3762 61.2832 41.3562M61.0232 41.4062C61.5432 41.3262 62.2732 41.9462 62.8132 42.2762C63.3532 42.5962 63.9632 42.7562 64.2632 43.3662C64.5632 43.9762 64.8532 45.2162 64.6032 45.9262C64.3532 46.6462 63.4332 47.3462 62.7532 47.6562C62.0732 47.9762 61.1532 47.9862 60.4932 47.7962C59.8432 47.5962 59.1332 47.0462 58.8132 46.4962C58.4932 45.9462 58.5732 45.2562 58.5932 44.4962C58.6132 43.7362 58.5132 42.4362 58.9332 41.9262C59.3532 41.4062 60.8732 41.5062 61.1432 41.4062C61.4232 41.2962 60.5632 41.2962 60.5832 41.2862" fill="#1E1E1E"/>
<path d="M61.3431 41.4062C61.9431 41.3962 62.6031 41.6362 63.1531 42.0362C63.7031 42.4462 64.5031 43.1962 64.6431 43.8362C64.7831 44.4862 64.3231 45.2862 63.9831 45.9062C63.6431 46.5262 63.2331 47.3262 62.5831 47.5562C61.9331 47.7762 60.7331 47.5662 60.1031 47.2562C59.4631 46.9462 59.0031 46.1962 58.7731 45.6862C58.5331 45.1762 58.5631 44.8162 58.6731 44.1762C58.7731 43.5362 58.9931 42.2762 59.4131 41.8462C59.8431 41.4262 60.8431 41.7262 61.2031 41.6162C61.5731 41.5162 61.5731 41.1562 61.5931 41.2062M61.2331 41.1762C61.8731 41.1862 63.3631 41.4362 63.8931 41.8762C64.4131 42.3162 64.3131 43.1162 64.3731 43.8262C64.4331 44.5262 64.6431 45.5362 64.2431 46.1162C63.8531 46.6862 62.6831 47.0762 61.9931 47.2762C61.2931 47.4662 60.7031 47.5062 60.0731 47.2862C59.4431 47.0562 58.5431 46.5862 58.2231 45.9162C57.9031 45.2462 57.8731 43.9962 58.1331 43.2662C58.4031 42.5462 59.2231 41.9062 59.8331 41.5462C60.4431 41.1862 61.4331 41.1362 61.7731 41.1262C62.1131 41.1162 61.8431 41.4562 61.8631 41.4562" stroke="#1E1E1E" stroke-linecap="round"/>
<path d="M64.3493 41.9846C64.7993 41.0146 66.7593 37.1546 67.2893 36.1546M63.9393 41.6546C64.3093 40.7446 66.3793 37.4546 66.9393 36.5446" stroke="#1E1E1E" stroke-linecap="round"/>
<path d="M54.8177 51.0097C55.5277 51.0097 56.3477 51.1397 56.8577 51.5997C57.3577 52.0597 57.7577 53.0997 57.8577 53.7797C57.9477 54.4497 57.7877 55.1697 57.4177 55.6697C57.0377 56.1597 56.2977 56.5697 55.6277 56.7597C54.9477 56.9397 53.9677 56.9997 53.3577 56.7797C52.7477 56.5697 52.3277 55.9897 51.9677 55.4697C51.5977 54.9397 51.0277 54.2597 51.1777 53.6197C51.3177 52.9797 52.2577 52.0997 52.8177 51.6197C53.3677 51.1297 54.2277 50.7497 54.5177 50.6997C54.7977 50.6397 54.4677 51.1897 54.5277 51.2897M54.4877 50.8097C55.2377 50.7497 56.4277 51.4697 56.9477 52.0197C57.4677 52.5597 57.5877 53.3997 57.5977 54.0797C57.6177 54.7497 57.3977 55.5297 57.0477 56.0697C56.6877 56.5997 56.0277 57.0797 55.4677 57.2897C54.9177 57.4897 54.3677 57.6297 53.7177 57.2897C53.0777 56.9497 51.9577 55.8797 51.5977 55.2597C51.2377 54.6397 51.4877 54.1897 51.5677 53.5697C51.6577 52.9597 51.5777 52.0597 52.1177 51.5797C52.6477 51.0997 54.4377 50.7197 54.7777 50.6997C55.1177 50.6697 54.2177 51.3797 54.1377 51.4197" fill="#FF4242"/>
<path d="M54.8477 50.9097C55.5177 50.8797 56.0577 51.1997 56.5577 51.6897C57.0477 52.1897 57.7177 53.2197 57.7877 53.8897C57.8677 54.5497 57.3477 55.2097 56.9777 55.6997C56.6077 56.1897 56.1277 56.5497 55.5777 56.8197C55.0277 57.0897 54.3177 57.5597 53.6877 57.3197C53.0477 57.0797 52.1777 55.9797 51.7677 55.3897C51.3577 54.7897 51.0477 54.3997 51.1977 53.7497C51.3477 53.0997 52.1077 51.8797 52.6577 51.4697C53.2077 51.0697 54.1277 51.3397 54.5077 51.2997C54.8777 51.2697 54.9377 51.3197 54.9377 51.2697M54.2477 50.6697C54.8777 50.6397 56.1877 51.0997 56.7077 51.5197C57.2177 51.9497 57.2577 52.5697 57.3577 53.2397C57.4577 53.9197 57.6277 54.8997 57.3077 55.5497C56.9877 56.1997 56.0677 56.9397 55.4077 57.1397C54.7577 57.3397 53.9277 57.0097 53.3877 56.7297C52.8477 56.4597 52.4677 56.0097 52.1577 55.4797C51.8577 54.9397 51.4877 54.1297 51.5577 53.5397C51.6377 52.9497 52.1077 52.4097 52.6177 51.9097C53.1377 51.4097 54.4077 50.6197 54.6477 50.5397C54.8777 50.4497 54.1677 51.2197 54.0577 51.3997" stroke="#1E1E1E" stroke-width="0.5" stroke-linecap="round"/>
<path d="M68.4834 30.4842C69.1134 30.3642 70.0034 30.8242 70.5734 31.1842C71.1434 31.5542 71.7134 32.0942 71.9134 32.6542C72.1034 33.2242 72.0334 33.9642 71.7534 34.5642C71.4734 35.1642 70.7834 35.9142 70.2134 36.2642C69.6334 36.6242 69.0034 36.7742 68.2934 36.7042C67.5834 36.6342 66.3934 36.3742 65.9734 35.8642C65.5634 35.3542 65.7634 34.3942 65.8034 33.6542C65.8434 32.9042 65.8134 31.8542 66.1934 31.3942C66.5734 30.9442 67.6834 31.0042 68.0734 30.8942C68.4634 30.7842 68.4934 30.7342 68.5434 30.7242M69.5134 30.9142C70.1634 31.0742 70.6634 31.6042 71.0234 32.1142C71.3834 32.6242 71.6634 33.3542 71.6834 33.9942C71.6934 34.6242 71.4434 35.3842 71.1134 35.9042C70.7734 36.4142 70.3534 37.0342 69.6834 37.0742C69.0034 37.1242 67.6734 36.5042 67.0534 36.1542C66.4234 35.8042 66.2134 35.5642 65.9234 34.9942C65.6334 34.4142 65.0634 33.3842 65.2834 32.6842C65.5034 31.9942 66.6834 31.0942 67.2434 30.8142C67.8134 30.5342 68.4234 31.1042 68.6934 31.0242C68.9634 30.9442 68.7834 30.3242 68.8734 30.3442" fill="#FF4242"/>
<path d="M68.5734 30.5242C69.2034 30.5142 70.3334 31.0842 70.8434 31.5142C71.3434 31.9342 71.4734 32.4842 71.5934 33.0642C71.7134 33.6442 71.7834 34.3442 71.5434 34.9942C71.3134 35.6442 70.8234 36.7342 70.1834 36.9942C69.5434 37.2442 68.4534 36.7542 67.7134 36.5342C66.9734 36.3242 66.1034 36.2442 65.7634 35.6742C65.4234 35.1042 65.5534 33.7742 65.6734 33.1142C65.7834 32.4542 65.9234 32.0942 66.4534 31.7142C66.9934 31.3342 68.5334 31.0642 68.8734 30.8442C69.2134 30.6342 68.5434 30.3742 68.4934 30.4342M68.6534 30.5642C69.2634 30.4842 69.7034 30.6042 70.2134 30.9942C70.7234 31.3742 71.5234 32.1942 71.6934 32.8842C71.8634 33.5842 71.5334 34.5942 71.2334 35.1442C70.9334 35.6942 70.3834 35.9642 69.8834 36.1742C69.3834 36.3942 68.8334 36.5742 68.2434 36.4542C67.6534 36.3242 66.7434 35.8842 66.3434 35.4242C65.9434 34.9542 65.7634 34.3642 65.8234 33.6542C65.8934 32.9442 66.3634 31.6042 66.7334 31.1542C67.0934 30.7142 67.8334 31.0142 68.0334 31.0042C68.2434 30.9842 67.9634 31.0442 67.9634 31.0542" stroke="#1E1E1E" stroke-width="0.5" stroke-linecap="round"/>
<path d="M33.1254 53.5596C33.1254 53.7696 33.1254 54.6196 33.1254 54.8296" stroke="#1E1E1E" stroke-width="0.5" stroke-linecap="round"/>
<path d="M31.4006 54.0873C31.6906 53.8673 32.5606 52.7373 33.1606 52.7573C33.7606 52.7673 34.6906 53.9573 35.0006 54.1973" stroke="#1E1E1E" stroke-width="0.5" stroke-linecap="round"/>
<path d="M34.9356 54.3647C34.635 54.5699 33.7097 55.6551 33.1114 55.6051C32.5127 55.5652 31.6432 54.3302 31.3456 54.0751" stroke="#1E1E1E" stroke-width="0.5" stroke-linecap="round"/>
<path d="M54.713 53.4117C54.713 53.6217 54.713 54.4717 54.713 54.6817" stroke="#1E1E1E" stroke-width="0.5" stroke-linecap="round"/>
<path d="M52.9882 53.9394C53.2782 53.7194 54.1482 52.5894 54.7482 52.6094C55.3482 52.6194 56.2782 53.8094 56.5882 54.0494" stroke="#1E1E1E" stroke-width="0.5" stroke-linecap="round"/>
<path d="M56.5232 54.2167C56.2226 54.422 55.2972 55.5071 54.699 55.4572C54.1002 55.4172 53.2308 54.1823 52.9332 53.9271" stroke="#1E1E1E" stroke-width="0.5" stroke-linecap="round"/>
<path d="M61.8143 43.5317C61.2943 42.2017 58.6143 37.1117 58.0743 35.9017M61.5643 43.2217C61.1843 42.0717 59.2743 37.2817 58.7643 36.1917" stroke="#1E1E1E" stroke-linecap="round"/>
<path d="M56.8733 30.8087C57.4433 30.8587 58.2533 31.6987 58.7933 32.2087C59.3333 32.7287 60.0233 33.3087 60.1333 33.8987C60.2433 34.4887 59.8133 35.2287 59.4533 35.7687C59.0933 36.3087 58.6333 36.8887 57.9633 37.1487C57.2933 37.3987 56.0533 37.5687 55.4233 37.3087C54.7933 37.0487 54.4133 36.2287 54.1933 35.5787C53.9733 34.9187 53.9333 34.0187 54.1033 33.3587C54.2733 32.7087 54.7133 31.9987 55.2333 31.6587C55.7633 31.3187 56.9033 31.4387 57.2433 31.3387C57.5933 31.2387 57.3833 31.0287 57.3133 31.0487M57.0633 30.8087C57.7033 30.8587 57.9833 31.8087 58.4133 32.2287C58.8433 32.6487 59.4333 32.7187 59.6333 33.3387C59.8333 33.9687 59.9933 35.2987 59.6233 35.9687C59.2433 36.6387 58.0533 37.2387 57.4033 37.3587C56.7533 37.4787 56.3133 36.9187 55.7133 36.6987C55.1133 36.4787 54.1433 36.6087 53.7833 36.0387C53.4333 35.4787 53.4433 34.0487 53.5833 33.3087C53.7233 32.5687 54.1233 32.0187 54.6033 31.5987C55.0833 31.1787 56.1733 30.8987 56.4733 30.8087C56.7733 30.7287 56.2933 31.0687 56.4033 31.1087" fill="#FF4242"/>
<path d="M57.0733 31.4386C57.7333 31.5586 58.8933 31.9486 59.3333 32.3586C59.7733 32.7586 59.7333 33.1886 59.7033 33.8586C59.6733 34.5286 59.5833 35.8086 59.1733 36.3586C58.7533 36.9186 57.9033 37.0686 57.2233 37.1986C56.5533 37.3286 55.6933 37.4986 55.1333 37.1686C54.5733 36.8386 54.0933 35.8886 53.8733 35.2386C53.6433 34.5786 53.5433 33.8886 53.7633 33.2386C53.9933 32.5986 54.6033 31.7186 55.2133 31.3486C55.8233 30.9686 57.1133 30.9886 57.4333 30.9886C57.7433 30.9986 57.1733 31.2886 57.1033 31.3786M56.8933 30.6486C57.4333 30.6086 57.9133 31.5086 58.3433 32.0386C58.7733 32.5586 59.2933 33.1786 59.4533 33.7886C59.6133 34.3986 59.4933 35.2086 59.2833 35.6886C59.0833 36.1786 58.8433 36.3986 58.2133 36.6986C57.5833 36.9886 56.1833 37.5386 55.5233 37.4686C54.8633 37.4086 54.6033 36.8486 54.2533 36.3186C53.9033 35.7786 53.3333 34.9186 53.4233 34.2586C53.5133 33.5886 54.2933 32.8386 54.7933 32.3486C55.3033 31.8486 56.2333 31.5086 56.4533 31.3086C56.6733 31.1086 56.1533 31.0986 56.1233 31.1686" stroke="#1E1E1E" stroke-width="0.5" stroke-linecap="round"/>
<path d="M56.8263 33.885C56.8263 34.095 56.8263 34.945 56.8263 35.155" stroke="#1E1E1E" stroke-width="0.5" stroke-linecap="round"/>
<path d="M55.1015 34.4127C55.3915 34.1927 56.2615 33.0627 56.8615 33.0827C57.4615 33.0927 58.3915 34.2827 58.7015 34.5227" stroke="#1E1E1E" stroke-width="0.5" stroke-linecap="round"/>
<path d="M58.6366 34.6901C58.3359 34.8953 57.4106 35.9805 56.8123 35.9305C56.2136 35.8906 55.3442 34.6556 55.0465 34.4004" stroke="#1E1E1E" stroke-width="0.5" stroke-linecap="round"/>
<path d="M68.5596 32.8983C68.5596 33.1083 68.5596 33.9583 68.5596 34.1683" stroke="#1E1E1E" stroke-width="0.5" stroke-linecap="round"/>
<path d="M66.8348 33.426C67.1248 33.206 67.9948 32.076 68.5948 32.096C69.1948 32.106 70.1248 33.296 70.4348 33.536" stroke="#1E1E1E" stroke-width="0.5" stroke-linecap="round"/>
<path d="M70.3699 33.7034C70.0693 33.9087 69.1439 34.9938 68.5457 34.9439C67.9469 34.9039 67.0775 33.669 66.7799 33.4138" stroke="#1E1E1E" stroke-width="0.5" stroke-linecap="round"/>
<path d="M36.6383 43.4974C36.1083 42.3074 34.2683 37.5274 33.7283 36.3274M37.2383 44.1374C36.6583 43.0174 34.2483 37.9974 33.5483 36.7374" stroke="#1E1E1E" stroke-linecap="round"/>
<path d="M32.2873 31.2543C32.8973 31.2643 33.7173 31.8143 34.2173 32.2243C34.7273 32.6343 35.2773 33.0843 35.3273 33.7143C35.3873 34.3443 34.9073 35.4643 34.5573 36.0143C34.2073 36.5643 33.8073 36.7743 33.2173 37.0143C32.6173 37.2643 31.6373 37.6843 30.9673 37.4643C30.2973 37.2443 29.4773 36.3043 29.1973 35.6743C28.9073 35.0543 29.1473 34.3043 29.2473 33.7043C29.3473 33.1143 29.3073 32.5743 29.8073 32.1243C30.3073 31.6743 31.8173 31.1343 32.2473 31.0143C32.6773 30.8843 32.4273 31.3043 32.3673 31.3643M32.1273 31.1043C32.7173 31.1343 33.4673 31.4443 33.9073 31.9443C34.3373 32.4443 34.5373 33.4643 34.7073 34.1143C34.8773 34.7543 35.2973 35.2743 34.9073 35.8243C34.5273 36.3643 33.0273 37.2343 32.3873 37.3843C31.7373 37.5343 31.5073 37.0843 31.0473 36.7243C30.5973 36.3743 29.9973 35.7343 29.6673 35.2643C29.3273 34.7943 28.8273 34.3943 29.0173 33.9043C29.2173 33.4043 30.2773 32.7043 30.8173 32.2943C31.3473 31.8943 31.9473 31.6643 32.2473 31.4643C32.5373 31.2643 32.6173 31.1243 32.5773 31.1143" fill="#FF4242"/>
<path d="M31.8773 31.0743C32.5473 30.9643 33.5173 31.2743 34.0173 31.7243C34.5173 32.1843 34.7573 33.1243 34.8673 33.8043C34.9673 34.4943 34.9373 35.2543 34.6573 35.8543C34.3873 36.4443 33.7873 37.1043 33.2273 37.3943C32.6573 37.6843 31.9573 37.8343 31.2773 37.5943C30.6073 37.3543 29.5373 36.5743 29.1973 35.9543C28.8473 35.3243 29.0573 34.4943 29.2073 33.8343C29.3673 33.1643 29.6673 32.3543 30.1373 31.9543C30.5973 31.5443 31.7273 31.5243 31.9973 31.3843C32.2673 31.2343 31.7173 31.0243 31.7373 31.0643M32.5673 31.6743C33.2273 31.6843 33.8273 32.0343 34.1873 32.4543C34.5473 32.8743 34.6973 33.5243 34.7073 34.2043C34.7173 34.8843 34.5973 36.0743 34.2473 36.5243C33.9073 36.9843 33.1973 36.8043 32.6373 36.9643C32.0873 37.1243 31.5073 37.7543 30.9273 37.4843C30.3473 37.2243 29.5373 36.0843 29.1573 35.3743C28.7773 34.6643 28.3773 33.7543 28.6273 33.2043C28.8873 32.6643 30.0573 32.4143 30.6873 32.1143C31.3173 31.8143 32.1773 31.4443 32.4173 31.3943C32.6473 31.3343 32.1373 31.8043 32.1173 31.8043" stroke="#1E1E1E" stroke-width="0.5" stroke-linecap="round"/>
<path d="M32.0802 34.0707C32.0802 34.2807 32.0802 35.1307 32.0802 35.3407" stroke="#1E1E1E" stroke-width="0.5" stroke-linecap="round"/>
<path d="M30.3554 34.5984C30.6454 34.3784 31.5154 33.2484 32.1154 33.2684C32.7154 33.2784 33.6454 34.4684 33.9554 34.7084" stroke="#1E1E1E" stroke-width="0.5" stroke-linecap="round"/>
<path d="M33.8904 34.8801C33.5898 35.0853 32.631 36.2389 32.0662 36.1205C31.5009 36.0121 30.7648 34.5135 30.5007 34.1899" stroke="#1E1E1E" stroke-width="0.5" stroke-linecap="round"/>
<path d="M44.3874 62.6086C44.5174 65.2386 44.9274 76.2286 45.0074 78.9786M45.2474 63.5886C45.3574 66.2686 44.8174 76.8086 44.7074 79.4786" stroke="#1E1E1E" stroke-linecap="round"/>
<path d="M44.3904 79.4896C44.8904 79.4196 45.2304 79.4796 45.6704 79.7896C46.1204 80.0896 46.8704 80.7796 47.0404 81.3496C47.2004 81.9096 46.9804 82.6296 46.6604 83.1696C46.3404 83.7096 45.7204 84.4296 45.1204 84.5996C44.5104 84.7596 43.5304 84.3796 43.0304 84.1496C42.5304 83.9196 42.3104 83.7196 42.1304 83.2296C41.9504 82.7396 41.8304 81.7596 41.9504 81.2096C42.0804 80.6696 42.4504 80.2896 42.9004 79.9596C43.3404 79.6196 44.3504 79.3596 44.6304 79.1996C44.9004 79.0496 44.5904 79.0196 44.5504 79.0396M44.7004 79.5996C45.2504 79.6496 45.7304 79.4996 46.0104 79.8096C46.2904 80.1096 46.2504 80.7496 46.3604 81.4196C46.4804 82.0896 46.9404 83.2696 46.7004 83.8096C46.4504 84.3396 45.5404 84.4596 44.9004 84.6296C44.2604 84.7996 43.3704 85.1096 42.8504 84.8296C42.3304 84.5396 41.9104 83.4596 41.7904 82.9096C41.6704 82.3596 41.9504 81.9796 42.1104 81.5296C42.2704 81.0796 42.3804 80.5296 42.7504 80.2196C43.1204 79.9096 44.0504 79.7496 44.3204 79.6496C44.6004 79.5396 44.3304 79.5496 44.4104 79.5896" stroke="#1E1E1E" stroke-linecap="round"/>
</svg>
