<svg width="84" height="125" viewBox="0 0 84 125" fill="none" xmlns="http://www.w3.org/2000/svg">
<path d="M21.6903 1.24352C32.8203 0.703524 49.9903 4.78352 62.0903 1.24352C73.0403 -1.20648 80.2203 4.53353 82.2903 21.4435C83.7603 41.6335 82.3503 64.0035 82.2903 102.994C83.2003 117.184 73.9203 120.724 62.0903 123.194C53.1703 119.104 43.0203 124.824 21.6903 123.194C5.53027 121.544 -1.56973 114.034 1.49027 102.994C1.57027 87.0135 -1.57973 61.8835 1.49027 21.4435C4.84027 5.47353 8.91027 1.78352 21.6903 1.24352Z" fill="white"/>
<path d="M21.6903 1.24353C33.8003 1.92353 45.6303 1.13353 62.0903 1.24353M21.6903 1.24353C36.2303 1.60353 52.0803 1.88353 62.0903 1.24353M21.6903 1.24353C7.90026 0.473528 0.0602576 8.92353 1.49026 21.4435M21.6903 1.24353C8.82026 3.27353 -0.409742 5.75353 1.49026 21.4435M62.0903 1.24353C76.4203 1.75353 81.2103 6.51353 82.2903 21.4435M62.0903 1.24353C76.2203 0.243528 81.4203 7.10353 82.2903 21.4435M82.2903 21.4435C81.9603 38.9035 82.6103 57.0835 82.2903 102.994M82.2903 21.4435C81.2203 45.3735 82.6403 69.3735 82.2903 102.994M82.2903 102.994C80.5903 116.294 75.3203 124.164 62.0903 123.194M82.2903 102.994C82.6003 118.644 77.3303 123.424 62.0903 123.194M62.0903 123.194C47.8703 121.294 34.1403 123.094 21.6903 123.194M62.0903 123.194C50.3503 124.264 39.4003 122.954 21.6903 123.194M21.6903 123.194C8.02026 124.004 -0.269742 117.454 1.49026 102.994M21.6903 123.194C6.73026 123.564 -0.339742 117.404 1.49026 102.994M1.49026 102.994C1.86026 72.4135 3.23026 38.4635 1.49026 21.4435M1.49026 102.994C1.97026 78.1335 2.77026 52.1935 1.49026 21.4435" stroke="#1E1E1E" stroke-width="2" stroke-linecap="round"/>
<path d="M22.7652 1.0697C30.8252 1.0697 38.8852 1.0697 59.1552 1.0697C61.6352 1.0697 62.8852 2.3097 62.8852 4.7997C62.8852 7.2097 62.8852 9.6297 62.8852 12.2497C62.8852 14.7297 61.6352 15.9697 59.1552 15.9697C51.0552 15.9697 42.9552 15.9697 22.7652 15.9697C20.2752 15.9697 19.0352 14.7297 19.0352 12.2497C19.0352 9.3797 19.0352 6.5097 19.0352 4.7997C19.0352 2.3097 20.2752 1.0697 22.7652 1.0697Z" fill="white"/>
<path d="M22.7652 1.0697C35.8952 1.0697 49.0252 1.0697 59.1552 1.0697M22.7652 1.0697C30.0752 1.0697 37.3952 1.0697 59.1552 1.0697M22.7652 1.0697C20.2752 1.0697 19.0352 2.3097 19.0352 4.7997M59.1552 1.0697C61.6352 1.0697 62.8852 2.3097 62.8852 4.7997M62.8852 4.7997C62.8852 7.4197 62.8852 10.0497 62.8852 12.2497M62.8852 4.7997C62.8852 6.4497 62.8852 8.1097 62.8852 12.2497M62.8852 12.2497C62.8852 14.7297 61.6352 15.9697 59.1552 15.9697M59.1552 15.9697C50.0852 15.9697 41.0152 15.9697 22.7652 15.9697M59.1552 15.9697C45.6952 15.9697 32.2252 15.9697 22.7652 15.9697M22.7652 15.9697C20.2752 15.9697 19.0352 14.7297 19.0352 12.2497M19.0352 12.2497C19.0352 10.7497 19.0352 9.2597 19.0352 4.7997M19.0352 12.2497C19.0352 10.5297 19.0352 8.8097 19.0352 4.7997" stroke="#1E1E1E" stroke-width="2" stroke-linecap="round"/>
<path d="M23.2589 10.169V3.81434H25.4061C25.9046 3.81434 26.3121 3.90432 26.6286 4.08429C26.9472 4.26218 27.183 4.50317 27.3361 4.80725C27.4891 5.11133 27.5657 5.45058 27.5657 5.82499C27.5657 6.19941 27.4891 6.53969 27.3361 6.84584C27.1851 7.15199 26.9513 7.39608 26.6348 7.57811C26.3183 7.75808 25.9129 7.84806 25.4185 7.84806H23.8795V7.16543H25.3937C25.735 7.16543 26.0091 7.10648 26.2159 6.98857C26.4228 6.87066 26.5728 6.71138 26.6658 6.51073C26.761 6.30801 26.8086 6.07943 26.8086 5.82499C26.8086 5.57056 26.761 5.34301 26.6658 5.14236C26.5728 4.94171 26.4217 4.7845 26.2128 4.67073C26.0039 4.55489 25.7267 4.49697 25.3813 4.49697H24.0284V10.169H23.2589ZM30.591 10.2683C30.1607 10.2683 29.7832 10.1659 29.4584 9.96111C29.1357 9.75633 28.8834 9.46983 28.7013 9.10162C28.5214 8.73341 28.4314 8.30315 28.4314 7.81083C28.4314 7.31437 28.5214 6.881 28.7013 6.51073C28.8834 6.14045 29.1357 5.85292 29.4584 5.64813C29.7832 5.44334 30.1607 5.34095 30.591 5.34095C31.0212 5.34095 31.3977 5.44334 31.7204 5.64813C32.0452 5.85292 32.2975 6.14045 32.4775 6.51073C32.6595 6.881 32.7506 7.31437 32.7506 7.81083C32.7506 8.30315 32.6595 8.73341 32.4775 9.10162C32.2975 9.46983 32.0452 9.75633 31.7204 9.96111C31.3977 10.1659 31.0212 10.2683 30.591 10.2683ZM30.591 9.61049C30.9178 9.61049 31.1867 9.52671 31.3977 9.35916C31.6087 9.1916 31.7649 8.9713 31.8662 8.69825C31.9676 8.4252 32.0183 8.12939 32.0183 7.81083C32.0183 7.49227 31.9676 7.19543 31.8662 6.92031C31.7649 6.64518 31.6087 6.42281 31.3977 6.25319C31.1867 6.08357 30.9178 5.99875 30.591 5.99875C30.2641 5.99875 29.9952 6.08357 29.7842 6.25319C29.5732 6.42281 29.417 6.64518 29.3157 6.92031C29.2143 7.19543 29.1636 7.49227 29.1636 7.81083C29.1636 8.12939 29.2143 8.4252 29.3157 8.69825C29.417 8.9713 29.5732 9.1916 29.7842 9.35916C29.9952 9.52671 30.2641 9.61049 30.591 9.61049ZM34.6006 7.30196V10.169H33.8684V5.403H34.5758V6.14769H34.6379C34.7496 5.90567 34.9192 5.71122 35.1467 5.56435C35.3743 5.41542 35.668 5.34095 36.028 5.34095C36.3507 5.34095 36.633 5.40714 36.875 5.53953C37.1171 5.66985 37.3053 5.86843 37.4398 6.13528C37.5742 6.40006 37.6415 6.73517 37.6415 7.14061V10.169H36.9092V7.19025C36.9092 6.81584 36.812 6.52417 36.6175 6.31525C36.4231 6.10425 36.1562 5.99875 35.817 5.99875C35.5832 5.99875 35.3743 6.04943 35.1902 6.15079C35.0082 6.25215 34.8644 6.40006 34.7589 6.5945C34.6534 6.78895 34.6006 7.02477 34.6006 7.30196ZM40.7792 10.2683C40.3821 10.2683 40.0314 10.168 39.7274 9.96732C39.4233 9.7646 39.1854 9.47914 39.0137 9.11093C38.842 8.74065 38.7562 8.30315 38.7562 7.79842C38.7562 7.29782 38.842 6.86342 39.0137 6.49521C39.1854 6.12701 39.4243 5.84258 39.7305 5.64192C40.0366 5.44127 40.3903 5.34095 40.7916 5.34095C41.1019 5.34095 41.347 5.39266 41.527 5.49609C41.7091 5.59745 41.8476 5.71329 41.9428 5.84361C42.04 5.97186 42.1155 6.07736 42.1693 6.1601H42.2314V3.81434H42.9636V10.169H42.2562V9.43673H42.1693C42.1155 9.52361 42.039 9.63324 41.9397 9.76563C41.8404 9.89595 41.6987 10.0128 41.5146 10.1163C41.3305 10.2176 41.0854 10.2683 40.7792 10.2683ZM40.8785 9.61049C41.1723 9.61049 41.4205 9.53395 41.6232 9.38088C41.8259 9.22573 41.98 9.01164 42.0855 8.73858C42.191 8.46346 42.2438 8.14594 42.2438 7.786C42.2438 7.43021 42.1921 7.11889 42.0886 6.85204C41.9852 6.58313 41.8321 6.3742 41.6294 6.22526C41.4267 6.07426 41.1764 5.99875 40.8785 5.99875C40.5682 5.99875 40.3097 6.07839 40.1028 6.23767C39.898 6.39489 39.7439 6.60898 39.6405 6.87997C39.5391 7.14888 39.4884 7.4509 39.4884 7.786C39.4884 8.12525 39.5401 8.43347 39.6436 8.71066C39.7491 8.98578 39.9042 9.20505 40.109 9.36847C40.3159 9.52982 40.5724 9.61049 40.8785 9.61049ZM46.4047 10.2683C45.9455 10.2683 45.5494 10.1669 45.2163 9.96422C44.8854 9.75943 44.6299 9.47396 44.4499 9.10783C44.272 8.73962 44.1831 8.31142 44.1831 7.82324C44.1831 7.33505 44.272 6.90479 44.4499 6.53245C44.6299 6.15803 44.8802 5.86636 45.2008 5.65744C45.5235 5.44644 45.9 5.34095 46.3303 5.34095C46.5785 5.34095 46.8236 5.38232 47.0656 5.46506C47.3077 5.5478 47.528 5.68226 47.7265 5.86843C47.9251 6.05254 48.0834 6.29663 48.2013 6.60071C48.3192 6.90479 48.3781 7.2792 48.3781 7.72395V8.03423H44.7044V7.40125H47.6335C47.6335 7.13233 47.5797 6.89238 47.4721 6.68138C47.3666 6.47039 47.2156 6.30387 47.0191 6.18182C46.8246 6.05978 46.595 5.99875 46.3303 5.99875C46.0386 5.99875 45.7862 6.07115 45.5732 6.21595C45.3622 6.35869 45.1998 6.54486 45.086 6.77447C44.9722 7.00408 44.9153 7.25024 44.9153 7.51295V7.93494C44.9153 8.29488 44.9774 8.59999 45.1015 8.85029C45.2277 9.09852 45.4025 9.28779 45.6259 9.41811C45.8493 9.54636 46.1089 9.61049 46.4047 9.61049C46.5971 9.61049 46.7709 9.5836 46.926 9.52982C47.0832 9.47396 47.2187 9.39122 47.3325 9.28159C47.4463 9.16988 47.5342 9.03129 47.5962 8.8658L48.3037 9.06439C48.2292 9.30434 48.1041 9.51534 47.9282 9.69737C47.7524 9.87734 47.5352 10.018 47.2766 10.1194C47.0181 10.2187 46.7274 10.2683 46.4047 10.2683ZM49.4921 10.169V5.403H50.1995V6.12287H50.2492C50.3361 5.88705 50.4933 5.69571 50.7208 5.54884C50.9484 5.40197 51.2049 5.32853 51.4903 5.32853C51.5441 5.32853 51.6113 5.32957 51.692 5.33164C51.7727 5.33371 51.8337 5.33681 51.8751 5.34095V6.08563C51.8503 6.07943 51.7934 6.07012 51.7044 6.05771C51.6175 6.04323 51.5255 6.03599 51.4283 6.03599C51.1966 6.03599 50.9897 6.0846 50.8077 6.18182C50.6277 6.27698 50.485 6.40937 50.3795 6.57899C50.2761 6.74654 50.2244 6.93789 50.2244 7.15302V10.169H49.4921ZM54.1456 10.2807C53.8436 10.2807 53.5695 10.2238 53.3233 10.1101C53.0772 9.99421 52.8817 9.82769 52.7369 9.61049C52.5921 9.39122 52.5197 9.12644 52.5197 8.81616C52.5197 8.5431 52.5735 8.32177 52.681 8.15214C52.7886 7.98045 52.9324 7.84599 53.1123 7.74877C53.2923 7.65155 53.4909 7.57915 53.7081 7.53157C53.9274 7.48192 54.1477 7.44262 54.369 7.41366C54.6586 7.37643 54.8934 7.3485 55.0734 7.32988C55.2554 7.3092 55.3878 7.27507 55.4705 7.22749C55.5553 7.17991 55.5977 7.09717 55.5977 6.97926V6.95444C55.5977 6.64829 55.514 6.4104 55.3464 6.24078C55.1809 6.07115 54.9296 5.98634 54.5924 5.98634C54.2428 5.98634 53.9687 6.06288 53.7702 6.21595C53.5716 6.36903 53.4319 6.53245 53.3513 6.70621L52.6562 6.45798C52.7803 6.16838 52.9458 5.9429 53.1527 5.78155C53.3616 5.61814 53.5892 5.50436 53.8353 5.44024C54.0835 5.37404 54.3276 5.34095 54.5676 5.34095C54.7207 5.34095 54.8965 5.35956 55.0951 5.3968C55.2957 5.43196 55.4891 5.5054 55.6753 5.6171C55.8636 5.7288 56.0197 5.89739 56.1438 6.12287C56.268 6.34834 56.33 6.65036 56.33 7.02891V10.169H55.5977V9.52361H55.5605C55.5109 9.62704 55.4281 9.73771 55.3123 9.85562C55.1964 9.97353 55.0423 10.0739 54.8499 10.1566C54.6576 10.2393 54.4228 10.2807 54.1456 10.2807ZM54.2573 9.6229C54.5469 9.6229 54.791 9.56602 54.9896 9.45224C55.1902 9.33847 55.3412 9.1916 55.4426 9.01164C55.546 8.83167 55.5977 8.6424 55.5977 8.44381V7.77359C55.5667 7.81083 55.4984 7.84496 55.393 7.87599C55.2895 7.90495 55.1695 7.93081 55.033 7.95356C54.8986 7.97425 54.7672 7.99286 54.639 8.00941C54.5128 8.02389 54.4104 8.0363 54.3318 8.04665C54.1415 8.07147 53.9636 8.11181 53.7981 8.16766C53.6347 8.22144 53.5023 8.30315 53.4009 8.41278C53.3016 8.52035 53.252 8.66722 53.252 8.85339C53.252 9.10783 53.3461 9.3002 53.5343 9.43052C53.7246 9.55878 53.9656 9.6229 54.2573 9.6229ZM57.6666 10.169V5.403H58.374V6.12287H58.4237C58.5106 5.88705 58.6678 5.69571 58.8953 5.54884C59.1229 5.40197 59.3794 5.32853 59.6648 5.32853C59.7186 5.32853 59.7858 5.32957 59.8665 5.33164C59.9472 5.33371 60.0082 5.33681 60.0496 5.34095V6.08563C60.0248 6.07943 59.9679 6.07012 59.8789 6.05771C59.792 6.04323 59.7 6.03599 59.6028 6.03599C59.3711 6.03599 59.1642 6.0846 58.9822 6.18182C58.8022 6.27698 58.6595 6.40937 58.554 6.57899C58.4506 6.74654 58.3989 6.93789 58.3989 7.15302V10.169H57.6666Z" fill="#1E1E1E"/>
<path d="M10.053 89.4055C21.043 89.4055 65.023 89.4055 76.013 89.4055" stroke="#1E1E1E" stroke-width="2" stroke-linecap="round"/>
<path d="M39.2467 39.2577C34.9867 43.6477 19.0367 60.2777 15.0367 64.4877M41.1267 38.1777C36.6667 42.2977 18.6567 57.8777 14.2567 62.5177" stroke="#1E1E1E" stroke-linecap="round"/>
<path d="M40.5579 42.2787C38.9279 45.9787 32.1479 60.7587 30.3679 64.3387M39.9679 41.8687C38.3179 45.4087 31.8279 59.7287 30.0579 63.4487" stroke="#1E1E1E" stroke-linecap="round"/>
<path d="M43.0829 39.3125C42.9629 43.4425 42.3329 59.9125 42.2729 64.0725M42.5329 38.9125C42.5829 43.0825 43.3629 60.2625 43.3529 64.5625" stroke="#1E1E1E" stroke-linecap="round"/>
<path d="M43.3546 39.3136C44.9446 43.2836 51.8046 59.6236 53.4146 63.6936M44.2046 40.2936C45.7146 44.3236 51.6646 60.2836 53.0646 64.2636" stroke="#1E1E1E" stroke-linecap="round"/>
<path d="M43.8693 38.1113C47.9793 42.6713 63.6693 60.4713 67.5493 65.1013M42.5893 40.4513C46.5593 45.2513 61.8693 61.9213 66.3693 66.3913" stroke="#1E1E1E" stroke-linecap="round"/>
<path d="M17.5259 62.0048C18.2759 62.0348 19.1759 62.3448 19.6859 62.9948C20.2059 63.6348 20.4659 64.9248 20.5959 65.8548C20.7259 66.7848 20.9159 67.9348 20.4459 68.5648C19.9859 69.1948 18.7559 69.4848 17.8259 69.6448C16.8959 69.7948 15.6459 69.7948 14.8859 69.5048C14.1259 69.2148 13.5959 68.7148 13.2659 67.9048C12.9259 67.1048 12.6659 65.6048 12.8759 64.6848C13.0859 63.7648 13.7759 62.8548 14.5259 62.3848C15.2759 61.9248 16.8759 61.8748 17.3959 61.8748C17.9159 61.8748 17.6659 62.2648 17.6359 62.3848M16.2259 61.7248C16.9459 61.4748 18.0659 61.6548 18.7559 62.1848C19.4459 62.7248 20.1359 64.0248 20.3659 64.9048C20.5959 65.7948 20.3359 66.7948 20.1159 67.5048C19.8959 68.2248 19.7659 68.8748 19.0459 69.2048C18.3359 69.5348 16.7459 69.6748 15.8059 69.4848C14.8659 69.3048 13.8259 68.6448 13.4059 68.1048C12.9959 67.5648 13.2059 66.9648 13.3359 66.2348C13.4659 65.5148 13.7159 64.5148 14.1859 63.7548C14.6659 62.9948 15.7259 62.0248 16.1859 61.6948C16.6459 61.3748 16.8559 61.6548 16.9259 61.7948" fill="white"/>
<path d="M16.3659 61.8748C17.1559 61.6548 18.4059 61.9548 19.1359 62.4348C19.8659 62.9148 20.5459 63.9348 20.7459 64.7548C20.9459 65.5648 20.7059 66.4848 20.3459 67.3248C19.9959 68.1648 19.3759 69.4148 18.6259 69.7948C17.8659 70.1748 16.6359 69.8648 15.8159 69.6248C14.9959 69.3948 14.1659 69.0148 13.7159 68.3848C13.2659 67.7548 13.0059 66.6548 13.1159 65.8548C13.2159 65.0548 13.7659 64.1548 14.3359 63.5548C14.9159 62.9548 16.1359 62.5048 16.5459 62.2448C16.9659 61.9748 16.8459 61.9748 16.8459 61.9648M17.1959 62.3948C17.9459 62.4848 18.7859 63.0548 19.3559 63.5448C19.9159 64.0348 20.4559 64.5248 20.5959 65.3448C20.7359 66.1648 20.6959 67.6648 20.1959 68.4548C19.6959 69.2448 18.4759 69.8948 17.6059 70.1048C16.7359 70.3248 15.7659 70.1048 14.9959 69.7548C14.2159 69.4048 13.1959 68.8448 12.9559 67.9848C12.7159 67.1248 13.3659 65.4748 13.5559 64.5948C13.7459 63.7048 13.3959 63.0848 14.0859 62.6948C14.7759 62.3148 17.1459 62.3648 17.6859 62.2848C18.2159 62.2048 17.4559 62.2348 17.3059 62.2048" stroke="#1E1E1E" stroke-linecap="round"/>
<path d="M29.7963 61.0408C30.5163 60.9208 31.4763 61.4808 32.2563 62.0308C33.0463 62.5708 34.2163 63.5408 34.5163 64.3008C34.8063 65.0608 34.4363 65.8508 34.0063 66.5908C33.5663 67.3308 32.6663 68.2608 31.9063 68.7408C31.1563 69.2108 30.2863 69.6608 29.4663 69.4408C28.6463 69.2308 27.5063 68.2308 26.9663 67.4508C26.4263 66.6608 26.1463 65.5908 26.2163 64.7408C26.2963 63.8908 26.7563 62.8908 27.4063 62.3508C28.0663 61.8108 29.7063 61.6708 30.1363 61.5208C30.5563 61.3708 30.0063 61.4208 29.9663 61.4608M30.1763 60.8008C30.9663 60.8408 32.0663 61.7208 32.6763 62.3608C33.2863 63.0008 33.6263 63.8608 33.8563 64.6408C34.0963 65.4208 34.4963 66.3508 34.0863 67.0208C33.6763 67.6808 32.3263 68.3808 31.4063 68.6508C30.4863 68.9208 29.2563 68.8408 28.5663 68.6608C27.8763 68.4808 27.5763 68.2108 27.2663 67.5808C26.9463 66.9608 26.5963 65.8808 26.6663 64.9108C26.7263 63.9408 26.9463 62.4308 27.6663 61.7708C28.3863 61.1108 30.5063 61.0008 30.9963 60.9408C31.4863 60.8908 30.7263 61.3308 30.6263 61.4508" fill="white"/>
<path d="M30.7663 61.0608C31.5963 61.0908 32.6563 61.7408 33.2163 62.3508C33.7663 62.9508 34.0563 63.7708 34.1163 64.6708C34.1663 65.5808 34.0263 67.0808 33.5463 67.7808C33.0563 68.4808 32.0263 68.6708 31.2163 68.8508C30.4063 69.0308 29.3963 69.1608 28.6863 68.8608C27.9663 68.5508 27.2463 67.7408 26.9463 67.0108C26.6363 66.2908 26.6563 65.3108 26.8563 64.5008C27.0563 63.7008 27.4363 62.7608 28.1463 62.2008C28.8463 61.6408 30.6163 61.3208 31.0763 61.1408C31.5263 60.9608 30.9163 61.0208 30.8863 61.1208M29.8663 61.6908C30.6263 61.5008 31.7863 61.3708 32.5163 61.8508C33.2463 62.3408 34.0763 63.7008 34.2363 64.6208C34.4063 65.5408 33.9363 66.6308 33.4963 67.3708C33.0563 68.1108 32.3863 68.7308 31.6063 69.0508C30.8163 69.3708 29.4863 69.6408 28.8063 69.2908C28.1263 68.9408 28.0063 67.7208 27.5263 66.9508C27.0463 66.1808 25.8363 65.3908 25.9463 64.6608C26.0463 63.9308 27.4463 63.1308 28.1763 62.5808C28.9063 62.0308 30.0463 61.6308 30.3263 61.3808C30.6063 61.1208 29.8663 60.9008 29.8363 61.0308" stroke="#1E1E1E" stroke-linecap="round"/>
<path d="M42.6826 61.1102C43.5626 61.1102 45.1826 61.5902 45.8926 62.0602C46.6026 62.5402 46.8926 63.1602 46.9626 63.9502C47.0326 64.7402 46.7326 65.9702 46.3326 66.8102C45.9326 67.6502 45.3426 68.7102 44.5526 69.0002C43.7726 69.2902 42.4526 68.9402 41.6126 68.5702C40.7726 68.2002 39.9426 67.5002 39.5226 66.7802C39.1026 66.0602 38.9226 64.9802 39.0926 64.2202C39.2626 63.4702 39.9226 62.7602 40.5526 62.2402C41.1726 61.7202 42.4626 61.2802 42.8526 61.1102C43.2426 60.9302 42.8526 61.1602 42.9026 61.1802M42.2726 61.0902C43.0526 61.0202 43.9926 61.2002 44.8226 61.6002C45.6526 62.0002 46.9526 62.7402 47.2426 63.5002C47.5326 64.2602 46.9926 65.3802 46.5426 66.1702C46.1026 66.9702 45.2226 67.7402 44.5626 68.2602C43.9026 68.7802 43.3226 69.3902 42.5726 69.3202C41.8226 69.2502 40.6926 68.6602 40.0726 67.8402C39.4626 67.0202 38.7626 65.3902 38.8626 64.4102C38.9626 63.4202 40.0326 62.4702 40.6826 61.9202C41.3326 61.3702 42.4426 61.2602 42.7526 61.1202C43.0626 60.9802 42.5026 61.0402 42.5226 61.0702" fill="white"/>
<path d="M42.7326 60.9202C43.4926 60.8002 44.4426 60.9302 45.1226 61.4702C45.8126 62.0102 46.6126 63.3402 46.8426 64.1702C47.0726 64.9902 46.8626 65.6602 46.5226 66.3902C46.1826 67.1302 45.5026 68.1602 44.7926 68.5802C44.0826 69.0002 43.0326 69.0802 42.2626 68.9202C41.4926 68.7502 40.6926 68.2502 40.1726 67.5802C39.6626 66.9002 39.1126 65.7902 39.1726 64.8702C39.2326 63.9502 39.9226 62.7202 40.5426 62.0402C41.1526 61.3502 42.4326 60.9002 42.8526 60.7502C43.2626 60.6002 43.0526 61.0102 43.0426 61.1202M43.2726 60.7902C44.1326 60.8002 45.4026 61.7702 45.9626 62.4802C46.5326 63.1802 46.6526 64.2002 46.6626 65.0302C46.6626 65.8602 46.4926 66.8002 45.9926 67.4702C45.4826 68.1502 44.3326 68.9902 43.6326 69.1002C42.9426 69.2002 42.5926 68.5302 41.8126 68.1002C41.0326 67.6602 39.2926 67.1502 38.9526 66.4902C38.6126 65.8202 39.4226 64.8902 39.7626 64.1102C40.1126 63.3202 40.4526 62.3302 41.0326 61.7602C41.6026 61.1902 42.7826 60.7302 43.1926 60.7002C43.6026 60.6702 43.3826 61.4102 43.4926 61.6002" stroke="#1E1E1E" stroke-linecap="round"/>
<path d="M54.091 61.095C54.931 60.875 55.771 60.825 56.401 61.235C57.031 61.645 57.581 62.645 57.851 63.545C58.121 64.455 58.331 65.885 58.021 66.655C57.701 67.425 56.761 67.875 55.971 68.175C55.191 68.475 54.121 68.635 53.311 68.455C52.501 68.285 51.591 67.715 51.111 67.125C50.641 66.545 50.431 65.755 50.431 64.945C50.441 64.135 50.631 62.945 51.161 62.285C51.691 61.625 53.141 61.245 53.611 60.995C54.091 60.755 53.981 60.825 53.991 60.835M53.201 60.855C54.111 60.605 55.901 60.685 56.681 61.065C57.461 61.445 57.701 62.315 57.881 63.125C58.051 63.945 57.941 65.015 57.741 65.965C57.541 66.905 57.351 68.235 56.691 68.775C56.021 69.325 54.721 69.545 53.771 69.255C52.821 68.965 51.481 67.835 50.991 67.045C50.491 66.245 50.751 65.265 50.821 64.485C50.881 63.705 50.951 62.955 51.411 62.355C51.861 61.755 53.141 61.135 53.551 60.885C53.961 60.635 53.881 60.695 53.881 60.855" fill="white"/>
<path d="M53.581 60.655C54.371 60.555 55.661 61.275 56.381 61.735C57.111 62.195 57.671 62.645 57.941 63.415C58.201 64.195 58.261 65.545 57.991 66.385C57.721 67.225 57.031 68.035 56.321 68.475C55.621 68.915 54.631 69.195 53.771 69.025C52.921 68.855 51.721 68.225 51.191 67.475C50.671 66.715 50.581 65.445 50.621 64.505C50.661 63.575 50.871 62.475 51.441 61.875C52.011 61.285 53.641 61.075 54.041 60.925C54.451 60.775 53.871 60.945 53.891 60.975M54.811 61.125C55.601 61.265 56.311 61.825 56.851 62.435C57.381 63.045 57.961 63.935 58.001 64.785C58.051 65.635 57.491 66.925 57.111 67.515C56.721 68.095 56.541 68.165 55.691 68.295C54.841 68.425 52.761 68.585 52.001 68.315C51.241 68.035 51.351 67.395 51.131 66.645C50.901 65.885 50.531 64.665 50.641 63.755C50.761 62.845 51.131 61.555 51.821 61.165C52.511 60.765 54.231 61.355 54.791 61.385C55.351 61.425 55.241 61.365 55.181 61.395" stroke="#1E1E1E" stroke-linecap="round"/>
<path d="M66.7614 61.0308C67.4814 60.9708 68.4214 61.5708 69.0614 62.2408C69.6914 62.9008 70.4614 64.2108 70.5914 65.0308C70.7114 65.8608 70.2714 66.5808 69.7814 67.2008C69.3014 67.8208 68.4514 68.5108 67.6614 68.7708C66.8714 69.0308 65.7914 69.0108 65.0514 68.7708C64.3014 68.5308 63.6114 68.0508 63.1914 67.3408C62.7714 66.6308 62.4014 65.3608 62.5314 64.5008C62.6614 63.6508 63.2414 62.7608 63.9814 62.2008C64.7114 61.6408 66.4914 61.3208 66.9414 61.1408C67.3914 60.9708 66.7514 61.0908 66.6814 61.1408M67.0214 60.9208C67.8714 60.8208 68.4914 61.2708 69.0314 61.8408C69.5714 62.4108 70.0214 63.3408 70.2514 64.3308C70.4914 65.3108 70.8214 66.8908 70.4614 67.7508C70.1114 68.6208 69.0414 69.3608 68.1314 69.5008C67.2114 69.6508 65.7114 69.0808 64.9614 68.6408C64.2114 68.2108 63.9914 67.5508 63.6314 66.8808C63.2714 66.2008 62.7714 65.3908 62.8314 64.6008C62.8914 63.8108 63.3114 62.7108 63.9914 62.1308C64.6714 61.5508 66.4714 61.1708 66.8914 61.1208C67.3114 61.0708 66.6314 61.7808 66.5414 61.8208" fill="white"/>
<path d="M66.3014 61.5108C67.1214 61.4108 68.1214 61.3308 68.8214 61.8008C69.5214 62.2708 70.2514 63.4408 70.5114 64.3308C70.7714 65.2108 70.7014 66.3108 70.3814 67.1208C70.0514 67.9308 69.3514 68.8408 68.5414 69.2108C67.7414 69.5708 66.3614 69.6108 65.5314 69.2908C64.7114 68.9708 64.0514 68.0908 63.5814 67.3008C63.1114 66.5108 62.6314 65.3508 62.7114 64.5308C62.7914 63.7108 63.4414 62.9308 64.0514 62.3908C64.6714 61.8508 65.9414 61.4908 66.3914 61.2808C66.8514 61.0708 66.7214 61.1008 66.7814 61.1408M65.8714 61.5508C66.6314 61.4108 67.9114 61.6108 68.6214 62.0908C69.3314 62.5808 69.7514 63.7208 70.1114 64.4608C70.4714 65.1908 71.1414 65.7708 70.7614 66.4908C70.3814 67.2208 68.6114 68.3208 67.8314 68.8008C67.0614 69.2808 66.8114 69.5708 66.0914 69.3708C65.3614 69.1808 64.1214 68.4508 63.4914 67.6508C62.8514 66.8508 62.2514 65.3708 62.2914 64.5808C62.3414 63.8008 63.0414 63.4108 63.7614 62.9208C64.4814 62.4408 66.2714 61.9208 66.6314 61.7008C67.0014 61.4808 66.0214 61.6508 65.9614 61.6208" stroke="#1E1E1E" stroke-linecap="round"/>
<path d="M42.361 35.3622C43.181 35.4722 44.491 36.3122 45.101 36.9022C45.721 37.4822 46.001 38.1222 46.041 38.8722C46.091 39.6222 45.841 40.7122 45.371 41.4222C44.911 42.1222 44.031 42.7922 43.251 43.1022C42.471 43.4122 41.491 43.5922 40.691 43.2722C39.891 42.9622 38.871 42.0122 38.461 41.2122C38.041 40.4122 37.931 39.3522 38.201 38.4922C38.481 37.6222 39.361 36.5622 40.081 36.0222C40.811 35.4822 42.131 35.3622 42.541 35.2422C42.951 35.1222 42.511 35.2622 42.551 35.3122M41.971 35.0322C42.671 34.9622 43.671 35.3222 44.451 36.0022C45.221 36.6722 46.341 38.1022 46.601 39.0722C46.851 40.0422 46.491 41.1822 45.981 41.8022C45.461 42.4222 44.241 42.6122 43.501 42.7922C42.751 42.9722 42.251 43.0822 41.501 42.8822C40.751 42.6822 39.541 42.2822 38.991 41.6022C38.451 40.9222 38.071 39.6822 38.211 38.8022C38.351 37.9122 39.201 36.7722 39.831 36.2922C40.471 35.8022 41.691 36.0822 42.021 35.9022C42.351 35.7322 41.681 35.2022 41.801 35.2322" fill="white"/>
<path d="M41.561 35.2022C42.381 35.0022 43.631 35.5222 44.421 36.0322C45.201 36.5522 45.951 37.4222 46.271 38.2822C46.581 39.1522 46.651 40.4122 46.311 41.2222C45.961 42.0422 44.951 42.8422 44.181 43.1722C43.411 43.4922 42.541 43.4322 41.701 43.1722C40.871 42.9122 39.701 42.2422 39.161 41.5922C38.621 40.9422 38.431 40.0922 38.451 39.2922C38.471 38.4822 38.671 37.4122 39.271 36.7422C39.871 36.0622 41.581 35.4822 42.061 35.2422C42.541 35.0122 42.211 35.2522 42.151 35.3522M42.251 35.5422C43.071 35.5422 43.921 36.2722 44.671 36.7722C45.421 37.2722 46.691 37.7422 46.761 38.5422C46.831 39.3422 45.591 40.7322 45.121 41.5622C44.641 42.3922 44.601 43.2522 43.881 43.5222C43.161 43.7822 41.721 43.6122 40.791 43.1722C39.871 42.7322 38.741 41.5522 38.341 40.8522C37.931 40.1522 38.031 39.6622 38.361 38.9522C38.681 38.2522 39.631 37.1522 40.281 36.6122C40.921 36.0722 41.851 35.9122 42.211 35.7022C42.581 35.4822 42.501 35.4022 42.491 35.3522" stroke="#1E1E1E" stroke-linecap="round"/>
<path d="M64.4877 37.4138C64.3077 40.8738 64.2077 43.1138 64.7577 49.0438ZM64.4877 37.4138C64.5977 41.0838 64.8677 44.2338 64.7577 49.0438Z" stroke="#1E1E1E" stroke-linecap="round"/>
<path d="M62.7777 43.5738C63.1777 45.2238 63.6177 46.2438 64.7577 49.0438ZM62.7777 43.5738C63.3777 45.3038 64.0477 46.7738 64.7577 49.0438Z" stroke="#1E1E1E" stroke-linecap="round"/>
<path d="M66.7578 43.5838C66.0978 45.2138 65.4878 46.2338 64.7578 49.0438ZM66.7578 43.5838C66.1978 45.3238 65.6978 46.7938 64.7578 49.0438Z" stroke="#1E1E1E" stroke-linecap="round"/>
<path d="M41.3042 39.3483C41.7542 39.3883 43.0842 39.5983 43.4842 39.6883M40.9942 39.9983C41.5742 40.0983 43.7142 40.2383 44.1242 40.1183" stroke="#1E1E1E" stroke-linecap="round"/>
</svg>
