<svg width="84" height="127" viewBox="0 0 84 127" fill="none" xmlns="http://www.w3.org/2000/svg">
<path d="M21.9481 3.38055C33.6081 3.81055 42.4781 5.39055 62.3481 3.38055C74.7981 3.17055 84.5781 10.9305 82.5481 23.5805C82.7881 51.4805 83.0881 74.2205 82.5481 105.131C81.3281 118.131 72.3181 125.391 62.3481 125.331C46.4981 125.761 28.9881 122.651 21.9481 125.331C9.39806 125.101 -0.111942 120.881 1.74806 105.131C4.11806 79.0705 4.29806 43.5605 1.74806 23.5805C1.28806 11.8805 6.09806 5.55055 21.9481 3.38055Z" fill="white"/>
<path d="M21.948 3.38054C30.368 1.20054 40.518 1.20054 62.348 3.38054M21.948 3.38054C36.088 4.20054 51.458 2.79054 62.348 3.38054M21.948 3.38054C9.92804 4.69054 0.428035 10.2605 1.74803 23.5805M21.948 3.38054C6.39804 2.67054 1.32803 8.41055 1.74803 23.5805M62.348 3.38054C76.118 5.08054 84.238 10.7305 82.548 23.5805M62.348 3.38054C76.288 5.06054 83.638 11.7005 82.548 23.5805M82.548 23.5805C82.358 46.4005 83.438 70.6105 82.548 105.131M82.548 23.5805C82.978 50.7105 82.398 77.0205 82.548 105.131M82.548 105.131C81.388 120.041 74.768 124.881 62.348 125.331M82.548 105.131C80.398 118.161 76.338 126.641 62.348 125.331M62.348 125.331C47.318 126.501 31.748 123.411 21.948 125.331M62.348 125.331C47.198 125.391 32.098 125.241 21.948 125.331M21.948 125.331C10.048 126.641 0.918035 118.991 1.74803 105.131M21.948 125.331C7.91804 125.521 1.17803 118.901 1.74803 105.131M1.74803 105.131C3.54803 75.2905 4.12803 43.2805 1.74803 23.5805M1.74803 105.131C2.70803 77.9305 2.08803 50.2805 1.74803 23.5805" stroke="#1E1E1E" stroke-width="2" stroke-linecap="round"/>
<path d="M10.5633 91.6031C21.5533 91.6031 65.5333 91.6031 76.5233 91.6031" stroke="#1E1E1E" stroke-width="2" stroke-linecap="round"/>
<path d="M23.2755 3.2674C35.0455 3.2674 46.8155 3.2674 59.6655 3.2674C62.1455 3.2674 63.3955 4.5074 63.3955 6.9974C63.3955 9.9074 63.3955 12.8274 63.3955 14.4474C63.3955 16.9274 62.1455 18.1674 59.6655 18.1674C48.2955 18.1674 36.9255 18.1674 23.2755 18.1674C20.7855 18.1674 19.5455 16.9274 19.5455 14.4474C19.5455 11.5774 19.5455 8.7174 19.5455 6.9974C19.5455 4.5074 20.7855 3.2674 23.2755 3.2674Z" fill="white"/>
<path d="M23.2755 3.2674C30.8455 3.2674 38.4155 3.2674 59.6655 3.2674M23.2755 3.2674C37.4555 3.2674 51.6455 3.2674 59.6655 3.2674M23.2755 3.2674C20.7855 3.2674 19.5455 4.5074 19.5455 6.9974M59.6655 3.2674C62.1455 3.2674 63.3955 4.5074 63.3955 6.9974M63.3955 6.9974C63.3955 8.7374 63.3955 10.4874 63.3955 14.4474M63.3955 6.9974C63.3955 9.6574 63.3955 12.3274 63.3955 14.4474M63.3955 14.4474C63.3955 16.9274 62.1455 18.1674 59.6655 18.1674M59.6655 18.1674C46.0055 18.1674 32.3355 18.1674 23.2755 18.1674M59.6655 18.1674C48.9355 18.1674 38.1955 18.1674 23.2755 18.1674M23.2755 18.1674C20.7855 18.1674 19.5455 16.9274 19.5455 14.4474M19.5455 14.4474C19.5455 12.1174 19.5455 9.7874 19.5455 6.9974M19.5455 14.4474C19.5455 12.1874 19.5455 9.9374 19.5455 6.9974" stroke="#1E1E1E" stroke-width="2" stroke-linecap="round"/>
<path d="M23.0112 13.569C22.5644 13.569 22.1796 13.4635 21.8569 13.2525C21.5342 13.0415 21.286 12.7509 21.1122 12.3806C20.9385 12.0103 20.8516 11.5873 20.8516 11.1115C20.8516 10.6275 20.9405 10.2003 21.1184 9.83006C21.2984 9.45772 21.5487 9.16709 21.8693 8.95816C22.192 8.74716 22.5685 8.64167 22.9988 8.64167C23.3339 8.64167 23.6359 8.70372 23.9048 8.82784C24.1737 8.95195 24.394 9.12571 24.5657 9.34912C24.7374 9.57253 24.844 9.83317 24.8853 10.131H24.153C24.0972 9.91384 23.9731 9.72146 23.7807 9.55391C23.5904 9.38429 23.3339 9.29947 23.0112 9.29947C22.7257 9.29947 22.4754 9.37394 22.2603 9.52288C22.0472 9.66975 21.8807 9.87764 21.7607 10.1466C21.6428 10.4134 21.5839 10.7268 21.5839 11.0867C21.5839 11.4549 21.6418 11.7756 21.7576 12.0486C21.8755 12.3217 22.041 12.5337 22.2541 12.6847C22.4692 12.8357 22.7216 12.9112 23.0112 12.9112C23.2015 12.9112 23.3742 12.8781 23.5294 12.8119C23.6845 12.7457 23.8159 12.6506 23.9234 12.5265C24.031 12.4023 24.1075 12.2534 24.153 12.0796H24.8853C24.844 12.361 24.7416 12.6144 24.5781 12.8398C24.4168 13.0633 24.2027 13.2411 23.9358 13.3735C23.6711 13.5039 23.3629 13.569 23.0112 13.569ZM27.892 13.569C27.4617 13.569 27.0842 13.4666 26.7595 13.2618C26.4368 13.057 26.1844 12.7705 26.0024 12.4023C25.8224 12.0341 25.7324 11.6039 25.7324 11.1115C25.7324 10.6151 25.8224 10.1817 26.0024 9.81145C26.1844 9.44117 26.4368 9.15364 26.7595 8.94885C27.0842 8.74406 27.4617 8.64167 27.892 8.64167C28.3223 8.64167 28.6987 8.74406 29.0214 8.94885C29.3462 9.15364 29.5986 9.44117 29.7785 9.81145C29.9606 10.1817 30.0516 10.6151 30.0516 11.1115C30.0516 11.6039 29.9606 12.0341 29.7785 12.4023C29.5986 12.7705 29.3462 13.057 29.0214 13.2618C28.6987 13.4666 28.3223 13.569 27.892 13.569ZM27.892 12.9112C28.2188 12.9112 28.4878 12.8274 28.6987 12.6599C28.9097 12.4923 29.0659 12.272 29.1673 11.999C29.2686 11.7259 29.3193 11.4301 29.3193 11.1115C29.3193 10.793 29.2686 10.4961 29.1673 10.221C29.0659 9.9459 28.9097 9.72353 28.6987 9.55391C28.4878 9.38429 28.2188 9.29947 27.892 9.29947C27.5652 9.29947 27.2963 9.38429 27.0853 9.55391C26.8743 9.72353 26.7181 9.9459 26.6167 10.221C26.5154 10.4961 26.4647 10.793 26.4647 11.1115C26.4647 11.4301 26.5154 11.7259 26.6167 11.999C26.7181 12.272 26.8743 12.4923 27.0853 12.6599C27.2963 12.8274 27.5652 12.9112 27.892 12.9112ZM31.9017 10.6027V13.4697H31.1694V8.70372H31.8769V9.44841H31.9389C32.0506 9.20639 32.2202 9.01194 32.4478 8.86507C32.6753 8.71614 32.9691 8.64167 33.329 8.64167C33.6517 8.64167 33.9341 8.70786 34.1761 8.84025C34.4181 8.97057 34.6063 9.16915 34.7408 9.436C34.8753 9.70078 34.9425 10.0359 34.9425 10.4413V13.4697H34.2102V10.491C34.2102 10.1166 34.113 9.82489 33.9185 9.61597C33.7241 9.40497 33.4573 9.29947 33.118 9.29947C32.8843 9.29947 32.6753 9.35015 32.4912 9.45151C32.3092 9.55287 32.1654 9.70078 32.0599 9.89522C31.9544 10.0897 31.9017 10.3255 31.9017 10.6027ZM38.403 8.70372V9.3243H35.8338V8.70372H38.403ZM36.6033 13.4697V8.04592C36.6033 7.77286 36.6674 7.54532 36.7957 7.36329C36.9239 7.18125 37.0904 7.04472 37.2952 6.95371C37.5 6.86269 37.7162 6.81718 37.9437 6.81718C38.1237 6.81718 38.2706 6.83166 38.3843 6.86062C38.4981 6.88958 38.5829 6.91647 38.6388 6.9413L38.4278 7.57428C38.3906 7.56187 38.3388 7.54635 38.2726 7.52774C38.2085 7.50912 38.1237 7.49981 38.0182 7.49981C37.7762 7.49981 37.6014 7.56083 37.4938 7.68288C37.3883 7.80493 37.3356 7.98386 37.3356 8.21968V13.4697H36.6033ZM39.4292 13.4697V8.70372H40.1367V9.42359H40.1863C40.2732 9.18777 40.4304 8.99643 40.658 8.84956C40.8855 8.70269 41.142 8.62925 41.4275 8.62925C41.4813 8.62925 41.5485 8.63029 41.6292 8.63236C41.7098 8.63443 41.7709 8.63753 41.8122 8.64167V9.38635C41.7874 9.38015 41.7305 9.37084 41.6416 9.35843C41.5547 9.34395 41.4626 9.33671 41.3654 9.33671C41.1337 9.33671 40.9269 9.38532 40.7449 9.48254C40.5649 9.5777 40.4222 9.71009 40.3167 9.87971C40.2132 10.0473 40.1615 10.2386 40.1615 10.4537V13.4697H39.4292ZM44.4714 13.569C44.0411 13.569 43.6636 13.4666 43.3388 13.2618C43.0161 13.057 42.7638 12.7705 42.5817 12.4023C42.4018 12.0341 42.3118 11.6039 42.3118 11.1115C42.3118 10.6151 42.4018 10.1817 42.5817 9.81145C42.7638 9.44117 43.0161 9.15364 43.3388 8.94885C43.6636 8.74406 44.0411 8.64167 44.4714 8.64167C44.9017 8.64167 45.2781 8.74406 45.6008 8.94885C45.9256 9.15364 46.178 9.44117 46.3579 9.81145C46.54 10.1817 46.631 10.6151 46.631 11.1115C46.631 11.6039 46.54 12.0341 46.3579 12.4023C46.178 12.7705 45.9256 13.057 45.6008 13.2618C45.2781 13.4666 44.9017 13.569 44.4714 13.569ZM44.4714 12.9112C44.7982 12.9112 45.0671 12.8274 45.2781 12.6599C45.4891 12.4923 45.6453 12.272 45.7467 11.999C45.848 11.7259 45.8987 11.4301 45.8987 11.1115C45.8987 10.793 45.848 10.4961 45.7467 10.221C45.6453 9.9459 45.4891 9.72353 45.2781 9.55391C45.0671 9.38429 44.7982 9.29947 44.4714 9.29947C44.1446 9.29947 43.8756 9.38429 43.6646 9.55391C43.4537 9.72353 43.2975 9.9459 43.1961 10.221C43.0948 10.4961 43.0441 10.793 43.0441 11.1115C43.0441 11.4301 43.0948 11.7259 43.1961 11.999C43.2975 12.272 43.4537 12.4923 43.6646 12.6599C43.8756 12.8274 44.1446 12.9112 44.4714 12.9112ZM48.4811 10.6027V13.4697H47.7488V8.70372H48.4562V9.44841H48.5183C48.63 9.20639 48.7996 9.01194 49.0272 8.86507C49.2547 8.71614 49.5485 8.64167 49.9084 8.64167C50.2311 8.64167 50.5134 8.70786 50.7555 8.84025C50.9975 8.97057 51.1857 9.16915 51.3202 9.436C51.4547 9.70078 51.5219 10.0359 51.5219 10.4413V13.4697H50.7896V10.491C50.7896 10.1166 50.6924 9.82489 50.4979 9.61597C50.3035 9.40497 50.0366 9.29947 49.6974 9.29947C49.4636 9.29947 49.2547 9.35015 49.0706 9.45151C48.8886 9.55287 48.7448 9.70078 48.6393 9.89522C48.5338 10.0897 48.4811 10.3255 48.4811 10.6027ZM54.9327 8.70372V9.3243H52.4628V8.70372H54.9327ZM53.1827 7.56187H53.915V12.1045C53.915 12.3113 53.945 12.4665 54.0049 12.5699C54.067 12.6713 54.1456 12.7395 54.2408 12.7747C54.338 12.8078 54.4404 12.8243 54.548 12.8243C54.6286 12.8243 54.6948 12.8202 54.7465 12.8119C54.7982 12.8016 54.8396 12.7933 54.8706 12.7871L55.0196 13.4449C54.9699 13.4635 54.9006 13.4821 54.8117 13.5008C54.7227 13.5214 54.61 13.5318 54.4735 13.5318C54.2666 13.5318 54.0639 13.4873 53.8653 13.3984C53.6688 13.3094 53.5054 13.1739 53.3751 12.9919C53.2468 12.8099 53.1827 12.5802 53.1827 12.303V7.56187ZM57.9192 13.569C57.4889 13.569 57.1114 13.4666 56.7867 13.2618C56.464 13.057 56.2116 12.7705 56.0296 12.4023C55.8496 12.0341 55.7596 11.6039 55.7596 11.1115C55.7596 10.6151 55.8496 10.1817 56.0296 9.81145C56.2116 9.44117 56.464 9.15364 56.7867 8.94885C57.1114 8.74406 57.4889 8.64167 57.9192 8.64167C58.3495 8.64167 58.726 8.74406 59.0487 8.94885C59.3734 9.15364 59.6258 9.44117 59.8058 9.81145C59.9878 10.1817 60.0788 10.6151 60.0788 11.1115C60.0788 11.6039 59.9878 12.0341 59.8058 12.4023C59.6258 12.7705 59.3734 13.057 59.0487 13.2618C58.726 13.4666 58.3495 13.569 57.9192 13.569ZM57.9192 12.9112C58.246 12.9112 58.515 12.8274 58.726 12.6599C58.937 12.4923 59.0931 12.272 59.1945 11.999C59.2959 11.7259 59.3465 11.4301 59.3465 11.1115C59.3465 10.793 59.2959 10.4961 59.1945 10.221C59.0931 9.9459 58.937 9.72353 58.726 9.55391C58.515 9.38429 58.246 9.29947 57.9192 9.29947C57.5924 9.29947 57.3235 9.38429 57.1125 9.55391C56.9015 9.72353 56.7453 9.9459 56.6439 10.221C56.5426 10.4961 56.4919 10.793 56.4919 11.1115C56.4919 11.4301 56.5426 11.7259 56.6439 11.999C56.7453 12.272 56.9015 12.4923 57.1125 12.6599C57.3235 12.8274 57.5924 12.9112 57.9192 12.9112Z" fill="#1E1E1E"/>
<path d="M20.1296 34.5496C20.1596 42.5996 20.9396 74.3296 21.1596 82.4296M20.9096 34.3296C20.8096 42.4396 20.5896 74.9796 20.6196 82.9896" stroke="#1E1E1E" stroke-linecap="round"/>
<path d="M9.80615 69.8028C20.0262 69.9028 60.3262 71.8228 70.5862 72.0928M11.7762 72.0928C21.9362 72.3828 59.8362 70.9728 69.7362 70.5128" stroke="#1E1E1E" stroke-linecap="round"/>
<path d="M9.23897 48.2907C12.359 46.8207 21.769 39.0107 27.339 37.8307C32.909 36.6507 36.329 42.7307 42.659 41.2107C48.999 39.7007 61.669 31.0307 65.349 28.7407M7.87897 47.7807C10.969 45.9907 21.229 37.3107 26.919 35.9107C32.609 34.5007 35.529 40.8807 42.029 39.3307C48.519 37.7807 62.359 28.5607 65.889 26.6207" stroke="#1E1E1E" stroke-width="0.5" stroke-linecap="round"/>
<path d="M11.5078 53.1344C14.3778 52.4144 22.2178 49.7544 27.8778 49.4544C33.5378 49.1644 39.4078 53.0644 45.4678 51.3644C51.5178 49.6644 58.8178 38.3044 64.2078 39.2444C69.6078 40.1944 75.7778 53.9444 77.8278 57.0144M10.5878 52.2844C13.2978 51.7544 21.3278 48.2644 27.0578 47.7944C32.7978 47.3244 38.7678 50.7344 44.9978 49.4544C51.2278 48.1844 59.1578 38.7944 64.4278 40.1244C69.6978 41.4544 74.4378 54.6244 76.6178 57.4344" stroke="#1E1E1E" stroke-width="0.5" stroke-linecap="round"/>
<path d="M8.39329 61.231C12.1333 60.781 22.0133 57.821 31.6033 58.041C41.1833 58.251 57.7933 65.641 65.9133 62.531C74.0333 59.421 78.1333 43.111 80.3133 39.351M7.06329 60.641C10.6033 59.831 21.2733 55.851 30.9533 56.351C40.6233 56.851 56.8033 66.261 65.1233 63.621C73.4333 60.981 78.2133 44.301 80.8233 40.491" stroke="#1E1E1E" stroke-width="0.5" stroke-linecap="round"/>
<path d="M72.7747 68.5688L73.4024 69.6399L74.03 68.5688H74.494L73.648 69.8787L74.494 71.1887H74.03L73.4024 70.1721L72.7747 71.1887H72.3107L73.1431 69.8787L72.3107 68.5688H72.7747Z" fill="#1E1E1E"/>
<path d="M19.2846 29.5358C19.2163 29.5358 19.1555 29.5301 19.102 29.5188C19.0486 29.5085 19.0116 29.4983 18.9912 29.4881L19.0935 29.1333C19.1913 29.1583 19.2777 29.1674 19.3528 29.1606C19.4278 29.1538 19.4944 29.1202 19.5524 29.0599C19.6115 29.0008 19.6655 28.9047 19.7144 28.7717L19.7894 28.567L18.8206 25.9334H19.2573L19.9805 28.0212H20.0078L20.731 25.9334H21.1677L20.0555 28.9354C20.0055 29.0707 19.9435 29.1827 19.8696 29.2714C19.7957 29.3613 19.7098 29.4278 19.6121 29.471C19.5154 29.5142 19.4062 29.5358 19.2846 29.5358Z" fill="#1E1E1E"/>
</svg>
