<svg width="85" height="126" viewBox="0 0 85 126" fill="none" xmlns="http://www.w3.org/2000/svg">
<path d="M22.5988 2.24676C34.4188 1.42676 43.6088 -0.0032438 62.9988 2.24676C73.8888 4.59676 85.1788 9.13676 83.1988 22.4468C81.3988 54.4768 84.4688 79.8868 83.1988 103.997C86.0888 117.947 78.9688 126.597 62.9988 124.197C50.2688 124.537 42.2388 125.847 22.5988 124.197C8.98884 123.347 -0.241157 116.157 2.39884 103.997C-2.25116 69.2368 1.08884 39.3768 2.39884 22.4468C2.15884 11.6868 6.99884 1.19676 22.5988 2.24676Z" fill="white"/>
<path d="M22.5988 2.24677C33.7788 2.16677 48.2088 3.02677 62.9988 2.24677M22.5988 2.24677C32.1888 1.99677 43.4688 1.34677 62.9988 2.24677M22.5988 2.24677C7.35885 2.95677 1.42885 8.49677 2.39885 22.4468M22.5988 2.24677C10.6988 4.49677 2.82885 7.15677 2.39885 22.4468M62.9988 2.24677C78.3588 0.71677 81.4689 8.24677 83.1989 22.4468M62.9988 2.24677C78.5488 1.60677 81.2589 10.7368 83.1989 22.4468M83.1989 22.4468C82.8589 44.7768 82.5189 65.0168 83.1989 103.997M83.1989 22.4468C82.9789 39.4868 84.2089 55.4468 83.1989 103.997M83.1989 103.997C83.7189 117.587 77.1388 125.277 62.9988 124.197M83.1989 103.997C85.0989 118.707 75.0288 125.467 62.9988 124.197M62.9988 124.197C50.8288 122.867 36.4988 122.897 22.5988 124.197M62.9988 124.197C50.1388 123.587 39.5788 124.287 22.5988 124.197M22.5988 124.197C10.0788 124.587 0.518848 115.457 2.39885 103.997M22.5988 124.197C9.52885 122.337 4.27885 116.067 2.39885 103.997M2.39885 103.997C2.53885 85.7868 3.94885 61.9968 2.39885 22.4468M2.39885 103.997C2.91885 84.3368 2.17885 65.8868 2.39885 22.4468" stroke="#1E1E1E" stroke-width="2" stroke-linecap="round"/>
<path d="M24.0176 2.88043C31.8076 2.88043 39.5976 2.88043 60.7276 2.88043M24.0176 2.88043C35.5876 2.88043 47.1476 2.88043 60.7276 2.88043M24.0176 2.88043C21.6476 2.88043 20.4676 4.06043 20.4676 6.43043M60.7276 2.88043C63.0876 2.88043 64.2776 4.06043 64.2776 6.43043M64.2776 6.43043C64.2776 8.92043 64.2776 11.4104 64.2776 13.5404M64.2776 6.43043C64.2776 8.02043 64.2776 9.61043 64.2776 13.5404M64.2776 13.5404C64.2776 15.9104 63.0876 17.0904 60.7276 17.0904M60.7276 17.0904C46.0476 17.0904 31.3776 17.0904 24.0176 17.0904M60.7276 17.0904C53.3176 17.0904 45.9076 17.0904 24.0176 17.0904M24.0176 17.0904C21.6476 17.0904 20.4676 15.9104 20.4676 13.5404M20.4676 13.5404C20.4676 11.8604 20.4676 10.1904 20.4676 6.43043M20.4676 13.5404C20.4676 11.5604 20.4676 9.58043 20.4676 6.43043" stroke="#1E1E1E" stroke-width="2" stroke-linecap="round"/>
<path d="M10.3777 90.903C21.3677 90.903 65.3477 90.903 76.3377 90.903" stroke="#1E1E1E" stroke-width="2" stroke-linecap="round"/>
<path d="M27.5294 8.63458H26.7599C26.7143 8.41324 26.6347 8.2188 26.5209 8.05124C26.4092 7.88369 26.2727 7.74303 26.1114 7.62925C25.9521 7.51341 25.7752 7.42653 25.5808 7.36861C25.3863 7.31069 25.1836 7.28173 24.9726 7.28173C24.5878 7.28173 24.2393 7.37896 23.9269 7.5734C23.6167 7.76785 23.3695 8.05435 23.1854 8.4329C23.0033 8.81145 22.9123 9.27584 22.9123 9.82608C22.9123 10.3763 23.0033 10.8407 23.1854 11.2193C23.3695 11.5978 23.6167 11.8843 23.9269 12.0788C24.2393 12.2732 24.5878 12.3704 24.9726 12.3704C25.1836 12.3704 25.3863 12.3415 25.5808 12.2836C25.7752 12.2256 25.9521 12.1398 26.1114 12.026C26.2727 11.9102 26.4092 11.7685 26.5209 11.6009C26.6347 11.4313 26.7143 11.2369 26.7599 11.0176H27.5294C27.4714 11.3424 27.3659 11.633 27.2129 11.8895C27.0598 12.146 26.8695 12.3642 26.6419 12.5442C26.4144 12.7221 26.1589 12.8576 25.8755 12.9507C25.5942 13.0438 25.2932 13.0903 24.9726 13.0903C24.4306 13.0903 23.9487 12.9579 23.5267 12.6931C23.1047 12.4284 22.7727 12.0519 22.5306 11.5637C22.2886 11.0755 22.1676 10.4963 22.1676 9.82608C22.1676 9.15586 22.2886 8.57666 22.5306 8.08848C22.7727 7.60029 23.1047 7.22381 23.5267 6.95903C23.9487 6.69426 24.4306 6.56187 24.9726 6.56187C25.2932 6.56187 25.5942 6.60841 25.8755 6.7015C26.1589 6.79458 26.4144 6.93111 26.6419 7.11107C26.8695 7.28897 27.0598 7.50617 27.2129 7.76268C27.3659 8.01711 27.4714 8.30775 27.5294 8.63458ZM30.076 13.1151C29.774 13.1151 29.4999 13.0582 29.2538 12.9445C29.0076 12.8286 28.8121 12.6621 28.6673 12.4449C28.5225 12.2256 28.4501 11.9609 28.4501 11.6506C28.4501 11.3775 28.5039 11.1562 28.6115 10.9866C28.7191 10.8149 28.8628 10.6804 29.0428 10.5832C29.2228 10.486 29.4213 10.4136 29.6385 10.366C29.8578 10.3163 30.0781 10.277 30.2995 10.2481C30.5891 10.2108 30.8238 10.1829 31.0038 10.1643C31.1858 10.1436 31.3182 10.1095 31.401 10.0619C31.4858 10.0143 31.5282 9.93158 31.5282 9.81367V9.78885C31.5282 9.4827 31.4444 9.24481 31.2769 9.07519C31.1114 8.90557 30.86 8.82075 30.5229 8.82075C30.1733 8.82075 29.8992 8.89729 29.7006 9.05037C29.502 9.20344 29.3624 9.36686 29.2817 9.54062L28.5867 9.29239C28.7108 9.00279 28.8763 8.77731 29.0831 8.61596C29.2921 8.45255 29.5196 8.33878 29.7658 8.27465C30.014 8.20846 30.2581 8.17536 30.498 8.17536C30.6511 8.17536 30.8269 8.19397 31.0255 8.23121C31.2262 8.26637 31.4196 8.33981 31.6058 8.45151C31.794 8.56322 31.9502 8.73181 32.0743 8.95728C32.1984 9.18276 32.2605 9.48477 32.2605 9.86332V13.0034H31.5282V12.358H31.491C31.4413 12.4615 31.3586 12.5721 31.2427 12.69C31.1269 12.8079 30.9728 12.9083 30.7804 12.991C30.588 13.0737 30.3532 13.1151 30.076 13.1151ZM30.1877 12.4573C30.4773 12.4573 30.7214 12.4004 30.92 12.2867C31.1207 12.1729 31.2717 12.026 31.373 11.846C31.4765 11.6661 31.5282 11.4768 31.5282 11.2782V10.608C31.4972 10.6452 31.4289 10.6794 31.3234 10.7104C31.22 10.7394 31.1 10.7652 30.9635 10.788C30.829 10.8087 30.6977 10.8273 30.5694 10.8438C30.4432 10.8583 30.3408 10.8707 30.2622 10.8811C30.0719 10.9059 29.894 10.9462 29.7285 11.0021C29.5651 11.0559 29.4327 11.1376 29.3314 11.2472C29.2321 11.3548 29.1824 11.5016 29.1824 11.6878C29.1824 11.9422 29.2765 12.1346 29.4648 12.2649C29.6551 12.3932 29.8961 12.4573 30.1877 12.4573ZM33.597 14.7907V8.23741H34.3045V8.99451H34.3914C34.4451 8.91177 34.5196 8.80627 34.6148 8.67802C34.712 8.5477 34.8506 8.43186 35.0305 8.3305C35.2126 8.22707 35.4587 8.17536 35.769 8.17536C36.1703 8.17536 36.5241 8.27568 36.8302 8.47634C37.1364 8.67699 37.3753 8.96142 37.547 9.32962C37.7187 9.69783 37.8045 10.1322 37.8045 10.6328C37.8045 11.1376 37.7187 11.5751 37.547 11.9453C37.3753 12.3135 37.1374 12.599 36.8333 12.8017C36.5292 13.0024 36.1786 13.1027 35.7814 13.1027C35.4753 13.1027 35.2302 13.052 35.0461 12.9507C34.862 12.8472 34.7203 12.7304 34.621 12.6C34.5217 12.4677 34.4451 12.358 34.3914 12.2711H34.3293V14.7907H33.597ZM34.3169 10.6204C34.3169 10.9803 34.3696 11.2979 34.4751 11.573C34.5806 11.846 34.7347 12.0601 34.9375 12.2153C35.1402 12.3684 35.3884 12.4449 35.6821 12.4449C35.9883 12.4449 36.2438 12.3642 36.4486 12.2029C36.6554 12.0395 36.8106 11.8202 36.914 11.5451C37.0195 11.2679 37.0722 10.9597 37.0722 10.6204C37.0722 10.2853 37.0205 9.98329 36.9171 9.71438C36.8157 9.4434 36.6616 9.2293 36.4548 9.07209C36.25 8.91281 35.9924 8.83317 35.6821 8.83317C35.3843 8.83317 35.134 8.90867 34.9313 9.05967C34.7285 9.20861 34.5755 9.41754 34.472 9.68645C34.3686 9.9533 34.3169 10.2646 34.3169 10.6204ZM40.324 13.1151C40.022 13.1151 39.7479 13.0582 39.5018 12.9445C39.2556 12.8286 39.0601 12.6621 38.9153 12.4449C38.7705 12.2256 38.6981 11.9609 38.6981 11.6506C38.6981 11.3775 38.7519 11.1562 38.8595 10.9866C38.967 10.8149 39.1108 10.6804 39.2908 10.5832C39.4707 10.486 39.6693 10.4136 39.8865 10.366C40.1058 10.3163 40.3261 10.277 40.5474 10.2481C40.837 10.2108 41.0718 10.1829 41.2518 10.1643C41.4338 10.1436 41.5662 10.1095 41.649 10.0619C41.7338 10.0143 41.7762 9.93158 41.7762 9.81367V9.78885C41.7762 9.4827 41.6924 9.24481 41.5248 9.07519C41.3594 8.90557 41.108 8.82075 40.7708 8.82075C40.4213 8.82075 40.1472 8.89729 39.9486 9.05037C39.75 9.20344 39.6104 9.36686 39.5297 9.54062L38.8347 9.29239C38.9588 9.00279 39.1243 8.77731 39.3311 8.61596C39.54 8.45255 39.7676 8.33878 40.0137 8.27465C40.262 8.20846 40.5061 8.17536 40.746 8.17536C40.8991 8.17536 41.0749 8.19397 41.2735 8.23121C41.4742 8.26637 41.6676 8.33981 41.8537 8.45151C42.042 8.56322 42.1982 8.73181 42.3223 8.95728C42.4464 9.18276 42.5085 9.48477 42.5085 9.86332V13.0034H41.7762V12.358H41.7389C41.6893 12.4615 41.6066 12.5721 41.4907 12.69C41.3749 12.8079 41.2208 12.9083 41.0284 12.991C40.836 13.0737 40.6012 13.1151 40.324 13.1151ZM40.4357 12.4573C40.7253 12.4573 40.9694 12.4004 41.168 12.2867C41.3687 12.1729 41.5197 12.026 41.621 11.846C41.7245 11.6661 41.7762 11.4768 41.7762 11.2782V10.608C41.7451 10.6452 41.6769 10.6794 41.5714 10.7104C41.468 10.7394 41.348 10.7652 41.2115 10.788C41.077 10.8087 40.9456 10.8273 40.8174 10.8438C40.6912 10.8583 40.5888 10.8707 40.5102 10.8811C40.3199 10.9059 40.142 10.9462 39.9765 11.0021C39.8131 11.0559 39.6807 11.1376 39.5793 11.2472C39.4801 11.3548 39.4304 11.5016 39.4304 11.6878C39.4304 11.9422 39.5245 12.1346 39.7128 12.2649C39.9031 12.3932 40.1441 12.4573 40.4357 12.4573ZM45.7812 13.1027C45.3344 13.1027 44.9496 12.9972 44.6269 12.7862C44.3042 12.5752 44.056 12.2846 43.8822 11.9143C43.7085 11.544 43.6216 11.121 43.6216 10.6452C43.6216 10.1612 43.7106 9.73403 43.8885 9.36376C44.0684 8.99141 44.3187 8.70078 44.6393 8.49185C44.962 8.28086 45.3385 8.17536 45.7688 8.17536C46.1039 8.17536 46.4059 8.23742 46.6748 8.36153C46.9437 8.48564 47.164 8.6594 47.3357 8.88281C47.5074 9.10622 47.614 9.36686 47.6553 9.66473H46.9231C46.8672 9.44753 46.7431 9.25516 46.5507 9.0876C46.3604 8.91798 46.1039 8.83317 45.7812 8.83317C45.4957 8.83317 45.2454 8.90763 45.0303 9.05657C44.8172 9.20344 44.6507 9.41133 44.5307 9.68025C44.4128 9.94709 44.3539 10.2605 44.3539 10.6204C44.3539 10.9886 44.4118 11.3093 44.5276 11.5823C44.6456 11.8554 44.811 12.0674 45.0241 12.2184C45.2392 12.3694 45.4916 12.4449 45.7812 12.4449C45.9715 12.4449 46.1442 12.4118 46.2994 12.3456C46.4545 12.2794 46.5859 12.1843 46.6934 12.0601C46.801 11.936 46.8775 11.7871 46.9231 11.6133H47.6553C47.614 11.8947 47.5116 12.1481 47.3482 12.3735C47.1868 12.5969 46.9727 12.7748 46.7059 12.9072C46.4411 13.0375 46.1329 13.1027 45.7812 13.1027ZM48.7258 13.0034V8.23741H49.4581V13.0034H48.7258ZM49.0982 7.44308C48.9554 7.44308 48.8324 7.39447 48.7289 7.29725C48.6276 7.20002 48.5769 7.08315 48.5769 6.94662C48.5769 6.8101 48.6276 6.69322 48.7289 6.596C48.8324 6.49878 48.9554 6.45016 49.0982 6.45016C49.2409 6.45016 49.3629 6.49878 49.4643 6.596C49.5677 6.69322 49.6194 6.8101 49.6194 6.94662C49.6194 7.08315 49.5677 7.20002 49.4643 7.29725C49.3629 7.39447 49.2409 7.44308 49.0982 7.44308ZM52.872 8.23741V8.85799H50.4021V8.23741H52.872ZM51.122 7.09556H51.8543V11.6382C51.8543 11.845 51.8843 12.0002 51.9443 12.1036C52.0063 12.2049 52.0849 12.2732 52.1801 12.3084C52.2773 12.3415 52.3797 12.358 52.4873 12.358C52.5679 12.358 52.6341 12.3539 52.6859 12.3456C52.7376 12.3353 52.7789 12.327 52.81 12.3208L52.9589 12.9786C52.9093 12.9972 52.84 13.0158 52.751 13.0344C52.6621 13.0551 52.5493 13.0655 52.4128 13.0655C52.2059 13.0655 52.0032 13.021 51.8046 12.9321C51.6081 12.8431 51.4447 12.7076 51.3144 12.5256C51.1861 12.3435 51.122 12.1139 51.122 11.8367V7.09556ZM55.8585 13.1027C55.4283 13.1027 55.0508 13.0003 54.726 12.7955C54.4033 12.5907 54.1509 12.3042 53.9689 11.936C53.7889 11.5678 53.6989 11.1376 53.6989 10.6452C53.6989 10.1488 53.7889 9.71541 53.9689 9.34514C54.1509 8.97486 54.4033 8.68733 54.726 8.48254C55.0508 8.27775 55.4283 8.17536 55.8585 8.17536C56.2888 8.17536 56.6653 8.27775 56.988 8.48254C57.3127 8.68733 57.5651 8.97486 57.7451 9.34514C57.9271 9.71541 58.0181 10.1488 58.0181 10.6452C58.0181 11.1376 57.9271 11.5678 57.7451 11.936C57.5651 12.3042 57.3127 12.5907 56.988 12.7955C56.6653 13.0003 56.2888 13.1027 55.8585 13.1027ZM55.8585 12.4449C56.1854 12.4449 56.4543 12.3611 56.6653 12.1936C56.8763 12.026 57.0325 11.8057 57.1338 11.5327C57.2352 11.2596 57.2859 10.9638 57.2859 10.6452C57.2859 10.3267 57.2352 10.0298 57.1338 9.75472C57.0325 9.4796 56.8763 9.25722 56.6653 9.0876C56.4543 8.91798 56.1854 8.83317 55.8585 8.83317C55.5317 8.83317 55.2628 8.91798 55.0518 9.0876C54.8408 9.25722 54.6846 9.4796 54.5833 9.75472C54.4819 10.0298 54.4312 10.3267 54.4312 10.6452C54.4312 10.9638 54.4819 11.2596 54.5833 11.5327C54.6846 11.8057 54.8408 12.026 55.0518 12.1936C55.2628 12.3611 55.5317 12.4449 55.8585 12.4449ZM59.1359 13.0034V8.23741H59.8434V8.95728H59.893C59.9799 8.72146 60.1371 8.53012 60.3647 8.38325C60.5922 8.23638 60.8487 8.16295 61.1342 8.16295C61.188 8.16295 61.2552 8.16398 61.3359 8.16605C61.4165 8.16812 61.4776 8.17122 61.5189 8.17536V8.92005C61.4941 8.91384 61.4372 8.90453 61.3483 8.89212C61.2614 8.87764 61.1694 8.8704 61.0721 8.8704C60.8404 8.8704 60.6336 8.91901 60.4516 9.01623C60.2716 9.11139 60.1289 9.24378 60.0234 9.4134C59.9199 9.58096 59.8682 9.7723 59.8682 9.98743V13.0034H59.1359Z" fill="#1E1E1E"/>
<path d="M32.9063 102.755C33.2663 102.385 34.7063 100.885 35.0663 100.505" stroke="#1E1E1E" stroke-linecap="round"/>
<path d="M35.0618 100.464C35.4618 100.794 37.0418 102.114 37.4418 102.444" stroke="#1E1E1E" stroke-linecap="round"/>
<path d="M37.5316 102.71C36.8416 103.77 34.0916 108.02 33.4016 109.09" stroke="#1E1E1E" stroke-linecap="round"/>
<path d="M32.9736 102.755C32.6136 102.385 31.1736 100.885 30.8136 100.505" stroke="#1E1E1E" stroke-linecap="round"/>
<path d="M30.8181 100.464C30.4181 100.794 28.8381 102.114 28.4381 102.444" stroke="#1E1E1E" stroke-linecap="round"/>
<path d="M28.3483 102.71C29.0383 103.77 31.7883 108.02 32.4783 109.09" stroke="#1E1E1E" stroke-linecap="round"/>
<path d="M31.2862 99.7488C32.4162 99.4088 34.7462 99.2788 35.9062 99.7888C37.0662 100.289 37.8562 101.699 38.2362 102.789C38.6262 103.879 38.6462 105.269 38.2162 106.329C37.7862 107.379 36.7162 108.409 35.6562 109.119C34.5862 109.819 32.9262 110.649 31.8362 110.559C30.7462 110.459 29.8062 109.409 29.1262 108.529C28.4462 107.639 27.9162 106.489 27.7362 105.249C27.5662 104.019 27.3362 102.069 28.0662 101.109C28.8062 100.139 31.5262 99.6788 32.1262 99.4688C32.7262 99.2588 31.6862 99.7288 31.6662 99.8588M33.5462 98.6888C34.7662 98.6888 36.3262 99.8488 37.2062 100.849C38.0762 101.849 38.8262 103.559 38.7862 104.709C38.7462 105.849 37.8162 106.689 36.9562 107.729C36.0862 108.769 34.6162 110.549 33.6162 110.929C32.6062 111.299 32.0162 110.749 30.9262 109.969C29.8362 109.189 27.6062 107.389 27.0762 106.229C26.5462 105.079 27.2462 103.969 27.7462 103.029C28.2462 102.089 29.1262 101.249 30.0562 100.599C30.9962 99.9488 32.6262 99.3088 33.3662 99.1388C34.0962 98.9588 34.2762 99.3088 34.4562 99.5488" fill="white"/>
<path d="M32.7262 99.7389C33.7862 99.6989 35.2962 99.5489 36.2862 100.309C37.2862 101.069 38.4662 103.019 38.6862 104.289C38.9062 105.559 38.2962 106.949 37.5962 107.939C36.8962 108.929 35.5962 109.829 34.4862 110.219C33.3862 110.599 32.0162 110.779 30.9762 110.229C29.9362 109.679 28.7762 108.019 28.2462 106.919C27.7262 105.819 27.5262 104.659 27.8262 103.649C28.1262 102.639 29.0462 101.649 30.0462 100.859C31.0362 100.059 33.1762 99.1889 33.8162 98.8789C34.4462 98.5789 33.9062 98.9089 33.8362 99.0389M31.9562 99.8089C33.1962 99.5289 34.7762 99.6489 35.6562 99.9789C36.5262 100.309 36.7662 100.839 37.2062 101.789C37.6462 102.739 38.4062 104.499 38.3062 105.679C38.2062 106.859 37.6462 108.149 36.5862 108.879C35.5162 109.599 33.2762 110.089 31.9162 110.039C30.5662 109.989 29.0962 109.299 28.4562 108.569C27.8262 107.839 28.2162 106.909 28.0962 105.659C27.9762 104.419 27.2162 102.149 27.7262 101.089C28.2362 100.029 30.5062 99.5689 31.1562 99.2889C31.8062 98.9989 31.6462 99.1889 31.6462 99.3989" stroke="#1E1E1E" stroke-linecap="round"/>
<path d="M32.8466 105.007C32.7766 104.257 32.4866 101.267 32.5166 100.537M32.4566 104.707C32.4866 103.977 33.1266 101.447 33.2066 100.807" stroke="#1E1E1E" stroke-width="0.5" stroke-linecap="round"/>
<path d="M35.942 105.923C35.442 105.593 33.772 104.483 33.212 104.293M36.482 106.503C35.952 106.213 33.632 104.983 33.092 104.613" stroke="#1E1E1E" stroke-width="0.5" stroke-linecap="round"/>
<path d="M52.6991 31.5601C54.6582 32.3585 58.1338 37.8644 60.0117 37.1757C65.9538 37.7293 60.8859 39.9778 60.8682 43.6459C54.7558 48.0426 53.0472 58.9859 44.8072 64.5605C43.6173 71.5774 37.5779 69.0325 38.3352 65.4029C35.3049 63.8324 32.1601 62.4765 31.0226 59.7874C31.5998 58.8059 28.6908 55.7146 30.1741 53.3233C32.4051 47.4463 39.691 41.3408 46.2351 32.4087C51.0932 27.8556 47.7197 29.3754 52.6991 31.5601Z" fill="white"/>
<path d="M52.6991 31.5601C54.5052 31.7367 56.6405 34.8012 60.0117 37.1757M52.6991 31.5601C55.0434 33.6629 57.5972 35.6241 60.0117 37.1757M52.6991 31.5601C48.693 29.6184 48.3973 31.8752 46.2351 32.4086M52.6991 31.5601C51.2417 29.0414 48.7251 27.8527 46.2351 32.4086M60.0117 37.1757C60.7871 39.1706 62.2004 42.9289 60.8682 43.6458M60.0117 37.1757C63.4181 41.5567 60.9648 40.2527 60.8682 43.6458M60.8682 43.6458C56.9225 45.5331 52.9626 53.2345 44.8072 64.5605M60.8682 43.6458C55.2174 49.6579 50.3665 57.7973 44.8072 64.5605M44.8072 64.5605C44.9611 67.0364 40.2424 66.1867 38.3352 65.4029M44.8072 64.5605C41.8105 66.0165 41.5196 69.7774 38.3352 65.4029M38.3352 65.4029C36.6672 64.1598 35.6044 62.4736 31.0226 59.7874M38.3352 65.4029C35.1409 63.1264 33.0764 60.8728 31.0226 59.7874M31.0226 59.7874C28.4726 60.3004 27.2933 56.3687 30.1741 53.3233M31.0226 59.7874C28.8523 58.5746 28.5656 54.7611 30.1741 53.3233M30.1741 53.3233C35.0465 49.0964 38.6616 44.7993 46.2351 32.4086M30.1741 53.3233C34.2461 48.5953 37.6145 45.2434 46.2351 32.4086" stroke="#1E1E1E" stroke-linecap="round"/>
<path d="M30.777 61.0577C29.4321 62.7105 25.1305 69.33 24.0118 70.9674M31.5326 61.2723C30.1937 62.7532 25.6194 68.3815 24.2824 70.0404" stroke="#1E1E1E" stroke-linecap="round"/>
<path d="M37.859 65.341C36.7159 67.0101 31.596 73.4803 30.3109 75.1538M37.6487 64.6626C36.4471 66.375 30.7836 73.8651 29.6008 75.5037" stroke="#1E1E1E" stroke-linecap="round"/>
<path d="M44.9781 38.1452C46.7797 39.5918 53.9303 45.3856 55.7655 46.8705M44.7842 37.429C46.6479 38.6963 54.0558 44.5489 55.9892 46.021" stroke="#1E1E1E" stroke-linecap="round"/>
</svg>
