<svg width="85" height="126" viewBox="0 0 85 126" fill="none" xmlns="http://www.w3.org/2000/svg">
<path d="M22.9923 2.53096C38.0523 5.22096 46.6323 4.45096 63.3923 2.53096C79.7023 0.700961 83.8823 6.22096 83.5923 22.731C83.5623 53.031 81.1423 81.141 83.5923 104.281C81.3923 115.881 76.4923 125.951 63.3923 124.481C55.4023 121.141 47.7223 127.541 22.9923 124.481C6.08227 120.891 2.05227 121.171 2.79227 104.281C-0.267732 73.411 1.96227 50.901 2.79227 22.731C5.14227 12.111 6.95227 4.23096 22.9923 2.53096Z" fill="white"/>
<path d="M22.9923 2.53096C30.0423 1.22096 39.7523 2.58096 63.3923 2.53096M22.9923 2.53096C38.2123 2.31096 52.7923 2.80096 63.3923 2.53096M22.9923 2.53096C7.95226 1.80096 2.11226 7.71096 2.79226 22.731M22.9923 2.53096C7.57226 2.34096 4.24226 7.77096 2.79226 22.731M63.3923 2.53096C77.0823 0.880955 83.8723 8.16096 83.5923 22.731M63.3923 2.53096C77.0823 3.25096 82.5523 10.521 83.5923 22.731M83.5923 22.731C84.2223 44.471 82.5123 64.721 83.5923 104.281M83.5923 22.731C83.3823 49.901 84.1123 76.101 83.5923 104.281M83.5923 104.281C81.9323 118.731 78.3723 122.831 63.3923 124.481M83.5923 104.281C85.4823 119.161 78.1623 124.361 63.3923 124.481M63.3923 124.481C48.8323 125.521 35.0023 124.701 22.9923 124.481M63.3923 124.481C49.8023 124.481 35.3423 125.231 22.9923 124.481M22.9923 124.481C10.8123 122.501 1.76226 117.651 2.79226 104.281M22.9923 124.481C10.1523 125.031 3.78226 118.341 2.79226 104.281M2.79226 104.281C2.52226 83.481 2.63226 62.751 2.79226 22.731M2.79226 104.281C1.80226 77.901 1.61226 51.381 2.79226 22.731" stroke="#1E1E1E" stroke-width="2" stroke-linecap="round"/>
<path d="M24.0672 2.35715C35.4672 2.35715 46.8672 2.35715 60.4572 2.35715C62.9372 2.35715 64.1872 3.59715 64.1872 6.08715C64.1872 8.11715 64.1872 10.1571 64.1872 13.5371C64.1872 16.0171 62.9372 17.2571 60.4572 17.2571C51.9072 17.2571 43.3572 17.2571 24.0672 17.2571C21.5772 17.2571 20.3372 16.0171 20.3372 13.5371C20.3372 11.1771 20.3372 8.81715 20.3372 6.08715C20.3372 3.59715 21.5772 2.35715 24.0672 2.35715Z" fill="white"/>
<path d="M24.0672 2.35715C34.5072 2.35715 44.9472 2.35715 60.4572 2.35715M24.0672 2.35715C32.3672 2.35715 40.6672 2.35715 60.4572 2.35715M24.0672 2.35715C21.5772 2.35715 20.3372 3.59715 20.3372 6.08715M60.4572 2.35715C62.9372 2.35715 64.1872 3.59715 64.1872 6.08715M64.1872 6.08715C64.1872 8.41715 64.1872 10.7471 64.1872 13.5371M64.1872 6.08715C64.1872 8.81715 64.1872 11.5471 64.1872 13.5371M64.1872 13.5371C64.1872 16.0171 62.9372 17.2571 60.4572 17.2571M60.4572 17.2571C46.9672 17.2571 33.4772 17.2571 24.0672 17.2571M60.4572 17.2571C49.3272 17.2571 38.1972 17.2571 24.0672 17.2571M24.0672 17.2571C21.5772 17.2571 20.3372 16.0171 20.3372 13.5371M20.3372 13.5371C20.3372 11.0871 20.3372 8.63715 20.3372 6.08715M20.3372 13.5371C20.3372 11.4971 20.3372 9.45715 20.3372 6.08715" stroke="#1E1E1E" stroke-width="2" stroke-linecap="round"/>
<path d="M23.7486 11.8114V5.45673H24.5181V8.28655H27.9064V5.45673H28.6759V11.8114H27.9064V8.96918H24.5181V11.8114H23.7486ZM32.1155 11.9107C31.6562 11.9107 31.2601 11.8093 30.9271 11.6066C30.5961 11.4018 30.3406 11.1164 30.1606 10.7502C29.9828 10.382 29.8938 9.95382 29.8938 9.46563C29.8938 8.97745 29.9828 8.54719 30.1606 8.17484C30.3406 7.80043 30.5909 7.50876 30.9115 7.29983C31.2342 7.08884 31.6107 6.98334 32.041 6.98334C32.2892 6.98334 32.5343 7.02471 32.7764 7.10746C33.0184 7.1902 33.2387 7.32466 33.4373 7.51083C33.6359 7.69493 33.7941 7.93902 33.912 8.2431C34.0299 8.54719 34.0889 8.9216 34.0889 9.36634V9.67663H30.4151V9.04364H33.3442C33.3442 8.77473 33.2904 8.53477 33.1828 8.32378C33.0773 8.11278 32.9263 7.94626 32.7298 7.82422C32.5354 7.70217 32.3058 7.64115 32.041 7.64115C31.7493 7.64115 31.497 7.71355 31.2839 7.85835C31.0729 8.00108 30.9105 8.18725 30.7967 8.41687C30.683 8.64648 30.6261 8.89264 30.6261 9.15535V9.57734C30.6261 9.93727 30.6881 10.2424 30.8123 10.4927C30.9384 10.7409 31.1132 10.9302 31.3366 11.0605C31.56 11.1888 31.8196 11.2529 32.1155 11.2529C32.3078 11.2529 32.4816 11.226 32.6367 11.1722C32.7939 11.1164 32.9294 11.0336 33.0432 10.924C33.157 10.8123 33.2449 10.6737 33.307 10.5082L34.0144 10.7068C33.9399 10.9467 33.8148 11.1577 33.639 11.3398C33.4631 11.5197 33.2459 11.6604 32.9874 11.7618C32.7288 11.861 32.4382 11.9107 32.1155 11.9107ZM36.6053 11.9231C36.3033 11.9231 36.0292 11.8662 35.783 11.7524C35.5369 11.6366 35.3414 11.4701 35.1966 11.2529C35.0518 11.0336 34.9794 10.7688 34.9794 10.4586C34.9794 10.1855 35.0332 9.96416 35.1407 9.79454C35.2483 9.62285 35.3921 9.48839 35.572 9.39117C35.752 9.29394 35.9506 9.22154 36.1678 9.17396C36.3871 9.12432 36.6074 9.08502 36.8287 9.05606C37.1183 9.01882 37.3531 8.9909 37.5331 8.97228C37.7151 8.95159 37.8475 8.91746 37.9302 8.86988C38.015 8.82231 38.0574 8.73956 38.0574 8.62165V8.59683C38.0574 8.29068 37.9737 8.0528 37.8061 7.88317C37.6406 7.71355 37.3893 7.62874 37.0521 7.62874C36.7025 7.62874 36.4284 7.70527 36.2299 7.85835C36.0313 8.01142 35.8916 8.17484 35.811 8.3486L35.1159 8.10037C35.24 7.81077 35.4055 7.5853 35.6124 7.42395C35.8213 7.26053 36.0489 7.14676 36.295 7.08263C36.5432 7.01644 36.7873 6.98334 37.0273 6.98334C37.1804 6.98334 37.3562 7.00196 37.5548 7.03919C37.7554 7.07436 37.9488 7.14779 38.135 7.2595C38.3233 7.3712 38.4794 7.53979 38.6035 7.76526C38.7277 7.99074 38.7897 8.29275 38.7897 8.6713V11.8114H38.0574V11.166H38.0202C37.9706 11.2694 37.8878 11.3801 37.772 11.498C37.6561 11.6159 37.502 11.7162 37.3097 11.799C37.1173 11.8817 36.8825 11.9231 36.6053 11.9231ZM36.717 11.2653C37.0066 11.2653 37.2507 11.2084 37.4493 11.0946C37.6499 10.9809 37.8009 10.834 37.9023 10.654C38.0057 10.4741 38.0574 10.2848 38.0574 10.0862V9.41599C38.0264 9.45322 37.9582 9.48735 37.8527 9.51838C37.7492 9.54734 37.6292 9.5732 37.4927 9.59595C37.3583 9.61664 37.2269 9.63526 37.0987 9.65181C36.9725 9.66629 36.8701 9.6787 36.7915 9.68904C36.6012 9.71386 36.4233 9.7542 36.2578 9.81005C36.0944 9.86384 35.962 9.94554 35.8606 10.0552C35.7613 10.1627 35.7117 10.3096 35.7117 10.4958C35.7117 10.7502 35.8058 10.9426 35.994 11.0729C36.1843 11.2012 36.4253 11.2653 36.717 11.2653ZM40.1263 13.5987V7.0454H40.8337V7.8025H40.9206C40.9744 7.71975 41.0489 7.61426 41.144 7.48601C41.2412 7.35569 41.3798 7.23984 41.5598 7.13848C41.7418 7.03506 41.988 6.98334 42.2983 6.98334C42.6996 6.98334 43.0533 7.08367 43.3595 7.28432C43.6656 7.48497 43.9045 7.7694 44.0762 8.13761C44.2479 8.50581 44.3338 8.94022 44.3338 9.44081C44.3338 9.94554 44.2479 10.383 44.0762 10.7533C43.9045 11.1215 43.6667 11.407 43.3626 11.6097C43.0585 11.8104 42.7079 11.9107 42.3107 11.9107C42.0046 11.9107 41.7594 11.86 41.5753 11.7587C41.3912 11.6552 41.2495 11.5383 41.1502 11.408C41.0509 11.2756 40.9744 11.166 40.9206 11.0791H40.8586V13.5987H40.1263ZM40.8461 9.4284C40.8461 9.78833 40.8989 10.1059 41.0044 10.381C41.1099 10.654 41.264 10.8681 41.4667 11.0233C41.6694 11.1763 41.9177 11.2529 42.2114 11.2529C42.5176 11.2529 42.773 11.1722 42.9778 11.0109C43.1847 10.8474 43.3398 10.6282 43.4432 10.3531C43.5487 10.0759 43.6015 9.76765 43.6015 9.4284C43.6015 9.09329 43.5498 8.79128 43.4463 8.52236C43.345 8.25138 43.1909 8.03728 42.984 7.88007C42.7792 7.72079 42.5217 7.64115 42.2114 7.64115C41.9135 7.64115 41.6632 7.71665 41.4605 7.86766C41.2578 8.0166 41.1047 8.22552 41.0013 8.49444C40.8979 8.76128 40.8461 9.0726 40.8461 9.4284ZM47.9083 11.8114V7.0454H48.6157V7.79009H48.6778C48.7771 7.53565 48.9374 7.3381 49.1587 7.19744C49.3801 7.05471 49.6459 6.98334 49.9562 6.98334C50.2706 6.98334 50.5323 7.05471 50.7412 7.19744C50.9522 7.3381 51.1166 7.53565 51.2345 7.79009H51.2842C51.4062 7.54393 51.5893 7.34845 51.8334 7.20364C52.0775 7.05678 52.3702 6.98334 52.7115 6.98334C53.1376 6.98334 53.4862 7.11676 53.7572 7.38361C54.0282 7.64839 54.1636 8.06107 54.1636 8.62165V11.8114H53.4314V8.62165C53.4314 8.27 53.3352 8.01866 53.1428 7.86766C52.9504 7.71665 52.7239 7.64115 52.4633 7.64115C52.1282 7.64115 51.8686 7.74251 51.6845 7.94523C51.5004 8.14588 51.4083 8.40032 51.4083 8.70853V11.8114H50.6636V8.54719C50.6636 8.2762 50.5757 8.05797 50.3999 7.89248C50.224 7.72493 49.9975 7.64115 49.7203 7.64115C49.53 7.64115 49.3521 7.69183 49.1867 7.79319C49.0232 7.89455 48.8908 8.03521 48.7895 8.21518C48.6902 8.39308 48.6405 8.5989 48.6405 8.83265V11.8114H47.9083ZM56.905 11.9231C56.603 11.9231 56.3289 11.8662 56.0828 11.7524C55.8366 11.6366 55.6411 11.4701 55.4963 11.2529C55.3515 11.0336 55.2791 10.7688 55.2791 10.4586C55.2791 10.1855 55.3329 9.96416 55.4405 9.79454C55.548 9.62285 55.6918 9.48839 55.8718 9.39117C56.0517 9.29394 56.2503 9.22154 56.4675 9.17396C56.6868 9.12432 56.9071 9.08502 57.1284 9.05606C57.418 9.01882 57.6528 8.9909 57.8328 8.97228C58.0148 8.95159 58.1472 8.91746 58.23 8.86988C58.3148 8.82231 58.3572 8.73956 58.3572 8.62165V8.59683C58.3572 8.29068 58.2734 8.0528 58.1058 7.88317C57.9404 7.71355 57.689 7.62874 57.3518 7.62874C57.0023 7.62874 56.7282 7.70527 56.5296 7.85835C56.331 8.01142 56.1914 8.17484 56.1107 8.3486L55.4157 8.10037C55.5398 7.81077 55.7053 7.5853 55.9121 7.42395C56.121 7.26053 56.3486 7.14676 56.5947 7.08263C56.843 7.01644 57.0871 6.98334 57.327 6.98334C57.4801 6.98334 57.6559 7.00196 57.8545 7.03919C58.0552 7.07436 58.2486 7.14779 58.4347 7.2595C58.623 7.3712 58.7792 7.53979 58.9033 7.76526C59.0274 7.99074 59.0894 8.29275 59.0894 8.6713V11.8114H58.3572V11.166H58.3199C58.2703 11.2694 58.1875 11.3801 58.0717 11.498C57.9559 11.6159 57.8018 11.7162 57.6094 11.799C57.417 11.8817 57.1822 11.9231 56.905 11.9231ZM57.0167 11.2653C57.3063 11.2653 57.5504 11.2084 57.749 11.0946C57.9497 10.9809 58.1007 10.834 58.202 10.654C58.3055 10.4741 58.3572 10.2848 58.3572 10.0862V9.41599C58.3261 9.45322 58.2579 9.48735 58.1524 9.51838C58.049 9.54734 57.929 9.5732 57.7924 9.59595C57.658 9.61664 57.5266 9.63526 57.3984 9.65181C57.2722 9.66629 57.1698 9.6787 57.0912 9.68904C56.9009 9.71386 56.723 9.7542 56.5575 9.81005C56.3941 9.86384 56.2617 9.94554 56.1603 10.0552C56.0611 10.1627 56.0114 10.3096 56.0114 10.4958C56.0114 10.7502 56.1055 10.9426 56.2938 11.0729C56.4841 11.2012 56.7251 11.2653 57.0167 11.2653ZM60.9721 7.0454L62.114 8.994L63.2558 7.0454H64.0998L62.5608 9.4284L64.0998 11.8114H63.2558L62.114 9.96209L60.9721 11.8114H60.1281L61.6423 9.4284L60.1281 7.0454H60.9721Z" fill="#1E1E1E"/>
<path d="M11.3549 90.6929C22.3449 90.6929 66.3249 90.6929 77.3149 90.6929" stroke="#1E1E1E" stroke-width="2" stroke-linecap="round"/>
<path d="M41.7782 37.0812C41.6282 34.2112 41.7082 31.5712 41.6582 29.3112ZM41.7782 37.0812C41.7582 35.4312 41.6682 33.7712 41.6582 29.3112Z" stroke="#1E1E1E" stroke-linecap="round"/>
<path d="M43.0182 32.9512C42.4782 31.6112 42.0582 30.3712 41.6582 29.3112ZM43.0182 32.9512C42.7282 32.1812 42.3982 31.4012 41.6582 29.3112Z" stroke="#1E1E1E" stroke-linecap="round"/>
<path d="M40.3582 32.9712C40.7682 31.6212 41.2982 30.3712 41.6582 29.3112ZM40.3582 32.9712C40.6482 32.2012 40.8982 31.4212 41.6582 29.3112Z" stroke="#1E1E1E" stroke-linecap="round"/>
<path d="M19.3096 59.9197C20.8896 58.1297 27.4496 50.7297 29.0796 48.9197M20.1996 59.4397C21.7096 57.7297 27.2496 51.0397 28.6796 49.3897" stroke="#1E1E1E" stroke-linecap="round"/>
<path d="M28.9642 48.4614C31.1542 46.9214 39.7142 41.0614 41.8542 39.6814M28.3342 49.4114C30.4742 47.9414 39.2642 41.9314 41.4642 40.2214" stroke="#1E1E1E" stroke-linecap="round"/>
<path d="M41.8582 39.6808C43.8282 41.2108 51.7482 47.2008 53.6582 48.7308M41.2282 40.7108C43.1282 42.1108 51.3182 46.6508 53.2582 47.8608" stroke="#1E1E1E" stroke-linecap="round"/>
<path d="M53.4264 48.6174C54.8864 50.8274 60.7164 59.3674 62.1764 61.3874M52.7964 48.2274C54.1464 50.3074 60.1264 58.4274 61.6164 60.5774" stroke="#1E1E1E" stroke-linecap="round"/>
<path d="M52.1985 48.5154C51.1885 50.4554 47.3285 58.0154 46.4185 60.0454M53.0685 48.1954C51.9585 50.1854 46.9785 58.6354 45.8685 60.5654" stroke="#1E1E1E" stroke-linecap="round"/>
<path d="M28.9061 48.0974C30.0361 50.0774 34.5461 58.5874 35.7061 60.5974M29.7861 49.1074C30.8761 50.8974 34.3361 57.8674 35.3061 59.7874" stroke="#1E1E1E" stroke-linecap="round"/>
<path d="M41.0348 36.8022C41.7648 36.6122 42.9148 37.1022 43.6248 37.5722C44.3348 38.0422 45.0248 38.8222 45.3148 39.6122C45.6048 40.3922 45.6748 41.5422 45.3548 42.2822C45.0448 43.0122 44.1048 43.7422 43.4148 44.0222C42.7248 44.3122 41.9648 44.2322 41.2048 43.9922C40.4548 43.7422 39.3848 43.1322 38.8948 42.5522C38.4048 41.9722 38.2448 41.2322 38.2648 40.5122C38.2748 39.7822 38.4348 38.8222 38.9748 38.2122C39.5248 37.6022 41.0848 37.0522 41.5248 36.8422C41.9648 36.6322 41.6748 36.8522 41.6148 36.9422M41.6348 37.1422C42.3748 37.1322 43.1248 37.8222 43.8148 38.2622C44.5048 38.7022 45.7248 39.0722 45.7848 39.7922C45.8548 40.5022 44.6348 41.7922 44.2048 42.5522C43.7748 43.3122 43.8348 44.1022 43.1948 44.3422C42.5548 44.5822 41.2148 44.4222 40.3748 44.0122C39.5248 43.6022 38.4748 42.5122 38.1148 41.8822C37.7448 41.2522 37.8548 40.8822 38.1548 40.2522C38.4648 39.6322 39.3548 38.6322 39.9248 38.1422C40.5048 37.6422 41.2848 37.4922 41.6048 37.2922C41.9348 37.0922 41.8948 37.0022 41.8748 36.9422" fill="white"/>
<path d="M42.0248 36.9322C42.8048 36.9422 43.8348 37.4722 44.4148 38.0722C45.0048 38.6722 45.4548 39.8022 45.5248 40.5122C45.6048 41.2322 45.2948 41.7222 44.8648 42.3522C44.4248 42.9922 43.7148 44.0422 42.9048 44.3522C42.0948 44.6622 40.7048 44.5322 40.0048 44.2222C39.3148 43.9022 39.0048 43.1522 38.7048 42.4422C38.4048 41.7322 38.0948 40.7122 38.2048 39.9622C38.3248 39.2222 38.7848 38.4522 39.4048 37.9922C40.0248 37.5322 41.5048 37.3322 41.9448 37.1922C42.3948 37.0522 42.0348 37.0622 42.0648 37.1322M41.7848 37.4122C42.5348 37.2922 43.8448 36.9822 44.3748 37.4222C44.9148 37.8622 44.9148 39.1722 45.0048 40.0322C45.1048 40.9022 45.2648 41.9022 44.9548 42.5922C44.6448 43.2822 43.9248 43.9922 43.1348 44.1622C42.3348 44.3422 40.9148 43.9722 40.1848 43.6522C39.4548 43.3222 39.0948 42.8422 38.7348 42.2022C38.3648 41.5522 37.9448 40.5022 37.9948 39.8022C38.0548 39.1022 38.4048 38.4722 39.0748 37.9922C39.7448 37.5122 41.6148 37.0622 42.0148 36.9222C42.4148 36.7822 41.5848 37.0722 41.4748 37.1522" stroke="#1E1E1E" stroke-linecap="round"/>
<path d="M29.6547 44.9769C30.4547 45.0669 31.4647 45.5369 32.0547 46.1369C32.6547 46.7469 33.1847 47.8069 33.2147 48.5969C33.2447 49.3869 32.7147 50.3369 32.2547 50.8969C31.7947 51.4469 31.1947 51.8069 30.4447 51.9069C29.6947 52.0169 28.4747 51.8469 27.7647 51.5369C27.0447 51.2369 26.4947 50.7269 26.1647 50.0769C25.8247 49.4169 25.5347 48.3769 25.7647 47.5869C25.9947 46.8069 26.8247 45.8369 27.5347 45.3769C28.2347 44.9169 29.6547 44.8669 29.9947 44.8169C30.3447 44.7669 29.6347 45.0169 29.6047 45.0669M29.2147 45.2169C30.0847 45.1369 31.8047 45.0669 32.3347 45.5669C32.8647 46.0569 32.3247 47.2769 32.3947 48.1669C32.4647 49.0469 33.0747 50.2169 32.7347 50.8869C32.4047 51.5469 31.2447 52.0369 30.3647 52.1469C29.4747 52.2469 28.1547 51.7669 27.4247 51.5069C26.6947 51.2569 26.1947 51.1669 25.9847 50.5969C25.7747 50.0169 26.0147 48.8569 26.1647 48.0669C26.3047 47.2869 26.3147 46.4369 26.8747 45.8869C27.4447 45.3469 29.1447 45.0369 29.5247 44.8169C29.9147 44.5969 29.1647 44.4369 29.1947 44.5969" fill="white"/>
<path d="M29.5347 45.0269C30.2847 45.0469 31.2747 45.6669 31.8547 46.1069C32.4347 46.5569 32.8747 46.9369 32.9947 47.6869C33.1147 48.4469 33.0447 49.8869 32.5847 50.6469C32.1347 51.3969 30.9847 51.9969 30.2647 52.2469C29.5447 52.4969 28.9647 52.4469 28.2847 52.1569C27.6047 51.8769 26.6247 51.2069 26.1747 50.5469C25.7247 49.8869 25.4647 48.9669 25.5847 48.2069C25.7147 47.4369 26.2947 46.4969 26.9147 45.9669C27.5347 45.4269 28.8847 45.1069 29.3347 44.9869C29.7747 44.8669 29.5947 45.1869 29.6047 45.2769M29.6247 44.5069C30.3047 44.3869 30.7947 45.2169 31.3547 45.8069C31.9147 46.4069 32.7747 47.2969 32.9847 48.0769C33.2047 48.8569 33.0947 49.9269 32.6447 50.5069C32.1947 51.0969 31.0147 51.3969 30.2747 51.6069C29.5447 51.8069 28.9447 51.9869 28.2347 51.7569C27.5247 51.5269 26.4847 50.8169 26.0147 50.2069C25.5447 49.5969 25.1947 48.8469 25.4047 48.0969C25.6147 47.3469 26.6547 46.2269 27.2547 45.7169C27.8547 45.1969 28.7447 45.1369 29.0247 45.0269C29.3047 44.9169 28.9047 45.0669 28.9247 45.0569" stroke="#1E1E1E" stroke-linecap="round"/>
<path d="M52.509 44.729C53.289 44.629 54.439 45.019 55.069 45.449C55.699 45.879 56.079 46.649 56.309 47.309C56.539 47.979 56.739 48.779 56.449 49.419C56.169 50.049 55.279 50.739 54.579 51.129C53.879 51.529 53.019 51.889 52.249 51.779C51.479 51.669 50.399 51.099 49.939 50.449C49.479 49.809 49.409 48.699 49.489 47.889C49.579 47.089 49.989 46.179 50.439 45.639C50.899 45.099 51.869 44.839 52.229 44.639C52.589 44.449 52.539 44.419 52.599 44.449M53.439 44.169C54.159 44.099 54.169 44.819 54.739 45.449C55.319 46.079 56.669 47.159 56.889 47.959C57.099 48.749 56.569 49.649 56.029 50.209C55.479 50.769 54.369 50.999 53.609 51.309C52.849 51.619 52.059 52.219 51.459 52.059C50.869 51.899 50.439 51.069 50.019 50.359C49.609 49.639 48.889 48.619 48.979 47.759C49.059 46.909 49.939 45.839 50.539 45.239C51.129 44.639 52.109 44.179 52.539 44.169C52.959 44.159 52.969 45.039 53.079 45.169" fill="white"/>
<path d="M52.859 44.9291C53.579 44.7891 54.529 44.6191 55.139 45.0791C55.739 45.5291 56.399 46.8091 56.519 47.6491C56.629 48.4991 56.139 49.4391 55.799 50.1191C55.459 50.7991 55.159 51.4391 54.499 51.7291C53.829 52.0191 52.619 52.0591 51.819 51.8491C51.019 51.6391 50.119 51.1191 49.679 50.4691C49.239 49.8191 49.089 48.7791 49.199 47.9691C49.309 47.1591 49.719 46.1491 50.329 45.6291C50.939 45.1091 52.459 44.9791 52.869 44.8591C53.279 44.7291 52.829 44.8491 52.809 44.8791M53.029 44.6491C53.729 44.7991 55.009 45.3191 55.619 45.9091C56.219 46.4991 56.689 47.4891 56.659 48.1791C56.629 48.8691 55.929 49.4791 55.459 50.0391C54.979 50.5991 54.549 51.3291 53.809 51.5291C53.079 51.7291 51.809 51.5491 51.039 51.2591C50.269 50.9691 49.409 50.4691 49.189 49.7691C48.959 49.0791 49.439 47.8191 49.679 47.0691C49.919 46.3091 50.079 45.6591 50.619 45.2591C51.159 44.8591 52.499 44.8191 52.919 44.6691C53.329 44.5191 53.119 44.3291 53.109 44.3591" stroke="#1E1E1E" stroke-linecap="round"/>
<path d="M19.9281 57.783C20.6381 57.743 21.3781 58.093 21.9781 58.503C22.5681 58.913 23.3281 59.573 23.4781 60.253C23.6181 60.933 23.2481 61.863 22.8581 62.573C22.4681 63.273 21.8581 64.163 21.1181 64.493C20.3781 64.813 19.1481 64.803 18.4281 64.513C17.7181 64.223 17.1781 63.433 16.8381 62.743C16.4981 62.053 16.3481 61.093 16.3981 60.363C16.4481 59.633 16.5781 58.903 17.1481 58.373C17.7181 57.853 19.3481 57.393 19.7981 57.233C20.2581 57.063 19.8981 57.313 19.8781 57.383M19.4281 57.433C20.1581 57.553 21.9981 58.203 22.6481 58.773C23.3081 59.333 23.4281 60.153 23.3681 60.823C23.3081 61.483 22.7481 62.073 22.2881 62.783C21.8281 63.483 21.2281 64.703 20.6081 65.043C19.9881 65.383 19.3081 65.153 18.5581 64.803C17.7981 64.453 16.5081 63.723 16.0981 62.933C15.6881 62.143 15.9381 60.933 16.1181 60.063C16.2881 59.193 16.4981 58.073 17.1481 57.733C17.8081 57.383 19.5581 58.013 20.0581 57.973C20.5681 57.933 20.2781 57.593 20.1881 57.513" fill="white"/>
<path d="M19.8881 57.2431C20.6081 57.2031 21.6881 58.0531 22.1981 58.6531C22.7181 59.2531 22.8281 60.0731 22.9581 60.8231C23.0881 61.5731 23.3281 62.5131 22.9781 63.1531C22.6181 63.7931 21.6381 64.4131 20.8481 64.6731C20.0481 64.9331 18.9581 64.9931 18.2181 64.7131C17.4881 64.4331 16.8081 63.7131 16.4581 62.9931C16.1081 62.2831 15.9181 61.1731 16.1081 60.4331C16.2881 59.6831 16.9581 58.9931 17.5781 58.5331C18.1981 58.0731 19.4481 57.8331 19.8281 57.6831C20.2181 57.5331 19.8481 57.5531 19.8781 57.6231M19.2281 57.6931C20.0281 57.5531 21.1281 57.8431 21.7281 58.1531C22.3181 58.4631 22.5581 58.8831 22.7981 59.5531C23.0481 60.2231 23.4481 61.4131 23.1981 62.1631C22.9381 62.9131 22.0181 63.6231 21.2581 64.0631C20.5081 64.4931 19.3481 64.9031 18.6681 64.7731C17.9781 64.6431 17.6481 63.8831 17.1681 63.2731C16.6981 62.6631 15.9081 61.8631 15.8081 61.1131C15.7081 60.3631 16.0581 59.4231 16.5781 58.7731C17.0981 58.1131 18.5681 57.4031 18.9281 57.1831C19.2781 56.9631 18.6181 57.3931 18.7081 57.4631" stroke="#1E1E1E" stroke-linecap="round"/>
<path d="M35.6876 57.597C36.4076 57.497 37.6276 57.697 38.2076 58.127C38.7876 58.557 39.0576 59.387 39.1576 60.177C39.2476 60.967 39.1976 62.187 38.7776 62.887C38.3576 63.587 37.3476 64.197 36.6376 64.397C35.9276 64.607 35.1576 64.427 34.4976 64.117C33.8376 63.807 33.1176 63.167 32.6876 62.527C32.2476 61.887 31.7476 61.037 31.8776 60.267C32.0076 59.497 32.7876 58.417 33.4576 57.907C34.1276 57.397 35.4976 57.307 35.8976 57.197C36.2976 57.077 35.8676 57.067 35.8576 57.217M35.4776 57.697C36.2976 57.557 37.0076 57.697 37.5276 57.997C38.0476 58.297 38.3676 58.687 38.5876 59.477C38.8076 60.267 39.0176 61.907 38.8576 62.757C38.7076 63.597 38.3676 64.207 37.6476 64.537C36.9276 64.877 35.3576 65.017 34.5376 64.767C33.7176 64.527 33.1976 63.797 32.7076 63.077C32.2076 62.357 31.5176 61.127 31.5676 60.467C31.6076 59.797 32.3676 59.607 32.9876 59.087C33.5976 58.577 34.9976 57.697 35.2676 57.357C35.5376 57.027 34.6876 57.017 34.6176 57.087" fill="white"/>
<path d="M36.2276 57.697C36.8876 57.837 37.4376 58.307 37.9676 58.867C38.4876 59.427 39.2976 60.307 39.3676 61.057C39.4376 61.807 38.9276 62.747 38.3976 63.367C37.8576 63.987 36.9176 64.597 36.1476 64.757C35.3876 64.907 34.4676 64.707 33.8076 64.307C33.1476 63.907 32.4476 63.047 32.1976 62.347C31.9476 61.647 32.0676 60.807 32.3076 60.107C32.5576 59.397 33.0376 58.547 33.6776 58.117C34.3176 57.677 35.6876 57.537 36.1476 57.477C36.6176 57.417 36.5376 57.727 36.4776 57.757M35.7576 57.537C36.4276 57.407 37.0076 57.437 37.5876 57.867C38.1776 58.297 39.0976 59.347 39.2576 60.137C39.4076 60.927 38.9776 61.857 38.5076 62.587C38.0476 63.317 37.1176 64.217 36.4676 64.497C35.8176 64.767 35.3476 64.527 34.6276 64.257C33.9176 63.987 32.6876 63.497 32.1976 62.857C31.6976 62.207 31.5076 61.227 31.6576 60.397C31.7976 59.567 32.4876 58.407 33.0676 57.877C33.6576 57.347 34.6876 57.347 35.1476 57.227C35.6176 57.107 35.8676 57.067 35.8576 57.157" stroke="#1E1E1E" stroke-linecap="round"/>
<path d="M48.3598 56.6871C49.0898 56.6571 49.8098 57.1071 50.3098 57.7071C50.8098 58.3071 51.3498 59.4571 51.3598 60.2771C51.3798 61.0871 50.8498 62.0271 50.3998 62.5971C49.9498 63.1671 49.3498 63.5571 48.6498 63.6971C47.9598 63.8371 46.9998 63.7371 46.2498 63.4071C45.4898 63.0871 44.4598 62.4971 44.1398 61.7671C43.8298 61.0471 44.0498 59.8171 44.3398 59.0571C44.6298 58.2871 45.2098 57.5871 45.8598 57.1771C46.5198 56.7671 47.8298 56.5871 48.2498 56.6071C48.6798 56.6271 48.4898 57.2371 48.4198 57.2871M47.6198 56.9071C48.2098 56.7471 48.8898 56.7071 49.4698 57.2471C50.0498 57.7871 50.7998 59.2671 51.0798 60.1471C51.3598 61.0271 51.5498 61.8671 51.1398 62.5071C50.7298 63.1471 49.3998 63.8071 48.6198 63.9971C47.8398 64.1871 47.1798 64.0071 46.4398 63.6471C45.6998 63.2871 44.5398 62.3871 44.1698 61.8471C43.7998 61.2971 43.9898 61.0571 44.2098 60.3571C44.4298 59.6671 45.0098 58.3171 45.4998 57.6571C45.9798 56.9971 46.8098 56.5271 47.1198 56.3971C47.4298 56.2671 47.2298 56.7971 47.3598 56.8671" fill="white"/>
<path d="M46.8598 57.1371C47.5898 56.9771 49.0498 57.1771 49.7498 57.5671C50.4398 57.9571 50.8698 58.7371 51.0398 59.4771C51.2098 60.2171 51.0898 61.2971 50.7898 62.0071C50.4898 62.7171 49.8898 63.4071 49.2398 63.7271C48.5798 64.0471 47.5498 64.0771 46.8398 63.9271C46.1198 63.7771 45.4198 63.4171 44.9598 62.8371C44.4998 62.2571 44.0598 61.2471 44.0598 60.4471C44.0598 59.6471 44.3898 58.5971 44.9598 58.0371C45.5298 57.4671 47.1398 57.2771 47.4898 57.0671C47.8298 56.8471 47.0598 56.6971 47.0298 56.7371M47.5098 56.4671C48.2298 56.3871 49.6198 56.9971 50.1998 57.5471C50.7798 58.0971 50.9898 58.9271 51.0098 59.7471C51.0298 60.5671 50.6498 61.8071 50.3098 62.4671C49.9798 63.1271 49.7098 63.4971 48.9898 63.7171C48.2698 63.9371 46.8098 64.0471 45.9898 63.7771C45.1698 63.5071 44.4198 62.8371 44.0798 62.0871C43.7398 61.3271 43.7898 60.0471 43.9498 59.2671C44.1098 58.4871 44.3498 57.8571 45.0398 57.3971C45.7298 56.9371 47.7098 56.5971 48.0898 56.5071C48.4798 56.4171 47.4198 56.7071 47.3498 56.8571" stroke="#1E1E1E" stroke-linecap="round"/>
<path d="M62.0337 56.4412C62.7437 56.5012 63.8437 57.2012 64.3637 57.8012C64.8837 58.3912 65.0837 59.2812 65.1637 60.0012C65.2437 60.7312 65.2237 61.5612 64.8337 62.1512C64.4437 62.7512 63.6537 63.3512 62.8437 63.5812C62.0337 63.8112 60.6737 63.8712 59.9537 63.5212C59.2437 63.1812 58.8037 62.2412 58.5337 61.5112C58.2737 60.7812 58.1737 59.8812 58.3637 59.1412C58.5537 58.4012 59.0337 57.4312 59.6737 57.0812C60.3237 56.7412 61.8637 57.1612 62.2337 57.0612C62.5937 56.9612 61.8937 56.4312 61.8537 56.4912M61.5737 56.3812C62.2837 56.4512 63.4537 57.5512 64.1237 58.2112C64.7937 58.8812 65.5537 59.6312 65.5737 60.3612C65.6037 61.0912 64.7737 62.0512 64.2737 62.5812C63.7637 63.1212 63.2937 63.4912 62.5437 63.5812C61.7937 63.6612 60.4237 63.3112 59.7637 63.0912C59.0937 62.8812 58.7737 62.9212 58.5537 62.2912C58.3337 61.6612 58.3437 60.2012 58.4537 59.3112C58.5637 58.4212 58.6337 57.3812 59.1937 56.9412C59.7537 56.5012 61.2737 56.7712 61.8037 56.6912C62.3337 56.6112 62.4037 56.4312 62.3637 56.4412" fill="white"/>
<path d="M62.3237 56.9312C63.1037 56.9512 63.8337 57.4512 64.2937 58.0212C64.7537 58.6012 65.0537 59.6012 65.0837 60.3712C65.1037 61.1312 64.8937 62.0412 64.4437 62.6112C64.0037 63.1812 63.1237 63.6212 62.4137 63.8012C61.7037 63.9812 60.8537 64.0312 60.1837 63.7112C59.5137 63.3812 58.7037 62.5912 58.3737 61.8512C58.0437 61.1112 57.9637 59.9912 58.2337 59.2612C58.4937 58.5412 59.3637 57.9412 59.9637 57.5012C60.5637 57.0512 61.4737 56.6712 61.8437 56.5712C62.2237 56.4812 62.1537 56.8112 62.2137 56.9212M61.9637 56.5012C62.7137 56.5112 63.4237 56.8912 63.9037 57.4612C64.3937 58.0412 64.6937 59.1812 64.8737 59.9512C65.0437 60.7312 65.3637 61.4712 64.9637 62.1012C64.5637 62.7412 63.3137 63.5112 62.4737 63.7612C61.6337 64.0212 60.6137 63.9812 59.9237 63.6212C59.2237 63.2512 58.6737 62.2912 58.3137 61.5812C57.9537 60.8712 57.5137 60.0912 57.7637 59.3512C58.0137 58.6112 59.1837 57.5812 59.7937 57.1312C60.3937 56.6812 61.0737 56.6912 61.3937 56.6712C61.7237 56.6612 61.6837 56.8812 61.7637 57.0312" stroke="#1E1E1E" stroke-linecap="round"/>
<path d="M21.1016 59.7562V60.4144H18.4206V59.7562H21.1016Z" fill="#1E1E1E"/>
<path d="M42.1414 42.077V38.1273H42.8116V42.077H42.1414ZM40.5017 40.4373V39.767H44.4513V40.4373H40.5017Z" fill="#1E1E1E"/>
<path d="M36.5984 59.586V60.2443H33.9175V59.586H36.5984Z" fill="#1E1E1E"/>
<path d="M49.0082 59.5358V60.1941H46.3272V59.5358H49.0082Z" fill="#1E1E1E"/>
<path d="M62.7241 58.4808V59.139H60.0431V58.4808H62.7241Z" fill="#1E1E1E"/>
<path d="M29.1546 49.3647C28.9226 49.3647 28.7108 49.3081 28.5191 49.1949C28.3292 49.0817 28.1776 48.9301 28.0644 48.7402C27.9512 48.5485 27.8946 48.3367 27.8946 48.1048C27.8946 47.8729 27.9512 47.6619 28.0644 47.472C28.1776 47.2803 28.3292 47.1278 28.5191 47.0146C28.7108 46.9014 28.9226 46.8448 29.1546 46.8448C29.3865 46.8448 29.5974 46.9014 29.7873 47.0146C29.979 47.1278 30.1315 47.2803 30.2447 47.472C30.3579 47.6619 30.4145 47.8729 30.4145 48.1048C30.4145 48.3367 30.3579 48.5485 30.2447 48.7402C30.1315 48.9301 29.979 49.0817 29.7873 49.1949C29.5974 49.3081 29.3865 49.3647 29.1546 49.3647ZM29.1546 48.8169C29.286 48.8169 29.4056 48.785 29.5134 48.7211C29.6211 48.6571 29.7069 48.5713 29.7708 48.4636C29.8348 48.3558 29.8667 48.2362 29.8667 48.1048C29.8667 47.9733 29.8348 47.8537 29.7708 47.7459C29.7069 47.6382 29.6211 47.5524 29.5134 47.4885C29.4056 47.4246 29.286 47.3926 29.1546 47.3926C29.0231 47.3926 28.9035 47.4246 28.7957 47.4885C28.688 47.5524 28.6022 47.6382 28.5383 47.7459C28.4744 47.8537 28.4424 47.9733 28.4424 48.1048C28.4424 48.2362 28.4744 48.3558 28.5383 48.4636C28.6022 48.5713 28.688 48.6571 28.7957 48.7211C28.9035 48.785 29.0231 48.8169 29.1546 48.8169Z" fill="#1E1E1E"/>
<path d="M53.0483 49.0366C52.8164 49.0366 52.6046 48.9799 52.4128 48.8667C52.2229 48.7535 52.0714 48.602 51.9581 48.412C51.8449 48.2203 51.7883 48.0085 51.7883 47.7766C51.7883 47.5447 51.8449 47.3338 51.9581 47.1439C52.0714 46.9521 52.2229 46.7996 52.4128 46.6864C52.6046 46.5732 52.8164 46.5166 53.0483 46.5166C53.2802 46.5166 53.4911 46.5732 53.681 46.6864C53.8728 46.7996 54.0252 46.9521 54.1384 47.1439C54.2517 47.3338 54.3083 47.5447 54.3083 47.7766C54.3083 48.0085 54.2517 48.2203 54.1384 48.412C54.0252 48.602 53.8728 48.7535 53.681 48.8667C53.4911 48.9799 53.2802 49.0366 53.0483 49.0366ZM53.0483 48.4887C53.1798 48.4887 53.2994 48.4568 53.4071 48.3929C53.5148 48.329 53.6007 48.2431 53.6646 48.1354C53.7285 48.0277 53.7604 47.9081 53.7604 47.7766C53.7604 47.6451 53.7285 47.5255 53.6646 47.4178C53.6007 47.31 53.5148 47.2242 53.4071 47.1603C53.2994 47.0964 53.1798 47.0644 53.0483 47.0644C52.9168 47.0644 52.7972 47.0964 52.6895 47.1603C52.5817 47.2242 52.4959 47.31 52.432 47.4178C52.3681 47.5255 52.3361 47.6451 52.3361 47.7766C52.3361 47.9081 52.3681 48.0277 52.432 48.1354C52.4959 48.2431 52.5817 48.329 52.6895 48.3929C52.7972 48.4568 52.9168 48.4887 53.0483 48.4887Z" fill="#1E1E1E"/>
</svg>
