<svg width="85" height="126" viewBox="0 0 85 126" fill="none" xmlns="http://www.w3.org/2000/svg">
<path d="M22.5901 1.69979C32.4401 -0.610209 51.5501 -0.400209 62.9901 1.69979C77.6901 0.119791 84.1901 11.2598 83.1901 21.8998C81.9301 41.3798 84.0301 60.6898 83.1901 103.45C82.8501 115.39 78.4601 125.87 62.9901 123.65C52.7101 122.77 34.7401 119.54 22.5901 123.65C11.4101 120.88 3.26007 117.97 2.39007 103.45C2.10007 76.9198 2.68007 50.2798 2.39007 21.8998C1.87007 6.55979 8.13007 0.209791 22.5901 1.69979Z" fill="white"/>
<path d="M22.5901 1.69979C35.6401 2.32979 52.7101 3.26979 62.9901 1.69979M22.5901 1.69979C34.6101 2.26979 46.0101 2.06979 62.9901 1.69979M22.5901 1.69979C8.80007 2.59979 1.07007 6.44979 2.39007 21.8998M22.5901 1.69979C7.54007 0.219786 0.270067 7.13979 2.39007 21.8998M62.9901 1.69979C74.6001 2.06979 81.4801 8.74979 83.1901 21.8998M62.9901 1.69979C75.7701 0.479786 82.5501 10.3098 83.1901 21.8998M83.1901 21.8998C83.7901 47.1898 83.3001 76.4198 83.1901 103.45M83.1901 21.8998C82.0601 50.6898 82.7601 77.9398 83.1901 103.45M83.1901 103.45C81.2801 116.06 77.9701 125.14 62.9901 123.65M83.1901 103.45C84.9501 115.25 74.6401 121.75 62.9901 123.65M62.9901 123.65C55.4701 121.88 47.6801 125.35 22.5901 123.65M62.9901 123.65C50.4301 124.69 38.5601 123.02 22.5901 123.65M22.5901 123.65C10.0901 124.07 3.70007 114.96 2.39007 103.45M22.5901 123.65C8.43007 121.96 3.57007 117.35 2.39007 103.45M2.39007 103.45C-0.149933 73.1098 1.71007 42.3498 2.39007 21.8998M2.39007 103.45C2.65007 72.6798 3.32007 40.3398 2.39007 21.8998" stroke="#1E1E1E" stroke-width="2" stroke-linecap="round"/>
<path d="M11.2054 89.9223C22.1954 89.9223 66.1754 89.9223 77.1654 89.9223" stroke="#1E1E1E" stroke-width="2" stroke-linecap="round"/>
<path d="M23.9176 1.58655C32.7976 1.58655 41.6776 1.58655 60.3076 1.58655C62.7876 1.58655 64.0376 2.82655 64.0376 5.31655C64.0376 7.79655 64.0376 10.2765 64.0376 12.7665C64.0376 15.2465 62.7876 16.4865 60.3076 16.4865C49.6076 16.4865 38.9076 16.4865 23.9176 16.4865C21.4276 16.4865 20.1876 15.2465 20.1876 12.7665C20.1876 10.3365 20.1876 7.89655 20.1876 5.31655C20.1876 2.82655 21.4276 1.58655 23.9176 1.58655Z" fill="white"/>
<path d="M23.9176 1.58655C35.5876 1.58655 47.2576 1.58655 60.3076 1.58655M23.9176 1.58655C35.7476 1.58655 47.5776 1.58655 60.3076 1.58655M23.9176 1.58655C21.4276 1.58655 20.1876 2.82655 20.1876 5.31655M60.3076 1.58655C62.7876 1.58655 64.0376 2.82655 64.0376 5.31655M64.0376 5.31655C64.0376 6.92655 64.0376 8.54655 64.0376 12.7665M64.0376 5.31655C64.0376 7.98655 64.0376 10.6665 64.0376 12.7665M64.0376 12.7665C64.0376 15.2465 62.7876 16.4865 60.3076 16.4865M60.3076 16.4865C52.4776 16.4865 44.6476 16.4865 23.9176 16.4865M60.3076 16.4865C46.1476 16.4865 31.9876 16.4865 23.9176 16.4865M23.9176 16.4865C21.4276 16.4865 20.1876 15.2465 20.1876 12.7665M20.1876 12.7665C20.1876 10.6465 20.1876 8.53655 20.1876 5.31655M20.1876 12.7665C20.1876 9.91655 20.1876 7.06655 20.1876 5.31655" stroke="#1E1E1E" stroke-width="2" stroke-linecap="round"/>
<path d="M24.5421 11.1575H23.7354L26.0687 4.80286H26.8631L29.1964 11.1575H28.3897L26.4907 5.80819H26.4411L24.5421 11.1575ZM24.84 8.67524H28.0918V9.35787H24.84V8.67524ZM30.0869 11.1575V6.39153H30.7944V7.11139H30.844C30.9309 6.87558 31.0881 6.68423 31.3157 6.53736C31.5432 6.39049 31.7997 6.31706 32.0852 6.31706C32.139 6.31706 32.2062 6.31809 32.2869 6.32016C32.3675 6.32223 32.4286 6.32533 32.4699 6.32947V7.07416C32.4451 7.06795 32.3882 7.05865 32.2993 7.04623C32.2124 7.03175 32.1203 7.02451 32.0231 7.02451C31.7914 7.02451 31.5846 7.07313 31.4026 7.17035C31.2226 7.2655 31.0799 7.39789 30.9744 7.56752C30.8709 7.73507 30.8192 7.92641 30.8192 8.14155V11.1575H30.0869ZM37.3802 6.39153L35.6178 11.1575H34.8731L33.1107 6.39153H33.905L35.2206 10.1894H35.2703L36.5859 6.39153H37.3802ZM40.1123 11.2568C39.682 11.2568 39.3045 11.1544 38.9798 10.9496C38.6571 10.7449 38.4047 10.4584 38.2227 10.0901C38.0427 9.72194 37.9527 9.29167 37.9527 8.79935C37.9527 8.30289 38.0427 7.86953 38.2227 7.49925C38.4047 7.12898 38.6571 6.84144 38.9798 6.63666C39.3045 6.43187 39.682 6.32947 40.1123 6.32947C40.5426 6.32947 40.919 6.43187 41.2417 6.63666C41.5665 6.84144 41.8189 7.12898 41.9988 7.49925C42.1809 7.86953 42.2719 8.30289 42.2719 8.79935C42.2719 9.29167 42.1809 9.72194 41.9988 10.0901C41.8189 10.4584 41.5665 10.7449 41.2417 10.9496C40.919 11.1544 40.5426 11.2568 40.1123 11.2568ZM40.1123 10.599C40.4391 10.599 40.708 10.5152 40.919 10.3477C41.13 10.1801 41.2862 9.95983 41.3876 9.68677C41.4889 9.41372 41.5396 9.11791 41.5396 8.79935C41.5396 8.48079 41.4889 8.18395 41.3876 7.90883C41.2862 7.63371 41.13 7.41134 40.919 7.24171C40.708 7.07209 40.4391 6.98728 40.1123 6.98728C39.7855 6.98728 39.5165 7.07209 39.3056 7.24171C39.0946 7.41134 38.9384 7.63371 38.837 7.90883C38.7357 8.18395 38.685 8.48079 38.685 8.79935C38.685 9.11791 38.7357 9.41372 38.837 9.68677C38.9384 9.95983 39.0946 10.1801 39.3056 10.3477C39.5165 10.5152 39.7855 10.599 40.1123 10.599ZM43.3897 11.1575V6.39153H44.0972V7.11139H44.1468C44.2337 6.87558 44.3909 6.68423 44.6184 6.53736C44.846 6.39049 45.1025 6.31706 45.3879 6.31706C45.4417 6.31706 45.509 6.31809 45.5896 6.32016C45.6703 6.32223 45.7313 6.32533 45.7727 6.32947V7.07416C45.7479 7.06795 45.691 7.05865 45.602 7.04623C45.5152 7.03175 45.4231 7.02451 45.3259 7.02451C45.0942 7.02451 44.8874 7.07313 44.7053 7.17035C44.5254 7.2655 44.3826 7.39789 44.2771 7.56752C44.1737 7.73507 44.122 7.92641 44.122 8.14155V11.1575H43.3897ZM48.4939 11.2568C48.0347 11.2568 47.6386 11.1555 47.3055 10.9527C46.9745 10.748 46.7191 10.4625 46.5391 10.0964C46.3612 9.72814 46.2723 9.29995 46.2723 8.81176C46.2723 8.32358 46.3612 7.89332 46.5391 7.52097C46.7191 7.14656 46.9694 6.85489 47.29 6.64596C47.6127 6.43497 47.9892 6.32947 48.4194 6.32947C48.6677 6.32947 48.9128 6.37084 49.1548 6.45359C49.3969 6.53633 49.6172 6.67079 49.8157 6.85696C50.0143 7.04106 50.1726 7.28515 50.2905 7.58924C50.4084 7.89332 50.4673 8.26773 50.4673 8.71247V9.02276H46.7935V8.38977H49.7227C49.7227 8.12086 49.6689 7.8809 49.5613 7.66991C49.4558 7.45891 49.3048 7.29239 49.1083 7.17035C48.9138 7.0483 48.6842 6.98728 48.4194 6.98728C48.1278 6.98728 47.8754 7.05968 47.6623 7.20448C47.4514 7.34721 47.289 7.53338 47.1752 7.763C47.0614 7.99261 47.0045 8.23877 47.0045 8.50148V8.92347C47.0045 9.2834 47.0666 9.58852 47.1907 9.83881C47.3169 10.087 47.4917 10.2763 47.7151 10.4066C47.9385 10.5349 48.1981 10.599 48.4939 10.599C48.6863 10.599 48.8601 10.5721 49.0152 10.5183C49.1724 10.4625 49.3079 10.3797 49.4217 10.2701C49.5354 10.1584 49.6234 10.0198 49.6854 9.85433L50.3929 10.0529C50.3184 10.2929 50.1933 10.5039 50.0174 10.6859C49.8416 10.8659 49.6244 11.0065 49.3658 11.1079C49.1072 11.2072 48.8166 11.2568 48.4939 11.2568ZM54.138 11.1575V4.80286H56.3597C56.8024 4.80286 57.1675 4.8794 57.455 5.03247C57.7425 5.18348 57.9566 5.38723 58.0973 5.64374C58.238 5.89817 58.3083 6.18053 58.3083 6.49082C58.3083 6.76387 58.2597 6.98935 58.1624 7.16725C58.0673 7.34514 57.9411 7.48581 57.7839 7.58924C57.6288 7.69266 57.4602 7.7692 57.2781 7.81885V7.8809C57.4726 7.89332 57.6681 7.96158 57.8646 8.08569C58.0611 8.20981 58.2255 8.38771 58.3579 8.61939C58.4903 8.85107 58.5565 9.13446 58.5565 9.46957C58.5565 9.78813 58.4841 10.0746 58.3393 10.3291C58.1945 10.5835 57.9659 10.7852 57.6536 10.9341C57.3412 11.0831 56.9347 11.1575 56.4342 11.1575H54.138ZM54.9075 10.4749H56.4342C56.9368 10.4749 57.2936 10.3777 57.5046 10.1832C57.7177 9.98672 57.8242 9.74883 57.8242 9.46957C57.8242 9.25444 57.7694 9.05586 57.6598 8.87382C57.5501 8.68972 57.394 8.54285 57.1913 8.43321C56.9885 8.32151 56.7486 8.26566 56.4714 8.26566H54.9075V10.4749ZM54.9075 7.59544H56.3349C56.5665 7.59544 56.7755 7.54993 56.9616 7.45891C57.1499 7.3679 57.2988 7.23965 57.4085 7.07416C57.5202 6.90867 57.576 6.71423 57.576 6.49082C57.576 6.21156 57.4788 5.97471 57.2843 5.78026C57.0899 5.58375 56.7817 5.48549 56.3597 5.48549H54.9075V7.59544Z" fill="#1E1E1E"/>
<path d="M40.3542 59.6563C41.5042 60.2463 43.3242 59.0563 47.1242 59.6563C48.7542 59.3963 49.8542 59.8763 48.4442 60.9763C48.5442 61.4663 48.1942 62.5763 48.4442 63.6063C48.3142 63.3763 45.8342 66.3663 47.1242 64.9263C45.9042 65.1963 43.4942 64.9863 40.3542 64.9263C40.0742 65.3963 40.1542 64.1563 39.0342 63.6063C39.2142 62.6863 39.1942 62.4263 39.0342 60.9763C37.6642 58.1463 39.6542 60.3563 40.3542 59.6563Z" fill="white"/>
<path d="M40.3542 59.6563C42.7142 59.4963 44.9742 59.4463 47.1242 59.6563M40.3542 59.6563C42.4742 59.5963 44.6342 59.7463 47.1242 59.6563M40.3542 59.6563C39.7442 59.0463 39.2042 59.4763 39.0342 60.9763M40.3542 59.6563C39.0842 59.9163 38.6042 60.6663 39.0342 60.9763M47.1242 59.6563C48.2042 59.8063 47.7742 60.2363 48.4442 60.9763M47.1242 59.6563C47.3742 59.6263 48.6842 60.4463 48.4442 60.9763M48.4442 60.9763C48.5042 61.6163 48.4142 62.1663 48.4442 63.6063M48.4442 60.9763C48.4842 61.6163 48.4142 62.2863 48.4442 63.6063M48.4442 63.6063C47.8742 64.1563 47.8942 65.2963 47.1242 64.9263M48.4442 63.6063C47.7942 65.2463 48.6842 64.9063 47.1242 64.9263M47.1242 64.9263C45.9042 64.8263 44.1042 65.0163 40.3542 64.9263M47.1242 64.9263C44.9142 64.8163 42.8342 64.9263 40.3542 64.9263M40.3542 64.9263C39.9242 65.4563 39.5642 63.8563 39.0342 63.6063M40.3542 64.9263C39.3542 64.9163 38.6242 65.1563 39.0342 63.6063M39.0342 63.6063C39.1142 63.0163 39.0442 62.2763 39.0342 60.9763M39.0342 63.6063C38.9942 63.0563 39.0042 62.5163 39.0342 60.9763" stroke="#1E1E1E" stroke-linecap="round"/>
<path d="M43.2466 60.1225C43.1666 60.8925 43.0266 63.9925 42.9966 64.7625M43.7566 59.8325C43.7866 60.4725 43.6266 63.2825 43.6166 64.1725" stroke="#1E1E1E" stroke-linecap="round"/>
<path d="M24.03 49.4904C26.89 49.4604 29.72 49.4704 30.8 49.4904C30.73 50.7504 33.52 50.5604 32.12 50.8104C32.08 51.2804 31.81 52.2404 32.12 53.4404C30.38 54.8704 32.35 55.5904 30.8 54.7604C28.75 54.9204 26.68 54.6504 24.03 54.7604C21.97 54.1304 21.77 55.6204 22.71 53.4404C22.51 52.6304 22.72 52.4204 22.71 50.8104C24.63 48.8204 24.76 47.3204 24.03 49.4904Z" fill="white"/>
<path d="M24.03 49.4904C25.6 49.3204 27.13 49.4404 30.8 49.4904M24.03 49.4904C25.74 49.5004 27.26 49.5004 30.8 49.4904M24.03 49.4904C22.81 49.7204 22.34 50.4304 22.71 50.8104M24.03 49.4904C23.75 48.9104 22.37 50.1404 22.71 50.8104M30.8 49.4904C31.13 49.4704 32.33 50.2304 32.12 50.8104M30.8 49.4904C31.25 49.9804 31.61 50.3804 32.12 50.8104M32.12 50.8104C32.08 51.6704 32.18 52.4704 32.12 53.4404M32.12 50.8104C32.08 51.3804 32.11 52.0304 32.12 53.4404M32.12 53.4404C31.55 54.9804 32.27 54.7404 30.8 54.7604M32.12 53.4404C31.43 54.6104 31.27 55.4404 30.8 54.7604M30.8 54.7604C29.08 54.9204 27.04 54.7004 24.03 54.7604M30.8 54.7604C29.34 54.8504 27.82 54.6504 24.03 54.7604M24.03 54.7604C23.04 54.7504 22.35 54.9004 22.71 53.4404M24.03 54.7604C22.69 54.3004 22.54 54.9504 22.71 53.4404M22.71 53.4404C22.62 52.5204 22.75 51.5504 22.71 50.8104M22.71 53.4404C22.73 52.7604 22.73 52.1204 22.71 50.8104" stroke="#1E1E1E" stroke-linecap="round"/>
<path d="M26.8824 50.0067C26.8824 50.7267 26.8924 53.5367 26.8924 54.3467M27.3724 49.7267C27.3524 50.4867 26.6824 53.9367 26.5624 54.6967" stroke="#1E1E1E" stroke-linecap="round"/>
<path d="M39.9981 49.0226C41.6281 49.4526 44.3781 49.2426 46.7681 49.0226C46.2181 46.9626 49.9581 49.3226 48.0881 50.3426C47.8281 51.0726 48.1481 51.7726 48.0881 52.9726C48.8181 52.0626 47.7681 54.8826 46.7681 54.2926C44.1981 54.0626 42.1081 54.7226 39.9981 54.2926C37.0881 55.4726 39.6081 52.4826 38.6781 52.9726C38.9281 52.2626 38.8881 51.5626 38.6781 50.3426C38.1681 47.3526 40.3881 48.5526 39.9981 49.0226Z" fill="white"/>
<path d="M39.9981 49.0226C41.3281 48.9626 43.0881 49.1026 46.7681 49.0226M39.9981 49.0226C42.0881 49.0126 44.3981 49.0726 46.7681 49.0226M39.9981 49.0226C39.6381 48.5126 38.3881 49.6426 38.6781 50.3426M39.9981 49.0226C38.5781 49.2726 39.3281 48.9726 38.6781 50.3426M46.7681 49.0226C47.2681 49.4526 47.6481 49.8526 48.0881 50.3426M46.7681 49.0226C47.6781 48.7526 47.3581 49.1326 48.0881 50.3426M48.0881 50.3426C48.0281 51.2626 48.0181 52.2426 48.0881 52.9726M48.0881 50.3426C48.0481 51.0426 48.1281 51.6626 48.0881 52.9726M48.0881 52.9726C47.4881 54.1026 47.2881 54.8826 46.7681 54.2926M48.0881 52.9726C47.7881 53.2526 48.0181 54.4526 46.7681 54.2926M46.7681 54.2926C44.1281 54.4026 41.8581 54.4326 39.9981 54.2926M46.7681 54.2926C44.1781 54.2626 41.5581 54.3626 39.9981 54.2926M39.9981 54.2926C38.7181 53.8926 38.5281 54.4026 38.6781 52.9726M39.9981 54.2926C39.4581 54.3526 38.1781 53.0926 38.6781 52.9726M38.6781 52.9726C38.6281 52.1626 38.6181 51.5026 38.6781 50.3426M38.6781 52.9726C38.6481 52.4626 38.6481 51.9026 38.6781 50.3426" stroke="#1E1E1E" stroke-linecap="round"/>
<path d="M43.0506 49.7689C43.0606 50.5789 43.1506 53.4189 43.0806 54.1389M43.6506 49.6089C43.6206 50.3189 42.9106 52.7389 42.8506 53.5589" stroke="#1E1E1E" stroke-linecap="round"/>
<path d="M54.8152 48.9738C56.7352 48.2538 60.2652 48.9038 61.5852 48.9738C61.3652 46.8038 64.3452 47.6738 62.9052 50.2938C63.0052 50.9038 62.9252 52.0738 62.9052 52.9238C63.3852 54.9138 62.1452 53.0638 61.5852 54.2438C59.0552 54.6838 58.2152 53.8238 54.8152 54.2438C51.9852 54.4238 54.1952 55.7238 53.4952 52.9238C53.4052 51.9838 53.6452 51.5438 53.4952 50.2938C54.3152 50.7438 55.2752 49.3638 54.8152 48.9738Z" fill="white"/>
<path d="M54.8152 48.9738C56.7052 48.7438 58.5452 48.7838 61.5852 48.9738M54.8152 48.9738C56.7552 49.0338 58.7552 49.0338 61.5852 48.9738M54.8152 48.9738C53.4652 49.1938 54.0652 48.9838 53.4952 50.2938M54.8152 48.9738C53.8652 48.6538 53.4052 49.8838 53.4952 50.2938M61.5852 48.9738C62.4852 48.7338 62.2652 49.1238 62.9052 50.2938M61.5852 48.9738C63.0452 49.5438 63.4952 48.8538 62.9052 50.2938M62.9052 50.2938C62.8552 50.8538 62.9452 51.3838 62.9052 52.9238M62.9052 50.2938C62.8752 51.3538 62.8852 52.4338 62.9052 52.9238M62.9052 52.9238C62.6452 53.2838 62.7852 54.3838 61.5852 54.2438M62.9052 52.9238C63.4052 53.0538 62.2352 53.6838 61.5852 54.2438M61.5852 54.2438C59.3852 54.4338 56.6152 54.2238 54.8152 54.2438M61.5852 54.2438C59.4952 54.1938 57.5152 54.3538 54.8152 54.2438M54.8152 54.2438C54.2352 54.2938 53.0552 53.1438 53.4952 52.9238M54.8152 54.2438C53.8152 54.5838 52.7852 53.3738 53.4952 52.9238M53.4952 52.9238C53.4152 52.3538 53.4252 51.6538 53.4952 50.2938M53.4952 52.9238C53.4852 51.9538 53.5352 50.9138 53.4952 50.2938" stroke="#1E1E1E" stroke-linecap="round"/>
<path d="M57.6176 49.5101C57.5176 50.2501 57.4476 53.2201 57.4876 54.0001M58.0776 49.2401C58.0776 50.0401 58.1976 53.7201 58.1376 54.4501" stroke="#1E1E1E" stroke-linecap="round"/>
<path d="M11.2693 39.3034C12.3093 38.5734 14.5893 38.7134 18.0393 39.3034C19.4693 39.9634 20.1993 40.4734 19.3593 40.6234C19.4193 41.3534 19.3193 41.6334 19.3593 43.2534C18.7393 43.1934 20.2193 42.5434 18.0393 44.5734C14.9993 44.5834 13.5093 45.1734 11.2693 44.5734C9.27929 46.1834 7.77929 43.6234 9.94929 43.2534C10.0393 42.8834 10.1093 42.2134 9.94929 40.6234C7.93929 39.1934 9.47929 37.5034 11.2693 39.3034Z" fill="white"/>
<path d="M11.2693 39.3034C12.6093 39.3934 14.0793 39.1934 18.0393 39.3034M11.2693 39.3034C13.7393 39.2534 16.0993 39.2434 18.0393 39.3034M11.2693 39.3034C10.3293 39.0234 9.8693 40.1534 9.9493 40.6234M11.2693 39.3034C10.5993 38.8234 10.3793 40.2134 9.9493 40.6234M18.0393 39.3034C19.4293 39.8034 19.8693 39.2634 19.3593 40.6234M18.0393 39.3034C18.3193 38.6734 18.6993 39.3634 19.3593 40.6234M19.3593 40.6234C19.4493 41.4434 19.3593 42.0334 19.3593 43.2534M19.3593 40.6234C19.3393 41.4734 19.3793 42.4034 19.3593 43.2534M19.3593 43.2534C19.7993 43.4834 18.7193 44.0834 18.0393 44.5734M19.3593 43.2534C19.7493 44.2734 19.4393 45.1834 18.0393 44.5734M18.0393 44.5734C15.4593 44.4434 13.0893 44.4334 11.2693 44.5734M18.0393 44.5734C16.4593 44.6034 14.7093 44.4734 11.2693 44.5734M11.2693 44.5734C10.2793 44.8734 9.3393 43.7534 9.9493 43.2534M11.2693 44.5734C9.8593 44.0734 10.1393 43.4134 9.9493 43.2534M9.9493 43.2534C10.0193 42.3134 9.9893 41.4234 9.9493 40.6234M9.9493 43.2534C9.9793 42.3634 9.9093 41.5434 9.9493 40.6234" stroke="#1E1E1E" stroke-linecap="round"/>
<path d="M14.5317 39.9196C14.5217 40.7296 14.1217 43.7996 14.0317 44.5696M14.1617 39.6996C14.2917 40.4096 14.6317 43.3596 14.7317 44.0696" stroke="#1E1E1E" stroke-linecap="round"/>
<path d="M26.5297 38.4356C28.0997 38.7156 29.5797 38.7456 33.2997 38.4356C32.3897 38.5556 35.2197 39.3556 34.6197 39.7556C34.5297 40.5456 34.7897 41.3256 34.6197 42.3856C35.7997 44.1956 32.8097 41.7456 33.2997 43.7056C30.8397 44.3156 28.3897 43.5956 26.5297 43.7056C23.5397 44.9756 24.7397 44.0856 25.2097 42.3856C24.9297 41.3656 25.0697 40.2556 25.2097 39.7556C24.8997 39.3056 23.8597 39.2156 26.5297 38.4356Z" fill="white"/>
<path d="M26.5297 38.4356C28.9197 38.2956 31.1597 38.4556 33.2997 38.4356M26.5297 38.4356C28.3997 38.5256 30.1897 38.3656 33.2997 38.4356M26.5297 38.4356C25.8297 38.0156 25.5797 39.2856 25.2097 39.7556M26.5297 38.4356C25.5997 38.0656 24.5097 39.5056 25.2097 39.7556M33.2997 38.4356C33.6597 37.8856 34.0497 38.5456 34.6197 39.7556M33.2997 38.4356C34.0497 38.8656 33.9697 39.6356 34.6197 39.7556M34.6197 39.7556C34.6497 40.7256 34.6997 41.7656 34.6197 42.3856M34.6197 39.7556C34.6497 40.2956 34.6097 40.8856 34.6197 42.3856M34.6197 42.3856C34.9597 43.3856 34.6397 44.2356 33.2997 43.7056M34.6197 42.3856C35.2297 42.5356 34.0597 43.6956 33.2997 43.7056M33.2997 43.7056C31.4997 43.6356 30.1497 43.7856 26.5297 43.7056M33.2997 43.7056C31.1997 43.7356 29.0197 43.6156 26.5297 43.7056M26.5297 43.7056C25.1897 43.2756 25.3797 42.6356 25.2097 42.3856M26.5297 43.7056C25.9597 43.0056 24.7797 43.8356 25.2097 42.3856M25.2097 42.3856C25.2297 41.7956 25.1397 41.1456 25.2097 39.7556M25.2097 42.3856C25.2097 41.7956 25.2097 41.1256 25.2097 39.7556" stroke="#1E1E1E" stroke-linecap="round"/>
<path d="M29.4422 39.1019C29.4522 39.8119 29.5622 42.6419 29.5122 43.3519M29.9722 38.9019C29.9522 39.6419 29.2622 42.9519 29.2422 43.7319" stroke="#1E1E1E" stroke-linecap="round"/>
<path d="M18.3921 30.2192C20.0121 30.2292 23.0521 30.3592 25.1621 30.2192C27.1621 29.8892 25.3021 30.0392 26.4821 31.5392C26.6521 32.3392 26.3221 32.6392 26.4821 34.1692C26.6621 35.7492 27.9621 34.3792 25.1621 35.4892C21.9321 35.8992 19.9721 35.7492 18.3921 35.4892C18.8421 36.8292 17.4621 33.0392 17.0721 34.1692C17.0421 33.4992 16.8521 32.8192 17.0721 31.5392C18.8221 31.6192 19.4921 31.2692 18.3921 30.2192Z" fill="white"/>
<path d="M18.3921 30.2192C19.8921 29.9992 21.4621 30.3892 25.1621 30.2192M18.3921 30.2192C20.8421 30.1392 23.3721 30.1792 25.1621 30.2192M18.3921 30.2192C17.4721 29.8892 16.4621 31.2092 17.0721 31.5392M18.3921 30.2192C16.9221 30.4092 16.3421 31.1492 17.0721 31.5392M25.1621 30.2192C25.9321 30.5992 25.9121 31.3192 26.4821 31.5392M25.1621 30.2192C26.7221 30.1992 25.7921 30.9492 26.4821 31.5392M26.4821 31.5392C26.4221 32.2292 26.5121 32.8892 26.4821 34.1692M26.4821 31.5392C26.5021 32.0792 26.5121 32.6392 26.4821 34.1692M26.4821 34.1692C27.0121 34.4192 25.9321 35.4792 25.1621 35.4892M26.4821 34.1692C26.0721 35.7192 25.5921 35.0292 25.1621 35.4892M25.1621 35.4892C23.3021 35.3492 21.1721 35.4592 18.3921 35.4892M25.1621 35.4892C22.7521 35.3992 20.5221 35.3692 18.3921 35.4892M18.3921 35.4892C17.7821 34.8792 16.7021 35.5492 17.0721 34.1692M18.3921 35.4892C17.1221 35.7492 16.7321 35.2592 17.0721 34.1692M17.0721 34.1692C17.0221 33.1092 17.1121 32.1692 17.0721 31.5392M17.0721 34.1692C17.1021 33.2392 17.0821 32.2392 17.0721 31.5392" stroke="#1E1E1E" stroke-linecap="round"/>
<path d="M21.3078 30.319C21.3178 31.149 21.6578 34.569 21.7378 35.319M21.7778 31.009C21.7678 31.749 21.6178 34.159 21.5978 34.829" stroke="#1E1E1E" stroke-linecap="round"/>
<path d="M31.6736 25.177C34.1136 25.047 35.4037 24.947 38.4437 25.177C38.3837 26.477 37.7336 26.797 39.7636 26.497C39.7736 27.487 39.9936 28.147 39.7636 29.127C41.3836 27.837 38.8137 28.337 38.4437 30.447C36.4837 30.927 33.7536 29.787 31.6736 30.447C30.2436 29.537 28.5536 29.697 30.3536 29.127C30.6036 28.417 30.6336 27.587 30.3536 26.497C28.8536 27.697 32.7636 27.107 31.6736 25.177Z" fill="white"/>
<path d="M31.6736 25.177C33.2236 25.337 34.2736 24.977 38.4436 25.177M31.6736 25.177C33.1236 25.247 34.5236 25.297 38.4436 25.177M31.6736 25.177C30.2836 25.337 29.7136 26.037 30.3536 26.497M31.6736 25.177C31.0436 24.567 30.5736 25.897 30.3536 26.497M38.4436 25.177C39.9136 25.157 39.1636 25.867 39.7636 26.497M38.4436 25.177C38.9136 25.857 39.4636 25.017 39.7636 26.497M39.7636 26.497C39.6836 27.387 39.7036 28.377 39.7636 29.127M39.7636 26.497C39.8036 27.297 39.7636 28.177 39.7636 29.127M39.7636 29.127C39.4036 30.587 38.9336 30.047 38.4436 30.447M39.7636 29.127C39.5936 30.637 39.6636 30.507 38.4436 30.447M38.4436 30.447C36.9636 30.237 35.1436 30.287 31.6736 30.447M38.4436 30.447C36.8936 30.317 35.1936 30.507 31.6736 30.447M31.6736 30.447C30.4536 30.667 30.0636 30.187 30.3536 29.127M31.6736 30.447C31.3936 29.867 31.0036 29.517 30.3536 29.127M30.3536 29.127C30.4036 28.517 30.3136 27.967 30.3536 26.497M30.3536 29.127C30.3136 28.207 30.3436 27.197 30.3536 26.497" stroke="#1E1E1E" stroke-linecap="round"/>
<path d="M35.0961 25.3733C34.9761 26.0433 34.4861 29.1433 34.3661 29.9233M34.8061 26.0133C34.7761 26.6933 34.9761 29.5033 35.0161 30.2233" stroke="#1E1E1E" stroke-linecap="round"/>
<path d="M47.305 25.6845C48.915 26.1445 50.485 26.1045 54.075 25.6845C55.895 24.3145 53.445 26.3045 55.395 27.0045C55.635 27.5845 55.355 28.4645 55.395 29.6345C56.665 30.0445 55.775 32.2845 54.075 30.9545C51.455 30.5745 48.605 30.7745 47.305 30.9545C46.855 29.1545 46.765 32.2645 45.985 29.6345C45.765 29.0045 46.215 28.0845 45.985 27.0045C44.555 23.9745 44.845 26.2045 47.305 25.6845Z" fill="white"/>
<path d="M47.305 25.6845C49.665 25.5045 52.295 25.6645 54.075 25.6845M47.305 25.6845C49.815 25.6545 52.035 25.7045 54.075 25.6845M47.305 25.6845C46.635 25.1545 46.185 26.3645 45.985 27.0045M47.305 25.6845C46.585 26.0645 46.025 26.3245 45.985 27.0045M54.075 25.6845C54.595 26.2745 55.135 25.6045 55.395 27.0045M54.075 25.6845C55.325 25.8445 55.895 25.3745 55.395 27.0045M55.395 27.0045C55.405 27.7745 55.455 28.4945 55.395 29.6345M55.395 27.0045C55.375 27.5845 55.365 28.0545 55.395 29.6345M55.395 29.6345C55.245 31.0645 55.255 31.0045 54.075 30.9545M55.395 29.6345C54.895 29.7545 54.835 31.2945 54.075 30.9545M54.075 30.9545C52.525 30.9945 51.045 31.0245 47.305 30.9545M54.075 30.9545C52.605 31.0045 51.205 31.0045 47.305 30.9545M47.305 30.9545C46.945 30.4445 46.555 30.0845 45.985 29.6345M47.305 30.9545C45.885 31.2045 45.895 30.9845 45.985 29.6345M45.985 29.6345C46.045 28.8945 45.935 28.0245 45.985 27.0045M45.985 29.6345C45.945 28.6545 45.955 27.6345 45.985 27.0045" stroke="#1E1E1E" stroke-linecap="round"/>
<path d="M50.1475 25.9707C50.1575 26.8107 50.2475 30.0707 50.2175 30.9307M50.6375 26.6407C50.6175 27.4107 49.9075 29.7507 49.9075 30.4107" stroke="#1E1E1E" stroke-linecap="round"/>
<path d="M39.5365 34.5096C42.2665 34.0096 43.7165 34.5296 46.3065 34.5096C47.8865 36.4296 46.5165 36.5596 47.6265 35.8296C47.7865 36.2996 47.7265 37.0796 47.6265 38.4596C48.9665 39.7296 45.1765 39.2296 46.3065 39.7796C44.6965 39.1596 43.0565 40.3596 39.5365 39.7796C39.6165 41.7496 39.2665 37.8396 38.2165 38.4596C38.0065 37.1496 37.9865 36.4596 38.2165 35.8296C38.2665 35.2396 36.6665 33.8996 39.5365 34.5096Z" fill="white"/>
<path d="M39.5366 34.5096C41.1166 34.3196 42.6566 34.7096 46.3066 34.5096M39.5366 34.5096C41.4866 34.5996 43.5266 34.4096 46.3066 34.5096M39.5366 34.5096C38.7966 34.8396 38.2466 35.1196 38.2166 35.8296M39.5366 34.5096C38.4466 34.1896 38.1066 34.5496 38.2166 35.8296M46.3066 34.5096C47.5066 34.6496 48.0666 34.2996 47.6266 35.8296M46.3066 34.5096C46.9566 33.9496 48.0166 35.0896 47.6266 35.8296M47.6266 35.8296C47.5466 36.7796 47.6366 37.7196 47.6266 38.4596M47.6266 35.8296C47.6166 36.8796 47.6366 37.8696 47.6266 38.4596M47.6266 38.4596C47.1866 38.6796 47.0766 40.0796 46.3066 39.7796M47.6266 38.4596C46.9166 38.9096 46.6566 39.2796 46.3066 39.7796M46.3066 39.7796C43.8966 39.6596 42.0766 39.6696 39.5366 39.7796M46.3066 39.7796C44.1366 39.6996 41.8766 39.7096 39.5366 39.7796M39.5366 39.7796C38.1866 39.9996 38.1366 39.7496 38.2166 38.4596M39.5366 39.7796C38.5866 39.4496 38.6466 39.8096 38.2166 38.4596M38.2166 38.4596C38.2966 37.5896 38.1766 36.6496 38.2166 35.8296M38.2166 38.4596C38.2366 37.5196 38.2366 36.5096 38.2166 35.8296" stroke="#1E1E1E" stroke-linecap="round"/>
<path d="M42.4923 35.1094C42.5223 35.8394 42.9623 38.6094 42.9223 39.3394M42.9823 34.9894C43.0023 35.7594 42.8123 39.1394 42.8023 39.7794" stroke="#1E1E1E" stroke-linecap="round"/>
<path d="M52.3388 37.7899C54.1988 38.4299 55.2088 38.3299 59.1088 37.7899C57.8188 37.2799 58.3188 39.4999 60.4288 39.1099C60.6188 39.8899 60.1788 40.5099 60.4288 41.7399C59.5188 40.8199 59.6788 43.4899 59.1088 43.0599C57.9388 43.7899 56.4688 42.6099 52.3388 43.0599C53.5388 45.0199 52.9488 41.1899 51.0188 41.7399C51.0488 41.2399 50.7788 40.5799 51.0188 39.1099C52.7688 39.0699 49.3688 37.6099 52.3388 37.7899Z" fill="white"/>
<path d="M52.3388 37.7899C53.7888 37.5699 55.3388 37.6499 59.1088 37.7899M52.3388 37.7899C55.0288 37.8299 57.6788 37.6999 59.1088 37.7899M52.3388 37.7899C51.2788 37.5099 50.9188 37.8799 51.0188 39.1099M52.3388 37.7899C51.8588 38.1099 51.4588 37.5399 51.0188 39.1099M59.1088 37.7899C59.7888 37.2999 60.7688 38.3499 60.4288 39.1099M59.1088 37.7899C60.5088 38.3999 61.0388 37.4999 60.4288 39.1099M60.4288 39.1099C60.5088 39.7999 60.3788 40.5799 60.4288 41.7399M60.4288 39.1099C60.4088 40.0699 60.4288 41.1399 60.4288 41.7399M60.4288 41.7399C59.8188 42.2399 59.5288 42.6299 59.1088 43.0599M60.4288 41.7399C60.6188 41.8999 60.2988 42.3599 59.1088 43.0599M59.1088 43.0599C57.5388 42.9499 55.8688 43.2199 52.3388 43.0599M59.1088 43.0599C57.5188 43.0799 56.0588 43.1099 52.3388 43.0599M52.3388 43.0599C51.3988 42.7799 51.3888 43.0299 51.0188 41.7399M52.3388 43.0599C51.6688 42.5699 50.3188 43.2499 51.0188 41.7399M51.0188 41.7399C51.0788 40.8999 51.0488 40.2199 51.0188 39.1099M51.0188 41.7399C51.0188 40.8599 51.0288 39.9899 51.0188 39.1099" stroke="#1E1E1E" stroke-linecap="round"/>
<path d="M55.1713 38.3762C55.0513 39.1962 55.1213 42.4562 55.1213 43.1462M55.6513 38.1362C55.6313 38.8662 55.9413 41.9062 55.8113 42.6862" stroke="#1E1E1E" stroke-linecap="round"/>
<path d="M68.355 38.6227C70.225 38.3927 72.855 39.0027 75.125 38.6227C75.535 39.4427 77.785 40.4027 76.445 39.9427C76.295 40.5427 76.375 41.6627 76.445 42.5727C74.655 44.2327 77.765 44.8527 75.125 43.8927C73.215 44.5027 70.535 43.3527 68.355 43.8927C65.325 42.3127 67.555 43.5027 67.035 42.5727C67.295 41.8627 66.785 40.9027 67.035 39.9427C67.975 38.8927 69.215 38.1127 68.355 38.6227Z" fill="white"/>
<path d="M68.355 38.6227C69.975 38.5427 71.015 38.7427 75.125 38.6227M68.355 38.6227C70.495 38.5627 72.765 38.6627 75.125 38.6227M68.355 38.6227C67.825 38.8927 67.415 38.4627 67.035 39.9427M68.355 38.6227C67.535 38.8627 66.575 38.4027 67.035 39.9427M75.125 38.6227C76.465 39.1527 76.975 38.4327 76.445 39.9427M75.125 38.6227C75.885 38.6127 76.035 39.7327 76.445 39.9427M76.445 39.9427C76.515 40.6127 76.445 41.1527 76.445 42.5727M76.445 39.9427C76.405 40.4427 76.415 40.9727 76.445 42.5727M76.445 42.5727C76.615 42.8227 76.275 43.2827 75.125 43.8927M76.445 42.5727C76.015 44.0227 75.625 44.1527 75.125 43.8927M75.125 43.8927C73.225 44.1027 71.515 43.7527 68.355 43.8927M75.125 43.8927C72.855 43.8527 70.675 43.9727 68.355 43.8927M68.355 43.8927C67.655 43.4727 66.425 44.0027 67.035 42.5727M68.355 43.8927C67.425 43.5127 66.305 43.9427 67.035 42.5727M67.035 42.5727C67.065 42.0127 66.965 41.4027 67.035 39.9427M67.035 42.5727C67.025 41.6927 67.025 40.8327 67.035 39.9427" stroke="#1E1E1E" stroke-linecap="round"/>
<path d="M71.3675 38.799C71.3975 39.529 71.4675 42.989 71.4975 43.739M71.9475 39.429C71.9575 40.189 71.3875 42.469 71.3075 43.159" stroke="#1E1E1E" stroke-linecap="round"/>
<path d="M60.4064 29.745C62.1264 29.985 64.6164 30.155 67.1764 29.745C68.4464 27.735 67.9464 29.275 68.4964 31.065C68.2564 31.745 68.7264 32.355 68.4964 33.695C70.4764 35.625 66.5564 37.095 67.1764 35.015C63.8364 34.435 62.1164 34.985 60.4064 35.015C59.8164 33.015 58.4764 36.325 59.0864 33.695C59.2364 32.785 59.3464 31.855 59.0864 31.065C59.2864 29.855 58.6564 29.065 60.4064 29.745Z" fill="white"/>
<path d="M60.4064 29.745C62.2164 29.885 63.7264 29.665 67.1764 29.745M60.4064 29.745C62.0164 29.835 63.5664 29.635 67.1764 29.745M60.4064 29.745C59.5764 29.955 58.6864 29.605 59.0864 31.065M60.4064 29.745C60.0764 29.015 59.7364 29.805 59.0864 31.065M67.1764 29.745C67.9464 29.735 68.1364 30.765 68.4964 31.065M67.1764 29.745C67.6064 29.295 68.3264 30.815 68.4964 31.065M68.4964 31.065C68.4064 31.955 68.5364 32.795 68.4964 33.695M68.4964 31.065C68.5064 31.665 68.5064 32.305 68.4964 33.695M68.4964 33.695C68.1264 35.075 67.7264 35.235 67.1764 35.015M68.4964 33.695C68.1564 34.785 68.6564 34.435 67.1764 35.015M67.1764 35.015C64.6464 34.975 62.0964 34.975 60.4064 35.015M67.1764 35.015C65.4664 34.955 63.5864 35.115 60.4064 35.015M60.4064 35.015C59.4864 34.685 58.4464 34.995 59.0864 33.695M60.4064 35.015C58.9364 35.195 59.3064 34.855 59.0864 33.695M59.0864 33.695C59.1164 32.835 59.1364 31.935 59.0864 31.065M59.0864 33.695C59.1164 33.005 59.1164 32.405 59.0864 31.065" stroke="#1E1E1E" stroke-linecap="round"/>
<path d="M63.8921 29.6448C63.8221 30.3548 63.4121 33.4848 63.3721 34.3148M63.5821 30.2348C63.4421 30.9748 63.0521 33.8348 63.0421 34.6348" stroke="#1E1E1E" stroke-linecap="round"/>
<path d="M38.6033 59.4488C36.6433 58.7088 29.1933 55.6088 27.3333 54.9088M39.5233 60.4288C37.4733 59.5688 29.0833 54.9988 27.0433 53.9988" stroke="#1E1E1E" stroke-linecap="round"/>
<path d="M43.4881 59.4841C43.5181 58.5841 43.3681 54.8241 43.3481 53.7641M43.1581 59.2041C43.1681 58.2341 43.1681 54.2641 43.1981 53.2841" stroke="#1E1E1E" stroke-linecap="round"/>
<path d="M48.1554 60.1497C49.7654 59.1697 56.2154 55.0397 57.7554 54.0897M47.8554 59.9797C49.4254 59.0397 56.0654 55.2297 57.6254 54.3697" stroke="#1E1E1E" stroke-linecap="round"/>
<path d="M23.4641 49.8334C21.8641 48.8434 15.4841 45.3334 13.8541 44.5034M23.1741 50.4334C21.5141 49.4734 15.1841 45.9734 13.5541 44.9434" stroke="#1E1E1E" stroke-linecap="round"/>
<path d="M26.9575 50.0688C25.9275 47.7688 22.2275 38.2488 21.2775 35.7288M26.2475 49.5889C25.3575 47.1888 22.9975 37.3788 22.3575 35.0089" stroke="#1E1E1E" stroke-linecap="round"/>
<path d="M31.7702 50.9557C31.3502 49.7557 29.7602 44.6157 29.3902 43.4457M32.3202 50.8057C32.0202 49.6557 30.5902 45.0157 30.0802 43.7857" stroke="#1E1E1E" stroke-linecap="round"/>
<path d="M43.465 48.7352C43.295 47.0752 42.595 40.9352 42.465 39.3152M44.005 49.3952C43.795 47.7952 42.385 40.5052 42.145 38.8452" stroke="#1E1E1E" stroke-linecap="round"/>
<path d="M39.0202 50.0565C38.4702 46.9065 36.2002 33.7565 35.5102 30.3765M39.9602 49.8165C39.3802 46.7965 35.8602 34.3865 35.2102 31.1065" stroke="#1E1E1E" stroke-linecap="round"/>
<path d="M48.0718 49.6565C48.4018 46.4265 49.3318 33.7565 49.6418 30.7365M47.5418 49.1965C48.0418 45.9865 50.3618 34.2565 50.6918 31.1465" stroke="#1E1E1E" stroke-linecap="round"/>
<path d="M57.2972 48.3951C58.2472 46.0751 62.6272 37.3451 63.6172 35.0251M58.1072 49.3051C58.9572 46.8151 62.1172 36.5851 63.1372 34.1851" stroke="#1E1E1E" stroke-linecap="round"/>
<path d="M53.9127 48.9162C54.1027 47.9462 54.7027 43.6662 54.8727 42.6062M53.4627 48.6862C53.7727 47.7962 55.1327 43.9262 55.5027 42.9562" stroke="#1E1E1E" stroke-linecap="round"/>
<path d="M62.0509 49.312C63.4909 48.302 69.3909 44.582 70.9209 43.612M62.5309 49.982C64.0809 48.992 70.1709 44.992 71.5909 43.952" stroke="#1E1E1E" stroke-linecap="round"/>
<path d="M42.6915 58.252C42.8015 61.602 43.1215 75.062 43.2215 78.432M43.5015 59.252C43.5915 62.682 42.9315 75.612 42.8615 78.862" stroke="#1E1E1E" stroke-linecap="round"/>
<path d="M44.1335 78.0725C44.8435 78.0225 45.6135 78.0225 46.0735 78.3925C46.5335 78.7525 46.8835 79.6325 46.8835 80.2625C46.8935 80.8925 46.4935 81.7125 46.0935 82.1725C45.7035 82.6325 45.1735 82.8325 44.5335 83.0325C43.9035 83.2325 42.9435 83.5325 42.3035 83.3725C41.6735 83.2125 41.0135 82.6825 40.7235 82.0625C40.4235 81.4425 40.3335 80.2425 40.5435 79.6725C40.7635 79.1025 41.4035 78.9725 42.0235 78.6425C42.6435 78.3025 43.9835 77.8225 44.2635 77.6725C44.5435 77.5125 43.7335 77.6225 43.6935 77.7025M44.0835 78.0525C44.7635 78.0425 44.8635 78.1525 45.3735 78.5025C45.8835 78.8625 46.8935 79.5925 47.1535 80.1625C47.4035 80.7325 47.2835 81.4425 46.8835 81.9425C46.4835 82.4425 45.5235 82.9825 44.7535 83.1625C43.9735 83.3425 42.8735 83.3125 42.2235 83.0425C41.5635 82.7725 41.1335 81.9725 40.8135 81.5225C40.4835 81.0825 40.1835 80.8825 40.2735 80.3425C40.3635 79.8125 40.8335 78.7125 41.3735 78.3425C41.9135 77.9625 43.0735 78.2225 43.5035 78.1125C43.9335 77.9925 43.9535 77.6025 43.9535 77.6325" fill="white"/>
<path d="M44.1035 77.7025C44.8535 77.7125 45.5735 78.0025 46.0635 78.4825C46.5535 78.9725 47.0335 79.9325 47.0535 80.5925C47.0735 81.2525 46.6135 82.0325 46.1535 82.4425C45.7035 82.8525 44.9735 82.9325 44.3435 83.0425C43.7135 83.1525 42.9635 83.3125 42.3835 83.1025C41.7935 82.9025 41.1835 82.3025 40.8235 81.8025C40.4635 81.3125 40.0635 80.7025 40.2335 80.1425C40.4035 79.5925 41.2835 78.9125 41.8535 78.4825C42.4335 78.0525 43.2935 77.6625 43.6835 77.5725C44.0735 77.4725 44.2035 77.8625 44.2035 77.9125M44.1235 78.0625C44.9035 78.0025 45.7235 77.8925 46.2035 78.3125C46.6835 78.7325 46.9535 79.8725 46.9935 80.5625C47.0335 81.2625 46.8835 82.0825 46.4435 82.4925C46.0035 82.9025 45.1035 82.9725 44.3635 83.0425C43.6235 83.1025 42.6035 83.1825 42.0135 82.8925C41.4335 82.6025 41.0735 81.7625 40.8435 81.2925C40.6235 80.8225 40.5635 80.6325 40.6635 80.0625C40.7635 79.5025 40.8935 78.2425 41.4535 77.9025C42.0135 77.5625 43.5335 78.0725 44.0235 78.0325C44.5135 77.9925 44.3535 77.7525 44.3935 77.6925" stroke="#1E1E1E" stroke-linecap="round"/>
<path d="M11.1626 106.876C11.1526 105.976 11.1326 102.366 11.1226 101.466" stroke="#1E1E1E" stroke-linecap="round"/>
<path d="M11.0906 101.669C11.3406 101.309 12.3506 99.8886 12.6006 99.5286" stroke="#1E1E1E" stroke-linecap="round"/>
<path d="M14.0934 106.94C14.1034 106.04 14.1234 102.43 14.1334 101.53" stroke="#1E1E1E" stroke-linecap="round"/>
<path d="M14.1654 101.733C13.9154 101.373 12.9054 99.9528 12.6554 99.5928" stroke="#1E1E1E" stroke-linecap="round"/>
<path d="M8.95038 107.426C10.1304 107.406 14.8304 107.326 16.0004 107.306" stroke="#1E1E1E" stroke-linecap="round"/>
<path d="M12.8089 107.517C12.8189 108.147 12.8589 110.687 12.8689 111.317" stroke="#1E1E1E" stroke-linecap="round"/>
<path d="M54.2201 102.598C54.5801 102.228 56.0201 100.728 56.3801 100.348" stroke="#1E1E1E" stroke-linecap="round"/>
<path d="M56.3756 100.308C56.7756 100.638 58.3556 101.958 58.7556 102.288" stroke="#1E1E1E" stroke-linecap="round"/>
<path d="M58.8455 102.553C58.1555 103.613 55.4055 107.863 54.7155 108.933" stroke="#1E1E1E" stroke-linecap="round"/>
<path d="M54.2875 102.598C53.9275 102.228 52.4875 100.728 52.1275 100.348" stroke="#1E1E1E" stroke-linecap="round"/>
<path d="M52.132 100.308C51.732 100.638 50.152 101.958 49.752 102.288" stroke="#1E1E1E" stroke-linecap="round"/>
<path d="M49.6621 102.553C50.3521 103.613 53.1021 107.863 53.7921 108.933" stroke="#1E1E1E" stroke-linecap="round"/>
</svg>
