<svg width="84" height="126" viewBox="0 0 84 126" fill="none" xmlns="http://www.w3.org/2000/svg">
<path d="M22.2 2.27779C37.64 -0.572205 51.18 2.80779 62.6 2.27779C79.11 5.86779 85 5.89779 82.8 22.4778C79.83 44.5478 78.36 72.9378 82.8 104.028C84.72 119.268 77.78 124.928 62.6 124.228C51.38 127.288 43.79 122.398 22.2 124.228C7.75 121.898 1.85 120.798 2 104.028C1.48 73.3878 3.72 43.5778 2 22.4778C-0.370002 11.9178 6.99 1.39779 22.2 2.27779Z" fill="white"/>
<path d="M22.2 2.2778C34.13 2.0878 46.66 1.6378 62.6 2.2778M22.2 2.2778C33.19 2.4578 43.89 2.6678 62.6 2.2778M22.2 2.2778C6.83 3.5978 3.79 7.4778 2 22.4778M22.2 2.2778C9.34 2.4278 2.63 9.5578 2 22.4778M62.6 2.2778C76.32 2.8878 84.38 7.4278 82.8 22.4778M62.6 2.2778C76.56 2.1678 84.23 7.0378 82.8 22.4778M82.8 22.4778C80.74 50.6378 81.58 79.1778 82.8 104.028M82.8 22.4778C82.43 54.6378 82.75 86.3078 82.8 104.028M82.8 104.028C80.8 115.488 75.51 123.868 62.6 124.228M82.8 104.028C80.52 117.998 76.81 122.048 62.6 124.228M62.6 124.228C51.67 124.518 38.36 123.998 22.2 124.228M62.6 124.228C51.39 124.848 40.82 123.638 22.2 124.228M22.2 124.228C9.02 124.528 0.309999 117.118 2 104.028M22.2 124.228C8.73 122.308 4.18 115.728 2 104.028M2 104.028C1.74 84.9278 3.83 68.5578 2 22.4778M2 104.028C1.83 87.0878 1.03 69.0878 2 22.4778" stroke="#1E1E1E" stroke-width="2" stroke-linecap="round"/>
<path d="M21.6187 2.9115C35.4787 2.9115 49.3287 2.9115 58.3287 2.9115M21.6187 2.9115C34.7787 2.9115 47.9287 2.9115 58.3287 2.9115M21.6187 2.9115C19.2487 2.9115 18.0687 4.0915 18.0687 6.4615M58.3287 2.9115C60.6887 2.9115 61.8787 4.0915 61.8787 6.4615M61.8787 6.4615C61.8787 8.0015 61.8787 9.5315 61.8787 13.5715M61.8787 6.4615C61.8787 8.6915 61.8787 10.9315 61.8787 13.5715M61.8787 13.5715C61.8787 15.9415 60.6887 17.1215 58.3287 17.1215M58.3287 17.1215C48.8387 17.1215 39.3587 17.1215 21.6187 17.1215M58.3287 17.1215C48.8387 17.1215 39.3487 17.1215 21.6187 17.1215M21.6187 17.1215C19.2487 17.1215 18.0687 15.9415 18.0687 13.5715M18.0687 13.5715C18.0687 10.7915 18.0687 8.0215 18.0687 6.4615M18.0687 13.5715C18.0687 11.2915 18.0687 9.0115 18.0687 6.4615" stroke="#1E1E1E" stroke-width="2" stroke-linecap="round"/>
<path d="M9.97885 90.9341C20.9689 90.9341 64.9489 90.9341 75.9389 90.9341" stroke="#1E1E1E" stroke-width="2" stroke-linecap="round"/>
<path d="M24.1889 11.9308V7.16478H24.8964V7.90947H24.9584C25.0577 7.65504 25.218 7.45749 25.4394 7.31682C25.6607 7.17409 25.9265 7.10273 26.2368 7.10273C26.5512 7.10273 26.8129 7.17409 27.0218 7.31682C27.2328 7.45749 27.3973 7.65504 27.5152 7.90947H27.5648C27.6869 7.66331 27.8699 7.46783 28.114 7.32303C28.3581 7.17616 28.6508 7.10273 28.9921 7.10273C29.4183 7.10273 29.7668 7.23615 30.0378 7.503C30.3088 7.76777 30.4443 8.18045 30.4443 8.74104V11.9308H29.712V8.74104C29.712 8.38938 29.6158 8.13805 29.4234 7.98704C29.2311 7.83604 29.0046 7.76053 28.7439 7.76053C28.4088 7.76053 28.1492 7.86189 27.9651 8.06461C27.781 8.26527 27.6889 8.5197 27.6889 8.82792V11.9308H26.9443V8.66657C26.9443 8.39559 26.8563 8.17735 26.6805 8.01187C26.5047 7.84431 26.2782 7.76053 26.001 7.76053C25.8107 7.76053 25.6328 7.81121 25.4673 7.91257C25.3039 8.01393 25.1715 8.1546 25.0701 8.33456C24.9708 8.51246 24.9212 8.71829 24.9212 8.95203V11.9308H24.1889ZM34.7868 9.98219V7.16478H35.519V11.9308H34.7868V11.124H34.7371C34.6254 11.3661 34.4516 11.5719 34.2158 11.7415C33.98 11.9091 33.6821 11.9928 33.3222 11.9928C33.0243 11.9928 32.7595 11.9277 32.5279 11.7974C32.2962 11.665 32.1141 11.4664 31.9818 11.2016C31.8494 10.9348 31.7832 10.5986 31.7832 10.1932V7.16478H32.5155V10.1435C32.5155 10.4911 32.6127 10.7682 32.8071 10.9751C33.0036 11.182 33.2539 11.2854 33.558 11.2854C33.7401 11.2854 33.9252 11.2388 34.1134 11.1458C34.3037 11.0527 34.463 10.9099 34.5913 10.7176C34.7216 10.5252 34.7868 10.2801 34.7868 9.98219ZM37.5925 5.57612V11.9308H36.8602V5.57612H37.5925ZM41.0064 7.16478V7.78536H38.5366V7.16478H41.0064ZM39.2564 6.02293H39.9887V10.5655C39.9887 10.7724 40.0187 10.9275 40.0787 11.031C40.1407 11.1323 40.2194 11.2006 40.3145 11.2357C40.4117 11.2688 40.5141 11.2854 40.6217 11.2854C40.7024 11.2854 40.7686 11.2813 40.8203 11.273C40.872 11.2626 40.9134 11.2544 40.9444 11.2482L41.0933 11.906C41.0437 11.9246 40.9744 11.9432 40.8854 11.9618C40.7965 11.9825 40.6837 11.9928 40.5472 11.9928C40.3404 11.9928 40.1376 11.9484 39.9391 11.8594C39.7425 11.7705 39.5791 11.635 39.4488 11.4529C39.3206 11.2709 39.2564 11.0413 39.2564 10.7641V6.02293ZM42.108 13.718V7.16478H42.8154V7.92188H42.9023C42.9561 7.83914 43.0305 7.73364 43.1257 7.60539C43.2229 7.47507 43.3615 7.35923 43.5415 7.25787C43.7235 7.15444 43.9697 7.10273 44.28 7.10273C44.6813 7.10273 45.035 7.20305 45.3412 7.4037C45.6473 7.60436 45.8862 7.88879 46.0579 8.25699C46.2296 8.6252 46.3155 9.0596 46.3155 9.5602C46.3155 10.0649 46.2296 10.5024 46.0579 10.8727C45.8862 11.2409 45.6483 11.5264 45.3443 11.7291C45.0402 11.9298 44.6895 12.0301 44.2924 12.0301C43.9862 12.0301 43.7411 11.9794 43.557 11.878C43.3729 11.7746 43.2312 11.6577 43.1319 11.5274C43.0326 11.395 42.9561 11.2854 42.9023 11.1985H42.8402V13.718H42.108ZM42.8278 9.54778C42.8278 9.90772 42.8806 10.2252 42.9861 10.5004C43.0916 10.7734 43.2457 10.9875 43.4484 11.1427C43.6511 11.2957 43.8994 11.3723 44.1931 11.3723C44.4992 11.3723 44.7547 11.2916 44.9595 11.1302C45.1664 10.9668 45.3215 10.7476 45.4249 10.4724C45.5304 10.1952 45.5832 9.88703 45.5832 9.54778C45.5832 9.21268 45.5315 8.91066 45.428 8.64175C45.3267 8.37076 45.1726 8.15667 44.9657 7.99945C44.7609 7.84017 44.5034 7.76053 44.1931 7.76053C43.8952 7.76053 43.6449 7.83604 43.4422 7.98704C43.2395 8.13598 43.0864 8.34491 42.983 8.61382C42.8795 8.88067 42.8278 9.19199 42.8278 9.54778ZM48.1648 5.57612V11.9308H47.4325V5.57612H48.1648ZM51.5042 12.0301C51.045 12.0301 50.6489 11.9287 50.3158 11.726C49.9848 11.5212 49.7294 11.2357 49.5494 10.8696C49.3715 10.5014 49.2826 10.0732 49.2826 9.58502C49.2826 9.09683 49.3715 8.66657 49.5494 8.29423C49.7294 7.91981 49.9797 7.62814 50.3003 7.41922C50.623 7.20822 50.9995 7.10273 51.4298 7.10273C51.678 7.10273 51.9231 7.1441 52.1651 7.22684C52.4072 7.30958 52.6275 7.44404 52.826 7.63021C53.0246 7.81432 53.1829 8.05841 53.3008 8.36249C53.4187 8.66657 53.4776 9.04098 53.4776 9.48573V9.79601H49.8038V9.16303H52.733C52.733 8.89411 52.6792 8.65416 52.5716 8.44316C52.4661 8.23217 52.3151 8.06565 52.1186 7.9436C51.9241 7.82156 51.6945 7.76053 51.4298 7.76053C51.1381 7.76053 50.8857 7.83293 50.6727 7.97773C50.4617 8.12047 50.2993 8.30664 50.1855 8.53625C50.0717 8.76586 50.0148 9.01202 50.0148 9.27473V9.69672C50.0148 10.0567 50.0769 10.3618 50.201 10.6121C50.3272 10.8603 50.502 11.0496 50.7254 11.1799C50.9488 11.3081 51.2084 11.3723 51.5042 11.3723C51.6966 11.3723 51.8704 11.3454 52.0255 11.2916C52.1827 11.2357 52.3182 11.153 52.432 11.0434C52.5457 10.9317 52.6337 10.7931 52.6957 10.6276L53.4032 10.8262C53.3287 11.0661 53.2036 11.2771 53.0277 11.4592C52.8519 11.6391 52.6347 11.7798 52.3761 11.8811C52.1176 11.9804 51.8269 12.0301 51.5042 12.0301ZM55.0097 7.16478L56.1515 9.11338L57.2934 7.16478H58.1374L56.5984 9.54778L58.1374 11.9308H57.2934L56.1515 10.0815L55.0097 11.9308H54.1657L55.6799 9.54778L54.1657 7.16478H55.0097Z" fill="#1E1E1E"/>
<path d="M39.282 26.2836C41.092 25.8536 42.722 26.0636 43.612 26.2836C42.502 23.9736 45.242 28.3836 45.782 28.4436C45.022 29.8736 45.962 32.3036 45.782 34.9436C47.902 34.8136 43.642 36.3936 43.612 37.1036C42.972 36.6136 41.232 36.8536 39.282 37.1036C37.292 37.3336 36.612 34.6636 37.122 34.9436C36.412 32.7636 37.322 29.3236 37.122 28.4436C38.892 29.5536 37.282 27.7036 39.282 26.2836Z" fill="white"/>
<path d="M39.282 26.2836C40.562 26.4736 41.782 26.2936 43.612 26.2836M39.282 26.2836C40.742 26.2936 42.212 26.2036 43.612 26.2836M39.282 26.2836C38.672 26.8236 37.462 27.5436 37.122 28.4436M39.282 26.2836C38.202 27.2536 36.402 27.6436 37.122 28.4436M43.612 26.2836C45.602 25.8036 44.932 26.1636 45.782 28.4436M43.612 26.2836C44.622 25.8036 45.122 28.0836 45.782 28.4436M45.782 28.4436C45.802 30.2936 45.652 31.7136 45.782 34.9436M45.782 28.4436C45.612 29.7836 45.822 30.8936 45.782 34.9436M45.782 34.9436C45.972 35.4336 44.642 38.0836 43.612 37.1036M45.782 34.9436C46.042 37.2836 45.022 36.7836 43.612 37.1036M43.612 37.1036C42.862 37.1436 41.682 37.1336 39.282 37.1036M43.612 37.1036C42.252 37.0036 40.992 37.0136 39.282 37.1036M39.282 37.1036C36.982 36.7336 38.032 36.1036 37.122 34.9436M39.282 37.1036C36.872 37.9836 36.752 35.3236 37.122 34.9436M37.122 34.9436C37.132 32.4836 36.792 30.6836 37.122 28.4436M37.122 34.9436C37.202 33.5236 37.192 32.0536 37.122 28.4436" stroke="#1E1E1E" stroke-linecap="round"/>
<path d="M14.8536 65.7167C16.0936 63.4067 20.8436 54.2067 22.1136 51.7867M14.4536 65.4167C15.6036 62.9267 20.4036 53.2167 21.7236 50.9067" stroke="#1E1E1E" stroke-linecap="round"/>
<path d="M22.5017 51.4827C28.8917 51.3027 54.9017 50.6527 61.3217 50.5727M21.8717 51.0927C28.1917 50.9327 54.6417 50.9627 61.1117 51.0427" stroke="#1E1E1E" stroke-linecap="round"/>
<path d="M61.6361 50.5738C63.0661 52.9138 68.4761 62.8938 69.8861 65.2638M61.1961 51.5338C62.5561 53.9638 68.0561 63.6738 69.5161 65.9538" stroke="#1E1E1E" stroke-linecap="round"/>
<path d="M14.1203 65.9244C23.5403 65.9844 61.8303 65.3744 71.3503 65.3644M12.7903 64.8544C22.0403 65.1044 61.1203 66.0244 70.7903 66.3544" stroke="#1E1E1E" stroke-linecap="round"/>
<path d="M41.2704 50.2442C41.2804 48.0442 41.2504 39.6842 41.0904 37.5242M40.7804 51.1842C40.7404 49.0642 40.7104 40.3442 40.8104 38.0942" stroke="#1E1E1E" stroke-linecap="round"/>
<path d="M24.2643 67.1194C24.1843 68.6194 23.8343 74.4794 23.7743 75.9794M23.9443 67.7994C23.9443 69.3594 24.4643 74.8394 24.4143 76.2794" stroke="#1E1E1E" stroke-linecap="round"/>
<path d="M40.3404 66.797C40.2904 68.297 40.4904 74.337 40.5104 75.937M40.8304 67.417C40.7004 68.977 40.2804 74.897 40.1604 76.317" stroke="#1E1E1E" stroke-linecap="round"/>
<path d="M58.7711 66.5256C58.7811 68.1356 58.6911 74.4656 58.7011 75.9956M59.3411 66.1456C59.5011 67.6856 59.5211 73.8856 59.3911 75.5456" stroke="#1E1E1E" stroke-linecap="round"/>
<path d="M21.8092 73.4314C23.3092 73.1014 25.0892 73.9814 26.1392 73.4314C29.3092 70.9514 26.7092 72.7614 28.3092 75.5914C27.7592 78.0814 27.8992 79.0114 28.3092 82.0914C25.9992 84.4514 28.0692 82.1914 26.1392 84.2514C24.8592 84.3914 23.0392 84.1414 21.8092 84.2514C19.2892 82.7614 17.7892 85.2314 19.6492 82.0914C20.0192 79.0214 19.0692 77.9614 19.6492 75.5914C20.1092 72.3514 22.4592 73.7814 21.8092 73.4314Z" fill="white"/>
<path d="M21.8092 73.4314C23.1492 73.3914 24.1092 73.4014 26.1392 73.4314M21.8092 73.4314C23.0292 73.3314 24.4192 73.4214 26.1392 73.4314M21.8092 73.4314C20.8492 73.6314 20.1792 74.6414 19.6492 75.5914M21.8092 73.4314C20.5692 72.5014 18.5692 73.0014 19.6492 75.5914M26.1392 73.4314C26.5892 73.6514 28.6292 73.2114 28.3092 75.5914M26.1392 73.4314C27.8092 72.3414 27.8292 75.2814 28.3092 75.5914M28.3092 75.5914C28.2392 77.4014 28.1992 79.7214 28.3092 82.0914M28.3092 75.5914C28.3392 78.0814 28.1692 80.4914 28.3092 82.0914M28.3092 82.0914C28.2992 82.6914 28.5292 83.4814 26.1392 84.2514M28.3092 82.0914C27.3092 83.1014 28.6292 83.9314 26.1392 84.2514M26.1392 84.2514C25.0092 84.3514 24.3192 84.2914 21.8092 84.2514M26.1392 84.2514C24.9192 84.1414 23.4092 84.3014 21.8092 84.2514M21.8092 84.2514C20.6492 84.4914 19.9092 83.5914 19.6492 82.0914M21.8092 84.2514C20.7592 84.8714 20.5992 84.1514 19.6492 82.0914M19.6492 82.0914C19.9092 80.8714 19.8292 78.7214 19.6492 75.5914M19.6492 82.0914C19.5992 79.8914 19.5292 77.9814 19.6492 75.5914" stroke="#1E1E1E" stroke-linecap="round"/>
<path d="M38.2208 74.232C39.2608 74.782 40.7207 73.732 42.5507 74.232C42.4007 72.842 44.1607 75.182 44.7207 76.392C44.2507 78.012 43.9107 80.332 44.7207 82.892C45.2007 82.272 45.7607 87.602 42.5507 85.052C41.4307 84.972 39.9108 84.742 38.2208 85.052C34.9208 86.752 37.4907 84.442 36.0608 82.892C35.4508 80.982 36.1708 77.532 36.0608 76.392C38.1507 75.302 38.5908 75.972 38.2208 74.232Z" fill="white"/>
<path d="M38.2207 74.232C39.3107 74.202 40.3407 74.272 42.5507 74.232M38.2207 74.232C39.3207 74.232 40.3707 74.282 42.5507 74.232M38.2207 74.232C35.8407 73.232 36.5307 75.152 36.0607 76.392M38.2207 74.232C37.7207 73.532 36.2607 74.022 36.0607 76.392M42.5507 74.232C44.3207 73.282 44.9107 74.012 44.7207 76.392M42.5507 74.232C43.5207 75.362 44.9807 75.852 44.7207 76.392M44.7207 76.392C44.5707 78.252 44.9607 80.322 44.7207 82.892M44.7207 76.392C44.5807 78.042 44.7207 79.612 44.7207 82.892M44.7207 82.892C45.6607 83.562 43.1307 84.682 42.5507 85.052M44.7207 82.892C45.7607 84.012 43.0207 85.932 42.5507 85.052M42.5507 85.052C41.4407 85.112 40.2407 84.942 38.2207 85.052M42.5507 85.052C41.5807 85.102 40.8407 85.062 38.2207 85.052M38.2207 85.052C37.0407 85.112 36.4007 84.872 36.0607 82.892M38.2207 85.052C37.7307 85.672 35.3407 84.972 36.0607 82.892M36.0607 82.892C36.2307 80.452 36.0807 78.312 36.0607 76.392M36.0607 82.892C35.9307 80.932 36.1607 79.122 36.0607 76.392" stroke="#1E1E1E" stroke-linecap="round"/>
<path d="M56.7337 74.232C58.1337 73.642 58.4337 73.882 61.0637 74.232C61.9537 74.462 62.7237 73.242 63.2337 76.392C62.4437 79.162 63.3437 80.672 63.2337 82.892C65.0037 86.882 61.9437 86.472 61.0637 85.052C59.4137 84.722 57.8337 85.412 56.7337 85.052C56.7237 85.162 56.3337 85.462 54.5737 82.892C54.7737 80.942 55.3137 80.272 54.5737 76.392C56.3837 76.692 53.6137 75.402 56.7337 74.232Z" fill="white"/>
<path d="M56.7337 74.232C57.9437 74.262 59.0437 74.022 61.0637 74.232M56.7337 74.232C57.4937 74.262 58.5037 74.132 61.0637 74.232M56.7337 74.232C55.4637 73.422 53.6337 73.952 54.5737 76.392M56.7337 74.232C54.6737 73.922 55.5137 74.262 54.5737 76.392M61.0637 74.232C62.7037 73.292 62.8137 75.942 63.2337 76.392M61.0637 74.232C62.7737 75.132 63.1937 74.632 63.2337 76.392M63.2337 76.392C63.4737 77.842 63.0837 79.202 63.2337 82.892M63.2337 76.392C63.2037 78.302 63.3537 80.362 63.2337 82.892M63.2337 82.892C62.3637 83.962 63.4137 84.772 61.0637 85.052M63.2337 82.892C62.2637 85.212 62.1437 83.992 61.0637 85.052M61.0637 85.052C59.5537 84.932 57.8137 85.252 56.7337 85.052M61.0637 85.052C60.1237 85.092 59.1637 85.072 56.7337 85.052M56.7337 85.052C55.6337 85.592 55.4037 84.872 54.5737 82.892M56.7337 85.052C54.5737 85.692 54.9337 85.302 54.5737 82.892M54.5737 82.892C54.6037 80.022 54.5437 77.542 54.5737 76.392M54.5737 82.892C54.6937 81.652 54.6837 80.302 54.5737 76.392" stroke="#1E1E1E" stroke-linecap="round"/>
</svg>
