<svg width="86" height="126" viewBox="0 0 86 126" fill="none" xmlns="http://www.w3.org/2000/svg">
<path d="M23.1441 1.79141C36.0641 2.75141 46.1841 1.09141 63.5441 1.79141C77.9141 -0.858589 83.8941 5.18141 83.7441 21.9914C81.4141 46.0514 81.4941 76.8514 83.7441 103.541C84.8341 117.801 73.4141 124.501 63.5441 123.741C56.4141 121.921 48.3141 121.581 23.1441 123.741C11.8041 123.861 1.65411 113.571 2.94411 103.541C4.58411 79.9614 -1.00589 58.6314 2.94411 21.9914C-0.145894 6.75141 9.07411 3.82141 23.1441 1.79141Z" fill="white"/>
<path d="M23.1441 1.79141C36.4041 2.71141 52.0841 -0.208594 63.5441 1.79141M23.1441 1.79141C32.5341 2.15141 43.0441 1.36141 63.5441 1.79141M23.1441 1.79141C8.33411 1.49141 1.06411 9.39141 2.94411 21.9914M23.1441 1.79141C8.45411 -0.198594 4.45411 10.5014 2.94411 21.9914M63.5441 1.79141C75.3741 3.20141 84.2741 7.51141 83.7441 21.9914M63.5441 1.79141C77.2541 0.041406 82.1141 9.67141 83.7441 21.9914M83.7441 21.9914C82.9841 39.1214 82.2641 54.5014 83.7441 103.541M83.7441 21.9914C84.6041 39.3914 83.8941 56.8114 83.7441 103.541M83.7441 103.541C84.1241 116.051 75.3041 123.471 63.5441 123.741M83.7441 103.541C82.1141 116.361 78.3141 123.211 63.5441 123.741M63.5441 123.741C51.6141 123.101 36.9741 124.121 23.1441 123.741M63.5441 123.741C50.0041 124.551 38.1441 124.451 23.1441 123.741M23.1441 123.741C10.1441 121.921 0.954111 117.041 2.94411 103.541M23.1441 123.741C10.2041 123.771 4.73411 116.541 2.94411 103.541M2.94411 103.541C2.43411 74.5214 3.30411 41.0014 2.94411 21.9914M2.94411 103.541C1.61411 77.3514 1.66411 52.0414 2.94411 21.9914" stroke="#1E1E1E" stroke-width="2" stroke-linecap="round"/>
<path d="M11.7594 90.014C22.7494 90.014 66.7294 90.014 77.7194 90.014" stroke="#1E1E1E" stroke-width="2" stroke-linecap="round"/>
<path d="M24.4716 1.67822C36.8516 1.67822 49.2316 1.67822 60.8616 1.67822C63.3416 1.67822 64.5916 2.91822 64.5916 5.40822C64.5916 7.24822 64.5916 9.08822 64.5916 12.8582C64.5916 15.3382 63.3416 16.5782 60.8616 16.5782C52.0116 16.5782 43.1616 16.5782 24.4716 16.5782C21.9816 16.5782 20.7416 15.3382 20.7416 12.8582C20.7416 11.1582 20.7416 9.45822 20.7416 5.40822C20.7416 2.91822 21.9816 1.67822 24.4716 1.67822Z" fill="white"/>
<path d="M24.4716 1.67822C37.1616 1.67822 49.8616 1.67822 60.8616 1.67822M24.4716 1.67822C38.0716 1.67822 51.6716 1.67822 60.8616 1.67822M24.4716 1.67822C21.9816 1.67822 20.7416 2.91822 20.7416 5.40822M60.8616 1.67822C63.3416 1.67822 64.5916 2.91822 64.5916 5.40822M64.5916 5.40822C64.5916 7.66822 64.5916 9.93822 64.5916 12.8582M64.5916 5.40822C64.5916 7.75822 64.5916 10.1082 64.5916 12.8582M64.5916 12.8582C64.5916 15.3382 63.3416 16.5782 60.8616 16.5782M60.8616 16.5782C51.7716 16.5782 42.6716 16.5782 24.4716 16.5782M60.8616 16.5782C47.5316 16.5782 34.2116 16.5782 24.4716 16.5782M24.4716 16.5782C21.9816 16.5782 20.7416 15.3382 20.7416 12.8582M20.7416 12.8582C20.7416 9.93822 20.7416 7.01822 20.7416 5.40822M20.7416 12.8582C20.7416 11.0582 20.7416 9.25822 20.7416 5.40822" stroke="#1E1E1E" stroke-width="2" stroke-linecap="round"/>
<path d="M32.4626 12.6368H30.5016V6.28211H32.5495C33.166 6.28211 33.6934 6.40933 34.132 6.66376C34.5705 6.91613 34.9067 7.27916 35.1404 7.75287C35.3742 8.2245 35.491 8.78923 35.491 9.44703C35.491 10.109 35.3731 10.6789 35.1373 11.1567C34.9015 11.6325 34.5581 11.9986 34.1072 12.2551C33.6562 12.5096 33.108 12.6368 32.4626 12.6368ZM31.2711 11.9541H32.413C32.9384 11.9541 33.3738 11.8528 33.7193 11.6501C34.0648 11.4473 34.3223 11.1588 34.4919 10.7844C34.6615 10.41 34.7463 9.96418 34.7463 9.44703C34.7463 8.93403 34.6626 8.49238 34.495 8.12211C34.3275 7.74976 34.0772 7.4643 33.7441 7.26572C33.4111 7.06507 32.9963 6.96474 32.4999 6.96474H31.2711V11.9541ZM38.7428 12.6368H36.7818V6.28211H38.8297C39.4462 6.28211 39.9736 6.40933 40.4122 6.66376C40.8507 6.91613 41.1869 7.27916 41.4206 7.75287C41.6544 8.2245 41.7712 8.78923 41.7712 9.44703C41.7712 10.109 41.6533 10.6789 41.4175 11.1567C41.1817 11.6325 40.8383 11.9986 40.3874 12.2551C39.9364 12.5096 39.3882 12.6368 38.7428 12.6368ZM37.5513 11.9541H38.6932C39.2186 11.9541 39.654 11.8528 39.9995 11.6501C40.345 11.4473 40.6025 11.1588 40.7721 10.7844C40.9417 10.41 41.0266 9.96418 41.0266 9.44703C41.0266 8.93403 40.9428 8.49238 40.7752 8.12211C40.6077 7.74976 40.3574 7.4643 40.0243 7.26572C39.6913 7.06507 39.2765 6.96474 38.7801 6.96474H37.5513V11.9541ZM48.4238 9.45944C48.4238 10.1297 48.3028 10.7089 48.0607 11.197C47.8187 11.6852 47.4867 12.0617 47.0647 12.3265C46.6427 12.5913 46.1608 12.7237 45.6188 12.7237C45.0768 12.7237 44.5948 12.5913 44.1729 12.3265C43.7509 12.0617 43.4189 11.6852 43.1768 11.197C42.9348 10.7089 42.8138 10.1297 42.8138 9.45944C42.8138 8.78923 42.9348 8.21002 43.1768 7.72184C43.4189 7.23366 43.7509 6.85717 44.1729 6.5924C44.5948 6.32762 45.0768 6.19523 45.6188 6.19523C46.1608 6.19523 46.6427 6.32762 47.0647 6.5924C47.4867 6.85717 47.8187 7.23366 48.0607 7.72184C48.3028 8.21002 48.4238 8.78923 48.4238 9.45944ZM47.6791 9.45944C47.6791 8.9092 47.587 8.44481 47.4029 8.06626C47.2209 7.68771 46.9737 7.40121 46.6614 7.20676C46.3511 7.01232 46.0035 6.91509 45.6188 6.91509C45.234 6.91509 44.8855 7.01232 44.5731 7.20676C44.2628 7.40121 44.0156 7.68771 43.8315 8.06626C43.6495 8.44481 43.5585 8.9092 43.5585 9.45944C43.5585 10.0097 43.6495 10.4741 43.8315 10.8526C44.0156 11.2312 44.2628 11.5177 44.5731 11.7121C44.8855 11.9066 45.234 12.0038 45.6188 12.0038C46.0035 12.0038 46.3511 11.9066 46.6614 11.7121C46.9737 11.5177 47.2209 11.2312 47.4029 10.8526C47.587 10.4741 47.6791 10.0097 47.6791 9.45944ZM53.1929 7.87078C53.1557 7.55635 53.0046 7.31226 52.7399 7.1385C52.4751 6.96474 52.1503 6.87786 51.7656 6.87786C51.4842 6.87786 51.2381 6.92337 51.0271 7.01439C50.8182 7.1054 50.6547 7.23055 50.5368 7.38983C50.421 7.54911 50.3631 7.73011 50.3631 7.93283C50.3631 8.10246 50.4034 8.24829 50.4841 8.37034C50.5668 8.49032 50.6723 8.59064 50.8006 8.67132C50.9288 8.74992 51.0633 8.81508 51.204 8.8668C51.3446 8.91644 51.4739 8.95678 51.5918 8.98781L52.2372 9.16157C52.4027 9.20501 52.5868 9.265 52.7895 9.34154C52.9943 9.41807 53.1898 9.52254 53.376 9.65493C53.5642 9.78525 53.7193 9.9528 53.8414 10.1576C53.9634 10.3624 54.0245 10.6137 54.0245 10.9116C54.0245 11.255 53.9345 11.5653 53.7545 11.8424C53.5766 12.1196 53.316 12.3399 52.9726 12.5034C52.6313 12.6668 52.2165 12.7485 51.7283 12.7485C51.2732 12.7485 50.8792 12.675 50.5461 12.5282C50.2152 12.3813 49.9545 12.1765 49.7642 11.9138C49.576 11.6511 49.4694 11.346 49.4446 10.9985H50.239C50.2596 11.2384 50.3403 11.437 50.481 11.5942C50.6237 11.7494 50.8037 11.8652 51.0209 11.9417C51.2402 12.0162 51.476 12.0534 51.7283 12.0534C52.0221 12.0534 52.2858 12.0059 52.5196 11.9107C52.7533 11.8135 52.9385 11.679 53.075 11.5073C53.2115 11.3336 53.2798 11.1309 53.2798 10.8992C53.2798 10.6882 53.2208 10.5165 53.1029 10.3841C52.985 10.2517 52.8299 10.1441 52.6375 10.0614C52.4451 9.97866 52.2372 9.90626 52.0138 9.8442L51.2319 9.62079C50.7354 9.47806 50.3424 9.27431 50.0528 9.00953C49.7632 8.74475 49.6184 8.39826 49.6184 7.97007C49.6184 7.61427 49.7146 7.30399 49.907 7.03921C50.1014 6.77236 50.362 6.5655 50.6889 6.41864C51.0178 6.2697 51.385 6.19523 51.7904 6.19523C52.2 6.19523 52.564 6.26866 52.8826 6.41553C53.2012 6.56033 53.4535 6.75892 53.6397 7.01128C53.8279 7.26365 53.9272 7.55015 53.9376 7.87078H53.1929Z" fill="#1E1E1E"/>
<path d="M42.5032 27.9346C43.8632 27.3946 45.0732 27.7946 47.9232 27.9346C48.1632 27.2146 52.4632 29.5246 50.3432 30.3446C49.7632 31.8846 50.4832 33.7446 50.3432 35.1746C48.8632 38.4646 47.8132 39.1346 47.9232 37.5946C45.9832 38.0546 45.1632 38.0646 42.5032 37.5946C39.0132 35.5446 37.9432 34.5546 40.0932 35.1746C39.5732 34.5946 40.6632 32.7446 40.0932 30.3446C37.7432 29.7146 39.5032 30.2546 42.5032 27.9346Z" fill="white"/>
<path d="M42.5032 27.9346C44.0532 27.8446 45.1832 27.7346 47.9232 27.9346M42.5032 27.9346C44.5332 27.8446 46.4232 28.0146 47.9232 27.9346M42.5032 27.9346C41.5732 27.9246 40.3032 29.0246 40.0932 30.3446M42.5032 27.9346C40.8332 28.2246 40.5532 27.8146 40.0932 30.3446M47.9232 27.9346C48.6232 27.5246 50.1332 28.5246 50.3432 30.3446M47.9232 27.9346C49.5832 27.2746 49.4232 27.7246 50.3432 30.3446M50.3432 30.3446C50.3732 32.0346 50.4232 33.9546 50.3432 35.1746M50.3432 30.3446C50.2332 31.5346 50.3932 32.7546 50.3432 35.1746M50.3432 35.1746C50.7132 36.9846 50.4332 38.4246 47.9232 37.5946M50.3432 35.1746C49.7632 37.1546 49.5532 37.8846 47.9232 37.5946M47.9232 37.5946C46.9632 37.8246 45.8032 37.6446 42.5032 37.5946M47.9232 37.5946C46.8232 37.5946 45.7632 37.5646 42.5032 37.5946M42.5032 37.5946C41.6832 37.9146 40.0432 36.6646 40.0932 35.1746M42.5032 37.5946C41.9532 37.9446 39.6132 36.9446 40.0932 35.1746M40.0932 35.1746C39.9332 33.2846 40.0032 31.6046 40.0932 30.3446M40.0932 35.1746C40.1932 33.6246 40.0432 31.7546 40.0932 30.3446" stroke="#1E1E1E" stroke-linecap="round"/>
<path d="M39.509 31.5156C37.439 34.3056 27.439 42.2956 26.889 48.7056C26.339 55.1056 34.659 66.4156 36.189 69.9256M40.389 31.0256C38.519 33.6256 28.639 41.3756 27.889 47.9356C27.149 54.4956 34.529 66.6956 35.919 70.3856" stroke="#1E1E1E" stroke-linecap="round"/>
<path d="M39.5943 36.5717C39.0243 38.8017 36.3643 44.6017 36.3843 49.5717C36.4143 54.5417 39.2543 63.4717 39.7443 66.3917M40.3643 36.2917C39.7543 38.6017 36.1843 45.0517 36.0343 50.1317C35.8743 55.2117 38.8943 64.1217 39.4243 66.7717" stroke="#1E1E1E" stroke-linecap="round"/>
<path d="M41.5456 37.9007C41.9056 42.0107 42.9456 58.8707 43.1356 63.2007M40.9556 38.9507C41.2856 43.0807 42.2556 59.6807 42.7356 63.6807" stroke="#1E1E1E" stroke-linecap="round"/>
<path fill-rule="evenodd" clip-rule="evenodd" d="M36.6775 68.1816L36.4805 71.32L34.9201 69.9605L37.1013 68.2172" fill="#1E1E1E"/>
<path d="M36.5055 68.4201C36.7786 69.4485 36.8471 70.5531 37.0147 71.5226M36.5055 68.4201C36.6524 69.2434 36.8315 70.043 37.0147 71.5226M36.5055 68.4201C35.7169 68.9513 34.9236 69.5605 34.1735 70.026M36.5055 68.4201C35.6406 68.9826 34.9244 69.4605 34.1735 70.026M37.0147 71.5226C35.9831 71.0157 34.8781 70.4261 34.1735 70.026M37.0147 71.5226C36.3381 71.1267 35.567 70.7881 34.1735 70.026" stroke="#1E1E1E" stroke-linecap="round"/>
<path fill-rule="evenodd" clip-rule="evenodd" d="M39.962 65.709L41.6301 69.013L38.7011 67.2688L40.846 65.3372" fill="#1E1E1E"/>
<path d="M40.4883 65.9314C40.6151 67.0064 40.7759 67.8646 40.8816 69.0507M40.4883 65.9314C40.6521 66.8119 40.6799 67.6881 40.8816 69.0507M40.4883 65.9314C39.9903 66.355 39.0052 66.8804 38.0981 67.4493M40.4883 65.9314C39.7251 66.463 38.8504 66.9373 38.0981 67.4493M40.8816 69.0507C39.9168 68.5219 39.1383 68.0357 38.0981 67.4493M40.8816 69.0507C40.073 68.6092 39.2723 68.1259 38.0981 67.4493" stroke="#1E1E1E" stroke-linecap="round"/>
<path fill-rule="evenodd" clip-rule="evenodd" d="M44.8096 63.3488L43.4039 65.9841L41.9515 62.6488L44.6125 63.0636" fill="#1E1E1E"/>
<path d="M44.1602 62.9746C43.8965 63.6413 43.5616 64.2597 42.7994 65.8089M44.1602 62.9746C43.787 63.664 43.4736 64.3419 42.7994 65.8089M44.1602 62.9746C42.7104 63.0003 42.0113 63.0474 41.3288 62.9542M44.1602 62.9746C43.4497 62.9621 42.3603 62.9989 41.3288 62.9542M42.7994 65.8089C42.4633 65.157 42.0547 64.4068 41.3288 62.9542M42.7994 65.8089C42.3699 65.0192 41.9499 64.2093 41.3288 62.9542" stroke="#1E1E1E" stroke-linecap="round"/>
<path d="M50.4028 30.4027C52.3928 33.2727 61.5428 41.0327 61.9328 47.5027C62.3228 53.9727 54.1628 65.5327 52.7628 69.2227M51.3528 29.8727C53.3028 32.8227 61.0928 41.4227 61.5128 48.0327C61.9328 54.6527 55.1328 65.8927 53.8528 69.5627" stroke="#1E1E1E" stroke-linecap="round"/>
<path d="M50.275 36.0399C50.685 38.1399 52.625 43.8299 52.575 48.8599C52.515 53.8999 50.415 63.2999 49.945 66.2199M49.625 37.0599C50.205 39.2299 53.555 44.3599 53.575 49.3099C53.605 54.2699 50.405 63.8399 49.795 66.7699" stroke="#1E1E1E" stroke-linecap="round"/>
<path d="M47.4156 37.1919C47.3256 41.5219 47.3856 58.9319 47.3356 63.3119M48.1956 38.1319C48.0656 42.5719 47.3156 59.6319 47.0956 63.9619" stroke="#1E1E1E" stroke-linecap="round"/>
<path fill-rule="evenodd" clip-rule="evenodd" d="M52.7296 67.2014L52.1803 71.6903L55.0777 69.2912L52.3775 67.6624" fill="#1E1E1E"/>
<path d="M52.7458 67.9213C52.6594 68.578 52.4837 69.3056 52.2365 71.0238M52.7458 67.9213C52.607 68.9865 52.422 70.0301 52.2365 71.0238M52.7458 67.9213C53.2606 68.2508 54.1794 69.0269 55.0777 69.5272M52.7458 67.9213C53.6734 68.5673 54.3552 69.0074 55.0777 69.5272M52.2365 71.0238C53.2932 70.3986 54.1613 69.9451 55.0777 69.5272M52.2365 71.0238C53.2284 70.5372 54.1639 70.0091 55.0777 69.5272" stroke="#1E1E1E" stroke-linecap="round"/>
<path fill-rule="evenodd" clip-rule="evenodd" d="M48.726 66.109L48.3608 68.3161L50.7672 66.6999L48.2415 65.7188" fill="#1E1E1E"/>
<path d="M48.763 65.4326C48.5825 66.6041 48.4584 67.6929 48.3697 68.5519M48.763 65.4326C48.6803 66.2472 48.5261 66.9891 48.3697 68.5519M48.763 65.4326C49.6515 65.9043 50.3926 66.4329 51.1531 66.9505M48.763 65.4326C49.7831 66.0664 50.4832 66.5308 51.1531 66.9505M48.3697 68.5519C49.2071 67.9969 50.2191 67.4519 51.1531 66.9505M48.3697 68.5519C49.3179 68.0118 50.1692 67.4542 51.1531 66.9505" stroke="#1E1E1E" stroke-linecap="round"/>
<path fill-rule="evenodd" clip-rule="evenodd" d="M44.9558 62.2824L46.002 65.299L47.6395 62.9785L45.1352 62.3068" fill="#1E1E1E"/>
<path d="M45.0911 62.4758C45.5086 63.3963 46.0431 64.4398 46.4519 65.3101M45.0911 62.4758C45.4411 63.2946 45.8418 64.0847 46.4519 65.3101M45.0911 62.4758C46.8037 62.3878 47.3538 62.3913 47.9224 62.4553M45.0911 62.4758C46.0618 62.4596 46.9425 62.4413 47.9224 62.4553M46.4519 65.3101C46.9795 64.1927 47.5543 63.1865 47.9224 62.4553M46.4519 65.3101C46.9065 64.3109 47.4282 63.4335 47.9224 62.4553" stroke="#1E1E1E" stroke-linecap="round"/>
<path d="M45.0243 29.6268C44.9743 30.5468 45.0343 31.5968 45.0743 33.5968ZM45.0243 29.6268C45.0743 30.7168 45.1243 31.8468 45.0743 33.5968Z" stroke="#1E1E1E" stroke-linecap="round"/>
<path d="M39.063 72.5586C39.4801 72.3622 40.2873 71.8191 41.6594 71.5372C45.3544 72.2436 42.328 69.5764 43.4654 72.3312C43.703 73.6455 45.0545 75.6606 45.3946 77.2354C46.3089 75.4895 44.2256 77.4051 44.6099 79.0378C44.0331 79.5656 42.4994 79.8465 42.0136 80.0591C40.6716 79.2975 41.8944 78.1717 40.2019 79.2781C40.0159 78.0403 38.7025 76.5044 38.2727 74.3739C37.967 74.5801 35.7878 72.4822 39.063 72.5586Z" fill="white"/>
<path d="M39.063 72.5586C39.6154 72.4057 40.1665 72.1675 41.6594 71.5372M39.063 72.5586C39.8763 72.2494 40.7195 71.9069 41.6594 71.5372M39.063 72.5586C37.4959 72.8634 37.863 73.2778 38.2727 74.3739M39.063 72.5586C38.536 72.1749 38.6807 73.8265 38.2727 74.3739M41.6594 71.5372C42.058 71.6491 43.0534 71.9667 43.4654 72.3312M41.6594 71.5372C43.3336 71.3407 43.0362 70.7485 43.4654 72.3312M43.4654 72.3312C43.9103 73.4349 44.2611 74.436 45.3946 77.2354M43.4654 72.3312C44.1878 73.9491 44.7224 75.6086 45.3946 77.2354M45.3946 77.2354C46.1992 78.4341 44.737 78.5687 44.6099 79.0378M45.3946 77.2354C45.0124 78.1487 44.9298 79.2773 44.6099 79.0378M44.6099 79.0378C44.0648 79.2092 43.3367 79.5708 42.0136 80.0591M44.6099 79.0378C43.7614 79.3393 42.9049 79.7299 42.0136 80.0591M42.0136 80.0591C40.7031 80.6068 40.0093 80.4821 40.2019 79.2781M42.0136 80.0591C40.5815 80.7621 40.1782 79.8462 40.2019 79.2781M40.2019 79.2781C39.6311 77.7725 39.115 76.4604 38.2727 74.3739M40.2019 79.2781C39.5933 77.8948 39.0222 76.4431 38.2727 74.3739" stroke="#1E1E1E" stroke-linecap="round"/>
<path d="M43.0311 71.2652C43.8011 71.0052 44.5411 71.5552 45.8211 71.2652C46.6911 69.2152 48.0611 70.5152 47.2111 72.6652C47.4811 74.8352 47.5811 76.1752 47.2111 77.9352C46.5311 77.2052 47.9111 79.7552 45.8211 79.3252C44.4911 79.3052 43.7611 79.1852 43.0311 79.3252C44.0811 77.9852 40.2911 78.3652 41.6311 77.9352C41.2111 75.3252 41.5111 74.1652 41.6311 72.6652C39.5411 70.4552 40.5411 69.8052 43.0311 71.2652Z" fill="white"/>
<path d="M43.0311 71.2652C43.6411 71.2952 44.3211 71.3452 45.8211 71.2652M43.0311 71.2652C44.1011 71.2752 45.1211 71.2752 45.8211 71.2652M43.0311 71.2652C42.6011 71.7652 40.9911 71.4452 41.6311 72.6652M43.0311 71.2652C41.4911 70.6352 42.2211 71.1752 41.6311 72.6652M45.8211 71.2652C46.4911 71.7052 47.8211 72.1052 47.2111 72.6652M45.8211 71.2652C46.9311 70.5652 46.4511 71.7452 47.2111 72.6652M47.2111 72.6652C47.1811 74.4952 47.2711 76.0552 47.2111 77.9352M47.2111 72.6652C47.1911 74.1852 47.2711 75.7552 47.2111 77.9352M47.2111 77.9352C46.5811 78.4752 46.1511 79.1352 45.8211 79.3252M47.2111 77.9352C46.4911 79.1952 46.2311 79.2152 45.8211 79.3252M45.8211 79.3252C44.7211 79.3452 43.8011 79.3852 43.0311 79.3252M45.8211 79.3252C44.9811 79.3352 44.1111 79.3252 43.0311 79.3252M43.0311 79.3252C41.4811 79.4552 41.0611 78.9652 41.6311 77.9352M43.0311 79.3252C41.8711 78.9252 41.4211 79.4952 41.6311 77.9352M41.6311 77.9352C41.6611 76.0452 41.6211 74.5052 41.6311 72.6652M41.6311 77.9352C41.5811 76.1652 41.6411 74.2552 41.6311 72.6652" stroke="#1E1E1E" stroke-linecap="round"/>
<path d="M47.3057 71.2716C48.2051 71.9766 48.8566 71.6282 49.886 72.3326C51.9963 71.8813 53.1957 73.2503 50.6392 74.1561C50.807 74.8522 49.7778 75.8563 48.6349 79.0301C49.1905 80.729 48.4129 82.4096 46.8207 79.787C45.8958 79.2228 45.182 78.9077 44.2404 78.7259C42.318 77.4056 44.4659 79.4133 43.4742 76.9079C43.9359 75.6273 44.3678 73.3937 45.4785 72.0339C44.9446 69.2302 47.7698 69.1701 47.3057 71.2716Z" fill="white"/>
<path d="M47.3057 71.2715C48.2094 71.7297 49.2299 72.0088 49.886 72.3326M47.3057 71.2715C48.1158 71.6155 48.9868 71.9953 49.886 72.3326M47.3057 71.2715C47.0906 70.6641 46.1082 71.8171 45.4785 72.0339M47.3057 71.2715C45.9797 70.3154 45.5206 70.3537 45.4785 72.0339M49.886 72.3326C51.1696 73.2605 51.3728 72.7926 50.6392 74.1561M49.886 72.3326C50.0357 72.4158 51.1555 73.3737 50.6392 74.1561M50.6392 74.1561C49.9416 76.0101 49.0462 77.9774 48.6349 79.0301M50.6392 74.1561C49.9916 75.836 49.2514 77.2941 48.6349 79.0301M48.6349 79.0301C47.7985 79.4863 46.9879 80.1693 46.8207 79.787M48.6349 79.0301C47.8552 79.5852 47.8922 80.9412 46.8207 79.787M46.8207 79.787C46.1744 79.5969 45.5292 79.2991 44.2404 78.7259M46.8207 79.787C46.2157 79.549 45.6385 79.3225 44.2404 78.7259M44.2404 78.7259C42.8112 78.2572 43.0686 77.3683 43.4742 76.9079M44.2404 78.7259C42.9372 78.8712 43.2686 78.0127 43.4742 76.9079M43.4742 76.9079C43.8453 75.9792 44.3887 74.8944 45.4785 72.0339M43.4742 76.9079C44.2251 75.1082 44.8851 73.2928 45.4785 72.0339" stroke="#1E1E1E" stroke-linecap="round"/>
<path d="M50.8988 73.0843C51.5477 73.2367 52.0271 73.7981 53.0065 74.9124C55.8116 76.1805 51.7048 75.8484 53.1392 76.8807C52.2145 77.7333 51.1104 79.7541 49.6862 80.8619C49.0553 83.9549 51.205 81.1864 47.7254 81.0012C47.4636 80.5094 46.4331 79.7744 45.6177 79.1731C45.6661 80.552 45.9813 76.9072 45.4709 77.2057C45.9737 75.8019 46.8068 75.0551 48.9239 73.2246C51.3529 71.294 52.2476 71.514 50.8988 73.0843Z" fill="white"/>
<path d="M50.8989 73.0843C51.6946 73.7083 52.3483 74.3282 53.0065 74.9124M50.8989 73.0843C51.5515 73.6901 52.2909 74.3181 53.0065 74.9124M50.8989 73.0843C50.1563 71.7122 50.2396 72.486 48.9239 73.2246M50.8989 73.0843C49.8163 72.7146 49.2837 71.8025 48.9239 73.2246M53.0065 74.9124C54.2221 75.1592 53.2435 75.7533 53.1393 76.8807M53.0065 74.9124C53.8309 75.6407 54.3067 76.4505 53.1393 76.8807M53.1393 76.8807C51.723 78.4984 50.6227 79.8738 49.6862 80.8619M53.1393 76.8807C52.038 78.0436 50.9372 79.3127 49.6862 80.8619M49.6862 80.8619C48.4185 81.3773 48.1535 81.2401 47.7254 81.0012M49.6862 80.8619C49.0297 82.3972 48.5507 80.8433 47.7254 81.0012M47.7254 81.0012C47.0128 80.4493 46.3062 79.7835 45.6178 79.1731M47.7254 81.0012C47.0012 80.3863 46.3138 79.79 45.6178 79.1731M45.6178 79.1731C44.9934 78.1683 44.3642 78.1917 45.4709 77.2057M45.6178 79.1731C44.9776 78.8429 44.175 77.5246 45.4709 77.2057M45.4709 77.2057C46.3504 76.3139 47.1331 75.4572 48.9239 73.2246M45.4709 77.2057C46.6751 75.6953 47.9612 74.4414 48.9239 73.2246" stroke="#1E1E1E" stroke-linecap="round"/>
</svg>
