<svg width="85" height="127" viewBox="0 0 85 127" fill="none" xmlns="http://www.w3.org/2000/svg">
<path d="M21.8463 2.03333C35.4463 4.50333 44.6063 4.71333 62.2463 2.03333C75.9863 4.11333 81.6963 12.2333 82.4463 22.2333C83.0463 57.8033 83.8163 90.0933 82.4463 103.783C80.8563 117.523 76.4363 121.113 62.2463 123.983C51.0063 122.673 34.9463 126.193 21.8463 123.983C10.3863 125.843 3.85631 117.183 1.64631 103.783C0.676312 76.2933 0.606312 55.1433 1.64631 22.2333C3.38631 9.33333 7.55631 3.81333 21.8463 2.03333Z" fill="white"/>
<path d="M21.8463 2.03331C29.7263 1.30331 40.2363 1.32331 62.2463 2.03331M21.8463 2.03331C35.0263 1.54331 47.2963 1.68331 62.2463 2.03331M21.8463 2.03331C7.96631 2.00331 1.54631 8.04331 1.64631 22.2333M21.8463 2.03331C7.23631 4.06331 3.20631 10.6833 1.64631 22.2333M62.2463 2.03331C77.6763 3.08331 82.6363 8.57331 82.4463 22.2333M62.2463 2.03331C74.5063 2.29331 80.5763 8.15331 82.4463 22.2333M82.4463 22.2333C83.7563 52.8333 83.5763 85.8333 82.4463 103.783M82.4463 22.2333C82.2663 50.1233 82.1063 79.4133 82.4463 103.783M82.4463 103.783C82.4963 117.323 74.6563 124.583 62.2463 123.983M82.4463 103.783C84.2363 115.623 76.5263 125.663 62.2463 123.983M62.2463 123.983C54.7763 125.283 46.0363 125.423 21.8463 123.983M62.2463 123.983C45.9963 124.953 31.0163 124.853 21.8463 123.983M21.8463 123.983C7.96631 123.723 0.126313 116.913 1.64631 103.783M21.8463 123.983C8.28631 124.963 2.35631 118.173 1.64631 103.783M1.64631 103.783C3.37631 70.7833 2.55631 39.8433 1.64631 22.2333M1.64631 103.783C0.816313 87.4033 1.87631 71.1933 1.64631 22.2333" stroke="#1E1E1E" stroke-width="2" stroke-linecap="round"/>
<path d="M10.4615 90.2559C21.4515 90.2559 65.4315 90.2559 76.4215 90.2559" stroke="#1E1E1E" stroke-width="2" stroke-linecap="round"/>
<path d="M23.1738 1.92017C37.3038 1.92017 51.4438 1.92017 59.5638 1.92017C62.0438 1.92017 63.2938 3.16017 63.2938 5.65017C63.2938 8.52017 63.2938 11.4002 63.2938 13.1002C63.2938 15.5802 62.0438 16.8202 59.5638 16.8202C49.3138 16.8202 39.0638 16.8202 23.1738 16.8202C20.6838 16.8202 19.4438 15.5802 19.4438 13.1002C19.4438 11.4602 19.4438 9.82017 19.4438 5.65017C19.4438 3.16017 20.6838 1.92017 23.1738 1.92017Z" fill="white"/>
<path d="M23.1738 1.92017C32.3038 1.92017 41.4438 1.92017 59.5638 1.92017M23.1738 1.92017C33.6538 1.92017 44.1338 1.92017 59.5638 1.92017M23.1738 1.92017C20.6838 1.92017 19.4438 3.16017 19.4438 5.65017M59.5638 1.92017C62.0438 1.92017 63.2938 3.16017 63.2938 5.65017M63.2938 5.65017C63.2938 7.22017 63.2938 8.80017 63.2938 13.1002M63.2938 5.65017C63.2938 7.41017 63.2938 9.16017 63.2938 13.1002M63.2938 13.1002C63.2938 15.5802 62.0438 16.8202 59.5638 16.8202M59.5638 16.8202C45.9738 16.8202 32.3938 16.8202 23.1738 16.8202M59.5638 16.8202C45.2638 16.8202 30.9538 16.8202 23.1738 16.8202M23.1738 16.8202C20.6838 16.8202 19.4438 15.5802 19.4438 13.1002M19.4438 13.1002C19.4438 11.3702 19.4438 9.65017 19.4438 5.65017M19.4438 13.1002C19.4438 10.6002 19.4438 8.11017 19.4438 5.65017" stroke="#1E1E1E" stroke-width="2" stroke-linecap="round"/>
<path d="M28.4109 12.8721C28.0572 12.8721 27.7531 12.8266 27.4987 12.7356C27.2442 12.6466 27.0322 12.5287 26.8626 12.3818C26.695 12.237 26.5616 12.0819 26.4623 11.9164L27.0457 11.5068C27.1119 11.5937 27.1956 11.693 27.297 11.8047C27.3984 11.9185 27.5369 12.0167 27.7128 12.0995C27.8907 12.1843 28.1234 12.2267 28.4109 12.2267C28.7957 12.2267 29.1132 12.1336 29.3635 11.9474C29.6138 11.7613 29.7389 11.4696 29.7389 11.0724V10.1043H29.6769C29.6231 10.1912 29.5466 10.2988 29.4473 10.427C29.3501 10.5532 29.2094 10.6659 29.0253 10.7652C28.8433 10.8625 28.5971 10.9111 28.2868 10.9111C27.9021 10.9111 27.5566 10.82 27.2504 10.638C26.9464 10.456 26.7054 10.1912 26.5275 9.84368C26.3517 9.49616 26.2637 9.07417 26.2637 8.57771C26.2637 8.08953 26.3496 7.66443 26.5213 7.30243C26.693 6.93836 26.9319 6.65704 27.238 6.45845C27.5442 6.2578 27.8979 6.15747 28.2992 6.15747C28.6095 6.15747 28.8557 6.20919 29.0377 6.31262C29.2218 6.41398 29.3625 6.52982 29.4597 6.66014C29.559 6.78839 29.6355 6.89389 29.6893 6.97663H29.7638V6.21953H30.4712V11.1221C30.4712 11.5316 30.3781 11.8647 30.192 12.1212C30.0079 12.3798 29.7596 12.569 29.4473 12.689C29.137 12.8111 28.7915 12.8721 28.4109 12.8721ZM28.3861 10.2533C28.6798 10.2533 28.9281 10.186 29.1308 10.0516C29.3335 9.91711 29.4876 9.7237 29.5931 9.47134C29.6986 9.21897 29.7514 8.91696 29.7514 8.5653C29.7514 8.22191 29.6996 7.91887 29.5962 7.65616C29.4928 7.39345 29.3397 7.18763 29.137 7.03869C28.9343 6.88975 28.684 6.81528 28.3861 6.81528C28.0758 6.81528 27.8172 6.89389 27.6104 7.0511C27.4056 7.20831 27.2515 7.41931 27.1481 7.68408C27.0467 7.94886 26.996 8.2426 26.996 8.5653C26.996 8.89627 27.0477 9.18897 27.1512 9.44341C27.2567 9.69578 27.4118 9.89436 27.6166 10.0392C27.8234 10.1819 28.0799 10.2533 28.3861 10.2533ZM33.8099 11.0848C33.3507 11.0848 32.9546 10.9835 32.6215 10.7807C32.2905 10.576 32.0351 10.2905 31.8551 9.92435C31.6772 9.55615 31.5883 9.12795 31.5883 8.63977C31.5883 8.15158 31.6772 7.72132 31.8551 7.34898C32.0351 6.97456 32.2854 6.68289 32.606 6.47397C32.9287 6.26297 33.3052 6.15747 33.7354 6.15747C33.9837 6.15747 34.2288 6.19885 34.4708 6.28159C34.7128 6.36433 34.9331 6.49879 35.1317 6.68496C35.3303 6.86907 35.4886 7.11316 35.6065 7.41724C35.7244 7.72132 35.7833 8.09573 35.7833 8.54048V8.85076H32.1095V8.21778H35.0386C35.0386 7.94886 34.9849 7.70891 34.8773 7.49791C34.7718 7.28692 34.6208 7.1204 34.4243 6.99835C34.2298 6.87631 34.0002 6.81528 33.7354 6.81528C33.4438 6.81528 33.1914 6.88768 32.9783 7.03248C32.7673 7.17521 32.605 7.36139 32.4912 7.591C32.3774 7.82061 32.3205 8.06677 32.3205 8.32948V8.75147C32.3205 9.1114 32.3826 9.41652 32.5067 9.66682C32.6329 9.91505 32.8077 10.1043 33.0311 10.2346C33.2545 10.3629 33.5141 10.427 33.8099 10.427C34.0023 10.427 34.176 10.4001 34.3312 10.3463C34.4884 10.2905 34.6239 10.2077 34.7377 10.0981C34.8514 9.98641 34.9394 9.84782 35.0014 9.68233L35.7089 9.88091C35.6344 10.1209 35.5092 10.3319 35.3334 10.5139C35.1576 10.6939 34.9404 10.8345 34.6818 10.9359C34.4232 11.0352 34.1326 11.0848 33.8099 11.0848ZM38.97 6.21953V6.8401H36.5001V6.21953H38.97ZM37.22 5.07768H37.9522V9.62027C37.9522 9.82713 37.9822 9.98227 38.0422 10.0857C38.1043 10.1871 38.1829 10.2553 38.278 10.2905C38.3753 10.3236 38.4777 10.3401 38.5852 10.3401C38.6659 10.3401 38.7321 10.336 38.7838 10.3277C38.8355 10.3174 38.8769 10.3091 38.9079 10.3029L39.0569 10.9607C39.0072 10.9793 38.9379 10.9979 38.849 11.0166C38.76 11.0372 38.6473 11.0476 38.5108 11.0476C38.3039 11.0476 38.1012 11.0031 37.9026 10.9142C37.7061 10.8252 37.5427 10.6897 37.4123 10.5077C37.2841 10.3257 37.22 10.096 37.22 9.81886V5.07768ZM41.1513 10.9855L39.6991 6.21953H40.4687L41.4988 9.8685H41.5485L42.5662 6.21953H43.3481L44.3534 9.85609H44.4031L45.4332 6.21953H46.2028L44.7506 10.9855H44.0308L42.9882 7.32415H42.9137L41.8712 10.9855H41.1513ZM48.5733 11.0972C48.2713 11.0972 47.9972 11.0404 47.7511 10.9266C47.5049 10.8107 47.3094 10.6442 47.1646 10.427C47.0198 10.2077 46.9474 9.94297 46.9474 9.63268C46.9474 9.35963 47.0012 9.13829 47.1088 8.96867C47.2164 8.79698 47.3601 8.66252 47.5401 8.5653C47.7201 8.46808 47.9186 8.39568 48.1358 8.3481C48.3551 8.29845 48.5754 8.25915 48.7968 8.23019C49.0864 8.19295 49.3211 8.16503 49.5011 8.14641C49.6831 8.12573 49.8155 8.09159 49.8983 8.04402C49.9831 7.99644 50.0255 7.9137 50.0255 7.79579V7.77096C50.0255 7.46482 49.9417 7.22693 49.7742 7.05731C49.6087 6.88768 49.3573 6.80287 49.0202 6.80287C48.6706 6.80287 48.3965 6.87941 48.1979 7.03248C47.9993 7.18556 47.8597 7.34898 47.779 7.52274L47.084 7.27451C47.2081 6.98491 47.3736 6.75943 47.5804 6.59808C47.7894 6.43466 48.0169 6.32089 48.2631 6.25677C48.5113 6.19057 48.7554 6.15747 48.9953 6.15747C49.1484 6.15747 49.3242 6.17609 49.5228 6.21333C49.7235 6.24849 49.9169 6.32193 50.1031 6.43363C50.2913 6.54533 50.4475 6.71392 50.5716 6.9394C50.6957 7.16487 50.7578 7.46688 50.7578 7.84543V10.9855H50.0255V10.3401H49.9883C49.9386 10.4436 49.8559 10.5542 49.74 10.6721C49.6242 10.7901 49.4701 10.8904 49.2777 10.9731C49.0853 11.0559 48.8505 11.0972 48.5733 11.0972ZM48.6851 10.4394C48.9747 10.4394 49.2187 10.3825 49.4173 10.2688C49.618 10.155 49.769 10.0081 49.8703 9.82817C49.9738 9.6482 50.0255 9.45892 50.0255 9.26034V8.59012C49.9945 8.62736 49.9262 8.66149 49.8207 8.69252C49.7173 8.72148 49.5973 8.74733 49.4608 8.77009C49.3263 8.79077 49.195 8.80939 49.0667 8.82594C48.9405 8.84042 48.8381 8.85283 48.7595 8.86317C48.5692 8.888 48.3913 8.92833 48.2258 8.98419C48.0624 9.03797 47.93 9.11968 47.8287 9.22931C47.7294 9.33688 47.6797 9.48375 47.6797 9.66992C47.6797 9.92435 47.7738 10.1167 47.9621 10.2471C48.1524 10.3753 48.3934 10.4394 48.6851 10.4394ZM52.3953 12.7728C52.2712 12.7728 52.1605 12.7624 52.0633 12.7418C51.9661 12.7231 51.8988 12.7045 51.8616 12.6859L52.0478 12.0405C52.2257 12.086 52.3829 12.1026 52.5194 12.0902C52.6559 12.0777 52.777 12.0167 52.8825 11.9071C52.99 11.7995 53.0883 11.6247 53.1772 11.3827L53.3138 11.0104L51.5513 6.21953H52.3457L53.6613 10.0174H53.7109L55.0265 6.21953H55.8209L53.7978 11.6806C53.7068 11.9267 53.594 12.1305 53.4596 12.2918C53.3251 12.4553 53.169 12.5763 52.9911 12.6549C52.8152 12.7335 52.6166 12.7728 52.3953 12.7728Z" fill="#1E1E1E"/>
<path d="M41.133 76.2938C42.623 76.0238 43.103 76.4138 44.323 76.2938C47.333 77.7538 47.763 75.8238 45.913 77.8938C46.193 80.0138 45.323 82.0638 45.913 83.9138C45.493 85.0738 47.183 86.7738 44.323 85.5138C43.203 85.5238 42.133 85.4138 41.133 85.5138C38.253 84.8838 39.903 86.0738 39.533 83.9138C40.173 81.9138 39.683 80.4338 39.533 77.8938C37.523 75.0338 39.673 75.8738 41.133 76.2938Z" fill="white"/>
<path d="M41.133 76.2938C42.273 76.3338 43.443 76.3938 44.323 76.2938M41.133 76.2938C42.223 76.3038 43.333 76.2838 44.323 76.2938M41.133 76.2938C40.713 76.4338 39.653 76.6738 39.533 77.8938M41.133 76.2938C40.783 76.3538 40.213 76.2038 39.533 77.8938M44.323 76.2938C46.023 76.3838 46.293 77.2238 45.913 77.8938M44.323 76.2938C44.703 76.6838 45.483 77.2038 45.913 77.8938M45.913 77.8938C45.793 79.3638 45.953 80.7938 45.913 83.9138M45.913 77.8938C45.983 79.6438 45.933 81.6238 45.913 83.9138M45.913 83.9138C45.293 85.5338 45.103 85.8038 44.323 85.5138M45.913 83.9138C46.473 85.1738 45.993 86.1838 44.323 85.5138M44.323 85.5138C43.483 85.5238 42.533 85.4838 41.133 85.5138M44.323 85.5138C43.403 85.5338 42.503 85.5338 41.133 85.5138M41.133 85.5138C40.653 85.3338 40.093 85.4838 39.533 83.9138M41.133 85.5138C39.543 85.7738 39.273 84.2538 39.533 83.9138M39.533 83.9138C39.613 81.7738 39.723 79.2538 39.533 77.8938M39.533 83.9138C39.603 82.4038 39.483 80.8238 39.533 77.8938" stroke="#1E1E1E" stroke-linecap="round"/>
<path d="M43.2657 76.1702C43.1857 70.4402 43.0457 47.5402 42.8957 41.7402M42.7257 75.7002C42.5757 69.8202 42.8557 46.5402 42.7457 40.9202" stroke="#1E1E1E" stroke-linecap="round"/>
<path d="M28.2203 63.6709C29.2803 63.8909 30.0103 63.5009 31.4103 63.6709C32.6403 64.1309 31.1903 65.1009 33.0003 65.2709C32.8103 67.3409 33.4803 69.7509 33.0003 71.2909C34.1803 73.7509 32.4303 72.9309 31.4103 72.8909C30.1503 72.7809 29.5303 73.0509 28.2203 72.8909C27.5103 72.3709 27.7403 74.4409 26.6203 71.2909C26.0003 69.0309 26.4903 67.7209 26.6203 65.2709C25.3403 64.2409 25.6703 62.9709 28.2203 63.6709Z" fill="white"/>
<path d="M28.2203 63.6709C29.3603 63.6709 30.3903 63.6009 31.4103 63.6709M28.2203 63.6709C29.2603 63.6809 30.2303 63.7009 31.4103 63.6709M28.2203 63.6709C27.7803 63.7209 27.2103 63.6609 26.6203 65.2709M28.2203 63.6709C27.8903 64.4209 27.0603 64.0409 26.6203 65.2709M31.4103 63.6709C31.8803 64.0109 32.6203 64.5309 33.0003 65.2709M31.4103 63.6709C32.0103 64.1209 33.2303 63.7109 33.0003 65.2709M33.0003 65.2709C33.0103 67.0509 33.0603 69.2109 33.0003 71.2909M33.0003 65.2709C32.9103 66.7309 32.9703 68.0709 33.0003 71.2909M33.0003 71.2909C33.4903 72.5209 33.0003 73.4809 31.4103 72.8909M33.0003 71.2909C32.9503 72.4309 32.0403 73.6009 31.4103 72.8909M31.4103 72.8909C30.3803 72.8009 29.3703 72.8809 28.2203 72.8909M31.4103 72.8909C30.3603 72.8809 29.2603 72.9309 28.2203 72.8909M28.2203 72.8909C26.6903 73.1209 26.3903 71.7209 26.6203 71.2909M28.2203 72.8909C27.8103 72.3209 26.5203 72.6209 26.6203 71.2909M26.6203 71.2909C26.5303 68.8809 26.6003 66.6809 26.6203 65.2709M26.6203 71.2909C26.6503 68.9609 26.7303 66.6909 26.6203 65.2709" stroke="#1E1E1E" stroke-linecap="round"/>
<path d="M33.5069 68.109C34.1769 67.519 37.1369 68.099 38.0169 64.949C38.8969 61.809 38.5069 51.829 38.7969 49.249M32.8669 67.599C33.6769 67.089 37.9269 68.659 39.0969 65.679C40.2669 62.709 39.9869 52.379 39.8869 49.769" stroke="#1E1E1E" stroke-linecap="round"/>
<path d="M53.4415 63.6708C54.6215 63.7608 55.4715 63.8308 56.6315 63.6708C58.6015 61.6608 59.7815 63.7808 58.2215 65.2708C58.6315 67.5208 58.2615 68.9408 58.2215 71.2908C58.3015 72.7308 57.1115 71.0708 56.6315 72.8908C55.8115 72.8208 55.0715 73.2408 53.4415 72.8908C52.0615 73.3208 52.9015 70.3408 51.8415 71.2908C51.4715 69.9708 51.4115 68.4208 51.8415 65.2708C50.9515 64.2608 52.9415 62.9208 53.4415 63.6708Z" fill="white"/>
<path d="M53.4415 63.6707C54.4315 63.5907 55.3815 63.7807 56.6315 63.6707M53.4415 63.6707C54.3915 63.6907 55.4015 63.6907 56.6315 63.6707M53.4415 63.6707C53.0115 64.3207 52.2215 64.0607 51.8415 65.2707M53.4415 63.6707C52.7015 64.3307 51.3415 63.5607 51.8415 65.2707M56.6315 63.6707C57.2915 64.0607 58.4215 63.7807 58.2215 65.2707M56.6315 63.6707C57.8015 63.7607 58.2415 64.2307 58.2215 65.2707M58.2215 65.2707C58.0815 66.8207 58.3715 68.0507 58.2215 71.2907M58.2215 65.2707C58.2915 67.6007 58.2915 69.9707 58.2215 71.2907M58.2215 71.2907C58.1815 72.4207 57.3215 73.5107 56.6315 72.8907M58.2215 71.2907C58.3515 73.0007 57.5315 72.7907 56.6315 72.8907M56.6315 72.8907C55.9615 72.9207 55.2415 72.9807 53.4415 72.8907M56.6315 72.8907C55.7215 72.9107 54.8615 72.8407 53.4415 72.8907M53.4415 72.8907C52.9415 72.3907 51.7515 72.5907 51.8415 71.2907M53.4415 72.8907C53.0915 73.5507 51.8015 72.0807 51.8415 71.2907M51.8415 71.2907C52.0115 69.5107 52.0215 67.9607 51.8415 65.2707M51.8415 71.2907C51.9115 69.5407 51.9115 67.9607 51.8415 65.2707" stroke="#1E1E1E" stroke-linecap="round"/>
<path d="M50.9349 68.0088C50.2649 67.4888 47.8249 68.4588 47.0749 65.0988C46.3249 61.7388 46.6849 50.7388 46.4449 47.8588M51.7149 67.4588C51.0349 67.0388 47.8249 69.2488 46.9149 65.8388C46.0049 62.4188 46.4949 50.1288 46.2549 46.9588" stroke="#1E1E1E" stroke-linecap="round"/>
<path d="M50.0016 47.7116C50.5716 49.4816 50.1416 51.1916 50.0016 52.4716C47.9416 54.1716 47.8616 56.3016 47.6216 54.8516C43.9116 54.9016 41.6316 54.5316 37.9416 54.8516C35.9316 54.1416 35.1516 55.3216 35.5616 52.4716C35.3916 51.0716 36.0516 50.1216 35.5616 47.7116C36.0116 44.0716 37.8216 44.8516 37.9416 45.3316C40.8316 44.9216 44.2016 45.7316 47.6216 45.3316C49.4716 44.4416 48.0516 45.7816 50.0016 47.7116Z" fill="white"/>
<path d="M50.0016 47.7116C49.8916 48.7916 50.2316 49.9416 50.0016 52.4716M50.0016 47.7116C49.9416 49.3116 50.0916 51.0916 50.0016 52.4716M50.0016 47.7116C49.1416 46.5516 50.0516 44.6816 47.6216 45.3316M50.0016 47.7116C49.9116 45.6216 48.2716 46.0716 47.6216 45.3316M50.0016 52.4716C49.8816 54.2016 49.1716 54.8816 47.6216 54.8516M50.0016 52.4716C49.6516 53.4516 50.0216 55.7516 47.6216 54.8516M47.6216 54.8516C44.5716 55.2916 40.7716 55.1016 37.9416 54.8516M47.6216 54.8516C44.4516 54.8816 41.1016 54.7616 37.9416 54.8516M37.9416 54.8516C35.5216 55.0216 35.6916 53.8516 35.5616 52.4716M37.9416 54.8516C36.5416 53.9816 35.0716 54.0116 35.5616 52.4716M35.5616 52.4716C35.3416 50.8316 35.7016 49.5016 35.5616 47.7116M35.5616 52.4716C35.6716 50.9816 35.5416 49.2716 35.5616 47.7116M35.5616 47.7116C34.7016 47.0616 36.7216 45.2816 37.9416 45.3316M35.5616 47.7116C35.5816 45.8816 35.4016 46.1116 37.9416 45.3316M37.9416 45.3316C39.8916 45.1716 42.3616 45.3916 47.6216 45.3316M37.9416 45.3316C40.1216 45.4216 41.9516 45.5216 47.6216 45.3316" stroke="#1E1E1E" stroke-linecap="round"/>
<path d="M42.7562 43.5294C42.6362 42.6294 42.2562 38.8794 42.1762 37.9394M42.4362 43.3294C42.3962 42.3194 42.8962 38.4094 42.8162 37.4094" stroke="#1E1E1E" stroke-linecap="round"/>
<path fill-rule="evenodd" clip-rule="evenodd" d="M44.5308 38.1822L42.7908 35.2122L41.7808 39.0822L44.2308 39.0122" fill="#1E1E1E"/>
<path d="M44.5608 38.4222C44.0308 37.2122 43.4508 36.0622 42.9308 35.2222M44.5608 38.4222C43.9808 37.2822 43.3908 36.1322 42.9308 35.2222M44.5608 38.4222C43.3208 38.4522 42.3808 38.5222 41.3308 38.5222M44.5608 38.4222C43.2008 38.4922 42.2508 38.5222 41.3308 38.5222M42.9308 35.2222C42.4508 36.0922 42.2308 36.7422 41.3308 38.5222M42.9308 35.2222C42.3508 36.5022 41.7508 37.8122 41.3308 38.5222" stroke="#1E1E1E" stroke-linecap="round"/>
<path d="M41.6343 22.4823C42.7243 22.6423 43.6443 22.4423 44.8243 22.4823C45.9243 22.5623 46.7943 22.4323 46.4143 24.0823C46.7243 25.5123 46.2443 27.0723 46.4143 30.1023C48.5043 30.8523 46.3143 32.7623 44.8243 31.7023C44.0743 31.4923 43.4743 31.4523 41.6343 31.7023C39.8643 30.8023 40.0943 31.7423 40.0343 30.1023C39.9643 29.0023 40.7143 27.0323 40.0343 24.0823C40.8343 23.8123 38.7443 23.5723 41.6343 22.4823Z" fill="white"/>
<path d="M41.6343 22.4824C42.3543 22.4224 43.0443 22.5224 44.8243 22.4824M41.6343 22.4824C42.3843 22.4824 43.1043 22.4924 44.8243 22.4824M41.6343 22.4824C40.7043 21.9524 39.7443 23.0624 40.0343 24.0824M41.6343 22.4824C39.8843 23.0124 40.3343 23.3224 40.0343 24.0824M44.8243 22.4824C46.4043 22.0124 46.6543 23.5024 46.4143 24.0824M44.8243 22.4824C45.1643 23.1124 46.1043 23.3524 46.4143 24.0824M46.4143 24.0824C46.5943 26.3124 46.4443 28.4624 46.4143 30.1024M46.4143 24.0824C46.3943 26.4324 46.3443 28.8024 46.4143 30.1024M46.4143 30.1024C46.3843 31.4524 46.0843 31.9624 44.8243 31.7024M46.4143 30.1024C47.0843 30.9624 46.5343 32.2824 44.8243 31.7024M44.8243 31.7024C43.9843 31.7824 43.2643 31.6824 41.6343 31.7024M44.8243 31.7024C43.7443 31.6924 42.6743 31.7024 41.6343 31.7024M41.6343 31.7024C41.0143 32.2524 39.7043 31.7524 40.0343 30.1024M41.6343 31.7024C40.7043 31.5224 40.7843 31.3324 40.0343 30.1024M40.0343 30.1024C40.0643 27.8824 40.0043 25.6124 40.0343 24.0824M40.0343 30.1024C40.0943 27.7924 40.1143 25.3824 40.0343 24.0824" stroke="#1E1E1E" stroke-linecap="round"/>
<path d="M40.8936 75.0504C42.4836 75.0204 43.5236 75.0404 44.3536 75.0504C45.9336 74.3904 44.0036 74.9104 46.0836 76.7804C45.9136 79.4404 46.9636 81.0704 46.0836 83.7604C46.5736 86.1304 43.1936 83.4304 44.3536 85.4904C43.3836 85.1704 42.2536 85.2904 40.8936 85.4904C39.8036 86.1404 38.3136 84.0204 39.1636 83.7604C40.0436 81.9304 39.4936 80.0304 39.1636 76.7804C37.0736 76.8704 38.9236 73.2604 40.8936 75.0504Z" fill="white"/>
<path d="M40.8936 75.0504C41.8336 75.1104 42.4636 75.0804 44.3536 75.0504M40.8936 75.0504C41.9236 75.0804 43.1236 74.9904 44.3536 75.0504M40.8936 75.0504C40.1336 75.4504 39.3636 74.8304 39.1636 76.7804M40.8936 75.0504C39.5236 75.1004 38.1436 76.4204 39.1636 76.7804M44.3536 75.0504C45.8536 75.7804 45.1436 76.4504 46.0836 76.7804M44.3536 75.0504C45.0336 75.5604 46.9236 75.9204 46.0836 76.7804M46.0836 76.7804C46.1436 79.2404 46.4336 82.1404 46.0836 83.7604M46.0836 76.7804C45.9436 79.4304 46.0636 82.2104 46.0836 83.7604M46.0836 83.7604C46.3836 85.3104 46.3836 85.2204 44.3536 85.4904M46.0836 83.7604C47.0536 85.7804 44.7136 85.8904 44.3536 85.4904M44.3536 85.4904C43.3036 85.4804 42.5736 85.6604 40.8936 85.4904M44.3536 85.4904C42.9936 85.4804 41.7436 85.5504 40.8936 85.4904M40.8936 85.4904C39.2436 86.3704 39.3436 84.6804 39.1636 83.7604M40.8936 85.4904C40.8636 85.7404 40.1836 83.9904 39.1636 83.7604M39.1636 83.7604C39.0836 81.3404 39.5036 78.0304 39.1636 76.7804M39.1636 83.7604C39.2636 82.3904 39.0736 80.7604 39.1636 76.7804" stroke="#1E1E1E" stroke-width="0.5" stroke-linecap="round"/>
<path d="M41.1283 75.4844C41.7783 75.4944 42.5783 75.4844 44.1083 75.4844M41.1283 75.4844C42.0683 75.4444 42.9583 75.5144 44.1083 75.4844M41.1283 75.4844C39.5483 75.9444 39.8983 76.2444 39.6383 76.9744M41.1283 75.4844C40.7483 75.9144 39.4983 76.0144 39.6383 76.9744M44.1083 75.4844C44.4783 76.0344 45.3283 76.2744 45.5983 76.9744M44.1083 75.4844C45.6683 75.6744 46.2183 76.6644 45.5983 76.9744M45.5983 76.9744C45.8083 78.9544 45.7883 80.8144 45.5983 83.6044M45.5983 76.9744C45.5783 78.9244 45.6183 80.8244 45.5983 83.6044M45.5983 83.6044C46.1883 84.4144 45.6683 85.5944 44.1083 85.0944M45.5983 83.6044C45.0683 84.8644 44.8383 84.3644 44.1083 85.0944M44.1083 85.0944C42.9883 85.1844 41.8883 85.0844 41.1283 85.0944M44.1083 85.0944C43.3583 85.1344 42.5083 85.1344 41.1283 85.0944M41.1283 85.0944C40.2483 84.9344 40.2883 84.7344 39.6383 83.6044M41.1283 85.0944C40.8083 84.4744 40.3583 84.6544 39.6383 83.6044M39.6383 83.6044C39.8583 81.0844 39.4583 78.9544 39.6383 76.9744M39.6383 83.6044C39.5783 81.0544 39.6483 78.3944 39.6383 76.9744" stroke="#1E1E1E" stroke-width="0.5" stroke-linecap="round"/>
<path d="M42.7537 77.9517C43.1337 77.9717 43.3937 78.0917 43.7537 78.2717C44.1137 78.4417 44.7837 78.6317 44.9437 78.9917C45.1037 79.3617 44.9637 80.0317 44.7237 80.4817C44.4837 80.9317 43.9537 81.5017 43.4937 81.7117C43.0437 81.9217 42.4037 81.9217 42.0137 81.7317C41.6137 81.5417 41.3637 81.0217 41.1337 80.5817C40.9037 80.1417 40.5537 79.5017 40.6337 79.1117C40.7137 78.7117 41.2337 78.4417 41.6237 78.2017C42.0137 77.9517 42.7937 77.7417 42.9737 77.6217C43.1537 77.5017 42.7537 77.4417 42.6937 77.4817M43.2337 77.5617C43.7037 77.5917 44.3237 78.2817 44.5137 78.6217C44.7037 78.9617 44.4237 79.3417 44.3737 79.6117C44.3237 79.8817 44.3137 80.0017 44.1937 80.2517C44.0737 80.5117 44.0537 80.9117 43.6437 81.1417C43.2337 81.3617 42.1337 81.6217 41.7337 81.5917C41.3337 81.5517 41.4337 81.3517 41.2437 80.9217C41.0537 80.4817 40.5837 79.4617 40.6037 78.9817C40.6137 78.5017 40.8937 78.2017 41.3237 78.0517C41.7437 77.9117 42.9237 78.0917 43.1337 78.1117C43.3337 78.1317 42.5837 78.2317 42.5437 78.1717" stroke="#1E1E1E" stroke-width="0.5" stroke-linecap="round"/>
<path d="M41.6081 79.1632C41.7081 79.0532 42.1881 78.7932 42.3381 78.7932C42.4881 78.7932 42.5181 79.0032 42.5181 79.1632C42.5281 79.3332 42.4381 79.6432 42.3681 79.7832C42.3081 79.9132 42.1681 79.9832 42.1181 79.9732C42.0781 79.9632 42.1581 79.8032 42.0781 79.7032C41.9881 79.6132 41.6481 79.4532 41.5981 79.4032C41.5581 79.3532 41.7581 79.4732 41.8081 79.4132C41.8581 79.3632 41.8881 79.1832 41.8881 79.0732C41.8881 78.9732 41.8181 78.7932 41.8081 78.7932C41.7981 78.7832 41.7781 78.9732 41.8081 79.0332M42.3281 79.4232C42.2681 79.4732 41.8381 79.4032 41.7981 79.3132C41.7581 79.2232 41.9481 78.8932 42.0781 78.8832C42.2181 78.8632 42.6481 79.0432 42.6181 79.2132C42.5981 79.3832 41.9881 79.7432 41.9181 79.9032C41.8481 80.0532 42.2581 80.2332 42.1881 80.1432C42.1281 80.0532 41.6381 79.5032 41.5081 79.3632C41.3781 79.2232 41.3281 79.2732 41.4081 79.3032C41.4881 79.3332 41.9481 79.4932 41.9881 79.5232C42.0381 79.5532 41.6581 79.5832 41.6581 79.4832C41.6581 79.3832 41.8681 78.9832 41.9881 78.9332" stroke="#1E1E1E" stroke-width="0.5" stroke-linecap="round"/>
<path d="M43.547 78.7253C43.717 78.6853 43.777 78.8653 43.807 79.0153C43.847 79.1553 43.817 79.4653 43.787 79.6153C43.757 79.7553 43.667 79.8453 43.637 79.8653C43.617 79.8753 43.727 79.7553 43.637 79.7053C43.547 79.6453 43.187 79.5253 43.117 79.5053C43.047 79.4853 43.207 79.6253 43.217 79.5753C43.227 79.5253 43.207 79.3353 43.177 79.2053C43.137 79.0853 42.997 78.8653 43.007 78.8353C43.027 78.8053 43.187 78.9753 43.257 79.0253C43.337 79.0753 43.427 79.0953 43.457 79.1453M42.897 79.2053C42.877 79.0553 43.127 78.6753 43.317 78.6353C43.507 78.5853 44.017 78.7553 44.057 78.9353C44.097 79.1153 43.557 79.5153 43.527 79.7153C43.497 79.9153 43.937 80.1653 43.867 80.1353C43.797 80.1053 43.287 79.6253 43.117 79.5353C42.947 79.4353 42.817 79.5253 42.837 79.5653C42.847 79.6053 43.237 79.7553 43.217 79.7553C43.207 79.7553 42.737 79.7053 42.747 79.5653C42.767 79.4253 43.167 78.9853 43.327 78.9153C43.487 78.8453 43.667 79.1953 43.727 79.1453" stroke="#1E1E1E" stroke-width="0.5" stroke-linecap="round"/>
<path d="M42.922 79.9741C43.032 80.0741 43.122 80.3541 43.182 80.4941C43.252 80.6441 43.272 80.7641 43.312 80.8341C43.352 80.8941 43.502 80.8641 43.422 80.8841C43.342 80.9041 42.942 80.8841 42.822 80.9241C42.692 80.9741 42.752 81.1741 42.672 81.1441C42.582 81.1241 42.442 80.9341 42.322 80.7841C42.212 80.6341 41.982 80.3541 41.952 80.2541C41.932 80.1541 42.042 80.2041 42.182 80.2041C42.322 80.1941 42.692 80.1841 42.792 80.2141C42.902 80.2541 42.832 80.3841 42.792 80.4141M42.512 79.6441C42.772 79.5641 43.382 79.7141 43.492 79.9041C43.602 80.0941 43.152 80.5341 43.162 80.7741C43.182 81.0141 43.642 81.3341 43.572 81.3641C43.502 81.3941 42.942 80.9941 42.722 80.9441C42.492 80.8941 42.272 81.0241 42.212 81.0741C42.162 81.1241 42.442 81.2641 42.372 81.2441C42.292 81.2141 41.762 81.1041 41.762 80.9141C41.762 80.7241 42.122 80.1941 42.352 80.0841C42.592 79.9641 43.042 80.2841 43.172 80.2241C43.302 80.1641 43.132 79.7241 43.122 79.7241" stroke="#1E1E1E" stroke-width="0.5" stroke-linecap="round"/>
<path d="M42.9875 80.8698C42.9675 80.9298 42.9175 80.9298 42.9475 80.8898C42.9775 80.8598 43.1875 80.6998 43.1775 80.6298C43.1775 80.5698 42.9175 80.4798 42.9175 80.4998C42.9175 80.5198 43.1375 80.7398 43.1775 80.7698C43.2075 80.7898 43.1875 80.6998 43.1175 80.6498C43.0475 80.5898 42.8375 80.4398 42.7775 80.4498C42.7175 80.4498 42.7175 80.6098 42.7575 80.6498C42.7875 80.6998 42.9175 80.6998 42.9575 80.7398C42.9975 80.7798 43.0075 80.8898 42.9775 80.9098C42.9375 80.9398 42.7375 80.9898 42.7575 80.8998M43.2775 80.2498C43.3075 80.3598 42.7975 80.6698 42.8075 80.8098C42.8175 80.9498 43.3475 81.1398 43.3575 81.0898C43.3575 81.0398 42.9575 80.5798 42.8575 80.5098C42.7575 80.4498 42.6975 80.6098 42.7575 80.7098C42.8075 80.8098 43.1975 81.0598 43.1675 81.1298C43.1375 81.1998 42.6075 81.2298 42.5675 81.1298C42.5175 81.0298 42.7675 80.6098 42.8975 80.5398C43.0175 80.4798 43.2475 80.7898 43.3075 80.7398C43.3775 80.6798 43.2875 80.2298 43.2875 80.2198C43.2875 80.1998 43.3475 80.6098 43.3175 80.6598" stroke="#1E1E1E" stroke-width="0.5" stroke-linecap="round"/>
<path d="M41.5676 77.5082C41.5976 77.4882 41.5776 77.7482 41.5476 77.8782C41.5076 78.0082 41.3376 78.2182 41.3676 78.2782C41.3876 78.3282 41.6676 78.1482 41.7076 78.2082C41.7376 78.2782 41.6876 78.5382 41.5976 78.6582C41.5076 78.7882 41.2176 78.9682 41.1376 78.9582C41.0576 78.9482 41.1276 78.7582 41.1276 78.6082C41.1276 78.4582 41.1376 78.1982 41.1276 78.0582C41.1076 77.9182 41.0276 77.8582 41.0676 77.7682C41.0976 77.6882 41.3576 77.6082 41.3576 77.5782C41.3476 77.5382 41.0376 77.5282 41.0376 77.5782M41.7376 77.5882C41.8476 77.5782 41.6976 78.0082 41.6076 78.0282C41.5076 78.0482 41.1976 77.6682 41.1876 77.7282C41.1676 77.7882 41.5076 78.2282 41.4876 78.3882C41.4776 78.5582 41.2176 78.6982 41.0976 78.7282C40.9876 78.7482 40.8676 78.5982 40.8076 78.5482C40.7476 78.5082 40.7176 78.5782 40.7576 78.4682C40.7976 78.3682 41.0176 78.0482 41.0376 77.9282C41.0576 77.8082 40.8476 77.7082 40.8776 77.7282C40.8976 77.7382 41.0676 78.0282 41.2176 78.0382C41.3576 78.0382 41.7176 77.7982 41.7576 77.7782" fill="white"/>
<path d="M41.3276 77.9282C41.4276 77.8682 41.7276 77.7482 41.7776 77.7382C41.8276 77.7382 41.6376 77.7582 41.6576 77.8882C41.6776 78.0082 41.8976 78.3682 41.9076 78.4982C41.9076 78.6182 41.8276 78.6282 41.6976 78.6282C41.5676 78.6282 41.2576 78.4882 41.1276 78.4682C40.9976 78.4482 40.9276 78.5282 40.9176 78.4882C40.8976 78.4482 41.0076 78.3082 41.0476 78.2482C41.0876 78.1782 41.1376 78.1582 41.1476 78.0982C41.1676 78.0482 41.0976 78.0482 41.1576 77.9382C41.2176 77.8282 41.4776 77.4982 41.5076 77.4382M41.1476 77.8382C41.2276 77.9482 41.8476 78.1682 41.9276 78.1682C41.9976 78.1682 41.6576 77.8082 41.5876 77.8382C41.5176 77.8782 41.4676 78.1782 41.5076 78.3882C41.5376 78.5982 41.8776 78.9582 41.7876 79.0882C41.6876 79.2182 41.0676 79.2882 40.9476 79.1782C40.8376 79.0682 40.9976 78.5682 41.0776 78.4282C41.1476 78.2782 41.3376 78.4682 41.3976 78.2982C41.4576 78.1382 41.3876 77.5382 41.4376 77.4382C41.4876 77.3482 41.6676 77.6782 41.6876 77.7082C41.6976 77.7282 41.4976 77.4882 41.4976 77.5682" stroke="white" stroke-width="0.5" stroke-linecap="round"/>
<path fill-rule="evenodd" clip-rule="evenodd" d="M40.2905 77.9105C40.18 77.7817 39.8191 78.3058 40.0348 78.5028C40.2504 78.6997 41.2685 79.1585 41.5837 79.1023C41.9088 79.0468 41.752 78.4733 41.9558 78.1679" fill="white"/>
<path d="M40.4043 78.2602C40.5984 78.3452 41.0635 78.8219 41.3266 78.9222C41.5798 79.0218 41.9173 79.0676 41.9539 78.8497C41.9906 78.6319 41.6449 77.7731 41.5466 77.6152M41.0001 78.0749C41.1941 78.0296 41.0739 78.2912 41.2211 78.3325C41.3784 78.3746 41.8493 78.3804 41.9145 78.3152C41.9689 78.2591 41.5754 78.1589 41.5806 77.9587" stroke="#1E1E1E" stroke-width="0.5" stroke-linecap="round"/>
<path fill-rule="evenodd" clip-rule="evenodd" d="M40.3631 77.8891C40.2035 77.6896 39.912 77.9128 40.1212 77.9639C40.3305 78.0149 41.2935 78.1811 41.6201 78.2053" fill="white"/>
<path d="M40.9457 78.079C41.1097 78.0961 41.4235 78.3848 41.5239 78.3099C41.6357 78.2435 41.5894 77.7047 41.571 77.6467M40.6219 77.8624C40.7507 77.7734 41.2032 77.8303 41.3305 77.8728C41.4563 77.9054 41.3925 78.167 41.3911 78.0864" stroke="#1E1E1E" stroke-width="0.5" stroke-linecap="round"/>
<path d="M44.2448 77.3147C44.3948 77.2747 44.5348 77.5147 44.5648 77.6847C44.6048 77.8547 44.4648 78.1847 44.4648 78.3347C44.4748 78.4947 44.5948 78.5547 44.5848 78.6047C44.5848 78.6647 44.5148 78.6447 44.4148 78.6547C44.3148 78.6647 44.0648 78.7147 43.9648 78.6647C43.8748 78.6047 43.9148 78.4347 43.8348 78.3147C43.7548 78.1947 43.4648 78.0147 43.4748 77.9447C43.4948 77.8747 43.8148 77.9547 43.9248 77.8847C44.0448 77.8147 44.1048 77.5247 44.1648 77.5247C44.2248 77.5347 44.3048 77.8947 44.2848 77.9247M44.0348 77.5147C44.1348 77.5847 44.0548 77.6947 44.0648 77.7647C44.0848 77.8447 44.1048 77.8247 44.1348 77.9447C44.1548 78.0547 44.1648 78.3747 44.1948 78.4647C44.2248 78.5647 44.3848 78.4847 44.3148 78.5047C44.2448 78.5247 43.8748 78.5447 43.7748 78.5847C43.6748 78.6347 43.6248 78.8347 43.7048 78.7547C43.7748 78.6747 44.1648 78.2647 44.2248 78.1147C44.2848 77.9747 44.1448 77.9247 44.0648 77.8847C43.9748 77.8347 43.7348 77.9447 43.7248 77.8447C43.7048 77.7447 43.9548 77.2947 43.9648 77.2747" fill="white"/>
<path d="M44.4048 77.6547C44.5148 77.6747 44.6048 77.6347 44.6048 77.6547C44.6048 77.6847 44.4548 77.6747 44.4048 77.7947C44.3648 77.9147 44.3648 78.2347 44.3548 78.4047C44.3448 78.5647 44.4048 78.6647 44.3648 78.7547C44.3248 78.8447 44.2248 78.9647 44.1148 78.9547C43.9948 78.9447 43.7148 78.8947 43.6948 78.7047C43.6748 78.5147 43.9448 78.0147 43.9948 77.8347C44.0348 77.6447 44.0148 77.6147 43.9748 77.6247C43.9448 77.6347 43.8048 77.8947 43.7848 77.8947C43.7748 77.8847 43.7948 77.5647 43.8648 77.5747M44.0448 77.6047C44.1748 77.7147 44.6748 78.0447 44.7048 78.2047C44.7348 78.3647 44.2448 78.5447 44.2048 78.5747C44.1648 78.5947 44.3948 78.3347 44.4648 78.3647C44.5448 78.4047 44.6748 78.8147 44.6548 78.7847C44.6448 78.7647 44.4348 78.2847 44.3648 78.2247C44.2948 78.1547 44.2848 78.4447 44.2348 78.3847C44.1748 78.3247 44.0148 77.9047 44.0448 77.8747C44.0648 77.8347 44.4248 78.2947 44.3848 78.1747C44.3548 78.0647 43.8248 77.2147 43.8248 77.1847C43.8248 77.1647 44.2548 77.9047 44.3648 78.0547" stroke="white" stroke-width="0.5" stroke-linecap="round"/>
<path fill-rule="evenodd" clip-rule="evenodd" d="M45.1731 78.6042C45.2882 78.5437 45.4356 78.1692 45.3774 78.3049C45.33 78.4496 45.2711 79.4789 44.8366 79.4473C44.412 79.4148 43.0699 78.6609 42.782 78.1343" fill="white"/>
<path d="M44.6788 78.1261C44.5093 78.2516 44.1964 79.0224 44.0359 79.1371C43.8646 79.2427 43.7282 79.0641 43.6635 78.7887C43.5898 78.5242 43.6501 77.7358 43.6116 77.5284M44.2148 77.8763C44.1502 78.0527 44.8174 78.5555 44.6824 78.6177C44.5483 78.6899 43.59 78.4138 43.4173 78.2786C43.2546 78.1425 43.5882 77.9421 43.6681 77.8245" stroke="#1E1E1E" stroke-width="0.5" stroke-linecap="round"/>
<path fill-rule="evenodd" clip-rule="evenodd" d="M44.9393 78.6344C45.0874 78.5023 45.3595 77.8014 45.316 77.8261C45.2811 77.8619 45.1408 78.7916 44.6942 78.8145" fill="white"/>
<path d="M44.3439 78.3256C44.2668 78.3761 44.2044 78.4689 44.0797 78.3418C43.9549 78.2148 43.709 77.699 43.5955 77.5634M44.9073 78.2572C44.7935 78.2022 44.1658 77.9093 43.892 77.8437C43.6268 77.7892 43.3906 77.8999 43.2902 77.897" stroke="#1E1E1E" stroke-width="0.5" stroke-linecap="round"/>
<path d="M42.3363 80.5862C42.3763 80.6362 42.5263 80.6562 42.5663 80.7162C42.6063 80.7662 42.6163 80.8962 42.5763 80.9362C42.5463 80.9762 42.3363 81.0362 42.3463 80.9662C42.3663 80.8862 42.6463 80.5462 42.6663 80.4762C42.6863 80.4162 42.5963 80.5162 42.4863 80.5962C42.3863 80.6762 42.0963 80.9662 42.0263 80.9762C41.9663 80.9762 42.0163 80.6162 42.0863 80.6062C42.1663 80.5962 42.3763 80.9262 42.4663 80.9262C42.5663 80.9162 42.7163 80.6462 42.6763 80.5762C42.6463 80.5162 42.3163 80.4862 42.2763 80.5262M42.4863 80.4762C42.6163 80.4262 42.8563 80.7662 42.9163 80.7262C42.9863 80.6862 42.8863 80.2462 42.8863 80.2462C42.8863 80.2462 42.9363 80.6662 42.9063 80.7262C42.8763 80.7862 42.6963 80.5262 42.6963 80.6062C42.6863 80.6862 42.9563 81.2562 42.8463 81.1962C42.7363 81.1362 42.0663 80.2762 42.0163 80.2562C41.9663 80.2362 42.4463 80.9462 42.5563 81.0662C42.6663 81.1962 42.7463 81.0862 42.6863 81.0162C42.6163 80.9362 42.2063 80.7662 42.1763 80.6362C42.1463 80.4962 42.4263 80.1762 42.4963 80.1962" stroke="#1E1E1E" stroke-width="0.5" stroke-linecap="round"/>
<path d="M40.7815 82.8762C40.7115 82.8962 40.5115 83.2162 40.5015 83.3162M41.3815 82.5462C41.4215 82.7762 41.3015 83.6762 41.1615 83.7362" stroke="#1E1E1E" stroke-width="0.5" stroke-linecap="round"/>
<path fill-rule="evenodd" clip-rule="evenodd" d="M40.2002 81.4645C40.6502 81.1845 42.3002 81.2345 42.4402 81.5845C42.5702 81.9345 41.1102 83.1145 41.0102 83.5745C40.9202 84.0345 41.9702 84.5145 41.8902 84.3645" fill="white"/>
<path d="M40.4102 82.7245C40.5102 82.7345 41.0802 82.6845 41.2302 82.7745C41.3802 82.8545 41.3602 83.1845 41.3002 83.2345C41.2502 83.2845 40.9702 83.0345 40.9002 83.0645M40.9202 82.3945C40.9802 82.2945 40.9102 82.1845 40.9402 82.2245C40.9802 82.2645 41.2802 82.4345 41.1302 82.6245C40.9902 82.8045 40.1402 83.1645 40.0602 83.3445" stroke="#1E1E1E" stroke-width="0.5" stroke-linecap="round"/>
<path fill-rule="evenodd" clip-rule="evenodd" d="M43.338 82.2965C43.398 82.4965 41.988 82.8665 42.058 83.2365C42.118 83.6165 43.668 84.7265 43.728 84.5465C43.798 84.3665 42.708 82.4665 42.458 82.1465" fill="white"/>
<path d="M42.128 83.4765C42.208 83.4165 42.238 82.9365 42.348 82.8965C42.448 82.8565 42.658 83.2465 42.748 83.2565C42.828 83.2565 42.908 82.9965 42.828 82.9165M41.688 83.2465C41.758 83.0865 41.958 82.2965 42.128 82.3465C42.288 82.4065 42.518 83.5965 42.678 83.5865C42.838 83.5865 43.038 82.4165 43.058 82.3065" stroke="#1E1E1E" stroke-width="0.5" stroke-linecap="round"/>
<path fill-rule="evenodd" clip-rule="evenodd" d="M43.0849 83.1546C43.0249 83.5546 44.1049 84.1146 44.1149 84.0346C44.1149 83.9546 43.3749 82.8046 43.0849 82.6946C42.7949 82.5746 42.2849 83.0346 42.3749 83.3446" fill="white"/>
<path d="M43.3749 82.8146C43.3549 82.8046 43.1049 82.6346 43.1249 82.7446C43.1349 82.8546 43.5749 83.3446 43.4649 83.4646C43.3449 83.5846 42.5749 83.5546 42.4249 83.4846M43.0049 82.5846C42.9649 82.6046 42.9349 83.0846 43.0049 83.1446C43.0649 83.1946 43.4949 82.7946 43.3849 82.9146C43.2849 83.0346 42.4149 83.8646 42.3749 83.8746" stroke="#1E1E1E" stroke-width="0.5" stroke-linecap="round"/>
<path fill-rule="evenodd" clip-rule="evenodd" d="M45.1009 83.8665C45.0609 83.7365 43.6609 82.4865 43.3809 82.3965C43.1109 82.2965 43.3209 82.9265 43.4509 83.2865C43.5809 83.6465 44.3109 84.3465 44.1609 84.5765" fill="white"/>
<path d="M44.1109 82.5665C44.0909 82.6265 43.8609 83.0265 43.7509 83.1665C43.6509 83.3065 43.6109 83.4465 43.5009 83.4265C43.3909 83.4165 43.0909 83.1265 43.0909 83.0765M43.8409 82.2165C43.7909 82.1665 43.5709 82.5865 43.6309 82.6765C43.6909 82.7765 44.3109 82.7165 44.2209 82.8065C44.1309 82.8965 43.2709 83.1765 43.1009 83.2265" stroke="#1E1E1E" stroke-width="0.5" stroke-linecap="round"/>
<path fill-rule="evenodd" clip-rule="evenodd" d="M42.7141 84.49C42.7741 84.21 41.7941 82.32 41.6041 82.12C41.4141 81.91 41.3741 82.88 41.5741 83.27" fill="white"/>
<path d="M41.7141 83.56C41.6641 83.48 41.4241 82.84 41.4241 82.74C41.4341 82.64 41.6141 82.9 41.7441 82.95M41.4441 83.39C41.4741 83.21 42.0941 82.22 42.1041 82.18C42.1041 82.15 41.4041 82.99 41.4541 83.16" stroke="#1E1E1E" stroke-width="0.5" stroke-linecap="round"/>
<path d="M41.2415 83.2525C41.2315 83.1225 41.5915 82.6925 41.7415 82.5925M41.7615 83.0125C41.6715 82.8825 41.3515 82.8825 41.4015 82.8725" stroke="#1E1E1E" stroke-width="0.5" stroke-linecap="round"/>
<path fill-rule="evenodd" clip-rule="evenodd" d="M43.7309 83.325C43.9509 83.485 45.2309 83.585 45.2509 83.805C45.2709 84.025 43.9409 84.765 43.8609 84.645" fill="white"/>
<path d="M43.9009 83.005C44.0409 82.825 44.5109 82.295 44.6109 82.385C44.7209 82.475 44.4609 83.315 44.5109 83.545M44.4809 83.605C44.6209 83.445 44.5309 82.815 44.4909 82.705C44.4609 82.585 44.3309 82.845 44.2609 82.915" stroke="#1E1E1E" stroke-width="0.5" stroke-linecap="round"/>
<path d="M44.403 82.8068C44.473 82.8668 44.373 83.0268 44.443 83.1068M44.123 83.4368C44.163 83.4168 44.033 82.6568 44.143 82.5468" stroke="#1E1E1E" stroke-width="0.5" stroke-linecap="round"/>
<path d="M52.9895 62.9326C54.0295 62.8826 55.4395 63.0826 56.4495 62.9326C59.8395 60.4226 55.8395 65.9826 58.1795 64.6626C58.8195 66.6026 58.5295 67.5826 58.1795 71.6426C59.8495 71.4326 60.0095 73.1626 56.4495 73.3726C54.9695 73.6126 53.8895 73.4326 52.9895 73.3726C52.2195 75.2226 52.0795 70.3526 51.2595 71.6426C50.4195 68.4826 51.1895 66.6726 51.2595 64.6626C52.7195 64.9626 52.1395 63.0026 52.9895 62.9326Z" fill="white"/>
<path d="M52.9895 62.9326C54.3795 63.0926 55.8095 62.9226 56.4495 62.9326M52.9895 62.9326C53.9595 63.0026 54.7695 63.0126 56.4495 62.9326M52.9895 62.9326C51.0295 63.4126 51.6095 63.8626 51.2595 64.6626M52.9895 62.9326C51.1495 63.0726 50.8995 62.7226 51.2595 64.6626M56.4495 62.9326C57.7795 62.7026 59.1495 63.7226 58.1795 64.6626M56.4495 62.9326C58.6195 62.0026 59.2595 63.6026 58.1795 64.6626M58.1795 64.6626C58.5095 66.9326 57.8795 69.8026 58.1795 71.6426M58.1795 64.6626C58.1195 67.3726 58.2295 69.9126 58.1795 71.6426M58.1795 71.6426C58.5695 73.1926 56.7095 74.0626 56.4495 73.3726M58.1795 71.6426C57.9595 72.8426 58.5095 74.0126 56.4495 73.3726M56.4495 73.3726C55.2295 73.3726 54.0395 73.3226 52.9895 73.3726M56.4495 73.3726C55.7295 73.3826 54.9095 73.4126 52.9895 73.3726M52.9895 73.3726C52.7595 73.2326 51.4495 73.2626 51.2595 71.6426M52.9895 73.3726C50.8095 72.4626 51.0595 72.5826 51.2595 71.6426M51.2595 71.6426C51.1495 69.8026 51.2695 68.3326 51.2595 64.6626M51.2595 71.6426C51.2495 69.9126 51.4395 67.9526 51.2595 64.6626" stroke="#1E1E1E" stroke-width="0.5" stroke-linecap="round"/>
<path d="M53.2242 63.3666C54.1642 63.3566 54.8942 63.3366 56.2042 63.3666M53.2242 63.3666C54.0942 63.4066 55.0142 63.3466 56.2042 63.3666M53.2242 63.3666C52.0242 62.9066 51.1942 64.1866 51.7342 64.8566M53.2242 63.3666C52.7542 64.0566 51.2742 63.9566 51.7342 64.8566M56.2042 63.3666C57.8442 63.5066 58.2842 63.3266 57.6942 64.8566M56.2042 63.3666C57.9142 63.4266 58.1342 63.7066 57.6942 64.8566M57.6942 64.8566C57.5342 67.5766 57.9042 70.2566 57.6942 71.4866M57.6942 64.8566C57.7042 67.2966 57.7242 69.9566 57.6942 71.4866M57.6942 71.4866C57.1042 72.9366 57.0742 73.0066 56.2042 72.9766M57.6942 71.4866C58.3042 72.9066 57.5942 73.4466 56.2042 72.9766M56.2042 72.9766C55.3342 72.9466 54.3442 72.9466 53.2242 72.9766M56.2042 72.9766C55.2542 72.9966 54.3642 72.9666 53.2242 72.9766M53.2242 72.9766C52.3542 73.2866 51.1442 71.9466 51.7342 71.4866M53.2242 72.9766C52.0942 72.8366 51.3042 72.4866 51.7342 71.4866M51.7342 71.4866C51.7442 69.9866 51.6642 68.2966 51.7342 64.8566M51.7342 71.4866C51.8442 69.5866 51.7742 67.6866 51.7342 64.8566" stroke="#1E1E1E" stroke-width="0.5" stroke-linecap="round"/>
<path d="M54.9496 65.414C55.4196 65.344 56.0196 65.704 56.3196 66.044C56.6096 66.384 56.6396 66.994 56.6996 67.444C56.7596 67.884 56.8896 68.364 56.6496 68.724C56.4096 69.094 55.6696 69.494 55.2496 69.634C54.8296 69.774 54.5096 69.694 54.1196 69.564C53.7296 69.434 53.0896 69.294 52.9096 68.874C52.7196 68.454 52.9796 67.474 53.0096 67.034C53.0296 66.594 52.7396 66.424 53.0696 66.214C53.3996 66.014 54.6696 65.914 54.9896 65.784C55.3096 65.664 55.0496 65.454 55.0096 65.464M54.0196 65.934C54.3896 65.824 55.2496 65.684 55.7596 65.894C56.2796 66.114 56.9296 66.764 57.1196 67.214C57.3196 67.654 57.1596 68.224 56.9296 68.564C56.6896 68.904 56.1296 69.094 55.6996 69.254C55.2596 69.414 54.7696 69.664 54.3096 69.504C53.8596 69.344 53.2596 68.634 52.9696 68.304C52.6696 67.974 52.4396 67.854 52.5196 67.524C52.5996 67.184 53.1396 66.564 53.4496 66.284C53.7496 66.004 54.0996 65.964 54.3496 65.834C54.5996 65.714 54.8896 65.534 54.9296 65.564" stroke="#1E1E1E" stroke-width="0.5" stroke-linecap="round"/>
<path d="M54.314 66.9854C54.324 67.0754 54.154 67.2654 54.174 67.3554C54.194 67.4554 54.454 67.4754 54.424 67.5454C54.394 67.6154 54.064 67.7554 54.014 67.7954C53.954 67.8354 54.134 67.7854 54.084 67.8054C54.044 67.8254 53.754 68.0054 53.734 67.9054C53.714 67.8054 54.024 67.2954 53.954 67.1954C53.884 67.0954 53.314 67.3154 53.324 67.3154C53.344 67.3154 53.894 67.2854 54.054 67.1954C54.214 67.1054 54.294 66.8154 54.294 66.7854C54.294 66.7454 54.144 66.9554 54.054 67.0054M53.904 66.9454C54.124 66.9354 54.514 67.2054 54.634 67.3054C54.754 67.4054 54.674 67.5154 54.614 67.5454C54.554 67.5754 54.364 67.4554 54.284 67.4754C54.194 67.5054 54.194 67.7354 54.094 67.6954C54.004 67.6454 53.794 67.2254 53.694 67.1954C53.594 67.1654 53.474 67.4954 53.494 67.5054C53.524 67.5254 53.824 67.3154 53.844 67.2654C53.874 67.2254 53.534 67.3054 53.634 67.2354C53.734 67.1754 54.384 66.8654 54.464 66.8554C54.534 66.8454 54.244 67.2154 54.094 67.1654" stroke="#1E1E1E" stroke-width="0.5" stroke-linecap="round"/>
<path d="M55.2429 67.2475C55.2829 67.2775 55.6129 67.2375 55.6429 67.2775C55.6729 67.3175 55.4429 67.4375 55.4529 67.4875C55.4629 67.5475 55.7229 67.5375 55.7229 67.6075C55.7229 67.6775 55.4629 67.9375 55.4429 67.8975C55.4229 67.8675 55.6929 67.4375 55.5829 67.3875C55.4629 67.3375 54.8129 67.5975 54.7629 67.6075C54.7029 67.6175 55.1629 67.5675 55.2629 67.4475C55.3629 67.3275 55.3429 66.9475 55.3529 66.8675C55.3729 66.7975 55.4029 66.9575 55.3629 66.9875C55.3129 67.0175 55.0629 67.1075 55.0829 67.0575M55.7929 67.1975C55.9329 67.2475 55.9029 67.3275 55.8829 67.3375C55.8729 67.3475 55.7529 67.2175 55.7229 67.2575C55.6829 67.2875 55.7429 67.5675 55.6729 67.5575C55.6029 67.5475 55.4229 67.1875 55.3129 67.2075C55.2129 67.2175 55.0529 67.6075 55.0429 67.6575C55.0329 67.7075 55.2729 67.5275 55.2429 67.4775C55.2129 67.4375 54.8129 67.5075 54.8729 67.4175C54.9329 67.3175 55.5029 66.9475 55.6029 66.9075C55.7029 66.8575 55.6029 67.2175 55.4929 67.1575C55.3829 67.0875 54.9829 66.5775 54.9529 66.5275" stroke="#1E1E1E" stroke-width="0.5" stroke-linecap="round"/>
<path d="M54.7879 68.2863C54.8879 68.2863 54.7579 68.3863 54.8479 68.4363C54.9379 68.4963 55.2979 68.5163 55.3479 68.6263C55.3979 68.7363 55.1879 69.0663 55.1679 69.0963C55.1479 69.1163 55.3879 68.7763 55.2279 68.7763C55.0679 68.7763 54.3179 69.0963 54.1879 69.1263C54.0579 69.1563 54.4079 69.1063 54.4379 68.9663C54.4679 68.8163 54.3779 68.3863 54.3579 68.2563C54.3479 68.1263 54.3279 68.1963 54.3379 68.1763C54.3579 68.1563 54.3779 68.2063 54.4679 68.1263C54.5579 68.0563 54.7979 67.7363 54.8779 67.7163M54.9679 68.3063C55.0279 68.2563 55.0379 68.0963 55.0979 68.1263C55.1579 68.1563 55.3379 68.4663 55.3379 68.5063C55.3379 68.5463 55.2079 68.2763 55.1179 68.3663C55.0179 68.4563 54.8379 68.9563 54.7779 69.0663C54.7079 69.1863 54.8479 69.0763 54.7279 69.0663C54.6079 69.0563 54.0779 69.1263 54.0479 69.0063C54.0179 68.8863 54.4879 68.4563 54.5479 68.3463C54.6079 68.2363 54.4479 68.4763 54.3979 68.3463C54.3479 68.2263 54.2279 67.6763 54.2579 67.5963C54.2979 67.5263 54.5979 67.8363 54.6179 67.9163" stroke="#1E1E1E" stroke-width="0.5" stroke-linecap="round"/>
<path d="M54.6834 68.812C54.6834 68.802 54.9634 68.702 54.9934 68.712C55.0334 68.722 54.8634 68.932 54.9134 68.872C54.9634 68.812 55.3434 68.392 55.3034 68.362C55.2634 68.342 54.6834 68.672 54.6734 68.742C54.6534 68.812 55.1234 68.862 55.2134 68.812C55.2934 68.752 55.2234 68.452 55.1734 68.422C55.1334 68.382 55.0134 68.562 54.9334 68.602C54.8434 68.642 54.6334 68.702 54.6534 68.642C54.6834 68.572 54.9934 68.242 55.0834 68.212C55.1734 68.172 55.2034 68.352 55.1834 68.442M54.9334 68.512C54.9034 68.472 55.0034 68.662 54.9834 68.602C54.9734 68.542 54.8834 68.142 54.8534 68.152C54.8234 68.162 54.7834 68.572 54.8334 68.662C54.8934 68.752 55.1934 68.642 55.1934 68.672C55.1934 68.702 54.7834 68.872 54.8134 68.842C54.8434 68.812 55.3334 68.512 55.3634 68.502C55.4034 68.492 55.1534 68.832 55.0034 68.772C54.8534 68.712 54.5034 68.172 54.4734 68.112C54.4534 68.052 54.8234 68.342 54.8634 68.412C54.8934 68.472 54.7034 68.522 54.6634 68.512" stroke="#1E1E1E" stroke-width="0.5" stroke-linecap="round"/>
<path d="M53.5935 65.8604C53.6835 65.8704 53.6135 65.7904 53.6535 65.7704C53.6935 65.7404 53.8035 65.6104 53.8335 65.6904C53.8635 65.7704 53.9435 66.1104 53.8435 66.2204C53.7535 66.3404 53.3735 66.2804 53.2835 66.3804C53.1835 66.4804 53.2835 66.7804 53.3035 66.8304C53.3135 66.8804 53.4435 66.8204 53.3635 66.6904C53.2835 66.5504 52.8935 66.1504 52.8335 66.0104C52.7835 65.8704 52.9135 65.9604 53.0435 65.8304C53.1835 65.7004 53.6335 65.2104 53.6335 65.2204C53.6435 65.2204 53.1335 65.8504 53.0535 65.8704M53.5635 65.2904C53.6235 65.2104 53.7835 65.2704 53.8835 65.3704C53.9935 65.4704 54.1635 65.6504 54.1735 65.8904C54.1835 66.1304 54.1035 66.7304 53.9335 66.7904C53.7635 66.8504 53.2335 66.3304 53.1735 66.2704C53.1135 66.2104 53.5835 66.4004 53.5835 66.4404C53.5835 66.4704 53.2135 66.5204 53.1735 66.4804C53.1335 66.4404 53.4535 66.2604 53.3635 66.2004C53.2735 66.1404 52.5835 66.1704 52.6335 66.1104C52.6935 66.0604 53.6535 66.0204 53.6935 65.8804C53.7435 65.7404 52.9635 65.3004 52.9035 65.2804" fill="white"/>
<path d="M53.4435 65.7404C53.5535 65.7504 53.4635 66.0204 53.5635 66.0404C53.6635 66.0604 54.0835 65.7704 54.0535 65.8504C54.0235 65.9404 53.4235 66.4004 53.3635 66.5604C53.3135 66.7304 53.7135 66.8504 53.7235 66.8304C53.7435 66.8004 53.5735 66.4904 53.4635 66.4104C53.3535 66.3304 53.1735 66.4104 53.0535 66.3504C52.9335 66.2904 52.7135 66.2104 52.7535 66.0404C52.8035 65.8704 53.1635 65.4204 53.3135 65.3304C53.4635 65.2304 53.6335 65.4004 53.6535 65.4904C53.6835 65.5704 53.4635 65.7804 53.4535 65.8304M53.4235 65.6304C53.4735 65.5604 53.4735 65.2204 53.4935 65.3104C53.5235 65.3904 53.5235 65.9304 53.5835 66.1304C53.6535 66.3204 53.9435 66.3604 53.9035 66.4804C53.8635 66.6004 53.3735 66.8504 53.3435 66.8604C53.3035 66.8604 53.7035 66.5504 53.6635 66.5004C53.6335 66.4504 53.3135 66.7004 53.1335 66.5404C52.9435 66.3804 52.5835 65.7004 52.5735 65.5404C52.5635 65.3704 52.9835 65.5404 53.0735 65.5404C53.1635 65.5404 53.1235 65.5804 53.1235 65.5504C53.1235 65.5304 53.0635 65.3904 53.0735 65.4004" stroke="white" stroke-width="0.5" stroke-linecap="round"/>
<path fill-rule="evenodd" clip-rule="evenodd" d="M53.4634 67.1886C53.369 67.1112 52.4302 67.0597 52.5443 66.7475C52.6584 66.4352 53.8787 65.4251 54.1478 65.3153C54.4177 65.1954 54.4749 65.8918 54.1713 66.0592" fill="white"/>
<path d="M52.9931 65.7286C53.0844 65.8459 53.3342 66.6472 53.4969 66.7499C53.6603 66.8426 53.9178 66.4912 53.9997 66.337C54.0817 66.1827 54.0731 66.0316 53.9779 65.8338M52.6867 66.3271C52.7144 66.4897 53.1658 67.1459 53.3522 67.2002C53.5486 67.2553 53.8782 67.0097 53.8535 66.6768C53.8287 66.344 53.1739 65.4616 53.2036 65.2031" stroke="#1E1E1E" stroke-width="0.5" stroke-linecap="round"/>
<path fill-rule="evenodd" clip-rule="evenodd" d="M53.8117 66.9021C53.6788 66.7493 52.7088 66.5337 52.6992 66.1108C52.6995 65.6865 53.5447 64.3846 53.8134 64.3565" fill="white"/>
<path d="M53.1024 65.8919C53.1787 65.9315 53.3273 65.8397 53.4857 65.8172C53.6455 65.8046 54.0825 65.894 54.0783 65.7936M52.8127 65.6301C52.8409 65.7574 53.1813 66.3049 53.3765 66.2569C53.5703 66.1991 53.947 65.4385 53.957 65.2957" stroke="#1E1E1E" stroke-width="0.5" stroke-linecap="round"/>
<path d="M56.3707 65.3869C56.3907 65.3969 56.1707 65.2969 56.2107 65.4369C56.2507 65.5669 56.5007 65.9969 56.5907 66.1969C56.6907 66.3969 56.8707 66.5769 56.7907 66.6369C56.7207 66.6969 56.2607 66.5369 56.1307 66.5369C55.9907 66.5469 55.9707 66.7669 55.9807 66.6769C55.9807 66.5769 56.2307 66.0269 56.1607 65.9469C56.0807 65.8769 55.6007 66.3269 55.5407 66.2169C55.4807 66.1169 55.7007 65.3969 55.7807 65.3169C55.8607 65.2369 55.9207 65.6969 56.0107 65.7569C56.1007 65.8169 56.3207 65.6569 56.3207 65.6569M56.4007 65.9769C56.3407 65.9169 55.9707 65.3269 56.0507 65.2869C56.1207 65.2369 56.7507 65.5469 56.8507 65.7169C56.9407 65.8969 56.6407 66.1769 56.6207 66.3369C56.5907 66.4969 56.8607 66.5769 56.7007 66.6769C56.5307 66.7869 55.7007 66.9569 55.6307 66.9569C55.5607 66.9569 56.3007 66.8869 56.2607 66.6769C56.2307 66.4669 55.4607 65.8469 55.4107 65.7069C55.3507 65.5669 55.7607 65.8369 55.9307 65.8469C56.1107 65.8469 56.3907 65.8269 56.4407 65.7669C56.4907 65.7169 56.3307 65.5469 56.2207 65.5169" fill="white"/>
<path d="M55.9707 65.637C56.0407 65.717 56.6107 65.847 56.7507 65.887C56.9007 65.927 56.8707 65.787 56.8207 65.877C56.7807 65.967 56.6407 66.307 56.5007 66.437C56.3607 66.577 56.0507 66.737 55.9907 66.697C55.9407 66.657 56.1307 66.297 56.1507 66.207C56.1607 66.117 56.1307 66.177 56.0807 66.157C56.0407 66.147 55.8507 66.187 55.8607 66.117C55.8807 66.047 56.0907 65.837 56.1907 65.737C56.2907 65.637 56.4507 65.527 56.4607 65.487C56.4707 65.457 56.2907 65.527 56.2707 65.517M56.3907 65.567C56.4607 65.577 56.1707 65.777 56.2707 65.817C56.3707 65.857 56.9407 65.687 57.0007 65.797C57.0607 65.907 56.8007 66.417 56.6207 66.467C56.4407 66.527 56.0107 66.117 55.9207 66.117C55.8207 66.117 56.0807 66.427 56.0307 66.467C55.9807 66.507 55.7107 66.467 55.6207 66.367C55.5407 66.267 55.4907 65.967 55.5007 65.857C55.5207 65.737 55.6007 65.767 55.7307 65.677C55.8607 65.587 56.2307 65.367 56.2707 65.327C56.3107 65.287 56.0007 65.357 55.9707 65.447" stroke="white" stroke-width="0.5" stroke-linecap="round"/>
<path fill-rule="evenodd" clip-rule="evenodd" d="M57.3885 66.4757C57.0898 66.954 55.4831 67.7396 55.1518 67.739C54.8295 67.7275 55.122 66.7277 55.4194 66.4602C55.7169 66.1928 56.7581 66.1603 56.9456 66.1236" fill="white"/>
<path d="M57.1607 66.2851C57.0076 66.369 56.2607 66.3251 56.0361 66.3953C55.8205 66.4546 55.8506 66.7933 55.85 66.6729C55.8502 66.5624 56.0732 65.9101 56.0355 65.7126M56.9002 66.1778C56.8402 66.2936 56.9509 66.6351 56.74 66.6338C56.539 66.6316 55.7563 66.4102 55.6536 66.1583C55.5608 65.9055 56.08 65.1967 56.1716 65.0982" stroke="#1E1E1E" stroke-width="0.5" stroke-linecap="round"/>
<path fill-rule="evenodd" clip-rule="evenodd" d="M57.1542 66.532C56.7708 66.8454 55.0925 66.8806 54.8116 66.7132C54.5407 66.5471 55.1698 65.5798 55.5 65.5216" fill="white"/>
<path d="M56.4908 65.5791C56.3705 65.5736 56.3592 66.2074 56.2734 66.2467C56.1778 66.2848 56.0601 65.9469 55.9453 65.8212M56.9382 66.252C56.7508 66.2983 56.3045 65.9281 56.1341 65.7649C55.9536 65.6004 56.0084 65.2546 55.9153 65.2728" stroke="#1E1E1E" stroke-width="0.5" stroke-linecap="round"/>
<path d="M54.5222 68.5484C54.4422 68.5884 54.2322 68.6784 54.2622 68.6284C54.2922 68.5784 54.5922 68.2584 54.6722 68.2384C54.7622 68.2184 54.7922 68.4084 54.7622 68.5084C54.7322 68.6184 54.5322 68.8184 54.5122 68.8584C54.4922 68.8984 54.6322 68.8084 54.6522 68.7584C54.6722 68.7084 54.6722 68.5884 54.6422 68.5584C54.6022 68.5184 54.4622 68.5584 54.4422 68.5284C54.4222 68.5084 54.5522 68.4284 54.5122 68.4084C54.4722 68.3784 54.2222 68.3484 54.2322 68.3884C54.2322 68.4284 54.5022 68.6384 54.5522 68.6384M54.5922 68.7084C54.4522 68.6584 54.1022 68.1484 54.0822 68.0984C54.0622 68.0584 54.4322 68.3584 54.4522 68.4384C54.4822 68.5184 54.3022 68.5784 54.2522 68.5784C54.2022 68.5784 54.1722 68.4384 54.1722 68.4384C54.1822 68.4484 54.2022 68.6084 54.2722 68.5984C54.3322 68.5984 54.5622 68.4184 54.5622 68.3984C54.5622 68.3784 54.2922 68.3884 54.2622 68.4684C54.2322 68.5484 54.2722 68.8484 54.3922 68.8684C54.5122 68.8884 54.9222 68.6184 54.9722 68.5884C55.0122 68.5484 54.8122 68.6284 54.6722 68.6584" stroke="#1E1E1E" stroke-width="0.5" stroke-linecap="round"/>
<path d="M53.1774 71.0984C53.1074 71.1284 52.7574 71.3084 52.7174 71.2884M52.8674 70.9384C52.7274 71.1784 52.3774 71.7084 52.3574 71.7484" stroke="#1E1E1E" stroke-width="0.5" stroke-linecap="round"/>
<path fill-rule="evenodd" clip-rule="evenodd" d="M53.4961 71.5166C53.4061 71.3666 53.3361 70.5766 53.3161 70.5266C53.2861 70.4766 53.5061 71.3066 53.3361 71.2066C53.1761 71.1066 52.4961 69.9266 52.3261 69.9366" fill="white"/>
<path d="M52.6161 70.6966C52.6861 70.5666 53.2761 70.1466 53.4061 70.2166C53.5461 70.2866 53.6061 70.9366 53.4261 71.1166C53.2561 71.2966 52.5061 71.2966 52.3661 71.2866M53.1861 70.3966C53.1961 70.2866 53.1561 70.5066 53.1661 70.5266C53.1861 70.5366 53.4261 70.4766 53.2761 70.5066C53.1261 70.5266 52.4661 70.5466 52.2761 70.6666" stroke="#1E1E1E" stroke-width="0.5" stroke-linecap="round"/>
<path fill-rule="evenodd" clip-rule="evenodd" d="M54.2039 71.2387C54.1139 71.0387 54.3839 71.0587 54.3839 70.8687C54.3739 70.6887 54.1939 70.1387 54.1739 70.1187C54.1539 70.0987 54.0539 70.6587 54.2439 70.7587" fill="white"/>
<path d="M54.3039 70.9287C54.3739 70.8487 54.4839 70.6887 54.4739 70.7787C54.4539 70.8687 54.1939 71.5187 54.2139 71.4787C54.2239 71.4387 54.4439 70.6687 54.5639 70.5487M53.9139 71.5487C53.9639 71.3587 54.1039 70.3387 54.2639 70.2287C54.4339 70.1287 54.8439 70.8087 54.9039 70.9087C54.9539 71.0187 54.6439 70.8687 54.5939 70.8787" stroke="#1E1E1E" stroke-width="0.5" stroke-linecap="round"/>
<path fill-rule="evenodd" clip-rule="evenodd" d="M55.4109 70.7868C55.2809 70.6268 54.6409 69.5268 54.5509 69.6068C54.4609 69.6968 54.7309 70.9968 54.8709 71.3068C55.0209 71.6168 55.5009 71.3568 55.4309 71.4668" fill="white"/>
<path d="M55.5009 70.6968C55.3609 70.8168 54.6409 70.8968 54.5909 70.9668C54.5409 71.0268 55.1109 71.0068 55.1909 71.0868C55.2709 71.1668 55.0809 71.3768 55.0409 71.4468M55.1409 70.4668C55.1009 70.5068 55.2609 70.2968 55.2209 70.4668C55.1909 70.6368 54.9309 71.4268 54.9309 71.4868C54.9409 71.5368 55.3109 70.7568 55.2609 70.7968" stroke="#1E1E1E" stroke-width="0.5" stroke-linecap="round"/>
<path fill-rule="evenodd" clip-rule="evenodd" d="M55.5468 69.4388C55.4168 69.4788 55.0068 70.6788 55.1668 71.0088C55.3268 71.3388 56.5368 71.2488 56.5068 71.4088C56.4768 71.5688 54.9768 72.0388 54.9968 71.9888" fill="white"/>
<path d="M55.5868 70.7888C55.4868 70.8088 55.3968 70.6988 55.4868 70.7888C55.5768 70.8888 56.1168 71.2688 56.1168 71.3888C56.1268 71.5088 55.6268 71.5288 55.4968 71.5188M56.0668 70.6088C55.9068 70.6788 55.1768 71.2188 55.1768 71.2488C55.1668 71.2788 55.9568 70.8588 56.0368 70.7988C56.1168 70.7388 55.8568 70.7688 55.6568 70.8788" stroke="#1E1E1E" stroke-width="0.5" stroke-linecap="round"/>
<path fill-rule="evenodd" clip-rule="evenodd" d="M53.16 70.0621C53.13 69.9521 53.14 70.5121 53.39 70.7321C53.63 70.9521 54.59 71.2021 54.63 71.3921" fill="white"/>
<path d="M53.44 71.1821C53.59 71.0621 53.93 70.6621 54.05 70.7021C54.17 70.7321 54.16 71.3121 54.14 71.3821M52.98 70.8921C53.13 70.6421 53.74 70.1921 53.92 70.1821C54.09 70.1621 54 70.5921 54.01 70.8121" stroke="#1E1E1E" stroke-width="0.5" stroke-linecap="round"/>
<path d="M53.8574 71.2147C53.9674 71.2147 54.1274 71.0947 54.1474 71.0347M53.5774 71.0047C53.6574 70.9047 53.9374 70.4847 53.9674 70.5147" stroke="#1E1E1E" stroke-width="0.5" stroke-linecap="round"/>
<path fill-rule="evenodd" clip-rule="evenodd" d="M56.7868 71.4472C56.8468 71.4072 55.8968 71.2772 56.0868 71.2172C56.2768 71.1672 57.7968 70.9872 57.9368 71.1072" fill="white"/>
<path d="M56.2968 71.4472C56.2968 71.2972 56.3368 70.5572 56.3968 70.5372C56.4568 70.5272 56.6368 71.2772 56.6668 71.3572M55.9668 71.2472C55.8968 71.1472 56.0368 70.9072 56.1168 70.9972C56.1968 71.0772 56.3668 71.7372 56.4468 71.7772" stroke="#1E1E1E" stroke-width="0.5" stroke-linecap="round"/>
<path d="M56.1789 70.959C56.2189 70.919 56.5489 70.979 56.5989 70.919M55.7489 70.649C55.7289 70.479 56.2489 70.299 56.3289 70.329" stroke="#1E1E1E" stroke-width="0.5" stroke-linecap="round"/>
<path d="M27.805 62.5703C28.935 62.1803 29.885 62.1603 31.265 62.5703C34.345 62.3503 35.425 63.8003 32.995 64.3003C33.515 65.7003 32.735 67.7903 32.995 71.2803C33.745 74.7003 31.715 73.1203 31.265 73.0103C30.735 72.8703 30.175 73.1103 27.805 73.0103C27.875 75.3103 26.865 74.4703 26.075 71.2803C26.535 69.0503 25.795 66.9303 26.075 64.3003C27.755 65.0003 28.165 64.0103 27.805 62.5703Z" fill="white"/>
<path d="M27.805 62.5703C28.865 62.5303 29.725 62.5203 31.265 62.5703M27.805 62.5703C28.875 62.6103 30.075 62.5603 31.265 62.5703M27.805 62.5703C27.215 63.1303 26.065 63.5403 26.075 64.3003M27.805 62.5703C25.745 62.5903 26.205 63.1803 26.075 64.3003M31.265 62.5703C32.605 63.0403 32.105 62.3603 32.995 64.3003M31.265 62.5703C32.215 62.3603 32.345 63.1703 32.995 64.3003M32.995 64.3003C32.985 66.0303 32.865 67.4603 32.995 71.2803M32.995 64.3003C33.155 66.3603 33.045 68.4103 32.995 71.2803M32.995 71.2803C32.185 72.9103 32.095 72.3203 31.265 73.0103M32.995 71.2803C32.305 72.5703 33.195 74.0403 31.265 73.0103M31.265 73.0103C29.865 73.0803 28.695 72.8403 27.805 73.0103M31.265 73.0103C30.465 72.9403 29.875 73.0203 27.805 73.0103M27.805 73.0103C27.125 72.5103 26.715 71.9103 26.075 71.2803M27.805 73.0103C27.715 72.9103 26.625 73.5603 26.075 71.2803M26.075 71.2803C25.975 69.7403 26.145 68.3203 26.075 64.3003M26.075 71.2803C26.235 69.0803 25.955 66.5603 26.075 64.3003" stroke="#1E1E1E" stroke-width="0.5" stroke-linecap="round"/>
<path d="M28.0397 63.0043C28.8697 62.9843 29.8697 63.0543 31.0197 63.0043M28.0397 63.0043C29.0297 62.9943 29.9297 63.0243 31.0197 63.0043M28.0397 63.0043C27.1197 63.0243 26.9297 63.8743 26.5497 64.4943M28.0397 63.0043C27.0997 63.0543 25.9497 63.5143 26.5497 64.4943M31.0197 63.0043C31.4197 62.4743 32.3897 63.3743 32.5097 64.4943M31.0197 63.0043C31.5797 63.0143 32.0097 63.2643 32.5097 64.4943M32.5097 64.4943C32.4397 66.1443 32.4897 67.9243 32.5097 71.1243M32.5097 64.4943C32.5697 67.0243 32.4397 69.5243 32.5097 71.1243M32.5097 71.1243C32.2997 71.6543 31.6197 72.6943 31.0197 72.6143M32.5097 71.1243C33.0297 72.8043 32.7197 72.2243 31.0197 72.6143M31.0197 72.6143C30.2197 72.5243 29.1597 72.7143 28.0397 72.6143M31.0197 72.6143C30.3397 72.6243 29.5997 72.5843 28.0397 72.6143M28.0397 72.6143C27.4697 72.2643 27.1697 72.0643 26.5497 71.1243M28.0397 72.6143C27.4097 73.3643 26.0097 71.6543 26.5497 71.1243M26.5497 71.1243C26.5897 68.8843 26.6297 66.1243 26.5497 64.4943M26.5497 71.1243C26.4397 68.5343 26.5297 66.1043 26.5497 64.4943" stroke="#1E1E1E" stroke-width="0.5" stroke-linecap="round"/>
<path d="M29.8852 65.5217C30.2952 65.5517 30.6552 65.6417 30.9752 65.8317C31.2852 66.0317 31.7752 66.2817 31.7852 66.6817C31.7952 67.0717 31.2952 67.8417 31.0052 68.2017C30.7152 68.5617 30.4352 68.7617 30.0452 68.8417C29.6652 68.9317 29.1052 68.8717 28.6952 68.7117C28.2852 68.5417 27.7652 68.1817 27.5752 67.8617C27.3852 67.5317 27.4352 67.1517 27.5552 66.7517C27.6652 66.3517 27.8752 65.7217 28.2452 65.4617C28.6052 65.1917 29.4252 65.1517 29.7252 65.1817C30.0252 65.2017 30.0352 65.5217 30.0452 65.5817M29.5252 64.8717C29.9652 64.8417 30.2752 65.3817 30.6852 65.8017C31.0952 66.2217 31.7852 67.0217 31.9652 67.3817C32.1452 67.7417 32.0652 67.7217 31.7552 67.9717C31.4552 68.2317 30.6052 68.6817 30.1352 68.9217C29.6752 69.1517 29.4352 69.6017 28.9452 69.3717C28.4652 69.1517 27.3752 68.0717 27.2152 67.5817C27.0552 67.0917 27.8952 66.8017 28.0052 66.4117C28.1152 66.0317 27.5452 65.4517 27.8952 65.2717C28.2352 65.1017 29.7452 65.4017 30.0752 65.3517C30.4152 65.3117 29.9252 65.0417 29.9152 65.0017" stroke="#1E1E1E" stroke-width="0.5" stroke-linecap="round"/>
<path d="M28.7295 66.6231C28.7995 66.5231 29.1495 66.3131 29.1795 66.3431C29.2095 66.3631 28.9195 66.6931 28.8995 66.7831C28.8795 66.8731 29.0595 66.8431 29.0595 66.8831C29.0695 66.9231 29.0195 66.9731 28.9395 67.0131C28.8595 67.0531 28.6495 67.0831 28.5695 67.1131C28.4895 67.1431 28.5195 67.2431 28.4795 67.1831C28.4295 67.1231 28.2995 66.8431 28.2995 66.7531C28.3095 66.6531 28.3795 66.5831 28.4995 66.6131C28.6195 66.6331 28.9695 66.8731 29.0295 66.8831C29.0995 66.8931 28.8895 66.7831 28.8595 66.6831M28.5195 66.6231C28.6795 66.7631 29.2095 67.1131 29.3995 67.1131C29.5795 67.1131 29.6795 66.6431 29.6295 66.6231C29.5795 66.6031 29.1795 66.8331 29.0895 67.0031C28.9995 67.1831 29.2695 67.7131 29.1095 67.6731C28.9495 67.6431 28.1795 66.9331 28.1495 66.7831C28.1195 66.6231 28.9495 66.8131 28.9195 66.7731C28.8995 66.7231 27.9995 66.5031 27.9995 66.5031C28.0095 66.5031 28.7895 66.7931 28.9695 66.7631C29.1395 66.7331 29.0295 66.3931 29.0595 66.3131C29.0895 66.2431 29.0995 66.2731 29.1395 66.3131" stroke="#1E1E1E" stroke-width="0.5" stroke-linecap="round"/>
<path d="M30.3785 66.2652C30.4185 66.2452 30.1685 66.5452 30.1885 66.6152C30.2085 66.6852 30.4385 66.6552 30.4885 66.7052C30.5285 66.7552 30.5285 66.8352 30.4685 66.9052C30.4085 66.9752 30.2185 67.0452 30.1385 67.1152C30.0585 67.1752 30.0685 67.3252 29.9985 67.2952C29.9185 67.2552 29.7385 67.0052 29.7085 66.9152C29.6685 66.8252 29.6885 66.7452 29.7785 66.7452C29.8585 66.7452 30.1285 66.9352 30.2185 66.9252C30.3085 66.9152 30.2785 66.7852 30.3085 66.6752C30.3285 66.5752 30.3485 66.3352 30.3585 66.3052M30.4685 67.0052C30.6685 66.9452 30.8285 66.4152 30.8385 66.3552C30.8485 66.3052 30.5385 66.5152 30.5185 66.6952C30.4985 66.8852 30.8485 67.4652 30.7385 67.4752C30.6285 67.4852 29.8885 66.8552 29.8585 66.7652C29.8285 66.6752 30.6185 66.9452 30.5585 66.9452C30.4885 66.9552 29.5085 66.7752 29.4485 66.7852C29.3785 66.7952 30.0785 67.0852 30.1885 67.0252C30.2985 66.9552 30.0885 66.5352 30.1285 66.4152C30.1685 66.2952 30.3685 66.2752 30.4485 66.2952C30.5185 66.3152 30.5985 66.3952 30.5885 66.5252" stroke="#1E1E1E" stroke-width="0.5" stroke-linecap="round"/>
<path d="M29.2734 67.574C29.3634 67.594 29.7334 67.534 29.8734 67.574C30.0134 67.624 30.1334 67.734 30.1434 67.854C30.1534 67.974 30.0134 68.144 29.9434 68.284C29.8734 68.424 29.8534 68.674 29.7234 68.714C29.5934 68.754 29.3034 68.564 29.1734 68.504C29.0434 68.444 28.9334 68.364 28.9334 68.344C28.9334 68.314 29.1134 68.434 29.1534 68.354C29.2034 68.274 29.1134 68.024 29.2034 67.864C29.2934 67.694 29.5834 67.424 29.6734 67.364C29.7534 67.314 29.7834 67.524 29.7234 67.544M29.9934 67.384C30.0634 67.284 29.8534 67.474 29.9134 67.654C29.9734 67.844 30.4134 68.444 30.3534 68.494C30.2934 68.544 29.5934 67.984 29.5734 67.964C29.5434 67.934 30.3134 68.284 30.1934 68.334C30.0834 68.394 29.0134 68.264 28.8734 68.294C28.7334 68.334 29.3234 68.614 29.3734 68.534C29.4134 68.444 29.1334 67.974 29.1434 67.794C29.1534 67.624 29.3034 67.524 29.4434 67.484C29.5934 67.454 29.9434 67.484 29.9934 67.594C30.0434 67.704 29.9034 68.164 29.7734 68.134" stroke="#1E1E1E" stroke-width="0.5" stroke-linecap="round"/>
<path d="M29.6889 67.9498C29.7389 67.9198 29.7789 67.9098 29.7789 67.9298C29.7789 67.9398 29.6889 67.9798 29.6889 68.0398C29.6989 68.0998 29.8089 68.2798 29.7989 68.2898C29.7989 68.2998 29.6789 68.1298 29.6689 68.1198C29.6489 68.0998 29.6589 68.1198 29.7189 68.1898C29.7689 68.2598 29.9689 68.5198 29.9789 68.5398C29.9889 68.5598 29.8089 68.4098 29.7889 68.2998C29.7689 68.1998 29.8289 67.9298 29.8489 67.8898C29.8689 67.8398 29.9689 68.0298 29.9089 68.0398C29.8589 68.0398 29.5489 67.8898 29.5289 67.9398M29.7489 68.0398C29.7189 68.1498 30.0789 68.6398 30.0089 68.5898C29.9289 68.5398 29.2689 67.8498 29.3189 67.7398C29.3589 67.6298 30.2589 67.8998 30.2589 67.9298C30.2689 67.9598 29.3689 67.8398 29.3489 67.9098C29.3289 67.9898 30.0389 68.3598 30.1389 68.3698C30.2389 68.3798 29.9789 68.0298 29.9589 67.9598C29.9389 67.8798 29.9989 67.8898 30.0389 67.9098C30.0789 67.9398 30.2089 67.9898 30.1989 68.1098C30.1989 68.2298 30.1289 68.6698 29.9989 68.6298C29.8689 68.5798 29.3989 67.9498 29.4089 67.8398" stroke="#1E1E1E" stroke-width="0.5" stroke-linecap="round"/>
<path d="M28.349 64.8982C28.349 64.8382 28.139 65.1182 28.189 65.2582C28.239 65.3882 28.569 65.6182 28.649 65.7282C28.739 65.8482 28.749 65.9182 28.709 65.9582C28.659 65.9882 28.459 65.8782 28.369 65.9382C28.269 65.9882 28.189 66.2582 28.119 66.2782C28.039 66.2882 27.959 66.1582 27.919 66.0182C27.879 65.8682 27.879 65.5782 27.869 65.4182C27.869 65.2582 27.799 65.0982 27.879 65.0582C27.969 65.0082 28.289 65.1182 28.379 65.1582C28.479 65.1882 28.499 65.2982 28.459 65.2782M28.029 64.8582C28.079 64.9682 28.469 65.5882 28.529 65.7082C28.589 65.8282 28.469 65.5482 28.399 65.5882C28.319 65.6382 28.139 65.8482 28.059 65.9882C27.979 66.1282 27.929 66.3082 27.919 66.4282C27.909 66.5382 27.969 66.6782 27.989 66.6482C28.009 66.6282 27.999 66.4082 28.049 66.2782C28.089 66.1382 28.219 65.9882 28.259 65.8382C28.309 65.6782 28.349 65.4382 28.309 65.3582C28.269 65.2682 28.019 65.3582 28.029 65.3182C28.039 65.2782 28.389 65.1482 28.379 65.1182" fill="white"/>
<path d="M28.179 64.9582C28.239 64.9582 28.239 65.0382 28.299 65.1682C28.359 65.2882 28.529 65.5782 28.539 65.6982C28.559 65.8082 28.429 65.7782 28.389 65.8682C28.349 65.9482 28.289 66.0682 28.279 66.1782C28.269 66.2982 28.369 66.5682 28.319 66.5582C28.259 66.5482 28.009 66.3182 27.939 66.1182C27.879 65.9282 27.919 65.5282 27.939 65.3782C27.969 65.2182 28.099 65.2782 28.099 65.2082C28.099 65.1482 27.929 64.9482 27.949 64.9782C27.969 65.0182 28.129 65.3182 28.219 65.4182M28.369 65.6082C28.359 65.5382 27.799 64.8782 27.909 64.8282C28.009 64.7782 28.979 65.1582 29.009 65.2882C29.039 65.4282 28.139 65.4482 28.089 65.6282C28.039 65.8082 28.689 66.2882 28.729 66.3482C28.769 66.4082 28.409 66.0882 28.319 65.9982C28.239 65.8982 28.209 65.8282 28.209 65.7682C28.199 65.7082 28.289 65.6182 28.279 65.6282C28.279 65.6382 28.249 65.9482 28.159 65.8282C28.079 65.6982 27.749 65.0082 27.799 64.8782C27.849 64.7382 28.379 64.9482 28.459 65.0182" stroke="white" stroke-width="0.5" stroke-linecap="round"/>
<path fill-rule="evenodd" clip-rule="evenodd" d="M27.2189 66.6552C27.5933 66.8743 28.9776 66.7392 29.2897 66.7229C29.5919 66.7058 29.3795 66.7297 29.0511 66.5643C28.7235 66.3889 27.4731 66.0829 27.3233 65.6804" fill="white"/>
<path d="M27.4229 65.5576C27.5204 65.7255 27.6197 66.2646 27.7862 66.3174C27.9419 66.3794 28.2831 66.1146 28.3788 65.9113C28.4745 65.708 28.3086 65.254 28.3407 65.096M26.9901 65.1836C27.2204 65.4519 28.0924 66.6416 28.4392 66.8285C28.786 67.0154 29.104 66.5282 29.0816 66.2958C29.0592 66.0635 28.4699 65.6374 28.3156 65.4251" stroke="#1E1E1E" stroke-width="0.5" stroke-linecap="round"/>
<path fill-rule="evenodd" clip-rule="evenodd" d="M27.5551 66.6013C27.944 66.637 29.2145 65.8402 29.472 65.6622C29.7197 65.4856 29.3887 65.5023 29.0521 65.5502" fill="white"/>
<path d="M27.3904 65.5844C27.4498 65.576 27.6987 65.5507 27.8713 65.4857C28.0325 65.4123 28.2504 65.2399 28.3608 65.1636M27.8814 65.2015C28.0694 65.2455 28.5499 65.7125 28.5895 65.7776C28.629 65.8426 28.1002 65.6754 28.1286 65.5906" stroke="#1E1E1E" stroke-width="0.5" stroke-linecap="round"/>
<path d="M31.1962 65.1647C31.2462 65.0847 31.2162 64.9147 31.2462 64.9947C31.2762 65.0647 31.3562 65.4447 31.3662 65.5947C31.3862 65.7447 31.3762 65.8447 31.3462 65.8947C31.3162 65.9347 31.2662 65.8847 31.1862 65.8847C31.1062 65.8847 30.8962 65.8647 30.8562 65.8647C30.8162 65.8747 30.9262 65.9447 30.9462 65.9147C30.9562 65.8747 30.9962 65.8047 30.9662 65.6547C30.9362 65.5147 30.7762 65.0947 30.7462 65.0447C30.7162 64.9947 30.7962 65.3347 30.7962 65.3347C30.8062 65.3447 30.7762 65.0747 30.7862 65.0647M30.6062 65.1747C30.6362 65.2147 30.7462 65.3747 30.8562 65.5247C30.9662 65.6647 31.1662 65.9347 31.2562 66.0547C31.3562 66.1747 31.4062 66.1847 31.4462 66.2347C31.4962 66.2847 31.5562 66.3647 31.5262 66.3547C31.4862 66.3347 31.3862 66.2147 31.2262 66.1547C31.0662 66.0947 30.6162 66.1247 30.5562 66.0047C30.5062 65.8847 30.8862 65.5747 30.9062 65.4247C30.9162 65.2847 30.5762 65.1147 30.6562 65.1247C30.7362 65.1347 31.2662 65.4347 31.3862 65.4847C31.4962 65.5347 31.3362 65.4547 31.3462 65.4147" fill="white"/>
<path d="M30.8762 65.0147C30.9362 64.9747 31.0662 65.0447 31.1862 65.1847C31.3062 65.3247 31.5762 65.7147 31.6062 65.8547C31.6462 65.9947 31.4562 66.0147 31.4062 66.0247C31.3462 66.0347 31.3262 65.8847 31.2662 65.8947C31.2162 65.9047 31.1962 66.1047 31.0662 66.0847C30.9362 66.0647 30.5362 65.8147 30.4762 65.7747C30.4162 65.7247 30.5962 65.8647 30.6862 65.8347C30.7862 65.8047 31.0362 65.7047 31.0562 65.5847C31.0762 65.4647 30.8462 65.1647 30.8162 65.1147C30.7962 65.0647 30.8462 65.3247 30.9262 65.2847M30.5362 64.8047C30.5962 64.8547 31.4162 65.2747 31.5962 65.3447C31.7662 65.4147 31.5762 65.2047 31.5862 65.2447C31.5962 65.2947 31.6562 65.4647 31.6662 65.6047C31.6762 65.7447 31.7262 65.9247 31.6462 66.1047C31.5662 66.2847 31.3862 66.7547 31.1762 66.6847C30.9662 66.6247 30.4062 65.9047 30.3762 65.7047C30.3362 65.5047 30.8762 65.5347 30.9562 65.4847C31.0262 65.4247 30.7762 65.4147 30.8362 65.3847C30.8962 65.3547 31.3662 65.2647 31.3062 65.2847C31.2462 65.3147 30.4862 65.5147 30.4862 65.5447" stroke="white" stroke-width="0.5" stroke-linecap="round"/>
<path fill-rule="evenodd" clip-rule="evenodd" d="M30.5504 66.3711C30.2999 66.2629 30.736 65.4109 30.5939 65.3934C30.4418 65.3768 29.5043 66.1229 29.6779 66.2681C29.8505 66.4033 31.2915 66.5762 31.6434 66.2437" fill="white"/>
<path d="M31.468 65.6268C31.438 65.7399 31.3721 66.1273 31.1863 66.184C31.0015 66.2507 30.4694 66.1374 30.3664 65.996C30.2635 65.8545 30.4733 65.5046 30.5704 65.3554M32.0092 65.2775C31.9745 65.4512 31.3072 66.4142 30.9918 66.5929C30.6773 66.7815 30.1777 66.6955 30.1104 66.3902C30.0422 66.075 30.4717 64.9224 30.5661 64.7433" stroke="#1E1E1E" stroke-width="0.5" stroke-linecap="round"/>
<path fill-rule="evenodd" clip-rule="evenodd" d="M30.2994 66.0647C30.0908 65.8059 30.7578 64.7023 30.6554 64.5579C30.563 64.4149 29.6159 64.8773 29.7349 65.2053" fill="white"/>
<path d="M31.6006 65.4363C31.52 65.436 31.0359 65.5146 30.8549 65.5114C30.6738 65.5081 30.4905 65.4441 30.4969 65.3945M31.2699 65.0306C31.1333 65.0735 30.6187 65.9346 30.4626 65.8942C30.3052 65.8638 30.3911 64.8868 30.3195 64.817" stroke="#1E1E1E" stroke-width="0.5" stroke-linecap="round"/>
<path d="M29.3777 68.2362C29.3577 68.1362 29.4277 67.8862 29.4577 67.8662C29.4777 67.8362 29.5677 68.0362 29.5177 68.0562C29.4577 68.0862 29.1477 67.9362 29.1177 68.0062C29.0977 68.0662 29.2877 68.3662 29.3677 68.4562C29.4377 68.5462 29.6277 68.5862 29.5877 68.5362C29.5377 68.4962 29.1577 68.2362 29.0877 68.1962C29.0177 68.1562 29.0977 68.3762 29.1777 68.3162C29.2577 68.2462 29.5777 67.7862 29.5577 67.8062C29.5277 67.8262 29.0777 68.4262 29.0077 68.4362C28.9277 68.4362 29.0977 67.8462 29.1077 67.8362M29.6277 67.8562C29.6777 67.8862 29.8077 67.9562 29.8077 68.0862C29.7977 68.2262 29.7277 68.6862 29.5977 68.6562C29.4577 68.6262 28.9977 68.0062 28.9977 67.9062C29.0077 67.8062 29.5677 67.9962 29.6277 68.0562C29.6877 68.1262 29.3877 68.2562 29.3777 68.3062C29.3777 68.3562 29.7077 68.3162 29.6077 68.3562C29.5077 68.4062 28.7777 68.5562 28.7777 68.5662C28.7877 68.5862 29.6177 68.5862 29.6377 68.4662C29.6577 68.3462 28.9377 67.8762 28.8777 67.8462C28.8277 67.8162 29.1877 68.2262 29.2977 68.3162" stroke="#1E1E1E" stroke-width="0.5" stroke-linecap="round"/>
<path d="M27.7129 70.7162C27.7829 70.8062 28.0129 70.9262 28.0229 70.9762M27.2629 70.5462C27.3229 70.5262 27.8529 70.4162 27.9229 70.3862" stroke="#1E1E1E" stroke-width="0.5" stroke-linecap="round"/>
<path fill-rule="evenodd" clip-rule="evenodd" d="M28.8716 69.6044C28.8016 69.3144 28.1416 69.4844 28.1116 69.8544C28.0916 70.2144 29.0416 71.8744 28.7116 71.8044C28.3816 71.7344 26.1416 69.7544 26.1516 69.4344" fill="white"/>
<path d="M27.9316 70.3844C28.0516 70.3244 28.2916 70.1944 28.2816 70.2644C28.2616 70.3344 27.9716 70.7544 27.8216 70.7844C27.6716 70.8144 27.4716 70.4444 27.3816 70.4344M27.6816 70.1144C27.7716 69.9344 27.9216 69.6944 28.0616 69.7044C28.2016 69.7144 28.6316 70.0244 28.5216 70.1844C28.4116 70.3344 27.5216 70.5244 27.4016 70.6344" stroke="#1E1E1E" stroke-width="0.5" stroke-linecap="round"/>
<path fill-rule="evenodd" clip-rule="evenodd" d="M29.0094 70.5564C28.9194 70.7764 29.9194 71.6264 29.7494 71.4764C29.5894 71.3164 27.8294 69.9664 27.9994 69.6164C28.1694 69.2664 30.7194 69.4164 30.7594 69.3564" fill="white"/>
<path d="M29.1794 70.9765C29.0894 70.8965 28.8494 70.5065 28.8594 70.4465C28.8694 70.3865 29.1694 70.6665 29.2294 70.6265C29.2894 70.5865 29.1494 70.2365 29.2294 70.2165M28.8094 70.7265C28.7994 70.5365 29.4894 69.8865 29.5094 69.9065C29.5394 69.9365 28.9994 70.7765 28.9494 70.8865C28.8994 70.9965 29.1194 70.7565 29.1894 70.5565" stroke="#1E1E1E" stroke-width="0.5" stroke-linecap="round"/>
<path fill-rule="evenodd" clip-rule="evenodd" d="M30.7864 71.3946C30.4864 71.2546 28.2764 69.3546 28.3764 69.1046C28.4864 68.8646 31.3864 69.7546 31.3964 69.9046C31.3964 70.0446 28.5264 69.7546 28.4164 69.9846" fill="white"/>
<path d="M29.8864 70.3646C29.7764 70.3346 29.6164 70.0446 29.6064 70.1146C29.6064 70.1746 29.8264 70.5746 29.8564 70.7546C29.8964 70.9346 29.8064 71.2146 29.8164 71.2046M30.3864 70.1446C30.2064 70.1446 29.2364 70.2646 29.2764 70.4446C29.3064 70.6146 30.4764 71.1346 30.5964 71.1646C30.7264 71.1946 30.1764 70.6846 30.0164 70.6146" stroke="#1E1E1E" stroke-width="0.5" stroke-linecap="round"/>
<path fill-rule="evenodd" clip-rule="evenodd" d="M29.3723 68.9365C29.4323 68.6465 31.6623 69.4365 31.6823 69.6065C31.7023 69.7665 29.5623 69.6465 29.4923 69.9265C29.4123 70.2165 31.0223 71.2665 31.2323 71.3165" fill="white"/>
<path d="M30.6023 69.9465C30.5523 69.9565 30.1023 70.2565 30.1523 70.4565C30.2023 70.6565 30.8423 71.0965 30.8923 71.1465C30.9423 71.1965 30.5823 70.8065 30.4523 70.7565M31.1923 70.5865C31.2823 70.6465 30.9023 70.9265 30.8423 70.9365C30.7723 70.9365 30.9923 70.6165 30.7923 70.6165C30.5923 70.6265 29.8023 70.9365 29.6223 70.9865" stroke="#1E1E1E" stroke-width="0.5" stroke-linecap="round"/>
<path fill-rule="evenodd" clip-rule="evenodd" d="M26.9855 69.5599C27.1455 69.1199 29.8055 69.2699 29.9055 69.3299C30.0055 69.3899 27.6155 69.5999 27.6055 69.9099" fill="white"/>
<path d="M28.1155 70.8499C28.2155 70.8399 28.6555 70.4999 28.8255 70.4599C28.9955 70.4199 29.1155 70.5799 29.1055 70.6299M28.6555 70.5699C28.7355 70.4799 28.6055 69.9399 28.6655 69.9999C28.7355 70.0599 29.0155 70.7499 29.0455 70.9199" stroke="#1E1E1E" stroke-width="0.5" stroke-linecap="round"/>
<path d="M28.633 70.9725C28.793 70.9025 29.083 70.3725 29.103 70.2725M28.333 70.8325C28.483 70.8025 28.963 70.6425 28.993 70.6325" stroke="#1E1E1E" stroke-width="0.5" stroke-linecap="round"/>
<path fill-rule="evenodd" clip-rule="evenodd" d="M29.7623 69.965C29.7823 70.055 31.9323 70.505 32.3323 70.555C32.7223 70.605 32.1223 70.305 32.1323 70.245" fill="white"/>
<path d="M31.2623 70.685C31.2623 70.505 31.1523 70.005 31.2123 70.095C31.2723 70.185 31.6423 71.155 31.6223 71.245M31.0023 71.355C30.9423 71.385 30.8523 70.615 30.9323 70.505C31.0123 70.405 31.4623 70.665 31.4823 70.715" stroke="#1E1E1E" stroke-width="0.5" stroke-linecap="round"/>
<path d="M30.9944 70.5167C31.0344 70.5767 31.5444 70.8567 31.5544 70.8067M30.5644 70.1667C30.5344 70.1567 31.1644 70.2967 31.3544 70.3367" stroke="#1E1E1E" stroke-width="0.5" stroke-linecap="round"/>
<path d="M42.2222 22.5013C43.3322 22.3913 44.4222 22.1813 45.6822 22.5013C47.3822 20.4113 48.2422 21.2613 47.4122 24.2313C48.2422 25.4813 47.0022 28.6213 47.4122 31.2113C48.2522 34.3313 45.8222 34.1413 45.6822 32.9413C44.5422 32.9613 43.9722 32.7913 42.2222 32.9413C40.8622 34.0213 42.6122 34.4313 40.4922 31.2113C41.1522 29.7113 41.1322 28.2113 40.4922 24.2313C42.5922 25.0613 40.5622 23.8813 42.2222 22.5013Z" fill="white"/>
<path d="M42.2223 22.5013C43.4023 22.3313 44.1223 22.6613 45.6823 22.5013M42.2223 22.5013C43.1223 22.5413 43.9323 22.4713 45.6823 22.5013M42.2223 22.5013C41.7123 23.2113 40.1623 22.9213 40.4923 24.2313M42.2223 22.5013C42.0423 22.7313 41.1623 23.7113 40.4923 24.2313M45.6823 22.5013C47.4723 21.9813 48.3323 22.9913 47.4123 24.2313M45.6823 22.5013C47.3823 23.6213 46.6023 22.3813 47.4123 24.2313M47.4123 24.2313C47.4523 27.0013 47.5023 28.9513 47.4123 31.2113M47.4123 24.2313C47.2823 26.8013 47.4323 29.6213 47.4123 31.2113M47.4123 31.2113C47.9723 32.9213 46.9523 32.9613 45.6823 32.9413M47.4123 31.2113C46.5023 32.3813 46.9023 33.0113 45.6823 32.9413M45.6823 32.9413C44.6823 32.7613 43.8323 32.9113 42.2223 32.9413M45.6823 32.9413C44.2623 32.8813 43.0123 32.8813 42.2223 32.9413M42.2223 32.9413C40.8523 32.2913 40.7823 33.2313 40.4923 31.2113M42.2223 32.9413C40.7623 32.9913 39.4523 32.4713 40.4923 31.2113M40.4923 31.2113C40.7623 29.8113 40.6423 28.5113 40.4923 24.2313M40.4923 31.2113C40.4223 28.9513 40.5523 26.5713 40.4923 24.2313" stroke="#1E1E1E" stroke-width="0.5" stroke-linecap="round"/>
<path d="M42.4569 22.9353C43.3869 23.0353 44.4469 22.8653 45.4369 22.9353M42.4569 22.9353C43.1869 22.9053 43.8969 22.9053 45.4369 22.9353M42.4569 22.9353C41.8469 23.3053 41.3969 23.9053 40.9669 24.4253M42.4569 22.9353C41.7569 22.4553 41.6169 23.5853 40.9669 24.4253M45.4369 22.9353C47.0469 22.8853 47.2469 24.0853 46.9269 24.4253M45.4369 22.9353C45.8969 22.4753 47.3969 23.1653 46.9269 24.4253M46.9269 24.4253C46.9969 26.3353 47.1069 28.8253 46.9269 31.0553M46.9269 24.4253C46.9069 26.9053 46.9669 29.3653 46.9269 31.0553M46.9269 31.0553C47.0069 32.0653 45.9069 32.5553 45.4369 32.5453M46.9269 31.0553C46.9769 32.0953 46.3169 32.6653 45.4369 32.5453M45.4369 32.5453C44.8769 32.5253 44.2669 32.5553 42.4569 32.5453M45.4369 32.5453C44.5969 32.5053 43.6869 32.5053 42.4569 32.5453M42.4569 32.5453C41.6569 33.1253 40.7869 32.0753 40.9669 31.0553M42.4569 32.5453C40.7769 32.6153 40.3169 32.3753 40.9669 31.0553M40.9669 31.0553C41.0569 29.4053 41.0169 27.5353 40.9669 24.4253M40.9669 31.0553C41.0269 29.0353 40.9369 27.0353 40.9669 24.4253" stroke="#1E1E1E" stroke-width="0.5" stroke-linecap="round"/>
<path d="M43.7724 25.3226C44.2024 25.2326 44.5724 25.4026 44.9124 25.6526C45.2424 25.9026 45.6224 26.4126 45.7824 26.7926C45.9424 27.1826 45.9624 27.6826 45.8724 27.9726C45.7924 28.2726 45.7024 28.3726 45.2724 28.5726C44.8524 28.7726 43.8524 29.2326 43.3424 29.1926C42.8324 29.1626 42.4524 28.6726 42.2224 28.3526C41.9824 28.0326 41.8924 27.7326 41.9424 27.2626C41.9924 26.7826 42.1924 25.7826 42.5324 25.4726C42.8724 25.1626 43.7524 25.4926 43.9924 25.4026C44.2324 25.3126 44.0524 24.9226 43.9824 24.9126M44.1724 25.1626C44.4824 25.1126 44.7024 25.4026 45.0224 25.6926C45.3424 25.9826 45.9724 26.4826 46.0724 26.9126C46.1724 27.3326 45.9624 27.9126 45.6324 28.2526C45.3024 28.5826 44.6124 28.7526 44.1224 28.9226C43.6224 29.0826 43.0124 29.3226 42.6724 29.2426C42.3224 29.1526 42.1624 28.8626 42.0624 28.4126C41.9624 27.9726 42.0124 27.1226 42.0724 26.5826C42.1424 26.0526 42.0424 25.4926 42.4324 25.1926C42.8224 24.8926 44.1624 24.8526 44.4324 24.7926C44.6924 24.7426 44.0324 24.7026 44.0024 24.8626" stroke="#1E1E1E" stroke-width="0.5" stroke-linecap="round"/>
<path d="M43.0868 26.7141C43.1268 26.7441 43.2368 26.8741 43.3168 26.9141C43.3868 26.9641 43.4668 27.0041 43.5568 26.9841C43.6468 26.9741 43.9068 26.7541 43.8368 26.8241C43.7568 26.8841 43.2368 27.3241 43.0868 27.3841C42.9368 27.4541 42.9468 27.2441 42.9168 27.2141C42.8868 27.1841 42.8968 27.3441 42.9068 27.2141C42.9068 27.0841 42.8868 26.4941 42.9468 26.4241C43.0068 26.3541 43.1868 26.8241 43.2768 26.7941C43.3668 26.7541 43.5168 26.2641 43.4868 26.2141C43.4568 26.1641 43.0968 26.4141 43.0868 26.5041M42.8468 26.5041C42.9268 26.5141 43.3968 26.5641 43.5068 26.6341C43.6168 26.6941 43.5868 26.8341 43.5168 26.8941C43.4468 26.9541 43.1868 26.8941 43.0768 27.0041C42.9668 27.1141 42.8468 27.4441 42.8368 27.5441C42.8268 27.6541 42.9768 27.7241 42.9968 27.6241C43.0268 27.5241 43.0668 27.1441 42.9868 26.9441C42.9068 26.7441 42.4768 26.5541 42.5268 26.4241C42.5768 26.3041 43.2068 26.2441 43.3068 26.2041C43.4068 26.1641 43.1168 26.0541 43.1368 26.1741C43.1468 26.2941 43.3868 26.8741 43.3868 26.9341" stroke="#1E1E1E" stroke-width="0.5" stroke-linecap="round"/>
<path d="M44.4457 26.7963C44.5457 26.7863 44.6857 26.7863 44.8257 26.7463C44.9657 26.7063 45.3057 26.4863 45.2857 26.5663C45.2657 26.6463 44.8157 27.1263 44.6957 27.2363C44.5757 27.3463 44.6057 27.2063 44.5757 27.2363C44.5357 27.2563 44.5157 27.4863 44.4757 27.3863C44.4357 27.2963 44.3457 26.7363 44.3457 26.6663C44.3457 26.6063 44.4457 27.0563 44.4857 26.9963C44.5257 26.9263 44.5957 26.3563 44.5957 26.2663C44.5857 26.1863 44.4157 26.4163 44.4457 26.4863C44.4757 26.5563 44.7057 26.6763 44.7657 26.6863M44.6157 26.5163C44.7457 26.5263 44.7757 26.6163 44.7557 26.6463C44.7457 26.6863 44.5757 26.6163 44.5257 26.7363C44.4657 26.8563 44.4257 27.2263 44.4457 27.3763C44.4757 27.5263 44.6457 27.6763 44.6657 27.6263C44.6957 27.5863 44.6957 27.2763 44.5757 27.1163C44.4557 26.9663 43.9557 26.7963 43.9457 26.6863C43.9357 26.5663 44.4857 26.4963 44.5257 26.4163C44.5757 26.3463 44.1957 26.1563 44.2357 26.2463C44.2657 26.3263 44.6957 26.8763 44.7357 26.9263C44.7657 26.9663 44.5557 26.5763 44.4557 26.5163" stroke="#1E1E1E" stroke-width="0.5" stroke-linecap="round"/>
<path d="M43.9707 27.725C44.1907 27.645 44.6507 27.405 44.7107 27.485C44.7707 27.575 44.4207 28.085 44.3607 28.245C44.2907 28.405 44.3607 28.345 44.3207 28.445C44.2907 28.535 44.2307 28.845 44.1307 28.805C44.0407 28.775 43.8507 28.265 43.7607 28.225C43.6807 28.175 43.6707 28.625 43.6407 28.525C43.6007 28.435 43.6007 27.795 43.5607 27.655C43.5207 27.505 43.3107 27.635 43.4107 27.645C43.5007 27.665 44.0107 27.765 44.1407 27.755C44.2807 27.755 44.2307 27.685 44.2107 27.615M43.8707 27.645C43.9107 27.625 43.8607 27.525 43.9007 27.645C43.9407 27.765 44.0007 28.165 44.0807 28.355C44.1707 28.555 44.4007 28.775 44.4307 28.795C44.4607 28.825 44.4407 28.615 44.2707 28.515C44.1007 28.425 43.5007 28.325 43.4107 28.235C43.3107 28.145 43.7407 28.075 43.7107 27.975C43.6807 27.885 43.2207 27.635 43.2107 27.665C43.2107 27.685 43.5807 28.135 43.6807 28.115C43.7807 28.105 43.8407 27.665 43.8007 27.585C43.7707 27.505 43.5307 27.585 43.4907 27.625" stroke="#1E1E1E" stroke-width="0.5" stroke-linecap="round"/>
<path d="M44.5062 27.8407C44.4862 27.8507 44.0662 28.2307 44.0062 28.2907C43.9362 28.3507 44.0562 28.1707 44.0962 28.1807C44.1362 28.2007 44.2262 28.4407 44.2562 28.3907C44.2862 28.3307 44.2562 27.8507 44.2862 27.8507C44.3162 27.8607 44.4162 28.4107 44.4262 28.4107C44.4362 28.4107 44.4462 27.9007 44.3662 27.8507C44.2862 27.8007 43.9662 28.0307 43.9562 28.1007C43.9462 28.1707 44.2162 28.2607 44.2862 28.2607C44.3562 28.2707 44.3862 28.1907 44.3662 28.1107C44.3562 28.0307 44.2162 27.8107 44.1862 27.8107M43.7362 28.0307C43.6762 28.0807 43.6662 28.3607 43.7362 28.4507C43.8062 28.5407 44.0662 28.6407 44.1662 28.5807C44.2662 28.5207 44.3862 28.2307 44.3362 28.1007C44.2862 27.9807 43.8462 27.8907 43.8762 27.8407C43.8962 27.7907 44.4562 27.8107 44.4762 27.8107C44.5062 27.8107 44.0662 27.7007 44.0362 27.8207C43.9962 27.9407 44.2862 28.5007 44.2862 28.5507C44.2762 28.5907 44.1062 28.1707 44.0162 28.1007C43.9262 28.0307 43.7662 28.0907 43.7262 28.1207C43.6862 28.1507 43.6962 28.2307 43.7562 28.2907" stroke="#1E1E1E" stroke-width="0.5" stroke-linecap="round"/>
<path d="M42.7362 25.2691C42.7962 25.2791 42.7862 25.0791 42.8162 25.1791C42.8462 25.2691 42.8562 25.6791 42.9062 25.8391C42.9562 26.0091 43.1262 26.0691 43.1262 26.1791C43.1162 26.2791 42.9662 26.4491 42.8662 26.4691C42.7562 26.4791 42.6362 26.3591 42.4962 26.2591C42.3662 26.1591 42.1062 25.9991 42.0562 25.8591C42.0062 25.7091 42.1662 25.5491 42.2062 25.3991C42.2562 25.2491 42.2162 25.0491 42.3062 24.9591C42.3862 24.8691 42.6462 24.8591 42.7262 24.8491C42.8062 24.8391 42.8062 24.8391 42.7662 24.8991M42.3962 25.5291C42.4262 25.6491 42.9562 25.5891 43.0162 25.6391C43.0762 25.6891 42.7762 25.7891 42.7662 25.8291C42.7462 25.8791 42.9362 25.8691 42.9362 25.9191C42.9362 25.9591 42.8262 25.9791 42.7462 26.0991C42.6662 26.2191 42.5762 26.6591 42.4762 26.6091C42.3662 26.5691 42.1062 25.9591 42.1062 25.8491C42.1062 25.7291 42.3462 26.1091 42.4562 25.9191C42.5662 25.7391 42.6962 24.8091 42.7862 24.7191C42.8762 24.6291 42.9462 25.2991 42.9862 25.3591C43.0262 25.4191 43.0162 25.1191 43.0262 25.0791" fill="white"/>
<path d="M42.4262 25.3191C42.4262 25.3691 42.6362 25.2391 42.7362 25.3291C42.8362 25.4191 42.9662 25.7891 43.0062 25.8391C43.0462 25.8891 43.0062 25.5491 42.9962 25.6491C42.9962 25.7391 43.0162 26.3791 42.9662 26.4191C42.9162 26.4591 42.8162 25.9491 42.6762 25.8591C42.5262 25.7691 42.1362 25.9091 42.0862 25.8791C42.0462 25.8591 42.2962 25.8091 42.3762 25.6991C42.4562 25.5991 42.5262 25.3891 42.5762 25.2491C42.6162 25.1091 42.6262 24.8691 42.6462 24.8491C42.6562 24.8291 42.6462 25.0991 42.6462 25.1491M42.1462 25.4791C42.2862 25.5591 42.6362 25.7091 42.7962 25.7091C42.9462 25.7191 43.1162 25.5491 43.0762 25.5291C43.0462 25.5191 42.6062 25.5691 42.5962 25.6091C42.5862 25.6591 43.0662 25.7791 43.0262 25.8091C42.9962 25.8491 42.4562 25.7491 42.3562 25.8391C42.2562 25.9191 42.4662 26.3891 42.4262 26.3491C42.3862 26.2991 42.1962 25.7391 42.1062 25.5691C42.0262 25.3891 41.9062 25.3091 41.9262 25.2691C41.9362 25.2291 42.0862 25.2791 42.1862 25.3291C42.2862 25.3691 42.4062 25.5091 42.4962 25.5291" stroke="white" stroke-width="0.5" stroke-linecap="round"/>
<path fill-rule="evenodd" clip-rule="evenodd" d="M42.8403 26.5778C42.9751 26.3875 41.2626 25.4345 41.2833 25.4261C41.3048 25.4077 42.5802 26.4376 42.966 26.5072C43.3611 26.5874 43.6085 26.1048 43.6167 25.8648" fill="white"/>
<path d="M42.0376 25.9249C42.0315 26.0047 41.9687 26.04 42.1704 26.0253C42.3713 26.0205 43.1137 26.017 43.2463 25.8566C43.3781 25.7062 42.9851 25.2049 42.9636 25.0929M41.7085 25.7694C41.7791 25.8952 42.5771 26.3471 42.8126 26.4152C43.0381 26.4826 43.0695 26.3345 43.1115 26.1773C43.1444 26.0093 43.0958 25.5944 43.0466 25.4502" stroke="#1E1E1E" stroke-width="0.5" stroke-linecap="round"/>
<path fill-rule="evenodd" clip-rule="evenodd" d="M43.1464 26.2644C43.213 25.9519 41.2833 25.0243 41.2565 24.9069C41.2311 24.7994 42.5586 25.4692 42.9912 25.5996" fill="white"/>
<path d="M41.7257 25.2947C41.8163 25.2212 42.5148 25.3745 42.7312 25.3336C42.9391 25.304 42.9152 25.1357 42.9916 25.1047M42.3334 25.875C42.4027 26.0065 42.5258 25.8072 42.6178 25.7436C42.7112 25.69 42.7268 25.5867 42.8711 25.5359" stroke="#1E1E1E" stroke-width="0.5" stroke-linecap="round"/>
<path d="M45.6434 25.2456C45.7534 25.2456 45.7934 25.3856 45.8234 25.4456C45.8634 25.5056 45.8934 25.5356 45.8434 25.6056C45.7934 25.6656 45.5934 25.7756 45.5434 25.8356C45.4834 25.9056 45.5834 26.0056 45.5234 26.0156C45.4734 26.0156 45.2734 25.9456 45.2234 25.8756C45.1634 25.8156 45.2034 25.7256 45.1934 25.6256C45.1834 25.5256 45.1934 25.3656 45.1734 25.3056C45.1434 25.2356 44.9834 25.2156 45.0434 25.2256C45.1134 25.2356 45.5434 25.4156 45.5734 25.3556C45.6034 25.3056 45.1934 24.9356 45.2134 24.9156M45.5134 25.0156C45.6234 24.9756 45.6934 24.9856 45.7434 25.1556C45.7934 25.3256 45.8434 25.9156 45.8134 26.0356C45.7734 26.1656 45.5634 25.8056 45.5434 25.8856C45.5334 25.9656 45.6934 26.5856 45.7134 26.5356C45.7334 26.4856 45.7034 25.6756 45.6534 25.5856C45.6134 25.5056 45.4734 26.0856 45.4434 26.0556C45.4134 26.0156 45.4534 25.5556 45.4834 25.3856C45.5034 25.2256 45.5534 25.0356 45.6234 25.0456C45.6834 25.0556 45.9134 25.3956 45.8734 25.4456C45.8334 25.4856 45.3734 25.3756 45.3734 25.3356" fill="white"/>
<path d="M45.5434 24.7456C45.6534 24.7456 45.8634 25.3556 45.9434 25.4356C46.0134 25.5256 46.0734 25.1656 46.0134 25.2356C45.9434 25.3156 45.6134 25.7056 45.5534 25.8856C45.4934 26.0556 45.6834 26.2556 45.6734 26.3056C45.6534 26.3456 45.5734 26.2556 45.4734 26.1356C45.3834 26.0256 45.1834 25.6956 45.1134 25.5956C45.0434 25.4856 45.0634 25.5856 45.0734 25.5056C45.0934 25.4256 45.1534 25.2456 45.2234 25.1256C45.2934 24.9956 45.4634 24.8256 45.4934 24.7656C45.5334 24.7056 45.3934 24.7056 45.4234 24.7556M45.1734 24.7356C45.2734 24.6956 45.9334 24.8056 46.0134 24.8856C46.1034 24.9756 45.7034 25.0156 45.6734 25.2656C45.6534 25.5156 45.9034 26.2256 45.8534 26.3756C45.8034 26.5256 45.5334 26.1956 45.3634 26.1556C45.1834 26.1056 44.9134 26.1456 44.8034 26.1156C44.6834 26.0956 44.6334 26.0556 44.6634 26.0056C44.6934 25.9656 44.8534 25.9356 44.9734 25.8256C45.0934 25.7156 45.2334 25.4656 45.3934 25.3656C45.5534 25.2656 45.8434 25.2656 45.9234 25.2156C46.0034 25.1656 45.9634 25.0756 45.8734 25.0856" stroke="white" stroke-width="0.5" stroke-linecap="round"/>
<path fill-rule="evenodd" clip-rule="evenodd" d="M46.8699 26.2431C46.8119 26.2684 46.2017 26.2926 45.6966 26.2572C45.1824 26.2327 43.9202 26.2648 43.8228 26.0727C43.7254 25.8805 44.9425 25.23 45.1111 25.0946" fill="white"/>
<path d="M46.098 25.579C46.0217 25.7363 46.0443 26.2162 45.7933 26.3289C45.5423 26.4416 44.6804 26.4581 44.5938 26.2751C44.5172 26.0912 45.2752 25.4715 45.2938 25.2289M45.6847 25.3346C45.5597 25.396 45.6695 25.7275 45.5934 25.7745C45.5181 25.8314 45.2509 25.8752 45.2232 25.6769C45.2055 25.4777 45.4504 24.733 45.448 24.5927" stroke="#1E1E1E" stroke-width="0.5" stroke-linecap="round"/>
<path fill-rule="evenodd" clip-rule="evenodd" d="M46.5868 26.3484C46.5363 26.2713 45.9951 25.7778 45.5408 25.5477C45.0965 25.3188 43.9864 25.014 43.9135 24.9542" fill="white"/>
<path d="M46.1471 25.616C45.9906 25.6563 45.1776 25.7831 45.0215 25.7428C44.8667 25.6925 45.2756 25.4933 45.2241 25.3454M45.8816 25.3296C45.8371 25.2835 45.8166 25.4422 45.6979 25.3462C45.5892 25.2515 45.3826 24.8214 45.2066 24.7785" stroke="#1E1E1E" stroke-width="0.5" stroke-linecap="round"/>
<path d="M43.545 28.0471C43.545 28.1271 43.825 28.2371 43.895 28.2571C43.965 28.2671 43.985 28.2071 43.965 28.1371C43.945 28.0771 43.805 27.8771 43.775 27.8771C43.735 27.8871 43.745 28.1471 43.735 28.1871C43.725 28.2271 43.715 28.1671 43.715 28.1071C43.715 28.0571 43.735 27.8971 43.725 27.8371C43.715 27.7771 43.605 27.7471 43.645 27.7771C43.675 27.8071 43.875 27.9671 43.935 28.0271C44.005 28.0871 44.075 28.1671 44.035 28.1271C44.005 28.0971 43.795 27.8171 43.705 27.8371M43.855 28.4871C43.865 28.5371 43.705 28.1371 43.615 28.0771C43.525 28.0171 43.365 28.0871 43.325 28.1371C43.275 28.1771 43.295 28.2771 43.345 28.3471C43.405 28.4171 43.555 28.5571 43.635 28.5671C43.725 28.5671 43.785 28.4471 43.865 28.3971C43.945 28.3471 44.085 28.3371 44.115 28.2971C44.155 28.2471 44.145 28.1271 44.055 28.1071C43.965 28.0971 43.585 28.2271 43.565 28.2071C43.555 28.1771 43.955 28.0171 43.955 27.9771C43.955 27.9371 43.535 27.8971 43.545 27.9671" stroke="#1E1E1E" stroke-width="0.5" stroke-linecap="round"/>
<path d="M42.4401 30.6171C42.4301 30.6171 41.8601 30.5771 41.8001 30.6371M42.1501 30.4371C42.2701 30.4471 42.4901 31.0071 42.4401 30.9871" stroke="#1E1E1E" stroke-width="0.5" stroke-linecap="round"/>
<path fill-rule="evenodd" clip-rule="evenodd" d="M41.8088 30.4653C41.6888 30.4053 41.4488 29.7753 41.3488 29.9653C41.2588 30.1453 41.1588 31.2453 41.2288 31.5753C41.2988 31.8953 41.6188 32.0953 41.7988 31.9153" fill="white"/>
<path d="M41.7088 30.0453C41.7588 29.9953 42.3988 30.0953 42.5688 30.2053C42.7388 30.3253 42.8288 30.6753 42.7188 30.7453C42.6188 30.8053 42.1388 30.6453 41.9588 30.6253M42.1988 30.7153C42.1788 30.5353 42.2188 29.7553 42.2888 29.6553C42.3588 29.5653 42.6388 29.9353 42.5988 30.1553C42.5588 30.3753 42.1288 30.8553 42.0488 30.9553" stroke="#1E1E1E" stroke-width="0.5" stroke-linecap="round"/>
<path fill-rule="evenodd" clip-rule="evenodd" d="M42.2467 30.6674C42.0867 30.7074 42.0367 30.9974 42.2667 31.2374C42.4967 31.4774 43.3167 32.3074 43.6367 32.0974C43.9667 31.8874 44.3167 30.4774 44.2067 29.9874" fill="white"/>
<path d="M43.4667 30.9174C43.5667 30.8874 43.7067 30.4274 43.7667 30.4074C43.8167 30.3874 43.8367 30.8574 43.7967 30.8074C43.7667 30.7574 43.5667 30.2174 43.5767 30.1074M43.0367 30.6774C43.1267 30.5674 43.4967 29.7974 43.5867 29.8874C43.6867 29.9674 43.6067 31.1074 43.5967 31.1974C43.5867 31.2874 43.5367 30.5974 43.5067 30.4374" stroke="#1E1E1E" stroke-width="0.5" stroke-linecap="round"/>
<path fill-rule="evenodd" clip-rule="evenodd" d="M43.2936 31.1555C43.4036 31.4155 43.7636 31.6955 44.0136 31.5855C44.2736 31.4855 44.9836 30.8155 44.8336 30.5355C44.6836 30.2555 43.1236 30.0355 43.1236 29.9155" fill="white"/>
<path d="M44.7936 30.3255C44.7236 30.3255 44.2736 30.2455 44.1836 30.2955C44.0836 30.3555 44.2336 30.5655 44.2136 30.6555C44.1836 30.7455 44.0636 30.7955 44.0136 30.8355M44.4636 30.1155C44.3536 30.1755 43.8436 30.5955 43.9236 30.7555C43.9936 30.9055 44.8836 30.9755 44.9136 31.0455C44.9436 31.1155 44.3436 31.1755 44.1036 31.1755" stroke="#1E1E1E" stroke-width="0.5" stroke-linecap="round"/>
<path fill-rule="evenodd" clip-rule="evenodd" d="M45.0096 31.4174C45.2296 31.2674 45.2696 30.4974 45.1296 30.2374C44.9996 29.9774 44.1496 29.9174 44.1996 29.8574C44.2496 29.7974 45.4196 29.8674 45.4296 29.8874" fill="white"/>
<path d="M45.1696 30.1275C45.0296 30.1375 44.5196 30.2475 44.4996 30.3575C44.4896 30.4675 45.0996 30.6875 45.0896 30.7775C45.0896 30.8775 44.6396 30.9175 44.4896 30.9275M44.7596 29.8275C44.7196 29.8775 45.1396 30.5875 45.1596 30.8075C45.1796 31.0375 44.9796 31.0975 44.8796 31.1775C44.7796 31.2575 44.5696 31.3175 44.5396 31.2775" stroke="#1E1E1E" stroke-width="0.5" stroke-linecap="round"/>
<path fill-rule="evenodd" clip-rule="evenodd" d="M42.6227 32.0408C42.9427 31.7408 43.4027 30.3308 43.3527 29.9608C43.3027 29.5908 42.2027 29.8708 42.3227 29.8408" fill="white"/>
<path d="M42.4627 30.7508C42.5027 30.6408 42.9127 30.0808 43.0227 30.0908C43.1327 30.1008 43.1627 30.6908 43.1427 30.7908M42.9627 30.4408C42.9627 30.3908 42.7727 30.4308 42.7627 30.5608C42.7427 30.6808 42.8827 31.1308 42.8927 31.2108" stroke="#1E1E1E" stroke-width="0.5" stroke-linecap="round"/>
<path d="M42.8302 30.6035C42.9402 30.5835 43.1402 30.4835 43.1402 30.4435M42.4202 30.3135C42.4902 30.1735 42.6502 29.7735 42.8402 29.8435" stroke="#1E1E1E" stroke-width="0.5" stroke-linecap="round"/>
<path fill-rule="evenodd" clip-rule="evenodd" d="M44.4795 29.8959C44.6195 29.6359 46.3395 29.1059 46.5195 29.1159C46.7095 29.1359 45.6195 29.4759 45.5795 29.9759" fill="white"/>
<path d="M45.2995 30.8559C45.2895 30.7259 45.2795 30.0259 45.3295 30.0759C45.3695 30.1159 45.4695 30.9459 45.5495 31.1359M44.8495 30.5759C44.9395 30.5059 45.7295 30.5059 45.9595 30.5059C46.1995 30.5059 46.2395 30.5559 46.2295 30.5759" stroke="#1E1E1E" stroke-width="0.5" stroke-linecap="round"/>
<path d="M45.1117 30.4876C45.1317 30.5076 45.3717 30.6476 45.4917 30.6976M45.6017 30.1676C45.7217 30.0876 46.1217 30.1976 46.1117 30.2076" stroke="#1E1E1E" stroke-width="0.5" stroke-linecap="round"/>
</svg>
