<svg width="84" height="127" viewBox="0 0 84 127" fill="none" xmlns="http://www.w3.org/2000/svg">
<path d="M21.784 2.79957C30.914 -0.130428 40.024 -0.280428 62.184 2.79957C78.794 1.04957 84.384 7.01957 82.384 22.9996C80.434 35.9196 81.504 58.5096 82.384 104.55C80.144 121.01 78.314 122.96 62.184 124.75C48.134 128.33 27.264 125.66 21.784 124.75C8.62396 127.94 0.183962 120.01 1.58396 104.55C0.613962 84.5496 3.87396 64.7096 1.58396 22.9996C3.58396 11.8596 7.26396 0.329572 21.784 2.79957Z" fill="white"/>
<path d="M21.784 2.79958C35.944 4.35958 50.754 2.14958 62.184 2.79958M21.784 2.79958C37.234 2.84958 52.064 2.14958 62.184 2.79958M21.784 2.79958C9.83396 4.40958 2.44396 9.56958 1.58396 22.9996M21.784 2.79958C7.77396 3.27958 1.57396 7.35958 1.58396 22.9996M62.184 2.79958C74.554 2.14958 84.124 8.07958 82.384 22.9996M62.184 2.79958C75.214 2.36958 83.554 9.91958 82.384 22.9996M82.384 22.9996C80.924 43.0596 80.964 62.8396 82.384 104.55M82.384 22.9996C82.584 41.2796 83.404 58.4896 82.384 104.55M82.384 104.55C83.594 116.14 76.314 123.39 62.184 124.75M82.384 104.55C82.354 117.46 76.404 122.93 62.184 124.75M62.184 124.75C52.034 124.07 44.464 126.76 21.784 124.75M62.184 124.75C47.414 125.69 32.584 125.43 21.784 124.75M21.784 124.75C7.42396 125.75 2.47396 117.53 1.58396 104.55M21.784 124.75C7.27396 123.32 1.00396 118.13 1.58396 104.55M1.58396 104.55C2.85396 72.0296 1.25396 42.9796 1.58396 22.9996M1.58396 104.55C2.29396 80.6996 2.06396 56.3396 1.58396 22.9996" stroke="#1E1E1E" stroke-width="2" stroke-linecap="round"/>
<path d="M29.1413 53.761C29.1313 51.651 26.5713 44.741 28.5313 40.951C30.5013 37.161 38.8913 32.661 40.9513 31.041M28.6913 53.321C28.6013 51.061 25.9913 43.821 28.0013 40.191C30.0113 36.551 38.5413 32.941 40.7413 31.521" stroke="#1E1E1E" stroke-linecap="round"/>
<path d="M52.0903 53.6988C52.0703 51.4688 54.4703 43.7488 52.5503 39.9388C50.6303 36.1188 42.5903 32.3888 40.5803 30.8088M52.9903 53.4288C52.8803 51.2588 54.3603 44.1988 52.2503 40.5188C50.1503 36.8488 42.2803 33.0088 40.3503 31.3688" stroke="#1E1E1E" stroke-linecap="round"/>
<path d="M29.5842 52.8779C31.3942 51.8979 36.2242 47.6779 39.9442 47.6079C43.6642 47.5379 49.9742 51.6079 51.8942 52.4579M29.0542 52.2879C30.8242 51.3579 35.8742 48.1779 39.6342 48.2679C43.3942 48.3579 49.6542 52.0179 51.6142 52.8279" stroke="#1E1E1E" stroke-linecap="round"/>
<path d="M53.2501 40.4378C53.1501 41.1578 53.2401 42.1578 53.2501 43.0278C53.2301 42.3278 53.2701 41.6578 53.2501 40.4378ZM53.2501 40.4378C52.6901 39.1478 53.7501 36.9378 55.8401 37.8478M53.2501 40.4378C53.3601 37.6878 54.1801 36.8978 55.8401 37.8478M55.8401 37.8478C57.6001 38.0178 59.1001 37.9978 60.6901 37.8478M55.8401 37.8478C56.8401 37.8378 57.8901 37.7678 60.6901 37.8478M60.6901 37.8478C61.5701 37.2778 63.8901 36.2478 63.2901 35.2578M60.6901 37.8478C61.9001 37.6478 64.3001 37.6578 63.2901 35.2578M63.2901 35.2578C63.3701 34.4178 63.3301 33.6778 63.2901 32.6678C63.2601 33.4478 63.2501 34.3078 63.2901 35.2578Z" stroke="#1E1E1E" stroke-linecap="round"/>
<path d="M63.1301 31.9778C63.2001 32.0478 63.5201 32.0678 63.5901 32.2178C63.6601 32.3778 63.5101 32.7278 63.5601 32.8978C63.6001 33.0578 63.9201 33.1178 63.8801 33.2078C63.8401 33.2978 63.4501 33.3578 63.3301 33.4378C63.2101 33.5078 63.1901 33.7278 63.1601 33.6578C63.1401 33.5978 63.3501 33.2378 63.1801 33.0478C63.0201 32.8578 62.2201 32.7178 62.1701 32.5278C62.1201 32.3278 62.8101 31.9078 62.9101 31.8778C63.0101 31.8578 62.7001 32.3978 62.7601 32.3678C62.8201 32.3378 63.1801 31.8078 63.2501 31.7078M62.9001 31.3178C63.1601 31.2178 64.1501 31.8578 64.2201 31.9678C64.3001 32.0678 63.4901 31.6778 63.3501 31.9478C63.2101 32.2278 63.4801 33.2878 63.4001 33.6178C63.3301 33.9478 62.8901 34.0478 62.9001 33.9078C62.9201 33.7778 63.4201 32.8878 63.4901 32.8178C63.5701 32.7578 63.3801 33.5378 63.3601 33.5378C63.3401 33.5278 63.3401 33.1378 63.3801 32.7878C63.4201 32.4378 63.5801 31.5278 63.6001 31.4178C63.6101 31.3078 63.3901 32.0578 63.4801 32.1078C63.5601 32.1678 64.0301 31.8178 64.0901 31.7678" fill="#1E1E1E"/>
<path d="M63.1601 32.4678C63.3001 32.4978 63.2501 32.0478 63.3701 32.1078C63.4801 32.1778 63.7401 32.7478 63.8301 32.8478C63.9201 32.9478 63.9301 32.6878 63.9101 32.7278C63.8801 32.7678 63.9101 32.9878 63.6901 33.0878C63.4701 33.1778 62.8101 33.3078 62.5701 33.2878C62.3401 33.2678 62.3201 33.0678 62.2701 32.9678C62.2101 32.8778 62.1601 32.8478 62.2501 32.7078C62.3401 32.5578 62.5801 32.1578 62.8101 32.0978C63.0301 32.0478 63.5101 32.3478 63.6001 32.3878C63.6901 32.4278 63.4601 32.3778 63.3401 32.3578M63.4201 31.4478C63.4501 31.3778 62.8201 31.6178 62.9701 31.6878C63.1301 31.7678 64.2501 31.7278 64.3401 31.8978C64.4401 32.0778 63.5601 32.4578 63.5501 32.7478C63.5301 33.0378 64.3401 33.4878 64.2701 33.6578C64.2001 33.8178 63.4001 33.7678 63.1201 33.7478C62.8401 33.7378 62.7501 33.7078 62.5901 33.5878C62.4401 33.4578 62.2301 33.1378 62.2101 32.9778C62.1901 32.8278 62.2401 32.8178 62.4601 32.6278C62.6701 32.4478 63.4501 32.0378 63.5101 31.8578C63.5701 31.6878 62.9201 31.5478 62.8401 31.5878" stroke="#1E1E1E" stroke-linecap="round"/>
<path d="M55.0175 50.9245C54.1575 51.0345 53.2075 50.8545 52.4275 50.9245C53.0475 50.9345 53.5675 50.9545 55.0175 50.9245ZM55.0175 50.9245C56.3875 50.0145 57.7075 50.8945 57.6075 53.5145M55.0175 50.9245C56.8075 49.9845 58.0475 51.5645 57.6075 53.5145M57.6075 53.5145C57.6075 53.6445 57.5875 53.7645 57.6075 53.9245M57.6075 53.5145C57.6175 53.6045 57.5975 53.7045 57.6075 53.9245M57.6075 53.9245C58.2075 54.9245 58.0175 56.3445 60.1975 56.5145M57.6075 53.9245C58.6275 56.3345 58.3975 57.2345 60.1975 56.5145M60.1975 56.5145C60.9675 56.4645 61.6875 56.5845 62.7875 56.5145C61.6775 56.5345 60.8975 56.5245 60.1975 56.5145Z" stroke="#1E1E1E" stroke-linecap="round"/>
<path d="M62.6075 55.9945C62.6875 56.0345 62.6075 56.2845 62.7375 56.3845C62.8675 56.4745 63.3075 56.4945 63.3775 56.5845C63.4475 56.6745 63.1775 56.7745 63.1475 56.9145C63.1075 57.0545 63.1575 57.3945 63.1575 57.4245C63.1475 57.4645 63.3375 57.2445 63.1175 57.1445C62.8975 57.0445 61.9975 56.9945 61.8475 56.8345C61.7075 56.6745 62.2575 56.2545 62.2575 56.1945C62.2475 56.1245 61.7475 56.5745 61.8075 56.4645C61.8775 56.3645 62.5175 55.7045 62.6675 55.5545C62.8075 55.4045 62.6075 55.5145 62.6775 55.5445M63.3075 55.5745C63.4275 55.5845 62.7275 55.1045 62.6875 55.3545C62.6475 55.5945 63.0575 56.6545 63.0775 57.0245C63.0975 57.3845 62.7675 57.5745 62.8375 57.5345C62.8975 57.4945 63.4275 56.7245 63.4775 56.7645C63.5375 56.8045 63.2775 57.7045 63.1775 57.7645C63.0775 57.8245 62.9475 57.4745 62.8775 57.1245C62.8175 56.7645 62.8475 55.8145 62.7875 55.6345C62.7275 55.4545 62.3775 56.0545 62.4975 56.0445C62.6275 56.0345 63.4175 55.6645 63.5475 55.5945C63.6775 55.5345 63.3075 55.5545 63.2975 55.6345" fill="#1E1E1E"/>
<path d="M62.3375 55.7945C62.4775 55.7345 62.8475 56.1945 63.0375 56.2345C63.2375 56.2745 63.3975 55.9845 63.4875 56.0445C63.5875 56.0945 63.7475 56.3945 63.6075 56.5745C63.4675 56.7545 62.8675 57.0245 62.6375 57.1245C62.4075 57.2245 62.3375 57.1745 62.2075 57.1645C62.0875 57.1645 61.8975 57.2145 61.8775 57.0945C61.8475 56.9745 61.9375 56.5445 62.0575 56.4345C62.1675 56.3345 62.4675 56.4845 62.5675 56.4445C62.6775 56.4045 62.7375 56.2545 62.6875 56.1845C62.6375 56.1245 62.3175 56.1045 62.2675 56.0645M62.1175 55.4545C62.2775 55.4445 63.4675 55.3245 63.6275 55.4645C63.7875 55.5945 63.0075 55.9445 63.0775 56.2345C63.1375 56.5345 64.0475 57.0245 64.0275 57.2445C64.0175 57.4645 63.2675 57.5045 62.9975 57.5645C62.7275 57.6345 62.6075 57.7045 62.4075 57.6445C62.2175 57.5845 61.9275 57.3245 61.8275 57.1845C61.7275 57.0545 61.6775 57.0445 61.8175 56.8245C61.9575 56.6045 62.5875 56.1045 62.6875 55.8745C62.7775 55.6445 62.4275 55.4145 62.4075 55.4245C62.3875 55.4345 62.4175 55.8345 62.5675 55.9345" stroke="#1E1E1E" stroke-linecap="round"/>
<path d="M27.2569 39.3258C27.1169 40.8258 27.2069 42.4658 27.2569 43.6858C27.1869 42.5058 27.2069 41.1358 27.2569 39.3258ZM27.2569 39.3258C27.3469 36.6858 26.4369 35.8758 24.6269 36.6958M27.2569 39.3258C27.6869 37.3558 26.2469 37.2758 24.6269 36.6958M24.6269 36.6958C22.4169 36.5158 22.8769 36.4058 21.9969 34.0658M24.6269 36.6958C22.7969 37.4158 21.6869 36.6158 21.9969 34.0658M21.9969 34.0658C22.0969 33.1058 21.9269 31.8458 21.9969 29.7058C21.9369 32.0558 22.0769 33.0358 21.9969 34.0658Z" stroke="#1E1E1E" stroke-linecap="round"/>
<path d="M21.6169 29.1559C21.8269 29.1759 22.4269 29.1559 22.6069 29.2459C22.7969 29.3459 22.6669 29.5059 22.7169 29.7159C22.7569 29.9359 22.8769 30.3959 22.8869 30.5459C22.8969 30.6959 23.0469 30.6159 22.7669 30.6059C22.4869 30.6059 21.4569 30.6359 21.2069 30.5159C20.9469 30.3859 21.3569 29.9559 21.2369 29.8559C21.1269 29.7459 20.5269 30.0959 20.5369 29.8859C20.5469 29.6859 21.0769 28.8859 21.3169 28.6359C21.5569 28.3759 21.7869 28.3859 21.9669 28.3659C22.1569 28.3459 22.3969 28.4859 22.4469 28.4959M21.1669 28.0059C21.2369 28.0859 21.8669 29.0259 22.0769 29.3459C22.2869 29.6659 22.2069 29.8859 22.4469 29.9259C22.6869 29.9659 23.3769 29.3859 23.5169 29.5959C23.6469 29.8059 23.3969 30.9559 23.2369 31.1959C23.0769 31.4359 22.7969 31.2959 22.5769 31.0459C22.3469 30.7959 22.1369 29.8959 21.8769 29.6959C21.6269 29.4959 21.0469 29.9759 21.0469 29.8359C21.0369 29.6959 21.6569 29.0659 21.8469 28.8359C22.0369 28.6159 22.0869 28.4759 22.1669 28.4859C22.2469 28.4959 22.3969 28.7959 22.3369 28.9159" fill="#1E1E1E"/>
<path d="M22.1169 29.0059C22.3969 29.0059 22.6869 28.7259 22.8769 28.8259C23.0569 28.9159 23.3169 29.2959 23.2169 29.5659C23.1169 29.8259 22.5369 30.2159 22.2769 30.4059C22.0269 30.5959 21.8869 30.6459 21.6769 30.6959C21.4769 30.7459 21.1669 30.8459 21.0469 30.7159C20.9169 30.5859 20.8969 30.1159 20.9369 29.9459C20.9869 29.7659 21.2269 29.8159 21.3169 29.6859C21.4069 29.5459 21.4169 29.2659 21.4969 29.1359C21.5669 29.0059 21.6969 28.9759 21.7669 28.9159C21.8369 28.8559 21.8669 28.7559 21.9169 28.7759M22.2469 28.1959C22.4969 28.1959 21.9069 28.4459 22.1269 28.7159C22.3569 28.9759 23.4669 29.4959 23.5869 29.7859C23.7169 30.0859 23.1069 30.2759 22.8969 30.4859C22.6869 30.6959 22.5669 30.9759 22.3169 31.0559C22.0669 31.1359 21.6469 31.0459 21.4069 30.9859C21.1769 30.9359 20.9169 30.9659 20.9069 30.7259C20.8869 30.4859 21.3269 29.8959 21.3269 29.5459C21.3169 29.1959 20.8169 28.7559 20.8669 28.6259C20.9169 28.4959 21.3569 28.7459 21.6069 28.7859C21.8569 28.8159 22.4069 28.7459 22.3669 28.8459" stroke="#1E1E1E" stroke-linecap="round"/>
<path d="M23.4704 44.673C25.6104 44.803 26.5504 44.653 27.7504 44.673C26.3604 44.583 25.0504 44.583 23.4704 44.673ZM23.4704 44.673C20.6704 43.853 19.5704 45.903 19.2004 48.953M23.4704 44.673C20.4904 45.253 20.0104 46.023 19.2004 48.953M19.2004 48.953C19.0604 50.193 19.1404 51.493 19.2004 52.403M19.2004 48.953C19.2304 49.653 19.1404 50.463 19.2004 52.403M19.2004 52.403C20.0804 55.853 17.7004 57.303 14.9204 56.683M19.2004 52.403C18.8904 56.053 17.1104 57.173 14.9204 56.683M14.9204 56.683C13.7704 56.593 12.6004 56.643 10.6404 56.683C12.2104 56.673 13.5504 56.753 14.9204 56.683Z" stroke="#1E1E1E" stroke-linecap="round"/>
<path d="M10.7004 55.703C10.9704 55.663 11.0504 55.743 11.2504 55.943C11.4604 56.143 11.7904 56.653 11.9304 56.893C12.0804 57.133 12.3604 57.233 12.1304 57.383C11.9004 57.533 10.8704 57.783 10.5504 57.803C10.2404 57.833 10.5004 57.553 10.2504 57.523C9.9904 57.483 9.1704 57.853 9.0304 57.603C8.8804 57.363 9.2404 56.443 9.3704 56.053C9.5104 55.673 9.5404 55.443 9.8404 55.283C10.1404 55.133 10.9804 55.183 11.1804 55.143C11.3904 55.103 11.2304 54.963 11.0704 55.073M10.1504 55.913C10.4304 56.103 10.5204 56.223 10.9004 56.233C11.2804 56.233 12.1704 55.673 12.4404 55.953C12.7104 56.233 12.6004 57.513 12.5104 57.893C12.4204 58.273 12.1504 58.323 11.8904 58.213C11.6304 58.113 11.3104 57.373 10.9404 57.253C10.5604 57.133 9.8004 57.673 9.6504 57.513C9.4904 57.353 9.9404 56.633 10.0204 56.303C10.1004 55.963 9.9504 55.643 10.1304 55.513C10.3004 55.383 11.0204 55.493 11.0904 55.533C11.1604 55.563 10.5204 55.623 10.5404 55.743" fill="#1E1E1E"/>
<path d="M10.6604 55.103C10.9804 55.003 11.5104 55.243 11.6404 55.463C11.7704 55.693 11.5004 56.133 11.4504 56.443C11.4004 56.753 11.4604 57.033 11.3504 57.303C11.2304 57.573 10.9304 57.973 10.7304 58.073C10.5304 58.163 10.3104 57.923 10.1604 57.873C10.0104 57.813 9.9504 57.913 9.8104 57.743C9.6704 57.563 9.4104 57.123 9.3304 56.823C9.2404 56.513 9.1404 56.133 9.3004 55.893C9.4504 55.653 10.0704 55.433 10.2704 55.373C10.4804 55.323 10.5404 55.623 10.5304 55.573M10.1104 55.263C10.4104 55.373 11.7004 55.773 11.9904 56.023C12.2704 56.273 11.8804 56.473 11.8204 56.743C11.7604 57.023 11.8104 57.453 11.6404 57.683C11.4804 57.923 11.0904 58.043 10.8204 58.153C10.5504 58.263 10.1804 58.473 10.0404 58.333C9.9004 58.193 10.1304 57.663 9.9604 57.303C9.7904 56.943 9.0804 56.423 9.0104 56.173C8.9304 55.933 9.1504 55.973 9.4904 55.853C9.8304 55.733 10.9404 55.463 11.0304 55.473C11.1204 55.483 10.2404 55.933 10.0304 55.933" stroke="#1E1E1E" stroke-linecap="round"/>
<path d="M61.2301 45.331C59.4901 45.111 56.2601 45.541 53.2501 45.331C56.0101 45.191 58.7501 45.201 61.2301 45.331ZM61.2301 45.331C63.4201 45.141 63.8301 46.741 63.9401 48.041M61.2301 45.331C63.8501 45.261 64.6401 45.161 63.9401 48.041M63.9401 48.041C63.8801 50.481 64.5901 51.451 66.6601 50.761M63.9401 48.041C63.2801 50.351 64.3301 51.341 66.6601 50.761M66.6601 50.761C69.1601 50.681 72.1801 51.081 74.6401 50.761C71.5901 50.721 68.9501 50.711 66.6601 50.761Z" stroke="#1E1E1E" stroke-linecap="round"/>
<path d="M74.7501 49.311C75.1101 49.371 75.7101 49.841 76.0501 50.101C76.4001 50.351 76.9101 50.541 76.8101 50.831C76.7201 51.111 75.7801 51.581 75.4801 51.791C75.1701 52.001 75.3501 51.961 74.9801 52.091C74.6001 52.211 73.5601 52.721 73.2201 52.531C72.8801 52.341 72.9801 51.401 72.9401 50.941C72.9001 50.471 72.7601 50.071 72.9801 49.751C73.2001 49.431 73.8501 49.171 74.2501 49.001C74.6401 48.841 75.2801 48.681 75.3401 48.751C75.4001 48.821 74.6901 49.411 74.6001 49.431M73.7401 49.731C74.2301 49.471 75.4301 48.681 75.9601 48.851C76.5001 49.021 76.7601 50.281 76.9401 50.741C77.1201 51.201 77.1501 51.471 77.0301 51.591C76.9201 51.711 76.6601 51.331 76.2401 51.481C75.8201 51.641 74.8801 52.491 74.5101 52.521C74.1401 52.551 74.2301 51.981 74.0301 51.661C73.8201 51.341 73.3201 50.911 73.2801 50.621C73.2401 50.321 73.6201 50.101 73.7801 49.901C73.9401 49.701 74.0501 49.441 74.2401 49.431C74.4301 49.411 74.8601 49.771 74.9301 49.821" fill="#1E1E1E"/>
<path d="M75.0801 48.881C75.3501 48.961 75.3401 49.351 75.4901 49.651C75.6301 49.951 75.9401 50.321 75.9701 50.711C75.9901 51.091 75.8101 51.711 75.6401 51.981C75.4701 52.261 75.1901 52.261 74.9301 52.371C74.6701 52.481 74.4001 52.741 74.0801 52.631C73.7501 52.521 73.2301 52.091 72.9701 51.721C72.7001 51.351 72.4101 50.821 72.4701 50.421C72.5401 50.021 72.9501 49.511 73.3401 49.311C73.7301 49.121 74.6001 49.341 74.8001 49.241C75.0101 49.131 74.6101 48.641 74.5801 48.691M74.9801 49.521C75.3801 49.541 75.2701 49.551 75.4601 49.741C75.6501 49.931 76.0301 50.361 76.1001 50.681C76.1701 51.001 76.0301 51.331 75.8801 51.651C75.7301 51.971 75.4001 52.511 75.2001 52.611C75.0001 52.711 75.0501 52.461 74.6801 52.261C74.3001 52.061 73.2801 51.641 72.9401 51.401C72.6101 51.161 72.5201 51.091 72.6701 50.811C72.8201 50.541 73.6401 49.961 73.8401 49.751C74.0401 49.551 73.9201 49.711 73.8801 49.591C73.8501 49.471 73.5601 49.091 73.6301 49.021" stroke="#1E1E1E" stroke-linecap="round"/>
<path d="M28.7883 54.8142C28.9083 52.1242 28.8283 50.4142 28.7883 48.9242C28.7983 50.0342 28.8483 51.3542 28.7883 54.8142ZM28.7883 54.8142C28.6783 58.1842 28.0683 59.0442 24.4983 59.1042M28.7883 54.8142C29.4783 56.6042 27.7383 58.3242 24.4983 59.1042M24.4983 59.1042C21.3783 59.7942 19.6383 60.9642 20.2083 63.3942M24.4983 59.1042C21.1183 59.6842 20.7183 60.2542 20.2083 63.3942M20.2083 63.3942C20.2083 65.1142 20.2183 66.2242 20.2083 69.2842C20.2083 67.6242 20.1683 65.5542 20.2083 63.3942Z" stroke="#1E1E1E" stroke-linecap="round"/>
<path d="M20.4783 68.0542C20.9183 68.0542 21.6883 68.0342 21.8383 68.2142C21.9883 68.3942 21.4083 68.8542 21.3683 69.1442C21.3183 69.4242 21.7983 69.6042 21.5783 69.9442C21.3583 70.2942 20.4183 71.1442 20.0583 71.2142C19.6983 71.2842 19.6383 70.6542 19.4083 70.3642C19.1783 70.0842 18.7183 69.8142 18.6683 69.5042C18.6183 69.1942 18.9383 68.8442 19.1083 68.5142C19.2683 68.1842 19.4883 67.6342 19.6483 67.5442C19.8083 67.4542 19.9283 68.0042 20.0583 67.9742C20.1783 67.9442 20.4083 67.4142 20.4083 67.3542M21.0483 67.3142C21.5683 67.3542 21.8983 68.5342 22.1383 68.9242C22.3883 69.3142 22.5383 69.5342 22.5183 69.6542C22.5083 69.7742 22.3983 69.4242 22.0583 69.6442C21.7283 69.8642 20.8783 70.8242 20.5383 70.9542C20.2083 71.0842 20.2983 70.6342 20.0583 70.4042C19.8183 70.1742 19.2283 69.8342 19.0883 69.5742C18.9583 69.3142 19.2083 69.0942 19.2583 68.8642C19.3183 68.6342 19.1083 68.2842 19.4283 68.1942C19.7583 68.1142 20.9583 68.3642 21.2083 68.3642C21.4583 68.3642 21.0683 68.3742 20.9083 68.1942" fill="#1E1E1E"/>
<path d="M19.5283 67.7242C19.7383 67.6842 20.3183 67.7242 20.6283 67.9342C20.9283 68.1342 21.1783 68.6542 21.3483 68.9742C21.5083 69.2842 21.6383 69.4842 21.6283 69.8342C21.6083 70.1942 21.5283 70.8542 21.2283 71.0742C20.9283 71.3042 20.2983 71.2842 19.8383 71.1842C19.3783 71.0742 18.7283 70.7842 18.4583 70.4542C18.1883 70.1342 18.1683 69.5742 18.2383 69.2242C18.3083 68.8742 18.6383 68.6942 18.8783 68.3642C19.1183 68.0342 19.4983 67.3042 19.6683 67.2342C19.8283 67.1742 19.8483 67.9342 19.8583 67.9942M20.0883 68.1242C20.2783 68.1042 20.7883 68.3242 20.9983 68.5142C21.2183 68.7042 21.3183 68.9342 21.3683 69.2542C21.4183 69.5742 21.3483 70.1842 21.3183 70.4142C21.2783 70.6442 21.4883 70.6142 21.1683 70.6042C20.8383 70.6042 19.7983 70.4442 19.3783 70.3742C18.9583 70.3042 18.6783 70.4042 18.6483 70.2042C18.6083 69.9942 19.1583 69.4242 19.1683 69.1542C19.1683 68.8842 18.6283 68.8542 18.6783 68.5942C18.7183 68.3342 19.2183 67.7242 19.4383 67.5642C19.6683 67.4042 19.9083 67.6742 20.0483 67.6342" stroke="#1E1E1E" stroke-linecap="round"/>
<path d="M58.7544 35.1609C58.6644 35.9909 58.7944 36.9109 58.7544 37.9109C58.7744 37.3209 58.7444 36.7709 58.7544 35.1609ZM58.7544 35.1609C59.2244 35.0709 59.1744 34.4709 58.8144 35.0909M58.7544 35.1609C59.0044 34.5909 58.7644 34.9109 58.8144 35.0909M58.8144 35.0909C58.4744 35.3809 58.5844 35.4109 58.8844 35.0309M58.8144 35.0909C59.2044 34.9109 58.5344 34.6009 58.8844 35.0309M58.8844 35.0309C58.8944 34.2209 58.9444 33.4309 58.8844 32.2809C58.9244 33.4409 58.8944 34.2109 58.8844 35.0309Z" stroke="#1E1E1E" stroke-linecap="round"/>
<path d="M59.1644 32.1109C59.1444 32.0609 58.6944 32.0909 58.6844 32.0809C58.6744 32.0609 59.1144 31.9309 59.1144 32.0209C59.1244 32.1009 58.7444 32.5509 58.7144 32.5909C58.6744 32.6209 58.9044 32.2709 58.9244 32.2109C58.9344 32.1409 58.7844 32.1909 58.8044 32.1809C58.8244 32.1809 59.0044 32.2109 59.0244 32.1809C59.0444 32.1509 59.0044 31.9809 58.9044 32.0009C58.8144 32.0309 58.4844 32.3609 58.4644 32.3309C58.4344 32.3109 58.7344 31.9209 58.7544 31.8509C58.7744 31.7909 58.5044 31.9509 58.5744 31.9609M59.3644 32.5709C59.4144 32.6509 59.4444 32.5409 59.4644 32.4109C59.4744 32.2809 59.5244 31.8109 59.4544 31.8109C59.3844 31.8109 59.0644 32.3509 59.0444 32.4209C59.0344 32.4909 59.3544 32.2709 59.3644 32.2409C59.3644 32.2109 59.1244 32.2109 59.0844 32.2409C59.0444 32.2709 59.1744 32.4009 59.1144 32.4309C59.0644 32.4609 58.7244 32.4109 58.7444 32.4409C58.7744 32.4709 59.2044 32.5909 59.2744 32.5909C59.3444 32.5909 59.2644 32.5709 59.1844 32.4409C59.0944 32.3009 58.8544 31.7909 58.7544 31.7709" fill="#1E1E1E"/>
<path d="M58.5744 32.1309C58.6144 32.1409 58.6444 32.2609 58.7044 32.2709C58.7744 32.2809 58.8944 32.1509 58.9744 32.2009C59.0644 32.2509 59.2044 32.5109 59.1944 32.5809C59.1944 32.6609 59.0444 32.6309 58.9244 32.6309C58.8144 32.6209 58.5944 32.5909 58.5244 32.5409C58.4544 32.5009 58.5044 32.3909 58.5144 32.3609C58.5344 32.3309 58.6444 32.4509 58.6344 32.3709C58.6344 32.2809 58.4944 31.8809 58.5044 31.8709C58.5144 31.8609 58.6644 32.3009 58.6844 32.3109C58.7044 32.3309 58.6144 31.9409 58.6344 31.9609M58.7644 32.4609C58.7544 32.4409 58.7044 32.3709 58.7144 32.3809C58.7244 32.3809 58.7344 32.5309 58.8244 32.5109C58.9144 32.4909 59.2644 32.3109 59.2344 32.2509C59.2144 32.1809 58.7844 32.0909 58.6944 32.1209C58.6044 32.1609 58.6144 32.4009 58.6844 32.4509C58.7544 32.4909 59.1544 32.3809 59.1144 32.4009C59.0744 32.4209 58.5644 32.6209 58.4344 32.5709C58.3044 32.5209 58.2544 32.1609 58.3244 32.0809C58.3944 32.0009 58.7244 32.1209 58.8344 32.0709C58.9544 32.0209 58.9144 31.7709 58.9944 31.7709" stroke="#1E1E1E" stroke-linecap="round"/>
<path d="M57.9861 57.701C57.9061 56.491 57.8961 55.771 57.9861 55.071C58.0161 55.801 58.0161 56.501 57.9861 57.701ZM57.9861 57.701C58.2061 58.011 57.5961 58.691 56.8361 58.851M57.9861 57.701C58.2361 57.861 56.9461 58.411 56.8361 58.851M56.8361 58.851C56.3661 58.691 55.3761 58.821 55.6761 60.001M56.8361 58.851C55.8761 58.891 56.2661 59.311 55.6761 60.001M55.6761 60.001C55.6761 60.631 55.6761 61.291 55.6761 62.631C55.7061 61.221 55.7161 60.591 55.6761 60.001Z" stroke="#1E1E1E" stroke-linecap="round"/>
<path d="M55.7461 62.031C55.8261 62.081 55.5561 62.521 55.5961 62.581C55.6461 62.631 55.9661 62.341 56.0261 62.341C56.0861 62.331 55.9661 62.481 55.9761 62.561C55.9861 62.641 56.1361 62.771 56.0961 62.791C56.0561 62.821 55.9161 62.691 55.7461 62.721C55.5761 62.761 55.1461 63.061 55.0461 62.991C54.9561 62.921 55.1761 62.441 55.1961 62.311C55.2061 62.181 55.0061 62.241 55.1261 62.201C55.2461 62.161 55.7861 62.011 55.9261 62.071C56.0661 62.121 56.0461 62.441 55.9861 62.531M56.1361 61.821C56.1461 61.791 55.9261 62.341 55.9761 62.441C56.0361 62.541 56.4361 62.391 56.4761 62.421C56.5161 62.461 56.2861 62.561 56.2361 62.671C56.1761 62.771 56.2561 62.981 56.1361 63.061C56.0261 63.141 55.5861 63.121 55.5361 63.151C55.4861 63.171 55.8161 63.261 55.8261 63.211C55.8461 63.161 55.7061 63.041 55.6261 62.841C55.5461 62.631 55.3861 62.041 55.3561 61.981C55.3261 61.921 55.3661 62.481 55.4461 62.481C55.5161 62.471 55.7461 61.931 55.8161 61.961" fill="#1E1E1E"/>
<path d="M55.6161 62.241C55.7661 62.251 56.0161 62.511 56.0761 62.601C56.1461 62.681 56.0761 62.721 56.0061 62.771C55.9361 62.821 55.7461 62.881 55.6761 62.911C55.5961 62.941 55.6061 62.931 55.5761 62.951C55.5361 62.981 55.5561 63.141 55.4761 63.061C55.3961 62.991 55.1661 62.561 55.1061 62.511C55.0561 62.461 55.1261 62.811 55.1461 62.761C55.1561 62.711 55.1361 62.231 55.2161 62.201C55.2961 62.171 55.5161 62.561 55.6261 62.571C55.7461 62.581 55.8461 62.321 55.8861 62.261M55.4961 62.531C55.6561 62.481 56.1061 62.301 56.1561 62.261C56.2161 62.221 55.8561 62.201 55.8061 62.301C55.7561 62.391 55.7861 62.741 55.8361 62.861C55.8961 62.981 56.2461 62.951 56.1461 63.021C56.0461 63.091 55.4461 63.331 55.2361 63.281C55.0261 63.231 54.8861 62.841 54.8961 62.701C54.9061 62.571 55.1661 62.611 55.2861 62.491C55.3961 62.371 55.4361 62.031 55.5761 61.991C55.7261 61.961 56.0761 62.271 56.1561 62.271C56.2261 62.281 56.0761 62.011 56.0361 62.021" stroke="#1E1E1E" stroke-linecap="round"/>
<path d="M23.1536 62.1756C23.1836 61.5256 23.1336 60.9256 23.1536 60.3856C23.1636 60.8956 23.1536 61.4356 23.1536 62.1756ZM23.1536 62.1756C23.3736 62.8456 23.1836 63.5856 24.9436 63.9756M23.1536 62.1756C23.6136 62.8156 23.4036 63.8356 24.9436 63.9756M24.9436 63.9756C26.3136 63.9456 27.6136 63.9056 28.2736 63.9756M24.9436 63.9756C26.1136 63.9556 27.2036 63.9356 28.2736 63.9756M28.2736 63.9756C29.3036 64.0056 30.5736 64.6356 30.0736 65.7656M28.2736 63.9756C29.0336 64.4956 29.3636 64.4756 30.0736 65.7656M30.0736 65.7656C30.0236 66.3356 30.0636 66.8356 30.0736 67.5556C30.0736 66.6256 30.0936 66.2356 30.0736 65.7656Z" stroke="#1E1E1E" stroke-linecap="round"/>
<path d="M30.0237 67.0156C30.1437 66.9356 30.1237 67.0056 30.2337 67.0556C30.3337 67.1056 30.6137 67.2356 30.6637 67.3056C30.7137 67.3656 30.6737 67.3256 30.5437 67.4456C30.4137 67.5656 30.0037 67.9956 29.8837 68.0256C29.7737 68.0556 29.9237 67.6756 29.8537 67.6056C29.7937 67.5356 29.4637 67.6356 29.4837 67.5856C29.5037 67.5456 29.8837 67.3356 29.9837 67.3356C30.0937 67.3356 30.1337 67.5556 30.1137 67.5856C30.0937 67.6256 29.8337 67.5556 29.8737 67.5456C29.9137 67.5456 30.2937 67.5556 30.3437 67.5556M30.4637 67.0556C30.5637 67.0056 30.4637 67.0256 30.5137 67.1156C30.5637 67.1956 30.7837 67.4156 30.7637 67.5456C30.7437 67.6756 30.3937 67.7656 30.3837 67.8856C30.3737 68.0056 30.7137 68.2356 30.7037 68.2856C30.6837 68.3356 30.4537 68.3356 30.2837 68.1856C30.1137 68.0356 29.8137 67.4856 29.6737 67.4056C29.5337 67.3356 29.4237 67.8156 29.4637 67.7456C29.5037 67.6856 29.7937 67.0456 29.9137 67.0256C30.0337 66.9956 30.2037 67.5356 30.1637 67.6056C30.1237 67.6756 29.6737 67.4456 29.6637 67.4456" fill="#1E1E1E"/>
<path d="M30.0437 67.4455C30.0237 67.4155 29.9337 67.4155 29.9537 67.4255C29.9737 67.4355 30.1037 67.4255 30.1537 67.4955C30.2037 67.5555 30.3037 67.8055 30.2637 67.8155C30.2237 67.8255 30.0037 67.5255 29.9237 67.5655C29.8337 67.6055 29.8337 68.0555 29.7737 68.0555C29.7137 68.0555 29.5637 67.6055 29.5537 67.5655C29.5437 67.5255 29.6137 67.8455 29.6937 67.8055C29.7837 67.7555 29.9637 67.4055 30.0537 67.2955C30.1537 67.1955 30.2337 67.1955 30.2737 67.1555C30.3237 67.1155 30.3137 67.0655 30.3037 67.0555M29.8637 66.9355C29.8737 66.9655 30.0137 67.2555 30.1637 67.3655C30.3137 67.4655 30.7837 67.4655 30.7637 67.5855C30.7437 67.6955 30.2237 68.0355 30.0437 68.0755C29.8637 68.1155 29.7137 67.8455 29.6937 67.7955C29.6637 67.7555 29.8437 67.8755 29.8737 67.8055C29.9037 67.7255 29.8237 67.4055 29.8737 67.3455C29.9237 67.2955 30.1337 67.5255 30.1937 67.4755C30.2437 67.4255 30.1837 67.0755 30.2037 67.0355C30.2237 67.0055 30.2637 67.1555 30.3137 67.2555C30.3537 67.3555 30.5137 67.7255 30.4737 67.6555" stroke="#1E1E1E" stroke-linecap="round"/>
<path d="M18.2872 36.6944C19.5672 36.8144 21.0172 36.8344 22.2572 36.6944C21.4372 36.6544 20.6472 36.6044 18.2872 36.6944ZM18.2872 36.6944C16.4972 36.1244 17.4772 35.4944 16.8772 35.2844M18.2872 36.6944C16.8172 36.4944 17.8972 36.9044 16.8772 35.2844M16.8772 35.2844C17.6372 34.4544 15.8372 34.5544 15.4672 33.8744M16.8772 35.2844C15.8172 34.2044 16.2672 33.7844 15.4672 33.8744M15.4672 33.8744C14.2072 34.0144 12.8372 33.9844 11.4972 33.8744C13.0472 33.9144 14.2672 33.7944 15.4672 33.8744Z" stroke="#1E1E1E" stroke-linecap="round"/>
<path d="M11.5972 32.8544C11.8072 32.8844 12.3072 33.0844 12.4572 33.1944C12.5972 33.3044 12.6172 33.2844 12.4572 33.5244C12.3072 33.7544 11.7172 34.4844 11.5372 34.5844C11.3672 34.6944 11.5572 34.2144 11.4172 34.1544C11.2672 34.0944 10.7072 34.2844 10.6672 34.2244C10.6372 34.1644 11.1172 33.8344 11.2172 33.8044C11.3172 33.7744 11.3272 34.0344 11.2772 34.0244C11.2172 34.0144 10.7672 33.8144 10.9072 33.7544C11.0372 33.6944 11.9172 33.6944 12.0772 33.6744C12.2372 33.6544 12.0272 33.6944 11.8772 33.6344M11.9272 32.9344C12.0572 33.0044 12.4872 33.3144 12.5372 33.5144C12.5772 33.7044 12.1672 33.8644 12.2072 34.0944C12.2572 34.3344 12.8072 34.7544 12.7972 34.9044C12.7872 35.0544 12.4272 35.1544 12.1372 34.9944C11.8472 34.8444 11.3172 34.0744 11.0372 33.9844C10.7572 33.9044 10.4772 34.6244 10.4672 34.4944C10.4472 34.3744 10.8172 33.3544 10.9572 33.2544C11.0972 33.1544 11.2872 33.8544 11.2872 33.8944C11.2872 33.9344 10.9172 33.5244 10.9772 33.4844C11.0272 33.4444 11.4472 33.6644 11.6372 33.6544" fill="#1E1E1E"/>
<path d="M11.1572 33.3844C11.2372 33.3444 11.5372 33.3244 11.6872 33.4344C11.8372 33.5444 12.0672 33.9644 12.0672 34.0444C12.0572 34.1144 11.7472 33.7544 11.6272 33.8844C11.5072 34.0144 11.4672 34.7844 11.3272 34.8444C11.1972 34.8944 10.8872 34.2744 10.7872 34.2344C10.6972 34.1844 10.7072 34.6544 10.7672 34.5444C10.8272 34.4444 11.0372 33.8444 11.1572 33.6144C11.2772 33.3844 11.3372 33.2744 11.4772 33.1644C11.6172 33.0544 11.9272 32.9544 11.9972 32.9344C12.0672 32.9144 11.9172 32.9244 11.8972 33.0144M11.2672 33.2444C11.5572 33.3144 12.3972 33.2544 12.4772 33.4144C12.5572 33.5844 11.9072 34.1144 11.7272 34.2344C11.5572 34.3444 11.4272 34.0544 11.4172 34.0844C11.4072 34.1244 11.6772 34.4444 11.6772 34.4344C11.6872 34.4244 11.4672 34.0444 11.4472 34.0144C11.4272 33.9744 11.5972 34.3444 11.5772 34.2444C11.5472 34.1444 11.3272 33.5444 11.2972 33.4044C11.2572 33.2644 11.2372 33.3344 11.3572 33.4044C11.4772 33.4744 12.0072 33.9544 12.0272 33.8144C12.0472 33.6644 11.5772 32.5744 11.4572 32.5144" stroke="#1E1E1E" stroke-linecap="round"/>
<path d="M10.3992 89.425C21.3892 89.425 65.3692 89.425 76.3592 89.425" stroke="#1E1E1E" stroke-width="2" stroke-linecap="round"/>
<path d="M9.66799 105.245C9.65799 104.345 9.63799 100.735 9.62799 99.8352" stroke="#1E1E1E" stroke-linecap="round"/>
<path d="M9.59601 100.038C9.84601 99.6781 10.856 98.2581 11.106 97.8981" stroke="#1E1E1E" stroke-linecap="round"/>
<path d="M12.5988 105.309C12.6088 104.409 12.6288 100.799 12.6388 99.8994" stroke="#1E1E1E" stroke-linecap="round"/>
<path d="M12.6707 100.102C12.4207 99.7423 11.4107 98.3223 11.1607 97.9623" stroke="#1E1E1E" stroke-linecap="round"/>
<path d="M7.45575 105.796C8.63575 105.776 13.3357 105.696 14.5057 105.676" stroke="#1E1E1E" stroke-linecap="round"/>
<path d="M11.3142 105.886C11.3242 106.516 11.3642 109.056 11.3742 109.686" stroke="#1E1E1E" stroke-linecap="round"/>
<path d="M52.7255 100.967C53.0855 100.597 54.5255 99.0973 54.8855 98.7173" stroke="#1E1E1E" stroke-linecap="round"/>
<path d="M54.881 98.677C55.281 99.007 56.861 100.327 57.261 100.657" stroke="#1E1E1E" stroke-linecap="round"/>
<path d="M57.3508 100.922C56.6608 101.982 53.9108 106.232 53.2208 107.302" stroke="#1E1E1E" stroke-linecap="round"/>
<path d="M52.7928 100.967C52.4328 100.597 50.9928 99.0973 50.6328 98.7173" stroke="#1E1E1E" stroke-linecap="round"/>
<path d="M50.6373 98.677C50.2373 99.007 48.6573 100.327 48.2573 100.657" stroke="#1E1E1E" stroke-linecap="round"/>
<path d="M48.1675 100.922C48.8575 101.982 51.6075 106.232 52.2975 107.302" stroke="#1E1E1E" stroke-linecap="round"/>
<path d="M27.814 2.97144C37.294 2.97144 46.774 2.97144 55.014 2.97144C57.494 2.97144 58.744 4.21144 58.744 6.70144C58.744 9.63144 58.744 12.5714 58.744 14.1514C58.744 16.6314 57.494 17.8714 55.014 17.8714C45.474 17.8714 35.944 17.8714 27.814 17.8714C25.324 17.8714 24.084 16.6314 24.084 14.1514C24.084 11.4714 24.084 8.80144 24.084 6.70144C24.084 4.21144 25.324 2.97144 27.814 2.97144Z" fill="white"/>
<path d="M27.814 2.97144C34.734 2.97144 41.654 2.97144 55.014 2.97144M27.814 2.97144C37.814 2.97144 47.824 2.97144 55.014 2.97144M27.814 2.97144C25.324 2.97144 24.084 4.21144 24.084 6.70144M55.014 2.97144C57.494 2.97144 58.744 4.21144 58.744 6.70144M58.744 6.70144C58.744 8.93144 58.744 11.1614 58.744 14.1514M58.744 6.70144C58.744 8.92144 58.744 11.1414 58.744 14.1514M58.744 14.1514C58.744 16.6314 57.494 17.8714 55.014 17.8714M55.014 17.8714C48.544 17.8714 42.074 17.8714 27.814 17.8714M55.014 17.8714C45.524 17.8714 36.034 17.8714 27.814 17.8714M27.814 17.8714C25.324 17.8714 24.084 16.6314 24.084 14.1514M24.084 14.1514C24.084 11.5014 24.084 8.85144 24.084 6.70144M24.084 14.1514C24.084 12.4014 24.084 10.6514 24.084 6.70144" stroke="#1E1E1E" stroke-width="2" stroke-linecap="round"/>
<path d="M41.295 9.98856C41.295 10.6588 41.174 11.238 40.932 11.7262C40.69 12.2143 40.358 12.5908 39.936 12.8556C39.514 13.1204 39.032 13.2528 38.49 13.2528C37.9481 13.2528 37.4661 13.1204 37.0441 12.8556C36.6221 12.5908 36.2901 12.2143 36.0481 11.7262C35.8061 11.238 35.685 10.6588 35.685 9.98856C35.685 9.31834 35.8061 8.73914 36.0481 8.25095C36.2901 7.76277 36.6221 7.38629 37.0441 7.12151C37.4661 6.85673 37.9481 6.72434 38.49 6.72434C39.032 6.72434 39.514 6.85673 39.936 7.12151C40.358 7.38629 40.69 7.76277 40.932 8.25095C41.174 8.73914 41.295 9.31834 41.295 9.98856ZM40.5503 9.98856C40.5503 9.43832 40.4583 8.97392 40.2742 8.59537C40.0921 8.21682 39.8449 7.93032 39.5326 7.73588C39.2223 7.54143 38.8748 7.44421 38.49 7.44421C38.1053 7.44421 37.7567 7.54143 37.4444 7.73588C37.1341 7.93032 36.8869 8.21682 36.7028 8.59537C36.5207 8.97392 36.4297 9.43832 36.4297 9.98856C36.4297 10.5388 36.5207 11.0032 36.7028 11.3817C36.8869 11.7603 37.1341 12.0468 37.4444 12.2412C37.7567 12.4357 38.1053 12.5329 38.49 12.5329C38.8748 12.5329 39.2223 12.4357 39.5326 12.2412C39.8449 12.0468 40.0921 11.7603 40.2742 11.3817C40.4583 11.0032 40.5503 10.5388 40.5503 9.98856ZM42.4896 13.1659V8.39989H43.1971V9.11976H43.2467C43.3336 8.88394 43.4908 8.69259 43.7184 8.54573C43.9459 8.39886 44.2024 8.32542 44.4879 8.32542C44.5417 8.32542 44.6089 8.32646 44.6896 8.32852C44.7702 8.33059 44.8313 8.3337 44.8726 8.33783V9.08252C44.8478 9.07632 44.7909 9.06701 44.702 9.0546C44.6151 9.04012 44.523 9.03288 44.4258 9.03288C44.1941 9.03288 43.9873 9.08149 43.8052 9.17871C43.6253 9.27386 43.4825 9.40625 43.377 9.57588C43.2736 9.74343 43.2219 9.93478 43.2219 10.1499V13.1659H42.4896Z" fill="#1E1E1E"/>
<path d="M33.5244 41.8222C34.4844 41.3122 37.7244 38.5822 39.9844 38.4522C42.2444 38.3122 45.8744 40.6422 47.0844 41.0222M34.3644 41.5422C35.4444 41.1122 38.9044 39.1022 40.9544 39.1122C43.0144 39.1222 45.6244 41.2822 46.7044 41.5922" stroke="#1E1E1E" stroke-linecap="round"/>
<path d="M33.2226 40.9653C34.3726 41.3853 38.0026 43.9153 40.3226 43.9253C42.6426 43.9453 45.9426 41.4653 47.1426 41.0553M33.9626 40.4553C35.0626 40.9353 37.7026 44.4453 39.8526 44.6053C42.0026 44.7753 45.5126 41.9053 46.8426 41.4553" stroke="#1E1E1E" stroke-linecap="round"/>
<path d="M40.4917 40.1457C40.5617 40.4257 40.5717 41.4957 40.6317 41.8157M40.0417 39.8257C40.1017 40.1557 40.2617 41.7057 40.3917 42.1457" stroke="#1E1E1E" stroke-linecap="round"/>
</svg>
