<svg width="85" height="126" viewBox="0 0 85 126" fill="none" xmlns="http://www.w3.org/2000/svg">
<path d="M23.0506 1.79961C30.4606 0.289611 40.4806 4.27961 63.4506 1.79961C74.2906 2.26961 80.0607 6.86961 83.6507 21.9996C82.8207 43.6296 85.7507 73.0296 83.6507 103.55C80.1407 120.08 74.0306 124.25 63.4506 123.75C50.1906 126.31 44.8407 121.17 23.0506 123.75C10.0806 124.68 3.97065 118.63 2.85065 103.55C4.50065 78.1596 2.14065 53.8796 2.85065 21.9996C5.96065 10.5696 7.29065 1.06961 23.0506 1.79961Z" fill="white"/>
<path d="M23.0506 1.79964C31.9206 2.25964 42.0006 2.33964 63.4506 1.79964M23.0506 1.79964C32.2006 2.13964 41.1306 1.22964 63.4506 1.79964M23.0506 1.79964C11.2006 0.989637 3.68065 7.75964 2.85065 21.9996M23.0506 1.79964C10.2806 3.87964 4.37065 7.27964 2.85065 21.9996M63.4506 1.79964C78.8806 3.12964 81.7106 7.25964 83.6507 21.9996M63.4506 1.79964C78.2606 -0.460363 81.3807 7.02964 83.6507 21.9996M83.6507 21.9996C82.8007 40.7996 82.6307 62.5796 83.6507 103.55M83.6507 21.9996C84.0107 43.1996 83.4907 66.6996 83.6507 103.55M83.6507 103.55C82.2707 118.59 76.6206 122.25 63.4506 123.75M83.6507 103.55C85.3907 117.29 74.8906 125.71 63.4506 123.75M63.4506 123.75C48.5306 123.42 35.2606 125.28 23.0506 123.75M63.4506 123.75C54.5606 123.29 45.2906 123.08 23.0506 123.75M23.0506 123.75C11.1507 125.58 0.990649 115.64 2.85065 103.55M23.0506 123.75C8.50065 124.72 4.16065 115.6 2.85065 103.55M2.85065 103.55C2.53065 70.8696 0.540649 38.3796 2.85065 21.9996M2.85065 103.55C2.46065 80.6596 3.05065 56.0996 2.85065 21.9996" stroke="#1E1E1E" stroke-width="2" stroke-linecap="round"/>
<path d="M28.3185 57.4463C27.7258 56.548 24.6379 53.9274 24.6824 52.1172C24.7269 50.3071 27.9385 47.5174 28.5858 46.6054M27.7303 58.048C27.2178 57.1996 25.179 54.3157 25.1835 52.4657C25.1779 50.6157 27.3198 47.9392 27.7168 46.958" stroke="#1E1E1E" stroke-linecap="round"/>
<path d="M28.0218 57.1823C28.7176 56.2768 32.1648 53.5886 32.3462 51.7998C32.5376 50.0109 29.7647 47.3032 29.1502 46.4393M29.0081 57.7686C29.5733 56.9522 31.7018 54.0557 31.5834 52.2249C31.455 50.4041 28.6719 47.7463 28.2578 46.8136" stroke="#1E1E1E" stroke-linecap="round"/>
<path d="M28.809 50.6755C28.809 50.6755 28.8423 50.7255 28.909 50.8255C28.9823 50.9188 29.0357 51.0222 29.069 51.1355C29.109 51.2555 29.1257 51.3688 29.119 51.4755C29.119 51.5955 29.0957 51.7122 29.049 51.8255C29.009 51.9388 28.9523 52.0422 28.879 52.1355C28.8057 52.2288 28.719 52.3088 28.619 52.3755C28.5123 52.4422 28.4023 52.4888 28.289 52.5155C28.1757 52.5422 28.0623 52.5522 27.949 52.5455C27.829 52.5322 27.7123 52.5022 27.599 52.4555C27.4923 52.4088 27.3923 52.3455 27.299 52.2655C27.2123 52.1855 27.139 52.0922 27.079 51.9855C27.019 51.8855 26.979 51.7755 26.959 51.6555C26.939 51.5355 26.9357 51.4222 26.949 51.3155C26.9623 51.1955 26.9957 51.0822 27.049 50.9755C27.1023 50.8688 27.1723 50.7722 27.259 50.6855C27.3457 50.5988 27.4423 50.5288 27.549 50.4755C27.6557 50.4222 27.769 50.3888 27.889 50.3755C28.0023 50.3622 28.1157 50.3655 28.229 50.3855C28.349 50.4055 28.459 50.4455 28.559 50.5055C28.6657 50.5655 28.759 50.6388 28.839 50.7255C28.919 50.8188 28.9823 50.9188 29.029 51.0255C29.0757 51.1388 29.1057 51.2555 29.119 51.3755C29.1257 51.4888 29.1157 51.6022 29.089 51.7155C29.0557 51.8288 29.009 51.9388 28.949 52.0455C28.8823 52.1455 28.8023 52.2322 28.709 52.3055C28.6157 52.3788 28.5123 52.4355 28.399 52.4755C28.2857 52.5222 28.169 52.5455 28.049 52.5455C27.9357 52.5522 27.8223 52.5355 27.709 52.4955C27.5957 52.4622 27.4923 52.4088 27.399 52.3355C27.299 52.2688 27.249 52.2355 27.249 52.2355C27.249 52.2355 27.2223 52.1988 27.169 52.1255C27.109 52.0588 27.0623 51.9855 27.029 51.9055C26.989 51.8255 26.9623 51.7388 26.949 51.6455C26.9357 51.5588 26.929 51.4755 26.929 51.3955C26.9357 51.3022 26.9523 51.2155 26.979 51.1355C27.0057 51.0488 27.0423 50.9655 27.089 50.8855C27.1357 50.8122 27.1923 50.7455 27.259 50.6855C27.319 50.6188 27.3857 50.5622 27.459 50.5155C27.539 50.4688 27.6223 50.4322 27.709 50.4055C27.789 50.3788 27.8757 50.3622 27.969 50.3555C28.049 50.3555 28.1323 50.3622 28.219 50.3755C28.3123 50.3888 28.399 50.4155 28.479 50.4555C28.559 50.4888 28.6323 50.5355 28.699 50.5955C28.7723 50.6488 28.809 50.6755 28.809 50.6755Z" fill="#1E1E1E"/>
<path d="M18.0248 62.4162C21.5448 62.1862 35.5448 61.2162 39.2048 61.0762M17.3248 62.1262C20.7548 61.9362 34.8748 61.9262 38.6348 61.6962" stroke="#1E1E1E" stroke-linecap="round"/>
<path d="M17.5248 60.5981C17.7748 58.2581 17.9148 51.2681 19.3948 47.6881C20.8748 44.1181 23.2748 39.8781 26.4148 39.1681C29.5548 38.4581 36.3248 40.0981 38.2448 43.4381C40.1648 46.7681 37.8748 56.2981 37.9148 59.1981M19.4348 59.3681C19.6348 56.6381 17.5148 49.1981 19.0648 45.9881C20.6048 42.7781 25.4048 40.4281 28.7048 40.0781C32.0048 39.7381 37.0648 40.7381 38.8648 43.9181C40.6548 47.0981 39.3648 56.4481 39.4848 59.1681" stroke="#1E1E1E" stroke-linecap="round"/>
<path d="M27.4471 35.3621C27.6971 35.2421 28.0971 35.5221 28.4271 35.6821C28.7571 35.8421 29.3571 36.0621 29.4471 36.3121C29.5371 36.5621 29.1371 36.8921 28.9571 37.2021C28.7771 37.5021 28.5671 37.9921 28.3471 38.1321C28.1271 38.2821 27.9071 38.0821 27.6371 38.0721C27.3771 38.0621 26.9671 38.2321 26.7571 38.0621C26.5471 37.8921 26.3071 37.4121 26.3771 37.0521C26.4371 36.6921 26.8671 36.1321 27.1471 35.8921C27.4271 35.6621 27.9971 35.6221 28.0771 35.6321C28.1571 35.6421 27.6471 35.9721 27.6071 35.9521M28.5771 35.6021C28.7671 35.7221 28.6171 36.1921 28.7871 36.3521C28.9471 36.5021 29.6171 36.2121 29.5771 36.5121C29.5371 36.8121 28.7771 37.9221 28.5371 38.1421C28.3071 38.3721 28.4171 37.9521 28.1671 37.8721C27.9071 37.7921 27.1671 37.6321 27.0071 37.6421C26.8371 37.6521 27.2871 38.1521 27.1671 37.9221C27.0371 37.6821 26.2971 36.5321 26.2771 36.2221C26.2571 35.9221 26.6971 36.2221 27.0571 36.0821C27.4171 35.9421 28.1871 35.4021 28.4471 35.3821C28.7171 35.3521 28.6771 35.8521 28.6471 35.9221" stroke="#1E1E1E" stroke-linecap="round"/>
<path d="M45.0888 49.9548C45.0288 47.2848 45.4988 39.0048 47.0688 35.5048C48.6488 31.9948 51.5488 28.9748 54.5488 28.9348C57.5488 28.8948 63.0888 31.9248 65.0688 35.2548C67.0488 38.5848 66.1988 46.6448 66.4188 48.9048M46.6788 52.1748C46.4188 49.5348 44.7988 40.1448 46.4888 36.4148C48.1788 32.6948 53.7388 30.3848 56.8188 29.8348C59.8988 29.2948 63.0988 29.9748 64.9888 33.1448C66.8788 36.3148 67.7788 45.8848 68.1688 48.8448" stroke="#1E1E1E" stroke-linecap="round"/>
<path d="M46.6586 50.3351C50.2186 50.1951 63.6986 49.6651 67.1586 49.6751M46.1586 51.2451C49.9286 51.1951 64.6586 50.4751 68.1186 50.1951" stroke="#1E1E1E" stroke-linecap="round"/>
<path d="M62.6998 41.3877C61.9246 41.8164 59.01 44.0894 57.1608 44.1703C55.3016 44.2513 52.4988 42.2427 51.5645 41.8733M61.9684 40.3858C61.0345 40.9264 57.9975 44.7609 56.0794 44.9425C54.1614 45.1242 51.1764 42.0376 50.4401 41.4859" stroke="#1E1E1E" stroke-linecap="round"/>
<path d="M62.9292 40.9845C61.9681 40.4064 59.2539 38.1815 57.4441 38.2649C55.6342 38.3583 53.0192 41.0133 52.0502 41.5151M62.0697 41.2562C60.8985 40.5884 58.2632 37.7934 56.4031 37.7769C54.5531 37.7504 51.7585 40.6357 50.9395 41.1372" stroke="#1E1E1E" stroke-linecap="round"/>
<path d="M55.2339 40.889C55.2339 40.889 55.2837 40.8553 55.3831 40.7878C55.4758 40.7137 55.5787 40.6595 55.6918 40.6252C55.8114 40.5842 55.9246 40.5666 56.0313 40.5724C56.1513 40.5714 56.2682 40.5938 56.3819 40.6395C56.4956 40.6786 56.5994 40.7344 56.6933 40.8069C56.7872 40.8795 56.8679 40.9655 56.9354 41.065C57.003 41.1711 57.0506 41.2807 57.0782 41.3938C57.1058 41.5069 57.1167 41.6201 57.111 41.7335C57.0986 41.8536 57.0696 41.9705 57.0239 42.0843C56.9781 42.1913 56.9156 42.2918 56.8363 42.3858C56.7571 42.4731 56.6643 42.5472 56.5582 42.6081C56.4587 42.6689 56.349 42.7099 56.2292 42.7308C56.1093 42.7518 55.996 42.7561 55.8893 42.7437C55.7692 42.7313 55.6556 42.6989 55.5484 42.6465C55.4413 42.594 55.3441 42.5248 55.2567 42.4389C55.1693 42.3529 55.0985 42.2568 55.0443 42.1506C54.9901 42.0444 54.9559 41.9313 54.9415 41.8114C54.9273 41.6982 54.9297 41.5849 54.9487 41.4714C54.9677 41.3512 55.0068 41.2409 55.066 41.1404C55.1251 41.0332 55.1977 40.9393 55.2837 40.8586C55.3763 40.7778 55.4758 40.7137 55.5821 40.6661C55.695 40.6185 55.8115 40.5876 55.9313 40.5732C56.0446 40.5656 56.158 40.5747 56.2716 40.6004C56.3852 40.6328 56.4956 40.6786 56.6027 40.7377C56.7033 40.8035 56.7906 40.8828 56.8647 40.9755C56.9388 41.0683 56.9963 41.1711 57.0373 41.2841C57.0849 41.3971 57.1091 41.5135 57.1101 41.6335C57.1177 41.7468 57.102 41.8603 57.0629 41.9739C57.0305 42.0875 56.9781 42.1913 56.9055 42.2852C56.8397 42.3858 56.8068 42.4361 56.8068 42.4361C56.8068 42.4361 56.7703 42.463 56.6974 42.517C56.6312 42.5775 56.5583 42.6248 56.4786 42.6588C56.3989 42.6994 56.3125 42.7268 56.2192 42.7409C56.1327 42.755 56.0494 42.7623 55.9694 42.763C55.876 42.7571 55.7892 42.7411 55.709 42.7151C55.6221 42.6892 55.5385 42.6532 55.4581 42.6072C55.3844 42.5611 55.3173 42.505 55.2567 42.4389C55.1896 42.3794 55.1323 42.3132 55.0851 42.2403C55.0378 42.1607 55.0004 42.0776 54.973 41.9912C54.9457 41.9114 54.9283 41.8249 54.9209 41.7316C54.9202 41.6516 54.9262 41.5682 54.9388 41.4815C54.9514 41.388 54.9773 41.3011 55.0167 41.2208C55.0493 41.1405 55.0954 41.0668 55.1548 40.9997C55.2076 40.9259 55.2339 40.889 55.2339 40.889Z" fill="#1E1E1E"/>
<path d="M55.1221 27.1864C55.3521 27.2164 55.5921 27.2264 55.8721 27.3264C56.1421 27.4264 56.6221 27.5264 56.7621 27.7764C56.9021 28.0264 56.9121 28.5164 56.7021 28.8364C56.5021 29.1564 55.8021 29.6464 55.5021 29.6964C55.2021 29.7464 55.0721 29.2464 54.9021 29.1464C54.7321 29.0364 54.6521 29.2064 54.4721 29.0564C54.2921 28.9164 53.8221 28.5864 53.8121 28.2564C53.8021 27.9264 54.1621 27.2864 54.4421 27.1064C54.7221 26.9164 55.4121 27.1964 55.5121 27.1164C55.6221 27.0364 55.0721 26.6564 55.0921 26.6364M55.5521 27.3864C55.7921 27.3564 55.4321 26.6664 55.5621 26.7764C55.6921 26.8864 56.1221 27.7764 56.3321 28.0464C56.5421 28.3164 56.7921 28.1564 56.8121 28.4164C56.8221 28.6764 56.6821 29.4064 56.4021 29.5864C56.1221 29.7664 55.5121 29.6764 55.1421 29.4964C54.7821 29.3164 54.4121 28.7464 54.2121 28.5164C54.0021 28.2864 53.9121 28.2264 53.9121 28.0964C53.9221 27.9564 54.0721 27.8364 54.2221 27.6964C54.3821 27.5464 54.6921 27.3764 54.8521 27.2064C55.0021 27.0464 55.0521 26.7364 55.1421 26.6864" stroke="#1E1E1E" stroke-linecap="round"/>
<path d="M50.2504 56.3455C50.0704 53.7955 50.1604 52.2955 50.2504 51.2755C50.1704 52.4355 50.2404 53.2955 50.2504 56.3455ZM50.2504 56.3455C51.0104 57.0955 49.0504 58.1455 49.3104 57.2955M50.2504 56.3455C50.9504 56.1755 50.9004 57.0955 49.3104 57.2955M49.3104 57.2955C48.2104 57.7155 48.9304 56.9955 48.3604 58.2355M49.3104 57.2955C49.7904 57.7855 48.6104 57.6255 48.3604 58.2355M48.3604 58.2355C48.3104 59.6055 48.5204 60.9655 48.3604 63.3055C48.4704 61.8055 48.4204 59.9955 48.3604 58.2355Z" stroke="#1E1E1E" stroke-linecap="round"/>
<path d="M48.6504 62.1854C48.7004 62.2054 48.6404 62.2454 48.7104 62.4654C48.7804 62.6854 49.1104 63.2854 49.1004 63.5054C49.0904 63.7354 48.8204 63.7654 48.6504 63.8154C48.4804 63.8754 48.1804 63.7754 48.0804 63.8354C47.9804 63.8954 48.1204 64.2554 48.0404 64.1954C47.9604 64.1354 47.7304 63.6054 47.6004 63.4654C47.4604 63.3254 47.1104 63.5554 47.2104 63.3354C47.3104 63.1254 47.9304 62.3854 48.2104 62.1854C48.4904 61.9754 48.8204 62.0854 48.8704 62.1254C48.9304 62.1654 48.6004 62.2754 48.5404 62.4054M47.6104 62.6354C47.7204 62.5154 48.6604 62.7754 48.9704 62.8654C49.2704 62.9554 49.3904 63.0754 49.4504 63.1754C49.5004 63.2754 49.3404 63.3154 49.3004 63.4654C49.2504 63.6254 49.3604 63.9154 49.1704 64.0754C48.9804 64.2454 48.2704 64.4554 48.1404 64.4754C48.0204 64.4954 48.5704 64.4454 48.4004 64.2254C48.2204 64.0054 47.3204 63.5054 47.1004 63.1454C46.8704 62.7854 46.7904 62.1054 47.0504 62.0654C47.3204 62.0254 48.4804 62.7054 48.6904 62.8954C48.9104 63.0954 48.3604 63.3154 48.3404 63.2554" fill="#1E1E1E"/>
<path d="M47.8004 62.6654C48.0504 62.5154 48.7304 62.2454 49.0204 62.2954C49.3004 62.3554 49.5604 62.7154 49.5104 62.9954C49.4604 63.2754 48.8404 63.8954 48.7204 63.9854C48.6004 64.0854 48.8104 63.4954 48.7904 63.5654C48.7704 63.6354 48.8604 64.2754 48.6204 64.3854C48.3904 64.4854 47.5804 64.4154 47.3904 64.2054C47.2004 63.9954 47.3804 63.3054 47.4904 63.1154C47.6004 62.9254 47.9604 63.2554 48.0204 63.0754C48.0804 62.9054 47.7504 62.1654 47.8604 62.0654C47.9704 61.9554 48.6704 62.4254 48.6804 62.4554M47.4804 62.0254C47.4804 61.9154 48.0204 62.8354 48.3604 62.9154C48.7004 63.0054 49.2604 62.3754 49.5104 62.5354C49.7604 62.6854 49.9404 63.6054 49.8504 63.8454C49.7604 64.0854 49.2504 64.0554 48.9604 63.9754C48.6804 63.8954 48.3804 63.3954 48.1604 63.3554C47.9404 63.3254 47.7704 63.6654 47.6304 63.7654C47.5004 63.8554 47.4204 63.9854 47.3604 63.9054C47.3004 63.8154 47.1304 63.5654 47.2604 63.2754C47.3904 62.9754 47.9404 62.3054 48.1504 62.1354C48.3504 61.9754 48.3804 62.2454 48.4904 62.2754" stroke="#1E1E1E" stroke-linecap="round"/>
<path d="M54.6259 50.557C53.6659 50.587 52.9759 50.627 52.3159 50.557C53.1159 50.527 53.9459 50.557 54.6259 50.557ZM54.6259 50.557C55.5859 51.127 57.3459 50.867 56.9359 52.867M54.6259 50.557C56.8059 50.427 56.6859 51.697 56.9359 52.867M56.9359 52.867C56.9859 53.587 56.8859 54.277 56.9359 54.887M56.9359 52.867C56.9159 53.257 56.9259 53.707 56.9359 54.887M56.9359 54.887C57.3159 56.017 58.3559 57.487 59.2559 57.207M56.9359 54.887C57.1059 56.447 57.5959 56.447 59.2559 57.207M59.2559 57.207C59.9559 57.157 60.5859 57.197 61.5659 57.207C60.4159 57.187 59.8559 57.187 59.2559 57.207Z" stroke="#1E1E1E" stroke-linecap="round"/>
<path d="M61.3559 56.497C61.4359 56.547 61.7359 56.847 61.8159 56.947C61.8959 57.047 61.8359 57.037 61.8259 57.087C61.8059 57.137 61.7259 57.137 61.7159 57.247C61.7159 57.357 61.8559 57.717 61.8059 57.777C61.7559 57.837 61.5659 57.607 61.4159 57.587C61.2659 57.577 60.9159 57.797 60.8959 57.667C60.8659 57.547 61.1459 57.037 61.2459 56.857C61.3359 56.677 61.4059 56.627 61.4659 56.587C61.5159 56.537 61.5359 56.537 61.5559 56.587C61.5759 56.647 61.6259 56.847 61.5859 56.907M61.7759 56.847C61.9959 56.857 62.1159 56.897 62.1859 56.937C62.2659 56.987 62.2059 57.007 62.2259 57.117C62.2359 57.217 62.3559 57.447 62.2559 57.587C62.1559 57.727 61.7059 57.917 61.6159 57.977C61.5359 58.037 61.8859 58.057 61.7459 57.937C61.5959 57.827 60.9459 57.517 60.7559 57.287C60.5659 57.057 60.4459 56.597 60.5959 56.547C60.7359 56.497 61.4059 56.897 61.5959 56.997C61.7859 57.097 61.6659 57.217 61.7159 57.157C61.7559 57.097 61.9259 56.647 61.8659 56.637" fill="#1E1E1E"/>
<path d="M61.7859 56.457C61.9959 56.437 62.2059 56.637 62.2159 56.797C62.2259 56.967 61.8759 57.367 61.8459 57.437C61.8059 57.507 62.0059 57.147 62.0259 57.227C62.0459 57.307 62.1159 57.797 61.9659 57.917C61.8059 58.037 61.2459 58.047 61.0859 57.947C60.9359 57.837 60.9959 57.407 61.0259 57.287C61.0459 57.177 61.2259 57.387 61.2259 57.247C61.2259 57.107 60.8959 56.557 61.0059 56.457C61.1159 56.347 61.8259 56.627 61.8859 56.627C61.9559 56.627 61.4959 56.397 61.3959 56.457M61.4059 56.897C61.6359 56.917 62.0459 56.467 62.2459 56.547C62.4359 56.637 62.6059 57.237 62.5759 57.407C62.5459 57.567 62.2459 57.567 62.0859 57.537C61.9159 57.507 61.7359 57.217 61.5859 57.227C61.4459 57.237 61.3159 57.507 61.2059 57.597C61.0959 57.687 61.0059 57.797 60.9259 57.757C60.8559 57.707 60.6959 57.527 60.7559 57.317C60.8159 57.107 61.0859 56.627 61.2759 56.487C61.4559 56.347 61.7259 56.497 61.8559 56.497C61.9859 56.497 62.0259 56.497 62.0459 56.497" stroke="#1E1E1E" stroke-linecap="round"/>
<path d="M52.2261 57.3847C52.3461 54.2647 51.9461 53.1247 52.2261 51.6347C52.3261 53.8247 52.0961 56.1147 52.2261 57.3847ZM52.2261 57.3847C52.8361 57.4347 53.4361 58.3347 53.3461 58.5047M52.2261 57.3847C51.8461 58.6847 53.2861 57.5347 53.3461 58.5047M53.3461 58.5047C55.0661 58.9347 54.6861 58.8947 54.4761 59.6247M53.3461 58.5047C53.9161 57.3747 54.2261 58.7347 54.4761 59.6247M54.4761 59.6247C54.6561 61.1747 54.3361 62.8647 54.4761 65.3747C54.5361 62.7647 54.5861 61.0547 54.4761 59.6247Z" stroke="#1E1E1E" stroke-linecap="round"/>
<path d="M54.2561 64.7047C54.4261 64.7147 54.4861 64.5947 54.5861 64.6147C54.6961 64.6347 54.7461 64.6047 54.8761 64.8147C55.0061 65.0247 55.3661 65.6747 55.3661 65.8747C55.3761 66.0747 55.1361 65.9147 54.8961 66.0247C54.6461 66.1347 54.0561 66.6247 53.9161 66.5447C53.7761 66.4547 54.0361 65.7647 54.0361 65.5047C54.0361 65.2347 53.9761 65.1147 53.9361 64.9747C53.8961 64.8247 53.7261 64.6547 53.8061 64.6247C53.8861 64.5847 54.3861 64.7247 54.4361 64.7447C54.4761 64.7647 53.9961 64.8347 54.0661 64.7347M54.8461 64.5347C55.0361 64.4747 55.1461 64.4047 55.3061 64.5447C55.4761 64.6747 55.8561 65.0347 55.8461 65.3247C55.8261 65.6147 55.2861 66.0447 55.2161 66.2747C55.1461 66.5047 55.6761 66.7347 55.4161 66.7047C55.1561 66.6847 54.0561 66.3747 53.6361 66.1147C53.2161 65.8447 52.8461 65.1947 52.9061 65.1047C52.9661 65.0047 53.8061 65.5047 53.9861 65.5447C54.1561 65.5847 53.8361 65.5347 53.9761 65.3247C54.1161 65.1247 54.8161 64.3847 54.8361 64.3247C54.8561 64.2547 54.2161 64.8047 54.0961 64.9147" fill="#1E1E1E"/>
<path d="M54.9361 64.3447C55.0261 64.4647 54.6761 64.9847 54.7661 65.0647C54.8561 65.1447 55.3261 64.6447 55.4861 64.8347C55.6361 65.0247 55.8761 65.9047 55.6961 66.2147C55.5161 66.5247 54.6661 66.7347 54.3861 66.7147C54.1061 66.6947 54.0861 66.1847 53.9961 66.0847C53.9061 65.9847 53.9961 66.3247 53.8461 66.0947C53.7061 65.8647 53.0461 64.9447 53.1161 64.6747C53.1861 64.4147 54.0961 64.6147 54.2761 64.5147C54.4461 64.4147 54.2061 64.0047 54.1761 64.0547C54.1561 64.1147 53.9561 64.8347 54.0961 64.8347M54.7361 63.9647C55.1061 63.9247 55.5461 64.6847 55.6761 64.8647C55.8161 65.0447 55.6061 65.0447 55.5361 65.0547C55.4661 65.0747 55.3761 64.7947 55.2561 64.9747C55.1261 65.1447 54.9861 65.7947 54.7861 66.1147C54.5961 66.4247 54.3361 66.8047 54.0861 66.8547C53.8261 66.9047 53.3661 66.7347 53.2661 66.4147C53.1661 66.1047 53.3461 65.2947 53.4761 64.9647C53.6061 64.6447 53.8061 64.6047 54.0461 64.4647C54.2861 64.3247 54.7861 64.1947 54.9161 64.1247C55.0361 64.0547 54.8661 63.8647 54.8061 64.0447" stroke="#1E1E1E" stroke-linecap="round"/>
<path d="M64.7348 50.8264C64.1648 50.8064 63.0548 50.7264 61.9248 50.8264C62.4948 50.8864 63.2348 50.7764 64.7348 50.8264ZM64.7348 50.8264C67.4348 50.6564 67.2048 52.2464 67.5348 53.6364M64.7348 50.8264C67.2948 49.8564 66.4748 52.6064 67.5348 53.6364M67.5348 53.6364C67.4648 54.0864 67.5948 54.3564 67.5348 55.0264M67.5348 53.6364C67.5548 53.9364 67.5648 54.2864 67.5348 55.0264M67.5348 55.0264C67.7548 56.9064 68.3148 56.8564 70.3448 57.8264M67.5348 55.0264C67.2848 56.7564 68.1348 58.6564 70.3448 57.8264M70.3448 57.8264C70.9348 57.8864 71.6248 57.9464 73.1548 57.8264C71.7448 57.8664 71.0948 57.9064 70.3448 57.8264Z" stroke="#1E1E1E" stroke-linecap="round"/>
<path d="M72.6848 57.1964C72.7548 57.0864 72.8448 56.9064 73.0448 57.0064C73.2348 57.0964 73.7248 57.6264 73.8448 57.7764C73.9748 57.9364 73.9048 57.7664 73.7748 57.9164C73.6548 58.0664 73.1848 58.6564 73.1048 58.6764C73.0248 58.6964 73.3248 58.1664 73.3048 58.0364C73.2848 57.8964 73.1348 57.9264 72.9948 57.8664C72.8548 57.8064 72.5348 57.6964 72.4848 57.6664C72.4348 57.6364 72.6448 57.7164 72.6948 57.6764C72.7348 57.6364 72.6148 57.5764 72.7548 57.4164C72.8948 57.2564 73.4948 56.7364 73.5648 56.7164M73.4048 57.0064C73.5648 56.9964 74.0248 57.2164 74.0848 57.4064C74.1548 57.5964 73.7648 57.9464 73.8148 58.1564C73.8648 58.3664 74.5648 58.6164 74.4048 58.6564C74.2448 58.6864 73.2448 58.5064 72.8648 58.3564C72.4848 58.2064 72.1148 57.7264 72.1248 57.7464C72.1348 57.7764 72.8748 58.4064 72.9348 58.5064C73.0048 58.6064 72.5148 58.5864 72.5348 58.3564C72.5548 58.1364 73.0048 57.2864 73.0548 57.1564C73.0948 57.0364 72.8348 57.5364 72.8048 57.6064C72.7648 57.6764 72.8148 57.6264 72.8448 57.6064" fill="#1E1E1E"/>
<path d="M72.6548 57.5164C72.7448 57.4164 73.3048 56.7164 73.5748 56.7764C73.8448 56.8464 74.2848 57.6064 74.2748 57.8964C74.2548 58.1764 73.6348 58.4264 73.4948 58.4964C73.3548 58.5564 73.4748 58.2264 73.4348 58.2764C73.3948 58.3364 73.4748 58.9064 73.2648 58.8264C73.0548 58.7464 72.2448 57.9964 72.1648 57.8164C72.0848 57.6364 72.7748 57.8764 72.7848 57.7464C72.7848 57.6164 72.2448 57.0564 72.2148 57.0164C72.1748 56.9764 72.3548 57.5764 72.5848 57.5264C72.8048 57.4664 73.5448 56.7664 73.5648 56.6764M73.9548 57.4464C74.0648 57.5364 73.8748 57.4164 73.8448 57.3564C73.8148 57.2864 73.8148 56.9164 73.7648 57.0464C73.7248 57.1864 73.6948 57.8164 73.5848 58.1564C73.4748 58.4864 73.3148 58.9364 73.1148 59.0564C72.9048 59.1764 72.4648 59.1164 72.3548 58.8964C72.2448 58.6664 72.3748 57.9664 72.4448 57.7164C72.5148 57.4564 72.6048 57.4764 72.7548 57.3464C72.9048 57.2164 73.1848 57.0464 73.3448 56.9464C73.5048 56.8364 73.7048 56.5764 73.7248 56.7164C73.7448 56.8664 73.6348 57.6864 73.4548 57.8264" stroke="#1E1E1E" stroke-linecap="round"/>
<path d="M34.1756 64.9514C34.0756 64.1114 34.2856 63.1014 34.1756 62.2314C34.2056 63.0314 34.2156 63.9114 34.1756 64.9514ZM34.1756 64.9514C33.8456 67.2414 35.6856 66.8214 36.8956 67.6614M34.1756 64.9514C33.1056 67.6014 34.8856 66.8014 36.8956 67.6614M36.8956 67.6614C37.0756 67.6314 37.1756 67.6414 37.5656 67.6614M36.8956 67.6614C37.1356 67.6714 37.3556 67.6714 37.5656 67.6614M37.5656 67.6614C39.2156 66.6814 40.0656 68.4414 40.2856 70.3814M37.5656 67.6614C39.0456 68.4914 39.5656 69.2214 40.2856 70.3814M40.2856 70.3814C40.2256 71.2914 40.2156 72.0814 40.2856 73.1014C40.2356 71.6914 40.2356 71.0814 40.2856 70.3814Z" stroke="#1E1E1E" stroke-linecap="round"/>
<path d="M39.8756 72.1815C40.0756 72.2015 40.6156 72.6815 40.7956 72.8015C40.9656 72.9215 40.9756 72.7315 40.9156 72.8915C40.8556 73.0515 40.4756 73.6815 40.4356 73.7515C40.4056 73.8115 40.7456 73.3615 40.7356 73.2915C40.7256 73.2215 40.5556 73.3215 40.3856 73.3115C40.2156 73.3015 39.8256 73.2415 39.7156 73.2215C39.5956 73.2015 39.7356 73.2715 39.7156 73.2015C39.6956 73.1315 39.4056 73.0015 39.6056 72.8015C39.7956 72.6015 40.7256 72.0315 40.8756 71.9915C41.0256 71.9515 40.5356 72.4415 40.4856 72.5615M40.7356 72.4815C40.8256 72.5715 40.5356 72.8215 40.6756 72.9815C40.8256 73.1315 41.6656 73.3715 41.6156 73.4315C41.5656 73.4815 40.6956 73.3815 40.3856 73.3115C40.0856 73.2515 39.7656 72.9015 39.7756 73.0315C39.7856 73.1715 40.4756 73.9315 40.4756 74.1115C40.4656 74.2915 39.8556 74.3315 39.7656 74.1315C39.6756 73.9215 39.9856 73.0415 39.9356 72.8515C39.8856 72.6715 39.4556 73.0215 39.4556 73.0315C39.4556 73.0315 39.8356 72.9215 39.9456 72.8715C40.0556 72.8215 40.1256 72.8015 40.1056 72.7115" fill="#1E1E1E"/>
<path d="M40.3156 71.9614C40.5856 71.9314 41.0856 72.6214 41.1356 72.8514C41.1856 73.0914 40.6656 73.3014 40.6056 73.3714C40.5556 73.4414 40.7756 73.1414 40.8056 73.2614C40.8356 73.3714 40.9756 74.0314 40.7856 74.0414C40.5956 74.0514 39.7656 73.4014 39.6456 73.2914C39.5256 73.1814 40.1356 73.4914 40.0656 73.3814C39.9956 73.2714 39.3456 72.7114 39.2256 72.6414C39.0956 72.5714 39.0856 73.0914 39.3356 72.9714C39.5956 72.8614 40.6356 72.0714 40.7456 71.9414C40.8456 71.8014 40.0056 72.0414 39.9656 72.1814M40.3356 72.4214C40.3356 72.2114 40.4456 71.7114 40.5256 71.7714C40.5956 71.8314 40.7456 72.4314 40.7756 72.7814C40.8056 73.1314 40.8156 73.6614 40.7056 73.8914C40.6056 74.1114 40.2456 74.2214 40.1456 74.1314C40.0456 74.0514 40.1356 73.5214 40.1156 73.3714C40.1056 73.2214 40.0456 73.3414 40.0556 73.2414C40.0656 73.1414 40.1656 72.9514 40.1956 72.7814C40.2256 72.6114 40.2256 72.1814 40.2556 72.2314C40.2956 72.2814 40.5156 73.0014 40.4056 73.0914C40.2856 73.1814 39.6956 72.9214 39.5756 72.7714" stroke="#1E1E1E" stroke-linecap="round"/>
<path d="M24.3424 62.3212C25.5324 62.2512 25.9824 62.3712 26.5424 62.3212C25.7224 62.3112 24.8324 62.3312 24.3424 62.3212ZM24.3424 62.3212C23.2724 61.7612 21.5224 63.5412 22.1424 64.5212M24.3424 62.3212C22.7524 61.7412 21.5924 62.3212 22.1424 64.5212M22.1424 64.5212C22.1024 65.2712 22.1824 66.1212 22.1424 66.5912M22.1424 64.5212C22.1524 65.0112 22.1424 65.4712 22.1424 66.5912M22.1424 66.5912C22.0024 67.9712 21.2124 69.2712 19.9424 68.7912M22.1424 66.5912C21.6624 68.4912 21.3724 68.3712 19.9424 68.7912M19.9424 68.7912C19.1624 68.8412 18.4024 68.8112 17.7424 68.7912C18.2024 68.7912 19.0624 68.7712 19.9424 68.7912Z" stroke="#1E1E1E" stroke-linecap="round"/>
<path d="M17.7524 68.4112C17.8924 68.4112 17.9824 68.2212 18.0124 68.3012C18.0524 68.3712 17.8924 68.7912 17.9524 68.8612C18.0124 68.9312 18.3124 68.6912 18.3524 68.7112C18.3924 68.7312 18.3024 68.9112 18.1824 68.9812C18.0524 69.0512 17.7524 69.1112 17.6124 69.1512C17.4824 69.1912 17.4824 69.2812 17.3824 69.2312C17.2924 69.1912 17.0024 69.0712 17.0724 68.8812C17.1324 68.7012 17.6424 68.2112 17.7624 68.1212C17.8824 68.0412 17.7824 68.3312 17.8024 68.3912C17.8224 68.4412 17.8724 68.4512 17.8724 68.4612M17.6824 68.5612C17.8024 68.5912 18.4324 68.6812 18.4724 68.6912C18.5024 68.6912 18.0224 68.6112 17.8924 68.5912C17.7524 68.5612 17.6224 68.3812 17.6824 68.5312C17.7324 68.6812 18.2224 69.2912 18.2124 69.4812C18.2124 69.6812 17.7624 69.8012 17.6524 69.7212C17.5424 69.6312 17.6624 69.0912 17.5624 68.9812C17.4524 68.8612 17.0624 69.0712 17.0024 69.0312C16.9424 68.9912 17.0924 68.8212 17.1824 68.7312C17.2824 68.6412 17.5624 68.5812 17.5924 68.5012C17.6224 68.4112 17.3624 68.3112 17.3824 68.2412" fill="#1E1E1E"/>
<path d="M18.0824 68.5112C18.1424 68.6112 17.8424 68.7112 17.8624 68.7312C17.8724 68.7612 18.0924 68.5612 18.1624 68.6512C18.2324 68.7412 18.3824 69.2312 18.2824 69.2812C18.1824 69.3312 17.6524 68.9712 17.5624 68.9512C17.4824 68.9312 17.8524 69.2012 17.7724 69.1612C17.6824 69.1312 17.1824 68.7812 17.0524 68.7312C16.9224 68.6912 16.8424 69.0112 16.9724 68.9012C17.0924 68.7912 17.6924 68.1912 17.7924 68.0712C17.8924 67.9412 17.5524 68.0712 17.5824 68.1512C17.6024 68.2212 17.9524 68.4212 17.9524 68.5012M17.6924 67.8112C17.7624 67.8012 17.9024 68.1612 17.9624 68.3712C18.0224 68.5912 18.0924 68.9312 18.0724 69.1012C18.0424 69.2612 17.8624 69.3612 17.8224 69.3412C17.7824 69.3212 17.8624 69.0312 17.8524 68.9812C17.8424 68.9312 17.7824 69.0712 17.7524 69.0412C17.7324 69.0112 17.7424 68.9012 17.7224 68.8012C17.6924 68.6912 17.6324 68.3912 17.6124 68.4012C17.5924 68.4012 17.6524 68.8212 17.6124 68.8412C17.5724 68.8712 17.4024 68.6512 17.3724 68.5312C17.3424 68.4112 17.4124 68.1412 17.4324 68.1112" stroke="#1E1E1E" stroke-linecap="round"/>
<path d="M28.7874 66.5397C28.7874 65.0397 28.7874 64.0397 28.7874 63.0397C28.7874 63.8497 28.7874 64.6497 28.7874 66.5397ZM28.7874 66.5397C28.7874 67.5297 29.2774 68.0197 30.2674 68.0197C31.2574 68.0197 31.7474 68.5197 31.7474 69.5097M31.7474 69.5097C31.7474 70.8397 31.7474 72.1697 31.7474 73.0097C31.7474 71.9297 31.7474 70.7197 31.7474 69.5097Z" stroke="#1E1E1E" stroke-linecap="round"/>
<path d="M32.6475 73.0097C32.6475 73.0597 32.6375 73.1097 32.6375 73.1597C32.6275 73.2097 32.6075 73.2697 32.5875 73.3097C32.5775 73.3597 32.5475 73.4097 32.5275 73.4597C32.4975 73.4997 32.4675 73.5397 32.4375 73.5797C32.4075 73.6197 32.3675 73.6597 32.3275 73.6897C32.2875 73.7297 32.2475 73.7597 32.1975 73.7797C32.1575 73.8097 32.1075 73.8297 32.0575 73.8497C32.0075 73.8697 31.9575 73.8797 31.9075 73.8897C31.8575 73.8997 31.8075 73.8997 31.7475 73.8997C31.6975 73.8997 31.6475 73.8997 31.5975 73.8897C31.5475 73.8797 31.4975 73.8697 31.4475 73.8497C31.3975 73.8297 31.3475 73.8097 31.3075 73.7797C31.2575 73.7597 31.2175 73.7297 31.1775 73.6897C31.1375 73.6597 31.0975 73.6197 31.0675 73.5797C31.0275 73.5397 30.9975 73.4997 30.9775 73.4597C30.9475 73.4097 30.9275 73.3597 30.9075 73.3097C30.8875 73.2697 30.8775 73.2097 30.8675 73.1597C30.8575 73.1097 30.8575 73.0597 30.8575 73.0097C30.8575 72.9597 30.8575 72.8997 30.8675 72.8497C30.8775 72.7997 30.8875 72.7497 30.9075 72.6997C30.9275 72.6497 30.9475 72.6097 30.9775 72.5597C30.9975 72.5197 31.0275 72.4697 31.0675 72.4297C31.0975 72.3897 31.1375 72.3597 31.1775 72.3197C31.2175 72.2897 31.2575 72.2597 31.3075 72.2297C31.3475 72.2097 31.3975 72.1797 31.4475 72.1697C31.4975 72.1497 31.5475 72.1397 31.5975 72.1297C31.6475 72.1197 31.6975 72.1097 31.7475 72.1097C31.8075 72.1097 31.8575 72.1197 31.9075 72.1297C31.9575 72.1397 32.0075 72.1497 32.0575 72.1697C32.1075 72.1797 32.1575 72.2097 32.1975 72.2297C32.2475 72.2597 32.2875 72.2897 32.3275 72.3197C32.3675 72.3597 32.4075 72.3897 32.4375 72.4297C32.4675 72.4697 32.4975 72.5197 32.5275 72.5597C32.5475 72.6097 32.5775 72.6497 32.5875 72.6997C32.6075 72.7497 32.6275 72.7997 32.6375 72.8497C32.6375 72.8997 32.6475 72.9797 32.6475 73.0097C32.6475 73.0297 32.6475 72.9797 32.6475 73.0097Z" fill="#1E1E1E"/>
<path d="M32.6475 73.0097C32.6475 73.0597 32.6375 73.1097 32.6375 73.1597C32.6275 73.2097 32.6075 73.2697 32.5875 73.3097C32.5775 73.3597 32.5475 73.4097 32.5275 73.4597C32.4975 73.4997 32.4675 73.5397 32.4375 73.5797C32.4075 73.6197 32.3675 73.6597 32.3275 73.6897C32.2875 73.7297 32.2475 73.7597 32.1975 73.7797C32.1575 73.8097 32.1075 73.8297 32.0575 73.8497C32.0075 73.8697 31.9575 73.8797 31.9075 73.8897C31.8575 73.8997 31.8075 73.8997 31.7475 73.8997C31.6975 73.8997 31.6475 73.8997 31.5975 73.8897C31.5475 73.8797 31.4975 73.8697 31.4475 73.8497C31.3975 73.8297 31.3475 73.8097 31.3075 73.7797C31.2575 73.7597 31.2175 73.7297 31.1775 73.6897C31.1375 73.6597 31.0975 73.6197 31.0675 73.5797C31.0275 73.5397 30.9975 73.4997 30.9775 73.4597C30.9475 73.4097 30.9275 73.3597 30.9075 73.3097C30.8875 73.2697 30.8775 73.2097 30.8675 73.1597C30.8575 73.1097 30.8575 73.0597 30.8575 73.0097C30.8575 72.9597 30.8575 72.8997 30.8675 72.8497C30.8775 72.7997 30.8875 72.7497 30.9075 72.6997C30.9275 72.6497 30.9475 72.6097 30.9775 72.5597C30.9975 72.5197 31.0275 72.4697 31.0675 72.4297C31.0975 72.3897 31.1375 72.3597 31.1775 72.3197C31.2175 72.2897 31.2575 72.2597 31.3075 72.2297C31.3475 72.2097 31.3975 72.1797 31.4475 72.1697C31.4975 72.1497 31.5475 72.1397 31.5975 72.1297C31.6475 72.1197 31.6975 72.1097 31.7475 72.1097C31.8075 72.1097 31.8575 72.1197 31.9075 72.1297C31.9575 72.1397 32.0075 72.1497 32.0575 72.1697C32.1075 72.1797 32.1575 72.2097 32.1975 72.2297C32.2475 72.2597 32.2875 72.2897 32.3275 72.3197C32.3675 72.3597 32.4075 72.3897 32.4375 72.4297C32.4675 72.4697 32.4975 72.5197 32.5275 72.5597C32.5475 72.6097 32.5775 72.6497 32.5875 72.6997C32.6075 72.7497 32.6275 72.7997 32.6375 72.8497C32.6375 72.8997 32.6475 72.9797 32.6475 73.0097ZM32.6475 73.0097C32.6475 72.9797 32.6475 73.0297 32.6475 73.0097Z" stroke="#1E1E1E" stroke-linecap="round"/>
<path d="M27.1269 67.889C27.6069 67.889 28.3269 67.889 29.0569 67.889C28.5069 67.889 27.9669 67.889 27.1269 67.889ZM27.1269 67.889C26.9169 67.889 26.8069 67.989 26.8069 68.199C26.8069 68.409 26.7069 68.519 26.4969 68.519M26.4969 68.519C25.7869 68.519 25.0869 68.519 24.5669 68.519C25.4969 68.519 25.9969 68.519 26.4969 68.519Z" stroke="#1E1E1E" stroke-linecap="round"/>
<path d="M24.6369 68.519V68.529C24.6369 68.539 24.6369 68.539 24.6369 68.539C24.6369 68.549 24.6369 68.549 24.6269 68.559C24.6269 68.559 24.6269 68.559 24.6269 68.569C24.6169 68.569 24.6169 68.569 24.6169 68.569C24.6069 68.579 24.6069 68.579 24.6069 68.579C24.5969 68.579 24.5969 68.589 24.5869 68.589C24.5869 68.589 24.5869 68.589 24.5769 68.589H24.5669H24.5569C24.5469 68.589 24.5469 68.589 24.5369 68.589C24.5369 68.589 24.5369 68.579 24.5269 68.579C24.5269 68.579 24.5269 68.579 24.5169 68.569C24.5169 68.569 24.5169 68.569 24.5069 68.569C24.5069 68.559 24.5069 68.559 24.5069 68.559C24.4969 68.549 24.4969 68.549 24.4969 68.539C24.4969 68.539 24.4969 68.539 24.4969 68.529V68.519C24.4969 68.509 24.4969 68.509 24.4969 68.509C24.4969 68.499 24.4969 68.499 24.4969 68.489C24.4969 68.489 24.4969 68.489 24.5069 68.479V68.469C24.5169 68.469 24.5169 68.469 24.5169 68.459C24.5269 68.459 24.5269 68.459 24.5269 68.449C24.5369 68.449 24.5369 68.449 24.5369 68.449C24.5469 68.449 24.5469 68.449 24.5569 68.449H24.5669H24.5769C24.5869 68.449 24.5869 68.449 24.5869 68.449C24.5969 68.449 24.5969 68.449 24.6069 68.449C24.6069 68.459 24.6069 68.459 24.6169 68.459C24.6169 68.469 24.6169 68.469 24.6269 68.469V68.479C24.6369 68.489 24.6369 68.489 24.6369 68.489C24.6369 68.499 24.6369 68.499 24.6369 68.509V68.519Z" fill="#1E1E1E"/>
<path d="M24.6369 68.519V68.529C24.6369 68.539 24.6369 68.539 24.6369 68.539C24.6369 68.549 24.6369 68.549 24.6269 68.559C24.6269 68.559 24.6269 68.559 24.6269 68.569C24.6169 68.569 24.6169 68.569 24.6169 68.569C24.6069 68.579 24.6069 68.579 24.6069 68.579C24.5969 68.579 24.5969 68.589 24.5869 68.589C24.5869 68.589 24.5869 68.589 24.5769 68.589H24.5669H24.5569C24.5469 68.589 24.5469 68.589 24.5369 68.589C24.5369 68.589 24.5369 68.579 24.5269 68.579C24.5269 68.579 24.5269 68.579 24.5169 68.569C24.5169 68.569 24.5169 68.569 24.5069 68.569C24.5069 68.559 24.5069 68.559 24.5069 68.559C24.4969 68.549 24.4969 68.549 24.4969 68.539C24.4969 68.539 24.4969 68.539 24.4969 68.529V68.519C24.4969 68.509 24.4969 68.509 24.4969 68.509C24.4969 68.499 24.4969 68.499 24.4969 68.489C24.4969 68.489 24.4969 68.489 24.5069 68.479V68.469C24.5169 68.469 24.5169 68.469 24.5169 68.459C24.5269 68.459 24.5269 68.459 24.5269 68.449C24.5369 68.449 24.5369 68.449 24.5369 68.449C24.5469 68.449 24.5469 68.449 24.5569 68.449H24.5669H24.5769C24.5869 68.449 24.5869 68.449 24.5869 68.449C24.5969 68.449 24.5969 68.449 24.6069 68.449C24.6069 68.459 24.6069 68.459 24.6169 68.459C24.6169 68.469 24.6169 68.469 24.6269 68.469V68.479C24.6369 68.489 24.6369 68.489 24.6369 68.489C24.6369 68.499 24.6369 68.499 24.6369 68.509V68.519Z" stroke="#1E1E1E" stroke-linecap="round"/>
<path d="M24.7463 66.2707C24.7363 64.1107 24.6663 63.4707 24.7463 62.5907C24.6963 63.9207 24.7463 65.1107 24.7463 66.2707ZM24.7463 66.2707C24.2663 66.2907 24.9363 67.8707 23.7563 67.2607M24.7463 66.2707C24.0363 66.4007 24.0563 67.5807 23.7563 67.2607M23.7563 67.2607C23.0763 66.9007 23.0463 67.3307 22.7663 68.2507M23.7563 67.2607C23.7163 66.9507 23.2763 67.1707 22.7663 68.2507M22.7663 68.2507C22.8363 69.3807 22.7363 70.6107 22.7663 71.9307C22.7463 70.3807 22.7863 69.2607 22.7663 68.2507Z" stroke="#1E1E1E" stroke-linecap="round"/>
<path d="M22.9263 70.7907C23.1763 70.7007 23.4163 70.8707 23.5263 71.0107C23.6363 71.1507 23.5863 71.4007 23.5863 71.6507C23.5863 71.9007 23.6563 72.3007 23.5363 72.5107C23.4163 72.7107 22.9863 72.8807 22.8763 72.8707C22.7663 72.8607 22.9863 72.4907 22.8663 72.4307C22.7463 72.3607 22.2863 72.5407 22.1563 72.4607C22.0263 72.3907 22.0663 72.1607 22.0863 71.9907C22.1063 71.8107 22.1863 71.5407 22.2763 71.4307C22.3763 71.3107 22.5963 71.3607 22.6863 71.3107C22.7663 71.2507 22.7563 71.0707 22.7863 71.1007M22.3663 70.6407C22.6263 70.7007 23.4263 71.3207 23.6363 71.6007C23.8463 71.8907 23.6163 72.2107 23.6163 72.3407C23.6163 72.4607 23.7863 72.2207 23.6363 72.3407C23.4763 72.4507 22.9363 72.9307 22.6963 73.0407C22.4563 73.1407 22.3263 73.0707 22.1863 72.9807C22.0563 72.8807 22.0063 72.6907 21.9163 72.4707C21.8263 72.2407 21.5963 71.8907 21.6563 71.6407C21.7163 71.3907 22.1663 71.0407 22.2863 70.9607C22.4063 70.8807 22.2563 71.0707 22.3863 71.1707C22.5163 71.2607 22.8863 71.5007 23.0463 71.5307" fill="#1E1E1E"/>
<path d="M23.0463 71.3307C23.1663 71.3007 22.9463 70.9907 23.0763 71.0807C23.2063 71.1607 23.7963 71.6607 23.8063 71.8507C23.8163 72.0307 23.3363 72.0007 23.1463 72.1907C22.9463 72.3807 22.6863 72.9607 22.6163 72.9907C22.5463 73.0107 22.8363 72.4907 22.7063 72.3407C22.5763 72.1907 21.8963 72.1507 21.8063 72.0807C21.7163 72.0007 22.1063 71.9507 22.1563 71.8707C22.2163 71.7807 22.0063 71.6807 22.1463 71.5607C22.2963 71.4507 22.9063 71.2807 23.0363 71.2007C23.1563 71.1207 22.9863 71.1007 22.9063 71.0907M22.4363 71.4007C22.6263 71.2807 23.0263 71.0007 23.2463 71.0307C23.4663 71.0607 23.6463 71.4007 23.7563 71.5807C23.8563 71.7607 23.9263 71.9807 23.8663 72.1207C23.8063 72.2607 23.5863 72.2407 23.3863 72.4107C23.1863 72.5907 22.9463 73.1207 22.6663 73.1507C22.3863 73.1807 21.8663 72.8407 21.6963 72.5807C21.5263 72.3207 21.6063 71.8207 21.6463 71.6007C21.6963 71.3807 21.7463 71.4107 21.9763 71.2707C22.2063 71.1307 22.8863 70.8607 23.0263 70.7507C23.1663 70.6507 22.9063 70.5607 22.8163 70.6407" stroke="#1E1E1E" stroke-linecap="round"/>
<path d="M60.2185 52.358C60.2485 51.778 60.1985 50.898 60.2185 50.108C60.2085 50.568 60.1885 51.038 60.2185 52.358ZM60.2185 52.358C60.7385 54.458 60.3485 54.138 62.4685 54.598M60.2185 52.358C59.8585 54.178 61.3985 54.128 62.4685 54.598M62.4685 54.598C62.6385 54.598 62.8085 54.598 62.9085 54.598M62.4685 54.598C62.5885 54.598 62.7185 54.598 62.9085 54.598M62.9085 54.598C64.6885 54.338 65.6985 55.078 65.1585 56.848M62.9085 54.598C64.9185 54.178 65.3885 56.038 65.1585 56.848M65.1585 56.848C65.1285 57.298 65.1585 57.868 65.1585 59.088C65.1685 57.858 65.1385 57.348 65.1585 56.848Z" stroke="#1E1E1E" stroke-linecap="round"/>
<path d="M65.4985 58.088C65.6285 58.128 65.6485 58.278 65.7285 58.468C65.8085 58.658 65.9985 59.028 65.9685 59.228C65.9385 59.438 65.6185 59.648 65.5785 59.698C65.5285 59.748 65.7885 59.488 65.6785 59.518C65.5685 59.538 65.0785 59.838 64.8885 59.848C64.7085 59.858 64.6485 59.698 64.5785 59.558C64.5085 59.418 64.4685 59.138 64.4785 58.988C64.4985 58.848 64.5285 58.788 64.6585 58.678C64.7885 58.568 65.1385 58.328 65.2585 58.318C65.3885 58.318 65.3785 58.678 65.4085 58.658M65.4285 58.598C65.6785 58.738 65.5685 58.928 65.6885 58.978C65.7985 59.028 66.1385 58.738 66.1185 58.868C66.0985 58.998 65.7085 59.548 65.5485 59.758C65.3985 59.958 65.3285 60.048 65.1985 60.088C65.0685 60.128 64.9585 60.098 64.7885 59.988C64.6185 59.878 64.2385 59.628 64.1685 59.408C64.0985 59.188 64.3685 58.828 64.3685 58.688C64.3785 58.548 64.0385 58.578 64.1985 58.588C64.3585 58.598 65.0885 58.748 65.3285 58.738C65.5685 58.728 65.6785 58.518 65.6285 58.508" fill="#1E1E1E"/>
<path d="M64.8385 58.038C64.9985 57.978 65.7185 58.338 65.8585 58.438C65.9885 58.548 65.6985 58.468 65.6385 58.678C65.5885 58.888 65.4885 59.558 65.5085 59.678C65.5285 59.808 65.8985 59.468 65.7585 59.458C65.6285 59.448 64.8885 59.598 64.7085 59.638C64.5285 59.678 64.7485 59.738 64.6685 59.678C64.5785 59.628 64.1885 59.498 64.1985 59.328C64.2185 59.148 64.6285 58.788 64.7785 58.618C64.9385 58.448 65.1285 58.348 65.1385 58.298C65.1485 58.248 64.8285 58.288 64.8185 58.288M65.2285 58.088C65.4685 58.018 65.7385 58.268 65.9185 58.388C66.0985 58.518 66.2885 58.698 66.3185 58.848C66.3485 58.988 66.2285 59.028 66.0885 59.258C65.9485 59.498 65.7585 60.138 65.4785 60.258C65.1985 60.378 64.6385 60.158 64.4185 59.978C64.1885 59.798 64.1685 59.368 64.1185 59.168C64.0785 58.978 64.0085 59.008 64.1585 58.828C64.3085 58.648 64.8285 58.268 65.0185 58.108C65.2185 57.948 65.3185 57.818 65.3185 57.858C65.3085 57.898 64.9985 58.278 65.0185 58.368" stroke="#1E1E1E" stroke-linecap="round"/>
<path d="M45.1508 56.2146C46.0908 55.9746 48.3008 56.3546 50.0708 56.2146C48.1508 56.0746 46.4908 56.3046 45.1508 56.2146ZM45.1508 56.2146C40.9508 55.5246 39.7608 54.9946 40.2408 51.2946M45.1508 56.2146C42.5308 55.5046 41.3508 55.0646 40.2408 51.2946M40.2408 51.2946C39.7608 48.0946 40.1808 44.9546 40.2408 41.6446M40.2408 51.2946C40.2608 47.5746 40.3708 44.0246 40.2408 41.6446M40.2408 41.6446C41.0408 37.9646 39.2608 36.1846 35.3208 36.7246M40.2408 41.6446C40.5808 39.4046 37.6808 37.2546 35.3208 36.7246M35.3208 36.7246C34.1608 36.8446 32.8608 36.7446 30.4008 36.7246C33.3108 36.6346 34.3808 36.7146 35.3208 36.7246Z" stroke="#1E1E1E" stroke-linecap="round"/>
<path d="M37.5639 67.3502C36.4539 67.3202 35.5639 67.2202 34.9839 67.3502C35.6139 67.4202 36.0839 67.3202 37.5639 67.3502ZM37.5639 67.3502C38.8139 67.7702 40.7139 65.8702 40.1439 64.7702M37.5639 67.3502C40.4039 67.8402 40.3939 66.5102 40.1439 64.7702M40.1439 64.7702C40.1439 64.6702 40.1639 64.5802 40.1439 64.4502M40.1439 64.7702C40.1539 64.6502 40.1539 64.5402 40.1439 64.4502M40.1439 64.4502C40.8139 62.1902 41.3139 62.7802 42.7339 61.8702M40.1439 64.4502C39.2239 63.2602 40.2239 61.4002 42.7339 61.8702M42.7339 61.8702C43.2639 61.8802 43.8639 61.8102 45.3139 61.8702C44.3039 61.9102 43.4839 61.8202 42.7339 61.8702Z" stroke="#1E1E1E" stroke-linecap="round"/>
<path d="M45.2138 61.2502C45.3338 61.2702 45.2038 61.3402 45.4538 61.3202C45.6938 61.2902 46.5238 60.9302 46.6638 61.1002C46.8038 61.2602 46.3938 62.0002 46.2738 62.3102C46.1538 62.6102 46.1238 62.8102 45.9538 62.9202C45.7838 63.0202 45.4938 62.9702 45.2538 62.9502C45.0138 62.9302 44.6638 62.9702 44.5238 62.7902C44.3838 62.6102 44.3738 62.0302 44.4238 61.8502C44.4738 61.6702 44.6638 61.9102 44.8338 61.7102C45.0038 61.5002 45.3938 60.8102 45.4338 60.6102C45.4838 60.4002 45.2138 60.3402 45.0838 60.4602M45.7538 60.8202C45.8638 60.8002 45.5738 61.4502 45.5938 61.7002C45.6138 61.9402 45.8438 62.1202 45.8938 62.2902C45.9338 62.4702 46.0038 62.6802 45.8538 62.7502C45.7038 62.8202 45.1638 62.7802 44.9938 62.7002C44.8238 62.6202 45.0338 62.3402 44.8238 62.2802C44.6238 62.2202 43.7738 62.3302 43.7538 62.3202C43.7338 62.3002 44.4138 62.3502 44.7138 62.1702C45.0038 62.0002 45.4438 61.4202 45.5438 61.2802C45.6338 61.1402 45.1838 61.2902 45.2838 61.3402C45.3838 61.3802 46.1138 61.5102 46.1538 61.5402" fill="#1E1E1E"/>
<path d="M44.7138 60.5802C44.7638 60.6002 44.9338 61.3302 45.2538 61.4102C45.5738 61.4802 46.5338 60.9402 46.6338 61.0302C46.7338 61.1102 45.9638 61.5902 45.8638 61.9102C45.7738 62.2302 46.2038 62.7302 46.0338 62.9602C45.8738 63.1902 45.0938 63.3602 44.8938 63.3102C44.6938 63.2602 44.9238 62.8802 44.8438 62.6402C44.7538 62.3902 44.5038 62.0902 44.3738 61.8502C44.2538 61.6102 43.9538 61.3702 44.0638 61.1902C44.1838 61.0102 44.8138 60.8802 45.0538 60.7902C45.2938 60.6902 45.4338 60.6002 45.5038 60.6302M45.7938 60.6202C46.0138 60.5602 46.2038 60.3802 46.3138 60.6502C46.4138 60.9302 46.5538 61.9402 46.4338 62.2602C46.3138 62.5802 45.7838 62.5502 45.5838 62.5802C45.3838 62.6002 45.3838 62.3902 45.2338 62.4102C45.0838 62.4402 44.7338 62.8202 44.6938 62.7402C44.6538 62.6502 45.0138 62.1902 44.9838 61.9102C44.9438 61.6402 44.5838 61.2002 44.4738 61.0902C44.3538 60.9702 44.1038 61.2602 44.2638 61.2202C44.4338 61.1802 45.3238 60.9802 45.4338 60.8402C45.5438 60.6902 44.8938 60.2502 44.9138 60.3602" stroke="#1E1E1E" stroke-linecap="round"/>
<path d="M41.8089 56.3924C41.6289 57.7124 42.0289 59.8024 41.8089 61.7824C41.6589 60.5924 41.7289 59.6424 41.8089 56.3924ZM41.8089 56.3924C42.3789 55.1824 42.4789 55.9224 40.9089 55.4924M41.8089 56.3924C42.0589 55.8124 41.3289 54.3724 40.9089 55.4924M40.9089 55.4924C40.6189 56.4024 39.2089 55.6524 40.0089 54.6024M40.9089 55.4924C39.5289 55.0224 39.3689 55.0824 40.0089 54.6024M40.0089 54.6024C39.7589 52.5624 40.0289 50.8624 40.0089 49.2124C39.8889 51.6024 40.0789 53.1224 40.0089 54.6024Z" stroke="#1E1E1E" stroke-linecap="round"/>
<path d="M47.5785 64.2745C51.3185 64.5445 52.8385 64.0145 54.5385 64.2745C51.7285 64.3245 49.1785 64.1445 47.5785 64.2745ZM47.5785 64.2745C47.4985 64.7045 46.2185 64.8145 46.0085 65.8445M47.5785 64.2745C46.3485 63.1445 45.7585 64.6545 46.0085 65.8445M46.0085 65.8445C45.2085 67.3545 44.7985 67.0045 44.4385 67.4145M46.0085 65.8445C45.3685 66.7845 46.1185 66.5745 44.4385 67.4145M44.4385 67.4145C42.2585 67.5145 40.0385 67.2745 37.4785 67.4145C41.1985 67.4645 42.7185 67.5845 44.4385 67.4145Z" stroke="#1E1E1E" stroke-linecap="round"/>
<path d="M39.4164 38.6101C39.4564 37.2601 39.8664 32.0001 39.8364 30.5701M39.9364 39.2001C39.9564 37.7801 39.6964 31.6001 39.6964 30.1101" stroke="#1E1E1E" stroke-linecap="round"/>
<path d="M39.9838 30.7523C42.2738 30.5223 50.7038 28.6823 52.9038 28.3923M39.5438 30.5323C42.0338 30.4123 51.6838 29.3123 53.8738 28.8923" stroke="#1E1E1E" stroke-linecap="round"/>
<path d="M25.9647 2.74164C39.7147 2.74164 53.4747 2.74164 62.3147 2.74164M25.9647 2.74164C34.6347 2.74164 43.3047 2.74164 62.3147 2.74164M25.9647 2.74164C23.4747 2.74164 22.2347 3.98164 22.2347 6.47164M62.3147 2.74164C64.8047 2.74164 66.0447 3.98164 66.0447 6.47164M66.0447 6.47164C66.0447 9.01164 66.0447 11.5516 66.0447 13.9216M66.0447 6.47164C66.0447 9.38164 66.0447 12.2816 66.0447 13.9216M66.0447 13.9216C66.0447 16.4016 64.8047 17.6416 62.3147 17.6416M62.3147 17.6416C52.7447 17.6416 43.1647 17.6416 25.9647 17.6416M62.3147 17.6416C50.9047 17.6416 39.4847 17.6416 25.9647 17.6416M25.9647 17.6416C23.4747 17.6416 22.2347 16.4016 22.2347 13.9216M22.2347 13.9216C22.2347 11.2616 22.2347 8.61164 22.2347 6.47164M22.2347 13.9216C22.2347 11.8316 22.2347 9.75164 22.2347 6.47164" stroke="#1E1E1E" stroke-width="2" stroke-linecap="round"/>
<path d="M27.2925 12.3456V5.99091H31.1028V6.67354H28.062V8.82072H30.8174V9.50336H28.062V12.3456H27.2925ZM33.0538 5.99091V12.3456H32.3215V5.99091H33.0538ZM34.395 12.3456V7.57958H35.1273V12.3456H34.395ZM34.7673 6.78524C34.6246 6.78524 34.5015 6.73663 34.3981 6.63941C34.2967 6.54219 34.246 6.42531 34.246 6.28879C34.246 6.15226 34.2967 6.03538 34.3981 5.93816C34.5015 5.84094 34.6246 5.79233 34.7673 5.79233C34.9101 5.79233 35.0321 5.84094 35.1335 5.93816C35.2369 6.03538 35.2886 6.15226 35.2886 6.28879C35.2886 6.42531 35.2369 6.54219 35.1335 6.63941C35.0321 6.73663 34.9101 6.78524 34.7673 6.78524ZM36.4685 14.1328V7.57958H37.1759V8.33668H37.2628C37.3166 8.25393 37.3911 8.14844 37.4862 8.02019C37.5834 7.88986 37.722 7.77402 37.902 7.67266C38.084 7.56924 38.3302 7.51752 38.6405 7.51752C39.0418 7.51752 39.3955 7.61785 39.7017 7.8185C40.0078 8.01915 40.2467 8.30358 40.4184 8.67179C40.5901 9.03999 40.676 9.4744 40.676 9.97499C40.676 10.4797 40.5901 10.9172 40.4184 11.2875C40.2467 11.6557 40.0088 11.9412 39.7048 12.1439C39.4007 12.3445 39.0501 12.4449 38.6529 12.4449C38.3467 12.4449 38.1016 12.3942 37.9175 12.2928C37.7334 12.1894 37.5917 12.0725 37.4924 11.9422C37.3931 11.8098 37.3166 11.7002 37.2628 11.6133H37.2007V14.1328H36.4685ZM37.1883 9.96258C37.1883 10.3225 37.2411 10.64 37.3466 10.9152C37.4521 11.1882 37.6062 11.4023 37.8089 11.5575C38.0116 11.7105 38.2599 11.7871 38.5536 11.7871C38.8597 11.7871 39.1152 11.7064 39.32 11.545C39.5269 11.3816 39.682 11.1624 39.7854 10.8872C39.8909 10.61 39.9437 10.3018 39.9437 9.96258C39.9437 9.62747 39.892 9.32546 39.7885 9.05654C39.6872 8.78556 39.5331 8.57146 39.3262 8.41425C39.1214 8.25497 38.8639 8.17533 38.5536 8.17533C38.2557 8.17533 38.0054 8.25083 37.8027 8.40184C37.6 8.55078 37.4469 8.7597 37.3435 9.02862C37.2401 9.29546 37.1883 9.60678 37.1883 9.96258ZM44.5235 9.27995V9.96258H41.7433V9.27995H44.5235ZM47.9343 7.57958V8.20015H45.3652V7.57958H47.9343ZM46.1347 12.3456V6.92177C46.1347 6.64872 46.1988 6.42117 46.3271 6.23914C46.4553 6.0571 46.6218 5.92058 46.8266 5.82956C47.0314 5.73854 47.2476 5.69304 47.4751 5.69304C47.6551 5.69304 47.802 5.70752 47.9157 5.73648C48.0295 5.76544 48.1143 5.79233 48.1702 5.81715L47.9592 6.45013C47.9219 6.43772 47.8702 6.42221 47.804 6.40359C47.7399 6.38497 47.6551 6.37567 47.5496 6.37567C47.3076 6.37567 47.1328 6.43669 47.0252 6.55874C46.9197 6.68078 46.867 6.85971 46.867 7.09553V12.3456H46.1347ZM49.6929 5.99091V12.3456H48.9606V5.99091H49.6929ZM52.9703 12.4449C52.54 12.4449 52.1625 12.3425 51.8377 12.1377C51.515 11.9329 51.2627 11.6464 51.0806 11.2782C50.9007 10.91 50.8107 10.4797 50.8107 9.9874C50.8107 9.49094 50.9007 9.05758 51.0806 8.6873C51.2627 8.31703 51.515 8.02949 51.8377 7.8247C52.1625 7.61992 52.54 7.51752 52.9703 7.51752C53.4006 7.51752 53.777 7.61992 54.0997 7.8247C54.4245 8.02949 54.6769 8.31703 54.8568 8.6873C55.0389 9.05758 55.1299 9.49094 55.1299 9.9874C55.1299 10.4797 55.0389 10.91 54.8568 11.2782C54.6769 11.6464 54.4245 11.9329 54.0997 12.1377C53.777 12.3425 53.4006 12.4449 52.9703 12.4449ZM52.9703 11.7871C53.2971 11.7871 53.566 11.7033 53.777 11.5357C53.988 11.3682 54.1442 11.1479 54.2456 10.8748C54.3469 10.6018 54.3976 10.306 54.3976 9.9874C54.3976 9.66884 54.3469 9.372 54.2456 9.09688C54.1442 8.82176 53.988 8.59939 53.777 8.42976C53.566 8.26014 53.2971 8.17533 52.9703 8.17533C52.6435 8.17533 52.3745 8.26014 52.1635 8.42976C51.9526 8.59939 51.7964 8.82176 51.695 9.09688C51.5937 9.372 51.543 9.66884 51.543 9.9874C51.543 10.306 51.5937 10.6018 51.695 10.8748C51.7964 11.1479 51.9526 11.3682 52.1635 11.5357C52.3745 11.7033 52.6435 11.7871 52.9703 11.7871ZM56.2477 14.1328V7.57958H56.9551V8.33668H57.042C57.0958 8.25393 57.1703 8.14844 57.2654 8.02019C57.3627 7.88986 57.5013 7.77402 57.6812 7.67266C57.8633 7.56924 58.1094 7.51752 58.4197 7.51752C58.821 7.51752 59.1747 7.61785 59.4809 7.8185C59.787 8.01915 60.026 8.30358 60.1976 8.67179C60.3693 9.03999 60.4552 9.4744 60.4552 9.97499C60.4552 10.4797 60.3693 10.9172 60.1976 11.2875C60.026 11.6557 59.7881 11.9412 59.484 12.1439C59.1799 12.3445 58.8293 12.4449 58.4321 12.4449C58.126 12.4449 57.8808 12.3942 57.6967 12.2928C57.5126 12.1894 57.3709 12.0725 57.2716 11.9422C57.1723 11.8098 57.0958 11.7002 57.042 11.6133H56.98V14.1328H56.2477ZM56.9676 9.96258C56.9676 10.3225 57.0203 10.64 57.1258 10.9152C57.2313 11.1882 57.3854 11.4023 57.5881 11.5575C57.7909 11.7105 58.0391 11.7871 58.3328 11.7871C58.639 11.7871 58.8944 11.7064 59.0992 11.545C59.3061 11.3816 59.4612 11.1624 59.5647 10.8872C59.6702 10.61 59.7229 10.3018 59.7229 9.96258C59.7229 9.62747 59.6712 9.32546 59.5678 9.05654C59.4664 8.78556 59.3123 8.57146 59.1054 8.41425C58.9006 8.25497 58.6431 8.17533 58.3328 8.17533C58.0349 8.17533 57.7846 8.25083 57.5819 8.40184C57.3792 8.55078 57.2261 8.7597 57.1227 9.02862C57.0193 9.29546 56.9676 9.60678 56.9676 9.96258Z" fill="#1E1E1E"/>
<path d="M11.4592 89.9404C22.4492 89.9404 66.4292 89.9404 77.4192 89.9404" stroke="#1E1E1E" stroke-width="2" stroke-linecap="round"/>
<path d="M10.728 105.761C10.718 104.861 10.698 101.251 10.688 100.351" stroke="#1E1E1E" stroke-linecap="round"/>
<path d="M10.656 100.553C10.906 100.193 11.916 98.7734 12.166 98.4134" stroke="#1E1E1E" stroke-linecap="round"/>
<path d="M13.6588 105.825C13.6688 104.925 13.6888 101.315 13.6988 100.415" stroke="#1E1E1E" stroke-linecap="round"/>
<path d="M13.7307 100.618C13.4807 100.258 12.4707 98.8376 12.2207 98.4776" stroke="#1E1E1E" stroke-linecap="round"/>
<path d="M8.51572 106.311C9.69572 106.291 14.3957 106.211 15.5657 106.191" stroke="#1E1E1E" stroke-linecap="round"/>
<path d="M12.3742 106.401C12.3842 107.031 12.4242 109.571 12.4342 110.201" stroke="#1E1E1E" stroke-linecap="round"/>
<path d="M53.7855 101.483C54.1455 101.113 55.5855 99.6126 55.9455 99.2326" stroke="#1E1E1E" stroke-linecap="round"/>
<path d="M55.941 99.1924C56.341 99.5224 57.921 100.842 58.321 101.172" stroke="#1E1E1E" stroke-linecap="round"/>
<path d="M58.4108 101.438C57.7208 102.498 54.9708 106.748 54.2808 107.818" stroke="#1E1E1E" stroke-linecap="round"/>
<path d="M53.8528 101.483C53.4928 101.113 52.0528 99.6126 51.6928 99.2326" stroke="#1E1E1E" stroke-linecap="round"/>
<path d="M51.6973 99.1924C51.2973 99.5224 49.7173 100.842 49.3173 101.172" stroke="#1E1E1E" stroke-linecap="round"/>
<path d="M49.2275 101.438C49.9175 102.498 52.6675 106.748 53.3575 107.818" stroke="#1E1E1E" stroke-linecap="round"/>
<path d="M56.5815 76.4994C56.5815 76.4994 56.6148 76.5494 56.6815 76.6494C56.7548 76.7427 56.8081 76.846 56.8415 76.9594C56.8815 77.0794 56.8981 77.1927 56.8915 77.2994C56.8915 77.4194 56.8681 77.536 56.8215 77.6494C56.7815 77.7627 56.7248 77.866 56.6515 77.9594C56.5781 78.0527 56.4915 78.1327 56.3915 78.1994C56.2848 78.266 56.1748 78.3127 56.0615 78.3394C55.9481 78.366 55.8348 78.376 55.7215 78.3694C55.6015 78.356 55.4848 78.326 55.3715 78.2794C55.2648 78.2327 55.1648 78.1694 55.0715 78.0894C54.9848 78.0094 54.9115 77.916 54.8515 77.8094C54.7915 77.7094 54.7515 77.5994 54.7315 77.4794C54.7115 77.3594 54.7081 77.246 54.7215 77.1394C54.7348 77.0194 54.7681 76.906 54.8215 76.7994C54.8748 76.6927 54.9448 76.596 55.0315 76.5094C55.1181 76.4227 55.2148 76.3527 55.3215 76.2994C55.4281 76.246 55.5415 76.2127 55.6615 76.1994C55.7748 76.186 55.8881 76.1894 56.0015 76.2094C56.1215 76.2294 56.2315 76.2694 56.3315 76.3294C56.4381 76.3894 56.5315 76.4627 56.6115 76.5494C56.6915 76.6427 56.7548 76.7427 56.8015 76.8494C56.8481 76.9627 56.8781 77.0794 56.8915 77.1994C56.8981 77.3127 56.8881 77.426 56.8615 77.5394C56.8281 77.6527 56.7815 77.7627 56.7215 77.8694C56.6548 77.9694 56.5748 78.056 56.4815 78.1294C56.3881 78.2027 56.2848 78.2594 56.1715 78.2994C56.0581 78.346 55.9415 78.3694 55.8215 78.3694C55.7081 78.376 55.5948 78.3594 55.4815 78.3194C55.3681 78.286 55.2648 78.2327 55.1715 78.1594C55.0715 78.0927 55.0215 78.0594 55.0215 78.0594C55.0215 78.0594 54.9948 78.0227 54.9415 77.9494C54.8815 77.8827 54.8348 77.8094 54.8015 77.7294C54.7615 77.6494 54.7348 77.5627 54.7215 77.4694C54.7081 77.3827 54.7015 77.2994 54.7015 77.2194C54.7081 77.126 54.7248 77.0394 54.7515 76.9594C54.7781 76.8727 54.8148 76.7894 54.8615 76.7094C54.9081 76.636 54.9648 76.5694 55.0315 76.5094C55.0915 76.4427 55.1581 76.386 55.2315 76.3394C55.3115 76.2927 55.3948 76.256 55.4815 76.2294C55.5615 76.2027 55.6481 76.186 55.7415 76.1794C55.8215 76.1794 55.9048 76.186 55.9915 76.1994C56.0848 76.2127 56.1715 76.2394 56.2515 76.2794C56.3315 76.3127 56.4048 76.3594 56.4715 76.4194C56.5448 76.4727 56.5815 76.4994 56.5815 76.4994Z" fill="#1E1E1E"/>
</svg>
