<svg width="88" height="127" viewBox="0 0 88 127" fill="none" xmlns="http://www.w3.org/2000/svg">
<path d="M83.874 117.673C85.264 117.663 86.334 117.723 87.584 117.673C86.314 117.613 84.994 117.633 83.874 117.673ZM83.874 117.673C83.394 117.513 83.384 116.913 83.164 116.973M83.874 117.673C82.744 117.233 83.624 116.873 83.164 116.973M83.164 116.973C82.864 116.083 82.764 116.303 82.464 116.263M83.164 116.973C83.744 116.583 82.494 116.783 82.464 116.263M82.464 116.263C81.684 116.283 80.834 116.373 78.744 116.263C80.284 116.303 81.374 116.263 82.464 116.263Z" stroke="#1E1E1E" stroke-linecap="round"/>
<path d="M78.424 116.003C78.504 116.003 78.904 115.673 79.044 115.663C79.174 115.643 79.134 115.813 79.214 115.923C79.284 116.033 79.484 116.233 79.464 116.323C79.454 116.413 79.314 116.373 79.114 116.473C78.914 116.573 78.424 116.943 78.274 116.903C78.124 116.873 78.254 116.403 78.194 116.263C78.144 116.113 77.864 116.133 77.934 116.043C78.014 115.953 78.474 115.703 78.654 115.703C78.834 115.703 79.024 115.973 79.014 116.033C78.994 116.103 78.574 116.083 78.574 116.103M78.824 115.833C78.924 115.883 79.414 115.693 79.534 115.733C79.644 115.763 79.504 115.893 79.504 116.043C79.504 116.193 79.634 116.483 79.534 116.633C79.434 116.783 78.984 116.853 78.904 116.943C78.814 117.023 79.074 117.173 79.024 117.153C78.974 117.123 78.734 117.013 78.584 116.793C78.444 116.563 78.204 115.923 78.134 115.803C78.064 115.683 78.054 116.133 78.174 116.073C78.294 116.013 78.744 115.443 78.874 115.463C78.994 115.473 79.004 116.063 78.934 116.163" fill="#1E1E1E"/>
<path d="M78.944 116.023C79.054 116.063 79.064 116.073 79.064 116.123C79.054 116.173 78.944 116.253 78.914 116.323C78.894 116.393 78.944 116.443 78.924 116.523C78.904 116.603 78.914 116.853 78.804 116.833C78.694 116.813 78.404 116.443 78.294 116.413C78.174 116.393 78.164 116.743 78.124 116.673C78.084 116.603 77.984 116.083 78.034 116.003C78.084 115.913 78.244 116.213 78.404 116.173C78.564 116.133 78.884 115.843 78.984 115.763C79.084 115.693 78.994 115.733 78.994 115.713M79.004 115.663C79.104 115.573 78.844 115.513 78.854 115.613C78.874 115.713 78.994 116.083 79.104 116.243C79.214 116.403 79.614 116.443 79.534 116.583C79.444 116.723 78.834 117.053 78.594 117.063C78.354 117.073 78.144 116.743 78.084 116.633C78.034 116.533 78.204 116.573 78.254 116.433C78.304 116.293 78.264 115.903 78.374 115.803C78.474 115.713 78.774 115.923 78.894 115.873C79.014 115.833 79.084 115.533 79.094 115.523C79.114 115.513 78.984 115.693 78.994 115.813" stroke="#1E1E1E" stroke-linecap="round"/>
<path d="M21.8078 2.50778C33.5178 0.587775 47.1778 0.337775 62.2078 2.50778C73.8878 0.887775 84.5978 6.58777 82.4078 22.7078C82.2278 51.7978 83.6878 83.6878 82.4078 104.258C85.8178 118.858 74.7978 126.068 62.2078 124.458C47.0178 123.648 35.7778 127.198 21.8078 124.458C10.6178 123.138 -1.5522 117.638 1.6078 104.258C1.1178 80.1178 1.8278 54.5078 1.6078 22.7078C4.0678 12.7878 10.8678 2.70778 21.8078 2.50778Z" fill="white"/>
<path d="M21.8078 2.50779C32.0778 4.14779 45.0678 3.68779 62.2078 2.50779M21.8078 2.50779C32.5578 3.30779 41.7778 1.55779 62.2078 2.50779M21.8078 2.50779C6.9378 1.96779 2.8978 10.7778 1.6078 22.7078M21.8078 2.50779C8.2178 2.77779 1.6278 8.73779 1.6078 22.7078M62.2078 2.50779C75.1978 2.91779 80.9478 7.38779 82.4078 22.7078M62.2078 2.50779C77.1778 2.47779 80.8378 9.16779 82.4078 22.7078M82.4078 22.7078C84.2278 39.8878 81.1678 60.9978 82.4078 104.258M82.4078 22.7078C81.2978 44.4578 81.1578 65.6378 82.4078 104.258M82.4078 104.258C83.8878 116.728 77.4978 126.268 62.2078 124.458M82.4078 104.258C84.5078 118.848 77.5378 122.338 62.2078 124.458M62.2078 124.458C49.0378 125.918 36.6978 126.368 21.8078 124.458M62.2078 124.458C50.2878 125.538 37.0178 125.278 21.8078 124.458M21.8078 124.458C7.7578 123.078 0.437803 118.518 1.6078 104.258M21.8078 124.458C8.7278 122.948 2.2678 119.378 1.6078 104.258M1.6078 104.258C2.4678 87.3278 1.7078 67.8178 1.6078 22.7078M1.6078 104.258C0.797803 81.3278 1.7578 57.2378 1.6078 22.7078" stroke="#1E1E1E" stroke-width="2" stroke-linecap="round"/>
<path d="M28.1854 53.301C28.2954 50.501 26.2254 39.891 28.0554 35.661C29.8854 31.421 35.2354 28.071 39.1654 27.881C43.0954 27.681 49.3954 30.641 51.6354 34.491C53.8754 38.351 52.4854 48.031 52.6054 51.011M27.2654 52.251C27.2754 49.671 25.6054 40.701 27.5054 36.861C29.4054 33.021 34.5354 29.941 38.6754 29.211C42.8154 28.471 50.2854 28.851 52.3554 32.451C54.4354 36.051 50.9254 47.631 51.1354 50.811" stroke="#1E1E1E" stroke-linecap="round"/>
<path d="M27.5054 53.3119C31.7754 53.1419 48.9554 52.6419 53.2854 52.5919M27.0154 54.3519C31.1954 54.2819 48.5954 53.6619 52.9754 53.3019" stroke="#1E1E1E" stroke-linecap="round"/>
<path d="M47.5753 57.2274C47.7553 55.9274 47.5653 54.3874 47.5753 52.4874C47.4853 53.3474 47.6453 54.4374 47.5753 57.2274ZM47.5753 57.2274C46.8953 59.9574 48.2353 62.2374 51.7153 61.3674M47.5753 57.2274C47.0153 60.6274 48.1553 60.2374 51.7153 61.3674M51.7153 61.3674C55.2853 60.4474 55.9253 62.8274 55.8553 65.5074M51.7153 61.3674C55.4953 60.9174 56.4853 62.3374 55.8553 65.5074M55.8553 65.5074C55.9553 67.5174 56.0753 69.2174 55.8553 70.2474C55.8653 68.8874 55.7753 67.2774 55.8553 65.5074Z" stroke="#1E1E1E" stroke-linecap="round"/>
<path d="M55.8953 69.3174C56.1553 69.2674 56.4453 69.1374 56.6453 69.2474C56.8453 69.3574 56.9953 69.7774 57.0853 69.9774C57.1753 70.1874 57.2453 70.1874 57.1853 70.4674C57.1253 70.7474 57.0253 71.4174 56.7253 71.6574C56.4253 71.8974 55.6453 72.0574 55.3853 71.9074C55.1253 71.7574 55.3453 71.0474 55.1753 70.7774C54.9953 70.4974 54.4053 70.4974 54.3153 70.2574C54.2353 70.0174 54.4253 69.5574 54.6653 69.3574C54.9053 69.1474 55.4853 69.1474 55.7453 69.0274C56.0053 68.8974 56.2853 68.6474 56.2453 68.5974M55.4253 69.3474C55.7053 69.4474 55.7653 69.5074 56.1253 69.5874C56.4853 69.6574 57.4553 69.6074 57.5853 69.8174C57.7153 70.0274 57.0853 70.4674 56.9153 70.8374C56.7353 71.2074 56.6453 71.8874 56.5253 72.0474C56.3953 72.2074 56.5053 71.9074 56.1653 71.7874C55.8353 71.6674 54.7953 71.5374 54.5053 71.3274C54.2153 71.1274 54.2353 70.9974 54.4153 70.5374C54.5953 70.0774 55.4053 68.9374 55.5753 68.5674C55.7553 68.1974 55.3553 68.1874 55.4553 68.3174C55.5553 68.4574 56.1953 69.3874 56.1953 69.3874" fill="#1E1E1E"/>
<path d="M55.6453 68.7974C55.8753 68.7674 56.8453 68.7274 57.0353 69.0274C57.2253 69.3274 56.8053 70.2974 56.7853 70.5974C56.7653 70.8874 57.0253 70.6874 56.9053 70.7874C56.7753 70.8974 56.2753 71.1574 56.0553 71.2274C55.8353 71.2874 55.7753 71.3174 55.5753 71.1674C55.3653 71.0174 55.0653 70.5274 54.8053 70.3374C54.5553 70.1574 54.0353 70.3274 54.0553 70.0474C54.0853 69.7674 54.6953 68.8974 54.9653 68.6774C55.2353 68.4474 55.4153 68.6874 55.6853 68.6874C55.9553 68.6874 56.4353 68.5374 56.5853 68.6574M56.3653 69.2674C56.6353 68.9874 57.0753 68.3074 57.2153 68.4174C57.3653 68.5274 57.1453 69.5674 57.2353 69.9074C57.3353 70.2574 57.8653 70.2674 57.8053 70.4774C57.7453 70.6974 57.1853 70.9774 56.9053 71.1874C56.6253 71.3874 56.4753 71.6774 56.1253 71.7074C55.7653 71.7374 54.9353 71.5274 54.7753 71.3874C54.6153 71.2474 55.0953 71.1274 55.1753 70.8574C55.2553 70.5974 55.1953 70.2174 55.2453 69.8074C55.2953 69.3874 55.4653 68.4774 55.4653 68.3774C55.4653 68.2874 55.1853 69.1974 55.2453 69.2174" stroke="#1E1E1E" stroke-linecap="round"/>
<path d="M32.3759 56.4404C32.2359 55.4504 32.4959 54.4404 32.3759 53.3904C32.4159 54.3704 32.3159 55.3404 32.3759 56.4404ZM32.3759 56.4404C31.6559 59.3404 30.8759 60.0404 29.3259 59.4804M32.3759 56.4404C31.5759 57.3404 32.0159 59.0004 29.3259 59.4804M29.3259 59.4804C28.4959 59.3404 27.5359 59.6404 24.8859 59.4804M29.3259 59.4804C28.3159 59.5604 27.1959 59.4004 24.8859 59.4804M24.8859 59.4804C22.9259 59.5704 22.7259 60.1104 21.8459 62.5304M24.8859 59.4804C23.4959 59.0704 22.7359 60.7104 21.8459 62.5304M21.8459 62.5304C21.9859 63.5504 21.9459 64.3404 21.8459 65.5804C21.8559 64.0004 21.8459 63.1904 21.8459 62.5304Z" stroke="#1E1E1E" stroke-linecap="round"/>
<path d="M21.9759 64.9404C22.0859 64.9004 22.2059 65.1304 22.3259 65.1804C22.4459 65.2304 22.6159 65.0604 22.6859 65.2404C22.7459 65.4204 22.8459 66.0204 22.7159 66.2604C22.5759 66.5004 21.9959 66.7304 21.8559 66.6804C21.7259 66.6404 22.0559 66.1104 21.9159 65.9904C21.7659 65.8704 21.1359 66.0704 20.9759 65.9604C20.8059 65.8604 20.8559 65.5304 20.9259 65.3804C20.9959 65.2304 21.1559 65.2104 21.3959 65.0604C21.6359 64.9004 22.3159 64.5404 22.3759 64.4404C22.4359 64.3404 21.8359 64.4404 21.7359 64.4504M21.1859 65.2004C21.4759 65.0704 22.4659 64.7604 22.6659 64.7804C22.8759 64.8004 22.4359 65.0504 22.4459 65.3304C22.4459 65.6004 22.6359 66.2504 22.7159 66.4504C22.7959 66.6604 23.1359 66.5004 22.9259 66.5504C22.7259 66.5904 21.7759 66.7204 21.4759 66.7104C21.1759 66.7104 21.0959 66.8304 21.1259 66.5204C21.1659 66.2004 21.7359 65.1904 21.7059 64.8404C21.6759 64.5004 20.8459 64.3904 20.9259 64.4504C21.0059 64.5204 22.0859 65.3004 22.1759 65.2404C22.2659 65.1904 21.5359 64.1804 21.4659 64.1204" fill="#1E1E1E"/>
<path d="M21.9459 64.4004C22.1159 64.4604 21.7959 65.1604 21.9059 65.2804C22.0259 65.4004 22.5459 65.0404 22.6459 65.1004C22.7559 65.1504 22.5559 65.4604 22.5459 65.6304C22.5259 65.8004 22.6759 66.0404 22.5659 66.1104C22.4459 66.1704 22.1559 65.9704 21.8359 66.0004C21.5159 66.0304 20.8059 66.4304 20.6359 66.2704C20.4659 66.1204 20.7859 65.3104 20.8159 65.0504C20.8459 64.7904 20.5759 64.8104 20.8159 64.7104C21.0559 64.6104 21.9959 64.3804 22.2559 64.4504C22.5159 64.5304 22.4759 65.0104 22.3759 65.1604M22.6359 64.0904C22.6959 64.0704 22.4359 64.9404 22.5559 65.1504C22.6659 65.3604 23.2859 65.2104 23.3359 65.3304C23.3859 65.4504 22.9959 65.6704 22.8659 65.8704C22.7259 66.0704 22.7659 66.4104 22.5259 66.5304C22.2859 66.6504 21.5559 66.6004 21.4259 66.5904C21.2959 66.5904 21.7559 66.6404 21.7659 66.5004C21.7759 66.3604 21.5859 66.1004 21.4959 65.7404C21.4059 65.3804 21.2359 64.4404 21.2459 64.3304C21.2659 64.2204 21.4359 65.0804 21.5859 65.0804C21.7359 65.0704 22.0459 64.2504 22.1459 64.3104" stroke="#1E1E1E" stroke-linecap="round"/>
<path d="M36.2886 61.0608C36.3986 58.9208 35.9586 56.2808 36.2886 53.5408C36.1886 55.0908 36.1786 56.8208 36.2886 61.0608ZM36.2886 61.0608C35.7986 63.6308 36.5986 63.1008 39.2986 64.0708M36.2886 61.0608C36.9386 62.5908 36.3986 62.9408 39.2986 64.0708M39.2986 64.0708C42.1886 63.6908 42.8586 64.7208 42.3086 67.0808M39.2986 64.0708C42.1986 64.2908 42.3586 65.5708 42.3086 67.0808M42.3086 67.0808C42.5886 69.9508 42.0886 72.8108 42.3086 74.6108C42.1786 72.2708 42.3686 69.7808 42.3086 67.0808Z" stroke="#1E1E1E" stroke-linecap="round"/>
<path d="M42.5886 73.1108C42.9286 73.0908 43.4286 73.0008 43.6986 73.3008C43.9686 73.6008 44.2686 74.4408 44.2186 74.9108C44.1586 75.3708 43.5786 75.9108 43.3686 76.0908C43.1586 76.2708 43.2886 75.9808 42.9386 75.9808C42.5886 75.9808 41.6586 76.2308 41.2586 76.0908C40.8586 75.9508 40.6286 75.4608 40.5486 75.1308C40.4586 74.7908 40.5186 74.4808 40.7486 74.0908C40.9886 73.6908 41.6586 73.0008 41.9586 72.7508C42.2586 72.5008 42.4286 72.6208 42.5586 72.5908C42.6886 72.5708 42.7286 72.5708 42.7186 72.6208M42.9486 72.7808C43.3686 72.7408 43.2186 73.0508 43.4186 73.4508C43.6286 73.8408 43.9986 74.7108 44.1586 75.1308C44.3186 75.5408 44.6586 75.6808 44.3786 75.9308C44.0886 76.1908 42.9586 76.5408 42.4686 76.6508C41.9686 76.7608 41.5986 76.9308 41.4186 76.5808C41.2386 76.2308 41.5586 75.0608 41.3786 74.5408C41.1986 74.0308 40.2786 73.6408 40.3486 73.4808C40.4286 73.3208 41.5086 73.8008 41.8386 73.6008C42.1586 73.3908 42.1786 72.3308 42.2986 72.2308C42.4186 72.1308 42.5586 72.7808 42.5486 72.9808" fill="#1E1E1E"/>
<path d="M41.7386 73.2008C42.0786 73.1608 42.9686 72.7608 43.3386 72.8708C43.7086 72.9808 43.8186 73.4608 43.9786 73.8408C44.1386 74.2208 44.4186 74.8108 44.2986 75.1408C44.1786 75.4808 43.7686 75.6208 43.2786 75.8608C42.7786 76.0908 41.7586 76.6708 41.3186 76.5608C40.8886 76.4508 40.8486 75.5808 40.6486 75.1808C40.4386 74.7808 39.9486 74.5308 40.0886 74.1708C40.2186 73.8108 41.0386 73.1908 41.4686 73.0308C41.8886 72.8808 42.5586 73.1808 42.6586 73.2408C42.7486 73.2908 42.0186 73.3208 42.0186 73.3608M42.5686 72.9408C42.9386 73.0308 43.9286 72.9108 44.2486 73.1308C44.5586 73.3508 44.4586 73.8108 44.4586 74.2508C44.4686 74.6908 44.5686 75.4008 44.2786 75.8008C43.9986 76.1908 43.0786 76.4508 42.7386 76.6308C42.3886 76.8008 42.4986 76.9908 42.2386 76.8408C41.9686 76.7008 41.4286 76.3208 41.1286 75.7708C40.8186 75.2308 40.4586 73.9708 40.4286 73.5808C40.3886 73.2008 40.5486 73.6408 40.9186 73.4508C41.2886 73.2508 42.3386 72.3908 42.6486 72.3908C42.9486 72.3908 42.8486 73.3008 42.7286 73.4608" stroke="#1E1E1E" stroke-linecap="round"/>
<path d="M42.1577 58.5099C41.8877 56.5699 42.1877 54.6299 42.1577 53.2399C42.0477 54.9299 42.0777 56.4599 42.1577 58.5099ZM42.1577 58.5099C41.4577 58.7799 43.3577 59.9699 44.0377 60.3899M42.1577 58.5099C41.2677 58.6199 42.2377 61.1999 44.0377 60.3899M44.0377 60.3899C45.8477 60.0299 46.6977 61.1999 45.9177 62.2699M44.0377 60.3899C45.3477 60.8899 47.0177 62.0599 45.9177 62.2699M45.9177 62.2699C45.7577 63.9899 46.0377 66.0599 45.9177 67.5399C45.9477 64.8099 45.8277 63.5499 45.9177 62.2699Z" stroke="#1E1E1E" stroke-linecap="round"/>
<path d="M46.0377 66.2999C46.2877 66.3099 46.7077 66.8199 46.8177 67.0699C46.9377 67.3199 46.6577 67.6599 46.7077 67.7699C46.7677 67.8899 47.2577 67.6399 47.1477 67.7599C47.0377 67.8899 46.3477 68.3999 46.0477 68.5099C45.7477 68.6199 45.5377 68.4899 45.3677 68.4199C45.2077 68.3499 45.0377 68.3299 45.0477 68.0799C45.0477 67.8399 45.3877 67.2299 45.3977 66.9499C45.4077 66.6699 45.0377 66.5099 45.1377 66.3799C45.2277 66.2499 45.8177 66.1799 45.9477 66.1799C46.0677 66.1699 45.8077 66.3299 45.8777 66.3499M45.8777 66.5299C46.0377 66.6599 46.5077 67.2199 46.7977 67.4199C47.0977 67.6299 47.6977 67.5599 47.6577 67.7399C47.6177 67.9199 46.8077 68.2899 46.5477 68.4899C46.2777 68.6999 46.1477 69.0899 46.0777 68.9599C46.0077 68.8399 46.3577 67.9999 46.1277 67.7299C45.8877 67.4499 44.7777 67.3399 44.6577 67.3399C44.5277 67.3299 45.2977 67.9199 45.3777 67.6999C45.4477 67.4799 44.9877 66.2099 45.1077 66.0199C45.2177 65.8399 45.9377 66.4399 46.0477 66.5999C46.1577 66.7499 45.8077 66.9099 45.7777 66.9499" fill="#1E1E1E"/>
<path d="M45.7277 66.2099C46.0077 66.0399 46.1477 66.1799 46.4077 66.2999C46.6777 66.4199 47.1977 66.7399 47.3177 66.9399C47.4477 67.1499 47.3977 67.2299 47.1677 67.5199C46.9377 67.8199 46.2277 68.5799 45.9477 68.6899C45.6777 68.7899 45.7577 68.2599 45.5377 68.1399C45.3177 68.0199 44.6877 68.0999 44.6377 67.9499C44.5877 67.7999 45.0877 67.3499 45.2377 67.2299C45.3877 67.1199 45.4977 67.2999 45.5377 67.2699C45.5877 67.2299 45.4077 67.0399 45.5277 66.9999C45.6477 66.9599 46.1877 67.0099 46.2677 67.0099M46.3477 66.2699C46.6177 66.1499 46.6177 66.1999 46.7977 66.3699C46.9877 66.5399 47.4277 66.9799 47.4477 67.2799C47.4777 67.5799 46.9777 67.8599 46.9377 68.1499C46.8977 68.4499 47.3177 68.9199 47.1977 69.0599C47.0777 69.2099 46.5877 69.2399 46.2177 69.0199C45.8377 68.7899 45.2477 67.8999 44.9477 67.7099C44.6577 67.5199 44.4077 68.0999 44.4577 67.8899C44.4977 67.6799 44.9777 66.5699 45.2177 66.4399C45.4577 66.3099 45.9177 67.0299 45.8977 67.0999C45.8877 67.1699 45.1577 66.8599 45.1477 66.8599" stroke="#1E1E1E" stroke-linecap="round"/>
<path d="M35.6111 62.2692C36.2511 62.2292 36.6011 62.2992 37.0411 62.2692C36.6011 62.2892 36.1811 62.2492 35.6111 62.2692ZM35.6111 62.2692C35.0411 61.9892 33.6711 62.0892 34.1811 63.6992M35.6111 62.2692C34.2911 62.8092 33.7011 63.3792 34.1811 63.6992M34.1811 63.6992C34.2611 64.8592 34.2211 65.9192 34.1811 66.5592M34.1811 63.6992C34.2211 64.2792 34.2111 64.8692 34.1811 66.5592M34.1811 66.5592C34.7011 67.6392 33.7411 68.2792 32.7511 67.9892M34.1811 66.5592C34.9111 68.2092 34.1311 68.4792 32.7511 67.9892M32.7511 67.9892C32.3811 67.9892 31.9511 67.9992 31.3211 67.9892C31.7111 67.9992 32.2211 67.9992 32.7511 67.9892Z" stroke="#1E1E1E" stroke-linecap="round"/>
<path d="M31.4511 67.9792C31.4511 68.0392 31.2311 68.1192 31.2811 68.0792C31.3311 68.0392 31.7311 67.7392 31.7511 67.7392C31.7611 67.7392 31.4511 68.0192 31.3711 68.0892C31.3011 68.1492 31.3111 68.1092 31.3011 68.1392C31.2811 68.1592 31.2611 68.2792 31.2911 68.2292C31.3211 68.1792 31.5311 67.9292 31.4811 67.8492C31.4411 67.7692 31.0811 67.7692 31.0211 67.7292C30.9711 67.6892 31.1111 67.6092 31.1411 67.5992C31.1611 67.5892 31.1011 67.6692 31.1711 67.6692C31.2411 67.6592 31.4811 67.5192 31.5411 67.5692M31.3911 68.1892C31.5311 68.2092 31.9111 68.0092 31.9011 68.0092C31.9011 68.0092 31.4411 68.1192 31.3711 68.1792C31.2911 68.2392 31.3611 68.4492 31.4411 68.3692C31.5211 68.2792 31.9111 67.7792 31.8411 67.6792C31.7811 67.5892 31.1211 67.6492 31.0611 67.7692C31.0011 67.8892 31.4811 68.4392 31.4611 68.3992C31.4511 68.3492 31.0111 67.6092 30.9711 67.5192C30.9311 67.4392 31.1711 67.8092 31.2011 67.8992C31.2211 67.9892 31.1311 68.0592 31.1211 68.0692C31.1211 68.0792 31.1511 67.9792 31.1711 67.9492" fill="#1E1E1E"/>
<path d="M31.3311 67.5793C31.4111 67.5893 31.6811 67.6793 31.7411 67.7093C31.7911 67.7393 31.7811 67.6493 31.6811 67.7393C31.5811 67.8393 31.2111 68.2493 31.1311 68.2793C31.0611 68.3093 31.2611 67.9493 31.2211 67.8993C31.1911 67.8493 30.8911 67.9893 30.9211 67.9793C30.9411 67.9793 31.3111 67.8193 31.4011 67.8493C31.4911 67.8793 31.4911 68.1393 31.4311 68.1893C31.3811 68.2393 31.0311 68.1593 31.0611 68.1493C31.1011 68.1393 31.5711 68.1293 31.6511 68.1193C31.7211 68.1093 31.6111 68.1393 31.5111 68.0893M31.6011 67.6393C31.6311 67.6793 31.8411 67.8593 31.8211 67.9493C31.8111 68.0393 31.4911 68.0793 31.5111 68.1793C31.5311 68.2693 31.9211 68.4793 31.9511 68.5293C31.9711 68.5793 31.7911 68.5893 31.6611 68.4693C31.5211 68.3493 31.2411 67.8393 31.1111 67.8093C30.9911 67.7693 30.8611 68.2993 30.8811 68.2693C30.9011 68.2393 31.1611 67.6393 31.2411 67.6293C31.3211 67.6193 31.4011 68.1493 31.3611 68.2193C31.3111 68.2793 30.9611 68.0193 30.9611 67.9993C30.9711 67.9893 31.2811 68.1193 31.4111 68.1093" stroke="#1E1E1E" stroke-linecap="round"/>
<path d="M26.9583 64.5994C26.9283 61.4894 26.9283 60.2894 26.9583 59.2594C26.8483 61.1994 27.0183 63.3394 26.9583 64.5994ZM26.9583 64.5994C26.1883 64.6194 25.9783 66.8094 25.4583 66.1094M26.9583 64.5994C26.2483 66.5594 27.3083 65.5394 25.4583 66.1094M25.4583 66.1094C24.4983 66.5394 24.8983 67.5194 23.9483 67.6094M25.4583 66.1094C25.0883 66.8494 23.6183 65.8194 23.9483 67.6094M23.9483 67.6094C23.7883 68.9794 24.1483 69.9994 23.9483 72.9494C23.9983 71.1994 24.0583 69.4394 23.9483 67.6094Z" stroke="#1E1E1E" stroke-linecap="round"/>
<path d="M23.5983 72.3394C23.8283 72.1994 24.6683 71.7494 24.8583 71.8094C25.0383 71.8694 24.7483 72.4394 24.7283 72.6894C24.6983 72.9294 24.7583 73.0994 24.7083 73.2994C24.6683 73.5094 24.5183 73.8794 24.4383 73.9294C24.3483 73.9694 24.4383 73.6794 24.1983 73.5494C23.9583 73.4294 23.2083 73.3594 22.9883 73.1894C22.7683 73.0194 22.8683 72.7194 22.8683 72.5294C22.8783 72.3494 22.7883 72.2294 23.0083 72.0794C23.2283 71.9294 23.9883 71.6094 24.1883 71.6394C24.3883 71.6694 24.2783 72.2194 24.2083 72.2794M24.6583 72.2394C24.7983 72.1994 24.3483 72.3994 24.3783 72.5594C24.4083 72.7294 24.6483 73.1994 24.8383 73.2294C25.0183 73.2594 25.6083 72.7194 25.4683 72.7294C25.3183 72.7394 24.2083 73.0094 23.9683 73.2694C23.7383 73.5394 24.2483 74.3994 24.0583 74.3194C23.8683 74.2394 23.0283 73.0194 22.8483 72.7694C22.6783 72.5294 22.9583 72.8794 22.9883 72.8494C23.0283 72.8294 22.9183 72.7294 23.0483 72.6194C23.1683 72.5094 23.5883 72.2894 23.7283 72.2094C23.8683 72.1194 23.7483 72.0094 23.8683 72.1094" fill="#1E1E1E"/>
<path d="M24.2183 71.7794C24.4583 71.7394 24.6883 71.5994 24.7083 71.7894C24.7283 71.9794 24.3683 72.7294 24.3583 72.9194C24.3383 73.0994 24.7083 72.7894 24.6283 72.8994C24.5583 72.9994 24.0083 73.4194 23.9283 73.5394C23.8383 73.6494 24.1783 73.5094 24.1283 73.5794C24.0783 73.6394 23.8683 73.9594 23.6283 73.9294C23.3983 73.8994 22.7383 73.5994 22.7483 73.4094C22.7583 73.2194 23.4583 72.9594 23.6783 72.7994C23.8983 72.6394 24.1183 72.5394 24.0783 72.4194C24.0283 72.2994 23.4483 72.0394 23.4183 72.0594M24.4383 72.1494C24.5683 72.2194 24.3283 72.2894 24.5183 72.4994C24.7083 72.6994 25.4583 73.1594 25.5783 73.3794C25.6983 73.6094 25.4683 73.8494 25.2283 73.8294C24.9883 73.8194 24.4683 73.2394 24.1383 73.2894C23.8183 73.3494 23.4083 74.2194 23.2683 74.1694C23.1283 74.1194 23.3083 73.1394 23.2983 73.0094C23.2883 72.8894 23.3083 73.4994 23.2183 73.4194C23.1183 73.3494 22.5983 72.7394 22.7283 72.5694C22.8583 72.4094 23.6883 72.5094 23.9783 72.4494C24.2683 72.3794 24.4483 72.2594 24.4783 72.1794" stroke="#1E1E1E" stroke-linecap="round"/>
<path d="M40.5777 68.8907C41.0477 68.8607 41.5777 68.8507 42.1577 68.8907C41.6077 68.8707 41.0177 68.8607 40.5777 68.8907ZM40.5777 68.8907C39.2077 69.3607 38.5877 69.9707 38.9977 70.4707M40.5777 68.8907C40.0877 68.5107 39.6977 70.1107 38.9977 70.4707M38.9977 70.4707C38.9677 70.8807 38.9977 71.3307 38.9977 71.5207M38.9977 70.4707C39.0177 70.7507 38.9977 71.0307 38.9977 71.5207M38.9977 71.5207C39.6377 73.1807 38.8377 73.5307 37.4177 73.1007M38.9977 71.5207C38.7777 72.0507 38.0177 73.4107 37.4177 73.1007M37.4177 73.1007C36.9577 73.0707 36.4377 73.1107 35.8377 73.1007C36.2977 73.1107 36.8577 73.1007 37.4177 73.1007Z" stroke="#1E1E1E" stroke-linecap="round"/>
<path d="M36.1077 72.6407C36.1677 72.6007 35.9277 72.8707 35.9077 72.9407C35.8977 73.0107 35.9677 73.0007 35.9977 73.0607C36.0277 73.1307 36.0377 73.3107 36.0677 73.3207C36.1077 73.3307 36.2877 73.1507 36.2177 73.1107C36.1377 73.0707 35.7177 73.1207 35.6077 73.0907C35.4977 73.0707 35.5677 72.9907 35.5377 72.9607C35.5177 72.9307 35.3877 72.9407 35.4477 72.8907C35.5077 72.8507 35.8077 72.6407 35.9077 72.6707C36.0077 72.6907 36.0677 73.0207 36.0477 73.0407C36.0377 73.0607 35.8477 72.8107 35.8177 72.7907M35.7477 73.1007C35.7077 73.1207 35.8477 73.3207 35.9777 73.2407C36.1077 73.1607 36.5577 72.6907 36.5277 72.6307C36.5077 72.5607 35.8777 72.6907 35.8177 72.8607C35.7577 73.0307 36.2277 73.6507 36.1777 73.6507C36.1277 73.6507 35.6377 72.9407 35.5477 72.8707C35.4577 72.8007 35.6277 73.1607 35.6077 73.2307C35.5877 73.3007 35.4277 73.3207 35.4177 73.2907C35.4177 73.2607 35.4977 73.1007 35.5677 73.0407C35.6277 72.9807 35.7077 72.8807 35.8177 72.9307C35.9277 72.9907 36.1377 73.3707 36.2077 73.3707" fill="#1E1E1E"/>
<path d="M35.9977 72.6407C35.9377 72.6907 35.6477 73.0807 35.6377 73.1007C35.6277 73.1207 35.9077 72.7907 35.9177 72.7807C35.9377 72.7707 35.6777 72.9807 35.7277 73.0407C35.7677 73.0907 36.1177 73.0107 36.1777 73.1007C36.2377 73.1907 36.1777 73.5007 36.0577 73.5807C35.9477 73.6507 35.5077 73.5807 35.4877 73.5507C35.4577 73.5207 35.8477 73.4507 35.9077 73.4007C35.9677 73.3407 35.8977 73.3007 35.8277 73.2207C35.7577 73.1307 35.5077 72.9007 35.5077 72.9007C35.5077 72.8907 35.8177 73.1407 35.8477 73.1707M35.8477 73.0907C35.9077 73.1407 36.3677 73.3307 36.4577 73.3707C36.5377 73.4207 36.4377 73.4607 36.3477 73.3707C36.2477 73.2907 36.0177 72.8407 35.8977 72.8607C35.7877 72.8907 35.6477 73.4907 35.6377 73.5107C35.6277 73.5407 35.8277 72.9807 35.8577 73.0007C35.8777 73.0107 35.8877 73.5507 35.7877 73.5907C35.6877 73.6407 35.2477 73.3307 35.2477 73.2707C35.2377 73.2007 35.5877 73.2707 35.7577 73.2307C35.9277 73.1807 36.1977 73.0407 36.2377 72.9707C36.2777 72.9007 36.0377 72.8107 36.0077 72.8007" stroke="#1E1E1E" stroke-linecap="round"/>
<path d="M41.1577 60.0119C41.7177 59.9819 41.9577 59.9919 42.1577 60.0119C41.9377 59.9919 41.7477 60.0219 41.1577 60.0119ZM41.1577 60.0119C40.0777 60.5619 40.6477 60.0119 40.1577 61.0119M41.1577 60.0119C41.1877 60.7119 40.8577 60.7219 40.1577 61.0119M40.1577 61.0119C40.1577 61.8419 40.1277 62.5819 40.1577 63.0219M40.1577 61.0119C40.1677 61.5619 40.1977 62.1019 40.1577 63.0219M40.1577 63.0219C40.5277 63.5819 40.0277 62.7619 40.3477 63.2119M40.1577 63.0219C39.7077 63.4519 40.3477 62.7119 40.3477 63.2119M40.3477 63.2119C40.8077 62.9019 40.9777 63.6619 40.5477 63.0219M40.3477 63.2119C39.9477 63.0119 40.5477 62.9819 40.5477 63.0219M40.5477 63.0219C40.5677 62.7619 40.5377 62.5319 40.5477 62.2119M40.5477 63.0219C40.5377 62.8119 40.5377 62.5819 40.5477 62.2119M40.5477 62.2119C40.8877 61.4519 40.0377 61.2019 39.5477 61.2119M40.5477 62.2119C40.6577 62.1219 40.9377 61.4619 39.5477 61.2119M39.5477 61.2119C39.2877 61.2419 38.9677 61.2019 38.5477 61.2119C39.0977 61.2219 39.3177 61.2019 39.5477 61.2119Z" stroke="#1E1E1E" stroke-linecap="round"/>
<path d="M38.4577 61.2218C38.3977 61.2518 38.4477 61.1818 38.4677 61.2018C38.4977 61.2118 38.5177 61.3318 38.5877 61.3018C38.6477 61.2618 38.8877 61.0518 38.8577 61.0018C38.8277 60.9518 38.4777 61.0018 38.4177 60.9918C38.3477 60.9918 38.4677 60.9618 38.4577 60.9718C38.4577 60.9818 38.3377 61.0618 38.3777 61.0618C38.4277 61.0618 38.6877 60.9118 38.7477 60.9718C38.8077 61.0218 38.7777 61.3618 38.7377 61.3818C38.6977 61.4118 38.5277 61.1518 38.4977 61.1318C38.4677 61.1118 38.4877 61.2018 38.5377 61.2618M38.5077 61.5118C38.6077 61.3918 39.0377 60.8618 39.0077 60.7518C38.9777 60.6418 38.3677 60.7018 38.3377 60.8318C38.3077 60.9618 38.8277 61.5418 38.8377 61.5318C38.8377 61.5218 38.4177 60.8218 38.3677 60.7818C38.3177 60.7318 38.5377 61.1418 38.5377 61.2518C38.5377 61.3718 38.3777 61.4618 38.3577 61.4718C38.3277 61.4918 38.3777 61.3818 38.3977 61.3518C38.4277 61.3118 38.4177 61.2118 38.4977 61.2718C38.5777 61.3318 38.8177 61.7118 38.8877 61.7118C38.9577 61.7018 39.0277 61.3318 38.8977 61.2418" fill="#1E1E1E"/>
<path d="M38.2177 61.4018C38.1677 61.4018 38.4077 61.0118 38.4077 60.9618C38.4077 60.9018 38.1577 61.0518 38.2177 61.0518C38.2777 61.0618 38.6777 60.9418 38.7777 61.0118C38.8777 61.0718 38.8877 61.3818 38.8277 61.4618C38.7577 61.5518 38.3777 61.5118 38.3777 61.5218C38.3877 61.5318 38.7977 61.5218 38.8477 61.5218C38.9077 61.5118 38.8077 61.5318 38.7077 61.4818C38.6077 61.4418 38.2577 61.2318 38.2377 61.2418C38.2177 61.2418 38.5477 61.4818 38.5777 61.5118C38.6077 61.5418 38.4377 61.4018 38.4177 61.4018M39.0277 61.6718C39.0677 61.6918 38.9277 61.6718 38.8277 61.5418C38.7177 61.4018 38.4977 60.8918 38.3977 60.8718C38.3077 60.8518 38.2177 61.4118 38.2577 61.4118C38.2877 61.4118 38.5577 60.8618 38.6277 60.8918C38.6977 60.9118 38.7677 61.4918 38.6877 61.5818C38.6177 61.6618 38.1977 61.4118 38.1877 61.4018C38.1777 61.3918 38.4977 61.5218 38.6277 61.5018C38.7577 61.4918 38.9377 61.3818 38.9577 61.3218C38.9777 61.2618 38.7577 61.1518 38.7277 61.1418C38.6877 61.1318 38.8277 61.1918 38.7577 61.2418" stroke="#1E1E1E" stroke-linecap="round"/>
<path d="M47.0089 63.4731C46.2089 63.5031 45.9589 63.4431 45.6189 63.4731C45.9689 63.4931 46.3189 63.4931 47.0089 63.4731ZM47.0089 63.4731C48.4289 63.1431 49.0089 64.5431 48.3989 64.8631M47.0089 63.4731C48.6389 63.8431 49.0289 63.2331 48.3989 64.8631M48.3989 64.8631C48.3989 64.9431 48.3989 65.0131 48.3989 65.0931M48.3989 64.8631C48.4089 64.9431 48.4089 65.0131 48.3989 65.0931M48.3989 65.0931C48.2089 65.5631 48.4789 66.7431 49.7989 66.4831M48.3989 65.0931C48.5289 65.5131 49.0889 67.0331 49.7989 66.4831M49.7989 66.4831C50.1389 66.5231 50.4389 66.5031 51.1889 66.4831C50.5989 66.4731 50.1789 66.4931 49.7989 66.4831Z" stroke="#1E1E1E" stroke-linecap="round"/>
<path d="M51.0989 66.3031C51.1489 66.3131 51.2189 66.4531 51.3089 66.4331C51.4089 66.4231 51.6689 66.2431 51.6489 66.2231C51.6289 66.2031 51.2789 66.3031 51.1989 66.3231C51.1189 66.3531 51.2089 66.3531 51.1689 66.3831C51.1389 66.4031 50.9689 66.4931 50.9889 66.4831C50.9989 66.4831 51.2289 66.3031 51.2689 66.3331C51.3089 66.3531 51.2689 66.6531 51.2289 66.6431C51.1889 66.6331 51.0389 66.3331 51.0289 66.2931C51.0189 66.2431 51.0989 66.3131 51.1689 66.3731C51.2389 66.4331 51.4089 66.6631 51.4289 66.6431M51.6589 65.8631C51.6589 65.7431 51.0989 65.8331 51.0889 65.9931C51.0889 66.1431 51.6189 66.7631 51.6289 66.7831C51.6389 66.8031 51.1989 66.1531 51.1289 66.1331C51.0589 66.1131 51.2489 66.5531 51.2189 66.6731C51.1789 66.8031 50.9789 66.8831 50.9289 66.8831C50.8789 66.8831 50.8889 66.7531 50.8989 66.6831C50.9089 66.6231 50.8989 66.4731 50.9889 66.5031C51.0789 66.5331 51.3489 66.8731 51.4389 66.8431C51.5289 66.8231 51.6589 66.4431 51.5489 66.3531C51.4389 66.2631 50.9089 66.2331 50.7689 66.3031" fill="#1E1E1E"/>
<path d="M51.0289 66.0631C51.0589 66.0031 50.8489 66.1631 50.9389 66.1931C51.0289 66.2131 51.4589 66.1331 51.5689 66.2331C51.6789 66.3331 51.6889 66.6731 51.6089 66.7931C51.5289 66.9131 51.1189 66.9031 51.0889 66.9331C51.0689 66.9531 51.4289 66.9531 51.4589 66.9431C51.4789 66.9331 51.3489 66.9231 51.2289 66.8531C51.1089 66.7731 50.7489 66.5231 50.7289 66.4931C50.7089 66.4631 51.0489 66.6631 51.0989 66.6731C51.1589 66.6731 51.0489 66.5231 51.0389 66.5131C51.0389 66.4931 51.0289 66.6131 51.0589 66.5831M51.4789 66.6431C51.4089 66.5131 51.2189 66.0231 51.1489 66.0231C51.0789 66.0231 51.0089 66.6331 51.0489 66.6631C51.0889 66.7031 51.3489 66.1931 51.3989 66.2431C51.4489 66.3031 51.4789 66.9031 51.3689 66.9931C51.2689 67.0931 50.7989 66.8431 50.7589 66.8131C50.7189 66.7931 51.0189 66.8831 51.1289 66.8431C51.2389 66.7931 51.4289 66.6431 51.4489 66.5431C51.4789 66.4531 51.2889 66.3131 51.2789 66.2831C51.2689 66.2431 51.4589 66.3131 51.4089 66.3431C51.3489 66.3831 50.9589 66.5331 50.9589 66.5031" stroke="#1E1E1E" stroke-linecap="round"/>
<path d="M52.3162 59.1089C50.0162 58.9489 48.7762 59.2489 47.8762 59.1089C48.6962 59.1889 49.7462 59.0389 52.3162 59.1089ZM52.3162 59.1089C54.1262 60.0189 54.5862 59.1489 53.6662 57.7589M52.3162 59.1089C54.1562 58.0489 53.7462 58.7589 53.6662 57.7589M53.6662 57.7589C53.0862 57.2489 54.2862 55.7389 55.0262 56.3989M53.6662 57.7589C53.9962 57.6789 53.2962 56.8289 55.0262 56.3989M55.0262 56.3989C56.4762 56.4589 57.7962 56.4789 59.4662 56.3989C57.7962 56.4789 56.4262 56.3389 55.0262 56.3989Z" stroke="#1E1E1E" stroke-linecap="round"/>
<path d="M59.5262 55.7589C59.7762 55.6989 60.3362 55.4589 60.4162 55.4889C60.4962 55.5189 60.0762 55.7789 60.0062 55.9389C59.9262 56.0889 60.0762 56.2589 59.9862 56.4189C59.8962 56.5789 59.5462 56.8389 59.4762 56.8989C59.3962 56.9489 59.5762 56.7289 59.5062 56.7489C59.4462 56.7789 59.2462 57.1389 59.1062 57.0389C58.9562 56.9289 58.6762 56.3289 58.6562 56.1389C58.6362 55.9489 58.7762 55.8889 58.9762 55.8889C59.1762 55.8789 59.7462 56.1689 59.8562 56.1089C59.9662 56.0489 59.6862 55.5989 59.6662 55.5289M59.2662 55.0689C59.3762 55.2789 60.3462 56.2589 60.4562 56.3689C60.5662 56.4689 60.0062 55.6289 59.9362 55.7189C59.8662 55.8189 60.1362 56.6289 60.0362 56.9389C59.9262 57.2389 59.5162 57.4789 59.3262 57.5389C59.1362 57.5989 58.9962 57.3989 58.8862 57.2789C58.7862 57.1489 58.6362 56.8389 58.6962 56.7689C58.7562 56.7089 59.1162 57.0589 59.2662 56.8989C59.4162 56.7289 59.6562 55.9989 59.5962 55.7889C59.5462 55.5689 59.0562 55.5089 58.9262 55.5989C58.8062 55.6889 58.7962 56.3189 58.8562 56.3089" fill="#1E1E1E"/>
<path d="M59.0762 55.3989C59.3162 55.4289 60.1162 55.3489 60.3762 55.5789C60.6362 55.7989 60.7262 56.4489 60.6262 56.7489C60.5362 57.0389 59.8962 57.1889 59.8062 57.3289C59.7162 57.4789 60.1462 57.5889 60.0762 57.6089C59.9962 57.6389 59.6462 57.6289 59.3562 57.4889C59.0562 57.3389 58.4062 56.8689 58.3062 56.7189C58.2162 56.5789 58.6962 56.7189 58.7962 56.6089C58.8862 56.4889 58.7762 56.1189 58.8762 56.0189C58.9762 55.9289 59.2662 56.0889 59.4062 56.0289C59.5362 55.9689 59.6262 55.6589 59.6862 55.6789M59.4162 55.1389C59.4262 55.1289 59.4662 56.0989 59.6262 56.2389C59.7762 56.3689 60.2362 55.7389 60.3362 55.9489C60.4362 56.1589 60.4462 57.2189 60.2262 57.4689C60.0062 57.7189 59.1862 57.4389 59.0162 57.4489C58.8362 57.4489 59.1162 57.5889 59.1762 57.4789C59.2362 57.3689 59.3862 57.0289 59.3662 56.7789C59.3462 56.5289 59.0362 56.1589 59.0462 55.9889C59.0562 55.8189 59.3962 55.7589 59.4362 55.7489C59.4762 55.7289 59.1862 55.9789 59.2762 55.9089C59.3762 55.8389 59.8562 55.2489 59.9962 55.3189" stroke="#1E1E1E" stroke-linecap="round"/>
<path d="M9.77797 89.4559C20.768 89.4559 64.748 89.4559 75.738 89.4559" stroke="#1E1E1E" stroke-width="2" stroke-linecap="round"/>
<path d="M9.04673 105.276C9.03673 104.376 9.01673 100.766 9.00673 99.866" stroke="#1E1E1E" stroke-linecap="round"/>
<path d="M8.97475 100.069C9.22475 99.7088 10.2347 98.2888 10.4847 97.9288" stroke="#1E1E1E" stroke-linecap="round"/>
<path d="M11.9775 105.34C11.9875 104.44 12.0075 100.83 12.0175 99.9302" stroke="#1E1E1E" stroke-linecap="round"/>
<path d="M12.0495 100.133C11.7995 99.773 10.7895 98.353 10.5395 97.993" stroke="#1E1E1E" stroke-linecap="round"/>
<path d="M6.83448 105.826C8.01448 105.806 12.7145 105.726 13.8845 105.706" stroke="#1E1E1E" stroke-linecap="round"/>
<path d="M10.693 105.917C10.703 106.547 10.743 109.087 10.753 109.717" stroke="#1E1E1E" stroke-linecap="round"/>
<path d="M52.1042 100.998C52.4642 100.628 53.9042 99.128 54.2642 98.748" stroke="#1E1E1E" stroke-linecap="round"/>
<path d="M54.2597 98.7079C54.6597 99.0379 56.2397 100.358 56.6397 100.688" stroke="#1E1E1E" stroke-linecap="round"/>
<path d="M56.7296 100.953C56.0396 102.013 53.2896 106.263 52.5996 107.333" stroke="#1E1E1E" stroke-linecap="round"/>
<path d="M52.1716 100.998C51.8116 100.628 50.3716 99.128 50.0116 98.748" stroke="#1E1E1E" stroke-linecap="round"/>
<path d="M50.0161 98.7079C49.6161 99.0379 48.0361 100.358 47.6361 100.688" stroke="#1E1E1E" stroke-linecap="round"/>
<path d="M47.5462 100.953C48.2362 102.013 50.9862 106.263 51.6762 107.333" stroke="#1E1E1E" stroke-linecap="round"/>
<path d="M27.1928 3.00223C36.8628 3.00223 46.5328 3.00223 54.3928 3.00223M27.1928 3.00223C33.5628 3.00223 39.9428 3.00223 54.3928 3.00223M27.1928 3.00223C24.7028 3.00223 23.4628 4.24223 23.4628 6.73223M54.3928 3.00223C56.8728 3.00223 58.1228 4.24223 58.1228 6.73223M58.1228 6.73223C58.1228 9.32223 58.1228 11.9222 58.1228 14.1822M58.1228 6.73223C58.1228 8.80223 58.1228 10.8722 58.1228 14.1822M58.1228 14.1822C58.1228 16.6622 56.8728 17.9022 54.3928 17.9022M54.3928 17.9022C44.8528 17.9022 35.3228 17.9022 27.1928 17.9022M54.3928 17.9022C45.3728 17.9022 36.3528 17.9022 27.1928 17.9022M27.1928 17.9022C24.7028 17.9022 23.4628 16.6622 23.4628 14.1822M23.4628 14.1822C23.4628 12.2322 23.4628 10.2822 23.4628 6.73223M23.4628 14.1822C23.4628 11.2122 23.4628 8.24223 23.4628 6.73223" stroke="#1E1E1E" stroke-width="2" stroke-linecap="round"/>
<path d="M35.5726 13.1967H34.7659L37.0992 6.84205H37.8936L40.2269 13.1967H39.4202L37.5212 7.84737H37.4716L35.5726 13.1967ZM35.8705 10.7144H39.1223V11.3971H35.8705V10.7144ZM41.8497 10.3297V13.1967H41.1175V8.43071H41.8249V9.1754H41.887C41.9987 8.93338 42.1683 8.73893 42.3958 8.59206C42.6234 8.44313 42.9171 8.36866 43.277 8.36866C43.5997 8.36866 43.8821 8.43485 44.1241 8.56724C44.3662 8.69756 44.5544 8.89614 44.6889 9.16299C44.8233 9.42777 44.8905 9.76288 44.8905 10.1683V13.1967H44.1583V10.218C44.1583 9.84355 44.061 9.55188 43.8666 9.34296C43.6721 9.13196 43.4053 9.02646 43.0661 9.02646C42.8323 9.02646 42.6234 9.07714 42.4393 9.1785C42.2572 9.27986 42.1135 9.42777 42.008 9.62221C41.9025 9.81666 41.8497 10.0525 41.8497 10.3297ZM48.0283 13.296C47.6311 13.296 47.2805 13.1957 46.9764 12.995C46.6724 12.7923 46.4345 12.5068 46.2628 12.1386C46.0911 11.7684 46.0052 11.3309 46.0052 10.8261C46.0052 10.3255 46.0911 9.89113 46.2628 9.52292C46.4345 9.15472 46.6734 8.87029 46.9795 8.66963C47.2857 8.46898 47.6394 8.36866 48.0407 8.36866C48.351 8.36866 48.5961 8.42037 48.7761 8.5238C48.9581 8.62516 49.0967 8.741 49.1919 8.87132C49.2891 8.99957 49.3646 9.10507 49.4184 9.18781H49.4805V6.84205H50.2127V13.1967H49.5053V12.4644H49.4184C49.3646 12.5513 49.2881 12.661 49.1888 12.7933C49.0895 12.9237 48.9478 13.0405 48.7637 13.144C48.5796 13.2453 48.3345 13.296 48.0283 13.296ZM48.1276 12.6382C48.4213 12.6382 48.6696 12.5617 48.8723 12.4086C49.075 12.2534 49.2291 12.0393 49.3346 11.7663C49.4401 11.4912 49.4929 11.1736 49.4929 10.8137C49.4929 10.4579 49.4412 10.1466 49.3377 9.87975C49.2343 9.61084 49.0812 9.40191 48.8785 9.25297C48.6758 9.10197 48.4255 9.02646 48.1276 9.02646C47.8173 9.02646 47.5587 9.1061 47.3519 9.26538C47.1471 9.4226 46.993 9.63669 46.8896 9.90768C46.7882 10.1766 46.7375 10.4786 46.7375 10.8137C46.7375 11.153 46.7892 11.4612 46.8927 11.7384C46.9982 12.0135 47.1533 12.2328 47.3581 12.3962C47.565 12.5575 47.8215 12.6382 48.1276 12.6382Z" fill="#1E1E1E"/>
<path d="M39.4634 48.0713C38.7899 46.9134 35.9802 43.7018 36.0038 41.5718C36.0273 39.4317 38.9781 36.3827 39.6047 35.2508M40.4653 48.6883C39.6219 47.5608 35.5421 44.3432 35.2348 41.9241C34.9375 39.495 38.055 35.3655 38.6413 34.1438" stroke="#1E1E1E" stroke-linecap="round"/>
<path d="M40.0573 47.711C40.8639 46.6761 44.0926 43.7466 44.1566 41.537C44.2206 39.3374 41.1036 35.7174 40.4515 34.4833M39.7836 48.2893C40.4512 47.0935 43.3388 42.7618 43.3032 40.5015C43.2675 38.2513 39.9624 35.9002 39.5496 34.7775" stroke="#1E1E1E" stroke-linecap="round"/>
<path d="M39.9736 39.9519C39.9736 39.9519 40.007 40.0019 40.0736 40.1019C40.147 40.1952 40.2003 40.2986 40.2336 40.4119C40.2736 40.5319 40.2903 40.6452 40.2836 40.7519C40.2836 40.8719 40.2603 40.9886 40.2136 41.1019C40.1736 41.2152 40.117 41.3186 40.0436 41.4119C39.9703 41.5052 39.8836 41.5852 39.7836 41.6519C39.677 41.7186 39.567 41.7652 39.4536 41.7919C39.3403 41.8186 39.227 41.8286 39.1136 41.8219C38.9936 41.8086 38.877 41.7786 38.7636 41.7319C38.657 41.6852 38.557 41.6219 38.4636 41.5419C38.377 41.4619 38.3036 41.3686 38.2436 41.2619C38.1836 41.1619 38.1436 41.0519 38.1236 40.9319C38.1036 40.8119 38.1003 40.6986 38.1136 40.5919C38.127 40.4719 38.1603 40.3586 38.2136 40.2519C38.267 40.1452 38.337 40.0486 38.4236 39.9619C38.5103 39.8752 38.607 39.8052 38.7136 39.7519C38.8203 39.6986 38.9336 39.6652 39.0536 39.6519C39.167 39.6386 39.2803 39.6419 39.3936 39.6619C39.5136 39.6819 39.6236 39.7219 39.7236 39.7819C39.8303 39.8419 39.9236 39.9152 40.0036 40.0019C40.0836 40.0952 40.147 40.1952 40.1936 40.3019C40.2403 40.4152 40.2703 40.5319 40.2836 40.6519C40.2903 40.7652 40.2803 40.8786 40.2536 40.9919C40.2203 41.1052 40.1736 41.2152 40.1136 41.3219C40.047 41.4219 39.967 41.5086 39.8736 41.5819C39.7803 41.6552 39.677 41.7119 39.5636 41.7519C39.4503 41.7986 39.3336 41.8219 39.2136 41.8219C39.1003 41.8286 38.987 41.8119 38.8736 41.7719C38.7603 41.7386 38.657 41.6852 38.5636 41.6119C38.4636 41.5452 38.4136 41.5119 38.4136 41.5119C38.4136 41.5119 38.387 41.4752 38.3336 41.4019C38.2736 41.3352 38.227 41.2619 38.1936 41.1819C38.1536 41.1019 38.127 41.0152 38.1136 40.9219C38.1003 40.8352 38.0936 40.7519 38.0936 40.6719C38.1003 40.5786 38.117 40.4919 38.1436 40.4119C38.1703 40.3252 38.207 40.2419 38.2536 40.1619C38.3003 40.0886 38.357 40.0219 38.4236 39.9619C38.4836 39.8952 38.5503 39.8386 38.6236 39.7919C38.7036 39.7452 38.787 39.7086 38.8736 39.6819C38.9536 39.6552 39.0403 39.6386 39.1336 39.6319C39.2136 39.6319 39.297 39.6386 39.3836 39.6519C39.477 39.6652 39.5636 39.6919 39.6436 39.7319C39.7236 39.7652 39.797 39.8119 39.8636 39.8719C39.937 39.9252 39.9736 39.9519 39.9736 39.9519Z" fill="#1E1E1E"/>
</svg>
