<svg width="85" height="126" viewBox="0 0 85 126" fill="none" xmlns="http://www.w3.org/2000/svg">
<path d="M22.7038 2.24298C37.3938 3.16298 54.5738 1.85298 63.1038 2.24298C75.4638 1.55298 85.8838 5.47298 83.3038 22.443C83.9438 45.493 85.4138 67.213 83.3038 103.993C79.8438 116.803 77.6738 120.743 63.1038 124.193C48.4338 120.573 36.2838 122.873 22.7038 124.193C10.1038 123.653 0.313793 117.733 2.50379 103.993C0.303793 78.373 2.87379 54.513 2.50379 22.443C2.83379 5.77298 8.64379 -0.277023 22.7038 2.24298Z" fill="white"/>
<path d="M22.7038 2.24297C34.9638 2.66297 49.2338 0.652969 63.1038 2.24297M22.7038 2.24297C37.2038 1.87297 52.5338 1.29297 63.1038 2.24297M22.7038 2.24297C10.3538 1.84297 1.09376 9.82297 2.50376 22.443M22.7038 2.24297C7.67377 3.09297 3.35376 9.16297 2.50376 22.443M63.1038 2.24297C75.1538 1.27297 83.7338 8.17297 83.3038 22.443M63.1038 2.24297C78.3438 2.12297 81.4438 10.313 83.3038 22.443M83.3038 22.443C84.8938 46.333 82.6038 70.983 83.3038 103.993M83.3038 22.443C81.7138 52.543 82.3838 84.953 83.3038 103.993M83.3038 103.993C84.4738 118.803 76.2838 122.933 63.1038 124.193M83.3038 103.993C84.3438 115.943 76.0838 125.073 63.1038 124.193M63.1038 124.193C52.7438 123.263 44.6638 126.253 22.7038 124.193M63.1038 124.193C49.7538 125.223 38.1038 125.193 22.7038 124.193M22.7038 124.193C8.05377 124.603 0.883764 116.603 2.50376 103.993M22.7038 124.193C9.42377 122.893 0.883764 118.123 2.50376 103.993M2.50376 103.993C0.823764 72.103 1.83376 41.343 2.50376 22.443M2.50376 103.993C2.31376 82.993 1.79376 63.583 2.50376 22.443" stroke="#1E1E1E" stroke-width="2" stroke-linecap="round"/>
<path d="M11.3191 90.4656C22.3091 90.4656 66.2891 90.4656 77.2791 90.4656" stroke="#1E1E1E" stroke-width="2" stroke-linecap="round"/>
<path d="M10.5879 106.063C10.5779 105.163 10.5579 101.553 10.5479 100.653" stroke="#1E1E1E" stroke-linecap="round"/>
<path d="M10.5157 100.855C10.7657 100.495 11.7757 99.0754 12.0257 98.7154" stroke="#1E1E1E" stroke-linecap="round"/>
<path d="M13.5186 106.127C13.5286 105.227 13.5486 101.617 13.5586 100.717" stroke="#1E1E1E" stroke-linecap="round"/>
<path d="M13.5906 100.92C13.3406 100.56 12.3306 99.1396 12.0806 98.7796" stroke="#1E1E1E" stroke-linecap="round"/>
<path d="M8.37549 106.613C9.55549 106.593 14.2555 106.513 15.4255 106.493" stroke="#1E1E1E" stroke-linecap="round"/>
<path d="M12.234 106.703C12.244 107.333 12.284 109.873 12.294 110.503" stroke="#1E1E1E" stroke-linecap="round"/>
<path d="M53.6453 101.785C54.0053 101.415 55.4453 99.9146 55.8053 99.5346" stroke="#1E1E1E" stroke-linecap="round"/>
<path d="M55.8008 99.4944C56.2008 99.8244 57.7808 101.144 58.1808 101.474" stroke="#1E1E1E" stroke-linecap="round"/>
<path d="M58.2706 101.74C57.5806 102.8 54.8306 107.05 54.1406 108.12" stroke="#1E1E1E" stroke-linecap="round"/>
<path d="M53.7126 101.785C53.3526 101.415 51.9126 99.9146 51.5526 99.5346" stroke="#1E1E1E" stroke-linecap="round"/>
<path d="M51.5571 99.4944C51.1571 99.8244 49.5771 101.144 49.1771 101.474" stroke="#1E1E1E" stroke-linecap="round"/>
<path d="M49.0873 101.74C49.7773 102.8 52.5273 107.05 53.2173 108.12" stroke="#1E1E1E" stroke-linecap="round"/>
<path d="M24.0313 2.12982C35.2213 2.12982 46.4213 2.12982 60.4213 2.12982C62.9013 2.12982 64.1513 3.36982 64.1513 5.85982C64.1513 7.56982 64.1513 9.28982 64.1513 13.3098C64.1513 15.7898 62.9013 17.0298 60.4213 17.0298C52.9013 17.0298 45.3913 17.0298 24.0313 17.0298C21.5413 17.0298 20.3013 15.7898 20.3013 13.3098C20.3013 11.1198 20.3013 8.93982 20.3013 5.85982C20.3013 3.36982 21.5413 2.12982 24.0313 2.12982Z" fill="white"/>
<path d="M24.0313 2.12982C31.9613 2.12982 39.9013 2.12982 60.4213 2.12982M24.0313 2.12982C32.6613 2.12982 41.3013 2.12982 60.4213 2.12982M24.0313 2.12982C21.5413 2.12982 20.3013 3.36982 20.3013 5.85982M60.4213 2.12982C62.9013 2.12982 64.1513 3.36982 64.1513 5.85982M64.1513 5.85982C64.1513 7.43982 64.1513 9.02982 64.1513 13.3098M64.1513 5.85982C64.1513 7.76982 64.1513 9.68982 64.1513 13.3098M64.1513 13.3098C64.1513 15.7898 62.9013 17.0298 60.4213 17.0298M60.4213 17.0298C50.5513 17.0298 40.6713 17.0298 24.0313 17.0298M60.4213 17.0298C50.2313 17.0298 40.0413 17.0298 24.0313 17.0298M24.0313 17.0298C21.5413 17.0298 20.3013 15.7898 20.3013 13.3098M20.3013 13.3098C20.3013 11.7998 20.3013 10.2898 20.3013 5.85982M20.3013 13.3098C20.3013 11.3098 20.3013 9.30982 20.3013 5.85982" stroke="#1E1E1E" stroke-width="2" stroke-linecap="round"/>
<path d="M22.3067 12.4639V7.69786H23.039V12.4639H22.3067ZM22.679 6.90353C22.5363 6.90353 22.4132 6.85492 22.3098 6.7577C22.2084 6.66047 22.1578 6.5436 22.1578 6.40707C22.1578 6.27055 22.2084 6.15367 22.3098 6.05645C22.4132 5.95922 22.5363 5.91061 22.679 5.91061C22.8218 5.91061 22.9438 5.95922 23.0452 6.05645C23.1486 6.15367 23.2003 6.27055 23.2003 6.40707C23.2003 6.5436 23.1486 6.66047 23.0452 6.7577C22.9438 6.85492 22.8218 6.90353 22.679 6.90353ZM25.1125 9.59682V12.4639H24.3802V7.69786H25.0876V8.44255H25.1497C25.2614 8.20053 25.431 8.00608 25.6586 7.85921C25.8861 7.71028 26.1798 7.63581 26.5398 7.63581C26.8625 7.63581 27.1448 7.702 27.3869 7.83439C27.6289 7.96471 27.8171 8.16329 27.9516 8.43014C28.086 8.69492 28.1533 9.03003 28.1533 9.43547V12.4639H27.421V9.48512C27.421 9.1107 27.3238 8.81903 27.1293 8.61011C26.9349 8.39911 26.668 8.29361 26.3288 8.29361C26.095 8.29361 25.8861 8.34429 25.702 8.44565C25.52 8.54702 25.3762 8.69492 25.2707 8.88936C25.1652 9.08381 25.1125 9.31963 25.1125 9.59682ZM31.5641 7.69786V8.31844H29.0942V7.69786H31.5641ZM29.8141 6.55601H30.5464V11.0986C30.5464 11.3055 30.5763 11.4606 30.6363 11.564C30.6984 11.6654 30.777 11.7337 30.8722 11.7688C30.9694 11.8019 31.0718 11.8185 31.1793 11.8185C31.26 11.8185 31.3262 11.8143 31.3779 11.8061C31.4296 11.7957 31.471 11.7874 31.502 11.7812L31.651 12.439C31.6013 12.4577 31.532 12.4763 31.4431 12.4949C31.3541 12.5156 31.2414 12.5259 31.1049 12.5259C30.898 12.5259 30.6953 12.4815 30.4967 12.3925C30.3002 12.3036 30.1368 12.1681 30.0065 11.986C29.8782 11.804 29.8141 11.5744 29.8141 11.2972V6.55601ZM32.8673 12.4639V6.1092H35.0145C35.513 6.1092 35.9205 6.19918 36.237 6.37915C36.5556 6.55704 36.7914 6.79803 36.9445 7.10211C37.0975 7.40619 37.1741 7.74544 37.1741 8.11985C37.1741 8.49427 37.0975 8.83455 36.9445 9.1407C36.7935 9.44685 36.5597 9.69094 36.2432 9.87297C35.9267 10.0529 35.5213 10.1429 35.0269 10.1429H33.4879V9.46029H35.0021C35.3434 9.46029 35.6175 9.40134 35.8243 9.28343C36.0312 9.16552 36.1812 9.00624 36.2742 8.80559C36.3694 8.60287 36.417 8.37429 36.417 8.11985C36.417 7.86542 36.3694 7.63788 36.2742 7.43722C36.1812 7.23657 36.0302 7.07936 35.8212 6.96559C35.6123 6.84975 35.3351 6.79183 34.9897 6.79183H33.6368V12.4639H32.8673ZM39.7169 12.5756C39.4149 12.5756 39.1408 12.5187 38.8946 12.4049C38.6485 12.2891 38.453 12.1226 38.3082 11.9054C38.1634 11.6861 38.091 11.4213 38.091 11.111C38.091 10.838 38.1448 10.6166 38.2523 10.447C38.3599 10.2753 38.5037 10.1409 38.6836 10.0436C38.8636 9.94641 39.0622 9.87401 39.2794 9.82643C39.4986 9.77678 39.7189 9.73748 39.9403 9.70852C40.2299 9.67129 40.4647 9.64336 40.6446 9.62474C40.8267 9.60406 40.9591 9.56993 41.0418 9.52235C41.1266 9.47477 41.169 9.39203 41.169 9.27412V9.2493C41.169 8.94315 41.0852 8.70526 40.9177 8.53564C40.7522 8.36601 40.5009 8.2812 40.1637 8.2812C39.8141 8.2812 39.54 8.35774 39.3414 8.51082C39.1428 8.66389 39.0032 8.82731 38.9225 9.00107L38.2275 8.75284C38.3516 8.46324 38.5171 8.23776 38.724 8.07641C38.9329 7.913 39.1604 7.79922 39.4066 7.7351C39.6548 7.6689 39.8989 7.63581 40.1389 7.63581C40.2919 7.63581 40.4678 7.65442 40.6664 7.69166C40.867 7.72682 41.0604 7.80026 41.2466 7.91196C41.4348 8.02367 41.591 8.19225 41.7151 8.41773C41.8392 8.6432 41.9013 8.94522 41.9013 9.32377V12.4639H41.169V11.8185H41.1318C41.0821 11.9219 40.9994 12.0326 40.8836 12.1505C40.7677 12.2684 40.6136 12.3687 40.4212 12.4515C40.2289 12.5342 39.9941 12.5756 39.7169 12.5756ZM39.8286 11.9178C40.1182 11.9178 40.3623 11.8609 40.5609 11.7471C40.7615 11.6333 40.9125 11.4865 41.0139 11.3065C41.1173 11.1265 41.169 10.9373 41.169 10.7387V10.0685C41.138 10.1057 41.0697 10.1398 40.9642 10.1708C40.8608 10.1998 40.7408 10.2257 40.6043 10.2484C40.4698 10.2691 40.3385 10.2877 40.2102 10.3043C40.0841 10.3188 39.9817 10.3312 39.9031 10.3415C39.7127 10.3663 39.5348 10.4067 39.3694 10.4625C39.2059 10.5163 39.0736 10.598 38.9722 10.7076C38.8729 10.8152 38.8233 10.9621 38.8233 11.1483C38.8233 11.4027 38.9174 11.5951 39.1056 11.7254C39.2959 11.8536 39.5369 11.9178 39.8286 11.9178ZM43.2379 12.4639V7.69786H43.9453V8.41773H43.995C44.0818 8.18191 44.239 7.99057 44.4666 7.8437C44.6941 7.69683 44.9506 7.6234 45.2361 7.6234C45.2899 7.6234 45.3571 7.62443 45.4378 7.6265C45.5185 7.62857 45.5795 7.63167 45.6209 7.63581V8.38049C45.596 8.37429 45.5391 8.36498 45.4502 8.35257C45.3633 8.33809 45.2713 8.33085 45.174 8.33085C44.9424 8.33085 44.7355 8.37946 44.5535 8.47668C44.3735 8.57184 44.2308 8.70423 44.1253 8.87385C44.0218 9.04141 43.9701 9.23275 43.9701 9.44788V12.4639H43.2379ZM48.8602 7.69786V8.31844H46.3904V7.69786H48.8602ZM47.1102 6.55601H47.8425V11.0986C47.8425 11.3055 47.8725 11.4606 47.9325 11.564C47.9945 11.6654 48.0732 11.7337 48.1683 11.7688C48.2655 11.8019 48.3679 11.8185 48.4755 11.8185C48.5562 11.8185 48.6224 11.8143 48.6741 11.8061C48.7258 11.7957 48.7672 11.7874 48.7982 11.7812L48.9471 12.439C48.8975 12.4577 48.8282 12.4763 48.7392 12.4949C48.6503 12.5156 48.5376 12.5259 48.401 12.5259C48.1942 12.5259 47.9914 12.4815 47.7929 12.3925C47.5963 12.3036 47.4329 12.1681 47.3026 11.986C47.1744 11.804 47.1102 11.5744 47.1102 11.2972V6.55601ZM51.9088 12.5632C51.4496 12.5632 51.0535 12.4618 50.7204 12.2591C50.3894 12.0543 50.134 11.7688 49.954 11.4027C49.7761 11.0345 49.6872 10.6063 49.6872 10.1181C49.6872 9.62992 49.7761 9.19965 49.954 8.82731C50.134 8.4529 50.3843 8.16123 50.7049 7.9523C51.0276 7.7413 51.4041 7.63581 51.8343 7.63581C52.0826 7.63581 52.3277 7.67718 52.5697 7.75992C52.8118 7.84266 53.0321 7.97712 53.2306 8.16329C53.4292 8.3474 53.5875 8.59149 53.7054 8.89557C53.8233 9.19965 53.8822 9.57406 53.8822 10.0188V10.3291H50.2084V9.69611H53.1376C53.1376 9.4272 53.0838 9.18724 52.9762 8.97625C52.8707 8.76525 52.7197 8.59873 52.5232 8.47668C52.3287 8.35464 52.0991 8.29361 51.8343 8.29361C51.5427 8.29361 51.2903 8.36601 51.0772 8.51082C50.8663 8.65355 50.7039 8.83972 50.5901 9.06933C50.4763 9.29894 50.4194 9.5451 50.4194 9.80781V10.2298C50.4194 10.5897 50.4815 10.8949 50.6056 11.1451C50.7318 11.3934 50.9066 11.5827 51.13 11.713C51.3534 11.8412 51.613 11.9054 51.9088 11.9054C52.1012 11.9054 52.275 11.8785 52.4301 11.8247C52.5873 11.7688 52.7228 11.6861 52.8366 11.5764C52.9503 11.4647 53.0383 11.3261 53.1003 11.1607L53.8078 11.3592C53.7333 11.5992 53.6082 11.8102 53.4323 11.9922C53.2565 12.1722 53.0393 12.3129 52.7807 12.4142C52.5221 12.5135 52.2315 12.5632 51.9088 12.5632ZM58.3721 8.76525L57.7143 8.95142C57.6729 8.84179 57.6119 8.73526 57.5312 8.63183C57.4526 8.52633 57.345 8.43945 57.2085 8.37119C57.072 8.30292 56.8972 8.26879 56.6841 8.26879C56.3925 8.26879 56.1494 8.33602 55.955 8.47048C55.7626 8.60287 55.6664 8.77146 55.6664 8.97625C55.6664 9.15828 55.7326 9.30205 55.865 9.40754C55.9974 9.51304 56.2042 9.60096 56.4855 9.67129L57.193 9.84505C57.6191 9.94848 57.9366 10.1067 58.1456 10.3198C58.3545 10.5308 58.459 10.8028 58.459 11.1358C58.459 11.4089 58.3804 11.653 58.2231 11.8681C58.068 12.0832 57.8508 12.2529 57.5715 12.377C57.2923 12.5011 56.9675 12.5632 56.5972 12.5632C56.1111 12.5632 55.7088 12.4577 55.3902 12.2467C55.0717 12.0357 54.87 11.7275 54.7852 11.322L55.4802 11.1483C55.5464 11.4048 55.6716 11.5971 55.8557 11.7254C56.0418 11.8536 56.2849 11.9178 56.5848 11.9178C56.9261 11.9178 57.1971 11.8454 57.3978 11.7006C57.6005 11.5537 57.7019 11.3779 57.7019 11.1731C57.7019 11.0076 57.6439 10.869 57.5281 10.7573C57.4123 10.6435 57.2344 10.5587 56.9944 10.5029L56.2001 10.3167C55.7636 10.2133 55.443 10.0529 55.2382 9.83574C55.0355 9.61647 54.9341 9.34238 54.9341 9.01348C54.9341 8.74456 55.0096 8.50668 55.1606 8.29982C55.3137 8.09296 55.5216 7.93058 55.7843 7.81267C56.0491 7.69476 56.349 7.63581 56.6841 7.63581C57.1558 7.63581 57.526 7.73924 57.795 7.94609C58.0659 8.15295 58.2583 8.426 58.3721 8.76525Z" fill="#1E1E1E"/>
<path d="M56.2217 44.776C57.9117 45.696 63.6617 51.536 66.7717 51.026C69.8817 50.516 73.5917 43.336 74.9017 41.736M55.5217 45.786C57.1317 46.736 63.3017 52.376 66.4717 51.536C69.6317 50.706 73.1517 42.396 74.4917 40.776" stroke="#1E1E1E" stroke-width="2" stroke-linecap="round"/>
<path d="M71.6723 46.3582C71.4323 45.2882 70.3223 41.0982 70.0123 39.9982M71.3223 46.9982C71.0323 45.8482 69.8323 40.5882 69.7023 39.4482" stroke="#1E1E1E" stroke-width="2" stroke-linecap="round"/>
<path d="M71.9362 46.3579C72.7762 46.4279 76.2162 46.4379 77.1662 46.4279M72.5462 46.1179C73.4762 46.2679 76.9962 46.7579 77.8362 46.8379" stroke="#1E1E1E" stroke-width="2" stroke-linecap="round"/>
<path d="M30.008 64.6339C28.388 63.5039 23.668 57.5539 20.558 58.1639C17.448 58.7839 12.758 66.6339 11.358 68.3439M30.808 64.0939C29.158 63.0139 23.368 57.8939 20.318 58.7039C17.268 59.5139 14.078 67.2339 12.508 68.9439" stroke="#1E1E1E" stroke-width="2" stroke-linecap="round"/>
<path d="M15.4375 63.0817C15.6875 64.2117 16.1575 68.8417 16.4075 70.0017M15.1375 63.7417C15.5175 64.9417 16.8075 69.3417 17.0975 70.4517" stroke="#1E1E1E" stroke-width="2" stroke-linecap="round"/>
<path d="M14.4836 63.652C13.5936 63.642 10.4736 63.422 9.60364 63.392M15.0136 63.342C14.0936 63.412 10.4836 63.942 9.48364 63.862" stroke="#1E1E1E" stroke-width="2" stroke-linecap="round"/>
<path fill-rule="evenodd" clip-rule="evenodd" d="M17.2034 29.8828L35.0093 35.2981L28.257 51.0964L9.74006 48.4585" fill="white"/>
<path d="M16.9159 30.3863C21.5115 31.3665 25.9728 31.6028 35.9416 35.0071M16.9159 30.3863C24.0448 32.3429 31.1733 33.9148 35.9416 35.0071M16.9159 30.3863C13.8456 37.3364 12.6992 42.6429 9.75973 48.9009M16.9159 30.3863C15.1873 35.1074 12.7477 42.2436 9.75973 48.9009M35.9416 35.0071C34.1761 40.7893 31.4619 46.1919 28.4331 52.0897M35.9416 35.0071C34.1763 38.4005 32.8937 42.5114 28.4331 52.0897M28.4331 52.0897C23.5362 50.3072 18.8992 50.5717 9.75973 48.9009M28.4331 52.0897C22.9884 51.5149 18.122 50.0671 9.75973 48.9009" stroke="#1E1E1E" stroke-width="2" stroke-linecap="round"/>
<path fill-rule="evenodd" clip-rule="evenodd" d="M21.3381 40.4614L31.0554 42.3464L28.2274 50.9905L17.6059 50.0043" fill="white"/>
<path d="M22.2704 40.1704C25.7382 40.9453 29.6034 42.4263 31.2315 43.3397M22.2704 40.1704C25.4761 41.39 29.0903 42.4834 31.2315 43.3397M22.2704 40.1704C21.0411 42.9738 19.5112 46.8535 18.4851 50.1038M22.2704 40.1704C20.6676 44.3606 19.5574 47.2819 18.4851 50.1038M31.2315 43.3397C30.654 45.5367 29.4624 47.1313 28.247 51.4329M31.2315 43.3397C30.508 45.6029 29.5688 47.4597 28.247 51.4329M28.247 51.4329C26.3956 51.272 23.9519 51.0404 18.4851 50.1038M28.247 51.4329C25.3487 50.8992 22.2957 50.6287 18.4851 50.1038" stroke="#1E1E1E" stroke-width="2" stroke-linecap="round"/>
<path d="M20.9773 45.5239C22.0184 46.9526 22.8584 48.3861 23.9825 50.6537ZM20.9773 45.5239C21.9063 47.1253 22.8391 48.8831 23.9825 50.6537Z" stroke="#1E1E1E" stroke-width="2" stroke-linecap="round"/>
<path d="M22.1067 41.238C23.4889 42.712 24.2318 44.7518 27.2356 50.5616ZM22.1067 41.238C23.3049 43.7946 24.9305 45.898 27.2356 50.5616Z" stroke="#1E1E1E" stroke-width="2" stroke-linecap="round"/>
<path d="M26.5486 42.3506C27.4349 43.8501 28.3221 45.7567 29.6386 48.0241ZM26.5486 42.3506C27.3593 43.6864 28.0666 44.9979 29.6386 48.0241Z" stroke="#1E1E1E" stroke-width="2" stroke-linecap="round"/>
<path d="M17.3543 38.5654C17.3839 38.4931 17.3859 38.3901 17.3911 38.4213C17.4005 38.439 17.4142 38.6355 17.4158 38.7026C17.4174 38.7696 17.4091 38.7967 17.3826 38.8107C17.3561 38.8248 17.2786 38.764 17.2703 38.7911C17.262 38.8181 17.2923 38.9605 17.3287 38.9865C17.3605 39.0036 17.5294 38.9593 17.4883 38.9245C17.4519 38.8985 17.0785 38.8136 17.105 38.7996C17.1227 38.7902 17.5579 38.8423 17.6249 38.8406C17.7008 38.8343 17.6249 38.8406 17.5344 38.7981C17.4392 38.7467 17.0798 38.496 17.045 38.5371M17.1614 38.5432C17.2015 38.5333 17.6696 38.8396 17.7414 38.8468C17.8043 38.8587 17.646 38.603 17.5701 38.6093C17.4895 38.6068 17.339 38.8565 17.272 38.8581C17.2096 38.8686 17.1631 38.6103 17.1771 38.6368C17.1824 38.6679 17.3287 38.9865 17.3298 39.0312C17.3356 39.0847 17.1083 38.9337 17.1889 38.9362C17.2783 38.934 17.7697 39.0921 17.844 39.0187C17.9229 38.9542 17.6814 38.5843 17.6527 38.5089C17.6152 38.4383 17.5955 38.5506 17.6631 38.5713C17.7219 38.5967 18.0589 38.6557 18.0277 38.6609" fill="white"/>
<path d="M17.6878 38.8525C17.7695 38.8998 17.7024 38.9014 17.639 38.8671C17.5755 38.8329 17.3305 38.6912 17.3071 38.647C17.2795 38.6164 17.4683 38.6521 17.4776 38.6697C17.4958 38.6827 17.3592 38.7666 17.3945 38.7478C17.4252 38.7202 17.7031 38.5614 17.6579 38.5401C17.6126 38.5188 17.1412 38.6332 17.1007 38.6207C17.0601 38.6083 17.3287 38.4318 17.4145 38.4655C17.4868 38.4951 17.5916 38.7564 17.602 38.8188C17.6078 38.8724 17.509 38.8569 17.4762 38.795C17.4434 38.7332 17.3604 38.4489 17.3916 38.4437M17.794 38.9886C17.7929 38.9439 17.4603 38.5091 17.4468 38.505C17.438 38.5097 17.7612 38.9268 17.7088 38.9773C17.6563 39.0278 17.1362 38.7943 17.1585 38.7938C17.1762 38.7844 17.7753 38.9533 17.8288 38.9475C17.8912 38.9371 17.5661 38.8152 17.5063 38.7451C17.46 38.6791 17.6345 38.4959 17.5232 38.521C17.4167 38.5549 16.9211 38.9651 16.8795 38.9079C16.8425 38.8596 17.196 38.3097 17.288 38.227C17.3846 38.1531 17.5018 38.3739 17.4587 38.4421C17.4156 38.5102 17.0949 38.5672 17.0289 38.6135" stroke="#1E1E1E" stroke-width="2" stroke-linecap="round"/>
<path d="M21.9379 36.8349C22.0565 36.3757 22.325 36.0069 22.7262 34.843ZM21.9379 36.8349C22.1391 36.2753 22.3668 35.7017 22.7262 34.843Z" stroke="#1E1E1E" stroke-linecap="round"/>
<path d="M21.2324 35.5338C21.9672 35.7665 22.6162 35.9655 23.4524 36.1331ZM21.2324 35.5338C21.6781 35.6483 22.1742 35.8152 23.4524 36.1331Z" stroke="#1E1E1E" stroke-linecap="round"/>
<path d="M51.9281 82.7787C49.1981 77.7387 48.5981 76.2287 47.6881 73.8187C48.7481 76.3587 49.8081 78.3587 51.9281 82.7787ZM51.9281 82.7787C51.0781 83.4487 49.9681 83.9387 47.5281 85.2587C49.2281 84.3287 50.6381 83.5187 51.9281 82.7787Z" stroke="#1E1E1E" stroke-width="2" stroke-linecap="round"/>
<path d="M64.3749 71.4549C65.1649 69.2849 66.5349 65.7649 68.6149 62.4949C67.4749 64.6449 66.2749 67.1649 64.3749 71.4549ZM64.3749 71.4549C65.3349 72.1049 66.4149 72.4149 68.7749 73.9349C67.3849 73.2449 65.8749 72.3149 64.3749 71.4549Z" stroke="#1E1E1E" stroke-width="2" stroke-linecap="round"/>
<path d="M42.7956 50.877C44.6818 50.6811 45.919 51.7403 49.2974 51.4824C53.6874 53.6286 52.0326 53.9265 52.2403 55.0405C52.2264 57.6706 51.2223 60.58 51.3985 64.0814C49.1595 65.3694 52.4868 67.8184 47.8494 67.0351C46.0086 66.3114 43.6715 66.0636 41.3475 66.4298C40.6171 67.1552 36.5055 65.2559 38.3948 62.8707C37.9974 60.343 39.9034 56.4831 39.2365 53.8298C40.1785 53.6363 38.0161 52.5914 42.7956 50.877Z" fill="white"/>
<path d="M42.7956 50.8771C45.0993 51.0514 47.5179 51.2866 49.2974 51.4824M42.7956 50.8771C45.1452 51.2063 47.6562 51.42 49.2974 51.4824M42.7956 50.8771C40.6726 51.2418 39.0559 51.1315 39.2365 53.8298M42.7956 50.8771C39.6844 50.6376 39.3365 51.5694 39.2365 53.8298M49.2974 51.4824C52.0342 51.5363 52.8033 52.9839 52.2403 55.0405M49.2974 51.4824C50.6416 52.0394 53.113 52.5708 52.2403 55.0405M52.2403 55.0405C52.3899 57.8565 51.5945 60.5745 51.3985 64.0814M52.2403 55.0405C51.923 58.5563 51.5937 61.7696 51.3985 64.0814M51.3985 64.0814C51.7131 65.9888 49.0709 66.9681 47.8494 67.0351M51.3985 64.0814C51.6469 65.1892 50.2718 66.7987 47.8494 67.0351M47.8494 67.0351C46.2855 66.7891 44.9793 66.6876 41.3475 66.4298M47.8494 67.0351C46.2292 66.8542 44.6245 66.6144 41.3475 66.4298M41.3475 66.4298C39.1879 65.355 38.3648 64.1635 38.3948 62.8707M41.3475 66.4298C39.0619 65.4135 38.6632 65.1655 38.3948 62.8707M38.3948 62.8707C38.9144 59.9865 38.9941 56.6495 39.2365 53.8298M38.3948 62.8707C38.7682 61.0174 38.7783 59.2909 39.2365 53.8298" stroke="#1E1E1E" stroke-width="2" stroke-linecap="round"/>
</svg>
