<svg width="85" height="127" viewBox="0 0 85 127" fill="none" xmlns="http://www.w3.org/2000/svg">
<path d="M21.967 2.39066C37.667 5.58066 45.447 5.87066 62.367 2.39066C74.297 1.85066 81.367 9.53066 82.567 22.5907C86.037 41.3707 85.327 64.4107 82.567 104.141C82.937 114.701 79.427 125.981 62.367 124.341C44.537 124.671 31.717 124.121 21.967 124.341C6.05698 124.311 4.51698 120.391 1.76698 104.141C4.53698 88.6807 3.33698 69.2807 1.76698 22.5907C0.406975 11.3007 10.467 3.13066 21.967 2.39066Z" fill="white"/>
<path d="M21.967 2.39068C29.317 0.530679 40.347 1.69068 62.367 2.39068M21.967 2.39068C29.467 3.43068 38.047 2.93068 62.367 2.39068M21.967 2.39068C8.617 1.71068 3.637 10.7507 1.767 22.5907M21.967 2.39068C7.207 4.58068 0.927003 9.02068 1.767 22.5907M62.367 2.39068C76.257 2.52068 81.067 10.1807 82.567 22.5907M62.367 2.39068C74.457 4.50068 81.877 8.59068 82.567 22.5907M82.567 22.5907C80.557 44.2007 82.407 68.6607 82.567 104.141M82.567 22.5907C81.177 45.4407 81.627 67.3007 82.567 104.141M82.567 104.141C82.937 116.741 75.437 122.771 62.367 124.341M82.567 104.141C81.767 119.441 76.037 125.511 62.367 124.341M62.367 124.341C50.407 126.331 40.927 123.771 21.967 124.341M62.367 124.341C49.867 124.301 37.787 125.651 21.967 124.341M21.967 124.341C7.857 124.951 3.117 116.331 1.767 104.141M21.967 124.341C9.667 122.511 0.477003 118.991 1.767 104.141M1.767 104.141C1.137 71.9207 2.217 42.3407 1.767 22.5907M1.767 104.141C2.907 82.4707 2.447 59.9907 1.767 22.5907" stroke="#1E1E1E" stroke-width="2" stroke-linecap="round"/>
<path d="M10.5823 90.6133C21.5723 90.6133 65.5523 90.6133 76.5423 90.6133" stroke="#1E1E1E" stroke-width="2" stroke-linecap="round"/>
<path d="M23.2946 2.27753C37.2546 2.27753 51.2246 2.27753 59.6846 2.27753C62.1646 2.27753 63.4146 3.51753 63.4146 6.00753C63.4146 7.96753 63.4146 9.93753 63.4146 13.4575C63.4146 15.9375 62.1646 17.1775 59.6846 17.1775C48.8746 17.1775 38.0646 17.1775 23.2946 17.1775C20.8046 17.1775 19.5646 15.9375 19.5646 13.4575C19.5646 10.7975 19.5646 8.14753 19.5646 6.00753C19.5646 3.51753 20.8046 2.27753 23.2946 2.27753Z" fill="white"/>
<path d="M23.2946 2.27753C31.2046 2.27753 39.1146 2.27753 59.6846 2.27753M23.2946 2.27753C36.7946 2.27753 50.3046 2.27753 59.6846 2.27753M23.2946 2.27753C20.8046 2.27753 19.5646 3.51753 19.5646 6.00753M59.6846 2.27753C62.1646 2.27753 63.4146 3.51753 63.4146 6.00753M63.4146 6.00753C63.4146 7.91753 63.4146 9.83753 63.4146 13.4575M63.4146 6.00753C63.4146 8.82753 63.4146 11.6475 63.4146 13.4575M63.4146 13.4575C63.4146 15.9375 62.1646 17.1775 59.6846 17.1775M59.6846 17.1775C45.3446 17.1775 31.0046 17.1775 23.2946 17.1775M59.6846 17.1775C50.3446 17.1775 40.9946 17.1775 23.2946 17.1775M23.2946 17.1775C20.8046 17.1775 19.5646 15.9375 19.5646 13.4575M19.5646 13.4575C19.5646 11.4275 19.5646 9.39753 19.5646 6.00753M19.5646 13.4575C19.5646 11.0775 19.5646 8.70753 19.5646 6.00753" stroke="#1E1E1E" stroke-width="2" stroke-linecap="round"/>
<path fill-rule="evenodd" clip-rule="evenodd" d="M40.0118 30.7866L38.2818 54.8566L19.4318 54.8266L42.5918 81.7666L63.5118 57.2566L46.5918 59.4766L54.0218 30.2766L41.0118 31.4066" fill="white"/>
<path d="M40.0218 29.2566C37.2518 35.2066 39.3718 43.2966 36.7318 56.5666M40.0218 29.2566C38.2718 38.5666 37.3718 47.7366 36.7318 56.5666M40.0218 29.2566C40.3718 29.5666 40.6218 29.8366 41.1418 29.9666M40.0218 29.2566C40.4218 29.4766 40.7818 29.7666 41.1418 29.9666M36.7318 56.5666C32.4818 54.6066 26.6818 54.8266 21.0218 54.6566M36.7318 56.5666C31.7318 56.1966 26.7618 56.0266 21.0218 54.6566M21.0218 54.6566C25.4318 60.6466 29.8418 66.7866 41.7018 80.6366M21.0218 54.6566C28.7218 64.0666 37.0318 74.0166 41.7018 80.6366M41.7018 80.6366C50.1418 71.5866 60.5118 61.8666 63.2918 57.1966M41.7018 80.6366C46.9018 74.7266 53.4418 67.7666 63.2918 57.1966M63.2918 57.1966C58.6518 58.8866 50.7118 59.0266 47.3418 58.2666M63.2918 57.1966C60.1718 57.1666 55.2518 56.9766 47.3418 58.2666M47.3418 58.2666C48.3518 50.0866 52.8618 38.2966 52.9218 29.8666M47.3418 58.2666C48.3718 51.6666 50.5718 42.5866 52.9218 29.8666M52.9218 29.8666C49.0118 31.0766 45.9118 29.8466 41.1418 29.9666M52.9218 29.8666C49.8918 29.9366 47.1618 29.6466 41.1418 29.9666" stroke="#1E1E1E" stroke-width="2" stroke-linecap="round"/>
<path d="M26.4929 12.897C26.0461 12.897 25.6613 12.7915 25.3386 12.5805C25.0159 12.3695 24.7677 12.0788 24.5939 11.7086C24.4202 11.3383 24.3333 10.9153 24.3333 10.4395C24.3333 9.95544 24.4222 9.52828 24.6001 9.15801C24.7801 8.78566 25.0304 8.49503 25.351 8.2861C25.6737 8.07511 26.0502 7.96961 26.4805 7.96961C26.8156 7.96961 27.1176 8.03167 27.3865 8.15578C27.6554 8.27989 27.8757 8.45366 28.0474 8.67706C28.2191 8.90047 28.3256 9.16111 28.367 9.45898H27.6347C27.5789 9.24178 27.4548 9.04941 27.2624 8.88185C27.0721 8.71223 26.8156 8.62742 26.4929 8.62742C26.2074 8.62742 25.9571 8.70188 25.742 8.85082C25.5289 8.99769 25.3624 9.20558 25.2424 9.4745C25.1245 9.74134 25.0656 10.0547 25.0656 10.4147C25.0656 10.7829 25.1235 11.1035 25.2393 11.3766C25.3572 11.6496 25.5227 11.8616 25.7358 12.0126C25.9509 12.1636 26.2033 12.2392 26.4929 12.2392C26.6832 12.2392 26.8559 12.2061 27.0111 12.1399C27.1662 12.0737 27.2976 11.9785 27.4051 11.8544C27.5127 11.7303 27.5892 11.5813 27.6347 11.4076H28.367C28.3256 11.6889 28.2232 11.9423 28.0598 12.1678C27.8985 12.3912 27.6844 12.5691 27.4175 12.7015C27.1528 12.8318 26.8445 12.897 26.4929 12.897ZM31.3737 12.897C30.9434 12.897 30.5659 12.7946 30.2411 12.5898C29.9184 12.385 29.6661 12.0985 29.484 11.7303C29.3041 11.3621 29.2141 10.9318 29.2141 10.4395C29.2141 9.94303 29.3041 9.50966 29.484 9.13939C29.6661 8.76911 29.9184 8.48158 30.2411 8.27679C30.5659 8.072 30.9434 7.96961 31.3737 7.96961C31.804 7.96961 32.1804 8.072 32.5031 8.27679C32.8279 8.48158 33.0803 8.76911 33.2602 9.13939C33.4423 9.50966 33.5333 9.94303 33.5333 10.4395C33.5333 10.9318 33.4423 11.3621 33.2602 11.7303C33.0803 12.0985 32.8279 12.385 32.5031 12.5898C32.1804 12.7946 31.804 12.897 31.3737 12.897ZM31.3737 12.2392C31.7005 12.2392 31.9694 12.1554 32.1804 11.9878C32.3914 11.8203 32.5476 11.6 32.649 11.3269C32.7503 11.0539 32.801 10.7581 32.801 10.4395C32.801 10.1209 32.7503 9.82409 32.649 9.54897C32.5476 9.27385 32.3914 9.05147 32.1804 8.88185C31.9694 8.71223 31.7005 8.62742 31.3737 8.62742C31.0469 8.62742 30.7779 8.71223 30.5669 8.88185C30.356 9.05147 30.1998 9.27385 30.0984 9.54897C29.9971 9.82409 29.9464 10.1209 29.9464 10.4395C29.9464 10.7581 29.9971 11.0539 30.0984 11.3269C30.1998 11.6 30.356 11.8203 30.5669 11.9878C30.7779 12.1554 31.0469 12.2392 31.3737 12.2392ZM35.3834 9.93062V12.7977H34.6511V8.03167H35.3585V8.77635H35.4206C35.5323 8.53433 35.7019 8.33988 35.9295 8.19301C36.157 8.04408 36.4508 7.96961 36.8107 7.96961C37.1334 7.96961 37.4157 8.0358 37.6578 8.16819C37.8998 8.29851 38.088 8.4971 38.2225 8.76394C38.357 9.02872 38.4242 9.36383 38.4242 9.76927V12.7977H37.6919V9.81892C37.6919 9.4445 37.5947 9.15283 37.4002 8.94391C37.2058 8.73291 36.9389 8.62742 36.5997 8.62742C36.3659 8.62742 36.157 8.6781 35.9729 8.77946C35.7909 8.88082 35.6471 9.02872 35.5416 9.22317C35.4361 9.41761 35.3834 9.65343 35.3834 9.93062ZM41.835 8.03167V8.65224H39.3651V8.03167H41.835ZM40.085 6.88981H40.8173V11.4324C40.8173 11.6393 40.8473 11.7944 40.9072 11.8978C40.9693 11.9992 41.0479 12.0675 41.1431 12.1026C41.2403 12.1357 41.3427 12.1523 41.4503 12.1523C41.5309 12.1523 41.5971 12.1481 41.6488 12.1399C41.7005 12.1295 41.7419 12.1212 41.7729 12.115L41.9219 12.7728C41.8722 12.7915 41.8029 12.8101 41.714 12.8287C41.625 12.8494 41.5123 12.8597 41.3758 12.8597C41.1689 12.8597 40.9662 12.8153 40.7676 12.7263C40.5711 12.6374 40.4077 12.5019 40.2774 12.3198C40.1491 12.1378 40.085 11.9082 40.085 11.631V6.88981ZM42.9365 12.7977V8.03167H43.6688V12.7977H42.9365ZM43.3089 7.23733C43.1661 7.23733 43.0431 7.18872 42.9396 7.0915C42.8383 6.99427 42.7876 6.8774 42.7876 6.74087C42.7876 6.60435 42.8383 6.48747 42.9396 6.39025C43.0431 6.29303 43.1661 6.24441 43.3089 6.24441C43.4516 6.24441 43.5736 6.29303 43.675 6.39025C43.7784 6.48747 43.8301 6.60435 43.8301 6.74087C43.8301 6.8774 43.7784 6.99427 43.675 7.0915C43.5736 7.18872 43.4516 7.23733 43.3089 7.23733ZM45.7423 9.93062V12.7977H45.01V8.03167H45.7175V8.77635H45.7795C45.8912 8.53433 46.0609 8.33988 46.2884 8.19301C46.5159 8.04408 46.8097 7.96961 47.1696 7.96961C47.4923 7.96961 47.7747 8.0358 48.0167 8.16819C48.2587 8.29851 48.447 8.4971 48.5814 8.76394C48.7159 9.02872 48.7831 9.36383 48.7831 9.76927V12.7977H48.0508V9.81892C48.0508 9.4445 47.9536 9.15283 47.7592 8.94391C47.5647 8.73291 47.2979 8.62742 46.9586 8.62742C46.7249 8.62742 46.5159 8.6781 46.3318 8.77946C46.1498 8.88082 46.006 9.02872 45.9005 9.22317C45.795 9.41761 45.7423 9.65343 45.7423 9.93062ZM53.1248 10.8491V8.03167H53.8571V12.7977H53.1248V11.9909H53.0751C52.9634 12.2329 52.7897 12.4388 52.5539 12.6084C52.318 12.7759 52.0202 12.8597 51.6602 12.8597C51.3624 12.8597 51.0976 12.7946 50.8659 12.6642C50.6342 12.5319 50.4522 12.3333 50.3198 12.0685C50.1874 11.8016 50.1212 11.4655 50.1212 11.0601V8.03167H50.8535V11.0104C50.8535 11.3579 50.9507 11.6351 51.1452 11.842C51.3417 12.0488 51.592 12.1523 51.896 12.1523C52.0781 12.1523 52.2632 12.1057 52.4515 12.0126C52.6418 11.9196 52.8011 11.7768 52.9293 11.5844C53.0596 11.3921 53.1248 11.1469 53.1248 10.8491ZM57.1965 12.897C56.7373 12.897 56.3412 12.7956 56.0081 12.5929C55.6772 12.3881 55.4217 12.1026 55.2417 11.7365C55.0638 11.3683 54.9749 10.9401 54.9749 10.4519C54.9749 9.96372 55.0638 9.53345 55.2417 9.16111C55.4217 8.7867 55.672 8.49503 55.9926 8.2861C56.3153 8.07511 56.6918 7.96961 57.1221 7.96961C57.3703 7.96961 57.6154 8.01098 57.8574 8.09372C58.0995 8.17647 58.3198 8.31092 58.5183 8.4971C58.7169 8.6812 58.8752 8.92529 58.9931 9.22937C59.111 9.53345 59.1699 9.90787 59.1699 10.3526V10.6629H55.4961V10.0299H58.4253C58.4253 9.761 58.3715 9.52104 58.2639 9.31005C58.1584 9.09905 58.0074 8.93253 57.8109 8.81049C57.6164 8.68844 57.3868 8.62742 57.1221 8.62742C56.8304 8.62742 56.578 8.69982 56.365 8.84462C56.154 8.98735 55.9916 9.17352 55.8778 9.40313C55.764 9.63274 55.7071 9.87891 55.7071 10.1416V10.5636C55.7071 10.9235 55.7692 11.2287 55.8933 11.479C56.0195 11.7272 56.1943 11.9165 56.4177 12.0468C56.6411 12.175 56.9007 12.2392 57.1965 12.2392C57.3889 12.2392 57.5627 12.2123 57.7178 12.1585C57.875 12.1026 58.0105 12.0199 58.1243 11.9102C58.238 11.7985 58.326 11.66 58.388 11.4945L59.0955 11.693C59.021 11.933 58.8959 12.144 58.72 12.326C58.5442 12.506 58.327 12.6467 58.0684 12.748C57.8099 12.8473 57.5192 12.897 57.1965 12.897Z" fill="#1E1E1E"/>
</svg>
