<svg width="85" height="125" viewBox="0 0 85 125" fill="none" xmlns="http://www.w3.org/2000/svg">
<path d="M22.8103 1.4673C31.8303 1.1973 42.6103 -0.702701 63.2103 1.4673C75.6303 4.6473 83.8303 11.5373 83.4103 21.6673C85.5603 54.2273 81.0503 85.4073 83.4103 103.217C84.8903 117.257 79.9803 126.347 63.2103 123.417C51.9903 122.397 38.9203 121.427 22.8103 123.417C10.9603 123.537 2.58028 117.757 2.61028 103.217C3.62028 88.8973 6.84028 68.1273 2.61028 21.6673C2.86028 6.8673 6.13028 2.3773 22.8103 1.4673Z" fill="white"/>
<path d="M22.8103 1.46731C37.0703 2.97731 50.2603 0.0773122 63.2103 1.46731M22.8103 1.46731C38.1703 1.73731 50.6703 1.26731 63.2103 1.46731M22.8103 1.46731C8.87029 -0.00268784 3.67029 8.11731 2.61029 21.6673M22.8103 1.46731C11.6303 2.72731 1.77029 10.4773 2.61029 21.6673M63.2103 1.46731C74.9803 1.39731 82.4503 6.23731 83.4103 21.6673M63.2103 1.46731C74.6303 0.987312 84.6303 9.33731 83.4103 21.6673M83.4103 21.6673C81.5703 50.3473 81.9503 79.9773 83.4103 103.217M83.4103 21.6673C82.3203 41.1573 83.8903 61.3973 83.4103 103.217M83.4103 103.217C81.5003 115.457 75.6103 122.987 63.2103 123.417M83.4103 103.217C83.6103 116.227 75.1603 125.267 63.2103 123.417M63.2103 123.417C53.7503 123.427 41.3003 124.417 22.8103 123.417M63.2103 123.417C47.4003 123.797 30.8803 123.217 22.8103 123.417M22.8103 123.417C8.20029 121.977 3.92029 117.777 2.61029 103.217M22.8103 123.417C9.44029 124.967 3.61029 114.607 2.61029 103.217M2.61029 103.217C0.760289 85.8873 2.41029 66.7273 2.61029 21.6673M2.61029 103.217C2.79029 72.3973 3.30029 42.8973 2.61029 21.6673" stroke="#1E1E1E" stroke-width="2" stroke-linecap="round"/>
<path d="M11.4256 89.6898C22.4156 89.6898 66.3956 89.6898 77.3856 89.6898" stroke="#1E1E1E" stroke-width="2" stroke-linecap="round"/>
<path d="M10.6943 105.287C10.6843 104.387 10.6643 100.777 10.6543 99.8769" stroke="#1E1E1E" stroke-linecap="round"/>
<path d="M10.6223 100.08C10.8723 99.7197 11.8823 98.2997 12.1323 97.9397" stroke="#1E1E1E" stroke-linecap="round"/>
<path d="M13.6251 105.351C13.6351 104.451 13.6551 100.841 13.6651 99.9411" stroke="#1E1E1E" stroke-linecap="round"/>
<path d="M13.6971 100.144C13.4471 99.7839 12.4371 98.3639 12.1871 98.0039" stroke="#1E1E1E" stroke-linecap="round"/>
<path d="M8.48206 105.837C9.66206 105.817 14.3621 105.737 15.5321 105.717" stroke="#1E1E1E" stroke-linecap="round"/>
<path d="M12.3406 105.928C12.3506 106.558 12.3906 109.098 12.4006 109.728" stroke="#1E1E1E" stroke-linecap="round"/>
<path d="M53.7518 101.009C54.1118 100.639 55.5518 99.1389 55.9118 98.7589" stroke="#1E1E1E" stroke-linecap="round"/>
<path d="M55.9073 98.7187C56.3073 99.0487 57.8873 100.369 58.2873 100.699" stroke="#1E1E1E" stroke-linecap="round"/>
<path d="M58.3772 100.964C57.6872 102.024 54.9372 106.274 54.2472 107.344" stroke="#1E1E1E" stroke-linecap="round"/>
<path d="M53.8192 101.009C53.4592 100.639 52.0192 99.1389 51.6592 98.7589" stroke="#1E1E1E" stroke-linecap="round"/>
<path d="M51.6637 98.7187C51.2637 99.0487 49.6837 100.369 49.2837 100.699" stroke="#1E1E1E" stroke-linecap="round"/>
<path d="M49.1938 100.964C49.8838 102.024 52.6338 106.274 53.3238 107.344" stroke="#1E1E1E" stroke-linecap="round"/>
<path d="M24.1378 1.35413C36.1478 1.35413 48.1578 1.35413 60.5278 1.35413C63.0078 1.35413 64.2578 2.59413 64.2578 5.08413C64.2578 7.50413 64.2578 9.92413 64.2578 12.5341C64.2578 15.0141 63.0078 16.2541 60.5278 16.2541C53.0878 16.2541 45.6378 16.2541 24.1378 16.2541C21.6478 16.2541 20.4078 15.0141 20.4078 12.5341C20.4078 10.9341 20.4078 9.34413 20.4078 5.08413C20.4078 2.59413 21.6478 1.35413 24.1378 1.35413Z" fill="white"/>
<path d="M24.1378 1.35413C32.7078 1.35413 41.2778 1.35413 60.5278 1.35413M24.1378 1.35413C34.2778 1.35413 44.4178 1.35413 60.5278 1.35413M24.1378 1.35413C21.6478 1.35413 20.4078 2.59413 20.4078 5.08413M60.5278 1.35413C63.0078 1.35413 64.2578 2.59413 64.2578 5.08413M64.2578 5.08413C64.2578 7.51413 64.2578 9.95413 64.2578 12.5341M64.2578 5.08413C64.2578 7.72413 64.2578 10.3741 64.2578 12.5341M64.2578 12.5341C64.2578 15.0141 63.0078 16.2541 60.5278 16.2541M60.5278 16.2541C50.8778 16.2541 41.2278 16.2541 24.1378 16.2541M60.5278 16.2541C52.2778 16.2541 44.0278 16.2541 24.1378 16.2541M24.1378 16.2541C21.6478 16.2541 20.4078 15.0141 20.4078 12.5341M20.4078 12.5341C20.4078 9.60413 20.4078 6.67413 20.4078 5.08413M20.4078 12.5341C20.4078 10.2441 20.4078 7.96413 20.4078 5.08413" stroke="#1E1E1E" stroke-width="2" stroke-linecap="round"/>
<path d="M33.6079 7.6029L32.9501 7.78907C32.9087 7.67943 32.8477 7.5729 32.767 7.46947C32.6884 7.36398 32.5808 7.2771 32.4443 7.20883C32.3078 7.14057 32.133 7.10644 31.9199 7.10644C31.6282 7.10644 31.3852 7.17367 31.1907 7.30812C30.9984 7.44051 30.9022 7.6091 30.9022 7.81389C30.9022 7.99593 30.9684 8.13969 31.1008 8.24519C31.2331 8.35069 31.44 8.4386 31.7213 8.50893L32.4288 8.68269C32.8549 8.78612 33.1724 8.94437 33.3814 9.15743C33.5903 9.36843 33.6948 9.64045 33.6948 9.97349C33.6948 10.2465 33.6161 10.4906 33.4589 10.7058C33.3038 10.9209 33.0866 11.0905 32.8073 11.2146C32.5281 11.3387 32.2033 11.4008 31.833 11.4008C31.3469 11.4008 30.9446 11.2953 30.626 11.0843C30.3075 10.8733 30.1058 10.5651 30.021 10.1597L30.716 9.9859C30.7822 10.2424 30.9073 10.4348 31.0915 10.563C31.2776 10.6913 31.5207 10.7554 31.8206 10.7554C32.1619 10.7554 32.4329 10.683 32.6336 10.5382C32.8363 10.3913 32.9377 10.2155 32.9377 10.0107C32.9377 9.84523 32.8797 9.70664 32.7639 9.59494C32.6481 9.48117 32.4702 9.39635 32.2302 9.3405L31.4359 9.15433C30.9994 9.0509 30.6788 8.89059 30.474 8.67339C30.2713 8.45412 30.1699 8.18003 30.1699 7.85113C30.1699 7.58221 30.2454 7.34432 30.3964 7.13747C30.5495 6.93061 30.7574 6.76823 31.0201 6.65032C31.2849 6.53241 31.5848 6.47345 31.9199 6.47345C32.3916 6.47345 32.7618 6.57688 33.0307 6.78374C33.3017 6.9906 33.4941 7.26365 33.6079 7.6029ZM35.8768 11.3015L34.4247 6.53551H35.1942L36.2244 10.1845H36.274L37.2918 6.53551H38.0737L39.079 10.1721H39.1286L40.1588 6.53551H40.9283L39.4762 11.3015H38.7563L37.7137 7.64013H37.6393L36.5967 11.3015H35.8768ZM41.8964 11.3015V6.53551H42.6287V11.3015H41.8964ZM42.2688 5.74118C42.126 5.74118 42.0029 5.69257 41.8995 5.59534C41.7981 5.49812 41.7475 5.38124 41.7475 5.24472C41.7475 5.10819 41.7981 4.99132 41.8995 4.89409C42.0029 4.79687 42.126 4.74826 42.2688 4.74826C42.4115 4.74826 42.5335 4.79687 42.6349 4.89409C42.7383 4.99132 42.79 5.10819 42.79 5.24472C42.79 5.38124 42.7383 5.49812 42.6349 5.59534C42.5335 5.69257 42.4115 5.74118 42.2688 5.74118ZM46.0426 6.53551V7.15608H43.5727V6.53551H46.0426ZM44.2926 5.39366H45.0249V9.93625C45.0249 10.1431 45.0549 10.2983 45.1149 10.4017C45.1769 10.503 45.2555 10.5713 45.3507 10.6065C45.4479 10.6396 45.5503 10.6561 45.6579 10.6561C45.7385 10.6561 45.8047 10.652 45.8564 10.6437C45.9082 10.6334 45.9495 10.6251 45.9806 10.6189L46.1295 11.2767C46.0798 11.2953 46.0105 11.3139 45.9216 11.3325C45.8327 11.3532 45.7199 11.3636 45.5834 11.3636C45.3765 11.3636 45.1738 11.3191 44.9752 11.2301C44.7787 11.1412 44.6153 11.0057 44.485 10.8237C44.3567 10.6416 44.2926 10.412 44.2926 10.1348V5.39366ZM49.0291 11.4008C48.5823 11.4008 48.1976 11.2953 47.8749 11.0843C47.5522 10.8733 47.3039 10.5827 47.1302 10.2124C46.9564 9.84213 46.8695 9.41911 46.8695 8.94334C46.8695 8.45929 46.9585 8.03213 47.1364 7.66185C47.3163 7.28951 47.5666 6.99887 47.8873 6.78995C48.21 6.57895 48.5864 6.47345 49.0167 6.47345C49.3518 6.47345 49.6538 6.53551 49.9227 6.65963C50.1917 6.78374 50.412 6.9575 50.5837 7.18091C50.7553 7.40431 50.8619 7.66495 50.9033 7.96283H50.171C50.1151 7.74563 49.991 7.55325 49.7986 7.3857C49.6083 7.21607 49.3518 7.13126 49.0291 7.13126C48.7437 7.13126 48.4934 7.20573 48.2782 7.35467C48.0652 7.50154 47.8986 7.70943 47.7787 7.97834C47.6608 8.24519 47.6018 8.55858 47.6018 8.91851C47.6018 9.28672 47.6597 9.60735 47.7756 9.8804C47.8935 10.1535 48.059 10.3655 48.272 10.5165C48.4872 10.6675 48.7395 10.743 49.0291 10.743C49.2194 10.743 49.3922 10.7099 49.5473 10.6437C49.7024 10.5775 49.8338 10.4824 49.9414 10.3582C50.0489 10.2341 50.1255 10.0852 50.171 9.91143H50.9033C50.8619 10.1928 50.7595 10.4462 50.5961 10.6716C50.4347 10.895 50.2206 11.0729 49.9538 11.2053C49.689 11.3356 49.3808 11.4008 49.0291 11.4008ZM52.706 8.43447V11.3015H51.9737V4.94684H52.706V7.2802H52.7681C52.8798 7.03404 53.0473 6.83856 53.2707 6.69376C53.4962 6.54689 53.7962 6.47345 54.1706 6.47345C54.4953 6.47345 54.7798 6.53861 55.0239 6.66893C55.268 6.79719 55.4572 6.99473 55.5917 7.26158C55.7282 7.52636 55.7965 7.86354 55.7965 8.27312V11.3015H55.0642V8.32276C55.0642 7.94421 54.9659 7.65151 54.7694 7.44465C54.575 7.23572 54.305 7.13126 53.9596 7.13126C53.7196 7.13126 53.5045 7.18194 53.3142 7.2833C53.1259 7.38466 52.977 7.53257 52.8674 7.72701C52.7598 7.92146 52.706 8.15728 52.706 8.43447Z" fill="#1E1E1E"/>
<path d="M30.9492 69.8718C30.2192 69.2618 27.0592 68.1218 26.0492 65.6818C25.0392 63.2518 26.6092 59.4918 24.8992 55.2718C23.1892 51.0518 17.3992 42.7218 15.7992 40.3518M32.8092 68.6918C32.0292 68.3218 26.0592 69.6418 25.1592 67.1018C24.2492 64.5518 28.9492 57.7318 27.3792 53.4418C25.8092 49.1418 17.4792 43.2618 15.7392 41.3018" stroke="#1E1E1E" stroke-linecap="round"/>
<path d="M40.5674 61.9198C40.1774 60.2698 38.4074 55.4098 37.8774 52.0298C37.3374 48.6398 38.8474 43.9198 37.3674 41.5998C35.8874 39.2698 30.2774 38.7698 28.9774 38.0798M39.9274 61.3898C39.7374 59.6098 39.4274 54.4998 38.9174 51.2898C38.4174 48.0798 38.5674 44.2298 36.8874 42.1298C35.2074 40.0298 30.1674 39.4698 28.8374 38.6898" stroke="#1E1E1E" stroke-linecap="round"/>
<path d="M47.366 62.2251C47.776 59.5451 48.836 50.0851 50.216 45.5651C51.596 41.0351 54.646 36.9351 55.646 35.0851M48.176 61.9851C48.766 59.3851 49.896 50.8351 51.316 46.1951C52.736 41.5451 55.866 36.0251 56.706 34.1151" stroke="#1E1E1E" stroke-linecap="round"/>
<path d="M62.2267 65.7431C62.8867 63.7131 65.1267 57.9131 66.0967 54.1731C67.0567 50.4431 67.6367 44.9831 68.0067 43.3431M63.0967 65.1931C63.9467 62.9631 66.3067 56.8931 67.0767 53.3131C67.8467 49.7331 67.4567 45.3631 67.7067 43.7131" stroke="#1E1E1E" stroke-linecap="round"/>
<path d="M62.0067 72.799C63.9567 71.459 74.1267 68.159 73.8867 64.479C73.6467 60.789 62.8667 53.019 60.5667 50.679M62.7567 72.419C64.6667 71.159 73.8967 68.709 73.5067 64.949C73.1167 61.199 62.6467 52.479 60.4167 49.889" stroke="#1E1E1E" stroke-linecap="round"/>
<path d="M35.1637 61.9065C45.9737 61.5365 54.4037 64.4265 58.2837 61.9065C59.1937 58.4665 64.6937 62.3265 62.3137 65.9465C63.2337 67.4165 63.4137 68.9265 62.3137 74.0165C65.0337 73.6065 63.9937 80.1965 58.2837 78.0465C52.5137 75.7665 43.9037 75.2865 35.1637 78.0465C29.8637 80.8765 30.3237 76.8965 31.1237 74.0165C30.0037 71.9065 31.7237 68.6865 31.1237 65.9465C29.7637 62.8465 30.1937 61.2965 35.1637 61.9065Z" fill="white"/>
<path d="M35.1637 61.9065C38.4637 63.2265 46.8937 61.4365 58.2837 61.9065M35.1637 61.9065C43.1837 61.4565 50.9937 61.1565 58.2837 61.9065M35.1637 61.9065C32.6037 61.1665 32.9737 62.1565 31.1237 65.9465M35.1637 61.9065C34.0137 63.9265 29.0737 63.8365 31.1237 65.9465M58.2837 61.9065C62.2837 63.0065 62.4037 64.6065 62.3137 65.9465M58.2837 61.9065C61.9737 59.8365 60.7637 64.5665 62.3137 65.9465M62.3137 65.9465C62.3737 69.0665 62.8037 70.5465 62.3137 74.0165M62.3137 65.9465C62.3537 68.5265 62.5037 71.4865 62.3137 74.0165M62.3137 74.0165C61.8437 75.2365 60.2437 80.0265 58.2837 78.0465M62.3137 74.0165C64.6037 77.9665 58.9337 76.6365 58.2837 78.0465M58.2837 78.0465C52.7537 76.8465 43.6337 79.7965 35.1637 78.0465M58.2837 78.0465C50.6737 79.1865 44.6437 78.4765 35.1637 78.0465M35.1637 78.0465C31.4937 78.1765 31.9437 77.0165 31.1237 74.0165M35.1637 78.0465C34.5837 79.9165 30.4037 76.8765 31.1237 74.0165M31.1237 74.0165C30.5537 71.2165 31.4937 69.3165 31.1237 65.9465M31.1237 74.0165C30.8537 71.7465 31.1137 69.4365 31.1237 65.9465" stroke="#1E1E1E" stroke-linecap="round"/>
<path d="M28.2302 34.4809C29.3716 35.2444 30.2305 34.8262 31.7554 35.8453C34.0911 36.1273 31.985 36.2772 32.4336 37.3623C32.4887 37.8018 32.2649 38.38 31.589 39.5446C32.5792 42.2225 30.8284 42.4241 30.0663 40.2098C29.26 39.5225 27.5763 39.5785 26.5411 38.8455C25.3004 38.5047 26.4603 36.616 25.8722 37.332C26.3249 36.4671 26.4726 35.5592 26.7168 35.1498C25.8055 33.5425 26.3658 36.1398 28.2302 34.4809Z" fill="white"/>
<path d="M28.2302 34.481C29.485 34.9237 30.5322 35.4041 31.7554 35.8453M28.2302 34.481C29.3265 34.8624 30.482 35.3953 31.7554 35.8453M28.2302 34.481C26.8912 34.145 27.1352 34.2073 26.7168 35.1498M28.2302 34.481C27.828 34.8829 27.2321 35.2313 26.7168 35.1498M31.7554 35.8453C32.3484 36.5573 33.2021 36.18 32.4336 37.3623M31.7554 35.8453C31.8484 36.3531 33.0276 36.1876 32.4336 37.3623M32.4336 37.3623C32.177 38.1638 31.8263 39.0145 31.589 39.5446M32.4336 37.3623C32.2754 37.8265 32.0778 38.254 31.589 39.5446M31.589 39.5446C30.8361 40.7973 31.285 41.0782 30.0663 40.2098M31.589 39.5446C30.843 39.5883 30.7949 40.5991 30.0663 40.2098M30.0663 40.2098C28.9634 39.901 27.9748 39.5184 26.5411 38.8455M30.0663 40.2098C28.7311 39.7253 27.2892 39.1565 26.5411 38.8455M26.5411 38.8455C26.0257 38.764 25.9611 38.7926 25.8722 37.3321M26.5411 38.8455C25.5682 38.5333 25.5636 37.9632 25.8722 37.3321M25.8722 37.3321C26.1369 36.759 26.3327 36.1699 26.7168 35.1498M25.8722 37.3321C26.044 36.916 26.2596 36.4419 26.7168 35.1498" stroke="#1E1E1E" stroke-linecap="round"/>
<path d="M30.9804 35.0697C31.8964 35.4457 35.7748 37.1719 36.7168 37.5364M31.6215 35.1033C32.4094 35.6442 35.5501 37.5031 36.329 37.901" stroke="#1E1E1E" stroke-linecap="round"/>
<path d="M55.5953 32.631C56.7732 31.431 57.542 30.8475 58.3533 30.046C59.3234 31.1103 59.8988 31.4756 60.0143 30.0927C60.634 30.4028 60.9079 30.8998 61.6146 31.8C62.9175 33.2925 61.5039 34.3433 61.5537 33.4606C60.9089 34.1472 60.173 34.371 58.7958 36.0456C58.4887 33.7293 58.6763 36.6784 57.142 35.992C56.5466 35.5907 56.4021 35.2465 55.5418 34.2847C57.3 34.3912 56.7575 33.2275 55.5953 32.631Z" fill="white"/>
<path d="M55.5953 32.631C56.3555 31.8774 57.0436 31.1639 58.3533 30.046M55.5953 32.631C56.2575 32.0652 56.8384 31.3836 58.3533 30.046M55.5953 32.631C55.6842 33.1645 55.7402 33.8384 55.5418 34.2848M55.5953 32.631C55.2546 33.5397 55.2787 34.1064 55.5418 34.2848M58.3533 30.046C58.8539 30.0976 59.2466 29.1128 60.0143 30.0927M58.3533 30.046C59.4431 29.1616 60.2164 29.5333 60.0143 30.0927M60.0143 30.0927C60.3531 30.5564 60.7716 30.9591 61.6146 31.8M60.0143 30.0927C60.499 30.639 61.0005 31.1009 61.6146 31.8M61.6146 31.8C61.4371 32.4734 62.2063 32.9723 61.5538 33.4606M61.6146 31.8C62.5009 32.8333 61.6441 33.0744 61.5538 33.4606M61.5538 33.4606C60.5414 34.3546 59.5715 35.4693 58.7958 36.0456M61.5538 33.4606C60.6924 34.2817 59.8583 35.132 58.7958 36.0456M58.7958 36.0456C58.1145 36.7664 57.5911 36.5443 57.1421 35.9921M58.7958 36.0456C57.7047 36.3145 57.6157 37.0969 57.1421 35.9921M57.1421 35.9921C56.5639 35.4923 56.1929 34.9355 55.5418 34.2848M57.1421 35.9921C56.5539 35.3646 55.964 34.7937 55.5418 34.2848" stroke="#1E1E1E" stroke-linecap="round"/>
<path d="M56.0774 31.693C55.3108 32.4251 52.3427 35.3854 51.7243 36.1294M55.4819 31.7303C54.8161 32.4091 53.0485 35.2172 52.4466 35.891" stroke="#1E1E1E" stroke-linecap="round"/>
<path d="M70.0585 39.1117C69.8797 40.0244 69.92 41.0154 70.44 42.8724C68.6156 41.8312 68.084 42.3374 69.3951 44.1644C68.4201 44.2633 67.6279 44.1829 67.067 44.4006C67.7481 42.5926 66.5397 45.8412 65.7839 43.3447C66.0962 42.5592 65.4445 41.1879 65.4024 39.584C66.125 38.2844 67.0698 37.9876 66.4484 38.3019C66.8814 38.4087 67.6375 38.332 68.7764 38.0657C68.7441 37.7474 71.1411 37.6952 70.0585 39.1117Z" fill="white"/>
<path d="M70.0585 39.1117C70.0679 40.0957 70.2716 41.3114 70.44 42.8724M70.0585 39.1117C70.145 40.4598 70.37 41.8844 70.44 42.8724M70.0585 39.1117C69.5947 38.3044 69.1385 37.9687 68.7764 38.0657M70.0585 39.1117C69.4087 37.6598 69.984 38.4759 68.7764 38.0657M70.44 42.8724C70.4837 44.1947 69.7698 44.5888 69.3951 44.1644M70.44 42.8724C70.131 43.1952 70.8204 43.7484 69.3951 44.1644M69.3951 44.1644C68.6778 44.2271 67.9355 44.2421 67.067 44.4006M69.3951 44.1644C68.4867 44.2264 67.5247 44.3542 67.067 44.4006M67.067 44.4006C65.7885 44.48 66.0123 43.7135 65.7839 43.3447M67.067 44.4006C66.2691 45.155 65.2488 44.9067 65.7839 43.3447M65.7839 43.3447C65.7378 42.3945 65.5175 41.4117 65.4024 39.584M65.7839 43.3447C65.6419 42.1429 65.5328 40.9679 65.4024 39.584M65.4024 39.584C65.7831 38.5804 65.3375 38.0527 66.4484 38.3019M65.4024 39.584C65.3267 38.8378 66.4318 38.5347 66.4484 38.3019M66.4484 38.3019C66.931 38.3032 67.5477 38.1401 68.7764 38.0657M66.4484 38.3019C67.0284 38.2732 67.6463 38.2206 68.7764 38.0657" stroke="#1E1E1E" stroke-linecap="round"/>
<path d="M70.4201 42.0822C70.3868 43.141 70.4818 46.9509 70.6026 47.9437M70.5978 41.7526C70.6311 42.7745 71.0196 46.6048 71.0728 47.6247" stroke="#1E1E1E" stroke-linecap="round"/>
<path d="M58.1505 51.4733C57.5453 50.6261 56.487 49.7396 55.1836 49.1311C53.9501 47.24 53.0508 47.0397 54.9824 47.4816C55.5517 47.1156 55.8247 46.1081 56.4323 45.645C57.0011 44.7308 60.1002 44.3234 58.0835 45.4578C58.7031 46.1254 59.2472 46.695 61.0504 47.8C61.7457 48.8075 60.7405 46.4979 61.2438 49.4433C60.7749 50.1179 60.0859 51.0391 59.7938 51.2799C58.8231 51.8641 58.2906 52.8452 58.1505 51.4733Z" fill="white"/>
<path d="M58.1505 51.4733C57.0277 50.5232 56.0148 49.9019 55.1836 49.1311M58.1505 51.4733C57.0641 50.5901 56.023 49.7301 55.1836 49.1311M58.1505 51.4733C59.5377 52.0078 58.745 51.8661 59.7938 51.2799M58.1505 51.4733C58.6112 52.1809 59.3002 52.228 59.7938 51.2799M55.1836 49.1311C55.0948 48.6788 54.3157 48.7135 54.9824 47.4816M55.1836 49.1311C54.2401 48.8577 54.1665 47.8695 54.9824 47.4816M54.9824 47.4816C55.3798 46.8653 55.721 46.4976 56.4323 45.645M54.9824 47.4816C55.3558 47.0247 55.6937 46.629 56.4323 45.645M56.4323 45.645C56.51 44.6106 57.3564 44.1194 58.0835 45.4578M56.4323 45.645C57.6129 44.6659 57.1197 44.4676 58.0835 45.4578M58.0835 45.4578C58.894 45.932 59.4698 46.5905 61.0504 47.8M58.0835 45.4578C58.9849 46.2203 59.9544 46.8966 61.0504 47.8M61.0504 47.8C61.6469 48.2709 61.1735 49.2094 61.2438 49.4433M61.0504 47.8C62.205 48.3547 62.0088 48.4419 61.2438 49.4433M61.2438 49.4433C60.646 50.2327 60.1251 50.828 59.7938 51.2799M61.2438 49.4433C60.7063 50.1402 60.1425 50.8544 59.7938 51.2799" stroke="#1E1E1E" stroke-linecap="round"/>
<path d="M60.1244 46.9397C60.913 47.6514 64.5182 50.1534 65.3018 50.8231M60.7709 46.6856C61.3988 47.4234 63.7308 50.1179 64.4538 50.8161" stroke="#1E1E1E" stroke-linecap="round"/>
<path d="M47.7979 69.9218C48.7179 70.9518 49.5279 71.7718 49.7579 72.4218C52.1979 72.2418 51.6079 71.9418 49.7579 74.9218C49.3279 75.0918 48.6979 75.4318 47.7979 75.5718C44.6379 77.4718 47.3179 76.3818 45.2979 75.5718C44.5979 75.3418 44.2779 75.3718 42.7979 74.9218C43.6079 74.8918 42.7779 73.3518 42.7979 72.4218C43.7079 71.5518 44.4479 70.5918 45.2979 69.9218C46.9079 70.1618 48.1179 70.0018 47.7979 69.9218Z" fill="white"/>
<path d="M47.7979 69.9217C48.5279 70.8017 49.0579 71.7317 49.7579 72.4217M47.7979 69.9217C48.3779 70.7217 49.0079 71.4417 49.7579 72.4217M47.7979 69.9217C46.5279 68.4317 46.3779 68.4317 45.2979 69.9217M47.7979 69.9217C47.1279 67.9917 47.0379 68.3217 45.2979 69.9217M49.7579 72.4217C51.1179 73.3517 51.3579 73.6417 49.7579 74.9217M49.7579 72.4217C50.8179 73.1117 50.7279 74.4317 49.7579 74.9217M49.7579 74.9217C48.9279 75.1817 48.1979 75.4317 47.7979 75.5717M49.7579 74.9217C49.0479 75.1717 48.3179 75.4417 47.7979 75.5717M47.7979 75.5717C46.2779 77.4417 47.0579 76.9717 45.2979 75.5717M47.7979 75.5717C46.1679 76.8717 46.8679 76.9517 45.2979 75.5717M45.2979 75.5717C44.3279 75.3117 43.3279 75.0417 42.7979 74.9217M45.2979 75.5717C44.7279 75.4317 44.1679 75.2417 42.7979 74.9217M42.7979 74.9217C41.1379 73.9117 41.5679 74.0917 42.7979 72.4217M42.7979 74.9217C42.2579 73.2517 41.5979 73.3917 42.7979 72.4217M42.7979 72.4217C43.4279 71.9717 43.9279 71.3517 45.2979 69.9217M42.7979 72.4217C43.7379 71.4817 44.5479 70.6517 45.2979 69.9217" stroke="#1E1E1E" stroke-linecap="round"/>
<path d="M43.8949 71.7328C43.9649 72.1828 43.9949 74.3128 44.0049 74.8628M43.5049 72.3728C43.5649 72.8728 43.8149 74.9928 43.8749 75.3428" stroke="#1E1E1E" stroke-linecap="round"/>
<path d="M46.4976 69.6601C46.5576 70.8101 46.6876 75.1801 46.6276 76.2701M46.2076 69.3801C46.2376 70.4501 46.3676 74.7301 46.4776 75.7701" stroke="#1E1E1E" stroke-linecap="round"/>
<path d="M48.4831 71.0654C48.3531 71.7954 47.8731 74.6454 47.7731 75.2654M48.1831 70.8754C48.1431 71.5054 48.5531 74.0354 48.4531 74.7254" stroke="#1E1E1E" stroke-linecap="round"/>
<path d="M37.8489 65.7047C37.8489 65.7047 37.8822 65.7547 37.9489 65.8547C38.0222 65.948 38.0756 66.0514 38.1089 66.1647C38.1489 66.2847 38.1656 66.398 38.1589 66.5047C38.1589 66.6247 38.1356 66.7414 38.0889 66.8547C38.0489 66.968 37.9922 67.0714 37.9189 67.1647C37.8456 67.258 37.7589 67.338 37.6589 67.4047C37.5522 67.4714 37.4422 67.518 37.3289 67.5447C37.2156 67.5714 37.1022 67.5814 36.9889 67.5747C36.8689 67.5614 36.7522 67.5314 36.6389 67.4847C36.5322 67.438 36.4322 67.3747 36.3389 67.2947C36.2522 67.2147 36.1789 67.1214 36.1189 67.0147C36.0589 66.9147 36.0189 66.8047 35.9989 66.6847C35.9789 66.5647 35.9756 66.4514 35.9889 66.3447C36.0022 66.2247 36.0356 66.1114 36.0889 66.0047C36.1422 65.898 36.2122 65.8014 36.2989 65.7147C36.3856 65.628 36.4822 65.558 36.5889 65.5047C36.6956 65.4514 36.8089 65.418 36.9289 65.4047C37.0422 65.3914 37.1556 65.3947 37.2689 65.4147C37.3889 65.4347 37.4989 65.4747 37.5989 65.5347C37.7056 65.5947 37.7989 65.668 37.8789 65.7547C37.9589 65.848 38.0222 65.948 38.0689 66.0547C38.1156 66.168 38.1456 66.2847 38.1589 66.4047C38.1656 66.518 38.1556 66.6314 38.1289 66.7447C38.0956 66.858 38.0489 66.968 37.9889 67.0747C37.9222 67.1747 37.8422 67.2614 37.7489 67.3347C37.6556 67.408 37.5522 67.4647 37.4389 67.5047C37.3256 67.5514 37.2089 67.5747 37.0889 67.5747C36.9756 67.5814 36.8622 67.5647 36.7489 67.5247C36.6356 67.4914 36.5322 67.438 36.4389 67.3647C36.3389 67.298 36.2889 67.2647 36.2889 67.2647C36.2889 67.2647 36.2622 67.228 36.2089 67.1547C36.1489 67.088 36.1022 67.0147 36.0689 66.9347C36.0289 66.8547 36.0022 66.768 35.9889 66.6747C35.9756 66.588 35.9689 66.5047 35.9689 66.4247C35.9756 66.3314 35.9922 66.2447 36.0189 66.1647C36.0456 66.078 36.0822 65.9947 36.1289 65.9147C36.1756 65.8414 36.2322 65.7747 36.2989 65.7147C36.3589 65.648 36.4256 65.5914 36.4989 65.5447C36.5789 65.498 36.6622 65.4614 36.7489 65.4347C36.8289 65.408 36.9156 65.3914 37.0089 65.3847C37.0889 65.3847 37.1722 65.3914 37.2589 65.4047C37.3522 65.418 37.4389 65.4447 37.5189 65.4847C37.5989 65.518 37.6722 65.5647 37.7389 65.6247C37.8122 65.678 37.8489 65.7047 37.8489 65.7047Z" fill="#1E1E1E"/>
<path d="M34.9972 65.75C34.9972 65.75 35.0306 65.8 35.0972 65.9C35.1706 65.9933 35.2239 66.0967 35.2572 66.21C35.2972 66.33 35.3139 66.4433 35.3072 66.55C35.3072 66.67 35.2839 66.7867 35.2372 66.9C35.1972 67.0133 35.1406 67.1167 35.0672 67.21C34.9939 67.3033 34.9072 67.3833 34.8072 67.45C34.7006 67.5167 34.5906 67.5633 34.4772 67.59C34.3639 67.6167 34.2506 67.6267 34.1372 67.62C34.0172 67.6067 33.9006 67.5767 33.7872 67.53C33.6806 67.4833 33.5806 67.42 33.4872 67.34C33.4006 67.26 33.3272 67.1667 33.2672 67.06C33.2072 66.96 33.1672 66.85 33.1472 66.73C33.1272 66.61 33.1239 66.4967 33.1372 66.39C33.1506 66.27 33.1839 66.1567 33.2372 66.05C33.2906 65.9433 33.3606 65.8467 33.4472 65.76C33.5339 65.6733 33.6306 65.6033 33.7372 65.55C33.8439 65.4967 33.9572 65.4633 34.0772 65.45C34.1906 65.4367 34.3039 65.44 34.4172 65.46C34.5372 65.48 34.6472 65.52 34.7472 65.58C34.8539 65.64 34.9472 65.7133 35.0272 65.8C35.1072 65.8933 35.1706 65.9933 35.2172 66.1C35.2639 66.2133 35.2939 66.33 35.3072 66.45C35.3139 66.5633 35.3039 66.6767 35.2772 66.79C35.2439 66.9033 35.1972 67.0133 35.1372 67.12C35.0706 67.22 34.9906 67.3067 34.8972 67.38C34.8039 67.4533 34.7006 67.51 34.5872 67.55C34.4739 67.5967 34.3572 67.62 34.2372 67.62C34.1239 67.6267 34.0106 67.61 33.8972 67.57C33.7839 67.5367 33.6806 67.4833 33.5872 67.41C33.4872 67.3433 33.4372 67.31 33.4372 67.31C33.4372 67.31 33.4106 67.2733 33.3572 67.2C33.2972 67.1333 33.2506 67.06 33.2172 66.98C33.1772 66.9 33.1506 66.8133 33.1372 66.72C33.1239 66.6333 33.1172 66.55 33.1172 66.47C33.1239 66.3767 33.1406 66.29 33.1672 66.21C33.1939 66.1233 33.2306 66.04 33.2772 65.96C33.3239 65.8867 33.3806 65.82 33.4472 65.76C33.5072 65.6933 33.5739 65.6367 33.6472 65.59C33.7272 65.5433 33.8106 65.5067 33.8972 65.48C33.9772 65.4533 34.0639 65.4367 34.1572 65.43C34.2372 65.43 34.3206 65.4367 34.4072 65.45C34.5006 65.4633 34.5872 65.49 34.6672 65.53C34.7472 65.5633 34.8206 65.61 34.8872 65.67C34.9606 65.7233 34.9972 65.75 34.9972 65.75Z" fill="#1E1E1E"/>
<path d="M40.9722 65.6142C40.9722 65.6142 41.0055 65.6642 41.0722 65.7642C41.1455 65.8575 41.1988 65.9609 41.2322 66.0742C41.2722 66.1942 41.2888 66.3075 41.2822 66.4142C41.2822 66.5342 41.2588 66.6509 41.2122 66.7642C41.1722 66.8775 41.1155 66.9809 41.0422 67.0742C40.9688 67.1675 40.8822 67.2475 40.7822 67.3142C40.6755 67.3809 40.5655 67.4275 40.4522 67.4542C40.3388 67.4809 40.2255 67.4909 40.1122 67.4842C39.9922 67.4709 39.8755 67.4409 39.7622 67.3942C39.6555 67.3475 39.5555 67.2842 39.4622 67.2042C39.3755 67.1242 39.3022 67.0309 39.2422 66.9242C39.1822 66.8242 39.1422 66.7142 39.1222 66.5942C39.1022 66.4742 39.0988 66.3609 39.1122 66.2542C39.1255 66.1342 39.1588 66.0209 39.2122 65.9142C39.2655 65.8075 39.3355 65.7109 39.4222 65.6242C39.5088 65.5375 39.6055 65.4675 39.7122 65.4142C39.8188 65.3609 39.9322 65.3275 40.0522 65.3142C40.1655 65.3009 40.2788 65.3042 40.3922 65.3242C40.5122 65.3442 40.6222 65.3842 40.7222 65.4442C40.8288 65.5042 40.9222 65.5775 41.0022 65.6642C41.0822 65.7575 41.1455 65.8575 41.1922 65.9642C41.2388 66.0775 41.2688 66.1942 41.2822 66.3142C41.2888 66.4275 41.2788 66.5409 41.2522 66.6542C41.2188 66.7675 41.1722 66.8775 41.1122 66.9842C41.0455 67.0842 40.9655 67.1709 40.8722 67.2442C40.7788 67.3175 40.6755 67.3742 40.5622 67.4142C40.4488 67.4609 40.3322 67.4842 40.2122 67.4842C40.0988 67.4909 39.9855 67.4742 39.8722 67.4342C39.7588 67.4009 39.6555 67.3475 39.5622 67.2742C39.4622 67.2075 39.4122 67.1742 39.4122 67.1742C39.4122 67.1742 39.3855 67.1375 39.3322 67.0642C39.2722 66.9975 39.2255 66.9242 39.1922 66.8442C39.1522 66.7642 39.1255 66.6775 39.1122 66.5842C39.0988 66.4975 39.0922 66.4142 39.0922 66.3342C39.0988 66.2409 39.1155 66.1542 39.1422 66.0742C39.1688 65.9875 39.2055 65.9042 39.2522 65.8242C39.2988 65.7509 39.3555 65.6842 39.4222 65.6242C39.4822 65.5575 39.5488 65.5009 39.6222 65.4542C39.7022 65.4075 39.7855 65.3709 39.8722 65.3442C39.9522 65.3175 40.0388 65.3009 40.1322 65.2942C40.2122 65.2942 40.2955 65.3009 40.3822 65.3142C40.4755 65.3275 40.5622 65.3542 40.6422 65.3942C40.7222 65.4275 40.7955 65.4742 40.8622 65.5342C40.9355 65.5875 40.9722 65.6142 40.9722 65.6142Z" fill="#1E1E1E"/>
<path d="M50.7605 65.9997C51.3908 65.6705 53.1381 63.8969 54.4081 63.8786C55.6881 63.8599 57.6613 65.5911 58.4109 65.8986M50.421 65.6898C50.9932 65.4224 52.8188 64.2568 54.0979 64.2081C55.377 64.1594 57.4508 65.2473 58.1057 65.3976" stroke="#1E1E1E" stroke-linecap="round"/>
<path d="M50.4113 65.5101C51.0315 65.8415 53.0084 67.6926 54.421 67.76C55.824 67.8377 58.2091 66.3149 58.8283 65.9461M51.03 66.1217C51.5779 66.3752 52.7712 67.4597 54.0579 67.3308C55.3546 67.2015 58.098 65.618 58.7705 65.3575" stroke="#1E1E1E" stroke-linecap="round"/>
<path d="M54.4331 65.4774C54.5212 65.7448 54.9895 66.341 54.9722 66.4315M55.0092 65.3399C55.0846 65.5177 54.8617 65.7545 54.8565 65.9148" stroke="#1E1E1E" stroke-linecap="round"/>
<path d="M55.4954 47.3629C55.9154 47.6929 57.6054 49.0129 58.0354 49.3429" stroke="#1E1E1E" stroke-width="0.5" stroke-linecap="round"/>
<path d="M67.021 38.731C67.051 39.311 67.161 41.641 67.191 42.221" stroke="#1E1E1E" stroke-width="0.5" stroke-linecap="round"/>
<path d="M60.9131 31.877C60.5331 32.237 59.0331 33.667 58.6531 34.027" stroke="#1E1E1E" stroke-width="0.5" stroke-linecap="round"/>
<path d="M26.3529 37.2865C26.8729 37.4765 28.9329 38.2365 29.4429 38.4265" stroke="#1E1E1E" stroke-width="0.5" stroke-linecap="round"/>
<path d="M16.5369 37.6144C17.7371 38.6297 18.6764 39.4554 19.2948 40.1994C18.7075 40.1972 19.8078 40.9681 19.3556 41.86C18.9672 42.5376 18.3558 42.6635 17.7554 43.5673C18.6919 42.9922 18.7459 45.0988 16.0943 43.614C15.2768 43.2726 14.761 42.4191 13.3364 41.029C10.1209 40.2629 11.7907 40.7041 13.2829 39.3753C13.9367 39.0287 13.9466 38.4623 14.8831 37.668C16.2357 39.4565 17.4741 35.971 16.5369 37.6144Z" fill="white"/>
<path d="M16.5369 37.6144C17.2355 38.4337 18.0818 39.227 19.2948 40.1994M16.5369 37.6144C17.6459 38.6539 18.6742 39.604 19.2948 40.1994M16.5369 37.6144C15.8332 36.859 15.6732 37.1613 14.8831 37.6679M16.5369 37.6144C15.3673 37.5461 15.1552 36.6757 14.8831 37.6679M19.2948 40.1994C19.993 41.0046 19.9648 42.1021 19.3556 41.86M19.2948 40.1994C19.6478 40.6125 19.9 41.1915 19.3556 41.86M19.3556 41.86C18.9325 42.3406 18.4525 42.809 17.7554 43.5673M19.3556 41.86C19.0064 42.218 18.7415 42.5591 17.7554 43.5673M17.7554 43.5673C17.4153 43.9886 16.1167 43.868 16.0943 43.614M17.7554 43.5673C17.1291 44.9813 16.7096 44.9171 16.0943 43.614M16.0943 43.614C15.2886 42.9821 14.5275 41.9809 13.3364 41.029M16.0943 43.614C15.1011 42.6557 14.1303 41.732 13.3364 41.029M13.3364 41.029C13.5356 40.4071 13.5041 39.8704 13.2829 39.3752M13.3364 41.029C12.9197 41.2689 12.5074 40.5535 13.2829 39.3752M13.2829 39.3752C13.8103 38.8417 14.1486 38.3638 14.8831 37.6679M13.2829 39.3752C13.6781 38.9097 14.1431 38.4135 14.8831 37.6679" stroke="#1E1E1E" stroke-linecap="round"/>
<path d="M18.8691 39.5746C19.5901 40.4285 22.2574 43.4905 22.868 44.2136M18.8709 39.1925C19.6461 39.9739 22.4785 43.1084 23.1091 43.7954" stroke="#1E1E1E" stroke-linecap="round"/>
<path d="M14.301 39.1432C14.671 39.5632 16.151 41.2332 16.511 41.6532" stroke="#1E1E1E" stroke-width="0.5" stroke-linecap="round"/>
<path d="M35.7183 62.0064C35.2583 60.8764 36.5483 55.7364 33.7083 55.2164C30.8683 54.6964 22.2583 59.1064 18.6583 58.8764C15.0583 58.6564 13.1383 54.6264 12.0883 53.8564M36.5983 61.7964C36.0683 60.7264 36.5683 54.6964 33.4883 54.3164C30.4183 53.9264 21.6983 59.4864 18.1683 59.4964C14.6383 59.5164 13.3483 55.4864 12.3183 54.3964" stroke="#1E1E1E" stroke-linecap="round"/>
<path d="M11.1227 48.8305C11.819 49.5791 12.8729 50.8822 13.8806 51.4155C16.4869 51.7203 14.6929 53.1225 13.9415 53.0761C13.5339 53.3794 13.0442 53.7702 12.3412 54.7834C12.4979 57.2191 12.9631 54.1053 10.6802 54.8301C9.14941 53.875 8.59948 53.4967 7.92224 52.2451C6.819 49.8542 5.13813 52.1301 7.86871 50.5914C8.49557 49.8494 9.00714 49.6985 9.46894 48.8841C7.9324 49.2805 10.3417 49.6199 11.1227 48.8305Z" fill="white"/>
<path d="M11.1227 48.8305C11.9075 49.4702 12.5327 50.2069 13.8806 51.4155M11.1227 48.8305C11.9905 49.6302 12.8802 50.4504 13.8806 51.4155M11.1227 48.8305C10.5701 48.806 9.8547 48.9989 9.46895 48.8841M11.1227 48.8305C10.7027 47.8749 9.73746 48.4367 9.46895 48.8841M13.8806 51.4155C14.654 51.4825 14.0071 52.4797 13.9415 53.0761M13.8806 51.4155C14.4785 51.9622 15.1488 52.1244 13.9415 53.0761M13.9415 53.0761C13.5471 53.57 13.1464 53.8659 12.3412 54.7834M13.9415 53.0761C13.5043 53.5572 13.0944 54.0091 12.3412 54.7834M12.3412 54.7834C11.4764 55.6038 10.9383 55.5929 10.6802 54.8301M12.3412 54.7834C12.4471 55.4309 10.3679 55.2364 10.6802 54.8301M10.6802 54.8301C9.83749 54.1499 9.05772 53.4465 7.92224 52.2451M10.6802 54.8301C10.1198 54.3459 9.50004 53.7788 7.92224 52.2451M7.92224 52.2451C7.09236 51.9607 6.90577 51.0046 7.86871 50.5914M7.92224 52.2451C7.30609 50.9138 7.88933 51.4467 7.86871 50.5914M7.86871 50.5914C8.4532 50.0701 8.84071 49.5836 9.46895 48.8841M7.86871 50.5914C8.30547 50.0961 8.73722 49.6648 9.46895 48.8841" stroke="#1E1E1E" stroke-linecap="round"/>
<path d="M13.1184 50.4479C13.7997 51.1687 16.7729 54.2844 17.4998 55.1028M13.718 50.6125C14.3286 51.3355 16.3444 54.5954 17.0256 55.3162" stroke="#1E1E1E" stroke-linecap="round"/>
<path d="M8.88675 50.3593C9.25675 50.7793 10.7367 52.4493 11.0967 52.8693" stroke="#1E1E1E" stroke-width="0.5" stroke-linecap="round"/>
</svg>
