<svg width="85" height="125" viewBox="0 0 85 125" fill="none" xmlns="http://www.w3.org/2000/svg">
<path d="M21.9559 1.6667C31.1859 0.936703 44.3059 2.9567 62.3559 1.6667C78.0259 -0.593297 81.2459 7.1367 82.5559 21.8667C80.5259 54.3767 84.3859 80.6767 82.5559 103.417C82.6159 117.057 76.8359 120.697 62.3559 123.617C48.9559 125.607 40.6859 124.017 21.9559 123.617C5.55586 123.097 0.0158614 113.617 1.75586 103.417C0.0058614 81.6167 -0.324139 60.7867 1.75586 21.8667C0.0258614 6.6267 8.25586 0.166703 21.9559 1.6667Z" fill="white"/>
<path d="M21.9559 1.66671C34.4159 3.06671 49.0259 1.79671 62.3559 1.66671M21.9559 1.66671C36.0159 1.47671 50.7059 1.41671 62.3559 1.66671M21.9559 1.66671C7.24586 1.27671 3.41586 6.51671 1.75586 21.8667M21.9559 1.66671C7.77586 0.626706 2.80586 7.47671 1.75586 21.8667M62.3559 1.66671C74.7159 1.62671 83.9159 6.65671 82.5559 21.8667M62.3559 1.66671C76.5059 1.35671 84.6459 9.26671 82.5559 21.8667M82.5559 21.8667C84.0159 38.0567 83.2059 52.8167 82.5559 103.417M82.5559 21.8667C83.0259 52.8867 81.7759 82.2867 82.5559 103.417M82.5559 103.417C81.9159 118.397 75.8759 121.977 62.3559 123.617M82.5559 103.417C84.3459 115.437 78.0559 122.667 62.3559 123.617M62.3559 123.617C48.7359 122.137 36.8559 124.717 21.9559 123.617M62.3559 123.617C51.4959 123.757 38.6859 122.787 21.9559 123.617M21.9559 123.617C7.44586 124.347 3.41586 115.987 1.75586 103.417M21.9559 123.617C6.49586 121.317 0.395857 119.057 1.75586 103.417M1.75586 103.417C3.12586 85.9267 2.86586 69.0267 1.75586 21.8667M1.75586 103.417C1.59586 73.6767 1.89586 46.7267 1.75586 21.8667" stroke="#1E1E1E" stroke-width="2" stroke-linecap="round"/>
<path d="M23.0308 1.49292C36.0508 1.49292 49.0707 1.49292 59.4207 1.49292C61.9007 1.49292 63.1507 2.73292 63.1507 5.22292C63.1507 6.86292 63.1507 8.50292 63.1507 12.6729C63.1507 15.1529 61.9007 16.3929 59.4207 16.3929C45.0007 16.3929 30.5808 16.3929 23.0308 16.3929C20.5408 16.3929 19.3008 15.1529 19.3008 12.6729C19.3008 10.8229 19.3008 8.96292 19.3008 5.22292C19.3008 2.73292 20.5408 1.49292 23.0308 1.49292Z" fill="white"/>
<path d="M23.0308 1.49292C33.6308 1.49292 44.2308 1.49292 59.4207 1.49292M23.0308 1.49292C33.2208 1.49292 43.4107 1.49292 59.4207 1.49292M23.0308 1.49292C20.5408 1.49292 19.3008 2.73292 19.3008 5.22292M59.4207 1.49292C61.9007 1.49292 63.1507 2.73292 63.1507 5.22292M63.1507 5.22292C63.1507 6.90292 63.1507 8.59292 63.1507 12.6729M63.1507 5.22292C63.1507 7.38292 63.1507 9.54292 63.1507 12.6729M63.1507 12.6729C63.1507 15.1529 61.9007 16.3929 59.4207 16.3929M59.4207 16.3929C47.2407 16.3929 35.0508 16.3929 23.0308 16.3929M59.4207 16.3929C47.7708 16.3929 36.1108 16.3929 23.0308 16.3929M23.0308 16.3929C20.5408 16.3929 19.3008 15.1529 19.3008 12.6729M19.3008 12.6729C19.3008 10.0429 19.3008 7.41292 19.3008 5.22292M19.3008 12.6729C19.3008 9.82292 19.3008 6.98292 19.3008 5.22292" stroke="#1E1E1E" stroke-width="2" stroke-linecap="round"/>
<path d="M10.2758 106.782C10.2658 105.882 10.2458 102.272 10.2358 101.372" stroke="#1E1E1E" stroke-linecap="round"/>
<path d="M10.2038 101.575C10.4538 101.215 11.4638 99.7949 11.7138 99.4349" stroke="#1E1E1E" stroke-linecap="round"/>
<path d="M13.2066 106.846C13.2166 105.946 13.2366 102.336 13.2466 101.436" stroke="#1E1E1E" stroke-linecap="round"/>
<path d="M13.2785 101.639C13.0285 101.279 12.0185 99.8591 11.7685 99.4991" stroke="#1E1E1E" stroke-linecap="round"/>
<path d="M8.06354 107.332C9.24354 107.312 13.9435 107.232 15.1135 107.212" stroke="#1E1E1E" stroke-linecap="round"/>
<path d="M11.922 107.423C11.932 108.053 11.972 110.593 11.982 111.223" stroke="#1E1E1E" stroke-linecap="round"/>
<path d="M53.3333 102.504C53.6933 102.134 55.1333 100.634 55.4933 100.254" stroke="#1E1E1E" stroke-linecap="round"/>
<path d="M55.4888 100.214C55.8888 100.544 57.4688 101.864 57.8688 102.194" stroke="#1E1E1E" stroke-linecap="round"/>
<path d="M57.9586 102.459C57.2686 103.519 54.5186 107.769 53.8286 108.839" stroke="#1E1E1E" stroke-linecap="round"/>
<path d="M53.4006 102.504C53.0406 102.134 51.6006 100.634 51.2406 100.254" stroke="#1E1E1E" stroke-linecap="round"/>
<path d="M51.2451 100.214C50.8451 100.544 49.2651 101.864 48.8651 102.194" stroke="#1E1E1E" stroke-linecap="round"/>
<path d="M48.7753 102.459C49.4653 103.519 52.2153 107.769 52.9053 108.839" stroke="#1E1E1E" stroke-linecap="round"/>
<path d="M24.5166 6.47887C24.4793 6.16445 24.3283 5.92035 24.0636 5.74659C23.7988 5.57283 23.474 5.48595 23.0893 5.48595C22.8079 5.48595 22.5618 5.53146 22.3508 5.62248C22.1418 5.7135 21.9784 5.83865 21.8605 5.99793C21.7447 6.15721 21.6868 6.33821 21.6868 6.54093C21.6868 6.71055 21.7271 6.85639 21.8078 6.97843C21.8905 7.09841 21.996 7.19874 22.1243 7.27941C22.2525 7.35802 22.387 7.42318 22.5276 7.47489C22.6683 7.52454 22.7976 7.56487 22.9155 7.5959L23.5609 7.76966C23.7264 7.8131 23.9105 7.87309 24.1132 7.94963C24.318 8.02617 24.5135 8.13063 24.6996 8.26302C24.8879 8.39334 25.043 8.56089 25.1651 8.76568C25.2871 8.97047 25.3481 9.2218 25.3481 9.51968C25.3481 9.86306 25.2582 10.1733 25.0782 10.4505C24.9003 10.7277 24.6397 10.948 24.2963 11.1114C23.955 11.2749 23.5402 11.3566 23.052 11.3566C22.5969 11.3566 22.2029 11.2831 21.8698 11.1363C21.5389 10.9894 21.2782 10.7846 21.0879 10.5219C20.8997 10.2592 20.7931 9.95408 20.7683 9.60656H21.5626C21.5833 9.84651 21.664 10.0451 21.8047 10.2023C21.9474 10.3575 22.1274 10.4733 22.3446 10.5498C22.5638 10.6243 22.7997 10.6615 23.052 10.6615C23.3458 10.6615 23.6095 10.614 23.8432 10.5188C24.077 10.4216 24.2621 10.2871 24.3987 10.1154C24.5352 9.94167 24.6035 9.73895 24.6035 9.50727C24.6035 9.29627 24.5445 9.12458 24.4266 8.99219C24.3087 8.8598 24.1535 8.75224 23.9612 8.66949C23.7688 8.58675 23.5609 8.51435 23.3375 8.45229L22.5556 8.22889C22.0591 8.08615 21.6661 7.8824 21.3765 7.61762C21.0869 7.35284 20.9421 7.00636 20.9421 6.57816C20.9421 6.22237 21.0383 5.91208 21.2306 5.6473C21.4251 5.38046 21.6857 5.1736 22.0126 5.02673C22.3415 4.87779 22.7086 4.80332 23.1141 4.80332C23.5237 4.80332 23.8877 4.87676 24.2063 5.02363C24.5248 5.16843 24.7772 5.36701 24.9634 5.61938C25.1516 5.87174 25.2509 6.15824 25.2613 6.47887H24.5166ZM29.5176 9.29627V6.47887H30.2499V11.2449H29.5176V10.4381H29.468C29.3563 10.6802 29.1825 10.886 28.9467 11.0556C28.7109 11.2232 28.413 11.3069 28.0531 11.3069C27.7552 11.3069 27.4904 11.2418 27.2587 11.1114C27.027 10.9791 26.845 10.7805 26.7126 10.5157C26.5802 10.2489 26.514 9.91271 26.514 9.50727V6.47887H27.2463V9.45762C27.2463 9.80514 27.3435 10.0823 27.538 10.2892C27.7345 10.496 27.9848 10.5995 28.2889 10.5995C28.4709 10.5995 28.6561 10.5529 28.8443 10.4598C29.0346 10.3668 29.1939 10.224 29.3221 10.0317C29.4525 9.83927 29.5176 9.59415 29.5176 9.29627ZM31.5911 11.2449V6.47887H32.2986V7.22356H32.3606C32.4599 6.96912 32.6202 6.77157 32.8416 6.63091C33.0629 6.48818 33.3287 6.41681 33.639 6.41681C33.9534 6.41681 34.2151 6.48818 34.424 6.63091C34.635 6.77157 34.7995 6.96912 34.9174 7.22356H34.967C35.0891 6.9774 35.2721 6.78192 35.5162 6.63712C35.7603 6.49025 36.053 6.41681 36.3943 6.41681C36.8205 6.41681 37.169 6.55024 37.44 6.81708C37.711 7.08186 37.8465 7.49454 37.8465 8.05513V11.2449H37.1142V8.05513C37.1142 7.70347 37.018 7.45214 36.8256 7.30113C36.6333 7.15012 36.4068 7.07462 36.1461 7.07462C35.811 7.07462 35.5514 7.17598 35.3673 7.3787C35.1832 7.57935 35.0911 7.83379 35.0911 8.14201V11.2449H34.3465V7.98066C34.3465 7.70967 34.2585 7.49144 34.0827 7.32595C33.9069 7.1584 33.6804 7.07462 33.4032 7.07462C33.2129 7.07462 33.035 7.1253 32.8695 7.22666C32.7061 7.32802 32.5737 7.46868 32.4723 7.64865C32.373 7.82655 32.3234 8.03237 32.3234 8.26612V11.2449H31.5911ZM39.1854 11.2449V6.47887H39.9176V11.2449H39.1854ZM39.5577 5.68454C39.415 5.68454 39.2919 5.63592 39.1885 5.5387C39.0871 5.44148 39.0364 5.3246 39.0364 5.18808C39.0364 5.05155 39.0871 4.93468 39.1885 4.83745C39.2919 4.74023 39.415 4.69162 39.5577 4.69162C39.7004 4.69162 39.8225 4.74023 39.9239 4.83745C40.0273 4.93468 40.079 5.05155 40.079 5.18808C40.079 5.3246 40.0273 5.44148 39.9239 5.5387C39.8225 5.63592 39.7004 5.68454 39.5577 5.68454ZM43.0585 11.3442C42.6614 11.3442 42.3107 11.2438 42.0067 11.0432C41.7026 10.8405 41.4647 10.555 41.293 10.1868C41.1213 9.81652 41.0355 9.37902 41.0355 8.87428C41.0355 8.37369 41.1213 7.93929 41.293 7.57108C41.4647 7.20287 41.7036 6.91844 42.0098 6.71779C42.3159 6.51714 42.6696 6.41681 43.0709 6.41681C43.3812 6.41681 43.6264 6.46853 43.8063 6.57196C43.9884 6.67332 44.1269 6.78916 44.2221 6.91948C44.3193 7.04773 44.3948 7.15323 44.4486 7.23597H44.5107V4.8902H45.2429V11.2449H44.5355V10.5126H44.4486C44.3948 10.5995 44.3183 10.7091 44.219 10.8415C44.1197 10.9718 43.978 11.0887 43.7939 11.1921C43.6098 11.2935 43.3647 11.3442 43.0585 11.3442ZM43.1578 10.6864C43.4516 10.6864 43.6998 10.6098 43.9025 10.4567C44.1052 10.3016 44.2593 10.0875 44.3648 9.81445C44.4703 9.53933 44.5231 9.2218 44.5231 8.86187C44.5231 8.50608 44.4714 8.19476 44.3679 7.92791C44.2645 7.65899 44.1114 7.45007 43.9087 7.30113C43.706 7.15012 43.4557 7.07462 43.1578 7.07462C42.8475 7.07462 42.589 7.15426 42.3821 7.31354C42.1773 7.47075 42.0232 7.68485 41.9198 7.95583C41.8184 8.22475 41.7677 8.52676 41.7677 8.86187C41.7677 9.20112 41.8194 9.50934 41.9229 9.78653C42.0284 10.0616 42.1835 10.2809 42.3883 10.4443C42.5952 10.6057 42.8517 10.6864 43.1578 10.6864ZM48.622 11.3442C48.1917 11.3442 47.8142 11.2418 47.4894 11.037C47.1667 10.8322 46.9144 10.5457 46.7323 10.1775C46.5524 9.80928 46.4624 9.37902 46.4624 8.88669C46.4624 8.39024 46.5524 7.95687 46.7323 7.58659C46.9144 7.21632 47.1667 6.92879 47.4894 6.724C47.8142 6.51921 48.1917 6.41681 48.622 6.41681C49.0522 6.41681 49.4287 6.51921 49.7514 6.724C50.0762 6.92879 50.3285 7.21632 50.5085 7.58659C50.6905 7.95687 50.7816 8.39024 50.7816 8.88669C50.7816 9.37902 50.6905 9.80928 50.5085 10.1775C50.3285 10.5457 50.0762 10.8322 49.7514 11.037C49.4287 11.2418 49.0522 11.3442 48.622 11.3442ZM48.622 10.6864C48.9488 10.6864 49.2177 10.6026 49.4287 10.435C49.6397 10.2675 49.7959 10.0472 49.8972 9.77411C49.9986 9.50106 50.0493 9.20526 50.0493 8.88669C50.0493 8.56813 49.9986 8.27129 49.8972 7.99617C49.7959 7.72105 49.6397 7.49868 49.4287 7.32906C49.2177 7.15943 48.9488 7.07462 48.622 7.07462C48.2951 7.07462 48.0262 7.15943 47.8152 7.32906C47.6042 7.49868 47.448 7.72105 47.3467 7.99617C47.2453 8.27129 47.1946 8.56813 47.1946 8.88669C47.1946 9.20526 47.2453 9.50106 47.3467 9.77411C47.448 10.0472 47.6042 10.2675 47.8152 10.435C48.0262 10.6026 48.2951 10.6864 48.622 10.6864ZM54.9029 9.29627V6.47887H55.6352V11.2449H54.9029V10.4381H54.8533C54.7416 10.6802 54.5678 10.886 54.332 11.0556C54.0962 11.2232 53.7983 11.3069 53.4384 11.3069C53.1405 11.3069 52.8757 11.2418 52.6441 11.1114C52.4124 10.9791 52.2303 10.7805 52.098 10.5157C51.9656 10.2489 51.8994 9.91271 51.8994 9.50727V6.47887H52.6316V9.45762C52.6316 9.80514 52.7289 10.0823 52.9233 10.2892C53.1198 10.496 53.3701 10.5995 53.6742 10.5995C53.8562 10.5995 54.0414 10.5529 54.2296 10.4598C54.4199 10.3668 54.5792 10.224 54.7075 10.0317C54.8378 9.83927 54.9029 9.59415 54.9029 9.29627ZM56.9764 11.2449V6.47887H57.6839V7.19874H57.7335C57.8204 6.96292 57.9776 6.77157 58.2052 6.6247C58.4327 6.47784 58.6892 6.4044 58.9747 6.4044C59.0285 6.4044 59.0957 6.40544 59.1764 6.4075C59.257 6.40957 59.3181 6.41268 59.3594 6.41681V7.1615C59.3346 7.15529 59.2777 7.14599 59.1888 7.13357C59.1019 7.11909 59.0098 7.11185 58.9126 7.11185C58.6809 7.11185 58.4741 7.16047 58.292 7.25769C58.1121 7.35284 57.9693 7.48523 57.8639 7.65486C57.7604 7.82241 57.7087 8.01375 57.7087 8.22889V11.2449H56.9764ZM62.0186 11.3442C61.5883 11.3442 61.2108 11.2418 60.886 11.037C60.5633 10.8322 60.311 10.5457 60.1289 10.1775C59.949 9.80928 59.859 9.37902 59.859 8.88669C59.859 8.39024 59.949 7.95687 60.1289 7.58659C60.311 7.21632 60.5633 6.92879 60.886 6.724C61.2108 6.51921 61.5883 6.41681 62.0186 6.41681C62.4489 6.41681 62.8253 6.51921 63.148 6.724C63.4728 6.92879 63.7252 7.21632 63.9051 7.58659C64.0872 7.95687 64.1782 8.39024 64.1782 8.88669C64.1782 9.37902 64.0872 9.80928 63.9051 10.1775C63.7252 10.5457 63.4728 10.8322 63.148 11.037C62.8253 11.2418 62.4489 11.3442 62.0186 11.3442ZM62.0186 10.6864C62.3454 10.6864 62.6143 10.6026 62.8253 10.435C63.0363 10.2675 63.1925 10.0472 63.2939 9.77411C63.3952 9.50106 63.4459 9.20526 63.4459 8.88669C63.4459 8.56813 63.3952 8.27129 63.2939 7.99617C63.1925 7.72105 63.0363 7.49868 62.8253 7.32906C62.6143 7.15943 62.3454 7.07462 62.0186 7.07462C61.6918 7.07462 61.4228 7.15943 61.2118 7.32906C61.0008 7.49868 60.8447 7.72105 60.7433 7.99617C60.642 8.27129 60.5913 8.56813 60.5913 8.88669C60.5913 9.20526 60.642 9.50106 60.7433 9.77411C60.8447 10.0472 61.0008 10.2675 61.2118 10.435C61.4228 10.6026 61.6918 10.6864 62.0186 10.6864Z" fill="#1E1E1E"/>
<path d="M10.3185 89.8286C21.3085 89.8286 65.2885 89.8286 76.2785 89.8286" stroke="#1E1E1E" stroke-width="2" stroke-linecap="round"/>
<path d="M45.0115 47.4797C45.0115 47.4797 45.0448 47.5297 45.1115 47.6297C45.1848 47.723 45.2381 47.8263 45.2715 47.9397C45.3115 48.0597 45.3281 48.173 45.3215 48.2797C45.3215 48.3997 45.2981 48.5163 45.2515 48.6297C45.2115 48.743 45.1548 48.8463 45.0815 48.9397C45.0081 49.033 44.9215 49.113 44.8215 49.1797C44.7148 49.2463 44.6048 49.293 44.4915 49.3197C44.3781 49.3463 44.2648 49.3563 44.1515 49.3497C44.0315 49.3363 43.9148 49.3063 43.8015 49.2597C43.6948 49.213 43.5948 49.1497 43.5015 49.0697C43.4148 48.9897 43.3415 48.8963 43.2815 48.7897C43.2215 48.6897 43.1815 48.5797 43.1615 48.4597C43.1415 48.3397 43.1381 48.2263 43.1515 48.1197C43.1648 47.9997 43.1981 47.8863 43.2515 47.7797C43.3048 47.673 43.3748 47.5763 43.4615 47.4897C43.5481 47.403 43.6448 47.333 43.7515 47.2797C43.8581 47.2263 43.9715 47.193 44.0915 47.1797C44.2048 47.1663 44.3181 47.1697 44.4315 47.1897C44.5515 47.2097 44.6615 47.2497 44.7615 47.3097C44.8681 47.3697 44.9615 47.443 45.0415 47.5297C45.1215 47.623 45.1848 47.723 45.2315 47.8297C45.2781 47.943 45.3081 48.0597 45.3215 48.1797C45.3281 48.293 45.3181 48.4063 45.2915 48.5197C45.2581 48.633 45.2115 48.743 45.1515 48.8497C45.0848 48.9497 45.0048 49.0363 44.9115 49.1097C44.8181 49.183 44.7148 49.2397 44.6015 49.2797C44.4881 49.3263 44.3715 49.3497 44.2515 49.3497C44.1381 49.3563 44.0248 49.3397 43.9115 49.2997C43.7981 49.2663 43.6948 49.213 43.6015 49.1397C43.5015 49.073 43.4515 49.0397 43.4515 49.0397C43.4515 49.0397 43.4248 49.003 43.3715 48.9297C43.3115 48.863 43.2648 48.7897 43.2315 48.7097C43.1915 48.6297 43.1648 48.543 43.1515 48.4497C43.1381 48.363 43.1315 48.2797 43.1315 48.1997C43.1381 48.1063 43.1548 48.0197 43.1815 47.9397C43.2081 47.853 43.2448 47.7697 43.2915 47.6897C43.3381 47.6163 43.3948 47.5497 43.4615 47.4897C43.5215 47.423 43.5881 47.3663 43.6615 47.3197C43.7415 47.273 43.8248 47.2363 43.9115 47.2097C43.9915 47.183 44.0781 47.1663 44.1715 47.1597C44.2515 47.1597 44.3348 47.1663 44.4215 47.1797C44.5148 47.193 44.6015 47.2197 44.6815 47.2597C44.7615 47.293 44.8348 47.3397 44.9015 47.3997C44.9748 47.453 45.0115 47.4797 45.0115 47.4797Z" fill="#1E1E1E"/>
<path d="M43.5456 47.9226C44.6556 47.7326 46.9256 48.6826 47.9356 49.4226C48.9456 50.1526 49.3756 51.2126 49.6156 52.3426C49.8556 53.4626 49.9156 55.1326 49.3756 56.1726C48.8256 57.2126 47.4056 58.0526 46.3156 58.6026C45.2356 59.1526 43.9556 59.7326 42.8656 59.4626C41.7656 59.2026 40.3356 58.0726 39.7356 57.0426C39.1356 56.0026 39.1656 54.4326 39.2356 53.2326C39.3156 52.0326 39.4056 50.7226 40.1756 49.8326C40.9456 48.9426 43.2156 48.0526 43.8456 47.8726C44.4756 47.6826 43.9656 48.5826 43.9656 48.7226M43.4456 47.9726C44.5756 47.8126 46.4256 48.2726 47.3756 48.9026C48.3156 49.5226 48.8756 50.6826 49.1056 51.7326C49.3356 52.7726 49.0756 54.0026 48.7456 55.1626C48.4156 56.3126 47.9456 58.0326 47.1156 58.6626C46.2756 59.3026 45.0056 59.1626 43.7356 58.9526C42.4656 58.7326 40.3956 58.1626 39.5156 57.3626C38.6356 56.5626 38.1656 55.3226 38.4556 54.1526C38.7356 52.9826 40.2156 51.2626 41.2156 50.3426C42.2056 49.4226 44.0156 48.9926 44.4056 48.6226C44.8056 48.2526 43.6156 48.0326 43.5756 48.1526" fill="white"/>
<path d="M45.4256 48.6426C46.5256 48.7526 47.9356 49.1926 48.7156 50.1426C49.4856 51.0926 50.1556 53.1326 50.0756 54.3526C49.9956 55.5726 49.0756 56.6226 48.2456 57.4626C47.4156 58.3026 46.2356 59.3526 45.1056 59.4026C43.9656 59.4626 42.4856 58.5426 41.4256 57.8026C40.3656 57.0726 39.0456 55.9626 38.7556 54.9826C38.4556 54.0126 39.1356 53.0526 39.6456 51.9626C40.1556 50.8626 40.8556 49.0526 41.8156 48.4326C42.7656 47.8126 44.6056 48.2526 45.3856 48.2126C46.1556 48.1826 46.4456 48.0426 46.4756 48.2226M45.2956 48.7526C46.3956 48.8926 47.6256 50.0326 48.3456 50.7026C49.0756 51.3726 49.5856 51.6326 49.6556 52.7926C49.7156 53.9526 49.3156 56.7626 48.7456 57.6826C48.1656 58.6126 47.4156 58.2226 46.1956 58.3426C44.9856 58.4626 42.5056 58.8726 41.4356 58.4026C40.3556 57.9226 40.1456 56.6026 39.7456 55.4926C39.3356 54.3926 38.7356 52.7426 39.0256 51.7526C39.3156 50.7526 40.3856 50.1926 41.4756 49.5426C42.5756 48.8826 44.9856 48.0426 45.5856 47.8126C46.1856 47.5926 45.1056 47.9326 45.0756 48.1826" stroke="#1E1E1E" stroke-linecap="round"/>
<path fill-rule="evenodd" clip-rule="evenodd" d="M41.4354 53.2005C41.9354 52.7905 43.4454 50.7805 44.4554 50.7305C45.4754 50.6805 47.0254 52.5305 47.5454 52.8905" fill="white"/>
<path d="M41.4354 53.2005C41.9354 52.7905 43.4454 50.7805 44.4554 50.7305C45.4754 50.6805 47.0254 52.5305 47.5454 52.8905" stroke="#1E1E1E" stroke-width="0.5" stroke-linecap="round"/>
<path fill-rule="evenodd" clip-rule="evenodd" d="M41.5897 53.0766C42.0897 53.4866 43.5997 55.4966 44.6097 55.5466C45.6297 55.5966 47.1797 53.7466 47.6997 53.3866" fill="white"/>
<path d="M41.5897 53.0766C42.0897 53.4866 43.5997 55.4966 44.6097 55.5466C45.6297 55.5966 47.1797 53.7466 47.6997 53.3866" stroke="#1E1E1E" stroke-width="0.5" stroke-linecap="round"/>
<path d="M43.7245 53.084C44.0445 53.094 45.3045 53.114 45.6245 53.124" stroke="#1E1E1E" stroke-width="0.5" stroke-linecap="round"/>
<path d="M49.3712 51.8179C50.7612 50.7579 56.1812 47.7179 58.3412 45.0979C60.4912 42.4779 61.5812 37.6079 62.2912 36.0979M50.1412 51.4779C51.4612 50.5079 56.0812 48.1979 58.0412 45.7479C60.0112 43.2879 61.1112 38.2879 61.9212 36.7579" stroke="#1E1E1E" stroke-linecap="round"/>
<path d="M44.574 47.8497C44.064 46.6397 41.304 43.4697 40.834 40.9397C40.364 38.4097 43.054 35.0597 41.744 32.6997C40.444 30.3297 34.424 27.6197 32.994 26.7497M44.044 47.3197C43.504 45.9197 40.794 42.3697 40.384 40.0297C39.964 37.6997 42.804 35.4897 41.554 33.3097C40.294 31.1397 34.104 27.9197 32.854 26.9897" stroke="#1E1E1E" stroke-linecap="round"/>
<path d="M38.8417 53.1872C37.5317 52.1072 35.0017 47.4872 31.3017 46.4672C27.6017 45.4472 19.0717 46.8472 16.6617 47.0672M38.1517 52.7672C36.7717 51.7872 34.4317 48.0772 31.0217 47.1772C27.6217 46.2872 20.0917 47.2072 17.7317 47.4072" stroke="#1E1E1E" stroke-linecap="round"/>
<path d="M40.6712 57.1351C38.8312 57.7551 32.2512 57.9051 28.9012 61.0051C25.5612 64.1051 21.7212 73.4451 20.6012 75.7351M39.5512 56.1351C38.0812 56.8351 34.4012 59.0451 31.0612 61.9651C27.7212 64.8751 20.8512 71.3551 19.5112 73.6251" stroke="#1E1E1E" stroke-linecap="round"/>
<path d="M49.796 55.3308C51.396 55.9108 56.586 59.3908 60.156 59.3608C63.736 59.3208 69.556 55.8708 71.256 55.1108M50.556 56.2608C52.306 56.6708 57.816 58.6108 61.246 58.4908C64.676 58.3808 69.646 56.1608 71.136 55.5808" stroke="#1E1E1E" stroke-linecap="round"/>
<path d="M45.5333 59.639C45.8333 61.279 47.5033 65.759 47.1333 68.779C46.7733 71.809 43.9533 76.109 43.3533 77.789M46.3933 59.269C46.7033 61.029 47.2633 66.219 46.9433 69.359C46.6133 72.489 45.0033 76.669 44.4233 78.099" stroke="#1E1E1E" stroke-linecap="round"/>
<path fill-rule="evenodd" clip-rule="evenodd" d="M54.3511 59.1034L51.0964 56.1355L55.0833 55.6112L53.4508 59.667" fill="#1E1E1E"/>
<path d="M53.9866 59.2249C53.2685 58.5128 52.7005 57.856 51.6204 56.2752M53.9866 59.2249C53.1031 58.0362 52.1484 56.8959 51.6204 56.2752M53.9866 59.2249C54.6083 57.6529 55.1263 56.5649 55.4147 55.6374M53.9866 59.2249C54.7061 57.561 55.0142 56.6089 55.4147 55.6374M51.6204 56.2752C52.8451 55.959 54.0087 55.9827 55.4147 55.6374M51.6204 56.2752C53.0634 56.0608 54.5223 55.7456 55.4147 55.6374" stroke="#1E1E1E" stroke-linecap="round"/>
<path fill-rule="evenodd" clip-rule="evenodd" d="M55.2375 50.4943L51.6642 50.506L53.7036 47.5468L55.1644 50.0073" fill="#1E1E1E"/>
<path d="M55.666 50.162C54.2227 50.3345 52.6196 50.1819 51.8857 50.2582M55.666 50.162C54.692 50.1778 53.6903 50.1875 51.8857 50.2582M55.666 50.162C54.926 48.7956 54.312 47.9062 53.6764 46.8527M55.666 50.162C55.0443 49.2419 54.434 48.0419 53.6764 46.8527M51.8857 50.2582C52.4674 49.3659 52.9423 48.1385 53.6764 46.8527M51.8857 50.2582C52.2251 49.5439 52.6159 48.8918 53.6764 46.8527" stroke="#1E1E1E" stroke-linecap="round"/>
<path fill-rule="evenodd" clip-rule="evenodd" d="M44.3145 42.6609L44.3281 46.238L40.2937 44.3745L44.3611 42.6181" fill="#1E1E1E"/>
<path d="M44.0924 42.4098C43.9176 43.3647 43.8979 43.9324 43.6375 46.1639M44.0924 42.4098C43.9115 43.7181 43.7488 45.0182 43.6375 46.1639M44.0924 42.4098C43.036 42.9378 41.8217 43.2846 40.5289 43.8966M44.0924 42.4098C42.4322 43.033 41.4519 43.5598 40.5289 43.8966M43.6375 46.1639C42.6546 45.4865 42.0824 44.9429 40.5289 43.8966M43.6375 46.1639C42.7817 45.5501 41.871 44.8623 40.5289 43.8966" stroke="#1E1E1E" stroke-linecap="round"/>
<path fill-rule="evenodd" clip-rule="evenodd" d="M36.5482 47.1575L37.1953 51.4906L33.7253 50.4046L36.3712 47.5031" fill="#1E1E1E"/>
<path d="M35.8986 47.4035C36.186 48.1767 36.4815 49.1624 37.1891 50.958M35.8986 47.4035C36.3069 48.5835 36.8381 49.8502 37.1891 50.958M35.8986 47.4035C34.9168 48.6158 34.1238 49.5949 33.3915 50.3402M35.8986 47.4035C35.2174 48.2287 34.2963 49.2071 33.3915 50.3402M37.1891 50.958C36.1706 50.7379 34.849 50.5426 33.3915 50.3402M37.1891 50.958C36.1736 50.7661 35.2276 50.6948 33.3915 50.3402" stroke="#1E1E1E" stroke-linecap="round"/>
<path fill-rule="evenodd" clip-rule="evenodd" d="M33.5734 57.7778L37.0659 57.8276L34.8111 60.7722L33.285 57.118" fill="#1E1E1E"/>
<path d="M33.1049 57.5409C33.9401 57.7212 34.7036 57.834 36.8475 58.0822M33.1049 57.5409C34.48 57.6894 35.7047 57.9445 36.8475 58.0822M33.1049 57.5409C33.5012 58.7412 34.0533 59.8216 34.5093 61.1378M33.1049 57.5409C33.8778 59.5591 34.2059 60.365 34.5093 61.1378M36.8475 58.0822C35.8837 59.247 35.0582 60.3536 34.5093 61.1378M36.8475 58.0822C36.3156 58.8809 35.675 59.6277 34.5093 61.1378" stroke="#1E1E1E" stroke-linecap="round"/>
<path fill-rule="evenodd" clip-rule="evenodd" d="M44.458 64.6424L45.6486 60.9758L48.1012 63.9916L44.5796 64.6384" fill="#1E1E1E"/>
<path d="M44.674 64.905C45.1787 63.6611 45.6324 62.3663 45.9471 61.3442M44.674 64.905C45.1767 63.6003 45.6949 62.1191 45.9471 61.3442M44.674 64.905C46.5563 64.4756 47.6741 64.4548 48.478 64.2422M44.674 64.905C45.5896 64.6903 47.0309 64.5025 48.478 64.2422M45.9471 61.3442C46.4891 62.0105 47.0919 62.7257 48.478 64.2422M45.9471 61.3442C46.8424 62.3474 47.7731 63.4251 48.478 64.2422" stroke="#1E1E1E" stroke-linecap="round"/>
<path d="M26.6606 22.1115C27.2606 21.9215 29.6506 21.1715 30.2506 20.9915" stroke="#1E1E1E" stroke-linecap="round"/>
<path d="M30.2458 20.9669C30.8858 21.1569 33.4258 21.9069 34.0658 22.0869" stroke="#1E1E1E" stroke-linecap="round"/>
<path d="M34.0083 22.0911C34.0083 22.8611 34.5783 25.4411 33.9883 26.7311C33.3983 28.0211 31.0383 29.3411 30.4383 29.8611" stroke="#1E1E1E" stroke-linecap="round"/>
<path d="M26.7238 22.1227C26.7238 22.8927 26.1538 25.4727 26.7438 26.7627C27.3338 28.0527 29.6938 29.3727 30.2938 29.8927" stroke="#1E1E1E" stroke-linecap="round"/>
<path d="M59.4924 27.7452C60.0924 27.5552 62.4824 26.8052 63.0824 26.6252" stroke="#1E1E1E" stroke-linecap="round"/>
<path d="M63.0777 26.6006C63.7177 26.7906 66.2577 27.5406 66.8977 27.7206" stroke="#1E1E1E" stroke-linecap="round"/>
<path d="M66.8403 27.7248C66.8403 28.4948 67.4103 31.0748 66.8203 32.3648C66.2303 33.6548 63.8703 34.9748 63.2703 35.4948" stroke="#1E1E1E" stroke-linecap="round"/>
<path d="M59.5557 27.7565C59.5557 28.5265 58.9857 31.1065 59.5757 32.3965C60.1657 33.6865 62.5257 35.0065 63.1257 35.5265" stroke="#1E1E1E" stroke-linecap="round"/>
<path d="M71.0402 50.8408C71.6402 50.6508 74.0302 49.9008 74.6302 49.7208" stroke="#1E1E1E" stroke-linecap="round"/>
<path d="M74.6255 49.6961C75.2655 49.8861 77.8055 50.6361 78.4455 50.8161" stroke="#1E1E1E" stroke-linecap="round"/>
<path d="M78.388 50.8203C78.388 51.5903 78.958 54.1703 78.368 55.4603C77.778 56.7503 75.418 58.0703 74.818 58.5903" stroke="#1E1E1E" stroke-linecap="round"/>
<path d="M71.1035 50.852C71.1035 51.622 70.5335 54.202 71.1235 55.492C71.7135 56.782 74.0735 58.102 74.6735 58.622" stroke="#1E1E1E" stroke-linecap="round"/>
<path d="M37.7206 79.6346C38.3131 79.4225 40.6737 78.5844 41.2666 78.3823" stroke="#1E1E1E" stroke-linecap="round"/>
<path d="M41.2609 78.3578C41.9075 78.5239 44.4736 79.1793 45.1198 79.3355" stroke="#1E1E1E" stroke-linecap="round"/>
<path d="M45.0624 79.3372C45.091 80.1067 45.7562 82.6638 45.2144 83.9748C44.6726 85.2858 42.3631 86.6923 41.7828 87.2342" stroke="#1E1E1E" stroke-linecap="round"/>
<path d="M37.7842 79.648C37.8127 80.4175 37.3387 83.0168 37.9761 84.2841C38.6135 85.5514 41.0208 86.783 41.6396 87.2804" stroke="#1E1E1E" stroke-linecap="round"/>
<path d="M13.4043 73.3934C14.0242 73.285 16.4928 72.8599 17.1114 72.7613" stroke="#1E1E1E" stroke-linecap="round"/>
<path d="M17.11 72.7363C17.719 73.0098 20.1365 74.0913 20.7469 74.3549" stroke="#1E1E1E" stroke-linecap="round"/>
<path d="M20.6883 74.3679C20.5858 75.1311 20.8072 77.764 20.0507 78.964C19.2942 80.1639 16.7795 81.158 16.1156 81.5935" stroke="#1E1E1E" stroke-linecap="round"/>
<path d="M13.4665 73.3964C13.364 74.1596 12.4556 76.6407 12.8686 77.9978C13.2816 79.3548 15.4449 80.9773 15.9703 81.5725" stroke="#1E1E1E" stroke-linecap="round"/>
<path d="M9.77505 44.5258C10.3751 44.3358 12.7651 43.5858 13.3651 43.4058" stroke="#1E1E1E" stroke-linecap="round"/>
<path d="M13.3603 43.3811C14.0003 43.5711 16.5403 44.3211 17.1803 44.5011" stroke="#1E1E1E" stroke-linecap="round"/>
<path d="M17.1228 44.5053C17.1228 45.2753 17.6928 47.8553 17.1028 49.1453C16.5128 50.4353 14.1528 51.7553 13.5528 52.2753" stroke="#1E1E1E" stroke-linecap="round"/>
<path d="M9.83827 44.537C9.83827 45.307 9.26827 47.887 9.85827 49.177C10.4483 50.467 12.8083 51.787 13.4083 52.307" stroke="#1E1E1E" stroke-linecap="round"/>
</svg>
