<svg width="84" height="126" viewBox="0 0 84 126" fill="none" xmlns="http://www.w3.org/2000/svg">
<path d="M21.8091 2.16176C38.8591 0.881759 56.4091 1.42176 62.2091 2.16176C72.8691 3.90176 83.1791 11.2518 82.4091 22.3618C83.8091 39.5318 84.4091 58.2218 82.4091 103.912C85.2991 113.972 75.0991 124.052 62.2091 124.112C50.1091 122.882 45.2491 125.272 21.8091 124.112C8.64906 121.742 -1.96094 116.802 1.60906 103.912C0.489061 73.4718 3.85906 44.3118 1.60906 22.3618C3.07906 5.61176 6.32906 4.86176 21.8091 2.16176Z" fill="white"/>
<path d="M21.8091 2.16175C38.1891 2.39175 53.7991 0.561753 62.2091 2.16175M21.8091 2.16175C36.3391 2.45175 49.2791 0.991753 62.2091 2.16175M21.8091 2.16175C6.62906 1.18175 0.0290585 7.24175 1.60906 22.3618M21.8091 2.16175C6.38906 4.44175 1.22906 10.1918 1.60906 22.3618M62.2091 2.16175C73.6891 2.20175 82.8591 8.92175 82.4091 22.3618M62.2091 2.16175C77.4591 1.70175 84.2091 9.62175 82.4091 22.3618M82.4091 22.3618C82.9291 45.5718 82.5891 71.4018 82.4091 103.912M82.4091 22.3618C80.7291 52.4318 80.6891 83.5118 82.4091 103.912M82.4091 103.912C81.0691 117.072 76.9891 125.832 62.2091 124.112M82.4091 103.912C81.1891 115.392 76.1491 124.752 62.2091 124.112M62.2091 124.112C45.7391 124.162 32.9791 122.802 21.8091 124.112M62.2091 124.112C49.0691 124.342 37.3291 123.652 21.8091 124.112M21.8091 124.112C7.78906 125.742 2.21906 117.822 1.60906 103.912M21.8091 124.112C6.04906 124.592 -0.290941 117.292 1.60906 103.912M1.60906 103.912C2.52906 75.5218 2.41906 49.8518 1.60906 22.3618M1.60906 103.912C3.14906 83.1118 3.14906 60.1018 1.60906 22.3618" stroke="#1E1E1E" stroke-width="2" stroke-linecap="round"/>
<path d="M10.4243 90.3843C21.4143 90.3843 65.3943 90.3843 76.3843 90.3843" stroke="#1E1E1E" stroke-width="2" stroke-linecap="round"/>
<path d="M23.1366 2.04858C32.0966 2.04858 41.0566 2.04858 59.5266 2.04858C62.0066 2.04858 63.2566 3.28858 63.2566 5.77858C63.2566 8.14858 63.2566 10.5286 63.2566 13.2286C63.2566 15.7086 62.0066 16.9486 59.5266 16.9486C49.4066 16.9486 39.2966 16.9486 23.1366 16.9486C20.6466 16.9486 19.4066 15.7086 19.4066 13.2286C19.4066 11.4686 19.4066 9.71858 19.4066 5.77858C19.4066 3.28858 20.6466 2.04858 23.1366 2.04858Z" fill="white"/>
<path d="M23.1366 2.04858C34.0966 2.04858 45.0566 2.04858 59.5266 2.04858M23.1366 2.04858C36.0966 2.04858 49.0566 2.04858 59.5266 2.04858M23.1366 2.04858C20.6466 2.04858 19.4066 3.28858 19.4066 5.77858M59.5266 2.04858C62.0066 2.04858 63.2566 3.28858 63.2566 5.77858M63.2566 5.77858C63.2566 7.69858 63.2566 9.61858 63.2566 13.2286M63.2566 5.77858C63.2566 7.79858 63.2566 9.81858 63.2566 13.2286M63.2566 13.2286C63.2566 15.7086 62.0066 16.9486 59.5266 16.9486M59.5266 16.9486C48.8166 16.9486 38.1066 16.9486 23.1366 16.9486M59.5266 16.9486C48.0366 16.9486 36.5466 16.9486 23.1366 16.9486M23.1366 16.9486C20.6466 16.9486 19.4066 15.7086 19.4066 13.2286M19.4066 13.2286C19.4066 11.4886 19.4066 9.74858 19.4066 5.77858M19.4066 13.2286C19.4066 10.4386 19.4066 7.63858 19.4066 5.77858" stroke="#1E1E1E" stroke-width="2" stroke-linecap="round"/>
<path d="M38.0231 8.54039V9.16097H35.5533V8.54039H38.0231ZM36.2731 7.39854H37.0054V11.9411C37.0054 12.148 37.0354 12.3031 37.0954 12.4066C37.1574 12.5079 37.2361 12.5762 37.3312 12.6114C37.4284 12.6445 37.5308 12.661 37.6384 12.661C37.7191 12.661 37.7853 12.6569 37.837 12.6486C37.8887 12.6382 37.9301 12.63 37.9611 12.6238L38.11 13.2816C38.0604 13.3002 37.9911 13.3188 37.9021 13.3374C37.8132 13.3581 37.7004 13.3685 37.5639 13.3685C37.3571 13.3685 37.1543 13.324 36.9558 13.235C36.7592 13.1461 36.5958 13.0106 36.4655 12.8286C36.3373 12.6465 36.2731 12.4169 36.2731 12.1397V7.39854ZM41.1974 8.54039V9.16097H38.7275V8.54039H41.1974ZM39.4474 7.39854H40.1796V11.9411C40.1796 12.148 40.2096 12.3031 40.2696 12.4066C40.3317 12.5079 40.4103 12.5762 40.5054 12.6114C40.6027 12.6445 40.7051 12.661 40.8126 12.661C40.8933 12.661 40.9595 12.6569 41.0112 12.6486C41.0629 12.6382 41.1043 12.63 41.1353 12.6238L41.2843 13.2816C41.2346 13.3002 41.1653 13.3188 41.0764 13.3374C40.9874 13.3581 40.8747 13.3685 40.7382 13.3685C40.5313 13.3685 40.3286 13.324 40.13 13.235C39.9335 13.1461 39.7701 13.0106 39.6397 12.8286C39.5115 12.6465 39.4474 12.4169 39.4474 12.1397V7.39854ZM43.1336 6.95173V13.3064H42.4013V6.95173H43.1336Z" fill="#1E1E1E"/>
<path d="M43.6174 40.6228C45.8874 38.1728 54.4774 28.3428 56.5174 25.9928M43.2174 40.3028C45.4374 37.8728 53.8674 28.6328 56.1474 26.4328" stroke="#1E1E1E" stroke-width="2" stroke-linecap="round"/>
<path d="M56.6649 25.1261C59.1849 28.1861 69.7149 41.8761 72.6249 45.2261M55.3549 27.1661C58.1249 30.3761 71.6949 43.5461 74.7049 46.7761" stroke="#1E1E1E" stroke-width="2" stroke-linecap="round"/>
<path d="M71.1554 47.8916C66.5354 53.4416 49.1754 74.7416 44.9154 80.0616M72.7254 46.8616C67.9554 52.7116 48.6854 75.9216 44.1054 81.6116" stroke="#1E1E1E" stroke-width="2" stroke-linecap="round"/>
<path d="M43.652 40.3228C41.612 37.9928 32.852 28.6628 30.692 26.3828M43.062 39.8528C41.022 37.6128 32.562 29.3828 30.482 27.0228" stroke="#1E1E1E" stroke-width="2" stroke-linecap="round"/>
<path d="M31.1946 25.9762C28.3646 28.9862 16.6346 41.3462 13.5246 44.3162M30.2246 24.8062C27.2946 27.4462 16.1546 39.0262 13.0646 42.3962" stroke="#1E1E1E" stroke-width="2" stroke-linecap="round"/>
<path d="M13.4748 48.7572C18.3848 54.3472 37.8548 76.0972 42.9548 81.6672M12.5048 47.9172C17.1748 53.7072 36.7448 77.7672 41.9748 83.1172" stroke="#1E1E1E" stroke-width="2" stroke-linecap="round"/>
<path d="M43.0098 51.6646C43.8398 50.8046 47.4998 47.5046 48.2998 46.6646M42.5798 51.3346C43.3698 50.3546 47.3598 46.8146 48.1898 46.0946" stroke="#1E1E1E" stroke-linecap="round"/>
<path d="M48.2972 46.5579C49.1872 47.3279 52.4072 50.2479 53.2872 51.0279M48.0372 46.3079C48.8672 47.1479 52.0272 50.7779 52.9372 51.5079" stroke="#1E1E1E" stroke-linecap="round"/>
<path d="M53.4162 51.6816C51.7962 54.1516 46.0462 64.2616 44.4162 66.6316M54.2961 51.2416C52.5861 53.5516 45.7161 63.3516 44.1161 65.8716" stroke="#1E1E1E" stroke-linecap="round"/>
<path d="M43.3443 51.9646C42.4943 51.0646 38.8043 47.2646 37.8943 46.3446M43.0043 51.7846C42.2643 50.9246 39.2543 47.5246 38.5243 46.6846" stroke="#1E1E1E" stroke-linecap="round"/>
<path d="M37.8969 46.2379C36.9069 46.9379 33.3669 50.0679 32.4569 50.8779M38.3669 46.8979C37.4669 47.6279 33.9669 50.6779 33.0869 51.2779" stroke="#1E1E1E" stroke-linecap="round"/>
<path d="M32.078 51.4416C33.658 53.9716 39.928 64.0216 41.528 66.4716M32.818 50.8816C34.608 53.2816 40.838 62.9916 42.498 65.6316" stroke="#1E1E1E" stroke-linecap="round"/>
<path d="M40.9227 44.0866C43.3827 43.6666 47.5827 44.6266 49.8427 46.0066C52.1127 47.3866 53.7827 49.7866 54.5327 52.3566C55.2727 54.9166 55.2327 58.8066 54.3027 61.3866C53.3827 63.9666 51.2227 66.5766 48.9627 67.8566C46.6927 69.1366 43.4527 69.7166 40.7127 69.0766C37.9827 68.4266 34.2627 66.2266 32.5427 63.9766C30.8227 61.7266 30.1227 58.3066 30.3827 55.5766C30.6427 52.8366 32.2727 49.5366 34.1027 47.5566C35.9427 45.5766 40.0027 44.2366 41.4027 43.6866C42.8027 43.1266 42.4427 44.0566 42.5227 44.2366M39.2127 43.6966C41.5927 42.7666 45.3927 43.3666 47.9727 44.4966C50.5527 45.6266 53.4527 48.0366 54.6927 50.4666C55.9427 52.8966 56.2827 56.2766 55.4427 59.0866C54.6127 61.9066 52.0227 65.6566 49.6727 67.3366C47.3227 69.0166 44.0227 69.4866 41.3527 69.1566C38.6827 68.8166 35.3527 67.4266 33.6327 65.3466C31.9027 63.2766 31.0427 59.5166 31.0027 56.7066C30.9727 53.8966 32.0127 50.5366 33.4027 48.4866C34.8027 46.4266 38.3027 44.9766 39.3727 44.3666C40.4527 43.7566 39.7527 44.7166 39.8727 44.8266" fill="white"/>
<path d="M41.3227 43.6366C43.7627 43.0166 46.6627 44.0966 48.9527 45.5666C51.2327 47.0266 54.0427 49.8866 55.0227 52.4466C56.0027 55.0066 55.8527 58.4666 54.8227 60.9366C53.7927 63.4066 51.1627 66.0466 48.8327 67.2866C46.5027 68.5266 43.4427 68.9466 40.8527 68.3866C38.2627 67.8266 35.0327 66.0166 33.3027 63.9266C31.5727 61.8366 30.4427 58.4866 30.4727 55.8366C30.5027 53.1866 31.7127 50.0466 33.4627 48.0166C35.2227 45.9966 39.5727 44.3466 41.0127 43.7066C42.4527 43.0666 42.0127 44.0566 42.1027 44.1966M43.9027 44.0866C46.5127 44.1466 49.3327 45.7466 51.1827 47.6066C53.0327 49.4666 54.6227 52.6966 55.0227 55.2566C55.4327 57.8166 55.1127 60.8166 53.6027 62.9566C52.0927 65.0866 48.4627 67.1666 45.9627 68.0866C43.4727 69.0166 40.9027 69.6066 38.6327 68.5166C36.3627 67.4166 33.7427 64.1266 32.3327 61.5266C30.9127 58.9166 29.7127 55.4866 30.1127 52.8766C30.5227 50.2766 32.5327 47.3466 34.7727 45.8966C37.0027 44.4466 42.1627 44.3566 43.5427 44.1666C44.9127 43.9766 42.8927 44.6066 43.0127 44.7366" stroke="#1E1E1E" stroke-linecap="round"/>
<path d="M42.4462 56.8021C42.5262 55.2521 42.8362 49.3521 42.8262 47.7321M42.9662 56.4621C43.0562 54.8121 42.8162 48.7821 42.6762 47.2721" stroke="#1E1E1E" stroke-linecap="round"/>
<path d="M50.6864 60.0904C49.4564 59.3904 44.0664 56.2504 42.7964 55.5604M50.3764 59.9404C49.2864 59.2804 44.7464 56.6204 43.4964 55.8604" stroke="#1E1E1E" stroke-linecap="round"/>
</svg>
