<svg width="85" height="126" viewBox="0 0 85 126" fill="none" xmlns="http://www.w3.org/2000/svg">
<path d="M22.9748 2.31562C36.7148 0.65562 54.1948 -0.37438 63.3748 2.31562C75.8348 3.12562 85.0648 9.84562 83.5748 22.5156C82.0348 45.5656 82.5948 74.7056 83.5748 104.066C86.1848 119.396 74.4948 123.466 63.3748 124.266C52.5048 123.796 35.4548 120.496 22.9748 124.266C6.80483 120.856 2.60483 118.266 2.77483 104.066C1.85483 78.3856 7.22483 53.3856 2.77483 22.5156C3.63483 10.2656 8.69483 5.20562 22.9748 2.31562Z" fill="white"/>
<path d="M22.9748 2.31562C36.6648 2.78562 54.6048 3.86562 63.3748 2.31562M22.9748 2.31562C37.5348 2.13562 53.2348 3.31562 63.3748 2.31562M22.9748 2.31562C10.3448 1.21562 2.6548 9.12562 2.7748 22.5156M22.9748 2.31562C9.5148 0.995622 1.0648 6.87562 2.7748 22.5156M63.3748 2.31562C77.2748 2.07562 81.7448 7.97562 83.5748 22.5156M63.3748 2.31562C78.7548 4.08562 85.7448 8.98562 83.5748 22.5156M83.5748 22.5156C81.3548 53.3356 81.8548 85.4956 83.5748 104.066M83.5748 22.5156C83.7348 41.2756 82.6548 60.4056 83.5748 104.066M83.5748 104.066C83.8748 115.826 78.4348 124.326 63.3748 124.266M83.5748 104.066C85.1348 116.246 74.6348 123.736 63.3748 124.266M63.3748 124.266C47.6048 124.036 32.2348 122.916 22.9748 124.266M63.3748 124.266C48.2948 125.076 34.2948 123.836 22.9748 124.266M22.9748 124.266C11.4848 123.106 2.5248 116.546 2.7748 104.066M22.9748 124.266C10.9948 124.146 4.8548 118.176 2.7748 104.066M2.7748 104.066C1.0748 74.8556 0.884804 43.6556 2.7748 22.5156M2.7748 104.066C3.1148 73.5756 2.2448 43.0756 2.7748 22.5156" stroke="#1E1E1E" stroke-width="2" stroke-linecap="round"/>
<path d="M11.5901 90.5381C22.5801 90.5381 66.5601 90.5381 77.5501 90.5381" stroke="#1E1E1E" stroke-width="2" stroke-linecap="round"/>
<path d="M10.8588 106.135C10.8488 105.235 10.8288 101.625 10.8188 100.725" stroke="#1E1E1E" stroke-linecap="round"/>
<path d="M10.7869 100.928C11.0369 100.568 12.0469 99.148 12.2969 98.788" stroke="#1E1E1E" stroke-linecap="round"/>
<path d="M13.7896 106.199C13.7996 105.299 13.8196 101.689 13.8296 100.789" stroke="#1E1E1E" stroke-linecap="round"/>
<path d="M13.8616 100.992C13.6116 100.632 12.6016 99.2122 12.3516 98.8522" stroke="#1E1E1E" stroke-linecap="round"/>
<path d="M8.64661 106.686C9.82661 106.666 14.5266 106.586 15.6966 106.566" stroke="#1E1E1E" stroke-linecap="round"/>
<path d="M12.5051 106.776C12.5151 107.406 12.5551 109.946 12.5651 110.576" stroke="#1E1E1E" stroke-linecap="round"/>
<path d="M53.9163 101.857C54.2763 101.487 55.7163 99.9872 56.0763 99.6072" stroke="#1E1E1E" stroke-linecap="round"/>
<path d="M56.0718 99.567C56.4718 99.897 58.0518 101.217 58.4518 101.547" stroke="#1E1E1E" stroke-linecap="round"/>
<path d="M58.5417 101.812C57.8517 102.872 55.1017 107.122 54.4117 108.192" stroke="#1E1E1E" stroke-linecap="round"/>
<path d="M53.9837 101.857C53.6237 101.487 52.1837 99.9872 51.8237 99.6072" stroke="#1E1E1E" stroke-linecap="round"/>
<path d="M51.8282 99.567C51.4282 99.897 49.8482 101.217 49.4482 101.547" stroke="#1E1E1E" stroke-linecap="round"/>
<path d="M49.3583 101.812C50.0483 102.872 52.7983 107.122 53.4883 108.192" stroke="#1E1E1E" stroke-linecap="round"/>
<path d="M24.3023 2.20239C35.9623 2.20239 47.6323 2.20239 60.6923 2.20239C63.1723 2.20239 64.4223 3.44239 64.4223 5.93239C64.4223 8.76239 64.4223 11.5924 64.4223 13.3824C64.4223 15.8624 63.1723 17.1024 60.6923 17.1024C50.4523 17.1024 40.2223 17.1024 24.3023 17.1024C21.8123 17.1024 20.5723 15.8624 20.5723 13.3824C20.5723 11.0924 20.5723 8.80239 20.5723 5.93239C20.5723 3.44239 21.8123 2.20239 24.3023 2.20239Z" fill="white"/>
<path d="M24.3023 2.20239C38.4923 2.20239 52.6823 2.20239 60.6923 2.20239M24.3023 2.20239C35.3323 2.20239 46.3723 2.20239 60.6923 2.20239M24.3023 2.20239C21.8123 2.20239 20.5723 3.44239 20.5723 5.93239M60.6923 2.20239C63.1723 2.20239 64.4223 3.44239 64.4223 5.93239M64.4223 5.93239C64.4223 7.95239 64.4223 9.97239 64.4223 13.3824M64.4223 5.93239C64.4223 7.79239 64.4223 9.66239 64.4223 13.3824M64.4223 13.3824C64.4223 15.8624 63.1723 17.1024 60.6923 17.1024M60.6923 17.1024C49.6323 17.1024 38.5823 17.1024 24.3023 17.1024M60.6923 17.1024C51.7823 17.1024 42.8723 17.1024 24.3023 17.1024M24.3023 17.1024C21.8123 17.1024 20.5723 15.8624 20.5723 13.3824M20.5723 13.3824C20.5723 10.9824 20.5723 8.58239 20.5723 5.93239M20.5723 13.3824C20.5723 11.3124 20.5723 9.23239 20.5723 5.93239" stroke="#1E1E1E" stroke-width="2" stroke-linecap="round"/>
<path d="M36.6747 11.9612V5.60657H37.4069V7.95234H37.469C37.5228 7.8696 37.5972 7.7641 37.6924 7.63585C37.7896 7.50553 37.9282 7.38969 38.1082 7.28833C38.2902 7.1849 38.5364 7.13318 38.8467 7.13318C39.248 7.13318 39.6017 7.23351 39.9078 7.43416C40.214 7.63481 40.4529 7.91924 40.6246 8.28745C40.7963 8.65566 40.8821 9.09006 40.8821 9.59065C40.8821 10.0954 40.7963 10.5329 40.6246 10.9032C40.4529 11.2714 40.215 11.5568 39.911 11.7596C39.6069 11.9602 39.2562 12.0605 38.8591 12.0605C38.5529 12.0605 38.3078 12.0099 38.1237 11.9085C37.9396 11.8051 37.7979 11.6882 37.6986 11.5579C37.5993 11.4255 37.5228 11.3158 37.469 11.229H37.3821V11.9612H36.6747ZM37.3945 9.57824C37.3945 9.93817 37.4473 10.2557 37.5528 10.5308C37.6583 10.8039 37.8124 11.018 38.0151 11.1731C38.2178 11.3262 38.4661 11.4027 38.7598 11.4027C39.0659 11.4027 39.3214 11.3221 39.5262 11.1607C39.7331 10.9973 39.8882 10.778 39.9916 10.5029C40.0971 10.2257 40.1499 9.91749 40.1499 9.57824C40.1499 9.24313 40.0982 8.94112 39.9947 8.6722C39.8934 8.40122 39.7393 8.18712 39.5324 8.02991C39.3276 7.87063 39.0701 7.79099 38.7598 7.79099C38.4619 7.79099 38.2116 7.86649 38.0089 8.0175C37.8062 8.16644 37.6531 8.37536 37.5497 8.64428C37.4462 8.91112 37.3945 9.22245 37.3945 9.57824ZM45.0059 10.0126V7.19524H45.7381V11.9612H45.0059V11.1545H44.9562C44.8445 11.3965 44.6707 11.6023 44.4349 11.772C44.1991 11.9395 43.9012 12.0233 43.5413 12.0233C43.2434 12.0233 42.9787 11.9581 42.747 11.8278C42.5153 11.6954 42.3333 11.4968 42.2009 11.2321C42.0685 10.9652 42.0023 10.6291 42.0023 10.2236V7.19524H42.7346V10.174C42.7346 10.5215 42.8318 10.7987 43.0262 11.0056C43.2227 11.2124 43.473 11.3158 43.7771 11.3158C43.9592 11.3158 44.1443 11.2693 44.3325 11.1762C44.5228 11.0831 44.6821 10.9404 44.8104 10.748C44.9407 10.5556 45.0059 10.3105 45.0059 10.0126ZM49.0031 13.8478C48.6494 13.8478 48.3453 13.8023 48.0909 13.7113C47.8364 13.6223 47.6244 13.5044 47.4548 13.3575C47.2872 13.2127 47.1538 13.0576 47.0545 12.8921L47.6379 12.4825C47.7041 12.5694 47.7878 12.6687 47.8892 12.7804C47.9906 12.8942 48.1292 12.9924 48.305 13.0752C48.4829 13.16 48.7156 13.2024 49.0031 13.2024C49.3879 13.2024 49.7054 13.1093 49.9557 12.9231C50.206 12.737 50.3312 12.4453 50.3312 12.0481V11.08H50.2691C50.2153 11.1669 50.1388 11.2745 50.0395 11.4027C49.9423 11.5289 49.8016 11.6416 49.6175 11.7409C49.4355 11.8382 49.1893 11.8868 48.879 11.8868C48.4943 11.8868 48.1488 11.7958 47.8427 11.6137C47.5386 11.4317 47.2976 11.1669 47.1197 10.8194C46.9439 10.4719 46.8559 10.0499 46.8559 9.55342C46.8559 9.06523 46.9418 8.64014 47.1135 8.27814C47.2852 7.91407 47.5241 7.63274 47.8302 7.43416C48.1364 7.23351 48.4901 7.13318 48.8914 7.13318C49.2017 7.13318 49.4479 7.1849 49.6299 7.28833C49.814 7.38969 49.9547 7.50553 50.0519 7.63585C50.1512 7.7641 50.2277 7.8696 50.2815 7.95234H50.356V7.19524H51.0634V12.0978C51.0634 12.5073 50.9703 12.8404 50.7842 13.0969C50.6001 13.3555 50.3518 13.5447 50.0395 13.6647C49.7292 13.7868 49.3837 13.8478 49.0031 13.8478ZM48.9783 11.229C49.272 11.229 49.5203 11.1617 49.723 11.0273C49.9257 10.8928 50.0798 10.6994 50.1853 10.447C50.2908 10.1947 50.3436 9.89266 50.3436 9.54101C50.3436 9.19762 50.2919 8.89458 50.1884 8.63187C50.085 8.36916 49.9319 8.16333 49.7292 8.0144C49.5265 7.86546 49.2762 7.79099 48.9783 7.79099C48.668 7.79099 48.4094 7.8696 48.2026 8.02681C47.9978 8.18402 47.8437 8.39501 47.7403 8.65979C47.6389 8.92457 47.5882 9.21831 47.5882 9.54101C47.5882 9.87198 47.6399 10.1647 47.7434 10.4191C47.8489 10.6715 48.004 10.8701 48.2088 11.0149C48.4157 11.1576 48.6722 11.229 48.9783 11.229Z" fill="#1E1E1E"/>
<path d="M33.3594 53.9665C31.9794 53.6865 27.2694 53.8965 24.7394 51.7865C22.2094 49.6865 19.1094 43.0465 18.1794 41.3365M32.9194 53.4965C31.4994 53.3265 26.7894 54.2665 24.4994 52.3265C22.2194 50.3965 20.0594 43.5765 19.2294 41.8765" stroke="#1E1E1E" stroke-width="2" stroke-linecap="round"/>
<path d="M32.5961 59.5298C30.7861 59.3698 24.5261 60.0098 21.7661 58.8998C18.9961 57.7998 16.9761 53.9298 16.0361 52.8998M32.1261 60.5598C30.4361 60.4898 25.4261 60.7098 22.7261 59.5398C20.0261 58.3698 17.2361 54.6198 15.9161 53.5498" stroke="#1E1E1E" stroke-width="2" stroke-linecap="round"/>
<path d="M32.0427 64.332C30.9627 65.102 26.7027 66.492 26.4327 68.732C26.1627 70.962 29.8727 76.252 30.4227 77.762M32.7727 63.792C31.6227 64.412 26.6327 65.392 26.2327 67.812C25.8227 70.232 29.7427 76.572 30.3327 78.312" stroke="#1E1E1E" stroke-width="2" stroke-linecap="round"/>
<path fill-rule="evenodd" clip-rule="evenodd" d="M39.1439 49.9632C37.5939 49.3832 31.4239 48.4132 30.1839 46.1232C28.9339 43.8332 31.1639 37.7132 31.6639 36.2132C32.1739 34.7132 32.8539 36.7832 33.1939 37.1132C33.5339 37.4432 33.5939 37.5332 33.7039 38.1932C33.8039 38.8532 33.7639 40.5732 33.8339 41.0832C33.8939 41.5832 33.8839 40.6532 34.0839 41.2332C34.2839 41.8132 34.2339 44.0132 35.0339 44.5832C35.8239 45.1432 38.5539 44.7332 38.8739 44.6332" fill="white"/>
<path d="M38.4539 49.2032C37.3539 48.8832 32.1639 49.0432 30.8739 47.0632C29.5839 45.0832 30.4039 39.0932 30.7239 37.3132C31.0539 35.5232 32.1839 35.9532 32.8039 36.3332C33.4339 36.7132 34.3439 38.6332 34.4739 39.5832C34.6139 40.5332 33.4039 41.6332 33.6139 42.0532C33.8139 42.4732 35.3639 41.7332 35.7139 42.0932C36.0539 42.4432 35.2739 43.6732 35.6739 44.2032C36.0739 44.7332 37.6439 45.0532 38.1239 45.2632M38.0139 48.7732C36.9339 48.5532 31.9939 49.5232 30.7039 47.7032C29.4139 45.8832 29.9639 39.9132 30.2939 37.8632C30.6239 35.8032 32.0739 35.0332 32.6739 35.3632C33.2739 35.6832 33.6539 38.7332 33.9039 39.8032C34.1439 40.8832 33.7939 41.2632 34.1739 41.7932C34.5439 42.3232 35.9239 42.6532 36.1439 43.0032C36.3639 43.3532 35.0139 43.3532 35.4839 43.8832C35.9639 44.4032 38.6739 45.9232 38.9939 46.1632" stroke="#1E1E1E" stroke-linecap="round"/>
<path d="M54.8485 54.1963C56.1685 53.8463 60.5185 54.3463 62.7185 52.3463C64.9285 50.3463 67.0785 43.9163 68.0785 42.1763M54.4485 53.6663C55.6485 53.3963 59.7585 55.0563 62.2085 52.9963C64.6585 50.9363 68.0285 43.0563 69.1585 41.2963" stroke="#1E1E1E" stroke-width="2" stroke-linecap="round"/>
<path d="M54.8618 60.0895C56.3618 60.0295 61.6618 60.8895 64.5018 59.7395C67.3318 58.5995 70.6818 54.2695 71.8518 53.2395M55.7818 59.5695C57.3918 59.3595 62.8518 59.9095 65.4918 58.9695C68.1218 58.0195 70.5818 54.9395 71.5918 53.8795" stroke="#1E1E1E" stroke-width="2" stroke-linecap="round"/>
<path d="M54.2151 65.1717C55.3651 65.9017 60.9551 66.8217 61.4551 69.0617C61.9451 71.3117 57.8251 77.1517 57.1851 78.6317M54.9751 64.8817C56.0851 65.4417 60.8151 66.0017 61.1151 68.1517C61.4051 70.2917 57.2951 76.0817 56.7551 77.7717" stroke="#1E1E1E" stroke-width="2" stroke-linecap="round"/>
<path fill-rule="evenodd" clip-rule="evenodd" d="M48.6541 48.1529C49.9541 47.5429 55.8941 48.8729 56.9541 46.9529C58.0141 45.0329 55.5241 38.3929 55.0141 36.6329C54.5041 34.8629 54.1141 36.0029 53.8841 36.3829C53.6541 36.7629 53.9141 38.2529 53.6441 38.9329C53.3741 39.6129 52.5741 39.9729 52.2741 40.4429C51.9741 40.9129 51.7341 40.9429 51.8241 41.7729C51.9241 42.6029 53.0441 44.7529 52.8341 45.4329C52.6241 46.1129 51.2541 45.4929 50.5541 45.8329" fill="white"/>
<path d="M49.4341 49.5329C50.7541 49.2229 55.5341 49.9329 56.7341 47.9229C57.9341 45.9129 57.0141 39.4729 56.6441 37.4829C56.2741 35.5029 55.1541 35.6529 54.5241 36.0029C53.9041 36.3529 53.0041 38.5729 52.8941 39.5629C52.7741 40.5629 53.9441 41.4129 53.8441 41.9629C53.7541 42.5129 52.5441 42.3329 52.3241 42.8629C52.1041 43.4029 53.0641 44.7129 52.5141 45.1529C51.9541 45.6029 49.5341 45.4829 49.0041 45.5329M48.8641 49.1129C50.1441 48.6129 54.9641 49.0329 56.2241 47.1729C57.4841 45.3129 56.9341 39.7529 56.4341 37.9429C55.9441 36.1429 53.9541 36.0629 53.2541 36.3429C52.5441 36.6129 52.2241 38.7529 52.1841 39.6029C52.1441 40.4629 53.1741 41.0229 53.0041 41.4829C52.8441 41.9329 51.3341 41.7229 51.2041 42.3329C51.0741 42.9429 52.4641 44.4729 52.2441 45.1529C52.0241 45.8329 50.2841 46.4029 49.8741 46.3929" stroke="#1E1E1E" stroke-linecap="round"/>
<path d="M41.445 43.7232C43.415 42.9332 46.385 43.5732 48.425 45.0032C50.455 46.4332 52.695 49.6832 53.635 52.3032C54.565 54.9232 54.775 58.1032 54.035 60.7132C53.295 63.3232 51.125 66.3132 49.185 67.9532C47.235 69.5832 44.535 70.8532 42.375 70.5132C40.215 70.1832 37.765 68.1432 36.235 65.9432C34.705 63.7432 33.295 60.1432 33.205 57.3332C33.125 54.5332 34.285 51.2932 35.745 49.1232C37.195 46.9532 40.915 45.1032 41.955 44.3332C42.985 43.5632 42.015 44.3532 41.955 44.5132M44.435 43.5732C46.695 43.7932 50.255 46.0232 51.835 48.0932C53.405 50.1532 53.865 53.3132 53.885 55.9732C53.915 58.6432 53.175 61.6532 51.985 64.0732C50.795 66.4932 48.975 69.6432 46.755 70.4832C44.535 71.3232 40.715 70.4932 38.685 69.1032C36.655 67.7132 35.455 64.6432 34.575 62.1432C33.705 59.6432 32.935 56.6632 33.455 54.0832C33.975 51.4932 35.785 48.2432 37.685 46.6332C39.575 45.0332 43.575 44.7532 44.815 44.4532C46.055 44.1432 45.155 44.6132 45.105 44.8132" fill="white"/>
<path d="M44.775 43.9332C46.955 44.0732 49.725 46.2832 51.325 48.4432C52.925 50.6032 54.195 54.0532 54.375 56.8832C54.555 59.7032 53.715 63.2232 52.375 65.3832C51.035 67.5432 48.665 69.2532 46.355 69.8532C44.045 70.4632 40.655 70.3032 38.515 69.0132C36.375 67.7332 34.275 64.8132 33.505 62.1432C32.725 59.4632 33.185 55.6732 33.865 52.9832C34.535 50.2932 35.615 47.5632 37.545 46.0132C39.465 44.4632 44.055 43.9432 45.415 43.6832C46.775 43.4232 45.705 44.1332 45.705 44.4532M42.255 43.5832C44.535 43.2132 47.675 44.6032 49.725 46.1632C51.775 47.7332 53.965 50.2332 54.575 52.9932C55.195 55.7532 54.465 60.1632 53.415 62.7532C52.375 65.3332 50.265 67.2432 48.305 68.4932C46.345 69.7532 43.795 70.7832 41.655 70.2532C39.515 69.7332 36.785 67.6732 35.455 65.3432C34.125 63.0132 33.725 59.2332 33.685 56.2632C33.645 53.2932 33.855 49.5832 35.205 47.5232C36.555 45.4532 40.515 44.3332 41.785 43.8532C43.055 43.3832 42.805 44.4532 42.825 44.6732" stroke="#1E1E1E" stroke-width="2" stroke-linecap="round"/>
<path d="M34.3839 52.8286C37.5739 52.7186 50.0739 52.8486 53.0839 52.8586M33.8639 53.8786C37.0339 53.7986 49.8939 53.4786 52.9339 53.3986" stroke="#1E1E1E" stroke-width="2" stroke-linecap="round"/>
<path d="M44.0856 53.0961C44.1056 55.6361 43.8756 65.7961 43.9256 68.3861M43.7056 54.1261C43.6156 56.7561 43.3756 66.4261 43.4556 68.9361" stroke="#1E1E1E" stroke-width="2" stroke-linecap="round"/>
</svg>
