<svg width="85" height="125" viewBox="0 0 85 125" fill="none" xmlns="http://www.w3.org/2000/svg">
<path d="M21.7941 1.80473C31.9341 1.64473 43.5541 4.01473 62.1941 1.80473C73.3241 -0.695267 84.9441 7.60473 82.3941 22.0047C84.8441 43.8047 79.6641 60.3347 82.3941 103.555C79.7541 120.075 73.2141 123.155 62.1941 123.755C44.7841 121.005 31.4741 123.585 21.7941 123.755C7.75415 121.405 3.71415 119.975 1.59415 103.555C0.374145 83.5147 4.41415 68.4347 1.59415 22.0047C-0.105855 11.6747 8.20415 -1.50527 21.7941 1.80473Z" fill="white"/>
<path d="M21.7941 1.80472C31.8641 2.00472 40.8341 2.68472 62.1941 1.80472M21.7941 1.80472C34.2341 1.35472 45.1741 1.42472 62.1941 1.80472M21.7941 1.80472C9.94413 3.33472 3.15413 8.14472 1.59413 22.0047M21.7941 1.80472C10.1641 2.26472 1.14413 9.76472 1.59413 22.0047M62.1941 1.80472C76.2441 3.55472 81.8541 8.62472 82.3941 22.0047M62.1941 1.80472C73.5941 2.01472 80.4541 9.53472 82.3941 22.0047M82.3941 22.0047C83.9941 46.4647 83.6641 68.9547 82.3941 103.555M82.3941 22.0047C82.6941 46.4647 81.8841 71.0447 82.3941 103.555M82.3941 103.555C83.6841 118.445 76.8241 124.865 62.1941 123.755M82.3941 103.555C84.3541 117.475 76.5341 122.315 62.1941 123.755M62.1941 123.755C49.5041 122.225 38.4541 122.035 21.7941 123.755M62.1941 123.755C48.8541 124.075 36.2841 122.965 21.7941 123.755M21.7941 123.755C7.41413 125.425 2.24413 118.535 1.59413 103.555M21.7941 123.755C7.43413 124.815 1.78413 116.825 1.59413 103.555M1.59413 103.555C3.58413 77.6047 1.56413 53.8147 1.59413 22.0047M1.59413 103.555C1.65413 72.9147 1.74413 41.2047 1.59413 22.0047" stroke="#1E1E1E" stroke-width="2" stroke-linecap="round"/>
<path d="M10.4094 90.0272C21.3994 90.0272 65.3794 90.0272 76.3694 90.0272" stroke="#1E1E1E" stroke-width="2" stroke-linecap="round"/>
<path d="M23.1217 1.69153C34.2817 1.69153 45.4517 1.69153 59.5117 1.69153C61.9917 1.69153 63.2417 2.93153 63.2417 5.42153C63.2417 8.13153 63.2417 10.8515 63.2417 12.8715C63.2417 15.3515 61.9917 16.5915 59.5117 16.5915C51.0717 16.5915 42.6217 16.5915 23.1217 16.5915C20.6317 16.5915 19.3917 15.3515 19.3917 12.8715C19.3917 11.3015 19.3917 9.74153 19.3917 5.42153C19.3917 2.93153 20.6317 1.69153 23.1217 1.69153Z" fill="white"/>
<path d="M23.1217 1.69153C33.7217 1.69153 44.3217 1.69153 59.5117 1.69153M23.1217 1.69153C31.4617 1.69153 39.8117 1.69153 59.5117 1.69153M23.1217 1.69153C20.6317 1.69153 19.3917 2.93153 19.3917 5.42153M59.5117 1.69153C61.9917 1.69153 63.2417 2.93153 63.2417 5.42153M63.2417 5.42153C63.2417 8.31153 63.2417 11.2015 63.2417 12.8715M63.2417 5.42153C63.2417 7.55153 63.2417 9.68153 63.2417 12.8715M63.2417 12.8715C63.2417 15.3515 61.9917 16.5915 59.5117 16.5915M59.5117 16.5915C51.1817 16.5915 42.8517 16.5915 23.1217 16.5915M59.5117 16.5915C46.8317 16.5915 34.1617 16.5915 23.1217 16.5915M23.1217 16.5915C20.6317 16.5915 19.3917 15.3515 19.3917 12.8715M19.3917 12.8715C19.3917 10.8815 19.3917 8.89153 19.3917 5.42153M19.3917 12.8715C19.3917 10.2715 19.3917 7.66153 19.3917 5.42153" stroke="#1E1E1E" stroke-width="2" stroke-linecap="round"/>
<path d="M12.9453 36.4297C12.9253 34.2397 12.8653 25.4897 12.8553 23.3097" stroke="#1E1E1E" stroke-width="2" stroke-linecap="round"/>
<path d="M12.7706 23.7912C13.3806 22.9212 15.8206 19.4612 16.4306 18.6012" stroke="#1E1E1E" stroke-width="2" stroke-linecap="round"/>
<path d="M20.0587 36.5856C20.0787 34.3956 20.1387 25.6456 20.1487 23.4656" stroke="#1E1E1E" stroke-width="2" stroke-linecap="round"/>
<path d="M20.2335 23.9471C19.6235 23.0771 17.1835 19.6171 16.5735 18.7571" stroke="#1E1E1E" stroke-width="2" stroke-linecap="round"/>
<path d="M7.57587 37.7657C10.4259 37.7457 21.8459 37.6557 24.6959 37.6357" stroke="#1E1E1E" stroke-width="2" stroke-linecap="round"/>
<path d="M16.941 37.9852C16.961 39.5252 17.061 45.6652 17.091 47.2052" stroke="#1E1E1E" stroke-width="2" stroke-linecap="round"/>
<path d="M27.4277 33.5705C32.2277 33.5805 51.3677 33.5105 56.2077 33.4605M28.1877 33.2105C32.9477 33.0805 51.0377 32.8705 55.7177 32.7305" stroke="#1E1E1E" stroke-width="2" stroke-linecap="round"/>
<path d="M27.1087 34.1967C28.9687 35.1767 35.5687 36.1067 37.4987 39.6067C39.4287 43.0967 35.1387 52.6067 38.7087 55.1767C42.2787 57.7567 55.7587 55.0167 58.9287 55.0467M29.1687 33.6667C30.9887 34.2367 35.1987 34.5467 36.7487 37.7767C38.2987 41.0067 34.6787 49.9667 38.4987 53.0267C42.3187 56.0967 56.1187 55.6767 59.6687 56.1567" stroke="#1E1E1E" stroke-width="2" stroke-linecap="round"/>
<path d="M27.3235 33.4753C29.3335 34.5853 37.0235 33.6153 38.7035 40.5453C40.3935 47.4753 34.5535 69.1153 37.4435 75.0753C40.3335 81.0353 52.8235 76.1953 56.0635 76.3253M26.0635 32.7253C28.0235 33.3753 36.4635 31.3353 38.3135 38.6153C40.1635 45.8953 34.1935 69.9053 37.1735 76.4053C40.1435 82.9053 53.0735 77.6453 56.1735 77.5953" stroke="#1E1E1E" stroke-width="2" stroke-linecap="round"/>
<path fill-rule="evenodd" clip-rule="evenodd" d="M52.0886 28.0126C52.1286 29.8126 51.0286 38.5126 52.4286 39.0526C53.8286 39.5926 60.6986 33.2926 60.4786 31.2726C60.2586 29.2426 52.7486 27.6726 51.1186 26.8926" fill="white"/>
<path d="M51.6286 27.2726C51.6486 29.1626 50.1086 37.8726 51.4686 38.7326C52.8186 39.6026 59.7486 34.3926 59.7386 32.4426C59.7286 30.4926 52.8686 27.9326 51.3986 27.0226M51.2086 26.8826C51.1886 28.8526 49.8986 38.4026 51.2586 39.4426C52.6086 40.4826 59.2586 35.1126 59.3286 33.1226C59.3886 31.1326 52.8986 28.4826 51.6486 27.4926" stroke="#1E1E1E" stroke-width="2" stroke-linecap="round"/>
<path fill-rule="evenodd" clip-rule="evenodd" d="M52.1902 49.3183C52.1202 50.9283 50.1002 58.8183 51.3202 59.5883C52.5302 60.3683 59.6602 55.8183 59.5002 53.9683C59.3502 52.1183 52.0302 49.2583 50.3802 48.4883" fill="white"/>
<path d="M51.2303 48.9983C51.1103 50.9283 49.1503 59.9183 50.5703 60.7683C52.0003 61.6183 59.7803 56.0783 59.7803 54.0983C59.7903 52.1283 52.0603 49.6883 50.6203 48.8983M50.7903 48.5283C50.5403 50.2783 48.6203 58.8583 50.0803 59.8783C51.5403 60.8983 59.4803 56.4183 59.5703 54.6583C59.6603 52.9083 52.1203 50.1783 50.6403 49.3583" stroke="#1E1E1E" stroke-width="2" stroke-linecap="round"/>
<path fill-rule="evenodd" clip-rule="evenodd" d="M51.8355 70.3888C51.5855 72.2388 49.8155 81.8788 51.0955 82.8288C52.3755 83.7788 59.6855 77.9388 59.5155 76.0988C59.3455 74.2488 51.6555 72.4488 50.0555 71.7488" fill="white"/>
<path d="M51.0955 71.5588C51.0455 73.4788 49.9355 82.1288 51.3755 82.9588C52.8155 83.7788 59.7155 78.3688 59.7555 76.5088C59.7855 74.6488 52.9355 72.5988 51.5755 71.7988M52.0355 71.1588C51.9055 73.1688 49.8655 82.6388 51.0755 83.6188C52.2955 84.5988 59.1755 79.1988 59.3055 77.0688C59.4455 74.9388 53.2455 71.6788 51.8655 70.8388" stroke="#1E1E1E" stroke-width="2" stroke-linecap="round"/>
<path d="M66.9672 23.1582C67.5872 22.6182 68.9472 22.6582 72.4672 23.1582C71.9572 24.4782 74.0972 22.8482 75.2172 25.9082C75.6772 28.7382 74.7072 32.7882 75.2172 35.8782C73.4572 37.3682 72.1372 37.2982 72.4672 38.6282C71.9772 37.8982 69.8972 38.6382 66.9672 38.6282C67.2272 37.0082 64.6272 35.3382 64.2172 35.8782C63.0672 32.8482 63.6572 29.2782 64.2172 25.9082C65.0572 23.3882 65.4572 20.6182 66.9672 23.1582Z" fill="white"/>
<path d="M66.9672 23.1582C68.4572 23.0582 69.9772 23.3182 72.4672 23.1582M66.9672 23.1582C69.1272 23.1682 71.1072 23.0582 72.4672 23.1582M66.9672 23.1582C64.7172 22.6082 65.0372 24.2082 64.2172 25.9082M66.9672 23.1582C65.1772 22.9782 63.4372 24.1282 64.2172 25.9082M72.4672 23.1582C74.2972 23.0282 74.9672 23.7682 75.2172 25.9082M72.4672 23.1582C73.4872 23.3982 74.2972 24.4382 75.2172 25.9082M75.2172 25.9082C75.4372 28.6582 74.8872 30.2682 75.2172 35.8782M75.2172 25.9082C75.1372 29.8482 75.2572 33.5382 75.2172 35.8782M75.2172 35.8782C75.3172 37.5582 74.3472 39.5582 72.4672 38.6282M75.2172 35.8782C74.8372 37.6182 74.7872 39.5682 72.4672 38.6282M72.4672 38.6282C70.5172 38.8582 68.2672 38.8582 66.9672 38.6282M72.4672 38.6282C70.8972 38.7182 69.4972 38.6682 66.9672 38.6282M66.9672 38.6282C64.4272 37.9882 64.7872 37.9582 64.2172 35.8782M66.9672 38.6282C65.2172 39.6682 65.0572 36.9582 64.2172 35.8782M64.2172 35.8782C63.8772 33.3182 64.2972 31.7182 64.2172 25.9082M64.2172 35.8782C64.0672 32.4482 64.0772 28.5582 64.2172 25.9082" stroke="#1E1E1E" stroke-width="2" stroke-linecap="round"/>
<path d="M66.9671 47.233C68.4671 46.843 70.5271 47.643 72.4671 47.233C73.1771 46.003 77.4771 48.063 75.2171 49.983C74.7571 51.223 74.3871 53.953 75.2171 59.953C73.0471 60.463 72.2071 64.073 72.4671 62.703C71.1071 62.703 70.6271 62.183 66.9671 62.703C65.5371 60.323 64.9271 64.073 64.2171 59.953C63.8771 57.803 64.7371 55.443 64.2171 49.983C64.5371 45.603 65.5171 46.063 66.9671 47.233Z" fill="white"/>
<path d="M66.9672 47.233C68.8372 47.423 70.9972 47.403 72.4672 47.233M66.9672 47.233C68.9772 47.143 70.8772 47.213 72.4672 47.233M66.9672 47.233C64.4572 47.283 63.7972 47.603 64.2172 49.983M66.9672 47.233C64.3872 47.913 64.2572 47.963 64.2172 49.983M72.4672 47.233C74.0472 46.923 74.5072 48.363 75.2172 49.983M72.4672 47.233C73.3772 47.603 74.4172 47.693 75.2172 49.983M75.2172 49.983C74.9272 52.813 75.6572 56.263 75.2172 59.953M75.2172 49.983C75.2172 53.703 75.2272 57.433 75.2172 59.953M75.2172 59.953C75.2672 62.713 73.9672 62.623 72.4672 62.703M75.2172 59.953C75.6972 62.723 75.2172 61.573 72.4672 62.703M72.4672 62.703C70.3972 62.933 68.3372 62.943 66.9672 62.703M72.4672 62.703C70.5072 62.743 68.2272 62.623 66.9672 62.703M66.9672 62.703C65.6972 62.943 64.2872 62.693 64.2172 59.953M66.9672 62.703C65.9672 61.953 63.4172 62.603 64.2172 59.953M64.2172 59.953C64.3572 57.653 64.5672 54.213 64.2172 49.983M64.2172 59.953C64.0872 57.083 64.4572 54.333 64.2172 49.983" stroke="#1E1E1E" stroke-width="2" stroke-linecap="round"/>
<path d="M66.7597 69.8157C67.3997 70.2257 69.0097 69.5257 72.2597 69.8157C76.3597 69.7257 72.6197 71.6657 75.0097 72.5657C74.0797 74.5957 73.8797 76.3057 75.0097 82.5357C72.9097 85.7357 72.0197 87.8657 72.2597 85.2857C71.6997 84.8457 70.0997 84.6357 66.7597 85.2857C65.6397 87.5657 61.6497 82.2957 64.0097 82.5357C64.4697 79.0157 64.2097 74.9157 64.0097 72.5657C64.3997 69.5657 64.9697 71.1457 66.7597 69.8157Z" fill="white"/>
<path d="M66.7596 69.8157C68.4196 69.9557 69.8496 70.0357 72.2596 69.8157M66.7596 69.8157C68.5196 69.8157 70.2496 69.7957 72.2596 69.8157M66.7596 69.8157C64.9596 69.6557 63.3296 70.7857 64.0096 72.5657M66.7596 69.8157C65.8696 68.7357 63.2596 71.4157 64.0096 72.5657M72.2596 69.8157C73.3796 70.0257 74.2096 71.0557 75.0096 72.5657M72.2596 69.8157C73.2896 69.3557 75.0896 71.2857 75.0096 72.5657M75.0096 72.5657C75.3996 76.6257 75.3596 80.1657 75.0096 82.5357M75.0096 72.5657C75.0396 75.9757 75.0296 79.6957 75.0096 82.5357M75.0096 82.5357C74.6796 84.2857 74.5096 86.0957 72.2596 85.2857M75.0096 82.5357C75.9296 83.2357 74.9096 85.8457 72.2596 85.2857M72.2596 85.2857C70.1196 85.5257 68.2896 85.2457 66.7596 85.2857M72.2596 85.2857C70.2196 85.1957 68.4496 85.3257 66.7596 85.2857M66.7596 85.2857C64.9996 86.1857 64.7396 83.7157 64.0096 82.5357M66.7596 85.2857C64.1296 86.0957 63.7096 83.6557 64.0096 82.5357M64.0096 82.5357C64.3196 79.7757 63.9096 77.1957 64.0096 72.5657M64.0096 82.5357C64.2496 78.7257 63.9396 74.7257 64.0096 72.5657" stroke="#1E1E1E" stroke-width="2" stroke-linecap="round"/>
<path d="M31.3711 7.47161C31.3338 7.15718 31.1828 6.91309 30.918 6.73933C30.6533 6.56557 30.3285 6.47869 29.9437 6.47869C29.6624 6.47869 29.4163 6.5242 29.2053 6.61522C28.9963 6.70623 28.8329 6.83138 28.715 6.99066C28.5992 7.14994 28.5412 7.33094 28.5412 7.53366C28.5412 7.70329 28.5816 7.84912 28.6623 7.97117C28.745 8.09115 28.8505 8.19147 28.9788 8.27215C29.107 8.35075 29.2415 8.41591 29.3821 8.46763C29.5228 8.51727 29.6521 8.55761 29.77 8.58864L30.4154 8.7624C30.5809 8.80584 30.765 8.86583 30.9677 8.94237C31.1725 9.0189 31.368 9.12337 31.5541 9.25576C31.7424 9.38608 31.8975 9.55363 32.0196 9.75842C32.1416 9.96321 32.2026 10.2145 32.2026 10.5124C32.2026 10.8558 32.1126 11.1661 31.9327 11.4433C31.7548 11.7205 31.4941 11.9408 31.1508 12.1042C30.8094 12.2676 30.3947 12.3493 29.9065 12.3493C29.4514 12.3493 29.0574 12.2759 28.7243 12.129C28.3933 11.9821 28.1327 11.7774 27.9424 11.5146C27.7542 11.2519 27.6476 10.9468 27.6228 10.5993H28.4171C28.4378 10.8393 28.5185 11.0378 28.6592 11.195C28.8019 11.3502 28.9819 11.466 29.1991 11.5426C29.4183 11.617 29.6541 11.6543 29.9065 11.6543C30.2002 11.6543 30.464 11.6067 30.6977 11.5115C30.9315 11.4143 31.1166 11.2799 31.2532 11.1082C31.3897 10.9344 31.4579 10.7317 31.4579 10.5C31.4579 10.289 31.399 10.1173 31.2811 9.98493C31.1632 9.85254 31.008 9.74497 30.8157 9.66223C30.6233 9.57949 30.4154 9.50709 30.192 9.44503L29.4101 9.22162C28.9136 9.07889 28.5206 8.87514 28.231 8.61036C27.9414 8.34558 27.7966 7.99909 27.7966 7.5709C27.7966 7.2151 27.8928 6.90482 28.0851 6.64004C28.2796 6.37319 28.5402 6.16633 28.8671 6.01947C29.196 5.87053 29.5631 5.79606 29.9686 5.79606C30.3781 5.79606 30.7422 5.86949 31.0608 6.01636C31.3793 6.16116 31.6317 6.35975 31.8179 6.61211C32.0061 6.86448 32.1054 7.15098 32.1158 7.47161H31.3711ZM34.4483 12.2376L32.9962 7.47161H33.7657L34.7959 11.1206H34.8455L35.8632 7.47161H36.6452L37.6505 11.1082H37.7001L38.7303 7.47161H39.4998L38.0477 12.2376H37.3278L36.2852 8.57623H36.2108L35.1682 12.2376H34.4483ZM40.4679 12.2376V7.47161H41.2002V12.2376H40.4679ZM40.8402 6.67727C40.6975 6.67727 40.5744 6.62866 40.471 6.53144C40.3696 6.43422 40.319 6.31734 40.319 6.18081C40.319 6.04429 40.3696 5.92741 40.471 5.83019C40.5744 5.73297 40.6975 5.68436 40.8402 5.68436C40.983 5.68436 41.105 5.73297 41.2064 5.83019C41.3098 5.92741 41.3615 6.04429 41.3615 6.18081C41.3615 6.31734 41.3098 6.43422 41.2064 6.53144C41.105 6.62866 40.983 6.67727 40.8402 6.67727ZM44.6141 7.47161V8.09218H42.1442V7.47161H44.6141ZM42.8641 6.32975H43.5964V10.8723C43.5964 11.0792 43.6264 11.2343 43.6863 11.3378C43.7484 11.4391 43.827 11.5074 43.9222 11.5426C44.0194 11.5757 44.1218 11.5922 44.2293 11.5922C44.31 11.5922 44.3762 11.5881 44.4279 11.5798C44.4796 11.5695 44.521 11.5612 44.552 11.555L44.701 12.2128C44.6513 12.2314 44.582 12.25 44.4931 12.2686C44.4041 12.2893 44.2914 12.2997 44.1549 12.2997C43.948 12.2997 43.7453 12.2552 43.5467 12.1662C43.3502 12.0773 43.1868 11.9418 43.0565 11.7598C42.9282 11.5777 42.8641 11.3481 42.8641 11.0709V6.32975ZM47.6006 12.3369C47.1538 12.3369 46.769 12.2314 46.4463 12.0204C46.1236 11.8094 45.8754 11.5188 45.7017 11.1485C45.5279 10.7782 45.441 10.3552 45.441 9.87943C45.441 9.39538 45.53 8.96822 45.7079 8.59795C45.8878 8.2256 46.1381 7.93497 46.4588 7.72604C46.7815 7.51505 47.1579 7.40955 47.5882 7.40955C47.9233 7.40955 48.2253 7.47161 48.4942 7.59572C48.7631 7.71984 48.9835 7.8936 49.1551 8.117C49.3268 8.34041 49.4334 8.60105 49.4747 8.89893H48.7425C48.6866 8.68172 48.5625 8.48935 48.3701 8.32179C48.1798 8.15217 47.9233 8.06736 47.6006 8.06736C47.3151 8.06736 47.0648 8.14183 46.8497 8.29076C46.6367 8.43763 46.4701 8.64552 46.3502 8.91444C46.2322 9.18129 46.1733 9.49468 46.1733 9.85461C46.1733 10.2228 46.2312 10.5434 46.347 10.8165C46.465 11.0895 46.6304 11.3016 46.8435 11.4526C47.0586 11.6036 47.311 11.6791 47.6006 11.6791C47.7909 11.6791 47.9636 11.646 48.1188 11.5798C48.2739 11.5136 48.4053 11.4185 48.5129 11.2943C48.6204 11.1702 48.697 11.0213 48.7425 10.8475H49.4747C49.4334 11.1289 49.331 11.3823 49.1676 11.6077C49.0062 11.8311 48.7921 12.009 48.5253 12.1414C48.2605 12.2717 47.9523 12.3369 47.6006 12.3369ZM51.2775 9.37056V12.2376H50.5452V5.88294H51.2775V8.21629H51.3396C51.4513 7.97013 51.6188 7.77465 51.8422 7.62985C52.0677 7.48298 52.3676 7.40955 52.7421 7.40955C53.0668 7.40955 53.3513 7.47471 53.5953 7.60503C53.8394 7.73328 54.0287 7.93083 54.1632 8.19768C54.2997 8.46246 54.368 8.79963 54.368 9.20921V12.2376H53.6357V9.25886C53.6357 8.88031 53.5374 8.5876 53.3409 8.38075C53.1465 8.17182 52.8765 8.06736 52.5311 8.06736C52.2911 8.06736 52.076 8.11804 51.8857 8.2194C51.6974 8.32076 51.5485 8.46866 51.4389 8.66311C51.3313 8.85755 51.2775 9.09337 51.2775 9.37056Z" fill="#1E1E1E"/>
<path d="M66.8388 22.6205C69.1988 22.6305 69.7988 22.8905 71.9188 22.6205C71.5488 21.6005 72.7888 21.7105 74.4588 25.1605C73.2688 28.8005 73.2788 32.3705 74.4588 35.4105C72.0388 36.5405 73.8788 40.0405 71.9188 37.9505C70.8888 38.4705 68.8988 37.3705 66.8388 37.9505C65.6288 37.0605 64.1688 37.9505 64.2988 35.4105C64.4788 32.0105 64.3088 30.4805 64.2988 25.1605C62.2488 25.2205 63.6188 21.4605 66.8388 22.6205Z" fill="white"/>
<path d="M66.8388 22.6205C68.7088 22.6905 70.3188 22.6005 71.9188 22.6205M66.8388 22.6205C68.2088 22.6505 69.6588 22.6705 71.9188 22.6205M66.8388 22.6205C65.9688 21.6805 63.6488 24.0605 64.2988 25.1605M66.8388 22.6205C64.4388 21.5805 63.5288 22.4905 64.2988 25.1605M71.9188 22.6205C72.9188 22.2205 74.5288 23.9505 74.4588 25.1605M71.9188 22.6205C74.6588 21.9005 73.9288 24.4305 74.4588 25.1605M74.4588 25.1605C74.7288 28.6105 74.4488 32.0305 74.4588 35.4105M74.4588 25.1605C74.3788 28.0605 74.5688 31.2105 74.4588 35.4105M74.4588 35.4105C75.2588 36.1305 74.3188 38.4405 71.9188 37.9505M74.4588 35.4105C75.3788 37.0005 74.5088 37.7305 71.9188 37.9505M71.9188 37.9505C70.1188 38.1505 68.0988 37.7705 66.8388 37.9505M71.9188 37.9505C70.7288 38.0705 69.6088 37.8805 66.8388 37.9505M66.8388 37.9505C64.4488 38.6605 64.0388 36.4905 64.2988 35.4105M66.8388 37.9505C64.5588 38.2105 65.3188 37.8505 64.2988 35.4105M64.2988 35.4105C64.7388 32.5505 64.2188 30.8105 64.2988 25.1605M64.2988 35.4105C64.1488 32.2205 64.3288 28.9505 64.2988 25.1605" stroke="#1E1E1E" stroke-width="0.5" stroke-linecap="round"/>
<path d="M67.1861 23.258C68.7361 23.248 70.5261 23.198 71.5661 23.258M67.1861 23.258C68.2761 23.288 69.4661 23.208 71.5661 23.258M67.1861 23.258C65.0561 22.408 65.8161 23.048 64.9961 25.448M67.1861 23.258C66.3061 22.758 64.2961 22.948 64.9961 25.448M71.5661 23.258C73.0861 23.738 74.6661 23.358 73.7461 25.448M71.5661 23.258C72.4961 24.218 74.1261 24.858 73.7461 25.448M73.7461 25.448C73.7361 28.038 73.6961 30.548 73.7461 35.178M73.7461 25.448C73.8361 29.478 73.9261 32.868 73.7461 35.178M73.7461 35.178C74.4661 37.128 73.8161 37.278 71.5661 37.368M73.7461 35.178C74.6461 36.418 73.9561 38.248 71.5661 37.368M71.5661 37.368C70.3761 37.228 68.9661 37.508 67.1861 37.368M71.5661 37.368C70.2161 37.318 68.6461 37.468 67.1861 37.368M67.1861 37.368C65.4661 36.758 64.4861 36.868 64.9961 35.178M67.1861 37.368C66.7461 38.118 64.3661 36.448 64.9961 35.178M64.9961 35.178C64.8761 33.378 65.0161 30.568 64.9961 25.448M64.9961 35.178C65.0361 32.758 64.8661 30.548 64.9961 25.448" stroke="#1E1E1E" stroke-width="0.5" stroke-linecap="round"/>
<path d="M69.3555 26.2305C70.0055 26.1705 70.8955 26.4405 71.3855 26.8605C71.8655 27.2805 72.1155 28.0805 72.2655 28.7705C72.4155 29.4505 72.5955 30.4705 72.2855 30.9805C71.9655 31.5005 70.9555 31.6505 70.3655 31.8505C69.7855 32.0505 69.3155 32.3705 68.7655 32.1905C68.2255 32.0105 67.4555 31.2905 67.0855 30.7605C66.7155 30.2305 66.4955 29.5905 66.5355 29.0105C66.5755 28.4305 66.8655 27.7005 67.3255 27.2805C67.7755 26.8705 68.8955 26.6605 69.2855 26.5205C69.6855 26.3805 69.7055 26.3805 69.7055 26.4505M70.1855 26.7705C70.8055 26.8905 71.6355 26.9905 72.0755 27.3905C72.5255 27.7905 72.8355 28.4705 72.8555 29.1505C72.8855 29.8305 72.7155 30.9505 72.2355 31.4905C71.7455 32.0405 70.6055 32.3305 69.9655 32.4205C69.3155 32.5005 69.0055 32.3705 68.3855 31.9905C67.7655 31.6005 66.4955 30.6805 66.2255 30.1205C65.9555 29.5605 66.5155 29.0605 66.7855 28.6105C67.0455 28.1505 67.2455 27.7905 67.8155 27.3905C68.3855 26.9905 69.9155 26.2805 70.1955 26.2005C70.4655 26.1305 69.5655 26.8905 69.4755 26.9405" stroke="#1E1E1E" stroke-width="0.5" stroke-linecap="round"/>
<path d="M68.328 28.2556C68.408 28.2856 68.348 28.4456 68.458 28.5956C68.568 28.7456 68.958 29.0756 68.978 29.1556C68.998 29.2256 68.618 28.9756 68.588 29.0456C68.558 29.1156 68.848 29.5056 68.818 29.5656C68.788 29.6156 68.548 29.4056 68.408 29.3656C68.268 29.3256 68.108 29.3856 67.988 29.3256C67.878 29.2656 67.728 29.1156 67.698 29.0056C67.678 28.8856 67.688 28.7656 67.828 28.6656C67.968 28.5556 68.478 28.3856 68.538 28.3756C68.608 28.3756 68.218 28.5656 68.208 28.6356M68.598 28.4456C68.708 28.3656 68.858 28.3356 68.958 28.4556C69.068 28.5856 69.258 29.0456 69.218 29.2056C69.178 29.3756 68.748 29.3856 68.708 29.4456C68.668 29.4956 69.108 29.5856 68.958 29.5456C68.808 29.4956 67.968 29.1956 67.828 29.1756C67.688 29.1656 68.148 29.3956 68.138 29.4456C68.128 29.4856 67.748 29.6256 67.758 29.4456C67.778 29.2656 68.208 28.4356 68.228 28.3356C68.238 28.2356 67.878 28.8756 67.848 28.8456C67.818 28.8256 68.048 28.2256 68.068 28.1956" stroke="#1E1E1E" stroke-width="0.5" stroke-linecap="round"/>
<path d="M70.1036 28.504C70.2236 28.574 70.6836 28.824 70.7736 28.854C70.8536 28.884 70.5736 28.604 70.6336 28.674C70.6936 28.744 71.0736 29.184 71.1036 29.284C71.1336 29.394 70.9536 29.274 70.8236 29.304C70.6936 29.344 70.5136 29.504 70.3436 29.514C70.1836 29.514 69.9536 29.424 69.8436 29.334C69.7336 29.244 69.6436 29.114 69.7036 28.984C69.7636 28.844 70.1236 28.594 70.2136 28.534C70.2936 28.474 70.1636 28.584 70.2236 28.614C70.2736 28.654 70.5736 28.724 70.5236 28.754M70.7436 28.374C70.8636 28.454 71.1036 28.864 71.1036 29.004C71.1136 29.144 70.7536 29.144 70.7636 29.204C70.7836 29.264 71.2836 29.384 71.1736 29.374C71.0536 29.364 70.2336 29.124 70.1036 29.154C69.9636 29.194 70.4036 29.494 70.3636 29.574C70.3136 29.654 69.8836 29.834 69.8436 29.654C69.8036 29.484 70.1736 28.654 70.1336 28.534C70.1036 28.404 69.6236 28.984 69.6436 28.924C69.6536 28.864 70.1536 28.224 70.2236 28.174C70.3036 28.114 70.0036 28.484 70.1036 28.594" stroke="#1E1E1E" stroke-width="0.5" stroke-linecap="round"/>
<path d="M69.4089 30.3687C69.5789 30.3087 69.4689 29.9787 69.6489 30.0287C69.8389 30.0887 70.3789 30.5487 70.5189 30.6987C70.6489 30.8587 70.5489 30.8387 70.4489 30.9787C70.3489 31.1087 70.1489 31.4087 69.9189 31.5087C69.6989 31.6087 69.3389 31.6087 69.1189 31.5687C68.8889 31.5287 68.6289 31.4287 68.5689 31.2687C68.5089 31.1187 68.7389 30.7987 68.7489 30.6587C68.7689 30.5187 68.5289 30.4887 68.6589 30.4287C68.7989 30.3787 69.4889 30.3487 69.5389 30.3287C69.5889 30.3087 68.9689 30.2987 68.9489 30.3087M69.7489 30.4387C69.8489 30.4887 69.6889 30.4387 69.8389 30.4887C69.9889 30.5487 70.6589 30.7087 70.6589 30.7687C70.6489 30.8287 69.9189 30.7087 69.7989 30.8487C69.6889 30.9987 70.0889 31.4487 69.9689 31.6287C69.8489 31.8187 69.2589 32.0987 69.0889 31.9687C68.9189 31.8487 69.0989 31.0287 68.9289 30.8687C68.7689 30.7187 68.1589 31.1987 68.0989 31.0487C68.0489 30.8887 68.4589 30.0787 68.6289 29.9387C68.7889 29.7887 68.8989 30.0987 69.0889 30.1687C69.2789 30.2487 69.7889 30.4187 69.7889 30.3987" stroke="#1E1E1E" stroke-width="0.5" stroke-linecap="round"/>
<path d="M69.5015 30.6516C69.5315 30.6116 69.9415 30.9116 70.0215 30.9316C70.1115 30.9416 70.0315 30.7316 70.0115 30.7316C70.0015 30.7316 69.9615 30.8916 69.9115 30.9416C69.8615 30.9816 69.7415 30.9716 69.7015 30.9716C69.6515 30.9816 69.5915 30.9816 69.6415 30.9516C69.6815 30.9216 69.9715 30.7916 69.9715 30.8016C69.9715 30.8016 69.6315 30.9516 69.6315 31.0016C69.6215 31.0416 69.9815 31.0816 69.9415 31.0816C69.9015 31.0916 69.3915 31.0416 69.3815 31.0416C69.3715 31.0316 69.8215 31.0616 69.8715 31.0716M69.6115 31.0716C69.6215 31.0216 70.1815 31.0016 70.1415 30.9216C70.1115 30.8316 69.4215 30.5216 69.4115 30.5416C69.3915 30.5616 69.9815 30.8916 70.0415 31.0316C70.1015 31.1716 69.7615 31.4616 69.7615 31.3916C69.7615 31.3216 70.1315 30.6416 70.0515 30.6216C69.9815 30.5916 69.4015 31.2716 69.3115 31.2616C69.2215 31.2516 69.5015 30.6116 69.5215 30.5516C69.5415 30.5016 69.3115 30.8416 69.4215 30.9316C69.5215 31.0316 70.1515 31.1616 70.1515 31.1216C70.1515 31.0916 69.5615 30.7016 69.4315 30.7216" stroke="#1E1E1E" stroke-width="0.5" stroke-linecap="round"/>
<path d="M67.3707 26.4612C67.5007 26.4412 67.5307 26.2412 67.6507 26.3812C67.7707 26.5312 68.1207 27.1612 68.1007 27.3312C68.0907 27.4912 67.6807 27.3012 67.5507 27.3712C67.4307 27.4512 67.4307 27.6412 67.3307 27.7712C67.2207 27.9112 67.0307 28.2212 66.9407 28.1812C66.8607 28.1412 66.7707 27.7112 66.8107 27.5412C66.8407 27.3612 67.1707 27.2812 67.1507 27.1512C67.1407 27.0312 66.7207 26.9312 66.7207 26.7912C66.7107 26.6512 67.0307 26.4112 67.1007 26.3212C67.1807 26.2312 67.1307 26.2512 67.1707 26.2412M66.9507 26.9512C67.0407 26.8612 67.0607 26.4012 67.2307 26.4912C67.4007 26.5712 67.9007 27.2512 67.9607 27.4412C68.0107 27.6412 67.6907 27.5512 67.5607 27.6612C67.4307 27.7712 67.1407 28.1212 67.1607 28.1112C67.1807 28.0912 67.7907 27.6112 67.6907 27.5612C67.5907 27.5112 66.7207 27.8612 66.5607 27.8012C66.3907 27.7312 66.5907 27.3612 66.6907 27.1512C66.7907 26.9412 67.0607 26.7512 67.1807 26.5512C67.3007 26.3512 67.3707 26.0112 67.4107 25.9612C67.4507 25.9112 67.4307 26.1112 67.4207 26.2412" fill="white"/>
<path d="M67.7507 26.5712C67.9407 26.5912 67.9907 26.4812 68.0407 26.5912C68.1007 26.7112 68.1207 27.0612 68.0807 27.2612C68.0307 27.4512 67.8807 27.6512 67.7807 27.7812C67.6707 27.9112 67.5007 28.0312 67.4507 28.0412C67.3907 28.0512 67.5407 27.9012 67.4507 27.8412C67.3507 27.7712 66.9207 27.7712 66.8707 27.6812C66.8207 27.5812 67.1707 27.4012 67.1607 27.2612C67.1507 27.1112 66.7107 26.8912 66.7907 26.8012C66.8707 26.7112 67.5407 26.7412 67.6507 26.7312C67.7607 26.7212 67.5007 26.7312 67.4607 26.7412M67.8607 26.5612C67.9207 26.4712 67.3707 26.2612 67.4307 26.3912C67.4807 26.5212 68.1307 27.0312 68.2007 27.3312C68.2707 27.6312 67.9007 28.1212 67.8507 28.1812C67.7907 28.2412 68.0507 27.6812 67.8707 27.7012C67.7007 27.7212 66.9807 28.3912 66.8007 28.3112C66.6207 28.2312 66.8007 27.4512 66.7707 27.2512C66.7407 27.0512 66.5007 27.1812 66.6307 27.1212C66.7607 27.0612 67.4507 27.0312 67.5507 26.9012C67.6407 26.7812 67.2607 26.3712 67.1807 26.3712C67.1107 26.3712 67.1007 26.8812 67.0907 26.9012" stroke="white" stroke-width="0.5" stroke-linecap="round"/>
<path fill-rule="evenodd" clip-rule="evenodd" d="M66.3297 28.4194C66.346 28.6012 66.2872 27.9247 66.6524 28.0027C67.0075 28.0799 68.1021 29.3769 68.5006 28.8858C68.8991 28.3947 68.9998 25.3636 69.0426 25.066" fill="white"/>
<path d="M66.6946 26.9228C66.7906 27.1106 66.6832 28.2558 66.9111 28.4236C67.1483 28.6022 67.9726 28.314 68.1081 27.9833C68.2329 27.6619 67.7192 26.7703 67.6807 26.4865M66.386 27.5512C66.4205 27.624 66.3249 27.9577 66.5879 27.9276C66.8602 27.9082 67.7927 27.7788 67.9804 27.422C68.1673 27.0752 67.8284 25.9963 67.7408 25.8292" stroke="#1E1E1E" stroke-width="0.5" stroke-linecap="round"/>
<path fill-rule="evenodd" clip-rule="evenodd" d="M66.772 28.2693C66.7974 28.3061 66.5154 27.1038 66.8196 26.9697C67.1223 26.8256 68.2771 27.7725 68.6012 27.4234" fill="white"/>
<path d="M66.4036 27.3116C66.5067 27.398 67.2223 27.3872 67.4473 27.2643C67.6708 27.1315 67.6725 26.7171 67.7518 26.5644M66.9355 27.0744C66.9694 27.0999 67.0854 26.9925 67.1605 26.8101C67.2257 26.6291 67.2317 26.0323 67.3704 26.0126" stroke="#1E1E1E" stroke-width="0.5" stroke-linecap="round"/>
<path d="M71.1734 26.1527C71.2034 26.0427 71.4634 26.1427 71.5534 26.3027C71.6534 26.4627 71.7034 26.9427 71.7534 27.1127C71.8134 27.2927 71.8334 27.2027 71.8834 27.3327C71.9434 27.4627 72.2034 27.7527 72.0734 27.8727C71.9434 27.9927 71.3134 28.1227 71.1134 28.0627C70.9134 28.0027 70.9034 27.7027 70.8534 27.5127C70.8034 27.3127 70.7534 27.0827 70.8034 26.8927C70.8434 26.6927 71.0334 26.4727 71.1134 26.3427C71.2034 26.2127 71.2334 26.1427 71.3234 26.1027C71.4234 26.0727 71.6034 26.1227 71.6834 26.1227M71.2134 26.4527C71.2334 26.3927 71.2034 26.6627 71.4134 26.6827C71.6334 26.6927 72.4734 26.3927 72.5034 26.5527C72.5334 26.7127 71.7734 27.4127 71.6134 27.6327C71.4634 27.8627 71.5834 27.8527 71.5734 27.8827C71.5634 27.9127 71.6134 27.9227 71.5434 27.7927C71.4734 27.6627 71.2334 27.2627 71.1534 27.1027C71.0834 26.9427 71.0834 26.8827 71.0934 26.8327C71.1034 26.7927 71.1934 26.8527 71.1934 26.8327C71.2034 26.8127 71.1234 26.8227 71.1334 26.7127C71.1334 26.6027 71.1734 26.2427 71.2334 26.1627" fill="white"/>
<path d="M71.4834 26.4127C71.5534 26.3827 71.6634 26.4627 71.8134 26.5427C71.9534 26.6227 72.3434 26.6827 72.3734 26.8727C72.4034 27.0527 72.0534 27.4427 71.9934 27.6627C71.9334 27.8727 72.1834 28.0827 72.0334 28.1627C71.8734 28.2527 71.1934 28.2227 71.0734 28.1727C70.9434 28.1227 71.2834 28.0127 71.2634 27.8827C71.2534 27.7427 71.0134 27.5127 70.9834 27.3427C70.9634 27.1727 70.9834 27.0327 71.1134 26.8627C71.2434 26.6927 71.6834 26.3427 71.7834 26.3127C71.8834 26.2727 71.7534 26.6727 71.7134 26.6527M71.5234 26.8327C71.6434 26.7327 72.1734 26.1027 72.2034 26.1827C72.2334 26.2627 71.7634 27.1327 71.7034 27.3027C71.6534 27.4727 71.9334 27.0727 71.9034 27.1827C71.8734 27.3027 71.5334 27.8127 71.5234 27.9927C71.5234 28.1727 71.9734 28.3427 71.8634 28.2627C71.7434 28.1927 71.0434 27.6727 70.8434 27.5527C70.6334 27.4327 70.6534 27.7127 70.6534 27.5427C70.6434 27.3727 70.6134 26.7127 70.8234 26.5327C71.0334 26.3527 71.8234 26.5127 71.9034 26.4427C71.9734 26.3727 71.4034 26.1127 71.2834 26.1227" stroke="white" stroke-width="0.5" stroke-linecap="round"/>
<path fill-rule="evenodd" clip-rule="evenodd" d="M73.4092 25.6243C73.3466 25.7102 72.9939 28.4021 72.7399 28.7058C72.4858 29.0095 71.9971 27.9186 71.8758 27.4575C71.7544 26.9964 71.9455 25.9855 71.9926 25.9512" fill="white"/>
<path d="M72.299 27.2492C72.1602 27.382 71.9653 28.0117 71.7207 28.0837C71.4752 28.1457 70.9389 27.8722 70.8071 27.633C70.6854 27.3928 70.9797 26.8646 70.9801 26.6437M72.8572 26.9786C72.6613 27.1466 71.866 28.3619 71.4999 28.5351C71.1338 28.7082 70.7169 28.4241 70.6398 28.0093C70.5528 27.5954 70.882 26.3312 71.0183 26.058" stroke="#1E1E1E" stroke-width="0.5" stroke-linecap="round"/>
<path fill-rule="evenodd" clip-rule="evenodd" d="M73.537 25.7819C73.4852 25.7147 72.6321 27.7118 72.3861 27.8212C72.1301 27.9293 72.092 26.664 72.0249 26.4032" fill="white"/>
<path d="M72.2954 26.9625C72.1988 26.9298 71.7656 27.0049 71.5387 26.9655C71.302 26.9249 71.0122 26.8269 70.8836 26.7296M71.9298 26.5926C71.7983 26.5958 71.419 27.424 71.2258 27.3587C71.0226 27.2921 70.8085 26.2964 70.7321 26.1857" stroke="#1E1E1E" stroke-width="0.5" stroke-linecap="round"/>
<path d="M69.0192 30.9068C69.0292 30.9668 69.3992 31.0268 69.3692 31.0568C69.3292 31.0768 68.8092 31.0568 68.7892 31.0768C68.7792 31.0968 69.2292 31.1468 69.2692 31.1668C69.3192 31.1868 69.0892 31.1868 69.0392 31.1968C68.9792 31.1968 68.9192 31.2668 68.9492 31.2068C68.9792 31.1468 69.1892 30.8468 69.2292 30.8268C69.2592 30.8168 69.1692 31.1468 69.1392 31.1068C69.1092 31.0568 69.1092 30.5768 69.0592 30.5468C69.0092 30.5268 68.8192 30.9168 68.8292 30.9568C68.8392 30.9968 69.0392 30.7768 69.1292 30.7868M68.8992 30.4568C68.9392 30.4168 68.7192 30.7768 68.8292 30.8968C68.9392 31.0068 69.5592 31.1668 69.5592 31.1568C69.5592 31.1368 68.9792 30.7668 68.8392 30.8068C68.6992 30.8368 68.7392 31.3468 68.7092 31.3568C68.6792 31.3668 68.5692 30.9168 68.6792 30.8568C68.7892 30.7868 69.3792 31.0168 69.3892 30.9668C69.3992 30.9268 68.8792 30.5968 68.7492 30.5768C68.6292 30.5468 68.5892 30.7968 68.6392 30.8168C68.6892 30.8368 69.0392 30.6468 69.0492 30.6868C69.0592 30.7268 68.6392 31.1268 68.7092 31.0668" stroke="#1E1E1E" stroke-width="0.5" stroke-linecap="round"/>
<path d="M66.7982 34.5195C66.7482 34.6395 66.5482 34.7195 66.5482 34.8295M66.3782 34.3795C66.2682 34.5595 66.1582 35.2295 66.2082 35.2595" stroke="#1E1E1E" stroke-width="0.5" stroke-linecap="round"/>
<path fill-rule="evenodd" clip-rule="evenodd" d="M67.6566 35.0412C67.5666 35.1712 66.9566 34.5312 67.0766 34.4812C67.2066 34.4212 68.6766 34.8512 68.3966 34.7112C68.1166 34.5712 65.6066 33.6212 65.3966 33.6512" fill="white"/>
<path d="M66.4066 33.9512C66.5666 33.9012 67.3066 34.0112 67.4966 34.0312C67.6966 34.0512 67.7066 33.9712 67.5666 34.0812C67.4266 34.2012 66.7866 34.6412 66.6366 34.7112M66.9966 33.6312C67.1166 33.6412 67.2166 33.4412 67.2966 33.5512C67.3766 33.6612 67.5566 34.2112 67.4866 34.2912C67.4066 34.3712 67.0266 34.0012 66.8466 34.0512" stroke="#1E1E1E" stroke-width="0.5" stroke-linecap="round"/>
<path fill-rule="evenodd" clip-rule="evenodd" d="M68.3981 35.5175C68.4181 35.2475 69.9681 34.4875 69.9281 34.2175C69.8781 33.9575 68.0881 33.9375 68.1081 33.9175C68.1281 33.9075 69.8281 33.9375 70.0281 34.1275" fill="white"/>
<path d="M68.8181 35.0675C68.9081 34.8775 69.0081 33.6075 69.0981 33.5875C69.1881 33.5775 69.2781 34.9575 69.3481 34.9875C69.4281 35.0075 69.4981 33.9575 69.5281 33.7475M68.4681 34.9075C68.5381 34.7475 68.8281 33.9475 68.9581 33.8675C69.0981 33.7775 69.1281 34.3575 69.2581 34.3875C69.3881 34.4175 69.7481 34.1575 69.7381 34.0575" stroke="#1E1E1E" stroke-width="0.5" stroke-linecap="round"/>
<path fill-rule="evenodd" clip-rule="evenodd" d="M71.4335 34.0998C71.2035 33.8698 68.7435 33.0298 68.6635 33.1698C68.5835 33.3098 70.8135 34.4398 70.9535 34.9298C71.1035 35.4098 69.6235 36.2598 69.5435 36.0898" fill="white"/>
<path d="M70.6034 33.4698C70.5134 33.4898 69.9334 34.0498 69.9034 34.2298C69.8834 34.4098 70.4834 34.4598 70.4534 34.5498C70.4234 34.6398 69.8434 34.6698 69.7234 34.7598M70.3234 34.0598C70.1934 33.9498 69.7534 33.5598 69.7534 33.6998C69.7634 33.8398 70.3434 34.6898 70.3734 34.9198C70.4034 35.1398 70.0934 34.9798 69.9334 35.0498" stroke="#1E1E1E" stroke-width="0.5" stroke-linecap="round"/>
<path fill-rule="evenodd" clip-rule="evenodd" d="M70.1207 32.918C69.9807 32.988 71.2207 33.978 71.3907 34.488C71.5507 35.008 71.1407 36.088 71.1207 36.008C71.1007 35.928 71.5707 34.028 71.2607 34.008" fill="white"/>
<path d="M71.3607 33.978C71.2807 34.088 70.8907 33.998 70.8807 34.108C70.8707 34.228 71.3607 34.498 71.3007 34.678C71.2407 34.858 70.7207 35.108 70.5407 35.178M71.0607 33.768C70.9307 33.958 70.7207 34.338 70.7507 34.548C70.7807 34.758 71.2207 35.028 71.2207 35.028C71.2207 35.028 71.0107 34.518 70.7607 34.568" stroke="#1E1E1E" stroke-width="0.5" stroke-linecap="round"/>
<path fill-rule="evenodd" clip-rule="evenodd" d="M66.6146 33.8337C66.6246 33.6837 68.4746 33.7237 68.7746 34.0837C69.0646 34.4437 68.2746 36.0237 68.3646 35.9837" fill="white"/>
<path d="M67.8846 34.6937C67.9546 34.4837 68.1546 33.6237 68.2646 33.6737C68.3746 33.7237 68.5646 34.7837 68.5546 34.9937M67.6046 34.3637C67.6246 34.2037 67.9846 34.0737 68.1246 34.0837C68.2746 34.0937 68.4546 34.4137 68.4746 34.4437" stroke="#1E1E1E" stroke-width="0.5" stroke-linecap="round"/>
<path d="M67.9837 34.4225C68.0737 34.4225 68.5237 34.4725 68.5537 34.4625M67.6937 34.0825C67.7437 33.9925 68.3837 34.0325 68.4237 33.9825" stroke="#1E1E1E" stroke-width="0.5" stroke-linecap="round"/>
<path fill-rule="evenodd" clip-rule="evenodd" d="M71.5338 36.0646C71.6338 35.6846 72.9138 32.9146 72.8738 32.8846C72.8238 32.8546 71.4238 35.7046 71.2538 35.8946" fill="white"/>
<path d="M71.7238 35.0746C71.7338 34.9446 71.6538 33.9846 71.7838 33.9746C71.9238 33.9546 72.4738 34.8646 72.5038 34.9846M71.4438 34.9046C71.3738 34.6846 71.3138 33.3646 71.4738 33.4446C71.6438 33.5246 72.3538 35.1646 72.4238 35.4046" stroke="#1E1E1E" stroke-width="0.5" stroke-linecap="round"/>
<path d="M71.4698 34.5859C71.5698 34.5259 72.3398 34.4259 72.4098 34.3359M71.0098 34.3759C71.0598 34.1859 72.0098 33.7659 72.2698 33.7559" stroke="#1E1E1E" stroke-width="0.5" stroke-linecap="round"/>
<path d="M66.8388 47.4454C67.6288 47.8954 69.1988 47.8454 71.9188 47.4454C72.6988 45.3654 74.7288 46.7254 74.4588 49.9854C73.9988 52.8954 74.9088 56.0154 74.4588 60.2354C73.2888 63.1854 74.8188 62.2254 71.9188 62.7754C71.0688 62.1554 68.6988 62.1654 66.8388 62.7754C63.8688 64.7054 63.5388 62.5154 64.2988 60.2354C63.6888 57.9854 64.1988 52.0854 64.2988 49.9854C66.5888 49.0954 64.2288 47.5254 66.8388 47.4454Z" fill="white"/>
<path d="M66.8388 47.4454C68.3188 47.2454 69.5288 47.5654 71.9188 47.4454M66.8388 47.4454C68.5788 47.3354 70.0488 47.5154 71.9188 47.4454M66.8388 47.4454C64.3588 48.1154 64.3188 48.8054 64.2988 49.9854M66.8388 47.4454C64.9888 46.9454 63.6188 47.7754 64.2988 49.9854M71.9188 47.4454C73.3488 46.8354 73.9488 48.5154 74.4588 49.9854M71.9188 47.4454C74.6288 48.1954 73.8288 48.0954 74.4588 49.9854M74.4588 49.9854C74.4188 52.7354 74.5688 54.4254 74.4588 60.2354M74.4588 49.9854C74.4288 52.4654 74.2588 55.1754 74.4588 60.2354M74.4588 60.2354C75.2788 60.9854 72.9388 61.9354 71.9188 62.7754M74.4588 60.2354C73.7488 60.8954 74.1988 62.2854 71.9188 62.7754M71.9188 62.7754C70.3988 62.8654 69.1488 62.6754 66.8388 62.7754M71.9188 62.7754C70.6188 62.7054 69.4188 62.8454 66.8388 62.7754M66.8388 62.7754C64.3488 63.7754 63.3688 61.7154 64.2988 60.2354M66.8388 62.7754C65.2588 63.7054 63.5888 62.1154 64.2988 60.2354M64.2988 60.2354C63.8188 57.6854 64.3788 55.7854 64.2988 49.9854M64.2988 60.2354C64.3088 56.9654 64.3188 54.0754 64.2988 49.9854" stroke="#1E1E1E" stroke-width="0.5" stroke-linecap="round"/>
<path d="M67.1862 48.0829C68.7062 48.2229 70.5662 48.1129 71.5662 48.0829M67.1862 48.0829C68.8162 48.1729 70.5762 48.0329 71.5662 48.0829M67.1862 48.0829C65.1362 47.6329 64.2062 49.4829 64.9962 50.2729M67.1862 48.0829C65.3862 47.1529 64.8362 48.3129 64.9962 50.2729M71.5662 48.0829C72.5162 48.3029 74.6362 49.4629 73.7462 50.2729M71.5662 48.0829C72.3862 47.8929 72.9062 49.7929 73.7462 50.2729M73.7462 50.2729C73.8062 52.3229 73.4762 54.4629 73.7462 60.0029M73.7462 50.2729C73.5962 53.3829 73.9562 55.9829 73.7462 60.0029M73.7462 60.0029C73.0762 60.6229 72.4062 61.2929 71.5662 62.1929M73.7462 60.0029C74.3362 60.9729 72.4762 63.1929 71.5662 62.1929M71.5662 62.1929C70.0862 62.1229 68.8262 62.0529 67.1862 62.1929M71.5662 62.1929C70.2162 62.2429 68.9662 62.2929 67.1862 62.1929M67.1862 62.1929C64.7962 61.9829 65.0962 62.2729 64.9962 60.0029M67.1862 62.1929C65.0062 62.3729 63.9462 61.7829 64.9962 60.0029M64.9962 60.0029C65.1262 56.0629 65.0162 52.6129 64.9962 50.2729M64.9962 60.0029C65.0262 57.2329 64.9962 54.8029 64.9962 50.2729" stroke="#1E1E1E" stroke-width="0.5" stroke-linecap="round"/>
<path d="M69.2356 51.0953C69.8456 51.0053 71.1456 51.5153 71.6456 51.9253C72.1356 52.3353 72.1456 52.8853 72.2256 53.5553C72.3056 54.2153 72.3856 55.4153 72.1156 55.9353C71.8556 56.4653 71.2856 56.5853 70.6456 56.6953C70.0056 56.8053 68.8756 56.8353 68.2756 56.6153C67.6756 56.3953 67.3556 55.8053 67.0356 55.3553C66.7056 54.9053 66.2756 54.5153 66.3556 53.9253C66.4356 53.3453 67.0156 52.3053 67.5156 51.8353C68.0156 51.3653 68.9956 51.1753 69.3456 51.1053C69.6956 51.0253 69.5956 51.3553 69.6156 51.4053M69.3756 50.9153C69.8756 50.9453 70.7356 51.2653 71.2956 51.7353C71.8456 52.2053 72.6556 52.9953 72.7156 53.7553C72.7756 54.5053 72.0856 55.8253 71.6656 56.2853C71.2356 56.7453 70.7156 56.4753 70.1556 56.4953C69.5856 56.5053 68.8856 56.6053 68.2656 56.3653C67.6456 56.1253 66.7856 55.5453 66.4356 55.0453C66.0756 54.5353 65.9856 53.9253 66.1256 53.3453C66.2656 52.7653 66.7356 51.8653 67.2656 51.5653C67.7956 51.2753 68.9656 51.5453 69.3056 51.6053C69.6456 51.6553 69.3256 51.9053 69.3056 51.8953" stroke="#1E1E1E" stroke-width="0.5" stroke-linecap="round"/>
<path d="M68.5881 53.2305C68.7081 53.2405 68.4381 53.1605 68.4881 53.3005C68.5481 53.4505 68.8381 53.9805 68.9181 54.0905C68.9981 54.2005 69.0381 53.9505 68.9481 53.9405C68.8581 53.9405 68.4581 54.0605 68.3581 54.0705C68.2481 54.0905 68.4181 54.0105 68.3181 54.0505C68.2081 54.0905 67.8081 54.3805 67.7181 54.3005C67.6281 54.2105 67.7781 53.7205 67.7981 53.5305C67.8081 53.3405 67.6981 53.2005 67.7981 53.1705C67.8981 53.1305 68.2981 53.3405 68.3881 53.3305C68.4681 53.3205 68.2981 53.0605 68.3281 53.1105M67.8881 52.8705C68.0981 52.8805 68.7081 52.9605 68.8281 53.1705C68.9381 53.3705 68.5881 54.0305 68.5781 54.0905C68.5681 54.1505 68.7581 53.5805 68.7881 53.5405C68.8181 53.5105 68.8681 53.8005 68.7381 53.8705C68.5981 53.9505 68.1881 53.9705 67.9781 54.0005C67.7781 54.0405 67.6281 54.1505 67.5181 54.0805C67.3981 54.0005 67.3181 53.6105 67.3081 53.5605C67.2981 53.5005 67.3781 53.7105 67.4581 53.7505C67.5381 53.7905 67.7481 53.9005 67.7981 53.8105C67.8481 53.7305 67.6581 53.2305 67.7381 53.2205" stroke="#1E1E1E" stroke-width="0.5" stroke-linecap="round"/>
<path d="M70.0435 53.1289C70.1235 53.1789 70.5235 53.6189 70.6935 53.6789C70.8635 53.7389 71.0535 53.4689 71.0635 53.4789C71.0735 53.4989 70.8035 53.6789 70.7635 53.7689C70.7335 53.8589 70.9535 53.9089 70.8435 54.0389C70.7335 54.1789 70.2835 54.5889 70.1235 54.5789C69.9735 54.5689 70.0035 54.1489 69.9035 53.9789C69.8135 53.8089 69.5735 53.6389 69.5735 53.5489C69.5735 53.4689 69.8135 53.5489 69.9235 53.4689C70.0235 53.3889 70.1135 53.0689 70.2035 53.0889C70.2935 53.0989 70.5035 53.5789 70.4635 53.5889M70.4835 53.0889C70.6135 53.2189 70.3135 53.7989 70.3735 53.8089C70.4235 53.8289 70.7135 53.2289 70.8235 53.1889C70.9335 53.1589 71.0835 53.4789 71.0035 53.6089C70.9335 53.7289 70.5735 53.8289 70.3735 53.9389C70.1835 54.0489 70.0135 54.2589 69.8535 54.2489C69.7035 54.2289 69.5435 53.8989 69.4535 53.8689C69.3735 53.8389 69.3435 54.0389 69.3535 54.0589C69.3535 54.0689 69.4235 54.1089 69.4935 53.9689C69.5635 53.8189 69.6335 53.2389 69.7635 53.1989C69.8935 53.1489 70.2535 53.6789 70.2835 53.7189" stroke="#1E1E1E" stroke-width="0.5" stroke-linecap="round"/>
<path d="M69.3889 55.1836C69.6489 55.1636 69.9989 54.8436 70.1289 54.8536C70.2689 54.8636 70.1389 55.0736 70.1989 55.2236C70.2489 55.3736 70.5489 55.5236 70.4489 55.7536C70.3589 55.9836 69.8689 56.5236 69.6489 56.6036C69.4289 56.6736 69.3289 56.3436 69.1189 56.2136C68.9189 56.0736 68.5089 55.9236 68.3989 55.8136C68.2889 55.7036 68.4189 55.7036 68.4589 55.5436C68.5089 55.3936 68.5089 54.9236 68.6889 54.8636C68.8589 54.7936 69.4689 55.1836 69.5289 55.1536C69.5889 55.1236 69.1189 54.7436 69.0389 54.6736M68.9789 55.3236C69.1189 55.2536 69.5789 54.5836 69.8189 54.5336C70.0589 54.4736 70.3689 54.8236 70.4089 54.9936C70.4389 55.1736 70.1689 55.3836 70.0189 55.5836C69.8589 55.7936 69.6689 56.1336 69.4589 56.2236C69.2489 56.3136 68.9589 56.0936 68.7589 56.1136C68.5589 56.1336 68.3589 56.3636 68.2389 56.3636C68.1189 56.3636 68.0489 56.3336 68.0389 56.1136C68.0289 55.8936 67.9989 55.1636 68.1989 55.0336C68.4089 54.8936 69.1489 55.3036 69.2689 55.2936C69.3889 55.2836 68.9889 55.0136 68.9089 54.9836" stroke="#1E1E1E" stroke-width="0.5" stroke-linecap="round"/>
<path d="M69.9214 55.4464C69.9114 55.3464 69.6614 55.3964 69.6814 55.3964C69.7014 55.3964 70.0414 55.3564 70.0514 55.4564C70.0514 55.5564 69.7514 55.9764 69.7014 56.0064C69.6614 56.0364 69.8114 55.6964 69.7714 55.6264C69.7414 55.5464 69.5314 55.5164 69.5114 55.5364C69.4914 55.5664 69.6614 55.7664 69.6814 55.7464C69.6914 55.7364 69.5714 55.4464 69.6014 55.4764C69.6314 55.5064 69.9014 55.9364 69.8614 55.9164C69.8314 55.9064 69.4614 55.4864 69.3914 55.4064C69.3214 55.3164 69.4214 55.3564 69.4214 55.4264M69.6914 55.1664C69.7714 55.0264 69.9414 55.2164 69.9214 55.2464C69.9014 55.2764 69.6514 55.2864 69.5714 55.3564C69.4814 55.4264 69.4614 55.6364 69.4214 55.6664C69.3814 55.6864 69.3314 55.4464 69.3114 55.5064C69.2914 55.5664 69.3014 55.9064 69.2914 56.0264C69.2814 56.1464 69.2814 56.3064 69.2614 56.2364C69.2414 56.1564 69.1114 55.6164 69.1814 55.5864C69.2614 55.5464 69.6814 56.0264 69.7214 56.0464C69.7514 56.0664 69.4714 55.7564 69.3914 55.7064C69.3114 55.6564 69.1214 55.8564 69.2514 55.7664" stroke="#1E1E1E" stroke-width="0.5" stroke-linecap="round"/>
<path d="M67.0906 51.3261C67.1906 51.3161 67.4406 51.4361 67.6006 51.4961C67.7706 51.5661 68.0106 51.5761 68.0906 51.7161C68.1706 51.8461 68.1806 52.1361 68.0606 52.3161C67.9506 52.4961 67.5706 52.7261 67.4006 52.7861C67.2306 52.8561 67.1606 52.8061 67.0406 52.7061C66.9106 52.6061 66.7306 52.3061 66.6506 52.1961C66.5706 52.0961 66.5406 52.1961 66.5806 52.0961C66.6206 51.9961 66.7606 51.7961 66.8806 51.6161C67.0006 51.4361 67.2106 51.0961 67.3106 51.0161C67.4106 50.9261 67.4606 50.9861 67.4706 51.0961M67.5206 51.3261C67.6306 51.3561 67.4106 51.6261 67.5106 51.7161C67.6206 51.7961 68.1206 51.7561 68.1506 51.8361C68.1806 51.9161 67.7906 51.9661 67.6806 52.1961C67.5706 52.4261 67.6506 53.1661 67.4906 53.2061C67.3306 53.2461 66.9106 52.5961 66.7406 52.4261C66.5706 52.2661 66.3906 52.3261 66.4706 52.2161C66.5606 52.1061 67.1206 51.8661 67.2406 51.7761C67.3606 51.6861 67.1006 51.8461 67.1706 51.6861C67.2406 51.5361 67.6406 50.8361 67.6506 50.8461C67.6506 50.8661 67.2406 51.7561 67.2006 51.7761" fill="white"/>
<path d="M67.4107 51.0361C67.5307 51.0461 68.0007 51.1061 68.0707 51.3161C68.1507 51.5361 67.9007 52.1461 67.8707 52.3261C67.8307 52.5161 67.9407 52.3761 67.8507 52.4261C67.7607 52.4761 67.4307 52.5661 67.3207 52.6261C67.2007 52.6861 67.2307 52.8661 67.1507 52.7861C67.0807 52.7061 66.8607 52.2661 66.8407 52.1461C66.8307 52.0361 67.0907 52.2561 67.0807 52.0961C67.0807 51.9261 66.7807 51.3361 66.8007 51.1661C66.8207 50.9961 67.1307 51.0361 67.2007 51.0861C67.2607 51.1361 67.1607 51.4561 67.1907 51.4761M67.6507 50.8861C67.7307 50.9261 67.6007 51.0361 67.5907 51.2261C67.5807 51.4061 67.6207 51.8061 67.5807 51.9861C67.5507 52.1661 67.4707 52.1261 67.3907 52.3161C67.3107 52.5061 67.2007 52.9561 67.1007 53.1161C66.9907 53.2761 66.8507 53.4161 66.7407 53.2761C66.6307 53.1261 66.4007 52.4361 66.4307 52.2561C66.4607 52.0861 66.8807 52.3561 66.9407 52.2261C67.0007 52.0961 66.7907 51.6061 66.8007 51.4761C66.8107 51.3361 66.8307 51.5261 67.0107 51.4261C67.2007 51.3161 67.9007 50.8361 67.9107 50.8461" stroke="white" stroke-width="0.5" stroke-linecap="round"/>
<path fill-rule="evenodd" clip-rule="evenodd" d="M65.4163 51.941C65.6366 52.2085 66.8961 52.5252 67.1701 52.7467C67.4433 52.9781 66.7221 53.7555 67.0385 53.2882C67.3557 52.811 69.076 50.5051 69.0688 49.9429" fill="white"/>
<path d="M66.6505 52.1956C66.7794 52.3458 66.7352 52.7937 66.9079 52.8972C67.0905 53.0013 67.6129 53.1214 67.7262 52.8192C67.8395 52.5169 67.5273 51.3498 67.5977 51.0844M66.4057 51.9863C66.6505 52.1956 67.228 53.3027 67.5739 53.3692C67.9206 53.4257 68.49 52.6668 68.4852 52.3355C68.4704 52.0034 67.6333 51.5384 67.5258 51.3697" stroke="#1E1E1E" stroke-width="0.5" stroke-linecap="round"/>
<path fill-rule="evenodd" clip-rule="evenodd" d="M65.5989 52.0186C65.8421 52.0951 67.0629 51.5882 67.3076 51.604C67.5635 51.6282 66.8332 52.4592 67.0824 52.1511" fill="white"/>
<path d="M66.3133 51.7857C66.3472 51.8112 66.8574 52.274 67.0753 52.1723C67.2931 52.0706 67.4322 51.3438 67.6119 51.187M66.8099 51.3717C66.9076 51.277 67.3981 51.6012 67.6625 51.6141C67.927 51.627 68.2552 51.449 68.3839 51.4307" stroke="#1E1E1E" stroke-width="0.5" stroke-linecap="round"/>
<path d="M71.7735 50.9975C71.8235 51.0275 71.7135 51.2175 71.7335 51.3375C71.7635 51.4675 71.9235 51.6175 71.9235 51.7575C71.9235 51.8975 71.8135 51.9675 71.7335 52.1575C71.6535 52.3575 71.5235 52.8275 71.4335 52.9475C71.3335 53.0775 71.2435 53.0575 71.1635 52.9175C71.0935 52.7775 70.9835 52.3375 70.9635 52.1275C70.9535 51.9175 71.0235 51.7275 71.0535 51.6475C71.0935 51.5775 71.0735 51.7675 71.1635 51.6675C71.2535 51.5675 71.5135 51.1175 71.5835 51.0575C71.6435 50.9975 71.5535 51.2875 71.5535 51.2975M71.4235 50.9175C71.4735 50.9975 71.8135 51.7075 71.8435 51.8075C71.8735 51.9075 71.6635 51.4675 71.6035 51.5275C71.5535 51.5975 71.4535 52.0175 71.5335 52.1975C71.6035 52.3775 72.0735 52.4875 72.0535 52.6175C72.0435 52.7375 71.5635 53.0675 71.4335 52.9475C71.3135 52.8375 71.4135 52.0175 71.3135 51.9075C71.2135 51.7975 70.8435 52.4375 70.8235 52.2775C70.8135 52.1175 71.0235 51.1075 71.2235 50.9475C71.4235 50.7975 71.9935 51.3075 72.0235 51.3575C72.0535 51.3975 71.4735 51.1875 71.4135 51.2275" fill="white"/>
<path d="M71.5235 51.0675C71.6135 50.9475 71.5635 50.9875 71.6535 51.1075C71.7435 51.2275 72.0135 51.6175 72.0735 51.7775C72.1235 51.9475 71.9935 51.8975 71.9835 52.0975C71.9635 52.2975 72.1235 52.9075 71.9835 52.9775C71.8335 53.0575 71.2935 52.6675 71.1035 52.5475C70.9135 52.4275 70.9035 52.3375 70.8335 52.2675C70.7735 52.1875 70.6835 52.2775 70.7135 52.1175C70.7435 51.9475 70.8335 51.4475 71.0135 51.2875C71.1935 51.1375 71.7535 51.1775 71.7835 51.1875C71.8135 51.1975 71.2935 51.3375 71.1935 51.3375M71.0735 50.9475C71.1635 50.9775 71.3435 51.3775 71.4335 51.5975C71.5335 51.8175 71.6335 52.1675 71.6535 52.2675C71.6735 52.3675 71.5335 52.0675 71.5635 52.2075C71.5935 52.3475 71.9035 53.0075 71.8335 53.1075C71.7535 53.2175 71.3035 52.9275 71.1035 52.8475C70.9135 52.7575 70.6035 52.8275 70.6635 52.5975C70.7135 52.3775 71.4335 51.6675 71.4535 51.4875C71.4735 51.3075 70.7835 51.5875 70.7635 51.5375C70.7435 51.4875 71.1635 51.2475 71.3135 51.1775C71.4635 51.0975 71.6135 51.1475 71.6535 51.0875" stroke="white" stroke-width="0.5" stroke-linecap="round"/>
<path fill-rule="evenodd" clip-rule="evenodd" d="M73.4436 50.4963C73.2891 50.3394 71.2621 51.7045 70.6625 51.8482C70.0529 51.9928 69.6635 51.5657 69.8242 51.3406C69.9749 51.1163 71.4884 50.2989 71.5849 50.481" fill="white"/>
<path d="M72.1799 51.8637C72.1407 51.9877 72.2504 52.8815 71.9959 52.9543C71.7323 53.038 70.8331 52.6362 70.6154 52.3343C70.3987 52.0424 70.6417 51.3883 70.7036 51.1819M72.6677 51.4789C72.658 51.8212 72.2932 53.2491 71.9089 53.444C71.5148 53.6397 70.5518 52.9725 70.3423 52.6498C70.1329 52.3271 70.6446 51.7595 70.6831 51.5151" stroke="#1E1E1E" stroke-width="0.5" stroke-linecap="round"/>
<path fill-rule="evenodd" clip-rule="evenodd" d="M73.5602 50.6602C73.471 50.3361 71.2679 50.6866 70.7103 50.554C70.1626 50.4227 70.0658 49.8455 70.2245 49.8661" fill="white"/>
<path d="M72.5429 51.9C72.4338 51.8859 71.6852 51.7488 71.3682 51.6272C71.0598 51.5167 70.7371 51.2834 70.6667 51.2038M72.3024 51.5765C72.1472 51.6069 71.1387 51.9202 70.9749 51.9393C70.8124 51.9486 71.3391 51.7747 71.3394 51.694" stroke="#1E1E1E" stroke-width="0.5" stroke-linecap="round"/>
<path d="M68.9792 55.3717C69.0292 55.4117 69.3092 55.8717 69.2792 55.8817C69.2492 55.8917 68.8792 55.4917 68.8092 55.4317C68.7292 55.3717 68.8392 55.4217 68.8292 55.5117C68.8292 55.5917 68.7692 55.9117 68.7792 55.9217C68.7792 55.9417 68.7992 55.6417 68.8792 55.6017C68.9592 55.5717 69.2992 55.6817 69.2692 55.7217C69.2292 55.7517 68.7392 55.8317 68.6492 55.7917C68.5592 55.7517 68.6892 55.5617 68.7192 55.4917C68.7492 55.4217 68.7692 55.3917 68.8192 55.3617C68.8592 55.3417 68.9792 55.3217 68.9892 55.3117M68.5792 55.4817C68.6692 55.4717 69.1092 55.9717 69.1492 56.0217C69.1892 56.0617 68.8892 55.7717 68.8092 55.7517C68.7292 55.7217 68.5392 55.9417 68.6492 55.8617C68.7692 55.7917 69.5092 55.3117 69.4992 55.3017C69.4892 55.3017 68.7292 55.7817 68.6092 55.8517C68.4892 55.9117 68.7092 55.7417 68.7992 55.6917C68.8792 55.6317 69.0792 55.6217 69.1192 55.5217C69.1692 55.4317 69.0592 55.1417 69.0592 55.1217C69.0592 55.0917 69.1192 55.2417 69.1192 55.3717C69.1192 55.4917 69.1392 55.7517 69.0592 55.8517" stroke="#1E1E1E" stroke-width="0.5" stroke-linecap="round"/>
<path d="M66.5382 59.0343C66.5482 59.1643 66.6982 59.4743 66.6782 59.6243M67.0582 58.7343C67.0382 58.9443 66.3882 59.9443 66.4082 60.0443" stroke="#1E1E1E" stroke-width="0.5" stroke-linecap="round"/>
<path fill-rule="evenodd" clip-rule="evenodd" d="M65.8667 60.0161C65.8867 59.8661 66.9867 57.5961 67.3067 57.2861C67.6267 56.9761 68.0267 57.9561 67.7767 58.1561C67.5367 58.3561 66.2267 58.2961 65.8467 58.4661" fill="white"/>
<path d="M66.5367 58.7461C66.6767 58.7361 66.9467 58.7461 67.1167 58.7761C67.2867 58.8061 67.7367 58.8761 67.5767 58.9261C67.4067 58.9661 66.3867 59.0461 66.1467 59.0561M66.1167 58.4161C66.3867 58.3061 67.5667 58.1361 67.7967 58.2561C68.0267 58.3761 67.7767 58.9761 67.4967 59.1361C67.2167 59.2961 66.2367 59.2561 66.0967 59.2361" stroke="#1E1E1E" stroke-width="0.5" stroke-linecap="round"/>
<path fill-rule="evenodd" clip-rule="evenodd" d="M68.6181 58.3223C68.8381 57.8023 69.3181 57.5923 69.3081 57.6623C69.2981 57.7323 68.7181 58.6123 68.5581 58.7423C68.3881 58.8623 68.3781 58.5623 68.2981 58.4223" fill="white"/>
<path d="M68.4381 59.8123C68.5081 59.6223 69.0281 58.5123 69.1081 58.4323C69.1781 58.3523 68.8681 59.3523 68.8581 59.3323C68.8481 59.3123 68.9281 58.4323 69.0281 58.2923M68.9681 59.6123C69.0081 59.4623 68.8681 58.7223 68.9781 58.7123C69.0781 58.7023 69.5881 59.6123 69.5881 59.5623C69.5881 59.5223 69.0681 58.6323 68.9881 58.4523" stroke="#1E1E1E" stroke-width="0.5" stroke-linecap="round"/>
<path fill-rule="evenodd" clip-rule="evenodd" d="M70.8234 57.5447C70.6234 57.6447 69.3734 57.7047 69.1134 57.9847C68.8434 58.2647 69.3634 59.0647 69.2234 59.2247C69.0934 59.3847 68.4334 58.7547 68.2834 58.9447" fill="white"/>
<path d="M70.6135 58.3147C70.5035 58.2647 69.5235 58.4547 69.4135 58.5847C69.3035 58.7147 69.9135 58.9347 69.9535 59.0847C69.9835 59.2447 69.7335 59.3547 69.6235 59.5047M70.3335 58.9047C70.3535 58.8747 70.0335 58.8147 70.0835 58.8847C70.1435 58.9447 70.7435 59.1647 70.6935 59.3147C70.6435 59.4547 69.9335 59.7747 69.7935 59.7447" stroke="#1E1E1E" stroke-width="0.5" stroke-linecap="round"/>
<path fill-rule="evenodd" clip-rule="evenodd" d="M70.5607 57.7429C70.2407 57.9429 69.7807 58.6029 69.6607 58.7929C69.5407 58.9729 69.9507 58.5829 69.8607 58.8629C69.7707 59.1429 69.2507 60.0929 69.1307 60.4629" fill="white"/>
<path d="M70.8707 58.3329C70.7007 58.3929 70.3307 58.4729 70.3807 58.6529C70.4407 58.8329 71.2507 59.1829 71.2007 59.4229C71.1507 59.6529 70.2407 60.0429 70.0807 60.0429M71.3907 58.9429C71.3107 59.0629 71.1207 58.8029 71.0707 58.9329C71.0107 59.0629 71.2407 59.6429 71.0707 59.7229C70.9107 59.8129 70.2807 59.5129 70.0707 59.4529" stroke="#1E1E1E" stroke-width="0.5" stroke-linecap="round"/>
<path fill-rule="evenodd" clip-rule="evenodd" d="M67.0545 58.6586C66.8845 58.6386 67.0345 58.3486 67.0445 58.3786C67.0545 58.4086 67.0845 58.5186 67.1045 58.8386" fill="white"/>
<path d="M67.3845 59.2286C67.5245 59.0886 68.0445 58.3086 68.1645 58.4086C68.2845 58.5186 68.0845 59.7186 68.0945 59.8486M67.9245 59.8286C68.0445 59.7686 68.0045 58.8686 67.9745 58.7786C67.9545 58.6986 67.7345 59.2286 67.7845 59.3186" stroke="#1E1E1E" stroke-width="0.5" stroke-linecap="round"/>
<path d="M67.8837 59.1674C67.9837 59.2174 68.0437 59.4074 68.1037 59.3274M67.5437 59.8574C67.6137 59.8474 67.6537 59.0174 67.7337 58.8674" stroke="#1E1E1E" stroke-width="0.5" stroke-linecap="round"/>
<path fill-rule="evenodd" clip-rule="evenodd" d="M70.2738 58.9195C70.3138 58.8995 70.5938 58.9695 70.7338 59.3395C70.8738 59.7095 71.0738 61.0995 71.1138 61.1195" fill="white"/>
<path d="M71.2638 59.9395C71.3038 59.7395 71.6638 58.3595 71.8438 58.2795C72.0238 58.1995 72.3138 59.2495 72.3438 59.4495M71.8238 59.7895C71.8038 59.6395 71.5038 58.5795 71.5638 58.5595C71.6238 58.5495 72.1038 59.5095 72.1938 59.6995" stroke="#1E1E1E" stroke-width="0.5" stroke-linecap="round"/>
<path d="M71.5297 58.8907C71.6697 58.7707 72.1697 58.8107 72.2497 58.8107M71.0897 59.4907C71.2197 59.5607 71.9397 59.1807 72.0397 59.1207" stroke="#1E1E1E" stroke-width="0.5" stroke-linecap="round"/>
<path d="M66.7418 69.8264C68.2618 69.5064 69.8718 69.7464 71.8218 69.8264C72.9818 69.5364 72.6318 68.6464 74.3618 72.3664C74.0918 76.5164 73.3318 80.4064 74.3618 82.6164C74.7118 86.8064 73.9618 84.3164 71.8218 85.1564C70.6918 85.0064 69.0018 84.6264 66.7418 85.1564C63.3618 85.1064 62.7618 82.4164 64.2018 82.6164C63.8618 79.5364 64.0618 75.4664 64.2018 72.3664C64.7118 70.4064 63.7818 71.3564 66.7418 69.8264Z" fill="white"/>
<path d="M66.7418 69.8264C68.0518 69.7164 69.5918 69.6464 71.8218 69.8264M66.7418 69.8264C68.0918 69.9064 69.5518 69.9664 71.8218 69.8264M66.7418 69.8264C65.9318 70.1364 64.1818 69.8864 64.2018 72.3664M66.7418 69.8264C65.1418 70.5864 63.7918 70.7064 64.2018 72.3664M71.8218 69.8264C72.5818 69.6064 74.4618 71.4764 74.3618 72.3664M71.8218 69.8264C72.8018 70.0064 73.3118 70.9864 74.3618 72.3664M74.3618 72.3664C74.4118 76.1664 74.2918 80.4864 74.3618 82.6164M74.3618 72.3664C74.4018 75.0564 74.3718 78.1064 74.3618 82.6164M74.3618 82.6164C73.5718 84.9864 72.9318 84.7164 71.8218 85.1564M74.3618 82.6164C74.2018 83.8164 73.1718 84.2364 71.8218 85.1564M71.8218 85.1564C70.5018 85.3064 69.3918 84.9764 66.7418 85.1564M71.8218 85.1564C70.3518 85.1664 68.6118 85.1564 66.7418 85.1564M66.7418 85.1564C65.3018 85.2464 63.7518 84.7964 64.2018 82.6164M66.7418 85.1564C65.5818 84.9164 63.8118 83.6564 64.2018 82.6164M64.2018 82.6164C63.7618 79.2364 63.9118 77.1664 64.2018 72.3664M64.2018 82.6164C64.3218 79.6264 64.0818 77.3164 64.2018 72.3664" stroke="#1E1E1E" stroke-width="0.5" stroke-linecap="round"/>
<path d="M67.0892 70.4639C68.4192 70.3239 69.9992 70.2939 71.4692 70.4639M67.0892 70.4639C68.0892 70.5639 69.1692 70.4239 71.4692 70.4639M67.0892 70.4639C65.2792 70.4939 65.7792 71.5039 64.8992 72.6539M67.0892 70.4639C65.3992 69.4539 64.9992 71.9539 64.8992 72.6539M71.4692 70.4639C73.0292 71.2639 73.0292 71.3539 73.6492 72.6539M71.4692 70.4639C71.8792 70.7839 74.6692 70.1439 73.6492 72.6539M73.6492 72.6539C73.6392 74.9539 73.5392 77.0039 73.6492 82.3839M73.6492 72.6539C73.6692 74.7439 73.4692 76.7539 73.6492 82.3839M73.6492 82.3839C73.0692 83.4039 72.7892 84.1439 71.4692 84.5739M73.6492 82.3839C73.3092 82.9239 72.1192 83.5739 71.4692 84.5739M71.4692 84.5739C69.8092 84.4139 68.3192 84.4539 67.0892 84.5739M71.4692 84.5739C70.1592 84.5739 68.9692 84.5839 67.0892 84.5739M67.0892 84.5739C65.1792 85.0639 65.3592 83.6339 64.8992 82.3839M67.0892 84.5739C65.2392 83.9239 64.7192 84.7239 64.8992 82.3839M64.8992 82.3839C64.6992 80.7339 64.7992 78.4739 64.8992 72.6539M64.8992 82.3839C64.7792 79.2539 64.8692 75.4539 64.8992 72.6539" stroke="#1E1E1E" stroke-width="0.5" stroke-linecap="round"/>
<path d="M69.0685 73.4664C69.7585 73.3464 70.7585 73.4564 71.2685 73.8264C71.7785 74.2064 71.9585 75.1164 72.1485 75.7164C72.3385 76.3164 72.6385 76.9164 72.4185 77.4264C72.1885 77.9364 71.4085 78.4164 70.7985 78.7864C70.1985 79.1564 69.4685 79.7764 68.7685 79.6564C68.0685 79.5364 67.0085 78.6064 66.5985 78.0564C66.1985 77.5064 66.2485 76.8964 66.3185 76.3464C66.3885 75.7964 66.6085 75.1864 67.0285 74.7564C67.4485 74.3264 68.5785 73.9264 68.8485 73.7664C69.1185 73.6164 68.6685 73.7864 68.6585 73.8264M69.2785 73.4964C69.9585 73.4164 70.9185 73.9164 71.4085 74.3264C71.8985 74.7264 72.1985 75.3364 72.2085 75.9064C72.2185 76.4764 71.7685 77.2364 71.4685 77.7664C71.1785 78.2864 70.9485 78.8264 70.4185 79.0264C69.8885 79.2364 69.0085 79.1864 68.2985 78.9864C67.5785 78.7864 66.5185 78.3664 66.1485 77.8264C65.7785 77.2964 65.7585 76.3664 66.0585 75.7664C66.3685 75.1764 67.4285 74.6164 67.9785 74.2664C68.5285 73.9264 69.0785 73.7764 69.3585 73.6964C69.6485 73.6264 69.6985 73.7264 69.6985 73.8164" stroke="#1E1E1E" stroke-width="0.5" stroke-linecap="round"/>
<path d="M68.4411 75.3815C68.5111 75.4115 68.3211 75.7315 68.4111 75.8015C68.5011 75.8815 68.9311 75.7915 68.9911 75.8415C69.0411 75.8915 68.8311 75.9115 68.7611 76.0915C68.6811 76.2815 68.7011 76.8915 68.5411 76.9515C68.3711 77.0015 67.8911 76.5315 67.7711 76.4315C67.6411 76.3415 67.8311 76.4215 67.8111 76.4015C67.7811 76.3715 67.6311 76.3715 67.6111 76.2915C67.5911 76.2015 67.6611 75.9915 67.6911 75.9015C67.7211 75.8115 67.7511 75.7715 67.7911 75.7415C67.8411 75.7115 67.8911 75.7515 67.9811 75.7115M68.1811 75.4815C68.3211 75.4515 68.4111 75.4015 68.4411 75.4515C68.4811 75.4915 68.3111 75.6015 68.3911 75.7315C68.4811 75.8615 68.9111 76.0815 68.9411 76.2115C68.9711 76.3415 68.8211 76.4415 68.5811 76.5215C68.3511 76.6115 67.7411 76.7415 67.5411 76.7115C67.3411 76.6815 67.2911 76.4515 67.3711 76.3515C67.4611 76.2415 68.0311 76.2015 68.0711 76.1015C68.1211 76.0015 67.6111 75.8215 67.6611 75.7615C67.7111 75.7015 68.3211 75.7115 68.3811 75.7415C68.4411 75.7715 68.0111 75.9615 68.0211 75.9415" stroke="#1E1E1E" stroke-width="0.5" stroke-linecap="round"/>
<path d="M70.0666 75.7199C70.1666 75.7199 70.6566 75.5499 70.7766 75.5499C70.9066 75.5499 70.7866 75.5399 70.7966 75.7299C70.8066 75.9199 70.9266 76.5699 70.8166 76.6799C70.7166 76.7899 70.2766 76.3999 70.1666 76.3799C70.0566 76.3599 70.2266 76.5399 70.1566 76.5799C70.0866 76.6099 69.8566 76.6699 69.7566 76.6099C69.6566 76.5499 69.6166 76.3299 69.5666 76.2099C69.5266 76.0899 69.4066 75.9799 69.4766 75.8999C69.5466 75.8099 69.8566 75.7699 69.9966 75.6899C70.1466 75.6099 70.2666 75.4499 70.3266 75.4299M70.0266 75.2799C70.0866 75.2299 70.0166 75.2599 70.1866 75.3399C70.3666 75.4199 70.9266 75.6199 71.0566 75.7699C71.1966 75.9199 71.1466 76.0799 70.9766 76.2399C70.8066 76.3899 70.2466 76.6399 70.0466 76.7099C69.8366 76.7699 69.7366 76.6499 69.7566 76.6199C69.7866 76.5899 70.2266 76.5999 70.1766 76.5199C70.1266 76.4399 69.4866 76.2299 69.4466 76.1199C69.4066 76.0099 69.8666 75.8999 69.9466 75.8699C70.0366 75.8399 69.8766 75.9699 69.9466 75.9199C70.0266 75.8799 70.3966 75.6699 70.4066 75.5899" stroke="#1E1E1E" stroke-width="0.5" stroke-linecap="round"/>
<path d="M69.3818 77.0646C69.5918 76.9746 69.6518 76.9046 69.7818 77.0646C69.9218 77.2346 70.2118 77.9046 70.2218 78.0646C70.2218 78.2246 69.8918 77.9346 69.8118 78.0146C69.7418 78.1046 69.8918 78.4146 69.7618 78.5546C69.6418 78.6946 69.2818 78.8646 69.0618 78.8546C68.8518 78.8546 68.6318 78.6646 68.4618 78.5246C68.2818 78.3946 68.0218 78.2146 68.0118 78.0546C68.0118 77.8846 68.2018 77.7046 68.4218 77.5246C68.6318 77.3546 69.1418 77.0846 69.3018 77.0046C69.4618 76.9346 69.4318 77.0446 69.3718 77.0846M68.8418 76.8246C69.1018 76.8246 69.8418 76.9746 70.1018 77.1146C70.3618 77.2546 70.4818 77.4446 70.4118 77.6546C70.3418 77.8746 69.8618 78.2346 69.6818 78.3946C69.5018 78.5546 69.3718 78.5746 69.3318 78.6346C69.2918 78.7046 69.6018 78.8146 69.4318 78.7746C69.2518 78.7446 68.4418 78.5546 68.2818 78.4146C68.1218 78.2846 68.4518 78.1046 68.4718 77.9846C68.4918 77.8646 68.2418 77.8546 68.3918 77.7146C68.5518 77.5846 69.3218 77.2846 69.4218 77.1646C69.5318 77.0446 69.0818 76.9046 69.0318 76.9946" stroke="#1E1E1E" stroke-width="0.5" stroke-linecap="round"/>
<path d="M69.6644 77.7074C69.6444 77.7874 69.7944 78.2974 69.7444 78.3174C69.6944 78.3374 69.3644 77.8574 69.3644 77.7974C69.3644 77.7474 69.6844 77.9274 69.7244 77.9974C69.7644 78.0774 69.6544 78.2274 69.6144 78.2574C69.5744 78.2874 69.5644 78.1974 69.5044 78.1874C69.4444 78.1674 69.2544 78.1774 69.2344 78.1674C69.2144 78.1474 69.3244 78.1374 69.4044 78.0674C69.4944 78.0074 69.6744 77.8074 69.7444 77.7574C69.8144 77.7174 69.8844 77.7774 69.8344 77.8074C69.7944 77.8474 69.5244 77.9474 69.4644 77.9674M69.9144 77.7174C70.0244 77.7574 70.0144 77.7774 69.9044 77.8474C69.7944 77.9074 69.3544 78.0774 69.2644 78.1074C69.1744 78.1474 69.2344 78.0374 69.3644 78.0474C69.4944 78.0574 70.0544 78.1674 70.0544 78.1874C70.0644 78.1974 69.4444 78.1374 69.3844 78.1274C69.3244 78.1274 69.7044 78.1374 69.6944 78.1674C69.6844 78.1974 69.3144 78.3574 69.3344 78.3174C69.3444 78.2774 69.7844 78.0274 69.8044 77.9274C69.8144 77.8274 69.4844 77.6474 69.4344 77.7274C69.3944 77.7974 69.5744 78.4074 69.5244 78.3874" stroke="#1E1E1E" stroke-width="0.5" stroke-linecap="round"/>
<path d="M67.0337 73.5271C67.1637 73.4871 67.8837 73.6671 67.9737 73.8571C68.0637 74.0371 67.5837 74.4871 67.5637 74.6371C67.5337 74.7871 67.8637 74.6571 67.8437 74.7571C67.8337 74.8571 67.5537 75.1771 67.4637 75.2371C67.3837 75.2971 67.4737 75.1671 67.3137 75.1271C67.1537 75.0871 66.6137 75.1771 66.5337 75.0071C66.4537 74.8471 66.7237 74.3471 66.8237 74.1371C66.9237 73.9371 67.0437 73.8871 67.1137 73.7971C67.1837 73.7171 67.2537 73.6871 67.2537 73.6171C67.2537 73.5571 67.0737 73.3671 67.1137 73.4171M66.8437 73.9271C66.9837 73.9571 67.5037 74.2671 67.6837 74.2971C67.8537 74.3271 67.9337 74.0971 67.8937 74.1071C67.8637 74.1171 67.5437 74.1671 67.4637 74.3571C67.3837 74.5471 67.4837 75.1471 67.4137 75.2471C67.3437 75.3371 67.1937 75.0271 67.0437 74.9171C66.8837 74.8071 66.5037 74.7071 66.4637 74.5671C66.4137 74.4371 66.7437 74.1771 66.7537 74.0871C66.7737 73.9971 66.4837 74.0271 66.5637 74.0171C66.6437 73.9971 67.1237 74.0671 67.2237 74.0271C67.3137 73.9871 67.1337 73.8571 67.1337 73.7771" fill="white"/>
<path d="M67.3336 73.9571C67.3836 73.9371 67.2036 73.4971 67.2936 73.5271C67.3836 73.5571 67.7936 73.8971 67.8636 74.1171C67.9436 74.3471 67.8336 74.7071 67.7636 74.8871C67.6936 75.0671 67.5936 75.1471 67.4436 75.2071C67.2836 75.2771 66.9636 75.3271 66.8436 75.2771C66.7236 75.2271 66.7036 75.1171 66.7136 74.9271C66.7336 74.7371 66.8636 74.3371 66.9336 74.1371C67.0036 73.9271 67.1136 73.7871 67.1336 73.7071C67.1636 73.6171 67.1036 73.6371 67.1036 73.6171C67.1036 73.5971 67.1436 73.5971 67.1236 73.5771M67.4836 73.4871C67.4736 73.5171 67.1736 73.7171 67.1736 73.8271C67.1736 73.9371 67.3236 73.9871 67.4936 74.1471C67.6736 74.3071 68.2336 74.6271 68.2136 74.7871C68.1836 74.9571 67.4836 75.0571 67.3336 75.1371C67.1836 75.2171 67.4236 75.2671 67.3136 75.2771C67.2036 75.2871 66.7036 75.3471 66.6536 75.1871C66.6036 75.0271 66.9836 74.5871 66.9936 74.3271C67.0136 74.0671 66.7036 73.6871 66.7336 73.6371C66.7536 73.5971 67.1336 74.1071 67.1436 74.0471C67.1436 73.9871 66.8136 73.3871 66.7536 73.2971" stroke="white" stroke-width="0.5" stroke-linecap="round"/>
<path fill-rule="evenodd" clip-rule="evenodd" d="M66.5348 72.9805C66.6254 73.1078 67.0357 74.3024 67.2531 74.7402C67.4796 75.1888 67.9931 75.6893 67.8872 75.631C67.7713 75.5721 66.7232 74.8503 66.5679 74.3871" fill="white"/>
<path d="M66.038 74.3668C66.1079 74.5025 66.3017 75.3797 66.6699 75.4179C67.0373 75.4659 68.1214 74.9268 68.2455 74.6153C68.3787 74.3146 67.5577 73.7706 67.4517 73.582M66.5877 74.1279C66.768 74.1316 67.0798 74.7772 67.3414 74.8974C67.603 75.0176 68.1667 74.9904 68.1689 74.8301C68.1711 74.6698 67.3493 74.1358 67.3546 73.9356" stroke="#1E1E1E" stroke-width="0.5" stroke-linecap="round"/>
<path fill-rule="evenodd" clip-rule="evenodd" d="M66.3997 72.8276C66.486 72.7951 67.0669 73.3286 67.3128 73.5664C67.5601 73.8141 67.9757 74.1085 67.8907 74.2923" fill="white"/>
<path d="M66.1201 74.342C66.3224 74.2728 67.2277 73.9623 67.454 73.8493C67.6917 73.7449 67.4683 73.7362 67.4923 73.6924M66.5587 74.017C66.7652 73.9776 67.0932 74.1532 67.3761 74.1534C67.6589 74.1535 68.2006 74.0563 68.2544 74.0083" stroke="#1E1E1E" stroke-width="0.5" stroke-linecap="round"/>
<path d="M71.5465 73.4585C71.7065 73.4085 71.6865 73.6685 71.7965 73.7885C71.9065 73.9085 72.2165 73.9785 72.1865 74.1685C72.1565 74.3585 71.6965 74.8185 71.6165 74.9585C71.5265 75.0885 71.7165 74.9485 71.6765 74.9785C71.6465 74.9985 71.5365 75.1385 71.4065 75.0985C71.2865 75.0585 71.0365 74.9285 70.9165 74.7385C70.8065 74.5485 70.6365 74.1085 70.7065 73.9785C70.7665 73.8485 71.1965 74.0285 71.2965 73.9485C71.4065 73.8685 71.2865 73.5985 71.3365 73.4885C71.3865 73.3885 71.5365 73.2785 71.5865 73.3185M71.2265 73.1285C71.3065 73.1885 71.6565 73.7585 71.7565 73.9185C71.8665 74.0685 71.9265 73.9585 71.8765 74.0585C71.8265 74.1685 71.5265 74.4185 71.4665 74.5585C71.4065 74.6885 71.6465 74.7685 71.5365 74.8785C71.4265 74.9885 70.9265 75.1785 70.8265 75.2085C70.7165 75.2285 70.9165 75.1885 70.9065 75.0285C70.9065 74.8585 70.7765 74.4685 70.8165 74.2185C70.8465 73.9685 70.9865 73.6385 71.1165 73.5285C71.2565 73.4185 71.6065 73.4785 71.6265 73.5385C71.6565 73.5985 71.3865 73.8285 71.2865 73.8985" fill="white"/>
<path d="M71.3565 73.6885C71.4465 73.6885 71.5965 73.6585 71.6465 73.7385C71.6865 73.8285 71.6065 74.0285 71.6265 74.1885C71.6565 74.3385 71.7465 74.5785 71.7865 74.6885C71.8265 74.7885 71.9065 74.7685 71.8665 74.8185C71.8265 74.8685 71.7265 74.9585 71.5565 74.9585C71.3965 74.9585 71.0065 74.9385 70.8765 74.8185C70.7465 74.6985 70.7865 74.4485 70.7765 74.2385C70.7565 74.0385 70.7365 73.6785 70.7865 73.6085C70.8365 73.5285 71.0265 73.7585 71.0965 73.7885C71.1565 73.8185 71.1665 73.8385 71.1965 73.7785M71.8765 73.6185C71.9965 73.6185 71.5465 73.6485 71.5765 73.7585C71.6165 73.8685 72.0865 74.0885 72.0965 74.2985C72.1165 74.5085 71.7165 74.9085 71.6765 75.0285C71.6365 75.1485 71.9465 75.0585 71.8565 75.0185C71.7565 74.9885 71.2465 74.8185 71.0865 74.8385C70.9365 74.8585 71.0065 75.3085 70.9065 75.1385C70.7965 74.9785 70.4965 74.1085 70.4565 73.8385C70.4165 73.5585 70.4365 73.5785 70.6565 73.5085C70.8865 73.4485 71.6765 73.3785 71.8265 73.4285C71.9765 73.4885 71.5865 73.8585 71.5665 73.8285" stroke="white" stroke-width="0.5" stroke-linecap="round"/>
<path fill-rule="evenodd" clip-rule="evenodd" d="M71.3149 75.317C71.0407 75.2812 70.8793 74.9342 70.7338 74.7664C70.5893 74.6086 70.5076 74.7062 70.4422 74.3105C70.3778 73.9247 70.4451 72.7641 70.3262 72.4434" fill="white"/>
<path d="M72.0545 74.3778C71.864 74.6056 71.6899 75.2435 71.4752 75.3128C71.2605 75.3821 70.8988 75.1533 70.7863 74.7919C70.6846 74.4395 70.8441 73.4113 70.8527 73.1696M72.5277 74.0545C72.2655 74.3791 71.4909 75.6026 71.1755 75.7812C70.8601 75.9599 70.6934 75.5531 70.6571 75.1447C70.6207 74.7363 70.9904 73.589 70.9656 73.3101" stroke="#1E1E1E" stroke-width="0.5" stroke-linecap="round"/>
<path fill-rule="evenodd" clip-rule="evenodd" d="M70.9534 74.9855C70.7112 74.7526 70.7089 73.8347 70.6619 73.4959C70.6236 73.1682 70.7253 73.1612 70.7074 72.9875" fill="white"/>
<path d="M72.0484 74.159C71.9888 74.1514 71.7079 74.2965 71.5163 74.1407C71.3333 73.9961 71.0097 73.3795 70.9035 73.2649M72.6633 73.9259C72.5888 73.9566 71.5789 74.5925 71.2555 74.5204C70.9234 74.4371 70.7224 73.5743 70.6683 73.4463" stroke="#1E1E1E" stroke-width="0.5" stroke-linecap="round"/>
<path d="M68.7923 77.9827C68.8923 77.9227 69.0923 77.7527 69.1723 77.7327C69.2423 77.7127 69.3023 77.7927 69.2523 77.8527C69.2023 77.9027 68.9323 78.0227 68.8623 78.0627C68.7923 78.0927 68.8623 78.0627 68.8223 78.0427C68.7923 78.0127 68.6823 77.8627 68.6423 77.9027C68.6023 77.9527 68.5723 78.2527 68.5823 78.3027C68.5823 78.3527 68.6323 78.3127 68.6723 78.2227C68.7023 78.1227 68.7223 77.8027 68.7723 77.7227C68.8323 77.6527 68.9623 77.6827 68.9823 77.7727C69.0023 77.8627 68.9123 78.2427 68.9123 78.2527M68.7223 78.2127C68.7523 78.1927 69.2023 77.9627 69.2323 77.8827C69.2523 77.8127 68.9023 77.6627 68.8523 77.7627C68.8123 77.8527 68.9923 78.4827 68.9323 78.4827C68.8823 78.4827 68.5823 77.8527 68.5023 77.7527C68.4223 77.6527 68.3423 77.8627 68.4623 77.8927C68.5823 77.9327 69.1623 77.8927 69.2423 77.9527C69.3323 78.0227 68.9923 78.3427 68.9723 78.2727C68.9623 78.2127 69.1823 77.5327 69.1423 77.5627C69.1023 77.5927 68.7723 78.4527 68.7423 78.4627C68.7023 78.4627 68.8223 77.6327 68.9323 77.5827" stroke="#1E1E1E" stroke-width="0.5" stroke-linecap="round"/>
<path d="M66.7213 81.0453C66.6913 81.1453 66.6513 81.7053 66.6213 81.8953M66.3213 81.6353C66.2413 81.7953 66.3613 82.2653 66.3713 82.2653" stroke="#1E1E1E" stroke-width="0.5" stroke-linecap="round"/>
<path fill-rule="evenodd" clip-rule="evenodd" d="M65.4597 79.967C65.8097 79.977 67.6997 79.927 68.1097 80.127C68.5197 80.327 68.4097 80.857 67.9197 81.157C67.4297 81.447 65.5897 81.817 65.1797 81.887" fill="white"/>
<path d="M66.4797 81.027C66.6097 81.077 67.1897 80.987 67.2597 81.127C67.3297 81.267 67.0997 81.797 66.8997 81.877C66.7097 81.957 66.1897 81.627 66.0797 81.587M66.0797 81.717C66.1597 81.687 66.7297 80.667 66.9897 80.597C67.2397 80.527 67.7697 81.107 67.6097 81.317C67.4497 81.517 66.3497 81.777 66.0497 81.827" stroke="#1E1E1E" stroke-width="0.5" stroke-linecap="round"/>
<path fill-rule="evenodd" clip-rule="evenodd" d="M69.4211 81.1733C69.7311 81.1533 69.7111 80.4933 69.4511 80.6633C69.1911 80.8233 68.0811 82.1333 67.8911 82.1633C67.7011 82.1833 67.9011 81.0033 68.3011 80.8233" fill="white"/>
<path d="M68.5811 82.1633C68.5411 82.0933 68.4011 81.4333 68.4311 81.3833C68.4711 81.3333 68.6811 81.9433 68.7911 81.8533C68.9011 81.7633 69.0511 81.0333 69.1011 80.8333M68.1511 81.9533C68.2211 81.7933 68.8511 80.8533 69.0811 80.8833C69.3211 80.9233 69.5211 82.1233 69.5311 82.1633C69.5411 82.1933 69.1311 81.3333 69.1411 81.0833" stroke="#1E1E1E" stroke-width="0.5" stroke-linecap="round"/>
<path fill-rule="evenodd" clip-rule="evenodd" d="M70.9665 80.5356C70.5265 80.7356 68.7365 81.2256 68.4465 81.4056C68.1565 81.5856 68.8865 81.4956 69.2365 81.6256C69.5765 81.7456 70.5965 82.0856 70.5165 82.1456" fill="white"/>
<path d="M69.9465 81.2657C69.7965 81.2457 69.3365 81.0457 69.3465 81.1057C69.3565 81.1657 70.0465 81.5257 70.0265 81.6357C70.0065 81.7457 69.3965 81.7357 69.2365 81.7457M70.4465 81.0757C70.4165 81.0957 70.1465 81.3357 70.0365 81.4757C69.9265 81.6157 69.9065 81.8657 69.7765 81.9457C69.6465 82.0157 69.2865 81.9757 69.2565 81.9257" stroke="#1E1E1E" stroke-width="0.5" stroke-linecap="round"/>
<path fill-rule="evenodd" clip-rule="evenodd" d="M69.9038 81.1539C69.5538 81.2639 69.2938 81.0339 69.6638 81.1839C70.0338 81.3339 72.1138 81.9239 72.1038 82.0639C72.0838 82.2139 69.8238 82.0339 69.5538 82.0639" fill="white"/>
<path d="M70.8038 80.8538C70.7538 80.8438 70.4538 81.0638 70.4538 81.1938C70.4638 81.3338 70.9138 81.5638 70.8238 81.6638C70.7338 81.7638 69.9838 81.7638 69.9038 81.8038M71.3438 81.5438C71.2738 81.5538 70.2838 81.5138 70.1538 81.5738C70.0238 81.6338 70.5938 81.8438 70.5438 81.9038C70.4938 81.9738 69.9338 81.9638 69.8538 81.9638" stroke="#1E1E1E" stroke-width="0.5" stroke-linecap="round"/>
<path fill-rule="evenodd" clip-rule="evenodd" d="M66.3976 82.0696C66.1976 81.9596 66.5576 80.7796 67.0476 80.7796C67.5376 80.7696 69.2576 81.8596 69.3376 82.0396" fill="white"/>
<path d="M67.4576 81.7796C67.5376 81.5896 67.7076 80.6896 67.7776 80.6596C67.8576 80.6296 67.8176 81.4396 67.9176 81.6096M67.0076 82.4596C67.0476 82.3296 67.1776 81.0696 67.4476 80.9596C67.7176 80.8596 68.4576 81.6796 68.6376 81.8396" stroke="#1E1E1E" stroke-width="0.5" stroke-linecap="round"/>
<path d="M67.4968 81.4084C67.5668 81.3384 67.7768 81.1284 67.9268 81.0884M68.0968 82.0284C68.2668 82.0084 68.5568 81.4784 68.5968 81.3784" stroke="#1E1E1E" stroke-width="0.5" stroke-linecap="round"/>
<path fill-rule="evenodd" clip-rule="evenodd" d="M72.5068 82.1305C72.6168 81.9705 71.1668 80.9205 71.1668 80.9405C71.1568 80.9605 72.4168 81.9305 72.4768 82.2405" fill="white"/>
<path d="M71.0868 81.7005C71.2168 81.5405 71.7768 80.7305 71.9768 80.7805C72.1868 80.8305 72.3368 81.7605 72.3168 81.9905M71.6068 82.3105C71.7168 82.2205 71.7168 81.1205 71.8168 81.1205C71.9068 81.1305 72.1868 82.0905 72.1868 82.3105" stroke="#1E1E1E" stroke-width="0.5" stroke-linecap="round"/>
<path d="M71.6628 81.3918C71.8328 81.4018 72.2028 81.3318 72.2128 81.3518M71.3428 82.0518C71.5028 82.1418 71.8528 81.7618 72.0328 81.7318" stroke="#1E1E1E" stroke-width="0.5" stroke-linecap="round"/>
<path d="M32.5892 102.34C32.9492 101.97 34.3892 100.47 34.7492 100.09" stroke="#1E1E1E" stroke-linecap="round"/>
<path d="M34.7448 100.05C35.1448 100.38 36.7248 101.7 37.1248 102.03" stroke="#1E1E1E" stroke-linecap="round"/>
<path d="M37.2146 102.295C36.5246 103.355 33.7746 107.605 33.0846 108.675" stroke="#1E1E1E" stroke-linecap="round"/>
<path d="M32.6566 102.34C32.2966 101.97 30.8566 100.47 30.4966 100.09" stroke="#1E1E1E" stroke-linecap="round"/>
<path d="M30.5011 100.05C30.1011 100.38 28.5211 101.7 28.1211 102.03" stroke="#1E1E1E" stroke-linecap="round"/>
<path d="M28.0312 102.295C28.7212 103.355 31.4713 107.605 32.1613 108.675" stroke="#1E1E1E" stroke-linecap="round"/>
<path d="M31.9491 98.8243C33.0291 98.5543 34.4591 98.9043 35.3891 99.5243C36.3291 100.144 37.1791 101.464 37.5591 102.544C37.9491 103.614 38.0191 104.944 37.7091 105.954C37.3891 106.974 36.6191 107.924 35.6591 108.624C34.6891 109.324 33.0691 110.214 31.9291 110.144C30.7791 110.074 29.5091 109.084 28.7591 108.194C28.0091 107.304 27.5391 106.054 27.4091 104.804C27.2891 103.564 27.3291 101.744 27.9891 100.704C28.6491 99.6743 30.7191 98.9343 31.3991 98.6143C32.0791 98.2843 31.9291 98.6543 32.0791 98.7343M32.4891 98.1643C33.5891 98.0343 34.7291 99.2443 35.6091 100.174C36.4991 101.104 37.5691 102.544 37.7891 103.754C38.0091 104.964 37.5191 106.454 36.9391 107.414C36.3491 108.384 35.3091 109.224 34.2691 109.544C33.2291 109.864 31.7491 109.814 30.6891 109.344C29.6291 108.864 28.4991 107.614 27.8991 106.694C27.2991 105.774 26.9791 104.994 27.0991 103.814C27.2191 102.634 27.6691 100.344 28.5991 99.6143C29.5291 98.8743 32.0791 99.5143 32.6891 99.4243C33.3091 99.3343 32.2391 98.9643 32.2691 99.0643" fill="white"/>
<path d="M32.4991 98.4143C33.5891 98.1943 34.4991 98.5943 35.3591 99.4143C36.2191 100.234 37.3091 102.094 37.6491 103.324C37.9891 104.564 37.8291 105.764 37.3991 106.814C36.9791 107.864 36.2291 109.154 35.1091 109.604C33.9991 110.044 31.7991 109.814 30.7091 109.464C29.6091 109.114 29.2191 108.344 28.5491 107.484C27.8791 106.624 26.6591 105.504 26.7091 104.304C26.7591 103.104 27.9191 101.184 28.8591 100.284C29.7991 99.3843 31.6791 99.1443 32.3491 98.9143C33.0191 98.6743 32.9491 98.7443 32.8791 98.8743M32.7191 98.7143C33.8791 98.5443 35.3891 98.8943 36.1791 99.7843C36.9591 100.664 37.1891 102.834 37.4391 104.034C37.6791 105.234 38.2091 106.034 37.6491 107.004C37.0891 107.974 35.3691 109.384 34.0691 109.864C32.7791 110.334 30.9291 110.224 29.8891 109.854C28.8491 109.484 28.2491 108.804 27.8191 107.654C27.3991 106.504 27.1791 104.354 27.3291 102.964C27.4791 101.584 27.8491 100.004 28.7391 99.3443C29.6191 98.6743 31.9891 99.0943 32.6391 98.9543C33.2891 98.8243 32.6891 98.5243 32.6091 98.5243" stroke="#1E1E1E" stroke-linecap="round"/>
<path d="M32.3196 104.383C32.2796 103.753 32.3896 101.443 32.3496 100.743M32.9096 105.043C32.7996 104.323 32.0696 101.033 32.0396 100.263" stroke="#1E1E1E" stroke-width="0.5" stroke-linecap="round"/>
<path d="M35.7749 106.129C35.1949 105.829 32.8249 104.239 32.2349 103.879M35.3149 105.959C34.8549 105.719 33.2649 104.469 32.8649 104.189" stroke="#1E1E1E" stroke-width="0.5" stroke-linecap="round"/>
</svg>
