<svg width="85" height="126" viewBox="0 0 85 126" fill="none" xmlns="http://www.w3.org/2000/svg">
<path d="M22.3316 2.11316C39.6716 2.36316 53.7916 5.98316 62.7316 2.11316C78.6516 2.44316 81.2816 10.9032 82.9316 22.3132C78.6016 50.3432 81.0116 86.7332 82.9316 103.863C85.0316 119.753 75.6916 121.803 62.7316 124.063C50.1716 121.323 34.0516 126.343 22.3316 124.063C6.80162 121.903 2.11162 120.543 2.13162 103.863C-0.948382 81.8132 2.03162 56.5032 2.13162 22.3132C0.00161731 9.58316 5.94162 0.58316 22.3316 2.11316Z" fill="white"/>
<path d="M22.3316 2.11315C35.8916 0.373154 51.7816 1.10315 62.7316 2.11315M22.3316 2.11315C33.7216 2.10315 45.3216 1.63315 62.7316 2.11315M22.3316 2.11315C8.14163 0.643154 0.931631 8.54315 2.13163 22.3132M22.3316 2.11315C9.36163 1.19315 0.501631 7.73315 2.13163 22.3132M62.7316 2.11315C76.0816 3.24315 83.3816 8.88315 82.9316 22.3132M62.7316 2.11315C74.3716 0.603154 83.8316 10.9532 82.9316 22.3132M82.9316 22.3132C82.9916 48.7032 83.2916 80.6832 82.9316 103.863M82.9316 22.3132C83.0416 40.1432 82.1716 59.4432 82.9316 103.863M82.9316 103.863C82.8116 116.293 77.4716 125.193 62.7316 124.063M82.9316 103.863C83.1716 118.903 77.8116 126.003 62.7316 124.063M62.7316 124.063C48.5616 122.683 33.6416 122.813 22.3316 124.063M62.7316 124.063C53.6916 124.753 44.7416 124.893 22.3316 124.063M22.3316 124.063C10.2016 124.053 2.68163 117.213 2.13163 103.863M22.3316 124.063C8.97163 125.403 3.95163 116.123 2.13163 103.863M2.13163 103.863C2.13163 87.2832 3.90163 71.8332 2.13163 22.3132M2.13163 103.863C1.19163 80.9932 2.76163 57.2032 2.13163 22.3132" stroke="#1E1E1E" stroke-width="2" stroke-linecap="round"/>
<path d="M10.9468 90.3358C21.9368 90.3358 65.9168 90.3358 76.9068 90.3358" stroke="#1E1E1E" stroke-width="2" stroke-linecap="round"/>
<path d="M10.2155 105.933C10.2055 105.033 10.1855 101.423 10.1755 100.523" stroke="#1E1E1E" stroke-linecap="round"/>
<path d="M10.1436 100.726C10.3936 100.366 11.4036 98.9456 11.6536 98.5856" stroke="#1E1E1E" stroke-linecap="round"/>
<path d="M13.1462 105.997C13.1562 105.097 13.1762 101.487 13.1862 100.587" stroke="#1E1E1E" stroke-linecap="round"/>
<path d="M13.2183 100.79C12.9683 100.43 11.9583 99.0098 11.7083 98.6498" stroke="#1E1E1E" stroke-linecap="round"/>
<path d="M8.0033 106.483C9.1833 106.463 13.8833 106.383 15.0533 106.363" stroke="#1E1E1E" stroke-linecap="round"/>
<path d="M11.8618 106.574C11.8718 107.204 11.9118 109.744 11.9218 110.374" stroke="#1E1E1E" stroke-linecap="round"/>
<path d="M53.2729 101.655C53.6329 101.285 55.0729 99.7848 55.4329 99.4048" stroke="#1E1E1E" stroke-linecap="round"/>
<path d="M55.4285 99.3646C55.8285 99.6946 57.4085 101.015 57.8085 101.345" stroke="#1E1E1E" stroke-linecap="round"/>
<path d="M57.8983 101.61C57.2083 102.67 54.4583 106.92 53.7683 107.99" stroke="#1E1E1E" stroke-linecap="round"/>
<path d="M53.3404 101.655C52.9804 101.285 51.5404 99.7848 51.1804 99.4048" stroke="#1E1E1E" stroke-linecap="round"/>
<path d="M51.1849 99.3646C50.7849 99.6946 49.2049 101.015 48.8049 101.345" stroke="#1E1E1E" stroke-linecap="round"/>
<path d="M48.7151 101.61C49.4051 102.67 52.1551 106.92 52.8451 107.99" stroke="#1E1E1E" stroke-linecap="round"/>
<path d="M23.659 2C37.829 2 51.999 2 60.049 2C62.529 2 63.779 3.24 63.779 5.73C63.779 7.64 63.779 9.56 63.779 13.18C63.779 15.66 62.529 16.9 60.049 16.9C49.679 16.9 39.299 16.9 23.659 16.9C21.169 16.9 19.929 15.66 19.929 13.18C19.929 11.09 19.929 9 19.929 5.73C19.929 3.24 21.169 2 23.659 2Z" fill="white"/>
<path d="M23.659 2C35.029 2 46.399 2 60.049 2M23.659 2C36.639 2 49.619 2 60.049 2M23.659 2C21.169 2 19.929 3.24 19.929 5.73M60.049 2C62.529 2 63.779 3.24 63.779 5.73M63.779 5.73C63.779 8.23 63.779 10.74 63.779 13.18M63.779 5.73C63.779 7.92 63.779 10.11 63.779 13.18M63.779 13.18C63.779 15.66 62.529 16.9 60.049 16.9M60.049 16.9C51.489 16.9 42.929 16.9 23.659 16.9M60.049 16.9C51.799 16.9 43.549 16.9 23.659 16.9M23.659 16.9C21.169 16.9 19.929 15.66 19.929 13.18M19.929 13.18C19.929 10.52 19.929 7.85 19.929 5.73M19.929 13.18C19.929 10.39 19.929 7.61 19.929 5.73" stroke="#1E1E1E" stroke-width="2" stroke-linecap="round"/>
<path d="M27.2466 11.7588V6.99279H27.9541V7.71265H28.0037C28.0906 7.47683 28.2478 7.28549 28.4754 7.13862C28.7029 6.99175 28.9594 6.91832 29.2449 6.91832C29.2987 6.91832 29.3659 6.91935 29.4466 6.92142C29.5272 6.92349 29.5883 6.92659 29.6296 6.93073V7.67542C29.6048 7.66921 29.5479 7.6599 29.459 7.64749C29.3721 7.63301 29.28 7.62577 29.1828 7.62577C28.9511 7.62577 28.7443 7.67438 28.5623 7.77161C28.3823 7.86676 28.2396 7.99915 28.1341 8.16877C28.0306 8.33633 27.9789 8.52767 27.9789 8.7428V11.7588H27.2466ZM30.4977 11.7588V6.99279H31.2299V11.7588H30.4977ZM30.87 6.19845C30.7273 6.19845 30.6042 6.14984 30.5008 6.05262C30.3994 5.95539 30.3487 5.83852 30.3487 5.70199C30.3487 5.56547 30.3994 5.44859 30.5008 5.35137C30.6042 5.25415 30.7273 5.20554 30.87 5.20554C31.0127 5.20554 31.1348 5.25415 31.2361 5.35137C31.3396 5.44859 31.3913 5.56547 31.3913 5.70199C31.3913 5.83852 31.3396 5.95539 31.2361 6.05262C31.1348 6.14984 31.0127 6.19845 30.87 6.19845ZM34.5694 11.8581C34.1102 11.8581 33.714 11.7567 33.381 11.554C33.05 11.3492 32.7946 11.0637 32.6146 10.6976C32.4367 10.3294 32.3477 9.90121 32.3477 9.41302C32.3477 8.92484 32.4367 8.49457 32.6146 8.12223C32.7946 7.74782 33.0449 7.45615 33.3655 7.24722C33.6882 7.03623 34.0647 6.93073 34.4949 6.93073C34.7432 6.93073 34.9883 6.9721 35.2303 7.05484C35.4723 7.13759 35.6926 7.27204 35.8912 7.45822C36.0898 7.64232 36.2481 7.88641 36.366 8.19049C36.4839 8.49457 36.5428 8.86899 36.5428 9.31373V9.62402H32.869V8.99103H35.7981C35.7981 8.72212 35.7444 8.48216 35.6368 8.27117C35.5313 8.06017 35.3803 7.89365 35.1838 7.77161C34.9893 7.64956 34.7597 7.58854 34.4949 7.58854C34.2033 7.58854 33.9509 7.66094 33.7378 7.80574C33.5268 7.94847 33.3645 8.13464 33.2507 8.36425C33.1369 8.59387 33.08 8.84003 33.08 9.10274V9.52473C33.08 9.88466 33.1421 10.1898 33.2662 10.4401C33.3924 10.6883 33.5672 10.8776 33.7906 11.0079C34.014 11.1361 34.2736 11.2003 34.5694 11.2003C34.7618 11.2003 34.9355 11.1734 35.0907 11.1196C35.2479 11.0637 35.3834 10.981 35.4972 10.8714C35.6109 10.7597 35.6988 10.6211 35.7609 10.4556L36.4684 10.6542C36.3939 10.8941 36.2687 11.1051 36.0929 11.2872C35.9171 11.4671 35.6999 11.6078 35.4413 11.7091C35.1827 11.8084 34.8921 11.8581 34.5694 11.8581ZM37.6568 11.7588V6.99279H38.3642V7.73747H38.4263C38.5256 7.48304 38.6859 7.28549 38.9072 7.14483C39.1285 7.00209 39.3944 6.93073 39.7046 6.93073C40.0191 6.93073 40.2807 7.00209 40.4897 7.14483C40.7007 7.28549 40.8651 7.48304 40.983 7.73747H41.0327C41.1547 7.49131 41.3378 7.29583 41.5819 7.15103C41.826 7.00416 42.1187 6.93073 42.46 6.93073C42.8861 6.93073 43.2347 7.06415 43.5057 7.331C43.7766 7.59578 43.9121 8.00846 43.9121 8.56904V11.7588H43.1799V8.56904C43.1799 8.21738 43.0837 7.96605 42.8913 7.81505C42.6989 7.66404 42.4724 7.58854 42.2118 7.58854C41.8766 7.58854 41.617 7.6899 41.4329 7.89262C41.2488 8.09327 41.1568 8.3477 41.1568 8.65592V11.7588H40.4121V8.49457C40.4121 8.22359 40.3242 8.00535 40.1484 7.83987C39.9725 7.67231 39.746 7.58854 39.4688 7.58854C39.2785 7.58854 39.1006 7.63922 38.9351 7.74058C38.7717 7.84194 38.6393 7.9826 38.538 8.16257C38.4387 8.34046 38.389 8.54629 38.389 8.78004V11.7588H37.6568ZM46.6535 11.8705C46.3515 11.8705 46.0774 11.8136 45.8313 11.6998C45.5851 11.584 45.3896 11.4175 45.2448 11.2003C45.1 10.981 45.0276 10.7162 45.0276 10.4059C45.0276 10.1329 45.0814 9.91155 45.189 9.74193C45.2965 9.57023 45.4403 9.43578 45.6203 9.33855C45.8002 9.24133 45.9988 9.16893 46.216 9.12135C46.4353 9.07171 46.6556 9.0324 46.8769 9.00344C47.1665 8.96621 47.4013 8.93828 47.5813 8.91967C47.7633 8.89898 47.8957 8.86485 47.9784 8.81727C48.0632 8.76969 48.1057 8.68695 48.1057 8.56904V8.54422C48.1057 8.23807 48.0219 8.00018 47.8543 7.83056C47.6888 7.66094 47.4375 7.57613 47.1003 7.57613C46.7507 7.57613 46.4767 7.65266 46.2781 7.80574C46.0795 7.95881 45.9399 8.12223 45.8592 8.29599L45.1641 8.04776C45.2883 7.75816 45.4537 7.53268 45.6606 7.37134C45.8695 7.20792 46.0971 7.09415 46.3432 7.03002C46.5915 6.96383 46.8355 6.93073 47.0755 6.93073C47.2286 6.93073 47.4044 6.94935 47.603 6.98658C47.8036 7.02175 47.9971 7.09518 48.1832 7.20688C48.3715 7.31859 48.5276 7.48718 48.6518 7.71265C48.7759 7.93813 48.8379 8.24014 48.8379 8.61869V11.7588H48.1057V11.1134H48.0684C48.0188 11.2168 47.936 11.3275 47.8202 11.4454C47.7044 11.5633 47.5502 11.6636 47.3579 11.7464C47.1655 11.8291 46.9307 11.8705 46.6535 11.8705ZM46.7652 11.2127C47.0548 11.2127 47.2989 11.1558 47.4975 11.042C47.6981 10.9283 47.8492 10.7814 47.9505 10.6014C48.0539 10.4215 48.1057 10.2322 48.1057 10.0336V9.36338C48.0746 9.40061 48.0064 9.43474 47.9009 9.46577C47.7974 9.49473 47.6775 9.52059 47.5409 9.54334C47.4065 9.56403 47.2751 9.58265 47.1469 9.59919C47.0207 9.61367 46.9183 9.62609 46.8397 9.63643C46.6494 9.66125 46.4715 9.70159 46.306 9.75744C46.1426 9.81122 46.0102 9.89293 45.9088 10.0026C45.8095 10.1101 45.7599 10.257 45.7599 10.4432C45.7599 10.6976 45.854 10.89 46.0422 11.0203C46.2326 11.1486 46.4735 11.2127 46.7652 11.2127ZM50.9068 8.89174V11.7588H50.1745V6.99279H50.8819V7.73747H50.944C51.0557 7.49545 51.2253 7.301 51.4529 7.15414C51.6804 7.0052 51.9742 6.93073 52.3341 6.93073C52.6568 6.93073 52.9391 6.99692 53.1812 7.12931C53.4232 7.25963 53.6114 7.45822 53.7459 7.72506C53.8803 7.98984 53.9476 8.32495 53.9476 8.73039V11.7588H53.2153V8.78004C53.2153 8.40562 53.1181 8.11396 52.9236 7.90503C52.7292 7.69403 52.4623 7.58854 52.1231 7.58854C51.8893 7.58854 51.6804 7.63922 51.4963 7.74058C51.3143 7.84194 51.1705 7.98984 51.065 8.18429C50.9595 8.37873 50.9068 8.61455 50.9068 8.89174ZM56.018 8.89174V11.7588H55.2857V6.99279H55.9931V7.73747H56.0552C56.1669 7.49545 56.3365 7.301 56.5641 7.15414C56.7916 7.0052 57.0853 6.93073 57.4453 6.93073C57.768 6.93073 58.0503 6.99692 58.2924 7.12931C58.5344 7.25963 58.7226 7.45822 58.8571 7.72506C58.9915 7.98984 59.0588 8.32495 59.0588 8.73039V11.7588H58.3265V8.78004C58.3265 8.40562 58.2293 8.11396 58.0348 7.90503C57.8404 7.69403 57.5735 7.58854 57.2343 7.58854C57.0005 7.58854 56.7916 7.63922 56.6075 7.74058C56.4255 7.84194 56.2817 7.98984 56.1762 8.18429C56.0707 8.37873 56.018 8.61455 56.018 8.89174Z" fill="#1E1E1E"/>
<path d="M19.0521 44.5312L29.7321 44.9412L28.9221 70.8312L19.7121 72.0712" fill="white"/>
<path d="M19.1421 44.2612C22.2621 44.2812 25.1621 44.5712 28.8221 44.2612M19.1421 44.2612C22.8321 44.4212 26.4321 44.4512 28.8221 44.2612M19.1421 44.2612C18.3321 49.4012 18.9221 60.3312 19.1421 71.2812M19.1421 44.2612C18.7121 57.9812 19.5021 64.4612 19.1421 71.2812M28.8221 44.2612C28.9521 51.1212 29.3421 58.0612 28.8221 71.2812M28.8221 44.2612C29.0521 54.3612 28.9421 64.8112 28.8221 71.2812M28.8221 71.2812C25.1021 70.9812 21.4621 71.2812 19.1421 71.2812M28.8221 71.2812C25.1921 71.4712 21.2321 71.4612 19.1421 71.2812" stroke="#1E1E1E" stroke-width="2" stroke-linecap="round"/>
<path d="M29.7331 38.1869L38.6031 37.0469L39.0731 72.2769L27.8831 71.2269" fill="white"/>
<path d="M28.823 37.5069C32.673 37.8369 36.273 37.8669 38.503 37.5069M28.823 37.5069C30.653 37.6269 32.663 37.3169 38.503 37.5069M28.823 37.5069C28.363 55.3969 28.113 62.6269 28.823 71.4969M28.823 37.5069C28.643 53.9669 28.283 62.9569 28.823 71.4969M38.503 37.5069C39.153 47.3569 39.293 56.2269 38.503 71.4969M38.503 37.5069C38.573 47.9769 38.943 57.6069 38.503 71.4969M38.503 71.4969C36.493 71.5069 34.933 71.8269 28.823 71.4969M38.503 71.4969C35.543 71.7069 33.123 71.6669 28.823 71.4969" stroke="#1E1E1E" stroke-width="2" stroke-linecap="round"/>
<path d="M38.5355 30.7269L48.6955 31.9769L47.1855 71.5469L37.6255 71.0269" fill="white"/>
<path d="M38.4455 31.1869C41.8555 31.5169 43.9955 31.0869 48.1255 31.1869M38.4455 31.1869C41.6755 30.9969 45.1155 31.2069 48.1255 31.1869M38.4455 31.1869C38.1955 51.1669 38.1155 61.3169 38.4455 71.8169M38.4455 31.1869C39.0655 48.2069 38.5655 59.9769 38.4455 71.8169M48.1255 31.1869C48.9955 45.5369 48.2455 58.8169 48.1255 71.8169M48.1255 31.1869C48.5355 42.8769 47.6655 55.0469 48.1255 71.8169M48.1255 71.8169C46.1455 72.1769 43.2955 71.9969 38.4455 71.8169M48.1255 71.8169C44.6755 71.9869 40.6255 71.8169 38.4455 71.8169" stroke="#1E1E1E" stroke-width="2" stroke-linecap="round"/>
<path d="M48.9556 38.1638L57.1256 37.1038L57.2456 71.0438L48.2356 72.5738" fill="white"/>
<path d="M48.3856 37.3738C51.5156 37.2738 55.7856 37.0138 58.0656 37.3738M48.3856 37.3738C51.7856 37.4638 55.4456 37.5538 58.0656 37.3738M48.3856 37.3738C48.4156 55.2238 48.0656 64.7038 48.3856 71.8438M48.3856 37.3738C48.4456 46.9138 48.8556 59.8338 48.3856 71.8438M58.0656 37.3738C58.1956 50.8138 58.1356 63.7538 58.0656 71.8438M58.0656 37.3738C57.7356 49.6738 57.9356 62.0638 58.0656 71.8438M58.0656 71.8438C55.0256 72.0538 52.4756 71.5638 48.3856 71.8438M58.0656 71.8438C54.3056 71.8338 50.7456 71.6938 48.3856 71.8438" stroke="#1E1E1E" stroke-width="2" stroke-linecap="round"/>
<path d="M57.4375 44.358L67.2375 43.838L67.9075 72.388L58.9575 72.328" fill="white"/>
<path d="M58.3775 44.6279C62.2475 44.3179 65.9275 44.3479 68.0575 44.6279M58.3775 44.6279C60.7175 44.7679 63.0875 44.7979 68.0575 44.6279M58.3775 44.6279C59.0175 54.1679 58.3775 62.1479 58.3775 71.6479M58.3775 44.6279C58.5375 54.3679 58.2975 62.5779 58.3775 71.6479M68.0575 44.6279C67.9975 54.5879 68.6475 65.2479 68.0575 71.6479M68.0575 44.6279C67.6675 51.3079 67.9775 58.4479 68.0575 71.6479M68.0575 71.6479C64.8275 71.3579 61.1775 72.1179 58.3775 71.6479M68.0575 71.6479C64.5475 71.4679 61.0375 71.5279 58.3775 71.6479" stroke="#1E1E1E" stroke-width="2" stroke-linecap="round"/>
<path fill-rule="evenodd" clip-rule="evenodd" d="M32.9912 42.8733L36.3612 47.8933L33.9312 50.7433L30.4512 46.9833" fill="white"/>
<path d="M33.5412 43.4033C34.4812 44.4633 35.1112 45.6533 36.4612 47.4033M33.5412 43.4033C34.5512 44.7433 35.4812 45.9733 36.4612 47.4033M33.5412 43.4033C32.8512 44.5433 31.7712 45.8833 30.5412 47.4033M33.5412 43.4033C32.6712 44.4433 31.6912 46.0033 30.5412 47.4033M36.4612 47.4033C35.5812 48.4533 34.4812 49.1633 33.5412 50.2933M36.4612 47.4033C35.6212 48.2933 34.8212 49.0633 33.5412 50.2933M33.5412 50.2933C32.6312 49.4433 31.5912 48.2633 30.5412 47.4033M33.5412 50.2933C32.6412 49.4233 31.8512 48.6133 30.5412 47.4033" stroke="#1E1E1E" stroke-linecap="round"/>
<path fill-rule="evenodd" clip-rule="evenodd" d="M53.137 44.0038L56.547 47.9638L53.147 49.9838L50.537 47.0738" fill="white"/>
<path d="M53.2371 43.5138C53.8171 44.3938 54.6471 45.4538 56.1571 47.5138M53.2371 43.5138C54.3571 44.9538 55.3771 46.3838 56.1571 47.5138M53.2371 43.5138C51.6571 45.7738 50.9271 46.7938 50.2371 47.5138M53.2371 43.5138C51.6871 45.4038 50.9171 46.4638 50.2371 47.5138M56.1571 47.5138C55.1971 48.2738 54.3671 49.2038 53.2371 50.4038M56.1571 47.5138C55.3471 48.3638 54.4571 49.2838 53.2371 50.4038M53.2371 50.4038C52.5971 49.6438 51.7971 49.0038 50.2371 47.5138M53.2371 50.4038C52.5771 49.7138 51.9371 49.0838 50.2371 47.5138" stroke="#1E1E1E" stroke-linecap="round"/>
<path d="M33.3724 46.8652C33.4324 46.9152 33.3124 47.3352 33.2924 47.3552C33.2724 47.3652 33.2224 46.9452 33.2324 46.9752C33.2524 46.9952 33.3824 47.4752 33.3924 47.5152C33.4024 47.5652 33.3324 47.3352 33.3124 47.2352C33.2924 47.1452 33.2724 46.9652 33.2724 46.9552C33.2824 46.9452 33.3324 47.1952 33.3324 47.1952C33.3424 47.1952 33.3324 47.0252 33.3124 46.9652C33.2824 46.9052 33.2124 46.8252 33.1724 46.8452C33.1424 46.8752 33.1224 47.1252 33.1024 47.1352C33.0824 47.1352 33.0224 46.8352 33.0524 46.8752M33.0424 46.9052C33.0024 46.9352 33.2224 46.7652 33.2724 46.8752C33.3324 46.9952 33.3624 47.5652 33.3624 47.5752C33.3624 47.5952 33.3424 46.9652 33.2624 46.9652C33.1824 46.9552 32.9624 47.4552 32.8924 47.5352C32.8124 47.6252 32.7324 47.5252 32.8024 47.4552C32.8824 47.3852 33.2624 47.1552 33.3324 47.1152C33.4024 47.0752 33.3024 47.1752 33.2124 47.2052C33.1124 47.2352 32.7024 47.3552 32.7524 47.3052C32.8024 47.2652 33.4124 46.9752 33.4924 46.9452C33.5824 46.9252 33.3024 47.0552 33.2724 47.1552" fill="white"/>
<path d="M33.4824 47.3252C33.4924 47.2952 33.3724 47.2452 33.3624 47.2152C33.3524 47.1952 33.3724 47.1452 33.4024 47.1852C33.4424 47.2252 33.6424 47.5252 33.5924 47.4852C33.5424 47.4452 33.1924 47.0052 33.1124 46.9352C33.0324 46.8652 33.1224 47.0152 33.1024 47.0652C33.0924 47.1152 32.9924 47.1852 33.0324 47.2452C33.0624 47.2952 33.3024 47.4052 33.3124 47.4052C33.3124 47.4052 33.0324 47.3252 33.0724 47.2352C33.1024 47.1552 33.4324 46.8652 33.5024 46.8852C33.5824 46.9152 33.5024 47.4052 33.4924 47.4152M32.8624 46.8652C32.9524 46.8852 33.3024 46.8752 33.4624 46.9252C33.6124 46.9652 33.8824 47.0452 33.8124 47.1352C33.7324 47.2352 33.0924 47.4652 33.0024 47.5052C32.9024 47.5452 33.1524 47.3652 33.2524 47.3852C33.3524 47.3952 33.6424 47.6552 33.6124 47.5852C33.5924 47.5252 33.1524 46.9952 33.1024 46.9852C33.0424 46.9852 33.3924 47.5652 33.3124 47.5652C33.2324 47.5652 32.7024 47.1352 32.6224 46.9852C32.5324 46.8452 32.7224 46.6252 32.8124 46.7052C32.9024 46.7852 33.0324 47.3552 33.1424 47.4752" stroke="#1E1E1E" stroke-linecap="round"/>
<path d="M53.0408 47.2248C53.0308 47.2248 53.0108 46.7848 53.0608 46.8148C53.1008 46.8348 53.2708 47.3048 53.3208 47.3548C53.3608 47.3948 53.3308 47.1748 53.3308 47.0948C53.3308 47.0048 53.3308 46.8448 53.3308 46.8448C53.3408 46.8548 53.3708 47.1148 53.3508 47.1248C53.3308 47.1348 53.2908 46.9648 53.2308 46.9148C53.1708 46.8548 53.0508 46.7648 52.9908 46.7848C52.9308 46.8048 52.8608 47.0448 52.8508 47.0448C52.8408 47.0348 52.8708 46.7248 52.9308 46.7648C52.9908 46.7948 53.2008 47.1848 53.2208 47.2748M53.0208 46.7548C53.0808 46.8548 53.1408 47.4148 53.1708 47.4248C53.1908 47.4248 53.2108 46.8048 53.1708 46.7948C53.1308 46.7848 52.9508 47.2948 52.9008 47.3848C52.8508 47.4748 52.7908 47.4048 52.8708 47.3448C52.9408 47.2848 53.3208 47.0748 53.3608 47.0448C53.4108 47.0048 53.2808 47.1148 53.1508 47.1548C53.0208 47.1848 52.5608 47.3048 52.5808 47.2548C52.6008 47.2048 53.1508 46.8948 53.2508 46.8648C53.3408 46.8248 53.1508 46.9448 53.1508 47.0448C53.1508 47.1348 53.2508 47.4648 53.2308 47.4348" fill="white"/>
<path d="M53.1508 47.0848C53.1508 47.0548 53.1908 46.9948 53.2508 47.0348C53.3208 47.0748 53.5408 47.3648 53.5208 47.3248C53.5008 47.2848 53.1708 46.8548 53.1108 46.7948C53.0408 46.7348 53.1408 46.9048 53.1308 46.9648C53.1108 47.0248 53.0008 47.0948 53.0108 47.1648C53.0308 47.2248 53.2408 47.3448 53.2208 47.3448C53.2008 47.3448 52.8808 47.2548 52.8908 47.1648C52.9108 47.0748 53.2008 46.7648 53.2808 46.7948C53.3708 46.8148 53.3908 47.3048 53.4008 47.3048C53.4108 47.3048 53.3908 46.8648 53.3408 46.7948M53.2108 46.7948C53.3708 46.8248 53.6708 46.8848 53.6208 46.9848C53.5708 47.0748 52.9708 47.2948 52.9108 47.3348C52.8508 47.3848 53.1408 47.2148 53.2608 47.2348C53.3908 47.2548 53.6908 47.5248 53.6708 47.4748C53.6508 47.4248 53.1908 46.9048 53.1208 46.9148C53.0508 46.9148 53.3608 47.5048 53.2508 47.5048C53.1308 47.5148 52.5608 47.0748 52.4508 46.9348C52.3308 46.7848 52.4708 46.5448 52.5708 46.6248C52.6608 46.6948 52.8908 47.2448 53.0208 47.3648C53.1608 47.4848 53.3908 47.4448 53.3908 47.3348" stroke="#1E1E1E" stroke-linecap="round"/>
<path d="M39.1163 51.7094L47.9663 52.4094L47.6263 57.1394L39.2663 56.8994" fill="white"/>
<path d="M38.8163 52.1493C42.1763 52.3293 45.0663 52.2093 48.1063 52.1493M38.8163 52.1493C41.6763 52.0493 44.1363 52.1093 48.1063 52.1493M38.8163 52.1493C38.7763 53.9693 38.9563 55.5393 38.8163 57.2793M38.8163 52.1493C38.8063 54.9593 38.8663 56.2093 38.8163 57.2793M48.1063 52.1493C48.2463 53.5393 48.0863 54.7493 48.1063 57.2793M48.1063 52.1493C48.1763 54.1493 48.0463 56.0393 48.1063 57.2793M48.1063 57.2793C45.5063 57.3293 43.0863 57.4993 38.8163 57.2793M48.1063 57.2793C45.3563 57.3393 42.7763 57.4093 38.8163 57.2793" stroke="#1E1E1E" stroke-linecap="round"/>
<path d="M41.4481 52.4639C41.4681 54.2239 41.4681 55.9139 41.4781 56.9739ZM41.4481 52.4639C41.3981 54.0739 41.4381 55.6939 41.4781 56.9739Z" stroke="#1E1E1E" stroke-linecap="round"/>
<path d="M43.6293 52.3973C43.6293 54.0573 43.7393 55.8273 43.6593 56.9073ZM43.6293 52.3973C43.5793 53.5073 43.6393 54.6973 43.6593 56.9073Z" stroke="#1E1E1E" stroke-linecap="round"/>
<path d="M45.7358 52.3439C45.8358 53.9339 45.6758 55.1539 45.7658 56.8539ZM45.7358 52.3439C45.7458 53.7139 45.7958 54.9439 45.7658 56.8539Z" stroke="#1E1E1E" stroke-linecap="round"/>
<path d="M40.3933 75.2104C41.4433 73.8404 42.1933 72.7604 43.1233 71.9604C42.3933 72.9204 41.5533 73.9804 40.3933 75.2104ZM40.3933 75.2104C40.5833 76.9004 40.2433 78.9404 40.1333 83.4404C40.4033 78.9304 40.3533 77.0004 40.3933 75.2104Z" stroke="#1E1E1E" stroke-linecap="round"/>
<path d="M46.3094 76.5784C45.8194 75.5084 45.0794 73.6384 44.3994 72.0484C45.1894 73.8884 45.7994 75.6184 46.3094 76.5784ZM46.3094 76.5784C46.2994 79.1884 46.1194 81.7984 46.3694 83.5584C46.2094 80.1884 46.4694 78.3184 46.3094 76.5784Z" stroke="#1E1E1E" stroke-linecap="round"/>
<path d="M40.1294 83.5115C39.4594 83.5415 38.8794 83.6415 36.8694 83.6515ZM40.1294 83.5115C39.1494 83.6015 38.2994 83.6315 36.8694 83.6515Z" stroke="#1E1E1E" stroke-linecap="round"/>
<path d="M46.3623 83.7193C47.3323 83.8593 48.0923 83.8593 49.8923 83.9293ZM46.3623 83.7193C47.7623 83.8193 49.0123 83.8593 49.8923 83.9293Z" stroke="#1E1E1E" stroke-linecap="round"/>
</svg>
