<svg width="86" height="127" viewBox="0 0 86 127" fill="none" xmlns="http://www.w3.org/2000/svg">
<path d="M23.0632 2.07732C35.4032 0.937317 54.6032 0.0373168 63.4632 2.07732C79.5832 0.607317 83.4532 5.85732 83.6632 22.2773C84.4332 49.7573 81.5032 84.4873 83.6632 103.827C80.3932 115.817 76.1732 123.247 63.4632 124.027C47.9932 125.917 38.3132 124.537 23.0632 124.027C10.1732 122.557 4.09317 117.967 2.86317 103.827C1.56317 82.2573 6.15317 61.8773 2.86317 22.2773C4.18317 9.51732 12.8232 5.07732 23.0632 2.07732Z" fill="white"/>
<path d="M23.0632 2.0773C40.1032 3.9273 55.8932 0.607301 63.4632 2.0773M23.0632 2.0773C32.5432 2.5073 42.1632 2.8173 63.4632 2.0773M23.0632 2.0773C9.49319 0.277301 2.09318 8.5173 2.86318 22.2773M23.0632 2.0773C9.89318 1.2273 3.93318 9.9473 2.86318 22.2773M63.4632 2.0773C75.4232 1.2473 82.8332 8.3673 83.6632 22.2773M63.4632 2.0773C75.5032 0.767301 81.8332 10.1673 83.6632 22.2773M83.6632 22.2773C82.8132 54.2573 84.4232 85.0073 83.6632 103.827M83.6632 22.2773C84.5532 44.5073 84.0132 67.2973 83.6632 103.827M83.6632 103.827C82.2132 115.707 74.9832 124.897 63.4632 124.027M83.6632 103.827C82.3232 117.517 78.1832 122.107 63.4632 124.027M63.4632 124.027C47.7232 126.127 34.0132 125.677 23.0632 124.027M63.4632 124.027C53.6932 123.647 45.3732 124.197 23.0632 124.027M23.0632 124.027C7.94318 125.277 4.44318 115.587 2.86318 103.827M23.0632 124.027C7.52318 121.727 1.36318 117.337 2.86318 103.827M2.86318 103.827C0.953184 75.1273 2.64318 45.1873 2.86318 22.2773M2.86318 103.827C1.89318 73.6773 3.16318 45.2573 2.86318 22.2773" stroke="#1E1E1E" stroke-width="2" stroke-linecap="round"/>
<path d="M11.6785 90.2999C22.6685 90.2999 66.6485 90.2999 77.6385 90.2999" stroke="#1E1E1E" stroke-width="2" stroke-linecap="round"/>
<path d="M10.9472 105.897C10.9372 104.997 10.9172 101.387 10.9072 100.487" stroke="#1E1E1E" stroke-linecap="round"/>
<path d="M10.8752 100.69C11.1252 100.33 12.1352 98.9097 12.3852 98.5497" stroke="#1E1E1E" stroke-linecap="round"/>
<path d="M13.878 105.961C13.888 105.061 13.908 101.451 13.918 100.551" stroke="#1E1E1E" stroke-linecap="round"/>
<path d="M13.95 100.754C13.7 100.394 12.69 98.974 12.44 98.614" stroke="#1E1E1E" stroke-linecap="round"/>
<path d="M8.73499 106.447C9.91499 106.427 14.615 106.347 15.785 106.327" stroke="#1E1E1E" stroke-linecap="round"/>
<path d="M12.5935 106.538C12.6035 107.168 12.6435 109.708 12.6535 110.338" stroke="#1E1E1E" stroke-linecap="round"/>
<path d="M54.0047 101.619C54.3647 101.249 55.8047 99.749 56.1647 99.369" stroke="#1E1E1E" stroke-linecap="round"/>
<path d="M56.1602 99.3287C56.5602 99.6587 58.1402 100.979 58.5402 101.309" stroke="#1E1E1E" stroke-linecap="round"/>
<path d="M58.6301 101.574C57.9401 102.634 55.1901 106.884 54.5001 107.954" stroke="#1E1E1E" stroke-linecap="round"/>
<path d="M54.0721 101.619C53.7121 101.249 52.2721 99.749 51.9121 99.369" stroke="#1E1E1E" stroke-linecap="round"/>
<path d="M51.9166 99.3287C51.5166 99.6587 49.9366 100.979 49.5366 101.309" stroke="#1E1E1E" stroke-linecap="round"/>
<path d="M49.4467 101.574C50.1367 102.634 52.8867 106.884 53.5767 107.954" stroke="#1E1E1E" stroke-linecap="round"/>
<path d="M24.3907 1.96417C35.9907 1.96417 47.6007 1.96417 60.7807 1.96417C63.2607 1.96417 64.5107 3.20417 64.5107 5.69417C64.5107 8.54417 64.5107 11.4042 64.5107 13.1442C64.5107 15.6242 63.2607 16.8642 60.7807 16.8642C49.0207 16.8642 37.2507 16.8642 24.3907 16.8642C21.9007 16.8642 20.6607 15.6242 20.6607 13.1442C20.6607 10.9942 20.6607 8.85417 20.6607 5.69417C20.6607 3.20417 21.9007 1.96417 24.3907 1.96417Z" fill="white"/>
<path d="M24.3907 1.96417C36.2307 1.96417 48.0707 1.96417 60.7807 1.96417M24.3907 1.96417C36.9007 1.96417 49.4107 1.96417 60.7807 1.96417M24.3907 1.96417C21.9007 1.96417 20.6607 3.20417 20.6607 5.69417M60.7807 1.96417C63.2607 1.96417 64.5107 3.20417 64.5107 5.69417M64.5107 5.69417C64.5107 7.18417 64.5107 8.68417 64.5107 13.1442M64.5107 5.69417C64.5107 7.29417 64.5107 8.89417 64.5107 13.1442M64.5107 13.1442C64.5107 15.6242 63.2607 16.8642 60.7807 16.8642M60.7807 16.8642C51.8307 16.8642 42.8707 16.8642 24.3907 16.8642M60.7807 16.8642C53.1307 16.8642 45.4907 16.8642 24.3907 16.8642M24.3907 16.8642C21.9007 16.8642 20.6607 15.6242 20.6607 13.1442M20.6607 13.1442C20.6607 11.5142 20.6607 9.89417 20.6607 5.69417M20.6607 13.1442C20.6607 10.5342 20.6607 7.93417 20.6607 5.69417" stroke="#1E1E1E" stroke-width="2" stroke-linecap="round"/>
<path d="M26.6488 12.1622V5.80756H30.4591V6.49019H27.4183V8.63738H30.1736V9.32001H27.4183V12.1622H26.6488ZM31.6778 12.1622V7.39623H32.41V12.1622H31.6778ZM32.0501 6.60189C31.9074 6.60189 31.7843 6.55328 31.6809 6.45606C31.5795 6.35884 31.5288 6.24196 31.5288 6.10544C31.5288 5.96891 31.5795 5.85204 31.6809 5.75481C31.7843 5.65759 31.9074 5.60898 32.0501 5.60898C32.1928 5.60898 32.3149 5.65759 32.4162 5.75481C32.5197 5.85204 32.5714 5.96891 32.5714 6.10544C32.5714 6.24196 32.5197 6.35884 32.4162 6.45606C32.3149 6.55328 32.1928 6.60189 32.0501 6.60189ZM33.7512 12.1622V7.39623H34.4587V8.11609H34.5083C34.5952 7.88028 34.7524 7.68893 34.98 7.54206C35.2075 7.39519 35.464 7.32176 35.7495 7.32176C35.8033 7.32176 35.8705 7.32279 35.9512 7.32486C36.0319 7.32693 36.0929 7.33003 36.1342 7.33417V8.07886C36.1094 8.07265 36.0525 8.06334 35.9636 8.05093C35.8767 8.03645 35.7847 8.02921 35.6874 8.02921C35.4558 8.02921 35.2489 8.07782 35.0669 8.17505C34.8869 8.2702 34.7442 8.40259 34.6387 8.57221C34.5352 8.73977 34.4835 8.93111 34.4835 9.14625V12.1622H33.7512ZM38.8555 12.2615C38.3962 12.2615 38.0001 12.1602 37.6671 11.9574C37.3361 11.7527 37.0806 11.4672 36.9007 11.1011C36.7228 10.7328 36.6338 10.3046 36.6338 9.81646C36.6338 9.32828 36.7228 8.89802 36.9007 8.52567C37.0806 8.15126 37.3309 7.85959 37.6515 7.65066C37.9742 7.43967 38.3507 7.33417 38.781 7.33417C39.0292 7.33417 39.2743 7.37554 39.5164 7.45829C39.7584 7.54103 39.9787 7.67549 40.1773 7.86166C40.3759 8.04576 40.5341 8.28985 40.652 8.59394C40.7699 8.89802 40.8289 9.27243 40.8289 9.71717V10.0275H37.1551V9.39447H40.0842C40.0842 9.12556 40.0304 8.8856 39.9228 8.67461C39.8173 8.46361 39.6663 8.29709 39.4698 8.17505C39.2754 8.053 39.0458 7.99198 38.781 7.99198C38.4893 7.99198 38.237 8.06438 38.0239 8.20918C37.8129 8.35191 37.6505 8.53808 37.5367 8.7677C37.423 8.99731 37.3661 9.24347 37.3661 9.50618V9.92817C37.3661 10.2881 37.4281 10.5932 37.5523 10.8435C37.6784 11.0917 37.8532 11.281 38.0766 11.4113C38.3 11.5396 38.5597 11.6037 38.8555 11.6037C39.0478 11.6037 39.2216 11.5768 39.3767 11.523C39.534 11.4672 39.6694 11.3844 39.7832 11.2748C39.897 11.1631 39.9849 11.0245 40.047 10.859L40.7544 11.0576C40.6799 11.2976 40.5548 11.5086 40.379 11.6906C40.2031 11.8706 39.9859 12.0112 39.7274 12.1126C39.4688 12.2119 39.1782 12.2615 38.8555 12.2615ZM45.4801 12.1622L44.0279 7.39623H44.7974L45.8276 11.0452H45.8772L46.895 7.39623H47.6769L48.6822 11.0328H48.7319L49.762 7.39623H50.5315L49.0794 12.1622H48.3595L47.317 8.50085H47.2425L46.1999 12.1622H45.4801ZM52.9021 12.2739C52.6001 12.2739 52.326 12.217 52.0799 12.1033C51.8337 11.9874 51.6382 11.8209 51.4934 11.6037C51.3486 11.3844 51.2762 11.1197 51.2762 10.8094C51.2762 10.5363 51.33 10.315 51.4376 10.1454C51.5451 9.97368 51.6889 9.83922 51.8689 9.742C52.0488 9.64477 52.2474 9.57237 52.4646 9.52479C52.6839 9.47515 52.9042 9.43585 53.1255 9.40689C53.4151 9.36965 53.6499 9.34173 53.8299 9.32311C54.0119 9.30242 54.1443 9.26829 54.2271 9.22071C54.3119 9.17314 54.3543 9.09039 54.3543 8.97248V8.94766C54.3543 8.64151 54.2705 8.40363 54.1029 8.234C53.9375 8.06438 53.6861 7.97957 53.3489 7.97957C52.9994 7.97957 52.7253 8.0561 52.5267 8.20918C52.3281 8.36225 52.1885 8.52567 52.1078 8.69943L51.4128 8.4512C51.5369 8.1616 51.7024 7.93613 51.9092 7.77478C52.1181 7.61136 52.3457 7.49759 52.5919 7.43346C52.8401 7.36727 53.0842 7.33417 53.3241 7.33417C53.4772 7.33417 53.653 7.35279 53.8516 7.39002C54.0523 7.42519 54.2457 7.49862 54.4318 7.61033C54.6201 7.72203 54.7763 7.89062 54.9004 8.11609C55.0245 8.34157 55.0866 8.64358 55.0866 9.02213V12.1622H54.3543V11.5168H54.317C54.2674 11.6203 54.1847 11.7309 54.0688 11.8488C53.953 11.9668 53.7989 12.0671 53.6065 12.1498C53.4141 12.2326 53.1793 12.2739 52.9021 12.2739ZM53.0138 11.6161C53.3034 11.6161 53.5475 11.5592 53.7461 11.4455C53.9468 11.3317 54.0978 11.1848 54.1991 11.0049C54.3026 10.8249 54.3543 10.6356 54.3543 10.437V9.76682C54.3232 9.80405 54.255 9.83818 54.1495 9.86921C54.0461 9.89817 53.9261 9.92403 53.7896 9.94678C53.6551 9.96747 53.5237 9.98609 53.3955 10.0026C53.2693 10.0171 53.1669 10.0295 53.0883 10.0399C52.898 10.0647 52.7201 10.105 52.5546 10.1609C52.3912 10.2147 52.2588 10.2964 52.1574 10.406C52.0582 10.5136 52.0085 10.6604 52.0085 10.8466C52.0085 11.1011 52.1026 11.2934 52.2909 11.4237C52.4812 11.552 52.7222 11.6161 53.0138 11.6161ZM57.1554 5.80756V12.1622H56.4231V5.80756H57.1554ZM59.2289 5.80756V12.1622H58.4966V5.80756H59.2289Z" fill="#1E1E1E"/>
<path d="M48.6273 56.4283C47.4073 55.8883 42.8073 55.7483 41.3073 53.1783C39.8173 50.6083 39.9273 43.0283 39.6473 40.9983" stroke="#1E1E1E" stroke-linecap="round"/>
<path d="M39.818 40.9503C40.228 41.1703 41.698 41.6503 42.278 42.2403C42.848 42.8303 43.108 44.1203 43.278 44.4903" stroke="#1E1E1E" stroke-linecap="round"/>
<path d="M43.7348 44.5337C43.8148 43.4737 43.2448 40.2937 44.2348 38.1537C45.2248 36.0237 48.7848 32.8137 49.6948 31.7437" stroke="#1E1E1E" stroke-linecap="round"/>
<path d="M50.1934 32.2833C50.3434 33.3433 50.5834 37.0433 51.0734 38.6133C51.5534 40.1933 52.7734 41.2233 53.1134 41.7433" stroke="#1E1E1E" stroke-linecap="round"/>
<path d="M53.4019 41.8253C53.6619 41.5553 54.2819 40.6053 54.9419 40.1953C55.6019 39.7953 56.9619 39.5453 57.3619 39.4053" stroke="#1E1E1E" stroke-linecap="round"/>
<path d="M57.777 39.5336C57.837 41.4336 59.517 48.0436 58.107 50.9136C56.707 53.7736 50.817 55.7736 49.357 56.7436" stroke="#1E1E1E" stroke-linecap="round"/>
<path d="M49.1165 54.2805C48.4365 54.0105 45.8765 53.9405 45.0465 52.6605C44.2165 51.3805 44.2865 47.6105 44.1265 46.5905" stroke="#1E1E1E" stroke-linecap="round"/>
<path d="M44.2211 46.5699C44.4511 46.6799 45.2711 46.9199 45.5911 47.2099C45.9111 47.5099 46.0511 48.1499 46.1411 48.3299" stroke="#1E1E1E" stroke-linecap="round"/>
<path d="M46.3976 48.3551C46.4476 47.8251 46.1276 46.2451 46.6776 45.1751C47.2276 44.1151 49.2076 42.5151 49.7076 41.9851" stroke="#1E1E1E" stroke-linecap="round"/>
<path d="M49.9867 42.2524C50.0667 42.7824 50.2067 44.6224 50.4767 45.4124C50.7467 46.1924 51.4167 46.7024 51.6067 46.9624" stroke="#1E1E1E" stroke-linecap="round"/>
<path d="M51.7697 47.0059C51.9097 46.8759 52.2597 46.3959 52.6297 46.1959C52.9897 45.9959 53.7497 45.8659 53.9697 45.8059" stroke="#1E1E1E" stroke-linecap="round"/>
<path d="M54.201 45.8642C54.231 46.8042 55.161 50.1042 54.391 51.5342C53.611 52.9642 50.331 53.9542 49.521 54.4342" stroke="#1E1E1E" stroke-linecap="round"/>
<path d="M29.3337 53.9932C39.8337 53.9932 50.3437 53.9932 57.1437 53.9932C61.7337 53.9932 64.0337 56.2932 64.0337 60.8932C64.0337 66.0232 64.0337 71.1532 64.0337 74.6832C64.0337 79.2732 61.7337 81.5732 57.1437 81.5732C50.2737 81.5732 43.4037 81.5732 29.3337 81.5732C24.7337 81.5732 22.4337 79.2732 22.4337 74.6832C22.4337 70.4832 22.4337 66.2932 22.4337 60.8932C22.4337 56.2932 24.7337 53.9932 29.3337 53.9932Z" fill="white"/>
<path d="M29.3337 53.9932C39.8637 53.9932 50.4037 53.9932 57.1437 53.9932M29.3337 53.9932C39.6237 53.9932 49.9137 53.9932 57.1437 53.9932M29.3337 53.9932C24.7337 53.9932 22.4337 56.2932 22.4337 60.8932M57.1437 53.9932C61.7337 53.9932 64.0337 56.2932 64.0337 60.8932M64.0337 60.8932C64.0337 64.9532 64.0337 69.0232 64.0337 74.6832M64.0337 60.8932C64.0337 65.6732 64.0337 70.4632 64.0337 74.6832M64.0337 74.6832C64.0337 79.2732 61.7337 81.5732 57.1437 81.5732M57.1437 81.5732C50.7637 81.5732 44.3937 81.5732 29.3337 81.5732M57.1437 81.5732C50.3937 81.5732 43.6337 81.5732 29.3337 81.5732M29.3337 81.5732C24.7337 81.5732 22.4337 79.2732 22.4337 74.6832M22.4337 74.6832C22.4337 69.7632 22.4337 64.8432 22.4337 60.8932M22.4337 74.6832C22.4337 70.1032 22.4337 65.5232 22.4337 60.8932" stroke="white" stroke-width="0.5" stroke-linecap="round"/>
<path d="M27.2772 39.3171C29.4072 39.9271 31.8972 39.0371 33.1172 39.3171C34.4272 40.3671 36.2572 37.6571 34.6172 40.8171C34.2672 41.6871 34.3572 42.2171 34.6172 43.8171C36.1072 46.7671 32.9072 43.3671 33.1172 45.3171C31.2372 45.6271 28.8372 45.3271 27.2772 45.3171C26.8472 43.6571 25.8772 42.7171 25.7772 43.8171C25.7072 42.6871 25.7072 42.1871 25.7772 40.8171C26.4672 40.3171 24.0172 39.7971 27.2772 39.3171Z" fill="white"/>
<path d="M27.2772 39.3171C28.5072 39.4471 29.8672 39.3271 33.1172 39.3171M27.2772 39.3171C28.6272 39.3771 30.0472 39.2471 33.1172 39.3171M27.2772 39.3171C25.6172 39.3271 25.9372 39.2171 25.7772 40.8171M27.2772 39.3171C26.8772 39.1671 25.9472 39.8271 25.7772 40.8171M33.1172 39.3171C33.7572 38.8671 35.0972 40.0671 34.6172 40.8171M33.1172 39.3171C33.8172 39.2071 34.5772 39.1271 34.6172 40.8171M34.6172 40.8171C34.5772 41.9071 34.6672 42.7971 34.6172 43.8171M34.6172 40.8171C34.5672 41.6071 34.5872 42.3271 34.6172 43.8171M34.6172 43.8171C34.0672 45.2871 34.2872 44.9771 33.1172 45.3171M34.6172 43.8171C34.6972 44.2371 33.5672 45.6971 33.1172 45.3171M33.1172 45.3171C31.8472 45.3271 30.5572 45.1571 27.2772 45.3171M33.1172 45.3171C31.9072 45.3271 30.6072 45.3471 27.2772 45.3171M27.2772 45.3171C26.4072 44.9971 25.2072 44.7271 25.7772 43.8171M27.2772 45.3171C25.7372 45.1071 26.2072 44.6471 25.7772 43.8171M25.7772 43.8171C25.8572 42.7571 25.8072 41.7971 25.7772 40.8171M25.7772 43.8171C25.7672 42.8771 25.8272 41.8871 25.7772 40.8171" stroke="#1E1E1E" stroke-linecap="round"/>
<path d="M33.0147 46.9336C34.9447 46.5936 36.5547 47.1836 38.8547 46.9336C41.4947 44.7736 39.0147 45.3936 40.3547 48.4336C40.0947 49.1936 40.5447 50.3536 40.3547 51.4336C39.1447 50.4836 40.3247 53.5736 38.8547 52.9336C36.1747 52.9236 34.7247 52.4736 33.0147 52.9336C32.1147 50.8336 31.9347 50.5036 31.5147 51.4336C31.4347 50.7636 31.6247 49.6136 31.5147 48.4336C29.2547 47.9136 30.1347 46.8536 33.0147 46.9336Z" fill="white"/>
<path d="M33.0147 46.9336C34.5247 46.9236 35.6247 46.9636 38.8547 46.9336M33.0147 46.9336C34.9247 46.8536 36.6647 46.8536 38.8547 46.9336M33.0147 46.9336C32.1647 46.9436 30.8547 47.4436 31.5147 48.4336M33.0147 46.9336C32.6147 47.1736 32.1147 47.2836 31.5147 48.4336M38.8547 46.9336C40.3347 47.1836 40.0947 47.3336 40.3547 48.4336M38.8547 46.9336C39.8147 46.2436 40.7047 47.8136 40.3547 48.4336M40.3547 48.4336C40.3947 49.2736 40.2947 50.2636 40.3547 51.4336M40.3547 48.4336C40.3247 49.6136 40.3047 50.8336 40.3547 51.4336M40.3547 51.4336C40.5247 52.0936 39.9247 52.4336 38.8547 52.9336M40.3547 51.4336C39.8047 52.8136 39.1547 52.6236 38.8547 52.9336M38.8547 52.9336C37.1147 52.7836 35.4247 53.0736 33.0147 52.9336M38.8547 52.9336C37.1547 52.9736 35.5547 52.8936 33.0147 52.9336M33.0147 52.9336C31.4447 52.8436 31.0447 52.2536 31.5147 51.4336M33.0147 52.9336C32.4447 52.7636 31.7947 52.5836 31.5147 51.4336M31.5147 51.4336C31.5347 50.2636 31.5347 49.0036 31.5147 48.4336M31.5147 51.4336C31.5647 50.4536 31.5347 49.3636 31.5147 48.4336" stroke="#1E1E1E" stroke-linecap="round"/>
<path d="M27.5746 54.6549C29.9546 54.9849 32.6246 54.0549 33.4146 54.6549C33.0746 52.6149 34.2546 53.0249 34.9146 56.1549C35.1146 57.4749 34.7046 57.9249 34.9146 59.1549C35.3846 60.7949 35.9546 60.6349 33.4146 60.6549C31.5946 60.1649 29.4646 60.0349 27.5746 60.6549C26.9946 58.7249 26.4346 59.4849 26.0746 59.1549C26.1846 58.4949 25.7446 57.7449 26.0746 56.1549C24.1946 55.0749 27.2946 55.6949 27.5746 54.6549Z" fill="white"/>
<path d="M27.5746 54.6549C29.5346 54.7049 31.7846 54.6249 33.4146 54.6549M27.5746 54.6549C29.6346 54.6049 31.8646 54.7049 33.4146 54.6549M27.5746 54.6549C27.0946 54.5249 26.2246 55.1649 26.0746 56.1549M27.5746 54.6549C26.5346 54.5549 26.6746 55.3949 26.0746 56.1549M33.4146 54.6549C34.1546 54.5549 34.8746 54.5549 34.9146 56.1549M33.4146 54.6549C34.7646 55.0349 35.0046 54.8749 34.9146 56.1549M34.9146 56.1549C34.8646 57.1549 35.0046 58.1749 34.9146 59.1549M34.9146 56.1549C34.8646 57.3149 34.9246 58.3749 34.9146 59.1549M34.9146 59.1549C34.9846 59.6549 33.9346 60.9849 33.4146 60.6549M34.9146 59.1549C34.2146 59.8449 34.2546 60.4949 33.4146 60.6549M33.4146 60.6549C31.4646 60.7749 29.8346 60.7049 27.5746 60.6549M33.4146 60.6549C31.5846 60.6149 29.6446 60.6549 27.5746 60.6549M27.5746 60.6549C26.1046 60.4749 26.4546 60.0049 26.0746 59.1549M27.5746 60.6549C26.8546 60.8049 26.7646 60.7949 26.0746 59.1549M26.0746 59.1549C26.0946 58.3149 26.1046 57.6149 26.0746 56.1549M26.0746 59.1549C26.0746 58.0149 26.0146 56.9549 26.0746 56.1549" stroke="#1E1E1E" stroke-linecap="round"/>
<path d="M38.6302 54.8304C40.6102 54.1704 41.2502 54.2104 44.4702 54.8304C44.8102 52.7004 46.9502 53.8104 45.9702 56.3304C45.8102 56.8904 46.0602 58.1404 45.9702 59.3304C47.5102 60.3104 46.3802 59.0204 44.4702 60.8304C42.7802 60.1704 41.1502 60.2204 38.6302 60.8304C37.9902 60.1604 35.9302 59.7004 37.1302 59.3304C36.7802 58.2604 36.8402 57.0304 37.1302 56.3304C37.8502 56.3704 36.3402 56.2904 38.6302 54.8304Z" fill="white"/>
<path d="M38.6302 54.8304C40.4002 54.8004 42.2302 54.9304 44.4702 54.8304M38.6302 54.8304C40.0402 54.8804 41.2802 54.8304 44.4702 54.8304M38.6302 54.8304C38.1502 55.0404 37.6502 55.2004 37.1302 56.3304M38.6302 54.8304C38.3302 55.0704 37.0902 55.2304 37.1302 56.3304M44.4702 54.8304C45.4302 54.2304 46.2802 55.6604 45.9702 56.3304M44.4702 54.8304C45.5602 54.5504 46.3402 55.6904 45.9702 56.3304M45.9702 56.3304C46.0502 56.8604 46.0402 57.5104 45.9702 59.3304M45.9702 56.3304C45.9702 57.1904 45.9602 58.0604 45.9702 59.3304M45.9702 59.3304C45.4902 60.6604 44.8602 60.5604 44.4702 60.8304M45.9702 59.3304C45.8102 60.1704 45.5002 60.3904 44.4702 60.8304M44.4702 60.8304C43.1502 60.9004 41.9302 60.7704 38.6302 60.8304M44.4702 60.8304C42.4302 60.8104 40.5002 60.8004 38.6302 60.8304M38.6302 60.8304C38.0102 60.6804 37.3702 60.4604 37.1302 59.3304M38.6302 60.8304C38.3202 61.4704 36.7502 60.5804 37.1302 59.3304M37.1302 59.3304C37.1602 58.3904 37.1902 57.6204 37.1302 56.3304M37.1302 59.3304C37.0802 58.2604 37.1402 57.1904 37.1302 56.3304" stroke="#1E1E1E" stroke-linecap="round"/>
<path d="M33.1901 63.2537C34.8201 62.7237 37.0401 62.6937 39.0301 63.2537C41.0101 61.7337 40.1901 65.2437 40.5301 64.7537C40.5801 66.0137 40.7401 67.0637 40.5301 67.7537C41.4401 66.9437 39.9001 69.8237 39.0301 69.2537C37.8301 68.6337 36.4901 68.9937 33.1901 69.2537C30.9901 68.6237 33.5401 69.4437 31.6901 67.7537C31.4401 66.7737 31.8301 65.9737 31.6901 64.7537C30.4001 65.2137 30.6901 64.5937 33.1901 63.2537Z" fill="white"/>
<path d="M33.1901 63.2537C35.2001 63.3637 36.8301 63.1537 39.0301 63.2537M33.1901 63.2537C34.5101 63.2337 35.9001 63.1637 39.0301 63.2537M33.1901 63.2537C32.1601 63.1737 32.2101 63.9637 31.6901 64.7537M33.1901 63.2537C31.8701 63.3637 32.3901 63.9937 31.6901 64.7537M39.0301 63.2537C40.3401 63.5837 40.6101 63.5037 40.5301 64.7537M39.0301 63.2537C40.4001 63.6137 39.7801 63.3837 40.5301 64.7537M40.5301 64.7537C40.6101 65.4637 40.5301 66.1637 40.5301 67.7537M40.5301 64.7537C40.5301 65.8237 40.4901 67.0037 40.5301 67.7537M40.5301 67.7537C39.9201 68.4837 39.8901 69.1137 39.0301 69.2537M40.5301 67.7537C40.5601 68.3137 39.4201 68.5737 39.0301 69.2537M39.0301 69.2537C36.9101 69.1837 34.7901 69.2937 33.1901 69.2537M39.0301 69.2537C37.4901 69.2237 36.1401 69.2337 33.1901 69.2537M33.1901 69.2537C32.4301 69.3837 32.2901 69.3137 31.6901 67.7537M33.1901 69.2537C31.8101 69.5037 31.7001 68.9537 31.6901 67.7537M31.6901 67.7537C31.7501 67.2137 31.7401 66.5137 31.6901 64.7537M31.6901 67.7537C31.7101 67.1237 31.7401 66.4937 31.6901 64.7537" stroke="#1E1E1E" stroke-linecap="round"/>
<path d="M44.5967 63.4292C45.5967 62.8692 47.2667 63.0492 50.4367 63.4292C51.0967 64.9192 53.8867 62.7292 51.9367 64.9292C52.1667 65.5692 52.0767 65.9392 51.9367 67.9292C51.8067 69.4992 49.7667 69.5292 50.4367 69.4292C49.3267 69.1792 47.6667 69.1892 44.5967 69.4292C45.4467 70.1192 43.5967 66.6692 43.0967 67.9292C43.2367 67.1192 42.9267 66.2192 43.0967 64.9292C41.5967 65.2692 43.6767 62.6192 44.5967 63.4292Z" fill="white"/>
<path d="M44.5967 63.4292C46.1267 63.3092 47.7967 63.5592 50.4367 63.4292M44.5967 63.4292C46.5567 63.3492 48.5767 63.4792 50.4367 63.4292M44.5967 63.4292C44.2067 63.6392 43.0667 63.8492 43.0967 64.9292M44.5967 63.4292C43.9567 63.9792 42.7767 64.0392 43.0967 64.9292M50.4367 63.4292C51.5167 63.1792 52.2567 64.2392 51.9367 64.9292M50.4367 63.4292C50.6867 63.0592 51.5367 64.6392 51.9367 64.9292M51.9367 64.9292C51.9367 65.5192 52.0067 66.2992 51.9367 67.9292M51.9367 64.9292C51.8967 65.6992 51.8867 66.4092 51.9367 67.9292M51.9367 67.9292C51.7967 68.7892 51.4567 69.0492 50.4367 69.4292M51.9367 67.9292C51.3267 68.2492 51.9567 69.3092 50.4367 69.4292M50.4367 69.4292C48.5767 69.4592 46.4867 69.2592 44.5967 69.4292M50.4367 69.4292C48.8167 69.3992 47.1267 69.4492 44.5967 69.4292M44.5967 69.4292C44.1967 69.9892 42.7667 69.1392 43.0967 67.9292M44.5967 69.4292C43.6067 69.6292 42.4067 69.2192 43.0967 67.9292M43.0967 67.9292C43.1467 67.1692 42.9967 66.2592 43.0967 64.9292M43.0967 67.9292C43.1367 67.0192 43.1367 66.1292 43.0967 64.9292" stroke="#1E1E1E" stroke-linecap="round"/>
<path d="M29.154 72.2034C30.664 71.8234 31.504 72.7034 34.994 72.2034C37.944 71.0034 34.534 73.1734 36.494 73.7034C36.654 74.4134 36.494 75.7634 36.494 76.7034C34.824 77.8034 33.884 78.6234 34.994 78.2034C33.384 78.0034 33.024 78.3834 29.154 78.2034C28.654 75.9434 28.134 75.8334 27.654 76.7034C27.454 76.0334 27.414 75.1234 27.654 73.7034C27.734 71.8934 25.994 71.2334 29.154 72.2034Z" fill="white"/>
<path d="M29.154 72.2034C31.084 72.3534 33.344 72.1434 34.994 72.2034M29.154 72.2034C30.864 72.2734 32.494 72.1834 34.994 72.2034M29.154 72.2034C27.874 72.2934 28.264 72.9134 27.654 73.7034M29.154 72.2034C27.424 71.7534 28.014 73.2534 27.654 73.7034M34.994 72.2034C36.314 72.5134 35.844 72.3834 36.494 73.7034M34.994 72.2034C35.594 72.9134 35.904 73.2734 36.494 73.7034M36.494 73.7034C36.564 74.5134 36.444 75.2734 36.494 76.7034M36.494 73.7034C36.434 74.3534 36.474 75.0334 36.494 76.7034M36.494 76.7034C36.514 77.3234 35.454 77.6134 34.994 78.2034M36.494 76.7034C37.014 77.5834 36.224 78.3234 34.994 78.2034M34.994 78.2034C33.384 78.0434 31.934 78.0734 29.154 78.2034M34.994 78.2034C33.434 78.2234 31.904 78.2834 29.154 78.2034M29.154 78.2034C27.824 78.4134 27.664 77.8734 27.654 76.7034M29.154 78.2034C27.464 78.4934 27.354 78.2134 27.654 76.7034M27.654 76.7034C27.554 75.4334 27.654 74.3734 27.654 73.7034M27.654 76.7034C27.684 75.8134 27.644 74.8934 27.654 73.7034" stroke="#1E1E1E" stroke-linecap="round"/>
<path d="M39.6831 71.8525C40.7831 72.3325 42.6531 71.5425 45.5231 71.8525C44.5631 72.3225 47.6631 73.8925 47.0231 73.3525C47.0131 74.3325 46.7831 75.1625 47.0231 76.3525C44.9131 77.7725 44.5831 78.2125 45.5231 77.8525C44.4831 78.0325 42.5131 77.1725 39.6831 77.8525C39.1631 75.9825 38.1031 78.0725 38.1831 76.3525C37.9731 75.5225 38.2131 74.1525 38.1831 73.3525C36.0231 71.3825 40.4031 73.5425 39.6831 71.8525Z" fill="white"/>
<path d="M39.6831 71.8525C41.1931 71.7625 42.5231 71.8325 45.5231 71.8525M39.6831 71.8525C40.9231 71.8025 42.1831 71.8925 45.5231 71.8525M39.6831 71.8525C38.9931 72.3325 37.9031 72.4425 38.1831 73.3525M39.6831 71.8525C37.9931 71.6325 37.4531 71.9025 38.1831 73.3525M45.5231 71.8525C45.8731 71.5325 46.6731 72.9725 47.0231 73.3525M45.5231 71.8525C45.9331 72.4225 46.7031 72.3125 47.0231 73.3525M47.0231 73.3525C46.9731 74.0225 46.9531 74.5925 47.0231 76.3525M47.0231 73.3525C47.0031 74.3925 47.0131 75.4225 47.0231 76.3525M47.0231 76.3525C46.4831 76.7625 46.9731 77.7525 45.5231 77.8525M47.0231 76.3525C47.2531 77.4725 46.2031 78.1125 45.5231 77.8525M45.5231 77.8525C43.6331 77.7025 41.7431 77.9525 39.6831 77.8525M45.5231 77.8525C43.9931 77.9425 42.2331 77.8925 39.6831 77.8525M39.6831 77.8525C38.6931 78.0225 37.5831 77.6025 38.1831 76.3525M39.6831 77.8525C38.3831 78.3625 38.8831 77.7825 38.1831 76.3525M38.1831 76.3525C38.1931 75.4025 38.1931 74.4925 38.1831 73.3525M38.1831 76.3525C38.1731 75.5025 38.2231 74.6925 38.1831 73.3525" stroke="#1E1E1E" stroke-linecap="round"/>
<path d="M51.4406 71.326C53.3706 70.936 53.5906 71.416 57.2806 71.326C58.9206 72.866 58.7506 72.736 58.7806 72.826C58.5206 73.506 58.4606 74.206 58.7806 75.826C56.8406 77.186 57.6006 76.126 57.2806 77.326C55.8306 76.686 54.2406 76.806 51.4406 77.326C50.3606 78.046 50.9806 75.536 49.9406 75.826C49.9706 74.616 49.6406 73.496 49.9406 72.826C51.6606 73.516 52.1706 69.686 51.4406 71.326Z" fill="white"/>
<path d="M51.4406 71.326C53.5906 71.326 55.6206 71.426 57.2806 71.326M51.4406 71.326C53.5306 71.376 55.4206 71.286 57.2806 71.326M51.4406 71.326C49.8006 70.936 50.2506 72.306 49.9406 72.826M51.4406 71.326C49.7206 71.656 49.2506 71.606 49.9406 72.826M57.2806 71.326C57.9306 71.946 58.2706 72.316 58.7806 72.826M57.2806 71.326C57.9606 71.286 58.1506 72.366 58.7806 72.826M58.7806 72.826C58.7006 73.736 58.8206 74.696 58.7806 75.826M58.7806 72.826C58.7806 73.576 58.7306 74.336 58.7806 75.826M58.7806 75.826C59.2306 76.726 58.4806 77.436 57.2806 77.326M58.7806 75.826C58.4606 77.086 58.4206 76.966 57.2806 77.326M57.2806 77.326C55.9706 77.426 54.7306 77.386 51.4406 77.326M57.2806 77.326C55.3606 77.376 53.5506 77.366 51.4406 77.326M51.4406 77.326C49.8406 77.576 49.6806 77.266 49.9406 75.826M51.4406 77.326C51.1406 77.756 50.1206 76.136 49.9406 75.826M49.9406 75.826C49.9406 75.306 49.9206 74.706 49.9406 72.826M49.9406 75.826C49.9906 74.846 49.9206 73.846 49.9406 72.826" stroke="#1E1E1E" stroke-linecap="round"/>
<path d="M56.4858 63.2537C58.0458 63.4237 60.9458 63.7337 62.3258 63.2537C63.2958 64.1637 62.0058 63.6237 63.8258 64.7537C63.4858 65.7937 63.5058 66.7637 63.8258 67.7537C63.1458 67.5537 62.6958 71.1037 62.3258 69.2537C60.5358 68.6437 58.4458 69.4037 56.4858 69.2537C56.5258 67.9637 56.4458 67.2537 54.9858 67.7537C54.6558 66.5337 55.2458 65.8537 54.9858 64.7537C56.7158 62.1137 53.6958 61.3837 56.4858 63.2537Z" fill="white"/>
<path d="M56.4858 63.2537C57.8358 63.3437 59.6358 63.2837 62.3258 63.2537M56.4858 63.2537C57.9258 63.1937 59.5058 63.3337 62.3258 63.2537M56.4858 63.2537C54.8858 63.0637 54.3458 63.3637 54.9858 64.7537M56.4858 63.2537C54.9758 63.1437 54.2658 64.0837 54.9858 64.7537M62.3258 63.2537C62.8158 63.7437 63.5458 63.7137 63.8258 64.7537M62.3258 63.2537C62.6958 63.7937 64.0258 63.3637 63.8258 64.7537M63.8258 64.7537C63.8658 65.5937 63.7758 66.5937 63.8258 67.7537M63.8258 64.7537C63.7858 65.5437 63.8558 66.4137 63.8258 67.7537M63.8258 67.7537C64.0258 68.8637 63.0558 69.4837 62.3258 69.2537M63.8258 67.7537C63.9658 68.3837 62.6658 69.1537 62.3258 69.2537M62.3258 69.2537C60.9358 69.3337 59.6858 69.4437 56.4858 69.2537M62.3258 69.2537C60.0858 69.2837 57.7558 69.2937 56.4858 69.2537M56.4858 69.2537C55.2258 69.6937 55.5958 69.1337 54.9858 67.7537M56.4858 69.2537C55.6658 68.5637 54.2258 68.7737 54.9858 67.7537M54.9858 67.7537C54.9658 66.8637 55.0158 65.8137 54.9858 64.7537M54.9858 67.7537C54.9558 66.9037 54.9958 66.0637 54.9858 64.7537" stroke="#1E1E1E" stroke-linecap="round"/>
<path d="M50.7922 54.971C52.4222 55.411 53.6722 55.221 56.6322 54.971C55.8122 54.841 58.7022 53.801 58.1322 56.471C57.8022 57.441 57.9922 58.121 58.1322 59.471C57.5022 62.321 58.3222 61.471 56.6322 60.971C55.4322 61.131 54.5922 60.541 50.7922 60.971C51.2522 59.471 50.6322 60.551 49.2922 59.471C49.5822 58.931 49.5822 57.641 49.2922 56.471C47.5022 53.601 47.8422 53.861 50.7922 54.971Z" fill="white"/>
<path d="M50.7922 54.971C52.6122 54.991 54.1622 55.061 56.6322 54.971M50.7922 54.971C52.7722 55.071 54.7722 55.051 56.6322 54.971M50.7922 54.971C49.1622 55.261 48.6922 55.281 49.2922 56.471M50.7922 54.971C50.2922 55.631 48.7822 55.361 49.2922 56.471M56.6322 54.971C57.3522 54.931 57.5822 55.941 58.1322 56.471M56.6322 54.971C57.8322 54.581 58.2122 54.891 58.1322 56.471M58.1322 56.471C58.0922 57.141 58.1122 57.851 58.1322 59.471M58.1322 56.471C58.1522 57.191 58.1322 57.941 58.1322 59.471M58.1322 59.471C57.8622 60.701 57.7522 60.651 56.6322 60.971M58.1322 59.471C57.4722 60.371 57.0822 60.761 56.6322 60.971M56.6322 60.971C54.5822 61.151 52.6322 60.881 50.7922 60.971M56.6322 60.971C54.6022 61.011 52.7122 61.041 50.7922 60.971M50.7922 60.971C50.4022 61.351 49.4522 59.871 49.2922 59.471M50.7922 60.971C49.0322 60.991 49.4622 60.481 49.2922 59.471M49.2922 59.471C49.3222 58.331 49.2822 57.301 49.2922 56.471M49.2922 59.471C49.3222 58.511 49.2522 57.461 49.2922 56.471" stroke="#1E1E1E" stroke-linecap="round"/>
</svg>
