<svg width="85" height="126" viewBox="0 0 85 126" fill="none" xmlns="http://www.w3.org/2000/svg">
<path d="M22.3912 1.77338C39.0612 3.19338 52.8212 4.84338 62.7912 1.77338C74.6812 3.74338 82.5212 5.35338 82.9912 21.9734C83.0112 54.7034 81.0712 81.8334 82.9912 103.523C81.4412 119.533 76.3312 126.993 62.7912 123.723C57.7612 126.663 43.0512 124.143 22.3912 123.723C11.4512 120.343 5.0612 116.273 2.1912 103.523C0.621195 74.8134 -1.4988 52.5334 2.1912 21.9734C2.7712 10.9334 7.96119 5.26338 22.3912 1.77338Z" fill="white"/>
<path d="M22.3912 1.77339C30.8012 1.81339 40.1412 0.623395 62.7912 1.77339M22.3912 1.77339C34.1212 1.04339 47.0312 2.42339 62.7912 1.77339M22.3912 1.77339C10.3312 0.593395 1.2512 9.8934 2.1912 21.9734M22.3912 1.77339C9.6912 3.91339 -0.0188049 6.8834 2.1912 21.9734M62.7912 1.77339C74.3112 3.47339 81.3912 8.7834 82.9912 21.9734M62.7912 1.77339C75.6312 2.19339 84.4612 7.0734 82.9912 21.9734M82.9912 21.9734C84.0412 51.7034 84.3912 81.2934 82.9912 103.523M82.9912 21.9734C83.7712 47.8634 83.1112 74.0534 82.9912 103.523M82.9912 103.523C84.7212 118.113 74.9812 123.313 62.7912 123.723M82.9912 103.523C80.7912 114.763 77.6412 124.853 62.7912 123.723M62.7912 123.723C49.9112 122.813 38.8112 122.933 22.3912 123.723M62.7912 123.723C47.4512 123.733 33.4312 123.283 22.3912 123.723M22.3912 123.723C7.0912 123.903 2.9912 118.543 2.1912 103.523M22.3912 123.723C11.2012 124.383 1.7512 118.263 2.1912 103.523M2.1912 103.523C2.9212 70.7334 2.4412 38.1334 2.1912 21.9734M2.1912 103.523C2.2812 77.9334 1.4212 53.7534 2.1912 21.9734" stroke="#1E1E1E" stroke-width="2" stroke-linecap="round"/>
<path d="M30.4301 30.1701C42.1101 33.1401 45.4801 31.9401 56.8601 30.1701C63.3701 27.0201 70.0201 31.2701 67.3201 40.6301C66.4801 45.6601 65.8801 55.8101 67.3201 61.5501C67.3901 71.8001 60.4801 68.7001 56.8601 72.0101C43.8401 72.1801 39.3901 68.9501 30.4301 72.0101C26.3301 71.3001 20.6601 71.4801 19.9701 61.5501C17.5201 57.8401 20.5801 54.4601 19.9701 40.6301C19.0001 37.1401 22.8401 27.1701 30.4301 30.1701Z" fill="white"/>
<path d="M30.4301 30.1701C37.8201 29.2101 49.1901 30.8001 56.8601 30.1701M30.4301 30.1701C38.5101 30.9801 44.7201 31.2301 56.8601 30.1701M30.4301 30.1701C21.5301 28.7601 21.3801 32.4701 19.9701 40.6301M30.4301 30.1701C24.2601 29.8901 20.7401 35.7901 19.9701 40.6301M56.8601 30.1701C62.2301 30.4501 66.7801 34.0201 67.3201 40.6301M56.8601 30.1701C65.3101 28.7401 68.6601 35.8501 67.3201 40.6301M67.3201 40.6301C67.9701 46.0301 67.6701 50.1601 67.3201 61.5501M67.3201 40.6301C67.3501 47.0901 68.3001 53.0601 67.3201 61.5501M67.3201 61.5501C66.0501 68.1101 61.9201 70.0801 56.8601 72.0101M67.3201 61.5501C68.7101 69.6501 64.1201 74.1701 56.8601 72.0101M56.8601 72.0101C49.0401 70.9001 39.9201 71.3101 30.4301 72.0101M56.8601 72.0101C47.8101 71.3701 37.9901 72.0601 30.4301 72.0101M30.4301 72.0101C24.2501 73.5701 21.9501 69.0901 19.9701 61.5501M30.4301 72.0101C23.0101 73.2901 22.2101 70.3801 19.9701 61.5501M19.9701 61.5501C20.7401 54.4201 19.9801 48.6501 19.9701 40.6301M19.9701 61.5501C19.2601 56.8401 19.4601 52.0201 19.9701 40.6301" stroke="#1E1E1E" stroke-width="2" stroke-linecap="round"/>
<path d="M32.3188 34.6317C39.4388 35.7817 48.4888 32.0817 56.4188 34.6317C60.0688 32.9117 59.0188 36.2017 58.9688 37.1717C58.6688 39.4717 58.9588 41.4417 58.9688 42.2617C56.5488 41.5717 60.1588 47.2117 56.4188 44.8117C49.4288 42.3617 40.8588 44.2817 32.3188 44.8117C31.1188 46.9417 27.8988 43.7017 29.7788 42.2617C29.9288 41.5617 29.6488 40.6117 29.7788 37.1717C29.3288 33.3117 30.9288 36.8417 32.3188 34.6317Z" fill="white"/>
<path d="M32.3188 34.6317C39.8688 35.0217 47.3088 34.3217 56.4188 34.6317M32.3188 34.6317C37.1988 34.9817 42.6488 34.6317 56.4188 34.6317M32.3188 34.6317C30.9588 35.5617 28.8188 34.7717 29.7788 37.1717M32.3188 34.6317C30.7888 35.6317 30.1788 35.3417 29.7788 37.1717M56.4188 34.6317C57.8488 34.8117 59.6088 34.8617 58.9688 37.1717M56.4188 34.6317C58.7888 35.7317 57.9988 35.6417 58.9688 37.1717M58.9688 37.1717C59.0188 38.9017 58.9388 40.6417 58.9688 42.2617M58.9688 37.1717C59.0788 38.8317 58.8888 40.3117 58.9688 42.2617M58.9688 42.2617C58.0088 42.9917 58.7188 45.3017 56.4188 44.8117M58.9688 42.2617C59.1088 45.0417 58.6288 44.6617 56.4188 44.8117M56.4188 44.8117C51.1188 44.4717 44.9688 44.0517 32.3188 44.8117M56.4188 44.8117C49.0788 44.7817 42.8588 45.1217 32.3188 44.8117M32.3188 44.8117C31.6188 45.0917 29.5888 44.5217 29.7788 42.2617M32.3188 44.8117C31.7488 45.7417 29.9388 44.7617 29.7788 42.2617M29.7788 42.2617C29.7888 40.8617 29.6288 39.4517 29.7788 37.1717M29.7788 42.2617C29.7388 41.0817 29.8888 39.6417 29.7788 37.1717" stroke="#1E1E1E" stroke-width="2" stroke-linecap="round"/>
<path d="M35.9745 42.5998C35.5352 42.5998 35.161 42.4803 34.8519 42.2412C34.5428 42.0001 34.3066 41.6512 34.1433 41.1943C33.98 40.7356 33.8983 40.1815 33.8983 39.5323C33.8983 38.8869 33.98 38.3357 34.1433 37.8789C34.3085 37.4201 34.5457 37.0702 34.8548 36.8292C35.1658 36.5862 35.5391 36.4647 35.9745 36.4647C36.4099 36.4647 36.7822 36.5862 37.0913 36.8292C37.4023 37.0702 37.6395 37.4201 37.8028 37.8789C37.968 38.3357 38.0507 38.8869 38.0507 39.5323C38.0507 40.1815 37.969 40.7356 37.8057 41.1943C37.6424 41.6512 37.4062 42.0001 37.0971 42.2412C36.7881 42.4803 36.4138 42.5998 35.9745 42.5998ZM35.9745 41.9583C36.4099 41.9583 36.7482 41.7484 36.9893 41.3285C37.2303 40.9086 37.3508 40.3098 37.3508 39.5323C37.3508 39.0152 37.2954 38.5748 37.1846 38.2113C37.0758 37.8478 36.9183 37.5708 36.7122 37.3803C36.5081 37.1898 36.2622 37.0945 35.9745 37.0945C35.5429 37.0945 35.2057 37.3074 34.9627 37.7331C34.7197 38.1569 34.5982 38.7566 34.5982 39.5323C34.5982 40.0493 34.6526 40.4887 34.7615 40.8503C34.8703 41.2118 35.0268 41.4869 35.2309 41.6755C35.437 41.864 35.6848 41.9583 35.9745 41.9583Z" fill="#1E1E1E"/>
<path d="M52.5446 42.6564C52.1052 42.6564 51.731 42.5368 51.4219 42.2977C51.1128 42.0566 50.8766 41.7077 50.7134 41.2509C50.5501 40.7921 50.4684 40.2381 50.4684 39.5888C50.4684 38.9434 50.5501 38.3923 50.7134 37.9354C50.8786 37.4766 51.1158 37.1267 51.4248 36.8857C51.7359 36.6427 52.1091 36.5212 52.5446 36.5212C52.98 36.5212 53.3523 36.6427 53.6614 36.8857C53.9724 37.1267 54.2096 37.4766 54.3729 37.9354C54.5381 38.3923 54.6207 38.9434 54.6207 39.5888C54.6207 40.2381 54.5391 40.7921 54.3758 41.2509C54.2125 41.7077 53.9763 42.0566 53.6672 42.2977C53.3581 42.5368 52.9839 42.6564 52.5446 42.6564ZM52.5446 42.0148C52.98 42.0148 53.3183 41.8049 53.5593 41.385C53.8004 40.9651 53.9209 40.3664 53.9209 39.5888C53.9209 39.0717 53.8655 38.6314 53.7547 38.2678C53.6458 37.9043 53.4884 37.6273 53.2823 37.4368C53.0782 37.2463 52.8323 37.151 52.5446 37.151C52.113 37.151 51.7757 37.3639 51.5327 37.7896C51.2897 38.2134 51.1682 38.8131 51.1682 39.5888C51.1682 40.1059 51.2227 40.5452 51.3315 40.9068C51.4404 41.2684 51.5969 41.5434 51.801 41.732C52.0071 41.9206 52.2549 42.0148 52.5446 42.0148Z" fill="#1E1E1E"/>
<path d="M33.7423 48.7757C37.7823 49.9257 43.7023 48.1157 52.4423 48.7757C54.2823 47.2257 59.6723 50.4057 57.1323 53.4657C58.3023 58.6857 58.0923 59.3757 57.1323 62.8357C56.9923 68.4857 52.1923 70.3957 52.4423 67.5257C44.7623 67.4657 39.4423 65.4757 33.7423 67.5257C31.6623 68.1057 31.4823 64.9957 29.0523 62.8357C29.2723 60.5557 29.8723 55.9957 29.0523 53.4657C30.2023 53.5957 34.1623 48.0357 33.7423 48.7757Z" fill="white"/>
<path d="M33.7423 48.7757C39.8023 46.8657 45.1923 47.1957 52.4423 48.7757M33.7423 48.7757C40.2123 48.1557 46.0323 49.6357 52.4423 48.7757M33.7423 48.7757C31.4623 50.6457 29.3423 52.0857 29.0523 53.4657M33.7423 48.7757C31.8723 48.4757 31.0823 49.3357 29.0523 53.4657M52.4423 48.7757C53.8823 49.0557 57.6523 50.9657 57.1323 53.4657M52.4423 48.7757C56.6023 49.1457 57.7323 49.9657 57.1323 53.4657M57.1323 53.4657C57.6323 57.6157 57.6723 59.5457 57.1323 62.8357M57.1323 53.4657C57.3223 56.3157 57.1023 59.1457 57.1323 62.8357M57.1323 62.8357C58.0123 65.7057 54.4923 68.8057 52.4423 67.5257M57.1323 62.8357C56.0223 67.3957 54.9323 68.4357 52.4423 67.5257M52.4423 67.5257C47.0323 65.7957 44.0123 68.2557 33.7423 67.5257M52.4423 67.5257C45.1923 68.0957 39.2223 68.3357 33.7423 67.5257M33.7423 67.5257C30.8923 68.9157 28.6823 66.8757 29.0523 62.8357M33.7423 67.5257C29.9723 67.6957 29.3323 64.6857 29.0523 62.8357M29.0523 62.8357C29.4823 59.4057 29.7523 57.5157 29.0523 53.4657M29.0523 62.8357C29.3023 61.0157 29.3023 58.2657 29.0523 53.4657" stroke="#1E1E1E" stroke-linecap="round"/>
<path d="M38.2167 49.7179C38.0867 52.5079 38.1467 63.5679 38.1867 66.3379M38.9467 49.4779C38.9567 52.3479 39.3467 64.1579 39.1967 67.0779" stroke="#1E1E1E" stroke-width="0.5" stroke-linecap="round"/>
<path d="M46.3398 48.1033C46.5098 51.2433 47.0298 64.2433 47.2598 67.3833M47.1098 47.6633C47.2498 50.8733 46.6698 63.1833 46.7598 66.4633" stroke="#1E1E1E" stroke-width="0.5" stroke-linecap="round"/>
<path d="M29.9925 55.3862C34.5825 55.3362 52.7225 54.9762 57.2625 55.0662M30.9125 54.9662C35.5025 54.9762 52.6625 55.5662 57.0125 55.5962" stroke="#1E1E1E" stroke-width="0.5" stroke-linecap="round"/>
<path d="M29.7325 60.9002C34.4025 60.9702 52.7825 61.7302 57.2325 61.8102M29.2525 61.9102C33.8825 61.8402 52.2525 61.1002 56.9725 61.1102" stroke="#1E1E1E" stroke-width="0.5" stroke-linecap="round"/>
<path d="M34.4576 50.4406V53.7484H34.057V50.8606H34.0377L33.2301 51.3968V50.9898L34.057 50.4406H34.4576Z" fill="#1E1E1E"/>
<path d="M34.8999 66.4064C34.6566 66.4064 34.4493 66.3401 34.2781 66.2077C34.1069 66.0742 33.9761 65.8809 33.8856 65.6279C33.7952 65.3738 33.7499 65.0669 33.7499 64.7073C33.7499 64.3498 33.7952 64.0445 33.8856 63.7915C33.9771 63.5374 34.1085 63.3436 34.2797 63.21C34.452 63.0755 34.6587 63.0082 34.8999 63.0082C35.1411 63.0082 35.3473 63.0755 35.5185 63.21C35.6908 63.3436 35.8221 63.5374 35.9126 63.7915C36.0041 64.0445 36.0499 64.3498 36.0499 64.7073C36.0499 65.0669 36.0047 65.3738 35.9142 65.6279C35.8238 65.8809 35.6929 66.0742 35.5217 66.2077C35.3505 66.3401 35.1433 66.4064 34.8999 66.4064ZM34.8999 66.051C35.1411 66.051 35.3285 65.9348 35.462 65.7022C35.5955 65.4696 35.6622 65.138 35.6622 64.7073C35.6622 64.4208 35.6316 64.177 35.5702 63.9756C35.5099 63.7743 35.4227 63.6208 35.3085 63.5153C35.1955 63.4098 35.0593 63.357 34.8999 63.357C34.6609 63.357 34.4741 63.4749 34.3395 63.7107C34.2049 63.9455 34.1376 64.2776 34.1376 64.7073C34.1376 64.9937 34.1677 65.237 34.228 65.4373C34.2883 65.6376 34.375 65.7899 34.4881 65.8944C34.6022 65.9988 34.7395 66.051 34.8999 66.051Z" fill="#1E1E1E"/>
<path d="M52.9302 62.0907V65.3984H52.5296V62.5106H52.5102L51.7027 63.0468V62.6398L52.5296 62.0907H52.9302Z" fill="#1E1E1E"/>
<path d="M52.5818 57.0213V60.329H52.1812V57.4412H52.1619L51.3543 57.9774V57.5704L52.1812 57.0213H52.5818Z" fill="#1E1E1E"/>
<path d="M34.6433 56.6137V59.9214H34.2428V57.0336H34.2234L33.4158 57.5698V57.1628L34.2428 56.6137H34.6433Z" fill="#1E1E1E"/>
<path d="M43.1763 60.3757C42.933 60.3757 42.7257 60.3094 42.5545 60.177C42.3833 60.0435 42.2524 59.8502 42.162 59.5972C42.0716 59.3431 42.0263 59.0362 42.0263 58.6766C42.0263 58.3191 42.0716 58.0138 42.162 57.7608C42.2535 57.5067 42.3849 57.3129 42.5561 57.1793C42.7284 57.0448 42.9351 56.9775 43.1763 56.9775C43.4175 56.9775 43.6237 57.0448 43.7949 57.1793C43.9672 57.3129 44.0985 57.5067 44.189 57.7608C44.2805 58.0138 44.3263 58.3191 44.3263 58.6766C44.3263 59.0362 44.281 59.3431 44.1906 59.5972C44.1001 59.8502 43.9693 60.0435 43.7981 60.177C43.6269 60.3094 43.4196 60.3757 43.1763 60.3757ZM43.1763 60.0203C43.4175 60.0203 43.6048 59.9041 43.7384 59.6715C43.8719 59.4389 43.9386 59.1073 43.9386 58.6766C43.9386 58.3901 43.9079 58.1463 43.8466 57.9449C43.7863 57.7436 43.6991 57.5901 43.5849 57.4846C43.4719 57.3791 43.3357 57.3263 43.1763 57.3263C42.9373 57.3263 42.7504 57.4442 42.6158 57.68C42.4813 57.9148 42.414 58.2469 42.414 58.6766C42.414 58.963 42.4441 59.2063 42.5044 59.4066C42.5647 59.6069 42.6514 59.7592 42.7644 59.8637C42.8786 59.9681 43.0159 60.0203 43.1763 60.0203Z" fill="#1E1E1E"/>
<path d="M43.303 54.1185C43.0596 54.1185 42.8524 54.0522 42.6812 53.9198C42.5099 53.7863 42.3791 53.593 42.2887 53.34C42.1982 53.0859 42.153 52.779 42.153 52.4194C42.153 52.0619 42.1982 51.7566 42.2887 51.5036C42.3802 51.2495 42.5116 51.0557 42.6828 50.9221C42.855 50.7876 43.0618 50.7203 43.303 50.7203C43.5442 50.7203 43.7504 50.7876 43.9216 50.9221C44.0938 51.0557 44.2252 51.2495 44.3157 51.5036C44.4072 51.7566 44.4529 52.0619 44.4529 52.4194C44.4529 52.779 44.4077 53.0859 44.3173 53.34C44.2268 53.593 44.096 53.7863 43.9248 53.9198C43.7536 54.0522 43.5463 54.1185 43.303 54.1185ZM43.303 53.7631C43.5442 53.7631 43.7315 53.6469 43.865 53.4143C43.9986 53.1817 44.0653 52.8501 44.0653 52.4194C44.0653 52.1329 44.0346 51.8891 43.9732 51.6877C43.913 51.4864 43.8257 51.3329 43.7116 51.2274C43.5985 51.1219 43.4623 51.0691 43.303 51.0691C43.0639 51.0691 42.8771 51.187 42.7425 51.4228C42.6079 51.6576 42.5406 51.9897 42.5406 52.4194C42.5406 52.7058 42.5708 52.9491 42.6311 53.1494C42.6914 53.3497 42.7781 53.502 42.8911 53.6065C43.0053 53.7109 43.1425 53.7631 43.303 53.7631Z" fill="#1E1E1E"/>
<path d="M43.1341 65.8997C42.8907 65.8997 42.6835 65.8334 42.5123 65.701C42.3411 65.5675 42.2102 65.3742 42.1198 65.1212C42.0293 64.8671 41.9841 64.5602 41.9841 64.2005C41.9841 63.8431 42.0293 63.5378 42.1198 63.2848C42.2113 63.0307 42.3427 62.8368 42.5139 62.7033C42.6861 62.5687 42.8929 62.5014 43.1341 62.5014C43.3753 62.5014 43.5815 62.5687 43.7527 62.7033C43.9249 62.8368 44.0563 63.0307 44.1468 63.2848C44.2383 63.5378 44.284 63.8431 44.284 64.2005C44.284 64.5602 44.2388 64.8671 44.1484 65.1212C44.0579 65.3742 43.9271 65.5675 43.7559 65.701C43.5847 65.8334 43.3774 65.8997 43.1341 65.8997ZM43.1341 65.5443C43.3753 65.5443 43.5626 65.428 43.6961 65.1955C43.8297 64.9629 43.8964 64.6312 43.8964 64.2005C43.8964 63.9141 43.8657 63.6703 43.8043 63.4689C43.7441 63.2675 43.6568 63.1141 43.5427 63.0086C43.4296 62.9031 43.2934 62.8503 43.1341 62.8503C42.895 62.8503 42.7082 62.9682 42.5736 63.204C42.439 63.4388 42.3717 63.7709 42.3717 64.2005C42.3717 64.487 42.4019 64.7303 42.4622 64.9306C42.5225 65.1309 42.6092 65.2832 42.7222 65.3877C42.8364 65.4921 42.9736 65.5443 43.1341 65.5443Z" fill="#1E1E1E"/>
<path d="M27.4043 71.7748C27.4943 73.1648 26.8343 78.8748 28.7943 80.5348C30.7543 82.1848 37.1743 82.9448 39.1743 81.7048C41.1743 80.4648 40.5043 74.6448 40.8043 73.1148M28.2243 71.2348C28.4343 72.6548 27.9643 79.3648 29.7543 80.9548C31.5543 82.5448 37.1243 82.2348 38.9943 80.7748C40.8643 79.3248 40.7143 73.5748 40.9543 72.2148" stroke="#1E1E1E" stroke-width="2" stroke-linecap="round"/>
<path d="M18.0128 39.955C16.8528 40.635 12.4128 39.845 11.2328 44.465C10.0528 49.075 9.45278 63.825 10.9328 67.645C12.4228 71.465 18.7628 71.685 20.1428 67.395C21.5128 63.095 19.3428 46.125 19.1828 41.875M18.7528 40.865C17.5728 41.395 12.3228 39.305 10.9728 43.635C9.62278 47.965 9.05278 62.805 10.6228 66.845C12.1928 70.885 18.8128 71.965 20.3828 67.865C21.9428 63.755 20.1328 46.615 20.0228 42.225" stroke="#1E1E1E" stroke-width="2" stroke-linecap="round"/>
<path d="M60.5386 72.3589C60.3786 74.0689 60.5786 80.2489 58.7086 81.7889C56.8486 83.3189 51.3286 83.0089 49.3686 81.5689C47.3986 80.1289 47.3286 74.5589 46.9286 73.1589M60.0486 72.0189C59.8686 73.6289 60.1386 79.3989 58.3186 81.0889C56.4986 82.7689 51.0486 83.6189 49.1386 82.1289C47.2386 80.6489 47.1086 73.6089 46.8886 72.1689" stroke="#1E1E1E" stroke-width="2" stroke-linecap="round"/>
<path d="M68.7009 40.0254C69.9609 40.5854 75.2909 38.7354 76.5109 43.1454C77.7309 47.5554 77.5909 62.5454 76.0109 66.4954C74.4309 70.4454 68.4209 71.1154 67.0109 66.8254C65.6009 62.5354 67.4909 45.1554 67.5409 40.7554M68.0709 39.8154C69.2509 40.4354 74.9709 39.5054 76.2109 43.8054C77.4509 48.1054 77.0509 61.9354 75.5109 65.6154C73.9709 69.2854 68.1609 69.9354 66.9809 65.8454C65.8109 61.7454 68.3309 45.3654 68.4609 41.0454" stroke="#1E1E1E" stroke-width="2" stroke-linecap="round"/>
<path d="M52.2686 54.3C52.0253 54.3 51.818 54.2338 51.6468 54.1013C51.4756 53.9678 51.3448 53.7745 51.2543 53.5215C51.1639 53.2674 51.1186 52.9605 51.1186 52.6009C51.1186 52.2434 51.1639 51.9381 51.2543 51.6851C51.3458 51.431 51.4772 51.2372 51.6484 51.1037C51.8207 50.9691 52.0274 50.9018 52.2686 50.9018C52.5098 50.9018 52.716 50.9691 52.8872 51.1037C53.0595 51.2372 53.1908 51.431 53.2813 51.6851C53.3728 51.9381 53.4186 52.2434 53.4186 52.6009C53.4186 52.9605 53.3734 53.2674 53.2829 53.5215C53.1925 53.7745 53.0616 53.9678 52.8904 54.1013C52.7192 54.2338 52.512 54.3 52.2686 54.3ZM52.2686 53.9447C52.5098 53.9447 52.6972 53.8284 52.8307 53.5958C52.9642 53.3632 53.0309 53.0316 53.0309 52.6009C53.0309 52.3145 53.0003 52.0706 52.9389 51.8692C52.8786 51.6679 52.7914 51.5144 52.6772 51.4089C52.5642 51.3034 52.428 51.2506 52.2686 51.2506C52.0296 51.2506 51.8428 51.3685 51.7082 51.6043C51.5736 51.8391 51.5063 52.1713 51.5063 52.6009C51.5063 52.8873 51.5364 53.1306 51.5967 53.3309C51.657 53.5312 51.7437 53.6835 51.8568 53.788C51.9709 53.8924 52.1082 53.9447 52.2686 53.9447Z" fill="#1E1E1E"/>
<path d="M52.3333 55.5806C53.0733 55.3906 54.0933 56.1206 54.7233 56.7606C55.3533 57.4006 55.8633 58.2206 56.1333 59.4006C56.4033 60.5906 56.5533 62.6306 56.3333 63.8906C56.1133 65.1506 55.5533 66.4906 54.8133 66.9806C54.0633 67.4806 52.7133 67.1306 51.8633 66.8506C51.0133 66.5806 50.1833 66.2806 49.7133 65.3506C49.2433 64.4106 48.9833 62.5606 49.0433 61.2606C49.1033 59.9706 49.4733 58.4906 50.0533 57.5706C50.6333 56.6606 52.1233 56.0206 52.5333 55.7706C52.9433 55.5206 52.5933 55.9306 52.5133 56.0706M51.7733 56.4506C52.7433 56.1106 54.6533 55.8706 55.3033 56.3406C55.9633 56.8206 55.5033 57.9706 55.7033 59.3106C55.9133 60.6506 56.7133 63.1906 56.5433 64.3606C56.3733 65.5406 55.4833 65.8506 54.7033 66.3906C53.9133 66.9306 52.6633 67.7406 51.8433 67.6106C51.0133 67.4706 50.1833 66.7006 49.7633 65.5806C49.3333 64.4606 49.2433 62.2206 49.3033 60.8906C49.3533 59.5506 49.7433 58.3206 50.1033 57.5906C50.4633 56.8506 51.2133 56.7506 51.4633 56.5006C51.7233 56.2406 51.4833 55.9906 51.6333 56.0606" stroke="#1E1E1E" stroke-width="0.5" stroke-linecap="round"/>
<path d="M33.531 49.7942C34.251 49.6242 35.211 49.6842 35.921 50.4242C36.631 51.1742 37.471 52.9442 37.791 54.2642C38.111 55.5842 38.201 57.3442 37.851 58.3742C37.491 59.4042 36.441 59.9542 35.641 60.4442C34.841 60.9242 33.831 61.5942 33.051 61.2942C32.281 60.9842 31.441 59.7142 30.971 58.6142C30.511 57.5242 30.201 55.9642 30.261 54.7342C30.321 53.5042 30.751 52.0542 31.341 51.2442C31.931 50.4342 33.421 50.0842 33.811 49.8742C34.201 49.6742 33.711 49.9942 33.661 50.0242M34.811 49.4042C35.561 49.2742 35.461 49.9342 36.011 50.9842C36.561 52.0342 37.871 54.4342 38.101 55.7042C38.331 56.9742 37.891 57.6442 37.371 58.6042C36.851 59.5742 35.781 61.0742 34.961 61.5042C34.141 61.9242 33.131 61.8442 32.461 61.1642C31.781 60.4742 31.241 58.6142 30.901 57.3842C30.571 56.1542 30.441 54.7942 30.451 53.7942C30.461 52.7842 30.421 51.9942 30.981 51.3442C31.541 50.6842 33.201 50.0142 33.781 49.8642C34.371 49.7042 34.441 50.3542 34.481 50.4042" stroke="#1E1E1E" stroke-width="0.5" stroke-linecap="round"/>
<path d="M21.9254 2.37804C31.5654 1.72804 40.2654 2.35804 58.6354 2.37804M21.9254 2.37804C30.9554 2.74804 40.0654 2.50804 58.6354 2.37804M21.9254 2.37804C19.3854 1.54804 18.1054 4.52804 18.3754 5.92804M21.9254 2.37804C20.0954 2.78804 18.5054 4.53804 18.3754 5.92804M58.6354 2.37804C60.8054 2.93804 63.1554 4.36804 62.1854 5.92804M58.6354 2.37804C61.1654 3.17804 61.9754 4.08804 62.1854 5.92804M62.1854 5.92804C61.9854 7.92804 62.0054 9.55804 62.1854 13.038M62.1854 5.92804C62.2954 8.24804 61.9954 10.648 62.1854 13.038M62.1854 13.038C62.5154 16.328 61.3454 16.468 58.6354 16.588M62.1854 13.038C62.3454 16.408 61.4854 17.658 58.6354 16.588M58.6354 16.588C44.2554 15.808 30.8854 16.028 21.9254 16.588M58.6354 16.588C47.4154 16.518 36.2354 17.048 21.9254 16.588M21.9254 16.588C19.5754 17.498 17.4454 14.488 18.3754 13.038M21.9254 16.588C20.4654 17.648 19.1354 14.438 18.3754 13.038M18.3754 13.038C18.6354 10.858 18.4154 9.11804 18.3754 5.92804M18.3754 13.038C18.2554 11.468 18.4054 9.91804 18.3754 5.92804" stroke="#1E1E1E" stroke-width="2" stroke-linecap="round"/>
<path d="M23.4333 11.1162V4.76154H24.2028V7.91405H24.2772L27.1319 4.76154H28.1372L25.4687 7.62859L28.1372 11.1162H27.2064L24.9971 8.16228L24.2028 9.05591V11.1162H23.4333ZM30.4364 11.2279C30.1344 11.2279 29.8603 11.171 29.6142 11.0573C29.368 10.9414 29.1725 10.7749 29.0277 10.5577C28.8829 10.3384 28.8105 10.0736 28.8105 9.76336C28.8105 9.49031 28.8643 9.26897 28.9719 9.09935C29.0795 8.92766 29.2232 8.7932 29.4032 8.69597C29.5831 8.59875 29.7817 8.52635 29.9989 8.47877C30.2182 8.42913 30.4385 8.38983 30.6598 8.36087C30.9494 8.32363 31.1842 8.29571 31.3642 8.27709C31.5462 8.2564 31.6786 8.22227 31.7614 8.17469C31.8462 8.12712 31.8886 8.04437 31.8886 7.92646V7.90164C31.8886 7.59549 31.8048 7.35761 31.6372 7.18798C31.4718 7.01836 31.2204 6.93355 30.8833 6.93355C30.5337 6.93355 30.2596 7.01008 30.061 7.16316C29.8624 7.31623 29.7228 7.47965 29.6421 7.65341L28.9471 7.40518C29.0712 7.11558 29.2367 6.89011 29.4435 6.72876C29.6524 6.56534 29.88 6.45157 30.1262 6.38744C30.3744 6.32125 30.6185 6.28815 30.8584 6.28815C31.0115 6.28815 31.1873 6.30677 31.3859 6.344C31.5866 6.37917 31.78 6.4526 31.9662 6.56431C32.1544 6.67601 32.3106 6.8446 32.4347 7.07007C32.5588 7.29555 32.6209 7.59756 32.6209 7.97611V11.1162H31.8886V10.4708H31.8513C31.8017 10.5742 31.719 10.6849 31.6031 10.8028C31.4873 10.9207 31.3332 11.0211 31.1408 11.1038C30.9484 11.1865 30.7136 11.2279 30.4364 11.2279ZM30.5481 10.5701C30.8377 10.5701 31.0818 10.5132 31.2804 10.3994C31.4811 10.2857 31.6321 10.1388 31.7334 9.95884C31.8369 9.77888 31.8886 9.5896 31.8886 9.39102V8.7208C31.8576 8.75803 31.7893 8.79216 31.6838 8.82319C31.5804 8.85215 31.4604 8.87801 31.3239 8.90076C31.1894 8.92145 31.058 8.94007 30.9298 8.95662C30.8036 8.9711 30.7012 8.98351 30.6226 8.99385C30.4323 9.01867 30.2544 9.05901 30.0889 9.11486C29.9255 9.16865 29.7931 9.25035 29.6917 9.35999C29.5925 9.46755 29.5428 9.61442 29.5428 9.8006C29.5428 10.055 29.6369 10.2474 29.8252 10.3777C30.0155 10.506 30.2565 10.5701 30.5481 10.5701ZM33.9574 11.1162V6.35021H34.6649V7.07007H34.7145C34.8014 6.83426 34.9586 6.64291 35.1862 6.49604C35.4137 6.34917 35.6702 6.27574 35.9557 6.27574C36.0094 6.27574 36.0767 6.27677 36.1573 6.27884C36.238 6.28091 36.299 6.28401 36.3404 6.28815V7.03284C36.3156 7.02663 36.2587 7.01732 36.1698 7.00491C36.0829 6.99043 35.9908 6.98319 35.8936 6.98319C35.6619 6.98319 35.4551 7.0318 35.273 7.12903C35.0931 7.22418 34.9503 7.35657 34.8448 7.52619C34.7414 7.69375 34.6897 7.88509 34.6897 8.10022V11.1162H33.9574ZM37.9407 8.24916V11.1162H37.2084V6.35021H37.9159V7.0949H37.978C38.0897 6.85287 38.2593 6.65843 38.4868 6.51156C38.7144 6.36262 39.0081 6.28815 39.368 6.28815C39.6907 6.28815 39.9731 6.35435 40.2151 6.48673C40.4571 6.61705 40.6454 6.81564 40.7798 7.08248C40.9143 7.34726 40.9815 7.68237 40.9815 8.08781V11.1162H40.2493V8.13746C40.2493 7.76305 40.152 7.47138 39.9576 7.26245C39.7631 7.05146 39.4963 6.94596 39.157 6.94596C38.9233 6.94596 38.7144 6.99664 38.5303 7.098C38.3482 7.19936 38.2045 7.34726 38.099 7.54171C37.9935 7.73615 37.9407 7.97197 37.9407 8.24916ZM43.7221 11.2279C43.4201 11.2279 43.146 11.171 42.8999 11.0573C42.6537 10.9414 42.4582 10.7749 42.3134 10.5577C42.1686 10.3384 42.0962 10.0736 42.0962 9.76336C42.0962 9.49031 42.15 9.26897 42.2576 9.09935C42.3651 8.92766 42.5089 8.7932 42.6889 8.69597C42.8688 8.59875 43.0674 8.52635 43.2846 8.47877C43.5039 8.42913 43.7242 8.38983 43.9455 8.36087C44.2351 8.32363 44.4699 8.29571 44.6499 8.27709C44.8319 8.2564 44.9643 8.22227 45.0471 8.17469C45.1319 8.12712 45.1743 8.04437 45.1743 7.92646V7.90164C45.1743 7.59549 45.0905 7.35761 44.9229 7.18798C44.7575 7.01836 44.5061 6.93355 44.1689 6.93355C43.8194 6.93355 43.5453 7.01008 43.3467 7.16316C43.1481 7.31623 43.0085 7.47965 42.9278 7.65341L42.2328 7.40518C42.3569 7.11558 42.5224 6.89011 42.7292 6.72876C42.9381 6.56534 43.1657 6.45157 43.4118 6.38744C43.6601 6.32125 43.9042 6.28815 44.1441 6.28815C44.2972 6.28815 44.473 6.30677 44.6716 6.344C44.8723 6.37917 45.0657 6.4526 45.2518 6.56431C45.4401 6.67601 45.5963 6.8446 45.7204 7.07007C45.8445 7.29555 45.9066 7.59756 45.9066 7.97611V11.1162H45.1743V10.4708H45.137C45.0874 10.5742 45.0047 10.6849 44.8888 10.8028C44.773 10.9207 44.6189 11.0211 44.4265 11.1038C44.2341 11.1865 43.9993 11.2279 43.7221 11.2279ZM43.8338 10.5701C44.1234 10.5701 44.3675 10.5132 44.5661 10.3994C44.7668 10.2857 44.9178 10.1388 45.0191 9.95884C45.1226 9.77888 45.1743 9.5896 45.1743 9.39102V8.7208C45.1432 8.75803 45.075 8.79216 44.9695 8.82319C44.8661 8.85215 44.7461 8.87801 44.6096 8.90076C44.4751 8.92145 44.3437 8.94007 44.2155 8.95662C44.0893 8.9711 43.9869 8.98351 43.9083 8.99385C43.718 9.01867 43.5401 9.05901 43.3746 9.11486C43.2112 9.16865 43.0788 9.25035 42.9774 9.35999C42.8782 9.46755 42.8285 9.61442 42.8285 9.8006C42.8285 10.055 42.9226 10.2474 43.1109 10.3777C43.3012 10.506 43.5422 10.5701 43.8338 10.5701ZM50.2467 9.16761V6.35021H50.979V11.1162H50.2467V10.3095H50.197C50.0853 10.5515 49.9116 10.7573 49.6758 10.9269C49.4399 11.0945 49.1421 11.1783 48.7821 11.1783C48.4843 11.1783 48.2195 11.1131 47.9878 10.9828C47.7561 10.8504 47.5741 10.6518 47.4417 10.387C47.3093 10.1202 47.2431 9.78405 47.2431 9.37861V6.35021H47.9754V9.32896C47.9754 9.67648 48.0726 9.95367 48.2671 10.1605C48.4636 10.3674 48.7139 10.4708 49.018 10.4708C49.2 10.4708 49.3851 10.4243 49.5734 10.3312C49.7637 10.2381 49.923 10.0954 50.0512 9.90299C50.1815 9.71061 50.2467 9.46549 50.2467 9.16761ZM54.244 13.0028C53.8902 13.0028 53.5861 12.9572 53.3317 12.8662C53.0773 12.7773 52.8652 12.6594 52.6956 12.5125C52.5281 12.3677 52.3946 12.2126 52.2954 12.0471L52.8787 11.6375C52.9449 11.7244 53.0287 11.8237 53.13 11.9354C53.2314 12.0491 53.37 12.1474 53.5458 12.2301C53.7237 12.315 53.9564 12.3574 54.244 12.3574C54.6287 12.3574 54.9462 12.2643 55.1965 12.0781C55.4468 11.8919 55.572 11.6003 55.572 11.2031V10.235H55.5099C55.4561 10.3219 55.3796 10.4294 55.2803 10.5577C55.1831 10.6839 55.0424 10.7966 54.8583 10.8959C54.6763 10.9931 54.4301 11.0417 54.1198 11.0417C53.7351 11.0417 53.3896 10.9507 53.0835 10.7687C52.7794 10.5867 52.5384 10.3219 52.3605 9.97436C52.1847 9.62683 52.0968 9.20485 52.0968 8.70839C52.0968 8.2202 52.1826 7.79511 52.3543 7.43311C52.526 7.06904 52.7649 6.78771 53.0711 6.58913C53.3772 6.38848 53.7309 6.28815 54.1323 6.28815C54.4425 6.28815 54.6887 6.33987 54.8707 6.44329C55.0548 6.54465 55.1955 6.66049 55.2927 6.79081C55.392 6.91907 55.4686 7.02456 55.5223 7.10731H55.5968V6.35021H56.3043V11.2527C56.3043 11.6623 56.2112 11.9954 56.025 12.2519C55.8409 12.5104 55.5927 12.6997 55.2803 12.8197C54.97 12.9417 54.6246 13.0028 54.244 13.0028ZM54.2191 10.3839C54.5129 10.3839 54.7611 10.3167 54.9638 10.1822C55.1665 10.0478 55.3207 9.85438 55.4261 9.60201C55.5316 9.34965 55.5844 9.04763 55.5844 8.69597C55.5844 8.35259 55.5327 8.04954 55.4293 7.78684C55.3258 7.52413 55.1727 7.3183 54.97 7.16936C54.7673 7.02043 54.517 6.94596 54.2191 6.94596C53.9088 6.94596 53.6503 7.02456 53.4434 7.18178C53.2386 7.33899 53.0845 7.54998 52.9811 7.81476C52.8797 8.07954 52.829 8.37328 52.829 8.69597C52.829 9.02695 52.8808 9.31965 52.9842 9.57409C53.0897 9.82645 53.2448 10.025 53.4496 10.1698C53.6565 10.3126 53.913 10.3839 54.2191 10.3839ZM58.377 8.24916V11.1162H57.6447V4.76154H58.377V7.0949H58.439C58.5507 6.84874 58.7183 6.65325 58.9417 6.50845C59.1672 6.36159 59.4671 6.28815 59.8415 6.28815C60.1663 6.28815 60.4507 6.35331 60.6948 6.48363C60.9389 6.61188 61.1282 6.80943 61.2626 7.07628C61.3992 7.34106 61.4674 7.67823 61.4674 8.08781V11.1162H60.7352V8.13746C60.7352 7.75891 60.6369 7.46621 60.4404 7.25935C60.2459 7.05042 59.976 6.94596 59.6305 6.94596C59.3906 6.94596 59.1754 6.99664 58.9851 7.098C58.7969 7.19936 58.648 7.34726 58.5383 7.54171C58.4308 7.73615 58.377 7.97197 58.377 8.24916Z" fill="#1E1E1E"/>
<path d="M10.1956 89.6806C21.1456 89.7306 64.0556 90.2406 75.1456 90.5106M8.68558 91.9206C20.0656 92.2006 66.0256 92.5106 77.2856 92.1106" stroke="#1E1E1E" stroke-width="2" stroke-linecap="round"/>
<path d="M9.90434 106.321C9.86434 105.411 9.45434 101.881 9.44434 101.011M9.65434 106.071C9.55434 105.031 9.10434 101.411 9.13434 100.491" stroke="#1E1E1E" stroke-linecap="round"/>
<path d="M9.41236 101.214C9.66236 100.884 11.0624 99.5136 11.3324 99.1636M8.95236 101.004C9.15236 100.574 10.9224 99.0936 11.2324 98.6836" stroke="#1E1E1E" stroke-linecap="round"/>
<path d="M12.8351 106.575C12.8551 105.685 12.6351 102.045 12.5751 101.125M12.5851 106.415C12.5751 105.405 12.3851 101.625 12.3251 100.625" stroke="#1E1E1E" stroke-linecap="round"/>
<path d="M12.6071 101.328C12.2871 100.948 11.2571 99.4978 10.9871 99.0978M12.2071 101.148C11.8071 100.638 10.9271 98.8578 10.6771 98.5578" stroke="#1E1E1E" stroke-linecap="round"/>
<path d="M7.2721 106.931C8.4321 106.881 13.1021 106.761 14.2921 106.681M6.8121 106.711C7.9121 106.691 12.7321 107.141 13.9721 107.141" stroke="#1E1E1E" stroke-linecap="round"/>
<path d="M11.1006 106.892C11.1306 107.462 11.2706 109.862 11.3006 110.462M11.7006 106.592C11.6906 107.202 11.1406 110.112 11.0506 110.812" stroke="#1E1E1E" stroke-linecap="round"/>
<path d="M52.6518 101.743C53.0418 101.333 54.5218 99.8328 54.8318 99.5228M52.2518 102.413C52.6018 102.043 54.0918 100.413 54.5918 99.8828" stroke="#1E1E1E" stroke-linecap="round"/>
<path d="M54.8373 99.4725C55.1873 99.8625 56.5473 101.373 56.9073 101.773M54.4373 100.153C54.8973 100.453 57.2073 101.033 57.5873 101.223" stroke="#1E1E1E" stroke-linecap="round"/>
<path d="M56.9972 102.038C56.2672 103.178 53.5472 107.518 52.9372 108.518M57.5272 101.808C56.7272 102.858 53.2872 106.938 52.5772 108.028" stroke="#1E1E1E" stroke-linecap="round"/>
<path d="M52.5092 102.193C52.2292 101.753 51.1592 99.9428 50.7692 99.4828M53.0692 102.003C52.7892 101.603 50.9892 100.213 50.6192 99.8328" stroke="#1E1E1E" stroke-linecap="round"/>
<path d="M50.7737 99.4426C50.3437 99.6926 48.2237 100.963 47.8037 101.383M50.4737 100.103C50.1637 100.363 48.8137 101.483 48.4237 101.703" stroke="#1E1E1E" stroke-linecap="round"/>
<path d="M47.7138 101.648C48.3738 102.798 51.5338 107.508 52.3038 108.608M48.1838 102.288C48.7938 103.368 51.4238 107.098 52.0838 108.148" stroke="#1E1E1E" stroke-linecap="round"/>
</svg>
