<svg width="85" height="127" viewBox="0 0 85 127" fill="none" xmlns="http://www.w3.org/2000/svg">
<path d="M21.836 2.60983C37.146 3.06983 50.806 -0.0401686 62.236 2.60983C76.616 2.38983 80.576 11.6298 82.436 22.8098C85.106 54.9398 85.286 77.6098 82.436 104.36C81.976 119.59 73.316 126.72 62.236 124.56C53.326 125.63 45.006 127.26 21.836 124.56C11.066 126.97 1.61603 118.81 1.63603 104.36C4.41603 78.4798 -1.83397 55.9698 1.63603 22.8098C-0.283968 9.17983 8.67603 5.63983 21.836 2.60983Z" fill="white"/>
<path d="M21.836 2.60984C33.896 1.12984 46.936 1.20984 62.236 2.60984M21.836 2.60984C34.916 3.37984 47.496 3.12984 62.236 2.60984M21.836 2.60984C9.31601 3.39984 2.41601 11.1698 1.63601 22.8098M21.836 2.60984C6.13601 2.64984 0.856011 9.03984 1.63601 22.8098M62.236 2.60984C74.546 4.05984 81.396 8.89984 82.436 22.8098M62.236 2.60984C73.546 2.17984 82.966 10.6498 82.436 22.8098M82.436 22.8098C82.616 56.0398 82.756 84.6598 82.436 104.36M82.436 22.8098C81.456 52.4598 81.076 81.9998 82.436 104.36M82.436 104.36C83.996 119.14 74.876 124.95 62.236 124.56M82.436 104.36C81.876 118.02 75.136 124.87 62.236 124.56M62.236 124.56C48.696 124.67 34.376 122.75 21.836 124.56M62.236 124.56C49.646 124.86 35.546 124.44 21.836 124.56M21.836 124.56C7.04601 124.71 3.07601 119.13 1.63601 104.36M21.836 124.56C7.94601 122.86 -0.443989 117.11 1.63601 104.36M1.63601 104.36C2.78601 84.7898 2.20601 65.6298 1.63601 22.8098M1.63601 104.36C1.90601 82.2098 0.886011 59.3698 1.63601 22.8098" stroke="#1E1E1E" stroke-width="2" stroke-linecap="round"/>
<path d="M10.4513 90.8324C21.4413 90.8324 65.4213 90.8324 76.4113 90.8324" stroke="#1E1E1E" stroke-width="2" stroke-linecap="round"/>
<path d="M23.1635 2.49664C34.5335 2.49664 45.9035 2.49664 59.5535 2.49664C62.0335 2.49664 63.2835 3.73664 63.2835 6.22664C63.2835 9.08664 63.2835 11.9566 63.2835 13.6766C63.2835 16.1566 62.0335 17.3966 59.5535 17.3966C47.3035 17.3966 35.0535 17.3966 23.1635 17.3966C20.6735 17.3966 19.4335 16.1566 19.4335 13.6766C19.4335 11.8266 19.4335 9.97664 19.4335 6.22664C19.4335 3.73664 20.6735 2.49664 23.1635 2.49664Z" fill="white"/>
<path d="M23.1635 2.49664C31.6835 2.49664 40.2135 2.49664 59.5535 2.49664M23.1635 2.49664C36.1935 2.49664 49.2235 2.49664 59.5535 2.49664M23.1635 2.49664C20.6735 2.49664 19.4335 3.73664 19.4335 6.22664M59.5535 2.49664C62.0335 2.49664 63.2835 3.73664 63.2835 6.22664M63.2835 6.22664C63.2835 9.01664 63.2835 11.8166 63.2835 13.6766M63.2835 6.22664C63.2835 8.41664 63.2835 10.6166 63.2835 13.6766M63.2835 13.6766C63.2835 16.1566 62.0335 17.3966 59.5535 17.3966M59.5535 17.3966C48.1835 17.3966 36.8135 17.3966 23.1635 17.3966M59.5535 17.3966C48.5535 17.3966 37.5535 17.3966 23.1635 17.3966M23.1635 17.3966C20.6735 17.3966 19.4335 16.1566 19.4335 13.6766M19.4335 13.6766C19.4335 11.2666 19.4335 8.85664 19.4335 6.22664M19.4335 13.6766C19.4335 11.4266 19.4335 9.17664 19.4335 6.22664" stroke="#1E1E1E" stroke-width="2" stroke-linecap="round"/>
<path d="M24.3638 9.31811L23.706 9.50428C23.6646 9.39464 23.6036 9.28811 23.5229 9.18468C23.4443 9.07919 23.3368 8.99231 23.2003 8.92404C23.0637 8.85578 22.8889 8.82165 22.6759 8.82165C22.3842 8.82165 22.1411 8.88888 21.9467 9.02333C21.7543 9.15572 21.6581 9.32431 21.6581 9.5291C21.6581 9.71114 21.7243 9.8549 21.8567 9.9604C21.9891 10.0659 22.196 10.1538 22.4773 10.2241L23.1847 10.3979C23.6109 10.5013 23.9284 10.6596 24.1373 10.8726C24.3462 11.0836 24.4507 11.3557 24.4507 11.6887C24.4507 11.9617 24.3721 12.2058 24.2149 12.421C24.0597 12.6361 23.8425 12.8057 23.5633 12.9298C23.284 13.054 22.9593 13.116 22.589 13.116C22.1029 13.116 21.7005 13.0105 21.382 12.7995C21.0634 12.5885 20.8617 12.2803 20.7769 11.8749L21.472 11.7011C21.5381 11.9576 21.6633 12.15 21.8474 12.2782C22.0336 12.4065 22.2766 12.4706 22.5766 12.4706C22.9179 12.4706 23.1889 12.3982 23.3895 12.2534C23.5922 12.1065 23.6936 11.9307 23.6936 11.7259C23.6936 11.5604 23.6357 11.4219 23.5198 11.3101C23.404 11.1964 23.2261 11.1116 22.9862 11.0557L22.1918 10.8695C21.7553 10.7661 21.4347 10.6058 21.2299 10.3886C21.0272 10.1693 20.9258 9.89524 20.9258 9.56634C20.9258 9.29742 21.0014 9.05953 21.1524 8.85268C21.3054 8.64582 21.5133 8.48344 21.776 8.36553C22.0408 8.24762 22.3408 8.18866 22.6759 8.18866C23.1475 8.18866 23.5178 8.29209 23.7867 8.49895C24.0577 8.70581 24.2501 8.97886 24.3638 9.31811ZM27.4892 13.116C27.0589 13.116 26.6814 13.0136 26.3566 12.8088C26.0339 12.604 25.7816 12.3175 25.5995 11.9493C25.4196 11.5811 25.3296 11.1509 25.3296 10.6585C25.3296 10.1621 25.4196 9.72872 25.5995 9.35844C25.7816 8.98817 26.0339 8.70064 26.3566 8.49585C26.6814 8.29106 27.0589 8.18866 27.4892 8.18866C27.9195 8.18866 28.2959 8.29106 28.6186 8.49585C28.9434 8.70064 29.1958 8.98817 29.3757 9.35844C29.5578 9.72872 29.6488 10.1621 29.6488 10.6585C29.6488 11.1509 29.5578 11.5811 29.3757 11.9493C29.1958 12.3175 28.9434 12.604 28.6186 12.8088C28.2959 13.0136 27.9195 13.116 27.4892 13.116ZM27.4892 12.4582C27.816 12.4582 28.0849 12.3744 28.2959 12.2069C28.5069 12.0393 28.6631 11.819 28.7645 11.546C28.8658 11.2729 28.9165 10.9771 28.9165 10.6585C28.9165 10.34 28.8658 10.0431 28.7645 9.76802C28.6631 9.4929 28.5069 9.27053 28.2959 9.10091C28.0849 8.93128 27.816 8.84647 27.4892 8.84647C27.1624 8.84647 26.8934 8.93128 26.6824 9.10091C26.4714 9.27053 26.3153 9.4929 26.2139 9.76802C26.1125 10.0431 26.0619 10.34 26.0619 10.6585C26.0619 10.9771 26.1125 11.2729 26.2139 11.546C26.3153 11.819 26.4714 12.0393 26.6824 12.2069C26.8934 12.3744 27.1624 12.4582 27.4892 12.4582ZM30.7666 13.0167V8.25072H31.474V8.99541H31.5361C31.6354 8.74097 31.7957 8.54342 32.017 8.40276C32.2384 8.26003 32.5042 8.18866 32.8145 8.18866C33.1289 8.18866 33.3906 8.26003 33.5995 8.40276C33.8105 8.54342 33.975 8.74097 34.0929 8.99541H34.1425C34.2646 8.74925 34.4476 8.55377 34.6917 8.40897C34.9358 8.2621 35.2285 8.18866 35.5698 8.18866C35.996 8.18866 36.3445 8.32209 36.6155 8.58893C36.8865 8.85371 37.022 9.26639 37.022 9.82698V13.0167H36.2897V9.82698C36.2897 9.47532 36.1935 9.22399 36.0011 9.07298C35.8087 8.92197 35.5822 8.84647 35.3216 8.84647C34.9865 8.84647 34.7269 8.94783 34.5428 9.15055C34.3587 9.3512 34.2666 9.60564 34.2666 9.91386V13.0167H33.5219V9.75251C33.5219 9.48152 33.434 9.26329 33.2582 9.0978C33.0824 8.93025 32.8559 8.84647 32.5787 8.84647C32.3884 8.84647 32.2105 8.89715 32.045 8.99851C31.8816 9.09987 31.7492 9.24054 31.6478 9.4205C31.5485 9.5984 31.4989 9.80422 31.4989 10.038V13.0167H30.7666ZM39.7634 13.1284C39.4613 13.1284 39.1873 13.0715 38.9411 12.9578C38.6949 12.8419 38.4994 12.6754 38.3546 12.4582C38.2098 12.2389 38.1374 11.9742 38.1374 11.6639C38.1374 11.3908 38.1912 11.1695 38.2988 10.9999C38.4064 10.8282 38.5501 10.6937 38.7301 10.5965C38.9101 10.4993 39.1086 10.4269 39.3258 10.3793C39.5451 10.3296 39.7654 10.2903 39.9868 10.2614C40.2764 10.2241 40.5111 10.1962 40.6911 10.1776C40.8731 10.1569 41.0055 10.1228 41.0883 10.0752C41.1731 10.0276 41.2155 9.94489 41.2155 9.82698V9.80215C41.2155 9.496 41.1317 9.25812 40.9642 9.08849C40.7987 8.91887 40.5473 8.83406 40.2102 8.83406C39.8606 8.83406 39.5865 8.9106 39.3879 9.06367C39.1893 9.21675 39.0497 9.38016 38.969 9.55392L38.274 9.3057C38.3981 9.01609 38.5636 8.79062 38.7704 8.62927C38.9794 8.46585 39.2069 8.35208 39.4531 8.28796C39.7013 8.22176 39.9454 8.18866 40.1853 8.18866C40.3384 8.18866 40.5142 8.20728 40.7128 8.24451C40.9135 8.27968 41.1069 8.35312 41.2931 8.46482C41.4813 8.57652 41.6375 8.74511 41.7616 8.97059C41.8857 9.19606 41.9478 9.49807 41.9478 9.87662V13.0167H41.2155V12.3713H41.1783C41.1286 12.4748 41.0459 12.5854 40.93 12.7033C40.8142 12.8212 40.6601 12.9216 40.4677 13.0043C40.2753 13.0871 40.0405 13.1284 39.7634 13.1284ZM39.8751 12.4706C40.1647 12.4706 40.4087 12.4137 40.6073 12.3C40.808 12.1862 40.959 12.0393 41.0603 11.8594C41.1638 11.6794 41.2155 11.4901 41.2155 11.2915V10.6213C41.1845 10.6585 41.1162 10.6927 41.0107 10.7237C40.9073 10.7527 40.7873 10.7785 40.6508 10.8013C40.5163 10.822 40.385 10.8406 40.2567 10.8571C40.1305 10.8716 40.0281 10.884 39.9495 10.8944C39.7592 10.9192 39.5813 10.9595 39.4158 11.0154C39.2524 11.0692 39.12 11.1509 39.0187 11.2605C38.9194 11.3681 38.8697 11.5149 38.8697 11.7011C38.8697 11.9555 38.9638 12.1479 39.1521 12.2782C39.3424 12.4065 39.5834 12.4706 39.8751 12.4706ZM45.357 8.25072V8.87129H42.8872V8.25072H45.357ZM43.607 7.10887H44.3393V11.6515C44.3393 11.8583 44.3693 12.0135 44.4293 12.1169C44.4913 12.2183 44.5699 12.2865 44.6651 12.3217C44.7623 12.3548 44.8647 12.3713 44.9723 12.3713C45.053 12.3713 45.1192 12.3672 45.1709 12.3589C45.2226 12.3486 45.264 12.3403 45.295 12.3341L45.4439 12.9919C45.3943 13.0105 45.325 13.0291 45.236 13.0478C45.1471 13.0684 45.0343 13.0788 44.8978 13.0788C44.691 13.0788 44.4882 13.0343 44.2897 12.9454C44.0931 12.8564 43.9297 12.7209 43.7994 12.5389C43.6712 12.3568 43.607 12.1272 43.607 11.85V7.10887ZM48.3436 13.116C47.9133 13.116 47.5358 13.0136 47.211 12.8088C46.8883 12.604 46.6359 12.3175 46.4539 11.9493C46.2739 11.5811 46.184 11.1509 46.184 10.6585C46.184 10.1621 46.2739 9.72872 46.4539 9.35844C46.6359 8.98817 46.8883 8.70064 47.211 8.49585C47.5358 8.29106 47.9133 8.18866 48.3436 8.18866C48.7738 8.18866 49.1503 8.29106 49.473 8.49585C49.7978 8.70064 50.0501 8.98817 50.2301 9.35844C50.4121 9.72872 50.5031 10.1621 50.5031 10.6585C50.5031 11.1509 50.4121 11.5811 50.2301 11.9493C50.0501 12.3175 49.7978 12.604 49.473 12.8088C49.1503 13.0136 48.7738 13.116 48.3436 13.116ZM48.3436 12.4582C48.6704 12.4582 48.9393 12.3744 49.1503 12.2069C49.3613 12.0393 49.5175 11.819 49.6188 11.546C49.7202 11.2729 49.7709 10.9771 49.7709 10.6585C49.7709 10.34 49.7202 10.0431 49.6188 9.76802C49.5175 9.4929 49.3613 9.27053 49.1503 9.10091C48.9393 8.93128 48.6704 8.84647 48.3436 8.84647C48.0167 8.84647 47.7478 8.93128 47.5368 9.10091C47.3258 9.27053 47.1696 9.4929 47.0683 9.76802C46.9669 10.0431 46.9162 10.34 46.9162 10.6585C46.9162 10.9771 46.9669 11.2729 47.0683 11.546C47.1696 11.819 47.3258 12.0393 47.5368 12.2069C47.7478 12.3744 48.0167 12.4582 48.3436 12.4582ZM48.0084 7.60532L48.7655 6.16559H49.6219L48.6538 7.60532H48.0084ZM51.621 13.0167V8.25072H52.3284V8.97059H52.3781C52.4649 8.73477 52.6221 8.54342 52.8497 8.39656C53.0772 8.24969 53.3337 8.17625 53.6192 8.17625C53.673 8.17625 53.7402 8.17729 53.8209 8.17935C53.9016 8.18142 53.9626 8.18453 54.004 8.18866V8.93335C53.9791 8.92715 53.9222 8.91784 53.8333 8.90543C53.7464 8.89095 53.6544 8.88371 53.5571 8.88371C53.3255 8.88371 53.1186 8.93232 52.9366 9.02954C52.7566 9.12469 52.6139 9.25708 52.5084 9.42671C52.4049 9.59426 52.3532 9.78561 52.3532 10.0007V13.0167H51.621ZM54.872 13.0167V8.25072H55.6043V13.0167H54.872ZM55.2443 7.45639C55.1016 7.45639 54.9785 7.40778 54.8751 7.31055C54.7737 7.21333 54.723 7.09645 54.723 6.95993C54.723 6.8234 54.7737 6.70653 54.8751 6.6093C54.9785 6.51208 55.1016 6.46347 55.2443 6.46347C55.3871 6.46347 55.5091 6.51208 55.6105 6.6093C55.7139 6.70653 55.7656 6.8234 55.7656 6.95993C55.7656 7.09645 55.7139 7.21333 55.6105 7.31055C55.5091 7.40778 55.3871 7.45639 55.2443 7.45639ZM58.8817 13.116C58.4514 13.116 58.0739 13.0136 57.7491 12.8088C57.4264 12.604 57.1741 12.3175 56.992 11.9493C56.812 11.5811 56.7221 11.1509 56.7221 10.6585C56.7221 10.1621 56.812 9.72872 56.992 9.35844C57.1741 8.98817 57.4264 8.70064 57.7491 8.49585C58.0739 8.29106 58.4514 8.18866 58.8817 8.18866C59.3119 8.18866 59.6884 8.29106 60.0111 8.49585C60.3359 8.70064 60.5882 8.98817 60.7682 9.35844C60.9502 9.72872 61.0413 10.1621 61.0413 10.6585C61.0413 11.1509 60.9502 11.5811 60.7682 11.9493C60.5882 12.3175 60.3359 12.604 60.0111 12.8088C59.6884 13.0136 59.3119 13.116 58.8817 13.116ZM58.8817 12.4582C59.2085 12.4582 59.4774 12.3744 59.6884 12.2069C59.8994 12.0393 60.0556 11.819 60.1569 11.546C60.2583 11.2729 60.309 10.9771 60.309 10.6585C60.309 10.34 60.2583 10.0431 60.1569 9.76802C60.0556 9.4929 59.8994 9.27053 59.6884 9.10091C59.4774 8.93128 59.2085 8.84647 58.8817 8.84647C58.5548 8.84647 58.2859 8.93128 58.0749 9.10091C57.8639 9.27053 57.7077 9.4929 57.6064 9.76802C57.505 10.0431 57.4543 10.34 57.4543 10.6585C57.4543 10.9771 57.505 11.2729 57.6064 11.546C57.7077 11.819 57.8639 12.0393 58.0749 12.2069C58.2859 12.3744 58.5548 12.4582 58.8817 12.4582Z" fill="#1E1E1E"/>
<path d="M30.9221 36.405C31.2021 39.985 31.3721 45.145 30.9221 50.815C30.6221 45.385 31.0421 40.285 30.9221 36.405ZM30.9221 36.405C24.1721 37.635 17.1821 36.845 12.7921 37.995M30.9221 36.405C24.1121 36.985 17.3321 37.495 12.7921 37.995M12.7921 37.995C16.8221 44.335 20.4921 50.885 22.7921 55.335M12.7921 37.995C15.8121 43.805 19.1821 49.385 22.7921 55.335M22.7921 55.335C21.3221 60.815 18.4721 64.795 12.6821 76.535M22.7921 55.335C20.4521 61.185 17.3621 66.005 12.6821 76.535M12.6821 76.535C16.5221 76.925 21.2921 76.355 32.1321 75.445M12.6821 76.535C18.8421 76.485 25.1821 75.875 32.1321 75.445M32.1321 75.445C32.4221 73.635 32.0321 71.225 31.4121 66.225C31.7621 70.135 32.1721 72.625 32.1321 75.445Z" stroke="#1E1E1E" stroke-width="2" stroke-linecap="round"/>
<path d="M47.9644 39.0504C46.7844 41.9404 41.3144 50.7604 41.1644 56.5504C41.0144 62.3304 46.1244 70.8804 47.0744 73.7504M48.7844 38.6704C47.7844 41.3804 42.5944 49.8504 42.2344 55.7904C41.8644 61.7204 45.8344 71.2204 46.5744 74.2904" stroke="#1E1E1E" stroke-width="2" stroke-linecap="round"/>
<path d="M67.1494 38.071C68.2994 40.901 73.8994 49.081 74.0294 54.841C74.1594 60.591 68.8294 69.551 67.9194 72.581M67.9894 37.801C69.3494 40.691 74.9494 49.581 75.1094 55.471C75.2794 61.361 70.0394 70.371 68.9694 73.131" stroke="#1E1E1E" stroke-width="2" stroke-linecap="round"/>
<path d="M53.6094 42.7511C55.3394 42.4411 60.7194 41.6111 62.1994 42.7511C67.2194 40.6011 64.0694 42.9411 66.4894 47.0411C69.1594 54.9611 68.6894 58.1911 66.4894 64.3711C67.4694 67.0211 65.2194 70.7711 62.1994 68.6611C58.7694 67.6911 55.6194 68.6511 53.6094 68.6611C53.7794 71.3111 48.9394 68.5211 49.3194 64.3711C52.3794 59.4711 47.6494 50.7311 49.3194 47.0411C48.0094 41.5411 48.2094 41.0111 53.6094 42.7511Z" fill="white"/>
<path d="M53.6094 42.7511C55.4994 41.9911 57.5994 42.9911 62.1994 42.7511M53.6094 42.7511C56.3194 42.9511 60.0594 42.9811 62.1994 42.7511M53.6094 42.7511C50.6294 41.7211 47.8394 44.6911 49.3194 47.0411M53.6094 42.7511C50.9894 44.3211 50.7794 45.4911 49.3194 47.0411M62.1994 42.7511C63.4694 44.0311 65.1794 44.7411 66.4894 47.0411M62.1994 42.7511C64.0394 42.6311 64.5894 43.7211 66.4894 47.0411M66.4894 47.0411C66.9494 53.1711 66.7494 59.7211 66.4894 64.3711M66.4894 47.0411C66.3194 53.0611 66.7094 58.7511 66.4894 64.3711M66.4894 64.3711C64.8194 67.9111 64.8994 70.0311 62.1994 68.6611M66.4894 64.3711C68.5394 67.2811 65.7094 67.7411 62.1994 68.6611M62.1994 68.6611C60.7494 68.5611 57.5394 67.9411 53.6094 68.6611M62.1994 68.6611C60.1294 68.8511 57.6794 68.7211 53.6094 68.6611M53.6094 68.6611C52.0994 68.1011 49.2094 68.3611 49.3194 64.3711M53.6094 68.6611C51.2694 68.7011 47.4894 65.7211 49.3194 64.3711M49.3194 64.3711C49.8494 57.9111 48.9394 50.9311 49.3194 47.0411M49.3194 64.3711C49.1494 59.0711 49.2794 53.3811 49.3194 47.0411" stroke="#1E1E1E" stroke-width="0.5" stroke-linecap="round"/>
<path d="M54.1979 43.8283C55.9579 43.9483 58.0779 44.1883 61.5979 43.8283M54.1979 43.8283C56.0979 43.8883 57.5779 43.9383 61.5979 43.8283M54.1979 43.8283C52.3679 44.3983 50.4379 44.5483 50.4979 47.5283M54.1979 43.8283C52.5379 44.7983 50.6179 45.8483 50.4979 47.5283M61.5979 43.8283C63.4079 44.1083 64.8479 45.0083 65.2879 47.5283M61.5979 43.8283C63.1079 43.5983 66.1879 45.8183 65.2879 47.5283M65.2879 47.5283C65.3779 51.5783 65.4179 56.6083 65.2879 63.9783M65.2879 47.5283C65.3179 51.9983 64.9179 55.7983 65.2879 63.9783M65.2879 63.9783C65.2179 67.1283 64.9579 67.6983 61.5979 67.6783M65.2879 63.9783C65.6179 65.9883 63.2979 67.7683 61.5979 67.6783M61.5979 67.6783C58.5679 67.3383 55.9679 67.4683 54.1979 67.6783M61.5979 67.6783C59.5979 67.7283 57.6279 67.6383 54.1979 67.6783M54.1979 67.6783C51.6779 68.2383 50.7279 66.4583 50.4979 63.9783M54.1979 67.6783C50.8179 66.9183 50.9479 67.4983 50.4979 63.9783M50.4979 63.9783C50.3579 57.4683 50.4779 53.2583 50.4979 47.5283M50.4979 63.9783C50.5479 60.0083 50.1979 56.6483 50.4979 47.5283" stroke="#1E1E1E" stroke-width="0.5" stroke-linecap="round"/>
<path d="M59.275 49.8077C60.395 49.9677 61.585 50.1077 62.275 50.8177C62.975 51.5277 63.505 52.9777 63.445 54.0377C63.375 55.1077 62.705 56.4477 61.895 57.1977C61.085 57.9377 59.725 58.2877 58.585 58.5177C57.455 58.7477 55.935 59.1177 55.065 58.5877C54.195 58.0677 53.655 56.4377 53.355 55.3677C53.065 54.2877 52.915 53.0877 53.295 52.1477C53.675 51.2077 54.615 50.1077 55.635 49.7177C56.665 49.3377 58.825 49.8777 59.455 49.8377C60.075 49.8077 59.345 49.4677 59.365 49.4977M59.155 49.9677C60.405 50.1077 62.115 50.6177 62.815 51.3177C63.505 52.0177 63.595 53.1377 63.325 54.1777C63.055 55.2177 61.895 56.6777 61.185 57.5477C60.475 58.4277 60.085 59.4277 59.045 59.4277C58.005 59.4377 56.055 58.2877 54.935 57.5877C53.815 56.8877 52.665 56.1677 52.315 55.2377C51.965 54.3077 52.195 52.8377 52.835 51.9977C53.465 51.1477 55.035 50.5577 56.125 50.1577C57.215 49.7577 58.795 49.7277 59.385 49.5877C59.985 49.4577 59.745 49.2077 59.695 49.3377" stroke="#1E1E1E" stroke-width="0.5" stroke-linecap="round"/>
<path d="M56.0644 52.4024C56.2744 52.2924 56.6044 52.4624 56.7744 52.5724C56.9344 52.6924 57.0244 52.9424 57.0444 53.1124C57.0744 53.2824 57.0144 53.3324 56.9144 53.5724C56.8144 53.8124 56.5644 54.4424 56.4344 54.5524C56.2944 54.6624 56.2544 54.3324 56.0744 54.2324C55.9044 54.1324 55.5344 54.1124 55.3744 53.9724C55.2244 53.8424 55.1444 53.5424 55.1444 53.4124C55.1444 53.2824 55.2944 53.3224 55.4044 53.1724C55.5044 53.0324 55.6344 52.6324 55.7644 52.5624C55.8944 52.4824 56.1044 52.7424 56.1844 52.7224M56.5544 52.6724C56.7744 52.5824 56.8244 52.5624 56.8444 52.7024C56.8644 52.8324 56.6044 53.1924 56.6644 53.4624C56.7244 53.7324 57.2744 54.2424 57.2044 54.3224C57.1344 54.4124 56.5644 54.0124 56.2344 53.9824C55.9044 53.9524 55.4444 54.1924 55.2344 54.1624C55.0144 54.1324 54.9144 53.8924 54.9444 53.7924C54.9744 53.6924 55.3144 53.7124 55.4244 53.5724C55.5344 53.4224 55.4444 53.1024 55.6144 52.9224C55.7844 52.7524 56.3644 52.5124 56.4444 52.5224C56.5244 52.5324 56.1144 52.9224 56.0844 52.9624" stroke="#1E1E1E" stroke-width="0.5" stroke-linecap="round"/>
<path d="M59.8073 52.4328C59.9973 52.4628 60.1673 52.6428 60.2673 52.7728C60.3673 52.9028 60.4173 52.9328 60.4073 53.1928C60.3873 53.4428 60.2473 54.1228 60.1673 54.2928C60.0773 54.4628 60.0773 54.2228 59.9073 54.2128C59.7373 54.1928 59.3273 54.2728 59.1173 54.1928C58.9073 54.1128 58.7173 53.8728 58.6373 53.7628C58.5573 53.6428 58.5973 53.6628 58.6273 53.4828C58.6473 53.3028 58.5873 52.8028 58.7973 52.6728C58.9973 52.5428 59.6473 52.7428 59.8373 52.6928C60.0273 52.6428 59.9673 52.3928 59.9473 52.3928M59.7273 52.4528C59.7873 52.4628 59.6573 52.7328 59.8373 52.9528C60.0073 53.1728 60.7273 53.6628 60.7773 53.7828C60.8373 53.9028 60.3973 53.5828 60.1473 53.6528C59.8873 53.7228 59.4673 54.1028 59.2473 54.1928C59.0173 54.2728 58.8473 54.1728 58.7873 54.1628C58.7273 54.1428 58.9173 54.2228 58.9073 54.0928C58.8873 53.9528 58.6273 53.5928 58.6973 53.3528C58.7573 53.1128 59.1573 52.7128 59.2973 52.6428C59.4373 52.5728 59.4873 52.9228 59.5573 52.9328C59.6273 52.9328 59.7573 52.7628 59.6973 52.6728" stroke="#1E1E1E" stroke-width="0.5" stroke-linecap="round"/>
<path d="M57.7557 55.1807C58.0257 55.1207 58.4257 55.0307 58.6857 55.2407C58.9357 55.4607 59.1357 56.1807 59.2757 56.4707C59.4157 56.7507 59.6257 56.7407 59.5157 56.9307C59.4157 57.1307 58.9757 57.4907 58.6457 57.6307C58.3257 57.7607 57.8857 57.7507 57.5657 57.7407C57.2357 57.7407 56.9157 57.8107 56.6857 57.5907C56.4457 57.3707 56.0957 56.7307 56.1457 56.4207C56.1857 56.1207 56.6357 56.0007 56.9457 55.7707C57.2657 55.5407 57.8757 55.1207 58.0357 55.0507C58.1857 54.9707 57.8757 55.2107 57.8657 55.3207M57.5457 55.3607C57.8957 55.4307 58.9357 55.8407 59.2257 55.9507C59.5257 56.0507 59.3857 55.8107 59.3057 56.0007C59.2257 56.1907 58.9557 56.7907 58.7557 57.0707C58.5557 57.3507 58.3057 57.5007 58.1157 57.6607C57.9357 57.8207 57.8657 58.0807 57.6157 58.0207C57.3757 57.9607 56.7957 57.6107 56.6357 57.3107C56.4857 57.0107 56.6457 56.4607 56.6757 56.2207C56.7157 55.9907 56.6257 56.0407 56.8457 55.8907C57.0657 55.7507 57.8757 55.4807 57.9857 55.3307C58.0857 55.1807 57.4657 54.9207 57.4757 55.0207" stroke="#1E1E1E" stroke-width="0.5" stroke-linecap="round"/>
<path d="M58.4348 56.3061C58.4248 56.3661 58.3948 56.8161 58.4448 56.8561C58.5048 56.8961 58.7448 56.5561 58.7748 56.5261C58.8048 56.4961 58.6548 56.6261 58.6148 56.6661C58.5748 56.6961 58.5548 56.6561 58.5348 56.7261C58.5148 56.7861 58.5348 57.0561 58.4848 57.0461C58.4248 57.0361 58.1848 56.7061 58.2048 56.6561C58.2248 56.6061 58.5048 56.7861 58.5948 56.7261C58.6748 56.6761 58.7248 56.3661 58.7148 56.3361C58.7148 56.3061 58.5748 56.4561 58.5648 56.5461C58.5548 56.6461 58.6948 56.8561 58.6848 56.8761M58.8148 56.9061C58.8748 56.8361 58.5448 56.2961 58.4248 56.2261C58.3048 56.1661 58.1248 56.4461 58.1048 56.5161C58.0748 56.5761 58.1648 56.5461 58.2748 56.6261C58.3948 56.7161 58.7448 57.0061 58.7848 57.0461C58.8348 57.0961 58.5648 56.9761 58.5548 56.9061C58.5448 56.8361 58.7548 56.6161 58.7148 56.6261C58.6848 56.6361 58.3748 56.9661 58.3348 56.9661C58.3048 56.9661 58.5548 56.7361 58.5048 56.6161C58.4648 56.4961 58.0348 56.1761 58.0548 56.2461C58.0848 56.3161 58.5448 56.9461 58.6548 57.0361" stroke="#1E1E1E" stroke-width="0.5" stroke-linecap="round"/>
<path d="M54.6485 49.2845C54.8385 49.2645 54.8685 49.2245 55.0085 49.4245C55.1585 49.6345 55.5185 50.1445 55.5285 50.5045C55.5385 50.8745 55.1785 51.3845 55.0785 51.6145C54.9785 51.8545 55.0385 51.8645 54.9185 51.9245C54.7985 51.9845 54.5085 52.0945 54.3485 51.9945C54.1985 51.8945 54.1585 51.6345 53.9985 51.3245C53.8285 51.0045 53.3385 50.4645 53.3785 50.1045C53.4185 49.7545 53.9885 49.3845 54.2385 49.2045C54.4885 49.0245 54.8485 49.0545 54.8885 49.0445C54.9285 49.0345 54.4985 49.0845 54.4685 49.1545M54.9685 49.2245C55.1085 49.1745 55.2485 49.3445 55.3285 49.6045C55.4085 49.8645 55.4085 50.5145 55.4685 50.7645C55.5185 51.0145 55.8685 50.9245 55.6685 51.0945C55.4785 51.2745 54.5885 51.7145 54.2885 51.8245C53.9985 51.9345 53.9785 51.8045 53.8885 51.7645C53.7985 51.7145 53.7485 51.8145 53.7685 51.5445C53.7985 51.2745 53.9785 50.4345 54.0485 50.1545C54.1285 49.8745 54.1785 49.9445 54.2185 49.8545C54.2685 49.7645 54.1685 49.6545 54.3085 49.6045C54.4585 49.5445 55.0885 49.5845 55.0985 49.5245" fill="white"/>
<path d="M54.4085 49.4845C54.6385 49.4745 55.1085 49.2245 55.2885 49.3445C55.4685 49.4545 55.4685 49.8745 55.4785 50.1545C55.4985 50.4445 55.4685 50.7645 55.3785 51.0745C55.2985 51.3845 55.1685 51.9145 54.9585 52.0245C54.7485 52.1445 54.2785 51.8645 54.1285 51.7545C53.9685 51.6445 54.0585 51.6345 54.0285 51.3745C54.0085 51.1045 53.9785 50.4545 53.9785 50.1545C53.9785 49.8545 53.9085 49.6845 54.0285 49.5845C54.1585 49.4745 54.6385 49.5645 54.7285 49.5245C54.8085 49.4845 54.5785 49.4145 54.5185 49.3445M54.4685 48.8545C54.5085 48.7645 54.5585 49.1645 54.6785 49.3945C54.7985 49.6245 55.0085 49.8845 55.1585 50.2345C55.3185 50.5845 55.6385 51.2145 55.6085 51.4945C55.5685 51.7845 55.1285 51.9045 54.9585 51.9345C54.7885 51.9645 54.7685 51.7645 54.5685 51.6945C54.3585 51.6145 53.8685 51.7345 53.7385 51.5145C53.5985 51.2845 53.7985 50.7145 53.7785 50.3245C53.7485 49.9445 53.4185 49.3045 53.5785 49.2045C53.7385 49.0945 54.5485 49.6445 54.7485 49.6845C54.9585 49.7245 54.8585 49.5145 54.7985 49.4445" stroke="white" stroke-width="0.5" stroke-linecap="round"/>
<path fill-rule="evenodd" clip-rule="evenodd" d="M53.8142 49.6861C53.9932 50.1009 53.2194 52.489 53.5219 52.9934C53.8344 53.4987 55.563 53.3196 55.6593 52.7152C55.7547 52.1207 54.1917 49.8653 54.1063 49.4075" fill="white"/>
<path d="M52.6427 50.3188C52.8431 50.5848 53.2335 51.778 53.7689 51.9893C54.3044 52.2006 55.6166 52.0901 55.8541 51.6068C56.0815 51.1226 55.2514 49.5149 55.1437 49.0854M53.2346 50.0531C53.5623 50.3589 53.9471 52.2837 54.3752 52.4568C54.804 52.6198 55.6891 51.534 55.8077 51.0316C55.9362 50.5299 55.1135 49.7451 55.1164 49.4444" stroke="#1E1E1E" stroke-width="0.5" stroke-linecap="round"/>
<path fill-rule="evenodd" clip-rule="evenodd" d="M53.919 49.2707C54.131 49.4123 53.758 50.9804 54.0478 51.1715C54.3475 51.3612 55.6731 50.6677 55.71 50.4302" fill="white"/>
<path d="M52.7757 50.11C53.0642 50.1498 54.2773 50.5127 54.6805 50.3644C55.0921 50.2049 55.1097 49.4045 55.2116 49.1981M53.2116 49.6945C53.4874 49.6452 54.1788 49.8903 54.48 49.8778C54.7727 49.8766 54.8322 49.7267 54.9737 49.6561" stroke="#1E1E1E" stroke-width="0.5" stroke-linecap="round"/>
<path d="M61.2865 49.3118C61.4765 49.2718 62.0165 49.1818 62.2465 49.3418C62.4665 49.5018 62.5765 49.9618 62.6465 50.2718C62.7265 50.5918 62.8365 50.9918 62.6765 51.2118C62.5065 51.4318 61.8465 51.5418 61.6565 51.5918C61.4665 51.6518 61.6265 51.6218 61.5265 51.5318C61.4265 51.4418 61.2265 51.2618 61.0465 51.0518C60.8665 50.8418 60.4565 50.4918 60.4465 50.2518C60.4365 50.0218 60.7765 49.7918 60.9765 49.6418C61.1865 49.4918 61.5465 49.4218 61.6665 49.3718C61.7965 49.3218 61.7665 49.3518 61.7365 49.3518M61.9465 48.8318C62.0465 48.7518 61.6265 49.1218 61.6665 49.3418C61.6965 49.5618 62.0565 49.8018 62.1765 50.1718C62.3065 50.5318 62.3765 51.2718 62.3865 51.5218C62.3965 51.7718 62.4065 51.5518 62.2465 51.6418C62.0865 51.7418 61.7365 52.1318 61.4465 52.1118C61.1465 52.0818 60.5165 51.7618 60.4665 51.4918C60.4165 51.2218 61.1065 50.8418 61.1365 50.4918C61.1765 50.1318 60.6365 49.6318 60.6765 49.3418C60.7165 49.0418 61.2865 48.8018 61.3765 48.7218C61.4565 48.6518 61.1565 48.8218 61.2065 48.8818" fill="white"/>
<path d="M61.5265 49.0118C61.7065 49.0318 62.0165 49.4118 62.1365 49.5818C62.2565 49.7418 62.1865 49.7518 62.2565 50.0018C62.3365 50.2518 62.5965 50.8418 62.5965 51.0718C62.5965 51.3018 62.4465 51.2818 62.2565 51.3918C62.0565 51.4918 61.6265 51.6918 61.4265 51.7118C61.2265 51.7218 61.1765 51.7118 61.0465 51.4918C60.9265 51.2718 60.7165 50.7618 60.6765 50.3918C60.6365 50.0218 60.6665 49.4218 60.8065 49.2518C60.9565 49.0718 61.3965 49.3618 61.5565 49.3318C61.7165 49.3018 61.8265 49.1218 61.7765 49.0618M61.8065 49.3318C62.0565 49.3418 62.0565 49.3418 62.2265 49.4518C62.3865 49.5718 62.7565 49.6818 62.7765 49.9918C62.7965 50.3118 62.4565 51.0518 62.3365 51.3318C62.2065 51.6118 62.2665 51.6718 62.0265 51.6918C61.7865 51.7018 61.0765 51.4018 60.9065 51.4018C60.7365 51.3918 61.0065 51.7818 61.0065 51.6318C61.0065 51.4718 60.9465 50.8418 60.9065 50.4718C60.8765 50.1018 60.7665 49.6118 60.7865 49.3918C60.8065 49.1618 60.8365 49.2118 61.0365 49.1018C61.2265 48.9918 61.8665 48.7318 61.9465 48.7518" stroke="white" stroke-width="0.5" stroke-linecap="round"/>
<path fill-rule="evenodd" clip-rule="evenodd" d="M61.9366 50.8536C61.6764 51.0876 61.8703 52.9276 61.7959 52.9945C61.7306 53.0505 61.6674 52.002 61.5195 51.2421C61.3606 50.4731 61.1973 48.7508 60.8856 48.4071" fill="white"/>
<path d="M62.9072 50.3656C62.6396 50.6304 62.1909 51.9052 61.7334 52.0664C61.2768 52.2375 60.3548 51.918 60.1856 51.3709C60.0264 50.8228 60.7294 49.1338 60.7681 48.779M63.451 50.0461C63.1173 50.3569 62.0427 52.2697 61.4564 52.5629C60.87 52.856 60.0362 52.3982 59.9531 51.8032C59.8799 51.2073 60.8023 49.3884 60.9877 48.9904" stroke="#1E1E1E" stroke-width="0.5" stroke-linecap="round"/>
<path fill-rule="evenodd" clip-rule="evenodd" d="M61.5652 50.4496C61.3112 50.3865 61.223 51.3028 61.2474 51.1144C61.2717 50.9259 61.7691 49.7298 61.7212 49.3203" fill="white"/>
<path d="M62.6828 50.1504C62.4806 50.1545 61.7005 50.4167 61.3838 50.2144C61.056 50.0208 60.9307 49.1173 60.7577 48.9739M63.315 49.9397C63.0654 49.9982 61.4448 50.7567 60.995 50.6482C60.5465 50.5297 60.7204 49.5741 60.6213 49.2487" stroke="#1E1E1E" stroke-width="0.5" stroke-linecap="round"/>
<path d="M57.575 56.5573C57.685 56.5373 57.755 56.2773 57.755 56.2873C57.755 56.2973 57.595 56.4973 57.585 56.6273C57.565 56.7573 57.705 57.0073 57.675 57.0473C57.635 57.0973 57.465 56.9773 57.375 56.8973C57.285 56.8173 57.165 56.5673 57.135 56.5773C57.115 56.5873 57.185 56.9673 57.235 56.9573C57.275 56.9573 57.455 56.6773 57.415 56.5573C57.385 56.4373 57.035 56.2773 57.015 56.2373C56.985 56.2073 57.205 56.2573 57.245 56.3373C57.295 56.4173 57.225 56.6673 57.275 56.7173M57.305 56.7973C57.295 56.8273 57.575 56.6473 57.535 56.5673C57.495 56.4773 57.055 56.2073 57.075 56.3173C57.085 56.4173 57.555 57.0873 57.645 57.1973C57.735 57.3073 57.705 57.0773 57.615 56.9973C57.525 56.9173 57.255 56.7773 57.115 56.7373C56.965 56.6873 56.645 56.8173 56.725 56.7373C56.815 56.6573 57.545 56.2973 57.625 56.2673C57.715 56.2273 57.275 56.5173 57.235 56.5073C57.195 56.5073 57.445 56.1873 57.395 56.2173C57.355 56.2373 56.985 56.6373 56.965 56.6473" stroke="#1E1E1E" stroke-width="0.5" stroke-linecap="round"/>
<path d="M53.7594 62.1111C53.7194 62.3311 53.2694 63.3911 53.1994 63.6711M53.4494 62.7811C53.3694 62.9011 52.9094 63.0911 52.8594 63.1711" stroke="#1E1E1E" stroke-width="0.5" stroke-linecap="round"/>
<path fill-rule="evenodd" clip-rule="evenodd" d="M52.1641 62.0493C52.5041 62.2293 55.1541 62.5093 55.4841 62.4493C55.8041 62.3893 54.7541 61.6793 54.1041 61.6793C53.4541 61.6893 51.9241 62.3093 51.5941 62.4593" fill="white"/>
<path d="M52.9641 62.1893C53.1641 62.2093 54.3341 61.7793 54.5241 61.8893C54.7041 61.9893 54.3441 62.6293 54.0641 62.8293C53.7841 63.0393 52.9741 63.1193 52.8241 63.1293M53.5541 62.0093C53.6841 61.9593 54.0641 61.4093 54.2641 61.4393C54.4641 61.4693 54.9941 62.0293 54.7641 62.2093C54.5341 62.3793 53.1941 62.3693 52.8841 62.5093" stroke="#1E1E1E" stroke-width="0.5" stroke-linecap="round"/>
<path fill-rule="evenodd" clip-rule="evenodd" d="M57.7029 64.2048C57.8529 63.7748 56.9429 61.0648 56.6929 60.8548C56.4329 60.6348 56.1329 62.8448 56.1729 62.9148C56.2129 62.9848 56.5329 61.3948 56.9229 61.2848" fill="white"/>
<path d="M56.7429 63.6448C56.7529 63.3848 56.5429 62.0048 56.6529 61.9948C56.7529 61.9948 57.1829 63.6548 57.4029 63.5948C57.6229 63.5248 57.9329 61.9748 57.9929 61.6248M56.3429 63.5148C56.4729 63.1248 57.1529 61.5148 57.2929 61.4348C57.4329 61.3548 57.1929 62.9448 57.1629 63.0248C57.1429 63.1148 57.1129 62.2048 57.1529 61.9548" stroke="#1E1E1E" stroke-width="0.5" stroke-linecap="round"/>
<path fill-rule="evenodd" clip-rule="evenodd" d="M59.2402 60.6465C58.6802 60.4965 57.2402 61.3165 57.1102 61.6465C56.9802 61.9765 58.2002 62.2365 58.4902 62.6365C58.7702 63.0365 58.8402 63.8765 58.8102 64.0465" fill="white"/>
<path d="M59.2003 61.7965C59.0003 61.8465 58.2803 62.1265 58.3403 62.3265C58.4003 62.5165 59.6003 62.8265 59.5603 62.9765C59.5203 63.1265 58.4103 63.1665 58.1103 63.2365M59.7003 61.5565C59.4403 61.6565 58.0803 61.5265 58.0503 61.8265C58.0203 62.1265 59.4603 63.0865 59.5003 63.3665C59.5303 63.6465 58.4403 63.4665 58.2403 63.4965" stroke="#1E1E1E" stroke-width="0.5" stroke-linecap="round"/>
<path fill-rule="evenodd" clip-rule="evenodd" d="M59.5708 61.2266C59.3408 61.4366 58.9008 61.4466 59.2108 61.8966C59.5308 62.3466 61.4008 63.5966 61.4908 63.9066C61.5708 64.2266 59.9008 63.9066 59.7008 63.7766" fill="white"/>
<path d="M60.8008 61.8966C60.7608 61.9766 60.2908 62.0366 60.2908 62.2366C60.2808 62.4366 60.9808 62.8866 60.7808 63.0966C60.5908 63.3166 59.3308 63.4366 59.1408 63.5366M60.3608 61.7166C60.3308 61.8466 60.1308 62.4066 60.1708 62.6866C60.2108 62.9766 60.7908 63.2166 60.6108 63.4166C60.4308 63.6166 59.3108 63.7866 59.0908 63.8766" stroke="#1E1E1E" stroke-width="0.5" stroke-linecap="round"/>
<path fill-rule="evenodd" clip-rule="evenodd" d="M53.6459 62.7741C53.6659 62.6141 54.2659 61.0241 54.7959 61.2041C55.3259 61.3841 56.5659 63.4841 56.8259 63.8641" fill="white"/>
<path d="M55.2259 63.2141C55.3559 62.8741 55.5559 61.3941 55.6459 61.3941C55.7459 61.3941 55.6859 62.8841 55.7859 63.2241M54.9559 62.9141C55.0459 62.5941 55.1659 61.6541 55.4259 61.7741C55.6759 61.8941 56.3359 63.4541 56.5159 63.6241" stroke="#1E1E1E" stroke-width="0.5" stroke-linecap="round"/>
<path d="M55.1732 62.6734C55.2432 62.5934 55.6132 62.3634 55.7932 62.3334M54.7932 62.2934C54.9532 62.2734 56.2332 62.8534 56.4732 62.8034" stroke="#1E1E1E" stroke-width="0.5" stroke-linecap="round"/>
<path fill-rule="evenodd" clip-rule="evenodd" d="M62.1768 64.0108C62.4768 63.8208 62.1768 62.0208 62.4168 61.8708C62.6668 61.7308 63.6068 62.7208 63.6468 63.1308" fill="white"/>
<path d="M61.1467 63.3708C61.2867 63.1408 62.0967 61.8608 62.3467 61.8508C62.5967 61.8308 62.6367 63.0008 62.6367 63.2608M61.6667 63.0708C61.7767 62.7608 62.0867 61.2708 62.2067 61.3408C62.3167 61.4108 62.3667 63.1208 62.3867 63.5108" stroke="#1E1E1E" stroke-width="0.5" stroke-linecap="round"/>
<path d="M61.8157 62.88C62.0057 62.8 62.4057 62.26 62.4757 62.17M61.5157 62.69C61.6757 62.64 61.9357 62.49 62.1657 62.49" stroke="#1E1E1E" stroke-width="0.5" stroke-linecap="round"/>
</svg>
