<svg width="85" height="126" viewBox="0 0 85 126" fill="none" xmlns="http://www.w3.org/2000/svg">
<path d="M22.2827 2.14058C35.9027 0.240583 44.7427 -1.15942 62.6827 2.14058C77.8727 5.66058 80.8627 6.89058 82.8827 22.3406C83.9227 41.0706 84.0727 60.2806 82.8827 103.891C82.8627 119.911 75.6927 126.341 62.6827 124.091C54.8627 121.321 39.9527 126.911 22.2827 124.091C5.28268 120.531 -0.267324 115.481 2.08268 103.891C0.542676 70.7306 3.35268 42.3106 2.08268 22.3406C0.142676 6.54058 11.6927 -1.14942 22.2827 2.14058Z" fill="white"/>
<path d="M22.2827 2.14061C32.6527 3.73061 41.1027 2.80061 62.6827 2.14061M22.2827 2.14061C33.3427 2.46061 45.8327 1.65061 62.6827 2.14061M22.2827 2.14061C7.06268 1.38061 0.132677 7.56061 2.08268 22.3406M22.2827 2.14061C6.76268 3.68061 0.672677 10.1306 2.08268 22.3406M62.6827 2.14061C77.4427 3.68061 81.4827 8.33061 82.8827 22.3406M62.6827 2.14061C76.1727 1.63061 82.7627 9.15061 82.8827 22.3406M82.8827 22.3406C82.8527 47.5306 83.1527 73.9106 82.8827 103.891M82.8827 22.3406C81.7727 43.3406 83.0227 63.0506 82.8827 103.891M82.8827 103.891C82.3727 117.321 76.4527 125.571 62.6827 124.091M82.8827 103.891C85.0627 118.081 75.5827 125.121 62.6827 124.091M62.6827 124.091C48.9827 123.641 37.4727 125.611 22.2827 124.091M62.6827 124.091C47.9827 123.811 32.9427 124.251 22.2827 124.091M22.2827 124.091C8.23268 124.621 1.89268 117.591 2.08268 103.891M22.2827 124.091C10.3827 126.351 3.70268 117.481 2.08268 103.891M2.08268 103.891C3.86268 85.7306 1.68268 68.5106 2.08268 22.3406M2.08268 103.891C2.59268 74.5506 2.74268 45.5706 2.08268 22.3406" stroke="#1E1E1E" stroke-width="2" stroke-linecap="round"/>
<path d="M46.0972 72.8127C46.1572 70.5227 44.2772 62.7427 45.6472 59.4927C47.0172 56.2527 51.5272 53.5827 54.3172 53.3327C57.1072 53.0727 60.6272 55.0227 62.4072 57.9827C64.1872 60.9527 64.5272 68.6927 64.9872 71.1327M45.1572 71.9027C45.0772 69.7327 43.4872 63.8127 44.9272 60.9427C46.3772 58.0727 50.9072 54.9427 53.8172 54.6727C56.7172 54.4027 60.6872 56.5427 62.3572 59.3027C64.0272 62.0627 63.6572 69.1027 63.8172 71.2227" stroke="#1E1E1E" stroke-linecap="round"/>
<path d="M45.3896 72.6308C48.6196 72.4908 61.8496 72.0508 65.0496 71.9608M44.8296 72.1108C47.9696 72.0508 61.5196 72.8308 64.7296 72.6708" stroke="#1E1E1E" stroke-linecap="round"/>
<path d="M59.488 63.6537C58.7535 64.142 56.8111 66.6041 55.1224 66.7231C53.4435 66.8321 50.3509 64.8468 49.3751 64.3378M60.0432 64.1075C59.4206 64.7645 57.4426 67.617 55.7021 67.5866C53.9516 67.5464 50.6955 64.3629 49.5799 63.8754" stroke="#1E1E1E" stroke-linecap="round"/>
<path d="M60.4226 63.7942C59.5617 63.3058 56.5576 61.1115 54.7674 61.0249C52.9872 60.9382 50.4408 62.8131 49.7217 63.2844M59.5534 64.1758C58.7623 63.6173 56.6763 60.4713 55.0663 60.4643C53.4563 60.4574 50.6423 63.6427 49.8933 64.1341" stroke="#1E1E1E" stroke-linecap="round"/>
<path d="M53.2962 63.4751C53.2962 63.4751 53.346 63.4414 53.4454 63.3739C53.5381 63.2998 53.641 63.2456 53.7541 63.2114C53.8737 63.1704 53.9869 63.1528 54.0937 63.1586C54.2137 63.1576 54.3305 63.1799 54.4442 63.2257C54.5579 63.2647 54.6617 63.3205 54.7556 63.3931C54.8496 63.4657 54.9303 63.5517 54.9978 63.6511C55.0653 63.7572 55.1129 63.8668 55.1405 63.9799C55.1681 64.0931 55.179 64.2063 55.1733 64.3197C55.1609 64.4398 55.1319 64.5567 55.0862 64.6704C55.0404 64.7775 54.9779 64.878 54.8987 64.972C54.8194 65.0593 54.7266 65.1334 54.6205 65.1943C54.521 65.2551 54.4113 65.296 54.2915 65.317C54.1717 65.338 54.0584 65.3423 53.9516 65.3298C53.8315 65.3175 53.7179 65.2851 53.6108 65.2326C53.5037 65.1802 53.4064 65.111 53.319 65.025C53.2317 64.9391 53.1609 64.843 53.1067 64.7368C53.0524 64.6305 53.0182 64.5175 53.0038 64.3976C52.9896 64.2844 52.992 64.171 53.011 64.0575C53.0301 63.9374 53.0691 63.827 53.1283 63.7265C53.1874 63.6194 53.26 63.5255 53.346 63.4447C53.4387 63.364 53.5381 63.2998 53.6444 63.2523C53.7574 63.2047 53.8738 63.1737 53.9937 63.1594C54.1069 63.1518 54.2203 63.1608 54.3339 63.1866C54.4475 63.219 54.5579 63.2647 54.665 63.3238C54.7656 63.3897 54.8529 63.469 54.927 63.5617C55.0011 63.6544 55.0586 63.7573 55.0996 63.8703C55.1472 63.9832 55.1715 64.0997 55.1725 64.2197C55.1801 64.333 55.1643 64.4464 55.1253 64.5601C55.0929 64.6737 55.0404 64.7775 54.9678 64.8714C54.902 64.9719 54.8691 65.0222 54.8691 65.0222C54.8691 65.0222 54.8326 65.0492 54.7597 65.1031C54.6936 65.1637 54.6206 65.2109 54.5409 65.2449C54.4612 65.2856 54.3748 65.313 54.2816 65.3271C54.195 65.3411 54.1117 65.3485 54.0317 65.3491C53.9384 65.3432 53.8516 65.3273 53.7713 65.3013C53.6845 65.2753 53.6008 65.2394 53.5204 65.1934C53.4467 65.1473 53.3796 65.0912 53.319 65.025C53.2519 64.9656 53.1947 64.8994 53.1474 64.8264C53.1001 64.7468 53.0627 64.6638 53.0353 64.5773C53.008 64.4976 52.9906 64.411 52.9832 64.3178C52.9825 64.2378 52.9885 64.1544 53.0011 64.0676C53.0137 63.9742 53.0396 63.8873 53.079 63.807C53.1116 63.7267 53.1577 63.653 53.2172 63.5858C53.2699 63.512 53.2962 63.4751 53.2962 63.4751Z" fill="#1E1E1E"/>
<path d="M25.8478 56.4025C25.3357 55.6941 22.2302 53.8834 22.0853 52.2639C21.9404 50.6443 24.4612 47.5967 24.9784 46.6651M25.5893 56.8833C25.1767 56.0245 22.7172 52.872 22.7022 51.222C22.6872 49.582 25.0218 47.785 25.5195 47.0135" stroke="#1E1E1E" stroke-linecap="round"/>
<path d="M25.1495 56.9217C25.6046 56.1245 28.3435 53.1719 28.4345 51.4324C28.5356 49.6931 26.1006 47.3275 25.726 46.4751M24.6047 56.1082C25.0991 55.4213 28.782 53.4047 29.0718 51.8665C29.3616 50.3183 26.9876 47.8032 26.3537 46.8491" stroke="#1E1E1E" stroke-linecap="round"/>
<path d="M25.7313 50.3431C25.7313 50.3431 25.7647 50.3931 25.8313 50.4931C25.9047 50.5864 25.958 50.6897 25.9913 50.8031C26.0313 50.9231 26.048 51.0364 26.0413 51.1431C26.0413 51.2631 26.018 51.3797 25.9713 51.4931C25.9313 51.6064 25.8747 51.7097 25.8013 51.8031C25.728 51.8964 25.6413 51.9764 25.5413 52.0431C25.4347 52.1097 25.3247 52.1564 25.2113 52.1831C25.098 52.2097 24.9847 52.2197 24.8713 52.2131C24.7513 52.1997 24.6347 52.1697 24.5213 52.1231C24.4147 52.0764 24.3147 52.0131 24.2213 51.9331C24.1347 51.8531 24.0613 51.7597 24.0013 51.6531C23.9413 51.5531 23.9013 51.4431 23.8813 51.3231C23.8613 51.2031 23.858 51.0897 23.8713 50.9831C23.8847 50.8631 23.918 50.7497 23.9713 50.6431C24.0247 50.5364 24.0947 50.4397 24.1813 50.3531C24.268 50.2664 24.3647 50.1964 24.4713 50.1431C24.578 50.0897 24.6913 50.0564 24.8113 50.0431C24.9247 50.0297 25.038 50.0331 25.1513 50.0531C25.2713 50.0731 25.3813 50.1131 25.4813 50.1731C25.588 50.2331 25.6813 50.3064 25.7613 50.3931C25.8413 50.4864 25.9047 50.5864 25.9513 50.6931C25.998 50.8064 26.028 50.9231 26.0413 51.0431C26.048 51.1564 26.038 51.2697 26.0113 51.3831C25.978 51.4964 25.9313 51.6064 25.8713 51.7131C25.8047 51.8131 25.7247 51.8997 25.6313 51.9731C25.538 52.0464 25.4347 52.1031 25.3213 52.1431C25.208 52.1897 25.0913 52.2131 24.9713 52.2131C24.858 52.2197 24.7447 52.2031 24.6313 52.1631C24.518 52.1297 24.4147 52.0764 24.3213 52.0031C24.2213 51.9364 24.1713 51.9031 24.1713 51.9031C24.1713 51.9031 24.1447 51.8664 24.0913 51.7931C24.0313 51.7264 23.9847 51.6531 23.9513 51.5731C23.9113 51.4931 23.8847 51.4064 23.8713 51.3131C23.858 51.2264 23.8513 51.1431 23.8513 51.0631C23.858 50.9697 23.8747 50.8831 23.9013 50.8031C23.928 50.7164 23.9647 50.6331 24.0113 50.5531C24.058 50.4797 24.1147 50.4131 24.1813 50.3531C24.2413 50.2864 24.308 50.2297 24.3813 50.1831C24.4613 50.1364 24.5447 50.0997 24.6313 50.0731C24.7113 50.0464 24.798 50.0297 24.8913 50.0231C24.9713 50.0231 25.0547 50.0297 25.1413 50.0431C25.2347 50.0564 25.3213 50.0831 25.4013 50.1231C25.4813 50.1564 25.5547 50.2031 25.6213 50.2631C25.6947 50.3164 25.7313 50.3431 25.7313 50.3431Z" fill="#1E1E1E"/>
<path d="M16.5305 60.9921C16.6005 59.0721 15.6705 52.4021 17.0005 49.0821C18.3405 45.7621 21.7505 41.6621 24.5305 41.0821C27.3005 40.4921 31.9105 42.5021 33.6605 45.5521C35.4005 48.6021 34.7305 56.8521 35.0105 59.3721M15.0405 60.0221C14.9705 57.8221 14.2205 50.5321 16.2105 47.5521C18.2105 44.5721 24.1405 42.3221 27.0105 42.1421C29.8905 41.9721 31.8705 43.6121 33.4905 46.5021C35.1105 49.3821 36.2405 57.2021 36.7305 59.4521" stroke="#1E1E1E" stroke-linecap="round"/>
<path d="M17.8126 61.3633C20.7126 61.2333 32.2026 60.3033 35.0826 60.1133M17.2226 61.1533C20.3026 61.0933 32.9626 60.7733 36.1326 60.7033" stroke="#1E1E1E" stroke-linecap="round"/>
<path d="M42.7668 33.2156C43.5868 33.5756 46.0368 35.3356 47.6668 35.3856C49.3068 35.4256 51.7568 33.8156 52.5768 33.5056" stroke="#1E1E1E" stroke-width="0.5" stroke-linecap="round"/>
<path d="M47.78 32.5818C47.78 32.8118 47.8 33.7418 47.81 33.9718" stroke="#1E1E1E" stroke-width="0.5" stroke-linecap="round"/>
<path d="M37.4727 44.6755C37.6527 42.4455 36.8327 35.1755 38.6027 31.4255C40.3727 27.6655 46.4027 23.7755 48.1027 22.1655M38.2627 45.7255C38.3827 43.3455 36.2227 34.7055 38.0427 30.6255C39.8727 26.5555 47.3827 22.6655 49.2127 21.2655" stroke="#1E1E1E" stroke-linecap="round"/>
<path d="M57.9745 45.0022C57.8145 42.7922 58.5245 35.0522 56.8345 31.1322C55.1545 27.2122 49.4345 23.0922 47.8645 21.4922M58.8545 44.7022C58.8945 42.3522 59.7245 34.1022 57.8645 30.3222C55.9945 26.5522 49.3845 23.4322 47.6545 22.0522" stroke="#1E1E1E" stroke-linecap="round"/>
<path d="M37.3726 45.7615C39.0726 44.8015 44.2926 40.1415 47.7226 40.0415C51.1426 39.9415 56.1926 44.2315 57.9326 45.1515M38.1726 45.4415C39.8426 44.5515 44.2026 40.6515 47.4326 40.7015C50.6526 40.7515 55.7026 45.0915 57.5126 45.7415" stroke="#1E1E1E" stroke-linecap="round"/>
<path d="M43.0292 33.4731C43.8792 33.0731 46.0492 31.3431 47.6592 31.3531C49.2792 31.3531 51.8192 33.1631 52.7092 33.4931M42.6892 33.1431C43.5092 32.7831 45.6992 31.8331 47.3392 31.8031C48.9792 31.7631 51.7092 32.6231 52.5192 32.9431" stroke="#1E1E1E" stroke-width="0.5" stroke-linecap="round"/>
<path d="M47.9698 31.1058C48.3598 31.0358 48.9398 31.3158 49.2698 31.6558C49.5998 32.0058 49.9798 32.7758 49.9598 33.1758C49.9498 33.5758 49.4898 33.7158 49.1898 34.0558C48.8898 34.3958 48.4998 35.0858 48.1898 35.2258C47.8798 35.3658 47.6998 35.0658 47.2998 34.8758C46.8998 34.6858 46.0198 34.4658 45.7898 34.0958C45.5498 33.7258 45.7398 33.0658 45.8998 32.6358C46.0698 32.2158 46.4098 31.7658 46.7598 31.5158C47.0998 31.2758 47.7798 31.1658 47.9898 31.1558C48.1898 31.1458 47.9298 31.3758 47.9698 31.4558M47.3498 31.6158C47.7998 31.5858 48.5398 31.3058 48.9198 31.5458C49.3098 31.7958 49.5398 32.7458 49.6498 33.0958C49.7598 33.4558 49.7198 33.4058 49.5698 33.6758C49.4298 33.9458 49.1198 34.5758 48.7698 34.7258C48.4298 34.8858 48.0298 34.7558 47.4998 34.5958C46.9698 34.4458 45.9498 34.1358 45.6098 33.8058C45.2598 33.4758 45.3298 32.9258 45.4398 32.6058C45.5398 32.2958 45.9298 32.0958 46.2498 31.9058C46.5798 31.7258 47.1298 31.5758 47.3898 31.5158C47.6398 31.4658 47.6998 31.5358 47.7598 31.5658" stroke="#1E1E1E" stroke-width="0.5" stroke-linecap="round"/>
<path d="M48.244 33.166C48.054 33.176 47.294 33.206 47.104 33.216" stroke="#1E1E1E" stroke-width="0.5" stroke-linecap="round"/>
<path d="M21.6924 63.8972C21.7324 63.0772 21.7224 62.3772 21.6924 61.6972C21.6824 62.4572 21.7224 63.2972 21.6924 63.8972ZM21.6924 63.8972C21.4524 64.7772 20.9424 66.1472 19.4924 66.0972M21.6924 63.8972C21.4024 65.7572 20.7324 66.3072 19.4924 66.0972M19.4924 66.0972C19.1824 66.1272 18.7824 66.0672 18.2724 66.0972M19.4924 66.0972C19.1224 66.0972 18.7724 66.1172 18.2724 66.0972M18.2724 66.0972C16.8824 65.4472 16.4724 66.4472 16.0724 68.2972M18.2724 66.0972C17.3824 65.4672 15.3224 66.3272 16.0724 68.2972M16.0724 68.2972C16.1124 68.7072 16.1224 69.2272 16.0724 70.4972C16.0424 69.9372 16.0524 69.1072 16.0724 68.2972Z" stroke="#1E1E1E" stroke-linecap="round"/>
<path d="M15.8324 69.8572C15.9824 69.8472 16.2324 69.9272 16.3424 69.9972C16.4624 70.0772 16.4324 70.1772 16.5324 70.3072C16.6424 70.4372 16.9524 70.6472 16.9624 70.7672C16.9724 70.8772 16.7824 70.8772 16.5924 71.0072C16.3924 71.1372 15.9424 71.5972 15.7924 71.5372C15.6424 71.4672 15.8124 70.7472 15.7024 70.5972C15.5924 70.4472 15.2224 70.7972 15.1424 70.6372C15.0624 70.4772 15.1224 69.8272 15.2324 69.6572C15.3424 69.4872 15.6324 69.6172 15.8024 69.5972C15.9724 69.5872 16.2724 69.5572 16.2724 69.5572M15.7024 69.4572C15.9124 69.3772 16.6624 69.2472 16.8624 69.4272C17.0624 69.6072 16.9824 70.2272 16.9024 70.5172C16.8224 70.8072 16.4924 71.1272 16.3924 71.1772C16.3024 71.2172 16.3524 70.7572 16.3324 70.7772C16.3224 70.7872 16.5124 71.1772 16.2924 71.2772C16.0824 71.3772 15.1624 71.5672 15.0624 71.3772C14.9524 71.1872 15.5024 70.3672 15.6524 70.1272C15.8024 69.8772 15.9324 69.9372 15.9524 69.9272C15.9824 69.9072 15.7624 70.1172 15.8124 70.0172C15.8624 69.9272 16.3224 69.3372 16.2824 69.3672" fill="#1E1E1E"/>
<path d="M16.2424 70.0772C16.3124 70.0472 16.1524 69.7072 16.2024 69.7872C16.2524 69.8672 16.4024 70.3872 16.5224 70.5372C16.6424 70.6972 17.0024 70.6172 16.9224 70.7172C16.8424 70.8272 16.2324 71.1072 16.0524 71.1672C15.8824 71.2272 15.9524 71.1272 15.8824 71.0672C15.8124 71.0072 15.7024 70.9072 15.6324 70.7972C15.5624 70.6772 15.4424 70.4772 15.4424 70.3772C15.4424 70.2672 15.4624 70.2472 15.6224 70.1872C15.7824 70.1272 16.3124 70.1172 16.3924 70.0072C16.4724 69.8872 16.1624 69.5772 16.1024 69.4972M16.0624 70.0472C16.2524 69.9972 16.5024 69.5072 16.6724 69.5272C16.8424 69.5572 17.0424 70.0172 17.0924 70.1872C17.1524 70.3572 17.2424 70.4272 17.0224 70.5472C16.7924 70.6572 16.0224 70.8172 15.7324 70.8872C15.4424 70.9572 15.4024 70.9272 15.2924 70.9572C15.1824 70.9772 15.1524 71.1072 15.0924 71.0472C15.0324 70.9872 14.8524 70.7472 14.9424 70.6072C15.0324 70.4672 15.4224 70.3072 15.6224 70.2172C15.8224 70.1272 16.0824 70.1472 16.1324 70.0672C16.1724 69.9772 15.9724 69.6972 15.9024 69.6972" stroke="#1E1E1E" stroke-linecap="round"/>
<path d="M25.9849 63.8124C26.0349 63.3824 26.0249 62.3524 25.9849 61.4124C26.0049 61.9324 25.9649 62.3724 25.9849 63.8124ZM25.9849 63.8124C25.9649 65.4724 26.5249 66.5624 28.3849 66.2224M25.9849 63.8124C25.7649 65.6224 26.7149 66.3124 28.3849 66.2224M28.3849 66.2224C29.2949 66.1424 30.1849 66.1324 30.8349 66.2224M28.3849 66.2224C29.3249 66.2424 30.2849 66.1824 30.8349 66.2224M30.8349 66.2224C32.8449 65.8324 33.7449 66.4724 33.2449 68.6224M30.8349 66.2224C31.6949 65.7224 32.5649 66.7324 33.2449 68.6224M33.2449 68.6224C33.2949 69.1924 33.2949 69.7624 33.2449 71.0324C33.2749 70.3224 33.1949 69.5024 33.2449 68.6224Z" stroke="#1E1E1E" stroke-linecap="round"/>
<path d="M33.1149 70.2824C33.2749 70.2524 33.3649 70.2924 33.5649 70.3824C33.7649 70.4824 34.2149 70.7024 34.3249 70.8524C34.4249 71.0024 34.3349 71.0924 34.1849 71.3124C34.0349 71.5224 33.5949 72.1224 33.4249 72.1624C33.2549 72.1924 33.3449 71.5824 33.1549 71.5024C32.9649 71.4124 32.4549 71.7924 32.2749 71.6324C32.0949 71.4724 32.0349 70.7824 32.0749 70.5424C32.1049 70.3024 32.2449 70.2924 32.4849 70.2024C32.7249 70.1024 33.4149 69.9924 33.5049 69.9524C33.5949 69.9124 33.1249 69.9024 33.0349 69.9624M33.5949 69.7224C33.8349 69.8024 33.8749 70.3324 33.8949 70.5924C33.9249 70.8424 33.7249 71.1624 33.7349 71.2324C33.7349 71.3124 33.8949 70.9424 33.9249 71.0424C33.9649 71.1524 34.1849 71.6624 33.9449 71.8724C33.7149 72.0724 32.7349 72.3924 32.5449 72.2624C32.3549 72.1424 32.7849 71.3724 32.8249 71.1424C32.8649 70.9024 32.8649 70.9224 32.8049 70.8324C32.7549 70.7524 32.3749 70.8324 32.4949 70.6524C32.6049 70.4724 33.4549 69.7724 33.4949 69.7624C33.5349 69.7524 32.7949 70.5424 32.7349 70.5724" fill="#1E1E1E"/>
<path d="M32.9249 70.0424C33.0149 70.0124 33.3049 70.4524 33.5249 70.5624C33.7549 70.6824 34.2649 70.6024 34.2949 70.7524C34.3149 70.8924 33.8149 71.2824 33.6949 71.4324C33.5749 71.5924 33.6649 71.6424 33.5649 71.6924C33.4749 71.7424 33.2949 71.7724 33.1249 71.7324C32.9649 71.6924 32.7049 71.5324 32.5949 71.4324C32.4749 71.3224 32.3649 71.2524 32.4349 71.1224C32.5049 70.9824 32.8749 70.8224 33.0149 70.6224C33.1449 70.4224 33.2249 70.0224 33.2649 69.8924C33.3049 69.7724 33.2049 69.8424 33.2449 69.8824M33.2649 69.7024C33.5049 69.5924 33.8649 69.9424 34.0649 70.0724C34.2649 70.1924 34.5449 70.2724 34.4549 70.4424C34.3649 70.6124 33.7349 70.9024 33.5049 71.1024C33.2849 71.2924 33.2649 71.4524 33.1249 71.6224C32.9849 71.7924 32.8449 72.0824 32.6749 72.1124C32.4949 72.1424 32.1249 71.9624 32.0649 71.8124C32.0149 71.6724 32.2349 71.4424 32.3249 71.2524C32.4149 71.0624 32.5149 70.8824 32.6149 70.6824C32.7249 70.4924 32.9149 70.1324 32.9349 70.0824C32.9549 70.0424 32.6149 70.4524 32.7449 70.4424" stroke="#1E1E1E" stroke-linecap="round"/>
<path d="M36.3172 61.9186C35.6472 61.8986 35.3372 61.9586 34.9272 61.9186C35.2272 61.8986 35.5472 61.9186 36.3172 61.9186ZM36.3172 61.9186C36.9872 62.2586 37.5172 62.5586 37.7072 63.3086M36.3172 61.9186C37.1772 62.0086 38.2372 63.1386 37.7072 63.3086M37.7072 63.3086C37.7072 64.0786 37.7772 64.9686 37.7072 65.5886M37.7072 63.3086C37.7172 63.9086 37.7372 64.5486 37.7072 65.5886M37.7072 65.5886C38.2172 65.9686 37.5272 66.5386 39.1072 66.9786M37.7072 65.5886C37.0372 66.2286 37.7072 67.3986 39.1072 66.9786M39.1072 66.9786C39.4272 66.9786 39.7172 66.9586 40.4972 66.9786C39.8672 66.9686 39.5172 66.9686 39.1072 66.9786Z" stroke="#1E1E1E" stroke-linecap="round"/>
<path d="M40.2672 66.7385C40.3772 66.7185 40.7772 66.7585 40.8872 66.7585C40.9972 66.7685 40.9872 66.6785 40.9372 66.7885C40.8872 66.8985 40.6172 67.4185 40.5972 67.4385C40.5772 67.4485 40.8572 66.8885 40.7872 66.8785C40.7172 66.8785 40.3272 67.4185 40.1972 67.3985C40.0572 67.3785 39.9872 66.8685 39.9572 66.7585C39.9372 66.6585 39.9472 66.7885 40.0472 66.7585C40.1572 66.7185 40.5572 66.5985 40.5872 66.5585C40.6272 66.5185 40.3272 66.4685 40.2672 66.5085C40.2172 66.5385 40.2172 66.7585 40.2472 66.7685M40.6072 66.9785C40.5372 67.1085 40.2772 67.2485 40.2772 67.1785C40.2872 67.1085 40.5172 66.5485 40.6472 66.5385C40.7772 66.5385 41.1672 66.9585 41.0872 67.1385C41.0072 67.3185 40.2172 67.6685 40.1572 67.6185C40.0972 67.5785 40.6472 66.9585 40.7472 66.8585C40.8372 66.7685 40.8272 66.9785 40.7272 67.0385C40.6172 67.0885 40.1172 67.3085 40.0972 67.2085C40.0772 67.0985 40.6372 66.4085 40.6272 66.3985C40.6072 66.3785 40.0472 67.1185 40.0072 67.1085C39.9672 67.1085 40.3672 66.5085 40.3872 66.3685" fill="#1E1E1E"/>
<path d="M40.2772 66.9385C40.4072 66.9485 40.8572 66.6985 40.8872 66.6985C40.9072 66.7085 40.4672 66.9185 40.4372 66.9685C40.4072 67.0185 40.6572 66.9785 40.7072 66.9985C40.7472 67.0285 40.7472 67.0885 40.7072 67.1185C40.6772 67.1385 40.5372 67.1285 40.4672 67.1585C40.4072 67.1885 40.2972 67.2985 40.3172 67.2985C40.3372 67.2885 40.5872 67.2685 40.5972 67.1385C40.6172 67.0085 40.4072 66.6085 40.3872 66.4885C40.3772 66.3685 40.4472 66.3985 40.5172 66.4285C40.5872 66.4485 40.8372 66.5885 40.8272 66.6385M40.8172 66.4485C40.9172 66.4685 41.1372 66.3685 41.0372 66.3985C40.9472 66.4285 40.3772 66.5485 40.2372 66.6285C40.1072 66.7185 40.2472 66.7885 40.2472 66.9285C40.2472 67.0685 40.2972 67.3785 40.2472 67.4785C40.1972 67.5785 39.9572 67.5385 39.9472 67.5285C39.9472 67.5185 40.1672 67.4685 40.2172 67.4185C40.2572 67.3685 40.2472 67.3285 40.2172 67.1985C40.1972 67.0785 40.1172 66.7285 40.0872 66.6885C40.0572 66.6485 39.8972 67.0185 40.0472 66.9785C40.1972 66.9485 40.9772 66.5485 41.0072 66.4685" stroke="#1E1E1E" stroke-linecap="round"/>
<path d="M37.1206 54.4973C36.8106 57.8573 36.7506 59.7073 37.1206 62.0873C37.1306 59.3473 37.0606 56.6673 37.1206 54.4973ZM37.1206 54.4973C36.8306 53.9173 37.4506 53.3473 38.3906 53.2273M37.1206 54.4973C37.9106 54.7873 38.3506 53.2873 38.3906 53.2273M38.3906 53.2273C38.2506 52.5773 38.7806 52.4273 39.6506 51.9673M38.3906 53.2273C38.5306 53.8573 38.6206 53.5773 39.6506 51.9673M39.6506 51.9673C39.8406 49.5773 39.5506 47.2573 39.6506 44.3673C39.6306 46.5873 39.5106 49.2273 39.6506 51.9673Z" stroke="#1E1E1E" stroke-linecap="round"/>
<path d="M54.6678 49.095C54.7678 49.925 54.5778 51.635 54.6678 53.145C54.6378 52.325 54.6478 51.445 54.6678 49.095ZM54.6678 49.095C54.6078 48.835 54.9578 49.245 54.1578 48.585M54.6678 49.095C55.2078 48.795 53.8378 48.545 54.1578 48.585M54.1578 48.585C53.2378 48.335 53.2478 48.785 53.6578 48.085M54.1578 48.585C53.1378 49.105 53.5478 48.935 53.6578 48.085M53.6578 48.085C53.6178 46.785 53.7078 45.865 53.6578 44.035C53.6778 46.085 53.6678 47.065 53.6578 48.085Z" stroke="#1E1E1E" stroke-linecap="round"/>
<path d="M53.8678 43.125C53.9678 43.175 53.9278 43.705 54.0578 43.785C54.1878 43.855 54.6378 43.445 54.6478 43.575C54.6578 43.715 54.2878 44.465 54.1178 44.605C53.9378 44.745 53.7478 44.415 53.5978 44.415C53.4378 44.405 53.2378 44.605 53.1678 44.575C53.1078 44.535 53.3078 44.335 53.2178 44.175C53.1278 44.025 52.7078 43.785 52.6478 43.665C52.5978 43.545 52.7378 43.575 52.8878 43.475C53.0378 43.385 53.4778 43.085 53.5678 43.095C53.6678 43.115 53.4978 43.505 53.4578 43.565M53.6378 42.905C53.9178 42.855 54.5178 43.305 54.5778 43.555C54.6378 43.805 53.9878 44.295 53.9878 44.385C53.9878 44.485 54.5578 44.065 54.5978 44.115C54.6478 44.155 54.5178 44.535 54.2778 44.675C54.0478 44.815 53.3378 45.085 53.1678 44.965C52.9978 44.845 53.3778 44.065 53.2578 43.935C53.1278 43.815 52.4578 44.365 52.4378 44.215C52.4178 44.065 52.9678 43.275 53.1178 43.045C53.2678 42.805 53.1878 42.685 53.3578 42.805C53.5178 42.915 54.1278 43.725 54.1078 43.755" fill="#1E1E1E"/>
<path d="M53.4378 43.275C53.5678 43.275 54.0378 43.275 54.2378 43.375C54.4278 43.475 54.5778 43.705 54.6078 43.875C54.6278 44.055 54.4978 44.255 54.3778 44.445C54.2578 44.625 54.0078 44.905 53.8878 44.995C53.7678 45.075 53.8078 45.105 53.6478 44.945C53.4978 44.795 53.0878 44.305 52.9678 44.065C52.8378 43.825 52.7978 43.645 52.8878 43.515C52.9778 43.385 53.3778 43.345 53.5078 43.295C53.6378 43.245 53.5978 43.205 53.6678 43.215C53.7378 43.215 53.9678 43.285 53.9278 43.335M53.0878 42.955C53.1178 42.965 53.4878 43.025 53.6578 43.225C53.8278 43.415 54.0578 43.865 54.0978 44.105C54.1478 44.345 53.9478 44.525 53.9178 44.685C53.8878 44.835 54.0078 44.995 53.9278 45.055C53.8378 45.115 53.6078 45.165 53.4178 45.045C53.2178 44.935 52.9178 44.515 52.7478 44.375C52.5778 44.235 52.2678 44.405 52.4078 44.215C52.5478 44.025 53.4378 43.425 53.5878 43.225C53.7378 43.025 53.2978 43.055 53.3078 43.025C53.3078 42.995 53.5578 43.025 53.6278 43.045" stroke="#1E1E1E" stroke-linecap="round"/>
<path d="M49.6061 75.5043C49.5261 74.3143 49.6561 73.6543 49.6061 73.0543C49.5861 73.8143 49.5961 74.5643 49.6061 75.5043ZM49.6061 75.5043C50.0661 77.5643 49.3761 77.6443 47.4961 77.6143M49.6061 75.5043C48.9461 76.8643 48.1661 78.2743 47.4961 77.6143M47.4961 77.6143C45.6861 77.9743 44.7961 78.7543 45.3861 79.7143M47.4961 77.6143C45.9861 78.1243 45.3161 78.7443 45.3861 79.7143M45.3861 79.7143C45.4261 80.3943 45.3361 80.8743 45.3861 82.1643C45.3961 80.9043 45.3961 80.3043 45.3861 79.7143Z" stroke="#1E1E1E" stroke-linecap="round"/>
<path d="M45.2761 81.7343C45.4361 81.6943 45.9761 81.1743 46.0861 81.2543C46.1961 81.3343 45.9861 82.0543 45.9261 82.2143C45.8661 82.3743 45.8061 82.1243 45.7261 82.2043C45.6461 82.2843 45.5061 82.6243 45.4461 82.6943C45.3861 82.7743 45.5361 82.7143 45.3761 82.6543C45.2261 82.5843 44.6661 82.4143 44.4961 82.3243C44.3261 82.2243 44.3161 82.2243 44.3661 82.0743C44.4161 81.9243 44.6561 81.4843 44.7861 81.4143C44.9261 81.3543 45.1261 81.6543 45.1761 81.6743C45.2261 81.6943 45.0461 81.5843 45.1061 81.5143M45.8661 81.4743C45.9561 81.6143 45.4061 82.0343 45.5061 82.0843C45.6061 82.1343 46.3061 81.7043 46.4561 81.7843C46.6061 81.8643 46.5861 82.3143 46.4061 82.5443C46.2361 82.7643 45.5661 83.1643 45.3861 83.1443C45.2061 83.1243 45.5261 82.4743 45.3361 82.4143C45.1461 82.3643 44.3461 82.9643 44.2161 82.8243C44.0961 82.6743 44.5161 81.8543 44.5761 81.5643C44.6461 81.2643 44.3961 80.9943 44.6161 81.0443C44.8361 81.0943 45.8161 81.8643 45.8761 81.8743C45.9461 81.8843 45.1261 81.1143 45.0161 81.0843" fill="#1E1E1E"/>
<path d="M45.3661 81.2843C45.5961 81.2443 45.8661 81.3443 46.0161 81.4643C46.1561 81.5743 46.1961 81.7443 46.2161 81.9543C46.2361 82.1643 46.1461 82.5443 46.1061 82.7343C46.0761 82.9243 46.1761 83.1143 46.0161 83.0943C45.8661 83.0743 45.4061 82.7443 45.1861 82.6043C44.9761 82.4643 44.7761 82.3743 44.7361 82.2643C44.6861 82.1543 44.9161 82.0843 44.9161 81.9643C44.9261 81.8443 44.6861 81.6243 44.7861 81.5443C44.8961 81.4543 45.4961 81.4343 45.5361 81.4443C45.5861 81.4643 45.1261 81.5743 45.0661 81.6243M44.8461 81.2243C45.0261 81.2943 45.3561 81.6243 45.4861 81.7943C45.6261 81.9743 45.5761 82.1043 45.6661 82.2643C45.7561 82.4343 46.0161 82.6443 46.0261 82.7843C46.0261 82.9343 45.8761 83.1143 45.6961 83.1143C45.5161 83.1243 45.1861 82.8543 44.9561 82.8043C44.7261 82.7643 44.2961 83.0243 44.3161 82.8643C44.3461 82.7143 45.0761 82.1043 45.1161 81.8543C45.1561 81.6143 44.5161 81.5143 44.5461 81.3943C44.5861 81.2843 45.1861 81.1843 45.3361 81.1543C45.4761 81.1343 45.3961 81.2243 45.4161 81.2243" stroke="#1E1E1E" stroke-linecap="round"/>
<path d="M57.0752 74.404C56.4852 74.384 55.6852 74.404 55.0052 74.404C55.7252 74.404 56.4852 74.434 57.0752 74.404ZM57.0752 74.404C58.9152 74.444 58.5652 75.054 59.1352 76.474M57.0752 74.404C57.7152 75.074 58.8752 74.924 59.1352 76.474M59.1352 76.474C59.0852 76.944 59.1152 77.404 59.1352 78.074M59.1352 76.474C59.1152 76.814 59.1152 77.184 59.1352 78.074M59.1352 78.074C58.5452 79.894 59.7352 80.594 61.2052 80.144M59.1352 78.074C59.0652 79.884 59.4052 79.994 61.2052 80.144M61.2052 80.144C61.5952 80.094 62.0252 80.144 63.2752 80.144C62.2352 80.164 61.7252 80.124 61.2052 80.144Z" stroke="#1E1E1E" stroke-linecap="round"/>
<path d="M63.4452 79.174C63.5552 79.134 63.4152 79.734 63.4352 79.814C63.4552 79.884 63.5352 79.574 63.5752 79.654C63.6052 79.724 63.6052 80.104 63.6352 80.244C63.6752 80.384 63.9052 80.454 63.7752 80.494C63.6452 80.544 63.0752 80.524 62.8652 80.524C62.6452 80.534 62.5252 80.634 62.4752 80.534C62.4152 80.424 62.5152 79.994 62.5352 79.894C62.5552 79.804 62.5352 79.994 62.6052 79.944C62.6752 79.894 62.7952 79.704 62.9352 79.584C63.0652 79.474 63.3152 79.294 63.4052 79.274M62.7552 79.924C62.8652 79.834 63.6652 79.254 63.9252 79.244C64.1852 79.234 64.3452 79.634 64.3052 79.864C64.2752 80.094 63.7752 80.564 63.7052 80.634C63.6252 80.704 64.0452 80.214 63.8652 80.294C63.6952 80.384 62.8652 81.164 62.6652 81.134C62.4652 81.114 62.7452 80.404 62.6752 80.154C62.6052 79.904 62.1752 79.624 62.2652 79.624C62.3552 79.624 63.1152 80.234 63.1952 80.164C63.2652 80.084 62.7652 79.224 62.7252 79.154C62.6852 79.084 62.8352 79.704 62.9552 79.724" fill="#1E1E1E"/>
<path d="M63.4452 79.394C63.5852 79.404 63.6852 79.464 63.7752 79.614C63.8552 79.754 63.8852 80.074 63.9452 80.254C64.0152 80.434 64.2352 80.664 64.1652 80.694C64.0852 80.734 63.7052 80.504 63.5152 80.464C63.3252 80.414 63.1252 80.444 63.0352 80.434C62.9552 80.414 63.0852 80.434 63.0052 80.354C62.9252 80.274 62.5552 80.064 62.5652 79.954C62.5652 79.844 62.9652 79.734 63.0352 79.684C63.0952 79.644 62.9452 79.684 62.9552 79.694C62.9652 79.704 63.0852 79.834 63.0952 79.764M62.8952 79.774C63.0252 79.834 63.0252 79.854 63.1852 79.934C63.3352 80.024 63.7152 80.174 63.8252 80.294C63.9352 80.424 63.9052 80.634 63.8152 80.684C63.7252 80.744 63.4752 80.574 63.2852 80.624C63.0952 80.674 62.6552 81.074 62.6552 81.004C62.6452 80.944 63.2952 80.434 63.2452 80.244C63.1952 80.044 62.4152 79.974 62.3552 79.844C62.2852 79.704 62.6952 79.524 62.8552 79.434C63.0152 79.344 63.2452 79.334 63.3252 79.294C63.4052 79.244 63.3652 79.054 63.3452 79.154" stroke="#1E1E1E" stroke-linecap="round"/>
<path d="M55.0053 77.3545C55.1253 74.6045 55.0053 73.0845 55.0053 71.7045C55.0953 73.6845 55.1053 75.4045 55.0053 77.3545ZM55.0053 77.3545C54.1453 78.4845 53.4553 79.9945 53.2353 79.1245M55.0053 77.3545C54.6053 78.2845 54.1653 79.7345 53.2353 79.1245M53.2353 79.1245C51.9153 79.8045 51.3653 80.2845 51.4653 80.9045M53.2353 79.1245C51.4253 78.9045 50.3853 80.2645 51.4653 80.9045M51.4653 80.9045C51.2953 83.1745 51.3053 85.4645 51.4653 86.5545C51.4553 83.9045 51.4653 82.4645 51.4653 80.9045Z" stroke="#1E1E1E" stroke-linecap="round"/>
<path d="M51.5353 85.3045C51.7253 85.3545 52.0753 84.9445 52.2753 85.1245C52.4753 85.3045 52.6253 86.0445 52.7453 86.4045C52.8653 86.7645 53.2253 87.0845 52.9753 87.3145C52.7353 87.5445 51.7453 87.6845 51.2753 87.7745C50.8053 87.8745 50.4053 88.0845 50.1553 87.9045C49.9053 87.7245 49.8453 86.9845 49.7653 86.7145C49.6853 86.4545 49.5753 86.5445 49.6653 86.3045C49.7553 86.0545 49.8853 85.5345 50.2953 85.2645C50.7153 84.9945 51.7953 84.7245 52.1353 84.6745C52.4653 84.6345 52.4353 84.8445 52.3253 84.9945M51.9653 84.4345C52.5053 84.2945 53.0153 84.8645 53.1653 85.2345C53.3053 85.6145 52.7853 86.4345 52.8053 86.6845C52.8353 86.9345 53.5453 86.4345 53.2853 86.7545C53.0253 87.0745 51.6953 88.4945 51.2753 88.6145C50.8453 88.7345 51.0353 87.8045 50.7453 87.4645C50.4453 87.1245 49.5453 86.6745 49.4953 86.5845C49.4553 86.4945 50.4253 87.2145 50.4753 86.9145C50.5153 86.6145 49.6553 85.0645 49.7653 84.7845C49.8753 84.5145 50.7953 85.3245 51.1553 85.2745C51.5153 85.2345 51.7553 84.5045 51.9353 84.5345" fill="#1E1E1E"/>
<path d="M51.4353 84.9245C51.7353 84.9545 52.0853 85.3245 52.4353 85.5845C52.7753 85.8445 53.4253 86.2745 53.5053 86.4745C53.5953 86.6745 53.1853 86.6145 52.9553 86.7845C52.7253 86.9545 52.3753 87.3245 52.1253 87.5145C51.8853 87.6945 51.8453 87.9445 51.4953 87.9245C51.1453 87.8945 50.2653 87.6045 50.0353 87.3645C49.8053 87.1245 50.1553 86.7545 50.1153 86.4845C50.0853 86.2145 49.6653 85.9245 49.8253 85.7345C49.9853 85.5445 50.8753 85.5445 51.0753 85.3445C51.2753 85.1345 51.0353 84.6145 51.0253 84.5045M50.6353 85.4745C51.0253 85.4345 51.8953 85.5645 52.2753 85.7445C52.6553 85.9245 52.9053 86.3345 52.9453 86.5545C52.9853 86.7745 52.7653 86.7745 52.5153 87.0645C52.2653 87.3645 51.5753 88.2445 51.4553 88.3445C51.3353 88.4445 52.0753 87.8845 51.7953 87.6745C51.5053 87.4645 50.0453 87.3545 49.7353 87.0845C49.4253 86.8145 49.7953 86.3645 49.9253 86.0445C50.0553 85.7145 50.2353 85.3945 50.5053 85.1245C50.7653 84.8545 51.3953 84.3745 51.5253 84.4445C51.6653 84.5045 51.3553 85.3445 51.3053 85.5345" stroke="#1E1E1E" stroke-linecap="round"/>
<path d="M62.2603 74.3181C62.2803 73.5981 62.2903 73.0581 62.2603 72.5481C62.2803 73.0981 62.2403 73.6481 62.2603 74.3181ZM62.2603 74.3181C61.6203 76.0781 62.6203 75.9381 64.0303 76.0881M62.2603 74.3181C62.0903 75.9081 62.9403 75.3481 64.0303 76.0881M64.0303 76.0881C64.3103 76.0581 64.6203 76.0681 64.8803 76.0881M64.0303 76.0881C64.2403 76.0981 64.4703 76.0981 64.8803 76.0881M64.8803 76.0881C65.9903 76.4681 66.2803 76.5581 66.6503 77.8581M64.8803 76.0881C65.3403 76.4581 67.4003 76.2481 66.6503 77.8581M66.6503 77.8581C66.6103 78.3081 66.6203 78.7481 66.6503 79.6381C66.6303 78.6681 66.6403 78.2881 66.6503 77.8581Z" stroke="#1E1E1E" stroke-linecap="round"/>
<path d="M66.2403 78.8481C66.3403 78.7681 66.4903 78.9981 66.6703 79.0581C66.8503 79.1281 67.2903 79.1681 67.3203 79.2481C67.3503 79.3281 66.9603 79.4281 66.8403 79.5581C66.7203 79.6981 66.6703 80.0081 66.6103 80.0581C66.5403 80.1181 66.5503 79.8881 66.4603 79.9081C66.3803 79.9281 66.1703 80.2281 66.0703 80.1981C65.9803 80.1581 65.8203 79.9081 65.8803 79.7181C65.9403 79.5381 66.2903 79.1981 66.4503 79.0981C66.6103 79.0081 66.8703 79.0681 66.8503 79.1281C66.8303 79.1781 66.3903 79.4681 66.3603 79.4381M67.1303 79.0881C67.1503 79.1981 66.7803 79.5481 66.8303 79.5681C66.8703 79.5881 67.4603 79.0781 67.4103 79.1981C67.3603 79.3181 66.6703 80.1981 66.5503 80.2881C66.4203 80.3781 66.7403 79.8281 66.6603 79.7081C66.5803 79.5881 66.0703 79.4681 66.0703 79.5581C66.0603 79.6581 66.6603 80.3381 66.6103 80.2681C66.5503 80.1981 65.8203 79.2781 65.7403 79.1481C65.6703 79.0081 65.9603 79.4981 66.1703 79.4481C66.3803 79.4081 66.8203 78.8781 67.0003 78.8681C67.1703 78.8581 67.2303 79.3381 67.2003 79.3981" fill="#1E1E1E"/>
<path d="M66.6603 79.3981C66.8003 79.4281 67.1803 79.5281 67.2603 79.4981C67.3303 79.4781 67.1503 79.2381 67.1203 79.2481C67.0803 79.2481 67.0403 79.4081 67.0403 79.5281C67.0403 79.6481 67.2203 79.8681 67.1203 79.9481C67.0103 80.0281 66.5503 80.0081 66.4403 80.0081C66.3203 79.9981 66.5303 79.9581 66.4303 79.9281C66.3403 79.8881 65.9103 79.8381 65.8603 79.7781C65.8103 79.7181 66.0503 79.6981 66.1403 79.5481C66.2203 79.3881 66.3103 78.9581 66.3603 78.8481C66.4103 78.7381 66.4003 78.8581 66.4203 78.8881M66.6203 79.5081C66.7803 79.5081 66.8903 79.5981 66.9303 79.5881C66.9603 79.5881 66.9003 79.4081 66.8303 79.4981C66.7703 79.5881 66.4903 80.0881 66.5603 80.1381C66.6303 80.1881 67.3203 79.8581 67.2503 79.7981C67.1903 79.7481 66.3403 79.8281 66.1703 79.7981C66.0103 79.7581 66.2503 79.6581 66.2703 79.5681C66.3003 79.4881 66.2803 79.4181 66.3303 79.3081C66.3703 79.1881 66.4703 78.8681 66.5303 78.8981C66.5903 78.9381 66.6703 79.4281 66.6903 79.5281C66.7003 79.6281 66.6603 79.5681 66.6203 79.4981" stroke="#1E1E1E" stroke-linecap="round"/>
<path d="M27.8409 64.6573C27.8609 63.5173 27.8809 62.7473 27.8409 62.0873C27.7909 63.1073 27.7909 64.1973 27.8409 64.6573ZM27.8409 64.6573C27.4909 66.1473 26.7609 67.7573 25.2709 67.2373M27.8409 64.6573C27.9809 65.2573 27.6809 66.5573 25.2709 67.2373M25.2709 67.2373C25.1609 67.2173 25.0709 67.2273 25.0109 67.2373M25.2709 67.2373C25.1809 67.2373 25.0909 67.2373 25.0109 67.2373M25.0109 67.2373C22.7509 67.0373 21.5109 68.5673 22.4409 69.8073M25.0109 67.2373C24.4209 66.5873 21.8109 67.4973 22.4409 69.8073M22.4409 69.8073C22.3809 70.6373 22.3409 71.3973 22.4409 72.3773C22.5009 71.7573 22.4109 70.7473 22.4409 69.8073Z" stroke="#1E1E1E" stroke-linecap="round"/>
<path d="M22.2509 71.1773C22.5809 71.2173 23.3709 71.2573 23.5009 71.3973C23.6209 71.5373 23.1409 71.7273 23.0209 71.9973C22.9009 72.2673 22.8609 72.8373 22.7709 73.0073C22.6809 73.1873 22.6709 72.9473 22.4809 73.0473C22.3009 73.1473 21.9009 73.6473 21.6709 73.6173C21.4409 73.5873 21.1009 73.1873 21.1109 72.8673C21.1309 72.5573 21.5809 71.9673 21.7909 71.7373C21.9909 71.5073 22.2709 71.4773 22.3409 71.4873C22.4209 71.5073 22.1709 71.8973 22.2209 71.8173C22.2809 71.7373 22.5409 71.0173 22.6709 71.0173M22.0309 71.7973C22.1909 71.6673 23.2609 70.7873 23.3609 70.9173C23.4609 71.0573 22.6509 72.3973 22.6209 72.6073C22.6009 72.8073 23.2409 72.1573 23.1909 72.1373C23.1509 72.1173 22.4209 72.1773 22.3709 72.4873C22.3109 72.7973 23.0909 74.0073 22.8709 74.0073C22.6409 74.0073 21.3109 72.6973 21.0309 72.4773C20.7409 72.2573 20.9609 72.8873 21.1509 72.6973C21.3409 72.4973 21.8409 71.4573 22.1509 71.3073C22.4609 71.1473 22.9609 71.7273 23.0109 71.7573C23.0509 71.7873 22.5809 71.6273 22.4409 71.4673" fill="#1E1E1E"/>
<path d="M22.9109 71.7773C23.1009 71.6273 22.9809 71.2173 23.0509 71.2073C23.1209 71.1973 23.2209 71.4673 23.3309 71.7073C23.4409 71.9573 23.8109 72.4273 23.7009 72.6673C23.5909 72.9073 22.8809 73.0473 22.6709 73.1573C22.4509 73.2773 22.6609 73.3373 22.4109 73.3473C22.1509 73.3473 21.3509 73.2973 21.1609 73.1773C20.9609 73.0573 21.1809 72.9473 21.2209 72.6173C21.2709 72.2773 21.2609 71.4473 21.4109 71.1773C21.5609 70.9073 21.9809 70.9973 22.1309 70.9873C22.2809 70.9773 22.2009 71.1273 22.3009 71.1373M22.5309 71.8673C22.6609 71.7773 22.7209 71.4673 22.7409 71.6173C22.7709 71.7573 22.4809 72.5773 22.6709 72.7273C22.8709 72.8873 23.9709 72.5373 23.8909 72.5673C23.8109 72.5973 22.5009 72.8873 22.2009 72.9273C21.8909 72.9773 22.1309 72.9173 22.0509 72.8273C21.9809 72.7373 21.8009 72.6173 21.7509 72.3973C21.7109 72.1873 21.7409 71.5873 21.7809 71.5273C21.8109 71.4773 21.8409 72.0273 21.9609 72.0873C22.0809 72.1473 22.4609 72.0473 22.5009 71.9073C22.5509 71.7673 22.1009 71.2173 22.2409 71.2373" stroke="#1E1E1E" stroke-linecap="round"/>
<path d="M29.1111 40.9969C28.0411 41.0869 27.2111 41.0869 26.4911 40.9969C27.2311 41.0569 28.0611 40.9869 29.1111 40.9969ZM29.1111 40.9969C30.6311 41.5269 31.8411 39.1569 31.7211 38.3769M29.1111 40.9969C31.5411 40.3269 32.5911 39.1769 31.7211 38.3769M31.7211 38.3769C31.7011 38.1069 31.7611 37.8469 31.7211 37.1969M31.7211 38.3769C31.7211 37.9669 31.7111 37.5069 31.7211 37.1969M31.7211 37.1969C30.7911 35.9369 33.5711 34.0269 34.3411 34.5869M31.7211 37.1969C31.0911 34.8569 32.7011 33.9969 34.3411 34.5869M34.3411 34.5869C35.0911 34.5769 36.1311 34.5669 36.9511 34.5869C36.1711 34.5469 35.3511 34.6369 34.3411 34.5869Z" stroke="#1E1E1E" stroke-linecap="round"/>
<path d="M61.7542 52.4732C61.7642 53.8032 61.9242 55.1132 61.7542 56.0132C61.7442 54.9532 61.7542 53.9732 61.7542 52.4732ZM61.7542 52.4732C61.8742 50.4832 61.8542 50.3632 60.2342 50.9532M61.7542 52.4732C62.6242 50.5132 60.1242 50.1932 60.2342 50.9532M60.2342 50.9532C60.2042 50.3932 58.1642 49.9232 58.7142 49.4332M60.2342 50.9532C59.3342 50.3632 59.0042 49.9632 58.7142 49.4332M58.7142 49.4332C58.8542 48.2432 58.8442 47.0132 58.7142 45.8932C58.7542 47.4232 58.6142 48.4132 58.7142 49.4332Z" stroke="#1E1E1E" stroke-linecap="round"/>
<path d="M34.72 44.7089C34.32 44.6589 33.79 44.6589 33.24 44.7089C33.81 44.7189 34.39 44.6889 34.72 44.7089ZM34.72 44.7089C36.1 44.3189 36.7 43.6689 36.19 43.2289M34.72 44.7089C34.95 44.2089 35.52 43.9289 36.19 43.2289M36.19 43.2289C36.22 42.8789 36.22 42.5389 36.19 41.7989M36.19 43.2289C36.17 42.7289 36.22 42.1989 36.19 41.7989M36.19 41.7989C35.82 40.4689 36.75 39.9789 37.67 40.3189M36.19 41.7989C36.38 40.4989 36.91 39.7789 37.67 40.3189M37.67 40.3189C38.14 40.2989 38.54 40.3689 39.15 40.3189C38.73 40.3089 38.22 40.2989 37.67 40.3189Z" stroke="#1E1E1E" stroke-linecap="round"/>
<path d="M21.8169 2.74524C35.4069 2.74524 49.0069 2.74524 58.5269 2.74524M21.8169 2.74524C32.0069 2.74524 42.1969 2.74524 58.5269 2.74524M21.8169 2.74524C19.4469 2.74524 18.2669 3.92524 18.2669 6.29524M58.5269 2.74524C60.8869 2.74524 62.0769 3.92524 62.0769 6.29524M62.0769 6.29524C62.0769 7.79524 62.0769 9.28524 62.0769 13.4052M62.0769 6.29524C62.0769 8.29524 62.0769 10.2852 62.0769 13.4052M62.0769 13.4052C62.0769 15.7752 60.8869 16.9552 58.5269 16.9552M58.5269 16.9552C47.9769 16.9552 37.4369 16.9552 21.8169 16.9552M58.5269 16.9552C49.8569 16.9552 41.1869 16.9552 21.8169 16.9552M21.8169 16.9552C19.4469 16.9552 18.2669 15.7752 18.2669 13.4052M18.2669 13.4052C18.2669 10.7052 18.2669 8.00524 18.2669 6.29524M18.2669 13.4052C18.2669 11.8052 18.2669 10.2052 18.2669 6.29524" stroke="#1E1E1E" stroke-width="2" stroke-linecap="round"/>
<path d="M34.5143 6.64533L36.1526 9.28897H36.2022L37.8405 6.64533H38.7466L36.7483 9.82266L38.7466 13H37.8405L36.2022 10.406H36.1526L34.5143 13H33.6082L35.6561 9.82266L33.6082 6.64533H34.5143ZM41.3375 13.0993C40.9072 13.0993 40.5297 12.9969 40.2049 12.7921C39.8822 12.5873 39.6299 12.3008 39.4478 11.9326C39.2679 11.5644 39.1779 11.1341 39.1779 10.6418C39.1779 10.1454 39.2679 9.712 39.4478 9.34172C39.6299 8.97144 39.8822 8.68391 40.2049 8.47912C40.5297 8.27433 40.9072 8.17194 41.3375 8.17194C41.7677 8.17194 42.1442 8.27433 42.4669 8.47912C42.7917 8.68391 43.044 8.97144 43.224 9.34172C43.406 9.712 43.4971 10.1454 43.4971 10.6418C43.4971 11.1341 43.406 11.5644 43.224 11.9326C43.044 12.3008 42.7917 12.5873 42.4669 12.7921C42.1442 12.9969 41.7677 13.0993 41.3375 13.0993ZM41.3375 12.4415C41.6643 12.4415 41.9332 12.3577 42.1442 12.1902C42.3552 12.0226 42.5114 11.8023 42.6127 11.5292C42.7141 11.2562 42.7648 10.9604 42.7648 10.6418C42.7648 10.3233 42.7141 10.0264 42.6127 9.7513C42.5114 9.47618 42.3552 9.25381 42.1442 9.08418C41.9332 8.91456 41.6643 8.82975 41.3375 8.82975C41.0106 8.82975 40.7417 8.91456 40.5307 9.08418C40.3197 9.25381 40.1636 9.47618 40.0622 9.7513C39.9608 10.0264 39.9102 10.3233 39.9102 10.6418C39.9102 10.9604 39.9608 11.2562 40.0622 11.5292C40.1636 11.8023 40.3197 12.0226 40.5307 12.1902C40.7417 12.3577 41.0106 12.4415 41.3375 12.4415ZM44.6149 13V8.234H45.3223V8.95386H45.372C45.4589 8.71804 45.6161 8.5267 45.8436 8.37983C46.0712 8.23296 46.3277 8.15953 46.6131 8.15953C46.6669 8.15953 46.7341 8.16056 46.8148 8.16263C46.8955 8.1647 46.9565 8.1678 46.9979 8.17194V8.91663C46.9731 8.91042 46.9162 8.90111 46.8272 8.8887C46.7403 8.87422 46.6483 8.86698 46.5511 8.86698C46.3194 8.86698 46.1125 8.91559 45.9305 9.01282C45.7505 9.10797 45.6078 9.24036 45.5023 9.40998C45.3989 9.57754 45.3471 9.76888 45.3471 9.98401V13H44.6149Z" fill="#1E1E1E"/>
<path d="M10.1771 90.7678C21.1671 90.7678 65.1471 90.7678 76.1371 90.7678" stroke="#1E1E1E" stroke-width="2" stroke-linecap="round"/>
<path d="M9.44581 106.588C9.43581 105.688 9.41581 102.078 9.40581 101.178" stroke="#1E1E1E" stroke-linecap="round"/>
<path d="M9.37383 101.381C9.62383 101.021 10.6338 99.6007 10.8838 99.2407" stroke="#1E1E1E" stroke-linecap="round"/>
<path d="M12.3766 106.652C12.3866 105.752 12.4066 102.142 12.4166 101.242" stroke="#1E1E1E" stroke-linecap="round"/>
<path d="M12.4486 101.445C12.1986 101.085 11.1886 99.6649 10.9386 99.3049" stroke="#1E1E1E" stroke-linecap="round"/>
<path d="M7.23357 107.138C8.41357 107.118 13.1136 107.038 14.2836 107.018" stroke="#1E1E1E" stroke-linecap="round"/>
<path d="M11.0921 107.229C11.1021 107.859 11.1421 110.399 11.1521 111.029" stroke="#1E1E1E" stroke-linecap="round"/>
<path d="M52.5033 102.31C52.8633 101.94 54.3033 100.44 54.6633 100.06" stroke="#1E1E1E" stroke-linecap="round"/>
<path d="M54.6588 100.02C55.0588 100.35 56.6388 101.67 57.0388 102" stroke="#1E1E1E" stroke-linecap="round"/>
<path d="M57.1287 102.265C56.4387 103.325 53.6887 107.575 52.9987 108.645" stroke="#1E1E1E" stroke-linecap="round"/>
<path d="M52.5707 102.31C52.2107 101.94 50.7707 100.44 50.4107 100.06" stroke="#1E1E1E" stroke-linecap="round"/>
<path d="M50.4152 100.02C50.0152 100.35 48.4352 101.67 48.0352 102" stroke="#1E1E1E" stroke-linecap="round"/>
<path d="M47.9453 102.265C48.6353 103.325 51.3853 107.575 52.0753 108.645" stroke="#1E1E1E" stroke-linecap="round"/>
<path d="M67.3088 41.3176C67.3088 41.3176 67.3421 41.3676 67.4088 41.4676C67.4821 41.5609 67.5354 41.6642 67.5688 41.7776C67.6088 41.8976 67.6254 42.0109 67.6188 42.1176C67.6188 42.2376 67.5954 42.3542 67.5488 42.4676C67.5088 42.5809 67.4521 42.6842 67.3788 42.7776C67.3054 42.8709 67.2188 42.9509 67.1188 43.0176C67.0121 43.0842 66.9021 43.1309 66.7888 43.1576C66.6754 43.1842 66.5621 43.1942 66.4488 43.1876C66.3288 43.1742 66.2121 43.1442 66.0988 43.0976C65.9921 43.0509 65.8921 42.9876 65.7988 42.9076C65.7121 42.8276 65.6388 42.7342 65.5788 42.6276C65.5188 42.5276 65.4788 42.4176 65.4588 42.2976C65.4388 42.1776 65.4354 42.0642 65.4488 41.9576C65.4621 41.8376 65.4954 41.7242 65.5488 41.6176C65.6021 41.5109 65.6721 41.4142 65.7588 41.3276C65.8454 41.2409 65.9421 41.1709 66.0488 41.1176C66.1554 41.0642 66.2688 41.0309 66.3888 41.0176C66.5021 41.0042 66.6154 41.0076 66.7288 41.0276C66.8488 41.0476 66.9588 41.0876 67.0588 41.1476C67.1654 41.2076 67.2588 41.2809 67.3388 41.3676C67.4188 41.4609 67.4821 41.5609 67.5288 41.6676C67.5754 41.7809 67.6054 41.8976 67.6188 42.0176C67.6254 42.1309 67.6154 42.2442 67.5888 42.3576C67.5554 42.4709 67.5088 42.5809 67.4488 42.6876C67.3821 42.7876 67.3021 42.8742 67.2088 42.9476C67.1154 43.0209 67.0121 43.0776 66.8988 43.1176C66.7854 43.1642 66.6688 43.1876 66.5488 43.1876C66.4354 43.1942 66.3221 43.1776 66.2088 43.1376C66.0954 43.1042 65.9921 43.0509 65.8988 42.9776C65.7988 42.9109 65.7488 42.8776 65.7488 42.8776C65.7488 42.8776 65.7221 42.8409 65.6688 42.7676C65.6088 42.7009 65.5621 42.6276 65.5288 42.5476C65.4888 42.4676 65.4621 42.3809 65.4488 42.2876C65.4354 42.2009 65.4288 42.1176 65.4288 42.0376C65.4354 41.9442 65.4521 41.8576 65.4788 41.7776C65.5054 41.6909 65.5421 41.6076 65.5888 41.5276C65.6354 41.4542 65.6921 41.3876 65.7588 41.3276C65.8188 41.2609 65.8854 41.2042 65.9588 41.1576C66.0388 41.1109 66.1221 41.0742 66.2088 41.0476C66.2888 41.0209 66.3754 41.0042 66.4688 40.9976C66.5488 40.9976 66.6321 41.0042 66.7188 41.0176C66.8121 41.0309 66.8988 41.0576 66.9788 41.0976C67.0588 41.1309 67.1321 41.1776 67.1988 41.2376C67.2721 41.2909 67.3088 41.3176 67.3088 41.3176Z" fill="#1E1E1E"/>
</svg>
