<svg width="84" height="126" viewBox="0 0 84 126" fill="none" xmlns="http://www.w3.org/2000/svg">
<path d="M21.6208 1.74857C34.2708 1.56857 51.4308 -0.601429 62.0208 1.74857C77.0408 4.75857 85.4908 9.32857 82.2208 21.9486C85.6008 41.5586 83.3508 53.8586 82.2208 103.499C80.6808 115.409 76.5308 126.419 62.0208 123.699C47.0808 126.029 38.7908 126.429 21.6208 123.699C8.06081 126.609 -1.10919 113.549 1.42081 103.499C3.12081 83.5186 -1.67919 64.6086 1.42081 21.9486C4.66081 6.04857 7.53081 -1.79143 21.6208 1.74857Z" fill="white"/>
<path d="M21.6208 1.7486C37.1408 2.2186 49.9408 0.7086 62.0208 1.7486M21.6208 1.7486C33.7408 1.8386 44.8008 2.0486 62.0208 1.7486M21.6208 1.7486C8.38081 0.0585995 2.88081 9.1586 1.42081 21.9486M21.6208 1.7486C7.97081 2.7686 0.820809 8.1086 1.42081 21.9486M62.0208 1.7486C74.7108 0.2486 80.7908 7.0486 82.2208 21.9486M62.0208 1.7486C75.3708 2.2886 83.0608 6.7586 82.2208 21.9486M82.2208 21.9486C80.3208 51.2886 83.2908 83.3686 82.2208 103.499M82.2208 21.9486C81.3108 52.3186 81.6508 83.7486 82.2208 103.499M82.2208 103.499C83.4908 117.479 76.4408 122.299 62.0208 123.699M82.2208 103.499C82.4408 117.849 76.6308 124.589 62.0208 123.699M62.0208 123.699C50.8508 122.179 38.4308 122.889 21.6208 123.699M62.0208 123.699C52.8708 122.919 44.4508 122.919 21.6208 123.699M21.6208 123.699C9.33081 124.899 -0.169191 118.289 1.42081 103.499M21.6208 123.699C8.54081 122.389 -0.0891914 117.919 1.42081 103.499M1.42081 103.499C1.76081 72.9286 2.66081 43.9186 1.42081 21.9486M1.42081 103.499C0.650809 80.4986 1.22081 56.9386 1.42081 21.9486" stroke="#1E1E1E" stroke-width="2" stroke-linecap="round"/>
<path d="M10.2361 89.9711C21.2261 89.9711 65.2061 89.9711 76.1961 89.9711" stroke="#1E1E1E" stroke-width="2" stroke-linecap="round"/>
<path d="M9.5049 105.568C9.4949 104.668 9.4749 101.058 9.4649 100.158" stroke="#1E1E1E" stroke-linecap="round"/>
<path d="M9.43286 100.361C9.68286 100.001 10.6929 98.581 10.9429 98.221" stroke="#1E1E1E" stroke-linecap="round"/>
<path d="M12.4356 105.632C12.4456 104.732 12.4656 101.122 12.4756 100.222" stroke="#1E1E1E" stroke-linecap="round"/>
<path d="M12.5076 100.425C12.2576 100.065 11.2476 98.6452 10.9976 98.2852" stroke="#1E1E1E" stroke-linecap="round"/>
<path d="M7.2926 106.119C8.4726 106.099 13.1726 106.019 14.3426 105.999" stroke="#1E1E1E" stroke-linecap="round"/>
<path d="M11.1511 106.209C11.1611 106.839 11.2011 109.379 11.2111 110.009" stroke="#1E1E1E" stroke-linecap="round"/>
<path d="M52.5624 101.29C52.9224 100.92 54.3624 99.4202 54.7224 99.0402" stroke="#1E1E1E" stroke-linecap="round"/>
<path d="M54.7178 98.9999C55.1178 99.3299 56.6978 100.65 57.0978 100.98" stroke="#1E1E1E" stroke-linecap="round"/>
<path d="M57.1877 101.245C56.4977 102.305 53.7477 106.555 53.0577 107.625" stroke="#1E1E1E" stroke-linecap="round"/>
<path d="M52.6297 101.29C52.2697 100.92 50.8297 99.4202 50.4697 99.0402" stroke="#1E1E1E" stroke-linecap="round"/>
<path d="M50.4742 99C50.0742 99.33 48.4942 100.65 48.0942 100.98" stroke="#1E1E1E" stroke-linecap="round"/>
<path d="M48.0043 101.245C48.6943 102.305 51.4443 106.555 52.1343 107.625" stroke="#1E1E1E" stroke-linecap="round"/>
<path d="M22.9483 1.63538C30.4083 1.63538 37.8783 1.63538 59.3383 1.63538C61.8183 1.63538 63.0683 2.87538 63.0683 5.36538C63.0683 6.86538 63.0683 8.36538 63.0683 12.8154C63.0683 15.2954 61.8183 16.5354 59.3383 16.5354C45.0483 16.5354 30.7683 16.5354 22.9483 16.5354C20.4583 16.5354 19.2183 15.2954 19.2183 12.8154C19.2183 10.9454 19.2183 9.07538 19.2183 5.36538C19.2183 2.87538 20.4583 1.63538 22.9483 1.63538Z" fill="white"/>
<path d="M22.9483 1.63538C30.3783 1.63538 37.7983 1.63538 59.3383 1.63538M22.9483 1.63538C31.3083 1.63538 39.6783 1.63538 59.3383 1.63538M22.9483 1.63538C20.4583 1.63538 19.2183 2.87538 19.2183 5.36538M59.3383 1.63538C61.8183 1.63538 63.0683 2.87538 63.0683 5.36538M63.0683 5.36538C63.0683 7.34538 63.0683 9.33538 63.0683 12.8154M63.0683 5.36538C63.0683 8.09538 63.0683 10.8254 63.0683 12.8154M63.0683 12.8154C63.0683 15.2954 61.8183 16.5354 59.3383 16.5354M59.3383 16.5354C51.6783 16.5354 44.0283 16.5354 22.9483 16.5354M59.3383 16.5354C51.4983 16.5354 43.6683 16.5354 22.9483 16.5354M22.9483 16.5354C20.4583 16.5354 19.2183 15.2954 19.2183 12.8154M19.2183 12.8154C19.2183 10.4054 19.2183 7.99538 19.2183 5.36538M19.2183 12.8154C19.2183 11.0354 19.2183 9.25538 19.2183 5.36538" stroke="#1E1E1E" stroke-width="2" stroke-linecap="round"/>
<path d="M29.3299 11.3942V5.03956H30.0622V7.38532H30.1243C30.1781 7.30258 30.2525 7.19708 30.3477 7.06883C30.4449 6.93851 30.5835 6.82267 30.7635 6.72131C30.9455 6.61788 31.1917 6.56617 31.5019 6.56617C31.9032 6.56617 32.257 6.66649 32.5631 6.86714C32.8693 7.0678 33.1082 7.35223 33.2799 7.72043C33.4516 8.08864 33.5374 8.52304 33.5374 9.02364C33.5374 9.52837 33.4516 9.96587 33.2799 10.3361C33.1082 10.7044 32.8703 10.9898 32.5662 11.1925C32.2621 11.3932 31.9115 11.4935 31.5144 11.4935C31.2082 11.4935 30.9631 11.4428 30.779 11.3415C30.5949 11.238 30.4532 11.1212 30.3539 10.9909C30.2546 10.8585 30.1781 10.7488 30.1243 10.6619H30.0374V11.3942H29.3299ZM30.0498 9.01122C30.0498 9.37116 30.1025 9.68868 30.208 9.9638C30.3135 10.2369 30.4677 10.451 30.6704 10.6061C30.8731 10.7592 31.1213 10.8357 31.4151 10.8357C31.7212 10.8357 31.9767 10.755 32.1815 10.5937C32.3883 10.4303 32.5435 10.211 32.6469 9.93588C32.7524 9.65869 32.8051 9.35047 32.8051 9.01122C32.8051 8.67612 32.7534 8.3741 32.65 8.10519C32.5486 7.8342 32.3945 7.62011 32.1877 7.46289C31.9829 7.30361 31.7253 7.22397 31.4151 7.22397C31.1172 7.22397 30.8669 7.29948 30.6642 7.45048C30.4614 7.59942 30.3084 7.80835 30.2049 8.07726C30.1015 8.34411 30.0498 8.65543 30.0498 9.01122ZM36.5937 11.4935C36.1635 11.4935 35.786 11.3911 35.4612 11.1863C35.1385 10.9815 34.8861 10.695 34.7041 10.3268C34.5241 9.95863 34.4342 9.52837 34.4342 9.03605C34.4342 8.53959 34.5241 8.10622 34.7041 7.73595C34.8861 7.36567 35.1385 7.07814 35.4612 6.87335C35.786 6.66856 36.1635 6.56617 36.5937 6.56617C37.024 6.56617 37.4005 6.66856 37.7232 6.87335C38.048 7.07814 38.3003 7.36567 38.4803 7.73595C38.6623 8.10622 38.7533 8.53959 38.7533 9.03605C38.7533 9.52837 38.6623 9.95863 38.4803 10.3268C38.3003 10.695 38.048 10.9815 37.7232 11.1863C37.4005 11.3911 37.024 11.4935 36.5937 11.4935ZM36.5937 10.8357C36.9206 10.8357 37.1895 10.7519 37.4005 10.5844C37.6115 10.4168 37.7677 10.1965 37.869 9.92347C37.9704 9.65042 38.0211 9.35461 38.0211 9.03605C38.0211 8.71749 37.9704 8.42065 37.869 8.14552C37.7677 7.8704 37.6115 7.64803 37.4005 7.47841C37.1895 7.30879 36.9206 7.22397 36.5937 7.22397C36.2669 7.22397 35.998 7.30879 35.787 7.47841C35.576 7.64803 35.4198 7.8704 35.3185 8.14552C35.2171 8.42065 35.1664 8.71749 35.1664 9.03605C35.1664 9.35461 35.2171 9.65042 35.3185 9.92347C35.4198 10.1965 35.576 10.4168 35.787 10.5844C35.998 10.7519 36.2669 10.8357 36.5937 10.8357ZM39.8711 11.3942V6.62822H40.5786V7.37291H40.6407C40.74 7.11848 40.9003 6.92093 41.1216 6.78026C41.3429 6.63753 41.6088 6.56617 41.919 6.56617C42.2335 6.56617 42.4951 6.63753 42.7041 6.78026C42.9151 6.92093 43.0795 7.11848 43.1974 7.37291H43.2471C43.3691 7.12675 43.5522 6.93127 43.7963 6.78647C44.0404 6.6396 44.3331 6.56617 44.6744 6.56617C45.1005 6.56617 45.4491 6.69959 45.7201 6.96644C45.991 7.23121 46.1265 7.64389 46.1265 8.20448V11.3942H45.3943V8.20448C45.3943 7.85282 45.2981 7.60149 45.1057 7.45048C44.9133 7.29948 44.6868 7.22397 44.4262 7.22397C44.091 7.22397 43.8314 7.32533 43.6473 7.52805C43.4632 7.72871 43.3712 7.98314 43.3712 8.29136V11.3942H42.6265V8.13001C42.6265 7.85903 42.5386 7.64079 42.3628 7.47531C42.1869 7.30775 41.9604 7.22397 41.6832 7.22397C41.4929 7.22397 41.315 7.27465 41.1495 7.37601C40.9861 7.47737 40.8537 7.61804 40.7524 7.798C40.6531 7.9759 40.6034 8.18172 40.6034 8.41547V11.3942H39.8711ZM47.5647 11.3942V5.03956H48.297V7.38532H48.359C48.4128 7.30258 48.4873 7.19708 48.5824 7.06883C48.6797 6.93851 48.8183 6.82267 48.9982 6.72131C49.1803 6.61788 49.4264 6.56617 49.7367 6.56617C50.138 6.56617 50.4917 6.66649 50.7979 6.86714C51.104 7.0678 51.343 7.35223 51.5147 7.72043C51.6863 8.08864 51.7722 8.52304 51.7722 9.02364C51.7722 9.52837 51.6863 9.96587 51.5147 10.3361C51.343 10.7044 51.1051 10.9898 50.801 11.1925C50.4969 11.3932 50.1463 11.4935 49.7491 11.4935C49.443 11.4935 49.1978 11.4428 49.0137 11.3415C48.8296 11.238 48.6879 11.1212 48.5887 10.9909C48.4894 10.8585 48.4128 10.7488 48.359 10.6619H48.2722V11.3942H47.5647ZM48.2846 9.01122C48.2846 9.37116 48.3373 9.68868 48.4428 9.9638C48.5483 10.2369 48.7024 10.451 48.9051 10.6061C49.1079 10.7592 49.3561 10.8357 49.6498 10.8357C49.956 10.8357 50.2115 10.755 50.4162 10.5937C50.6231 10.4303 50.7782 10.211 50.8817 9.93588C50.9872 9.65869 51.0399 9.35047 51.0399 9.01122C51.0399 8.67612 50.9882 8.3741 50.8848 8.10519C50.7834 7.8342 50.6293 7.62011 50.4224 7.46289C50.2177 7.30361 49.9601 7.22397 49.6498 7.22397C49.352 7.22397 49.1017 7.29948 48.8989 7.45048C48.6962 7.59942 48.5431 7.80835 48.4397 8.07726C48.3363 8.34411 48.2846 8.65543 48.2846 9.01122ZM54.8906 11.4935C54.4313 11.4935 54.0352 11.3922 53.7022 11.1894C53.3712 10.9846 53.1157 10.6992 52.9358 10.333C52.7579 9.96484 52.6689 9.53664 52.6689 9.04846C52.6689 8.56027 52.7579 8.13001 52.9358 7.75767C53.1157 7.38325 53.366 7.09158 53.6867 6.88266C54.0094 6.67166 54.3858 6.56617 54.8161 6.56617C55.0643 6.56617 55.3095 6.60754 55.5515 6.69028C55.7935 6.77302 56.0138 6.90748 56.2124 7.09365C56.411 7.27776 56.5692 7.52185 56.6871 7.82593C56.805 8.13001 56.864 8.50442 56.864 8.94917V9.25945H53.1902V8.62647H56.1193C56.1193 8.35755 56.0655 8.1176 55.958 7.9066C55.8525 7.69561 55.7015 7.52909 55.5049 7.40704C55.3105 7.285 55.0809 7.22397 54.8161 7.22397C54.5244 7.22397 54.2721 7.29637 54.059 7.44117C53.848 7.58391 53.6856 7.77008 53.5719 7.99969C53.4581 8.2293 53.4012 8.47546 53.4012 8.73817V9.16016C53.4012 9.52009 53.4633 9.82521 53.5874 10.0755C53.7136 10.3237 53.8883 10.513 54.1118 10.6433C54.3352 10.7716 54.5948 10.8357 54.8906 10.8357C55.0829 10.8357 55.2567 10.8088 55.4119 10.755C55.5691 10.6992 55.7046 10.6164 55.8183 10.5068C55.9321 10.3951 56.02 10.2565 56.0821 10.091L56.7895 10.2896C56.7151 10.5296 56.5899 10.7406 56.4141 10.9226C56.2383 11.1026 56.021 11.2432 55.7625 11.3446C55.5039 11.4439 55.2133 11.4935 54.8906 11.4935Z" fill="#1E1E1E"/>
<path d="M26.0393 33.6629C33.7593 37.4329 45.7893 33.5729 58.4493 33.6629C62.2693 34.2129 66.4293 40.2129 69.4793 44.7029C66.3093 50.5629 72.6693 58.7829 69.4793 66.7729C72.8193 73.4529 64.7093 77.1629 58.4493 77.8129C52.1193 76.9629 47.2593 79.8129 26.0393 77.8129C16.8993 81.3729 12.9193 73.6829 14.9993 66.7729C17.9893 62.2629 17.2493 57.6129 14.9993 44.7029C14.5893 35.0529 20.3793 31.0329 26.0393 33.6629Z" fill="white"/>
<path d="M26.0392 33.6629C36.4192 33.7029 50.3692 34.5029 58.4492 33.6629M26.0392 33.6629C36.9592 34.0529 47.2592 33.6529 58.4492 33.6629M26.0392 33.6629C20.2992 32.2529 16.8892 37.2929 14.9992 44.7029M26.0392 33.6629C18.3992 32.3429 12.8192 35.4529 14.9992 44.7029M58.4492 33.6629C65.0292 32.0329 68.1592 35.6129 69.4792 44.7029M58.4492 33.6629C65.0392 32.6629 69.6392 36.3429 69.4792 44.7029M69.4792 44.7029C70.9492 52.9629 68.4792 59.2229 69.4792 66.7729M69.4792 44.7029C70.4992 52.4629 68.7792 60.4529 69.4792 66.7729M69.4792 66.7729C67.7392 73.9529 65.4992 77.783 58.4492 77.813M69.4792 66.7729C67.4192 75.8029 65.0692 79.863 58.4492 77.813M58.4492 77.813C44.6592 77.333 33.9392 77.693 26.0392 77.813M58.4492 77.813C47.4892 77.413 36.1092 78.033 26.0392 77.813M26.0392 77.813C17.4592 78.673 16.6692 75.9529 14.9992 66.7729M26.0392 77.813C19.2192 75.723 15.6492 74.8529 14.9992 66.7729M14.9992 66.7729C13.6192 57.4729 13.9792 50.4729 14.9992 44.7029M14.9992 66.7729C14.0392 57.9429 15.7792 50.9629 14.9992 44.7029" stroke="#1E1E1E" stroke-linecap="round"/>
<path d="M30.1328 37.6693C31.1228 37.6393 32.4128 38.0393 33.0628 38.5993C33.7128 39.1693 33.9728 40.1293 34.0328 41.0693C34.1028 42.0193 33.8828 43.4293 33.4528 44.2693C33.0228 45.1093 32.3428 45.8793 31.4628 46.0993C30.5728 46.3193 29.0928 45.9293 28.1428 45.5993C27.1928 45.2793 26.1528 44.8893 25.7628 44.1493C25.3728 43.4193 25.5628 42.1193 25.7928 41.1893C26.0228 40.2593 26.4428 39.2693 27.1428 38.5893C27.8328 37.8993 29.4628 37.2693 29.9528 37.0893C30.4428 36.8993 30.0628 37.3093 30.0628 37.4593M29.8528 37.0793C30.8028 36.9193 31.5328 37.1393 32.2528 37.6593C32.9728 38.1793 33.8428 39.1793 34.1828 40.1793C34.5328 41.1693 34.6328 42.7493 34.2928 43.6393C33.9528 44.5293 33.1228 45.1193 32.1328 45.5093C31.1328 45.9093 29.2028 46.1593 28.3028 45.9893C27.3928 45.8193 27.0728 45.2693 26.6728 44.4993C26.2828 43.7393 25.9328 42.3793 25.9028 41.3993C25.8828 40.4293 26.0228 39.2493 26.5328 38.6393C27.0428 38.0393 28.4628 37.9193 28.9728 37.7393C29.4828 37.5693 29.5228 37.5093 29.5728 37.5893" fill="white"/>
<path d="M30.0528 37.3792C30.9428 37.3692 32.3528 37.7692 33.0428 38.4192C33.7428 39.0692 34.1728 40.3292 34.2028 41.2792C34.2328 42.2292 33.7928 43.3292 33.2228 44.1192C32.6428 44.8992 31.6228 45.6792 30.7328 45.9692C29.8428 46.2592 28.6928 46.1992 27.8628 45.8492C27.0228 45.5092 26.0528 44.7992 25.7128 43.8992C25.3628 42.9892 25.4728 41.3592 25.7828 40.4192C26.0828 39.4792 26.8028 38.7992 27.5228 38.2592C28.2528 37.7192 29.6328 37.2892 30.1328 37.1992C30.6428 37.0992 30.5228 37.5392 30.5528 37.6992M29.5828 37.3492C30.5428 37.2692 32.0428 37.8192 32.7528 38.5192C33.4528 39.2292 33.6728 40.5592 33.7928 41.5692C33.9028 42.5792 33.8128 43.8392 33.4428 44.6092C33.0728 45.3792 32.4428 46.0492 31.5828 46.1892C30.7128 46.3392 29.2028 45.8892 28.2428 45.4892C27.2828 45.0892 26.2728 44.5292 25.8128 43.7992C25.3528 43.0692 25.2128 41.9592 25.4928 41.1092C25.7728 40.2592 26.7228 39.3592 27.4928 38.6892C28.2628 38.0192 29.7028 37.2792 30.1228 37.0692C30.5428 36.8692 30.0828 37.3092 30.0128 37.4692" stroke="#1E1E1E" stroke-linecap="round"/>
<path d="M41.9982 37.1541C42.8482 37.0741 43.7182 37.4641 44.3482 38.1141C44.9782 38.7641 45.5982 40.0641 45.7982 41.0441C45.9882 42.0141 46.0182 43.2441 45.5282 43.9741C45.0282 44.7041 43.8082 45.1141 42.8282 45.4241C41.8482 45.7441 40.4882 46.1341 39.6682 45.8641C38.8382 45.6041 38.2882 44.6941 37.8782 43.8541C37.4682 43.0141 37.0982 41.8341 37.2282 40.8041C37.3582 39.7741 37.9182 38.3041 38.6382 37.6741C39.3582 37.0441 41.0382 37.1141 41.5382 37.0541C42.0482 36.9941 41.6682 37.2941 41.6682 37.3241M40.7782 36.6441C41.5982 36.4341 43.0182 36.7241 43.9082 37.2941C44.7982 37.8641 45.7882 39.1641 46.1382 40.0841C46.4882 41.0041 46.5082 41.9541 46.0182 42.8141C45.5382 43.6841 44.0382 44.7441 43.2182 45.2641C42.3982 45.7841 41.8782 46.1241 41.1082 45.9441C40.3382 45.7641 39.2582 44.9641 38.5782 44.1941C37.8882 43.4241 37.1082 42.2141 36.9782 41.3341C36.8482 40.4641 37.1082 39.6141 37.7882 38.9341C38.4582 38.2441 40.5382 37.4441 41.0282 37.2241C41.5182 37.0041 40.7082 37.5841 40.7382 37.6041" fill="white"/>
<path d="M41.5382 36.8341C42.4582 36.7441 43.5882 37.3341 44.2682 37.9341C44.9482 38.5341 45.4782 39.4941 45.6182 40.4341C45.7682 41.3641 45.5782 42.6541 45.1382 43.5341C44.7082 44.4041 43.8682 45.2641 43.0082 45.6541C42.1482 46.0541 40.8182 46.2441 39.9782 45.8941C39.1382 45.5341 38.3982 44.3641 37.9682 43.5341C37.5382 42.7041 37.3182 41.8141 37.3982 40.8841C37.4782 39.9541 37.7282 38.5641 38.4482 37.9641C39.1682 37.3541 41.1682 37.3441 41.7182 37.2641C42.2682 37.1841 41.7482 37.4741 41.7382 37.4741M41.9682 37.1041C42.8682 37.2141 43.6682 38.0541 44.3082 38.8241C44.9482 39.5841 45.6082 40.7641 45.8082 41.6741C45.9982 42.5941 46.0082 43.6841 45.4782 44.3041C44.9482 44.9241 43.6482 45.2041 42.6482 45.3841C41.6482 45.5641 40.3182 45.7041 39.4582 45.3841C38.5882 45.0741 37.7582 44.2941 37.4582 43.5041C37.1582 42.7041 37.3682 41.6241 37.6582 40.6241C37.9482 39.6241 38.4782 38.0941 39.2082 37.5041C39.9382 36.9141 41.6182 37.1141 42.0382 37.1041C42.4682 37.0841 41.6682 37.2641 41.7282 37.4141" stroke="#1E1E1E" stroke-linecap="round"/>
<path d="M54.4671 36.4756C55.2971 36.5456 56.4871 37.3856 57.1971 38.1256C57.9071 38.8656 58.6771 40.0256 58.7371 40.9056C58.7871 41.7856 58.1671 42.6256 57.5171 43.4156C56.8571 44.1956 55.6871 45.2956 54.8071 45.6056C53.9371 45.9056 53.0571 45.6656 52.2471 45.2256C51.4371 44.7756 50.3971 43.9156 49.9571 42.9356C49.5171 41.9556 49.3671 40.2756 49.6171 39.3256C49.8671 38.3756 50.6071 37.6356 51.4371 37.2156C52.2571 36.7856 54.0471 36.9056 54.5771 36.7756C55.1171 36.6456 54.6871 36.3356 54.6571 36.4356M53.6371 36.1756C54.6071 36.1056 56.0671 36.7856 56.9071 37.3256C57.7371 37.8756 58.5171 38.5756 58.6471 39.4656C58.7671 40.3556 58.0071 41.7156 57.6371 42.6556C57.2671 43.5856 57.1271 44.6256 56.4371 45.0556C55.7471 45.4856 54.5071 45.4556 53.4871 45.2056C52.4771 44.9556 51.0671 44.2256 50.3471 43.5356C49.6371 42.8456 49.1071 41.9756 49.2171 41.0556C49.3271 40.1356 50.3171 38.7156 51.0171 38.0356C51.7171 37.3556 52.9471 37.2456 53.4171 36.9756C53.8871 36.7156 53.7071 36.4856 53.8271 36.4456" fill="white"/>
<path d="M53.9571 36.4456C54.7971 36.3856 55.8971 36.7556 56.5971 37.3556C57.2871 37.9656 57.9271 39.1056 58.1171 40.0756C58.3171 41.0456 58.2171 42.3156 57.7671 43.1956C57.3271 44.0656 56.3071 45.0556 55.4771 45.3356C54.6471 45.6256 53.6271 45.2456 52.7971 44.9056C51.9571 44.5656 51.0271 44.1156 50.4771 43.3056C49.9271 42.4956 49.3671 40.9756 49.5071 40.0556C49.6471 39.1456 50.5471 38.3556 51.3171 37.8256C52.0871 37.2956 53.6371 37.1156 54.1271 36.8756C54.6071 36.6356 54.1871 36.4156 54.2171 36.3856M53.5471 36.9356C54.4271 36.9456 55.8271 37.4456 56.6971 38.0156C57.5671 38.5756 58.5571 39.5456 58.7671 40.3356C58.9871 41.1156 58.5271 41.9456 57.9771 42.7256C57.4371 43.5156 56.4071 44.6056 55.5071 45.0556C54.6071 45.4956 53.3871 45.6356 52.5671 45.4056C51.7571 45.1656 51.0771 44.5456 50.6171 43.6356C50.1471 42.7356 49.7071 40.9756 49.7971 39.9756C49.8871 38.9756 50.5171 38.1756 51.1571 37.6456C51.8071 37.1156 53.1471 36.8756 53.6871 36.7956C54.2271 36.7056 54.3471 37.1556 54.4171 37.1156" stroke="#1E1E1E" stroke-linecap="round"/>
<path d="M30.7781 48.371C31.7481 48.381 33.2581 48.911 33.9781 49.471C34.6981 50.041 35.0481 50.791 35.1081 51.771C35.1781 52.741 34.7981 54.401 34.3481 55.311C33.8981 56.221 33.2781 56.921 32.4081 57.211C31.5281 57.511 30.0781 57.531 29.1181 57.071C28.1481 56.611 27.1281 55.351 26.6381 54.461C26.1481 53.571 25.9681 52.591 26.1681 51.741C26.3681 50.891 27.0681 49.981 27.8481 49.351C28.6381 48.731 30.3481 48.091 30.8581 47.981C31.3681 47.861 30.8981 48.561 30.8881 48.681M30.4481 48.351C31.3781 48.171 32.6981 48.151 33.3681 48.611C34.0381 49.071 34.1381 50.151 34.4681 51.111C34.7881 52.071 35.4981 53.461 35.3181 54.351C35.1381 55.241 34.3281 56.021 33.4081 56.451C32.4881 56.891 30.8881 57.061 29.8081 56.951C28.7281 56.851 27.4681 56.531 26.9181 55.831C26.3781 55.131 26.4481 53.671 26.5081 52.731C26.5681 51.791 26.6381 50.961 27.2681 50.191C27.8981 49.411 29.7581 48.421 30.3081 48.081C30.8481 47.741 30.5981 48.051 30.5581 48.131" fill="white"/>
<path d="M29.9481 48.081C30.7981 47.921 32.0681 48.311 32.8881 48.871C33.7081 49.421 34.5481 50.461 34.8581 51.411C35.1581 52.371 35.0181 53.781 34.7081 54.611C34.3881 55.441 33.7681 55.961 32.9881 56.371C32.2081 56.781 30.9981 57.271 30.0081 57.061C29.0181 56.861 27.6381 55.881 27.0581 55.141C26.4681 54.411 26.4081 53.511 26.4881 52.651C26.5781 51.791 26.9181 50.761 27.5681 49.981C28.2181 49.211 29.8781 48.341 30.3881 48.021C30.8981 47.701 30.6481 47.971 30.6381 48.081M30.5981 48.721C31.6381 48.621 33.2081 49.001 33.9681 49.471C34.7381 49.931 35.0981 50.601 35.1881 51.491C35.2681 52.381 34.9681 53.881 34.4781 54.811C33.9881 55.741 33.0681 56.671 32.2581 57.071C31.4481 57.471 30.4881 57.641 29.6181 57.231C28.7481 56.811 27.5881 55.481 27.0481 54.601C26.5181 53.711 26.3181 52.771 26.4081 51.931C26.4981 51.081 26.8181 50.061 27.6181 49.531C28.4081 48.991 30.6381 49.001 31.1781 48.721C31.7181 48.451 30.9281 47.881 30.8781 47.901" stroke="#1E1E1E" stroke-linecap="round"/>
<path d="M41.2849 48.351C42.1949 48.171 43.2049 48.221 43.9049 48.811C44.5949 49.401 45.1849 50.871 45.4649 51.891C45.7449 52.921 45.9749 54.091 45.5849 54.941C45.1949 55.791 44.0949 56.721 43.1449 57.001C42.1949 57.281 40.8549 56.941 39.9049 56.631C38.9449 56.321 37.9349 55.841 37.4149 55.131C36.8849 54.421 36.6449 53.371 36.7549 52.381C36.8649 51.391 37.3949 49.851 38.0649 49.211C38.7349 48.581 40.3049 48.731 40.7849 48.581C41.2649 48.431 40.9449 48.271 40.9449 48.301M41.0649 48.031C41.8049 47.831 42.3949 48.261 43.2049 48.821C44.0249 49.391 45.5049 50.511 45.9549 51.411C46.4149 52.321 46.3649 53.401 45.9149 54.251C45.4749 55.101 44.2649 55.991 43.2849 56.511C42.2949 57.021 40.8849 57.521 40.0049 57.351C39.1349 57.191 38.5649 56.251 38.0349 55.511C37.4949 54.771 36.7349 53.931 36.7849 52.921C36.8249 51.921 37.5649 50.311 38.3049 49.491C39.0449 48.681 40.8249 48.251 41.2149 48.021C41.6149 47.801 40.6949 48.041 40.6749 48.151" fill="white"/>
<path d="M40.7748 48.171C41.6948 48.091 43.0348 48.541 43.8248 49.151C44.6148 49.761 45.2148 50.971 45.5048 51.841C45.7848 52.711 45.8748 53.561 45.5148 54.391C45.1548 55.211 44.2848 56.411 43.3548 56.801C42.4148 57.191 40.8448 56.971 39.9148 56.721C38.9948 56.481 38.2948 56.031 37.8048 55.331C37.3248 54.631 36.9048 53.531 36.9948 52.511C37.0848 51.491 37.6348 49.981 38.3648 49.221C39.0948 48.471 40.8848 48.141 41.3548 47.991C41.8148 47.831 41.1948 48.241 41.1648 48.311M42.2448 48.471C43.1848 48.381 44.0748 48.601 44.6348 49.251C45.2048 49.901 45.6048 51.321 45.6348 52.371C45.6748 53.431 45.3348 54.741 44.8448 55.571C44.3548 56.411 43.5948 57.251 42.6948 57.371C41.7948 57.501 40.3548 56.811 39.4448 56.321C38.5448 55.831 37.7148 55.201 37.2748 54.421C36.8348 53.631 36.4648 52.451 36.8148 51.621C37.1548 50.791 38.4848 50.071 39.3548 49.441C40.2148 48.811 41.5548 48.001 41.9948 47.851C42.4448 47.701 41.9748 48.341 42.0148 48.551" stroke="#1E1E1E" stroke-linecap="round"/>
<path d="M53.8303 47.5642C54.6603 47.5842 55.7303 48.5742 56.4803 49.3142C57.2203 50.0642 58.1503 51.1042 58.3003 52.0442C58.4503 52.9842 57.9603 54.2642 57.3603 54.9542C56.7703 55.6442 55.6803 55.9642 54.7303 56.1942C53.7803 56.4242 52.5303 56.6142 51.6703 56.3242C50.8003 56.0342 49.9503 55.3442 49.5303 54.4542C49.1103 53.5642 48.9403 51.9042 49.1303 51.0042C49.3203 50.1042 49.9003 49.5942 50.6703 49.0642C51.4303 48.5342 53.2103 47.9942 53.7103 47.8142C54.2103 47.6442 53.6803 47.8842 53.6603 48.0142M53.2003 47.7442C54.1103 47.7642 56.0403 48.3942 56.9203 49.0142C57.8003 49.6242 58.4103 50.5442 58.4803 51.4442C58.5403 52.3542 57.9503 53.5442 57.3203 54.4342C56.6903 55.3242 55.5503 56.4342 54.7103 56.7842C53.8703 57.1342 53.1203 56.8442 52.2803 56.5242C51.4403 56.2042 50.1203 55.7342 49.6703 54.8542C49.2103 53.9742 49.2803 52.2942 49.5503 51.2442C49.8303 50.2042 50.6503 49.2042 51.3203 48.5942C52.0003 47.9842 53.1703 47.7242 53.6203 47.6142C54.0603 47.5042 53.9203 47.7942 54.0003 47.9242" fill="white"/>
<path d="M53.0203 47.9142C53.9403 47.8142 55.1203 48.3242 55.9603 48.8042C56.8103 49.2842 57.7703 49.8942 58.1003 50.7842C58.4303 51.6642 58.3703 53.2442 57.9303 54.1242C57.4803 54.9942 56.2903 55.5942 55.4303 56.0342C54.5603 56.4742 53.6303 56.9042 52.7503 56.7642C51.8603 56.6342 50.7003 56.0442 50.1303 55.2042C49.5603 54.3642 49.2203 52.7742 49.3103 51.7242C49.4003 50.6842 50.0303 49.5942 50.6803 48.9442C51.3303 48.2942 52.7603 48.0442 53.1903 47.8342C53.6303 47.6242 53.2303 47.6042 53.2803 47.6742M54.3703 47.4942C55.1803 47.5242 56.2303 48.4542 56.8403 49.2742C57.4503 50.0942 57.9303 51.3742 58.0403 52.3942C58.1403 53.4142 58.0303 54.7642 57.4603 55.4142C56.9003 56.0642 55.6203 56.1842 54.6403 56.3042C53.6503 56.4342 52.4403 56.5242 51.5403 56.1642C50.6403 55.8042 49.5103 54.9242 49.2303 54.1242C48.9603 53.3242 49.5103 52.3442 49.8803 51.3342C50.2503 50.3242 50.7003 48.6042 51.4603 48.0642C52.2203 47.5142 53.9103 48.0242 54.4503 48.0642C54.9903 48.1142 54.7303 48.3642 54.7103 48.3542" stroke="#1E1E1E" stroke-linecap="round"/>
<path d="M31.0632 60.3481C32.0132 60.4281 33.5632 60.8881 34.3032 61.5281C35.0332 62.1581 35.4032 63.3181 35.4532 64.1481C35.5032 64.9881 35.1432 65.7781 34.5932 66.5281C34.0432 67.2781 33.0632 68.2881 32.1632 68.6581C31.2732 69.0281 30.0932 69.1281 29.2232 68.7281C28.3532 68.3281 27.4232 67.0681 26.9632 66.2581C26.5032 65.4481 26.2432 64.7481 26.4432 63.8681C26.6332 62.9781 27.3632 61.5681 28.1332 60.9481C28.9032 60.3181 30.5232 60.2081 31.0332 60.1281C31.5432 60.0481 31.1432 60.3381 31.1932 60.4381M31.0732 60.1781C32.1232 60.0481 33.3732 60.2481 34.0532 60.7581C34.7432 61.2681 35.0932 62.2481 35.1932 63.2281C35.2932 64.2181 35.0132 65.7781 34.6632 66.6681C34.3232 67.5581 33.9432 68.1581 33.1332 68.5781C32.3232 68.9881 30.7132 69.4381 29.8132 69.1481C28.9132 68.8481 28.1632 67.6881 27.7232 66.8081C27.2832 65.9181 27.1332 64.7881 27.1632 63.8481C27.1832 62.8981 27.2332 61.7681 27.8632 61.1381C28.5032 60.5081 30.4432 60.1981 30.9932 60.0581C31.5332 59.9281 31.1132 60.1981 31.1232 60.3181" fill="white"/>
<path d="M30.6932 60.268C31.6432 60.118 33.1132 60.138 33.9332 60.688C34.7532 61.228 35.4532 62.608 35.6032 63.538C35.7532 64.468 35.2732 65.408 34.8332 66.268C34.3932 67.138 33.7932 68.278 32.9532 68.738C32.1232 69.198 30.7532 69.378 29.8332 69.028C28.9232 68.678 27.9332 67.528 27.4432 66.638C26.9632 65.748 26.8132 64.578 26.9132 63.678C27.0032 62.768 27.3632 61.868 28.0232 61.218C28.6832 60.568 30.3532 59.968 30.8832 59.778C31.4132 59.578 31.1332 59.888 31.1832 60.048M31.1932 59.998C32.0832 60.098 33.2932 60.768 34.0632 61.488C34.8332 62.218 35.6832 63.488 35.8232 64.338C35.9532 65.188 35.4532 65.868 34.8832 66.598C34.3032 67.328 33.3232 68.358 32.3532 68.718C31.3732 69.078 29.8332 69.068 29.0232 68.778C28.2232 68.478 27.9032 67.898 27.5432 66.938C27.1932 65.978 26.7132 63.998 26.8832 63.028C27.0532 62.058 27.7632 61.538 28.5732 61.108C29.3732 60.668 31.2632 60.638 31.7332 60.428C32.2132 60.218 31.5332 59.878 31.4232 59.858" stroke="#1E1E1E" stroke-linecap="round"/>
<path d="M41.8501 59.6245C42.7601 59.4245 43.8201 59.7845 44.5501 60.1645C45.2801 60.5545 45.9601 61.0945 46.2201 61.9445C46.4801 62.7845 46.4501 64.2845 46.1101 65.2445C45.7801 66.2045 45.0201 67.2845 44.2001 67.6945C43.3801 68.1145 42.1401 67.8745 41.1901 67.7145C40.2401 67.5545 39.1001 67.4445 38.5001 66.7445C37.9001 66.0445 37.6001 64.5145 37.6201 63.5245C37.6301 62.5345 37.9801 61.4745 38.6101 60.8145C39.2401 60.1545 40.8701 59.7645 41.4001 59.5645C41.9201 59.3545 41.7601 59.6245 41.7901 59.5945M42.5601 59.1645C43.3601 59.0445 44.2201 59.4445 44.8201 60.0945C45.4201 60.7445 45.9101 62.1145 46.1601 63.0745C46.4101 64.0345 46.7301 64.9845 46.3401 65.8245C45.9501 66.6745 44.6501 67.8445 43.7901 68.1445C42.9301 68.4545 41.9601 68.0445 41.1601 67.6445C40.3701 67.2445 39.5701 66.5445 39.0101 65.7445C38.4601 64.9445 37.7201 63.7245 37.8201 62.8345C37.9201 61.9345 38.8301 60.9445 39.6201 60.3745C40.4001 59.8045 42.0701 59.5245 42.5501 59.3945C43.0201 59.2745 42.5301 59.6145 42.4501 59.6145" fill="white"/>
<path d="M42.5201 58.9945C43.4801 58.9245 44.7101 59.7545 45.3701 60.3745C46.0201 61.0045 46.3001 61.7845 46.4401 62.7445C46.5801 63.6945 46.6501 65.2145 46.2101 66.1145C45.7601 67.0145 44.6801 67.9145 43.7701 68.1545C42.8701 68.3945 41.6301 67.9745 40.7801 67.5445C39.9201 67.1145 39.1101 66.3445 38.6301 65.5545C38.1501 64.7645 37.7501 63.7445 37.8901 62.8145C38.0201 61.8745 38.6601 60.5645 39.4501 59.9545C40.2401 59.3445 42.0701 59.2145 42.6201 59.1445C43.1701 59.0845 42.7601 59.4945 42.7401 59.5945M41.6001 59.5245C42.5701 59.4145 44.1201 59.8845 44.9501 60.2945C45.7801 60.7045 46.3401 61.1445 46.5701 61.9845C46.8101 62.8245 46.7901 64.3545 46.3601 65.3145C45.9401 66.2845 44.8101 67.2745 44.0401 67.7945C43.2801 68.3245 42.6301 68.7645 41.7701 68.4645C40.9101 68.1545 39.5301 66.7445 38.9001 65.9545C38.2701 65.1545 37.9001 64.4945 37.9801 63.6845C38.0601 62.8745 38.7601 61.8645 39.3801 61.0745C40.0101 60.2945 41.4001 59.3145 41.7401 58.9945C42.0801 58.6745 41.4201 58.9845 41.4401 59.1745" stroke="#1E1E1E" stroke-linecap="round"/>
<path d="M54.5655 59.9713C55.3755 59.9413 56.4155 60.1513 57.0055 60.8013C57.5955 61.4613 58.0655 62.8613 58.1055 63.8813C58.1455 64.9113 57.8255 66.2413 57.2555 66.9413C56.6855 67.6513 55.6255 67.8813 54.6755 68.1113C53.7355 68.3313 52.4155 68.6913 51.5755 68.2913C50.7355 67.8913 49.9955 66.6113 49.6355 65.6913C49.2755 64.7713 49.1455 63.6213 49.4255 62.7713C49.7055 61.9213 50.4555 61.0713 51.3255 60.6013C52.1955 60.1313 54.1155 60.1213 54.6355 59.9413C55.1655 59.7513 54.5055 59.4113 54.4855 59.4913M53.9455 59.5713C54.7055 59.6213 55.7255 60.4613 56.4755 61.1213C57.2355 61.7813 58.3155 62.5913 58.5055 63.5413C58.6855 64.4913 58.0555 66.0413 57.5755 66.7913C57.0855 67.5413 56.3855 67.8513 55.5955 68.0413C54.7955 68.2213 53.7455 68.2513 52.8055 67.9013C51.8755 67.5513 50.4755 66.7213 49.9955 65.9313C49.5255 65.1313 49.6755 64.0213 49.9555 63.1513C50.2355 62.2913 50.9255 61.2913 51.6755 60.7513C52.4255 60.2113 54.0555 60.1513 54.4455 59.9313C54.8455 59.7113 54.0655 59.4613 54.0455 59.4313" fill="white"/>
<path d="M54.6154 59.7413C55.4554 59.7813 56.2854 60.0713 56.9354 60.7713C57.5854 61.4713 58.3954 62.9013 58.5054 63.9313C58.6154 64.9613 58.1654 66.2713 57.5954 66.9613C57.0354 67.6613 56.0154 67.9613 55.1354 68.0913C54.2454 68.2313 53.1454 68.1613 52.2754 67.7813C51.3954 67.4113 50.3254 66.7213 49.8954 65.8613C49.4654 65.0013 49.3954 63.5213 49.6954 62.5913C49.9954 61.6713 50.8554 60.7713 51.7054 60.3313C52.5454 59.8813 54.2754 60.0213 54.7654 59.9313C55.2454 59.8513 54.7454 59.8013 54.6354 59.8213M54.1854 60.0313C55.1154 59.8613 56.1254 59.7713 56.8154 60.3013C57.4954 60.8313 58.1654 62.1713 58.2854 63.1913C58.4154 64.2013 57.9254 65.5013 57.5454 66.4113C57.1654 67.3213 56.8154 68.4213 56.0054 68.6513C55.1954 68.8913 53.6254 68.1813 52.6754 67.8313C51.7354 67.4813 50.7754 67.2313 50.3254 66.5513C49.8854 65.8813 49.8654 64.8013 49.9954 63.7913C50.1254 62.7713 50.5154 61.1913 51.1254 60.4713C51.7254 59.7413 53.1454 59.5013 53.6254 59.4513C54.1054 59.3913 53.9354 60.0313 53.9854 60.1313" stroke="#1E1E1E" stroke-linecap="round"/>
<path d="M21.2272 41.2785C20.6772 42.2085 17.6772 44.1485 17.6272 46.2985C17.5672 48.4485 20.4272 52.7585 20.8972 54.1585M20.7372 40.9785C20.3472 41.7685 18.6572 43.2485 18.6272 45.5185C18.6072 47.7885 20.3072 53.2485 20.5972 54.5985" stroke="#1E1E1E" stroke-linecap="round"/>
<path d="M20.7007 62.702C21.1407 61.762 24.0507 59.312 24.0807 57.032C24.1107 54.762 21.3007 50.392 20.8807 49.032M21.4807 62.412C21.8207 61.512 23.6107 59.962 23.7007 57.572C23.7907 55.192 22.3307 49.452 22.0107 48.082" stroke="#1E1E1E" stroke-linecap="round"/>
<path d="M20.4496 57.4819C19.9896 58.2919 17.1296 60.6819 17.1496 63.0019C17.1696 65.3219 19.9596 69.9819 20.5596 71.3919M19.8396 58.5119C19.5896 59.1219 18.1096 59.9019 18.1996 62.1519C18.2896 64.4119 20.1596 70.3819 20.3596 72.0219" stroke="#1E1E1E" stroke-linecap="round"/>
<path d="M63.7728 41.7077C63.3328 42.5977 61.4628 44.2977 61.5828 46.5277C61.7128 48.7677 64.1928 53.6477 64.5228 55.1277M64.5828 41.3477C64.0928 42.3677 61.3328 44.8577 61.3128 47.2677C61.2828 49.6677 64.0728 54.5977 64.4328 55.7877" stroke="#1E1E1E" stroke-linecap="round"/>
<path d="M64.3311 56.7008C64.0011 57.5108 61.8211 59.4308 61.6811 61.7408C61.5411 64.0408 63.1811 69.1308 63.4811 70.5308M63.8211 56.2608C63.4911 56.8808 61.3811 58.6008 61.5011 60.8308C61.6211 63.0608 64.2611 68.0308 64.5611 69.6508" stroke="#1E1E1E" stroke-linecap="round"/>
<path d="M64.726 62.5776C65.066 61.7976 66.766 60.1276 66.616 57.8476C66.476 55.5576 64.246 50.3676 63.846 48.8776M64.316 62.1676C64.806 61.2276 67.516 59.1876 67.626 57.0676C67.726 54.9476 65.466 50.7276 64.916 49.4576" stroke="#1E1E1E" stroke-linecap="round"/>
<path d="M29.3406 39.3984C29.2106 39.8484 29.1806 41.4984 29.2006 41.9284M29.8306 39.2084C29.7906 39.7084 29.9406 41.8384 29.8406 42.3584" stroke="#1E1E1E" stroke-linecap="round"/>
<path d="M41.4385 38.9723C41.4585 39.3923 41.5985 41.2823 41.5785 41.7923M41.9285 38.6423C41.9185 39.1123 41.2585 41.7623 41.2685 42.2423" stroke="#1E1E1E" stroke-linecap="round"/>
<path d="M54.6899 38.463C54.6599 38.983 54.3299 41.003 54.2999 41.533M54.2299 38.153C54.3399 38.573 54.9399 40.553 54.9299 41.033" stroke="#1E1E1E" stroke-linecap="round"/>
<path d="M53.0861 51.5638C53.0561 52.0838 53.0961 53.9738 53.1761 54.4138M53.5661 51.3838C53.4861 51.8138 52.8561 53.5938 52.8361 53.9538" stroke="#1E1E1E" stroke-linecap="round"/>
<path d="M53.3555 63.1728C53.4255 63.6128 53.5955 65.4028 53.6055 65.7728M53.9355 63.0228C54.0155 63.3328 53.5855 64.7828 53.4555 65.2128" stroke="#1E1E1E" stroke-linecap="round"/>
<path d="M42.2255 62.7855C42.2355 63.1455 41.9655 64.7255 41.8855 65.1655M41.9255 62.5355C41.9055 63.0855 41.7055 64.9255 41.6255 65.4555" stroke="#1E1E1E" stroke-linecap="round"/>
<path d="M29.6282 62.9988C29.5482 63.4388 29.4082 65.4988 29.3782 66.0388M29.2182 63.6088C29.0682 64.0888 29.0582 66.1188 29.0482 66.4588" stroke="#1E1E1E" stroke-linecap="round"/>
<path d="M30.9688 52.5433C30.9388 53.0933 30.8788 55.0433 30.9088 55.5633M31.5688 52.2133C31.4788 52.6733 30.6988 54.5333 30.6188 55.0133" stroke="#1E1E1E" stroke-linecap="round"/>
<path d="M40.1426 51.4102C40.1826 51.9302 40.3026 53.9102 40.3026 54.3102M39.7026 51.1802C39.7226 51.6102 40.1126 53.3402 40.1526 53.8202" stroke="#1E1E1E" stroke-linecap="round"/>
<path fill-rule="evenodd" clip-rule="evenodd" d="M28.9088 75.7786C31.2988 74.8186 37.4488 69.7486 42.3288 69.3386C47.2188 68.9386 57.8688 71.7686 58.2188 73.3586C58.5588 74.9486 49.4688 78.7486 44.3888 78.8786C39.3088 78.9986 30.8288 75.0186 27.7388 74.1086" fill="white"/>
<path d="M27.9388 75.0287C30.3788 74.2187 36.9588 70.1587 42.1188 69.9987C47.2788 69.8387 58.6688 72.7387 58.9088 74.0487C59.1588 75.3687 48.7588 77.7487 43.5788 77.8787C38.3988 77.9987 30.5188 75.4887 27.8488 74.8087M27.4788 74.7587C29.8488 73.9887 36.5588 70.5387 41.7388 70.5187C46.9188 70.4987 58.2688 73.5887 58.5588 74.6487C58.8588 75.6987 48.7088 77.0187 43.5188 76.8387C38.3288 76.6587 30.2388 73.9287 27.4088 73.5787" stroke="#1E1E1E" stroke-linecap="round"/>
<path d="M32.0037 73.056C32.7537 74.166 33.6537 75.216 34.2237 76.076ZM32.0037 73.056C32.7937 74.026 33.5537 75.146 34.2237 76.076Z" stroke="#1E1E1E" stroke-linecap="round"/>
<path fill-rule="evenodd" clip-rule="evenodd" d="M34.5344 75.8197L38.3744 71.5197L40.6544 76.6797" fill="white"/>
<path d="M34.4344 76.3896C35.5344 74.6996 36.7144 73.4196 37.8344 71.4896M34.4344 76.3896C35.7844 74.5196 37.1744 72.6396 37.8344 71.4896M34.4344 76.3896C35.6944 76.6096 37.8444 76.7596 40.1944 77.0496M34.4344 76.3896C37.4344 76.6196 38.9144 76.8096 40.1944 77.0496M37.8344 71.4896C38.4944 73.3296 39.4844 75.0996 40.1944 77.0496M37.8344 71.4896C38.5844 73.1796 39.2744 74.6896 40.1944 77.0496" stroke="#1E1E1E" stroke-linecap="round"/>
<path fill-rule="evenodd" clip-rule="evenodd" d="M41.3885 76.8264L44.3285 70.5264L46.0185 76.7964" fill="white"/>
<path d="M40.8585 76.8064C41.8585 75.2364 42.8685 73.3364 43.8785 70.9064M40.8585 76.8064C41.5785 75.6464 42.1385 74.2664 43.8785 70.9064M40.8585 76.8064C44.1585 76.7064 45.3585 76.9964 46.6585 76.9464M40.8585 76.8064C44.2785 76.7964 45.4485 76.8064 46.6585 76.9464M43.8785 70.9064C44.7485 72.5064 45.2685 73.8064 46.6585 76.9464M43.8785 70.9064C44.6885 72.3764 45.3585 73.7964 46.6585 76.9464" stroke="#1E1E1E" stroke-linecap="round"/>
<path fill-rule="evenodd" clip-rule="evenodd" d="M47.5243 76.4016L49.6643 71.3716L53.3743 75.8916" fill="white"/>
<path d="M47.0743 76.7716C48.0243 75.5616 48.4243 74.3116 50.3043 71.5316M47.0743 76.7716C48.1543 74.9616 49.1543 73.2416 50.3043 71.5316M47.0743 76.7716C49.3343 76.5316 51.0543 75.8816 52.8343 75.7616M47.0743 76.7716C50.2343 76.2216 51.5143 75.9016 52.8343 75.7616M50.3043 71.5316C51.1243 72.7716 51.8943 74.4516 52.8343 75.7616M50.3043 71.5316C51.3443 73.0716 52.1543 74.6516 52.8343 75.7616" stroke="#1E1E1E" stroke-linecap="round"/>
</svg>
