<svg width="85" height="126" viewBox="0 0 85 126" fill="none" xmlns="http://www.w3.org/2000/svg">
<path d="M21.4176 1.6785C36.2476 2.0685 54.0976 -0.251504 61.8176 1.6785C78.5576 5.0185 79.5376 7.4185 82.0176 21.8785C79.4876 50.7485 79.1776 73.1585 82.0176 103.428C83.4376 113.538 72.7476 124.148 61.8176 123.628C47.6776 122.858 30.0876 125.528 21.4176 123.628C9.74759 122.808 0.74759 118.508 1.21759 103.428C-1.01241 76.6985 1.48759 49.8885 1.21759 21.8785C-1.37241 8.7085 8.36759 2.6285 21.4176 1.6785Z" fill="white"/>
<path d="M21.4176 1.67849C33.0576 3.37849 47.7076 0.488486 61.8176 1.67849M21.4176 1.67849C34.6476 2.88849 46.5976 1.99849 61.8176 1.67849M21.4176 1.67849C8.76758 1.89849 2.35758 9.92849 1.21758 21.8785M21.4176 1.67849C8.76758 1.04849 1.65758 6.43849 1.21758 21.8785M61.8176 1.67849C76.6376 0.118486 82.2276 9.26849 82.0176 21.8785M61.8176 1.67849C75.7676 2.60849 82.7576 9.98849 82.0176 21.8785M82.0176 21.8785C83.6676 51.1985 84.0976 83.1685 82.0176 103.428M82.0176 21.8785C81.6576 46.2285 82.8776 69.0885 82.0176 103.428M82.0176 103.428C82.4076 117.068 74.8676 122.508 61.8176 123.628M82.0176 103.428C79.9876 117.058 77.4676 121.468 61.8176 123.628M61.8176 123.628C44.8076 122.108 30.4376 125.218 21.4176 123.628M61.8176 123.628C47.8776 124.578 33.9676 124.108 21.4176 123.628M21.4176 123.628C7.29758 123.318 1.97758 117.368 1.21758 103.428M21.4176 123.628C9.62758 123.368 0.147576 117.628 1.21758 103.428M1.21758 103.428C1.59758 87.4585 1.75758 68.7785 1.21758 21.8785M1.21758 103.428C1.14758 78.7085 0.957576 55.4685 1.21758 21.8785" stroke="#1E1E1E" stroke-width="2" stroke-linecap="round"/>
<path d="M10.0328 89.9011C21.0228 89.9011 65.0028 89.9011 75.9928 89.9011" stroke="#1E1E1E" stroke-width="2" stroke-linecap="round"/>
<path d="M9.30166 105.498C9.29166 104.598 9.27166 100.988 9.26166 100.088" stroke="#1E1E1E" stroke-linecap="round"/>
<path d="M9.22961 100.291C9.47961 99.9309 10.4896 98.5109 10.7396 98.1509" stroke="#1E1E1E" stroke-linecap="round"/>
<path d="M12.2324 105.562C12.2424 104.662 12.2624 101.052 12.2724 100.152" stroke="#1E1E1E" stroke-linecap="round"/>
<path d="M12.3044 100.355C12.0544 99.9951 11.0444 98.5751 10.7944 98.2151" stroke="#1E1E1E" stroke-linecap="round"/>
<path d="M7.08936 106.049C8.26936 106.039 12.9694 106.009 14.1394 105.999" stroke="#1E1E1E" stroke-linecap="round"/>
<path d="M10.9479 106.139C10.9579 106.769 10.9979 109.309 11.0079 109.939" stroke="#1E1E1E" stroke-linecap="round"/>
<path d="M52.3591 101.22C52.7191 100.85 54.1591 99.3501 54.5191 98.9701" stroke="#1E1E1E" stroke-linecap="round"/>
<path d="M54.5146 98.9299C54.9146 99.2599 56.4946 100.58 56.8946 100.91" stroke="#1E1E1E" stroke-linecap="round"/>
<path d="M56.9845 101.175C56.2945 102.235 53.5445 106.485 52.8545 107.555" stroke="#1E1E1E" stroke-linecap="round"/>
<path d="M52.4265 101.22C52.0665 100.85 50.6265 99.3501 50.2665 98.9701" stroke="#1E1E1E" stroke-linecap="round"/>
<path d="M50.2709 98.9299C49.8709 99.2599 48.2909 100.58 47.8909 100.91" stroke="#1E1E1E" stroke-linecap="round"/>
<path d="M47.8011 101.175C48.4911 102.235 51.2411 106.485 51.9311 107.555" stroke="#1E1E1E" stroke-linecap="round"/>
<path d="M22.7451 1.56534C35.2951 1.56534 47.8451 1.56534 59.1351 1.56534C61.6151 1.56534 62.8651 2.80534 62.8651 5.29534C62.8651 7.72534 62.8651 10.1553 62.8651 12.7453C62.8651 15.2253 61.6151 16.4653 59.1351 16.4653C46.6551 16.4653 34.1651 16.4653 22.7451 16.4653C20.2551 16.4653 19.0151 15.2253 19.0151 12.7453C19.0151 10.6453 19.0151 8.54534 19.0151 5.29534C19.0151 2.80534 20.2551 1.56534 22.7451 1.56534Z" fill="white"/>
<path d="M22.7451 1.56534C32.6451 1.56534 42.5551 1.56534 59.1351 1.56534M22.7451 1.56534C31.6351 1.56534 40.5251 1.56534 59.1351 1.56534M22.7451 1.56534C20.2551 1.56534 19.0151 2.80534 19.0151 5.29534M59.1351 1.56534C61.6151 1.56534 62.8651 2.80534 62.8651 5.29534M62.8651 5.29534C62.8651 7.87534 62.8651 10.4553 62.8651 12.7453M62.8651 5.29534C62.8651 7.70534 62.8651 10.1153 62.8651 12.7453M62.8651 12.7453C62.8651 15.2253 61.6151 16.4653 59.1351 16.4653M59.1351 16.4653C46.8551 16.4653 34.5751 16.4653 22.7451 16.4653M59.1351 16.4653C47.8051 16.4653 36.4851 16.4653 22.7451 16.4653M22.7451 16.4653C20.2551 16.4653 19.0151 15.2253 19.0151 12.7453M19.0151 12.7453C19.0151 10.7153 19.0151 8.68534 19.0151 5.29534M19.0151 12.7453C19.0151 10.7753 19.0151 8.80534 19.0151 5.29534" stroke="#1E1E1E" stroke-width="2" stroke-linecap="round"/>
<path d="M24.8557 13.43V6.87679H25.5632V7.63389H25.65C25.7038 7.55115 25.7783 7.44565 25.8734 7.3174C25.9707 7.18708 26.1093 7.07124 26.2892 6.96988C26.4713 6.86645 26.7174 6.81473 27.0277 6.81473C27.429 6.81473 27.7827 6.91506 28.0889 7.11571C28.395 7.31636 28.634 7.60079 28.8057 7.969C28.9773 8.3372 29.0632 8.77161 29.0632 9.2722C29.0632 9.77693 28.9773 10.2144 28.8057 10.5847C28.634 10.9529 28.3961 11.2384 28.092 11.4411C27.7879 11.6418 27.4373 11.7421 27.0401 11.7421C26.734 11.7421 26.4888 11.6914 26.3047 11.59C26.1206 11.4866 25.9789 11.3697 25.8797 11.2394C25.7804 11.107 25.7038 10.9974 25.65 10.9105H25.588V13.43H24.8557ZM25.5756 9.25979C25.5756 9.61972 25.6283 9.93725 25.7338 10.2124C25.8393 10.4854 25.9934 10.6995 26.1961 10.8547C26.3989 11.0077 26.6471 11.0843 26.9408 11.0843C27.247 11.0843 27.5025 11.0036 27.7072 10.8423C27.9141 10.6788 28.0692 10.4596 28.1727 10.1844C28.2782 9.90726 28.3309 9.59904 28.3309 9.25979C28.3309 8.92468 28.2792 8.62267 28.1758 8.35375C28.0744 8.08277 27.9203 7.86867 27.7134 7.71146C27.5087 7.55218 27.2511 7.47254 26.9408 7.47254C26.643 7.47254 26.3927 7.54804 26.1899 7.69905C25.9872 7.84799 25.8341 8.05691 25.7307 8.32583C25.6273 8.59267 25.5756 8.90399 25.5756 9.25979ZM32.1164 11.7421C31.6861 11.7421 31.3086 11.6397 30.9839 11.4349C30.6612 11.2301 30.4088 10.9436 30.2268 10.5754C30.0468 10.2072 29.9568 9.77693 29.9568 9.28461C29.9568 8.78815 30.0468 8.35479 30.2268 7.98451C30.4088 7.61424 30.6612 7.3267 30.9839 7.12192C31.3086 6.91713 31.6861 6.81473 32.1164 6.81473C32.5467 6.81473 32.9232 6.91713 33.2459 7.12192C33.5706 7.3267 33.823 7.61424 34.003 7.98451C34.185 8.35479 34.276 8.78815 34.276 9.28461C34.276 9.77693 34.185 10.2072 34.003 10.5754C33.823 10.9436 33.5706 11.2301 33.2459 11.4349C32.9232 11.6397 32.5467 11.7421 32.1164 11.7421ZM32.1164 11.0843C32.4432 11.0843 32.7122 11.0005 32.9232 10.8329C33.1342 10.6654 33.2903 10.4451 33.3917 10.172C33.4931 9.89898 33.5437 9.60317 33.5437 9.28461C33.5437 8.96605 33.4931 8.66921 33.3917 8.39409C33.2903 8.11897 33.1342 7.8966 32.9232 7.72697C32.7122 7.55735 32.4432 7.47254 32.1164 7.47254C31.7896 7.47254 31.5207 7.55735 31.3097 7.72697C31.0987 7.8966 30.9425 8.11897 30.8411 8.39409C30.7398 8.66921 30.6891 8.96605 30.6891 9.28461C30.6891 9.60317 30.7398 9.89898 30.8411 10.172C30.9425 10.4451 31.0987 10.6654 31.3097 10.8329C31.5207 11.0005 31.7896 11.0843 32.1164 11.0843ZM36.1261 8.77574V11.6428H35.3938V6.87679H36.1013V7.62148H36.1633C36.275 7.37945 36.4447 7.18501 36.6722 7.03814C36.8997 6.8892 37.1935 6.81473 37.5534 6.81473C37.8761 6.81473 38.1585 6.88093 38.4005 7.01331C38.6425 7.14364 38.8308 7.34222 38.9652 7.60907C39.0997 7.87384 39.1669 8.20895 39.1669 8.61439V11.6428H38.4346V8.66404C38.4346 8.28963 38.3374 7.99796 38.143 7.78903C37.9485 7.57804 37.6817 7.47254 37.3424 7.47254C37.1087 7.47254 36.8997 7.52322 36.7156 7.62458C36.5336 7.72594 36.3898 7.87384 36.2843 8.06829C36.1788 8.26274 36.1261 8.49855 36.1261 8.77574ZM42.5777 6.87679V7.49736H40.1078V6.87679H42.5777ZM40.8277 5.73493H41.56V10.2775C41.56 10.4844 41.59 10.6395 41.65 10.743C41.712 10.8443 41.7906 10.9126 41.8858 10.9477C41.983 10.9808 42.0854 10.9974 42.193 10.9974C42.2736 10.9974 42.3398 10.9933 42.3916 10.985C42.4433 10.9746 42.4846 10.9664 42.5157 10.9602L42.6646 11.618C42.615 11.6366 42.5457 11.6552 42.4567 11.6738C42.3678 11.6945 42.255 11.7048 42.1185 11.7048C41.9116 11.7048 41.7089 11.6604 41.5103 11.5714C41.3138 11.4825 41.1504 11.347 41.0201 11.165C40.8918 10.9829 40.8277 10.7533 40.8277 10.4761V5.73493ZM45.6263 11.7421C45.1671 11.7421 44.7709 11.6407 44.4379 11.438C44.1069 11.2332 43.8515 10.9477 43.6715 10.5816C43.4936 10.2134 43.4046 9.78521 43.4046 9.29702C43.4046 8.80884 43.4936 8.37858 43.6715 8.00623C43.8515 7.63182 44.1018 7.34015 44.4224 7.13122C44.7451 6.92023 45.1216 6.81473 45.5518 6.81473C45.8001 6.81473 46.0452 6.8561 46.2872 6.93885C46.5292 7.02159 46.7495 7.15605 46.9481 7.34222C47.1467 7.52632 47.3049 7.77041 47.4229 8.0745C47.5408 8.37858 47.5997 8.75299 47.5997 9.19773V9.50802H43.9259V8.87503H46.855C46.855 8.60612 46.8012 8.36616 46.6937 8.15517C46.5882 7.94417 46.4372 7.77765 46.2407 7.65561C46.0462 7.53356 45.8166 7.47254 45.5518 7.47254C45.2602 7.47254 45.0078 7.54494 44.7947 7.68974C44.5837 7.83247 44.4213 8.01864 44.3076 8.24826C44.1938 8.47787 44.1369 8.72403 44.1369 8.98674V9.40873C44.1369 9.76866 44.199 10.0738 44.3231 10.3241C44.4493 10.5723 44.6241 10.7616 44.8475 10.8919C45.0709 11.0201 45.3305 11.0843 45.6263 11.0843C45.8187 11.0843 45.9924 11.0574 46.1476 11.0036C46.3048 10.9477 46.4403 10.865 46.554 10.7554C46.6678 10.6437 46.7557 10.5051 46.8178 10.3396L47.5252 10.5382C47.4508 10.7781 47.3256 10.9891 47.1498 11.1712C46.974 11.3511 46.7568 11.4918 46.4982 11.5931C46.2396 11.6924 45.949 11.7421 45.6263 11.7421ZM48.7136 11.6428V6.87679H49.4459V11.6428H48.7136ZM49.086 6.08246C48.9433 6.08246 48.8202 6.03384 48.7167 5.93662C48.6154 5.8394 48.5647 5.72252 48.5647 5.586C48.5647 5.44947 48.6154 5.3326 48.7167 5.23537C48.8202 5.13815 48.9433 5.08954 49.086 5.08954C49.2287 5.08954 49.3508 5.13815 49.4521 5.23537C49.5556 5.3326 49.6073 5.44947 49.6073 5.586C49.6073 5.72252 49.5556 5.8394 49.4521 5.93662C49.3508 6.03384 49.2287 6.08246 49.086 6.08246ZM50.7871 11.6428V6.87679H51.4946V7.59665H51.5442C51.6311 7.36084 51.7883 7.16949 52.0159 7.02262C52.2434 6.87575 52.4999 6.80232 52.7854 6.80232C52.8392 6.80232 52.9064 6.80335 52.9871 6.80542C53.0677 6.80749 53.1288 6.81059 53.1701 6.81473V7.55942C53.1453 7.55321 53.0884 7.54391 52.9995 7.53149C52.9126 7.51701 52.8205 7.50977 52.7233 7.50977C52.4916 7.50977 52.2848 7.55839 52.1027 7.65561C51.9228 7.75076 51.7801 7.88315 51.6746 8.05278C51.5711 8.22033 51.5194 8.41167 51.5194 8.62681V11.6428H50.7871ZM55.8293 11.7421C55.399 11.7421 55.0215 11.6397 54.6967 11.4349C54.374 11.2301 54.1217 10.9436 53.9396 10.5754C53.7597 10.2072 53.6697 9.77693 53.6697 9.28461C53.6697 8.78815 53.7597 8.35479 53.9396 7.98451C54.1217 7.61424 54.374 7.3267 54.6967 7.12192C55.0215 6.91713 55.399 6.81473 55.8293 6.81473C56.2596 6.81473 56.636 6.91713 56.9587 7.12192C57.2835 7.3267 57.5359 7.61424 57.7158 7.98451C57.8979 8.35479 57.9889 8.78815 57.9889 9.28461C57.9889 9.77693 57.8979 10.2072 57.7158 10.5754C57.5359 10.9436 57.2835 11.2301 56.9587 11.4349C56.636 11.6397 56.2596 11.7421 55.8293 11.7421ZM55.8293 11.0843C56.1561 11.0843 56.425 11.0005 56.636 10.8329C56.847 10.6654 57.0032 10.4451 57.1046 10.172C57.2059 9.89898 57.2566 9.60317 57.2566 9.28461C57.2566 8.96605 57.2059 8.66921 57.1046 8.39409C57.0032 8.11897 56.847 7.8966 56.636 7.72697C56.425 7.55735 56.1561 7.47254 55.8293 7.47254C55.5025 7.47254 55.2335 7.55735 55.0225 7.72697C54.8116 7.8966 54.6554 8.11897 54.554 8.39409C54.4527 8.66921 54.402 8.96605 54.402 9.28461C54.402 9.60317 54.4527 9.89898 54.554 10.172C54.6554 10.4451 54.8116 10.6654 55.0225 10.8329C55.2335 11.0005 55.5025 11.0843 55.8293 11.0843Z" fill="#1E1E1E"/>
<path d="M17.9984 51.6792C18.3392 50.5305 19.2841 49.2325 20.1836 48.6675C21.0847 48.0926 22.3271 47.8914 23.3936 48.2382C24.4584 48.5948 25.9721 49.7597 26.5462 50.7825C27.1203 51.8053 26.8909 53.3082 26.8547 54.3979C26.8185 55.4877 27.0548 56.6449 26.3371 57.3327C25.631 58.0123 23.6708 58.3736 22.5833 58.5001C21.4958 58.6267 20.5508 58.5749 19.8222 58.0937C19.1016 57.6241 18.4887 56.7671 18.2079 55.6327C17.9254 54.5081 18.0754 51.997 18.1437 51.3085C18.212 50.6201 18.5932 51.4674 18.6177 51.5021M18.402 53.4539C18.4497 52.356 18.6072 51.3278 19.3093 50.4952C20.0098 49.6726 21.6447 48.7273 22.6096 48.4882C23.5744 48.2491 24.3601 48.2835 25.11 49.0525C25.8616 49.8117 26.881 51.9567 27.1323 53.0861C27.3737 54.2137 27.0458 54.8775 26.5879 55.8233C26.1301 56.7692 25.4052 58.3792 24.3869 58.7511C23.3686 59.1231 21.4772 58.4408 20.4719 58.0336C19.4748 57.6379 18.687 57.1465 18.3499 56.3372C18.0227 55.5296 18.5983 53.6096 18.4775 53.193C18.3551 52.7861 17.5457 53.9452 17.6103 53.865" fill="white"/>
<path d="M18.018 54.6764C17.7929 53.5719 17.8633 51.463 18.382 50.5176C18.9088 49.5837 20.0042 49.2352 21.1447 49.0366C22.2754 48.8364 24.2377 48.9321 25.1955 49.321C26.1631 49.7116 26.5733 50.3914 26.9289 51.3866C27.2747 52.38 27.5168 54.208 27.2916 55.2752C27.0665 56.3425 26.5186 57.222 25.5845 57.8114C24.6521 58.391 22.7704 58.8268 21.6922 58.7824C20.6139 58.7381 19.6956 58.356 19.0956 57.5419C18.4938 56.7376 18.3328 54.5583 18.0833 53.9468C17.8223 53.3435 17.6018 53.9143 17.5559 53.8861M17.8465 53.1447C17.8246 52.1566 18.1829 51.0819 18.9917 50.278C19.8005 49.474 21.7413 48.5208 22.6929 48.2997C23.6544 48.0803 23.9652 48.337 24.7291 48.9663C25.4947 49.5859 26.7983 50.9682 27.2619 52.0429C27.7354 53.1193 27.938 54.4127 27.5291 55.4279C27.1103 56.4414 25.885 57.5995 24.7555 58.1451C23.6359 58.6923 21.7981 58.9327 20.7523 58.7011C19.7064 58.4695 18.8515 57.662 18.4707 56.7539C18.0882 55.8556 18.5574 53.8461 18.4639 53.2718C18.3622 52.6859 17.8115 53.23 17.8818 53.2929" stroke="#1E1E1E" stroke-width="2" stroke-linecap="round"/>
<path fill-rule="evenodd" clip-rule="evenodd" d="M21.9703 49.0905C20.5853 48.9424 15.9563 46.9546 14.5961 46.7803C13.2376 46.5961 13.0712 47.2067 13.7847 48.01C14.5 48.8035 17.9171 51.1094 18.8843 51.5608" fill="white"/>
<path d="M21.8745 49.1755C20.4117 48.8312 14.4232 46.8417 12.9569 46.8114C11.4923 46.7713 12.0771 48.2019 13.0622 48.9608C14.0374 49.7181 17.8424 50.9545 18.8396 51.3501M21.6606 48.6514C20.257 48.3173 14.5774 46.8887 13.2157 46.9577C11.8524 47.0365 12.5052 48.3672 13.4624 49.1112C14.4295 49.8569 18.0516 51.153 18.9968 51.4382" stroke="#1E1E1E" stroke-width="2" stroke-linecap="round"/>
<path fill-rule="evenodd" clip-rule="evenodd" d="M17.761 53.8641C18.3903 54.0462 21.7032 54.717 22.7387 54.2145C23.7743 53.712 24.7254 51.3097 23.9962 50.8203C23.2571 50.3303 19.2156 51.1244 18.3529 51.2876" fill="white"/>
<path d="M19.388 53.6614C20.1078 53.6891 22.5769 53.6325 23.3577 53.1932C24.1385 52.754 24.806 51.4553 24.0529 51.0245C23.3104 50.5844 19.7842 50.5608 18.8516 50.5691M18.8165 53.3629C19.6454 53.4079 23.1256 53.3683 23.9457 53.092C24.7751 52.8263 24.6598 52.1472 23.7763 51.7177C22.8829 51.2876 19.5068 50.6627 18.5948 50.512" stroke="#1E1E1E" stroke-linecap="round"/>
<path fill-rule="evenodd" clip-rule="evenodd" d="M17.8654 55.9407C18.923 55.8606 22.6671 55.0167 23.5604 54.6951C24.4536 54.3736 24.0311 54.095 23.2462 53.9928C22.4719 53.8812 19.7061 54.3291 18.8925 54.0546" fill="white"/>
<path d="M18.4944 54.9202C19.2773 54.902 22.747 55.1723 23.627 54.9C24.5069 54.6277 24.5897 53.5307 23.7449 53.2742C22.91 53.0184 19.4165 53.4079 18.5883 53.3529M18.783 54.6487C19.5001 54.7163 22.515 55.648 23.2839 55.5387C24.0429 55.4287 24.0353 54.4861 23.3766 53.9914C22.7079 53.496 20.0669 52.8197 19.2819 52.5671" stroke="#1E1E1E" stroke-linecap="round"/>
<path fill-rule="evenodd" clip-rule="evenodd" d="M19.1191 56.5932C19.8741 56.5431 21.9726 57.9952 22.6903 58.0529C23.4081 58.1105 24.2181 57.5329 23.447 56.9205C22.6658 56.3074 18.7421 54.8745 18.0342 54.3665" fill="white"/>
<path d="M19.1864 56.7881C19.9174 56.7965 22.5312 57.431 23.189 57.3343C23.8462 57.2476 23.9285 56.6117 23.1328 56.2181C22.3371 55.8246 19.2544 55.159 18.4136 54.993M18.5333 57.2659C19.2192 57.3515 21.8908 58.1702 22.7542 57.997C23.6175 57.8238 24.5039 56.7 23.7148 56.2067C22.9364 55.704 18.8786 55.2343 18.0816 55.011" stroke="#1E1E1E" stroke-linecap="round"/>
<path fill-rule="evenodd" clip-rule="evenodd" d="M27.2266 52.3556C27.5199 51.1297 28.2985 45.7426 27.8643 44.7368C27.4175 43.7244 25.3291 45.5089 24.5676 46.3168C23.8156 47.1216 23.1357 49.0471 23.3174 49.5874" fill="white"/>
<path d="M26.3757 52.1533C26.5567 51.0364 27.5464 46.3482 27.3218 45.2759C27.0908 44.2162 25.4073 44.9281 25.0127 45.7351C24.6085 46.5451 24.9294 49.4436 24.9412 50.1427M26.7817 51.6469C26.929 50.4568 27.3816 45.729 27.0599 44.8134C26.7412 43.9074 25.2452 45.4096 24.8952 46.192C24.5357 46.9773 24.9157 48.871 24.9059 49.535" stroke="#1E1E1E" stroke-width="2" stroke-linecap="round"/>
<path d="M70.5245 69.8918C68.0045 69.0518 58.1045 68.1518 53.5045 63.7918C48.8945 59.4318 44.4845 49.2218 42.8945 43.7418C41.3045 38.2518 41.5245 33.6918 43.9645 30.8918C46.4045 28.0818 57.2245 23.9318 57.5445 26.8918C57.8645 29.8518 49.7445 42.2518 45.8845 48.6518C42.0245 55.0518 34.8545 61.9318 34.3745 65.3018C33.9045 68.6618 38.0945 69.9618 43.0345 68.8418C47.9645 67.7218 60.1745 60.1818 63.9845 58.5718M69.6645 69.2018C67.0245 68.6118 56.9945 69.9218 52.4545 65.3818C47.9145 60.8418 44.3045 48.1018 42.4245 41.9718C40.5345 35.8418 38.3145 31.0818 41.1645 28.6118C44.0145 26.1518 59.0745 23.9918 59.5245 27.1818C59.9745 30.3818 48.4945 41.6418 43.8745 47.7618C39.2645 53.8818 31.5745 60.3918 31.8245 63.8818C32.0745 67.3718 39.7745 69.2618 45.3745 68.7018C50.9745 68.1418 62.4145 62.2018 65.4245 60.5318" stroke="#1E1E1E" stroke-width="2" stroke-linecap="round"/>
<path d="M41.9175 35.1384C40.4575 36.2284 33.2975 40.5185 33.5475 41.8685C33.8075 43.2185 41.8775 43.0284 43.4475 43.2184M41.4575 34.8484C39.9375 35.8284 33.0275 40.1185 33.3575 41.4085C33.6775 42.7085 41.7975 42.2985 43.4075 42.6185" stroke="#1E1E1E" stroke-width="2" stroke-linecap="round"/>
<path d="M34.4224 42.3082C35.3424 42.0682 38.9524 40.8982 39.7624 40.5782M34.0724 42.1682C34.9924 41.8182 38.8424 40.2782 39.6624 40.0382" stroke="#1E1E1E" stroke-width="0.5" stroke-linecap="round"/>
<path d="M56.8499 52.226C56.9548 51.209 57.8979 50.2151 58.6091 49.506C59.3285 48.8083 60.262 48.0462 61.1517 48.0073C62.0396 47.9781 63.1865 48.623 63.9436 49.2918C64.7106 49.9622 65.5392 51.0392 65.7239 52.0251C65.8988 53.0093 65.4935 54.2382 65.0241 55.1921C64.5448 56.1444 63.7042 57.3082 62.8681 57.7421C62.0221 58.1742 60.9096 58.0935 59.9579 57.7869C59.0062 57.4802 57.6425 56.7979 57.1499 55.8907C56.6671 54.9852 57.0905 52.9475 57.0612 52.3539C57.0303 51.77 56.8591 52.3493 56.9593 52.3565M57.3117 53.0771C57.2842 52.1793 57.2276 51.2156 57.8839 50.3548C58.5384 49.5039 60.2596 48.1777 61.2458 47.9322C62.2222 47.685 63.0769 48.259 63.7916 48.8798C64.4947 49.5088 65.2574 50.615 65.5287 51.6869C65.7919 52.7472 65.7887 54.3501 65.4033 55.2881C65.0178 56.2262 64.0092 56.8941 63.2193 57.2954C62.4195 57.695 61.6161 57.8808 60.6325 57.7005C59.6586 57.522 57.9721 56.9462 57.3601 56.201C56.7366 55.464 56.98 53.8215 56.9195 53.2326C56.8688 52.6453 56.9211 52.695 57.0247 52.6824" fill="white"/>
<path d="M57.1172 52.6172C57.1398 51.6063 57.504 50.3804 58.1316 49.6264C58.761 48.8624 59.8539 48.1177 60.8767 48.0713C61.8996 48.0249 63.4376 48.6968 64.2885 49.3514C65.1296 50.0042 65.7795 50.9995 65.9544 51.9837C66.1275 52.9778 65.7823 54.3287 65.3227 55.2844C64.8632 56.24 64.0773 57.322 63.2184 57.7113C62.348 58.1088 61.0751 57.8989 60.1347 57.6449C59.186 57.3794 58.0506 57.0207 57.5395 56.161C57.0401 55.2932 57.1468 53.1501 57.0802 52.4789C57.0235 51.8095 57.1201 52.1306 57.1793 52.1408M57.3295 52.8569C57.3422 51.8443 57.418 50.467 58.0572 49.7048C58.708 48.9344 60.1813 48.3367 61.2012 48.2492C62.2193 48.1716 63.4702 48.7431 64.1629 49.1977C64.8637 49.664 65.1343 50.0355 65.3717 51.0102C65.5993 51.9832 65.8372 53.9525 65.574 55.0639C65.3107 56.1753 64.6293 57.1231 63.8023 57.6803C62.9868 58.2294 61.6943 58.5438 60.6498 58.3632C59.6053 58.1826 58.2185 57.5165 57.5156 56.5933C56.8027 55.6683 56.5045 53.3435 56.4025 52.8184C56.3086 52.3049 56.6978 53.4581 56.9312 53.4578" stroke="#1E1E1E" stroke-width="2" stroke-linecap="round"/>
<path d="M58.612 57.4164C58.602 56.8164 58.892 54.6164 58.972 54.0364M59.202 57.0764C59.122 56.3564 58.802 53.9264 58.772 53.4564" stroke="#1E1E1E" stroke-linecap="round"/>
<path d="M60.965 57.7041C61.045 57.1141 61.225 54.6341 61.195 54.0541M60.605 57.4341C60.665 56.9141 61.075 55.1341 61.045 54.4841" stroke="#1E1E1E" stroke-linecap="round"/>
<path d="M63.0519 57.137C63.0219 56.557 62.8119 54.377 62.7319 53.777M62.7519 56.807C62.6519 56.117 62.2819 53.717 62.3719 53.207" stroke="#1E1E1E" stroke-linecap="round"/>
<path d="M27.5183 55.6322C28.2283 55.8022 30.0583 56.7622 32.4183 56.4222C34.7883 56.0722 40.1683 54.0122 41.7183 53.5422M28.3883 55.2422C29.2283 55.4922 31.2083 57.1622 33.4083 56.9722C35.5983 56.7922 40.1383 54.6222 41.5683 54.1422" stroke="#1E1E1E" stroke-width="2" stroke-linecap="round"/>
<path d="M46.5205 53.0071C47.4505 52.0471 50.6105 49.0871 52.3205 47.7071C54.0205 46.3271 55.3405 44.5971 56.7605 44.7271C58.1805 44.8571 60.1105 47.7671 60.8405 48.4771M47.2705 54.0571C48.1905 53.1671 50.5305 49.8471 52.0905 48.3971C53.6405 46.9471 55.1205 45.2571 56.6005 45.3471C58.0805 45.4371 60.2805 48.5671 60.9505 48.9671" stroke="#1E1E1E" stroke-width="2" stroke-linecap="round"/>
<path d="M47.3017 34.1578C47.4517 34.1878 47.8817 34.1778 47.9217 34.2178C47.9617 34.2578 47.5717 34.2978 47.5417 34.3878C47.5117 34.4778 47.7117 34.6778 47.7217 34.7578C47.7417 34.8378 47.7417 34.8478 47.6317 34.8478C47.5217 34.8378 47.2617 34.7778 47.0817 34.7378C46.9017 34.7078 46.5917 34.6578 46.5217 34.6178C46.4617 34.5678 46.5717 34.5278 46.7017 34.4578C46.8317 34.3878 47.1917 34.2678 47.2917 34.1978C47.4017 34.1278 47.2817 34.1078 47.3417 34.0478C47.3917 33.9878 47.5917 33.7978 47.6317 33.8378M47.0717 34.4178C47.1417 34.4378 47.1917 34.4578 47.2417 34.3978C47.3017 34.3378 47.2917 34.1278 47.4017 34.0678C47.5117 33.9978 47.9617 33.9178 47.9117 34.0278C47.8717 34.1478 47.1917 34.5678 47.1317 34.7478C47.0717 34.9378 47.6617 35.1478 47.5417 35.1478C47.4117 35.1378 46.5117 34.8878 46.3817 34.7278C46.2517 34.5578 46.6117 34.2178 46.7617 34.1578C46.9117 34.0978 47.2117 34.3878 47.2717 34.3478C47.3217 34.2978 47.0717 33.9378 47.0917 33.9178C47.1217 33.8978 47.4817 34.2278 47.4317 34.2278" stroke="#1E1E1E" stroke-linecap="round"/>
<path d="M41.2056 70.6372C41.0756 72.2872 40.5256 78.7972 40.4256 80.4872M40.9056 70.3472C40.7056 72.0572 40.2156 79.2772 40.1456 80.9372" stroke="#1E1E1E" stroke-linecap="round"/>
<path d="M40.3133 80.5976C39.6433 80.7676 37.1733 81.5576 36.5333 81.6376M39.8933 80.2876C39.1733 80.3576 36.9533 80.9976 36.3533 81.1776" stroke="#1E1E1E" stroke-linecap="round"/>
<path d="M40.7751 81.3181C40.4251 81.8081 38.8851 83.4381 38.4851 83.9181M40.4451 81.1681C40.0651 81.6981 38.6451 83.6781 38.2751 84.2581" stroke="#1E1E1E" stroke-linecap="round"/>
<path d="M40.8238 80.9311C41.0438 81.4111 41.9238 83.7711 42.1738 84.3811M40.4638 81.5811C40.6238 82.1011 41.6438 83.3811 41.9238 83.7911" stroke="#1E1E1E" stroke-linecap="round"/>
<path d="M47.9933 68.8155C48.0533 70.8955 48.3633 78.8755 48.4233 80.8155M47.3833 68.3955C47.3733 70.3555 48.0333 77.9455 48.1533 80.0655" stroke="#1E1E1E" stroke-linecap="round"/>
<path d="M48.202 80.7794C47.562 80.8894 44.862 81.2294 44.182 81.2594M47.882 80.6094C47.192 80.7794 44.642 81.6394 43.972 81.7294" stroke="#1E1E1E" stroke-linecap="round"/>
<path d="M48.4237 80.9299C48.0237 81.3599 46.4837 83.2299 46.1137 83.7399M48.0637 80.6399C47.6137 81.0799 46.2137 83.4299 45.8737 84.0299" stroke="#1E1E1E" stroke-linecap="round"/>
<path d="M48.4524 80.7429C48.6824 81.2529 49.6624 83.4829 49.9224 84.1129M48.0524 81.3629C48.2424 81.9129 49.3924 84.0729 49.7124 84.5129" stroke="#1E1E1E" stroke-linecap="round"/>
</svg>
