<svg width="84" height="125" viewBox="0 0 84 125" fill="none" xmlns="http://www.w3.org/2000/svg">
<path d="M21.3123 1.51873C38.7023 2.95873 51.4823 2.63873 61.7123 1.51873C73.2323 4.05873 80.9923 9.62873 81.9123 21.7187C84.0523 45.2487 83.5423 68.2887 81.9123 103.269C82.1523 119.349 77.4923 119.899 61.7123 123.469C52.5323 125.209 42.5523 121.709 21.3123 123.469C5.21229 124.499 -0.447711 115.369 1.11229 103.269C4.06229 80.9387 0.172289 60.7387 1.11229 21.7187C-1.58771 8.17873 6.62229 -1.28127 21.3123 1.51873Z" fill="white"/>
<path d="M21.3123 1.51875C32.4723 3.74875 40.6023 3.40875 61.7123 1.51875M21.3123 1.51875C35.3123 2.27875 48.4823 2.25875 61.7123 1.51875M21.3123 1.51875C8.03229 2.91875 0.36229 9.58875 1.11229 21.7188M21.3123 1.51875C5.93229 2.65875 3.00229 9.25875 1.11229 21.7188M61.7123 1.51875C77.0523 0.788753 81.4023 8.13875 81.9123 21.7188M61.7123 1.51875C75.3723 1.23875 80.1323 6.36875 81.9123 21.7188M81.9123 21.7188C80.5523 39.2588 80.4423 60.0288 81.9123 103.269M81.9123 21.7188C81.6123 43.7888 81.0723 65.9288 81.9123 103.269M81.9123 103.269C82.3523 117.759 75.3123 123.849 61.7123 123.469M81.9123 103.269C79.8523 115.459 76.7923 122.099 61.7123 123.469M61.7123 123.469C50.5423 122.329 36.8723 122.049 21.3123 123.469M61.7123 123.469C45.7623 123.069 31.1623 123.909 21.3123 123.469M21.3123 123.469C8.97229 122.029 1.38229 115.719 1.11229 103.269M21.3123 123.469C6.99229 123.429 1.37229 114.829 1.11229 103.269M1.11229 103.269C2.19229 76.7588 2.65229 51.2288 1.11229 21.7188M1.11229 103.269C1.37229 83.6788 1.00229 64.8988 1.11229 21.7188" stroke="#1E1E1E" stroke-width="2" stroke-linecap="round"/>
<path d="M22.3872 1.34497C36.2972 1.34497 50.2172 1.34497 58.7772 1.34497C61.2572 1.34497 62.5072 2.58497 62.5072 5.07497C62.5072 7.66497 62.5072 10.255 62.5072 12.525C62.5072 15.005 61.2572 16.245 58.7772 16.245C46.8572 16.245 34.9472 16.245 22.3872 16.245C19.8972 16.245 18.6572 15.005 18.6572 12.525C18.6572 10.105 18.6572 7.69497 18.6572 5.07497C18.6572 2.58497 19.8972 1.34497 22.3872 1.34497Z" fill="white"/>
<path d="M22.3872 1.34497C30.6172 1.34497 38.8572 1.34497 58.7772 1.34497M22.3872 1.34497C31.8272 1.34497 41.2672 1.34497 58.7772 1.34497M22.3872 1.34497C19.8972 1.34497 18.6572 2.58497 18.6572 5.07497M58.7772 1.34497C61.2572 1.34497 62.5072 2.58497 62.5072 5.07497M62.5072 5.07497C62.5072 7.28497 62.5072 9.49497 62.5072 12.525M62.5072 5.07497C62.5072 6.56497 62.5072 8.06497 62.5072 12.525M62.5072 12.525C62.5072 15.005 61.2572 16.245 58.7772 16.245M58.7772 16.245C44.4272 16.245 30.0872 16.245 22.3872 16.245M58.7772 16.245C50.4772 16.245 42.1772 16.245 22.3872 16.245M22.3872 16.245C19.8972 16.245 18.6572 15.005 18.6572 12.525M18.6572 12.525C18.6572 10.215 18.6572 7.90497 18.6572 5.07497M18.6572 12.525C18.6572 9.85497 18.6572 7.19497 18.6572 5.07497" stroke="#1E1E1E" stroke-width="2" stroke-linecap="round"/>
<path d="M22.0686 10.7992V4.44452H22.8381V7.27434H26.2264V4.44452H26.9959V10.7992H26.2264V7.95697H22.8381V10.7992H22.0686ZM30.4355 10.8985C29.9762 10.8985 29.5801 10.7971 29.2471 10.5944C28.9161 10.3896 28.6606 10.1042 28.4807 9.73801C28.3028 9.36981 28.2138 8.94161 28.2138 8.45343C28.2138 7.96524 28.3028 7.53498 28.4807 7.16263C28.6606 6.78822 28.9109 6.49655 29.2316 6.28763C29.5542 6.07663 29.9307 5.97113 30.361 5.97113C30.6092 5.97113 30.8543 6.01251 31.0964 6.09525C31.3384 6.17799 31.5587 6.31245 31.7573 6.49862C31.9559 6.68272 32.1141 6.92682 32.232 7.2309C32.3499 7.53498 32.4089 7.90939 32.4089 8.35414V8.66442H28.7351V8.03144H31.6642C31.6642 7.76252 31.6104 7.52257 31.5028 7.31157C31.3974 7.10058 31.2463 6.93406 31.0498 6.81201C30.8554 6.68996 30.6258 6.62894 30.361 6.62894C30.0693 6.62894 29.817 6.70134 29.6039 6.84614C29.3929 6.98887 29.2305 7.17505 29.1167 7.40466C29.003 7.63427 28.9461 7.88043 28.9461 8.14314V8.56513C28.9461 8.92506 29.0081 9.23018 29.1323 9.48048C29.2584 9.72871 29.4332 9.91798 29.6566 10.0483C29.88 10.1766 30.1397 10.2407 30.4355 10.2407C30.6278 10.2407 30.8016 10.2138 30.9567 10.16C31.114 10.1042 31.2494 10.0214 31.3632 9.91177C31.477 9.80007 31.5649 9.66148 31.627 9.49599L32.3344 9.69457C32.2599 9.93453 32.1348 10.1455 31.959 10.3276C31.7831 10.5075 31.5659 10.6482 31.3074 10.7495C31.0488 10.8488 30.7582 10.8985 30.4355 10.8985ZM34.9253 10.9109C34.6233 10.9109 34.3492 10.854 34.1031 10.7402C33.8569 10.6244 33.6614 10.4579 33.5166 10.2407C33.3718 10.0214 33.2994 9.75663 33.2994 9.44634C33.2994 9.17329 33.3532 8.95195 33.4608 8.78233C33.5683 8.61064 33.7121 8.47618 33.8921 8.37896C34.072 8.28174 34.2706 8.20934 34.4878 8.16176C34.7071 8.11211 34.9274 8.07281 35.1487 8.04385C35.4383 8.00661 35.6731 7.97869 35.8531 7.96007C36.0351 7.93939 36.1675 7.90525 36.2502 7.85768C36.335 7.8101 36.3775 7.72736 36.3775 7.60945V7.58462C36.3775 7.27848 36.2937 7.04059 36.1261 6.87097C35.9606 6.70134 35.7093 6.61653 35.3721 6.61653C35.0225 6.61653 34.7484 6.69307 34.5499 6.84614C34.3513 6.99922 34.2117 7.16263 34.131 7.3364L33.4359 7.08817C33.56 6.79857 33.7255 6.57309 33.9324 6.41174C34.1413 6.24832 34.3689 6.13455 34.615 6.07043C34.8633 6.00423 35.1073 5.97113 35.3473 5.97113C35.5004 5.97113 35.6762 5.98975 35.8748 6.02699C36.0754 6.06215 36.2689 6.13559 36.455 6.24729C36.6433 6.35899 36.7994 6.52758 36.9236 6.75306C37.0477 6.97853 37.1097 7.28054 37.1097 7.65909V10.7992H36.3775V10.1538H36.3402C36.2906 10.2572 36.2078 10.3679 36.092 10.4858C35.9761 10.6037 35.822 10.704 35.6297 10.7868C35.4373 10.8695 35.2025 10.9109 34.9253 10.9109ZM35.037 10.2531C35.3266 10.2531 35.5707 10.1962 35.7693 10.0824C35.9699 9.96866 36.1209 9.82179 36.2223 9.64183C36.3257 9.46186 36.3775 9.27258 36.3775 9.074V8.40378C36.3464 8.44102 36.2782 8.47515 36.1727 8.50618C36.0692 8.53514 35.9493 8.56099 35.8127 8.58375C35.6783 8.60443 35.5469 8.62305 35.4187 8.6396C35.2925 8.65408 35.1901 8.66649 35.1115 8.67683C34.9212 8.70166 34.7433 8.74199 34.5778 8.79785C34.4144 8.85163 34.282 8.93334 34.1806 9.04297C34.0813 9.15054 34.0317 9.29741 34.0317 9.48358C34.0317 9.73801 34.1258 9.93039 34.314 10.0607C34.5044 10.189 34.7453 10.2531 35.037 10.2531ZM38.4463 12.5864V6.03319H39.1537V6.79029H39.2406C39.2944 6.70755 39.3689 6.60205 39.464 6.4738C39.5613 6.34348 39.6998 6.22764 39.8798 6.12628C40.0618 6.02285 40.308 5.97113 40.6183 5.97113C41.0196 5.97113 41.3733 6.07146 41.6795 6.27211C41.9856 6.47276 42.2245 6.75719 42.3962 7.1254C42.5679 7.49361 42.6538 7.92801 42.6538 8.4286C42.6538 8.93334 42.5679 9.37084 42.3962 9.74112C42.2245 10.1093 41.9867 10.3948 41.6826 10.5975C41.3785 10.7982 41.0279 10.8985 40.6307 10.8985C40.3246 10.8985 40.0794 10.8478 39.8953 10.7464C39.7112 10.643 39.5695 10.5261 39.4702 10.3958C39.3709 10.2634 39.2944 10.1538 39.2406 10.0669H39.1786V12.5864H38.4463ZM39.1662 8.41619C39.1662 8.77613 39.2189 9.09365 39.3244 9.36877C39.4299 9.64183 39.584 9.85592 39.7867 10.0111C39.9894 10.1641 40.2377 10.2407 40.5314 10.2407C40.8376 10.2407 41.093 10.16 41.2978 9.99865C41.5047 9.83524 41.6598 9.61597 41.7633 9.34085C41.8688 9.06366 41.9215 8.75544 41.9215 8.41619C41.9215 8.08108 41.8698 7.77907 41.7664 7.51016C41.665 7.23917 41.5109 7.02507 41.304 6.86786C41.0992 6.70858 40.8417 6.62894 40.5314 6.62894C40.2335 6.62894 39.9832 6.70444 39.7805 6.85545C39.5778 7.00439 39.4247 7.21331 39.3213 7.48223C39.2179 7.74908 39.1662 8.0604 39.1662 8.41619ZM46.2283 10.7992V6.03319H46.9357V6.77788H46.9978C47.0971 6.52344 47.2574 6.3259 47.4787 6.18523C47.7001 6.0425 47.9659 5.97113 48.2762 5.97113C48.5906 5.97113 48.8523 6.0425 49.0612 6.18523C49.2722 6.3259 49.4366 6.52344 49.5545 6.77788H49.6042C49.7262 6.53172 49.9093 6.33624 50.1534 6.19144C50.3975 6.04457 50.6902 5.97113 51.0315 5.97113C51.4576 5.97113 51.8062 6.10456 52.0772 6.3714C52.3482 6.63618 52.4837 7.04886 52.4837 7.60945V10.7992H51.7514V7.60945C51.7514 7.25779 51.6552 7.00646 51.4628 6.85545C51.2704 6.70444 51.0439 6.62894 50.7833 6.62894C50.4482 6.62894 50.1886 6.7303 50.0045 6.93302C49.8204 7.13367 49.7283 7.38811 49.7283 7.69633V10.7992H48.9836V7.53498C48.9836 7.264 48.8957 7.04576 48.7199 6.88027C48.544 6.71272 48.3175 6.62894 48.0404 6.62894C47.85 6.62894 47.6721 6.67962 47.5067 6.78098C47.3432 6.88234 47.2109 7.02301 47.1095 7.20297C47.0102 7.38087 46.9606 7.58669 46.9606 7.82044V10.7992H46.2283ZM53.8225 10.7992V6.03319H54.5548V10.7992H53.8225ZM54.1949 5.23886C54.0522 5.23886 53.9291 5.19025 53.8256 5.09302C53.7243 4.9958 53.6736 4.87893 53.6736 4.7424C53.6736 4.60587 53.7243 4.489 53.8256 4.39177C53.9291 4.29455 54.0522 4.24594 54.1949 4.24594C54.3376 4.24594 54.4597 4.29455 54.561 4.39177C54.6645 4.489 54.7162 4.60587 54.7162 4.7424C54.7162 4.87893 54.6645 4.9958 54.561 5.09302C54.4597 5.19025 54.3376 5.23886 54.1949 5.23886ZM56.6283 7.93215V10.7992H55.896V6.03319H56.6035V6.77788H56.6655C56.7772 6.53586 56.9469 6.34141 57.1744 6.19454C57.402 6.0456 57.6957 5.97113 58.0556 5.97113C58.3783 5.97113 58.6607 6.03733 58.9027 6.16972C59.1447 6.30004 59.333 6.49862 59.4674 6.76547C59.6019 7.03025 59.6691 7.36536 59.6691 7.7708V10.7992H58.9368V7.82044C58.9368 7.44603 58.8396 7.15436 58.6452 6.94543C58.4507 6.73444 58.1839 6.62894 57.8446 6.62894C57.6109 6.62894 57.402 6.67962 57.2179 6.78098C57.0358 6.88234 56.8921 7.03025 56.7866 7.22469C56.6811 7.41914 56.6283 7.65496 56.6283 7.93215Z" fill="#1E1E1E"/>
<path d="M9.67493 89.6807C20.6649 89.6807 64.6449 89.6807 75.6349 89.6807" stroke="#1E1E1E" stroke-width="2" stroke-linecap="round"/>
<path d="M39.8184 36.069C39.9484 33.979 39.9184 32.149 39.6984 28.299ZM39.8184 36.069C39.8084 34.009 39.6684 31.869 39.6984 28.299Z" stroke="#1E1E1E" stroke-linecap="round"/>
<path d="M41.0384 31.949C40.7584 30.969 40.3984 30.119 39.6984 28.299ZM41.0384 31.949C40.6984 30.979 40.2884 29.969 39.6984 28.299Z" stroke="#1E1E1E" stroke-linecap="round"/>
<path d="M38.3784 31.949C38.8184 30.969 39.1684 30.119 39.6984 28.299ZM38.3784 31.949C38.7384 30.979 39.0284 29.969 39.6984 28.299Z" stroke="#1E1E1E" stroke-linecap="round"/>
<path d="M17.5298 59.2375C19.1698 57.3875 26.0098 49.9775 27.5698 48.1675M16.8598 58.9175C18.4498 57.1175 25.7998 50.4275 27.4098 48.7575" stroke="#1E1E1E" stroke-linecap="round"/>
<path d="M27.4543 47.6991C29.5843 46.1491 37.6143 40.4091 39.6743 38.9391M27.0543 47.1191C29.1043 45.6391 37.0943 40.8991 39.1743 39.6191" stroke="#1E1E1E" stroke-linecap="round"/>
<path d="M39.6783 38.9385C41.5683 40.3885 49.7683 46.1185 51.6983 47.4785M40.6083 38.4485C42.3883 39.9985 49.3383 46.6485 51.2883 48.1485" stroke="#1E1E1E" stroke-linecap="round"/>
<path d="M51.4666 47.3652C52.9266 49.4052 58.5966 57.5852 60.0366 59.6252M50.8266 46.8552C52.4666 48.9552 59.3166 57.9152 61.0566 60.0952" stroke="#1E1E1E" stroke-linecap="round"/>
<path d="M50.0687 46.7533C49.0287 48.7133 45.2387 56.8233 44.3387 58.9033M50.8487 47.7133C49.9887 49.7333 46.4887 57.3533 45.3987 59.3533" stroke="#1E1E1E" stroke-linecap="round"/>
<path d="M26.8263 46.9552C27.9763 48.9752 32.5963 57.0652 33.6563 59.0852M27.6463 47.8952C28.7663 50.0352 32.1163 57.7552 33.2163 59.6952" stroke="#1E1E1E" stroke-linecap="round"/>
<path d="M39.9649 35.76C40.6849 35.72 41.7649 36.57 42.2749 37.17C42.7949 37.77 42.9049 38.59 43.0349 39.34C43.1649 40.09 43.4049 41.03 43.0549 41.67C42.6949 42.31 41.7149 42.93 40.9249 43.19C40.1249 43.45 39.0349 43.51 38.2949 43.23C37.5649 42.95 36.8849 42.23 36.5349 41.51C36.1849 40.8 35.9949 39.69 36.1849 38.95C36.3649 38.2 37.0349 37.51 37.6549 37.05C38.2749 36.59 39.5249 36.35 39.9049 36.2C40.2949 36.05 39.9249 36.07 39.9549 36.14M39.3049 36.21C40.1049 36.07 41.2049 36.36 41.8049 36.67C42.3949 36.98 42.6349 37.4 42.8749 38.07C43.1249 38.74 43.5249 39.93 43.2749 40.68C43.0149 41.43 42.0949 42.14 41.3349 42.58C40.5849 43.01 39.4249 43.42 38.7449 43.29C38.0549 43.16 37.7249 42.4 37.2449 41.79C36.7749 41.18 35.9849 40.38 35.8849 39.63C35.7849 38.88 36.1349 37.94 36.6549 37.29C37.1749 36.63 38.6449 35.92 39.0049 35.7C39.3549 35.48 38.6949 35.91 38.7849 35.98" fill="white"/>
<path d="M39.1549 35.92C39.8349 35.78 40.6649 36.2 41.3149 36.6C41.9649 37.01 42.7849 37.62 43.0549 38.35C43.3149 39.09 43.1249 40.29 42.8949 41.03C42.6549 41.78 42.2749 42.52 41.6449 42.82C41.0049 43.12 39.9149 42.98 39.1049 42.86C38.2849 42.74 37.2849 42.66 36.7549 42.1C36.2349 41.54 35.8949 40.27 35.9649 39.51C36.0449 38.76 36.6449 38.18 37.2249 37.56C37.7949 36.95 39.0849 36.11 39.4149 35.82C39.7349 35.53 39.1449 35.74 39.1749 35.83M39.3249 36.43C40.1549 36.25 41.3549 35.95 42.0049 36.27C42.6649 36.58 43.1249 37.54 43.2649 38.34C43.4149 39.14 43.1849 40.36 42.8849 41.04C42.5749 41.72 42.0849 42.13 41.4449 42.43C40.7949 42.73 39.7649 42.94 39.0149 42.86C38.2649 42.78 37.4449 42.47 36.9349 41.95C36.4249 41.42 35.9449 40.56 35.9449 39.71C35.9449 38.86 36.3449 37.42 36.9249 36.86C37.4949 36.3 38.9649 36.5 39.3949 36.35C39.8249 36.21 39.5249 35.96 39.5249 36" stroke="#1E1E1E" stroke-linecap="round"/>
<path d="M28.0048 44.2747C28.6648 44.4147 29.2148 44.8847 29.7448 45.4447C30.2648 46.0047 31.0748 46.8847 31.1448 47.6347C31.2148 48.3847 30.7048 49.3247 30.1748 49.9447C29.6348 50.5647 28.6948 51.1747 27.9248 51.3347C27.1648 51.4847 26.2448 51.2847 25.5848 50.8847C24.9248 50.4847 24.2248 49.6247 23.9748 48.9247C23.7248 48.2247 23.8448 47.3847 24.0848 46.6847C24.3348 45.9747 24.8148 45.1247 25.4548 44.6947C26.0948 44.2547 27.4648 44.1147 27.9248 44.0547C28.3948 43.9947 28.3148 44.3047 28.2548 44.3347M27.5348 44.1147C28.2048 43.9847 28.7848 44.0147 29.3648 44.4447C29.9548 44.8747 30.8748 45.9247 31.0348 46.7147C31.1848 47.5047 30.7548 48.4347 30.2848 49.1647C29.8248 49.8947 28.8948 50.7947 28.2448 51.0747C27.5948 51.3447 27.1248 51.1047 26.4048 50.8347C25.6948 50.5647 24.4648 50.0747 23.9748 49.4347C23.4748 48.7847 23.2848 47.8047 23.4348 46.9747C23.5748 46.1447 24.2648 44.9847 24.8448 44.4547C25.4348 43.9247 26.4648 43.9247 26.9248 43.8047C27.3948 43.6847 27.6448 43.6447 27.6348 43.7347" fill="white"/>
<path d="M26.9348 44.0147C27.6548 43.9547 28.8548 44.1347 29.4748 44.6247C30.0948 45.1147 30.4648 46.1647 30.6648 46.9447C30.8648 47.7247 31.0048 48.7147 30.6748 49.3247C30.3548 49.9347 29.5048 50.3147 28.7248 50.6247C27.9448 50.9447 26.7948 51.4247 26.0148 51.2247C25.2448 51.0247 24.4248 50.0747 24.0848 49.4347C23.7348 48.7847 23.7748 48.1547 23.9448 47.3547C24.1148 46.5547 24.5548 45.2447 25.0848 44.6247C25.6148 44.0147 26.7048 43.7847 27.1248 43.6847C27.5448 43.5847 27.6248 43.9447 27.6148 44.0147M27.5648 43.6247C28.3048 43.4647 29.1548 43.9847 29.6748 44.5347C30.1948 45.0747 30.5448 46.1547 30.6948 46.8847C30.8348 47.6147 30.8848 48.2747 30.5548 48.9047C30.2248 49.5347 29.4348 50.2847 28.7148 50.6647C27.9948 51.0347 27.0048 51.2947 26.2348 51.1347C25.4548 50.9747 24.4848 50.4447 24.0448 49.7047C23.6048 48.9747 23.4148 47.4647 23.5848 46.7047C23.7548 45.9447 24.4048 45.6347 25.0548 45.1547C25.7048 44.6747 27.0948 44.0047 27.4648 43.8447C27.8448 43.6847 27.3448 44.0447 27.2848 44.1847" stroke="#1E1E1E" stroke-linecap="round"/>
<path d="M50.1192 43.9468C50.8492 43.7868 52.3092 43.9868 53.0092 44.3768C53.6992 44.7668 54.1292 45.5468 54.2992 46.2868C54.4692 47.0268 54.3492 48.1068 54.0492 48.8168C53.7492 49.5268 53.1492 50.2168 52.4992 50.5368C51.8392 50.8568 50.8092 50.8868 50.0992 50.7368C49.3792 50.5868 48.6792 50.2268 48.2192 49.6468C47.7592 49.0668 47.3192 48.0568 47.3192 47.2568C47.3192 46.4568 47.6492 45.4068 48.2192 44.8468C48.7892 44.2768 50.3992 44.0868 50.7492 43.8768C51.0892 43.6568 50.3192 43.5068 50.2892 43.5468M50.7692 43.2768C51.4892 43.1968 52.8792 43.8068 53.4592 44.3568C54.0392 44.9068 54.2492 45.7368 54.2692 46.5568C54.2892 47.3768 53.9092 48.6168 53.5692 49.2768C53.2392 49.9368 52.9692 50.3068 52.2492 50.5268C51.5292 50.7468 50.0692 50.8568 49.2492 50.5868C48.4292 50.3168 47.6792 49.6468 47.3392 48.8968C46.9992 48.1368 47.0492 46.8568 47.2092 46.0768C47.3692 45.2968 47.6092 44.6668 48.2992 44.2068C48.9892 43.7468 50.9692 43.4068 51.3492 43.3168C51.7392 43.2268 50.6792 43.5168 50.6092 43.6668" fill="white"/>
<path d="M50.4892 43.4967C51.2292 43.4067 52.0892 43.8967 52.7692 44.3767C53.4392 44.8467 54.3092 45.6667 54.5492 46.3467C54.7892 47.0267 54.5992 47.7467 54.2092 48.4767C53.8192 49.2067 52.9492 50.3667 52.2092 50.7367C51.4592 51.1067 50.4292 50.8667 49.7392 50.6767C49.0592 50.4867 48.4692 50.2567 48.0892 49.5867C47.6992 48.9167 47.4192 47.5067 47.4292 46.6367C47.4492 45.7767 47.5992 44.8767 48.1792 44.3767C48.7692 43.8667 50.5392 43.7467 50.9292 43.5967C51.3092 43.4567 50.5392 43.4167 50.4892 43.4867M51.3992 43.4067C52.0592 43.5167 52.8192 44.2367 53.3392 44.7767C53.8592 45.3067 54.4592 45.9067 54.5392 46.6367C54.6192 47.3567 54.2992 48.4067 53.8392 49.1167C53.3692 49.8267 52.5492 50.6267 51.7492 50.8967C50.9492 51.1567 49.7692 51.1367 49.0392 50.7067C48.3092 50.2767 47.6292 49.0267 47.3692 48.3167C47.1192 47.6167 47.2292 47.1767 47.5192 46.4667C47.8092 45.7567 48.4892 44.5267 49.1192 44.0767C49.7592 43.6267 50.9992 43.7867 51.3292 43.7867C51.6692 43.7867 51.1392 43.9667 51.1392 44.0667" stroke="#1E1E1E" stroke-linecap="round"/>
<path d="M18.3783 56.7308C19.1583 56.7508 19.8883 57.2508 20.3483 57.8208C20.8083 58.4008 21.1083 59.4008 21.1383 60.1708C21.1583 60.9308 20.9483 61.8408 20.4983 62.4108C20.0583 62.9808 19.1783 63.4208 18.4683 63.6008C17.7583 63.7808 16.9083 63.8308 16.2383 63.5108C15.5683 63.1808 14.7583 62.3908 14.4283 61.6508C14.0983 60.9108 14.0183 59.7908 14.2883 59.0608C14.5483 58.3408 15.4183 57.7408 16.0183 57.3008C16.6183 56.8508 17.5283 56.4708 17.8983 56.3708C18.2783 56.2808 18.2083 56.6108 18.2683 56.7208M18.0183 56.3008C18.7683 56.3108 19.4783 56.6908 19.9583 57.2608C20.4483 57.8408 20.7483 58.9808 20.9283 59.7508C21.0983 60.5308 21.4183 61.2708 21.0183 61.9008C20.6183 62.5408 19.3683 63.3108 18.5283 63.5608C17.6883 63.8208 16.6683 63.7808 15.9783 63.4208C15.2783 63.0508 14.7283 62.0908 14.3683 61.3808C14.0083 60.6708 13.5683 59.8908 13.8183 59.1508C14.0683 58.4108 15.2383 57.3808 15.8483 56.9308C16.4483 56.4808 17.1283 56.4908 17.4483 56.4708C17.7783 56.4608 17.7383 56.6808 17.8183 56.8308" fill="white"/>
<path d="M17.5683 56.5808C18.3483 56.5808 19.6183 56.9708 20.2483 57.4108C20.8783 57.8508 21.2783 58.4408 21.3383 59.2408C21.3983 60.0308 21.0683 61.4808 20.6283 62.1808C20.1883 62.8908 19.3783 63.2208 18.6983 63.4808C18.0283 63.7508 17.2583 64.0908 16.5883 63.7808C15.9183 63.4708 15.1283 62.3808 14.6983 61.6008C14.2683 60.8308 13.8383 59.8508 14.0083 59.1308C14.1783 58.4108 15.1183 57.7508 15.7183 57.2708C16.3083 56.8008 17.2283 56.4008 17.5783 56.2808C17.9383 56.1708 17.7483 56.4508 17.8283 56.5808M17.1083 56.5308C17.8283 56.3708 19.0583 56.3108 19.7483 56.6808C20.4283 57.0608 21.0083 57.9508 21.2383 58.7908C21.4583 59.6208 21.4283 60.8708 21.0783 61.6708C20.7283 62.4708 19.8483 63.3208 19.1183 63.5908C18.3883 63.8608 17.3983 63.4608 16.6983 63.2908C15.9883 63.1208 15.3083 63.1408 14.9083 62.5508C14.5183 61.9608 14.2883 60.5608 14.3183 59.7708C14.3483 58.9708 14.6383 58.2508 15.0983 57.7708C15.5683 57.2908 16.7283 57.0008 17.1083 56.8708C17.4783 56.7308 17.2383 56.9208 17.3483 56.9608" stroke="#1E1E1E" stroke-linecap="round"/>
<path d="M34.0878 56.5849C34.7578 56.6549 35.5978 57.2449 36.0978 57.8149C36.6078 58.3749 37.0678 59.2549 37.1178 59.9849C37.1678 60.7149 36.8378 61.5649 36.4078 62.1849C35.9678 62.8049 35.2678 63.5149 34.5278 63.7049C33.7878 63.8949 32.6578 63.7149 31.9478 63.3249C31.2478 62.9349 30.5278 62.0749 30.2778 61.3649C30.0278 60.6649 30.2478 59.8649 30.4378 59.1049C30.6178 58.3349 30.7578 57.2049 31.3678 56.7749C31.9878 56.3449 33.6578 56.5449 34.1378 56.5249C34.6278 56.5049 34.2678 56.6449 34.2678 56.6549M32.9878 56.2349C33.6278 56.1549 34.4878 56.6649 35.2078 57.0949C35.9278 57.5249 37.0778 58.0849 37.3178 58.8049C37.5578 59.5349 37.0478 60.6949 36.6478 61.4249C36.2378 62.1549 35.5378 62.9049 34.8678 63.1849C34.1978 63.4649 33.3878 63.3049 32.6278 63.1049C31.8778 62.9049 30.7278 62.5749 30.3478 61.9749C29.9678 61.3649 30.2978 60.2249 30.3378 59.4749C30.3678 58.7249 30.0978 57.9649 30.5578 57.4949C31.0278 57.0249 32.6678 56.7549 33.1178 56.6649C33.5678 56.5749 33.1678 56.9449 33.2478 56.9649" fill="white"/>
<path d="M33.5178 56.4248C34.2878 56.2648 35.2178 56.2848 35.7778 56.7748C36.3478 57.2648 36.7678 58.5448 36.9178 59.3448C37.0578 60.1348 36.9278 60.8248 36.6578 61.5348C36.3778 62.2348 35.8878 63.3048 35.2378 63.5848C34.5878 63.8648 33.5478 63.5048 32.7478 63.1948C31.9578 62.8848 30.8678 62.3148 30.4578 61.7148C30.0478 61.1148 30.2278 60.3348 30.2978 59.5848C30.3678 58.8348 30.3578 57.7148 30.8678 57.1848C31.3778 56.6548 32.8978 56.4848 33.3678 56.4048C33.8478 56.3148 33.7478 56.5948 33.7178 56.6548M33.3678 55.9948C34.1378 55.8448 35.1278 56.2348 35.7578 56.7748C36.3778 57.3148 36.9878 58.3948 37.1378 59.2248C37.2878 60.0648 37.0078 61.1748 36.6378 61.7948C36.2678 62.4148 35.5578 62.6148 34.9078 62.9348C34.2578 63.2648 33.4178 63.9248 32.7378 63.7448C32.0578 63.5748 31.2978 62.5648 30.8478 61.9048C30.3978 61.2448 30.0278 60.4748 30.0278 59.7848C30.0378 59.1048 30.3378 58.2748 30.8878 57.7748C31.4478 57.2648 32.8878 56.9348 33.3578 56.7548C33.8278 56.5748 33.7978 56.6548 33.7278 56.6948" stroke="#1E1E1E" stroke-linecap="round"/>
<path d="M45.83 56.0649C46.56 56.0849 47.59 56.5049 48.15 57.0149C48.71 57.5249 49.11 58.3349 49.21 59.1149C49.31 59.8949 49.2 61.0449 48.77 61.6949C48.33 62.3549 47.37 62.8849 46.6 63.0449C45.83 63.2049 44.79 63.0049 44.13 62.6849C43.47 62.3549 43.02 61.8549 42.65 61.1249C42.27 60.3849 41.72 59.0449 41.88 58.2849C42.04 57.5249 42.9 56.9249 43.62 56.5449C44.34 56.1549 45.76 56.1149 46.21 55.9849C46.66 55.8549 46.38 55.6949 46.32 55.7449M45.05 55.9449C45.86 55.8549 47.41 55.9249 48.04 56.3649C48.68 56.8049 48.8 57.7949 48.88 58.5649C48.97 59.3249 48.85 60.3449 48.54 60.9649C48.22 61.5949 47.68 62.0149 46.98 62.3049C46.27 62.5849 44.96 62.8849 44.3 62.6849C43.64 62.4849 43.45 61.7149 43.01 61.1049C42.58 60.4849 41.66 59.6749 41.67 59.0049C41.69 58.3249 42.48 57.5249 43.11 57.0749C43.75 56.6249 45.03 56.4849 45.48 56.2949C45.93 56.1149 45.77 55.9049 45.81 55.9449" fill="white"/>
<path d="M45.87 55.5149C46.55 55.5349 47.37 56.4149 47.9 56.9749C48.43 57.5349 48.88 58.1149 49.04 58.8949C49.2 59.6749 49.23 61.0249 48.87 61.6349C48.51 62.2449 47.68 62.4449 46.9 62.5749C46.11 62.7149 44.83 62.6949 44.14 62.4449C43.45 62.1849 43.13 61.7149 42.76 61.0449C42.39 60.3849 41.81 59.1749 41.92 58.4249C42.03 57.6849 42.73 56.9749 43.43 56.5749C44.13 56.1649 45.73 56.1149 46.1 56.0049C46.47 55.9049 45.73 55.9349 45.66 55.9349M45.74 55.5349C46.47 55.5849 47.49 56.2249 48.03 56.8049C48.57 57.3949 48.9 58.3749 48.99 59.0549C49.08 59.7349 48.92 60.2149 48.58 60.8849C48.25 61.5549 47.64 62.7749 46.98 63.0749C46.32 63.3649 45.37 62.9449 44.64 62.6549C43.9 62.3649 43.02 61.9249 42.57 61.3349C42.12 60.7549 41.81 59.8449 41.95 59.1249C42.09 58.4049 42.71 57.5249 43.4 57.0149C44.09 56.4949 45.77 56.1749 46.08 56.0349C46.38 55.8849 45.26 56.1749 45.25 56.1349" stroke="#1E1E1E" stroke-linecap="round"/>
<path d="M59.9138 55.839C60.6638 55.809 61.5938 56.169 62.1838 56.719C62.7738 57.279 63.3638 58.359 63.4438 59.159C63.5338 59.949 63.1538 60.889 62.6938 61.489C62.2238 62.089 61.3638 62.569 60.6638 62.779C59.9538 62.999 59.2138 63.129 58.4538 62.779C57.7038 62.429 56.5038 61.379 56.1338 60.669C55.7538 59.949 55.9538 59.179 56.2138 58.479C56.4738 57.789 57.0438 56.999 57.7038 56.509C58.3638 56.019 59.7938 55.639 60.1638 55.539C60.5238 55.439 59.9438 55.829 59.9038 55.889M59.7438 55.569C60.4838 55.469 61.0538 55.949 61.5638 56.429C62.0738 56.909 62.6338 57.759 62.8338 58.439C63.0238 59.119 63.1038 59.839 62.7638 60.499C62.4138 61.169 61.3838 62.089 60.7538 62.409C60.1338 62.729 59.7538 62.609 59.0138 62.419C58.2638 62.229 56.7838 61.789 56.2938 61.239C55.8038 60.699 55.9138 59.819 56.0738 59.139C56.2438 58.459 56.6638 57.729 57.2938 57.169C57.9238 56.599 59.4538 55.919 59.8638 55.759C60.2838 55.589 59.8738 56.119 59.7638 56.169" fill="white"/>
<path d="M59.5638 55.9289C60.2538 55.9389 61.2138 56.0289 61.8538 56.5489C62.4938 57.0589 63.2238 58.2989 63.4038 59.0189C63.5838 59.7489 63.3638 60.3089 62.9138 60.8789C62.4738 61.4389 61.4138 62.0989 60.7138 62.3889C60.0138 62.6789 59.4338 62.8789 58.7038 62.6189C57.9738 62.3589 56.7638 61.4989 56.3338 60.8289C55.9138 60.1689 55.9138 59.3189 56.1438 58.6289C56.3638 57.9389 57.0938 57.1789 57.6738 56.6989C58.2538 56.2189 59.2538 55.9189 59.6038 55.7489C59.9438 55.5689 59.7238 55.5989 59.7538 55.6489M59.2638 55.8889C59.9338 55.8389 60.7838 56.1889 61.3938 56.5189C62.0038 56.8489 62.6338 57.1389 62.9138 57.8789C63.2038 58.6089 63.3338 60.1889 63.1038 60.9389C62.8838 61.6789 62.2638 61.9989 61.5738 62.3289C60.8838 62.6689 59.7738 63.0189 58.9538 62.9289C58.1438 62.8489 57.1538 62.4089 56.6838 61.8389C56.2238 61.2689 56.0338 60.2989 56.1638 59.5089C56.2938 58.7189 57.0138 57.6889 57.4538 57.0989C57.8938 56.5089 58.4438 56.2689 58.8038 55.9789C59.1638 55.6989 59.4538 55.3189 59.6038 55.3889" stroke="#1E1E1E" stroke-linecap="round"/>
<path d="M41.4538 37.894V38.5522H38.7728V37.894H41.4538Z" fill="#1E1E1E"/>
<path d="M51.0321 47.8793C50.8002 47.8793 50.5883 47.8227 50.3966 47.7095C50.2067 47.5963 50.0551 47.4447 49.9419 47.2548C49.8287 47.0631 49.7721 46.8513 49.7721 46.6194C49.7721 46.3874 49.8287 46.1765 49.9419 45.9866C50.0551 45.7949 50.2067 45.6424 50.3966 45.5292C50.5883 45.416 50.8002 45.3594 51.0321 45.3594C51.264 45.3594 51.4749 45.416 51.6648 45.5292C51.8565 45.6424 52.009 45.7949 52.1222 45.9866C52.2354 46.1765 52.292 46.3874 52.292 46.6194C52.292 46.8513 52.2354 47.0631 52.1222 47.2548C52.009 47.4447 51.8565 47.5963 51.6648 47.7095C51.4749 47.8227 51.264 47.8793 51.0321 47.8793ZM51.0321 47.3315C51.1635 47.3315 51.2832 47.2996 51.3909 47.2356C51.4986 47.1717 51.5844 47.0859 51.6484 46.9782C51.7123 46.8704 51.7442 46.7508 51.7442 46.6194C51.7442 46.4879 51.7123 46.3683 51.6484 46.2605C51.5844 46.1528 51.4986 46.067 51.3909 46.0031C51.2832 45.9392 51.1635 45.9072 51.0321 45.9072C50.9006 45.9072 50.781 45.9392 50.6733 46.0031C50.5655 46.067 50.4797 46.1528 50.4158 46.2605C50.3519 46.3683 50.3199 46.4879 50.3199 46.6194C50.3199 46.7508 50.3519 46.8704 50.4158 46.9782C50.4797 47.0859 50.5655 47.1717 50.6733 47.2356C50.781 47.2996 50.9006 47.3315 51.0321 47.3315Z" fill="#1E1E1E"/>
<path d="M17.4195 61.2347V57.2851H18.0898V61.2347H17.4195ZM15.7798 59.595V58.9248H19.7295V59.595H15.7798Z" fill="#1E1E1E"/>
<path d="M34.1302 61.604V57.6544H34.8004V61.604H34.1302ZM32.4905 59.9643V59.2941H36.4401V59.9643H32.4905Z" fill="#1E1E1E"/>
<path d="M46.2246 61.0501V57.1004H46.8949V61.0501H46.2246ZM44.5849 59.4104V58.7401H48.5346V59.4104H44.5849Z" fill="#1E1E1E"/>
<path d="M60.0502 61.0501V57.1004H60.7205V61.0501H60.0502ZM58.4105 59.4104V58.7401H62.3602V59.4104H58.4105Z" fill="#1E1E1E"/>
<path d="M27.2302 47.9155C26.9983 47.9155 26.7865 47.8588 26.5948 47.7456C26.4049 47.6324 26.2533 47.4809 26.1401 47.2909C26.0269 47.0992 25.9703 46.8874 25.9703 46.6555C25.9703 46.4236 26.0269 46.2127 26.1401 46.0228C26.2533 45.831 26.4049 45.6786 26.5948 45.5653C26.7865 45.4521 26.9983 45.3955 27.2302 45.3955C27.4621 45.3955 27.6731 45.4521 27.863 45.5653C28.0547 45.6786 28.2072 45.831 28.3204 46.0228C28.4336 46.2127 28.4902 46.4236 28.4902 46.6555C28.4902 46.8874 28.4336 47.0992 28.3204 47.2909C28.2072 47.4809 28.0547 47.6324 27.863 47.7456C27.6731 47.8588 27.4621 47.9155 27.2302 47.9155ZM27.2302 47.3676C27.3617 47.3676 27.4813 47.3357 27.5891 47.2718C27.6968 47.2079 27.7826 47.122 27.8465 47.0143C27.9104 46.9066 27.9424 46.787 27.9424 46.6555C27.9424 46.524 27.9104 46.4044 27.8465 46.2967C27.7826 46.1889 27.6968 46.1031 27.5891 46.0392C27.4813 45.9753 27.3617 45.9433 27.2302 45.9433C27.0988 45.9433 26.9792 45.9753 26.8714 46.0392C26.7637 46.1031 26.6779 46.1889 26.6139 46.2967C26.55 46.4044 26.5181 46.524 26.5181 46.6555C26.5181 46.787 26.55 46.9066 26.6139 47.0143C26.6779 47.122 26.7637 47.2079 26.8714 47.2718C26.9792 47.3357 27.0988 47.3676 27.2302 47.3676Z" fill="#1E1E1E"/>
</svg>
