<svg width="84" height="125" viewBox="0 0 84 125" fill="none" xmlns="http://www.w3.org/2000/svg">
<path d="M22.0277 1.64636C34.6477 1.04636 44.2877 1.90636 62.4277 1.64636C74.9677 1.99636 80.5277 8.09636 82.6277 21.8464C82.4477 53.2364 80.4377 79.7364 82.6277 103.396C84.1977 119.686 79.1177 121.696 62.4277 123.596C52.0677 123.476 36.6277 121.416 22.0277 123.596C9.09768 121.536 -1.51232 114.646 1.82768 103.396C4.60768 76.9364 3.73768 52.1164 1.82768 21.8464C3.09768 7.26636 10.5377 2.56636 22.0277 1.64636Z" fill="white"/>
<path d="M22.0277 1.64636C31.9777 0.206362 44.0477 3.50636 62.4277 1.64636M22.0277 1.64636C33.4577 0.596362 43.4977 2.43636 62.4277 1.64636M22.0277 1.64636C7.50768 2.58636 0.437683 8.34636 1.82768 21.8464M22.0277 1.64636C7.07768 1.75636 1.60768 6.23636 1.82768 21.8464M62.4277 1.64636C75.8477 0.076362 84.3877 8.99636 82.6277 21.8464M62.4277 1.64636C75.0777 1.71636 82.8177 9.89636 82.6277 21.8464M82.6277 21.8464C82.1977 43.8164 82.7677 67.3864 82.6277 103.396M82.6277 21.8464C81.7577 45.2264 83.0877 67.0964 82.6277 103.396M82.6277 103.396C82.1077 117.586 74.2377 124.656 62.4277 123.596M82.6277 103.396C82.9377 119.066 76.2877 122.846 62.4277 123.596M62.4277 123.596C53.0377 123.096 41.9377 121.946 22.0277 123.596M62.4277 123.596C52.1977 123.646 43.3377 124.106 22.0277 123.596M22.0277 123.596C8.03768 124.006 1.60768 116.206 1.82768 103.396M22.0277 123.596C9.01768 123.356 0.707683 118.206 1.82768 103.396M1.82768 103.396C2.87768 87.7464 2.73768 71.6164 1.82768 21.8464M1.82768 103.396C1.43768 84.9964 1.51768 66.8364 1.82768 21.8464" stroke="#1E1E1E" stroke-width="2" stroke-linecap="round"/>
<path d="M10.6429 88.2719C21.6329 88.2719 65.6129 88.2719 76.6029 88.2719" stroke="#1E1E1E" stroke-width="2" stroke-linecap="round"/>
<path d="M9.9117 104.092C9.9017 103.192 9.8817 99.5821 9.8717 98.6821" stroke="#1E1E1E" stroke-linecap="round"/>
<path d="M9.83972 98.8849C10.0897 98.5249 11.0997 97.1049 11.3497 96.7449" stroke="#1E1E1E" stroke-linecap="round"/>
<path d="M12.8425 104.156C12.8525 103.256 12.8725 99.6463 12.8825 98.7463" stroke="#1E1E1E" stroke-linecap="round"/>
<path d="M12.9144 98.9491C12.6644 98.5891 11.6544 97.1691 11.4044 96.8091" stroke="#1E1E1E" stroke-linecap="round"/>
<path d="M7.69946 104.643C8.87946 104.623 13.5795 104.543 14.7495 104.523" stroke="#1E1E1E" stroke-linecap="round"/>
<path d="M11.5579 104.733C11.5679 105.363 11.6079 107.903 11.6179 108.533" stroke="#1E1E1E" stroke-linecap="round"/>
<path d="M52.9691 99.8141C53.3291 99.4441 54.7691 97.9441 55.1291 97.5641" stroke="#1E1E1E" stroke-linecap="round"/>
<path d="M55.1246 97.5239C55.5246 97.8539 57.1046 99.1739 57.5046 99.5039" stroke="#1E1E1E" stroke-linecap="round"/>
<path d="M57.5945 99.7692C56.9045 100.829 54.1545 105.079 53.4645 106.149" stroke="#1E1E1E" stroke-linecap="round"/>
<path d="M53.0365 99.8141C52.6765 99.4441 51.2365 97.9441 50.8765 97.5641" stroke="#1E1E1E" stroke-linecap="round"/>
<path d="M50.881 97.5239C50.481 97.8539 48.901 99.1739 48.501 99.5039" stroke="#1E1E1E" stroke-linecap="round"/>
<path d="M48.4111 99.7692C49.1011 100.829 51.8511 105.079 52.5411 106.149" stroke="#1E1E1E" stroke-linecap="round"/>
<path d="M23.3552 1.81824C32.0352 1.81824 40.7152 1.81824 59.7452 1.81824C62.2252 1.81824 63.4752 3.05824 63.4752 5.54824C63.4752 7.96824 63.4752 10.3982 63.4752 12.9982C63.4752 15.4782 62.2252 16.7182 59.7452 16.7182C50.7252 16.7182 41.7152 16.7182 23.3552 16.7182C20.8652 16.7182 19.6252 15.4782 19.6252 12.9982C19.6252 10.7682 19.6252 8.54824 19.6252 5.54824C19.6252 3.05824 20.8652 1.81824 23.3552 1.81824Z" fill="white"/>
<path d="M23.3552 1.81824C31.4252 1.81824 39.5052 1.81824 59.7452 1.81824M23.3552 1.81824C36.2052 1.81824 49.0552 1.81824 59.7452 1.81824M23.3552 1.81824C20.8652 1.81824 19.6252 3.05824 19.6252 5.54824M59.7452 1.81824C62.2252 1.81824 63.4752 3.05824 63.4752 5.54824M63.4752 5.54824C63.4752 7.23824 63.4752 8.92824 63.4752 12.9982M63.4752 5.54824C63.4752 7.53824 63.4752 9.52824 63.4752 12.9982M63.4752 12.9982C63.4752 15.4782 62.2252 16.7182 59.7452 16.7182M59.7452 16.7182C51.1552 16.7182 42.5652 16.7182 23.3552 16.7182M59.7452 16.7182C47.1152 16.7182 34.4852 16.7182 23.3552 16.7182M23.3552 16.7182C20.8652 16.7182 19.6252 15.4782 19.6252 12.9982M19.6252 12.9982C19.6252 10.8182 19.6252 8.64824 19.6252 5.54824M19.6252 12.9982C19.6252 10.6682 19.6252 8.33824 19.6252 5.54824" stroke="#1E1E1E" stroke-width="2" stroke-linecap="round"/>
<path d="M21.5425 12.0128V7.24675H22.25V7.96662H22.2996C22.3865 7.7308 22.5437 7.53946 22.7713 7.39259C22.9988 7.24572 23.2553 7.17228 23.5408 7.17228C23.5946 7.17228 23.6618 7.17332 23.7425 7.17539C23.8231 7.17746 23.8842 7.18056 23.9255 7.1847V7.92938C23.9007 7.92318 23.8438 7.91387 23.7549 7.90146C23.668 7.88698 23.5759 7.87974 23.4787 7.87974C23.247 7.87974 23.0402 7.92835 22.8581 8.02557C22.6782 8.12073 22.5355 8.25312 22.43 8.42274C22.3265 8.59029 22.2748 8.78164 22.2748 8.99677V12.0128H21.5425ZM26.6467 12.112C26.1875 12.112 25.7914 12.0107 25.4584 11.808C25.1274 11.6032 24.8719 11.3177 24.6919 10.9516C24.514 10.5834 24.4251 10.1552 24.4251 9.66699C24.4251 9.1788 24.514 8.74854 24.6919 8.3762C24.8719 8.00178 25.1222 7.71011 25.4428 7.50119C25.7655 7.29019 26.142 7.1847 26.5723 7.1847C26.8205 7.1847 27.0656 7.22607 27.3077 7.30881C27.5497 7.39155 27.77 7.52601 27.9686 7.71218C28.1672 7.89629 28.3254 8.14038 28.4433 8.44446C28.5612 8.74854 28.6202 9.12295 28.6202 9.5677V9.87798H24.9464V9.245H27.8755C27.8755 8.97608 27.8217 8.73613 27.7141 8.52513C27.6086 8.31414 27.4576 8.14762 27.2611 8.02557C27.0667 7.90353 26.8371 7.8425 26.5723 7.8425C26.2806 7.8425 26.0282 7.9149 25.8152 8.0597C25.6042 8.20244 25.4418 8.38861 25.328 8.61822C25.2143 8.84783 25.1574 9.09399 25.1574 9.3567V9.77869C25.1574 10.1386 25.2194 10.4437 25.3435 10.694C25.4697 10.9423 25.6445 11.1315 25.8679 11.2619C26.0913 11.3901 26.3509 11.4542 26.6467 11.4542C26.8391 11.4542 27.0129 11.4273 27.168 11.3736C27.3252 11.3177 27.4607 11.235 27.5745 11.1253C27.6883 11.0136 27.7762 10.875 27.8382 10.7096L28.5457 10.9081C28.4712 11.1481 28.3461 11.3591 28.1703 11.5411C27.9944 11.7211 27.7772 11.8618 27.5187 11.9631C27.2601 12.0624 26.9694 12.112 26.6467 12.112ZM29.7341 13.8V7.24675H30.4416V8.00385H30.5284C30.5822 7.92111 30.6567 7.81561 30.7518 7.68736C30.8491 7.55704 30.9877 7.4412 31.1676 7.33984C31.3497 7.23641 31.5958 7.1847 31.9061 7.1847C32.3074 7.1847 32.6611 7.28502 32.9673 7.48567C33.2734 7.68633 33.5124 7.97076 33.6841 8.33896C33.8557 8.70717 33.9416 9.14157 33.9416 9.64217C33.9416 10.1469 33.8557 10.5844 33.6841 10.9547C33.5124 11.3229 33.2745 11.6083 32.9704 11.8111C32.6663 12.0117 32.3157 12.112 31.9185 12.112C31.6124 12.112 31.3672 12.0614 31.1831 11.96C30.999 11.8566 30.8573 11.7397 30.758 11.6094C30.6588 11.477 30.5822 11.3674 30.5284 11.2805H30.4664V13.8H29.7341ZM30.454 9.62975C30.454 9.98969 30.5067 10.3072 30.6122 10.5823C30.7177 10.8554 30.8718 11.0695 31.0745 11.2246C31.2773 11.3777 31.5255 11.4542 31.8192 11.4542C32.1254 11.4542 32.3808 11.3736 32.5856 11.2122C32.7925 11.0488 32.9476 10.8295 33.0511 10.5544C33.1566 10.2772 33.2093 9.969 33.2093 9.62975C33.2093 9.29465 33.1576 8.99263 33.0542 8.72372C32.9528 8.45273 32.7987 8.23864 32.5918 8.08142C32.3871 7.92214 32.1295 7.8425 31.8192 7.8425C31.5214 7.8425 31.2711 7.91801 31.0683 8.06901C30.8656 8.21795 30.7125 8.42688 30.6091 8.69579C30.5057 8.96264 30.454 9.27396 30.454 9.62975ZM37.0569 12.112C36.5976 12.112 36.2015 12.0107 35.8685 11.808C35.5375 11.6032 35.282 11.3177 35.1021 10.9516C34.9242 10.5834 34.8352 10.1552 34.8352 9.66699C34.8352 9.1788 34.9242 8.74854 35.1021 8.3762C35.282 8.00178 35.5323 7.71011 35.853 7.50119C36.1757 7.29019 36.5521 7.1847 36.9824 7.1847C37.2306 7.1847 37.4758 7.22607 37.7178 7.30881C37.9598 7.39155 38.1801 7.52601 38.3787 7.71218C38.5773 7.89629 38.7355 8.14038 38.8534 8.44446C38.9713 8.74854 39.0303 9.12295 39.0303 9.5677V9.87798H35.3565V9.245H38.2856C38.2856 8.97608 38.2318 8.73613 38.1243 8.52513C38.0188 8.31414 37.8677 8.14762 37.6712 8.02557C37.4768 7.90353 37.2472 7.8425 36.9824 7.8425C36.6907 7.8425 36.4384 7.9149 36.2253 8.0597C36.0143 8.20244 35.8519 8.38861 35.7381 8.61822C35.6244 8.84783 35.5675 9.09399 35.5675 9.3567V9.77869C35.5675 10.1386 35.6295 10.4437 35.7537 10.694C35.8798 10.9423 36.0546 11.1315 36.278 11.2619C36.5015 11.3901 36.7611 11.4542 37.0569 11.4542C37.2492 11.4542 37.423 11.4273 37.5781 11.3736C37.7354 11.3177 37.8709 11.235 37.9846 11.1253C38.0984 11.0136 38.1863 10.875 38.2484 10.7096L38.9558 10.9081C38.8814 11.1481 38.7562 11.3591 38.5804 11.5411C38.4045 11.7211 38.1873 11.8618 37.9288 11.9631C37.6702 12.0624 37.3796 12.112 37.0569 12.112ZM42.2169 7.24675V7.86733H39.7471V7.24675H42.2169ZM40.4669 6.1049H41.1992V10.6475C41.1992 10.8544 41.2292 11.0095 41.2892 11.1129C41.3512 11.2143 41.4298 11.2825 41.525 11.3177C41.6222 11.3508 41.7246 11.3674 41.8322 11.3674C41.9129 11.3674 41.979 11.3632 42.0308 11.3549C42.0825 11.3446 42.1238 11.3363 42.1549 11.3301L42.3038 11.9879C42.2542 12.0066 42.1849 12.0252 42.0959 12.0438C42.007 12.0645 41.8942 12.0748 41.7577 12.0748C41.5509 12.0748 41.3481 12.0303 41.1495 11.9414C40.953 11.8524 40.7896 11.7169 40.6593 11.5349C40.531 11.3529 40.4669 11.1233 40.4669 10.8461V6.1049ZM43.3185 12.0128V7.24675H44.0507V12.0128H43.3185ZM43.6908 6.45242C43.5481 6.45242 43.425 6.40381 43.3216 6.30658C43.2202 6.20936 43.1695 6.09249 43.1695 5.95596C43.1695 5.81944 43.2202 5.70256 43.3216 5.60534C43.425 5.50811 43.5481 5.4595 43.6908 5.4595C43.8335 5.4595 43.9556 5.50811 44.0569 5.60534C44.1604 5.70256 44.2121 5.81944 44.2121 5.95596C44.2121 6.09249 44.1604 6.20936 44.0569 6.30658C43.9556 6.40381 43.8335 6.45242 43.6908 6.45242ZM47.1916 12.112C46.7944 12.112 46.4438 12.0117 46.1397 11.8111C45.8357 11.6083 45.5978 11.3229 45.4261 10.9547C45.2544 10.5844 45.1685 10.1469 45.1685 9.64217C45.1685 9.14157 45.2544 8.70717 45.4261 8.33896C45.5978 7.97076 45.8367 7.68633 46.1428 7.48567C46.449 7.28502 46.8027 7.1847 47.204 7.1847C47.5143 7.1847 47.7594 7.23641 47.9394 7.33984C48.1214 7.4412 48.26 7.55704 48.3552 7.68736C48.4524 7.81561 48.5279 7.92111 48.5817 8.00385H48.6437V5.65809H49.376V12.0128H48.6686V11.2805H48.5817C48.5279 11.3674 48.4514 11.477 48.3521 11.6094C48.2528 11.7397 48.1111 11.8566 47.927 11.96C47.7429 12.0614 47.4978 12.112 47.1916 12.112ZM47.2909 11.4542C47.5846 11.4542 47.8329 11.3777 48.0356 11.2246C48.2383 11.0695 48.3924 10.8554 48.4979 10.5823C48.6034 10.3072 48.6562 9.98969 48.6562 9.62975C48.6562 9.27396 48.6044 8.96264 48.501 8.69579C48.3976 8.42688 48.2445 8.21795 48.0418 8.06901C47.8391 7.91801 47.5888 7.8425 47.2909 7.8425C46.9806 7.8425 46.722 7.92214 46.5152 8.08142C46.3104 8.23864 46.1563 8.45273 46.0529 8.72372C45.9515 8.99263 45.9008 9.29465 45.9008 9.62975C45.9008 9.969 45.9525 10.2772 46.056 10.5544C46.1615 10.8295 46.3166 11.0488 46.5214 11.2122C46.7282 11.3736 46.9847 11.4542 47.2909 11.4542ZM52.755 12.112C52.3248 12.112 51.9473 12.0097 51.6225 11.8049C51.2998 11.6001 51.0474 11.3136 50.8654 10.9454C50.6854 10.5772 50.5954 10.1469 50.5954 9.65458C50.5954 9.15812 50.6854 8.72475 50.8654 8.35448C51.0474 7.9842 51.2998 7.69667 51.6225 7.49188C51.9473 7.28709 52.3248 7.1847 52.755 7.1847C53.1853 7.1847 53.5618 7.28709 53.8845 7.49188C54.2093 7.69667 54.4616 7.9842 54.6416 8.35448C54.8236 8.72475 54.9146 9.15812 54.9146 9.65458C54.9146 10.1469 54.8236 10.5772 54.6416 10.9454C54.4616 11.3136 54.2093 11.6001 53.8845 11.8049C53.5618 12.0097 53.1853 12.112 52.755 12.112ZM52.755 11.4542C53.0819 11.4542 53.3508 11.3705 53.5618 11.2029C53.7728 11.0354 53.929 10.815 54.0303 10.542C54.1317 10.2689 54.1824 9.97314 54.1824 9.65458C54.1824 9.33602 54.1317 9.03918 54.0303 8.76406C53.929 8.48893 53.7728 8.26656 53.5618 8.09694C53.3508 7.92732 53.0819 7.8425 52.755 7.8425C52.4282 7.8425 52.1593 7.92732 51.9483 8.09694C51.7373 8.26656 51.5811 8.48893 51.4798 8.76406C51.3784 9.03918 51.3277 9.33602 51.3277 9.65458C51.3277 9.97314 51.3784 10.2689 51.4798 10.542C51.5811 10.815 51.7373 11.0354 51.9483 11.2029C52.1593 11.3705 52.4282 11.4542 52.755 11.4542ZM56.0324 12.0128V7.24675H56.7399V7.96662H56.7895C56.8764 7.7308 57.0336 7.53946 57.2612 7.39259C57.4887 7.24572 57.7452 7.17228 58.0307 7.17228C58.0845 7.17228 58.1517 7.17332 58.2324 7.17539C58.3131 7.17746 58.3741 7.18056 58.4154 7.1847V7.92938C58.3906 7.92318 58.3337 7.91387 58.2448 7.90146C58.1579 7.88698 58.0659 7.87974 57.9686 7.87974C57.737 7.87974 57.5301 7.92835 57.3481 8.02557C57.1681 8.12073 57.0254 8.25312 56.9199 8.42274C56.8164 8.59029 56.7647 8.78164 56.7647 8.99677V12.0128H56.0324Z" fill="#1E1E1E"/>
<path d="M23.5302 64.032C36.5202 64.672 51.3702 65.182 61.1902 64.032C63.9302 62.022 65.7602 63.822 64.3102 67.152C64.1302 69.132 63.7902 70.922 64.3102 73.392C62.9502 73.252 62.3902 77.002 61.1902 76.512C49.7102 78.442 41.7202 76.792 23.5302 76.512C21.4102 79.062 22.3302 76.792 20.4102 73.392C20.1802 71.082 20.7102 69.002 20.4102 67.152C19.0802 63.122 21.2002 61.942 23.5302 64.032Z" fill="white"/>
<path d="M23.5301 64.032C34.3801 64.322 45.1201 64.362 61.1901 64.032M23.5301 64.032C33.5201 64.262 43.5701 63.902 61.1901 64.032M23.5301 64.032C20.8801 63.102 19.6401 65.222 20.4101 67.152M23.5301 64.032C21.5301 63.722 19.7001 65.112 20.4101 67.152M61.1901 64.032C62.4801 63.382 64.2902 64.522 64.3102 67.152M61.1901 64.032C62.4301 64.342 64.2102 65.922 64.3102 67.152M64.3102 67.152C64.2102 68.922 64.2802 70.422 64.3102 73.392M64.3102 67.152C64.3902 69.502 64.3602 71.732 64.3102 73.392M64.3102 73.392C65.1202 74.772 62.9601 75.862 61.1901 76.512M64.3102 73.392C63.5702 75.902 62.6201 77.652 61.1901 76.512M61.1901 76.512C52.9701 76.312 42.8801 75.772 23.5301 76.512M61.1901 76.512C49.4301 76.822 38.0901 76.622 23.5301 76.512M23.5301 76.512C21.4101 76.252 20.5101 74.892 20.4101 73.392M23.5301 76.512C21.3601 77.112 19.7601 74.622 20.4101 73.392M20.4101 73.392C20.4301 71.542 20.6301 69.702 20.4101 67.152M20.4101 73.392C20.5301 71.962 20.3701 70.302 20.4101 67.152" stroke="#1E1E1E" stroke-linecap="round"/>
<path d="M25.5848 68.0174C26.5948 67.5274 29.3448 65.0974 31.1148 64.8774C32.8848 64.6474 35.3048 66.2674 36.1948 66.6574M24.9548 67.8074C25.9448 67.3774 28.6648 65.6174 30.7248 65.4874C32.7948 65.3474 36.3748 66.6174 37.3348 66.9974" stroke="#1E1E1E" stroke-linecap="round"/>
<path d="M25.5021 66.9619C26.3521 67.2019 28.7821 68.9819 30.5921 69.0719C32.3921 69.1719 35.3821 67.8519 36.3421 67.5319M24.8921 66.3919C25.9121 66.9119 29.8021 69.2219 31.6521 69.5119C33.4921 69.8119 35.1521 68.5119 35.9421 68.1719" stroke="#1E1E1E" stroke-linecap="round"/>
<path d="M30.8275 66.1094C30.8175 66.3894 30.9875 67.7594 31.0175 68.0394M31.3675 66.7094C31.2875 67.0694 30.8075 68.2794 30.7075 68.5094" stroke="#1E1E1E" stroke-linecap="round"/>
<path d="M23.8899 72.7834C23.9099 73.3334 23.9099 75.1934 23.8799 75.6734M23.4299 72.5034C23.4199 73.1134 23.3999 75.4434 23.5599 76.0134" stroke="#1E1E1E" stroke-linecap="round"/>
<path d="M26.5788 72.0311C26.5388 72.5911 26.3588 75.0411 26.3688 75.6511M27.1788 72.6911C27.2588 73.2911 27.1488 75.4411 27.0188 75.9811" stroke="#1E1E1E" stroke-linecap="round"/>
<path d="M28.9158 71.9559C28.9158 72.5759 29.1458 74.9959 29.1458 75.6659M29.4158 72.6059C29.3858 73.2859 28.8358 75.3859 28.8658 76.0159" stroke="#1E1E1E" stroke-linecap="round"/>
<path d="M32.0889 71.7174C32.1089 72.4674 31.9189 75.4074 31.9289 76.1774M31.6589 72.3874C31.8089 73.0474 32.5489 75.0374 32.5889 75.5974" stroke="#1E1E1E" stroke-linecap="round"/>
<path d="M35.3718 72.4158C35.2918 73.0858 35.2118 75.5658 35.1618 76.1658M35.8818 72.1558C35.7618 72.7458 35.0418 74.9658 34.8718 75.6758" stroke="#1E1E1E" stroke-linecap="round"/>
<path d="M55.8657 35.9223C56.2557 35.8523 56.6957 35.8023 57.3157 35.9223C56.0157 38.1823 57.9757 36.7723 58.0457 36.6523C59.7057 46.6023 56.7457 52.1023 58.0457 63.5523C57.1357 64.1223 58.5957 65.1723 57.3157 64.2723C56.8057 64.1123 56.5357 64.1023 55.8657 64.2723C53.9457 64.6523 54.0257 65.7323 55.1357 63.5523C55.8257 58.5523 54.3557 47.0523 55.1357 36.6523C52.6557 34.5223 54.4757 38.4623 55.8657 35.9223Z" fill="white"/>
<path d="M55.8657 35.9223C56.2457 35.9023 56.5357 35.9123 57.3157 35.9223M55.8657 35.9223C56.2357 35.9423 56.6057 35.9423 57.3157 35.9223M55.8657 35.9223C55.3257 35.9623 54.6557 35.5423 55.1357 36.6523M55.8657 35.9223C54.6457 37.0723 54.8857 36.8623 55.1357 36.6523M57.3157 35.9223C58.5257 36.6623 58.5657 36.8323 58.0457 36.6523M57.3157 35.9223C58.7357 35.1223 57.6857 35.4123 58.0457 36.6523M58.0457 36.6523C59.0857 42.3023 58.0757 48.8223 58.0457 63.5523M58.0457 36.6523C57.7057 46.0123 57.8957 55.5623 58.0457 63.5523M58.0457 63.5523C57.4957 64.4623 57.5257 64.3123 57.3157 64.2723M58.0457 63.5523C57.9957 63.7323 57.9157 63.6023 57.3157 64.2723M57.3157 64.2723C56.8357 64.2823 56.5257 64.2423 55.8657 64.2723M57.3157 64.2723C56.8957 64.2623 56.4157 64.3023 55.8657 64.2723M55.8657 64.2723C56.1857 64.9823 54.9357 64.0423 55.1357 63.5523M55.8657 64.2723C54.4957 64.4423 54.4757 62.9623 55.1357 63.5523M55.1357 63.5523C54.8657 57.9323 54.6457 51.2823 55.1357 36.6523M55.1357 63.5523C55.3657 56.9823 54.7057 50.4423 55.1357 36.6523" stroke="#1E1E1E" stroke-linecap="round"/>
<path d="M53.8208 34.2434C54.4008 33.8934 56.1708 32.2134 57.4008 32.2934C58.6208 32.3734 60.5808 34.2634 61.1708 34.7034M54.4208 33.9734C54.9508 33.6434 56.0008 32.5034 57.1008 32.6834C58.1908 32.8634 60.3508 34.8034 60.9808 35.0734" stroke="#1E1E1E" stroke-linecap="round"/>
<path d="M51.9031 32.3774C52.9531 31.7674 56.2231 28.9274 58.1031 29.0274C59.9831 29.1174 62.3731 32.3074 63.1731 32.9574M51.2031 31.8074C52.2031 31.2774 55.8131 29.6474 57.7331 29.6974C59.6431 29.7374 61.8431 31.6874 62.6831 32.0574" stroke="#1E1E1E" stroke-linecap="round"/>
</svg>
