<svg width="85" height="126" viewBox="0 0 85 126" fill="none" xmlns="http://www.w3.org/2000/svg">
<path d="M21.7347 1.83426C34.9447 4.88426 45.6047 4.17426 62.1347 1.83426C77.2747 2.20426 79.4347 12.1643 82.3347 22.0343C85.9147 48.3643 83.6247 79.7143 82.3347 103.584C81.6747 114.604 75.5747 126.534 62.1347 123.784C47.2047 124.804 33.6647 123.604 21.7347 123.784C8.37468 122.424 3.70468 119.014 1.53468 103.584C4.06468 74.3843 4.62468 50.5243 1.53468 22.0343C1.49468 6.14427 10.4047 -1.45574 21.7347 1.83426Z" fill="white"/>
<path d="M21.7347 1.83426C31.1047 2.46426 39.7347 0.534256 62.1347 1.83426M21.7347 1.83426C35.6747 1.23426 49.9847 1.45426 62.1347 1.83426M21.7347 1.83426C9.94466 0.714256 1.06466 10.2043 1.53466 22.0343M21.7347 1.83426C7.92466 1.06426 3.64466 7.58426 1.53466 22.0343M62.1347 1.83426C73.8247 -0.165744 81.4847 8.41426 82.3347 22.0343M62.1347 1.83426C76.9247 1.15426 81.1747 9.24426 82.3347 22.0343M82.3347 22.0343C84.1547 38.8643 82.1147 54.5543 82.3347 103.584M82.3347 22.0343C82.1447 40.6143 81.8747 57.8143 82.3347 103.584M82.3347 103.584C82.9047 116.504 77.4847 125.184 62.1347 123.784M82.3347 103.584C81.5547 117.164 75.7247 126.034 62.1347 123.784M62.1347 123.784C52.5847 123.164 39.9947 125.154 21.7347 123.784M62.1347 123.784C52.0347 124.064 43.9347 122.594 21.7347 123.784M21.7347 123.784C9.73466 122.444 0.97466 116.784 1.53466 103.584M21.7347 123.784C10.0047 123.044 -0.16534 115.044 1.53466 103.584M1.53466 103.584C0.47466 76.6143 3.01466 46.0343 1.53466 22.0343M1.53466 103.584C1.26466 82.8543 1.98466 59.6443 1.53466 22.0343" stroke="#1E1E1E" stroke-width="2" stroke-linecap="round"/>
<path d="M22.8095 1.66046C34.4195 1.66046 46.0295 1.66046 59.1995 1.66046C61.6795 1.66046 62.9295 2.90046 62.9295 5.39046C62.9295 7.72046 62.9295 10.0505 62.9295 12.8405C62.9295 15.3205 61.6795 16.5605 59.1995 16.5605C51.1795 16.5605 43.1595 16.5605 22.8095 16.5605C20.3195 16.5605 19.0795 15.3205 19.0795 12.8405C19.0795 10.0705 19.0795 7.29046 19.0795 5.39046C19.0795 2.90046 20.3195 1.66046 22.8095 1.66046Z" fill="white"/>
<path d="M22.8095 1.66046C31.8995 1.66046 40.9895 1.66046 59.1995 1.66046M22.8095 1.66046C37.0595 1.66046 51.3095 1.66046 59.1995 1.66046M22.8095 1.66046C20.3195 1.66046 19.0795 2.90046 19.0795 5.39046M59.1995 1.66046C61.6795 1.66046 62.9295 2.90046 62.9295 5.39046M62.9295 5.39046C62.9295 7.23046 62.9295 9.07046 62.9295 12.8405M62.9295 5.39046C62.9295 8.22046 62.9295 11.0405 62.9295 12.8405M62.9295 12.8405C62.9295 15.3205 61.6795 16.5605 59.1995 16.5605M59.1995 16.5605C48.0595 16.5605 36.9295 16.5605 22.8095 16.5605M59.1995 16.5605C51.1795 16.5605 43.1595 16.5605 22.8095 16.5605M22.8095 16.5605C20.3195 16.5605 19.0795 15.3205 19.0795 12.8405M19.0795 12.8405C19.0795 10.5505 19.0795 8.25046 19.0795 5.39046M19.0795 12.8405C19.0795 10.6305 19.0795 8.43046 19.0795 5.39046" stroke="#1E1E1E" stroke-width="2" stroke-linecap="round"/>
<path d="M27.2224 11.4125H25.2614V5.0578H27.3093C27.9257 5.0578 28.4532 5.18502 28.8917 5.43946C29.3303 5.69182 29.6664 6.05486 29.9002 6.52856C30.1339 7.0002 30.2508 7.56492 30.2508 8.22273C30.2508 8.88467 30.1329 9.45457 29.8971 9.93241C29.6613 10.4082 29.3179 10.7743 28.8669 11.0308C28.416 11.2853 27.8678 11.4125 27.2224 11.4125ZM26.0309 10.7298H27.1728C27.6982 10.7298 28.1336 10.6285 28.4791 10.4258C28.8245 10.223 29.0821 9.93448 29.2517 9.56006C29.4213 9.18565 29.5061 8.73987 29.5061 8.22273C29.5061 7.70972 29.4223 7.26808 29.2548 6.8978C29.0872 6.52546 28.8369 6.24 28.5039 6.04141C28.1708 5.84076 27.7561 5.74044 27.2596 5.74044H26.0309V10.7298ZM33.4405 11.5118C32.9813 11.5118 32.5852 11.4104 32.2522 11.2077C31.9212 11.0029 31.6657 10.7174 31.4857 10.3513C31.3078 9.98309 31.2189 9.55489 31.2189 9.06671C31.2189 8.57852 31.3078 8.14826 31.4857 7.77592C31.6657 7.4015 31.916 7.10983 32.2366 6.90091C32.5593 6.68991 32.9358 6.58442 33.3661 6.58442C33.6143 6.58442 33.8594 6.62579 34.1015 6.70853C34.3435 6.79127 34.5638 6.92573 34.7624 7.1119C34.961 7.29601 35.1192 7.5401 35.2371 7.84418C35.355 8.14826 35.414 8.52267 35.414 8.96742V9.2777H31.7402V8.64472H34.6693C34.6693 8.3758 34.6155 8.13585 34.5079 7.92485C34.4024 7.71386 34.2514 7.54734 34.0549 7.42529C33.8605 7.30325 33.6309 7.24222 33.3661 7.24222C33.0744 7.24222 32.822 7.31462 32.609 7.45942C32.398 7.60216 32.2356 7.78833 32.1218 8.01794C32.0081 8.24755 31.9512 8.49371 31.9512 8.75642V9.17841C31.9512 9.53834 32.0132 9.84346 32.1373 10.0938C32.2635 10.342 32.4383 10.5313 32.6617 10.6616C32.8851 10.7898 33.1447 10.854 33.4405 10.854C33.6329 10.854 33.8067 10.8271 33.9618 10.7733C34.119 10.7174 34.2545 10.6347 34.3683 10.5251C34.4821 10.4134 34.57 10.2748 34.632 10.1093L35.3395 10.3079C35.265 10.5478 35.1399 10.7588 34.9641 10.9408C34.7882 11.1208 34.571 11.2615 34.3125 11.3628C34.0539 11.4621 33.7632 11.5118 33.4405 11.5118ZM36.5279 11.4125V6.64647H37.2354V7.36634H37.285C37.3719 7.13052 37.5291 6.93918 37.7566 6.79231C37.9842 6.64544 38.2407 6.572 38.5261 6.572C38.5799 6.572 38.6472 6.57304 38.7278 6.57511C38.8085 6.57718 38.8695 6.58028 38.9109 6.58442V7.3291C38.8861 7.3229 38.8292 7.31359 38.7402 7.30118C38.6534 7.2867 38.5613 7.27946 38.4641 7.27946C38.2324 7.27946 38.0256 7.32807 37.8435 7.42529C37.6635 7.52045 37.5208 7.65284 37.4153 7.82246C37.3119 7.99001 37.2602 8.18136 37.2602 8.39649V11.4125H36.5279ZM39.7789 11.4125V6.64647H40.5112V11.4125H39.7789ZM40.1513 5.85214C40.0085 5.85214 39.8855 5.80353 39.782 5.7063C39.6807 5.60908 39.63 5.49221 39.63 5.35568C39.63 5.21915 39.6807 5.10228 39.782 5.00506C39.8855 4.90783 40.0085 4.85922 40.1513 4.85922C40.294 4.85922 40.4161 4.90783 40.5174 5.00506C40.6208 5.10228 40.6726 5.21915 40.6726 5.35568C40.6726 5.49221 40.6208 5.60908 40.5174 5.7063C40.4161 5.80353 40.294 5.85214 40.1513 5.85214ZM45.7496 6.64647L43.9872 11.4125H43.2425L41.4801 6.64647H42.2744L43.59 10.4444H43.6397L44.9553 6.64647H45.7496ZM47.9736 11.5242C47.6716 11.5242 47.3975 11.4673 47.1513 11.3535C46.9052 11.2377 46.7097 11.0712 46.5649 10.854C46.4201 10.6347 46.3477 10.3699 46.3477 10.0596C46.3477 9.78657 46.4015 9.56524 46.509 9.39561C46.6166 9.22392 46.7604 9.08946 46.9403 8.99224C47.1203 8.89502 47.3189 8.82262 47.5361 8.77504C47.7554 8.72539 47.9757 8.68609 48.197 8.65713C48.4866 8.6199 48.7214 8.59197 48.9014 8.57335C49.0834 8.55267 49.2158 8.51854 49.2985 8.47096C49.3833 8.42338 49.4257 8.34064 49.4257 8.22273V8.19791C49.4257 7.89176 49.342 7.65387 49.1744 7.48425C49.0089 7.31462 48.7576 7.22981 48.4204 7.22981C48.0708 7.22981 47.7967 7.30635 47.5982 7.45942C47.3996 7.6125 47.2599 7.77592 47.1793 7.94968L46.4842 7.70145C46.6083 7.41185 46.7738 7.18637 46.9807 7.02502C47.1896 6.8616 47.4172 6.74783 47.6633 6.68371C47.9115 6.61751 48.1556 6.58442 48.3956 6.58442C48.5487 6.58442 48.7245 6.60303 48.9231 6.64027C49.1237 6.67543 49.3171 6.74887 49.5033 6.86057C49.6916 6.97227 49.8477 7.14086 49.9718 7.36634C50.096 7.59181 50.158 7.89382 50.158 8.27237V11.4125H49.4257V10.7671H49.3885C49.3389 10.8705 49.2561 10.9812 49.1403 11.0991C49.0244 11.217 48.8703 11.3173 48.678 11.4001C48.4856 11.4828 48.2508 11.5242 47.9736 11.5242ZM48.0853 10.8664C48.3749 10.8664 48.619 10.8095 48.8176 10.6957C49.0182 10.5819 49.1692 10.4351 49.2706 10.2551C49.374 10.0751 49.4257 9.88587 49.4257 9.68728V9.01706C49.3947 9.0543 49.3264 9.08843 49.221 9.11946C49.1175 9.14842 48.9975 9.17427 48.861 9.19703C48.7266 9.21771 48.5952 9.23633 48.467 9.25288C48.3408 9.26736 48.2384 9.27977 48.1598 9.29011C47.9695 9.31494 47.7916 9.35528 47.6261 9.41113C47.4627 9.46491 47.3303 9.54662 47.2289 9.65625C47.1296 9.76382 47.08 9.91069 47.08 10.0969C47.08 10.3513 47.1741 10.5437 47.3623 10.674C47.5526 10.8022 47.7936 10.8664 48.0853 10.8664ZM53.2942 11.5118C52.8971 11.5118 52.5464 11.4114 52.2424 11.2108C51.9383 11.0081 51.7004 10.7226 51.5287 10.3544C51.357 9.98412 51.2712 9.54662 51.2712 9.04189C51.2712 8.54129 51.357 8.10689 51.5287 7.73868C51.7004 7.37047 51.9393 7.08605 52.2455 6.88539C52.5516 6.68474 52.9053 6.58442 53.3067 6.58442C53.6169 6.58442 53.8621 6.63613 54.042 6.73956C54.2241 6.84092 54.3627 6.95676 54.4578 7.08708C54.555 7.21533 54.6305 7.32083 54.6843 7.40357H54.7464V5.0578H55.4787V11.4125H54.7712V10.6802H54.6843C54.6305 10.7671 54.554 10.8767 54.4547 11.0091C54.3554 11.1394 54.2137 11.2563 54.0296 11.3597C53.8455 11.4611 53.6004 11.5118 53.2942 11.5118ZM53.3935 10.854C53.6873 10.854 53.9355 10.7774 54.1382 10.6243C54.3409 10.4692 54.495 10.2551 54.6005 9.98205C54.706 9.70693 54.7588 9.38941 54.7588 9.02947C54.7588 8.67368 54.7071 8.36236 54.6036 8.09551C54.5002 7.8266 54.3471 7.61767 54.1444 7.46873C53.9417 7.31773 53.6914 7.24222 53.3935 7.24222C53.0832 7.24222 52.8247 7.32186 52.6178 7.48114C52.413 7.63836 52.2589 7.85245 52.1555 8.12344C52.0541 8.39235 52.0034 8.69436 52.0034 9.02947C52.0034 9.36872 52.0552 9.67694 52.1586 9.95413C52.2641 10.2292 52.4192 10.4485 52.624 10.6119C52.8309 10.7733 53.0874 10.854 53.3935 10.854ZM58.324 11.5242C58.022 11.5242 57.7479 11.4673 57.5017 11.3535C57.2556 11.2377 57.0601 11.0712 56.9153 10.854C56.7705 10.6347 56.6981 10.3699 56.6981 10.0596C56.6981 9.78657 56.7519 9.56524 56.8594 9.39561C56.967 9.22392 57.1108 9.08946 57.2907 8.99224C57.4707 8.89502 57.6693 8.82262 57.8865 8.77504C58.1058 8.72539 58.3261 8.68609 58.5474 8.65713C58.837 8.6199 59.0718 8.59197 59.2517 8.57335C59.4338 8.55267 59.5662 8.51854 59.6489 8.47096C59.7337 8.42338 59.7761 8.34064 59.7761 8.22273V8.19791C59.7761 7.89176 59.6923 7.65387 59.5248 7.48425C59.3593 7.31462 59.108 7.22981 58.7708 7.22981C58.4212 7.22981 58.1471 7.30635 57.9485 7.45942C57.75 7.6125 57.6103 7.77592 57.5297 7.94968L56.8346 7.70145C56.9587 7.41185 57.1242 7.18637 57.3311 7.02502C57.54 6.8616 57.7675 6.74783 58.0137 6.68371C58.2619 6.61751 58.506 6.58442 58.746 6.58442C58.899 6.58442 59.0749 6.60303 59.2735 6.64027C59.4741 6.67543 59.6675 6.74887 59.8537 6.86057C60.0419 6.97227 60.1981 7.14086 60.3222 7.36634C60.4463 7.59181 60.5084 7.89382 60.5084 8.27237V11.4125H59.7761V10.7671H59.7389C59.6892 10.8705 59.6065 10.9812 59.4907 11.0991C59.3748 11.217 59.2207 11.3173 59.0283 11.4001C58.836 11.4828 58.6012 11.5242 58.324 11.5242ZM58.4357 10.8664C58.7253 10.8664 58.9694 10.8095 59.168 10.6957C59.3686 10.5819 59.5196 10.4351 59.621 10.2551C59.7244 10.0751 59.7761 9.88587 59.7761 9.68728V9.01706C59.7451 9.0543 59.6768 9.08843 59.5713 9.11946C59.4679 9.14842 59.3479 9.17427 59.2114 9.19703C59.0769 9.21771 58.9456 9.23633 58.8173 9.25288C58.6912 9.26736 58.5888 9.27977 58.5102 9.29011C58.3198 9.31494 58.142 9.35528 57.9765 9.41113C57.813 9.46491 57.6807 9.54662 57.5793 9.65625C57.48 9.76382 57.4304 9.91069 57.4304 10.0969C57.4304 10.3513 57.5245 10.5437 57.7127 10.674C57.903 10.8022 58.144 10.8664 58.4357 10.8664Z" fill="#1E1E1E"/>
<path d="M10.0974 89.9962C21.0874 89.9962 65.0674 89.9962 76.0574 89.9962" stroke="#1E1E1E" stroke-width="2" stroke-linecap="round"/>
<path d="M23.0002 49.8086C22.2729 49.8086 21.6309 49.6249 21.0741 49.2575C20.5173 48.8863 20.0816 48.3636 19.7673 47.6893C19.4529 47.0113 19.2957 46.2102 19.2957 45.2859C19.2957 44.3693 19.4529 43.5738 19.7673 42.8996C20.0816 42.2253 20.5191 41.7045 21.0798 41.3371C21.6404 40.9696 22.2881 40.7859 23.0229 40.7859C23.5911 40.7859 24.04 40.8806 24.3695 41.07C24.7029 41.2556 24.9566 41.4677 25.1309 41.7064C25.3089 41.9412 25.4472 42.1344 25.5457 42.2859H25.6593V37.9905H27.0002V49.6268H25.7048V48.2859H25.5457C25.4472 48.445 25.307 48.6458 25.1252 48.8882C24.9434 49.1268 24.6839 49.3408 24.3468 49.5302C24.0097 49.7158 23.5608 49.8086 23.0002 49.8086ZM23.182 48.6041C23.7199 48.6041 24.1744 48.464 24.5457 48.1836C24.9169 47.8996 25.1991 47.5075 25.3923 47.0075C25.5854 46.5037 25.682 45.9223 25.682 45.2632C25.682 44.6117 25.5873 44.0416 25.3979 43.553C25.2085 43.0605 24.9282 42.678 24.557 42.4052C24.1858 42.1287 23.7275 41.9905 23.182 41.9905C22.6138 41.9905 22.1404 42.1363 21.7616 42.428C21.3866 42.7158 21.1044 43.1079 20.915 43.6041C20.7294 44.0965 20.6366 44.6496 20.6366 45.2632C20.6366 45.8844 20.7313 46.4488 20.9207 46.9564C21.1138 47.4602 21.3979 47.8617 21.7729 48.1609C22.1517 48.4564 22.6214 48.6041 23.182 48.6041Z" fill="#1E1E1E"/>
<path d="M18.5002 69.8086C17.7729 69.8086 17.1309 69.6249 16.5741 69.2575C16.0173 68.8863 15.5816 68.3636 15.2673 67.6893C14.9529 67.0113 14.7957 66.2102 14.7957 65.2859C14.7957 64.3693 14.9529 63.5738 15.2673 62.8996C15.5816 62.2253 16.0191 61.7045 16.5798 61.3371C17.1404 60.9696 17.7881 60.7859 18.5229 60.7859C19.0911 60.7859 19.54 60.8806 19.8695 61.07C20.2029 61.2556 20.4566 61.4677 20.6309 61.7064C20.8089 61.9412 20.9472 62.1344 21.0457 62.2859H21.1593V57.9905H22.5002V69.6268H21.2048V68.2859H21.0457C20.9472 68.445 20.807 68.6458 20.6252 68.8882C20.4434 69.1268 20.1839 69.3408 19.8468 69.5302C19.5097 69.7158 19.0608 69.8086 18.5002 69.8086ZM18.682 68.6041C19.2199 68.6041 19.6744 68.464 20.0457 68.1836C20.4169 67.8996 20.6991 67.5075 20.8923 67.0075C21.0854 66.5037 21.182 65.9223 21.182 65.2632C21.182 64.6117 21.0873 64.0416 20.8979 63.553C20.7085 63.0605 20.4282 62.678 20.057 62.4052C19.6858 62.1287 19.2275 61.9905 18.682 61.9905C18.1138 61.9905 17.6404 62.1363 17.2616 62.428C16.8866 62.7158 16.6044 63.1079 16.415 63.6041C16.2294 64.0965 16.1366 64.6496 16.1366 65.2632C16.1366 65.8844 16.2313 66.4488 16.4207 66.9564C16.6138 67.4602 16.8979 67.8617 17.2729 68.1609C17.6517 68.4564 18.1214 68.6041 18.682 68.6041ZM26.1423 60.8996L28.2332 64.4677L30.3241 60.8996H31.8695L29.0513 65.2632L31.8695 69.6268H30.3241L28.2332 66.2405L26.1423 69.6268H24.5968L27.3695 65.2632L24.5968 60.8996H26.1423Z" fill="#1E1E1E"/>
<path d="M36.2752 53.8344C36.2752 51.0478 36.6364 48.486 37.3588 46.1491C38.0887 43.8048 39.1281 41.6485 40.4772 39.6802H42.7772C42.2464 40.41 41.7488 41.3094 41.2844 42.3784C40.8273 43.4399 40.4256 44.6084 40.0791 45.8837C39.7326 47.1517 39.4598 48.4639 39.2608 49.8204C39.0691 51.1768 38.9733 52.5148 38.9733 53.8344C38.9733 55.5889 39.1428 57.3693 39.482 59.1754C39.8211 60.9815 40.2781 62.6587 40.8531 64.2068C41.4282 65.7549 42.0695 67.0155 42.7772 67.9886H40.4772C39.1281 66.0203 38.0887 63.8677 37.3588 61.5308C36.6364 59.1865 36.2752 56.621 36.2752 53.8344ZM60.9593 53.8344C60.9593 56.621 60.5944 59.1865 59.8645 61.5308C59.1421 63.8677 58.1063 66.0203 56.7573 67.9886H54.4572C54.988 67.2588 55.4819 66.3594 55.939 65.2905C56.4034 64.2289 56.8089 63.0641 57.1553 61.7961C57.5018 60.5208 57.7709 59.2049 57.9626 57.8485C58.1616 56.4846 58.2611 55.1466 58.2611 53.8344C58.2611 52.0799 58.0916 50.2996 57.7525 48.4934C57.4134 46.6873 56.9563 45.0102 56.3813 43.462C55.8063 41.9139 55.1649 40.6533 54.4572 39.6802H56.7573C58.1063 41.6485 59.1421 43.8048 59.8645 46.1491C60.5944 48.486 60.9593 51.0478 60.9593 53.8344Z" fill="#1E1E1E"/>
<path d="M12.1357 54.0037C15.4257 53.9637 28.7757 54.2637 32.2157 54.2837M12.8857 54.9137C16.0957 54.9537 28.3857 55.0037 31.6657 54.9637" stroke="#1E1E1E" stroke-width="2" stroke-linecap="round"/>
<path d="M50.0826 47.0586C52.4726 46.9186 53.7826 47.0586 55.9326 47.0586C59.8726 49.0686 56.6326 45.9686 58.8626 49.9886C59.1226 53.9786 58.3126 58.8686 58.8626 62.7486C60.2826 65.2386 57.7226 67.5486 55.9326 65.6786C53.6126 65.7286 51.1226 66.1886 50.0826 65.6786C45.7526 66.4686 47.4326 62.9486 47.1526 62.7486C46.9726 59.2586 48.4526 56.1486 47.1526 49.9886C45.2926 49.8786 46.5126 48.9786 50.0826 47.0586Z" fill="white"/>
<path d="M50.0826 47.0586C51.2926 47.2386 52.4626 46.9186 55.9326 47.0586M50.0826 47.0586C51.9326 47.1186 53.9626 46.9686 55.9326 47.0586M50.0826 47.0586C48.2326 46.2486 47.8426 48.4986 47.1526 49.9886M50.0826 47.0586C49.2326 47.2086 48.3026 48.5586 47.1526 49.9886M55.9326 47.0586C57.6926 46.2786 58.5126 48.8286 58.8626 49.9886M55.9326 47.0586C57.9926 47.6486 58.6626 47.6286 58.8626 49.9886M58.8626 49.9886C59.2926 53.9586 58.8826 58.4086 58.8626 62.7486M58.8626 49.9886C58.8726 55.3586 58.7526 60.2386 58.8626 62.7486M58.8626 62.7486C59.5326 64.0586 58.3926 64.8786 55.9326 65.6786M58.8626 62.7486C58.2226 65.3886 58.9026 64.6786 55.9326 65.6786M55.9326 65.6786C53.7126 65.8886 51.4726 65.4486 50.0826 65.6786M55.9326 65.6786C54.7026 65.6186 53.5826 65.7986 50.0826 65.6786M50.0826 65.6786C48.1826 65.3386 46.7926 64.6586 47.1526 62.7486M50.0826 65.6786C47.4826 66.7686 47.3326 64.0286 47.1526 62.7486M47.1526 62.7486C46.7426 59.8086 46.8326 55.5986 47.1526 49.9886M47.1526 62.7486C47.2026 59.3986 47.4326 55.8286 47.1526 49.9886" stroke="#1E1E1E" stroke-linecap="round"/>
<path d="M49.9349 46.7166C51.2549 46.7266 54.3249 47.3666 56.2749 46.7166C56.1549 44.6466 59.6649 48.9266 59.4449 49.8866C58.8349 55.4466 60.3649 59.3366 59.4449 62.6766C59.2749 66.6566 60.1449 63.6366 56.2749 65.8466C53.2849 66.3366 50.6649 66.0966 49.9349 65.8466C48.1049 64.0966 45.0649 66.7866 46.7649 62.6766C48.1949 57.1966 45.5849 54.1266 46.7649 49.8866C45.1449 49.6966 50.0849 45.0366 49.9349 46.7166Z" fill="white"/>
<path d="M49.9349 46.7166C51.4749 46.5366 53.2949 46.3866 56.2749 46.7166M49.9349 46.7166C52.3649 46.6266 54.7049 46.5766 56.2749 46.7166M49.9349 46.7166C48.8249 47.1766 46.8649 46.9666 46.7649 49.8866M49.9349 46.7166C48.5149 46.1266 47.8649 47.9166 46.7649 49.8866M56.2749 46.7166C58.0349 47.5166 59.5349 48.2866 59.4449 49.8866M56.2749 46.7166C58.1849 46.3066 59.7649 47.4666 59.4449 49.8866M59.4449 49.8866C59.5149 54.9666 60.1149 59.8466 59.4449 62.6766M59.4449 49.8866C59.3449 53.2666 59.6549 56.2466 59.4449 62.6766M59.4449 62.6766C59.9449 63.9966 57.8249 66.4466 56.2749 65.8466M59.4449 62.6766C60.4549 63.7866 59.2249 65.0766 56.2749 65.8466M56.2749 65.8466C54.4449 65.6366 52.5449 66.0366 49.9349 65.8466M56.2749 65.8466C54.4049 65.9566 52.2449 65.7766 49.9349 65.8466M49.9349 65.8466C47.4549 65.8066 46.2049 65.7466 46.7649 62.6766M49.9349 65.8466C48.0049 65.1766 46.4949 65.7266 46.7649 62.6766M46.7649 62.6766C46.5249 57.6766 46.5849 52.9366 46.7649 49.8866M46.7649 62.6766C47.0349 59.4166 46.9749 56.5266 46.7649 49.8866" stroke="#1E1E1E" stroke-width="0.5" stroke-linecap="round"/>
<path d="M50.3649 47.512C52.3949 47.262 54.4849 47.382 55.8249 47.512M50.3649 47.512C52.2949 47.412 54.2349 47.632 55.8249 47.512M50.3649 47.512C49.5049 47.642 48.6349 48.882 47.6349 50.242M50.3649 47.512C48.5149 47.932 48.3349 47.832 47.6349 50.242M55.8249 47.512C57.7349 48.022 58.3849 48.072 58.5549 50.242M55.8249 47.512C57.9749 47.202 59.6349 49.232 58.5549 50.242M58.5549 50.242C59.1549 53.362 58.2949 56.742 58.5549 62.392M58.5549 50.242C58.7449 54.802 58.6949 59.512 58.5549 62.392M58.5549 62.392C57.9949 64.812 58.5249 64.252 55.8249 65.122M58.5549 62.392C59.3949 63.442 57.3249 64.972 55.8249 65.122M55.8249 65.122C53.5349 65.242 51.7749 65.122 50.3649 65.122M55.8249 65.122C54.4449 65.092 52.9949 65.132 50.3649 65.122M50.3649 65.122C47.9849 66.072 47.7949 63.632 47.6349 62.392M50.3649 65.122C48.2749 66.062 48.5949 63.562 47.6349 62.392M47.6349 62.392C47.4549 57.702 47.3349 52.982 47.6349 50.242M47.6349 62.392C47.7949 58.672 47.6149 54.432 47.6349 50.242" stroke="#1E1E1E" stroke-width="0.5" stroke-linecap="round"/>
<path d="M52.671 51.5074C53.361 51.3674 54.331 51.6274 55.071 52.0874C55.811 52.5374 56.811 53.4774 57.091 54.2274C57.381 54.9774 57.181 55.8674 56.771 56.5674C56.361 57.2774 55.421 58.0674 54.641 58.4474C53.861 58.8374 52.801 59.1174 52.071 58.8774C51.341 58.6474 50.711 57.7274 50.251 57.0574C49.801 56.3774 49.271 55.5874 49.361 54.8274C49.451 54.0774 50.211 53.0774 50.771 52.5374C51.331 51.9974 52.311 51.7574 52.721 51.5874C53.141 51.4174 53.191 51.4374 53.241 51.5274M52.461 51.8774C53.261 51.7474 54.931 51.4074 55.711 51.7274C56.501 52.0474 57.051 53.0074 57.181 53.7974C57.301 54.5974 56.821 55.7774 56.491 56.5074C56.161 57.2274 55.971 57.8874 55.201 58.1674C54.431 58.4374 52.671 58.2874 51.861 58.1474C51.051 58.0074 50.741 57.8974 50.331 57.3174C49.921 56.7374 49.291 55.3574 49.381 54.6474C49.471 53.9374 50.301 53.5974 50.861 53.0574C51.431 52.5174 52.491 51.6474 52.771 51.4074C53.051 51.1674 52.611 51.4574 52.571 51.6274" stroke="#1E1E1E" stroke-width="0.5" stroke-linecap="round"/>
<path d="M51.5034 53.9142C51.7134 53.9342 52.2834 54.1242 52.4634 54.2242C52.6534 54.3242 52.6434 54.3742 52.5934 54.5242C52.5534 54.6642 52.3334 54.9242 52.2134 55.1042C52.0934 55.2842 51.9534 55.5842 51.8634 55.5942C51.7834 55.5942 51.8334 55.2542 51.7134 55.1542C51.5934 55.0542 51.1934 55.1042 51.1434 54.9942C51.0834 54.8842 51.3834 54.6142 51.3834 54.4842C51.3834 54.3442 51.0534 54.2842 51.1634 54.1942C51.2834 54.0942 51.9534 53.9142 52.0734 53.9242C52.2034 53.9442 51.9734 54.2142 51.8834 54.2742M52.0834 53.6042C52.3334 53.4742 52.4534 53.6642 52.4734 53.8042C52.5034 53.9342 52.2134 54.2542 52.2634 54.4142C52.3134 54.5742 52.8534 54.6942 52.7634 54.7542C52.6634 54.8142 51.8434 54.6942 51.6934 54.8042C51.5434 54.9042 51.9334 55.3842 51.8534 55.3842C51.7834 55.3942 51.2834 54.8842 51.2234 54.8342C51.1634 54.7742 51.5034 55.1742 51.5134 55.0542C51.5134 54.9242 51.2634 54.2442 51.2534 54.0742C51.2434 53.8942 51.4434 53.9442 51.4634 54.0142C51.4834 54.0942 51.3234 54.5642 51.3634 54.5242" stroke="#1E1E1E" stroke-width="0.5" stroke-linecap="round"/>
<path d="M54.5106 54.0498C54.7206 54.0498 54.8106 53.9998 54.8706 54.0998C54.9206 54.1898 54.8406 54.4298 54.8306 54.6198C54.8206 54.8198 54.8006 55.1898 54.7906 55.2698C54.7806 55.3598 54.8806 55.1298 54.7606 55.1398C54.6406 55.1398 54.1906 55.3198 54.0706 55.2798C53.9406 55.2498 54.1106 55.0498 54.0006 54.9298C53.9006 54.8198 53.4206 54.7298 53.4306 54.5898C53.4506 54.4398 53.9506 54.1298 54.1106 54.0798C54.2606 54.0198 54.3606 54.2198 54.3606 54.2398C54.3506 54.2698 54.1106 54.2598 54.0506 54.1998M54.7006 53.6898C54.7506 53.7598 54.5206 54.0198 54.6206 54.1498C54.7306 54.2698 55.3606 54.3798 55.3406 54.4498C55.3106 54.5198 54.5706 54.4398 54.4606 54.5998C54.3606 54.7498 54.7806 55.2998 54.7006 55.3698C54.6306 55.4398 54.1006 55.0098 54.0006 54.9998C53.9006 54.9998 54.1606 55.4398 54.1006 55.3298C54.0406 55.2098 53.6906 54.5198 53.6306 54.3098C53.5606 54.1098 53.6206 54.0798 53.6906 54.1098C53.7606 54.1398 53.9306 54.5598 54.0506 54.4998C54.1706 54.4398 54.3906 53.7498 54.4106 53.7498" stroke="#1E1E1E" stroke-width="0.5" stroke-linecap="round"/>
<path d="M53.1802 55.9369C53.3502 55.9269 53.4902 56.0969 53.6402 56.2769C53.7902 56.4569 53.9802 56.8669 54.1002 57.0269C54.2102 57.1869 54.4202 57.1069 54.3302 57.2369C54.2402 57.3669 53.7502 57.7269 53.5402 57.8069C53.3402 57.8969 53.3302 57.8269 53.0702 57.7669C52.8102 57.7069 52.1102 57.6469 51.9702 57.4669C51.8402 57.2869 52.1702 56.8769 52.2402 56.7169C52.3102 56.5469 52.3002 56.5669 52.3902 56.4769C52.4902 56.3869 52.7502 56.2769 52.8102 56.1669C52.8702 56.0569 52.7002 55.7969 52.7702 55.8269M52.7702 55.9369C53.0002 55.9269 53.8802 55.9369 54.0502 55.9769C54.2202 56.0169 53.7302 55.9669 53.7902 56.2069C53.8502 56.4369 54.4302 57.1469 54.4102 57.3669C54.3802 57.5869 53.8402 57.3769 53.6602 57.5269C53.4702 57.6769 53.5502 58.2869 53.3102 58.2569C53.0702 58.2269 52.4702 57.5669 52.2102 57.3469C51.9502 57.1169 51.7902 56.9769 51.7502 56.8869C51.7002 56.7869 51.7302 56.9769 51.9402 56.7869C52.1502 56.5869 52.8502 55.7769 52.9902 55.7169C53.1302 55.6569 52.7402 56.4169 52.7902 56.4369" stroke="#1E1E1E" stroke-width="0.5" stroke-linecap="round"/>
<path d="M53.3931 57.0237C53.3631 57.0837 53.4031 57.2837 53.4731 57.2637C53.5431 57.2337 53.7931 56.9137 53.8131 56.8837C53.8431 56.8537 53.5831 57.0537 53.5931 57.0737C53.6031 57.1037 53.9031 57.0337 53.8631 57.0337C53.8231 57.0437 53.3631 57.1337 53.3431 57.1137C53.3231 57.1037 53.7231 56.9337 53.7531 56.9537C53.7931 56.9637 53.6331 57.1937 53.5431 57.2237C53.4631 57.2437 53.3031 57.1937 53.2531 57.1137C53.2031 57.0337 53.1731 56.7237 53.2531 56.7337C53.3331 56.7537 53.7231 57.1437 53.7231 57.2237M53.8831 56.7637C53.8631 56.7037 53.1931 56.4537 53.1831 56.5037C53.1831 56.5537 53.7731 57.0237 53.8531 57.0837C53.9231 57.1337 53.5931 56.7537 53.6131 56.8237C53.6431 56.8937 54.0231 57.4837 54.0131 57.5037C53.9931 57.5137 53.6531 57.0037 53.5231 56.9237C53.4031 56.8537 53.3331 56.9537 53.2731 57.0437C53.2131 57.1337 53.1131 57.5437 53.1631 57.4837C53.2031 57.4237 53.5031 56.6837 53.5431 56.6637C53.5831 56.6337 53.3231 57.3337 53.3831 57.3337C53.4531 57.3337 53.8331 56.7437 53.9231 56.6437" stroke="#1E1E1E" stroke-width="0.5" stroke-linecap="round"/>
<path d="M50.5212 51.726C50.6812 51.676 51.1412 51.626 51.2212 51.786C51.3012 51.946 50.9912 52.426 51.0112 52.686C51.0312 52.936 51.3612 53.176 51.3412 53.336C51.3112 53.496 51.0612 53.626 50.8712 53.636C50.6812 53.646 50.3212 53.526 50.2112 53.406C50.0912 53.276 50.2412 53.086 50.1612 52.896C50.0812 52.716 49.7012 52.436 49.7512 52.286C49.8012 52.126 50.3612 52.146 50.4712 51.966C50.5712 51.796 50.3312 51.286 50.3712 51.236C50.4112 51.186 50.6112 51.596 50.6912 51.666M50.9012 51.596C51.0612 51.596 50.9012 52.046 51.0212 52.096C51.1412 52.146 51.5212 51.766 51.6112 51.896C51.7112 52.026 51.7412 52.686 51.6112 52.886C51.4812 53.086 50.9912 53.076 50.8412 53.086C50.6912 53.106 50.8012 52.976 50.6912 52.966C50.5812 52.956 50.3712 53.196 50.2012 53.036C50.0212 52.876 49.5712 52.136 49.6312 51.986C49.7012 51.836 50.4212 52.236 50.5812 52.126C50.7512 52.016 50.5312 51.476 50.6112 51.346C50.6912 51.216 51.1112 51.226 51.0612 51.326" fill="white"/>
<path d="M50.5112 51.806C50.7112 51.756 51.1412 51.516 51.2712 51.596C51.4012 51.676 51.2412 52.086 51.2912 52.306C51.3312 52.526 51.6312 52.716 51.5312 52.896C51.4412 53.086 50.8612 53.366 50.7212 53.436C50.5912 53.506 50.8112 53.356 50.7212 53.326C50.6312 53.296 50.3212 53.376 50.1612 53.236C50.0012 53.096 49.7912 52.796 49.7512 52.516C49.7112 52.236 49.7412 51.686 49.9212 51.556C50.0912 51.436 50.7512 51.756 50.8212 51.786C50.8912 51.826 50.4212 51.806 50.3512 51.756M50.2412 51.066C50.3612 51.086 51.1312 51.636 51.3112 51.806C51.4812 51.976 51.2512 51.806 51.3112 52.066C51.3712 52.326 51.7412 53.176 51.6712 53.376C51.6012 53.576 51.1312 53.236 50.8912 53.246C50.6512 53.256 50.4112 53.366 50.2312 53.406C50.0412 53.446 49.8012 53.706 49.7712 53.486C49.7412 53.256 50.0012 52.266 50.0512 52.046C50.0912 51.826 49.9012 52.286 50.0712 52.156C50.2312 52.016 50.8612 51.356 51.0312 51.216C51.1912 51.076 51.1512 51.266 51.0712 51.306" stroke="white" stroke-width="0.5" stroke-linecap="round"/>
<path fill-rule="evenodd" clip-rule="evenodd" d="M49.3184 53.6001C49.4298 53.9796 49.2712 54.2183 49.7796 53.9963C50.2979 53.7751 52.0322 52.8643 52.3999 52.2505C52.7577 51.6359 52.3058 50.3278 51.9569 50.3011" fill="white"/>
<path d="M49.2852 52.1935C49.4526 52.3667 49.9609 53.3281 50.3675 53.5196C50.7742 53.7111 51.5971 53.7036 51.705 53.3408C51.8229 52.9787 51.1432 51.6331 51.0541 51.3556M48.8547 51.7896C48.9799 51.9897 49.6391 53.7348 50.1178 53.9017C50.5865 54.0679 51.5392 53.1476 51.6977 52.7786C51.8563 52.4096 51.1849 52.0074 51.0382 51.6953" stroke="#1E1E1E" stroke-width="0.5" stroke-linecap="round"/>
<path fill-rule="evenodd" clip-rule="evenodd" d="M49.7938 53.4169C49.9507 53.5967 49.7403 53.1822 50.1125 52.6747C50.4862 52.1772 51.7359 50.8076 52.0119 50.4048" fill="white"/>
<path d="M49.6208 52.0578C49.8612 52.1145 50.6218 52.4912 50.8608 52.3966C51.1084 52.2907 51.024 51.5553 51.0991 51.4436M49.2052 51.7633C49.4131 51.7338 50.4058 51.8957 50.6915 51.9157C50.9672 51.9371 50.7734 51.9949 50.8683 51.8804" stroke="#1E1E1E" stroke-width="0.5" stroke-linecap="round"/>
<path d="M55.9725 51.718C56.1525 51.688 56.2325 51.758 56.2825 51.848C56.3325 51.928 56.2525 52.058 56.2925 52.228C56.3225 52.388 56.5825 52.658 56.4925 52.838C56.4125 53.028 55.9025 53.208 55.7925 53.328C55.6825 53.448 55.9625 53.698 55.8225 53.578C55.6825 53.458 55.0425 52.818 54.9425 52.608C54.8325 52.408 55.0825 52.508 55.1825 52.348C55.2925 52.188 55.4625 51.838 55.5725 51.658C55.6825 51.478 55.7625 51.278 55.8425 51.278C55.9225 51.268 56.0425 51.568 56.0525 51.598M56.3025 51.298C56.3825 51.318 56.2025 51.278 56.2825 51.378C56.3625 51.468 56.7325 51.598 56.7625 51.878C56.8025 52.158 56.6825 52.848 56.4825 53.048C56.2925 53.238 55.7225 52.928 55.6225 53.038C55.5225 53.138 55.9625 53.748 55.8925 53.678C55.8125 53.618 55.2325 52.928 55.1825 52.628C55.1325 52.338 55.6125 52.038 55.6025 51.918C55.5825 51.798 55.0925 51.938 55.0825 51.918C55.0825 51.888 55.3725 51.908 55.5725 51.778C55.7825 51.638 56.3125 51.218 56.3125 51.098" fill="white"/>
<path d="M56.0925 51.338C56.2025 51.318 55.9525 51.498 56.0625 51.618C56.1725 51.738 56.6825 51.818 56.7525 52.058C56.8325 52.298 56.6525 52.828 56.5025 53.068C56.3525 53.298 56.0425 53.458 55.8525 53.478C55.6625 53.488 55.4125 53.198 55.3525 53.158C55.2825 53.118 55.5325 53.338 55.4525 53.228C55.3725 53.128 54.9125 52.798 54.8525 52.518C54.8025 52.248 54.9825 51.718 55.1325 51.578C55.2725 51.428 55.6525 51.718 55.7425 51.648C55.8425 51.578 55.7425 51.168 55.7025 51.168M56.2925 51.808C56.4225 51.808 56.2825 51.408 56.2725 51.478C56.2725 51.548 56.3125 51.908 56.2825 52.228C56.2525 52.548 56.1225 53.258 56.0825 53.388C56.0525 53.528 56.2025 52.988 56.0925 53.048C55.9825 53.098 55.5125 53.798 55.4425 53.728C55.3625 53.648 55.6125 52.878 55.6425 52.578C55.6725 52.288 55.6725 52.168 55.6125 51.978C55.5625 51.788 55.2725 51.588 55.3225 51.448C55.3625 51.298 55.7825 51.118 55.8825 51.128C55.9825 51.138 55.8525 51.478 55.9225 51.508" stroke="white" stroke-width="0.5" stroke-linecap="round"/>
<path fill-rule="evenodd" clip-rule="evenodd" d="M57.5014 51.1095C57.0967 51.6375 55.5425 54.366 55.2906 54.4688C55.0387 54.5715 55.8512 52.421 55.9702 51.7277C56.0793 51.0353 56.2036 50.4018 55.9846 50.3109" fill="white"/>
<path d="M56.7849 52.3078C56.5852 52.5464 56.3773 53.8198 56.044 53.9098C55.7115 54.0096 54.9334 53.2757 54.7693 52.8988C54.6152 52.521 55.0709 51.8881 55.0994 51.6446M57.336 51.9575C57.0569 52.0928 56.1991 53.2835 55.736 53.4954C55.273 53.7073 54.6439 53.6328 54.5469 53.2198C54.4408 52.8176 54.9615 51.3356 55.1277 51.0598" stroke="#1E1E1E" stroke-width="0.5" stroke-linecap="round"/>
<path fill-rule="evenodd" clip-rule="evenodd" d="M57.5364 51.1551C57.059 51.416 55.0514 53.0623 54.8573 52.9263C54.6618 52.8002 56.1749 50.7674 56.3861 50.3812" fill="white"/>
<path d="M56.6749 52.5159C56.5261 52.4966 55.9743 52.1632 55.6983 52.0367C55.4123 51.909 55.1285 51.8421 54.9887 51.7534M56.275 52.3331C56.0815 52.3484 55.5708 52.5547 55.3322 52.3726C55.0948 52.1806 54.9287 51.2819 54.8471 51.2108" stroke="#1E1E1E" stroke-width="0.5" stroke-linecap="round"/>
<path d="M52.7796 57.1004C52.7196 57.1504 52.5796 57.1304 52.5296 57.0704C52.4896 57.0204 52.4396 56.7404 52.5196 56.7804C52.5896 56.8304 52.9796 57.2404 52.9696 57.3404C52.9496 57.4304 52.5196 57.3904 52.4296 57.3304C52.3296 57.2804 52.3996 57.0004 52.4196 56.9904C52.4396 56.9904 52.5396 57.3404 52.5496 57.2904C52.5596 57.2504 52.5096 56.7604 52.4696 56.7204C52.4396 56.6904 52.2796 57.0504 52.3296 57.0804C52.3696 57.1104 52.7096 56.8904 52.7496 56.9104C52.7796 56.9204 52.4996 57.1904 52.5296 57.1904M52.3896 57.3604C52.4596 57.3104 52.7796 56.6104 52.8196 56.6104C52.8596 56.6104 52.5996 57.3504 52.6596 57.3704C52.7196 57.4004 53.0996 56.8404 53.1896 56.7604C53.2796 56.6704 53.2796 56.8504 53.1796 56.8704C53.0796 56.9004 52.6596 56.9404 52.5796 56.9204C52.4896 56.9104 52.6396 56.7504 52.6496 56.7804C52.6696 56.8004 52.6096 57.0704 52.6796 57.0604C52.7396 57.0504 52.9996 56.7204 53.0596 56.7304C53.1096 56.7404 53.0696 57.1504 53.0196 57.1104C52.9696 57.0704 52.6996 56.4804 52.7296 56.4804" stroke="#1E1E1E" stroke-width="0.5" stroke-linecap="round"/>
<path d="M49.8783 61.4807C49.8483 61.6607 49.5883 62.0407 49.5983 62.0907M49.4583 61.3307C49.3783 61.4207 49.1983 61.4007 49.2683 61.5207" stroke="#1E1E1E" stroke-width="0.5" stroke-linecap="round"/>
<path fill-rule="evenodd" clip-rule="evenodd" d="M49.1544 60.7108C49.3344 60.7408 51.5744 60.2208 51.6244 60.1408C51.6744 60.0608 49.7144 59.9608 49.4644 60.2408C49.2044 60.5308 50.1144 61.7208 50.1144 61.8408" fill="white"/>
<path d="M49.4343 61.0008C49.6343 60.8608 50.6043 60.3308 50.8143 60.3608C51.0143 60.3908 50.9343 60.9308 50.6643 61.1708C50.3943 61.4108 49.3343 61.7808 49.1743 61.8008M50.0143 60.7508C50.1943 60.8008 50.5743 60.5808 50.6543 60.7008C50.7443 60.8108 50.7843 61.3408 50.5343 61.4108C50.2843 61.4908 49.3243 61.1908 49.1443 61.1608" stroke="#1E1E1E" stroke-width="0.5" stroke-linecap="round"/>
<path fill-rule="evenodd" clip-rule="evenodd" d="M53.2662 61.4343C53.1862 61.0943 51.3262 59.5043 51.3662 59.6343C51.4062 59.7543 53.2162 62.1143 53.4962 62.1743C53.7762 62.2443 52.9162 60.0743 53.0362 60.0143" fill="white"/>
<path d="M52.4562 61.6543C52.5362 61.4143 52.5562 60.4743 52.5762 60.5543C52.5962 60.6343 52.4462 62.1743 52.5562 62.1343C52.6662 62.1043 53.1362 60.6243 53.2462 60.3343M52.1462 62.3043C52.2062 62.0943 52.3762 60.9843 52.3862 60.8643C52.4062 60.7343 52.2262 61.6143 52.2262 61.5543C52.2262 61.4943 52.2962 60.6943 52.4062 60.5043" stroke="#1E1E1E" stroke-width="0.5" stroke-linecap="round"/>
<path fill-rule="evenodd" clip-rule="evenodd" d="M53.2515 59.4795C53.0615 59.6495 54.0315 60.9895 54.1915 61.2395C54.3515 61.4995 54.1415 60.6995 54.1915 61.0095C54.2415 61.3095 54.6415 62.9995 54.4815 63.0795" fill="white"/>
<path d="M54.4615 60.4095C54.2515 60.5295 53.2515 61.0495 53.2515 61.1995C53.2415 61.3595 54.3715 61.2495 54.4015 61.3295C54.4315 61.4195 53.6615 61.6195 53.4415 61.7095M54.1215 61.0295C54.0115 61.0695 53.9015 60.5995 53.9415 60.6895C53.9715 60.7795 54.3915 61.3595 54.3415 61.5595C54.2915 61.7695 53.7615 61.8395 53.6515 61.9095" stroke="#1E1E1E" stroke-width="0.5" stroke-linecap="round"/>
<path fill-rule="evenodd" clip-rule="evenodd" d="M56.0038 60.9348C56.0938 61.0948 54.6538 60.1248 54.7338 60.4648C54.8038 60.8048 56.5338 62.7948 56.4538 62.9748C56.3738 63.1648 54.7338 61.7348 54.2738 61.5748" fill="white"/>
<path d="M55.0638 60.8848C54.9838 60.9548 54.8838 60.6648 54.9438 60.7848C55.0038 60.9048 55.5538 61.4048 55.4138 61.6048C55.2738 61.8148 54.2538 61.9448 54.0938 62.0048M55.6038 60.6948C55.4938 60.8148 54.8738 60.8848 54.8238 61.0848C54.7738 61.2748 55.4438 61.6748 55.3238 61.8748C55.2038 62.0748 54.3038 62.2848 54.1138 62.3048" stroke="#1E1E1E" stroke-width="0.5" stroke-linecap="round"/>
<path fill-rule="evenodd" clip-rule="evenodd" d="M51.6294 62.0773C51.8994 61.9673 51.2394 59.8073 51.4694 59.9473C51.6994 60.0973 52.9594 62.7073 53.0094 62.9373" fill="white"/>
<path d="M51.1994 61.5073C51.3594 61.2273 51.5594 60.3073 51.6194 60.3473C51.6894 60.3973 51.5594 61.5373 51.6094 61.7673M50.9394 62.1173C51.0794 61.8573 51.4094 60.6773 51.4794 60.6773C51.5494 60.6873 51.2194 61.9173 51.3394 62.1273" stroke="#1E1E1E" stroke-width="0.5" stroke-linecap="round"/>
<path d="M51.2731 61.2888C51.3231 61.2688 51.5031 61.1488 51.6231 61.1088M50.9731 61.9388C50.9431 61.9988 51.1331 61.6288 51.2931 61.5388" stroke="#1E1E1E" stroke-width="0.5" stroke-linecap="round"/>
<path fill-rule="evenodd" clip-rule="evenodd" d="M56.9669 63.0483C57.0469 62.8583 56.4169 60.3483 56.2769 60.1683C56.1369 59.9883 56.2169 61.4583 56.1469 61.9883" fill="white"/>
<path d="M55.5669 61.8683C55.6569 61.6783 56.3269 60.5483 56.4669 60.5283C56.5969 60.5083 56.3269 61.4783 56.3869 61.7383M56.1669 61.5383C56.2069 61.4183 56.1669 60.8483 56.3269 60.9183C56.4769 60.9883 56.9869 61.7083 57.0969 61.9683" stroke="#1E1E1E" stroke-width="0.5" stroke-linecap="round"/>
<path d="M56.0691 61.2982C56.1591 61.2282 56.1591 60.9382 56.2591 60.9382M55.7791 60.9282C55.9891 60.8982 56.7891 61.0982 56.9291 61.2282" stroke="#1E1E1E" stroke-width="0.5" stroke-linecap="round"/>
</svg>
