<svg width="85" height="126" viewBox="0 0 85 126" fill="none" xmlns="http://www.w3.org/2000/svg">
<path d="M21.9369 1.91236C34.0469 3.78236 55.6169 2.59236 62.3369 1.91236C79.0069 4.74236 85.2869 5.80236 82.5369 22.1124C87.2469 49.9024 81.0369 74.7724 82.5369 103.662C85.2869 118.912 72.5869 121.712 62.3369 123.862C49.8169 122.552 36.3969 120.972 21.9369 123.862C6.96688 122.372 0.936883 114.902 1.73688 103.662C6.02688 82.0124 2.05688 63.2024 1.73688 22.1124C2.52688 10.7624 7.82688 1.01236 21.9369 1.91236Z" fill="white"/>
<path d="M21.9369 1.91235C32.4069 2.35235 44.7769 1.84235 62.3369 1.91235M21.9369 1.91235C32.9969 2.23235 41.9769 1.90235 62.3369 1.91235M21.9369 1.91235C7.4369 1.15235 3.4069 10.3724 1.7369 22.1124M21.9369 1.91235C9.3769 1.24235 2.4769 10.0324 1.7369 22.1124M62.3369 1.91235C76.0669 0.292355 84.4469 8.00236 82.5369 22.1124M62.3369 1.91235C74.8769 1.80235 80.8069 9.42236 82.5369 22.1124M82.5369 22.1124C81.0069 54.4524 82.6969 84.9624 82.5369 103.662M82.5369 22.1124C84.1269 38.9724 82.7169 56.8924 82.5369 103.662M82.5369 103.662C84.4869 118.152 76.0969 122.232 62.3369 123.862M82.5369 103.662C82.1069 115.782 77.7569 125.722 62.3369 123.862M62.3369 123.862C52.7269 124.702 40.0269 125.162 21.9369 123.862M62.3369 123.862C49.3669 124.532 36.0769 123.762 21.9369 123.862M21.9369 123.862C8.4669 122.032 1.7469 118.972 1.7369 103.662M21.9369 123.862C10.2669 125.712 0.576897 118.352 1.7369 103.662M1.7369 103.662C0.696897 82.6524 2.1069 60.9524 1.7369 22.1124M1.7369 103.662C1.5869 86.3524 2.5169 68.8124 1.7369 22.1124" stroke="#1E1E1E" stroke-width="2" stroke-linecap="round"/>
<path d="M10.5522 90.1349C21.5422 90.1349 65.5222 90.1349 76.5122 90.1349" stroke="#1E1E1E" stroke-width="2" stroke-linecap="round"/>
<path d="M9.74896 100.525C9.99896 100.165 11.009 98.7448 11.259 98.3848" stroke="#1E1E1E" stroke-linecap="round"/>
<path d="M12.7517 105.796C12.7617 104.896 12.7817 101.286 12.7917 100.386" stroke="#1E1E1E" stroke-linecap="round"/>
<path d="M12.8237 100.589C12.5737 100.229 11.5637 98.809 11.3137 98.449" stroke="#1E1E1E" stroke-linecap="round"/>
<path d="M7.6087 106.282C8.7887 106.262 13.4887 106.182 14.6587 106.162" stroke="#1E1E1E" stroke-linecap="round"/>
<path d="M11.4672 106.373C11.4772 107.003 11.5172 109.543 11.5272 110.173" stroke="#1E1E1E" stroke-linecap="round"/>
<path d="M52.8784 101.454C53.2384 101.084 54.6784 99.584 55.0384 99.204" stroke="#1E1E1E" stroke-linecap="round"/>
<path d="M55.0339 99.1638C55.4339 99.4938 57.0139 100.814 57.4139 101.144" stroke="#1E1E1E" stroke-linecap="round"/>
<path d="M57.5038 101.409C56.8138 102.469 54.0638 106.719 53.3738 107.789" stroke="#1E1E1E" stroke-linecap="round"/>
<path d="M52.9458 101.454C52.5858 101.084 51.1458 99.584 50.7858 99.204" stroke="#1E1E1E" stroke-linecap="round"/>
<path d="M50.7903 99.1638C50.3903 99.4938 48.8103 100.814 48.4103 101.144" stroke="#1E1E1E" stroke-linecap="round"/>
<path d="M48.3204 101.409C49.0104 102.469 51.7604 106.719 52.4504 107.789" stroke="#1E1E1E" stroke-linecap="round"/>
<path d="M23.2644 1.79919C31.9244 1.79919 40.5944 1.79919 59.6544 1.79919C62.1344 1.79919 63.3844 3.03919 63.3844 5.52919C63.3844 7.56919 63.3844 9.61919 63.3844 12.9792C63.3844 15.4592 62.1344 16.6992 59.6544 16.6992C50.8644 16.6992 42.0644 16.6992 23.2644 16.6992C20.7744 16.6992 19.5344 15.4592 19.5344 12.9792C19.5344 11.3592 19.5344 9.73919 19.5344 5.52919C19.5344 3.03919 20.7744 1.79919 23.2644 1.79919Z" fill="white"/>
<path d="M23.2644 1.79919C37.7444 1.79919 52.2244 1.79919 59.6544 1.79919M23.2644 1.79919C31.2244 1.79919 39.1844 1.79919 59.6544 1.79919M23.2644 1.79919C20.7744 1.79919 19.5344 3.03919 19.5344 5.52919M59.6544 1.79919C62.1344 1.79919 63.3844 3.03919 63.3844 5.52919M63.3844 5.52919C63.3844 7.69919 63.3844 9.87919 63.3844 12.9792M63.3844 5.52919C63.3844 8.44919 63.3844 11.3692 63.3844 12.9792M63.3844 12.9792C63.3844 15.4592 62.1344 16.6992 59.6544 16.6992M59.6544 16.6992C52.0244 16.6992 44.3944 16.6992 23.2644 16.6992M59.6544 16.6992C50.1144 16.6992 40.5744 16.6992 23.2644 16.6992M23.2644 16.6992C20.7744 16.6992 19.5344 15.4592 19.5344 12.9792M19.5344 12.9792C19.5344 11.3292 19.5344 9.67919 19.5344 5.52919M19.5344 12.9792C19.5344 10.3192 19.5344 7.66919 19.5344 5.52919" stroke="#1E1E1E" stroke-width="2" stroke-linecap="round"/>
<path d="M35.4003 8.68993V11.557H34.668V5.20231H35.4003V7.53566H35.4624C35.5741 7.2895 35.7416 7.09402 35.965 6.94922C36.1905 6.80235 36.4904 6.72892 36.8649 6.72892C37.1896 6.72892 37.474 6.79408 37.7181 6.9244C37.9622 7.05265 38.1515 7.2502 38.286 7.51704C38.4225 7.78182 38.4908 8.119 38.4908 8.52858V11.557H37.7585V8.57822C37.7585 8.19967 37.6602 7.90697 37.4637 7.70011C37.2693 7.49119 36.9993 7.38672 36.6539 7.38672C36.4139 7.38672 36.1988 7.4374 36.0085 7.53876C35.8202 7.64012 35.6713 7.78803 35.5616 7.98247C35.4541 8.17692 35.4003 8.41274 35.4003 8.68993ZM42.834 9.60838V6.79097H43.5663V11.557H42.834V10.7502H42.7843C42.6726 10.9923 42.4989 11.1981 42.2631 11.3677C42.0272 11.5353 41.7294 11.619 41.3694 11.619C41.0716 11.619 40.8068 11.5539 40.5751 11.4236C40.3434 11.2912 40.1614 11.0926 40.029 10.8278C39.8966 10.561 39.8304 10.2248 39.8304 9.81937V6.79097H40.5627V9.76973C40.5627 10.1172 40.6599 10.3944 40.8544 10.6013C41.0509 10.8082 41.3012 10.9116 41.6053 10.9116C41.7873 10.9116 41.9724 10.865 42.1607 10.772C42.351 10.6789 42.5103 10.5361 42.6385 10.3438C42.7688 10.1514 42.834 9.90625 42.834 9.60838ZM45.0068 11.557V5.20231H45.739V7.54807H45.8011C45.8549 7.46533 45.9294 7.35983 46.0245 7.23158C46.1217 7.10126 46.2603 6.98542 46.4403 6.88406C46.6223 6.78063 46.8685 6.72892 47.1788 6.72892C47.5801 6.72892 47.9338 6.82924 48.24 7.02989C48.5461 7.23055 48.785 7.51498 48.9567 7.88318C49.1284 8.25139 49.2143 8.68579 49.2143 9.18639C49.2143 9.69112 49.1284 10.1286 48.9567 10.4989C48.785 10.8671 48.5471 11.1526 48.2431 11.3553C47.939 11.5559 47.5884 11.6563 47.1912 11.6563C46.885 11.6563 46.6399 11.6056 46.4558 11.5042C46.2717 11.4008 46.13 11.2839 46.0307 11.1536C45.9314 11.0212 45.8549 10.9116 45.8011 10.8247H45.7142V11.557H45.0068ZM45.7266 9.17397C45.7266 9.53391 45.7794 9.85143 45.8849 10.1266C45.9904 10.3996 46.1445 10.6137 46.3472 10.7688C46.5499 10.9219 46.7982 10.9985 47.0919 10.9985C47.398 10.9985 47.6535 10.9178 47.8583 10.7564C48.0652 10.593 48.2203 10.3737 48.3237 10.0986C48.4292 9.82144 48.482 9.51322 48.482 9.17397C48.482 8.83887 48.4303 8.53685 48.3268 8.26794C48.2255 7.99695 48.0714 7.78286 47.8645 7.62564C47.6597 7.46636 47.4022 7.38672 47.0919 7.38672C46.794 7.38672 46.5437 7.46223 46.341 7.61323C46.1383 7.76217 45.9852 7.9711 45.8818 8.24001C45.7784 8.50686 45.7266 8.81818 45.7266 9.17397Z" fill="#1E1E1E"/>
<path d="M31.4906 65.1439C39.9206 64.7339 50.4506 66.8039 56.8006 65.1439M31.4906 65.1439C41.4706 65.3939 51.1306 64.3539 56.8006 65.1439M31.4906 65.1439C27.9706 64.6939 25.9506 65.6539 27.4606 69.1739M31.4906 65.1439C26.9706 66.4939 26.0406 65.1839 27.4606 69.1739M56.8006 65.1439C60.6506 65.5239 62.4006 65.9439 60.8306 69.1739M56.8006 65.1439C59.3106 66.9539 59.7306 66.5039 60.8306 69.1739M60.8306 69.1739C61.5006 72.2139 61.4106 73.5939 60.8306 77.2339M60.8306 69.1739C60.8406 71.7439 60.8106 74.8739 60.8306 77.2339M60.8306 77.2339C60.2506 78.2739 57.6606 82.4039 56.8006 81.2639M60.8306 77.2339C58.7606 80.9439 59.5606 82.7839 56.8006 81.2639M56.8006 81.2639C46.3406 81.7739 38.6006 81.9239 31.4906 81.2639M56.8006 81.2639C48.9806 80.1739 43.4206 81.9039 31.4906 81.2639M31.4906 81.2639C28.7906 83.0439 29.0306 81.4439 27.4606 77.2339M31.4906 81.2639C26.9906 81.5039 29.5306 82.0239 27.4606 77.2339M27.4606 77.2339C27.8606 74.6739 27.8006 70.1639 27.4606 69.1739M27.4606 77.2339C27.3206 75.5239 27.2806 73.7139 27.4606 69.1739" stroke="#1E1E1E" stroke-linecap="round"/>
<path d="M38.6316 64.2262C38.4416 61.0062 39.9816 48.0762 37.6716 44.7562C35.3716 41.4362 26.8816 44.4362 24.7916 44.3162M37.9116 65.2462C37.6816 61.9162 39.7416 47.6462 37.4816 44.0162C35.2216 40.3962 26.3616 43.6762 24.3416 43.5162" stroke="#1E1E1E" stroke-linecap="round"/>
<path d="M34.7711 65.2596C34.5011 63.5596 34.9011 56.2096 32.5711 54.2896C30.2311 52.3796 22.7211 53.9496 20.7511 53.7696M34.3411 65.0096C33.9911 63.1996 34.3411 55.6196 32.0311 53.5896C29.7211 51.5696 22.3411 52.8496 20.5011 52.8396" stroke="#1E1E1E" stroke-linecap="round"/>
<path d="M47.7572 64.9473C47.9672 61.5373 47.3172 48.0573 49.6772 44.4573C52.0272 40.8673 59.8272 43.4873 61.8872 43.3773M48.6572 64.7273C48.7672 61.1273 47.1772 47.1173 49.3372 43.6373C51.4972 40.1473 59.4772 43.6973 61.6372 43.8173" stroke="#1E1E1E" stroke-linecap="round"/>
<path d="M52.5778 64.9608C52.8978 62.9808 51.8078 55.2608 54.1178 53.3508C56.4278 51.4408 64.3678 53.5108 66.4478 53.4908M52.0078 64.6208C52.2978 62.9508 51.4078 55.6408 53.7878 53.8908C56.1578 52.1508 64.0778 54.1808 66.2578 54.1408" stroke="#1E1E1E" stroke-linecap="round"/>
<path d="M62.6747 40.9547C63.2747 40.8147 63.6447 40.7747 64.4047 40.9547C65.9747 39.6347 65.4947 42.4847 65.2747 41.8147C65.6247 42.2547 65.6047 43.0447 65.2747 44.9747C66.7247 43.6747 64.7347 46.2447 64.4047 45.8347C64.0747 45.6647 63.8347 45.9847 62.6747 45.8347C60.1747 43.7947 59.5547 44.0647 61.8147 44.9747C61.7847 43.7847 61.8747 43.1247 61.8147 41.8147C61.4847 42.6347 63.2947 39.3747 62.6747 40.9547Z" fill="white"/>
<path d="M62.6747 40.9547C63.2247 40.9847 63.8447 40.9947 64.4047 40.9547M62.6747 40.9547C63.1347 40.9547 63.6247 40.9247 64.4047 40.9547M62.6747 40.9547C62.2447 41.3447 61.6547 41.0947 61.8147 41.8147M62.6747 40.9547C62.6947 40.9047 61.6747 41.0547 61.8147 41.8147M64.4047 40.9547C64.9847 41.5747 65.7947 41.7747 65.2747 41.8147M64.4047 40.9547C64.5947 41.3647 64.9547 40.9347 65.2747 41.8147M65.2747 41.8147C65.2647 42.7647 65.1747 43.6747 65.2747 44.9747M65.2747 41.8147C65.2647 42.9747 65.3047 44.1147 65.2747 44.9747M65.2747 44.9747C64.9247 45.2947 65.1947 46.2347 64.4047 45.8347M65.2747 44.9747C65.5747 45.3247 65.5947 45.2647 64.4047 45.8347M64.4047 45.8347C64.1047 45.8347 63.7547 45.8847 62.6747 45.8347M64.4047 45.8347C63.7847 45.8647 63.1347 45.8547 62.6747 45.8347M62.6747 45.8347C61.5847 46.2147 62.3247 45.8747 61.8147 44.9747M62.6747 45.8347C61.4147 45.3747 62.2747 45.7947 61.8147 44.9747M61.8147 44.9747C61.9047 44.0147 61.7647 43.1747 61.8147 41.8147M61.8147 44.9747C61.7747 44.1247 61.8647 43.1947 61.8147 41.8147" stroke="#1E1E1E" stroke-linecap="round"/>
<path d="M65.4753 42.2584C66.3853 41.7684 70.0453 39.5484 70.8953 39.0784M65.1453 41.9884C66.0353 41.5684 69.8953 39.9884 70.7653 39.4784" stroke="#1E1E1E" stroke-linecap="round"/>
<path d="M70.956 39.132C70.896 40.522 70.656 46.232 70.566 47.602M70.666 38.782C70.546 40.062 70.366 45.632 70.276 47.122" stroke="#1E1E1E" stroke-linecap="round"/>
<path d="M70.5623 47.628C69.6923 47.238 66.4223 45.428 65.6223 44.928M70.1223 47.468C69.1623 47.148 66.0223 45.818 65.2623 45.378" stroke="#1E1E1E" stroke-linecap="round"/>
<path d="M66.6995 50.6788C66.9595 50.7788 67.6495 50.8488 68.4295 50.6788C67.4195 52.6488 68.4295 52.4188 69.2995 51.5388C68.9395 52.0688 69.0995 52.9488 69.2995 54.6988C67.4295 56.6988 70.7995 53.6288 68.4295 55.5588C68.0695 55.6588 67.8395 55.5388 66.6995 55.5588C64.6095 56.0988 66.2395 54.9488 65.8395 54.6988C65.6295 53.3188 66.0795 52.5488 65.8395 51.5388C64.9695 50.6388 66.0195 48.6388 66.6995 50.6788Z" fill="white"/>
<path d="M66.6995 50.6788C67.2095 50.6788 67.6595 50.6788 68.4295 50.6788M66.6995 50.6788C67.3695 50.6888 68.0495 50.6588 68.4295 50.6788M66.6995 50.6788C65.9395 50.8088 66.0095 50.8388 65.8395 51.5388M66.6995 50.6788C65.3795 51.0188 65.2795 50.3588 65.8395 51.5388M68.4295 50.6788C69.0695 50.2188 69.3195 50.9788 69.2995 51.5388M68.4295 50.6788C68.7895 50.0488 68.5895 51.4088 69.2995 51.5388M69.2995 51.5388C69.3695 52.2888 69.3895 52.8088 69.2995 54.6988M69.2995 51.5388C69.3195 52.3588 69.3395 53.1588 69.2995 54.6988M69.2995 54.6988C68.6495 54.6688 69.2295 56.1088 68.4295 55.5588M69.2995 54.6988C69.2895 55.9588 69.6095 56.1488 68.4295 55.5588M68.4295 55.5588C68.0995 55.6188 67.7095 55.5188 66.6995 55.5588M68.4295 55.5588C67.7895 55.5488 67.2195 55.5688 66.6995 55.5588M66.6995 55.5588C65.9795 55.9388 65.6295 55.8488 65.8395 54.6988M66.6995 55.5588C65.5495 55.2388 65.5195 55.0988 65.8395 54.6988M65.8395 54.6988C65.9095 54.0388 65.7895 53.1688 65.8395 51.5388M65.8395 54.6988C65.8295 53.8088 65.8795 52.9388 65.8395 51.5388" stroke="#1E1E1E" stroke-linecap="round"/>
<path d="M69.2901 51.5825C70.2101 51.1425 73.7101 49.6325 74.6501 49.2325M68.8601 52.1925C69.7501 51.6525 73.3701 49.3625 74.3701 48.7725" stroke="#1E1E1E" stroke-linecap="round"/>
<path d="M74.8971 57.3621C74.0671 56.9321 70.5071 55.3121 69.6371 54.8321M74.6071 57.1921C73.8971 56.8221 71.2171 54.7021 70.3471 54.3121" stroke="#1E1E1E" stroke-linecap="round"/>
<path d="M22.9885 40.2942C23.4985 40.2642 24.3685 40.0842 24.7185 40.2942C24.2885 39.0942 25.8085 38.7142 25.5885 41.1542C25.2885 41.9442 25.3785 43.4542 25.5885 44.3142C26.8985 46.4742 25.2585 43.6642 24.7185 45.1742C24.2785 45.2742 23.4685 45.0642 22.9885 45.1742C20.8985 46.8242 22.9685 44.0142 22.1285 44.3142C22.2985 43.5842 22.1785 42.3742 22.1285 41.1542C23.2385 41.6542 20.2085 39.1942 22.9885 40.2942Z" fill="white"/>
<path d="M22.9885 40.2942C23.6785 40.2742 24.2785 40.3042 24.7185 40.2942M22.9885 40.2942C23.3885 40.2742 23.7685 40.3142 24.7185 40.2942M22.9885 40.2942C22.7785 39.7342 21.7385 40.6442 22.1285 41.1542M22.9885 40.2942C23.1185 39.7542 22.5485 41.0142 22.1285 41.1542M24.7185 40.2942C24.6985 40.5942 25.6085 41.0242 25.5885 41.1542M24.7185 40.2942C25.9385 40.9542 25.1885 40.2941 25.5885 41.1542M25.5885 41.1542C25.5585 42.2941 25.5185 43.1541 25.5885 44.3141M25.5885 41.1542C25.5885 41.8641 25.6285 42.5241 25.5885 44.3141M25.5885 44.3141C25.0585 44.9541 25.8985 45.7842 24.7185 45.1741M25.5885 44.3141C26.3085 45.4141 24.6985 45.6041 24.7185 45.1741M24.7185 45.1741C24.0385 45.2041 23.4385 45.1541 22.9885 45.1741M24.7185 45.1741C24.0885 45.1641 23.4785 45.1741 22.9885 45.1741M22.9885 45.1741C22.0085 44.7941 21.5985 45.2841 22.1285 44.3141M22.9885 45.1741C23.0785 44.7941 21.9485 44.7141 22.1285 44.3141M22.1285 44.3141C22.0985 43.3741 22.1185 42.3041 22.1285 41.1542M22.1285 44.3141C22.0885 43.3841 22.0785 42.5641 22.1285 41.1542" stroke="#1E1E1E" stroke-linecap="round"/>
<path d="M21.9852 41.3878C21.1252 40.8078 17.6752 38.7478 16.8152 38.2678M22.5552 40.9978C21.6752 40.4478 17.5452 38.9478 16.5552 38.5978" stroke="#1E1E1E" stroke-linecap="round"/>
<path d="M16.7545 38.3314C16.7945 39.7014 16.8245 45.3214 16.8145 46.6614M16.3445 38.9714C16.3545 40.4214 16.5345 45.8514 16.5445 47.1214" stroke="#1E1E1E" stroke-linecap="round"/>
<path d="M16.8182 46.6974C17.5982 46.2774 20.7582 44.3374 21.4982 43.9674M16.3982 46.3874C17.1182 46.0374 20.2482 44.6874 21.1682 44.2674" stroke="#1E1E1E" stroke-linecap="round"/>
<path d="M19.5574 50.4538C20.1074 50.6238 20.2474 50.2938 21.2874 50.4538C19.5974 48.9738 22.2074 52.0538 22.1574 51.3138C22.2374 52.5438 22.1074 53.8738 22.1574 54.4738C23.3474 53.4638 20.6474 53.8138 21.2874 55.3338C20.6174 55.3138 19.8274 55.4138 19.5574 55.3338C20.1074 55.6238 17.8574 56.1538 18.6974 54.4738C18.5474 53.7138 18.4574 52.5438 18.6974 51.3138C17.7774 50.6138 17.1274 52.0538 19.5574 50.4538Z" fill="white"/>
<path d="M19.5574 50.4538C20.0374 50.4038 20.6374 50.4038 21.2874 50.4538M19.5574 50.4538C20.1774 50.4738 20.7374 50.4438 21.2874 50.4538M19.5574 50.4538C19.4074 49.9038 19.2774 50.4838 18.6974 51.3138M19.5574 50.4538C18.2274 50.1138 18.6174 50.8738 18.6974 51.3138M21.2874 50.4538C22.0774 50.8538 22.4174 50.5438 22.1574 51.3138M21.2874 50.4538C22.4774 49.8838 21.4074 50.0538 22.1574 51.3138M22.1574 51.3138C22.2574 52.4438 22.2474 53.3338 22.1574 54.4738M22.1574 51.3138C22.2174 52.3338 22.1274 53.3038 22.1574 54.4738M22.1574 54.4738C22.6674 55.3738 21.2674 54.9338 21.2874 55.3338M22.1574 54.4738C22.6174 55.2938 21.6974 55.7638 21.2874 55.3338M21.2874 55.3338C20.8074 55.3038 20.3474 55.2938 19.5574 55.3338M21.2874 55.3338C20.8974 55.3238 20.4474 55.3338 19.5574 55.3338M19.5574 55.3338C19.1274 55.7238 18.5774 54.8838 18.6974 54.4738M19.5574 55.3338C19.5774 55.2838 18.8874 54.9038 18.6974 54.4738M18.6974 54.4738C18.6074 53.5138 18.7374 52.6938 18.6974 51.3138M18.6974 54.4738C18.7174 53.5238 18.7374 52.4838 18.6974 51.3138" stroke="#1E1E1E" stroke-linecap="round"/>
<path d="M18.3741 51.8874C17.4541 51.4674 13.8641 49.3274 13.0241 48.8374M18.8541 51.6874C18.0441 51.1774 14.6141 48.8474 13.6641 48.2874" stroke="#1E1E1E" stroke-linecap="round"/>
<path d="M12.9734 48.891C13.0434 50.241 13.2734 55.681 13.3834 57.051M13.4534 48.661C13.5034 49.901 13.0934 55.231 13.1134 56.551" stroke="#1E1E1E" stroke-linecap="round"/>
<path d="M13.3871 57.0771C14.2871 56.7071 17.7071 55.1971 18.4671 54.7271M12.9671 56.8971C13.8771 56.4071 17.5571 54.6471 18.3471 54.2571" stroke="#1E1E1E" stroke-linecap="round"/>
<path d="M31.8594 68.0348C32.3452 68.8355 34.7924 70.718 34.895 72.3864C35.0076 74.0545 32.8166 77.0979 32.4951 78.0443M32.081 67.6004C32.5302 68.5818 34.1032 71.7917 34.3264 73.4877C34.5396 75.1838 33.6843 76.9709 33.3898 77.7668" stroke="#1E1E1E" stroke-linecap="round"/>
<path d="M33.0601 67.4504C32.716 68.2673 30.375 71.3136 30.3602 73.1142C30.3353 74.9151 32.4436 77.3643 32.9211 78.2552M33.6566 68.2889C33.2307 69.0174 31.3517 71.1345 31.1434 72.7589C30.9351 74.3832 32.1068 77.0209 32.3965 78.0254" stroke="#1E1E1E" stroke-linecap="round"/>
<path d="M33.1841 73.1897C32.9351 73.2446 32.2047 73.2289 32.0353 73.2622M33.3669 72.8161C33.0577 72.8621 31.8697 72.9754 31.6413 73.0599" stroke="#1E1E1E" stroke-linecap="round"/>
<path d="M54.1416 67.9649C54.659 68.8549 56.6349 71.6969 56.776 73.2844C56.907 74.8722 55.4219 76.6715 54.968 77.5006M54.6907 67.404C55.1772 68.2447 56.2858 71.2336 56.2821 73.094C56.2683 74.9447 54.8611 77.6627 54.6383 78.5472" stroke="#1E1E1E" stroke-linecap="round"/>
<path d="M54.931 68.3487C54.6254 69.0848 52.9905 70.8971 52.8231 72.5707C52.6658 74.2441 53.7789 77.463 53.9574 78.4097M53.9426 67.928C53.5799 68.8152 52.2588 71.8416 52.4019 73.5391C52.5351 75.2368 54.3766 77.3413 54.7821 78.1335" stroke="#1E1E1E" stroke-linecap="round"/>
<path d="M55.362 72.9018C55.0215 72.8785 53.6505 73.3553 53.3018 73.4222M54.7713 73.3835C54.4996 73.2987 53.9285 73.2499 53.7674 73.193" stroke="#1E1E1E" stroke-linecap="round"/>
<path d="M39.4384 73.9554C40.9684 73.9654 46.6684 73.5054 48.1784 73.4054M39.0684 73.8054C40.5784 73.7454 46.3484 73.1054 47.8984 72.9454" stroke="#1E1E1E" stroke-linecap="round"/>
<path d="M39.4232 74.1427C40.1832 75.0827 43.4232 78.8627 44.1032 79.7527M38.9932 73.9927C39.7232 74.8127 43.0932 78.2827 43.9732 79.2727" stroke="#1E1E1E" stroke-linecap="round"/>
<path d="M44.107 79.7023C44.817 78.6923 47.337 74.6523 48.107 73.7023M43.817 79.5323C44.647 78.7423 47.957 75.1823 48.757 74.1723" stroke="#1E1E1E" stroke-linecap="round"/>
<path d="M41.1485 73.1418C41.1385 73.7618 41.5585 76.4518 41.6485 77.1018M41.6485 72.8518C41.5985 73.3618 41.5385 76.0418 41.5285 76.6418" stroke="#1E1E1E" stroke-linecap="round"/>
<path d="M44.0245 74.2085C44.1645 75.1085 44.3145 78.5085 44.2445 79.3685M43.7645 74.0585C43.9045 74.8685 44.0445 78.0885 44.1445 78.8685" stroke="#1E1E1E" stroke-linecap="round"/>
<path d="M46.582 73.5529C46.442 74.0529 45.762 76.1029 45.712 76.6029M46.332 73.3729C46.262 73.9129 46.392 75.6529 46.362 76.0829" stroke="#1E1E1E" stroke-linecap="round"/>
</svg>
