<svg width="85" height="126" viewBox="0 0 85 126" fill="none" xmlns="http://www.w3.org/2000/svg">
<path d="M22.8872 2.41758C36.5072 1.18758 53.7772 3.42758 63.2872 2.41758C76.0472 0.0475796 86.3972 7.40758 83.4872 22.6176C82.8572 42.2476 84.6372 71.0976 83.4872 104.168C82.7172 119.598 77.7172 124.928 63.2872 124.368C49.2872 126.298 42.4272 124.108 22.8872 124.368C11.8472 125.938 -0.552841 115.188 2.68716 104.168C5.32716 75.5276 4.93716 48.3176 2.68716 22.6176C0.357159 10.7676 8.16716 -0.80242 22.8872 2.41758Z" fill="white"/>
<path d="M22.8872 2.41759C33.4772 0.36759 43.6472 1.80759 63.2872 2.41759M22.8872 2.41759C34.6172 1.38759 45.8872 1.38759 63.2872 2.41759M22.8872 2.41759C11.0572 1.20759 3.02716 7.53759 2.68716 22.6176M22.8872 2.41759C7.93716 2.31759 1.43716 8.52759 2.68716 22.6176M63.2872 2.41759C75.9272 4.38759 83.9472 10.7076 83.4872 22.6176M63.2872 2.41759C76.6872 1.77759 81.4672 8.19759 83.4872 22.6176M83.4872 22.6176C83.2972 45.6076 84.4372 66.3376 83.4872 104.168M83.4872 22.6176C84.4372 44.7876 82.6172 68.1376 83.4872 104.168M83.4872 104.168C85.2972 117.078 75.0672 125.898 63.2872 124.368M83.4872 104.168C82.7472 115.518 77.9072 124.838 63.2872 124.368M63.2872 124.368C48.2072 125.928 35.5572 122.238 22.8872 124.368M63.2872 124.368C48.7572 124.528 34.0472 124.998 22.8872 124.368M22.8872 124.368C11.0672 125.448 1.43716 118.738 2.68716 104.168M22.8872 124.368C10.1472 126.308 4.97716 119.038 2.68716 104.168M2.68716 104.168C2.49716 85.7876 0.607158 67.5576 2.68716 22.6176M2.68716 104.168C2.72716 81.5876 1.30716 57.6076 2.68716 22.6176" stroke="#1E1E1E" stroke-width="2" stroke-linecap="round"/>
<path d="M24.3059 3.05127C35.8359 3.05127 47.3559 3.05127 61.0159 3.05127M24.3059 3.05127C36.1259 3.05127 47.9459 3.05127 61.0159 3.05127M24.3059 3.05127C21.9359 3.05127 20.7559 4.23127 20.7559 6.60127M61.0159 3.05127C63.3759 3.05127 64.5659 4.23127 64.5659 6.60127M64.5659 6.60127C64.5659 8.88127 64.5659 11.1613 64.5659 13.7113M64.5659 6.60127C64.5659 8.14127 64.5659 9.68127 64.5659 13.7113M64.5659 13.7113C64.5659 16.0813 63.3759 17.2613 61.0159 17.2613M61.0159 17.2613C52.0759 17.2613 43.1259 17.2613 24.3059 17.2613M61.0159 17.2613C49.1259 17.2613 37.2359 17.2613 24.3059 17.2613M24.3059 17.2613C21.9359 17.2613 20.7559 16.0813 20.7559 13.7113M20.7559 13.7113C20.7559 12.1813 20.7559 10.6513 20.7559 6.60127M20.7559 13.7113C20.7559 11.2313 20.7559 8.74127 20.7559 6.60127" stroke="#1E1E1E" stroke-width="2" stroke-linecap="round"/>
<path d="M10.666 91.0738C21.656 91.0738 65.636 91.0738 76.626 91.0738" stroke="#1E1E1E" stroke-width="2" stroke-linecap="round"/>
<path d="M50.0614 47.8546C47.6614 47.9246 46.6414 47.9546 45.2914 47.8546C46.3014 47.9246 47.2514 47.7946 50.0614 47.8546ZM50.0614 47.8546C52.3714 47.4346 54.6214 50.2446 54.8414 52.6246M50.0614 47.8546C53.4914 47.3746 55.0014 49.6246 54.8414 52.6246M54.8414 52.6246C54.4714 54.9146 54.5014 56.0046 54.8414 61.3246M54.8414 52.6246C54.7014 55.0846 54.8114 57.0046 54.8414 61.3246M54.8414 61.3246C55.3414 64.7046 56.6714 66.1346 59.6114 66.0946M54.8414 61.3246C54.1914 63.3646 57.4614 65.2146 59.6114 66.0946M59.6114 66.0946C60.6514 66.1546 61.5914 66.1746 64.3914 66.0946C63.0314 66.1846 61.2314 66.1446 59.6114 66.0946Z" stroke="#1E1E1E" stroke-linecap="round"/>
<path d="M37.722 65.5493C34.642 65.4393 33.682 65.5893 32.952 65.5493C34.852 65.4993 36.652 65.4793 37.722 65.5493ZM37.722 65.5493C40.692 66.3393 42.712 63.5393 42.502 60.7793M37.722 65.5493C41.072 65.7193 41.532 63.7393 42.502 60.7793M42.502 60.7793C42.202 57.7893 42.382 55.9493 42.502 52.0793M42.502 60.7793C42.472 58.2093 42.652 56.0893 42.502 52.0793M42.502 52.0793C42.742 48.9393 43.532 46.3193 47.272 47.3093M42.502 52.0793C43.532 48.0193 43.002 48.0693 47.272 47.3093M47.272 47.3093C48.852 47.3793 50.532 47.4993 52.052 47.3093C50.782 47.3693 49.002 47.3993 47.272 47.3093Z" stroke="#1E1E1E" stroke-linecap="round"/>
<path d="M26.1873 47.7758C24.8273 47.8258 22.7773 47.6758 21.4173 47.7758C23.1173 47.7358 24.9973 47.8758 26.1873 47.7758ZM26.1873 47.7758C29.5873 47.3558 31.1073 49.5158 30.9673 52.5458M26.1873 47.7758C28.4073 47.5658 30.9673 48.4058 30.9673 52.5458M30.9673 52.5458C30.7773 56.3758 30.8173 59.0458 30.9673 61.2458M30.9673 52.5458C31.0673 55.8658 31.0073 59.1058 30.9673 61.2458M30.9673 61.2458C30.4073 63.4358 33.4573 65.2458 35.7373 66.0158M30.9673 61.2458C29.8773 65.1858 32.8773 66.2958 35.7373 66.0158M35.7373 66.0158C37.4273 66.2058 38.9873 65.8558 40.5173 66.0158C39.0373 66.0158 37.5573 66.0658 35.7373 66.0158Z" stroke="#1E1E1E" stroke-linecap="round"/>
<path d="M14.277 66.1143C12.747 66.1143 11.267 66.1743 9.50705 66.1143C10.777 66.2143 12.127 66.0743 14.277 66.1143ZM14.277 66.1143C17.607 66.2643 18.207 64.3343 19.057 61.3443M14.277 66.1143C17.467 65.1543 20.147 63.6443 19.057 61.3443M19.057 61.3443C18.947 59.1143 19.407 57.4843 19.057 52.6443M19.057 61.3443C19.087 59.5343 18.917 57.5043 19.057 52.6443M19.057 52.6443C19.957 48.6943 19.697 48.5343 23.827 47.8743M19.057 52.6443C19.377 49.7343 20.947 47.9443 23.827 47.8743M23.827 47.8743C25.557 47.7043 27.157 47.9243 28.607 47.8743C27.397 47.8543 25.567 47.8743 23.827 47.8743Z" stroke="#1E1E1E" stroke-linecap="round"/>
<path d="M62.1863 65.7925C59.8163 65.5825 58.8363 65.7825 57.4163 65.7925C58.6763 65.7225 59.9063 65.7925 62.1863 65.7925ZM62.1863 65.7925C64.5263 65.6025 66.9663 63.3625 66.9663 61.0225M62.1863 65.7925C66.4663 64.9125 65.9763 63.7725 66.9663 61.0225M66.9663 61.0225C67.3063 57.4825 66.5763 54.4425 66.9663 52.3225M66.9663 61.0225C66.8363 58.0225 67.1463 55.2825 66.9663 52.3225M66.9663 52.3225C66.0163 49.8025 68.8363 47.7925 71.7363 47.5525M66.9663 52.3225C67.2663 49.2125 68.9463 48.1725 71.7363 47.5525M71.7363 47.5525C73.6963 47.6425 75.5963 47.8025 76.5163 47.5525C75.1363 47.4325 73.3663 47.5425 71.7363 47.5525Z" stroke="#1E1E1E" stroke-linecap="round"/>
<path d="M35.2949 12.8848C34.8481 12.8848 34.4633 12.7793 34.1406 12.5683C33.8179 12.3573 33.5697 12.0667 33.3959 11.6964C33.2222 11.3261 33.1353 10.9031 33.1353 10.4273C33.1353 9.9433 33.2242 9.51614 33.4021 9.14586C33.5821 8.77352 33.8324 8.48288 34.153 8.27395C34.4757 8.06296 34.8522 7.95746 35.2825 7.95746C35.6176 7.95746 35.9196 8.01952 36.1885 8.14363C36.4574 8.26775 36.6777 8.44151 36.8494 8.66492C37.0211 8.88832 37.1276 9.14896 37.169 9.44684H36.4367C36.3809 9.22964 36.2568 9.03726 36.0644 8.8697C35.8741 8.70008 35.6176 8.61527 35.2949 8.61527C35.0094 8.61527 34.7591 8.68974 34.544 8.83868C34.3309 8.98555 34.1644 9.19344 34.0444 9.46235C33.9265 9.7292 33.8676 10.0426 33.8676 10.4025C33.8676 10.7707 33.9255 11.0914 34.0413 11.3644C34.1592 11.6375 34.3247 11.8495 34.5378 12.0005C34.7529 12.1515 35.0053 12.227 35.2949 12.227C35.4852 12.227 35.6579 12.1939 35.8131 12.1277C35.9682 12.0615 36.0996 11.9664 36.2071 11.8423C36.3147 11.7181 36.3912 11.5692 36.4367 11.3954H37.169C37.1276 11.6768 37.0252 11.9302 36.8618 12.1556C36.7005 12.379 36.4864 12.5569 36.2195 12.6893C35.9548 12.8197 35.6465 12.8848 35.2949 12.8848ZM38.9718 6.43085V12.7855H38.2395V6.43085H38.9718ZM42.2492 12.8848C41.8189 12.8848 41.4414 12.7824 41.1166 12.5776C40.7939 12.3728 40.5416 12.0863 40.3595 11.7181C40.1796 11.3499 40.0896 10.9197 40.0896 10.4273C40.0896 9.93089 40.1796 9.49752 40.3595 9.12724C40.5416 8.75697 40.7939 8.46944 41.1166 8.26465C41.4414 8.05986 41.8189 7.95746 42.2492 7.95746C42.6794 7.95746 43.0559 8.05986 43.3786 8.26465C43.7034 8.46944 43.9558 8.75697 44.1357 9.12724C44.3178 9.49752 44.4088 9.93089 44.4088 10.4273C44.4088 10.9197 44.3178 11.3499 44.1357 11.7181C43.9558 12.0863 43.7034 12.3728 43.3786 12.5776C43.0559 12.7824 42.6794 12.8848 42.2492 12.8848ZM42.2492 12.227C42.576 12.227 42.8449 12.1432 43.0559 11.9757C43.2669 11.8081 43.4231 11.5878 43.5245 11.3148C43.6258 11.0417 43.6765 10.7459 43.6765 10.4273C43.6765 10.1088 43.6258 9.81194 43.5245 9.53682C43.4231 9.2617 43.2669 9.03933 43.0559 8.8697C42.8449 8.70008 42.576 8.61527 42.2492 8.61527C41.9223 8.61527 41.6534 8.70008 41.4424 8.8697C41.2314 9.03933 41.0753 9.2617 40.9739 9.53682C40.8725 9.81194 40.8219 10.1088 40.8219 10.4273C40.8219 10.7459 40.8725 11.0417 40.9739 11.3148C41.0753 11.5878 41.2314 11.8081 41.4424 11.9757C41.6534 12.1432 41.9223 12.227 42.2492 12.227ZM47.4628 12.8848C47.016 12.8848 46.6312 12.7793 46.3085 12.5683C45.9858 12.3573 45.7376 12.0667 45.5638 11.6964C45.3901 11.3261 45.3032 10.9031 45.3032 10.4273C45.3032 9.9433 45.3921 9.51614 45.57 9.14586C45.75 8.77352 46.0003 8.48288 46.3209 8.27395C46.6436 8.06296 47.0201 7.95746 47.4504 7.95746C47.7855 7.95746 48.0875 8.01952 48.3564 8.14363C48.6253 8.26775 48.8456 8.44151 49.0173 8.66492C49.189 8.88832 49.2955 9.14896 49.3369 9.44684H48.6046C48.5488 9.22964 48.4247 9.03726 48.2323 8.8697C48.042 8.70008 47.7855 8.61527 47.4628 8.61527C47.1773 8.61527 46.927 8.68974 46.7119 8.83868C46.4988 8.98555 46.3323 9.19344 46.2123 9.46235C46.0944 9.7292 46.0355 10.0426 46.0355 10.4025C46.0355 10.7707 46.0934 11.0914 46.2092 11.3644C46.3271 11.6375 46.4926 11.8495 46.7057 12.0005C46.9208 12.1515 47.1732 12.227 47.4628 12.227C47.6531 12.227 47.8258 12.1939 47.981 12.1277C48.1361 12.0615 48.2675 11.9664 48.375 11.8423C48.4826 11.7181 48.5591 11.5692 48.6046 11.3954H49.3369C49.2955 11.6768 49.1931 11.9302 49.0297 12.1556C48.8684 12.379 48.6543 12.5569 48.3874 12.6893C48.1227 12.8197 47.8144 12.8848 47.4628 12.8848ZM51.09 11.0479L51.0776 10.1419H51.2266L53.3117 8.01952H54.2177L51.9961 10.266H51.934L51.09 11.0479ZM50.4074 12.7855V6.43085H51.1397V12.7855H50.4074ZM53.4358 12.7855L51.5741 10.4273L52.0954 9.91847L54.3667 12.7855H53.4358Z" fill="#1E1E1E"/>
<path d="M10 91C20.99 91 64.97 91 75.96 91" stroke="#1E1E1E" stroke-width="2" stroke-linecap="round"/>
<path d="M32.5286 102.852C32.8886 102.482 34.3286 100.982 34.6886 100.602" stroke="#1E1E1E" stroke-linecap="round"/>
<path d="M34.6841 100.562C35.0841 100.892 36.6641 102.212 37.0641 102.542" stroke="#1E1E1E" stroke-linecap="round"/>
<path d="M37.154 102.807C36.464 103.867 33.714 108.117 33.024 109.187" stroke="#1E1E1E" stroke-linecap="round"/>
<path d="M32.5959 102.852C32.2359 102.482 30.7959 100.982 30.4359 100.602" stroke="#1E1E1E" stroke-linecap="round"/>
<path d="M30.4405 100.562C30.0405 100.892 28.4605 102.212 28.0605 102.542" stroke="#1E1E1E" stroke-linecap="round"/>
<path d="M27.9706 102.807C28.6606 103.867 31.4106 108.117 32.1006 109.187" stroke="#1E1E1E" stroke-linecap="round"/>
<path d="M30.9085 99.8459C32.0385 99.5059 34.3685 99.3759 35.5285 99.8859C36.6885 100.386 37.4785 101.796 37.8585 102.886C38.2485 103.976 38.2685 105.366 37.8385 106.426C37.4085 107.476 36.3385 108.506 35.2785 109.216C34.2085 109.916 32.5485 110.746 31.4585 110.656C30.3685 110.556 29.4285 109.506 28.7485 108.626C28.0685 107.736 27.5385 106.586 27.3585 105.346C27.1885 104.116 26.9585 102.166 27.6885 101.206C28.4285 100.236 31.1485 99.7759 31.7485 99.5659C32.3485 99.3559 31.3085 99.8259 31.2885 99.9559M33.1685 98.7859C34.3885 98.7859 35.9485 99.9459 36.8285 100.946C37.6985 101.946 38.4485 103.656 38.4085 104.806C38.3685 105.946 37.4385 106.786 36.5785 107.826C35.7085 108.866 34.2385 110.646 33.2385 111.026C32.2285 111.396 31.6385 110.846 30.5485 110.066C29.4585 109.286 27.2285 107.486 26.6985 106.326C26.1685 105.176 26.8685 104.066 27.3685 103.126C27.8685 102.186 28.7485 101.346 29.6785 100.696C30.6185 100.046 32.2485 99.4059 32.9885 99.2359C33.7185 99.0559 33.8985 99.4059 34.0785 99.6459" fill="white"/>
<path d="M32.3485 99.8359C33.4085 99.7959 34.9185 99.6459 35.9085 100.406C36.9085 101.166 38.0885 103.116 38.3085 104.386C38.5285 105.656 37.9185 107.046 37.2185 108.036C36.5185 109.026 35.2185 109.926 34.1085 110.316C33.0085 110.696 31.6385 110.876 30.5985 110.326C29.5585 109.776 28.3985 108.116 27.8685 107.016C27.3485 105.916 27.1485 104.756 27.4485 103.746C27.7485 102.736 28.6685 101.746 29.6685 100.956C30.6585 100.156 32.7985 99.2859 33.4385 98.9759C34.0685 98.6759 33.5285 99.0059 33.4585 99.1359M31.5785 99.9059C32.8185 99.6259 34.3985 99.7459 35.2785 100.076C36.1485 100.406 36.3885 100.936 36.8285 101.886C37.2685 102.836 38.0285 104.596 37.9285 105.776C37.8285 106.956 37.2685 108.246 36.2085 108.976C35.1385 109.696 32.8985 110.186 31.5385 110.136C30.1885 110.086 28.7185 109.396 28.0785 108.666C27.4485 107.936 27.8385 107.006 27.7185 105.756C27.5985 104.516 26.8385 102.246 27.3485 101.186C27.8585 100.126 30.1285 99.6659 30.7785 99.3859C31.4285 99.0959 31.2685 99.2859 31.2685 99.4959" stroke="#1E1E1E" stroke-linecap="round"/>
<path d="M32.4689 105.104C32.3989 104.354 32.1089 101.364 32.1389 100.634M32.0789 104.804C32.1089 104.074 32.7489 101.544 32.8289 100.904" stroke="#1E1E1E" stroke-width="0.5" stroke-linecap="round"/>
<path d="M35.5643 106.02C35.0643 105.69 33.3943 104.58 32.8343 104.39M36.1043 106.6C35.5743 106.31 33.2543 105.08 32.7143 104.71" stroke="#1E1E1E" stroke-width="0.5" stroke-linecap="round"/>
</svg>
