<svg width="85" height="126" viewBox="0 0 85 126" fill="none" xmlns="http://www.w3.org/2000/svg">
<path d="M22.3363 2.20432C31.3863 6.28432 42.8163 4.85432 62.7363 2.20432C78.3563 -0.975683 84.7763 6.90432 82.9363 22.4043C83.1563 48.6343 82.5763 79.8943 82.9363 103.954C83.0163 117.554 74.2963 125.234 62.7363 124.154C50.1163 121.054 35.2063 122.934 22.3363 124.154C10.4663 126.794 3.04627 120.304 2.13627 103.954C0.226266 75.6143 2.82627 43.5843 2.13627 22.4043C1.39627 8.47432 6.12627 1.61432 22.3363 2.20432Z" fill="white"/>
<path d="M22.3363 2.20433C36.6963 3.58433 48.9363 2.70433 62.7363 2.20433M22.3363 2.20433C34.7463 1.54433 47.1363 2.56433 62.7363 2.20433M22.3363 2.20433C9.70629 2.24433 3.46629 8.69433 2.13629 22.4043M22.3363 2.20433C9.08629 1.98433 4.39629 10.1443 2.13629 22.4043M62.7363 2.20433C74.2563 1.83433 83.4163 10.3043 82.9363 22.4043M62.7363 2.20433C76.3863 2.26433 84.0563 8.21433 82.9363 22.4043M82.9363 22.4043C80.8763 39.4143 81.9863 54.2043 82.9363 103.954M82.9363 22.4043C82.0163 43.0643 82.0863 62.6443 82.9363 103.954M82.9363 103.954C83.0863 117.104 75.3663 123.814 62.7363 124.154M82.9363 103.954C81.1363 115.854 76.0463 122.144 62.7363 124.154M62.7363 124.154C48.8463 124.924 37.8963 125.184 22.3363 124.154M62.7363 124.154C54.1263 124.314 44.6463 123.384 22.3363 124.154M22.3363 124.154C6.99629 122.374 3.53629 117.154 2.13629 103.954M22.3363 124.154C8.92629 125.144 1.14629 116.284 2.13629 103.954M2.13629 103.954C1.54629 77.0643 1.77629 52.1943 2.13629 22.4043M2.13629 103.954C2.05629 83.4543 3.16629 63.6743 2.13629 22.4043" stroke="#1E1E1E" stroke-width="2" stroke-linecap="round"/>
<path d="M10.9517 90.4269C21.9417 90.4269 65.9217 90.4269 76.9117 90.4269" stroke="#1E1E1E" stroke-width="2" stroke-linecap="round"/>
<path d="M10.2204 106.024C10.2104 105.124 10.1904 101.514 10.1804 100.614" stroke="#1E1E1E" stroke-linecap="round"/>
<path d="M10.1484 100.817C10.3984 100.457 11.4084 99.0367 11.6584 98.6767" stroke="#1E1E1E" stroke-linecap="round"/>
<path d="M13.1511 106.088C13.1611 105.188 13.1811 101.578 13.1911 100.678" stroke="#1E1E1E" stroke-linecap="round"/>
<path d="M13.2231 100.881C12.9731 100.521 11.9631 99.1009 11.7131 98.7409" stroke="#1E1E1E" stroke-linecap="round"/>
<path d="M8.00806 106.574C9.18806 106.554 13.8881 106.474 15.0581 106.454" stroke="#1E1E1E" stroke-linecap="round"/>
<path d="M11.8667 106.665C11.8767 107.295 11.9167 109.835 11.9267 110.465" stroke="#1E1E1E" stroke-linecap="round"/>
<path d="M53.2778 101.746C53.6378 101.376 55.0778 99.8759 55.4378 99.4959" stroke="#1E1E1E" stroke-linecap="round"/>
<path d="M55.4333 99.4557C55.8333 99.7857 57.4133 101.106 57.8133 101.436" stroke="#1E1E1E" stroke-linecap="round"/>
<path d="M57.9032 101.701C57.2132 102.761 54.4632 107.011 53.7732 108.081" stroke="#1E1E1E" stroke-linecap="round"/>
<path d="M53.3452 101.746C52.9852 101.376 51.5452 99.8759 51.1852 99.4959" stroke="#1E1E1E" stroke-linecap="round"/>
<path d="M51.1897 99.4557C50.7897 99.7857 49.2097 101.106 48.8097 101.436" stroke="#1E1E1E" stroke-linecap="round"/>
<path d="M48.72 101.701C49.41 102.761 52.16 107.011 52.85 108.081" stroke="#1E1E1E" stroke-linecap="round"/>
<path d="M23.6638 2.09119C37.5038 2.09119 51.3438 2.09119 60.0538 2.09119C62.5338 2.09119 63.7838 3.33119 63.7838 5.82119C63.7838 7.93119 63.7838 10.0412 63.7838 13.2712C63.7838 15.7512 62.5338 16.9912 60.0538 16.9912C50.3838 16.9912 40.7238 16.9912 23.6638 16.9912C21.1738 16.9912 19.9338 15.7512 19.9338 13.2712C19.9338 11.0412 19.9338 8.81119 19.9338 5.82119C19.9338 3.33119 21.1738 2.09119 23.6638 2.09119Z" fill="white"/>
<path d="M23.6638 2.09119C33.7838 2.09119 43.9038 2.09119 60.0538 2.09119M23.6638 2.09119C33.9638 2.09119 44.2738 2.09119 60.0538 2.09119M23.6638 2.09119C21.1738 2.09119 19.9338 3.33119 19.9338 5.82119M60.0538 2.09119C62.5338 2.09119 63.7838 3.33119 63.7838 5.82119M63.7838 5.82119C63.7838 8.54119 63.7838 11.2612 63.7838 13.2712M63.7838 5.82119C63.7838 7.95119 63.7838 10.0912 63.7838 13.2712M63.7838 13.2712C63.7838 15.7512 62.5338 16.9912 60.0538 16.9912M60.0538 16.9912C50.8838 16.9912 41.7138 16.9912 23.6638 16.9912M60.0538 16.9912C49.0738 16.9912 38.0838 16.9912 23.6638 16.9912M23.6638 16.9912C21.1738 16.9912 19.9338 15.7512 19.9338 13.2712M19.9338 13.2712C19.9338 11.4512 19.9338 9.64119 19.9338 5.82119M19.9338 13.2712C19.9338 10.9412 19.9338 8.61119 19.9338 5.82119" stroke="#1E1E1E" stroke-width="2" stroke-linecap="round"/>
<path d="M36.7151 5.28382V11.6385H35.9704L32.5076 6.64908H32.4455V11.6385H31.676V5.28382H32.4207L35.8959 10.2856H35.958V5.28382H36.7151ZM39.5581 11.7502C39.256 11.7502 38.982 11.6933 38.7358 11.5795C38.4896 11.4637 38.2942 11.2972 38.1494 11.08C38.0046 10.8607 37.9322 10.5959 37.9322 10.2856C37.9322 10.0126 37.9859 9.79125 38.0935 9.62163C38.2011 9.44993 38.3448 9.31548 38.5248 9.21825C38.7048 9.12103 38.9034 9.04863 39.1206 9.00105C39.3398 8.95141 39.5601 8.9121 39.7815 8.88314C40.0711 8.84591 40.3059 8.81798 40.4858 8.79937C40.6679 8.77868 40.8002 8.74455 40.883 8.69697C40.9678 8.64939 41.0102 8.56665 41.0102 8.44874V8.42392C41.0102 8.11777 40.9264 7.87988 40.7589 7.71026C40.5934 7.54064 40.3421 7.45582 40.0049 7.45582C39.6553 7.45582 39.3812 7.53236 39.1826 7.68544C38.984 7.83851 38.8444 8.00193 38.7637 8.17569L38.0687 7.92746C38.1928 7.63786 38.3583 7.41238 38.5651 7.25104C38.7741 7.08762 39.0016 6.97385 39.2478 6.90972C39.496 6.84353 39.7401 6.81043 39.9801 6.81043C40.1331 6.81043 40.309 6.82905 40.5075 6.86628C40.7082 6.90145 40.9016 6.97488 41.0878 7.08658C41.276 7.19829 41.4322 7.36688 41.5563 7.59235C41.6804 7.81783 41.7425 8.11984 41.7425 8.49839V11.6385H41.0102V10.9931H40.973C40.9233 11.0965 40.8406 11.2072 40.7247 11.3251C40.6089 11.443 40.4548 11.5433 40.2624 11.6261C40.07 11.7088 39.8353 11.7502 39.5581 11.7502ZM39.6698 11.0924C39.9594 11.0924 40.2035 11.0355 40.402 10.9217C40.6027 10.808 40.7537 10.6611 40.8551 10.4811C40.9585 10.3012 41.0102 10.1119 41.0102 9.91329V9.24308C40.9792 9.28031 40.9109 9.31444 40.8054 9.34547C40.702 9.37443 40.582 9.40029 40.4455 9.42304C40.311 9.44373 40.1797 9.46235 40.0514 9.47889C39.9252 9.49337 39.8228 9.50579 39.7442 9.51613C39.5539 9.54095 39.376 9.58129 39.2105 9.63714C39.0471 9.69092 38.9147 9.77263 38.8134 9.88227C38.7141 9.98983 38.6644 10.1367 38.6644 10.3229C38.6644 10.5773 38.7586 10.7697 38.9468 10.9C39.1371 11.0283 39.3781 11.0924 39.6698 11.0924ZM43.1783 11.6385V5.28382H43.9106V7.62959H43.9727C44.0264 7.54684 44.1009 7.44134 44.1961 7.31309C44.2933 7.18277 44.4319 7.06693 44.6119 6.96557C44.7939 6.86214 45.0401 6.81043 45.3503 6.81043C45.7516 6.81043 46.1054 6.91075 46.4115 7.11141C46.7177 7.31206 46.9566 7.59649 47.1283 7.96469C47.3 8.3329 47.3858 8.7673 47.3858 9.2679C47.3858 9.77263 47.3 10.2101 47.1283 10.5804C46.9566 10.9486 46.7187 11.2341 46.4146 11.4368C46.1105 11.6375 45.7599 11.7378 45.3627 11.7378C45.0566 11.7378 44.8115 11.6871 44.6274 11.5857C44.4433 11.4823 44.3016 11.3654 44.2023 11.2351C44.103 11.1027 44.0264 10.9931 43.9727 10.9062H43.8858V11.6385H43.1783ZM43.8982 9.25549C43.8982 9.61542 43.9509 9.93295 44.0564 10.2081C44.1619 10.4811 44.316 10.6952 44.5188 10.8504C44.7215 11.0034 44.9697 11.08 45.2635 11.08C45.5696 11.08 45.8251 10.9993 46.0299 10.8379C46.2367 10.6745 46.3919 10.4553 46.4953 10.1801C46.6008 9.90295 46.6535 9.59473 46.6535 9.25549C46.6535 8.92038 46.6018 8.61837 46.4984 8.34945C46.397 8.07847 46.2429 7.86437 46.0361 7.70716C45.8313 7.54788 45.5737 7.46824 45.2635 7.46824C44.9656 7.46824 44.7153 7.54374 44.5126 7.69475C44.3098 7.84368 44.1568 8.05261 44.0533 8.32152C43.9499 8.58837 43.8982 8.89969 43.8982 9.25549ZM49.2382 5.28382V11.6385H48.506V5.28382H49.2382ZM51.9819 11.7502C51.6799 11.7502 51.4058 11.6933 51.1597 11.5795C50.9135 11.4637 50.718 11.2972 50.5732 11.08C50.4284 10.8607 50.356 10.5959 50.356 10.2856C50.356 10.0126 50.4098 9.79125 50.5174 9.62163C50.625 9.44993 50.7687 9.31548 50.9487 9.21825C51.1287 9.12103 51.3272 9.04863 51.5444 9.00105C51.7637 8.95141 51.984 8.9121 52.2053 8.88314C52.4949 8.84591 52.7297 8.81798 52.9097 8.79937C53.0917 8.77868 53.2241 8.74455 53.3069 8.69697C53.3917 8.64939 53.4341 8.56665 53.4341 8.44874V8.42392C53.4341 8.11777 53.3503 7.87988 53.1827 7.71026C53.0173 7.54064 52.7659 7.45582 52.4288 7.45582C52.0792 7.45582 51.8051 7.53236 51.6065 7.68544C51.4079 7.83851 51.2683 8.00193 51.1876 8.17569L50.4926 7.92746C50.6167 7.63786 50.7822 7.41238 50.989 7.25104C51.1979 7.08762 51.4255 6.97385 51.6717 6.90972C51.9199 6.84353 52.164 6.81043 52.4039 6.81043C52.557 6.81043 52.7328 6.82905 52.9314 6.86628C53.1321 6.90145 53.3255 6.97488 53.5117 7.08658C53.6999 7.19829 53.8561 7.36688 53.9802 7.59235C54.1043 7.81783 54.1664 8.11984 54.1664 8.49839V11.6385H53.4341V10.9931H53.3968C53.3472 11.0965 53.2645 11.2072 53.1486 11.3251C53.0328 11.443 52.8787 11.5433 52.6863 11.6261C52.4939 11.7088 52.2591 11.7502 51.9819 11.7502ZM52.0936 11.0924C52.3832 11.0924 52.6273 11.0355 52.8259 10.9217C53.0266 10.808 53.1776 10.6611 53.2789 10.4811C53.3824 10.3012 53.4341 10.1119 53.4341 9.91329V9.24308C53.4031 9.28031 53.3348 9.31444 53.2293 9.34547C53.1259 9.37443 53.0059 9.40029 52.8694 9.42304C52.7349 9.44373 52.6035 9.46235 52.4753 9.47889C52.3491 9.49337 52.2467 9.50579 52.1681 9.51613C51.9778 9.54095 51.7999 9.58129 51.6344 9.63714C51.471 9.69092 51.3386 9.77263 51.2373 9.88227C51.138 9.98983 51.0883 10.1367 51.0883 10.3229C51.0883 10.5773 51.1824 10.7697 51.3707 10.9C51.561 11.0283 51.802 11.0924 52.0936 11.0924Z" fill="#1E1E1E"/>
<path fill-rule="evenodd" clip-rule="evenodd" d="M25.7954 37.1018L65.2354 37.3018L42.2054 67.7418L24.2654 37.4718" fill="white"/>
<path d="M24.8254 36.9718C36.9154 36.1918 48.6654 36.8218 64.6654 36.7018M24.8254 36.9718C33.2254 36.7418 41.9954 37.0718 64.6654 36.7018M24.8254 36.9718C33.7054 50.8618 39.0254 59.3618 43.0854 67.2318M24.8254 36.9718C31.8154 48.8018 37.3754 58.1518 43.0854 67.2318M64.6654 36.7018C57.3854 48.1618 49.2154 58.7818 43.0854 67.2318M64.6654 36.7018C60.4754 42.7618 55.7354 49.2718 43.0854 67.2318" stroke="#1E1E1E" stroke-width="2" stroke-linecap="round"/>
<path d="M38.2727 59.1638C37.1727 60.8138 33.0227 65.4638 31.8627 69.3538C30.7027 73.2438 31.4327 80.2938 31.3227 82.5038M39.0527 60.1538C37.8927 61.8638 32.7527 66.0238 31.4127 69.8038C30.0727 73.5838 31.0227 80.6638 31.0027 82.8538" stroke="#1E1E1E" stroke-width="2" stroke-linecap="round"/>
<path d="M49.7647 57.6213C51.0547 58.9013 55.8747 61.6113 57.1047 65.4013C58.3347 69.1913 57.0847 77.8013 57.1447 80.3713M49.0847 58.5613C50.3447 59.9313 55.4247 62.1513 56.7047 65.8513C57.9847 69.5513 56.5847 78.1913 56.7547 80.7713" stroke="#1E1E1E" stroke-width="2" stroke-linecap="round"/>
<path fill-rule="evenodd" clip-rule="evenodd" d="M34.8099 44.5319L52.1699 44.5119L43.6499 54.9819L35.5099 44.1519" fill="white"/>
<path d="M35.3699 44.0319C39.6999 43.8519 44.9699 44.3319 52.7699 43.9319M35.3699 44.0319C40.5999 44.2719 46.3399 44.0119 52.7699 43.9319M35.3699 44.0319C40.1199 50.1919 41.2699 52.7119 43.3499 55.6119M35.3699 44.0319C38.5199 48.4819 41.0699 52.0219 43.3499 55.6119M52.7699 43.9319C48.8099 48.4219 46.1399 51.9319 43.3499 55.6119M52.7699 43.9319C49.5499 48.1219 46.2399 51.9019 43.3499 55.6119" stroke="#1E1E1E" stroke-width="2" stroke-linecap="round"/>
<path d="M39.2317 48.4096C39.5417 47.9396 40.8717 46.0296 41.2017 45.4996M38.7717 49.0496C39.0517 48.6696 40.6117 46.5596 41.0017 45.9596" stroke="#1E1E1E" stroke-linecap="round"/>
<path d="M43.3584 48.6239C43.6884 48.0839 44.9084 45.6639 45.1684 45.1539M43.0084 48.3239C43.3184 47.8539 44.7184 46.0339 44.9884 45.4739" stroke="#1E1E1E" stroke-linecap="round"/>
<path d="M47.2497 48.2789C47.4997 47.7689 48.4197 46.0089 48.7197 45.5089M46.9197 48.9189C47.0997 48.2989 48.0597 45.5089 48.3997 44.9789" stroke="#1E1E1E" stroke-linecap="round"/>
<path d="M46.8273 48.5936C46.5373 48.1036 45.6373 45.8436 45.3873 45.2236M47.4273 48.3736C47.0973 47.9636 45.6073 46.2136 45.2273 45.6736" stroke="#1E1E1E" stroke-linecap="round"/>
<path d="M42.7667 48.3912C42.5167 47.7712 41.3167 45.4512 40.9267 44.8712M42.4567 48.0812C42.1767 47.4712 40.9567 45.6412 40.7267 45.1512" stroke="#1E1E1E" stroke-linecap="round"/>
<path d="M43.3847 50.9354C43.6747 50.4754 44.7647 48.8554 45.1547 48.4854M43.0447 51.5254C43.4047 51.0954 45.3447 49.1754 45.7747 48.7754" stroke="#1E1E1E" stroke-linecap="round"/>
<path d="M39.3564 49.9788C39.5964 49.7088 40.9964 48.5488 41.2764 48.2988M39.8264 50.5888C40.0264 50.3988 40.9564 49.1788 41.1264 48.7288" stroke="#1E1E1E" stroke-linecap="round"/>
<path d="M47.2261 50.9248C47.0661 50.6148 45.9661 49.1948 45.6761 48.7848M46.9261 50.5948C46.7461 50.2048 45.6861 48.5448 45.4061 48.2448" stroke="#1E1E1E" stroke-linecap="round"/>
<path d="M42.7356 51.4279C42.4256 50.9679 41.3756 48.8779 41.1356 48.4379M42.3056 51.1979C41.9256 50.7879 40.9756 49.2979 40.7756 48.7979" stroke="#1E1E1E" stroke-linecap="round"/>
<path d="M32.3644 38.8267C32.8644 38.8267 33.4744 38.9267 33.7844 39.1167C34.1044 39.3067 34.2144 39.5967 34.2544 39.9767C34.2844 40.3667 34.1944 41.0367 33.9844 41.4267C33.7844 41.8167 33.4344 42.1567 33.0144 42.3367C32.5944 42.5267 31.9544 42.6367 31.4644 42.5367C30.9744 42.4467 30.2744 42.1767 30.0444 41.7567C29.8244 41.3367 29.9944 40.4867 30.1044 40.0467C30.2244 39.5967 30.4444 39.2567 30.7244 39.0967C31.0144 38.9267 31.6144 39.1167 31.8144 39.0667C32.0244 39.0067 31.8944 38.7367 31.9644 38.7767M32.2944 38.7867C32.8144 38.9167 33.8044 39.4267 34.0944 39.7867C34.3944 40.1467 34.1044 40.6567 34.0844 40.9467C34.0544 41.2467 34.1144 41.3067 33.9344 41.5567C33.7644 41.7967 33.4344 42.3867 33.0244 42.4167C32.6144 42.4467 31.8844 41.9267 31.4544 41.7367C31.0244 41.5467 30.6644 41.5667 30.4544 41.2667C30.2544 40.9567 30.0744 40.1867 30.2244 39.8967C30.3744 39.6167 31.0644 39.7867 31.3744 39.5367C31.6844 39.2767 31.8744 38.4167 32.0744 38.3767C32.2844 38.3267 32.5044 39.0967 32.6044 39.2567" fill="white"/>
<path d="M32.0944 38.5067C32.5244 38.4567 33.2244 38.7367 33.5744 39.0067C33.9144 39.2767 34.0544 39.7367 34.1444 40.1167C34.2344 40.5067 34.3544 40.9267 34.1344 41.3267C33.9144 41.7167 33.2744 42.2767 32.8444 42.4567C32.4244 42.6467 32.0444 42.6067 31.5744 42.4567C31.1144 42.3067 30.3544 41.8867 30.0644 41.5667C29.7844 41.2567 29.7444 40.9467 29.8744 40.5567C29.9944 40.1567 30.4544 39.5367 30.8344 39.2067C31.2044 38.8867 31.8844 38.7167 32.1144 38.6067C32.3444 38.4967 32.2244 38.4267 32.2144 38.5467M31.6844 39.0367C32.0544 39.0067 32.8944 39.2067 33.2844 39.4667C33.6644 39.7267 33.8644 40.3067 34.0044 40.5867C34.1544 40.8667 34.3444 40.8867 34.1544 41.1667C33.9644 41.4567 33.3544 42.1367 32.8744 42.3167C32.3944 42.4967 31.7744 42.3667 31.2744 42.2467C30.7644 42.1267 30.0044 41.9667 29.8344 41.5767C29.6644 41.1767 30.0844 40.1967 30.2544 39.8567C30.4244 39.5267 30.6144 39.6467 30.8444 39.5367C31.0744 39.4267 31.4844 39.2767 31.6644 39.1867C31.8444 39.1067 31.7844 39.0567 31.9244 39.0367" stroke="#1E1E1E" stroke-linecap="round"/>
<path d="M56.3196 38.6978C56.7196 38.5878 57.1496 38.5978 57.4896 38.8178C57.8296 39.0478 58.2096 39.6278 58.3696 40.0578C58.5296 40.4878 58.6096 40.9978 58.4396 41.3978C58.2696 41.7878 57.8296 42.2578 57.3496 42.4478C56.8796 42.6478 56.0396 42.7378 55.5896 42.5578C55.1496 42.3678 54.9096 41.7278 54.6696 41.3478C54.4196 40.9678 54.1796 40.5778 54.1196 40.2878C54.0696 39.9878 54.0496 39.8378 54.3396 39.5778C54.6196 39.3178 55.5196 38.7978 55.8396 38.7178C56.1596 38.6378 56.1596 39.0778 56.2496 39.1078M56.4596 39.1778C56.8896 39.2078 56.9996 39.4078 57.3496 39.5478C57.6896 39.6878 58.2996 39.6978 58.5296 40.0078C58.7696 40.3278 58.9096 41.1578 58.7596 41.4478C58.5996 41.7478 58.0396 41.6378 57.5896 41.7778C57.1496 41.9178 56.5696 42.3578 56.0796 42.2978C55.5896 42.2378 54.9296 41.6678 54.6596 41.4278C54.3996 41.1778 54.5396 41.2678 54.4996 40.8278C54.4496 40.3978 54.0696 39.0978 54.3796 38.8278C54.6896 38.5578 55.9896 39.1278 56.3296 39.1878C56.6796 39.2578 56.5096 39.2378 56.4396 39.2078" fill="white"/>
<path d="M56.2296 38.5478C56.6696 38.5378 57.1196 38.7478 57.5196 38.9978C57.9096 39.2478 58.4696 39.6078 58.5896 40.0478C58.7096 40.4878 58.4596 41.2278 58.2596 41.6178C58.0496 42.0178 57.8296 42.3078 57.3596 42.4378C56.8996 42.5578 55.9796 42.4778 55.4796 42.3678C54.9696 42.2678 54.5396 42.1378 54.3296 41.7878C54.1096 41.4478 54.1296 40.7578 54.1996 40.2978C54.2696 39.8278 54.3896 39.3178 54.7396 39.0178C55.0996 38.7178 56.0596 38.4678 56.3096 38.4878C56.5596 38.5078 56.2396 39.0078 56.2396 39.1178M56.1996 39.0178C56.6796 39.0378 57.1596 39.4078 57.5696 39.5878C57.9796 39.7678 58.5496 39.7478 58.6496 40.0878C58.7496 40.4378 58.4596 41.2778 58.1496 41.6478C57.8496 42.0178 57.3396 42.1878 56.8196 42.2978C56.2996 42.4078 55.3796 42.5378 55.0096 42.3078C54.6396 42.0778 54.7096 41.2378 54.5896 40.9278C54.4596 40.6178 54.2696 40.6678 54.2596 40.4278C54.2496 40.1878 54.1796 39.7178 54.5196 39.4778C54.8496 39.2378 55.8896 39.0778 56.2696 38.9878C56.6596 38.8978 56.7396 38.8578 56.8396 38.9278" stroke="#1E1E1E" stroke-linecap="round"/>
<path d="M31.808 40.1793C31.768 40.1893 31.798 40.3593 31.848 40.4193C31.888 40.4793 32.038 40.4893 32.068 40.5393C32.108 40.5993 32.098 40.7093 32.048 40.7393C31.998 40.7793 31.778 40.8193 31.788 40.7393C31.788 40.6493 32.048 40.2893 32.068 40.2293C32.088 40.1593 31.998 40.2493 31.898 40.3393C31.788 40.4193 31.508 40.7193 31.458 40.7293C31.398 40.7393 31.468 40.3893 31.548 40.3893C31.638 40.3893 31.868 40.7393 31.968 40.7393C32.068 40.7493 32.178 40.4793 32.138 40.4093M31.598 40.8693C31.578 40.7793 31.848 40.3693 31.988 40.3193C32.118 40.2593 32.348 40.5893 32.418 40.5493C32.478 40.4993 32.368 40.0593 32.358 40.0493C32.348 40.0393 32.388 40.4393 32.348 40.4893C32.308 40.5493 32.128 40.2793 32.108 40.3493C32.098 40.4293 32.368 40.9993 32.258 40.9393C32.148 40.8893 31.488 40.0293 31.448 40.0193C31.408 40.0093 31.888 40.7293 32.008 40.8593C32.128 40.9993 32.238 40.8993 32.168 40.8393C32.108 40.7693 31.668 40.5993 31.628 40.4693" fill="white"/>
<path d="M31.678 40.2693C31.718 40.2693 31.968 40.2093 32.018 40.2693C32.058 40.3393 31.918 40.5793 31.958 40.6493C31.988 40.7093 32.248 40.6793 32.228 40.6693C32.208 40.6593 31.908 40.5793 31.848 40.5893C31.778 40.6093 31.818 40.7993 31.838 40.7793C31.858 40.7693 31.978 40.5693 31.958 40.4793C31.948 40.3993 31.758 40.3193 31.738 40.2693C31.718 40.2093 31.828 40.0793 31.828 40.1593C31.828 40.2393 31.738 40.6793 31.748 40.7493C31.758 40.8293 31.838 40.7193 31.888 40.6193M31.558 40.7193C31.648 40.6293 31.978 40.1493 32.058 40.1093C32.128 40.0793 32.018 40.4393 31.998 40.4993C31.978 40.5593 31.988 40.4493 31.928 40.4693C31.858 40.4893 31.558 40.6693 31.608 40.6093C31.648 40.5493 32.148 40.0693 32.198 40.0993C32.258 40.1393 32.098 40.6893 31.948 40.8193C31.798 40.9393 31.368 40.8793 31.308 40.8493C31.248 40.8293 31.448 40.6993 31.598 40.6493C31.748 40.5993 32.108 40.5193 32.218 40.5593C32.328 40.5893 32.318 40.8893 32.258 40.8693" stroke="#1E1E1E" stroke-linecap="round"/>
<path d="M56.1881 40.566C56.2381 40.626 56.3981 40.626 56.4381 40.686C56.4881 40.736 56.4981 40.846 56.4581 40.876C56.4281 40.916 56.2181 40.966 56.2281 40.876C56.2381 40.796 56.5081 40.436 56.5281 40.376C56.5481 40.306 56.4481 40.406 56.3381 40.486C56.2281 40.576 55.9381 40.876 55.8681 40.886C55.7981 40.896 55.8481 40.546 55.9181 40.546C55.9981 40.546 56.2081 40.886 56.3081 40.896C56.4081 40.896 56.5681 40.626 56.5381 40.556C56.5081 40.496 56.1781 40.466 56.1281 40.506M56.3481 40.456C56.4881 40.406 56.7281 40.736 56.7981 40.686C56.8681 40.646 56.7681 40.196 56.7681 40.186C56.7681 40.176 56.8181 40.586 56.7781 40.636C56.7481 40.686 56.5681 40.426 56.5581 40.496C56.5381 40.576 56.8081 41.146 56.6881 41.096C56.5781 41.036 55.8981 40.186 55.8481 40.176C55.7981 40.156 56.2781 40.876 56.3881 41.016C56.4981 41.156 56.5881 41.056 56.5281 40.986C56.4681 40.916 56.0681 40.746 56.0381 40.616C56.0081 40.476 56.2881 40.146 56.3581 40.176" fill="white"/>
<path d="M56.3581 40.416C56.4081 40.476 56.2781 40.726 56.3281 40.786C56.3681 40.856 56.6381 40.816 56.6281 40.806C56.6281 40.796 56.3381 40.716 56.2781 40.736C56.2281 40.756 56.2681 40.946 56.2881 40.926C56.3081 40.916 56.4281 40.716 56.4081 40.636C56.3781 40.546 56.1881 40.476 56.1481 40.426C56.1181 40.366 56.2181 40.236 56.2081 40.316C56.1981 40.396 56.0881 40.826 56.0981 40.906C56.1181 40.976 56.2281 40.866 56.2881 40.766C56.3381 40.666 56.4181 40.346 56.4381 40.286M56.4081 40.256C56.4881 40.216 56.3881 40.586 56.3781 40.636C56.3681 40.696 56.3981 40.586 56.3381 40.606C56.2881 40.626 55.9981 40.806 56.0481 40.746C56.0981 40.686 56.5981 40.216 56.6581 40.246C56.7181 40.286 56.5481 40.846 56.3881 40.966C56.2381 41.096 55.7781 41.036 55.7081 41.006C55.6381 40.986 55.8181 40.856 55.9681 40.806C56.1081 40.756 56.4581 40.666 56.5681 40.706C56.6881 40.736 56.7181 41.036 56.6581 41.016C56.5981 41.006 56.3381 40.626 56.2181 40.626" stroke="#1E1E1E" stroke-linecap="round"/>
</svg>
