<svg width="85" height="126" viewBox="0 0 85 126" fill="none" xmlns="http://www.w3.org/2000/svg">
<path d="M21.5928 2.08784C33.2428 2.90784 51.1028 3.04784 61.9928 2.08784C75.6928 2.52784 80.5228 5.56784 82.1928 22.2878C83.0228 40.0778 83.6828 64.9778 82.1928 103.838C79.5828 119.478 73.6728 121.358 61.9928 124.038C48.4728 122.138 39.8428 122.678 21.5928 124.038C7.12281 121.238 3.60281 116.698 1.39281 103.838C0.542809 78.7578 5.93281 48.6278 1.39281 22.2878C1.80281 9.58784 5.07281 0.0378418 21.5928 2.08784Z" fill="white"/>
<path d="M21.5928 2.08784C31.6828 2.64784 37.8228 2.23784 61.9928 2.08784M21.5928 2.08784C38.1128 1.27784 53.4228 1.57784 61.9928 2.08784M21.5928 2.08784C9.54281 1.75784 3.36281 10.3278 1.39281 22.2878M21.5928 2.08784C7.54281 3.61784 -0.227191 10.7478 1.39281 22.2878M61.9928 2.08784C73.7128 3.58784 80.8628 8.86785 82.1928 22.2878M61.9928 2.08784C76.0928 3.46784 81.5928 7.99785 82.1928 22.2878M82.1928 22.2878C84.5828 41.3778 80.9328 65.7678 82.1928 103.838M82.1928 22.2878C82.6928 54.9778 81.7928 87.0578 82.1928 103.838M82.1928 103.838C81.8028 117.678 77.1028 122.588 61.9928 124.038M82.1928 103.838C81.9628 115.588 73.8728 124.708 61.9928 124.038M61.9928 124.038C51.1628 123.578 34.7928 124.158 21.5928 124.038M61.9928 124.038C46.7528 125.088 31.8628 123.968 21.5928 124.038M21.5928 124.038C6.18281 125.078 2.59281 117.218 1.39281 103.838M21.5928 124.038C9.88281 125.188 1.07281 115.558 1.39281 103.838M1.39281 103.838C3.24281 73.3578 1.17281 41.3278 1.39281 22.2878M1.39281 103.838C1.70281 76.0378 1.85281 49.1378 1.39281 22.2878" stroke="#1E1E1E" stroke-width="2" stroke-linecap="round"/>
<path d="M21.0115 2.57697C33.2515 2.57697 45.4915 2.57697 57.7215 2.57697M21.0115 2.57697C35.4515 2.57697 49.9015 2.57697 57.7215 2.57697M21.0115 2.57697C18.6415 2.57697 17.4615 3.75697 17.4615 6.12697M57.7215 2.57697C60.0815 2.57697 61.2715 3.75697 61.2715 6.12697M61.2715 6.12697C61.2715 8.27697 61.2715 10.417 61.2715 13.237M61.2715 6.12697C61.2715 7.66697 61.2715 9.19697 61.2715 13.237M61.2715 13.237C61.2715 15.607 60.0815 16.787 57.7215 16.787M57.7215 16.787C47.6915 16.787 37.6615 16.787 21.0115 16.787M57.7215 16.787C45.4015 16.787 33.0915 16.787 21.0115 16.787M21.0115 16.787C18.6415 16.787 17.4615 15.607 17.4615 13.237M17.4615 13.237C17.4615 11.347 17.4615 9.45697 17.4615 6.12697M17.4615 13.237C17.4615 11.747 17.4615 10.257 17.4615 6.12697" stroke="#1E1E1E" stroke-width="2" stroke-linecap="round"/>
<path d="M22.5194 10.2761V3.92145H24.6665C25.163 3.92145 25.5705 4.00626 25.8891 4.17589C26.2076 4.34344 26.4435 4.57409 26.5965 4.86783C26.7496 5.16156 26.8261 5.49564 26.8261 5.87005C26.8261 6.24447 26.7496 6.57647 26.5965 6.86607C26.4435 7.15567 26.2087 7.38322 25.8922 7.5487C25.5757 7.71212 25.1713 7.79383 24.679 7.79383H22.9413V7.09879H24.6541C24.9934 7.09879 25.2664 7.04914 25.4733 6.94985C25.6822 6.85056 25.8332 6.7099 25.9263 6.52786C26.0215 6.34376 26.069 6.12449 26.069 5.87005C26.069 5.61562 26.0215 5.39325 25.9263 5.20294C25.8312 5.01263 25.6791 4.86576 25.4702 4.76233C25.2613 4.65683 24.9851 4.60408 24.6417 4.60408H23.2889V10.2761H22.5194ZM25.5105 7.42149L27.0744 10.2761H26.1807L24.6417 7.42149H25.5105ZM29.9562 10.3754C29.4969 10.3754 29.1008 10.2741 28.7678 10.0713C28.4368 9.86654 28.1813 9.58108 28.0013 9.21494C27.8234 8.84674 27.7345 8.41854 27.7345 7.93036C27.7345 7.44217 27.8234 7.01191 28.0013 6.63956C28.1813 6.26515 28.4316 5.97348 28.7522 5.76456C29.0749 5.55356 29.4514 5.44806 29.8817 5.44806C30.1299 5.44806 30.375 5.48943 30.6171 5.57218C30.8591 5.65492 31.0794 5.78938 31.278 5.97555C31.4766 6.15965 31.6348 6.40375 31.7527 6.70783C31.8706 7.01191 31.9296 7.38632 31.9296 7.83106V8.14135H28.2558V7.50837H31.1849C31.1849 7.23945 31.1311 6.9995 31.0235 6.7885C30.918 6.57751 30.767 6.41099 30.5705 6.28894C30.3761 6.16689 30.1465 6.10587 29.8817 6.10587C29.59 6.10587 29.3376 6.17827 29.1246 6.32307C28.9136 6.4658 28.7512 6.65197 28.6374 6.88159C28.5237 7.1112 28.4668 7.35736 28.4668 7.62007V8.04206C28.4668 8.40199 28.5288 8.70711 28.6529 8.9574C28.7791 9.20563 28.9539 9.39491 29.1773 9.52523C29.4007 9.65348 29.6603 9.71761 29.9562 9.71761C30.1485 9.71761 30.3223 9.69072 30.4774 9.63693C30.6346 9.58108 30.7701 9.49834 30.8839 9.3887C30.9977 9.277 31.0856 9.13841 31.1477 8.97292L31.8551 9.1715C31.7806 9.41146 31.6555 9.62245 31.4797 9.80449C31.3038 9.98445 31.0866 10.1251 30.8281 10.2265C30.5695 10.3258 30.2789 10.3754 29.9562 10.3754ZM34.9673 12.1627C34.6136 12.1627 34.3095 12.1172 34.055 12.0261C33.8006 11.9372 33.5886 11.8193 33.419 11.6724C33.2514 11.5276 33.118 11.3725 33.0187 11.207L33.602 10.7974C33.6682 10.8843 33.752 10.9836 33.8534 11.0953C33.9547 11.2091 34.0933 11.3073 34.2691 11.3901C34.447 11.4749 34.6798 11.5173 34.9673 11.5173C35.352 11.5173 35.6696 11.4242 35.9199 11.238C36.1702 11.0518 36.2953 10.7602 36.2953 10.363V9.39491H36.2333C36.1795 9.48179 36.1029 9.58936 36.0036 9.71761C35.9064 9.84379 35.7658 9.95653 35.5817 10.0558C35.3996 10.153 35.1535 10.2017 34.8432 10.2017C34.4584 10.2017 34.113 10.1106 33.8068 9.9286C33.5027 9.74657 33.2617 9.48179 33.0838 9.13427C32.908 8.78675 32.8201 8.36476 32.8201 7.8683C32.8201 7.38011 32.9059 6.95502 33.0776 6.59302C33.2493 6.22895 33.4882 5.94762 33.7944 5.74904C34.1005 5.54839 34.4543 5.44806 34.8556 5.44806C35.1659 5.44806 35.412 5.49978 35.5941 5.60321C35.7782 5.70457 35.9188 5.82041 36.0161 5.95073C36.1153 6.07898 36.1919 6.18448 36.2457 6.26722H36.3201V5.51012H37.0276V10.4126C37.0276 10.8222 36.9345 11.1553 36.7483 11.4118C36.5642 11.6703 36.316 11.8596 36.0036 11.9796C35.6934 12.1016 35.3479 12.1627 34.9673 12.1627ZM34.9425 9.54385C35.2362 9.54385 35.4844 9.47662 35.6871 9.34216C35.8899 9.2077 36.044 9.01429 36.1495 8.76192C36.255 8.50956 36.3077 8.20755 36.3077 7.85589C36.3077 7.5125 36.256 7.20946 36.1526 6.94675C36.0491 6.68404 35.8961 6.47821 35.6934 6.32928C35.4906 6.18034 35.2403 6.10587 34.9425 6.10587C34.6322 6.10587 34.3736 6.18448 34.1667 6.34169C33.962 6.4989 33.8078 6.7099 33.7044 6.97467C33.6031 7.23945 33.5524 7.53319 33.5524 7.85589C33.5524 8.18686 33.6041 8.47956 33.7075 8.734C33.813 8.98636 33.9682 9.18495 34.1729 9.32975C34.3798 9.47248 34.6363 9.54385 34.9425 9.54385ZM38.368 10.2761V5.51012H39.1003V10.2761H38.368ZM38.7404 4.71579C38.5976 4.71579 38.4746 4.66717 38.3711 4.56995C38.2698 4.47273 38.2191 4.35585 38.2191 4.21933C38.2191 4.0828 38.2698 3.96593 38.3711 3.8687C38.4746 3.77148 38.5976 3.72287 38.7404 3.72287C38.8831 3.72287 39.0051 3.77148 39.1065 3.8687C39.2099 3.96593 39.2617 4.0828 39.2617 4.21933C39.2617 4.35585 39.2099 4.47273 39.1065 4.56995C39.0051 4.66717 38.8831 4.71579 38.7404 4.71579ZM43.8174 6.57751L43.1596 6.76368C43.1183 6.65404 43.0572 6.54751 42.9766 6.44408C42.898 6.33859 42.7904 6.25171 42.6539 6.18344C42.5173 6.11518 42.3425 6.08105 42.1295 6.08105C41.8378 6.08105 41.5947 6.14828 41.4003 6.28273C41.2079 6.41512 41.1117 6.58371 41.1117 6.7885C41.1117 6.97054 41.1779 7.1143 41.3103 7.2198C41.4427 7.3253 41.6496 7.41321 41.9309 7.48354L42.6383 7.6573C43.0645 7.76073 43.382 7.91898 43.5909 8.13204C43.7999 8.34304 43.9043 8.61506 43.9043 8.9481C43.9043 9.22115 43.8257 9.46524 43.6685 9.68037C43.5134 9.8955 43.2962 10.0651 43.0169 10.1892C42.7376 10.3134 42.4129 10.3754 42.0426 10.3754C41.5565 10.3754 41.1541 10.2699 40.8356 10.0589C40.517 9.84793 40.3153 9.53971 40.2305 9.13427L40.9256 8.96051C40.9918 9.21701 41.1169 9.40939 41.301 9.53764C41.4872 9.66589 41.7302 9.73002 42.0302 9.73002C42.3715 9.73002 42.6425 9.65762 42.8431 9.51282C43.0459 9.36595 43.1472 9.19012 43.1472 8.98533C43.1472 8.81984 43.0893 8.68125 42.9735 8.56955C42.8576 8.45577 42.6797 8.37096 42.4398 8.31511L41.6454 8.12894C41.209 8.02551 40.8883 7.8652 40.6835 7.648C40.4808 7.42873 40.3795 7.15464 40.3795 6.82574C40.3795 6.55682 40.455 6.31893 40.606 6.11208C40.759 5.90522 40.9669 5.74284 41.2296 5.62493C41.4944 5.50702 41.7944 5.44806 42.1295 5.44806C42.6011 5.44806 42.9714 5.55149 43.2403 5.75835C43.5113 5.96521 43.7037 6.23826 43.8174 6.57751ZM47.0793 5.51012V6.13069H44.6094V5.51012H47.0793ZM45.3293 4.36827H46.0616V8.91086C46.0616 9.11772 46.0916 9.27286 46.1516 9.37629C46.2136 9.47765 46.2922 9.54592 46.3874 9.58108C46.4846 9.61418 46.587 9.63073 46.6946 9.63073C46.7752 9.63073 46.8414 9.62659 46.8931 9.61832C46.9449 9.60797 46.9862 9.5997 47.0173 9.59349L47.1662 10.2513C47.1166 10.2699 47.0473 10.2885 46.9583 10.3072C46.8694 10.3278 46.7566 10.3382 46.6201 10.3382C46.4132 10.3382 46.2105 10.2937 46.0119 10.2048C45.8154 10.1158 45.652 9.98032 45.5217 9.79828C45.3934 9.61625 45.3293 9.38663 45.3293 9.10945V4.36827ZM50.1279 10.3754C49.6687 10.3754 49.2725 10.2741 48.9395 10.0713C48.6085 9.86654 48.353 9.58108 48.1731 9.21494C47.9952 8.84674 47.9062 8.41854 47.9062 7.93036C47.9062 7.44217 47.9952 7.01191 48.1731 6.63956C48.353 6.26515 48.6033 5.97348 48.924 5.76456C49.2467 5.55356 49.6232 5.44806 50.0534 5.44806C50.3016 5.44806 50.5468 5.48943 50.7888 5.57218C51.0308 5.65492 51.2511 5.78938 51.4497 5.97555C51.6483 6.15965 51.8065 6.40375 51.9244 6.70783C52.0424 7.01191 52.1013 7.38632 52.1013 7.83106V8.14135H48.4275V7.50837H51.3566C51.3566 7.23945 51.3028 6.9995 51.1953 6.7885C51.0898 6.57751 50.9388 6.41099 50.7423 6.28894C50.5478 6.16689 50.3182 6.10587 50.0534 6.10587C49.7617 6.10587 49.5094 6.17827 49.2963 6.32307C49.0853 6.4658 48.9229 6.65197 48.8092 6.88159C48.6954 7.1112 48.6385 7.35736 48.6385 7.62007V8.04206C48.6385 8.40199 48.7006 8.70711 48.8247 8.9574C48.9509 9.20563 49.1257 9.39491 49.3491 9.52523C49.5725 9.65348 49.8321 9.71761 50.1279 9.71761C50.3203 9.71761 50.494 9.69072 50.6492 9.63693C50.8064 9.58108 50.9419 9.49834 51.0556 9.3887C51.1694 9.277 51.2573 9.13841 51.3194 8.97292L52.0268 9.1715C51.9524 9.41146 51.8272 9.62245 51.6514 9.80449C51.4756 9.98445 51.2584 10.1251 50.9998 10.2265C50.7412 10.3258 50.4506 10.3754 50.1279 10.3754ZM53.2152 10.2761V5.51012H53.9227V6.22999H53.9723C54.0592 5.99417 54.2164 5.80282 54.444 5.65595C54.6715 5.50909 54.928 5.43565 55.2135 5.43565C55.2673 5.43565 55.3345 5.43669 55.4152 5.43875C55.4958 5.44082 55.5569 5.44393 55.5982 5.44806V6.19275C55.5734 6.18654 55.5165 6.17724 55.4276 6.16482C55.3407 6.15034 55.2487 6.1431 55.1514 6.1431C54.9197 6.1431 54.7129 6.19172 54.5309 6.28894C54.3509 6.38409 54.2082 6.51648 54.1027 6.68611C53.9992 6.85366 53.9475 7.045 53.9475 7.26014V10.2761H53.2152Z" fill="#1E1E1E"/>
<path d="M9.37167 90.5995C20.3617 90.5995 64.3417 90.5995 75.3317 90.5995" stroke="#1E1E1E" stroke-width="2" stroke-linecap="round"/>
<path d="M8.64043 106.42C8.63043 105.52 8.61043 101.91 8.60043 101.01" stroke="#1E1E1E" stroke-linecap="round"/>
<path d="M8.56845 101.213C8.81845 100.853 9.82845 99.4325 10.0785 99.0725" stroke="#1E1E1E" stroke-linecap="round"/>
<path d="M11.5712 106.484C11.5812 105.584 11.6012 101.974 11.6112 101.074" stroke="#1E1E1E" stroke-linecap="round"/>
<path d="M11.6432 101.277C11.3932 100.917 10.3832 99.4967 10.1332 99.1367" stroke="#1E1E1E" stroke-linecap="round"/>
<path d="M6.42819 106.97C7.60819 106.95 12.3082 106.87 13.4782 106.85" stroke="#1E1E1E" stroke-linecap="round"/>
<path d="M10.2867 107.061C10.2967 107.691 10.3367 110.231 10.3467 110.861" stroke="#1E1E1E" stroke-linecap="round"/>
<path d="M51.6979 102.142C52.0579 101.772 53.4979 100.272 53.8579 99.8917" stroke="#1E1E1E" stroke-linecap="round"/>
<path d="M53.8535 99.8515C54.2535 100.182 55.8335 101.502 56.2335 101.832" stroke="#1E1E1E" stroke-linecap="round"/>
<path d="M56.3233 102.097C55.6333 103.157 52.8833 107.407 52.1933 108.477" stroke="#1E1E1E" stroke-linecap="round"/>
<path d="M51.7653 102.142C51.4053 101.772 49.9653 100.272 49.6053 99.8917" stroke="#1E1E1E" stroke-linecap="round"/>
<path d="M49.6098 99.8515C49.2098 100.182 47.6298 101.502 47.2298 101.832" stroke="#1E1E1E" stroke-linecap="round"/>
<path d="M47.1399 102.097C47.8299 103.157 50.5799 107.407 51.2699 108.477" stroke="#1E1E1E" stroke-linecap="round"/>
<path d="M48.9007 26.9731C49.8607 26.9331 51.0807 27.2331 51.8407 27.8031C52.6007 28.3731 53.3707 29.4531 53.4707 30.3831C53.5607 31.3231 52.8607 32.5631 52.4007 33.4131C51.9407 34.2631 51.5207 35.1431 50.7107 35.4831C49.9107 35.8331 48.4507 35.7631 47.5807 35.4831C46.7007 35.2131 45.9607 34.7031 45.4507 33.8331C44.9407 32.9631 44.3907 31.2031 44.5207 30.2631C44.6407 29.3231 45.4807 28.7031 46.2007 28.1831C46.9207 27.6731 48.3707 27.3831 48.8507 27.1731C49.3407 26.9731 49.1407 26.8831 49.1007 26.9631M49.1807 26.8831C50.1107 26.7931 51.1807 27.6231 51.8207 28.1631C52.4507 28.7031 52.8607 29.2731 52.9907 30.1231C53.1307 30.9831 53.0507 32.4131 52.6207 33.2931C52.1807 34.1731 51.1907 35.0231 50.3907 35.4231C49.5907 35.8231 48.6507 36.0631 47.8207 35.7131C47.0007 35.3531 46.0307 34.1131 45.4407 33.3031C44.8407 32.5031 44.1607 31.7131 44.2507 30.8731C44.3507 30.0231 45.1807 28.8231 46.0007 28.2331C46.8207 27.6431 48.6307 27.5731 49.1707 27.3131C49.7107 27.0531 49.2407 26.6431 49.2307 26.6831" stroke="#1E1E1E" stroke-linecap="round"/>
<path d="M57.9023 69.0521H59.4478L60.7432 70.7567L61.0841 71.2112L63.016 73.7794H61.4705L60.1978 72.0748L59.8796 71.643L57.9023 69.0521ZM63.4932 66.8703C63.4932 68.0976 63.2716 69.1582 62.8285 70.0521C62.3853 70.9461 61.7773 71.6354 61.0046 72.1203C60.2319 72.6051 59.3493 72.8476 58.3569 72.8476C57.3644 72.8476 56.4819 72.6051 55.7091 72.1203C54.9364 71.6354 54.3285 70.9461 53.8853 70.0521C53.4421 69.1582 53.2205 68.0976 53.2205 66.8703C53.2205 65.643 53.4421 64.5824 53.8853 63.6885C54.3285 62.7945 54.9364 62.1051 55.7091 61.6203C56.4819 61.1354 57.3644 60.893 58.3569 60.893C59.3493 60.893 60.2319 61.1354 61.0046 61.6203C61.7773 62.1051 62.3853 62.7945 62.8285 63.6885C63.2716 64.5824 63.4932 65.643 63.4932 66.8703ZM62.1296 66.8703C62.1296 65.8627 61.961 65.0123 61.6239 64.3192C61.2906 63.626 60.8379 63.1014 60.266 62.7453C59.6978 62.3892 59.0614 62.2112 58.3569 62.2112C57.6523 62.2112 57.0141 62.3892 56.4421 62.7453C55.8739 63.1014 55.4213 63.626 55.0841 64.3192C54.7508 65.0123 54.5841 65.8627 54.5841 66.8703C54.5841 67.8779 54.7508 68.7282 55.0841 69.4214C55.4213 70.1146 55.8739 70.6392 56.4421 70.9953C57.0141 71.3514 57.6523 71.5294 58.3569 71.5294C59.0614 71.5294 59.6978 71.3514 60.266 70.9953C60.8379 70.6392 61.2906 70.1146 61.6239 69.4214C61.961 68.7282 62.1296 67.8779 62.1296 66.8703Z" fill="#1E1E1E"/>
<path d="M48.3707 36.4791C48.5007 40.1991 49.3507 54.5791 49.5007 58.2291M49.1807 36.0891C49.2507 39.6891 49.1707 53.8691 49.1107 57.4591" stroke="#1E1E1E" stroke-linecap="round"/>
<path d="M37.1469 65.4351C34.3769 65.3851 32.9869 65.3551 31.4869 65.4351C32.7769 65.4651 33.9869 65.5351 37.1469 65.4351ZM37.1469 65.4351C39.3869 65.2251 38.0669 65.3251 39.0369 63.5451M37.1469 65.4351C39.0969 65.3851 39.9069 65.3851 39.0369 63.5451M39.0369 63.5451C39.2069 62.3751 40.6569 62.4051 40.9269 61.6551M39.0369 63.5451C39.8469 62.0951 38.8569 62.6251 40.9269 61.6551M40.9269 61.6551C42.6969 61.8051 43.8469 61.7451 46.5869 61.6551C44.6669 61.5751 42.8769 61.5851 40.9269 61.6551Z" stroke="#1E1E1E" stroke-linecap="round"/>
<path d="M41.4615 66.1792C40.6415 66.1892 40.1015 66.1692 39.3815 66.1792C40.1915 66.2092 41.0215 66.1692 41.4615 66.1792ZM41.4615 66.1792C42.2015 66.5292 43.9415 66.8392 43.5415 68.2592M41.4615 66.1792C43.4315 66.5692 43.4315 66.2892 43.5415 68.2592M43.5415 68.2592C43.5615 68.4892 43.5415 68.7092 43.5415 68.8392M43.5415 68.2592C43.5415 68.4492 43.5415 68.6492 43.5415 68.8392M43.5415 68.8392C44.2015 70.7292 44.7115 70.8092 45.6215 70.9192M43.5415 68.8392C43.0015 70.8692 44.0415 71.4292 45.6215 70.9192M45.6215 70.9192C46.2915 70.9392 47.0915 70.9392 47.7015 70.9192C46.8715 70.9492 46.2215 70.8992 45.6215 70.9192Z" stroke="#1E1E1E" stroke-linecap="round"/>
<path d="M47.9715 70.0991C48.0215 70.1391 47.8215 70.2691 47.9215 70.4091C48.0315 70.5491 48.5815 70.8191 48.5915 70.9391C48.6115 71.0591 48.1415 71.0391 48.0215 71.1191C47.9115 71.1991 48.0215 71.3891 47.9115 71.4191C47.7915 71.4391 47.4115 71.2891 47.3115 71.2391C47.2115 71.1891 47.3215 71.2491 47.3115 71.1191C47.2915 70.9791 47.2215 70.5891 47.2415 70.4391C47.2515 70.2791 47.2615 70.1491 47.4015 70.1691C47.5515 70.1891 48.0115 70.5391 48.1015 70.5691C48.1915 70.5891 47.9915 70.4091 47.9515 70.3191M47.7815 70.4991C47.9715 70.3991 48.4015 70.0991 48.4515 70.0891C48.5115 70.0891 48.1315 70.2491 48.1015 70.4591C48.0815 70.6691 48.3015 71.1891 48.2815 71.3291C48.2615 71.4691 48.0615 71.2691 48.0015 71.2891C47.9515 71.2991 48.1115 71.3891 47.9415 71.4291C47.7715 71.4791 47.0915 71.6691 47.0015 71.5491C46.9115 71.4191 47.3615 70.9091 47.4115 70.6791C47.4615 70.4391 47.2215 70.2491 47.3015 70.1391C47.3815 70.0391 47.8115 70.0391 47.8715 70.0391C47.9215 70.0291 47.7515 70.0491 47.6415 70.1091" fill="#1E1E1E"/>
<path d="M47.9615 70.4192C48.1615 70.4192 48.1115 70.3892 48.2215 70.5092C48.3315 70.6192 48.6415 71.0492 48.6415 71.1092C48.6315 71.1792 48.2915 70.7992 48.2015 70.8992C48.1115 71.0092 48.2315 71.5792 48.1115 71.7192C47.9915 71.8692 47.6115 71.8792 47.4815 71.7892C47.3515 71.7092 47.4315 71.3292 47.3115 71.2092C47.2015 71.0992 46.8015 71.2592 46.8015 71.1092C46.8015 70.9592 47.0915 70.4292 47.3015 70.3092C47.5015 70.1992 47.9515 70.4192 48.0115 70.4192C48.0815 70.4292 47.7215 70.3792 47.6915 70.3392M47.6915 70.3192C47.9015 70.3792 48.3715 70.6792 48.5315 70.7292C48.6915 70.7892 48.7615 70.4892 48.6715 70.6292C48.5715 70.7692 48.0815 71.3692 47.9515 71.5692C47.8215 71.7692 47.9115 71.7592 47.8815 71.8192C47.8615 71.8892 47.8715 72.0892 47.8015 71.9492C47.7415 71.8092 47.5815 71.1392 47.4915 70.9992C47.3915 70.8592 47.2415 71.1892 47.2215 71.1092C47.2115 71.0292 47.3315 70.6892 47.4015 70.5192C47.4815 70.3392 47.7015 70.1192 47.6615 70.0392C47.6215 69.9492 47.2215 69.8792 47.1515 69.9892" stroke="#1E1E1E" stroke-linecap="round"/>
<path d="M38.5768 69.7603C41.2068 69.8803 42.2168 69.7903 43.8868 69.7603C42.2368 69.7603 40.1968 69.8503 38.5768 69.7603ZM38.5768 69.7603C38.0568 69.7203 37.6568 70.8203 36.8968 71.4403M38.5768 69.7603C37.2968 68.8903 37.8868 70.4203 36.8968 71.4403M36.8968 71.4403C37.6068 72.3903 35.6368 73.9503 35.2268 73.1103M36.8968 71.4403C36.6068 73.3203 36.8768 74.0103 35.2268 73.1103M35.2268 73.1103C33.4268 73.2203 31.4268 73.1503 29.9068 73.1103C32.5968 73.0203 33.7868 73.2003 35.2268 73.1103Z" stroke="#1E1E1E" stroke-linecap="round"/>
<path d="M40.4745 73.1104C38.9145 73.1704 37.9445 73.2004 36.7245 73.1104C38.1045 73.1604 39.7145 73.1104 40.4745 73.1104ZM40.4745 73.1104C42.5845 73.6104 42.3645 73.0204 42.5045 75.1304M40.4745 73.1104C42.8145 73.2104 42.1145 74.8904 42.5045 75.1304M42.5045 75.1304C41.7945 77.3204 42.9245 77.8204 44.5245 77.1504M42.5045 75.1304C43.0345 77.3704 43.8545 76.4004 44.5245 77.1504M44.5245 77.1504C45.7945 77.1704 46.9445 76.9804 48.2745 77.1504C46.4045 77.2204 45.4845 77.0904 44.5245 77.1504Z" stroke="#1E1E1E" stroke-linecap="round"/>
<path d="M71.3351 73.1467C70.7051 73.2067 70.1151 73.1667 69.5351 73.1467C70.0551 73.1467 70.5651 73.1567 71.3351 73.1467ZM71.3351 73.1467C72.3451 72.6367 73.5651 73.7567 72.9851 74.8067M71.3351 73.1467C72.1751 73.8867 73.3651 73.6467 72.9851 74.8067M72.9851 74.8067C72.8151 76.3567 73.8551 76.9767 74.6451 76.4667M72.9851 74.8067C73.4451 75.4067 73.8051 76.7867 74.6451 76.4667M74.6451 76.4667C75.2251 76.4067 75.8251 76.4167 76.4451 76.4667C75.9951 76.4867 75.3551 76.4867 74.6451 76.4667Z" stroke="#1E1E1E" stroke-linecap="round"/>
<path d="M76.2351 75.8268C76.2951 75.7868 76.6851 75.9268 76.7751 75.9768C76.8651 76.0268 76.7351 76.0068 76.7751 76.1168C76.8251 76.2168 77.0351 76.5368 77.0351 76.6168C77.0251 76.6968 76.8751 76.5668 76.7651 76.5768C76.6551 76.5968 76.4351 76.6168 76.3651 76.6868C76.3051 76.7568 76.4151 77.0368 76.3851 76.9968C76.3451 76.9568 76.1951 76.6268 76.1651 76.4368C76.1351 76.2468 76.2051 75.9168 76.2251 75.8468C76.2351 75.7868 76.1851 76.0068 76.2451 76.0468C76.3051 76.0968 76.5051 76.0768 76.5651 76.1268M76.3951 76.1668C76.5251 76.1568 76.5751 75.8668 76.7151 75.8768C76.8651 75.8868 77.2751 76.0568 77.2751 76.2268C77.2651 76.3968 76.7151 76.8268 76.6751 76.8968C76.6251 76.9768 77.0351 76.7268 76.9851 76.6768C76.9451 76.6168 76.5051 76.6068 76.3951 76.5768C76.2851 76.5468 76.3851 76.5468 76.3151 76.4968C76.2551 76.4368 76.1151 76.3068 76.0151 76.2668C75.9051 76.2168 75.6651 76.2268 75.7051 76.2168C75.7451 76.2068 76.1951 76.2268 76.2451 76.1968C76.2951 76.1568 75.9451 75.9368 76.0051 75.9768" fill="#1E1E1E"/>
<path d="M76.3951 75.6968C76.4651 75.6768 76.8351 76.1768 76.9151 76.3368C76.9951 76.4968 76.8551 76.6068 76.8651 76.6668C76.8751 76.7168 77.0651 76.5768 76.9751 76.6568C76.8851 76.7468 76.4251 77.1568 76.3151 77.1668C76.2051 77.1868 76.2951 76.8168 76.3051 76.7568C76.3051 76.6968 76.4251 76.8768 76.3751 76.8268C76.3251 76.7668 76.0051 76.5668 75.9951 76.4268C75.9751 76.2868 76.2651 76.0568 76.2951 75.9968C76.3251 75.9268 76.1651 76.0168 76.1751 76.0268C76.1851 76.0468 76.2951 76.0268 76.3551 76.0868M76.1451 76.4468C76.1551 76.5168 76.4751 76.4268 76.6351 76.4968C76.7951 76.5568 77.0351 76.8468 77.1151 76.8268C77.1851 76.8168 77.1551 76.3568 77.0851 76.4068C77.0151 76.4468 76.8251 77.0268 76.7151 77.1068C76.6051 77.1868 76.5351 77.0068 76.4351 76.8868C76.3351 76.7668 76.2451 76.5468 76.1051 76.3968C75.9551 76.2568 75.6151 76.0268 75.5751 76.0468C75.5351 76.0568 75.6551 76.5468 75.8551 76.4968C76.0551 76.4468 76.5951 75.7568 76.7551 75.7468C76.9251 75.7468 76.9551 76.3668 76.8451 76.4668" stroke="#1E1E1E" stroke-linecap="round"/>
<path d="M74.8331 74.344C74.3831 74.294 73.9431 74.394 73.4031 74.344C73.9231 74.354 74.4031 74.324 74.8331 74.344ZM74.8331 74.344C75.8931 74.404 75.3431 74.744 75.5631 73.604M74.8331 74.344C75.6931 74.284 75.7231 74.374 75.5631 73.604M75.5631 73.604C75.8731 73.634 76.2031 72.434 76.3031 72.874M75.5631 73.604C75.8331 73.434 76.1031 72.924 76.3031 72.874M76.3031 72.874C76.7231 72.844 77.2331 72.904 77.7331 72.874C76.9931 72.844 76.6331 72.884 76.3031 72.874Z" stroke="#1E1E1E" stroke-linecap="round"/>
<path d="M77.7931 72.684C77.8231 72.674 77.6431 72.554 77.6731 72.574C77.7031 72.594 77.9431 72.804 77.9831 72.804C78.0331 72.814 77.9631 72.624 77.9331 72.604C77.9031 72.594 77.7931 72.614 77.8131 72.724C77.8231 72.824 78.0231 73.184 78.0231 73.214C78.0331 73.254 77.8931 73.034 77.8431 72.934C77.8031 72.824 77.8131 72.594 77.7531 72.574C77.6931 72.564 77.4931 72.804 77.5131 72.864C77.5331 72.914 77.7931 72.884 77.8631 72.914C77.9231 72.954 77.9431 73.124 77.8931 73.084M77.7531 72.604C77.8331 72.554 78.1931 72.624 78.1631 72.714C78.1431 72.794 77.6131 73.114 77.6131 73.114C77.6031 73.104 78.1031 72.784 78.1331 72.704C78.1731 72.624 77.8531 72.604 77.8131 72.604C77.7831 72.604 77.9731 72.674 77.9531 72.694C77.9331 72.714 77.8131 72.694 77.6931 72.734C77.5831 72.774 77.2831 72.884 77.2531 72.934C77.2331 72.974 77.5331 73.034 77.5431 73.004C77.5531 72.974 77.2731 72.734 77.3331 72.764C77.3931 72.794 77.9131 73.154 77.9231 73.184" fill="#1E1E1E"/>
<path d="M77.9131 73.024C77.9331 73.114 77.7531 73.124 77.7531 73.094C77.7631 73.064 77.9931 72.804 77.9531 72.824C77.9131 72.844 77.5431 73.194 77.5131 73.184C77.4831 73.184 77.6831 72.824 77.7731 72.804C77.8531 72.784 78.0431 73.054 78.0231 73.074C78.0131 73.104 77.6931 73.014 77.6631 72.954C77.6231 72.894 77.8431 72.754 77.8031 72.734C77.7631 72.714 77.4331 72.814 77.4031 72.834C77.3731 72.854 77.5431 72.824 77.6031 72.884C77.6631 72.934 77.7131 73.124 77.7731 73.154M77.6031 73.154C77.7131 73.144 77.9131 73.324 77.9931 73.224C78.0731 73.114 78.0831 72.554 78.0731 72.534C78.0631 72.514 77.9731 73.034 77.9531 73.104C77.9231 73.174 77.9731 73.014 77.9431 72.944C77.9131 72.884 77.8931 72.744 77.7731 72.684C77.6631 72.624 77.3131 72.514 77.2331 72.604C77.1631 72.704 77.2131 73.284 77.3331 73.274C77.4531 73.264 77.8331 72.564 77.9531 72.564C78.0831 72.554 78.1831 73.164 78.0831 73.264C77.9831 73.354 77.4631 73.254 77.3631 73.124" stroke="#1E1E1E" stroke-linecap="round"/>
<path d="M14.0096 58.0716C17.6096 57.0416 23.6196 59.6416 27.7096 58.0716C30.1696 58.5416 31.1596 61.6416 33.4196 63.7816C31.6796 66.9616 32.7896 70.3016 33.4196 75.2016C30.5796 78.6216 32.9496 83.5416 27.7096 80.9016C23.4996 80.2216 22.7396 80.4216 14.0096 80.9016C11.0096 83.9116 5.78959 79.8816 8.29959 75.2016C9.83959 71.5916 8.37959 68.6016 8.29959 63.7816C7.70959 58.4116 9.22959 60.1716 14.0096 58.0716Z" fill="white"/>
<path d="M14.0096 58.0716C18.2696 56.6116 23.8196 58.7516 27.7096 58.0716M14.0096 58.0716C17.9696 57.4816 22.6996 58.0616 27.7096 58.0716M14.0096 58.0716C11.7596 56.9416 8.86959 60.9316 8.29959 63.7816M14.0096 58.0716C10.1596 58.7316 7.28959 58.6816 8.29959 63.7816M27.7096 58.0716C30.8396 59.9916 34.3896 59.8316 33.4196 63.7816M27.7096 58.0716C31.9796 58.9016 32.6096 57.8916 33.4196 63.7816M33.4196 63.7816C33.4796 68.3516 34.2296 71.4916 33.4196 75.2016M33.4196 63.7816C33.1896 67.4016 33.5996 70.7016 33.4196 75.2016M33.4196 75.2016C34.5996 77.7016 32.2096 81.7416 27.7096 80.9016M33.4196 75.2016C34.2996 79.1516 31.7996 79.8416 27.7096 80.9016M27.7096 80.9016C25.9596 81.5216 21.2196 81.7716 14.0096 80.9016M27.7096 80.9016C22.0596 80.4816 16.9596 81.5016 14.0096 80.9016M14.0096 80.9016C10.5796 79.7316 7.16959 79.3616 8.29959 75.2016M14.0096 80.9016C9.24959 80.2616 6.51959 80.4116 8.29959 75.2016M8.29959 75.2016C8.45959 71.2916 9.30959 69.7616 8.29959 63.7816M8.29959 75.2016C7.79959 70.9116 8.33959 67.4916 8.29959 63.7816" stroke="#1E1E1E" stroke-linecap="round"/>
<path d="M19.9217 68.6647H21.4672L22.7626 70.3693L23.1035 70.8238L25.0353 73.392H23.4899L22.2172 71.6875L21.899 71.2556L19.9217 68.6647ZM25.5126 66.4829C25.5126 67.7102 25.291 68.7708 24.8478 69.6647C24.4047 70.5587 23.7967 71.2481 23.024 71.7329C22.2512 72.2178 21.3687 72.4602 20.3762 72.4602C19.3838 72.4602 18.5012 72.2178 17.7285 71.7329C16.9558 71.2481 16.3478 70.5587 15.9047 69.6647C15.4615 68.7708 15.2399 67.7102 15.2399 66.4829C15.2399 65.2556 15.4615 64.195 15.9047 63.3011C16.3478 62.4071 16.9558 61.7178 17.7285 61.2329C18.5012 60.7481 19.3838 60.5056 20.3762 60.5056C21.3687 60.5056 22.2512 60.7481 23.024 61.2329C23.7967 61.7178 24.4047 62.4071 24.8478 63.3011C25.291 64.195 25.5126 65.2556 25.5126 66.4829ZM24.149 66.4829C24.149 65.4753 23.9804 64.625 23.6433 63.9318C23.31 63.2386 22.8573 62.714 22.2853 62.3579C21.7172 62.0018 21.0808 61.8238 20.3762 61.8238C19.6717 61.8238 19.0334 62.0018 18.4615 62.3579C17.8933 62.714 17.4406 63.2386 17.1035 63.9318C16.7702 64.625 16.6035 65.4753 16.6035 66.4829C16.6035 67.4905 16.7702 68.3409 17.1035 69.034C17.4406 69.7272 17.8933 70.2518 18.4615 70.6079C19.0334 70.964 19.6717 71.142 20.3762 71.142C21.0808 71.142 21.7172 70.964 22.2853 70.6079C22.8573 70.2518 23.31 69.7272 23.6433 69.034C23.9804 68.3409 24.149 67.4905 24.149 66.4829Z" fill="#1E1E1E"/>
<path d="M69.9918 67.3945C68.6918 67.3845 68.1918 67.4445 67.7418 67.3945C68.2318 67.4345 68.7718 67.3945 69.9918 67.3945ZM69.9918 67.3945C71.5118 67.6345 71.8418 66.0945 72.0718 65.3145M69.9918 67.3945C71.3918 67.0845 72.2018 66.7745 72.0718 65.3145M72.0718 65.3145C72.3318 63.9745 72.8518 62.9245 74.1518 63.2345M72.0718 65.3145C71.3818 63.4845 72.2218 63.8645 74.1518 63.2345M74.1518 63.2345C75.0118 63.1745 75.7818 63.1945 76.4018 63.2345C75.1518 63.2345 74.6718 63.2045 74.1518 63.2345Z" stroke="#1E1E1E" stroke-linecap="round"/>
<path d="M76.4818 62.2445C76.5918 62.1945 76.6918 62.2645 76.8418 62.4445C76.9918 62.6245 77.3118 63.1445 77.3718 63.3245C77.4318 63.5045 77.2918 63.5045 77.2018 63.5445C77.1018 63.5845 76.9818 63.5145 76.7918 63.5745C76.6018 63.6445 76.2018 63.9245 76.0618 63.9545C75.9318 63.9845 76.0218 63.8445 75.9818 63.7645C75.9518 63.6745 75.9218 63.6545 75.8818 63.4645C75.8318 63.2745 75.6718 62.7645 75.7118 62.6145C75.7518 62.4545 76.0218 62.5345 76.1418 62.5245C76.2618 62.5245 76.4218 62.5045 76.4318 62.5645M76.7318 62.3445C76.9118 62.2345 76.7918 62.2745 76.8918 62.3645C76.9918 62.4545 77.2918 62.6845 77.3118 62.8645C77.3318 63.0345 77.2018 63.2145 77.0218 63.4045C76.8418 63.5845 76.4018 63.8445 76.2418 63.9545C76.0818 64.0645 76.1818 64.1445 76.0418 64.0745C75.9118 64.0145 75.4518 63.6545 75.4318 63.5645C75.4118 63.4645 75.8918 63.6245 75.9218 63.5045C75.9618 63.3845 75.6418 63.0445 75.6418 62.8545C75.6518 62.6645 75.8618 62.3445 75.9618 62.3445C76.0718 62.3445 76.2218 62.8145 76.2818 62.8745" fill="#1E1E1E"/>
<path d="M76.2418 62.8245C76.3618 62.8245 76.7418 62.5545 76.9418 62.6445C77.1318 62.7345 77.4118 63.1845 77.4118 63.3645C77.4118 63.5445 77.0518 63.6545 76.9318 63.7345C76.8018 63.8045 76.8718 63.7845 76.6818 63.8045C76.4918 63.8345 75.9618 63.9145 75.7918 63.8745C75.6118 63.8245 75.6418 63.6545 75.6318 63.5645C75.6318 63.4845 75.6718 63.4745 75.7818 63.3545C75.8918 63.2445 76.1718 63.0545 76.2818 62.8745C76.4018 62.7045 76.3718 62.3745 76.4518 62.3045C76.5418 62.2345 76.7518 62.3945 76.8018 62.4745M76.6718 62.7445C76.7918 62.8145 77.0218 62.7545 77.1018 62.7945C77.1818 62.8245 77.2518 62.8745 77.1518 62.9745C77.0518 63.0645 76.6618 63.1545 76.5018 63.3745C76.3418 63.6045 76.2318 64.2945 76.2018 64.3345C76.1818 64.3645 76.3618 63.6545 76.3518 63.5845C76.3318 63.5245 76.2818 63.9945 76.1218 63.9445C75.9618 63.9045 75.4418 63.6045 75.3918 63.3245C75.3318 63.0445 75.6218 62.3345 75.7818 62.2745C75.9518 62.2045 76.2718 62.9145 76.4018 62.9145C76.5418 62.9045 76.6218 62.2945 76.5918 62.2545" stroke="#1E1E1E" stroke-linecap="round"/>
<path d="M74.3837 65.8927C73.8337 65.9427 73.2637 65.8827 72.5937 65.8927C73.1637 65.8827 73.7037 65.8927 74.3837 65.8927ZM74.3837 65.8927C74.7637 65.2927 75.3237 65.9327 75.3037 66.8127M74.3837 65.8927C75.1337 65.9627 76.0637 66.7827 75.3037 66.8127M75.3037 66.8127C75.3937 67.1227 75.0137 67.3527 76.2337 67.7427M75.3037 66.8127C74.7637 68.0627 76.0137 67.3227 76.2337 67.7427M76.2337 67.7427C76.9337 67.7127 77.5137 67.7327 78.0237 67.7427C77.5637 67.7327 76.8837 67.7527 76.2337 67.7427Z" stroke="#1E1E1E" stroke-linecap="round"/>
<path d="M78.0837 67.3327C78.1537 67.4227 78.4137 67.8027 78.4737 67.8727C78.5237 67.9427 78.4237 67.7927 78.3937 67.7327C78.3637 67.6827 78.3637 67.5227 78.2837 67.5627C78.2037 67.6027 77.9437 67.8927 77.9137 67.9727C77.8837 68.0527 78.0637 68.0127 78.0837 68.0427C78.0937 68.0627 78.0737 68.1927 77.9937 68.1127C77.9237 68.0327 77.6737 67.6527 77.6237 67.5627C77.5737 67.4727 77.6137 67.5827 77.6937 67.5727C77.7737 67.5727 78.0837 67.5027 78.1137 67.5427C78.1437 67.5827 77.9037 67.8227 77.8737 67.8027M78.1037 67.2127C78.1337 67.2127 78.3837 67.3027 78.4037 67.3627C78.4337 67.4227 78.3437 67.4627 78.2437 67.5627C78.1337 67.6527 77.8337 67.8327 77.7737 67.9327C77.7237 68.0227 77.9637 68.1227 77.9237 68.1227C77.8837 68.1127 77.5237 67.8727 77.5337 67.8827C77.5537 67.8927 78.0337 68.2027 78.0237 68.2027C78.0237 68.1927 77.6037 67.9627 77.5137 67.8227C77.4237 67.6927 77.4137 67.3727 77.4837 67.3827C77.5537 67.3827 77.8637 67.8127 77.9437 67.8527C78.0237 67.9027 77.9037 67.7527 77.9837 67.6427" fill="#1E1E1E"/>
<path d="M78.0437 67.4127C78.1837 67.3927 78.4537 67.6727 78.4837 67.7327C78.5037 67.7927 78.2337 67.7627 78.2137 67.7627C78.1837 67.7627 78.4037 67.6927 78.3337 67.7227C78.2637 67.7527 77.8837 67.9027 77.8037 67.9427C77.7137 67.9927 77.8037 67.9627 77.8237 68.0027C77.8337 68.0427 77.8337 68.1927 77.8737 68.1827C77.9137 68.1727 78.0637 68.0827 78.0637 67.9427C78.0537 67.8027 77.7837 67.4327 77.8237 67.3427C77.8637 67.2627 78.2337 67.3827 78.3037 67.4427C78.3737 67.5027 78.2537 67.6327 78.2537 67.6827M78.1937 67.5627C78.2137 67.4827 78.2737 67.3627 78.2037 67.3327C78.1337 67.3027 77.8337 67.2427 77.7737 67.3927C77.7237 67.5427 77.7737 68.1927 77.8737 68.2327C77.9737 68.2827 78.3037 67.6327 78.3737 67.6627C78.4537 67.6827 78.4737 68.3027 78.3237 68.3927C78.1737 68.4727 77.6137 68.3427 77.4837 68.1727C77.3637 67.9927 77.5137 67.3927 77.5537 67.3527C77.6037 67.3227 77.6837 67.9827 77.7737 67.9627C77.8637 67.9427 78.1037 67.2927 78.0937 67.2327C78.0837 67.1727 77.7637 67.5927 77.7137 67.6227" stroke="#1E1E1E" stroke-linecap="round"/>
<path d="M24.7459 57.5572C24.8159 54.7272 24.1759 44.2172 25.6459 41.2772C27.1059 38.3372 32.1459 40.2272 33.5359 39.9072M24.0459 58.5372C24.0459 55.7772 23.9459 45.2372 25.4559 41.9972C26.9659 38.7672 31.6259 39.4772 33.0859 39.1172" stroke="#1E1E1E" stroke-linecap="round"/>
<path d="M35.9536 34.1661C36.7936 33.9261 38.0436 34.0561 38.7536 34.5761C39.4636 35.1061 39.9636 36.3461 40.2236 37.3061C40.4836 38.2661 40.6436 39.4561 40.3136 40.3361C39.9936 41.2261 39.1636 42.2661 38.2736 42.6261C37.3836 42.9961 35.9236 42.7961 34.9636 42.5161C34.0036 42.2461 33.0036 41.7061 32.5136 40.9761C32.0136 40.2461 31.9136 39.0261 31.9936 38.1461C32.0636 37.2561 32.3436 36.3761 32.9736 35.6861C33.6036 34.9961 35.2636 34.2161 35.7836 34.0061C36.3036 33.8061 36.1036 34.3461 36.1036 34.4461M35.7836 33.9661C36.5436 33.8661 37.4936 34.3361 38.2336 34.9161C38.9836 35.4961 39.9936 36.5461 40.2536 37.4261C40.5136 38.2961 40.1236 39.2861 39.8036 40.1661C39.4836 41.0461 39.1536 42.2861 38.3336 42.7261C37.5136 43.1661 35.8836 43.1261 34.8836 42.8061C33.8736 42.4961 32.8136 41.5461 32.3036 40.8161C31.7836 40.0961 31.6736 39.3561 31.7936 38.4761C31.9236 37.5961 32.3136 36.3261 33.0436 35.5461C33.7836 34.7661 35.7136 34.0761 36.1936 33.7861C36.6736 33.4861 35.9536 33.6261 35.9036 33.7861" fill="white"/>
<path d="M35.9636 34.1761C36.8036 34.0261 38.2536 34.3061 38.9536 34.8561C39.6536 35.3961 39.9836 36.5261 40.1636 37.4661C40.3336 38.3961 40.3436 39.5761 39.9736 40.4661C39.6136 41.3561 38.7636 42.3761 37.9736 42.7761C37.1836 43.1761 36.1336 43.2161 35.2236 42.8461C34.3236 42.4861 33.0436 41.4361 32.5436 40.5961C32.0336 39.7661 32.0336 38.7161 32.1936 37.8561C32.3536 36.9961 32.7836 36.0361 33.4736 35.4461C34.1636 34.8461 35.9336 34.4961 36.3536 34.3061C36.7736 34.1161 36.0036 34.2461 35.9836 34.3061M35.8236 33.8161C36.6436 33.8761 37.8836 34.9561 38.7036 35.5661C39.5336 36.1661 40.5036 36.5461 40.7736 37.4661C41.0436 38.3961 40.8936 40.2061 40.3236 41.1061C39.7436 42.0061 38.2836 42.6761 37.3136 42.8561C36.3336 43.0261 35.2736 42.4661 34.4536 42.1461C33.6236 41.8361 32.7536 41.7561 32.3536 40.9561C31.9536 40.1561 31.9136 38.3161 32.0536 37.3561C32.1936 36.3961 32.5236 35.7461 33.1936 35.1861C33.8636 34.6161 35.6236 34.0761 36.0736 33.9661C36.5236 33.8561 35.8636 34.3661 35.8836 34.4961" stroke="#1E1E1E" stroke-linecap="round"/>
<path d="M51.2359 58.4266C55.6859 57.8766 60.3159 56.6966 64.9359 58.4266C68.3659 59.8666 73.2759 58.1766 70.6459 64.1366C70.0759 69.2266 70.2359 72.0866 70.6459 75.5566C73.6459 76.8466 69.6159 78.1866 64.9359 81.2566C59.1259 81.6066 54.0559 81.0466 51.2359 81.2566C45.8659 80.2866 47.6259 81.5766 45.5259 75.5566C45.5959 72.2766 46.9559 66.1166 45.5259 64.1366C46.2959 60.1666 49.6759 55.3366 51.2359 58.4266Z" fill="white"/>
<path d="M51.2359 58.4266C57.8359 59.1366 61.7059 58.7466 64.9359 58.4266M51.2359 58.4266C55.8559 58.2766 60.5559 58.6166 64.9359 58.4266M51.2359 58.4266C48.8659 57.6766 44.8559 61.3366 45.5259 64.1366M51.2359 58.4266C48.4859 57.3866 45.8259 58.8866 45.5259 64.1366M64.9359 58.4266C70.7159 59.9366 72.0659 59.9966 70.6459 64.1366M64.9359 58.4266C67.1159 60.3566 70.0559 61.8666 70.6459 64.1366M70.6459 64.1366C69.9859 68.4866 71.2159 72.4866 70.6459 75.5566M70.6459 64.1366C70.1459 67.3066 70.2559 71.5966 70.6459 75.5566M70.6459 75.5566C71.6759 78.2666 70.1459 83.0166 64.9359 81.2566M70.6459 75.5566C68.9759 80.7466 67.5959 79.5566 64.9359 81.2566M64.9359 81.2566C60.2659 80.5166 57.4459 80.7166 51.2359 81.2566M64.9359 81.2566C61.0959 81.6766 56.8759 81.4766 51.2359 81.2566M51.2359 81.2566C46.2459 83.1366 47.3359 80.2966 45.5259 75.5566M51.2359 81.2566C47.6859 81.7466 43.5759 78.0466 45.5259 75.5566M45.5259 75.5566C46.0259 72.9166 44.8359 68.0066 45.5259 64.1366M45.5259 75.5566C45.5559 72.5166 45.9959 69.8566 45.5259 64.1366" stroke="#1E1E1E" stroke-linecap="round"/>
<path d="M57.7832 70.7704H59.3286L60.6241 72.475L60.965 72.9295L62.8968 75.4977H61.3514L60.0786 73.7932L59.7605 73.3613L57.7832 70.7704ZM63.3741 68.5886C63.3741 69.8159 63.1525 70.8765 62.7093 71.7704C62.2661 72.6644 61.6582 73.3538 60.8855 73.8386C60.1127 74.3235 59.2302 74.5659 58.2377 74.5659C57.2453 74.5659 56.3627 74.3235 55.59 73.8386C54.8173 73.3538 54.2093 72.6644 53.7661 71.7704C53.323 70.8765 53.1014 69.8159 53.1014 68.5886C53.1014 67.3613 53.323 66.3007 53.7661 65.4068C54.2093 64.5129 54.8173 63.8235 55.59 63.3386C56.3627 62.8538 57.2453 62.6113 58.2377 62.6113C59.2302 62.6113 60.1127 62.8538 60.8855 63.3386C61.6582 63.8235 62.2661 64.5129 62.7093 65.4068C63.1525 66.3007 63.3741 67.3613 63.3741 68.5886ZM62.0105 68.5886C62.0105 67.581 61.8419 66.7307 61.5048 66.0375C61.1714 65.3443 60.7188 64.8197 60.1468 64.4636C59.5786 64.1076 58.9423 63.9295 58.2377 63.9295C57.5332 63.9295 56.8949 64.1076 56.323 64.4636C55.7548 64.8197 55.3021 65.3443 54.965 66.0375C54.6317 66.7307 54.465 67.581 54.465 68.5886C54.465 69.5962 54.6317 70.4466 54.965 71.1398C55.3021 71.8329 55.7548 72.3576 56.323 72.7136C56.8949 73.0697 57.5332 73.2477 58.2377 73.2477C58.9423 73.2477 59.5786 73.0697 60.1468 72.7136C60.7188 72.3576 61.1714 71.8329 61.5048 71.1398C61.8419 70.4466 62.0105 69.5962 62.0105 68.5886Z" fill="#1E1E1E"/>
<path d="M35.8646 37.1057C35.8346 37.7257 35.7646 40.0357 35.7646 40.6557M35.4746 36.8657C35.3646 37.5157 35.3946 40.2257 35.4246 40.9457" stroke="#1E1E1E" stroke-linecap="round"/>
<path d="M49.1212 29.089C49.1512 29.739 49.4612 32.699 49.5412 33.459M49.7012 29.689C49.6812 30.379 49.3112 33.109 49.2612 33.839" stroke="#1E1E1E" stroke-linecap="round"/>
<path d="M24.1227 47.5275C23.1427 47.5475 19.0827 48.9575 18.1327 47.4975C17.1827 46.0375 18.3927 40.2775 18.4227 38.7775M23.6927 47.1475C22.6927 47.2575 18.7727 49.4575 17.8827 47.9675C17.0027 46.4775 18.2727 39.7575 18.3727 38.2175" stroke="#1E1E1E" stroke-linecap="round"/>
<path d="M25.1796 53.3362C26.3596 53.3762 31.0596 53.4262 32.2196 53.3762M24.7796 53.0462C25.9496 52.9962 30.9096 52.8262 32.1196 52.8862" stroke="#1E1E1E" stroke-linecap="round"/>
<path fill-rule="evenodd" clip-rule="evenodd" d="M25.9016 50.7648C25.7916 50.9148 24.8016 50.4148 25.5516 50.1748C26.3116 49.9348 29.8216 50.1948 30.4216 49.3348C31.0316 48.4848 29.3516 45.4448 29.2016 45.0548" fill="white"/>
<path d="M25.7716 50.4548C25.7416 50.4248 24.5616 50.0548 25.2716 50.0248C25.9716 49.9948 29.1516 50.9348 30.0016 50.2848C30.8516 49.6248 30.2616 46.7848 30.3616 46.0948M25.5216 50.2848C25.4616 50.3048 24.2516 50.5348 25.1216 50.4448C25.9916 50.3548 29.8416 50.5748 30.7216 49.7448C31.6016 48.9148 30.4716 46.0248 30.3916 45.4648" stroke="#1E1E1E" stroke-linecap="round"/>
<path d="M50.0879 42.6948C51.0379 42.5948 54.8679 43.6148 55.9279 42.6248C56.9979 41.6348 55.3379 37.8148 56.4579 36.7548C57.5879 35.6948 61.6379 36.4648 62.6879 36.2548M49.6279 42.1748C50.6979 41.8948 55.8979 42.9448 56.9679 41.8948C58.0379 40.8448 55.0479 36.9748 56.0379 35.8748C57.0379 34.7848 61.8979 35.3748 62.9279 35.3048" stroke="#1E1E1E" stroke-linecap="round"/>
<path d="M17.869 48.4611C17.719 49.1511 18.969 51.5411 17.459 52.2511C15.959 52.9511 10.259 52.6911 8.82903 52.6811M18.389 48.3011C18.159 48.9011 18.759 51.1111 17.139 51.7411C15.519 52.3811 10.039 52.0311 8.68903 52.1411" stroke="#1E1E1E" stroke-linecap="round"/>
<path fill-rule="evenodd" clip-rule="evenodd" d="M55.5686 41.2491C55.4186 42.6991 54.9086 48.7891 56.0786 50.0891C57.2486 51.3891 61.4386 49.7091 62.5886 49.0391C63.7286 48.3791 63.2186 46.6491 62.9486 46.0991" fill="white"/>
<path d="M56.7386 42.2891C56.8486 43.4291 56.3286 48.0191 57.2186 49.2291C58.1086 50.4491 61.2586 50.2691 62.0786 49.5691C62.8886 48.8691 62.0986 45.8091 62.0986 45.0291M57.3386 42.0991C57.4386 43.3091 56.2586 47.4591 57.0286 48.7491C57.7986 50.0391 61.0886 50.5691 61.9586 49.8391C62.8286 49.1091 62.2686 45.1591 62.2386 44.3591" stroke="#1E1E1E" stroke-linecap="round"/>
<path d="M48.9058 48.2147C47.8158 48.1047 43.2358 46.2147 42.1558 47.5347C41.0758 48.8547 42.3658 54.7147 42.4058 56.1247M48.5558 48.0447C47.4558 47.9547 43.0358 46.6247 41.9858 47.8647C40.9358 49.1147 42.1458 54.0947 42.2458 55.5047" stroke="#1E1E1E" stroke-linecap="round"/>
<path d="M65.427 32.8813C65.877 32.9013 66.497 33.1313 66.837 33.3913C67.177 33.6613 67.407 34.0213 67.467 34.4613C67.527 34.9013 67.427 35.6813 67.187 36.0513C66.937 36.4213 66.467 36.5513 65.987 36.6913C65.517 36.8413 64.747 37.1113 64.347 36.9113C63.947 36.7113 63.757 36.0013 63.587 35.5113C63.427 35.0213 63.277 34.3813 63.357 33.9613C63.427 33.5413 63.617 33.2113 64.047 33.0013C64.467 32.7813 65.607 32.6813 65.897 32.6913C66.187 32.7013 65.877 33.0013 65.797 33.0613M65.447 32.4513C65.877 32.2613 66.247 32.3713 66.567 32.6213C66.897 32.8813 67.267 33.4213 67.387 33.9713C67.507 34.5313 67.397 35.4513 67.287 35.9513C67.177 36.4513 67.037 36.7413 66.727 36.9713C66.407 37.1913 65.897 37.3813 65.397 37.2813C64.897 37.1813 64.007 36.8213 63.707 36.3413C63.397 35.8613 63.537 34.8913 63.567 34.4013C63.587 33.9113 63.537 33.7513 63.837 33.4013C64.137 33.0513 65.127 32.4513 65.377 32.3013C65.627 32.1613 65.457 32.5013 65.337 32.5413" fill="white"/>
<path d="M65.527 32.7513C65.927 32.6813 66.427 32.7213 66.737 32.9913C67.037 33.2613 67.247 33.8413 67.377 34.3813C67.497 34.9113 67.747 35.7513 67.487 36.2113C67.237 36.6813 66.277 37.0913 65.827 37.1513C65.377 37.2213 65.167 36.8413 64.797 36.5913C64.427 36.3413 63.907 36.0413 63.607 35.6613C63.297 35.2813 62.857 34.7213 62.977 34.3113C63.097 33.9013 63.907 33.5013 64.307 33.2013C64.697 32.9013 65.117 32.6213 65.337 32.5313C65.557 32.4313 65.607 32.6013 65.627 32.6213M65.167 32.8213C65.577 32.8713 66.187 33.4813 66.657 33.8313C67.137 34.1813 67.937 34.5413 68.027 34.9413C68.117 35.3413 67.647 35.9413 67.217 36.2313C66.797 36.5113 65.947 36.5313 65.487 36.6613C65.027 36.7913 64.787 37.1013 64.457 36.9913C64.127 36.8713 63.637 36.4813 63.507 35.9813C63.367 35.4813 63.567 34.5213 63.637 33.9913C63.707 33.4613 63.587 32.9913 63.917 32.8013C64.237 32.6113 65.307 32.9113 65.587 32.8613C65.877 32.8213 65.557 32.5513 65.617 32.5413" stroke="#1E1E1E" stroke-linecap="round"/>
<path d="M61.468 41.5963C61.848 41.5163 62.318 41.5163 62.628 41.7563C62.948 41.9863 63.268 42.6263 63.358 43.0063C63.458 43.3863 63.408 43.6763 63.198 44.0363C62.988 44.4063 62.448 45.0663 62.108 45.1963C61.778 45.3363 61.518 45.0463 61.188 44.8363C60.858 44.6363 60.378 44.2763 60.138 43.9563C59.898 43.6463 59.638 43.3063 59.738 42.9663C59.828 42.6363 60.368 42.1363 60.698 41.9463C61.038 41.7663 61.608 41.9163 61.728 41.8763C61.858 41.8363 61.518 41.7163 61.448 41.7163M61.738 41.1863C62.018 41.2063 62.478 41.4963 62.718 41.8863C62.968 42.2663 63.088 43.0363 63.188 43.4863C63.298 43.9363 63.448 44.2663 63.338 44.5863C63.238 44.9063 62.938 45.3163 62.538 45.4063C62.138 45.5063 61.288 45.4363 60.928 45.1563C60.568 44.8863 60.558 44.1363 60.398 43.7563C60.238 43.3863 59.908 43.2963 59.988 42.9163C60.068 42.5463 60.538 41.7663 60.868 41.5063C61.198 41.2463 61.908 41.4063 61.978 41.3663C62.048 41.3163 61.368 41.1863 61.288 41.2163" fill="white"/>
<path d="M61.538 41.2964C61.858 41.2564 62.258 41.5164 62.598 41.8564C62.948 42.1964 63.558 42.8964 63.598 43.3564C63.638 43.8164 63.068 44.3564 62.858 44.5964C62.658 44.8464 62.668 44.8064 62.368 44.8464C62.068 44.8864 61.518 44.9664 61.078 44.8464C60.648 44.7264 59.918 44.4164 59.758 44.1064C59.608 43.8064 60.028 43.4164 60.128 43.0164C60.228 42.6264 60.068 42.0164 60.348 41.7564C60.628 41.4964 61.578 41.5264 61.798 41.4664C62.018 41.4064 61.668 41.3464 61.688 41.3864M61.428 42.0664C61.938 42.0964 62.938 42.1364 63.268 42.3464C63.598 42.5564 63.498 43.0264 63.388 43.3164C63.278 43.6164 62.818 43.7764 62.598 44.1064C62.388 44.4364 62.358 45.0964 62.088 45.2864C61.818 45.4764 61.278 45.4764 60.998 45.2364C60.708 44.9964 60.608 44.2964 60.388 43.8564C60.168 43.4264 59.638 42.9464 59.668 42.6464C59.698 42.3464 60.208 42.2764 60.558 42.0664C60.908 41.8564 61.488 41.4764 61.748 41.3764C62.018 41.2864 62.168 41.4064 62.128 41.5164" stroke="#1E1E1E" stroke-linecap="round"/>
<path d="M42.4235 55.4646C42.8735 55.4546 43.5035 55.9046 43.8535 56.1946C44.2135 56.4846 44.5035 56.7646 44.5335 57.2146C44.5635 57.6646 44.2635 58.5346 44.0335 58.8846C43.8135 59.2446 43.5735 59.2846 43.1635 59.3246C42.7635 59.3646 42.0735 59.2946 41.6135 59.1446C41.1435 58.9946 40.5535 58.7646 40.3835 58.4346C40.2135 58.1046 40.4435 57.4946 40.5835 57.1546C40.7335 56.8146 40.9535 56.6046 41.2435 56.3846C41.5335 56.1646 42.1535 55.9146 42.3235 55.8346C42.5035 55.7446 42.2435 55.8046 42.3035 55.8746M42.0935 55.5346C42.4835 55.5946 42.9835 56.0746 43.4035 56.3746C43.8335 56.6846 44.4535 56.9646 44.6735 57.3646C44.8935 57.7746 44.9535 58.4246 44.7235 58.7846C44.5035 59.1546 43.7335 59.5046 43.3135 59.5546C42.9035 59.6146 42.6635 59.2646 42.2435 59.1346C41.8235 59.0046 41.0635 59.1046 40.7935 58.7546C40.5235 58.4146 40.5535 57.5346 40.6235 57.0846C40.6835 56.6346 40.9835 56.3746 41.1735 56.0746C41.3635 55.7846 41.6235 55.4146 41.7535 55.3346C41.8935 55.2546 41.9635 55.4046 41.9935 55.5846" fill="white"/>
<path d="M42.2235 55.5146C42.7135 55.5746 43.6635 56.0446 44.0035 56.3946C44.3335 56.7446 44.1535 57.2646 44.2235 57.6046C44.3035 57.9446 44.5935 58.1346 44.4335 58.4246C44.2635 58.7046 43.7435 59.1646 43.2335 59.3246C42.7235 59.4846 41.7835 59.5146 41.3735 59.4046C40.9735 59.2946 41.0135 59.0446 40.8135 58.6646C40.6035 58.2746 40.0935 57.5446 40.1435 57.1046C40.2035 56.6646 40.7635 56.3046 41.1335 56.0346C41.5035 55.7646 42.1035 55.5346 42.3635 55.4846C42.6235 55.4346 42.6635 55.7046 42.7035 55.7346M42.8835 55.9846C43.3635 55.9046 43.6235 56.1546 43.8035 56.3446C43.9835 56.5246 43.9335 56.6846 43.9935 57.1146C44.0535 57.5346 44.3035 58.4346 44.1635 58.8746C44.0235 59.3146 43.5235 59.6846 43.1535 59.7346C42.7935 59.7846 42.4635 59.4146 41.9935 59.1746C41.5235 58.9346 40.6035 58.5846 40.3335 58.2946C40.0535 58.0046 40.2035 57.8146 40.3335 57.4146C40.4735 57.0246 40.7035 56.2346 41.1235 55.9346C41.5335 55.6346 42.6535 55.6146 42.8435 55.6246C43.0335 55.6446 42.2735 56.0146 42.2635 56.0346" stroke="#1E1E1E" stroke-linecap="round"/>
<path d="M17.9153 34.6486C18.3553 34.6186 18.9553 34.6586 19.2753 35.0086C19.5853 35.3486 19.7153 36.2286 19.8053 36.7086C19.9053 37.1886 20.0453 37.5186 19.8453 37.8586C19.6553 38.2086 19.1053 38.5686 18.6453 38.7586C18.1753 38.9386 17.4353 39.0886 17.0453 38.9686C16.6653 38.8386 16.5253 38.3686 16.3453 38.0186C16.1553 37.6686 15.9653 37.2886 15.9653 36.8486C15.9653 36.3986 16.0653 35.6786 16.3453 35.3486C16.6153 35.0086 17.3253 34.8786 17.6153 34.8286C17.9053 34.7786 18.0653 35.0286 18.0853 35.0486M17.4553 35.0586C17.9253 35.0386 18.7753 35.0386 19.2453 35.2986C19.7053 35.5486 20.1653 36.1486 20.2553 36.5986C20.3453 37.0386 19.9653 37.6186 19.7853 37.9386C19.6153 38.2586 19.5753 38.3186 19.1953 38.5086C18.8253 38.6986 17.9853 39.1986 17.5453 39.0886C17.1153 38.9886 16.8253 38.2886 16.5853 37.8786C16.3553 37.4686 16.2353 37.1086 16.1253 36.6386C16.0253 36.1686 15.7453 35.3986 15.9553 35.0586C16.1653 34.7086 17.1753 34.5286 17.3953 34.5586C17.6253 34.5986 17.2953 35.1986 17.3153 35.2786" fill="white"/>
<path d="M17.8353 34.9486C18.2353 34.9286 18.3553 35.1286 18.7253 35.3086C19.0953 35.4786 19.8553 35.6286 20.0653 36.0086C20.2653 36.3886 20.1853 37.1186 19.9353 37.5986C19.6853 38.0686 18.9453 38.5686 18.5753 38.8286C18.2053 39.0986 18.1353 39.2986 17.7153 39.1786C17.3053 39.0686 16.3953 38.5486 16.0953 38.1486C15.7953 37.7386 15.8853 37.2486 15.9153 36.7686C15.9453 36.2786 15.9453 35.5786 16.2653 35.2386C16.5753 34.8986 17.5453 34.8286 17.7953 34.7086C18.0553 34.5886 17.8153 34.4986 17.7953 34.5186M18.2353 34.8786C18.4953 34.8386 18.6753 34.8486 18.9553 35.2186C19.2353 35.5886 19.8153 36.5486 19.9153 37.1086C20.0153 37.6686 19.7853 38.2886 19.5753 38.5786C19.3553 38.8686 19.1253 38.8386 18.6353 38.8386C18.1553 38.8486 17.1153 38.7686 16.6753 38.6086C16.2353 38.4486 16.0953 38.3186 15.9853 37.8886C15.8653 37.4586 15.7853 36.5086 15.9953 36.0186C16.1953 35.5286 16.8953 35.1086 17.2353 34.9486C17.5753 34.7786 17.7953 35.0786 18.0053 35.0286C18.2253 34.9786 18.4953 34.6886 18.5253 34.6286" stroke="#1E1E1E" stroke-linecap="round"/>
<path d="M29.8328 42.2053C30.2228 42.1653 30.6328 42.6353 31.0128 42.8453C31.3928 43.0553 31.9728 43.1753 32.1328 43.4753C32.2828 43.7653 32.1528 44.2353 31.9328 44.6153C31.7128 44.9953 31.1628 45.5153 30.8128 45.7353C30.4628 45.9553 30.1928 45.9553 29.8128 45.9353C29.4328 45.9153 28.8528 45.8853 28.5228 45.6053C28.1828 45.3253 27.8328 44.6653 27.7928 44.2553C27.7428 43.8353 27.8928 43.3653 28.2428 43.1153C28.5928 42.8553 29.6728 42.8153 29.9028 42.7153C30.1328 42.6153 29.6728 42.5353 29.6028 42.5153M30.1728 42.6553C30.6728 42.6153 31.3428 42.8853 31.6428 43.0953C31.9428 43.3153 31.9028 43.6953 31.9928 43.9453C32.0828 44.1953 32.3628 44.2953 32.1828 44.6053C32.0028 44.9253 31.3228 45.6853 30.9228 45.8353C30.5228 45.9853 30.1528 45.6553 29.7728 45.5153C29.3928 45.3753 28.9928 45.3053 28.6328 44.9853C28.2728 44.6753 27.6428 44.0053 27.6128 43.6253C27.5828 43.2553 28.1028 42.8553 28.4328 42.7453C28.7628 42.6253 29.3628 42.9453 29.5728 42.9153C29.7928 42.8853 29.7128 42.5953 29.7428 42.5553" fill="white"/>
<path d="M29.5928 42.6953C29.9928 42.5553 30.9628 42.3553 31.3828 42.4953C31.8028 42.6353 32.0728 43.1553 32.1028 43.5453C32.1328 43.9453 31.7328 44.4853 31.5728 44.8753C31.4128 45.2653 31.5128 45.7353 31.1428 45.8853C30.7728 46.0353 29.7928 45.8953 29.3528 45.7753C28.9128 45.6553 28.7128 45.4753 28.4728 45.1553C28.2428 44.8353 27.8828 44.2353 27.9328 43.8653C27.9828 43.4953 28.4328 43.2353 28.7628 42.9453C29.1028 42.6653 29.7728 42.2753 29.9628 42.1653C30.1428 42.0553 29.8628 42.1653 29.8928 42.2953M29.7328 42.1653C30.1328 42.1853 31.0328 42.7953 31.4328 43.1453C31.8328 43.5053 32.0228 43.9953 32.1228 44.2953C32.2128 44.5953 32.3228 44.7253 32.0228 44.9553C31.7228 45.1853 30.7928 45.4953 30.3128 45.6653C29.8428 45.8353 29.5228 46.1453 29.1728 45.9953C28.8328 45.8453 28.3528 45.1653 28.2428 44.7753C28.1328 44.3853 28.4228 43.9553 28.4928 43.6653C28.5628 43.3753 28.3428 43.2653 28.6828 43.0253C29.0228 42.7953 30.2628 42.4053 30.5128 42.2653C30.7728 42.1253 30.2428 42.1453 30.2228 42.1753" stroke="#1E1E1E" stroke-linecap="round"/>
<path d="M33.6279 51.6401C34.0579 51.6001 34.8579 51.5101 35.2179 51.7001C35.5879 51.8801 35.7879 52.3101 35.8179 52.7401C35.8579 53.1701 35.6079 53.8601 35.4279 54.2801C35.2579 54.6901 35.1279 54.9901 34.7679 55.2101C34.4079 55.4301 33.7379 55.7001 33.2479 55.6001C32.7679 55.4901 32.1379 54.9801 31.8479 54.6001C31.5579 54.2101 31.3679 53.6701 31.4879 53.2901C31.6079 52.9001 32.2079 52.5801 32.5479 52.2801C32.8779 51.9901 33.3579 51.6601 33.5079 51.5201C33.6579 51.3901 33.4379 51.4701 33.4479 51.4901M34.4379 51.8201C34.8079 51.8301 34.9779 52.0601 35.2679 52.2401C35.5579 52.4201 36.1279 52.5201 36.1679 52.9101C36.2079 53.2901 35.7679 54.2301 35.5079 54.5701C35.2479 54.9001 34.9679 54.8501 34.5779 54.9101C34.1879 54.9801 33.6879 55.1501 33.1679 54.9801C32.6579 54.8001 31.7679 54.2201 31.5179 53.8401C31.2579 53.4701 31.5079 52.9801 31.6379 52.7201C31.7779 52.4701 31.9779 52.5001 32.3479 52.3101C32.7179 52.1201 33.5979 51.7001 33.8479 51.5801C34.0979 51.4601 33.8379 51.5801 33.8679 51.5701" fill="white"/>
<path d="M34.2279 51.2701C34.7079 51.2101 35.1679 51.5801 35.3879 51.9001C35.5979 52.2301 35.4779 52.7701 35.5179 53.2201C35.5679 53.6801 35.8979 54.3101 35.6679 54.6301C35.4279 54.9601 34.5379 55.0701 34.0879 55.1501C33.6479 55.2201 33.3479 55.2701 32.9779 55.0801C32.6079 54.9001 32.0079 54.3901 31.8579 54.0201C31.6979 53.6601 31.8779 53.3001 32.0279 52.8901C32.1879 52.4801 32.4379 51.8301 32.7779 51.5601C33.1079 51.3001 33.7779 51.2601 34.0379 51.3101C34.2979 51.3601 34.3079 51.7801 34.3179 51.8501M33.8779 51.6901C34.3879 51.7701 34.8779 52.0401 35.2579 52.2401C35.6379 52.4401 36.1479 52.5701 36.1479 52.9001C36.1479 53.2301 35.5479 53.7801 35.2479 54.2101C34.9579 54.6301 34.7479 55.3101 34.3779 55.4501C34.0079 55.5901 33.3679 55.2401 33.0379 55.0401C32.7079 54.8401 32.6379 54.5401 32.3979 54.2501C32.1679 53.9601 31.5479 53.7201 31.6379 53.3001C31.7179 52.8801 32.5079 52.0801 32.8879 51.7301C33.2679 51.3701 33.7079 51.2601 33.8979 51.1901C34.0979 51.1201 34.0779 51.2601 34.0679 51.3101" stroke="#1E1E1E" stroke-linecap="round"/>
<path d="M8.16769 49.9053C8.54769 49.7553 8.95769 49.8753 9.22769 50.1353C9.48769 50.3953 9.62769 51.0053 9.75769 51.4653C9.89769 51.9253 10.1677 52.4353 10.0477 52.9053C9.93769 53.3653 9.48769 54.0353 9.06769 54.2653C8.64769 54.4853 7.97769 54.3753 7.53769 54.2453C7.09769 54.1153 6.60769 53.8053 6.43769 53.4853C6.26769 53.1653 6.45769 52.7753 6.49769 52.3153C6.52769 51.8653 6.43769 51.1553 6.63769 50.7753C6.83769 50.3953 7.47769 50.1653 7.67769 50.0453C7.88769 49.9253 7.76769 49.9653 7.84769 50.0453M8.34769 50.2453C8.70769 50.1253 9.52769 49.9953 9.80769 50.2653C10.0977 50.5453 10.0377 51.4753 10.0677 51.9153C10.0977 52.3453 10.1577 52.5453 9.96769 52.8753C9.77769 53.2053 9.42769 53.7753 8.92769 53.8953C8.43769 54.0253 7.42769 53.7953 6.99769 53.6153C6.56769 53.4453 6.48769 53.0953 6.33769 52.8453C6.19769 52.5953 6.00769 52.5053 6.11769 52.1253C6.22769 51.7353 6.62769 50.8853 6.97769 50.5453C7.32769 50.2153 7.96769 50.2153 8.19769 50.1153C8.41769 50.0153 8.41769 49.9853 8.34769 49.9353" fill="white"/>
<path d="M8.56769 49.9353C8.84769 49.9853 8.95769 50.3153 9.22769 50.6753C9.50769 51.0353 10.1877 51.6753 10.2177 52.0953C10.2477 52.5153 9.67769 52.8753 9.41769 53.1953C9.14769 53.5153 8.99769 53.9353 8.63769 54.0253C8.27769 54.1153 7.57769 53.9253 7.24769 53.7353C6.92769 53.5553 6.80769 53.3253 6.69769 52.9153C6.58769 52.4953 6.49769 51.7153 6.58769 51.2653C6.67769 50.8153 6.87769 50.3753 7.22769 50.2253C7.57769 50.0853 8.48769 50.4153 8.70769 50.4053C8.93769 50.3953 8.62769 50.2553 8.57769 50.1853M8.12769 50.3353C8.55769 50.1853 9.31769 50.0053 9.57769 50.1653C9.83769 50.3353 9.64769 50.8253 9.68769 51.3153C9.71769 51.8153 9.91769 52.7353 9.79769 53.1553C9.67769 53.5653 9.24769 53.6453 8.96769 53.7953C8.67769 53.9453 8.51769 54.0653 8.10769 54.0353C7.69769 53.9953 6.74769 53.9753 6.51769 53.6053C6.27769 53.2253 6.63769 52.3353 6.70769 51.7953C6.77769 51.2653 6.67769 50.7053 6.93769 50.3853C7.18769 50.0653 8.03769 49.9353 8.21769 49.8653C8.39769 49.7953 8.09769 49.8853 7.99769 49.9753" stroke="#1E1E1E" stroke-linecap="round"/>
<path d="M18.0624 36.1634C18.1024 36.4034 18.2524 37.3434 18.2924 37.5734" stroke="#1E1E1E" stroke-width="0.5" stroke-linecap="round"/>
<path d="M8.15866 51.8397C8.18866 51.9997 8.29866 52.6397 8.32866 52.7997" stroke="#1E1E1E" stroke-width="0.5" stroke-linecap="round"/>
<path d="M30.0602 43.8035C30.0602 43.9435 30.0602 44.5135 30.0602 44.6535" stroke="#1E1E1E" stroke-width="0.5" stroke-linecap="round"/>
<path d="M33.6255 52.8018C33.6255 52.9218 33.6255 53.4118 33.6255 53.5418" stroke="#1E1E1E" stroke-width="0.5" stroke-linecap="round"/>
<path d="M42.171 56.9896C42.181 57.1996 42.221 58.0296 42.231 58.2396" stroke="#1E1E1E" stroke-width="0.5" stroke-linecap="round"/>
<path d="M61.639 43.2375C61.639 43.3075 61.639 43.5675 61.639 43.6375" stroke="#1E1E1E" stroke-width="0.5" stroke-linecap="round"/>
<path d="M65.261 33.9563C65.271 34.2063 65.311 35.1863 65.321 35.4263" stroke="#1E1E1E" stroke-width="0.5" stroke-linecap="round"/>
</svg>
