<svg width="86" height="126" viewBox="0 0 86 126" fill="none" xmlns="http://www.w3.org/2000/svg">
<path d="M22.7725 1.41314C36.5825 -0.286862 50.1025 -0.186862 63.1725 1.41314C74.3625 1.88314 85.4425 9.47314 83.3725 21.6131C82.0325 46.1731 83.7025 68.4531 83.3725 103.163C86.3325 118.193 73.6425 125.143 63.1725 123.363C50.2025 125.993 32.6325 125.683 22.7725 123.363C7.36246 125.903 1.65246 118.003 2.57246 103.163C4.81246 80.0531 4.29246 56.4631 2.57246 21.6131C2.81246 10.7631 11.6225 -2.14686 22.7725 1.41314Z" fill="white"/>
<path d="M22.7725 1.41313C33.2525 2.99313 44.8225 1.30313 63.1725 1.41313M22.7725 1.41313C32.5825 1.17313 43.2825 1.25313 63.1725 1.41313M22.7725 1.41313C9.57246 0.403133 3.70246 6.71313 2.57246 21.6131M22.7725 1.41313C9.56246 -0.486867 1.72246 8.11313 2.57246 21.6131M63.1725 1.41313C75.2425 0.163133 81.6125 6.15313 83.3725 21.6131M63.1725 1.41313C77.4625 1.62313 85.1525 7.92313 83.3725 21.6131M83.3725 21.6131C85.7625 42.1031 84.7025 60.3031 83.3725 103.163M83.3725 21.6131C83.5125 49.6631 83.0825 77.0931 83.3725 103.163M83.3725 103.163C85.2425 115.893 76.1325 123.253 63.1725 123.363M83.3725 103.163C83.5725 116.343 74.8625 121.473 63.1725 123.363M63.1725 123.363C52.9625 121.593 43.2925 123.063 22.7725 123.363M63.1725 123.363C52.1525 122.603 40.5125 122.323 22.7725 123.363M22.7725 123.363C9.74246 124.383 2.70246 117.013 2.57246 103.163M22.7725 123.363C7.24246 122.083 4.18246 115.263 2.57246 103.163M2.57246 103.163C2.90246 77.6931 1.09246 53.4731 2.57246 21.6131M2.57246 103.163C2.00246 72.2231 2.67246 42.2331 2.57246 21.6131" stroke="#1E1E1E" stroke-width="2" stroke-linecap="round"/>
<path d="M23.8473 1.23938C35.1073 1.23938 46.3773 1.23938 60.2373 1.23938C62.7173 1.23938 63.9673 2.47938 63.9673 4.96938C63.9673 7.37938 63.9673 9.79938 63.9673 12.4194C63.9673 14.8994 62.7173 16.1394 60.2373 16.1394C46.3173 16.1394 32.4073 16.1394 23.8473 16.1394C21.3573 16.1394 20.1173 14.8994 20.1173 12.4194C20.1173 9.81938 20.1173 7.22938 20.1173 4.96938C20.1173 2.47938 21.3573 1.23938 23.8473 1.23938Z" fill="white"/>
<path d="M23.8473 1.23938C31.4673 1.23938 39.0873 1.23938 60.2373 1.23938M23.8473 1.23938C32.4373 1.23938 41.0373 1.23938 60.2373 1.23938M23.8473 1.23938C21.3573 1.23938 20.1173 2.47938 20.1173 4.96938M60.2373 1.23938C62.7173 1.23938 63.9673 2.47938 63.9673 4.96938M63.9673 4.96938C63.9673 6.64938 63.9673 8.33938 63.9673 12.4194M63.9673 4.96938C63.9673 6.89938 63.9673 8.82938 63.9673 12.4194M63.9673 12.4194C63.9673 14.8994 62.7173 16.1394 60.2373 16.1394M60.2373 16.1394C49.4273 16.1394 38.6173 16.1394 23.8473 16.1394M60.2373 16.1394C52.9273 16.1394 45.6273 16.1394 23.8473 16.1394M23.8473 16.1394C21.3573 16.1394 20.1173 14.8994 20.1173 12.4194M20.1173 12.4194C20.1173 9.47938 20.1173 6.53938 20.1173 4.96938M20.1173 12.4194C20.1173 10.7194 20.1173 9.01938 20.1173 4.96938" stroke="#1E1E1E" stroke-width="2" stroke-linecap="round"/>
<path d="M33.5753 11.2517V4.89704H37.3856V5.57967H34.3448V7.72685H37.1001V8.40948H34.3448V11.2517H33.5753ZM38.6042 11.2517V6.48571H39.3365V11.2517H38.6042ZM38.9766 5.69137C38.8338 5.69137 38.7108 5.64276 38.6073 5.54554C38.506 5.44831 38.4553 5.33144 38.4553 5.19491C38.4553 5.05839 38.506 4.94151 38.6073 4.84429C38.7108 4.74707 38.8338 4.69846 38.9766 4.69846C39.1193 4.69846 39.2413 4.74707 39.3427 4.84429C39.4461 4.94151 39.4978 5.05839 39.4978 5.19491C39.4978 5.33144 39.4461 5.44831 39.3427 5.54554C39.2413 5.64276 39.1193 5.69137 38.9766 5.69137ZM41.41 4.89704V11.2517H40.6777V4.89704H41.41ZM44.1537 11.3634C43.8517 11.3634 43.5776 11.3065 43.3314 11.1928C43.0853 11.0769 42.8898 10.9104 42.745 10.6932C42.6002 10.4739 42.5278 10.2091 42.5278 9.89886C42.5278 9.62581 42.5816 9.40447 42.6891 9.23485C42.7967 9.06315 42.9405 8.9287 43.1204 8.83147C43.3004 8.73425 43.499 8.66185 43.7162 8.61427C43.9355 8.56463 44.1558 8.52532 44.3771 8.49636C44.6667 8.45913 44.9015 8.4312 45.0815 8.41259C45.2635 8.3919 45.3959 8.35777 45.4786 8.31019C45.5634 8.26261 45.6058 8.17987 45.6058 8.06196V8.03714C45.6058 7.73099 45.5221 7.4931 45.3545 7.32348C45.189 7.15386 44.9377 7.06904 44.6005 7.06904C44.2509 7.06904 43.9768 7.14558 43.7783 7.29866C43.5797 7.45173 43.44 7.61515 43.3594 7.78891L42.6643 7.54068C42.7884 7.25108 42.9539 7.0256 43.1608 6.86426C43.3697 6.70084 43.5973 6.58707 43.8434 6.52294C44.0916 6.45675 44.3357 6.42365 44.5757 6.42365C44.7288 6.42365 44.9046 6.44227 45.1032 6.4795C45.3038 6.51467 45.4972 6.5881 45.6834 6.6998C45.8717 6.81151 46.0278 6.9801 46.1519 7.20557C46.2761 7.43105 46.3381 7.73306 46.3381 8.11161V11.2517H45.6058V10.6063H45.5686C45.519 10.7097 45.4362 10.8204 45.3204 10.9383C45.2045 11.0562 45.0504 11.1566 44.858 11.2393C44.6657 11.322 44.4309 11.3634 44.1537 11.3634ZM44.2654 10.7056C44.555 10.7056 44.7991 10.6487 44.9977 10.5349C45.1983 10.4212 45.3493 10.2743 45.4507 10.0943C45.5541 9.91437 45.6058 9.7251 45.6058 9.52652V8.8563C45.5748 8.89353 45.5065 8.92766 45.4011 8.95869C45.2976 8.98765 45.1776 9.01351 45.0411 9.03626C44.9067 9.05695 44.7753 9.07557 44.6471 9.09211C44.5209 9.10659 44.4185 9.11901 44.3399 9.12935C44.1496 9.15417 43.9717 9.19451 43.8062 9.25036C43.6428 9.30414 43.5104 9.38585 43.409 9.49549C43.3097 9.60305 43.2601 9.74992 43.2601 9.93609C43.2601 10.1905 43.3542 10.3829 43.5424 10.5132C43.7327 10.6415 43.9737 10.7056 44.2654 10.7056Z" fill="#1E1E1E"/>
<path d="M11.1351 89.5751C22.1251 89.5751 66.1051 89.5751 77.0951 89.5751" stroke="#1E1E1E" stroke-width="2" stroke-linecap="round"/>
<path d="M66.3167 48.2142C66.1333 45.4772 65.5939 42.4372 65.6463 36.9251ZM66.3167 48.2142C66.2325 45.4353 66.0179 42.6389 65.6463 36.9251Z" stroke="#1E1E1E" stroke-linecap="round"/>
<path d="M67.9277 42.1016C67.3133 40.8533 66.5259 39.4584 65.6463 36.9251ZM67.9277 42.1016C67.4225 40.8112 66.8572 39.522 65.6463 36.9251Z" stroke="#1E1E1E" stroke-linecap="round"/>
<path d="M64.072 42.3569C64.4867 41.0585 64.728 39.5836 65.6463 36.9251ZM64.072 42.3569C64.4862 41.0286 64.8299 39.6816 65.6463 36.9251Z" stroke="#1E1E1E" stroke-linecap="round"/>
<path d="M23.0173 36.7252C22.609 39.8937 22.5086 42.9463 23.0037 48.3276ZM23.0173 36.7252C22.9883 38.8261 23.1721 41.5831 23.0037 48.3276Z" stroke="#1E1E1E" stroke-linecap="round"/>
<path d="M21.0963 42.8438C21.3759 44.3586 21.8042 45.8005 23.0037 48.3276ZM21.0963 42.8438C21.4656 43.8268 21.9413 45.1377 23.0037 48.3276Z" stroke="#1E1E1E" stroke-linecap="round"/>
<path d="M25.0683 42.9063C24.3471 44.3907 23.7748 45.8121 23.0037 48.3276ZM25.0683 42.9063C24.6373 43.8849 24.3226 45.1813 23.0037 48.3276Z" stroke="#1E1E1E" stroke-linecap="round"/>
<path d="M20.6805 61.9941C20.7531 59.0521 21.4276 56.7185 20.5317 54.3755C18.3212 51.8082 23.1729 50.8233 22.7082 52.1226C23.6306 51.7245 24.3114 51.7612 27.1373 52.0361C27.9213 50.1805 28.9819 51.7401 29.4001 54.2024C29.9631 56.4018 29.6086 58.7392 29.5488 61.821C31.2104 61.3784 27.5626 66.6506 27.3725 64.0839C26.2082 63.8765 24.3395 64.4731 22.9434 64.1703C20.3192 63.4714 19.7387 64.4729 20.6805 61.9941Z" fill="white"/>
<path d="M20.6805 61.9941C20.3317 60.0105 20.7606 57.9017 20.5317 54.3755M20.6805 61.9941C20.7373 59.7825 20.7812 57.4212 20.5317 54.3755M20.6805 61.9941C20.0878 63.916 22.0223 64.6384 22.9434 64.1703M20.6805 61.9941C20.3812 63.0601 22.1206 64.0363 22.9434 64.1703M20.5317 54.3755C20.934 51.9272 21.5828 51.3444 22.7082 52.1226M20.5317 54.3755C20.0404 53.2849 21.8994 51.6783 22.7082 52.1226M22.7082 52.1226C23.9691 52.158 25.3577 52.0709 27.1373 52.0362M22.7082 52.1226C23.8895 52.1796 25.2181 52.0936 27.1373 52.0362M27.1373 52.0362C28.2543 52.8945 29.1241 52.8775 29.4001 54.2024M27.1373 52.0362C27.488 52.5794 28.9593 52.6307 29.4001 54.2024M29.4001 54.2024C29.4644 55.9615 29.1349 58.0383 29.5488 61.821M29.4001 54.2024C29.4967 56.0809 29.5093 57.7509 29.5488 61.821M29.5488 61.821C29.0326 64.0715 29.6496 64.9396 27.3725 64.0839M29.5488 61.821C28.7507 63.4668 28.7375 64.8374 27.3725 64.0839M27.3725 64.0839C26.0763 64.2892 24.6356 64.2673 22.9434 64.1703M27.3725 64.0839C25.9926 64.1008 24.7628 64.1248 22.9434 64.1703" stroke="#1E1E1E" stroke-linecap="round"/>
<path d="M30.6555 61.8686C31.4028 59.1635 29.7392 57.4557 30.5068 54.2501C32.4226 51.4522 33.3849 54.1239 32.6832 51.9972C33.9669 51.6621 35.7241 51.4977 37.1124 51.9107C38.2029 50.8992 40.5877 52.663 39.3751 54.077C39.5391 56.8443 40.1483 58.8428 39.5238 61.6955C38.2631 65.7709 39.5395 64.0357 37.3476 63.9584C35.4945 64.3347 34.2254 63.8793 32.9184 64.0449C30.468 65.0729 31.351 65.2157 30.6555 61.8686Z" fill="white"/>
<path d="M30.6555 61.8686C30.7987 60.4956 30.9163 58.3229 30.5068 54.2501M30.6555 61.8686C30.7851 59.7957 30.6355 57.2581 30.5068 54.2501M30.6555 61.8686C31.2517 63.2072 30.8172 64.516 32.9184 64.0449M30.6555 61.8686C30.9643 63.3429 31.1005 63.6603 32.9184 64.0449M30.5068 54.2501C30.8324 51.9733 30.7998 52.354 32.6832 51.9972M30.5068 54.2501C31.1488 52.2972 31.864 52.0432 32.6832 51.9972M32.6832 51.9972C34.4433 51.9828 35.9932 51.9626 37.1124 51.9107M32.6832 51.9972C33.6133 51.989 34.575 52.0703 37.1124 51.9107M37.1124 51.9107C38.3449 52.0267 38.356 53.1067 39.3751 54.077M37.1124 51.9107C38.18 51.7799 38.6263 53.1214 39.3751 54.077M39.3751 54.077C39.0816 56.4632 39.745 59.1907 39.5238 61.6955M39.3751 54.077C39.4875 55.7351 39.3595 57.888 39.5238 61.6955M39.5238 61.6955C40.3501 64.0598 38.1099 64.0736 37.3476 63.9584M39.5238 61.6955C39.4379 63.9576 39.6671 63.9131 37.3476 63.9584M37.3476 63.9584C35.6898 64.0908 34.218 64.0095 32.9184 64.0449M37.3476 63.9584C36.4175 63.9666 35.4789 64.0449 32.9184 64.0449" stroke="#1E1E1E" stroke-linecap="round"/>
<path d="M40.7677 61.6712C39.8036 58.9095 41.3361 56.4591 40.619 54.0527C42.7717 54.6808 42.7542 50.2003 42.7954 51.7998C43.9466 51.3372 45.3201 51.5004 47.2246 51.7133C49.9456 51.7402 49.5776 50.8172 49.4873 53.8796C50.1647 55.7867 49.0996 60.1483 49.636 61.4981C50.3771 63.0839 50.0472 63.0904 47.4598 63.761C45.7662 63.594 44.3541 64.0117 43.0306 63.8475C42.2175 65.7437 40.08 61.7946 40.7677 61.6712Z" fill="white"/>
<path d="M40.7677 61.6712C41.0155 60.0161 40.4155 58.4875 40.619 54.0527M40.7677 61.6712C40.7619 58.8108 40.69 56.1517 40.619 54.0527M40.7677 61.6712C40.5094 62.7865 42.1182 63.7352 43.0306 63.8475M40.7677 61.6712C41.5748 63.5658 41.8308 63.8709 43.0306 63.8475M40.619 54.0527C40.1866 52.9109 41.8978 51.4172 42.7954 51.7998M40.619 54.0527C41.2508 52.6 40.8747 50.757 42.7954 51.7998M42.7954 51.7998C43.8356 51.7995 45.0885 51.935 47.2246 51.7133M42.7954 51.7998C43.697 51.8722 44.6553 51.7734 47.2246 51.7133M47.2246 51.7133C47.7239 52.1836 49.0967 52.3169 49.4873 53.8796M47.2246 51.7133C47.9842 52.1986 50.0434 52.1384 49.4873 53.8796M49.4873 53.8796C49.767 56.4246 49.5229 58.7798 49.636 61.4981M49.4873 53.8796C49.4414 56.651 49.7532 59.3054 49.636 61.4981M49.636 61.4981C48.9476 63.1218 48.8428 64.4141 47.4598 63.761M49.636 61.4981C50.5047 62.9614 48.097 63.0984 47.4598 63.761M47.4598 63.761C46.0998 63.7775 44.7136 63.9846 43.0306 63.8475M47.4598 63.761C46.4409 63.8309 45.2212 63.8547 43.0306 63.8475" stroke="#1E1E1E" stroke-linecap="round"/>
<path d="M51.0185 61.4712C51.7819 58.0556 51.8207 56.4546 50.8697 53.8526C52.2796 50.7545 52.8088 51.7344 53.0462 51.5997C54.0509 51.3201 55.4951 51.5219 57.4753 51.5133C59.074 49.8918 59.6358 51.001 59.7381 53.6795C59.3529 57.0077 60.1601 58.3922 59.8868 61.2981C61.0133 62.1362 57.7674 62.8897 57.7105 63.561C56.4952 63.8147 55.8493 64.0274 53.2814 63.6474C51.085 62.32 51.2356 64.3975 51.0185 61.4712Z" fill="white"/>
<path d="M51.0185 61.4712C50.6593 58.9577 50.6049 56.1682 50.8697 53.8526M51.0185 61.4712C51.0064 58.2908 50.8112 55.4641 50.8697 53.8526M51.0185 61.4712C51.2973 62.946 51.5145 63.3118 53.2814 63.6474M51.0185 61.4712C51.8452 62.8353 52.5699 64.0914 53.2814 63.6474M50.8697 53.8526C51.4329 51.9613 52.137 51.6475 53.0462 51.5997M50.8697 53.8526C50.4001 51.3113 51.5021 51.9199 53.0462 51.5997M53.0462 51.5997C54.2695 51.7559 55.7794 51.7364 57.4753 51.5133M53.0462 51.5997C54.2066 51.6071 55.3071 51.6256 57.4753 51.5133M57.4753 51.5133C58.5932 51.3914 59.0781 52.6622 59.7381 53.6795M57.4753 51.5133C59.5399 51.2129 59.9278 52.1255 59.7381 53.6795M59.7381 53.6795C59.7738 55.5092 60.1773 56.7115 59.8868 61.2981M59.7381 53.6795C59.9113 56.4067 59.6782 58.8117 59.8868 61.2981M59.8868 61.2981C59.8189 63.4598 59.9201 63.5178 57.7105 63.561M59.8868 61.2981C59.0731 62.1441 58.6074 63.3934 57.7105 63.561M57.7105 63.561C56.5842 63.763 55.4033 63.726 53.2814 63.6474M57.7105 63.561C56.1716 63.631 54.8407 63.597 53.2814 63.6474" stroke="#1E1E1E" stroke-linecap="round"/>
<path d="M61.5435 61.1272C62.2672 60.2829 61.9571 57.2084 61.3948 53.5086C62.6084 52.1447 63.9585 52.6484 63.5713 51.2557C65.0608 51.2166 66.0234 50.8278 68.0004 51.1693C69.4065 49.9316 72.1206 51.649 70.2631 53.3355C70.5381 56.1507 70.7369 58.6473 70.4118 60.9541C69.0179 61.7914 70.5023 65.0731 68.2356 63.217C67.2434 63.6264 65.7998 62.9445 63.8064 63.3034C62.505 64.7791 61.5505 64.5577 61.5435 61.1272Z" fill="white"/>
<path d="M61.5435 61.1272C61.2337 58.0626 61.824 55.0005 61.3948 53.5086M61.5435 61.1272C61.4034 58.5594 61.5393 55.7862 61.3948 53.5086M61.5435 61.1272C62.2495 62.9637 62.5667 63.3276 63.8064 63.3034M61.5435 61.1272C62.054 61.6573 63.1246 63.2167 63.8064 63.3034M61.3948 53.5086C61.9366 52.0578 61.7033 50.352 63.5713 51.2557M61.3948 53.5086C61.3118 52.33 61.9496 51.1874 63.5713 51.2557M63.5713 51.2557C64.5552 51.4466 65.3527 51.311 68.0004 51.1693M63.5713 51.2557C64.6221 51.2852 65.8506 51.2012 68.0004 51.1693M68.0004 51.1693C68.8489 51.5928 70.7399 51.6259 70.2631 53.3355M68.0004 51.1693C69.6985 51.0561 69.6147 52.9081 70.2631 53.3355M70.2631 53.3355C70.6648 55.9782 70.0807 58.8501 70.4118 60.9541M70.2631 53.3355C70.19 55.2273 70.3485 57.1946 70.4118 60.9541M70.4118 60.9541C71.1706 62.4195 68.9845 62.6422 68.2356 63.217M70.4118 60.9541C69.8479 62.2953 69.7037 63.6184 68.2356 63.217M68.2356 63.217C66.8778 63.3435 65.3744 63.1828 63.8064 63.3034M68.2356 63.217C66.7255 63.2264 65.0552 63.229 63.8064 63.3034" stroke="#1E1E1E" stroke-linecap="round"/>
</svg>
