<svg width="85" height="126" viewBox="0 0 85 126" fill="none" xmlns="http://www.w3.org/2000/svg">
<path d="M22.7764 1.72205C31.6264 -0.677954 41.8764 0.652046 63.1764 1.72205C77.3064 2.24205 83.9564 5.68205 83.3764 21.922C80.2264 46.892 82.6264 77.852 83.3764 103.472C84.6864 114.232 79.0964 123.812 63.1764 123.672C53.7764 125.912 43.6064 123.622 22.7764 123.672C7.29638 120.222 -0.233626 114.722 2.57637 103.472C3.36637 80.602 1.98637 64.162 2.57637 21.922C4.36637 9.86205 8.85637 -0.177954 22.7764 1.72205Z" fill="white"/>
<path d="M22.7764 1.72205C31.6864 0.912049 41.9964 3.41205 63.1764 1.72205M22.7764 1.72205C32.4464 2.22205 41.1664 1.33205 63.1764 1.72205M22.7764 1.72205C7.45638 1.36205 2.65638 9.43205 2.57638 21.922M22.7764 1.72205C10.5964 3.31205 1.83638 8.06205 2.57638 21.922M63.1764 1.72205C75.2164 -0.237952 81.8264 8.64205 83.3764 21.922M63.1764 1.72205C74.3964 1.35205 84.7764 6.73205 83.3764 21.922M83.3764 21.922C81.3964 44.202 84.3864 64.062 83.3764 103.472M83.3764 21.922C83.8664 53.082 83.1264 85.782 83.3764 103.472M83.3764 103.472C82.8164 116.702 77.3564 123.002 63.1764 123.672M83.3764 103.472C82.5664 119.012 74.7964 122.302 63.1764 123.672M63.1764 123.672C45.8064 124.682 30.6864 125.932 22.7764 123.672M63.1764 123.672C55.4764 123.872 45.9064 124.392 22.7764 123.672M22.7764 123.672C9.20638 124.062 3.44638 117.022 2.57638 103.472M22.7764 123.672C10.7764 125.252 1.22638 118.492 2.57638 103.472M2.57638 103.472C0.606381 79.572 2.13638 57.4121 2.57638 21.922M2.57638 103.472C2.61638 80.832 3.51638 60.222 2.57638 21.922" stroke="#1E1E1E" stroke-width="2" stroke-linecap="round"/>
<path d="M23.8512 1.54828C35.1612 1.54828 46.4712 1.54828 60.2412 1.54828C62.7212 1.54828 63.9712 2.78828 63.9712 5.27828C63.9712 6.94828 63.9712 8.62828 63.9712 12.7283C63.9712 15.2083 62.7212 16.4483 60.2412 16.4483C50.5712 16.4483 40.8912 16.4483 23.8512 16.4483C21.3612 16.4483 20.1212 15.2083 20.1212 12.7283C20.1212 10.2983 20.1212 7.86828 20.1212 5.27828C20.1212 2.78828 21.3612 1.54828 23.8512 1.54828Z" fill="white"/>
<path d="M23.8512 1.54828C31.2912 1.54828 38.7312 1.54828 60.2412 1.54828M23.8512 1.54828C32.1212 1.54828 40.3912 1.54828 60.2412 1.54828M23.8512 1.54828C21.3612 1.54828 20.1212 2.78828 20.1212 5.27828M60.2412 1.54828C62.7212 1.54828 63.9712 2.78828 63.9712 5.27828M63.9712 5.27828C63.9712 7.00828 63.9712 8.73828 63.9712 12.7283M63.9712 5.27828C63.9712 6.96828 63.9712 8.65828 63.9712 12.7283M63.9712 12.7283C63.9712 15.2083 62.7212 16.4483 60.2412 16.4483M60.2412 16.4483C46.5112 16.4483 32.7812 16.4483 23.8512 16.4483M60.2412 16.4483C49.4212 16.4483 38.6012 16.4483 23.8512 16.4483M23.8512 16.4483C21.3612 16.4483 20.1212 15.2083 20.1212 12.7283M20.1212 12.7283C20.1212 10.9883 20.1212 9.24828 20.1212 5.27828M20.1212 12.7283C20.1212 10.8283 20.1212 8.92828 20.1212 5.27828" stroke="#1E1E1E" stroke-width="2" stroke-linecap="round"/>
<path d="M26.2038 11.3003V6.53429H26.9361V11.3003H26.2038ZM26.5761 5.73996C26.4334 5.73996 26.3103 5.69134 26.2069 5.59412C26.1055 5.4969 26.0549 5.38002 26.0549 5.2435C26.0549 5.10697 26.1055 4.9901 26.2069 4.89287C26.3103 4.79565 26.4334 4.74704 26.5761 4.74704C26.7189 4.74704 26.8409 4.79565 26.9423 4.89287C27.0457 4.9901 27.0974 5.10697 27.0974 5.2435C27.0974 5.38002 27.0457 5.4969 26.9423 5.59412C26.8409 5.69134 26.7189 5.73996 26.5761 5.73996ZM29.0096 8.43324V11.3003H28.2773V6.53429H28.9847V7.27898H29.0468C29.1585 7.03695 29.3281 6.84251 29.5557 6.69564C29.7832 6.5467 30.0769 6.47223 30.4369 6.47223C30.7596 6.47223 31.0419 6.53843 31.284 6.67082C31.526 6.80114 31.7142 6.99972 31.8487 7.26657C31.9831 7.53134 32.0504 7.86645 32.0504 8.2719V11.3003H31.3181V8.32154C31.3181 7.94713 31.2209 7.65546 31.0264 7.44653C30.832 7.23554 30.5651 7.13004 30.2259 7.13004C29.9921 7.13004 29.7832 7.18072 29.5991 7.28208C29.4171 7.38344 29.2733 7.53134 29.1678 7.72579C29.0623 7.92024 29.0096 8.15605 29.0096 8.43324ZM35.4612 6.53429V7.15486H32.9913V6.53429H35.4612ZM33.7112 5.39244H34.4434V9.93503C34.4434 10.1419 34.4734 10.297 34.5334 10.4005C34.5955 10.5018 34.6741 10.5701 34.7693 10.6053C34.8665 10.6383 34.9689 10.6549 35.0764 10.6549C35.1571 10.6549 35.2233 10.6508 35.275 10.6425C35.3267 10.6321 35.3681 10.6239 35.3991 10.6177L35.5481 11.2755C35.4984 11.2941 35.4291 11.3127 35.3402 11.3313C35.2512 11.352 35.1385 11.3624 35.002 11.3624C34.7951 11.3624 34.5924 11.3179 34.3938 11.2289C34.1973 11.14 34.0339 11.0045 33.9036 10.8225C33.7753 10.6404 33.7112 10.4108 33.7112 10.1336V5.39244ZM38.5098 11.3996C38.0505 11.3996 37.6544 11.2982 37.3214 11.0955C36.9904 10.8907 36.7349 10.6053 36.555 10.2391C36.3771 9.87091 36.2881 9.44271 36.2881 8.95453C36.2881 8.46634 36.3771 8.03608 36.555 7.66373C36.7349 7.28932 36.9852 6.99765 37.3058 6.78872C37.6285 6.57773 38.005 6.47223 38.4353 6.47223C38.6835 6.47223 38.9286 6.5136 39.1707 6.59635C39.4127 6.67909 39.633 6.81355 39.8316 6.99972C40.0302 7.18382 40.1884 7.42792 40.3063 7.732C40.4242 8.03608 40.4832 8.41049 40.4832 8.85523V9.16552H36.8094V8.53254H39.7385C39.7385 8.26362 39.6847 8.02367 39.5771 7.81267C39.4716 7.60168 39.3206 7.43516 39.1241 7.31311C38.9297 7.19106 38.7001 7.13004 38.4353 7.13004C38.1436 7.13004 37.8913 7.20244 37.6782 7.34724C37.4672 7.48997 37.3048 7.67614 37.191 7.90576C37.0773 8.13537 37.0204 8.38153 37.0204 8.64424V9.06623C37.0204 9.42616 37.0824 9.73128 37.2066 9.98157C37.3327 10.2298 37.5075 10.4191 37.7309 10.5494C37.9543 10.6777 38.214 10.7418 38.5098 10.7418C38.7021 10.7418 38.8759 10.7149 39.031 10.6611C39.1883 10.6053 39.3237 10.5225 39.4375 10.4129C39.5513 10.3012 39.6392 10.1626 39.7013 9.99709L40.4087 10.1957C40.3342 10.4356 40.2091 10.6466 40.0333 10.8287C39.8574 11.0086 39.6402 11.1493 39.3817 11.2506C39.1231 11.3499 38.8325 11.3996 38.5098 11.3996ZM43.5209 13.1868C43.1672 13.1868 42.8631 13.1413 42.6086 13.0503C42.3542 12.9614 42.1422 12.8435 41.9726 12.6966C41.805 12.5518 41.6716 12.3966 41.5723 12.2312L42.1556 11.8216C42.2218 11.9085 42.3056 12.0077 42.407 12.1194C42.5083 12.2332 42.6469 12.3315 42.8227 12.4142C43.0006 12.499 43.2334 12.5414 43.5209 12.5414C43.9056 12.5414 44.2232 12.4484 44.4735 12.2622C44.7238 12.076 44.8489 11.7843 44.8489 11.3872V10.4191H44.7869C44.7331 10.506 44.6565 10.6135 44.5572 10.7418C44.46 10.868 44.3194 10.9807 44.1353 11.08C43.9532 11.1772 43.7071 11.2258 43.3968 11.2258C43.012 11.2258 42.6666 11.1348 42.3604 10.9528C42.0563 10.7707 41.8153 10.506 41.6374 10.1584C41.4616 9.81092 41.3737 9.38893 41.3737 8.89247C41.3737 8.40428 41.4595 7.97919 41.6312 7.61719C41.8029 7.25312 42.0419 6.97179 42.348 6.77321C42.6542 6.57256 43.0079 6.47223 43.4092 6.47223C43.7195 6.47223 43.9656 6.52395 44.1477 6.62738C44.3318 6.72874 44.4724 6.84458 44.5697 6.9749C44.6689 7.10315 44.7455 7.20865 44.7993 7.29139H44.8737V6.53429H45.5812V11.4368C45.5812 11.8464 45.4881 12.1794 45.3019 12.4359C45.1178 12.6945 44.8696 12.8838 44.5572 13.0038C44.247 13.1258 43.9015 13.1868 43.5209 13.1868ZM43.4961 10.568C43.7898 10.568 44.038 10.5008 44.2408 10.3663C44.4435 10.2319 44.5976 10.0385 44.7031 9.78609C44.8086 9.53373 44.8613 9.23172 44.8613 8.88006C44.8613 8.53667 44.8096 8.23363 44.7062 7.97092C44.6028 7.70821 44.4497 7.50238 44.247 7.35345C44.0442 7.20451 43.7939 7.13004 43.4961 7.13004C43.1858 7.13004 42.9272 7.20865 42.7203 7.36586C42.5156 7.52307 42.3614 7.73407 42.258 7.99884C42.1567 8.26362 42.106 8.55736 42.106 8.88006C42.106 9.21103 42.1577 9.50373 42.2611 9.75817C42.3666 10.0105 42.5218 10.2091 42.7266 10.3539C42.9334 10.4967 43.1899 10.568 43.4961 10.568ZM46.9216 11.3003V6.53429H47.6291V7.25416H47.6787C47.7656 7.01834 47.9228 6.82699 48.1504 6.68012C48.3779 6.53326 48.6344 6.45982 48.9199 6.45982C48.9737 6.45982 49.0409 6.46086 49.1216 6.46292C49.2022 6.46499 49.2633 6.4681 49.3046 6.47223V7.21692C49.2798 7.21071 49.2229 7.20141 49.134 7.18899C49.0471 7.17451 48.955 7.16727 48.8578 7.16727C48.6261 7.16727 48.4193 7.21589 48.2372 7.31311C48.0573 7.40826 47.9145 7.54065 47.809 7.71028C47.7056 7.87783 47.6539 8.06917 47.6539 8.28431V11.3003H46.9216ZM51.5752 11.412C51.2731 11.412 50.9991 11.3551 50.7529 11.2413C50.5067 11.1255 50.3112 10.959 50.1664 10.7418C50.0216 10.5225 49.9492 10.2577 49.9492 9.94744C49.9492 9.67439 50.003 9.45305 50.1106 9.28343C50.2182 9.11174 50.3619 8.97728 50.5419 8.88006C50.7219 8.78283 50.9204 8.71043 51.1376 8.66286C51.3569 8.61321 51.5772 8.57391 51.7986 8.54495C52.0882 8.50771 52.3229 8.47979 52.5029 8.46117C52.6849 8.44048 52.8173 8.40635 52.9001 8.35878C52.9849 8.3112 53.0273 8.22846 53.0273 8.11055V8.08572C53.0273 7.77957 52.9435 7.54169 52.776 7.37206C52.6105 7.20244 52.3591 7.11763 52.022 7.11763C51.6724 7.11763 51.3983 7.19417 51.1997 7.34724C51.0011 7.50032 50.8615 7.66373 50.7808 7.83749L50.0858 7.58926C50.2099 7.29966 50.3754 7.07419 50.5822 6.91284C50.7912 6.74942 51.0187 6.63565 51.2649 6.57152C51.5131 6.50533 51.7572 6.47223 51.9971 6.47223C52.1502 6.47223 52.326 6.49085 52.5246 6.52808C52.7253 6.56325 52.9187 6.63668 53.1049 6.74839C53.2931 6.86009 53.4493 7.02868 53.5734 7.25416C53.6975 7.47963 53.7596 7.78164 53.7596 8.16019V11.3003H53.0273V10.6549H52.9901C52.9404 10.7583 52.8577 10.869 52.7418 10.9869C52.626 11.1048 52.4719 11.2051 52.2795 11.2879C52.0871 11.3706 51.8523 11.412 51.5752 11.412ZM51.6869 10.7542C51.9765 10.7542 52.2205 10.6973 52.4191 10.5835C52.6198 10.4698 52.7708 10.3229 52.8721 10.1429C52.9756 9.96296 53.0273 9.77368 53.0273 9.5751V8.90488C52.9963 8.94211 52.928 8.97625 52.8225 9.00727C52.7191 9.03623 52.5991 9.06209 52.4626 9.08485C52.3281 9.10553 52.1968 9.12415 52.0685 9.1407C51.9423 9.15518 51.8399 9.16759 51.7613 9.17793C51.571 9.20276 51.3931 9.24309 51.2276 9.29894C51.0642 9.35273 50.9318 9.43444 50.8305 9.54407C50.7312 9.65164 50.6815 9.79851 50.6815 9.98468C50.6815 10.2391 50.7756 10.4315 50.9639 10.5618C51.1542 10.6901 51.3952 10.7542 51.6869 10.7542ZM55.8284 4.94562V11.3003H55.0961V4.94562H55.8284Z" fill="#1E1E1E"/>
<path d="M11.139 89.884C22.129 89.884 66.109 89.884 77.099 89.884" stroke="#1E1E1E" stroke-width="2" stroke-linecap="round"/>
<path d="M29.1183 36.6261C27.9778 36.2283 23.7501 28.092 22.3485 33.7338C20.9368 39.3747 21.9114 64.9284 20.6777 70.484C19.443 76.0496 15.9182 67.6719 14.945 67.0775M28.5659 36.1577C27.3173 35.8512 22.881 28.3997 21.7474 34.1947C20.6146 39.9796 22.9207 65.3351 21.7658 70.9075C20.6018 76.469 15.8311 68.2265 14.7906 67.5963" stroke="#1E1E1E" stroke-width="2" stroke-linecap="round"/>
<path d="M35.1835 53.6942V54.5358H31.6992V53.6942H35.1835ZM32.7428 60.1578V52.8021C32.7428 52.4317 32.8298 52.1232 33.0037 51.8763C33.1777 51.6294 33.4035 51.4442 33.6812 51.3208C33.959 51.1974 34.2521 51.1357 34.5607 51.1357C34.8048 51.1357 35.004 51.1553 35.1583 51.1946C35.3126 51.2338 35.4276 51.2703 35.5034 51.304L35.2172 52.1624C35.1667 52.1456 35.0966 52.1246 35.0068 52.0993C34.9198 52.0741 34.8048 52.0614 34.6617 52.0614C34.3335 52.0614 34.0964 52.1442 33.9506 52.3097C33.8075 52.4752 33.7359 52.7179 33.7359 53.0377V60.1578H32.7428ZM36.9289 56.522C36.9289 55.4616 37.0663 54.4867 37.3412 53.5974C37.619 52.7053 38.0145 51.8847 38.5279 51.1357H39.4032C39.2012 51.4134 39.0119 51.7556 38.8351 52.1624C38.6612 52.5664 38.5083 53.0111 38.3764 53.4964C38.2446 53.9789 38.1408 54.4783 38.065 54.9945C37.9921 55.5107 37.9556 56.0199 37.9556 56.522C37.9556 57.1897 38.0202 57.8672 38.1492 58.5545C38.2783 59.2419 38.4522 59.8801 38.671 60.4692C38.8898 61.0584 39.1339 61.5381 39.4032 61.9084H38.5279C38.0145 61.1594 37.619 60.3402 37.3412 59.4509C37.0663 58.5588 36.9289 57.5825 36.9289 56.522ZM49.6552 56.522C49.6552 57.5825 49.5164 58.5588 49.2386 59.4509C48.9637 60.3402 48.5695 61.1594 48.0561 61.9084H47.1809C47.3828 61.6307 47.5708 61.2884 47.7447 60.8816C47.9215 60.4777 48.0758 60.0344 48.2076 59.5519C48.3395 59.0665 48.4419 58.5658 48.5148 58.0496C48.5906 57.5306 48.6284 57.0214 48.6284 56.522C48.6284 55.8543 48.5639 55.1768 48.4349 54.4895C48.3058 53.8022 48.1319 53.164 47.9131 52.5748C47.6942 51.9857 47.4502 51.506 47.1809 51.1357H48.0561C48.5695 51.8847 48.9637 52.7053 49.2386 53.5974C49.5164 54.4867 49.6552 55.4616 49.6552 56.522ZM57.6012 60.2925C57.0626 60.2925 56.587 60.1564 56.1746 59.8843C55.7622 59.6094 55.4396 59.2222 55.2068 58.7229C54.9739 58.2207 54.8575 57.6274 54.8575 56.9428C54.8575 56.2639 54.9739 55.6748 55.2068 55.1754C55.4396 54.6761 55.7636 54.2903 56.1788 54.0182C56.594 53.7461 57.0738 53.61 57.618 53.61C58.0388 53.61 58.3713 53.6802 58.6153 53.8204C58.8622 53.9579 59.0502 54.115 59.1792 54.2917C59.3111 54.4657 59.4135 54.6087 59.4864 54.721H59.5706V51.5396H60.5637V60.1578H59.6042V59.1647H59.4864C59.4135 59.2826 59.3097 59.4312 59.175 59.6108C59.0404 59.7875 58.8482 59.946 58.5985 60.0863C58.3488 60.2238 58.0164 60.2925 57.6012 60.2925ZM57.7358 59.4004C58.1342 59.4004 58.4709 59.2966 58.7458 59.089C59.0207 58.8786 59.2297 58.5882 59.3728 58.2179C59.5159 57.8448 59.5874 57.4141 59.5874 56.926C59.5874 56.4435 59.5173 56.0213 59.377 55.6594C59.2367 55.2947 59.0291 55.0113 58.7542 54.8093C58.4793 54.6045 58.1398 54.5021 57.7358 54.5021C57.315 54.5021 56.9644 54.6101 56.6838 54.8262C56.4061 55.0394 56.1971 55.3297 56.0568 55.6972C55.9193 56.0619 55.8506 56.4715 55.8506 56.926C55.8506 57.3861 55.9208 57.8041 56.061 58.18C56.2041 58.5531 56.4145 58.8505 56.6922 59.0721C56.9728 59.291 57.3206 59.4004 57.7358 59.4004ZM63.2611 53.6942L64.8097 56.3369L66.3583 53.6942H67.5029L65.4156 56.926L67.5029 60.1578H66.3583L64.8097 57.6498L63.2611 60.1578H62.1165L64.17 56.926L62.1165 53.6942H63.2611Z" fill="#1E1E1E"/>
<path d="M45.6643 53.0242C46.1343 53.0342 47.0944 53.1542 48.2544 53.0242C47.4244 54.5642 49.6443 52.9742 49.5543 54.3142C49.9743 55.9942 49.5643 56.2542 49.5543 59.9642C47.3843 59.0542 47.7244 60.1142 48.2544 61.2542C47.1144 61.2942 46.4843 61.4142 45.6643 61.2542C45.6843 60.9742 43.1843 60.6842 44.3743 59.9642C44.1743 57.6242 44.0043 55.7742 44.3743 54.3142C43.6243 52.4742 44.9643 52.0442 45.6643 53.0242Z" fill="white"/>
<path d="M45.6643 53.0242C46.2443 52.9642 46.9943 52.9442 48.2543 53.0242M45.6643 53.0242C46.3843 52.9942 47.1143 53.0042 48.2543 53.0242M45.6643 53.0242C44.6243 53.1442 43.9443 53.4342 44.3743 54.3142M45.6643 53.0242C44.2143 53.3142 44.4843 53.5842 44.3743 54.3142M48.2543 53.0242C49.6343 53.5942 49.7743 54.0642 49.5543 54.3142M48.2543 53.0242C48.7143 52.4642 50.2643 52.9242 49.5543 54.3142M49.5543 54.3142C49.5343 56.1842 49.4943 57.8542 49.5543 59.9642M49.5543 54.3142C49.6343 56.5742 49.6143 58.6642 49.5543 59.9642M49.5543 59.9642C49.7843 60.7542 49.7743 60.6142 48.2543 61.2542M49.5543 59.9642C49.2843 60.8042 49.5143 61.4142 48.2543 61.2542M48.2543 61.2542C47.7143 61.2942 47.1443 61.3142 45.6643 61.2542M48.2543 61.2542C47.2943 61.2942 46.3143 61.2342 45.6643 61.2542M45.6643 61.2542C44.4343 61.3242 44.2143 60.6142 44.3743 59.9642M45.6643 61.2542C44.3743 60.9042 44.0543 60.2442 44.3743 59.9642M44.3743 59.9642C44.4543 57.8242 44.3343 55.9742 44.3743 54.3142M44.3743 59.9642C44.3043 58.4242 44.3743 56.7542 44.3743 54.3142" stroke="#1E1E1E" stroke-linecap="round"/>
</svg>
