<svg width="86" height="126" viewBox="0 0 86 126" fill="none" xmlns="http://www.w3.org/2000/svg">
<path d="M23.3057 1.87769C37.6157 3.79769 53.3057 3.22769 63.7057 1.87769C77.5757 2.55769 80.8157 9.88769 83.9057 22.0777C86.5757 44.3977 85.6057 69.7177 83.9057 103.628C82.3157 120.368 80.5057 121.348 63.7057 123.828C55.8357 121.508 44.2857 121.188 23.3057 123.828C8.54567 125.248 -0.244329 114.558 3.10567 103.628C-1.55433 79.1077 1.90567 51.1377 3.10567 22.0777C5.71567 10.4077 9.01567 1.40769 23.3057 1.87769Z" fill="white"/>
<path d="M23.3057 1.87769C38.0057 2.86769 50.3057 2.81769 63.7057 1.87769M23.3057 1.87769C35.0457 2.46769 47.5257 1.33769 63.7057 1.87769M23.3057 1.87769C11.1957 2.01769 4.51567 8.58769 3.10567 22.0777M23.3057 1.87769C11.0857 3.92769 3.12567 8.49769 3.10567 22.0777M63.7057 1.87769C76.7957 0.917693 85.5257 9.69769 83.9057 22.0777M63.7057 1.87769C75.7157 2.36769 82.2457 7.18769 83.9057 22.0777M83.9057 22.0777C84.8357 49.8977 83.1257 75.2177 83.9057 103.628M83.9057 22.0777C84.3957 50.7277 84.8057 78.8377 83.9057 103.628M83.9057 103.628C83.9557 118.078 76.0657 125.238 63.7057 123.828M83.9057 103.628C84.4057 116.918 76.9357 122.058 63.7057 123.828M63.7057 123.828C51.6657 124.598 41.8857 123.788 23.3057 123.828M63.7057 123.828C54.7857 122.918 44.7657 124.058 23.3057 123.828M23.3057 123.828C8.38567 122.178 1.88567 116.438 3.10567 103.628M23.3057 123.828C12.0157 125.128 2.75567 117.268 3.10567 103.628M3.10567 103.628C3.25567 74.7077 2.04567 47.8577 3.10567 22.0777M3.10567 103.628C2.04567 77.5177 1.63567 50.2777 3.10567 22.0777" stroke="#1E1E1E" stroke-width="2" stroke-linecap="round"/>
<path d="M11.9209 90.1003C22.9109 90.1003 66.8909 90.1003 77.8809 90.1003" stroke="#1E1E1E" stroke-width="2" stroke-linecap="round"/>
<path d="M24.6332 1.76453C37.6232 1.76453 50.6232 1.76453 61.0232 1.76453C63.5032 1.76453 64.7532 3.00453 64.7532 5.49453C64.7532 7.74453 64.7532 9.99453 64.7532 12.9445C64.7532 15.4245 63.5032 16.6645 61.0232 16.6645C52.2532 16.6645 43.4732 16.6645 24.6332 16.6645C22.1432 16.6645 20.9032 15.4245 20.9032 12.9445C20.9032 10.4745 20.9032 8.00453 20.9032 5.49453C20.9032 3.00453 22.1432 1.76453 24.6332 1.76453Z" fill="white"/>
<path d="M24.6332 1.76453C37.1832 1.76453 49.7332 1.76453 61.0232 1.76453M24.6332 1.76453C36.7032 1.76453 48.7832 1.76453 61.0232 1.76453M24.6332 1.76453C22.1432 1.76453 20.9032 3.00453 20.9032 5.49453M61.0232 1.76453C63.5032 1.76453 64.7532 3.00453 64.7532 5.49453M64.7532 5.49453C64.7532 8.22453 64.7532 10.9645 64.7532 12.9445M64.7532 5.49453C64.7532 8.23453 64.7532 10.9845 64.7532 12.9445M64.7532 12.9445C64.7532 15.4245 63.5032 16.6645 61.0232 16.6645M61.0232 16.6645C49.4032 16.6645 37.7732 16.6645 24.6332 16.6645M61.0232 16.6645C53.5232 16.6645 46.0232 16.6645 24.6332 16.6645M24.6332 16.6645C22.1432 16.6645 20.9032 15.4245 20.9032 12.9445M20.9032 12.9445C20.9032 10.9545 20.9032 8.95453 20.9032 5.49453M20.9032 12.9445C20.9032 10.4645 20.9032 7.99453 20.9032 5.49453" stroke="#1E1E1E" stroke-width="2" stroke-linecap="round"/>
<path d="M29.1554 10.9735V6.20751H29.8629V6.92737H29.9125C29.9994 6.69156 30.1566 6.50021 30.3842 6.35334C30.6117 6.20647 30.8682 6.13304 31.1537 6.13304C31.2075 6.13304 31.2747 6.13407 31.3554 6.13614C31.436 6.13821 31.4971 6.14131 31.5384 6.14545V6.89014C31.5136 6.88393 31.4567 6.87462 31.3678 6.86221C31.2809 6.84773 31.1888 6.84049 31.0916 6.84049C30.8599 6.84049 30.6531 6.8891 30.471 6.98633C30.2911 7.08148 30.1484 7.21387 30.0429 7.38349C29.9394 7.55105 29.8877 7.74239 29.8877 7.95752V10.9735H29.1554ZM34.2596 11.0728C33.8004 11.0728 33.4043 10.9714 33.0713 10.7687C32.7403 10.5639 32.4848 10.2785 32.3048 9.91233C32.1269 9.54412 32.038 9.11593 32.038 8.62774C32.038 8.13956 32.1269 7.7093 32.3048 7.33695C32.4848 6.96254 32.7351 6.67087 33.0557 6.46194C33.3784 6.25095 33.7549 6.14545 34.1852 6.14545C34.4334 6.14545 34.6785 6.18682 34.9206 6.26956C35.1626 6.35231 35.3829 6.48677 35.5815 6.67294C35.7801 6.85704 35.9383 7.10113 36.0562 7.40521C36.1741 7.7093 36.2331 8.08371 36.2331 8.52845V8.83874H32.5593V8.20575H35.4884C35.4884 7.93684 35.4346 7.69688 35.327 7.48589C35.2215 7.27489 35.0705 7.10837 34.874 6.98633C34.6796 6.86428 34.45 6.80326 34.1852 6.80326C33.8935 6.80326 33.6411 6.87566 33.4281 7.02046C33.2171 7.16319 33.0547 7.34936 32.9409 7.57897C32.8272 7.80859 32.7703 8.05475 32.7703 8.31746V8.73945C32.7703 9.09938 32.8323 9.40449 32.9564 9.65479C33.0826 9.90302 33.2574 10.0923 33.4808 10.2226C33.7042 10.3509 33.9638 10.415 34.2596 10.415C34.452 10.415 34.6258 10.3881 34.7809 10.3343C34.9381 10.2785 35.0736 10.1957 35.1874 10.0861C35.3012 9.97439 35.3891 9.83579 35.4511 9.67031L36.1586 9.86889C36.0841 10.1088 35.959 10.3198 35.7832 10.5019C35.6073 10.6818 35.3901 10.8225 35.1316 10.9239C34.873 11.0232 34.5823 11.0728 34.2596 11.0728ZM39.4197 6.20751V6.82808H36.9498V6.20751H39.4197ZM37.6697 5.06565H38.402V9.60825C38.402 9.81511 38.432 9.97025 38.492 10.0737C38.554 10.175 38.6326 10.2433 38.7278 10.2785C38.825 10.3116 38.9274 10.3281 39.035 10.3281C39.1156 10.3281 39.1818 10.324 39.2335 10.3157C39.2853 10.3054 39.3266 10.2971 39.3577 10.2909L39.5066 10.9487C39.457 10.9673 39.3877 10.9859 39.2987 11.0045C39.2098 11.0252 39.097 11.0356 38.9605 11.0356C38.7536 11.0356 38.5509 10.9911 38.3523 10.9021C38.1558 10.8132 37.9924 10.6777 37.8621 10.4957C37.7338 10.3136 37.6697 10.084 37.6697 9.80683V5.06565ZM43.5248 9.02491V6.20751H44.2571V10.9735H43.5248V10.1668H43.4752C43.3635 10.4088 43.1897 10.6146 42.9539 10.7842C42.7181 10.9518 42.4202 11.0356 42.0603 11.0356C41.7624 11.0356 41.4976 10.9704 41.2659 10.8401C41.0342 10.7077 40.8522 10.5091 40.7198 10.2443C40.5874 9.97749 40.5212 9.64135 40.5212 9.23591V6.20751H41.2535V9.18626C41.2535 9.53378 41.3507 9.81097 41.5452 10.0178C41.7417 10.2247 41.992 10.3281 42.2961 10.3281C42.4781 10.3281 42.6632 10.2816 42.8515 10.1885C43.0418 10.0954 43.2011 9.95267 43.3293 9.76029C43.4596 9.56791 43.5248 9.32279 43.5248 9.02491ZM45.5983 10.9735V6.20751H46.3058V6.92737H46.3554C46.4423 6.69156 46.5995 6.50021 46.827 6.35334C47.0546 6.20647 47.3111 6.13304 47.5965 6.13304C47.6503 6.13304 47.7176 6.13407 47.7982 6.13614C47.8789 6.13821 47.9399 6.14131 47.9813 6.14545V6.89014C47.9565 6.88393 47.8996 6.87462 47.8106 6.86221C47.7238 6.84773 47.6317 6.84049 47.5345 6.84049C47.3028 6.84049 47.0959 6.8891 46.9139 6.98633C46.7339 7.08148 46.5912 7.21387 46.4857 7.38349C46.3823 7.55105 46.3306 7.74239 46.3306 7.95752V10.9735H45.5983ZM49.5816 8.10646V10.9735H48.8493V6.20751H49.5568V6.9522H49.6188C49.7305 6.71017 49.9002 6.51573 50.1277 6.36886C50.3553 6.21992 50.649 6.14545 51.0089 6.14545C51.3316 6.14545 51.614 6.21165 51.856 6.34403C52.098 6.47435 52.2863 6.67294 52.4207 6.93978C52.5552 7.20456 52.6224 7.53967 52.6224 7.94511V10.9735H51.8901V7.99476C51.8901 7.62035 51.7929 7.32868 51.5985 7.11975C51.404 6.90876 51.1372 6.80326 50.7979 6.80326C50.5642 6.80326 50.3553 6.85394 50.1711 6.9553C49.9891 7.05666 49.8453 7.20456 49.7398 7.39901C49.6344 7.59345 49.5816 7.82927 49.5816 8.10646Z" fill="#1E1E1E"/>
<path d="M31.0139 82.7468C34.2239 80.1468 50.3139 71.1268 51.0839 65.9168C51.8539 60.7068 32.3639 58.3668 35.6339 51.4868C38.9039 44.6068 65.1439 29.1668 70.7039 24.6268M33.0139 81.9068C36.0439 79.4868 49.9239 71.8368 50.2139 66.9368C50.5039 62.0368 31.2139 59.9268 34.7539 52.5068C38.2939 45.0868 65.4639 27.0368 71.4639 22.4168" stroke="#1E1E1E" stroke-width="2" stroke-linecap="round"/>
<path d="M59.0838 40.6068C63.9838 34.8068 65.8338 28.1168 71.4638 22.4168ZM59.0838 40.6068C61.4238 36.1668 64.4438 30.7568 71.4638 22.4168Z" stroke="#1E1E1E" stroke-width="2" stroke-linecap="round"/>
<path d="M50.2838 28.3968C58.0338 26.6968 62.8338 24.0868 71.4638 22.4168ZM50.2838 28.3968C54.9338 26.9868 60.1838 24.6468 71.4638 22.4168Z" stroke="#1E1E1E" stroke-width="2" stroke-linecap="round"/>
<path d="M57.2354 80.7809C53.9354 78.1709 37.5954 71.1409 36.9254 66.4909C36.2554 61.8409 55.8354 59.8409 53.2154 52.8909C50.5854 45.9509 26.5554 29.6609 21.1954 24.8209M55.8554 82.8809C52.4054 80.3909 36.3454 73.0609 35.8654 67.7209C35.3754 62.3909 55.4254 57.8409 52.9554 50.8909C50.4854 43.9509 26.0654 30.5709 21.0454 26.0609" stroke="#1E1E1E" stroke-width="2" stroke-linecap="round"/>
<path d="M40.8654 31.3509C33.8754 29.5809 29.2254 30.1509 21.0454 26.0609ZM40.8654 31.3509C33.1454 28.9009 27.0854 28.6009 21.0454 26.0609Z" stroke="#1E1E1E" stroke-width="2" stroke-linecap="round"/>
<path d="M32.8254 42.8509C27.9654 37.9809 25.4754 35.4609 21.0454 26.0609ZM32.8254 42.8509C28.0354 36.3009 24.8254 31.9209 21.0454 26.0609Z" stroke="#1E1E1E" stroke-width="2" stroke-linecap="round"/>
</svg>
