<svg width="86" height="126" viewBox="0 0 86 126" fill="none" xmlns="http://www.w3.org/2000/svg">
<path d="M23.6638 1.66107C32.7538 1.38107 48.3938 -1.17893 64.0638 1.66107C78.3238 2.82107 80.8538 9.09107 84.2638 21.8611C84.4738 41.4411 83.5538 54.4011 84.2638 103.411C81.1038 115.381 76.7538 126.461 64.0638 123.611C51.6338 120.671 37.4538 123.711 23.6638 123.611C7.19378 127.021 0.703773 113.761 3.46377 103.411C-0.896227 84.7011 0.983773 57.1911 3.46377 21.8611C5.27377 9.13107 11.0638 1.79107 23.6638 1.66107Z" fill="white"/>
<path d="M23.6638 1.66106C34.1238 3.71106 41.7738 2.13106 64.0638 1.66106M23.6638 1.66106C36.7238 2.27106 49.9038 2.37106 64.0638 1.66106M23.6638 1.66106C9.06378 3.54106 2.70377 7.57106 3.46377 21.8611M23.6638 1.66106C9.77378 1.77106 2.93377 8.72106 3.46377 21.8611M64.0638 1.66106C79.0838 0.531062 83.3938 7.27106 84.2638 21.8611M64.0638 1.66106C77.4938 2.32106 84.3838 7.37106 84.2638 21.8611M84.2638 21.8611C85.0838 54.3911 83.3238 84.3211 84.2638 103.411M84.2638 21.8611C84.6538 40.8811 83.7938 60.6811 84.2638 103.411M84.2638 103.411C83.6538 117.551 75.9538 123.401 64.0638 123.611M84.2638 103.411C85.1838 118.561 76.1538 124.251 64.0638 123.611M64.0638 123.611C56.6038 123.301 46.9638 125.201 23.6638 123.611M64.0638 123.611C54.9838 123.701 46.2238 122.701 23.6638 123.611M23.6638 123.611C10.3238 121.961 3.13377 116.011 3.46377 103.411M23.6638 123.611C9.57378 124.951 4.88377 117.841 3.46377 103.411M3.46377 103.411C3.55377 72.7411 1.37377 39.3411 3.46377 21.8611M3.46377 103.411C3.50377 78.8411 2.11377 54.3911 3.46377 21.8611" stroke="#1E1E1E" stroke-width="2" stroke-linecap="round"/>
<path d="M23.0825 2.29474C31.9225 2.29474 40.7525 2.29474 59.7925 2.29474M23.0825 2.29474C32.0025 2.29474 40.9225 2.29474 59.7925 2.29474M23.0825 2.29474C20.7125 2.29474 19.5325 3.47474 19.5325 5.84474M59.7925 2.29474C62.1525 2.29474 63.3425 3.47474 63.3425 5.84474M63.3425 5.84474C63.3425 7.74474 63.3425 9.63474 63.3425 12.9547M63.3425 5.84474C63.3425 7.65474 63.3425 9.46474 63.3425 12.9547M63.3425 12.9547C63.3425 15.3247 62.1525 16.5047 59.7925 16.5047M59.7925 16.5047C49.4925 16.5047 39.2025 16.5047 23.0825 16.5047M59.7925 16.5047C51.9125 16.5047 44.0325 16.5047 23.0825 16.5047M23.0825 16.5047C20.7125 16.5047 19.5325 15.3247 19.5325 12.9547M19.5325 12.9547C19.5325 10.7247 19.5325 8.50474 19.5325 5.84474M19.5325 12.9547C19.5325 11.4347 19.5325 9.91474 19.5325 5.84474" stroke="#1E1E1E" stroke-width="2" stroke-linecap="round"/>
<path d="M36.4562 7.30516V10.1722H35.7239V5.40621H36.4314V6.1509H36.4934C36.6051 5.90887 36.7748 5.71443 37.0023 5.56756C37.2299 5.41862 37.5236 5.34415 37.8835 5.34415C38.2062 5.34415 38.4886 5.41035 38.7306 5.54273C38.9726 5.67305 39.1609 5.87164 39.2953 6.13848C39.4298 6.40326 39.497 6.73837 39.497 7.14381V10.1722H38.7647V7.19346C38.7647 6.81905 38.6675 6.52738 38.4731 6.31845C38.2786 6.10746 38.0118 6.00196 37.6725 6.00196C37.4388 6.00196 37.2299 6.05264 37.0458 6.154C36.8637 6.25536 36.72 6.40326 36.6145 6.59771C36.509 6.79215 36.4562 7.02797 36.4562 7.30516ZM42.7713 10.2715C42.3411 10.2715 41.9635 10.1691 41.6388 9.96432C41.3161 9.75953 41.0637 9.47303 40.8817 9.10482C40.7017 8.73662 40.6117 8.30635 40.6117 7.81403C40.6117 7.31757 40.7017 6.88421 40.8817 6.51393C41.0637 6.14366 41.3161 5.85612 41.6388 5.65133C41.9635 5.44655 42.3411 5.34415 42.7713 5.34415C43.2016 5.34415 43.5781 5.44655 43.9008 5.65133C44.2255 5.85612 44.4779 6.14366 44.6579 6.51393C44.8399 6.88421 44.9309 7.31757 44.9309 7.81403C44.9309 8.30635 44.8399 8.73662 44.6579 9.10482C44.4779 9.47303 44.2255 9.75953 43.9008 9.96432C43.5781 10.1691 43.2016 10.2715 42.7713 10.2715ZM42.7713 9.61369C43.0982 9.61369 43.3671 9.52992 43.5781 9.36236C43.7891 9.19481 43.9452 8.9745 44.0466 8.70145C44.148 8.4284 44.1986 8.13259 44.1986 7.81403C44.1986 7.49547 44.148 7.19863 44.0466 6.92351C43.9452 6.64839 43.7891 6.42602 43.5781 6.25639C43.3671 6.08677 43.0982 6.00196 42.7713 6.00196C42.4445 6.00196 42.1756 6.08677 41.9646 6.25639C41.7536 6.42602 41.5974 6.64839 41.496 6.92351C41.3947 7.19863 41.344 7.49547 41.344 7.81403C41.344 8.13259 41.3947 8.4284 41.496 8.70145C41.5974 8.9745 41.7536 9.19481 41.9646 9.36236C42.1756 9.52992 42.4445 9.61369 42.7713 9.61369ZM48.1214 5.40621V6.02678H45.6516V5.40621H48.1214ZM46.3714 4.26435H47.1037V8.80695C47.1037 9.01381 47.1337 9.16895 47.1937 9.27238C47.2557 9.37374 47.3343 9.442 47.4295 9.47717C47.5267 9.51027 47.6291 9.52681 47.7367 9.52681C47.8174 9.52681 47.8835 9.52268 47.9353 9.5144C47.987 9.50406 48.0283 9.49579 48.0594 9.48958L48.2083 10.1474C48.1587 10.166 48.0894 10.1846 48.0004 10.2032C47.9115 10.2239 47.7987 10.2343 47.6622 10.2343C47.4554 10.2343 47.2526 10.1898 47.054 10.1008C46.8575 10.0119 46.6941 9.8764 46.5638 9.69437C46.4355 9.51233 46.3714 9.28272 46.3714 9.00553V4.26435Z" fill="#1E1E1E"/>
<path d="M11.4426 90.3173C22.4326 90.3173 66.4126 90.3173 77.4026 90.3173" stroke="#1E1E1E" stroke-width="2" stroke-linecap="round"/>
<path d="M35.7689 101.859C36.1289 101.489 37.5689 99.9895 37.9289 99.6095" stroke="#1E1E1E" stroke-linecap="round"/>
<path d="M37.9244 99.5692C38.3244 99.8992 39.9044 101.219 40.3044 101.549" stroke="#1E1E1E" stroke-linecap="round"/>
<path d="M40.3942 101.815C39.7042 102.875 36.9542 107.125 36.2642 108.195" stroke="#1E1E1E" stroke-linecap="round"/>
<path d="M35.8362 101.859C35.4762 101.489 34.0362 99.9895 33.6762 99.6095" stroke="#1E1E1E" stroke-linecap="round"/>
<path d="M33.6807 99.5692C33.2807 99.8992 31.7007 101.219 31.3007 101.549" stroke="#1E1E1E" stroke-linecap="round"/>
<path d="M31.2109 101.815C31.9009 102.875 34.6509 107.125 35.3409 108.195" stroke="#1E1E1E" stroke-linecap="round"/>
<path d="M35.0488 98.3436C36.0788 98.1536 37.7288 98.7336 38.6888 99.2836C39.6388 99.8336 40.5088 100.584 40.7788 101.674C41.0588 102.754 40.7788 104.694 40.3588 105.794C39.9388 106.884 39.1988 107.634 38.2588 108.234C37.3188 108.844 35.9488 109.564 34.7288 109.424C33.5188 109.274 31.7788 108.354 30.9588 107.374C30.1388 106.384 29.5888 104.664 29.7888 103.494C29.9888 102.314 31.1988 101.174 32.1588 100.324C33.1088 99.4736 35.0188 98.7836 35.5188 98.4036C36.0188 98.0336 35.2388 98.0036 35.1488 98.0736M36.9488 98.6036C37.9288 98.7836 38.6988 99.5136 39.4188 100.314C40.1388 101.104 41.0588 102.284 41.2488 103.384C41.4488 104.494 41.4788 105.994 40.5888 106.934C39.7088 107.884 37.0988 108.804 35.9288 109.044C34.7588 109.274 34.5788 108.834 33.5788 108.364C32.5688 107.894 30.4488 107.404 29.9188 106.214C29.3888 105.014 29.7988 102.354 30.3988 101.184C30.9988 100.024 32.3988 99.6536 33.4988 99.2136C34.5988 98.7636 36.5388 98.7436 37.0188 98.5236C37.4988 98.2936 36.3288 97.8636 36.3988 97.8536" fill="white"/>
<path d="M36.4188 98.7036C37.5288 98.8236 38.9788 99.5736 39.7588 100.374C40.5388 101.164 41.0488 102.334 41.0888 103.484C41.1288 104.634 40.7188 106.374 40.0188 107.284C39.3088 108.184 38.0388 108.644 36.8588 108.904C35.6788 109.164 33.9188 109.404 32.9288 108.824C31.9488 108.254 31.3088 106.654 30.9488 105.434C30.5788 104.224 30.4188 102.634 30.7388 101.564C31.0588 100.494 31.7488 99.5236 32.8388 99.0136C33.9388 98.4936 36.5588 98.4436 37.2988 98.4636C38.0388 98.4736 37.4188 98.9836 37.2888 99.1036M35.1688 98.0836C36.2288 97.6236 37.4388 97.8336 38.3688 98.4036C39.2888 98.9636 40.3188 100.214 40.7188 101.474C41.1288 102.744 41.0488 104.764 40.7888 105.994C40.5288 107.224 39.9888 108.214 39.1488 108.844C38.3088 109.474 36.9588 109.974 35.7288 109.804C34.4988 109.624 32.5888 108.854 31.7788 107.804C30.9688 106.754 30.8888 104.724 30.8588 103.504C30.8188 102.284 30.8688 101.424 31.5688 100.484C32.2688 99.5436 34.4788 98.2336 35.0588 97.8636C35.6388 97.4936 35.1888 98.1636 35.0288 98.2536" stroke="#1E1E1E" stroke-linecap="round"/>
<path d="M35.8692 103.972C35.8992 103.222 35.6492 100.462 35.6292 99.7722M35.5792 103.592C35.5692 102.872 35.3692 100.682 35.3692 100.112" stroke="#1E1E1E" stroke-width="0.5" stroke-linecap="round"/>
<path d="M39.0545 105.158C38.4945 104.868 36.4645 103.778 35.9145 103.518M38.6445 105.808C38.0345 105.578 36.2445 104.198 35.7245 103.878" stroke="#1E1E1E" stroke-width="0.5" stroke-linecap="round"/>
<path d="M29.1641 63.7349C31.4365 57.5244 40.4481 32.5416 42.6102 26.3596M28.6201 64.7878C30.8111 58.6862 39.7492 33.2124 42.1723 26.9539" stroke="#1E1E1E" stroke-linecap="round"/>
<path d="M43.0096 26.1449C45.3849 32.5569 55.2478 58.0797 57.8229 64.5144M41.5764 24.8658C44.258 31.5619 57.3144 59.8673 59.9812 66.1631" stroke="#1E1E1E" stroke-linecap="round"/>
<path d="M58.7639 64.8347C53.6096 65.1265 33.4347 66.1195 28.3116 66.3217M59.5297 64.4048C54.2974 64.5456 32.8685 65.0719 27.8031 65.4449" stroke="#1E1E1E" stroke-linecap="round"/>
<path d="M43.275 65.5789C43.4346 68.6313 43.7254 80.6562 43.9442 83.7694M44.2 65.2112C44.5685 68.3463 44.9154 81.4221 44.9453 84.4527" stroke="#1E1E1E" stroke-linecap="round"/>
<path d="M48.323 73.6147C46.883 73.5247 45.823 73.6947 44.923 73.6147C46.023 73.6747 47.143 73.6447 48.323 73.6147ZM48.323 73.6147C50.293 72.9147 50.273 72.1947 50.033 71.9147M48.323 73.6147C49.723 74.1147 50.923 72.4047 50.033 71.9147M50.033 71.9147C50.243 70.7347 51.223 69.3547 51.733 70.2147M50.033 71.9147C50.653 70.2247 49.623 69.2447 51.733 70.2147M51.733 70.2147C52.783 70.1847 53.543 70.1847 55.133 70.2147C53.783 70.2047 52.683 70.1347 51.733 70.2147Z" stroke="#1E1E1E" stroke-linecap="round"/>
<path d="M54.733 69.0647C55.083 69.0747 55.993 69.4847 56.273 69.6547C56.563 69.8347 56.533 70.0047 56.443 70.1047C56.363 70.2147 55.973 70.1547 55.753 70.3047C55.543 70.4547 55.273 70.8647 55.173 71.0047C55.073 71.1547 55.323 71.2247 55.143 71.1747C54.963 71.1147 54.233 70.9547 54.093 70.6847C53.953 70.4147 54.243 69.7547 54.313 69.5547C54.383 69.3447 54.423 69.4147 54.503 69.4447C54.593 69.4747 54.753 69.8447 54.813 69.7547C54.883 69.6547 54.833 68.8547 54.873 68.8647M54.833 68.5847C55.183 68.4847 55.823 69.3647 56.053 69.6047C56.283 69.8447 56.303 69.9647 56.213 70.0147C56.123 70.0547 55.543 69.7947 55.543 69.8847C55.533 69.9647 56.413 70.2047 56.183 70.4947C55.953 70.7847 54.433 71.5447 54.163 71.6147C53.893 71.6847 54.533 71.1547 54.573 70.9147C54.613 70.6747 54.383 70.3247 54.413 70.1647C54.443 69.9947 54.533 70.0247 54.743 69.9447C54.963 69.8647 55.713 69.7147 55.693 69.6847C55.663 69.6447 54.663 69.6547 54.603 69.7047" fill="#1E1E1E"/>
<path d="M55.363 68.8647C55.463 68.9047 55.443 69.2547 55.613 69.4547C55.783 69.6647 56.323 69.7947 56.383 70.0847C56.453 70.3747 56.223 70.9847 55.993 71.1747C55.773 71.3747 55.293 71.2447 55.013 71.2447C54.733 71.2447 54.393 71.2147 54.303 71.1747C54.223 71.1347 54.563 71.1847 54.513 70.9847C54.453 70.7847 54.013 70.2647 53.963 69.9847C53.913 69.7147 54.023 69.4947 54.203 69.3547C54.383 69.2147 54.803 69.1047 55.033 69.1447C55.263 69.1847 55.493 69.4947 55.563 69.6047M55.873 68.6947C56.073 68.6647 55.883 69.4147 55.993 69.5647C56.103 69.7047 56.483 69.4047 56.523 69.5547C56.573 69.6947 56.573 70.2847 56.263 70.4447C55.953 70.6047 54.993 70.4547 54.683 70.5047C54.373 70.5547 54.543 70.5947 54.403 70.7247C54.263 70.8447 53.903 71.3647 53.843 71.2547C53.793 71.1347 53.973 70.3147 54.083 70.0147C54.203 69.7047 54.303 69.6147 54.523 69.4447C54.733 69.2747 55.383 69.1347 55.383 68.9847C55.383 68.8347 54.583 68.5047 54.523 68.5547" stroke="#1E1E1E" stroke-linecap="round"/>
<path d="M51.7305 72.5252C51.7405 71.5852 51.7705 71.2352 51.7305 70.9152C51.7305 71.3452 51.7505 71.7452 51.7305 72.5252ZM51.7305 72.5252C51.8905 73.0352 52.4205 74.4352 53.3405 74.1452M51.7305 72.5252C52.3205 73.1752 52.3205 73.5152 53.3405 74.1452M53.3405 74.1452C53.7205 74.1652 54.0605 74.1852 54.5805 74.1452M53.3405 74.1452C53.8105 74.1252 54.2405 74.1452 54.5805 74.1452M54.5805 74.1452C56.0705 73.5652 56.5505 74.3652 56.1905 75.7552M54.5805 74.1452C55.0105 73.5052 55.9005 74.3652 56.1905 75.7552M56.1905 75.7552C56.2005 76.1352 56.2005 76.5452 56.1905 77.3752C56.1605 76.6052 56.1805 76.1752 56.1905 75.7552Z" stroke="#1E1E1E" stroke-linecap="round"/>
<path d="M56.5305 77.0752C56.7005 77.0952 56.7005 77.0952 56.6905 77.0852C56.6805 77.0752 56.5105 76.9552 56.4605 77.0252C56.4005 77.0952 56.3405 77.3652 56.3605 77.4952C56.3805 77.6152 56.6405 77.7452 56.5705 77.7852C56.4905 77.8352 56.0205 77.8452 55.9205 77.7552C55.8105 77.6752 55.9405 77.3352 55.9205 77.2652C55.9005 77.1852 55.8105 77.2752 55.7705 77.2952C55.7305 77.3152 55.6605 77.4952 55.6905 77.3952C55.7205 77.3052 55.8805 76.7252 55.9505 76.7152C56.0205 76.7052 56.0605 77.3052 56.0905 77.3152M56.4905 77.1052C56.6105 77.1952 56.6105 77.1852 56.5805 77.1352C56.5405 77.0952 56.2105 76.8452 56.2705 76.8552C56.3305 76.8652 57.0105 77.0052 56.9305 77.2052C56.8505 77.4152 55.9205 77.9552 55.7905 78.0552C55.6705 78.1652 56.1305 77.9052 56.1605 77.8152C56.1905 77.7352 56.0105 77.5952 55.9905 77.5452C55.9605 77.4952 55.9405 77.5652 56.0105 77.5352C56.0805 77.4952 56.4205 77.3752 56.4105 77.3352C56.3905 77.2952 55.9305 77.2652 55.9205 77.2852C55.9205 77.3052 56.2605 77.4252 56.3905 77.4352" fill="#1E1E1E"/>
<path d="M56.0305 76.9352C56.1205 76.9652 56.5205 76.9252 56.6105 77.0252C56.7105 77.1352 56.6705 77.4552 56.6105 77.5452C56.5605 77.6452 56.3805 77.5652 56.2905 77.6052C56.2005 77.6452 56.0705 77.7152 56.0605 77.7752C56.0605 77.8452 56.3005 78.0152 56.2505 77.9852C56.1905 77.9552 55.8205 77.7252 55.7105 77.6052C55.5905 77.4952 55.5405 77.3852 55.5505 77.2852C55.5705 77.1952 55.6505 77.0352 55.7905 77.0252C55.9205 77.0152 56.2705 77.1552 56.3605 77.2052C56.4505 77.2552 56.3105 77.3452 56.3105 77.3252M56.3205 76.9852C56.3805 76.9752 56.6605 76.6552 56.7505 76.6752C56.8305 76.6852 56.9405 77.0052 56.8205 77.0852C56.7105 77.1652 56.1905 77.0852 56.0705 77.1552C55.9505 77.2252 56.1605 77.3452 56.1105 77.5152C56.0605 77.6852 55.8305 78.1652 55.7705 78.1752C55.7105 78.1952 55.7505 77.7552 55.7505 77.6052C55.7505 77.4652 55.7005 77.4352 55.7405 77.3152C55.7905 77.1952 56.0505 77.0152 56.0405 76.8852C56.0305 76.7452 55.7005 76.4952 55.7105 76.5052C55.7105 76.5152 56.0705 76.8152 56.0705 76.9252" stroke="#1E1E1E" stroke-linecap="round"/>
<path d="M47.3878 71.2626C47.3578 71.8926 47.3978 72.5326 47.3878 73.2626C47.4178 72.5126 47.3978 71.7726 47.3878 71.2626ZM47.3878 71.2626C47.5378 71.1226 48.1178 70.2426 48.0378 70.6226M47.3878 71.2626C47.4378 70.2026 47.4778 70.2926 48.0378 70.6226M48.0378 70.6226C48.8278 70.3026 48.1178 69.8526 48.6778 69.9726M48.0378 70.6226C48.1778 70.3026 48.2478 71.1226 48.6778 69.9726M48.6778 69.9726C48.6778 69.4326 48.6478 68.8026 48.6778 67.9826C48.6878 69.1426 48.6478 69.5826 48.6778 69.9726Z" stroke="#1E1E1E" stroke-linecap="round"/>
<path d="M48.9278 67.7826C48.8978 67.7126 48.7378 67.5126 48.6978 67.5326C48.6678 67.5426 48.6578 67.7626 48.7278 67.8626C48.7978 67.9626 49.1378 68.0826 49.1178 68.1326C49.0978 68.1926 48.6878 68.2526 48.6178 68.2026C48.5478 68.1626 48.6978 67.9026 48.6778 67.8826C48.6478 67.8626 48.5378 68.0226 48.4578 68.0926C48.3778 68.1526 48.2378 68.3626 48.2078 68.2726C48.1778 68.1826 48.2278 67.5826 48.2878 67.5526C48.3478 67.5226 48.4978 68.0926 48.5478 68.0926C48.5978 68.0826 48.5178 67.5726 48.5778 67.5126M48.7678 67.8026C48.7178 67.7026 48.4078 67.3626 48.4978 67.3226C48.5878 67.2726 49.3278 67.3626 49.3078 67.5326C49.2878 67.7126 48.4478 68.2626 48.3878 68.3826C48.3178 68.5026 48.8478 68.3026 48.9078 68.2726C48.9778 68.2426 48.8078 68.1826 48.7678 68.2026C48.7378 68.2226 48.6778 68.3626 48.6978 68.3726C48.7178 68.3826 48.9778 68.2926 48.8978 68.2526C48.8178 68.2026 48.2378 68.1326 48.2178 68.1326C48.2078 68.1226 48.6478 68.2126 48.8078 68.2126C48.9578 68.2026 49.2478 68.1526 49.1478 68.1026" fill="#1E1E1E"/>
<path d="M48.8678 67.7526C48.9378 67.8026 48.8978 68.0526 48.8578 68.0926C48.8178 68.1326 48.6778 67.9926 48.6278 68.0026C48.5878 68.0126 48.5278 68.0626 48.5778 68.1326C48.6178 68.2026 48.9378 68.4026 48.9178 68.4126C48.8978 68.4226 48.5578 68.2526 48.4478 68.1926C48.3378 68.1326 48.2678 68.0926 48.2478 68.0426C48.2378 67.9926 48.2578 67.8826 48.3378 67.8826C48.4178 67.8826 48.6578 68.0226 48.7278 68.0526C48.8078 68.0926 48.7678 68.1426 48.7978 68.1026C48.8178 68.0726 48.8778 67.8426 48.8678 67.8326M48.9678 67.3626C49.0278 67.3126 49.1478 67.5526 49.0578 67.5826C48.9678 67.6026 48.5078 67.4626 48.4378 67.5026C48.3778 67.5526 48.6578 67.6626 48.6678 67.8526C48.6778 68.0326 48.5078 68.5526 48.4878 68.6226C48.4578 68.6926 48.5278 68.3226 48.5178 68.2426C48.5078 68.1626 48.4278 68.2026 48.4378 68.1226C48.4378 68.0426 48.6178 67.9026 48.5578 67.7726C48.4878 67.6426 48.0478 67.3626 48.0378 67.3526C48.0278 67.3326 48.4978 67.6026 48.5178 67.7026C48.5378 67.7926 48.1078 67.9626 48.1578 67.9026" stroke="#1E1E1E" stroke-linecap="round"/>
<path d="M47.0357 76.2589C47.0757 75.2389 47.0157 74.7689 47.0357 74.3189C47.0457 74.9189 47.0457 75.5789 47.0357 76.2589ZM47.0357 76.2589C47.5557 77.1689 47.7257 77.6389 48.9757 78.1889M47.0357 76.2589C46.9057 77.2189 47.4757 78.6389 48.9757 78.1889M48.9757 78.1889C49.3357 78.1889 49.6657 78.2189 49.9157 78.1889M48.9757 78.1889C49.1857 78.1789 49.3957 78.1889 49.9157 78.1889M49.9157 78.1889C50.6457 77.6389 51.5957 78.5589 51.8457 80.1289M49.9157 78.1889C50.7657 78.9089 51.6657 78.9489 51.8457 80.1289M51.8457 80.1289C51.8257 80.6089 51.7857 81.1989 51.8457 82.0689C51.8457 81.1889 51.8557 80.6489 51.8457 80.1289Z" stroke="#1E1E1E" stroke-linecap="round"/>
<path d="M51.7757 81.2089C51.8257 81.1989 51.9357 81.4289 52.0857 81.5789C52.2357 81.7189 52.6457 81.9189 52.6657 82.0589C52.6757 82.1989 52.2757 82.3689 52.1757 82.4089C52.0757 82.4589 52.1657 82.2889 52.0657 82.3189C51.9657 82.3489 51.7457 82.5389 51.5757 82.5889C51.4057 82.6389 51.1657 82.7989 51.0757 82.6489C50.9857 82.4889 50.9957 81.7789 51.0457 81.6589C51.0957 81.5389 51.2557 81.9989 51.3857 81.9189C51.5057 81.8489 51.6657 81.3089 51.7857 81.2189C51.9157 81.1389 52.1857 81.3189 52.1457 81.4089M51.5857 81.0089C51.7557 80.9389 52.6157 81.0389 52.6657 81.2589C52.7257 81.4789 51.9557 82.1089 51.9257 82.3189C51.8857 82.5189 52.4157 82.4289 52.4557 82.4789C52.4957 82.5389 52.2557 82.5689 52.1557 82.6389C52.0457 82.6989 51.8757 82.8689 51.8057 82.8589C51.7457 82.8589 51.9057 82.7089 51.7657 82.5989C51.6357 82.4989 51.0057 82.3189 50.9857 82.2289C50.9757 82.1289 51.4357 82.1089 51.6657 82.0389C51.8957 81.9689 52.4057 81.8789 52.3657 81.8089C52.3257 81.7289 51.5857 81.6289 51.4357 81.5789" fill="#1E1E1E"/>
<path d="M51.9057 81.7789C51.9457 81.7889 51.9257 81.6589 51.9557 81.6989C51.9957 81.7389 52.0157 81.8789 52.1057 82.0289C52.1957 82.1789 52.5257 82.4889 52.4857 82.5889C52.4457 82.6889 52.0457 82.6189 51.8657 82.6089C51.6857 82.5989 51.5057 82.5989 51.3957 82.5489C51.2957 82.4889 51.2157 82.3289 51.2357 82.2689C51.2457 82.2089 51.4257 82.2389 51.4957 82.1889C51.5557 82.1389 51.5257 82.0689 51.6157 81.9589C51.7057 81.8589 51.9957 81.5789 52.0457 81.5389C52.1057 81.5089 52.0257 81.7589 51.9457 81.7789M52.1157 81.2589C52.1057 81.2589 51.7657 81.1289 51.7857 81.2089C51.7957 81.2889 52.1657 81.4889 52.2057 81.7589C52.2457 82.0189 52.0957 82.6589 52.0457 82.8089C52.0057 82.9689 52.0057 82.6989 51.9257 82.6689C51.8457 82.6289 51.6557 82.7089 51.5657 82.6189C51.4857 82.5389 51.5657 82.3489 51.4357 82.1589C51.3057 81.9589 50.8157 81.5689 50.7957 81.4689C50.7857 81.3689 51.2557 81.5189 51.3457 81.5489C51.4357 81.5689 51.2357 81.6989 51.3457 81.6089C51.4557 81.5289 51.9057 81.1289 52.0057 81.0389" stroke="#1E1E1E" stroke-linecap="round"/>
<path d="M40.3425 78.3095C41.9725 78.4195 42.6425 78.2895 43.1625 78.3095C42.5325 78.3295 41.9225 78.2595 40.3425 78.3095ZM40.3425 78.3095C38.5325 77.4895 37.3625 76.9395 37.5325 75.4895M40.3425 78.3095C38.1525 78.9795 38.2425 77.8495 37.5325 75.4895M37.5325 75.4895C37.5425 75.1195 37.4825 74.6695 37.5325 74.4395M37.5325 75.4895C37.5425 75.1695 37.5025 74.8495 37.5325 74.4395M37.5325 74.4395C37.1525 72.1395 36.0225 72.5595 34.7125 71.6195M37.5325 74.4395C37.2625 72.7195 36.3825 71.6795 34.7125 71.6195M34.7125 71.6195C33.6825 71.5695 32.9225 71.4695 31.8925 71.6195C32.8725 71.6795 33.8225 71.5395 34.7125 71.6195Z" stroke="#1E1E1E" stroke-linecap="round"/>
<path d="M31.6825 70.4295C31.9825 70.5095 32.7925 70.7195 32.9725 70.8895C33.1525 71.0695 32.7525 71.3595 32.7325 71.4995C32.7225 71.6395 32.9925 71.5395 32.9025 71.7295C32.8025 71.9195 32.4725 72.3995 32.1725 72.6295C31.8725 72.8595 31.3825 73.2595 31.1225 73.1095C30.8525 72.9595 30.6625 71.9395 30.5925 71.7295C30.5125 71.5295 30.5825 72.1195 30.6625 71.8895C30.7325 71.6695 30.7825 70.6295 31.0625 70.3795C31.3425 70.1195 32.2525 70.3095 32.3325 70.3795C32.4225 70.4595 31.6025 70.7595 31.5525 70.8195M32.5725 69.9595C32.7425 70.1595 31.7825 71.0195 31.8725 71.2895C31.9725 71.5695 32.9625 71.4695 33.1525 71.6195C33.3425 71.7695 33.1225 71.9795 33.0125 72.2195C32.9025 72.4495 32.6525 72.9095 32.5025 73.0395C32.3625 73.1795 32.4725 73.1195 32.1425 73.0395C31.8025 72.9595 30.6725 72.7295 30.4925 72.5695C30.3225 72.3995 30.8325 72.2795 31.0825 72.0595C31.3225 71.8395 31.9325 71.4795 31.9625 71.2395C31.9925 71.0095 31.3725 70.7595 31.2525 70.6395C31.1425 70.5295 31.2225 70.6595 31.2725 70.5295" fill="#1E1E1E"/>
<path d="M31.5125 70.6595C31.6425 70.5895 31.8525 70.6995 32.1325 70.8895C32.4025 71.0795 33.0825 71.5795 33.1625 71.7895C33.2325 71.9995 32.7625 72.0395 32.5525 72.1595C32.3425 72.2895 32.0825 72.4795 31.8725 72.5395C31.6725 72.5995 31.4425 72.5195 31.3425 72.5095C31.2425 72.4995 31.3225 72.5895 31.2825 72.4895C31.2325 72.3995 31.0125 72.2095 31.0525 71.9395C31.0825 71.6695 31.3325 71.0395 31.5025 70.8795C31.6725 70.7095 32.0525 70.9695 32.0725 70.9395C32.0825 70.8995 31.6025 70.6695 31.5725 70.6695M31.0325 69.9395C31.1325 69.8795 31.8725 70.0195 32.1025 70.3495C32.3425 70.6795 32.3525 71.6295 32.4625 71.9095C32.5625 72.1995 32.7625 71.9395 32.7425 72.0495C32.7125 72.1595 32.4725 72.5095 32.3325 72.5695C32.1825 72.6295 32.1825 72.5595 31.8525 72.3895C31.5325 72.2295 30.5625 71.7395 30.3525 71.5995C30.1525 71.4495 30.6225 71.6095 30.6225 71.5295C30.6125 71.4495 30.0925 71.3995 30.3125 71.1195C30.5225 70.8495 31.6625 70.0595 31.9125 69.8595C32.1625 69.6495 31.9025 69.6195 31.8125 69.8795" stroke="#1E1E1E" stroke-linecap="round"/>
<path d="M37.294 71.6505C37.264 72.2105 37.304 72.5905 37.294 72.9105C37.314 72.6305 37.294 72.3505 37.294 71.6505ZM37.294 71.6505C37.184 70.5205 37.534 70.7805 38.554 70.3905M37.294 71.6505C37.764 71.1305 38.444 70.8705 38.554 70.3905M38.554 70.3905C38.604 70.3905 38.664 70.3905 38.734 70.3905M38.554 70.3905C38.594 70.3805 38.634 70.3905 38.734 70.3905M38.734 70.3905C39.194 71.0105 39.834 70.0605 39.994 69.1205M38.734 70.3905C39.434 70.4205 40.104 69.6605 39.994 69.1205M39.994 69.1205C39.994 68.8305 40.004 68.6305 39.994 67.8605C39.994 68.6205 39.984 68.8905 39.994 69.1205Z" stroke="#1E1E1E" stroke-linecap="round"/>
<path d="M40.234 67.7805C40.264 67.7905 39.944 67.8205 39.934 67.7805C39.934 67.7305 40.164 67.5105 40.194 67.5305C40.214 67.5605 40.144 67.7905 40.074 67.9205C40.014 68.0505 39.854 68.3505 39.794 68.3205C39.724 68.2905 39.714 67.7405 39.704 67.7305C39.704 67.7205 39.744 68.2905 39.744 68.2605C39.754 68.2405 39.684 67.6805 39.744 67.5805C39.804 67.4805 40.144 67.6005 40.134 67.6505C40.114 67.7005 39.684 67.8505 39.664 67.8705C39.654 67.9005 39.994 67.8505 40.044 67.7905M39.494 68.0405C39.474 68.1105 40.084 67.8805 40.214 67.8505C40.344 67.8105 40.254 67.7805 40.274 67.8405C40.284 67.9005 40.274 68.1205 40.314 68.1905C40.344 68.2605 40.594 68.2505 40.484 68.2705C40.374 68.2905 39.724 68.2805 39.654 68.3005C39.574 68.3205 39.914 68.4105 40.034 68.3905C40.144 68.3605 40.434 68.2605 40.334 68.1705C40.234 68.0705 39.574 67.9105 39.444 67.8305C39.314 67.7505 39.494 67.7905 39.544 67.6905C39.594 67.5905 39.734 67.2305 39.724 67.2205" fill="#1E1E1E"/>
<path d="M39.734 67.7805C39.824 67.8105 40.214 68.0005 40.254 68.0205C40.294 68.0305 40.034 67.9005 39.964 67.8805C39.894 67.8605 39.854 67.9005 39.844 67.9105C39.834 67.9105 39.834 67.8805 39.884 67.9305C39.924 67.9805 40.094 68.1605 40.114 68.2105C40.134 68.2605 39.994 68.3005 39.984 68.2405C39.974 68.1805 40.054 67.9005 40.054 67.8605C40.054 67.8205 40.064 68.0105 40.014 67.9905C39.964 67.9805 39.754 67.7905 39.754 67.7805C39.754 67.7705 40.014 67.9005 40.004 67.9205M39.794 67.5005C39.844 67.6405 39.764 68.1405 39.804 68.2005C39.844 68.2705 39.984 67.9305 40.024 67.8905C40.074 67.8505 40.024 67.9705 40.044 67.9605C40.064 67.9405 40.224 67.8805 40.124 67.8105C40.034 67.7405 39.524 67.5105 39.454 67.5205C39.384 67.5305 39.744 67.7905 39.724 67.8605C39.704 67.9405 39.294 68.0605 39.344 67.9605C39.394 67.8605 39.924 67.4005 40.044 67.2805C40.164 67.1605 40.124 67.0805 40.074 67.2305C40.034 67.3905 39.774 68.0505 39.774 68.2005" stroke="#1E1E1E" stroke-linecap="round"/>
<path d="M36.563 75.8447C37.223 75.8647 37.713 75.8647 38.233 75.8447C37.663 75.8147 37.083 75.8247 36.563 75.8447ZM36.563 75.8447C35.263 76.2347 35.303 76.6847 34.883 77.5147M36.563 75.8447C36.173 76.3247 34.983 76.6347 34.883 77.5147M34.883 77.5147C34.883 77.9147 34.853 78.2947 34.883 78.5147M34.883 77.5147C34.883 77.7647 34.873 78.0347 34.883 78.5147M34.883 78.5147C34.733 79.7247 34.213 80.2247 33.213 80.1847M34.883 78.5147C34.993 79.3247 33.563 79.4247 33.213 80.1847M33.213 80.1847C32.773 80.2047 32.253 80.1947 31.543 80.1847C32.523 80.1847 32.873 80.2147 33.213 80.1847Z" stroke="#1E1E1E" stroke-linecap="round"/>
<path d="M31.393 79.8347C31.433 79.7647 31.763 79.5447 31.843 79.5847C31.923 79.6347 31.913 79.9147 31.873 80.1047C31.833 80.2847 31.693 80.6647 31.623 80.6947C31.543 80.7247 31.493 80.2447 31.443 80.2747C31.383 80.3047 31.353 80.9047 31.293 80.8747C31.243 80.8447 31.093 80.2647 31.113 80.1247C31.123 79.9847 31.423 80.0347 31.403 80.0247C31.373 80.0147 30.933 80.0847 30.963 80.0547C31.003 80.0247 31.503 79.9347 31.603 79.8647C31.703 79.7847 31.613 79.5547 31.553 79.6047M31.633 79.9047C31.813 79.8347 31.813 79.8047 31.893 79.8747C31.973 79.9547 32.023 80.2147 32.093 80.3347C32.173 80.4647 32.443 80.5347 32.323 80.6147C32.213 80.6947 31.533 80.7547 31.413 80.8247C31.293 80.8847 31.563 81.0147 31.613 81.0047C31.663 80.9947 31.873 80.8647 31.723 80.7347C31.573 80.6147 30.863 80.3747 30.713 80.2347C30.563 80.0947 30.733 80.0547 30.823 79.8947C30.913 79.7347 31.213 79.3247 31.253 79.2947C31.293 79.2647 30.963 79.5647 31.053 79.6947" fill="#1E1E1E"/>
<path d="M31.703 80.0447C31.803 80.0347 31.633 79.9047 31.623 79.9047C31.623 79.9147 31.653 80.0147 31.663 80.0747C31.683 80.1447 31.703 80.1947 31.743 80.3147C31.773 80.4347 31.893 80.6847 31.863 80.7747C31.823 80.8747 31.603 80.9447 31.533 80.8847C31.453 80.8247 31.443 80.5047 31.393 80.4147C31.353 80.3347 31.313 80.4447 31.253 80.3647C31.193 80.2847 30.983 80.0047 31.033 79.9347C31.083 79.8747 31.513 79.9847 31.553 79.9947C31.593 79.9947 31.313 80.0447 31.283 79.9747M31.203 80.2547C31.293 80.2847 31.533 79.9447 31.643 79.9147C31.743 79.8847 31.773 80.0447 31.833 80.0847C31.893 80.1247 32.083 80.1447 31.983 80.1447C31.883 80.1347 31.343 79.9847 31.233 80.0447C31.123 80.1047 31.403 80.4147 31.323 80.4947C31.233 80.5747 30.733 80.6747 30.733 80.5447C30.723 80.4147 31.203 79.8847 31.303 79.7047C31.403 79.5147 31.343 79.3447 31.343 79.4447C31.333 79.5447 31.233 80.1547 31.283 80.2747C31.323 80.4047 31.573 80.2847 31.603 80.1847" stroke="#1E1E1E" stroke-linecap="round"/>
<path d="M40.9325 75.9595C40.9725 76.5695 40.8725 77.4295 40.9325 78.3095C40.9225 77.7195 40.9225 77.1895 40.9325 75.9595ZM40.9325 75.9595C41.3425 76.0895 41.6425 76.1495 41.1625 75.7295M40.9325 75.9595C41.0325 76.0395 41.6225 75.1195 41.1625 75.7295M41.1625 75.7295C41.2025 75.7595 41.4925 75.3895 41.4025 75.4895M41.1625 75.7295C40.5625 74.9595 41.1925 75.5095 41.4025 75.4895M41.4025 75.4895C41.3225 75.0395 41.3225 74.5195 41.4025 73.1495C41.3625 73.6095 41.4025 74.5495 41.4025 75.4895Z" stroke="#1E1E1E" stroke-linecap="round"/>
<path d="M41.4625 72.6895C41.5025 72.6795 41.4825 72.8895 41.4625 73.0195C41.4325 73.1395 41.3225 73.4495 41.3025 73.4395C41.2725 73.4295 41.2925 72.9195 41.2925 72.9495C41.3025 72.9795 41.3425 73.5995 41.3325 73.6095C41.3225 73.6195 41.2125 73.1095 41.2425 73.0195C41.2725 72.9395 41.5525 73.0795 41.5025 73.1195C41.4425 73.1595 40.9425 73.2795 40.9225 73.2795C40.9025 73.2695 41.2725 73.1695 41.3625 73.0895C41.4425 73.0095 41.4725 72.7495 41.4225 72.7895C41.3825 72.8195 41.1325 73.2895 41.0825 73.2795M41.5525 73.0095C41.5925 73.0295 41.6225 73.2295 41.7025 73.2995C41.7725 73.3595 42.0725 73.3695 41.9925 73.4095C41.9125 73.4395 41.2925 73.4695 41.2325 73.5295C41.1625 73.5795 41.5025 73.7195 41.6025 73.7395C41.7025 73.7495 41.9525 73.6795 41.8225 73.6095C41.6925 73.5295 40.9725 73.3695 40.8125 73.2795C40.6425 73.1995 40.7625 73.2095 40.8125 73.0795C40.8525 72.9495 41.0325 72.5495 41.0625 72.5095C41.0925 72.4795 40.8725 72.7495 40.9725 72.8695C41.0825 72.9895 41.5725 73.1895 41.6825 73.2195" fill="#1E1E1E"/>
<path d="M41.2225 72.9895C41.1925 72.9395 41.2125 72.9595 41.2425 72.9595C41.2825 72.9695 41.3525 72.9495 41.4325 73.0295C41.5125 73.1095 41.7225 73.3395 41.7425 73.4395C41.7725 73.5395 41.6325 73.6395 41.5925 73.6295C41.5625 73.6095 41.5825 73.3695 41.5425 73.3495C41.5025 73.3295 41.4425 73.5195 41.3425 73.4895C41.2525 73.4595 40.9725 73.2295 40.9625 73.1795C40.9525 73.1395 41.2525 73.2195 41.2825 73.2195C41.3025 73.2095 41.1325 73.2395 41.1225 73.1595C41.1225 73.0695 41.2525 72.7395 41.2525 72.6995M41.2725 73.0395C41.3425 72.9695 41.3525 73.0495 41.4125 73.0295C41.4725 73.0095 41.7025 72.9595 41.6425 72.9095C41.5825 72.8595 41.1125 72.6695 41.0625 72.7195C41.0125 72.7695 41.3725 73.0995 41.3325 73.2095C41.3025 73.3295 40.8425 73.4995 40.8625 73.4195C40.8725 73.3495 41.3425 72.8995 41.4125 72.7695C41.4925 72.6395 41.3825 72.5295 41.3225 72.6595C41.2625 72.7795 41.0425 73.3995 41.0725 73.5095C41.1025 73.6295 41.4525 73.4795 41.5025 73.3595C41.5525 73.2495 41.4725 72.9295 41.3725 72.8395" stroke="#1E1E1E" stroke-linecap="round"/>
<path d="M43.0846 21.9303C43.4735 22.0155 43.9366 22.5416 44.253 22.8159C44.5695 23.0801 44.8896 23.0743 44.9835 23.5356C45.0773 24.0069 45.0214 25.2062 44.7961 25.6033C44.5707 26.0103 44.0325 25.8732 43.6415 25.948C43.2604 26.023 42.9584 26.179 42.4897 26.0728C42.0211 25.9666 41.0643 25.7139 40.8094 25.3305C40.5646 24.9372 40.8334 24.2707 40.9803 23.7526C41.1372 23.2346 41.4175 22.4583 41.7309 22.2024C42.0342 21.9564 42.6395 22.3144 42.8507 22.2272C43.0518 22.1399 42.8682 21.6574 42.9582 21.6586M43.341 22.2037C43.8406 22.2403 44.7075 22.4818 44.9733 22.7954C45.2291 23.1188 44.9121 23.6447 44.9255 24.1449C44.939 24.6351 45.1794 25.3583 45.0541 25.7567C44.9287 26.1651 44.7446 26.4727 44.1935 26.5554C43.6525 26.6282 42.3544 26.471 41.7677 26.2232C41.1808 25.9855 40.8556 25.6211 40.6823 25.1088C40.4991 24.5963 40.5821 23.6173 40.6884 23.1387C40.7946 22.6701 40.8379 22.4206 41.3 22.2667C41.7522 22.1027 43.0909 22.2104 43.4413 22.1851C43.7918 22.1497 43.5315 22.1662 43.4127 22.0747" fill="white"/>
<path d="M43.0952 21.8905C43.5548 21.9165 44.1615 22.1746 44.5563 22.5699C44.9411 22.965 45.391 23.731 45.4438 24.2718C45.5067 24.8126 45.208 25.4687 44.9233 25.815C44.6387 26.1613 44.1876 26.2453 43.7263 26.3392C43.2552 26.423 42.6132 26.5645 42.126 26.348C41.629 26.1214 40.9575 25.4725 40.7635 25.0199C40.5594 24.5771 40.8158 24.0905 40.9616 23.6524C41.0973 23.2241 41.2234 22.7658 41.6177 22.4409C42.0022 22.106 43.0067 21.7693 43.2679 21.6827C43.5392 21.5863 43.1959 21.8318 43.1953 21.8818M43.3439 21.9838C43.8139 21.99 44.5707 22.24 44.8071 22.5132C45.0435 22.7863 44.799 23.1231 44.7625 23.6127C44.736 24.1024 44.9143 24.9848 44.6081 25.4508C44.3119 25.9169 43.3657 26.3844 42.9553 26.409C42.5451 26.4236 42.4518 25.9123 42.1362 25.5781C41.8306 25.244 41.3277 24.7073 41.1014 24.4243C40.8752 24.1413 40.6246 24.1779 40.7786 23.88C40.9426 23.5821 41.6208 22.961 42.0653 22.6269C42.4999 22.2826 43.2642 21.9627 43.416 21.8247C43.5779 21.6868 43.0081 21.6693 42.9865 21.789" stroke="#1E1E1E" stroke-linecap="round"/>
</svg>
