<svg width="85" height="126" viewBox="0 0 85 126" fill="none" xmlns="http://www.w3.org/2000/svg">
<path d="M21.7799 1.73575C37.6299 2.70575 48.7099 5.67575 62.1799 1.73575C74.4899 0.285746 82.2199 5.75575 82.3799 21.9357C84.1399 45.8257 86.1399 76.0757 82.3799 103.486C84.2999 113.916 78.3699 126.906 62.1799 123.686C44.6199 126.876 31.8699 123.896 21.7799 123.686C5.38995 123.016 -0.520056 120.016 1.57994 103.486C3.32994 74.1857 3.39994 39.3357 1.57994 21.9357C3.67994 9.15575 11.1299 0.755746 21.7799 1.73575Z" fill="white"/>
<path d="M21.7799 1.73573C37.1899 0.735732 49.4999 1.21573 62.1799 1.73573M21.7799 1.73573C32.9399 2.47573 45.2199 2.01573 62.1799 1.73573M21.7799 1.73573C8.65995 1.49573 1.11995 7.39573 1.57995 21.9357M21.7799 1.73573C8.67995 3.24573 1.39995 7.46573 1.57995 21.9357M62.1799 1.73573C76.2499 -0.204268 81.15 9.18573 82.38 21.9357M62.1799 1.73573C75.7099 3.16573 84.51 7.20573 82.38 21.9357M82.38 21.9357C82.59 48.3057 83.83 73.4457 82.38 103.486M82.38 21.9357C82.19 52.5057 82.99 81.4557 82.38 103.486M82.38 103.486C80.47 118.266 75.1399 122.976 62.1799 123.686M82.38 103.486C82.31 116.126 77.1099 122.636 62.1799 123.686M62.1799 123.686C45.2899 125.666 33.0199 124.626 21.7799 123.686M62.1799 123.686C46.2399 124.166 30.7999 123.176 21.7799 123.686M21.7799 123.686C9.87995 123.236 1.68995 117.206 1.57995 103.486M21.7799 123.686C6.61995 125.856 -0.360053 117.606 1.57995 103.486M1.57995 103.486C1.51995 74.9857 1.39995 48.6957 1.57995 21.9357M1.57995 103.486C1.67995 71.5557 0.999947 38.8957 1.57995 21.9357" stroke="#1E1E1E" stroke-width="2" stroke-linecap="round"/>
<path d="M10.3952 88.3613C21.3852 88.3613 65.3652 88.3613 76.3552 88.3613" stroke="#1E1E1E" stroke-width="2" stroke-linecap="round"/>
<path d="M9.66396 104.181C9.65396 103.281 9.63396 99.6714 9.62396 98.7714" stroke="#1E1E1E" stroke-linecap="round"/>
<path d="M9.59201 98.9742C9.84201 98.6142 10.852 97.1942 11.102 96.8342" stroke="#1E1E1E" stroke-linecap="round"/>
<path d="M12.5948 104.246C12.6048 103.346 12.6248 99.7356 12.6348 98.8356" stroke="#1E1E1E" stroke-linecap="round"/>
<path d="M12.6667 99.0384C12.4167 98.6784 11.4067 97.2584 11.1567 96.8984" stroke="#1E1E1E" stroke-linecap="round"/>
<path d="M7.45172 104.732C8.63172 104.712 13.3317 104.632 14.5017 104.612" stroke="#1E1E1E" stroke-linecap="round"/>
<path d="M11.3102 104.822C11.3202 105.452 11.3602 107.992 11.3702 108.622" stroke="#1E1E1E" stroke-linecap="round"/>
<path d="M52.7215 99.9034C53.0815 99.5334 54.5215 98.0334 54.8815 97.6534" stroke="#1E1E1E" stroke-linecap="round"/>
<path d="M54.877 97.6132C55.277 97.9432 56.857 99.2632 57.257 99.5932" stroke="#1E1E1E" stroke-linecap="round"/>
<path d="M57.3468 99.8585C56.6568 100.919 53.9068 105.169 53.2168 106.239" stroke="#1E1E1E" stroke-linecap="round"/>
<path d="M52.7888 99.9034C52.4288 99.5334 50.9888 98.0334 50.6288 97.6534" stroke="#1E1E1E" stroke-linecap="round"/>
<path d="M50.6333 97.6132C50.2333 97.9432 48.6533 99.2632 48.2533 99.5932" stroke="#1E1E1E" stroke-linecap="round"/>
<path d="M48.1635 99.8585C48.8535 100.919 51.6035 105.169 52.2935 106.239" stroke="#1E1E1E" stroke-linecap="round"/>
<path d="M23.1075 1.90759C37.1175 1.90759 51.1275 1.90759 59.4975 1.90759C61.9775 1.90759 63.2275 3.14759 63.2275 5.63759C63.2275 7.66759 63.2275 9.69759 63.2275 13.0876C63.2275 15.5676 61.9775 16.8076 59.4975 16.8076C50.4075 16.8076 41.3275 16.8076 23.1075 16.8076C20.6175 16.8076 19.3775 15.5676 19.3775 13.0876C19.3775 10.4276 19.3775 7.76759 19.3775 5.63759C19.3775 3.14759 20.6175 1.90759 23.1075 1.90759Z" fill="white"/>
<path d="M23.1075 1.90759C33.6175 1.90759 44.1275 1.90759 59.4975 1.90759M23.1075 1.90759C32.7275 1.90759 42.3575 1.90759 59.4975 1.90759M23.1075 1.90759C20.6175 1.90759 19.3775 3.14759 19.3775 5.63759M59.4975 1.90759C61.9775 1.90759 63.2275 3.14759 63.2275 5.63759M63.2275 5.63759C63.2275 7.39759 63.2275 9.16759 63.2275 13.0876M63.2275 5.63759C63.2275 7.96759 63.2275 10.2876 63.2275 13.0876M63.2275 13.0876C63.2275 15.5676 61.9775 16.8076 59.4975 16.8076M59.4975 16.8076C46.6175 16.8076 33.7475 16.8076 23.1075 16.8076M59.4975 16.8076C49.0275 16.8076 38.5575 16.8076 23.1075 16.8076M23.1075 16.8076C20.6175 16.8076 19.3775 15.5676 19.3775 13.0876M19.3775 13.0876C19.3775 11.4076 19.3775 9.73759 19.3775 5.63759M19.3775 13.0876C19.3775 10.9076 19.3775 8.73759 19.3775 5.63759" stroke="#1E1E1E" stroke-width="2" stroke-linecap="round"/>
<path d="M21.3941 12.1021V5.74744H23.5412C24.0377 5.74744 24.4452 5.83225 24.7638 6.00188C25.0823 6.16943 25.3181 6.40008 25.4712 6.69382C25.6243 6.98755 25.7008 7.32163 25.7008 7.69604C25.7008 8.07045 25.6243 8.40246 25.4712 8.69206C25.3181 8.98166 25.0834 9.20921 24.7669 9.37469C24.4504 9.53811 24.046 9.61982 23.5536 9.61982H21.816V8.92478H23.5288C23.8681 8.92478 24.1411 8.87513 24.348 8.77584C24.5569 8.67655 24.7079 8.53588 24.801 8.35385C24.8962 8.16975 24.9437 7.95048 24.9437 7.69604C24.9437 7.44161 24.8962 7.21923 24.801 7.02893C24.7058 6.83862 24.5538 6.69175 24.3449 6.58832C24.136 6.48282 23.8598 6.43007 23.5164 6.43007H22.1636V12.1021H21.3941ZM24.3852 9.24747L25.9491 12.1021H25.0554L23.5164 9.24747H24.3852ZM28.7688 12.2014C28.3385 12.2014 27.961 12.099 27.6362 11.8942C27.3135 11.6894 27.0612 11.4029 26.8791 11.0347C26.6992 10.6665 26.6092 10.2363 26.6092 9.74393C26.6092 9.24747 26.6992 8.81411 26.8791 8.44383C27.0612 8.07356 27.3135 7.78602 27.6362 7.58124C27.961 7.37645 28.3385 7.27405 28.7688 7.27405C29.1991 7.27405 29.5755 7.37645 29.8982 7.58124C30.223 7.78602 30.4754 8.07356 30.6553 8.44383C30.8374 8.81411 30.9284 9.24747 30.9284 9.74393C30.9284 10.2363 30.8374 10.6665 30.6553 11.0347C30.4754 11.4029 30.223 11.6894 29.8982 11.8942C29.5755 12.099 29.1991 12.2014 28.7688 12.2014ZM28.7688 11.5436C29.0956 11.5436 29.3645 11.4598 29.5755 11.2923C29.7865 11.1247 29.9427 10.9044 30.0441 10.6314C30.1454 10.3583 30.1961 10.0625 30.1961 9.74393C30.1961 9.42537 30.1454 9.12853 30.0441 8.85341C29.9427 8.57829 29.7865 8.35592 29.5755 8.18629C29.3645 8.01667 29.0956 7.93186 28.7688 7.93186C28.442 7.93186 28.173 8.01667 27.962 8.18629C27.7511 8.35592 27.5949 8.57829 27.4935 8.85341C27.3922 9.12853 27.3415 9.42537 27.3415 9.74393C27.3415 10.0625 27.3922 10.3583 27.4935 10.6314C27.5949 10.9044 27.7511 11.1247 27.962 11.2923C28.173 11.4598 28.442 11.5436 28.7688 11.5436ZM34.1189 7.33611V7.95668H31.649V7.33611H34.1189ZM32.3689 6.19425H33.1012V10.7369C33.1012 10.9437 33.1312 11.0989 33.1912 11.2023C33.2532 11.3036 33.3318 11.3719 33.427 11.4071C33.5242 11.4402 33.6266 11.4567 33.7342 11.4567C33.8148 11.4567 33.881 11.4526 33.9327 11.4443C33.9845 11.434 34.0258 11.4257 34.0569 11.4195L34.2058 12.0773C34.1561 12.0959 34.0868 12.1145 33.9979 12.1331C33.9089 12.1538 33.7962 12.1642 33.6597 12.1642C33.4528 12.1642 33.2501 12.1197 33.0515 12.0307C32.855 11.9418 32.6916 11.8063 32.5613 11.6243C32.433 11.4422 32.3689 11.2126 32.3689 10.9354V6.19425ZM37.1675 12.2014C36.7083 12.2014 36.3121 12.1 35.9791 11.8973C35.6481 11.6925 35.3926 11.4071 35.2127 11.0409C35.0348 10.6727 34.9458 10.2445 34.9458 9.75634C34.9458 9.26816 35.0348 8.8379 35.2127 8.46555C35.3926 8.09114 35.6429 7.79947 35.9636 7.59054C36.2863 7.37955 36.6627 7.27405 37.093 7.27405C37.3412 7.27405 37.5864 7.31542 37.8284 7.39817C38.0704 7.48091 38.2907 7.61537 38.4893 7.80154C38.6879 7.98564 38.8461 8.22973 38.964 8.53382C39.0819 8.8379 39.1409 9.21231 39.1409 9.65705V9.96734H35.4671V9.33435H38.3962C38.3962 9.06544 38.3424 8.82548 38.2349 8.61449C38.1294 8.40349 37.9784 8.23697 37.7818 8.11493C37.5874 7.99288 37.3578 7.93186 37.093 7.93186C36.8013 7.93186 36.549 8.00426 36.3359 8.14906C36.1249 8.29179 35.9625 8.47796 35.8488 8.70758C35.735 8.93719 35.6781 9.18335 35.6781 9.44606V9.86805C35.6781 10.228 35.7402 10.5331 35.8643 10.7834C35.9905 11.0316 36.1652 11.2209 36.3887 11.3512C36.6121 11.4795 36.8717 11.5436 37.1675 11.5436C37.3599 11.5436 37.5336 11.5167 37.6888 11.4629C37.846 11.4071 37.9815 11.3243 38.0952 11.2147C38.209 11.103 38.2969 10.9644 38.359 10.7989L39.0664 10.9975C38.992 11.2374 38.8668 11.4484 38.691 11.6305C38.5152 11.8104 38.298 11.9511 38.0394 12.0525C37.7808 12.1518 37.4902 12.2014 37.1675 12.2014ZM41.6573 12.2138C41.3553 12.2138 41.0812 12.1569 40.8351 12.0432C40.5889 11.9273 40.3934 11.7608 40.2486 11.5436C40.1038 11.3243 40.0314 11.0595 40.0314 10.7493C40.0314 10.4762 40.0852 10.2549 40.1928 10.0852C40.3003 9.91356 40.4441 9.7791 40.6241 9.68188C40.804 9.58465 41.0026 9.51225 41.2198 9.46468C41.4391 9.41503 41.6594 9.37573 41.8807 9.34677C42.1703 9.30953 42.4051 9.28161 42.5851 9.26299C42.7671 9.2423 42.8995 9.20817 42.9822 9.16059C43.0671 9.11302 43.1095 9.03027 43.1095 8.91236V8.88754C43.1095 8.58139 43.0257 8.34351 42.8581 8.17388C42.6926 8.00426 42.4413 7.91945 42.1041 7.91945C41.7545 7.91945 41.4805 7.99599 41.2819 8.14906C41.0833 8.30213 40.9437 8.46555 40.863 8.63931L40.1679 8.39108C40.2921 8.10148 40.4575 7.87601 40.6644 7.71466C40.8733 7.55124 41.1009 7.43747 41.347 7.37334C41.5953 7.30715 41.8394 7.27405 42.0793 7.27405C42.2324 7.27405 42.4082 7.29267 42.6068 7.3299C42.8075 7.36507 43.0009 7.4385 43.187 7.55021C43.3753 7.66191 43.5315 7.8305 43.6556 8.05597C43.7797 8.28145 43.8417 8.58346 43.8417 8.96201V12.1021H43.1095V11.4567H43.0722C43.0226 11.5601 42.9398 11.6708 42.824 11.7887C42.7082 11.9066 42.554 12.007 42.3617 12.0897C42.1693 12.1724 41.9345 12.2138 41.6573 12.2138ZM41.769 11.556C42.0586 11.556 42.3027 11.4991 42.5013 11.3853C42.702 11.2716 42.853 11.1247 42.9543 10.9447C43.0577 10.7648 43.1095 10.5755 43.1095 10.3769V9.7067C43.0784 9.74393 43.0102 9.77806 42.9047 9.80909C42.8012 9.83805 42.6813 9.86391 42.5447 9.88667C42.4103 9.90735 42.2789 9.92597 42.1507 9.94252C42.0245 9.957 41.9221 9.96941 41.8435 9.97975C41.6532 10.0046 41.4753 10.0449 41.3098 10.1008C41.1464 10.1545 41.014 10.2363 40.9126 10.3459C40.8133 10.4535 40.7637 10.6003 40.7637 10.7865C40.7637 11.0409 40.8578 11.2333 41.0461 11.3636C41.2364 11.4919 41.4774 11.556 41.769 11.556ZM46.978 12.2014C46.5808 12.2014 46.2302 12.1011 45.9261 11.9004C45.622 11.6977 45.3841 11.4122 45.2124 11.044C45.0407 10.6738 44.9549 10.2363 44.9549 9.73152C44.9549 9.23093 45.0407 8.79652 45.2124 8.42832C45.3841 8.06011 45.623 7.77568 45.9292 7.57503C46.2353 7.37438 46.5891 7.27405 46.9904 7.27405C47.3007 7.27405 47.5458 7.32577 47.7258 7.4292C47.9078 7.53056 48.0464 7.6464 48.1415 7.77672C48.2388 7.90497 48.3143 8.01047 48.368 8.09321H48.4301V5.74744H49.1624V12.1021H48.4549V11.3698H48.368C48.3143 11.4567 48.2377 11.5664 48.1384 11.6987C48.0391 11.8291 47.8974 11.9459 47.7133 12.0494C47.5292 12.1507 47.2841 12.2014 46.978 12.2014ZM47.0773 11.5436C47.371 11.5436 47.6192 11.4671 47.8219 11.314C48.0247 11.1588 48.1788 10.9447 48.2843 10.6717C48.3898 10.3966 48.4425 10.079 48.4425 9.71911C48.4425 9.36331 48.3908 9.05199 48.2874 8.78515C48.1839 8.51623 48.0309 8.30731 47.8281 8.15837C47.6254 8.00736 47.3751 7.93186 47.0773 7.93186C46.767 7.93186 46.5084 8.0115 46.3015 8.17078C46.0967 8.32799 45.9426 8.54209 45.8392 8.81307C45.7378 9.08199 45.6872 9.384 45.6872 9.71911C45.6872 10.0584 45.7389 10.3666 45.8423 10.6438C45.9478 10.9189 46.103 11.1382 46.3077 11.3016C46.5146 11.4629 46.7711 11.5436 47.0773 11.5436ZM52.5414 12.2014C52.1111 12.2014 51.7336 12.099 51.4089 11.8942C51.0862 11.6894 50.8338 11.4029 50.6518 11.0347C50.4718 10.6665 50.3818 10.2363 50.3818 9.74393C50.3818 9.24747 50.4718 8.81411 50.6518 8.44383C50.8338 8.07356 51.0862 7.78602 51.4089 7.58124C51.7336 7.37645 52.1111 7.27405 52.5414 7.27405C52.9717 7.27405 53.3481 7.37645 53.6708 7.58124C53.9956 7.78602 54.248 8.07356 54.4279 8.44383C54.61 8.81411 54.701 9.24747 54.701 9.74393C54.701 10.2363 54.61 10.6665 54.4279 11.0347C54.248 11.4029 53.9956 11.6894 53.6708 11.8942C53.3481 12.099 52.9717 12.2014 52.5414 12.2014ZM52.5414 11.5436C52.8682 11.5436 53.1372 11.4598 53.3481 11.2923C53.5591 11.1247 53.7153 10.9044 53.8167 10.6314C53.918 10.3583 53.9687 10.0625 53.9687 9.74393C53.9687 9.42537 53.918 9.12853 53.8167 8.85341C53.7153 8.57829 53.5591 8.35592 53.3481 8.18629C53.1372 8.01667 52.8682 7.93186 52.5414 7.93186C52.2146 7.93186 51.9457 8.01667 51.7347 8.18629C51.5237 8.35592 51.3675 8.57829 51.2661 8.85341C51.1648 9.12853 51.1141 9.42537 51.1141 9.74393C51.1141 10.0625 51.1648 10.3583 51.2661 10.6314C51.3675 10.9044 51.5237 11.1247 51.7347 11.2923C51.9457 11.4598 52.2146 11.5436 52.5414 11.5436ZM55.8188 12.1021V7.33611H56.5263V8.05597H56.5759C56.6628 7.82016 56.82 7.62881 57.0475 7.48194C57.2751 7.33507 57.5316 7.26164 57.8171 7.26164C57.8708 7.26164 57.9381 7.26267 58.0187 7.26474C58.0994 7.26681 58.1604 7.26991 58.2018 7.27405V8.01874C58.177 8.01253 58.1201 8.00323 58.0311 7.99081C57.9443 7.97633 57.8522 7.96909 57.755 7.96909C57.5233 7.96909 57.3165 8.01771 57.1344 8.11493C56.9545 8.21008 56.8117 8.34247 56.7062 8.5121C56.6028 8.67965 56.5511 8.87099 56.5511 9.08613V12.1021H55.8188Z" fill="#1E1E1E"/>
<path d="M23.2825 64.1213C34.3825 65.4613 48.8725 65.9813 60.9425 64.1213C62.3125 63.9213 66.1125 63.9113 64.0625 67.2413C64.0625 69.8713 64.6925 71.6513 64.0625 73.4813C62.7525 76.9413 61.9325 75.5413 60.9425 76.6013C49.3525 75.8613 35.5225 74.2313 23.2825 76.6013C22.6825 74.2513 21.3125 75.6313 20.1625 73.4813C19.6725 70.8913 20.3525 69.4013 20.1625 67.2413C21.1925 64.4013 23.2825 62.1813 23.2825 64.1213Z" fill="white"/>
<path d="M23.2825 64.1213C30.6325 64.1413 38.3325 64.8113 60.9425 64.1213M23.2825 64.1213C33.2425 63.8613 42.8725 64.5813 60.9425 64.1213M23.2825 64.1213C21.0125 63.5413 20.3125 64.3513 20.1625 67.2413M23.2825 64.1213C20.7725 65.2013 21.1425 66.0913 20.1625 67.2413M60.9425 64.1213C63.3425 64.9113 64.0325 65.6913 64.0625 67.2413M60.9425 64.1213C62.2925 64.4313 63.1825 64.3313 64.0625 67.2413M64.0625 67.2413C64.0925 69.3713 64.3425 71.7013 64.0625 73.4813M64.0625 67.2413C64.0125 69.2713 63.9725 71.3113 64.0625 73.4813M64.0625 73.4813C63.9025 76.5413 63.5525 77.5113 60.9425 76.6013M64.0625 73.4813C64.6825 76.1813 62.8525 77.0013 60.9425 76.6013M60.9425 76.6013C50.3825 76.5513 39.6325 76.7913 23.2825 76.6013M60.9425 76.6013C46.8225 76.8413 33.4725 76.3013 23.2825 76.6013M23.2825 76.6013C22.1525 76.2813 19.7625 75.5113 20.1625 73.4813M23.2825 76.6013C20.3325 76.9913 21.0725 76.0113 20.1625 73.4813M20.1625 73.4813C20.1625 71.6713 19.9325 69.7613 20.1625 67.2413M20.1625 73.4813C20.0625 70.9813 20.2825 68.7013 20.1625 67.2413" stroke="#1E1E1E" stroke-linecap="round"/>
<path d="M36.6045 67.8877C37.6045 67.4777 40.5745 65.5077 42.4845 65.4077C44.3945 65.2977 47.1345 66.9577 48.0645 67.2777M35.9345 67.3177C36.9045 66.9877 40.2345 65.9277 42.2345 65.9777C44.2345 66.0277 46.9045 67.3677 47.9345 67.6277" stroke="#1E1E1E" stroke-linecap="round"/>
<path d="M36.8819 67.4921C37.8719 67.8521 40.6119 69.6721 42.4619 69.6921C44.3119 69.7021 47.0519 67.8121 47.9719 67.5921M36.4019 68.5521C37.3519 68.9821 40.3319 70.2421 42.2419 70.1421C44.1519 70.0421 46.8219 68.4121 47.8419 67.9521" stroke="#1E1E1E" stroke-linecap="round"/>
<path d="M42.4372 66.7197C42.4472 66.9497 42.4572 67.9397 42.4672 68.2897M42.1472 67.3197C42.1172 67.6097 42.2772 68.4297 42.3272 68.5797" stroke="#1E1E1E" stroke-linecap="round"/>
<path d="M30.0955 71.2979C37.1455 71.4379 41.7755 71.4579 54.1655 71.2979C57.4455 73.3279 57.5755 70.4279 55.4855 72.6179C55.5055 73.3179 55.4855 74.4879 55.4855 75.2579C54.7355 73.9979 52.6655 78.0579 54.1655 76.5779C50.8355 78.7479 46.3155 75.2479 30.0955 76.5779C28.2355 77.4179 30.3355 77.1679 28.7755 75.2579C28.4155 74.2279 28.8555 74.1079 28.7755 72.6179C28.7555 74.0479 31.2555 73.2779 30.0955 71.2979Z" fill="white"/>
<path d="M30.0955 71.2979C38.2755 72.0479 48.7755 71.5279 54.1655 71.2979M30.0955 71.2979C38.9055 71.3679 47.9655 70.8679 54.1655 71.2979M30.0955 71.2979C29.5655 70.7379 29.1055 72.2279 28.7755 72.6179M30.0955 71.2979C30.1155 70.9879 29.4455 71.9579 28.7755 72.6179M54.1655 71.2979C55.8355 71.0779 55.5455 71.8679 55.4855 72.6179M54.1655 71.2979C54.2055 72.3779 54.5255 72.0679 55.4855 72.6179M55.4855 72.6179C55.4755 73.4179 55.4655 74.3579 55.4855 75.2579M55.4855 72.6179C55.5355 73.7079 55.4855 74.7379 55.4855 75.2579M55.4855 75.2579C55.2655 75.5979 55.2255 76.4579 54.1655 76.5779M55.4855 75.2579C55.3955 75.6379 55.2355 77.3279 54.1655 76.5779M54.1655 76.5779C45.5355 76.6279 35.5755 77.4479 30.0955 76.5779M54.1655 76.5779C47.3455 76.7379 41.6755 76.7679 30.0955 76.5779M30.0955 76.5779C29.3855 75.6479 29.4955 76.0579 28.7755 75.2579M30.0955 76.5779C29.8255 75.6079 29.6455 77.1679 28.7755 75.2579M28.7755 75.2579C28.7355 74.3379 28.8555 73.1779 28.7755 72.6179M28.7755 75.2579C28.8355 74.7279 28.7555 74.1679 28.7755 72.6179" stroke="#1E1E1E" stroke-linecap="round"/>
<path d="M32.2682 71.7685C32.2382 72.6685 32.1282 75.8585 32.0782 76.6585M31.9882 71.5685C31.9082 72.4085 31.9082 75.4485 31.8582 76.1785" stroke="#1E1E1E" stroke-linecap="round"/>
<path d="M34.7771 71.8312C34.7271 72.6312 34.7171 75.7912 34.6571 76.5612M34.4071 71.6712C34.2871 72.3512 34.2471 75.1612 34.3771 76.0312" stroke="#1E1E1E" stroke-linecap="round"/>
<path d="M36.8073 71.676C36.7473 72.446 36.6373 75.676 36.5973 76.406M36.3773 71.466C36.4173 72.096 37.1273 75.026 37.2773 75.826" stroke="#1E1E1E" stroke-linecap="round"/>
<path d="M39.9854 71.8466C39.9354 72.5666 39.8554 75.5366 39.9354 76.3066M40.5154 71.5866C40.5754 72.3366 40.6054 75.7566 40.5954 76.6266" stroke="#1E1E1E" stroke-linecap="round"/>
<path d="M42.9392 71.3118C43.0192 72.0918 43.4392 75.4618 43.4892 76.3118M43.4492 71.9518C43.5292 72.7718 43.4292 75.9118 43.3492 76.7218" stroke="#1E1E1E" stroke-linecap="round"/>
<path d="M46.7915 71.894C46.8415 72.624 46.6215 75.364 46.5315 76.114M46.5015 71.544C46.5315 72.364 46.1815 75.864 46.2615 76.584" stroke="#1E1E1E" stroke-linecap="round"/>
<path d="M50.0641 71.9727C49.9741 72.7227 49.8341 75.6327 49.7841 76.3127M49.6441 71.6927C49.6441 72.3527 50.3141 75.2427 50.4441 75.8627" stroke="#1E1E1E" stroke-linecap="round"/>
<path d="M52.6939 72.1424C52.6339 72.8224 52.5539 75.3424 52.6139 75.9524M53.2039 72.0024C53.2539 72.5724 53.3139 74.6924 53.2539 75.3824" stroke="#1E1E1E" stroke-linecap="round"/>
<path d="M28.3807 35.5569C28.9207 35.3869 29.3307 35.5769 29.9707 35.5569C32.2107 37.7269 33.0007 34.4869 30.7607 36.3569C31.9007 42.6069 32.9507 48.4369 30.7607 63.1169C28.2407 61.2969 31.3407 66.0669 29.9707 63.9069C29.6507 63.7669 29.0307 64.1169 28.3807 63.9069C30.2207 66.3569 29.3607 61.6069 27.5807 63.1169C24.9907 52.0269 28.8707 44.8869 27.5807 36.3569C26.9907 37.2869 27.0207 37.8269 28.3807 35.5569Z" fill="white"/>
<path d="M28.3807 35.5569C28.7607 35.5869 29.0807 35.5369 29.9707 35.5569M28.3807 35.5569C28.8307 35.5969 29.3107 35.5969 29.9707 35.5569M28.3807 35.5569C27.4307 35.1469 27.0807 36.3569 27.5807 36.3569M28.3807 35.5569C27.8807 35.5769 27.6807 35.0369 27.5807 36.3569M29.9707 35.5569C31.0307 36.0969 30.6207 36.1669 30.7607 36.3569M29.9707 35.5569C30.2307 34.9369 30.9607 35.6769 30.7607 36.3569M30.7607 36.3569C31.3607 44.8569 31.2907 51.2869 30.7607 63.1169M30.7607 36.3569C31.2607 44.9069 30.5807 53.7669 30.7607 63.1169M30.7607 63.1169C30.0107 63.9769 31.2807 64.2969 29.9707 63.9069M30.7607 63.1169C30.9507 62.5869 31.3307 63.8169 29.9707 63.9069M29.9707 63.9069C29.4707 63.9969 28.7807 63.8769 28.3807 63.9069M29.9707 63.9069C29.5607 63.8769 29.1407 63.8869 28.3807 63.9069M28.3807 63.9069C28.7007 64.7169 27.2007 64.5769 27.5807 63.1169M28.3807 63.9069C28.2307 64.4769 27.9907 63.0069 27.5807 63.1169M27.5807 63.1169C27.2807 53.4469 28.3407 43.4569 27.5807 36.3569M27.5807 63.1169C27.5807 55.5269 27.9707 47.4169 27.5807 36.3569" stroke="#1E1E1E" stroke-linecap="round"/>
<path d="M55.618 36.0117C55.998 36.0317 56.348 36.1817 57.068 36.0117C59.798 34.6717 56.808 37.0917 57.798 36.7417C60.018 44.4817 55.418 53.7717 57.798 63.6417C58.638 66.2717 57.538 66.6817 57.068 64.3617C56.538 64.5217 56.138 64.5317 55.618 64.3617C56.908 62.3317 56.348 66.1117 54.888 63.6417C56.758 55.0717 54.608 46.3017 54.888 36.7417C54.068 38.5217 53.168 34.9317 55.618 36.0117Z" fill="white"/>
<path d="M55.618 36.0117C55.918 35.9817 56.238 35.9617 57.068 36.0117M55.618 36.0117C56.048 36.0417 56.458 36.0217 57.068 36.0117M55.618 36.0117C55.218 35.3217 54.468 35.8517 54.888 36.7417M55.618 36.0117C54.798 35.0617 54.918 36.2717 54.888 36.7417M57.068 36.0117C57.408 36.3617 57.568 35.7217 57.798 36.7417M57.068 36.0117C57.758 35.8717 57.708 35.7517 57.798 36.7417M57.798 36.7417C58.468 44.5517 58.138 53.8717 57.798 63.6417M57.798 36.7417C57.728 42.6017 57.548 48.6817 57.798 63.6417M57.798 63.6417C58.588 64.5117 57.718 63.4417 57.068 64.3617M57.798 63.6417C58.628 64.0317 58.168 63.3917 57.068 64.3617M57.068 64.3617C56.468 64.3417 55.948 64.4417 55.618 64.3617M57.068 64.3617C56.548 64.3417 56.078 64.3917 55.618 64.3617M55.618 64.3617C54.758 65.3017 55.218 64.6117 54.888 63.6417M55.618 64.3617C55.538 63.7217 55.558 64.3417 54.888 63.6417M54.888 63.6417C55.708 52.9817 54.938 43.2817 54.888 36.7417M54.888 63.6417C55.278 58.4317 54.638 52.6917 54.888 36.7417" stroke="#1E1E1E" stroke-linecap="round"/>
<path d="M25.8671 33.3898C26.3971 33.0998 28.0871 31.4498 29.2971 31.6098C30.5071 31.7698 32.4471 33.8898 33.1371 34.3398M26.4371 33.0598C27.0771 32.8298 28.9071 31.8998 29.9771 32.0298C31.0471 32.1598 32.2871 33.5498 32.8771 33.8298" stroke="#1E1E1E" stroke-linecap="round"/>
<path d="M23.6995 31.7239C24.7295 31.2439 27.9695 28.7639 29.9895 28.8739C32.0095 28.9839 34.8495 31.8339 35.8195 32.3939M24.5195 31.1939C25.4895 30.5839 27.6695 28.1239 29.5195 28.1839C31.3695 28.2539 34.5295 31.0839 35.6295 31.5839" stroke="#1E1E1E" stroke-linecap="round"/>
<path d="M21.6962 29.4405C23.2662 28.7105 27.9162 24.3205 30.8562 24.4505C33.7962 24.5805 37.9862 29.2605 39.3362 30.2005M20.9862 29.2405C22.5462 28.3805 27.5562 23.7305 30.5762 23.7405C33.6062 23.7505 37.7362 28.1305 39.1462 29.2905" stroke="#1E1E1E" stroke-linecap="round"/>
<path d="M53.853 34.5827C54.483 34.2627 56.223 32.6327 57.383 32.6927C58.543 32.7527 60.243 34.6227 60.803 34.9527M53.523 34.4427C54.123 34.1727 56.023 32.1827 57.203 32.1727C58.373 32.1527 59.953 33.8727 60.553 34.3227" stroke="#1E1E1E" stroke-linecap="round"/>
<path d="M52.0155 32.9468C52.9555 32.3168 55.8255 29.4468 57.6655 29.3568C59.5155 29.2768 62.1355 31.8768 63.0655 32.4268M51.4955 32.6268C52.3355 32.0568 55.3355 28.4468 57.1955 28.4868C59.0555 28.5368 61.6155 32.1068 62.6555 32.8768" stroke="#1E1E1E" stroke-linecap="round"/>
<path d="M49.3722 29.9233C50.7622 29.0033 55.2022 24.3633 58.1022 24.4933C61.0122 24.6133 65.3822 29.6633 66.8122 30.6633M48.6722 29.5433C49.9522 28.6633 54.6322 24.7533 57.6122 25.0333C60.5822 25.3233 64.9822 30.2533 66.5122 31.2333" stroke="#1E1E1E" stroke-linecap="round"/>
</svg>
