<svg width="85" height="126" viewBox="0 0 85 126" fill="none" xmlns="http://www.w3.org/2000/svg">
<path fill-rule="evenodd" clip-rule="evenodd" d="M66.0741 30.1884C66.3141 29.9484 66.3141 29.2184 67.5241 28.7384C68.7441 28.2484 72.3741 27.5184 73.3441 27.2784" fill="white"/>
<path d="M65.6141 29.2585C65.6141 29.2585 65.8908 29.1251 66.4441 28.8585C67.0108 28.5918 68.0741 28.1618 69.6341 27.5685C71.1875 26.9751 72.0208 26.6685 72.1341 26.6485C72.2475 26.6218 72.3575 26.6185 72.4641 26.6385C72.5775 26.6518 72.6841 26.6818 72.7841 26.7285C72.8908 26.7818 72.9841 26.8485 73.0641 26.9285C73.1441 27.0085 73.2075 27.0985 73.2541 27.1985C73.3075 27.2985 73.3408 27.4051 73.3541 27.5185C73.3675 27.6318 73.3641 27.7418 73.3441 27.8485C73.3241 27.9618 73.2875 28.0685 73.2341 28.1685C73.1741 28.2618 73.1041 28.3485 73.0241 28.4285C72.9375 28.5018 72.8441 28.5618 72.7441 28.6085C72.6375 28.6551 72.5275 28.6818 72.4141 28.6885C72.3008 28.6951 72.1908 28.6851 72.0841 28.6585C71.9708 28.6318 71.8675 28.5885 71.7741 28.5285C71.6808 28.4685 71.5975 28.3951 71.5241 28.3085C71.4575 28.2218 71.4041 28.1251 71.3641 28.0185C71.3241 27.9118 71.3008 27.8018 71.2941 27.6885C71.2941 27.5751 71.3108 27.4651 71.3441 27.3585C71.3775 27.2518 71.4275 27.1518 71.4941 27.0585C71.5541 26.9651 71.6308 26.8851 71.7241 26.8185C71.8175 26.7518 71.9175 26.7018 72.0241 26.6685C72.1308 26.6351 72.2408 26.6218 72.3541 26.6285C72.4675 26.6285 72.5775 26.6485 72.6841 26.6885C72.7908 26.7285 72.8875 26.7818 72.9741 26.8485C73.0608 26.9218 73.1375 27.0051 73.2041 27.0985C73.2641 27.1918 73.3075 27.2951 73.3341 27.4085C73.3608 27.5151 73.3708 27.6251 73.3641 27.7385C73.3508 27.8518 73.3241 27.9618 73.2841 28.0685C73.2375 28.1685 73.1775 28.2618 73.1041 28.3485C73.0241 28.4351 72.9375 28.5051 72.8441 28.5585C72.7441 28.6118 72.6941 28.6385 72.6941 28.6385C72.6941 28.6385 71.9441 28.9085 70.4441 29.4485C68.9441 29.9818 67.9175 30.3918 67.3641 30.6785C66.8108 30.9718 66.4941 31.1318 66.4141 31.1585C66.3408 31.1918 66.2608 31.2118 66.1741 31.2185C66.0941 31.2251 66.0141 31.2218 65.9341 31.2085C65.8475 31.2018 65.7675 31.1818 65.6941 31.1485C65.6141 31.1151 65.5408 31.0751 65.4741 31.0285C65.4075 30.9751 65.3441 30.9185 65.2841 30.8585C65.2308 30.7918 65.1875 30.7218 65.1541 30.6485C65.1141 30.5751 65.0841 30.4951 65.0641 30.4085C65.0441 30.3285 65.0375 30.2485 65.0441 30.1685C65.0441 30.0885 65.0541 30.0085 65.0741 29.9285C65.0941 29.8418 65.1275 29.7618 65.1741 29.6885C65.2141 29.6151 65.2608 29.5485 65.3141 29.4885C65.3741 29.4285 65.4375 29.3751 65.5041 29.3285C65.5775 29.2818 65.6141 29.2585 65.6141 29.2585Z" fill="#1E1E1E"/>
<path d="M21.8771 1.8487C33.4171 0.728705 53.5471 4.6587 62.2771 1.8487C79.0171 0.708705 83.5171 9.89871 82.4771 22.0487C79.1971 45.6387 84.7271 63.1587 82.4771 103.599C84.3371 119.029 76.5471 123.989 62.2771 123.799C53.6471 121.639 42.9671 127.169 21.8771 123.799C6.73714 127.189 -0.392863 117.839 1.67714 103.599C-1.98286 76.9187 4.22714 52.3287 1.67714 22.0487C0.557137 8.58871 8.45714 5.0387 21.8771 1.8487Z" fill="white"/>
<path d="M21.8771 1.84869C34.9771 2.58869 50.0271 2.84869 62.2771 1.84869M21.8771 1.84869C29.3171 2.21869 37.6771 1.77869 62.2771 1.84869M21.8771 1.84869C6.45713 1.53869 -0.00287157 7.3587 1.67713 22.0487M21.8771 1.84869C6.23713 1.60869 3.02713 6.67869 1.67713 22.0487M62.2771 1.84869C76.1771 0.328694 80.6371 9.55869 82.4771 22.0487M62.2771 1.84869C75.7371 3.41869 81.0371 10.1687 82.4771 22.0487M82.4771 22.0487C83.7771 46.5887 82.9571 73.6987 82.4771 103.599M82.4771 22.0487C82.6271 51.2987 82.0371 78.8487 82.4771 103.599M82.4771 103.599C80.5671 115.759 77.0171 124.969 62.2771 123.799M82.4771 103.599C82.3371 117.359 74.2771 125.729 62.2771 123.799M62.2771 123.799C52.0871 124.009 41.7471 123.449 21.8771 123.799M62.2771 123.799C48.1171 124.499 32.2871 123.249 21.8771 123.799M21.8771 123.799C8.74713 124.019 -0.242872 116.589 1.67713 103.599M21.8771 123.799C9.18713 122.359 -0.482872 118.639 1.67713 103.599M1.67713 103.599C2.86713 81.9687 3.04713 63.8587 1.67713 22.0487M1.67713 103.599C1.80713 85.5987 1.64713 68.4887 1.67713 22.0487" stroke="#1E1E1E" stroke-width="2" stroke-linecap="round"/>
<path d="M22.952 1.67493C36.862 1.67493 50.782 1.67493 59.342 1.67493C61.822 1.67493 63.072 2.91493 63.072 5.40493C63.072 7.25493 63.072 9.10493 63.072 12.8549C63.072 15.3349 61.822 16.5749 59.342 16.5749C48.232 16.5749 37.122 16.5749 22.952 16.5749C20.462 16.5749 19.222 15.3349 19.222 12.8549C19.222 10.8749 19.222 8.89493 19.222 5.40493C19.222 2.91493 20.462 1.67493 22.952 1.67493Z" fill="white"/>
<path d="M22.952 1.67493C34.672 1.67493 46.392 1.67493 59.342 1.67493M22.952 1.67493C36.232 1.67493 49.512 1.67493 59.342 1.67493M22.952 1.67493C20.462 1.67493 19.222 2.91493 19.222 5.40493M59.342 1.67493C61.822 1.67493 63.072 2.91493 63.072 5.40493M63.072 5.40493C63.072 7.39493 63.072 9.38493 63.072 12.8549M63.072 5.40493C63.072 6.91493 63.072 8.42493 63.072 12.8549M63.072 12.8549C63.072 15.3349 61.822 16.5749 59.342 16.5749M59.342 16.5749C45.832 16.5749 32.332 16.5749 22.952 16.5749M59.342 16.5749C46.862 16.5749 34.372 16.5749 22.952 16.5749M22.952 16.5749C20.462 16.5749 19.222 15.3349 19.222 12.8549M19.222 12.8549C19.222 10.4449 19.222 8.03493 19.222 5.40493M19.222 12.8549C19.222 10.1649 19.222 7.48493 19.222 5.40493" stroke="#1E1E1E" stroke-width="2" stroke-linecap="round"/>
<path d="M10.1971 106.964C10.1871 106.064 10.1671 102.454 10.1571 101.554" stroke="#1E1E1E" stroke-linecap="round"/>
<path d="M10.1251 101.757C10.3751 101.397 11.3851 99.9769 11.6351 99.6169" stroke="#1E1E1E" stroke-linecap="round"/>
<path d="M13.1278 107.028C13.1378 106.128 13.1578 102.518 13.1678 101.618" stroke="#1E1E1E" stroke-linecap="round"/>
<path d="M13.1998 101.821C12.9498 101.461 11.9398 100.041 11.6898 99.6811" stroke="#1E1E1E" stroke-linecap="round"/>
<path d="M7.9848 107.515C9.1648 107.495 13.8648 107.415 15.0348 107.395" stroke="#1E1E1E" stroke-linecap="round"/>
<path d="M11.8433 107.605C11.8533 108.235 11.8933 110.775 11.9033 111.405" stroke="#1E1E1E" stroke-linecap="round"/>
<path d="M53.2546 102.686C53.6146 102.316 55.0546 100.816 55.4146 100.436" stroke="#1E1E1E" stroke-linecap="round"/>
<path d="M55.4101 100.396C55.8101 100.726 57.3901 102.046 57.7901 102.376" stroke="#1E1E1E" stroke-linecap="round"/>
<path d="M57.8799 102.641C57.1899 103.701 54.4399 107.951 53.7499 109.021" stroke="#1E1E1E" stroke-linecap="round"/>
<path d="M53.3219 102.686C52.9619 102.316 51.5219 100.816 51.1619 100.436" stroke="#1E1E1E" stroke-linecap="round"/>
<path d="M51.1664 100.396C50.7664 100.726 49.1864 102.046 48.7864 102.376" stroke="#1E1E1E" stroke-linecap="round"/>
<path d="M48.6965 102.641C49.3865 103.701 52.1365 107.951 52.8265 109.021" stroke="#1E1E1E" stroke-linecap="round"/>
<path d="M26.6751 11.8451H24.7141V5.49042H26.762C27.3784 5.49042 27.9059 5.61764 28.3444 5.87207C28.783 6.12444 29.1191 6.48748 29.3529 6.96118C29.5866 7.43282 29.7035 7.99754 29.7035 8.65535C29.7035 9.31729 29.5856 9.88718 29.3498 10.365C29.114 10.8408 28.7706 11.2069 28.3196 11.4634C27.8687 11.7179 27.3205 11.8451 26.6751 11.8451ZM25.4836 11.1625H26.6255C27.1509 11.1625 27.5863 11.0611 27.9318 10.8584C28.2772 10.6557 28.5348 10.3671 28.7044 9.99268C28.874 9.61827 28.9588 9.17249 28.9588 8.65535C28.9588 8.14234 28.875 7.7007 28.7075 7.33042C28.5399 6.95808 28.2896 6.67261 27.9566 6.47403C27.6235 6.27338 27.2088 6.17305 26.7123 6.17305H25.4836V11.1625ZM30.895 11.8451V7.07909H31.6273V11.8451H30.895ZM31.2673 6.28476C31.1246 6.28476 31.0015 6.23614 30.8981 6.13892C30.7967 6.0417 30.7461 5.92482 30.7461 5.7883C30.7461 5.65177 30.7967 5.5349 30.8981 5.43767C31.0015 5.34045 31.1246 5.29184 31.2673 5.29184C31.4101 5.29184 31.5321 5.34045 31.6335 5.43767C31.7369 5.5349 31.7886 5.65177 31.7886 5.7883C31.7886 5.92482 31.7369 6.0417 31.6335 6.13892C31.5321 6.23614 31.4101 6.28476 31.2673 6.28476ZM32.9685 7.07909H33.7008V12.1926C33.7008 12.4864 33.6501 12.7408 33.5487 12.9559C33.4494 13.1711 33.2984 13.3376 33.0957 13.4555C32.8951 13.5734 32.6417 13.6323 32.3355 13.6323C32.3107 13.6323 32.2859 13.6323 32.261 13.6323C32.2362 13.6323 32.2114 13.6323 32.1866 13.6323V12.9497C32.2114 12.9497 32.2341 12.9497 32.2548 12.9497C32.2755 12.9497 32.2983 12.9497 32.3231 12.9497C32.5465 12.9497 32.7099 12.8835 32.8133 12.7511C32.9168 12.6208 32.9685 12.4346 32.9685 12.1926V7.07909ZM33.3284 6.28476C33.1857 6.28476 33.0626 6.23614 32.9592 6.13892C32.8578 6.0417 32.8071 5.92482 32.8071 5.7883C32.8071 5.65177 32.8578 5.5349 32.9592 5.43767C33.0626 5.34045 33.1857 5.29184 33.3284 5.29184C33.4712 5.29184 33.5932 5.34045 33.6946 5.43767C33.798 5.5349 33.8497 5.65177 33.8497 5.7883C33.8497 5.92482 33.798 6.0417 33.6946 6.13892C33.5932 6.23614 33.4712 6.28476 33.3284 6.28476ZM35.7246 10.1075L35.7122 9.20145H35.8611L37.9463 7.07909H38.8523L36.6306 9.32557H36.5686L35.7246 10.1075ZM35.042 11.8451V5.49042H35.7743V11.8451H35.042ZM38.0704 11.8451L36.2087 9.48691L36.7299 8.97804L39.0012 11.8451H38.0704ZM43.1707 8.14648L42.5129 8.33265C42.4715 8.22301 42.4105 8.11648 42.3298 8.01305C42.2512 7.90756 42.1437 7.82067 42.0071 7.75241C41.8706 7.68415 41.6958 7.65002 41.4828 7.65002C41.1911 7.65002 40.948 7.71725 40.7536 7.8517C40.5612 7.98409 40.465 8.15268 40.465 8.35747C40.465 8.53951 40.5312 8.68327 40.6636 8.78877C40.796 8.89427 41.0028 8.98218 41.2842 9.05251L41.9916 9.22627C42.4178 9.3297 42.7353 9.48795 42.9442 9.70101C43.1531 9.91201 43.2576 10.184 43.2576 10.5171C43.2576 10.7901 43.179 11.0342 43.0218 11.2493C42.8666 11.4645 42.6494 11.6341 42.3702 11.7582C42.0909 11.8823 41.7662 11.9444 41.3959 11.9444C40.9098 11.9444 40.5074 11.8389 40.1889 11.6279C39.8703 11.4169 39.6686 11.1087 39.5838 10.7032L40.2788 10.5295C40.345 10.786 40.4702 10.9784 40.6543 11.1066C40.8405 11.2349 41.0835 11.299 41.3835 11.299C41.7248 11.299 41.9958 11.2266 42.1964 11.0818C42.3991 10.9349 42.5005 10.7591 42.5005 10.5543C42.5005 10.3888 42.4426 10.2502 42.3267 10.1385C42.2109 10.0247 42.033 9.93993 41.793 9.88408L40.9987 9.69791C40.5622 9.59448 40.2416 9.43417 40.0368 9.21696C39.8341 8.9977 39.7327 8.72361 39.7327 8.39471C39.7327 8.12579 39.8082 7.8879 39.9592 7.68105C40.1123 7.47419 40.3202 7.3118 40.5829 7.1939C40.8477 7.07599 41.1476 7.01703 41.4828 7.01703C41.9544 7.01703 42.3247 7.12046 42.5936 7.32732C42.8646 7.53418 43.0569 7.80723 43.1707 8.14648ZM46.4326 7.07909V7.69966H43.9627V7.07909H46.4326ZM44.6826 5.93724H45.4149V10.4798C45.4149 10.6867 45.4449 10.8418 45.5048 10.9453C45.5669 11.0466 45.6455 11.1149 45.7407 11.1501C45.8379 11.1831 45.9403 11.1997 46.0478 11.1997C46.1285 11.1997 46.1947 11.1956 46.2464 11.1873C46.2981 11.1769 46.3395 11.1687 46.3705 11.1625L46.5195 11.8203C46.4698 11.8389 46.4005 11.8575 46.3116 11.8761C46.2226 11.8968 46.1099 11.9072 45.9734 11.9072C45.7665 11.9072 45.5638 11.8627 45.3652 11.7737C45.1687 11.6848 45.0053 11.5493 44.875 11.3673C44.7467 11.1852 44.6826 10.9556 44.6826 10.6784V5.93724ZM47.5341 11.8451V7.07909H48.2416V7.79895H48.2912C48.3781 7.56314 48.5353 7.37179 48.7629 7.22492C48.9904 7.07806 49.2469 7.00462 49.5324 7.00462C49.5862 7.00462 49.6534 7.00566 49.7341 7.00772C49.8147 7.00979 49.8758 7.0129 49.9171 7.01703V7.76172C49.8923 7.75551 49.8354 7.74621 49.7465 7.73379C49.6596 7.71931 49.5675 7.71207 49.4703 7.71207C49.2386 7.71207 49.0318 7.76069 48.8497 7.85791C48.6698 7.95306 48.527 8.08545 48.4215 8.25508C48.3181 8.42263 48.2664 8.61397 48.2664 8.82911V11.8451H47.5341ZM52.1876 11.9568C51.8856 11.9568 51.6115 11.8999 51.3654 11.7861C51.1192 11.6703 50.9237 11.5038 50.7789 11.2866C50.6341 11.0673 50.5617 10.8025 50.5617 10.4922C50.5617 10.2192 50.6155 9.99785 50.7231 9.82823C50.8307 9.65654 50.9744 9.52208 51.1544 9.42486C51.3344 9.32763 51.5329 9.25523 51.7501 9.20766C51.9694 9.15801 52.1897 9.11871 52.4111 9.08975C52.7007 9.05251 52.9354 9.02459 53.1154 9.00597C53.2974 8.98528 53.4298 8.95115 53.5126 8.90358C53.5974 8.856 53.6398 8.77325 53.6398 8.65535V8.63052C53.6398 8.32437 53.556 8.08649 53.3885 7.91686C53.223 7.74724 52.9716 7.66243 52.6345 7.66243C52.2849 7.66243 52.0108 7.73897 51.8122 7.89204C51.6136 8.04512 51.474 8.20853 51.3933 8.38229L50.6983 8.13406C50.8224 7.84446 50.9879 7.61899 51.1947 7.45764C51.4037 7.29422 51.6312 7.18045 51.8774 7.11632C52.1256 7.05013 52.3697 7.01703 52.6096 7.01703C52.7627 7.01703 52.9385 7.03565 53.1371 7.07288C53.3378 7.10805 53.5312 7.18148 53.7174 7.29319C53.9056 7.40489 54.0618 7.57348 54.1859 7.79895C54.31 8.02443 54.3721 8.32644 54.3721 8.70499V11.8451H53.6398V11.1997H53.6026C53.5529 11.3031 53.4702 11.4138 53.3543 11.5317C53.2385 11.6496 53.0844 11.7499 52.892 11.8327C52.6996 11.9154 52.4648 11.9568 52.1876 11.9568ZM52.2993 11.299C52.5889 11.299 52.833 11.2421 53.0316 11.1283C53.2323 11.0146 53.3833 10.8677 53.4846 10.6877C53.5881 10.5078 53.6398 10.3185 53.6398 10.1199V9.44968C53.6088 9.48691 53.5405 9.52105 53.435 9.55207C53.3316 9.58103 53.2116 9.60689 53.0751 9.62965C52.9406 9.65033 52.8093 9.66895 52.681 9.6855C52.5548 9.69998 52.4524 9.71239 52.3738 9.72273C52.1835 9.74755 52.0056 9.78789 51.8401 9.84374C51.6767 9.89753 51.5443 9.97924 51.443 10.0889C51.3437 10.1964 51.294 10.3433 51.294 10.5295C51.294 10.7839 51.3881 10.9763 51.5764 11.1066C51.7667 11.2349 52.0077 11.299 52.2993 11.299Z" fill="#1E1E1E"/>
<path d="M10.2398 90.0106C21.2298 90.0106 65.2098 90.0106 76.1998 90.0106" stroke="#1E1E1E" stroke-width="2" stroke-linecap="round"/>
<path d="M42.31 69.6317C43.58 67.4217 48 57.9217 49.08 55.6617M41.82 69.3217C43.07 67.2417 47.28 58.7417 48.63 56.3917" stroke="#1E1E1E" stroke-linecap="round"/>
<path d="M48.4185 54.8241C46.1385 54.8241 37.2985 55.1241 35.1185 55.0541M47.7285 54.3841C45.5985 54.2141 38.3085 54.2441 36.1785 54.3241" stroke="#1E1E1E" stroke-linecap="round"/>
<path d="M35.5375 55.2141C36.5375 53.3641 40.6875 45.5541 41.8275 43.7141M36.3575 54.9741C37.2775 53.1941 40.3475 46.2541 41.3275 44.3041" stroke="#1E1E1E" stroke-linecap="round"/>
<path d="M41.9864 43.2208C42.1564 41.3308 42.7064 34.2908 42.7664 32.5508M42.9264 42.6308C43.0764 40.8108 42.6864 33.5008 42.5364 31.7208" stroke="#1E1E1E" stroke-linecap="round"/>
<path d="M41.7108 43.9435C40.1008 43.3635 33.4008 40.8035 31.7108 40.1635M41.4108 43.7135C39.7608 43.0635 33.1108 40.3935 31.4308 39.7035" stroke="#1E1E1E" stroke-linecap="round"/>
<path d="M42.4391 44.1603C44.2391 43.4603 51.7891 40.4903 53.6791 39.7303M41.7591 43.9303C43.4491 43.0503 51.2191 39.8203 53.1591 38.9503" stroke="#1E1E1E" stroke-linecap="round"/>
<path d="M54.1016 39.7247C56.0316 39.8447 63.8116 40.3747 65.8416 40.5147M55.0116 39.4347C56.8616 39.6247 63.5216 39.6347 65.3716 39.6747" stroke="#1E1E1E" stroke-linecap="round"/>
<path d="M65.8376 40.5197C66.0776 42.7497 67.0476 51.9097 67.1676 54.0497M65.1376 40.1597C65.3476 42.2097 66.7476 50.9697 66.9176 53.2297" stroke="#1E1E1E" stroke-linecap="round"/>
<path d="M31.2362 39.5715C28.9362 40.1215 19.3262 42.1815 17.0162 42.7915M30.7462 39.2415C28.3562 39.8315 18.7462 42.5115 16.4662 43.2915" stroke="#1E1E1E" stroke-linecap="round"/>
<path d="M17.0138 42.7912C16.9738 42.7512 17.9938 45.4312 17.3438 43.2512C16.7038 41.0812 13.7338 32.0412 13.1538 29.7512M17.8938 43.7812C17.7638 43.8112 17.5838 46.2312 16.9638 43.9812C16.3438 41.7412 14.6738 32.6412 14.1938 30.2812" stroke="#1E1E1E" stroke-linecap="round"/>
<path d="M52.9512 36.3762C53.6212 36.3962 54.6212 37.0062 55.0812 37.4462C55.5312 37.8862 55.6712 38.3262 55.6612 39.0262C55.6612 39.7162 55.4212 41.0662 55.0412 41.6162C54.6512 42.1662 54.0012 42.2462 53.3512 42.3262C52.7112 42.4162 51.7112 42.4262 51.1612 42.1162C50.6112 41.7962 50.3212 41.0062 50.0612 40.4262C49.7912 39.8362 49.4812 39.2362 49.6012 38.6162C49.7112 38.0062 50.1312 37.0962 50.7412 36.7262C51.3512 36.3462 52.8812 36.3962 53.2612 36.3962C53.6312 36.3962 53.0112 36.7262 53.0112 36.7162M52.7212 36.4362C53.3712 36.4562 54.3012 36.6762 54.7712 37.0462C55.2412 37.4262 55.4812 38.0862 55.5512 38.6862C55.6312 39.2862 55.5212 40.0162 55.2312 40.6462C54.9512 41.2762 54.4012 42.1662 53.8212 42.4362C53.2412 42.7162 52.4312 42.5162 51.7412 42.2762C51.0512 42.0362 50.0112 41.5262 49.6912 40.9962C49.3712 40.4662 49.6812 39.7462 49.8212 39.0962C49.9512 38.4362 49.9812 37.5762 50.5212 37.0562C51.0612 36.5262 52.6512 36.1362 53.0612 35.9462C53.4612 35.7662 52.9612 35.9062 52.9512 35.9662" fill="white"/>
<path d="M51.9612 35.9962C52.6312 35.8062 53.9312 36.1162 54.4912 36.5162C55.0512 36.9262 55.1412 37.8262 55.3312 38.4362C55.5312 39.0462 55.8312 39.5862 55.6612 40.1962C55.4912 40.8062 54.9412 41.7562 54.3012 42.0962C53.6512 42.4362 52.4312 42.3662 51.7912 42.2162C51.1412 42.0762 50.8612 41.7262 50.4512 41.2162C50.0412 40.6962 49.3812 39.8362 49.3312 39.1462C49.2812 38.4562 49.7212 37.5962 50.1712 37.0662C50.6212 36.5362 51.6812 36.0562 52.0312 35.9662C52.3812 35.8862 52.2612 36.4862 52.2612 36.5462M53.0212 35.8362C53.5912 35.9262 54.0212 36.7262 54.5512 37.2962C55.0812 37.8562 56.0812 38.6162 56.1912 39.2362C56.3112 39.8662 55.6012 40.5762 55.2312 41.0362C54.8612 41.4962 54.6112 41.8462 53.9612 42.0162C53.3112 42.1862 52.0412 42.1562 51.3212 42.0662C50.6112 41.9762 49.8912 41.9762 49.6712 41.4762C49.4612 40.9662 49.8312 39.7162 50.0312 39.0262C50.2412 38.3262 50.4312 37.7562 50.8812 37.3062C51.3312 36.8462 52.4512 36.5262 52.7212 36.2962C52.9912 36.0662 52.5112 35.8162 52.5012 35.9262" stroke="#1E1E1E" stroke-width="0.5" stroke-linecap="round"/>
<path d="M65.5789 37.4019C66.2189 37.3919 66.8389 37.4919 67.2589 38.0219C67.6789 38.5519 68.0389 39.8919 68.0889 40.5819C68.1289 41.2819 67.9389 41.7419 67.5289 42.2119C67.1189 42.6819 66.2389 43.2819 65.6189 43.4219C64.9989 43.5519 64.4089 43.2819 63.8089 43.0019C63.2089 42.7119 62.3389 42.3219 61.9989 41.7119C61.6589 41.1119 61.5189 40.0019 61.7689 39.3519C62.0189 38.6919 62.8789 38.0519 63.4689 37.7719C64.0689 37.4819 64.9589 37.7419 65.3289 37.6219C65.7089 37.5019 65.7089 37.0619 65.7289 37.0619M64.8789 37.3319C65.4589 37.1819 66.1289 37.3519 66.6389 37.6719C67.1389 38.0019 67.6789 38.5919 67.8889 39.2819C68.0989 39.9719 68.1489 41.1719 67.9089 41.8119C67.6689 42.4519 67.1189 42.8719 66.4589 43.1419C65.7989 43.4019 64.5589 43.5219 63.9289 43.3919C63.3089 43.2719 63.0489 42.9119 62.6989 42.3719C62.3389 41.8219 61.7089 40.8819 61.7989 40.1319C61.8889 39.3719 62.6989 38.3819 63.2389 37.8419C63.7889 37.3019 64.7489 37.0219 65.0589 36.8919C65.3789 36.7519 65.1789 36.9719 65.1289 37.0419" fill="white"/>
<path d="M65.4289 37.0619C66.0489 37.1219 66.4189 37.7219 66.8789 38.1619C67.3489 38.6019 68.0589 39.0419 68.1989 39.6919C68.3489 40.3419 68.1789 41.4819 67.7489 42.0619C67.3189 42.6319 66.2589 42.9519 65.6289 43.1219C65.0089 43.2919 64.5989 43.3419 63.9989 43.0819C63.3989 42.8319 62.3789 42.1919 62.0189 41.5719C61.6689 40.9519 61.6989 40.0419 61.8489 39.3619C62.0089 38.6919 62.3989 37.8519 62.9589 37.5319C63.5089 37.2119 64.8489 37.5319 65.1889 37.4419C65.5289 37.3519 64.9989 36.9419 64.9989 37.0019M64.4389 37.6119C65.0689 37.6219 66.5189 37.8219 67.0789 38.1319C67.6389 38.4419 67.6289 38.9519 67.7989 39.4619C67.9789 39.9719 68.3889 40.6219 68.1189 41.1819C67.8589 41.7419 66.8889 42.3519 66.2289 42.8119C65.5589 43.2619 64.6589 43.9619 64.1289 43.9019C63.5989 43.8419 63.3889 43.0119 63.0589 42.4619C62.7389 41.9119 62.2189 41.2819 62.1689 40.6019C62.1189 39.9119 62.3989 38.9719 62.7689 38.3619C63.1389 37.7419 64.0989 36.9919 64.3989 36.8819C64.6989 36.7719 64.5689 37.5119 64.5489 37.7019" stroke="#1E1E1E" stroke-width="0.5" stroke-linecap="round"/>
<path d="M66.6678 51.3234C67.2878 51.3334 68.1778 52.2234 68.7078 52.7034C69.2378 53.1734 69.7478 53.5834 69.8478 54.1934C69.9478 54.8034 69.6278 55.8134 69.3078 56.3834C68.9878 56.9534 68.5778 57.3634 67.9278 57.6134C67.2678 57.8534 66.1078 58.0934 65.3878 57.8634C64.6678 57.6234 63.8978 56.8134 63.6078 56.1934C63.3278 55.5734 63.5278 54.7534 63.6778 54.1534C63.8278 53.5634 63.9778 53.0734 64.5178 52.6034C65.0678 52.1234 66.5678 51.4634 66.9578 51.3134C67.3478 51.1634 66.9178 51.5734 66.8678 51.6834M66.6778 51.4934C67.2678 51.4334 68.1478 51.6934 68.6678 52.1934C69.1878 52.7034 69.7078 53.8034 69.8278 54.5034C69.9478 55.2134 69.8178 55.8634 69.3878 56.4034C68.9678 56.9434 67.8978 57.5034 67.2778 57.7434C66.6578 57.9734 66.2478 58.0734 65.6578 57.8134C65.0778 57.5434 64.0278 56.8534 63.7678 56.1634C63.4978 55.4834 63.8378 54.4134 64.0678 53.6934C64.2878 52.9734 64.5978 52.2534 65.1278 51.8634C65.6578 51.4734 66.9478 51.4234 67.2278 51.3434C67.5078 51.2734 66.9278 51.2434 66.8078 51.4134" fill="white"/>
<path d="M65.9178 51.7334C66.5078 51.5734 67.7278 51.4334 68.3678 51.7634C68.9978 52.0934 69.5778 53.0634 69.7378 53.7134C69.8878 54.3534 69.5078 55.0234 69.2878 55.6234C69.0578 56.2334 68.9578 56.9934 68.3778 57.3234C67.8078 57.6434 66.5678 57.7534 65.8578 57.5934C65.1478 57.4434 64.5278 56.9434 64.1078 56.4034C63.6978 55.8634 63.3278 54.9334 63.3578 54.3434C63.3778 53.7534 63.8378 53.3834 64.2678 52.8734C64.7078 52.3734 65.6278 51.4934 65.9578 51.3334C66.2878 51.1634 66.2578 51.7534 66.2578 51.9034M66.6978 52.1034C67.3078 51.9434 67.6378 51.9934 68.1578 52.2234C68.6678 52.4534 69.6278 52.9134 69.8078 53.4834C69.9978 54.0534 69.5678 54.8834 69.2378 55.6234C68.9078 56.3734 68.2778 57.5734 67.8178 57.9634C67.3678 58.3434 67.0378 58.0834 66.4778 57.9034C65.9278 57.7334 64.9478 57.4734 64.4878 56.9234C64.0178 56.3834 63.7078 55.4334 63.6678 54.6534C63.6278 53.8834 63.8078 52.6934 64.2378 52.2534C64.6678 51.8134 65.9678 52.0234 66.2478 52.0034C66.5378 51.9834 65.8478 52.1834 65.9278 52.1434" stroke="#1E1E1E" stroke-width="0.5" stroke-linecap="round"/>
<path d="M42.1286 66.9643C42.7986 66.9943 43.7386 67.0043 44.2286 67.4243C44.7186 67.8343 44.9886 68.7643 45.0986 69.4343C45.2086 70.0943 45.2886 70.8243 44.8986 71.4143C44.5086 72.0143 43.5186 72.8143 42.7786 73.0143C42.0386 73.2243 41.0386 72.9443 40.4586 72.6543C39.8786 72.3643 39.5586 71.8143 39.2686 71.2643C38.9886 70.7243 38.5686 70.1143 38.7386 69.4043C38.8986 68.6843 39.6786 67.4443 40.2586 66.9843C40.8486 66.5343 41.9186 66.7143 42.2386 66.6843C42.5486 66.6543 42.1186 66.7443 42.1386 66.8043M41.9386 66.4143C42.6086 66.4343 43.5786 67.1143 44.1286 67.5943C44.6686 68.0743 45.1586 68.6443 45.1986 69.2843C45.2386 69.9243 44.6986 70.8343 44.3686 71.4443C44.0386 72.0543 43.8186 72.7543 43.2186 72.9643C42.6086 73.1743 41.3286 73.0643 40.7386 72.7243C40.1586 72.3943 39.9386 71.6143 39.6886 70.9643C39.4486 70.3043 39.1386 69.4543 39.2686 68.8043C39.3886 68.1543 39.9686 67.4743 40.4286 67.0843C40.8886 66.6843 41.8186 66.3943 42.0286 66.4043C42.2486 66.4243 41.6486 67.0443 41.7186 67.1743" fill="white"/>
<path d="M41.7985 66.3943C42.4885 66.2843 43.3985 66.8343 43.8885 67.2243C44.3785 67.6143 44.5185 68.1243 44.7185 68.7443C44.9085 69.3643 45.2985 70.3443 45.0385 70.9543C44.7685 71.5643 43.7785 72.1543 43.1185 72.4143C42.4585 72.6743 41.7185 72.7143 41.0785 72.5243C40.4285 72.3343 39.6285 71.7343 39.2585 71.2643C38.8885 70.8043 38.8085 70.3943 38.8485 69.7343C38.8885 69.0743 39.0285 67.7643 39.5085 67.2843C39.9885 66.8143 41.3985 66.9343 41.7185 66.8943C42.0485 66.8443 41.5185 67.0043 41.4785 67.0143M42.1885 66.8343C42.7785 66.7443 44.0085 66.9543 44.4385 67.3743C44.8685 67.7843 44.8185 68.5443 44.7785 69.3343C44.7385 70.1243 44.4585 71.5143 44.1885 72.1243C43.9185 72.7243 43.7385 72.8243 43.1885 72.9443C42.6285 73.0643 41.5285 73.1643 40.8785 72.8543C40.2285 72.5343 39.5885 71.7843 39.2585 71.0643C38.9285 70.3443 38.7285 69.0943 38.8985 68.5143C39.0785 67.9243 39.7785 67.7843 40.2985 67.5543C40.8285 67.3243 41.6285 67.2943 42.0385 67.1243C42.4585 66.9543 42.6785 66.5943 42.7985 66.5243" stroke="#1E1E1E" stroke-width="0.5" stroke-linecap="round"/>
<path d="M34.6618 51.7293C35.2918 51.5493 36.0618 51.9093 36.6618 52.2693C37.2618 52.6193 38.0918 53.1793 38.2818 53.8493C38.4718 54.5293 38.1518 55.6693 37.8018 56.3093C37.4518 56.9393 36.7518 57.3693 36.1918 57.6593C35.6318 57.9493 35.0918 58.1293 34.4518 58.0493C33.8118 57.9593 32.7518 57.7593 32.3518 57.1793C31.9418 56.5893 31.9818 55.2393 32.0318 54.5193C32.0918 53.7993 32.2818 53.2893 32.6818 52.8493C33.0818 52.4093 34.1018 52.0293 34.4518 51.8793C34.8118 51.7293 34.7618 51.9393 34.8118 51.9693M34.9518 51.9493C35.6318 51.9193 36.5718 52.0193 37.0418 52.4093C37.5118 52.7993 37.6118 53.5793 37.7818 54.2693C37.9418 54.9693 38.2918 55.9793 38.0118 56.5793C37.7318 57.1693 36.6718 57.6693 36.0918 57.8293C35.5118 57.9993 35.0718 57.8393 34.5118 57.5693C33.9518 57.2993 33.0818 56.7693 32.7118 56.2193C32.3418 55.6593 32.2818 54.8793 32.3118 54.2293C32.3418 53.5893 32.5118 52.6793 32.8818 52.3493C33.2518 52.0193 34.1318 52.2893 34.5318 52.2393C34.9318 52.1993 35.1818 52.0893 35.2818 52.0893" fill="white"/>
<path d="M35.2618 51.7993C35.8318 51.7993 36.3218 51.9593 36.8218 52.3893C37.3318 52.8193 38.2118 53.6893 38.3118 54.3593C38.4118 55.0293 37.8518 55.8493 37.4418 56.3893C37.0318 56.9293 36.4718 57.4193 35.8318 57.5993C35.2018 57.7793 34.2518 57.6393 33.6418 57.4693C33.0418 57.2993 32.5418 57.1493 32.2218 56.5593C31.8918 55.9693 31.5618 54.5893 31.7018 53.9393C31.8518 53.2893 32.5618 52.9693 33.0818 52.6593C33.6118 52.3493 34.5518 52.2193 34.8518 52.0793C35.1618 51.9393 34.8418 51.7593 34.9318 51.8193M35.6818 51.5693C36.2818 51.5593 36.6818 51.9693 37.0318 52.5993C37.3918 53.2293 37.6718 54.5993 37.8218 55.3293C37.9618 56.0593 38.2218 56.5093 37.9018 56.9893C37.5818 57.4793 36.6018 58.1293 35.8918 58.2393C35.1818 58.3493 34.2918 58.1093 33.6418 57.6693C32.9918 57.2393 32.2718 56.2093 32.0118 55.6393C31.7518 55.0793 31.9218 54.7693 32.1018 54.2793C32.2818 53.7793 32.4618 53.1293 33.1018 52.6893C33.7418 52.2393 35.4818 51.7793 35.9618 51.5993C36.4318 51.4193 36.0218 51.4993 35.9618 51.6093" stroke="#1E1E1E" stroke-width="0.5" stroke-linecap="round"/>
<path d="M49.5469 51.8394C50.2169 51.8894 51.2969 52.2194 51.7269 52.7494C52.1469 53.2894 52.1869 54.3794 52.1069 55.0594C52.0269 55.7394 51.6369 56.3394 51.2469 56.8394C50.8669 57.3394 50.4469 57.8494 49.8069 58.0394C49.1669 58.2294 47.9869 58.3694 47.4069 57.9894C46.8269 57.6094 46.5569 56.4494 46.3369 55.7694C46.1269 55.0994 45.9769 54.5194 46.1369 53.9494C46.2869 53.3694 46.6969 52.6594 47.2869 52.3194C47.8869 51.9894 49.3169 52.0094 49.7069 51.9194C50.1069 51.8294 49.7169 51.7694 49.6769 51.7894M48.9469 51.7794C49.5169 51.6594 50.0369 51.9694 50.6069 52.3894C51.1669 52.8194 52.1369 53.6794 52.3369 54.3294C52.5369 54.9694 52.0569 55.7494 51.8069 56.2694C51.5669 56.7794 51.3869 57.1994 50.8569 57.4194C50.3269 57.6294 49.2769 57.7194 48.6269 57.5594C47.9669 57.3894 47.3769 56.9594 46.9369 56.4294C46.4869 55.8994 46.0269 54.9194 45.9669 54.3794C45.8969 53.8294 45.9969 53.5494 46.5469 53.1594C47.0869 52.7694 48.7969 52.2294 49.2169 52.0394C49.6369 51.8494 49.0469 51.9194 49.0469 52.0094" fill="white"/>
<path d="M48.3569 51.6193C48.9969 51.4593 50.3569 51.7693 50.9369 52.1293C51.5169 52.4793 51.6869 53.1293 51.8469 53.7393C51.9969 54.3493 52.1069 55.1793 51.8669 55.7793C51.6269 56.3693 50.9669 56.9293 50.3869 57.3293C49.8169 57.7193 49.1069 58.2893 48.4369 58.1593C47.7669 58.0293 46.8069 57.0593 46.3969 56.5393C45.9869 56.0193 45.9569 55.6093 45.9669 55.0393C45.9769 54.4693 46.0369 53.6693 46.4469 53.1193C46.8669 52.5793 48.0069 51.9293 48.4369 51.7793C48.8669 51.6193 48.9169 52.1493 49.0269 52.1893M48.9369 51.5493C49.4869 51.6593 50.2869 52.5993 50.9069 53.1193C51.5269 53.6293 52.4669 54.0293 52.6469 54.6493C52.8269 55.2793 52.4069 56.3293 51.9869 56.8693C51.5669 57.4193 50.8469 57.8293 50.1469 57.9193C49.4469 57.9993 48.4269 57.5893 47.7969 57.3793C47.1669 57.1793 46.7069 57.1493 46.3669 56.6993C46.0269 56.2393 45.5469 55.4093 45.7669 54.6593C45.9869 53.9093 47.0269 52.7293 47.6869 52.1993C48.3469 51.6793 49.4569 51.5493 49.7369 51.5193C50.0169 51.4793 49.4169 51.8993 49.3669 51.9693" stroke="#1E1E1E" stroke-width="0.5" stroke-linecap="round"/>
<path d="M41.8984 41.1248C42.5084 41.0948 43.0884 41.6648 43.5184 42.0748C43.9484 42.4948 44.3084 43.0048 44.4884 43.6248C44.6684 44.2448 44.8784 45.1648 44.5884 45.8148C44.2984 46.4648 43.3484 47.3148 42.7384 47.5148C42.1384 47.7148 41.5684 47.2448 40.9684 46.9948C40.3684 46.7448 39.5484 46.5148 39.1284 46.0148C38.7184 45.5148 38.3884 44.6448 38.4984 43.9948C38.5984 43.3448 39.2184 42.6048 39.7584 42.1248C40.2984 41.6448 41.4184 41.2548 41.7384 41.0948C42.0584 40.9348 41.7184 41.0948 41.6884 41.1748M41.6184 41.2448C42.2784 41.2748 43.5784 41.8048 44.0984 42.2548C44.6184 42.7048 44.6084 43.3948 44.7284 43.9648C44.8484 44.5348 45.0884 45.1948 44.8084 45.6848C44.5184 46.1748 43.6484 46.7248 42.9984 46.9248C42.3584 47.1348 41.6084 47.1548 40.9284 46.9148C40.2584 46.6748 39.3784 45.9548 38.9484 45.4748C38.5184 45.0048 38.1484 44.6448 38.3584 44.0748C38.5784 43.5048 39.6384 42.5248 40.2584 42.0648C40.8884 41.6148 41.7884 41.3948 42.1184 41.3448C42.4484 41.2848 42.3084 41.7248 42.2584 41.7248" fill="white"/>
<path d="M41.9583 41.0748C42.6083 41.0348 43.0883 41.3448 43.5383 41.7448C43.9983 42.1448 44.5683 42.8548 44.6883 43.4948C44.8083 44.1248 44.5783 44.8848 44.2583 45.5448C43.9383 46.2048 43.4183 47.2048 42.7783 47.4348C42.1383 47.6648 41.0483 47.1548 40.4283 46.9348C39.7983 46.7048 39.3783 46.5648 39.0283 46.0848C38.6883 45.6048 38.2883 44.7548 38.3683 44.0548C38.4383 43.3548 38.8583 42.3148 39.4683 41.8848C40.0783 41.4648 41.5783 41.6448 42.0283 41.5248C42.4683 41.3948 42.1783 41.1448 42.1483 41.1648M41.1583 41.7048C41.9183 41.6748 43.3483 41.5448 43.9883 41.8948C44.6283 42.2448 44.9083 43.1548 45.0283 43.7748C45.1483 44.4048 45.0383 45.1648 44.6983 45.6548C44.3583 46.1448 43.5883 46.3948 42.9683 46.7348C42.3583 47.0748 41.6683 47.7148 40.9883 47.6848C40.3083 47.6548 39.2183 47.1848 38.9083 46.5448C38.5983 45.8948 38.9383 44.6048 39.1183 43.8248C39.3083 43.0348 39.6183 42.2548 40.0283 41.8348C40.4383 41.4148 41.3183 41.4348 41.5883 41.3148C41.8683 41.1948 41.7483 41.0848 41.6683 41.1048" stroke="#1E1E1E" stroke-width="0.5" stroke-linecap="round"/>
<path d="M30.5678 37.1743C31.1078 37.1443 31.8378 37.2643 32.3778 37.6643C32.9178 38.0643 33.6778 38.8743 33.8078 39.5843C33.9278 40.2943 33.4578 41.4143 33.1378 41.9343C32.8178 42.4443 32.4478 42.4943 31.8578 42.6643C31.2678 42.8343 30.2678 43.1343 29.5878 42.9643C28.9178 42.7943 28.1178 42.2043 27.8078 41.6443C27.4978 41.0743 27.5778 40.2643 27.7278 39.5743C27.8878 38.8943 28.2478 37.9943 28.7378 37.5343C29.2178 37.0743 30.3478 36.9143 30.6578 36.8343C30.9678 36.7443 30.5878 36.9543 30.6178 37.0343M30.8678 37.1443C31.5278 37.1043 31.9778 37.3343 32.5278 37.6743C33.0778 38.0043 33.9678 38.5543 34.1678 39.1443C34.3578 39.7343 34.0478 40.6043 33.7078 41.1943C33.3778 41.7843 32.8378 42.4243 32.1578 42.6743C31.4678 42.9243 30.3578 42.8143 29.6078 42.7143C28.8578 42.6043 27.9078 42.5643 27.6378 42.0643C27.3778 41.5743 27.7878 40.4643 27.9878 39.7643C28.1978 39.0543 28.3578 38.2043 28.8578 37.8143C29.3578 37.4143 30.7078 37.5543 30.9978 37.3843C31.2978 37.2143 30.6278 36.8743 30.6178 36.8043" fill="white"/>
<path d="M30.1278 36.7543C30.6978 36.6243 31.7178 36.8243 32.2678 37.1743C32.8278 37.5143 33.2678 38.1243 33.4678 38.8443C33.6678 39.5643 33.7578 40.8743 33.4778 41.4843C33.1978 42.1043 32.3778 42.2143 31.7778 42.5143C31.1878 42.8143 30.5578 43.3343 29.9078 43.2743C29.2478 43.2143 28.2778 42.7343 27.8378 42.1543C27.4078 41.5743 27.1478 40.4443 27.2878 39.7843C27.4278 39.1243 28.0878 38.6943 28.6578 38.2043C29.2178 37.7043 30.3778 37.0143 30.6878 36.8343C30.9978 36.6543 30.5978 37.0843 30.5278 37.1243M30.8578 37.0643C31.5878 36.9343 32.2378 37.3943 32.7278 37.7643C33.2178 38.1243 33.6878 38.7343 33.7978 39.2643C33.9078 39.7943 33.6878 40.2943 33.3878 40.9543C33.0878 41.6143 32.6578 42.8043 32.0178 43.2243C31.3778 43.6443 30.1378 43.7543 29.5678 43.4743C28.9978 43.2043 28.8478 42.2543 28.5878 41.5843C28.3378 40.9243 28.0478 40.0843 28.0478 39.4743C28.0478 38.8643 28.1678 38.3843 28.5878 37.9343C29.0178 37.4843 30.3578 36.9343 30.5878 36.7643C30.8178 36.5943 29.9378 36.8143 29.9878 36.9243" stroke="#1E1E1E" stroke-width="0.5" stroke-linecap="round"/>
<path d="M16.9605 39.7311C17.6205 39.6411 18.8105 39.9911 19.3505 40.4511C19.8905 40.9111 20.0505 41.9111 20.2005 42.5011C20.3505 43.0911 20.5405 43.4411 20.2705 43.9811C20.0005 44.5111 19.2305 45.4111 18.5605 45.7211C17.8905 46.0311 16.8905 46.0411 16.2705 45.8511C15.6605 45.6711 15.2005 45.1811 14.8805 44.5811C14.5605 43.9911 14.3005 43.0011 14.3605 42.3011C14.4105 41.6111 14.7405 40.8611 15.2105 40.4411C15.6805 40.0111 16.7905 39.8611 17.1705 39.7611C17.5605 39.6711 17.5005 39.8511 17.5305 39.8611M17.3005 39.7611C17.9705 39.6411 19.2605 39.7911 19.8405 40.1511C20.4205 40.5211 20.6805 41.2911 20.7805 41.9611C20.8805 42.6211 20.8505 43.5511 20.4505 44.1411C20.0505 44.7411 19.1305 45.1611 18.3805 45.5011C17.6305 45.8411 16.4905 46.3411 15.9405 46.1911C15.3805 46.0411 15.3005 45.2211 15.0605 44.5911C14.8305 43.9511 14.4205 43.0111 14.5405 42.3911C14.6605 41.7811 15.3005 41.3611 15.7705 40.8811C16.2505 40.4111 17.0805 39.7711 17.4005 39.5411C17.7305 39.3111 17.6705 39.4811 17.7105 39.5211" fill="white"/>
<path d="M17.0505 39.4511C17.6805 39.3411 18.4805 39.5211 19.0305 40.0011C19.5805 40.4711 20.2205 41.6411 20.3705 42.2911C20.5105 42.9411 20.2005 43.2911 19.9105 43.8911C19.6205 44.4911 19.2305 45.5211 18.6205 45.8911C18.0005 46.2611 16.8805 46.3311 16.2005 46.1011C15.5105 45.8711 14.8005 45.0711 14.5205 44.5211C14.2405 43.9711 14.3505 43.4911 14.5205 42.8111C14.6905 42.1411 15.0705 40.9811 15.5405 40.4811C16.0105 39.9911 17.0805 40.0011 17.3405 39.8511C17.6005 39.6911 17.1605 39.5711 17.1205 39.5611M18.1605 40.0311C18.7305 40.0811 19.4905 40.4411 19.8705 40.8311C20.2405 41.2211 20.4005 41.6711 20.4005 42.3911C20.3905 43.1211 20.2805 44.5111 19.8305 45.1711C19.3705 45.8211 18.2505 46.3011 17.6705 46.3311C17.0805 46.3511 16.7805 45.7611 16.3305 45.3211C15.8805 44.8711 15.2505 44.2111 14.9505 43.6511C14.6605 43.0811 14.3905 42.5211 14.5605 41.9111C14.7305 41.2911 15.5005 40.3511 15.9805 39.9811C16.4605 39.6111 17.0705 39.6911 17.4605 39.6811C17.8505 39.6811 18.2705 39.8911 18.3105 39.9511" stroke="#1E1E1E" stroke-width="0.5" stroke-linecap="round"/>
<path d="M13.8401 26.3371C14.4901 26.4271 14.9801 27.1271 15.4501 27.5471C15.9101 27.9771 16.5601 28.2671 16.6301 28.8771C16.7001 29.4871 16.3201 30.6271 15.8701 31.2171C15.4201 31.8171 14.5501 32.2671 13.9301 32.4271C13.3001 32.5971 12.6601 32.5271 12.1001 32.1971C11.5501 31.8671 10.8801 31.0871 10.5901 30.4371C10.2901 29.7971 10.1801 28.9471 10.3401 28.3371C10.5001 27.7271 10.9301 27.1071 11.5301 26.7671C12.1301 26.4371 13.5401 26.4371 13.9301 26.3371C14.3201 26.2271 13.8701 26.0671 13.8501 26.1371M14.0601 25.9171C14.7701 25.8571 15.4201 26.2671 15.8901 26.7471C16.3601 27.2171 16.8701 28.0771 16.8701 28.7571C16.8801 29.4371 16.4301 30.1571 15.9301 30.8271C15.4301 31.4971 14.4601 32.5171 13.8901 32.7771C13.3201 33.0371 13.0201 32.7271 12.5101 32.4071C11.9901 32.0771 11.1001 31.3871 10.8101 30.8271C10.5101 30.2671 10.6201 29.7271 10.7401 29.0271C10.8701 28.3271 11.0301 27.1371 11.5601 26.6271C12.0901 26.1171 13.5401 26.0771 13.9201 25.9671C14.3101 25.8671 13.9801 25.9471 13.8901 26.0171" fill="white"/>
<path d="M12.9101 25.9171C13.5501 25.8971 14.5901 26.5971 15.1201 26.9771C15.6601 27.3571 15.9501 27.5571 16.1301 28.1971C16.3101 28.8471 16.4901 30.1471 16.2001 30.8471C15.9101 31.5571 15.0501 32.1871 14.4101 32.4271C13.7601 32.6771 12.8801 32.4671 12.3301 32.3071C11.7801 32.1471 11.3701 32.0071 11.0801 31.4571C10.8001 30.9071 10.5701 29.6771 10.6001 28.9871C10.6401 28.2871 10.8901 27.7671 11.2901 27.2771C11.6801 26.7771 12.6901 26.2171 12.9801 26.0171C13.2701 25.8171 12.9401 25.9471 13.0301 26.0771M13.6501 26.2571C14.2201 26.1371 14.9201 26.1371 15.4001 26.6471C15.8701 27.1471 16.4601 28.4971 16.5201 29.2971C16.5701 30.0971 16.0101 30.9871 15.7201 31.4471C15.4401 31.9071 15.3101 31.9971 14.8001 32.0771C14.3001 32.1571 13.3601 32.1271 12.6801 31.9271C12.0101 31.7271 11.1101 31.4571 10.7501 30.8771C10.3901 30.3071 10.4901 29.1771 10.5401 28.4971C10.5901 27.8171 10.5001 27.1471 11.0701 26.7971C11.6401 26.4371 13.5801 26.4471 13.9601 26.3671C14.3501 26.2771 13.4501 26.1871 13.3801 26.2971" stroke="#1E1E1E" stroke-width="0.5" stroke-linecap="round"/>
<path d="M42.1396 31.0416C42.1324 31.2515 42.1032 32.101 42.096 32.3109" stroke="#1E1E1E" stroke-width="0.5" stroke-linecap="round"/>
<path d="M40.3978 31.5098C40.6952 31.2999 41.6034 30.2004 42.2024 30.241C42.8017 30.2716 43.6903 31.4928 43.9919 31.7433" stroke="#1E1E1E" stroke-width="0.5" stroke-linecap="round"/>
<path d="M43.921 31.9127C43.6135 32.1075 42.6157 33.2275 42.0553 33.0898C41.494 32.9621 40.8099 31.4391 40.557 31.1066" stroke="#1E1E1E" stroke-width="0.5" stroke-linecap="round"/>
<path d="M42.2625 27.9344C42.9025 27.8144 44.0325 28.0644 44.6425 28.3844C45.2525 28.7044 45.7225 29.2444 45.9025 29.8444C46.0825 30.4544 46.0025 31.3544 45.7225 31.9944C45.4425 32.6444 44.7825 33.3844 44.2225 33.7344C43.6725 34.0844 43.0225 34.2544 42.3925 34.0844C41.7625 33.9144 40.8825 33.2244 40.4525 32.7144C40.0225 32.2044 39.7725 31.6844 39.8125 31.0344C39.8625 30.3844 40.2625 29.3044 40.7225 28.8144C41.1725 28.3344 42.2725 28.2644 42.5525 28.1444C42.8425 28.0344 42.4525 28.0844 42.4225 28.1244M42.2625 28.2944C42.9625 28.2844 44.4225 28.2944 45.0625 28.6244C45.7125 28.9544 45.9425 29.5944 46.1125 30.2744C46.2925 30.9544 46.4025 32.1644 46.0925 32.7144C45.7725 33.2744 44.8225 33.4244 44.2125 33.5944C43.5925 33.7544 43.0025 33.8944 42.4025 33.7044C41.8025 33.5144 41.0925 33.0044 40.6225 32.4744C40.1425 31.9444 39.5025 31.1844 39.5625 30.5344C39.6225 29.8744 40.4525 28.9044 40.9625 28.5344C41.4825 28.1744 42.4225 28.4044 42.6425 28.3244C42.8625 28.2444 42.2125 28.0944 42.2925 28.0444" fill="white"/>
<path d="M42.0925 28.1544C42.6625 27.9744 43.5625 27.8944 44.2225 28.2444C44.8825 28.5944 45.7525 29.6344 46.0725 30.2544C46.3825 30.8744 46.3725 31.3744 46.1125 31.9644C45.8625 32.5544 45.1825 33.4944 44.5125 33.8044C43.8525 34.1044 42.8325 33.9744 42.1325 33.7944C41.4325 33.6144 40.6525 33.1344 40.3125 32.7044C39.9825 32.2744 40.0625 31.8044 40.1225 31.2044C40.1725 30.6044 40.2225 29.6344 40.6425 29.0844C41.0625 28.5444 42.3225 28.1544 42.6425 27.9544C42.9525 27.7444 42.5925 27.8144 42.5225 27.8544M43.7425 27.6344C44.5025 27.5544 45.2525 27.9944 45.6525 28.5444C46.0525 29.0844 46.1325 30.2044 46.1225 30.8844C46.1125 31.5744 46.0625 32.1544 45.5725 32.6544C45.0825 33.1544 43.7825 33.7144 43.1825 33.9144C42.5725 34.1144 42.4725 34.1544 41.9225 33.8644C41.3725 33.5844 40.2225 32.7444 39.8825 32.1844C39.5525 31.6244 39.7325 31.1644 39.9325 30.4944C40.1325 29.8344 40.4625 28.6944 41.0825 28.1744C41.7025 27.6544 43.2825 27.4244 43.6425 27.4044C44.0125 27.3744 43.3225 27.9344 43.2825 28.0044" stroke="#1E1E1E" stroke-width="0.5" stroke-linecap="round"/>
<path fill-rule="evenodd" clip-rule="evenodd" d="M42.7923 28.9833C42.6323 29.2533 41.7923 29.9833 41.8023 30.6133C41.8223 31.2333 42.7123 32.3633 42.9023 32.7233" fill="white"/>
<path d="M42.7923 28.9833C42.6323 29.2533 41.7923 29.9833 41.8023 30.6133C41.8223 31.2333 42.7123 32.3633 42.9023 32.7233" stroke="#1E1E1E" stroke-width="0.5" stroke-linecap="round"/>
<path fill-rule="evenodd" clip-rule="evenodd" d="M42.7788 29.0099C42.9388 29.2799 43.7788 30.0099 43.7688 30.6399C43.7488 31.2599 42.8588 32.3899 42.6688 32.7499" fill="white"/>
<path d="M42.7788 29.0099C42.9388 29.2799 43.7788 30.0099 43.7688 30.6399C43.7488 31.2599 42.8588 32.3899 42.6688 32.7499" stroke="#1E1E1E" stroke-width="0.5" stroke-linecap="round"/>
<path d="M42.9003 30.6155C42.8903 30.6455 42.8703 30.7855 42.8703 30.8255" stroke="#1E1E1E" stroke-width="0.5" stroke-linecap="round"/>
</svg>
