<svg width="85" height="125" viewBox="0 0 85 125" fill="none" xmlns="http://www.w3.org/2000/svg">
<path d="M21.3024 111.535C20.4464 111.535 19.7172 111.302 19.1149 110.836C18.5127 110.367 18.0524 109.687 17.7342 108.796C17.4161 107.902 17.257 106.823 17.257 105.558C17.257 104.3 17.4161 103.226 17.7342 102.336C18.0562 101.442 18.5183 100.76 19.1206 100.291C19.7267 99.8173 20.4539 99.5805 21.3024 99.5805C22.1509 99.5805 22.8763 99.8173 23.4786 100.291C24.0846 100.76 24.5467 101.442 24.8649 102.336C25.1869 103.226 25.3479 104.3 25.3479 105.558C25.3479 106.823 25.1888 107.902 24.8706 108.796C24.5524 109.687 24.0922 110.367 23.4899 110.836C22.8877 111.302 22.1585 111.535 21.3024 111.535ZM21.3024 110.285C22.1509 110.285 22.81 109.876 23.2797 109.058C23.7494 108.24 23.9842 107.073 23.9842 105.558C23.9842 104.55 23.8763 103.692 23.6604 102.984C23.4483 102.276 23.1414 101.736 22.7399 101.365C22.3422 100.993 21.863 100.808 21.3024 100.808C20.4615 100.808 19.8043 101.223 19.3308 102.052C18.8574 102.878 18.6206 104.046 18.6206 105.558C18.6206 106.565 18.7267 107.421 18.9388 108.126C19.1509 108.831 19.4558 109.367 19.8536 109.734C20.2551 110.101 20.738 110.285 21.3024 110.285Z" fill="#1E1E1E"/>
<path d="M11.6556 108.603C11.6456 107.703 11.6256 104.093 11.6156 103.193" stroke="#1E1E1E" stroke-linecap="round"/>
<path d="M11.5836 103.396C11.8336 103.036 12.8436 101.616 13.0936 101.256" stroke="#1E1E1E" stroke-linecap="round"/>
<path d="M14.5864 108.667C14.5964 107.767 14.6164 104.157 14.6264 103.257" stroke="#1E1E1E" stroke-linecap="round"/>
<path d="M14.6583 103.46C14.4083 103.1 13.3983 101.68 13.1483 101.32" stroke="#1E1E1E" stroke-linecap="round"/>
<path d="M9.4433 109.154C10.6233 109.134 15.3233 109.054 16.4933 109.034" stroke="#1E1E1E" stroke-linecap="round"/>
<path d="M13.3018 109.244C13.3118 109.874 13.3518 112.414 13.3618 113.044" stroke="#1E1E1E" stroke-linecap="round"/>
<path d="M65.9388 99.3663V111.003H64.5297V100.844H64.4615L61.6206 102.73V101.298L64.5297 99.3663H65.9388ZM73.0808 111.162C72.2248 111.162 71.4956 110.929 70.8933 110.463C70.291 109.993 69.8308 109.313 69.5126 108.423C69.1944 107.529 69.0354 106.45 69.0354 105.184C69.0354 103.927 69.1944 102.853 69.5126 101.963C69.8346 101.069 70.2967 100.387 70.899 99.9174C71.5051 99.4439 72.2323 99.2072 73.0808 99.2072C73.9293 99.2072 74.6547 99.4439 75.2569 99.9174C75.863 100.387 76.3251 101.069 76.6433 101.963C76.9653 102.853 77.1263 103.927 77.1263 105.184C77.1263 106.45 76.9672 107.529 76.649 108.423C76.3308 109.313 75.8706 109.993 75.2683 110.463C74.666 110.929 73.9369 111.162 73.0808 111.162ZM73.0808 109.912C73.9293 109.912 74.5884 109.503 75.0581 108.684C75.5278 107.866 75.7626 106.7 75.7626 105.184C75.7626 104.177 75.6547 103.319 75.4388 102.611C75.2266 101.902 74.9198 101.362 74.5183 100.991C74.1206 100.62 73.6414 100.434 73.0808 100.434C72.2399 100.434 71.5827 100.849 71.1092 101.679C70.6357 102.505 70.399 103.673 70.399 105.184C70.399 106.192 70.5051 107.048 70.7172 107.753C70.9293 108.457 71.2342 108.993 71.6319 109.361C72.0335 109.728 72.5164 109.912 73.0808 109.912Z" fill="#1E1E1E"/>
<path d="M54.7131 104.325C55.0731 103.955 56.5131 102.455 56.8731 102.075" stroke="#1E1E1E" stroke-linecap="round"/>
<path d="M56.8686 102.035C57.2686 102.365 58.8486 103.685 59.2486 104.015" stroke="#1E1E1E" stroke-linecap="round"/>
<path d="M59.3384 104.28C58.6484 105.34 55.8984 109.59 55.2084 110.66" stroke="#1E1E1E" stroke-linecap="round"/>
<path d="M54.7804 104.325C54.4204 103.955 52.9804 102.455 52.6204 102.075" stroke="#1E1E1E" stroke-linecap="round"/>
<path d="M52.6249 102.035C52.2249 102.365 50.6449 103.685 50.2449 104.015" stroke="#1E1E1E" stroke-linecap="round"/>
<path d="M50.1551 104.28C50.8451 105.34 53.5951 109.59 54.2851 110.66" stroke="#1E1E1E" stroke-linecap="round"/>
<path d="M22.2715 1.46591C28.0814 3.87591 40.5614 1.89591 62.6714 1.46591C75.6914 -1.01409 84.8815 8.73591 82.8715 21.6659C80.3015 45.1459 82.9015 76.3859 82.8715 103.216C79.7215 118.236 79.6714 124.416 62.6714 123.416C56.8614 126.396 48.3214 124.046 22.2715 123.416C11.6515 125.906 3.84145 114.776 2.07145 103.216C0.0914483 69.9559 1.01145 43.9159 2.07145 21.6659C1.42145 10.7459 10.2915 4.40591 22.2715 1.46591Z" fill="white"/>
<path d="M22.2715 1.46592C35.1415 2.09592 53.4915 0.96592 62.6715 1.46592M22.2715 1.46592C30.7715 2.69592 39.5215 1.79592 62.6715 1.46592M22.2715 1.46592C7.93147 0.92592 3.65147 8.25592 2.07147 21.6659M22.2715 1.46592C10.6815 1.37592 2.32147 5.93592 2.07147 21.6659M62.6715 1.46592C76.5515 2.12592 82.3915 6.59592 82.8715 21.6659M62.6715 1.46592C74.6915 -0.67408 84.1815 6.86592 82.8715 21.6659M82.8715 21.6659C84.4915 44.0559 82.2115 63.4259 82.8715 103.216M82.8715 21.6659C82.4715 46.2359 84.3115 69.3859 82.8715 103.216M82.8715 103.216C84.7615 115.466 74.9115 124.216 62.6715 123.416M82.8715 103.216C81.3515 116.426 73.9015 122.566 62.6715 123.416M62.6715 123.416C55.7615 121.336 46.0415 124.886 22.2715 123.416M62.6715 123.416C53.7715 122.776 42.3915 124.346 22.2715 123.416M22.2715 123.416C8.30147 124.726 0.381471 118.026 2.07147 103.216M22.2715 123.416C9.11147 124.306 2.52147 118.416 2.07147 103.216M2.07147 103.216C4.28147 77.9459 1.68147 50.6159 2.07147 21.6659M2.07147 103.216C1.47147 77.6459 1.39147 50.7459 2.07147 21.6659" stroke="#1E1E1E" stroke-width="2" stroke-linecap="round"/>
<path d="M10.8868 89.6885C21.8768 89.6885 65.8568 89.6885 76.8468 89.6885" stroke="#1E1E1E" stroke-width="2" stroke-linecap="round"/>
<path d="M23.599 1.35278C36.859 1.35278 50.129 1.35278 59.989 1.35278C62.469 1.35278 63.719 2.59278 63.719 5.08278C63.719 6.81278 63.719 8.54278 63.719 12.5328C63.719 15.0128 62.469 16.2528 59.989 16.2528C46.189 16.2528 32.389 16.2528 23.599 16.2528C21.109 16.2528 19.869 15.0128 19.869 12.5328C19.869 10.7028 19.869 8.87278 19.869 5.08278C19.869 2.59278 21.109 1.35278 23.599 1.35278Z" fill="white"/>
<path d="M23.599 1.35278C35.109 1.35278 46.619 1.35278 59.989 1.35278M23.599 1.35278C38.069 1.35278 52.549 1.35278 59.989 1.35278M23.599 1.35278C21.109 1.35278 19.869 2.59278 19.869 5.08278M59.989 1.35278C62.469 1.35278 63.719 2.59278 63.719 5.08278M63.719 5.08278C63.719 7.79278 63.719 10.4928 63.719 12.5328M63.719 5.08278C63.719 7.81278 63.719 10.5428 63.719 12.5328M63.719 12.5328C63.719 15.0128 62.469 16.2528 59.989 16.2528M59.989 16.2528C52.319 16.2528 44.649 16.2528 23.599 16.2528M59.989 16.2528C51.519 16.2528 43.059 16.2528 23.599 16.2528M23.599 16.2528C21.109 16.2528 19.869 15.0128 19.869 12.5328M19.869 12.5328C19.869 10.2328 19.869 7.94278 19.869 5.08278M19.869 12.5328C19.869 10.1328 19.869 7.73278 19.869 5.08278" stroke="#1E1E1E" stroke-width="2" stroke-linecap="round"/>
<path d="M32.9769 6.20372C32.9397 5.8893 32.7887 5.64521 32.5239 5.47145C32.2591 5.29769 31.9343 5.21081 31.5496 5.21081C31.2683 5.21081 31.0221 5.25631 30.8111 5.34733C30.6022 5.43835 30.4388 5.5635 30.3208 5.72278C30.205 5.88206 30.1471 6.06306 30.1471 6.26578C30.1471 6.4354 30.1874 6.58124 30.2681 6.70329C30.3508 6.82326 30.4563 6.92359 30.5846 7.00426C30.7128 7.08287 30.8473 7.14803 30.988 7.19974C31.1286 7.24939 31.2579 7.28973 31.3758 7.32076L32.0212 7.49452C32.1867 7.53796 32.3708 7.59794 32.5735 7.67448C32.7783 7.75102 32.9738 7.85548 33.16 7.98787C33.3482 8.11819 33.5034 8.28575 33.6254 8.49054C33.7474 8.69533 33.8085 8.94666 33.8085 9.24453C33.8085 9.58792 33.7185 9.8982 33.5385 10.1754C33.3606 10.4526 33.1 10.6729 32.7566 10.8363C32.4153 10.9997 32.0005 11.0814 31.5123 11.0814C31.0573 11.0814 30.6632 11.008 30.3302 10.8611C29.9992 10.7143 29.7385 10.5095 29.5482 10.2468C29.36 9.98405 29.2535 9.67893 29.2286 9.33141H30.023C30.0437 9.57137 30.1243 9.76995 30.265 9.92716C30.4077 10.0823 30.5877 10.1981 30.8049 10.2747C31.0242 10.3492 31.26 10.3864 31.5123 10.3864C31.8061 10.3864 32.0698 10.3388 32.3036 10.2437C32.5373 10.1464 32.7225 10.012 32.859 9.84028C32.9955 9.66652 33.0638 9.4638 33.0638 9.23212C33.0638 9.02113 33.0048 8.84943 32.8869 8.71705C32.769 8.58466 32.6139 8.47709 32.4215 8.39435C32.2291 8.3116 32.0212 8.2392 31.7978 8.17715L31.0159 7.95374C30.5194 7.81101 30.1264 7.60725 29.8368 7.34248C29.5472 7.0777 29.4024 6.73121 29.4024 6.30302C29.4024 5.94722 29.4986 5.63693 29.691 5.37216C29.8854 5.10531 30.1461 4.89845 30.4729 4.75158C30.8018 4.60264 31.169 4.52818 31.5744 4.52818C31.984 4.52818 32.3481 4.60161 32.6666 4.74848C32.9852 4.89328 33.2375 5.09186 33.4237 5.34423C33.612 5.5966 33.7112 5.88309 33.7216 6.20372H32.9769ZM37.0471 6.20372V6.8243H34.5772V6.20372H37.0471ZM35.2971 5.06187H36.0293V9.60447C36.0293 9.81132 36.0593 9.96647 36.1193 10.0699C36.1814 10.1713 36.26 10.2395 36.3551 10.2747C36.4524 10.3078 36.5548 10.3243 36.6623 10.3243C36.743 10.3243 36.8092 10.3202 36.8609 10.3119C36.9126 10.3016 36.954 10.2933 36.985 10.2871L37.134 10.9449C37.0843 10.9635 37.015 10.9821 36.9261 11.0008C36.8371 11.0214 36.7244 11.0318 36.5879 11.0318C36.381 11.0318 36.1783 10.9873 35.9797 10.8984C35.7832 10.8094 35.6198 10.6739 35.4894 10.4919C35.3612 10.3099 35.2971 10.0802 35.2971 9.80305V5.06187ZM38.1486 10.9697V6.20372H38.8561V6.92359H38.9057C38.9926 6.68777 39.1498 6.49643 39.3773 6.34956C39.6049 6.20269 39.8614 6.12925 40.1468 6.12925C40.2006 6.12925 40.2679 6.13029 40.3485 6.13236C40.4292 6.13443 40.4902 6.13753 40.5316 6.14167V6.88635C40.5068 6.88015 40.4499 6.87084 40.3609 6.85843C40.2741 6.84395 40.182 6.83671 40.0848 6.83671C39.8531 6.83671 39.6463 6.88532 39.4642 6.98254C39.2843 7.0777 39.1415 7.21009 39.036 7.37971C38.9326 7.54726 38.8809 7.73861 38.8809 7.95374V10.9697H38.1486ZM44.4032 9.02113V6.20372H45.1355V10.9697H44.4032V10.163H44.3536C44.2419 10.405 44.0681 10.6108 43.8323 10.7805C43.5965 10.948 43.2986 11.0318 42.9387 11.0318C42.6408 11.0318 42.376 10.9666 42.1443 10.8363C41.9126 10.7039 41.7306 10.5053 41.5982 10.2406C41.4658 9.97371 41.3996 9.63756 41.3996 9.23212V6.20372H42.1319V9.18248C42.1319 9.53 42.2291 9.80719 42.4236 10.014C42.6201 10.2209 42.8704 10.3243 43.1745 10.3243C43.3565 10.3243 43.5416 10.2778 43.7299 10.1847C43.9202 10.0916 44.0795 9.94888 44.2077 9.75651C44.338 9.56413 44.4032 9.319 44.4032 9.02113ZM48.4129 11.069C47.9661 11.069 47.5813 10.9635 47.2586 10.7525C46.9359 10.5415 46.6877 10.2509 46.5139 9.88062C46.3402 9.51035 46.2533 9.08732 46.2533 8.61155C46.2533 8.1275 46.3422 7.70034 46.5201 7.33006C46.7001 6.95772 46.9504 6.66709 47.271 6.45816C47.5937 6.24716 47.9702 6.14167 48.4005 6.14167C48.7356 6.14167 49.0376 6.20372 49.3065 6.32784C49.5754 6.45195 49.7957 6.62571 49.9674 6.84912C50.1391 7.07253 50.2456 7.33317 50.287 7.63104H49.5547C49.4989 7.41384 49.3748 7.22146 49.1824 7.05391C48.9921 6.88429 48.7356 6.79947 48.4129 6.79947C48.1274 6.79947 47.8771 6.87394 47.662 7.02288C47.4489 7.16975 47.2824 7.37764 47.1624 7.64656C47.0445 7.9134 46.9856 8.22679 46.9856 8.58673C46.9856 8.95493 47.0435 9.27556 47.1593 9.54861C47.2772 9.82167 47.4427 10.0337 47.6558 10.1847C47.8709 10.3357 48.1233 10.4112 48.4129 10.4112C48.6032 10.4112 48.7759 10.3781 48.9311 10.3119C49.0862 10.2457 49.2176 10.1506 49.3251 10.0265C49.4327 9.90234 49.5092 9.7534 49.5547 9.57964H50.287C50.2456 9.86097 50.1432 10.1144 49.9798 10.3398C49.8185 10.5633 49.6044 10.7411 49.3375 10.8735C49.0728 11.0039 48.7645 11.069 48.4129 11.069ZM52.0401 9.23212L52.0277 8.32608H52.1767L54.2618 6.20372H55.1678L52.9462 8.4502H52.8841L52.0401 9.23212ZM51.3575 10.9697V4.61506H52.0898V10.9697H51.3575ZM54.3859 10.9697L52.5242 8.61155L53.0455 8.10268L55.3168 10.9697H54.3859Z" fill="#1E1E1E"/>
<path d="M34.5012 79.2022L35.7676 79.2024C35.7674 80.3394 36.0056 81.136 36.4821 81.5923C36.9586 82.0417 37.7552 82.2665 38.8718 82.2666L42.1398 82.2671C43.0794 82.2672 43.893 82.3593 44.5806 82.5432C45.2682 82.7203 45.8367 83.0131 46.286 83.4217C46.7353 83.8303 47.0688 84.375 47.2866 85.0559C47.5043 85.7367 47.6132 86.5776 47.613 87.5784L45.6114 87.5781C45.6115 86.7884 45.4856 86.1688 45.2337 85.7194C44.9887 85.2632 44.6109 84.9431 44.1003 84.7593C43.5897 84.5685 42.9361 84.4731 42.1395 84.473L38.0545 84.4725C37.5234 84.4724 37.04 84.4042 36.6043 84.268C36.1686 84.125 35.7941 83.8662 35.481 83.4917C35.1679 83.1172 34.9263 82.5861 34.7561 81.8984C34.586 81.2039 34.5011 80.3052 34.5012 79.2022ZM21.4687 87.5748C21.4689 86.5739 21.5779 85.7331 21.7959 85.0523C22.0139 84.3715 22.3476 83.8269 22.797 83.4184C23.2464 83.01 23.8149 82.7173 24.5026 82.5404C25.1903 82.3566 26.0039 82.2648 26.9434 82.265L30.2115 82.2654C31.3281 82.2656 32.1247 82.041 32.6013 81.5917C33.078 81.1356 33.3164 80.3391 33.3165 79.2021L34.5829 79.2023C34.5828 80.3052 34.4975 81.2039 34.3272 81.8984C34.1569 82.586 33.9151 83.117 33.6019 83.4914C33.2887 83.8658 32.9142 84.1245 32.4784 84.2674C32.0426 84.4035 31.5592 84.4715 31.0282 84.4715L26.9431 84.4709C26.1466 84.4708 25.4929 84.566 24.9823 84.7566C24.4648 84.9403 24.0835 85.2603 23.8383 85.7164C23.5932 86.1657 23.4705 86.7853 23.4704 87.575L21.4687 87.5748ZM33.3165 79.2021L35.7676 79.2024L35.7672 81.6126L33.3162 81.6123L33.3165 79.2021Z" fill="#1E1E1E"/>
<path d="M35.619 76.8364C35.789 75.2664 36.009 71.7764 36.679 67.9364C37.339 64.1064 39.669 58.2164 39.609 53.8164C39.549 49.4164 36.409 45.3864 36.319 41.5364C36.229 37.6764 38.699 32.4564 39.059 30.7064M36.499 76.3764C36.619 74.8764 35.859 70.7664 36.309 67.0664C36.759 63.3664 39.199 58.4064 39.189 54.1864C39.179 49.9764 36.359 45.6864 36.249 41.7764C36.149 37.8564 38.089 32.5964 38.549 30.7164" stroke="#1E1E1E" stroke-width="2" stroke-linecap="round"/>
<path d="M39.4813 21.5473C41.0113 21.0873 43.2213 21.3073 44.5813 22.1573C45.9413 23.0073 47.0113 25.1973 47.6313 26.6773C48.2613 28.1573 48.7813 29.6173 48.3413 31.0573C47.8913 32.4873 46.4413 34.3473 44.9513 35.2873C43.4513 36.2373 41.0213 37.0173 39.3913 36.7273C37.7513 36.4473 36.1713 34.8173 35.1313 33.5873C34.0813 32.3573 33.2513 30.7873 33.1113 29.3573C32.9713 27.9173 33.2313 26.2073 34.3113 24.9773C35.3813 23.7473 38.6913 22.5173 39.5713 21.9673C40.4613 21.4173 39.5713 21.5573 39.6213 21.6773M40.5213 21.2873C42.0013 21.3773 44.7413 23.1173 45.9813 24.3073C47.2213 25.5073 47.5913 26.9773 47.9613 28.4673C48.3313 29.9473 49.1013 32.0173 48.1913 33.2173C47.2813 34.4273 44.2013 35.1773 42.5013 35.6973C40.8113 36.2173 39.3613 36.7973 38.0313 36.3373C36.7113 35.8673 35.3413 34.2673 34.5613 32.8973C33.7913 31.5273 33.0313 29.6373 33.3813 28.0973C33.7313 26.5573 35.4213 24.6073 36.6613 23.6573C37.9013 22.7173 40.0213 22.7073 40.8313 22.4273C41.6413 22.1373 41.5013 22.0073 41.5213 21.9573" fill="white"/>
<path d="M39.9513 22.0873C41.5513 21.9173 43.8213 22.0773 45.2413 23.0173C46.6513 23.9573 47.9413 26.1373 48.4513 27.7473C48.9513 29.3573 49.0413 31.3473 48.2713 32.6673C47.5013 33.9873 45.4413 35.0473 43.8313 35.6673C42.2213 36.2873 40.2213 36.8873 38.6313 36.3873C37.0413 35.8873 35.1613 33.9373 34.3013 32.6573C33.4413 31.3873 33.2813 30.1273 33.4713 28.7273C33.6713 27.3273 34.3113 25.4673 35.4813 24.2573C36.6513 23.0573 39.5213 21.9273 40.5013 21.4773C41.4913 21.0373 41.3513 21.5173 41.3913 21.6073M39.6313 22.4973C41.2013 22.2773 43.0913 22.6873 44.6613 23.3973C46.2313 24.1073 48.4313 25.2673 49.0713 26.7373C49.7113 28.2073 49.1913 30.8073 48.5013 32.2173C47.8013 33.6273 46.5713 34.4173 44.8913 35.1773C43.2113 35.9473 40.1613 37.0473 38.4013 36.8173C36.6413 36.5773 35.3213 35.0973 34.3313 33.7873C33.3513 32.4873 32.3013 30.5773 32.4813 28.9873C32.6713 27.3973 34.1413 25.3373 35.4513 24.2373C36.7613 23.1373 39.5113 22.8373 40.3213 22.3873C41.1213 21.9373 40.3713 21.3973 40.2713 21.5273" stroke="#1E1E1E" stroke-width="2" stroke-linecap="round"/>
<path d="M38.0153 28.3213C38.4253 28.7613 40.1053 30.8513 40.6053 31.3913M38.6253 28.9413C39.1353 29.4013 40.9053 31.1913 41.2953 31.6713" stroke="#1E1E1E" stroke-width="2" stroke-linecap="round"/>
<path d="M29.8593 41.9305C31.9393 41.9705 40.5193 42.1205 42.5393 42.2205M30.6893 42.8605C32.7293 43.0005 40.4593 42.7105 42.2693 42.7605" stroke="#1E1E1E" stroke-width="2" stroke-linecap="round"/>
<path d="M33.0049 48.1543C35.0349 48.2543 42.4649 48.4043 44.4849 48.5543M32.5049 49.1843C34.4649 49.4143 41.8649 49.4043 43.9349 49.2443" stroke="#1E1E1E" stroke-width="2" stroke-linecap="round"/>
<path d="M33.3804 54.6636C35.4004 54.8136 43.9204 55.2436 46.0204 55.2336M34.2704 54.1736C36.2204 54.2036 43.8704 54.3436 45.7904 54.5036" stroke="#1E1E1E" stroke-width="2" stroke-linecap="round"/>
<path d="M33.0074 61.2898C35.1074 61.2898 43.0674 60.8298 44.9774 60.7698M32.5474 61.0498C34.6274 61.1198 42.8074 61.2998 44.7274 61.3798" stroke="#1E1E1E" stroke-width="2" stroke-linecap="round"/>
<path d="M32.3716 67.9183C34.2916 67.8483 41.9116 68.1183 43.9116 68.1483M31.8916 67.3483C33.6816 67.3383 41.3616 68.6183 43.4116 68.8283" stroke="#1E1E1E" stroke-width="2" stroke-linecap="round"/>
<path d="M30.8987 74.006C32.8987 74.036 41.4387 73.966 43.3787 74.056M31.8387 73.516C33.7587 73.646 41.1587 74.686 43.1187 74.706" stroke="#1E1E1E" stroke-width="2" stroke-linecap="round"/>
<path d="M20.9996 51.3932C22.5296 49.9432 28.2996 44.2432 29.8896 42.7532M20.6796 51.0532C22.3296 49.5132 28.8896 43.6232 30.5296 42.2532" stroke="#1E1E1E" stroke-width="2" stroke-linecap="round"/>
<path d="M22.0601 58.0008C23.6501 56.5108 30.4701 50.3608 32.1501 48.8008M22.5401 57.8108C24.1001 56.3908 30.4501 50.7208 32.0401 49.2308" stroke="#1E1E1E" stroke-width="2" stroke-linecap="round"/>
<path d="M24.5967 62.7948C26.2867 61.2348 32.5567 55.1348 34.0367 53.6748M24.3467 62.4748C26.0367 60.9348 32.2867 55.5248 33.9267 54.0148" stroke="#1E1E1E" stroke-width="2" stroke-linecap="round"/>
<path d="M29.2735 63.8063C29.8535 63.3363 32.2035 61.6463 32.7835 61.1763M29.0135 64.4563C29.6835 63.8863 32.7235 61.1463 33.4735 60.6263" stroke="#1E1E1E" stroke-width="2" stroke-linecap="round"/>
<path d="M52.7965 51.4699C51.1265 50.0099 44.9465 43.8899 43.3465 42.3499M53.3365 51.2399C51.7465 49.8499 45.5965 44.2299 44.0265 42.7899" stroke="#1E1E1E" stroke-width="2" stroke-linecap="round"/>
<path d="M54.0655 57.4983C52.4655 55.9683 46.0955 49.9383 44.5155 48.4683M54.5855 57.1783C53.1155 55.6783 46.6855 50.3683 45.1355 48.8583" stroke="#1E1E1E" stroke-width="2" stroke-linecap="round"/>
<path d="M55.0378 64.1603C53.4578 62.7003 47.2178 56.8903 45.6578 55.4803M55.5078 63.7903C54.0578 62.2203 47.8178 56.3603 46.2978 54.9203" stroke="#1E1E1E" stroke-width="2" stroke-linecap="round"/>
<path d="M48.3357 63.9238C47.6757 63.5038 44.9857 61.6338 44.3057 61.1338M48.8257 63.6738C48.3057 63.1738 45.6257 61.2338 44.9757 60.6838" stroke="#1E1E1E" stroke-width="2" stroke-linecap="round"/>
<path d="M38.2837 28.516C39.0237 28.456 41.8237 28.096 42.6637 27.936M38.8037 28.376C39.6737 28.196 42.5537 27.476 43.2937 27.386" stroke="#1E1E1E" stroke-width="2" stroke-linecap="round"/>
<path d="M42.6256 28.0158C42.4756 28.4958 41.9056 30.5558 41.7556 31.1058M43.1156 27.7758C42.9556 28.4558 41.8856 30.7958 41.6356 31.4558" stroke="#1E1E1E" stroke-width="2" stroke-linecap="round"/>
</svg>
