<svg width="87" height="126" viewBox="0 0 87 126" fill="none" xmlns="http://www.w3.org/2000/svg">
<path d="M22.2133 2.21539C32.2833 3.56539 37.9633 4.70539 62.6133 2.21539C76.2233 1.45539 79.3333 7.71539 82.8133 22.4154C84.0333 49.0954 80.3733 76.9954 82.8133 103.965C80.6033 115.605 78.3633 125.085 62.6133 124.165C49.9433 126.025 35.9133 123.785 22.2133 124.165C6.85332 123.935 2.82332 114.745 2.01332 103.965C0.203321 77.8654 1.39332 56.4154 2.01332 22.4154C2.26332 7.38539 10.8633 4.38539 22.2133 2.21539Z" fill="white"/>
<path d="M22.2133 2.21539C31.6433 0.56539 40.3933 3.74539 62.6133 2.21539M22.2133 2.21539C30.6333 1.91539 41.1733 3.40539 62.6133 2.21539M22.2133 2.21539C9.03333 2.53539 1.46333 9.31539 2.01333 22.4154M22.2133 2.21539C7.85333 0.49539 0.243331 9.81539 2.01333 22.4154M62.6133 2.21539C76.7533 4.02539 81.7433 7.48539 82.8133 22.4154M62.6133 2.21539C78.2233 0.61539 83.2533 9.29539 82.8133 22.4154M82.8133 22.4154C82.0533 43.8854 84.5233 65.1554 82.8133 103.965M82.8133 22.4154C84.3933 41.4254 83.9733 61.5454 82.8133 103.965M82.8133 103.965C84.7633 115.495 75.3833 124.105 62.6133 124.165M82.8133 103.965C84.0033 117.915 74.1333 125.855 62.6133 124.165M62.6133 124.165C50.7933 125.615 40.1833 123.165 22.2133 124.165M62.6133 124.165C47.0933 123.835 32.3633 124.595 22.2133 124.165M22.2133 124.165C8.25333 123.525 0.903331 116.525 2.01333 103.965M22.2133 124.165C7.78333 122.415 3.12333 118.605 2.01333 103.965M2.01333 103.965C1.25333 78.5454 1.27333 55.5354 2.01333 22.4154M2.01333 103.965C2.62333 73.6454 1.87333 43.7154 2.01333 22.4154" stroke="#1E1E1E" stroke-width="2" stroke-linecap="round"/>
<path d="M10.8286 90.438C21.8186 90.438 65.7986 90.438 76.7886 90.438" stroke="#1E1E1E" stroke-width="2" stroke-linecap="round"/>
<path d="M10.0974 106.035C10.0874 105.135 10.0674 101.525 10.0574 100.625" stroke="#1E1E1E" stroke-linecap="round"/>
<path d="M10.0254 100.828C10.2754 100.468 11.2854 99.0478 11.5354 98.6878" stroke="#1E1E1E" stroke-linecap="round"/>
<path d="M13.0281 106.099C13.0381 105.199 13.0581 101.589 13.0681 100.689" stroke="#1E1E1E" stroke-linecap="round"/>
<path d="M13.1001 100.892C12.8501 100.532 11.8401 99.112 11.5901 98.752" stroke="#1E1E1E" stroke-linecap="round"/>
<path d="M7.88513 106.585C9.06513 106.565 13.7651 106.485 14.9351 106.465" stroke="#1E1E1E" stroke-linecap="round"/>
<path d="M11.7436 106.676C11.7536 107.306 11.7936 109.846 11.8036 110.476" stroke="#1E1E1E" stroke-linecap="round"/>
<path d="M53.1548 101.757C53.5148 101.387 54.9548 99.887 55.3148 99.507" stroke="#1E1E1E" stroke-linecap="round"/>
<path d="M55.3104 99.4668C55.7104 99.7968 57.2904 101.117 57.6904 101.447" stroke="#1E1E1E" stroke-linecap="round"/>
<path d="M57.7802 101.712C57.0902 102.772 54.3402 107.022 53.6502 108.092" stroke="#1E1E1E" stroke-linecap="round"/>
<path d="M53.2223 101.757C52.8623 101.387 51.4223 99.887 51.0623 99.507" stroke="#1E1E1E" stroke-linecap="round"/>
<path d="M51.0667 99.4668C50.6667 99.7968 49.0867 101.117 48.6867 101.447" stroke="#1E1E1E" stroke-linecap="round"/>
<path d="M48.5969 101.712C49.2869 102.772 52.0369 107.022 52.7269 108.092" stroke="#1E1E1E" stroke-linecap="round"/>
<path d="M23.5409 2.10229C31.7409 2.10229 39.9409 2.10229 59.9309 2.10229C62.4109 2.10229 63.6609 3.34229 63.6609 5.83229C63.6609 8.5123 63.6609 11.1923 63.6609 13.2823C63.6609 15.7623 62.4109 17.0023 59.9309 17.0023C52.0109 17.0023 44.0909 17.0023 23.5409 17.0023C21.0509 17.0023 19.8109 15.7623 19.8109 13.2823C19.8109 10.7923 19.8109 8.30229 19.8109 5.83229C19.8109 3.34229 21.0509 2.10229 23.5409 2.10229Z" fill="white"/>
<path d="M23.5409 2.10229C37.2709 2.10229 51.0009 2.10229 59.9309 2.10229M23.5409 2.10229C34.3609 2.10229 45.1809 2.10229 59.9309 2.10229M23.5409 2.10229C21.0509 2.10229 19.8109 3.34229 19.8109 5.83229M59.9309 2.10229C62.4109 2.10229 63.6609 3.34229 63.6609 5.83229M63.6609 5.83229C63.6609 7.56229 63.6609 9.3023 63.6609 13.2823M63.6609 5.83229C63.6609 7.72229 63.6609 9.6223 63.6609 13.2823M63.6609 13.2823C63.6609 15.7623 62.4109 17.0023 59.9309 17.0023M59.9309 17.0023C48.6209 17.0023 37.3009 17.0023 23.5409 17.0023M59.9309 17.0023C48.4209 17.0023 36.9209 17.0023 23.5409 17.0023M23.5409 17.0023C21.0509 17.0023 19.8109 15.7623 19.8109 13.2823M19.8109 13.2823C19.8109 11.3023 19.8109 9.32229 19.8109 5.83229M19.8109 13.2823C19.8109 11.6223 19.8109 9.97229 19.8109 5.83229" stroke="#1E1E1E" stroke-width="2" stroke-linecap="round"/>
<path d="M33.1534 7.10992H32.3839C32.3384 6.88859 32.2588 6.69414 32.145 6.52658C32.0333 6.35903 31.8968 6.21837 31.7354 6.1046C31.5761 5.98875 31.3993 5.90187 31.2048 5.84395C31.0104 5.78603 30.8077 5.75707 30.5967 5.75707C30.2119 5.75707 29.8633 5.8543 29.551 6.04874C29.2407 6.24319 28.9935 6.52969 28.8094 6.90824C28.6274 7.28679 28.5364 7.75118 28.5364 8.30142C28.5364 8.85167 28.6274 9.31606 28.8094 9.69461C28.9935 10.0732 29.2407 10.3597 29.551 10.5541C29.8633 10.7486 30.2119 10.8458 30.5967 10.8458C30.8077 10.8458 31.0104 10.8168 31.2048 10.7589C31.3993 10.701 31.5761 10.6151 31.7354 10.5014C31.8968 10.3855 32.0333 10.2438 32.145 10.0763C32.2588 9.90664 32.3384 9.71219 32.3839 9.49293H33.1534C33.0955 9.81769 32.99 10.1083 32.8369 10.3648C32.6839 10.6213 32.4935 10.8396 32.266 11.0195C32.0385 11.1974 31.783 11.3329 31.4996 11.426C31.2183 11.5191 30.9173 11.5656 30.5967 11.5656C30.0547 11.5656 29.5727 11.4333 29.1507 11.1685C28.7287 10.9037 28.3967 10.5272 28.1547 10.039C27.9127 9.55085 27.7917 8.97164 27.7917 8.30142C27.7917 7.63121 27.9127 7.052 28.1547 6.56382C28.3967 6.07564 28.7287 5.69915 29.1507 5.43438C29.5727 5.1696 30.0547 5.03721 30.5967 5.03721C30.9173 5.03721 31.2183 5.08375 31.4996 5.17684C31.783 5.26992 32.0385 5.40645 32.266 5.58642C32.4935 5.76431 32.6839 5.98151 32.8369 6.23802C32.99 6.49245 33.0955 6.78309 33.1534 7.10992ZM35.7001 11.5905C35.3981 11.5905 35.124 11.5336 34.8778 11.4198C34.6317 11.304 34.4362 11.1374 34.2914 10.9202C34.1466 10.701 34.0742 10.4362 34.0742 10.1259C34.0742 9.85286 34.128 9.63152 34.2355 9.4619C34.3431 9.2902 34.4869 9.15575 34.6668 9.05852C34.8468 8.9613 35.0454 8.8889 35.2626 8.84132C35.4819 8.79168 35.7022 8.75237 35.9235 8.72341C36.2131 8.68618 36.4479 8.65825 36.6279 8.63964C36.8099 8.61895 36.9423 8.58482 37.025 8.53724C37.1098 8.48967 37.1522 8.40692 37.1522 8.28901V8.26419C37.1522 7.95804 37.0685 7.72015 36.9009 7.55053C36.7354 7.38091 36.4841 7.2961 36.1469 7.2961C35.7973 7.2961 35.5232 7.37263 35.3247 7.52571C35.1261 7.67878 34.9864 7.8422 34.9058 8.01596L34.2107 7.76773C34.3348 7.47813 34.5003 7.25266 34.7072 7.09131C34.9161 6.92789 35.1437 6.81412 35.3898 6.74999C35.638 6.6838 35.8821 6.6507 36.1221 6.6507C36.2752 6.6507 36.451 6.66932 36.6496 6.70655C36.8502 6.74172 37.0436 6.81515 37.2298 6.92685C37.4181 7.03856 37.5742 7.20715 37.6983 7.43262C37.8225 7.6581 37.8845 7.96011 37.8845 8.33866V11.4788H37.1522V10.8334H37.115C37.0654 10.9368 36.9826 11.0475 36.8668 11.1654C36.7509 11.2833 36.5968 11.3836 36.4044 11.4663C36.2121 11.5491 35.9773 11.5905 35.7001 11.5905ZM35.8118 10.9327C36.1014 10.9327 36.3455 10.8758 36.5441 10.762C36.7447 10.6482 36.8957 10.5014 36.9971 10.3214C37.1005 10.1414 37.1522 9.95215 37.1522 9.75357V9.08335C37.1212 9.12058 37.0529 9.15471 36.9475 9.18574C36.844 9.2147 36.724 9.24056 36.5875 9.26331C36.4531 9.284 36.3217 9.30262 36.1935 9.31916C36.0673 9.33364 35.9649 9.34606 35.8863 9.3564C35.696 9.38122 35.5181 9.42156 35.3526 9.47741C35.1892 9.53119 35.0568 9.6129 34.9554 9.72254C34.8561 9.8301 34.8065 9.97697 34.8065 10.1631C34.8065 10.4176 34.9006 10.61 35.0888 10.7403C35.2791 10.8685 35.5201 10.9327 35.8118 10.9327ZM41.0207 11.5781C40.6236 11.5781 40.2729 11.4777 39.9689 11.2771C39.6648 11.0744 39.4269 10.7889 39.2552 10.4207C39.0835 10.0504 38.9977 9.6129 38.9977 9.10817C38.9977 8.60757 39.0835 8.17317 39.2552 7.80497C39.4269 7.43676 39.6658 7.15233 39.972 6.95168C40.2781 6.75103 40.6318 6.6507 41.0331 6.6507C41.3434 6.6507 41.5886 6.70241 41.7685 6.80584C41.9506 6.9072 42.0892 7.02304 42.1843 7.15336C42.2815 7.28162 42.357 7.38711 42.4108 7.46986H42.4729V5.12409H43.2052V11.4788H42.4977V10.7465H42.4108C42.357 10.8334 42.2805 10.943 42.1812 11.0754C42.0819 11.2057 41.9402 11.3226 41.7561 11.426C41.572 11.5274 41.3269 11.5781 41.0207 11.5781ZM41.12 10.9202C41.4138 10.9202 41.662 10.8437 41.8647 10.6906C42.0674 10.5355 42.2215 10.3214 42.327 10.0483C42.4325 9.77322 42.4853 9.45569 42.4853 9.09576C42.4853 8.73996 42.4336 8.42864 42.3301 8.1618C42.2267 7.89288 42.0736 7.68395 41.8709 7.53502C41.6682 7.38401 41.4179 7.30851 41.12 7.30851C40.8097 7.30851 40.5512 7.38815 40.3443 7.54743C40.1395 7.70464 39.9854 7.91874 39.882 8.18972C39.7806 8.45864 39.7299 8.76065 39.7299 9.09576C39.7299 9.43501 39.7817 9.74322 39.8851 10.0204C39.9906 10.2955 40.1457 10.5148 40.3505 10.6782C40.5574 10.8396 40.8139 10.9202 41.12 10.9202ZM46.6462 11.5781C46.187 11.5781 45.7909 11.4767 45.4578 11.274C45.1269 11.0692 44.8714 10.7837 44.6914 10.4176C44.5135 10.0494 44.4246 9.62118 44.4246 9.13299C44.4246 8.64481 44.5135 8.21454 44.6914 7.8422C44.8714 7.46779 45.1217 7.17612 45.4423 6.96719C45.765 6.7562 46.1415 6.6507 46.5718 6.6507C46.82 6.6507 47.0651 6.69207 47.3071 6.77481C47.5492 6.85756 47.7695 6.99201 47.9681 7.17819C48.1666 7.36229 48.3249 7.60638 48.4428 7.91046C48.5607 8.21454 48.6197 8.58896 48.6197 9.0337V9.34399H44.9459V8.711H47.875C47.875 8.44209 47.8212 8.20213 47.7136 7.99114C47.6081 7.78014 47.4571 7.61362 47.2606 7.49158C47.0662 7.36953 46.8365 7.30851 46.5718 7.30851C46.2801 7.30851 46.0277 7.38091 45.8147 7.52571C45.6037 7.66844 45.4413 7.85461 45.3275 8.08422C45.2137 8.31384 45.1569 8.56 45.1569 8.82271V9.2447C45.1569 9.60463 45.2189 9.90974 45.343 10.16C45.4692 10.4083 45.644 10.5975 45.8674 10.7279C46.0908 10.8561 46.3504 10.9202 46.6462 10.9202C46.8386 10.9202 47.0124 10.8934 47.1675 10.8396C47.3247 10.7837 47.4602 10.701 47.574 10.5913C47.6878 10.4796 47.7757 10.341 47.8377 10.1756L48.5452 10.3741C48.4707 10.6141 48.3456 10.8251 48.1697 11.0071C47.9939 11.1871 47.7767 11.3278 47.5181 11.4291C47.2596 11.5284 46.9689 11.5781 46.6462 11.5781ZM49.7336 11.4788V6.71276H50.4659V11.4788H49.7336ZM50.1059 5.91842C49.9632 5.91842 49.8401 5.86981 49.7367 5.77259C49.6353 5.67537 49.5846 5.55849 49.5846 5.42196C49.5846 5.28544 49.6353 5.16856 49.7367 5.07134C49.8401 4.97412 49.9632 4.92551 50.1059 4.92551C50.2487 4.92551 50.3707 4.97412 50.4721 5.07134C50.5755 5.16856 50.6272 5.28544 50.6272 5.42196C50.6272 5.55849 50.5755 5.67537 50.4721 5.77259C50.3707 5.86981 50.2487 5.91842 50.1059 5.91842ZM53.2096 11.5905C52.9076 11.5905 52.6335 11.5336 52.3873 11.4198C52.1412 11.304 51.9457 11.1374 51.8009 10.9202C51.6561 10.701 51.5837 10.4362 51.5837 10.1259C51.5837 9.85286 51.6375 9.63152 51.745 9.4619C51.8526 9.2902 51.9964 9.15575 52.1763 9.05852C52.3563 8.9613 52.5549 8.8889 52.7721 8.84132C52.9913 8.79168 53.2116 8.75237 53.433 8.72341C53.7226 8.68618 53.9574 8.65825 54.1373 8.63964C54.3194 8.61895 54.4518 8.58482 54.5345 8.53724C54.6193 8.48967 54.6617 8.40692 54.6617 8.28901V8.26419C54.6617 7.95804 54.5779 7.72015 54.4104 7.55053C54.2449 7.38091 53.9936 7.2961 53.6564 7.2961C53.3068 7.2961 53.0327 7.37263 52.8341 7.52571C52.6355 7.67878 52.4959 7.8422 52.4152 8.01596L51.7202 7.76773C51.8443 7.47813 52.0098 7.25266 52.2167 7.09131C52.4256 6.92789 52.6531 6.81412 52.8993 6.74999C53.1475 6.6838 53.3916 6.6507 53.6316 6.6507C53.7846 6.6507 53.9605 6.66932 54.159 6.70655C54.3597 6.74172 54.5531 6.81515 54.7393 6.92685C54.9275 7.03856 55.0837 7.20715 55.2078 7.43262C55.3319 7.6581 55.394 7.96011 55.394 8.33866V11.4788H54.6617V10.8334H54.6245C54.5748 10.9368 54.4921 11.0475 54.3763 11.1654C54.2604 11.2833 54.1063 11.3836 53.9139 11.4663C53.7215 11.5491 53.4868 11.5905 53.2096 11.5905ZM53.3213 10.9327C53.6109 10.9327 53.855 10.8758 54.0536 10.762C54.2542 10.6482 54.4052 10.5014 54.5066 10.3214C54.61 10.1414 54.6617 9.95215 54.6617 9.75357V9.08335C54.6307 9.12058 54.5624 9.15471 54.4569 9.18574C54.3535 9.2147 54.2335 9.24056 54.097 9.26331C53.9625 9.284 53.8312 9.30262 53.7029 9.31916C53.5767 9.33364 53.4744 9.34606 53.3957 9.3564C53.2054 9.38122 53.0275 9.42156 52.8621 9.47741C52.6986 9.53119 52.5662 9.6129 52.4649 9.72254C52.3656 9.8301 52.3159 9.97697 52.3159 10.1631C52.3159 10.4176 52.4101 10.61 52.5983 10.7403C52.7886 10.8685 53.0296 10.9327 53.3213 10.9327Z" fill="#1E1E1E"/>
<path fill-rule="evenodd" clip-rule="evenodd" d="M38.5168 55.9321C38.0068 58.0721 38.4068 67.8321 37.4568 68.8021C36.4968 69.7721 31.8968 63.2121 32.7568 61.7621C33.6168 60.3121 40.8968 60.5021 42.6268 60.1021" fill="white"/>
<path d="M39.2867 54.8121C38.9667 57.0221 39.0567 66.1821 38.0767 67.5821C37.0867 68.9921 32.4867 64.4921 33.3867 63.2421C34.2967 61.9821 41.7767 60.5821 43.5067 60.0321M40.1867 54.3221C39.7767 56.4121 38.7467 65.3421 37.7867 66.6821C36.8367 68.0221 33.4967 63.3921 34.4667 62.3821C35.4367 61.3621 42.1467 60.9621 43.6067 60.5921" stroke="#1E1E1E" stroke-linecap="round"/>
<path d="M36.5231 52.2557C37.0731 52.0857 37.6231 52.1857 38.0531 52.5557C38.4831 52.9357 38.9731 53.7657 39.1231 54.5357C39.2731 55.2957 39.2031 56.4757 38.9731 57.1557C38.7331 57.8357 38.3131 58.3757 37.7031 58.6257C37.0931 58.8657 35.9231 58.8157 35.3131 58.6257C34.6931 58.4257 34.2931 58.0257 34.0031 57.4257C33.7031 56.8357 33.4931 55.7857 33.5231 55.0557C33.5531 54.3357 33.6831 53.6057 34.1531 53.0957C34.6231 52.5857 36.0031 52.1457 36.3531 51.9857C36.7031 51.8357 36.3131 52.1157 36.2631 52.1757M36.0131 52.0557C36.7031 52.0057 37.8331 52.5657 38.3131 53.0257C38.8031 53.4757 38.7431 54.2357 38.9131 54.7957C39.0831 55.3657 39.5631 55.7757 39.3331 56.4057C39.1031 57.0257 38.0731 58.1657 37.5331 58.5457C36.9831 58.9357 36.5831 58.8757 36.0731 58.7257C35.5631 58.5657 34.9931 58.1057 34.4731 57.6057C33.9631 57.0957 33.0931 56.4357 32.9631 55.7157C32.8331 54.9957 33.2231 53.8457 33.7131 53.2757C34.2031 52.6957 35.6031 52.3557 35.9031 52.2657C36.2131 52.1657 35.5531 52.5657 35.5431 52.6957" fill="white"/>
<path d="M36.0531 52.4157C36.6231 52.3157 37.4631 52.6257 38.0431 52.9357C38.6231 53.2457 39.3031 53.6657 39.5431 54.2757C39.7831 54.8957 39.7031 55.9857 39.4731 56.6257C39.2331 57.2657 38.7731 57.8157 38.1231 58.1257C37.4731 58.4257 36.2531 58.5957 35.5731 58.4757C34.8931 58.3557 34.4431 57.9457 34.0631 57.4057C33.6731 56.8557 33.2831 55.8957 33.2731 55.1857C33.2631 54.4857 33.5731 53.6357 34.0031 53.1757C34.4231 52.7157 35.4231 52.5557 35.8131 52.4157C36.1931 52.2757 36.2431 52.3557 36.3131 52.3257M36.6031 52.5857C37.2031 52.5857 37.5231 52.8657 37.9931 53.2157C38.4731 53.5757 39.3231 54.0857 39.4531 54.7157C39.5831 55.3457 39.1231 56.3557 38.7831 56.9957C38.4431 57.6457 37.9531 58.3157 37.4131 58.5857C36.8731 58.8657 36.1931 58.8457 35.5331 58.6457C34.8731 58.4457 33.8331 58.0457 33.4431 57.3757C33.0531 56.7057 33.1131 55.4157 33.2131 54.6357C33.3131 53.8657 33.5131 53.0857 34.0331 52.7057C34.5431 52.3257 35.8831 52.4857 36.3031 52.3557C36.7131 52.2257 36.4431 51.8857 36.5131 51.9257" stroke="#1E1E1E" stroke-linecap="round"/>
<path d="M42.0542 50.3172C42.0442 51.0472 42.4042 53.8372 42.5142 54.5272M42.5442 50.1472C42.4742 50.7572 42.2242 53.1572 42.2242 53.9372" stroke="#1E1E1E" stroke-linecap="round"/>
<path d="M26.8113 71.448C27.0613 67.958 25.4413 55.748 27.3913 51.148C29.3413 46.548 35.2913 43.988 38.4913 43.848C41.6913 43.708 45.0013 45.748 46.5913 50.308C48.1813 54.868 47.8913 68.008 48.0413 71.198M25.3113 70.528C25.5513 67.168 24.5813 57.468 26.7213 52.708C28.8513 47.938 34.8413 42.698 38.1313 41.948C41.4213 41.188 44.4713 43.768 46.4713 48.178C48.4613 52.598 49.7613 64.528 50.1013 68.438" stroke="#1E1E1E" stroke-linecap="round"/>
<path d="M27.3106 71.238C30.8906 71.188 45.1106 71.038 48.5406 70.998M26.7706 70.778C30.3106 70.558 44.5806 70.338 48.2906 70.228" stroke="#1E1E1E" stroke-linecap="round"/>
<path d="M27.2213 55.3597C30.6313 55.3197 44.1413 54.8397 47.5713 54.7497M26.7413 55.0797C30.3013 54.8797 45.2013 54.1597 48.6413 53.9797" stroke="#1E1E1E" stroke-linecap="round"/>
<path d="M27.0494 63.7747C30.4694 63.6847 44.7794 63.4747 48.2794 63.2547M27.8794 63.4947C31.1994 63.2247 44.2394 62.6247 47.7894 62.5147" stroke="#1E1E1E" stroke-linecap="round"/>
<path d="M34.5317 45.1688C33.9417 46.1888 31.3717 46.9288 30.7917 51.2288C30.2117 55.5388 30.9717 67.7288 31.0517 70.9788M35.4717 44.9188C35.0817 45.9688 32.6517 47.2988 31.8317 51.7488C31.0117 56.1988 30.6317 68.3788 30.5417 71.6088" stroke="#1E1E1E" stroke-linecap="round"/>
<path d="M37.7585 43.6614C37.5285 44.6614 36.6685 45.9114 36.6285 50.4614C36.5785 55.0014 37.3785 67.5414 37.4985 70.9414M38.5685 44.6614C38.5285 45.7214 37.9485 46.7214 37.6985 51.1914C37.4485 55.6514 37.1485 68.1114 37.0785 71.4514" stroke="#1E1E1E" stroke-linecap="round"/>
<path d="M38.7151 43.7826C39.2351 44.8426 41.0951 45.2426 41.7751 49.7226C42.4551 54.2026 42.6151 67.2026 42.8051 70.6726M39.5651 43.3426C40.0351 44.5026 40.8251 45.7026 41.2751 50.3326C41.7351 54.9726 42.0351 67.7326 42.2951 71.1426" stroke="#1E1E1E" stroke-linecap="round"/>
<path d="M26.2962 54.9094C23.1962 53.8394 8.07617 53.0894 7.30617 49.0194C6.52617 44.9494 19.0862 33.3294 21.6562 30.4894M28.3462 53.6594C25.6962 52.7394 10.9462 53.9894 9.66617 50.2694C8.37617 46.5494 18.3562 34.7494 20.6262 31.3294" stroke="#1E1E1E" stroke-linecap="round"/>
<path d="M48.3613 54.7179C50.1613 53.2979 54.9513 47.6079 59.3113 46.2779C63.6813 44.9479 72.0413 46.6679 74.5413 46.7379M49.2113 55.7779C50.9213 54.4379 54.5813 48.4279 58.7613 46.7679C62.9513 45.1079 71.7213 45.9979 74.3313 45.8179" stroke="#1E1E1E" stroke-linecap="round"/>
<path d="M22.1219 21.0693C22.4173 22.5802 22.1006 28.0393 23.8337 30.2946C25.5568 32.5499 31.1425 33.947 32.5005 34.6112M22.9989 22.052C23.2747 23.4229 22.0121 27.539 23.5362 29.4737C25.0603 31.4084 30.786 32.8059 32.1634 33.6802" stroke="#1E1E1E" stroke-linecap="round"/>
<path d="M79.1004 40.4804C78.1151 41.69 73.9145 44.3242 73.4019 46.8794C72.8969 49.4278 75.5725 54.2471 76.0419 55.7695M79.0019 39.8724C78.0738 40.9508 74.1881 43.1717 73.7436 46.0142C73.2991 48.8566 75.9691 55.2056 76.3346 56.9273" stroke="#1E1E1E" stroke-linecap="round"/>
<path d="M27.0868 80.0813C28.2468 77.3113 29.9668 74.0313 31.1168 71.4713C29.8568 74.0513 28.8868 76.3013 27.0868 80.0813ZM27.0868 80.0813C24.9968 78.0513 22.7668 75.3413 17.6768 71.1213M27.0868 80.0813C23.6968 76.7813 20.7368 74.0613 17.6768 71.1213M17.6768 71.1213C17.2968 76.9913 16.0468 82.9213 16.6468 89.1113C16.5768 83.4313 17.4068 77.2013 17.6768 71.1213Z" stroke="#1E1E1E" stroke-linecap="round"/>
<path d="M47.3611 78.7766C45.7211 75.9366 44.4911 73.1266 43.3311 70.8466C44.8211 73.7166 46.1311 76.6866 47.3611 78.7766ZM47.3611 78.7766C50.0411 76.2566 52.7611 74.4366 56.8611 71.2566M47.3611 78.7766C49.5111 77.1966 51.7711 75.2066 56.8611 71.2566M56.8611 71.2566C56.7111 76.9066 58.5411 83.6566 58.5711 87.3366C57.9211 83.3466 57.1311 77.0866 56.8611 71.2566Z" stroke="#1E1E1E" stroke-linecap="round"/>
<path d="M40.0296 39.6394C41.0696 40.8494 42.0396 41.3994 42.9696 42.6394C42.8096 44.1194 44.4096 42.5494 42.9696 45.6394C42.0696 45.6894 41.0796 46.5694 40.0296 46.7594C40.6696 50.0994 39.0496 46.6594 37.0296 46.7594C36.5796 46.5694 35.4396 45.8094 34.0296 45.6394C31.1296 46.2994 34.5296 46.5994 34.0296 42.6394C34.3696 41.3194 35.7196 40.5694 37.0296 39.6394C39.6296 36.5394 36.1596 35.6994 40.0296 39.6394Z" fill="white"/>
<path d="M40.0296 39.6394C40.5996 40.3794 41.3896 40.7594 42.9696 42.6394M40.0296 39.6394C41.0096 40.7094 42.0996 41.8094 42.9696 42.6394M40.0296 39.6394C38.2096 39.0294 37.6296 38.8594 37.0296 39.6394M40.0296 39.6394C38.6596 37.1694 39.3696 38.5294 37.0296 39.6394M42.9696 42.6394C44.6096 44.2994 43.6996 44.5194 42.9696 45.6394M42.9696 42.6394C44.0196 43.2794 43.6396 43.3194 42.9696 45.6394M42.9696 45.6394C41.9796 46.0794 41.2396 46.2694 40.0296 46.7594M42.9696 45.6394C42.4196 45.9394 41.7796 46.0594 40.0296 46.7594M40.0296 46.7594C37.5696 47.4794 37.9196 47.7494 37.0296 46.7594M40.0296 46.7594C39.2596 48.5494 39.0796 47.4494 37.0296 46.7594M37.0296 46.7594C36.1596 46.3994 35.0896 46.0594 34.0296 45.6394M37.0296 46.7594C36.0396 46.3294 35.0496 45.9694 34.0296 45.6394M34.0296 45.6394C32.1996 43.7094 32.5996 43.7094 34.0296 42.6394M34.0296 45.6394C33.2096 44.8294 31.6196 44.9094 34.0296 42.6394M34.0296 42.6394C35.0796 41.8094 35.9696 40.9394 37.0296 39.6394M34.0296 42.6394C34.9196 41.6494 35.9596 40.6894 37.0296 39.6394" stroke="#1E1E1E" stroke-linecap="round"/>
<path d="M38.5317 42.5238C38.5317 43.0138 38.2517 44.8038 38.2517 45.2038M38.2017 42.3338C38.3317 42.7438 38.9217 44.1938 38.9317 44.6838" stroke="#1E1E1E" stroke-linecap="round"/>
</svg>
