<svg width="84" height="127" viewBox="0 0 84 127" fill="none" xmlns="http://www.w3.org/2000/svg">
<path d="M21.4422 2.6402C30.7822 2.8402 40.2821 5.5402 61.8421 2.6402C77.9721 4.4602 84.7022 7.1002 82.0422 22.8402C82.6322 46.6402 79.6822 65.2502 82.0422 104.39C81.7022 114.95 72.2821 123.46 61.8421 124.59C51.8321 127.05 43.7122 121.99 21.4422 124.59C4.56215 125.18 4.29215 116.4 1.24215 104.39C1.40215 90.0502 1.03215 68.9302 1.24215 22.8402C1.98215 10.5502 7.10215 -0.239799 21.4422 2.6402Z" fill="white"/>
<path d="M21.4421 2.64017C32.9121 1.58017 45.9621 0.660174 61.8421 2.64017M21.4421 2.64017C36.2021 3.01017 50.7221 1.64017 61.8421 2.64017M21.4421 2.64017C6.93215 0.930174 -0.0278539 11.3702 1.24215 22.8402M21.4421 2.64017C7.00215 4.00017 0.462146 9.81018 1.24215 22.8402M61.8421 2.64017C74.6921 1.34017 80.7622 10.1302 82.0422 22.8402M61.8421 2.64017C74.0121 4.93017 80.4422 9.34018 82.0422 22.8402M82.0422 22.8402C80.5622 41.7402 82.5222 62.6902 82.0422 104.39M82.0422 22.8402C81.3122 51.3302 81.5522 79.4902 82.0422 104.39M82.0422 104.39C82.2322 116.69 75.1521 125.63 61.8421 124.59M82.0422 104.39C80.7322 116.16 75.7321 126.29 61.8421 124.59M61.8421 124.59C52.8121 126.56 39.5921 125.16 21.4421 124.59M61.8421 124.59C47.6521 124.88 33.0921 125.02 21.4421 124.59M21.4421 124.59C6.83215 122.73 0.012146 117.92 1.24215 104.39M21.4421 124.59C8.14215 123.98 3.09215 116.74 1.24215 104.39M1.24215 104.39C1.04215 76.4402 2.17215 44.7602 1.24215 22.8402M1.24215 104.39C1.58215 75.4202 1.41215 46.9802 1.24215 22.8402" stroke="#1E1E1E" stroke-width="2" stroke-linecap="round"/>
<path d="M10.0574 90.8627C21.0474 90.8627 65.0274 90.8627 76.0174 90.8627" stroke="#1E1E1E" stroke-width="2" stroke-linecap="round"/>
<path d="M18.973 109.392C18.117 109.392 17.3878 109.159 16.7855 108.693C16.1832 108.223 15.723 107.543 15.4048 106.653C15.0867 105.759 14.9276 104.68 14.9276 103.414C14.9276 102.157 15.0867 101.083 15.4048 100.193C15.7268 99.2988 16.1889 98.617 16.7912 98.1473C17.3973 97.6738 18.1245 97.4371 18.973 97.4371C19.8215 97.4371 20.5469 97.6738 21.1492 98.1473C21.7552 98.617 22.2173 99.2988 22.5355 100.193C22.8575 101.083 23.0185 102.157 23.0185 103.414C23.0185 104.68 22.8594 105.759 22.5412 106.653C22.223 107.543 21.7628 108.223 21.1605 108.693C20.5582 109.159 19.8291 109.392 18.973 109.392ZM18.973 108.142C19.8215 108.142 20.4806 107.733 20.9503 106.914C21.42 106.096 21.6548 104.93 21.6548 103.414C21.6548 102.407 21.5469 101.549 21.331 100.84C21.1189 100.132 20.812 99.5924 20.4105 99.2212C20.0128 98.85 19.5336 98.6644 18.973 98.6644C18.1321 98.6644 17.4749 99.0791 17.0014 99.9087C16.5279 100.734 16.2912 101.903 16.2912 103.414C16.2912 104.422 16.3973 105.278 16.6094 105.983C16.8215 106.687 17.1264 107.223 17.5242 107.59C17.9257 107.958 18.4086 108.142 18.973 108.142Z" fill="#1E1E1E"/>
<path d="M9.32613 106.46C9.31613 105.56 9.29613 101.95 9.28613 101.05" stroke="#1E1E1E" stroke-linecap="round"/>
<path d="M9.25415 101.253C9.50415 100.893 10.5142 99.4726 10.7642 99.1126" stroke="#1E1E1E" stroke-linecap="round"/>
<path d="M12.257 106.524C12.267 105.624 12.287 102.014 12.297 101.114" stroke="#1E1E1E" stroke-linecap="round"/>
<path d="M12.3289 101.317C12.0789 100.957 11.0689 99.5368 10.8189 99.1768" stroke="#1E1E1E" stroke-linecap="round"/>
<path d="M7.11389 107.01C8.29389 106.99 12.9939 106.91 14.1639 106.89" stroke="#1E1E1E" stroke-linecap="round"/>
<path d="M10.9724 107.101C10.9824 107.731 11.0224 110.271 11.0324 110.901" stroke="#1E1E1E" stroke-linecap="round"/>
<path d="M63.6094 97.2229V108.859H62.2003V98.7002H62.1321L59.2912 100.587V99.1547L62.2003 97.2229H63.6094ZM70.7514 109.018C69.8953 109.018 69.1662 108.785 68.5639 108.319C67.9616 107.85 67.5014 107.17 67.1832 106.28C66.865 105.386 66.7059 104.306 66.7059 103.041C66.7059 101.783 66.865 100.71 67.1832 99.8195C67.5052 98.9255 67.9673 98.2437 68.5696 97.774C69.1756 97.3005 69.9029 97.0638 70.7514 97.0638C71.5999 97.0638 72.3253 97.3005 72.9275 97.774C73.5336 98.2437 73.9957 98.9255 74.3139 99.8195C74.6359 100.71 74.7969 101.783 74.7969 103.041C74.7969 104.306 74.6378 105.386 74.3196 106.28C74.0014 107.17 73.5412 107.85 72.9389 108.319C72.3366 108.785 71.6075 109.018 70.7514 109.018ZM70.7514 107.768C71.5999 107.768 72.259 107.359 72.7287 106.541C73.1984 105.723 73.4332 104.556 73.4332 103.041C73.4332 102.033 73.3253 101.176 73.1094 100.467C72.8972 99.7589 72.5904 99.2191 72.1889 98.8479C71.7912 98.4767 71.312 98.2911 70.7514 98.2911C69.9105 98.2911 69.2533 98.7058 68.7798 99.5354C68.3063 100.361 68.0696 101.53 68.0696 103.041C68.0696 104.049 68.1756 104.905 68.3878 105.609C68.5999 106.314 68.9048 106.85 69.3025 107.217C69.7041 107.585 70.187 107.768 70.7514 107.768Z" fill="#1E1E1E"/>
<path d="M52.3837 102.182C52.7437 101.812 54.1837 100.312 54.5437 99.9318" stroke="#1E1E1E" stroke-linecap="round"/>
<path d="M54.5392 99.8916C54.9392 100.222 56.5192 101.542 56.9192 101.872" stroke="#1E1E1E" stroke-linecap="round"/>
<path d="M57.009 102.137C56.319 103.197 53.569 107.447 52.879 108.517" stroke="#1E1E1E" stroke-linecap="round"/>
<path d="M52.4511 102.182C52.0911 101.812 50.6511 100.312 50.2911 99.9318" stroke="#1E1E1E" stroke-linecap="round"/>
<path d="M50.2955 99.8916C49.8955 100.222 48.3155 101.542 47.9155 101.872" stroke="#1E1E1E" stroke-linecap="round"/>
<path d="M47.8257 102.137C48.5157 103.197 51.2657 107.447 51.9557 108.517" stroke="#1E1E1E" stroke-linecap="round"/>
<path d="M22.7697 2.52698C32.2197 2.52698 41.6697 2.52698 59.1597 2.52698C61.6397 2.52698 62.8897 3.76698 62.8897 6.25698C62.8897 7.88698 62.8897 9.52698 62.8897 13.707C62.8897 16.187 61.6397 17.427 59.1597 17.427C49.0897 17.427 39.0297 17.427 22.7697 17.427C20.2797 17.427 19.0397 16.187 19.0397 13.707C19.0397 11.167 19.0397 8.63698 19.0397 6.25698C19.0397 3.76698 20.2797 2.52698 22.7697 2.52698Z" fill="white"/>
<path d="M22.7697 2.52698C32.6697 2.52698 42.5797 2.52698 59.1597 2.52698M22.7697 2.52698C35.5897 2.52698 48.4097 2.52698 59.1597 2.52698M22.7697 2.52698C20.2797 2.52698 19.0397 3.76698 19.0397 6.25698M59.1597 2.52698C61.6397 2.52698 62.8897 3.76698 62.8897 6.25698M62.8897 6.25698C62.8897 8.33698 62.8897 10.427 62.8897 13.707M62.8897 6.25698C62.8897 8.50698 62.8897 10.767 62.8897 13.707M62.8897 13.707C62.8897 16.187 61.6397 17.427 59.1597 17.427M59.1597 17.427C48.4297 17.427 37.7097 17.427 22.7697 17.427M59.1597 17.427C51.3497 17.427 43.5297 17.427 22.7697 17.427M22.7697 17.427C20.2797 17.427 19.0397 16.187 19.0397 13.707M19.0397 13.707C19.0397 11.937 19.0397 10.177 19.0397 6.25698M19.0397 13.707C19.0397 12.027 19.0397 10.347 19.0397 6.25698" stroke="#1E1E1E" stroke-width="2" stroke-linecap="round"/>
<path d="M30.6382 7.92711C30.6009 7.61269 30.4499 7.3686 30.1851 7.19484C29.9204 7.02108 29.5956 6.93419 29.2108 6.93419C28.9295 6.93419 28.6833 6.9797 28.4724 7.07072C28.2634 7.16174 28.1 7.28689 27.9821 7.44617C27.8663 7.60545 27.8083 7.78645 27.8083 7.98917C27.8083 8.15879 27.8487 8.30463 27.9294 8.42667C28.0121 8.54665 28.1176 8.64698 28.2458 8.72765C28.3741 8.80626 28.5086 8.87142 28.6492 8.92313C28.7899 8.97278 28.9192 9.01312 29.0371 9.04414L29.6825 9.2179C29.848 9.26134 30.0321 9.32133 30.2348 9.39787C30.4396 9.47441 30.6351 9.57887 30.8212 9.71126C31.0095 9.84158 31.1646 10.0091 31.2867 10.2139C31.4087 10.4187 31.4697 10.67 31.4697 10.9679C31.4697 11.3113 31.3797 11.6216 31.1998 11.8988C31.0219 12.176 30.7612 12.3963 30.4179 12.5597C30.0765 12.7231 29.6618 12.8048 29.1736 12.8048C28.7185 12.8048 28.3244 12.7314 27.9914 12.5845C27.6604 12.4376 27.3998 12.2329 27.2095 11.9701C27.0212 11.7074 26.9147 11.4023 26.8899 11.0548H27.6842C27.7049 11.2948 27.7856 11.4933 27.9262 11.6506C28.069 11.8057 28.2489 11.9215 28.4661 11.9981C28.6854 12.0725 28.9212 12.1098 29.1736 12.1098C29.4673 12.1098 29.7311 12.0622 29.9648 11.967C30.1986 11.8698 30.3837 11.7354 30.5202 11.5637C30.6568 11.3899 30.725 11.1872 30.725 10.9555C30.725 10.7445 30.6661 10.5728 30.5482 10.4404C30.4303 10.308 30.2751 10.2005 30.0827 10.1177C29.8904 10.035 29.6825 9.96259 29.4591 9.90054L28.6771 9.67713C28.1807 9.5344 27.7877 9.33064 27.4981 9.06586C27.2085 8.80109 27.0637 8.4546 27.0637 8.0264C27.0637 7.67061 27.1598 7.36032 27.3522 7.09554C27.5467 6.8287 27.8073 6.62184 28.1341 6.47497C28.463 6.32603 28.8302 6.25156 29.2357 6.25156C29.6452 6.25156 30.0093 6.325 30.3279 6.47187C30.6464 6.61667 30.8988 6.81525 31.085 7.06762C31.2732 7.31998 31.3725 7.60648 31.3828 7.92711H30.6382ZM33.3679 9.82607V12.6931H32.6356V7.92711H33.3431V8.6718H33.4051C33.5168 8.42978 33.6865 8.23533 33.914 8.08846C34.1415 7.93952 34.4353 7.86506 34.7952 7.86506C35.1179 7.86506 35.4003 7.93125 35.6423 8.06364C35.8843 8.19396 36.0726 8.39254 36.207 8.65939C36.3415 8.92417 36.4087 9.25928 36.4087 9.66472V12.6931H35.6764V9.71436C35.6764 9.33995 35.5792 9.04828 35.3848 8.83935C35.1903 8.62836 34.9235 8.52286 34.5842 8.52286C34.3505 8.52286 34.1415 8.57354 33.9574 8.6749C33.7754 8.77626 33.6316 8.92417 33.5261 9.11861C33.4206 9.31306 33.3679 9.54888 33.3679 9.82607ZM37.7468 12.6931V7.92711H38.4791V12.6931H37.7468ZM38.1192 7.13278C37.9764 7.13278 37.8534 7.08417 37.7499 6.98694C37.6486 6.88972 37.5979 6.77285 37.5979 6.63632C37.5979 6.49979 37.6486 6.38292 37.7499 6.2857C37.8534 6.18847 37.9764 6.13986 38.1192 6.13986C38.2619 6.13986 38.3839 6.18847 38.4853 6.2857C38.5887 6.38292 38.6404 6.49979 38.6404 6.63632C38.6404 6.77285 38.5887 6.88972 38.4853 6.98694C38.3839 7.08417 38.2619 7.13278 38.1192 7.13278ZM41.9427 7.92711V8.54769H39.3735V7.92711H41.9427ZM40.143 12.6931V7.2693C40.143 6.99625 40.2071 6.76871 40.3354 6.58667C40.4636 6.40464 40.6302 6.26811 40.8349 6.1771C41.0397 6.08608 41.2559 6.04057 41.4834 6.04057C41.6634 6.04057 41.8103 6.05505 41.9241 6.08401C42.0378 6.11297 42.1226 6.13986 42.1785 6.16468L41.9675 6.79767C41.9303 6.78526 41.8785 6.76974 41.8124 6.75113C41.7482 6.73251 41.6634 6.7232 41.5579 6.7232C41.3159 6.7232 41.1411 6.78422 41.0335 6.90627C40.928 7.02832 40.8753 7.20725 40.8753 7.44306V12.6931H40.143ZM45.0913 7.92711V8.54769H42.5221V7.92711H45.0913ZM43.2916 12.6931V7.2693C43.2916 6.99625 43.3558 6.76871 43.484 6.58667C43.6123 6.40464 43.7788 6.26811 43.9836 6.1771C44.1884 6.08608 44.4045 6.04057 44.6321 6.04057C44.812 6.04057 44.9589 6.05505 45.0727 6.08401C45.1865 6.11297 45.2713 6.13986 45.3271 6.16468L45.1161 6.79767C45.0789 6.78526 45.0272 6.76974 44.961 6.75113C44.8969 6.73251 44.812 6.7232 44.7065 6.7232C44.4645 6.7232 44.2897 6.78422 44.1822 6.90627C44.0767 7.02832 44.0239 7.20725 44.0239 7.44306V12.6931H43.2916ZM47.9196 12.7924C47.4603 12.7924 47.0642 12.691 46.7312 12.4883C46.4002 12.2835 46.1447 11.9981 45.9648 11.6319C45.7869 11.2637 45.6979 10.8355 45.6979 10.3473C45.6979 9.85916 45.7869 9.4289 45.9648 9.05656C46.1447 8.68214 46.395 8.39047 46.7157 8.18155C47.0384 7.97055 47.4148 7.86506 47.8451 7.86506C48.0933 7.86506 48.3385 7.90643 48.5805 7.98917C48.8225 8.07191 49.0428 8.20637 49.2414 8.39254C49.44 8.57665 49.5982 8.82074 49.7161 9.12482C49.834 9.4289 49.893 9.80331 49.893 10.2481V10.5583H46.2192V9.92536H49.1483C49.1483 9.65644 49.0945 9.41649 48.987 9.20549C48.8815 8.9945 48.7305 8.82798 48.5339 8.70593C48.3395 8.58389 48.1099 8.52286 47.8451 8.52286C47.5534 8.52286 47.3011 8.59526 47.088 8.74006C46.877 8.8828 46.7146 9.06897 46.6008 9.29858C46.4871 9.52819 46.4302 9.77435 46.4302 10.0371V10.4591C46.4302 10.819 46.4922 11.1241 46.6164 11.3744C46.7425 11.6226 46.9173 11.8119 47.1407 11.9422C47.3642 12.0705 47.6238 12.1346 47.9196 12.1346C48.1119 12.1346 48.2857 12.1077 48.4408 12.0539C48.5981 11.9981 48.7336 11.9153 48.8473 11.8057C48.9611 11.694 49.049 11.5554 49.1111 11.3899L49.8185 11.5885C49.7441 11.8284 49.6189 12.0394 49.4431 12.2215C49.2672 12.4014 49.05 12.5421 48.7915 12.6435C48.5329 12.7428 48.2423 12.7924 47.9196 12.7924ZM51.0069 12.6931V7.92711H51.7144V8.64698H51.764C51.8509 8.41116 52.0081 8.21982 52.2357 8.07295C52.4632 7.92608 52.7197 7.85264 53.0052 7.85264C53.0589 7.85264 53.1262 7.85368 53.2069 7.85575C53.2875 7.85781 53.3485 7.86092 53.3899 7.86506V8.60974C53.3651 8.60354 53.3082 8.59423 53.2193 8.58182C53.1324 8.56734 53.0403 8.5601 52.9431 8.5601C52.7114 8.5601 52.5046 8.60871 52.3225 8.70593C52.1426 8.80109 51.9998 8.93348 51.8943 9.1031C51.7909 9.27065 51.7392 9.462 51.7392 9.67713V12.6931H51.0069Z" fill="#1E1E1E"/>
<path d="M33.3461 55.259C40.4661 54.699 45.7961 55.449 54.6461 55.259M33.3461 55.259C41.5261 55.639 49.7261 54.979 54.6461 55.259M33.3461 55.259C31.0261 56.109 28.8661 55.549 29.6161 58.989M33.3461 55.259C29.7661 54.539 29.1561 55.569 29.6161 58.989M54.6461 55.259C57.3261 55.719 59.1761 57.209 58.3761 58.989M54.6461 55.259C56.9061 55.269 57.4861 56.669 58.3761 58.989M58.3761 58.989C58.3461 60.829 58.2361 62.909 58.3761 66.439M58.3761 58.989C58.4561 60.809 58.4961 62.789 58.3761 66.439M58.3761 66.439C57.5961 69.479 56.6461 69.539 54.6461 70.169M58.3761 66.439C58.3061 68.979 56.8761 70.869 54.6461 70.169M54.6461 70.169C48.7461 69.779 44.7561 69.689 33.3461 70.169M54.6461 70.169C47.4261 70.079 39.4561 70.089 33.3461 70.169M33.3461 70.169C31.8361 70.909 30.1261 69.669 29.6161 66.439M33.3461 70.169C30.1361 69.899 29.2161 68.969 29.6161 66.439M29.6161 66.439C29.3261 63.939 29.3061 61.199 29.6161 58.989M29.6161 66.439C29.6761 64.359 29.7761 62.369 29.6161 58.989" stroke="#1E1E1E" stroke-linecap="round"/>
<path d="M45.2443 60.6709C46.3843 60.7709 48.2743 61.3109 49.1043 61.7809C49.9343 62.2409 50.0843 62.7509 50.2043 63.4509C50.3343 64.1509 50.4043 65.4109 49.8643 65.9809C49.3243 66.5409 48.1343 66.7709 46.9543 66.8609C45.7643 66.9409 43.9343 66.7709 42.7743 66.4709C41.6243 66.1609 40.6643 65.6409 40.0343 65.0209C39.4043 64.4009 38.7543 63.3909 39.0043 62.7409C39.2543 62.1009 40.5243 61.4809 41.5443 61.1709C42.5743 60.8609 44.5643 60.9209 45.1643 60.8609C45.7743 60.8009 45.1943 60.7909 45.1643 60.8109M43.9143 60.8809C44.9143 60.6709 46.7543 60.2509 47.8143 60.6009C48.8843 60.9509 49.9743 62.1409 50.3043 62.9809C50.6343 63.8309 50.3943 64.9109 49.8043 65.6709C49.2143 66.4409 47.8943 67.4409 46.7643 67.5609C45.6343 67.6709 44.1543 66.6409 43.0343 66.3409C41.9143 66.0509 40.7243 66.2109 40.0543 65.8009C39.3943 65.3909 38.9643 64.7209 39.0443 63.9009C39.1143 63.0809 39.4943 61.4609 40.5143 60.8909C41.5343 60.3109 44.4543 60.5009 45.1443 60.4409C45.8343 60.3809 44.6543 60.3609 44.6743 60.5209" stroke="#1E1E1E" stroke-linecap="round"/>
<path d="M42.8847 63.4775C42.9147 63.4375 42.6247 63.3075 42.6747 63.4175C42.7147 63.5175 43.0447 63.9575 43.1347 64.1175C43.2147 64.2775 43.2447 64.2975 43.1847 64.3875C43.1347 64.4675 42.8847 64.5575 42.7847 64.6075C42.6847 64.6575 42.7147 64.7575 42.5947 64.7075C42.4747 64.6675 42.0947 64.4575 42.0447 64.3375C41.9947 64.2175 42.2647 64.0875 42.3047 63.9875C42.3547 63.8775 42.2847 63.7875 42.3147 63.6875C42.3447 63.5875 42.4447 63.4275 42.4647 63.3675C42.4947 63.3075 42.4547 63.2975 42.4647 63.3175M42.4147 62.8675C42.5447 62.8175 42.7747 63.1975 42.8447 63.4275C42.9247 63.6575 42.9147 63.9775 42.8747 64.2475C42.8347 64.5175 42.6847 64.9875 42.6147 65.0275C42.5547 65.0675 42.5347 64.4775 42.4847 64.4675C42.4347 64.4575 42.4047 64.9175 42.3347 64.9675C42.2747 65.0175 42.1847 64.9975 42.1247 64.7575C42.0647 64.5175 41.8447 63.7575 41.9747 63.5275C42.0947 63.2875 42.7347 63.4075 42.8647 63.3475C42.9947 63.2875 42.7247 63.1375 42.7747 63.1675C42.8147 63.2075 43.1247 63.4875 43.1447 63.5675" stroke="#1E1E1E" stroke-linecap="round"/>
<path d="M46.4114 62.8742C46.5014 62.8742 46.9314 63.2342 47.0814 63.3742C47.2314 63.5142 47.3414 63.5642 47.3314 63.7042C47.3114 63.8542 47.1014 64.0642 47.0014 64.2342C46.9014 64.4042 46.9114 64.6642 46.7514 64.7342C46.5814 64.8042 46.1314 64.7242 46.0114 64.6642C45.9014 64.6042 46.0814 64.5042 46.0614 64.3742C46.0514 64.2542 45.9314 64.0842 45.9314 63.8842C45.9314 63.6942 45.9814 63.3542 46.0714 63.1942C46.1514 63.0342 46.3514 62.9542 46.4314 62.9242C46.5014 62.8942 46.4614 63.0642 46.5014 63.0142M46.5714 62.8342C46.7014 62.9442 46.7914 63.1842 46.8314 63.4342C46.8614 63.6742 46.7914 64.1842 46.7714 64.2942C46.7614 64.4042 46.7714 63.9642 46.7314 64.0842C46.6914 64.2042 46.6214 64.8442 46.5214 65.0242C46.4114 65.2042 46.2314 65.3242 46.1014 65.1542C45.9714 64.9842 45.6614 64.2542 45.7214 63.9942C45.7814 63.7342 46.3514 63.7542 46.4514 63.5842C46.5614 63.4142 46.2514 63.0542 46.3514 62.9842C46.4614 62.9242 47.0114 63.1442 47.0914 63.1742C47.1714 63.2142 46.9814 63.2642 46.8514 63.2042" stroke="#1E1E1E" stroke-linecap="round"/>
<path d="M29.4747 62.3994C28.2647 61.7994 22.0647 60.9194 21.7847 58.4094C21.4947 55.9094 28.0547 50.2894 27.7547 47.3894C27.4547 44.4894 21.3547 42.1194 19.9647 40.9894M28.9347 62.1494C27.7147 61.6094 21.8447 61.5794 21.6047 58.9594C21.3547 56.3494 27.6747 49.6094 27.4647 46.4494C27.2447 43.2994 21.7647 40.9694 20.3047 40.0294" stroke="#1E1E1E" stroke-linecap="round"/>
<path d="M59.4824 61.9443C61.2624 60.4343 69.2024 56.1843 69.8824 53.5743C70.5624 50.9643 64.8424 48.8043 63.5524 46.2743C62.2724 43.7443 62.4424 39.6943 62.1524 38.3943M59.0724 62.9843C60.7624 61.2743 68.7824 55.6743 69.5124 52.7443C70.2324 49.8143 64.6524 47.7143 63.4324 45.4043C62.2224 43.1043 62.3424 40.0243 62.2124 38.9043" stroke="#1E1E1E" stroke-linecap="round"/>
<path d="M53.7023 26.6123C53.993 26.477 54.2422 26.3073 54.3788 26.2445M53.7023 26.6123C53.8996 26.4936 54.1064 26.3925 54.3788 26.2445M53.7023 26.6123C53.0889 26.3425 53.6586 27.0344 53.5499 27.1276M53.7023 26.6123C53.6502 26.1397 52.6697 26.5135 53.5499 27.1276M54.3788 26.2445C54.5651 25.9382 55.0963 25.6381 54.9029 26.392M54.3788 26.2445C54.7987 25.5722 54.9061 25.8326 54.9029 26.392M54.9029 26.392C55.8267 27.8817 56.5633 29.6553 57.3676 30.9253M54.9029 26.392C55.6431 27.8791 56.3254 29.113 57.3676 30.9253M57.3676 30.9253C57.3519 31.3778 57.38 31.8064 57.2113 31.4542M57.3676 30.9253C56.7954 30.9405 58.0188 30.9924 57.2113 31.4542M57.2113 31.4542C57.014 31.5729 56.7936 31.6699 56.5348 31.822M57.2113 31.4542C57.0356 31.5498 56.8287 31.6508 56.5348 31.822M56.5348 31.822C55.9957 31.5005 55.5466 31.9723 56.0147 31.6609M56.5348 31.822C55.5084 31.902 56.0779 31.5469 56.0147 31.6609M56.0147 31.6609C54.9904 30.112 54.3122 28.2156 53.5499 27.1276M56.0147 31.6609C55.5091 30.752 54.9224 29.6937 53.5499 27.1276" stroke="#1E1E1E" stroke-linecap="round"/>
<path d="M54.4996 24.2468C54.7321 24.1091 54.9293 23.9904 55.1937 23.8695M54.4996 24.2468C54.7105 24.1322 54.9389 24.008 55.1937 23.8695M54.4996 24.2468C53.5973 24.0317 53.8166 24.1629 54.3393 24.7893M54.4996 24.2468C53.9757 24.4975 54.3867 23.9554 54.3393 24.7893M55.1937 23.8695C55.7437 23.2062 55.7698 23.3172 55.7274 24.0346M55.1937 23.8695C55.5447 23.4055 56.0629 23.7725 55.7274 24.0346M55.7274 24.0346C56.2708 25.2644 57.0155 26.362 58.6316 29.3761M55.7274 24.0346C56.6825 25.917 57.7987 27.9281 58.6316 29.3761M58.6316 29.3761C58.7008 30.0897 58.1021 29.5957 58.48 29.9138M58.6316 29.3761C59.3396 29.2757 58.8618 29.6949 58.48 29.9138M58.48 29.9138C58.2069 30.0396 57.9129 30.2108 57.7859 30.2912M58.48 29.9138C58.2556 30.0245 58.0535 30.1343 57.7859 30.2912M57.7859 30.2912C56.9564 30.5032 56.6686 30.3296 57.2435 30.1308M57.7859 30.2912C57.4877 30.0777 57.6923 29.9096 57.2435 30.1308M57.2435 30.1308C56.7178 28.7662 55.7121 27.6284 54.3393 24.7893M57.2435 30.1308C56.5253 28.8936 55.9085 27.6127 54.3393 24.7893" stroke="#1E1E1E" stroke-linecap="round"/>
<path d="M56.6517 23.5147C56.9057 23.3538 57.174 23.2193 57.3457 23.1373M56.6517 23.5147C56.7923 23.4382 56.9456 23.3435 57.3457 23.1373M56.6517 23.5147C56.562 23.1195 55.6972 23.4758 56.4913 24.0571M56.6517 23.5147C57.1986 23.9344 56.0757 23.9416 56.4913 24.0571M57.3457 23.1373C57.7456 22.5329 57.8658 22.7749 57.8794 23.3024M57.3457 23.1373C58.0387 22.9882 57.4375 23.7248 57.8794 23.3024M57.8794 23.3024C58.5864 24.6027 59.3844 25.8192 60.7836 28.644M57.8794 23.3024C59.0146 25.474 60.1856 27.6487 60.7836 28.644M60.7836 28.644C60.3063 28.6872 61.3605 28.7629 60.6321 29.1817M60.7836 28.644C61.0659 28.7864 61.8004 29.1952 60.6321 29.1817M60.6321 29.1817C60.3725 29.3114 60.1448 29.458 59.938 29.559M60.6321 29.1817C60.3901 29.3019 60.1529 29.4308 59.938 29.559M59.938 29.559C58.9969 29.6495 59.4738 29.3333 59.3955 29.3987M59.938 29.559C60.0207 29.2295 58.6662 29.2716 59.3955 29.3987M59.3955 29.3987C58.2247 27.6221 57.3913 26.0264 56.4913 24.0571M59.3955 29.3987C58.285 27.2934 57.0279 25.0858 56.4913 24.0571" stroke="#1E1E1E" stroke-linecap="round"/>
<path d="M59.1364 23.9153C59.3249 23.8015 59.5006 23.7059 59.8304 23.538M59.1364 23.9153C59.3512 23.7871 59.5533 23.6773 59.8304 23.538M59.1364 23.9153C58.6524 24.1557 58.9994 23.7052 58.976 24.4578M59.1364 23.9153C59.215 23.5994 59.636 24.5202 58.976 24.4578M59.8304 23.538C60.1694 23.1147 60.6414 23.4385 60.3641 23.7031M59.8304 23.538C59.7459 24.0734 59.6808 23.2209 60.3641 23.7031M60.3641 23.7031C61.2712 25.0994 62.2109 26.6601 63.2683 29.0447M60.3641 23.7031C60.9698 24.9218 61.5159 25.968 63.2683 29.0447M63.2683 29.0447C63.8973 28.9872 63.4809 29.373 63.1167 29.5824M63.2683 29.0447C64.3325 29.4108 63.9601 29.7727 63.1167 29.5824M63.1167 29.5824C62.9546 29.6819 62.7869 29.7503 62.4227 29.9597M63.1167 29.5824C62.945 29.6643 62.7869 29.7503 62.4227 29.9597M62.4227 29.9597C62.1396 29.7949 62.2906 29.6331 61.8802 29.7994M62.4227 29.9597C61.336 29.7196 62.4339 30.5455 61.8802 29.7994M61.8802 29.7994C60.9954 28.4023 60.5123 26.8438 58.976 24.4578M61.8802 29.7994C60.9224 28.1005 59.9893 26.468 58.976 24.4578" stroke="#1E1E1E" stroke-linecap="round"/>
<path d="M53.8304 30.6383C53.9574 30.5579 54.1379 30.4712 54.5069 30.2705M53.8304 30.6383C54.0189 30.5245 54.2082 30.4329 54.5069 30.2705M53.8304 30.6383C54.2952 31.0117 53.3071 31.0367 53.6781 31.1537M53.8304 30.6383C53.4288 30.7998 53.8745 30.4892 53.6781 31.1537M54.5069 30.2705C55.1416 30.119 54.6315 30.7719 55.031 30.4181M54.5069 30.2705C54.181 29.9014 54.8908 30.2439 55.031 30.4181M55.031 30.4181C55.834 31.5182 56.2551 32.9625 57.4958 34.9514M55.031 30.4181C55.729 31.8484 56.6641 33.2751 57.4958 34.9514M57.4958 34.9514C57.747 35.0994 58.3818 35.4713 57.3394 35.4803M57.4958 34.9514C58.2349 35.4943 57.0602 35.4273 57.3394 35.4803M57.3394 35.4803C57.1677 35.5623 56.9704 35.6809 56.663 35.8481M57.3394 35.4803C57.1765 35.5575 57.0447 35.6292 56.663 35.8481M56.663 35.8481C56.716 35.5688 55.5268 35.6008 56.1428 35.687M56.663 35.8481C56.8592 36.4813 55.6985 35.5188 56.1428 35.687M56.1428 35.687C55.7612 34.6083 55.1716 33.8588 53.6781 31.1537M56.1428 35.687C55.2439 34.1383 54.5245 32.6058 53.6781 31.1537" stroke="#1E1E1E" stroke-linecap="round"/>
<path d="M58.6475 29.9099C59.352 29.4472 60.5773 29.2932 61.4749 29.4995C62.3812 29.7011 63.4775 30.4823 64.0553 31.1471C64.6377 31.8207 64.9574 32.6599 64.9467 33.5194C64.9495 34.3829 64.663 35.5518 64.0395 36.2891C63.416 37.0265 62.1364 37.8133 61.2104 37.9525C60.2932 38.0869 59.2682 37.6881 58.5284 37.1229C57.7925 36.544 57.0661 35.4593 56.8056 34.5196C56.5499 33.5886 56.7216 32.3343 56.9981 31.5238C57.2657 30.7181 58.1406 30.0034 58.4515 29.675C58.7576 29.3378 58.755 29.5214 58.8403 29.5319M58.3467 29.88C59.0504 29.3949 60.694 29.1729 61.6475 29.3146C62.6098 29.4516 63.6018 30.0619 64.0989 30.725C64.596 31.388 64.6434 32.3753 64.6389 33.2884C64.6481 34.2054 64.5562 35.4391 64.1346 36.1919C63.7178 36.9535 63.0624 37.6741 62.1419 37.8444C61.2263 38.0236 59.5292 37.7284 58.6224 37.2539C57.7156 36.7794 57.1048 35.8025 56.6965 34.9887C56.2929 34.1837 56.0108 33.2671 56.174 32.4157C56.3507 31.5684 57.3739 30.3519 57.7169 29.915C58.0647 29.4869 58.0882 29.7815 58.2542 29.7936" stroke="#1E1E1E" stroke-linecap="round"/>
<path d="M16.0611 27.1204C16.2353 27.0709 16.3982 26.9937 16.774 26.8295M16.0611 27.1204C16.2463 27.0448 16.4167 26.9861 16.774 26.8295M16.0611 27.1204C15.6626 27.229 16.0679 27.0312 15.8528 27.6158M16.0611 27.1204C15.3834 27.9477 16.1444 27.0864 15.8528 27.6158M16.774 26.8295C16.5598 26.4633 17.1585 26.8454 17.2787 27.034M16.774 26.8295C17.0349 27.2307 17.0177 27.6913 17.2787 27.034M17.2787 27.034C17.7543 28.1468 18.2876 29.2684 19.2282 31.8116M17.2787 27.034C17.7598 28.1337 18.3007 29.2739 19.2282 31.8116M19.2282 31.8116C19.8263 32.3775 18.8058 32.2323 19.0144 32.32M19.2282 31.8116C19.0877 32.1821 19.5756 32.3718 19.0144 32.32M19.0144 32.32C18.8124 32.3808 18.6458 32.4488 18.3015 32.6109M19.0144 32.32C18.844 32.3787 18.6588 32.4543 18.3015 32.6109M18.3015 32.6109C18.3834 33.1823 17.4465 32.2361 17.8023 32.3934M18.3015 32.6109C17.2128 32.5367 17.9431 33.4268 17.8023 32.3934M17.8023 32.3934C17.3478 31.1208 16.6375 29.9093 15.8528 27.6158M17.8023 32.3934C17.3517 31.4216 17.0703 30.4672 15.8528 27.6158" stroke="#1E1E1E" stroke-linecap="round"/>
<path d="M13.7202 26.2424C13.9369 26.1648 14.1592 26.0741 14.4517 25.944M13.7202 26.2424C13.9092 26.1761 14.1053 26.0745 14.4517 25.944M13.7202 26.2424C13.8083 26.0877 13.2357 26.5373 13.501 26.7639M13.7202 26.2424C14.1142 26.0169 12.9528 27.2468 13.501 26.7639M14.4517 25.944C14.6759 25.8849 14.8871 26.3495 14.9639 26.167M14.4517 25.944C14.5351 26.7308 14.2459 25.4663 14.9639 26.167M14.9639 26.167C15.6434 27.4882 16.1318 29.3734 17.2609 31.7964M14.9639 26.167C15.776 27.8661 16.4135 29.5608 17.2609 31.7964M17.2609 31.7964C16.9136 32.0569 17.0863 32.3212 17.051 32.3141M17.2609 31.7964C17.6834 32.1964 16.7115 31.8262 17.051 32.3141M17.051 32.3141C16.8174 32.377 16.6065 32.4954 16.3195 32.6125M17.051 32.3141C16.8435 32.3879 16.6751 32.4782 16.3195 32.6125M16.3195 32.6125C15.6155 32.3166 15.1488 32.4962 15.798 32.3933M16.3195 32.6125C16.1121 33.5072 15.6041 32.818 15.798 32.3933M15.798 32.3933C14.8548 30.5317 14.181 28.9598 13.501 26.7639M15.798 32.3933C15.347 31.0761 14.7408 29.617 13.501 26.7639" stroke="#1E1E1E" stroke-linecap="round"/>
<path d="M11.7912 27.4451C12.0542 27.3486 12.3413 27.2315 12.5227 27.1467M11.7912 27.4451C12.0189 27.3414 12.2634 27.2524 12.5227 27.1467M11.7912 27.4451C11.1557 28.1905 11.808 27.4599 11.572 27.9666M11.7912 27.4451C12.0433 26.8454 12.1139 27.389 11.572 27.9666M12.5227 27.1467C12.7887 27.4809 12.7971 27.8987 13.0349 27.3697M12.5227 27.1467C12.1475 26.5977 12.7488 27.3568 13.0349 27.3697M13.0349 27.3697C13.5812 29.026 14.2456 30.3102 15.3319 32.999M13.0349 27.3697C13.823 29.0894 14.3617 30.7272 15.3319 32.999M15.3319 32.999C15.2285 33.3545 15.644 33.5521 15.122 33.5167M15.3319 32.999C14.8537 32.8594 15.0636 32.8709 15.122 33.5167M15.122 33.5167C14.946 33.5885 14.7924 33.662 14.3905 33.8152M15.122 33.5167C14.9313 33.6053 14.72 33.6699 14.3905 33.8152M14.3905 33.8152C13.3985 33.7664 14.0037 34.5347 13.869 33.596M14.3905 33.8152C13.8446 34.092 14.2136 34.017 13.869 33.596M13.869 33.596C13.1223 32.2158 12.4768 30.4487 11.572 27.9666M13.869 33.596C13.2239 31.8827 12.4681 30.2686 11.572 27.9666" stroke="#1E1E1E" stroke-linecap="round"/>
<path d="M10.5287 29.6223C10.7824 29.5296 11.0489 29.3885 11.2601 29.3239M10.5287 29.6223C10.7879 29.5165 11.0509 29.42 11.2601 29.3239M10.5287 29.6223C10.8431 29.44 9.82191 30.5371 10.3094 30.1438M10.5287 29.6223C9.96063 30.1889 10.7003 29.1959 10.3094 30.1438M11.2601 29.3239C11.3613 29.9954 11.1402 28.8976 11.7723 29.5469M11.2601 29.3239C11.3168 29.4627 11.5478 29.8437 11.7723 29.5469M11.7723 29.5469C12.3092 30.9155 12.9116 32.3653 14.0694 35.1762M11.7723 29.5469C12.5761 31.649 13.4728 33.7672 14.0694 35.1762M14.0694 35.1762C14.4527 35.5598 13.5964 35.2612 13.8594 35.6939M14.0694 35.1762C13.8723 34.8786 13.4169 35.6153 13.8594 35.6939M13.8594 35.6939C13.7003 35.7805 13.5371 35.8039 13.128 35.9924M13.8594 35.6939C13.6982 35.7489 13.5408 35.8131 13.128 35.9924M13.128 35.9924C12.9106 36.7831 12.4496 36.1828 12.6065 35.7732M13.128 35.9924C13.1206 36.2654 12.2983 35.5209 12.6065 35.7732M12.6065 35.7732C11.9396 34.4036 11.5806 33.2325 10.3094 30.1438M12.6065 35.7732C11.6892 33.631 10.8884 31.4304 10.3094 30.1438" stroke="#1E1E1E" stroke-linecap="round"/>
<path d="M19.0968 29.768C19.3393 29.6475 19.5838 29.5585 19.8098 29.4771M19.0968 29.768C19.2673 29.7092 19.4339 29.6412 19.8098 29.4771M19.0968 29.768C19.2975 29.2541 19.3585 29.7476 18.8886 30.2634M19.0968 29.768C18.3629 29.9811 18.4761 30.4965 18.8886 30.2634M19.8098 29.4771C19.5111 28.9833 20.0524 29.6481 20.3144 29.6816M19.8098 29.4771C19.915 29.9202 19.5475 29.1521 20.3144 29.6816M20.3144 29.6816C21.1343 31.6907 21.9762 33.4101 22.2639 34.4591M20.3144 29.6816C21.0103 31.4929 21.7933 33.2795 22.2639 34.4591M22.2639 34.4591C21.8584 34.3654 22.0313 34.392 22.0501 34.9676M22.2639 34.4591C21.6789 34.7195 21.4933 34.7412 22.0501 34.9676M22.0501 34.9676C21.8111 35.0435 21.591 35.1657 21.3372 35.2585M22.0501 34.9676C21.7686 35.0717 21.5076 35.1997 21.3372 35.2585M21.3372 35.2585C20.8469 35.5126 21.149 35.4325 20.838 35.041M21.3372 35.2585C20.6956 34.8507 20.2236 34.8057 20.838 35.041M20.838 35.041C20.192 33.4577 19.6281 31.6789 18.8886 30.2634M20.838 35.041C20.3647 33.7221 19.7494 32.5583 18.8886 30.2634" stroke="#1E1E1E" stroke-linecap="round"/>
<path d="M15.7137 32.6724C16.4958 32.1805 17.772 31.9729 18.7037 32.1652C19.6354 32.3574 20.8005 33.016 21.2815 33.8242C21.7718 34.6286 21.6923 36.0219 21.619 36.9806C21.5458 37.9394 21.367 38.9304 20.8309 39.5487C20.2855 40.1709 19.2742 40.5512 18.3544 40.7321C17.4346 40.913 16.1008 41.1116 15.325 40.6398C14.5437 40.1809 13.9181 38.8593 13.674 37.9437C13.4338 37.0373 13.4902 36.0638 13.8927 35.1975C14.2991 34.3405 15.725 33.2294 16.0821 32.7813C16.4355 32.3239 16.0723 32.4396 16.0336 32.4771M15.6761 32.3421C16.3825 31.9027 17.9029 31.8439 18.7558 32.1871C19.6125 32.5396 20.3663 33.5929 20.8085 34.4384C21.2415 35.2878 21.4181 36.3822 21.3685 37.2665C21.3281 38.147 21.0937 39.1607 20.5518 39.7382C20.0136 40.3251 19.1289 40.7509 18.128 40.7596C17.1364 40.7646 15.3186 40.2535 14.6022 39.7682C13.8765 39.2867 13.964 38.7866 13.7961 37.8723C13.6244 36.9487 13.3038 35.157 13.5873 34.2637C13.867 33.3611 15.073 32.6638 15.4989 32.49C15.9118 32.3108 16.0267 33.0955 16.1129 33.2007" stroke="#1E1E1E" stroke-linecap="round"/>
<path d="M43.1744 54.8558C43.2644 53.6958 44.9844 50.0758 43.5344 48.5558C42.0844 47.0358 34.7144 47.3458 34.4744 45.7158C34.2444 44.0858 40.8444 40.1058 42.1244 38.7758M44.0444 55.8658C44.0944 54.7758 44.7544 51.1058 43.0944 49.2658C41.4244 47.4258 34.2344 46.7158 34.0644 44.8258C33.8944 42.9258 40.5644 39.0858 42.0644 37.8958" stroke="#1E1E1E" stroke-linecap="round"/>
<path d="M42.9935 33.5216C43.9635 33.6016 45.3435 34.1316 45.9835 34.7216C46.6235 35.3016 46.8135 36.1416 46.8435 37.0316C46.8635 37.9216 46.6635 39.3816 46.1235 40.0716C45.5935 40.7616 44.5035 40.9416 43.6335 41.1916C42.7735 41.4316 41.7835 41.8116 40.9435 41.5316C40.1035 41.2516 39.0635 40.3916 38.6035 39.4916C38.1435 38.5916 37.9135 37.0816 38.1935 36.1216C38.4635 35.1716 39.4535 34.3116 40.2535 33.7816C41.0635 33.2516 42.5735 33.0716 43.0235 32.9616C43.4835 32.8516 42.9635 33.0116 42.9835 33.0916M43.6935 33.0216C44.7135 33.0716 45.6035 34.0716 46.2235 34.7316C46.8435 35.3916 47.5035 36.0416 47.4135 37.0116C47.3135 37.9716 46.3535 39.6916 45.6735 40.5016C44.9935 41.3116 44.2635 41.7116 43.3335 41.8716C42.3935 42.0316 40.8735 41.9016 40.0835 41.4516C39.2935 41.0016 38.8535 39.9816 38.6035 39.1616C38.3435 38.3316 38.2635 37.4116 38.5635 36.4816C38.8535 35.5516 39.6635 34.0416 40.3835 33.5816C41.1135 33.1216 42.4135 33.8116 42.9035 33.7416C43.3835 33.6716 43.3035 33.1716 43.2735 33.1816" fill="white"/>
<path d="M42.7735 33.0915C43.5735 33.0215 44.3035 33.4715 44.9935 34.0315C45.6835 34.5815 46.6535 35.5715 46.9235 36.4215C47.2035 37.2815 47.1335 38.3115 46.6435 39.1815C46.1635 40.0415 44.9135 41.2215 44.0035 41.6015C43.1035 41.9915 42.0935 41.7715 41.2435 41.5015C40.3935 41.2315 39.3535 40.7315 38.8935 39.9915C38.4435 39.2515 38.3535 38.0115 38.5235 37.0315C38.6935 36.0615 39.2635 34.7815 39.9135 34.1315C40.5735 33.4815 41.9935 33.2615 42.4435 33.1415C42.8935 33.0315 42.5835 33.3915 42.6135 33.4515M41.6335 33.1415C42.4435 33.0015 43.6435 33.1815 44.5135 33.6515C45.3835 34.1315 46.4335 35.1215 46.8335 35.9915C47.2435 36.8715 47.3835 38.1215 46.9435 38.9015C46.5035 39.6815 45.0835 40.1815 44.2135 40.6915C43.3435 41.1915 42.5935 42.1315 41.7135 41.9415C40.8235 41.7515 39.5735 40.4015 38.9135 39.5615C38.2635 38.7215 37.7135 37.6615 37.7635 36.9215C37.8135 36.1715 38.5435 35.6915 39.2235 35.0915C39.9035 34.4915 41.3335 33.5915 41.8235 33.3315C42.3235 33.0715 42.1435 33.5415 42.1635 33.5415" stroke="#1E1E1E" stroke-linecap="round"/>
<path d="M42.4489 36.1406C42.4089 36.6906 42.2889 38.8406 42.2689 39.2506M43.0589 35.9406C43.1289 36.4006 43.1289 38.3306 42.9489 38.8106" stroke="#1E1E1E" stroke-linecap="round"/>
<path d="M38.3714 70.971C38.4014 71.971 40.0514 75.781 38.8014 76.801C37.5414 77.811 32.2314 75.571 30.8414 77.071C29.4614 78.561 30.5715 84.431 30.4915 85.771M39.1915 70.771C39.4215 71.801 41.3514 76.101 39.8814 77.251C38.4214 78.411 31.9614 76.471 30.4015 77.721C28.8314 78.971 30.3514 83.551 30.4814 84.771" stroke="#1E1E1E" stroke-linecap="round"/>
<path d="M28.5371 85.809C29.4971 85.729 33.2971 85.939 34.2371 85.999M29.0971 86.419C30.0071 86.379 33.0971 85.549 33.8971 85.409" stroke="#1E1E1E" stroke-linecap="round"/>
<path d="M50.5387 70.1967C50.4887 71.4767 48.8787 76.2567 50.1287 77.2667C51.3887 78.2767 56.5487 74.9567 58.0587 76.2567C59.5687 77.5667 59.0687 83.6267 59.1987 85.1067M51.4487 69.7767C51.3287 70.9367 48.2887 75.3167 49.5787 76.4667C50.8687 77.6167 57.7987 75.1467 59.1887 76.6667C60.5687 78.1867 58.0487 84.1567 57.8987 85.5967" stroke="#1E1E1E" stroke-linecap="round"/>
<path d="M60.573 85.9947C59.613 85.9147 55.713 85.4247 54.853 85.3547M61.143 85.7947C60.303 85.7447 56.493 85.6547 55.533 85.6847" stroke="#1E1E1E" stroke-linecap="round"/>
</svg>
