<svg width="85" height="125" viewBox="0 0 85 125" fill="none" xmlns="http://www.w3.org/2000/svg">
<path d="M21.8798 1.59422C34.5098 -0.45578 45.7598 3.58422 62.2798 1.59422C72.2498 3.60422 83.3898 9.38422 82.4798 21.7942C81.6698 47.9042 85.2098 69.6542 82.4798 103.344C81.8698 115.324 73.8498 122.534 62.2798 123.544C55.2198 121.634 40.6398 121.014 21.8798 123.544C10.0098 124.734 0.569824 119.564 1.67982 103.344C0.149824 71.8642 -0.440176 44.2442 1.67982 21.7942C-1.04018 10.1442 9.81982 2.66422 21.8798 1.59422Z" fill="white"/>
<path d="M21.8798 1.59421C35.3098 2.96421 52.5798 2.04421 62.2798 1.59421M21.8798 1.59421C32.2098 0.924215 42.0598 1.22421 62.2798 1.59421M21.8798 1.59421C7.16983 3.07421 0.249827 9.74422 1.67983 21.7942M21.8798 1.59421C7.15983 -0.255785 3.67983 6.84422 1.67983 21.7942M62.2798 1.59421C74.6198 3.49421 82.7898 7.16422 82.4798 21.7942M62.2798 1.59421C75.1998 3.47421 84.4098 7.03422 82.4798 21.7942M82.4798 21.7942C81.4598 53.9742 81.0598 86.0842 82.4798 103.344M82.4798 21.7942C83.8898 48.1542 83.3098 72.7742 82.4798 103.344M82.4798 103.344C84.4798 117.714 77.6598 123.794 62.2798 123.544M82.4798 103.344C83.8698 115.624 75.6798 124.384 62.2798 123.544M62.2798 123.544C52.4298 125.084 37.8098 121.944 21.8798 123.544M62.2798 123.544C49.9198 123.794 36.9598 124.374 21.8798 123.544M21.8798 123.544C9.50983 123.954 1.54983 118.244 1.67983 103.344M21.8798 123.544C9.96983 121.584 3.58983 116.304 1.67983 103.344M1.67983 103.344C0.399827 79.5742 2.44983 53.2542 1.67983 21.7942M1.67983 103.344C1.01983 83.9142 1.90983 64.7242 1.67983 21.7942" stroke="#1E1E1E" stroke-width="2" stroke-linecap="round"/>
<path d="M10.4951 89.8168C21.4851 89.8168 65.4651 89.8168 76.4551 89.8168" stroke="#1E1E1E" stroke-width="2" stroke-linecap="round"/>
<path d="M23.2073 1.48108C31.7273 1.48108 40.2473 1.48108 59.5973 1.48108C62.0773 1.48108 63.3273 2.72108 63.3273 5.21108C63.3273 7.52108 63.3273 9.84108 63.3273 12.6611C63.3273 15.1411 62.0773 16.3811 59.5973 16.3811C49.9273 16.3811 40.2573 16.3811 23.2073 16.3811C20.7173 16.3811 19.4773 15.1411 19.4773 12.6611C19.4773 10.8611 19.4773 9.06108 19.4773 5.21108C19.4773 2.72108 20.7173 1.48108 23.2073 1.48108Z" fill="white"/>
<path d="M23.2073 1.48108C36.0673 1.48108 48.9373 1.48108 59.5973 1.48108M23.2073 1.48108C32.8773 1.48108 42.5573 1.48108 59.5973 1.48108M23.2073 1.48108C20.7173 1.48108 19.4773 2.72108 19.4773 5.21108M59.5973 1.48108C62.0773 1.48108 63.3273 2.72108 63.3273 5.21108M63.3273 5.21108C63.3273 7.53108 63.3273 9.85108 63.3273 12.6611M63.3273 5.21108C63.3273 7.79108 63.3273 10.3711 63.3273 12.6611M63.3273 12.6611C63.3273 15.1411 62.0773 16.3811 59.5973 16.3811M59.5973 16.3811C45.8673 16.3811 32.1273 16.3811 23.2073 16.3811M59.5973 16.3811C48.5773 16.3811 37.5473 16.3811 23.2073 16.3811M23.2073 16.3811C20.7173 16.3811 19.4773 15.1411 19.4773 12.6611M19.4773 12.6611C19.4773 10.2011 19.4773 7.73108 19.4773 5.21108M19.4773 12.6611C19.4773 10.6511 19.4773 8.63108 19.4773 5.21108" stroke="#1E1E1E" stroke-width="2" stroke-linecap="round"/>
<path d="M36.2349 11.7339H35.4281L37.7615 5.37922H38.5558L40.8892 11.7339H40.0824L38.1835 6.38454H38.1338L36.2349 11.7339ZM36.5327 9.25159H39.7845V9.93422H36.5327V9.25159ZM41.7797 11.7339V6.96788H42.4871V7.68775H42.5368C42.6237 7.45193 42.7809 7.26059 43.0084 7.11372C43.236 6.96685 43.4925 6.89341 43.7779 6.89341C43.8317 6.89341 43.8989 6.89445 43.9796 6.89652C44.0603 6.89859 44.1213 6.90169 44.1627 6.90583V7.65051C44.1379 7.64431 44.081 7.635 43.992 7.62259C43.9051 7.60811 43.8131 7.60087 43.7159 7.60087C43.4842 7.60087 43.2773 7.64948 43.0953 7.7467C42.9153 7.84186 42.7726 7.97425 42.6671 8.14387C42.5637 8.31142 42.512 8.50277 42.512 8.7179V11.7339H41.7797ZM45.0307 13.5211V6.96788H45.7382V7.72498H45.825C45.8788 7.64224 45.9533 7.53674 46.0485 7.40849C46.1457 7.27817 46.2843 7.16233 46.4642 7.06097C46.6463 6.95754 46.8924 6.90583 47.2027 6.90583C47.604 6.90583 47.9578 7.00615 48.2639 7.2068C48.5701 7.40746 48.809 7.69189 48.9807 8.06009C49.1524 8.4283 49.2382 8.8627 49.2382 9.3633C49.2382 9.86803 49.1524 10.3055 48.9807 10.6758C48.809 11.044 48.5711 11.3295 48.267 11.5322C47.9629 11.7329 47.6123 11.8332 47.2151 11.8332C46.909 11.8332 46.6639 11.7825 46.4798 11.6811C46.2956 11.5777 46.154 11.4608 46.0547 11.3305C45.9554 11.1981 45.8788 11.0885 45.825 11.0016H45.763V13.5211H45.0307ZM45.7506 9.35089C45.7506 9.71082 45.8033 10.0283 45.9088 10.3035C46.0143 10.5765 46.1684 10.7906 46.3712 10.9458C46.5739 11.0988 46.8221 11.1754 47.1158 11.1754C47.422 11.1754 47.6775 11.0947 47.8822 10.9333C48.0891 10.7699 48.2442 10.5507 48.3477 10.2755C48.4532 9.99835 48.5059 9.69013 48.5059 9.35089C48.5059 9.01578 48.4542 8.71376 48.3508 8.44485C48.2494 8.17386 48.0953 7.95977 47.8885 7.80255C47.6837 7.64327 47.4261 7.56363 47.1158 7.56363C46.818 7.56363 46.5677 7.63914 46.3649 7.79014C46.1622 7.93908 46.0092 8.14801 45.9057 8.41692C45.8023 8.68377 45.7506 8.99509 45.7506 9.35089Z" fill="#1E1E1E"/>
<path d="M45.6086 47.3077C47.0209 49.5832 49.8865 50.9239 50.5106 52.2486C51.3559 54.8612 50.5352 53.1821 50.4925 56.8306C48.8131 57.7362 47.0825 59.0446 45.8924 61.3945C44.8467 61.1783 41.0644 62.7755 41.3032 61.3835C39.6733 60.4931 37.7684 57.636 36.4013 56.4426C34.5122 53.1329 36.0943 51.8027 36.4265 51.8535C38.4609 50.5817 39.1106 49.0216 41.0266 47.2896C43.1291 43.1048 46.2661 45.5567 45.6086 47.3077Z" fill="white"/>
<path d="M45.6086 47.3077C47.5462 49.0761 49.5961 51.0429 50.5106 52.2486M45.6086 47.3077C47.4037 49.3443 49.6377 51.2552 50.5106 52.2486M45.6086 47.3077C43.7845 45.455 42.6302 45.8959 41.0266 47.2896M45.6086 47.3077C45.2557 45.3618 42.3583 44.8978 41.0266 47.2896M50.5106 52.2486C52.9851 54.1323 52.1545 54.9704 50.4925 56.8306M50.5106 52.2486C52.5636 53.4376 52.0388 55.6064 50.4925 56.8306M50.4925 56.8306C48.7808 58.726 46.4973 60.4141 45.8924 61.3945M50.4925 56.8306C49.0507 58.4442 47.2907 60.0495 45.8924 61.3945M45.8924 61.3945C44.7078 62.3162 42.278 63.445 41.3032 61.3835M45.8924 61.3945C45.6815 62.8574 42.1056 62.3342 41.3032 61.3835M41.3032 61.3835C39.7122 59.5953 37.9426 58.266 36.4013 56.4426M41.3032 61.3835C39.9094 59.794 38.2748 58.3026 36.4013 56.4426M36.4013 56.4426C35.3556 54.4232 35.9546 53.1528 36.4265 51.8535M36.4013 56.4426C35.0413 55.2422 34.8832 52.3 36.4265 51.8535M36.4265 51.8535C37.8753 50.2471 39.9484 48.1481 41.0266 47.2896M36.4265 51.8535C38.321 50.1993 39.8841 48.3246 41.0266 47.2896" stroke="#1E1E1E" stroke-linecap="round"/>
<path d="M48.2798 49.1261C51.4998 45.7361 55.4598 43.2661 58.8698 39.3261ZM48.2798 49.1261C51.1598 46.5061 53.7498 44.1861 58.8698 39.3261Z" stroke="#1E1E1E" stroke-linecap="round"/>
<path d="M55.6298 45.7661C56.6098 43.5961 57.9698 41.8861 58.8698 39.3261ZM55.6298 45.7661C56.5698 44.0961 57.3698 42.5561 58.8698 39.3261Z" stroke="#1E1E1E" stroke-linecap="round"/>
<path d="M52.2399 42.1761C54.2599 41.1061 56.6499 40.4961 58.8699 39.3261ZM52.2399 42.1761C53.9999 41.3561 55.6199 40.6861 58.8699 39.3261Z" stroke="#1E1E1E" stroke-linecap="round"/>
<path d="M37.7654 49.4423C35.6654 46.9423 31.7654 44.0723 27.1754 39.6423ZM37.7654 49.4423C34.0154 45.5123 29.5854 41.8123 27.1754 39.6423Z" stroke="#1E1E1E" stroke-linecap="round"/>
<path d="M33.8854 42.2723C32.4654 41.6223 30.1354 40.7823 27.1754 39.6423ZM33.8854 42.2723C31.4754 41.1723 28.7254 40.1823 27.1754 39.6423Z" stroke="#1E1E1E" stroke-linecap="round"/>
<path d="M30.6254 45.9823C30.0554 44.3523 28.5954 42.5423 27.1754 39.6423ZM30.6254 45.9823C29.4454 43.4723 27.9354 41.0723 27.1754 39.6423Z" stroke="#1E1E1E" stroke-linecap="round"/>
<path d="M48.6356 59.0871C50.8456 61.2971 54.4356 64.4571 59.2256 68.8871ZM48.6356 59.0871C51.2056 61.3771 53.8856 63.6971 59.2256 68.8871Z" stroke="#1E1E1E" stroke-linecap="round"/>
<path d="M52.6256 65.9871C54.0356 66.6071 56.1556 67.6971 59.2256 68.8871ZM52.6256 65.9871C54.2156 66.6471 55.8756 67.3171 59.2256 68.8871Z" stroke="#1E1E1E" stroke-linecap="round"/>
<path d="M56.0356 62.4171C56.6356 63.9071 57.9156 65.8771 59.2256 68.8871ZM56.0356 62.4171C56.8156 63.9471 57.6456 65.4871 59.2256 68.8871Z" stroke="#1E1E1E" stroke-linecap="round"/>
<path d="M38.1212 58.7709C35.3412 62.4609 31.0012 65.6109 27.5312 68.5709ZM38.1212 58.7709C35.4312 61.0809 32.7312 63.8609 27.5312 68.5709Z" stroke="#1E1E1E" stroke-linecap="round"/>
<path d="M30.8412 62.1609C30.0712 64.4809 28.5312 66.5409 27.5312 68.5709ZM30.8412 62.1609C30.0012 63.7109 29.1612 65.4909 27.5312 68.5709Z" stroke="#1E1E1E" stroke-linecap="round"/>
<path d="M34.1812 65.7909C32.3712 66.9609 29.7712 67.8709 27.5312 68.5709ZM34.1812 65.7909C32.4912 66.4009 30.7912 67.2409 27.5312 68.5709Z" stroke="#1E1E1E" stroke-linecap="round"/>
<path d="M19.1499 32.5243C20.0599 32.2643 21.3399 32.1043 22.8599 32.5243C26.0299 31.6343 23.1499 31.8043 24.7199 34.3843C25.4699 37.4243 25.2299 38.8043 24.7199 41.5743C24.1599 41.2943 23.1199 43.1643 22.8599 43.4343C22.1699 43.7743 21.1599 43.4043 19.1499 43.4343C19.8899 41.9443 15.0099 44.1943 17.2899 41.5743C16.3999 38.9743 16.8499 38.0743 17.2899 34.3843C15.7799 34.9243 17.0499 33.7043 19.1499 32.5243Z" fill="white"/>
<path d="M19.1499 32.5243C20.0699 32.6843 21.1199 32.4843 22.8599 32.5243M19.1499 32.5243C20.1599 32.5543 21.2099 32.5043 22.8599 32.5243M19.1499 32.5243C18.5999 33.2243 17.5799 33.2943 17.2899 34.3843M19.1499 32.5243C18.4599 31.3943 16.7099 33.2743 17.2899 34.3843M22.8599 32.5243C24.7899 32.9943 24.8199 32.3343 24.7199 34.3843M22.8599 32.5243C25.2499 33.0443 25.8199 33.2943 24.7199 34.3843M24.7199 34.3843C24.8399 36.9143 24.4599 39.5643 24.7199 41.5743M24.7199 34.3843C24.6099 37.1043 24.8299 39.8943 24.7199 41.5743M24.7199 41.5743C24.8299 42.8443 23.7299 44.0343 22.8599 43.4343M24.7199 41.5743C25.3499 43.0543 24.0299 44.2643 22.8599 43.4343M22.8599 43.4343C21.4599 43.4443 20.0099 43.5643 19.1499 43.4343M22.8599 43.4343C22.0299 43.3743 21.3899 43.5143 19.1499 43.4343M19.1499 43.4343C17.8799 43.1343 18.1499 42.4443 17.2899 41.5743M19.1499 43.4343C17.0899 44.2543 16.5699 43.6643 17.2899 41.5743M17.2899 41.5743C17.0199 38.8443 17.3299 35.8543 17.2899 34.3843M17.2899 41.5743C17.3999 39.2543 17.4099 37.3243 17.2899 34.3843" stroke="#1E1E1E" stroke-linecap="round"/>
<path d="M62.9074 32.7219C63.9074 32.3019 65.0974 32.5819 66.6174 32.7219C66.2874 31.3819 69.6374 34.2019 68.4774 34.5819C69.0274 35.9819 68.3474 37.9019 68.4774 41.7719C67.4974 42.7419 65.8874 44.9419 66.6174 43.6319C65.3174 43.6119 64.4674 43.3919 62.9074 43.6319C59.3874 45.0119 59.3474 42.2319 61.0474 41.7719C60.6674 39.4919 60.5974 38.0919 61.0474 34.5819C60.1874 34.5219 61.9474 33.1219 62.9074 32.7219Z" fill="white"/>
<path d="M62.9074 32.7219C64.2474 32.6719 65.6974 32.7219 66.6174 32.7219M62.9074 32.7219C63.8974 32.6819 64.7974 32.7619 66.6174 32.7219M62.9074 32.7219C61.1574 32.8319 61.7374 34.0419 61.0474 34.5819M62.9074 32.7219C61.4674 32.2519 61.5974 32.2119 61.0474 34.5819M66.6174 32.7219C67.9674 31.9119 69.4774 33.7919 68.4774 34.5819M66.6174 32.7219C68.9574 32.8719 69.1774 32.7519 68.4774 34.5819M68.4774 34.5819C68.2474 36.7119 68.7674 39.1319 68.4774 41.7719M68.4774 34.5819C68.5274 36.2219 68.4674 37.6719 68.4774 41.7719M68.4774 41.7719C68.0974 43.6119 68.4074 43.8319 66.6174 43.6319M68.4774 41.7719C68.4074 43.8419 68.6374 42.6519 66.6174 43.6319M66.6174 43.6319C65.0674 43.7419 63.6074 43.6919 62.9074 43.6319M66.6174 43.6319C65.5374 43.6919 64.3074 43.5919 62.9074 43.6319M62.9074 43.6319C62.5274 43.2619 60.3374 43.7219 61.0474 41.7719M62.9074 43.6319C60.9474 44.4819 62.0474 42.2719 61.0474 41.7719M61.0474 41.7719C61.0874 39.8419 61.0674 38.0019 61.0474 34.5819M61.0474 41.7719C61.1274 39.9519 61.0874 38.0719 61.0474 34.5819" stroke="#1E1E1E" stroke-linecap="round"/>
<path d="M63.0655 63.87C64.3155 63.75 64.5655 63.67 66.7755 63.87C69.1755 64.73 67.8355 66.48 68.6355 65.73C68.4855 67.77 68.3255 70.81 68.6355 72.92C66.6655 75.47 69.0355 75.55 66.7755 74.78C65.7855 74.5 63.6255 75.03 63.0655 74.78C60.1255 74 61.2155 71.61 61.2055 72.92C60.7055 72.11 60.9455 70.44 61.2055 65.73C61.4855 64.88 64.1255 66.24 63.0655 63.87Z" fill="white"/>
<path d="M63.0655 63.87C64.4555 63.89 65.8755 63.91 66.7755 63.87M63.0655 63.87C64.3055 63.92 65.4355 63.8 66.7755 63.87M63.0655 63.87C62.3055 62.89 60.6955 64.6 61.2055 65.73M63.0655 63.87C61.2155 63.55 61.0055 64.01 61.2055 65.73M66.7755 63.87C69.0155 64.33 69.5955 64.62 68.6355 65.73M66.7755 63.87C68.7155 63.28 68.6055 64.91 68.6355 65.73M68.6355 65.73C68.8855 68.03 68.3055 69.49 68.6355 72.92M68.6355 65.73C68.6755 67.95 68.5855 70.28 68.6355 72.92M68.6355 72.92C69.1855 74.37 67.9555 75.5 66.7755 74.78M68.6355 72.92C69.4155 73.18 68.9755 74.53 66.7755 74.78M66.7755 74.78C65.4955 74.85 64.5755 74.67 63.0655 74.78M66.7755 74.78C65.9055 74.77 65.1155 74.76 63.0655 74.78M63.0655 74.78C61.1155 75.49 60.5855 74.9 61.2055 72.92M63.0655 74.78C62.8255 74.04 60.5755 73.23 61.2055 72.92M61.2055 72.92C61.1955 70.43 61.0555 68.57 61.2055 65.73M61.2055 72.92C61.2355 71.49 61.3055 70.13 61.2055 65.73" stroke="#1E1E1E" stroke-linecap="round"/>
<path d="M20.059 64.6606C20.539 64.4306 21.809 64.8406 23.769 64.6606C24.209 66.6506 27.189 66.6206 25.629 66.5206C25.259 68.1706 24.899 70.4906 25.629 73.7106C26.649 75.7206 26.759 75.3606 23.769 75.5706C22.269 75.8006 21.309 75.4006 20.059 75.5706C18.829 73.0206 15.659 73.6506 18.199 73.7106C17.949 72.0706 18.359 69.7306 18.199 66.5206C20.499 67.6406 20.899 62.4806 20.059 64.6606Z" fill="white"/>
<path d="M20.0591 64.6606C21.0191 64.6906 22.2091 64.8206 23.7691 64.6606M20.0591 64.6606C21.0491 64.5806 22.1091 64.6906 23.7691 64.6606M20.0591 64.6606C18.6491 64.2506 18.6791 64.3006 18.1991 66.5206M20.0591 64.6606C18.1391 64.8606 17.5891 64.9606 18.1991 66.5206M23.7691 64.6606C25.9691 64.7906 26.2391 64.7706 25.6291 66.5206M23.7691 64.6606C24.9791 65.0806 25.4191 64.5006 25.6291 66.5206M25.6291 66.5206C25.3491 68.3806 25.6891 70.9806 25.6291 73.7106M25.6291 66.5206C25.5691 69.1906 25.7291 71.6806 25.6291 73.7106M25.6291 73.7106C25.5691 75.6706 25.6891 74.7206 23.7691 75.5706M25.6291 73.7106C26.5891 74.7006 24.9991 74.7906 23.7691 75.5706M23.7691 75.5706C22.4591 75.4506 20.9791 75.7206 20.0591 75.5706M23.7691 75.5706C22.4391 75.5306 20.8791 75.6306 20.0591 75.5706M20.0591 75.5706C18.1991 76.3106 19.0691 74.3106 18.1991 73.7106M20.0591 75.5706C18.1891 74.6406 18.3591 75.0006 18.1991 73.7106M18.1991 73.7106C18.0491 72.0406 17.8491 70.2406 18.1991 66.5206M18.1991 73.7106C18.3091 71.5006 18.0991 69.0506 18.1991 66.5206" stroke="#1E1E1E" stroke-linecap="round"/>
<path d="M40.6299 51.6535C42.0899 51.8535 42.9199 52.0835 45.2499 51.6535C47.2599 52.8235 44.9299 51.4935 46.2199 52.6235C46.0399 53.2035 46.2999 53.6335 46.2199 54.5735C47.7399 55.0435 45.6599 57.2735 45.2499 55.5435C43.7899 55.4135 43.0099 55.0635 40.6299 55.5435C37.7699 54.4135 39.3599 53.9035 39.6599 54.5735C39.6899 53.8935 39.8599 53.3435 39.6599 52.6235C41.4699 50.0835 41.4299 53.4935 40.6299 51.6535Z" fill="white"/>
<path d="M40.6299 51.6535C42.0999 51.7835 43.4499 51.7535 45.2499 51.6535M40.6299 51.6535C42.3099 51.7035 43.8999 51.6735 45.2499 51.6535M40.6299 51.6535C39.6299 51.4635 39.5499 51.7035 39.6599 52.6235M40.6299 51.6535C39.2699 52.2235 39.2099 52.1135 39.6599 52.6235M45.2499 51.6535C46.2999 51.3135 46.1999 52.2235 46.2199 52.6235M45.2499 51.6535C45.7499 51.1335 46.2099 52.5635 46.2199 52.6235M46.2199 52.6235C46.2199 53.3935 46.2499 54.1035 46.2199 54.5735M46.2199 52.6235C46.2399 53.2235 46.2199 53.8335 46.2199 54.5735M46.2199 54.5735C46.6699 54.6535 46.4499 55.4035 45.2499 55.5435M46.2199 54.5735C46.2099 54.7035 46.3499 54.8435 45.2499 55.5435M45.2499 55.5435C43.6199 55.6535 42.3199 55.5335 40.6299 55.5435M45.2499 55.5435C43.9499 55.5935 42.7099 55.5935 40.6299 55.5435M40.6299 55.5435C40.5599 55.1135 39.2999 54.6835 39.6599 54.5735M40.6299 55.5435C40.0899 55.5735 39.3199 55.2135 39.6599 54.5735M39.6599 54.5735C39.5999 54.1535 39.6799 53.6835 39.6599 52.6235M39.6599 54.5735C39.6399 53.9635 39.6699 53.3135 39.6599 52.6235" stroke="#1E1E1E" stroke-linecap="round"/>
<path d="M40.8599 51.6568C41.2399 51.9668 42.5899 53.4268 42.8899 53.6868M40.5899 51.2868C40.9399 51.4868 42.4199 52.7868 42.7399 53.1468" stroke="#1E1E1E" stroke-width="0.5" stroke-linecap="round"/>
<path d="M43.0999 53.8235C43.5699 53.5035 45.4099 51.9235 45.9399 51.6335M42.7999 53.5935C43.1899 53.3235 45.1099 52.2935 45.6799 51.9335" stroke="#1E1E1E" stroke-width="0.5" stroke-linecap="round"/>
<path d="M18.0649 30.6223C19.6049 30.4423 21.5049 30.3423 23.1449 30.6223C24.5649 28.6523 26.9949 32.4823 25.6849 33.1623C25.6349 37.5623 25.0149 38.7523 25.6849 43.4123C27.0649 43.4123 24.0549 45.9623 23.1449 45.9523C22.0349 45.5423 21.5449 45.7023 18.0649 45.9523C17.5549 46.2323 15.9249 47.4123 15.5249 43.4123C16.2749 40.4923 14.7849 35.9023 15.5249 33.1623C16.2049 29.2923 15.4849 31.6323 18.0649 30.6223Z" fill="white"/>
<path d="M18.065 30.6223C19.735 30.8723 21.925 30.8623 23.145 30.6223M18.065 30.6223C19.645 30.6823 21.215 30.5523 23.145 30.6223M18.065 30.6223C16.025 30.0223 14.595 32.2123 15.525 33.1623M18.065 30.6223C16.755 30.2723 14.935 31.9823 15.525 33.1623M23.145 30.6223C24.835 31.3823 26.455 30.6123 25.685 33.1623M23.145 30.6223C23.925 30.7223 26.195 32.1123 25.685 33.1623M25.685 33.1623C25.995 36.6323 25.795 39.5123 25.685 43.4123M25.685 33.1623C25.935 36.9223 25.715 40.6123 25.685 43.4123M25.685 43.4123C26.275 44.1923 25.145 46.0623 23.145 45.9523M25.685 43.4123C24.915 44.3523 25.725 46.8823 23.145 45.9523M23.145 45.9523C21.545 45.7923 20.305 45.8223 18.065 45.9523M23.145 45.9523C21.175 45.8323 19.365 45.9423 18.065 45.9523M18.065 45.9523C15.925 45.9423 14.865 44.7023 15.525 43.4123M18.065 45.9523C16.905 44.8423 16.165 45.4023 15.525 43.4123M15.525 43.4123C15.875 39.7823 15.575 36.9023 15.525 33.1623M15.525 43.4123C15.395 41.2723 15.385 39.3223 15.525 33.1623" stroke="#1E1E1E" stroke-width="0.5" stroke-linecap="round"/>
<path d="M18.4123 31.2598C19.8723 31.4498 21.1523 31.3698 22.7923 31.2598M18.4123 31.2598C19.4823 31.1798 20.5823 31.3398 22.7923 31.2598M18.4123 31.2598C16.4423 31.6998 15.8823 31.3898 16.2223 33.4498M18.4123 31.2598C17.8323 31.9498 16.6023 31.6398 16.2223 33.4498M22.7923 31.2598C25.0223 30.3998 24.1823 32.0798 24.9723 33.4498M22.7923 31.2598C24.7623 31.9098 25.1023 32.0198 24.9723 33.4498M24.9723 33.4498C25.1023 35.9698 25.3523 38.8898 24.9723 43.1798M24.9723 33.4498C25.0123 35.3798 25.1623 37.4098 24.9723 43.1798M24.9723 43.1798C25.2823 44.7498 23.5723 44.7198 22.7923 45.3698M24.9723 43.1798C25.8623 45.5698 24.2123 45.0298 22.7923 45.3698M22.7923 45.3698C21.2523 45.2198 19.5723 45.5498 18.4123 45.3698M22.7923 45.3698C21.7723 45.3598 20.6823 45.3498 18.4123 45.3698M18.4123 45.3698C16.2923 44.9598 16.6823 43.6698 16.2223 43.1798M18.4123 45.3698C17.5923 45.6598 16.5623 44.8198 16.2223 43.1798M16.2223 43.1798C16.2423 39.8198 15.7123 35.9098 16.2223 33.4498M16.2223 43.1798C16.1023 40.7098 16.0223 38.3298 16.2223 33.4498" stroke="#1E1E1E" stroke-width="0.5" stroke-linecap="round"/>
<path d="M21.0717 34.4523C21.6817 34.4823 22.1217 34.8723 22.6017 35.3623C23.0817 35.8523 23.9017 36.8423 23.9417 37.4123C23.9817 37.9723 23.2517 38.2923 22.8317 38.7623C22.4117 39.2423 21.9717 40.0823 21.4217 40.2823C20.8617 40.4823 20.0917 40.2823 19.5017 39.9723C18.9017 39.6623 18.1317 38.9423 17.8617 38.4123C17.5917 37.8723 17.7117 37.3423 17.9017 36.7623C18.0817 36.1923 18.4217 35.3123 18.9917 34.9723C19.5517 34.6423 20.9617 34.7723 21.2717 34.7523C21.5717 34.7323 20.8717 34.8623 20.8117 34.8723M20.4517 34.5723C20.9517 34.4923 21.4117 34.2523 21.9917 34.6523C22.5817 35.0523 23.7117 36.3323 23.9517 36.9523C24.1917 37.5723 23.6817 37.8923 23.4217 38.3523C23.1717 38.8123 23.0717 39.3823 22.4317 39.7323C21.7817 40.0923 20.3217 40.5423 19.5617 40.4923C18.8017 40.4423 18.1217 40.0323 17.8717 39.4223C17.6117 38.8223 17.9717 37.6023 18.0217 36.8623C18.0717 36.1223 17.7617 35.3723 18.1517 34.9923C18.5417 34.6023 20.0417 34.6123 20.3617 34.5423C20.6817 34.4723 20.1417 34.5623 20.0817 34.5723" stroke="#1E1E1E" stroke-width="0.5" stroke-linecap="round"/>
<path d="M19.2843 36.4874C19.4143 36.5274 20.0443 36.8374 20.1243 36.8674C20.2043 36.8874 19.7943 36.5574 19.7743 36.6374C19.7543 36.7274 20.0043 37.2574 20.0243 37.3974C20.0443 37.5474 20.0043 37.5174 19.8943 37.5174C19.7743 37.5074 19.4443 37.3674 19.3343 37.3574C19.2243 37.3374 19.2843 37.5174 19.2343 37.4374C19.1843 37.3574 19.0043 36.9874 19.0343 36.8874C19.0543 36.7874 19.3543 36.8574 19.3943 36.8374C19.4243 36.8174 19.2243 36.8174 19.2343 36.7674C19.2443 36.7074 19.4443 36.4974 19.4543 36.4974M19.0943 36.1674C19.2443 36.1974 20.0343 36.8774 20.1843 36.9674C20.3443 37.0474 19.9743 36.6774 20.0243 36.6874C20.0743 36.6874 20.5643 36.8174 20.4643 36.9974C20.3643 37.1874 19.6543 37.6574 19.4243 37.7974C19.1943 37.9474 19.0743 38.0074 19.0943 37.8674C19.1043 37.7374 19.5843 37.2074 19.5143 36.9974C19.4443 36.7774 18.7443 36.6374 18.6843 36.5874C18.6243 36.5274 19.0743 36.6974 19.1643 36.6774C19.2443 36.6674 19.2143 36.5474 19.2043 36.4874C19.1943 36.4274 19.0243 36.3674 19.1043 36.2974" stroke="#1E1E1E" stroke-width="0.5" stroke-linecap="round"/>
<path d="M21.7797 36.7359C21.8797 36.6759 21.5397 36.2659 21.5997 36.3159C21.6497 36.3659 22.0097 36.8759 22.1097 37.0259C22.2197 37.1859 22.2797 37.2159 22.2197 37.2659C22.1597 37.3159 21.8597 37.2759 21.7497 37.3359C21.6497 37.3959 21.6697 37.6759 21.5597 37.6559C21.4597 37.6359 21.1897 37.3159 21.1297 37.2359C21.0797 37.1459 21.2697 37.1959 21.2297 37.1359C21.1797 37.0759 20.8397 36.9959 20.8797 36.8859C20.9197 36.7759 21.3897 36.5059 21.4597 36.4759C21.5297 36.4359 21.3597 36.6559 21.3197 36.6859M21.9297 36.8759C22.0997 36.9059 21.7897 36.4759 21.8897 36.4559C21.9897 36.4259 22.5597 36.5259 22.5197 36.7259C22.4797 36.9159 21.8397 37.4159 21.6597 37.6059C21.4697 37.7959 21.3897 37.9159 21.4097 37.8359C21.4297 37.7659 21.8797 37.3059 21.7697 37.1459C21.6697 36.9759 20.8997 36.8659 20.7797 36.8359C20.6597 36.7959 21.0297 36.9459 21.0597 36.9059C21.0897 36.8659 20.9397 36.6859 20.9597 36.5859C20.9897 36.4759 21.0797 36.3659 21.2197 36.2759C21.3497 36.1759 21.6797 35.9359 21.7797 35.9959" stroke="#1E1E1E" stroke-width="0.5" stroke-linecap="round"/>
<path d="M20.295 37.7905C20.445 37.7705 20.975 38.2305 21.205 38.3805C21.435 38.5405 21.645 38.6005 21.675 38.7205C21.705 38.8305 21.485 38.9005 21.385 39.0605C21.295 39.2205 21.275 39.6205 21.095 39.7005C20.925 39.7705 20.515 39.5405 20.335 39.4905C20.155 39.4505 20.185 39.5005 20.025 39.4105C19.875 39.3205 19.415 39.1505 19.395 38.9605C19.375 38.7605 19.755 38.3505 19.915 38.2305C20.085 38.1205 20.305 38.2705 20.365 38.2605C20.435 38.2505 20.255 38.2305 20.305 38.1805M20.465 37.9105C20.655 37.7905 21.415 37.8305 21.525 38.0005C21.625 38.1705 21.175 38.7105 21.105 38.9505C21.035 39.2005 21.055 39.4505 21.115 39.4805C21.165 39.5205 21.595 39.2205 21.425 39.1605C21.255 39.1005 20.345 39.1205 20.095 39.1405C19.845 39.1505 20.015 39.3405 19.915 39.2705C19.805 39.2105 19.495 38.9505 19.445 38.7505C19.395 38.5605 19.375 38.2805 19.595 38.0905C19.805 37.8905 20.515 37.5605 20.715 37.5805C20.905 37.6005 20.775 38.1005 20.765 38.2105" stroke="#1E1E1E" stroke-width="0.5" stroke-linecap="round"/>
<path d="M20.9676 38.9534C21.0576 39.0034 21.1576 38.8934 21.1676 38.8634C21.1676 38.8334 20.9976 38.7034 20.9976 38.7434C21.0076 38.7834 21.1776 39.0734 21.1776 39.1034C21.1876 39.1334 21.0176 38.9134 21.0176 38.9234C21.0076 38.9334 21.2176 39.1234 21.1476 39.1634C21.0776 39.2034 20.6576 39.2334 20.5976 39.1834C20.5376 39.1234 20.7976 38.8734 20.8076 38.8534C20.8176 38.8234 20.7076 39.0034 20.6776 39.0134C20.6476 39.0234 20.5876 38.9734 20.6376 38.9034C20.6876 38.8334 20.9676 38.5534 20.9776 38.5834M21.3676 38.6234C21.3276 38.7034 20.7376 39.0734 20.6176 39.1834C20.5076 39.2834 20.5476 39.3434 20.6776 39.2434C20.8076 39.1434 21.4176 38.7134 21.4176 38.5934C21.4176 38.4834 20.7476 38.4834 20.6776 38.5434C20.5976 38.6034 20.9776 38.9034 20.9776 38.9534C20.9776 39.0134 20.7276 38.9434 20.6576 38.8934C20.5876 38.8434 20.4676 38.7434 20.5476 38.6534C20.6276 38.5534 21.0276 38.2834 21.1376 38.3334C21.2476 38.3734 21.2276 38.8434 21.2176 38.9334C21.2176 39.0234 21.0776 38.8434 21.0876 38.8834" stroke="#1E1E1E" stroke-width="0.5" stroke-linecap="round"/>
<path d="M18.5068 34.2531C18.6468 34.2231 18.8568 34.1931 19.0068 34.3131C19.1568 34.4331 19.4068 34.7831 19.3868 34.9731C19.3668 35.1631 18.9568 35.2731 18.8868 35.4531C18.8168 35.6431 19.0468 35.9631 18.9568 36.1031C18.8768 36.2331 18.4468 36.3031 18.3468 36.2631C18.2468 36.2131 18.4368 36.0431 18.3668 35.8431C18.2868 35.6431 17.9568 35.2831 17.9068 35.0631C17.8568 34.8431 17.9568 34.6731 18.0668 34.5231C18.1768 34.3831 18.4568 34.1931 18.5768 34.2031C18.6968 34.2131 18.7568 34.5031 18.7868 34.6031M18.3268 34.0131C18.4868 33.8831 19.1068 34.1231 19.2168 34.3031C19.3268 34.4831 19.0968 34.9631 18.9868 35.1031C18.8868 35.2431 18.6668 35.0131 18.5868 35.1531C18.5168 35.2931 18.6268 35.7331 18.5568 35.9331C18.4868 36.1331 18.2468 36.3531 18.1568 36.3431C18.0568 36.3331 17.9968 36.0731 17.9968 35.8831C17.9968 35.6931 18.0268 35.3331 18.1468 35.2031C18.2668 35.0631 18.5668 35.2931 18.7168 35.1031C18.8568 34.9031 18.9768 34.0731 19.0068 34.0331C19.0468 33.9931 19.0368 34.7631 18.9268 34.8731" fill="white"/>
<path d="M18.7368 34.493C18.8368 34.423 18.8168 34.333 18.9168 34.453C19.0068 34.563 19.2768 35.013 19.3268 35.193C19.3668 35.373 19.2168 35.363 19.1768 35.533C19.1368 35.693 19.2668 36.053 19.1068 36.183C18.9468 36.313 18.3868 36.383 18.2168 36.303C18.0568 36.233 18.1868 35.883 18.1268 35.733C18.0668 35.583 17.8968 35.563 17.8668 35.413C17.8268 35.263 17.7968 35.013 17.9168 34.813C18.0468 34.613 18.5168 34.253 18.5868 34.233C18.6568 34.223 18.3068 34.683 18.3468 34.733M18.2368 34.813C18.2168 34.883 18.4068 34.993 18.6268 34.983C18.8468 34.973 19.5368 34.713 19.5668 34.753C19.6068 34.783 18.9368 35.003 18.8168 35.213C18.7068 35.423 18.9868 35.873 18.8968 36.003C18.7968 36.133 18.4168 36.093 18.2368 36.003C18.0668 35.913 17.8268 35.703 17.8468 35.473C17.8568 35.253 18.2068 34.783 18.3268 34.663C18.4368 34.553 18.4668 34.813 18.5368 34.793C18.6068 34.773 18.6668 34.523 18.7368 34.533C18.8068 34.533 19.0068 34.813 18.9368 34.823" stroke="white" stroke-width="0.5" stroke-linecap="round"/>
<path fill-rule="evenodd" clip-rule="evenodd" d="M18.612 34.0145C18.9556 33.9805 19.3878 35.8087 19.4991 35.9275C19.6196 36.057 19.2103 35.2436 19.2859 34.778C19.3715 34.3131 19.9498 33.1738 19.9828 33.1362" fill="white"/>
<path d="M17.3035 35.1282C17.3942 35.3859 18.1403 36.2551 18.4732 36.3607C18.7969 36.4556 19.2008 36.0251 19.2743 35.7198C19.3469 35.4245 18.9162 34.7598 18.913 34.5389M17.8241 34.8771C17.871 35.0512 18.1084 35.6209 18.3133 35.827C18.519 36.0232 18.9304 36.4157 19.0444 36.1034C19.1493 35.7805 18.9818 34.163 18.9617 33.9008" stroke="#1E1E1E" stroke-width="0.5" stroke-linecap="round"/>
<path fill-rule="evenodd" clip-rule="evenodd" d="M18.5105 33.6934C18.809 33.4489 19.5465 34.5864 19.6215 34.5455C19.6865 34.5059 18.9276 33.7149 18.942 33.4603" fill="white"/>
<path d="M17.9325 35.1694C18.1135 35.1639 18.378 35.1061 18.5577 35.0199C18.7359 34.9239 18.8676 34.7133 18.985 34.6158M17.5564 35.0108C17.7261 35.0675 18.1839 35.6589 18.3636 35.5021C18.5433 35.3452 18.4224 34.2109 18.6163 34.0824" stroke="#1E1E1E" stroke-width="0.5" stroke-linecap="round"/>
<path d="M22.4897 34.2145C22.5797 34.2145 23.0797 34.4445 23.1897 34.5945C23.3097 34.7545 23.1297 34.9945 23.1697 35.1645C23.2197 35.3445 23.5197 35.5245 23.4697 35.6345C23.4097 35.7345 22.9997 35.7645 22.8397 35.7945C22.6697 35.8345 22.5597 35.8945 22.4697 35.8245C22.3897 35.7645 22.3297 35.5045 22.3197 35.4145C22.3097 35.3245 22.3797 35.3745 22.4097 35.2845C22.4297 35.1945 22.4297 35.0245 22.4697 34.8745C22.5097 34.7145 22.5897 34.4545 22.6697 34.3445C22.7497 34.2345 23.0097 34.1545 22.9597 34.2045M22.2197 33.8945C22.3097 33.8545 22.6897 34.2145 22.8197 34.4445C22.9397 34.6745 22.9397 35.0745 22.9897 35.2945C23.0397 35.5045 23.0797 35.6045 23.0897 35.7145C23.0997 35.8345 23.0597 35.8445 23.0597 35.9645C23.0597 36.0745 23.1397 36.5245 23.0897 36.4045C23.0297 36.2745 22.8297 35.3745 22.7397 35.2245C22.6497 35.0745 22.6597 35.5945 22.5597 35.5245C22.4597 35.4545 22.0997 35.0745 22.1497 34.8145C22.1997 34.5445 22.7797 33.9945 22.8397 33.9645C22.9097 33.9245 22.5697 34.5545 22.5397 34.5845" fill="white"/>
<path d="M22.8097 34.3545C22.9197 34.3445 23.2897 34.6045 23.3297 34.7545C23.3597 34.9045 23.0297 35.1345 22.9997 35.2645C22.9797 35.3845 23.2197 35.3845 23.1697 35.5245C23.1297 35.6645 22.8997 36.0145 22.7597 36.0945C22.6197 36.1845 22.3797 36.1545 22.3197 36.0345C22.2497 35.9145 22.4097 35.5045 22.3597 35.3845C22.3197 35.2745 21.9697 35.4745 22.0297 35.3345C22.0797 35.2045 22.5697 34.6945 22.6697 34.5845C22.7797 34.4745 22.6497 34.7345 22.6497 34.6645C22.6397 34.5845 22.5797 34.2245 22.6397 34.1545M22.5597 33.9745C22.6097 34.0445 23.1397 34.4545 23.2297 34.6445C23.3097 34.8345 23.1397 34.9945 23.0797 35.1245C23.0197 35.2545 22.8597 35.3945 22.8697 35.4445C22.8697 35.5045 23.1297 35.3645 23.1197 35.4645C23.1097 35.5545 22.9197 35.9945 22.8097 36.0045C22.6897 36.0245 22.4597 35.6745 22.4297 35.5545C22.3997 35.4345 22.6397 35.4545 22.6097 35.2845C22.5797 35.1245 22.1497 34.7945 22.2297 34.5545C22.3097 34.3245 22.9897 33.9545 23.0697 33.8845C23.1597 33.8245 22.8297 34.1145 22.7497 34.1945" stroke="white" stroke-width="0.5" stroke-linecap="round"/>
<path fill-rule="evenodd" clip-rule="evenodd" d="M24.3545 33.7415C24.3249 34.0854 23.9165 36.0393 23.3512 36.2302C22.7959 36.4202 21.0041 35.0136 20.9908 34.8642C20.9884 34.7238 23.1453 35.4956 23.3312 35.3285" fill="white"/>
<path d="M23.5395 35.2999C23.4459 35.4889 23.376 36.0573 23.125 36.17C22.8632 36.2737 22.1334 36.3085 22.0109 35.948C21.8785 35.5883 22.3046 34.2854 22.3794 33.9976M24.0904 35.0601C23.9554 35.1223 23.29 35.5429 22.8934 35.5983C22.4976 35.6637 21.7743 35.6578 21.7222 35.4115C21.671 35.1751 22.5092 34.3274 22.5838 34.1501" stroke="#1E1E1E" stroke-width="0.5" stroke-linecap="round"/>
<path fill-rule="evenodd" clip-rule="evenodd" d="M24.464 33.8358C24.3887 34.0277 23.6392 35.3022 23.1148 35.2243C22.5905 35.1465 21.3368 33.3005 21.3265 33.3799" fill="white"/>
<path d="M23.6674 35.084C23.5644 35.1009 22.8771 35.4255 22.6657 35.2671C22.4542 35.1087 22.4502 34.2813 22.41 34.1249M23.3846 34.7752C23.2461 34.6766 22.6229 34.8179 22.4409 34.7439C22.2588 34.67 22.249 34.3562 22.28 34.3501" stroke="#1E1E1E" stroke-width="0.5" stroke-linecap="round"/>
<path d="M20.2054 38.7686C20.2254 38.7486 20.1254 38.9586 20.1054 38.9886C20.0754 39.0286 19.9954 38.9986 20.0454 38.9486C20.0854 38.8986 20.3654 38.6386 20.3654 38.6786C20.3754 38.7186 20.0454 39.1586 20.0654 39.1986C20.0854 39.2386 20.4954 38.9286 20.4954 38.9186C20.5054 38.9186 20.1654 39.2286 20.0954 39.1786C20.0154 39.1186 20.0054 38.6886 20.0654 38.5886M20.0654 38.5886C20.1254 38.4886 20.3854 38.4986 20.4554 38.5786C20.5354 38.6486 20.5854 39.0586 20.5254 39.0586C20.4554 39.0586 20.1454 38.6286 20.0654 38.5886ZM19.9354 38.5686C20.0254 38.4786 20.4354 38.2386 20.5454 38.2986C20.6654 38.3686 20.6354 38.8586 20.6254 38.9686C20.6154 39.0786 20.4854 38.9186 20.4854 38.9786C20.4854 39.0286 20.7254 39.2786 20.6354 39.2886C20.5554 39.2886 20.0154 39.1386 19.9854 38.9886C19.9454 38.8486 20.4154 38.4686 20.4354 38.4086C20.4554 38.3486 20.1854 38.5886 20.1054 38.6286C20.0254 38.6686 19.9754 38.6086 19.9554 38.6486C19.9254 38.6886 19.9954 38.7686 19.9754 38.8586C19.9454 38.9386 19.7854 39.2086 19.8054 39.1386" stroke="#1E1E1E" stroke-width="0.5" stroke-linecap="round"/>
<path d="M18.2443 41.8913C18.2743 41.9413 18.2443 42.6613 18.1843 42.7813M17.9343 42.5013C17.9543 42.5913 18.1043 43.1313 18.0643 43.1913" stroke="#1E1E1E" stroke-width="0.5" stroke-linecap="round"/>
<path fill-rule="evenodd" clip-rule="evenodd" d="M17.7127 41.563C17.8727 41.253 19.8027 40.913 19.7727 41.223C19.7427 41.533 18.0227 43.033 17.5127 43.423C17.0127 43.813 16.5327 43.863 16.7527 43.563" fill="white"/>
<path d="M18.0527 41.903C18.1427 41.873 18.4627 41.463 18.5727 41.503C18.6827 41.533 18.8627 41.933 18.7227 42.113C18.5727 42.293 17.9427 42.543 17.7227 42.573M17.7727 41.563C17.8027 41.593 18.1527 41.703 18.2927 41.833C18.4327 41.953 18.6727 42.143 18.6027 42.333C18.5227 42.513 17.9627 42.923 17.8527 42.923" stroke="#1E1E1E" stroke-width="0.5" stroke-linecap="round"/>
<path fill-rule="evenodd" clip-rule="evenodd" d="M21.0842 42.2693C20.9542 42.3593 19.3142 42.6693 19.0442 42.9293C18.7742 43.1893 19.0242 44.1793 19.4542 43.8393C19.8942 43.4993 21.6342 41.4193 21.6742 40.8893" fill="white"/>
<path d="M19.8942 42.5393C19.9042 42.3593 20.1542 41.5693 20.2442 41.6193C20.3342 41.6693 20.4342 42.8593 20.4342 42.8493C20.4342 42.8393 20.1742 41.6793 20.2242 41.5493M19.4642 43.1793C19.4142 43.0393 19.9442 41.8893 20.0742 41.8993C20.2142 41.9093 20.2442 43.2793 20.2642 43.2593C20.2842 43.2293 20.1442 42.0893 20.1842 41.7593" stroke="#1E1E1E" stroke-width="0.5" stroke-linecap="round"/>
<path fill-rule="evenodd" clip-rule="evenodd" d="M20.5595 42.8116C20.0995 43.1016 19.6695 43.2716 20.0095 43.0916C20.3595 42.9016 22.6195 41.9216 22.5995 41.6916C22.5895 41.4616 20.2095 41.5116 19.9095 41.7116" fill="white"/>
<path d="M21.7595 41.4916C21.6695 41.5816 21.0895 41.9616 20.9895 42.1016C20.8895 42.2416 21.1595 42.1816 21.1595 42.3516C21.1495 42.5216 21.0295 43.0516 20.9395 43.1116M21.4395 42.1016C21.3095 42.2716 20.6895 42.4816 20.7695 42.5716C20.8395 42.6616 21.8195 42.6316 21.8795 42.6216C21.9495 42.6116 21.4295 42.4816 21.1595 42.5116" stroke="#1E1E1E" stroke-width="0.5" stroke-linecap="round"/>
<path fill-rule="evenodd" clip-rule="evenodd" d="M21.4668 42.8399C21.7568 42.5799 23.0268 41.4499 23.0368 41.2499C23.0368 41.0499 21.7268 41.3399 21.4968 41.6299C21.2668 41.9099 21.7768 42.7499 21.6668 42.9699" fill="white"/>
<path d="M22.4468 41.8498C22.2868 41.9198 21.5768 41.7198 21.5868 41.9198C21.5968 42.1098 22.5468 42.8898 22.5268 43.0298C22.5068 43.1798 21.5868 42.8498 21.4668 42.7998M22.0668 41.5598C22.0068 41.6998 22.1968 42.0898 22.2568 42.2498C22.3268 42.3998 22.5568 42.3498 22.4368 42.4898C22.3168 42.6298 21.6868 43.0198 21.5368 43.0698" stroke="#1E1E1E" stroke-width="0.5" stroke-linecap="round"/>
<path fill-rule="evenodd" clip-rule="evenodd" d="M17.9608 43.7555C18.3908 43.2755 20.2908 41.2055 20.4208 40.8455C20.5508 40.4855 18.8608 41.2755 18.7308 41.5955" fill="white"/>
<path d="M18.5908 42.4956C18.6808 42.3656 19.3308 42.0056 19.4808 42.0256C19.6308 42.0456 19.4308 42.5156 19.4808 42.6156M19.1108 43.1456C19.1708 42.9156 19.3208 41.5856 19.3408 41.5456C19.3708 41.5156 19.1408 42.7256 19.2508 42.9456" stroke="#1E1E1E" stroke-width="0.5" stroke-linecap="round"/>
<path d="M19.1999 42.7844C19.3399 42.7544 19.3899 42.2044 19.4899 42.0944M18.9099 42.6144C19.0199 42.6644 19.0699 42.5244 19.1999 42.4844" stroke="#1E1E1E" stroke-width="0.5" stroke-linecap="round"/>
<path fill-rule="evenodd" clip-rule="evenodd" d="M21.8999 41.6865C21.8099 41.6765 23.1199 41.6365 23.2799 41.8365C23.4299 42.0465 22.9499 42.8065 22.8299 42.8965" fill="white"/>
<path d="M22.6499 42.6965C22.7299 42.4565 23.2999 41.5765 23.3899 41.6565C23.4799 41.7265 23.2199 42.9065 23.1899 43.1665M22.2199 42.3365C22.2499 42.1265 22.9799 41.9965 23.2699 42.0365C23.5499 42.0765 23.9299 42.5165 23.9099 42.6065" stroke="#1E1E1E" stroke-width="0.5" stroke-linecap="round"/>
<path d="M23.0759 42.2677C23.1259 42.3077 23.0859 42.4777 23.0959 42.5177M22.7959 41.8877C22.9659 41.8377 23.5859 42.0177 23.7659 42.0277" stroke="#1E1E1E" stroke-width="0.5" stroke-linecap="round"/>
<path d="M63.1846 30.0126C65.3546 30.2026 67.6046 30.0626 68.2646 30.0126C67.8146 27.5826 72.8846 30.7326 70.8046 32.5526C71.8746 36.3726 71.0246 39.0926 70.8046 42.8026C70.4546 43.4426 69.3946 44.8426 68.2646 45.3426C66.5146 45.9726 66.5046 44.9626 63.1846 45.3426C59.0046 44.7526 59.8246 44.1126 60.6446 42.8026C61.0746 39.6026 60.3746 35.4326 60.6446 32.5526C63.0346 31.1926 60.9546 29.7526 63.1846 30.0126Z" fill="white"/>
<path d="M63.1846 30.0126C65.3246 29.8726 67.2946 30.2526 68.2646 30.0126M63.1846 30.0126C64.3946 30.0426 65.5246 30.0326 68.2646 30.0126M63.1846 30.0126C61.7546 29.1726 60.1746 31.2426 60.6446 32.5526M63.1846 30.0126C61.3846 29.2926 60.2546 31.3026 60.6446 32.5526M68.2646 30.0126C69.2946 29.6026 71.2646 29.8826 70.8046 32.5526M68.2646 30.0126C70.5946 30.3026 71.1446 31.0326 70.8046 32.5526M70.8046 32.5526C70.8946 36.5826 70.3346 40.0326 70.8046 42.8026M70.8046 32.5526C70.6246 35.2526 70.5346 38.0526 70.8046 42.8026M70.8046 42.8026C70.4646 43.8926 69.4446 45.7926 68.2646 45.3426M70.8046 42.8026C71.1846 44.1426 70.8346 46.0326 68.2646 45.3426M68.2646 45.3426C66.3346 45.2426 64.6646 45.1426 63.1846 45.3426M68.2646 45.3426C66.5646 45.3426 64.6946 45.4526 63.1846 45.3426M63.1846 45.3426C60.9146 44.4726 61.1746 43.8426 60.6446 42.8026M63.1846 45.3426C61.1446 45.3526 59.5146 43.3726 60.6446 42.8026M60.6446 42.8026C61.0046 40.0726 60.8846 37.7326 60.6446 32.5526M60.6446 42.8026C60.8046 39.3626 60.7646 36.5526 60.6446 32.5526" stroke="#1E1E1E" stroke-width="0.5" stroke-linecap="round"/>
<path d="M63.5319 30.6501C64.6919 30.8501 65.3919 30.5401 67.9119 30.6501M63.5319 30.6501C64.4419 30.6501 65.3819 30.6001 67.9119 30.6501M63.5319 30.6501C61.7319 31.0401 61.6019 30.5401 61.3419 32.8401M63.5319 30.6501C63.0919 31.4401 61.2319 30.6601 61.3419 32.8401M67.9119 30.6501C69.8319 29.6801 70.6519 31.6301 70.0919 32.8401M67.9119 30.6501C69.7019 30.8201 70.8919 32.1801 70.0919 32.8401M70.0919 32.8401C69.6219 35.1801 69.9019 37.4301 70.0919 42.5701M70.0919 32.8401C69.8419 35.6701 69.9819 37.9901 70.0919 42.5701M70.0919 42.5701C69.5819 44.4801 69.7019 44.4601 67.9119 44.7601M70.0919 42.5701C70.9819 44.7201 69.9619 44.1101 67.9119 44.7601M67.9119 44.7601C66.6619 44.5901 65.5819 44.8401 63.5319 44.7601M67.9119 44.7601C66.4519 44.8401 64.9619 44.6701 63.5319 44.7601M63.5319 44.7601C62.6019 44.1101 61.0419 44.0401 61.3419 42.5701M63.5319 44.7601C60.9419 43.6401 60.7619 43.8801 61.3419 42.5701M61.3419 42.5701C61.5319 40.2701 61.3819 38.3001 61.3419 32.8401M61.3419 42.5701C61.4619 38.9701 61.1919 35.0501 61.3419 32.8401" stroke="#1E1E1E" stroke-width="0.5" stroke-linecap="round"/>
<path d="M65.8812 34.1326C66.5612 34.1926 67.6112 34.1926 68.1612 34.6526C68.7112 35.1126 69.1512 36.3126 69.1912 36.9026C69.2412 37.4926 68.9312 37.8026 68.4512 38.1926C67.9812 38.5826 67.0512 39.0726 66.3312 39.2426C65.6212 39.4226 64.8012 39.4326 64.1812 39.2426C63.5512 39.0526 62.7512 38.6426 62.5612 38.1126C62.3712 37.5826 62.7212 36.6926 63.0312 36.0626C63.3412 35.4226 63.9212 34.6026 64.4312 34.3126C64.9412 34.0126 65.8512 34.4226 66.0812 34.2926C66.3212 34.1626 65.7912 33.6026 65.8412 33.5326M65.4912 33.7526C66.1512 33.6226 66.9912 33.7826 67.5012 34.1826C68.0112 34.5826 68.4512 35.4926 68.5712 36.1526C68.6912 36.8126 68.4512 37.5926 68.2112 38.1326C67.9712 38.6826 67.6712 39.1626 67.1412 39.4326C66.6112 39.7026 65.6412 39.9426 65.0312 39.7426C64.4212 39.5426 63.8712 38.7426 63.4912 38.2326C63.1112 37.7126 62.7912 37.2626 62.7512 36.6726C62.7112 36.0826 62.8212 35.1726 63.2612 34.6826C63.7012 34.1926 65.0212 33.8826 65.3912 33.7226C65.7612 33.5726 65.4512 33.7326 65.4912 33.7526Z" stroke="#1E1E1E" stroke-width="0.5" stroke-linecap="round"/>
<path d="M64.6438 35.6577C64.7238 35.7077 64.8238 36.0177 64.8638 36.1577C64.9038 36.2977 64.8038 36.3977 64.8538 36.4977C64.9138 36.5977 65.1938 36.6477 65.1938 36.7477C65.1938 36.8577 64.9538 37.1177 64.8638 37.1077C64.7738 37.0977 64.7738 36.7477 64.6638 36.6977C64.5438 36.6477 64.3338 36.8677 64.1838 36.7977C64.0338 36.7177 63.7638 36.3977 63.7538 36.2277C63.7538 36.0677 64.0138 35.9077 64.1438 35.8177C64.2738 35.7177 64.4638 35.7177 64.5538 35.6777C64.6538 35.6377 64.6638 35.5577 64.7138 35.5777M64.7438 35.7277C64.9638 35.7277 65.2138 36.2277 65.3238 36.2677C65.4438 36.3077 65.4738 35.9577 65.4238 35.9677C65.3738 35.9677 65.1538 36.1677 65.0338 36.3077C64.9038 36.4477 64.8338 36.6577 64.6838 36.7977C64.5338 36.9377 64.1638 37.1277 64.1138 37.1377C64.0638 37.1477 64.3238 36.9777 64.3738 36.8377C64.4238 36.6977 64.4438 36.3777 64.4138 36.3077C64.3738 36.2377 64.2038 36.5577 64.1838 36.4177C64.1638 36.2677 64.1838 35.5877 64.2938 35.4377C64.4038 35.2977 64.8138 35.4777 64.8438 35.5677" stroke="#1E1E1E" stroke-width="0.5" stroke-linecap="round"/>
<path d="M66.4792 36.0262C66.5392 36.0762 66.5292 36.0962 66.6592 36.1462C66.7892 36.2062 67.1892 36.2362 67.2792 36.3462C67.3692 36.4662 67.2392 36.7762 67.2092 36.8262C67.1792 36.8862 67.2292 36.6362 67.1192 36.6762C67.0092 36.7062 66.7492 37.0362 66.5392 37.0262C66.3392 37.0162 65.9592 36.7562 65.8692 36.6062C65.7692 36.4662 65.9092 36.2862 65.9692 36.1462C66.0192 36.0162 66.0492 35.9162 66.1692 35.8162C66.2892 35.7162 66.5692 35.5662 66.6892 35.5562C66.7992 35.5462 66.9292 35.7262 66.8892 35.7662M67.0792 36.1662C67.2092 36.1462 67.2992 35.7462 67.2992 35.7262C67.3092 35.7062 67.1692 35.8862 67.0992 36.0362C67.0392 36.1762 67.0392 36.4362 66.9292 36.6162C66.8192 36.7962 66.4792 37.0562 66.4292 37.1262C66.3792 37.1862 66.6092 37.0862 66.6192 36.9962C66.6292 36.8962 66.5792 36.6162 66.4892 36.5562C66.3992 36.4962 66.1392 36.8062 66.0592 36.6362C65.9892 36.4562 65.8992 35.7062 66.0492 35.5262C66.1992 35.3462 66.8792 35.4862 66.9592 35.5462C67.0492 35.5962 66.6692 35.8962 66.5492 35.8762" stroke="#1E1E1E" stroke-width="0.5" stroke-linecap="round"/>
<path d="M65.2746 37.6408C65.4946 37.6108 66.0746 37.5808 66.2946 37.6708C66.5246 37.7708 66.5546 38.1108 66.6346 38.2208C66.7146 38.3308 66.8546 38.2008 66.7746 38.3308C66.6946 38.4708 66.4146 38.9408 66.1446 39.0308C65.8746 39.1208 65.3746 38.9708 65.1546 38.8708C64.9346 38.7808 64.9046 38.6208 64.8246 38.4708C64.7446 38.3208 64.6446 38.1408 64.6946 37.9508C64.7346 37.7708 64.9046 37.4708 65.0946 37.3708C65.2946 37.2708 65.8046 37.3508 65.8646 37.3408C65.9246 37.3308 65.4446 37.2508 65.4346 37.3008M65.9146 37.1708C66.0146 37.0508 66.0646 37.1708 66.1446 37.3108C66.2346 37.4408 66.4046 37.7308 66.4046 37.9808C66.4046 38.2308 66.1646 38.6208 66.1446 38.7908C66.1146 38.9708 66.3146 39.0308 66.2546 39.0408C66.1946 39.0508 65.9946 38.8908 65.7646 38.8808C65.5346 38.8708 65.0946 39.1908 64.8846 38.9908C64.6646 38.7908 64.4246 37.9508 64.5046 37.6708C64.5846 37.3908 65.1746 37.3608 65.3446 37.3208C65.5046 37.2908 65.5346 37.5108 65.5046 37.4508C65.4746 37.3908 65.1846 36.9808 65.1646 36.9808" stroke="#1E1E1E" stroke-width="0.5" stroke-linecap="round"/>
<path d="M66.1471 38.2937C66.2171 38.3037 66.1071 38.4837 66.1471 38.4437C66.1771 38.4137 66.3471 38.0837 66.3471 38.0837C66.3471 38.0937 66.2371 38.4337 66.1371 38.4637C66.0371 38.4937 65.7871 38.3337 65.7371 38.2737C65.6971 38.2237 65.8671 38.1837 65.8971 38.1537C65.9171 38.1237 65.8771 38.1337 65.9071 38.1037C65.9371 38.0637 65.9971 37.9337 66.0571 37.9337C66.1171 37.9337 66.2971 38.0737 66.2671 38.0937C66.2371 38.1037 65.8671 37.9837 65.8571 38.0237C65.8471 38.0537 66.1871 38.2337 66.2071 38.3037M65.9471 37.9037C65.8871 37.9437 65.9371 38.0637 65.9071 38.1637C65.8671 38.2637 65.6671 38.4637 65.7371 38.5137C65.7971 38.5637 66.1871 38.4937 66.2971 38.4537C66.4071 38.4237 66.4571 38.2537 66.4071 38.2937C66.3471 38.3337 66.0871 38.7837 65.9771 38.7137C65.8671 38.6337 65.6671 37.9837 65.7171 37.8537C65.7671 37.7237 66.2371 37.8637 66.2671 37.9237C66.2871 37.9737 65.9871 38.2437 65.8671 38.2037C65.7571 38.1737 65.5771 37.7137 65.5671 37.7037C65.5571 37.6937 65.7771 37.9937 65.8071 38.1337" stroke="#1E1E1E" stroke-width="0.5" stroke-linecap="round"/>
<path d="M63.5364 34.0633C63.6364 34.0033 64.2664 33.8433 64.4064 33.9533C64.5464 34.0633 64.4864 34.5233 64.3964 34.7033C64.3064 34.8833 63.9464 34.9033 63.8764 35.0233C63.8064 35.1333 64.0764 35.2833 63.9764 35.3933C63.8764 35.4933 63.3564 35.7433 63.2764 35.6333C63.1964 35.5333 63.4664 34.9833 63.4764 34.7833C63.4864 34.5933 63.2964 34.6033 63.3264 34.4733C63.3664 34.3333 63.6564 34.1233 63.6964 33.9733C63.7364 33.8133 63.4864 33.5633 63.5564 33.5433C63.6164 33.5233 64.0164 33.7933 64.1064 33.8533M63.7564 33.4433C63.7764 33.3833 63.8964 33.6233 63.9564 33.7633C64.0264 33.9133 64.1464 34.0733 64.1364 34.3033C64.1164 34.5433 63.9264 35.0533 63.8664 35.1533C63.8064 35.2533 63.7164 34.7833 63.7564 34.9033C63.7964 35.0133 64.2364 35.8833 64.1164 35.8433C63.9964 35.8033 63.2264 34.8833 63.0464 34.6433C62.8764 34.4133 63.0564 34.4933 63.0964 34.4433C63.1264 34.3933 63.1564 34.5233 63.2764 34.3533C63.3864 34.1833 63.6964 33.4833 63.7864 33.4233C63.8864 33.3633 63.8764 33.9433 63.8464 34.0133" fill="white"/>
<path d="M63.8364 34.0733C63.9664 34.0333 64.2664 33.8033 64.3464 33.9133C64.4264 34.0233 64.3864 34.5433 64.3064 34.7333C64.2164 34.9233 63.9364 34.9633 63.8464 35.0433C63.7464 35.1233 63.8064 35.2133 63.7364 35.2333C63.6664 35.2533 63.4864 35.2633 63.4164 35.1633C63.3464 35.0633 63.3064 34.8033 63.3164 34.6633C63.3264 34.5233 63.4864 34.4533 63.4764 34.3133C63.4564 34.1733 63.1564 33.8733 63.2364 33.8133C63.3164 33.7533 63.8664 33.9033 63.9364 33.9533C64.0164 34.0133 63.6864 34.0933 63.6964 34.1233M63.4964 33.7933C63.5564 33.8633 63.5064 34.1033 63.6564 34.2333C63.8164 34.3633 64.2964 34.4633 64.4464 34.5733C64.5964 34.6933 64.6464 34.7333 64.5564 34.9333C64.4664 35.1233 64.1164 35.7333 63.9164 35.7433C63.7064 35.7533 63.3764 35.1333 63.3164 34.9733C63.2564 34.8133 63.6164 34.8433 63.5664 34.7733C63.5264 34.7133 63.1764 34.7733 63.0564 34.5733C62.9364 34.3833 62.8064 33.7233 62.8664 33.5933C62.9364 33.4633 63.3464 33.6833 63.4364 33.7833C63.5264 33.8833 63.3864 34.1433 63.3964 34.2033" stroke="white" stroke-width="0.5" stroke-linecap="round"/>
<path fill-rule="evenodd" clip-rule="evenodd" d="M62.0064 34.0655C62.0234 34.3677 62.4475 35.3829 62.6126 35.7164C62.7685 36.0392 62.7926 36.5124 62.9894 36.036C63.1762 35.5588 63.7015 33.1417 63.7734 32.8564" fill="white"/>
<path d="M62.8972 34.6148C62.9993 34.8533 63.2628 35.4751 63.5444 35.5969C63.8259 35.7187 64.5116 35.6706 64.585 35.3653C64.6584 35.06 64.0311 34.0795 63.9957 33.7559M62.5879 34.3305C62.6433 34.6557 62.964 35.9739 63.2885 36.0588C63.6038 36.133 64.4123 35.1315 64.5278 34.7994C64.6327 34.4764 64.0306 34.3502 63.9499 34.0934" stroke="#1E1E1E" stroke-width="0.5" stroke-linecap="round"/>
<path fill-rule="evenodd" clip-rule="evenodd" d="M62.0878 34.1008C62.1401 34.255 62.6956 34.6104 62.8581 34.759C63.0207 34.9076 62.9511 35.271 63.0715 34.9811" fill="white"/>
<path d="M62.9715 34.4196C63.1171 34.4494 63.7406 34.7143 63.9175 34.6083C64.0858 34.5137 63.9688 34.0455 64.041 33.8433M62.5658 34.1945C62.6478 34.1323 63.4964 34.1329 63.6901 34.1457C63.8937 34.1572 63.6447 34.3946 63.7805 34.2844" stroke="#1E1E1E" stroke-width="0.5" stroke-linecap="round"/>
<path d="M67.5692 33.6548C67.6792 33.6148 68.2192 33.7148 68.3292 33.8848C68.4292 34.0448 68.1492 34.5148 68.1992 34.6548C68.2392 34.8048 68.5992 34.6348 68.5992 34.7548C68.5992 34.8748 68.3092 35.2748 68.2092 35.3648C68.1092 35.4648 68.1592 35.4448 67.9892 35.3348C67.8092 35.2248 67.2392 34.8448 67.1792 34.7048C67.1192 34.5548 67.5292 34.5848 67.6292 34.4648C67.7292 34.3548 67.7592 34.0748 67.7592 34.0048C67.7492 33.9348 67.5892 34.0648 67.6092 34.0348C67.6292 34.0048 67.8892 33.8748 67.8892 33.8348M67.4892 33.9748C67.5792 33.8948 67.7492 33.3348 67.9792 33.4748C68.2192 33.6048 68.8792 34.6348 68.8992 34.7948C68.9192 34.9548 68.2592 34.3748 68.0992 34.4348C67.9492 34.4948 68.0592 34.9448 67.9892 35.1348C67.9192 35.3248 67.7392 35.6748 67.6692 35.5848C67.5992 35.4848 67.5892 34.7348 67.5692 34.5748C67.5492 34.4148 67.5592 34.7348 67.5292 34.6248C67.5092 34.5148 67.2992 34.0548 67.4392 33.9148C67.5692 33.7848 68.2592 33.8648 68.3192 33.8348C68.3692 33.8048 67.7592 33.7548 67.7492 33.7348" fill="white"/>
<path d="M67.5192 33.7148C67.5992 33.6348 67.9292 33.6548 68.0592 33.7348C68.1892 33.8048 68.2492 34.0148 68.3092 34.1648C68.3692 34.3048 68.4192 34.4248 68.4292 34.5948C68.4392 34.7548 68.5092 35.0748 68.3592 35.1748C68.2192 35.2648 67.6792 35.1648 67.5492 35.1548C67.4192 35.1548 67.6492 35.1948 67.5992 35.1248C67.5492 35.0548 67.2392 34.9048 67.2592 34.7448C67.2792 34.5848 67.6492 34.3448 67.7192 34.1648C67.7892 33.9948 67.6792 33.7748 67.6692 33.6948C67.6692 33.6048 67.6592 33.6748 67.6792 33.6548M68.2692 33.7248C68.3392 33.7648 68.2392 34.3248 68.2092 34.3748C68.1892 34.4348 68.0692 33.9948 68.1292 34.0548C68.1992 34.1048 68.6292 34.4748 68.5892 34.6948C68.5492 34.9048 68.1192 35.3148 67.8792 35.3348C67.6392 35.3448 67.2992 34.8748 67.1792 34.7948C67.0592 34.7148 67.1792 34.8548 67.1592 34.8348C67.1392 34.8148 67.0392 34.8148 67.0892 34.7048C67.1292 34.5848 67.2692 34.2748 67.4192 34.1348C67.5692 33.9948 67.8292 33.8248 67.9892 33.8448C68.1492 33.8648 68.3192 34.3048 68.3792 34.2348" stroke="white" stroke-width="0.5" stroke-linecap="round"/>
<path fill-rule="evenodd" clip-rule="evenodd" d="M68.2174 33.6753C68.1855 33.7685 67.4932 36.0288 67.3861 36.1789C67.2699 36.3398 67.3731 34.905 67.5484 34.6184C67.7228 34.3217 68.3521 34.7376 68.4161 34.4407" fill="white"/>
<path d="M68.5942 34.5252C68.4502 34.5983 68.4321 35.0718 68.1775 35.1446C67.9221 35.2075 67.2386 35.1981 67.0553 34.9434C66.8719 34.6886 67.0854 33.8162 67.0885 33.6252M69.1164 34.1876C68.9234 34.2751 68.3973 35.2455 68.0122 35.4304C67.6262 35.6053 66.9772 35.5326 66.8238 35.2752C66.6703 35.0178 66.9527 34.1292 67.0925 33.8959" stroke="#1E1E1E" stroke-width="0.5" stroke-linecap="round"/>
<path fill-rule="evenodd" clip-rule="evenodd" d="M68.2391 33.4859C68.2158 33.4325 67.1341 34.9362 67.0548 34.926C66.9754 34.9157 67.5782 33.4509 67.7631 33.4244" fill="white"/>
<path d="M68.8209 34.0552C68.7131 34.0312 68.0905 34.3238 67.7968 34.2556C67.5031 34.1874 67.2086 33.7359 67.086 33.6696M68.4081 34.5967C68.2654 34.6085 67.7193 34.6993 67.4406 34.5927C67.162 34.4861 66.798 34.0256 66.7264 33.9559" stroke="#1E1E1E" stroke-width="0.5" stroke-linecap="round"/>
<path d="M65.435 37.8489C65.515 37.8589 65.705 38.0289 65.685 38.0589C65.655 38.0889 65.275 37.9989 65.265 38.0489C65.255 38.1089 65.595 38.2989 65.605 38.3889C65.615 38.4789 65.325 38.5589 65.315 38.5789C65.315 38.5989 65.595 38.5589 65.565 38.4989C65.535 38.4389 65.205 38.2889 65.135 38.2189C65.055 38.1589 65.085 38.1589 65.105 38.1089C65.135 38.0589 65.225 37.8989 65.295 37.9289C65.365 37.9589 65.515 38.2189 65.545 38.2889C65.575 38.3689 65.515 38.4089 65.485 38.3889M65.665 37.8289C65.705 37.9089 65.405 38.1989 65.295 38.1889C65.185 38.1789 64.995 37.7489 64.975 37.7489C64.965 37.7589 65.175 38.0789 65.205 38.2289C65.225 38.3889 65.115 38.6189 65.115 38.6689C65.115 38.7289 65.145 38.5989 65.185 38.5489C65.225 38.4989 65.275 38.3289 65.365 38.3589C65.455 38.3789 65.685 38.7789 65.755 38.6789C65.815 38.5789 65.745 37.7689 65.745 37.7589C65.735 37.7389 65.815 38.4689 65.715 38.5689C65.615 38.6689 65.195 38.4889 65.155 38.3489" stroke="#1E1E1E" stroke-width="0.5" stroke-linecap="round"/>
<path d="M62.9339 41.4816C62.8939 41.6316 62.8439 42.1316 62.8039 42.3116M63.4839 41.1216C63.5639 41.1716 63.5139 41.5816 63.4939 41.7216" stroke="#1E1E1E" stroke-width="0.5" stroke-linecap="round"/>
<path fill-rule="evenodd" clip-rule="evenodd" d="M63.5823 40.5833C63.4923 40.2633 63.4823 40.1333 63.3923 40.3133C63.3123 40.4933 63.3823 41.2933 63.1023 41.6833C62.8123 42.0633 61.6523 42.5233 61.6823 42.6333" fill="white"/>
<path d="M62.6623 41.4333C62.7723 41.4533 63.2223 41.3633 63.3623 41.3933C63.5023 41.4233 63.6423 41.4933 63.5023 41.6133C63.3723 41.7233 62.6623 42.0533 62.5523 42.0833M63.2023 41.1633C63.4323 41.0933 63.9923 40.7833 63.9923 40.9033C63.9923 41.0233 63.4623 41.8033 63.2223 41.8833C62.9723 41.9733 62.6523 41.4233 62.5323 41.4133" stroke="#1E1E1E" stroke-width="0.5" stroke-linecap="round"/>
<path fill-rule="evenodd" clip-rule="evenodd" d="M64.7137 41.3495C64.5337 41.3195 64.6837 40.9295 64.6337 41.1895C64.5737 41.4495 64.1437 42.8395 64.3937 42.8995C64.6437 42.9695 65.7737 41.8995 66.1337 41.5895" fill="white"/>
<path d="M64.6837 42.4295C64.7237 42.2495 64.9437 41.1295 65.0337 41.1195C65.1337 41.0995 65.1537 42.3695 65.2637 42.3595C65.3737 42.3495 65.6037 41.2295 65.7037 41.0695M65.1637 42.2595C65.1637 42.1095 64.7337 41.5395 64.6937 41.4595C64.6637 41.3695 64.7537 41.7695 64.9437 41.7495C65.1337 41.7295 65.7337 41.3595 65.8337 41.3395" stroke="#1E1E1E" stroke-width="0.5" stroke-linecap="round"/>
<path fill-rule="evenodd" clip-rule="evenodd" d="M66.1391 41.0719C65.9091 41.3619 64.7991 41.9319 64.9491 42.1519C65.0991 42.3719 66.7591 42.3919 67.0591 42.3919C67.3591 42.3819 66.9591 41.9619 66.7191 42.1119" fill="white"/>
<path d="M66.5491 41.0019C66.4591 41.0219 65.7991 41.4619 65.8191 41.6119C65.8291 41.7519 66.5891 41.7319 66.6291 41.8619C66.6691 42.0019 66.1691 42.4119 66.0591 42.4319M67.1291 41.6519C67.1891 41.5519 66.6291 40.9719 66.5191 41.0719C66.4091 41.1619 66.5091 42.0719 66.4691 42.1919C66.4291 42.3219 66.4091 41.8219 66.2691 41.7919" stroke="#1E1E1E" stroke-width="0.5" stroke-linecap="round"/>
<path fill-rule="evenodd" clip-rule="evenodd" d="M66.4064 41.9001C66.4964 42.0501 67.1764 41.9301 67.4864 41.9501C67.8064 41.9701 68.4764 41.7901 68.3064 42.0301C68.1264 42.2601 66.8664 43.5201 66.4464 43.3601" fill="white"/>
<path d="M67.2764 41.3601C67.2264 41.4301 67.0064 41.2601 67.0664 41.4301C67.1264 41.5901 67.6864 42.2401 67.6464 42.3501C67.5964 42.4601 66.9664 42.1401 66.7764 42.1001M67.8264 41.1301C67.7564 41.2701 66.8864 41.7201 66.8464 41.8201C66.7964 41.9301 67.5364 41.6901 67.5564 41.7701C67.5764 41.8601 67.0164 42.2601 66.9464 42.3201" stroke="#1E1E1E" stroke-width="0.5" stroke-linecap="round"/>
<path fill-rule="evenodd" clip-rule="evenodd" d="M62.9003 42.8158C63.1403 42.7458 64.4303 41.6758 64.8703 41.5458C65.3203 41.4058 65.6103 41.7258 65.5403 41.9958" fill="white"/>
<path d="M64.0703 42.0058C64.2103 41.8558 64.4803 41.3558 64.6003 41.3458C64.7203 41.3258 64.8003 41.8158 64.7903 41.9058M63.7003 41.6458C63.8303 41.3758 64.3003 40.7358 64.4603 40.8258C64.6203 40.9258 64.6403 41.9758 64.6603 42.1958" stroke="#1E1E1E" stroke-width="0.5" stroke-linecap="round"/>
<path d="M64.3194 42.0946C64.4294 42.0346 64.7594 41.5046 64.7994 41.3846M64.0294 41.9046C64.0994 41.8846 64.5694 41.7746 64.6094 41.7346" stroke="#1E1E1E" stroke-width="0.5" stroke-linecap="round"/>
<path fill-rule="evenodd" clip-rule="evenodd" d="M68.7095 42.0867C68.6695 42.0267 68.2195 42.4067 68.0595 42.2367C67.8995 42.0667 67.5595 41.2267 67.7695 41.0867" fill="white"/>
<path d="M67.9595 41.9967C67.9795 41.7567 68.0495 40.9167 68.1295 40.9667C68.2095 41.0067 68.3995 42.0167 68.4295 42.2667M67.6295 42.6567C67.5595 42.4367 67.7295 41.3167 67.8095 41.3067C67.8995 41.3067 68.0695 42.5467 68.1395 42.6367" stroke="#1E1E1E" stroke-width="0.5" stroke-linecap="round"/>
<path d="M67.8054 41.578C67.8554 41.588 68.2654 41.578 68.3354 41.618M68.4154 42.238C68.3854 42.318 67.9054 42.218 67.9854 42.058" stroke="#1E1E1E" stroke-width="0.5" stroke-linecap="round"/>
<path d="M63.3878 60.9053C64.6678 60.3153 66.2078 61.4753 68.4678 60.9053C70.1378 58.5153 73.1978 59.3653 71.0078 63.4453C70.0478 68.4353 70.6378 70.3353 71.0078 73.6953C71.4078 77.6053 72.3578 77.0453 68.4678 76.2353C67.2978 76.2453 64.9678 76.5453 63.3878 76.2353C61.8278 74.5253 62.3878 73.7853 60.8478 73.6953C60.6678 71.1353 59.9078 67.4753 60.8478 63.4453C59.3378 63.6353 60.3378 60.3253 63.3878 60.9053Z" fill="white"/>
<path d="M63.3877 60.9053C64.7777 60.7253 66.3477 61.0153 68.4677 60.9053M63.3877 60.9053C65.0477 61.0053 66.6677 60.7953 68.4677 60.9053M63.3877 60.9053C62.6177 61.0353 60.6677 61.6153 60.8477 63.4453M63.3877 60.9053C62.7177 60.5153 60.6077 61.6353 60.8477 63.4453M68.4677 60.9053C70.6877 60.2553 70.7077 61.7553 71.0077 63.4453M68.4677 60.9053C69.0377 59.7853 70.4277 61.6053 71.0077 63.4453M71.0077 63.4453C71.2777 65.9853 71.1177 68.8553 71.0077 73.6953M71.0077 63.4453C71.2077 67.6653 70.9277 71.5553 71.0077 73.6953M71.0077 73.6953C71.2677 74.5553 69.8177 76.6253 68.4677 76.2353M71.0077 73.6953C70.8977 74.6753 71.1877 77.0253 68.4677 76.2353M68.4677 76.2353C67.3477 76.2553 65.6577 76.0053 63.3877 76.2353M68.4677 76.2353C66.5377 76.1553 64.7077 76.2553 63.3877 76.2353M63.3877 76.2353C61.8577 75.4353 60.7177 74.9853 60.8477 73.6953M63.3877 76.2353C61.4477 76.0153 60.0177 75.8653 60.8477 73.6953M60.8477 73.6953C61.3277 70.8053 60.4077 68.3453 60.8477 63.4453M60.8477 73.6953C60.9177 70.7253 60.9477 68.2653 60.8477 63.4453" stroke="#1E1E1E" stroke-width="0.5" stroke-linecap="round"/>
<path d="M63.7351 61.5427C64.9951 61.6427 66.0951 61.7027 68.1151 61.5427M63.7351 61.5427C64.9451 61.4327 66.3451 61.4527 68.1151 61.5427M63.7351 61.5427C62.0651 61.4427 62.4651 62.4027 61.5451 63.7327M63.7351 61.5427C62.5551 61.2327 62.5651 61.8827 61.5451 63.7327M68.1151 61.5427C69.2651 61.5427 69.3151 61.2927 70.2951 63.7327M68.1151 61.5427C68.9951 61.3927 69.6351 63.0627 70.2951 63.7327M70.2951 63.7327C70.3951 66.7627 70.7651 69.3227 70.2951 73.4627M70.2951 63.7327C70.2151 65.9327 70.3951 67.7427 70.2951 73.4627M70.2951 73.4627C69.9551 75.3127 69.4751 75.0327 68.1151 75.6527M70.2951 73.4627C71.3251 75.7127 69.0651 75.9927 68.1151 75.6527M68.1151 75.6527C66.5151 75.4527 65.4451 75.6427 63.7351 75.6527M68.1151 75.6527C66.5751 75.6427 64.8751 75.5527 63.7351 75.6527M63.7351 75.6527C62.1451 75.2527 61.3251 74.7327 61.5451 73.4627M63.7351 75.6527C61.4451 76.1327 61.0351 73.8927 61.5451 73.4627M61.5451 73.4627C61.0351 69.4727 61.3551 65.6327 61.5451 63.7327M61.5451 73.4627C61.6151 70.1227 61.4951 66.6027 61.5451 63.7327" stroke="#1E1E1E" stroke-width="0.5" stroke-linecap="round"/>
<path d="M66.5545 64.6152C67.1345 64.6752 67.5145 65.3952 67.8845 65.8452C68.2545 66.3052 68.7045 66.8352 68.7945 67.3652C68.8845 67.8952 68.8345 68.5352 68.4245 69.0152C68.0145 69.4952 66.9945 70.0852 66.3545 70.2552C65.7145 70.4252 65.0545 70.2752 64.5545 70.0052C64.0645 69.7452 63.6145 69.2052 63.3845 68.6752C63.1545 68.1552 63.0245 67.3952 63.1845 66.8752C63.3345 66.3552 63.7345 65.8552 64.3245 65.5552C64.9045 65.2552 66.3745 65.1552 66.6845 65.0752C66.9845 65.0052 66.1745 65.1152 66.1645 65.0952M65.9845 64.9852C66.5745 65.0052 67.4445 64.8152 68.0245 65.2652C68.6045 65.7052 69.4045 66.9852 69.4445 67.6652C69.4845 68.3552 68.7045 68.8552 68.2845 69.3752C67.8645 69.8852 67.5345 70.6552 66.9445 70.7352C66.3545 70.8152 65.4445 70.0852 64.7445 69.8452C64.0545 69.6152 63.0545 69.7352 62.7545 69.3152C62.4545 68.8952 62.7345 68.0552 62.9645 67.3252C63.2045 66.5952 63.5645 65.3752 64.1645 64.9552C64.7645 64.5352 66.2145 64.8852 66.5545 64.7952C66.8945 64.7052 66.3145 64.4352 66.2345 64.4452" stroke="#1E1E1E" stroke-width="0.5" stroke-linecap="round"/>
<path d="M64.537 66.9504C64.567 66.9504 64.827 66.8004 64.967 66.7804C65.107 66.7704 65.377 66.7604 65.387 66.8604C65.387 66.9504 65.057 67.2404 64.997 67.3604C64.927 67.4804 65.007 67.5204 64.987 67.5604C64.967 67.6104 64.957 67.6504 64.877 67.6504C64.797 67.6604 64.597 67.6104 64.507 67.5804C64.417 67.5504 64.287 67.5704 64.337 67.5004C64.377 67.4304 64.737 67.2504 64.777 67.1604C64.807 67.0804 64.497 67.0704 64.557 66.9804C64.617 66.8904 65.057 66.6404 65.117 66.6204M64.707 66.4604C64.927 66.4704 65.507 67.0604 65.577 67.1904C65.647 67.3304 65.157 67.1604 65.147 67.2704C65.127 67.3704 65.477 67.8204 65.477 67.8304C65.467 67.8304 65.317 67.2604 65.107 67.3204C64.907 67.3804 64.377 68.0704 64.247 68.1804C64.127 68.2904 64.367 68.1704 64.367 67.9504C64.377 67.7304 64.217 67.0504 64.297 66.8804C64.367 66.7104 64.727 67.0304 64.817 66.9404C64.907 66.8604 64.857 66.4304 64.837 66.3704C64.817 66.3104 64.727 66.5204 64.687 66.5804" stroke="#1E1E1E" stroke-width="0.5" stroke-linecap="round"/>
<path d="M66.5925 66.6588C66.7525 66.5588 67.0925 66.4688 67.1725 66.5188C67.2525 66.5688 67.0425 66.8388 67.0725 66.9688C67.0925 67.0988 67.2825 67.1788 67.3225 67.2888C67.3625 67.3988 67.4025 67.5388 67.3325 67.6188C67.2525 67.7088 67.0125 67.7588 66.8725 67.7988C66.7225 67.8388 66.5025 67.9088 66.4525 67.8588C66.4125 67.8088 66.6525 67.6188 66.6125 67.4988C66.5625 67.3688 66.1025 67.2688 66.1825 67.1288C66.2625 66.9788 66.9625 66.6488 67.0925 66.5988C67.2225 66.5588 67.0525 66.8388 66.9625 66.8588M67.3425 67.0988C67.4225 67.1788 66.9925 66.9688 67.0225 67.0488C67.0525 67.1188 67.4825 67.5488 67.5325 67.5688C67.5825 67.5788 67.5025 67.0388 67.3325 67.1388C67.1725 67.2388 66.6725 67.9988 66.5525 68.1588C66.4325 68.3188 66.6425 68.2688 66.6125 68.0988C66.5825 67.9188 66.3625 67.2688 66.3825 67.1088C66.3925 66.9588 66.6825 67.2588 66.7225 67.1488C66.7525 67.0488 66.5925 66.5588 66.6125 66.4588C66.6325 66.3588 66.8025 66.5188 66.8325 66.5588C66.8625 66.5888 66.8325 66.5988 66.7825 66.6788" stroke="#1E1E1E" stroke-width="0.5" stroke-linecap="round"/>
<path d="M65.9878 68.0235C66.1578 68.0135 66.0978 68.2635 66.2278 68.3935C66.3578 68.5335 66.6678 68.6635 66.7778 68.8335C66.8878 69.0035 66.9678 69.2435 66.8878 69.4135C66.8078 69.5835 66.5178 69.7435 66.2978 69.8535C66.0778 69.9635 65.7178 70.0935 65.5678 70.0635C65.4178 70.0335 65.5178 69.8335 65.3778 69.6735C65.2378 69.5135 64.6978 69.3335 64.7378 69.1135C64.7878 68.8835 65.4178 68.4335 65.6478 68.3235C65.8778 68.2035 66.1078 68.4435 66.1278 68.4335C66.1378 68.4235 65.7278 68.2535 65.7278 68.2535M65.5878 68.4935C65.7178 68.4735 66.3378 68.8335 66.5378 68.8235C66.7378 68.8235 66.8478 68.3135 66.7978 68.4735C66.7578 68.6335 66.3578 69.5235 66.2778 69.7935C66.1878 70.0735 66.3778 70.1835 66.2778 70.1235C66.1878 70.0635 65.8178 69.5335 65.6978 69.4335C65.5778 69.3435 65.6678 69.6735 65.5578 69.5435C65.4578 69.4035 65.1378 68.8335 65.0678 68.6435C65.0078 68.4435 65.0778 68.4335 65.1778 68.3735C65.2878 68.3035 65.6578 68.2135 65.6978 68.2535C65.7478 68.2835 65.4678 68.6135 65.4478 68.5735" stroke="#1E1E1E" stroke-width="0.5" stroke-linecap="round"/>
<path d="M65.9304 68.9163C65.9304 68.9363 66.1504 68.8863 66.2504 68.9063C66.3504 68.9263 66.5104 68.9763 66.5404 69.0363C66.5804 69.0863 66.4904 69.1463 66.4604 69.2263C66.4204 69.3063 66.3204 69.4763 66.3304 69.5163C66.3404 69.5663 66.6104 69.5063 66.5404 69.4963C66.4804 69.4763 65.9404 69.4963 65.9304 69.4063C65.9204 69.3263 66.4004 69.0263 66.4704 68.9863C66.5404 68.9563 66.4304 69.1963 66.3504 69.1963C66.2604 69.1863 65.9704 68.9963 65.9804 68.9763C65.9804 68.9463 66.3704 68.9863 66.3804 69.0563M66.3804 69.4363C66.4404 69.3463 66.4004 68.6763 66.3104 68.6963C66.2204 68.7163 65.8504 69.4063 65.8504 69.5563C65.8404 69.6963 66.2004 69.6763 66.2804 69.5563C66.3504 69.4363 66.2304 68.8963 66.2904 68.8463C66.3504 68.7863 66.6304 69.2363 66.6304 69.2263C66.6304 69.2163 66.3704 68.8363 66.2904 68.7863C66.2004 68.7363 66.1604 68.8963 66.1404 68.9363C66.1104 68.9663 66.1604 68.9463 66.1204 69.0063C66.0804 69.0663 65.9204 69.3563 65.9004 69.2963C65.8904 69.2363 65.9004 68.6063 66.0404 68.6363" stroke="#1E1E1E" stroke-width="0.5" stroke-linecap="round"/>
<path d="M63.6396 64.846C63.7396 64.816 64.2396 64.716 64.3696 64.856C64.4996 64.986 64.3996 65.516 64.4196 65.686C64.4296 65.846 64.4996 65.696 64.4496 65.846C64.3996 65.996 64.2296 66.486 64.0996 66.566C63.9696 66.656 63.7696 66.476 63.6596 66.366C63.5396 66.256 63.4696 66.116 63.3996 65.906C63.3296 65.696 63.2396 65.226 63.2296 65.106C63.2196 64.996 63.2296 65.326 63.3496 65.216C63.4596 65.106 63.7896 64.556 63.9296 64.426C64.0796 64.306 64.1896 64.336 64.2296 64.446M63.7796 64.476C63.9696 64.466 64.1896 65.176 64.3696 65.366C64.5596 65.546 64.8696 65.416 64.8896 65.576C64.9096 65.736 64.5896 66.146 64.4996 66.316C64.3996 66.496 64.4696 66.676 64.3396 66.636C64.2096 66.596 63.8296 66.206 63.7196 66.096C63.6096 65.976 63.7796 66.006 63.6796 65.936C63.5696 65.866 63.1596 65.816 63.0896 65.666C63.0296 65.516 63.1096 65.226 63.2996 65.036C63.4996 64.846 64.1596 64.506 64.2596 64.506C64.3696 64.506 64.0296 64.966 63.9196 65.046" fill="white"/>
<path d="M63.8096 64.556C64.0096 64.526 64.3096 64.616 64.4396 64.736C64.5696 64.866 64.5896 65.076 64.5896 65.306C64.5996 65.536 64.4996 65.906 64.4896 66.106C64.4696 66.306 64.6596 66.426 64.5096 66.496C64.3496 66.566 63.6796 66.636 63.5596 66.526C63.4496 66.426 63.8096 66.036 63.7996 65.876C63.7996 65.726 63.6296 65.776 63.5396 65.616C63.4496 65.446 63.1796 65.046 63.2596 64.896C63.3296 64.746 63.9296 64.686 63.9896 64.716C64.0596 64.736 63.6496 65.066 63.6696 65.056M63.9796 64.326C63.9896 64.326 63.7596 65.106 63.8296 65.346C63.9096 65.596 64.3496 65.746 64.4396 65.786C64.5396 65.826 64.3996 65.496 64.4096 65.576C64.4196 65.666 64.5996 66.246 64.4996 66.296C64.3996 66.346 63.9996 65.966 63.8196 65.866C63.6396 65.766 63.4896 65.796 63.3996 65.696C63.3196 65.596 63.3396 65.356 63.3096 65.256C63.2896 65.166 63.1896 65.266 63.2596 65.106C63.3296 64.946 63.5396 64.276 63.7396 64.286C63.9396 64.306 64.4696 65.166 64.4596 65.176" stroke="white" stroke-width="0.5" stroke-linecap="round"/>
<path fill-rule="evenodd" clip-rule="evenodd" d="M64.1028 64.3303C64.1719 64.476 64.4905 67.2683 64.4531 67.6265C64.4058 67.9839 63.7963 67.1652 63.8595 66.468C63.9219 65.7808 64.8317 63.7139 64.8392 63.4839" fill="white"/>
<path d="M62.5854 65.0269C62.7029 65.1964 63.1806 66.1655 63.476 66.3685C63.7714 66.5716 64.1993 66.4839 64.3295 66.223C64.4605 65.9522 64.2398 65.0327 64.2595 64.7735M63.0092 65.651C63.2425 65.8794 63.971 66.8476 64.1413 66.8505C64.3223 66.8443 64.0188 66.089 64.0431 65.6395C64.078 65.1809 64.3297 64.2473 64.3204 64.1062" stroke="#1E1E1E" stroke-width="0.5" stroke-linecap="round"/>
<path fill-rule="evenodd" clip-rule="evenodd" d="M64.0044 63.9722C64.0737 63.9623 64.9081 66.0658 64.8796 66.2921C64.8498 66.5084 63.8844 65.7568 63.8366 65.2788" fill="white"/>
<path d="M62.8835 65.2527C63.0489 65.3504 63.4319 65.6292 63.6653 65.5658C63.9086 65.5009 64.189 64.9863 64.3206 64.8464M63.3915 64.8472C63.6856 64.8558 64.1903 65.0669 64.2781 64.9736C64.3757 64.8789 63.8953 64.2705 63.9575 64.2819" stroke="#1E1E1E" stroke-width="0.5" stroke-linecap="round"/>
<path d="M68.1225 64.5874C68.2325 64.5774 68.3225 64.9974 68.3925 65.1274C68.4525 65.2574 68.4825 65.2674 68.5025 65.3774C68.5125 65.4874 68.5425 65.7074 68.4725 65.7874C68.4025 65.8774 68.2425 65.7774 68.1025 65.8874C67.9725 66.0074 67.7625 66.5474 67.6825 66.4874C67.6025 66.4374 67.6125 65.8074 67.6425 65.5674C67.6625 65.3274 67.7925 65.1074 67.8525 65.0374C67.9025 64.9574 67.9225 65.2274 67.9725 65.1274C68.0225 65.0174 68.0825 64.4874 68.1525 64.3874C68.2225 64.2974 68.4425 64.4874 68.4025 64.5574M68.2725 65.0274C68.3525 65.0774 68.6725 65.2274 68.7225 65.2674C68.7825 65.3074 68.6025 65.1274 68.6025 65.2474C68.6025 65.3674 68.8425 65.7574 68.7225 65.9674C68.5925 66.1874 68.0725 66.4774 67.8725 66.5274C67.6725 66.5774 67.5325 66.4574 67.5325 66.2874C67.5425 66.1174 67.9025 65.6474 67.9025 65.5174C67.9125 65.3874 67.6225 65.5874 67.5525 65.4974C67.4825 65.3974 67.4325 65.0274 67.4925 64.9474C67.5425 64.8674 67.8125 65.0874 67.8825 65.0274C67.9525 64.9674 67.9325 64.6374 67.9025 64.5674" fill="white"/>
<path d="M68.1125 64.9574C68.2525 64.9774 68.6825 64.9974 68.7125 65.0874C68.7525 65.1674 68.3125 65.3874 68.3325 65.4874C68.3525 65.5774 68.8225 65.5274 68.8425 65.6574C68.8525 65.7874 68.6225 66.1974 68.4325 66.2774C68.2325 66.3474 67.7725 66.1774 67.6625 66.1074C67.5525 66.0374 67.8325 65.9374 67.7825 65.8574C67.7225 65.7874 67.3225 65.8474 67.3625 65.6574C67.3925 65.4674 67.8225 64.8774 67.9625 64.7274C68.0925 64.5674 68.1125 64.7474 68.1725 64.7374C68.2325 64.7274 68.3825 64.7374 68.3225 64.6774M68.1825 64.2774C68.3625 64.2374 68.8025 64.7974 68.8825 64.9174C68.9725 65.0474 68.7825 64.8874 68.7025 65.0174C68.6325 65.1574 68.5525 65.5474 68.4525 65.7374C68.3425 65.9274 68.2625 66.0274 68.1025 66.1374C67.9425 66.2374 67.6025 66.5074 67.4825 66.3674C67.3625 66.2274 67.2825 65.4274 67.3825 65.3074C67.4825 65.1874 68.0525 65.8074 68.0825 65.6374C68.1125 65.4674 67.5525 64.4874 67.5425 64.3074C67.5425 64.1174 67.9625 64.4074 68.0525 64.5074C68.1425 64.6174 68.0525 64.9674 68.0925 64.9374" stroke="white" stroke-width="0.5" stroke-linecap="round"/>
<path fill-rule="evenodd" clip-rule="evenodd" d="M69.228 64.1648C69.1435 64.343 68.1693 66.8191 67.8213 66.9706C67.4743 67.132 66.9561 65.371 67.124 65.1151C67.282 64.8601 68.8409 65.4542 68.8092 65.4369" fill="white"/>
<path d="M68.8679 65.5321C68.7898 65.6696 68.4871 66.329 68.2868 66.4472C68.0864 66.5655 67.7613 66.6346 67.6687 66.2713C67.5861 65.9072 67.7327 64.5087 67.7422 64.277M69.4361 65.2606C69.3316 65.4406 68.3838 66.8603 68.0703 66.9484C67.756 67.0266 67.5802 66.1788 67.5628 65.7587C67.5455 65.3386 68.0112 64.7048 67.9764 64.4268" stroke="#1E1E1E" stroke-width="0.5" stroke-linecap="round"/>
<path fill-rule="evenodd" clip-rule="evenodd" d="M69.3177 64.1589C69.2246 64.1772 67.821 65.8309 67.5062 65.77C67.1914 65.7092 67.2664 63.8031 67.4388 63.7951" fill="white"/>
<path d="M68.8439 65.3279C68.778 65.3698 68.4884 65.8163 68.3067 65.6618C68.1349 65.5085 67.8885 64.5288 67.781 64.4242M68.4732 64.9976C68.4201 64.9403 68.3903 65.2491 68.2566 65.1915C68.1229 65.1338 67.7262 64.77 67.6722 64.642" stroke="#1E1E1E" stroke-width="0.5" stroke-linecap="round"/>
<path d="M65.8682 68.8916C65.9582 68.8716 65.8582 69.1416 65.7782 69.1716C65.6982 69.1916 65.3882 69.0216 65.3882 69.0216C65.3882 69.0216 65.7782 69.0716 65.7782 69.1616C65.7882 69.2416 65.3982 69.5316 65.3982 69.5216C65.3982 69.5016 65.7482 69.1116 65.7782 69.0616C65.8182 69.0216 65.6182 69.2416 65.6082 69.2516C65.6082 69.2616 65.8082 69.2016 65.7482 69.1216C65.6882 69.0416 65.2482 68.7716 65.2682 68.7516C65.2882 68.7416 65.7782 68.9816 65.8682 69.0316C65.9682 69.0916 65.9282 69.0216 65.8382 69.0716M65.5182 68.8516C65.5082 68.9016 65.5682 68.8916 65.5282 68.9716C65.4982 69.0516 65.3282 69.3716 65.3082 69.3316C65.2882 69.2916 65.3082 68.6816 65.4382 68.7316C65.5682 68.7816 66.1382 69.6416 66.1082 69.6416C66.0882 69.6416 65.4182 68.8416 65.2982 68.7416C65.1782 68.6416 65.3782 68.9216 65.4082 69.0216C65.4282 69.1316 65.3982 69.4416 65.4382 69.3716C65.4782 69.3116 65.5982 68.6716 65.6582 68.6416C65.7082 68.6116 65.7882 69.1416 65.7582 69.2016C65.7382 69.2516 65.4582 69.0016 65.4982 68.9816" stroke="#1E1E1E" stroke-width="0.5" stroke-linecap="round"/>
<path d="M63.6072 72.1742C63.5772 72.2842 63.5372 73.2442 63.4372 73.4242M63.3272 72.7942C63.2372 72.9542 63.3772 72.9742 63.2772 72.9542" stroke="#1E1E1E" stroke-width="0.5" stroke-linecap="round"/>
<path fill-rule="evenodd" clip-rule="evenodd" d="M62.4555 72.666C62.4455 72.636 64.0055 73.186 64.2355 73.006C64.4755 72.826 64.2955 71.416 63.8655 71.566C63.4355 71.726 61.8055 73.556 61.6355 73.936" fill="white"/>
<path d="M63.3055 72.5559C63.3655 72.5859 63.6255 72.1859 63.7355 72.1559C63.8355 72.1359 64.0755 72.2859 63.9255 72.4159C63.7655 72.5559 62.9855 72.9259 62.8155 72.9559M62.9855 72.3959C62.9655 72.3459 63.2455 71.5659 63.3655 71.6059C63.4955 71.6459 63.8355 72.3659 63.7455 72.6559C63.6555 72.9459 63.0455 73.3659 62.8255 73.3559" stroke="#1E1E1E" stroke-width="0.5" stroke-linecap="round"/>
<path fill-rule="evenodd" clip-rule="evenodd" d="M65.557 74.0422C65.687 73.6522 65.597 71.0522 65.397 71.0822C65.197 71.1022 64.297 73.8722 64.347 74.2022C64.397 74.5322 65.467 73.5922 65.717 73.0622" fill="white"/>
<path d="M65.047 73.2022C65.047 72.9622 65.377 71.9222 65.457 71.9222C65.537 71.9322 65.477 73.2422 65.527 73.2322C65.577 73.2222 65.657 72.0022 65.757 71.8422M65.607 72.9622C65.557 72.7322 65.287 72.2822 65.227 72.2222C65.157 72.1722 65.137 72.6422 65.237 72.6122C65.337 72.5822 65.717 72.0622 65.817 72.0522" stroke="#1E1E1E" stroke-width="0.5" stroke-linecap="round"/>
<path fill-rule="evenodd" clip-rule="evenodd" d="M66.9023 70.9545C66.5223 71.0145 64.9423 72.9745 64.9023 73.4545C64.8623 73.9345 66.4623 74.0945 66.6523 73.8545C66.8423 73.6245 65.9723 72.1645 66.0423 72.0445" fill="white"/>
<path d="M66.9624 71.8045C66.8624 71.8445 66.1324 72.3445 66.0824 72.4845C66.0324 72.6245 66.6524 72.4945 66.6824 72.6445C66.7224 72.7945 66.4524 73.2645 66.3124 73.3545M66.5824 72.4245C66.4424 72.3445 65.7624 71.8445 65.7424 71.9245C65.7224 72.0145 66.4924 72.7845 66.4424 72.9145C66.4024 73.0545 65.4824 72.6545 65.4724 72.7345" stroke="#1E1E1E" stroke-width="0.5" stroke-linecap="round"/>
<path fill-rule="evenodd" clip-rule="evenodd" d="M66.3596 73.2028C66.2596 73.6128 66.8696 73.6328 67.0796 73.4228C67.2896 73.2128 67.4896 72.0028 67.6196 71.9628C67.7596 71.9228 68.0096 73.1828 67.9096 73.2028" fill="white"/>
<path d="M67.5396 72.2328C67.4296 72.3028 67.0596 72.0328 67.1196 72.2128C67.1796 72.3828 67.9696 73.0928 67.8896 73.2728C67.8096 73.4528 66.8096 73.2628 66.6396 73.2928M68.1196 71.9928C67.9596 72.1328 66.8696 72.4228 66.8196 72.5428C66.7696 72.6628 67.8596 72.5228 67.8296 72.7128C67.7996 72.9028 66.8596 73.5128 66.6296 73.6728" stroke="#1E1E1E" stroke-width="0.5" stroke-linecap="round"/>
<path fill-rule="evenodd" clip-rule="evenodd" d="M62.8536 74.1185C62.9036 74.3085 64.1236 73.3785 64.4636 73.0085C64.7936 72.6485 64.6236 71.9285 64.8636 71.9285" fill="white"/>
<path d="M64.1236 72.7885C64.2536 72.6385 64.7636 72.2185 64.8536 72.2685C64.9436 72.3185 64.6436 72.9385 64.6536 73.1085M63.6736 73.4385C63.8036 73.1785 64.6236 71.9285 64.7336 71.7685C64.8436 71.6085 64.3036 72.3285 64.3536 72.4685" stroke="#1E1E1E" stroke-width="0.5" stroke-linecap="round"/>
<path d="M64.5726 73.0173C64.6426 73.0273 64.6026 72.6273 64.6626 72.5873M64.3026 72.8373C64.3226 72.7573 64.2326 72.1273 64.3026 72.0173" stroke="#1E1E1E" stroke-width="0.5" stroke-linecap="round"/>
<path fill-rule="evenodd" clip-rule="evenodd" d="M68.0327 72.0194C68.3027 71.6894 69.3527 72.0694 69.5127 72.0794C69.6727 72.0894 69.1527 71.9894 69.0027 72.0794" fill="white"/>
<path d="M67.8227 73.1894C67.8527 73.0194 68.3327 72.3694 68.4927 72.3194C68.6527 72.2694 68.7927 72.7094 68.7827 72.8994M68.3927 72.9394C68.3527 72.6494 68.2327 71.7894 68.2627 71.8294C68.2827 71.8594 68.5427 72.9594 68.5627 73.1394" stroke="#1E1E1E" stroke-width="0.5" stroke-linecap="round"/>
<path d="M68.1787 72.9306C68.2987 72.8406 68.6487 72.2706 68.6787 72.2606M67.7887 72.7506C67.8787 72.6906 68.1987 72.6406 68.4087 72.5606" stroke="#1E1E1E" stroke-width="0.5" stroke-linecap="round"/>
<path d="M19.2167 62.328C20.4467 61.718 22.7167 62.768 24.2967 62.328C27.0567 60.268 28.5067 61.468 26.8367 64.868C25.6767 67.958 27.8167 72.468 26.8367 75.118C25.7567 77.328 25.3567 77.878 24.2967 77.658C22.5467 77.488 21.9467 77.788 19.2167 77.658C20.0667 75.488 17.5567 76.618 16.6767 75.118C16.9367 70.808 15.6767 67.668 16.6767 64.868C18.5567 64.878 17.0467 60.408 19.2167 62.328Z" fill="white"/>
<path d="M19.2167 62.328C20.6567 62.088 22.7167 62.318 24.2967 62.328M19.2167 62.328C21.2067 62.348 23.0067 62.248 24.2967 62.328M19.2167 62.328C16.9467 63.048 16.0267 63.508 16.6767 64.868M19.2167 62.328C16.4467 62.108 16.0767 62.918 16.6767 64.868M24.2967 62.328C25.8567 61.918 26.6167 62.988 26.8367 64.868M24.2967 62.328C25.1567 62.808 26.3267 62.148 26.8367 64.868M26.8367 64.868C26.3867 68.838 26.7167 72.968 26.8367 75.118M26.8367 64.868C26.9367 68.538 26.8067 72.028 26.8367 75.118M26.8367 75.118C27.7567 76.938 25.7867 77.558 24.2967 77.658M26.8367 75.118C27.8567 76.418 26.2667 77.358 24.2967 77.658M24.2967 77.658C22.6567 77.848 21.3767 77.408 19.2167 77.658M24.2967 77.658C22.4467 77.698 20.2867 77.788 19.2167 77.658M19.2167 77.658C17.1667 77.138 16.8267 77.668 16.6767 75.118M19.2167 77.658C18.4967 78.018 16.9167 77.658 16.6767 75.118M16.6767 75.118C16.4567 71.768 16.6667 67.668 16.6767 64.868M16.6767 75.118C16.8667 71.318 16.6867 67.908 16.6767 64.868" stroke="#1E1E1E" stroke-width="0.5" stroke-linecap="round"/>
<path d="M19.564 62.9654C21.064 62.9754 22.364 62.9954 23.944 62.9654M19.564 62.9654C20.554 62.8754 21.504 62.9254 23.944 62.9654M19.564 62.9654C17.584 62.7454 16.794 64.4154 17.374 65.1554M19.564 62.9654C18.364 63.6154 16.294 63.4754 17.374 65.1554M23.944 62.9654C25.184 62.7754 25.404 64.1054 26.124 65.1554M23.944 62.9654C24.884 61.9354 27.264 64.6754 26.124 65.1554M26.124 65.1554C25.934 67.4854 26.324 70.0854 26.124 74.8854M26.124 65.1554C26.104 67.2054 26.374 69.3654 26.124 74.8854M26.124 74.8854C25.924 76.2454 26.284 76.7354 23.944 77.0754M26.124 74.8854C26.404 76.0454 25.254 76.4454 23.944 77.0754M23.944 77.0754C23.024 76.8954 22.294 76.8954 19.564 77.0754M23.944 77.0754C22.234 77.1854 20.664 77.0254 19.564 77.0754M19.564 77.0754C18.254 77.9254 18.214 76.6554 17.374 74.8854M19.564 77.0754C18.344 77.9154 17.914 77.1454 17.374 74.8854M17.374 74.8854C17.414 71.6854 17.684 68.8254 17.374 65.1554M17.374 74.8854C17.324 71.8654 17.184 68.6354 17.374 65.1554" stroke="#1E1E1E" stroke-width="0.5" stroke-linecap="round"/>
<path d="M21.8134 66.2579C22.4334 66.1779 23.0234 66.4679 23.5034 66.8479C23.9734 67.2179 24.5234 67.9479 24.6734 68.5179C24.8134 69.0879 24.6534 69.7579 24.3634 70.2679C24.0834 70.7879 23.6134 71.3079 22.9534 71.6079C22.3034 71.9079 21.0234 72.2879 20.4334 72.0779C19.8434 71.8579 19.7434 70.9079 19.4134 70.3079C19.0934 69.7079 18.4134 69.0579 18.4634 68.4779C18.5134 67.8979 19.1334 67.1779 19.7334 66.8179C20.3334 66.4479 21.7334 66.3579 22.0534 66.2879C22.3734 66.2179 21.6834 66.3579 21.6734 66.3879M21.6134 66.1579C22.2334 66.0679 23.5934 66.2979 24.1434 66.6679C24.6934 67.0379 24.8634 67.7879 24.9134 68.3679C24.9534 68.9579 24.8234 69.6679 24.4134 70.1579C24.0034 70.6579 22.9734 71.0979 22.4434 71.3679C21.9134 71.6379 21.8534 71.8379 21.2334 71.7679C20.6134 71.7079 19.2034 71.4379 18.7234 70.9779C18.2334 70.5079 18.0634 69.6379 18.3134 68.9779C18.5534 68.3279 19.6634 67.3979 20.1734 67.0179C20.6734 66.6279 21.0934 66.8279 21.3234 66.6579C21.5534 66.4879 21.4634 65.9679 21.5434 66.0079" stroke="#1E1E1E" stroke-width="0.5" stroke-linecap="round"/>
<path d="M20.4659 68.153C20.5559 68.143 20.8259 68.243 20.9359 68.283C21.0559 68.333 21.1059 68.343 21.1559 68.443C21.2059 68.543 21.3559 68.683 21.2459 68.863C21.1359 69.053 20.5759 69.513 20.4859 69.533C20.3959 69.553 20.7959 69.103 20.6859 68.983C20.5759 68.863 19.9359 68.903 19.8259 68.823C19.7159 68.743 19.9059 68.583 20.0259 68.503C20.1459 68.423 20.4659 68.383 20.5359 68.353C20.6059 68.323 20.4059 68.343 20.4559 68.313C20.5159 68.283 20.8059 68.113 20.8459 68.153M21.1159 68.023C21.2659 68.003 21.1459 68.133 21.1559 68.183C21.1559 68.243 21.2259 68.283 21.1559 68.353C21.0759 68.423 20.6659 68.463 20.6859 68.603C20.7059 68.743 21.3759 69.013 21.2659 69.183C21.1459 69.353 20.2559 69.583 20.0059 69.603C19.7459 69.623 19.6259 69.453 19.7159 69.303C19.7959 69.143 20.4859 68.793 20.5159 68.703C20.5459 68.613 19.9159 68.883 19.9159 68.753C19.9159 68.623 20.3559 67.953 20.4959 67.933C20.6359 67.913 20.6559 68.553 20.7559 68.633" stroke="#1E1E1E" stroke-width="0.5" stroke-linecap="round"/>
<path d="M22.5714 68.1115C22.7114 68.0715 22.8614 68.0115 22.9914 68.0715C23.1314 68.1315 23.4014 68.2615 23.3814 68.4715C23.3614 68.6715 22.9014 69.2015 22.8614 69.2915C22.8314 69.3815 23.2614 69.0315 23.1514 69.0015C23.0314 68.9715 22.3414 69.1115 22.1614 69.0915C21.9914 69.0715 22.0714 68.9615 22.0914 68.8815C22.1214 68.8115 22.3214 68.7515 22.3114 68.6715C22.3014 68.5915 21.9714 68.5015 22.0614 68.4015C22.1414 68.3115 22.7114 68.1115 22.8114 68.1215C22.9214 68.1415 22.6914 68.4915 22.6814 68.5015M22.8014 68.0515C22.8314 68.0215 22.9814 67.9915 22.9814 68.0215C22.9714 68.0515 22.6814 68.0815 22.7814 68.2315C22.8814 68.3815 23.6614 68.7115 23.6014 68.9315C23.5414 69.1615 22.6914 69.4915 22.4314 69.5915C22.1714 69.6915 22.0214 69.6115 22.0514 69.5215C22.0814 69.4315 22.6614 69.1315 22.6114 69.0515C22.5614 68.9715 21.8214 69.2315 21.7414 69.0615C21.6614 68.8915 21.9714 68.1215 22.1414 68.0515C22.3114 67.9715 22.6014 68.5615 22.7614 68.6015C22.9114 68.6515 23.1014 68.3515 23.1014 68.3515" stroke="#1E1E1E" stroke-width="0.5" stroke-linecap="round"/>
<path d="M21.6467 69.5261C21.8867 69.4961 22.3367 69.5861 22.4467 69.7861C22.5567 69.9761 22.2767 70.5461 22.3367 70.6961C22.3967 70.8561 22.9167 70.6261 22.8267 70.6961C22.7267 70.7761 21.9967 71.0561 21.7467 71.1361C21.4967 71.2161 21.4367 71.2061 21.3367 71.1761C21.2267 71.1561 21.2467 71.0961 21.1167 70.9861C20.9867 70.8761 20.5267 70.6961 20.5467 70.5161C20.5567 70.3361 21.0367 69.9661 21.2267 69.8961C21.4167 69.8161 21.5867 70.1061 21.6767 70.0761C21.7767 70.0461 21.7767 69.7061 21.7767 69.7161M21.6167 69.4961C21.7067 69.4361 21.5867 69.4061 21.8267 69.5561C22.0667 69.6961 23.0067 70.0561 23.0467 70.3361C23.0967 70.6261 22.3267 71.0761 22.0967 71.2761C21.8567 71.4761 21.6767 71.5461 21.6367 71.5561C21.5967 71.5661 22.0467 71.3561 21.8667 71.3261C21.6867 71.2961 20.7767 71.5661 20.5667 71.3761C20.3667 71.1861 20.5367 70.3361 20.6467 70.1661C20.7467 70.0061 20.9367 70.4361 21.1867 70.3961C21.4267 70.3561 22.0067 69.9661 22.1067 69.9261C22.2067 69.8861 21.8167 70.1061 21.7867 70.1461" stroke="#1E1E1E" stroke-width="0.5" stroke-linecap="round"/>
<path d="M22.2193 70.359C22.1993 70.459 21.7893 70.849 21.8193 70.849C21.8593 70.859 22.4293 70.439 22.4293 70.389C22.4193 70.339 21.8893 70.499 21.8193 70.539C21.7493 70.569 21.9293 70.569 21.9993 70.599C22.0693 70.629 22.2793 70.709 22.2393 70.729C22.1993 70.749 21.7693 70.769 21.7493 70.729C21.7393 70.699 22.0893 70.499 22.1293 70.509C22.1693 70.529 21.9993 70.849 21.9993 70.839C21.9993 70.819 22.1193 70.449 22.1293 70.439C22.1393 70.439 22.0793 70.779 22.0493 70.809M21.6293 70.149C21.7193 70.189 22.5293 70.379 22.5393 70.519C22.5493 70.659 21.8293 70.909 21.6793 70.989C21.5393 71.059 21.5393 70.999 21.6793 70.959C21.8193 70.919 22.5093 70.719 22.5093 70.739C22.5093 70.769 21.7793 71.159 21.6693 71.099C21.5593 71.029 21.7893 70.379 21.8593 70.359C21.9293 70.339 22.0093 70.939 22.1093 70.999C22.2093 71.049 22.4593 70.699 22.4693 70.679C22.4793 70.659 22.2093 70.849 22.1893 70.879C22.1593 70.899 22.3393 70.949 22.3193 70.859" stroke="#1E1E1E" stroke-width="0.5" stroke-linecap="round"/>
<path d="M19.5585 66.1387C19.6885 66.0387 20.1185 66.0087 20.2585 66.0787C20.3985 66.1487 20.3585 66.3687 20.3885 66.5387C20.4285 66.7187 20.5785 66.9687 20.4985 67.1087C20.4185 67.2387 20.0785 67.2487 19.9285 67.3587C19.7785 67.4787 19.6485 67.7487 19.5785 67.8087C19.5085 67.8687 19.6185 67.9187 19.5285 67.7187C19.4385 67.5187 19.0385 66.7987 19.0385 66.6187C19.0285 66.4487 19.3685 66.7687 19.4985 66.6487C19.6385 66.5287 19.7885 66.0087 19.8585 65.8987C19.9385 65.7787 19.9585 65.9287 19.9485 65.9587M20.1585 66.4887C20.2985 66.5087 19.8985 66.3787 19.8985 66.4387C19.8985 66.4987 20.1385 66.6887 20.1685 66.8487C20.2085 67.0187 20.0885 67.3187 20.1085 67.4187C20.1285 67.5087 20.4185 67.3287 20.2985 67.4387C20.1885 67.5387 19.5785 67.9787 19.4285 68.0487C19.2685 68.1187 19.4785 68.0287 19.3785 67.8487C19.2785 67.6687 18.8285 67.1887 18.8285 66.9887C18.8285 66.7987 19.1585 66.8287 19.3885 66.6887C19.6185 66.5587 20.1285 66.2887 20.2085 66.1687C20.2985 66.0487 20.0385 65.9587 19.9085 65.9787" fill="white"/>
<path d="M19.4085 66.4887C19.5385 66.4587 20.2485 66.0887 20.3385 66.1087C20.4385 66.1387 19.9885 66.4587 19.9585 66.6487C19.9285 66.8287 20.1185 67.0387 20.1585 67.2187C20.1885 67.3987 20.3085 67.6387 20.1785 67.7487C20.0485 67.8487 19.4885 67.9087 19.3685 67.8487C19.2385 67.7887 19.4685 67.4787 19.4385 67.3787C19.4185 67.2687 19.1985 67.3887 19.1885 67.2187C19.1885 67.0487 19.3485 66.4687 19.4285 66.3387C19.5085 66.2187 19.6485 66.4687 19.6785 66.4587C19.7085 66.4487 19.6185 66.2987 19.6085 66.2587M20.1385 66.1587C20.2485 66.2587 19.6685 66.5687 19.6085 66.7187C19.5585 66.8787 19.6485 66.9887 19.8185 67.0987C19.9985 67.2087 20.6885 67.2087 20.6485 67.3887C20.6085 67.5587 19.7985 68.1087 19.5985 68.1287C19.3985 68.1387 19.4885 67.5187 19.4585 67.4687C19.4285 67.4187 19.3785 67.9087 19.4085 67.8387C19.4485 67.7687 19.6485 67.2287 19.6585 67.0487C19.6785 66.8687 19.4485 66.8487 19.4985 66.7587C19.5485 66.6687 19.9185 66.6287 19.9585 66.5087C19.9885 66.3787 19.7085 66.0387 19.6985 65.9987" stroke="white" stroke-width="0.5" stroke-linecap="round"/>
<path fill-rule="evenodd" clip-rule="evenodd" d="M19.1563 65.6638C19.3972 65.7925 19.7576 68.0364 19.9189 68.2894C20.0893 68.5531 19.8961 67.5355 20.1621 67.2047C20.4172 66.8832 21.5069 66.535 21.473 66.3218" fill="white"/>
<path d="M18.4661 66.955C18.5866 67.0846 18.9742 67.3949 19.3455 67.5236C19.7168 67.6522 20.599 68.0504 20.7123 67.7481C20.8364 67.4367 20.1444 65.9899 20.0468 65.6916M19.0021 66.7653C19.0605 66.9201 18.6799 67.7035 18.9645 67.7853C19.2498 67.8572 20.5381 67.5343 20.7135 67.2067C20.8882 66.889 20.0102 66.0398 20.0154 65.8396" stroke="#1E1E1E" stroke-width="0.5" stroke-linecap="round"/>
<path fill-rule="evenodd" clip-rule="evenodd" d="M19.0568 65.4749C19.2902 65.4115 20.0486 66.9803 20.2013 67.0596C20.3525 67.129 19.7508 66.0934 19.9701 65.9309" fill="white"/>
<path d="M18.6942 66.4052C18.9289 66.4224 19.8392 67.0707 20.0571 66.969C20.2749 66.8673 19.9913 65.938 20.0098 65.7839M19.3443 66.9289C19.5636 66.8372 19.8324 66.6676 19.8919 66.5178C19.9613 66.3665 19.6688 66.0849 19.7225 66.0368" stroke="#1E1E1E" stroke-width="0.5" stroke-linecap="round"/>
<path d="M24.1113 65.9101C24.1813 65.8601 24.1013 65.7701 24.1413 65.9001C24.1913 66.0401 24.2913 66.4701 24.3713 66.7301C24.4413 67.0001 24.6713 67.4001 24.6013 67.5001C24.5313 67.5901 24.0713 67.2501 23.9513 67.3201C23.8413 67.3801 23.9613 67.9401 23.9113 67.9001C23.8513 67.8601 23.6813 67.3001 23.6313 67.0801C23.5813 66.8701 23.6013 66.7601 23.6113 66.6101C23.6113 66.4501 23.5913 66.3101 23.6313 66.1801C23.6713 66.0501 23.8313 65.7801 23.8613 65.8101C23.8913 65.8401 23.7813 66.3201 23.8213 66.3601M23.8113 66.1501C24.0013 66.0901 24.5413 65.8601 24.6213 66.0201C24.7013 66.1801 24.3113 66.8101 24.2813 67.1101C24.2513 67.4001 24.5413 67.6701 24.4313 67.7901C24.3313 67.9001 23.7913 67.7701 23.6713 67.8001C23.5413 67.8301 23.6513 68.0501 23.6813 67.9601C23.7213 67.8701 23.9213 67.5001 23.9013 67.2601C23.8813 67.0201 23.6513 66.6801 23.5413 66.5101C23.4413 66.3501 23.1413 66.3101 23.2613 66.2901C23.3913 66.2701 24.2013 66.5001 24.3013 66.4101C24.4013 66.3101 23.9813 65.7901 23.8513 65.7301" fill="white"/>
<path d="M23.7713 66.0301C23.9613 66.0401 24.3313 66.1801 24.3913 66.3001C24.4613 66.4301 24.1313 66.6401 24.1513 66.7801C24.1713 66.9301 24.5113 66.9701 24.5013 67.1501C24.4913 67.3401 24.2113 67.8301 24.1013 67.9101C23.9913 67.9801 23.9413 67.6201 23.8313 67.5801C23.7213 67.5301 23.5413 67.7401 23.4513 67.6301C23.3613 67.5201 23.2813 67.1201 23.2813 66.8901C23.2813 66.6601 23.3813 66.4601 23.4613 66.2701C23.5313 66.0901 23.6713 65.7601 23.7113 65.7801C23.7513 65.7901 23.6413 66.3601 23.6713 66.3801M23.6713 66.3801C23.6913 66.3801 23.8913 66.2201 23.8513 66.2301C23.8013 66.2401 23.4313 66.2301 23.4013 66.4501C23.3713 66.6601 23.6013 67.2701 23.6613 67.5201C23.7313 67.7701 23.6413 67.9001 23.7713 67.9501C23.9113 67.9901 24.3513 67.8401 24.4513 67.8101C24.5613 67.7901 24.4513 68.0001 24.4213 67.7901C24.3913 67.5901 24.3613 66.7601 24.2713 66.5901C24.1913 66.4201 23.9013 66.8601 23.9213 66.7901C23.9413 66.7301 24.5113 66.2101 24.3913 66.1801M23.6713 66.3801C23.6413 66.3801 23.5813 66.3101 23.6813 66.2301" stroke="white" stroke-width="0.5" stroke-linecap="round"/>
<path fill-rule="evenodd" clip-rule="evenodd" d="M26.093 66.8506C25.9686 67.0323 24.0715 67.7133 23.7791 67.6991C23.4876 67.695 24.3741 67.1643 24.343 66.8156C24.3219 66.4661 23.8278 65.8776 23.6246 65.6247" fill="white"/>
<path d="M24.5827 66.463C24.3815 66.5712 24.2258 67.5288 23.981 67.7113C23.7371 67.9036 23.2265 67.919 23.1257 67.5766C23.0159 67.245 23.3225 65.9527 23.3709 65.7075M25.1828 67.0019C24.9206 67.3264 24.0889 68.1334 23.6977 68.1381C23.3057 68.1328 22.8481 67.3905 22.8144 67.012C22.7907 66.6326 23.4555 65.981 23.5055 65.8662" stroke="#1E1E1E" stroke-width="0.5" stroke-linecap="round"/>
<path fill-rule="evenodd" clip-rule="evenodd" d="M25.886 67.0384C25.7532 67.0515 23.8257 66.752 23.6095 66.5526C23.3846 66.3421 24.5585 65.919 24.5752 65.7901" fill="white"/>
<path d="M24.5744 66.5765C24.4512 66.6715 23.992 67.0256 23.7966 66.8995C23.6011 66.7734 23.4794 65.9207 23.4129 65.8113M25.2169 66.2865C25.0729 66.3082 23.8943 66.3777 23.5571 66.3341C23.2212 66.2806 23.2113 65.9668 23.2049 66.0163" stroke="#1E1E1E" stroke-width="0.5" stroke-linecap="round"/>
<path d="M21.5172 70.4143C21.5772 70.4443 21.4272 70.7943 21.4272 70.8043C21.4272 70.8143 21.5372 70.4643 21.5372 70.4843C21.5472 70.4943 21.4872 70.8643 21.4572 70.9043C21.4172 70.9443 21.3572 70.7743 21.3272 70.7243C21.3072 70.6743 21.3272 70.6643 21.2972 70.5943C21.2672 70.5243 21.1972 70.2543 21.1672 70.2943C21.1272 70.3343 21.0672 70.8443 21.0972 70.8243C21.1272 70.8043 21.2672 70.2943 21.3672 70.1843C21.4672 70.0743 21.6572 70.0743 21.7072 70.1643C21.7572 70.2643 21.6972 70.7343 21.6572 70.7443M21.5072 70.9043C21.6272 70.9743 21.8872 70.6543 21.8972 70.6543C21.9172 70.6643 21.6372 70.8743 21.6072 70.9243C21.5672 70.9743 21.7472 71.0343 21.7172 70.9543C21.6872 70.8843 21.4372 70.5143 21.4172 70.4643C21.3972 70.4143 21.6472 70.5943 21.5872 70.6643C21.5172 70.7343 21.1072 70.8843 21.0172 70.8843C20.9172 70.8843 20.9172 70.7643 21.0272 70.6643C21.1472 70.5543 21.6272 70.2343 21.6872 70.2543C21.7472 70.2743 21.4872 70.7043 21.3972 70.7643C21.2972 70.8343 21.1472 70.6343 21.1072 70.6443" stroke="#1E1E1E" stroke-width="0.5" stroke-linecap="round"/>
<path d="M19.236 73.5969C19.246 73.6869 19.206 74.5169 19.166 74.6669M18.856 74.2069C18.836 74.1769 18.966 73.9869 18.946 74.0969" stroke="#1E1E1E" stroke-width="0.5" stroke-linecap="round"/>
<path fill-rule="evenodd" clip-rule="evenodd" d="M18.7344 72.9187C18.6044 72.7787 18.1144 72.2387 18.4644 72.4387C18.8144 72.6387 20.9944 73.6287 20.8344 74.1287C20.6644 74.6287 18.0444 75.2387 17.4844 75.4187" fill="white"/>
<path d="M19.0244 73.7887C19.1344 73.7987 19.5044 73.3287 19.6644 73.3987C19.8244 73.4587 20.1444 74.0487 19.9844 74.1887C19.8244 74.3187 18.8444 74.2187 18.6944 74.2087M18.6644 73.5387C18.7144 73.6187 19.1444 73.6487 19.3544 73.8187C19.5644 73.9987 20.0344 74.4787 19.9244 74.5987C19.8244 74.7087 18.9144 74.5787 18.7244 74.5087" stroke="#1E1E1E" stroke-width="0.5" stroke-linecap="round"/>
<path fill-rule="evenodd" clip-rule="evenodd" d="M19.7759 73.4749C20.0259 73.4649 22.2959 73.2649 22.3659 73.6349C22.4359 74.0049 20.5359 75.5549 20.1959 75.6849C19.8659 75.8249 19.9159 74.7849 20.3459 74.4649" fill="white"/>
<path d="M20.9859 74.4349C21.0459 74.2849 21.4459 73.6849 21.5159 73.6949C21.5859 73.7049 21.3359 74.5349 21.4059 74.4749C21.4759 74.4249 21.8859 73.5549 21.9359 73.3749M20.5259 74.1049C20.5559 74.0049 21.3059 74.0449 21.4059 74.1649C21.5059 74.2949 21.1959 74.9349 21.1459 74.8449C21.0859 74.7549 21.0659 73.8649 21.0959 73.6349" stroke="#1E1E1E" stroke-width="0.5" stroke-linecap="round"/>
<path fill-rule="evenodd" clip-rule="evenodd" d="M23.8712 73.5172C23.7612 73.9172 21.1912 74.6472 20.7512 74.9372C20.3212 75.2272 20.9112 75.2872 21.2712 75.2572C21.6312 75.2372 23.0212 74.7172 22.9312 74.7972" fill="white"/>
<path d="M23.0312 73.5772C22.9112 73.6172 21.9912 73.6272 21.9612 73.7272C21.9312 73.8272 22.8712 74.0472 22.8612 74.1672C22.8512 74.2872 22.0912 74.4172 21.9112 74.4372M22.7712 73.2872C22.6112 73.3972 21.6412 73.9672 21.6412 74.1672C21.6512 74.3672 22.7312 74.3972 22.8012 74.4972C22.8612 74.5872 22.2712 74.7372 22.0212 74.7172" stroke="#1E1E1E" stroke-width="0.5" stroke-linecap="round"/>
<path fill-rule="evenodd" clip-rule="evenodd" d="M22.2086 74.6855C21.7186 74.9055 21.3186 74.8155 21.6986 74.8255C22.0886 74.8255 24.5386 74.5455 24.5086 74.7155C24.4786 74.8955 21.9186 75.9955 21.5186 75.8655" fill="white"/>
<path d="M23.4186 73.4755C23.3286 73.5055 23.2786 73.5855 23.2986 73.7355C23.3086 73.8755 23.6086 74.2455 23.4886 74.3555C23.3686 74.4755 22.7786 74.4155 22.5786 74.4155M24.0286 73.1555C23.8886 73.2255 23.2986 73.8655 23.1786 74.1255C23.0586 74.3755 23.3986 74.6155 23.3086 74.6955C23.2186 74.7855 22.7186 74.7055 22.6286 74.6455" stroke="#1E1E1E" stroke-width="0.5" stroke-linecap="round"/>
<path fill-rule="evenodd" clip-rule="evenodd" d="M18.7025 75.6012C18.3625 75.6012 18.5725 74.5712 19.0825 74.4112C19.5925 74.2612 21.6725 74.4812 21.7525 74.6912" fill="white"/>
<path d="M20.3025 74.3112C20.3925 74.1312 20.4025 73.3612 20.4525 73.3512C20.5025 73.3412 20.6225 74.0912 20.6025 74.2312M20.0325 73.9412C20.0825 73.8212 20.1625 73.6612 20.2125 73.7512C20.2725 73.8512 20.3525 74.4112 20.3525 74.5212" stroke="#1E1E1E" stroke-width="0.5" stroke-linecap="round"/>
<path d="M20.1716 74.11C20.2016 74.04 20.5816 73.78 20.6016 73.71M19.7816 73.75C19.7416 73.74 20.1016 74.03 20.3016 74.06" stroke="#1E1E1E" stroke-width="0.5" stroke-linecap="round"/>
<path fill-rule="evenodd" clip-rule="evenodd" d="M24.9216 74.7721C25.0216 74.6521 23.2616 74.8821 23.1316 74.7421C22.9916 74.5921 23.8216 73.7221 24.1016 73.9021" fill="white"/>
<path d="M23.7716 74.3121C23.7716 74.1221 23.7216 73.1821 23.9116 73.2321C24.1016 73.2821 24.8416 74.3321 24.9016 74.6121M23.3116 74.9821C23.4116 74.8321 24.2916 73.5521 24.5416 73.5521C24.7916 73.5521 24.8916 74.8721 24.8316 75.0021" stroke="#1E1E1E" stroke-width="0.5" stroke-linecap="round"/>
<path d="M23.5975 73.8433C23.7475 73.8533 24.7075 73.9033 24.7975 73.9733M24.0775 74.4833C24.2075 74.5633 24.5475 74.5433 24.6775 74.4233" stroke="#1E1E1E" stroke-width="0.5" stroke-linecap="round"/>
</svg>
