<svg width="83" height="119" viewBox="0 0 83 119" fill="none" xmlns="http://www.w3.org/2000/svg">
<path d="M21.4168 1.84937C32.3008 0.1812 39.9917 4.1431 60.7472 1.84937C74.3085 1.52711 77.745 11.0433 80.4125 20.9954C78.5043 47.1838 79.7602 67.4956 80.4125 98.2904C80.8116 111.683 74.4545 120.394 60.7472 117.436C48.4322 114.593 35.0949 118.214 21.4168 117.436C6.18116 115.711 1.20645 111.749 1.75162 98.2904C-2.36639 73.9124 3.52344 49.8282 1.75162 20.9954C-0.0396645 7.11927 5.23684 -0.880362 21.4168 1.84937Z" fill="white"/>
<path d="M21.4169 1.8494C38.0837 0.787836 49.4934 0.683575 60.7473 1.8494M21.4169 1.8494C31.8336 1.95366 41.2963 1.30914 60.7473 1.8494M21.4169 1.8494C8.92657 1.36601 0.00908264 7.68799 1.75169 20.9954M21.4169 1.8494C9.01419 3.65026 0.262199 8.9486 1.75169 20.9954M60.7473 1.8494C74.5811 2.12427 80.1497 9.20451 80.4125 20.9954M60.7473 1.8494C73.7634 1.45131 81.8144 8.23773 80.4125 20.9954M80.4125 20.9954C82.3791 39.2884 80.2762 55.9796 80.4125 98.2904M80.4125 20.9954C80.9869 38.9282 79.7311 57.0032 80.4125 98.2904M80.4125 98.2904C81.4834 110.043 74.9316 116.925 60.7473 117.436M80.4125 98.2904C81.4445 111.892 73.5005 115.958 60.7473 117.436M60.7473 117.436C51.4015 117.901 45.1709 118.119 21.4169 117.436M60.7473 117.436C51.9661 116.432 41.2476 116.782 21.4169 117.436M21.4169 117.436C7.62205 115.588 3.11463 111.569 1.75169 98.2904M21.4169 117.436C7.00873 119.095 3.44563 110.006 1.75169 98.2904M1.75169 98.2904C1.49858 73.6565 0.447169 52.7475 1.75169 20.9954M1.75169 98.2904C2.97833 73.8461 1.4499 48.0084 1.75169 20.9954" stroke="#1E1E1E" stroke-width="2" stroke-linecap="round"/>
<path d="M22.4633 1.68469C33.542 1.68469 44.611 1.68469 57.8899 1.68469C60.3042 1.68469 61.5211 2.85999 61.5211 5.22007C61.5211 7.97824 61.5211 10.7459 61.5211 12.2814C61.5211 14.632 60.3042 15.8073 57.8899 15.8073C47.9112 15.8073 37.9423 15.8073 22.4633 15.8073C20.0392 15.8073 18.832 14.632 18.832 12.2814C18.832 10.5848 18.832 8.88815 18.832 5.22007C18.832 2.85999 20.0392 1.68469 22.4633 1.68469Z" fill="white"/>
<path d="M22.4633 1.68469C33.0844 1.68469 43.7153 1.68469 57.8899 1.68469M22.4633 1.68469C31.04 1.68469 39.6265 1.68469 57.8899 1.68469M22.4633 1.68469C20.0392 1.68469 18.832 2.85999 18.832 5.22007M57.8899 1.68469C60.3042 1.68469 61.5211 2.85999 61.5211 5.22007M61.5211 5.22007C61.5211 6.88824 61.5211 8.56589 61.5211 12.2814M61.5211 5.22007C61.5211 7.11572 61.5211 9.01137 61.5211 12.2814M61.5211 12.2814C61.5211 14.632 60.3042 15.8073 57.8899 15.8073M57.8899 15.8073C46.5191 15.8073 35.1483 15.8073 22.4633 15.8073M57.8899 15.8073C49.206 15.8073 40.5319 15.8073 22.4633 15.8073M22.4633 15.8073C20.0392 15.8073 18.832 14.632 18.832 12.2814M18.832 12.2814C18.832 10.689 18.832 9.10615 18.832 5.22007M18.832 12.2814C18.832 10.272 18.832 8.26259 18.832 5.22007" stroke="#1E1E1E" stroke-width="2" stroke-linecap="round"/>
<path d="M23.4424 8.29883C23.4424 8.26302 23.4342 8.20931 23.418 8.1377C23.4017 8.06608 23.3822 7.9847 23.3594 7.89355C23.3366 7.79915 23.3105 7.69987 23.2812 7.5957C23.252 7.48828 23.2259 7.38411 23.2031 7.2832C23.1803 7.18229 23.1608 7.08789 23.1445 7C23.1283 6.91211 23.1201 6.83887 23.1201 6.78027C23.1201 6.7054 23.1413 6.64518 23.1836 6.59961C23.2259 6.55078 23.2796 6.51335 23.3447 6.4873C23.4098 6.46126 23.4798 6.44336 23.5547 6.43359C23.6296 6.42383 23.7012 6.41895 23.7695 6.41895C23.8542 6.41895 23.9355 6.44336 24.0137 6.49219C24.0951 6.53776 24.1504 6.62077 24.1797 6.74121C24.2155 6.86816 24.2448 6.99674 24.2676 7.12695C24.2936 7.25391 24.3164 7.37923 24.3359 7.50293C24.3555 7.62337 24.3734 7.74056 24.3896 7.85449C24.4092 7.96842 24.4287 8.07422 24.4482 8.17188C24.4678 8.25 24.4922 8.31185 24.5215 8.35742C24.554 8.40299 24.5915 8.4388 24.6338 8.46484C24.6794 8.48763 24.7266 8.50228 24.7754 8.50879C24.8275 8.5153 24.8828 8.51855 24.9414 8.51855C25.0065 8.51855 25.0765 8.51204 25.1514 8.49902C25.2262 8.486 25.2995 8.47949 25.3711 8.47949C25.4167 8.47949 25.4606 8.48763 25.5029 8.50391C25.5485 8.51693 25.5892 8.54297 25.625 8.58203C25.6608 8.61784 25.6885 8.66829 25.708 8.7334C25.7308 8.7985 25.7422 8.88151 25.7422 8.98242C25.7422 9.06706 25.7259 9.13867 25.6934 9.19727C25.6608 9.2526 25.599 9.29004 25.5078 9.30957L25.332 9.34863C25.2767 9.3584 25.2246 9.36654 25.1758 9.37305C25.1302 9.3763 25.0716 9.38118 25 9.3877C24.847 9.40397 24.7705 9.4707 24.7705 9.58789C24.7705 9.59766 24.777 9.6416 24.79 9.71973C24.8031 9.79785 24.8193 9.89551 24.8389 10.0127C24.8617 10.1266 24.8861 10.2536 24.9121 10.3936C24.9382 10.5303 24.9626 10.6621 24.9854 10.7891C25.0114 10.916 25.0342 11.0299 25.0537 11.1309C25.0732 11.2285 25.0879 11.2985 25.0977 11.3408C25.1139 11.4124 25.127 11.4678 25.1367 11.5068C25.1465 11.5459 25.1514 11.5996 25.1514 11.668C25.1514 11.7201 25.1367 11.7721 25.1074 11.8242C25.0781 11.873 25.0342 11.917 24.9756 11.9561C24.9202 11.9951 24.8519 12.026 24.7705 12.0488C24.6891 12.0749 24.5964 12.0879 24.4922 12.0879C24.3783 12.0879 24.2952 12.0537 24.2432 11.9854C24.1943 11.9137 24.1602 11.8324 24.1406 11.7412C24.0983 11.5719 24.0576 11.3978 24.0186 11.2188C23.9827 11.0397 23.9469 10.8623 23.9111 10.6865C23.8786 10.5107 23.846 10.3398 23.8135 10.1738C23.7842 10.0046 23.7565 9.84342 23.7305 9.69043C23.7142 9.61882 23.6849 9.56673 23.6426 9.53418C23.6003 9.49837 23.5465 9.48047 23.4814 9.48047C23.2601 9.48047 23.0371 9.48861 22.8125 9.50488C22.5911 9.5179 22.373 9.5293 22.1582 9.53906C22.0833 9.54557 22.0247 9.56999 21.9824 9.6123C21.9401 9.65462 21.9189 9.70996 21.9189 9.77832C21.9189 9.93132 21.9206 10.0827 21.9238 10.2324C21.9271 10.3822 21.9287 10.5352 21.9287 10.6914C21.9287 10.8704 21.9255 11.0544 21.9189 11.2432C21.9157 11.432 21.9092 11.6143 21.8994 11.79C21.8929 11.8551 21.8734 11.9089 21.8408 11.9512C21.8115 11.9935 21.7725 12.0277 21.7236 12.0537C21.6781 12.0798 21.6243 12.0977 21.5625 12.1074C21.5039 12.1172 21.4437 12.1221 21.3818 12.1221C21.2288 12.1221 21.11 12.096 21.0254 12.0439C20.9408 11.9951 20.8984 11.9105 20.8984 11.79C20.8984 11.6077 20.9033 11.4173 20.9131 11.2188C20.9229 11.0202 20.9277 10.82 20.9277 10.6182C20.9277 10.4814 20.9261 10.3496 20.9229 10.2227C20.9196 10.0924 20.918 9.95898 20.918 9.82227C20.918 9.76042 20.9033 9.71484 20.874 9.68555C20.848 9.65299 20.8154 9.62695 20.7764 9.60742C20.7373 9.58789 20.6934 9.56999 20.6445 9.55371C20.5957 9.53418 20.5518 9.50651 20.5127 9.4707C20.4736 9.4349 20.4395 9.38281 20.4102 9.31445C20.3841 9.24609 20.3711 9.15169 20.3711 9.03125C20.3711 8.96615 20.3825 8.91569 20.4053 8.87988C20.4313 8.84082 20.4622 8.8099 20.498 8.78711C20.5371 8.76432 20.5778 8.74642 20.6201 8.7334C20.6624 8.71712 20.7015 8.69759 20.7373 8.6748C20.7764 8.65202 20.8073 8.62435 20.8301 8.5918C20.8561 8.55599 20.8691 8.50553 20.8691 8.44043C20.8691 8.40137 20.8675 8.35579 20.8643 8.30371C20.861 8.24837 20.8577 8.19629 20.8545 8.14746C20.8512 8.09863 20.848 8.05632 20.8447 8.02051C20.8415 7.98145 20.8398 7.9554 20.8398 7.94238C20.8398 7.83171 20.8545 7.74382 20.8838 7.67871C20.9163 7.61035 20.9554 7.5599 21.001 7.52734C21.0465 7.49154 21.097 7.46875 21.1523 7.45898C21.2109 7.44596 21.2663 7.43945 21.3184 7.43945C21.5137 7.43945 21.6488 7.47689 21.7236 7.55176C21.8018 7.62337 21.8441 7.72917 21.8506 7.86914L21.8701 8.38184C21.8766 8.45996 21.8978 8.52018 21.9336 8.5625C21.9694 8.60156 22.028 8.62109 22.1094 8.62109L23.2178 8.58203C23.3122 8.57552 23.3724 8.54948 23.3984 8.50391C23.4277 8.45833 23.4424 8.38997 23.4424 8.29883ZM30.2734 10.9307C30.3678 10.8493 30.4606 10.8086 30.5518 10.8086C30.6038 10.8086 30.651 10.8216 30.6934 10.8477C30.7357 10.8737 30.7829 10.9144 30.835 10.9697C30.8838 11.0446 30.918 11.1064 30.9375 11.1553C30.9603 11.2008 30.9717 11.2464 30.9717 11.292C30.9717 11.3896 30.9229 11.4824 30.8252 11.5703C30.6689 11.7005 30.4997 11.8177 30.3174 11.9219C30.1351 12.0228 29.9447 12.109 29.7461 12.1807C29.5475 12.2523 29.3424 12.306 29.1309 12.3418C28.9193 12.3809 28.7093 12.4004 28.501 12.4004C28.2373 12.4004 27.9899 12.3662 27.7588 12.2979C27.5277 12.2327 27.321 12.1383 27.1387 12.0146C26.9596 11.891 26.8083 11.7428 26.6846 11.5703C26.5609 11.3945 26.473 11.1976 26.4209 10.9795C26.3916 10.8883 26.3639 10.8298 26.3379 10.8037C26.3151 10.7744 26.276 10.7598 26.2207 10.7598C26.1003 10.7598 26.0075 10.7305 25.9424 10.6719C25.8773 10.6133 25.8447 10.5286 25.8447 10.418C25.8447 10.3724 25.848 10.3431 25.8545 10.3301L25.8643 10.2324C25.8805 10.1152 25.9115 10.0306 25.957 9.97852C26.0059 9.92643 26.0807 9.90039 26.1816 9.90039H26.2549C26.3916 9.90039 26.4876 9.83691 26.543 9.70996C26.6439 9.48535 26.7725 9.28027 26.9287 9.09473C27.085 8.90918 27.2607 8.7513 27.4561 8.62109C27.6514 8.48763 27.8597 8.38509 28.0811 8.31348C28.3057 8.23861 28.5335 8.20117 28.7646 8.20117C29.0055 8.20117 29.2301 8.23698 29.4385 8.30859C29.6501 8.37695 29.834 8.47298 29.9902 8.59668C30.1465 8.72038 30.2686 8.86523 30.3564 9.03125C30.4476 9.19727 30.4932 9.3763 30.4932 9.56836C30.4932 9.70182 30.4671 9.82389 30.415 9.93457C30.363 10.0452 30.2881 10.1429 30.1904 10.2275C30.0928 10.3089 29.974 10.3757 29.834 10.4277C29.6973 10.4798 29.541 10.514 29.3652 10.5303L27.6709 10.7012C27.6058 10.7012 27.5521 10.7174 27.5098 10.75C27.4707 10.7826 27.4512 10.8265 27.4512 10.8818C27.4512 10.9665 27.4821 11.0479 27.5439 11.126C27.609 11.2041 27.6937 11.2741 27.7979 11.3359C27.9053 11.3945 28.0273 11.4417 28.1641 11.4775C28.304 11.5133 28.4473 11.5312 28.5938 11.5312C28.7337 11.5312 28.877 11.5182 29.0234 11.4922C29.1732 11.4629 29.3197 11.4222 29.4629 11.3701C29.6094 11.318 29.751 11.2562 29.8877 11.1846C30.0244 11.1097 30.153 11.0251 30.2734 10.9307ZM29.1846 9.6709C29.2334 9.66113 29.2757 9.63835 29.3115 9.60254C29.3473 9.56348 29.3652 9.51628 29.3652 9.46094C29.3652 9.41211 29.3473 9.36654 29.3115 9.32422C29.2757 9.2819 29.2269 9.24447 29.165 9.21191C29.1032 9.17611 29.0316 9.14844 28.9502 9.12891C28.8688 9.10938 28.7826 9.09961 28.6914 9.09961C28.5579 9.09961 28.4212 9.11914 28.2812 9.1582C28.1413 9.19727 28.0143 9.24935 27.9004 9.31445C27.7865 9.3763 27.6937 9.44629 27.6221 9.52441C27.5505 9.59928 27.5146 9.67415 27.5146 9.74902C27.5146 9.82389 27.5602 9.86133 27.6514 9.86133C27.7067 9.86133 27.7962 9.85482 27.9199 9.8418C28.0436 9.82878 28.1803 9.81413 28.3301 9.79785C28.4798 9.77832 28.6312 9.75716 28.7842 9.73438C28.9372 9.71159 29.0706 9.69043 29.1846 9.6709ZM34.3506 7.73242C34.5296 7.73242 34.7021 7.76009 34.8682 7.81543C35.0342 7.87077 35.1807 7.94727 35.3076 8.04492C35.4346 8.14258 35.5355 8.25977 35.6104 8.39648C35.6885 8.5332 35.7275 8.68457 35.7275 8.85059C35.7275 8.91895 35.7113 8.98568 35.6787 9.05078C35.6494 9.11263 35.6087 9.16797 35.5566 9.2168C35.5046 9.26237 35.4443 9.2998 35.376 9.3291C35.3109 9.35514 35.2425 9.36816 35.1709 9.36816C35.1644 9.36816 35.1579 9.36979 35.1514 9.37305C35.1481 9.37305 35.1432 9.37305 35.1367 9.37305C35.1302 9.3763 35.1237 9.37793 35.1172 9.37793L35.1367 9.76855C35.1497 10.234 35.2148 10.5742 35.332 10.7891C35.4525 11.0039 35.6087 11.1113 35.8008 11.1113C35.8691 11.1113 35.9294 11.1048 35.9814 11.0918C36.0368 11.0788 36.0872 11.0641 36.1328 11.0479C36.1816 11.0283 36.2272 11.012 36.2695 10.999C36.3118 10.986 36.3542 10.9795 36.3965 10.9795C36.4714 10.9795 36.5365 11.012 36.5918 11.0771C36.6504 11.1423 36.6797 11.2204 36.6797 11.3115C36.6797 11.4027 36.6439 11.4938 36.5723 11.585C36.5039 11.6761 36.4128 11.7591 36.2988 11.834C36.1849 11.9056 36.0563 11.9642 35.9131 12.0098C35.7699 12.0553 35.625 12.0781 35.4785 12.0781C35.2246 12.0781 35.0016 11.974 34.8096 11.7656C34.6175 11.554 34.4808 11.2448 34.3994 10.8379C34.3799 10.7728 34.3538 10.7402 34.3213 10.7402C34.2822 10.7402 34.248 10.7598 34.2188 10.7988C33.8965 11.2057 33.5531 11.5117 33.1885 11.7168C32.8239 11.9186 32.4642 12.0195 32.1094 12.0195C31.9434 12.0195 31.7936 11.9951 31.6602 11.9463C31.5267 11.8975 31.4128 11.8291 31.3184 11.7412C31.2272 11.6501 31.1556 11.541 31.1035 11.4141C31.0547 11.2839 31.0303 11.139 31.0303 10.9795C31.0303 10.7549 31.0791 10.5189 31.1768 10.2715C31.2777 10.0241 31.4128 9.77995 31.582 9.53906C31.7513 9.29818 31.9466 9.06868 32.168 8.85059C32.3926 8.63249 32.627 8.44043 32.8711 8.27441C33.1185 8.1084 33.3691 7.97656 33.623 7.87891C33.877 7.78125 34.1195 7.73242 34.3506 7.73242ZM34.1895 9.42188C34.248 9.3112 34.3018 9.23145 34.3506 9.18262C34.3994 9.13053 34.4694 9.09635 34.5605 9.08008C34.6322 9.07031 34.668 9.04753 34.668 9.01172C34.668 8.98568 34.6582 8.95801 34.6387 8.92871C34.5768 8.84408 34.5117 8.77083 34.4434 8.70898C34.375 8.64388 34.2839 8.61133 34.1699 8.61133C34.0462 8.61133 33.9079 8.64714 33.7549 8.71875C33.6019 8.79036 33.4456 8.88639 33.2861 9.00684C33.1299 9.12402 32.9753 9.25911 32.8223 9.41211C32.6725 9.56185 32.5391 9.71647 32.4219 9.87598C32.3047 10.0355 32.2103 10.1934 32.1387 10.3496C32.0671 10.5059 32.0312 10.6458 32.0312 10.7695C32.0312 10.8802 32.0605 10.9665 32.1191 11.0283C32.181 11.0902 32.264 11.1211 32.3682 11.1211C32.6351 11.1211 32.9264 10.9795 33.2422 10.6963C33.5579 10.4131 33.8737 9.98828 34.1895 9.42188ZM36.3672 8.5918C36.3672 8.46484 36.4242 8.36882 36.5381 8.30371C36.652 8.23535 36.8148 8.20117 37.0264 8.20117C37.0752 8.20117 37.1191 8.20768 37.1582 8.2207C37.1973 8.23372 37.2314 8.25977 37.2607 8.29883C37.2933 8.33464 37.3226 8.38509 37.3486 8.4502C37.3747 8.5153 37.4007 8.59831 37.4268 8.69922C37.4528 8.81315 37.4788 8.87012 37.5049 8.87012C37.5277 8.87012 37.5553 8.82292 37.5879 8.72852C37.6465 8.54297 37.723 8.38184 37.8174 8.24512C37.915 8.10514 38.0241 7.98958 38.1445 7.89844C38.265 7.80404 38.3952 7.73405 38.5352 7.68848C38.6784 7.6429 38.8281 7.62012 38.9844 7.62012C39.3001 7.62012 39.5947 7.68034 39.8682 7.80078C40.1416 7.91797 40.3776 8.08236 40.5762 8.29395C40.7747 8.50228 40.931 8.74967 41.0449 9.03613C41.1589 9.31934 41.2158 9.62695 41.2158 9.95898C41.2158 10.3105 41.154 10.6361 41.0303 10.9355C40.9098 11.235 40.7406 11.4938 40.5225 11.7119C40.3044 11.9268 40.0439 12.0944 39.7412 12.2148C39.4417 12.3385 39.113 12.4004 38.7549 12.4004L38.5059 12.3906C38.3594 12.3906 38.2861 12.4736 38.2861 12.6396L38.5352 14.8809C38.5319 14.9362 38.5124 14.9867 38.4766 15.0322C38.444 15.0811 38.3984 15.1234 38.3398 15.1592C38.2845 15.195 38.2178 15.2227 38.1396 15.2422C38.0648 15.2617 37.9867 15.2715 37.9053 15.2715C37.6709 15.2715 37.5439 15.195 37.5244 15.042C37.4561 14.4495 37.3796 13.8864 37.2949 13.3525C37.2135 12.8187 37.1289 12.3223 37.041 11.8633C36.9564 11.401 36.8734 10.9811 36.792 10.6035C36.7106 10.2259 36.6374 9.89714 36.5723 9.61719C36.5104 9.33724 36.4616 9.10938 36.4258 8.93359C36.3867 8.75781 36.3672 8.64388 36.3672 8.5918ZM37.9541 9.88086C37.9541 10.0924 37.9622 10.3024 37.9785 10.5107C37.9948 10.7158 38.0208 10.9388 38.0566 11.1797C38.0762 11.3262 38.1559 11.4092 38.2959 11.4287C38.3805 11.4482 38.4749 11.4678 38.5791 11.4873C38.6865 11.5036 38.776 11.5117 38.8477 11.5117C39.056 11.5117 39.2448 11.4808 39.4141 11.4189C39.5833 11.3571 39.7282 11.2692 39.8486 11.1553C39.9691 11.0381 40.0618 10.8997 40.127 10.7402C40.1921 10.5807 40.2246 10.4033 40.2246 10.208C40.2246 9.97038 40.1921 9.74902 40.127 9.54395C40.0618 9.33561 39.9723 9.15495 39.8584 9.00195C39.7477 8.84896 39.6159 8.72852 39.4629 8.64062C39.3132 8.55273 39.1504 8.50879 38.9746 8.50879C38.8216 8.50879 38.6816 8.54297 38.5547 8.61133C38.431 8.67643 38.3236 8.76921 38.2324 8.88965C38.1445 9.00684 38.0762 9.15007 38.0273 9.31934C37.9785 9.48861 37.9541 9.67578 37.9541 9.88086ZM44.5703 12.21C44.5475 11.777 44.5101 11.3783 44.458 11.0137C44.4092 10.6458 44.3571 10.3252 44.3018 10.0518C44.2497 9.77832 44.2025 9.55697 44.1602 9.3877C44.1211 9.21842 44.1016 9.11263 44.1016 9.07031C44.1016 9.00846 44.1243 8.94824 44.1699 8.88965C44.2188 8.83105 44.279 8.7806 44.3506 8.73828C44.4222 8.69271 44.4987 8.6569 44.5801 8.63086C44.6647 8.60482 44.7412 8.5918 44.8096 8.5918C44.8649 8.5918 44.9121 8.60156 44.9512 8.62109C44.9935 8.64062 45.0228 8.67318 45.0391 8.71875C45.0553 8.77409 45.07 8.83268 45.083 8.89453C45.0993 8.95312 45.1156 9.02474 45.1318 9.10938C45.1514 9.22982 45.1774 9.29004 45.21 9.29004C45.2458 9.29004 45.2865 9.23633 45.332 9.12891C45.3971 8.97917 45.4671 8.85547 45.542 8.75781C45.6169 8.66016 45.6966 8.58366 45.7812 8.52832C45.8691 8.46973 45.9587 8.42904 46.0498 8.40625C46.1442 8.38346 46.2419 8.37207 46.3428 8.37207C46.6488 8.37207 46.9076 8.49251 47.1191 8.7334C47.334 8.97428 47.5016 9.32259 47.6221 9.77832C47.6383 9.8304 47.653 9.86458 47.666 9.88086C47.679 9.89388 47.6937 9.90039 47.71 9.90039C47.7262 9.90039 47.7425 9.89388 47.7588 9.88086C47.7783 9.86458 47.7962 9.83366 47.8125 9.78809C47.8906 9.5765 47.9818 9.39746 48.0859 9.25098C48.1901 9.10124 48.2975 8.98079 48.4082 8.88965C48.5221 8.79525 48.6377 8.72689 48.7549 8.68457C48.8721 8.64225 48.9844 8.62109 49.0918 8.62109C49.2904 8.62109 49.4694 8.69434 49.6289 8.84082C49.7917 8.98405 49.9349 9.20703 50.0586 9.50977C50.1855 9.80924 50.2946 10.1901 50.3857 10.6523C50.4801 11.1113 50.5583 11.6566 50.6201 12.2881C50.6201 12.4639 50.5664 12.5859 50.459 12.6543C50.3516 12.7259 50.2051 12.7617 50.0195 12.7617C49.8991 12.7617 49.8047 12.7357 49.7363 12.6836C49.668 12.6315 49.6289 12.5632 49.6191 12.4785C49.5768 12.026 49.5296 11.624 49.4775 11.2725C49.4287 10.9176 49.375 10.6198 49.3164 10.3789C49.2578 10.1348 49.1927 9.94922 49.1211 9.82227C49.0527 9.69531 48.9762 9.63184 48.8916 9.63184C48.8493 9.63184 48.7956 9.66276 48.7305 9.72461C48.6686 9.78646 48.6019 9.90039 48.5303 10.0664C48.4587 10.2292 48.3838 10.4538 48.3057 10.7402C48.2275 11.0234 48.1527 11.3864 48.0811 11.8291C48.0615 11.9528 48.0013 12.0472 47.9004 12.1123C47.8027 12.1774 47.6823 12.21 47.5391 12.21C47.373 12.21 47.2575 12.1839 47.1924 12.1318C47.1305 12.0798 47.0964 11.9919 47.0898 11.8682C47.0768 11.6533 47.054 11.4401 47.0215 11.2285C46.9922 11.0137 46.9548 10.8102 46.9092 10.6182C46.8636 10.4229 46.8132 10.2438 46.7578 10.0811C46.7025 9.91504 46.6439 9.77181 46.582 9.65137C46.5202 9.52767 46.4567 9.43164 46.3916 9.36328C46.3265 9.29492 46.263 9.26074 46.2012 9.26074C46.1198 9.26074 46.04 9.31771 45.9619 9.43164C45.887 9.54557 45.8187 9.70671 45.7568 9.91504C45.6982 10.1234 45.651 10.374 45.6152 10.667C45.5794 10.96 45.5615 11.2871 45.5615 11.6484C45.5615 11.7103 45.5632 11.7721 45.5664 11.834C45.5697 11.8926 45.5713 11.9544 45.5713 12.0195C45.5713 12.1172 45.555 12.1969 45.5225 12.2588C45.4932 12.3206 45.4492 12.3695 45.3906 12.4053C45.3353 12.4411 45.2702 12.4655 45.1953 12.4785C45.1204 12.4915 45.0391 12.498 44.9512 12.498C44.8698 12.498 44.8047 12.4915 44.7559 12.4785C44.707 12.4688 44.6696 12.4525 44.6436 12.4297C44.6175 12.4069 44.5996 12.376 44.5898 12.3369C44.5801 12.3011 44.5736 12.2588 44.5703 12.21ZM54.3018 7.73242C54.4808 7.73242 54.6533 7.76009 54.8193 7.81543C54.9854 7.87077 55.1318 7.94727 55.2588 8.04492C55.3857 8.14258 55.4867 8.25977 55.5615 8.39648C55.6396 8.5332 55.6787 8.68457 55.6787 8.85059C55.6787 8.91895 55.6624 8.98568 55.6299 9.05078C55.6006 9.11263 55.5599 9.16797 55.5078 9.2168C55.4557 9.26237 55.3955 9.2998 55.3271 9.3291C55.262 9.35514 55.1937 9.36816 55.1221 9.36816C55.1156 9.36816 55.109 9.36979 55.1025 9.37305C55.0993 9.37305 55.0944 9.37305 55.0879 9.37305C55.0814 9.3763 55.0749 9.37793 55.0684 9.37793L55.0879 9.76855C55.1009 10.234 55.166 10.5742 55.2832 10.7891C55.4036 11.0039 55.5599 11.1113 55.752 11.1113C55.8203 11.1113 55.8805 11.1048 55.9326 11.0918C55.988 11.0788 56.0384 11.0641 56.084 11.0479C56.1328 11.0283 56.1784 11.012 56.2207 10.999C56.263 10.986 56.3053 10.9795 56.3477 10.9795C56.4225 10.9795 56.4876 11.012 56.543 11.0771C56.6016 11.1423 56.6309 11.2204 56.6309 11.3115C56.6309 11.4027 56.5951 11.4938 56.5234 11.585C56.4551 11.6761 56.3639 11.7591 56.25 11.834C56.1361 11.9056 56.0075 11.9642 55.8643 12.0098C55.721 12.0553 55.5762 12.0781 55.4297 12.0781C55.1758 12.0781 54.9528 11.974 54.7607 11.7656C54.5687 11.554 54.432 11.2448 54.3506 10.8379C54.3311 10.7728 54.305 10.7402 54.2725 10.7402C54.2334 10.7402 54.1992 10.7598 54.1699 10.7988C53.8477 11.2057 53.5042 11.5117 53.1396 11.7168C52.7751 11.9186 52.4154 12.0195 52.0605 12.0195C51.8945 12.0195 51.7448 11.9951 51.6113 11.9463C51.4779 11.8975 51.3639 11.8291 51.2695 11.7412C51.1784 11.6501 51.1068 11.541 51.0547 11.4141C51.0059 11.2839 50.9814 11.139 50.9814 10.9795C50.9814 10.7549 51.0303 10.5189 51.1279 10.2715C51.2288 10.0241 51.3639 9.77995 51.5332 9.53906C51.7025 9.29818 51.8978 9.06868 52.1191 8.85059C52.3438 8.63249 52.5781 8.44043 52.8223 8.27441C53.0697 8.1084 53.3203 7.97656 53.5742 7.87891C53.8281 7.78125 54.0706 7.73242 54.3018 7.73242ZM54.1406 9.42188C54.1992 9.3112 54.2529 9.23145 54.3018 9.18262C54.3506 9.13053 54.4206 9.09635 54.5117 9.08008C54.5833 9.07031 54.6191 9.04753 54.6191 9.01172C54.6191 8.98568 54.6094 8.95801 54.5898 8.92871C54.528 8.84408 54.4629 8.77083 54.3945 8.70898C54.3262 8.64388 54.235 8.61133 54.1211 8.61133C53.9974 8.61133 53.859 8.64714 53.7061 8.71875C53.5531 8.79036 53.3968 8.88639 53.2373 9.00684C53.0811 9.12402 52.9264 9.25911 52.7734 9.41211C52.6237 9.56185 52.4902 9.71647 52.373 9.87598C52.2559 10.0355 52.1615 10.1934 52.0898 10.3496C52.0182 10.5059 51.9824 10.6458 51.9824 10.7695C51.9824 10.8802 52.0117 10.9665 52.0703 11.0283C52.1322 11.0902 52.2152 11.1211 52.3193 11.1211C52.5863 11.1211 52.8776 10.9795 53.1934 10.6963C53.5091 10.4131 53.8249 9.98828 54.1406 9.42188ZM56.9287 7.87891C56.8864 7.81055 56.8587 7.75358 56.8457 7.70801C56.8327 7.65918 56.8262 7.62012 56.8262 7.59082C56.8262 7.53548 56.8506 7.47852 56.8994 7.41992C56.9482 7.36133 57.0085 7.30924 57.0801 7.26367C57.1517 7.21484 57.2282 7.17578 57.3096 7.14648C57.391 7.11393 57.4626 7.09766 57.5244 7.09766C57.5602 7.09766 57.5977 7.1123 57.6367 7.1416C57.679 7.16764 57.736 7.23763 57.8076 7.35156C57.9215 7.53711 58.0404 7.72917 58.1641 7.92773C58.291 8.1263 58.4245 8.3265 58.5645 8.52832C58.6198 8.60319 58.6768 8.64062 58.7354 8.64062C58.8005 8.64062 58.8607 8.60645 58.916 8.53809C59.1374 8.29395 59.3604 8.06771 59.585 7.85938C59.8096 7.65104 60.0342 7.48177 60.2588 7.35156C60.3955 7.27018 60.5078 7.21647 60.5957 7.19043C60.6836 7.16439 60.7471 7.15137 60.7861 7.15137C60.848 7.15137 60.9115 7.1709 60.9766 7.20996C61.0417 7.24902 61.1003 7.29785 61.1523 7.35645C61.2077 7.41178 61.2516 7.47038 61.2842 7.53223C61.32 7.59408 61.3379 7.64941 61.3379 7.69824C61.3379 7.77311 61.2907 7.84635 61.1963 7.91797C61.1051 7.98958 60.9717 8.07747 60.7959 8.18164C60.5518 8.33138 60.319 8.50716 60.0977 8.70898C59.8796 8.91081 59.6696 9.12402 59.4678 9.34863C59.4352 9.38118 59.4124 9.41211 59.3994 9.44141C59.3896 9.4707 59.3848 9.5 59.3848 9.5293C59.3848 9.55534 59.3896 9.58301 59.3994 9.6123C59.4124 9.6416 59.432 9.6709 59.458 9.7002C59.5785 9.84017 59.6989 9.96875 59.8193 10.0859C59.9398 10.2031 60.0553 10.304 60.166 10.3887C60.2799 10.4701 60.389 10.5352 60.4932 10.584C60.6006 10.6296 60.7015 10.6523 60.7959 10.6523C60.8708 10.6523 60.9505 10.6426 61.0352 10.623C61.1198 10.6003 61.1963 10.5889 61.2646 10.5889C61.359 10.5889 61.4242 10.6182 61.46 10.6768C61.499 10.7321 61.5186 10.807 61.5186 10.9014C61.5186 11.0088 61.499 11.1048 61.46 11.1895C61.4209 11.2741 61.3672 11.3457 61.2988 11.4043C61.2337 11.4596 61.1556 11.5036 61.0645 11.5361C60.9733 11.5654 60.8773 11.5801 60.7764 11.5801C60.6201 11.5801 60.4606 11.5524 60.2979 11.4971C60.1351 11.4417 59.9723 11.3652 59.8096 11.2676C59.6468 11.1699 59.4857 11.056 59.3262 10.9258C59.1667 10.7923 59.0104 10.6475 58.8574 10.4912C58.7988 10.4294 58.7386 10.3984 58.6768 10.3984C58.6117 10.3984 58.5514 10.4326 58.4961 10.501C58.3431 10.6898 58.195 10.8672 58.0518 11.0332C57.9118 11.1992 57.7751 11.3441 57.6416 11.4678C57.5114 11.5915 57.3844 11.6891 57.2607 11.7607C57.1403 11.8324 57.0215 11.8682 56.9043 11.8682C56.8197 11.8682 56.7448 11.8519 56.6797 11.8193C56.6178 11.7835 56.5658 11.7412 56.5234 11.6924C56.4811 11.6436 56.4486 11.5931 56.4258 11.541C56.4062 11.4889 56.3965 11.445 56.3965 11.4092C56.3965 11.3636 56.4128 11.3213 56.4453 11.2822C56.4779 11.2399 56.5251 11.1943 56.5869 11.1455C56.6488 11.0934 56.7204 11.0316 56.8018 10.96C56.8864 10.8883 56.9808 10.7988 57.085 10.6914C57.1989 10.5775 57.3242 10.4375 57.4609 10.2715C57.5977 10.1022 57.7458 9.92155 57.9053 9.72949C57.9215 9.70996 57.9346 9.6888 57.9443 9.66602C57.9541 9.63997 57.959 9.61393 57.959 9.58789C57.959 9.49674 57.9085 9.38118 57.8076 9.24121C57.6058 8.96452 57.43 8.70573 57.2803 8.46484C57.1305 8.2207 57.0133 8.02539 56.9287 7.87891Z" fill="#1E1E1E"/>
<path d="M10.0876 85.4114C20.7866 85.4114 63.6023 85.4114 74.3013 85.4114" stroke="#1E1E1E" stroke-width="2" stroke-linecap="round"/>
<path d="M39.7054 34.5969C39.8709 31.8862 39.7151 29.2228 39.5886 27.2324ZM39.7054 34.5969C39.6275 32.6823 39.5788 30.5971 39.5886 27.2324Z" stroke="#1E1E1E" stroke-linecap="round"/>
<path d="M40.8931 30.6919C40.5037 29.4218 39.9585 28.1707 39.5886 27.2324ZM40.8931 30.6919C40.5134 29.801 40.1532 28.8152 39.5886 27.2324Z" stroke="#1E1E1E" stroke-linecap="round"/>
<path d="M38.3035 30.6919C38.8974 29.4218 39.3257 28.1707 39.5886 27.2324ZM38.3035 30.6919C38.6248 29.7915 38.9655 28.8152 39.5886 27.2324Z" stroke="#1E1E1E" stroke-linecap="round"/>
<path d="M18.0264 56.1017C19.6327 54.5283 26.1066 48.0546 27.7422 46.3486M17.3839 55.5709C18.9415 53.8743 25.8243 47.0405 27.5475 45.4766" stroke="#1E1E1E" stroke-linecap="round"/>
<path d="M27.4545 45.554C29.4405 44.1417 37.2482 39.1372 39.2342 37.7629M26.9483 46.5492C29.0803 45.2222 37.9394 38.5116 40.1882 37.0615" stroke="#1E1E1E" stroke-linecap="round"/>
<path d="M39.316 37.3262C41.1851 38.8238 49.392 44.7003 51.3098 45.9799M40.0851 36.8618C41.8666 38.2551 48.9733 43.9041 50.9301 45.3259" stroke="#1E1E1E" stroke-linecap="round"/>
<path d="M50.9187 44.8583C52.3887 46.8488 57.8696 55.4076 59.3591 57.5402M50.2372 45.7209C51.9019 47.5407 58.7847 54.8674 60.3326 56.7156" stroke="#1E1E1E" stroke-linecap="round"/>
<path d="M50.3756 45.1218C49.4994 46.9416 45.5664 54.4294 44.6513 56.4104M49.8694 44.6479C48.9543 46.5056 45.1965 55.0076 44.33 56.9317" stroke="#1E1E1E" stroke-linecap="round"/>
<path d="M26.9989 45.3133C27.914 47.171 32.0904 54.6873 33.2781 56.4976M27.7583 44.8299C28.8097 46.7729 33.2197 55.1706 34.2517 57.1137" stroke="#1E1E1E" stroke-linecap="round"/>
<path d="M39.9649 34.9012C40.6172 34.9485 41.4252 35.176 41.9704 35.6689C42.5253 36.1618 43.236 37.1285 43.2652 37.8489C43.3041 38.5692 42.6908 39.4128 42.1651 40.0004C41.6296 40.5881 40.734 41.261 40.0915 41.3937C39.4587 41.517 38.9622 41.0999 38.3391 40.7682C37.7258 40.4364 36.7718 40.0668 36.3823 39.4128C35.9929 38.7493 35.769 37.5551 36.0124 36.8347C36.2558 36.1049 37.1514 35.4414 37.8426 35.0623C38.5338 34.6926 39.7507 34.5978 40.1499 34.5789C40.549 34.5599 40.2472 34.8443 40.2375 34.958M39.6242 34.3325C40.2667 34.3893 41.2597 34.9296 41.873 35.4319C42.4961 35.9438 43.2165 36.5219 43.3431 37.356C43.4696 38.1806 43.0802 39.8014 42.6324 40.389C42.1943 40.9862 41.4641 40.7397 40.7048 40.8914C39.9455 41.043 38.7383 41.5738 38.086 41.3084C37.4338 41.043 37.1028 39.9625 36.7815 39.2801C36.4602 38.5977 35.9929 37.8584 36.1487 37.1949C36.3142 36.5409 37.1417 35.8111 37.755 35.3466C38.3683 34.8727 39.5171 34.4272 39.8286 34.3798C40.1499 34.3325 39.6145 35.0244 39.6729 35.0528" fill="white"/>
<path d="M40.3349 34.7969C41.0261 34.8064 41.9023 35.0054 42.428 35.5078C42.944 36.0196 43.4405 37.0812 43.4697 37.8205C43.4891 38.5598 43.0705 39.4128 42.5643 39.9626C42.0581 40.5028 41.1916 40.9672 40.4323 41.1094C39.6729 41.2516 38.7189 41.0905 37.9985 40.8251C37.2683 40.5597 36.3629 40.209 36.0709 39.5266C35.7788 38.8441 35.9248 37.4413 36.2461 36.7494C36.5771 36.0575 37.3559 35.7637 38.0277 35.3751C38.6994 34.996 39.9358 34.541 40.2668 34.4367C40.6075 34.342 40.0623 34.6642 40.0331 34.7874M40.1305 34.3135C40.7925 34.1998 41.5031 34.8064 42.0094 35.3087C42.5059 35.8206 43.0511 36.6167 43.1095 37.3655C43.1679 38.1238 42.8077 39.1474 42.3501 39.8299C41.8828 40.5123 40.9482 41.2611 40.3252 41.4601C39.7119 41.6592 39.2154 41.3274 38.641 41.0431C38.0569 40.7682 37.2488 40.3512 36.8302 39.773C36.4213 39.2043 36.0319 38.4081 36.139 37.5835C36.2461 36.7494 36.8692 35.2803 37.4533 34.7969C38.0471 34.323 39.2446 34.7021 39.6729 34.6927C40.111 34.6832 40.0234 34.7306 40.0429 34.74" stroke="#1E1E1E" stroke-linecap="round"/>
<path d="M27.1435 42.1377C27.9224 42.0903 29.3826 42.6211 30.0252 43.0286C30.658 43.4457 30.8429 43.8911 30.9987 44.6304C31.1447 45.3603 31.281 46.782 30.9013 47.4265C30.5217 48.0805 29.4119 48.327 28.7207 48.5355C28.0294 48.7345 27.4551 48.9051 26.7639 48.6492C26.0629 48.3933 24.9726 47.5497 24.5637 46.9905C24.1548 46.4313 24.184 45.91 24.3008 45.2844C24.4274 44.6684 24.7973 43.7869 25.2938 43.2561C25.7806 42.7348 26.8612 42.3651 27.2604 42.1377C27.6498 41.9007 27.6011 41.7775 27.64 41.8723M27.1143 42.1472C27.8639 42.0998 28.9348 42.6116 29.626 42.9528C30.3172 43.3035 30.989 43.5689 31.2518 44.2324C31.5244 44.8958 31.466 46.2891 31.2129 46.9526C30.9598 47.6066 30.3659 47.9384 29.7234 48.1848C29.0906 48.4217 28.1463 48.5544 27.3869 48.4028C26.6178 48.2606 25.693 47.7204 25.1575 47.2938C24.6221 46.8673 24.2522 46.4882 24.1743 45.8342C24.0964 45.1802 24.184 44.0144 24.6805 43.3888C25.177 42.7632 26.6665 42.2514 27.1338 42.0713C27.6011 41.8912 27.533 42.223 27.4843 42.3083" fill="white"/>
<path d="M27.6984 42.422C28.448 42.4314 29.6844 42.7537 30.2199 43.2087C30.7456 43.6636 30.8721 44.4219 30.8819 45.1517C30.8916 45.8815 30.7261 47 30.2783 47.5876C29.8402 48.1753 28.8861 48.4975 28.2241 48.6586C27.5524 48.8198 26.9391 48.8482 26.2576 48.5449C25.5761 48.2321 24.5345 47.4833 24.1451 46.8104C23.7557 46.1374 23.6486 45.1801 23.9212 44.4977C24.1937 43.8058 25.0797 43.057 25.7903 42.6779C26.501 42.2893 27.8542 42.3272 28.1949 42.1945C28.5454 42.0618 27.8834 41.8438 27.8737 41.8817M27.2993 41.7111C27.9418 41.5784 28.7012 42.2134 29.2366 42.6779C29.772 43.1423 30.3075 43.8816 30.5217 44.5072C30.7358 45.1327 30.765 45.8247 30.5022 46.4502C30.2393 47.0758 29.6455 47.834 28.9543 48.2511C28.2631 48.6681 27.0364 49.1041 26.355 48.9525C25.6832 48.8103 25.2257 48.0046 24.8849 47.3886C24.5539 46.763 24.33 45.9479 24.3203 45.237C24.3106 44.5167 24.3592 43.6257 24.8363 43.1139C25.323 42.6021 26.832 42.2987 27.2214 42.1566C27.6011 42.0049 27.2117 42.2419 27.1533 42.2419" stroke="#1E1E1E" stroke-linecap="round"/>
<path d="M50.8239 42.0542C51.554 42.0827 52.9267 42.2248 53.4329 42.7746C53.9392 43.3243 53.9002 44.6133 53.8418 45.3621C53.7931 46.1109 53.6276 46.708 53.1311 47.2672C52.6346 47.8265 51.5443 48.5563 50.8628 48.7079C50.1911 48.8691 49.6459 48.6511 49.091 48.2245C48.5361 47.8075 47.8449 46.8597 47.5334 46.1867C47.2121 45.5138 47.0661 44.8503 47.2024 44.1868C47.3387 43.5328 47.6697 42.6798 48.3609 42.2343C49.0423 41.7888 50.892 41.5898 51.3496 41.5045C51.7974 41.4192 51.1062 41.6182 51.0575 41.7225M50.6584 42.149C51.3496 42.1774 52.7125 42.6798 53.2188 43.2106C53.7153 43.7508 53.725 44.6513 53.6666 45.3526C53.6179 46.054 53.3259 46.8976 52.878 47.4379C52.4399 47.9686 51.5832 48.4805 50.9991 48.5752C50.4053 48.6795 49.9672 48.3383 49.3733 48.035C48.7795 47.7222 47.806 47.2767 47.4166 46.727C47.0271 46.1772 46.8422 45.5043 47.0369 44.7366C47.2413 43.9688 47.9423 42.6419 48.5945 42.1395C49.2468 41.6372 50.5902 41.713 50.9505 41.7414C51.3107 41.7699 50.785 42.168 50.746 42.3101" fill="white"/>
<path d="M50.7168 41.6372C51.4275 41.6466 52.5568 41.9594 53.0728 42.5281C53.5985 43.0968 53.7834 44.329 53.8224 45.0588C53.8613 45.7791 53.7348 46.3668 53.3064 46.8881C52.8781 47.4189 52.0019 47.9402 51.2717 48.2056C50.5319 48.471 49.5583 48.7079 48.8963 48.4804C48.2246 48.2624 47.5723 47.5895 47.2803 46.8786C46.998 46.1678 47.0369 44.9071 47.1829 44.2058C47.329 43.4949 47.5529 43.0779 48.1662 42.6324C48.7698 42.1964 50.3372 41.6656 50.8142 41.5519C51.2912 41.4286 50.9894 41.8836 51.0089 41.931M50.2301 41.495C50.8629 41.4286 51.5735 41.7888 52.1382 42.1964C52.6931 42.5945 53.3161 43.1442 53.5887 43.9025C53.8613 44.6607 54.0852 45.9782 53.7737 46.7554C53.4719 47.5231 52.4692 48.2624 51.7488 48.5278C51.0284 48.7837 50.1425 48.5278 49.4318 48.3098C48.7308 48.0824 47.9228 47.7696 47.5237 47.2009C47.1245 46.6227 46.9396 45.6559 47.0272 44.8692C47.1245 44.0731 47.6015 43.021 48.0786 42.4333C48.5556 41.8457 49.5973 41.4571 49.8991 41.3528C50.1911 41.2391 49.8309 41.6087 49.8601 41.7604" stroke="#1E1E1E" stroke-linecap="round"/>
<path d="M19.0569 53.9248C19.787 53.9627 20.3517 54.2376 20.8287 54.8537C21.296 55.4698 21.8704 56.7777 21.8996 57.6118C21.919 58.4459 21.5102 59.3084 20.9553 59.8392C20.4003 60.3605 19.3197 60.7302 18.5896 60.7681C17.8594 60.806 17.1877 60.37 16.5647 60.0477C15.9513 59.735 15.2115 59.498 14.8805 58.863C14.5495 58.2184 14.3548 56.9389 14.5787 56.2185C14.8123 55.4887 15.5327 54.8537 16.2434 54.5219C16.9541 54.1807 18.3559 54.2281 18.8427 54.2091C19.3197 54.1807 19.1737 54.2945 19.1445 54.3608M18.9498 53.5362C19.641 53.5362 20.4782 53.9343 20.9553 54.5883C21.4323 55.2328 21.812 56.6261 21.7925 57.4317C21.773 58.2469 21.2668 58.8914 20.8384 59.4222C20.4198 59.953 19.8552 60.4079 19.2516 60.5975C18.648 60.787 17.9471 60.8439 17.1975 60.5785C16.4576 60.3037 15.192 59.6591 14.7928 58.9672C14.384 58.2848 14.4521 57.1948 14.7636 56.4555C15.0752 55.7257 15.9416 54.9105 16.6425 54.5598C17.3435 54.2091 18.6188 54.3892 18.9498 54.3418C19.2808 54.2945 18.6967 54.3324 18.648 54.266" fill="white"/>
<path d="M18.5896 53.9247C19.31 53.9342 19.8941 54.2944 20.3614 54.7778C20.8287 55.2707 21.2473 56.1332 21.4031 56.8725C21.5686 57.6118 21.6562 58.588 21.335 59.2231C21.0137 59.8676 20.2251 60.5595 19.456 60.7206C18.687 60.8818 17.3922 60.5121 16.701 60.1993C16.0098 59.8866 15.6788 59.4506 15.3186 58.8629C14.9584 58.2753 14.4035 57.3559 14.5495 56.6734C14.6858 55.991 15.5717 55.2233 16.1753 54.7493C16.7886 54.2849 17.7913 53.9911 18.1807 53.8394C18.5701 53.6783 18.4923 53.7541 18.5312 53.8015M17.2948 54.1238C18.0444 54.01 19.4268 53.9627 20.1765 54.3228C20.9261 54.6735 21.5978 55.5266 21.7828 56.2374C21.9677 56.9483 21.5881 57.9056 21.2765 58.5975C20.965 59.2989 20.5464 60.0666 19.9136 60.4268C19.2808 60.787 18.2683 60.9671 17.4603 60.7491C16.662 60.5405 15.6398 59.7918 15.1044 59.1472C14.569 58.5027 14.1893 57.5928 14.2574 56.882C14.3256 56.1806 14.9194 55.4792 15.523 54.92C16.1169 54.3607 17.4798 53.6214 17.8595 53.5456C18.2391 53.4793 17.7621 54.3607 17.8011 54.4934" stroke="#1E1E1E" stroke-linecap="round"/>
<path d="M33.8832 53.9191C34.6912 53.7959 35.6258 53.9191 36.171 54.3836C36.7162 54.8575 37.0958 55.9664 37.1348 56.7152C37.1835 57.464 36.7454 58.317 36.4241 58.8857C36.1028 59.4639 35.8595 59.9094 35.2072 60.1463C34.5549 60.3833 33.2309 60.5065 32.4911 60.3264C31.7414 60.1369 31.0892 59.5776 30.7387 59.0184C30.3882 58.4687 30.2422 57.7199 30.3882 56.9806C30.5343 56.2413 31.0405 55.085 31.6246 54.5921C32.2185 54.0992 33.523 54.1656 33.9319 54.0139C34.331 53.8717 34.039 53.7485 34.0487 53.7296M34.3992 53.6537C35.1975 53.6822 35.8303 54.3836 36.2781 55.0186C36.7259 55.6631 37.0277 56.81 37.0861 57.4735C37.1348 58.1464 37.0082 58.5161 36.6091 59.0279C36.2002 59.5397 35.4116 60.2316 34.662 60.5255C33.9027 60.8193 32.7831 61.0278 32.0822 60.7909C31.3812 60.5634 30.6706 59.8336 30.4272 59.1227C30.1935 58.4023 30.4175 57.246 30.6608 56.5067C30.914 55.7579 31.4299 55.085 31.9167 54.649C32.4132 54.213 33.3186 53.9855 33.6204 53.8812C33.9319 53.7864 33.6496 53.9097 33.7469 54.0424" fill="white"/>
<path d="M33.1044 54.0992C33.8248 54.0613 34.8568 54.3172 35.5285 54.6584C36.1905 55.0091 36.9109 55.4641 37.0861 56.1654C37.2614 56.8574 36.8914 58.1843 36.5799 58.8383C36.2684 59.4828 35.8205 59.7577 35.2267 60.061C34.6231 60.3643 33.6788 60.8287 32.9778 60.6581C32.2769 60.4875 31.4884 59.644 30.9919 59.0563C30.4954 58.4687 30.0475 57.8147 30.0183 57.1322C29.9891 56.4498 30.3201 55.5494 30.8361 54.9617C31.3521 54.3835 32.7053 53.8338 33.1044 53.6253C33.5036 53.4262 33.2407 53.6442 33.231 53.758M33.6788 53.7106C34.4089 53.6632 35.3532 54.3172 35.9276 54.829C36.5117 55.3503 37.0374 56.1654 37.1543 56.8194C37.2808 57.4734 37.1348 58.2222 36.6772 58.772C36.2197 59.3122 35.1975 59.824 34.4187 60.08C33.6398 60.3453 32.6566 60.516 31.9849 60.3359C31.3131 60.1558 30.7679 59.606 30.4077 58.99C30.0378 58.3644 29.5218 57.2934 29.7749 56.6109C30.0281 55.9285 31.2742 55.3882 31.9459 54.8859C32.6176 54.3835 33.4257 53.6727 33.7956 53.5874C34.1655 53.5115 34.2045 54.3361 34.1655 54.4025" stroke="#1E1E1E" stroke-linecap="round"/>
<path d="M46.0349 53.0566C46.7845 53.1609 47.5731 54.1656 48.0014 54.7627C48.4298 55.3504 48.5953 55.9191 48.5953 56.6205C48.5856 57.3124 48.3811 58.3265 47.9625 58.9237C47.5439 59.5303 46.7553 60.0705 46.0933 60.2411C45.4313 60.4117 44.6525 60.298 43.9808 59.9568C43.3091 59.6156 42.3258 58.8668 42.0435 58.1938C41.7514 57.5209 42.0337 56.592 42.2576 55.9096C42.4816 55.2366 42.8126 54.5068 43.3869 54.1087C43.9613 53.7201 45.3145 53.6538 45.7234 53.559C46.1323 53.4642 45.7721 53.5211 45.85 53.5211M46.0057 53.4168C46.6482 53.4263 47.0377 53.8623 47.5147 54.3267C47.982 54.7912 48.605 55.4925 48.8289 56.1939C49.0529 56.8858 49.1502 57.8052 48.8387 58.4877C48.5271 59.1796 47.7191 60.0516 46.95 60.317C46.1907 60.5824 45.003 60.4971 44.2631 60.099C43.5232 59.7009 42.9002 58.6583 42.5205 57.9379C42.1408 57.2081 41.8488 56.3645 41.9851 55.7485C42.1311 55.1324 42.686 54.6111 43.3577 54.2319C44.0197 53.8433 45.6552 53.54 46.0057 53.4452C46.3659 53.341 45.4995 53.5685 45.4898 53.6159" fill="white"/>
<path d="M45.2464 53.0093C45.9571 52.9335 47.3005 53.5021 47.8652 54.0329C48.4201 54.5542 48.4882 55.4167 48.5953 56.1561C48.7122 56.8954 48.9069 57.8811 48.5369 58.4877C48.167 59.0848 47.0864 59.5587 46.3854 59.7578C45.6748 59.9568 44.9543 59.9379 44.2924 59.6914C43.6304 59.445 42.8515 58.8953 42.4134 58.2887C41.9851 57.682 41.6054 56.7816 41.693 56.0423C41.7709 55.3125 42.2772 54.3078 42.9197 53.8623C43.5525 53.4168 45.1004 53.4358 45.5093 53.3789C45.9084 53.3315 45.3924 53.5116 45.3632 53.5401M45.3243 53.36C45.9668 53.2368 46.7456 53.3505 47.2616 53.7391C47.7678 54.1277 48.2059 54.9428 48.3909 55.6821C48.5856 56.4214 48.6537 57.5494 48.3909 58.1749C48.128 58.8005 47.4952 59.0659 46.8235 59.4355C46.1518 59.7957 45.042 60.535 44.3605 60.3739C43.679 60.2222 43.1923 59.1417 42.7444 58.5067C42.2869 57.8716 41.5275 57.3503 41.6638 56.592C41.8001 55.8338 42.9976 54.431 43.5622 53.9571C44.1366 53.4737 44.8278 53.8339 45.1004 53.7296C45.3632 53.6254 45.2075 53.3031 45.1685 53.341" stroke="#1E1E1E" stroke-linecap="round"/>
<path d="M58.9768 53.032C59.6485 53.032 60.7291 53.4301 61.3424 53.9609C61.9655 54.4917 62.5107 55.5059 62.6859 56.2073C62.8611 56.9086 62.7443 57.5342 62.3938 58.1598C62.0434 58.7853 61.2743 59.7047 60.5734 59.9417C59.8822 60.1881 58.9281 59.9512 58.2369 59.6384C57.536 59.3256 56.7863 58.7 56.3872 58.065C55.9783 57.4394 55.7349 56.4632 55.8128 55.8376C55.881 55.2026 56.3288 54.7192 56.8448 54.2926C57.351 53.8566 58.4997 53.4491 58.8892 53.269C59.2786 53.0889 59.0936 53.1647 59.1812 53.2216M58.7237 53.6671C59.3954 53.6481 60.3689 53.9135 61.0504 54.2832C61.7319 54.6528 62.5886 55.2405 62.8222 55.9039C63.0558 56.5674 62.9098 57.629 62.462 58.264C62.0142 58.8991 60.9044 59.4204 60.145 59.7142C59.3759 59.9985 58.4997 60.1123 57.8767 59.9985C57.2536 59.8753 56.7571 59.6384 56.3969 59.0128C56.0367 58.3872 55.6376 56.9939 55.7155 56.2546C55.7933 55.5248 56.3191 55.0604 56.8448 54.6149C57.3607 54.1694 58.5095 53.8093 58.8502 53.5913C59.2007 53.3827 58.9184 53.3638 58.9281 53.3448" fill="white"/>
<path d="M59.6096 53.2975C60.3494 53.3354 61.2938 53.4965 61.7611 54.0273C62.2284 54.5581 62.4425 55.7049 62.4133 56.4822C62.3841 57.2594 62.0531 58.1598 61.5858 58.6906C61.1283 59.2214 60.3494 59.5626 59.6388 59.6858C58.9184 59.809 57.9935 59.7237 57.3121 59.4488C56.6306 59.1645 55.7934 58.6622 55.5402 57.9987C55.2969 57.3352 55.5013 56.1883 55.8031 55.468C56.1049 54.7476 56.7474 54.0463 57.351 53.6671C57.9643 53.2785 59.0741 53.2406 59.4635 53.1837C59.8432 53.1269 59.6485 53.2596 59.6582 53.3259M58.3245 53.1363C59.0547 53.1079 60.2424 53.4681 60.8459 53.9041C61.4495 54.3306 61.654 54.9751 61.9655 55.7049C62.277 56.4442 62.9293 57.6764 62.7054 58.283C62.4815 58.8991 61.3035 59.0413 60.622 59.392C59.9406 59.7427 59.3857 60.5578 58.6166 60.3872C57.8475 60.2261 56.4651 59.1076 56.027 58.4157C55.5889 57.7333 55.9296 57.0224 56.0075 56.2452C56.0854 55.4775 55.9978 54.2263 56.4943 53.7903C56.9908 53.3543 58.6068 53.6292 58.9865 53.6197C59.3662 53.6103 58.8892 53.724 58.7821 53.724" stroke="#1E1E1E" stroke-linecap="round"/>
<path d="M19.6631 56.352V57.0103H16.9821V56.352H19.6631Z" fill="#1E1E1E"/>
<path d="M40.1236 39.7276V35.778H40.7938V39.7276H40.1236ZM38.4839 38.0879V37.4177H42.4335V38.0879H38.4839Z" fill="#1E1E1E"/>
<path d="M34.7496 56.1907V56.849H32.0686V56.1907H34.7496Z" fill="#1E1E1E"/>
<path d="M46.8308 56.1432V56.8015H44.1498V56.1432H46.8308Z" fill="#1E1E1E"/>
<path d="M60.1836 55.1431V55.8014H57.5026V55.1431H60.1836Z" fill="#1E1E1E"/>
<path d="M27.4624 46.4413C27.2304 46.4413 27.0186 46.3847 26.8269 46.2715C26.637 46.1582 26.4854 46.0067 26.3722 45.8168C26.259 45.625 26.2024 45.4132 26.2024 45.1813C26.2024 44.9494 26.259 44.7385 26.3722 44.5486C26.4854 44.3568 26.637 44.2044 26.8269 44.0912C27.0186 43.9779 27.2304 43.9213 27.4624 43.9213C27.6943 43.9213 27.9052 43.9779 28.0951 44.0912C28.2868 44.2044 28.4393 44.3568 28.5525 44.5486C28.6657 44.7385 28.7223 44.9494 28.7223 45.1813C28.7223 45.4132 28.6657 45.625 28.5525 45.8168C28.4393 46.0067 28.2868 46.1582 28.0951 46.2715C27.9052 46.3847 27.6943 46.4413 27.4624 46.4413ZM27.4624 45.8935C27.5938 45.8935 27.7134 45.8615 27.8212 45.7976C27.9289 45.7337 28.0147 45.6479 28.0786 45.5401C28.1426 45.4324 28.1745 45.3128 28.1745 45.1813C28.1745 45.0498 28.1426 44.9302 28.0786 44.8225C28.0147 44.7147 27.9289 44.6289 27.8212 44.565C27.7134 44.5011 27.5938 44.4691 27.4624 44.4691C27.3309 44.4691 27.2113 44.5011 27.1035 44.565C26.9958 44.6289 26.91 44.7147 26.8461 44.8225C26.7822 44.9302 26.7502 45.0498 26.7502 45.1813C26.7502 45.3128 26.7822 45.4324 26.8461 45.5401C26.91 45.6479 26.9958 45.7337 27.1035 45.7976C27.2113 45.8615 27.3309 45.8935 27.4624 45.8935Z" fill="#1E1E1E"/>
<path d="M50.7235 46.1302C50.4916 46.1302 50.2798 46.0736 50.0881 45.9604C49.8982 45.8472 49.7466 45.6956 49.6334 45.5057C49.5202 45.314 49.4636 45.1022 49.4636 44.8703C49.4636 44.6384 49.5202 44.4275 49.6334 44.2375C49.7466 44.0458 49.8982 43.8933 50.0881 43.7801C50.2798 43.6669 50.4916 43.6103 50.7235 43.6103C50.9554 43.6103 51.1663 43.6669 51.3562 43.7801C51.548 43.8933 51.7005 44.0458 51.8137 44.2375C51.9269 44.4275 51.9835 44.6384 51.9835 44.8703C51.9835 45.1022 51.9269 45.314 51.8137 45.5057C51.7005 45.6956 51.548 45.8472 51.3562 45.9604C51.1663 46.0736 50.9554 46.1302 50.7235 46.1302ZM50.7235 45.5824C50.855 45.5824 50.9746 45.5505 51.0823 45.4866C51.1901 45.4226 51.2759 45.3368 51.3398 45.2291C51.4037 45.1213 51.4357 45.0017 51.4357 44.8703C51.4357 44.7388 51.4037 44.6192 51.3398 44.5115C51.2759 44.4037 51.1901 44.3179 51.0823 44.254C50.9746 44.1901 50.855 44.1581 50.7235 44.1581C50.592 44.1581 50.4724 44.1901 50.3647 44.254C50.257 44.3179 50.1711 44.4037 50.1072 44.5115C50.0433 44.6192 50.0114 44.7388 50.0114 44.8703C50.0114 45.0017 50.0433 45.1213 50.1072 45.2291C50.1711 45.3368 50.257 45.4226 50.3647 45.4866C50.4724 45.5505 50.592 45.5824 50.7235 45.5824Z" fill="#1E1E1E"/>
</svg>
