<svg width="84" height="118" viewBox="0 0 84 118" fill="none" xmlns="http://www.w3.org/2000/svg">
<path d="M22.1846 1.80131C37.5881 0.533505 52.1221 -1.52316 62.1013 1.80131C74.0466 1.62288 82.1288 9.27668 82.0596 20.7715C80.5281 37.1778 78.3051 60.2519 82.0596 97.3564C82.0695 106.626 77.5443 117.754 62.1013 116.327C50.4523 114.448 36.4025 117.463 22.1846 116.327C9.44886 119.135 5.39791 113.228 2.22632 97.3564C2.54249 65.126 5.04222 36.9994 2.22632 20.7715C2.72034 6.59081 11.9585 2.53382 22.1846 1.80131Z" fill="white"/>
<path d="M22.1847 1.8013C31.6204 0.805837 41.975 1.91399 62.1013 1.8013M22.1847 1.8013C32.9049 1.40687 41.8169 1.33174 62.1013 1.8013M22.1847 1.8013C8.52015 0.195411 3.39225 9.78379 2.22636 20.7715M22.1847 1.8013C10.2492 1.25661 0.447901 8.22486 2.22636 20.7715M62.1013 1.8013C73.9676 0.373843 80.1923 7.89617 82.0596 20.7715M62.1013 1.8013C76.0919 2.24269 82.5833 8.26242 82.0596 20.7715M82.0596 20.7715C83.1959 47.7335 81.8126 71.3147 82.0596 97.3564M82.0596 20.7715C80.9432 36.3045 80.6863 51.2928 82.0596 97.3564M82.0596 97.3564C80.953 109.856 77.3665 117.435 62.1013 116.327M82.0596 97.3564C83.8875 109.387 73.3748 116.552 62.1013 116.327M62.1013 116.327C49.1877 114.702 39.5049 114.514 22.1847 116.327M62.1013 116.327C50.7883 116.655 39.831 116.308 22.1847 116.327M22.1847 116.327C8.05578 115.021 0.635628 110.382 2.22636 97.3564M22.1847 116.327C11.0298 116.092 0.556585 109.912 2.22636 97.3564M2.22636 97.3564C2.36469 73.0615 0.556585 52.9644 2.22636 20.7715M2.22636 97.3564C2.37457 80.5556 2.23625 65.5204 2.22636 20.7715" stroke="#1E1E1E" stroke-width="2" stroke-linecap="round"/>
<path d="M23.1256 1.60535C34.5868 1.60535 46.048 1.60535 59.0802 1.60535C61.5305 1.60535 62.7655 2.76985 62.7655 5.10825C62.7655 7.53117 62.7655 9.95409 62.7655 12.1047C62.7655 14.4337 61.5305 15.5982 59.0802 15.5982C47.6387 15.5982 36.1973 15.5982 23.1256 15.5982C20.6653 15.5982 19.4402 14.4337 19.4402 12.1047C19.4402 10.6209 19.4402 9.12767 19.4402 5.10825C19.4402 2.76985 20.6653 1.60535 23.1256 1.60535Z" fill="white"/>
<path d="M23.1256 1.60535C36.9679 1.60535 50.8103 1.60535 59.0802 1.60535M23.1256 1.60535C36.0194 1.60535 48.9232 1.60535 59.0802 1.60535M23.1256 1.60535C20.6653 1.60535 19.4402 2.76985 19.4402 5.10825M59.0802 1.60535C61.5305 1.60535 62.7655 2.76985 62.7655 5.10825M62.7655 5.10825C62.7655 6.59206 62.7655 8.07586 62.7655 12.1047M62.7655 5.10825C62.7655 7.07101 62.7655 9.03376 62.7655 12.1047M62.7655 12.1047C62.7655 14.4337 61.5305 15.5982 59.0802 15.5982M59.0802 15.5982C48.1821 15.5982 37.2742 15.5982 23.1256 15.5982M59.0802 15.5982C46.7396 15.5982 34.3892 15.5982 23.1256 15.5982M23.1256 15.5982C20.6653 15.5982 19.4402 14.4337 19.4402 12.1047M19.4402 12.1047C19.4402 10.6396 19.4402 9.18402 19.4402 5.10825M19.4402 12.1047C19.4402 9.47515 19.4402 6.85501 19.4402 5.10825" stroke="#1E1E1E" stroke-width="2" stroke-linecap="round"/>
<path d="M25.1078 7.15153C25.1078 7.11665 25.0998 7.06434 25.084 6.99459C25.0681 6.92483 25.0491 6.84557 25.0269 6.75679C25.0047 6.66485 24.9794 6.56814 24.9508 6.46668C24.9223 6.36206 24.8969 6.2606 24.8747 6.16231C24.8525 6.06402 24.8335 5.97208 24.8177 5.88647C24.8018 5.80086 24.7939 5.72953 24.7939 5.67246C24.7939 5.59953 24.8145 5.54088 24.8557 5.49649C24.8969 5.44893 24.9492 5.41247 25.0126 5.3871C25.0761 5.36174 25.1442 5.3443 25.2171 5.33479C25.2901 5.32528 25.3598 5.32052 25.4264 5.32052C25.5088 5.32052 25.5881 5.3443 25.6642 5.39186C25.7435 5.43625 25.7974 5.5171 25.8259 5.63441C25.8608 5.75806 25.8893 5.8833 25.9115 6.01012C25.9369 6.13377 25.9591 6.25584 25.9781 6.37632C25.9971 6.49363 26.0145 6.60778 26.0304 6.71875C26.0494 6.82972 26.0684 6.93276 26.0875 7.02788C26.1065 7.10397 26.1303 7.16421 26.1588 7.2086C26.1905 7.25299 26.227 7.28786 26.2682 7.31323C26.3126 7.33542 26.3586 7.34969 26.4061 7.35603C26.4568 7.36237 26.5107 7.36554 26.5678 7.36554C26.6312 7.36554 26.6994 7.3592 26.7723 7.34652C26.8452 7.33384 26.9166 7.3275 26.9863 7.3275C27.0307 7.3275 27.0735 7.33542 27.1147 7.35127C27.1591 7.36396 27.1988 7.38932 27.2336 7.42737C27.2685 7.46224 27.2955 7.51139 27.3145 7.5748C27.3367 7.63821 27.3478 7.71906 27.3478 7.81735C27.3478 7.89978 27.3319 7.96954 27.3002 8.02661C27.2685 8.08051 27.2083 8.11697 27.1195 8.13599L26.9483 8.17404C26.8944 8.18355 26.8437 8.19148 26.7961 8.19782C26.7517 8.20099 26.6946 8.20574 26.6249 8.21209C26.4759 8.22794 26.4014 8.29293 26.4014 8.40708C26.4014 8.41659 26.4077 8.45939 26.4204 8.53548C26.4331 8.61158 26.4489 8.70669 26.4679 8.82084C26.4901 8.93181 26.5139 9.05546 26.5393 9.19179C26.5646 9.32496 26.5884 9.45336 26.6106 9.57702C26.636 9.70067 26.6582 9.81164 26.6772 9.90993C26.6962 10.005 26.7105 10.0732 26.72 10.1144C26.7359 10.1842 26.7485 10.2381 26.758 10.2761C26.7676 10.3142 26.7723 10.3665 26.7723 10.4331C26.7723 10.4838 26.758 10.5345 26.7295 10.5853C26.701 10.6328 26.6582 10.6756 26.6011 10.7137C26.5472 10.7517 26.4806 10.7818 26.4014 10.804C26.3221 10.8294 26.2317 10.8421 26.1303 10.8421C26.0193 10.8421 25.9385 10.8088 25.8877 10.7422C25.8402 10.6724 25.8069 10.5932 25.7879 10.5044C25.7466 10.3395 25.707 10.1699 25.669 9.99553C25.6341 9.82115 25.5992 9.64835 25.5643 9.47714C25.5326 9.30593 25.5009 9.13948 25.4692 8.97778C25.4407 8.81291 25.4137 8.65597 25.3884 8.50695C25.3725 8.4372 25.344 8.38647 25.3028 8.35476C25.2615 8.31988 25.2092 8.30245 25.1458 8.30245C24.9302 8.30245 24.713 8.31037 24.4943 8.32623C24.2787 8.33891 24.0662 8.35 23.857 8.35952C23.784 8.36586 23.727 8.38964 23.6858 8.43085C23.6445 8.47207 23.6239 8.52597 23.6239 8.59255C23.6239 8.74157 23.6255 8.889 23.6287 9.03485C23.6319 9.1807 23.6334 9.32971 23.6334 9.4819C23.6334 9.65628 23.6303 9.83542 23.6239 10.0193C23.6208 10.2032 23.6144 10.3808 23.6049 10.552C23.5986 10.6154 23.5795 10.6677 23.5478 10.7089C23.5193 10.7501 23.4813 10.7834 23.4337 10.8088C23.3893 10.8341 23.337 10.8516 23.2768 10.8611C23.2197 10.8706 23.161 10.8754 23.1008 10.8754C22.9518 10.8754 22.836 10.85 22.7536 10.7993C22.6712 10.7517 22.63 10.6693 22.63 10.552C22.63 10.3744 22.6347 10.1889 22.6442 9.99553C22.6537 9.80213 22.6585 9.60714 22.6585 9.41056C22.6585 9.2774 22.6569 9.14899 22.6537 9.02534C22.6506 8.89851 22.649 8.76852 22.649 8.63536C22.649 8.57512 22.6347 8.53073 22.6062 8.50219C22.5808 8.47049 22.5491 8.44512 22.5111 8.4261C22.473 8.40708 22.4302 8.38964 22.3827 8.37378C22.3351 8.35476 22.2923 8.32781 22.2542 8.29293C22.2162 8.25806 22.1829 8.20733 22.1544 8.14075C22.129 8.07417 22.1163 7.98222 22.1163 7.86491C22.1163 7.8015 22.1274 7.75235 22.1496 7.71748C22.175 7.67943 22.2051 7.64931 22.24 7.62711C22.278 7.60492 22.3177 7.58748 22.3589 7.5748C22.4001 7.55895 22.4381 7.53992 22.473 7.51773C22.5111 7.49554 22.5412 7.46859 22.5634 7.43688C22.5887 7.402 22.6014 7.35286 22.6014 7.28945C22.6014 7.2514 22.5998 7.20701 22.5967 7.15628C22.5935 7.10238 22.5903 7.05166 22.5872 7.0041C22.584 6.95654 22.5808 6.91532 22.5776 6.88044C22.5745 6.8424 22.5729 6.81703 22.5729 6.80435C22.5729 6.69655 22.5872 6.61095 22.6157 6.54753C22.6474 6.48095 22.6854 6.43181 22.7298 6.4001C22.7742 6.36523 22.8234 6.34303 22.8773 6.33352C22.9343 6.32084 22.9882 6.3145 23.039 6.3145C23.2292 6.3145 23.3608 6.35096 23.4337 6.42388C23.5098 6.49363 23.551 6.59668 23.5574 6.73301L23.5764 7.23238C23.5827 7.30847 23.6033 7.36713 23.6382 7.40834C23.6731 7.44639 23.7301 7.46542 23.8094 7.46542L24.889 7.42737C24.9809 7.42103 25.0396 7.39566 25.065 7.35127C25.0935 7.30689 25.1078 7.2403 25.1078 7.15153ZM31.7612 9.71494C31.8532 9.63567 31.9435 9.59604 32.0323 9.59604C32.083 9.59604 32.129 9.60872 32.1702 9.63409C32.2114 9.65945 32.2574 9.69908 32.3081 9.75298C32.3557 9.82591 32.389 9.88615 32.408 9.93371C32.4302 9.97809 32.4413 10.0225 32.4413 10.0669C32.4413 10.162 32.3937 10.2523 32.2986 10.338C32.1464 10.4648 31.9816 10.5789 31.804 10.6804C31.6265 10.7787 31.441 10.8627 31.2476 10.9324C31.0542 11.0022 30.8544 11.0545 30.6483 11.0894C30.4423 11.1274 30.2378 11.1465 30.0348 11.1465C29.778 11.1465 29.5371 11.1132 29.3119 11.0466C29.0868 10.9832 28.8855 10.8912 28.7079 10.7707C28.5336 10.6503 28.3861 10.506 28.2657 10.338C28.1452 10.1667 28.0596 9.97492 28.0088 9.7625C27.9803 9.67372 27.9534 9.61665 27.928 9.59128C27.9058 9.56275 27.8677 9.54848 27.8138 9.54848C27.6965 9.54848 27.6062 9.51995 27.5428 9.46288C27.4794 9.40581 27.4476 9.32337 27.4476 9.21557C27.4476 9.17118 27.4508 9.14265 27.4572 9.12997L27.4667 9.03485C27.4825 8.92071 27.5126 8.83827 27.557 8.78754C27.6046 8.73681 27.6775 8.71145 27.7758 8.71145H27.8471C27.9803 8.71145 28.0738 8.64962 28.1277 8.52597C28.226 8.3072 28.3513 8.10746 28.5034 7.92673C28.6556 7.74601 28.8268 7.59224 29.0171 7.46542C29.2073 7.33542 29.4102 7.23555 29.6258 7.1658C29.8446 7.09287 30.0665 7.05641 30.2917 7.05641C30.5263 7.05641 30.745 7.09129 30.948 7.16104C31.154 7.22762 31.3332 7.32115 31.4854 7.44164C31.6376 7.56212 31.7565 7.70321 31.8421 7.86491C31.9308 8.02661 31.9752 8.20099 31.9752 8.38805C31.9752 8.51805 31.9499 8.63694 31.8991 8.74474C31.8484 8.85254 31.7755 8.94766 31.6804 9.03009C31.5852 9.10936 31.4695 9.17435 31.3332 9.22508C31.2 9.27581 31.0478 9.3091 30.8766 9.32496L29.2263 9.49141C29.1629 9.49141 29.1106 9.50726 29.0694 9.53897C29.0313 9.57068 29.0123 9.61348 29.0123 9.66738C29.0123 9.74981 29.0424 9.82908 29.1027 9.90517C29.1661 9.98126 29.2485 10.0494 29.35 10.1097C29.4546 10.1667 29.5735 10.2127 29.7067 10.2476C29.843 10.2825 29.9825 10.2999 30.1252 10.2999C30.2615 10.2999 30.401 10.2872 30.5437 10.2619C30.6896 10.2333 30.8322 10.1937 30.9717 10.143C31.1144 10.0922 31.2523 10.032 31.3855 9.96224C31.5187 9.88932 31.6439 9.80688 31.7612 9.71494ZM30.7007 8.48792C30.7482 8.47841 30.7894 8.45622 30.8243 8.42134C30.8592 8.3833 30.8766 8.33732 30.8766 8.28342C30.8766 8.23586 30.8592 8.19148 30.8243 8.15026C30.7894 8.10904 30.7419 8.07258 30.6816 8.04087C30.6214 8.006 30.5516 7.97905 30.4724 7.96002C30.3931 7.941 30.3091 7.93149 30.2203 7.93149C30.0903 7.93149 29.9572 7.95051 29.8208 7.98856C29.6845 8.02661 29.5608 8.07734 29.4499 8.14075C29.3389 8.20099 29.2485 8.26916 29.1788 8.34525C29.109 8.41817 29.0742 8.4911 29.0742 8.56402C29.0742 8.63694 29.1185 8.6734 29.2073 8.6734C29.2612 8.6734 29.3484 8.66706 29.4689 8.65438C29.5894 8.6417 29.7225 8.62743 29.8684 8.61158C30.0142 8.59255 30.1617 8.57195 30.3107 8.54975C30.4597 8.52756 30.5897 8.50695 30.7007 8.48792ZM35.7324 6.59985C35.9067 6.59985 36.0748 6.6268 36.2365 6.6807C36.3982 6.7346 36.5408 6.80911 36.6645 6.90422C36.7882 6.99934 36.8864 7.11348 36.9594 7.24665C37.0355 7.37981 37.0735 7.52724 37.0735 7.68894C37.0735 7.75552 37.0577 7.82052 37.0259 7.88393C36.9974 7.94417 36.9578 7.99807 36.9071 8.04563C36.8563 8.09002 36.7977 8.12648 36.7311 8.15501C36.6677 8.18038 36.6011 8.19306 36.5313 8.19306C36.525 8.19306 36.5187 8.19465 36.5123 8.19782C36.5091 8.19782 36.5044 8.19782 36.498 8.19782C36.4917 8.20099 36.4854 8.20257 36.479 8.20257L36.498 8.58304C36.5107 9.03643 36.5741 9.36776 36.6883 9.57702C36.8056 9.78627 36.9578 9.8909 37.1448 9.8909C37.2114 9.8909 37.2701 9.88456 37.3208 9.87188C37.3747 9.8592 37.4239 9.84493 37.4682 9.82908C37.5158 9.81005 37.5602 9.7942 37.6014 9.78152C37.6426 9.76884 37.6838 9.7625 37.7251 9.7625C37.798 9.7625 37.8614 9.7942 37.9153 9.85761C37.9724 9.92102 38.0009 9.99712 38.0009 10.0859C38.0009 10.1747 37.966 10.2634 37.8963 10.3522C37.8297 10.441 37.7409 10.5218 37.6299 10.5948C37.519 10.6645 37.3937 10.7216 37.2542 10.766C37.1147 10.8104 36.9736 10.8326 36.831 10.8326C36.5837 10.8326 36.3665 10.7311 36.1794 10.5282C35.9923 10.3221 35.8592 10.0209 35.7799 9.62458C35.7609 9.56116 35.7355 9.52946 35.7038 9.52946C35.6658 9.52946 35.6325 9.54848 35.6039 9.58653C35.2901 9.98285 34.9556 10.2809 34.6005 10.4806C34.2454 10.6772 33.895 10.7755 33.5494 10.7755C33.3877 10.7755 33.2419 10.7517 33.1119 10.7042C32.9819 10.6566 32.8709 10.59 32.779 10.5044C32.6902 10.4156 32.6204 10.3094 32.5697 10.1858C32.5221 10.0589 32.4984 9.91785 32.4984 9.7625C32.4984 9.54373 32.5459 9.31386 32.641 9.0729C32.7393 8.83193 32.8709 8.59414 33.0358 8.35952C33.2007 8.12489 33.3909 7.90137 33.6065 7.68894C33.8253 7.47651 34.0535 7.28945 34.2913 7.12775C34.5323 6.96605 34.7764 6.83764 35.0237 6.74252C35.271 6.64741 35.5072 6.59985 35.7324 6.59985ZM35.5754 8.24538C35.6325 8.13758 35.6848 8.0599 35.7324 8.01234C35.7799 7.96161 35.8481 7.92832 35.9369 7.91247C36.0066 7.90295 36.0415 7.88076 36.0415 7.84588C36.0415 7.82052 36.032 7.79357 36.0129 7.76503C35.9527 7.6826 35.8893 7.61126 35.8227 7.55102C35.7561 7.48761 35.6674 7.4559 35.5564 7.4559C35.4359 7.4559 35.3012 7.49078 35.1521 7.56053C35.0031 7.63028 34.8509 7.72382 34.6956 7.84113C34.5434 7.95527 34.3928 8.08685 34.2438 8.23586C34.0979 8.38171 33.9679 8.53231 33.8538 8.68767C33.7396 8.84303 33.6477 8.9968 33.5779 9.14899C33.5082 9.30118 33.4733 9.43751 33.4733 9.55799C33.4733 9.66579 33.5019 9.74981 33.5589 9.81005C33.6192 9.87029 33.7 9.90042 33.8015 9.90042C34.0615 9.90042 34.3452 9.7625 34.6528 9.48666C34.9603 9.21082 35.2679 8.79706 35.5754 8.24538ZM37.6965 7.43688C37.6965 7.31323 37.752 7.2197 37.863 7.15628C37.9739 7.0897 38.1325 7.05641 38.3386 7.05641C38.3861 7.05641 38.4289 7.06275 38.467 7.07543C38.505 7.08812 38.5383 7.11348 38.5668 7.15153C38.5986 7.1864 38.6271 7.23555 38.6525 7.29896C38.6778 7.36237 38.7032 7.44322 38.7285 7.54151C38.7539 7.65248 38.7793 7.70796 38.8046 7.70796C38.8268 7.70796 38.8538 7.66199 38.8855 7.57004C38.9426 7.38932 39.0171 7.23238 39.109 7.09921C39.2041 6.96288 39.3103 6.85032 39.4277 6.76155C39.545 6.6696 39.6718 6.60143 39.8081 6.55705C39.9476 6.51266 40.0935 6.49046 40.2457 6.49046C40.5532 6.49046 40.8401 6.54912 41.1065 6.66643C41.3728 6.78057 41.6027 6.94069 41.7961 7.14677C41.9895 7.34969 42.1417 7.59065 42.2526 7.86966C42.3636 8.1455 42.4191 8.44512 42.4191 8.76852C42.4191 9.11094 42.3589 9.428 42.2384 9.71969C42.1211 10.0114 41.9562 10.2634 41.7438 10.4759C41.5313 10.6851 41.2777 10.8484 40.9828 10.9657C40.6911 11.0862 40.3709 11.1465 40.0221 11.1465L39.7796 11.1369C39.6369 11.1369 39.5656 11.2178 39.5656 11.3795L39.8081 13.5624C39.805 13.6163 39.7859 13.6655 39.7511 13.7099C39.7193 13.7574 39.675 13.7986 39.6179 13.8335C39.564 13.8684 39.499 13.8953 39.4229 13.9144C39.35 13.9334 39.2739 13.9429 39.1946 13.9429C38.9663 13.9429 38.8427 13.8684 38.8237 13.7194C38.7571 13.1423 38.6826 12.5938 38.6001 12.0738C38.5209 11.5539 38.4384 11.0704 38.3528 10.6233C38.2704 10.1731 38.1895 9.76408 38.1103 9.39629C38.031 9.02851 37.9597 8.70828 37.8963 8.43561C37.836 8.16294 37.7885 7.941 37.7536 7.76979C37.7155 7.59858 37.6965 7.48761 37.6965 7.43688ZM39.2422 8.69243C39.2422 8.89851 39.2501 9.10302 39.266 9.30593C39.2818 9.50568 39.3072 9.72286 39.3421 9.95749C39.3611 10.1002 39.4388 10.181 39.5751 10.2C39.6575 10.2191 39.7495 10.2381 39.8509 10.2571C39.9556 10.273 40.0427 10.2809 40.1125 10.2809C40.3154 10.2809 40.4993 10.2508 40.6642 10.1905C40.829 10.1303 40.9701 10.0447 41.0875 9.93371C41.2048 9.81957 41.2951 9.68482 41.3585 9.52946C41.4219 9.3741 41.4537 9.2013 41.4537 9.01107C41.4537 8.77962 41.4219 8.56402 41.3585 8.36427C41.2951 8.16136 41.2079 7.98539 41.097 7.83637C40.9892 7.68736 40.8608 7.57004 40.7117 7.48444C40.5659 7.39883 40.4074 7.35603 40.2362 7.35603C40.0871 7.35603 39.9508 7.38932 39.8271 7.4559C39.7067 7.51931 39.602 7.60968 39.5133 7.72699C39.4277 7.84113 39.3611 7.98063 39.3135 8.1455C39.266 8.31037 39.2422 8.49268 39.2422 8.69243ZM45.6864 10.961C45.6642 10.5393 45.6277 10.1509 45.577 9.79579C45.5294 9.43751 45.4787 9.12521 45.4248 8.85888C45.3741 8.59255 45.3281 8.37695 45.2869 8.21209C45.2488 8.04722 45.2298 7.94417 45.2298 7.90295C45.2298 7.84271 45.252 7.78406 45.2964 7.72699C45.3439 7.66992 45.4026 7.62077 45.4724 7.57956C45.5421 7.53517 45.6166 7.50029 45.6959 7.47493C45.7783 7.44956 45.8528 7.43688 45.9194 7.43688C45.9733 7.43688 46.0193 7.44639 46.0573 7.46542C46.0985 7.48444 46.1271 7.51614 46.1429 7.56053C46.1588 7.61443 46.173 7.6715 46.1857 7.73174C46.2016 7.78881 46.2174 7.85857 46.2333 7.941C46.2523 8.05831 46.2777 8.11697 46.3094 8.11697C46.3443 8.11697 46.3839 8.06465 46.4283 7.96002C46.4917 7.81418 46.5599 7.6937 46.6328 7.59858C46.7057 7.50346 46.7834 7.42895 46.8658 7.37505C46.9514 7.31798 47.0386 7.27835 47.1274 7.25616C47.2193 7.23396 47.3145 7.22287 47.4127 7.22287C47.7108 7.22287 47.9628 7.34018 48.1689 7.5748C48.3782 7.80942 48.5415 8.14867 48.6588 8.59255C48.6746 8.64328 48.6889 8.67657 48.7016 8.69243C48.7143 8.70511 48.7285 8.71145 48.7444 8.71145C48.7602 8.71145 48.7761 8.70511 48.7919 8.69243C48.811 8.67657 48.8284 8.64645 48.8443 8.60207C48.9204 8.39598 49.0091 8.2216 49.1106 8.07892C49.212 7.93307 49.3167 7.81576 49.4245 7.72699C49.5354 7.63504 49.648 7.56846 49.7621 7.52724C49.8763 7.48602 49.9857 7.46542 50.0903 7.46542C50.2837 7.46542 50.4581 7.53675 50.6134 7.67943C50.772 7.81893 50.9115 8.03612 51.032 8.33098C51.1556 8.62267 51.2618 8.99363 51.3506 9.44385C51.4425 9.8909 51.5186 10.422 51.5789 11.0371C51.5789 11.2083 51.5266 11.3272 51.4219 11.3938C51.3173 11.4635 51.1746 11.4984 50.9939 11.4984C50.8766 11.4984 50.7846 11.473 50.7181 11.4223C50.6515 11.3716 50.6134 11.305 50.6039 11.2225C50.5627 10.7818 50.5167 10.3903 50.466 10.0478C50.4184 9.70225 50.3661 9.41215 50.3091 9.17752C50.252 8.93973 50.1886 8.75901 50.1188 8.63536C50.0522 8.5117 49.9777 8.44988 49.8953 8.44988C49.8541 8.44988 49.8018 8.48 49.7384 8.54024C49.6781 8.60048 49.6131 8.71145 49.5434 8.87315C49.4736 9.03168 49.4007 9.25045 49.3246 9.52946C49.2485 9.8053 49.1756 10.1588 49.1058 10.59C49.0868 10.7105 49.0282 10.8024 48.9299 10.8659C48.8347 10.9293 48.7174 10.961 48.5779 10.961C48.4162 10.961 48.3037 10.9356 48.2403 10.8849C48.18 10.8341 48.1467 10.7485 48.1404 10.6281C48.1277 10.4188 48.1055 10.2111 48.0738 10.005C48.0453 9.79579 48.0088 9.59763 47.9644 9.41056C47.92 9.22033 47.8709 9.04595 47.817 8.88742C47.7631 8.72572 47.706 8.58621 47.6458 8.4689C47.5855 8.34842 47.5237 8.25489 47.4603 8.18831C47.3969 8.12172 47.3351 8.08843 47.2748 8.08843C47.1956 8.08843 47.1179 8.14392 47.0418 8.25489C46.9689 8.36586 46.9023 8.5228 46.842 8.72572C46.785 8.92863 46.739 9.17277 46.7041 9.45812C46.6692 9.74347 46.6518 10.0621 46.6518 10.414C46.6518 10.4743 46.6534 10.5345 46.6566 10.5948C46.6597 10.6518 46.6613 10.7121 46.6613 10.7755C46.6613 10.8706 46.6455 10.9483 46.6138 11.0085C46.5852 11.0688 46.5424 11.1163 46.4854 11.1512C46.4315 11.1861 46.368 11.2099 46.2951 11.2225C46.2222 11.2352 46.1429 11.2416 46.0573 11.2416C45.9781 11.2416 45.9146 11.2352 45.8671 11.2225C45.8195 11.213 45.7831 11.1972 45.7577 11.175C45.7323 11.1528 45.7149 11.1227 45.7054 11.0846C45.6959 11.0497 45.6895 11.0085 45.6864 10.961ZM52.8915 5.90549C52.7995 5.90549 52.7124 5.89281 52.6299 5.86745C52.5507 5.83891 52.4809 5.80086 52.4207 5.75331C52.3636 5.70258 52.3176 5.64392 52.2827 5.57734C52.2479 5.51076 52.2304 5.43783 52.2304 5.35857C52.2304 5.22541 52.2827 5.11761 52.3874 5.03517C52.4952 4.95274 52.6378 4.91152 52.8154 4.91152C52.8978 4.91152 52.9771 4.92737 53.0532 4.95908C53.1293 4.98761 53.1959 5.02724 53.2529 5.07797C53.3132 5.1287 53.3607 5.18894 53.3956 5.2587C53.4305 5.32528 53.4479 5.39503 53.4479 5.46795C53.4479 5.60429 53.3972 5.71209 53.2957 5.79135C53.1975 5.86745 53.0627 5.90549 52.8915 5.90549ZM52.2399 7.35603C52.2399 7.24506 52.2875 7.1547 52.3826 7.08495C52.4809 7.01202 52.6093 6.97556 52.7678 6.97556C53.0532 6.97556 53.2054 7.07385 53.2244 7.27042C53.2371 7.40676 53.2498 7.56053 53.2625 7.73174C53.2783 7.90295 53.2926 8.08526 53.3053 8.27867C53.3211 8.4689 53.3338 8.66706 53.3433 8.87315C53.356 9.07607 53.3671 9.2774 53.3766 9.47714C53.3861 9.67372 53.394 9.86395 53.4004 10.0478C53.4067 10.2317 53.4099 10.3998 53.4099 10.552C53.4099 10.7105 53.3528 10.8294 53.2387 10.9087C53.1277 10.9879 52.9644 11.0276 52.7488 11.0276C52.6505 11.0276 52.5729 11.0038 52.5158 10.9562C52.4619 10.9118 52.4349 10.8452 52.4349 10.7565C52.4349 10.3189 52.4238 9.90993 52.4016 9.52946C52.3826 9.14582 52.3604 8.80498 52.3351 8.50695C52.3129 8.20891 52.2907 7.96161 52.2685 7.76503C52.2495 7.56529 52.2399 7.42895 52.2399 7.35603ZM54.3706 6.91849C54.3706 6.87093 54.3912 6.82496 54.4324 6.78057C54.4736 6.73301 54.5275 6.6918 54.5941 6.65692C54.6607 6.61887 54.7352 6.58875 54.8176 6.56656C54.9032 6.54119 54.9888 6.52851 55.0744 6.52851C55.122 6.52851 55.1616 6.54119 55.1933 6.56656C55.2282 6.59192 55.2583 6.64107 55.2837 6.71399C55.3091 6.78374 55.3313 6.88361 55.3503 7.01361C55.3725 7.14043 55.3931 7.30689 55.4121 7.51297C55.4248 7.57639 55.4359 7.62553 55.4454 7.66041C55.4581 7.69211 55.4739 7.70796 55.493 7.70796C55.5215 7.70796 55.55 7.65882 55.5786 7.56053C55.81 6.89154 56.1445 6.55705 56.582 6.55705C56.785 6.55705 56.9689 6.62046 57.1337 6.74728C57.3018 6.8741 57.4571 7.08178 57.5998 7.3703C57.7456 7.65565 57.8836 8.03295 58.0136 8.50219C58.1435 8.96827 58.2735 9.54373 58.4035 10.2286C58.4099 10.2634 58.4146 10.2952 58.4178 10.3237C58.421 10.3522 58.4226 10.3792 58.4226 10.4045C58.4226 10.4775 58.4051 10.5409 58.3702 10.5948C58.3385 10.6455 58.2957 10.6883 58.2418 10.7232C58.1879 10.7549 58.1277 10.7787 58.0611 10.7945C57.9945 10.8135 57.928 10.8231 57.8614 10.8231C57.7282 10.8231 57.6315 10.8088 57.5713 10.7802C57.5142 10.7517 57.4777 10.6978 57.4619 10.6185C57.3699 10.1366 57.2796 9.7086 57.1908 9.33447C57.1052 8.96034 57.0196 8.64645 56.934 8.39281C56.8515 8.13599 56.7691 7.941 56.6867 7.80784C56.6042 7.67467 56.5218 7.60809 56.4394 7.60809C56.3569 7.60809 56.2793 7.66041 56.2063 7.76503C56.1366 7.86649 56.0684 8.02661 56.0018 8.24538C55.9352 8.46415 55.8702 8.74157 55.8068 9.07765C55.7466 9.41373 55.6879 9.81481 55.6309 10.2809C55.615 10.4077 55.5516 10.5092 55.4406 10.5853C55.3297 10.6614 55.1886 10.6994 55.0174 10.6994C54.9032 10.6994 54.816 10.6756 54.7558 10.6281C54.6956 10.5805 54.6623 10.5155 54.6559 10.4331C54.6274 9.77359 54.5957 9.23142 54.5608 8.80657C54.5291 8.37854 54.499 8.03612 54.4704 7.7793C54.4419 7.51931 54.4181 7.32591 54.3991 7.19909C54.3801 7.07226 54.3706 6.97873 54.3706 6.91849Z" fill="#1E1E1E"/>
<path d="M10.5653 84.5629C21.4238 84.5629 64.8776 84.5629 75.7361 84.5629" stroke="#1E1E1E" stroke-width="2" stroke-linecap="round"/>
<path d="M40.3481 34.2152C40.4766 32.6281 40.2197 30.44 40.2296 26.9183ZM40.3481 34.2152C40.3185 31.8862 40.1703 29.7544 40.2296 26.9183Z" stroke="#1E1E1E" stroke-linecap="round"/>
<path d="M41.5338 30.3555C41.2868 29.6136 40.862 28.5711 40.2296 26.9183ZM41.5338 30.3555C41.1287 29.2567 40.6742 28.2519 40.2296 26.9183Z" stroke="#1E1E1E" stroke-linecap="round"/>
<path d="M38.9056 30.3367C39.3009 29.6042 39.5182 28.5618 40.2296 26.9183ZM38.9056 30.3367C39.3206 29.2473 39.6763 28.2519 40.2296 26.9183Z" stroke="#1E1E1E" stroke-linecap="round"/>
<path d="M18.7807 55.5224C20.1837 53.8319 25.7661 47.4741 27.258 45.8119M18.3558 55.0058C19.8675 53.3718 26.7245 48 28.2263 46.4974" stroke="#1E1E1E" stroke-linecap="round"/>
<path d="M27.1439 45.3815C29.1892 43.9728 38.1309 38.1879 40.3342 36.7416M27.8849 44.9589C29.8215 43.6348 37.874 38.6105 39.8995 37.2957" stroke="#1E1E1E" stroke-linecap="round"/>
<path d="M40.3381 36.7411C42.3636 38.0277 50.179 43.3055 52.0562 44.7236M39.6761 36.1964C41.672 37.5393 49.4775 43.869 51.6413 45.2495" stroke="#1E1E1E" stroke-linecap="round"/>
<path d="M51.8273 44.6172C53.2402 46.6832 58.872 55.0507 60.275 57.0605M51.1752 45.5938C52.756 47.5284 59.5735 54.384 61.2433 56.3092" stroke="#1E1E1E" stroke-linecap="round"/>
<path d="M50.4165 44.9722C49.3692 46.9161 45.4961 54.1285 44.6365 56.0256M51.1674 44.681C50.2782 46.7283 46.6224 54.8423 45.585 56.636" stroke="#1E1E1E" stroke-linecap="round"/>
<path d="M27.3335 44.805C28.4895 46.6456 33.1728 54.3464 34.3288 56.2246M28.0449 44.3166C29.1811 45.9789 32.9554 53.3697 33.9336 55.4264" stroke="#1E1E1E" stroke-linecap="round"/>
<path d="M40.2655 34.0002C40.9374 33.9626 41.7476 34.5167 42.3404 35.052C42.9332 35.5873 43.615 36.4606 43.8323 37.2025C44.0596 37.9538 44.0102 38.9681 43.6743 39.5222C43.3482 40.0669 42.6763 40.311 41.8661 40.4988C41.056 40.6961 39.6233 40.8651 38.823 40.6867C38.0227 40.5082 37.4002 40.0481 37.0742 39.4376C36.7481 38.8366 36.7382 37.7472 36.8568 37.0523C36.9852 36.3573 37.2323 35.7 37.835 35.268C38.4278 34.8454 39.9988 34.6857 40.4236 34.4885C40.8485 34.2819 40.3446 34.0283 40.3841 34.0753M40.2062 34.1222C40.9868 33.9908 42.1132 34.1504 42.7554 34.5448C43.4075 34.9487 43.9311 35.7563 44.0892 36.4982C44.2473 37.2495 44.109 38.3295 43.7039 39.0338C43.3087 39.7288 42.4787 40.3392 41.6883 40.7055C40.8979 41.0623 39.6925 41.4849 38.9416 41.1844C38.1808 40.8839 37.5287 39.6349 37.1433 38.9211C36.7481 38.2168 36.4319 37.5594 36.59 36.9302C36.7481 36.301 37.4793 35.5027 38.082 35.1177C38.6748 34.7421 39.7814 34.8078 40.1766 34.6482C40.5718 34.4885 40.4236 34.2068 40.4533 34.1598" fill="white"/>
<path d="M40.2359 34.0565C40.9176 33.9532 41.7476 34.1974 42.3602 34.7327C42.9629 35.268 43.694 36.5734 43.862 37.2871C44.0201 38.0008 43.7237 38.461 43.3284 39.0338C42.9332 39.6067 42.1626 40.5083 41.4808 40.743C40.7892 40.9778 39.9098 40.7336 39.2083 40.4425C38.5167 40.1608 37.7263 39.5504 37.2915 39.0151C36.8568 38.4798 36.5011 37.8881 36.5802 37.212C36.6493 36.5358 37.0544 35.4652 37.7263 34.9675C38.408 34.4697 40.2062 34.3476 40.6311 34.235C41.056 34.1129 40.2853 34.1786 40.2754 34.2631M40.4236 34.2443C41.214 34.3476 42.6171 34.6388 43.2494 35.2022C43.8817 35.7657 44.2374 36.8739 44.2275 37.6252C44.2078 38.3765 43.7335 39.1747 43.1704 39.71C42.5973 40.2453 41.6784 40.743 40.8386 40.8463C39.9988 40.959 38.7736 40.6961 38.1314 40.358C37.4891 40.0105 37.1335 39.494 36.9556 38.8178C36.7876 38.1417 36.8963 36.9396 37.0841 36.2916C37.2817 35.6436 37.499 35.3243 38.1017 34.9017C38.7143 34.4885 40.3446 33.8687 40.7299 33.7748C41.1152 33.6809 40.4039 34.2631 40.4137 34.3195" stroke="#1E1E1E" stroke-linecap="round"/>
<path d="M27.9249 41.743C28.6659 41.7994 29.7923 42.2501 30.4444 42.7666C31.0965 43.2832 31.6794 44.2035 31.8375 44.8421C31.9956 45.4713 31.877 46.0254 31.3731 46.5795C30.8791 47.1335 29.654 47.8754 28.8536 48.1666C28.0533 48.4577 27.1937 48.5704 26.5515 48.3168C25.9093 48.0727 25.3362 47.2838 24.9707 46.664C24.615 46.0536 24.2494 45.2741 24.3976 44.6073C24.5557 43.9405 25.277 43.1892 25.8994 42.6727C26.5219 42.1468 27.6976 41.5834 28.1423 41.4707C28.5869 41.358 28.5968 41.912 28.5869 41.9872M28.3893 41.3016C29.1599 41.2265 30.1183 41.6115 30.6914 42.128C31.2645 42.6446 31.7387 43.6119 31.8178 44.3913C31.8869 45.1614 31.6103 46.0723 31.1261 46.7767C30.642 47.481 29.6737 48.4671 28.9129 48.6267C28.162 48.7864 27.3024 48.0914 26.6108 47.7346C25.9093 47.3777 25.0497 47.0302 24.7335 46.4855C24.4174 45.9315 24.5359 45.0393 24.7138 44.4383C24.8916 43.8278 25.2078 43.3395 25.8204 42.8606C26.433 42.3722 27.9842 41.7712 28.3893 41.5552C28.7944 41.3392 28.2509 41.527 28.2509 41.5646" fill="white"/>
<path d="M28.0434 41.4049C28.7943 41.48 29.98 42.3816 30.5629 42.8887C31.1459 43.3958 31.462 43.7715 31.5312 44.4383C31.5905 45.105 31.3534 46.3165 30.9581 46.9081C30.5728 47.4998 29.8812 47.8191 29.1599 47.9881C28.4485 48.1478 27.4309 48.0914 26.6701 47.8848C25.9192 47.6782 25.02 47.3683 24.6248 46.7579C24.2197 46.1475 24.032 44.9454 24.2889 44.2129C24.5557 43.471 25.5437 42.7666 26.1859 42.344C26.8281 41.912 27.747 41.7336 28.162 41.6679C28.5671 41.5927 28.577 41.8745 28.656 41.9214M27.8261 41.5646C28.656 41.4425 29.6737 41.9026 30.2863 42.3065C30.8989 42.7197 31.3534 43.3583 31.5016 44.0157C31.6399 44.673 31.5411 45.6216 31.1557 46.2602C30.7803 46.8894 29.8812 47.4716 29.239 47.8191C28.5869 48.1666 27.915 48.4952 27.2728 48.3356C26.6305 48.1853 25.9192 47.4434 25.4054 46.9081C24.8817 46.3728 24.1703 45.9033 24.1506 45.1332C24.1308 44.3725 24.8027 42.8981 25.3066 42.3253C25.8006 41.7524 26.7689 41.8839 27.1344 41.7148C27.5099 41.5364 27.4111 41.1983 27.5395 41.2828" stroke="#1E1E1E" stroke-linecap="round"/>
<path d="M51 41.604C51.7904 41.5195 52.9168 41.8858 53.5886 42.2145C54.2605 42.5338 54.9324 42.9282 55.041 43.5668C55.1497 44.2054 54.636 45.3042 54.2407 46.0273C53.8455 46.7504 53.2922 47.5674 52.6698 47.8961C52.0374 48.2342 51.2174 48.1779 50.4862 48.0182C49.7551 47.8492 48.6979 47.4829 48.2532 46.9382C47.8086 46.3935 47.7493 45.5389 47.8185 44.7407C47.8976 43.9424 48.0952 42.684 48.688 42.1581C49.2709 41.6322 50.9407 41.7261 51.326 41.5947C51.7114 41.4632 51.0593 41.3411 51.0197 41.3599M51.5335 40.9748C52.2548 40.9561 53.2329 41.435 53.7862 41.9515C54.3297 42.4586 54.7743 43.2475 54.8336 44.0458C54.8928 44.8346 54.547 46.1588 54.1419 46.7222C53.7467 47.2857 53.144 47.2387 52.4425 47.3984C51.7509 47.5674 50.6443 47.868 49.9724 47.7271C49.3104 47.5768 48.7967 47.0321 48.4311 46.5156C48.0655 45.9991 47.6604 45.3887 47.7987 44.6562C47.9371 43.9143 48.6386 42.6465 49.2314 42.0642C49.8341 41.482 50.9802 41.3223 51.3656 41.1627C51.7509 41.0124 51.494 41.05 51.5335 41.1533" fill="white"/>
<path d="M51.1087 41.6228C51.8596 41.5383 52.7488 41.3599 53.3417 41.7355C53.9444 42.1112 54.5075 43.1911 54.7249 43.8767C54.9423 44.5716 54.9522 45.2854 54.636 45.8958C54.3198 46.5062 53.5788 47.173 52.818 47.558C52.0671 47.9431 50.8913 48.3563 50.091 48.1872C49.3006 48.0276 48.4015 47.22 48.0557 46.5814C47.7099 45.9521 47.9075 45.1069 48.0063 44.3932C48.1051 43.6701 48.0754 42.7498 48.6386 42.2708C49.1919 41.7919 50.8815 41.6698 51.3557 41.5101C51.83 41.3505 51.5632 41.3505 51.4743 41.3317M51.7015 41.4726C52.3931 41.4632 53.2033 41.7355 53.6875 42.1769C54.1815 42.6183 54.5965 43.4353 54.6261 44.1115C54.6656 44.7876 54.2507 45.6047 53.8851 46.2339C53.5195 46.8631 53.065 47.6519 52.4524 47.8867C51.8398 48.1309 50.9803 47.8773 50.2195 47.6613C49.4587 47.436 48.2928 47.2481 47.8778 46.5814C47.4629 45.9146 47.5913 44.3838 47.7197 43.6325C47.8482 42.8906 48.0458 42.5901 48.6386 42.1205C49.2413 41.6604 50.8222 40.9467 51.3261 40.8527C51.8201 40.7682 51.6225 41.435 51.6126 41.5853" stroke="#1E1E1E" stroke-linecap="round"/>
<path d="M18.9865 53.7131C19.7572 53.6285 20.8045 53.6567 21.259 54.0887C21.7234 54.5207 21.7431 55.5256 21.753 56.305C21.7629 57.0845 21.6937 58.1551 21.338 58.7749C20.9824 59.4041 20.3599 59.8267 19.6386 60.0615C18.9174 60.2963 17.6922 60.409 16.9907 60.1742C16.2892 59.93 15.7655 59.3478 15.4296 58.6246C15.0937 57.9015 14.7775 56.568 14.985 55.8543C15.1925 55.1499 16.0718 54.7743 16.6844 54.3611C17.297 53.9478 18.3147 53.5252 18.6703 53.3844C19.026 53.2435 18.8186 53.4313 18.8186 53.5252M18.3542 53.328C19.026 53.2623 19.9548 53.4877 20.5081 53.9666C21.0515 54.4456 21.4566 55.5819 21.6443 56.2017C21.8419 56.8215 21.9309 57.0939 21.6443 57.6667C21.3677 58.2302 20.5773 59.2069 19.9548 59.6201C19.3323 60.0333 18.6012 60.193 17.8997 60.1366C17.1883 60.0803 16.141 59.8831 15.7062 59.282C15.2616 58.681 15.2023 57.3474 15.2616 56.521C15.3209 55.6946 15.558 54.887 16.0718 54.3329C16.5955 53.7788 17.9985 53.3186 18.4036 53.2059C18.7988 53.0839 18.4925 53.591 18.4727 53.6473" fill="white"/>
<path d="M18.0084 53.2153C18.7 53.0275 19.7276 53.5534 20.3995 53.9291C21.0812 54.3141 21.8025 54.8212 22.0495 55.4786C22.2965 56.1266 22.2372 57.0845 21.8914 57.8452C21.5357 58.6059 20.686 59.6483 19.9548 60.0239C19.2138 60.3996 18.1369 60.2775 17.4749 60.0897C16.803 59.9019 16.3979 59.4699 15.9533 58.897C15.5087 58.3241 14.7479 57.3569 14.7775 56.6525C14.8072 55.9576 15.5284 55.2438 16.1311 54.6991C16.724 54.1545 18.0875 53.6192 18.3839 53.3844C18.6704 53.1402 17.8997 53.159 17.8602 53.2529M18.4629 53.4595C19.0854 53.3562 20.0042 53.6849 20.518 54.0887C21.0318 54.4925 21.3282 55.1687 21.5159 55.8824C21.7037 56.5962 21.8914 57.7231 21.6444 58.3617C21.3974 59.0003 20.7947 59.3947 20.0438 59.7046C19.283 60.0146 17.8899 60.4841 17.1192 60.2305C16.3485 59.9676 15.8545 58.7937 15.4395 58.1551C15.0245 57.5071 14.491 57.0939 14.6096 56.3708C14.7183 55.6477 15.4494 54.2859 16.1213 53.8258C16.803 53.3656 18.2949 53.6567 18.6605 53.6192C19.036 53.5722 18.374 53.5722 18.3443 53.591" stroke="#1E1E1E" stroke-linecap="round"/>
<path d="M35.0318 53.1158C35.6642 53.1064 36.1384 53.7544 36.5633 54.3555C36.998 54.9565 37.5217 55.9801 37.6007 56.7126C37.6896 57.4545 37.5612 58.2152 37.0968 58.7975C36.6226 59.3891 35.5555 60.0653 34.8046 60.2531C34.0636 60.4503 33.283 60.3752 32.621 59.962C31.9689 59.5488 31.0994 58.4406 30.8524 57.7645C30.6153 57.0883 30.9117 56.5624 31.1488 55.905C31.386 55.2382 31.6429 54.2052 32.2554 53.7826C32.868 53.36 34.3995 53.4069 34.8243 53.3788C35.2492 53.3506 34.8639 53.529 34.8046 53.6136M33.8363 53.3412C34.4588 53.2943 35.269 53.9329 35.8815 54.2522C36.4842 54.5715 37.2351 54.6466 37.4723 55.2476C37.7094 55.8393 37.5513 57.0695 37.3043 57.8208C37.0672 58.5627 36.6522 59.3046 36.01 59.746C35.3678 60.178 34.1722 60.6194 33.4411 60.4315C32.7198 60.2437 32.1171 59.3046 31.6824 58.619C31.2378 57.9429 30.7833 57.0977 30.8327 56.3558C30.8722 55.6139 31.386 54.6278 31.9393 54.1489C32.4926 53.6699 33.8264 53.6323 34.1624 53.4727C34.5082 53.3036 34.0142 53.191 33.9845 53.1722" fill="white"/>
<path d="M34.7552 53.3412C35.516 53.3975 36.5337 53.6699 37.0475 54.177C37.5612 54.6841 37.8972 55.5857 37.8577 56.3933C37.8083 57.2104 37.3044 58.45 36.7609 59.051C36.2175 59.6521 35.2789 59.8868 34.607 59.9901C33.9352 60.0935 33.3917 60.0277 32.7396 59.6802C32.0875 59.3234 30.9809 58.5439 30.7142 57.8865C30.4375 57.2385 30.7734 56.4591 31.0995 55.7641C31.4255 55.0692 32.1073 54.1676 32.6803 53.7262C33.2534 53.2849 34.1822 53.1252 34.5477 53.1064C34.9133 53.0876 34.8639 53.4821 34.8837 53.6135M34.2414 53.2849C34.8738 53.2379 35.5951 53.5384 36.178 54.0361C36.7511 54.5339 37.5217 55.5669 37.7193 56.2806C37.9169 56.9944 37.828 57.6799 37.3636 58.3185C36.8993 58.9571 35.6939 59.962 34.9232 60.131C34.1525 60.3001 33.4609 59.6521 32.7495 59.3422C32.0381 59.0229 30.9908 58.882 30.6648 58.234C30.3288 57.586 30.477 56.121 30.7537 55.4448C31.0402 54.7687 31.7714 54.5151 32.3839 54.177C32.9866 53.8389 34.0241 53.5478 34.3798 53.4163C34.7256 53.2849 34.5379 53.3975 34.4983 53.3882" stroke="#1E1E1E" stroke-linecap="round"/>
<path d="M46.4064 52.7402C47.0486 52.8717 48.0959 53.5197 48.6591 54.0832C49.2223 54.6466 49.7459 55.3885 49.7657 56.1304C49.7756 56.8723 49.2223 57.9335 48.7381 58.5346C48.2639 59.145 47.6118 59.6897 46.8806 59.746C46.1396 59.8118 44.9638 59.2671 44.3414 58.9102C43.709 58.544 43.4027 58.2528 43.1261 57.6049C42.8593 56.9475 42.5036 55.7172 42.7012 54.9941C42.9087 54.271 43.6695 53.6042 44.3513 53.2661C45.0231 52.9374 46.3866 53.0314 46.7719 53.0032C47.1672 52.9844 46.7324 53.0689 46.683 53.1253M45.7345 53.1628C46.4162 53.022 47.5525 52.6839 48.1651 53.022C48.7777 53.3694 49.2124 54.4588 49.4199 55.2477C49.6372 56.0365 49.7756 57.0226 49.4495 57.7645C49.1333 58.5158 48.1848 59.4737 47.5031 59.7179C46.8115 59.9714 46.0507 59.577 45.3492 59.2577C44.6477 58.929 43.6893 58.4125 43.2941 57.7833C42.889 57.1447 42.8 56.1117 42.9384 55.4449C43.0767 54.7781 43.5905 54.2616 44.1339 53.7733C44.6773 53.2943 45.8531 52.7496 46.1989 52.5336C46.5447 52.327 46.268 52.3458 46.189 52.5148" fill="white"/>
<path d="M45.8531 52.4961C46.5744 52.3364 47.5723 52.59 48.1552 53.0783C48.7283 53.5573 49.1531 54.6654 49.3112 55.3885C49.4792 56.1211 49.3409 56.816 49.1136 57.4546C48.8962 58.0838 48.6591 58.8539 47.9971 59.192C47.3351 59.5207 45.8926 59.5676 45.1516 59.4267C44.4106 59.2859 43.9165 58.9384 43.5411 58.3562C43.1558 57.7645 42.9285 56.6939 42.8791 55.9051C42.8297 55.1068 42.7704 54.0832 43.2546 53.5854C43.7387 53.0971 45.3788 53.0501 45.7938 52.9656C46.2187 52.8811 45.7642 53.0407 45.7839 53.0783M45.7247 52.5806C46.4756 52.5524 47.7501 53.1253 48.4319 53.5948C49.1136 54.0644 49.746 54.6466 49.8151 55.3979C49.8843 56.1492 49.2915 57.5109 48.8567 58.0932C48.422 58.6661 47.9477 58.6755 47.2166 58.8821C46.4854 59.0793 45.1713 59.577 44.4797 59.314C43.7782 59.0511 43.2842 57.9148 43.0273 57.3043C42.7803 56.7033 42.8001 56.3089 42.9483 55.6985C43.0866 55.0786 43.3138 54.1113 43.8671 53.623C44.4204 53.1347 45.942 52.9562 46.2779 52.7684C46.6238 52.59 45.8926 52.4679 45.9025 52.5336" stroke="#1E1E1E" stroke-linecap="round"/>
<path d="M59.4127 52.8285C60.1932 52.7252 61.3789 52.8285 62.0211 53.2417C62.6633 53.6549 63.0289 54.5847 63.2562 55.3172C63.4735 56.0591 63.6217 57.0639 63.3352 57.6556C63.0487 58.2378 62.1792 58.5383 61.537 58.8576C60.8948 59.1769 60.2426 59.7216 59.5016 59.5808C58.7606 59.4399 57.5848 58.6323 57.0809 58.0124C56.577 57.3926 56.4486 56.5568 56.4881 55.8713C56.5375 55.1857 56.8636 54.3968 57.3675 53.8991C57.8615 53.4014 59.0965 53.0351 59.472 52.8661C59.8474 52.697 59.5708 52.8661 59.6103 52.8943M59.8672 52.2087C60.6082 52.0772 61.4777 52.7252 62.11 53.2699C62.7424 53.824 63.513 54.688 63.6711 55.5144C63.8391 56.3314 63.4538 57.5804 63.0882 58.1815C62.7226 58.7825 62.1891 58.961 61.4975 59.1018C60.8058 59.2521 59.6498 59.3084 58.9384 59.0361C58.2271 58.7637 57.5848 58.05 57.239 57.4678C56.9031 56.8949 56.7845 56.2845 56.8932 55.5707C57.0118 54.857 57.3773 53.7489 57.9306 53.2042C58.4839 52.6689 59.9067 52.3402 60.2031 52.3308C60.4995 52.3308 59.6893 53.1384 59.7091 53.176" fill="white"/>
<path d="M60.0845 52.4247C60.7465 52.4717 61.5468 53.1854 62.0606 53.6831C62.5843 54.1902 62.9993 54.7537 63.2067 55.4393C63.4241 56.1154 63.6909 57.1297 63.3253 57.7589C62.9597 58.3881 61.7444 58.9328 61.0331 59.1957C60.3118 59.4681 59.6597 59.6371 59.0273 59.3836C58.395 59.13 57.6836 58.3599 57.2192 57.6556C56.745 56.9606 56.1324 55.8713 56.2213 55.1951C56.3103 54.5283 57.1106 54.0118 57.733 53.6268C58.3555 53.2417 59.551 53.0351 59.966 52.8943C60.381 52.7534 60.1932 52.7816 60.2031 52.7816M59.9462 52.6595C60.7762 52.6031 61.8927 52.7252 62.4262 53.2136C62.9696 53.7113 63.0684 54.9603 63.1672 55.6271C63.266 56.3032 63.3945 56.6413 63.0091 57.2424C62.6238 57.8434 61.5567 58.9703 60.8552 59.2145C60.1537 59.4681 59.4226 58.9516 58.8199 58.745C58.2172 58.529 57.6243 58.4632 57.239 57.9373C56.8438 57.4114 56.3794 56.322 56.4683 55.5801C56.5573 54.8288 57.2489 54.0024 57.7824 53.4671C58.316 52.9318 59.2941 52.4623 59.6795 52.359C60.0648 52.2463 60.0055 52.6219 60.1241 52.791" stroke="#1E1E1E" stroke-linecap="round"/>
<path d="M42.0033 36.2362V36.8945H39.3223V36.2362H42.0033Z" fill="#1E1E1E"/>
<path d="M51.4486 45.542C51.2167 45.542 51.0048 45.4854 50.8131 45.3722C50.6232 45.2589 50.4716 45.1074 50.3584 44.9175C50.2452 44.7257 50.1886 44.5139 50.1886 44.282C50.1886 44.0501 50.2452 43.8392 50.3584 43.6493C50.4716 43.4576 50.6232 43.3051 50.8131 43.1919C51.0048 43.0786 51.2167 43.022 51.4486 43.022C51.6805 43.022 51.8914 43.0786 52.0813 43.1919C52.273 43.3051 52.4255 43.4576 52.5387 43.6493C52.6519 43.8392 52.7085 44.0501 52.7085 44.282C52.7085 44.5139 52.6519 44.7257 52.5387 44.9175C52.4255 45.1074 52.273 45.2589 52.0813 45.3722C51.8914 45.4854 51.6805 45.542 51.4486 45.542ZM51.4486 44.9942C51.58 44.9942 51.6996 44.9622 51.8074 44.8983C51.9151 44.8344 52.0009 44.7486 52.0649 44.6408C52.1288 44.5331 52.1607 44.4135 52.1607 44.282C52.1607 44.1505 52.1288 44.0309 52.0649 43.9232C52.0009 43.8155 51.9151 43.7296 51.8074 43.6657C51.6996 43.6018 51.58 43.5699 51.4486 43.5699C51.3171 43.5699 51.1975 43.6018 51.0897 43.6657C50.982 43.7296 50.8962 43.8155 50.8323 43.9232C50.7684 44.0309 50.7364 44.1505 50.7364 44.282C50.7364 44.4135 50.7684 44.5331 50.8323 44.6408C50.8962 44.7486 50.982 44.8344 51.0897 44.8983C51.1975 44.9622 51.3171 44.9942 51.4486 44.9942Z" fill="#1E1E1E"/>
<path d="M18.2464 58.3104V54.3608H18.9166V58.3104H18.2464ZM16.6067 56.6707V56.0005H20.5563V56.6707H16.6067Z" fill="#1E1E1E"/>
<path d="M34.7571 58.6572V54.7076H35.4274V58.6572H34.7571ZM33.1174 57.0175V56.3473H37.0671V57.0175H33.1174Z" fill="#1E1E1E"/>
<path d="M46.707 58.137V54.1873H47.3772V58.137H46.707ZM45.0673 56.4973V55.827H49.0169V56.4973H45.0673Z" fill="#1E1E1E"/>
<path d="M60.3671 58.137V54.1873H61.0374V58.137H60.3671ZM58.7274 56.4973V55.827H62.6771V56.4973H58.7274Z" fill="#1E1E1E"/>
<path d="M27.9315 45.5759C27.6996 45.5759 27.4877 45.5193 27.296 45.4061C27.1061 45.2929 26.9545 45.1413 26.8413 44.9514C26.7281 44.7597 26.6715 44.5479 26.6715 44.3159C26.6715 44.084 26.7281 43.8731 26.8413 43.6832C26.9545 43.4915 27.1061 43.339 27.296 43.2258C27.4877 43.1126 27.6996 43.056 27.9315 43.056C28.1634 43.056 28.3743 43.1126 28.5642 43.2258C28.7559 43.339 28.9084 43.4915 29.0216 43.6832C29.1348 43.8731 29.1914 44.084 29.1914 44.3159C29.1914 44.5479 29.1348 44.7597 29.0216 44.9514C28.9084 45.1413 28.7559 45.2929 28.5642 45.4061C28.3743 45.5193 28.1634 45.5759 27.9315 45.5759ZM27.9315 45.0281C28.0629 45.0281 28.1826 44.9961 28.2903 44.9322C28.398 44.8683 28.4838 44.7825 28.5478 44.6748C28.6117 44.567 28.6436 44.4474 28.6436 44.3159C28.6436 44.1845 28.6117 44.0649 28.5478 43.9571C28.4838 43.8494 28.398 43.7636 28.2903 43.6997C28.1826 43.6357 28.0629 43.6038 27.9315 43.6038C27.8 43.6038 27.6804 43.6357 27.5727 43.6997C27.4649 43.7636 27.3791 43.8494 27.3152 43.9571C27.2513 44.0649 27.2193 44.1845 27.2193 44.3159C27.2193 44.4474 27.2513 44.567 27.3152 44.6748C27.3791 44.7825 27.4649 44.8683 27.5727 44.9322C27.6804 44.9961 27.8 45.0281 27.9315 45.0281Z" fill="#1E1E1E"/>
</svg>
