<svg width="84" height="118" viewBox="0 0 84 118" fill="none" xmlns="http://www.w3.org/2000/svg">
<path d="M22.5112 2.12646C34.6902 1.00664 38.2959 -1.44585 62.0953 2.12646C73.118 -0.501872 81.0153 10.7796 81.8873 20.8209C84.131 41.9772 81.7697 59.3205 81.8873 96.293C80.5744 108.99 72.7653 113.46 62.0953 114.987C46.634 117.616 32.4856 118.393 22.5112 114.987C6.11913 113.118 2.25871 109.12 2.71922 96.293C0.514662 74.1835 5.42347 57.9693 2.71922 20.8209C-0.416151 8.59549 5.98196 1.58969 22.5112 2.12646Z" fill="white"/>
<path d="M22.5112 2.12643C36.395 2.02463 47.751 4.30129 62.0953 2.12643M22.5112 2.12643C36.5714 3.06116 51.337 2.8483 62.0953 2.12643M22.5112 2.12643C8.18651 1.30276 0.945768 10.0022 2.71921 20.8209M22.5112 2.12643C8.79399 2.43184 0.465665 8.53993 2.71921 20.8209M62.0953 2.12643C73.412 3.86631 80.4078 10.1873 81.8873 20.8209M62.0953 2.12643C76.0575 2.17271 81.4954 7.22577 81.8873 20.8209M81.8873 20.8209C82.8475 38.4881 81.3778 55.1188 81.8873 96.2929M81.8873 20.8209C81.7011 37.0259 80.6037 54.9245 81.8873 96.2929M81.8873 96.2929C81.0545 109.99 75.4108 116.737 62.0953 114.987M81.8873 96.2929C81.9755 107.695 73.461 113.146 62.0953 114.987M62.0953 114.987C55.364 113.673 44.743 113.692 22.5112 114.987M62.0953 114.987C49.0345 115.441 37.6492 114.293 22.5112 114.987M22.5112 114.987C9.95996 114.108 1.84719 109.305 2.71921 96.2929M22.5112 114.987C9.53864 116.246 3.73821 108.676 2.71921 96.2929M2.71921 96.2929C3.61083 67.4275 0.397078 36.6187 2.71921 20.8209M2.71921 96.2929C2.24891 79.4401 3.20911 63.2259 2.71921 20.8209" stroke="#1E1E1E" stroke-width="2" stroke-linecap="round"/>
<path d="M11.3564 83.7737C22.1245 83.7737 65.2162 83.7737 75.9842 83.7737" stroke="#1E1E1E" stroke-width="2" stroke-linecap="round"/>
<path d="M23.8119 2.02179C34.9033 2.02179 45.9946 2.02179 59.4669 2.02179C61.8968 2.02179 63.1216 3.16937 63.1216 5.47379C63.1216 7.42653 63.1216 9.37927 63.1216 12.3685C63.1216 14.6637 61.8968 15.8113 59.4669 15.8113C51.5893 15.8113 43.7117 15.8113 23.8119 15.8113C21.3722 15.8113 20.1572 14.6637 20.1572 12.3685C20.1572 9.86977 20.1572 7.371 20.1572 5.47379C20.1572 3.16937 21.3722 2.02179 23.8119 2.02179Z" fill="white"/>
<path d="M23.8119 2.02179C35.7165 2.02179 47.6309 2.02179 59.4669 2.02179M23.8119 2.02179C37.8721 2.02179 51.942 2.02179 59.4669 2.02179M23.8119 2.02179C21.3722 2.02179 20.1572 3.16937 20.1572 5.47379M59.4669 2.02179C61.8968 2.02179 63.1216 3.16937 63.1216 5.47379M63.1216 5.47379C63.1216 6.99156 63.1216 8.50933 63.1216 12.3685M63.1216 5.47379C63.1216 7.74119 63.1216 10.0178 63.1216 12.3685M63.1216 12.3685C63.1216 14.6637 61.8968 15.8113 59.4669 15.8113M59.4669 15.8113C51.7167 15.8113 43.9762 15.8113 23.8119 15.8113M59.4669 15.8113C50.3547 15.8113 41.2426 15.8113 23.8119 15.8113M23.8119 15.8113C21.3722 15.8113 20.1572 14.6637 20.1572 12.3685M20.1572 12.3685C20.1572 9.79573 20.1572 7.22293 20.1572 5.47379M20.1572 12.3685C20.1572 10.1844 20.1572 8.00032 20.1572 5.47379" stroke="#1E1E1E" stroke-width="2" stroke-linecap="round"/>
<path d="M34.597 6.02087C34.597 5.66931 34.8249 5.49353 35.2806 5.49353C35.3588 5.49353 35.4271 5.51469 35.4857 5.55701C35.5443 5.59932 35.5785 5.65792 35.5883 5.73279C35.6176 5.93136 35.6436 6.1283 35.6664 6.32361C35.6892 6.51892 35.7103 6.73865 35.7299 6.98279C35.7526 7.22367 35.7738 7.50362 35.7933 7.82263C35.8161 8.13839 35.8405 8.51599 35.8666 8.95544C35.8666 9.00102 35.8731 9.03357 35.8861 9.0531C35.9024 9.07263 35.9203 9.0824 35.9398 9.0824C35.9691 9.0824 35.9984 9.0531 36.0277 8.99451C36.1384 8.75037 36.2621 8.53227 36.3988 8.34021C36.5355 8.1449 36.682 7.98051 36.8383 7.84705C36.9945 7.71033 37.1589 7.60779 37.3314 7.53943C37.5072 7.46781 37.6862 7.43201 37.8685 7.43201C38.1094 7.43201 38.3275 7.50037 38.5228 7.63708C38.7181 7.7738 38.8842 7.96749 39.0209 8.21814C39.1576 8.46879 39.2634 8.77315 39.3383 9.13123C39.4131 9.48604 39.4506 9.88318 39.4506 10.3226C39.4506 10.4431 39.4408 10.5424 39.4213 10.6205C39.405 10.6954 39.3757 10.7556 39.3334 10.8011C39.2911 10.8467 39.2325 10.8776 39.1576 10.8939C39.0827 10.9135 38.9899 10.9232 38.8793 10.9232C38.7263 10.9232 38.6156 10.8939 38.5472 10.8353C38.4821 10.7767 38.4496 10.6856 38.4496 10.5619C38.4496 10.2559 38.4284 9.96781 38.3861 9.69763C38.347 9.42419 38.2917 9.18494 38.2201 8.97986C38.1485 8.77478 38.0638 8.61202 37.9662 8.49158C37.8718 8.37113 37.7692 8.31091 37.6586 8.31091C37.4079 8.31091 37.1573 8.51436 36.9066 8.92126C36.6592 9.32817 36.4004 9.94177 36.1302 10.7621C36.1042 10.837 36.0749 10.8988 36.0424 10.9476C36.0098 10.9965 35.9707 11.0355 35.9252 11.0648C35.8829 11.0941 35.8308 11.1136 35.7689 11.1234C35.7071 11.1364 35.6338 11.1429 35.5492 11.1429C35.3767 11.1429 35.253 11.1104 35.1781 11.0453C35.1065 10.9802 35.0674 10.8728 35.0609 10.723C35.0414 10.1566 35.0056 9.61625 34.9535 9.10193C34.9047 8.58435 34.8526 8.11723 34.7972 7.70056C34.7452 7.28064 34.698 6.92582 34.6556 6.63611C34.6166 6.34314 34.597 6.13806 34.597 6.02087ZM41.1302 8.99451C41.1302 9.4307 41.197 9.76762 41.3304 10.0052C41.4639 10.2429 41.6576 10.3617 41.9115 10.3617C42.071 10.3617 42.2175 10.3145 42.351 10.2201C42.4877 10.1257 42.6049 9.99386 42.7025 9.82458C42.8002 9.65531 42.875 9.45512 42.9271 9.224C42.9825 8.98962 43.0101 8.73572 43.0101 8.46228C43.0101 8.29626 43.0036 8.15304 42.9906 8.03259C42.9776 7.90889 42.9629 7.79985 42.9467 7.70544C42.9336 7.60779 42.9206 7.52153 42.9076 7.44666C42.8946 7.37179 42.8881 7.30017 42.8881 7.23181C42.8881 7.12764 42.932 7.05278 43.0199 7.0072C43.1078 6.95837 43.2478 6.93396 43.4398 6.93396C43.684 6.93396 43.8728 6.9893 44.0062 7.09998C44.1429 7.21065 44.2113 7.37179 44.2113 7.58337C44.2113 8.15955 44.1543 8.67712 44.0404 9.13611C43.9297 9.59509 43.7686 9.98572 43.557 10.308C43.3487 10.627 43.0948 10.8728 42.7953 11.0453C42.4958 11.2178 42.1605 11.3041 41.7894 11.3041C41.5258 11.3041 41.2816 11.2487 41.057 11.1381C40.8357 11.0306 40.6436 10.8793 40.4808 10.684C40.3213 10.4854 40.196 10.251 40.1049 9.98083C40.0137 9.7074 39.9681 9.40792 39.9681 9.0824C39.9681 8.9587 39.9714 8.82686 39.9779 8.68689C39.9844 8.54692 39.9942 8.39718 40.0072 8.23767C40.0202 8.07491 40.0365 7.89913 40.056 7.71033C40.0788 7.52153 40.1032 7.31645 40.1293 7.09509C40.139 7.00069 40.183 6.92582 40.2611 6.87048C40.3425 6.81189 40.445 6.78259 40.5687 6.78259C40.6794 6.78259 40.7836 6.79399 40.8812 6.81677C40.9789 6.83956 41.0619 6.87048 41.1302 6.90955C41.2019 6.94861 41.2572 6.99418 41.2963 7.04626C41.3386 7.09835 41.3597 7.15369 41.3597 7.21228C41.3597 7.27087 41.3467 7.36365 41.3207 7.4906C41.2979 7.6143 41.2719 7.75753 41.2426 7.92029C41.2165 8.07979 41.1905 8.25395 41.1644 8.44275C41.1416 8.6283 41.1302 8.81222 41.1302 8.99451ZM44.9974 9.59509C44.9356 8.83337 44.864 8.07654 44.7826 7.32458C44.7045 6.57263 44.5889 5.82231 44.4359 5.07361C44.4294 5.04757 44.4261 5.02478 44.4261 5.00525C44.4261 4.98246 44.4261 4.9613 44.4261 4.94177C44.4261 4.8669 44.4408 4.8018 44.4701 4.74646C44.5026 4.69112 44.545 4.64555 44.597 4.60974C44.6491 4.57068 44.7077 4.54138 44.7728 4.52185C44.8412 4.50232 44.9128 4.49255 44.9877 4.49255C45.1862 4.49255 45.323 4.58533 45.3978 4.77087C45.4304 4.86528 45.4629 5.00037 45.4955 5.17615C45.5313 5.35193 45.5671 5.55538 45.6029 5.7865C45.642 6.01762 45.6794 6.27153 45.7152 6.54822C45.751 6.82166 45.7852 7.10323 45.8177 7.39294C45.8275 7.47432 45.8536 7.51501 45.8959 7.51501C45.9317 7.51501 45.9691 7.4906 46.0082 7.44177C46.4834 6.81677 47.0466 6.50427 47.6976 6.50427C47.9418 6.50427 48.1696 6.55798 48.3812 6.66541C48.5928 6.77283 48.7767 6.91931 48.933 7.10486C49.0892 7.29041 49.2113 7.51013 49.2992 7.76404C49.3903 8.01794 49.4359 8.29138 49.4359 8.58435C49.4359 8.85779 49.392 9.11169 49.3041 9.34607C49.2194 9.58044 49.1006 9.78227 48.9476 9.95154C48.7946 10.1208 48.6123 10.2543 48.4008 10.3519C48.1924 10.4463 47.9646 10.4935 47.7172 10.4935C47.4112 10.4935 47.1117 10.4349 46.8187 10.3177C46.5258 10.1973 46.2491 10.0362 45.9886 9.83435C45.9594 9.80831 45.9284 9.79529 45.8959 9.79529C45.8536 9.79529 45.8145 9.81807 45.7787 9.86365C45.7266 9.92224 45.6713 9.9613 45.6127 9.98083C45.5541 9.99711 45.4825 10.0052 45.3978 10.0052C45.1407 10.0052 45.0072 9.86853 44.9974 9.59509ZM47.5267 7.41248C47.3965 7.41248 47.2663 7.4434 47.1361 7.50525C47.0092 7.56384 46.8887 7.64848 46.7748 7.75916C46.6608 7.86983 46.5551 8.0033 46.4574 8.15955C46.363 8.31254 46.2832 8.48344 46.2181 8.67224C46.2116 8.68201 46.2067 8.69666 46.2035 8.71619C46.2002 8.73572 46.1986 8.75199 46.1986 8.76501C46.1986 8.82035 46.2181 8.86267 46.2572 8.89197C46.3744 8.99288 46.4948 9.08728 46.6185 9.17517C46.7455 9.26306 46.8708 9.33956 46.9945 9.40466C47.1182 9.46977 47.2403 9.52185 47.3607 9.56091C47.4812 9.59672 47.5935 9.61462 47.6976 9.61462C47.932 9.61462 48.1094 9.54626 48.2299 9.40955C48.3536 9.27283 48.4154 9.07426 48.4154 8.81384C48.4154 8.61202 48.3926 8.42647 48.347 8.2572C48.3015 8.08468 48.2396 7.93656 48.1615 7.81287C48.0834 7.68591 47.989 7.58826 47.8783 7.5199C47.7709 7.44828 47.6537 7.41248 47.5267 7.41248Z" fill="#1E1E1E"/>
<path d="M31.872 60.6454C41.4839 62.4408 48.2739 62.2187 56.6708 60.6454M31.872 60.6454C36.4673 61.2839 42.885 60.1826 56.6708 60.6454M31.872 60.6454C28.1488 60.7749 27.6001 61.3765 27.9234 64.375M31.872 60.6454C29.9614 60.3307 26.6693 61.0526 27.9234 64.375M56.6708 60.6454C58.6892 59.3127 60.59 61.2747 60.6194 64.375M56.6708 60.6454C59.7964 59.2479 58.4149 60.5065 60.6194 64.375M60.6194 64.375C61.1485 66.7349 61.3053 68.1972 60.6194 71.8343M60.6194 64.375C60.5607 66.8182 60.3843 69.752 60.6194 71.8343M60.6194 71.8343C62.1283 72.5747 59.0714 75.4621 56.6708 75.5639M60.6194 71.8343C62.4027 74.1109 57.8858 75.9156 56.6708 75.5639M56.6708 75.5639C49.5281 74.5737 42.9732 76.2025 31.872 75.5639M56.6708 75.5639C50.1454 75.6195 44.2567 75.3881 31.872 75.5639M31.872 75.5639C29.109 76.8873 26.8946 73.6112 27.9234 71.8343M31.872 75.5639C27.5609 76.8318 27.4041 73.7222 27.9234 71.8343M27.9234 71.8343C27.3649 69.7612 27.5805 67.355 27.9234 64.375M27.9234 71.8343C28.1978 68.771 28.0802 65.865 27.9234 64.375" stroke="#1E1E1E" stroke-linecap="round"/>
<path d="M39.1627 59.7035C38.9177 56.6587 39.5252 44.4981 37.1737 41.3885C34.8123 38.2789 26.9935 41.0461 25.0437 41.0368M38.614 60.6012C38.565 57.6953 40.309 45.4606 38.222 42.0456C36.1351 38.6306 28.1987 40.3797 26.0921 40.1299" stroke="#1E1E1E" stroke-linecap="round"/>
<path d="M34.1064 60.7432C33.7928 59.0033 35.0666 52.1178 32.9012 50.3317C30.7358 48.5455 23.1326 50.1003 21.1044 50.0263M34.8216 60.5119C34.4101 58.8368 34.7138 51.4423 32.3623 49.545C30.0108 47.6478 22.6819 48.9805 20.7321 49.1286" stroke="#1E1E1E" stroke-linecap="round"/>
<path d="M47.7709 59.6582C47.9669 56.6597 47.0067 44.7859 49.221 41.6671C51.4256 38.5575 58.9407 41.0748 61.0276 40.9915M48.6233 60.593C49.0055 57.4926 48.0355 44.4065 50.2792 40.9915C52.5229 37.5765 60.1458 40.2234 62.0956 40.1123" stroke="#1E1E1E" stroke-linecap="round"/>
<path d="M52.063 60.6424C52.2884 59.0321 51.0734 51.9708 53.4151 50.2216C55.7569 48.4725 64.0264 50.2216 66.0938 50.1476M52.8958 60.4111C53.2976 58.6712 52.2296 51.2767 54.3949 49.435C56.5701 47.5933 63.9774 49.2221 65.8978 49.361" stroke="#1E1E1E" stroke-linecap="round"/>
<path d="M62.4262 38.259C62.8182 38.2867 63.3081 38.1294 64.1213 38.259C66.2279 39.8785 66.0025 37.6482 64.9737 39.0549C65.2481 40.4246 65.0521 41.239 64.9737 41.9794C65.591 44.1079 62.7104 41.1464 64.1213 42.7753C63.6216 42.9603 63.3473 42.7753 62.4262 42.7753C62.2107 41.2945 60.3393 40.9984 61.5836 41.9794C61.8188 41.1557 61.4856 40.0914 61.5836 39.0549C61.466 38.6662 62.3675 36.8893 62.4262 38.259Z" fill="white"/>
<path d="M62.4263 38.259C62.975 38.3145 63.4845 38.2775 64.1213 38.259M62.4263 38.259C62.9946 38.2405 63.5139 38.259 64.1213 38.259M62.4263 38.259C62.0344 37.898 61.1917 38.9531 61.5836 39.0549M62.4263 38.259C62.005 37.9258 61.5445 38.4256 61.5836 39.0549M64.1213 38.259C64.9542 38.3793 64.817 38.2034 64.9738 39.0549M64.1213 38.259C64.1605 38.4533 64.6308 38.9438 64.9738 39.0549M64.9738 39.0549C64.9248 39.9063 64.8758 40.6744 64.9738 41.9794M64.9738 39.0549C65.0032 40.0359 65.0032 41.1094 64.9738 41.9794M64.9738 41.9794C64.7876 42.331 65.013 42.4699 64.1213 42.7753M64.9738 41.9794C65.5323 42.0256 64.2585 42.9511 64.1213 42.7753M64.1213 42.7753C63.602 42.7753 62.9946 42.803 62.4263 42.7753M64.1213 42.7753C63.7 42.803 63.2885 42.7753 62.4263 42.7753M62.4263 42.7753C62.2205 42.803 61.8678 42.5254 61.5836 41.9794M62.4263 42.7753C61.1525 42.5624 61.907 43.0066 61.5836 41.9794M61.5836 41.9794C61.5934 41.3223 61.5641 40.7485 61.5836 39.0549M61.5836 41.9794C61.5836 40.9428 61.613 39.9803 61.5836 39.0549" stroke="#1E1E1E" stroke-linecap="round"/>
<path d="M64.9939 39.4747C65.8365 39.0675 69.2463 37.4109 70.1085 36.8834M64.5824 39.2248C65.3662 38.7436 68.8935 36.9019 69.7852 36.4391" stroke="#1E1E1E" stroke-linecap="round"/>
<path d="M70.2366 36.859C70.2072 38.0713 70.3248 42.856 70.3346 44.0314M69.7957 36.6739C69.7173 37.9325 70.0799 43.1429 70.1289 44.383" stroke="#1E1E1E" stroke-linecap="round"/>
<path d="M70.4975 43.8982C69.7823 43.5835 66.4803 42.2878 65.6671 42.0009M70.2428 44.4627C69.5079 44.074 66.2844 41.9177 65.4907 41.4642" stroke="#1E1E1E" stroke-linecap="round"/>
<path d="M66.3697 47.2584C66.9086 47.4342 67.3201 47.1288 68.0648 47.2584C70.142 48.1376 68.9564 49.3222 68.9172 48.0543C69.0152 49.4332 68.8878 50.479 68.9172 50.9788C70.9258 52.1819 67.134 53.7829 68.0648 51.7747C67.5455 51.858 67.2809 51.8672 66.3697 51.7747C67.9668 53.5146 64.4885 52.478 65.5271 50.9788C65.8504 50.0533 65.5271 48.9335 65.5271 48.0543C64.7138 45.7314 63.783 46.1201 66.3697 47.2584Z" fill="white"/>
<path d="M66.3697 47.2584C66.6931 47.3047 67.0752 47.3139 68.0648 47.2584M66.3697 47.2584C66.8204 47.2769 67.2418 47.2769 68.0648 47.2584M66.3697 47.2584C66.3893 47.0455 65.0666 47.0641 65.5271 48.0543M66.3697 47.2584C66.4775 47.0641 65.9582 48.008 65.5271 48.0543M68.0648 47.2584C68.8192 46.8882 69.1426 47.4157 68.9172 48.0543M68.0648 47.2584C68.8486 47.8137 68.6233 47.7859 68.9172 48.0543M68.9172 48.0543C68.927 48.7114 68.8878 49.2852 68.9172 50.9788M68.9172 48.0543C68.8878 48.9798 68.8682 49.8405 68.9172 50.9788M68.9172 50.9788C68.3979 51.6266 69.025 51.9228 68.0648 51.7747M68.9172 50.9788C68.5547 51.5989 67.9668 51.6081 68.0648 51.7747M68.0648 51.7747C67.5259 51.7839 67.0458 51.7469 66.3697 51.7747M68.0648 51.7747C67.4475 51.7562 66.7813 51.7839 66.3697 51.7747M66.3697 51.7747C66.3207 52.1449 65.2234 51.386 65.5271 50.9788M66.3697 51.7747C65.968 51.2287 66.213 50.9788 65.5271 50.9788M65.5271 50.9788C65.4683 50.1921 65.5663 49.5073 65.5271 48.0543M65.5271 50.9788C65.5663 49.9052 65.5565 48.8965 65.5271 48.0543" stroke="#1E1E1E" stroke-linecap="round"/>
<path d="M69.1921 48.4093C70.1817 47.9558 73.6208 45.9106 74.4928 45.4756M68.9177 48.1317C69.9171 47.7337 73.4934 46.2993 74.385 45.8273" stroke="#1E1E1E" stroke-linecap="round"/>
<path d="M74.5426 45.5253C74.523 46.8024 74.4153 52.0313 74.3565 53.3547M74.2977 45.1736C74.2193 46.3582 74.2389 51.5871 74.1997 52.8735" stroke="#1E1E1E" stroke-linecap="round"/>
<path d="M74.3528 53.3788C73.5298 53.0734 70.365 51.5649 69.5126 51.1947M74.0589 53.1937C73.1673 52.8143 70.1299 51.1855 69.2872 50.7598" stroke="#1E1E1E" stroke-linecap="round"/>
<path d="M23.5417 37.6476C23.9728 37.5828 24.7272 37.7124 25.2367 37.6476C26.3929 37.4533 26.1969 37.7957 26.0892 38.4435C26.3733 39.6837 26.05 40.933 26.0892 41.368C24.639 42.2102 25.0016 41.4328 25.2367 42.1639C24.7566 42.2102 24.2177 42.2194 23.5417 42.1639C21.1705 41.3032 21.6311 42.5526 22.699 41.368C22.5423 40.3315 22.8754 39.4708 22.699 38.4435C24.6195 36.4815 23.963 39.1006 23.5417 37.6476Z" fill="white"/>
<path d="M23.5416 37.6476C24.1393 37.6569 24.6684 37.6291 25.2367 37.6476M23.5416 37.6476C23.9826 37.6199 24.4529 37.6569 25.2367 37.6476M23.5416 37.6476C22.797 37.879 22.9734 37.333 22.699 38.4435M23.5416 37.6476C23.6592 37.3237 22.2973 37.6106 22.699 38.4435M25.2367 37.6476C26.0793 37.4255 25.7266 38.0734 26.0891 38.4435M25.2367 37.6476C25.2759 38.1104 25.8932 38.2677 26.0891 38.4435M26.0891 38.4435C26.0303 39.2302 26.0303 40.0354 26.0891 41.368M26.0891 38.4435C26.0891 39.1839 26.0401 39.841 26.0891 41.368M26.0891 41.368C26.3929 41.877 25.4523 42.5989 25.2367 42.1639M26.0891 41.368C26.0597 41.8493 26.5202 41.9233 25.2367 42.1639M25.2367 42.1639C24.6684 42.1824 24.1393 42.1824 23.5416 42.1639M25.2367 42.1639C24.59 42.1547 24.012 42.1824 23.5416 42.1639M23.5416 42.1639C22.601 42.5341 23.2673 42.0066 22.699 41.368M23.5416 42.1639C23.5416 42.1084 22.5814 41.5901 22.699 41.368M22.699 41.368C22.6206 40.5906 22.6696 39.8503 22.699 38.4435M22.699 41.368C22.7088 40.6277 22.6794 39.8873 22.699 38.4435" stroke="#1E1E1E" stroke-linecap="round"/>
<path d="M22.7448 38.6505C21.8434 38.1507 18.2181 36.3183 17.3657 35.9019M22.3529 38.2988C21.3829 37.8361 17.8556 36.7163 17.0521 36.2628" stroke="#1E1E1E" stroke-linecap="round"/>
<path d="M17.3159 35.9515C17.3551 37.2472 17.6882 42.4761 17.6882 43.6792M17.9038 35.6183C17.9136 36.8215 17.5021 41.8838 17.5119 43.1794" stroke="#1E1E1E" stroke-linecap="round"/>
<path d="M17.6821 43.7126C18.4463 43.2961 21.229 41.3804 21.9736 41.001M17.3685 43.4997C18.2504 43.1296 21.8854 41.6951 22.6399 41.2601" stroke="#1E1E1E" stroke-linecap="round"/>
<path d="M20.1797 47.05C20.7872 47.0315 21.2379 47.05 21.8747 47.05C23.756 47.3369 24.0793 47.0223 22.7272 47.8459C22.394 48.7992 22.8546 49.9653 22.7272 50.7704C21.5612 51.7329 24.5986 53.1952 21.8747 51.5663C21.2673 51.5108 20.4834 51.3812 20.1797 51.5663C20.7186 52.3622 19.2489 51.3442 19.3371 50.7704C19.2293 50.0486 19.2685 49.0028 19.3371 47.8459C17.4558 47.6886 19.6898 47.2444 20.1797 47.05Z" fill="white"/>
<path d="M20.1797 47.05C20.65 47.0037 21.2084 47.087 21.8747 47.05M20.1797 47.05C20.6989 47.0222 21.1497 47.0593 21.8747 47.05M20.1797 47.05C19.0235 46.4762 19.7681 47.485 19.337 47.8459M20.1797 47.05C19.4644 47.2166 19.2978 46.8094 19.337 47.8459M21.8747 47.05C21.9139 46.6983 22.2372 47.8367 22.7271 47.8459M21.8747 47.05C22.247 46.6335 22.0315 47.5313 22.7271 47.8459M22.7271 47.8459C22.7467 48.7991 22.6292 49.7801 22.7271 50.7704M22.7271 47.8459C22.7369 48.4475 22.7271 49.1045 22.7271 50.7704M22.7271 50.7704C23.2856 50.9277 22.198 51.992 21.8747 51.5663M22.7271 50.7704C22.9427 51.2794 21.8943 51.4182 21.8747 51.5663M21.8747 51.5663C21.4044 51.557 20.9635 51.5756 20.1797 51.5663M21.8747 51.5663C21.4828 51.5848 21.0811 51.557 20.1797 51.5663M20.1797 51.5663C19.1998 50.9925 18.8961 51.1683 19.337 50.7704M20.1797 51.5663C19.2292 51.7514 19.0529 50.6778 19.337 50.7704M19.337 50.7704C19.337 49.7339 19.3076 48.8177 19.337 47.8459M19.337 50.7704C19.288 49.7246 19.3762 48.7436 19.337 47.8459" stroke="#1E1E1E" stroke-linecap="round"/>
<path d="M19.0988 48.0621C18.217 47.6457 15.16 45.804 14.3762 45.369M19.5985 47.7105C18.6775 47.3773 15.1306 46.0724 14.239 45.767" stroke="#1E1E1E" stroke-linecap="round"/>
<path d="M14.3167 45.4187C14.4147 46.7051 14.3755 51.823 14.3951 53.0168M14.0424 45.1226C14.1403 46.3072 14.2089 51.2029 14.2579 52.48" stroke="#1E1E1E" stroke-linecap="round"/>
<path d="M14.3986 53.0409C15.1825 52.6244 18.4256 50.7642 19.1213 50.394M14.1145 52.8003C14.8592 52.4116 18.1415 50.9123 19.0037 50.6439" stroke="#1E1E1E" stroke-linecap="round"/>
<path d="M32.4816 62.9713C32.8492 63.7241 35.0156 65.5563 35.0999 67.1844C35.1939 68.8123 33.2601 71.8275 33.0266 72.7482M32.8299 62.3911C33.1038 63.3215 34.3029 66.4206 34.496 68.1208C34.6892 69.8211 34.1464 71.7656 33.9787 72.5741" stroke="#1E1E1E" stroke-linecap="round"/>
<path d="M33.2985 62.6147C32.9459 63.4542 30.8741 66.472 30.9212 68.1841C30.9781 69.8961 33.281 72.0964 33.6107 72.8869M33.8312 63.3183C33.663 64.1083 31.8675 66.3713 31.7748 67.9377C31.6821 69.5041 33.1878 71.8481 33.2753 72.7261" stroke="#1E1E1E" stroke-linecap="round"/>
<path d="M33.6314 68.1925C33.4374 68.2796 32.8677 68.2152 32.6327 68.2193M33.87 67.9001C33.6368 67.9879 32.5307 68.0352 32.3452 68.0663" stroke="#1E1E1E" stroke-linecap="round"/>
<path d="M53.6891 63.5197C54.0948 64.2255 56.1922 66.0035 56.3899 67.4629C56.5777 68.9133 55.1703 71.4841 54.8165 72.2588M54.0224 63.1435C54.3628 63.9894 55.7402 66.7521 55.8067 68.4546C55.8826 70.1476 54.817 72.731 54.4787 73.3202" stroke="#1E1E1E" stroke-linecap="round"/>
<path d="M54.5793 62.8934C54.3302 63.5551 52.7758 66.1286 52.7221 67.6944C52.6585 69.251 54.0637 71.4671 54.2474 72.2787M55.1521 63.6426C54.8668 64.4346 52.5232 67.0775 52.275 68.6744C52.027 70.2806 53.2395 72.6112 53.6441 73.2615" stroke="#1E1E1E" stroke-linecap="round"/>
<path d="M55.2236 67.9371C54.9588 67.9232 53.8017 67.8692 53.4689 67.8843M54.6175 68.4399C54.2867 68.5478 53.1708 68.586 53.0117 68.4773" stroke="#1E1E1E" stroke-linecap="round"/>
<path d="M39.6494 68.6058C41.0799 68.5317 46.6158 68.1523 48.0365 68.0227M39.2771 68.3559C40.835 68.3559 47.2723 68.4947 48.7224 68.4484" stroke="#1E1E1E" stroke-linecap="round"/>
<path d="M39.6345 68.9178C40.3595 69.7878 43.25 73.2305 43.9358 74.0542M39.2034 68.7605C39.899 69.5194 42.9462 72.6382 43.6517 73.5452" stroke="#1E1E1E" stroke-linecap="round"/>
<path d="M43.636 73.804C44.4198 72.9063 47.9569 69.371 48.7408 68.5381M44.1063 73.4893C44.8607 72.6379 47.9667 69.8152 48.6232 68.9545" stroke="#1E1E1E" stroke-linecap="round"/>
<path d="M41.8835 68.2137C41.8639 68.7412 41.2858 70.6107 41.1976 71.1289M41.5994 68.0286C41.7169 68.5932 41.9031 70.805 41.8149 71.4066" stroke="#1E1E1E" stroke-linecap="round"/>
<path d="M43.5944 68.9326C43.6042 69.673 43.7904 72.4956 43.9178 73.2916M44.0941 68.7475C44.0549 69.5156 43.5552 72.8288 43.5846 73.5599" stroke="#1E1E1E" stroke-linecap="round"/>
<path d="M46.1392 68.2611C46.1098 68.7701 46.4528 70.7691 46.4234 71.2781M46.6683 68.002C46.5997 68.4184 46.492 70.3434 46.3254 70.8061" stroke="#1E1E1E" stroke-linecap="round"/>
</svg>
