<svg width="84" height="120" viewBox="0 0 84 120" fill="none" xmlns="http://www.w3.org/2000/svg">
<path d="M21.8692 2.76883C30.1477 4.04727 40.133 -0.252082 61.4962 2.76883C76.3662 5.54352 83.9875 7.97729 81.3098 21.8981C83.0067 46.7567 81.9473 74.532 81.3098 99.1254C82.4966 113.851 75.9836 117.753 61.4962 118.255C49.6866 117.895 37.2786 114.505 21.8692 118.255C12.0704 120.338 4.3117 114.656 2.0557 99.1254C1.00618 67.5432 0.947324 40.0898 2.0557 21.8981C4.87079 12.5134 7.64665 1.84077 21.8692 2.76883Z" fill="white"/>
<path d="M21.8692 2.76879C35.0226 1.56611 52.7959 1.47141 61.4962 2.76879M21.8692 2.76879C36.847 1.84074 50.0887 2.6078 61.4962 2.76879M21.8692 2.76879C6.71477 2.64568 1.94776 9.00948 2.05565 21.8981M21.8692 2.76879C8.96096 4.50179 3.77217 8.10983 2.05565 21.8981M61.4962 2.76879C73.8061 2.65515 80.7506 10.8561 81.3097 21.8981M61.4962 2.76879C72.5407 0.713817 82.6437 7.36171 81.3097 21.8981M81.3097 21.8981C82.2906 47.0218 82.8006 70.9334 81.3097 99.1253M81.3097 21.8981C81.3784 49.6449 80.1523 79.873 81.3097 99.1253M81.3097 99.1253C82.2023 113.662 76.5427 118.605 61.4962 118.255M81.3097 99.1253C82.7123 110.603 73.2862 119.353 61.4962 118.255M61.4962 118.255C47.6071 119.599 36.0819 116.796 21.8692 118.255M61.4962 118.255C50.3045 117.478 38.8284 118.501 21.8692 118.255M21.8692 118.255C8.07818 117.497 2.52647 112.213 2.05565 99.1253M21.8692 118.255C7.71526 116.692 3.30135 112.364 2.05565 99.1253M2.05565 99.1253C1.46713 69.6928 2.41857 42.9971 2.05565 21.8981M2.05565 99.1253C2.1047 79.6552 1.91833 60.0808 2.05565 21.8981" stroke="#1E1E1E" stroke-width="2" stroke-linecap="round"/>
<path d="M10.7023 86.315C21.4821 86.315 64.6206 86.315 75.4003 86.315" stroke="#1E1E1E" stroke-width="2" stroke-linecap="round"/>
<path d="M23.1713 2.66174C36.7956 2.66174 50.4198 2.66174 58.8651 2.66174C61.2976 2.66174 62.5237 3.83601 62.5237 6.19403C62.5237 8.11642 62.5237 10.0388 62.5237 13.2491C62.5237 15.5977 61.2976 16.7719 58.8651 16.7719C46.3296 16.7719 33.8039 16.7719 23.1713 16.7719C20.729 16.7719 19.5127 15.5977 19.5127 13.2491C19.5127 11.1468 19.5127 9.03501 19.5127 6.19403C19.5127 3.83601 20.729 2.66174 23.1713 2.66174Z" fill="white"/>
<path d="M23.1713 2.66174C35.2752 2.66174 47.3791 2.66174 58.8651 2.66174M23.1713 2.66174C34.5396 2.66174 45.9078 2.66174 58.8651 2.66174M23.1713 2.66174C20.729 2.66174 19.5127 3.83601 19.5127 6.19403M58.8651 2.66174C61.2976 2.66174 62.5237 3.83601 62.5237 6.19403M62.5237 6.19403C62.5237 8.21112 62.5237 10.2377 62.5237 13.2491M62.5237 6.19403C62.5237 8.4384 62.5237 10.6828 62.5237 13.2491M62.5237 13.2491C62.5237 15.5977 61.2976 16.7719 58.8651 16.7719M58.8651 16.7719C46.0157 16.7719 33.1664 16.7719 23.1713 16.7719M58.8651 16.7719C48.3894 16.7719 37.9138 16.7719 23.1713 16.7719M23.1713 16.7719C20.729 16.7719 19.5127 15.5977 19.5127 13.2491M19.5127 13.2491C19.5127 11.3741 19.5127 9.49903 19.5127 6.19403M19.5127 13.2491C19.5127 11.5067 19.5127 9.75472 19.5127 6.19403" stroke="#1E1E1E" stroke-width="2" stroke-linecap="round"/>
<path d="M39.002 6.44141C38.9076 6.44141 38.8181 6.42839 38.7335 6.40234C38.6521 6.37305 38.5805 6.33398 38.5186 6.28516C38.46 6.23307 38.4128 6.17285 38.377 6.10449C38.3412 6.03613 38.3233 5.96126 38.3233 5.87988C38.3233 5.74316 38.377 5.63249 38.4844 5.54785C38.5951 5.46322 38.7416 5.4209 38.9239 5.4209C39.0085 5.4209 39.0899 5.43717 39.168 5.46973C39.2462 5.49902 39.3145 5.53971 39.3731 5.5918C39.435 5.64388 39.4838 5.70573 39.5196 5.77734C39.5554 5.8457 39.5733 5.91732 39.5733 5.99219C39.5733 6.13216 39.5212 6.24284 39.4171 6.32422C39.3161 6.40234 39.1778 6.44141 39.002 6.44141ZM38.3331 7.93066C38.3331 7.81673 38.3819 7.72396 38.4796 7.65234C38.5805 7.57747 38.7123 7.54004 38.8751 7.54004C39.168 7.54004 39.3243 7.64095 39.3438 7.84277C39.3568 7.98275 39.3699 8.14062 39.3829 8.31641C39.3991 8.49219 39.4138 8.67936 39.4268 8.87793C39.4431 9.07324 39.4561 9.27669 39.4659 9.48828C39.4789 9.69661 39.4903 9.90332 39.5001 10.1084C39.5098 10.3102 39.518 10.5055 39.5245 10.6943C39.531 10.8831 39.5342 11.0557 39.5342 11.2119C39.5342 11.3747 39.4756 11.4967 39.3585 11.5781C39.2445 11.6595 39.0769 11.7002 38.8555 11.7002C38.7546 11.7002 38.6749 11.6758 38.6163 11.627C38.5609 11.5814 38.5333 11.513 38.5333 11.4219C38.5333 10.9727 38.5219 10.5527 38.4991 10.1621C38.4796 9.76823 38.4568 9.41829 38.4307 9.1123C38.4079 8.80632 38.3852 8.55241 38.3624 8.35059C38.3428 8.14551 38.3331 8.00553 38.3331 7.93066ZM40.0225 8.73145C39.9477 8.72493 39.8874 8.67611 39.8419 8.58496C39.7963 8.49382 39.7735 8.3929 39.7735 8.28223C39.7735 8.23014 39.7784 8.17969 39.7881 8.13086C39.7947 8.07878 39.8077 8.0332 39.8272 7.99414C39.8467 7.95508 39.8712 7.92415 39.9005 7.90137C39.9297 7.87533 39.9639 7.8623 40.003 7.8623C40.1234 7.8623 40.2618 7.85905 40.418 7.85254C40.5743 7.84277 40.7419 7.83301 40.921 7.82324C41.0121 7.81348 41.0626 7.75977 41.0723 7.66211C41.1016 7.1901 41.1423 6.7832 41.1944 6.44141C41.2465 6.09961 41.31 5.81152 41.3848 5.57715C41.4597 5.33952 41.5443 5.14746 41.6387 5.00098C41.7364 4.85449 41.8438 4.74219 41.961 4.66406C41.9968 4.63802 42.0391 4.61198 42.088 4.58594C42.1368 4.55664 42.1824 4.54199 42.2247 4.54199C42.3061 4.54199 42.3907 4.56315 42.4786 4.60547C42.5697 4.64453 42.6527 4.69661 42.7276 4.76172C42.8057 4.82357 42.8692 4.89518 42.918 4.97656C42.9669 5.05469 42.9913 5.13281 42.9913 5.21094C42.9913 5.24023 42.9848 5.26465 42.9717 5.28418C42.9587 5.30046 42.9424 5.31673 42.9229 5.33301C42.796 5.42741 42.6837 5.5332 42.586 5.65039C42.4883 5.76758 42.4053 5.91081 42.337 6.08008C42.2686 6.24935 42.2116 6.4528 42.1661 6.69043C42.1205 6.92806 42.0863 7.21452 42.0635 7.5498C42.0635 7.60189 42.0717 7.64095 42.088 7.66699C42.1075 7.68978 42.1417 7.70117 42.1905 7.70117C42.3174 7.70117 42.4444 7.69141 42.5714 7.67188C42.7016 7.65234 42.8253 7.63281 42.9424 7.61328C43.0596 7.59049 43.1703 7.56934 43.2745 7.5498C43.3786 7.53027 43.4714 7.52051 43.5528 7.52051C43.6114 7.52051 43.6537 7.55632 43.6797 7.62793C43.709 7.69629 43.7237 7.78092 43.7237 7.88184C43.7237 7.94043 43.7188 8.00065 43.709 8.0625C43.6993 8.12435 43.683 8.17969 43.6602 8.22852C43.6407 8.27734 43.6146 8.31966 43.5821 8.35547C43.5495 8.38802 43.5089 8.40755 43.46 8.41406L42.1612 8.55078C42.0928 8.56055 42.0505 8.58822 42.0342 8.63379C42.0212 8.67936 42.0147 8.74284 42.0147 8.82422C42.0147 9.54362 42.0326 10.1621 42.0684 10.6797C42.1042 11.1973 42.1433 11.6318 42.1856 11.9834C42.2312 12.3382 42.2719 12.6165 42.3077 12.8184C42.3435 13.0234 42.3614 13.1715 42.3614 13.2627C42.3614 13.3311 42.3337 13.3929 42.2784 13.4482C42.2263 13.5036 42.1579 13.5508 42.0733 13.5898C41.9919 13.6289 41.9024 13.6582 41.8047 13.6777C41.7071 13.7005 41.6159 13.7119 41.5313 13.7119C41.4499 13.7119 41.3767 13.6973 41.3116 13.668C41.2497 13.6419 41.2139 13.5964 41.2042 13.5312C41.1716 13.3034 41.1439 13.0527 41.1212 12.7793C41.0984 12.5091 41.0788 12.208 41.0626 11.876C41.0495 11.5472 41.0398 11.1875 41.0333 10.7969C41.0268 10.403 41.0235 9.97168 41.0235 9.50293C41.0235 9.38249 41.0235 9.2653 41.0235 9.15137C41.0235 9.03743 41.0268 8.9235 41.0333 8.80957C41.0333 8.71191 40.9796 8.66309 40.8721 8.66309L40.0225 8.73145Z" fill="#1E1E1E"/>
<path d="M31.7241 42.0633C32.7402 42.4137 36.7922 43.8208 37.8083 44.1712" stroke="#1E1E1E" stroke-linecap="round"/>
<path d="M37.5935 44.057C37.8845 44.473 39.0738 46.1257 39.374 46.545" stroke="#1E1E1E" stroke-linecap="round"/>
<path d="M30.4443 45.2111C31.4537 45.5792 35.4853 47.0397 36.4947 47.4078" stroke="#1E1E1E" stroke-linecap="round"/>
<path d="M36.2545 47.3606C36.7552 47.2255 38.7699 46.7093 39.2799 46.5775" stroke="#1E1E1E" stroke-linecap="round"/>
<path d="M32.0183 39.4491C31.5529 40.7267 29.7066 45.8527 29.2505 47.1336" stroke="#1E1E1E" stroke-linecap="round"/>
<path d="M30.3269 43.5908C29.6146 43.3482 26.7528 42.3835 26.0405 42.1409" stroke="#1E1E1E" stroke-linecap="round"/>
<path d="M18.1346 31.332V24.3483H19.2076V31.332H18.1346ZM18.6802 23.1843C18.4711 23.1843 18.2907 23.1131 18.1392 22.9706C17.9906 22.8281 17.9164 22.6569 17.9164 22.4568C17.9164 22.2568 17.9906 22.0855 18.1392 21.943C18.2907 21.8006 18.4711 21.7293 18.6802 21.7293C18.8894 21.7293 19.0682 21.8006 19.2167 21.943C19.3683 22.0855 19.4441 22.2568 19.4441 22.4568C19.4441 22.6569 19.3683 22.8281 19.2167 22.9706C19.0682 23.1131 18.8894 23.1843 18.6802 23.1843ZM24.2829 24.3483V25.2576H20.5182V24.3483H24.2829ZM21.6458 31.332V23.3843C21.6458 22.9842 21.7398 22.6508 21.9277 22.3841C22.1157 22.1173 22.3597 21.9173 22.6598 21.7839C22.9598 21.6505 23.2766 21.5838 23.61 21.5838C23.8737 21.5838 24.0889 21.6051 24.2557 21.6475C24.4224 21.6899 24.5466 21.7293 24.6285 21.7657L24.3193 22.6932C24.2647 22.6751 24.189 22.6523 24.092 22.625C23.998 22.5978 23.8737 22.5841 23.7191 22.5841C23.3645 22.5841 23.1084 22.6735 22.9507 22.8524C22.7962 23.0312 22.7189 23.2934 22.7189 23.639V31.332H21.6458ZM26.1687 27.4037C26.1687 26.2579 26.3172 25.2046 26.6143 24.2437C26.9144 23.2798 27.3417 22.3932 27.8964 21.5838H28.8422C28.6239 21.8839 28.4193 22.2537 28.2284 22.6932C28.0404 23.1297 27.8752 23.6102 27.7328 24.1346C27.5903 24.6559 27.4781 25.1955 27.3963 25.7532C27.3175 26.3109 27.2781 26.8611 27.2781 27.4037C27.2781 28.1251 27.3478 28.8571 27.4872 29.5997C27.6267 30.3424 27.8146 31.0319 28.051 31.6685C28.2875 32.305 28.5512 32.8234 28.8422 33.2235H27.8964C27.3417 32.4142 26.9144 31.5291 26.6143 30.5682C26.3172 29.6043 26.1687 28.5494 26.1687 27.4037ZM39.9191 27.4037C39.9191 28.5494 39.7691 29.6043 39.469 30.5682C39.172 31.5291 38.7461 32.4142 38.1914 33.2235H37.2457C37.4639 32.9234 37.667 32.5536 37.8549 32.1141C38.0459 31.6776 38.2126 31.1987 38.3551 30.6773C38.4975 30.1529 38.6082 29.6119 38.687 29.0541C38.7688 28.4934 38.8097 27.9432 38.8097 27.4037C38.8097 26.6822 38.74 25.9502 38.6006 25.2076C38.4612 24.465 38.2732 23.7754 38.0368 23.1388C37.8004 22.5023 37.5367 21.984 37.2457 21.5838H38.1914C38.7461 22.3932 39.172 23.2798 39.469 24.2437C39.7691 25.2046 39.9191 26.2579 39.9191 27.4037ZM17.6254 42.4218V41.858C18.1316 41.858 18.4847 41.752 18.6848 41.5398C18.8879 41.3276 18.9894 40.973 18.9894 40.4758V39.0209C18.9894 38.6026 19.0288 38.2404 19.1076 37.9342C19.1895 37.6281 19.3213 37.375 19.5032 37.1749C19.6851 36.9749 19.9275 36.8263 20.2307 36.7293C20.5338 36.6323 20.9081 36.5838 21.3537 36.5838V37.475C21.0021 37.475 20.7247 37.5296 20.5217 37.6387C20.3216 37.7478 20.1791 37.9176 20.0943 38.1479C20.0124 38.3753 19.9715 38.6662 19.9715 39.0209V40.8396C19.9715 41.076 19.9397 41.2912 19.876 41.4852C19.8154 41.6792 19.7017 41.8459 19.535 41.9854C19.3683 42.1248 19.1304 42.2324 18.8212 42.3082C18.515 42.384 18.1164 42.4218 17.6254 42.4218ZM21.3537 48.2235C20.9081 48.2235 20.5338 48.175 20.2307 48.078C19.9275 47.981 19.6851 47.8325 19.5032 47.6324C19.3213 47.4323 19.1895 47.1792 19.1076 46.8731C19.0288 46.5669 18.9894 46.2047 18.9894 45.7864V44.3315C18.9894 43.8344 18.8879 43.4797 18.6848 43.2675C18.4847 43.0554 18.1316 42.9493 17.6254 42.9493V42.3855C18.1164 42.3855 18.515 42.4234 18.8212 42.4991C19.1304 42.5749 19.3683 42.6825 19.535 42.822C19.7017 42.9614 19.8154 43.1281 19.876 43.3221C19.9397 43.5161 19.9715 43.7313 19.9715 43.9677V45.7864C19.9715 46.1411 20.0124 46.4321 20.0943 46.6594C20.1791 46.8867 20.3216 47.055 20.5217 47.1641C20.7247 47.2762 21.0021 47.3323 21.3537 47.3323V48.2235ZM17.6254 42.9493V41.858H18.6984V42.9493H17.6254Z" fill="#1E1E1E"/>
<path d="M21.3173 72.8539V73.4177C20.8111 73.4177 20.4565 73.5238 20.2534 73.736C20.0533 73.9482 19.9533 74.3028 19.9533 74.7999V76.2549C19.9533 76.6732 19.9124 77.0354 19.8306 77.3415C19.7517 77.6477 19.6214 77.9008 19.4395 78.1008C19.2577 78.3009 19.0152 78.4494 18.7121 78.5464C18.4089 78.6434 18.0346 78.6919 17.589 78.6919V77.8008C17.9406 77.8008 18.2165 77.7447 18.4165 77.6325C18.6196 77.5234 18.7621 77.3552 18.8439 77.1278C18.9288 76.9005 18.9712 76.6095 18.9712 76.2549V74.4362C18.9712 74.1997 19.0015 73.9845 19.0622 73.7905C19.1258 73.5965 19.241 73.4298 19.4077 73.2904C19.5744 73.151 19.8108 73.0434 20.117 72.9676C20.4262 72.8918 20.8263 72.8539 21.3173 72.8539ZM17.589 67.0523C18.0346 67.0523 18.4089 67.1008 18.7121 67.1978C19.0152 67.2948 19.2577 67.4433 19.4395 67.6434C19.6214 67.8434 19.7517 68.0965 19.8306 68.4027C19.9124 68.7088 19.9533 69.071 19.9533 69.4893V70.9443C19.9533 71.4414 20.0533 71.796 20.2534 72.0082C20.4565 72.2204 20.8111 72.3265 21.3173 72.3265V72.8903C20.8263 72.8903 20.4262 72.8524 20.117 72.7766C19.8108 72.7008 19.5744 72.5932 19.4077 72.4538C19.241 72.3144 19.1258 72.1477 19.0622 71.9537C19.0015 71.7597 18.9712 71.5445 18.9712 71.308V69.4893C18.9712 69.1347 18.9288 68.8437 18.8439 68.6164C18.7621 68.386 18.6196 68.2163 18.4165 68.1071C18.2165 67.998 17.9406 67.9434 17.589 67.9434V67.0523ZM21.3173 72.3265V73.4177H20.2443V72.3265H21.3173Z" fill="#1E1E1E"/>
<path d="M36.3958 29.033C36.3858 28.3511 36.3658 25.6143 36.3658 24.9325" stroke="#1E1E1E" stroke-linecap="round"/>
<path d="M36.3387 25.0869C36.5349 24.8123 37.3294 23.7327 37.5256 23.4676" stroke="#1E1E1E" stroke-linecap="round"/>
<path d="M38.6957 29.0816C38.7057 28.3998 38.7257 25.663 38.7257 24.9811" stroke="#1E1E1E" stroke-linecap="round"/>
<path d="M38.7522 25.1356C38.556 24.861 37.7615 23.7814 37.5653 23.5162" stroke="#1E1E1E" stroke-linecap="round"/>
<path d="M34.6589 29.4501C35.5809 29.4312 39.2689 29.3743 40.191 29.3554" stroke="#1E1E1E" stroke-linecap="round"/>
<path d="M37.6874 29.5187C37.6974 30.0016 37.7274 31.9146 37.7374 32.3975" stroke="#1E1E1E" stroke-linecap="round"/>
<path d="M40.8349 36.69C43.6886 35.505 45.9652 37.5211 51.2223 36.6853C54.921 38.5208 59.611 41.4638 56.4135 41.6925C55.2403 49.4489 55.0082 56.2863 56.4234 61.9298C59.1131 66.1711 57.1626 69.2592 51.2371 66.9417C46.9119 67.9286 41.6531 65.1089 40.8497 66.9465C36.3759 64.7326 36.3963 66.3992 35.6585 61.9392C38.2458 57.4588 32.2416 54.9236 35.6485 41.702C34.1183 41.466 36.4123 39.0785 40.8349 36.69Z" fill="white"/>
<path d="M40.8349 36.6901C43.4733 36.49 45.7199 37.2371 51.2223 36.6853M40.8349 36.6901C44.17 36.9537 47.3379 36.3746 51.2223 36.6853M40.8349 36.6901C38.5397 36.7195 34.6948 36.9959 35.6486 41.702M40.8349 36.6901C39.1584 38.2439 33.499 38.6253 35.6486 41.702M51.2223 36.6853C53.2727 37.4893 55.2643 38.3312 56.4135 41.6925M51.2223 36.6853C55.4308 37.9145 56.1183 39.8366 56.4135 41.6925M56.4135 41.6925C55.7591 47.2801 58.1457 53.6239 56.4234 61.9298M56.4135 41.6925C57.191 47.0995 56.8007 51.2381 56.4234 61.9298M56.4234 61.9298C54.8268 66.334 53.1308 68.2098 51.2371 66.9417M56.4234 61.9298C57.7789 65.7171 55.6421 68.8811 51.2371 66.9417M51.2371 66.9417C48.7164 67.1323 47.5492 67.3317 40.8497 66.9465M51.2371 66.9417C47.9414 67.0001 44.6851 67.3235 40.8497 66.9465M40.8497 66.9465C37.4166 66.8439 33.7961 64.6012 35.6585 61.9393M40.8497 66.9465C35.3481 69.0608 34.6206 65.6519 35.6585 61.9393M35.6585 61.9393C36.6658 55.878 37.0856 51.7584 35.6486 41.702M35.6585 61.9393C34.8311 54.8277 36.3687 50.0068 35.6486 41.702" stroke="#1E1E1E" stroke-linecap="round"/>
<path d="M37.9225 58.5821C40.7474 58.5808 52.047 58.5758 54.8719 58.5745" stroke="#1E1E1E" stroke-linecap="round"/>
<path d="M40.2413 63.4589C40.017 63.459 39.8259 63.398 39.668 63.276C39.5102 63.153 39.3895 62.9749 39.306 62.7417C39.2225 62.5075 39.1807 62.2247 39.1805 61.8932C39.1804 61.5637 39.2219 61.2823 39.3052 61.049C39.3894 60.8147 39.5104 60.636 39.6682 60.5129C39.8269 60.3888 40.0174 60.3266 40.2397 60.3265C40.4621 60.3264 40.6522 60.3884 40.81 60.5124C40.9689 60.6354 41.0901 60.814 41.1735 61.0482C41.258 61.2814 41.3003 61.5627 41.3005 61.8922C41.3007 62.2237 41.2591 62.5066 41.1759 62.7409C41.0926 62.9741 40.9721 63.1524 40.8144 63.2755C40.6566 63.3976 40.4656 63.4588 40.2413 63.4589ZM40.2411 63.1313C40.4634 63.1312 40.6361 63.024 40.759 62.8095C40.882 62.5951 40.9434 62.2894 40.9432 61.8924C40.9431 61.6284 40.9147 61.4036 40.858 61.218C40.8023 61.0325 40.7219 60.8911 40.6166 60.7938C40.5124 60.6966 40.3868 60.648 40.2399 60.6481C40.0196 60.6482 39.8474 60.757 39.7235 60.9744C39.5995 61.1908 39.5376 61.497 39.5378 61.893C39.538 62.157 39.5659 62.3813 39.6215 62.5659C39.6772 62.7505 39.7572 62.8909 39.8614 62.9871C39.9667 63.0833 40.0932 63.1314 40.2411 63.1313Z" fill="#1E1E1E"/>
<path d="M37.7365 62.4523C37.7364 62.2251 37.726 61.3349 37.7259 61.1076" stroke="#1E1E1E" stroke-linecap="round"/>
<path d="M37.7173 61.1603C37.7859 61.075 38.0408 60.715 38.0996 60.6298" stroke="#1E1E1E" stroke-linecap="round"/>
<path d="M38.4896 62.4679C38.4895 62.2406 38.4991 61.3504 38.499 61.1232" stroke="#1E1E1E" stroke-linecap="round"/>
<path d="M38.5075 61.1758C38.4388 61.0906 38.1836 60.7309 38.1247 60.6457" stroke="#1E1E1E" stroke-linecap="round"/>
<path d="M37.1679 62.5891C37.472 62.5795 38.6784 62.56 38.9825 62.5599" stroke="#1E1E1E" stroke-linecap="round"/>
<path d="M38.1596 62.6111C38.1597 62.7721 38.17 63.3971 38.1801 63.5581" stroke="#1E1E1E" stroke-linecap="round"/>
<path d="M51.7131 60.2704L51.7145 63.3194L51.3453 63.3195L51.344 60.6577L51.3262 60.6577L50.582 61.1523L50.5819 60.7771L51.3438 60.2706L51.7131 60.2704ZM53.5859 63.3602C53.3616 63.3603 53.1705 63.2994 53.0127 63.1773C52.8548 63.0544 52.7341 62.8763 52.6506 62.6431C52.5672 62.4089 52.5253 62.126 52.5252 61.7945C52.525 61.465 52.5666 61.1836 52.6498 60.9503C52.7341 60.7161 52.8551 60.5374 53.0128 60.4142C53.1715 60.2901 53.3621 60.228 53.5844 60.2279C53.8067 60.2278 53.9968 60.2897 54.1547 60.4137C54.3135 60.5367 54.4347 60.7153 54.5182 60.9495C54.6027 61.1827 54.645 61.464 54.6451 61.7936C54.6453 62.1251 54.6038 62.4079 54.5205 62.6422C54.4372 62.8755 54.3167 63.0537 54.159 63.1768C54.0013 63.299 53.8102 63.3601 53.5859 63.3602ZM53.5858 63.0327C53.8081 63.0326 53.9807 62.9253 54.1037 62.7109C54.2267 62.4964 54.288 62.1907 54.2878 61.7937C54.2877 61.5297 54.2593 61.3049 54.2027 61.1194C54.147 60.9338 54.0665 60.7924 53.9613 60.6952C53.857 60.598 53.7314 60.5494 53.5845 60.5494C53.3642 60.5495 53.1921 60.6583 53.0681 60.8757C52.9442 61.0921 52.8823 61.3984 52.8825 61.7944C52.8826 62.0584 52.9105 62.2827 52.9662 62.4672C53.0218 62.6518 53.1018 62.7922 53.2061 62.8884C53.3113 62.9847 53.4379 63.0327 53.5858 63.0327Z" fill="#1E1E1E"/>
<path d="M48.8019 61.3858C48.8901 61.291 49.2627 60.9215 49.3509 60.8268" stroke="#1E1E1E" stroke-linecap="round"/>
<path d="M49.3557 60.8173C49.4538 60.9024 49.8659 61.2242 49.964 61.3094" stroke="#1E1E1E" stroke-linecap="round"/>
<path d="M49.9907 61.3741C49.8142 61.6393 49.1085 62.6908 48.9321 62.9561" stroke="#1E1E1E" stroke-linecap="round"/>
<path d="M48.8193 61.3857C48.7309 61.2911 48.358 60.9219 48.2697 60.8273" stroke="#1E1E1E" stroke-linecap="round"/>
<path d="M48.265 60.8178C48.167 60.903 47.7551 61.2252 47.6571 61.3105" stroke="#1E1E1E" stroke-linecap="round"/>
<path d="M47.6305 61.3752C47.8072 61.6403 48.5139 62.6911 48.6906 62.9562" stroke="#1E1E1E" stroke-linecap="round"/>
<path d="M41.1815 36.6618C44.2908 36.6604 47.4002 36.659 50.5291 36.6575C51.1667 36.6572 51.4905 36.9696 51.4908 37.5851C51.4912 38.267 51.4915 38.9488 51.4917 39.4318C51.492 40.0473 51.1685 40.3505 50.5309 40.3508C47.8139 40.352 45.0969 40.3533 41.1833 40.3551C40.5457 40.3554 40.2219 40.0525 40.2216 39.4369C40.2214 38.9918 40.2211 38.5373 40.2207 37.5903C40.2204 36.9747 40.5439 36.6621 41.1815 36.6618Z" fill="white"/>
<path d="M41.1815 36.6618C44.8695 36.6601 48.5576 36.6584 50.5291 36.6575M41.1815 36.6618C44.6047 36.6602 48.0377 36.6587 50.5291 36.6575M41.1815 36.6618C40.5439 36.6621 40.2204 36.9747 40.2207 37.5903M50.5291 36.6575C51.1667 36.6572 51.4905 36.9696 51.4908 37.5851M51.4908 37.5851C51.4911 38.0397 51.4913 38.5037 51.4917 39.4318M51.4908 37.5851C51.4911 38.0681 51.4913 38.5605 51.4917 39.4318M51.4917 39.4318C51.492 40.0473 51.1685 40.3505 50.5309 40.3508M50.5309 40.3508C48.3828 40.3518 46.2347 40.3528 41.1833 40.3551M50.5309 40.3508C47.7158 40.3521 44.9008 40.3534 41.1833 40.3551M41.1833 40.3551C40.5457 40.3554 40.2219 40.0525 40.2216 39.4369M40.2216 39.4369C40.2212 38.7077 40.2209 37.988 40.2207 37.5903M40.2216 39.4369C40.2212 38.7646 40.2209 38.0922 40.2207 37.5903" stroke="#1E1E1E" stroke-linecap="round"/>
<path d="M42.7584 38.9765C42.6544 38.9765 42.5625 38.9503 42.4828 38.8977C42.4031 38.8446 42.3407 38.7699 42.2957 38.6734C42.2507 38.5764 42.2281 38.4618 42.228 38.3295C42.228 38.1984 42.2504 38.0846 42.2954 37.9881C42.3403 37.8916 42.4029 37.817 42.483 37.7644C42.5632 37.7118 42.6559 37.6854 42.7611 37.6854C42.8424 37.6854 42.9066 37.6989 42.9538 37.726C43.0015 37.7525 43.0378 37.7828 43.0628 37.817C43.0882 37.8506 43.108 37.8782 43.1221 37.8999L43.1384 37.8999L43.1381 37.2852L43.33 37.2851L43.3308 38.9502L43.1454 38.9503L43.1453 38.7584L43.1226 38.7584C43.1085 38.7812 43.0884 38.8099 43.0624 38.8446C43.0364 38.8788 42.9993 38.9094 42.9511 38.9365C42.9029 38.9631 42.8387 38.9764 42.7584 38.9765ZM42.7844 38.8041C42.8613 38.8041 42.9264 38.784 42.9795 38.7438C43.0326 38.7032 43.0729 38.6471 43.1005 38.5755C43.1281 38.5034 43.1419 38.4202 43.1419 38.3259C43.1418 38.2327 43.1282 38.1511 43.1011 38.0812C43.074 38.0107 43.0338 37.956 42.9807 37.917C42.9276 37.8775 42.862 37.8577 42.7839 37.8577C42.7026 37.8578 42.6349 37.8787 42.5807 37.9204C42.527 37.9617 42.4867 38.0178 42.4596 38.0888C42.4331 38.1593 42.4199 38.2384 42.4199 38.3262C42.42 38.4151 42.4335 38.4959 42.4607 38.5685C42.4884 38.6405 42.529 38.698 42.5827 38.7408C42.6369 38.783 42.7042 38.8041 42.7844 38.8041ZM44.2162 38.9758C44.1034 38.9759 44.0045 38.9491 43.9194 38.8954C43.8348 38.8418 43.7686 38.7668 43.7209 38.6703C43.6737 38.5739 43.6501 38.4612 43.65 38.3322C43.6499 38.2021 43.6735 38.0885 43.7206 37.9915C43.7682 37.8944 43.8343 37.8191 43.9188 37.7654C44.0039 37.7117 44.1028 37.6848 44.2155 37.6847C44.3283 37.6847 44.4269 37.7115 44.5115 37.7651C44.5966 37.8187 44.6628 37.894 44.71 37.991C44.7577 38.088 44.7816 38.2016 44.7817 38.3316C44.7818 38.4606 44.758 38.5734 44.7103 38.6699C44.6632 38.7664 44.5971 38.8415 44.5121 38.8952C44.4275 38.9489 44.3289 38.9757 44.2162 38.9758ZM44.2161 38.8034C44.3017 38.8034 44.3722 38.7814 44.4274 38.7375C44.4827 38.6936 44.5236 38.6358 44.5501 38.5643C44.5766 38.4927 44.5899 38.4152 44.5898 38.3317C44.5898 38.2483 44.5765 38.1705 44.5499 38.0984C44.5233 38.0263 44.4823 37.9681 44.427 37.9237C44.3717 37.8792 44.3013 37.8571 44.2156 37.8571C44.13 37.8571 44.0595 37.8794 44.0043 37.9239C43.949 37.9683 43.9081 38.0266 43.8816 38.0987C43.8551 38.1708 43.8418 38.2486 43.8419 38.3321C43.8419 38.4155 43.8552 38.493 43.8818 38.5646C43.9084 38.6361 43.9494 38.6938 44.0047 38.7377C44.06 38.7816 44.1304 38.8035 44.2161 38.8034ZM45.2871 38.9493L44.831 37.2845L45.0359 37.2844L45.3845 38.6403L45.4008 38.6403L45.7546 37.284L45.9822 37.2839L46.3374 38.6399L46.3536 38.6399L46.7009 37.2836L46.9058 37.2835L46.4513 38.9488L46.2432 38.9489L45.8751 37.6222L45.8621 37.6222L45.4952 38.9492L45.2871 38.9493ZM47.3233 38.1971L47.3237 38.9484L47.1318 38.9485L47.131 37.2834L47.3229 37.2833L47.3232 37.8947L47.3394 37.8947C47.3687 37.8302 47.4126 37.7789 47.4711 37.741C47.5301 37.7025 47.6087 37.6832 47.7068 37.6831C47.7919 37.6831 47.8664 37.7001 47.9304 37.7343C47.9944 37.7678 48.044 37.8196 48.0793 37.8895C48.1151 37.9588 48.133 38.0472 48.1331 38.1545L48.1335 38.948L47.9416 38.9481L47.9412 38.1676C47.9412 38.0684 47.9154 37.9917 47.8639 37.9375C47.8129 37.8828 47.7421 37.8555 47.6516 37.8555C47.5887 37.8556 47.5324 37.8689 47.4825 37.8954C47.4332 37.922 47.3942 37.9608 47.3655 38.0118C47.3374 38.0627 47.3233 38.1245 47.3233 38.1971ZM48.4845 38.9478L48.4839 37.699L48.6757 37.699L48.6763 38.9477L48.4845 38.9478ZM48.5813 37.4909C48.5439 37.4909 48.5117 37.4782 48.4846 37.4527C48.458 37.4272 48.4447 37.3966 48.4447 37.3609C48.4447 37.3251 48.4579 37.2945 48.4845 37.269C48.5116 37.2435 48.5438 37.2307 48.5812 37.2307C48.6186 37.2307 48.6506 37.2434 48.6771 37.2689C48.7043 37.2943 48.7178 37.325 48.7178 37.3607C48.7179 37.3965 48.7043 37.4271 48.6772 37.4526C48.6507 37.4781 48.6187 37.4909 48.5813 37.4909ZM49.2188 37.2825L49.2196 38.9475L49.0278 38.9476L49.027 37.2825L49.2188 37.2825ZM50.0947 38.9731C49.9743 38.9732 49.8705 38.9467 49.7832 38.8936C49.6965 38.84 49.6295 38.7652 49.5823 38.6693C49.5356 38.5728 49.5123 38.4606 49.5122 38.3327C49.5122 38.2048 49.5354 38.0921 49.582 37.9945C49.6291 37.8964 49.6946 37.8199 49.7786 37.7651C49.8631 37.7098 49.9618 37.6821 50.0745 37.6821C50.1396 37.682 50.2038 37.6928 50.2672 37.7145C50.3306 37.7361 50.3884 37.7714 50.4404 37.8201C50.4925 37.8683 50.534 37.9323 50.5649 38.0119C50.5959 38.0916 50.6113 38.1897 50.6114 38.3062L50.6114 38.3875L49.6488 38.388L49.6488 38.2221L50.4162 38.2217C50.4162 38.1513 50.4021 38.0884 50.3739 38.0331C50.3462 37.9779 50.3066 37.9343 50.2551 37.9023C50.2041 37.8704 50.144 37.8544 50.0746 37.8544C49.9982 37.8545 49.9321 37.8735 49.8762 37.9114C49.821 37.9488 49.7785 37.9976 49.7487 38.0578C49.7189 38.118 49.704 38.1825 49.7041 38.2513L49.7041 38.3619C49.7042 38.4562 49.7205 38.5362 49.753 38.6017C49.7861 38.6668 49.8319 38.7163 49.8905 38.7504C49.949 38.784 50.0171 38.8008 50.0946 38.8008C50.145 38.8007 50.1905 38.7937 50.2311 38.7796C50.2723 38.7649 50.3078 38.7432 50.3376 38.7145C50.3674 38.6852 50.3904 38.6489 50.4067 38.6055L50.5921 38.6574C50.5726 38.7203 50.5398 38.7756 50.4938 38.8233C50.4477 38.8705 50.3908 38.9074 50.3231 38.934C50.2554 38.96 50.1792 38.9731 50.0947 38.9731Z" fill="#1E1E1E"/>
<path d="M46.4051 50.6598C46.8271 51.1237 47.1805 51.6822 47.2003 52.0799C49.251 53.4048 46.0636 54.3722 47.201 53.5004C46.9853 53.6236 46.7793 53.7563 46.4067 53.8607C45.7114 56.1811 46.967 56.4552 45.4258 53.8611C45.004 53.8518 44.9255 53.6719 44.4448 53.5017C42.6587 51.6369 45.2202 54.5904 44.4441 52.0812C44.6892 51.9012 44.7969 51.5034 45.4242 50.6603C46.7294 51.8245 47.0233 51.1804 46.4051 50.6598Z" fill="white"/>
<path d="M46.4051 50.6598C46.621 51.0007 46.7683 51.3036 47.2003 52.08M46.4051 50.6598C46.7192 51.209 47.0236 51.7865 47.2003 52.08M46.4051 50.6598C45.4926 50.0826 45.3061 49.7702 45.4242 50.6603M46.4051 50.6598C46.042 50.2528 46.1593 49.4289 45.4242 50.6603M47.2003 52.08C47.9363 52.7425 47.1614 52.7239 47.201 53.5005M47.2003 52.08C47.3184 52.8754 47.0047 53.3585 47.201 53.5005M47.201 53.5005C46.9558 53.5763 46.7499 53.6995 46.4067 53.8607M47.201 53.5005C46.9362 53.6237 46.691 53.7374 46.4067 53.8607M46.4067 53.8607C46.2109 54.6847 46.3283 54.1448 45.4258 53.8611M46.4067 53.8607C45.3866 54.0506 46.5643 55.2811 45.4258 53.8611M45.4258 53.8611C45.1805 53.7381 44.9353 53.7098 44.4447 53.5017M45.4258 53.8611C45.0628 53.7287 44.69 53.5963 44.4447 53.5017M44.4447 53.5017C44.2679 52.8294 44.3074 53.3597 44.444 52.0812M44.4447 53.5017C44.6406 52.8387 43.8169 53.2274 44.444 52.0812M44.444 52.0812C44.7381 51.7402 44.9832 51.3613 45.4242 50.6603M44.444 52.0812C44.7773 51.5508 45.1792 51.0108 45.4242 50.6603" stroke="#1E1E1E" stroke-linecap="round"/>
<path fill-rule="evenodd" clip-rule="evenodd" d="M45.5716 53.4743C45.1498 53.4934 43.2179 54.2424 42.7963 54.7256C42.3748 55.2087 43.0912 55.9565 43.0326 56.3827" fill="white"/>
<path d="M45.2774 53.6354C45.1598 53.8627 44.3657 54.7438 44.052 55.1512C43.7481 55.568 43.4638 55.9469 43.4247 56.108M44.9634 53.3799C44.8359 53.503 44.0025 54.2137 43.8556 54.7157C43.7185 55.2271 44.1015 56.136 44.1016 56.4107" stroke="#1E1E1E" stroke-linecap="round"/>
<path fill-rule="evenodd" clip-rule="evenodd" d="M46.1079 53.0753C46.0982 53.3309 47.4914 54.0121 47.6976 54.6465C47.9039 55.2809 47.1886 56.6923 47.3358 56.8816" fill="white"/>
<path d="M47.3636 53.5102C47.4716 53.6901 47.8739 54.0024 48.0898 54.3717C48.3058 54.7504 48.5612 55.4794 48.6496 55.773M47.0202 53.3683C47.2165 53.5955 48.4821 54.2863 48.7178 54.7407C48.9632 55.1952 48.4633 55.9624 48.4634 56.095" stroke="#1E1E1E" stroke-linecap="round"/>
<path d="M45.3162 53.154C45.243 53.154 45.1783 53.1355 45.1221 53.0985C45.066 53.0612 45.0221 53.0085 44.9904 52.9406C44.9587 52.8723 44.9428 52.7916 44.9428 52.6985C44.9427 52.6061 44.9585 52.5259 44.9902 52.458C45.0218 52.39 45.0659 52.3375 45.1223 52.3005C45.1788 52.2635 45.244 52.2449 45.3181 52.2449C45.3753 52.2449 45.4206 52.2544 45.4538 52.2734C45.4874 52.2921 45.5129 52.3135 45.5305 52.3375C45.5485 52.3612 45.5624 52.3806 45.5723 52.3959L45.5838 52.3959L45.5836 51.9631L45.7187 51.963L45.7193 53.1355L45.5887 53.1355L45.5887 53.0004L45.5726 53.0004C45.5627 53.0165 45.5486 53.0367 45.5303 53.0611C45.512 53.0852 45.4859 53.1068 45.4519 53.1259C45.4179 53.1446 45.3727 53.1539 45.3162 53.154ZM45.3345 53.0326C45.3887 53.0326 45.4345 53.0184 45.4719 52.9902C45.5093 52.9615 45.5377 52.922 45.5571 52.8716C45.5766 52.8209 45.5863 52.7623 45.5862 52.6959C45.5862 52.6302 45.5766 52.5728 45.5575 52.5236C45.5384 52.474 45.5101 52.4354 45.4727 52.408C45.4353 52.3801 45.3891 52.3662 45.3342 52.3662C45.2769 52.3663 45.2292 52.381 45.1911 52.4104C45.1533 52.4394 45.1249 52.4789 45.1058 52.5289C45.0872 52.5785 45.0778 52.6343 45.0779 52.6961C45.0779 52.7587 45.0875 52.8156 45.1066 52.8667C45.1261 52.9174 45.1547 52.9579 45.1925 52.988C45.2307 53.0178 45.278 53.0326 45.3345 53.0326ZM45.3424 55.154C45.263 55.154 45.1934 55.1351 45.1334 55.0974C45.0739 55.0596 45.0273 55.0068 44.9937 54.9389C44.9604 54.871 44.9438 54.7916 44.9437 54.7007C44.9437 54.6091 44.9603 54.5292 44.9934 54.4609C45.027 54.3925 45.0735 54.3395 45.133 54.3016C45.1929 54.2638 45.2626 54.2449 45.342 54.2449C45.4213 54.2448 45.4908 54.2637 45.5504 54.3015C45.6103 54.3392 45.6569 54.3922 45.6901 54.4605C45.7238 54.5288 45.7406 54.6088 45.7406 54.7004C45.7407 54.7912 45.7239 54.8706 45.6904 54.9386C45.6572 55.0065 45.6107 55.0594 45.5508 55.0972C45.4912 55.135 45.4218 55.1539 45.3424 55.154ZM45.3423 55.0326C45.4026 55.0326 45.4523 55.0171 45.4912 54.9862C45.5301 54.9552 45.5589 54.9146 45.5776 54.8642C45.5962 54.8138 45.6056 54.7592 45.6055 54.7004C45.6055 54.6417 45.5961 54.5869 45.5774 54.5362C45.5587 54.4854 45.5298 54.4444 45.4909 54.4131C45.4519 54.3818 45.4023 54.3662 45.342 54.3662C45.2817 54.3663 45.2321 54.3819 45.1932 54.4132C45.1543 54.4446 45.1255 54.4856 45.1068 54.5364C45.0881 54.5871 45.0788 54.6419 45.0788 54.7007C45.0789 54.7595 45.0883 54.814 45.107 54.8644C45.1257 54.9148 45.1545 54.9554 45.1935 54.9863C45.2324 55.0172 45.282 55.0326 45.3423 55.0326Z" fill="#1E1E1E"/>
<path fill-rule="evenodd" clip-rule="evenodd" d="M44.1385 52.2717C43.6577 51.8174 40.8128 51.1273 39.9985 50.6258C39.1743 50.1242 38.8602 49.8119 39.2229 49.2435C39.5757 48.6657 41.5958 47.6136 42.1252 47.1778" fill="white"/>
<path d="M44.1874 52.2621C43.7754 52.1108 41.9509 52.0833 41.3523 51.3544C40.7438 50.6349 40.3996 48.6748 40.5856 47.9361C40.7716 47.1973 42.135 47.0736 42.4586 46.9219M43.8047 51.9214C43.373 51.6943 41.6662 51.5057 41.1069 50.8999C40.5377 50.2941 40.2133 48.9117 40.4288 48.2866C40.6443 47.6709 41.939 47.4051 42.3901 47.206" stroke="#1E1E1E" stroke-linecap="round"/>
<path d="M42.2678 47.5236L42.2373 47.3184C42.4218 47.2928 42.5447 47.2364 42.6062 47.149C42.6687 47.0616 42.6865 46.9274 42.6596 46.7465L42.5808 46.217C42.5582 46.0647 42.5529 45.9309 42.5651 45.8155C42.5783 45.7 42.6127 45.6012 42.6681 45.5192C42.7236 45.4372 42.8039 45.3709 42.9091 45.3203C43.0144 45.2697 43.1482 45.2331 43.3106 45.2106L43.3588 45.5349C43.2307 45.5527 43.1325 45.5866 43.0644 45.6365C42.9974 45.6863 42.9547 45.7553 42.9362 45.8434C42.9187 45.9303 42.9195 46.0383 42.9387 46.1673L43.0372 46.8292C43.05 46.9153 43.05 46.9952 43.0373 47.069C43.0257 47.1427 42.9933 47.2091 42.9401 47.2682C42.8869 47.3274 42.806 47.3786 42.6975 47.4218C42.59 47.4648 42.4468 47.4988 42.2678 47.5236ZM43.9406 49.4466C43.7782 49.4691 43.6392 49.4703 43.5235 49.4504C43.4077 49.4304 43.3113 49.3886 43.2342 49.325C43.1571 49.2613 43.0953 49.1759 43.0489 49.0686C43.0037 48.9612 42.9697 48.8314 42.947 48.6791L42.8683 48.1496C42.8414 47.9687 42.7852 47.8448 42.6997 47.7778C42.6153 47.7107 42.4808 47.6899 42.2964 47.7155L42.2658 47.5103C42.4448 47.4855 42.5921 47.4792 42.7078 47.4913C42.8246 47.5032 42.9171 47.5304 42.9854 47.5727C43.0537 47.615 43.1042 47.67 43.1368 47.7375C43.1705 47.8049 43.1937 47.8816 43.2065 47.9676L43.305 48.6295C43.3242 48.7586 43.3548 48.8624 43.397 48.941C43.4402 49.0194 43.5012 49.0735 43.58 49.1031C43.6601 49.1336 43.7642 49.14 43.8924 49.1222L43.9406 49.4466ZM42.2964 47.7155L42.2373 47.3184L42.6283 47.2642L42.6874 47.6613L42.2964 47.7155Z" fill="#1E1E1E"/>
<path fill-rule="evenodd" clip-rule="evenodd" d="M46.0085 54.2767C46.6068 54.1343 48.7934 52.7792 49.5776 51.6992C50.3519 50.6099 50.9884 48.4031 50.684 47.7782C50.3796 47.1438 48.1632 47.8551 47.7709 47.931" fill="white"/>
<path d="M47.3711 52.9693C47.8025 52.6661 49.3325 52.2392 49.9206 51.434C50.499 50.6382 51.1357 48.8197 50.8804 48.1664C50.625 47.5226 48.7419 47.7034 48.3789 47.552M47.0178 52.6665C47.5572 52.401 49.9604 52.5325 50.5486 51.8503C51.1466 51.1588 50.9496 49.369 50.5667 48.5548C50.1936 47.7406 48.673 47.1731 48.2903 46.9744" stroke="#1E1E1E" stroke-linecap="round"/>
<path d="M49.2958 46.3335L49.3009 46.5409C49.1147 46.5451 48.9857 46.5871 48.914 46.6668C48.8412 46.7465 48.8071 46.8778 48.8115 47.0607L48.8245 47.5958C48.8283 47.7497 48.817 47.8832 48.7908 47.9965C48.7634 48.1098 48.7172 48.204 48.6521 48.2791C48.587 48.3542 48.4991 48.4109 48.3885 48.4491C48.2778 48.4873 48.1406 48.5082 47.9767 48.512L47.9687 48.1842C48.098 48.1812 48.1996 48.1588 48.2733 48.117C48.3459 48.0752 48.3968 48.0116 48.4259 47.9261C48.454 47.8418 48.4665 47.7345 48.4633 47.604L48.447 46.9351C48.4449 46.8481 48.4547 46.7687 48.4763 46.6968C48.4969 46.6249 48.5372 46.5627 48.5973 46.51C48.6574 46.4573 48.7439 46.4157 48.857 46.3853C48.9689 46.3549 49.1152 46.3376 49.2958 46.3335ZM47.8725 44.2307C48.0364 44.2269 48.1745 44.2417 48.2869 44.2748C48.3992 44.3079 48.4898 44.3606 48.5585 44.4326C48.6271 44.5047 48.6779 44.5967 48.7108 44.7086C48.7425 44.8206 48.7602 44.9535 48.764 45.1073L48.777 45.6425C48.7814 45.8253 48.822 45.9549 48.8986 46.0313C48.9741 46.1077 49.1049 46.1437 49.2911 46.1395L49.2961 46.3469C49.1155 46.351 48.9686 46.3404 48.8553 46.3151C48.7409 46.2898 48.6524 46.2522 48.5898 46.2023C48.5272 46.1524 48.4839 46.092 48.4599 46.0212C48.4348 45.9503 48.4211 45.8714 48.419 45.7845L48.4027 45.1155C48.3995 44.9851 48.3819 44.8784 48.3498 44.7954C48.3165 44.7125 48.2626 44.6518 48.188 44.6134C48.1123 44.5738 48.0098 44.5555 47.8805 44.5584L47.8725 44.2307ZM49.2911 46.1395L49.3009 46.5409L48.9062 46.5498L48.8964 46.1485L49.2911 46.1395Z" fill="#1E1E1E"/>
<path fill-rule="evenodd" clip-rule="evenodd" d="M46.6484 46.2006C46.2266 46.0587 44.0981 46.1734 43.9021 46.4576C43.6963 46.7323 45.335 48.1141 45.4427 47.8773C45.5505 47.65 44.1271 45.1222 44.5586 45.0557C44.9902 44.9892 47.6886 47.1944 48.0222 47.4784C48.3559 47.7718 46.5212 46.9109 46.5702 46.8067C46.6094 46.7025 48.6203 46.9951 48.2966 46.8627C47.9728 46.7303 44.9906 45.9267 44.6179 46.0311" fill="white"/>
<path d="M45.6091 47.129C45.4522 47.2332 44.7561 47.7639 44.5402 47.6693C44.3146 47.5747 44.2063 46.8645 44.265 46.5709C44.3237 46.2773 44.451 45.6806 44.8925 45.8888C45.3339 46.0874 46.4333 47.6589 46.9042 47.7913C47.3652 47.9331 47.6689 47.0334 47.7079 46.7114C47.747 46.3799 47.4819 45.7361 47.119 45.8309C46.7561 45.9258 45.7856 47.0058 45.5503 47.2521M46.1583 46.8636C46.119 46.8731 45.5012 47.1953 45.1579 47.2144C44.8048 47.2241 44.1084 47.1108 44.0494 46.9308C43.9905 46.7509 44.2452 46.1069 44.7945 46.135C45.3536 46.1537 46.8253 46.9959 47.3648 47.0524C47.9043 47.0995 48.0512 46.5502 48.0315 46.4461C48.0118 46.3419 47.5704 46.2948 47.2566 46.4275C46.9526 46.5602 46.3644 47.1381 46.1879 47.2424" stroke="#1E1E1E" stroke-linecap="round"/>
<path d="M44.8619 46.5403C44.872 46.616 44.9021 46.9191 44.9122 46.9948" stroke="#1E1E1E" stroke-linecap="round"/>
<path d="M46.9566 46.5059C46.9666 46.5816 46.9968 46.8846 47.0068 46.9604" stroke="#1E1E1E" stroke-linecap="round"/>
<path d="M47.4936 56.1832C47.6702 56.2399 48.6021 56.5804 48.8572 56.5992M47.9642 55.8326C48.2389 55.804 49.3473 56.0308 49.4749 56.1823" stroke="#1E1E1E" stroke-linecap="round"/>
<path d="M42.866 57.0449C43.121 57.0637 44.1018 56.8171 44.3666 56.7412M43.3368 56.9121C43.5525 56.8457 43.8759 56.1827 44.0132 56.1826" stroke="#1E1E1E" stroke-linecap="round"/>
<path d="M28.2919 49.7512C29.3436 49.8737 33.5494 50.3727 34.6012 50.4951" stroke="#1E1E1E" stroke-linecap="round"/>
<path d="M34.3704 50.4315C34.7507 50.7657 36.2623 52.1013 36.6317 52.4437" stroke="#1E1E1E" stroke-linecap="round"/>
<path d="M27.7732 53.0389C28.8224 53.1801 33.0206 53.7355 34.0699 53.8767" stroke="#1E1E1E" stroke-linecap="round"/>
<path d="M33.83 53.8814C34.2861 53.6521 36.1011 52.7339 36.5488 52.494" stroke="#1E1E1E" stroke-linecap="round"/>
<path d="M27.9854 47.1819C27.8266 48.5085 27.2122 53.8078 27.0534 55.1344" stroke="#1E1E1E" stroke-linecap="round"/>
<path d="M27.2957 51.5096C26.5552 51.4262 23.6016 51.1034 22.8611 51.02" stroke="#1E1E1E" stroke-linecap="round"/>
<path d="M27.1773 58.8297C28.2091 58.2829 32.3239 56.1129 33.3558 55.5661" stroke="#1E1E1E" stroke-linecap="round"/>
<path d="M33.1074 55.6461C33.6667 55.7104 35.9307 55.9753 36.49 56.0396" stroke="#1E1E1E" stroke-linecap="round"/>
<path d="M28.9131 62.1146C29.9543 61.5844 34.097 59.4645 35.1381 58.9343" stroke="#1E1E1E" stroke-linecap="round"/>
<path d="M34.9321 59.0905C35.1847 58.6044 36.203 56.6343 36.4556 56.1482" stroke="#1E1E1E" stroke-linecap="round"/>
<path d="M25.1799 56.7072C25.9308 57.9947 28.9221 63.1619 29.6731 64.4493" stroke="#1E1E1E" stroke-linecap="round"/>
<path d="M27.4584 61.0353C26.7375 61.4206 23.8631 62.9784 23.1336 63.3682" stroke="#1E1E1E" stroke-linecap="round"/>
<path d="M31.576 99.2473C31.9292 98.8969 33.3416 97.4764 33.6947 97.1166" stroke="#1E1E1E" stroke-linecap="round"/>
<path d="M33.6903 97.0785C34.0827 97.391 35.6324 98.641 36.0248 98.9535" stroke="#1E1E1E" stroke-linecap="round"/>
<path d="M36.1129 99.2048C35.4361 100.209 32.7387 104.233 32.062 105.247" stroke="#1E1E1E" stroke-linecap="round"/>
<path d="M31.6422 99.2473C31.2891 98.8969 29.8766 97.4764 29.5235 97.1166" stroke="#1E1E1E" stroke-linecap="round"/>
<path d="M29.5278 97.0785C29.1355 97.391 27.5857 98.641 27.1934 98.9535" stroke="#1E1E1E" stroke-linecap="round"/>
<path d="M27.1053 99.2048C27.7821 100.209 30.4795 104.233 31.1563 105.247" stroke="#1E1E1E" stroke-linecap="round"/>
<path d="M31.4583 95.9274C32.5667 95.8706 34.3519 96.6944 35.2248 97.4331C36.0978 98.1623 36.5196 99.204 36.6863 100.312C36.8629 101.42 36.8629 103.125 36.2744 104.053C35.676 104.981 34.2832 105.464 33.1552 105.871C32.0272 106.269 30.5559 106.827 29.526 106.448C28.4961 106.07 27.525 104.668 26.9561 103.607C26.3872 102.537 25.9164 101.155 26.093 100.056C26.2597 98.9577 27.0346 97.7551 27.9762 96.9975C28.9179 96.2399 31.1052 95.6338 31.7624 95.5107C32.4097 95.3781 31.9095 96.1641 31.8703 96.2493M31.2425 96.2683C32.243 96.2778 33.7731 96.5145 34.7442 97.291C35.7055 98.0581 36.9119 99.7343 37.0492 100.88C37.1768 102.017 36.1272 103.181 35.5485 104.138C34.96 105.094 34.5578 106.297 33.5377 106.619C32.5274 106.931 30.5657 106.638 29.4475 106.06C28.3195 105.483 27.4073 104.034 26.7992 103.153C26.2009 102.263 25.7006 101.666 25.8183 100.738C25.9458 99.8195 26.5245 98.4843 27.5446 97.613C28.5647 96.7418 31.1444 95.8137 31.9487 95.5012C32.753 95.1982 32.3215 95.6149 32.3999 95.7569" fill="white"/>
<path d="M32.4196 95.9084C33.4789 95.9747 35.166 97.0732 35.9213 97.8971C36.6667 98.721 37.01 99.7721 36.9217 100.842C36.8433 101.912 36.1567 103.399 35.4406 104.308C34.7246 105.217 33.6947 106.155 32.6255 106.297C31.5564 106.448 29.9968 105.786 29.0356 105.179C28.0743 104.583 27.2602 103.674 26.858 102.689C26.4657 101.713 26.3284 100.378 26.6324 99.2986C26.9365 98.2285 27.6525 96.7986 28.6726 96.2398C29.6829 95.6811 32.0272 95.88 32.7334 95.9273C33.4495 95.9841 32.9688 96.5334 32.959 96.5618M31.5466 95.3497C32.5569 94.9709 33.3121 95.5864 34.0772 96.2209C34.8423 96.8648 35.6466 97.9728 36.1665 99.1945C36.6863 100.416 37.4906 102.452 37.2062 103.56C36.9217 104.668 35.6662 105.274 34.4794 105.833C33.2925 106.392 31.1837 107.197 30.0949 106.884C28.9963 106.581 28.5059 104.886 27.888 103.986C27.27 103.096 26.4853 102.556 26.4068 101.505C26.3382 100.444 26.6717 98.5978 27.4368 97.6414C28.2018 96.6944 30.399 96.0883 31.0071 95.8137C31.6152 95.5391 31.0856 95.7853 31.0954 95.9747" stroke="#1E1E1E" stroke-linecap="round"/>
<path d="M31.6842 101.636C31.7333 101.002 31.7431 98.0566 31.6744 97.3937M31.3998 101.475C31.4292 100.907 31.6058 98.5112 31.5469 97.7725" stroke="#1E1E1E" stroke-width="0.5" stroke-linecap="round"/>
<path d="M35.0343 102.485C34.436 102.191 32.0328 101.348 31.4541 101.093M34.7596 102.144C34.0927 101.736 31.6895 100.714 31.1304 100.572" stroke="#1E1E1E" stroke-width="0.5" stroke-linecap="round"/>
</svg>
