<svg width="83" height="120" viewBox="0 0 83 120" fill="none" xmlns="http://www.w3.org/2000/svg">
<path d="M21.3752 2.05061C31.0057 4.23444 42.5389 1.65182 60.9959 2.05061C76.5499 2.31647 81.1299 7.04494 80.8062 21.2303C82.9344 43.7902 81.679 58.8682 80.8062 98.6613C78.4231 114.622 76.952 117.879 60.9959 117.841C52.8462 118.192 40.3127 118.325 21.3752 117.841C7.46869 117.632 4.50694 110.777 1.56481 98.6613C2.33957 69.0752 -0.0827825 43.1731 1.56481 21.2303C3.2026 6.53221 10.2539 -1.01625 21.3752 2.05061Z" fill="white"/>
<path d="M21.3752 2.05062C33.1437 1.09163 43.4313 1.73728 60.9959 2.05062M21.3752 2.05062C35.1541 2.23102 48.5506 1.62335 60.9959 2.05062M21.3752 2.05062C7.30197 1.12961 1.44712 8.56413 1.56481 21.2303M21.3752 2.05062C6.22319 2.78173 -0.543717 7.51019 1.56481 21.2303M60.9959 2.05062C72.3819 0.161129 79.2077 6.57969 80.8062 21.2303M60.9959 2.05062C76.4126 0.265573 83.0128 8.59261 80.8062 21.2303M80.8062 21.2303C82.9147 42.0052 81.1298 65.657 80.8062 98.6614M80.8062 21.2303C81.7281 37.5236 81.326 56.333 80.8062 98.6614M80.8062 98.6614C80.4728 111.1 73.6372 116.816 60.9959 117.841M80.8062 98.6614C82.7088 110.596 73.4117 118.544 60.9959 117.841M60.9959 117.841C47.972 119.17 37.3509 117.566 21.3752 117.841M60.9959 117.841C51.2378 118.923 42.8331 118.012 21.3752 117.841M21.3752 117.841C7.08621 116.835 3.13395 111.821 1.56481 98.6614M21.3752 117.841C7.2137 119.987 -0.16124 113.065 1.56481 98.6614M1.56481 98.6614C3.44777 80.2982 2.23169 62.4572 1.56481 21.2303M1.56481 98.6614C1.08426 75.4368 2.12381 54.0732 1.56481 21.2303" stroke="#1E1E1E" stroke-width="2" stroke-linecap="round"/>
<path d="M22.4293 1.88562C34.3155 1.88562 46.2115 1.88562 58.1173 1.88562C60.5495 1.88562 61.7754 3.06299 61.7754 5.42722C61.7754 7.29772 61.7754 9.17771 61.7754 12.5009C61.7754 14.8557 60.5495 16.033 58.1173 16.033C50.6149 16.033 43.1223 16.033 22.4293 16.033C19.9873 16.033 18.7712 14.8557 18.7712 12.5009C18.7712 10.0797 18.7712 7.66802 18.7712 5.42722C18.7712 3.06299 19.9873 1.88562 22.4293 1.88562Z" fill="white"/>
<path d="M22.4293 1.88562C32.9817 1.88562 43.544 1.88562 58.1173 1.88562M22.4293 1.88562C33.7369 1.88562 45.0445 1.88562 58.1173 1.88562M22.4293 1.88562C19.9873 1.88562 18.7712 3.06299 18.7712 5.42722M58.1173 1.88562C60.5495 1.88562 61.7754 3.06299 61.7754 5.42722M61.7754 5.42722C61.7754 7.80095 61.7754 10.1842 61.7754 12.5009M61.7754 5.42722C61.7754 8.00984 61.7754 10.6019 61.7754 12.5009M61.7754 12.5009C61.7754 14.8557 60.5495 16.033 58.1173 16.033M58.1173 16.033C44.0049 16.033 29.8925 16.033 22.4293 16.033M58.1173 16.033C45.7898 16.033 33.4623 16.033 22.4293 16.033M22.4293 16.033C19.9873 16.033 18.7712 14.8557 18.7712 12.5009M18.7712 12.5009C18.7712 10.7824 18.7712 9.07327 18.7712 5.42722M18.7712 12.5009C18.7712 10.545 18.7712 8.59852 18.7712 5.42722" stroke="#1E1E1E" stroke-width="2" stroke-linecap="round"/>
<path d="M25.2169 5.61917C25.1225 5.61917 25.0329 5.60615 24.9483 5.58011C24.8669 5.55081 24.7953 5.51175 24.7335 5.46292C24.6749 5.41084 24.6277 5.35062 24.5919 5.28226C24.5561 5.2139 24.5381 5.13903 24.5381 5.05765C24.5381 4.92093 24.5919 4.81025 24.6993 4.72562C24.81 4.64098 24.9564 4.59866 25.1387 4.59866C25.2234 4.59866 25.3047 4.61494 25.3829 4.64749C25.461 4.67679 25.5294 4.71748 25.588 4.76956C25.6498 4.82165 25.6986 4.88349 25.7344 4.95511C25.7702 5.02347 25.7881 5.09508 25.7881 5.16995C25.7881 5.30993 25.7361 5.4206 25.6319 5.50198C25.531 5.58011 25.3926 5.61917 25.2169 5.61917ZM24.5479 7.10843C24.5479 6.9945 24.5967 6.90172 24.6944 6.83011C24.7953 6.75524 24.9271 6.7178 25.0899 6.7178C25.3829 6.7178 25.5391 6.81872 25.5587 7.02054C25.5717 7.16051 25.5847 7.31839 25.5977 7.49417C25.614 7.66995 25.6286 7.85713 25.6417 8.05569C25.6579 8.25101 25.671 8.45446 25.6807 8.66605C25.6937 8.87438 25.7051 9.08109 25.7149 9.28616C25.7247 9.48799 25.7328 9.6833 25.7393 9.8721C25.7458 10.0609 25.7491 10.2334 25.7491 10.3897C25.7491 10.5524 25.6905 10.6745 25.5733 10.7559C25.4594 10.8373 25.2917 10.878 25.0704 10.878C24.9695 10.878 24.8897 10.8535 24.8311 10.8047C24.7758 10.7591 24.7481 10.6908 24.7481 10.5996C24.7481 10.1504 24.7367 9.7305 24.7139 9.33987C24.6944 8.94599 24.6716 8.59606 24.6456 8.29007C24.6228 7.98408 24.6 7.73017 24.5772 7.52835C24.5577 7.32327 24.5479 7.1833 24.5479 7.10843ZM26.7354 6.65921C26.7354 6.61038 26.7566 6.56318 26.7989 6.51761C26.8412 6.46878 26.8965 6.42646 26.9649 6.39066C27.0333 6.35159 27.1098 6.32067 27.1944 6.29788C27.2823 6.27184 27.3702 6.25882 27.4581 6.25882C27.5069 6.25882 27.5476 6.27184 27.5801 6.29788C27.6159 6.32392 27.6469 6.37438 27.6729 6.44925C27.699 6.52086 27.7217 6.6234 27.7413 6.75687C27.7641 6.88707 27.7852 7.05797 27.8047 7.26956C27.8178 7.33467 27.8292 7.38512 27.8389 7.42093C27.8519 7.45348 27.8682 7.46976 27.8878 7.46976C27.9171 7.46976 27.9464 7.4193 27.9756 7.31839C28.2133 6.63154 28.5567 6.28812 29.0059 6.28812C29.2143 6.28812 29.4031 6.35322 29.5723 6.48343C29.7449 6.61364 29.9044 6.82685 30.0508 7.12308C30.2006 7.41605 30.3422 7.80342 30.4756 8.28519C30.6091 8.7637 30.7426 9.35452 30.876 10.0576C30.8825 10.0935 30.8874 10.126 30.8907 10.1553C30.8939 10.1846 30.8956 10.2123 30.8956 10.2383C30.8956 10.3132 30.8777 10.3783 30.8419 10.4336C30.8093 10.4857 30.7654 10.5297 30.71 10.5655C30.6547 10.598 30.5928 10.6224 30.5245 10.6387C30.4561 10.6582 30.3878 10.668 30.3194 10.668C30.1827 10.668 30.0834 10.6534 30.0215 10.6241C29.963 10.5948 29.9255 10.5394 29.9092 10.458C29.8148 9.96325 29.7221 9.52379 29.6309 9.13968C29.543 8.75556 29.4551 8.4333 29.3672 8.17288C29.2826 7.90921 29.198 7.70901 29.1133 7.5723C29.0287 7.43558 28.9441 7.36722 28.8594 7.36722C28.7748 7.36722 28.695 7.42093 28.6202 7.52835C28.5486 7.63252 28.4786 7.79691 28.4102 8.02151C28.3419 8.24612 28.2751 8.53095 28.21 8.87601C28.1482 9.22106 28.088 9.63284 28.0294 10.1114C28.0131 10.2416 27.948 10.3457 27.834 10.4239C27.7201 10.502 27.5753 10.541 27.3995 10.541C27.2823 10.541 27.1928 10.5166 27.1309 10.4678C27.0691 10.419 27.0349 10.3522 27.0284 10.2676C26.9991 9.59053 26.9665 9.03388 26.9307 8.59769C26.8982 8.15823 26.8672 7.80667 26.838 7.543C26.8087 7.27607 26.7842 7.0775 26.7647 6.9473C26.7452 6.81709 26.7354 6.72106 26.7354 6.65921ZM31.8624 4.95999C31.8624 4.78747 31.9112 4.66702 32.0089 4.59866C32.1065 4.52705 32.2676 4.49124 32.4922 4.49124C32.5736 4.49124 32.642 4.49938 32.6973 4.51566C32.7559 4.52868 32.8047 4.55472 32.8438 4.59378C32.8861 4.63284 32.9187 4.68493 32.9415 4.75003C32.9675 4.81188 32.9887 4.89163 33.0049 4.98929C33.044 5.29202 33.0863 5.60452 33.1319 5.92679C33.1807 6.24905 33.2312 6.57295 33.2833 6.89847C33.3028 7.04495 33.3793 7.11819 33.5128 7.11819C33.5486 7.11819 33.6072 7.11494 33.6885 7.10843C33.7732 7.09866 33.8725 7.0889 33.9864 7.07913C34.1003 7.06611 34.2224 7.05309 34.3526 7.04007C34.4861 7.02705 34.6179 7.01566 34.7481 7.00589C34.8816 6.99287 35.0069 6.9831 35.1241 6.97659C35.2445 6.96683 35.3503 6.96194 35.4415 6.96194C35.5131 6.96194 35.57 6.97659 35.6124 7.00589C35.6547 7.03193 35.6872 7.06774 35.71 7.11331C35.7361 7.15563 35.7523 7.20446 35.7589 7.2598C35.7686 7.31188 35.7735 7.36559 35.7735 7.42093C35.7735 7.46976 35.7637 7.52021 35.7442 7.5723C35.7279 7.62438 35.7035 7.67158 35.671 7.7139C35.6417 7.75296 35.6042 7.78551 35.5587 7.81155C35.5131 7.8376 35.461 7.85062 35.4024 7.85062C35.1192 7.85062 34.8327 7.86038 34.543 7.87991C34.2566 7.89619 33.9701 7.91898 33.6837 7.94827C33.5372 7.9678 33.4639 8.04105 33.4639 8.168C33.4639 8.17776 33.4656 8.19079 33.4688 8.20706C33.4721 8.22008 33.4737 8.23148 33.4737 8.24124C33.5128 8.52444 33.5486 8.78974 33.5811 9.03714C33.6169 9.28454 33.6462 9.50589 33.669 9.7012C33.695 9.89326 33.7146 10.0544 33.7276 10.1846C33.7439 10.3116 33.752 10.3962 33.752 10.4385C33.752 10.5557 33.7406 10.6534 33.7178 10.7315C33.695 10.8129 33.6576 10.878 33.6055 10.9268C33.5534 10.9789 33.4835 11.0147 33.3956 11.0342C33.3109 11.057 33.2035 11.0684 33.0733 11.0684C32.9496 11.0684 32.8585 11.0391 32.7999 10.9805C32.7413 10.9219 32.7087 10.8324 32.7022 10.7119C32.6827 10.3278 32.6518 9.94209 32.6094 9.55472C32.5671 9.16409 32.5183 8.7751 32.463 8.38773C32.4337 8.24775 32.3604 8.17776 32.2432 8.17776C32.2335 8.17776 32.2221 8.17939 32.209 8.18265C32.196 8.1859 32.1846 8.18753 32.1749 8.18753C31.973 8.2331 31.7826 8.27868 31.6036 8.32425C31.4245 8.36982 31.2569 8.41865 31.1006 8.47073C31.0128 8.50003 30.9346 8.52119 30.8663 8.53421C30.7979 8.54398 30.7361 8.54886 30.6807 8.54886C30.6059 8.54886 30.5505 8.51631 30.5147 8.4512C30.4789 8.38284 30.461 8.29821 30.461 8.1973C30.461 8.16149 30.4643 8.1208 30.4708 8.07523C30.4773 8.0264 30.4903 7.9792 30.5098 7.93362C30.5261 7.8848 30.5521 7.84085 30.588 7.80179C30.6205 7.75947 30.6661 7.72529 30.7247 7.69925C30.8614 7.64391 31.0437 7.58694 31.2715 7.52835C31.4994 7.4665 31.7566 7.40954 32.043 7.35745C32.1081 7.34118 32.1586 7.31513 32.1944 7.27933C32.2335 7.24026 32.253 7.1833 32.253 7.10843C32.253 7.09215 32.253 7.07588 32.253 7.0596C32.253 7.04007 32.2497 7.02054 32.2432 7.00101C32.1911 6.70153 32.1407 6.42972 32.0919 6.18558C32.0463 5.93818 32.0056 5.72659 31.9698 5.55081C31.9372 5.37503 31.9112 5.23668 31.8917 5.13577C31.8721 5.03486 31.8624 4.97627 31.8624 4.95999ZM39.6456 9.5303C39.74 9.44892 39.8327 9.40823 39.9239 9.40823C39.976 9.40823 40.0232 9.42125 40.0655 9.4473C40.1078 9.47334 40.155 9.51403 40.2071 9.56937C40.2559 9.64424 40.2901 9.70609 40.3096 9.75491C40.3324 9.80049 40.3438 9.84606 40.3438 9.89163C40.3438 9.98929 40.295 10.0821 40.1973 10.17C40.0411 10.3002 39.8718 10.4173 39.6895 10.5215C39.5072 10.6224 39.3168 10.7087 39.1182 10.7803C38.9197 10.8519 38.7146 10.9056 38.503 10.9414C38.2914 10.9805 38.0814 11 37.8731 11C37.6094 11 37.362 10.9659 37.1309 10.8975C36.8998 10.8324 36.6931 10.738 36.5108 10.6143C36.3318 10.4906 36.1804 10.3425 36.0567 10.17C35.933 9.99417 35.8451 9.79723 35.793 9.57913C35.7637 9.48799 35.7361 9.42939 35.71 9.40335C35.6872 9.37405 35.6482 9.35941 35.5928 9.35941C35.4724 9.35941 35.3796 9.33011 35.3145 9.27151C35.2494 9.21292 35.2169 9.12829 35.2169 9.01761C35.2169 8.97204 35.2201 8.94274 35.2266 8.92972L35.2364 8.83206C35.2527 8.71487 35.2836 8.63024 35.3292 8.57816C35.378 8.52607 35.4529 8.50003 35.5538 8.50003H35.627C35.7637 8.50003 35.8598 8.43655 35.9151 8.3096C36.016 8.08499 36.1446 7.87991 36.3008 7.69437C36.4571 7.50882 36.6329 7.35094 36.8282 7.22073C37.0235 7.08727 37.2318 6.98473 37.4532 6.91312C37.6778 6.83825 37.9057 6.80081 38.1368 6.80081C38.3777 6.80081 38.6023 6.83662 38.8106 6.90823C39.0222 6.97659 39.2061 7.07262 39.3624 7.19632C39.5186 7.32002 39.6407 7.46487 39.7286 7.63089C39.8197 7.79691 39.8653 7.97594 39.8653 8.168C39.8653 8.30146 39.8393 8.42353 39.7872 8.53421C39.7351 8.64489 39.6602 8.74254 39.5626 8.82718C39.4649 8.90856 39.3461 8.97529 39.2061 9.02737C39.0694 9.07946 38.9131 9.11364 38.7374 9.12991L37.043 9.30081C36.9779 9.30081 36.9242 9.31709 36.8819 9.34964C36.8428 9.38219 36.8233 9.42614 36.8233 9.48148C36.8233 9.56611 36.8542 9.64749 36.9161 9.72562C36.9812 9.80374 37.0658 9.87373 37.17 9.93558C37.2774 9.99417 37.3995 10.0414 37.5362 10.0772C37.6762 10.113 37.8194 10.1309 37.9659 10.1309C38.1059 10.1309 38.2491 10.1179 38.3956 10.0918C38.5453 10.0625 38.6918 10.0218 38.835 9.96976C38.9815 9.91767 39.1231 9.85582 39.2598 9.78421C39.3965 9.70934 39.5251 9.6247 39.6456 9.5303ZM38.5567 8.27054C38.6055 8.26077 38.6478 8.23799 38.6837 8.20218C38.7195 8.16312 38.7374 8.11592 38.7374 8.06058C38.7374 8.01175 38.7195 7.96618 38.6837 7.92386C38.6478 7.88154 38.599 7.84411 38.5372 7.81155C38.4753 7.77575 38.4037 7.74808 38.3223 7.72855C38.2409 7.70901 38.1547 7.69925 38.0635 7.69925C37.9301 7.69925 37.7934 7.71878 37.6534 7.75784C37.5134 7.79691 37.3865 7.84899 37.2725 7.91409C37.1586 7.97594 37.0658 8.04593 36.9942 8.12405C36.9226 8.19892 36.8868 8.27379 36.8868 8.34866C36.8868 8.42353 36.9324 8.46097 37.0235 8.46097C37.0788 8.46097 37.1684 8.45446 37.2921 8.44144C37.4158 8.42842 37.5525 8.41377 37.7022 8.39749C37.8519 8.37796 38.0033 8.3568 38.1563 8.33401C38.3093 8.31123 38.4428 8.29007 38.5567 8.27054ZM43.2393 6.79105C43.3956 6.79105 43.5437 6.80407 43.6837 6.83011C43.8236 6.8529 43.9506 6.87894 44.0645 6.90823C44.1784 6.93428 44.2761 6.96032 44.3575 6.98636C44.4389 7.00915 44.4975 7.02054 44.5333 7.02054C44.5626 7.02054 44.5902 7.00589 44.6163 6.97659C44.6423 6.94404 44.6749 6.90986 44.7139 6.87405C44.753 6.83825 44.8051 6.80569 44.8702 6.7764C44.9353 6.74385 45.0215 6.72757 45.129 6.72757C45.2527 6.72757 45.3503 6.76012 45.4219 6.82523C45.4936 6.88707 45.5294 6.9652 45.5294 7.0596C45.5294 8.25101 45.4887 9.26338 45.4073 10.0967C45.3259 10.9268 45.1941 11.6022 45.0118 12.1231C44.8295 12.6439 44.5935 13.0215 44.3038 13.2559C44.0141 13.4903 43.6625 13.6075 43.2491 13.6075C43.0603 13.6075 42.8633 13.5651 42.6583 13.4805C42.4564 13.3959 42.2709 13.2868 42.1016 13.1534C41.9324 13.0231 41.7924 12.8783 41.6817 12.7188C41.5743 12.5593 41.5206 12.4063 41.5206 12.2598C41.5206 12.211 41.5466 12.154 41.5987 12.0889C41.6508 12.0238 41.7143 11.9603 41.7891 11.8985C41.864 11.8366 41.9421 11.7845 42.0235 11.7422C42.1049 11.6999 42.1749 11.6787 42.2335 11.6787C42.2953 11.6787 42.3474 11.7032 42.3897 11.752C42.432 11.8041 42.4711 11.8675 42.5069 11.9424C42.546 12.0173 42.585 12.0987 42.6241 12.1866C42.6631 12.2777 42.712 12.3607 42.7706 12.4356C42.8292 12.5104 42.9008 12.5723 42.9854 12.6211C43.07 12.6732 43.1758 12.6992 43.3028 12.6992C44.0124 12.6992 44.4291 11.6153 44.5528 9.4473C44.5528 9.34964 44.5251 9.30081 44.4698 9.30081C44.4242 9.30081 44.3884 9.3236 44.3624 9.36917C44.0564 9.78258 43.6983 10.0935 43.2881 10.3018C42.8812 10.5069 42.4288 10.6094 41.9307 10.6094C41.6996 10.6094 41.4864 10.5752 41.2911 10.5069C41.0958 10.4353 40.9265 10.3376 40.7833 10.2139C40.6433 10.0869 40.5342 9.9372 40.4561 9.76468C40.378 9.5889 40.3389 9.39684 40.3389 9.18851C40.3389 8.98343 40.3747 8.78161 40.4464 8.58304C40.5212 8.38122 40.6238 8.19241 40.754 8.01663C40.8874 7.8376 41.0453 7.67321 41.2276 7.52347C41.4099 7.37373 41.6085 7.24515 41.8233 7.13773C42.0381 7.02705 42.2644 6.94241 42.502 6.88382C42.7429 6.82197 42.9887 6.79105 43.2393 6.79105ZM42.0821 9.71097C42.5281 9.71097 42.9366 9.57099 43.3077 9.29105C43.6788 9.00784 43.9962 8.59769 44.2598 8.06058C44.2663 8.04105 44.2712 8.0264 44.2745 8.01663C44.2777 8.00361 44.2794 7.99059 44.2794 7.97757C44.2794 7.94502 44.2452 7.91084 44.1768 7.87503C44.1085 7.83922 44.0189 7.8083 43.9083 7.78226C43.7976 7.75622 43.6706 7.73506 43.5274 7.71878C43.3874 7.69925 43.2458 7.68948 43.1026 7.68948C42.8715 7.68948 42.6485 7.72855 42.4337 7.80667C42.2188 7.8848 42.0284 7.98896 41.8624 8.11917C41.6964 8.24938 41.5629 8.39749 41.462 8.56351C41.3611 8.72952 41.3106 8.90205 41.3106 9.08109C41.3106 9.27314 41.3806 9.42614 41.5206 9.54007C41.6638 9.654 41.851 9.71097 42.0821 9.71097ZM48.9962 6.9473C48.8757 6.9473 48.7699 6.97985 48.6788 7.04495C48.5876 7.1068 48.5095 7.19469 48.4444 7.30862C48.3793 7.4193 48.3256 7.55114 48.2833 7.70413C48.2409 7.85387 48.2068 8.01826 48.1807 8.1973C48.1547 8.37633 48.1368 8.56351 48.127 8.75882C48.1172 8.95413 48.1124 9.15107 48.1124 9.34964C48.1124 9.61006 48.1221 9.86722 48.1417 10.1211C48.1644 10.3718 48.1758 10.6045 48.1758 10.8194C48.1758 10.9593 48.1238 11.0684 48.0196 11.1465C47.9154 11.2279 47.7673 11.2686 47.5753 11.2686C47.5394 11.2686 47.4988 11.2653 47.4532 11.2588C47.4076 11.2523 47.3637 11.2393 47.3214 11.2198C47.2823 11.2002 47.2465 11.1726 47.2139 11.1367C47.1846 11.1042 47.1684 11.0586 47.1651 11C47.1358 10.7136 47.0935 10.4206 47.0381 10.1211C46.9828 9.82165 46.9128 9.52379 46.8282 9.22757C46.7468 8.92809 46.6475 8.63187 46.5303 8.3389C46.4164 8.04593 46.2846 7.75947 46.1348 7.47952C46.1088 7.43069 46.086 7.38512 46.0665 7.3428C46.0502 7.30049 46.0421 7.2598 46.0421 7.22073C46.0421 7.17191 46.0632 7.11982 46.1055 7.06448C46.1511 7.00589 46.2064 6.95218 46.2715 6.90335C46.3399 6.85452 46.4131 6.81546 46.4913 6.78616C46.5727 6.75361 46.6508 6.73734 46.7256 6.73734C46.8493 6.73734 46.9584 6.8236 47.0528 6.99612C47.1472 7.1654 47.2351 7.4372 47.3165 7.81155C47.3327 7.87666 47.3458 7.92223 47.3555 7.94827C47.3653 7.97431 47.3783 7.98734 47.3946 7.98734C47.4304 7.98734 47.4532 7.932 47.463 7.82132C47.502 7.51207 47.5687 7.24678 47.6631 7.02542C47.7575 6.80081 47.8747 6.61689 48.0147 6.47366C48.1579 6.32718 48.3207 6.21976 48.503 6.1514C48.6885 6.08304 48.892 6.04886 49.1133 6.04886C49.2403 6.04886 49.3689 6.06025 49.4991 6.08304C49.6293 6.10582 49.7465 6.14 49.8506 6.18558C49.9548 6.23115 50.0394 6.28649 50.1046 6.35159C50.1697 6.4167 50.2022 6.48994 50.2022 6.57132C50.2022 6.62991 50.1892 6.6999 50.1631 6.78128C50.1404 6.85941 50.1094 6.9359 50.0704 7.01077C50.0313 7.08239 49.9857 7.14424 49.9337 7.19632C49.8848 7.24515 49.8344 7.26956 49.7823 7.26956C49.7237 7.26956 49.6667 7.25329 49.6114 7.22073C49.5561 7.18493 49.4958 7.14749 49.4307 7.10843C49.3689 7.06937 49.3021 7.03356 49.2305 7.00101C49.1622 6.9652 49.084 6.9473 48.9962 6.9473ZM52.961 6.33206C53.14 6.33206 53.3126 6.35973 53.4786 6.41507C53.6446 6.47041 53.7911 6.54691 53.918 6.64456C54.045 6.74222 54.1459 6.85941 54.2208 6.99612C54.2989 7.13284 54.338 7.28421 54.338 7.45023C54.338 7.51859 54.3217 7.58532 54.2891 7.65042C54.2598 7.71227 54.2191 7.76761 54.1671 7.81644C54.115 7.86201 54.0547 7.89944 53.9864 7.92874C53.9213 7.95478 53.8529 7.9678 53.7813 7.9678C53.7748 7.9678 53.7683 7.96943 53.7618 7.97269C53.7585 7.97269 53.7536 7.97269 53.7471 7.97269C53.7406 7.97594 53.7341 7.97757 53.7276 7.97757L53.7471 8.36819C53.7602 8.83369 53.8253 9.17386 53.9424 9.3887C54.0629 9.60355 54.2191 9.71097 54.4112 9.71097C54.4796 9.71097 54.5398 9.70446 54.5919 9.69144C54.6472 9.67842 54.6977 9.66377 54.7432 9.64749C54.7921 9.62796 54.8376 9.61168 54.8799 9.59866C54.9223 9.58564 54.9646 9.57913 55.0069 9.57913C55.0818 9.57913 55.1469 9.61168 55.2022 9.67679C55.2608 9.74189 55.2901 9.82002 55.2901 9.91116C55.2901 10.0023 55.2543 10.0935 55.1827 10.1846C55.1143 10.2757 55.0232 10.3588 54.9092 10.4336C54.7953 10.5052 54.6667 10.5638 54.5235 10.6094C54.3803 10.655 54.2354 10.6778 54.0889 10.6778C53.835 10.6778 53.612 10.5736 53.42 10.3653C53.2279 10.1537 53.0912 9.84443 53.0098 9.43753C52.9903 9.37243 52.9643 9.33987 52.9317 9.33987C52.8926 9.33987 52.8585 9.35941 52.8292 9.39847C52.5069 9.80537 52.1635 10.1114 51.7989 10.3164C51.4343 10.5183 51.0746 10.6192 50.7198 10.6192C50.5538 10.6192 50.404 10.5948 50.2706 10.5459C50.1371 10.4971 50.0232 10.4287 49.9288 10.3409C49.8376 10.2497 49.766 10.1407 49.7139 10.0137C49.6651 9.88349 49.6407 9.73864 49.6407 9.57913C49.6407 9.35452 49.6895 9.11852 49.7872 8.87112C49.8881 8.62373 50.0232 8.37959 50.1924 8.1387C50.3617 7.89782 50.557 7.66832 50.7784 7.45023C51.003 7.23213 51.2374 7.04007 51.4815 6.87405C51.7289 6.70804 51.9796 6.5762 52.2335 6.47855C52.4874 6.38089 52.7299 6.33206 52.961 6.33206ZM52.7999 8.02151C52.8585 7.91084 52.9122 7.83109 52.961 7.78226C53.0098 7.73017 53.0798 7.69599 53.171 7.67972C53.2426 7.66995 53.2784 7.64717 53.2784 7.61136C53.2784 7.58532 53.2686 7.55765 53.2491 7.52835C53.1872 7.44372 53.1221 7.37047 53.0538 7.30862C52.9854 7.24352 52.8943 7.21097 52.7803 7.21097C52.6566 7.21097 52.5183 7.24678 52.3653 7.31839C52.2123 7.39 52.0561 7.48603 51.8965 7.60648C51.7403 7.72366 51.5857 7.85875 51.4327 8.01175C51.2829 8.16149 51.1495 8.31611 51.0323 8.47562C50.9151 8.63512 50.8207 8.793 50.7491 8.94925C50.6775 9.1055 50.6417 9.24547 50.6417 9.36917C50.6417 9.47985 50.671 9.56611 50.7296 9.62796C50.7914 9.68981 50.8744 9.72073 50.9786 9.72073C51.2455 9.72073 51.5368 9.57913 51.8526 9.29593C52.1684 9.01273 52.4841 8.58792 52.7999 8.02151ZM55.1876 5.03812C55.1876 4.86885 55.2364 4.7484 55.334 4.67679C55.4317 4.60517 55.5928 4.56937 55.8174 4.56937C55.8956 4.56937 55.9639 4.5775 56.0225 4.59378C56.0811 4.61006 56.1299 4.63773 56.169 4.67679C56.2081 4.7126 56.239 4.76305 56.2618 4.82816C56.2878 4.89 56.309 4.96976 56.3253 5.06741C56.3676 5.35713 56.4099 5.66149 56.4522 5.9805C56.4978 6.29625 56.5401 6.61201 56.5792 6.92776C56.6215 7.24026 56.6605 7.54625 56.6964 7.84573C56.7322 8.14196 56.7631 8.41865 56.7891 8.67581C56.8184 8.92972 56.8396 9.15595 56.8526 9.35452C56.8689 9.54984 56.877 9.70446 56.877 9.81839C56.877 9.93558 56.8656 10.0349 56.8428 10.1162C56.8233 10.1976 56.7875 10.2627 56.7354 10.3116C56.6866 10.3604 56.6215 10.3962 56.5401 10.419C56.462 10.4385 56.3643 10.4483 56.2471 10.4483C56.1332 10.4483 56.0421 10.419 55.9737 10.3604C55.9086 10.3018 55.876 10.2123 55.876 10.0918C55.876 9.96813 55.8663 9.80374 55.8467 9.59866C55.8272 9.39033 55.8012 9.15921 55.7686 8.9053C55.7361 8.6514 55.6986 8.38122 55.6563 8.09476C55.6172 7.8083 55.5749 7.5251 55.5294 7.24515C55.487 6.9652 55.4447 6.69665 55.4024 6.43948C55.3633 6.17907 55.3275 5.94957 55.295 5.75101C55.2624 5.54918 55.2364 5.3848 55.2169 5.25784C55.1973 5.12763 55.1876 5.05439 55.1876 5.03812Z" fill="#1E1E1E"/>
<path d="M9.96222 85.7596C20.7402 85.7596 63.8719 85.7596 74.6499 85.7596" stroke="#1E1E1E" stroke-width="2" stroke-linecap="round"/>
<path d="M27.0134 35.0868C25.8454 34.6002 22.1297 27.1294 20.9536 32.5787C19.7776 38.028 21.1061 62.5313 19.9483 67.7725C18.7913 73.0042 15.0859 64.629 14.0272 64.018M27.7933 34.722C26.4958 34.2534 21.7138 27.4955 20.369 33.0739C19.0135 38.6609 20.7584 63.0173 19.7097 68.2484C18.6611 73.4795 14.9451 65.1129 14.0469 64.4675" stroke="#1E1E1E" stroke-width="2" stroke-linecap="round"/>
<path d="M33.616 51.6268V52.4685H30.1317V51.6268H33.616ZM31.1753 58.0905V50.7347C31.1753 50.3644 31.2623 50.0558 31.4362 49.8089C31.6102 49.562 31.836 49.3769 32.1137 49.2535C32.3915 49.13 32.6846 49.0683 32.9932 49.0683C33.2373 49.0683 33.4365 49.0879 33.5908 49.1272C33.7451 49.1665 33.8601 49.203 33.9358 49.2366L33.6497 50.0951C33.5992 50.0782 33.5291 50.0572 33.4393 50.032C33.3523 50.0067 33.2373 49.9941 33.0942 49.9941C32.766 49.9941 32.5289 50.0768 32.3831 50.2424C32.24 50.4079 32.1684 50.6505 32.1684 50.9704V58.0905H31.1753ZM35.3613 54.4547C35.3613 53.3942 35.4988 52.4194 35.7737 51.53C36.0515 50.6379 36.447 49.8173 36.9604 49.0683H37.8357C37.6337 49.346 37.4444 49.6883 37.2676 50.0951C37.0937 50.4991 36.9408 50.9437 36.8089 51.429C36.6771 51.9116 36.5733 52.4109 36.4975 52.9271C36.4246 53.4433 36.3881 53.9525 36.3881 54.4547C36.3881 55.1224 36.4527 55.7999 36.5817 56.4872C36.7107 57.1745 36.8847 57.8127 37.1035 58.4019C37.3223 58.991 37.5664 59.4707 37.8357 59.8411H36.9604C36.447 59.092 36.0515 58.2728 35.7737 57.3835C35.4988 56.4914 35.3613 55.5151 35.3613 54.4547ZM48.0877 54.4547C48.0877 55.5151 47.9489 56.4914 47.6711 57.3835C47.3962 58.2728 47.002 59.092 46.4886 59.8411H45.6134C45.8153 59.5633 46.0033 59.2211 46.1772 58.8143C46.354 58.4103 46.5083 57.967 46.6401 57.4845C46.772 56.9992 46.8744 56.4984 46.9473 55.9822C47.0231 55.4632 47.0609 54.954 47.0609 54.4547C47.0609 53.787 46.9964 53.1095 46.8674 52.4222C46.7383 51.7348 46.5644 51.0966 46.3456 50.5075C46.1267 49.9183 45.8827 49.4386 45.6134 49.0683H46.4886C47.002 49.8173 47.3962 50.6379 47.6711 51.53C47.9489 52.4194 48.0877 53.3942 48.0877 54.4547ZM33.1784 72.2251C32.6398 72.2251 32.1642 72.0891 31.7518 71.817C31.3394 71.542 31.0168 71.1549 30.784 70.6555C30.5511 70.1534 30.4347 69.56 30.4347 68.8755C30.4347 68.1966 30.5511 67.6074 30.784 67.1081C31.0168 66.6087 31.3408 66.223 31.756 65.9509C32.1712 65.6787 32.651 65.5427 33.1952 65.5427C33.616 65.5427 33.9485 65.6128 34.1925 65.7531C34.4394 65.8905 34.6274 66.0476 34.7564 66.2244C34.8883 66.3983 34.9907 66.5414 35.0636 66.6536H35.1478V63.4723H36.1409V72.0905H35.1815V71.0974H35.0636C34.9907 71.2152 34.8869 71.3639 34.7522 71.5434C34.6176 71.7202 34.4254 71.8787 34.1757 72.0189C33.926 72.1564 33.5936 72.2251 33.1784 72.2251ZM33.313 71.333C33.7114 71.333 34.0481 71.2292 34.323 71.0216C34.5979 70.8112 34.8069 70.5209 34.95 70.1505C35.0931 69.7774 35.1646 69.3468 35.1646 68.8587C35.1646 68.3761 35.0945 67.9539 34.9542 67.592C34.8139 67.2273 34.6063 66.944 34.3314 66.742C34.0565 66.5372 33.717 66.4348 33.313 66.4348C32.8922 66.4348 32.5416 66.5428 32.261 66.7588C31.9833 66.972 31.7743 67.2624 31.634 67.6299C31.4965 67.9946 31.4278 68.4042 31.4278 68.8587C31.4278 69.3187 31.498 69.7367 31.6382 70.1127C31.7813 70.4858 31.9917 70.7832 32.2694 71.0048C32.55 71.2236 32.8978 71.333 33.313 71.333ZM38.8383 65.6268L40.3869 68.2695L41.9355 65.6268H43.0801L40.9928 68.8587L43.0801 72.0905H41.9355L40.3869 69.5825L38.8383 72.0905H37.6937L39.7472 68.8587L37.6937 65.6268H38.8383Z" fill="#1E1E1E"/>
<path d="M43.8216 50.7615C44.6748 50.847 44.8808 50.9419 46.3617 50.7615C47.3522 51.9674 48.5094 50.0399 47.6366 51.9864C47.8523 53.572 48.2054 55.8983 47.6366 57.351C49.4117 58.7373 48.7056 59.8197 46.3617 58.5758C45.4104 58.31 44.2629 58.3765 43.8216 58.5758C44.5866 58.9461 41.5758 59.6203 42.5565 57.351C41.9092 56.8668 41.9779 55.1197 42.5565 51.9864C43.9001 51.4262 42.9292 50.79 43.8216 50.7615Z" fill="white"/>
<path d="M43.8216 50.7615C44.5277 50.7425 45.1358 50.7805 46.3617 50.7615M43.8216 50.7615C44.7925 50.7805 45.6654 50.79 46.3617 50.7615M43.8216 50.7615C43.1057 51.0369 43.037 50.6761 42.5565 51.9864M43.8216 50.7615C42.8311 50.6001 42.4388 51.2268 42.5565 51.9864M46.3617 50.7615C46.6264 50.3628 47.8916 51.5496 47.6366 51.9864M46.3617 50.7615C46.4793 50.5337 47.2835 50.6761 47.6366 51.9864M47.6366 51.9864C47.5581 53.3062 47.7543 54.7304 47.6366 57.351M47.6366 51.9864C47.6954 53.9518 47.715 56.0312 47.6366 57.351M47.6366 57.351C48.1269 57.5789 46.7932 57.9492 46.3617 58.5758M47.6366 57.351C47.97 58.7847 46.5088 58.6518 46.3617 58.5758M46.3617 58.5758C45.4692 58.5758 44.5768 58.5474 43.8216 58.5758M46.3617 58.5758C45.5967 58.5664 44.9396 58.5948 43.8216 58.5758M43.8216 58.5758C43.5372 58.9367 42.9096 57.9587 42.5565 57.351M43.8216 58.5758C42.5075 58.3005 42.0269 58.1011 42.5565 57.351M42.5565 57.351C42.5369 55.585 42.429 53.6195 42.5565 51.9864M42.5565 57.351C42.6251 55.5375 42.5173 53.9044 42.5565 51.9864" stroke="#1E1E1E" stroke-linecap="round"/>
</svg>
