<svg width="84" height="120" viewBox="0 0 84 120" fill="none" xmlns="http://www.w3.org/2000/svg">
<path d="M22.5477 1.84135C37.1378 3.98072 49.8708 2.06004 62.4556 1.84135C72.9264 -0.298025 82.9725 11.188 82.4095 21.0482C84.1283 49.2023 79.9597 82.3293 82.4095 98.5885C81.639 111.501 72.8079 116.055 62.4556 117.795C48.2606 119.811 32.5247 115.285 22.5477 117.795C9.04426 116.911 1.60599 110.16 2.59381 98.5885C5.2214 71.2521 7.19704 47.7285 2.59381 21.0482C3.78906 10.5224 6.40678 -1.24886 22.5477 1.84135Z" fill="white"/>
<path d="M22.5477 1.84134C36.634 1.01412 51.4512 3.85711 62.4555 1.84134M22.5477 1.84134C32.9 1.54658 44.2994 1.44199 62.4555 1.84134M22.5477 1.84134C10.8717 2.19315 4.22367 7.98372 2.59377 21.0481M22.5477 1.84134C7.5625 1.14723 0.479844 7.00436 2.59377 21.0481M62.4555 1.84134C75.1786 0.728868 83.2985 9.98046 82.4094 21.0481M62.4555 1.84134C76.2356 1.34691 83.5553 9.63817 82.4094 21.0481M82.4094 21.0481C82.5082 44.5622 81.7476 69.2934 82.4094 98.5885M82.4094 21.0481C83.8121 44.1629 82.202 68.257 82.4094 98.5885M82.4094 98.5885C82.3798 109.761 77.5691 118.014 62.4555 117.795M82.4094 98.5885C83.1207 109.647 76.038 116.293 62.4555 117.795M62.4555 117.795C54.9777 117.073 43.687 116.949 22.5477 117.795M62.4555 117.795C50.6313 118.613 39.064 118.423 22.5477 117.795M22.5477 117.795C7.4242 118.185 3.79891 112.499 2.59377 98.5885M22.5477 117.795C7.69091 119.526 4.57929 109.694 2.59377 98.5885M2.59377 98.5885C1.65535 68.7229 4.40148 39.8746 2.59377 21.0481M2.59377 98.5885C1.65535 69.2363 1.93194 41.5861 2.59377 21.0481" stroke="#1E1E1E" stroke-width="2" stroke-linecap="round"/>
<path d="M11.3017 85.7262C22.1578 85.7262 65.602 85.7262 76.4581 85.7262" stroke="#1E1E1E" stroke-width="2" stroke-linecap="round"/>
<path d="M10.5799 100.556C10.5699 99.7005 10.5499 96.268 10.5399 95.4123" stroke="#1E1E1E" stroke-linecap="round"/>
<path d="M10.5082 95.6052C10.7552 95.2629 11.7529 93.9127 11.9998 93.5704" stroke="#1E1E1E" stroke-linecap="round"/>
<path d="M13.4744 100.617C13.4844 99.7616 13.5044 96.3291 13.5144 95.4734" stroke="#1E1E1E" stroke-linecap="round"/>
<path d="M13.5455 95.6662C13.2985 95.3239 12.3008 93.9737 12.0539 93.6314" stroke="#1E1E1E" stroke-linecap="round"/>
<path d="M8.39404 101.08C9.55967 101.061 14.2024 100.985 15.3582 100.966" stroke="#1E1E1E" stroke-linecap="round"/>
<path d="M12.2056 101.166C12.2156 101.765 12.2556 104.18 12.2656 104.779" stroke="#1E1E1E" stroke-linecap="round"/>
<path d="M53.1123 96.4887C53.4679 96.1369 54.8904 94.7106 55.246 94.3493" stroke="#1E1E1E" stroke-linecap="round"/>
<path d="M55.2416 94.3111C55.6367 94.6249 57.1975 95.88 57.5926 96.1937" stroke="#1E1E1E" stroke-linecap="round"/>
<path d="M57.6813 96.446C56.9997 97.4539 54.2832 101.495 53.6016 102.512" stroke="#1E1E1E" stroke-linecap="round"/>
<path d="M53.1789 96.4887C52.8232 96.1369 51.4008 94.7106 51.0452 94.3493" stroke="#1E1E1E" stroke-linecap="round"/>
<path d="M51.0496 94.3111C50.6545 94.6249 49.0937 95.88 48.6986 96.1937" stroke="#1E1E1E" stroke-linecap="round"/>
<path d="M48.6099 96.446C49.2915 97.4539 52.008 101.495 52.6896 102.512" stroke="#1E1E1E" stroke-linecap="round"/>
<path d="M23.8591 1.7337C33.3421 1.7337 42.835 1.7337 59.8057 1.7337C62.2555 1.7337 63.4903 2.91274 63.4903 5.28031C63.4903 6.7636 63.4903 8.2469 63.4903 12.364C63.4903 14.7221 62.2555 15.9011 59.8057 15.9011C47.1222 15.9011 34.4287 15.9011 23.8591 15.9011C21.3994 15.9011 20.1745 14.7221 20.1745 12.364C20.1745 10.4243 20.1745 8.48461 20.1745 5.28031C20.1745 2.91274 21.3994 1.7337 23.8591 1.7337Z" fill="white"/>
<path d="M23.8591 1.7337C37.1551 1.7337 50.461 1.7337 59.8057 1.7337M23.8591 1.7337C35.051 1.7337 46.2529 1.7337 59.8057 1.7337M23.8591 1.7337C21.3994 1.7337 20.1745 2.91274 20.1745 5.28031M59.8057 1.7337C62.2555 1.7337 63.4903 2.91274 63.4903 5.28031M63.4903 5.28031C63.4903 7.4482 63.4903 9.62561 63.4903 12.364M63.4903 5.28031C63.4903 7.80952 63.4903 10.3482 63.4903 12.364M63.4903 12.364C63.4903 14.7221 62.2555 15.9011 59.8057 15.9011M59.8057 15.9011C51.4587 15.9011 43.1116 15.9011 23.8591 15.9011M59.8057 15.9011C48.3569 15.9011 36.8983 15.9011 23.8591 15.9011M23.8591 15.9011C21.3994 15.9011 20.1745 14.7221 20.1745 12.364M20.1745 12.364C20.1745 9.62561 20.1745 6.89672 20.1745 5.28031M20.1745 12.364C20.1745 9.98693 20.1745 7.61935 20.1745 5.28031" stroke="#1E1E1E" stroke-width="2" stroke-linecap="round"/>
<path d="M24.1215 5.7774C24.0365 5.7774 23.9559 5.76569 23.8798 5.74225C23.8065 5.71588 23.7421 5.68073 23.6864 5.63678C23.6337 5.5899 23.5912 5.53571 23.559 5.47418C23.5267 5.41266 23.5106 5.34528 23.5106 5.27203C23.5106 5.14899 23.559 5.04938 23.6556 4.97321C23.7552 4.89703 23.8871 4.85895 24.0511 4.85895C24.1273 4.85895 24.2006 4.8736 24.2709 4.90289C24.3412 4.92926 24.4027 4.96588 24.4554 5.01276C24.5111 5.05963 24.5551 5.1153 24.5873 5.17975C24.6195 5.24127 24.6356 5.30573 24.6356 5.37311C24.6356 5.49908 24.5887 5.59869 24.495 5.67194C24.4042 5.74225 24.2797 5.7774 24.1215 5.7774ZM23.5194 7.11774C23.5194 7.0152 23.5634 6.9317 23.6512 6.86725C23.7421 6.79987 23.8607 6.76617 24.0072 6.76617C24.2709 6.76617 24.4115 6.85699 24.4291 7.03864C24.4408 7.16461 24.4525 7.3067 24.4642 7.4649C24.4789 7.62311 24.4921 7.79156 24.5038 7.97028C24.5184 8.14606 24.5302 8.32916 24.5389 8.51959C24.5507 8.70709 24.5609 8.89313 24.5697 9.0777C24.5785 9.25934 24.5858 9.43512 24.5917 9.60504C24.5975 9.77496 24.6005 9.93024 24.6005 10.0709C24.6005 10.2173 24.5477 10.3272 24.4423 10.4005C24.3397 10.4737 24.1888 10.5103 23.9896 10.5103C23.8988 10.5103 23.827 10.4883 23.7743 10.4444C23.7245 10.4034 23.6996 10.3419 23.6996 10.2598C23.6996 9.85553 23.6893 9.4776 23.6688 9.12604C23.6512 8.77155 23.6307 8.4566 23.6073 8.18121C23.5868 7.90582 23.5663 7.67731 23.5458 7.49567C23.5282 7.3111 23.5194 7.18512 23.5194 7.11774ZM25.4882 6.71344C25.4882 6.66949 25.5072 6.62701 25.5453 6.586C25.5834 6.54205 25.6332 6.50397 25.6947 6.47174C25.7562 6.43658 25.8251 6.40875 25.9012 6.38824C25.9803 6.36481 26.0594 6.35309 26.1385 6.35309C26.1825 6.35309 26.2191 6.36481 26.2484 6.38824C26.2806 6.41168 26.3085 6.45709 26.3319 6.52448C26.3553 6.58893 26.3759 6.68121 26.3934 6.80133C26.4139 6.91852 26.433 7.07233 26.4506 7.26276C26.4623 7.32135 26.4725 7.36676 26.4813 7.39899C26.493 7.42828 26.5077 7.44293 26.5253 7.44293C26.5516 7.44293 26.578 7.39752 26.6044 7.3067C26.8182 6.68854 27.1273 6.37946 27.5316 6.37946C27.7191 6.37946 27.889 6.43805 28.0414 6.55524C28.1967 6.67242 28.3402 6.86432 28.472 7.13092C28.6068 7.39459 28.7343 7.74323 28.8544 8.17682C28.9745 8.60748 29.0946 9.13922 29.2147 9.77203C29.2206 9.80426 29.225 9.83356 29.2279 9.85992C29.2308 9.88629 29.2323 9.91119 29.2323 9.93463C29.2323 10.002 29.2162 10.0606 29.184 10.1104C29.1547 10.1573 29.1151 10.1968 29.0653 10.2291C29.0155 10.2584 28.9598 10.2803 28.8983 10.295C28.8368 10.3126 28.7753 10.3214 28.7137 10.3214C28.5907 10.3214 28.5013 10.3082 28.4457 10.2818C28.3929 10.2554 28.3593 10.2056 28.3446 10.1324C28.2596 9.68707 28.1761 9.29156 28.0941 8.94586C28.015 8.60016 27.9359 8.31012 27.8568 8.07574C27.7806 7.83844 27.7045 7.65826 27.6283 7.53522C27.5521 7.41217 27.476 7.35065 27.3998 7.35065C27.3236 7.35065 27.2518 7.39899 27.1844 7.49567C27.12 7.58942 27.057 7.73737 26.9955 7.93951C26.934 8.14166 26.8739 8.39801 26.8153 8.70856C26.7596 9.0191 26.7054 9.38971 26.6527 9.82037C26.6381 9.93756 26.5795 10.0313 26.4769 10.1016C26.3744 10.1719 26.244 10.2071 26.0858 10.2071C25.9803 10.2071 25.8998 10.1851 25.8441 10.1412C25.7885 10.0972 25.7577 10.0372 25.7518 9.961C25.7255 9.35162 25.6962 8.85065 25.6639 8.45807C25.6346 8.06256 25.6068 7.74615 25.5804 7.50885C25.5541 7.26862 25.5321 7.0899 25.5145 6.97272C25.4969 6.85553 25.4882 6.7691 25.4882 6.71344ZM30.1024 5.18414C30.1024 5.02887 30.1464 4.92047 30.2343 4.85895C30.3221 4.79449 30.4672 4.76227 30.6693 4.76227C30.7426 4.76227 30.8041 4.76959 30.8539 4.78424C30.9066 4.79596 30.9506 4.8194 30.9857 4.85455C31.0238 4.88971 31.0531 4.93658 31.0736 4.99518C31.097 5.05084 31.1161 5.12262 31.1307 5.21051C31.1659 5.48297 31.204 5.76422 31.245 6.05426C31.2889 6.3443 31.3344 6.6358 31.3812 6.92877C31.3988 7.06061 31.4677 7.12653 31.5878 7.12653C31.62 7.12653 31.6727 7.1236 31.746 7.11774C31.8221 7.10895 31.9115 7.10016 32.014 7.09137C32.1166 7.07965 32.2264 7.06793 32.3436 7.05621C32.4637 7.04449 32.5824 7.03424 32.6996 7.02545C32.8197 7.01373 32.9325 7.00494 33.038 6.99908C33.1464 6.9903 33.2416 6.9859 33.3236 6.9859C33.3881 6.9859 33.4393 6.99908 33.4774 7.02545C33.5155 7.04889 33.5448 7.08112 33.5653 7.12213C33.5887 7.16022 33.6034 7.20416 33.6093 7.25397C33.618 7.30084 33.6224 7.34918 33.6224 7.39899C33.6224 7.44293 33.6136 7.48834 33.5961 7.53522C33.5814 7.58209 33.5594 7.62457 33.5302 7.66266C33.5038 7.69781 33.4701 7.72711 33.4291 7.75055C33.3881 7.77399 33.3412 7.78571 33.2885 7.78571C33.0336 7.78571 32.7758 7.79449 32.515 7.81207C32.2572 7.82672 31.9994 7.84723 31.7416 7.8736C31.6097 7.89117 31.5438 7.95709 31.5438 8.07135C31.5438 8.08014 31.5453 8.09186 31.5482 8.10651C31.5511 8.11823 31.5526 8.12848 31.5526 8.13727C31.5878 8.39215 31.62 8.63092 31.6493 8.85358C31.6815 9.07623 31.7079 9.27545 31.7284 9.45123C31.7518 9.62408 31.7694 9.7691 31.7811 9.88629C31.7958 10.0005 31.8031 10.0767 31.8031 10.1148C31.8031 10.2203 31.7928 10.3082 31.7723 10.3785C31.7518 10.4517 31.7181 10.5103 31.6713 10.5543C31.6244 10.6011 31.5614 10.6334 31.4823 10.6509C31.4061 10.6714 31.3094 10.6817 31.1923 10.6817C31.0809 10.6817 30.9989 10.6553 30.9462 10.6026C30.8934 10.5499 30.8641 10.4693 30.8583 10.3609C30.8407 10.0152 30.8129 9.66803 30.7748 9.3194C30.7367 8.96783 30.6927 8.61774 30.6429 8.2691C30.6166 8.14313 30.5507 8.08014 30.4452 8.08014C30.4364 8.08014 30.4261 8.0816 30.4144 8.08453C30.4027 8.08746 30.3925 8.08893 30.3837 8.08893C30.202 8.12994 30.0306 8.17096 29.8695 8.21198C29.7084 8.25299 29.5575 8.29694 29.4169 8.34381C29.3378 8.37018 29.2675 8.38922 29.2059 8.40094C29.1444 8.40973 29.0887 8.41412 29.0389 8.41412C28.9716 8.41412 28.9218 8.38483 28.8895 8.32623C28.8573 8.26471 28.8412 8.18854 28.8412 8.09772C28.8412 8.06549 28.8441 8.02887 28.85 7.98785C28.8558 7.94391 28.8676 7.90143 28.8851 7.86041C28.8998 7.81647 28.9232 7.77692 28.9554 7.74176C28.9847 7.70367 29.0258 7.67291 29.0785 7.64948C29.2015 7.59967 29.3656 7.5484 29.5707 7.49567C29.7758 7.44 30.0072 7.38873 30.265 7.34186C30.3236 7.32721 30.369 7.30377 30.4012 7.27155C30.4364 7.23639 30.454 7.18512 30.454 7.11774C30.454 7.10309 30.454 7.08844 30.454 7.07379C30.454 7.05621 30.451 7.03864 30.4452 7.02106C30.3983 6.75153 30.3529 6.5069 30.309 6.28717C30.2679 6.06451 30.2313 5.87408 30.1991 5.71588C30.1698 5.55768 30.1464 5.43317 30.1288 5.34235C30.1112 5.25153 30.1024 5.19879 30.1024 5.18414ZM34.4706 10.7652C34.4706 10.6685 34.4662 10.5425 34.4574 10.3873C34.4515 10.232 34.4427 10.0606 34.431 9.87311C34.4193 9.68561 34.4061 9.48639 34.3915 9.27545C34.3768 9.06451 34.3607 8.85504 34.3431 8.64703C34.3256 8.43903 34.308 8.23834 34.2904 8.04498C34.2758 7.84869 34.2611 7.67145 34.2465 7.51324C34.223 7.28766 34.1908 7.12213 34.1498 7.01666C34.1088 6.91119 34.0414 6.85846 33.9476 6.85846C33.8597 6.85846 33.8011 6.88336 33.7719 6.93317C33.7455 6.98297 33.7294 7.04449 33.7235 7.11774C33.7206 7.19098 33.7191 7.27155 33.7191 7.35944C33.722 7.4444 33.7089 7.5235 33.6796 7.59674C33.6532 7.66998 33.6019 7.73151 33.5258 7.78131C33.4496 7.83112 33.3324 7.85602 33.1742 7.85602C33.0629 7.85602 32.9677 7.81061 32.8885 7.71979C32.8094 7.62604 32.7699 7.49127 32.7699 7.31549C32.7699 7.0694 32.8431 6.84674 32.9896 6.64752C33.1332 6.44537 33.3368 6.27399 33.6005 6.13336C33.8641 5.98981 34.182 5.87848 34.5541 5.79938C34.9261 5.72028 35.3392 5.68073 35.7933 5.68073C36.1185 5.68073 36.4188 5.71735 36.6942 5.79059C36.9696 5.8609 37.2069 5.96051 37.4061 6.08942C37.6083 6.21539 37.7665 6.36627 37.8807 6.54205C37.995 6.7149 38.0521 6.90387 38.0521 7.10895C38.0521 7.34039 37.9847 7.56158 37.85 7.77252C37.7152 7.98346 37.5292 8.17682 37.2919 8.3526C37.0575 8.52838 36.7806 8.68219 36.4613 8.81403C36.142 8.94293 35.7992 9.04401 35.433 9.11725C35.3304 9.13483 35.2792 9.19781 35.2792 9.30621C35.2792 9.37946 35.2836 9.47174 35.2924 9.58307C35.3041 9.69147 35.3143 9.80573 35.3231 9.92584C35.3348 10.046 35.3451 10.1646 35.3539 10.2818C35.3656 10.399 35.3715 10.503 35.3715 10.5938C35.3715 10.7579 35.3334 10.8751 35.2572 10.9454C35.181 11.0157 35.0682 11.0508 34.9188 11.0508C34.7782 11.0508 34.6683 11.0259 34.5892 10.9761C34.5101 10.9293 34.4706 10.8589 34.4706 10.7652ZM37.1425 7.23639C37.1425 7.13678 37.1 7.04156 37.015 6.95074C36.9301 6.85992 36.8158 6.77936 36.6722 6.70905C36.5287 6.63873 36.3617 6.58307 36.1713 6.54205C35.9838 6.50104 35.786 6.48053 35.578 6.48053C35.4755 6.48053 35.389 6.48492 35.3187 6.49371C35.2513 6.49957 35.1971 6.51129 35.1561 6.52887C35.1151 6.54645 35.0858 6.56989 35.0682 6.59918C35.0536 6.62555 35.0463 6.66071 35.0463 6.70465C35.0463 6.73395 35.0507 6.8028 35.0594 6.91119C35.0682 7.01666 35.08 7.13971 35.0946 7.28033C35.1093 7.42096 35.1239 7.56891 35.1385 7.72418C35.1561 7.87653 35.1737 8.01422 35.1913 8.13727C35.2001 8.22809 35.2118 8.28815 35.2264 8.31744C35.244 8.34674 35.2704 8.36139 35.3055 8.36139C35.4052 8.36139 35.5194 8.34528 35.6483 8.31305C35.7772 8.27789 35.9091 8.23248 36.0438 8.17682C36.1815 8.11823 36.3148 8.05231 36.4437 7.97906C36.5756 7.90289 36.6927 7.82379 36.7953 7.74176C36.9008 7.6568 36.9843 7.57184 37.0458 7.48688C37.1102 7.39899 37.1425 7.31549 37.1425 7.23639ZM41.0931 6.41901C41.2543 6.41901 41.4095 6.44391 41.559 6.49371C41.7084 6.54352 41.8402 6.61237 41.9545 6.70026C42.0687 6.78815 42.1595 6.89362 42.2269 7.01666C42.2972 7.13971 42.3324 7.27594 42.3324 7.42535C42.3324 7.48688 42.3177 7.54694 42.2885 7.60553C42.2621 7.66119 42.2255 7.711 42.1786 7.75494C42.1317 7.79596 42.0775 7.82965 42.016 7.85602C41.9574 7.87946 41.8959 7.89117 41.8314 7.89117C41.8256 7.89117 41.8197 7.89264 41.8138 7.89557C41.8109 7.89557 41.8065 7.89557 41.8007 7.89557C41.7948 7.8985 41.7889 7.89996 41.7831 7.89996L41.8007 8.25153C41.8124 8.67047 41.871 8.97662 41.9764 9.16998C42.0848 9.36334 42.2255 9.46002 42.3983 9.46002C42.4598 9.46002 42.514 9.45416 42.5609 9.44244C42.6107 9.43073 42.6561 9.41754 42.6971 9.40289C42.7411 9.38531 42.7821 9.37067 42.8202 9.35895C42.8583 9.34723 42.8964 9.34137 42.9344 9.34137C43.0018 9.34137 43.0604 9.37067 43.1102 9.42926C43.163 9.48785 43.1893 9.55817 43.1893 9.6402C43.1893 9.72223 43.1571 9.80426 43.0927 9.88629C43.0311 9.96832 42.9491 10.043 42.8466 10.1104C42.744 10.1749 42.6283 10.2276 42.4994 10.2686C42.3705 10.3096 42.2401 10.3301 42.1083 10.3301C41.8798 10.3301 41.6791 10.2364 41.5062 10.0489C41.3334 9.85846 41.2103 9.58014 41.1371 9.21393C41.1195 9.15533 41.0961 9.12604 41.0668 9.12604C41.0316 9.12604 41.0009 9.14362 40.9745 9.17877C40.6844 9.54498 40.3754 9.82037 40.0472 10.0049C39.7191 10.1866 39.3954 10.2774 39.076 10.2774C38.9266 10.2774 38.7919 10.2554 38.6718 10.2115C38.5516 10.1675 38.4491 10.106 38.3641 10.0269C38.2821 9.94489 38.2177 9.84674 38.1708 9.73248C38.1268 9.6153 38.1049 9.48492 38.1049 9.34137C38.1049 9.13922 38.1488 8.92682 38.2367 8.70416C38.3275 8.48151 38.4491 8.26178 38.6014 8.04498C38.7538 7.82819 38.9296 7.62164 39.1288 7.42535C39.3309 7.22906 39.5419 7.05621 39.7616 6.9068C39.9843 6.75739 40.2098 6.63873 40.4384 6.55084C40.6669 6.46295 40.8851 6.41901 41.0931 6.41901ZM40.9481 7.93951C41.0009 7.8399 41.0492 7.76813 41.0931 7.72418C41.1371 7.67731 41.2001 7.64655 41.2821 7.6319C41.3466 7.62311 41.3788 7.6026 41.3788 7.57037C41.3788 7.54694 41.37 7.52203 41.3524 7.49567C41.2968 7.41949 41.2382 7.35358 41.1766 7.29791C41.1151 7.23932 41.0331 7.21002 40.9305 7.21002C40.8192 7.21002 40.6947 7.24225 40.557 7.3067C40.4193 7.37115 40.2787 7.45758 40.1351 7.56598C39.9945 7.67145 39.8553 7.79303 39.7177 7.93073C39.5829 8.06549 39.4628 8.20465 39.3573 8.34821C39.2518 8.49176 39.1669 8.63385 39.1024 8.77448C39.038 8.9151 39.0057 9.04108 39.0057 9.1524C39.0057 9.25201 39.0321 9.32965 39.0848 9.38531C39.1405 9.44098 39.2152 9.46881 39.309 9.46881C39.5492 9.46881 39.8114 9.34137 40.0956 9.08649C40.3798 8.8316 40.6639 8.44928 40.9481 7.93951ZM45.7162 6.97272C45.6078 6.97272 45.5126 7.00201 45.4305 7.06061C45.3485 7.11627 45.2782 7.19537 45.2196 7.29791C45.161 7.39752 45.1127 7.51617 45.0746 7.65387C45.0365 7.78864 45.0057 7.93658 44.9823 8.09772C44.9589 8.25885 44.9427 8.42731 44.934 8.60309C44.9252 8.77887 44.9208 8.95612 44.9208 9.13483C44.9208 9.3692 44.9296 9.60065 44.9471 9.82916C44.9677 10.0547 44.9779 10.2642 44.9779 10.4576C44.9779 10.5836 44.931 10.6817 44.8373 10.752C44.7435 10.8253 44.6102 10.8619 44.4374 10.8619C44.4052 10.8619 44.3685 10.8589 44.3275 10.8531C44.2865 10.8472 44.2469 10.8355 44.2089 10.8179C44.1737 10.8004 44.1415 10.7755 44.1122 10.7432C44.0858 10.7139 44.0712 10.6729 44.0682 10.6202C44.0419 10.3624 44.0038 10.0987 43.954 9.82916C43.9042 9.55963 43.8412 9.29156 43.765 9.02496C43.6918 8.75543 43.6024 8.48883 43.4969 8.22516C43.3944 7.96149 43.2758 7.70367 43.141 7.45172C43.1176 7.40778 43.097 7.36676 43.0795 7.32867C43.0648 7.29059 43.0575 7.25397 43.0575 7.21881C43.0575 7.17487 43.0765 7.12799 43.1146 7.07819C43.1556 7.02545 43.2054 6.97711 43.264 6.93317C43.3256 6.88922 43.3915 6.85406 43.4618 6.8277C43.535 6.7984 43.6053 6.78375 43.6727 6.78375C43.7841 6.78375 43.8822 6.86139 43.9672 7.01666C44.0521 7.16901 44.1312 7.41364 44.2045 7.75055C44.2191 7.80914 44.2308 7.85016 44.2396 7.8736C44.2484 7.89703 44.2601 7.90875 44.2748 7.90875C44.307 7.90875 44.3275 7.85895 44.3363 7.75934C44.3715 7.48102 44.4315 7.24225 44.5165 7.04303C44.6014 6.84088 44.7069 6.67535 44.8329 6.54645C44.9618 6.41461 45.1083 6.31793 45.2723 6.25641C45.4393 6.19489 45.6224 6.16412 45.8217 6.16412C45.9359 6.16412 46.0516 6.17438 46.1688 6.19489C46.286 6.21539 46.3915 6.24615 46.4852 6.28717C46.579 6.32819 46.6552 6.37799 46.7137 6.43658C46.7723 6.49518 46.8016 6.5611 46.8016 6.63434C46.8016 6.68707 46.7899 6.75006 46.7665 6.8233C46.746 6.89362 46.7181 6.96246 46.683 7.02985C46.6478 7.0943 46.6068 7.14996 46.5599 7.19684C46.516 7.24078 46.4706 7.26276 46.4237 7.26276C46.371 7.26276 46.3197 7.24811 46.2699 7.21881C46.2201 7.18658 46.1659 7.15289 46.1073 7.11774C46.0516 7.08258 45.9916 7.05035 45.9271 7.02106C45.8656 6.98883 45.7953 6.97272 45.7162 6.97272ZM46.9335 5.18414C46.9335 5.02887 46.9774 4.92047 47.0653 4.85895C47.1532 4.79449 47.2982 4.76227 47.5004 4.76227C47.5736 4.76227 47.6351 4.76959 47.6849 4.78424C47.7377 4.79596 47.7816 4.8194 47.8168 4.85455C47.8549 4.88971 47.8842 4.93658 47.9047 4.99518C47.9281 5.05084 47.9471 5.12262 47.9618 5.21051C47.9969 5.48297 48.035 5.76422 48.076 6.05426C48.12 6.3443 48.1654 6.6358 48.2123 6.92877C48.2299 7.06061 48.2987 7.12653 48.4188 7.12653C48.451 7.12653 48.5038 7.1236 48.577 7.11774C48.6532 7.10895 48.7426 7.10016 48.8451 7.09137C48.9476 7.07965 49.0575 7.06793 49.1747 7.05621C49.2948 7.04449 49.4135 7.03424 49.5306 7.02545C49.6508 7.01373 49.7635 7.00494 49.869 6.99908C49.9774 6.9903 50.0726 6.9859 50.1547 6.9859C50.2191 6.9859 50.2704 6.99908 50.3085 7.02545C50.3466 7.04889 50.3759 7.08112 50.3964 7.12213C50.4198 7.16022 50.4344 7.20416 50.4403 7.25397C50.4491 7.30084 50.4535 7.34918 50.4535 7.39899C50.4535 7.44293 50.4447 7.48834 50.4271 7.53522C50.4125 7.58209 50.3905 7.62457 50.3612 7.66266C50.3348 7.69781 50.3011 7.72711 50.2601 7.75055C50.2191 7.77399 50.1722 7.78571 50.1195 7.78571C49.8646 7.78571 49.6068 7.79449 49.3461 7.81207C49.0883 7.82672 48.8304 7.84723 48.5726 7.8736C48.4408 7.89117 48.3749 7.95709 48.3749 8.07135C48.3749 8.08014 48.3763 8.09186 48.3793 8.10651C48.3822 8.11823 48.3837 8.12848 48.3837 8.13727C48.4188 8.39215 48.451 8.63092 48.4803 8.85358C48.5126 9.07623 48.5389 9.27545 48.5594 9.45123C48.5829 9.62408 48.6005 9.7691 48.6122 9.88629C48.6268 10.0005 48.6342 10.0767 48.6342 10.1148C48.6342 10.2203 48.6239 10.3082 48.6034 10.3785C48.5829 10.4517 48.5492 10.5103 48.5023 10.5543C48.4554 10.6011 48.3925 10.6334 48.3134 10.6509C48.2372 10.6714 48.1405 10.6817 48.0233 10.6817C47.912 10.6817 47.83 10.6553 47.7772 10.6026C47.7245 10.5499 47.6952 10.4693 47.6893 10.3609C47.6718 10.0152 47.6439 9.66803 47.6058 9.3194C47.5677 8.96783 47.5238 8.61774 47.474 8.2691C47.4476 8.14313 47.3817 8.08014 47.2762 8.08014C47.2675 8.08014 47.2572 8.0816 47.2455 8.08453C47.2338 8.08746 47.2235 8.08893 47.2147 8.08893C47.0331 8.12994 46.8617 8.17096 46.7006 8.21198C46.5394 8.25299 46.3885 8.29694 46.2479 8.34381C46.1688 8.37018 46.0985 8.38922 46.037 8.40094C45.9755 8.40973 45.9198 8.41412 45.87 8.41412C45.8026 8.41412 45.7528 8.38483 45.7206 8.32623C45.6884 8.26471 45.6722 8.18854 45.6722 8.09772C45.6722 8.06549 45.6752 8.02887 45.681 7.98785C45.6869 7.94391 45.6986 7.90143 45.7162 7.86041C45.7308 7.81647 45.7543 7.77692 45.7865 7.74176C45.8158 7.70367 45.8568 7.67291 45.9095 7.64948C46.0326 7.59967 46.1967 7.5484 46.4017 7.49567C46.6068 7.44 46.8383 7.38873 47.0961 7.34186C47.1547 7.32721 47.2001 7.30377 47.2323 7.27155C47.2675 7.23639 47.285 7.18512 47.285 7.11774C47.285 7.10309 47.285 7.08844 47.285 7.07379C47.285 7.05621 47.2821 7.03864 47.2762 7.02106C47.2294 6.75153 47.184 6.5069 47.14 6.28717C47.099 6.06451 47.0624 5.87408 47.0302 5.71588C47.0009 5.55768 46.9774 5.43317 46.9598 5.34235C46.9423 5.25153 46.9335 5.19879 46.9335 5.18414ZM53.9384 9.29742C54.0233 9.22418 54.1068 9.18756 54.1888 9.18756C54.2357 9.18756 54.2782 9.19928 54.3163 9.22272C54.3544 9.24615 54.3969 9.28278 54.4437 9.33258C54.4877 9.39996 54.5184 9.45563 54.536 9.49957C54.5565 9.54059 54.5668 9.5816 54.5668 9.62262C54.5668 9.71051 54.5228 9.79401 54.4349 9.87311C54.2943 9.9903 54.142 10.0958 53.9779 10.1895C53.8138 10.2803 53.6425 10.358 53.4637 10.4224C53.285 10.4869 53.1005 10.5352 52.91 10.5674C52.7196 10.6026 52.5306 10.6202 52.3431 10.6202C52.1058 10.6202 51.8832 10.5894 51.6752 10.5279C51.4672 10.4693 51.2811 10.3843 51.1171 10.273C50.9559 10.1617 50.8197 10.0284 50.7084 9.87311C50.597 9.7149 50.5179 9.53766 50.4711 9.34137C50.4447 9.25934 50.4198 9.2066 50.3964 9.18317C50.3759 9.1568 50.3407 9.14362 50.2909 9.14362C50.1825 9.14362 50.099 9.11725 50.0404 9.06451C49.9818 9.01178 49.9525 8.93561 49.9525 8.836C49.9525 8.79498 49.9554 8.76862 49.9613 8.7569L49.9701 8.66901C49.9847 8.56354 50.0126 8.48737 50.0536 8.44049C50.0975 8.39362 50.1649 8.37018 50.2557 8.37018H50.3217C50.4447 8.37018 50.5311 8.31305 50.5809 8.19879C50.6718 7.99664 50.7875 7.81207 50.9281 7.64508C51.0687 7.47809 51.2269 7.336 51.4027 7.21881C51.5785 7.09869 51.766 7.00641 51.9652 6.94196C52.1674 6.87457 52.3724 6.84088 52.5804 6.84088C52.7972 6.84088 52.9994 6.87311 53.1869 6.93756C53.3773 6.99908 53.5428 7.08551 53.6835 7.19684C53.8241 7.30817 53.934 7.43854 54.0131 7.58795C54.0951 7.73737 54.1361 7.8985 54.1361 8.07135C54.1361 8.19147 54.1127 8.30133 54.0658 8.40094C54.0189 8.50055 53.9515 8.58844 53.8636 8.66461C53.7758 8.73785 53.6688 8.79791 53.5428 8.84479C53.4198 8.89166 53.2792 8.92242 53.121 8.93707L51.5961 9.09088C51.5375 9.09088 51.4891 9.10553 51.451 9.13483C51.4159 9.16412 51.3983 9.20367 51.3983 9.25348C51.3983 9.32965 51.4261 9.40289 51.4818 9.47321C51.5404 9.54352 51.6166 9.60651 51.7103 9.66217C51.807 9.7149 51.9169 9.75739 52.0399 9.78961C52.1659 9.82184 52.2948 9.83795 52.4266 9.83795C52.5526 9.83795 52.6815 9.82623 52.8134 9.8028C52.9481 9.77643 53.08 9.73981 53.2089 9.69293C53.3407 9.64606 53.4681 9.59039 53.5912 9.52594C53.7142 9.45856 53.83 9.38239 53.9384 9.29742ZM52.9584 8.16364C53.0023 8.15485 53.0404 8.13434 53.0726 8.10211C53.1049 8.06696 53.121 8.02448 53.121 7.97467C53.121 7.93073 53.1049 7.88971 53.0726 7.85162C53.0404 7.81354 52.9965 7.77985 52.9408 7.75055C52.8851 7.71832 52.8207 7.69342 52.7474 7.67584C52.6742 7.65826 52.5966 7.64948 52.5145 7.64948C52.3944 7.64948 52.2714 7.66705 52.1454 7.70221C52.0194 7.73737 51.9052 7.78424 51.8026 7.84283C51.7001 7.8985 51.6166 7.96149 51.5521 8.0318C51.4877 8.09918 51.4554 8.16656 51.4554 8.23395C51.4554 8.30133 51.4965 8.33502 51.5785 8.33502C51.6283 8.33502 51.7089 8.32916 51.8202 8.31744C51.9315 8.30573 52.0546 8.29254 52.1893 8.27789C52.3241 8.26031 52.4603 8.24127 52.598 8.22076C52.7357 8.20026 52.8558 8.18121 52.9584 8.16364ZM55.9423 6.44537C56.1385 6.44537 56.3407 6.47174 56.5487 6.52448C56.7567 6.57428 56.9471 6.6402 57.12 6.72223C57.2928 6.80133 57.4349 6.89069 57.5463 6.9903C57.6576 7.0899 57.7133 7.18658 57.7133 7.28033C57.7133 7.32721 57.6927 7.37994 57.6517 7.43854C57.6107 7.4942 57.5609 7.5484 57.5023 7.60114C57.4437 7.65094 57.3793 7.69342 57.309 7.72858C57.2416 7.7608 57.1815 7.77692 57.1288 7.77692C57.0585 7.77692 56.9794 7.74762 56.8915 7.68903C56.8065 7.63043 56.7113 7.56598 56.6058 7.49567C56.5033 7.42242 56.3905 7.35651 56.2675 7.29791C56.1444 7.23932 56.0111 7.21002 55.8676 7.21002C55.7738 7.21002 55.6962 7.23346 55.6346 7.28033C55.576 7.32428 55.5468 7.38727 55.5468 7.4693C55.5468 7.54254 55.5819 7.61725 55.6522 7.69342C55.7225 7.76666 55.8148 7.84283 55.9291 7.92194C56.0463 8.00104 56.1781 8.08453 56.3246 8.17242C56.4711 8.26031 56.6205 8.35406 56.7728 8.45367C56.9281 8.55328 57.079 8.66168 57.2255 8.77887C57.3719 8.89606 57.5023 9.0235 57.6166 9.16119C57.7338 9.29889 57.8275 9.44977 57.8978 9.61383C57.9681 9.77496 58.0033 9.95074 58.0033 10.1412C58.0033 10.3052 57.974 10.4547 57.9154 10.5894C57.8568 10.7242 57.7733 10.8399 57.6649 10.9366C57.5565 11.0333 57.4276 11.108 57.2782 11.1607C57.1288 11.2134 56.9647 11.2398 56.786 11.2398C56.5604 11.2398 56.3524 11.2047 56.162 11.1343C55.9716 11.067 55.8075 10.9732 55.6698 10.8531C55.5321 10.733 55.4237 10.5894 55.3446 10.4224C55.2684 10.2554 55.2303 10.0723 55.2303 9.87311C55.2303 9.6153 55.2758 9.4278 55.3666 9.31061C55.4603 9.19342 55.6068 9.13483 55.806 9.13483C55.9291 9.13483 56.0272 9.15826 56.1005 9.20514C56.1737 9.25201 56.2103 9.30914 56.2103 9.37653C56.2103 9.41168 56.2045 9.4483 56.1927 9.48639C56.181 9.52155 56.1678 9.55963 56.1532 9.60065C56.1415 9.63873 56.1298 9.67975 56.118 9.72369C56.1093 9.76764 56.1049 9.81158 56.1049 9.85553C56.1049 9.9317 56.1224 10.0049 56.1576 10.0753C56.1927 10.1456 56.2396 10.2071 56.2982 10.2598C56.3597 10.3155 56.4301 10.3594 56.5092 10.3917C56.5883 10.4239 56.6718 10.44 56.7596 10.44C56.994 10.44 57.1112 10.3433 57.1112 10.15C57.1112 9.99762 57.0511 9.85406 56.931 9.7193C56.8109 9.5816 56.66 9.4483 56.4784 9.3194C56.2968 9.18756 56.1005 9.05573 55.8895 8.92389C55.6815 8.79205 55.4867 8.65436 55.3051 8.5108C55.1234 8.36725 54.9725 8.2149 54.8524 8.05377C54.7323 7.88971 54.6722 7.71246 54.6722 7.52203C54.6722 7.36383 54.7045 7.21881 54.7689 7.08698C54.8363 6.95514 54.9271 6.84235 55.0414 6.7486C55.1556 6.65192 55.2889 6.57721 55.4413 6.52448C55.5966 6.47174 55.7635 6.44537 55.9423 6.44537Z" fill="#1E1E1E"/>
<path d="M55.6476 42.5303C57.4158 43.3956 63.3427 48.6537 66.3556 48.0927C69.3586 47.5222 72.3714 40.5621 73.6951 39.1073M54.9562 42.0359C56.6849 42.9201 62.8982 48.9009 66.1877 48.5015C69.487 48.1117 73.3493 41.066 74.7224 39.6398" stroke="#1E1E1E" stroke-width="2" stroke-linecap="round"/>
<path d="M70.7222 43.9396C70.4357 42.8747 69.3195 38.615 69.0627 37.5786M70.2777 43.6163C70.09 42.6085 69.9418 38.9097 69.7048 37.9874" stroke="#1E1E1E" stroke-width="2" stroke-linecap="round"/>
<path d="M71.447 43.5875C72.4052 43.616 75.9515 44.1105 76.8603 44.12M71.121 43.2642C72.0693 43.3403 75.7638 43.5209 76.7121 43.6255" stroke="#1E1E1E" stroke-width="2" stroke-linecap="round"/>
<path d="M29.9804 60.8984C28.2813 59.8049 22.9768 54.4898 19.8553 55.0888C16.7239 55.6783 12.5454 62.781 11.2119 64.464M30.8793 61.8397C29.1012 60.7843 22.4236 55.1268 19.3218 55.6308C16.2201 56.1442 13.4937 63.4656 12.2787 64.9109" stroke="#1E1E1E" stroke-width="2" stroke-linecap="round"/>
<path d="M14.9946 59.7363C15.2021 60.8107 15.9726 64.9849 16.2393 66.1259M15.5676 60.3828C15.8837 61.5333 16.7332 65.5268 16.8814 66.4777" stroke="#1E1E1E" stroke-width="2" stroke-linecap="round"/>
<path d="M14.339 60.0789C13.4894 60.1075 10.2988 60.2881 9.39988 60.2596M14.8329 60.735C13.9537 60.6875 10.0518 59.8983 9.18256 59.8222" stroke="#1E1E1E" stroke-width="2" stroke-linecap="round"/>
<path fill-rule="evenodd" clip-rule="evenodd" d="M17.4271 29.1357L34.7599 32.8871L28.5917 49.5898L9.10175 46.5098" fill="white"/>
<path d="M16.8304 28.6009C22.4647 29.8348 29.4284 31.3908 35.6244 32.9944M16.8304 28.6009C20.8525 29.1621 24.2564 30.7926 35.6244 32.9944M16.8304 28.6009C12.8689 37.6426 12.0672 42.1318 9.76142 46.2051M16.8304 28.6009C13.3347 37.1894 11.6587 41.8776 9.76142 46.2051M35.6244 32.9944C33.5533 37.0878 30.6806 42.1612 28.2073 49.2372M35.6244 32.9944C33.638 36.5925 32.3904 39.3395 28.2073 49.2372M28.2073 49.2372C20.3841 47.7651 13.224 47.0091 9.76142 46.2051M28.2073 49.2372C23.126 48.9048 18.8081 47.8273 9.76142 46.2051" stroke="#1E1E1E" stroke-width="2" stroke-linecap="round"/>
<path fill-rule="evenodd" clip-rule="evenodd" d="M22.1674 37.8689L31.5211 40.4537L27.2143 48.7677L19.6354 47.6982" fill="white"/>
<path d="M22.1197 37.904C24.7546 39.3568 27.5282 39.8238 30.9716 40.9174M22.1197 37.904C24.2996 38.8357 26.3572 39.647 30.9716 40.9174M22.1197 37.904C20.5648 40.5605 19.5711 44.6202 18.3804 47.349M22.1197 37.904C20.6628 41.4684 19.4378 44.2363 18.3804 47.349M30.9716 40.9174C29.9903 43.0118 29.4163 45.6623 28.0235 48.6127M30.9716 40.9174C30.1413 43.0423 29.6102 44.939 28.0235 48.6127M28.0235 48.6127C25.8741 48.3651 22.7402 48.1575 18.3804 47.349M28.0235 48.6127C25.5827 48.2018 23.1601 47.9861 18.3804 47.349" stroke="#1E1E1E" stroke-width="2" stroke-linecap="round"/>
<path d="M20.8423 42.9942C21.5781 43.9638 22.2002 45.1531 23.8109 47.8718ZM20.8423 42.9942C21.4939 43.9531 22.2166 45.1017 23.8109 47.8718Z" stroke="#1E1E1E" stroke-width="2" stroke-linecap="round"/>
<path d="M21.9579 38.9189C23.2079 40.4763 24.6075 42.7108 27.0243 47.7842ZM21.9579 38.9189C22.9979 40.5621 24.1253 42.688 27.0243 47.7842Z" stroke="#1E1E1E" stroke-width="2" stroke-linecap="round"/>
<path d="M26.3458 39.977C27.2002 41.7903 28.4445 43.2968 29.3982 45.3715ZM26.3458 39.977C26.9555 41.0219 27.5268 42.3016 29.3982 45.3715Z" stroke="#1E1E1E" stroke-width="2" stroke-linecap="round"/>
<path d="M17.7449 36.541C17.7315 36.537 17.4804 36.5684 17.4393 36.5141C17.4115 36.4637 17.5648 36.2347 17.5427 36.2352C17.5294 36.2312 17.3463 36.5077 17.3463 36.5077C17.3504 36.4949 17.5354 36.1205 17.537 36.1843C17.5433 36.2564 17.4119 36.8295 17.378 36.8898C17.3355 36.9546 17.31 36.6447 17.3212 36.5636C17.3371 36.4909 17.4325 36.4207 17.4418 36.4375C17.451 36.4543 17.4523 36.6797 17.3901 36.6684C17.3326 36.6654 17.0381 36.3746 17.056 36.3869C17.0874 36.4032 17.4528 36.7009 17.5422 36.7414M17.2133 36.4896C17.1989 36.4431 17.3732 36.6985 17.446 36.6075C17.5189 36.5165 17.5543 35.9925 17.6369 35.9395C17.7195 35.8865 17.9803 36.2377 17.9505 36.2852C17.9295 36.3282 17.5842 36.1279 17.4841 36.1898C17.3753 36.2561 17.3223 36.6061 17.3419 36.6822C17.3481 36.7544 17.6006 36.6039 17.5488 36.6519C17.4923 36.6915 17.031 36.9702 17.0258 36.9406C17.0119 36.9154 17.5199 36.559 17.4998 36.4616C17.4843 36.3727 16.8851 36.4419 16.9282 36.3984C16.9666 36.3465 17.6537 36.2539 17.7537 36.192" fill="white"/>
<path d="M17.282 36.4114C17.3118 36.3639 17.4767 36.4196 17.4987 36.4191C17.5208 36.4186 17.49 36.4236 17.4279 36.4123C17.3657 36.4009 17.1305 36.3596 17.1212 36.3428C17.0986 36.3221 17.3132 36.2448 17.3322 36.2996C17.3513 36.3545 17.2211 36.6255 17.235 36.6507C17.2402 36.6804 17.3504 36.4949 17.394 36.4726C17.4464 36.4459 17.5183 36.4952 17.523 36.5036C17.5142 36.5081 17.394 36.4726 17.3905 36.5067C17.3869 36.5408 17.4667 36.7261 17.497 36.6999C17.5272 36.6737 17.5598 36.3879 17.5896 36.3404M17.7523 36.3111C17.7605 36.2854 17.5433 36.7839 17.4863 36.8022C17.438 36.8161 17.4289 36.4548 17.4366 36.4078C17.4442 36.3608 17.4834 36.513 17.5497 36.5115C17.6113 36.5016 17.7765 36.3956 17.8022 36.361C17.8237 36.3392 17.8006 36.2972 17.7133 36.3418C17.6307 36.3948 17.2822 36.5943 17.2792 36.6497C17.2849 36.7006 17.7404 36.7155 17.7265 36.6903C17.7039 36.6695 17.2591 36.5523 17.1563 36.5079C17.0576 36.4507 17.1084 36.3602 17.1223 36.3854C17.1403 36.3977 17.2345 36.6294 17.2827 36.6156" stroke="#1E1E1E" stroke-width="2" stroke-linecap="round"/>
<path d="M21.7913 34.7325C22.1116 34.1167 22.3543 33.4007 22.5699 32.8385ZM21.7913 34.7325C21.9927 34.3067 22.1853 33.8853 22.5699 32.8385Z" stroke="#1E1E1E" stroke-linecap="round"/>
<path d="M21.0944 33.4953C21.5798 33.6456 22.0277 33.7075 23.2873 34.0652ZM21.0944 33.4953C21.6112 33.6619 22.1397 33.7687 23.2873 34.0652Z" stroke="#1E1E1E" stroke-linecap="round"/>
<path d="M51.416 78.4172C50.0627 74.9942 48.3834 72.1798 47.2276 69.8978C48.2846 72.1322 49.2527 74.0624 51.416 78.4172ZM51.416 78.4172C50.1713 79.1589 48.66 79.6913 47.0696 80.7753C49.0748 79.7008 50.3788 78.9592 51.416 78.4172Z" stroke="#1E1E1E" stroke-width="2" stroke-linecap="round"/>
<path d="M63.7112 67.6503C65.7659 63.2954 67.1785 61.1275 67.8996 59.1308C67.0106 61.4508 65.7264 63.6473 63.7112 67.6503ZM63.7112 67.6503C65.193 68.5916 66.3487 69.2286 68.0576 70.0083C66.9216 69.2857 65.2325 68.5916 63.7112 67.6503Z" stroke="#1E1E1E" stroke-width="2" stroke-linecap="round"/>
<path d="M42.3948 48.0842C43.8921 47.5786 45.5822 48.0547 48.8174 48.6598C51.1429 49.7467 53.0738 48.5542 51.7244 52.043C52.3651 55.0607 51.1975 56.0543 50.8929 60.6393C52.0617 64.6594 48.7902 65.4548 47.387 63.4478C44.8908 63.9212 42.0296 63.2446 40.9644 62.8722C37.3487 60.4569 36.6451 63.526 38.0476 59.4882C38.6096 56.1389 39.6208 54.7112 38.8791 50.8918C40.8293 50.6273 38.9657 48.9706 42.3948 48.0842Z" fill="white"/>
<path d="M42.3948 48.0842C44.5701 47.9545 46.3789 48.1261 48.8174 48.6598M42.3948 48.0842C43.955 48.2622 45.2789 48.5241 48.8174 48.6598M42.3948 48.0842C39.4543 48.0212 39.4806 48.673 38.8791 50.8918M42.3948 48.0842C39.424 47.2068 38.7695 48.3323 38.8791 50.8918M48.8174 48.6598C50.0577 48.3508 51.9151 49.9688 51.7244 52.043M48.8174 48.6598C51.8608 49.0949 51.8886 49.4221 51.7244 52.043M51.7244 52.043C51.5608 55.5807 51.3586 58.3892 50.8929 60.6394M51.7244 52.043C51.3244 54.5377 51.2665 57.1873 50.8929 60.6394M50.8929 60.6394C51.3989 62.6901 49.4678 63.9877 47.3871 63.4478M50.8929 60.6394C51.3726 63.2703 50.5679 62.7684 47.3871 63.4478M47.3871 63.4478C45.4028 63.3464 42.4733 63.1698 40.9644 62.8723M47.3871 63.4478C45.2118 63.167 43.0445 62.9059 40.9644 62.8723M40.9644 62.8723C39.49 62.7306 37.0175 60.5991 38.0476 59.4882M40.9644 62.8723C39.7837 61.7447 37.6461 62.2025 38.0476 59.4882M38.0476 59.4882C38.0387 56.2979 39.0003 53.8439 38.8791 50.8918M38.0476 59.4882C38.443 57.0408 38.4972 54.4291 38.8791 50.8918" stroke="#1E1E1E" stroke-width="2" stroke-linecap="round"/>
</svg>
