<svg width="83" height="120" viewBox="0 0 83 120" fill="none" xmlns="http://www.w3.org/2000/svg">
<path d="M22.7154 2.11944C33.0949 1.80577 40.0501 5.009 61.9051 2.11944C77.0862 1.64418 78.3279 6.38724 81.4999 21.3198C79.1136 52.6487 80.0254 78.1034 81.4999 98.8341C83.7601 113.149 74.3119 121.342 61.9051 118.034C48.2857 118.139 37.1205 116.628 22.7154 118.034C12.6658 119.85 3.84816 112.959 3.12063 98.8341C0.346312 70.1952 -0.18721 38.1914 3.12063 21.3198C3.29523 5.49376 12.6561 2.7848 22.7154 2.11944Z" fill="white"/>
<path d="M22.7154 2.11942C32.1345 1.08336 42.155 3.90638 61.9051 2.11942M22.7154 2.11942C32.0181 2.26199 39.8172 1.25445 61.9051 2.11942M22.7154 2.11942C8.96025 3.24102 4.56596 9.84708 3.1206 21.3198M22.7154 2.11942C7.59249 2.43309 3.20791 9.8851 3.1206 21.3198M61.9051 2.11942C73.8753 0.997811 80.976 7.75596 81.4999 21.3198M61.9051 2.11942C75.893 2.48061 80.9858 6.3587 81.4999 21.3198M81.4999 21.3198C81.0246 38.3434 80.8887 58.6749 81.4999 98.8341M81.4999 21.3198C80.685 51.2134 81.8588 79.8143 81.4999 98.8341M81.4999 98.8341C82.3729 112.75 76.0967 119.479 61.9051 118.034M81.4999 98.8341C81.9073 110.288 74.4768 117.027 61.9051 118.034M61.9051 118.034C51.4286 119.118 44.2988 118.633 22.7154 118.034M61.9051 118.034C47.6358 118.301 33.6187 118.139 22.7154 118.034M22.7154 118.034C11.298 119.004 4.75027 112.179 3.1206 98.8341M22.7154 118.034C11.7928 119.783 1.69464 113.738 3.1206 98.8341M3.1206 98.8341C1.91775 78.6547 3.63472 58.6844 3.1206 21.3198M3.1206 98.8341C3.85783 82.1906 2.65498 66.7638 3.1206 21.3198" stroke="#1E1E1E" stroke-width="2" stroke-linecap="round"/>
<path d="M22.2637 2.69415C34.7093 2.43751 45.4671 2.54207 57.8739 2.69415M22.2637 2.69415C32.5558 2.74168 42.4987 2.98881 57.8739 2.69415M22.2637 2.69415C20.8474 2.39949 19.6543 4.00586 18.82 6.06847M22.2637 2.69415C20.8474 2.81772 18.3253 4.06289 18.82 6.06847M57.8739 2.69415C59.5423 3.60665 60.9974 4.29101 61.3175 6.06847M57.8739 2.69415C59.4938 2.23791 61.6279 4.32903 61.3175 6.06847M61.3175 6.06847C61.5503 8.76793 61.1817 10.821 61.3175 12.8266M61.3175 6.06847C61.2787 8.65387 61.3466 11.1347 61.3175 12.8266M61.3175 12.8266C60.4251 15.2124 59.6975 15.4405 57.8739 16.2009M61.3175 12.8266C61.4145 15.2409 60.0856 15.4595 57.8739 16.2009M57.8739 16.2009C43.236 15.5831 31.0426 15.9063 22.2637 16.2009M57.8739 16.2009C47.8243 16.2675 38.3858 16.5526 22.2637 16.2009M22.2637 16.2009C19.7901 17.1229 19.2469 15.469 18.82 12.8266M22.2637 16.2009C19.858 16.1629 18.8783 15.7637 18.82 12.8266M18.82 12.8266C18.8588 11.1917 19.1014 9.54735 18.82 6.06847M18.82 12.8266C18.723 11.1442 18.8491 9.34774 18.82 6.06847" stroke="#1E1E1E" stroke-width="2" stroke-linecap="round"/>
<path d="M25.1957 7.27023C25.1957 7.39719 25.1534 7.516 25.0687 7.62668C24.9873 7.73736 24.8832 7.84478 24.7562 7.94894C24.6325 8.05311 24.4974 8.15402 24.351 8.25168C24.2045 8.34933 24.0677 8.44862 23.9408 8.54953C23.8171 8.65044 23.7129 8.75298 23.6283 8.85715C23.5469 8.96131 23.5062 9.07199 23.5062 9.18918C23.5062 9.28683 23.5746 9.38124 23.7113 9.47238C23.848 9.56353 24.045 9.65467 24.3021 9.74582C24.5593 9.83696 24.8702 9.93137 25.2347 10.029C25.5993 10.1234 26.0095 10.2243 26.4652 10.3318C26.6931 10.3936 26.807 10.5092 26.807 10.6784C26.807 10.7435 26.7907 10.807 26.7582 10.8689C26.7289 10.9307 26.6882 10.9861 26.6361 11.0349C26.584 11.0805 26.5238 11.1179 26.4554 11.1472C26.3903 11.1765 26.3236 11.1911 26.2552 11.1911C26.0925 11.1911 25.9069 11.1667 25.6986 11.1179C25.4935 11.0691 25.2803 11.0088 25.059 10.9372C24.8376 10.8656 24.6163 10.7875 24.3949 10.7029C24.1735 10.615 23.9652 10.5352 23.7699 10.4636C23.5778 10.392 23.4069 10.3318 23.2572 10.2829C23.1107 10.2341 23 10.2097 22.9252 10.2097C22.8666 10.2097 22.8096 10.2374 22.7543 10.2927C22.7022 10.3448 22.6534 10.418 22.6078 10.5124C22.5655 10.6068 22.5297 10.7191 22.5004 10.8493C22.4711 10.9763 22.4499 11.1163 22.4369 11.2693C22.4206 11.4418 22.3588 11.5704 22.2513 11.655C22.1472 11.7364 22.0023 11.7771 21.8168 11.7771C21.6247 11.7771 21.514 11.6876 21.4847 11.5085C21.4359 11.2351 21.3757 10.9568 21.3041 10.6736C21.2357 10.3904 21.1592 10.1071 21.0746 9.82394C20.9932 9.54074 20.9037 9.26079 20.806 8.9841C20.7116 8.70741 20.6123 8.44211 20.5082 8.1882C20.4821 8.13286 20.4626 8.08241 20.4496 8.03683C20.4398 7.98801 20.4349 7.93918 20.4349 7.89035C20.4349 7.84803 20.448 7.80897 20.474 7.77316C20.5 7.7341 20.5358 7.69992 20.5814 7.67062C20.627 7.64133 20.6791 7.61854 20.7377 7.60226C20.7995 7.58599 20.863 7.57785 20.9281 7.57785C21.0616 7.57785 21.1674 7.60552 21.2455 7.66086C21.3236 7.7162 21.4034 7.7992 21.4847 7.90988C21.5238 7.96196 21.5612 8.03195 21.597 8.11984C21.6329 8.20448 21.667 8.29562 21.6996 8.39328C21.7321 8.49094 21.7647 8.59022 21.7972 8.69113C21.8298 8.78879 21.8607 8.87831 21.89 8.95969C21.9226 9.03781 21.9535 9.10292 21.9828 9.155C22.0153 9.20383 22.0463 9.22824 22.0756 9.22824C22.1016 9.22824 22.1228 9.21685 22.139 9.19406C22.1586 9.17127 22.1814 9.1371 22.2074 9.09152C22.3767 8.73996 22.5622 8.41932 22.764 8.12961C22.9659 7.83664 23.1726 7.58762 23.3842 7.38254C23.5957 7.1742 23.8073 7.01307 24.0189 6.89914C24.2338 6.78521 24.4388 6.72824 24.6342 6.72824C24.7123 6.72824 24.7855 6.74289 24.8539 6.77219C24.9222 6.79823 24.9808 6.83566 25.0297 6.88449C25.0817 6.93332 25.1224 6.99191 25.1517 7.06027C25.181 7.12538 25.1957 7.19536 25.1957 7.27023ZM29.3754 7.6218C29.5544 7.6218 29.7269 7.64946 29.8929 7.7048C30.059 7.76014 30.2054 7.83664 30.3324 7.9343C30.4594 8.03195 30.5603 8.14914 30.6351 8.28586C30.7133 8.42258 30.7523 8.57394 30.7523 8.73996C30.7523 8.80832 30.736 8.87505 30.7035 8.94016C30.6742 9.002 30.6335 9.05734 30.5814 9.10617C30.5293 9.15174 30.4691 9.18918 30.4008 9.21848C30.3357 9.24452 30.2673 9.25754 30.1957 9.25754C30.1892 9.25754 30.1827 9.25917 30.1761 9.26242C30.1729 9.26242 30.168 9.26242 30.1615 9.26242C30.155 9.26568 30.1485 9.2673 30.142 9.2673L30.1615 9.65793C30.1745 10.1234 30.2396 10.4636 30.3568 10.6784C30.4773 10.8933 30.6335 11.0007 30.8256 11.0007C30.8939 11.0007 30.9541 10.9942 31.0062 10.9812C31.0616 10.9681 31.112 10.9535 31.1576 10.9372C31.2064 10.9177 31.252 10.9014 31.2943 10.8884C31.3366 10.8754 31.3789 10.8689 31.4213 10.8689C31.4961 10.8689 31.5612 10.9014 31.6166 10.9665C31.6752 11.0316 31.7045 11.1098 31.7045 11.2009C31.7045 11.292 31.6687 11.3832 31.597 11.4743C31.5287 11.5655 31.4375 11.6485 31.3236 11.7234C31.2097 11.795 31.0811 11.8536 30.9379 11.8991C30.7946 11.9447 30.6498 11.9675 30.5033 11.9675C30.2494 11.9675 30.0264 11.8633 29.8344 11.655C29.6423 11.4434 29.5056 11.1342 29.4242 10.7273C29.4047 10.6622 29.3786 10.6296 29.3461 10.6296C29.307 10.6296 29.2728 10.6491 29.2435 10.6882C28.9213 11.0951 28.5778 11.4011 28.2133 11.6062C27.8487 11.808 27.489 11.9089 27.1342 11.9089C26.9681 11.9089 26.8184 11.8845 26.6849 11.8357C26.5515 11.7868 26.4375 11.7185 26.3431 11.6306C26.252 11.5394 26.1804 11.4304 26.1283 11.3034C26.0795 11.1732 26.0551 11.0284 26.0551 10.8689C26.0551 10.6443 26.1039 10.4083 26.2015 10.1609C26.3024 9.91346 26.4375 9.66932 26.6068 9.42844C26.7761 9.18755 26.9714 8.95806 27.1927 8.73996C27.4174 8.52186 27.6517 8.3298 27.8959 8.16379C28.1433 7.99777 28.3939 7.86594 28.6478 7.76828C28.9017 7.67062 29.1442 7.6218 29.3754 7.6218ZM29.2142 9.31125C29.2728 9.20057 29.3265 9.12082 29.3754 9.07199C29.4242 9.01991 29.4942 8.98573 29.5853 8.96945C29.6569 8.95969 29.6927 8.9369 29.6927 8.90109C29.6927 8.87505 29.683 8.84738 29.6635 8.81808C29.6016 8.73345 29.5365 8.66021 29.4681 8.59836C29.3998 8.53325 29.3086 8.5007 29.1947 8.5007C29.071 8.5007 28.9327 8.53651 28.7797 8.60812C28.6267 8.67974 28.4704 8.77577 28.3109 8.89621C28.1547 9.0134 28 9.14849 27.847 9.30148C27.6973 9.45122 27.5638 9.60585 27.4467 9.76535C27.3295 9.92486 27.2351 10.0827 27.1635 10.239C27.0918 10.3952 27.056 10.5352 27.056 10.6589C27.056 10.7696 27.0853 10.8558 27.1439 10.9177C27.2058 10.9795 27.2888 11.0105 27.3929 11.0105C27.6599 11.0105 27.9512 10.8689 28.267 10.5857C28.5827 10.3025 28.8985 9.87766 29.2142 9.31125ZM34.5121 8.23703C34.3916 8.23703 34.2858 8.26958 34.1947 8.33469C34.1036 8.39654 34.0254 8.48443 33.9603 8.59836C33.8952 8.70904 33.8415 8.84087 33.7992 8.99387C33.7569 9.14361 33.7227 9.30799 33.6967 9.48703C33.6706 9.66607 33.6527 9.85324 33.6429 10.0486C33.6332 10.2439 33.6283 10.4408 33.6283 10.6394C33.6283 10.8998 33.6381 11.157 33.6576 11.4109C33.6804 11.6615 33.6918 11.8943 33.6918 12.1091C33.6918 12.2491 33.6397 12.3581 33.5355 12.4362C33.4314 12.5176 33.2832 12.5583 33.0912 12.5583C33.0554 12.5583 33.0147 12.5551 32.9691 12.5486C32.9235 12.542 32.8796 12.529 32.8373 12.5095C32.7982 12.49 32.7624 12.4623 32.7299 12.4265C32.7006 12.3939 32.6843 12.3484 32.681 12.2898C32.6517 12.0033 32.6094 11.7103 32.5541 11.4109C32.4987 11.1114 32.4288 10.8135 32.3441 10.5173C32.2627 10.2178 32.1635 9.9216 32.0463 9.62863C31.9323 9.33566 31.8005 9.0492 31.6508 8.76926C31.6247 8.72043 31.6019 8.67486 31.5824 8.63254C31.5661 8.59022 31.558 8.54953 31.558 8.51047C31.558 8.46164 31.5791 8.40956 31.6215 8.35422C31.667 8.29562 31.7224 8.24191 31.7875 8.19308C31.8558 8.14426 31.9291 8.10519 32.0072 8.0759C32.0886 8.04335 32.1667 8.02707 32.2416 8.02707C32.3653 8.02707 32.4743 8.11333 32.5687 8.28586C32.6631 8.45513 32.751 8.72694 32.8324 9.10129C32.8487 9.16639 32.8617 9.21196 32.8715 9.23801C32.8812 9.26405 32.8942 9.27707 32.9105 9.27707C32.9463 9.27707 32.9691 9.22173 32.9789 9.11105C33.0179 8.80181 33.0847 8.53651 33.1791 8.31516C33.2735 8.09055 33.3907 7.90663 33.5306 7.7634C33.6739 7.61691 33.8366 7.50949 34.0189 7.44113C34.2045 7.37277 34.4079 7.33859 34.6293 7.33859C34.7562 7.33859 34.8848 7.34999 35.015 7.37277C35.1452 7.39556 35.2624 7.42974 35.3666 7.47531C35.4707 7.52088 35.5554 7.57622 35.6205 7.64133C35.6856 7.70643 35.7181 7.77967 35.7181 7.86105C35.7181 7.91965 35.7051 7.98963 35.6791 8.07101C35.6563 8.14914 35.6254 8.22564 35.5863 8.30051C35.5472 8.37212 35.5017 8.43397 35.4496 8.48605C35.4008 8.53488 35.3503 8.5593 35.2982 8.5593C35.2396 8.5593 35.1827 8.54302 35.1273 8.51047C35.072 8.47466 35.0118 8.43723 34.9467 8.39816C34.8848 8.3591 34.8181 8.32329 34.7465 8.29074C34.6781 8.25493 34.6 8.23703 34.5121 8.23703ZM35.4935 7.94894C35.4935 7.90012 35.5147 7.85292 35.557 7.80734C35.5993 7.75851 35.6547 7.7162 35.723 7.68039C35.7914 7.64133 35.8679 7.6104 35.9525 7.58762C36.0404 7.56157 36.1283 7.54855 36.2162 7.54855C36.265 7.54855 36.3057 7.56157 36.3383 7.58762C36.3741 7.61366 36.405 7.66411 36.431 7.73898C36.4571 7.8106 36.4799 7.91314 36.4994 8.0466C36.5222 8.17681 36.5433 8.34771 36.5629 8.5593C36.5759 8.6244 36.5873 8.67486 36.597 8.71066C36.6101 8.74321 36.6263 8.75949 36.6459 8.75949C36.6752 8.75949 36.7045 8.70904 36.7338 8.60812C36.9714 7.92127 37.3148 7.57785 37.764 7.57785C37.9724 7.57785 38.1612 7.64295 38.3304 7.77316C38.503 7.90337 38.6625 8.11659 38.809 8.41281C38.9587 8.70578 39.1003 9.09315 39.2338 9.57492C39.3672 10.0534 39.5007 10.6443 39.6342 11.3474C39.6407 11.3832 39.6455 11.4157 39.6488 11.445C39.6521 11.4743 39.6537 11.502 39.6537 11.528C39.6537 11.6029 39.6358 11.668 39.6 11.7234C39.5674 11.7754 39.5235 11.8194 39.4681 11.8552C39.4128 11.8877 39.351 11.9122 39.2826 11.9284C39.2142 11.948 39.1459 11.9577 39.0775 11.9577C38.9408 11.9577 38.8415 11.9431 38.7797 11.9138C38.7211 11.8845 38.6836 11.8292 38.6674 11.7478C38.573 11.253 38.4802 10.8135 38.389 10.4294C38.3011 10.0453 38.2133 9.72303 38.1254 9.46262C38.0407 9.19894 37.9561 8.99875 37.8715 8.86203C37.7868 8.72531 37.7022 8.65695 37.6176 8.65695C37.5329 8.65695 37.4532 8.71066 37.3783 8.81808C37.3067 8.92225 37.2367 9.08664 37.1683 9.31125C37.1 9.53586 37.0332 9.82069 36.9681 10.1657C36.9063 10.5108 36.8461 10.9226 36.7875 11.4011C36.7712 11.5313 36.7061 11.6355 36.5922 11.7136C36.4782 11.7917 36.3334 11.8308 36.1576 11.8308C36.0404 11.8308 35.9509 11.8064 35.889 11.7575C35.8272 11.7087 35.793 11.642 35.7865 11.5573C35.7572 10.8803 35.7247 10.3236 35.6888 9.88742C35.6563 9.44797 35.6254 9.09641 35.5961 8.83273C35.5668 8.56581 35.5424 8.36724 35.5228 8.23703C35.5033 8.10682 35.4935 8.01079 35.4935 7.94894ZM43.2328 7.6218C43.4118 7.6218 43.5844 7.64946 43.7504 7.7048C43.9164 7.76014 44.0629 7.83664 44.1898 7.9343C44.3168 8.03195 44.4177 8.14914 44.4926 8.28586C44.5707 8.42258 44.6097 8.57394 44.6097 8.73996C44.6097 8.80832 44.5935 8.87505 44.5609 8.94016C44.5316 9.002 44.4909 9.05734 44.4388 9.10617C44.3868 9.15174 44.3265 9.18918 44.2582 9.21848C44.1931 9.24452 44.1247 9.25754 44.0531 9.25754C44.0466 9.25754 44.0401 9.25917 44.0336 9.26242C44.0303 9.26242 44.0254 9.26242 44.0189 9.26242C44.0124 9.26568 44.0059 9.2673 43.9994 9.2673L44.0189 9.65793C44.0319 10.1234 44.097 10.4636 44.2142 10.6784C44.3347 10.8933 44.4909 11.0007 44.683 11.0007C44.7513 11.0007 44.8116 10.9942 44.8636 10.9812C44.919 10.9681 44.9694 10.9535 45.015 10.9372C45.0638 10.9177 45.1094 10.9014 45.1517 10.8884C45.1941 10.8754 45.2364 10.8689 45.2787 10.8689C45.3536 10.8689 45.4187 10.9014 45.474 10.9665C45.5326 11.0316 45.5619 11.1098 45.5619 11.2009C45.5619 11.292 45.5261 11.3832 45.4545 11.4743C45.3861 11.5655 45.295 11.6485 45.181 11.7234C45.0671 11.795 44.9385 11.8536 44.7953 11.8991C44.6521 11.9447 44.5072 11.9675 44.3607 11.9675C44.1068 11.9675 43.8838 11.8633 43.6918 11.655C43.4997 11.4434 43.363 11.1342 43.2816 10.7273C43.2621 10.6622 43.236 10.6296 43.2035 10.6296C43.1644 10.6296 43.1302 10.6491 43.101 10.6882C42.7787 11.0951 42.4353 11.4011 42.0707 11.6062C41.7061 11.808 41.3464 11.9089 40.9916 11.9089C40.8256 11.9089 40.6758 11.8845 40.5424 11.8357C40.4089 11.7868 40.295 11.7185 40.2006 11.6306C40.1094 11.5394 40.0378 11.4304 39.9857 11.3034C39.9369 11.1732 39.9125 11.0284 39.9125 10.8689C39.9125 10.6443 39.9613 10.4083 40.059 10.1609C40.1599 9.91346 40.295 9.66932 40.4642 9.42844C40.6335 9.18755 40.8288 8.95806 41.0502 8.73996C41.2748 8.52186 41.5092 8.3298 41.7533 8.16379C42.0007 7.99777 42.2513 7.86594 42.5052 7.76828C42.7592 7.67062 43.0017 7.6218 43.2328 7.6218ZM43.0717 9.31125C43.1302 9.20057 43.184 9.12082 43.2328 9.07199C43.2816 9.01991 43.3516 8.98573 43.4427 8.96945C43.5144 8.95969 43.5502 8.9369 43.5502 8.90109C43.5502 8.87505 43.5404 8.84738 43.5209 8.81808C43.459 8.73345 43.3939 8.66021 43.3256 8.59836C43.2572 8.53325 43.1661 8.5007 43.0521 8.5007C42.9284 8.5007 42.7901 8.53651 42.6371 8.60812C42.4841 8.67974 42.3278 8.77577 42.1683 8.89621C42.0121 9.0134 41.8575 9.14849 41.7045 9.30148C41.5547 9.45122 41.4213 9.60585 41.3041 9.76535C41.1869 9.92486 41.0925 10.0827 41.0209 10.239C40.9493 10.3952 40.9135 10.5352 40.9135 10.6589C40.9135 10.7696 40.9427 10.8558 41.0013 10.9177C41.0632 10.9795 41.1462 11.0105 41.2504 11.0105C41.5173 11.0105 41.8086 10.8689 42.1244 10.5857C42.4401 10.3025 42.7559 9.87766 43.0717 9.31125ZM46.7484 10.1609C46.7484 10.5971 46.8151 10.934 46.9486 11.1716C47.0821 11.4092 47.2758 11.528 47.5297 11.528C47.6892 11.528 47.8357 11.4808 47.9691 11.3864C48.1058 11.292 48.223 11.1602 48.3207 10.9909C48.4183 10.8217 48.4932 10.6215 48.5453 10.3904C48.6006 10.156 48.6283 9.90207 48.6283 9.62863C48.6283 9.46262 48.6218 9.31939 48.6088 9.19894C48.5957 9.07525 48.5811 8.9662 48.5648 8.8718C48.5518 8.77414 48.5388 8.68788 48.5258 8.61301C48.5127 8.53814 48.5062 8.46652 48.5062 8.39816C48.5062 8.294 48.5502 8.21913 48.6381 8.17355C48.726 8.12473 48.8659 8.10031 49.058 8.10031C49.3021 8.10031 49.4909 8.15565 49.6244 8.26633C49.7611 8.377 49.8295 8.53814 49.8295 8.74973C49.8295 9.3259 49.7725 9.84348 49.6586 10.3025C49.5479 10.7614 49.3868 11.1521 49.1752 11.4743C48.9668 11.7933 48.7129 12.0391 48.4135 12.2116C48.114 12.3842 47.7787 12.4704 47.4076 12.4704C47.1439 12.4704 46.8998 12.4151 46.6752 12.3044C46.4538 12.197 46.2618 12.0456 46.099 11.8503C45.9395 11.6517 45.8142 11.4174 45.723 11.1472C45.6319 10.8737 45.5863 10.5743 45.5863 10.2487C45.5863 10.1251 45.5896 9.99321 45.5961 9.85324C45.6026 9.71327 45.6123 9.56353 45.6254 9.40402C45.6384 9.24126 45.6547 9.06548 45.6742 8.87668C45.697 8.68788 45.7214 8.4828 45.7474 8.26144C45.7572 8.16704 45.8011 8.09217 45.8793 8.03683C45.9607 7.97824 46.0632 7.94894 46.1869 7.94894C46.2976 7.94894 46.4017 7.96034 46.4994 7.98312C46.597 8.00591 46.6801 8.03683 46.7484 8.0759C46.82 8.11496 46.8754 8.16053 46.9144 8.21262C46.9567 8.2647 46.9779 8.32004 46.9779 8.37863C46.9779 8.43723 46.9649 8.53 46.9388 8.65695C46.9161 8.78065 46.89 8.92388 46.8607 9.08664C46.8347 9.24614 46.8086 9.4203 46.7826 9.6091C46.7598 9.79465 46.7484 9.97857 46.7484 10.1609ZM53.0033 8.08078C53.1595 8.08078 53.3077 8.0938 53.4476 8.11984C53.5876 8.14263 53.7146 8.16867 53.8285 8.19797C53.9424 8.22401 54.0401 8.25005 54.1215 8.27609C54.2028 8.29888 54.2614 8.31027 54.2972 8.31027C54.3265 8.31027 54.3542 8.29562 54.3802 8.26633C54.4063 8.23377 54.4388 8.1996 54.4779 8.16379C54.517 8.12798 54.5691 8.09543 54.6342 8.06613C54.6993 8.03358 54.7855 8.0173 54.8929 8.0173C55.0166 8.0173 55.1143 8.04986 55.1859 8.11496C55.2575 8.17681 55.2933 8.25493 55.2933 8.34933C55.2933 9.54074 55.2526 10.5531 55.1713 11.3864C55.0899 12.2165 54.958 12.892 54.7758 13.4128C54.5935 13.9336 54.3575 14.3112 54.0677 14.5456C53.778 14.78 53.4265 14.8972 53.0131 14.8972C52.8243 14.8972 52.6273 14.8549 52.4222 14.7702C52.2204 14.6856 52.0349 14.5765 51.8656 14.4431C51.6963 14.3129 51.5564 14.168 51.4457 14.0085C51.3383 13.849 51.2845 13.696 51.2845 13.5495C51.2845 13.5007 51.3106 13.4437 51.3627 13.3786C51.4148 13.3135 51.4782 13.2501 51.5531 13.1882C51.628 13.1264 51.7061 13.0743 51.7875 13.032C51.8689 12.9896 51.9388 12.9685 51.9974 12.9685C52.0593 12.9685 52.1114 12.9929 52.1537 13.0417C52.196 13.0938 52.2351 13.1573 52.2709 13.2321C52.3099 13.307 52.349 13.3884 52.3881 13.4763C52.4271 13.5674 52.476 13.6504 52.5345 13.7253C52.5931 13.8002 52.6648 13.862 52.7494 13.9109C52.834 13.9629 52.9398 13.989 53.0668 13.989C53.7764 13.989 54.1931 12.905 54.3168 10.737C54.3168 10.6394 54.2891 10.5905 54.2338 10.5905C54.1882 10.5905 54.1524 10.6133 54.1263 10.6589C53.8204 11.0723 53.4623 11.3832 53.0521 11.5915C52.6452 11.7966 52.1927 11.8991 51.6947 11.8991C51.4636 11.8991 51.2504 11.865 51.0551 11.7966C50.8597 11.725 50.6905 11.6273 50.5472 11.5036C50.4073 11.3767 50.2982 11.2269 50.2201 11.0544C50.142 10.8786 50.1029 10.6866 50.1029 10.4782C50.1029 10.2732 50.1387 10.0713 50.2103 9.87277C50.2852 9.67095 50.3877 9.48215 50.5179 9.30637C50.6514 9.12733 50.8093 8.96294 50.9916 8.8132C51.1739 8.66346 51.3724 8.53488 51.5873 8.42746C51.8021 8.31678 52.0284 8.23215 52.266 8.17355C52.5069 8.1117 52.7526 8.08078 53.0033 8.08078ZM51.8461 11.0007C52.292 11.0007 52.7006 10.8607 53.0717 10.5808C53.4427 10.2976 53.7601 9.88742 54.0238 9.35031C54.0303 9.33078 54.0352 9.31613 54.0385 9.30637C54.0417 9.29335 54.0433 9.28032 54.0433 9.2673C54.0433 9.23475 54.0092 9.20057 53.9408 9.16476C53.8724 9.12896 53.7829 9.09803 53.6722 9.07199C53.5616 9.04595 53.4346 9.02479 53.2914 9.00851C53.1514 8.98898 53.0098 8.97922 52.8666 8.97922C52.6355 8.97922 52.4125 9.01828 52.1976 9.09641C51.9828 9.17453 51.7924 9.2787 51.6263 9.40891C51.4603 9.53911 51.3269 9.68723 51.226 9.85324C51.125 10.0193 51.0746 10.1918 51.0746 10.3708C51.0746 10.5629 51.1446 10.7159 51.2845 10.8298C51.4278 10.9437 51.6149 11.0007 51.8461 11.0007ZM55.9769 7.18723C55.9769 6.83566 56.2048 6.65988 56.6605 6.65988C56.7386 6.65988 56.807 6.68104 56.8656 6.72336C56.9242 6.76568 56.9584 6.82427 56.9681 6.89914C56.9974 7.09771 57.0235 7.29465 57.0463 7.48996C57.0691 7.68527 57.0902 7.905 57.1097 8.14914C57.1325 8.39002 57.1537 8.66997 57.1732 8.98898C57.196 9.30474 57.2204 9.68234 57.2465 10.1218C57.2465 10.1674 57.253 10.1999 57.266 10.2195C57.2823 10.239 57.3002 10.2487 57.3197 10.2487C57.349 10.2487 57.3783 10.2195 57.4076 10.1609C57.5183 9.91672 57.642 9.69862 57.7787 9.50656C57.9154 9.31125 58.0619 9.14686 58.2181 9.0134C58.3744 8.87668 58.5388 8.77414 58.7113 8.70578C58.8871 8.63417 59.0661 8.59836 59.2484 8.59836C59.4893 8.59836 59.7074 8.66672 59.9027 8.80344C60.098 8.94016 60.264 9.13384 60.4008 9.38449C60.5375 9.63514 60.6433 9.9395 60.7181 10.2976C60.793 10.6524 60.8304 11.0495 60.8304 11.489C60.8304 11.6094 60.8207 11.7087 60.8011 11.7868C60.7849 11.8617 60.7556 11.9219 60.7133 11.9675C60.6709 12.0131 60.6123 12.044 60.5375 12.0603C60.4626 12.0798 60.3698 12.0896 60.2592 12.0896C60.1062 12.0896 59.9955 12.0603 59.9271 12.0017C59.862 11.9431 59.8295 11.8519 59.8295 11.7282C59.8295 11.4223 59.8083 11.1342 59.766 10.864C59.7269 10.5905 59.6716 10.3513 59.6 10.1462C59.5284 9.94113 59.4437 9.77837 59.3461 9.65793C59.2517 9.53749 59.1491 9.47726 59.0385 9.47726C58.7878 9.47726 58.5372 9.68071 58.2865 10.0876C58.0391 10.4945 57.7803 11.1081 57.5101 11.9284C57.4841 12.0033 57.4548 12.0652 57.4222 12.114C57.3897 12.1628 57.3506 12.2019 57.3051 12.2312C57.2627 12.2605 57.2107 12.28 57.1488 12.2898C57.087 12.3028 57.0137 12.3093 56.9291 12.3093C56.7566 12.3093 56.6329 12.2767 56.558 12.2116C56.4864 12.1465 56.4473 12.0391 56.4408 11.8894C56.4213 11.323 56.3855 10.7826 56.3334 10.2683C56.2845 9.7507 56.2325 9.28358 56.1771 8.86691C56.125 8.44699 56.0778 8.09217 56.0355 7.80246C55.9965 7.50949 55.9769 7.30441 55.9769 7.18723Z" fill="#1E1E1E"/>
<path d="M10.9046 86.104C21.769 86.2086 65.1104 86.8454 75.9458 86.9405M9.45923 84.9729C20.2655 84.7543 64.4993 85.2961 75.5384 85.2391" stroke="#1E1E1E" stroke-width="2" stroke-linecap="round"/>
<g clip-path="url(#clip0_58_131)">
<path d="M30.5135 29.1108C36.0816 32.0954 48.4884 28.6736 56.1517 29.1108C59.7505 26.9722 68.7234 31.4491 66.2983 39.0532C65.0179 44.0814 68.3548 51.6285 66.2983 58.9379C65.6387 68.8803 64.4552 70.287 56.1517 68.8803C50.8941 67.5686 44.2881 70.7243 30.5135 68.8803C24.4702 70.211 23.471 68.1009 20.3669 58.9379C18.291 53.6911 20.7258 46.106 20.3669 39.0532C23.374 33.084 26.9147 28.0368 30.5135 29.1108Z" fill="white"/>
<path d="M30.5135 29.1108C37.75 30.8978 42.2025 30.7267 56.1517 29.1108M30.5135 29.1108C38.7686 28.2554 46.2573 28.493 56.1517 29.1108M30.5135 29.1108C23.83 30.299 19.6782 33.5402 20.3669 39.0532M30.5135 29.1108C22.6562 27.3619 18.3104 32.7418 20.3669 39.0532M56.1517 29.1108C62.3988 28.3409 67.1035 32.7418 66.2983 39.0532M56.1517 29.1108C62.4085 26.9532 64.7754 30.4701 66.2983 39.0532M66.2983 39.0532C66.4147 46.8189 67.928 52.0182 66.2983 58.9379M66.2983 39.0532C66.3371 44.1194 66.5408 51.4669 66.2983 58.9379M66.2983 58.9379C67.4333 67.0173 63.2718 67.7111 56.1517 68.8803M66.2983 58.9379C65.8133 64.5554 61.2735 67.2739 56.1517 68.8803M56.1517 68.8803C47.9355 69.5171 40.5923 70.1445 30.5135 68.8803M56.1517 68.8803C46.2573 68.6522 37.2844 69.3555 30.5135 68.8803M30.5135 68.8803C25.382 69.4221 22.2294 67.0838 20.3669 58.9379M30.5135 68.8803C22.3167 70.9809 19.6297 66.6466 20.3669 58.9379M20.3669 58.9379C21.3564 55.421 18.7276 49.1952 20.3669 39.0532M20.3669 58.9379C19.6782 52.0657 20.9489 44.5662 20.3669 39.0532" stroke="#1E1E1E" stroke-width="2" stroke-linecap="round"/>
<path d="M32.3458 33.3516C40.7172 32.7528 43.7437 31.5552 55.7237 33.3516C59.1286 32.6483 57.6444 32.7623 58.1973 35.7659C58.595 37.8856 58.0518 40.0433 58.1973 40.6041C59.3032 43.237 57.1303 42.9328 55.7237 43.0279C50.7668 44.2255 41.9783 43.8738 32.3458 43.0279C32.9472 44.8528 28.5335 41.0033 29.8818 40.6041C29.9595 38.3894 30.4736 37.4008 29.8818 35.7659C32.1711 33.3802 29.5908 33.8934 32.3458 33.3516Z" fill="white"/>
<path d="M32.3457 33.3517C37.0892 33.9885 43.6176 34.0455 55.7237 33.3517M32.3457 33.3517C39.6113 33.1711 47.2941 33.2566 55.7237 33.3517M32.3457 33.3517C29.8139 33.4942 29.9206 34.7489 29.8818 35.766M32.3457 33.3517C30.8034 33.5132 29.3386 33.2851 29.8818 35.766M55.7237 33.3517C57.7802 33.5132 57.9742 33.2186 58.1973 35.766M55.7237 33.3517C56.6162 32.3726 58.4107 34.2927 58.1973 35.766M58.1973 35.766C58.401 37.0206 58.1973 37.9616 58.1973 40.6041M58.1973 35.766C58.2555 37.4008 58.2749 38.9787 58.1973 40.6041M58.1973 40.6041C58.3719 41.6306 57.1594 42.5906 55.7237 43.0279M58.1973 40.6041C57.3728 41.412 57.6638 42.1249 55.7237 43.0279M55.7237 43.0279C48.0798 43.6172 40.0867 42.9043 32.3457 43.0279M55.7237 43.0279C49.2535 43.2465 42.3663 43.1324 32.3457 43.0279M32.3457 43.0279C31.6376 43.7883 29.261 43.1324 29.8818 40.6041M32.3457 43.0279C30.3378 43.5697 29.2125 41.7637 29.8818 40.6041M29.8818 40.6041C29.649 38.9977 30.0661 37.6004 29.8818 35.766M29.8818 40.6041C29.9885 39.3874 29.8527 38.0662 29.8818 35.766" stroke="#1E1E1E" stroke-width="2" stroke-linecap="round"/>
<path d="M35.9687 41.3254C35.5294 41.3254 35.1552 41.2058 34.8461 40.9667C34.537 40.7257 34.3008 40.3767 34.1375 39.9199C33.9742 39.4611 33.8926 38.9071 33.8926 38.2578C33.8926 37.6124 33.9742 37.0613 34.1375 36.6045C34.3028 36.1457 34.5399 35.7958 34.849 35.5547C35.1601 35.3117 35.5333 35.1902 35.9687 35.1902C36.4042 35.1902 36.7765 35.3117 37.0856 35.5547C37.3966 35.7958 37.6338 36.1457 37.7971 36.6045C37.9623 37.0613 38.0449 37.6124 38.0449 38.2578C38.0449 38.9071 37.9633 39.4611 37.8 39.9199C37.6367 40.3767 37.4005 40.7257 37.0914 40.9667C36.7823 41.2058 36.4081 41.3254 35.9687 41.3254ZM35.9687 40.6839C36.4042 40.6839 36.7424 40.4739 36.9835 40.054C37.2246 39.6341 37.3451 39.0354 37.3451 38.2578C37.3451 37.7407 37.2897 37.3004 37.1789 36.9369C37.07 36.5734 36.9125 36.2963 36.7065 36.1058C36.5024 35.9153 36.2565 35.8201 35.9687 35.8201C35.5372 35.8201 35.1999 36.0329 34.9569 36.4587C34.7139 36.8825 34.5924 37.4822 34.5924 38.2578C34.5924 38.7749 34.6468 39.2142 34.7557 39.5758C34.8646 39.9374 35.0211 40.2125 35.2252 40.401C35.4312 40.5896 35.6791 40.6839 35.9687 40.6839Z" fill="#1E1E1E"/>
<path d="M52.0424 41.3791C51.603 41.3791 51.2288 41.2596 50.9197 41.0205C50.6106 40.7794 50.3744 40.4305 50.2111 39.9736C50.0478 39.5149 49.9662 38.9608 49.9662 38.3115C49.9662 37.6662 50.0478 37.115 50.2111 36.6582C50.3764 36.1994 50.6135 35.8495 50.9226 35.6085C51.2337 35.3655 51.6069 35.244 52.0424 35.244C52.4778 35.244 52.8501 35.3655 53.1592 35.6085C53.4702 35.8495 53.7074 36.1994 53.8707 36.6582C54.0359 37.115 54.1185 37.6662 54.1185 38.3115C54.1185 38.9608 54.0369 39.5149 53.8736 39.9736C53.7103 40.4305 53.4741 40.7794 53.165 41.0205C52.8559 41.2596 52.4817 41.3791 52.0424 41.3791ZM52.0424 40.7376C52.4778 40.7376 52.8161 40.5277 53.0571 40.1078C53.2982 39.6879 53.4187 39.0891 53.4187 38.3115C53.4187 37.7945 53.3633 37.3541 53.2525 36.9906C53.1436 36.6271 52.9862 36.3501 52.7801 36.1596C52.576 35.9691 52.3301 35.8738 52.0424 35.8738C51.6108 35.8738 51.2735 36.0867 51.0305 36.5124C50.7875 36.9362 50.666 37.5359 50.666 38.3115C50.666 38.8286 50.7205 39.268 50.8293 39.6296C50.9382 39.9911 51.0947 40.2662 51.2988 40.4548C51.5048 40.6433 51.7527 40.7376 52.0424 40.7376Z" fill="#1E1E1E"/>
<path d="M33.7265 46.7957C37.3157 45.0753 44.9208 45.9022 51.8663 46.7957C54.3884 49.0104 57.9678 47.6322 56.4158 51.2536C56.3284 54.723 56.571 59.3235 56.4158 60.1599C55.048 66.0816 56.7553 65.3307 51.8663 64.6178C43.9798 63.2776 41.0212 62.7833 33.7265 64.6178C30.3411 64.7889 26.0923 66.0721 29.177 60.1599C28.304 57.6696 30.312 54.6565 29.177 51.2536C27.6347 44.9707 31.4081 45.3034 33.7265 46.7957Z" fill="white"/>
<path d="M33.7265 46.7957C39.1491 45.7692 46.5505 46.3014 51.8663 46.7957M33.7265 46.7957C38.2275 45.8927 42.5345 45.9688 51.8663 46.7957M33.7265 46.7957C30.5448 45.5125 29.3517 48.5732 29.1771 51.2536M33.7265 46.7957C30.3896 44.8091 31.0977 49.6092 29.1771 51.2536M51.8663 46.7957C55.2614 47.0238 55.4554 48.3736 56.4158 51.2536M51.8663 46.7957C56.571 48.6112 56.7553 48.2405 56.4158 51.2536M56.4158 51.2536C55.6107 53.4683 56.9687 55.4073 56.4158 60.1599M56.4158 51.2536C56.3382 54.3998 56.0957 57.6315 56.4158 60.1599M56.4158 60.1599C56.9299 61.5667 55.9114 64.7604 51.8663 64.6178M56.4158 60.1599C57.0075 64.4467 56.2315 66.4523 51.8663 64.6178M51.8663 64.6178C46.308 66.1101 42.4957 66.1006 33.7265 64.6178M51.8663 64.6178C45.3282 65.6159 39.6438 65.1976 33.7265 64.6178M33.7265 64.6178C29.5263 63.8194 29.7106 64.019 29.1771 60.1599M33.7265 64.6178C32.1648 62.6693 28.9248 64.8364 29.1771 60.1599M29.1771 60.1599C29.8173 57.5555 29.8367 53.3162 29.1771 51.2536M29.1771 60.1599C28.7502 57.0232 28.9539 53.4113 29.1771 51.2536" stroke="#1E1E1E" stroke-linecap="round"/>
<path d="M38.29 46.9403C38.2318 49.6683 38.2609 60.4471 38.3288 63.2131M39.1049 47.9099C38.9691 50.7519 37.9408 61.065 37.8341 63.7644" stroke="#1E1E1E" stroke-width="0.5" stroke-linecap="round"/>
<path d="M46.2279 45.8714C46.4219 48.9891 47.1009 61.4693 47.2076 64.4729M47.13 45.3106C47.2949 48.2857 47.0136 60.4523 46.9069 63.5985" stroke="#1E1E1E" stroke-width="0.5" stroke-linecap="round"/>
<path d="M30.4577 53.0696C34.7841 53.0411 51.8471 52.6609 56.0862 52.5848M29.9242 52.6609C34.1924 52.6894 51.1002 52.9365 55.6012 52.9841" stroke="#1E1E1E" stroke-width="0.5" stroke-linecap="round"/>
<path d="M29.3712 58.1301C33.7267 58.0445 51.3523 58.1111 55.8436 58.2156M30.2831 58.9951C34.784 58.9475 52.5649 58.5863 56.8525 58.6434" stroke="#1E1E1E" stroke-width="0.5" stroke-linecap="round"/>
<path d="M34.4655 48.462V51.7698H34.0649V48.8819H34.0456L33.238 49.4182V49.0112L34.0649 48.462H34.4655Z" fill="#1E1E1E"/>
<path d="M34.892 63.8036C34.6487 63.8036 34.4414 63.7373 34.2702 63.6049C34.099 63.4714 33.9682 63.2781 33.8777 63.0251C33.7873 62.771 33.742 62.4641 33.742 62.1044C33.742 61.747 33.7873 61.4417 33.8777 61.1887C33.9692 60.9346 34.1006 60.7407 34.2718 60.6072C34.4441 60.4726 34.6508 60.4053 34.892 60.4053C35.1332 60.4053 35.3394 60.4726 35.5106 60.6072C35.6829 60.7407 35.8142 60.9346 35.9047 61.1887C35.9962 61.4417 36.042 61.747 36.042 62.1044C36.042 62.4641 35.9967 62.771 35.9063 63.0251C35.8159 63.2781 35.685 63.4714 35.5138 63.6049C35.3426 63.7373 35.1354 63.8036 34.892 63.8036ZM34.892 63.4482C35.1332 63.4482 35.3206 63.3319 35.4541 63.0994C35.5876 62.8668 35.6543 62.5351 35.6543 62.1044C35.6543 61.818 35.6237 61.5742 35.5623 61.3728C35.502 61.1714 35.4148 61.018 35.3006 60.9125C35.1876 60.807 35.0514 60.7542 34.892 60.7542C34.653 60.7542 34.4662 60.8721 34.3316 61.1079C34.197 61.3427 34.1297 61.6748 34.1297 62.1044C34.1297 62.3909 34.1598 62.6342 34.2201 62.8345C34.2804 63.0348 34.3671 63.1871 34.4802 63.2916C34.5943 63.396 34.7316 63.4482 34.892 63.4482Z" fill="#1E1E1E"/>
<path d="M52.3846 59.5354V62.8432H51.984V59.9554H51.9646L51.1571 60.4916V60.0846L51.984 59.5354H52.3846Z" fill="#1E1E1E"/>
<path d="M52.0467 54.717V58.0247H51.6461V55.1369H51.6267L50.8192 55.6731V55.2661L51.6461 54.717H52.0467Z" fill="#1E1E1E"/>
<path d="M34.6457 54.3296V57.6373H34.2451V54.7495H34.2257L33.4182 55.2857V54.8787L34.2451 54.3296H34.6457Z" fill="#1E1E1E"/>
<path d="M42.9205 58.0713C42.6771 58.0713 42.4698 58.005 42.2986 57.8726C42.1274 57.7391 41.9966 57.5458 41.9062 57.2928C41.8157 57.0387 41.7705 56.7318 41.7705 56.3721C41.7705 56.0147 41.8157 55.7094 41.9062 55.4564C41.9977 55.2023 42.129 55.0084 42.3002 54.8749C42.4725 54.7403 42.6793 54.673 42.9205 54.673C43.1616 54.673 43.3678 54.7403 43.539 54.8749C43.7113 55.0084 43.8427 55.2023 43.9331 55.4564C44.0247 55.7094 44.0704 56.0147 44.0704 56.3721C44.0704 56.7318 44.0252 57.0387 43.9347 57.2928C43.8443 57.5458 43.7135 57.7391 43.5423 57.8726C43.3711 58.005 43.1638 58.0713 42.9205 58.0713ZM42.9205 57.7159C43.1616 57.7159 43.349 57.5996 43.4825 57.3671C43.616 57.1345 43.6828 56.8028 43.6828 56.3721C43.6828 56.0857 43.6521 55.8419 43.5907 55.6405C43.5304 55.4391 43.4432 55.2857 43.3291 55.1802C43.216 55.0747 43.0798 55.0219 42.9205 55.0219C42.6814 55.0219 42.4946 55.1398 42.36 55.3756C42.2254 55.6104 42.1581 55.9425 42.1581 56.3721C42.1581 56.6586 42.1883 56.9019 42.2486 57.1022C42.3089 57.3025 42.3955 57.4548 42.5086 57.5593C42.6227 57.6637 42.76 57.7159 42.9205 57.7159Z" fill="#1E1E1E"/>
<path d="M43.0434 52.1237C42.8 52.1237 42.5928 52.0575 42.4216 51.9251C42.2504 51.7916 42.1195 51.5983 42.0291 51.3453C41.9386 51.0911 41.8934 50.7843 41.8934 50.4246C41.8934 50.0672 41.9386 49.7619 42.0291 49.5089C42.1206 49.2548 42.252 49.0609 42.4232 48.9274C42.5954 48.7928 42.8022 48.7255 43.0434 48.7255C43.2846 48.7255 43.4908 48.7928 43.662 48.9274C43.8342 49.0609 43.9656 49.2548 44.0561 49.5089C44.1476 49.7619 44.1933 50.0672 44.1933 50.4246C44.1933 50.7843 44.1481 51.0911 44.0577 51.3453C43.9672 51.5983 43.8364 51.7916 43.6652 51.9251C43.494 52.0575 43.2867 52.1237 43.0434 52.1237ZM43.0434 51.7684C43.2846 51.7684 43.4719 51.6521 43.6054 51.4196C43.739 51.187 43.8057 50.8553 43.8057 50.4246C43.8057 50.1382 43.775 49.8943 43.7137 49.693C43.6534 49.4916 43.5661 49.3382 43.452 49.2327C43.3389 49.1272 43.2027 49.0744 43.0434 49.0744C42.8043 49.0744 42.6175 49.1923 42.4829 49.4281C42.3483 49.6628 42.281 49.995 42.281 50.4246C42.281 50.7111 42.3112 50.9544 42.3715 51.1547C42.4318 51.3549 42.5185 51.5073 42.6315 51.6118C42.7457 51.7162 42.8829 51.7684 43.0434 51.7684Z" fill="#1E1E1E"/>
<path d="M42.8794 63.3219C42.6361 63.3219 42.4288 63.2557 42.2576 63.1233C42.0864 62.9897 41.9556 62.7965 41.8651 62.5434C41.7747 62.2893 41.7295 61.9825 41.7295 61.6228C41.7295 61.2653 41.7747 60.9601 41.8651 60.707C41.9567 60.4529 42.088 60.2591 42.2592 60.1256C42.4315 59.991 42.6382 59.9237 42.8794 59.9237C43.1206 59.9237 43.3268 59.991 43.498 60.1256C43.6703 60.2591 43.8017 60.4529 43.8921 60.707C43.9836 60.9601 44.0294 61.2653 44.0294 61.6228C44.0294 61.9825 43.9842 62.2893 43.8937 62.5434C43.8033 62.7965 43.6725 62.9897 43.5013 63.1233C43.3301 63.2557 43.1228 63.3219 42.8794 63.3219ZM42.8794 62.9666C43.1206 62.9666 43.308 62.8503 43.4415 62.6177C43.575 62.3852 43.6418 62.0535 43.6418 61.6228C43.6418 61.3364 43.6111 61.0925 43.5497 60.8912C43.4894 60.6898 43.4022 60.5364 43.2881 60.4309C43.175 60.3253 43.0388 60.2726 42.8794 60.2726C42.6404 60.2726 42.4536 60.3905 42.319 60.6263C42.1844 60.861 42.1171 61.1932 42.1171 61.6228C42.1171 61.9092 42.1472 62.1526 42.2075 62.3529C42.2678 62.5531 42.3545 62.7055 42.4676 62.8099C42.5817 62.9144 42.719 62.9666 42.8794 62.9666Z" fill="#1E1E1E"/>
<path d="M28.2283 69.1604C28.4611 70.5101 27.8112 75.757 29.5379 77.1637C31.2548 78.5705 36.7938 78.9507 38.5592 77.601C40.3247 76.2512 39.7718 70.4911 40.121 69.0558M27.7433 68.9133C27.8888 70.2915 27.4329 76.1372 29.1692 77.6675C30.9056 79.1883 36.3475 79.4354 38.1615 78.0477C39.9658 76.6599 39.7039 70.8523 40.024 69.3315" stroke="#1E1E1E" stroke-width="2" stroke-linecap="round"/>
<path d="M19.0794 38.5921C17.7698 39.0769 12.7741 37.9933 11.4549 42.204C10.1356 46.4053 9.64088 60.1973 11.1444 63.8567C12.6383 67.5067 18.9339 68.115 20.4374 64.1324C21.941 60.1402 20.2337 43.9245 20.1755 39.9418M18.4876 39.5616C17.0714 40.0749 12.0175 38.6301 10.9795 42.7363C9.93189 46.8521 10.6109 60.6155 12.2212 64.2274C13.8218 67.8299 19.3801 68.4002 20.6217 64.3795C21.8634 60.3683 19.9136 44.2001 19.6614 40.1224" stroke="#1E1E1E" stroke-width="2" stroke-linecap="round"/>
<path d="M59.2835 68.7175C58.944 70.1623 59.235 75.8179 57.4889 77.3007C55.7428 78.774 50.524 78.869 48.7877 77.6048C47.0513 76.3311 47.3908 70.9512 47.0901 69.668M60.1953 69.7251C60.0207 71.2459 60.4281 76.3977 58.4881 77.7664C56.5383 79.1351 50.3785 79.2112 48.516 77.947C46.6633 76.6828 47.6915 71.4455 47.3326 70.1718" stroke="#1E1E1E" stroke-width="2" stroke-linecap="round"/>
<path d="M67.182 37.6039C68.4527 38.1552 73.7685 36.7865 75.1266 41.0733C76.4749 45.3696 76.7466 59.5322 75.2915 63.3438C73.8364 67.1553 67.7834 67.9348 66.3962 63.9426C65.0091 59.9505 66.9491 43.5731 66.9782 39.4099M67.9483 38.5354C69.1802 39.1628 73.5842 37.2902 74.7774 41.52C75.9705 45.7498 76.4652 60.3592 75.0975 63.9331C73.7297 67.5165 68.0162 67.2884 66.5805 63.0016C65.1449 58.7148 66.3962 42.3089 66.4932 38.2217" stroke="#1E1E1E" stroke-width="2" stroke-linecap="round"/>
<path d="M51.7404 52.2963C51.4971 52.2963 51.2898 52.2301 51.1186 52.0976C50.9474 51.9641 50.8165 51.7708 50.7261 51.5178C50.6357 51.2637 50.5904 50.9568 50.5904 50.5972C50.5904 50.2397 50.6357 49.9344 50.7261 49.6814C50.8176 49.4273 50.949 49.2335 51.1202 49.1C51.2925 48.9654 51.4992 48.8981 51.7404 48.8981C51.9816 48.8981 52.1878 48.9654 52.359 49.1C52.5313 49.2335 52.6626 49.4273 52.7531 49.6814C52.8446 49.9344 52.8904 50.2397 52.8904 50.5972C52.8904 50.9568 52.8451 51.2637 52.7547 51.5178C52.6642 51.7708 52.5334 51.9641 52.3622 52.0976C52.191 52.2301 51.9837 52.2963 51.7404 52.2963ZM51.7404 51.941C51.9816 51.941 52.1689 51.8247 52.3025 51.5921C52.436 51.3595 52.5027 51.0279 52.5027 50.5972C52.5027 50.3108 52.472 50.0669 52.4107 49.8655C52.3504 49.6642 52.2632 49.5107 52.149 49.4052C52.036 49.2997 51.8998 49.2469 51.7404 49.2469C51.5014 49.2469 51.3145 49.3648 51.18 49.6007C51.0454 49.8354 50.9781 50.1676 50.9781 50.5972C50.9781 50.8836 51.0082 51.1269 51.0685 51.3272C51.1288 51.5275 51.2155 51.6799 51.3285 51.7843C51.4427 51.8887 51.58 51.941 51.7404 51.941Z" fill="#1E1E1E"/>
<path d="M52.7015 53.492C53.4387 53.4444 54.176 54.1478 54.6901 55.0128C55.1945 55.8873 55.6407 57.5031 55.7668 58.7103C55.9026 59.9174 55.922 61.2862 55.4952 62.2462C55.0781 63.2062 54.0305 64.2518 53.2544 64.4514C52.4784 64.6605 51.5666 64.0141 50.8681 63.4533C50.16 62.8925 49.4228 62.1036 49.0348 61.077C48.6467 60.06 48.4333 58.3871 48.5206 57.3225C48.6079 56.2675 48.8504 55.2884 49.5489 54.7181C50.2473 54.1478 52.265 54.0813 52.7112 53.9102C53.1477 53.7296 52.2068 53.5965 52.2165 53.6821M52.2941 54.0718C53.0992 53.9102 53.4484 54.3189 54.0402 54.9843C54.6222 55.6401 55.6795 56.9613 55.8153 58.0164C55.9511 59.0715 55.2721 60.4402 54.8453 61.2957C54.4282 62.1606 53.9044 62.6929 53.2738 63.1682C52.6433 63.6339 51.7994 64.4133 51.0524 64.1187C50.3055 63.824 49.1609 62.2937 48.7922 61.4002C48.4139 60.5162 48.7437 59.9459 48.8213 58.7863C48.8893 57.6267 48.8213 55.2124 49.2385 54.4235C49.6556 53.6345 50.9069 54.2143 51.295 54.0718C51.683 53.9197 51.5375 53.4254 51.5472 53.5205" stroke="#1E1E1E" stroke-width="0.5" stroke-linecap="round"/>
<path d="M34.4042 47.8112C35.1026 47.9918 36.0532 49.0564 36.6449 49.9879C37.2367 50.9099 37.906 52.2216 37.9739 53.3717C38.0321 54.5219 37.5083 56.1092 37.0233 56.8791C36.5285 57.6586 35.7719 57.8962 35.0153 58.0197C34.2586 58.1433 33.2304 58.1718 32.4738 57.63C31.7268 57.0882 30.912 55.786 30.4949 54.769C30.0875 53.7614 29.7286 52.5258 29.9905 51.5468C30.2524 50.5677 31.3582 49.4936 32.0664 48.8758C32.7745 48.258 33.696 47.9253 34.2198 47.8398C34.7437 47.7637 35.1899 48.334 35.2287 48.3911M34.2489 48.277C34.9474 48.3815 36.3636 49.2845 36.8293 50.102C37.3046 50.9194 37.1106 52.2121 37.0524 53.1816C36.9942 54.1512 36.8875 55.0541 36.48 55.9381C36.0726 56.8126 35.3839 58.2384 34.6176 58.457C33.8512 58.6756 32.5126 57.7631 31.8917 57.2593C31.2612 56.7461 31.1545 56.4894 30.8635 55.3963C30.5628 54.2937 30.0196 51.7369 30.1166 50.6723C30.2136 49.6077 30.7568 49.5032 31.4455 49.0089C32.144 48.5146 33.8609 47.7827 34.2974 47.6972C34.734 47.6211 34.0937 48.4291 34.084 48.5241" stroke="#1E1E1E" stroke-width="0.5" stroke-linecap="round"/>
</g>
<defs>
<clipPath id="clip0_58_131">
<rect width="68.8729" height="56.0802" fill="white" transform="translate(7.7854 24.8007)"/>
</clipPath>
</defs>
</svg>
