<svg width="84" height="119" viewBox="0 0 84 119" fill="none" xmlns="http://www.w3.org/2000/svg">
<path d="M22.149 2.56242C32.1435 0.964225 45.0035 -0.530553 62.2064 2.56242C74.4219 4.38623 81.8881 10.873 82.2351 21.5527C82.2549 45.958 82.0269 68.3609 82.2351 98.2188C83.9108 111.004 74.1245 116.795 62.2064 117.209C48.9597 118.431 27.1462 116.203 22.149 117.209C12.3428 120.142 3.69679 111.023 2.12028 98.2188C5.19399 71.4727 0.732149 50.1603 2.12028 21.5527C0.672658 11.5781 5.99712 4.87509 22.149 2.56242Z" fill="white"/>
<path d="M22.1491 2.56237C34.3943 1.36843 49.6538 2.92901 62.2065 2.56237M22.1491 2.56237C35.0091 3.48368 46.4512 2.15812 62.2065 2.56237M22.1491 2.56237C10.7168 2.11111 3.45891 9.61321 2.12035 21.5526M22.1491 2.56237C10.9746 1.70687 1.81298 9.32178 2.12035 21.5526M62.2065 2.56237C74.5311 3.83152 82.0964 8.04323 82.2352 21.5526M62.2065 2.56237C74.2931 0.747952 83.9208 8.83292 82.2352 21.5526M82.2352 21.5526C81.8881 41.5676 81.9476 62.8424 82.2352 98.2188M82.2352 21.5526C82.374 45.1401 83.5341 69.8838 82.2352 98.2188M82.2352 98.2188C81.1346 110.666 73.9857 116.495 62.2065 117.209M82.2352 98.2188C82.0567 111.625 76.8314 116.579 62.2065 117.209M62.2065 117.209C51.1014 118.083 42.9115 115.931 22.1491 117.209M62.2065 117.209C50.1992 117.087 39.2924 117.595 22.1491 117.209M22.1491 117.209C8.19837 116.692 1.59485 110.854 2.12035 98.2188M22.1491 117.209C9.23947 116.617 1.3668 111.747 2.12035 98.2188M2.12035 98.2188C2.24925 74.5844 3.55806 47.5091 2.12035 21.5526M2.12035 98.2188C1.57502 69.8462 2.81442 39.0105 2.12035 21.5526" stroke="#1E1E1E" stroke-width="2" stroke-linecap="round"/>
<path d="M21.451 3.12537C33.6864 3.12537 45.9118 3.12537 57.8497 3.12537M21.451 3.12537C31.9909 3.12537 42.5208 3.12537 57.8497 3.12537M21.451 3.12537C19.1011 3.12537 17.9312 4.2347 17.9312 6.46277M57.8497 3.12537C60.1897 3.12537 61.3696 4.2347 61.3696 6.46277M61.3696 6.46277C61.3696 8.54981 61.3696 10.6369 61.3696 13.147M61.3696 6.46277C61.3696 8.64383 61.3696 10.8155 61.3696 13.147M61.3696 13.147C61.3696 15.375 60.1897 16.4844 57.8497 16.4844M57.8497 16.4844C44.5931 16.4844 31.3365 16.4844 21.451 16.4844M57.8497 16.4844C49.2632 16.4844 40.6865 16.4844 21.451 16.4844M21.451 16.4844C19.1011 16.4844 17.9312 15.375 17.9312 13.147M17.9312 13.147C17.9312 11.2573 17.9312 9.37711 17.9312 6.46277M17.9312 13.147C17.9312 11.2009 17.9312 9.2549 17.9312 6.46277" stroke="#1E1E1E" stroke-width="2" stroke-linecap="round"/>
<path d="M9.90991 85.8765C20.8067 85.8765 64.4138 85.8765 75.3106 85.8765" stroke="#1E1E1E" stroke-width="2" stroke-linecap="round"/>
<path d="M24.1747 11.3534C24.1519 10.9205 24.1145 10.5217 24.0624 10.1571C24.0135 9.78927 23.9615 9.46863 23.9061 9.19519C23.854 8.92175 23.8068 8.7004 23.7645 8.53113C23.7255 8.36186 23.7059 8.25606 23.7059 8.21375C23.7059 8.1519 23.7287 8.09167 23.7743 8.03308C23.8231 7.97449 23.8833 7.92403 23.955 7.88171C24.0266 7.83614 24.1031 7.80033 24.1844 7.77429C24.2691 7.74825 24.3456 7.73523 24.4139 7.73523C24.4693 7.73523 24.5165 7.745 24.5555 7.76453C24.5979 7.78406 24.6272 7.81661 24.6434 7.86218C24.6597 7.91752 24.6744 7.97611 24.6874 8.03796C24.7037 8.09656 24.7199 8.16817 24.7362 8.25281C24.7557 8.37325 24.7818 8.43347 24.8143 8.43347C24.8501 8.43347 24.8908 8.37976 24.9364 8.27234C25.0015 8.1226 25.0715 7.9989 25.1464 7.90125C25.2212 7.80359 25.301 7.72709 25.3856 7.67175C25.4735 7.61316 25.563 7.57247 25.6542 7.54968C25.7486 7.5269 25.8462 7.5155 25.9471 7.5155C26.2531 7.5155 26.5119 7.63595 26.7235 7.87683C26.9384 8.11772 27.106 8.46602 27.2264 8.92175C27.2427 8.97384 27.2574 9.00802 27.2704 9.02429C27.2834 9.03731 27.2981 9.04382 27.3143 9.04382C27.3306 9.04382 27.3469 9.03731 27.3632 9.02429C27.3827 9.00802 27.4006 8.97709 27.4169 8.93152C27.495 8.71993 27.5861 8.54089 27.6903 8.39441C27.7945 8.24467 27.9019 8.12423 28.0126 8.03308C28.1265 7.93868 28.2421 7.87032 28.3593 7.828C28.4764 7.78569 28.5887 7.76453 28.6962 7.76453C28.8947 7.76453 29.0738 7.83777 29.2333 7.98425C29.396 8.12748 29.5393 8.35046 29.663 8.6532C29.7899 8.95268 29.899 9.33354 29.9901 9.79578C30.0845 10.2548 30.1626 10.8 30.2245 11.4315C30.2245 11.6073 30.1708 11.7294 30.0634 11.7977C29.9559 11.8693 29.8094 11.9052 29.6239 11.9052C29.5035 11.9052 29.4091 11.8791 29.3407 11.827C29.2723 11.7749 29.2333 11.7066 29.2235 11.6219C29.1812 11.1695 29.134 10.7675 29.0819 10.4159C29.0331 10.0611 28.9794 9.76322 28.9208 9.52234C28.8622 9.2782 28.7971 9.09265 28.7255 8.9657C28.6571 8.83875 28.5806 8.77527 28.496 8.77527C28.4537 8.77527 28.3999 8.80619 28.3348 8.86804C28.273 8.92989 28.2063 9.04382 28.1346 9.20984C28.063 9.3726 27.9882 9.59721 27.91 9.88367C27.8319 10.1669 27.757 10.5298 27.6854 10.9725C27.6659 11.0962 27.6057 11.1906 27.5048 11.2557C27.4071 11.3208 27.2867 11.3534 27.1434 11.3534C26.9774 11.3534 26.8619 11.3274 26.7968 11.2753C26.7349 11.2232 26.7007 11.1353 26.6942 11.0116C26.6812 10.7968 26.6584 10.5835 26.6259 10.3719C26.5966 10.1571 26.5591 9.95365 26.5135 9.7616C26.468 9.56628 26.4175 9.38725 26.3622 9.22449C26.3068 9.05847 26.2483 8.91524 26.1864 8.7948C26.1246 8.6711 26.0611 8.57507 25.996 8.50671C25.9309 8.43835 25.8674 8.40417 25.8055 8.40417C25.7242 8.40417 25.6444 8.46114 25.5663 8.57507C25.4914 8.68901 25.4231 8.85014 25.3612 9.05847C25.3026 9.26681 25.2554 9.51746 25.2196 9.81042C25.1838 10.1034 25.1659 10.4305 25.1659 10.7919C25.1659 10.8537 25.1675 10.9156 25.1708 10.9774C25.174 11.036 25.1757 11.0979 25.1757 11.163C25.1757 11.2606 25.1594 11.3404 25.1268 11.4022C25.0975 11.4641 25.0536 11.5129 24.995 11.5487C24.9397 11.5845 24.8746 11.6089 24.7997 11.6219C24.7248 11.635 24.6434 11.6415 24.5555 11.6415C24.4742 11.6415 24.4091 11.635 24.3602 11.6219C24.3114 11.6122 24.274 11.5959 24.2479 11.5731C24.2219 11.5503 24.204 11.5194 24.1942 11.4803C24.1844 11.4445 24.1779 11.4022 24.1747 11.3534ZM31.8651 9.41492C31.8651 9.85111 31.9318 10.188 32.0653 10.4257C32.1988 10.6633 32.3925 10.7821 32.6464 10.7821C32.8059 10.7821 32.9524 10.7349 33.0858 10.6405C33.2225 10.5461 33.3397 10.4143 33.4374 10.245C33.535 10.0757 33.6099 9.87553 33.662 9.64441C33.7173 9.41003 33.745 9.15613 33.745 8.88269C33.745 8.71667 33.7385 8.57345 33.7255 8.453C33.7124 8.32931 33.6978 8.22026 33.6815 8.12585C33.6685 8.0282 33.6555 7.94194 33.6425 7.86707C33.6294 7.7922 33.6229 7.72058 33.6229 7.65222C33.6229 7.54806 33.6669 7.47319 33.7548 7.42761C33.8427 7.37878 33.9826 7.35437 34.1747 7.35437C34.4188 7.35437 34.6076 7.40971 34.7411 7.52039C34.8778 7.63106 34.9462 7.7922 34.9462 8.00378C34.9462 8.57996 34.8892 9.09753 34.7753 9.55652C34.6646 10.0155 34.5035 10.4061 34.2919 10.7284C34.0835 11.0474 33.8296 11.2932 33.5302 11.4657C33.2307 11.6382 32.8954 11.7245 32.5243 11.7245C32.2606 11.7245 32.0165 11.6691 31.7919 11.5585C31.5705 11.451 31.3785 11.2997 31.2157 11.1044C31.0562 10.9058 30.9309 10.6714 30.8397 10.4012C30.7486 10.1278 30.703 9.82833 30.703 9.50281C30.703 9.37911 30.7063 9.24727 30.7128 9.1073C30.7193 8.96733 30.729 8.81759 30.7421 8.65808C30.7551 8.49532 30.7714 8.31954 30.7909 8.13074C30.8137 7.94194 30.8381 7.73686 30.8641 7.5155C30.8739 7.4211 30.9178 7.34623 30.996 7.29089C31.0774 7.2323 31.1799 7.203 31.3036 7.203C31.4143 7.203 31.5184 7.2144 31.6161 7.23718C31.7137 7.25997 31.7968 7.29089 31.8651 7.32996C31.9367 7.36902 31.9921 7.41459 32.0311 7.46667C32.0734 7.51876 32.0946 7.5741 32.0946 7.63269C32.0946 7.69128 32.0816 7.78406 32.0555 7.91101C32.0328 8.03471 32.0067 8.17794 31.9774 8.3407C31.9514 8.5002 31.9253 8.67436 31.8993 8.86316C31.8765 9.04871 31.8651 9.23263 31.8651 9.41492ZM35.2733 5.58191C35.2733 5.41264 35.3221 5.2922 35.4198 5.22058C35.5175 5.14897 35.6786 5.11316 35.9032 5.11316C35.9813 5.11316 36.0497 5.1213 36.1083 5.13757C36.1669 5.15385 36.2157 5.18152 36.2548 5.22058C36.2938 5.25639 36.3247 5.30684 36.3475 5.37195C36.3736 5.4338 36.3947 5.51355 36.411 5.61121C36.4533 5.90092 36.4956 6.20528 36.538 6.52429C36.5835 6.84005 36.6259 7.1558 36.6649 7.47156C36.7072 7.78406 36.7463 8.09005 36.7821 8.38953C36.8179 8.68575 36.8488 8.96244 36.8749 9.2196C36.9042 9.47351 36.9253 9.69975 36.9384 9.89832C36.9546 10.0936 36.9628 10.2483 36.9628 10.3622C36.9628 10.4794 36.9514 10.5787 36.9286 10.66C36.9091 10.7414 36.8733 10.8065 36.8212 10.8553C36.7723 10.9042 36.7072 10.94 36.6259 10.9628C36.5477 10.9823 36.4501 10.9921 36.3329 10.9921C36.219 10.9921 36.1278 10.9628 36.0594 10.9042C35.9943 10.8456 35.9618 10.7561 35.9618 10.6356C35.9618 10.5119 35.952 10.3475 35.9325 10.1425C35.913 9.93412 35.8869 9.703 35.8544 9.4491C35.8218 9.19519 35.7844 8.92501 35.7421 8.63855C35.703 8.35209 35.6607 8.06889 35.6151 7.78894C35.5728 7.50899 35.5305 7.24044 35.4882 6.98328C35.4491 6.72286 35.4133 6.49337 35.3807 6.2948C35.3482 6.09298 35.3221 5.92859 35.3026 5.80164C35.2831 5.67143 35.2733 5.59819 35.2733 5.58191ZM38.1981 5.50378C38.1981 5.33126 38.2469 5.21082 38.3446 5.14246C38.4423 5.07084 38.6034 5.03503 38.828 5.03503C38.9094 5.03503 38.9777 5.04317 39.0331 5.05945C39.0917 5.07247 39.1405 5.09851 39.1796 5.13757C39.2219 5.17664 39.2544 5.22872 39.2772 5.29382C39.3033 5.35567 39.3244 5.43542 39.3407 5.53308C39.3798 5.83582 39.4221 6.14832 39.4677 6.47058C39.5165 6.79285 39.5669 7.11674 39.619 7.44226C39.6385 7.58875 39.715 7.66199 39.8485 7.66199C39.8843 7.66199 39.9429 7.65873 40.0243 7.65222C40.1089 7.64246 40.2082 7.63269 40.3221 7.62292C40.4361 7.6099 40.5581 7.59688 40.6884 7.58386C40.8218 7.57084 40.9537 7.55945 41.0839 7.54968C41.2173 7.53666 41.3427 7.5269 41.4598 7.52039C41.5803 7.51062 41.6861 7.50574 41.7772 7.50574C41.8488 7.50574 41.9058 7.52039 41.9481 7.54968C41.9904 7.57572 42.023 7.61153 42.0458 7.6571C42.0718 7.69942 42.0881 7.74825 42.0946 7.80359C42.1044 7.85567 42.1093 7.90938 42.1093 7.96472C42.1093 8.01355 42.0995 8.06401 42.08 8.11609C42.0637 8.16817 42.0393 8.21537 42.0067 8.25769C41.9774 8.29675 41.94 8.32931 41.8944 8.35535C41.8488 8.38139 41.7968 8.39441 41.7382 8.39441C41.455 8.39441 41.1685 8.40417 40.8788 8.42371C40.5923 8.43998 40.3059 8.46277 40.0194 8.49207C39.8729 8.5116 39.7997 8.58484 39.7997 8.71179C39.7997 8.72156 39.8013 8.73458 39.8046 8.75085C39.8078 8.76388 39.8094 8.77527 39.8094 8.78503C39.8485 9.06824 39.8843 9.33354 39.9169 9.58093C39.9527 9.82833 39.982 10.0497 40.0048 10.245C40.0308 10.4371 40.0503 10.5982 40.0634 10.7284C40.0796 10.8553 40.0878 10.94 40.0878 10.9823C40.0878 11.0995 40.0764 11.1971 40.0536 11.2753C40.0308 11.3566 39.9934 11.4218 39.9413 11.4706C39.8892 11.5227 39.8192 11.5585 39.7313 11.578C39.6467 11.6008 39.5393 11.6122 39.4091 11.6122C39.2854 11.6122 39.1942 11.5829 39.1356 11.5243C39.077 11.4657 39.0445 11.3762 39.038 11.2557C39.0184 10.8716 38.9875 10.4859 38.9452 10.0985C38.9029 9.70789 38.854 9.31889 38.7987 8.93152C38.7694 8.79154 38.6962 8.72156 38.579 8.72156C38.5692 8.72156 38.5578 8.72319 38.5448 8.72644C38.5318 8.7297 38.5204 8.73132 38.5106 8.73132C38.3088 8.7769 38.1184 8.82247 37.9393 8.86804C37.7603 8.91361 37.5927 8.96244 37.4364 9.01453C37.3485 9.04382 37.2704 9.06498 37.202 9.078C37.1337 9.08777 37.0718 9.09265 37.0165 9.09265C36.9416 9.09265 36.8863 9.0601 36.8505 8.995C36.8147 8.92664 36.7968 8.842 36.7968 8.74109C36.7968 8.70528 36.8 8.66459 36.8065 8.61902C36.813 8.57019 36.826 8.52299 36.8456 8.47742C36.8619 8.42859 36.8879 8.38464 36.9237 8.34558C36.9563 8.30326 37.0018 8.26908 37.0604 8.24304C37.1971 8.1877 37.3794 8.13074 37.6073 8.07214C37.8352 8.01029 38.0923 7.95333 38.3788 7.90125C38.4439 7.88497 38.4943 7.85893 38.5302 7.82312C38.5692 7.78406 38.5887 7.72709 38.5887 7.65222C38.5887 7.63595 38.5887 7.61967 38.5887 7.60339C38.5887 7.58386 38.5855 7.56433 38.579 7.5448C38.5269 7.24532 38.4764 6.97351 38.4276 6.72937C38.382 6.48197 38.3413 6.27039 38.3055 6.0946C38.273 5.91882 38.2469 5.78048 38.2274 5.67957C38.2079 5.57865 38.1981 5.52006 38.1981 5.50378ZM41.3524 7.73523C41.3524 7.60828 41.4094 7.51225 41.5233 7.44714C41.6372 7.37878 41.8 7.3446 42.0116 7.3446C42.0604 7.3446 42.1044 7.35111 42.1434 7.36414C42.1825 7.37716 42.2167 7.4032 42.246 7.44226C42.2785 7.47807 42.3078 7.52852 42.3339 7.59363C42.3599 7.65873 42.3859 7.74174 42.412 7.84265C42.438 7.95658 42.4641 8.01355 42.4901 8.01355C42.5129 8.01355 42.5406 7.96635 42.5731 7.87195C42.6317 7.6864 42.7082 7.52527 42.8026 7.38855C42.9003 7.24858 43.0093 7.13302 43.1298 7.04187C43.2502 6.94747 43.3804 6.87748 43.5204 6.83191C43.6636 6.78634 43.8134 6.76355 43.9696 6.76355C44.2854 6.76355 44.58 6.82377 44.8534 6.94421C45.1268 7.0614 45.3628 7.22579 45.5614 7.43738C45.76 7.64571 45.9162 7.89311 46.0302 8.17957C46.1441 8.46277 46.201 8.77039 46.201 9.10242C46.201 9.45398 46.1392 9.7795 46.0155 10.079C45.8951 10.3785 45.7258 10.6372 45.5077 10.8553C45.2896 11.0702 45.0292 11.2378 44.7264 11.3583C44.427 11.482 44.0982 11.5438 43.7401 11.5438L43.4911 11.5341C43.3446 11.5341 43.2714 11.6171 43.2714 11.7831L43.5204 14.0243C43.5171 14.0796 43.4976 14.1301 43.4618 14.1757C43.4292 14.2245 43.3837 14.2668 43.3251 14.3026C43.2697 14.3384 43.203 14.3661 43.1249 14.3856C43.05 14.4052 42.9719 14.4149 42.8905 14.4149C42.6561 14.4149 42.5292 14.3384 42.5096 14.1854C42.4413 13.593 42.3648 13.0298 42.2802 12.496C42.1988 11.9621 42.1141 11.4657 42.0262 11.0067C41.9416 10.5445 41.8586 10.1246 41.7772 9.74695C41.6958 9.36934 41.6226 9.04057 41.5575 8.76062C41.4956 8.48067 41.4468 8.25281 41.411 8.07703C41.3719 7.90125 41.3524 7.78731 41.3524 7.73523ZM42.9393 9.02429C42.9393 9.23588 42.9475 9.44584 42.9637 9.65417C42.98 9.85925 43.0061 10.0822 43.0419 10.3231C43.0614 10.4696 43.1412 10.5526 43.2811 10.5721C43.3658 10.5917 43.4602 10.6112 43.5643 10.6307C43.6718 10.647 43.7613 10.6552 43.8329 10.6552C44.0412 10.6552 44.23 10.6242 44.3993 10.5624C44.5686 10.5005 44.7134 10.4126 44.8339 10.2987C44.9543 10.1815 45.0471 10.0432 45.1122 9.88367C45.1773 9.72416 45.2098 9.54675 45.2098 9.35144C45.2098 9.11381 45.1773 8.89246 45.1122 8.68738C45.0471 8.47904 44.9576 8.29838 44.8436 8.14539C44.733 7.99239 44.6011 7.87195 44.4481 7.78406C44.2984 7.69617 44.1356 7.65222 43.9598 7.65222C43.8068 7.65222 43.6669 7.6864 43.5399 7.75476C43.4162 7.81986 43.3088 7.91264 43.2177 8.03308C43.1298 8.15027 43.0614 8.2935 43.0126 8.46277C42.9637 8.63204 42.9393 8.81921 42.9393 9.02429ZM46.4843 5.58191C46.4843 5.41264 46.5331 5.2922 46.6307 5.22058C46.7284 5.14897 46.8895 5.11316 47.1141 5.11316C47.1923 5.11316 47.2606 5.1213 47.3192 5.13757C47.3778 5.15385 47.4266 5.18152 47.4657 5.22058C47.5048 5.25639 47.5357 5.30684 47.5585 5.37195C47.5845 5.4338 47.6057 5.51355 47.6219 5.61121C47.6643 5.90092 47.7066 6.20528 47.7489 6.52429C47.7945 6.84005 47.8368 7.1558 47.8759 7.47156C47.9182 7.78406 47.9572 8.09005 47.993 8.38953C48.0288 8.68575 48.0598 8.96244 48.0858 9.2196C48.1151 9.47351 48.1363 9.69975 48.1493 9.89832C48.1656 10.0936 48.1737 10.2483 48.1737 10.3622C48.1737 10.4794 48.1623 10.5787 48.1395 10.66C48.12 10.7414 48.0842 10.8065 48.0321 10.8553C47.9833 10.9042 47.9182 10.94 47.8368 10.9628C47.7587 10.9823 47.661 10.9921 47.5438 10.9921C47.4299 10.9921 47.3387 10.9628 47.2704 10.9042C47.2053 10.8456 47.1727 10.7561 47.1727 10.6356C47.1727 10.5119 47.163 10.3475 47.1434 10.1425C47.1239 9.93412 47.0979 9.703 47.0653 9.4491C47.0328 9.19519 46.9953 8.92501 46.953 8.63855C46.9139 8.35209 46.8716 8.06889 46.826 7.78894C46.7837 7.50899 46.7414 7.24044 46.6991 6.98328C46.66 6.72286 46.6242 6.49337 46.5917 6.2948C46.5591 6.09298 46.5331 5.92859 46.5135 5.80164C46.494 5.67143 46.4843 5.59819 46.4843 5.58191ZM53.1102 10.0741C53.2046 9.99272 53.2974 9.95203 53.3885 9.95203C53.4406 9.95203 53.4878 9.96505 53.5302 9.99109C53.5725 10.0171 53.6197 10.0578 53.6718 10.1132C53.7206 10.188 53.7548 10.2499 53.7743 10.2987C53.7971 10.3443 53.8085 10.3899 53.8085 10.4354C53.8085 10.5331 53.7596 10.6259 53.662 10.7137C53.5057 10.844 53.3365 10.9611 53.1542 11.0653C52.9719 11.1662 52.7815 11.2525 52.5829 11.3241C52.3843 11.3957 52.1792 11.4494 51.9677 11.4852C51.7561 11.5243 51.5461 11.5438 51.3378 11.5438C51.0741 11.5438 50.8267 11.5096 50.5956 11.4413C50.3645 11.3762 50.1578 11.2818 49.9755 11.1581C49.7964 11.0344 49.6451 10.8863 49.5214 10.7137C49.3977 10.538 49.3098 10.341 49.2577 10.1229C49.2284 10.0318 49.2007 9.97319 49.1747 9.94714C49.1519 9.91785 49.1128 9.9032 49.0575 9.9032C48.9371 9.9032 48.8443 9.8739 48.7792 9.81531C48.7141 9.75671 48.6815 9.67208 48.6815 9.5614C48.6815 9.51583 48.6848 9.48653 48.6913 9.47351L48.701 9.37585C48.7173 9.25867 48.7483 9.17403 48.7938 9.12195C48.8427 9.06986 48.9175 9.04382 49.0184 9.04382H49.0917C49.2284 9.04382 49.3244 8.98035 49.3798 8.85339C49.4807 8.62878 49.6093 8.42371 49.7655 8.23816C49.9218 8.05261 50.0975 7.89473 50.2928 7.76453C50.4882 7.63106 50.6965 7.52852 50.9178 7.45691C51.1425 7.38204 51.3703 7.3446 51.6014 7.3446C51.8423 7.3446 52.0669 7.38041 52.2753 7.45203C52.4869 7.52039 52.6708 7.61641 52.827 7.74011C52.9833 7.86381 53.1053 8.00867 53.1932 8.17468C53.2844 8.3407 53.33 8.51973 53.33 8.71179C53.33 8.84526 53.3039 8.96733 53.2518 9.078C53.1997 9.18868 53.1249 9.28634 53.0272 9.37097C52.9296 9.45235 52.8108 9.51908 52.6708 9.57117C52.5341 9.62325 52.3778 9.65743 52.202 9.67371L50.5077 9.8446C50.4426 9.8446 50.3889 9.86088 50.3466 9.89343C50.3075 9.92598 50.288 9.96993 50.288 10.0253C50.288 10.1099 50.3189 10.1913 50.3807 10.2694C50.4458 10.3475 50.5305 10.4175 50.6346 10.4794C50.7421 10.538 50.8641 10.5852 51.0009 10.621C51.1408 10.6568 51.2841 10.6747 51.4305 10.6747C51.5705 10.6747 51.7137 10.6617 51.8602 10.6356C52.01 10.6063 52.1565 10.5656 52.2997 10.5135C52.4462 10.4615 52.5878 10.3996 52.7245 10.328C52.8612 10.2531 52.9898 10.1685 53.1102 10.0741ZM52.0214 8.81433C52.0702 8.80457 52.1125 8.78178 52.1483 8.74597C52.1841 8.70691 52.202 8.65971 52.202 8.60437C52.202 8.55554 52.1841 8.50997 52.1483 8.46765C52.1125 8.42533 52.0637 8.3879 52.0018 8.35535C51.94 8.31954 51.8684 8.29187 51.787 8.27234C51.7056 8.25281 51.6193 8.24304 51.5282 8.24304C51.3947 8.24304 51.258 8.26257 51.118 8.30164C50.9781 8.3407 50.8511 8.39278 50.7372 8.45789C50.6233 8.51973 50.5305 8.58972 50.4589 8.66785C50.3872 8.74272 50.3514 8.81759 50.3514 8.89246C50.3514 8.96733 50.397 9.00476 50.4882 9.00476C50.5435 9.00476 50.633 8.99825 50.7567 8.98523C50.8804 8.97221 51.0171 8.95756 51.1669 8.94128C51.3166 8.92175 51.468 8.90059 51.621 8.87781C51.774 8.85502 51.9074 8.83386 52.0214 8.81433ZM54.2577 7.02234C54.2154 6.95398 54.1877 6.89701 54.1747 6.85144C54.1617 6.80261 54.1552 6.76355 54.1552 6.73425C54.1552 6.67891 54.1796 6.62195 54.2284 6.56335C54.2772 6.50476 54.3374 6.45268 54.4091 6.4071C54.4807 6.35828 54.5572 6.31921 54.6385 6.28992C54.7199 6.25736 54.7915 6.24109 54.8534 6.24109C54.8892 6.24109 54.9266 6.25574 54.9657 6.28503C55.008 6.31108 55.065 6.38106 55.1366 6.495C55.2505 6.68054 55.3693 6.8726 55.493 7.07117C55.62 7.26973 55.7535 7.46993 55.8934 7.67175C55.9488 7.74662 56.0057 7.78406 56.0643 7.78406C56.1294 7.78406 56.1897 7.74988 56.245 7.68152C56.4663 7.43738 56.6893 7.21114 56.9139 7.00281C57.1385 6.79447 57.3632 6.6252 57.5878 6.495C57.7245 6.41361 57.8368 6.3599 57.9247 6.33386C58.0126 6.30782 58.076 6.2948 58.1151 6.2948C58.177 6.2948 58.2404 6.31433 58.3055 6.35339C58.3706 6.39246 58.4292 6.44128 58.4813 6.49988C58.5367 6.55522 58.5806 6.61381 58.6132 6.67566C58.649 6.73751 58.6669 6.79285 58.6669 6.84167C58.6669 6.91654 58.6197 6.98979 58.5253 7.0614C58.4341 7.13302 58.3007 7.22091 58.1249 7.32507C57.8807 7.47481 57.648 7.65059 57.4266 7.85242C57.2085 8.05424 56.9986 8.26746 56.7968 8.49207C56.7642 8.52462 56.7414 8.55554 56.7284 8.58484C56.7186 8.61414 56.7137 8.64343 56.7137 8.67273C56.7137 8.69877 56.7186 8.72644 56.7284 8.75574C56.7414 8.78503 56.7609 8.81433 56.787 8.84363C56.9074 8.9836 57.0279 9.11218 57.1483 9.22937C57.2688 9.34656 57.3843 9.44747 57.495 9.5321C57.6089 9.61348 57.718 9.67859 57.8221 9.72742C57.9296 9.77299 58.0305 9.79578 58.1249 9.79578C58.1997 9.79578 58.2795 9.78601 58.3641 9.76648C58.4488 9.74369 58.5253 9.7323 58.5936 9.7323C58.688 9.7323 58.7531 9.7616 58.7889 9.82019C58.828 9.87553 58.8475 9.9504 58.8475 10.0448C58.8475 10.1522 58.828 10.2483 58.7889 10.3329C58.7499 10.4175 58.6962 10.4891 58.6278 10.5477C58.5627 10.6031 58.4846 10.647 58.3934 10.6796C58.3023 10.7089 58.2063 10.7235 58.1053 10.7235C57.9491 10.7235 57.7896 10.6958 57.6268 10.6405C57.4641 10.5852 57.3013 10.5087 57.1385 10.411C56.9758 10.3134 56.8147 10.1994 56.6552 10.0692C56.4956 9.93575 56.3394 9.79089 56.1864 9.63464C56.1278 9.57279 56.0676 9.54187 56.0057 9.54187C55.9406 9.54187 55.8804 9.57605 55.8251 9.64441C55.6721 9.83321 55.524 10.0106 55.3807 10.1766C55.2408 10.3427 55.104 10.4875 54.9706 10.6112C54.8404 10.7349 54.7134 10.8326 54.5897 10.9042C54.4693 10.9758 54.3505 11.0116 54.2333 11.0116C54.1486 11.0116 54.0738 10.9953 54.0087 10.9628C53.9468 10.927 53.8947 10.8846 53.8524 10.8358C53.8101 10.787 53.7775 10.7365 53.7548 10.6844C53.7352 10.6324 53.7255 10.5884 53.7255 10.5526C53.7255 10.507 53.7417 10.4647 53.7743 10.4257C53.8068 10.3833 53.854 10.3378 53.9159 10.2889C53.9777 10.2369 54.0494 10.175 54.1307 10.1034C54.2154 10.0318 54.3098 9.94226 54.4139 9.83484C54.5279 9.72091 54.6532 9.58093 54.7899 9.41492C54.9266 9.24565 55.0747 9.06498 55.2343 8.87292C55.2505 8.85339 55.2635 8.83223 55.2733 8.80945C55.2831 8.78341 55.288 8.75736 55.288 8.73132C55.288 8.64018 55.2375 8.52462 55.1366 8.38464C54.9348 8.10795 54.759 7.84916 54.6093 7.60828C54.4595 7.36414 54.3423 7.16882 54.2577 7.02234Z" fill="#1E1E1E"/>
<path d="M38.9646 25.0977C39.857 25.4644 41.602 24.6559 43.2579 25.0977C46.6885 26.8463 42.9307 27.7582 45.4095 27.1284C46.0441 29.2248 44.7154 32.2144 45.4095 33.2391C46.5101 32.393 43.1885 35.9842 43.2579 35.2697C41.8103 35.4202 39.9561 35.3919 38.9646 35.2697C35.6827 33.3331 37.6261 33.963 36.8229 33.2391C36.8328 32.1016 36.8031 29.3282 36.8229 27.1284C34.8994 23.932 36.3073 26.1788 38.9646 25.0977Z" fill="white"/>
<path d="M38.9645 25.0978C40.4815 24.9849 42.0878 25.1072 43.2578 25.0978M38.9645 25.0978C40.4121 25.0319 41.8994 25.1448 43.2578 25.0978M38.9645 25.0978C36.8922 25.2106 36.0197 25.079 36.8228 27.1284M38.9645 25.0978C38.4588 24.6277 37.0707 25.5584 36.8228 27.1284M43.2578 25.0978C45.4491 25.6994 45.0921 25.737 45.4094 27.1284M43.2578 25.0978C43.6941 25.4832 45.4491 26.3199 45.4094 27.1284M45.4094 27.1284C45.4094 28.454 45.1219 29.8735 45.4094 33.2391M45.4094 27.1284C45.3499 29.2813 45.5085 31.1709 45.4094 33.2391M45.4094 33.2391C45.7862 34.198 44.0907 35.4108 43.2578 35.2698M45.4094 33.2391C46.3712 33.869 44.398 34.5083 43.2578 35.2698M43.2578 35.2698C41.7209 35.3638 40.2039 35.0817 38.9645 35.2698M43.2578 35.2698C42.4943 35.251 41.4433 35.3262 38.9645 35.2698M38.9645 35.2698C37.4574 36.2005 35.9106 35.1946 36.8228 33.2391M38.9645 35.2698C38.0523 35.0441 36.5155 34.0006 36.8228 33.2391M36.8228 33.2391C36.5155 31.1991 37.0608 29.7137 36.8228 27.1284M36.8228 33.2391C36.7733 31.8196 36.8724 30.7102 36.8228 27.1284" stroke="#1E1E1E" stroke-linecap="round"/>
<path d="M14.1683 61.3984C15.4176 59.1797 20.9304 50.8974 22.2591 48.7727M13.4841 62.2821C14.6541 60.1199 20.633 51.546 22.031 49.3462" stroke="#1E1E1E" stroke-linecap="round"/>
<path d="M22.7529 48.7313C29.1482 48.6372 54.2932 48.139 60.51 48.1484M22.3563 48.3458C28.7021 48.3176 53.6784 48.7689 60.1431 48.7031" stroke="#1E1E1E" stroke-linecap="round"/>
<path d="M60.5243 47.905C62.081 50.2553 68.2581 59.6 69.6959 61.9503M61.4266 48.8075C62.9932 51.0356 68.2978 59.083 69.5273 61.1324" stroke="#1E1E1E" stroke-linecap="round"/>
<path d="M13.6989 63.4739C22.9696 63.5586 60.9944 62.1014 70.2354 62.0732M12.2314 63.0415C21.284 63.3235 59.517 63.4175 69.4025 63.1355" stroke="#1E1E1E" stroke-linecap="round"/>
<path d="M40.6089 48.3756C40.6783 46.3449 40.589 37.9779 40.599 35.9191M39.9545 48.0935C39.9941 46.1475 40.1726 38.4856 40.2519 36.5771" stroke="#1E1E1E" stroke-linecap="round"/>
<path d="M24.1832 63.8828C24.2031 65.3024 23.8957 70.4542 23.8858 71.8455M23.9056 63.7136C23.8957 65.1895 23.5982 70.8208 23.6082 72.137" stroke="#1E1E1E" stroke-linecap="round"/>
<path d="M40.3511 63.4951C40.4106 64.9335 40.3808 70.3485 40.4106 71.7869M39.9446 63.2319C39.9842 64.7267 40.1131 70.7434 40.1825 72.1441" stroke="#1E1E1E" stroke-linecap="round"/>
<path d="M58.2685 63.334C58.2289 64.6877 58.3776 70.131 58.3677 71.4565M58.8337 63.1741C58.7246 64.5561 58.2189 70.4506 58.0603 71.8514" stroke="#1E1E1E" stroke-linecap="round"/>
<path d="M21.6398 69.4221C22.0464 69.3751 23.6824 69.2905 25.9331 69.4221C27.4402 67.6453 27.7674 70.3434 28.0847 71.4527C28.0451 73.4834 27.8071 75.4952 28.0847 77.5634C29.8199 81.1641 27.7674 79.077 25.9331 79.5941C24.6342 79.5095 24.1087 79.7445 21.6398 79.5941C22.3537 79.0864 17.6936 79.5095 19.4982 77.5634C20.0832 76.4917 19.9939 75.5704 19.4982 71.4527C19.6667 68.2375 19.161 70.1084 21.6398 69.4221Z" fill="white"/>
<path d="M21.64 69.4221C22.7703 69.4033 24.0791 69.3093 25.9333 69.4221M21.64 69.4221C23.2859 69.3845 24.674 69.4409 25.9333 69.4221M21.64 69.4221C19.3793 69.1494 20.3808 69.5349 19.4983 71.4527M21.64 69.4221C20.0635 68.8298 20.5394 70.2024 19.4983 71.4527M25.9333 69.4221C27.8568 68.6982 28.4914 69.9861 28.0849 71.4527M25.9333 69.4221C26.9744 69.1965 27.3016 70.287 28.0849 71.4527M28.0849 71.4527C27.8568 73.2483 27.9758 74.6961 28.0849 77.5635M28.0849 71.4527C28.0254 73.6338 27.9857 76.1439 28.0849 77.5635M28.0849 77.5635C27.371 78.6728 26.4885 78.7198 25.9333 79.5941M28.0849 77.5635C28.7888 78.748 27.8072 78.7104 25.9333 79.5941M25.9333 79.5941C24.5352 79.6223 23.1967 79.7633 21.64 79.5941M25.9333 79.5941C24.9517 79.4813 24.1287 79.5659 21.64 79.5941M21.64 79.5941C20.7278 79.6223 18.5464 78.9454 19.4983 77.5635M21.64 79.5941C21.2533 79.7163 19.0422 78.889 19.4983 77.5635M19.4983 77.5635C19.766 75.8713 19.2306 73.8594 19.4983 71.4527M19.4983 77.5635C19.5677 76.2943 19.3892 74.8465 19.4983 71.4527" stroke="#1E1E1E" stroke-linecap="round"/>
<path d="M37.9123 70.1746C39.5781 69.7892 41.1744 69.7045 42.2056 70.1746C44.5555 71.5472 41.9676 71.2369 44.3572 72.2052C44.8331 74.7341 44.6051 77.0468 44.3572 78.316C42.3543 80.3184 42.979 79.9424 42.2056 80.3466C40.3614 80.356 39.1616 80.8637 37.9123 80.3466C37.0001 80.6663 38.0016 81.9354 35.7706 78.316C35.1658 76.2383 35.0567 73.2018 35.7706 72.2052C36.7522 68.5012 34.9774 69.2439 37.9123 70.1746Z" fill="white"/>
<path d="M37.9124 70.1746C39.3996 70.2874 40.6886 70.184 42.2056 70.1746M37.9124 70.1746C39.3996 70.1088 40.7878 70.2498 42.2056 70.1746M37.9124 70.1746C36.6432 70.6259 36.6432 71.6036 35.7707 72.2052M37.9124 70.1746C36.6829 70.9361 36.2169 69.8738 35.7707 72.2052M42.2056 70.1746C43.3855 70.6541 44.4266 71.5472 44.3572 72.2052M42.2056 70.1746C43.7425 71.1147 43.2963 70.4378 44.3572 72.2052M44.3572 72.2052C44.5952 73.747 44.615 74.8 44.3572 78.316M44.3572 72.2052C44.2085 73.8128 44.5258 75.3264 44.3572 78.316M44.3572 78.316C45.0612 80.4782 44.268 79.7073 42.2056 80.3466M44.3572 78.316C45.0414 80.6569 43.3161 80.4406 42.2056 80.3466M42.2056 80.3466C41.105 80.5252 39.6773 80.4124 37.9124 80.3466M42.2056 80.3466C40.6688 80.2996 39.0823 80.356 37.9124 80.3466M37.9124 80.3466C35.85 80.5722 35.85 78.7484 35.7707 78.316M37.9124 80.3466C36.8514 80.5816 35.3245 79.0399 35.7707 78.316M35.7707 78.316C35.8996 76.1631 36.0185 74.5837 35.7707 72.2052M35.7707 78.316C35.7806 77.0938 35.9392 75.7401 35.7707 72.2052" stroke="#1E1E1E" stroke-linecap="round"/>
<path d="M56.2682 70.1747C57.6761 69.7328 59.7286 70.5601 60.5615 70.1747C62.366 67.9842 63.4864 72.572 62.7131 72.2053C62.138 74.3958 62.6139 75.6179 62.7131 78.316C61.5232 77.4323 60.3433 78.8143 60.5615 80.3467C59.6195 80.6287 57.696 79.886 56.2682 80.3467C56.7044 79.6416 53.6902 81.2586 54.1265 78.316C54.1761 76.6614 53.9976 74.6308 54.1265 72.2053C52.4409 70.0054 54.9495 70.908 56.2682 70.1747Z" fill="white"/>
<path d="M56.2682 70.1746C57.2895 70.3062 58.628 70.0336 60.5615 70.1746M56.2682 70.1746C57.4481 70.1934 58.4595 70.2216 60.5615 70.1746M56.2682 70.1746C54.4636 69.4883 53.1747 70.3062 54.1265 72.2053M56.2682 70.1746C54.2455 70.7575 52.9962 71.754 54.1265 72.2053M60.5615 70.1746C62.2074 69.808 62.1281 71.0113 62.7131 72.2053M60.5615 70.1746C62.1876 70.7763 63.1791 70.0806 62.7131 72.2053M62.7131 72.2053C62.485 74.6778 62.6933 76.9246 62.7131 78.316M62.7131 72.2053C62.8321 74.6214 62.7726 77.0374 62.7131 78.316M62.7131 78.316C61.8108 79.8296 62.6933 80.9859 60.5615 80.3466M62.7131 78.316C62.138 78.8989 62.1578 79.4817 60.5615 80.3466M60.5615 80.3466C59.3221 80.168 57.8645 80.4971 56.2682 80.3466M60.5615 80.3466C59.0643 80.3842 57.5373 80.2808 56.2682 80.3466M56.2682 80.3466C55.1081 80.1116 53.958 80.1868 54.1265 78.316M56.2682 80.3466C54.0274 80.8355 53.4721 79.6322 54.1265 78.316M54.1265 78.316C54.1364 76.7366 54.3942 74.941 54.1265 72.2053M54.1265 78.316C54.1959 75.8247 54.0769 73.6342 54.1265 72.2053" stroke="#1E1E1E" stroke-linecap="round"/>
</svg>
