<svg width="82" height="119" viewBox="0 0 82 119" fill="none" xmlns="http://www.w3.org/2000/svg">
<path d="M21.6148 2.07583C31.9887 0.278202 51.2515 2.00054 60.8199 2.07583C77.2782 -0.23944 77.9964 10.8757 80.4224 21.0874C78.8309 37.4355 82.5476 55.8447 80.4224 97.8395C78.5301 112.07 70.8929 118.828 60.8199 116.851C45.3999 117.717 30.8242 119.533 21.6148 116.851C5.79698 113.501 2.95364 109.708 2.01233 97.8395C-2.06344 77.0209 1.56594 50.9883 2.01233 21.0874C4.4675 7.51577 8.77617 -0.785317 21.6148 2.07583Z" fill="white"/>
<path d="M21.6149 2.07582C32.2798 2.28287 46.0501 3.46874 60.8199 2.07582M21.6149 2.07582C34.9194 1.54876 49.6212 2.12288 60.8199 2.07582M21.6149 2.07582C6.76743 0.758184 1.96384 7.49694 2.01236 21.0874M21.6149 2.07582C6.35985 2.08523 2.95367 8.73928 2.01236 21.0874M60.8199 2.07582C73.2801 3.81698 79.6267 7.224 80.4224 21.0874M60.8199 2.07582C74.6193 0.522893 80.2283 9.49221 80.4224 21.0874M80.4224 21.0874C81.8392 39.4025 79.1609 58.1223 80.4224 97.8395M80.4224 21.0874C79.8499 36.8331 80.7233 54.5741 80.4224 97.8395M80.4224 97.8395C80.9465 112.277 74.4931 115.261 60.8199 116.851M80.4224 97.8395C81.7228 112.39 75.7547 115.533 60.8199 116.851M60.8199 116.851C44.7982 115.458 32.0372 116.126 21.6149 116.851M60.8199 116.851C49.7377 115.863 36.7632 117.341 21.6149 116.851M21.6149 116.851C9.05762 118.263 1.76975 111.872 2.01236 97.8395M21.6149 116.851C7.3982 115.948 3.90468 111.289 2.01236 97.8395M2.01236 97.8395C1.34277 77.4256 1.69212 59.6187 2.01236 21.0874M2.01236 97.8395C2.84692 76.5409 1.98325 55.1388 2.01236 21.0874" stroke="#1E1E1E" stroke-width="2" stroke-linecap="round"/>
<path d="M10.5668 85.108C21.2318 85.108 63.9109 85.108 74.5758 85.108" stroke="#1E1E1E" stroke-width="2" stroke-linecap="round"/>
<path d="M9.8573 99.7874C9.84759 98.9403 9.82819 95.5427 9.81848 94.6957" stroke="#1E1E1E" stroke-linecap="round"/>
<path d="M9.78735 94.8865C10.03 94.5477 11.0101 93.2113 11.2527 92.8724" stroke="#1E1E1E" stroke-linecap="round"/>
<path d="M12.7014 99.8478C12.7111 99.0008 12.7305 95.6032 12.7402 94.7561" stroke="#1E1E1E" stroke-linecap="round"/>
<path d="M12.7712 94.947C12.5286 94.6081 11.5485 93.2717 11.3058 92.9329" stroke="#1E1E1E" stroke-linecap="round"/>
<path d="M7.71039 100.305C8.85549 100.287 13.4165 100.211 14.5519 100.193" stroke="#1E1E1E" stroke-linecap="round"/>
<path d="M11.4548 100.391C11.4645 100.983 11.5033 103.374 11.513 103.967" stroke="#1E1E1E" stroke-linecap="round"/>
<path d="M51.6411 95.7611C51.9905 95.4128 53.3879 94.0011 53.7372 93.6434" stroke="#1E1E1E" stroke-linecap="round"/>
<path d="M53.7328 93.6056C54.121 93.9162 55.6543 95.1585 56.0425 95.4691" stroke="#1E1E1E" stroke-linecap="round"/>
<path d="M56.1297 95.7188C55.4601 96.7164 52.7914 100.716 52.1218 101.723" stroke="#1E1E1E" stroke-linecap="round"/>
<path d="M51.7065 95.7611C51.3571 95.4128 49.9597 94.0011 49.6104 93.6434" stroke="#1E1E1E" stroke-linecap="round"/>
<path d="M49.6147 93.6056C49.2265 93.9162 47.6933 95.1585 47.3051 95.4691" stroke="#1E1E1E" stroke-linecap="round"/>
<path d="M47.218 95.7188C47.8876 96.7164 50.5563 100.716 51.2259 101.723" stroke="#1E1E1E" stroke-linecap="round"/>
<path d="M22.9031 1.9693C32.6558 1.9693 42.4182 1.9693 58.2167 1.9693C60.6233 1.9693 61.8364 3.13635 61.8364 5.47985C61.8364 6.98572 61.8364 8.501 61.8364 12.4915C61.8364 14.8256 60.6233 15.9927 58.2167 15.9927C46.1641 15.9927 34.1211 15.9927 22.9031 15.9927C20.4867 15.9927 19.2834 14.8256 19.2834 12.4915C19.2834 10.581 19.2834 8.67041 19.2834 5.47985C19.2834 3.13635 20.4867 1.9693 22.9031 1.9693Z" fill="white"/>
<path d="M22.9031 1.9693C30.5694 1.9693 38.2357 1.9693 58.2167 1.9693M22.9031 1.9693C30.5112 1.9693 38.129 1.9693 58.2167 1.9693M22.9031 1.9693C20.4867 1.9693 19.2834 3.13635 19.2834 5.47985M58.2167 1.9693C60.6233 1.9693 61.8364 3.13635 61.8364 5.47985M61.8364 5.47985C61.8364 7.95512 61.8364 10.4304 61.8364 12.4915M61.8364 5.47985C61.8364 8.08688 61.8364 10.6939 61.8364 12.4915M61.8364 12.4915C61.8364 14.8256 60.6233 15.9927 58.2167 15.9927M58.2167 15.9927C44.0971 15.9927 29.9677 15.9927 22.9031 15.9927M58.2167 15.9927C50.104 15.9927 41.9815 15.9927 22.9031 15.9927M22.9031 15.9927C20.4867 15.9927 19.2834 14.8256 19.2834 12.4915M19.2834 12.4915C19.2834 9.8751 19.2834 7.25866 19.2834 5.47985M19.2834 12.4915C19.2834 10.5057 19.2834 8.52923 19.2834 5.47985" stroke="#1E1E1E" stroke-width="2" stroke-linecap="round"/>
<path d="M31.45 8.04303C31.45 8.17975 31.4565 8.32135 31.4695 8.46783C31.4825 8.61432 31.4972 8.7608 31.5134 8.90729C31.533 9.05377 31.5492 9.20188 31.5623 9.35162C31.5753 9.49811 31.5818 9.64296 31.5818 9.78619C31.5818 9.9457 31.5264 10.0759 31.4158 10.1768C31.3051 10.2745 31.157 10.3233 30.9714 10.3233C30.8803 10.3233 30.794 10.2956 30.7126 10.2403C30.6345 10.185 30.5906 10.0971 30.5808 9.97662C30.5645 9.82363 30.5483 9.65273 30.532 9.46393C30.519 9.27187 30.5059 9.07493 30.4929 8.87311C30.4832 8.66803 30.4734 8.46295 30.4636 8.25787C30.4539 8.04954 30.4457 7.85097 30.4392 7.66217C30.4327 7.47011 30.4278 7.29433 30.4246 7.13483C30.4213 6.97207 30.4197 6.83535 30.4197 6.72467C30.4197 6.62701 30.4262 6.53424 30.4392 6.44635C30.4522 6.35846 30.4799 6.28196 30.5222 6.21686C30.5645 6.15175 30.6215 6.09967 30.6931 6.06061C30.768 6.02155 30.8673 6.00201 30.991 6.00201C31.0854 6.00201 31.1912 6.03619 31.3083 6.10455C31.4255 6.16966 31.5509 6.25918 31.6843 6.37311C31.821 6.48704 31.9659 6.61888 32.1189 6.76862C32.2719 6.9151 32.4298 7.06972 32.5925 7.23248C32.7553 7.39524 32.9213 7.56126 33.0906 7.73053C33.2631 7.89655 33.4373 8.05442 33.613 8.20416C33.6912 8.27252 33.7791 8.35227 33.8767 8.44342C33.9776 8.53457 34.0802 8.62083 34.1843 8.70221C34.2917 8.78359 34.3975 8.85358 34.5017 8.91217C34.6091 8.96751 34.7117 8.99518 34.8093 8.99518C34.9005 8.99518 34.9591 8.95612 34.9851 8.87799C35.0144 8.79661 35.0291 8.66803 35.0291 8.49225C35.0291 8.36204 35.0177 8.20091 34.9949 8.00885C34.9753 7.81679 34.946 7.61171 34.907 7.39362C34.8679 7.17552 34.8191 6.95742 34.7605 6.73932C34.7019 6.51796 34.6352 6.31614 34.5603 6.13385C34.544 6.09479 34.5278 6.05735 34.5115 6.02155C34.4985 5.98248 34.4919 5.94017 34.4919 5.89459C34.4919 5.81972 34.5164 5.75299 34.5652 5.6944C34.614 5.6358 34.6726 5.58698 34.741 5.54791C34.8093 5.50885 34.8809 5.47955 34.9558 5.46002C35.0307 5.43724 35.0925 5.42584 35.1414 5.42584C35.2488 5.42584 35.3448 5.48444 35.4294 5.60162C35.5141 5.71556 35.5873 5.8653 35.6492 6.05084C35.7143 6.23313 35.768 6.43984 35.8103 6.67096C35.8526 6.89882 35.8868 7.12832 35.9128 7.35944C35.9421 7.59056 35.9617 7.81191 35.9714 8.0235C35.9845 8.23183 35.991 8.40599 35.991 8.54596C35.991 8.80963 35.9796 9.04238 35.9568 9.2442C35.9373 9.44277 35.8933 9.61041 35.825 9.74713C35.7598 9.88385 35.6638 9.98802 35.5369 10.0596C35.4099 10.128 35.2406 10.1622 35.0291 10.1622C34.8598 10.1622 34.6824 10.128 34.4968 10.0596C34.3113 9.98802 34.1225 9.89362 33.9304 9.77643C33.7416 9.65599 33.5496 9.51927 33.3542 9.36627C33.1622 9.21328 32.9734 9.05377 32.7878 8.88776C32.6023 8.72174 32.4216 8.55573 32.2458 8.38971C32.0733 8.22369 31.9122 8.06907 31.7625 7.92584C31.7006 7.86399 31.6436 7.83307 31.5916 7.83307C31.546 7.83307 31.5102 7.8526 31.4841 7.89166C31.4613 7.92747 31.45 7.97793 31.45 8.04303ZM39.9363 6.21686C40.1153 6.21686 40.2878 6.24453 40.4539 6.29987C40.6199 6.3552 40.7664 6.4317 40.8933 6.52936C41.0203 6.62701 41.1212 6.7442 41.196 6.88092C41.2742 7.01764 41.3132 7.16901 41.3132 7.33502C41.3132 7.40338 41.297 7.47011 41.2644 7.53522C41.2351 7.59707 41.1944 7.6524 41.1423 7.70123C41.0903 7.74681 41.03 7.78424 40.9617 7.81354C40.8966 7.83958 40.8282 7.8526 40.7566 7.8526C40.7501 7.8526 40.7436 7.85423 40.7371 7.85748C40.7338 7.85748 40.7289 7.85748 40.7224 7.85748C40.7159 7.86074 40.7094 7.86237 40.7029 7.86237L40.7224 8.25299C40.7354 8.71849 40.8005 9.05865 40.9177 9.2735C41.0382 9.48834 41.1944 9.59576 41.3865 9.59576C41.4548 9.59576 41.5151 9.58925 41.5671 9.57623C41.6225 9.56321 41.6729 9.54856 41.7185 9.53229C41.7673 9.51276 41.8129 9.49648 41.8552 9.48346C41.8975 9.47044 41.9399 9.46393 41.9822 9.46393C42.057 9.46393 42.1222 9.49648 42.1775 9.56158C42.2361 9.62669 42.2654 9.70481 42.2654 9.79596C42.2654 9.88711 42.2296 9.97825 42.158 10.0694C42.0896 10.1605 41.9985 10.2436 41.8845 10.3184C41.7706 10.39 41.642 10.4486 41.4988 10.4942C41.3556 10.5398 41.2107 10.5626 41.0642 10.5626C40.8103 10.5626 40.5873 10.4584 40.3953 10.2501C40.2032 10.0385 40.0665 9.72923 39.9851 9.32233C39.9656 9.25722 39.9395 9.22467 39.907 9.22467C39.8679 9.22467 39.8337 9.2442 39.8044 9.28326C39.4822 9.69017 39.1388 9.99615 38.7742 10.2012C38.4096 10.4031 38.0499 10.504 37.6951 10.504C37.5291 10.504 37.3793 10.4796 37.2458 10.4307C37.1124 10.3819 36.9985 10.3135 36.9041 10.2256C36.8129 10.1345 36.7413 10.0255 36.6892 9.8985C36.6404 9.76829 36.616 9.62343 36.616 9.46393C36.616 9.23932 36.6648 9.00332 36.7625 8.75592C36.8634 8.50852 36.9985 8.26438 37.1677 8.0235C37.337 7.78261 37.5323 7.55312 37.7537 7.33502C37.9783 7.11692 38.2126 6.92487 38.4568 6.75885C38.7042 6.59283 38.9548 6.461 39.2087 6.36334C39.4626 6.26569 39.7052 6.21686 39.9363 6.21686ZM39.7751 7.90631C39.8337 7.79563 39.8875 7.71588 39.9363 7.66705C39.9851 7.61497 40.0551 7.58079 40.1462 7.56451C40.2179 7.55475 40.2537 7.53196 40.2537 7.49615C40.2537 7.47011 40.2439 7.44244 40.2244 7.41315C40.1625 7.32851 40.0974 7.25527 40.0291 7.19342C39.9607 7.12832 39.8695 7.09576 39.7556 7.09576C39.6319 7.09576 39.4936 7.13157 39.3406 7.20319C39.1876 7.2748 39.0313 7.37083 38.8718 7.49127C38.7156 7.60846 38.561 7.74355 38.408 7.89655C38.2582 8.04628 38.1248 8.20091 38.0076 8.36041C37.8904 8.51992 37.796 8.6778 37.7244 8.83405C37.6528 8.9903 37.6169 9.13027 37.6169 9.25397C37.6169 9.36464 37.6462 9.45091 37.7048 9.51276C37.7667 9.57461 37.8497 9.60553 37.9539 9.60553C38.2208 9.60553 38.5121 9.46393 38.8279 9.18073C39.1436 8.89752 39.4594 8.47272 39.7751 7.90631ZM42.6218 9.35651C42.56 8.59479 42.4884 7.83795 42.407 7.086C42.3289 6.33405 42.2133 5.58372 42.0603 4.83502C42.0538 4.80898 42.0505 4.78619 42.0505 4.76666C42.0505 4.74388 42.0505 4.72272 42.0505 4.70319C42.0505 4.62832 42.0652 4.56321 42.0945 4.50787C42.127 4.45253 42.1694 4.40696 42.2214 4.37115C42.2735 4.33209 42.3321 4.3028 42.3972 4.28326C42.4656 4.26373 42.5372 4.25397 42.6121 4.25397C42.8106 4.25397 42.9473 4.34674 43.0222 4.53229C43.0548 4.62669 43.0873 4.76178 43.1199 4.93756C43.1557 5.11334 43.1915 5.31679 43.2273 5.54791C43.2664 5.77903 43.3038 6.03294 43.3396 6.30963C43.3754 6.58307 43.4096 6.86464 43.4421 7.15436C43.4519 7.23574 43.4779 7.27643 43.5203 7.27643C43.5561 7.27643 43.5935 7.25201 43.6326 7.20319C44.1078 6.57819 44.671 6.26569 45.322 6.26569C45.5662 6.26569 45.794 6.3194 46.0056 6.42682C46.2172 6.53424 46.4011 6.68073 46.5574 6.86627C46.7136 7.05182 46.8357 7.27155 46.9236 7.52545C47.0147 7.77936 47.0603 8.0528 47.0603 8.34576C47.0603 8.6192 47.0164 8.87311 46.9285 9.10748C46.8438 9.34186 46.725 9.54368 46.572 9.71295C46.419 9.88222 46.2367 10.0157 46.0251 10.1133C45.8168 10.2077 45.5889 10.2549 45.3416 10.2549C45.0356 10.2549 44.7361 10.1964 44.4431 10.0792C44.1501 9.95872 43.8735 9.79759 43.613 9.59576C43.5837 9.56972 43.5528 9.5567 43.5203 9.5567C43.4779 9.5567 43.4389 9.57949 43.4031 9.62506C43.351 9.68365 43.2957 9.72272 43.2371 9.74225C43.1785 9.75852 43.1069 9.76666 43.0222 9.76666C42.7651 9.76666 42.6316 9.62994 42.6218 9.35651ZM45.1511 7.17389C45.0209 7.17389 44.8907 7.20481 44.7605 7.26666C44.6335 7.32526 44.5131 7.40989 44.3992 7.52057C44.2852 7.63125 44.1794 7.76471 44.0818 7.92096C43.9874 8.07395 43.9076 8.24485 43.8425 8.43365C43.836 8.44342 43.8311 8.45807 43.8279 8.4776C43.8246 8.49713 43.823 8.51341 43.823 8.52643C43.823 8.58177 43.8425 8.62408 43.8816 8.65338C43.9988 8.75429 44.1192 8.84869 44.2429 8.93658C44.3699 9.02448 44.4952 9.10097 44.6189 9.16608C44.7426 9.23118 44.8647 9.28326 44.9851 9.32233C45.1056 9.35813 45.2179 9.37604 45.322 9.37604C45.5564 9.37604 45.7338 9.30768 45.8542 9.17096C45.9779 9.03424 46.0398 8.83567 46.0398 8.57526C46.0398 8.37343 46.017 8.18789 45.9714 8.01862C45.9259 7.84609 45.864 7.69798 45.7859 7.57428C45.7078 7.44733 45.6134 7.34967 45.5027 7.28131C45.3953 7.2097 45.2781 7.17389 45.1511 7.17389ZM47.446 4.92291C47.446 4.75364 47.4949 4.6332 47.5925 4.56158C47.6902 4.48997 47.8513 4.45416 48.0759 4.45416C48.1541 4.45416 48.2224 4.4623 48.281 4.47858C48.3396 4.49485 48.3884 4.52252 48.4275 4.56158C48.4666 4.59739 48.4975 4.64785 48.5203 4.71295C48.5463 4.7748 48.5675 4.85455 48.5837 4.95221C48.6261 5.24192 48.6684 5.54628 48.7107 5.8653C48.7563 6.18105 48.7986 6.49681 48.8376 6.81256C48.88 7.12506 48.919 7.43105 48.9548 7.73053C48.9906 8.02675 49.0216 8.30345 49.0476 8.56061C49.0769 8.81451 49.0981 9.04075 49.1111 9.23932C49.1274 9.43463 49.1355 9.58925 49.1355 9.70319C49.1355 9.82037 49.1241 9.91966 49.1013 10.001C49.0818 10.0824 49.046 10.1475 48.9939 10.1964C48.9451 10.2452 48.88 10.281 48.7986 10.3038C48.7205 10.3233 48.6228 10.3331 48.5056 10.3331C48.3917 10.3331 48.3005 10.3038 48.2322 10.2452C48.1671 10.1866 48.1345 10.0971 48.1345 9.97662C48.1345 9.85293 48.1248 9.68854 48.1052 9.48346C48.0857 9.27513 48.0597 9.04401 48.0271 8.7901C47.9945 8.53619 47.9571 8.26601 47.9148 7.97955C47.8757 7.69309 47.8334 7.40989 47.7878 7.12994C47.7455 6.85 47.7032 6.58144 47.6609 6.32428C47.6218 6.06386 47.586 5.83437 47.5535 5.6358C47.5209 5.43398 47.4949 5.26959 47.4753 5.14264C47.4558 5.01243 47.446 4.93919 47.446 4.92291ZM52.9832 6.21686C53.1622 6.21686 53.3347 6.24453 53.5007 6.29987C53.6667 6.3552 53.8132 6.4317 53.9402 6.52936C54.0671 6.62701 54.1681 6.7442 54.2429 6.88092C54.321 7.01764 54.3601 7.16901 54.3601 7.33502C54.3601 7.40338 54.3438 7.47011 54.3113 7.53522C54.282 7.59707 54.2413 7.6524 54.1892 7.70123C54.1371 7.74681 54.0769 7.78424 54.0085 7.81354C53.9434 7.83958 53.8751 7.8526 53.8035 7.8526C53.797 7.8526 53.7904 7.85423 53.7839 7.85748C53.7807 7.85748 53.7758 7.85748 53.7693 7.85748C53.7628 7.86074 53.7563 7.86237 53.7498 7.86237L53.7693 8.25299C53.7823 8.71849 53.8474 9.05865 53.9646 9.2735C54.085 9.48834 54.2413 9.59576 54.4333 9.59576C54.5017 9.59576 54.5619 9.58925 54.614 9.57623C54.6694 9.56321 54.7198 9.54856 54.7654 9.53229C54.8142 9.51276 54.8598 9.49648 54.9021 9.48346C54.9444 9.47044 54.9867 9.46393 55.0291 9.46393C55.1039 9.46393 55.169 9.49648 55.2244 9.56158C55.283 9.62669 55.3123 9.70481 55.3123 9.79596C55.3123 9.88711 55.2764 9.97825 55.2048 10.0694C55.1365 10.1605 55.0453 10.2436 54.9314 10.3184C54.8175 10.39 54.6889 10.4486 54.5457 10.4942C54.4024 10.5398 54.2576 10.5626 54.1111 10.5626C53.8572 10.5626 53.6342 10.4584 53.4421 10.2501C53.2501 10.0385 53.1134 9.72923 53.032 9.32233C53.0125 9.25722 52.9864 9.22467 52.9539 9.22467C52.9148 9.22467 52.8806 9.2442 52.8513 9.28326C52.5291 9.69017 52.1856 9.99615 51.821 10.2012C51.4565 10.4031 51.0968 10.504 50.7419 10.504C50.5759 10.504 50.4262 10.4796 50.2927 10.4307C50.1593 10.3819 50.0453 10.3135 49.9509 10.2256C49.8598 10.1345 49.7882 10.0255 49.7361 9.8985C49.6873 9.76829 49.6628 9.62343 49.6628 9.46393C49.6628 9.23932 49.7117 9.00332 49.8093 8.75592C49.9102 8.50852 50.0453 8.26438 50.2146 8.0235C50.3839 7.78261 50.5792 7.55312 50.8005 7.33502C51.0251 7.11692 51.2595 6.92487 51.5037 6.75885C51.7511 6.59283 52.0017 6.461 52.2556 6.36334C52.5095 6.26569 52.752 6.21686 52.9832 6.21686ZM52.822 7.90631C52.8806 7.79563 52.9343 7.71588 52.9832 7.66705C53.032 7.61497 53.102 7.58079 53.1931 7.56451C53.2647 7.55475 53.3005 7.53196 53.3005 7.49615C53.3005 7.47011 53.2908 7.44244 53.2712 7.41315C53.2094 7.32851 53.1443 7.25527 53.0759 7.19342C53.0076 7.12832 52.9164 7.09576 52.8025 7.09576C52.6788 7.09576 52.5404 7.13157 52.3875 7.20319C52.2345 7.2748 52.0782 7.37083 51.9187 7.49127C51.7625 7.60846 51.6078 7.74355 51.4548 7.89655C51.3051 8.04628 51.1716 8.20091 51.0544 8.36041C50.9373 8.51992 50.8429 8.6778 50.7712 8.83405C50.6996 8.9903 50.6638 9.13027 50.6638 9.25397C50.6638 9.36464 50.6931 9.45091 50.7517 9.51276C50.8136 9.57461 50.8966 9.60553 51.0007 9.60553C51.2677 9.60553 51.559 9.46393 51.8748 9.18073C52.1905 8.89752 52.5063 8.47272 52.822 7.90631Z" fill="#1E1E1E"/>
<path fill-rule="evenodd" clip-rule="evenodd" d="M24.069 35.1931L61.9251 34.139L40.8476 62.4116L24.0884 35.0519" fill="white"/>
<path d="M24.0302 34.7978C33.7926 34.4872 42.3808 35.6636 62.6917 34.5436M24.0302 34.7978C32.5699 34.7225 41.6142 34.666 62.6917 34.5436M24.0302 34.7978C33.7344 51.1364 37.7616 56.0493 41.7501 63.2775M24.0302 34.7978C34.5689 51.8046 37.8587 56.9716 41.7501 63.2775M62.6917 34.5436C54.8993 45.8471 46.5051 55.3811 41.7501 63.2775M62.6917 34.5436C55.8503 43.88 49.6687 52.8211 41.7501 63.2775" stroke="#1E1E1E" stroke-width="2" stroke-linecap="round"/>
<path d="M37.0507 56.3807C35.9638 57.8771 31.8298 61.6888 30.7527 65.2559C29.6755 68.8229 30.6071 75.6746 30.578 77.7828M37.7882 56.1171C36.6431 57.6324 31.4902 61.9994 30.2578 65.67C29.0253 69.3499 30.2966 76.0887 30.3936 78.1781" stroke="#1E1E1E" stroke-width="2" stroke-linecap="round"/>
<path d="M48.6298 55.1642C49.8914 56.4159 54.2485 58.383 55.4422 61.8747C56.6358 65.3664 55.7236 73.7428 55.8012 76.1334M48.1737 54.9666C49.3964 56.3124 53.8507 58.8253 55.0928 62.4582C56.335 66.0911 55.4325 74.6369 55.6265 76.7734" stroke="#1E1E1E" stroke-width="2" stroke-linecap="round"/>
<path fill-rule="evenodd" clip-rule="evenodd" d="M34.554 40.5955L50.7115 41.4049L41.6769 53.2824L33.3313 40.8308" fill="white"/>
<path d="M34.2629 41.4425C37.8049 41.7531 42.3368 42.1955 51.1482 41.3484M34.2629 41.4425C39.639 41.7155 45.7041 40.9908 51.1482 41.3484M34.2629 41.4425C37.0092 44.4355 39.3188 48.6048 42.0068 52.3413M34.2629 41.4425C35.5632 43.3719 38.853 47.9931 42.0068 52.3413M51.1482 41.3484C47.8876 44.8966 44.1127 49.4425 42.0068 52.3413M51.1482 41.3484C48.0138 44.7554 45.1607 48.5201 42.0068 52.3413" stroke="#1E1E1E" stroke-width="2" stroke-linecap="round"/>
<path d="M37.962 45.7603C38.1561 45.2521 39.2138 43.0498 39.5244 42.5698M38.5248 45.4497C38.8062 44.998 39.9805 43.238 40.1648 42.8709" stroke="#1E1E1E" stroke-linecap="round"/>
<path d="M41.6464 45.7832C41.889 45.2562 43.3155 43.2421 43.6454 42.715M42.1607 45.5103C42.3451 45.0303 43.199 43.5621 43.4125 43.1197" stroke="#1E1E1E" stroke-linecap="round"/>
<path d="M45.2963 45.5149C45.5583 45.0443 47.1401 43.049 47.4894 42.6067M45.7718 46.1643C45.9756 45.7502 47.0721 43.6326 47.305 43.002" stroke="#1E1E1E" stroke-linecap="round"/>
<path d="M45.2358 45.3688C44.9059 44.9264 44.1296 43.2606 43.8481 42.7618M45.7405 45.9805C45.3523 45.4629 43.8772 42.8371 43.6249 42.2629" stroke="#1E1E1E" stroke-linecap="round"/>
<path d="M41.5379 45.5736C41.2468 45.0842 40.1114 42.8631 39.7329 42.3266M41.2856 45.3007C40.9459 44.8677 39.8008 43.0795 39.5776 42.6372" stroke="#1E1E1E" stroke-linecap="round"/>
<path d="M41.9532 48.0434C42.3414 47.7516 43.5835 46.5752 43.9426 46.227M41.5748 48.6552C41.9144 48.3069 43.2051 46.1799 43.6127 45.7846" stroke="#1E1E1E" stroke-linecap="round"/>
<path d="M38.3158 47.6325C38.539 47.3596 39.5968 45.8349 39.8199 45.5149M38.8786 47.4913C39.0533 47.3031 39.4997 46.3337 39.587 45.9478" stroke="#1E1E1E" stroke-linecap="round"/>
<path d="M45.5937 47.9864C45.39 47.61 44.371 46.33 44.1575 45.9912M45.2153 47.7041C44.963 47.3747 44.0217 45.9064 43.8373 45.5206" stroke="#1E1E1E" stroke-linecap="round"/>
<path d="M41.304 48.4787C41.0711 48.0834 40.2948 46.3235 40.0522 45.9093M41.8766 48.2999C41.5951 47.8105 40.1977 45.8811 39.8096 45.4105" stroke="#1E1E1E" stroke-linecap="round"/>
<path d="M31.4239 36.6378C31.8994 36.666 32.2584 36.6095 32.5204 36.7978C32.7921 36.9954 32.9183 37.4095 33.0056 37.7954C33.093 38.1907 33.3162 38.7742 33.0348 39.1601C32.7533 39.546 31.7926 40.026 31.3171 40.1201C30.8319 40.2236 30.5311 39.913 30.1623 39.7342C29.7838 39.5554 29.2695 39.3672 29.056 39.0377C28.8425 38.7083 28.7067 38.1342 28.8522 37.7483C28.9978 37.3625 29.483 36.9578 29.9294 36.7413C30.3758 36.5154 31.2783 36.4025 31.5403 36.4119C31.812 36.4119 31.55 36.6566 31.5306 36.7601M31.2977 36.2895C31.7053 36.3084 31.9576 37.0989 32.336 37.2966C32.7145 37.5036 33.4811 37.306 33.5782 37.5225C33.6655 37.7389 33.1512 38.2566 32.9086 38.6048C32.666 38.953 32.5495 39.3672 32.1129 39.593C31.6665 39.8189 30.7737 40.0166 30.2593 39.9695C29.7547 39.9319 29.2889 39.7813 29.0657 39.3483C28.8328 38.9248 28.8522 37.7954 28.8911 37.4189C28.9299 37.0425 28.9202 37.2119 29.2986 37.0801C29.6771 36.9484 30.8222 36.7789 31.1618 36.6378C31.5112 36.506 31.3753 36.2519 31.3753 36.2613" fill="white"/>
<path d="M31.0648 36.506C31.5209 36.5343 32.2099 36.7225 32.5204 36.9578C32.831 37.1837 32.8795 37.5696 32.928 37.8707C32.9668 38.1625 32.928 38.426 32.7824 38.7366C32.6369 39.0378 32.501 39.5178 32.0546 39.6872C31.6082 39.8472 30.6087 39.8472 30.0944 39.7154C29.5801 39.5931 29.124 39.2637 28.9687 38.9248C28.8134 38.5766 29.0463 38.0401 29.1822 37.6637C29.318 37.2778 29.5024 36.8354 29.8033 36.6284C30.0944 36.4213 30.7737 36.4402 30.9581 36.4213C31.1424 36.4025 30.8707 36.4402 30.9289 36.506M31.5209 36.0449C31.8314 36.0731 32.0158 36.6284 32.2293 36.939C32.4428 37.2496 32.7727 37.5037 32.7922 37.9272C32.8116 38.3507 32.5593 39.1507 32.3458 39.4801C32.1323 39.8095 31.9479 39.9319 31.5209 39.9036C31.0842 39.8754 30.2302 39.5742 29.7547 39.3389C29.2695 39.0942 28.7649 38.7554 28.629 38.4448C28.4932 38.1343 28.6679 37.7954 28.9202 37.4566C29.1628 37.1084 29.6577 36.5154 30.1235 36.3931C30.5796 36.2802 31.4336 36.7319 31.6762 36.7413C31.9285 36.7601 31.7538 36.4872 31.6276 36.4684" stroke="#1E1E1E" stroke-linecap="round"/>
<path d="M54.5832 36.4412C55.049 36.4506 55.9127 36.8553 56.2232 37.0717C56.5338 37.2882 56.4076 37.3823 56.4464 37.7494C56.4949 38.107 56.6308 38.8976 56.4755 39.2552C56.3203 39.6223 55.9903 39.8482 55.5148 39.9329C55.0393 40.0176 54.0883 39.8952 53.6225 39.7823C53.147 39.6788 52.8656 39.6411 52.7103 39.2929C52.555 38.9447 52.623 38.06 52.6812 37.6835C52.7491 37.2976 52.7588 37.2035 53.1082 36.987C53.4575 36.7706 54.5444 36.4694 54.7676 36.3659C55.0005 36.2623 54.525 36.3565 54.4765 36.3565M54.69 36.2529C55.1461 36.2247 55.8933 36.2812 56.1844 36.507C56.4852 36.7329 56.3785 37.1847 56.4852 37.5988C56.5823 38.0223 56.9607 38.6811 56.7958 39.0105C56.6405 39.3494 56.0291 39.5658 55.5342 39.6129C55.0393 39.6599 54.3018 39.3776 53.8069 39.3117C53.312 39.2458 52.8656 39.387 52.5744 39.227C52.2833 39.0764 52.0407 38.7094 52.0698 38.3988C52.1086 38.0976 52.4289 37.6835 52.7782 37.3729C53.1179 37.0623 53.8457 36.6764 54.1465 36.5353C54.4376 36.3847 54.5153 36.4317 54.5347 36.5165" fill="white"/>
<path d="M54.5832 36.5071C55.049 36.4412 55.8642 36.4788 56.1747 36.7235C56.4852 36.9588 56.3979 37.58 56.4464 37.947C56.5046 38.3141 56.7375 38.5682 56.4949 38.9164C56.262 39.2553 55.476 39.8388 55.0393 39.9894C54.6026 40.14 54.3018 39.9705 53.8554 39.8294C53.4187 39.6788 52.6618 39.4811 52.3901 39.1235C52.1086 38.7659 52.1183 38.0976 52.2057 37.6835C52.293 37.2694 52.5453 36.8459 52.8947 36.6294C53.2537 36.4129 54.0592 36.3847 54.3115 36.4035C54.5638 36.4223 54.4279 36.7141 54.4376 36.7423M54.0786 36.8365C54.4279 36.7423 54.8452 36.3471 55.3013 36.4506C55.7671 36.5541 56.5532 36.9776 56.8249 37.4388C57.0869 37.9094 57.1451 38.7847 56.9316 39.2364C56.7181 39.6882 56.0583 40.0364 55.5536 40.1494C55.049 40.2623 54.3988 40.1117 53.9233 39.9047C53.4478 39.707 52.9626 39.2835 52.7103 38.9447C52.458 38.6059 52.3027 38.1353 52.4095 37.8717C52.5162 37.6176 53.0208 37.6082 53.3508 37.3823C53.6807 37.1565 54.3212 36.6012 54.4085 36.5259C54.4959 36.46 53.8651 36.8835 53.8845 36.94" stroke="#1E1E1E" stroke-linecap="round"/>
<path d="M30.884 38.306C30.8937 38.2872 30.9811 38.0802 30.9617 37.9954C30.9423 37.9107 30.7967 37.7319 30.7579 37.779C30.7288 37.826 30.6899 38.2119 30.7482 38.2872C30.8064 38.3625 31.0684 38.2966 31.1169 38.2307C31.1557 38.1649 31.0878 37.9578 31.0005 37.8919C30.9131 37.826 30.6026 37.826 30.5832 37.8449C30.5735 37.8543 30.8743 37.9202 30.9131 37.9672C30.9617 38.0143 30.8743 38.1554 30.8549 38.1272C30.8355 38.099 30.7967 37.8354 30.787 37.8072C30.787 37.779 30.8258 37.8919 30.8452 37.9672M31.1655 37.9672C31.0587 37.8543 30.525 37.6002 30.4085 37.6096C30.3018 37.6284 30.3891 38.0331 30.4862 38.0519C30.5735 38.0802 30.9131 37.7978 30.952 37.7507C30.9908 37.7131 30.7191 37.779 30.6996 37.8072C30.6899 37.8449 30.9131 37.9672 30.8452 37.9578C30.787 37.939 30.3406 37.7037 30.3115 37.7507C30.2921 37.7978 30.6026 38.1366 30.6802 38.259C30.7676 38.3907 30.8161 38.5413 30.8258 38.5225C30.8355 38.5131 30.7094 38.3154 30.7579 38.1649C30.8064 38.0143 31.1752 37.6566 31.1072 37.6284" fill="white"/>
<path d="M30.7191 38.1555C30.7579 38.0708 30.8258 37.7696 30.8161 37.7696C30.8161 37.7696 30.6997 38.1084 30.6803 38.1649C30.6512 38.2213 30.6803 38.1555 30.6803 38.1178C30.6803 38.0802 30.6026 37.986 30.6609 37.9484C30.7288 37.9013 31.0976 37.8543 31.0685 37.8825C31.0393 37.9108 30.5444 38.1366 30.4862 38.1178C30.428 38.1084 30.6221 37.7978 30.7288 37.8166C30.8356 37.8449 31.0782 38.2119 31.1073 38.259C31.1267 38.306 30.952 38.1743 30.8938 38.099C30.8356 38.0143 30.7579 37.8072 30.7385 37.779M30.4086 37.8543C30.4183 37.7508 30.8938 37.7225 30.9132 37.779C30.9326 37.8355 30.5929 38.1084 30.5347 38.1837C30.4765 38.2684 30.4765 38.2213 30.5735 38.2684C30.6609 38.3249 31.0199 38.4566 31.0685 38.4849C31.117 38.5225 30.8841 38.5131 30.855 38.466C30.8258 38.419 30.9714 38.306 30.8744 38.2025C30.787 38.0896 30.3115 37.8731 30.3115 37.8166C30.3115 37.7602 30.7579 37.8072 30.8841 37.8449C31.0102 37.8731 30.9908 38.0708 31.0587 38.0237C31.1267 37.986 31.2528 37.6284 31.3014 37.5908" stroke="#1E1E1E" stroke-linecap="round"/>
<path d="M54.3489 38.397C54.4071 38.4064 54.4556 38.0487 54.5138 38.0205C54.5721 37.9923 54.737 38.2182 54.7176 38.237C54.6885 38.2558 54.4265 38.1335 54.3586 38.1335C54.2809 38.1335 54.3391 38.1993 54.3003 38.2276C54.2712 38.2558 54.1548 38.3405 54.1742 38.284C54.1839 38.237 54.3974 37.9358 54.3974 37.917C54.3974 37.8982 54.1062 38.0958 54.1742 38.1617C54.2324 38.2276 54.7564 38.3217 54.7952 38.3123C54.8341 38.3029 54.4459 38.0958 54.3877 38.1052C54.3294 38.124 54.3974 38.3687 54.4653 38.3687M54.6691 38.2558C54.6012 38.3217 54.5623 38.3311 54.5526 38.3217C54.5526 38.3217 54.7079 38.2464 54.64 38.2464C54.5623 38.2558 54.0965 38.3217 54.1062 38.3593C54.1257 38.397 54.5818 38.5852 54.7079 38.4911C54.8341 38.3876 54.9796 37.7476 54.8729 37.7664C54.7661 37.7946 54.0965 38.5758 54.0674 38.6323C54.0383 38.6793 54.5721 38.1335 54.6982 38.1052C54.8244 38.077 54.7952 38.397 54.8438 38.4534C54.8923 38.5099 55.0281 38.4723 54.9893 38.4534C54.9505 38.4346 54.7273 38.4629 54.5915 38.3499" fill="white"/>
<path d="M54.5041 38.2088C54.5332 38.237 54.3586 38.077 54.3489 38.077C54.3295 38.077 54.3877 38.237 54.4168 38.2088C54.4459 38.1806 54.5235 37.9076 54.5138 37.9076C54.4944 37.8982 54.3198 38.1053 54.3392 38.1617C54.3586 38.2182 54.5721 38.237 54.64 38.237C54.7176 38.237 54.805 38.1429 54.7856 38.1617C54.7662 38.19 54.6303 38.4253 54.5235 38.3782C54.4168 38.3311 54.1839 37.9076 54.1742 37.8888C54.1548 37.87 54.3683 38.2464 54.4459 38.2841C54.5332 38.3311 54.6206 38.1335 54.6594 38.1241M54.9214 37.9359C54.9699 38.0017 54.3392 38.2276 54.3101 38.19C54.2906 38.1523 54.7273 37.71 54.7662 37.7288C54.7953 37.7476 54.5235 38.2747 54.5235 38.3217C54.5235 38.3594 54.737 37.9829 54.7953 37.9829C54.8535 37.9829 54.9117 38.2935 54.8632 38.3311C54.8244 38.3688 54.6691 38.2276 54.5332 38.2088C54.3974 38.19 54.0286 38.237 54.0383 38.2182C54.048 38.19 54.5235 38.0582 54.5721 38.077C54.6303 38.0958 54.3003 38.3876 54.3489 38.35C54.3877 38.3029 54.8632 37.8794 54.8341 37.8229" stroke="#1E1E1E" stroke-linecap="round"/>
</svg>
