<svg width="83" height="118" viewBox="0 0 83 118" fill="none" xmlns="http://www.w3.org/2000/svg">
<path d="M20.3045 1.8018C30.299 0.203605 43.159 -1.29117 60.3619 1.8018C72.5774 3.62561 80.0436 10.1124 80.3906 20.7921C80.4104 45.1974 80.1824 67.6003 80.3906 97.4582C82.0663 110.244 72.28 116.035 60.3619 116.448C47.1152 117.671 25.3018 115.443 20.3045 116.448C10.4984 119.382 1.85231 110.263 0.275795 97.4582C3.34951 70.712 -1.11233 49.3997 0.275795 20.7921C-1.17182 10.8175 4.15264 4.11447 20.3045 1.8018Z" fill="white"/>
<path d="M21.1718 1.458C33.417 0.264056 48.6765 1.82464 61.2292 1.458M21.1718 1.458C34.0318 2.37931 45.4739 1.05375 61.2292 1.458M21.1718 1.458C9.73954 1.00674 2.48161 8.50884 1.14306 20.4483M21.1718 1.458C9.99733 0.602496 0.835688 8.21741 1.14306 20.4483M61.2292 1.458C73.5538 2.72715 81.1191 6.93886 81.2579 20.4483M61.2292 1.458C73.3158 -0.356418 82.9435 7.72855 81.2579 20.4483M81.2579 20.4483C80.9108 40.4633 80.9703 61.738 81.2579 97.1144M81.2579 20.4483C81.3967 44.0357 82.5568 68.7794 81.2579 97.1144M81.2579 97.1144C80.1573 109.562 73.0084 115.39 61.2292 116.105M81.2579 97.1144C81.0794 110.52 75.8541 115.475 61.2292 116.105M61.2292 116.105C50.1241 116.979 41.9342 114.826 21.1718 116.105M61.2292 116.105C49.2219 115.982 38.3151 116.49 21.1718 116.105M21.1718 116.105C7.22108 115.588 0.617553 109.75 1.14306 97.1144M21.1718 116.105C8.26217 115.512 0.389504 110.643 1.14306 97.1144M1.14306 97.1144C1.27196 73.48 2.58076 46.4048 1.14306 20.4483M1.14306 97.1144C0.597723 68.7418 1.83712 37.9062 1.14306 20.4483" stroke="#1E1E1E" stroke-width="2" stroke-linecap="round"/>
<path d="M19.6066 2.36475C31.8419 2.36475 44.0674 2.36475 56.0053 2.36475M19.6066 2.36475C30.1464 2.36475 40.6764 2.36475 56.0053 2.36475M19.6066 2.36475C17.2567 2.36475 16.0867 3.47408 16.0867 5.70215M56.0053 2.36475C58.3453 2.36475 59.5252 3.47408 59.5252 5.70215M59.5252 5.70215C59.5252 7.78919 59.5252 9.87624 59.5252 12.3863M59.5252 5.70215C59.5252 7.88321 59.5252 10.0549 59.5252 12.3863M59.5252 12.3863C59.5252 14.6144 58.3453 15.7237 56.0053 15.7237M56.0053 15.7237C42.7486 15.7237 29.492 15.7237 19.6066 15.7237M56.0053 15.7237C47.4187 15.7237 38.8421 15.7237 19.6066 15.7237M19.6066 15.7237C17.2567 15.7237 16.0867 14.6144 16.0867 12.3863M16.0867 12.3863C16.0867 10.4967 16.0867 8.61649 16.0867 5.70215M16.0867 12.3863C16.0867 10.4403 16.0867 8.49428 16.0867 5.70215" stroke="#1E1E1E" stroke-width="2" stroke-linecap="round"/>
<path d="M8.06543 85.1158C18.9622 85.1158 62.5693 85.1158 73.4661 85.1158" stroke="#1E1E1E" stroke-width="2" stroke-linecap="round"/>
<path d="M30.5186 7.55859C30.5186 7.69531 30.5251 7.83691 30.5381 7.9834C30.5511 8.12988 30.5658 8.27637 30.582 8.42285C30.6016 8.56934 30.6178 8.71745 30.6309 8.86719C30.6439 9.01367 30.6504 9.15853 30.6504 9.30176C30.6504 9.46126 30.5951 9.59147 30.4844 9.69238C30.3737 9.79004 30.2256 9.83887 30.04 9.83887C29.9489 9.83887 29.8626 9.8112 29.7812 9.75586C29.7031 9.70052 29.6592 9.61263 29.6494 9.49219C29.6331 9.33919 29.6169 9.16829 29.6006 8.97949C29.5876 8.78743 29.5745 8.59049 29.5615 8.38867C29.5518 8.18359 29.542 7.97852 29.5322 7.77344C29.5225 7.5651 29.5143 7.36654 29.5078 7.17773C29.5013 6.98568 29.4964 6.8099 29.4932 6.65039C29.4899 6.48763 29.4883 6.35091 29.4883 6.24023C29.4883 6.14258 29.4948 6.0498 29.5078 5.96191C29.5208 5.87402 29.5485 5.79753 29.5908 5.73242C29.6331 5.66732 29.6901 5.61523 29.7617 5.57617C29.8366 5.53711 29.9359 5.51758 30.0596 5.51758C30.154 5.51758 30.2598 5.55176 30.377 5.62012C30.4941 5.68522 30.6195 5.77474 30.7529 5.88867C30.8896 6.0026 31.0345 6.13444 31.1875 6.28418C31.3405 6.43066 31.4984 6.58529 31.6611 6.74805C31.8239 6.91081 31.9899 7.07682 32.1592 7.24609C32.3317 7.41211 32.5059 7.56999 32.6816 7.71973C32.7598 7.78809 32.8477 7.86784 32.9453 7.95898C33.0462 8.05013 33.1488 8.13639 33.2529 8.21777C33.3604 8.29915 33.4661 8.36914 33.5703 8.42773C33.6777 8.48307 33.7803 8.51074 33.8779 8.51074C33.9691 8.51074 34.0277 8.47168 34.0537 8.39355C34.083 8.31217 34.0977 8.18359 34.0977 8.00781C34.0977 7.8776 34.0863 7.71647 34.0635 7.52441C34.0439 7.33236 34.0146 7.12728 33.9756 6.90918C33.9365 6.69108 33.8877 6.47298 33.8291 6.25488C33.7705 6.03353 33.7038 5.83171 33.6289 5.64941C33.6126 5.61035 33.5964 5.57292 33.5801 5.53711C33.5671 5.49805 33.5605 5.45573 33.5605 5.41016C33.5605 5.33529 33.585 5.26855 33.6338 5.20996C33.6826 5.15137 33.7412 5.10254 33.8096 5.06348C33.8779 5.02441 33.9495 4.99512 34.0244 4.97559C34.0993 4.9528 34.1611 4.94141 34.21 4.94141C34.3174 4.94141 34.4134 5 34.498 5.11719C34.5827 5.23112 34.6559 5.38086 34.7178 5.56641C34.7829 5.7487 34.8366 5.9554 34.8789 6.18652C34.9212 6.41439 34.9554 6.64388 34.9814 6.875C35.0107 7.10612 35.0303 7.32747 35.04 7.53906C35.0531 7.7474 35.0596 7.92155 35.0596 8.06152C35.0596 8.3252 35.0482 8.55794 35.0254 8.75977C35.0059 8.95833 34.9619 9.12598 34.8936 9.2627C34.8285 9.39941 34.7324 9.50358 34.6055 9.5752C34.4785 9.64355 34.3092 9.67773 34.0977 9.67773C33.9284 9.67773 33.751 9.64355 33.5654 9.5752C33.3799 9.50358 33.1911 9.40918 32.999 9.29199C32.8102 9.17155 32.6182 9.03483 32.4229 8.88184C32.2308 8.72884 32.042 8.56934 31.8564 8.40332C31.6709 8.2373 31.4902 8.07129 31.3145 7.90527C31.1419 7.73926 30.9808 7.58464 30.8311 7.44141C30.7692 7.37956 30.7122 7.34863 30.6602 7.34863C30.6146 7.34863 30.5788 7.36816 30.5527 7.40723C30.5299 7.44303 30.5186 7.49349 30.5186 7.55859ZM36.002 8.37891C36.002 8.32357 36.0085 8.26172 36.0215 8.19336C36.0345 8.125 36.041 8.05013 36.041 7.96875C36.041 7.91341 36.0166 7.87109 35.9678 7.8418C35.9222 7.8125 35.8701 7.77995 35.8115 7.74414C35.7529 7.70833 35.6992 7.66276 35.6504 7.60742C35.6048 7.55208 35.582 7.47233 35.582 7.36816C35.582 7.29329 35.6016 7.21842 35.6406 7.14355C35.6829 7.06868 35.7432 7.00033 35.8213 6.93848C36.0133 6.79525 36.2119 6.66667 36.417 6.55273C36.6253 6.4388 36.832 6.34277 37.0371 6.26465C37.2454 6.18652 37.4505 6.1263 37.6523 6.08398C37.8542 6.04167 38.0479 6.02051 38.2334 6.02051C38.5459 6.02051 38.8389 6.0791 39.1123 6.19629C39.389 6.31022 39.6283 6.4681 39.8301 6.66992C40.0352 6.86849 40.1963 7.10286 40.3135 7.37305C40.4339 7.63997 40.4941 7.92643 40.4941 8.23242C40.4941 8.5319 40.4307 8.81673 40.3037 9.08691C40.18 9.35384 40.0124 9.58822 39.8008 9.79004C39.5892 9.99186 39.3402 10.1514 39.0537 10.2686C38.7705 10.389 38.471 10.4492 38.1553 10.4492C37.846 10.4492 37.5596 10.3971 37.2959 10.293C37.0322 10.1888 36.8044 10.0456 36.6123 9.86328C36.4202 9.67773 36.2705 9.45964 36.1631 9.20898C36.0557 8.95508 36.002 8.67839 36.002 8.37891ZM38.2627 9.57031C38.3994 9.57031 38.541 9.54264 38.6875 9.4873C38.834 9.43197 38.9674 9.35221 39.0879 9.24805C39.2116 9.14062 39.3125 9.01042 39.3906 8.85742C39.472 8.70443 39.5127 8.5319 39.5127 8.33984C39.5127 8.14453 39.4769 7.96224 39.4053 7.79297C39.3337 7.6237 39.2344 7.47721 39.1074 7.35352C38.9837 7.22656 38.8356 7.12728 38.6631 7.05566C38.4938 6.98405 38.3099 6.94824 38.1113 6.94824C37.75 6.94824 37.4733 7.04264 37.2812 7.23145C37.0892 7.41699 36.9932 7.70345 36.9932 8.09082C36.9932 8.30241 37.0241 8.49935 37.0859 8.68164C37.151 8.86068 37.2406 9.01693 37.3545 9.15039C37.4684 9.2806 37.6019 9.38314 37.7549 9.45801C37.9111 9.53288 38.0804 9.57031 38.2627 9.57031ZM39.6055 4.05762C39.6055 4.10645 39.5811 4.15365 39.5322 4.19922C39.4867 4.24479 39.4232 4.29525 39.3418 4.35059C39.2637 4.40592 39.1709 4.47103 39.0635 4.5459C38.9561 4.61751 38.8421 4.70703 38.7217 4.81445C38.6045 4.91862 38.4824 5.04557 38.3555 5.19531C38.2285 5.3418 38.1048 5.51595 37.9844 5.71777C37.9583 5.76335 37.9209 5.79427 37.8721 5.81055C37.8265 5.82682 37.7744 5.83496 37.7158 5.83496C37.6605 5.83496 37.6051 5.82845 37.5498 5.81543C37.4977 5.79915 37.4489 5.77962 37.4033 5.75684C37.361 5.73079 37.3252 5.7015 37.2959 5.66895C37.2699 5.63314 37.2568 5.5957 37.2568 5.55664C37.2568 5.46875 37.2829 5.3597 37.335 5.22949C37.3903 5.09603 37.4619 4.95768 37.5498 4.81445C37.641 4.66797 37.7451 4.52311 37.8623 4.37988C37.9827 4.2334 38.1081 4.10319 38.2383 3.98926C38.3717 3.87207 38.5052 3.77767 38.6387 3.70605C38.7754 3.63444 38.9072 3.59863 39.0342 3.59863C39.0928 3.59863 39.1546 3.61491 39.2197 3.64746C39.2881 3.68001 39.3499 3.7207 39.4053 3.76953C39.4639 3.8151 39.5111 3.86556 39.5469 3.9209C39.5859 3.97298 39.6055 4.01855 39.6055 4.05762ZM44.1221 10.4297C44.07 9.83073 44.0016 9.23828 43.917 8.65234C43.8356 8.06641 43.7363 7.47559 43.6191 6.87988C43.6094 6.84082 43.5964 6.8099 43.5801 6.78711C43.5671 6.76107 43.5475 6.74805 43.5215 6.74805C43.502 6.74805 43.4792 6.74967 43.4531 6.75293C43.4303 6.75618 43.4059 6.75781 43.3799 6.75781C43.2562 6.75781 43.1602 6.72689 43.0918 6.66504C43.0234 6.60319 42.9893 6.52507 42.9893 6.43066C42.9893 6.32324 43.0332 6.21908 43.1211 6.11816C43.2122 6.01725 43.3311 5.92285 43.4775 5.83496C43.624 5.74382 43.7917 5.66081 43.9805 5.58594C44.1693 5.51107 44.363 5.44759 44.5615 5.39551C44.7633 5.34017 44.9619 5.29785 45.1572 5.26855C45.3525 5.236 45.5299 5.21973 45.6895 5.21973C45.9792 5.21973 46.2282 5.25553 46.4365 5.32715C46.6481 5.39876 46.8206 5.49316 46.9541 5.61035C47.0908 5.72754 47.1901 5.86263 47.252 6.01562C47.3171 6.16862 47.3496 6.3265 47.3496 6.48926C47.3496 6.65202 47.3138 6.83105 47.2422 7.02637C47.1738 7.21842 47.0566 7.40234 46.8906 7.57812C46.8711 7.60091 46.8581 7.62044 46.8516 7.63672C46.8451 7.64974 46.8418 7.66439 46.8418 7.68066C46.8418 7.70996 46.8743 7.72949 46.9395 7.73926C47.1283 7.75553 47.3105 7.80111 47.4863 7.87598C47.6654 7.95085 47.8216 8.0485 47.9551 8.16895C48.0885 8.28613 48.196 8.42448 48.2773 8.58398C48.3587 8.74349 48.3994 8.91276 48.3994 9.0918C48.3994 9.34245 48.3506 9.56217 48.2529 9.75098C48.1585 9.93652 48.0267 10.0911 47.8574 10.2148C47.6882 10.3385 47.4863 10.4297 47.252 10.4883C47.0208 10.5501 46.7702 10.5811 46.5 10.5811C46.2884 10.5811 46.0752 10.5615 45.8604 10.5225C45.6488 10.4867 45.4421 10.4395 45.2402 10.3809C45.2272 10.3743 45.2077 10.3711 45.1816 10.3711C45.1263 10.3711 45.0824 10.4036 45.0498 10.4688C44.9945 10.5794 44.9147 10.6657 44.8105 10.7275C44.7096 10.7894 44.6071 10.8203 44.5029 10.8203C44.4085 10.8203 44.3255 10.7894 44.2539 10.7275C44.1823 10.6689 44.1383 10.5697 44.1221 10.4297ZM45.0693 8.56934C44.9977 8.59538 44.9619 8.64583 44.9619 8.7207C44.9619 8.73047 44.9652 8.76628 44.9717 8.82812C44.9814 8.88997 44.9928 8.95671 45.0059 9.02832C45.0189 9.11296 45.0335 9.2041 45.0498 9.30176C45.0596 9.38639 45.1035 9.43848 45.1816 9.45801C45.2826 9.4873 45.3932 9.51823 45.5137 9.55078C45.6341 9.58008 45.7594 9.60775 45.8896 9.63379C46.0199 9.65983 46.1517 9.68099 46.2852 9.69727C46.4186 9.71354 46.5472 9.72168 46.6709 9.72168C46.7653 9.72168 46.8564 9.71191 46.9443 9.69238C47.0322 9.6696 47.1104 9.63542 47.1787 9.58984C47.2471 9.54427 47.3008 9.4873 47.3398 9.41895C47.3822 9.34733 47.4033 9.26107 47.4033 9.16016C47.4033 9.01367 47.3626 8.88997 47.2812 8.78906C47.1999 8.68815 47.0973 8.60677 46.9736 8.54492C46.8499 8.48307 46.7148 8.43913 46.5684 8.41309C46.4219 8.38379 46.2835 8.36914 46.1533 8.36914C45.9775 8.36914 45.7985 8.38867 45.6162 8.42773C45.4372 8.4668 45.2549 8.514 45.0693 8.56934ZM44.6934 6.24023C44.6576 6.25 44.6299 6.26139 44.6104 6.27441C44.5908 6.28743 44.5811 6.31185 44.5811 6.34766C44.5811 6.38346 44.5876 6.44857 44.6006 6.54297C44.6169 6.63411 44.6348 6.73828 44.6543 6.85547C44.6771 6.97266 44.6999 7.09473 44.7227 7.22168C44.7487 7.34538 44.7715 7.45768 44.791 7.55859C44.7975 7.62044 44.8105 7.66276 44.8301 7.68555C44.8529 7.70833 44.8805 7.71973 44.9131 7.71973C44.9326 7.71973 44.957 7.71647 44.9863 7.70996C45.0189 7.7002 45.0612 7.68717 45.1133 7.6709C45.2467 7.62858 45.3867 7.58138 45.5332 7.5293C45.6829 7.47396 45.818 7.40885 45.9385 7.33398C46.0622 7.25911 46.1631 7.17122 46.2412 7.07031C46.3226 6.96615 46.3633 6.8457 46.3633 6.70898C46.3633 6.60156 46.3405 6.51204 46.2949 6.44043C46.2493 6.36556 46.1859 6.30534 46.1045 6.25977C46.0231 6.21094 45.9287 6.17676 45.8213 6.15723C45.7139 6.1377 45.5967 6.12793 45.4697 6.12793C45.3395 6.12793 45.2077 6.1377 45.0742 6.15723C44.944 6.17676 44.8171 6.20443 44.6934 6.24023Z" fill="#1E1E1E"/>
<path d="M42.5753 38.2295C42.5952 40.1546 42.2878 47.1413 42.2779 49.0282M42.2977 38C42.2878 40.0016 41.9903 47.6385 42.0002 49.4234" stroke="#1E1E1E" stroke-linecap="round"/>
<path d="M35.5856 40.1744C36.8574 41.6199 41.1853 47.1132 42.4095 48.5491M35.2255 40.1818C36.5247 41.7046 41.2845 47.6841 42.4572 49.0297" stroke="#1E1E1E" stroke-linecap="round"/>
<path d="M57.5856 61.1744C58.8574 62.6199 63.1853 68.1132 64.4095 69.5491M57.2255 61.1818C58.5247 62.7046 63.2845 68.6841 64.4572 70.0297" stroke="#1E1E1E" stroke-linecap="round"/>
<path d="M50.1151 40.5622C48.8057 41.9736 43.7782 46.8349 42.4735 48.1981M50.0714 40.2047C48.6877 41.6512 43.2203 46.9914 42.0002 48.2941" stroke="#1E1E1E" stroke-linecap="round"/>
<path d="M25.1151 62.5622C23.8057 63.9736 18.7782 68.8349 17.4735 70.1981M25.0714 62.2047C23.6877 63.6512 18.2203 68.9914 17.0002 70.2941" stroke="#1E1E1E" stroke-linecap="round"/>
<path d="M41.417 67.4232C40.7947 68.7213 38.2277 73.4894 37.5791 74.7736M41.1815 67C40.5152 68.3386 37.8061 73.7125 37.2101 74.9821" stroke="#1E1E1E" stroke-linecap="round"/>
<path d="M42.2573 67.3926C42.8185 68.6252 45.3516 73.4455 45.927 74.6397M42.6942 67C43.2055 68.2885 45.3501 73.8023 45.8252 75.1296" stroke="#1E1E1E" stroke-linecap="round"/>
<path d="M46.0842 75.5679C46.7201 75.6347 49.2905 75.5957 49.9144 75.6322M46.033 75C46.6793 75.1368 49.4343 75.7606 50.0873 75.9473" stroke="#1E1E1E" stroke-linecap="round"/>
<path d="M33.0842 75.5679C33.7201 75.6347 36.2905 75.5957 36.9144 75.6322M33.033 75C33.6793 75.1368 36.4343 75.7606 37.0873 75.9473" stroke="#1E1E1E" stroke-linecap="round"/>
<path d="M29.6801 49.0785C30.4232 48.9926 33.414 48.8379 37.5285 49.0785C40.2836 45.8304 40.8817 50.7627 41.4617 52.7907C41.3892 56.5028 40.9542 60.1806 41.4617 63.9615C44.6337 70.5437 40.8817 66.7284 37.5285 67.6736C35.154 67.519 34.1934 67.9486 29.6801 67.6736C30.9851 66.7456 22.4661 67.519 25.7649 63.9615C26.8344 62.0023 26.6712 60.3181 25.7649 52.7907C26.0731 46.9131 25.1487 50.3331 29.6801 49.0785Z" fill="white"/>
<path d="M29.6803 49.0785C31.7467 49.0442 34.1392 48.8723 37.5287 49.0785M29.6803 49.0785C32.6892 49.0098 35.2268 49.1129 37.5287 49.0785M29.6803 49.0785C25.5477 48.5802 27.3784 49.2848 25.7652 52.7907M29.6803 49.0785C26.7984 47.9958 27.6684 50.505 25.7652 52.7907M37.5287 49.0785C41.0451 47.7552 42.2052 50.1097 41.462 52.7907M37.5287 49.0785C39.4319 48.6661 40.0301 50.6596 41.462 52.7907M41.462 52.7907C41.0451 56.0732 41.2626 58.7198 41.462 63.9615M41.462 52.7907C41.3532 56.7778 41.2807 61.3664 41.462 63.9615M41.462 63.9615C40.157 65.9894 38.5438 66.0754 37.5287 67.6737M41.462 63.9615C42.7489 66.1269 40.9545 66.0582 37.5287 67.6737M37.5287 67.6737C34.973 67.7252 32.5261 67.983 29.6803 67.6737M37.5287 67.6737C35.7343 67.4674 34.2299 67.6221 29.6803 67.6737M29.6803 67.6737C28.0128 67.7252 24.0251 66.4878 25.7652 63.9615M29.6803 67.6737C28.9734 67.8971 24.9314 66.3847 25.7652 63.9615M25.7652 63.9615C26.2546 60.8681 25.2758 57.1903 25.7652 52.7907M25.7652 63.9615C25.8921 61.6414 25.5658 58.9948 25.7652 52.7907" stroke="#1E1E1E" stroke-linecap="round"/>
<path d="M45.7896 48.3765C48.8151 47.6764 51.7145 47.5227 53.5874 48.3765C57.8555 50.8694 53.1552 50.306 57.4953 52.0647C58.3597 56.6579 57.9455 60.8583 57.4953 63.1635C53.8575 66.8005 54.9921 66.1175 53.5874 66.8517C50.2378 66.8688 48.0587 67.7908 45.7896 66.8517C44.1328 67.4323 45.9517 69.7374 41.8997 63.1635C40.8012 59.3899 40.6031 53.8746 41.8997 52.0647C43.6826 45.3371 40.459 46.686 45.7896 48.3765Z" fill="white"/>
<path d="M45.7895 48.3765C48.4908 48.5814 50.832 48.3935 53.5873 48.3765M45.7895 48.3765C48.4908 48.2569 51.0121 48.5131 53.5873 48.3765M45.7895 48.3765C43.4844 49.1961 43.4844 50.9719 41.8996 52.0647M45.7895 48.3765C43.5564 49.7596 42.71 47.8301 41.8996 52.0647M53.5873 48.3765C55.7304 49.2473 57.6213 50.8694 57.4952 52.0647M53.5873 48.3765C56.3787 50.084 55.5683 48.8546 57.4952 52.0647M57.4952 52.0647C57.9274 54.865 57.9635 56.7774 57.4952 63.1635M57.4952 52.0647C57.2251 54.9845 57.8014 57.7336 57.4952 63.1635M57.4952 63.1635C58.7739 67.0908 57.3332 65.6906 53.5873 66.8517M57.4952 63.1635C58.7378 67.4152 55.6043 67.0225 53.5873 66.8517M53.5873 66.8517C51.5884 67.1761 48.9951 66.9712 45.7895 66.8517M53.5873 66.8517C50.796 66.7663 47.9146 66.8688 45.7895 66.8517M45.7895 66.8517C42.0437 67.2615 42.0437 63.9489 41.8996 63.1635M45.7895 66.8517C43.8626 67.2786 41.0892 64.4783 41.8996 63.1635M41.8996 63.1635C42.1337 59.2533 42.3499 56.3847 41.8996 52.0647M41.8996 63.1635C41.9176 60.9437 42.2058 58.4849 41.8996 52.0647" stroke="#1E1E1E" stroke-linecap="round"/>
<path d="M50.0692 54.1311C50.7937 54.0272 51.4784 54.1311 52.1235 54.5655C52.7685 55.0093 53.6815 55.8875 53.9594 56.7658C54.2373 57.6346 54.1678 59.0416 53.7808 59.7971C53.3938 60.5431 52.4411 60.9397 51.6174 61.2514C50.7937 61.5536 49.6723 61.8746 48.8387 61.6574C48.0051 61.4402 47.0424 60.6564 46.6058 59.9482C46.179 59.2399 46.0798 58.1445 46.2386 57.3985C46.3974 56.6524 46.973 56.0197 47.5585 55.472C48.144 54.9337 49.4143 54.386 49.7616 54.1499C50.1189 53.9139 49.712 54.0177 49.6822 54.0555M49.6524 54.2349C50.5059 54.0933 51.6471 54.2349 52.322 54.6504C52.9968 55.066 53.4434 55.8309 53.7113 56.7091C53.9693 57.5873 54.2174 59.1927 53.9098 59.901C53.6121 60.6092 52.6197 60.7225 51.8853 60.9586C51.141 61.2041 50.2479 61.4402 49.4837 61.3552C48.7097 61.2703 47.8363 61.0531 47.2608 60.4581C46.6752 59.8726 45.9806 58.73 46.0004 57.8234C46.0103 56.9169 46.705 55.5759 47.3699 55.0282C48.0348 54.4899 49.5234 54.6977 49.9898 54.5749C50.4463 54.4521 50.2379 54.2822 50.1585 54.3105" stroke="#1E1E1E" stroke-linecap="round"/>
<path d="M34.0692 54.1311C34.7937 54.0272 35.4784 54.1311 36.1235 54.5655C36.7685 55.0093 37.6815 55.8875 37.9594 56.7658C38.2373 57.6346 38.1678 59.0416 37.7808 59.7971C37.3938 60.5431 36.4411 60.9397 35.6174 61.2514C34.7937 61.5536 33.6723 61.8746 32.8387 61.6574C32.0051 61.4402 31.0424 60.6564 30.6058 59.9482C30.179 59.2399 30.0798 58.1445 30.2386 57.3985C30.3974 56.6524 30.973 56.0197 31.5585 55.472C32.144 54.9337 33.4143 54.386 33.7616 54.1499C34.1189 53.9139 33.712 54.0177 33.6822 54.0555M33.6524 54.2349C34.5059 54.0933 35.6471 54.2349 36.322 54.6504C36.9968 55.066 37.4434 55.8309 37.7113 56.7091C37.9693 57.5873 38.2174 59.1927 37.9098 59.901C37.6121 60.6092 36.6197 60.7225 35.8853 60.9586C35.141 61.2041 34.2479 61.4402 33.4837 61.3552C32.7097 61.2703 31.8363 61.0531 31.2608 60.4581C30.6752 59.8726 29.9806 58.73 30.0004 57.8234C30.0103 56.9169 30.705 55.5759 31.3699 55.0282C32.0348 54.4899 33.5234 54.6977 33.9898 54.5749C34.4463 54.4521 34.2379 54.2822 34.1585 54.3105" stroke="#1E1E1E" stroke-linecap="round"/>
<path d="M33.5006 58.017C33.5898 58.0035 33.674 58.017 33.7534 58.0732C33.8327 58.1306 33.9451 58.2442 33.9792 58.3579C34.0134 58.4703 34.0049 58.6523 33.9573 58.7501C33.9097 58.8466 33.7924 58.8979 33.6911 58.9382C33.5898 58.9773 33.4518 59.0189 33.3492 58.9908C33.2467 58.9627 33.1283 58.8613 33.0745 58.7696C33.022 58.678 33.0098 58.5363 33.0294 58.4397C33.0489 58.3432 33.1197 58.2613 33.1917 58.1905C33.2638 58.1208 33.4201 58.0499 33.4628 58.0194C33.5067 57.9889 33.4567 58.0023 33.453 58.0072M33.4494 58.0304C33.5544 58.0121 33.6948 58.0304 33.7778 58.0842C33.8608 58.1379 33.9158 58.2369 33.9487 58.3505C33.9805 58.4642 34.011 58.6719 33.9731 58.7635C33.9365 58.8552 33.8144 58.8698 33.7241 58.9004C33.6325 58.9321 33.5226 58.9627 33.4286 58.9517C33.3334 58.9407 33.2259 58.9126 33.1551 58.8356C33.0831 58.7599 32.9976 58.612 33.0001 58.4947C33.0013 58.3774 33.0867 58.2039 33.1685 58.133C33.2503 58.0634 33.4335 58.0903 33.4909 58.0744C33.547 58.0585 33.5214 58.0365 33.5116 58.0402" stroke="#1E1E1E" stroke-linecap="round"/>
<path d="M50.5006 57.017C50.5898 57.0035 50.674 57.017 50.7534 57.0732C50.8327 57.1306 50.9451 57.2442 50.9792 57.3579C51.0134 57.4703 51.0049 57.6523 50.9573 57.7501C50.9097 57.8466 50.7924 57.8979 50.6911 57.9382C50.5898 57.9773 50.4518 58.0189 50.3492 57.9908C50.2467 57.9627 50.1283 57.8613 50.0745 57.7696C50.022 57.678 50.0098 57.5363 50.0294 57.4397C50.0489 57.3432 50.1197 57.2613 50.1917 57.1905C50.2638 57.1208 50.4201 57.0499 50.4628 57.0194C50.5067 56.9889 50.4567 57.0023 50.453 57.0072M50.4494 57.0304C50.5544 57.0121 50.6948 57.0304 50.7778 57.0842C50.8608 57.1379 50.9158 57.2369 50.9487 57.3505C50.9805 57.4642 51.011 57.6719 50.9731 57.7635C50.9365 57.8552 50.8144 57.8698 50.7241 57.9004C50.6325 57.9321 50.5226 57.9627 50.4286 57.9517C50.3334 57.9407 50.2259 57.9126 50.1551 57.8356C50.0831 57.7599 49.9976 57.612 50.0001 57.4947C50.0013 57.3774 50.0867 57.2039 50.1685 57.133C50.2503 57.0634 50.4335 57.0903 50.4909 57.0744C50.547 57.0585 50.5214 57.0365 50.5116 57.0402" stroke="#1E1E1E" stroke-linecap="round"/>
</svg>
