<svg width="84" height="120" viewBox="0 0 84 120" fill="none" xmlns="http://www.w3.org/2000/svg">
<path d="M22.453 1.98097C34.064 2.57578 49.8522 3.66155 62.4432 1.98097C74.5888 -0.379397 82.7353 10.195 82.4384 21.0527C80.7358 47.215 78.667 67.7691 82.4384 98.0479C79.6767 110.426 77.3901 119.688 62.4432 117.12C49.6741 117.941 37.6671 118.432 22.453 117.12C8.17921 119.782 5.80355 111.53 2.45783 98.0479C1.81442 82.2334 6.46676 59.4606 2.45783 21.0527C-0.689921 5.36101 11.416 -1.11583 22.453 1.98097Z" fill="white"/>
<path d="M22.4529 1.98094C32.5297 0.857409 39.6764 1.17842 62.4432 1.98094M22.4529 1.98094C31.0251 2.38693 41.3196 1.4239 62.4432 1.98094M22.4529 1.98094C9.14921 3.3594 2.23999 7.76856 2.45776 21.0527M22.4529 1.98094C11.3962 0.772436 0.507742 8.01404 2.45776 21.0527M62.4432 1.98094C77.588 2.42469 80.8941 7.12654 82.4383 21.0527M62.4432 1.98094C76.6674 4.09583 84.0518 8.83545 82.4383 21.0527M82.4383 21.0527C83.6855 38.6516 81.8048 60.7352 82.4383 98.0478M82.4383 21.0527C81.5771 51.7658 82.4482 81.2704 82.4383 98.0478M82.4383 98.0478C82.666 111.389 76.5685 116.761 62.4432 117.12M82.4383 98.0478C81.8741 112.899 74.9154 115.741 62.4432 117.12M62.4432 117.12C50.5055 118.649 33.569 118.545 22.4529 117.12M62.4432 117.12C50.357 117.044 37.1721 117.582 22.4529 117.12M22.4529 117.12C10.8914 118.659 2.76462 112.418 2.45776 98.0478M22.4529 117.12C11.1487 118.838 3.33874 110.369 2.45776 98.0478M2.45776 98.0478C3.11107 69.8273 3.99204 41.3141 2.45776 21.0527M2.45776 98.0478C1.40851 79.6559 2.01233 61.1317 2.45776 21.0527" stroke="#1E1E1E" stroke-width="2" stroke-linecap="round"/>
<path d="M21.8775 2.57922C32.9639 2.57922 44.0404 2.57922 58.2152 2.57922M21.8775 2.57922C35.4089 2.57922 48.9402 2.57922 58.2152 2.57922M21.8775 2.57922C19.5316 2.57922 18.3635 3.69332 18.3635 5.93094M58.2152 2.57922C60.5513 2.57922 61.7292 3.69332 61.7292 5.93094M61.7292 5.93094C61.7292 8.50846 61.7292 11.0954 61.7292 12.6438M61.7292 5.93094C61.7292 7.34716 61.7292 8.75394 61.7292 12.6438M61.7292 12.6438C61.7292 14.8815 60.5513 15.9955 58.2152 15.9955M58.2152 15.9955C50.3854 15.9955 42.5656 15.9955 21.8775 15.9955M58.2152 15.9955C50.2865 15.9955 42.3676 15.9955 21.8775 15.9955M21.8775 15.9955C19.5316 15.9955 18.3635 14.8815 18.3635 12.6438M18.3635 12.6438C18.3635 10.2835 18.3635 7.91365 18.3635 5.93094M18.3635 12.6438C18.3635 11.1237 18.3635 9.60367 18.3635 5.93094" stroke="#1E1E1E" stroke-width="2" stroke-linecap="round"/>
<path d="M34.1008 7.40214C34.1008 7.35947 34.1193 7.31823 34.1563 7.27841C34.1933 7.23574 34.2416 7.19877 34.3014 7.16748C34.3611 7.13335 34.4279 7.10633 34.5019 7.08642C34.5787 7.06366 34.6555 7.05229 34.7323 7.05229C34.7749 7.05229 34.8105 7.06366 34.8389 7.08642C34.8702 7.10917 34.8972 7.15326 34.92 7.21868C34.9427 7.28125 34.9627 7.37085 34.9797 7.48746C34.9996 7.60124 35.0181 7.75056 35.0352 7.93544C35.0466 7.99233 35.0565 8.03641 35.0651 8.0677C35.0764 8.09614 35.0907 8.11036 35.1077 8.11036C35.1333 8.11036 35.1589 8.06628 35.1845 7.97811C35.3921 7.37796 35.6922 7.07789 36.0847 7.07789C36.2668 7.07789 36.4317 7.13477 36.5796 7.24854C36.7304 7.36232 36.8698 7.54862 36.9978 7.80745C37.1286 8.06343 37.2523 8.40191 37.3689 8.82286C37.4855 9.24097 37.6022 9.75721 37.7188 10.3716C37.7245 10.4029 37.7287 10.4313 37.7316 10.4569C37.7344 10.4825 37.7358 10.5067 37.7358 10.5294C37.7358 10.5949 37.7202 10.6517 37.6889 10.7001C37.6605 10.7456 37.6221 10.784 37.5737 10.8153C37.5254 10.8437 37.4713 10.8651 37.4116 10.8793C37.3519 10.8964 37.2921 10.9049 37.2324 10.9049C37.1129 10.9049 37.0262 10.8921 36.9722 10.8665C36.921 10.8409 36.8882 10.7925 36.874 10.7214C36.7915 10.2891 36.7105 9.90511 36.6308 9.56949C36.554 9.23386 36.4772 8.95228 36.4005 8.72473C36.3265 8.49434 36.2525 8.31942 36.1786 8.19996C36.1046 8.0805 36.0307 8.02077 35.9567 8.02077C35.8828 8.02077 35.8131 8.0677 35.7477 8.16156C35.6851 8.25258 35.624 8.39622 35.5642 8.59247C35.5045 8.78873 35.4462 9.0376 35.3893 9.3391C35.3353 9.6406 35.2826 10.0004 35.2314 10.4185C35.2172 10.5323 35.1603 10.6233 35.0608 10.6916C34.9612 10.7598 34.8347 10.794 34.6811 10.794C34.5787 10.794 34.5005 10.7726 34.4464 10.73C34.3924 10.6873 34.3625 10.629 34.3568 10.555C34.3312 9.96342 34.3028 9.47705 34.2715 9.09591C34.2431 8.71193 34.216 8.40475 34.1904 8.17436C34.1648 7.94113 34.1435 7.76763 34.1264 7.65386C34.1094 7.54008 34.1008 7.45618 34.1008 7.40214ZM38.2393 9.4287C38.2393 9.38034 38.245 9.3263 38.2564 9.26657C38.2677 9.20684 38.2734 9.14142 38.2734 9.07031C38.2734 9.02196 38.2521 8.98499 38.2094 8.95939C38.1696 8.93379 38.1241 8.90535 38.0729 8.87406C38.0217 8.84277 37.9748 8.80295 37.9321 8.7546C37.8923 8.70624 37.8724 8.63656 37.8724 8.54554C37.8724 8.48012 37.8894 8.4147 37.9236 8.34929C37.9605 8.28387 38.0132 8.22414 38.0814 8.1701C38.2492 8.04495 38.4227 7.9326 38.6019 7.83305C38.784 7.7335 38.9646 7.64959 39.1438 7.58133C39.3258 7.51306 39.505 7.46044 39.6813 7.42347C39.8577 7.38649 40.0269 7.368 40.1891 7.368C40.4621 7.368 40.7181 7.4192 40.957 7.5216C41.1988 7.62115 41.4078 7.75909 41.5842 7.93544C41.7634 8.10894 41.9042 8.31373 42.0066 8.54981C42.1118 8.78304 42.1644 9.03334 42.1644 9.3007C42.1644 9.56238 42.1089 9.81125 41.998 10.0473C41.8899 10.2806 41.7435 10.4854 41.5586 10.6617C41.3737 10.838 41.1561 10.9774 40.9058 11.0798C40.6584 11.185 40.3967 11.2377 40.1208 11.2377C39.8506 11.2377 39.6003 11.1922 39.3699 11.1011C39.1395 11.0101 38.9404 10.885 38.7726 10.7257C38.6048 10.5636 38.4739 10.373 38.3801 10.154C38.2862 9.93214 38.2393 9.69037 38.2393 9.4287ZM40.2146 10.4697C40.3341 10.4697 40.4578 10.4455 40.5858 10.3972C40.7138 10.3488 40.8304 10.2791 40.9357 10.1881C41.0438 10.0943 41.1319 9.98049 41.2002 9.84681C41.2713 9.71312 41.3069 9.56238 41.3069 9.39456C41.3069 9.22391 41.2756 9.06463 41.213 8.91672C41.1504 8.76882 41.0637 8.64083 40.9527 8.53274C40.8447 8.42182 40.7152 8.33506 40.5645 8.27249C40.4166 8.20992 40.2559 8.17863 40.0824 8.17863C39.7667 8.17863 39.5249 8.26111 39.3571 8.42608C39.1893 8.58821 39.1054 8.8385 39.1054 9.17698C39.1054 9.36185 39.1324 9.53393 39.1864 9.69321C39.2433 9.84965 39.3215 9.98618 39.4211 10.1028C39.5206 10.2166 39.6373 10.3062 39.7709 10.3716C39.9075 10.437 40.0554 10.4697 40.2146 10.4697ZM43.1201 5.91741C43.1201 5.76667 43.1628 5.66143 43.2481 5.6017C43.3334 5.53912 43.4742 5.50784 43.6705 5.50784C43.7416 5.50784 43.8013 5.51495 43.8497 5.52917C43.9009 5.54055 43.9435 5.5633 43.9777 5.59743C44.0146 5.63156 44.0431 5.67707 44.063 5.73396C44.0857 5.788 44.1042 5.85768 44.1184 5.94301C44.1526 6.20753 44.1895 6.48058 44.2294 6.76217C44.272 7.04375 44.3161 7.32676 44.3616 7.61119C44.3787 7.73918 44.4455 7.80318 44.5622 7.80318C44.5934 7.80318 44.6446 7.80034 44.7157 7.79465C44.7897 7.78612 44.8764 7.77758 44.976 7.76905C45.0755 7.75767 45.1822 7.7463 45.296 7.73492C45.4126 7.72354 45.5278 7.71359 45.6416 7.70505C45.7582 7.69368 45.8677 7.68514 45.9701 7.67945C46.0753 7.67092 46.1678 7.66666 46.2474 7.66666C46.31 7.66666 46.3597 7.67945 46.3967 7.70505C46.4337 7.72781 46.4621 7.75909 46.4821 7.79891C46.5048 7.83589 46.519 7.87855 46.5247 7.92691C46.5332 7.97242 46.5375 8.01935 46.5375 8.0677C46.5375 8.11036 46.529 8.15445 46.5119 8.19996C46.4977 8.24547 46.4764 8.28671 46.4479 8.32369C46.4223 8.35782 46.3896 8.38626 46.3498 8.40902C46.31 8.43177 46.2645 8.44315 46.2133 8.44315C45.9658 8.44315 45.7155 8.45168 45.4624 8.46875C45.2121 8.48297 44.9618 8.50288 44.7115 8.52848C44.5835 8.54554 44.5195 8.60954 44.5195 8.72047C44.5195 8.729 44.5209 8.74038 44.5238 8.7546C44.5266 8.76597 44.528 8.77593 44.528 8.78446C44.5622 9.03192 44.5934 9.26373 44.6219 9.47989C44.6532 9.69606 44.6788 9.88947 44.6987 10.0601C44.7214 10.2279 44.7385 10.3687 44.7499 10.4825C44.7641 10.5934 44.7712 10.6674 44.7712 10.7044C44.7712 10.8068 44.7613 10.8921 44.7413 10.9603C44.7214 11.0315 44.6887 11.0883 44.6432 11.131C44.5977 11.1765 44.5366 11.2078 44.4598 11.2249C44.3858 11.2448 44.2919 11.2547 44.1782 11.2547C44.0701 11.2547 43.9904 11.2291 43.9393 11.1779C43.8881 11.1267 43.8596 11.0485 43.8539 10.9433C43.8369 10.6077 43.8098 10.2706 43.7729 9.93214C43.7359 9.59082 43.6932 9.25093 43.6449 8.91246C43.6193 8.79015 43.5553 8.729 43.4529 8.729C43.4443 8.729 43.4344 8.73042 43.423 8.73327C43.4116 8.73611 43.4017 8.73753 43.3931 8.73753C43.2168 8.77735 43.0504 8.81717 42.894 8.85699C42.7375 8.89681 42.5911 8.93948 42.4545 8.98499C42.3777 9.01058 42.3095 9.02907 42.2497 9.04045C42.19 9.04898 42.136 9.05325 42.0876 9.05325C42.0222 9.05325 41.9738 9.02481 41.9426 8.96792C41.9113 8.90819 41.8956 8.83424 41.8956 8.74606C41.8956 8.71478 41.8985 8.67922 41.9042 8.6394C41.9098 8.59674 41.9212 8.5555 41.9383 8.51568C41.9525 8.47301 41.9753 8.43461 42.0066 8.40048C42.035 8.36351 42.0748 8.33364 42.126 8.31089C42.2455 8.26253 42.4048 8.21276 42.6039 8.16156C42.803 8.10752 43.0277 8.05775 43.278 8.01224C43.3348 7.99802 43.3789 7.97526 43.4102 7.94397C43.4443 7.90984 43.4614 7.86007 43.4614 7.79465C43.4614 7.78043 43.4614 7.76621 43.4614 7.75198C43.4614 7.73492 43.4586 7.71785 43.4529 7.70079C43.4074 7.43911 43.3633 7.20161 43.3206 6.98829C43.2808 6.77212 43.2452 6.58725 43.214 6.43365C43.1855 6.28006 43.1628 6.15918 43.1457 6.07101C43.1286 5.98283 43.1201 5.93164 43.1201 5.91741Z" fill="#1E1E1E"/>
<path d="M10.3557 85.6854C21.2343 85.6854 64.7682 85.6854 75.6468 85.6854" stroke="#1E1E1E" stroke-width="2" stroke-linecap="round"/>
<path d="M28.0943 60.6262C30.2953 54.7028 38.634 31.0603 40.8641 25.1751M27.6677 60.0638C30.0553 54.2182 39.6271 31.4123 41.904 25.7071" stroke="#1E1E1E" stroke-linecap="round"/>
<path d="M41.2869 25.9807C43.9648 32.1711 54.666 55.6005 57.3165 61.63M43.3037 25.2873C45.8766 31.2213 54.2544 53.9899 56.4528 59.8439" stroke="#1E1E1E" stroke-linecap="round"/>
<path d="M57.9065 61.8531C52.7964 62.0022 32.4409 62.208 27.3109 62.3663M57.3864 61.5414C52.1864 61.7467 32.0213 62.4703 26.919 62.7627" stroke="#1E1E1E" stroke-linecap="round"/>
<path d="M42.5392 61.9216C42.5858 64.8021 42.6486 76.7572 42.7242 79.6664M42.1233 62.9174C42.0453 65.617 42.1114 75.9858 42.2079 78.8008" stroke="#1E1E1E" stroke-linecap="round"/>
<path d="M46.8622 69.9158C45.7932 69.8874 44.7142 69.8874 43.4967 69.9158C44.6944 69.9252 45.7635 69.9818 46.8622 69.9158ZM46.8622 69.9158C47.961 69.9063 47.7333 69.5664 48.5549 68.3107M46.8622 69.9158C47.763 70.9354 48.4658 68.3957 48.5549 68.3107M48.5549 68.3107C48.0896 66.4413 49.1092 67.3949 50.2376 66.7057M48.5549 68.3107C47.6046 67.3571 50.198 66.6396 50.2376 66.7057M50.2376 66.7057C51.1285 66.5735 52.4252 66.5924 53.6032 66.7057C51.8709 66.7529 51.0691 66.7057 50.2376 66.7057Z" stroke="#1E1E1E" stroke-linecap="round"/>
<path d="M53.4151 65.7993C53.4943 65.7899 53.7418 65.9692 53.9199 66.1203C54.108 66.2714 54.4742 66.5641 54.5039 66.7151C54.5237 66.8662 54.1278 66.9417 54.0486 67.0078C53.9694 67.0833 54.0981 66.9984 54.0189 67.1589C53.9496 67.3099 53.811 67.9803 53.623 67.9519C53.4349 67.9142 53.039 67.14 52.8905 66.97C52.7321 66.7906 52.6925 67.0928 52.6925 66.9228C52.6826 66.7434 52.7519 66.1297 52.8806 65.9315C52.9994 65.7238 53.2369 65.7899 53.425 65.7238C53.6032 65.6577 53.9892 65.516 53.9793 65.5349M53.4052 65.8559C53.5933 65.8371 53.5339 65.4594 53.6131 65.6671C53.7022 65.8748 53.7517 66.8001 53.91 67.1022C54.0684 67.4043 54.6128 67.5176 54.5732 67.4893C54.5237 67.4515 53.9694 66.9512 53.6131 66.9323C53.2666 66.9039 52.643 67.3194 52.4648 67.3477C52.2768 67.3855 52.3757 67.1872 52.5143 67.1211C52.6529 67.0644 53.128 67.1872 53.3062 66.9984C53.4745 66.819 53.4547 66.2147 53.5636 66.0353C53.6626 65.8654 53.9892 66.0637 53.9397 65.9598C53.8803 65.8559 53.3458 65.3461 53.2369 65.4311" fill="#1E1E1E"/>
<path d="M53.7714 65.856C53.9397 65.8938 53.9496 66.1487 54.0684 66.2053C54.1971 66.2714 54.4049 66.0826 54.5237 66.2337C54.6524 66.3753 54.9098 66.9418 54.8207 67.0928C54.7217 67.2439 54.1971 67.0645 53.9595 67.1306C53.7318 67.1873 53.5438 67.4516 53.425 67.4516C53.3161 67.4516 53.4844 67.2439 53.2864 67.1495C53.0884 67.0456 52.346 67.1023 52.2273 66.8757C52.1184 66.6397 52.3658 65.9315 52.6232 65.771C52.8707 65.6105 53.623 65.8466 53.7417 65.9032C53.8506 65.9599 53.2765 66.1298 53.2864 66.1015M53.1478 66.0165C53.3359 65.9599 53.7813 65.3745 54.009 65.5916C54.2466 65.7994 54.593 66.9795 54.5237 67.2817C54.4643 67.5838 53.6724 67.3572 53.6526 67.395C53.6329 67.4422 54.494 67.4516 54.4049 67.5366C54.3159 67.631 53.4547 68.1314 53.1379 67.9426C52.8212 67.7443 52.6826 66.5452 52.5044 66.3564C52.3361 66.1676 52.0986 66.9418 52.1283 66.8096C52.1481 66.6774 52.3361 65.7899 52.6727 65.5728C53.0092 65.3462 53.9892 65.4311 54.1575 65.4784C54.3159 65.5161 53.8308 65.6861 53.6724 65.8277" stroke="#1E1E1E" stroke-linecap="round"/>
<path d="M50.235 68.8871C50.2449 68.1979 50.2647 67.8391 50.235 67.3671C50.235 67.8203 50.235 68.3018 50.235 68.8871ZM50.235 68.8871C49.8094 69.6613 50.6508 70.6905 51.8287 70.4167M50.235 68.8871C49.6114 69.6425 50.4627 70.445 51.8287 70.4167M51.8287 70.4167C52.1157 70.4261 52.3632 70.4072 53.0561 70.4167M51.8287 70.4167C52.0861 70.4167 52.3632 70.4261 53.0561 70.4167M53.0561 70.4167C54.5409 70.4733 54.8577 71.0398 54.6498 71.9367M53.0561 70.4167C53.6401 69.9918 54.2142 71.4741 54.6498 71.9367M54.6498 71.9367C54.6993 72.3238 54.6696 72.7959 54.6498 73.4663C54.63 72.5976 54.6696 72.2672 54.6498 71.9367Z" stroke="#1E1E1E" stroke-linecap="round"/>
<path d="M54.7686 73.1641C54.8973 73.183 54.8874 73.2208 54.9369 73.3057C54.9864 73.3813 55.0853 73.5512 55.0457 73.6551C55.016 73.7589 54.7587 73.8722 54.7488 73.91C54.7488 73.9478 55.0853 73.8439 55.0259 73.8628C54.9567 73.8817 54.5112 74.0705 54.3627 74.0233C54.2143 73.9761 54.1945 73.674 54.1351 73.5984C54.0856 73.5229 54.0361 73.6079 54.0361 73.5607C54.0361 73.5134 53.9668 73.4002 54.1252 73.3152C54.2737 73.2396 54.8379 73.1358 54.9666 73.0791C55.0952 73.0225 54.9072 72.9847 54.9072 72.9942M54.9666 73.1263C54.9468 73.1641 54.6993 72.947 54.6399 73.0319C54.5904 73.1169 54.5904 73.5607 54.6201 73.6551C54.6399 73.7495 54.7389 73.5512 54.7884 73.589C54.8379 73.6362 54.9666 73.91 54.9072 73.8817C54.8478 73.8628 54.5508 73.589 54.432 73.4757C54.3033 73.3529 54.2143 73.2491 54.1846 73.1924C54.145 73.1358 54.1549 73.2113 54.2143 73.1358C54.2737 73.0603 54.4221 72.7865 54.5409 72.7392C54.6597 72.692 54.9171 72.8242 54.927 72.8431C54.927 72.8714 54.6003 72.8337 54.5508 72.8809" fill="#1E1E1E"/>
<path d="M54.7092 73.334C54.7587 73.3529 54.828 73.1358 54.8577 73.1452C54.8874 73.1546 54.8478 73.334 54.9072 73.3907C54.9666 73.4473 55.2438 73.419 55.1943 73.4757C55.1349 73.5323 54.6894 73.74 54.5905 73.7495C54.5014 73.7495 54.6894 73.5606 54.6201 73.5134C54.5608 73.4662 54.244 73.5417 54.1945 73.4662C54.145 73.3907 54.3133 73.1641 54.3232 73.0697C54.3331 72.9753 54.1648 72.8808 54.2638 72.8997C54.3628 72.9281 54.828 73.183 54.9171 73.2113C55.0161 73.2302 54.9171 73.098 54.8379 73.0414M55.0359 73.4757C55.1844 73.4757 55.1646 73.2302 55.1943 73.2302C55.2141 73.2302 55.2438 73.4568 55.1547 73.4851C55.0656 73.504 54.7686 73.2396 54.6597 73.3529C54.5509 73.4662 54.541 74.0516 54.5014 74.146C54.4717 74.231 54.541 73.8816 54.4519 73.8722C54.3628 73.8722 54.046 74.1649 53.9569 74.1082C53.858 74.061 53.8184 73.7589 53.8877 73.5417C53.9569 73.3246 54.2638 72.9469 54.3628 72.8336C54.4717 72.7203 54.4024 72.8431 54.5311 72.862C54.6498 72.8808 55.1646 72.9281 55.1151 72.9186" stroke="#1E1E1E" stroke-linecap="round"/>
<path d="M45.9364 67.695C45.8869 68.4692 45.8968 69.0168 45.9364 69.5833C45.9364 68.8846 45.9463 68.2048 45.9364 67.695ZM45.9364 67.695C45.8473 66.7131 45.7978 67.1285 46.5798 67.0908M45.9364 67.695C46.075 67.374 45.6196 67.8083 46.5798 67.0908M46.5798 67.0908C46.4313 66.6187 47.342 66.6092 47.2133 66.4771M46.5798 67.0908C46.4115 66.6187 47.9458 67.2324 47.2133 66.4771M47.2133 66.4771C47.1836 65.8917 47.1836 65.3818 47.2133 64.5982C47.243 65.4007 47.1935 65.9767 47.2133 66.4771Z" stroke="#1E1E1E" stroke-linecap="round"/>
<path d="M47.0945 64.1544C47.144 64.1072 47.4706 64.1733 47.4805 64.2489C47.4805 64.3244 47.1539 64.5321 47.1143 64.6076C47.0846 64.6832 47.2529 64.6737 47.2825 64.6926C47.3023 64.702 47.2825 64.6643 47.243 64.702C47.2133 64.7398 47.1044 64.8814 47.0747 64.9098C47.045 64.9381 47.045 64.9286 47.0549 64.872C47.0549 64.8248 47.1242 64.6832 47.1044 64.6171C47.0846 64.5415 46.8767 64.5132 46.9361 64.466C46.9856 64.4282 47.3518 64.3999 47.4112 64.3338C47.4805 64.2772 47.3617 64.1261 47.3419 64.1072M47.1935 64.6076C47.1935 64.6643 46.8371 64.7776 46.8668 64.787C46.8965 64.8059 47.3221 64.7587 47.3815 64.6832C47.4409 64.5982 47.1638 64.23 47.2133 64.3055C47.2627 64.381 47.7577 65.0797 47.6785 65.1458C47.5894 65.2119 46.8767 64.702 46.7084 64.702C46.5402 64.702 46.5995 65.2497 46.6589 65.1552C46.7282 65.0514 47.1143 64.2677 47.1044 64.1167C47.0945 63.9562 46.5501 64.1167 46.6292 64.23C46.7084 64.3527 47.5399 64.7209 47.5795 64.8248C47.629 64.9286 46.9559 64.9759 46.8965 64.8531" fill="#1E1E1E"/>
<path d="M47.4112 64.3622C47.53 64.3999 47.5003 64.4377 47.4706 64.4849C47.4409 64.5227 47.2627 64.6077 47.2429 64.6265C47.233 64.6549 47.4112 64.636 47.3716 64.6265C47.332 64.6265 47.0252 64.5604 46.9955 64.5888C46.9559 64.6265 47.1637 64.8437 47.1835 64.8248C47.2033 64.8059 47.0648 64.5227 47.0945 64.4755C47.1241 64.4377 47.3914 64.5321 47.3518 64.5699C47.3122 64.6077 46.8272 64.7682 46.847 64.7115C46.8668 64.6549 47.4607 64.2583 47.4706 64.2206C47.4805 64.1733 46.9658 64.4377 46.8866 64.4566M46.8965 64.0317C46.8074 63.9373 46.8074 64.0506 46.9064 64.0978C47.0054 64.1545 47.4805 64.3055 47.4904 64.3527C47.5102 64.3905 46.9559 64.2678 46.9955 64.3716C47.045 64.4755 47.7478 64.9381 47.7676 64.9853C47.7874 65.0325 47.2429 64.7493 47.1043 64.6643C46.9658 64.5699 47.0153 64.4944 46.946 64.4377C46.8668 64.3716 46.6787 64.3244 46.6886 64.3055C46.6985 64.2961 46.847 64.4283 47.0054 64.3716C47.1637 64.315 47.6092 63.9184 47.6191 63.9845C47.6191 64.0506 47.0054 64.7304 47.0153 64.7493" stroke="#1E1E1E" stroke-linecap="round"/>
<path d="M45.5878 72.4123C45.6472 71.8835 45.5482 71.2132 45.5878 70.5806C45.5581 71.1566 45.5779 71.8175 45.5878 72.4123ZM45.5878 72.4123C46.1223 74.2534 46.4589 74.3572 47.5081 74.2345M45.5878 72.4123C44.9444 74.1212 45.9145 73.8379 47.5081 74.2345M47.5081 74.2345C47.7655 74.2628 48.0328 74.2534 48.4386 74.2345M47.5081 74.2345C47.8447 74.2345 48.1911 74.2439 48.4386 74.2345M48.4386 74.2345C50.1907 74.0645 50.7054 74.4233 50.349 76.0661M48.4386 74.2345C49.8739 74.0929 49.7947 75.1881 50.349 76.0661M50.349 76.0661C50.4084 76.4532 50.2995 76.9158 50.349 77.8978C50.349 77.2841 50.3787 76.6798 50.349 76.0661Z" stroke="#1E1E1E" stroke-linecap="round"/>
<path d="M50.0916 77.3502C50.2104 77.3974 50.5173 77.4635 50.6658 77.6051C50.8142 77.7373 50.9132 78.0866 50.9627 78.1621C51.0221 78.2377 51.0419 77.9922 51.0122 78.0677C50.9726 78.1527 50.9231 78.5492 50.745 78.6437C50.5668 78.7381 50.0719 78.7192 49.9333 78.6342C49.7848 78.5587 49.8739 78.3415 49.8838 78.1621C49.9036 77.9828 49.9531 77.6712 50.0125 77.5484C50.0719 77.4257 50.2005 77.4352 50.25 77.4163C50.2896 77.3974 50.2401 77.4257 50.2599 77.4446C50.2797 77.454 50.2896 77.5012 50.3688 77.5107M50.5668 77.6617C50.745 77.5862 51.0617 77.3502 51.1904 77.3313C51.3092 77.3124 51.2993 77.3785 51.3092 77.5484C51.3191 77.7184 51.3785 78.2754 51.2399 78.3415C51.1112 78.4171 50.7252 77.9544 50.5173 77.9639C50.3094 77.9733 50.0719 78.4454 49.9729 78.4076C49.8838 78.3793 49.8838 77.9072 49.9432 77.7562C49.9927 77.6145 50.349 77.539 50.2995 77.5296C50.25 77.5296 49.6264 77.7373 49.6462 77.7467C49.666 77.7467 50.2203 77.7184 50.4183 77.5862C50.6163 77.4446 50.8439 76.9631 50.8439 76.9348" fill="#1E1E1E"/>
<path d="M50.4084 77.3313C50.4678 77.2841 50.646 77.0953 50.6757 77.1425C50.7054 77.1991 50.5074 77.4352 50.5866 77.6429C50.6658 77.8506 51.1112 78.2377 51.1706 78.3793C51.2201 78.5209 51.0617 78.5304 50.9132 78.4926C50.7648 78.4548 50.3985 78.2094 50.2599 78.1433C50.1312 78.0677 50.2203 78.1244 50.1114 78.0677C50.0026 78.0111 49.6363 77.8789 49.6066 77.8223C49.5769 77.7562 49.8343 77.7467 49.9234 77.709C50.0224 77.6806 50.1312 77.6429 50.1708 77.6146C50.2203 77.5957 50.1411 77.624 50.2005 77.5579M50.7944 77.5579C50.933 77.539 51.0122 77.3691 51.0716 77.3596C51.1409 77.3408 51.1904 77.3596 51.1706 77.4824C51.1508 77.6051 51.1112 77.8789 50.9429 78.0677C50.7747 78.2566 50.3787 78.4926 50.1807 78.6154C49.9828 78.7475 49.8244 78.8514 49.7551 78.8325C49.6957 78.8231 49.7947 78.7664 49.7848 78.5209C49.7749 78.2755 49.6066 77.5296 49.7155 77.3785C49.8145 77.2275 50.2995 77.6712 50.4183 77.624C50.5272 77.5862 50.3688 77.1425 50.4084 77.133C50.4579 77.1142 50.7153 77.4446 50.6955 77.539" stroke="#1E1E1E" stroke-linecap="round"/>
<path d="M38.9626 74.3484C40.289 74.2729 41.0314 74.4239 41.754 74.3484C40.6651 74.3389 39.6951 74.3578 38.9626 74.3484ZM38.9626 74.3484C37.2699 75.2548 36.7948 73.036 36.1811 71.6859M38.9626 74.3484C38.0123 75.1509 35.5872 74.3767 36.1811 71.6859M36.1811 71.6859C36.1415 71.4026 36.1712 71.0344 36.1811 70.6945M36.1811 71.6859C36.2009 71.3743 36.191 71.0439 36.1811 70.6945M36.1811 70.6945C36.7255 69.2406 35.8643 68.8723 33.3897 68.032M36.1811 70.6945C35.7356 69.7882 34.528 68.9762 33.3897 68.032M33.3897 68.032C32.4295 68.032 31.5683 67.9187 30.5983 68.032C31.2021 68.0793 32.3206 68.0226 33.3897 68.032Z" stroke="#1E1E1E" stroke-linecap="round"/>
<path d="M30.5784 67.0029C30.7566 67.069 31.202 67.4561 31.4396 67.6072C31.6673 67.7677 31.9246 67.7771 32.0038 67.9282C32.0731 68.0698 31.984 68.2303 31.8751 68.4852C31.7761 68.7401 31.5683 69.4199 31.3802 69.4766C31.1822 69.5238 30.9249 68.9384 30.6972 68.8062C30.4695 68.6646 30.2122 68.8251 30.0043 68.6363C29.7964 68.4569 29.4104 67.8715 29.4302 67.6827C29.45 67.4939 29.9548 67.7016 30.1429 67.5127C30.3408 67.3239 30.4695 66.6253 30.5883 66.5686C30.6972 66.5214 30.8556 67.0973 30.8556 67.2012M31.1228 66.8518C31.3109 66.8707 31.786 67.1068 31.9345 67.3334C32.0929 67.56 32.182 67.9565 32.0434 68.202C31.9048 68.438 31.3109 68.7213 31.103 68.7873C30.8952 68.844 30.9645 68.5324 30.8061 68.5796C30.6477 68.6268 30.3705 69.0989 30.1429 69.0611C29.9053 69.0234 29.4599 68.6646 29.4005 68.3625C29.3411 68.0509 29.6875 67.3334 29.7865 67.2201C29.8855 67.1162 29.8954 67.6355 30.0043 67.7016C30.1231 67.7771 30.3111 67.6638 30.4596 67.6449C30.6081 67.626 30.7863 67.6449 30.8952 67.5883" fill="#1E1E1E"/>
<path d="M31.0634 66.833C31.2713 66.8235 31.0139 66.6913 31.1129 66.8613C31.2119 67.0312 31.5584 67.5316 31.6376 67.8526C31.7167 68.1642 31.6277 68.4947 31.5683 68.7401C31.5188 68.9951 31.5881 69.25 31.3109 69.3444C31.0337 69.4482 30.1132 69.5332 29.8954 69.3444C29.6677 69.1461 29.9647 68.4475 29.9845 68.1925C30.0043 67.9376 29.9845 67.9187 30.0043 67.796C30.0241 67.6638 30.0241 67.5222 30.1033 67.4372C30.1825 67.3617 30.3606 67.3995 30.4695 67.2956C30.5784 67.1917 30.6972 66.8424 30.7665 66.7952M31.0733 67.0312C31.2515 67.0407 31.598 67.2862 31.7761 67.5505C31.9543 67.8054 32.2315 68.3153 32.1226 68.5985C32.0236 68.8723 31.4594 69.0328 31.1723 69.2122C30.8853 69.3916 30.519 69.7032 30.3903 69.6654C30.2518 69.6276 30.6081 69.2311 30.3606 68.9951C30.1132 68.759 29.054 68.438 28.9253 68.2586C28.8066 68.0698 29.5391 67.9471 29.6281 67.881C29.7172 67.8149 29.3114 68.0981 29.4401 67.8621C29.5589 67.626 30.0736 66.578 30.3606 66.4459C30.6477 66.3042 31.0436 66.8235 31.1525 67.0407" stroke="#1E1E1E" stroke-linecap="round"/>
<path d="M35.9449 68.0613C35.9845 68.675 35.9152 68.911 35.9449 69.2509C35.935 68.996 35.9449 68.7411 35.9449 68.0613ZM35.9449 68.0613C36.4299 67.221 36.7467 66.3996 37.1921 66.8717M35.9449 68.0613C36.3012 67.5042 36.0043 67.1643 37.1921 66.8717M37.1921 66.8717C37.2416 66.8717 37.2911 66.8717 37.3703 66.8717M37.1921 66.8717C37.2317 66.8622 37.2713 66.8717 37.3703 66.8717M37.3703 66.8717C38.4888 66.8528 38.964 66.1919 38.6175 65.6726M37.3703 66.8717C38.2117 66.4374 39.2312 66.0786 38.6175 65.6726M38.6175 65.6726C38.6571 65.3327 38.6175 65.0117 38.6175 64.483C38.6175 65.0495 38.6373 65.3799 38.6175 65.6726Z" stroke="#1E1E1E" stroke-linecap="round"/>
<path d="M38.4493 64.228C38.5681 64.1525 38.9343 64.1242 38.9541 64.1903C38.964 64.2564 38.5285 64.6057 38.5384 64.6151C38.5483 64.6246 39.0333 64.2847 39.0135 64.2469C38.9937 64.2091 38.5582 64.3224 38.4394 64.3791C38.3107 64.4357 38.2414 64.5207 38.2711 64.5679C38.3008 64.6246 38.5384 64.7284 38.6077 64.7001C38.677 64.6812 38.6572 64.4546 38.6869 64.4263C38.7067 64.4074 38.7562 64.634 38.7364 64.5679C38.7067 64.5113 38.5681 64.0864 38.5285 64.0486C38.479 64.0109 38.4592 64.3508 38.4592 64.3508M38.2612 64.3319C38.2909 64.3791 39.0333 64.2186 39.0531 64.2469C39.063 64.2847 38.4394 64.4263 38.3503 64.5207C38.2612 64.6246 38.4988 64.8417 38.5285 64.8606C38.5681 64.8701 38.4592 64.6623 38.5384 64.6246C38.6077 64.5774 39.0036 64.549 38.9838 64.5962C38.964 64.6435 38.5186 64.8701 38.4196 64.9173C38.3206 64.9739 38.3503 64.9361 38.3899 64.9078C38.4394 64.8795 38.6671 64.8417 38.6869 64.7662C38.7067 64.6812 38.5384 64.4924 38.4988 64.4169C38.4691 64.3319 38.5186 64.3224 38.4988 64.2564" fill="#1E1E1E"/>
<path d="M38.2909 64.5774C38.2315 64.5113 38.4294 64.3225 38.4888 64.3036C38.5482 64.2847 38.6373 64.3885 38.6373 64.4641C38.6274 64.5396 38.4393 64.719 38.4393 64.7756C38.4492 64.8323 38.6868 64.804 38.667 64.804C38.6472 64.804 38.3503 64.8417 38.3404 64.7756C38.3305 64.719 38.5581 64.4924 38.6076 64.4263C38.6472 64.3602 38.5977 64.398 38.5977 64.3885C38.5977 64.3791 38.5977 64.3413 38.6076 64.3791C38.6076 64.4263 38.5977 64.5868 38.6274 64.6246C38.6571 64.6623 38.8353 64.634 38.7858 64.6057M38.7957 64.5868C38.7957 64.6435 38.9145 64.4263 38.9541 64.3791C38.9937 64.3224 39.0729 64.2847 39.0333 64.2752C39.0036 64.2564 38.7462 64.2752 38.7462 64.2941C38.7462 64.313 39.1125 64.3885 39.0531 64.3791C38.9937 64.3602 38.4294 64.1053 38.3998 64.1997C38.3602 64.2941 38.8551 64.9173 38.8254 64.9456C38.7858 64.9739 38.281 64.5018 38.2018 64.3697C38.1127 64.2375 38.3305 64.2092 38.3206 64.1619C38.3206 64.1147 38.0632 64.0203 38.1622 64.0959C38.2612 64.1808 38.8452 64.6529 38.9244 64.6246" stroke="#1E1E1E" stroke-linecap="round"/>
<path d="M35.2213 72.0212C35.7954 72.0118 36.3101 72.059 36.8743 72.0212C36.518 71.9929 36.1716 72.0401 35.2213 72.0212ZM35.2213 72.0212C33.5088 71.5869 33.5484 72.9843 33.5583 73.598M35.2213 72.0212C33.9345 71.417 33.687 72.2195 33.5583 73.598M33.5583 73.598C33.588 73.9473 33.5583 74.3155 33.5583 74.5421M33.5583 73.598C33.5781 73.8623 33.5682 74.1361 33.5583 74.5421M33.5583 74.5421C33.4494 75.3446 32.5883 76.4304 31.9053 76.1188M33.5583 74.5421C34.0236 75.6279 32.5685 76.572 31.9053 76.1188M31.9053 76.1188C31.5588 76.1566 31.2421 76.1094 30.2522 76.1188C30.569 76.1472 31.2421 76.1377 31.9053 76.1188Z" stroke="#1E1E1E" stroke-linecap="round"/>
<path d="M30.2622 75.5146C30.3315 75.5523 30.2325 75.7412 30.2919 75.8828C30.3513 76.015 30.579 76.3077 30.6185 76.3454C30.668 76.3832 30.6284 76.1094 30.5493 76.0999C30.4701 76.0905 30.1731 76.2793 30.1335 76.2982C30.084 76.3171 30.2622 76.2132 30.2622 76.2321C30.2721 76.251 30.1929 76.4682 30.1434 76.421C30.0939 76.3643 29.9355 75.9866 29.9553 75.9206C29.985 75.8545 30.2325 76.0622 30.2919 75.9961C30.3513 75.93 30.3117 75.5618 30.3018 75.5146C30.2919 75.4674 30.2028 75.6468 30.2226 75.694M29.8465 75.9961C30.0642 75.93 30.8759 75.5429 30.9254 75.5523C30.9749 75.5618 30.183 75.9017 30.1533 76.0527C30.1335 76.2132 30.8264 76.4304 30.7868 76.4776C30.7472 76.5248 30.0048 76.2699 29.9256 76.3549C29.8366 76.4304 30.2523 77.0441 30.2523 76.9591C30.2424 76.8741 29.9157 76.0905 29.8762 75.8639C29.8366 75.6373 30.0345 75.694 30.0147 75.6184C30.0048 75.5335 29.797 75.3541 29.8069 75.3824C29.8168 75.4013 30.0444 75.6562 30.0543 75.7695C30.0741 75.8922 29.8168 76.1377 29.8762 76.0999" fill="#1E1E1E"/>
<path d="M29.9949 75.5807C30.0444 75.5901 30.4997 75.694 30.5591 75.7506C30.6185 75.8073 30.2918 75.8545 30.3413 75.9017C30.3908 75.9583 30.866 75.9583 30.8264 76.0622C30.7967 76.1566 30.2127 76.4304 30.1236 76.4871C30.0345 76.5437 30.3908 76.4115 30.3017 76.3927C30.2226 76.3643 29.7078 76.3549 29.6088 76.3266C29.5099 76.2982 29.6583 76.3077 29.7177 76.2227C29.7672 76.1283 29.787 75.8828 29.9256 75.8073C30.0741 75.7223 30.5195 75.694 30.5789 75.7223C30.6284 75.7506 30.3215 75.9206 30.2622 75.9867M30.3512 75.6373C30.3512 75.6279 30.4502 75.5429 30.4403 75.6562C30.4403 75.7695 30.2523 76.1944 30.3314 76.3077C30.4007 76.421 30.9353 76.2699 30.8858 76.3549C30.8462 76.4304 30.2721 76.7892 30.0741 76.7798C29.8761 76.7798 29.6682 76.3927 29.6682 76.3266C29.6781 76.2605 30.0147 76.3549 30.1038 76.3832C30.183 76.4021 30.2226 76.4871 30.183 76.4682C30.1335 76.4587 29.8761 76.4021 29.8464 76.2794C29.8167 76.1566 29.9652 75.779 30.0048 75.7318C30.0444 75.694 30.1137 75.9583 30.084 76.0433" stroke="#1E1E1E" stroke-linecap="round"/>
<path d="M39.5465 72.1296C39.5069 72.866 39.5069 73.6025 39.5465 74.3484C39.5267 73.8668 39.5366 73.3381 39.5465 72.1296ZM39.5465 72.1296C39.0219 71.6292 39.0812 72.4223 39.7741 71.9125M39.5465 72.1296C39.9919 72.3657 38.9625 71.3082 39.7741 71.9125M39.7741 71.9125C39.596 72.0918 40.6155 71.7614 40.0117 71.6859M39.7741 71.9125C40.6749 71.261 40.7046 72.1863 40.0117 71.6859M40.0117 71.6859C39.9622 71.1666 40.0513 70.8267 40.0117 69.4766C40.0018 70.3357 40.0018 71.0533 40.0117 71.6859Z" stroke="#1E1E1E" stroke-linecap="round"/>
<path d="M39.8038 69.5426C39.8236 69.4482 39.8632 69.1461 39.9325 69.0894C40.0018 69.0234 40.1601 69.1272 40.2195 69.1839C40.269 69.2499 40.3284 69.3821 40.2591 69.4577C40.1898 69.5238 39.8533 69.5804 39.7939 69.6182C39.7345 69.6559 39.9523 69.7126 39.9127 69.6654C39.8731 69.6087 39.5464 69.3538 39.5761 69.316C39.6157 69.2783 40.081 69.3916 40.1205 69.4482C40.1502 69.5049 39.7642 69.6276 39.7939 69.6465C39.8236 69.6654 40.2789 69.571 40.2987 69.5521C40.3086 69.5426 39.883 69.637 39.883 69.5615M40.4274 69.7692C40.4967 69.9014 40.5066 69.7503 40.4373 69.7126C40.3779 69.6843 40.1799 69.5332 40.0513 69.5521C39.9325 69.571 39.6256 69.7976 39.6949 69.8259C39.7543 69.8542 40.3383 69.7409 40.4274 69.7126C40.5165 69.6843 40.2987 69.7126 40.2195 69.6654C40.1502 69.6087 40.0513 69.4105 39.9919 69.3916C39.9226 69.3821 39.7939 69.5143 39.8137 69.571C39.8335 69.6276 40.1106 69.8164 40.1205 69.722C40.1304 69.6276 39.9622 69.0045 39.8731 68.9856C39.7939 68.9761 39.5761 69.5615 39.6256 69.6465" fill="#1E1E1E"/>
<path d="M39.7642 69.1461C39.784 69.08 39.8335 69.1083 39.9226 69.1272C40.0018 69.1556 40.2691 69.2689 40.279 69.3066C40.2988 69.3349 40.0711 69.2972 40.0018 69.3066C39.9424 69.3255 39.8434 69.2877 39.883 69.3727C39.9127 69.4577 40.1899 69.8259 40.2196 69.807C40.2394 69.7976 40.1404 69.3633 40.0315 69.2783C39.9226 69.1933 39.5564 69.2877 39.5663 69.2972C39.5762 69.2972 40.0513 69.3066 40.1107 69.3066C40.1701 69.3161 39.9523 69.3161 39.9424 69.3066C39.9226 69.2972 39.9523 69.2594 40.0216 69.25M40.1305 69.0234C40.1998 69.0234 39.784 69.4199 39.8731 69.486C39.9523 69.5427 40.5066 69.4482 40.6353 69.3916C40.764 69.3349 40.665 69.0611 40.6452 69.1367C40.6254 69.2122 40.7145 69.7976 40.5264 69.8637C40.3285 69.9203 39.6652 69.5993 39.4871 69.5049C39.3188 69.4105 39.497 69.2405 39.4871 69.2689C39.4772 69.2972 39.2891 69.6465 39.4178 69.656C39.5465 69.6654 40.1107 69.3349 40.2493 69.3349C40.3779 69.3349 40.279 69.5993 40.2295 69.656C40.18 69.7126 39.9919 69.807 39.9523 69.6937" stroke="#1E1E1E" stroke-linecap="round"/>
<path d="M41.5589 21.1625C41.9756 21.0825 42.2107 21.2459 42.5933 21.4679C42.9758 21.6993 43.6236 22.0567 43.8248 22.5126C44.0258 22.978 44.0335 23.8096 43.7998 24.232C43.5662 24.6449 42.8901 24.8729 42.4426 25.0281C41.9952 25.1834 41.5386 25.2818 41.1251 25.1445C40.7115 25.0073 40.2136 24.5477 39.9615 24.1951C39.6995 23.8423 39.5171 23.4622 39.573 23.0188C39.6389 22.566 39.9768 21.7859 40.3172 21.5065C40.6578 21.2178 41.4379 21.3217 41.6162 21.3049C41.7944 21.2976 41.426 21.4632 41.3669 21.4436M41.5899 21.0778C42.0042 21.1584 43.1399 21.3044 43.5699 21.6686C43.9999 22.0329 44.1778 22.7248 44.1699 23.2727C44.152 23.8205 43.7731 24.7041 43.502 24.9748C43.2211 25.2454 42.9897 24.8269 42.5235 24.9063C42.0575 24.9763 41.1881 25.5705 40.6857 25.4227C40.193 25.2845 39.7971 24.6183 39.5481 24.0484C39.299 23.4879 38.9777 22.4541 39.1817 22.0314C39.3857 21.6087 40.3854 21.583 40.7923 21.4934C41.1993 21.4038 41.5039 21.5492 41.6334 21.4846C41.763 21.4201 41.5191 21.1809 41.5698 21.0965" fill="white"/>
<path d="M41.4445 20.8685C41.8407 20.8355 42.2176 21.4447 42.5995 21.7138C42.9913 21.9831 43.5243 22.0651 43.7557 22.4836C43.9869 22.9116 44.1115 23.8673 43.967 24.2812C43.8325 24.6859 43.3176 24.7174 42.8892 24.9201C42.4708 25.1229 41.9506 25.5229 41.4168 25.4881C40.8831 25.4533 40.0166 25.1783 39.7065 24.7305C39.3964 24.2828 39.4614 23.2159 39.5668 22.7732C39.672 22.3399 39.9791 22.3152 40.3287 22.0832C40.6684 21.8512 41.4549 21.5111 41.6351 21.3621C41.8054 21.2224 41.4693 21.1995 41.3899 21.2174M42.0124 21.2722C42.4084 21.2486 42.8015 21.4329 43.1328 21.777C43.4543 22.121 43.8782 22.9008 43.9808 23.3272C44.0934 23.7537 44.138 24.0849 43.7782 24.3356C43.4085 24.5863 42.2296 24.7043 41.7725 24.8405C41.3057 24.9671 41.3016 25.2505 40.9768 25.1332C40.6521 25.0159 40.0747 24.5838 39.8141 24.1366C39.5635 23.6801 39.3473 22.9028 39.4532 22.4222C39.5691 21.9324 40.1012 21.4003 40.4799 21.2064C40.8488 21.0125 41.4587 21.2466 41.6762 21.2587C41.8937 21.2707 41.6957 21.2778 41.785 21.26" stroke="#1E1E1E" stroke-linecap="round"/>
</svg>
