<svg width="81" height="117" viewBox="0 0 81 117" fill="none" xmlns="http://www.w3.org/2000/svg">
<g clip-path="url(#clip0_22_24)">
<path d="M78.536 57.6224C78.5736 58.1265 78.5642 58.6782 78.536 59.2014C78.5171 58.6497 78.536 58.1456 78.536 57.6224ZM78.536 57.6224C78.9315 57.6034 79.0446 57.2324 79.3177 56.8234M78.536 57.6224C78.7808 57.2229 79.1293 56.2526 79.3177 56.8234M79.3177 56.8234C80.1748 56.6046 80.3067 56.3953 80.0994 56.0339M79.3177 56.8234C79.1953 56.148 79.9111 56.5475 80.0994 56.0339M80.0994 56.0339C80.1465 55.5107 80.0712 55.0351 80.0994 54.4548C80.0806 55.1492 80.1277 55.5773 80.0994 56.0339Z" stroke="#1E1E1E" stroke-linecap="round"/>
<path d="M80.2878 54.2931C80.2596 54.2646 80.2031 54.5405 80.156 54.5214C80.1183 54.4929 80.0241 54.1505 80.0335 54.1505C80.0524 54.1505 80.2596 54.4548 80.2407 54.5214C80.2219 54.5975 79.9394 54.5309 79.9017 54.588C79.8734 54.6451 79.977 54.9019 80.0241 54.8544C80.0618 54.8163 80.1183 54.3978 80.1466 54.3312C80.1748 54.2646 80.1748 54.4929 80.1842 54.4644C80.2031 54.4358 80.2973 54.1885 80.2407 54.179C80.1842 54.1695 79.8357 54.3692 79.864 54.3978C79.8828 54.4263 80.3632 54.3883 80.3914 54.3692M79.7698 53.9317C79.7887 54.0173 79.9394 54.569 79.9299 54.7117C79.9299 54.8544 79.7133 54.7402 79.7416 54.7783C79.7604 54.8163 79.9299 54.978 80.0712 54.9209C80.2125 54.8734 80.6175 54.4739 80.5798 54.4834C80.5516 54.4929 79.9111 55.0161 79.8828 54.9685C79.8546 54.9305 80.3726 54.2551 80.4103 54.217C80.4574 54.179 80.1654 54.7592 80.1277 54.7307C80.0995 54.7022 80.1466 54.16 80.2031 54.0268C80.269 53.9031 80.5892 53.8366 80.4856 53.9412C80.3914 54.0553 79.6756 54.569 79.6285 54.7022" fill="#1E1E1E"/>
<path d="M80.2313 54.217C80.1937 54.1695 80.156 54.0648 80.1277 54.0934C80.0995 54.1219 80.0053 54.2836 80.043 54.3787C80.0806 54.4834 80.2879 54.6546 80.3444 54.7022C80.4009 54.7497 80.4009 54.6736 80.3915 54.6641C80.3726 54.6546 80.3161 54.6546 80.269 54.6451C80.2125 54.6451 80.156 54.6831 80.0806 54.6356C79.9959 54.588 79.7322 54.3597 79.7604 54.3692C79.7981 54.3787 80.1842 54.6641 80.269 54.6926C80.3444 54.7117 80.2408 54.5024 80.2502 54.4929C80.2596 54.4834 80.3538 54.6641 80.3161 54.6166M79.9865 54.3217C80.0053 54.3312 80.3538 54.2075 80.4103 54.2075C80.4668 54.2075 80.4574 54.3312 80.3444 54.3026C80.2408 54.2741 79.8263 54.0078 79.7698 54.0458C79.7133 54.0839 79.9394 54.4548 80.0147 54.5214C80.0901 54.5975 80.1748 54.4168 80.2125 54.4834C80.2502 54.5405 80.2784 54.9685 80.2408 54.9114C80.1937 54.8544 79.9488 54.2456 79.9676 54.1314C79.9959 54.0268 80.3915 54.2266 80.382 54.2741C80.382 54.3122 79.9488 54.4073 79.9582 54.3692C79.9582 54.3312 80.4668 54.0648 80.4197 54.0268" stroke="#1E1E1E" stroke-linecap="round"/>
<path d="M22.1191 1.31118C35.8608 2.2624 45.9482 2.48118 60.1702 1.31118C72.2072 4.68801 80.505 5.83898 79.1958 20.5258C77.0861 45.6285 79.7609 79.0829 79.1958 98.0978C79.3089 110.368 72.0094 115.001 60.1702 117.312C47.6623 115.21 43.6218 113.527 22.1191 117.312C11.9564 116.437 6.20165 114.069 3.09351 98.0978C6.45595 73.5658 4.55339 55.3119 3.09351 20.5258C4.32734 5.16362 12.2766 -1.64711 22.1191 1.31118Z" fill="white"/>
<path d="M22.1191 1.31115C32.0463 -0.572262 41.9076 -0.296408 60.1702 1.31115M22.1191 1.31115C36.539 2.27188 49.094 2.36701 60.1702 1.31115M22.1191 1.31115C8.3679 3.00432 3.44197 6.3431 3.09348 20.5258M22.1191 1.31115C9.00837 1.31115 5.13732 9.0731 3.09348 20.5258M60.1702 1.31115C72.2072 0.512129 80.2224 9.13018 79.1958 20.5258M60.1702 1.31115C73.1679 2.58579 81.2208 9.74847 79.1958 20.5258M79.1958 20.5258C81.2302 47.236 81.5881 72.8524 79.1958 98.0977M79.1958 20.5258C78.0185 46.3133 78.706 73.5182 79.1958 98.0977M79.1958 98.0977C80.392 112.452 73.5917 118.52 60.1702 117.312M79.1958 98.0977C79.9399 111.291 73.8366 115.581 60.1702 117.312M60.1702 117.312C50.2901 118.511 40.0144 119.224 22.1191 117.312M60.1702 117.312C50.4596 116.656 39.5529 117.056 22.1191 117.312M22.1191 117.312C10.44 116.656 3.69628 110.407 3.09348 98.0977M22.1191 117.312C7.50139 115.267 2.50953 110.844 3.09348 98.0977M3.09348 98.0977C4.79825 72.4909 1.98209 48.6058 3.09348 20.5258M3.09348 98.0977C3.97883 76.0009 2.48128 54.8077 3.09348 20.5258" stroke="#1E1E1E" stroke-width="2" stroke-linecap="round"/>
<path d="M11.3962 83.7111C21.7473 83.7111 63.1703 83.7111 73.5214 83.7111" stroke="#1E1E1E" stroke-width="2" stroke-linecap="round"/>
<path d="M10.7074 98.7595C10.6979 97.9034 10.6791 94.4695 10.6697 93.6134" stroke="#1E1E1E" stroke-linecap="round"/>
<path d="M10.6396 93.8063C10.8751 93.4639 11.8264 92.1131 12.0619 91.7707" stroke="#1E1E1E" stroke-linecap="round"/>
<path d="M13.4678 98.8205C13.4772 97.9644 13.496 94.5305 13.5054 93.6744" stroke="#1E1E1E" stroke-linecap="round"/>
<path d="M13.5356 93.8674C13.3001 93.525 12.3489 92.1742 12.1134 91.8318" stroke="#1E1E1E" stroke-linecap="round"/>
<path d="M8.6239 99.2831C9.7353 99.2641 14.162 99.188 15.264 99.1689" stroke="#1E1E1E" stroke-linecap="round"/>
<path d="M12.2579 99.3691C12.2674 99.9683 12.305 102.384 12.3144 102.984" stroke="#1E1E1E" stroke-linecap="round"/>
<path d="M51.2616 94.6902C51.6007 94.3382 52.9569 92.9114 53.296 92.5499" stroke="#1E1E1E" stroke-linecap="round"/>
<path d="M53.2917 92.5117C53.6685 92.8256 55.1566 94.0812 55.5334 94.3951" stroke="#1E1E1E" stroke-linecap="round"/>
<path d="M55.618 94.6475C54.9681 95.6558 52.378 99.6985 51.7281 100.716" stroke="#1E1E1E" stroke-linecap="round"/>
<path d="M51.3251 94.6902C50.986 94.3382 49.6297 92.9114 49.2906 92.5499" stroke="#1E1E1E" stroke-linecap="round"/>
<path d="M49.2949 92.5117C48.9181 92.8256 47.43 94.0812 47.0532 94.3951" stroke="#1E1E1E" stroke-linecap="round"/>
<path d="M46.9686 94.6475C47.6185 95.6558 50.2086 99.6985 50.8585 100.716" stroke="#1E1E1E" stroke-linecap="round"/>
<path d="M27.7984 1.47467C35.079 1.47467 42.3596 1.47467 53.417 1.47467C55.7528 1.47467 56.9302 2.65418 56.9302 5.02272C56.9302 6.49711 56.9302 7.9715 56.9302 12.1093C56.9302 14.4683 55.7528 15.6478 53.417 15.6478C44.6295 15.6478 35.8419 15.6478 27.7984 15.6478C25.4532 15.6478 24.2853 14.4683 24.2853 12.1093C24.2853 9.95955 24.2853 7.80979 24.2853 5.02272C24.2853 2.65418 25.4532 1.47467 27.7984 1.47467Z" fill="white"/>
<path d="M27.7984 1.47467C33.1859 1.47467 38.5827 1.47467 53.417 1.47467M27.7984 1.47467C37.6503 1.47467 47.5116 1.47467 53.417 1.47467M27.7984 1.47467C25.4532 1.47467 24.2853 2.65418 24.2853 5.02272M53.417 1.47467C55.7528 1.47467 56.9302 2.65418 56.9302 5.02272M56.9302 5.02272C56.9302 7.80979 56.9302 10.6064 56.9302 12.1093M56.9302 5.02272C56.9302 7.25808 56.9302 9.49345 56.9302 12.1093M56.9302 12.1093C56.9302 14.4683 55.7528 15.6478 53.417 15.6478M53.417 15.6478C45.6467 15.6478 37.8763 15.6478 27.7984 15.6478M53.417 15.6478C48.0202 15.6478 42.6139 15.6478 27.7984 15.6478M27.7984 15.6478C25.4532 15.6478 24.2853 14.4683 24.2853 12.1093M24.2853 12.1093C24.2853 9.72174 24.2853 7.34369 24.2853 5.02272M24.2853 12.1093C24.2853 9.39833 24.2853 6.69687 24.2853 5.02272" stroke="#1E1E1E" stroke-width="2" stroke-linecap="round"/>
<path d="M37.0888 10.1441C36.7788 10.1441 36.4929 10.0915 36.2313 9.98629C35.9724 9.88105 35.7492 9.73457 35.5614 9.54684C35.3737 9.35628 35.2272 9.13015 35.122 8.86848C35.0168 8.6068 34.9641 8.31811 34.9641 8.00239C34.9641 7.83173 34.9784 7.66819 35.0068 7.51175C35.0381 7.35247 35.0793 7.20457 35.1305 7.06804C35.1533 7.014 35.1647 6.9756 35.1647 6.95285C35.1647 6.9244 35.1575 6.89738 35.1433 6.87178C35.1291 6.84619 35.1135 6.81917 35.0964 6.79072C35.0793 6.76228 35.0637 6.73241 35.0495 6.70113C35.0352 6.66984 35.0281 6.63429 35.0281 6.59447C35.0281 6.47501 35.0964 6.35839 35.2329 6.24462C35.3694 6.128 35.5501 6.02561 35.7748 5.93743C35.9995 5.84642 36.254 5.77389 36.5385 5.71985C36.8229 5.66296 37.1144 5.63452 37.4131 5.63452C37.78 5.63452 38.1099 5.68145 38.4029 5.77531C38.6987 5.86917 38.949 6.00427 39.1538 6.18062C39.3614 6.35412 39.5207 6.56602 39.6316 6.81632C39.7425 7.06662 39.798 7.3482 39.798 7.66108C39.798 8.01092 39.7283 8.33802 39.589 8.64236C39.4496 8.94385 39.2576 9.20553 39.013 9.42738C38.7712 9.64924 38.4854 9.82416 38.1554 9.95216C37.8255 10.0801 37.47 10.1441 37.0888 10.1441ZM38.9405 7.82747C38.9405 7.60561 38.9021 7.40651 38.8253 7.23017C38.7485 7.05382 38.6375 6.90592 38.4925 6.78646C38.3474 6.66415 38.1682 6.57171 37.9549 6.50914C37.7444 6.44372 37.5055 6.41101 37.2381 6.41101C36.7688 6.41101 36.4147 6.53047 36.1758 6.76939C35.9397 7.00547 35.8217 7.35816 35.8217 7.82747C35.8217 8.05501 35.8572 8.26407 35.9284 8.45463C35.9995 8.64236 36.099 8.80448 36.227 8.94101C36.355 9.07469 36.5072 9.17993 36.6835 9.25673C36.8627 9.33068 37.059 9.36765 37.2723 9.36765C37.5169 9.36765 37.7416 9.33068 37.9464 9.25673C38.1512 9.17993 38.3261 9.07327 38.4711 8.93674C38.6191 8.80022 38.7342 8.63809 38.8167 8.45037C38.8992 8.2598 38.9405 8.05217 38.9405 7.82747ZM42.6523 6.41954C42.547 6.41954 42.4546 6.44798 42.3749 6.50487C42.2953 6.55891 42.227 6.63571 42.1702 6.73526C42.1133 6.83196 42.0663 6.94716 42.0294 7.08084C41.9924 7.21168 41.9625 7.35531 41.9398 7.51175C41.917 7.66819 41.9014 7.83173 41.8928 8.00239C41.8843 8.17305 41.88 8.34513 41.88 8.51863C41.88 8.74617 41.8886 8.97087 41.9056 9.19273C41.9255 9.41174 41.9355 9.61511 41.9355 9.80283C41.9355 9.92513 41.89 10.0204 41.799 10.0887C41.708 10.1598 41.5785 10.1953 41.4107 10.1953C41.3794 10.1953 41.3439 10.1925 41.3041 10.1868C41.2642 10.1811 41.2258 10.1697 41.1889 10.1527C41.1547 10.1356 41.1235 10.1114 41.095 10.0801C41.0694 10.0517 41.0552 10.0119 41.0523 9.96069C41.0267 9.71039 40.9898 9.4544 40.9414 9.19273C40.8931 8.93105 40.8319 8.6708 40.758 8.41197C40.6869 8.15029 40.6001 7.89146 40.4977 7.63548C40.3982 7.37949 40.283 7.12919 40.1521 6.88458C40.1294 6.84192 40.1095 6.8021 40.0924 6.76512C40.0782 6.72815 40.0711 6.69259 40.0711 6.65846C40.0711 6.6158 40.0896 6.57029 40.1265 6.52194C40.1663 6.47074 40.2147 6.42381 40.2716 6.38114C40.3313 6.33848 40.3953 6.30435 40.4636 6.27875C40.5347 6.25031 40.6029 6.23608 40.6684 6.23608C40.7764 6.23608 40.8717 6.31146 40.9542 6.46221C41.0367 6.61011 41.1135 6.84761 41.1846 7.1747C41.1988 7.23159 41.2102 7.27141 41.2187 7.29416C41.2273 7.31692 41.2386 7.32829 41.2529 7.32829C41.2842 7.32829 41.3041 7.27994 41.3126 7.18323C41.3467 6.91303 41.405 6.68122 41.4875 6.4878C41.57 6.29155 41.6724 6.13085 41.7947 6.0057C41.9199 5.8777 42.0621 5.78384 42.2214 5.72411C42.3835 5.66438 42.5612 5.63452 42.7547 5.63452C42.8656 5.63452 42.9779 5.64447 43.0917 5.66438C43.2055 5.68429 43.3079 5.71416 43.3989 5.75398C43.4899 5.7938 43.5639 5.84215 43.6207 5.89904C43.6776 5.95592 43.7061 6.01992 43.7061 6.09103C43.7061 6.14222 43.6947 6.20338 43.6719 6.27448C43.652 6.34275 43.625 6.40959 43.5909 6.47501C43.5567 6.53758 43.5169 6.59162 43.4714 6.63713C43.4288 6.67979 43.3847 6.70113 43.3392 6.70113C43.288 6.70113 43.2382 6.68691 43.1898 6.65846C43.1415 6.62718 43.0889 6.59447 43.032 6.56033C42.9779 6.5262 42.9196 6.49492 42.8571 6.46647C42.7973 6.43519 42.7291 6.41954 42.6523 6.41954Z" fill="#1E1E1E"/>
<g clip-path="url(#clip1_22_24)">
<path d="M28.2198 49.7581C28.1068 47.7225 26.3926 41.121 28.2951 37.5349C30.1977 33.9488 37.6384 29.6683 39.6445 28.2225M28.9262 49.3205C28.9544 47.1327 27.5605 40.2078 29.2652 36.7739C30.97 33.34 37.2711 30.163 39.1736 28.6981" stroke="#1E1E1E" stroke-linecap="round"/>
<path d="M50.4846 49.6706C50.5128 47.5493 52.3212 40.2154 50.5694 36.6864C48.8269 33.1479 41.876 29.8376 40.0111 28.4774M51.2287 49.3757C51.4641 47.3306 53.4797 40.8718 51.5866 37.2571C49.6934 33.6425 41.9325 29.2954 39.8981 27.6974" stroke="#1E1E1E" stroke-linecap="round"/>
<path d="M28.9385 48.9943C30.6998 48.1572 35.88 44.3714 39.4214 44.457C42.9534 44.5331 48.3691 48.7755 50.1586 49.4889M29.7391 48.4521C31.5003 47.4533 35.8894 43.7246 39.2236 43.7721C42.5578 43.8197 47.9075 47.8433 49.7348 48.7375" stroke="#1E1E1E" stroke-linecap="round"/>
<path d="M51.7557 37.1134C51.8782 38.3309 51.8688 38.9302 51.7557 39.577C51.7557 38.9778 51.8028 38.3595 51.7557 37.1134ZM51.7557 37.1134C52.1136 36.3619 51.9064 35.3061 54.1952 34.6497M51.7557 37.1134C52.0477 36.438 52.5375 35.0683 54.1952 34.6497M54.1952 34.6497C55.2595 34.6307 56.6628 34.8114 58.7632 34.6497M54.1952 34.6497C55.9753 34.6497 57.7366 34.5451 58.7632 34.6497M58.7632 34.6497C60.2136 35.3156 62.1445 34.2407 61.212 32.1861M58.7632 34.6497C60.8635 35.3631 62.0785 33.4797 61.212 32.1861M61.212 32.1861C61.1555 31.5583 61.2026 31.0636 61.212 29.7224C61.1838 30.8734 61.1461 31.4727 61.212 32.1861Z" stroke="#1E1E1E" stroke-linecap="round"/>
<path d="M60.9671 29.4751C61.0048 29.4656 61.3816 29.0756 61.5228 29.1612C61.6641 29.2468 61.8431 29.9317 61.8148 30.0078C61.7866 30.0934 61.4757 29.5797 61.3627 29.6463C61.2497 29.7129 61.2779 30.3312 61.1555 30.3883C61.0236 30.4453 60.6186 29.9792 60.6092 29.9887C60.5904 29.9887 61.0331 30.4929 61.0896 30.4073C61.1367 30.3217 60.9671 29.6178 60.9295 29.4561C60.9012 29.2944 60.8635 29.5607 60.8824 29.437C60.9012 29.3134 60.9766 28.7522 61.0613 28.7141C61.1461 28.6761 61.4098 29.0946 61.391 29.1897M60.7882 29.5226C60.807 29.5417 61.5322 29.7795 61.617 29.7034C61.7018 29.6273 61.2874 28.8948 61.325 29.047C61.3627 29.2087 61.8054 30.4739 61.8242 30.6546C61.8525 30.8448 61.617 30.3026 61.4569 30.16C61.2968 30.0173 61.0425 29.8841 60.8541 29.808C60.6752 29.7319 60.4679 29.8461 60.3549 29.7129C60.2325 29.5797 60.1195 28.99 60.1383 29.009C60.1571 29.0185 60.4114 29.6748 60.4679 29.789C60.5339 29.8936 60.4114 29.6463 60.4962 29.6463C60.581 29.6463 60.7788 29.8746 61.0048 29.789" fill="#1E1E1E"/>
<path d="M60.9577 29.38C61.0519 29.399 61.7112 29.1897 61.8902 29.2944C62.0785 29.399 62.0032 29.8651 62.0503 29.9983C62.0974 30.1409 62.2104 30.16 62.1821 30.1505C62.1539 30.1314 62.0314 29.8841 61.8996 29.9317C61.7677 29.9697 61.5134 30.4073 61.391 30.4263C61.2591 30.4453 61.2403 30.217 61.1461 30.0553C61.0425 29.8936 60.8729 29.6653 60.7976 29.4656C60.7317 29.2658 60.7034 28.9424 60.7317 28.8663C60.7599 28.7997 60.8447 28.9424 60.9671 29.0375C61.099 29.1327 61.391 29.38 61.4852 29.4275M61.617 28.5619C61.6829 28.638 61.3721 29.5797 61.5228 29.827C61.6641 30.0649 62.427 29.8936 62.5024 30.0173C62.5777 30.1409 62.0691 30.5595 61.9749 30.569C61.8713 30.5785 62.135 30.1885 61.8902 30.0839C61.6453 29.9697 60.6469 29.9792 60.5056 29.8936C60.3549 29.8175 61.0236 29.6463 61.0142 29.5797C61.0142 29.5036 60.4397 29.5797 60.4774 29.4751C60.5245 29.3705 61.1084 29.047 61.2779 28.9614C61.4569 28.8663 61.6264 29.0185 61.5322 28.9424C61.4286 28.8568 60.7411 28.4383 60.6657 28.4763" stroke="#1E1E1E" stroke-linecap="round"/>
<path d="M53.4204 47.0886C52.7893 47.1647 52.0264 47.0505 50.981 47.0886C51.9511 47.1361 52.827 47.1361 53.4204 47.0886ZM53.4204 47.0886C54.3905 47.7544 56.1141 48.7532 55.8598 49.5522M53.4204 47.0886C55.0215 47.5071 55.3983 47.7734 55.8598 49.5522M55.8598 49.5522C55.8692 49.6474 55.8786 49.7234 55.8598 49.9422M55.8598 49.5522C55.8692 49.6854 55.8598 49.8471 55.8598 49.9422M55.8598 49.9422C56.7922 52.0064 57.0842 53.0337 58.2992 52.4059M55.8598 49.9422C56.7357 51.2359 56.0387 51.8827 58.2992 52.4059M58.2992 52.4059C59.1469 52.482 59.9757 52.4534 60.7386 52.4059C59.6555 52.4154 58.9585 52.4154 58.2992 52.4059Z" stroke="#1E1E1E" stroke-linecap="round"/>
<path d="M60.6162 51.6449C60.7951 51.6354 61.0777 52.2156 61.1436 52.2537C61.2095 52.2917 61.0306 51.7686 61.0212 51.8637C61.0118 51.9493 61.153 52.6532 61.0871 52.7959C61.0212 52.9386 60.6444 52.6056 60.6256 52.7198C60.6068 52.8244 60.9835 53.4522 60.9647 53.4427C60.9458 53.4332 60.6538 52.7864 60.5126 52.6342C60.3713 52.482 60.2018 52.7198 60.1358 52.539C60.0699 52.3488 59.9851 51.6449 60.0981 51.5308C60.2206 51.4166 60.7857 51.7781 60.8516 51.8447C60.9081 51.9017 60.4843 51.8066 60.4561 51.8827M60.8516 52.2537C60.9647 52.1015 60.6162 51.312 60.7198 51.4356C60.814 51.5688 61.3602 52.8244 61.445 53.0242C61.5392 53.2334 61.3885 52.7388 61.2661 52.6532C61.1436 52.5771 60.9081 52.5295 60.7198 52.5295C60.5314 52.52 60.2865 52.7198 60.117 52.6437C59.9475 52.5581 59.7497 52.0064 59.7026 52.0254C59.6555 52.0444 59.8156 52.6817 59.8156 52.7483C59.8156 52.8149 59.5801 52.482 59.712 52.4344C59.8438 52.3773 60.3336 52.5676 60.6256 52.4439C60.9081 52.3298 61.4733 51.721 61.4544 51.7305" fill="#1E1E1E"/>
<path d="M61.04 51.8637C61.2378 51.8732 61.2472 52.2537 61.3696 52.3488C61.4921 52.4439 61.7087 52.4344 61.7746 52.4249C61.8311 52.4249 61.8123 52.2252 61.7369 52.3393C61.6616 52.4534 61.4544 52.9861 61.3319 53.1003C61.2095 53.2049 61.153 53.0812 61.0023 52.9956C60.8516 52.9005 60.5785 52.7388 60.4183 52.5581C60.2676 52.3773 60.1358 52.0349 60.0793 51.9208C60.0228 51.8161 59.938 51.8637 60.0793 51.8922C60.23 51.9113 60.7951 52.073 60.9646 52.092C61.1436 52.111 61.1247 52.0064 61.1342 51.9873M60.635 52.2917C60.8233 52.4344 61.6899 52.1776 61.8594 52.2632C62.0289 52.3488 61.6616 52.7578 61.6522 52.7959C61.6522 52.8434 62.0195 52.5391 61.8311 52.5105C61.6333 52.4915 60.6632 52.6342 60.5125 52.6532C60.3524 52.6722 60.9458 52.6247 60.8704 52.6247C60.7951 52.6247 60.0887 52.7483 60.0322 52.6437C59.9757 52.5486 60.4278 52.1776 60.5219 52.0254C60.6161 51.8732 60.6632 51.8827 60.5973 51.7305C60.5314 51.5783 60.1452 51.1217 60.1358 51.1312C60.1358 51.1312 60.4466 51.683 60.5785 51.7876" stroke="#1E1E1E" stroke-linecap="round"/>
<path d="M27.2738 36.0557C27.4056 38.0628 27.1702 39.2328 27.2738 40.203C27.2926 38.8142 27.1796 37.3018 27.2738 36.0557ZM27.2738 36.0557C27.5281 35.2281 26.4261 33.9155 24.7967 33.554M27.2738 36.0557C26.8123 34.2484 25.4748 33.0213 24.7967 33.554M24.7967 33.554C23.544 34.1818 23.0731 32.4125 22.3196 31.0523M24.7967 33.554C22.4985 33.0213 22.8753 32.1747 22.3196 31.0523M22.3196 31.0523C22.2442 29.9679 22.2631 28.5696 22.3196 26.905C22.3667 29.4162 22.3479 30.1772 22.3196 31.0523Z" stroke="#1E1E1E" stroke-linecap="round"/>
<path d="M22.4985 26.2772C22.6587 26.2486 22.621 25.735 22.7152 25.8586C22.8094 25.9823 23.0542 26.7623 23.0542 27.0001C23.0448 27.2379 22.7152 27.0476 22.6869 27.2664C22.6587 27.4852 22.9789 28.2462 22.8847 28.3128C22.7905 28.3698 22.3761 27.7896 22.1312 27.6469C21.8958 27.5042 21.5944 27.6945 21.4342 27.4472C21.2835 27.1998 21.1234 26.3723 21.2082 26.144C21.293 25.9252 21.7733 26.125 21.9334 26.1059C22.0935 26.0869 22.0653 25.9728 22.1501 26.0298C22.2348 26.0869 22.3478 26.4864 22.442 26.4389M21.9899 25.402C22.1877 25.4496 22.8941 26.6957 23.1013 26.9145C23.318 27.1428 23.3085 26.7433 23.2709 26.7623C23.2332 26.7718 23.0637 26.8955 22.8753 27.0191C22.6869 27.1523 22.3949 27.5137 22.1501 27.5233C21.9052 27.5423 21.5661 27.0857 21.3966 27.1237C21.2176 27.1618 21.227 27.7706 21.114 27.7706C21.0104 27.7706 20.6619 27.3045 20.7467 27.1333C20.8314 26.9525 21.2553 26.943 21.6414 26.7337C22.037 26.515 23.0166 25.8776 23.1013 25.8586C23.1861 25.8396 22.1595 26.6481 22.1501 26.6006" fill="#1E1E1E"/>
<path d="M22.7151 26.3818C22.9223 26.4103 23.2802 26.4008 23.4404 26.4293C23.6099 26.4484 23.6947 26.3342 23.6852 26.534C23.6758 26.7337 23.5063 27.4091 23.3839 27.6279C23.252 27.8467 23.1484 27.8467 22.9318 27.8371C22.7151 27.8276 22.3196 27.723 22.0652 27.5613C21.8015 27.3901 21.5378 27.0096 21.3965 26.8384C21.2552 26.6671 21.0857 26.6006 21.1987 26.5245C21.3118 26.4389 21.7921 26.4484 22.0652 26.3818C22.3384 26.3152 22.734 26.1725 22.847 26.125C22.9694 26.0869 22.8376 26.1059 22.7905 26.125M22.8376 26.2581C23.0919 26.2011 22.9129 26.5054 23.0636 26.515C23.2237 26.5245 23.7983 26.2581 23.7512 26.3152C23.7041 26.3818 22.8752 26.6957 22.7811 26.8669C22.6775 27.0476 23.2897 27.2189 23.1578 27.3806C23.0354 27.5328 22.1971 27.8276 22.0087 27.8181C21.8109 27.7991 22.0558 27.4757 21.9899 27.295C21.924 27.1142 21.7827 27.0191 21.6132 26.7337C21.4342 26.4579 20.8973 25.7635 20.9539 25.6303C21.0104 25.4971 21.7168 25.8871 21.9428 25.9252C22.1689 25.9728 22.2442 25.754 22.3384 25.8681" stroke="#1E1E1E" stroke-linecap="round"/>
<path d="M23.7075 41.1419C25.7136 41.3417 26.8156 41.18 27.7386 41.1419C26.081 41.2275 24.6022 41.2561 23.7075 41.1419ZM23.7075 41.1419C20.9949 41.5034 19.2807 42.3785 19.6857 45.2131M23.7075 41.1419C20.0436 40.6092 19.4879 43.0729 19.6857 45.2131M19.6857 45.2131C19.7988 46.4592 19.7234 47.6768 19.6857 48.4948M19.6857 45.2131C19.7611 45.9741 19.714 46.7161 19.6857 48.4948M19.6857 48.4948C20.4392 50.9014 17.7832 52.1095 15.6546 52.5661M19.6857 48.4948C20.232 50.6636 18.0752 52.49 15.6546 52.5661M15.6546 52.5661C14.1759 52.3948 12.6218 52.5185 11.6234 52.5661C13.2528 52.4995 14.4961 52.6517 15.6546 52.5661Z" stroke="#1E1E1E" stroke-linecap="round"/>
<path d="M11.209 50.9109C11.4256 50.8348 11.9342 51.4722 12.1414 51.6529C12.3581 51.8336 12.3016 51.6719 12.4711 51.9858C12.6406 52.3092 13.1586 53.2795 13.1492 53.5458C13.1398 53.8122 12.7254 53.5268 12.424 53.5934C12.1132 53.6695 11.6328 54.0975 11.2938 53.9739C10.9547 53.8502 10.512 53.0987 10.3707 52.8514C10.2389 52.6041 10.4743 52.6707 10.4838 52.49C10.4838 52.3092 10.2389 51.8812 10.4084 51.767C10.5779 51.6434 11.2561 51.9097 11.4915 51.8051C11.727 51.6909 11.7553 51.1487 11.8118 51.0917M11.9154 52.0144C12.245 52.1095 12.4522 51.6434 12.5747 51.6529C12.6971 51.6624 12.7348 51.8431 12.6689 52.0714C12.6124 52.2997 12.4334 52.8419 12.2074 53.0226C11.9907 53.2034 11.6234 52.9561 11.3691 53.1463C11.1148 53.327 10.9547 54.088 10.691 54.1546C10.4272 54.2117 9.86213 53.7551 9.7962 53.5363C9.73027 53.308 9.97515 53.1653 10.286 52.8134C10.5968 52.4614 11.4445 51.5673 11.6517 51.4246C11.8589 51.2914 11.3974 52.0714 11.5198 51.9858C11.6517 51.9097 12.3204 50.949 12.3957 50.93" fill="#1E1E1E"/>
<path d="M12.1038 51.5102C12.3863 51.377 12.7066 51.1488 12.8855 51.32C13.0645 51.4817 13.1304 52.2141 13.1681 52.528C13.1963 52.8419 13.2434 53.0417 13.0833 53.2129C12.9138 53.3746 12.5088 53.5268 12.1791 53.5363C11.8495 53.5458 11.4162 53.3556 11.1054 53.2795C10.7946 53.2034 10.3896 53.1748 10.3142 53.0607C10.2389 52.9466 10.512 52.8229 10.6722 52.6041C10.8323 52.3948 11.0301 51.9668 11.2561 51.7766C11.4822 51.5958 11.9437 51.5292 12.0473 51.5007C12.1603 51.4722 12.0284 51.6148 11.9154 51.5863M12.1415 51.8241C12.3675 51.7575 13.0833 51.4817 13.1304 51.5483C13.1775 51.6148 12.4617 51.9763 12.4334 52.2236C12.3958 52.4614 13.0551 52.7563 12.9232 53.0036C12.8008 53.2605 11.9248 53.6695 11.6705 53.7266C11.4068 53.7931 11.5481 53.5458 11.388 53.3841C11.2278 53.2319 10.9547 53.1178 10.7004 52.8039C10.4461 52.4805 9.82448 51.7005 9.84331 51.4817C9.86215 51.2534 10.4555 51.5197 10.8229 51.4817C11.1902 51.4436 11.8118 51.1678 12.0378 51.2534C12.2545 51.339 12.198 52.0239 12.1509 51.9763" stroke="#1E1E1E" stroke-linecap="round"/>
<path d="M59.2718 41.7679C57.4352 41.9011 54.6378 42.1199 51.7557 41.7679C54.7603 41.9106 57.6612 41.8155 59.2718 41.7679ZM59.2718 41.7679C60.5716 41.6538 60.9766 42.1674 61.8242 44.3457M59.2718 41.7679C60.7882 42.3386 62.5118 43.5182 61.8242 44.3457M61.8242 44.3457C61.2685 45.6108 63.1617 46.4574 64.3861 46.933M61.8242 44.3457C61.5699 45.9913 63.2559 46.5525 64.3861 46.933M64.3861 46.933C66.5335 46.8665 69.3685 47.0757 71.9021 46.933C68.8317 46.8569 66.5241 46.7808 64.3861 46.933Z" stroke="#1E1E1E" stroke-linecap="round"/>
<path d="M71.9869 45.3636C72.3259 45.4301 72.4955 45.2399 72.8251 45.5728C73.1642 45.9153 73.8706 46.9901 73.9742 47.3801C74.0872 47.7701 73.767 47.675 73.4656 47.9223C73.1642 48.1601 72.6273 48.807 72.1941 48.8165C71.7514 48.826 71.1298 48.1887 70.8378 47.9794C70.5364 47.7701 70.5552 47.8177 70.4139 47.5609C70.2727 47.304 69.8865 46.7048 69.9807 46.4384C70.0749 46.1721 70.5646 46.1816 70.9791 45.9438C71.3841 45.706 72.1564 45.1162 72.4201 45.0211C72.6838 44.926 72.5425 45.3445 72.5614 45.3636M71.6101 45.1638C71.8927 44.8879 72.2882 44.8404 72.5331 44.9831C72.778 45.1257 73.0135 45.6965 73.0888 46.0104C73.1642 46.3148 73.0982 46.3718 72.9852 46.8475C72.8722 47.3326 72.7498 48.5121 72.4107 48.8926C72.0716 49.2636 71.271 49.1589 70.9508 49.1304C70.6212 49.0923 70.4705 49.0638 70.461 48.6833C70.4516 48.3123 70.9131 47.2375 70.8943 46.876C70.866 46.5145 70.1031 46.8475 70.3103 46.505C70.527 46.1721 71.9209 44.964 72.1658 44.8404C72.4107 44.7072 71.8267 45.725 71.7796 45.7345" fill="#1E1E1E"/>
<path d="M72.7216 44.9642C73.0418 45.0117 73.3526 45.7156 73.5598 46.0581C73.767 46.4005 74.0213 46.7144 73.9742 47.0188C73.9271 47.3232 73.6069 47.6942 73.2867 47.8844C72.9664 48.0747 72.4578 48.1127 72.034 48.1793C71.6102 48.2364 71.0074 48.3315 70.7625 48.2554C70.5082 48.1793 70.5553 48.0176 70.5553 47.7132C70.5553 47.4183 70.6118 46.8095 70.7625 46.4481C70.9132 46.0961 71.1675 45.7442 71.4595 45.592C71.742 45.4398 72.3542 45.5825 72.4578 45.5349C72.5614 45.4873 72.0434 45.221 72.0717 45.2876M72.6462 45.0307C72.8628 44.9071 72.4672 45.1829 72.6839 45.4207C72.8911 45.6586 73.8518 46.0581 73.9177 46.4671C73.9836 46.8761 73.2772 47.5705 73.07 47.8749C72.8628 48.1888 72.9476 48.2554 72.6745 48.322C72.3919 48.3886 71.8833 48.4837 71.3935 48.2554C70.9038 48.0271 69.9619 47.2471 69.7453 46.9427C69.5381 46.6478 69.8771 46.6954 70.1126 46.4386C70.3575 46.1912 70.7907 45.5349 71.1769 45.4398C71.5536 45.3351 72.26 45.9629 72.3919 45.8583C72.5332 45.7632 71.9869 44.9356 72.0152 44.831" stroke="#1E1E1E" stroke-linecap="round"/>
<path d="M28.7162 50.7885C28.9893 48.5151 28.9893 47.0502 28.7162 45.1858C28.7162 47.307 28.6597 49.3141 28.7162 50.7885ZM28.7162 50.7885C27.8685 53.0524 27.1998 55.3638 24.6756 54.8692M28.7162 50.7885C29.4037 54.4031 27.7931 55.5636 24.6756 54.8692M24.6756 54.8692C22.4622 54.4031 20.409 56.1629 20.635 58.9499M24.6756 54.8692C22.5564 54.4887 20.9835 55.9441 20.635 58.9499M20.635 58.9499C20.5973 60.2055 20.5691 61.4326 20.635 64.5526C20.5879 63.2685 20.7386 61.0712 20.635 58.9499Z" stroke="#1E1E1E" stroke-linecap="round"/>
<path d="M19.9474 62.7453C20.3524 62.7168 21.3602 63.4112 21.7558 63.6014C22.1608 63.7822 22.2926 63.5729 22.3492 63.8487C22.4151 64.1246 22.3021 64.9712 22.1137 65.247C21.9253 65.5134 21.5015 65.3136 21.2378 65.4658C20.974 65.6275 20.8704 66.1317 20.5219 66.1697C20.1735 66.2078 19.3917 65.8843 19.1468 65.7036C18.8925 65.5324 18.9302 65.4943 18.9961 65.1043C19.0715 64.7048 19.3164 63.687 19.5801 63.3446C19.8532 62.9926 20.4183 63.1448 20.5973 63.0402C20.7857 62.9356 20.7857 62.6882 20.6821 62.7168M20.8139 62.5361C21.0682 62.5551 21.3696 63.0402 21.5203 63.2875C21.6616 63.5348 21.7087 63.5348 21.6993 64.0104C21.6804 64.4861 21.6804 65.7036 21.4261 66.1507C21.1624 66.5882 20.4372 66.5882 20.1358 66.6548C19.825 66.7214 19.6554 66.8165 19.6083 66.5312C19.5518 66.2363 19.9192 65.2565 19.8061 64.9236C19.6931 64.6002 18.7983 64.9426 18.9208 64.5717C19.0338 64.2007 20.1452 62.888 20.5219 62.7073C20.8987 62.517 21.0588 63.4778 21.1718 63.4492C21.2943 63.4112 21.1812 62.6692 21.2378 62.517" fill="#1E1E1E"/>
<path d="M21.1059 63.1068C21.4167 63.1734 21.9441 63.2494 22.1514 63.4302C22.3586 63.6204 22.4057 63.9534 22.3586 64.2197C22.3021 64.4955 22.0948 64.7429 21.8405 65.0377C21.5768 65.3326 21.0682 65.7892 20.7951 65.9985C20.5314 66.2077 20.4183 66.379 20.2205 66.2838C20.0227 66.1792 19.7402 65.7321 19.6083 65.3992C19.4859 65.0663 19.4011 64.6192 19.4388 64.2958C19.4765 63.9724 19.6554 63.706 19.8438 63.4682C20.0227 63.2399 20.2865 62.8975 20.5408 62.907C20.7857 62.9165 21.266 63.4587 21.3508 63.5348M20.4654 62.6502C20.748 62.6597 21.9159 62.869 22.1702 63.1734C22.4245 63.4777 22.0101 64.1341 22.0101 64.486C22.0195 64.8475 22.3491 65.0758 22.2079 65.3136C22.0666 65.5514 21.6427 65.9319 21.1436 65.9224C20.6538 65.9129 19.5989 65.3992 19.241 65.266C18.8831 65.1234 18.9773 65.3136 18.9961 65.0948C19.015 64.8665 19.1751 64.1436 19.3729 63.9343C19.5707 63.7155 19.9191 64.0294 20.164 63.8012C20.4089 63.5634 20.6255 62.6882 20.8327 62.536C21.04 62.3838 21.4355 62.7548 21.4073 62.8594" stroke="#1E1E1E" stroke-linecap="round"/>
<path d="M56.9401 32.0939C56.9966 32.6741 57.0154 33.6158 56.9401 34.7097C56.9212 33.6824 56.9024 32.6551 56.9401 32.0939ZM56.9401 32.0939C56.827 32.3792 57.3545 32.5505 56.9966 32.0273M56.9401 32.0939C57.2226 32.5124 57.2038 32.1605 56.9966 32.0273M56.9966 32.0273C56.893 31.9892 57.3922 31.7895 57.0625 31.9702M56.9966 32.0273C57.2697 31.8371 56.4126 31.3329 57.0625 31.9702M57.0625 31.9702C57.0531 31.2949 57.1379 30.5339 57.0625 29.3544C57.0813 30.7051 57.0437 31.3519 57.0625 31.9702Z" stroke="#1E1E1E" stroke-linecap="round"/>
<path d="M57.3451 29.4876C57.4487 29.5066 57.3828 29.1737 57.364 29.1737C57.3357 29.1641 57.2698 29.4781 57.2133 29.4781C57.1567 29.4781 57.0437 29.1451 57.0343 29.1546C57.0249 29.1641 57.2038 29.4685 57.1567 29.5351C57.1191 29.6017 56.8177 29.5161 56.7612 29.5541C56.7141 29.5827 56.8177 29.8015 56.8648 29.7349C56.9024 29.6683 56.9778 29.2212 57.0249 29.1451C57.072 29.0595 57.1002 29.2783 57.1379 29.2498C57.185 29.2212 57.3263 28.9834 57.2698 28.9834C57.2227 28.9834 56.8177 29.2022 56.8365 29.2402M56.8177 28.9739C56.8177 28.9549 56.8083 28.6885 56.8365 28.8027C56.8648 28.9168 57.006 29.4971 56.9872 29.6588C56.9778 29.8205 56.7423 29.7349 56.7423 29.7824C56.7423 29.83 56.8836 29.9917 56.9966 29.9346C57.1191 29.8776 57.4958 29.459 57.4487 29.4495C57.4016 29.44 56.7517 29.9251 56.7329 29.8585C56.7047 29.792 57.2321 29.0881 57.2886 29.031C57.3545 28.9739 57.0908 29.5446 57.0814 29.5161C57.072 29.4876 57.1662 28.9644 57.2321 28.8407C57.2886 28.7171 57.5617 28.6695 57.4487 28.7837" fill="#1E1E1E"/>
<path d="M57.3263 29.1832C57.3357 29.1451 57.2886 29.1071 57.2697 29.0785C57.2415 29.05 57.2038 28.9739 57.1756 29.0215C57.1379 29.069 57.0343 29.2402 57.0531 29.3544C57.072 29.4685 57.2603 29.6493 57.298 29.6873C57.3357 29.7349 57.3074 29.6493 57.2792 29.6302C57.2509 29.6017 57.185 29.5732 57.1379 29.5541C57.0814 29.5256 57.0343 29.5446 56.9589 29.4875C56.8836 29.421 56.6481 29.1736 56.6952 29.1832C56.7517 29.1832 57.185 29.478 57.2697 29.5066C57.3451 29.5351 57.1944 29.3354 57.185 29.3354M57.298 28.9549C57.3545 28.9834 57.0154 29.1546 57.0437 29.1927C57.072 29.2212 57.411 29.1356 57.4675 29.1546C57.5146 29.1641 57.477 29.3163 57.3545 29.2973C57.2227 29.2783 56.78 29.0215 56.7046 29.05C56.6199 29.088 56.8271 29.44 56.893 29.4875C56.9495 29.5446 57.0249 29.3354 57.0625 29.3734C57.1002 29.4115 57.1379 29.811 57.119 29.7349C57.0908 29.6588 56.8647 29.0405 56.9118 28.9263C56.9589 28.8217 57.4016 29.031 57.4016 29.0785C57.4016 29.1261 56.9118 29.2402 56.9118 29.2117" stroke="#1E1E1E" stroke-linecap="round"/>
<path d="M56.2163 53.5345C56.254 52.1458 56.2917 51.6036 56.2163 51.0328C56.1975 51.7748 56.2352 52.5072 56.2163 53.5345ZM56.2163 53.5345C56.4612 54.6665 56.0656 54.7426 55.1332 54.6284M56.2163 53.5345C56.546 53.6867 55.7172 55.1326 55.1332 54.6284M55.1332 54.6284C54.6058 54.4572 53.4849 54.4002 54.0406 55.7223M55.1332 54.6284C54.2102 54.6094 54.2479 54.8948 54.0406 55.7223M54.0406 55.7223C54.003 56.645 54.0312 57.4155 54.0406 58.2241C54.0595 57.2063 54.0124 56.4643 54.0406 55.7223Z" stroke="#1E1E1E" stroke-linecap="round"/>
<path d="M54.0972 58.034C54.1066 58.0055 54.0784 57.6821 54.1349 57.7201C54.1914 57.7582 54.4363 58.1196 54.4269 58.2433C54.4175 58.3765 54.1255 58.386 54.0595 58.4906C54.003 58.5953 54.0595 58.8901 54.0501 58.8711C54.0407 58.8426 54.0313 58.4335 54.003 58.3479C53.9842 58.2623 53.9277 58.4431 53.9183 58.367C53.8994 58.2909 53.9842 57.9675 53.9371 57.9009C53.89 57.8343 53.5604 57.9675 53.6357 57.9675C53.7111 57.9675 54.3233 57.9199 54.3986 57.8914C54.4645 57.8628 54.1443 57.8343 54.0595 57.8153M53.7958 58.2148C53.8429 58.3384 53.7111 58.2338 53.7864 58.3004C53.8618 58.3575 54.0784 58.5667 54.2479 58.5667C54.408 58.5762 54.8225 58.2528 54.7754 58.3194C54.7377 58.3765 54.0595 58.9662 53.9842 58.9567C53.9089 58.9472 54.3609 58.3004 54.3421 58.2528C54.3233 58.2148 53.9748 58.7665 53.89 58.6999C53.8147 58.6238 53.8335 58.0245 53.89 57.8343C53.9371 57.644 54.2668 57.5014 54.2102 57.5679C54.1537 57.625 53.5698 58.1006 53.5509 58.2243C53.5321 58.3384 54.0219 58.3099 54.1066 58.2718" fill="#1E1E1E"/>
<path d="M54.003 57.5963C54.0313 57.5963 54.0124 57.777 54.1066 57.9007C54.1914 58.0338 54.4551 58.2526 54.5399 58.3573C54.6152 58.4619 54.6152 58.4619 54.587 58.519C54.5587 58.5665 54.4551 58.6236 54.3609 58.6521C54.2573 58.6807 54.1349 58.7377 53.9936 58.6902C53.8523 58.6331 53.5227 58.3668 53.5132 58.3287C53.5038 58.3002 53.8617 58.519 53.9371 58.4809C54.0124 58.4333 53.9182 58.148 53.9653 58.0909C54.0218 58.0338 54.2573 58.1955 54.2573 58.129C54.2573 58.0719 54.0218 57.7104 53.9653 57.7009M54.2667 57.7104C54.3798 57.6914 54.4457 57.8246 54.3892 57.8151C54.3327 57.8151 53.9748 57.5963 53.9465 57.6914C53.9182 57.777 54.1537 58.2241 54.2196 58.3573C54.2762 58.4809 54.3232 58.3668 54.3138 58.4619C54.3044 58.5665 54.2667 59.0136 54.1725 58.9565C54.0689 58.8899 53.7487 58.2526 53.7393 58.1099C53.7205 57.9577 54.0784 58.1004 54.0689 58.0719C54.0501 58.0529 53.6263 58.0814 53.6734 57.9958C53.7205 57.9102 54.3515 57.6058 54.3421 57.5582C54.3327 57.5012 53.6357 57.6914 53.598 57.6914" stroke="#1E1E1E" stroke-linecap="round"/>
<path d="M23.4091 57.7908C23.3808 57.0964 23.3997 56.5447 23.4091 56.0881C23.4279 56.7064 23.4185 57.2962 23.4091 57.7908ZM23.4091 57.7908C23.6916 58.4281 23.8518 59.9406 25.095 59.503M23.4091 57.7908C24.1249 59.2462 24.285 59.9786 25.095 59.503M25.095 59.503C26.2441 59.5601 27.4308 59.484 28.2314 59.503M25.095 59.503C26.0369 59.4935 26.8846 59.4555 28.2314 59.503M28.2314 59.503C29.1921 59.484 30.0963 59.9786 29.9268 61.2057M28.2314 59.503C29.6819 60.1213 29.8608 59.5981 29.9268 61.2057M29.9268 61.2057C29.9268 61.8811 29.8797 62.4328 29.9268 62.9084C29.9456 62.1094 29.9079 61.6718 29.9268 61.2057Z" stroke="#1E1E1E" stroke-linecap="round"/>
<path d="M29.9927 62.642C30.0398 62.6991 29.8703 62.6515 29.8891 62.7467C29.9173 62.8418 30.0963 63.1652 30.1622 63.1937C30.2282 63.2223 30.2847 62.8989 30.2941 62.9084C30.2941 62.9179 30.2282 63.2128 30.1811 63.2223C30.134 63.2413 30.134 63.0035 30.0021 62.975C29.8797 62.9559 29.4276 63.1081 29.4182 63.0796C29.3993 63.0606 29.8797 62.9274 29.9268 62.8418C29.9739 62.7562 29.729 62.6515 29.7007 62.585C29.6725 62.5184 29.7196 62.4803 29.7384 62.4423C29.7572 62.4137 29.8232 62.3947 29.8137 62.3947M29.842 63.0415C30.0492 62.9845 30.5484 62.604 30.5767 62.6515C30.6049 62.6991 30.0304 63.2984 30.021 63.3174C30.021 63.3459 30.5296 62.7657 30.5484 62.7942C30.5672 62.8228 30.2093 63.4886 30.1151 63.4886C30.0115 63.4981 29.9739 62.975 29.955 62.8228C29.9456 62.6801 30.1717 62.5659 30.0398 62.6135C29.9079 62.6706 29.2015 63.0891 29.1733 63.1652C29.1356 63.2318 29.7101 63.1176 29.842 63.0415C29.9739 62.9654 29.8797 62.8323 29.9739 62.6896C30.068 62.5564 30.3694 62.2806 30.4071 62.2045" fill="#1E1E1E"/>
<path d="M30.0398 62.8133C30.1717 62.8228 30.2753 62.7562 30.3318 62.7752C30.3977 62.7942 30.4166 62.8608 30.4072 62.9179C30.3883 62.9845 30.3506 63.1272 30.2565 63.1652C30.1623 63.1938 29.842 63.0606 29.8138 63.1177C29.7855 63.1747 30.0775 63.4982 30.0869 63.5172C30.0869 63.5457 29.8703 63.2984 29.8232 63.2318C29.7855 63.1747 29.8703 63.2794 29.8326 63.1557C29.7949 63.0416 29.616 62.585 29.5972 62.5184C29.5783 62.4613 29.7102 62.7657 29.729 62.7752C29.7573 62.7752 29.7102 62.5279 29.729 62.5374M29.4841 62.1664C29.503 62.176 29.8326 62.5564 29.9739 62.6516C30.1152 62.7562 30.2753 62.6421 30.3412 62.7752C30.4166 62.9084 30.4542 63.4316 30.3977 63.4506C30.3412 63.4696 30.0398 62.9369 30.0022 62.8799C29.9645 62.8228 30.2659 63.0511 30.1811 63.0891C30.1058 63.1272 29.5689 63.1842 29.5312 63.0891C29.4936 63.0035 29.9927 62.6516 29.9551 62.5469C29.908 62.4518 29.2863 62.5374 29.2958 62.4899C29.3052 62.4423 29.9362 62.176 29.9927 62.2616C30.0492 62.3567 29.5783 62.9274 29.6348 63.0321" stroke="#1E1E1E" stroke-linecap="round"/>
<path d="M18.8257 33.5526C20.7376 33.6572 21.51 33.505 22.5648 33.5526C21.1709 33.5811 19.7581 33.486 18.8257 33.5526ZM18.8257 33.5526C17.7613 34.2185 18.4301 33.5241 17.4976 32.2114M18.8257 33.5526C18.4112 34.2755 18.3736 32.7536 17.4976 32.2114M17.4976 32.2114C17.7614 31.1936 17.4788 31.6787 16.1696 30.8702M17.4976 32.2114C17.4129 30.6133 17.8555 30.6133 16.1696 30.8702M16.1696 30.8702C15.0394 30.718 14.0787 30.9177 12.4304 30.8702C14.446 30.8892 15.4067 30.9463 16.1696 30.8702Z" stroke="#1E1E1E" stroke-linecap="round"/>
<path d="M11.9406 30.328C12.0348 30.3565 12.4209 30.7655 12.6376 30.7751C12.8448 30.7846 13.0897 30.309 13.1933 30.366C13.3063 30.4231 13.3251 30.9748 13.2969 31.0985C13.278 31.2221 13.2969 31.0224 13.0802 31.108C12.8542 31.1841 12.1101 31.536 11.9971 31.5741C11.8841 31.6121 12.4492 31.4504 12.4115 31.3173C12.3644 31.1841 11.8652 30.9653 11.7334 30.7846C11.6015 30.6038 11.5544 30.3851 11.6204 30.2424C11.6769 30.0997 12.0536 29.957 12.1007 29.919C12.1478 29.8809 11.8276 30.0426 11.9218 30.0236M13.2027 30.1663C13.3063 30.1758 12.5528 31.0604 12.6187 31.108C12.6941 31.1555 13.5606 30.3375 13.6454 30.4421C13.7207 30.5468 13.2309 31.6312 13.0897 31.7168C12.9484 31.8024 12.8542 31.127 12.7883 30.9748C12.7223 30.8226 12.9766 30.699 12.7035 30.8036C12.4304 30.9082 11.2625 31.5265 11.14 31.6026C11.0176 31.6692 11.8087 31.4219 11.9689 31.2316C12.1384 31.0319 11.9312 30.7085 12.1478 30.4421C12.355 30.1758 13.0991 29.7573 13.2309 29.6336C13.3534 29.5099 13.052 29.5004 12.9013 29.7097" fill="#1E1E1E"/>
<path d="M12.7882 30.4231C12.9295 30.3851 13.0614 30.4422 13.1179 30.5278C13.1744 30.6134 13.212 30.8607 13.1273 30.9463C13.0519 31.0414 12.6375 30.9178 12.6187 31.0795C12.5998 31.2412 13.0331 31.8309 13.0048 31.9356C12.9766 32.0402 12.581 31.7453 12.4491 31.6883C12.3173 31.6312 12.3455 31.8024 12.2137 31.6026C12.0818 31.4029 11.7333 30.6704 11.658 30.5087C11.5826 30.347 11.6957 30.7085 11.7804 30.6419C11.8652 30.5753 12.0818 30.1473 12.1854 30.1187C12.289 30.0902 12.3926 30.4422 12.402 30.4992M12.2043 30.2139C12.468 30.29 12.8071 30.0712 13.0048 30.2614C13.1932 30.4422 13.3722 31.2507 13.3627 31.3268C13.3533 31.4029 12.9672 30.699 12.9389 30.699C12.9201 30.6895 13.3627 31.1556 13.212 31.2887C13.0614 31.4314 12.176 31.6026 12.0441 31.5075C11.9029 31.4219 12.5433 30.9082 12.3926 30.737C12.2514 30.5753 11.2153 30.6514 11.1776 30.5087C11.1305 30.3661 11.997 29.8334 12.1289 29.9C12.2702 29.957 11.8369 30.737 11.9876 30.8702C12.1477 31.0034 13.0143 30.7846 13.0614 30.6895" stroke="#1E1E1E" stroke-linecap="round"/>
<path d="M33.7138 38.5253C34.7216 38.0117 37.5849 35.101 39.704 34.9488C41.8138 34.7871 45.3646 37.1175 46.3912 37.5836M33.2052 38.2971C34.1376 37.85 37.0951 35.4719 39.2708 35.4434C41.4465 35.4053 45.1574 37.6312 46.2594 38.0878" stroke="#1E1E1E" stroke-linecap="round"/>
<path d="M33.3354 37.3393C34.3997 37.7198 37.9505 40.231 40.0226 40.3547C42.0947 40.4688 44.7037 38.5188 45.7492 38.0717M32.6855 38.3C33.7028 38.9754 37.7057 40.8969 39.8154 40.9539C41.9252 41.011 44.2139 39.1466 45.3347 38.652" stroke="#1E1E1E" stroke-linecap="round"/>
<path d="M40.0217 36.788C40.0217 37.1209 39.7014 38.3956 39.7109 38.6714M39.7485 36.4551C39.692 36.8641 39.3624 38.7285 39.3906 39.0995" stroke="#1E1E1E" stroke-linecap="round"/>
</g>
</g>
<defs>
<clipPath id="clip0_22_24">
<rect width="81" height="117" fill="white"/>
</clipPath>
<clipPath id="clip1_22_24">
<rect width="64.9884" height="48.5122" fill="white" transform="translate(9.13647 21.1307)"/>
</clipPath>
</defs>
</svg>
