<svg width="84" height="119" viewBox="0 0 84 119" fill="none" xmlns="http://www.w3.org/2000/svg">
<path d="M22.5325 2.51465C32.0099 -0.554449 44.4049 1.62697 62.6253 2.51465C75.2187 4.28056 80.2403 10.636 82.6716 21.5903C82.3838 42.1485 80.28 58.0889 82.6716 98.601C84.3091 108.715 78.9998 116.855 62.6253 117.677C45.7049 115.911 34.0741 118.763 22.5325 117.677C10.3856 117.752 2.5358 113.663 2.48618 98.601C6.28705 69.4682 3.08162 44.8777 2.48618 21.5903C1.69226 6.21645 9.8299 2.17469 22.5325 2.51465Z" fill="white"/>
<path d="M22.5326 2.51462C37.3689 1.51362 50.9448 2.03301 62.6253 2.51462M22.5326 2.51462C37.5276 2.85458 50.6272 2.55239 62.6253 2.51462M22.5326 2.51462C9.37342 2.59961 3.29004 8.70003 2.4862 21.5902M22.5326 2.51462C8.03369 0.37097 3.26027 9.77658 2.4862 21.5902M62.6253 2.51462C76.886 1.29642 82.8106 7.98234 82.6716 21.5902M62.6253 2.51462C74.3058 0.767592 82.7014 7.07577 82.6716 21.5902M82.6716 21.5902C82.5625 43.5555 82.1953 67.2112 82.6716 98.601M82.6716 21.5902C82.4533 51.573 82.8602 81.3196 82.6716 98.601M82.6716 98.601C81.3121 111.34 74.1867 116.628 62.6253 117.677M82.6716 98.601C81.3518 110.84 77.3921 115.599 62.6253 117.677M62.6253 117.677C48.4043 117.913 39.2941 117.743 22.5326 117.677M62.6253 117.677C48.0966 117.809 32.9924 117.733 22.5326 117.677M22.5326 117.677C10.2368 117.629 3.60761 111.453 2.4862 98.601M22.5326 117.677C11.0506 116.883 1.94038 109.3 2.4862 98.601M2.4862 98.601C1.45411 72.5089 2.9427 44.3677 2.4862 21.5902M2.4862 98.601C1.29533 79.5537 2.47628 61.3563 2.4862 21.5902" stroke="#1E1E1E" stroke-width="2" stroke-linecap="round"/>
<path d="M23.5993 2.35052C37.334 2.35052 51.0787 2.35052 59.7125 2.35052C62.1736 2.35052 63.4141 3.5215 63.4141 5.87291C63.4141 7.49717 63.4141 9.13087 63.4141 12.9082C63.4141 15.2502 62.1736 16.4212 59.7125 16.4212C46.1365 16.4212 32.5705 16.4212 23.5993 16.4212C21.1282 16.4212 19.8976 15.2502 19.8976 12.9082C19.8976 10.3585 19.8976 7.81824 19.8976 5.87291C19.8976 3.5215 21.1282 2.35052 23.5993 2.35052Z" fill="white"/>
<path d="M23.5993 2.35052C34.3469 2.35052 45.0945 2.35052 59.7125 2.35052M23.5993 2.35052C34.1881 2.35052 44.777 2.35052 59.7125 2.35052M23.5993 2.35052C21.1282 2.35052 19.8976 3.5215 19.8976 5.87291M59.7125 2.35052C62.1736 2.35052 63.4141 3.5215 63.4141 5.87291M63.4141 5.87291C63.4141 7.32719 63.4141 8.79091 63.4141 12.9082M63.4141 5.87291C63.4141 8.47928 63.4141 11.0951 63.4141 12.9082M63.4141 12.9082C63.4141 15.2502 62.1736 16.4212 59.7125 16.4212M59.7125 16.4212C45.293 16.4212 30.8735 16.4212 23.5993 16.4212M59.7125 16.4212C50.2947 16.4212 40.8769 16.4212 23.5993 16.4212M23.5993 16.4212C21.1282 16.4212 19.8976 15.2502 19.8976 12.9082M19.8976 12.9082C19.8976 10.2169 19.8976 7.5255 19.8976 5.87291M19.8976 12.9082C19.8976 10.9629 19.8976 9.02699 19.8976 5.87291" stroke="#1E1E1E" stroke-width="2" stroke-linecap="round"/>
<path d="M23.4784 12.3907C23.4784 12.2833 23.4735 12.1433 23.4637 11.9708C23.4572 11.7982 23.4475 11.6078 23.4344 11.3995C23.4214 11.1911 23.4068 10.9698 23.3905 10.7354C23.3742 10.501 23.3563 10.2683 23.3368 10.0372C23.3173 9.80605 23.2977 9.58307 23.2782 9.36823C23.2619 9.15013 23.2456 8.95319 23.2294 8.7774C23.2033 8.52675 23.1675 8.34283 23.1219 8.22565C23.0764 8.10846 23.0015 8.04987 22.8973 8.04987C22.7997 8.04987 22.7346 8.07753 22.702 8.13287C22.6727 8.18821 22.6548 8.25657 22.6483 8.33795C22.6451 8.41933 22.6434 8.50885 22.6434 8.60651C22.6467 8.70091 22.632 8.7888 22.5995 8.87018C22.5702 8.95156 22.5132 9.01992 22.4286 9.07526C22.344 9.13059 22.2137 9.15826 22.038 9.15826C21.9143 9.15826 21.8085 9.10781 21.7206 9.0069C21.6327 8.90273 21.5887 8.75299 21.5887 8.55768C21.5887 8.28424 21.6701 8.03684 21.8329 7.81549C21.9924 7.59088 22.2186 7.40045 22.5116 7.2442C22.8046 7.0847 23.1578 6.961 23.5712 6.87311C23.9846 6.78522 24.4436 6.74127 24.9481 6.74127C25.3094 6.74127 25.6431 6.78196 25.9491 6.86334C26.2551 6.94147 26.5188 7.05214 26.7401 7.19537C26.9647 7.33535 27.1405 7.50299 27.2675 7.6983C27.3944 7.89036 27.4579 8.10032 27.4579 8.32819C27.4579 8.58535 27.383 8.83112 27.2333 9.06549C27.0835 9.29987 26.8768 9.51471 26.6132 9.71002C26.3527 9.90533 26.0451 10.0762 25.6903 10.2227C25.3355 10.3659 24.9546 10.4783 24.5477 10.5596C24.4338 10.5792 24.3768 10.6491 24.3768 10.7696C24.3768 10.851 24.3817 10.9535 24.3915 11.0772C24.4045 11.1977 24.4159 11.3246 24.4257 11.4581C24.4387 11.5915 24.4501 11.7234 24.4598 11.8536C24.4729 11.9838 24.4794 12.0993 24.4794 12.2003C24.4794 12.3825 24.4371 12.5128 24.3524 12.5909C24.2678 12.669 24.1425 12.7081 23.9764 12.7081C23.8202 12.7081 23.6981 12.6804 23.6102 12.6251C23.5223 12.573 23.4784 12.4949 23.4784 12.3907ZM26.4471 8.46979C26.4471 8.35911 26.3999 8.25332 26.3055 8.1524C26.2111 8.05149 26.0842 7.96198 25.9247 7.88385C25.7652 7.80573 25.5796 7.74388 25.368 7.6983C25.1597 7.65273 24.94 7.62994 24.7089 7.62994C24.5949 7.62994 24.4989 7.63483 24.4208 7.64459C24.3459 7.6511 24.2857 7.66412 24.2401 7.68365C24.1945 7.70319 24.162 7.72923 24.1425 7.76178C24.1262 7.79108 24.118 7.83014 24.118 7.87897C24.118 7.91152 24.1229 7.98802 24.1327 8.10846C24.1425 8.22565 24.1555 8.36237 24.1718 8.51862C24.188 8.67487 24.2043 8.83925 24.2206 9.01178C24.2401 9.18105 24.2596 9.33405 24.2792 9.47076C24.2889 9.57168 24.302 9.63841 24.3182 9.67096C24.3378 9.70351 24.3671 9.71979 24.4061 9.71979C24.5168 9.71979 24.6438 9.70188 24.787 9.66608C24.9302 9.62701 25.0767 9.57656 25.2264 9.51471C25.3794 9.44961 25.5275 9.37636 25.6708 9.29498C25.8173 9.21035 25.9475 9.12246 26.0614 9.03131C26.1786 8.93691 26.2714 8.84251 26.3397 8.74811C26.4113 8.65045 26.4471 8.55768 26.4471 8.46979ZM27.8339 10.2081C27.8339 10.1527 27.8404 10.0909 27.8534 10.0225C27.8664 9.95416 27.8729 9.87929 27.8729 9.79791C27.8729 9.74257 27.8485 9.70026 27.7997 9.67096C27.7541 9.64166 27.702 9.60911 27.6434 9.5733C27.5848 9.5375 27.5311 9.49192 27.4823 9.43658C27.4367 9.38125 27.4139 9.30149 27.4139 9.19733C27.4139 9.12246 27.4335 9.04759 27.4725 8.97272C27.5149 8.89785 27.5751 8.82949 27.6532 8.76764C27.8453 8.62441 28.0438 8.49583 28.2489 8.3819C28.4572 8.26796 28.6639 8.17194 28.869 8.09381C29.0774 8.01569 29.2824 7.95546 29.4843 7.91315C29.6861 7.87083 29.8798 7.84967 30.0653 7.84967C30.3778 7.84967 30.6708 7.90826 30.9442 8.02545C31.2209 8.13938 31.4602 8.29726 31.662 8.49908C31.8671 8.69765 32.0282 8.93203 32.1454 9.20221C32.2658 9.46914 32.326 9.75559 32.326 10.0616C32.326 10.3611 32.2626 10.6459 32.1356 10.9161C32.0119 11.183 31.8443 11.4174 31.6327 11.6192C31.4211 11.821 31.1721 11.9805 30.8856 12.0977C30.6024 12.2182 30.3029 12.2784 29.9872 12.2784C29.6779 12.2784 29.3915 12.2263 29.1278 12.1221C28.8641 12.018 28.6363 11.8747 28.4442 11.6924C28.2522 11.5069 28.1024 11.2888 27.995 11.0381C27.8876 10.7842 27.8339 10.5075 27.8339 10.2081ZM30.0946 11.3995C30.2313 11.3995 30.3729 11.3718 30.5194 11.3165C30.6659 11.2611 30.7994 11.1814 30.9198 11.0772C31.0435 10.9698 31.1444 10.8396 31.2225 10.6866C31.3039 10.5336 31.3446 10.3611 31.3446 10.169C31.3446 9.97369 31.3088 9.7914 31.2372 9.62213C31.1656 9.45286 31.0663 9.30638 30.9393 9.18268C30.8156 9.05573 30.6675 8.95644 30.495 8.88483C30.3257 8.81321 30.1418 8.7774 29.9432 8.7774C29.5819 8.7774 29.3052 8.87181 29.1132 9.06061C28.9211 9.24615 28.8251 9.53261 28.8251 9.91998C28.8251 10.1316 28.856 10.3285 28.9178 10.5108C28.983 10.6898 29.0725 10.8461 29.1864 10.9796C29.3003 11.1098 29.4338 11.2123 29.5868 11.2872C29.743 11.362 29.9123 11.3995 30.0946 11.3995ZM33.0487 7.88873C33.0487 7.8399 33.0699 7.7927 33.1122 7.74713C33.1545 7.6983 33.2098 7.65599 33.2782 7.62018C33.3466 7.58112 33.4231 7.55019 33.5077 7.5274C33.5956 7.50136 33.6835 7.48834 33.7714 7.48834C33.8202 7.48834 33.8609 7.50136 33.8934 7.5274C33.9292 7.55345 33.9602 7.6039 33.9862 7.67877C34.0122 7.75039 34.035 7.85293 34.0546 7.98639C34.0774 8.1166 34.0985 8.2875 34.118 8.49908C34.1311 8.56419 34.1425 8.61464 34.1522 8.65045C34.1652 8.683 34.1815 8.69928 34.201 8.69928C34.2303 8.69928 34.2596 8.64882 34.2889 8.54791C34.5266 7.86106 34.87 7.51764 35.3192 7.51764C35.5275 7.51764 35.7163 7.58274 35.8856 7.71295C36.0581 7.84316 36.2177 8.05638 36.3641 8.3526C36.5139 8.64557 36.6555 9.03294 36.7889 9.51471C36.9224 9.99323 37.0559 10.584 37.1893 11.2872C37.1958 11.323 37.2007 11.3555 37.204 11.3848C37.2072 11.4141 37.2089 11.4418 37.2089 11.4678C37.2089 11.5427 37.191 11.6078 37.1552 11.6631C37.1226 11.7152 37.0787 11.7592 37.0233 11.795C36.968 11.8275 36.9061 11.8519 36.8378 11.8682C36.7694 11.8878 36.701 11.8975 36.6327 11.8975C36.496 11.8975 36.3967 11.8829 36.3348 11.8536C36.2762 11.8243 36.2388 11.7689 36.2225 11.6876C36.1281 11.1928 36.0354 10.7533 35.9442 10.3692C35.8563 9.98509 35.7684 9.66282 35.6805 9.4024C35.5959 9.13873 35.5113 8.93854 35.4266 8.80182C35.342 8.6651 35.2574 8.59674 35.1727 8.59674C35.0881 8.59674 35.0083 8.65045 34.9335 8.75787C34.8619 8.86204 34.7919 9.02643 34.7235 9.25104C34.6552 9.47565 34.5884 9.76048 34.5233 10.1055C34.4615 10.4506 34.4012 10.8624 34.3427 11.3409C34.3264 11.4711 34.2613 11.5753 34.1473 11.6534C34.0334 11.7315 33.8885 11.7706 33.7128 11.7706C33.5956 11.7706 33.5061 11.7462 33.4442 11.6973C33.3824 11.6485 33.3482 11.5818 33.3417 11.4971C33.3124 10.82 33.2798 10.2634 33.244 9.82721C33.2115 9.38776 33.1805 9.03619 33.1512 8.77252C33.1219 8.50559 33.0975 8.30703 33.078 8.17682C33.0585 8.04661 33.0487 7.95058 33.0487 7.88873ZM40.9882 8.25983C41.0012 8.26634 41.0207 8.26959 41.0468 8.26959C41.1184 8.26959 41.1542 8.22239 41.1542 8.12799V6.60944C41.1542 6.41738 41.1965 6.28066 41.2811 6.19928C41.369 6.1179 41.5139 6.07721 41.7157 6.07721C41.9208 6.07721 42.0656 6.11953 42.1503 6.20416C42.2349 6.2888 42.2772 6.43365 42.2772 6.63873C42.2772 6.71686 42.2723 6.83242 42.2626 6.98541C42.2528 7.13515 42.2414 7.30605 42.2284 7.49811C42.2186 7.69017 42.2089 7.89687 42.1991 8.11823C42.1893 8.33632 42.1844 8.5528 42.1844 8.76764C42.1844 9.09967 42.2072 9.38613 42.2528 9.62701C42.2984 9.8679 42.3635 10.0681 42.4481 10.2276C42.5328 10.3839 42.6337 10.501 42.7509 10.5792C42.868 10.654 42.9999 10.6915 43.1464 10.6915C43.2277 10.6915 43.301 10.6817 43.3661 10.6622C43.4344 10.6394 43.5142 10.628 43.6053 10.628C43.6705 10.628 43.7242 10.6622 43.7665 10.7305C43.8121 10.7956 43.8348 10.8754 43.8348 10.9698C43.8348 11.0544 43.8088 11.1342 43.7567 11.209C43.7079 11.2839 43.6395 11.349 43.5516 11.4044C43.467 11.4597 43.3677 11.5036 43.2538 11.5362C43.1399 11.5655 43.021 11.5801 42.8973 11.5801C42.6304 11.5801 42.3863 11.4988 42.1649 11.336C41.9436 11.17 41.7775 10.9177 41.6669 10.5792C41.6571 10.5271 41.6408 10.501 41.618 10.501C41.592 10.501 41.5708 10.5271 41.5546 10.5792C41.4667 10.8168 41.3511 11.0316 41.2079 11.2237C41.0679 11.4125 40.9035 11.5753 40.7147 11.712C40.5292 11.8454 40.3241 11.948 40.0995 12.0196C39.8781 12.0912 39.6438 12.127 39.3964 12.127C39.1359 12.127 38.8967 12.0831 38.6786 11.9952C38.4637 11.9105 38.2782 11.7917 38.1219 11.6387C37.9657 11.4825 37.8436 11.3002 37.7557 11.0919C37.6678 10.8803 37.6239 10.6524 37.6239 10.4083C37.6239 10.0958 37.689 9.80117 37.8192 9.52448C37.9494 9.24778 38.1252 9.0069 38.3466 8.80182C38.5712 8.59349 38.8316 8.4291 39.1278 8.30865C39.424 8.18821 39.7398 8.12799 40.0751 8.12799C40.2118 8.12799 40.3566 8.13938 40.5096 8.16217C40.6626 8.1817 40.8221 8.21425 40.9882 8.25983ZM39.5868 11.2481C39.7723 11.2481 39.9367 11.2074 40.08 11.126C40.2264 11.0447 40.355 10.9421 40.4657 10.8184C40.5796 10.6915 40.6757 10.5531 40.7538 10.4034C40.8319 10.2504 40.8954 10.1023 40.9442 9.95905C40.993 9.81582 41.0288 9.68724 41.0516 9.5733C41.0744 9.45937 41.0858 9.37799 41.0858 9.32916C41.0858 9.29336 41.076 9.26243 41.0565 9.23639C41.037 9.20709 41.0077 9.18431 40.9686 9.16803C40.8807 9.14524 40.7896 9.12571 40.6952 9.10944C40.6008 9.0899 40.508 9.07363 40.4169 9.06061C40.3257 9.04759 40.2378 9.03782 40.1532 9.03131C40.0718 9.0248 39.9969 9.02155 39.9286 9.02155C39.7333 9.02155 39.5559 9.05084 39.3964 9.10944C39.2369 9.16803 39.1001 9.25104 38.9862 9.35846C38.8755 9.46588 38.7893 9.59446 38.7274 9.7442C38.6656 9.89069 38.6346 10.0518 38.6346 10.2276C38.6346 10.3839 38.6574 10.5255 38.703 10.6524C38.7518 10.7761 38.8169 10.8819 38.8983 10.9698C38.983 11.0577 39.0839 11.126 39.201 11.1749C39.3182 11.2237 39.4468 11.2481 39.5868 11.2481ZM47.7362 10.7598C47.8306 10.6784 47.9234 10.6378 48.0145 10.6378C48.0666 10.6378 48.1138 10.6508 48.1561 10.6768C48.1984 10.7029 48.2456 10.7436 48.2977 10.7989C48.3466 10.8738 48.3807 10.9356 48.4003 10.9844C48.4231 11.03 48.4344 11.0756 48.4344 11.1212C48.4344 11.2188 48.3856 11.3116 48.288 11.3995C48.1317 11.5297 47.9624 11.6469 47.7802 11.751C47.5979 11.8519 47.4074 11.9382 47.2089 12.0098C47.0103 12.0814 46.8052 12.1352 46.5936 12.171C46.382 12.21 46.1721 12.2296 45.9637 12.2296C45.7001 12.2296 45.4527 12.1954 45.2216 12.127C44.9904 12.0619 44.7837 11.9675 44.6014 11.8438C44.4224 11.7201 44.271 11.572 44.1473 11.3995C44.0236 11.2237 43.9358 11.0268 43.8837 10.8087C43.8544 10.7175 43.8267 10.6589 43.8007 10.6329C43.7779 10.6036 43.7388 10.5889 43.6835 10.5889C43.563 10.5889 43.4703 10.5596 43.4052 10.501C43.34 10.4424 43.3075 10.3578 43.3075 10.2471C43.3075 10.2016 43.3108 10.1723 43.3173 10.1592L43.327 10.0616C43.3433 9.9444 43.3742 9.85976 43.4198 9.80768C43.4686 9.75559 43.5435 9.72955 43.6444 9.72955H43.7177C43.8544 9.72955 43.9504 9.66608 44.0057 9.53912C44.1066 9.31451 44.2352 9.10944 44.3915 8.92389C44.5477 8.73834 44.7235 8.58046 44.9188 8.45026C45.1141 8.31679 45.3225 8.21425 45.5438 8.14264C45.7684 8.06777 45.9963 8.03033 46.2274 8.03033C46.4683 8.03033 46.6929 8.06614 46.9012 8.13776C47.1128 8.20612 47.2968 8.30214 47.453 8.42584C47.6093 8.54954 47.7313 8.6944 47.8192 8.86041C47.9104 9.02643 47.9559 9.20546 47.9559 9.39752C47.9559 9.53099 47.9299 9.65306 47.8778 9.76373C47.8257 9.87441 47.7509 9.97207 47.6532 10.0567C47.5555 10.1381 47.4367 10.2048 47.2968 10.2569C47.16 10.309 47.0038 10.3432 46.828 10.3594L45.1337 10.5303C45.0686 10.5303 45.0149 10.5466 44.9725 10.5792C44.9335 10.6117 44.9139 10.6557 44.9139 10.711C44.9139 10.7956 44.9449 10.877 45.0067 10.9551C45.0718 11.0333 45.1565 11.1033 45.2606 11.1651C45.368 11.2237 45.4901 11.2709 45.6268 11.3067C45.7668 11.3425 45.91 11.3604 46.0565 11.3604C46.1965 11.3604 46.3397 11.3474 46.4862 11.3214C46.6359 11.2921 46.7824 11.2514 46.9257 11.1993C47.0721 11.1472 47.2137 11.0853 47.3505 11.0137C47.4872 10.9389 47.6158 10.8542 47.7362 10.7598ZM46.6473 9.50006C46.6962 9.4903 46.7385 9.46751 46.7743 9.4317C46.8101 9.39264 46.828 9.34544 46.828 9.2901C46.828 9.24127 46.8101 9.1957 46.7743 9.15338C46.7385 9.11106 46.6897 9.07363 46.6278 9.04108C46.566 9.00527 46.4943 8.9776 46.413 8.95807C46.3316 8.93854 46.2453 8.92877 46.1542 8.92877C46.0207 8.92877 45.884 8.9483 45.744 8.98737C45.604 9.02643 45.4771 9.07851 45.3632 9.14362C45.2492 9.20546 45.1565 9.27545 45.0848 9.35358C45.0132 9.42845 44.9774 9.50332 44.9774 9.57819C44.9774 9.65306 45.023 9.69049 45.1141 9.69049C45.1695 9.69049 45.259 9.68398 45.3827 9.67096C45.5064 9.65794 45.6431 9.64329 45.7928 9.62701C45.9426 9.60748 46.094 9.58632 46.2469 9.56354C46.3999 9.54075 46.5334 9.51959 46.6473 9.50006ZM51.3934 8.17682C51.273 8.17682 51.1672 8.20937 51.076 8.27448C50.9849 8.33632 50.9068 8.42421 50.8417 8.53815C50.7766 8.64882 50.7229 8.78066 50.6805 8.93365C50.6382 9.08339 50.604 9.24778 50.578 9.42682C50.552 9.60586 50.5341 9.79303 50.5243 9.98834C50.5145 10.1837 50.5096 10.3806 50.5096 10.5792C50.5096 10.8396 50.5194 11.0967 50.5389 11.3506C50.5617 11.6013 50.5731 11.834 50.5731 12.0489C50.5731 12.1889 50.521 12.2979 50.4169 12.376C50.3127 12.4574 50.1646 12.4981 49.9725 12.4981C49.9367 12.4981 49.896 12.4949 49.8505 12.4883C49.8049 12.4818 49.7609 12.4688 49.7186 12.4493C49.6796 12.4297 49.6438 12.4021 49.6112 12.3663C49.5819 12.3337 49.5656 12.2881 49.5624 12.2296C49.5331 11.9431 49.4908 11.6501 49.4354 11.3506C49.3801 11.0512 49.3101 10.7533 49.2255 10.4571C49.1441 10.1576 49.0448 9.86139 48.9276 9.56842C48.8137 9.27545 48.6818 8.98899 48.5321 8.70905C48.5061 8.66022 48.4833 8.61464 48.4637 8.57233C48.4475 8.53001 48.4393 8.48932 48.4393 8.45026C48.4393 8.40143 48.4605 8.34934 48.5028 8.29401C48.5484 8.23541 48.6037 8.1817 48.6688 8.13287C48.7372 8.08405 48.8104 8.04498 48.8885 8.01569C48.9699 7.98313 49.0481 7.96686 49.1229 7.96686C49.2466 7.96686 49.3557 8.05312 49.4501 8.22565C49.5445 8.39492 49.6324 8.66673 49.7137 9.04108C49.73 9.10618 49.743 9.15175 49.7528 9.1778C49.7626 9.20384 49.7756 9.21686 49.7919 9.21686C49.8277 9.21686 49.8505 9.16152 49.8602 9.05084C49.8993 8.7416 49.966 8.4763 50.0604 8.25494C50.1548 8.03033 50.272 7.84642 50.412 7.70319C50.5552 7.5567 50.718 7.44928 50.9003 7.38092C51.0858 7.31256 51.2893 7.27838 51.5106 7.27838C51.6376 7.27838 51.7662 7.28977 51.8964 7.31256C52.0266 7.33535 52.1438 7.36953 52.2479 7.4151C52.3521 7.46067 52.4367 7.51601 52.5018 7.58112C52.5669 7.64622 52.5995 7.71946 52.5995 7.80084C52.5995 7.85944 52.5865 7.92942 52.5604 8.0108C52.5376 8.08893 52.5067 8.16543 52.4677 8.2403C52.4286 8.31191 52.383 8.37376 52.3309 8.42584C52.2821 8.47467 52.2316 8.49908 52.1796 8.49908C52.121 8.49908 52.064 8.48281 52.0087 8.45026C51.9533 8.41445 51.8931 8.37701 51.828 8.33795C51.7662 8.29889 51.6994 8.26308 51.6278 8.23053C51.5594 8.19472 51.4813 8.17682 51.3934 8.17682ZM55.3583 7.56158C55.5373 7.56158 55.7098 7.58925 55.8759 7.64459C56.0419 7.69993 56.1884 7.77643 56.3153 7.87408C56.4423 7.97174 56.5432 8.08893 56.618 8.22565C56.6962 8.36237 56.7352 8.51373 56.7352 8.67975C56.7352 8.74811 56.719 8.81484 56.6864 8.87994C56.6571 8.94179 56.6164 8.99713 56.5643 9.04596C56.5122 9.09153 56.452 9.12897 56.3837 9.15826C56.3186 9.18431 56.2502 9.19733 56.1786 9.19733C56.1721 9.19733 56.1656 9.19895 56.1591 9.20221C56.1558 9.20221 56.1509 9.20221 56.1444 9.20221C56.1379 9.20546 56.1314 9.20709 56.1249 9.20709L56.1444 9.59772C56.1574 10.0632 56.2225 10.4034 56.3397 10.6182C56.4602 10.8331 56.6164 10.9405 56.8085 10.9405C56.8768 10.9405 56.9371 10.934 56.9891 10.921C57.0445 10.9079 57.0949 10.8933 57.1405 10.877C57.1893 10.8575 57.2349 10.8412 57.2772 10.8282C57.3195 10.8152 57.3619 10.8087 57.4042 10.8087C57.479 10.8087 57.5441 10.8412 57.5995 10.9063C57.6581 10.9714 57.6874 11.0495 57.6874 11.1407C57.6874 11.2318 57.6516 11.323 57.58 11.4141C57.5116 11.5053 57.4205 11.5883 57.3065 11.6631C57.1926 11.7348 57.064 11.7934 56.9208 11.8389C56.7775 11.8845 56.6327 11.9073 56.4862 11.9073C56.2323 11.9073 56.0093 11.8031 55.8173 11.5948C55.6252 11.3832 55.4885 11.074 55.4071 10.6671C55.3876 10.6019 55.3615 10.5694 55.329 10.5694C55.2899 10.5694 55.2557 10.5889 55.2264 10.628C54.9042 11.0349 54.5608 11.3409 54.1962 11.546C53.8316 11.7478 53.4719 11.8487 53.1171 11.8487C52.951 11.8487 52.8013 11.8243 52.6678 11.7755C52.5344 11.7266 52.4205 11.6583 52.326 11.5704C52.2349 11.4792 52.1633 11.3702 52.1112 11.2432C52.0624 11.113 52.038 10.9682 52.038 10.8087C52.038 10.584 52.0868 10.348 52.1844 10.1006C52.2854 9.85325 52.4205 9.60911 52.5897 9.36823C52.759 9.12734 52.9543 8.89785 53.1757 8.67975C53.4003 8.46165 53.6346 8.26959 53.8788 8.10358C54.1262 7.93756 54.3768 7.80573 54.6307 7.70807C54.8846 7.61041 55.1272 7.56158 55.3583 7.56158ZM55.1971 9.25104C55.2557 9.14036 55.3094 9.06061 55.3583 9.01178C55.4071 8.9597 55.4771 8.92552 55.5682 8.90924C55.6399 8.89948 55.6757 8.87669 55.6757 8.84088C55.6757 8.81484 55.6659 8.78717 55.6464 8.75787C55.5845 8.67324 55.5194 8.6 55.451 8.53815C55.3827 8.47304 55.2915 8.44049 55.1776 8.44049C55.0539 8.44049 54.9156 8.4763 54.7626 8.54791C54.6096 8.61953 54.4533 8.71556 54.2938 8.836C54.1376 8.95319 53.983 9.08828 53.83 9.24127C53.6802 9.39101 53.5468 9.54563 53.4296 9.70514C53.3124 9.86464 53.218 10.0225 53.1464 10.1788C53.0747 10.335 53.0389 10.475 53.0389 10.5987C53.0389 10.7094 53.0682 10.7956 53.1268 10.8575C53.1887 10.9193 53.2717 10.9503 53.3759 10.9503C53.6428 10.9503 53.9341 10.8087 54.2499 10.5255C54.5656 10.2422 54.8814 9.81744 55.1971 9.25104ZM60.495 8.17682C60.3746 8.17682 60.2688 8.20937 60.1776 8.27448C60.0865 8.33632 60.0083 8.42421 59.9432 8.53815C59.8781 8.64882 59.8244 8.78066 59.7821 8.93365C59.7398 9.08339 59.7056 9.24778 59.6796 9.42682C59.6535 9.60586 59.6356 9.79303 59.6259 9.98834C59.6161 10.1837 59.6112 10.3806 59.6112 10.5792C59.6112 10.8396 59.621 11.0967 59.6405 11.3506C59.6633 11.6013 59.6747 11.834 59.6747 12.0489C59.6747 12.1889 59.6226 12.2979 59.5184 12.376C59.4143 12.4574 59.2662 12.4981 59.0741 12.4981C59.0383 12.4981 58.9976 12.4949 58.952 12.4883C58.9065 12.4818 58.8625 12.4688 58.8202 12.4493C58.7811 12.4297 58.7453 12.4021 58.7128 12.3663C58.6835 12.3337 58.6672 12.2881 58.6639 12.2296C58.6346 11.9431 58.5923 11.6501 58.537 11.3506C58.4816 11.0512 58.4117 10.7533 58.327 10.4571C58.2456 10.1576 58.1464 9.86139 58.0292 9.56842C57.9152 9.27545 57.7834 8.98899 57.6337 8.70905C57.6076 8.66022 57.5848 8.61464 57.5653 8.57233C57.549 8.53001 57.5409 8.48932 57.5409 8.45026C57.5409 8.40143 57.5621 8.34934 57.6044 8.29401C57.6499 8.23541 57.7053 8.1817 57.7704 8.13287C57.8387 8.08405 57.912 8.04498 57.9901 8.01569C58.0715 7.98313 58.1496 7.96686 58.2245 7.96686C58.3482 7.96686 58.4572 8.05312 58.5516 8.22565C58.646 8.39492 58.7339 8.66673 58.8153 9.04108C58.8316 9.10618 58.8446 9.15175 58.8544 9.1778C58.8641 9.20384 58.8772 9.21686 58.8934 9.21686C58.9292 9.21686 58.952 9.16152 58.9618 9.05084C59.0009 8.7416 59.0676 8.4763 59.162 8.25494C59.2564 8.03033 59.3736 7.84642 59.5135 7.70319C59.6568 7.5567 59.8195 7.44928 60.0018 7.38092C60.1874 7.31256 60.3908 7.27838 60.6122 7.27838C60.7391 7.27838 60.8677 7.28977 60.9979 7.31256C61.1281 7.33535 61.2453 7.36953 61.3495 7.4151C61.4537 7.46067 61.5383 7.51601 61.6034 7.58112C61.6685 7.64622 61.701 7.71946 61.701 7.80084C61.701 7.85944 61.688 7.92942 61.662 8.0108C61.6392 8.08893 61.6083 8.16543 61.5692 8.2403C61.5302 8.31191 61.4846 8.37376 61.4325 8.42584C61.3837 8.47467 61.3332 8.49908 61.2811 8.49908C61.2225 8.49908 61.1656 8.48281 61.1102 8.45026C61.0549 8.41445 60.9947 8.37701 60.9296 8.33795C60.8677 8.29889 60.801 8.26308 60.7294 8.23053C60.661 8.19472 60.5829 8.17682 60.495 8.17682Z" fill="#1E1E1E"/>
<path d="M10.9838 85.7693C21.8902 85.7693 65.5357 85.7693 76.4421 85.7693" stroke="#1E1E1E" stroke-width="2" stroke-linecap="round"/>
<path d="M40.7891 37.9691C36.7996 41.8315 20.3061 58.2157 16.0884 62.0308M39.4593 40.1883C35.4004 44.2112 19.5419 59.9627 15.4036 63.5135" stroke="#1E1E1E" stroke-linecap="round"/>
<path d="M41.0284 41.6529C39.3512 45.2225 32.5335 58.9815 30.7968 62.4M40.3238 41.4546C38.597 44.9109 32.0174 58.4149 30.3204 61.7201" stroke="#1E1E1E" stroke-linecap="round"/>
<path d="M43.5739 38.0963C43.4548 42.0625 43.306 57.8141 43.2464 61.8181M42.9388 39.0973C42.7105 43.1485 42.8296 58.3524 42.8098 62.2619" stroke="#1E1E1E" stroke-linecap="round"/>
<path d="M44.8657 38.7962C46.5627 42.583 52.5766 58.2779 54.0751 62.0175M44.4786 38.3146C46.1558 42.1864 52.2491 57.3902 53.7575 61.262" stroke="#1E1E1E" stroke-linecap="round"/>
<path d="M44.4833 37.1037C48.2941 41.0605 63.19 57.9358 67.3183 62.3459M43.1932 39.1907C47.3216 43.1947 65.1053 59.0312 69.4024 63.3185" stroke="#1E1E1E" stroke-linecap="round"/>
<path d="M17.3876 59.875C18.2113 59.7522 19.4815 60.3472 20.1365 60.8099C20.7915 61.2632 21.1289 61.8676 21.3274 62.6325C21.5259 63.3974 21.6648 64.7006 21.3076 65.3994C20.9602 66.0982 19.9182 66.5043 19.2037 66.8065C18.4892 67.1181 17.7349 67.4014 17.0204 67.2503C16.3059 67.0992 15.4028 66.542 14.8967 65.8999C14.3806 65.2577 13.9738 64.219 13.9638 63.4068C13.9638 62.6041 14.2219 61.5748 14.857 61.046C15.4822 60.5077 17.3281 60.3472 17.7548 60.2244C18.1914 60.1017 17.467 60.3094 17.4571 60.3094M16.8716 59.9694C17.7349 59.7239 19.4716 59.9978 20.3251 60.4038C21.1785 60.8099 21.7839 61.622 21.9923 62.3964C22.2106 63.1613 22.0518 64.2756 21.6053 65.0122C21.1587 65.7394 20.0968 66.3626 19.3029 66.7781C18.4991 67.1842 17.4868 67.5903 16.8021 67.4675C16.1173 67.3542 15.7501 66.6554 15.2043 66.0604C14.6486 65.4749 13.4875 64.7572 13.4875 63.9357C13.4974 63.1141 14.5493 61.8109 15.2143 61.1499C15.8792 60.4983 17.07 60.2527 17.4769 59.9978C17.8739 59.7522 17.7151 59.6484 17.6158 59.6578" fill="white"/>
<path d="M18.5487 60.1111C19.3625 60.2055 20.1663 60.5266 20.6923 61.1121C21.2083 61.6976 21.6053 62.7647 21.6748 63.624C21.7343 64.4739 21.5358 65.6638 21.0595 66.2493C20.5732 66.8348 19.6503 66.9953 18.777 67.1181C17.9037 67.2409 16.6235 67.2975 15.8097 66.9859C14.9959 66.6743 14.2219 66.0038 13.9043 65.2483C13.5867 64.4928 13.6264 63.218 13.9142 62.4342C14.1921 61.6504 14.8173 60.9421 15.6013 60.5361C16.3853 60.1205 18.1319 60.0733 18.6281 59.9883C19.1243 59.9128 18.638 60.0261 18.5884 60.0639M17.9533 60.3189C18.7968 60.4133 19.5312 60.9043 20.1862 61.386C20.8411 61.8581 21.7541 62.5475 21.903 63.1991C22.0618 63.8507 21.6152 64.6345 21.1091 65.2955C20.603 65.9566 19.6602 66.8442 18.8861 67.1653C18.1021 67.4769 17.2784 67.5053 16.4448 67.1936C15.6013 66.882 14.331 65.966 13.8348 65.2861C13.3386 64.5967 13.1302 63.9357 13.4677 63.1047C13.8051 62.2642 15.1547 60.8288 15.8692 60.2811C16.5838 59.7334 17.3975 59.79 17.7449 59.8184C18.0922 59.8467 17.9136 60.3661 17.9533 60.4416" stroke="#1E1E1E" stroke-linecap="round"/>
<path d="M31.4602 59.0685C32.2938 59.0969 33.3755 59.9279 34.0106 60.5795C34.6458 61.2405 35.1916 62.2415 35.2611 63.0159C35.3405 63.7902 34.9633 64.6212 34.4671 65.2162C33.9709 65.8111 33.1373 66.3494 32.2938 66.5855C31.4602 66.8121 30.2395 66.9065 29.4556 66.576C28.6716 66.255 27.9173 65.3673 27.5899 64.6212C27.2723 63.8752 27.3021 62.9309 27.5105 62.1093C27.7189 61.2972 28.1654 60.1451 28.8502 59.7201C29.5349 59.2952 31.1228 59.6163 31.6289 59.5785C32.135 59.5313 31.8671 59.4463 31.9068 59.4746M30.7457 58.7569C31.5594 58.6908 33.3755 59.0119 34.0503 59.6729C34.7252 60.3434 34.7053 61.9299 34.7847 62.7515C34.8542 63.5825 34.9534 64.0074 34.4969 64.6496C34.0404 65.3012 32.8396 66.2833 32.0655 66.6421C31.2915 67.001 30.5869 67.1898 29.8426 66.8027C29.1082 66.4249 28.0464 65.0651 27.6196 64.3474C27.2028 63.6391 27.1036 63.2614 27.312 62.5343C27.5204 61.7977 28.1654 60.4473 28.88 59.9657C29.5846 59.484 31.2022 59.7579 31.5694 59.6446C31.9266 59.5313 31.1327 59.333 31.0632 59.2668" fill="white"/>
<path d="M31.4503 59.399C32.2442 59.484 33.2366 59.909 33.8221 60.4661C34.4076 61.0327 34.9237 62.0148 34.9634 62.7703C35.013 63.5258 34.5466 64.3568 34.0802 64.9895C33.6038 65.6316 32.9488 66.3116 32.1549 66.5949C31.3709 66.8876 30.0808 67.0387 29.3663 66.6987C28.6518 66.3682 28.1953 65.405 27.8975 64.5834C27.5899 63.7713 27.4113 62.5531 27.5502 61.7787C27.6891 61.0138 28.0166 60.3717 28.7311 59.9751C29.4556 59.569 31.4602 59.484 31.8969 59.399C32.3236 59.314 31.4404 59.4273 31.3511 59.4746M31.0335 59.484C31.9267 59.3707 33.4351 59.3423 34.0504 59.8523C34.6657 60.3622 34.6855 61.7032 34.7153 62.5437C34.755 63.3841 34.616 64.2057 34.2489 64.8762C33.8817 65.5372 33.3458 66.2549 32.5221 66.5288C31.6984 66.8026 30.051 66.8498 29.3167 66.5288C28.5823 66.2171 28.5128 65.3295 28.1159 64.659C27.7189 63.979 26.7761 63.2047 26.9548 62.487C27.1334 61.7787 28.5426 60.9761 29.2174 60.3717C29.8923 59.7767 30.6762 59.0307 31.0137 58.8796C31.3511 58.7191 31.1923 59.3423 31.2518 59.4368" stroke="#1E1E1E" stroke-linecap="round"/>
<path d="M43.9012 58.9075C44.7348 58.7942 45.7966 59.0114 46.4417 59.5308C47.0867 60.0501 47.6326 61.1456 47.7616 62.0238C47.9005 62.902 47.6723 64.0825 47.2257 64.8096C46.789 65.5273 45.8562 66.0845 45.102 66.3772C44.3577 66.67 43.534 66.8777 42.7401 66.5661C41.9362 66.2544 40.8049 65.1779 40.3285 64.498C39.8423 63.8086 39.7629 63.2042 39.872 62.4582C39.9812 61.7122 40.3484 60.5601 40.9736 60.0124C41.6087 59.4647 43.1271 59.3608 43.6531 59.1814C44.179 59.0019 44.0897 58.9075 44.1195 58.9075M44.4768 58.8886C45.2707 58.7847 46.1241 59.1625 46.6104 59.7574C47.0867 60.3523 47.315 61.6177 47.3745 62.4771C47.444 63.3364 47.4043 64.2052 46.9974 64.904C46.6005 65.6029 45.7966 66.4433 44.9432 66.6511C44.0897 66.8683 42.6309 66.5755 41.8767 66.1695C41.1225 65.7728 40.785 65.0363 40.4079 64.2336C40.0308 63.4403 39.3858 62.1371 39.6041 61.3911C39.8224 60.6356 40.924 60.1351 41.7179 59.7291C42.5118 59.3324 43.9012 59.0869 44.3676 58.9547C44.8241 58.8131 44.5661 58.8981 44.4668 58.9075" fill="white"/>
<path d="M43.7424 58.983C44.4668 58.8792 45.1516 58.983 45.7966 59.4174C46.4417 59.8613 47.3547 60.7395 47.6326 61.6177C47.9104 62.4865 47.841 63.8936 47.4539 64.6491C47.0669 65.3951 46.1142 65.7917 45.2905 66.1034C44.4668 66.4055 43.3454 66.7266 42.5118 66.5094C41.6782 66.2922 40.7156 65.5084 40.2789 64.8002C39.8522 64.0919 39.753 62.9965 39.9117 62.2505C40.0705 61.5044 40.6461 60.8717 41.2316 60.324C41.8171 59.7857 43.0874 59.238 43.4347 59.0019C43.792 58.7658 43.3851 58.8697 43.3554 58.9075M43.3256 59.0869C44.179 58.9453 45.3203 59.0869 45.9951 59.5024C46.67 59.9179 47.1165 60.6829 47.3845 61.5611C47.6425 62.4393 47.8906 64.0447 47.583 64.753C47.2852 65.4612 46.2928 65.5745 45.5585 65.8106C44.8142 66.0561 43.921 66.2922 43.1569 66.2072C42.3828 66.1222 41.5095 65.905 40.9339 65.3101C40.3484 64.7246 39.6537 63.582 39.6736 62.6754C39.6835 61.7688 40.3782 60.4279 41.0431 59.8802C41.708 59.3419 43.1966 59.5496 43.663 59.4269C44.1195 59.3041 43.9111 59.1341 43.8317 59.1625" stroke="#1E1E1E" stroke-linecap="round"/>
<path d="M55.4906 58.7136C56.3342 58.7325 57.2174 59.3086 57.7533 59.8752C58.2991 60.4418 58.6762 61.2634 58.7358 62.1227C58.7854 62.982 58.5075 64.3702 58.0709 65.0313C57.6441 65.6923 56.9296 65.9756 56.1556 66.0984C55.3716 66.2117 54.1906 66.0889 53.4066 65.7206C52.6127 65.3523 51.7791 64.6063 51.4218 63.8886C51.0546 63.1804 51.0546 62.1321 51.2333 61.4239C51.4119 60.7251 51.7493 60.1207 52.5035 59.6863C53.2677 59.2614 55.2425 58.9781 55.7784 58.8647C56.3143 58.7514 55.8082 58.9497 55.7288 58.9875M55.5601 59.3086C56.3739 59.3275 57.8525 59.4597 58.3289 60.0452C58.8152 60.6212 58.4877 62.066 58.4281 62.8026C58.3587 63.5392 58.3984 63.9075 57.922 64.4741C57.4457 65.0407 56.4433 65.985 55.57 66.2022C54.6868 66.41 53.2975 66.1456 52.6623 65.7584C52.0272 65.3712 51.9974 64.5591 51.7493 63.8603C51.5012 63.152 50.9951 62.321 51.1837 61.5278C51.3722 60.7345 52.1562 59.5635 52.8608 59.1103C53.5753 58.657 55.0143 58.8647 55.4113 58.8081C55.8181 58.742 55.3418 58.6381 55.2723 58.7325" fill="white"/>
<path d="M54.4784 58.7325C55.2624 58.5908 56.5227 58.6853 57.2571 59.1858C58.0014 59.6863 58.6564 60.9611 58.8945 61.7544C59.1327 62.5476 59.0235 63.2842 58.6663 63.9547C58.3189 64.6251 57.5846 65.3428 56.7907 65.7772C55.9967 66.2116 54.7761 66.7121 53.9028 66.5799C53.0394 66.4477 52.1264 65.7206 51.5905 64.984C51.0447 64.2569 50.5485 63.0387 50.6577 62.1793C50.7668 61.32 51.5806 60.3567 52.2356 59.8279C52.8905 59.2896 54.1906 59.1858 54.5776 58.9969C54.9646 58.7986 54.5181 58.5814 54.5677 58.6569M55.0937 58.7797C56.0166 58.8364 57.4357 59.5257 58.1403 60.1679C58.8548 60.81 59.3213 61.8016 59.361 62.6137C59.3907 63.4164 58.9243 64.4268 58.3586 65.0029C57.8029 65.5884 56.8303 65.8811 55.9967 66.0983C55.173 66.325 54.1211 66.5705 53.3669 66.325C52.6127 66.0794 51.8981 65.4184 51.4714 64.644C51.0348 63.8791 50.5286 62.5193 50.7767 61.6883C51.0248 60.8572 52.2455 60.064 52.96 59.6579C53.6745 59.2519 54.6471 59.4313 55.044 59.2519C55.4509 59.0724 55.3616 58.6097 55.3616 58.5625" stroke="#1E1E1E" stroke-linecap="round"/>
<path d="M66.6953 59.2008C67.5586 59.2008 69.0571 59.7768 69.7419 60.3245C70.4366 60.8628 70.7244 61.6938 70.8335 62.4493C70.9427 63.2048 70.8038 64.1869 70.4068 64.8668C70.0098 65.5562 69.2159 66.3211 68.4518 66.5572C67.6976 66.8027 66.596 66.5383 65.8616 66.3116C65.1273 66.0944 64.5021 65.8678 64.0555 65.2445C63.6188 64.6307 63.1425 63.4692 63.2119 62.6004C63.2913 61.741 63.9066 60.5795 64.5219 60.0601C65.1372 59.5502 66.4472 59.5974 66.9136 59.4935C67.3899 59.3896 67.3304 59.3708 67.3602 59.4369M68.0747 59.1441C68.8091 59.2574 69.1465 59.7674 69.6327 60.3245C70.119 60.8817 70.9427 61.5994 71.0122 62.5154C71.0816 63.422 70.6152 65.1029 70.0793 65.8017C69.5434 66.5005 68.5709 66.6044 67.7869 66.6894C67.0029 66.7744 66.1395 66.7177 65.3754 66.3116C64.6013 65.915 63.4997 65.0746 63.1623 64.2813C62.815 63.4975 63.0432 62.4115 63.3211 61.5805C63.6089 60.7589 64.0952 59.7107 64.8593 59.3424C65.6135 58.9741 67.3602 59.4369 67.8861 59.3613C68.4022 59.2952 68.0251 58.8325 67.9854 58.908" fill="white"/>
<path d="M67.8464 59.3141C68.68 59.3141 69.3846 59.8429 69.8907 60.3812C70.4068 60.9194 70.7938 61.7788 70.9228 62.5437C71.0518 63.3086 71.1312 64.3568 70.6846 64.9895C70.2281 65.6223 69.1365 66.0661 68.2235 66.3305C67.3006 66.5949 65.9807 66.8782 65.157 66.5949C64.3333 66.3022 63.5692 65.3767 63.2913 64.5929C63.0134 63.8186 63.2615 62.657 63.4799 61.9204C63.7081 61.1839 63.9165 60.5889 64.641 60.1734C65.3654 59.7579 67.3601 59.5502 67.8365 59.4085C68.3128 59.2574 67.5784 59.2857 67.509 59.3141M68.0647 59.4274C68.8686 59.4085 69.8709 59.909 70.3571 60.4945C70.8335 61.08 70.9228 62.1282 70.9625 62.9498C71.0022 63.7713 71.0121 64.8479 70.5953 65.4145C70.1686 65.9811 69.3151 66.1605 68.4418 66.3588C67.5685 66.5571 66.1494 66.9727 65.3456 66.6044C64.5417 66.2455 63.8768 64.9707 63.6188 64.1869C63.3608 63.4125 63.6287 62.6854 63.8073 61.911C63.986 61.1461 64.0654 60.0318 64.6707 59.569C65.2662 59.1063 66.8441 59.1347 67.4296 59.1535C68.0052 59.1724 68.1937 59.5974 68.154 59.6824" stroke="#1E1E1E" stroke-linecap="round"/>
<path d="M43.0758 34.9798C43.8995 35.0081 44.8919 35.3009 45.5072 35.8108C46.1225 36.3208 46.6187 37.2084 46.7675 38.0206C46.9065 38.8422 46.8172 39.9659 46.3805 40.7119C45.9339 41.4485 44.9415 42.2418 44.1179 42.4684C43.2942 42.7045 42.1331 42.459 41.4185 42.0718C40.6941 41.6846 40.1681 40.8253 39.8009 40.1359C39.4338 39.456 39.0963 38.7572 39.1956 37.9734C39.2948 37.1801 39.7116 35.943 40.3765 35.3953C41.0414 34.8476 42.7384 34.7721 43.185 34.6965C43.6217 34.621 43.0163 34.8287 43.0064 34.942M43.2942 35.1876C44.0682 35.1403 44.5545 35.1498 45.2293 35.6503C45.9042 36.1508 47.105 37.4634 47.3431 38.2C47.5813 38.9366 47.1447 39.4465 46.6683 40.0981C46.192 40.7497 45.3683 41.8168 44.5049 42.1096C43.6415 42.3929 42.3613 42.1757 41.5079 41.8357C40.6445 41.4957 39.7116 40.6647 39.3544 40.0698C38.9971 39.4654 39.2253 38.9932 39.3444 38.2567C39.4734 37.5295 39.5628 36.2547 40.0987 35.6786C40.6345 35.112 42.0834 34.9798 42.5697 34.8476C43.0461 34.7154 42.8377 34.8854 42.9766 34.8759" fill="white"/>
<path d="M42.5102 34.7626C43.3438 34.6587 44.4652 35.0175 45.1599 35.4708C45.8645 35.9241 46.4897 36.6984 46.7278 37.4728C46.966 38.2566 46.9462 39.3993 46.5988 40.1358C46.2515 40.8724 45.408 41.5523 44.6438 41.9112C43.8697 42.2795 42.8277 42.44 42.004 42.3173C41.1804 42.185 40.2277 41.7412 39.7017 41.1368C39.1856 40.5325 38.8582 39.5031 38.8879 38.6816C38.9177 37.8505 39.2948 36.8401 39.8902 36.1791C40.4758 35.5086 41.9147 34.8948 42.4208 34.7059C42.927 34.517 42.927 34.9136 42.9369 35.0459M42.6491 34.5642C43.5423 34.4226 44.9415 34.8475 45.6263 35.3953C46.321 35.943 46.6782 36.9817 46.8172 37.8316C46.9462 38.6816 46.7973 39.7864 46.44 40.4758C46.0828 41.1652 45.4774 41.7318 44.6736 41.949C43.8797 42.1662 42.5697 41.9206 41.6766 41.779C40.7834 41.6373 39.8009 41.6751 39.3246 41.1085C38.8383 40.5419 38.6398 39.2387 38.7887 38.3605C38.9475 37.4917 39.5727 36.4435 40.2376 35.8485C40.9124 35.2631 42.4407 35.0175 42.798 34.8192C43.1552 34.6209 42.4705 34.5454 42.3812 34.6587" stroke="#1E1E1E" stroke-linecap="round"/>
<path d="M65.0045 36.6717C64.5579 41.044 65.7885 45.6429 65.2724 47.6543ZM65.0045 36.6717C64.8656 40.8362 64.8854 45.3974 65.2724 47.6543Z" stroke="#1E1E1E" stroke-linecap="round"/>
<path d="M62.8014 42.6965C63.506 44.6702 65.0541 46.7572 65.2725 47.6543ZM62.8014 42.6965C63.635 44.5758 64.548 46.6533 65.2725 47.6543Z" stroke="#1E1E1E" stroke-linecap="round"/>
<path d="M66.7313 42.3377C65.8679 44.4625 65.848 46.6911 65.2725 47.6543ZM66.7313 42.3377C66.0465 44.3491 65.4412 46.5589 65.2725 47.6543Z" stroke="#1E1E1E" stroke-linecap="round"/>
<path d="M41.6798 38.8573C42.1065 38.8857 43.9325 38.9707 44.3791 38.914M42.2653 38.6307C42.6325 38.5646 43.7638 38.3568 44.0616 38.3663" stroke="#1E1E1E" stroke-linecap="round"/>
</svg>
