<svg width="83" height="120" viewBox="0 0 83 120" fill="none" xmlns="http://www.w3.org/2000/svg">
<path d="M21.8977 2.01138C31.0277 5.83768 40.9186 5.05913 61.305 2.01138C76.6583 -0.836975 83.6131 6.72067 81.0087 21.1903C82.0524 45.8571 83.2034 62.2637 81.0087 98.6183C80.9404 111.417 71.3422 120 61.305 117.797C47.7271 117.19 31.3301 117.095 21.8977 117.797C7.40283 118.158 1.80387 110.372 2.19404 98.6183C4.98376 83.6834 0.0773569 61.0104 2.19404 21.1903C-0.78102 11.6673 11.6459 3.70141 21.8977 2.01138Z" fill="white"/>
<path d="M21.8977 2.01138C34.7929 4.01472 46.8102 2.72347 61.305 2.01138M21.8977 2.01138C32.7933 1.66957 42.5183 2.52408 61.305 2.01138M21.8977 2.01138C7.23702 2.88487 3.15973 8.85694 2.19405 21.1903M21.8977 2.01138C10.9241 2.01138 1.53076 6.44533 2.19405 21.1903M61.305 2.01138C73.7027 1.54615 79.3602 8.44867 81.0087 21.1903M61.305 2.01138C72.2786 2.99881 79.6821 10.4045 81.0087 21.1903M81.0087 21.1903C79.37 43.2651 81.8281 68.4731 81.0087 98.6182M81.0087 21.1903C81.2233 50.7563 81.2721 79.8191 81.0087 98.6182M81.0087 98.6182C80.5112 109.679 74.2392 119.525 61.305 117.797M81.0087 98.6182C81.1063 110.781 75.8389 118.566 61.305 117.797M61.305 117.797C50.0584 119.573 41.7477 116.876 21.8977 117.797M61.305 117.797C51.9604 117.807 42.0403 118.272 21.8977 117.797M21.8977 117.797C8.60262 115.984 1.54052 111.369 2.19405 98.6182M21.8977 117.797C6.64201 117.36 2.56472 111.407 2.19405 98.6182M2.19405 98.6182C2.08676 72.2329 0.145654 42.686 2.19405 21.1903M2.19405 98.6182C3.66695 81.7085 2.95489 66.9255 2.19405 21.1903" stroke="#1E1E1E" stroke-width="2" stroke-linecap="round"/>
<path d="M10.7927 85.7746C21.5126 85.7746 64.412 85.7746 75.132 85.7746" stroke="#1E1E1E" stroke-width="2" stroke-linecap="round"/>
<path d="M10.0805 100.583C10.0705 99.7286 10.0505 96.3011 10.0405 95.4466" stroke="#1E1E1E" stroke-linecap="round"/>
<path d="M10.0092 95.6393C10.2531 95.2974 11.2383 93.9492 11.4821 93.6074" stroke="#1E1E1E" stroke-linecap="round"/>
<path d="M12.9382 100.644C12.9482 99.7896 12.9682 96.3621 12.9782 95.5076" stroke="#1E1E1E" stroke-linecap="round"/>
<path d="M13.0084 95.7002C12.7646 95.3584 11.7794 94.0101 11.5355 93.6683" stroke="#1E1E1E" stroke-linecap="round"/>
<path d="M7.92151 101.106C9.07251 101.096 13.657 101.068 14.7983 101.058" stroke="#1E1E1E" stroke-linecap="round"/>
<path d="M11.6852 101.192C11.695 101.79 11.734 104.201 11.7438 104.8" stroke="#1E1E1E" stroke-linecap="round"/>
<path d="M52.079 96.5215C52.4301 96.1702 53.8348 94.746 54.1859 94.3852" stroke="#1E1E1E" stroke-linecap="round"/>
<path d="M54.1815 94.347C54.5717 94.6603 56.1129 95.9136 56.503 96.2269" stroke="#1E1E1E" stroke-linecap="round"/>
<path d="M56.5907 96.4788C55.9177 97.4852 53.2352 101.52 52.5622 102.536" stroke="#1E1E1E" stroke-linecap="round"/>
<path d="M52.1446 96.5215C51.7935 96.1702 50.3889 94.746 50.0377 94.3852" stroke="#1E1E1E" stroke-linecap="round"/>
<path d="M50.0421 94.347C49.6519 94.6603 48.1108 95.9136 47.7206 96.2269" stroke="#1E1E1E" stroke-linecap="round"/>
<path d="M47.6329 96.4788C48.306 97.4852 50.9884 101.52 51.6615 102.536" stroke="#1E1E1E" stroke-linecap="round"/>
<path d="M23.1925 1.90393C32.7713 1.90393 42.35 1.90393 58.6884 1.90393C61.1075 1.90393 62.3268 3.08125 62.3268 5.44539C62.3268 7.91397 62.3268 10.3825 62.3268 12.5188C62.3268 14.8735 61.1075 16.0508 58.6884 16.0508C46.4858 16.0508 34.2832 16.0508 23.1925 16.0508C20.7637 16.0508 19.5542 14.8735 19.5542 12.5188C19.5542 10.1072 19.5542 7.6956 19.5542 5.44539C19.5542 3.08125 20.7637 1.90393 23.1925 1.90393Z" fill="white"/>
<path d="M23.1925 1.90393C37.0339 1.90393 50.885 1.90393 58.6884 1.90393M23.1925 1.90393C37.0729 1.90393 50.963 1.90393 58.6884 1.90393M23.1925 1.90393C20.7637 1.90393 19.5542 3.08125 19.5542 5.44539M58.6884 1.90393C61.1075 1.90393 62.3268 3.08125 62.3268 5.44539M62.3268 5.44539C62.3268 7.59116 62.3268 9.74642 62.3268 12.5188M62.3268 5.44539C62.3268 7.55318 62.3268 9.66096 62.3268 12.5188M62.3268 12.5188C62.3268 14.8735 61.1075 16.0508 58.6884 16.0508M58.6884 16.0508C44.7008 16.0508 30.7131 16.0508 23.1925 16.0508M58.6884 16.0508C46.398 16.0508 34.1174 16.0508 23.1925 16.0508M23.1925 16.0508C20.7637 16.0508 19.5542 14.8735 19.5542 12.5188M19.5542 12.5188C19.5542 10.7433 19.5542 8.96786 19.5542 5.44539M19.5542 12.5188C19.5542 10.8288 19.5542 9.14826 19.5542 5.44539" stroke="#1E1E1E" stroke-width="2" stroke-linecap="round"/>
<path d="M24.3483 8.46124C24.3483 8.33429 24.4053 8.23826 24.5192 8.17316C24.6332 8.1048 24.7959 8.07062 25.0075 8.07062C25.0563 8.07062 25.1003 8.07713 25.1393 8.09015C25.1784 8.10317 25.2126 8.12921 25.2419 8.16827C25.2744 8.20408 25.3037 8.25454 25.3298 8.31964C25.3558 8.38475 25.3819 8.46775 25.4079 8.56866C25.4339 8.6826 25.46 8.73956 25.486 8.73956C25.5088 8.73956 25.5365 8.69236 25.569 8.59796C25.6276 8.41241 25.7041 8.25128 25.7985 8.11456C25.8962 7.97459 26.0052 7.85903 26.1257 7.76788C26.2461 7.67348 26.3763 7.6035 26.5163 7.55792C26.6595 7.51235 26.8093 7.48956 26.9655 7.48956C27.2813 7.48956 27.5759 7.54978 27.8493 7.67023C28.1227 7.78741 28.3587 7.9518 28.5573 8.16339C28.7559 8.37172 28.9121 8.61912 29.0261 8.90558C29.14 9.18878 29.197 9.4964 29.197 9.82843C29.197 10.18 29.1351 10.5055 29.0114 10.805C28.891 11.1045 28.7217 11.3633 28.5036 11.5814C28.2855 11.7962 28.0251 11.9638 27.7224 12.0843C27.4229 12.208 27.0941 12.2698 26.736 12.2698L26.487 12.2601C26.3405 12.2601 26.2673 12.3431 26.2673 12.5091L26.5163 14.7503C26.513 14.8056 26.4935 14.8561 26.4577 14.9017C26.4252 14.9505 26.3796 14.9928 26.321 15.0286C26.2656 15.0644 26.1989 15.0921 26.1208 15.1116C26.0459 15.1312 25.9678 15.1409 25.8864 15.1409C25.652 15.1409 25.5251 15.0644 25.5056 14.9114C25.4372 14.319 25.3607 13.7558 25.2761 13.222C25.1947 12.6881 25.11 12.1917 25.0222 11.7327C24.9375 11.2705 24.8545 10.8506 24.7731 10.473C24.6918 10.0954 24.6185 9.76658 24.5534 9.48663C24.4916 9.20669 24.4427 8.97882 24.4069 8.80304C24.3679 8.62726 24.3483 8.51333 24.3483 8.46124ZM25.9352 9.75031C25.9352 9.96189 25.9434 10.1719 25.9597 10.3802C25.9759 10.5853 26.002 10.8082 26.0378 11.0491C26.0573 11.1956 26.1371 11.2786 26.277 11.2982C26.3617 11.3177 26.4561 11.3372 26.5602 11.3568C26.6677 11.373 26.7572 11.3812 26.8288 11.3812C27.0371 11.3812 27.2259 11.3502 27.3952 11.2884C27.5645 11.2265 27.7093 11.1387 27.8298 11.0247C27.9502 10.9075 28.043 10.7692 28.1081 10.6097C28.1732 10.4502 28.2057 10.2728 28.2057 10.0775C28.2057 9.83982 28.1732 9.61847 28.1081 9.41339C28.043 9.20506 27.9535 9.02439 27.8395 8.8714C27.7289 8.7184 27.597 8.59796 27.444 8.51007C27.2943 8.42218 27.1315 8.37823 26.9557 8.37823C26.8028 8.37823 26.6628 8.41241 26.5358 8.48077C26.4121 8.54588 26.3047 8.63865 26.2136 8.75909C26.1257 8.87628 26.0573 9.01951 26.0085 9.18878C25.9597 9.35805 25.9352 9.54523 25.9352 9.75031ZM29.8073 10.2484C29.8073 10.193 29.8138 10.1312 29.8268 10.0628C29.8399 9.99445 29.8464 9.91958 29.8464 9.8382C29.8464 9.78286 29.822 9.74054 29.7731 9.71124C29.7276 9.68195 29.6755 9.64939 29.6169 9.61359C29.5583 9.57778 29.5046 9.53221 29.4557 9.47687C29.4102 9.42153 29.3874 9.34178 29.3874 9.23761C29.3874 9.16274 29.4069 9.08787 29.446 9.013C29.4883 8.93813 29.5485 8.86977 29.6266 8.80792C29.8187 8.66469 30.0173 8.53611 30.2224 8.42218C30.4307 8.30825 30.6374 8.21222 30.8425 8.13409C31.0508 8.05597 31.2559 7.99575 31.4577 7.95343C31.6595 7.91111 31.8532 7.88995 32.0388 7.88995C32.3513 7.88995 32.6442 7.94855 32.9177 8.06573C33.1944 8.17967 33.4336 8.33754 33.6354 8.53937C33.8405 8.73794 34.0016 8.97231 34.1188 9.24249C34.2393 9.50942 34.2995 9.79588 34.2995 10.1019C34.2995 10.4013 34.236 10.6862 34.1091 10.9564C33.9854 11.2233 33.8177 11.4577 33.6061 11.6595C33.3946 11.8613 33.1455 12.0208 32.8591 12.138C32.5759 12.2584 32.2764 12.3187 31.9606 12.3187C31.6514 12.3187 31.3649 12.2666 31.1013 12.1624C30.8376 12.0582 30.6097 11.915 30.4177 11.7327C30.2256 11.5472 30.0759 11.3291 29.9684 11.0784C29.861 10.8245 29.8073 10.5478 29.8073 10.2484ZM32.0681 11.4398C32.2048 11.4398 32.3464 11.4121 32.4929 11.3568C32.6393 11.3014 32.7728 11.2217 32.8932 11.1175C33.0169 11.0101 33.1179 10.8799 33.196 10.7269C33.2774 10.5739 33.3181 10.4013 33.3181 10.2093C33.3181 10.014 33.2822 9.83169 33.2106 9.66241C33.139 9.49314 33.0397 9.34666 32.9128 9.22296C32.7891 9.09601 32.641 8.99672 32.4684 8.92511C32.2992 8.8535 32.1153 8.81769 31.9167 8.81769C31.5554 8.81769 31.2787 8.91209 31.0866 9.10089C30.8946 9.28644 30.7985 9.5729 30.7985 9.96027C30.7985 10.1719 30.8294 10.3688 30.8913 10.5511C30.9564 10.7301 31.0459 10.8864 31.1599 11.0198C31.2738 11.15 31.4072 11.2526 31.5602 11.3275C31.7165 11.4023 31.8858 11.4398 32.0681 11.4398ZM35.0222 7.92902C35.0222 7.88019 35.0433 7.83299 35.0856 7.78741C35.128 7.73859 35.1833 7.69627 35.2516 7.66046C35.32 7.6214 35.3965 7.59047 35.4811 7.56769C35.569 7.54165 35.6569 7.52863 35.7448 7.52863C35.7936 7.52863 35.8343 7.54165 35.8669 7.56769C35.9027 7.59373 35.9336 7.64419 35.9597 7.71906C35.9857 7.79067 36.0085 7.89321 36.028 8.02667C36.0508 8.15688 36.072 8.32778 36.0915 8.53937C36.1045 8.60447 36.1159 8.65493 36.1257 8.69073C36.1387 8.72329 36.155 8.73956 36.1745 8.73956C36.2038 8.73956 36.2331 8.68911 36.2624 8.5882C36.5 7.90135 36.8434 7.55792 37.2927 7.55792C37.501 7.55792 37.6898 7.62303 37.8591 7.75323C38.0316 7.88344 38.1911 8.09666 38.3376 8.39288C38.4873 8.68585 38.6289 9.07322 38.7624 9.55499C38.8959 10.0335 39.0293 10.6243 39.1628 11.3275C39.1693 11.3633 39.1742 11.3958 39.1774 11.4251C39.1807 11.4544 39.1823 11.4821 39.1823 11.5081C39.1823 11.583 39.1644 11.6481 39.1286 11.7034C39.096 11.7555 39.0521 11.7995 38.9968 11.8353C38.9414 11.8678 38.8796 11.8922 38.8112 11.9085C38.7429 11.928 38.6745 11.9378 38.6061 11.9378C38.4694 11.9378 38.3701 11.9232 38.3083 11.8939C38.2497 11.8646 38.2123 11.8092 38.196 11.7278C38.1016 11.2331 38.0088 10.7936 37.9177 10.4095C37.8298 10.0254 37.7419 9.7031 37.654 9.44269C37.5694 9.17902 37.4847 8.97882 37.4001 8.8421C37.3155 8.70538 37.2308 8.63702 37.1462 8.63702C37.0615 8.63702 36.9818 8.69073 36.9069 8.79816C36.8353 8.90232 36.7653 9.06671 36.697 9.29132C36.6286 9.51593 36.5619 9.80076 36.4968 10.1458C36.4349 10.4909 36.3747 10.9026 36.3161 11.3812C36.2998 11.5114 36.2347 11.6155 36.1208 11.6937C36.0069 11.7718 35.862 11.8109 35.6862 11.8109C35.569 11.8109 35.4795 11.7864 35.4177 11.7376C35.3558 11.6888 35.3216 11.622 35.3151 11.5374C35.2858 10.8603 35.2533 10.3037 35.2175 9.86749C35.1849 9.42804 35.154 9.07648 35.1247 8.81281C35.0954 8.54588 35.071 8.34731 35.0515 8.2171C35.0319 8.08689 35.0222 7.99087 35.0222 7.92902ZM40.1491 6.2298C40.1491 6.05727 40.1979 5.93683 40.2956 5.86847C40.3932 5.79685 40.5544 5.76105 40.779 5.76105C40.8604 5.76105 40.9287 5.76919 40.9841 5.78546C41.0427 5.79848 41.0915 5.82452 41.1306 5.86359C41.1729 5.90265 41.2054 5.95473 41.2282 6.01984C41.2543 6.08169 41.2754 6.16144 41.2917 6.25909C41.3307 6.56183 41.3731 6.87433 41.4186 7.19659C41.4675 7.51886 41.5179 7.84275 41.57 8.16827C41.5895 8.31476 41.666 8.388 41.7995 8.388C41.8353 8.388 41.8939 8.38475 41.9753 8.37823C42.0599 8.36847 42.1592 8.3587 42.2731 8.34894C42.3871 8.33592 42.5091 8.3229 42.6393 8.30988C42.7728 8.29685 42.9046 8.28546 43.0349 8.2757C43.1683 8.26267 43.2936 8.25291 43.4108 8.2464C43.5313 8.23663 43.6371 8.23175 43.7282 8.23175C43.7998 8.23175 43.8568 8.2464 43.8991 8.2757C43.9414 8.30174 43.974 8.33754 43.9968 8.38312C44.0228 8.42544 44.0391 8.47426 44.0456 8.5296C44.0554 8.58169 44.0602 8.6354 44.0602 8.69073C44.0602 8.73956 44.0505 8.79002 44.0309 8.8421C44.0147 8.89419 43.9903 8.94139 43.9577 8.9837C43.9284 9.02277 43.891 9.05532 43.8454 9.08136C43.7998 9.1074 43.7477 9.12042 43.6891 9.12042C43.4059 9.12042 43.1195 9.13019 42.8298 9.14972C42.5433 9.166 42.2569 9.18878 41.9704 9.21808C41.8239 9.23761 41.7507 9.31085 41.7507 9.43781C41.7507 9.44757 41.7523 9.46059 41.7556 9.47687C41.7588 9.48989 41.7604 9.50128 41.7604 9.51105C41.7995 9.79425 41.8353 10.0595 41.8679 10.3069C41.9037 10.5543 41.933 10.7757 41.9557 10.971C41.9818 11.1631 42.0013 11.3242 42.0143 11.4544C42.0306 11.5814 42.0388 11.666 42.0388 11.7083C42.0388 11.8255 42.0274 11.9232 42.0046 12.0013C41.9818 12.0827 41.9444 12.1478 41.8923 12.1966C41.8402 12.2487 41.7702 12.2845 41.6823 12.304C41.5977 12.3268 41.4903 12.3382 41.36 12.3382C41.2363 12.3382 41.1452 12.3089 41.0866 12.2503C41.028 12.1917 40.9955 12.1022 40.989 11.9818C40.9694 11.5976 40.9385 11.2119 40.8962 10.8245C40.8539 10.4339 40.805 10.0449 40.7497 9.65753C40.7204 9.51756 40.6472 9.44757 40.53 9.44757C40.5202 9.44757 40.5088 9.4492 40.4958 9.45245C40.4828 9.45571 40.4714 9.45734 40.4616 9.45734C40.2598 9.50291 40.0694 9.54848 39.8903 9.59406C39.7113 9.63963 39.5436 9.68846 39.3874 9.74054C39.2995 9.76984 39.2214 9.791 39.153 9.80402C39.0847 9.81378 39.0228 9.81866 38.9675 9.81866C38.8926 9.81866 38.8373 9.78611 38.8015 9.72101C38.7656 9.65265 38.7477 9.56801 38.7477 9.4671C38.7477 9.43129 38.751 9.3906 38.7575 9.34503C38.764 9.2962 38.777 9.249 38.7966 9.20343C38.8128 9.1546 38.8389 9.11066 38.8747 9.07159C38.9072 9.02928 38.9528 8.9951 39.0114 8.96906C39.1481 8.91372 39.3304 8.85675 39.5583 8.79816C39.7862 8.73631 40.0433 8.67934 40.3298 8.62726C40.3949 8.61098 40.4453 8.58494 40.4811 8.54913C40.5202 8.51007 40.5397 8.4531 40.5397 8.37823C40.5397 8.36196 40.5397 8.34568 40.5397 8.32941C40.5397 8.30988 40.5365 8.29034 40.53 8.27081C40.4779 7.97133 40.4274 7.69952 40.3786 7.45538C40.333 7.20799 40.2923 6.9964 40.2565 6.82062C40.224 6.64484 40.1979 6.50649 40.1784 6.40558C40.1589 6.30467 40.1491 6.24607 40.1491 6.2298ZM47.9323 10.8001C48.0267 10.7187 48.1195 10.678 48.2106 10.678C48.2627 10.678 48.3099 10.6911 48.3522 10.7171C48.3946 10.7431 48.4418 10.7838 48.4938 10.8392C48.5427 10.914 48.5768 10.9759 48.5964 11.0247C48.6192 11.0703 48.6306 11.1159 48.6306 11.1614C48.6306 11.2591 48.5817 11.3519 48.4841 11.4398C48.3278 11.57 48.1585 11.6872 47.9763 11.7913C47.794 11.8922 47.6035 11.9785 47.405 12.0501C47.2064 12.1217 47.0013 12.1754 46.7897 12.2112C46.5781 12.2503 46.3682 12.2698 46.1599 12.2698C45.8962 12.2698 45.6488 12.2357 45.4177 12.1673C45.1865 12.1022 44.9798 12.0078 44.7975 11.8841C44.6185 11.7604 44.4671 11.6123 44.3434 11.4398C44.2197 11.264 44.1319 11.067 44.0798 10.8489C44.0505 10.7578 44.0228 10.6992 43.9968 10.6732C43.974 10.6439 43.9349 10.6292 43.8796 10.6292C43.7591 10.6292 43.6664 10.5999 43.6013 10.5413C43.5362 10.4827 43.5036 10.3981 43.5036 10.2874C43.5036 10.2418 43.5069 10.2125 43.5134 10.1995L43.5231 10.1019C43.5394 9.98468 43.5703 9.90004 43.6159 9.84796C43.6647 9.79588 43.7396 9.76984 43.8405 9.76984H43.9138C44.0505 9.76984 44.1465 9.70636 44.2018 9.57941C44.3028 9.3548 44.4313 9.14972 44.5876 8.96417C44.7438 8.77863 44.9196 8.62075 45.1149 8.49054C45.3102 8.35708 45.5186 8.25454 45.7399 8.18292C45.9645 8.10805 46.1924 8.07062 46.4235 8.07062C46.6644 8.07062 46.889 8.10642 47.0974 8.17804C47.3089 8.2464 47.4929 8.34243 47.6491 8.46613C47.8054 8.58982 47.9274 8.73468 48.0153 8.9007C48.1065 9.06671 48.152 9.24575 48.152 9.43781C48.152 9.57127 48.126 9.69334 48.0739 9.80402C48.0218 9.91469 47.947 10.0123 47.8493 10.097C47.7516 10.1784 47.6328 10.2451 47.4929 10.2972C47.3561 10.3493 47.1999 10.3834 47.0241 10.3997L45.3298 10.5706C45.2647 10.5706 45.211 10.5869 45.1686 10.6194C45.1296 10.652 45.11 10.6959 45.11 10.7513C45.11 10.8359 45.141 10.9173 45.2028 10.9954C45.2679 11.0735 45.3526 11.1435 45.4567 11.2054C45.5641 11.264 45.6862 11.3112 45.8229 11.347C45.9629 11.3828 46.1061 11.4007 46.2526 11.4007C46.3926 11.4007 46.5358 11.3877 46.6823 11.3616C46.8321 11.3323 46.9785 11.2916 47.1218 11.2396C47.2682 11.1875 47.4099 11.1256 47.5466 11.054C47.6833 10.9791 47.8119 10.8945 47.9323 10.8001ZM46.8434 9.54034C46.8923 9.53058 46.9346 9.50779 46.9704 9.47198C47.0062 9.43292 47.0241 9.38572 47.0241 9.33038C47.0241 9.28156 47.0062 9.23598 46.9704 9.19366C46.9346 9.15135 46.8858 9.11391 46.8239 9.08136C46.7621 9.04555 46.6905 9.01788 46.6091 8.99835C46.5277 8.97882 46.4414 8.96906 46.3503 8.96906C46.2168 8.96906 46.0801 8.98859 45.9401 9.02765C45.8002 9.06671 45.6732 9.11879 45.5593 9.1839C45.4453 9.24575 45.3526 9.31573 45.2809 9.39386C45.2093 9.46873 45.1735 9.5436 45.1735 9.61847C45.1735 9.69334 45.2191 9.73077 45.3102 9.73077C45.3656 9.73077 45.4551 9.72426 45.5788 9.71124C45.7025 9.69822 45.8392 9.68357 45.989 9.6673C46.1387 9.64777 46.2901 9.62661 46.4431 9.60382C46.596 9.58103 46.7295 9.55988 46.8434 9.54034ZM49.6755 6.88898C49.5811 6.88898 49.4916 6.87596 49.4069 6.84991C49.3255 6.82062 49.2539 6.78156 49.1921 6.73273C49.1335 6.68064 49.0863 6.62042 49.0505 6.55206C49.0147 6.4837 48.9968 6.40883 48.9968 6.32745C48.9968 6.19073 49.0505 6.08006 49.1579 5.99542C49.2686 5.91079 49.4151 5.86847 49.5974 5.86847C49.682 5.86847 49.7634 5.88475 49.8415 5.9173C49.9196 5.94659 49.988 5.98728 50.0466 6.03937C50.1084 6.09145 50.1572 6.1533 50.1931 6.22491C50.2289 6.29327 50.2468 6.36489 50.2468 6.43976C50.2468 6.57973 50.1947 6.69041 50.0905 6.77179C49.9896 6.84991 49.8513 6.88898 49.6755 6.88898ZM49.0065 8.37823C49.0065 8.2643 49.0554 8.17153 49.153 8.09991C49.2539 8.02504 49.3858 7.98761 49.5485 7.98761C49.8415 7.98761 49.9977 8.08852 50.0173 8.29034C50.0303 8.43032 50.0433 8.5882 50.0563 8.76398C50.0726 8.93976 50.0873 9.12693 50.1003 9.3255C50.1166 9.52081 50.1296 9.72426 50.1393 9.93585C50.1524 10.1442 50.1638 10.3509 50.1735 10.556C50.1833 10.7578 50.1914 10.9531 50.1979 11.1419C50.2044 11.3307 50.2077 11.5032 50.2077 11.6595C50.2077 11.8222 50.1491 11.9443 50.0319 12.0257C49.918 12.1071 49.7503 12.1478 49.529 12.1478C49.4281 12.1478 49.3483 12.1234 49.2897 12.0745C49.2344 12.029 49.2067 11.9606 49.2067 11.8694C49.2067 11.4202 49.1953 11.0003 49.1725 10.6097C49.153 10.2158 49.1302 9.86587 49.1042 9.55988C49.0814 9.25389 49.0586 8.99998 49.0358 8.79816C49.0163 8.59308 49.0065 8.4531 49.0065 8.37823ZM53.7575 8.2171C53.6371 8.2171 53.5313 8.24965 53.4401 8.31476C53.349 8.37661 53.2709 8.4645 53.2057 8.57843C53.1406 8.68911 53.0869 8.82094 53.0446 8.97394C53.0023 9.12368 52.9681 9.28807 52.9421 9.4671C52.916 9.64614 52.8981 9.83331 52.8884 10.0286C52.8786 10.2239 52.8737 10.4209 52.8737 10.6194C52.8737 10.8799 52.8835 11.137 52.903 11.3909C52.9258 11.6416 52.9372 11.8743 52.9372 12.0892C52.9372 12.2291 52.8851 12.3382 52.7809 12.4163C52.6768 12.4977 52.5287 12.5384 52.3366 12.5384C52.3008 12.5384 52.2601 12.5351 52.2145 12.5286C52.169 12.5221 52.125 12.5091 52.0827 12.4896C52.0436 12.47 52.0078 12.4424 51.9753 12.4066C51.946 12.374 51.9297 12.3284 51.9265 12.2698C51.8972 11.9834 51.8548 11.6904 51.7995 11.3909C51.7442 11.0915 51.6742 10.7936 51.5895 10.4974C51.5082 10.1979 51.4089 9.90167 51.2917 9.6087C51.1778 9.31573 51.0459 9.02928 50.8962 8.74933C50.8701 8.7005 50.8474 8.65493 50.8278 8.61261C50.8115 8.57029 50.8034 8.5296 50.8034 8.49054C50.8034 8.44171 50.8246 8.38963 50.8669 8.33429C50.9125 8.2757 50.9678 8.22198 51.0329 8.17316C51.1013 8.12433 51.1745 8.08527 51.2526 8.05597C51.334 8.02342 51.4121 8.00714 51.487 8.00714C51.6107 8.00714 51.7197 8.0934 51.8141 8.26593C51.9085 8.4352 51.9964 8.70701 52.0778 9.08136C52.0941 9.14646 52.1071 9.19204 52.1169 9.21808C52.1266 9.24412 52.1397 9.25714 52.1559 9.25714C52.1918 9.25714 52.2145 9.2018 52.2243 9.09113C52.2634 8.78188 52.3301 8.51658 52.4245 8.29523C52.5189 8.07062 52.6361 7.8867 52.7761 7.74347C52.9193 7.59698 53.0821 7.48956 53.2643 7.4212C53.4499 7.35284 53.6533 7.31866 53.8747 7.31866C54.0016 7.31866 54.1302 7.33006 54.2604 7.35284C54.3906 7.37563 54.5078 7.40981 54.612 7.45538C54.7162 7.50096 54.8008 7.55629 54.8659 7.6214C54.931 7.6865 54.9636 7.75975 54.9636 7.84113C54.9636 7.89972 54.9505 7.96971 54.9245 8.05109C54.9017 8.12921 54.8708 8.20571 54.8317 8.28058C54.7927 8.35219 54.7471 8.41404 54.695 8.46613C54.6462 8.51495 54.5957 8.53937 54.5436 8.53937C54.485 8.53937 54.4281 8.52309 54.3727 8.49054C54.3174 8.45473 54.2572 8.4173 54.1921 8.37823C54.1302 8.33917 54.0635 8.30337 53.9919 8.27081C53.9235 8.23501 53.8454 8.2171 53.7575 8.2171ZM54.7194 10.2484C54.7194 10.193 54.7259 10.1312 54.739 10.0628C54.752 9.99445 54.7585 9.91958 54.7585 9.8382C54.7585 9.78286 54.7341 9.74054 54.6852 9.71124C54.6397 9.68195 54.5876 9.64939 54.529 9.61359C54.4704 9.57778 54.4167 9.53221 54.3679 9.47687C54.3223 9.42153 54.2995 9.34178 54.2995 9.23761C54.2995 9.16274 54.319 9.08787 54.3581 9.013C54.4004 8.93813 54.4606 8.86977 54.5388 8.80792C54.7308 8.66469 54.9294 8.53611 55.1345 8.42218C55.3428 8.30825 55.5495 8.21222 55.7546 8.13409C55.9629 8.05597 56.168 7.99575 56.3698 7.95343C56.5716 7.91111 56.7653 7.88995 56.9509 7.88995C57.2634 7.88995 57.5563 7.94855 57.8298 8.06573C58.1065 8.17967 58.3457 8.33754 58.5475 8.53937C58.7526 8.73794 58.9138 8.97231 59.0309 9.24249C59.1514 9.50942 59.2116 9.79588 59.2116 10.1019C59.2116 10.4013 59.1481 10.6862 59.0212 10.9564C58.8975 11.2233 58.7298 11.4577 58.5182 11.6595C58.3067 11.8613 58.0576 12.0208 57.7712 12.138C57.488 12.2584 57.1885 12.3187 56.8727 12.3187C56.5635 12.3187 56.277 12.2666 56.0134 12.1624C55.7497 12.0582 55.5218 11.915 55.3298 11.7327C55.1377 11.5472 54.988 11.3291 54.8806 11.0784C54.7731 10.8245 54.7194 10.5478 54.7194 10.2484ZM56.9802 11.4398C57.1169 11.4398 57.2585 11.4121 57.405 11.3568C57.5515 11.3014 57.6849 11.2217 57.8054 11.1175C57.9291 11.0101 58.03 10.8799 58.1081 10.7269C58.1895 10.5739 58.2302 10.4013 58.2302 10.2093C58.2302 10.014 58.1944 9.83169 58.1227 9.66241C58.0511 9.49314 57.9518 9.34666 57.8249 9.22296C57.7012 9.09601 57.5531 8.99672 57.3806 8.92511C57.2113 8.8535 57.0274 8.81769 56.8288 8.81769C56.4675 8.81769 56.1908 8.91209 55.9987 9.10089C55.8067 9.28644 55.7106 9.5729 55.7106 9.96027C55.7106 10.1719 55.7416 10.3688 55.8034 10.5511C55.8685 10.7301 55.958 10.8864 56.072 11.0198C56.1859 11.15 56.3194 11.2526 56.4724 11.3275C56.6286 11.4023 56.7979 11.4398 56.9802 11.4398Z" fill="#1E1E1E"/>
<path d="M41.0727 67.1901C41.0532 68.7662 40.7898 75.5168 40.6435 77.1118M40.702 67.7787C40.6727 69.2504 40.4484 75.1085 40.4777 76.6466" stroke="#1E1E1E" stroke-linecap="round"/>
<path d="M40.6608 77.1597C40.0853 77.2356 37.4517 77.4255 36.7396 77.549M40.4072 76.9698C39.8219 77.0837 37.3248 77.8623 36.603 77.9287" stroke="#1E1E1E" stroke-linecap="round"/>
<path d="M40.2626 77.1696C39.8724 77.7583 38.6922 80.018 38.3508 80.5782M40.7308 77.8247C40.2724 78.3374 38.341 79.7616 38.0386 80.1319" stroke="#1E1E1E" stroke-linecap="round"/>
<path d="M40.4077 77.7137C40.6222 78.1695 41.822 80.0399 42.0951 80.5051M40.8856 77.5428C41.0612 78.0366 41.6757 80.3912 41.8318 80.9514" stroke="#1E1E1E" stroke-linecap="round"/>
<path d="M47.5474 65.5174C47.5084 67.2739 47.7912 74.6986 47.9278 76.5406M48.435 64.9857C48.2887 66.7897 47.5279 75.0784 47.5084 77.0912" stroke="#1E1E1E" stroke-linecap="round"/>
<path d="M47.8289 76.7152C47.2437 76.8291 44.8734 77.2564 44.2491 77.4178M47.4095 76.3544C46.8145 76.5253 44.6978 77.6551 44.1223 77.788" stroke="#1E1E1E" stroke-linecap="round"/>
<path d="M48.3866 77.1049C48.0452 77.6651 46.4455 79.8868 46.0554 80.409M48.1135 76.7631C47.7429 77.2284 46.2309 79.2697 45.8505 79.9153" stroke="#1E1E1E" stroke-linecap="round"/>
<path d="M48.3366 77.5635C48.5317 78.0857 49.4096 79.9086 49.673 80.3929M47.9855 77.3736C48.122 77.9623 49.1365 80.4213 49.4486 80.8391" stroke="#1E1E1E" stroke-linecap="round"/>
<path d="M67.7886 66.957C65.2817 66.245 57.9855 66.2639 53.8399 61.8205C49.6846 57.3676 44.6612 45.6988 42.9054 40.2774C41.1496 34.856 40.9448 31.6184 43.3053 29.2922C45.6658 26.9661 56.893 23.3392 57.0589 26.3204C57.2247 29.2922 48.0947 41.1129 44.31 47.142C40.5156 53.1805 34.2533 59.3234 34.3021 62.5136C34.3606 65.6943 39.6865 67.1754 44.6319 66.2734C49.5773 65.3715 60.8338 58.6873 63.9844 57.0922M69.4566 66.3969C66.8229 65.381 57.6539 64.479 53.1571 60.2824C48.6604 56.0858 44.0271 46.1925 42.4762 41.2079C40.9155 36.2232 41.0911 32.7672 43.832 30.3651C46.5827 27.963 58.7268 24.0892 58.9512 26.7952C59.1658 29.4916 49.0994 40.8471 45.1489 46.5818C41.1984 52.3165 35.4141 57.9183 35.258 61.2129C35.102 64.517 39.1402 67.2609 44.2125 66.3969C49.2847 65.5329 62.414 57.7189 65.6816 56.0383" stroke="#1E1E1E" stroke-width="2" stroke-linecap="round"/>
<path d="M18.1215 51.8471C18.0679 50.8907 18.7975 49.4741 19.4562 48.5582C20.1228 47.6533 21.1561 46.6833 22.107 46.3862C23.0659 46.1001 24.2855 46.2245 25.1838 46.8179C26.082 47.4113 27.1021 48.8564 27.5233 49.9606C27.9367 51.0539 28.0632 52.3705 27.6876 53.4106C27.3216 54.4523 26.3303 55.6806 25.3115 56.1888C24.3024 56.6987 22.6539 56.7643 21.6135 56.4665C20.5652 56.1577 19.6786 55.2278 19.0724 54.383C18.4661 53.5382 18.0781 51.869 17.9699 51.3773C17.8696 50.8966 18.2486 51.4717 18.4469 51.4659M19.0739 50.6704C19.2506 49.6941 19.596 48.4943 20.1379 47.7331C20.6782 46.9813 21.2411 46.2139 22.3112 46.1299C23.3796 46.0553 25.6683 46.6467 26.5473 47.2369C27.4281 47.8178 27.4391 48.5737 27.616 49.6666C27.7849 50.7484 28.0099 52.7194 27.5718 53.7782C27.1449 54.8291 26.025 55.6784 25.0194 56.0051C24.0234 56.3334 22.4553 56.0643 21.5607 55.7229C20.6679 55.3721 20.1898 54.7999 19.6636 53.949C19.139 53.0887 18.4929 51.0481 18.3909 50.5767C18.2889 50.1054 18.9553 50.9989 19.0357 51.0992" fill="white"/>
<path d="M18.5444 49.8949C18.8181 48.8185 19.8581 47.9753 20.6116 47.4619C21.3747 46.95 22.1053 46.7808 23.0881 46.7983C24.0708 46.8159 25.7468 46.8708 26.5064 47.5767C27.2564 48.2809 27.5381 49.8842 27.6169 51.0286C27.6844 52.1807 27.5556 53.6001 26.9679 54.4505C26.3802 55.3008 25.0596 55.7881 24.0793 56.1384C23.0989 56.4887 21.9766 56.9701 21.0922 56.5724C20.1982 56.1731 19.1769 54.8438 18.7365 53.7363C18.296 52.6288 18.5065 50.5945 18.4306 49.9244C18.3451 49.2528 18.0985 49.7438 18.2506 49.7206M18.8852 50.8989C18.9177 49.9567 19.5844 49.0517 20.19 48.3203C20.8052 47.5906 21.6611 46.6202 22.546 46.5249C23.4309 46.4296 24.6646 47.1849 25.5184 47.7516C26.3626 48.3167 27.2664 48.9884 27.6174 49.936C27.9589 50.8821 27.9629 52.4395 27.5862 53.4311C27.2096 54.4227 26.3553 55.3837 25.3574 55.8858C24.3673 56.3988 22.71 56.8401 21.6318 56.478C20.552 56.1253 19.4295 54.5375 18.906 53.7257C18.3808 52.9233 18.5139 52.1331 18.4953 51.6369C18.475 51.1501 18.7829 50.7562 18.7891 50.7766" stroke="#1E1E1E" stroke-width="2" stroke-linecap="round"/>
<path fill-rule="evenodd" clip-rule="evenodd" d="M21.5974 45.6007C20.3141 45.5919 15.6356 45.6127 14.3492 45.8947C13.0516 46.1846 12.8927 46.9544 13.8453 47.3162C14.8059 47.689 18.9968 48.0146 20.1078 48.1017" fill="white"/>
<path d="M22.0662 46.634C20.6567 46.2837 15.5443 44.8728 14.1072 45.0037C12.6718 45.1251 12.5223 46.6642 13.4713 47.3752C14.4299 48.0878 18.807 49.0272 19.8299 49.2744M22.579 47.0784C21.0447 46.7074 14.9986 45.1029 13.5555 45.0482C12.1124 44.9935 12.9713 46.0393 13.9124 46.7392C14.8438 47.4376 18.2404 48.8264 19.1846 49.2355" stroke="#1E1E1E" stroke-width="2" stroke-linecap="round"/>
<path fill-rule="evenodd" clip-rule="evenodd" d="M19.2958 51.323C19.6375 51.1825 22.0323 49.7416 22.6959 49.3259C23.3594 48.9101 23.7915 49.0137 23.287 48.8293C22.7825 48.6449 20.3237 48.3465 19.648 48.2371" fill="white"/>
<path d="M19.6397 50.7267C20.362 50.7342 23.0249 51.208 23.7372 50.938C24.4587 50.6781 24.6647 49.5455 23.9398 49.156C23.2051 48.7659 20.167 48.6311 19.3584 48.5991M19.8996 51.2014C20.749 51.2073 23.5312 51.2305 24.2989 50.8685C25.0672 50.497 25.3691 49.3896 24.4963 49.0193C23.6333 48.6497 20.0164 48.6884 19.0724 48.6383" stroke="#1E1E1E" stroke-linecap="round"/>
<path fill-rule="evenodd" clip-rule="evenodd" d="M19.9084 53.548C20.7207 53.7996 21.9029 53.7884 22.7818 53.3671C23.6697 52.9559 25.6499 51.5839 25.1997 51.0404C24.7592 50.4977 21.0541 50.0061 20.1006 50.0984" fill="white"/>
<path d="M19.3491 52.435C20.1128 52.5502 22.813 53.3322 23.5533 53.0829C24.2936 52.8337 24.4886 51.2988 23.8012 50.9306C23.1034 50.5713 20.1109 50.8978 19.4073 50.9011M18.7408 52.0528C19.6225 52.1563 23.1532 53.0767 24.0761 53.0109C25.0087 52.9457 25.1152 51.9783 24.2883 51.6491C23.4614 51.3198 19.8951 51.1898 19.1159 51.0164" stroke="#1E1E1E" stroke-linecap="round"/>
<path fill-rule="evenodd" clip-rule="evenodd" d="M20.2828 54.0135C21.1746 53.965 23.0697 55.0668 23.599 55.1765C24.1283 55.2862 24.028 55.1846 23.4682 54.6724C22.9182 54.161 20.814 52.5596 20.2788 52.1158" fill="white"/>
<path d="M19.3396 54.4967C20.0553 54.5992 22.8498 55.4251 23.5523 55.2976C24.2443 55.1791 24.3003 54.2375 23.5223 53.7682C22.7443 53.299 19.6628 52.665 18.9038 52.4834M19.623 54.0754C20.303 54.128 22.4171 55.1877 23.1538 55.1292C23.9002 55.0714 24.8411 54.1857 24.0715 53.7361C23.3019 53.2865 19.3982 52.6769 18.5363 52.4315" stroke="#1E1E1E" stroke-linecap="round"/>
<path fill-rule="evenodd" clip-rule="evenodd" d="M26.6901 48.8955C26.5196 48.0079 27.0959 45.1628 26.8201 44.3873C26.5414 43.6027 25.3726 43.5696 25.0111 44.2298C24.6404 44.8928 24.6391 47.6024 24.6113 48.3506" fill="white"/>
<path d="M26.9011 50.3128C26.984 49.2088 27.7717 44.4235 27.527 43.2797C27.2824 42.1359 25.7859 42.703 25.4272 43.4618C25.0778 44.2178 25.3907 47.0787 25.3873 47.8389M27.3601 50.0128C27.4269 48.9835 27.8757 44.8012 27.5384 43.7456C27.2042 42.6991 25.6935 43.1308 25.3333 43.7003C24.9732 44.2698 25.4532 46.5602 25.3807 47.1717" stroke="#1E1E1E" stroke-width="2" stroke-linecap="round"/>
<path d="M41.6794 33.9794C40.2747 35.0333 33.4565 38.9545 33.6808 40.1888C33.9052 41.4231 41.455 41.1858 43.0352 41.3756M42.1768 33.799C40.7234 34.758 33.359 38.4323 33.4662 39.7616C33.5735 41.0908 41.1721 41.4611 42.8109 41.7744" stroke="#1E1E1E" stroke-width="2" stroke-linecap="round"/>
<path d="M34.5634 39.9892C35.4901 39.7708 38.8261 38.9353 39.6552 38.6884M34.222 40.5683C35.1389 40.4164 38.631 39.372 39.4796 39.0682" stroke="#1E1E1E" stroke-width="0.5" stroke-linecap="round"/>
<path d="M56.4109 49.4077C56.5989 48.4236 57.5449 47.3909 58.3817 46.8526C59.2186 46.3142 60.5061 46.0632 61.4431 46.1699C62.3818 46.2672 63.382 46.7324 63.9877 47.4708C64.5918 48.2185 65.0437 49.5888 65.0742 50.6187C65.1029 51.658 64.6506 52.8497 64.1463 53.6751C63.6516 54.5021 62.9789 55.3866 62.0928 55.5977C61.2164 55.8104 59.7329 55.4006 58.8622 54.9278C57.9916 54.455 57.2716 53.6398 56.8783 52.7626C56.4963 51.8775 56.5628 50.1482 56.5137 49.6567C56.4551 49.1636 56.5108 49.7819 56.5761 49.8024M56.3239 50.8145C56.4476 49.8585 57.3906 48.5159 58.0801 47.7018C58.7697 46.8878 59.6564 46.0193 60.4708 45.9317C61.2773 45.8331 62.1021 46.5593 62.922 47.1494C63.7515 47.7411 65.1208 48.5091 65.4154 49.4956C65.6988 50.49 65.1356 52.1855 64.6369 53.0891C64.1477 53.9944 63.3447 54.5093 62.4483 54.9411C61.5519 55.3729 60.1942 55.9024 59.2585 55.6799C58.3245 55.448 57.3541 54.4366 56.82 53.5747C56.2746 52.7207 55.9977 50.9829 56.0105 50.5306C56.0234 50.0783 56.6725 50.7948 56.8893 50.85" fill="white"/>
<path d="M56.4277 50.4066C56.4895 49.4112 57.3542 48.0653 58.0381 47.3372C58.722 46.6092 59.6231 46.0428 60.5388 46.0493C61.4641 46.0573 62.7768 46.758 63.542 47.3777C64.3056 48.0068 64.9434 48.8955 65.1317 49.8162C65.3199 50.7369 65.1654 52.0264 64.67 52.9113C64.1668 53.7852 63.0435 54.6533 62.1549 55.0961C61.2663 55.5389 60.156 55.7903 59.3515 55.5508C58.5374 55.3097 57.8099 54.5899 57.2972 53.6639C56.7846 52.7378 56.3667 50.5802 56.2912 50.0166C56.2175 49.4436 56.7669 50.221 56.8592 50.2556M56.1854 50.4922C56.2826 49.6284 57.0041 48.9646 57.7314 48.2147C58.4587 47.4648 59.6923 46.1509 60.5586 45.9945C61.4232 45.8475 62.2186 46.7913 62.9356 47.2967C63.643 47.8005 64.4807 48.0745 64.8475 49.044C65.2255 50.0058 65.6153 52.1008 65.1795 53.0923C64.7533 54.0853 63.2328 54.5879 62.2485 55.0149C61.272 55.4528 60.0669 55.9012 59.2685 55.6821C58.4781 55.474 58.0166 54.5371 57.4898 53.7441C56.9629 52.951 56.2982 51.4487 56.1055 50.9334C55.9112 50.4275 56.1357 50.658 56.3322 50.6615" stroke="#1E1E1E" stroke-width="2" stroke-linecap="round"/>
<path d="M58.1197 54.856C58.1685 54.3053 58.2367 52.169 58.3245 51.6658M58.6659 54.5047C58.6757 54.011 58.0319 52.6533 58.0124 52.1121" stroke="#1E1E1E" stroke-linecap="round"/>
<path d="M60.61 55.4519C60.6587 54.9677 60.5222 52.613 60.4832 51.9579M60.3369 55.3379C60.3466 54.7778 60.2686 52.0623 60.2296 51.4642" stroke="#1E1E1E" stroke-linecap="round"/>
<path d="M62.0018 54.9989C61.953 54.5052 62.1189 52.312 62.1579 51.6853M62.4993 54.866C62.5481 54.2868 62.9285 51.8088 62.8309 51.2486" stroke="#1E1E1E" stroke-linecap="round"/>
<path d="M28.2583 53.029C29.0288 53.1619 30.9114 54.0734 33.0183 53.836C35.1253 53.5987 39.5732 52.089 40.9096 51.5953M27.6925 52.5543C28.3558 52.7537 30.1701 54.5956 32.5501 54.2918C34.9302 53.9879 40.5682 51.282 41.9728 50.7503" stroke="#1E1E1E" stroke-width="2" stroke-linecap="round"/>
<path d="M46.8032 51.4006C47.5348 50.66 49.8466 47.5173 51.3975 46.1026C52.9387 44.6784 54.5189 42.77 56.0796 42.884C57.6403 42.9979 60.0788 46.1786 60.7519 46.7767M46.14 51.1537C47.0373 50.2992 50.8513 46.6628 52.4607 45.381C54.0702 44.0993 54.3433 43.3967 55.7772 43.4726C57.2111 43.5486 60.2056 45.2956 61.064 45.8273" stroke="#1E1E1E" stroke-width="2" stroke-linecap="round"/>
<path d="M46.9897 32.754C47.1751 32.754 47.5848 32.735 47.7116 32.7824C47.8384 32.8394 47.7994 32.9439 47.7798 33.0578C47.7506 33.1622 47.6433 33.3331 47.5457 33.4281C47.4384 33.5325 47.2043 33.6939 47.1361 33.6464C47.0678 33.599 47.1848 33.2287 47.1458 33.1527C47.1068 33.0768 47.019 33.2572 46.9117 33.2002C46.8044 33.1432 46.4825 32.8869 46.4923 32.8014C46.502 32.716 46.8434 32.7445 46.9507 32.678C47.058 32.621 47.1166 32.4786 47.1166 32.4501C47.1166 32.4217 46.9117 32.4501 46.941 32.5166M46.7361 32.5166C46.7947 32.3837 47.2629 32.3837 47.4775 32.3932C47.6921 32.4027 48.0335 32.4881 48.0042 32.5641C47.9847 32.6305 47.4287 32.6495 47.3409 32.8204C47.2434 32.9913 47.5555 33.5325 47.4287 33.5705C47.3019 33.6085 46.6679 33.0483 46.5703 33.0578C46.4728 33.0673 46.8727 33.6085 46.8532 33.637C46.8434 33.6749 46.424 33.4376 46.4825 33.2667C46.5508 33.1053 47.1751 32.8014 47.2336 32.659C47.2824 32.5071 46.8337 32.4311 46.7947 32.3932C46.7654 32.3552 46.9215 32.3172 47.0385 32.4406" stroke="#1E1E1E" stroke-linecap="round"/>
</svg>
