<svg width="84" height="120" viewBox="0 0 84 120" fill="none" xmlns="http://www.w3.org/2000/svg">
<path d="M22.2241 2.35004C36.8269 4.55161 47.4664 -0.749164 61.3715 2.35004C74.6177 2.72799 78.0867 7.3957 80.9452 21.4366C84.0363 42.6681 83.3096 60.9893 80.9452 98.4915C82.0402 112.825 77.6506 116.662 61.3715 117.578C51.9044 114.554 40.7513 117.833 22.2241 117.578C8.88105 117.975 0.741487 109.235 2.65041 98.4915C0.334509 68.9924 6.19693 43.4806 2.65041 21.4366C-0.266267 6.54531 6.69112 -0.909793 22.2241 2.35004Z" fill="white"/>
<path d="M22.2241 2.35003C34.2687 0.242952 49.0168 0.88547 61.3715 2.35003M22.2241 2.35003C31.5846 2.48232 40.7125 2.86972 61.3715 2.35003M22.2241 2.35003C7.72793 3.002 2.70853 8.21774 2.65039 21.4366M22.2241 2.35003C9.03607 0.913817 3.15427 9.89962 2.65039 21.4366M61.3715 2.35003C75.8483 2.44452 81.5072 7.42404 80.9452 21.4366M61.3715 2.35003C75.8386 4.00357 82.9801 10.7406 80.9452 21.4366M80.9452 21.4366C80.6351 48.9609 81.6719 75.068 80.9452 98.4915M80.9452 21.4366C80.4801 49.7735 80.9936 77.6002 80.9452 98.4915M80.9452 98.4915C79.7533 111.172 75.7804 117.654 61.3715 117.578M80.9452 98.4915C81.3425 112.428 74.8405 118.192 61.3715 117.578M61.3715 117.578C51.1001 118.92 40.3152 116.539 22.2241 117.578M61.3715 117.578C47.292 117.569 33.8617 117.049 22.2241 117.578M22.2241 117.578C7.42754 118.608 3.23179 112.003 2.65039 98.4915M22.2241 117.578C8.28026 118.154 2.6407 110.435 2.65039 98.4915M2.65039 98.4915C2.65039 66.5168 2.069 36.1389 2.65039 21.4366M2.65039 98.4915C2.11745 78.2239 2.22404 57.7105 2.65039 21.4366" stroke="#1E1E1E" stroke-width="2" stroke-linecap="round"/>
<path d="M21.4101 2.41078C36.6532 0.76727 47.1489 2.51468 61.4505 2.41078M21.4101 2.41078C34.5322 2.60914 46.3362 1.96685 61.4505 2.41078M21.4101 2.41078C7.11845 2.8925 2.6486 10.1655 1.3899 21.4907M21.4101 2.41078C10.1909 1.89128 -0.453542 8.18198 1.3899 21.4907M61.4505 2.41078C74.3942 1.90073 82.6005 9.95773 81.4707 21.4907M61.4505 2.41078C72.8778 4.37545 81.54 7.25632 81.4707 21.4907M81.4707 21.4907C80.2318 44.8399 83.2745 69.162 81.4707 98.5186M81.4707 21.4907C80.8264 39.4088 81.5797 57.2513 81.4707 98.5186M81.4707 98.5186C80.9553 112.989 72.9868 116.238 61.4505 117.598M81.4707 98.5186C82.2437 111.78 75.4448 117.211 61.4505 117.598M61.4505 117.598C51.1629 119.478 36.7325 118.6 21.4101 117.598M61.4505 117.598C47.3372 118.005 31.6085 117.513 21.4101 117.598M21.4101 117.598C8.05008 119.336 0.805153 110.25 1.3899 98.5186M21.4101 117.598C8.08973 118.59 2.87655 112.29 1.3899 98.5186M1.3899 98.5186C2.74771 80.0432 1.98456 59.7166 1.3899 21.4907M1.3899 98.5186C1.50883 72.7419 0.587111 47.8908 1.3899 21.4907" stroke="#1E1E1E" stroke-width="2" stroke-linecap="round"/>
<path d="M20.834 2.87277C29.8133 2.87277 38.7927 2.87277 57.2172 2.87277M20.834 2.87277C29.8529 2.87277 38.862 2.87277 57.2172 2.87277M20.834 2.87277C18.485 2.87277 17.3156 3.98734 17.3156 6.22592M57.2172 2.87277C59.5562 2.87277 60.7356 3.98734 60.7356 6.22592M60.7356 6.22592C60.7356 8.52117 60.7356 10.8259 60.7356 12.9417M60.7356 6.22592C60.7356 7.65219 60.7356 9.06901 60.7356 12.9417M60.7356 12.9417C60.7356 15.1802 59.5562 16.2948 57.2172 16.2948M57.2172 16.2948C43.7878 16.2948 30.3584 16.2948 20.834 16.2948M57.2172 16.2948C49.6452 16.2948 42.0831 16.2948 20.834 16.2948M20.834 16.2948C18.485 16.2948 17.3156 15.1802 17.3156 12.9417M17.3156 12.9417C17.3156 10.5897 17.3156 8.23781 17.3156 6.22592M17.3156 12.9417C17.3156 11.5626 17.3156 10.1836 17.3156 6.22592" stroke="#1E1E1E" stroke-width="2" stroke-linecap="round"/>
<path d="M23.6056 8.17145C23.5405 8.19749 23.477 8.21051 23.4152 8.21051C23.2589 8.21051 23.1515 8.11774 23.0929 7.93219C23.0766 7.88336 23.0652 7.84267 23.0587 7.81012C23.0555 7.77757 23.0538 7.74827 23.0538 7.72223C23.0538 7.56923 23.1401 7.4553 23.3126 7.38043C23.6544 7.24371 24.0027 7.13304 24.3575 7.0484C24.7124 6.96377 25.0704 6.92145 25.4318 6.92145C25.601 6.92145 25.767 6.93935 25.9298 6.97516C26.0958 7.01097 26.2439 7.07281 26.3741 7.16071C26.5044 7.2486 26.6101 7.36578 26.6915 7.51227C26.7729 7.65875 26.8136 7.84267 26.8136 8.06403C26.8136 8.22028 26.781 8.37002 26.7159 8.51324C26.6541 8.65647 26.5711 8.79319 26.4669 8.9234C26.3628 9.05361 26.2439 9.17731 26.1105 9.29449C25.977 9.41168 25.8403 9.5191 25.7003 9.61676C25.5603 9.71442 25.422 9.80393 25.2853 9.88531C25.1486 9.96344 25.0249 10.0318 24.9142 10.0904C24.8198 10.1457 24.7726 10.2027 24.7726 10.2613C24.7726 10.3297 24.823 10.3834 24.924 10.4224C25.2723 10.5461 25.6287 10.6617 25.9933 10.7691C26.3579 10.8765 26.7273 10.997 27.1017 11.1304C27.2775 11.1955 27.3654 11.2964 27.3654 11.4332C27.3654 11.4983 27.3458 11.565 27.3068 11.6334C27.271 11.6985 27.2303 11.7587 27.1847 11.814C27.0903 11.954 26.9731 12.024 26.8331 12.024C26.7843 12.024 26.7241 12.0142 26.6525 11.9947C26.4409 11.9133 26.213 11.8287 25.9689 11.7408C25.728 11.6529 25.4806 11.5666 25.2267 11.482C24.976 11.3941 24.7286 11.3111 24.4845 11.233C24.2404 11.1516 24.0141 11.0783 23.8058 11.0132C23.7309 10.9937 23.6805 10.9839 23.6544 10.9839C23.6284 10.9839 23.6072 10.9905 23.5909 11.0035C23.5779 11.0132 23.5714 11.036 23.5714 11.0718C23.5714 11.0816 23.573 11.0946 23.5763 11.1109C23.5795 11.1239 23.5812 11.1386 23.5812 11.1548C23.5909 11.2037 23.6023 11.2688 23.6154 11.3502C23.6316 11.4283 23.6463 11.5097 23.6593 11.5943C23.6756 11.6789 23.6886 11.7603 23.6984 11.8384C23.7081 11.9133 23.713 11.9752 23.713 12.024C23.713 12.2063 23.6137 12.3332 23.4152 12.4048L23.1954 12.4732C23.1629 12.483 23.1336 12.4895 23.1075 12.4927C23.0815 12.4992 23.0538 12.5025 23.0245 12.5025C22.8455 12.5025 22.7413 12.3918 22.712 12.1705C22.6339 11.578 22.533 10.9937 22.4093 10.4175C22.2889 9.84137 22.1505 9.26683 21.9943 8.69391C21.9845 8.66136 21.978 8.63369 21.9747 8.6109C21.9747 8.58486 21.9747 8.56207 21.9747 8.54254C21.9747 8.37002 22.0675 8.25283 22.2531 8.19098C22.3214 8.16819 22.3767 8.15029 22.4191 8.13727C22.4646 8.12425 22.5004 8.11448 22.5265 8.10797C22.5558 8.09821 22.5769 8.0917 22.59 8.08844C22.6062 8.08518 22.6209 8.08356 22.6339 8.08356C22.8097 8.08356 22.9236 8.18284 22.9757 8.38141C23.0441 8.63531 23.1075 8.88108 23.1661 9.11871C23.228 9.35634 23.2833 9.59072 23.3322 9.82184C23.3582 9.93577 23.4054 9.99274 23.4738 9.99274C23.4933 9.99274 23.5161 9.98948 23.5421 9.98297C23.5682 9.97321 23.5991 9.96018 23.6349 9.94391C23.7391 9.88857 23.8644 9.82021 24.0109 9.73883C24.1606 9.65745 24.3152 9.56793 24.4747 9.47028C24.6375 9.36936 24.797 9.26357 24.9532 9.15289C25.1128 9.04222 25.2544 8.93154 25.3781 8.82086C25.505 8.71018 25.6075 8.60114 25.6857 8.49371C25.7638 8.38629 25.8029 8.28538 25.8029 8.19098C25.8029 8.13239 25.7931 8.07867 25.7736 8.02985C25.7573 7.98102 25.7247 7.9387 25.6759 7.90289C25.6271 7.86709 25.5603 7.83942 25.4757 7.81989C25.3943 7.80035 25.2902 7.79059 25.1632 7.79059C25.0395 7.79059 24.9093 7.80198 24.7726 7.82477C24.6391 7.8443 24.5057 7.87197 24.3722 7.90778C24.2387 7.94358 24.1069 7.98427 23.9767 8.02985C23.8465 8.07542 23.7228 8.12262 23.6056 8.17145ZM31.6183 10.8033C31.7127 10.7219 31.8055 10.6812 31.8966 10.6812C31.9487 10.6812 31.9959 10.6942 32.0382 10.7203C32.0805 10.7463 32.1277 10.787 32.1798 10.8423C32.2286 10.9172 32.2628 10.9791 32.2823 11.0279C32.3051 11.0735 32.3165 11.119 32.3165 11.1646C32.3165 11.2623 32.2677 11.355 32.17 11.4429C32.0138 11.5731 31.8445 11.6903 31.6622 11.7945C31.4799 11.8954 31.2895 11.9817 31.0909 12.0533C30.8924 12.1249 30.6873 12.1786 30.4757 12.2144C30.2641 12.2535 30.0542 12.273 29.8458 12.273C29.5822 12.273 29.3348 12.2388 29.1036 12.1705C28.8725 12.1054 28.6658 12.011 28.4835 11.8873C28.3045 11.7636 28.1531 11.6155 28.0294 11.4429C27.9057 11.2672 27.8178 11.0702 27.7657 10.8521C27.7365 10.761 27.7088 10.7024 27.6827 10.6763C27.66 10.647 27.6209 10.6324 27.5656 10.6324C27.4451 10.6324 27.3523 10.6031 27.2872 10.5445C27.2221 10.4859 27.1896 10.4013 27.1896 10.2906C27.1896 10.245 27.1928 10.2157 27.1993 10.2027L27.2091 10.105C27.2254 9.98785 27.2563 9.90322 27.3019 9.85114C27.3507 9.79905 27.4256 9.77301 27.5265 9.77301H27.5997C27.7365 9.77301 27.8325 9.70953 27.8878 9.58258C27.9887 9.35797 28.1173 9.15289 28.2736 8.96735C28.4298 8.7818 28.6056 8.62392 28.8009 8.49371C28.9962 8.36025 29.2045 8.25771 29.4259 8.1861C29.6505 8.11123 29.8784 8.07379 30.1095 8.07379C30.3504 8.07379 30.575 8.1096 30.7833 8.18121C30.9949 8.24957 31.1788 8.3456 31.3351 8.4693C31.4913 8.593 31.6134 8.73785 31.7013 8.90387C31.7924 9.06989 31.838 9.24892 31.838 9.44098C31.838 9.57444 31.812 9.69651 31.7599 9.80719C31.7078 9.91787 31.6329 10.0155 31.5353 10.1002C31.4376 10.1815 31.3188 10.2483 31.1788 10.3004C31.0421 10.3524 30.8859 10.3866 30.7101 10.4029L29.0157 10.5738C28.9506 10.5738 28.8969 10.5901 28.8546 10.6226C28.8156 10.6552 28.796 10.6991 28.796 10.7545C28.796 10.8391 28.8269 10.9205 28.8888 10.9986C28.9539 11.0767 29.0385 11.1467 29.1427 11.2086C29.2501 11.2672 29.3722 11.3144 29.5089 11.3502C29.6489 11.386 29.7921 11.4039 29.9386 11.4039C30.0786 11.4039 30.2218 11.3908 30.3683 11.3648C30.518 11.3355 30.6645 11.2948 30.8077 11.2427C30.9542 11.1907 31.0958 11.1288 31.2325 11.0572C31.3693 10.9823 31.4978 10.8977 31.6183 10.8033ZM30.5294 9.54352C30.5782 9.53375 30.6206 9.51097 30.6564 9.47516C30.6922 9.4361 30.7101 9.3889 30.7101 9.33356C30.7101 9.28473 30.6922 9.23916 30.6564 9.19684C30.6206 9.15452 30.5717 9.11709 30.5099 9.08453C30.448 9.04873 30.3764 9.02106 30.295 9.00153C30.2137 8.98199 30.1274 8.97223 30.0363 8.97223C29.9028 8.97223 29.7661 8.99176 29.6261 9.03082C29.4861 9.06989 29.3592 9.12197 29.2452 9.18707C29.1313 9.24892 29.0385 9.31891 28.9669 9.39703C28.8953 9.4719 28.8595 9.54677 28.8595 9.62164C28.8595 9.69651 28.9051 9.73395 28.9962 9.73395C29.0516 9.73395 29.1411 9.72744 29.2648 9.71442C29.3885 9.7014 29.5252 9.68675 29.6749 9.67047C29.8247 9.65094 29.976 9.62978 30.129 9.60699C30.282 9.58421 30.4155 9.56305 30.5294 9.54352ZM35.212 8.06403C35.3683 8.06403 35.5164 8.07705 35.6564 8.10309C35.7963 8.12587 35.9233 8.15192 36.0372 8.18121C36.1512 8.20726 36.2488 8.2333 36.3302 8.25934C36.4116 8.28212 36.4702 8.29352 36.506 8.29352C36.5353 8.29352 36.5629 8.27887 36.589 8.24957C36.615 8.21702 36.6476 8.18284 36.6866 8.14703C36.7257 8.11123 36.7778 8.07867 36.8429 8.04938C36.908 8.01683 36.9943 8.00055 37.1017 8.00055C37.2254 8.00055 37.323 8.0331 37.3947 8.09821C37.4663 8.16005 37.5021 8.23818 37.5021 8.33258C37.5021 9.52399 37.4614 10.5364 37.38 11.3697C37.2986 12.1998 37.1668 12.8752 36.9845 13.3961C36.8022 13.9169 36.5662 14.2945 36.2765 14.5289C35.9868 14.7632 35.6352 14.8804 35.2218 14.8804C35.033 14.8804 34.8361 14.8381 34.631 14.7535C34.4292 14.6688 34.2436 14.5598 34.0743 14.4263C33.9051 14.2961 33.7651 14.1513 33.6544 13.9918C33.547 13.8323 33.4933 13.6793 33.4933 13.5328C33.4933 13.4839 33.5193 13.427 33.5714 13.3619C33.6235 13.2968 33.687 13.2333 33.7618 13.1714C33.8367 13.1096 33.9148 13.0575 33.9962 13.0152C34.0776 12.9729 34.1476 12.9517 34.2062 12.9517C34.268 12.9517 34.3201 12.9761 34.3624 13.025C34.4047 13.077 34.4438 13.1405 34.4796 13.2154C34.5187 13.2903 34.5577 13.3716 34.5968 13.4595C34.6359 13.5507 34.6847 13.6337 34.7433 13.7086C34.8019 13.7834 34.8735 13.8453 34.9581 13.8941C35.0428 13.9462 35.1486 13.9722 35.2755 13.9722C35.9851 13.9722 36.4018 12.8882 36.5255 10.7203C36.5255 10.6226 36.4978 10.5738 36.4425 10.5738C36.3969 10.5738 36.3611 10.5966 36.3351 10.6422C36.0291 11.0556 35.671 11.3664 35.2609 11.5748C34.854 11.7798 34.4015 11.8824 33.9034 11.8824C33.6723 11.8824 33.4591 11.8482 33.2638 11.7798C33.0685 11.7082 32.8992 11.6106 32.756 11.4869C32.616 11.3599 32.507 11.2102 32.4288 11.0377C32.3507 10.8619 32.3116 10.6698 32.3116 10.4615C32.3116 10.2564 32.3475 10.0546 32.4191 9.85602C32.4939 9.6542 32.5965 9.46539 32.7267 9.28961C32.8601 9.11058 33.018 8.94619 33.2003 8.79645C33.3826 8.64671 33.5812 8.51813 33.796 8.41071C34.0109 8.30003 34.2371 8.21539 34.4747 8.1568C34.7156 8.09495 34.9614 8.06403 35.212 8.06403ZM34.0548 10.9839C34.5008 10.9839 34.9093 10.844 35.2804 10.564C35.6515 10.2808 35.9689 9.87067 36.2325 9.33356C36.2391 9.31403 36.2439 9.29938 36.2472 9.28961C36.2504 9.27659 36.2521 9.26357 36.2521 9.25055C36.2521 9.218 36.2179 9.18382 36.1495 9.14801C36.0812 9.1122 35.9917 9.08128 35.881 9.05524C35.7703 9.0292 35.6434 9.00804 35.5001 8.99176C35.3601 8.97223 35.2185 8.96246 35.0753 8.96246C34.8442 8.96246 34.6212 9.00153 34.4064 9.07965C34.1915 9.15778 34.0011 9.26194 33.8351 9.39215C33.6691 9.52236 33.5356 9.67047 33.4347 9.83649C33.3338 10.0025 33.2833 10.175 33.2833 10.3541C33.2833 10.5461 33.3533 10.6991 33.4933 10.813C33.6365 10.927 33.8237 10.9839 34.0548 10.9839ZM39.0548 6.89215C38.9604 6.89215 38.8709 6.87913 38.7863 6.85309C38.7049 6.82379 38.6333 6.78473 38.5714 6.7359C38.5128 6.68382 38.4656 6.6236 38.4298 6.55524C38.394 6.48688 38.3761 6.41201 38.3761 6.33063C38.3761 6.19391 38.4298 6.08323 38.5372 5.9986C38.6479 5.91396 38.7944 5.87164 38.9767 5.87164C39.0613 5.87164 39.1427 5.88792 39.2208 5.92047C39.299 5.94977 39.3673 5.99046 39.4259 6.04254C39.4878 6.09462 39.5366 6.15647 39.5724 6.22809C39.6082 6.29645 39.6261 6.36806 39.6261 6.44293C39.6261 6.58291 39.574 6.69358 39.4698 6.77496C39.3689 6.85309 39.2306 6.89215 39.0548 6.89215ZM38.3859 8.38141C38.3859 8.26748 38.4347 8.1747 38.5323 8.10309C38.6333 8.02822 38.7651 7.99078 38.9279 7.99078C39.2208 7.99078 39.3771 8.0917 39.3966 8.29352C39.4096 8.43349 39.4226 8.59137 39.4357 8.76715C39.4519 8.94293 39.4666 9.13011 39.4796 9.32867C39.4959 9.52399 39.5089 9.72744 39.5187 9.93903C39.5317 10.1474 39.5431 10.3541 39.5529 10.5591C39.5626 10.761 39.5708 10.9563 39.5773 11.1451C39.5838 11.3339 39.587 11.5064 39.587 11.6627C39.587 11.8254 39.5284 11.9475 39.4113 12.0289C39.2973 12.1102 39.1297 12.1509 38.9083 12.1509C38.8074 12.1509 38.7277 12.1265 38.6691 12.0777C38.6137 12.0321 38.5861 11.9638 38.5861 11.8726C38.5861 11.4234 38.5747 11.0035 38.5519 10.6129C38.5323 10.219 38.5096 9.86904 38.4835 9.56305C38.4607 9.25706 38.4379 9.00315 38.4152 8.80133C38.3956 8.59625 38.3859 8.45628 38.3859 8.38141ZM41.7062 7.63434C41.9243 7.63434 42.1489 7.66364 42.38 7.72223C42.6111 7.77757 42.8227 7.85081 43.0148 7.94196C43.2068 8.02985 43.3647 8.12913 43.4884 8.23981C43.6121 8.35048 43.674 8.45791 43.674 8.56207C43.674 8.61416 43.6512 8.67275 43.6056 8.73785C43.56 8.7997 43.5047 8.85992 43.4396 8.91852C43.3745 8.97386 43.3029 9.02106 43.2247 9.06012C43.1499 9.09593 43.0831 9.11383 43.0245 9.11383C42.9464 9.11383 42.8585 9.08128 42.7609 9.01617C42.6665 8.95107 42.5607 8.87946 42.4435 8.80133C42.3295 8.71995 42.2042 8.64671 42.0675 8.5816C41.9308 8.5165 41.7827 8.48395 41.6232 8.48395C41.519 8.48395 41.4327 8.50999 41.3644 8.56207C41.2993 8.6109 41.2667 8.68089 41.2667 8.77203C41.2667 8.85341 41.3058 8.93642 41.3839 9.02106C41.462 9.10244 41.5646 9.18707 41.6915 9.27496C41.8217 9.36285 41.9682 9.45563 42.131 9.55328C42.2937 9.65094 42.4598 9.75511 42.629 9.86578C42.8016 9.97646 42.9692 10.0969 43.132 10.2271C43.2947 10.3573 43.4396 10.4989 43.5665 10.6519C43.6967 10.8049 43.8009 10.9726 43.879 11.1548C43.9572 11.3339 43.9962 11.5292 43.9962 11.7408C43.9962 11.9231 43.9637 12.0891 43.8986 12.2388C43.8335 12.3886 43.7407 12.5172 43.6202 12.6246C43.4998 12.732 43.3566 12.815 43.1906 12.8736C43.0245 12.9322 42.8422 12.9615 42.6437 12.9615C42.393 12.9615 42.1619 12.9224 41.9503 12.8443C41.7387 12.7694 41.5564 12.6653 41.4034 12.5318C41.2504 12.3983 41.13 12.2388 41.0421 12.0533C40.9575 11.8677 40.9152 11.6643 40.9152 11.4429C40.9152 11.1565 40.9656 10.9481 41.0665 10.8179C41.1707 10.6877 41.3335 10.6226 41.5548 10.6226C41.6915 10.6226 41.8006 10.6487 41.882 10.7007C41.9633 10.7528 42.004 10.8163 42.004 10.8912C42.004 10.9302 41.9975 10.9709 41.9845 11.0132C41.9715 11.0523 41.9568 11.0946 41.9406 11.1402C41.9275 11.1825 41.9145 11.2281 41.9015 11.2769C41.8917 11.3257 41.8868 11.3746 41.8868 11.4234C41.8868 11.508 41.9064 11.5894 41.9454 11.6675C41.9845 11.7457 42.0366 11.814 42.1017 11.8726C42.17 11.9345 42.2482 11.9833 42.3361 12.0191C42.424 12.0549 42.5167 12.0728 42.6144 12.0728C42.8748 12.0728 43.005 11.9654 43.005 11.7505C43.005 11.5813 42.9383 11.4218 42.8048 11.272C42.6713 11.119 42.5037 10.9709 42.3019 10.8277C42.1001 10.6812 41.882 10.5347 41.6476 10.3882C41.4165 10.2418 41.2 10.0888 40.9982 9.92926C40.7963 9.76976 40.6287 9.60048 40.4952 9.42145C40.3618 9.23916 40.295 9.04222 40.295 8.83063C40.295 8.65485 40.3309 8.49371 40.4025 8.34723C40.4773 8.20074 40.5782 8.07542 40.7052 7.97125C40.8322 7.86383 40.9803 7.78082 41.1495 7.72223C41.3221 7.66364 41.5076 7.63434 41.7062 7.63434ZM44.6261 6.23297C44.6261 6.06045 44.6749 5.94 44.7726 5.87164C44.8702 5.80003 45.0314 5.76422 45.256 5.76422C45.3374 5.76422 45.4057 5.77236 45.4611 5.78864C45.5197 5.80166 45.5685 5.8277 45.6075 5.86676C45.6499 5.90582 45.6824 5.95791 45.7052 6.02301C45.7312 6.08486 45.7524 6.16461 45.7687 6.26227C45.8077 6.565 45.8501 6.8775 45.8956 7.19977C45.9445 7.52203 45.9949 7.84593 46.047 8.17145C46.0665 8.31793 46.143 8.39117 46.2765 8.39117C46.3123 8.39117 46.3709 8.38792 46.4523 8.38141C46.5369 8.37164 46.6362 8.36188 46.7501 8.35211C46.8641 8.33909 46.9861 8.32607 47.1163 8.31305C47.2498 8.30003 47.3816 8.28864 47.5118 8.27887C47.6453 8.26585 47.7706 8.25608 47.8878 8.24957C48.0083 8.23981 48.1141 8.23492 48.2052 8.23492C48.2768 8.23492 48.3338 8.24957 48.3761 8.27887C48.4184 8.30491 48.451 8.34072 48.4738 8.38629C48.4998 8.42861 48.5161 8.47744 48.5226 8.53278C48.5323 8.58486 48.5372 8.63857 48.5372 8.69391C48.5372 8.74274 48.5275 8.79319 48.5079 8.84528C48.4917 8.89736 48.4672 8.94456 48.4347 8.98688C48.4054 9.02594 48.368 9.05849 48.3224 9.08453C48.2768 9.11058 48.2247 9.1236 48.1661 9.1236C47.8829 9.1236 47.5965 9.13336 47.3068 9.15289C47.0203 9.16917 46.7338 9.19196 46.4474 9.22125C46.3009 9.24078 46.2277 9.31403 46.2277 9.44098C46.2277 9.45074 46.2293 9.46377 46.2325 9.48004C46.2358 9.49306 46.2374 9.50446 46.2374 9.51422C46.2765 9.79742 46.3123 10.0627 46.3448 10.3101C46.3807 10.5575 46.41 10.7789 46.4327 10.9742C46.4588 11.1662 46.4783 11.3274 46.4913 11.4576C46.5076 11.5845 46.5157 11.6692 46.5157 11.7115C46.5157 11.8287 46.5044 11.9263 46.4816 12.0045C46.4588 12.0858 46.4213 12.1509 46.3693 12.1998C46.3172 12.2519 46.2472 12.2877 46.1593 12.3072C46.0747 12.33 45.9672 12.3414 45.837 12.3414C45.7133 12.3414 45.6222 12.3121 45.5636 12.2535C45.505 12.1949 45.4725 12.1054 45.4659 11.9849C45.4464 11.6008 45.4155 11.2151 45.3732 10.8277C45.3309 10.4371 45.282 10.0481 45.2267 9.66071C45.1974 9.52073 45.1241 9.45074 45.007 9.45074C44.9972 9.45074 44.9858 9.45237 44.9728 9.45563C44.9598 9.45888 44.9484 9.46051 44.9386 9.46051C44.7368 9.50608 44.5463 9.55166 44.3673 9.59723C44.1883 9.6428 44.0206 9.69163 43.8644 9.74371C43.7765 9.77301 43.6984 9.79417 43.63 9.80719C43.5616 9.81696 43.4998 9.82184 43.4445 9.82184C43.3696 9.82184 43.3142 9.78929 43.2784 9.72418C43.2426 9.65582 43.2247 9.57119 43.2247 9.47028C43.2247 9.43447 43.228 9.39378 43.2345 9.34821C43.241 9.29938 43.254 9.25218 43.2736 9.2066C43.2898 9.15778 43.3159 9.11383 43.3517 9.07477C43.3842 9.03245 43.4298 8.99827 43.4884 8.97223C43.6251 8.91689 43.8074 8.85992 44.0353 8.80133C44.2631 8.73948 44.5203 8.68252 44.8068 8.63043C44.8719 8.61416 44.9223 8.58811 44.9581 8.55231C44.9972 8.51324 45.0167 8.45628 45.0167 8.38141C45.0167 8.36513 45.0167 8.34886 45.0167 8.33258C45.0167 8.31305 45.0135 8.29352 45.007 8.27399C44.9549 7.97451 44.9044 7.7027 44.8556 7.45856C44.81 7.21116 44.7693 6.99957 44.7335 6.82379C44.701 6.64801 44.6749 6.50966 44.6554 6.40875C44.6359 6.30784 44.6261 6.24925 44.6261 6.23297ZM52.4093 10.8033C52.5037 10.7219 52.5965 10.6812 52.6876 10.6812C52.7397 10.6812 52.7869 10.6942 52.8292 10.7203C52.8715 10.7463 52.9187 10.787 52.9708 10.8423C53.0197 10.9172 53.0538 10.9791 53.0734 11.0279C53.0962 11.0735 53.1075 11.119 53.1075 11.1646C53.1075 11.2623 53.0587 11.355 52.9611 11.4429C52.8048 11.5731 52.6355 11.6903 52.4532 11.7945C52.271 11.8954 52.0805 11.9817 51.882 12.0533C51.6834 12.1249 51.4783 12.1786 51.2667 12.2144C51.0551 12.2535 50.8452 12.273 50.6368 12.273C50.3732 12.273 50.1258 12.2388 49.8947 12.1705C49.6635 12.1054 49.4568 12.011 49.2745 11.8873C49.0955 11.7636 48.9441 11.6155 48.8204 11.4429C48.6967 11.2672 48.6088 11.0702 48.5568 10.8521C48.5275 10.761 48.4998 10.7024 48.4738 10.6763C48.451 10.647 48.4119 10.6324 48.3566 10.6324C48.2361 10.6324 48.1434 10.6031 48.0782 10.5445C48.0131 10.4859 47.9806 10.4013 47.9806 10.2906C47.9806 10.245 47.9838 10.2157 47.9904 10.2027L48.0001 10.105C48.0164 9.98785 48.0473 9.90322 48.0929 9.85114C48.1417 9.79905 48.2166 9.77301 48.3175 9.77301H48.3907C48.5275 9.77301 48.6235 9.70953 48.6788 9.58258C48.7797 9.35797 48.9083 9.15289 49.0646 8.96735C49.2208 8.7818 49.3966 8.62392 49.5919 8.49371C49.7872 8.36025 49.9956 8.25771 50.2169 8.1861C50.4415 8.11123 50.6694 8.07379 50.9005 8.07379C51.1414 8.07379 51.366 8.1096 51.5743 8.18121C51.7859 8.24957 51.9698 8.3456 52.1261 8.4693C52.2823 8.593 52.4044 8.73785 52.4923 8.90387C52.5835 9.06989 52.629 9.24892 52.629 9.44098C52.629 9.57444 52.603 9.69651 52.5509 9.80719C52.4988 9.91787 52.424 10.0155 52.3263 10.1002C52.2286 10.1815 52.1098 10.2483 51.9698 10.3004C51.8331 10.3524 51.6769 10.3866 51.5011 10.4029L49.8068 10.5738C49.7417 10.5738 49.6879 10.5901 49.6456 10.6226C49.6066 10.6552 49.587 10.6991 49.587 10.7545C49.587 10.8391 49.618 10.9205 49.6798 10.9986C49.7449 11.0767 49.8295 11.1467 49.9337 11.2086C50.0411 11.2672 50.1632 11.3144 50.2999 11.3502C50.4399 11.386 50.5831 11.4039 50.7296 11.4039C50.8696 11.4039 51.0128 11.3908 51.1593 11.3648C51.309 11.3355 51.4555 11.2948 51.5988 11.2427C51.7452 11.1907 51.8868 11.1288 52.0236 11.0572C52.1603 10.9823 52.2889 10.8977 52.4093 10.8033ZM51.3204 9.54352C51.3693 9.53375 51.4116 9.51097 51.4474 9.47516C51.4832 9.4361 51.5011 9.3889 51.5011 9.33356C51.5011 9.28473 51.4832 9.23916 51.4474 9.19684C51.4116 9.15452 51.3628 9.11709 51.3009 9.08453C51.2391 9.04873 51.1674 9.02106 51.0861 9.00153C51.0047 8.98199 50.9184 8.97223 50.8273 8.97223C50.6938 8.97223 50.5571 8.99176 50.4171 9.03082C50.2771 9.06989 50.1502 9.12197 50.0363 9.18707C49.9223 9.24892 49.8295 9.31891 49.7579 9.39703C49.6863 9.4719 49.6505 9.54677 49.6505 9.62164C49.6505 9.69651 49.6961 9.73395 49.7872 9.73395C49.8426 9.73395 49.9321 9.72744 50.0558 9.71442C50.1795 9.7014 50.3162 9.68675 50.4659 9.67047C50.6157 9.65094 50.767 9.62978 50.92 9.60699C51.073 9.58421 51.2065 9.56305 51.3204 9.54352ZM56.0665 8.22028C55.9461 8.22028 55.8403 8.25283 55.7491 8.31793C55.658 8.37978 55.5799 8.46767 55.5148 8.5816C55.4497 8.69228 55.396 8.82412 55.3536 8.97711C55.3113 9.12685 55.2771 9.29124 55.2511 9.47028C55.2251 9.64931 55.2072 9.83649 55.1974 10.0318C55.1876 10.2271 55.1827 10.4241 55.1827 10.6226C55.1827 10.883 55.1925 11.1402 55.212 11.3941C55.2348 11.6448 55.2462 11.8775 55.2462 12.0923C55.2462 12.2323 55.1941 12.3414 55.09 12.4195C54.9858 12.5009 54.8377 12.5416 54.6456 12.5416C54.6098 12.5416 54.5691 12.5383 54.5236 12.5318C54.478 12.5253 54.434 12.5123 54.3917 12.4927C54.3527 12.4732 54.3169 12.4455 54.2843 12.4097C54.255 12.3772 54.2387 12.3316 54.2355 12.273C54.2062 11.9866 54.1639 11.6936 54.1085 11.3941C54.0532 11.0946 53.9832 10.7968 53.8986 10.5005C53.8172 10.2011 53.7179 9.90485 53.6007 9.61188C53.4868 9.31891 53.3549 9.03245 53.2052 8.7525C53.1792 8.70367 53.1564 8.6581 53.1368 8.61578C53.1206 8.57347 53.1124 8.53278 53.1124 8.49371C53.1124 8.44489 53.1336 8.3928 53.1759 8.33746C53.2215 8.27887 53.2768 8.22516 53.3419 8.17633C53.4103 8.1275 53.4835 8.08844 53.5616 8.05914C53.643 8.02659 53.7212 8.01031 53.796 8.01031C53.9197 8.01031 54.0288 8.09658 54.1232 8.2691C54.2176 8.43837 54.3055 8.71018 54.3868 9.08453C54.4031 9.14964 54.4161 9.19521 54.4259 9.22125C54.4357 9.24729 54.4487 9.26031 54.465 9.26031C54.5008 9.26031 54.5236 9.20498 54.5333 9.0943C54.5724 8.78505 54.6391 8.51976 54.7335 8.2984C54.8279 8.07379 54.9451 7.88987 55.0851 7.74664C55.2283 7.60016 55.3911 7.49274 55.5734 7.42438C55.7589 7.35602 55.9624 7.32184 56.1837 7.32184C56.3107 7.32184 56.4392 7.33323 56.5695 7.35602C56.6997 7.3788 56.8169 7.41298 56.921 7.45856C57.0252 7.50413 57.1098 7.55947 57.1749 7.62457C57.24 7.68968 57.2726 7.76292 57.2726 7.8443C57.2726 7.90289 57.2596 7.97288 57.2335 8.05426C57.2107 8.13239 57.1798 8.20888 57.1407 8.28375C57.1017 8.35537 57.0561 8.41722 57.004 8.4693C56.9552 8.51813 56.9047 8.54254 56.8527 8.54254C56.7941 8.54254 56.7371 8.52627 56.6818 8.49371C56.6264 8.45791 56.5662 8.42047 56.5011 8.38141C56.4392 8.34235 56.3725 8.30654 56.3009 8.27399C56.2325 8.23818 56.1544 8.22028 56.0665 8.22028Z" fill="#1E1E1E"/>
<path d="M9.29773 86.0143C20.1899 86.0143 63.7784 86.0143 74.6706 86.0143" stroke="#1E1E1E" stroke-width="2" stroke-linecap="round"/>
<path d="M48.6334 25.8879C49.5254 25.9067 50.7841 26.5585 51.5175 27.2008C52.2608 27.8431 52.9645 28.901 53.0438 29.7605C53.1231 30.62 52.5185 31.6591 52.0031 32.3486C51.4779 33.0381 50.8436 33.6237 49.9218 33.8882C49.0001 34.1621 47.2855 34.3132 46.4431 33.9543C45.6106 33.5954 45.224 32.5564 44.8672 31.7346C44.5204 30.9129 44.1338 29.8927 44.3519 29.0332C44.5699 28.1737 45.4718 27.1158 46.1755 26.5963C46.8792 26.0673 48.118 25.954 48.5739 25.8784C49.0398 25.8123 48.8911 26.124 48.9407 26.1712M49.2578 26.1618C50.13 26.1523 51.1211 26.7757 51.7554 27.2952C52.3798 27.8147 52.9645 28.4192 53.0339 29.2599C53.1132 30.11 52.8357 31.5079 52.2212 32.358C51.5968 33.1987 50.1993 34.0582 49.3074 34.3321C48.4154 34.606 47.6919 34.436 46.8593 34.0015C46.0169 33.567 44.7582 32.6319 44.2726 31.7441C43.777 30.8656 43.5392 29.581 43.9158 28.6932C44.2924 27.8147 45.6799 26.9458 46.5224 26.4451C47.3648 25.9445 48.6037 25.8217 48.9902 25.6989C49.3767 25.5762 48.8217 25.5289 48.8415 25.6989" stroke="#1E1E1E" stroke-linecap="round"/>
<path d="M57.4465 66.2919H58.992L60.2875 67.9965L60.6284 68.451L62.5602 71.0192H61.0147L59.742 69.3146L59.4238 68.8828L57.4465 66.2919ZM63.0375 64.1101C63.0375 65.3374 62.8159 66.398 62.3727 67.2919C61.9295 68.1859 61.3215 68.8753 60.5488 69.3601C59.7761 69.845 58.8935 70.0874 57.9011 70.0874C56.9087 70.0874 56.0261 69.845 55.2534 69.3601C54.4806 68.8753 53.8727 68.1859 53.4295 67.2919C52.9863 66.398 52.7647 65.3374 52.7647 64.1101C52.7647 62.8828 52.9863 61.8222 53.4295 60.9283C53.8727 60.0343 54.4806 59.345 55.2534 58.8601C56.0261 58.3753 56.9087 58.1328 57.9011 58.1328C58.8935 58.1328 59.7761 58.3753 60.5488 58.8601C61.3215 59.345 61.9295 60.0343 62.3727 60.9283C62.8159 61.8222 63.0375 62.8828 63.0375 64.1101ZM61.6738 64.1101C61.6738 63.1025 61.5053 62.2521 61.1681 61.559C60.8348 60.8658 60.3822 60.3412 59.8102 59.9851C59.242 59.629 58.6056 59.451 57.9011 59.451C57.1965 59.451 56.5583 59.629 55.9863 59.9851C55.4181 60.3412 54.9655 60.8658 54.6284 61.559C54.295 62.2521 54.1284 63.1025 54.1284 64.1101C54.1284 65.1177 54.295 65.9681 54.6284 66.6612C54.9655 67.3544 55.4181 67.879 55.9863 68.2351C56.5583 68.5912 57.1965 68.7692 57.9011 68.7692C58.6056 68.7692 59.242 68.5912 59.8102 68.2351C60.3822 67.879 60.8348 67.3544 61.1681 66.6612C61.5053 65.9681 61.6738 65.1177 61.6738 64.1101Z" fill="#1E1E1E"/>
<path d="M70.7095 69.5293C69.9959 69.5293 69.5004 69.5104 68.9255 69.5293C69.6193 69.5482 70.3428 69.5482 70.7095 69.5293ZM70.7095 69.5293C71.5123 69.9449 72.6818 70.6533 72.3448 71.0973M70.7095 69.5293C72.325 69.9449 72.6422 70.2944 72.3448 71.0973M72.3448 71.0973C72.434 71.8813 72.8007 72.2969 73.9901 72.6652M72.3448 71.0973C72.7512 72.7408 72.4935 72.0418 73.9901 72.6652M73.9901 72.6652C74.6739 72.6463 75.3082 72.618 75.774 72.6652C74.882 72.6463 74.436 72.6463 73.9901 72.6652Z" stroke="#1E1E1E" stroke-linecap="round"/>
<path d="M75.5064 72.3252C75.5857 72.3441 76.2497 72.1269 76.3191 72.1836C76.3885 72.2402 75.9425 72.5614 75.9326 72.6653C75.9227 72.7692 76.3092 72.7031 76.2795 72.807C76.2497 72.9109 75.8137 73.2131 75.7443 73.2887C75.6848 73.3737 75.9227 73.3548 75.9029 73.2698C75.883 73.1848 75.7443 72.8825 75.6055 72.7786C75.4569 72.6747 75.001 72.7031 75.0307 72.6369C75.0505 72.5708 75.6551 72.4953 75.7542 72.3914C75.8533 72.2875 75.5956 72.0324 75.5956 72.023C75.5956 72.0041 75.6848 72.2402 75.7443 72.278M75.6848 72.3536C75.7641 72.278 76.3092 72.0513 76.3488 72.1363C76.3885 72.2308 75.9921 72.8259 75.9227 72.9109C75.8533 73.0053 75.883 72.6086 75.9326 72.6747C75.9821 72.7408 76.2497 73.2131 76.22 73.3076C76.2002 73.3926 75.9128 73.2226 75.7839 73.2226C75.665 73.2226 75.4767 73.4493 75.4866 73.2887C75.4866 73.1281 75.774 72.3819 75.8037 72.2686C75.8335 72.1552 75.6055 72.6369 75.6551 72.6086C75.7145 72.5897 76.0515 72.1458 76.111 72.108C76.1704 72.0702 76.0713 72.3158 76.0218 72.4008" fill="#1E1E1E"/>
<path d="M76.0515 72.1646C76.1011 72.1552 75.8137 72.2402 75.8632 72.3441C75.9128 72.448 76.2696 72.7125 76.3489 72.7786C76.4182 72.8353 76.3489 72.6369 76.3191 72.7125C76.2795 72.7786 76.2101 73.0998 76.1506 73.1942C76.0912 73.2887 76.0515 73.2981 75.9524 73.2603C75.8632 73.232 75.6749 73.0809 75.5956 72.9959C75.5163 72.9203 75.5263 72.8636 75.4569 72.788C75.3776 72.7219 75.1199 72.6558 75.1695 72.5519C75.2091 72.4386 75.5857 72.1646 75.7344 72.1458C75.883 72.1363 75.9921 72.4669 76.0416 72.4669M76.2498 72.1458C76.4182 72.1269 76.1506 72.1363 76.1308 72.1646C76.111 72.193 76.0912 72.1458 76.1308 72.3347C76.1804 72.5141 76.4777 73.2131 76.3984 73.2698C76.3092 73.317 75.7146 72.6936 75.6353 72.6464C75.556 72.5897 75.9425 72.8447 75.9128 72.9297C75.8731 73.0242 75.5362 73.1848 75.4271 73.1659C75.3181 73.1564 75.3082 73.0242 75.2587 72.8542C75.2091 72.6841 74.9712 72.2969 75.1298 72.1363C75.2785 71.9757 76.1011 71.938 76.1804 71.8907C76.2597 71.8529 75.7344 71.8529 75.6155 71.8813" stroke="#1E1E1E" stroke-linecap="round"/>
<path d="M74.1763 70.6603C73.8393 70.6508 73.2942 70.6603 72.759 70.6603C73.1257 70.6697 73.4528 70.6697 74.1763 70.6603ZM74.1763 70.6603C74.9989 71.2553 75.3557 70.783 74.8998 69.9613M74.1763 70.6603C74.9494 70.9058 75.3458 69.744 74.8998 69.9613M74.8998 69.9613C74.8106 69.1301 75.4945 69.7913 75.6332 69.2718M74.8998 69.9613C74.4935 68.8751 75.6134 69.1112 75.6332 69.2718M75.6332 69.2718C76.099 69.234 76.4856 69.3001 77.0505 69.2718C76.2477 69.2907 75.9305 69.2623 75.6332 69.2718Z" stroke="#1E1E1E" stroke-linecap="round"/>
<path d="M77.2884 69.0356C77.2983 69.0262 76.8127 69.2529 76.8028 69.2812C76.7929 69.3001 77.219 69.1301 77.2389 69.1773C77.2686 69.2151 76.9316 69.4701 76.9514 69.5268C76.9713 69.5929 77.3281 69.5929 77.3776 69.5457C77.4272 69.4984 77.3776 69.2812 77.2587 69.2529C77.1397 69.2245 76.6937 69.3568 76.6838 69.3756C76.6838 69.3851 77.219 69.3851 77.2389 69.3284C77.2587 69.2623 76.8424 69.0167 76.8028 68.9978C76.7631 68.9884 76.9118 69.2056 76.9713 69.2434C77.0406 69.2717 77.1893 69.1773 77.1893 69.2151M77.3677 69.0262C77.3479 69.0639 76.9019 69.5646 76.8127 69.574C76.7334 69.5929 76.7829 69.0923 76.8721 69.0923C76.9713 69.0923 77.3181 69.4984 77.3776 69.5646C77.4272 69.6307 77.2488 69.4607 77.2091 69.489C77.1596 69.5079 77.0605 69.8101 77.11 69.7157C77.1497 69.6307 77.4569 68.9789 77.4668 68.9412C77.4866 68.9128 77.1992 69.4795 77.1794 69.5079C77.1695 69.5268 77.3578 69.1112 77.3875 69.0828C77.4073 69.0545 77.3677 69.2812 77.3181 69.3568C77.2686 69.4418 77.219 69.5457 77.11 69.5834" fill="#1E1E1E"/>
<path d="M76.8721 69.2245C76.8622 69.2718 77.1695 69.4512 77.2289 69.4418C77.2983 69.4229 77.2488 69.1206 77.2587 69.1206C77.2686 69.1301 77.2884 69.3851 77.3082 69.4512C77.328 69.5174 77.3974 69.5268 77.3776 69.5268C77.3677 69.5268 77.2686 69.4418 77.219 69.4323C77.1794 69.4229 77.2091 69.4701 77.1199 69.4796C77.0307 69.4796 76.7136 69.5079 76.6838 69.4512C76.664 69.3851 76.882 69.1301 76.9812 69.1301C77.0902 69.1206 77.2587 69.4323 77.3082 69.4229C77.3578 69.4135 77.328 69.149 77.2983 69.0734M77.11 69.0262C77.0307 68.9979 76.9712 68.8467 77.0109 68.9506C77.0505 69.0545 77.3875 69.659 77.3578 69.6496C77.328 69.6401 76.8226 68.9601 76.8325 68.8845C76.8325 68.8089 77.328 69.0829 77.3677 69.2057C77.4073 69.3379 77.1496 69.574 77.0704 69.6307C77.001 69.6968 76.9911 69.6685 76.9217 69.574C76.8424 69.4796 76.5352 69.1773 76.6244 69.064C76.7037 68.9412 77.3677 68.9034 77.4073 68.8656C77.447 68.8278 76.9911 68.8278 76.8721 68.8373C76.7532 68.8562 76.7433 68.8373 76.7037 68.9601" stroke="#1E1E1E" stroke-linecap="round"/>
<path d="M19.804 65.926H21.3494L22.6449 67.6306L22.9858 68.0851L24.9176 70.6533H23.3721L22.0994 68.9487L21.7812 68.5169L19.804 65.926ZM25.3949 63.7442C25.3949 64.9715 25.1733 66.0321 24.7301 66.926C24.2869 67.82 23.679 68.5093 22.9062 68.9942C22.1335 69.479 21.2509 69.7215 20.2585 69.7215C19.2661 69.7215 18.3835 69.479 17.6108 68.9942C16.8381 68.5093 16.2301 67.82 15.7869 66.926C15.3437 66.0321 15.1221 64.9715 15.1221 63.7442C15.1221 62.5169 15.3437 61.4563 15.7869 60.5624C16.2301 59.6684 16.8381 58.979 17.6108 58.4942C18.3835 58.0093 19.2661 57.7669 20.2585 57.7669C21.2509 57.7669 22.1335 58.0093 22.9062 58.4942C23.679 58.979 24.2869 59.6684 24.7301 60.5624C25.1733 61.4563 25.3949 62.5169 25.3949 63.7442ZM24.0312 63.7442C24.0312 62.7366 23.8627 61.8862 23.5256 61.1931C23.1922 60.4999 22.7396 59.9753 22.1676 59.6192C21.5994 59.2631 20.9631 59.0851 20.2585 59.0851C19.554 59.0851 18.9157 59.2631 18.3437 59.6192C17.7756 59.9753 17.3229 60.4999 16.9858 61.1931C16.6525 61.8862 16.4858 62.7366 16.4858 63.7442C16.4858 64.7518 16.6525 65.6022 16.9858 66.2953C17.3229 66.9885 17.7756 67.5131 18.3437 67.8692C18.9157 68.2253 19.554 68.4033 20.2585 68.4033C20.9631 68.4033 21.5994 68.2253 22.1676 67.8692C22.7396 67.5131 23.1922 66.9885 23.5256 66.2953C23.8627 65.6022 24.0312 64.7518 24.0312 63.7442Z" fill="#1E1E1E"/>
<path d="M69.3782 64.0961C68.3871 64.0677 67.7825 64.1433 67.1482 64.0961C67.9906 64.1055 68.7934 64.1055 69.3782 64.0961ZM69.3782 64.0961C71.1423 63.501 71.8361 63.3782 71.4396 62.1314M69.3782 64.0961C70.4981 64.6628 71.9253 63.9733 71.4396 62.1314M71.4396 62.1314C71.846 60.6862 72.183 60.5918 73.5011 60.1667M71.4396 62.1314C71.3108 61.253 71.5487 59.855 73.5011 60.1667M73.5011 60.1667C74.2841 60.1195 75.1563 60.1195 75.7311 60.1667C75.1662 60.1856 74.294 60.129 73.5011 60.1667Z" stroke="#1E1E1E" stroke-linecap="round"/>
<path d="M75.6121 59.7511C75.7806 59.7983 76.3257 59.8739 76.4942 59.9117C76.6726 59.9589 76.7221 59.8928 76.6329 60.0061C76.5536 60.1195 76.0779 60.4406 75.9986 60.5823C75.9292 60.724 76.3158 60.8562 76.1968 60.8468C76.068 60.8373 75.4634 60.6012 75.2751 60.5351C75.0868 60.4784 75.067 60.5823 75.0571 60.4973C75.0472 60.4123 75.176 60.1384 75.2057 60.0345C75.2256 59.9306 75.0967 59.9683 75.2157 59.8739C75.3346 59.7794 75.8103 59.4961 75.9193 59.4677C76.0184 59.4394 75.8896 59.7417 75.84 59.7322M76.0977 59.7889C76.3059 59.855 76.3158 59.77 76.3852 59.8928C76.4545 60.0156 76.4446 60.4879 76.5041 60.5445C76.5636 60.5918 76.8212 60.1289 76.7519 60.2139C76.6825 60.2989 76.2365 60.9885 76.068 61.0546C75.9094 61.1207 75.8995 60.6862 75.7806 60.6012C75.6716 60.5256 75.4733 60.6106 75.3643 60.5634C75.2553 60.5162 75.1958 60.4406 75.1265 60.3367C75.0571 60.2328 74.7895 60.1384 74.9679 59.9589C75.1364 59.7794 76.0085 59.3166 76.1572 59.2505C76.3059 59.1938 75.9788 59.515 75.8599 59.6094" fill="#1E1E1E"/>
<path d="M76.0284 59.6755C76.1969 59.7417 76.4546 59.8361 76.5438 59.9306C76.6429 60.025 76.633 60.11 76.6132 60.2423C76.5834 60.384 76.5735 60.6106 76.405 60.7429C76.2266 60.8657 75.7509 61.0074 75.5824 60.9885C75.4238 60.979 75.4338 60.7145 75.3941 60.6484C75.3644 60.5918 75.3743 60.7712 75.3644 60.6295C75.3545 60.4973 75.3049 60.0439 75.3148 59.8361C75.3247 59.6283 75.3644 59.3733 75.4338 59.3638C75.5031 59.3638 75.6815 59.7794 75.741 59.8172C75.7905 59.8456 75.7707 59.6189 75.7608 59.5716M75.404 59.1088C75.5527 59.0049 76.2564 59.3261 76.4248 59.5244C76.6032 59.7228 76.4645 60.11 76.4348 60.3084C76.4149 60.5067 76.405 60.6768 76.2762 60.724C76.1473 60.7618 75.7113 60.6012 75.6518 60.554C75.6022 60.5067 76.0581 60.5067 75.9491 60.4406C75.8401 60.3745 75.2058 60.2612 74.9977 60.1667C74.7895 60.0723 74.7301 59.8739 74.7102 59.855C74.6805 59.8361 74.6607 60.0345 74.8589 60.0439C75.0472 60.0534 75.8104 60.0534 75.8599 59.9022C75.9194 59.7417 75.2058 59.0994 75.1959 59.1088" stroke="#1E1E1E" stroke-linecap="round"/>
<path d="M73.7309 62.6775C73.0668 62.7058 72.5217 62.6492 71.9568 62.6775C72.6704 62.6869 73.3741 62.6492 73.7309 62.6775ZM73.7309 62.6775C74.7319 62.6114 74.4246 63.4615 74.6427 63.5465M73.7309 62.6775C74.8211 63.2064 74.2859 63.1592 74.6427 63.5465M74.6427 63.5465C74.7021 64.5571 74.831 64.8027 75.5644 64.4249M74.6427 63.5465C74.0678 63.8204 75.5545 63.8676 75.5644 64.4249M75.5644 64.4249C76.0005 64.3871 76.5456 64.4532 77.3385 64.4249C76.9024 64.406 76.2482 64.4532 75.5644 64.4249Z" stroke="#1E1E1E" stroke-linecap="round"/>
<path d="M77.636 64.4532C77.7351 64.3966 77.755 64.1982 77.6856 64.1982C77.6162 64.1982 77.2098 64.3871 77.2198 64.4532C77.2297 64.5194 77.7649 64.5949 77.7649 64.576C77.7649 64.5666 77.299 64.3682 77.2098 64.3777C77.1206 64.3871 77.19 64.6138 77.1999 64.6327C77.2198 64.661 77.3288 64.5288 77.299 64.5288C77.2693 64.5288 77.0314 64.6705 77.0414 64.6233C77.0414 64.5666 77.2891 64.2643 77.3486 64.2265C77.4081 64.1982 77.4279 64.4532 77.4081 64.4249C77.3783 64.3966 77.1702 64.1038 77.1999 64.0565M77.4675 64.3966C77.4774 64.406 77.4477 64.7272 77.5468 64.6705C77.636 64.6044 77.9829 64.0187 78.0126 64.0282C78.0424 64.0471 77.745 64.6894 77.7054 64.7649C77.6757 64.8311 77.8144 64.4627 77.7847 64.4627C77.755 64.4627 77.636 64.6894 77.5468 64.7555C77.4477 64.8311 77.3486 64.8972 77.2098 64.8972C77.081 64.8877 76.6846 64.8877 76.7341 64.7366C76.7837 64.5949 77.4279 64.0849 77.527 64.0093C77.636 63.9337 77.4576 64.2265 77.3684 64.3021C77.2693 64.3777 76.972 64.406 76.9621 64.4627" fill="#1E1E1E"/>
<path d="M77.6358 64.4344C77.6754 64.4249 77.6457 64.3588 77.6457 64.3777C77.6556 64.3966 77.725 64.5005 77.6556 64.5572C77.5862 64.6139 77.2591 64.7083 77.2195 64.6989C77.1699 64.6894 77.3384 64.4816 77.388 64.5005C77.4475 64.5288 77.5367 64.8405 77.5367 64.8217C77.5466 64.8028 77.4574 64.5005 77.4078 64.3872C77.3483 64.2738 77.2591 64.1132 77.2096 64.151C77.16 64.1794 77.0907 64.5477 77.1006 64.5666C77.1105 64.5855 77.2294 64.3305 77.2492 64.2644C77.2691 64.1982 77.2195 64.1605 77.1997 64.1794M77.6655 64.1227C77.7646 64.2455 77.5664 64.5099 77.5367 64.6044C77.497 64.6989 77.5267 64.7461 77.4673 64.6989C77.3979 64.6516 77.0708 64.4155 77.1303 64.3494C77.1799 64.2738 77.7844 64.2833 77.7745 64.2549C77.7646 64.236 77.2294 64.2266 77.0609 64.2171C76.9023 64.2171 76.8528 64.1605 76.8032 64.236C76.7438 64.3116 76.6447 64.6233 76.7537 64.6894C76.8528 64.7555 77.3979 64.7839 77.4177 64.6327C77.4475 64.4911 76.8825 63.811 76.8924 63.8015C76.9023 63.7921 77.4475 64.5666 77.4772 64.5761" stroke="#1E1E1E" stroke-linecap="round"/>
<path d="M57.3285 67.915H58.874L60.1694 69.6195L60.5103 70.0741L62.4421 72.6422H60.8967L59.624 70.9377L59.3058 70.5059L57.3285 67.915ZM62.9194 65.7331C62.9194 66.9604 62.6978 68.021 62.2546 68.915C61.8115 69.8089 61.2035 70.4983 60.4308 70.9831C59.658 71.468 58.7755 71.7104 57.783 71.7104C56.7906 71.7104 55.908 71.468 55.1353 70.9831C54.3626 70.4983 53.7546 69.8089 53.3115 68.915C52.8683 68.021 52.6467 66.9604 52.6467 65.7331C52.6467 64.5059 52.8683 63.4453 53.3115 62.5513C53.7546 61.6574 54.3626 60.968 55.1353 60.4831C55.908 59.9983 56.7906 59.7559 57.783 59.7559C58.7755 59.7559 59.658 59.9983 60.4308 60.4831C61.2035 60.968 61.8115 61.6574 62.2546 62.5513C62.6978 63.4453 62.9194 64.5059 62.9194 65.7331ZM61.5558 65.7331C61.5558 64.7256 61.3872 63.8752 61.0501 63.182C60.7168 62.4888 60.2641 61.9642 59.6921 61.6081C59.124 61.2521 58.4876 61.0741 57.783 61.0741C57.0785 61.0741 56.4402 61.2521 55.8683 61.6081C55.3001 61.9642 54.8474 62.4888 54.5103 63.182C54.177 63.8752 54.0103 64.7256 54.0103 65.7331C54.0103 66.7407 54.177 67.5911 54.5103 68.2843C54.8474 68.9775 55.3001 69.5021 55.8683 69.8581C56.4402 70.2142 57.0785 70.3922 57.783 70.3922C58.4876 70.3922 59.124 70.2142 59.6921 69.8581C60.2641 69.5021 60.7168 68.9775 61.0501 68.2843C61.3872 67.5911 61.5558 66.7407 61.5558 65.7331Z" fill="#1E1E1E"/>
<g clip-path="url(#clip0_108_10)">
<path d="M13.8943 55.2901C20.6139 54.3644 22.9133 56.7541 27.4723 55.2901C33.2901 56.2818 34.4398 57.6137 33.1315 60.6834C34.0631 65.869 34.8065 68.4098 33.1315 71.4702C35.0443 76.0701 31.625 79.4422 27.4723 76.8541C23.1115 77.213 21.8924 75.3334 13.8943 76.8541C11.922 77.1186 11.1093 74.6439 8.23511 71.4702C7.71974 67.4842 10.3263 62.7426 8.23511 60.6834C4.81582 59.9656 8.62164 58.0765 13.8943 55.2901Z" fill="white"/>
<path d="M13.8942 55.2901C18.8398 54.9123 20.5742 55.309 27.4723 55.2901M13.8942 55.2901C18.2947 55.649 23.6268 55.8474 27.4723 55.2901M13.8942 55.2901C10.0884 54.7706 8.34409 57.897 8.23507 60.6835M13.8942 55.2901C9.801 55.7435 9.85056 58.1143 8.23507 60.6835M27.4723 55.2901C32.5963 56.3669 33.8847 57.7176 33.1315 60.6835M27.4723 55.2901C32.5764 53.2404 34.4794 56.8769 33.1315 60.6835M33.1315 60.6835C34.0532 63.0448 33.5081 65.5573 33.1315 71.4702M33.1315 60.6835C33.3099 63.4038 33.1612 66.2468 33.1315 71.4702M33.1315 71.4702C34.1721 76.6274 30.1879 75.2389 27.4723 76.8541M33.1315 71.4702C34.519 74.5872 31.4268 78.3276 27.4723 76.8541M27.4723 76.8541C23.0619 77.7798 18.7605 76.3063 13.8942 76.8541M27.4723 76.8541C23.9737 77.2414 21.7933 77.317 13.8942 76.8541M13.8942 76.8541C8.23507 75.1634 8.67115 76.4763 8.23507 71.4702M13.8942 76.8541C8.75044 75.0878 8.59186 76.0324 8.23507 71.4702M8.23507 71.4702C9.33519 69.3072 9.03786 65.3212 8.23507 60.6835M8.23507 71.4702C8.31436 68.9483 7.77916 67.0025 8.23507 60.6835" stroke="#1E1E1E" stroke-linecap="round"/>
<path d="M49.0205 28.1886C49.0106 28.9442 48.9313 31.7401 48.9809 32.4391M48.7034 27.8769C48.6241 28.5759 48.5646 31.315 48.6439 31.9857" stroke="#1E1E1E" stroke-linecap="round"/>
<path d="M8.51081 47.5011C8.89734 47.5483 9.4028 48.1906 9.61093 48.5401C9.80915 48.8801 9.70013 49.2202 9.70013 49.5602C9.70013 49.9002 9.77942 50.2497 9.62084 50.5898C9.45236 50.9298 9.05592 51.4682 8.71894 51.6099C8.38197 51.7421 7.94589 51.6477 7.599 51.4304C7.25212 51.2037 6.81603 50.6748 6.63764 50.2875C6.46915 49.9002 6.49888 49.3996 6.56826 49.0879C6.63764 48.7668 6.7863 48.6723 7.03408 48.3984C7.29176 48.1245 7.83687 47.5767 8.10446 47.4539C8.36215 47.3311 8.53063 47.6144 8.60001 47.6711M7.85669 47.4255C8.10446 47.4066 8.51081 48.1906 8.83788 48.5023C9.17485 48.814 9.73977 48.9651 9.85871 49.2863C9.97764 49.6074 9.77942 50.0892 9.55147 50.4292C9.32351 50.7692 8.74868 51.147 8.48108 51.336C8.20357 51.5343 8.23331 51.7516 7.88642 51.6004C7.54945 51.4399 6.63764 50.7314 6.40968 50.3914C6.17182 50.0514 6.37995 49.9664 6.48897 49.5602C6.6079 49.154 6.7863 48.2284 7.10345 47.945C7.4206 47.6711 8.33241 48.0017 8.39188 47.8978C8.45135 47.8033 7.61882 47.3972 7.47016 47.3405" fill="white"/>
<path d="M7.80712 47.5011C8.25311 47.5105 9.01626 48.0206 9.40279 48.2567C9.77941 48.4929 10.1065 48.5495 10.1065 48.9462C10.1164 49.343 9.58119 50.2497 9.40279 50.637C9.22439 51.0337 9.40279 51.1376 9.0559 51.2982C8.70902 51.4587 7.6981 51.7138 7.31157 51.6193C6.92504 51.5154 6.93495 51.0054 6.74664 50.6937C6.54842 50.3725 6.10243 50.0797 6.17181 49.7113C6.24118 49.3524 6.82593 48.8518 7.17282 48.5118C7.50979 48.1812 8.14409 47.7939 8.23329 47.69C8.32249 47.5766 7.71792 47.8128 7.71792 47.86M7.93596 47.9639C8.35222 47.8883 8.71893 47.7089 9.08564 47.9545C9.46225 48.1906 10.0767 48.9462 10.1659 49.3807C10.265 49.8247 9.82896 50.2781 9.67038 50.5898C9.5019 50.9015 9.58119 51.0243 9.20457 51.2509C8.82795 51.4776 7.85667 52.0255 7.40077 51.931C6.93495 51.8366 6.55834 51.0243 6.41958 50.6748C6.28083 50.3253 6.49887 50.193 6.58807 49.8341C6.67727 49.4752 6.71691 48.7951 6.94486 48.5118C7.18273 48.2378 7.74765 48.3417 7.98552 48.1623C8.22338 47.9922 8.35222 47.4444 8.37205 47.4539" stroke="#1E1E1E" stroke-linecap="round"/>
<path d="M48.4849 34.6494C48.5642 38.0497 48.8615 51.7929 49.0102 55.2783M47.9001 34.1582C47.9001 37.3886 48.3759 51.0184 48.5939 54.466" stroke="#1E1E1E" stroke-linecap="round"/>
<path d="M36.8256 62.2453C35.1704 62.472 33.1585 62.4248 31.2159 62.2453C32.8017 62.1036 34.4965 62.3303 36.8256 62.2453ZM36.8256 62.2453C37.7968 62.5192 38.6888 62.5192 38.6987 60.4601M36.8256 62.2453C37.7374 61.6786 38.7086 62.1509 38.6987 60.4601M38.6987 60.4601C38.3618 60.0162 39.9475 59.3739 40.5719 58.6749M38.6987 60.4601C38.1536 59.5533 38.4014 58.3821 40.5719 58.6749M40.5719 58.6749C42.6631 58.6371 44.8138 58.8166 46.1815 58.6749C44.8733 58.7883 42.8019 58.6655 40.5719 58.6749Z" stroke="#1E1E1E" stroke-linecap="round"/>
<path d="M41.1019 62.9481C40.2892 62.967 39.7342 62.9953 39.0404 62.9481C39.8234 62.9764 40.5568 62.967 41.1019 62.9481ZM41.1019 62.9481C42.4696 63.5242 42.9652 63.2692 43.1634 64.9127M41.1019 62.9481C42.4795 63.2787 43.6589 63.9493 43.1634 64.9127M43.1634 64.9127C43.1832 65.0638 43.1733 65.1961 43.1634 65.4606M43.1634 64.9127C43.1733 65.0922 43.1634 65.2811 43.1634 65.4606M43.1634 65.4606C43.5796 67.2269 43.5301 67.5858 45.2249 67.4252M43.1634 65.4606C42.5489 66.5657 44.5608 67.2458 45.2249 67.4252M45.2249 67.4252C45.8294 67.4536 46.5728 67.3874 47.2863 67.4252C46.097 67.4441 45.6709 67.4441 45.2249 67.4252Z" stroke="#1E1E1E" stroke-linecap="round"/>
<path d="M47.098 66.594C47.2467 66.5845 47.3953 66.6034 47.5737 66.764C47.7521 66.9151 48.0792 67.3968 48.1585 67.5196C48.2378 67.6424 48.2378 67.3968 48.0594 67.5007C47.8909 67.5952 47.2665 68.0486 47.1277 68.0958C46.989 68.143 47.3557 67.8408 47.2368 67.7747C47.1178 67.718 46.4934 67.8124 46.4241 67.7085C46.3547 67.6046 46.761 67.2552 46.8205 67.1607C46.88 67.0663 46.652 67.1607 46.7908 67.1418C46.9394 67.1229 47.544 67.1135 47.6828 67.0474C47.8215 66.9812 47.7125 66.7829 47.6035 66.764M46.989 66.7073C47.1079 66.8018 47.6233 67.1135 47.7819 67.2079C47.9305 67.2929 47.8512 67.1229 47.9206 67.2552C47.9801 67.3968 48.2378 67.8691 48.1486 68.0108C48.0594 68.1619 47.4944 68.1619 47.3557 68.1241C47.2169 68.0769 47.4647 67.7936 47.316 67.7747C47.1575 67.7558 46.5727 68.1241 46.4241 68.0014C46.2853 67.888 46.315 67.2079 46.4439 67.0757C46.5727 66.934 47.0385 67.189 47.2169 67.1796C47.3953 67.1607 47.4647 66.9718 47.5044 66.9812C47.544 66.9907 47.3854 67.3118 47.435 67.2268" fill="#1E1E1E"/>
<path d="M47.6034 66.8018C47.6926 66.8207 47.3557 67.1418 47.4548 67.2269C47.5539 67.3119 48.1188 67.2174 48.1882 67.3119C48.2675 67.4063 47.9602 67.6991 47.8809 67.803C47.8017 67.9069 47.9008 67.9069 47.7224 67.9353C47.544 67.9542 46.9493 67.9825 46.8106 67.9636C46.6619 67.9542 46.8304 68.0014 46.8403 67.8597C46.8403 67.7086 46.7808 67.2269 46.8304 67.0946C46.8899 66.9624 47.0187 67.0663 47.1674 67.0568C47.3061 67.0474 47.6332 67.0474 47.7125 67.0285C47.7818 67.0096 47.6431 66.9435 47.6034 66.9529M47.0187 67.1891C47.1475 67.2269 47.8215 67.2174 47.9305 67.2457C48.0296 67.2646 47.7323 67.293 47.653 67.3402C47.5836 67.3874 47.4151 67.4252 47.4845 67.5102C47.5539 67.5952 48.099 67.7936 48.0593 67.8503C48.0197 67.8975 47.4548 67.8786 47.2268 67.8314C47.0088 67.7747 46.7709 67.5386 46.7214 67.5291C46.6619 67.5291 46.9295 67.9542 46.8998 67.803C46.87 67.6519 46.4339 66.7924 46.5331 66.6129C46.6322 66.4334 47.3656 66.6223 47.4845 66.7074C47.6034 66.8018 47.2863 67.0757 47.2268 67.1418" stroke="#1E1E1E" stroke-linecap="round"/>
<path d="M38.243 66.3306C39.799 66.3401 41.5235 66.4534 43.5057 66.3306C42.3758 66.3873 41.3154 66.4629 38.243 66.3306ZM38.243 66.3306C36.8356 65.8395 36.5878 67.2941 36.5779 67.9175M38.243 66.3306C37.8763 66.8596 36.0824 67.5774 36.5779 67.9175M36.5779 67.9175C36.1022 69.2115 35.2201 69.2398 34.9228 69.4949M36.5779 67.9175C37.6384 68.7109 36.1815 69.0415 34.9228 69.4949M34.9228 69.4949C33.6245 69.3721 31.672 69.6649 29.6501 69.4949C31.89 69.4571 33.4262 69.5893 34.9228 69.4949Z" stroke="#1E1E1E" stroke-linecap="round"/>
<path d="M40.1236 69.4949C39.1028 69.6083 37.9729 69.4855 36.407 69.4949C37.8243 69.5705 39.2118 69.4477 40.1236 69.4949ZM40.1236 69.4949C41.4715 69.9294 42.7797 70.5906 42.1355 71.4029M40.1236 69.4949C40.966 70.2128 42.7104 71.1668 42.1355 71.4029M42.1355 71.4029C41.3327 72.423 43.7213 73.0937 44.1376 73.3109M42.1355 71.4029C42.2842 72.2247 42.641 72.678 44.1376 73.3109M44.1376 73.3109C45.2872 73.4337 46.7144 73.3392 47.8542 73.3109C46.9424 73.2353 45.4359 73.2637 44.1376 73.3109Z" stroke="#1E1E1E" stroke-linecap="round"/>
<path d="M24.3765 55.5409C24.426 52.9434 23.6629 42.8084 25.2288 39.8709C26.8047 36.9333 32.4044 38.2746 33.8018 37.9251M25.2487 55.267C25.209 52.5184 23.544 42.2511 24.9513 39.2191C26.3488 36.1871 32.1665 37.2167 33.6532 37.075" stroke="#1E1E1E" stroke-linecap="round"/>
<path d="M36.1286 32.7575C37.0107 32.833 38.6658 33.4375 39.3101 34.0232C39.9642 34.6182 40.0137 35.4494 40.0137 36.3184C40.0038 37.1874 39.7759 38.5192 39.2803 39.256C38.7848 39.9927 37.9225 40.5217 37.0206 40.7578C36.1088 40.9845 34.6816 41.0412 33.859 40.635C33.0463 40.2288 32.4318 39.1237 32.1048 38.3114C31.7678 37.4991 31.6489 36.6112 31.8669 35.7517C32.0949 34.8921 32.6102 33.6737 33.4427 33.1447C34.2654 32.6063 36.3169 32.5874 36.8422 32.5591C37.3675 32.5402 36.6341 32.8897 36.6143 32.9936M36.644 32.3135C37.536 32.2852 38.4082 33.3903 39.0623 34.0326C39.7164 34.6654 40.4399 35.2889 40.5588 36.1484C40.6778 36.9985 40.3408 38.3492 39.7759 39.1615C39.2109 39.9833 38.1901 40.7672 37.1891 41.0506C36.198 41.334 34.6023 41.3151 33.8095 40.8617C33.0067 40.4083 32.7391 39.1615 32.4021 38.3303C32.0651 37.4991 31.6687 36.649 31.7678 35.8839C31.8669 35.1094 32.2534 34.1743 32.9968 33.702C33.7401 33.2203 35.7025 33.1636 36.2178 33.0408C36.7332 32.9275 36.1881 32.9369 36.1187 32.9936" fill="white"/>
<path d="M36.5151 32.8614C37.308 32.918 38.1207 33.532 38.7352 34.1176C39.3397 34.7127 40.0335 35.525 40.1822 36.4034C40.3308 37.2819 40.1425 38.6987 39.6371 39.3976C39.1316 40.0966 38.0909 40.4744 37.1593 40.5972C36.2376 40.7295 34.9591 40.4933 34.077 40.1722C33.1949 39.8605 32.2732 39.4449 31.8768 38.6892C31.4803 37.9336 31.4506 36.5357 31.7083 35.6289C31.966 34.7316 32.63 33.7492 33.4031 33.2959C34.1761 32.833 35.7619 32.9747 36.3565 32.8614C36.9413 32.748 36.971 32.5591 36.9413 32.6347M35.6727 32.9369C36.4755 32.7669 37.3774 32.8897 38.1901 33.3147C38.9928 33.7492 40.2912 34.7032 40.5191 35.5344C40.7471 36.3656 40.1029 37.5085 39.5479 38.302C38.9928 39.0954 38.081 39.851 37.1891 40.295C36.307 40.7483 34.9888 41.1545 34.2058 40.9939C33.413 40.8334 32.967 40.1911 32.4615 39.3221C31.9561 38.4531 31.0641 36.6396 31.1731 35.7706C31.292 34.8921 32.4219 34.6466 33.1355 34.0609C33.849 33.4848 35.0185 32.4552 35.4645 32.2663C35.9105 32.0868 35.8114 32.8519 35.8412 32.9464" stroke="#1E1E1E" stroke-linecap="round"/>
<path d="M50.7892 55.6255C57.4197 57.2407 60.72 56.7967 64.3673 55.6255C69.1939 55.9844 72.7322 54.7187 70.0265 61.0189C70.3337 65.3543 68.6885 70.0299 70.0265 71.8056C70.2941 78.1341 67.7073 78.9936 64.3673 77.1895C61.057 79.3337 56.7854 74.8848 50.7892 77.1895C50.036 75.7633 48.0538 73.808 45.1301 71.8056C44.7535 67.8763 43.911 68.4525 45.1301 61.0189C45.3878 58.3458 45.6752 55.191 50.7892 55.6255Z" fill="white"/>
<path d="M50.7892 55.6255C56.3196 56.0316 60.7597 56.2867 64.3673 55.6255M50.7892 55.6255C53.3463 56.145 56.7953 56.1167 64.3673 55.6255M50.7892 55.6255C48.1529 56.7023 44.2282 56.7495 45.1301 61.0189M50.7892 55.6255C47.3699 57.5051 45.7941 58.223 45.1301 61.0189M64.3673 55.6255C67.1919 56.1072 68.4209 56.9101 70.0264 61.0189M64.3673 55.6255C70.2643 55.106 70.3238 56.5228 70.0264 61.0189M70.0264 61.0189C70.8986 63.5314 68.9858 67.8479 70.0264 71.8056M70.0264 61.0189C69.9372 64.3437 69.6003 66.7901 70.0264 71.8056M70.0264 71.8056C71.5825 73.9403 67.4397 75.6594 64.3673 77.1895M70.0264 71.8056C68.4605 74.1764 66.3693 78.7197 64.3673 77.1895M64.3673 77.1895C58.5396 77.3501 56.1709 76.2922 50.7892 77.1895M64.3673 77.1895C61.2354 76.9723 58.9559 77.8507 50.7892 77.1895M50.7892 77.1895C48.4998 78.4458 44.7336 73.5436 45.1301 71.8056M50.7892 77.1895C47.5582 78.7575 45.5661 74.0253 45.1301 71.8056M45.1301 71.8056C45.6454 69.3592 44.8426 67.7252 45.1301 61.0189M45.1301 71.8056C45.5067 67.8291 44.8426 64.7026 45.1301 61.0189" stroke="#1E1E1E" stroke-linecap="round"/>
<path d="M35.6936 35.0428C35.7234 35.6474 35.8324 38.3865 35.7927 39.1139M35.3666 35.6096C35.3567 36.2613 35.654 38.9722 35.6243 39.52" stroke="#1E1E1E" stroke-linecap="round"/>
<path d="M23.7885 45.7275C22.7974 45.7464 19.1502 46.9932 18.1393 45.5197C17.1383 44.0462 17.832 38.36 17.7527 36.8959M24.3733 45.5763C23.3326 45.5008 19.1304 46.4359 17.9807 45.0568C16.831 43.6778 17.5149 38.6528 17.4455 37.3021" stroke="#1E1E1E" stroke-linecap="round"/>
<path d="M25.1333 51.0345C26.2334 50.9779 30.396 50.7701 31.4268 50.685M24.8162 50.874C25.8766 50.685 29.8609 50.1467 31.0601 50.1372" stroke="#1E1E1E" stroke-linecap="round"/>
<path fill-rule="evenodd" clip-rule="evenodd" d="M24.4714 46.7166C24.4219 46.4711 24.7093 47.1606 25.6409 47.4628C26.5825 47.7651 29.3873 49.0213 30.1009 48.5396C30.8244 48.0485 30.1108 45.4321 29.9522 44.5347" fill="white"/>
<path d="M25.0363 47.9257C24.8877 47.8595 23.6389 47.7179 24.521 47.6517C25.403 47.5951 29.3674 48.2468 30.3288 47.5667C31.2802 46.8961 30.2693 44.2797 30.2396 43.6091M25.5913 47.6801C25.5319 47.6328 24.3822 48.0012 25.1652 48.0296C25.9382 48.0673 29.4071 48.5963 30.2693 47.8973C31.1316 47.1984 30.4279 44.5725 30.3387 43.8452" stroke="#1E1E1E" stroke-linecap="round"/>
<path d="M48.819 40.7093C50.0479 40.5676 55.1124 41.1627 56.3315 40.1426C57.5605 39.1224 55.271 35.6276 56.1828 34.598C57.0946 33.5685 60.8113 33.9558 61.8123 33.9746M49.592 40.1898C50.8012 40.1142 55.1224 41.5972 56.1729 40.7376C57.2136 39.8781 54.9241 36.1282 55.8756 35.0514C56.827 33.9746 60.9203 34.5414 61.8816 34.2863" stroke="#1E1E1E" stroke-linecap="round"/>
<path d="M18.2942 45.8536C18.2546 46.4487 19.0772 48.7723 17.4518 49.424C15.8264 50.0757 9.99873 49.6129 8.55173 49.7451M18.0365 45.523C17.987 46.1653 18.8195 49.0367 17.204 49.7829C15.5786 50.5291 9.68158 50.0285 8.30396 50.0096" stroke="#1E1E1E" stroke-linecap="round"/>
<path fill-rule="evenodd" clip-rule="evenodd" d="M56.0845 40.9401C55.9358 41.7902 54.4492 45.1905 55.4997 46.1162C56.5602 47.0324 61.4959 47.193 62.4077 46.4657C63.3195 45.7384 61.2679 42.4891 60.9508 41.7618" fill="white"/>
<path d="M56.3818 40.0144C56.3521 41.0817 55.6583 45.1905 56.5107 46.4845C57.363 47.7691 60.7228 48.4114 61.5058 47.7597C62.2987 47.0985 61.2283 43.377 61.2481 42.5363M55.9755 39.6555C55.8764 40.77 55.3114 45.54 56.2034 46.8057C57.1053 48.0714 60.5444 47.9391 61.377 47.2496C62.2194 46.5696 61.2283 43.4337 61.2283 42.6969" stroke="#1E1E1E" stroke-linecap="round"/>
<path d="M48.2619 45.517C47.1618 45.5642 42.8505 44.5819 41.7702 45.8287C40.68 47.085 41.6711 51.7794 41.7306 53.0167M47.8159 46.1404C46.6861 46.1121 42.6523 44.2041 41.5819 45.3848C40.5115 46.5655 41.2846 51.8833 41.4134 53.234" stroke="#1E1E1E" stroke-linecap="round"/>
<path d="M65.1316 31.3927C65.5974 31.4399 66.3803 31.9216 66.6479 32.2428C66.9155 32.5639 66.7272 32.8945 66.7371 33.3195C66.757 33.7446 67.0047 34.4152 66.757 34.7741C66.5092 35.1425 65.7163 35.4259 65.2505 35.5015C64.7847 35.577 64.3189 35.492 63.9621 35.237C63.5954 34.9725 63.2287 34.3302 63.0602 33.9618C62.8917 33.5935 62.8818 33.414 62.9313 33.0362C62.9809 32.6678 63.0205 32.0444 63.3773 31.7233C63.7341 31.4021 64.7847 31.1754 65.1018 31.1187C65.4091 31.0715 65.2009 31.3549 65.2406 31.421M64.8342 31.2982C65.419 31.2132 66.5389 31.2793 66.8263 31.6571C67.1038 32.0444 66.5786 33.0456 66.5092 33.5935C66.4299 34.1319 66.6083 34.6797 66.3803 34.9253C66.1524 35.1614 65.4884 34.9631 65.1316 35.0292C64.7847 35.0953 64.6757 35.5109 64.2792 35.3125C63.8828 35.1236 63.08 34.2358 62.7628 33.8863C62.4556 33.5462 62.297 33.6029 62.4358 33.2629C62.5646 32.9228 63.189 32.1577 63.5854 31.8272C63.9819 31.4966 64.6459 31.3738 64.8045 31.2793C64.973 31.1943 64.5171 31.2321 64.5865 31.2699" fill="white"/>
<path d="M64.5369 31.3644C65.0622 31.2605 65.8452 31.4399 66.2714 31.6477C66.7075 31.8461 67.0543 32.1294 67.1138 32.5923C67.1733 33.0645 66.9156 34.0563 66.648 34.4719C66.3705 34.8875 65.9245 34.9914 65.4785 35.0953C65.0325 35.1992 64.4081 35.2464 63.972 35.1142C63.526 34.982 63.0107 34.5853 62.8223 34.2925C62.6439 33.9902 62.7431 33.7635 62.8521 33.3196C62.971 32.8756 63.2683 31.95 63.526 31.6288C63.7738 31.3171 64.1306 31.4777 64.3784 31.4116C64.6261 31.336 64.9829 31.1566 64.9929 31.1849M65.3496 31.78C65.8749 31.8744 66.4399 32.0728 66.6975 32.2239C66.9552 32.375 66.8759 32.2617 66.8759 32.6962C66.8858 33.1401 66.9552 34.4625 66.7273 34.8497C66.4993 35.237 66.0236 34.982 65.4884 35.0198C64.9532 35.067 63.9621 35.2181 63.526 35.1237C63.0899 35.0198 63.0007 34.8497 62.862 34.453C62.7133 34.0563 62.5052 33.159 62.6737 32.7339C62.8422 32.3183 63.5062 32.1578 63.8729 31.9405C64.2396 31.7233 64.6559 31.5627 64.8937 31.4399C65.1316 31.3171 65.31 31.1093 65.2803 31.1849" stroke="#1E1E1E" stroke-linecap="round"/>
<path d="M61.416 40.0212C61.7134 40.0307 61.7332 40.059 61.981 40.2951C62.2387 40.5218 62.873 41.0602 62.9423 41.4286C63.0117 41.797 62.6153 42.222 62.3972 42.4959C62.1891 42.7604 61.9512 43.0154 61.6539 43.0532C61.3566 43.091 60.9403 42.8265 60.6232 42.7132C60.2961 42.6093 59.9789 42.6754 59.7312 42.4015C59.4933 42.1181 59.1167 41.4947 59.1662 41.0697C59.2158 40.6446 59.6816 40.059 60.0483 39.8417C60.415 39.6245 61.1088 39.7756 61.3467 39.7567C61.5845 39.7378 61.4953 39.7473 61.4953 39.7378M61.6935 39.4639C62.0008 39.5584 61.6737 40.2762 61.8224 40.6446C61.9611 41.013 62.5062 41.438 62.5657 41.6836C62.6351 41.9198 62.3378 41.8536 62.2188 42.0992C62.0999 42.3448 62.199 43.0721 61.862 43.1571C61.535 43.2327 60.6727 42.6943 60.2366 42.5904C59.7906 42.4865 59.3347 42.7793 59.196 42.5243C59.0572 42.2692 59.2951 41.5042 59.4041 41.0791C59.523 40.6541 59.6519 40.2007 59.8897 39.9551C60.1177 39.7095 60.5538 39.6528 60.8115 39.6245C61.0791 39.5962 61.426 39.804 61.4458 39.7756" fill="white"/>
<path d="M61.4457 39.6812C61.8422 39.6529 62.2882 39.6906 62.4864 40.0023C62.6846 40.3046 62.6846 41.1547 62.6351 41.5325C62.5855 41.9198 62.4368 42.0709 62.199 42.2881C61.9611 42.5054 61.5548 42.7604 61.198 42.8265C60.8511 42.8927 60.3555 42.7793 60.0979 42.6849C59.8501 42.581 59.7708 42.5621 59.6915 42.222C59.6122 41.8914 59.6221 41.013 59.6419 40.6541C59.6519 40.2951 59.4636 40.2763 59.7708 40.0873C60.078 39.9079 61.2872 39.5962 61.4854 39.549C61.6935 39.5112 61.0097 39.7756 60.9898 39.8229M61.2872 40.0496C61.5647 39.8512 61.7034 39.3695 61.9611 39.5867C62.2188 39.804 62.7243 40.9658 62.8432 41.3436C62.972 41.7214 62.9423 41.5986 62.7044 41.8442C62.4567 42.0992 61.7332 42.6187 61.3764 42.8454C61.0295 43.0816 60.8907 43.3366 60.5934 43.2327C60.2961 43.1288 59.751 42.5243 59.5924 42.2315C59.4437 41.9292 59.632 41.7875 59.6618 41.4664C59.6915 41.1452 59.5032 40.6257 59.7609 40.3046C60.0285 39.9834 61.089 39.5678 61.2376 39.5301C61.3863 39.5017 60.7421 40.0779 60.6529 40.1062" stroke="#1E1E1E" stroke-linecap="round"/>
<path d="M41.8175 53.2055C42.214 53.1866 43.1852 53.5077 43.5321 53.7816C43.879 54.0461 43.8691 54.4617 43.9186 54.8112C43.9781 55.1607 44.0178 55.6329 43.8493 55.888C43.6709 56.1525 43.2943 56.228 42.8978 56.3791C42.5113 56.5397 41.9662 56.9081 41.4905 56.8136C41.0048 56.7192 40.2615 56.2186 40.0137 55.803C39.7759 55.3874 39.9047 54.6978 40.0534 54.32C40.1921 53.9422 40.5093 53.725 40.8958 53.5077C41.2823 53.2999 42.1347 53.1582 42.3725 53.0543C42.6104 52.9504 42.3428 52.8843 42.323 52.9032M41.4905 53.4888C41.7977 53.5738 42.6996 53.7533 43.0861 53.8855C43.4627 54.0178 43.5916 53.9328 43.7799 54.2634C43.9682 54.6034 44.3746 55.5668 44.1962 55.9069C44.0078 56.2375 43.2051 56.0769 42.6798 56.2752C42.1644 56.4642 41.4706 57.097 41.0742 57.0498C40.6778 57.0025 40.4894 56.3886 40.2813 55.973C40.0633 55.5574 39.7957 54.9812 39.7957 54.5562C39.7858 54.1406 39.8551 53.6683 40.2516 53.4227C40.6579 53.1771 41.9464 53.2243 42.1941 53.1016C42.4419 52.9693 41.7382 52.6387 41.7283 52.6765" fill="white"/>
<path d="M42.2238 52.856C42.5806 52.8843 42.9374 53.5077 43.1951 53.7817C43.4528 54.0556 43.7204 54.1973 43.7699 54.509C43.8195 54.8112 43.7005 55.3118 43.4924 55.6235C43.2843 55.9352 42.8185 56.1997 42.4914 56.3792C42.1643 56.5681 41.8472 56.8798 41.5102 56.7286C41.1732 56.587 40.7867 55.8502 40.4894 55.5007C40.1821 55.1512 39.6172 55.0001 39.6965 54.6412C39.7758 54.2728 40.5984 53.5644 40.9552 53.3094C41.3021 53.0638 41.5796 53.1866 41.7976 53.1394C42.0157 53.1016 42.2337 52.9882 42.2535 53.0543M42.2139 52.6482C42.5905 52.686 43.3438 53.7344 43.6609 54.0556C43.9781 54.3767 44.2159 54.2539 44.1465 54.5751C44.0673 54.8868 43.5023 55.5668 43.2248 55.9541C42.9374 56.3319 42.7986 56.8231 42.422 56.8987C42.0553 56.9648 41.3318 56.5586 41.0048 56.3697C40.6777 56.1903 40.6083 56.1147 40.4398 55.7935C40.2713 55.4629 39.8551 54.8584 39.9938 54.4239C40.1326 53.98 40.9156 53.3188 41.2624 53.1582C41.5994 52.9977 41.9166 53.4888 42.0454 53.4511C42.1842 53.4227 41.9959 52.9599 42.0851 52.9788" stroke="#1E1E1E" stroke-linecap="round"/>
<path d="M18.2014 33.5154C18.6275 33.5626 18.8456 33.846 19.1132 34.1482C19.3808 34.4505 19.7376 34.9605 19.8069 35.3384C19.8664 35.7162 19.7574 36.0279 19.5096 36.4057C19.2717 36.7835 18.8258 37.473 18.3302 37.6053C17.8446 37.7375 16.9724 37.4825 16.566 37.1991C16.1597 36.9063 16.011 36.2829 15.9119 35.8673C15.8128 35.4517 15.8227 35.0833 16.0011 34.6961C16.1696 34.2994 16.576 33.7893 16.9526 33.5248C17.3292 33.2509 18.023 33.1092 18.2509 33.0715C18.4789 33.0242 18.3698 33.1281 18.3302 33.2415M17.3193 33.6571C17.7554 33.4776 18.1617 33.1187 18.6077 33.3265C19.0636 33.5343 19.8862 34.4694 20.0349 34.8944C20.1836 35.3195 19.7673 35.4139 19.4799 35.8768C19.1925 36.3301 18.687 37.3786 18.3104 37.6525C17.9437 37.917 17.6563 37.6808 17.2499 37.4919C16.8535 37.303 16.2291 36.8969 15.9119 36.4907C15.5849 36.094 15.2182 35.5084 15.3173 35.0739C15.4263 34.6394 16.1894 34.2616 16.5165 33.8932C16.8436 33.5154 17.0913 32.9109 17.2896 32.8164C17.4878 32.7125 17.6265 33.2604 17.7157 33.3076" fill="white"/>
<path d="M17.5176 33.506C17.8446 33.4871 18.3798 33.4021 18.697 33.6004C19.0042 33.7988 19.3015 34.2899 19.4006 34.7055C19.4998 35.1211 19.4006 35.6406 19.2817 36.0846C19.1628 36.538 19.0042 37.2464 18.6871 37.4069C18.36 37.5581 17.8545 37.1708 17.359 37.0197C16.8634 36.878 15.9516 36.8685 15.7237 36.5096C15.4957 36.1507 15.9219 35.3006 15.9913 34.8567C16.0606 34.4127 15.8129 34.1199 16.1201 33.8365C16.4273 33.5626 17.6068 33.232 17.8545 33.1848C18.1023 33.1376 17.5869 33.4587 17.6167 33.5437M18.0527 33.6099C18.4888 33.6665 19.0339 33.3548 19.252 33.6099C19.4601 33.8554 19.3114 34.5827 19.3313 35.1117C19.3412 35.6406 19.5394 36.4246 19.3412 36.7835C19.1529 37.1425 18.5384 37.133 18.1717 37.2369C17.8149 37.3503 17.577 37.5958 17.1806 37.4353C16.7941 37.2747 16.0012 36.7646 15.8228 36.2829C15.6444 35.8012 16.0309 34.9511 16.1201 34.5638C16.2093 34.1766 16.0805 34.1955 16.3481 33.9499C16.6057 33.7138 17.3986 33.1659 17.7059 33.0998C18.023 33.0431 18.1519 33.4965 18.2113 33.5815" stroke="#1E1E1E" stroke-linecap="round"/>
<path d="M29.7652 40.7002C30.1517 40.6719 30.8256 40.8514 31.1923 41.0214C31.5591 41.2009 31.8762 41.3803 31.9456 41.777C32.015 42.1643 31.9258 43.0144 31.6185 43.3544C31.3212 43.7039 30.558 43.8267 30.122 43.855C29.6859 43.8834 29.3489 43.6756 29.0218 43.5339C28.6948 43.3828 28.3083 43.2789 28.1596 42.9861C28.001 42.7027 28.001 42.1737 28.1001 41.7865C28.1992 41.3898 28.4173 40.8608 28.7542 40.6341C29.0813 40.4074 29.9138 40.398 30.1021 40.4358C30.2904 40.4736 29.9634 40.8797 29.894 40.8703M29.7949 40.2469C30.2904 40.228 31.3014 40.9364 31.6086 41.2009C31.9158 41.4653 31.7573 41.4087 31.6582 41.8243C31.5591 42.2399 31.2815 43.3166 31.0338 43.6756C30.786 44.0345 30.5878 43.9967 30.1913 43.9873C29.785 43.9873 29.0813 43.8456 28.6353 43.6378C28.1893 43.43 27.6046 43.0522 27.5154 42.731C27.4262 42.4099 27.9515 42.0982 28.11 41.692C28.2686 41.2953 28.1199 40.5208 28.4668 40.3319C28.8236 40.1335 29.9039 40.568 30.2112 40.5397C30.5184 40.5208 30.2706 40.1335 30.3103 40.1807" fill="white"/>
<path d="M29.2398 40.4358C29.6164 40.2941 30.1714 40.4075 30.5381 40.5775C30.9048 40.7569 31.2219 41.0686 31.44 41.4654C31.6481 41.8715 31.8761 42.6649 31.7869 42.9861C31.7076 43.3072 31.3805 43.2506 30.9147 43.4111C30.4588 43.5623 29.4281 43.9873 29.0217 43.9212C28.6055 43.8645 28.6847 43.3356 28.4271 43.0428C28.1793 42.7594 27.5152 42.5232 27.5152 42.1832C27.5152 41.8432 28.1396 41.2292 28.4469 40.9931C28.764 40.7569 29.1506 40.8136 29.3983 40.7853C29.6362 40.7475 29.8245 40.8325 29.8939 40.8042M29.5173 40.2563C29.8245 40.1052 30.0227 40.398 30.3696 40.6625C30.7264 40.9364 31.4202 41.522 31.6283 41.8621C31.8265 42.1927 31.6679 42.3343 31.5787 42.6744C31.4796 43.0144 31.44 43.6945 31.0634 43.9023C30.6868 44.1195 29.7353 44.1006 29.3091 43.9684C28.8929 43.8267 28.8433 43.3261 28.546 43.0805C28.2487 42.8444 27.6044 42.8916 27.5152 42.5421C27.426 42.1832 27.6639 41.2387 28.0306 40.9459C28.3973 40.6625 29.4479 40.8514 29.7056 40.8231C29.9633 40.7947 29.6065 40.7097 29.5767 40.7569" stroke="#1E1E1E" stroke-linecap="round"/>
<path d="M33.8139 49.1303C34.2797 49.083 34.8644 49.1019 35.1816 49.4231C35.4987 49.7348 35.7564 50.6038 35.7069 51.0477C35.6573 51.4822 35.1717 51.8222 34.8842 52.0678C34.5968 52.304 34.3391 52.4079 33.9823 52.4929C33.6255 52.5873 33.0804 52.7385 32.7435 52.5968C32.3966 52.4456 32.0794 52.0206 31.9109 51.6144C31.7425 51.2083 31.6334 50.5471 31.7425 50.1598C31.8614 49.7726 32.2677 49.4042 32.5948 49.2814C32.9318 49.1492 33.5661 49.4798 33.7445 49.4042C33.913 49.3286 33.576 48.8847 33.6256 48.8469M34.1508 49.2058C34.5869 49.2342 34.7257 49.0075 34.9041 49.357C35.0825 49.697 35.1816 50.8116 35.2113 51.2838C35.241 51.7561 35.3302 51.9545 35.0825 52.1906C34.8347 52.4173 34.2004 52.6251 33.7147 52.6723C33.2192 52.7101 32.4461 52.6157 32.1389 52.4456C31.8317 52.2756 31.9902 52.0489 31.8614 51.6239C31.7226 51.2083 31.2172 50.2826 31.346 49.9048C31.465 49.527 32.1488 49.5648 32.6047 49.3664C33.0507 49.1586 33.7742 48.7147 34.0418 48.7052C34.3193 48.6863 34.3491 49.2625 34.2301 49.2814" fill="white"/>
<path d="M33.4669 48.8847C33.8832 48.8847 34.3887 49.0925 34.7554 49.4325C35.132 49.782 35.6077 50.5849 35.6969 50.9722C35.796 51.3594 35.6771 51.4444 35.3203 51.7467C34.9734 52.0584 34.0319 52.6912 33.6057 52.7951C33.1894 52.899 33.1795 52.559 32.8029 52.3701C32.4263 52.1906 31.5442 52.0301 31.3658 51.6806C31.1874 51.3311 31.5739 50.6416 31.7226 50.2921C31.8713 49.952 31.8713 49.7726 32.2578 49.612C32.6542 49.4514 33.7742 49.4231 34.0715 49.3381C34.3589 49.2531 34.1111 49.0736 34.0021 49.0831M33.3381 48.9981C33.7345 49.102 34.6067 49.5837 34.9536 49.867C35.3104 50.1504 35.3798 50.3015 35.459 50.6982C35.5284 51.0949 35.687 51.9073 35.4194 52.2567C35.1518 52.6157 34.2796 52.8046 33.8535 52.8235C33.4372 52.8424 33.3084 52.5118 32.8921 52.3701C32.4758 52.2379 31.6334 52.3512 31.3757 51.9923C31.118 51.6333 31.1279 50.6132 31.346 50.226C31.564 49.8293 32.2578 49.8104 32.6741 49.6498C33.0903 49.4892 33.6751 49.2909 33.8634 49.272C34.0418 49.2531 33.7345 49.5931 33.7841 49.5459" stroke="#1E1E1E" stroke-linecap="round"/>
<path d="M17.9111 34.5967C17.9508 34.8234 18.0994 35.7113 18.1391 35.9286" stroke="#1E1E1E" stroke-width="0.5" stroke-linecap="round"/>
<path d="M8.09558 49.4037C8.12531 49.5548 8.23433 50.1593 8.26407 50.3105" stroke="#1E1E1E" stroke-width="0.5" stroke-linecap="round"/>
<path d="M29.802 41.8132C29.802 41.9454 29.802 42.4838 29.802 42.616" stroke="#1E1E1E" stroke-width="0.5" stroke-linecap="round"/>
<path d="M33.3356 50.3125C33.3356 50.4258 33.3356 50.8887 33.3356 51.0115" stroke="#1E1E1E" stroke-width="0.5" stroke-linecap="round"/>
<path d="M41.8051 54.2681C41.8151 54.4665 41.8551 55.2505 41.8651 55.4488" stroke="#1E1E1E" stroke-width="0.5" stroke-linecap="round"/>
<path d="M61.0999 41.2786C61.0999 41.3447 61.0999 41.5903 61.0999 41.6564" stroke="#1E1E1E" stroke-width="0.5" stroke-linecap="round"/>
<path d="M64.6895 32.5121C64.6995 32.7482 64.7395 33.6739 64.7495 33.9006" stroke="#1E1E1E" stroke-width="0.5" stroke-linecap="round"/>
</g>
<defs>
<clipPath id="clip0_108_10">
<rect width="69.3769" height="53.8393" fill="white" transform="translate(5.95605 25.5972)"/>
</clipPath>
</defs>
</svg>
