<svg width="13" height="14" viewBox="0 0 13 14" fill="none" xmlns="http://www.w3.org/2000/svg">
<path d="M6.72302 4.95545C7.07937 4.60611 8.50477 3.18989 8.86112 2.83112" stroke="#1E1E1E" stroke-linecap="round"/>
<path d="M8.85669 2.79309C9.25263 3.10466 10.8166 4.35093 11.2126 4.6625" stroke="#1E1E1E" stroke-linecap="round"/>
<path d="M11.3015 4.91302C10.6185 5.91382 7.89638 9.92644 7.21338 10.9367" stroke="#1E1E1E" stroke-linecap="round"/>
<path d="M6.78971 4.95545C6.43336 4.60611 5.00796 3.18989 4.65161 2.83112" stroke="#1E1E1E" stroke-linecap="round"/>
<path d="M4.65603 2.79309C4.26009 3.10466 2.69611 4.35093 2.30017 4.6625" stroke="#1E1E1E" stroke-linecap="round"/>
<path d="M2.2113 4.91302C2.89431 5.91382 5.61642 9.92644 6.29942 10.9367" stroke="#1E1E1E" stroke-linecap="round"/>
<path d="M6.00038 1.76812C7.19811 1.65483 8.87097 2.34405 9.93012 2.99551C10.9794 3.64698 11.9692 4.7233 12.3256 5.65801C12.6819 6.60215 12.5532 7.66904 12.0385 8.61319C11.5337 9.55733 10.336 10.813 9.25701 11.3229C8.17807 11.8233 6.67348 11.861 5.58464 11.6439C4.49579 11.4173 3.34756 10.8603 2.71405 9.97276C2.08054 9.08526 1.75388 7.41412 1.76378 6.32835C1.78358 5.23314 2.09044 4.13793 2.82293 3.43926C3.55543 2.73115 5.58464 2.43847 6.17855 2.09857C6.77247 1.74924 6.29733 1.28661 6.40622 1.37158M7.45547 1.88142C8.43543 1.86254 9.17782 2.22131 9.84103 3.0144C10.5141 3.80748 11.108 5.62968 11.4446 6.63992C11.7713 7.6596 12.3751 8.21664 11.8207 9.10414C11.2565 9.99164 9.24711 11.5306 8.07908 11.9743C6.91105 12.4087 5.94099 12.2198 4.79275 11.7478C3.65441 11.2662 1.6747 10.0105 1.19956 9.10414C0.724432 8.19776 1.6747 7.37635 1.96175 6.30003C2.25871 5.23314 2.09044 3.52424 2.97141 2.65562C3.85238 1.79645 6.60419 1.17331 7.2575 1.13555C7.90091 1.09778 6.86155 2.34405 6.86155 2.43847" fill="white"/>
<path d="M5.41636 1.3527C6.45571 1.09778 8.25726 1.78701 9.3263 2.38182C10.4052 2.96719 11.4545 3.88301 11.8504 4.88381C12.2563 5.87516 12.088 7.31026 11.7317 8.36771C11.3852 9.41571 10.722 10.5676 9.76184 11.1907C8.79178 11.8233 7.208 12.3614 5.96078 12.1443C4.71356 11.9271 3.11989 10.7847 2.29831 9.8689C1.46683 8.96252 1.03129 7.79178 1.00159 6.67768C0.971897 5.57303 1.35794 4.10961 2.12013 3.21267C2.88232 2.32517 4.87194 1.56041 5.56484 1.34326C6.26764 1.11666 6.27754 1.66427 6.30723 1.89086M4.89174 1.14499C6.02017 0.77677 8.02959 1.15443 9.18772 1.77756C10.3459 2.41014 11.405 3.89245 11.8405 4.91213C12.2662 5.93181 12.0484 6.83819 11.7713 7.90507C11.4941 8.97196 11.1674 10.492 10.1677 11.2946C9.17782 12.0971 6.98034 12.8241 5.8123 12.7202C4.65417 12.6164 3.99097 11.5023 3.20898 10.6809C2.42699 9.85002 1.31835 8.96252 1.11048 7.78234C0.912505 6.61159 1.26885 4.69498 1.97165 3.63753C2.67445 2.58953 4.72346 1.78701 5.30748 1.45656C5.90139 1.11666 5.41636 1.55097 5.52525 1.63594" stroke="#1E1E1E" stroke-linecap="round"/>
<path d="M6.42639 7.36548C6.47588 6.7329 6.73325 4.07985 6.71345 3.35286M6.99061 7.21442C7.03021 6.48742 6.52538 3.51336 6.52538 2.84302" stroke="#1E1E1E" stroke-width="0.5" stroke-linecap="round"/>
<path d="M10.203 8.3246C9.71798 8.08857 7.40172 6.95559 6.76821 6.63458M9.92585 8.06024C9.42103 7.89974 6.99587 7.28604 6.53064 7.04057" stroke="#1E1E1E" stroke-width="0.5" stroke-linecap="round"/>
</svg>
