<svg width="84" height="120" viewBox="0 0 84 120" fill="none" xmlns="http://www.w3.org/2000/svg">
<path d="M22.004 2.2438C34.2023 4.06295 46.1224 2.2438 62.1682 2.2438C72.8157 4.01557 78.8503 7.038 82.2503 21.3827C79.3772 43.1745 81.0374 59.4047 82.2503 98.6489C83.1351 114.746 72.2987 119.228 62.1682 117.788C47.2159 118.461 33.0789 119.588 22.004 117.788C10.581 115.201 2.56804 111.98 1.92184 98.6489C2.35927 70.8596 0.440532 45.9601 1.92184 21.3827C3.89028 9.27404 10.9091 -0.570187 22.004 2.2438Z" fill="white"/>
<path d="M22.0038 2.2438C33.6654 3.35234 41.062 0.7468 62.1681 2.2438M22.0038 2.2438C36.797 3.08705 52.9522 2.87861 62.1681 2.2438M22.0038 2.2438C8.57269 1.07841 1.63342 6.81061 1.92173 21.3827M22.0038 2.2438C9.8651 0.623629 0.857972 7.1517 1.92173 21.3827M62.1681 2.2438C74.0881 1.41003 83.304 9.82357 82.2502 21.3827M62.1681 2.2438C73.3524 2.34803 80.9677 10.7047 82.2502 21.3827M82.2502 21.3827C82.3695 52.1755 80.9379 80.4575 82.2502 98.6489M82.2502 21.3827C81.594 51.8155 81.604 81.6987 82.2502 98.6489M82.2502 98.6489C80.2718 111.639 75.6986 118.423 62.1681 117.788M82.2502 98.6489C81.7531 113.363 76.2653 115.959 62.1681 117.788M62.1681 117.788C49.8802 118.157 37.6222 118.394 22.0038 117.788M62.1681 117.788C52.6042 118.404 42.1456 117.778 22.0038 117.788M22.0038 117.788C10.054 119.512 2.05097 112.406 1.92173 98.6489M22.0038 117.788C9.57679 119.493 3.62175 112.34 1.92173 98.6489M1.92173 98.6489C0.679022 81.5945 1.76266 66.1318 1.92173 21.3827M1.92173 98.6489C1.74278 78.6952 2.04103 58.0025 1.92173 21.3827" stroke="#1E1E1E" stroke-width="2" stroke-linecap="round"/>
<path d="M10.6855 84.319C21.6114 84.319 65.3347 84.319 76.2606 84.319" stroke="#1E1E1E" stroke-width="2" stroke-linecap="round"/>
<path d="M23.3236 2.40668C34.7864 2.40668 46.2391 2.40668 59.5013 2.40668C61.9668 2.40668 63.2095 3.58154 63.2095 5.94074C63.2095 7.47565 63.2095 9.01055 63.2095 12.9994C63.2095 15.3491 61.9668 16.524 59.5013 16.524C48.5058 16.524 37.5104 16.524 23.3236 16.524C20.8482 16.524 19.6154 15.3491 19.6154 12.9994C19.6154 10.6212 19.6154 8.2431 19.6154 5.94074C19.6154 3.58154 20.8482 2.40668 23.3236 2.40668Z" fill="white"/>
<path d="M23.3236 2.40668C30.8992 2.40668 38.4847 2.40668 59.5013 2.40668M23.3236 2.40668C35.3928 2.40668 47.452 2.40668 59.5013 2.40668M23.3236 2.40668C20.8482 2.40668 19.6154 3.58154 19.6154 5.94074M59.5013 2.40668C61.9668 2.40668 63.2095 3.58154 63.2095 5.94074M63.2095 5.94074C63.2095 8.36627 63.2095 10.8013 63.2095 12.9994M63.2095 5.94074C63.2095 8.42312 63.2095 10.915 63.2095 12.9994M63.2095 12.9994C63.2095 15.3491 61.9668 16.524 59.5013 16.524M59.5013 16.524C47.8 16.524 36.1086 16.524 23.3236 16.524M59.5013 16.524C50.8819 16.524 42.2525 16.524 23.3236 16.524M23.3236 16.524C20.8482 16.524 19.6154 15.3491 19.6154 12.9994M19.6154 12.9994C19.6154 11.2087 19.6154 9.41796 19.6154 5.94074M19.6154 12.9994C19.6154 11.2845 19.6154 9.56008 19.6154 5.94074" stroke="#1E1E1E" stroke-width="2" stroke-linecap="round"/>
<path d="M23.9069 7.88611C23.7865 7.88611 23.6807 7.91866 23.5895 7.98376C23.4984 8.04561 23.4203 8.1335 23.3552 8.24744C23.2901 8.35811 23.2363 8.48995 23.194 8.64294C23.1517 8.79268 23.1175 8.95707 23.0915 9.13611C23.0655 9.31514 23.0475 9.50232 23.0378 9.69763C23.028 9.89294 23.0231 10.0899 23.0231 10.2885C23.0231 10.5489 23.0329 10.806 23.0524 11.0599C23.0752 11.3106 23.0866 11.5433 23.0866 11.7582C23.0866 11.8982 23.0345 12.0072 22.9304 12.0853C22.8262 12.1667 22.6781 12.2074 22.486 12.2074C22.4502 12.2074 22.4095 12.2041 22.364 12.1976C22.3184 12.1911 22.2744 12.1781 22.2321 12.1586C22.1931 12.139 22.1572 12.1114 22.1247 12.0756C22.0954 12.043 22.0791 11.9974 22.0759 11.9388C22.0466 11.6524 22.0043 11.3594 21.9489 11.0599C21.8936 10.7605 21.8236 10.4626 21.739 10.1664C21.6576 9.8669 21.5583 9.57068 21.4411 9.27771C21.3272 8.98474 21.1953 8.69828 21.0456 8.41833C21.0196 8.36951 20.9968 8.32393 20.9772 8.28162C20.961 8.2393 20.9528 8.19861 20.9528 8.15955C20.9528 8.11072 20.974 8.05863 21.0163 8.0033C21.0619 7.9447 21.1172 7.89099 21.1823 7.84216C21.2507 7.79333 21.3239 7.75427 21.402 7.72498C21.4834 7.69242 21.5615 7.67615 21.6364 7.67615C21.7601 7.67615 21.8692 7.76241 21.9636 7.93494C22.058 8.10421 22.1459 8.37602 22.2272 8.75037C22.2435 8.81547 22.2565 8.86104 22.2663 8.88708C22.2761 8.91313 22.2891 8.92615 22.3054 8.92615C22.3412 8.92615 22.364 8.87081 22.3737 8.76013C22.4128 8.45089 22.4795 8.18559 22.5739 7.96423C22.6683 7.73962 22.7855 7.5557 22.9255 7.41248C23.0687 7.26599 23.2315 7.15857 23.4138 7.09021C23.5993 7.02185 23.8028 6.98767 24.0241 6.98767C24.1511 6.98767 24.2796 6.99906 24.4099 7.02185C24.5401 7.04464 24.6572 7.07882 24.7614 7.12439C24.8656 7.16996 24.9502 7.2253 25.0153 7.29041C25.0804 7.35551 25.113 7.42875 25.113 7.51013C25.113 7.56873 25.1 7.63871 25.0739 7.72009C25.0511 7.79822 25.0202 7.87472 24.9811 7.94958C24.9421 8.0212 24.8965 8.08305 24.8444 8.13513C24.7956 8.18396 24.7451 8.20837 24.6931 8.20837C24.6345 8.20837 24.5775 8.1921 24.5222 8.15955C24.4668 8.12374 24.4066 8.0863 24.3415 8.04724C24.2796 8.00818 24.2129 7.97237 24.1413 7.93982C24.0729 7.90401 23.9948 7.88611 23.9069 7.88611ZM28.9606 10.4691C29.055 10.3877 29.1478 10.347 29.239 10.347C29.291 10.347 29.3382 10.3601 29.3806 10.3861C29.4229 10.4122 29.4701 10.4528 29.5222 10.5082C29.571 10.583 29.6052 10.6449 29.6247 10.6937C29.6475 10.7393 29.6589 10.7849 29.6589 10.8304C29.6589 10.9281 29.61 11.0209 29.5124 11.1088C29.3561 11.239 29.1869 11.3562 29.0046 11.4603C28.8223 11.5612 28.6319 11.6475 28.4333 11.7191C28.2347 11.7907 28.0296 11.8444 27.8181 11.8802C27.6065 11.9193 27.3965 11.9388 27.1882 11.9388C26.9245 11.9388 26.6771 11.9047 26.446 11.8363C26.2149 11.7712 26.0082 11.6768 25.8259 11.5531C25.6468 11.4294 25.4955 11.2813 25.3718 11.1088C25.2481 10.933 25.1602 10.736 25.1081 10.5179C25.0788 10.4268 25.0511 10.3682 25.0251 10.3422C25.0023 10.3129 24.9632 10.2982 24.9079 10.2982C24.7875 10.2982 24.6947 10.2689 24.6296 10.2103C24.5645 10.1517 24.5319 10.0671 24.5319 9.95642C24.5319 9.91085 24.5352 9.88155 24.5417 9.86853L24.5515 9.77087C24.5677 9.65369 24.5987 9.56905 24.6442 9.51697C24.6931 9.46488 24.7679 9.43884 24.8688 9.43884H24.9421C25.0788 9.43884 25.1748 9.37537 25.2302 9.24841C25.3311 9.0238 25.4597 8.81873 25.6159 8.63318C25.7722 8.44763 25.9479 8.28975 26.1432 8.15955C26.3386 8.02608 26.5469 7.92354 26.7682 7.85193C26.9929 7.77706 27.2207 7.73962 27.4518 7.73962C27.6927 7.73962 27.9173 7.77543 28.1257 7.84705C28.3373 7.91541 28.5212 8.01143 28.6774 8.13513C28.8337 8.25883 28.9557 8.40369 29.0436 8.5697C29.1348 8.73572 29.1804 8.91475 29.1804 9.10681C29.1804 9.24028 29.1543 9.36235 29.1022 9.47302C29.0502 9.5837 28.9753 9.68136 28.8776 9.76599C28.78 9.84737 28.6612 9.9141 28.5212 9.96619C28.3845 10.0183 28.2282 10.0524 28.0524 10.0687L26.3581 10.2396C26.293 10.2396 26.2393 10.2559 26.197 10.2885C26.1579 10.321 26.1384 10.3649 26.1384 10.4203C26.1384 10.5049 26.1693 10.5863 26.2311 10.6644C26.2962 10.7426 26.3809 10.8125 26.485 10.8744C26.5925 10.933 26.7145 10.9802 26.8513 11.016C26.9912 11.0518 27.1345 11.0697 27.2809 11.0697C27.4209 11.0697 27.5641 11.0567 27.7106 11.0306C27.8604 11.0013 28.0069 10.9607 28.1501 10.9086C28.2966 10.8565 28.4382 10.7946 28.5749 10.723C28.7116 10.6482 28.8402 10.5635 28.9606 10.4691ZM27.8718 9.20935C27.9206 9.19958 27.9629 9.1768 27.9987 9.14099C28.0345 9.10193 28.0524 9.05473 28.0524 8.99939C28.0524 8.95056 28.0345 8.90499 27.9987 8.86267C27.9629 8.82035 27.9141 8.78292 27.8522 8.75037C27.7904 8.71456 27.7188 8.68689 27.6374 8.66736C27.556 8.64783 27.4697 8.63806 27.3786 8.63806C27.2451 8.63806 27.1084 8.65759 26.9684 8.69666C26.8285 8.73572 26.7015 8.7878 26.5876 8.85291C26.4737 8.91475 26.3809 8.98474 26.3093 9.06287C26.2377 9.13774 26.2018 9.21261 26.2018 9.28748C26.2018 9.36235 26.2474 9.39978 26.3386 9.39978C26.3939 9.39978 26.4834 9.39327 26.6071 9.38025C26.7308 9.36723 26.8675 9.35258 27.0173 9.3363C27.167 9.31677 27.3184 9.29561 27.4714 9.27283C27.6244 9.25004 27.7578 9.22888 27.8718 9.20935ZM29.4977 8.13025C29.4977 8.0033 29.5547 7.90727 29.6686 7.84216C29.7826 7.7738 29.9453 7.73962 30.1569 7.73962C30.2057 7.73962 30.2497 7.74613 30.2888 7.75916C30.3278 7.77218 30.362 7.79822 30.3913 7.83728C30.4238 7.87309 30.4531 7.92354 30.4792 7.98865C30.5052 8.05375 30.5313 8.13676 30.5573 8.23767C30.5834 8.3516 30.6094 8.40857 30.6354 8.40857C30.6582 8.40857 30.6859 8.36137 30.7184 8.26697C30.777 8.08142 30.8535 7.92029 30.9479 7.78357C31.0456 7.6436 31.1546 7.52804 31.2751 7.43689C31.3955 7.34249 31.5257 7.2725 31.6657 7.22693C31.8089 7.18136 31.9587 7.15857 32.1149 7.15857C32.4307 7.15857 32.7253 7.21879 32.9987 7.33923C33.2722 7.45642 33.5082 7.62081 33.7067 7.8324C33.9053 8.04073 34.0615 8.28813 34.1755 8.57458C34.2894 8.85779 34.3464 9.16541 34.3464 9.49744C34.3464 9.849 34.2845 10.1745 34.1608 10.474C34.0404 10.7735 33.8711 11.0323 33.653 11.2504C33.4349 11.4652 33.1745 11.6329 32.8718 11.7533C32.5723 11.877 32.2435 11.9388 31.8854 11.9388L31.6364 11.9291C31.4899 11.9291 31.4167 12.0121 31.4167 12.1781L31.6657 14.4193C31.6625 14.4747 31.6429 14.5251 31.6071 14.5707C31.5746 14.6195 31.529 14.6618 31.4704 14.6976C31.4151 14.7334 31.3483 14.7611 31.2702 14.7806C31.1953 14.8002 31.1172 14.8099 31.0358 14.8099C30.8015 14.8099 30.6745 14.7334 30.655 14.5804C30.5866 13.988 30.5101 13.4248 30.4255 12.891C30.3441 12.3571 30.2595 11.8607 30.1716 11.4017C30.0869 10.9395 30.0039 10.5196 29.9225 10.142C29.8412 9.76436 29.7679 9.43559 29.7028 9.15564C29.641 8.87569 29.5921 8.64783 29.5563 8.47205C29.5173 8.29626 29.4977 8.18233 29.4977 8.13025ZM31.0847 9.41931C31.0847 9.6309 31.0928 9.84086 31.1091 10.0492C31.1253 10.2543 31.1514 10.4773 31.1872 10.7181C31.2067 10.8646 31.2865 10.9476 31.4265 10.9672C31.5111 10.9867 31.6055 11.0062 31.7097 11.0258C31.8171 11.042 31.9066 11.0502 31.9782 11.0502C32.1865 11.0502 32.3753 11.0192 32.5446 10.9574C32.7139 10.8955 32.8587 10.8077 32.9792 10.6937C33.0996 10.5765 33.1924 10.4382 33.2575 10.2787C33.3226 10.1192 33.3552 9.94177 33.3552 9.74646C33.3552 9.50883 33.3226 9.28748 33.2575 9.0824C33.1924 8.87406 33.1029 8.6934 32.989 8.54041C32.8783 8.38741 32.7464 8.26697 32.5934 8.17908C32.4437 8.09119 32.2809 8.04724 32.1052 8.04724C31.9522 8.04724 31.8122 8.08142 31.6852 8.14978C31.5615 8.21488 31.4541 8.30766 31.363 8.4281C31.2751 8.54529 31.2067 8.68852 31.1579 8.85779C31.1091 9.02706 31.0847 9.21423 31.0847 9.41931ZM39.0485 10.4691C39.1429 10.3877 39.2357 10.347 39.3268 10.347C39.3789 10.347 39.4261 10.3601 39.4684 10.3861C39.5108 10.4122 39.558 10.4528 39.61 10.5082C39.6589 10.583 39.6931 10.6449 39.7126 10.6937C39.7354 10.7393 39.7468 10.7849 39.7468 10.8304C39.7468 10.9281 39.6979 11.0209 39.6003 11.1088C39.444 11.239 39.2748 11.3562 39.0925 11.4603C38.9102 11.5612 38.7197 11.6475 38.5212 11.7191C38.3226 11.7907 38.1175 11.8444 37.9059 11.8802C37.6944 11.9193 37.4844 11.9388 37.2761 11.9388C37.0124 11.9388 36.765 11.9047 36.5339 11.8363C36.3028 11.7712 36.096 11.6768 35.9138 11.5531C35.7347 11.4294 35.5834 11.2813 35.4597 11.1088C35.336 10.933 35.2481 10.736 35.196 10.5179C35.1667 10.4268 35.139 10.3682 35.113 10.3422C35.0902 10.3129 35.0511 10.2982 34.9958 10.2982C34.8753 10.2982 34.7826 10.2689 34.7175 10.2103C34.6524 10.1517 34.6198 10.0671 34.6198 9.95642C34.6198 9.91085 34.6231 9.88155 34.6296 9.86853L34.6393 9.77087C34.6556 9.65369 34.6865 9.56905 34.7321 9.51697C34.7809 9.46488 34.8558 9.43884 34.9567 9.43884H35.03C35.1667 9.43884 35.2627 9.37537 35.3181 9.24841C35.419 9.0238 35.5475 8.81873 35.7038 8.63318C35.86 8.44763 36.0358 8.28975 36.2311 8.15955C36.4265 8.02608 36.6348 7.92354 36.8561 7.85193C37.0807 7.77706 37.3086 7.73962 37.5397 7.73962C37.7806 7.73962 38.0052 7.77543 38.2136 7.84705C38.4252 7.91541 38.6091 8.01143 38.7653 8.13513C38.9216 8.25883 39.0436 8.40369 39.1315 8.5697C39.2227 8.73572 39.2682 8.91475 39.2682 9.10681C39.2682 9.24028 39.2422 9.36235 39.1901 9.47302C39.138 9.5837 39.0632 9.68136 38.9655 9.76599C38.8679 9.84737 38.749 9.9141 38.6091 9.96619C38.4724 10.0183 38.3161 10.0524 38.1403 10.0687L36.446 10.2396C36.3809 10.2396 36.3272 10.2559 36.2849 10.2885C36.2458 10.321 36.2263 10.3649 36.2263 10.4203C36.2263 10.5049 36.2572 10.5863 36.319 10.6644C36.3841 10.7426 36.4688 10.8125 36.5729 10.8744C36.6804 10.933 36.8024 10.9802 36.9391 11.016C37.0791 11.0518 37.2224 11.0697 37.3688 11.0697C37.5088 11.0697 37.652 11.0567 37.7985 11.0306C37.9483 11.0013 38.0947 10.9607 38.238 10.9086C38.3845 10.8565 38.5261 10.7946 38.6628 10.723C38.7995 10.6482 38.9281 10.5635 39.0485 10.4691ZM37.9597 9.20935C38.0085 9.19958 38.0508 9.1768 38.0866 9.14099C38.1224 9.10193 38.1403 9.05473 38.1403 8.99939C38.1403 8.95056 38.1224 8.90499 38.0866 8.86267C38.0508 8.82035 38.002 8.78292 37.9401 8.75037C37.8783 8.71456 37.8067 8.68689 37.7253 8.66736C37.6439 8.64783 37.5576 8.63806 37.4665 8.63806C37.333 8.63806 37.1963 8.65759 37.0563 8.69666C36.9164 8.73572 36.7894 8.7878 36.6755 8.85291C36.5615 8.91475 36.4688 8.98474 36.3972 9.06287C36.3255 9.13774 36.2897 9.21261 36.2897 9.28748C36.2897 9.36235 36.3353 9.39978 36.4265 9.39978C36.4818 9.39978 36.5713 9.39327 36.695 9.38025C36.8187 9.36723 36.9554 9.35258 37.1052 9.3363C37.2549 9.31677 37.4063 9.29561 37.5593 9.27283C37.7123 9.25004 37.8457 9.22888 37.9597 9.20935ZM40.5134 5.8988C40.5134 5.72628 40.5622 5.60583 40.6599 5.53748C40.7575 5.46586 40.9186 5.43005 41.1432 5.43005C41.2246 5.43005 41.293 5.43819 41.3483 5.45447C41.4069 5.46749 41.4557 5.49353 41.4948 5.53259C41.5371 5.57166 41.5697 5.62374 41.5925 5.68884C41.6185 5.75069 41.6397 5.83044 41.6559 5.9281C41.695 6.23083 41.7373 6.54333 41.7829 6.8656C41.8317 7.18787 41.8822 7.51176 41.9343 7.83728C41.9538 7.98376 42.0303 8.05701 42.1638 8.05701C42.1996 8.05701 42.2582 8.05375 42.3395 8.04724C42.4242 8.03748 42.5235 8.02771 42.6374 8.01794C42.7513 8.00492 42.8734 7.9919 43.0036 7.97888C43.1371 7.96586 43.2689 7.95447 43.3991 7.9447C43.5326 7.93168 43.6579 7.92192 43.7751 7.91541C43.8955 7.90564 44.0013 7.90076 44.0925 7.90076C44.1641 7.90076 44.221 7.91541 44.2634 7.9447C44.3057 7.97074 44.3382 8.00655 44.361 8.05212C44.3871 8.09444 44.4033 8.14327 44.4099 8.19861C44.4196 8.25069 44.4245 8.3044 44.4245 8.35974C44.4245 8.40857 44.4147 8.45903 44.3952 8.51111C44.3789 8.56319 44.3545 8.61039 44.322 8.65271C44.2927 8.69177 44.2552 8.72432 44.2097 8.75037C44.1641 8.77641 44.112 8.78943 44.0534 8.78943C43.7702 8.78943 43.4837 8.79919 43.194 8.81873C42.9076 8.835 42.6211 8.85779 42.3347 8.88708C42.1882 8.90662 42.1149 8.97986 42.1149 9.10681C42.1149 9.11658 42.1166 9.1296 42.1198 9.14587C42.1231 9.15889 42.1247 9.17029 42.1247 9.18005C42.1638 9.46326 42.1996 9.72856 42.2321 9.97595C42.2679 10.2233 42.2972 10.4447 42.32 10.64C42.346 10.8321 42.3656 10.9932 42.3786 11.1234C42.3949 11.2504 42.403 11.335 42.403 11.3773C42.403 11.4945 42.3916 11.5922 42.3688 11.6703C42.346 11.7517 42.3086 11.8168 42.2565 11.8656C42.2044 11.9177 42.1345 11.9535 42.0466 11.973C41.9619 11.9958 41.8545 12.0072 41.7243 12.0072C41.6006 12.0072 41.5095 11.9779 41.4509 11.9193C41.3923 11.8607 41.3597 11.7712 41.3532 11.6508C41.3337 11.2666 41.3028 10.8809 41.2604 10.4935C41.2181 10.1029 41.1693 9.71391 41.114 9.32654C41.0847 9.18656 41.0114 9.11658 40.8942 9.11658C40.8845 9.11658 40.8731 9.1182 40.86 9.12146C40.847 9.12472 40.8356 9.12634 40.8259 9.12634C40.624 9.17192 40.4336 9.21749 40.2546 9.26306C40.0755 9.30863 39.9079 9.35746 39.7516 9.40955C39.6638 9.43884 39.5856 9.46 39.5173 9.47302C39.4489 9.48279 39.3871 9.48767 39.3317 9.48767C39.2569 9.48767 39.2015 9.45512 39.1657 9.39001C39.1299 9.32166 39.112 9.23702 39.112 9.13611C39.112 9.1003 39.1153 9.05961 39.1218 9.01404C39.1283 8.96521 39.1413 8.91801 39.1608 8.87244C39.1771 8.82361 39.2031 8.77966 39.239 8.7406C39.2715 8.69828 39.3171 8.6641 39.3757 8.63806C39.5124 8.58272 39.6947 8.52576 39.9225 8.46716C40.1504 8.40531 40.4076 8.34835 40.694 8.29626C40.7591 8.27999 40.8096 8.25395 40.8454 8.21814C40.8845 8.17908 40.904 8.12211 40.904 8.04724C40.904 8.03097 40.904 8.01469 40.904 7.99841C40.904 7.97888 40.9007 7.95935 40.8942 7.93982C40.8421 7.64034 40.7917 7.36853 40.7429 7.12439C40.6973 6.87699 40.6566 6.66541 40.6208 6.48962C40.5882 6.31384 40.5622 6.1755 40.5427 6.07458C40.5231 5.97367 40.5134 5.91508 40.5134 5.8988ZM44.8737 6.55798C44.7793 6.55798 44.6898 6.54496 44.6052 6.51892C44.5238 6.48962 44.4522 6.45056 44.3903 6.40173C44.3317 6.34965 44.2845 6.28943 44.2487 6.22107C44.2129 6.15271 44.195 6.07784 44.195 5.99646C44.195 5.85974 44.2487 5.74906 44.3561 5.66443C44.4668 5.57979 44.6133 5.53748 44.7956 5.53748C44.8802 5.53748 44.9616 5.55375 45.0397 5.5863C45.1179 5.6156 45.1862 5.65629 45.2448 5.70837C45.3067 5.76046 45.3555 5.82231 45.3913 5.89392C45.4271 5.96228 45.445 6.03389 45.445 6.10876C45.445 6.24874 45.3929 6.35942 45.2888 6.4408C45.1878 6.51892 45.0495 6.55798 44.8737 6.55798ZM44.2048 8.04724C44.2048 7.93331 44.2536 7.84054 44.3513 7.76892C44.4522 7.69405 44.584 7.65662 44.7468 7.65662C45.0397 7.65662 45.196 7.75753 45.2155 7.95935C45.2285 8.09932 45.2416 8.2572 45.2546 8.43298C45.2709 8.60876 45.2855 8.79594 45.2985 8.99451C45.3148 9.18982 45.3278 9.39327 45.3376 9.60486C45.3506 9.81319 45.362 10.0199 45.3718 10.225C45.3815 10.4268 45.3897 10.6221 45.3962 10.8109C45.4027 10.9997 45.4059 11.1722 45.4059 11.3285C45.4059 11.4913 45.3474 11.6133 45.2302 11.6947C45.1162 11.7761 44.9486 11.8168 44.7272 11.8168C44.6263 11.8168 44.5466 11.7924 44.488 11.7435C44.4326 11.698 44.405 11.6296 44.405 11.5385C44.405 11.0892 44.3936 10.6693 44.3708 10.2787C44.3513 9.88481 44.3285 9.53487 44.3024 9.22888C44.2796 8.92289 44.2569 8.66899 44.2341 8.46716C44.2145 8.26208 44.2048 8.12211 44.2048 8.04724ZM49.5759 7.96912C49.5889 7.97563 49.6084 7.97888 49.6345 7.97888C49.7061 7.97888 49.7419 7.93168 49.7419 7.83728V6.31873C49.7419 6.12667 49.7842 5.98995 49.8688 5.90857C49.9567 5.82719 50.1016 5.7865 50.3034 5.7865C50.5085 5.7865 50.6533 5.82882 50.738 5.91345C50.8226 5.99809 50.8649 6.14294 50.8649 6.34802C50.8649 6.42615 50.86 6.54171 50.8503 6.6947C50.8405 6.84444 50.8291 7.01534 50.8161 7.2074C50.8063 7.39945 50.7966 7.60616 50.7868 7.82751C50.777 8.04561 50.7722 8.26208 50.7722 8.47693C50.7722 8.80896 50.7949 9.09542 50.8405 9.3363C50.8861 9.57719 50.9512 9.77738 51.0358 9.93689C51.1205 10.0931 51.2214 10.2103 51.3386 10.2885C51.4557 10.3633 51.5876 10.4008 51.7341 10.4008C51.8155 10.4008 51.8887 10.391 51.9538 10.3715C52.0222 10.3487 52.1019 10.3373 52.1931 10.3373C52.2582 10.3373 52.3119 10.3715 52.3542 10.4398C52.3998 10.5049 52.4225 10.5847 52.4225 10.6791C52.4225 10.7637 52.3965 10.8435 52.3444 10.9183C52.2956 10.9932 52.2272 11.0583 52.1393 11.1136C52.0547 11.169 51.9554 11.2129 51.8415 11.2455C51.7276 11.2748 51.6087 11.2894 51.485 11.2894C51.2181 11.2894 50.974 11.208 50.7526 11.0453C50.5313 10.8793 50.3653 10.627 50.2546 10.2885C50.2448 10.2364 50.2285 10.2103 50.2057 10.2103C50.1797 10.2103 50.1585 10.2364 50.1423 10.2885C50.0544 10.5261 49.9388 10.7409 49.7956 10.933C49.6556 11.1218 49.4912 11.2845 49.3024 11.4213C49.1169 11.5547 48.9118 11.6573 48.6872 11.7289C48.4658 11.8005 48.2315 11.8363 47.9841 11.8363C47.7237 11.8363 47.4844 11.7924 47.2663 11.7045C47.0515 11.6198 46.8659 11.501 46.7097 11.348C46.5534 11.1918 46.4313 11.0095 46.3434 10.8011C46.2556 10.5896 46.2116 10.3617 46.2116 10.1176C46.2116 9.80505 46.2767 9.51046 46.4069 9.23376C46.5371 8.95707 46.7129 8.71619 46.9343 8.51111C47.1589 8.30278 47.4193 8.13839 47.7155 8.01794C48.0117 7.8975 48.3275 7.83728 48.6628 7.83728C48.7995 7.83728 48.9444 7.84867 49.0974 7.87146C49.2503 7.89099 49.4099 7.92354 49.5759 7.96912ZM48.1745 10.9574C48.36 10.9574 48.5244 10.9167 48.6677 10.8353C48.8141 10.7539 48.9427 10.6514 49.0534 10.5277C49.1673 10.4008 49.2634 10.2624 49.3415 10.1127C49.4196 9.95968 49.4831 9.81156 49.5319 9.66833C49.5807 9.52511 49.6166 9.39653 49.6393 9.28259C49.6621 9.16866 49.6735 9.08728 49.6735 9.03845C49.6735 9.00264 49.6638 8.97172 49.6442 8.94568C49.6247 8.91638 49.5954 8.8936 49.5563 8.87732C49.4684 8.85453 49.3773 8.835 49.2829 8.81873C49.1885 8.79919 49.0957 8.78292 49.0046 8.7699C48.9134 8.75688 48.8255 8.74711 48.7409 8.7406C48.6595 8.73409 48.5847 8.73083 48.5163 8.73083C48.321 8.73083 48.1436 8.76013 47.9841 8.81873C47.8246 8.87732 47.6878 8.96033 47.5739 9.06775C47.4632 9.17517 47.377 9.30375 47.3151 9.45349C47.2533 9.59998 47.2224 9.76111 47.2224 9.93689C47.2224 10.0931 47.2451 10.2347 47.2907 10.3617C47.3395 10.4854 47.4046 10.5912 47.486 10.6791C47.5707 10.767 47.6716 10.8353 47.7888 10.8842C47.9059 10.933 48.0345 10.9574 48.1745 10.9574ZM52.2321 9.91736C52.2321 9.86202 52.2386 9.80017 52.2516 9.73181C52.2647 9.66345 52.2712 9.58858 52.2712 9.5072C52.2712 9.45186 52.2468 9.40955 52.1979 9.38025C52.1524 9.35095 52.1003 9.3184 52.0417 9.28259C51.9831 9.24679 51.9294 9.20121 51.8806 9.14587C51.835 9.09054 51.8122 9.01078 51.8122 8.90662C51.8122 8.83175 51.8317 8.75688 51.8708 8.68201C51.9131 8.60714 51.9733 8.53878 52.0515 8.47693C52.2435 8.3337 52.4421 8.20512 52.6472 8.09119C52.8555 7.97725 53.0622 7.88123 53.2673 7.8031C53.4756 7.72498 53.6807 7.66475 53.8825 7.62244C54.0843 7.58012 54.278 7.55896 54.4636 7.55896C54.7761 7.55896 55.069 7.61755 55.3425 7.73474C55.6192 7.84867 55.8584 8.00655 56.0602 8.20837C56.2653 8.40694 56.4265 8.64132 56.5436 8.9115C56.6641 9.17843 56.7243 9.46488 56.7243 9.77087C56.7243 10.0704 56.6608 10.3552 56.5339 10.6254C56.4102 10.8923 56.2425 11.1267 56.0309 11.3285C55.8194 11.5303 55.5703 11.6898 55.2839 11.807C55.0007 11.9274 54.7012 11.9877 54.3854 11.9877C54.0762 11.9877 53.7897 11.9356 53.5261 11.8314C53.2624 11.7273 53.0345 11.584 52.8425 11.4017C52.6504 11.2162 52.5007 10.9981 52.3932 10.7474C52.2858 10.4935 52.2321 10.2168 52.2321 9.91736ZM54.4929 11.1088C54.6296 11.1088 54.7712 11.0811 54.9177 11.0258C55.0641 10.9704 55.1976 10.8907 55.3181 10.7865C55.4418 10.6791 55.5427 10.5489 55.6208 10.3959C55.7022 10.2429 55.7429 10.0704 55.7429 9.8783C55.7429 9.68298 55.7071 9.50069 55.6354 9.33142C55.5638 9.16215 55.4645 9.01567 55.3376 8.89197C55.2139 8.76501 55.0658 8.66573 54.8932 8.59412C54.724 8.5225 54.5401 8.48669 54.3415 8.48669C53.9802 8.48669 53.7035 8.5811 53.5114 8.7699C53.3194 8.95544 53.2233 9.2419 53.2233 9.62927C53.2233 9.84086 53.2543 10.0378 53.3161 10.2201C53.3812 10.3991 53.4707 10.5554 53.5847 10.6888C53.6986 10.8191 53.8321 10.9216 53.985 10.9965C54.1413 11.0713 54.3106 11.1088 54.4929 11.1088ZM60.0104 7.88611C59.89 7.88611 59.7842 7.91866 59.6931 7.98376C59.6019 8.04561 59.5238 8.1335 59.4587 8.24744C59.3936 8.35811 59.3399 8.48995 59.2975 8.64294C59.2552 8.79268 59.221 8.95707 59.195 9.13611C59.169 9.31514 59.1511 9.50232 59.1413 9.69763C59.1315 9.89294 59.1266 10.0899 59.1266 10.2885C59.1266 10.5489 59.1364 10.806 59.1559 11.0599C59.1787 11.3106 59.1901 11.5433 59.1901 11.7582C59.1901 11.8982 59.138 12.0072 59.0339 12.0853C58.9297 12.1667 58.7816 12.2074 58.5895 12.2074C58.5537 12.2074 58.513 12.2041 58.4675 12.1976C58.4219 12.1911 58.378 12.1781 58.3356 12.1586C58.2966 12.139 58.2608 12.1114 58.2282 12.0756C58.1989 12.043 58.1826 11.9974 58.1794 11.9388C58.1501 11.6524 58.1078 11.3594 58.0524 11.0599C57.9971 10.7605 57.9271 10.4626 57.8425 10.1664C57.7611 9.8669 57.6618 9.57068 57.5446 9.27771C57.4307 8.98474 57.2988 8.69828 57.1491 8.41833C57.1231 8.36951 57.1003 8.32393 57.0807 8.28162C57.0645 8.2393 57.0563 8.19861 57.0563 8.15955C57.0563 8.11072 57.0775 8.05863 57.1198 8.0033C57.1654 7.9447 57.2207 7.89099 57.2858 7.84216C57.3542 7.79333 57.4274 7.75427 57.5056 7.72498C57.5869 7.69242 57.6651 7.67615 57.7399 7.67615C57.8636 7.67615 57.9727 7.76241 58.0671 7.93494C58.1615 8.10421 58.2494 8.37602 58.3307 8.75037C58.347 8.81547 58.36 8.86104 58.3698 8.88708C58.3796 8.91313 58.3926 8.92615 58.4089 8.92615C58.4447 8.92615 58.4675 8.87081 58.4772 8.76013C58.5163 8.45089 58.583 8.18559 58.6774 7.96423C58.7718 7.73962 58.889 7.5557 59.029 7.41248C59.1722 7.26599 59.335 7.15857 59.5173 7.09021C59.7028 7.02185 59.9063 6.98767 60.1276 6.98767C60.2546 6.98767 60.3832 6.99906 60.5134 7.02185C60.6436 7.04464 60.7608 7.07882 60.8649 7.12439C60.9691 7.16996 61.0537 7.2253 61.1188 7.29041C61.1839 7.35551 61.2165 7.42875 61.2165 7.51013C61.2165 7.56873 61.2035 7.63871 61.1774 7.72009C61.1546 7.79822 61.1237 7.87472 61.0847 7.94958C61.0456 8.0212 61 8.08305 60.9479 8.13513C60.8991 8.18396 60.8487 8.20837 60.7966 8.20837C60.738 8.20837 60.681 8.1921 60.6257 8.15955C60.5703 8.12374 60.5101 8.0863 60.445 8.04724C60.3832 8.00818 60.3164 7.97237 60.2448 7.93982C60.1765 7.90401 60.0983 7.88611 60.0104 7.88611Z" fill="#1E1E1E"/>
<path d="M23.4976 61.3524C33.3001 63.0389 45.0411 63.2662 60.9378 61.3524C60.8682 61.7408 64.0197 61.9682 64.0396 64.3085C63.7712 66.6771 64.656 68.4868 64.0396 70.2207C64.139 72.3335 62.8764 72.6746 60.9378 73.1768C55.1319 74.9959 43.1324 75.1665 23.4976 73.1768C22.3742 73.2336 19.6204 71.983 20.3958 70.2207C21.1514 67.9752 20.7835 66.0613 20.3958 64.3085C19.0935 61.6366 19.2724 63.1431 23.4976 61.3524Z" fill="white"/>
<path d="M23.4976 61.3523C31.3316 61.1344 39.3943 61.6366 60.9378 61.3523M23.4976 61.3523C31.6796 61.1913 39.7522 61.1913 60.9378 61.3523M23.4976 61.3523C20.6742 61.5229 20.9724 62.8588 20.3958 64.3085M23.4976 61.3523C20.5549 60.3196 20.5847 62.7167 20.3958 64.3085M60.9378 61.3523C63.2841 60.8691 63.2343 61.7882 64.0396 64.3085M60.9378 61.3523C63.5127 62.3282 64.0098 62.5935 64.0396 64.3085M64.0396 64.3085C64.2285 66.6298 64.308 68.9321 64.0396 70.2207M64.0396 64.3085C64.0098 66.2034 63.9203 68.3068 64.0396 70.2207M64.0396 70.2207C63.7414 71.8219 63.5028 73.7832 60.9378 73.1768M64.0396 70.2207C64.308 72.4093 63.6121 72.7599 60.9378 73.1768M60.9378 73.1768C49.6242 72.7315 38.8674 73.6884 23.4976 73.1768M60.9378 73.1768C52.5769 73.2621 44.3353 73.2621 23.4976 73.1768M23.4976 73.1768C21.4695 72.4472 20.9128 71.2913 20.3958 70.2207M23.4976 73.1768C20.9028 72.722 20.0677 72.6272 20.3958 70.2207M20.3958 70.2207C20.2069 68.9226 20.6841 67.2172 20.3958 64.3085M20.3958 70.2207C20.3461 68.1457 20.4256 66.1181 20.3958 64.3085" stroke="#1E1E1E" stroke-linecap="round"/>
<path d="M25.3414 65.1C26.2759 64.6073 29.2584 61.9355 31.1076 61.8786C32.9667 61.8218 35.5515 64.3515 36.4562 64.7495M26.2759 64.8821C27.1508 64.4368 29.1292 62.4755 30.7696 62.3239C32.4099 62.1629 35.1339 63.5557 36.1182 63.9631" stroke="#1E1E1E" stroke-linecap="round"/>
<path d="M25.5377 63.863C26.4722 64.242 29.067 66.9138 30.8763 67.037C32.6957 67.1602 35.5091 64.9999 36.4337 64.5925M24.9611 64.7631C25.8459 65.2273 28.5997 66.279 30.4687 66.3453C32.3278 66.4117 35.1115 65.3695 36.1355 65.161" stroke="#1E1E1E" stroke-linecap="round"/>
<path d="M30.991 63.9081C30.991 64.2018 31.0507 64.903 31.0606 65.1019M30.5735 63.7565C30.5238 64.126 30.7723 65.2346 30.822 65.5188" stroke="#1E1E1E" stroke-linecap="round"/>
<path d="M23.9745 69.5967C23.9745 70.0704 24.0739 71.9464 24.0143 72.4107M23.5769 69.303C23.5371 69.8146 23.6663 72.1928 23.7856 72.7518" stroke="#1E1E1E" stroke-linecap="round"/>
<path d="M26.6974 68.9691C26.6378 69.5092 26.2998 71.7357 26.3097 72.38M26.3197 69.6039C26.3694 70.1914 26.9162 72.2474 26.9559 72.7116" stroke="#1E1E1E" stroke-linecap="round"/>
<path d="M28.8419 68.8789C28.8519 69.5421 29.1998 72.233 29.2396 72.8583M29.339 69.5042C29.2992 70.0917 29.1302 71.835 29.0507 72.4224" stroke="#1E1E1E" stroke-linecap="round"/>
<path d="M32.1755 69.1267C32.2351 69.8279 32.0661 72.1871 32.0959 72.8408M31.8275 68.9846C31.8673 69.6005 31.748 71.6944 31.8176 72.2913" stroke="#1E1E1E" stroke-linecap="round"/>
<path d="M35.5188 69.2768C35.4691 69.8453 35.4094 72.3277 35.3498 72.9056M35.0913 69.0305C35.0018 69.6558 35.2305 71.9392 35.2006 72.4698" stroke="#1E1E1E" stroke-linecap="round"/>
<path d="M55.6444 34.7193C56.1216 34.7004 56.7977 34.7667 57.086 34.7193C57.8515 37.0785 57.1158 36.1974 57.8117 35.411C55.4754 44.6014 59.9989 50.0399 57.8117 60.8979C60.0287 60.699 55.8433 63.8446 57.086 61.5801C56.5889 61.419 56.4795 61.4664 55.6444 61.5801C56.3602 63.8067 52.9005 60.7274 54.9187 60.8979C52.1251 50.3242 52.3836 45.3594 54.9187 35.411C54.5906 33.8382 53.2485 33.8571 55.6444 34.7193Z" fill="white"/>
<path d="M55.6444 34.7193C56.1316 34.7288 56.6585 34.6909 57.086 34.7193M55.6444 34.7193C56.0421 34.7478 56.4099 34.7288 57.086 34.7193M55.6444 34.7193C54.3818 34.7478 54.869 34.7572 54.9187 35.411M55.6444 34.7193C55.9029 34.2266 55.4456 36.0079 54.9187 35.411M57.086 34.7193C58.1 34.3593 57.6725 34.0372 57.8117 35.411M57.086 34.7193C57.5433 34.0466 57.2749 34.2077 57.8117 35.411M57.8117 35.411C57.9708 44.6204 57.7918 54.0288 57.8117 60.8979M57.8117 35.411C58.0702 42.8297 57.5831 50.959 57.8117 60.8979M57.8117 60.8979C57.5234 61.7317 56.8871 62.0823 57.086 61.5801M57.8117 60.8979C57.5532 60.7369 57.8515 62.6508 57.086 61.5801M57.086 61.5801C56.8076 61.5707 56.4597 61.5991 55.6444 61.5801M57.086 61.5801C56.6784 61.5896 56.3404 61.5991 55.6444 61.5801M55.6444 61.5801C54.4017 60.6895 54.7298 60.8221 54.9187 60.8979M55.6444 61.5801C54.3321 61.2769 55.545 61.5612 54.9187 60.8979M54.9187 60.8979C55.0181 51.4706 55.9626 42.4696 54.9187 35.411M54.9187 60.8979C55.3362 52.3233 54.9883 44.3741 54.9187 35.411" stroke="#1E1E1E" stroke-linecap="round"/>
<path d="M53.8798 33.2802C54.4962 33.0338 56.0968 31.4326 57.2898 31.461C58.4828 31.4894 60.4512 33.1665 61.0378 33.4697M53.5418 33.1001C54.1284 32.759 55.8284 30.7883 57.0512 30.902C58.284 31.0157 60.2822 33.356 60.9086 33.7728" stroke="#1E1E1E" stroke-linecap="round"/>
<path d="M51.8939 31.6354C52.898 31.0006 56.1887 28.1297 58.0577 28.035C59.9268 27.9497 62.2432 30.5647 63.0982 31.1048M51.2974 31.2374C52.2319 30.6405 55.8706 28.5656 57.7794 28.6035C59.6782 28.6319 61.7958 30.9153 62.7104 31.4175" stroke="#1E1E1E" stroke-linecap="round"/>
</svg>
