<svg width="84" height="119" viewBox="0 0 84 119" fill="none" xmlns="http://www.w3.org/2000/svg">
<path d="M22.0248 3.03518C36.782 -0.667001 50.4049 -0.360806 61.8773 3.03518C76.1807 3.00735 80.0377 6.80232 81.8035 21.7781C81.3004 47.7583 79.6234 69.0621 81.8035 97.4456C78.8244 107.058 75.0167 113.284 61.8773 116.188C46.1533 115.288 37.5712 113.377 22.0248 116.188C10.2959 115.372 -0.693085 112.44 2.09856 97.4456C0.461058 79.6955 3.75579 58.1597 2.09856 21.7781C0.372277 6.56108 6.05421 5.5497 22.0248 3.03518Z" fill="white"/>
<path d="M22.0248 3.03519C34.385 2.95168 47.9881 4.74246 61.8773 3.03519M22.0248 3.03519C33.438 2.27434 43.628 2.71043 61.8773 3.03519M22.0248 3.03519C9.04319 4.83525 1.14175 10.3932 2.0986 21.7781M22.0248 3.03519C7.3465 1.33719 3.81502 10.3932 2.0986 21.7781M61.8773 3.03519C74.8589 1.58772 80.3929 9.28901 81.8035 21.7781M61.8773 3.03519C73.0833 2.96096 83.2043 9.6416 81.8035 21.7781M81.8035 21.7781C82.1488 39.1106 82.8689 58.4659 81.8035 97.4456M81.8035 21.7781C82.1981 46.7841 83.3424 71.7344 81.8035 97.4456M81.8035 97.4456C82.9379 110.315 75.4113 117.367 61.8773 116.188M81.8035 97.4456C83.7666 112.069 76.0328 117.256 61.8773 116.188M61.8773 116.188C52.6343 117.692 40.1952 117.84 22.0248 116.188M61.8773 116.188C49.2804 116.708 38.4097 115.845 22.0248 116.188M22.0248 116.188C9.2898 117.868 0.470962 108.877 2.0986 97.4456M22.0248 116.188C9.19115 116.133 0.983914 107.912 2.0986 97.4456M2.0986 97.4456C4.00244 70.8158 0.283537 42.0891 2.0986 21.7781M2.0986 97.4456C1.9309 72.7829 1.76321 49.0202 2.0986 21.7781" stroke="#1E1E1E" stroke-width="2" stroke-linecap="round"/>
<path d="M10.7943 84.8939C21.6354 84.8939 65.0193 84.8939 75.8604 84.8939" stroke="#1E1E1E" stroke-width="2" stroke-linecap="round"/>
<path d="M23.3344 2.93018C36.7895 2.93018 50.2446 2.93018 59.2312 2.93018C61.6775 2.93018 62.9106 4.08073 62.9106 6.39112C62.9106 8.97986 62.9106 11.5779 62.9106 13.3037C62.9106 15.6048 61.6775 16.7554 59.2312 16.7554C49.8402 16.7554 40.4393 16.7554 23.3344 16.7554C20.8781 16.7554 19.6549 15.6048 19.6549 13.3037C19.6549 11.4202 19.6549 9.54586 19.6549 6.39112C19.6549 4.08073 20.8781 2.93018 23.3344 2.93018Z" fill="white"/>
<path d="M23.3344 2.93018C32.9719 2.93018 42.6194 2.93018 59.2312 2.93018M23.3344 2.93018C36.3752 2.93018 49.4259 2.93018 59.2312 2.93018M23.3344 2.93018C20.8781 2.93018 19.6549 4.08073 19.6549 6.39112M59.2312 2.93018C61.6775 2.93018 62.9106 4.08073 62.9106 6.39112M62.9106 6.39112C62.9106 8.07055 62.9106 9.74999 62.9106 13.3037M62.9106 6.39112C62.9106 8.06128 62.9106 9.74071 62.9106 13.3037M62.9106 13.3037C62.9106 15.6048 61.6775 16.7554 59.2312 16.7554M59.2312 16.7554C47.6009 16.7554 35.9707 16.7554 23.3344 16.7554M59.2312 16.7554C44.977 16.7554 30.7228 16.7554 23.3344 16.7554M23.3344 16.7554C20.8781 16.7554 19.6549 15.6048 19.6549 13.3037M19.6549 13.3037C19.6549 11.7449 19.6549 10.1768 19.6549 6.39112M19.6549 13.3037C19.6549 11.3459 19.6549 9.3974 19.6549 6.39112" stroke="#1E1E1E" stroke-width="2" stroke-linecap="round"/>
<path d="M30.0518 7.34766C29.9313 7.34766 29.8255 7.38021 29.7344 7.44531C29.6432 7.50716 29.5651 7.59505 29.5 7.70898C29.4349 7.81966 29.3812 7.9515 29.3389 8.10449C29.2965 8.25423 29.2624 8.41862 29.2363 8.59766C29.2103 8.77669 29.1924 8.96387 29.1826 9.15918C29.1729 9.35449 29.168 9.55143 29.168 9.75C29.168 10.0104 29.1777 10.2676 29.1973 10.5215C29.2201 10.7721 29.2314 11.0049 29.2314 11.2197C29.2314 11.3597 29.1794 11.4688 29.0752 11.5469C28.971 11.6283 28.8229 11.6689 28.6309 11.6689C28.5951 11.6689 28.5544 11.6657 28.5088 11.6592C28.4632 11.6527 28.4193 11.6396 28.377 11.6201C28.3379 11.6006 28.3021 11.5729 28.2695 11.5371C28.2402 11.5046 28.224 11.459 28.2207 11.4004C28.1914 11.1139 28.1491 10.821 28.0938 10.5215C28.0384 10.222 27.9684 9.92415 27.8838 9.62793C27.8024 9.32845 27.7031 9.03223 27.5859 8.73926C27.472 8.44629 27.3402 8.15983 27.1904 7.87988C27.1644 7.83105 27.1416 7.78548 27.1221 7.74316C27.1058 7.70085 27.0977 7.66016 27.0977 7.62109C27.0977 7.57227 27.1188 7.52018 27.1611 7.46484C27.2067 7.40625 27.262 7.35254 27.3271 7.30371C27.3955 7.25488 27.4688 7.21582 27.5469 7.18652C27.6283 7.15397 27.7064 7.1377 27.7812 7.1377C27.9049 7.1377 28.014 7.22396 28.1084 7.39648C28.2028 7.56576 28.2907 7.83757 28.3721 8.21191C28.3883 8.27702 28.4014 8.32259 28.4111 8.34863C28.4209 8.37467 28.4339 8.3877 28.4502 8.3877C28.486 8.3877 28.5088 8.33236 28.5186 8.22168C28.5576 7.91243 28.6243 7.64714 28.7188 7.42578C28.8132 7.20117 28.9303 7.01725 29.0703 6.87402C29.2135 6.72754 29.3763 6.62012 29.5586 6.55176C29.7441 6.4834 29.9476 6.44922 30.1689 6.44922C30.2959 6.44922 30.4245 6.46061 30.5547 6.4834C30.6849 6.50618 30.8021 6.54036 30.9062 6.58594C31.0104 6.63151 31.0951 6.68685 31.1602 6.75195C31.2253 6.81706 31.2578 6.8903 31.2578 6.97168C31.2578 7.03027 31.2448 7.10026 31.2188 7.18164C31.196 7.25977 31.165 7.33626 31.126 7.41113C31.0869 7.48275 31.0413 7.5446 30.9893 7.59668C30.9404 7.64551 30.89 7.66992 30.8379 7.66992C30.7793 7.66992 30.7223 7.65365 30.667 7.62109C30.6117 7.58529 30.5514 7.54785 30.4863 7.50879C30.4245 7.46973 30.3577 7.43392 30.2861 7.40137C30.2178 7.36556 30.1396 7.34766 30.0518 7.34766ZM35.1055 9.93066C35.1999 9.84928 35.2926 9.80859 35.3838 9.80859C35.4359 9.80859 35.4831 9.82161 35.5254 9.84766C35.5677 9.8737 35.6149 9.91439 35.667 9.96973C35.7158 10.0446 35.75 10.1064 35.7695 10.1553C35.7923 10.2008 35.8037 10.2464 35.8037 10.292C35.8037 10.3896 35.7549 10.4824 35.6572 10.5703C35.501 10.7005 35.3317 10.8177 35.1494 10.9219C34.9671 11.0228 34.7767 11.109 34.5781 11.1807C34.3796 11.2523 34.1745 11.306 33.9629 11.3418C33.7513 11.3809 33.5413 11.4004 33.333 11.4004C33.0693 11.4004 32.8219 11.3662 32.5908 11.2979C32.3597 11.2327 32.153 11.1383 31.9707 11.0146C31.7917 10.891 31.6403 10.7428 31.5166 10.5703C31.3929 10.3945 31.305 10.1976 31.2529 9.97949C31.2236 9.88835 31.196 9.82975 31.1699 9.80371C31.1471 9.77441 31.1081 9.75977 31.0527 9.75977C30.9323 9.75977 30.8395 9.73047 30.7744 9.67188C30.7093 9.61328 30.6768 9.52865 30.6768 9.41797C30.6768 9.3724 30.68 9.3431 30.6865 9.33008L30.6963 9.23242C30.7126 9.11523 30.7435 9.0306 30.7891 8.97852C30.8379 8.92643 30.9128 8.90039 31.0137 8.90039H31.0869C31.2236 8.90039 31.3197 8.83691 31.375 8.70996C31.4759 8.48535 31.6045 8.28027 31.7607 8.09473C31.917 7.90918 32.0928 7.7513 32.2881 7.62109C32.4834 7.48763 32.6917 7.38509 32.9131 7.31348C33.1377 7.23861 33.3656 7.20117 33.5967 7.20117C33.8376 7.20117 34.0622 7.23698 34.2705 7.30859C34.4821 7.37695 34.666 7.47298 34.8223 7.59668C34.9785 7.72038 35.1006 7.86523 35.1885 8.03125C35.2796 8.19727 35.3252 8.3763 35.3252 8.56836C35.3252 8.70182 35.2992 8.82389 35.2471 8.93457C35.195 9.04525 35.1201 9.1429 35.0225 9.22754C34.9248 9.30892 34.806 9.37565 34.666 9.42773C34.5293 9.47982 34.373 9.514 34.1973 9.53027L32.5029 9.70117C32.4378 9.70117 32.3841 9.71745 32.3418 9.75C32.3027 9.78255 32.2832 9.8265 32.2832 9.88184C32.2832 9.96647 32.3141 10.0479 32.376 10.126C32.4411 10.2041 32.5257 10.2741 32.6299 10.3359C32.7373 10.3945 32.8594 10.4417 32.9961 10.4775C33.1361 10.5133 33.2793 10.5312 33.4258 10.5312C33.5658 10.5312 33.709 10.5182 33.8555 10.4922C34.0052 10.4629 34.1517 10.4222 34.2949 10.3701C34.4414 10.318 34.583 10.2562 34.7197 10.1846C34.8564 10.1097 34.985 10.0251 35.1055 9.93066ZM34.0166 8.6709C34.0654 8.66113 34.1077 8.63835 34.1436 8.60254C34.1794 8.56348 34.1973 8.51628 34.1973 8.46094C34.1973 8.41211 34.1794 8.36654 34.1436 8.32422C34.1077 8.2819 34.0589 8.24447 33.9971 8.21191C33.9352 8.17611 33.8636 8.14844 33.7822 8.12891C33.7008 8.10938 33.6146 8.09961 33.5234 8.09961C33.39 8.09961 33.2533 8.11914 33.1133 8.1582C32.9733 8.19727 32.8464 8.24935 32.7324 8.31445C32.6185 8.3763 32.5257 8.44629 32.4541 8.52441C32.3825 8.59928 32.3467 8.67415 32.3467 8.74902C32.3467 8.82389 32.3923 8.86133 32.4834 8.86133C32.5387 8.86133 32.6283 8.85482 32.752 8.8418C32.8757 8.82878 33.0124 8.81413 33.1621 8.79785C33.3118 8.77832 33.4632 8.75716 33.6162 8.73438C33.7692 8.71159 33.9027 8.69043 34.0166 8.6709ZM36.5703 5.36035C36.5703 5.18783 36.6191 5.06738 36.7168 4.99902C36.8145 4.92741 36.9756 4.8916 37.2002 4.8916C37.2816 4.8916 37.3499 4.89974 37.4053 4.91602C37.4639 4.92904 37.5127 4.95508 37.5518 4.99414C37.5941 5.0332 37.6266 5.08529 37.6494 5.15039C37.6755 5.21224 37.6966 5.29199 37.7129 5.38965C37.752 5.69238 37.7943 6.00488 37.8398 6.32715C37.8887 6.64941 37.9391 6.97331 37.9912 7.29883C38.0107 7.44531 38.0872 7.51855 38.2207 7.51855C38.2565 7.51855 38.3151 7.5153 38.3965 7.50879C38.4811 7.49902 38.5804 7.48926 38.6943 7.47949C38.8083 7.46647 38.9303 7.45345 39.0605 7.44043C39.194 7.42741 39.3258 7.41602 39.4561 7.40625C39.5895 7.39323 39.7148 7.38346 39.832 7.37695C39.9525 7.36719 40.0583 7.3623 40.1494 7.3623C40.221 7.3623 40.278 7.37695 40.3203 7.40625C40.3626 7.43229 40.3952 7.4681 40.418 7.51367C40.444 7.55599 40.4603 7.60482 40.4668 7.66016C40.4766 7.71224 40.4814 7.76595 40.4814 7.82129C40.4814 7.87012 40.4717 7.92057 40.4521 7.97266C40.4359 8.02474 40.4115 8.07194 40.3789 8.11426C40.3496 8.15332 40.3122 8.18587 40.2666 8.21191C40.221 8.23796 40.1689 8.25098 40.1104 8.25098C39.8271 8.25098 39.5407 8.26074 39.251 8.28027C38.9645 8.29655 38.6781 8.31934 38.3916 8.34863C38.2451 8.36816 38.1719 8.44141 38.1719 8.56836C38.1719 8.57812 38.1735 8.59115 38.1768 8.60742C38.18 8.62044 38.1816 8.63184 38.1816 8.6416C38.2207 8.9248 38.2565 9.1901 38.2891 9.4375C38.3249 9.6849 38.3542 9.90625 38.377 10.1016C38.403 10.2936 38.4225 10.4548 38.4355 10.585C38.4518 10.7119 38.46 10.7965 38.46 10.8389C38.46 10.9561 38.4486 11.0537 38.4258 11.1318C38.403 11.2132 38.3656 11.2783 38.3135 11.3271C38.2614 11.3792 38.1914 11.415 38.1035 11.4346C38.0189 11.4574 37.9115 11.4688 37.7812 11.4688C37.6576 11.4688 37.5664 11.4395 37.5078 11.3809C37.4492 11.3223 37.4167 11.2327 37.4102 11.1123C37.3906 10.7282 37.3597 10.3424 37.3174 9.95508C37.2751 9.56445 37.2262 9.17546 37.1709 8.78809C37.1416 8.64811 37.0684 8.57812 36.9512 8.57812C36.9414 8.57812 36.93 8.57975 36.917 8.58301C36.904 8.58626 36.8926 8.58789 36.8828 8.58789C36.681 8.63346 36.4906 8.67904 36.3115 8.72461C36.1325 8.77018 35.9648 8.81901 35.8086 8.87109C35.7207 8.90039 35.6426 8.92155 35.5742 8.93457C35.5059 8.94434 35.444 8.94922 35.3887 8.94922C35.3138 8.94922 35.2585 8.91667 35.2227 8.85156C35.1868 8.7832 35.1689 8.69857 35.1689 8.59766C35.1689 8.56185 35.1722 8.52116 35.1787 8.47559C35.1852 8.42676 35.1982 8.37956 35.2178 8.33398C35.234 8.28516 35.2601 8.24121 35.2959 8.20215C35.3285 8.15983 35.374 8.12565 35.4326 8.09961C35.5693 8.04427 35.7516 7.9873 35.9795 7.92871C36.2074 7.86686 36.4645 7.8099 36.751 7.75781C36.8161 7.74154 36.8665 7.71549 36.9023 7.67969C36.9414 7.64062 36.9609 7.58366 36.9609 7.50879C36.9609 7.49251 36.9609 7.47624 36.9609 7.45996C36.9609 7.44043 36.9577 7.4209 36.9512 7.40137C36.8991 7.10189 36.8486 6.83008 36.7998 6.58594C36.7542 6.33854 36.7135 6.12695 36.6777 5.95117C36.6452 5.77539 36.6191 5.63704 36.5996 5.53613C36.5801 5.43522 36.5703 5.37663 36.5703 5.36035ZM41.2236 9.27148C41.2236 9.70768 41.2904 10.0446 41.4238 10.2822C41.5573 10.5199 41.751 10.6387 42.0049 10.6387C42.1644 10.6387 42.3109 10.5915 42.4443 10.4971C42.5811 10.4027 42.6982 10.2708 42.7959 10.1016C42.8936 9.93229 42.9684 9.7321 43.0205 9.50098C43.0758 9.2666 43.1035 9.0127 43.1035 8.73926C43.1035 8.57324 43.097 8.43001 43.084 8.30957C43.071 8.18587 43.0563 8.07682 43.04 7.98242C43.027 7.88477 43.014 7.7985 43.001 7.72363C42.988 7.64876 42.9814 7.57715 42.9814 7.50879C42.9814 7.40462 43.0254 7.32975 43.1133 7.28418C43.2012 7.23535 43.3411 7.21094 43.5332 7.21094C43.7773 7.21094 43.9661 7.26628 44.0996 7.37695C44.2363 7.48763 44.3047 7.64876 44.3047 7.86035C44.3047 8.43652 44.2477 8.9541 44.1338 9.41309C44.0231 9.87207 43.862 10.2627 43.6504 10.585C43.4421 10.904 43.1882 11.1497 42.8887 11.3223C42.5892 11.4948 42.2539 11.5811 41.8828 11.5811C41.6191 11.5811 41.375 11.5257 41.1504 11.415C40.929 11.3076 40.737 11.1562 40.5742 10.9609C40.4147 10.7624 40.2894 10.528 40.1982 10.2578C40.1071 9.98438 40.0615 9.6849 40.0615 9.35938C40.0615 9.23568 40.0648 9.10384 40.0713 8.96387C40.0778 8.82389 40.0876 8.67415 40.1006 8.51465C40.1136 8.35189 40.1299 8.17611 40.1494 7.9873C40.1722 7.7985 40.1966 7.59342 40.2227 7.37207C40.2324 7.27767 40.2764 7.2028 40.3545 7.14746C40.4359 7.08887 40.5384 7.05957 40.6621 7.05957C40.7728 7.05957 40.877 7.07096 40.9746 7.09375C41.0723 7.11654 41.1553 7.14746 41.2236 7.18652C41.2952 7.22559 41.3506 7.27116 41.3896 7.32324C41.432 7.37533 41.4531 7.43066 41.4531 7.48926C41.4531 7.54785 41.4401 7.64062 41.4141 7.76758C41.3913 7.89128 41.3652 8.03451 41.3359 8.19727C41.3099 8.35677 41.2839 8.53092 41.2578 8.71973C41.235 8.90527 41.2236 9.08919 41.2236 9.27148ZM47.542 7.34766C47.4215 7.34766 47.3158 7.38021 47.2246 7.44531C47.1335 7.50716 47.0553 7.59505 46.9902 7.70898C46.9251 7.81966 46.8714 7.9515 46.8291 8.10449C46.7868 8.25423 46.7526 8.41862 46.7266 8.59766C46.7005 8.77669 46.6826 8.96387 46.6729 9.15918C46.6631 9.35449 46.6582 9.55143 46.6582 9.75C46.6582 10.0104 46.668 10.2676 46.6875 10.5215C46.7103 10.7721 46.7217 11.0049 46.7217 11.2197C46.7217 11.3597 46.6696 11.4688 46.5654 11.5469C46.4613 11.6283 46.3132 11.6689 46.1211 11.6689C46.0853 11.6689 46.0446 11.6657 45.999 11.6592C45.9535 11.6527 45.9095 11.6396 45.8672 11.6201C45.8281 11.6006 45.7923 11.5729 45.7598 11.5371C45.7305 11.5046 45.7142 11.459 45.7109 11.4004C45.6816 11.1139 45.6393 10.821 45.584 10.5215C45.5286 10.222 45.4587 9.92415 45.374 9.62793C45.2926 9.32845 45.1934 9.03223 45.0762 8.73926C44.9622 8.44629 44.8304 8.15983 44.6807 7.87988C44.6546 7.83105 44.6318 7.78548 44.6123 7.74316C44.596 7.70085 44.5879 7.66016 44.5879 7.62109C44.5879 7.57227 44.609 7.52018 44.6514 7.46484C44.6969 7.40625 44.7523 7.35254 44.8174 7.30371C44.8857 7.25488 44.959 7.21582 45.0371 7.18652C45.1185 7.15397 45.1966 7.1377 45.2715 7.1377C45.3952 7.1377 45.5042 7.22396 45.5986 7.39648C45.693 7.56576 45.7809 7.83757 45.8623 8.21191C45.8786 8.27702 45.8916 8.32259 45.9014 8.34863C45.9111 8.37467 45.9242 8.3877 45.9404 8.3877C45.9762 8.3877 45.999 8.33236 46.0088 8.22168C46.0479 7.91243 46.1146 7.64714 46.209 7.42578C46.3034 7.20117 46.4206 7.01725 46.5605 6.87402C46.7038 6.72754 46.8665 6.62012 47.0488 6.55176C47.2344 6.4834 47.4378 6.44922 47.6592 6.44922C47.7861 6.44922 47.9147 6.46061 48.0449 6.4834C48.1751 6.50618 48.2923 6.54036 48.3965 6.58594C48.5007 6.63151 48.5853 6.68685 48.6504 6.75195C48.7155 6.81706 48.748 6.8903 48.748 6.97168C48.748 7.03027 48.735 7.10026 48.709 7.18164C48.6862 7.25977 48.6553 7.33626 48.6162 7.41113C48.5771 7.48275 48.5316 7.5446 48.4795 7.59668C48.4307 7.64551 48.3802 7.66992 48.3281 7.66992C48.2695 7.66992 48.2126 7.65365 48.1572 7.62109C48.1019 7.58529 48.0417 7.54785 47.9766 7.50879C47.9147 7.46973 47.848 7.43392 47.7764 7.40137C47.708 7.36556 47.6299 7.34766 47.542 7.34766ZM48.5234 7.05957C48.5234 7.01074 48.5446 6.96354 48.5869 6.91797C48.6292 6.86914 48.6846 6.82682 48.7529 6.79102C48.8213 6.75195 48.8978 6.72103 48.9824 6.69824C49.0703 6.6722 49.1582 6.65918 49.2461 6.65918C49.2949 6.65918 49.3356 6.6722 49.3682 6.69824C49.404 6.72428 49.4349 6.77474 49.4609 6.84961C49.487 6.92122 49.5098 7.02376 49.5293 7.15723C49.5521 7.28743 49.5732 7.45833 49.5928 7.66992C49.6058 7.73503 49.6172 7.78548 49.627 7.82129C49.64 7.85384 49.6562 7.87012 49.6758 7.87012C49.7051 7.87012 49.7344 7.81966 49.7637 7.71875C50.0013 7.0319 50.3447 6.68848 50.7939 6.68848C51.0023 6.68848 51.1911 6.75358 51.3604 6.88379C51.5329 7.014 51.6924 7.22721 51.8389 7.52344C51.9886 7.81641 52.1302 8.20378 52.2637 8.68555C52.3971 9.16406 52.5306 9.75488 52.6641 10.458C52.6706 10.4938 52.6755 10.5264 52.6787 10.5557C52.682 10.585 52.6836 10.6126 52.6836 10.6387C52.6836 10.7135 52.6657 10.7786 52.6299 10.834C52.5973 10.8861 52.5534 10.93 52.498 10.9658C52.4427 10.9984 52.3809 11.0228 52.3125 11.0391C52.2441 11.0586 52.1758 11.0684 52.1074 11.0684C51.9707 11.0684 51.8714 11.0537 51.8096 11.0244C51.751 10.9951 51.7135 10.9398 51.6973 10.8584C51.6029 10.3636 51.5101 9.92415 51.4189 9.54004C51.3311 9.15592 51.2432 8.83366 51.1553 8.57324C51.0706 8.30957 50.986 8.10938 50.9014 7.97266C50.8167 7.83594 50.7321 7.76758 50.6475 7.76758C50.5628 7.76758 50.4831 7.82129 50.4082 7.92871C50.3366 8.03288 50.2666 8.19727 50.1982 8.42188C50.1299 8.64648 50.0632 8.93132 49.998 9.27637C49.9362 9.62142 49.876 10.0332 49.8174 10.5117C49.8011 10.6419 49.736 10.7461 49.6221 10.8242C49.5081 10.9023 49.3633 10.9414 49.1875 10.9414C49.0703 10.9414 48.9808 10.917 48.9189 10.8682C48.8571 10.8193 48.8229 10.7526 48.8164 10.668C48.7871 9.99089 48.7546 9.43424 48.7188 8.99805C48.6862 8.55859 48.6553 8.20703 48.626 7.94336C48.5967 7.67643 48.5723 7.47786 48.5527 7.34766C48.5332 7.21745 48.5234 7.12142 48.5234 7.05957Z" fill="#1E1E1E"/>
<path d="M29.6582 77.7739C32.7458 75.6306 47.3353 68.9592 48.1639 64.3848C48.9926 59.8012 31.5029 57.1753 34.6398 50.2998C37.7767 43.4243 61.5402 27.6784 66.9656 23.1412M31.6508 76.8368C35.1133 74.4429 49.8606 67.6695 50.2454 62.9466C50.6399 58.2238 31.2562 54.9855 34.0084 48.4905C36.7606 41.9861 60.9286 28.1795 66.7683 23.9577" stroke="#1E1E1E" stroke-width="2" stroke-linecap="round"/>
<path d="M54.201 40.6036C57.8016 34.3405 62.9212 31.9374 66.7684 23.9577ZM54.201 40.6036C58.3639 34.2199 62.8423 27.8455 66.7684 23.9577Z" stroke="#1E1E1E" stroke-width="2" stroke-linecap="round"/>
<path d="M45.7668 29.1166C51.6066 26.0083 59.0247 26.732 66.7683 23.9577ZM45.7668 29.1166C52.8989 26.9176 60.4353 24.7093 66.7683 23.9577Z" stroke="#1E1E1E" stroke-width="2" stroke-linecap="round"/>
<path d="M54.6267 78.2417C51.1642 75.9127 35.0852 68.6197 34.513 63.8133C33.9409 59.007 53.5416 56.2048 51.1741 49.4129C48.8165 42.6116 25.4476 27.274 20.3378 23.0336M56.4121 77.8334C53.3048 75.0962 37.5118 66.5598 36.5747 61.9947C35.6277 57.4296 53.4331 56.8636 50.7401 50.4428C48.0471 44.0312 25.6843 27.8678 20.3871 23.5068" stroke="#1E1E1E" stroke-width="2" stroke-linecap="round"/>
<path d="M39.4452 29.8998C35.7559 26.0863 28.8212 27.0234 20.3871 23.5068ZM39.4452 29.8998C34.1776 27.9235 29.3243 25.8172 20.3871 23.5068Z" stroke="#1E1E1E" stroke-width="2" stroke-linecap="round"/>
<path d="M30.6165 39.9301C29.4427 33.2494 25.0727 31.2638 20.3871 23.5068ZM30.6165 39.9301C27.7558 35.3371 25.27 30.5493 20.3871 23.5068Z" stroke="#1E1E1E" stroke-width="2" stroke-linecap="round"/>
</svg>
