<svg width="83" height="119" viewBox="0 0 83 119" fill="none" xmlns="http://www.w3.org/2000/svg">
<path d="M21.9076 1.70085C35.6527 -0.636901 51.5717 3.80103 61.2908 1.70085C72.2869 1.06415 81.4796 9.24629 80.9824 20.897C84.2481 41.4997 82.0742 66.9584 80.9824 98.3945C80.9336 107.803 76.079 115.747 61.2908 117.591C51.3962 114.863 40.7121 114.388 21.9076 117.591C10.3558 118.227 1.63104 112.212 2.21594 98.3945C2.59612 72.6412 5.58886 44.9303 2.21594 20.897C-0.133406 5.94873 12.1495 0.940608 21.9076 1.70085Z" fill="white"/>
<path d="M21.9075 1.70085C32.9816 0.665018 44.4847 1.13067 61.2908 1.70085M21.9075 1.70085C33.0596 2.00495 44.2994 0.760049 61.2908 1.70085M21.9075 1.70085C9.09824 0.417939 0.548961 9.09424 2.21592 20.897M21.9075 1.70085C8.54259 -0.427834 0.217519 8.72362 2.21592 20.897M61.2908 1.70085C73.3202 0.256387 81.7038 9.82597 80.9824 20.897M61.2908 1.70085C76.0107 1.06415 79.8028 5.97723 80.9824 20.897M80.9824 20.897C82.1912 49.9194 80.222 76.1479 80.9824 98.3945M80.9824 20.897C80.0953 44.0275 80.7874 66.2837 80.9824 98.3945M80.9824 98.3945C79.2667 112.231 72.5793 118.76 61.2908 117.591M80.9824 98.3945C80.9044 110.901 72.6573 118.779 61.2908 117.591M61.2908 117.591C51.3962 116.688 39.2985 117.857 21.9075 117.591M61.2908 117.591C45.9371 117.781 29.7842 118.408 21.9075 117.591M21.9075 117.591C8.91302 118.636 3.49295 112.801 2.21592 98.3945M21.9075 117.591C6.59292 119.482 0.38324 111.034 2.21592 98.3945M2.21592 98.3945C0.841411 70.7881 2.75208 40.844 2.21592 20.897M2.21592 98.3945C2.22567 72.2516 2.9568 45.2629 2.21592 20.897" stroke="#1E1E1E" stroke-width="2" stroke-linecap="round"/>
<path d="M10.8093 85.5393C21.5227 85.5393 64.3959 85.5393 75.1093 85.5393" stroke="#1E1E1E" stroke-width="2" stroke-linecap="round"/>
<path d="M23.2016 1.59329C34.8996 1.59329 46.6073 1.59329 58.6758 1.59329C61.0933 1.59329 62.3119 2.77167 62.3119 5.13794C62.3119 7.09557 62.3119 9.0627 62.3119 12.2177C62.3119 14.5745 61.0933 15.7529 58.6758 15.7529C46.4514 15.7529 34.227 15.7529 23.2016 15.7529C20.7743 15.7529 19.5655 14.5745 19.5655 12.2177C19.5655 10.3836 19.5655 8.54954 19.5655 5.13794C19.5655 2.77167 20.7743 1.59329 23.2016 1.59329Z" fill="white"/>
<path d="M23.2016 1.59329C31.3902 1.59329 39.5885 1.59329 58.6758 1.59329M23.2016 1.59329C36.0304 1.59329 48.8689 1.59329 58.6758 1.59329M23.2016 1.59329C20.7743 1.59329 19.5655 2.77167 19.5655 5.13794M58.6758 1.59329C61.0933 1.59329 62.3119 2.77167 62.3119 5.13794M62.3119 5.13794C62.3119 7.31414 62.3119 9.49034 62.3119 12.2177M62.3119 5.13794C62.3119 7.85581 62.3119 10.5832 62.3119 12.2177M62.3119 12.2177C62.3119 14.5745 61.0933 15.7529 58.6758 15.7529M58.6758 15.7529C50.4969 15.7529 42.3278 15.7529 23.2016 15.7529M58.6758 15.7529C50.4287 15.7529 42.1816 15.7529 23.2016 15.7529M23.2016 15.7529C20.7743 15.7529 19.5655 14.5745 19.5655 12.2177M19.5655 12.2177C19.5655 9.85146 19.5655 7.4947 19.5655 5.13794M19.5655 12.2177C19.5655 10.3741 19.5655 8.54003 19.5655 5.13794" stroke="#1E1E1E" stroke-width="2" stroke-linecap="round"/>
<path d="M29.0974 6.66208C28.977 6.66208 28.8712 6.69463 28.78 6.75974C28.6889 6.82158 28.6108 6.90947 28.5457 7.02341C28.4806 7.13408 28.4268 7.26592 28.3845 7.41891C28.3422 7.56865 28.308 7.73304 28.282 7.91208C28.2559 8.09112 28.238 8.27829 28.2283 8.4736C28.2185 8.66891 28.2136 8.86585 28.2136 9.06442C28.2136 9.32484 28.2234 9.582 28.2429 9.83591C28.2657 10.0866 28.2771 10.3193 28.2771 10.5341C28.2771 10.6741 28.225 10.7832 28.1208 10.8613C28.0167 10.9427 27.8686 10.9834 27.6765 10.9834C27.6407 10.9834 27.6 10.9801 27.5544 10.9736C27.5089 10.9671 27.4649 10.9541 27.4226 10.9345C27.3835 10.915 27.3477 10.8873 27.3152 10.8515C27.2859 10.819 27.2696 10.7734 27.2664 10.7148C27.2371 10.4284 27.1947 10.1354 27.1394 9.83591C27.0841 9.53643 27.0141 9.23858 26.9294 8.94235C26.8481 8.64287 26.7488 8.34665 26.6316 8.05368C26.5177 7.76071 26.3858 7.47425 26.2361 7.19431C26.21 7.14548 26.1873 7.0999 26.1677 7.05759C26.1514 7.01527 26.1433 6.97458 26.1433 6.93552C26.1433 6.88669 26.1645 6.8346 26.2068 6.77927C26.2524 6.72067 26.3077 6.66696 26.3728 6.61813C26.4412 6.56931 26.5144 6.53024 26.5925 6.50095C26.6739 6.46839 26.752 6.45212 26.8269 6.45212C26.9506 6.45212 27.0597 6.53838 27.1541 6.71091C27.2485 6.88018 27.3363 7.15199 27.4177 7.52634C27.434 7.59144 27.447 7.63701 27.4568 7.66306C27.4666 7.6891 27.4796 7.70212 27.4958 7.70212C27.5317 7.70212 27.5544 7.64678 27.5642 7.5361C27.6033 7.22686 27.67 6.96156 27.7644 6.7402C27.8588 6.51559 27.976 6.33168 28.116 6.18845C28.2592 6.04196 28.422 5.93454 28.6042 5.86618C28.7898 5.79782 28.9932 5.76364 29.2146 5.76364C29.3416 5.76364 29.4701 5.77503 29.6003 5.79782C29.7306 5.82061 29.8477 5.85479 29.9519 5.90036C30.0561 5.94593 30.1407 6.00127 30.2058 6.06638C30.2709 6.13148 30.3035 6.20472 30.3035 6.2861C30.3035 6.3447 30.2904 6.41468 30.2644 6.49606C30.2416 6.57419 30.2107 6.65069 30.1716 6.72556C30.1326 6.79717 30.087 6.85902 30.0349 6.9111C29.9861 6.95993 29.9356 6.98434 29.8835 6.98434C29.825 6.98434 29.768 6.96807 29.7126 6.93552C29.6573 6.89971 29.5971 6.86227 29.532 6.82321C29.4701 6.78415 29.4034 6.74834 29.3318 6.71579C29.2634 6.67998 29.1853 6.66208 29.0974 6.66208ZM30.7283 5.33395C30.6339 5.33395 30.5444 5.32093 30.4597 5.29489C30.3783 5.26559 30.3067 5.22653 30.2449 5.1777C30.1863 5.12562 30.1391 5.0654 30.1033 4.99704C30.0675 4.92868 30.0496 4.85381 30.0496 4.77243C30.0496 4.63571 30.1033 4.52503 30.2107 4.4404C30.3214 4.35576 30.4679 4.31345 30.6501 4.31345C30.7348 4.31345 30.8162 4.32972 30.8943 4.36227C30.9724 4.39157 31.0408 4.43226 31.0994 4.48434C31.1612 4.53643 31.21 4.59828 31.2458 4.66989C31.2817 4.73825 31.2996 4.80987 31.2996 4.88474C31.2996 5.02471 31.2475 5.13539 31.1433 5.21677C31.0424 5.29489 30.9041 5.33395 30.7283 5.33395ZM30.0593 6.82321C30.0593 6.70928 30.1082 6.61651 30.2058 6.54489C30.3067 6.47002 30.4386 6.43259 30.6013 6.43259C30.8943 6.43259 31.0505 6.5335 31.0701 6.73532C31.0831 6.8753 31.0961 7.03317 31.1091 7.20895C31.1254 7.38474 31.1401 7.57191 31.1531 7.77048C31.1694 7.96579 31.1824 8.16924 31.1921 8.38083C31.2052 8.58916 31.2166 8.79587 31.2263 9.00095C31.2361 9.20277 31.2442 9.39808 31.2507 9.58688C31.2572 9.77569 31.2605 9.94821 31.2605 10.1045C31.2605 10.2672 31.2019 10.3893 31.0847 10.4707C30.9708 10.5521 30.8031 10.5927 30.5818 10.5927C30.4809 10.5927 30.4011 10.5683 30.3425 10.5195C30.2872 10.4739 30.2595 10.4056 30.2595 10.3144C30.2595 9.8652 30.2481 9.44528 30.2253 9.05466C30.2058 8.66078 30.183 8.31084 30.157 8.00485C30.1342 7.69886 30.1114 7.44496 30.0886 7.24313C30.0691 7.03806 30.0593 6.89808 30.0593 6.82321ZM36.3191 9.24509C36.4135 9.16371 36.5063 9.12302 36.5974 9.12302C36.6495 9.12302 36.6967 9.13604 36.739 9.16208C36.7813 9.18812 36.8285 9.22881 36.8806 9.28415C36.9294 9.35902 36.9636 9.42087 36.9832 9.4697C37.0059 9.51527 37.0173 9.56084 37.0173 9.60641C37.0173 9.70407 36.9685 9.79684 36.8708 9.88474C36.7146 10.0149 36.5453 10.1321 36.363 10.2363C36.1807 10.3372 35.9903 10.4235 35.7917 10.4951C35.5932 10.5667 35.3881 10.6204 35.1765 10.6562C34.9649 10.6953 34.755 10.7148 34.5466 10.7148C34.283 10.7148 34.0356 10.6806 33.8044 10.6123C33.5733 10.5472 33.3666 10.4528 33.1843 10.3291C33.0053 10.2054 32.8539 10.0573 32.7302 9.88474C32.6065 9.70895 32.5186 9.51201 32.4666 9.29391C32.4373 9.20277 32.4096 9.14418 32.3835 9.11813C32.3608 9.08884 32.3217 9.07419 32.2664 9.07419C32.1459 9.07419 32.0531 9.04489 31.988 8.9863C31.9229 8.9277 31.8904 8.84307 31.8904 8.73239C31.8904 8.68682 31.8936 8.65752 31.9001 8.6445L31.9099 8.54684C31.9262 8.42966 31.9571 8.34502 32.0027 8.29294C32.0515 8.24085 32.1264 8.21481 32.2273 8.21481H32.3005C32.4373 8.21481 32.5333 8.15134 32.5886 8.02438C32.6895 7.79977 32.8181 7.5947 32.9744 7.40915C33.1306 7.2236 33.3064 7.06572 33.5017 6.93552C33.697 6.80205 33.9054 6.69951 34.1267 6.6279C34.3513 6.55303 34.5792 6.51559 34.8103 6.51559C35.0512 6.51559 35.2758 6.5514 35.4841 6.62302C35.6957 6.69138 35.8796 6.7874 36.0359 6.9111C36.1921 7.0348 36.3142 7.17966 36.4021 7.34567C36.4932 7.51169 36.5388 7.69072 36.5388 7.88278C36.5388 8.01625 36.5128 8.13832 36.4607 8.24899C36.4086 8.35967 36.3337 8.45733 36.2361 8.54196C36.1384 8.62334 36.0196 8.69007 35.8796 8.74216C35.7429 8.79424 35.5867 8.82842 35.4109 8.8447L33.7166 9.01559C33.6514 9.01559 33.5977 9.03187 33.5554 9.06442C33.5164 9.09697 33.4968 9.14092 33.4968 9.19626C33.4968 9.28089 33.5278 9.36227 33.5896 9.4404C33.6547 9.51852 33.7393 9.58851 33.8435 9.65036C33.9509 9.70895 34.073 9.75615 34.2097 9.79196C34.3497 9.82777 34.4929 9.84567 34.6394 9.84567C34.7794 9.84567 34.9226 9.83265 35.0691 9.80661C35.2188 9.77731 35.3653 9.73662 35.5085 9.68454C35.655 9.63246 35.7966 9.57061 35.9333 9.49899C36.0701 9.42412 36.1986 9.33949 36.3191 9.24509ZM35.2302 7.98532C35.2791 7.97556 35.3214 7.95277 35.3572 7.91696C35.393 7.8779 35.4109 7.8307 35.4109 7.77536C35.4109 7.72653 35.393 7.68096 35.3572 7.63864C35.3214 7.59632 35.2725 7.55889 35.2107 7.52634C35.1488 7.49053 35.0772 7.46286 34.9958 7.44333C34.9145 7.4238 34.8282 7.41403 34.7371 7.41403C34.6036 7.41403 34.4669 7.43356 34.3269 7.47263C34.1869 7.51169 34.06 7.56377 33.946 7.62888C33.8321 7.69072 33.7393 7.76071 33.6677 7.83884C33.5961 7.91371 33.5603 7.98858 33.5603 8.06345C33.5603 8.13832 33.6059 8.17575 33.697 8.17575C33.7524 8.17575 33.8419 8.16924 33.9656 8.15622C34.0893 8.1432 34.226 8.12855 34.3757 8.11227C34.5255 8.09274 34.6768 8.07158 34.8298 8.0488C34.9828 8.02601 35.1163 8.00485 35.2302 7.98532ZM37.7644 10.5244C37.7416 10.0914 37.7042 9.69268 37.6521 9.32809C37.6033 8.96026 37.5512 8.63962 37.4958 8.36618C37.4438 8.09274 37.3966 7.87139 37.3542 7.70212C37.3152 7.53285 37.2957 7.42705 37.2957 7.38474C37.2957 7.32289 37.3184 7.26266 37.364 7.20407C37.4128 7.14548 37.4731 7.09502 37.5447 7.0527C37.6163 7.00713 37.6928 6.97132 37.7742 6.94528C37.8588 6.91924 37.9353 6.90622 38.0037 6.90622C38.059 6.90622 38.1062 6.91599 38.1453 6.93552C38.1876 6.95505 38.2169 6.9876 38.2332 7.03317C38.2494 7.08851 38.2641 7.1471 38.2771 7.20895C38.2934 7.26755 38.3097 7.33916 38.3259 7.4238C38.3455 7.54424 38.3715 7.60446 38.4041 7.60446C38.4399 7.60446 38.4806 7.55075 38.5261 7.44333C38.5912 7.29359 38.6612 7.16989 38.7361 7.07224C38.811 6.97458 38.8907 6.89808 38.9753 6.84274C39.0632 6.78415 39.1528 6.74346 39.2439 6.72067C39.3383 6.69789 39.436 6.68649 39.5369 6.68649C39.8429 6.68649 40.1016 6.80694 40.3132 7.04782C40.5281 7.28871 40.6957 7.63701 40.8162 8.09274C40.8324 8.14483 40.8471 8.17901 40.8601 8.19528C40.8731 8.2083 40.8878 8.21481 40.9041 8.21481C40.9203 8.21481 40.9366 8.2083 40.9529 8.19528C40.9724 8.17901 40.9903 8.14808 41.0066 8.10251C41.0847 7.89092 41.1759 7.71188 41.28 7.5654C41.3842 7.41566 41.4916 7.29522 41.6023 7.20407C41.7162 7.10967 41.8318 7.04131 41.949 6.99899C42.0662 6.95668 42.1785 6.93552 42.2859 6.93552C42.4845 6.93552 42.6635 7.00876 42.823 7.15524C42.9858 7.29847 43.129 7.52145 43.2527 7.82419C43.3796 8.12367 43.4887 8.50453 43.5798 8.96677C43.6742 9.42575 43.7524 9.971 43.8142 10.6025C43.8142 10.7783 43.7605 10.9004 43.6531 10.9687C43.5457 11.0403 43.3992 11.0761 43.2136 11.0761C43.0932 11.0761 42.9988 11.0501 42.9304 10.998C42.8621 10.9459 42.823 10.8776 42.8132 10.7929C42.7709 10.3405 42.7237 9.93845 42.6716 9.58688C42.6228 9.23207 42.5691 8.93421 42.5105 8.69333C42.4519 8.44919 42.3868 8.26364 42.3152 8.13669C42.2468 8.00974 42.1703 7.94626 42.0857 7.94626C42.0434 7.94626 41.9897 7.97718 41.9246 8.03903C41.8627 8.10088 41.796 8.21481 41.7244 8.38083C41.6528 8.54359 41.5779 8.7682 41.4998 9.05466C41.4216 9.33786 41.3468 9.70082 41.2751 10.1435C41.2556 10.2672 41.1954 10.3616 41.0945 10.4267C40.9968 10.4918 40.8764 10.5244 40.7332 10.5244C40.5671 10.5244 40.4516 10.4983 40.3865 10.4463C40.3246 10.3942 40.2904 10.3063 40.2839 10.1826C40.2709 9.96774 40.2481 9.75453 40.2156 9.54294C40.1863 9.32809 40.1488 9.12464 40.1033 8.93259C40.0577 8.73727 40.0072 8.55824 39.9519 8.39548C39.8966 8.22946 39.838 8.08623 39.7761 7.96579C39.7143 7.84209 39.6508 7.74606 39.5857 7.6777C39.5206 7.60934 39.4571 7.57516 39.3953 7.57516C39.3139 7.57516 39.2341 7.63213 39.156 7.74606C39.0811 7.86 39.0128 8.02113 38.9509 8.22946C38.8923 8.4378 38.8451 8.68845 38.8093 8.98141C38.7735 9.27438 38.7556 9.60153 38.7556 9.96286C38.7556 10.0247 38.7572 10.0866 38.7605 10.1484C38.7638 10.207 38.7654 10.2688 38.7654 10.334C38.7654 10.4316 38.7491 10.5114 38.7166 10.5732C38.6873 10.6351 38.6433 10.6839 38.5847 10.7197C38.5294 10.7555 38.4643 10.7799 38.3894 10.7929C38.3145 10.806 38.2332 10.8125 38.1453 10.8125C38.0639 10.8125 37.9988 10.806 37.95 10.7929C37.9011 10.7832 37.8637 10.7669 37.8376 10.7441C37.8116 10.7213 37.7937 10.6904 37.7839 10.6513C37.7742 10.6155 37.7677 10.5732 37.7644 10.5244ZM47.4958 6.04684C47.6749 6.04684 47.8474 6.07451 48.0134 6.12985C48.1794 6.18519 48.3259 6.26169 48.4529 6.35934C48.5798 6.457 48.6807 6.57419 48.7556 6.71091C48.8337 6.84763 48.8728 6.99899 48.8728 7.16501C48.8728 7.23337 48.8565 7.3001 48.824 7.3652C48.7947 7.42705 48.754 7.48239 48.7019 7.53122C48.6498 7.57679 48.5896 7.61423 48.5212 7.64352C48.4561 7.66957 48.3878 7.68259 48.3162 7.68259C48.3097 7.68259 48.3031 7.68421 48.2966 7.68747C48.2934 7.68747 48.2885 7.68747 48.282 7.68747C48.2755 7.69072 48.269 7.69235 48.2625 7.69235L48.282 8.08298C48.295 8.54847 48.3601 8.88864 48.4773 9.10349C48.5977 9.31833 48.754 9.42575 48.946 9.42575C49.0144 9.42575 49.0746 9.41924 49.1267 9.40622C49.182 9.3932 49.2325 9.37855 49.2781 9.36227C49.3269 9.34274 49.3725 9.32647 49.4148 9.31345C49.4571 9.30043 49.4994 9.29391 49.5417 9.29391C49.6166 9.29391 49.6817 9.32647 49.7371 9.39157C49.7957 9.45668 49.825 9.5348 49.825 9.62595C49.825 9.71709 49.7891 9.80824 49.7175 9.89938C49.6492 9.99053 49.558 10.0735 49.4441 10.1484C49.3302 10.22 49.2016 10.2786 49.0583 10.3242C48.9151 10.3698 48.7703 10.3925 48.6238 10.3925C48.3699 10.3925 48.1469 10.2884 47.9548 10.08C47.7628 9.86846 47.6261 9.55921 47.5447 9.15231C47.5251 9.08721 47.4991 9.05466 47.4666 9.05466C47.4275 9.05466 47.3933 9.07419 47.364 9.11325C47.0417 9.52015 46.6983 9.82614 46.3337 10.0312C45.9692 10.233 45.6095 10.334 45.2546 10.334C45.0886 10.334 44.9389 10.3095 44.8054 10.2607C44.672 10.2119 44.558 10.1435 44.4636 10.0556C44.3725 9.96449 44.3009 9.85544 44.2488 9.72849C44.2 9.59828 44.1755 9.45342 44.1755 9.29391C44.1755 9.06931 44.2244 8.8333 44.322 8.58591C44.4229 8.33851 44.558 8.09437 44.7273 7.85349C44.8966 7.6126 45.0919 7.38311 45.3132 7.16501C45.5378 6.94691 45.7722 6.75485 46.0164 6.58884C46.2638 6.42282 46.5144 6.29099 46.7683 6.19333C47.0222 6.09567 47.2647 6.04684 47.4958 6.04684ZM47.3347 7.7363C47.3933 7.62562 47.447 7.54587 47.4958 7.49704C47.5447 7.44496 47.6147 7.41078 47.7058 7.3945C47.7774 7.38474 47.8132 7.36195 47.8132 7.32614C47.8132 7.3001 47.8035 7.27243 47.7839 7.24313C47.7221 7.1585 47.657 7.08526 47.5886 7.02341C47.5203 6.9583 47.4291 6.92575 47.3152 6.92575C47.1915 6.92575 47.0531 6.96156 46.9001 7.03317C46.7472 7.10479 46.5909 7.20082 46.4314 7.32126C46.2751 7.43845 46.1205 7.57354 45.9675 7.72653C45.8178 7.87627 45.6843 8.03089 45.5671 8.1904C45.45 8.3499 45.3556 8.50778 45.2839 8.66403C45.2123 8.82028 45.1765 8.96026 45.1765 9.08395C45.1765 9.19463 45.2058 9.28089 45.2644 9.34274C45.3263 9.40459 45.4093 9.43552 45.5134 9.43552C45.7804 9.43552 46.0717 9.29391 46.3875 9.01071C46.7032 8.72751 47.019 8.3027 47.3347 7.7363ZM50.0691 6.37399C50.0691 6.32516 50.0903 6.27796 50.1326 6.23239C50.1749 6.18356 50.2302 6.14125 50.2986 6.10544C50.3669 6.06638 50.4434 6.03545 50.5281 6.01266C50.616 5.98662 50.7039 5.9736 50.7917 5.9736C50.8406 5.9736 50.8813 5.98662 50.9138 6.01266C50.9496 6.03871 50.9806 6.08916 51.0066 6.16403C51.0326 6.23565 51.0554 6.33819 51.075 6.47165C51.0977 6.60186 51.1189 6.77276 51.1384 6.98434C51.1514 7.04945 51.1628 7.0999 51.1726 7.13571C51.1856 7.16826 51.2019 7.18454 51.2214 7.18454C51.2507 7.18454 51.28 7.13408 51.3093 7.03317C51.547 6.34632 51.8904 6.0029 52.3396 6.0029C52.5479 6.0029 52.7367 6.068 52.906 6.19821C53.0785 6.32842 53.238 6.54164 53.3845 6.83786C53.5343 7.13083 53.6759 7.5182 53.8093 7.99997C53.9428 8.47849 54.0763 9.06931 54.2097 9.77243C54.2162 9.80824 54.2211 9.84079 54.2244 9.87009C54.2276 9.89938 54.2292 9.92705 54.2292 9.95309C54.2292 10.028 54.2113 10.0931 54.1755 10.1484C54.143 10.2005 54.099 10.2444 54.0437 10.2802C53.9884 10.3128 53.9265 10.3372 53.8582 10.3535C53.7898 10.373 53.7214 10.3828 53.6531 10.3828C53.5164 10.3828 53.4171 10.3681 53.3552 10.3388C53.2966 10.3095 53.2592 10.2542 53.2429 10.1728C53.1485 9.67803 53.0557 9.23858 52.9646 8.85446C52.8767 8.47035 52.7888 8.14808 52.7009 7.88766C52.6163 7.62399 52.5317 7.4238 52.447 7.28708C52.3624 7.15036 52.2778 7.082 52.1931 7.082C52.1085 7.082 52.0287 7.13571 51.9539 7.24313C51.8822 7.3473 51.8123 7.51169 51.7439 7.7363C51.6755 7.96091 51.6088 8.24574 51.5437 8.59079C51.4819 8.93584 51.4216 9.34763 51.363 9.82614C51.3468 9.95635 51.2817 10.0605 51.1677 10.1386C51.0538 10.2168 50.9089 10.2558 50.7332 10.2558C50.616 10.2558 50.5264 10.2314 50.4646 10.1826C50.4028 10.1338 50.3686 10.067 50.3621 9.98239C50.3328 9.30531 50.3002 8.74867 50.2644 8.31247C50.2319 7.87302 50.2009 7.52145 50.1716 7.25778C50.1423 6.99085 50.1179 6.79229 50.0984 6.66208C50.0789 6.53187 50.0691 6.43584 50.0691 6.37399ZM54.825 6.37399C54.825 6.32516 54.8461 6.27796 54.8884 6.23239C54.9307 6.18356 54.9861 6.14125 55.0544 6.10544C55.1228 6.06638 55.1993 6.03545 55.2839 6.01266C55.3718 5.98662 55.4597 5.9736 55.5476 5.9736C55.5964 5.9736 55.6371 5.98662 55.6697 6.01266C55.7055 6.03871 55.7364 6.08916 55.7625 6.16403C55.7885 6.23565 55.8113 6.33819 55.8308 6.47165C55.8536 6.60186 55.8748 6.77276 55.8943 6.98434C55.9073 7.04945 55.9187 7.0999 55.9285 7.13571C55.9415 7.16826 55.9578 7.18454 55.9773 7.18454C56.0066 7.18454 56.0359 7.13408 56.0652 7.03317C56.3028 6.34632 56.6462 6.0029 57.0955 6.0029C57.3038 6.0029 57.4926 6.068 57.6619 6.19821C57.8344 6.32842 57.9939 6.54164 58.1404 6.83786C58.2901 7.13083 58.4317 7.5182 58.5652 7.99997C58.6986 8.47849 58.8321 9.06931 58.9656 9.77243C58.9721 9.80824 58.977 9.84079 58.9802 9.87009C58.9835 9.89938 58.9851 9.92705 58.9851 9.95309C58.9851 10.028 58.9672 10.0931 58.9314 10.1484C58.8988 10.2005 58.8549 10.2444 58.7996 10.2802C58.7442 10.3128 58.6824 10.3372 58.614 10.3535C58.5457 10.373 58.4773 10.3828 58.4089 10.3828C58.2722 10.3828 58.1729 10.3681 58.1111 10.3388C58.0525 10.3095 58.0151 10.2542 57.9988 10.1728C57.9044 9.67803 57.8116 9.23858 57.7205 8.85446C57.6326 8.47035 57.5447 8.14808 57.4568 7.88766C57.3722 7.62399 57.2875 7.4238 57.2029 7.28708C57.1182 7.15036 57.0336 7.082 56.949 7.082C56.8643 7.082 56.7846 7.13571 56.7097 7.24313C56.6381 7.3473 56.5681 7.51169 56.4998 7.7363C56.4314 7.96091 56.3647 8.24574 56.2996 8.59079C56.2377 8.93584 56.1775 9.34763 56.1189 9.82614C56.1026 9.95635 56.0375 10.0605 55.9236 10.1386C55.8097 10.2168 55.6648 10.2558 55.489 10.2558C55.3718 10.2558 55.2823 10.2314 55.2205 10.1826C55.1586 10.1338 55.1244 10.067 55.1179 9.98239C55.0886 9.30531 55.0561 8.74867 55.0203 8.31247C54.9877 7.87302 54.9568 7.52145 54.9275 7.25778C54.8982 6.99085 54.8738 6.79229 54.8542 6.66208C54.8347 6.53187 54.825 6.43584 54.825 6.37399Z" fill="#1E1E1E"/>
<path d="M19.0323 41.4122L28.7611 41.3457L27.5718 67.3841L19.042 67.004" fill="white"/>
<path d="M18.7983 41.7543C21.5961 42.1059 24.4133 41.6403 28.2347 41.7543M18.7983 41.7543C20.8065 41.6118 23.1266 41.5833 28.2347 41.7543M18.7983 41.7543C18.4181 47.1711 19.1687 56.5506 18.7983 67.4316M18.7983 41.7543C18.2426 54.6215 19.081 60.903 18.7983 67.4316M28.2347 41.7543C28.5856 47.038 27.5718 51.7325 28.2347 67.4316M28.2347 41.7543C28.2152 49.7464 28.0885 58.0426 28.2347 67.4316M28.2347 67.4316C24.7838 67.0515 21.0404 67.1655 18.7983 67.4316M28.2347 67.4316C25.8951 67.27 23.1363 67.2796 18.7983 67.4316" stroke="#1E1E1E" stroke-width="2" stroke-linecap="round"/>
<path d="M28.4014 34.642L38.5494 35.0031L38.413 67.6556L27.7191 66.9049" fill="white"/>
<path d="M28.2357 35.3357C29.7272 35.0886 31.7939 35.3167 37.6721 35.3357M28.2357 35.3357C31.5404 35.5163 34.9621 35.2502 37.6721 35.3357M28.2357 35.3357C27.7191 53.116 28.1382 60.7279 28.2357 67.6366M28.2357 35.3357C28.5379 45.1714 28.226 56.7081 28.2357 67.6366M37.6721 35.3357C38.5689 46.6824 37.6039 56.9362 37.6721 67.6366M37.6721 35.3357C37.1847 44.2591 37.9353 52.7263 37.6721 67.6366M37.6721 67.6366C35.8199 67.9883 33.2951 67.7602 28.2357 67.6366M37.6721 67.6366C34.0847 67.4466 30.4778 67.8552 28.2357 67.6366" stroke="#1E1E1E" stroke-width="2" stroke-linecap="round"/>
<path d="M37.928 29.2347L46.6819 29.5959L47.9687 67.19L36.8459 67.8172" fill="white"/>
<path d="M37.616 29.3298C40.2285 29.5483 43.5235 29.4153 47.0524 29.3298M37.616 29.3298C40.8622 29.4248 44.5763 29.4533 47.0524 29.3298M37.616 29.3298C38.2886 36.7707 36.7971 52.2987 37.616 67.9407M37.616 29.3298C37.4113 37.8635 37.7525 52.5553 37.616 67.9407M47.0524 29.3298C46.8769 41.0946 46.8477 53.8857 47.0524 67.9407M47.0524 29.3298C46.8574 43.1757 47.2376 56.9457 47.0524 67.9407M47.0524 67.9407C43.2213 68.3018 39.6924 68.3779 37.616 67.9407M47.0524 67.9407C44.6348 68.1023 42.1782 67.9977 37.616 67.9407" stroke="#1E1E1E" stroke-width="2" stroke-linecap="round"/>
<path d="M46.9355 35.8175L56.1282 34.297L56.7814 67.9949L47.7057 67.5387" fill="white"/>
<path d="M47.306 35.2093C50.3572 34.8102 53.6521 35.5229 56.7423 35.2093M47.306 35.2093C49.86 35.2663 51.8682 35.1047 56.7423 35.2093M47.306 35.2093C47.8226 54.8806 46.6041 61.8844 47.306 67.9664M47.306 35.2093C47.0038 51.279 47.2865 59.6322 47.306 67.9664M56.7423 35.2093C56.4304 43.9806 57.7172 51.469 56.7423 67.9664M56.7423 35.2093C56.5474 42.5837 57.0738 50.1101 56.7423 67.9664M56.7423 67.9664C54.4417 67.9283 52.1314 67.8428 47.306 67.9664M56.7423 67.9664C54.159 67.9949 51.7317 68.0519 47.306 67.9664" stroke="#1E1E1E" stroke-width="2" stroke-linecap="round"/>
<path d="M57.719 41.8178L66.6094 42.6446L66.6582 68.0653L56.3542 68.7305" fill="white"/>
<path d="M57.0463 42.1029C59.074 41.8654 61.94 41.8939 66.4827 42.1029M57.0463 42.1029C58.879 41.9509 60.8969 42.1124 66.4827 42.1029M57.0463 42.1029C58.1089 49.2207 57.8457 57.4409 57.0463 67.7802M57.0463 42.1029C57.3973 49.1162 56.5199 58.7808 57.0463 67.7802M66.4827 42.1029C65.6346 47.5767 66.2292 54.8275 66.4827 67.7802M66.4827 42.1029C66.6972 48.3274 66.8434 53.9438 66.4827 67.7802M66.4827 67.7802C64.2308 67.6757 60.9944 67.3716 57.0463 67.7802M66.4827 67.7802C63.061 67.9798 59.5224 67.6187 57.0463 67.7802" stroke="#1E1E1E" stroke-width="2" stroke-linecap="round"/>
<path fill-rule="evenodd" clip-rule="evenodd" d="M32.4841 40.6255L36.3152 45.0635L32.4256 47.9144L29.6571 44.8259" fill="white"/>
<path d="M32.8351 40.9391C33.8099 42.032 34.4143 43.1629 35.6816 44.7404M32.8351 40.9391C33.8392 42.2411 34.8335 43.6285 35.6816 44.7404M32.8351 40.9391C31.87 42.4026 30.8757 43.657 29.9106 44.7404M32.8351 40.9391C31.1486 43.0583 30.593 43.9706 29.9106 44.7404M35.6816 44.7404C34.775 45.5957 34.0146 46.4129 32.8351 47.4868M35.6816 44.7404C34.619 45.6622 33.6734 46.622 32.8351 47.4868M32.8351 47.4868C32.065 46.8215 31.3143 45.9188 29.9106 44.7404M32.8351 47.4868C32.1819 46.8691 31.6263 46.2799 29.9106 44.7404" stroke="#1E1E1E" stroke-linecap="round"/>
<path fill-rule="evenodd" clip-rule="evenodd" d="M52.4057 40.5594L54.7161 44.3417L52.162 47.3826L49.179 45.292" fill="white"/>
<path d="M52.0353 41.0441C52.7956 41.9754 53.3416 42.8402 54.8818 44.8453M52.0353 41.0441C52.9906 42.308 53.9557 43.5909 54.8818 44.8453M52.0353 41.0441C51.002 42.194 50.0466 43.5244 49.1108 44.8453M52.0353 41.0441C50.4366 43.2678 49.7152 43.971 49.1108 44.8453M54.8818 44.8453C53.9849 45.8051 52.7567 46.9075 52.0353 47.5917M54.8818 44.8453C54.2579 45.3965 53.6535 45.9477 52.0353 47.5917M52.0353 47.5917C50.7875 46.4133 49.6664 45.33 49.1108 44.8453M52.0353 47.5917C51.1287 46.7459 50.3391 45.9382 49.1108 44.8453" stroke="#1E1E1E" stroke-linecap="round"/>
<path d="M32.6803 44.4286C32.7777 44.4096 32.7972 44.6662 32.8167 44.6567C32.846 44.6377 32.885 44.3526 32.8265 44.3431C32.7777 44.3431 32.495 44.5901 32.5048 44.6282C32.5145 44.6757 32.9142 44.5426 32.8752 44.5806C32.8362 44.6282 32.3293 44.8467 32.2611 44.8847C32.1928 44.9227 32.4755 44.8562 32.456 44.8277C32.4365 44.7992 32.1538 44.7232 32.1343 44.7042C32.1246 44.6852 32.2806 44.6947 32.3878 44.6947C32.495 44.7042 32.807 44.7517 32.7777 44.7327C32.7485 44.7137 32.2416 44.6377 32.2221 44.5996M32.7095 44.8182C32.7582 44.8182 32.7192 44.4951 32.768 44.3621C32.8167 44.2385 33.0019 44.02 33.0019 44.0485C33.0117 44.0675 32.924 44.4191 32.7972 44.5141C32.6608 44.5996 32.2903 44.6472 32.2318 44.5901C32.1636 44.5331 32.4073 44.1625 32.3976 44.1625C32.3976 44.1625 32.1831 44.4666 32.2026 44.5901C32.2123 44.7137 32.3781 44.9798 32.4853 44.9227C32.5925 44.8752 32.7777 44.3241 32.846 44.267C32.924 44.2005 32.9045 44.5331 32.9142 44.5521C32.9142 44.5806 32.9727 44.3716 32.8947 44.4001" fill="white"/>
<path d="M32.4951 44.4666C32.6023 44.4761 32.8655 44.2861 32.8752 44.3241C32.885 44.3716 32.612 44.6757 32.573 44.7327C32.5243 44.7992 32.5535 44.7042 32.612 44.6947C32.6803 44.6852 32.9825 44.6947 32.9337 44.6757C32.8947 44.6567 32.4951 44.5997 32.3586 44.5711C32.2319 44.5426 32.2026 44.4856 32.1539 44.5141C32.0954 44.5331 31.9881 44.7327 32.0564 44.7137C32.1246 44.6947 32.5341 44.3906 32.5828 44.3906C32.6218 44.3906 32.3001 44.6852 32.3293 44.7327C32.3683 44.7707 32.807 44.6947 32.7973 44.6377M32.5535 44.7897C32.6315 44.7802 32.9727 44.3336 32.9532 44.2385C32.9435 44.153 32.5633 44.2005 32.4658 44.248C32.3683 44.3051 32.3878 44.5236 32.3488 44.5521C32.3098 44.5807 32.2319 44.4096 32.2221 44.4096C32.2026 44.4001 32.2903 44.4761 32.2514 44.5331C32.2124 44.5807 31.9492 44.6757 31.9784 44.7042C32.0076 44.7327 32.4268 44.6947 32.4463 44.7042C32.4561 44.7232 32.0076 44.7897 32.0466 44.7802C32.0856 44.7612 32.6023 44.6187 32.6803 44.6282C32.7583 44.6377 32.5243 44.9418 32.5146 44.8467" stroke="#1E1E1E" stroke-linecap="round"/>
<path d="M51.8926 44.4092C51.9024 44.4282 51.9121 44.4852 51.9901 44.4947C52.0681 44.5042 52.3605 44.4662 52.3703 44.4852C52.3703 44.5137 52.1363 44.6373 52.0194 44.6468C51.8926 44.6563 51.6977 44.6182 51.6587 44.5517C51.6294 44.4852 51.7951 44.2666 51.8049 44.2476C51.8244 44.2191 51.8049 44.3997 51.7464 44.4092C51.6879 44.4187 51.4247 44.2951 51.4345 44.3046C51.4539 44.3141 51.6977 44.4092 51.8244 44.4662C51.9609 44.5232 52.2241 44.6277 52.2241 44.6468C52.2143 44.6753 51.8341 44.6182 51.7951 44.6087M52.2631 44.5612C52.3313 44.4472 52.0973 44.0386 52.1558 43.991C52.2046 43.934 52.614 44.2096 52.5945 44.2476C52.575 44.2761 52.1656 44.1526 52.0388 44.1906C51.9024 44.2286 51.8926 44.3807 51.7854 44.4662C51.6782 44.5517 51.4734 44.6277 51.3955 44.6848C51.3272 44.7513 51.3662 44.8938 51.3565 44.8273C51.3467 44.7608 51.2395 44.3902 51.337 44.2761C51.4345 44.1716 51.8244 44.1336 51.9219 44.1811C52.0194 44.2286 51.9219 44.4662 51.9219 44.5707C51.9219 44.6658 51.8926 44.7988 51.9219 44.7893" fill="white"/>
<path d="M51.6879 44.4187C51.7464 44.4377 51.8536 44.3712 51.9609 44.4092C52.0681 44.4472 52.3508 44.6468 52.3508 44.6277C52.3411 44.6087 52.0194 44.3617 51.9316 44.3046C51.8342 44.2381 51.8147 44.2666 51.8049 44.2571C51.7854 44.2381 51.8731 44.2191 51.8342 44.2286C51.8049 44.2286 51.6489 44.3141 51.6197 44.3046C51.5904 44.2856 51.6392 44.1241 51.6879 44.1526C51.7367 44.1716 51.8439 44.4377 51.9024 44.4377C51.9706 44.4377 52.0291 44.1336 52.0779 44.1336C52.1169 44.1431 52.1656 44.4282 52.1558 44.4662M51.7172 43.8865C51.7562 43.9055 51.9901 43.934 52.1266 44.0576C52.2631 44.1906 52.536 44.5232 52.5165 44.6372C52.497 44.7418 52.0779 44.7038 52.0291 44.7038C51.9804 44.7038 52.3216 44.7323 52.2436 44.6468C52.1656 44.5612 51.6392 44.1621 51.5709 44.2001C51.5027 44.2381 51.8244 44.8748 51.8439 44.8558C51.8731 44.8463 51.6489 44.1811 51.7269 44.1241C51.7952 44.0671 52.1656 44.5232 52.2728 44.5137C52.3801 44.5042 52.3703 44.0956 52.3606 44.0671C52.3606 44.0386 52.2533 44.2191 52.2436 44.3331" stroke="#1E1E1E" stroke-linecap="round"/>
<path d="M38.0359 49.1651L47.1506 49.0985L47.287 54.6103L38.1334 53.9926" fill="white"/>
<path d="M37.9774 49.2506C40.3755 49.2791 43.1732 49.4406 47.0336 49.2506M37.9774 49.2506C40.1513 49.2696 42.4129 49.2126 47.0336 49.2506M37.9774 49.2506C37.8896 51.3222 38.0456 52.8142 37.9774 54.1256M37.9774 49.2506C38.0066 51.2842 38.0359 52.6147 37.9774 54.1256M47.0336 49.2506C47.0823 50.524 47.1018 51.6073 47.0336 54.1256M47.0336 49.2506C47.0433 51.0847 47.0531 52.7097 47.0336 54.1256M47.0336 54.1256C44.5478 54.3727 42.5883 54.1066 37.9774 54.1256M47.0336 54.1256C43.7776 54.0496 40.7167 54.2682 37.9774 54.1256" stroke="#1E1E1E" stroke-linecap="round"/>
<path d="M40.543 49.5495C40.4845 50.6804 40.4163 51.8873 40.5723 53.8354ZM40.543 49.5495C40.543 50.4998 40.5333 51.4216 40.5723 53.8354Z" stroke="#1E1E1E" stroke-linecap="round"/>
<path d="M42.6692 49.4862C42.6692 50.8071 42.6497 52.09 42.6985 53.7721ZM42.6692 49.4862C42.6205 50.8736 42.757 52.2421 42.6985 53.7721Z" stroke="#1E1E1E" stroke-linecap="round"/>
<path d="M44.7229 49.4355C44.7424 50.5759 44.5961 51.7542 44.7521 53.7214ZM44.7229 49.4355C44.7521 51.1365 44.6741 52.7806 44.7521 53.7214Z" stroke="#1E1E1E" stroke-linecap="round"/>
<path d="M39.5147 71.1656C40.626 69.5881 41.6983 68.8279 42.176 68.0771C41.2109 69.208 40.0703 70.5004 39.5147 71.1656ZM39.5147 71.1656C39.1735 73.7219 39.4659 76.3353 39.2612 78.9866C39.2027 76.1547 39.5342 73.5509 39.5147 71.1656Z" stroke="#1E1E1E" stroke-linecap="round"/>
<path d="M45.2819 72.4657C44.4728 70.1944 43.6149 69.0446 43.42 68.1608C44.0049 69.5007 44.6483 70.9262 45.2819 72.4657ZM45.2819 72.4657C45.3696 74.5658 45.3891 76.4284 45.3404 79.0988C45.4964 76.609 45.2137 74.3948 45.2819 72.4657Z" stroke="#1E1E1E" stroke-linecap="round"/>
<path d="M39.2574 79.0543C38.0584 79.0638 36.8593 79.1303 36.0795 79.1873ZM39.2574 79.0543C38.1754 79.0923 37.0348 79.1588 36.0795 79.1873Z" stroke="#1E1E1E" stroke-linecap="round"/>
<path d="M45.3336 79.2517C46.6204 79.2802 47.9949 79.3087 48.7748 79.4513ZM45.3336 79.2517C46.0842 79.2327 46.8836 79.3087 48.7748 79.4513Z" stroke="#1E1E1E" stroke-linecap="round"/>
</svg>
