<svg width="82" height="120" viewBox="0 0 82 120" fill="none" xmlns="http://www.w3.org/2000/svg">
<path d="M21.8721 3.03147C39.1392 3.49552 52.9893 5.96729 60.6486 3.03147C71.9649 6.14722 79.8162 11.0529 80.0369 22.1616C81.8414 38.9526 81.2751 62.0886 80.0369 99.3924C76.7448 110.908 72.0417 120.341 60.6486 118.523C50.5802 118.504 44.8885 116.572 21.8721 118.523C10.9686 120.597 5.54562 109.1 2.48381 99.3924C-0.146085 81.5787 -0.981125 60.9901 2.48381 22.1616C5.62241 11.4222 8.59784 1.59198 21.8721 3.03147Z" fill="white"/>
<path d="M21.8721 3.03147C28.5236 1.01428 38.4769 1.81927 60.6487 3.03147M21.8721 3.03147C36.183 2.47272 50.8106 2.17914 60.6487 3.03147M21.8721 3.03147C9.9704 3.92169 3.7124 10.3142 2.48384 22.1616M21.8721 3.03147C8.88581 2.09391 3.98115 11.5169 2.48384 22.1616M60.6487 3.03147C73.539 2.47272 80.0561 9.63232 80.0369 22.1616M60.6487 3.03147C72.3296 0.929052 80.68 10.7119 80.0369 22.1616M80.0369 22.1616C78.5972 45.2219 80.9776 65.8294 80.0369 99.3924M80.0369 22.1616C81.1119 44.7389 80.1521 68.5948 80.0369 99.3924M80.0369 99.3924C80.5169 110.463 72.5216 119.574 60.6487 118.523M80.0369 99.3924C80.8816 110.653 72.0609 120.104 60.6487 118.523M60.6487 118.523C47.9407 117.585 38.6593 118.74 21.8721 118.523M60.6487 118.523C44.7925 118.551 29.8482 118.466 21.8721 118.523M21.8721 118.523C7.69564 118.428 1.51442 112.679 2.48384 99.3924M21.8721 118.523C7.3597 120.644 3.80838 110.35 2.48384 99.3924M2.48384 99.3924C2.73339 68.4433 2.79098 38.4696 2.48384 22.1616M2.48384 99.3924C2.45504 82.0427 1.96554 66.3124 2.48384 22.1616" stroke="#1E1E1E" stroke-width="2" stroke-linecap="round"/>
<path d="M10.9449 85.0689C21.4933 85.0689 63.706 85.0689 74.2544 85.0689" stroke="#1E1E1E" stroke-width="2" stroke-linecap="round"/>
<path d="M23.1463 3.19427C36.9868 3.19427 50.837 3.19427 58.074 3.19427C60.4543 3.19427 61.6541 4.3686 61.6541 6.72672C61.6541 8.58291 61.6541 10.4486 61.6541 13.7821C61.6541 16.1308 60.4543 17.3051 58.074 17.3051C46.8633 17.3051 35.6623 17.3051 23.1463 17.3051C20.7563 17.3051 19.5662 16.1308 19.5662 13.7821C19.5662 12.2953 19.5662 10.8084 19.5662 6.72672C19.5662 4.3686 20.7563 3.19427 23.1463 3.19427Z" fill="white"/>
<path d="M23.1463 3.19427C31.1127 3.19427 39.0792 3.19427 58.074 3.19427M23.1463 3.19427C35.3167 3.19427 47.4872 3.19427 58.074 3.19427M23.1463 3.19427C20.7563 3.19427 19.5662 4.3686 19.5662 6.72672M58.074 3.19427C60.4543 3.19427 61.6541 4.3686 61.6541 6.72672M61.6541 6.72672C61.6541 9.3216 61.6541 11.9165 61.6541 13.7821M61.6541 6.72672C61.6541 9.25531 61.6541 11.7934 61.6541 13.7821M61.6541 13.7821C61.6541 16.1308 60.4543 17.3051 58.074 17.3051M58.074 17.3051C50.9233 17.3051 43.7727 17.3051 23.1463 17.3051M58.074 17.3051C49.7908 17.3051 41.5075 17.3051 23.1463 17.3051M23.1463 17.3051C20.7563 17.3051 19.5662 16.1308 19.5662 13.7821M19.5662 13.7821C19.5662 11.0168 19.5662 8.26092 19.5662 6.72672M19.5662 13.7821C19.5662 11.1115 19.5662 8.45033 19.5662 6.72672" stroke="#1E1E1E" stroke-width="2" stroke-linecap="round"/>
<path d="M22.5551 8.62427C22.4899 8.65031 22.4265 8.66333 22.3646 8.66333C22.2084 8.66333 22.101 8.57056 22.0424 8.38501C22.0261 8.33618 22.0147 8.29549 22.0082 8.26294C22.0049 8.23039 22.0033 8.20109 22.0033 8.17505C22.0033 8.02205 22.0896 7.90812 22.2621 7.83325C22.6039 7.69653 22.9522 7.58586 23.307 7.50122C23.6618 7.41659 24.0199 7.37427 24.3812 7.37427C24.5505 7.37427 24.7165 7.39217 24.8793 7.42798C25.0453 7.46379 25.1934 7.52563 25.3236 7.61353C25.4538 7.70142 25.5596 7.8186 25.641 7.96509C25.7224 8.11157 25.7631 8.29549 25.7631 8.51685C25.7631 8.6731 25.7305 8.82284 25.6654 8.96606C25.6036 9.10929 25.5205 9.24601 25.4164 9.37622C25.3122 9.50643 25.1934 9.63013 25.0599 9.74731C24.9265 9.8645 24.7898 9.97192 24.6498 10.0696C24.5098 10.1672 24.3715 10.2568 24.2347 10.3381C24.098 10.4163 23.9743 10.4846 23.8636 10.5432C23.7692 10.5986 23.722 10.6555 23.722 10.7141C23.722 10.7825 23.7725 10.8362 23.8734 10.8752C24.2217 10.9989 24.5782 11.1145 24.9427 11.2219C25.3073 11.3293 25.6768 11.4498 26.0511 11.5833C26.2269 11.6484 26.3148 11.7493 26.3148 11.886C26.3148 11.9511 26.2953 12.0178 26.2562 12.0862C26.2204 12.1513 26.1797 12.2115 26.1342 12.2668C26.0398 12.4068 25.9226 12.4768 25.7826 12.4768C25.7338 12.4768 25.6735 12.467 25.6019 12.4475C25.3903 12.3661 25.1625 12.2815 24.9183 12.1936C24.6774 12.1057 24.4301 12.0194 24.1761 11.9348C23.9255 11.8469 23.6781 11.7639 23.434 11.6858C23.1898 11.6044 22.9636 11.5312 22.7552 11.4661C22.6804 11.4465 22.6299 11.4368 22.6039 11.4368C22.5778 11.4368 22.5567 11.4433 22.5404 11.4563C22.5274 11.4661 22.5209 11.4889 22.5209 11.5247C22.5209 11.5344 22.5225 11.5474 22.5258 11.5637C22.529 11.5767 22.5306 11.5914 22.5306 11.6077C22.5404 11.6565 22.5518 11.7216 22.5648 11.803C22.5811 11.8811 22.5957 11.9625 22.6088 12.0471C22.625 12.1318 22.6381 12.2131 22.6478 12.2913C22.6576 12.3661 22.6625 12.428 22.6625 12.4768C22.6625 12.6591 22.5632 12.7861 22.3646 12.8577L22.1449 12.926C22.1123 12.9358 22.083 12.9423 22.057 12.9456C22.031 12.9521 22.0033 12.9553 21.974 12.9553C21.795 12.9553 21.6908 12.8446 21.6615 12.6233C21.5834 12.0308 21.4825 11.4465 21.3588 10.8704C21.2383 10.2942 21.1 9.71965 20.9437 9.14673C20.934 9.11418 20.9274 9.08651 20.9242 9.06372C20.9242 9.03768 20.9242 9.01489 20.9242 8.99536C20.9242 8.82284 21.017 8.70565 21.2025 8.6438C21.2709 8.62101 21.3262 8.60311 21.3685 8.59009C21.4141 8.57707 21.4499 8.5673 21.476 8.56079C21.5052 8.55103 21.5264 8.54451 21.5394 8.54126C21.5557 8.538 21.5704 8.53638 21.5834 8.53638C21.7592 8.53638 21.8731 8.63566 21.9252 8.83423C21.9935 9.08813 22.057 9.3339 22.1156 9.57153C22.1774 9.80916 22.2328 10.0435 22.2816 10.2747C22.3077 10.3886 22.3549 10.4456 22.4232 10.4456C22.4427 10.4456 22.4655 10.4423 22.4916 10.4358C22.5176 10.426 22.5485 10.413 22.5844 10.3967C22.6885 10.3414 22.8138 10.273 22.9603 10.1917C23.1101 10.1103 23.2647 10.0208 23.4242 9.9231C23.587 9.82218 23.7465 9.71639 23.9027 9.60571C24.0622 9.49504 24.2038 9.38436 24.3275 9.27368C24.4545 9.163 24.557 9.05396 24.6351 8.94653C24.7133 8.83911 24.7523 8.7382 24.7523 8.6438C24.7523 8.58521 24.7426 8.53149 24.723 8.48267C24.7067 8.43384 24.6742 8.39152 24.6254 8.35571C24.5765 8.31991 24.5098 8.29224 24.4252 8.27271C24.3438 8.25317 24.2396 8.24341 24.1127 8.24341C23.989 8.24341 23.8588 8.2548 23.722 8.27759C23.5886 8.29712 23.4551 8.32479 23.3217 8.3606C23.1882 8.3964 23.0564 8.43709 22.9261 8.48267C22.7959 8.52824 22.6722 8.57544 22.5551 8.62427ZM26.476 10.7043C26.476 10.649 26.4825 10.5872 26.4955 10.5188C26.5085 10.4504 26.515 10.3756 26.515 10.2942C26.515 10.2389 26.4906 10.1965 26.4418 10.1672C26.3962 10.1379 26.3441 10.1054 26.2855 10.0696C26.2269 10.0338 26.1732 9.9882 26.1244 9.93286C26.0788 9.87752 26.056 9.79777 26.056 9.6936C26.056 9.61873 26.0756 9.54386 26.1146 9.46899C26.1569 9.39412 26.2172 9.32576 26.2953 9.26392C26.4873 9.12069 26.6859 8.99211 26.891 8.87817C27.0993 8.76424 27.306 8.66821 27.5111 8.59009C27.7194 8.51196 27.9245 8.45174 28.1263 8.40942C28.3282 8.36711 28.5219 8.34595 28.7074 8.34595C29.0199 8.34595 29.3129 8.40454 29.5863 8.52173C29.863 8.63566 30.1023 8.79354 30.3041 8.99536C30.5092 9.19393 30.6703 9.4283 30.7875 9.69849C30.9079 9.96541 30.9681 10.2519 30.9681 10.5579C30.9681 10.8573 30.9047 11.1422 30.7777 11.4124C30.654 11.6793 30.4864 11.9137 30.2748 12.1155C30.0632 12.3173 29.8142 12.4768 29.5277 12.594C29.2445 12.7144 28.945 12.7747 28.6293 12.7747C28.32 12.7747 28.0336 12.7226 27.7699 12.6184C27.5062 12.5142 27.2784 12.371 27.0863 12.1887C26.8942 12.0032 26.7445 11.7851 26.6371 11.5344C26.5297 11.2805 26.476 11.0038 26.476 10.7043ZM28.7367 11.8958C28.8734 11.8958 29.015 11.8681 29.1615 11.8127C29.308 11.7574 29.4414 11.6777 29.5619 11.5735C29.6856 11.4661 29.7865 11.3359 29.8646 11.1829C29.946 11.0299 29.9867 10.8573 29.9867 10.6653C29.9867 10.47 29.9509 10.2877 29.8793 10.1184C29.8077 9.94914 29.7084 9.80265 29.5814 9.67896C29.4577 9.552 29.3096 9.45272 29.1371 9.3811C28.9678 9.30949 28.7839 9.27368 28.5853 9.27368C28.224 9.27368 27.9473 9.36808 27.7552 9.55688C27.5632 9.74243 27.4672 10.0289 27.4672 10.4163C27.4672 10.6278 27.4981 10.8248 27.5599 11.0071C27.625 11.1861 27.7146 11.3424 27.8285 11.4758C27.9424 11.606 28.0759 11.7086 28.2289 11.7834C28.3851 11.8583 28.5544 11.8958 28.7367 11.8958ZM32.0619 6.68579C32.0619 6.51326 32.1107 6.39282 32.2084 6.32446C32.306 6.25285 32.4672 6.21704 32.6918 6.21704C32.7732 6.21704 32.8415 6.22518 32.8969 6.24146C32.9554 6.25448 33.0043 6.28052 33.0433 6.31958C33.0857 6.35864 33.1182 6.41073 33.141 6.47583C33.167 6.53768 33.1882 6.61743 33.2045 6.71509C33.2435 7.01782 33.2858 7.33032 33.3314 7.65259C33.3802 7.97485 33.4307 8.29875 33.4828 8.62427C33.5023 8.77075 33.5788 8.84399 33.7123 8.84399C33.7481 8.84399 33.8067 8.84074 33.8881 8.83423C33.9727 8.82446 34.072 8.8147 34.1859 8.80493C34.2998 8.79191 34.4219 8.77889 34.5521 8.76587C34.6856 8.75285 34.8174 8.74146 34.9476 8.73169C35.0811 8.71867 35.2064 8.7089 35.3236 8.70239C35.4441 8.69263 35.5498 8.68774 35.641 8.68774C35.7126 8.68774 35.7696 8.70239 35.8119 8.73169C35.8542 8.75773 35.8868 8.79354 35.9095 8.83911C35.9356 8.88143 35.9519 8.93026 35.9584 8.9856C35.9681 9.03768 35.973 9.09139 35.973 9.14673C35.973 9.19556 35.9633 9.24601 35.9437 9.2981C35.9274 9.35018 35.903 9.39738 35.8705 9.4397C35.8412 9.47876 35.8038 9.51131 35.7582 9.53735C35.7126 9.5634 35.6605 9.57642 35.6019 9.57642C35.3187 9.57642 35.0323 9.58618 34.7426 9.60571C34.4561 9.62199 34.1696 9.64478 33.8832 9.67407C33.7367 9.6936 33.6635 9.76685 33.6635 9.8938C33.6635 9.90356 33.6651 9.91659 33.6683 9.93286C33.6716 9.94588 33.6732 9.95728 33.6732 9.96704C33.7123 10.2502 33.7481 10.5155 33.7806 10.7629C33.8164 11.0103 33.8457 11.2317 33.8685 11.427C33.8946 11.6191 33.9141 11.7802 33.9271 11.9104C33.9434 12.0374 33.9515 12.122 33.9515 12.1643C33.9515 12.2815 33.9401 12.3792 33.9174 12.4573C33.8946 12.5387 33.8571 12.6038 33.8051 12.6526C33.753 12.7047 33.683 12.7405 33.5951 12.76C33.5105 12.7828 33.403 12.7942 33.2728 12.7942C33.1491 12.7942 33.058 12.7649 32.9994 12.7063C32.9408 12.6477 32.9082 12.5582 32.9017 12.4377C32.8822 12.0536 32.8513 11.6679 32.809 11.2805C32.7666 10.8899 32.7178 10.5009 32.6625 10.1135C32.6332 9.97355 32.5599 9.90356 32.4427 9.90356C32.433 9.90356 32.4216 9.90519 32.4086 9.90845C32.3955 9.9117 32.3842 9.91333 32.3744 9.91333C32.1726 9.9589 31.9821 10.0045 31.8031 10.05C31.6241 10.0956 31.4564 10.1444 31.3002 10.1965C31.2123 10.2258 31.1342 10.247 31.0658 10.26C30.9974 10.2698 30.9356 10.2747 30.8802 10.2747C30.8054 10.2747 30.75 10.2421 30.7142 10.177C30.6784 10.1086 30.6605 10.024 30.6605 9.9231C30.6605 9.88729 30.6638 9.8466 30.6703 9.80103C30.6768 9.7522 30.6898 9.705 30.7094 9.65942C30.7256 9.6106 30.7517 9.56665 30.7875 9.52759C30.82 9.48527 30.8656 9.45109 30.9242 9.42505C31.0609 9.36971 31.2432 9.31274 31.4711 9.25415C31.6989 9.1923 31.9561 9.13534 32.2426 9.08325C32.3077 9.06698 32.3581 9.04093 32.3939 9.00513C32.433 8.96606 32.4525 8.9091 32.4525 8.83423C32.4525 8.81795 32.4525 8.80168 32.4525 8.7854C32.4525 8.76587 32.4493 8.74634 32.4427 8.72681C32.3907 8.42733 32.3402 8.15552 32.2914 7.91138C32.2458 7.66398 32.2051 7.45239 32.1693 7.27661C32.1368 7.10083 32.1107 6.96248 32.0912 6.86157C32.0717 6.76066 32.0619 6.70207 32.0619 6.68579ZM39.8451 11.2561C39.9395 11.1747 40.0323 11.134 40.1234 11.134C40.1755 11.134 40.2227 11.1471 40.265 11.1731C40.3073 11.1991 40.3545 11.2398 40.4066 11.2952C40.4554 11.37 40.4896 11.4319 40.5092 11.4807C40.5319 11.5263 40.5433 11.5719 40.5433 11.6174C40.5433 11.7151 40.4945 11.8079 40.3969 11.8958C40.2406 12.026 40.0713 12.1431 39.889 12.2473C39.7067 12.3482 39.5163 12.4345 39.3177 12.5061C39.1192 12.5777 38.9141 12.6314 38.7025 12.6672C38.4909 12.7063 38.281 12.7258 38.0726 12.7258C37.809 12.7258 37.5616 12.6917 37.3304 12.6233C37.0993 12.5582 36.8926 12.4638 36.7103 12.3401C36.5313 12.2164 36.3799 12.0683 36.2562 11.8958C36.1325 11.72 36.0446 11.523 35.9926 11.3049C35.9633 11.2138 35.9356 11.1552 35.9095 11.1292C35.8868 11.0999 35.8477 11.0852 35.7924 11.0852C35.6719 11.0852 35.5791 11.0559 35.514 10.9973C35.4489 10.9387 35.4164 10.8541 35.4164 10.7434C35.4164 10.6978 35.4196 10.6685 35.4261 10.6555L35.4359 10.5579C35.4522 10.4407 35.4831 10.356 35.5287 10.304C35.5775 10.2519 35.6524 10.2258 35.7533 10.2258H35.8265C35.9633 10.2258 36.0593 10.1624 36.1146 10.0354C36.2155 9.81079 36.3441 9.60571 36.5004 9.42017C36.6566 9.23462 36.8324 9.07674 37.0277 8.94653C37.223 8.81307 37.4314 8.71053 37.6527 8.63892C37.8773 8.56405 38.1052 8.52661 38.3363 8.52661C38.5772 8.52661 38.8018 8.56242 39.0101 8.63403C39.2217 8.70239 39.4056 8.79842 39.5619 8.92212C39.7181 9.04582 39.8402 9.19067 39.9281 9.35669C40.0192 9.52271 40.0648 9.70174 40.0648 9.8938C40.0648 10.0273 40.0388 10.1493 39.9867 10.26C39.9346 10.3707 39.8597 10.4683 39.7621 10.553C39.6644 10.6344 39.5456 10.7011 39.4056 10.7532C39.2689 10.8053 39.1127 10.8394 38.9369 10.8557L37.2426 11.0266C37.1774 11.0266 37.1237 11.0429 37.0814 11.0754C37.0424 11.108 37.0228 11.1519 37.0228 11.2073C37.0228 11.2919 37.0538 11.3733 37.1156 11.4514C37.1807 11.5295 37.2653 11.5995 37.3695 11.6614C37.4769 11.72 37.599 11.7672 37.7357 11.803C37.8757 11.8388 38.0189 11.8567 38.1654 11.8567C38.3054 11.8567 38.4486 11.8437 38.5951 11.8176C38.7448 11.7883 38.8913 11.7476 39.0345 11.6956C39.181 11.6435 39.3226 11.5816 39.4594 11.51C39.5961 11.4351 39.7247 11.3505 39.8451 11.2561ZM38.7562 9.99634C38.8051 9.98657 38.8474 9.96379 38.8832 9.92798C38.919 9.88892 38.9369 9.84172 38.9369 9.78638C38.9369 9.73755 38.919 9.69198 38.8832 9.64966C38.8474 9.60734 38.7985 9.56991 38.7367 9.53735C38.6748 9.50155 38.6032 9.47388 38.5219 9.45435C38.4405 9.43481 38.3542 9.42505 38.2631 9.42505C38.1296 9.42505 37.9929 9.44458 37.8529 9.48364C37.7129 9.52271 37.586 9.57479 37.472 9.63989C37.3581 9.70174 37.2653 9.77173 37.1937 9.84985C37.1221 9.92472 37.0863 9.99959 37.0863 10.0745C37.0863 10.1493 37.1319 10.1868 37.223 10.1868C37.2784 10.1868 37.3679 10.1803 37.4916 10.1672C37.6153 10.1542 37.752 10.1396 37.9017 10.1233C38.0515 10.1038 38.2028 10.0826 38.3558 10.0598C38.5088 10.037 38.6423 10.0159 38.7562 9.99634ZM43.9222 8.05786C44.1013 8.05786 44.2738 8.08553 44.4398 8.14087C44.6058 8.19621 44.7523 8.27271 44.8793 8.37036C45.0062 8.46802 45.1071 8.58521 45.182 8.72192C45.2601 8.85864 45.2992 9.01001 45.2992 9.17603C45.2992 9.24438 45.2829 9.31112 45.2504 9.37622C45.2211 9.43807 45.1804 9.49341 45.1283 9.54224C45.0762 9.58781 45.016 9.62524 44.9476 9.65454C44.8825 9.68058 44.8142 9.6936 44.7426 9.6936C44.736 9.6936 44.7295 9.69523 44.723 9.69849C44.7198 9.69849 44.7149 9.69849 44.7084 9.69849C44.7019 9.70174 44.6954 9.70337 44.6888 9.70337L44.7084 10.094C44.7214 10.5595 44.7865 10.8997 44.9037 11.1145C45.0241 11.3293 45.1804 11.4368 45.3724 11.4368C45.4408 11.4368 45.501 11.4303 45.5531 11.4172C45.6084 11.4042 45.6589 11.3896 45.7045 11.3733C45.7533 11.3538 45.7989 11.3375 45.8412 11.3245C45.8835 11.3114 45.9258 11.3049 45.9681 11.3049C46.043 11.3049 46.1081 11.3375 46.1635 11.4026C46.222 11.4677 46.2513 11.5458 46.2513 11.637C46.2513 11.7281 46.2155 11.8193 46.1439 11.9104C46.0756 12.0015 45.9844 12.0846 45.8705 12.1594C45.7566 12.231 45.628 12.2896 45.4847 12.3352C45.3415 12.3808 45.1967 12.4036 45.0502 12.4036C44.7963 12.4036 44.5733 12.2994 44.3812 12.0911C44.1892 11.8795 44.0524 11.5702 43.9711 11.1633C43.9515 11.0982 43.9255 11.0657 43.8929 11.0657C43.8539 11.0657 43.8197 11.0852 43.7904 11.1243C43.4681 11.5312 43.1247 11.8372 42.7601 12.0422C42.3955 12.2441 42.0358 12.345 41.681 12.345C41.515 12.345 41.3653 12.3206 41.2318 12.2717C41.0983 12.2229 40.9844 12.1545 40.89 12.0667C40.7989 11.9755 40.7273 11.8665 40.6752 11.7395C40.6263 11.6093 40.6019 11.4644 40.6019 11.3049C40.6019 11.0803 40.6508 10.8443 40.7484 10.5969C40.8493 10.3495 40.9844 10.1054 41.1537 9.8645C41.323 9.62362 41.5183 9.39412 41.7396 9.17603C41.9642 8.95793 42.1986 8.76587 42.4427 8.59985C42.6901 8.43384 42.9408 8.302 43.1947 8.20435C43.4486 8.10669 43.6911 8.05786 43.9222 8.05786ZM43.7611 9.74731C43.8197 9.63664 43.8734 9.55688 43.9222 9.50806C43.9711 9.45597 44.0411 9.42179 44.1322 9.40552C44.2038 9.39575 44.2396 9.37297 44.2396 9.33716C44.2396 9.31112 44.2299 9.28345 44.2103 9.25415C44.1485 9.16951 44.0834 9.09627 44.015 9.03442C43.9467 8.96932 43.8555 8.93677 43.7416 8.93677C43.6179 8.93677 43.4795 8.97257 43.3265 9.04419C43.1735 9.1158 43.0173 9.21183 42.8578 9.33228C42.7015 9.44946 42.5469 9.58455 42.3939 9.73755C42.2442 9.88729 42.1107 10.0419 41.9935 10.2014C41.8763 10.3609 41.7819 10.5188 41.7103 10.675C41.6387 10.8313 41.6029 10.9713 41.6029 11.095C41.6029 11.2056 41.6322 11.2919 41.6908 11.3538C41.7526 11.4156 41.8357 11.4465 41.9398 11.4465C42.2067 11.4465 42.4981 11.3049 42.8138 11.0217C43.1296 10.7385 43.4454 10.3137 43.7611 9.74731ZM49.6791 8.7561C49.6921 8.76261 49.7116 8.76587 49.7377 8.76587C49.8093 8.76587 49.8451 8.71867 49.8451 8.62427V7.10571C49.8451 6.91366 49.8874 6.77694 49.972 6.69556C50.0599 6.61418 50.2048 6.57349 50.4066 6.57349C50.6117 6.57349 50.7566 6.6158 50.8412 6.70044C50.9258 6.78507 50.9681 6.92993 50.9681 7.13501C50.9681 7.21313 50.9633 7.32869 50.9535 7.48169C50.9437 7.63143 50.9323 7.80233 50.9193 7.99438C50.9095 8.18644 50.8998 8.39315 50.89 8.6145C50.8802 8.8326 50.8754 9.04907 50.8754 9.26392C50.8754 9.59595 50.8982 9.88241 50.9437 10.1233C50.9893 10.3642 51.0544 10.5644 51.139 10.7239C51.2237 10.8801 51.3246 10.9973 51.4418 11.0754C51.559 11.1503 51.6908 11.1877 51.8373 11.1877C51.9187 11.1877 51.9919 11.178 52.057 11.1584C52.1254 11.1357 52.2051 11.1243 52.2963 11.1243C52.3614 11.1243 52.4151 11.1584 52.4574 11.2268C52.503 11.2919 52.5258 11.3717 52.5258 11.4661C52.5258 11.5507 52.4997 11.6305 52.4476 11.7053C52.3988 11.7802 52.3304 11.8453 52.2426 11.9006C52.1579 11.956 52.0586 11.9999 51.9447 12.0325C51.8308 12.0618 51.712 12.0764 51.5883 12.0764C51.3213 12.0764 51.0772 11.995 50.8558 11.8323C50.6345 11.6663 50.4685 11.414 50.3578 11.0754C50.348 11.0234 50.3317 10.9973 50.309 10.9973C50.2829 10.9973 50.2618 11.0234 50.2455 11.0754C50.1576 11.3131 50.042 11.5279 49.8988 11.72C49.7588 11.9088 49.5944 12.0715 49.4056 12.2083C49.2201 12.3417 49.015 12.4443 48.7904 12.5159C48.5691 12.5875 48.3347 12.6233 48.0873 12.6233C47.8269 12.6233 47.5876 12.5793 47.3695 12.4915C47.1547 12.4068 46.9691 12.288 46.8129 12.135C46.6566 11.9788 46.5345 11.7965 46.4467 11.5881C46.3588 11.3765 46.3148 11.1487 46.3148 10.9045C46.3148 10.592 46.3799 10.2974 46.5101 10.0208C46.6403 9.74406 46.8161 9.50317 47.0375 9.2981C47.2621 9.08976 47.5225 8.92537 47.8187 8.80493C48.1149 8.68449 48.4307 8.62427 48.766 8.62427C48.9027 8.62427 49.0476 8.63566 49.2006 8.65845C49.3536 8.67798 49.5131 8.71053 49.6791 8.7561ZM48.2777 11.7444C48.4633 11.7444 48.6276 11.7037 48.7709 11.6223C48.9174 11.5409 49.0459 11.4384 49.1566 11.3147C49.2705 11.1877 49.3666 11.0494 49.4447 10.8997C49.5228 10.7467 49.5863 10.5986 49.6351 10.4553C49.684 10.3121 49.7198 10.1835 49.7426 10.0696C49.7653 9.95565 49.7767 9.87427 49.7767 9.82544C49.7767 9.78963 49.767 9.75871 49.7474 9.73267C49.7279 9.70337 49.6986 9.68058 49.6595 9.66431C49.5717 9.64152 49.4805 9.62199 49.3861 9.60571C49.2917 9.58618 49.1989 9.56991 49.1078 9.55688C49.0166 9.54386 48.9288 9.5341 48.8441 9.52759C48.7627 9.52108 48.6879 9.51782 48.6195 9.51782C48.4242 9.51782 48.2468 9.54712 48.0873 9.60571C47.9278 9.66431 47.7911 9.74731 47.6771 9.85474C47.5664 9.96216 47.4802 10.0907 47.4183 10.2405C47.3565 10.387 47.3256 10.5481 47.3256 10.7239C47.3256 10.8801 47.3483 11.0217 47.3939 11.1487C47.4427 11.2724 47.5079 11.3782 47.5892 11.4661C47.6739 11.554 47.7748 11.6223 47.892 11.6711C48.0092 11.72 48.1377 11.7444 48.2777 11.7444ZM52.3353 10.7043C52.3353 10.649 52.3418 10.5872 52.3549 10.5188C52.3679 10.4504 52.3744 10.3756 52.3744 10.2942C52.3744 10.2389 52.35 10.1965 52.3011 10.1672C52.2556 10.1379 52.2035 10.1054 52.1449 10.0696C52.0863 10.0338 52.0326 9.9882 51.9838 9.93286C51.9382 9.87752 51.9154 9.79777 51.9154 9.6936C51.9154 9.61873 51.9349 9.54386 51.974 9.46899C52.0163 9.39412 52.0765 9.32576 52.1547 9.26392C52.3467 9.12069 52.5453 8.99211 52.7504 8.87817C52.9587 8.76424 53.1654 8.66821 53.3705 8.59009C53.5788 8.51196 53.7839 8.45174 53.9857 8.40942C54.1875 8.36711 54.3812 8.34595 54.5668 8.34595C54.8793 8.34595 55.1722 8.40454 55.4457 8.52173C55.7224 8.63566 55.9616 8.79354 56.1635 8.99536C56.3685 9.19393 56.5297 9.4283 56.6469 9.69849C56.7673 9.96541 56.8275 10.2519 56.8275 10.5579C56.8275 10.8573 56.764 11.1422 56.6371 11.4124C56.5134 11.6793 56.3457 11.9137 56.1342 12.1155C55.9226 12.3173 55.6735 12.4768 55.3871 12.594C55.1039 12.7144 54.8044 12.7747 54.4886 12.7747C54.1794 12.7747 53.8929 12.7226 53.6293 12.6184C53.3656 12.5142 53.1377 12.371 52.9457 12.1887C52.7536 12.0032 52.6039 11.7851 52.4965 11.5344C52.389 11.2805 52.3353 11.0038 52.3353 10.7043ZM54.5961 11.8958C54.7328 11.8958 54.8744 11.8681 55.0209 11.8127C55.1674 11.7574 55.3008 11.6777 55.4213 11.5735C55.545 11.4661 55.6459 11.3359 55.724 11.1829C55.8054 11.0299 55.8461 10.8573 55.8461 10.6653C55.8461 10.47 55.8103 10.2877 55.7386 10.1184C55.667 9.94914 55.5677 9.80265 55.4408 9.67896C55.3171 9.552 55.169 9.45272 54.9965 9.3811C54.8272 9.30949 54.6433 9.27368 54.4447 9.27368C54.0834 9.27368 53.8067 9.36808 53.6146 9.55688C53.4226 9.74243 53.3265 10.0289 53.3265 10.4163C53.3265 10.6278 53.3575 10.8248 53.4193 11.0071C53.4844 11.1861 53.5739 11.3424 53.6879 11.4758C53.8018 11.606 53.9353 11.7086 54.0883 11.7834C54.2445 11.8583 54.4138 11.8958 54.5961 11.8958ZM60.1136 8.6731C59.9932 8.6731 59.8874 8.70565 59.7963 8.77075C59.7051 8.8326 59.627 8.92049 59.5619 9.03442C59.4968 9.1451 59.4431 9.27694 59.4008 9.42993C59.3584 9.57967 59.3243 9.74406 59.2982 9.9231C59.2722 10.1021 59.2543 10.2893 59.2445 10.4846C59.2347 10.6799 59.2299 10.8769 59.2299 11.0754C59.2299 11.3359 59.2396 11.593 59.2592 11.8469C59.2819 12.0976 59.2933 12.3303 59.2933 12.5452C59.2933 12.6851 59.2413 12.7942 59.1371 12.8723C59.0329 12.9537 58.8848 12.9944 58.6927 12.9944C58.6569 12.9944 58.6163 12.9911 58.5707 12.9846C58.5251 12.9781 58.4812 12.9651 58.4388 12.9456C58.3998 12.926 58.364 12.8984 58.3314 12.8625C58.3021 12.83 58.2858 12.7844 58.2826 12.7258C58.2533 12.4394 58.211 12.1464 58.1556 11.8469C58.1003 11.5474 58.0303 11.2496 57.9457 10.9534C57.8643 10.6539 57.765 10.3577 57.6478 10.0647C57.5339 9.77173 57.4021 9.48527 57.2523 9.20532C57.2263 9.15649 57.2035 9.11092 57.184 9.0686C57.1677 9.02629 57.1595 8.9856 57.1595 8.94653C57.1595 8.89771 57.1807 8.84562 57.223 8.79028C57.2686 8.73169 57.3239 8.67798 57.389 8.62915C57.4574 8.58032 57.5306 8.54126 57.6088 8.51196C57.6901 8.47941 57.7683 8.46313 57.8431 8.46313C57.9668 8.46313 58.0759 8.5494 58.1703 8.72192C58.2647 8.89119 58.3526 9.163 58.434 9.53735C58.4502 9.60246 58.4633 9.64803 58.473 9.67407C58.4828 9.70011 58.4958 9.71313 58.5121 9.71313C58.5479 9.71313 58.5707 9.6578 58.5804 9.54712C58.6195 9.23787 58.6862 8.97257 58.7806 8.75122C58.875 8.52661 58.9922 8.34269 59.1322 8.19946C59.2754 8.05298 59.4382 7.94556 59.6205 7.8772C59.806 7.80884 60.0095 7.77466 60.2308 7.77466C60.3578 7.77466 60.4864 7.78605 60.6166 7.80884C60.7468 7.83162 60.864 7.8658 60.9681 7.91138C61.0723 7.95695 61.1569 8.01229 61.222 8.07739C61.2872 8.1425 61.3197 8.21574 61.3197 8.29712C61.3197 8.35571 61.3067 8.4257 61.2806 8.50708C61.2579 8.58521 61.2269 8.6617 61.1879 8.73657C61.1488 8.80819 61.1032 8.87004 61.0511 8.92212C61.0023 8.97095 60.9519 8.99536 60.8998 8.99536C60.8412 8.99536 60.7842 8.97909 60.7289 8.94653C60.6735 8.91073 60.6133 8.87329 60.5482 8.83423C60.4864 8.79517 60.4196 8.75936 60.348 8.72681C60.2797 8.691 60.2015 8.6731 60.1136 8.6731Z" fill="#1E1E1E"/>
<path d="M23.3143 62.1128C34.3138 63.2493 45.2653 63.9596 59.461 62.1128C62.7531 63.5997 63.8857 62.3023 62.4556 65.0676C62.4268 67.0469 62.6475 67.492 62.4556 70.9771C63.8185 72.7481 63.8761 74.5474 59.461 73.9319C45.3805 71.8578 35.552 73.6383 23.3143 73.9319C22.5081 75.1725 22.5848 73.4489 20.3197 70.9771C20.7612 68.9978 20.4541 67.7382 20.3197 65.0676C18.9087 61.6488 23.0743 61.9045 23.3143 62.1128Z" fill="white"/>
<path d="M23.3144 62.1128C36.1375 61.6772 48.4231 62.4916 59.461 62.1128M23.3144 62.1128C32.7397 61.753 41.6948 61.7908 59.461 62.1128M23.3144 62.1128C20.6653 62.5674 21.0876 63.4576 20.3197 65.0676M23.3144 62.1128C21.4811 61.2037 21.126 63.6754 20.3197 65.0676M59.461 62.1128C61.7934 62.3212 62.4556 63.2493 62.4556 65.0676M59.461 62.1128C62.0141 62.0939 63.0891 63.5239 62.4556 65.0676M62.4556 65.0676C62.2061 66.9522 62.2637 68.0034 62.4556 70.9771M62.4556 65.0676C62.3693 67.5204 62.5132 69.6702 62.4556 70.9771M62.4556 70.9771C61.5822 72.9375 61.4574 74.6989 59.461 73.9318M62.4556 70.9771C62.8108 72.7859 60.9391 74.4717 59.461 73.9318M59.461 73.9318C47.7417 74.2633 37.3373 74.6989 23.3144 73.9318M59.461 73.9318C50.0836 74.4811 39.8808 74.0644 23.3144 73.9318M23.3144 73.9318C22.2777 74.3959 19.3791 72.2177 20.3197 70.9771M23.3144 73.9318C21.4331 73.1174 20.1374 72.1325 20.3197 70.9771M20.3197 70.9771C20.4157 68.7421 20.2717 66.4124 20.3197 65.0676M20.3197 70.9771C20.2141 69.4239 20.4253 67.8424 20.3197 65.0676" stroke="#1E1E1E" stroke-linecap="round"/>
<path d="M35.7266 66.1248C36.4752 65.7081 39.2971 64.0034 41.0535 63.8329C42.81 63.6719 45.3343 64.8463 46.2653 65.1304M36.4848 65.8028C37.3678 65.4618 40.2569 63.1132 42.0613 63.0564C43.8658 62.9996 46.5245 64.9789 47.3019 65.4713" stroke="#1E1E1E" stroke-linecap="round"/>
<path d="M35.676 65.807C36.5495 66.0817 39.0738 67.4075 40.8782 67.417C42.6923 67.417 45.6005 66.148 46.5411 65.8354M36.4535 65.504C37.5189 65.7975 40.2256 67.7106 41.838 67.8526C43.4601 68.0041 45.3702 66.7256 46.1668 66.3942" stroke="#1E1E1E" stroke-linecap="round"/>
<path d="M41.1521 64.5925C41.1905 64.8009 41.3728 66.0794 41.4208 66.3351M41.632 65.1702C41.632 65.4259 41.2001 66.5529 41.1233 66.7612" stroke="#1E1E1E" stroke-linecap="round"/>
<path d="M29.8535 68.9093C35.4012 70.6803 41.928 68.6631 52.9563 68.9093C55.519 70.7182 55.6629 68.9472 54.2232 70.1594C54.4248 70.8886 54.0409 71.0212 54.2232 72.6596C54.6935 71.3148 56.0757 73.0289 52.9563 73.9097C45.0282 75.5386 44.1931 72.2145 29.8535 73.9097C30.343 76.3341 31.0533 73.1899 28.5865 72.6596C28.3946 71.6841 28.2986 70.9076 28.5865 70.1594C27.1756 69.9795 27.4636 71.0496 29.8535 68.9093Z" fill="white"/>
<path d="M29.8535 68.9093C38.3575 69.6669 46.8999 69.6954 52.9563 68.9093M29.8535 68.9093C35.3533 68.5494 42.0528 69.2881 52.9563 68.9093M29.8535 68.9093C28.4138 68.862 28.2602 68.9377 28.5866 70.1594M29.8535 68.9093C28.5098 68.2085 28.5482 69.023 28.5866 70.1594M52.9563 68.9093C54.6264 69.0135 54.4248 70.2162 54.2233 70.1594M52.9563 68.9093C53.6762 68.3506 53.7433 69.3071 54.2233 70.1594M54.2233 70.1594C54.1177 71.1917 54.348 72.2334 54.2233 72.6596M54.2233 70.1594C54.2233 70.7845 54.2041 71.4 54.2233 72.6596M54.2233 72.6596C53.9161 73.8718 53.2059 74.0233 52.9563 73.9097M54.2233 72.6596C54.2904 73.2562 53.3498 74.9988 52.9563 73.9097M52.9563 73.9097C47.0726 74.8472 39.4517 73.9002 29.8535 73.9097M52.9563 73.9097C47.5429 73.5024 42.4271 73.6919 29.8535 73.9097M29.8535 73.9097C29.8055 74.4968 28.5962 73.3036 28.5866 72.6596M29.8535 73.9097C29.0761 72.9437 28.2314 74.4874 28.5866 72.6596M28.5866 72.6596C28.5866 72.044 28.577 71.4 28.5866 70.1594M28.5866 72.6596C28.529 71.8546 28.6346 71.1254 28.5866 70.1594" stroke="#1E1E1E" stroke-linecap="round"/>
<path d="M31.8332 69.0519C31.9004 69.8475 31.7852 72.9158 31.766 73.7492M31.5165 68.7015C31.5741 69.5823 31.5549 73.3799 31.5549 74.1943" stroke="#1E1E1E" stroke-linecap="round"/>
<path d="M33.9438 68.8272C33.9534 69.5659 34.1838 72.8805 34.2222 73.676M34.4142 69.3954C34.3854 70.172 34.0302 73.3351 33.9534 74.0833" stroke="#1E1E1E" stroke-linecap="round"/>
<path d="M36.1516 69.3148C36.1228 70.0819 36.0844 72.8851 36.0748 73.6617M36.6987 69.1348C36.7755 69.9682 36.7083 73.3586 36.7179 74.0878" stroke="#1E1E1E" stroke-linecap="round"/>
<path d="M39.8931 69.5711C39.8739 70.4044 39.5668 73.3876 39.4612 74.0979M39.6532 69.3911C39.5764 70.1582 39.0965 72.8099 39.1445 73.6149" stroke="#1E1E1E" stroke-linecap="round"/>
<path d="M42.4018 69.254C42.3539 70.0874 42.3539 73.1084 42.3923 73.8566M41.9699 69.0078C41.8644 69.7654 42.0083 72.4739 42.0947 73.3357" stroke="#1E1E1E" stroke-linecap="round"/>
<path d="M45.6579 69.256C45.6003 69.8811 45.4851 72.779 45.4275 73.4893M45.2739 69.8243C45.3219 70.3262 45.9842 72.2487 46.0898 72.9305" stroke="#1E1E1E" stroke-linecap="round"/>
<path d="M49.0964 69.5484C49.0868 70.2302 49.106 72.7115 49.0388 73.3081M48.7317 69.2737C48.6837 70.0408 48.6933 73.0335 48.7893 73.7153" stroke="#1E1E1E" stroke-linecap="round"/>
<path d="M51.5533 69.1882C51.5917 69.9269 51.9949 72.7964 51.9757 73.5257M52.0524 69.8038C52.0716 70.4951 51.8125 72.5502 51.8317 73.09" stroke="#1E1E1E" stroke-linecap="round"/>
<path d="M28.2075 35.0614C28.4378 35.2413 28.9561 34.9762 29.7336 35.0614C31.1157 34.7299 29.5032 37.6563 30.4919 35.819C29.5896 42.4862 29.9352 54.7313 30.4919 61.1617C32.0468 61.3511 29.772 59.5328 29.7336 61.9099C29.0233 61.7205 28.3995 62.014 28.2075 61.9099C26.2783 60.8492 27.7276 59.6843 27.4396 61.1617C28.0827 55.4605 29.2825 45.8576 27.4396 35.819C28.8698 37.5047 26.739 33.9912 28.2075 35.0614Z" fill="white"/>
<path d="M28.2075 35.0614C28.4955 35.0046 28.8506 34.9951 29.7336 35.0614M28.2075 35.0614C28.7834 35.0803 29.3497 35.0614 29.7336 35.0614M28.2075 35.0614C27.9004 34.3606 27.2765 34.9477 27.4397 35.819M28.2075 35.0614C27.4397 34.9856 27.4973 36.0936 27.4397 35.819M29.7336 35.0614C30.9046 34.3416 30.5207 35.0708 30.4919 35.819M29.7336 35.0614C31.2118 34.2469 31.1542 35.8379 30.4919 35.819M30.4919 35.819C31.2693 44.295 30.3383 51.8807 30.4919 61.1617M30.4919 35.819C30.847 43.1869 30.5783 49.9583 30.4919 61.1617M30.4919 61.1617C30.7223 62.2981 29.4649 61.7299 29.7336 61.9098M30.4919 61.1617C30.6071 60.8681 29.4745 62.1655 29.7336 61.9098M29.7336 61.9098C29.1865 61.9477 28.5819 61.9193 28.2075 61.9098M29.7336 61.9098C29.1482 61.872 28.5435 61.9288 28.2075 61.9098M28.2075 61.9098C28.5531 62.0046 27.0654 61.872 27.4397 61.1617M28.2075 61.9098C28.3035 61.9098 27.8908 61.2848 27.4397 61.1617M27.4397 61.1617C27.4205 55.3279 27.9004 47.6854 27.4397 35.819M27.4397 61.1617C27.6316 54.5135 27.2861 47.5812 27.4397 35.819" stroke="#1E1E1E" stroke-linecap="round"/>
<path d="M54.3504 35.492C54.7343 35.3594 54.8399 35.3405 55.7421 35.492C54.1488 36.4959 58.8136 37.746 56.4428 36.1834C57.0955 45.8431 56.2892 56.0332 56.4428 61.6586C58.4104 61.223 55.6366 60.8252 55.7421 62.3405C55.4062 62.4636 54.9455 62.2458 54.3504 62.3405C55.3678 61.3366 53.189 61.5071 53.6497 61.6586C53.7649 55.0957 52.3348 48.9494 53.6497 36.1834C54.2928 36.6001 56.2029 34.1851 54.3504 35.492Z" fill="white"/>
<path d="M54.3504 35.492C54.8591 35.5205 55.3294 35.5489 55.7421 35.492M54.3504 35.492C54.7631 35.4542 55.2142 35.5205 55.7421 35.492M54.3504 35.492C53.9952 36.297 53.3329 35.331 53.6497 36.1834M54.3504 35.492C53.3042 35.1132 52.6899 34.706 53.6497 36.1834M55.7421 35.492C55.9436 34.9712 57.3642 35.8235 56.4428 36.1834M55.7421 35.492C55.3966 36.2023 57.4698 36.458 56.4428 36.1834M56.4428 36.1834C56.6155 41.7993 57.0858 46.1841 56.4428 61.6587M56.4428 36.1834C56.3564 42.8221 55.9628 50.2753 56.4428 61.6587M56.4428 61.6587C57.0474 61.6113 56.1548 63.155 55.7421 62.3405M56.4428 61.6587C57.441 61.2988 56.1452 61.8765 55.7421 62.3405M55.7421 62.3405C55.243 62.3784 54.8111 62.3026 54.3504 62.3405M55.7421 62.3405C55.3198 62.3784 54.8495 62.3311 54.3504 62.3405M54.3504 62.3405C53.5633 61.6208 54.3695 61.6113 53.6497 61.6587M54.3504 62.3405C54.1872 61.7628 53.8129 62.1511 53.6497 61.6587M53.6497 61.6587C53.6209 55.484 53.0546 49.6218 53.6497 36.1834M53.6497 61.6587C53.2274 51.9042 53.5153 41.8656 53.6497 36.1834" stroke="#1E1E1E" stroke-linecap="round"/>
<path d="M25.603 33.189C26.1405 32.9712 28.1369 31.5033 29.3367 31.598C30.5461 31.6927 32.1874 33.3689 32.8208 33.7477M26.0541 32.9712C26.534 32.6681 28.0026 31.0866 29.0968 31.1244C30.1813 31.1623 32.0626 32.8196 32.6001 33.1795" stroke="#1E1E1E" stroke-linecap="round"/>
<path d="M23.5321 31.3367C24.5111 30.6737 27.6305 27.7853 29.6269 27.8137C31.6234 27.8421 34.5508 30.8537 35.4914 31.5071M24.2328 30.7874C25.1446 30.1529 27.2466 28.0599 29.099 28.2683C30.9611 28.4766 34.3108 31.3651 35.3762 32.0375" stroke="#1E1E1E" stroke-linecap="round"/>
<path d="M21.6284 28.8805C23.001 28.1702 27.2817 23.8802 30.0556 24.098C32.8391 24.3253 36.9279 29.2688 38.2908 30.2158M22.4539 28.5017C23.74 27.9145 26.9458 24.6188 29.5181 24.7798C32.0904 24.9408 36.4192 28.549 37.8685 29.4677" stroke="#1E1E1E" stroke-linecap="round"/>
<path d="M52.8003 33.722C53.3666 33.5421 55.0751 32.3962 56.1693 32.4625C57.2731 32.5287 58.8568 33.8262 59.3847 34.1387M52.5508 33.3811C53.0787 33.1349 54.9599 31.8564 56.0637 32.0268C57.1675 32.1878 58.6264 33.9493 59.1735 34.3849" stroke="#1E1E1E" stroke-linecap="round"/>
<path d="M51.0941 32.7599C51.9771 32.1822 54.6646 28.7255 56.4019 28.6497C58.1391 28.574 60.6634 31.6613 61.5081 32.3053M50.7006 32.5515C51.478 32.0401 54.2615 29.0759 55.9891 29.1233C57.7264 29.1706 60.1931 32.1822 61.1146 32.8356" stroke="#1E1E1E" stroke-linecap="round"/>
<path d="M48.442 29.1863C49.7473 28.3151 54.0089 24.5553 56.7444 24.7921C59.4798 25.0288 63.3959 29.7261 64.8548 30.6069M47.8085 30.1239C48.989 29.5557 53.5002 25.2277 56.274 25.4171C59.0479 25.5971 63.1175 30.4175 64.4517 31.2319" stroke="#1E1E1E" stroke-linecap="round"/>
</svg>
