<svg width="84" height="120" viewBox="0 0 84 120" fill="none" xmlns="http://www.w3.org/2000/svg">
<path d="M22.4677 2.20629C32.1371 4.84512 37.3096 -0.764757 61.4543 2.20629C71.4133 4.75969 80.4845 7.96805 80.9477 21.3805C77.85 36.2832 77.9947 51.5087 80.9477 98.7892C79.4422 114.546 71.0562 118.21 61.4543 117.963C47.3361 117.346 29.2228 118.789 22.4677 117.963C10.5883 119.254 5.27108 113.293 2.97434 98.7892C1.30486 70.2082 1.20836 40.4123 2.97434 21.3805C5.28073 7.5409 6.4098 3.45926 22.4677 2.20629Z" fill="white"/>
<path d="M22.4677 2.20628C35.6498 1.78863 45.9465 3.05108 61.4543 2.20628M22.4677 2.20628C31.9827 1.7032 39.5774 2.22527 61.4543 2.20628M22.4677 2.20628C8.18543 3.91487 2.40498 9.12608 2.97434 21.3805M22.4677 2.20628C9.58471 2.53851 2.60764 7.18968 2.97434 21.3805M61.4543 2.20628C74.5882 0.877376 80.8994 7.5219 80.9477 21.3805M61.4543 2.20628C73.3819 1.32351 80.2818 6.92389 80.9477 21.3805M80.9477 21.3805C82.8294 35.5333 82.8584 54.5746 80.9477 98.7892M80.9477 21.3805C80.2914 37.7735 80.5906 52.0972 80.9477 98.7892M80.9477 98.7892C81.9416 113.331 74.3469 119.245 61.4543 117.963M80.9477 98.7892C81.1117 111.765 75.891 117.574 61.4543 117.963M61.4543 117.963C48.1371 116.653 34.8585 117.128 22.4677 117.963M61.4543 117.963C45.7825 118.372 30.9309 117.65 22.4677 117.963M22.4677 117.963C7.93453 117.232 2.07688 112.448 2.97434 98.7892M22.4677 117.963C9.36275 119.995 3.3121 113.094 2.97434 98.7892M2.97434 98.7892C1.16011 72.7901 0.532853 45.633 2.97434 21.3805M2.97434 98.7892C3.16735 73.9197 2.13478 48.3857 2.97434 21.3805" stroke="#1E1E1E" stroke-width="2" stroke-linecap="round"/>
<path d="M23.5049 2.04135C36.8993 2.04135 50.3034 2.04135 58.6218 2.04135C61.0151 2.04135 62.2214 3.21838 62.2214 5.58193C62.2214 8.26822 62.2214 10.9545 62.2214 12.6536C62.2214 15.0077 61.0151 16.1847 58.6218 16.1847C47.6689 16.1847 36.716 16.1847 23.5049 16.1847C21.102 16.1847 19.9054 15.0077 19.9054 12.6536C19.9054 9.9863 19.9054 7.319 19.9054 5.58193C19.9054 3.21838 21.102 2.04135 23.5049 2.04135Z" fill="white"/>
<path d="M23.5049 2.04135C37.1116 2.04135 50.7184 2.04135 58.6218 2.04135M23.5049 2.04135C32.0356 2.04135 40.576 2.04135 58.6218 2.04135M23.5049 2.04135C21.102 2.04135 19.9054 3.21838 19.9054 5.58193M58.6218 2.04135C61.0151 2.04135 62.2214 3.21838 62.2214 5.58193M62.2214 5.58193C62.2214 7.90752 62.2214 10.2426 62.2214 12.6536M62.2214 5.58193C62.2214 7.39494 62.2214 9.20794 62.2214 12.6536M62.2214 12.6536C62.2214 15.0077 61.0151 16.1847 58.6218 16.1847M58.6218 16.1847C46.8679 16.1847 35.1044 16.1847 23.5049 16.1847M58.6218 16.1847C47.8137 16.1847 37.0055 16.1847 23.5049 16.1847M23.5049 16.1847C21.102 16.1847 19.9054 15.0077 19.9054 12.6536M19.9054 12.6536C19.9054 10.0053 19.9054 7.35697 19.9054 5.58193M19.9054 12.6536C19.9054 10.5653 19.9054 8.47705 19.9054 5.58193" stroke="#1E1E1E" stroke-width="2" stroke-linecap="round"/>
<path d="M34.8444 6.2962C34.736 6.2962 34.6408 6.3255 34.5588 6.38409C34.4767 6.43976 34.4064 6.51886 34.3478 6.6214C34.2892 6.72101 34.2409 6.83966 34.2028 6.97736C34.1647 7.11212 34.134 7.26007 34.1105 7.4212C34.0871 7.58234 34.071 7.75079 34.0622 7.92657C34.0534 8.10236 34.049 8.2796 34.049 8.45831C34.049 8.69269 34.0578 8.92413 34.0754 9.15265C34.0959 9.37823 34.1061 9.58771 34.1061 9.78107C34.1061 9.90704 34.0593 10.0052 33.9655 10.0755C33.8718 10.1487 33.7385 10.1854 33.5656 10.1854C33.5334 10.1854 33.4968 10.1824 33.4557 10.1766C33.4147 10.1707 33.3752 10.159 33.3371 10.1414C33.3019 10.1238 33.2697 10.0989 33.2404 10.0667C33.2141 10.0374 33.1994 9.9964 33.1965 9.94366C33.1701 9.68585 33.132 9.42218 33.0822 9.15265C33.0324 8.88312 32.9694 8.61505 32.8932 8.34845C32.82 8.07892 32.7307 7.81232 32.6252 7.54865C32.5226 7.28497 32.404 7.02716 32.2692 6.77521C32.2458 6.73126 32.2253 6.69025 32.2077 6.65216C32.1931 6.61407 32.1857 6.57745 32.1857 6.5423C32.1857 6.49835 32.2048 6.45148 32.2429 6.40167C32.2839 6.34894 32.3337 6.3006 32.3923 6.25665C32.4538 6.21271 32.5197 6.17755 32.59 6.15118C32.6633 6.12189 32.7336 6.10724 32.801 6.10724C32.9123 6.10724 33.0104 6.18488 33.0954 6.34015C33.1804 6.49249 33.2595 6.73712 33.3327 7.07404C33.3474 7.13263 33.3591 7.17365 33.3679 7.19708C33.3766 7.22052 33.3884 7.23224 33.403 7.23224C33.4352 7.23224 33.4557 7.18243 33.4645 7.08282C33.4997 6.8045 33.5598 6.56573 33.6447 6.36652C33.7297 6.16437 33.8351 5.99884 33.9611 5.86993C34.09 5.7381 34.2365 5.64142 34.4006 5.5799C34.5676 5.51837 34.7507 5.48761 34.9499 5.48761C35.0641 5.48761 35.1799 5.49786 35.2971 5.51837C35.4142 5.53888 35.5197 5.56964 35.6135 5.61066C35.7072 5.65167 35.7834 5.70148 35.842 5.76007C35.9006 5.81866 35.9299 5.88458 35.9299 5.95782C35.9299 6.01056 35.9182 6.07355 35.8947 6.14679C35.8742 6.2171 35.8464 6.28595 35.8112 6.35333C35.7761 6.41779 35.735 6.47345 35.6882 6.52032C35.6442 6.56427 35.5988 6.58624 35.5519 6.58624C35.4992 6.58624 35.4479 6.57159 35.3981 6.5423C35.3483 6.51007 35.2941 6.47638 35.2355 6.44122C35.1799 6.40607 35.1198 6.37384 35.0554 6.34454C34.9938 6.31232 34.9235 6.2962 34.8444 6.2962ZM36.5759 8.02765C36.5759 8.42023 36.6359 8.72345 36.756 8.93732C36.8762 9.15118 37.0505 9.25812 37.279 9.25812C37.4225 9.25812 37.5544 9.21564 37.6745 9.13068C37.7975 9.04572 37.903 8.92706 37.9909 8.77472C38.0788 8.62238 38.1462 8.4422 38.1931 8.23419C38.2429 8.02325 38.2678 7.79474 38.2678 7.54865C38.2678 7.39923 38.2619 7.27032 38.2502 7.16193C38.2385 7.0506 38.2253 6.95245 38.2106 6.86749C38.1989 6.7796 38.1872 6.70197 38.1755 6.63458C38.1638 6.5672 38.1579 6.50275 38.1579 6.44122C38.1579 6.34747 38.1974 6.28009 38.2766 6.23907C38.3557 6.19513 38.4816 6.17316 38.6545 6.17316C38.8742 6.17316 39.0441 6.22296 39.1642 6.32257C39.2873 6.42218 39.3488 6.5672 39.3488 6.75763C39.3488 7.27618 39.2975 7.742 39.195 8.15509C39.0954 8.56818 38.9504 8.91974 38.7599 9.20978C38.5724 9.49689 38.3439 9.71808 38.0744 9.87335C37.8049 10.0286 37.5031 10.1063 37.1691 10.1063C36.9318 10.1063 36.7121 10.0565 36.5099 9.95685C36.3107 9.86017 36.1379 9.72394 35.9914 9.54816C35.8478 9.36945 35.735 9.15851 35.653 8.91534C35.571 8.66925 35.53 8.39972 35.53 8.10675C35.53 7.99542 35.5329 7.87677 35.5388 7.75079C35.5446 7.62482 35.5534 7.49005 35.5651 7.3465C35.5768 7.20001 35.5915 7.04181 35.6091 6.87189C35.6296 6.70197 35.6516 6.5174 35.675 6.31818C35.6838 6.23322 35.7233 6.16583 35.7936 6.11603C35.8669 6.06329 35.9592 6.03693 36.0705 6.03693C36.1701 6.03693 36.2639 6.04718 36.3517 6.06769C36.4396 6.0882 36.5143 6.11603 36.5759 6.15118C36.6403 6.18634 36.6901 6.22736 36.7253 6.27423C36.7634 6.32111 36.7824 6.37091 36.7824 6.42365C36.7824 6.47638 36.7707 6.55988 36.7473 6.67413C36.7267 6.78546 36.7033 6.91437 36.6769 7.06085C36.6535 7.20441 36.6301 7.36115 36.6066 7.53107C36.5861 7.69806 36.5759 7.86359 36.5759 8.02765ZM40.0563 8.56818C40.0007 7.88263 39.9362 7.20148 39.863 6.52472C39.7927 5.84796 39.6887 5.17267 39.551 4.49884C39.5451 4.4754 39.5422 4.4549 39.5422 4.43732C39.5422 4.41681 39.5422 4.39777 39.5422 4.38019C39.5422 4.31281 39.5554 4.25421 39.5817 4.20441C39.611 4.1546 39.6491 4.11359 39.696 4.08136C39.7429 4.0462 39.7956 4.01984 39.8542 4.00226C39.9157 3.98468 39.9802 3.97589 40.0475 3.97589C40.2263 3.97589 40.3493 4.05939 40.4167 4.22638C40.446 4.31134 40.4753 4.43292 40.5046 4.59113C40.5368 4.74933 40.569 4.93243 40.6013 5.14044C40.6364 5.34845 40.6701 5.57697 40.7023 5.82599C40.7346 6.07208 40.7653 6.3255 40.7946 6.58624C40.8034 6.65948 40.8268 6.69611 40.8649 6.69611C40.8972 6.69611 40.9308 6.67413 40.966 6.63019C41.3937 6.06769 41.9006 5.78644 42.4865 5.78644C42.7062 5.78644 42.9113 5.83478 43.1017 5.93146C43.2922 6.02814 43.4577 6.15997 43.5983 6.32697C43.739 6.49396 43.8488 6.69171 43.9279 6.92023C44.0099 7.14874 44.051 7.39484 44.051 7.65851C44.051 7.9046 44.0114 8.13312 43.9323 8.34406C43.8561 8.55499 43.7492 8.73663 43.6115 8.88898C43.4738 9.04132 43.3098 9.16144 43.1193 9.24933C42.9318 9.33429 42.7267 9.37677 42.5041 9.37677C42.2287 9.37677 41.9592 9.32404 41.6955 9.21857C41.4318 9.11017 41.1828 8.96515 40.9484 8.78351C40.9221 8.76007 40.8942 8.74835 40.8649 8.74835C40.8268 8.74835 40.7917 8.76886 40.7595 8.80988C40.7126 8.86261 40.6628 8.89777 40.61 8.91534C40.5573 8.92999 40.4929 8.93732 40.4167 8.93732C40.1852 8.93732 40.0651 8.81427 40.0563 8.56818ZM42.3327 6.60382C42.2155 6.60382 42.0983 6.63165 41.9811 6.68732C41.8669 6.74005 41.7585 6.81622 41.6559 6.91583C41.5534 7.01544 41.4582 7.13556 41.3703 7.27618C41.2853 7.41388 41.2136 7.56769 41.155 7.73761C41.1491 7.7464 41.1447 7.75958 41.1418 7.77716C41.1389 7.79474 41.1374 7.80939 41.1374 7.82111C41.1374 7.87091 41.155 7.909 41.1901 7.93536C41.2956 8.02618 41.404 8.11115 41.5153 8.19025C41.6296 8.26935 41.7424 8.3382 41.8537 8.39679C41.965 8.45538 42.0749 8.50226 42.1833 8.53741C42.2917 8.56964 42.3928 8.58575 42.4865 8.58575C42.6974 8.58575 42.8571 8.52423 42.9655 8.40118C43.0768 8.27814 43.1325 8.09943 43.1325 7.86505C43.1325 7.68341 43.112 7.51642 43.071 7.36407C43.03 7.2088 42.9743 7.0755 42.904 6.96417C42.8337 6.84991 42.7487 6.76202 42.6491 6.7005C42.5524 6.63605 42.447 6.60382 42.3327 6.60382ZM47.0173 6.2962C46.9089 6.2962 46.8137 6.3255 46.7316 6.38409C46.6496 6.43976 46.5793 6.51886 46.5207 6.6214C46.4621 6.72101 46.4138 6.83966 46.3757 6.97736C46.3376 7.11212 46.3068 7.26007 46.2834 7.4212C46.2599 7.58234 46.2438 7.75079 46.235 7.92657C46.2263 8.10236 46.2219 8.2796 46.2219 8.45831C46.2219 8.69269 46.2307 8.92413 46.2482 9.15265C46.2687 9.37823 46.279 9.58771 46.279 9.78107C46.279 9.90704 46.2321 10.0052 46.1384 10.0755C46.0446 10.1487 45.9113 10.1854 45.7385 10.1854C45.7062 10.1854 45.6696 10.1824 45.6286 10.1766C45.5876 10.1707 45.548 10.159 45.5099 10.1414C45.4748 10.1238 45.4426 10.0989 45.4133 10.0667C45.3869 10.0374 45.3723 9.9964 45.3693 9.94366C45.343 9.68585 45.3049 9.42218 45.2551 9.15265C45.2053 8.88312 45.1423 8.61505 45.0661 8.34845C44.9929 8.07892 44.9035 7.81232 44.798 7.54865C44.6955 7.28497 44.5768 7.02716 44.4421 6.77521C44.4186 6.73126 44.3981 6.69025 44.3806 6.65216C44.3659 6.61407 44.3586 6.57745 44.3586 6.5423C44.3586 6.49835 44.3776 6.45148 44.4157 6.40167C44.4567 6.34894 44.5065 6.3006 44.5651 6.25665C44.6266 6.21271 44.6926 6.17755 44.7629 6.15118C44.8361 6.12189 44.9064 6.10724 44.9738 6.10724C45.0851 6.10724 45.1833 6.18488 45.2682 6.34015C45.3532 6.49249 45.4323 6.73712 45.5056 7.07404C45.5202 7.13263 45.5319 7.17365 45.5407 7.19708C45.5495 7.22052 45.5612 7.23224 45.5759 7.23224C45.6081 7.23224 45.6286 7.18243 45.6374 7.08282C45.6725 6.8045 45.7326 6.56573 45.8176 6.36652C45.9025 6.16437 46.008 5.99884 46.134 5.86993C46.2629 5.7381 46.4094 5.64142 46.5734 5.5799C46.7404 5.51837 46.9235 5.48761 47.1227 5.48761C47.237 5.48761 47.3527 5.49786 47.4699 5.51837C47.5871 5.53888 47.6926 5.56964 47.7863 5.61066C47.8801 5.65167 47.9562 5.70148 48.0148 5.76007C48.0734 5.81866 48.1027 5.88458 48.1027 5.95782C48.1027 6.01056 48.091 6.07355 48.0676 6.14679C48.0471 6.2171 48.0192 6.28595 47.9841 6.35333C47.9489 6.41779 47.9079 6.47345 47.861 6.52032C47.8171 6.56427 47.7717 6.58624 47.7248 6.58624C47.6721 6.58624 47.6208 6.57159 47.571 6.5423C47.5212 6.51007 47.467 6.47638 47.4084 6.44122C47.3527 6.40607 47.2927 6.37384 47.2282 6.34454C47.1667 6.31232 47.0964 6.2962 47.0173 6.2962ZM47.883 8.12433C47.883 8.07452 47.8889 8.01886 47.9006 7.95734C47.9123 7.89581 47.9182 7.82843 47.9182 7.75519C47.9182 7.70538 47.8962 7.6673 47.8522 7.64093C47.8112 7.61456 47.7643 7.58527 47.7116 7.55304C47.6589 7.52081 47.6105 7.4798 47.5666 7.42999C47.5256 7.38019 47.5051 7.30841 47.5051 7.21466C47.5051 7.14728 47.5226 7.0799 47.5578 7.01251C47.5959 6.94513 47.6501 6.88361 47.7204 6.82794C47.8932 6.69904 48.072 6.58331 48.2565 6.48077C48.444 6.37823 48.6301 6.29181 48.8146 6.2215C49.0021 6.15118 49.1867 6.09698 49.3683 6.0589C49.55 6.02081 49.7243 6.00177 49.8913 6.00177C50.1725 6.00177 50.4362 6.0545 50.6823 6.15997C50.9313 6.26251 51.1467 6.4046 51.3283 6.58624C51.5129 6.76495 51.6579 6.97589 51.7634 7.21906C51.8718 7.45929 51.926 7.7171 51.926 7.99249C51.926 8.26202 51.8688 8.51837 51.7546 8.76154C51.6432 9.00177 51.4924 9.21271 51.3019 9.39435C51.1115 9.57599 50.8874 9.71954 50.6296 9.82501C50.3747 9.93341 50.1052 9.98761 49.821 9.98761C49.5427 9.98761 49.2849 9.94073 49.0475 9.84698C48.8102 9.75323 48.6052 9.62433 48.4323 9.46027C48.2595 9.29327 48.1247 9.09698 48.028 8.8714C47.9313 8.64288 47.883 8.39386 47.883 8.12433ZM49.9177 9.19659C50.0407 9.19659 50.1682 9.17169 50.3 9.12189C50.4318 9.07208 50.5519 9.00031 50.6603 8.90656C50.7717 8.80988 50.8625 8.69269 50.9328 8.55499C51.006 8.4173 51.0427 8.26202 51.0427 8.08917C51.0427 7.91339 51.0104 7.74933 50.946 7.59698C50.8815 7.44464 50.7922 7.31281 50.6779 7.20148C50.5666 7.08722 50.4333 6.99786 50.278 6.93341C50.1257 6.86896 49.9601 6.83673 49.7814 6.83673C49.4562 6.83673 49.2072 6.92169 49.0344 7.09161C48.8615 7.25861 48.7751 7.51642 48.7751 7.86505C48.7751 8.05548 48.8029 8.23273 48.8586 8.39679C48.9172 8.55792 48.9977 8.69855 49.1003 8.81866C49.2028 8.93585 49.3229 9.02814 49.4606 9.09552C49.6013 9.1629 49.7536 9.19659 49.9177 9.19659Z" fill="#1E1E1E"/>
<path d="M11.2374 85.8912C21.843 85.8912 64.2844 85.8912 74.8899 85.8912" stroke="#1E1E1E" stroke-width="2" stroke-linecap="round"/>
<path d="M43.9417 58.3784C44.2119 58.3689 44.9646 58.5398 45.1383 58.7106C45.312 58.8815 45.0901 59.1568 45.0032 59.4036C44.926 59.6409 44.7137 59.9921 44.6462 60.1535C44.5786 60.3148 44.7813 60.2674 44.6076 60.3813C44.4242 60.4952 43.8645 60.8749 43.604 60.8274C43.3434 60.7799 43.1407 60.3623 43.0442 60.0965C42.9574 59.8402 43.0539 59.4795 43.0732 59.2612C43.1021 59.0429 42.9863 58.9005 43.189 58.8056C43.4013 58.7106 44.1251 58.7106 44.3277 58.7012C44.54 58.6917 44.4339 58.7201 44.4532 58.7581M44.1154 58.293C44.4049 58.293 45.0997 58.5208 45.2059 58.7676C45.312 59.0144 44.8585 59.47 44.7427 59.7643C44.6365 60.068 44.5497 60.4667 44.5593 60.5711C44.5593 60.666 45.0032 60.3813 44.7813 60.3813C44.5497 60.3718 43.4592 60.5996 43.189 60.5331C42.9188 60.4667 43.1697 60.2009 43.1504 59.9826C43.1407 59.7548 43.0346 59.47 43.1214 59.2042C43.2083 58.929 43.5267 58.5208 43.6522 58.3594C43.768 58.1981 43.7873 58.1221 43.8452 58.217C43.9128 58.3025 44.0479 58.8056 44.0382 58.9005" fill="#1E1E1E"/>
<path d="M44.0382 58.7391C44.2698 58.7106 44.7041 58.853 44.9067 58.9385C45.0997 59.0239 45.1866 59.0429 45.2252 59.2327C45.2734 59.4131 45.2541 59.8307 45.1673 60.0301C45.0804 60.2294 44.9453 60.3623 44.7041 60.4192C44.4628 60.4762 43.961 60.4762 43.7197 60.3908C43.4785 60.3053 43.3916 60.125 43.2565 59.9256C43.1214 59.7263 42.8898 59.4036 42.8898 59.1947C42.8898 58.9764 43.0346 58.7676 43.2662 58.6632C43.4978 58.5588 44.0671 58.5588 44.2698 58.5493C44.4628 58.5493 44.4339 58.5967 44.4435 58.6442M44.4918 58.1031C44.7041 58.1886 45.0032 58.7676 45.1673 59.0049C45.3313 59.2422 45.4568 59.3371 45.4761 59.5555C45.505 59.7643 45.5243 60.1535 45.3024 60.2958C45.0901 60.4287 44.4725 60.3053 44.1637 60.3813C43.8548 60.4572 43.6811 60.7135 43.4495 60.742C43.2179 60.761 42.8416 60.7894 42.7547 60.5047C42.6775 60.2199 42.8319 59.3181 42.9477 59.0334C43.0732 58.7581 43.3723 58.8625 43.4978 58.8151C43.6329 58.7771 43.5653 58.7961 43.739 58.7961C43.9224 58.7961 44.4435 58.872 44.5979 58.8246" stroke="#1E1E1E" stroke-linecap="round"/>
<path d="M43.3198 59.5937C41.7662 58.5781 35.4936 54.7432 33.9109 53.832M42.7022 59.1666C41.1099 58.2079 35.1847 55.4456 33.6793 54.449" stroke="#1E1E1E" stroke-linecap="round"/>
<path d="M45.7276 59.0567C47.5707 57.2342 54.7312 50.0771 56.5164 48.2641M45.2643 58.5631C47.0593 56.5793 54.4223 49.0615 56.2462 47.4383" stroke="#1E1E1E" stroke-linecap="round"/>
<path d="M32.1584 48.7733C32.834 48.6593 34.1464 48.6783 34.735 49.0865C35.3237 49.5042 35.565 50.5958 35.6904 51.2602C35.8159 51.9247 35.758 52.5606 35.5071 53.0827C35.2465 53.6143 34.764 54.1553 34.1367 54.4401C33.5191 54.7248 32.3804 54.9147 31.7628 54.7913C31.1548 54.6679 30.7495 54.2123 30.4504 53.7187C30.1609 53.2156 29.9293 52.4277 29.9968 51.8107C30.0547 51.2032 30.3539 50.5293 30.8171 50.0357C31.2803 49.5421 32.4769 49.039 32.7664 48.8492C33.0559 48.6593 32.612 48.8017 32.5348 48.8967M32.2356 49.1719C32.9884 49.02 34.5324 48.8587 35.0535 49.1814C35.565 49.5042 35.2465 50.4724 35.3237 51.1273C35.4106 51.7823 35.758 52.5606 35.536 53.1207C35.3237 53.6712 34.6192 54.2597 34.0402 54.4496C33.4612 54.6489 32.7471 54.5255 32.0619 54.2977C31.3671 54.0699 30.296 53.5193 29.8907 53.1017C29.4757 52.684 29.5433 52.3423 29.6205 51.7918C29.688 51.2412 29.7459 50.3395 30.3153 49.7889C30.8943 49.2479 32.6603 48.6973 33.0656 48.517C33.4805 48.3271 32.8919 48.5834 32.7954 48.6688" fill="#1E1E1E"/>
<path d="M33.1042 48.7448C33.7507 48.7353 34.6579 49.0485 35.1018 49.4662C35.5553 49.8838 35.7387 50.6242 35.7869 51.2507C35.8448 51.8772 35.7966 52.703 35.4202 53.2346C35.0439 53.7661 34.185 54.2313 33.5288 54.4306C32.8726 54.6299 32.0137 54.6299 31.4637 54.4211C30.9232 54.2123 30.46 53.6997 30.2477 53.1586C30.0258 52.6271 29.9968 51.8013 30.1512 51.2222C30.3153 50.6337 30.6916 49.9883 31.2128 49.6465C31.7242 49.2953 32.9691 49.2194 33.2489 49.1434C33.5288 49.058 32.9787 49.1245 32.8919 49.1624M33.2393 48.9061C33.77 48.8492 34.2236 48.9061 34.6193 49.3523C35.0246 49.7889 35.5457 50.8236 35.6132 51.5734C35.6808 52.3233 35.3334 53.3865 35.0053 53.8516C34.6772 54.3167 34.185 54.2218 33.6253 54.3547C33.0752 54.497 32.3322 54.8103 31.676 54.6679C31.0197 54.516 29.91 53.9939 29.6687 53.4624C29.4275 52.9308 29.9486 52.143 30.2381 51.469C30.5179 50.7856 31.0004 49.8649 31.3865 49.3618C31.7725 48.8682 32.2357 48.5644 32.5445 48.4885C32.8533 48.4031 33.2103 48.8397 33.2489 48.8967" stroke="#1E1E1E" stroke-linecap="round"/>
<path d="M53.8209 48.2571C54.4868 48.2191 55.0754 48.8836 55.5579 49.2918C56.0404 49.7094 56.5326 50.184 56.716 50.7441C56.8897 51.3041 56.9283 52.073 56.6194 52.6615C56.3106 53.2405 55.4228 53.9334 54.8535 54.2372C54.2841 54.5409 53.7437 54.6359 53.2033 54.4935C52.6629 54.3511 51.9777 53.886 51.6207 53.3924C51.254 52.8988 51.0031 52.1869 51.0513 51.5224C51.1092 50.8485 51.5242 49.8898 51.9391 49.3867C52.3541 48.8836 53.2998 48.5893 53.541 48.4944C53.792 48.3995 53.4445 48.8172 53.4349 48.8266M54.4868 48.2476C55.0947 48.1907 55.1237 48.8266 55.529 49.3013C55.9343 49.7759 56.7642 50.4783 56.909 51.0953C57.0634 51.7123 56.7739 52.5381 56.4361 53.0127C56.0887 53.4968 55.5483 53.8195 54.8535 53.9619C54.1683 54.1043 52.9234 53.9999 52.2769 53.8575C51.6303 53.7151 51.2733 53.6202 50.9741 53.1266C50.6846 52.6425 50.2503 51.6553 50.5109 50.9244C50.7618 50.1935 51.8812 49.1873 52.4988 48.7412C53.1164 48.3046 53.9657 48.3141 54.1973 48.2666C54.4289 48.2286 53.8402 48.3615 53.8885 48.4849" fill="#1E1E1E"/>
<path d="M53.7244 48.333C54.3131 48.2096 54.979 48.4185 55.4904 48.7602C56.0115 49.1019 56.6774 49.7853 56.8414 50.3833C57.0151 50.9908 56.7932 51.7977 56.5037 52.3957C56.2045 52.9937 55.6255 53.6582 55.0948 53.9904C54.564 54.3131 53.8885 54.484 53.3288 54.3701C52.7691 54.2657 52.1322 53.8195 51.7558 53.3449C51.3794 52.8703 51.0513 52.1299 51.0706 51.5224C51.0803 50.9244 51.4759 50.1935 51.8523 49.7379C52.2287 49.2728 53.0779 48.9121 53.3191 48.7602C53.5604 48.6083 53.2419 48.7602 53.2902 48.8076M53.6472 48.2381C54.178 48.2191 55.143 48.8361 55.6159 49.3582C56.0887 49.8898 56.3493 50.8485 56.4747 51.399C56.6098 51.9496 56.6388 52.1679 56.3782 52.6615C56.1177 53.1456 55.5869 54.0378 54.921 54.3511C54.2552 54.6548 52.9235 54.7023 52.3831 54.5124C51.833 54.3321 51.8233 53.848 51.6496 53.231C51.4759 52.6235 51.3505 51.5983 51.3312 50.858C51.3215 50.1271 51.0803 49.2443 51.5531 48.8456C52.026 48.4469 53.8209 48.5988 54.178 48.4849C54.5447 48.3805 53.8402 48.0862 53.7341 48.2096" stroke="#1E1E1E" stroke-linecap="round"/>
<path d="M30.7639 50.8543C30.1463 49.9146 28.0233 46.1367 27.4636 45.14M31.2561 50.636C30.7446 49.6013 28.6698 45.5861 28.1391 44.6939" stroke="#1E1E1E" stroke-linecap="round"/>
<path d="M33.3082 51.2272C33.81 50.0881 35.7594 45.399 36.2419 44.2505M33.839 51.0753C34.4759 49.9837 36.3673 45.9116 36.8788 44.6871" stroke="#1E1E1E" stroke-linecap="round"/>
<path d="M33.4625 48.6369C34.0318 48.6749 34.5143 49.1875 34.9679 49.6811C35.4118 50.1747 36.0487 50.9435 36.1645 51.589C36.2803 52.244 36.0487 53.0413 35.6724 53.5634C35.3056 54.0949 34.5626 54.636 33.945 54.7404C33.3274 54.8543 32.565 54.5411 31.9474 54.2088C31.3298 53.8766 30.5867 53.2596 30.2586 52.7186C29.9305 52.187 29.8147 51.6175 29.9884 50.9815C30.1718 50.336 30.7218 49.3014 31.3201 48.8742C31.9184 48.4566 33.1923 48.4091 33.5879 48.4471C33.9739 48.4756 33.7423 49.0166 33.6844 49.0641M33.0765 48.5515C33.7037 48.4566 34.6784 48.5895 35.103 48.9407C35.5276 49.3014 35.5662 49.9563 35.6338 50.6872C35.7013 51.4276 35.8364 52.7186 35.518 53.3545C35.1995 53.981 34.2345 54.3702 33.7327 54.4936C33.2405 54.6075 33.0572 54.3132 32.536 54.038C32.0246 53.7722 31.0885 53.3735 30.6639 52.8799C30.2297 52.3768 29.8051 51.608 29.9498 51.0479C30.0946 50.4974 31.0113 49.8804 31.5324 49.5672C32.0535 49.2444 32.787 49.3299 33.0861 49.1495C33.3853 48.9597 33.3949 48.523 33.3081 48.4566" fill="#FF4242"/>
<path d="M32.536 48.4471C33.0957 48.3427 33.9546 48.6085 34.5433 48.9787C35.1319 49.3583 35.8074 50.0798 36.068 50.7157C36.3382 51.3517 36.3768 52.187 36.1452 52.7945C35.9136 53.4115 35.267 54.0855 34.688 54.4082C34.0993 54.7309 33.3466 54.8828 32.6422 54.7499C31.9377 54.6265 30.9534 54.1424 30.4709 53.6298C29.9884 53.1267 29.6699 52.3389 29.7375 51.7029C29.8147 51.0764 30.413 50.3076 30.9051 49.8425C31.3973 49.3868 32.372 49.1305 32.6808 48.9217C32.9992 48.7224 32.7869 48.6464 32.758 48.6369M33.1247 48.3712C33.7905 48.3047 34.7073 49.0071 35.1223 49.5292C35.5372 50.0418 35.4407 50.8201 35.5855 51.4751C35.7302 52.1301 36.1838 52.9844 35.9811 53.459C35.7881 53.9241 35.1416 54.2183 34.4082 54.2943C33.6747 54.3797 32.1693 54.1709 31.5614 53.9431C30.9534 53.7153 31.0016 53.4874 30.7507 52.9274C30.4998 52.3674 30.0077 51.1239 30.0366 50.5828C30.0752 50.0418 30.4612 50.0228 30.9437 49.6621C31.4166 49.3014 32.565 48.6654 32.8931 48.4281C33.2212 48.2003 32.8931 48.1339 32.9124 48.2857" stroke="#1E1E1E" stroke-width="0.5" stroke-linecap="round"/>
<path d="M27.282 39.6218C27.9092 39.6313 29.0287 39.973 29.598 40.4002C30.1674 40.8368 30.5823 41.5677 30.6981 42.2132C30.8139 42.8586 30.6209 43.7699 30.2928 44.273C29.9647 44.7761 29.3857 45.0988 28.7392 45.2507C28.0829 45.4025 27.0697 45.3836 26.3942 45.2032C25.7187 45.0229 25.0142 44.7381 24.6957 44.1496C24.3676 43.5611 24.2904 42.3651 24.4738 41.6626C24.6475 40.9602 25.1879 40.2578 25.7476 39.954C26.3073 39.6503 27.5425 39.954 27.832 39.8591C28.1215 39.7642 27.5329 39.356 27.4943 39.3655M27.5908 39.1757C28.1312 39.0808 28.5654 39.3276 29.0094 39.8306C29.4629 40.3432 30.1577 41.5202 30.2832 42.2227C30.4086 42.9156 29.9454 43.5801 29.7428 44.0262C29.5401 44.4628 29.5691 44.7001 29.0673 44.871C28.5654 45.0418 27.446 45.1842 26.7319 45.0324C26.0275 44.871 25.1107 44.3964 24.8212 43.9313C24.5317 43.4661 24.8598 42.7637 24.9949 42.2322C25.13 41.7101 25.1589 41.264 25.6125 40.7704C26.0757 40.2768 27.5136 39.5079 27.7548 39.2801C27.9864 39.0523 27.0118 39.3181 27.0311 39.4035" fill="#1E1E1E"/>
<path d="M27.0118 39.432C27.6583 39.356 28.6716 39.6313 29.2892 40.011C29.8972 40.3812 30.4858 41.0456 30.6885 41.6816C30.8911 42.3081 30.7753 43.1909 30.5148 43.8079C30.2542 44.4249 29.7621 45.0703 29.1155 45.3741C28.4689 45.6683 27.3592 45.7348 26.6451 45.5924C25.9309 45.4405 25.1493 44.9944 24.8115 44.5008C24.4641 43.9977 24.5027 43.2004 24.5896 42.5739C24.6668 41.9474 24.8598 41.2545 25.294 40.7324C25.7283 40.2198 26.896 39.6598 27.1855 39.4604C27.475 39.2611 27.0021 39.4984 27.0214 39.5364M27.9961 39.6598C28.5365 39.8022 28.826 40.2768 29.3085 40.7799C29.8007 41.2829 30.7464 42.0993 30.9104 42.6688C31.0841 43.2383 30.8429 43.8079 30.3218 44.197C29.791 44.5862 28.4207 44.852 27.7741 44.9944C27.1276 45.1368 26.9635 45.3456 26.4424 45.0418C25.9116 44.7381 24.9756 43.7035 24.6282 43.1909C24.2904 42.6688 24.2036 42.5264 24.3676 41.9474C24.5413 41.3779 25.0914 40.2103 25.6414 39.7452C26.1915 39.2706 27.3302 39.0903 27.6776 39.1377C28.025 39.1947 27.7838 39.9351 27.7452 40.0585" stroke="#1E1E1E" stroke-linecap="round"/>
<path d="M37.2981 38.6071C37.9832 38.5597 38.8324 38.8634 39.3535 39.2716C39.8843 39.6798 40.2993 40.4771 40.4344 41.0656C40.5791 41.6446 40.5309 42.2616 40.1931 42.7742C39.8457 43.2868 39.0447 43.8373 38.3789 44.1126C37.7034 44.3974 36.7866 44.6916 36.169 44.4638C35.5417 44.2265 34.9338 43.3437 34.6443 42.7268C34.3548 42.1098 34.2969 41.3029 34.432 40.7714C34.5767 40.2398 35.0303 39.9645 35.4645 39.5374C35.8988 39.1197 36.7384 38.3888 37.0375 38.237C37.3463 38.0756 37.2498 38.4932 37.2691 38.5977M36.7963 38.123C37.3463 38.18 38.4368 38.9394 38.9482 39.395C39.45 39.8601 39.5659 40.4012 39.8071 40.9043C40.058 41.4073 40.5984 41.9199 40.3958 42.423C40.2028 42.9166 39.2956 43.6 38.6008 43.8848C37.9157 44.1696 36.8156 44.2455 36.2462 44.1316C35.6865 44.0082 35.5128 43.619 35.204 43.1824C34.8952 42.7457 34.3451 42.2237 34.403 41.5212C34.4706 40.8188 35.1847 39.5279 35.5803 38.9868C35.976 38.4458 36.4199 38.3604 36.7673 38.2749C37.1051 38.199 37.5297 38.4268 37.6069 38.5027" fill="#1E1E1E"/>
<path d="M37.0471 38.4933C37.713 38.4078 38.649 38.6262 39.1991 38.9869C39.7588 39.3571 40.2027 40.069 40.3764 40.7049C40.5598 41.3409 40.608 42.2047 40.2896 42.8027C39.9711 43.3912 39.1315 43.9608 38.4753 44.255C37.8095 44.5398 36.912 44.6537 36.333 44.5208C35.7443 44.3879 35.3197 43.9418 34.982 43.4482C34.6346 42.9546 34.2582 42.2332 34.2775 41.5498C34.2872 40.8568 34.6732 39.8601 35.0785 39.3381C35.4838 38.816 36.3909 38.5787 36.7287 38.4078C37.0568 38.2465 36.9796 38.2939 37.0664 38.3509M36.5164 38.7211C37.1822 38.6451 38.678 38.9204 39.3632 39.2147C40.0483 39.4994 40.5791 39.9646 40.6273 40.4582C40.6852 40.9612 39.9808 41.6257 39.7009 42.2237C39.4211 42.8122 39.5079 43.7519 38.9771 44.0272C38.4367 44.312 37.2208 43.9892 36.4874 43.9038C35.7443 43.8279 34.982 44.0462 34.567 43.5621C34.1521 43.078 33.9398 41.7681 33.988 40.9992C34.0266 40.2208 34.374 39.2906 34.8372 38.9489C35.3004 38.5977 36.4874 38.9679 36.7576 38.9109C37.0375 38.854 36.4102 38.6167 36.5067 38.5977" stroke="#1E1E1E" stroke-linecap="round"/>
<path d="M54.0106 48.6636C54.6379 48.6636 55.4196 49.1097 55.9021 49.4989C56.3846 49.8881 56.8574 50.4196 56.9057 50.9987C56.9539 51.5682 56.6065 52.3845 56.1916 52.9635C55.7766 53.5426 55.0432 54.3209 54.416 54.4823C53.7983 54.6437 53.007 54.2355 52.457 53.9223C51.9166 53.5995 51.4051 53.049 51.1445 52.5839C50.8936 52.1187 50.855 51.758 50.9322 51.141C51.0094 50.5241 51.1542 49.3091 51.6271 48.8724C52.0999 48.4453 53.422 48.6066 53.7887 48.5592C54.1554 48.5212 53.8176 48.5687 53.808 48.6256M53.1035 48.8344C53.7018 48.787 54.2326 48.8439 54.8792 49.0623C55.5257 49.2901 56.703 49.6318 56.9925 50.1728C57.2821 50.7139 56.9732 51.6726 56.6355 52.2991C56.2881 52.9256 55.4678 53.5805 54.9467 53.9507C54.416 54.3114 54.0878 54.5392 53.4895 54.5013C52.9009 54.4633 51.8104 54.3114 51.3955 53.7324C50.9805 53.1629 51.0577 51.8055 50.9998 51.0651C50.9419 50.3152 50.6138 49.6887 51.0673 49.2521C51.5209 48.825 53.3448 48.6066 53.7308 48.4832C54.1071 48.3598 53.3641 48.4643 53.3544 48.5117" fill="#1E1E1E"/>
<path d="M53.7501 48.5592C54.3677 48.5022 55.1493 48.8155 55.6608 49.2141C56.1626 49.6128 56.7223 50.3342 56.8092 50.9512C56.9057 51.5682 56.5486 52.3561 56.1819 52.9256C55.8152 53.4856 55.1493 54.0741 54.6089 54.3399C54.0782 54.6057 53.5185 54.6721 52.9491 54.5108C52.3797 54.3494 51.5691 53.9318 51.1928 53.3622C50.8164 52.7832 50.6717 51.7486 50.7006 51.0651C50.7296 50.3817 50.8936 49.7172 51.3761 49.2521C51.849 48.7965 53.1711 48.4168 53.586 48.2934C53.9913 48.17 53.8755 48.4263 53.8273 48.5117M54.1554 48.73C54.9177 48.6446 55.767 48.7775 56.124 49.0907C56.4907 49.3945 56.2398 49.964 56.317 50.6C56.3942 51.2455 56.9057 52.394 56.6065 52.9351C56.317 53.4761 55.2748 53.5805 54.551 53.8558C53.8369 54.1311 52.9298 54.7955 52.2929 54.5867C51.656 54.3874 51.048 53.3148 50.7392 52.6218C50.4304 51.9289 50.305 50.9322 50.4497 50.4197C50.5945 49.9166 51.1349 49.8786 51.6077 49.5559C52.0806 49.2426 52.8719 48.7111 53.2869 48.5402C53.7115 48.3693 54.0203 48.4738 54.1071 48.5307" stroke="#1E1E1E" stroke-linecap="round"/>
<path d="M51.4857 50.6816C51.2541 49.6944 50.2215 45.5274 49.9803 44.4832M52.0261 50.4633C51.7752 49.4097 50.0671 45.1477 49.7004 44.0466" stroke="#1E1E1E" stroke-linecap="round"/>
<path d="M54.088 51.0925C55.1206 49.8775 59.1061 44.8656 60.1387 43.6222M53.6634 50.9596C54.6767 49.6402 58.8166 44.467 59.8974 43.1476" stroke="#1E1E1E" stroke-linecap="round"/>
<path d="M48.681 38.7678C49.2214 38.8533 49.9356 39.5367 50.3602 39.9638C50.7944 40.391 51.1708 40.7897 51.2576 41.3402C51.3445 41.8907 51.2094 42.6976 50.8716 43.2956C50.5339 43.8936 49.897 44.8048 49.2118 44.9567C48.5363 45.0991 47.3879 44.4821 46.78 44.1499C46.172 43.8272 45.7667 43.5139 45.5447 42.9823C45.3228 42.4508 45.2456 41.5585 45.4289 40.9605C45.6123 40.3625 46.1237 39.793 46.6352 39.3943C47.1563 39.0051 48.2178 38.7014 48.5556 38.6065C48.8933 38.5115 48.5749 38.7583 48.6424 38.8058M48.6328 38.5305C49.1442 38.559 49.7136 38.9482 50.2347 39.4513C50.7558 39.9449 51.6533 40.7897 51.7884 41.5206C51.9138 42.2515 51.3541 43.3525 50.9971 43.8082C50.6304 44.2733 50.2926 44.2258 49.5978 44.3113C48.903 44.3872 47.3976 44.5011 46.8282 44.3018C46.2492 44.1024 46.365 43.6468 46.143 43.1152C45.9211 42.5742 45.3614 41.7009 45.4772 41.0744C45.6026 40.4574 46.4519 39.755 46.8861 39.3848C47.3204 39.0146 47.745 38.9197 48.0827 38.8627C48.4205 38.7963 48.9223 38.9387 48.9126 39.0146" fill="#1E1E1E"/>
<path d="M48.4011 39.0146C48.9223 39.0241 49.6557 39.4228 50.1575 39.8689C50.6593 40.315 51.3058 41.0744 51.4216 41.7104C51.5278 42.3464 51.1804 43.2197 50.804 43.6848C50.4277 44.1594 49.8004 44.4062 49.1442 44.5106C48.4976 44.6245 47.4554 44.6435 46.8861 44.3587C46.3167 44.074 45.9211 43.381 45.7281 42.821C45.535 42.2515 45.6219 41.5395 45.7377 40.9605C45.8535 40.391 45.9211 39.774 46.4229 39.3753C46.915 38.9672 48.3239 38.5685 48.7389 38.5305C49.1539 38.502 48.8933 39.0146 48.9126 39.157M48.5555 38.7583C49.2021 38.6919 49.6653 38.5495 50.0706 39.0051C50.4759 39.4608 50.8716 40.8371 50.9874 41.4826C51.0935 42.1186 51.0163 42.4318 50.7268 42.859C50.4373 43.2861 49.8197 43.6848 49.2504 44.0455C48.6714 44.3967 47.9186 45.1181 47.2721 45.0137C46.6255 44.9093 45.6315 44.0265 45.371 43.419C45.1104 42.8115 45.564 42.0047 45.7281 41.3782C45.8921 40.7612 45.9693 40.1727 46.3553 39.6696C46.751 39.176 47.7739 38.4926 48.0923 38.3881C48.4204 38.2837 48.2467 38.8533 48.3046 39.0336" stroke="#1E1E1E" stroke-linecap="round"/>
<path d="M59.9784 39.849C60.5768 39.7636 61.4646 39.6782 62.0243 40.0009C62.584 40.3142 63.1437 41.0261 63.3174 41.738C63.5008 42.4594 63.4525 43.7408 63.0955 44.3009C62.7287 44.8514 61.8023 44.8989 61.1654 45.0887C60.5285 45.2881 59.8626 45.6013 59.274 45.4589C58.695 45.307 58.0002 44.7375 57.6528 44.2059C57.3054 43.6744 57.151 42.953 57.2089 42.279C57.2668 41.5956 57.537 40.6084 58.0098 40.1433C58.473 39.6877 59.6021 39.6402 60.0267 39.5263C60.4513 39.4029 60.5189 39.308 60.5768 39.4314M59.7179 39.5358C60.3645 39.4883 61.7348 39.8111 62.3138 40.2477C62.8928 40.6938 63.0376 41.6336 63.2113 42.1651C63.385 42.6967 63.6841 42.9625 63.3657 43.4371C63.0376 43.9117 61.812 44.6711 61.2619 45.0033C60.7119 45.3355 60.625 45.5538 60.0653 45.4399C59.5152 45.3355 58.3572 44.8324 57.9519 44.3293C57.5466 43.8263 57.6817 43.0384 57.6335 42.4309C57.5852 41.8139 57.2089 41.0925 57.6528 40.6559C58.0967 40.2192 59.9978 39.925 60.3066 39.8016C60.6057 39.6877 59.5635 39.8301 59.4863 39.925" fill="#1E1E1E"/>
<path d="M60.3162 39.8585C60.9725 39.8965 62.0436 40.3141 62.5358 40.7887C63.0183 41.2539 63.2209 42.0892 63.2499 42.6777C63.2692 43.2567 63.0858 43.8168 62.6709 44.2629C62.2463 44.7185 61.3392 45.2596 60.7215 45.383C60.1136 45.5064 59.4767 45.2975 58.9845 45.0223C58.4924 44.7375 58.0871 44.2439 57.7879 43.6934C57.4887 43.1523 57.0352 42.3929 57.1799 41.7475C57.3343 41.102 58.0581 40.1148 58.6757 39.8111C59.2933 39.5168 60.4899 39.8965 60.8663 39.9345C61.2523 39.9724 61.0014 40.0768 60.9532 40.0484M59.7372 39.27C60.2294 39.2225 61.0304 40.1053 61.5418 40.4565C62.0533 40.8172 62.6033 40.9596 62.806 41.4247C63.0086 41.8803 62.9893 42.5448 62.7674 43.2377C62.5454 43.9401 62.0726 45.2311 61.4839 45.6108C60.8856 45.9905 59.7179 45.7247 59.1872 45.5253C58.6468 45.326 58.5696 44.8894 58.2608 44.3958C57.9423 43.9022 57.3729 43.2662 57.315 42.5638C57.2571 41.8709 57.4791 40.6559 57.923 40.2002C58.3573 39.7446 59.5828 39.849 59.9302 39.8205C60.2776 39.8016 59.9881 39.9724 60.0171 40.0389" stroke="#1E1E1E" stroke-linecap="round"/>
<path d="M63.333 40.0848C63.8444 39.0786 65.7937 35.3577 66.2859 34.4939M63.0531 40.7018C63.5163 39.7051 65.6104 35.6519 66.1315 34.7502" stroke="#1E1E1E" stroke-linecap="round"/>
<path d="M54.0963 48.5946C54.7525 48.718 55.621 49.5913 56.007 50.0469C56.393 50.5025 56.4316 50.7588 56.4316 51.3473C56.4413 51.9359 56.3834 53.0369 56.0263 53.597C55.6693 54.157 54.9359 54.5557 54.299 54.7171C53.6717 54.8784 52.8418 54.8689 52.2338 54.5367C51.6162 54.214 50.9214 53.3502 50.6416 52.7332C50.352 52.1162 50.2555 51.4517 50.5161 50.8348C50.7767 50.2273 51.5873 49.335 52.1856 49.0597C52.7839 48.775 53.8261 49.1546 54.0963 49.1452C54.3569 49.1452 53.8454 49.0407 53.7972 49.0312M53.6042 49.3065C54.1832 49.1736 55.3605 48.8889 55.7851 49.1641C56.2193 49.4299 56.0167 50.2747 56.1807 50.9297C56.3351 51.5846 56.9721 52.5149 56.7598 53.1034C56.5378 53.6919 55.4666 54.195 54.8683 54.4418C54.2604 54.6791 53.8068 54.7266 53.1216 54.5557C52.4365 54.3848 51.0662 53.9292 50.7381 53.4261C50.4003 52.923 51.0372 52.1447 51.1144 51.5467C51.2013 50.9487 50.8539 50.1988 51.2302 49.8191C51.6162 49.4394 53.0637 49.3445 53.4111 49.2591C53.7489 49.1641 53.3436 49.2685 53.305 49.2685" fill="#FF4242"/>
<path d="M53.9323 49.0787C54.5402 49.0502 55.3894 49.2116 55.8044 49.6198C56.229 50.0184 56.3738 50.8632 56.4317 51.4802C56.4992 52.0972 56.4703 52.7901 56.1711 53.3027C55.8816 53.8248 55.3508 54.4038 54.6753 54.6031C53.9998 54.793 52.7549 54.7835 52.1277 54.4608C51.5101 54.1475 51.1627 53.2363 50.9504 52.6952C50.7477 52.1637 50.7091 51.746 50.9021 51.2429C51.0951 50.7303 51.6162 50.0754 52.1084 49.6387C52.6102 49.2021 53.6138 48.7085 53.884 48.6231C54.1542 48.5471 53.7296 49.0692 53.7296 49.1451M52.919 48.6136C53.5173 48.3573 54.3858 48.3858 54.9455 48.8319C55.5052 49.278 56.1228 50.5974 56.2966 51.2809C56.4606 51.9643 56.1132 52.4105 55.9588 52.923C55.814 53.4356 55.8912 54.0621 55.4087 54.3563C54.9359 54.6601 53.7875 54.9354 53.083 54.736C52.3786 54.5367 51.568 53.6634 51.182 53.1793C50.796 52.6952 50.6802 52.3535 50.7477 51.8409C50.8153 51.3283 51.1434 50.569 51.5969 50.1228C52.0505 49.6767 53.1313 49.3065 53.4691 49.1641C53.7972 49.0217 53.6331 49.297 53.5849 49.2875" stroke="#1E1E1E" stroke-width="0.5" stroke-linecap="round"/>
<path d="M67.0812 29.8424C67.6216 29.719 68.191 29.4057 68.7025 29.7C69.2043 29.9848 69.9184 30.934 70.1403 31.5889C70.3719 32.2439 70.3237 33.0128 70.0728 33.6108C69.8315 34.2088 69.2815 34.9207 68.6832 35.1675C68.0849 35.4238 67.1295 35.2814 66.4733 35.12C65.8171 34.9492 65.0644 34.6834 64.7362 34.1803C64.4178 33.6867 64.466 32.6805 64.5336 32.111C64.6108 31.551 64.8038 31.2093 65.1609 30.7916C65.5179 30.3834 66.4154 29.8614 66.6952 29.6431C66.9654 29.4247 66.7917 29.4152 66.8303 29.5007M67.8146 29.2349C68.3454 29.121 68.4998 29.6241 68.992 30.0987C69.4841 30.5733 70.6035 31.4181 70.7579 32.073C70.9123 32.7185 70.2754 33.4779 69.9087 34.0095C69.5517 34.5315 69.2718 35.0346 68.577 35.2434C67.8918 35.4428 66.3478 35.4428 65.7785 35.2245C65.1995 35.0156 65.3925 34.4746 65.103 33.943C64.8134 33.402 63.9739 32.5666 64.0318 31.9971C64.08 31.4276 64.8906 30.877 65.4311 30.5258C65.9811 30.1746 67.004 30.0227 67.3032 29.8898C67.5927 29.757 67.1198 29.6525 67.1874 29.719" fill="#FF4242"/>
<path d="M67.6603 29.4152C68.2393 29.3868 68.828 29.8803 69.2912 30.3265C69.7544 30.7631 70.2948 31.4181 70.4202 32.0541C70.5457 32.69 70.4781 33.6108 70.0535 34.1613C69.6193 34.7024 68.5192 35.2434 67.8533 35.3478C67.1874 35.4617 66.5795 35.0536 66.0584 34.8163C65.5469 34.579 64.9775 34.3986 64.7363 33.924C64.495 33.4399 64.4661 32.6331 64.6012 31.9402C64.7363 31.2567 65.0837 30.1461 65.5566 29.7854C66.0294 29.4247 67.0813 29.8139 67.448 29.7759C67.8147 29.7285 67.7568 29.5671 67.7568 29.5481M67.448 29.0925C68.0753 29.2444 68.9438 30.336 69.3491 30.8865C69.7544 31.4371 69.7447 31.8168 69.8702 32.3768C69.986 32.9368 70.372 33.7342 70.0632 34.2373C69.764 34.7403 68.7411 35.3384 68.0367 35.4143C67.3322 35.4807 66.4058 34.9302 65.8461 34.6549C65.2767 34.3701 64.8617 34.2088 64.6591 33.7437C64.4661 33.2785 64.4371 32.4622 64.6591 31.8832C64.8714 31.3042 65.4022 30.6018 65.9715 30.2695C66.5409 29.9373 67.8147 30.0227 68.0946 29.8993C68.3648 29.7759 67.7278 29.5956 67.641 29.5386" stroke="#1E1E1E" stroke-width="0.5" stroke-linecap="round"/>
<path d="M32.9794 51.2523C32.9794 51.4517 32.9794 52.2585 32.9794 52.4578" stroke="#1E1E1E" stroke-width="0.5" stroke-linecap="round"/>
<path d="M31.315 51.7532C31.5949 51.5444 32.4344 50.4718 33.0134 50.4908C33.5924 50.5003 34.4899 51.6298 34.7891 51.8576" stroke="#1E1E1E" stroke-width="0.5" stroke-linecap="round"/>
<path d="M34.7264 52.0165C34.4363 52.2114 33.5433 53.2414 32.966 53.194C32.3882 53.1561 31.5492 51.9838 31.262 51.7416" stroke="#1E1E1E" stroke-width="0.5" stroke-linecap="round"/>
<path d="M53.8118 51.1119C53.8118 51.3112 53.8118 52.1181 53.8118 52.3174" stroke="#1E1E1E" stroke-width="0.5" stroke-linecap="round"/>
<path d="M52.1474 51.6128C52.4273 51.404 53.2668 50.3314 53.8458 50.3503C54.4248 50.3598 55.3223 51.4894 55.6215 51.7172" stroke="#1E1E1E" stroke-width="0.5" stroke-linecap="round"/>
<path d="M55.5587 51.8761C55.2686 52.071 54.3757 53.101 53.7983 53.0536C53.2205 53.0157 52.3815 51.8434 52.0943 51.6012" stroke="#1E1E1E" stroke-width="0.5" stroke-linecap="round"/>
<path d="M60.356 41.8001C59.7963 40.7085 57.3837 36.0953 56.9109 34.9467M59.9507 41.5343C59.4971 40.3573 57.9338 35.6302 57.5092 34.4437" stroke="#1E1E1E" stroke-linecap="round"/>
<path d="M55.7422 30.2454C56.273 30.2359 56.9099 30.3213 57.3827 30.6346C57.8556 30.9478 58.4057 31.4794 58.589 32.1248C58.7724 32.7703 58.7048 33.9284 58.4636 34.5169C58.2223 35.1149 57.6915 35.4376 57.1704 35.6749C56.6493 35.9122 55.9931 36.178 55.3272 35.9502C54.6614 35.7129 53.5999 34.7921 53.1753 34.2796C52.741 33.767 52.6349 33.4443 52.7314 32.8652C52.8279 32.2862 53.2718 31.2516 53.7639 30.8054C54.2464 30.3593 55.3369 30.3688 55.665 30.1979C55.9835 30.0271 55.7036 29.7043 55.7133 29.7613M55.9063 30.3783C56.5432 30.3973 57.2573 30.7295 57.7012 31.1092C58.1354 31.4984 58.3864 32.0394 58.5311 32.6754C58.6759 33.3209 58.9461 34.4599 58.589 34.963C58.2416 35.4756 57.0353 35.5705 56.4274 35.7319C55.8194 35.8837 55.5589 36.14 54.9412 35.9217C54.3236 35.6939 53.1174 35.0674 52.7217 34.3935C52.326 33.7195 52.3839 32.4761 52.5673 31.8591C52.741 31.2421 53.156 31.0143 53.7832 30.701C54.4201 30.3783 56.0317 30.0555 56.3502 29.9511C56.659 29.8372 55.7615 29.9701 55.665 30.0366" fill="#FF4242"/>
<path d="M56.1668 29.7516C56.6976 29.7896 57.3634 30.6629 57.8073 31.1565C58.2513 31.6501 58.7917 32.1722 58.8206 32.7322C58.8496 33.2922 58.3092 34.0421 57.9617 34.5262C57.624 35.0008 57.3634 35.4564 56.7555 35.5893C56.1475 35.7317 54.9605 35.6178 54.2947 35.333C53.6288 35.0483 52.9437 34.4977 52.7796 33.8902C52.6059 33.2827 53.0305 32.2386 53.2814 31.6975C53.5323 31.1565 53.7832 30.9192 54.285 30.6344C54.7868 30.3591 55.9352 30.1313 56.2923 30.0174C56.6397 29.913 56.437 29.932 56.3888 29.989M56.2633 30.2547C56.9099 30.2642 57.8556 30.7388 58.2706 31.109C58.6855 31.4887 58.7531 31.9728 58.7627 32.4949C58.7627 33.0075 58.5601 33.7194 58.2802 34.232C58.0003 34.7445 57.7301 35.3236 57.0546 35.5893C56.3888 35.8456 54.9702 35.9785 54.2561 35.7982C53.5516 35.6178 52.934 35.1622 52.7893 34.5167C52.6445 33.8713 53.2428 32.5993 53.3972 31.9254C53.542 31.2514 53.2235 30.8243 53.6674 30.4825C54.121 30.1408 55.7036 29.9795 56.1089 29.875C56.5142 29.7801 56.0896 29.894 56.1089 29.894" stroke="#1E1E1E" stroke-width="0.5" stroke-linecap="round"/>
<path d="M55.8513 32.5768C55.8513 32.7762 55.8513 33.583 55.8513 33.7823" stroke="#1E1E1E" stroke-width="0.5" stroke-linecap="round"/>
<path d="M54.1868 33.0777C54.4666 32.8689 55.3062 31.7963 55.8852 31.8153C56.4642 31.8248 57.3617 32.9543 57.6608 33.1822" stroke="#1E1E1E" stroke-width="0.5" stroke-linecap="round"/>
<path d="M57.5982 33.3411C57.3081 33.5359 56.4151 34.5659 55.8378 34.5185C55.26 34.4806 54.421 33.3084 54.1337 33.0661" stroke="#1E1E1E" stroke-width="0.5" stroke-linecap="round"/>
<path d="M67.1741 31.6403C67.1741 31.8396 67.1741 32.6465 67.1741 32.8458" stroke="#1E1E1E" stroke-width="0.5" stroke-linecap="round"/>
<path d="M65.5096 32.1412C65.7895 31.9323 66.6291 30.8597 67.2081 30.8787C67.7871 30.8882 68.6845 32.0178 68.9837 32.2456" stroke="#1E1E1E" stroke-width="0.5" stroke-linecap="round"/>
<path d="M68.921 32.4045C68.6309 32.5993 67.738 33.6294 67.1606 33.582C66.5828 33.5441 65.7438 32.3718 65.4566 32.1296" stroke="#1E1E1E" stroke-width="0.5" stroke-linecap="round"/>
<path d="M36.2344 41.758C35.723 40.4956 33.6578 35.7305 33.1464 34.6484M36.7459 42.394C36.3599 41.141 34.4491 36.1861 33.8122 34.9142" stroke="#1E1E1E" stroke-linecap="round"/>
<path d="M31.5338 30.1938C32.1514 30.0704 32.9813 30.5355 33.5217 30.8203C34.0718 31.105 34.5929 31.3139 34.8052 31.9214C35.0175 32.5383 35.0175 33.9052 34.7955 34.4842C34.5736 35.0728 34.0332 35.2057 33.4831 35.443C32.933 35.6803 32.0935 36.022 31.4952 35.9081C30.8969 35.7942 30.2792 35.2911 29.8932 34.769C29.5169 34.2469 29.237 33.3642 29.237 32.7757C29.2274 32.1871 29.4011 31.7125 29.845 31.2379C30.2985 30.7633 31.6206 30.0799 31.9294 29.9375C32.2286 29.7856 31.6882 30.3267 31.6689 30.3646M31.8619 30.2697C32.5953 30.3267 33.8981 30.4975 34.3613 30.9057C34.8245 31.3139 34.6315 32.0827 34.6315 32.7377C34.6218 33.3832 34.5639 34.228 34.342 34.788C34.1104 35.348 33.9174 35.8416 33.2804 36.0884C32.6532 36.3257 31.2057 36.4396 30.5494 36.2403C29.8932 36.041 29.5748 35.4619 29.3335 34.8924C29.0923 34.3324 28.9282 33.5066 29.1019 32.8421C29.2853 32.1682 29.8836 31.2664 30.424 30.8867C30.9548 30.4975 32.0645 30.6399 32.3154 30.507C32.5663 30.3836 31.997 30.1748 31.9294 30.1084" fill="#FF4242"/>
<path d="M31.7847 30.3646C32.3444 30.3456 33.1936 30.4025 33.7147 30.7253C34.2455 31.048 34.8245 31.6745 34.9306 32.301C35.0464 32.918 34.6604 33.8387 34.3902 34.4367C34.12 35.0442 33.8209 35.6232 33.3094 35.8985C32.8076 36.1738 31.9777 36.2402 31.3697 36.0883C30.7714 35.9365 30.0573 35.5378 29.7003 34.9778C29.3432 34.4177 29.2177 33.4021 29.237 32.7281C29.266 32.0447 29.459 31.2948 29.845 30.8961C30.2407 30.4975 31.2925 30.5069 31.6013 30.3456C31.9198 30.1747 31.6882 29.9374 31.7364 29.9089M31.8812 30.0798C32.4312 30.1367 33.6761 30.488 34.2069 30.9341C34.7376 31.3707 34.9982 32.1491 35.0657 32.7281C35.1236 33.3071 35.0368 33.9431 34.5929 34.4177C34.1393 34.8923 33.0392 35.31 32.3637 35.5853C31.6785 35.8605 31.0995 36.2497 30.5109 36.0504C29.9222 35.8605 28.9958 35.1012 28.8317 34.4177C28.6677 33.7248 29.2563 32.5857 29.5266 31.9023C29.7968 31.2283 30.0091 30.6778 30.4433 30.3646C30.8776 30.0418 31.7557 30.0133 32.1321 30.0133C32.5085 30.0133 32.6822 30.2032 32.7111 30.3551" stroke="#1E1E1E" stroke-width="0.5" stroke-linecap="round"/>
<path d="M31.9708 32.7531C31.9708 32.9524 31.9708 33.7593 31.9708 33.9586" stroke="#1E1E1E" stroke-width="0.5" stroke-linecap="round"/>
<path d="M30.3064 33.254C30.5863 33.0452 31.4258 31.9726 32.0048 31.9916C32.5838 32.001 33.4813 33.1306 33.7805 33.3584" stroke="#1E1E1E" stroke-width="0.5" stroke-linecap="round"/>
<path d="M33.7177 33.5214C33.4276 33.7162 32.5023 34.8112 31.9573 34.6989C31.4118 34.596 30.7015 33.1735 30.4465 32.8663" stroke="#1E1E1E" stroke-width="0.5" stroke-linecap="round"/>
<path d="M44.1853 60.2974C44.1177 62.8033 44.0791 72.6657 44.0984 75.2665M43.5677 59.8702C43.394 62.4426 43.5484 73.1688 43.6256 75.6937" stroke="#1E1E1E" stroke-linecap="round"/>
<path d="M44.0241 75.8561C44.5548 75.8655 45.2014 76.2547 45.6067 76.5775C46.0024 76.9097 46.4077 77.3368 46.4463 77.8209C46.4752 78.3145 46.1568 79.0075 45.7997 79.5105C45.4427 80.0136 44.8154 80.7255 44.2943 80.8584C43.7828 80.9913 43.1266 80.5832 42.6827 80.2984C42.2388 80.0231 41.8335 79.5485 41.6308 79.1593C41.4282 78.7796 41.4089 78.5328 41.4668 78.0013C41.5247 77.4697 41.5826 76.3496 41.9783 75.9794C42.3643 75.5998 43.4933 75.7801 43.8021 75.7516C44.1109 75.7232 43.8311 75.7516 43.8214 75.8086M43.2135 76.0174C43.7056 75.9984 44.0916 76.0174 44.6417 76.1883C45.2014 76.3686 46.2919 76.6249 46.5428 77.071C46.8033 77.5267 46.5042 78.362 46.1954 78.9125C45.8962 79.4536 45.1725 80.0231 44.7479 80.3459C44.3136 80.6781 44.1206 80.8774 43.6381 80.8679C43.1556 80.8489 42.1906 80.754 41.8335 80.2509C41.4861 79.7478 41.6019 78.5044 41.544 77.8494C41.4861 77.1944 41.0904 76.6724 41.4764 76.3117C41.8528 75.951 43.503 75.7801 43.8311 75.6757C44.1592 75.5713 43.4644 75.6472 43.4644 75.6947" stroke="#1E1E1E" stroke-linecap="round"/>
</svg>
