<svg width="82" height="119" viewBox="0 0 82 119" fill="none" xmlns="http://www.w3.org/2000/svg">
<path d="M21.3703 2.15825C33.0328 0.342894 47.1214 4.53218 60.7326 2.15825C71.6255 0.166013 79.3616 5.19316 80.4138 20.9635C82.382 52.0015 78.6114 79.5763 80.4138 96.8827C77.1499 107.542 73.9736 114.04 60.7326 115.688C50.4926 118.714 34.8353 119.179 21.3703 115.688C9.3959 117.596 2.9849 108.855 1.68906 96.8827C2.03007 75.5825 -2.27641 52.83 1.68906 20.9635C3.51103 7.62294 7.25241 -0.522892 21.3703 2.15825Z" fill="white"/>
<path d="M21.3703 2.15824C29.0966 0.0542878 38.0213 1.78586 60.7326 2.15824M21.3703 2.15824C36.5306 2.9961 51.9735 2.35374 60.7326 2.15824M21.3703 2.15824C8.92824 0.975931 3.55002 8.24667 1.68907 20.9635M21.3703 2.15824C8.79184 0.138073 1.38703 6.43131 1.68907 20.9635M60.7326 2.15824C74.7628 0.817669 81.3687 6.79438 80.4138 20.9635M60.7326 2.15824C74.49 3.7781 80.8523 7.34365 80.4138 20.9635M80.4138 20.9635C79.2252 52.5321 80.5405 83.4118 80.4138 96.8827M80.4138 20.9635C79.5077 42.4033 80.3846 62.5398 80.4138 96.8827M80.4138 96.8827C81.0666 111.015 73.7008 116.712 60.7326 115.688M80.4138 96.8827C80.2969 110.968 73.009 113.649 60.7326 115.688M60.7326 115.688C49.3331 115.316 41.9673 116.293 21.3703 115.688M60.7326 115.688C52.032 116.125 43.5555 115.353 21.3703 115.688M21.3703 115.688C6.55091 115.316 0.968078 110.754 1.68907 96.8827M21.3703 115.688C8.23648 115.25 2.92645 107.877 1.68907 96.8827M1.68907 96.8827C0.792701 67.5484 0.821931 40.56 1.68907 20.9635M1.68907 96.8827C1.48447 81.1123 2.67313 66.9805 1.68907 20.9635" stroke="#1E1E1E" stroke-width="2" stroke-linecap="round"/>
<path d="M10.2779 84.2892C20.9856 84.2892 63.8361 84.2892 74.5438 84.2892" stroke="#1E1E1E" stroke-width="2" stroke-linecap="round"/>
<path d="M22.6636 2.05286C31.2571 2.05286 39.8603 2.05286 58.119 2.05286C60.5353 2.05286 61.7532 3.20724 61.7532 5.52531C61.7532 8.1506 61.7532 10.7852 61.7532 12.4609C61.7532 14.7697 60.5353 15.9241 58.119 15.9241C44.5857 15.9241 31.0427 15.9241 22.6636 15.9241C20.2376 15.9241 19.0294 14.7697 19.0294 12.4609C19.0294 10.2825 19.0294 8.11336 19.0294 5.52531C19.0294 3.20724 20.2376 2.05286 22.6636 2.05286Z" fill="white"/>
<path d="M22.6636 2.05286C29.9028 2.05286 37.1517 2.05286 58.119 2.05286M22.6636 2.05286C36.1969 2.05286 49.7301 2.05286 58.119 2.05286M22.6636 2.05286C20.2376 2.05286 19.0294 3.20724 19.0294 5.52531M58.119 2.05286C60.5353 2.05286 61.7532 3.20724 61.7532 5.52531M61.7532 5.52531C61.7532 8.0575 61.7532 10.599 61.7532 12.4609M61.7532 5.52531C61.7532 8.03888 61.7532 10.5525 61.7532 12.4609M61.7532 12.4609C61.7532 14.7697 60.5353 15.924 58.119 15.924M58.119 15.924C48.5999 15.924 39.0711 15.924 22.6636 15.924M58.119 15.924C46.8851 15.924 35.6415 15.924 22.6636 15.924M22.6636 15.924C20.2376 15.924 19.0294 14.7697 19.0294 12.4609M19.0294 12.4609C19.0294 10.7014 19.0294 8.95122 19.0294 5.52531M19.0294 12.4609C19.0294 10.7014 19.0294 8.94191 19.0294 5.52531" stroke="#1E1E1E" stroke-width="2" stroke-linecap="round"/>
<path d="M22.5565 6.44537C22.7528 6.44537 22.955 6.47174 23.163 6.52448C23.371 6.57428 23.5614 6.6402 23.7343 6.72223C23.9071 6.80133 24.0492 6.89069 24.1605 6.9903C24.2719 7.0899 24.3275 7.18658 24.3275 7.28033C24.3275 7.32721 24.307 7.37994 24.266 7.43854C24.225 7.4942 24.1752 7.5484 24.1166 7.60114C24.058 7.65094 23.9935 7.69342 23.9232 7.72858C23.8558 7.7608 23.7958 7.77692 23.743 7.77692C23.6727 7.77692 23.5936 7.74762 23.5057 7.68903C23.4208 7.63043 23.3256 7.56598 23.2201 7.49567C23.1176 7.42242 23.0048 7.35651 22.8817 7.29791C22.7587 7.23932 22.6254 7.21002 22.4818 7.21002C22.3881 7.21002 22.3104 7.23346 22.2489 7.28033C22.1903 7.32428 22.161 7.38727 22.161 7.4693C22.161 7.54254 22.1962 7.61725 22.2665 7.69342C22.3368 7.76666 22.4291 7.84283 22.5433 7.92194C22.6605 8.00104 22.7924 8.08453 22.9388 8.17242C23.0853 8.26031 23.2347 8.35406 23.3871 8.45367C23.5424 8.55328 23.6932 8.66168 23.8397 8.77887C23.9862 8.89606 24.1166 9.0235 24.2308 9.16119C24.348 9.29889 24.4418 9.44977 24.5121 9.61383C24.5824 9.77496 24.6176 9.95074 24.6176 10.1412C24.6176 10.3052 24.5883 10.4547 24.5297 10.5894C24.4711 10.7242 24.3876 10.8399 24.2792 10.9366C24.1708 11.0333 24.0419 11.108 23.8925 11.1607C23.743 11.2134 23.579 11.2398 23.4003 11.2398C23.1747 11.2398 22.9667 11.2047 22.7762 11.1343C22.5858 11.067 22.4218 10.9732 22.2841 10.8531C22.1464 10.733 22.038 10.5894 21.9589 10.4224C21.8827 10.2554 21.8446 10.0723 21.8446 9.87311C21.8446 9.6153 21.89 9.4278 21.9808 9.31061C22.0746 9.19342 22.2211 9.13483 22.4203 9.13483C22.5433 9.13483 22.6415 9.15826 22.7147 9.20514C22.788 9.25201 22.8246 9.30914 22.8246 9.37653C22.8246 9.41168 22.8187 9.4483 22.807 9.48639C22.7953 9.52155 22.7821 9.55963 22.7675 9.60065C22.7557 9.63873 22.744 9.67975 22.7323 9.72369C22.7235 9.76764 22.7191 9.81158 22.7191 9.85553C22.7191 9.9317 22.7367 10.0049 22.7719 10.0753C22.807 10.1456 22.8539 10.2071 22.9125 10.2598C22.974 10.3155 23.0443 10.3594 23.1234 10.3917C23.2025 10.4239 23.286 10.44 23.3739 10.44C23.6083 10.44 23.7255 10.3433 23.7255 10.15C23.7255 9.99762 23.6654 9.85406 23.5453 9.7193C23.4252 9.5816 23.2743 9.4483 23.0927 9.3194C22.911 9.18756 22.7147 9.05573 22.5038 8.92389C22.2958 8.79205 22.101 8.65436 21.9193 8.5108C21.7377 8.36725 21.5868 8.2149 21.4667 8.05377C21.3466 7.88971 21.2865 7.71246 21.2865 7.52203C21.2865 7.36383 21.3187 7.21881 21.3832 7.08698C21.4506 6.95514 21.5414 6.84235 21.6556 6.7486C21.7699 6.65192 21.9032 6.57721 22.0555 6.52448C22.2108 6.47174 22.3778 6.44537 22.5565 6.44537ZM24.8329 8.80084C24.8329 8.75104 24.8387 8.69537 24.8505 8.63385C24.8622 8.57233 24.868 8.50494 24.868 8.4317C24.868 8.3819 24.8461 8.34381 24.8021 8.31744C24.7611 8.29108 24.7142 8.26178 24.6615 8.22955C24.6088 8.19733 24.5604 8.15631 24.5165 8.10651C24.4755 8.0567 24.455 7.98492 24.455 7.89117C24.455 7.82379 24.4725 7.75641 24.5077 7.68903C24.5458 7.62164 24.6 7.56012 24.6703 7.50446C24.8431 7.37555 25.0219 7.25983 25.2064 7.15729C25.3939 7.05475 25.58 6.96832 25.7645 6.89801C25.952 6.8277 26.1366 6.7735 26.3182 6.73541C26.4999 6.69733 26.6742 6.67828 26.8412 6.67828C27.1224 6.67828 27.3861 6.73102 27.6322 6.83649C27.8812 6.93903 28.0966 7.08112 28.2782 7.26276C28.4628 7.44147 28.6078 7.6524 28.7133 7.89557C28.8217 8.1358 28.8759 8.39362 28.8759 8.66901C28.8759 8.93854 28.8187 9.19489 28.7045 9.43805C28.5931 9.67828 28.4423 9.88922 28.2518 10.0709C28.0614 10.2525 27.8373 10.3961 27.5795 10.5015C27.3246 10.6099 27.0551 10.6641 26.7709 10.6641C26.4926 10.6641 26.2347 10.6172 25.9974 10.5235C25.7601 10.4297 25.5551 10.3008 25.3822 10.1368C25.2094 9.96979 25.0746 9.7735 24.9779 9.54791C24.8812 9.3194 24.8329 9.07037 24.8329 8.80084ZM26.8676 9.87311C26.9906 9.87311 27.118 9.84821 27.2499 9.7984C27.3817 9.7486 27.5018 9.67682 27.6102 9.58307C27.7216 9.48639 27.8124 9.3692 27.8827 9.23151C27.9559 9.09381 27.9926 8.93854 27.9926 8.76569C27.9926 8.5899 27.9603 8.42584 27.8959 8.2735C27.8314 8.12115 27.7421 7.98932 27.6278 7.87799C27.5165 7.76373 27.3832 7.67438 27.2279 7.60992C27.0756 7.54547 26.91 7.51324 26.7313 7.51324C26.4061 7.51324 26.1571 7.59821 25.9843 7.76813C25.8114 7.93512 25.725 8.19293 25.725 8.54156C25.725 8.73199 25.7528 8.90924 25.8085 9.0733C25.8671 9.23444 25.9476 9.37506 26.0502 9.49518C26.1527 9.61237 26.2728 9.70465 26.4105 9.77203C26.5511 9.83942 26.7035 9.87311 26.8676 9.87311ZM29.8427 10.4488C29.8221 10.0591 29.7885 9.70026 29.7416 9.37213C29.6976 9.04108 29.6508 8.7525 29.601 8.50641C29.5541 8.26031 29.5116 8.0611 29.4735 7.90875C29.4384 7.75641 29.4208 7.66119 29.4208 7.62311C29.4208 7.56744 29.4413 7.51324 29.4823 7.46051C29.5262 7.40778 29.5804 7.36237 29.6449 7.32428C29.7094 7.28326 29.7782 7.25104 29.8514 7.2276C29.9276 7.20416 29.9965 7.19244 30.058 7.19244C30.1078 7.19244 30.1503 7.20123 30.1854 7.21881C30.2235 7.23639 30.2499 7.26569 30.2645 7.3067C30.2792 7.35651 30.2924 7.40924 30.3041 7.4649C30.3187 7.51764 30.3334 7.58209 30.348 7.65826C30.3656 7.76666 30.389 7.82086 30.4183 7.82086C30.4506 7.82086 30.4872 7.77252 30.5282 7.67584C30.5868 7.54108 30.6498 7.42975 30.7172 7.34186C30.7845 7.25397 30.8563 7.18512 30.9325 7.13531C31.0116 7.08258 31.0922 7.04596 31.1742 7.02545C31.2592 7.00494 31.347 6.99469 31.4379 6.99469C31.7133 6.99469 31.9462 7.10309 32.1366 7.31989C32.33 7.53668 32.4808 7.85016 32.5892 8.26031C32.6039 8.30719 32.6171 8.33795 32.6288 8.3526C32.6405 8.36432 32.6537 8.37018 32.6683 8.37018C32.683 8.37018 32.6976 8.36432 32.7123 8.3526C32.7299 8.33795 32.746 8.31012 32.7606 8.2691C32.8309 8.07867 32.913 7.91754 33.0067 7.78571C33.1005 7.65094 33.1971 7.54254 33.2968 7.46051C33.3993 7.37555 33.5033 7.31403 33.6088 7.27594C33.7142 7.23785 33.8153 7.21881 33.912 7.21881C34.0907 7.21881 34.2518 7.28473 34.3954 7.41656C34.5419 7.54547 34.6708 7.74615 34.7821 8.01862C34.8964 8.28815 34.9945 8.63092 35.0765 9.04694C35.1615 9.46002 35.2318 9.95074 35.2875 10.5191C35.2875 10.6773 35.2391 10.7872 35.1425 10.8487C35.0458 10.9131 34.9139 10.9454 34.7469 10.9454C34.6385 10.9454 34.5536 10.9219 34.4921 10.8751C34.4305 10.8282 34.3954 10.7667 34.3866 10.6905C34.3485 10.2833 34.306 9.92145 34.2592 9.60504C34.2152 9.28571 34.1669 9.01764 34.1141 8.80084C34.0614 8.58112 34.0028 8.41412 33.9384 8.29987C33.8768 8.18561 33.808 8.12848 33.7318 8.12848C33.6937 8.12848 33.6454 8.15631 33.5868 8.21198C33.5311 8.26764 33.4711 8.37018 33.4066 8.51959C33.3422 8.66608 33.2748 8.86823 33.2045 9.12604C33.1342 9.38092 33.0668 9.70758 33.0023 10.106C32.9847 10.2173 32.9305 10.3023 32.8397 10.3609C32.7518 10.4195 32.6434 10.4488 32.5145 10.4488C32.3651 10.4488 32.2611 10.4254 32.2025 10.3785C32.1469 10.3316 32.1161 10.2525 32.1102 10.1412C32.0985 9.94781 32.078 9.75592 32.0487 9.56549C32.0223 9.37213 31.9886 9.18903 31.9476 9.01617C31.9066 8.84039 31.8612 8.67926 31.8114 8.53278C31.7616 8.38336 31.7089 8.25446 31.6532 8.14606C31.5975 8.03473 31.5404 7.9483 31.4818 7.88678C31.4232 7.82526 31.3661 7.79449 31.3104 7.79449C31.2372 7.79449 31.1654 7.84576 31.0951 7.9483C31.0277 8.05084 30.9662 8.19586 30.9105 8.38336C30.8578 8.57086 30.8153 8.79645 30.7831 9.06012C30.7509 9.32379 30.7347 9.61823 30.7347 9.94342C30.7347 9.99908 30.7362 10.0547 30.7391 10.1104C30.7421 10.1631 30.7435 10.2188 30.7435 10.2774C30.7435 10.3653 30.7289 10.4371 30.6996 10.4927C30.6732 10.5484 30.6337 10.5923 30.5809 10.6246C30.5311 10.6568 30.4725 10.6788 30.4052 10.6905C30.3378 10.7022 30.2645 10.7081 30.1854 10.7081C30.1122 10.7081 30.0536 10.7022 30.0096 10.6905C29.9657 10.6817 29.932 10.6671 29.9086 10.6465C29.8851 10.626 29.869 10.5982 29.8602 10.563C29.8514 10.5308 29.8456 10.4927 29.8427 10.4488ZM38.601 6.41901C38.7621 6.41901 38.9174 6.44391 39.0668 6.49371C39.2162 6.54352 39.348 6.61237 39.4623 6.70026C39.5765 6.78815 39.6674 6.89362 39.7347 7.01666C39.8051 7.13971 39.8402 7.27594 39.8402 7.42535C39.8402 7.48688 39.8256 7.54694 39.7963 7.60553C39.7699 7.66119 39.7333 7.711 39.6864 7.75494C39.6395 7.79596 39.5853 7.82965 39.5238 7.85602C39.4652 7.87946 39.4037 7.89117 39.3392 7.89117C39.3334 7.89117 39.3275 7.89264 39.3217 7.89557C39.3187 7.89557 39.3143 7.89557 39.3085 7.89557C39.3026 7.8985 39.2968 7.89996 39.2909 7.89996L39.3085 8.25153C39.3202 8.67047 39.3788 8.97662 39.4843 9.16998C39.5927 9.36334 39.7333 9.46002 39.9061 9.46002C39.9677 9.46002 40.0219 9.45416 40.0687 9.44244C40.1185 9.43073 40.1639 9.41754 40.205 9.40289C40.2489 9.38531 40.2899 9.37067 40.328 9.35895C40.3661 9.34723 40.4042 9.34137 40.4423 9.34137C40.5096 9.34137 40.5682 9.37067 40.618 9.42926C40.6708 9.48785 40.6971 9.55817 40.6971 9.6402C40.6971 9.72223 40.6649 9.80426 40.6005 9.88629C40.5389 9.96832 40.4569 10.043 40.3544 10.1104C40.2518 10.1749 40.1361 10.2276 40.0072 10.2686C39.8783 10.3096 39.7479 10.3301 39.6161 10.3301C39.3876 10.3301 39.1869 10.2364 39.014 10.0489C38.8412 9.85846 38.7181 9.58014 38.6449 9.21393C38.6273 9.15533 38.6039 9.12604 38.5746 9.12604C38.5394 9.12604 38.5087 9.14362 38.4823 9.17877C38.1923 9.54498 37.8832 9.82037 37.5551 10.0049C37.2269 10.1866 36.9032 10.2774 36.5839 10.2774C36.4344 10.2774 36.2997 10.2554 36.1796 10.2115C36.0594 10.1675 35.9569 10.106 35.8719 10.0269C35.7899 9.94489 35.7255 9.84674 35.6786 9.73248C35.6346 9.6153 35.6127 9.48492 35.6127 9.34137C35.6127 9.13922 35.6566 8.92682 35.7445 8.70416C35.8353 8.48151 35.9569 8.26178 36.1093 8.04498C36.2616 7.82819 36.4374 7.62164 36.6366 7.42535C36.8387 7.22906 37.0497 7.05621 37.2694 6.9068C37.4921 6.75739 37.7177 6.63873 37.9462 6.55084C38.1747 6.46295 38.3929 6.41901 38.601 6.41901ZM38.4559 7.93951C38.5087 7.8399 38.557 7.76813 38.601 7.72418C38.6449 7.67731 38.7079 7.64655 38.7899 7.6319C38.8544 7.62311 38.8866 7.6026 38.8866 7.57037C38.8866 7.54694 38.8778 7.52203 38.8602 7.49567C38.8046 7.41949 38.746 7.35358 38.6844 7.29791C38.6229 7.23932 38.5409 7.21002 38.4384 7.21002C38.327 7.21002 38.2025 7.24225 38.0648 7.3067C37.9271 7.37115 37.7865 7.45758 37.6429 7.56598C37.5023 7.67145 37.3632 7.79303 37.2255 7.93073C37.0907 8.06549 36.9706 8.20465 36.8651 8.34821C36.7596 8.49176 36.6747 8.63385 36.6102 8.77448C36.5458 8.9151 36.5135 9.04108 36.5135 9.1524C36.5135 9.25201 36.5399 9.32965 36.5927 9.38531C36.6483 9.44098 36.723 9.46881 36.8168 9.46881C37.057 9.46881 37.3192 9.34137 37.6034 9.08649C37.8876 8.8316 38.1718 8.44928 38.4559 7.93951ZM41.2509 5.18414C41.2509 5.02887 41.2948 4.92047 41.3827 4.85895C41.4706 4.79449 41.6156 4.76227 41.8177 4.76227C41.891 4.76227 41.9525 4.76959 42.0023 4.78424C42.0551 4.79596 42.099 4.8194 42.1342 4.85455C42.1722 4.88971 42.2015 4.93658 42.222 4.99518C42.2455 5.05084 42.2645 5.12262 42.2792 5.21051C42.3143 5.48297 42.3524 5.76422 42.3934 6.05426C42.4374 6.3443 42.4828 6.6358 42.5297 6.92877C42.5472 7.06061 42.6161 7.12653 42.7362 7.12653C42.7684 7.12653 42.8212 7.1236 42.8944 7.11774C42.9706 7.10895 43.0599 7.10016 43.1625 7.09137C43.265 7.07965 43.3749 7.06793 43.4921 7.05621C43.6122 7.04449 43.7308 7.03424 43.848 7.02545C43.9681 7.01373 44.0809 7.00494 44.1864 6.99908C44.2948 6.9903 44.39 6.9859 44.472 6.9859C44.5365 6.9859 44.5878 6.99908 44.6259 7.02545C44.6639 7.04889 44.6932 7.08112 44.7137 7.12213C44.7372 7.16022 44.7518 7.20416 44.7577 7.25397C44.7665 7.30084 44.7709 7.34918 44.7709 7.39899C44.7709 7.44293 44.7621 7.48834 44.7445 7.53522C44.7299 7.58209 44.7079 7.62457 44.6786 7.66266C44.6522 7.69781 44.6185 7.72711 44.5775 7.75055C44.5365 7.77399 44.4896 7.78571 44.4369 7.78571C44.182 7.78571 43.9242 7.79449 43.6635 7.81207C43.4056 7.82672 43.1478 7.84723 42.89 7.8736C42.7582 7.89117 42.6923 7.95709 42.6923 8.07135C42.6923 8.08014 42.6937 8.09186 42.6967 8.10651C42.6996 8.11823 42.701 8.12848 42.701 8.13727C42.7362 8.39215 42.7684 8.63092 42.7977 8.85358C42.83 9.07623 42.8563 9.27545 42.8768 9.45123C42.9003 9.62408 42.9178 9.7691 42.9296 9.88629C42.9442 10.0005 42.9515 10.0767 42.9515 10.1148C42.9515 10.2203 42.9413 10.3082 42.9208 10.3785C42.9003 10.4517 42.8666 10.5103 42.8197 10.5543C42.7728 10.6011 42.7098 10.6334 42.6307 10.6509C42.5546 10.6714 42.4579 10.6817 42.3407 10.6817C42.2294 10.6817 42.1473 10.6553 42.0946 10.6026C42.0419 10.5499 42.0126 10.4693 42.0067 10.3609C41.9891 10.0152 41.9613 9.66803 41.9232 9.3194C41.8851 8.96783 41.8412 8.61774 41.7914 8.2691C41.765 8.14313 41.6991 8.08014 41.5936 8.08014C41.5848 8.08014 41.5746 8.0816 41.5629 8.08453C41.5511 8.08746 41.5409 8.08893 41.5321 8.08893C41.3505 8.12994 41.1791 8.17096 41.0179 8.21198C40.8568 8.25299 40.7059 8.29694 40.5653 8.34381C40.4862 8.37018 40.4159 8.38922 40.3544 8.40094C40.2928 8.40973 40.2372 8.41412 40.1874 8.41412C40.12 8.41412 40.0702 8.38483 40.038 8.32623C40.0057 8.26471 39.9896 8.18854 39.9896 8.09772C39.9896 8.06549 39.9926 8.02887 39.9984 7.98785C40.0043 7.94391 40.016 7.90143 40.0336 7.86041C40.0482 7.81647 40.0717 7.77692 40.1039 7.74176C40.1332 7.70367 40.1742 7.67291 40.2269 7.64948C40.35 7.59967 40.514 7.5484 40.7191 7.49567C40.9242 7.44 41.1556 7.38873 41.4135 7.34186C41.472 7.32721 41.5175 7.30377 41.5497 7.27155C41.5848 7.23639 41.6024 7.18512 41.6024 7.11774C41.6024 7.10309 41.6024 7.08844 41.6024 7.07379C41.6024 7.05621 41.5995 7.03864 41.5936 7.02106C41.5468 6.75153 41.5013 6.5069 41.4574 6.28717C41.4164 6.06451 41.3798 5.87408 41.3475 5.71588C41.3182 5.55768 41.2948 5.43317 41.2772 5.34235C41.2596 5.25153 41.2509 5.19879 41.2509 5.18414ZM44.5731 8.80084C44.5731 8.75104 44.579 8.69537 44.5907 8.63385C44.6024 8.57233 44.6083 8.50494 44.6083 8.4317C44.6083 8.3819 44.5863 8.34381 44.5424 8.31744C44.5013 8.29108 44.4545 8.26178 44.4017 8.22955C44.349 8.19733 44.3007 8.15631 44.2567 8.10651C44.2157 8.0567 44.1952 7.98492 44.1952 7.89117C44.1952 7.82379 44.2128 7.75641 44.2479 7.68903C44.286 7.62164 44.3402 7.56012 44.4105 7.50446C44.5834 7.37555 44.7621 7.25983 44.9467 7.15729C45.1342 7.05475 45.3202 6.96832 45.5048 6.89801C45.6923 6.8277 45.8768 6.7735 46.0585 6.73541C46.2401 6.69733 46.4144 6.67828 46.5814 6.67828C46.8627 6.67828 47.1263 6.73102 47.3724 6.83649C47.6215 6.93903 47.8368 7.08112 48.0184 7.26276C48.203 7.44147 48.348 7.6524 48.4535 7.89557C48.5619 8.1358 48.6161 8.39362 48.6161 8.66901C48.6161 8.93854 48.559 9.19489 48.4447 9.43805C48.3334 9.67828 48.1825 9.88922 47.9921 10.0709C47.8016 10.2525 47.5775 10.3961 47.3197 10.5015C47.0648 10.6099 46.7953 10.6641 46.5111 10.6641C46.2328 10.6641 45.975 10.6172 45.7377 10.5235C45.5004 10.4297 45.2953 10.3008 45.1224 10.1368C44.9496 9.96979 44.8148 9.7735 44.7181 9.54791C44.6215 9.3194 44.5731 9.07037 44.5731 8.80084ZM46.6078 9.87311C46.7308 9.87311 46.8583 9.84821 46.9901 9.7984C47.1219 9.7486 47.2421 9.67682 47.3505 9.58307C47.4618 9.48639 47.5526 9.3692 47.6229 9.23151C47.6962 9.09381 47.7328 8.93854 47.7328 8.76569C47.7328 8.5899 47.7006 8.42584 47.6361 8.2735C47.5717 8.12115 47.4823 7.98932 47.368 7.87799C47.2567 7.76373 47.1234 7.67438 46.9681 7.60992C46.8158 7.54547 46.6503 7.51324 46.4716 7.51324C46.1464 7.51324 45.8973 7.59821 45.7245 7.76813C45.5516 7.93512 45.4652 8.19293 45.4652 8.54156C45.4652 8.73199 45.493 8.90924 45.5487 9.0733C45.6073 9.23444 45.6879 9.37506 45.7904 9.49518C45.8929 9.61237 46.0131 9.70465 46.1508 9.77203C46.2914 9.83942 46.4437 9.87311 46.6078 9.87311ZM47.8163 4.91168C47.8163 4.95563 47.7943 4.99811 47.7504 5.03912C47.7094 5.08014 47.6522 5.12555 47.579 5.17535C47.5087 5.22516 47.4252 5.28375 47.3285 5.35114C47.2318 5.41559 47.1293 5.49615 47.0209 5.59283C46.9154 5.68658 46.8055 5.80084 46.6913 5.93561C46.577 6.06744 46.4657 6.22418 46.3573 6.40582C46.3339 6.44684 46.3002 6.47467 46.2562 6.48932C46.2152 6.50397 46.1683 6.51129 46.1156 6.51129C46.0658 6.51129 46.016 6.50543 45.9662 6.49371C45.9193 6.47906 45.8754 6.46149 45.8344 6.44098C45.7963 6.41754 45.764 6.39117 45.7377 6.36188C45.7142 6.32965 45.7025 6.29596 45.7025 6.2608C45.7025 6.1817 45.726 6.08356 45.7728 5.96637C45.8226 5.84625 45.8871 5.72174 45.9662 5.59283C46.0482 5.461 46.142 5.33063 46.2474 5.20172C46.3558 5.06989 46.4686 4.9527 46.5858 4.85016C46.7059 4.74469 46.826 4.65973 46.9462 4.59528C47.0692 4.53082 47.1879 4.4986 47.3021 4.4986C47.3549 4.4986 47.4105 4.51324 47.4691 4.54254C47.5306 4.57184 47.5863 4.60846 47.6361 4.6524C47.6888 4.69342 47.7313 4.73883 47.7635 4.78864C47.7987 4.83551 47.8163 4.87653 47.8163 4.91168ZM51.5736 6.97272C51.4652 6.97272 51.37 7.00201 51.288 7.06061C51.2059 7.11627 51.1356 7.19537 51.077 7.29791C51.0184 7.39752 50.9701 7.51617 50.932 7.65387C50.8939 7.78864 50.8632 7.93658 50.8397 8.09772C50.8163 8.25885 50.8002 8.42731 50.7914 8.60309C50.7826 8.77887 50.7782 8.95612 50.7782 9.13483C50.7782 9.3692 50.787 9.60065 50.8046 9.82916C50.8251 10.0547 50.8353 10.2642 50.8353 10.4576C50.8353 10.5836 50.7885 10.6817 50.6947 10.752C50.601 10.8253 50.4677 10.8619 50.2948 10.8619C50.2626 10.8619 50.226 10.8589 50.1849 10.8531C50.1439 10.8472 50.1044 10.8355 50.0663 10.8179C50.0311 10.8004 49.9989 10.7755 49.9696 10.7432C49.9432 10.7139 49.9286 10.6729 49.9257 10.6202C49.8993 10.3624 49.8612 10.0987 49.8114 9.82916C49.7616 9.55963 49.6986 9.29156 49.6224 9.02496C49.5492 8.75543 49.4598 8.48883 49.3544 8.22516C49.2518 7.96149 49.1332 7.70367 48.9984 7.45172C48.975 7.40778 48.9545 7.36676 48.9369 7.32867C48.9222 7.29059 48.9149 7.25397 48.9149 7.21881C48.9149 7.17487 48.934 7.12799 48.972 7.07819C49.0131 7.02545 49.0629 6.97711 49.1215 6.93317C49.183 6.88922 49.2489 6.85406 49.3192 6.8277C49.3925 6.7984 49.4628 6.78375 49.5302 6.78375C49.6415 6.78375 49.7396 6.86139 49.8246 7.01666C49.9095 7.16901 49.9886 7.41364 50.0619 7.75055C50.0765 7.80914 50.0883 7.85016 50.097 7.8736C50.1058 7.89703 50.1176 7.90875 50.1322 7.90875C50.1644 7.90875 50.1849 7.85895 50.1937 7.75934C50.2289 7.48102 50.2889 7.24225 50.3739 7.04303C50.4589 6.84088 50.5643 6.67535 50.6903 6.54645C50.8192 6.41461 50.9657 6.31793 51.1298 6.25641C51.2968 6.19489 51.4799 6.16412 51.6791 6.16412C51.7933 6.16412 51.9091 6.17438 52.0262 6.19489C52.1434 6.21539 52.2489 6.24615 52.3427 6.28717C52.4364 6.32819 52.5126 6.37799 52.5712 6.43658C52.6298 6.49518 52.6591 6.5611 52.6591 6.63434C52.6591 6.68707 52.6473 6.75006 52.6239 6.8233C52.6034 6.89362 52.5756 6.96246 52.5404 7.02985C52.5052 7.0943 52.4642 7.14996 52.4174 7.19684C52.3734 7.24078 52.328 7.26276 52.2811 7.26276C52.2284 7.26276 52.1771 7.24811 52.1273 7.21881C52.0775 7.18658 52.0233 7.15289 51.9647 7.11774C51.9091 7.08258 51.849 7.05035 51.7845 7.02106C51.723 6.98883 51.6527 6.97272 51.5736 6.97272ZM53.0414 5.7774C52.9564 5.7774 52.8759 5.76569 52.7997 5.74225C52.7264 5.71588 52.662 5.68073 52.6063 5.63678C52.5536 5.5899 52.5111 5.53571 52.4789 5.47418C52.4467 5.41266 52.4305 5.34528 52.4305 5.27203C52.4305 5.14899 52.4789 5.04938 52.5756 4.97321C52.6752 4.89703 52.807 4.85895 52.9711 4.85895C53.0472 4.85895 53.1205 4.8736 53.1908 4.90289C53.2611 4.92926 53.3226 4.96588 53.3754 5.01276C53.431 5.05963 53.475 5.1153 53.5072 5.17975C53.5394 5.24127 53.5555 5.30573 53.5555 5.37311C53.5555 5.49908 53.5087 5.59869 53.4149 5.67194C53.3241 5.74225 53.1996 5.7774 53.0414 5.7774ZM52.4393 7.11774C52.4393 7.0152 52.4833 6.9317 52.5712 6.86725C52.662 6.79987 52.7806 6.76617 52.9271 6.76617C53.1908 6.76617 53.3314 6.85699 53.349 7.03864C53.3607 7.16461 53.3724 7.3067 53.3842 7.4649C53.3988 7.62311 53.412 7.79156 53.4237 7.97028C53.4384 8.14606 53.4501 8.32916 53.4589 8.51959C53.4706 8.70709 53.4808 8.89313 53.4896 9.0777C53.4984 9.25934 53.5057 9.43512 53.5116 9.60504C53.5175 9.77496 53.5204 9.93024 53.5204 10.0709C53.5204 10.2173 53.4677 10.3272 53.3622 10.4005C53.2596 10.4737 53.1088 10.5103 52.9095 10.5103C52.8187 10.5103 52.7469 10.4883 52.6942 10.4444C52.6444 10.4034 52.6195 10.3419 52.6195 10.2598C52.6195 9.85553 52.6093 9.4776 52.5887 9.12604C52.5712 8.77155 52.5507 8.4566 52.5272 8.18121C52.5067 7.90582 52.4862 7.67731 52.4657 7.49567C52.4481 7.3111 52.4393 7.18512 52.4393 7.11774ZM54.3905 8.80084C54.3905 8.75104 54.3964 8.69537 54.4081 8.63385C54.4198 8.57233 54.4257 8.50494 54.4257 8.4317C54.4257 8.3819 54.4037 8.34381 54.3597 8.31744C54.3187 8.29108 54.2719 8.26178 54.2191 8.22955C54.1664 8.19733 54.118 8.15631 54.0741 8.10651C54.0331 8.0567 54.0126 7.98492 54.0126 7.89117C54.0126 7.82379 54.0302 7.75641 54.0653 7.68903C54.1034 7.62164 54.1576 7.56012 54.2279 7.50446C54.4008 7.37555 54.5795 7.25983 54.764 7.15729C54.9515 7.05475 55.1376 6.96832 55.3221 6.89801C55.5096 6.8277 55.6942 6.7735 55.8759 6.73541C56.0575 6.69733 56.2318 6.67828 56.3988 6.67828C56.6801 6.67828 56.9437 6.73102 57.1898 6.83649C57.4388 6.93903 57.6542 7.08112 57.8358 7.26276C58.0204 7.44147 58.1654 7.6524 58.2709 7.89557C58.3793 8.1358 58.4335 8.39362 58.4335 8.66901C58.4335 8.93854 58.3763 9.19489 58.2621 9.43805C58.1508 9.67828 57.9999 9.88922 57.8094 10.0709C57.619 10.2525 57.3949 10.3961 57.1371 10.5015C56.8822 10.6099 56.6127 10.6641 56.3285 10.6641C56.0502 10.6641 55.7924 10.6172 55.5551 10.5235C55.3177 10.4297 55.1127 10.3008 54.9398 10.1368C54.767 9.96979 54.6322 9.7735 54.5355 9.54791C54.4388 9.3194 54.3905 9.07037 54.3905 8.80084ZM56.4252 9.87311C56.5482 9.87311 56.6757 9.84821 56.8075 9.7984C56.9393 9.7486 57.0594 9.67682 57.1678 9.58307C57.2792 9.48639 57.37 9.3692 57.4403 9.23151C57.5135 9.09381 57.5502 8.93854 57.5502 8.76569C57.5502 8.5899 57.5179 8.42584 57.4535 8.2735C57.389 8.12115 57.2997 7.98932 57.1854 7.87799C57.0741 7.76373 56.9408 7.67438 56.7855 7.60992C56.6332 7.54547 56.4677 7.51324 56.2889 7.51324C55.9637 7.51324 55.7147 7.59821 55.5419 7.76813C55.369 7.93512 55.2826 8.19293 55.2826 8.54156C55.2826 8.73199 55.3104 8.90924 55.3661 9.0733C55.4247 9.23444 55.5052 9.37506 55.6078 9.49518C55.7103 9.61237 55.8304 9.70465 55.9681 9.77203C56.1088 9.83942 56.2611 9.87311 56.4252 9.87311Z" fill="#1E1E1E"/>
<path d="M30.2229 33.62C29.9014 40.0994 30.1742 44.2142 30.2229 47.035C30.2619 44.5773 29.9014 41.9148 30.2229 33.62ZM30.2229 33.62C24.679 34.3741 18.7357 34.8675 12.5585 35.1002M30.2229 33.62C25.0688 34.2996 19.5736 34.6906 12.5585 35.1002M12.5585 35.1002C14.2636 39.2616 16.3486 43.6277 22.3017 51.2429M12.5585 35.1002C16.2609 41.4865 19.6516 47.7519 22.3017 51.2429M22.3017 51.2429C21.0253 56.177 17.7029 60.478 12.4514 70.9791M22.3017 51.2429C19.71 57.4058 16.0076 63.5874 12.4514 70.9791M12.4514 70.9791C17.8296 70.1599 25.5949 70.6161 31.4018 69.9644M12.4514 70.9791C18.0439 70.5043 23.6657 69.983 31.4018 69.9644M31.4018 69.9644C30.9634 67.004 31.2362 64.7604 30.7003 61.381C31.0705 65.4306 31.2362 67.8791 31.4018 69.9644Z" stroke="#1E1E1E" stroke-width="2" stroke-linecap="round"/>
<path d="M47.4998 35.6359C46.3501 38.2239 40.8062 45.9601 40.6114 51.49C40.4165 57.0198 45.4342 66.0035 46.3209 68.815M47.0126 36.6041C45.7753 39.2293 40.4068 46.649 40.2411 51.881C40.0755 57.1036 45.0835 65.175 46.0286 67.9865" stroke="#1E1E1E" stroke-width="2" stroke-linecap="round"/>
<path d="M66.1141 34.845C67.2248 37.4516 72.0087 45.4764 72.1841 50.8946C72.3595 56.322 67.9945 64.6913 67.1566 67.3817M65.6172 34.426C66.913 37.3399 72.9928 45.9698 73.2266 51.5462C73.4604 57.132 67.975 65.2964 67.0202 67.931" stroke="#1E1E1E" stroke-width="2" stroke-linecap="round"/>
<path d="M52.3276 39.5279C55.0947 39.0996 56.7218 40.6357 60.697 39.5279C65.5491 40.8964 64.3409 38.9134 64.8768 43.5216C66.2798 50.3828 66.3285 51.3696 64.8768 59.6551C67.6146 59.3758 60.7165 61.3308 60.697 63.6488C56.449 64.617 55.5624 62.5876 52.3276 63.6488C49.4631 61.8614 47.5048 59.1803 48.1478 59.6551C46.9884 53.3804 47.3586 51.0437 48.1478 43.5216C50.2426 41.7249 50.9636 36.586 52.3276 39.5279Z" fill="white"/>
<path d="M52.3276 39.5278C55.3187 40.254 58.7191 38.9134 60.697 39.5278M52.3276 39.5278C54.6172 39.1555 56.5366 39.4441 60.697 39.5278M52.3276 39.5278C49.1318 39.984 49.7846 42.3021 48.1478 43.5216M52.3276 39.5278C48.3719 40.9243 48.2647 40.9708 48.1478 43.5216M60.697 39.5278C62.1487 40.0864 64.6819 42.0787 64.8768 43.5216M60.697 39.5278C61.7297 39.8444 65.5685 40.6822 64.8768 43.5216M64.8768 43.5216C65.1593 48.4184 66.2311 55.0934 64.8768 59.655M64.8768 43.5216C64.4383 48.4371 64.5553 53.8459 64.8768 59.655M64.8768 59.655C63.3861 61.8986 65.3152 64.617 60.697 63.6488M64.8768 59.655C65.1106 60.7443 61.5544 64.2819 60.697 63.6488M60.697 63.6488C58.6412 63.3137 54.4126 64.1329 52.3276 63.6488M60.697 63.6488C58.8068 63.4813 56.2151 63.9933 52.3276 63.6488M52.3276 63.6488C50.1743 64.9242 49.2682 62.9227 48.1478 59.655M52.3276 63.6488C50.301 65.7807 49.5703 63.2485 48.1478 59.655M48.1478 59.655C46.9396 57.4208 47.417 52.5984 48.1478 43.5216M48.1478 59.655C48.1283 53.5852 48.7129 48.344 48.1478 43.5216" stroke="#1E1E1E" stroke-width="0.5" stroke-linecap="round"/>
<path d="M52.9009 40.5306C55.6972 40.2607 58.2694 40.3351 60.1108 40.5306M52.9009 40.5306C55.1321 40.5213 56.9833 40.6144 60.1108 40.5306M52.9009 40.5306C50.5431 40.5772 49.0913 41.9084 49.2959 43.9752M52.9009 40.5306C50.6697 39.8976 48.7113 42.3739 49.2959 43.9752M60.1108 40.5306C62.4102 41.1451 62.9461 41.8154 63.7061 43.9752M60.1108 40.5306C62.8584 40.4375 64.2517 42.1598 63.7061 43.9752M63.7061 43.9752C64.3296 49.1885 63.8035 54.4018 63.7061 59.2893M63.7061 43.9752C63.4722 47.7921 63.3553 51.218 63.7061 59.2893M63.7061 59.2893C64.6317 62.0729 62.6148 62.045 60.1108 62.7339M63.7061 59.2893C62.7512 61.9053 62.9656 62.8549 60.1108 62.7339M60.1108 62.7339C57.5679 62.92 55.3464 62.3801 52.9009 62.7339M60.1108 62.7339C57.7433 62.8642 55.7362 62.8363 52.9009 62.7339M52.9009 62.7339C51.0594 63.0411 49.6272 62.5104 49.2959 59.2893M52.9009 62.7339C51.2056 63.1993 48.2729 62.0356 49.2959 59.2893M49.2959 59.2893C49.0329 53.2009 49.6662 47.2987 49.2959 43.9752M49.2959 59.2893C49.559 53.0706 49.6369 47.5128 49.2959 43.9752" stroke="#1E1E1E" stroke-width="0.5" stroke-linecap="round"/>
<path d="M55.5386 46.0135C56.5324 45.7342 58.2374 45.5945 59.2313 46.06C60.2348 46.5255 61.1604 47.8847 61.5404 48.8063C61.9204 49.7186 61.9496 50.6403 61.5014 51.5526C61.063 52.4743 59.9133 53.7683 58.8902 54.2989C57.8672 54.8203 56.3765 54.9506 55.3535 54.7272C54.3304 54.5037 53.3659 53.7869 52.7423 52.9397C52.1187 52.1019 51.5147 50.6124 51.6024 49.6442C51.6998 48.676 52.528 47.7636 53.2879 47.1306C54.0479 46.4975 55.714 46.1252 56.1524 45.8459C56.5909 45.5573 55.9381 45.4456 55.9283 45.4549M57.7503 46.0135C58.8805 45.9948 59.7087 45.8086 60.2445 46.4696C60.7804 47.1306 60.8389 48.9273 60.9558 49.9886C61.0825 51.0499 61.4624 51.9622 60.9558 52.828C60.4589 53.6845 59.0948 55.0065 57.9452 55.1461C56.7955 55.295 55.0027 54.2896 54.0771 53.7031C53.1515 53.1166 52.9177 52.4091 52.411 51.6178C51.8946 50.8358 50.7255 49.8862 50.9983 48.9646C51.2711 48.0522 53.132 46.572 54.0479 46.1159C54.954 45.669 55.9283 46.2276 56.4739 46.2462C57.0098 46.2648 57.1267 46.209 57.2826 46.2183" stroke="#1E1E1E" stroke-width="0.5" stroke-linecap="round"/>
<path d="M54.7586 48.55C55.0216 48.5221 55.3139 48.8665 55.4893 48.9875C55.6744 49.1086 55.84 49.0899 55.84 49.2854C55.84 49.4809 55.6452 49.9464 55.4893 50.1512C55.3237 50.3467 55.0508 50.4584 54.8755 50.4957C54.7001 50.5329 54.5929 50.4957 54.4273 50.3653C54.2617 50.235 53.9596 49.8906 53.9012 49.723C53.8427 49.5554 54.0278 49.4996 54.0863 49.3785C54.1447 49.2575 54.1642 49.1365 54.2617 49.0061C54.3493 48.8758 54.5637 48.6431 54.6514 48.5779C54.7488 48.5127 54.778 48.6338 54.8268 48.6431M54.7293 48.4103C54.7683 48.3824 54.6806 48.8944 54.856 49.062C55.0411 49.2296 55.6842 49.2203 55.8108 49.4437C55.9375 49.6671 55.7718 50.2909 55.6062 50.3747C55.4503 50.4677 54.9924 50.0302 54.8462 49.9837C54.7001 49.9371 54.9437 50.0767 54.7098 50.0767C54.4857 50.0861 53.5699 50.1605 53.453 50.0209C53.3361 49.8812 53.9791 49.3599 54.0181 49.2482C54.057 49.1365 53.5699 49.3878 53.7063 49.3599C53.8427 49.332 54.6221 49.1458 54.8365 49.0713C55.0411 49.0061 54.9534 48.8851 54.9534 48.9224" stroke="#1E1E1E" stroke-width="0.5" stroke-linecap="round"/>
<path d="M58.2592 48.7086C58.493 48.718 58.8048 48.6062 58.9314 48.7552C59.0581 48.8948 59.0386 49.3603 59.0094 49.5931C58.9801 49.8351 58.8535 50.0399 58.7463 50.1796C58.6489 50.3099 58.5807 50.4309 58.3956 50.4216C58.2202 50.4123 57.8305 50.1982 57.6648 50.1144C57.5089 50.0306 57.5284 50.0306 57.4505 49.9189C57.3725 49.8072 57.2166 49.6396 57.2069 49.4348C57.1874 49.2207 57.1971 48.8204 57.353 48.6807C57.5089 48.5411 57.9766 48.6249 58.1325 48.5969C58.2981 48.5783 58.3176 48.4387 58.3079 48.5225M57.7135 48.8762C57.9181 48.9507 58.6684 48.8483 58.8925 49.0252C59.1166 49.2021 59.0971 49.8072 59.0484 49.9189C58.9899 50.0213 58.6684 49.6582 58.5904 49.6768C58.5125 49.7048 58.8048 49.9654 58.5709 50.0771C58.3371 50.1796 57.3725 50.3657 57.1777 50.3006C56.9925 50.2354 57.4992 49.7792 57.431 49.6768C57.3628 49.5837 56.7295 49.8072 56.7684 49.7234C56.8074 49.6489 57.4018 49.3417 57.6746 49.2021C57.9474 49.0624 58.3079 48.8855 58.4053 48.8948C58.5125 48.8948 58.2884 49.2021 58.2884 49.2207" stroke="#1E1E1E" stroke-width="0.5" stroke-linecap="round"/>
<path d="M56.5134 50.9967C56.8155 50.9781 57.1273 51.3133 57.3611 51.5181C57.5852 51.7229 57.7898 51.9835 57.897 52.2256C58.0041 52.4676 58.1211 52.7842 58.0041 52.9704C57.8872 53.1565 57.4683 53.2217 57.1955 53.3241C56.9227 53.4358 56.6888 53.6406 56.3673 53.622C56.0555 53.6127 55.5586 53.4824 55.2955 53.2403C55.0325 52.9983 54.7597 52.449 54.7694 52.1511C54.7792 51.8532 55.0617 51.6484 55.3443 51.4529C55.6268 51.2574 56.2991 50.9781 56.4647 50.9967C56.6206 51.0154 56.2894 51.4808 56.2991 51.546M56.494 51.2946C56.8739 51.2946 57.176 51.788 57.3806 51.8625C57.5852 51.937 57.5852 51.6205 57.7119 51.7415C57.8385 51.8718 58.3257 52.3373 58.1503 52.6259C57.9749 52.9145 56.9811 53.3707 56.6791 53.4917C56.377 53.6127 56.6498 53.352 56.3478 53.3614C56.0458 53.3614 55.0812 53.6313 54.8766 53.5103C54.672 53.3986 54.9935 52.961 55.1202 52.6631C55.2566 52.3745 55.432 51.9184 55.6463 51.7601C55.8704 51.5925 56.2991 51.7508 56.455 51.7043C56.6109 51.6577 56.6986 51.4901 56.6011 51.4622" stroke="#1E1E1E" stroke-width="0.5" stroke-linecap="round"/>
<path d="M57.0972 52.4913C57.0777 52.5564 57.0582 52.5564 57.0874 52.5751C57.1167 52.5844 57.2726 52.603 57.2921 52.5844C57.3018 52.5564 57.1654 52.4075 57.1751 52.4261C57.1849 52.4447 57.3505 52.6309 57.331 52.6775C57.3115 52.7333 57.1459 52.7892 57.0582 52.7426C56.9608 52.6961 56.7951 52.4447 56.7757 52.3796C56.7562 52.3144 56.8731 52.3796 56.9218 52.3516C56.9803 52.3144 57.1069 52.1282 57.1167 52.1934C57.1264 52.2492 56.9608 52.6495 56.9803 52.6868C56.9998 52.7333 57.2531 52.5285 57.2238 52.4354M57.1459 52.845C57.0972 52.7799 56.8634 52.2027 56.9121 52.1096C56.951 52.0072 57.4772 52.1748 57.4285 52.2492C57.3895 52.333 56.6782 52.5751 56.649 52.603C56.6295 52.6309 57.3018 52.3516 57.2921 52.4168C57.2921 52.482 56.649 52.9288 56.6295 53.0126C56.6003 53.0871 57.029 52.9381 57.1264 52.8823C57.2336 52.8171 57.2336 52.6402 57.2433 52.6402C57.2433 52.6402 57.1362 52.8916 57.1654 52.8823C57.1849 52.8823 57.4577 52.6495 57.37 52.603C57.2726 52.5564 56.5905 52.6775 56.61 52.5937" stroke="#1E1E1E" stroke-width="0.5" stroke-linecap="round"/>
<path d="M52.9699 45.7498C53.077 45.7777 53.4083 45.9639 53.6324 46.0849C53.8662 46.2059 54.2754 46.2711 54.3534 46.4945C54.4216 46.718 54.217 47.2021 54.0903 47.4255C53.9637 47.6396 53.7298 47.7048 53.5739 47.8072C53.4278 47.9189 53.3888 48.0865 53.1745 48.0492C52.9601 48.012 52.434 47.8444 52.3073 47.5931C52.1709 47.3417 52.3755 46.7924 52.4048 46.5411C52.434 46.299 52.2976 46.2618 52.4632 46.1222C52.6386 45.9825 53.3011 45.8056 53.4278 45.6846C53.5447 45.5636 53.2329 45.4146 53.2037 45.396M53.5934 45.2936C53.798 45.1819 54.2365 45.3588 54.2657 45.545C54.2852 45.7405 53.7396 46.0756 53.7298 46.4294C53.7201 46.7738 54.3047 47.4441 54.2267 47.6489C54.139 47.8444 53.3986 47.5558 53.2329 47.6489C53.0576 47.7327 53.3791 48.254 53.1842 48.1889C52.9991 48.133 52.2684 47.5931 52.093 47.2858C51.9176 46.9786 52.1125 46.6063 52.1417 46.3549C52.1807 46.0942 52.1417 45.9267 52.3171 45.7218C52.4925 45.517 53.0576 45.2005 53.194 45.1353C53.3401 45.0702 53.1452 45.2284 53.1452 45.3402" fill="white"/>
<path d="M53.0965 45.7125C53.2914 45.6659 53.6908 45.7497 53.8565 45.8428C54.0221 45.9452 54.0416 46.0383 54.1195 46.2897C54.1877 46.541 54.3728 47.0624 54.2949 47.351C54.217 47.6489 53.9149 47.9654 53.6811 48.0492C53.4375 48.133 53.0478 47.9468 52.8529 47.8444C52.6581 47.742 52.5704 47.6489 52.5119 47.4254C52.4534 47.202 52.4924 46.7086 52.4924 46.5131C52.4924 46.3176 52.3852 46.4014 52.5216 46.2524C52.6581 46.1035 53.2524 45.7497 53.3206 45.5915C53.3888 45.4425 52.9406 45.2843 52.9309 45.3215M53.0478 45.2377C53.2621 45.1074 54.0026 45.3867 54.1 45.6194C54.1975 45.8521 53.6031 46.3735 53.6226 46.6434C53.6421 46.9227 54.2852 46.9693 54.2072 47.2579C54.1195 47.5465 53.3206 48.2168 53.1355 48.3843C52.9406 48.5612 53.1452 48.4309 53.0868 48.3005C53.0185 48.1609 52.8432 47.7792 52.7555 47.5651C52.6678 47.351 52.5022 47.2858 52.5509 47.0344C52.5898 46.7738 52.9601 46.2431 52.9991 46.0383C53.0478 45.8242 52.697 45.8801 52.8139 45.7497C52.9309 45.6194 53.5544 45.3029 53.6811 45.2656" stroke="white" stroke-width="0.5" stroke-linecap="round"/>
<path fill-rule="evenodd" clip-rule="evenodd" d="M52.1556 45.8635C52.1782 46.0706 51.7189 47.6617 51.9643 48.0157C52.1999 48.369 53.4308 48.496 53.5978 47.9946C53.7551 47.4926 52.6977 45.3148 52.9568 45.0069" fill="white"/>
<path d="M51.2639 46.6296C51.4995 46.8615 52.3454 48.0155 52.8686 48.1937C53.3919 48.3718 54.2107 48.1514 54.4136 47.69C54.6166 47.2286 54.1762 45.7681 54.0668 45.424M51.7801 46.4058C51.9739 46.672 52.2023 48.4626 52.6223 48.5865C53.0431 48.7012 54.0698 47.5903 54.3221 47.1232C54.5848 46.6475 54.1711 45.9544 54.1679 45.7488" stroke="#1E1E1E" stroke-width="0.5" stroke-linecap="round"/>
<path fill-rule="evenodd" clip-rule="evenodd" d="M52.2392 45.5563C52.2667 45.5432 52.0388 46.3264 52.2468 46.4015C52.4562 46.4859 53.3603 46.2127 53.4707 46.0284" fill="white"/>
<path d="M51.9066 46.3632C52.1932 46.3713 52.8929 46.7088 53.2636 46.555C53.6261 46.4117 54.0194 45.6155 54.1256 45.4694M51.5058 46.1168C51.7676 46.0248 52.5791 46.1214 52.9967 46.0835C53.4238 46.0443 53.8841 46.0288 54.0178 45.8696" stroke="#1E1E1E" stroke-width="0.5" stroke-linecap="round"/>
<path d="M60.2751 45.4587C60.4213 45.4587 60.5967 45.4773 60.7428 45.6821C60.889 45.8869 61.191 46.371 61.1618 46.6875C61.1325 47.004 60.7233 47.395 60.5772 47.5812C60.431 47.7767 60.47 47.7581 60.2849 47.8326C60.0998 47.9071 59.6126 48.1305 59.4762 48.0467C59.3398 47.9536 59.5054 47.5999 59.4567 47.2833C59.408 46.9575 59.1742 46.4082 59.1936 46.1196C59.2229 45.831 59.3885 45.6449 59.6029 45.5518C59.8075 45.468 60.3238 45.5797 60.4603 45.5983C60.6064 45.6076 60.5382 45.5983 60.4603 45.6262M60.2362 45.5238C60.4408 45.4587 60.168 45.0584 60.3336 45.2352C60.4992 45.4028 61.2202 46.2407 61.2592 46.5572C61.2884 46.8737 60.7233 46.9482 60.5479 47.1344C60.3823 47.3299 60.4213 47.5812 60.2362 47.7023C60.051 47.8233 59.6126 47.9909 59.447 47.8791C59.2813 47.7674 59.3106 47.2833 59.2326 47.032C59.1644 46.7899 58.9988 46.5758 58.9988 46.3989C59.0085 46.222 59.0767 46.1289 59.2813 45.9893C59.4859 45.8497 60.0998 45.7193 60.2459 45.5611C60.3823 45.4121 60.2069 45.0397 60.1485 45.0584" fill="white"/>
<path d="M60.3726 45.4959C60.548 45.5424 60.6454 45.7566 60.7038 45.8962C60.7721 46.0358 60.7331 46.1196 60.7526 46.3431C60.7623 46.5665 60.8208 47.004 60.7818 47.2182C60.7331 47.4416 60.6454 47.4974 60.4603 47.6464C60.2751 47.7953 59.827 48.1957 59.6613 48.1305C59.4957 48.0746 59.5834 47.6185 59.4665 47.2926C59.3593 46.9575 58.9598 46.3896 58.9891 46.1383C59.0183 45.8962 59.447 45.9241 59.6418 45.8124C59.8464 45.7007 60.0413 45.5704 60.1875 45.4866C60.3239 45.4028 60.5187 45.2818 60.4798 45.3283M60.2167 45.2352C60.4116 45.2538 60.0413 45.8124 60.1875 46.0545C60.3336 46.2965 60.9182 46.4641 61.0838 46.6782C61.2397 46.9016 61.23 47.0971 61.152 47.3671C61.0741 47.6371 60.7721 48.1677 60.6162 48.2888C60.4505 48.4098 60.4408 48.2143 60.1582 48.0933C59.8757 47.9815 59.0085 47.9071 58.9208 47.5998C58.8332 47.2926 59.486 46.5944 59.6321 46.2593C59.7782 45.9334 59.7588 45.7193 59.8075 45.6169C59.8464 45.5052 59.8854 45.5704 59.9049 45.6169C59.9244 45.6635 59.9147 45.9707 59.9244 45.8962" stroke="white" stroke-width="0.5" stroke-linecap="round"/>
<path fill-rule="evenodd" clip-rule="evenodd" d="M60.4699 46.3302C60.584 46.6102 61.9233 48.702 61.6622 48.7336C61.3913 48.766 59.4885 47.0305 58.8755 46.5406C58.2536 46.0608 57.8277 46.0035 57.9569 45.815" fill="white"/>
<path d="M61.6364 46.5673C61.3809 46.8694 60.6504 48.2681 60.1958 48.4283C59.7412 48.5885 59.0586 48.0857 58.8991 47.5292C58.7308 46.9827 59.2083 45.4934 59.2037 45.1293M61.2434 46.339C60.9096 46.5357 60.2201 47.7439 59.805 48.0129C59.389 48.2726 58.8208 48.3677 58.7502 47.9251C58.6787 47.4732 59.2608 45.7413 59.3674 45.3116" stroke="#1E1E1E" stroke-width="0.5" stroke-linecap="round"/>
<path fill-rule="evenodd" clip-rule="evenodd" d="M60.2745 45.9774C60.3721 46.0552 61.3253 47.5059 61.1704 47.2708C61.0059 47.0346 59.8543 44.7991 59.2995 44.5428" fill="white"/>
<path d="M61.0704 46.6295C60.854 46.631 60.3715 46.7122 60.0583 46.4858C59.745 46.2594 59.4005 45.4659 59.1994 45.2814M61.6424 46.5406C61.3702 46.5915 60.2068 47.058 59.7677 46.8911C59.3285 46.7242 59.1891 45.7214 59.0195 45.5221" stroke="#1E1E1E" stroke-width="0.5" stroke-linecap="round"/>
<path d="M55.9284 52.2039C56.0063 52.1946 56.1622 52.055 56.1719 52.1481C56.1914 52.2411 56.0063 52.6787 56.016 52.7532C56.0258 52.8277 56.2791 52.6601 56.2304 52.5856C56.1914 52.5204 55.792 52.3156 55.753 52.3436C55.714 52.3622 55.9771 52.688 55.9966 52.7252C56.016 52.7718 55.8504 52.6601 55.8699 52.5949C55.8991 52.5204 56.1719 52.3156 56.133 52.3156C56.094 52.3063 55.7043 52.5949 55.6555 52.5484C55.5971 52.5018 55.7432 52.0456 55.8017 52.0363C55.8504 52.027 55.9868 52.4739 55.9966 52.4832M56.2499 52.5018C56.2791 52.5204 56.1914 52.8183 56.2207 52.8556C56.2401 52.8835 56.5032 52.688 56.396 52.6787C56.2986 52.6601 55.6166 52.8183 55.6166 52.7625C55.6166 52.6973 56.3083 52.3529 56.4058 52.297C56.5129 52.2411 56.3473 52.3436 56.2401 52.418C56.1232 52.4832 55.8114 52.6321 55.7335 52.7066C55.6555 52.7904 55.7238 52.9952 55.7432 52.8742C55.7725 52.7625 55.7627 52.1387 55.8504 52.0177C55.9478 51.8874 56.2012 52.0177 56.2889 52.1294C56.3765 52.2411 56.4545 52.6508 56.3765 52.7066" stroke="#1E1E1E" stroke-width="0.5" stroke-linecap="round"/>
<path d="M52.3762 57.5233C52.2983 57.6908 51.9183 58.5101 51.8403 58.7335M52.0255 58.1377C52.0547 58.3518 52.5808 59.1059 52.5029 59.1338" stroke="#1E1E1E" stroke-width="0.5" stroke-linecap="round"/>
<path fill-rule="evenodd" clip-rule="evenodd" d="M52.3711 57.5495C52.829 57.6333 53.3844 58.3129 53.4039 58.257C53.4234 58.2012 52.6439 57.3261 52.4783 57.2237C52.3029 57.1119 52.7511 57.4099 52.3711 57.596" fill="white"/>
<path d="M51.6111 57.3632C51.7865 57.3539 52.8193 57.0374 53.0142 57.1491C53.209 57.2608 52.9752 57.8194 52.7901 58.0335C52.6147 58.2476 52.108 58.4431 51.9132 58.4431M52.1275 57.056C52.2347 56.9722 52.4393 56.4137 52.6634 56.6371C52.8875 56.8512 53.7449 58.1545 53.4818 58.3594C53.2285 58.5549 51.4845 57.8939 51.1045 57.838" stroke="#1E1E1E" stroke-width="0.5" stroke-linecap="round"/>
<path fill-rule="evenodd" clip-rule="evenodd" d="M55.5754 59.8913C55.4196 59.5003 54.7863 56.7539 54.9909 56.4467C55.2052 56.1302 56.8421 57.899 56.8421 58.0293C56.8323 58.1504 54.9421 57.4335 54.9519 57.1822" fill="white"/>
<path d="M55.1857 58.7834C55.215 58.56 55.1175 57.2474 55.3124 57.2567C55.517 57.2753 56.2088 58.9417 56.3744 58.8765C56.5498 58.802 56.3841 57.1263 56.3257 56.847M55.7313 58.56C55.8872 58.3924 55.858 57.6849 55.9554 57.6384C56.0529 57.6011 56.2477 58.4297 56.3257 58.3273C56.4036 58.2249 56.3939 57.1915 56.4134 57.0239" stroke="#1E1E1E" stroke-width="0.5" stroke-linecap="round"/>
<path fill-rule="evenodd" clip-rule="evenodd" d="M57.4826 56.2527C57.3949 56.0014 57.921 56.4855 57.7554 56.8485C57.5898 57.2116 56.5667 58.217 56.4791 58.4405C56.3914 58.6639 57.3754 57.9471 57.2098 58.1798" fill="white"/>
<path d="M57.8041 57.072C57.6969 57.1372 57.2877 57.5282 57.2877 57.6958C57.2974 57.8633 58.0087 57.9099 57.8528 58.1054C57.6872 58.2916 56.5082 58.7198 56.3231 58.8315M58.301 56.7462C58.1938 56.7089 57.2974 56.9417 57.1903 57.2024C57.0831 57.4723 57.8041 58.0123 57.6482 58.3381C57.4923 58.6733 56.4498 59.0922 56.2452 59.1853" stroke="#1E1E1E" stroke-width="0.5" stroke-linecap="round"/>
<path fill-rule="evenodd" clip-rule="evenodd" d="M60.1526 56.4484C59.8895 56.6998 57.2394 57.4818 57.1907 57.7518C57.1322 58.0217 59.8701 57.6866 59.8213 58.0497C59.7629 58.4127 57.0932 59.6695 56.8497 59.9488" fill="white"/>
<path d="M59.6947 57.3049C59.5973 57.3608 58.6912 57.1839 58.5645 57.4166C58.4379 57.6494 59.003 58.4593 58.925 58.7013C58.8471 58.9527 58.243 58.8131 58.0871 58.8968M59.4414 57.1001C59.3342 57.2025 58.282 57.547 58.3112 57.7145C58.3307 57.8821 59.6168 57.8635 59.5973 58.1148C59.5875 58.3662 58.5645 59.1575 58.2332 59.2134" stroke="#1E1E1E" stroke-width="0.5" stroke-linecap="round"/>
<path fill-rule="evenodd" clip-rule="evenodd" d="M54.38 57.8889C54.3605 57.7958 52.7334 57.0883 52.8795 57.1069C53.0257 57.1255 55.1594 57.5817 55.2763 58.01" fill="white"/>
<path d="M53.6297 58.3265C53.6297 58.0565 53.7174 57.0697 53.922 57.1162C54.1169 57.1628 54.682 58.3079 54.8184 58.5965M53.2302 58.913C53.3082 58.5313 54.302 56.5763 54.5456 56.5856C54.7794 56.5949 54.6235 58.6896 54.6722 58.9782" stroke="#1E1E1E" stroke-width="0.5" stroke-linecap="round"/>
<path d="M53.4615 58.3073C53.6272 58.27 54.6112 57.8138 54.8256 57.7766M53.939 58.0652C54.0754 58.1118 54.5236 58.2979 54.6307 58.2142" stroke="#1E1E1E" stroke-width="0.5" stroke-linecap="round"/>
<path fill-rule="evenodd" clip-rule="evenodd" d="M60.4897 58.1373C60.6456 58.0442 59.3108 57.9138 59.4959 58.1838C59.6907 58.4538 61.2204 59.5616 61.6296 59.7478" fill="white"/>
<path d="M60.0415 58.7331C60.2169 58.5004 60.4897 57.4205 60.6553 57.4018C60.8209 57.3832 60.9184 58.4166 61.045 58.6307M59.6907 58.4724C59.8564 58.1466 60.2364 56.9177 60.4117 56.9829C60.5871 57.0574 60.5579 58.5562 60.743 58.882" stroke="#1E1E1E" stroke-width="0.5" stroke-linecap="round"/>
<path d="M60.1283 58.3693C60.2452 58.2949 60.6934 57.7363 60.8785 57.6246M59.7385 58.2483C59.7872 58.2018 60.3036 57.9783 60.5375 57.9225" stroke="#1E1E1E" stroke-width="0.5" stroke-linecap="round"/>
</svg>
