<svg width="82" height="120" viewBox="0 0 82 120" fill="none" xmlns="http://www.w3.org/2000/svg">
<path d="M21.6569 1.987C31.7514 4.28536 45.1143 3.09819 60.6079 1.987C71.8015 4.90269 76.9596 9.03404 80.0834 21.1717C79.6881 42.7117 83.5736 68.2121 80.0834 98.6226C80.0256 114.075 73.2959 115.528 60.6079 117.807C51.815 116.098 40.9878 116.088 21.6569 117.807C9.66313 115.167 3.34806 113.685 2.18146 98.6226C-0.0649742 83.6548 0.0796456 66.8824 2.18146 21.1717C2.355 8.86309 6.77073 5.17811 21.6569 1.987Z" fill="white"/>
<path d="M21.6569 1.98699C34.4703 1.87302 44.4973 2.11046 60.6079 1.98699M21.6569 1.98699C33.7086 2.81326 47.2354 2.6708 60.6079 1.98699M21.6569 1.98699C7.31064 2.88924 3.79156 7.55244 2.18145 21.1716M21.6569 1.98699C6.72252 -0.0739351 3.98438 7.55244 2.18145 21.1716M60.6079 1.98699C72.0907 1.17972 78.1841 7.61892 80.0834 21.1716M60.6079 1.98699C75.7545 0.524398 79.5339 6.68818 80.0834 21.1716M80.0834 21.1716C79.0518 49.5877 80.5944 80.2167 80.0834 98.6226M80.0834 21.1716C80.1991 50.8794 80.6137 79.7323 80.0834 98.6226M80.0834 98.6226C80.0352 113.173 72.3703 118.026 60.6079 117.807M80.0834 98.6226C81.7321 109.545 73.1995 119.916 60.6079 117.807M60.6079 117.807C44.7769 119.707 31.1826 117.817 21.6569 117.807M60.6079 117.807C45.606 118.368 31.0958 116.905 21.6569 117.807M21.6569 117.807C6.78037 116.877 2.25858 109.962 2.18145 98.6226M21.6569 117.807C8.03374 116.221 0.976286 112.356 2.18145 98.6226M2.18145 98.6226C4.17721 81.6128 3.5216 64.1947 2.18145 21.1716M2.18145 98.6226C2.81778 69.1903 3.17451 40.9736 2.18145 21.1716" stroke="#1E1E1E" stroke-width="2" stroke-linecap="round"/>
<path d="M10.6805 85.7751C21.2764 85.7751 63.6789 85.7751 74.2748 85.7751" stroke="#1E1E1E" stroke-width="2" stroke-linecap="round"/>
<path d="M9.97545 100.588C9.96581 99.7334 9.94653 96.3049 9.93689 95.4501" stroke="#1E1E1E" stroke-linecap="round"/>
<path d="M9.90613 95.6427C10.1472 95.3008 11.1209 93.9522 11.362 93.6103" stroke="#1E1E1E" stroke-linecap="round"/>
<path d="M12.8013 100.649C12.8109 99.7944 12.8302 96.3658 12.8398 95.5111" stroke="#1E1E1E" stroke-linecap="round"/>
<path d="M12.8705 95.7037C12.6295 95.3618 11.6557 94.0132 11.4147 93.6713" stroke="#1E1E1E" stroke-linecap="round"/>
<path d="M7.84265 101.111C8.98033 101.092 13.5118 101.016 14.6398 100.997" stroke="#1E1E1E" stroke-linecap="round"/>
<path d="M11.5627 101.197C11.5724 101.795 11.611 104.208 11.6206 104.806" stroke="#1E1E1E" stroke-linecap="round"/>
<path d="M51.4886 96.5252C51.8357 96.1738 53.2241 94.7492 53.5712 94.3883" stroke="#1E1E1E" stroke-linecap="round"/>
<path d="M53.5669 94.3501C53.9525 94.6635 55.4759 95.9172 55.8615 96.2306" stroke="#1E1E1E" stroke-linecap="round"/>
<path d="M55.9482 96.4826C55.2829 97.4893 52.6316 101.526 51.9663 102.542" stroke="#1E1E1E" stroke-linecap="round"/>
<path d="M51.5536 96.5252C51.2065 96.1738 49.8182 94.7492 49.4711 94.3883" stroke="#1E1E1E" stroke-linecap="round"/>
<path d="M49.4754 94.3501C49.0898 94.6635 47.5664 95.9172 47.1808 96.2306" stroke="#1E1E1E" stroke-linecap="round"/>
<path d="M47.0942 96.4826C47.7595 97.4893 50.4109 101.526 51.0761 102.542" stroke="#1E1E1E" stroke-linecap="round"/>
<path d="M22.9369 1.87952C35.7888 1.87952 48.6503 1.87952 58.0217 1.87952C60.4128 1.87952 61.6179 3.05719 61.6179 5.42203C61.6179 8.20476 61.6179 10.9875 61.6179 12.4976C61.6179 14.8529 60.4128 16.0306 58.0217 16.0306C46.9245 16.0306 35.8274 16.0306 22.9369 16.0306C20.5362 16.0306 19.3407 14.8529 19.3407 12.4976C19.3407 9.79081 19.3407 7.09356 19.3407 5.42203C19.3407 3.05719 20.5362 1.87952 22.9369 1.87952Z" fill="white"/>
<path d="M22.9369 1.87952C31.2092 1.87952 39.4911 1.87952 58.0217 1.87952M22.9369 1.87952C33.8605 1.87952 44.7938 1.87952 58.0217 1.87952M22.9369 1.87952C20.5362 1.87952 19.3407 3.05719 19.3407 5.42203M58.0217 1.87952C60.4128 1.87952 61.6179 3.05719 61.6179 5.42203M61.6179 5.42203C61.6179 7.38798 61.6179 9.35394 61.6179 12.4976M61.6179 5.42203C61.6179 6.99859 61.6179 8.58465 61.6179 12.4976M61.6179 12.4976C61.6179 14.8529 60.4128 16.0306 58.0217 16.0306M58.0217 16.0306C47.3488 16.0306 36.6758 16.0306 22.9369 16.0306M58.0217 16.0306C45.8254 16.0306 33.6292 16.0306 22.9369 16.0306M22.9369 16.0306C20.5362 16.0306 19.3407 14.8529 19.3407 12.4976M19.3407 12.4976C19.3407 10.2372 19.3407 7.97682 19.3407 5.42203M19.3407 12.4976C19.3407 10.6266 19.3407 8.7556 19.3407 5.42203" stroke="#1E1E1E" stroke-width="2" stroke-linecap="round"/>
<path d="M27.6743 8.18524C27.6743 8.36102 27.7168 8.52509 27.8018 8.67743C27.8896 8.82684 28.0039 8.95868 28.1445 9.07294C28.2852 9.18427 28.4463 9.27216 28.6279 9.33661C28.8096 9.39813 28.9956 9.42889 29.186 9.42889C29.2446 9.42889 29.3047 9.4245 29.3662 9.41571C29.4277 9.40399 29.4834 9.38495 29.5332 9.35858C29.583 9.33221 29.624 9.29852 29.6562 9.25751C29.6885 9.21356 29.7046 9.15936 29.7046 9.09491C29.7046 8.97186 29.6606 8.85028 29.5728 8.73016C29.4878 8.61005 29.375 8.49139 29.2344 8.37421C29.0938 8.25409 28.9326 8.13544 28.751 8.01825C28.5693 7.89813 28.3848 7.77948 28.1973 7.66229C28.0098 7.5451 27.8252 7.42792 27.6436 7.31073C27.4619 7.19061 27.3008 7.07196 27.1602 6.95477C27.0195 6.83466 26.9053 6.71454 26.8174 6.59442C26.7324 6.47137 26.6899 6.34833 26.6899 6.22528C26.6899 6.10809 26.7192 5.99969 26.7778 5.90009C26.8394 5.79755 26.9199 5.70526 27.0195 5.62323C27.1191 5.5412 27.2349 5.46796 27.3667 5.4035C27.4985 5.33905 27.6362 5.28485 27.7798 5.24091C27.9233 5.19696 28.0669 5.16473 28.2104 5.14423C28.3569 5.12079 28.4961 5.10907 28.6279 5.10907C28.7246 5.10907 28.8301 5.112 28.9443 5.11786C29.0615 5.12079 29.1699 5.13397 29.2695 5.15741C29.3721 5.17792 29.457 5.21014 29.5244 5.25409C29.5918 5.29803 29.6255 5.36102 29.6255 5.44305C29.6255 5.46942 29.6211 5.50311 29.6123 5.54413C29.6035 5.58221 29.5786 5.64667 29.5376 5.73749C29.4966 5.82245 29.4482 5.8869 29.3926 5.93085C29.3398 5.97186 29.271 5.99237 29.186 5.99237C29.0659 5.99237 28.9385 5.97919 28.8037 5.95282C28.6719 5.92352 28.5386 5.90887 28.4038 5.90887C28.3306 5.90887 28.2559 5.91327 28.1797 5.92206C28.1064 5.92792 28.0391 5.9411 27.9775 5.96161C27.916 5.97919 27.8662 6.00702 27.8281 6.0451C27.79 6.08026 27.771 6.12567 27.771 6.18134C27.771 6.237 27.8105 6.29999 27.8896 6.3703C27.9717 6.44061 28.0786 6.51825 28.2104 6.60321C28.3452 6.68817 28.4976 6.78192 28.6675 6.88446C28.8374 6.98407 29.0103 7.09247 29.186 7.20966C29.3647 7.32391 29.5391 7.44696 29.709 7.5788C29.8789 7.7077 30.0298 7.8454 30.1616 7.99188C30.2964 8.13544 30.4033 8.28778 30.4824 8.44891C30.5645 8.61005 30.6055 8.77704 30.6055 8.94989C30.6055 9.16083 30.5571 9.34686 30.4604 9.508C30.3638 9.66913 30.2393 9.80389 30.0869 9.91229C29.9346 10.0207 29.7661 10.1013 29.5815 10.154C29.397 10.2097 29.2168 10.2375 29.041 10.2375C28.8623 10.2375 28.6807 10.2155 28.4961 10.1716C28.3145 10.1306 28.1387 10.0705 27.9688 9.99139C27.7988 9.91522 27.6392 9.82294 27.4897 9.71454C27.3433 9.60321 27.2158 9.48016 27.1074 9.3454C26.999 9.2077 26.9126 9.05975 26.8481 8.90155C26.7866 8.74335 26.7559 8.57782 26.7559 8.40497C26.7559 8.33173 26.7603 8.25848 26.769 8.18524C26.7808 8.10907 26.7998 8.04315 26.8262 7.98749C26.8525 7.92889 26.8892 7.88202 26.936 7.84686C26.9829 7.80878 27.043 7.78973 27.1162 7.78973C27.1396 7.78973 27.166 7.79266 27.1953 7.79852C27.2246 7.80145 27.2759 7.81464 27.3491 7.83807C27.4341 7.86444 27.5088 7.90692 27.5732 7.96552C27.6406 8.02118 27.6743 8.09442 27.6743 8.18524ZM31.0449 6.44061C31.0449 6.39667 31.064 6.35419 31.1021 6.31317C31.1401 6.26923 31.1899 6.23114 31.2515 6.19891C31.313 6.16376 31.3818 6.13593 31.458 6.11542C31.5371 6.09198 31.6162 6.08026 31.6953 6.08026C31.7393 6.08026 31.7759 6.09198 31.8052 6.11542C31.8374 6.13885 31.8652 6.18427 31.8887 6.25165C31.9121 6.3161 31.9326 6.40839 31.9502 6.5285C31.9707 6.64569 31.9897 6.7995 32.0073 6.98993C32.019 7.04852 32.0293 7.09393 32.0381 7.12616C32.0498 7.15546 32.0645 7.1701 32.082 7.1701C32.1084 7.1701 32.1348 7.12469 32.1611 7.03387C32.375 6.41571 32.6841 6.10663 33.0884 6.10663C33.2759 6.10663 33.4458 6.16522 33.5981 6.28241C33.7534 6.3996 33.897 6.59149 34.0288 6.85809C34.1636 7.12177 34.291 7.4704 34.4111 7.90399C34.5312 8.33466 34.6514 8.86639 34.7715 9.49921C34.7773 9.53143 34.7817 9.56073 34.7847 9.5871C34.7876 9.61346 34.7891 9.63837 34.7891 9.6618C34.7891 9.72919 34.7729 9.78778 34.7407 9.83759C34.7114 9.88446 34.6719 9.92401 34.6221 9.95624C34.5723 9.98553 34.5166 10.0075 34.4551 10.0222C34.3936 10.0397 34.332 10.0485 34.2705 10.0485C34.1475 10.0485 34.0581 10.0353 34.0024 10.009C33.9497 9.9826 33.916 9.9328 33.9014 9.85956C33.8164 9.41425 33.7329 9.01874 33.6509 8.67303C33.5718 8.32733 33.4927 8.03729 33.4136 7.80292C33.3374 7.56561 33.2612 7.38544 33.1851 7.26239C33.1089 7.13934 33.0327 7.07782 32.9565 7.07782C32.8804 7.07782 32.8086 7.12616 32.7412 7.22284C32.6768 7.31659 32.6138 7.46454 32.5522 7.66669C32.4907 7.86884 32.4307 8.12518 32.3721 8.43573C32.3164 8.74628 32.2622 9.11688 32.2095 9.54755C32.1948 9.66473 32.1362 9.75848 32.0337 9.8288C31.9312 9.89911 31.8008 9.93427 31.6426 9.93427C31.5371 9.93427 31.4565 9.91229 31.4009 9.86835C31.3452 9.8244 31.3145 9.76434 31.3086 9.68817C31.2822 9.0788 31.2529 8.57782 31.2207 8.18524C31.1914 7.78973 31.1636 7.47333 31.1372 7.23602C31.1108 6.99579 31.0889 6.81708 31.0713 6.69989C31.0537 6.5827 31.0449 6.49628 31.0449 6.44061ZM35.9097 5.50458C35.8247 5.50458 35.7441 5.49286 35.668 5.46942C35.5947 5.44305 35.5303 5.4079 35.4746 5.36395C35.4219 5.31708 35.3794 5.26288 35.3472 5.20135C35.3149 5.13983 35.2988 5.07245 35.2988 4.99921C35.2988 4.87616 35.3472 4.77655 35.4438 4.70038C35.5435 4.62421 35.6753 4.58612 35.8394 4.58612C35.9155 4.58612 35.9888 4.60077 36.0591 4.63007C36.1294 4.65643 36.1909 4.69305 36.2437 4.73993C36.2993 4.7868 36.3433 4.84247 36.3755 4.90692C36.4077 4.96844 36.4238 5.0329 36.4238 5.10028C36.4238 5.22626 36.377 5.32587 36.2832 5.39911C36.1924 5.46942 36.0679 5.50458 35.9097 5.50458ZM35.3076 6.84491C35.3076 6.74237 35.3516 6.65887 35.4395 6.59442C35.5303 6.52704 35.6489 6.49335 35.7954 6.49335C36.0591 6.49335 36.1997 6.58417 36.2173 6.76581C36.229 6.89178 36.2407 7.03387 36.2524 7.19208C36.2671 7.35028 36.2803 7.51874 36.292 7.69745C36.3066 7.87323 36.3184 8.05634 36.3271 8.24677C36.3389 8.43427 36.3491 8.6203 36.3579 8.80487C36.3667 8.98651 36.374 9.16229 36.3799 9.33221C36.3857 9.50214 36.3887 9.65741 36.3887 9.79803C36.3887 9.94452 36.3359 10.0544 36.2305 10.1276C36.1279 10.2009 35.9771 10.2375 35.7778 10.2375C35.687 10.2375 35.6152 10.2155 35.5625 10.1716C35.5127 10.1306 35.4878 10.069 35.4878 9.987C35.4878 9.5827 35.4775 9.20477 35.457 8.85321C35.4395 8.49872 35.4189 8.18378 35.3955 7.90839C35.375 7.633 35.3545 7.40448 35.334 7.22284C35.3164 7.03827 35.3076 6.91229 35.3076 6.84491ZM36.8281 7.56561C36.7607 7.55975 36.7065 7.51581 36.6655 7.43378C36.6245 7.35175 36.604 7.26093 36.604 7.16132C36.604 7.11444 36.6084 7.06903 36.6172 7.02509C36.623 6.97821 36.6348 6.93719 36.6523 6.90204C36.6699 6.86688 36.6919 6.83905 36.7183 6.81854C36.7446 6.7951 36.7754 6.78339 36.8105 6.78339C36.9189 6.78339 37.0435 6.78046 37.1841 6.7746C37.3247 6.76581 37.4756 6.75702 37.6367 6.74823C37.7188 6.73944 37.7642 6.6911 37.7729 6.60321C37.7993 6.17841 37.8359 5.81219 37.8828 5.50458C37.9297 5.19696 37.9868 4.93768 38.0542 4.72675C38.1216 4.51288 38.1978 4.34003 38.2827 4.20819C38.3706 4.07635 38.4673 3.97528 38.5728 3.90497C38.605 3.88153 38.6431 3.85809 38.687 3.83466C38.731 3.80829 38.772 3.7951 38.8101 3.7951C38.8833 3.7951 38.9595 3.81415 39.0386 3.85223C39.1206 3.88739 39.1953 3.93427 39.2627 3.99286C39.333 4.04852 39.3901 4.11298 39.4341 4.18622C39.478 4.25653 39.5 4.32684 39.5 4.39716C39.5 4.42352 39.4941 4.4455 39.4824 4.46307C39.4707 4.47772 39.4561 4.49237 39.4385 4.50702C39.3242 4.59198 39.2231 4.68719 39.1353 4.79266C39.0474 4.89813 38.9727 5.02704 38.9111 5.17938C38.8496 5.33173 38.7983 5.51483 38.7573 5.7287C38.7163 5.94257 38.6855 6.20038 38.665 6.50214C38.665 6.54901 38.6724 6.58417 38.687 6.6076C38.7046 6.62811 38.7354 6.63837 38.7793 6.63837C38.8936 6.63837 39.0078 6.62958 39.1221 6.612C39.2393 6.59442 39.3506 6.57684 39.4561 6.55927C39.5615 6.53876 39.6611 6.51971 39.7549 6.50214C39.8486 6.48456 39.9321 6.47577 40.0054 6.47577C40.0581 6.47577 40.0962 6.508 40.1196 6.57245C40.146 6.63397 40.1592 6.71014 40.1592 6.80096C40.1592 6.8537 40.1548 6.9079 40.146 6.96356C40.1372 7.01923 40.1226 7.06903 40.1021 7.11298C40.0845 7.15692 40.061 7.19501 40.0317 7.22723C40.0024 7.25653 39.9658 7.27411 39.9219 7.27997L38.7529 7.40302C38.6914 7.4118 38.6533 7.43671 38.6387 7.47772C38.627 7.51874 38.6211 7.57587 38.6211 7.64911C38.6211 8.29657 38.6372 8.85321 38.6694 9.31903C38.7017 9.78485 38.7368 10.176 38.7749 10.4924C38.8159 10.8117 38.8525 11.0622 38.8848 11.2438C38.917 11.4284 38.9331 11.5617 38.9331 11.6437C38.9331 11.7053 38.9082 11.7609 38.8584 11.8107C38.8115 11.8605 38.75 11.903 38.6738 11.9382C38.6006 11.9733 38.52 11.9997 38.4321 12.0173C38.3442 12.0378 38.2622 12.048 38.186 12.048C38.1128 12.048 38.0469 12.0349 37.9883 12.0085C37.9326 11.985 37.9004 11.944 37.8916 11.8854C37.8623 11.6804 37.8374 11.4548 37.8169 11.2087C37.7964 10.9655 37.7788 10.6945 37.7642 10.3957C37.7524 10.0998 37.7437 9.77606 37.7378 9.4245C37.7319 9.07001 37.729 8.68182 37.729 8.25995C37.729 8.15155 37.729 8.04608 37.729 7.94354C37.729 7.841 37.7319 7.73846 37.7378 7.63593C37.7378 7.54803 37.6895 7.50409 37.5928 7.50409L36.8281 7.56561ZM39.5879 7.56561C39.5205 7.55975 39.4663 7.51581 39.4253 7.43378C39.3843 7.35175 39.3638 7.26093 39.3638 7.16132C39.3638 7.11444 39.3682 7.06903 39.377 7.02509C39.3828 6.97821 39.3945 6.93719 39.4121 6.90204C39.4297 6.86688 39.4517 6.83905 39.478 6.81854C39.5044 6.7951 39.5352 6.78339 39.5703 6.78339C39.6787 6.78339 39.8032 6.78046 39.9438 6.7746C40.0845 6.76581 40.2354 6.75702 40.3965 6.74823C40.4785 6.73944 40.5239 6.6911 40.5327 6.60321C40.5591 6.17841 40.5957 5.81219 40.6426 5.50458C40.6895 5.19696 40.7466 4.93768 40.814 4.72675C40.8813 4.51288 40.9575 4.34003 41.0425 4.20819C41.1304 4.07635 41.2271 3.97528 41.3325 3.90497C41.3647 3.88153 41.4028 3.85809 41.4468 3.83466C41.4907 3.80829 41.5317 3.7951 41.5698 3.7951C41.6431 3.7951 41.7192 3.81415 41.7983 3.85223C41.8804 3.88739 41.9551 3.93427 42.0225 3.99286C42.0928 4.04852 42.1499 4.11298 42.1938 4.18622C42.2378 4.25653 42.2598 4.32684 42.2598 4.39716C42.2598 4.42352 42.2539 4.4455 42.2422 4.46307C42.2305 4.47772 42.2158 4.49237 42.1982 4.50702C42.084 4.59198 41.9829 4.68719 41.895 4.79266C41.8071 4.89813 41.7324 5.02704 41.6709 5.17938C41.6094 5.33173 41.5581 5.51483 41.5171 5.7287C41.4761 5.94257 41.4453 6.20038 41.4248 6.50214C41.4248 6.54901 41.4321 6.58417 41.4468 6.6076C41.4644 6.62811 41.4951 6.63837 41.5391 6.63837C41.6533 6.63837 41.7676 6.62958 41.8818 6.612C41.999 6.59442 42.1104 6.57684 42.2158 6.55927C42.3213 6.53876 42.4209 6.51971 42.5146 6.50214C42.6084 6.48456 42.6919 6.47577 42.7651 6.47577C42.8179 6.47577 42.856 6.508 42.8794 6.57245C42.9058 6.63397 42.9189 6.71014 42.9189 6.80096C42.9189 6.8537 42.9146 6.9079 42.9058 6.96356C42.897 7.01923 42.8823 7.06903 42.8618 7.11298C42.8442 7.15692 42.8208 7.19501 42.7915 7.22723C42.7622 7.25653 42.7256 7.27411 42.6816 7.27997L41.5127 7.40302C41.4512 7.4118 41.4131 7.43671 41.3984 7.47772C41.3867 7.51874 41.3809 7.57587 41.3809 7.64911C41.3809 8.29657 41.397 8.85321 41.4292 9.31903C41.4614 9.78485 41.4966 10.176 41.5347 10.4924C41.5757 10.8117 41.6123 11.0622 41.6445 11.2438C41.6768 11.4284 41.6929 11.5617 41.6929 11.6437C41.6929 11.7053 41.668 11.7609 41.6182 11.8107C41.5713 11.8605 41.5098 11.903 41.4336 11.9382C41.3604 11.9733 41.2798 11.9997 41.1919 12.0173C41.104 12.0378 41.022 12.048 40.9458 12.048C40.8726 12.048 40.8066 12.0349 40.748 12.0085C40.6924 11.985 40.6602 11.944 40.6514 11.8854C40.6221 11.6804 40.5972 11.4548 40.5767 11.2087C40.5562 10.9655 40.5386 10.6945 40.5239 10.3957C40.5122 10.0998 40.5034 9.77606 40.4976 9.4245C40.4917 9.07001 40.4888 8.68182 40.4888 8.25995C40.4888 8.15155 40.4888 8.04608 40.4888 7.94354C40.4888 7.841 40.4917 7.73846 40.4976 7.63593C40.4976 7.54803 40.4492 7.50409 40.3525 7.50409L39.5879 7.56561ZM46.4609 9.0246C46.5459 8.95135 46.6294 8.91473 46.7114 8.91473C46.7583 8.91473 46.8008 8.92645 46.8389 8.94989C46.877 8.97333 46.9194 9.00995 46.9663 9.05975C47.0103 9.12714 47.041 9.1828 47.0586 9.22675C47.0791 9.26776 47.0894 9.30878 47.0894 9.34979C47.0894 9.43768 47.0454 9.52118 46.9575 9.60028C46.8169 9.71747 46.6646 9.82294 46.5005 9.91669C46.3364 10.0075 46.165 10.0851 45.9863 10.1496C45.8076 10.2141 45.623 10.2624 45.4326 10.2946C45.2422 10.3298 45.0532 10.3474 44.8657 10.3474C44.6284 10.3474 44.4058 10.3166 44.1978 10.2551C43.9897 10.1965 43.8037 10.1115 43.6396 10.0002C43.4785 9.88885 43.3423 9.75555 43.231 9.60028C43.1196 9.44208 43.0405 9.26483 42.9937 9.06854C42.9673 8.98651 42.9424 8.93378 42.9189 8.91034C42.8984 8.88397 42.8633 8.87079 42.8135 8.87079C42.7051 8.87079 42.6216 8.84442 42.563 8.79169C42.5044 8.73895 42.4751 8.66278 42.4751 8.56317C42.4751 8.52216 42.478 8.49579 42.4839 8.48407L42.4927 8.39618C42.5073 8.29071 42.5352 8.21454 42.5762 8.16766C42.6201 8.12079 42.6875 8.09735 42.7783 8.09735H42.8442C42.9673 8.09735 43.0537 8.04022 43.1035 7.92596C43.1943 7.72382 43.3101 7.53925 43.4507 7.37225C43.5913 7.20526 43.7495 7.06317 43.9253 6.94598C44.1011 6.82587 44.2886 6.73358 44.4878 6.66913C44.6899 6.60175 44.895 6.56805 45.103 6.56805C45.3198 6.56805 45.522 6.60028 45.7095 6.66473C45.8999 6.72626 46.0654 6.81268 46.2061 6.92401C46.3467 7.03534 46.4565 7.16571 46.5356 7.31512C46.6177 7.46454 46.6587 7.62567 46.6587 7.79852C46.6587 7.91864 46.6353 8.0285 46.5884 8.12811C46.5415 8.22772 46.4741 8.31561 46.3862 8.39178C46.2983 8.46503 46.1914 8.52509 46.0654 8.57196C45.9424 8.61884 45.8018 8.6496 45.6436 8.66425L44.1187 8.81805C44.0601 8.81805 44.0117 8.8327 43.9736 8.862C43.9385 8.8913 43.9209 8.93085 43.9209 8.98065C43.9209 9.05682 43.9487 9.13007 44.0044 9.20038C44.063 9.27069 44.1392 9.33368 44.2329 9.38934C44.3296 9.44208 44.4395 9.48456 44.5625 9.51678C44.6885 9.54901 44.8174 9.56512 44.9492 9.56512C45.0752 9.56512 45.2041 9.55341 45.3359 9.52997C45.4707 9.5036 45.6025 9.46698 45.7314 9.4201C45.8633 9.37323 45.9907 9.31757 46.1138 9.25311C46.2368 9.18573 46.3525 9.10956 46.4609 9.0246ZM45.481 7.89081C45.5249 7.88202 45.563 7.86151 45.5952 7.82928C45.6274 7.79413 45.6436 7.75165 45.6436 7.70184C45.6436 7.6579 45.6274 7.61688 45.5952 7.5788C45.563 7.54071 45.519 7.50702 45.4634 7.47772C45.4077 7.4455 45.3433 7.42059 45.27 7.40302C45.1968 7.38544 45.1191 7.37665 45.0371 7.37665C44.917 7.37665 44.7939 7.39423 44.668 7.42938C44.542 7.46454 44.4277 7.51141 44.3252 7.57001C44.2227 7.62567 44.1392 7.68866 44.0747 7.75897C44.0103 7.82635 43.978 7.89374 43.978 7.96112C43.978 8.0285 44.019 8.06219 44.1011 8.06219C44.1509 8.06219 44.2314 8.05634 44.3428 8.04462C44.4541 8.0329 44.5771 8.01971 44.7119 8.00507C44.8467 7.98749 44.9829 7.96844 45.1206 7.94794C45.2583 7.92743 45.3784 7.90839 45.481 7.89081ZM49.7524 6.69989C49.644 6.69989 49.5488 6.72919 49.4668 6.78778C49.3848 6.84344 49.3145 6.92255 49.2559 7.02509C49.1973 7.12469 49.1489 7.24335 49.1108 7.38104C49.0728 7.51581 49.042 7.66376 49.0186 7.82489C48.9951 7.98602 48.979 8.15448 48.9702 8.33026C48.9614 8.50604 48.957 8.68329 48.957 8.862C48.957 9.09637 48.9658 9.32782 48.9834 9.55634C49.0039 9.78192 49.0142 9.99139 49.0142 10.1848C49.0142 10.3107 48.9673 10.4089 48.8735 10.4792C48.7798 10.5524 48.6465 10.5891 48.4736 10.5891C48.4414 10.5891 48.4048 10.5861 48.3638 10.5803C48.3228 10.5744 48.2832 10.5627 48.2451 10.5451C48.21 10.5275 48.1777 10.5026 48.1484 10.4704C48.1221 10.4411 48.1074 10.4001 48.1045 10.3474C48.0781 10.0895 48.04 9.82587 47.9902 9.55634C47.9404 9.2868 47.8774 9.01874 47.8013 8.75214C47.728 8.4826 47.6387 8.216 47.5332 7.95233C47.4307 7.68866 47.312 7.43085 47.1772 7.17889C47.1538 7.13495 47.1333 7.09393 47.1157 7.05585C47.1011 7.01776 47.0938 6.98114 47.0938 6.94598C47.0938 6.90204 47.1128 6.85516 47.1509 6.80536C47.1919 6.75262 47.2417 6.70428 47.3003 6.66034C47.3618 6.61639 47.4277 6.58124 47.498 6.55487C47.5713 6.52557 47.6416 6.51093 47.709 6.51093C47.8203 6.51093 47.9185 6.58856 48.0034 6.74384C48.0884 6.89618 48.1675 7.14081 48.2407 7.47772C48.2554 7.53632 48.2671 7.57733 48.2759 7.60077C48.2847 7.62421 48.2964 7.63593 48.311 7.63593C48.3433 7.63593 48.3638 7.58612 48.3726 7.48651C48.4077 7.20819 48.4678 6.96942 48.5527 6.7702C48.6377 6.56805 48.7432 6.40253 48.8691 6.27362C48.998 6.14178 49.1445 6.0451 49.3086 5.98358C49.4756 5.92206 49.6587 5.8913 49.8579 5.8913C49.9722 5.8913 50.0879 5.90155 50.2051 5.92206C50.3223 5.94257 50.4277 5.97333 50.5215 6.01434C50.6152 6.05536 50.6914 6.10516 50.75 6.16376C50.8086 6.22235 50.8379 6.28827 50.8379 6.36151C50.8379 6.41425 50.8262 6.47723 50.8027 6.55048C50.7822 6.62079 50.7544 6.68964 50.7192 6.75702C50.6841 6.82147 50.6431 6.87714 50.5962 6.92401C50.5522 6.96796 50.5068 6.98993 50.46 6.98993C50.4072 6.98993 50.356 6.97528 50.3062 6.94598C50.2563 6.91376 50.2021 6.88007 50.1436 6.84491C50.0879 6.80975 50.0278 6.77753 49.9634 6.74823C49.9019 6.716 49.8315 6.69989 49.7524 6.69989Z" fill="#1E1E1E"/>
<g clip-path="url(#clip0_55_30)">
<path d="M33.134 51.961C38.2825 52.9012 44.4818 51.2012 53.67 51.961M33.134 51.961C38.0607 52.4453 42.9778 51.6856 53.67 51.961M33.134 51.961C31.6299 52.4738 28.6701 53.8984 29.5378 55.5035M33.134 51.961C31.6782 52.4833 29.4703 52.8917 29.5378 55.5035M53.67 51.961C55.203 51.0967 56.3696 52.4359 57.2662 55.5035M53.67 51.961C55.6176 51.0207 57.5941 54.1359 57.2662 55.5035M57.2662 55.5035C57.5169 57.308 57.2373 59.1315 57.2662 62.579M57.2662 55.5035C57.2952 57.4979 57.0927 59.8438 57.2662 62.579M57.2662 62.579C56.7167 65.8651 56.8131 67.0333 53.67 66.1215M57.2662 62.579C56.8131 64.4215 56.1093 66.4729 53.67 66.1215M53.67 66.1215C46.4101 66.2925 39.3141 66.1405 33.134 66.1215M53.67 66.1215C47.0754 66.1785 40.4325 66.1405 33.134 66.1215M33.134 66.1215C31.1961 65.7701 29.0557 65.2573 29.5378 62.579M33.134 66.1215C31.3311 65.6372 28.8918 65.1813 29.5378 62.579M29.5378 62.579C29.4703 60.708 29.4221 58.4382 29.5378 55.5035M29.5378 62.579C29.3739 60.6226 29.586 58.9225 29.5378 55.5035" stroke="#1E1E1E" stroke-linecap="round"/>
<path d="M45.3381 56.8445C46.4179 56.9299 48.2016 57.7562 48.9247 58.307C49.6381 58.8579 49.7827 59.5512 49.6381 60.159C49.4935 60.7764 48.7704 61.4507 48.0762 61.992C47.382 62.5429 46.524 63.2932 45.4731 63.4356C44.4222 63.5781 42.8217 63.1697 41.7804 62.8468C40.7295 62.5239 39.5244 62.163 39.1773 61.4982C38.8205 60.8333 39.1966 59.5892 39.669 58.8674C40.1414 58.1456 41.1055 57.4333 42.0118 57.1674C42.9181 56.8919 44.5475 57.2243 45.0971 57.2433C45.637 57.2623 45.2513 57.2813 45.2706 57.2623M45.9937 57.5852C47.0832 57.5188 47.5074 57.3098 48.0087 57.6517C48.5101 57.9936 48.9054 58.9529 49.0018 59.6462C49.0982 60.3395 49.3007 61.2892 48.5872 61.8116C47.8834 62.3339 46.0226 62.6663 44.7596 62.7708C43.4966 62.8658 42.0311 62.6758 41.0188 62.4194C40.0064 62.1725 38.9941 61.7736 38.7048 61.2607C38.406 60.7384 38.8495 59.9121 39.2544 59.3233C39.6593 58.7344 40.045 58.0696 41.1248 57.7372C42.2143 57.3953 45.0971 57.3288 45.7527 57.3098C46.4083 57.2813 45.1163 57.6422 45.0681 57.5852" stroke="#1E1E1E" stroke-linecap="round"/>
<path d="M41.9159 59.4245C41.9737 59.3675 42.0798 59.434 42.128 59.529C42.1666 59.6239 42.128 59.7474 42.1666 60.0038C42.2051 60.2603 42.4076 60.9156 42.3594 61.077C42.3112 61.2385 41.9159 60.9536 41.887 60.9726C41.8484 60.9916 42.1569 61.2955 42.1666 61.21C42.1762 61.1245 41.9834 60.6117 41.9352 60.4502C41.8966 60.2888 41.9448 60.4217 41.8966 60.2508C41.858 60.0703 41.6652 59.5005 41.6845 59.377C41.7038 59.2535 41.9352 59.5385 42.0316 59.5195C42.1183 59.51 42.1569 59.225 42.2148 59.282M42.0991 59.6144C42.2051 59.6239 42.2148 59.377 42.3208 59.491C42.4269 59.6049 42.6872 60.0608 42.7257 60.2793C42.7547 60.4977 42.6679 60.7351 42.5233 60.8206C42.3883 60.8966 41.9737 60.7161 41.887 60.7636C41.8098 60.8016 42.0991 61.0865 42.0509 61.0485C42.0026 61.0106 41.7038 60.6971 41.5784 60.5167C41.4627 60.3362 41.3181 60.1273 41.3085 59.9848C41.3085 59.8329 41.3952 59.7569 41.5399 59.6524C41.6845 59.5385 42.1473 59.3675 42.1955 59.3105C42.2437 59.244 41.8002 59.2915 41.8387 59.2915" stroke="#1E1E1E" stroke-linecap="round"/>
<path d="M45.8946 59.3833C45.9524 59.3928 46.1356 59.4118 46.2127 59.5258C46.2802 59.6303 46.3381 59.8107 46.3381 60.0481C46.3381 60.2761 46.2127 60.7699 46.2031 60.9029C46.1838 61.0359 46.3477 60.8269 46.261 60.8459C46.1742 60.8554 45.7982 61.0169 45.6728 60.9694C45.5475 60.9314 45.5186 60.7604 45.4993 60.599C45.4896 60.428 45.5282 60.2191 45.5764 59.9722C45.6246 59.7347 45.6728 59.2599 45.7789 59.1459C45.8849 59.0319 46.1163 59.2599 46.1838 59.2789C46.261 59.3074 46.2513 59.3169 46.1935 59.2979M45.7885 58.747C45.8946 58.7375 46.5309 59.4593 46.5695 59.6683C46.608 59.8867 46.0971 59.8392 46.0199 60.0102C45.9332 60.1906 46.1453 60.618 46.0585 60.732C45.9814 60.8554 45.6632 60.694 45.5186 60.732C45.3643 60.7605 45.2197 60.9314 45.1618 60.9314C45.0944 60.9314 45.1233 60.8839 45.1233 60.7225C45.1233 60.5705 45.0365 60.2571 45.1522 59.9912C45.2679 59.7252 45.6825 59.2884 45.8367 59.1459C45.9814 58.9939 46.0296 59.1079 46.0392 59.1174C46.0488 59.1269 45.8271 59.1079 45.8657 59.2029" stroke="#1E1E1E" stroke-linecap="round"/>
<path d="M28.6878 58.676C27.3187 58.1347 21.4665 57.9542 21.2833 55.5229C21.1001 53.1011 27.8008 46.9658 27.5791 44.1071C27.3669 41.2579 21.2351 39.4534 19.9817 38.4182M29.4109 58.4006C27.9165 57.9352 21.1194 57.0615 20.753 54.7631C20.3866 52.4648 27.3091 47.4882 27.2127 44.6105C27.1163 41.7423 21.4665 38.6176 20.1842 37.5159" stroke="#1E1E1E" stroke-linecap="round"/>
<path d="M58.1881 58.7377C59.8561 57.3321 67.2895 52.8114 67.8295 50.1331C68.3694 47.4548 62.5364 44.9665 61.4373 42.6587C60.3285 40.3508 61.2348 37.3687 61.2059 36.267M57.7157 58.3673C59.5476 57.0567 68.003 53.3622 68.8032 50.8074C69.5938 48.2431 63.7319 45.6029 62.4978 43.0196C61.2637 40.4458 61.7072 36.4569 61.4083 35.3267" stroke="#1E1E1E" stroke-linecap="round"/>
<path d="M52.7578 24.7501C52.9393 24.6638 53.0825 24.5872 53.4064 24.4031M52.7578 24.7501C52.9814 24.6413 53.1958 24.5158 53.4064 24.4031M52.7578 24.7501C52.6556 25.3352 52.6662 24.6043 52.6132 25.2388M52.7578 24.7501C52.651 24.9913 52.7983 25.6919 52.6132 25.2388M53.4064 24.4031C53.6689 24.5225 53.3222 24.7837 53.9105 24.5448M53.4064 24.4031C53.8061 23.5073 54.1488 24.1467 53.9105 24.5448M53.9105 24.5448C54.6918 26.1943 55.7201 27.8957 56.2943 28.855M53.9105 24.5448C54.4535 25.5857 55.0048 26.6222 56.2943 28.855M56.2943 28.855C56.922 28.7465 55.8829 29.3349 56.1459 29.3566M56.2943 28.855C55.6293 28.7778 56.2756 29.3738 56.1459 29.3566M56.1459 29.3566C55.9177 29.457 55.7256 29.6031 55.4973 29.7036M56.1459 29.3566C55.94 29.4776 55.7125 29.5993 55.4973 29.7036M55.4973 29.7036C55.3332 29.6831 54.6829 29.9877 54.997 29.549M55.4973 29.7036C55.1386 30.4367 55.7272 29.6455 54.997 29.549M54.997 29.549C54.3807 28.6123 53.8684 27.5874 52.6132 25.2388M54.997 29.549C54.4323 28.3898 53.8266 27.3933 52.6132 25.2388" stroke="#1E1E1E" stroke-linecap="round"/>
<path d="M53.5254 22.5035C53.7015 22.3877 53.8409 22.3239 54.1908 22.1475M53.5254 22.5035C53.6977 22.4005 53.9091 22.3091 54.1908 22.1475M53.5254 22.5035C53.1091 22.5206 53.4759 21.9996 53.3733 23.0179M53.5254 22.5035C53.2363 23.4808 52.5709 22.8302 53.3733 23.0179M54.1908 22.1475C54.4954 22.5799 55.2972 22.1942 54.7041 22.3059M54.1908 22.1475C54.7166 21.7364 54.3443 22.8988 54.7041 22.3059M54.7041 22.3059C55.6972 24.1017 56.8897 25.9424 57.5125 27.3843M54.7041 22.3059C55.5532 23.8216 56.4536 25.3314 57.5125 27.3843M57.5125 27.3843C58.094 27.1923 57.6973 28.054 57.3688 27.8942M57.5125 27.3843C58.1565 27.7001 58.0008 28.3462 57.3688 27.8942M57.3688 27.8942C57.1199 28.0165 56.8933 28.1594 56.7034 28.2502M57.3688 27.8942C57.1704 27.9895 56.9729 28.106 56.7034 28.2502M56.7034 28.2502C57.0452 28.5327 56.9756 28.2885 56.1817 28.0963M56.7034 28.2502C56.3235 27.7606 56.5444 28.1404 56.1817 28.0963M56.1817 28.0963C55.3024 26.8024 54.6318 25.5701 53.3733 23.0179M56.1817 28.0963C55.5377 26.7739 54.6715 25.4839 53.3733 23.0179" stroke="#1E1E1E" stroke-linecap="round"/>
<path d="M55.6008 21.808C55.8458 21.6985 56.048 21.5904 56.2662 21.452M55.6008 21.808C55.7945 21.7044 55.992 21.5879 56.2662 21.452M55.6008 21.808C55.5456 21.8267 55.7739 22.0618 55.4486 22.3224M55.6008 21.808C56.0317 21.8372 55.697 22.6333 55.4486 22.3224M56.2662 21.452C56.3319 21.3736 56.2572 21.8898 56.7794 21.6104M56.2662 21.452C56.6734 21.8727 56.2974 21.7059 56.7794 21.6104M56.7794 21.6104C57.742 23.1735 58.5848 24.6384 59.5876 26.6887M56.7794 21.6104C57.9148 23.6439 58.9473 25.5701 59.5876 26.6887M59.5876 26.6887C59.5602 26.4219 59.4521 27.7462 59.4439 27.1985M59.5876 26.6887C59.8773 26.2848 59.9637 27.191 59.4439 27.1985M59.4439 27.1985C59.3045 27.2623 59.1698 27.3344 58.7785 27.5545M59.4439 27.1985C59.1782 27.3298 58.947 27.4644 58.7785 27.5545M58.7785 27.5545C58.8872 27.4747 58.2028 28.2305 58.2569 27.4006M58.7785 27.5545C58.9546 27.1031 57.7967 27.9499 58.2569 27.4006M58.2569 27.4006C57.404 25.8979 56.3135 24.0244 55.4486 22.3224M58.2569 27.4006C57.4176 25.804 56.4311 24.1779 55.4486 22.3224" stroke="#1E1E1E" stroke-linecap="round"/>
<path d="M57.9969 22.1883C58.1738 22.0937 58.3292 21.9997 58.6623 21.8323M57.9969 22.1883C58.1822 22.0892 58.3629 21.9817 58.6623 21.8323M57.9969 22.1883C57.4478 22.1033 58.2352 22.1258 57.8447 22.7027M57.9969 22.1883C57.7931 22.9251 58.3156 22.7647 57.8447 22.7027M58.6623 21.8323C59.2236 21.9 58.6487 21.5907 59.1756 21.9907M58.6623 21.8323C59.0995 21.5768 58.3034 21.4399 59.1756 21.9907M59.1756 21.9907C60.091 23.3302 61.0148 25.0007 61.984 27.0691M59.1756 21.9907C59.9907 23.4055 60.7961 24.9013 61.984 27.0691M61.984 27.0691C62.7339 27.1225 62.453 27.3053 61.8403 27.579M61.984 27.0691C62.3038 26.779 62.256 27.6596 61.8403 27.579M61.8403 27.579C61.5631 27.7489 61.305 27.8545 61.1749 27.935M61.8403 27.579C61.6802 27.6646 61.537 27.7412 61.1749 27.935M61.1749 27.935C60.9347 27.5006 60.6899 27.3935 60.6532 27.7811M61.1749 27.935C60.8279 27.7418 60.5858 28.4883 60.6532 27.7811M60.6532 27.7811C59.8609 26.2892 58.7735 24.5005 57.8447 22.7027M60.6532 27.7811C59.6304 25.7738 58.6449 23.9523 57.8447 22.7027" stroke="#1E1E1E" stroke-linecap="round"/>
<path d="M52.8808 28.5738C53.0869 28.4528 53.2815 28.3704 53.5296 28.2268M52.8808 28.5738C53.0493 28.4837 53.2217 28.3807 53.5296 28.2268M52.8808 28.5738C52.8738 29.173 53.0687 28.8739 52.7363 29.0626M52.8808 28.5738C51.8032 28.5008 52.8338 29.4759 52.7363 29.0626M53.5296 28.2268C53.3198 28.0251 53.8965 27.7058 54.0338 28.3685M53.5296 28.2268C54.429 28.471 54.0446 27.4208 54.0338 28.3685M54.0338 28.3685C54.859 30.038 55.8771 31.9183 56.418 32.6791M54.0338 28.3685C54.8986 29.9519 55.76 31.667 56.418 32.6791M56.418 32.6791C56.7839 33.0247 56.673 32.8242 56.2696 33.1806M56.418 32.6791C56.7972 32.1407 55.7625 32.7375 56.2696 33.1806M56.2696 33.1806C56.0957 33.2412 55.915 33.3487 55.6209 33.5277M56.2696 33.1806C56.1057 33.2791 55.9372 33.3693 55.6209 33.5277M55.6209 33.5277C55.4067 33.4366 55.4825 33.0604 55.1205 33.3732M55.6209 33.5277C55.033 33.669 54.9466 34.1049 55.1205 33.3732M55.1205 33.3732C54.5503 32.1843 53.6854 30.9365 52.7363 29.0626M55.1205 33.3732C54.2241 31.7525 53.2519 30.1724 52.7363 29.0626" stroke="#1E1E1E" stroke-linecap="round"/>
<path d="M57.0939 27.8428C57.7155 27.4238 58.9557 27.292 59.8914 27.4206C60.8271 27.5492 62.1126 28.0329 62.7212 28.6183C63.3382 29.1991 63.5385 30.0353 63.5729 30.9277C63.6027 31.8116 63.4091 33.1619 62.909 33.9388C62.4221 34.7196 61.4676 35.4467 60.5949 35.6097C59.726 35.7598 58.4675 35.3051 57.6756 34.8828C56.8837 34.4604 56.1667 33.8571 55.8482 33.0842C55.5212 32.3157 55.4617 31.2199 55.727 30.2758C55.9838 29.3362 57.1293 27.8673 57.4142 27.4331C57.6907 27.0034 57.4077 27.5992 57.411 27.6842M57.1217 27.5569C57.807 27.1147 58.8656 27.5245 59.7688 27.5946C60.6806 27.6601 61.8976 27.4865 62.5628 27.9765C63.2235 28.4582 63.6986 29.4943 63.7417 30.5013C63.781 31.5211 63.3808 33.2096 62.8262 34.0265C62.2633 34.8479 61.2543 35.2788 60.3808 35.4206C59.5157 35.5578 58.4043 35.2304 57.6017 34.868C56.8077 34.5011 55.9408 33.9236 55.5995 33.228C55.2535 32.5239 55.2504 31.5498 55.548 30.6642C55.8457 29.7787 57.1198 28.4036 57.3769 27.9192C57.6294 27.4264 57.0413 27.7083 57.0637 27.7289" stroke="#1E1E1E" stroke-linecap="round"/>
<path d="M16.4652 25.2333C16.6942 25.162 16.9299 25.0571 17.1479 24.9594M16.4652 25.2333C16.7009 25.1285 16.944 25.0412 17.1479 24.9594M16.4652 25.2333C16.4353 25.5843 15.726 25.3964 16.2674 25.703M16.4652 25.2333C15.8591 24.8705 15.476 25.3426 16.2674 25.703M17.1479 24.9594C17.715 24.3826 17.0398 24.8487 17.6328 25.1551M17.1479 24.9594C17.8069 24.4792 17.222 25.5357 17.6328 25.1551M17.6328 25.1551C18.2425 26.4718 18.7335 27.528 19.5219 29.6974M17.6328 25.1551C18.0318 26.1147 18.4529 27.127 19.5219 29.6974M19.5219 29.6974C19.6353 29.3232 18.8974 29.7631 19.3189 30.1795M19.5219 29.6974C18.8055 29.6664 19.6498 30.3035 19.3189 30.1795M19.3189 30.1795C19.1046 30.286 18.9095 30.3643 18.6362 30.4534M19.3189 30.1795C19.092 30.2808 18.849 30.368 18.6362 30.4534M18.6362 30.4534C18.5051 30.8347 17.8231 30.2147 18.1565 30.2453M18.6362 30.4534C18.0466 30.4537 17.7586 30.9802 18.1565 30.2453M18.1565 30.2453C17.3956 28.4654 16.8998 26.8257 16.2674 25.703M18.1565 30.2453C17.7139 29.0567 17.2218 27.8983 16.2674 25.703" stroke="#1E1E1E" stroke-linecap="round"/>
<path d="M14.2087 24.3989C14.3771 24.3313 14.5293 24.2497 14.9088 24.1179M14.2087 24.3989C14.4746 24.2922 14.7279 24.1803 14.9088 24.1179M14.2087 24.3989C13.368 24.3666 14.0934 24.9176 14.0006 24.8932M14.2087 24.3989C14.1307 24.5843 13.5175 24.2039 14.0006 24.8932M14.9088 24.1179C14.6469 23.9355 15.6793 23.7574 15.4008 24.3313M14.9088 24.1179C14.8201 24.6259 15.1995 24.3196 15.4008 24.3313M15.4008 24.3313C16.1909 25.8834 16.7139 27.9124 17.6256 29.6827M15.4008 24.3313C16.175 26.2184 16.9073 27.8553 17.6256 29.6827M17.6256 29.6827C17.0816 29.5929 16.9509 29.8507 17.4264 30.1734M17.6256 29.6827C17.8336 30.1332 17.7246 30.0948 17.4264 30.1734M17.4264 30.1734C17.2033 30.2835 16.9906 30.3689 16.7262 30.4544M17.4264 30.1734C17.1782 30.273 16.9071 30.3921 16.7262 30.4544M16.7262 30.4544C16.0549 30.2822 16.0028 30.4058 16.2254 30.2446M16.7262 30.4544C15.9941 31.0564 16.9867 30.658 16.2254 30.2446M16.2254 30.2446C15.8684 28.8885 15.0515 27.645 14.0006 24.8932M16.2254 30.2446C15.4082 28.1796 14.4801 26.2208 14.0006 24.8932" stroke="#1E1E1E" stroke-linecap="round"/>
<path d="M12.3482 25.5416C12.6067 25.4173 12.8762 25.3194 13.0483 25.2606M12.3482 25.5416C12.5395 25.4546 12.7167 25.3834 13.0483 25.2606M12.3482 25.5416C11.7804 25.2457 11.4309 25.6735 12.14 26.0359M12.3482 25.5416C12.7767 25.9755 12.2061 25.8964 12.14 26.0359M13.0483 25.2606C13.656 24.8319 13.1713 25.7556 13.5403 25.474M13.0483 25.2606C13.1762 25.3942 13.6696 25.4118 13.5403 25.474M13.5403 25.474C14.2239 27.5412 15.1972 29.2355 15.7651 30.8253M13.5403 25.474C14.2161 27 14.7956 28.6674 15.7651 30.8253M15.7651 30.8253C15.1669 30.8292 15.8856 31.4137 15.5658 31.3161M15.7651 30.8253C15.9406 31.0733 15.7399 30.6403 15.5658 31.3161M15.5658 31.3161C15.3073 31.4404 15.0414 31.5471 14.8657 31.5971M15.5658 31.3161C15.2947 31.4352 15.0127 31.5278 14.8657 31.5971M14.8657 31.5971C14.3139 31.6131 14.0322 32.0548 14.3648 31.3873M14.8657 31.5971C15.2889 31.8689 14.0924 31.7021 14.3648 31.3873M14.3648 31.3873C13.7389 30.1802 13.4518 28.8678 12.14 26.0359M14.3648 31.3873C13.6954 29.9511 13.1975 28.5796 12.14 26.0359" stroke="#1E1E1E" stroke-linecap="round"/>
<path d="M11.131 27.6086C11.3704 27.5126 11.5727 27.4519 11.8313 27.3276M11.131 27.6086C11.3172 27.5339 11.5299 27.4486 11.8313 27.3276M11.131 27.6086C11.0368 27.78 10.4955 27.4733 10.9228 28.103M11.131 27.6086C10.883 27.4103 11.4921 28.2033 10.9228 28.103M11.8313 27.3276C11.7827 27.758 12.1377 27.4923 12.3235 27.541M11.8313 27.3276C12.29 27.4106 12.7815 27.5729 12.3235 27.541M12.3235 27.541C12.9038 28.7872 13.3761 30.0972 14.549 32.8928M12.3235 27.541C13.0902 29.534 13.9327 31.6097 14.549 32.8928M14.549 32.8928C14.7373 33.3206 14.648 33.305 14.3497 33.3837M14.549 32.8928C14.6003 32.5436 15.2138 33.0985 14.3497 33.3837M14.3497 33.3837C14.1177 33.4973 13.8695 33.5969 13.6494 33.6647M14.3497 33.3837C14.1244 33.4638 13.9065 33.5615 13.6494 33.6647M13.6494 33.6647C12.9822 34.1995 13.8259 33.8404 13.1484 33.4549M13.6494 33.6647C13.0475 33.8343 13.1265 34.5216 13.1484 33.4549M13.1484 33.4549C12.6094 31.7607 11.6823 30.0785 10.9228 28.103M13.1484 33.4549C12.6427 32.189 11.9845 30.8303 10.9228 28.103" stroke="#1E1E1E" stroke-linecap="round"/>
<path d="M19.3931 27.7467C19.5512 27.7038 19.7019 27.6433 20.0759 27.4727M19.3931 27.7467C19.5793 27.672 19.7337 27.6203 20.0759 27.4727M19.3931 27.7467C19.7483 28.128 19.2489 28.0716 19.1953 28.2164M19.3931 27.7467C19.7025 27.6944 19.0862 27.7054 19.1953 28.2164M20.0759 27.4727C20.2195 27.5692 20.6651 27.5958 20.5608 27.6685M20.0759 27.4727C20.8598 27.641 19.8051 26.9958 20.5608 27.6685M20.5608 27.6685C21.2434 29.2847 22.0743 30.9339 22.4502 32.2109M20.5608 27.6685C20.8618 28.616 21.3722 29.644 22.4502 32.2109M22.4502 32.2109C22.6044 32.4572 22.4329 32.0946 22.2472 32.693M22.4502 32.2109C23.1792 32.2471 23.0608 32.8083 22.2472 32.693M22.2472 32.693C22.0151 32.8067 21.7329 32.8993 21.5644 32.9669M22.2472 32.693C22.0041 32.7803 21.7684 32.8851 21.5644 32.9669M21.5644 32.9669C21.9127 33.2073 20.8653 33.0523 21.0847 32.7588M21.5644 32.9669C21.222 33.885 21.2254 32.5996 21.0847 32.7588M21.0847 32.7588C20.4441 31.3928 19.7349 29.7873 19.1953 28.2164M21.0847 32.7588C20.5136 31.5601 20.06 30.3451 19.1953 28.2164" stroke="#1E1E1E" stroke-linecap="round"/>
<path d="M16.89 30.5501C17.6822 30.2841 18.7073 30.0791 19.5384 30.4045C20.3694 30.7299 21.434 31.6408 21.8511 32.4922C22.2771 33.3401 22.2932 34.5991 22.0853 35.4952C21.8775 36.3913 21.305 37.4335 20.5989 37.8811C19.8928 38.3287 18.7931 38.255 17.8613 38.186C16.9295 38.117 15.6335 38.0706 15.0047 37.4583C14.3759 36.8461 14.1456 35.4465 14.0885 34.5125C14.0278 33.5697 14.125 32.5328 14.6602 31.8244C15.1953 31.1161 16.9471 30.5376 17.3032 30.2714C17.6468 29.9999 16.8535 30.1635 16.7645 30.1992M16.014 30.6646C16.6922 30.1253 17.7632 29.7064 18.6799 29.8637C19.6054 30.0175 20.9191 30.8286 21.5533 31.6033C22.1912 32.3868 22.4716 33.6325 22.4946 34.5596C22.5125 35.499 22.2383 36.5348 21.6832 37.2203C21.1281 37.9057 20.0408 38.609 19.1715 38.6899C18.2969 38.7831 17.2468 38.2059 16.4266 37.7321C15.6153 37.2548 14.7191 36.6982 14.2858 35.8327C13.865 34.9725 13.6351 33.4493 13.8754 32.5814C14.112 31.7046 15.4264 30.8486 15.7344 30.5914C16.0335 30.3378 15.5385 30.9683 15.6878 31.0525" stroke="#1E1E1E" stroke-linecap="round"/>
<path d="M43.3039 51.4071C43.3328 50.3624 43.9884 46.6395 42.5519 45.1959C41.1249 43.7523 34.7617 44.2461 34.7231 42.755C34.6942 41.264 41.1346 37.408 42.3301 36.2683M42.8893 52.2809C43.1207 51.3312 44.9043 47.4087 43.5256 45.6612C42.1373 43.9232 34.7327 43.5433 34.5881 41.8338C34.4435 40.1243 41.5299 36.3538 42.6483 35.4041" stroke="#1E1E1E" stroke-linecap="round"/>
<path d="M41.8666 30.8508C42.715 30.7084 43.8431 31.1642 44.5758 31.6961C45.3085 32.2279 46.1088 33.1492 46.263 34.0229C46.4077 34.8872 45.9352 36.1313 45.4917 36.9101C45.0386 37.6889 44.3444 38.3632 43.5827 38.6861C42.8211 38.9995 41.7605 39.0565 40.9217 38.8096C40.0926 38.5627 39.0899 37.9453 38.6078 37.1856C38.1257 36.4163 37.904 35.0961 38.0293 34.2129C38.1643 33.3201 38.7621 32.3419 39.3888 31.8385C40.0058 31.3257 41.317 31.2592 41.7412 31.1642C42.1655 31.0693 41.8473 31.2307 41.9341 31.2592M41.6159 30.7084C42.4933 30.5564 44.3348 31.3067 45.0579 31.8385C45.781 32.3704 45.8388 33.1207 45.9352 33.8995C46.0316 34.6783 46.022 35.685 45.6556 36.4922C45.2796 37.309 44.5372 38.4487 43.6984 38.7621C42.8596 39.085 41.452 38.6766 40.6132 38.4107C39.7744 38.1353 39.1863 37.8029 38.6464 37.1476C38.1161 36.4827 37.2966 35.2576 37.4123 34.4218C37.528 33.5956 38.5692 32.7883 39.3213 32.152C40.0637 31.5156 41.4134 30.7463 41.8955 30.6134C42.3776 30.4709 42.1558 31.1832 42.2137 31.3447" fill="white"/>
<path d="M41.1241 30.9743C41.9726 30.7273 43.4381 30.8603 44.2094 31.3067C44.971 31.7531 45.482 32.8073 45.7327 33.6715C45.993 34.5358 46.0316 35.723 45.7423 36.5112C45.4531 37.2995 44.8168 38.0308 44.0165 38.4107C43.226 38.7906 41.8569 38.8856 40.9795 38.7811C40.0925 38.6861 39.2055 38.4867 38.7331 37.8124C38.251 37.1286 38.0678 35.571 38.1353 34.7162C38.1932 33.852 38.5692 33.2157 39.0995 32.6268C39.6394 32.038 40.9024 31.3922 41.3459 31.1737C41.7894 30.9458 41.7219 31.1832 41.7508 31.2782M42.1654 30.6989C43.1103 30.7273 44.4118 32.019 45.1349 32.6078C45.858 33.1872 46.3883 33.3676 46.4944 34.2034C46.6004 35.0391 46.3305 36.7677 45.7809 37.6129C45.241 38.4677 44.0744 39.1515 43.197 39.2845C42.3293 39.4174 41.4134 38.8381 40.536 38.4107C39.6587 37.9833 38.3185 37.461 37.9329 36.7297C37.5472 36.0079 37.9039 34.8492 38.2317 34.0324C38.5596 33.2251 39.2827 32.3134 39.919 31.8765C40.5553 31.4396 41.6833 31.5061 42.0304 31.4017C42.3775 31.2972 42.0304 31.2212 42.0015 31.2402" stroke="#1E1E1E" stroke-linecap="round"/>
<path d="M42.2959 33.3572C42.2959 33.7941 42.3056 35.95 42.2574 36.4913M42.0356 33.965C42.0067 34.4304 42.1802 35.5796 42.1513 35.9405" stroke="#1E1E1E" stroke-linecap="round"/>
<path d="M38.2104 66.6078C38.2875 67.738 39.6277 71.9928 38.4804 72.9805C37.333 73.9777 32.5895 71.2995 31.3361 72.5531C30.0828 73.8068 30.9987 79.2013 30.9698 80.5119M37.5162 66.2849C37.5355 67.2631 39.0203 70.9956 37.9694 72.1258C36.9185 73.2654 32.3388 71.6414 31.2204 73.104C30.1117 74.5761 31.3361 79.7046 31.259 80.9203" stroke="#1E1E1E" stroke-linecap="round"/>
<path d="M29.0085 81.1464C29.9244 81.1274 33.4917 81.1654 34.2919 81.2034M28.7578 80.795C29.6448 80.6715 33.1639 80.6525 34.1184 80.6715" stroke="#1E1E1E" stroke-linecap="round"/>
<path d="M49.9991 66.3473C49.9798 67.468 48.389 71.9413 49.6038 72.91C50.8186 73.8882 55.9381 71.001 57.2879 72.1977C58.6474 73.3849 57.5964 78.6939 57.7314 80.0425M49.4206 66.0434C49.3531 67.0121 47.9648 71.0675 49.2181 72.1787C50.4811 73.2899 55.4946 71.3619 56.9408 72.7295C58.3967 74.0972 57.7796 79.0833 57.905 80.3844" stroke="#1E1E1E" stroke-linecap="round"/>
<path d="M59.5674 81.1803C58.6515 81.1138 54.9878 80.8289 54.0815 80.7339M59.1817 81.0093C58.208 80.9808 54.6696 81.1613 53.8115 81.1423" stroke="#1E1E1E" stroke-linecap="round"/>
</g>
<defs>
<clipPath id="clip0_55_30">
<rect width="66.5252" height="61.7328" fill="white" transform="translate(7.73279 20.9773)"/>
</clipPath>
</defs>
</svg>
