<svg width="81" height="110" viewBox="0 0 81 110" fill="none" xmlns="http://www.w3.org/2000/svg">
<path d="M20.6917 100.064C19.8356 100.064 19.1064 99.8315 18.5042 99.3656C17.9019 98.8959 17.4417 98.216 17.1235 97.3259C16.8053 96.4319 16.6462 95.3524 16.6462 94.0872C16.6462 92.8296 16.8053 91.7558 17.1235 90.8656C17.4454 89.9717 17.9076 89.2899 18.5098 88.8202C19.1159 88.3467 19.8432 88.1099 20.6917 88.1099C21.5401 88.1099 22.2655 88.3467 22.8678 88.8202C23.4738 89.2899 23.936 89.9717 24.2542 90.8656C24.5761 91.7558 24.7371 92.8296 24.7371 94.0872C24.7371 95.3524 24.578 96.4319 24.2598 97.3259C23.9417 98.216 23.4814 98.8959 22.8792 99.3656C22.2769 99.8315 21.5477 100.064 20.6917 100.064ZM20.6917 98.8145C21.5401 98.8145 22.1992 98.4054 22.6689 97.5872C23.1386 96.769 23.3735 95.6024 23.3735 94.0872C23.3735 93.0796 23.2655 92.2217 23.0496 91.5133C22.8375 90.805 22.5307 90.2652 22.1292 89.894C21.7314 89.5228 21.2523 89.3372 20.6917 89.3372C19.8507 89.3372 19.1935 89.752 18.7201 90.5815C18.2466 91.4073 18.0098 92.5758 18.0098 94.0872C18.0098 95.0948 18.1159 95.9508 18.328 96.6554C18.5401 97.3599 18.8451 97.8959 19.2428 98.2634C19.6443 98.6308 20.1273 98.8145 20.6917 98.8145Z" fill="#1E1E1E"/>
<path d="M11.2212 95.6599C11.2115 94.8683 11.1923 91.6931 11.1827 90.9015" stroke="#1E1E1E" stroke-linecap="round"/>
<path d="M11.1517 91.0798C11.3922 90.7632 12.3639 89.5142 12.6044 89.1976" stroke="#1E1E1E" stroke-linecap="round"/>
<path d="M14.0407 95.7164C14.0503 94.9248 14.0696 91.7496 14.0792 90.958" stroke="#1E1E1E" stroke-linecap="round"/>
<path d="M14.11 91.1363C13.8694 90.8197 12.8977 89.5707 12.6572 89.2541" stroke="#1E1E1E" stroke-linecap="round"/>
<path d="M9.09271 96.1431C10.228 96.1256 14.7497 96.0558 15.8753 96.0384" stroke="#1E1E1E" stroke-linecap="round"/>
<path d="M12.8047 96.2235C12.8144 96.7776 12.8529 99.0117 12.8625 99.5658" stroke="#1E1E1E" stroke-linecap="round"/>
<path d="M52.6454 91.8971C52.9917 91.5717 54.3771 90.2524 54.7235 89.9182" stroke="#1E1E1E" stroke-linecap="round"/>
<path d="M54.7192 89.8828C55.104 90.1731 56.6241 91.3341 57.0089 91.6243" stroke="#1E1E1E" stroke-linecap="round"/>
<path d="M57.0953 91.8576C56.4315 92.7899 53.7858 96.528 53.1219 97.4691" stroke="#1E1E1E" stroke-linecap="round"/>
<path d="M52.7101 91.8971C52.3637 91.5717 50.9784 90.2524 50.632 89.9182" stroke="#1E1E1E" stroke-linecap="round"/>
<path d="M50.6363 89.8828C50.2515 90.1731 48.7314 91.3341 48.3466 91.6243" stroke="#1E1E1E" stroke-linecap="round"/>
<path d="M48.2602 91.8576C48.924 92.7899 51.5697 96.528 52.2335 97.4691" stroke="#1E1E1E" stroke-linecap="round"/>
<path d="M21.4343 1.42702C35.5382 1.92836 48.9495 1.0664 60.3019 1.42702C70.3844 -0.886207 76.8303 8.97357 79.7357 19.194C83.103 37.7525 78.5428 50.0839 79.7357 90.9215C76.6283 100.693 74.4347 106.358 60.3019 108.688C49.4594 108.451 32.6616 105.135 21.4343 108.688C11.804 108.82 4.28056 104.95 2.00046 90.9215C-1.44375 75.6788 0.23987 57.7887 2.00046 19.194C-1.16475 7.40797 10.0722 0.960853 21.4343 1.42702Z" fill="white"/>
<path d="M21.4342 1.42704C34.4799 2.29779 43.4079 0.1253 60.3019 1.42704M21.4342 1.42704C33.6718 1.99875 43.6292 1.37426 60.3019 1.42704M21.4342 1.42704C9.01391 2.04272 3.53011 6.11505 2.00042 19.194M21.4342 1.42704C6.76266 2.64082 3.34731 5.816 2.00042 19.194M60.3019 1.42704C71.712 1.02244 80.0436 8.86805 79.7357 19.194M60.3019 1.42704C71.7601 0.345188 80.5342 6.66037 79.7357 19.194M79.7357 19.194C78.283 37.5063 79.678 57.0235 79.7357 90.9215M79.7357 19.194C78.841 34.0848 80.2264 50.5412 79.7357 90.9215M79.7357 90.9215C78.3311 101.274 73.665 108.451 60.3019 108.688M79.7357 90.9215C78.6293 104.59 75.3775 107.264 60.3019 108.688M60.3019 108.688C48.4395 109.207 32.7674 108.469 21.4342 108.688M60.3019 108.688C51.9607 108.275 43.5426 108.442 21.4342 108.688M21.4342 108.688C9.49494 109.559 1.41355 103.411 2.00042 90.9215M21.4342 108.688C6.59911 109.911 0.480344 102.294 2.00042 90.9215M2.00042 90.9215C1.55786 69.2141 1.8561 49.2131 2.00042 19.194M2.00042 90.9215C2.30828 72.2926 1.61559 53.435 2.00042 19.194" stroke="#1E1E1E" stroke-width="2" stroke-linecap="round"/>
<path d="M10.4813 79.0234C21.0545 79.0234 63.3663 79.0234 73.9395 79.0234" stroke="#1E1E1E" stroke-width="2" stroke-linecap="round"/>
<path d="M22.7116 1.32751C33.8523 1.32751 45.0027 1.32751 57.7213 1.32751C60.1072 1.32751 61.3098 2.41816 61.3098 4.60824C61.3098 7.08858 61.3098 9.56892 61.3098 11.1609C61.3098 13.3422 60.1072 14.4328 57.7213 14.4328C46.9173 14.4328 36.1132 14.4328 22.7116 14.4328C20.316 14.4328 19.123 13.3422 19.123 11.1609C19.123 8.77732 19.123 6.40253 19.123 4.60824C19.123 2.41816 20.316 1.32751 22.7116 1.32751Z" fill="white"/>
<path d="M22.7116 1.32751C34.7567 1.32751 46.8114 1.32751 57.7213 1.32751M22.7116 1.32751C34.3719 1.32751 46.0418 1.32751 57.7213 1.32751M22.7116 1.32751C20.316 1.32751 19.123 2.41816 19.123 4.60824M57.7213 1.32751C60.1072 1.32751 61.3098 2.41816 61.3098 4.60824C61.3098 6.29699 61.3098 7.98573 61.3098 11.1609C61.3098 13.3422 60.1072 14.4328 57.7213 14.4328M57.7213 14.4328C45.9552 14.4328 34.1891 14.4328 22.7116 14.4328M57.7213 14.4328C50.1209 14.4328 42.5206 14.4328 22.7116 14.4328M22.7116 14.4328C20.316 14.4328 19.123 13.3422 19.123 11.1609M19.123 11.1609C19.123 9.49856 19.123 7.845 19.123 4.60824M19.123 11.1609C19.123 9.08517 19.123 7.00942 19.123 4.60824" stroke="#1E1E1E" stroke-width="2" stroke-linecap="round"/>
<path d="M28.8573 7.12088C28.8573 7.29153 28.8985 7.45081 28.981 7.59872C29.0664 7.74378 29.1773 7.87177 29.3138 7.9827C29.4503 8.09078 29.6068 8.17611 29.7831 8.23868C29.9595 8.29841 30.1401 8.32828 30.325 8.32828C30.3818 8.32828 30.4402 8.32401 30.4999 8.31548C30.5596 8.3041 30.6137 8.28561 30.662 8.26002C30.7104 8.23442 30.7502 8.20171 30.7815 8.16189C30.8128 8.11922 30.8284 8.0666 30.8284 8.00403C30.8284 7.88457 30.7857 7.76653 30.7004 7.64991C30.6179 7.5333 30.5084 7.4181 30.3719 7.30433C30.2354 7.18772 30.0789 7.07252 29.9026 6.95875C29.7262 6.84214 29.547 6.72694 29.365 6.61317C29.183 6.4994 29.0038 6.38563 28.8274 6.27185C28.6511 6.15524 28.4947 6.04004 28.3581 5.92627C28.2216 5.80966 28.1107 5.69304 28.0253 5.57642C27.9429 5.45696 27.9016 5.3375 27.9016 5.21804C27.9016 5.10427 27.9301 4.99903 27.987 4.90233C28.0467 4.80278 28.1249 4.71318 28.2216 4.63354C28.3183 4.5539 28.4307 4.48279 28.5587 4.42022C28.6866 4.35764 28.8203 4.30502 28.9597 4.26236C29.0991 4.2197 29.2384 4.18841 29.3778 4.1685C29.52 4.14574 29.6551 4.13437 29.7831 4.13437C29.877 4.13437 29.9794 4.13721 30.0903 4.1429C30.2041 4.14574 30.3093 4.15854 30.406 4.1813C30.5056 4.20121 30.5881 4.2325 30.6535 4.27516C30.7189 4.31782 30.7516 4.37898 30.7516 4.45862C30.7516 4.48422 30.7473 4.51692 30.7388 4.55674C30.7303 4.59372 30.7061 4.6563 30.6663 4.74447C30.6265 4.82695 30.5795 4.88953 30.5255 4.93219C30.4743 4.97201 30.4074 4.99192 30.325 4.99192C30.2083 4.99192 30.0846 4.97912 29.9538 4.95352C29.8258 4.92508 29.6964 4.91086 29.5655 4.91086C29.4944 4.91086 29.4219 4.91513 29.3479 4.92366C29.2768 4.92935 29.2114 4.94215 29.1517 4.96206C29.092 4.97912 29.0436 5.00614 29.0066 5.04312C28.9697 5.07725 28.9512 5.12134 28.9512 5.17538C28.9512 5.22942 28.9896 5.29057 29.0664 5.35884C29.146 5.4271 29.2498 5.50247 29.3778 5.58496C29.5086 5.66744 29.6566 5.75846 29.8215 5.85801C29.9865 5.95472 30.1543 6.05995 30.325 6.17373C30.4985 6.28465 30.6677 6.40411 30.8327 6.53211C30.9976 6.65726 31.1441 6.79094 31.2721 6.93315C31.4029 7.07252 31.5068 7.22043 31.5836 7.37686C31.6632 7.5333 31.703 7.69542 31.703 7.86324C31.703 8.06803 31.6561 8.24864 31.5622 8.40508C31.4684 8.56151 31.3475 8.69235 31.1996 8.79759C31.0517 8.90283 30.8881 8.98104 30.7089 9.03224C30.5298 9.08628 30.3548 9.1133 30.1842 9.1133C30.0107 9.1133 29.8343 9.09197 29.6551 9.04931C29.4788 9.00949 29.3081 8.95118 29.1432 8.87438C28.9782 8.80043 28.8232 8.71084 28.6781 8.6056C28.5359 8.49751 28.4122 8.37805 28.3069 8.24722C28.2017 8.11353 28.1178 7.9699 28.0552 7.81631C27.9955 7.66271 27.9656 7.50201 27.9656 7.3342C27.9656 7.26309 27.9699 7.19198 27.9784 7.12088C27.9898 7.04692 28.0083 6.98293 28.0339 6.92889C28.0595 6.872 28.095 6.82649 28.1405 6.79236C28.1861 6.75538 28.2444 6.7369 28.3155 6.7369C28.3382 6.7369 28.3638 6.73974 28.3923 6.74543C28.4207 6.74827 28.4705 6.76107 28.5416 6.78383C28.6241 6.80943 28.6966 6.85067 28.7592 6.90755C28.8246 6.9616 28.8573 7.0327 28.8573 7.12088ZM32.4539 3.94238C32.4539 3.79163 32.4966 3.68639 32.5819 3.62666C32.6672 3.56409 32.808 3.5328 33.0043 3.5328C33.0754 3.5328 33.1351 3.53991 33.1835 3.55413C33.2347 3.56551 33.2773 3.58826 33.3115 3.62239C33.3484 3.65653 33.3769 3.70203 33.3968 3.75892C33.4196 3.81296 33.438 3.88265 33.4523 3.96798C33.4864 4.2325 33.5234 4.50555 33.5632 4.78713C33.6059 5.06872 33.6499 5.35173 33.6954 5.63615C33.7125 5.76415 33.7794 5.82814 33.896 5.82814C33.9273 5.82814 33.9785 5.8253 34.0496 5.81961C34.1235 5.81108 34.2103 5.80255 34.3098 5.79401C34.4094 5.78264 34.516 5.77126 34.6298 5.75988C34.7464 5.7485 34.8616 5.73855 34.9754 5.73002C35.092 5.71864 35.2015 5.71011 35.3039 5.70442C35.4091 5.69588 35.5016 5.69162 35.5812 5.69162C35.6438 5.69162 35.6936 5.70442 35.7305 5.73002C35.7675 5.75277 35.796 5.78406 35.8159 5.82388C35.8386 5.86085 35.8528 5.90352 35.8585 5.95187C35.8671 5.99738 35.8713 6.04431 35.8713 6.09266C35.8713 6.13533 35.8628 6.17941 35.8457 6.22492C35.8315 6.27043 35.8102 6.31167 35.7817 6.34865C35.7561 6.38278 35.7234 6.41122 35.6836 6.43398C35.6438 6.45673 35.5983 6.46811 35.5471 6.46811C35.2996 6.46811 35.0493 6.47664 34.7962 6.49371C34.5459 6.50793 34.2956 6.52784 34.0453 6.55344C33.9173 6.57051 33.8533 6.6345 33.8533 6.74543C33.8533 6.75396 33.8547 6.76534 33.8576 6.77956C33.8604 6.79094 33.8618 6.80089 33.8618 6.80943C33.896 7.05688 33.9273 7.28869 33.9557 7.50486C33.987 7.72102 34.0126 7.91443 34.0325 8.08509C34.0553 8.25291 34.0723 8.3937 34.0837 8.50747C34.0979 8.6184 34.105 8.69235 34.105 8.72932C34.105 8.83172 34.0951 8.91705 34.0752 8.98531C34.0553 9.05642 34.0225 9.1133 33.977 9.15597C33.9315 9.20148 33.8704 9.23276 33.7936 9.24983C33.7196 9.26974 33.6258 9.2797 33.512 9.2797C33.4039 9.2797 33.3243 9.2541 33.2731 9.2029C33.2219 9.1517 33.1934 9.07348 33.1877 8.96825C33.1707 8.63262 33.1437 8.29557 33.1067 7.9571C33.0697 7.61578 33.027 7.27589 32.9787 6.93742C32.9531 6.81511 32.8891 6.75396 32.7867 6.75396C32.7782 6.75396 32.7682 6.75538 32.7568 6.75823C32.7455 6.76107 32.7355 6.7625 32.727 6.7625C32.5506 6.80232 32.3842 6.84214 32.2278 6.88196C32.0714 6.92178 31.9249 6.96444 31.7884 7.00995C31.7116 7.03555 31.6433 7.05404 31.5836 7.06541C31.5238 7.07395 31.4698 7.07821 31.4214 7.07821C31.356 7.07821 31.3077 7.04977 31.2764 6.99288C31.2451 6.93315 31.2294 6.8592 31.2294 6.77103C31.2294 6.73974 31.2323 6.70419 31.238 6.66437C31.2437 6.6217 31.255 6.58046 31.2721 6.54064C31.2863 6.49798 31.3091 6.45958 31.3404 6.42545C31.3688 6.38847 31.4086 6.35861 31.4598 6.33585C31.5793 6.2875 31.7386 6.23772 31.9377 6.18653C32.1368 6.13248 32.3615 6.08271 32.6118 6.0372C32.6687 6.02298 32.7127 6.00022 32.744 5.96894C32.7782 5.93481 32.7952 5.88503 32.7952 5.81961C32.7952 5.80539 32.7952 5.79117 32.7952 5.77695C32.7952 5.75988 32.7924 5.74282 32.7867 5.72575C32.7412 5.46407 32.6971 5.22658 32.6544 5.01325C32.6146 4.79709 32.5791 4.61221 32.5478 4.45862C32.5193 4.30502 32.4966 4.18414 32.4795 4.09597C32.4624 4.0078 32.4539 3.9566 32.4539 3.94238ZM37.9363 5.67882C37.8311 5.67882 37.7386 5.70726 37.659 5.76415C37.5793 5.81819 37.5111 5.89499 37.4542 5.99454C37.3973 6.09124 37.3504 6.20644 37.3134 6.34012C37.2764 6.47096 37.2466 6.61459 37.2238 6.77103C37.201 6.92746 37.1854 7.09101 37.1769 7.26167C37.1683 7.43233 37.1641 7.60441 37.1641 7.77791C37.1641 8.00545 37.1726 8.23015 37.1897 8.45201C37.2096 8.67102 37.2195 8.87438 37.2195 9.06211C37.2195 9.18441 37.174 9.2797 37.083 9.34796C36.992 9.41907 36.8626 9.45462 36.6948 9.45462C36.6635 9.45462 36.6279 9.45178 36.5881 9.44609C36.5483 9.4404 36.5099 9.42902 36.4729 9.41196C36.4388 9.39489 36.4075 9.37071 36.379 9.33943C36.3534 9.31098 36.3392 9.27116 36.3364 9.21997C36.3108 8.96967 36.2738 8.71368 36.2254 8.45201C36.1771 8.19033 36.1159 7.93008 36.042 7.67125C35.9709 7.40957 35.8841 7.15074 35.7817 6.89475C35.6822 6.63877 35.567 6.38847 35.4362 6.14386C35.4134 6.1012 35.3935 6.06138 35.3764 6.0244C35.3622 5.98742 35.3551 5.95187 35.3551 5.91774C35.3551 5.87508 35.3736 5.82957 35.4106 5.78121C35.4504 5.73002 35.4987 5.68309 35.5556 5.64042C35.6153 5.59776 35.6793 5.56363 35.7476 5.53803C35.8187 5.50958 35.887 5.49536 35.9524 5.49536C36.0605 5.49536 36.1558 5.57074 36.2382 5.72148C36.3207 5.86939 36.3975 6.10689 36.4686 6.43398C36.4829 6.49087 36.4942 6.53069 36.5028 6.55344C36.5113 6.57619 36.5227 6.58757 36.5369 6.58757C36.5682 6.58757 36.5881 6.53922 36.5966 6.44251C36.6308 6.1723 36.6891 5.94049 36.7716 5.74708C36.854 5.55083 36.9564 5.39012 37.0787 5.26497C37.2039 5.13698 37.3461 5.04312 37.5054 4.98339C37.6675 4.92366 37.8453 4.89379 38.0387 4.89379C38.1496 4.89379 38.262 4.90375 38.3757 4.92366C38.4895 4.94357 38.5919 4.97343 38.6829 5.01325C38.7739 5.05307 38.8479 5.10143 38.9048 5.15831C38.9617 5.2152 38.9901 5.2792 38.9901 5.3503C38.9901 5.4015 38.9787 5.46265 38.956 5.53376C38.9361 5.60202 38.909 5.66886 38.8749 5.73428C38.8408 5.79686 38.801 5.8509 38.7554 5.89641C38.7128 5.93907 38.6687 5.9604 38.6232 5.9604C38.572 5.9604 38.5222 5.94618 38.4739 5.91774C38.4255 5.88645 38.3729 5.85374 38.316 5.81961C38.262 5.78548 38.2037 5.75419 38.1411 5.72575C38.0814 5.69446 38.0131 5.67882 37.9363 5.67882ZM39.6173 7.3598C39.6173 7.74093 39.6756 8.03532 39.7922 8.24295C39.9088 8.45058 40.078 8.5544 40.2999 8.5544C40.4393 8.5544 40.5673 8.51316 40.6839 8.43067C40.8033 8.34819 40.9057 8.233 40.9911 8.08509C41.0764 7.93719 41.1418 7.76226 41.1873 7.56032C41.2357 7.35553 41.2598 7.13368 41.2598 6.89475C41.2598 6.7497 41.2542 6.62455 41.2428 6.51931C41.2314 6.41122 41.2186 6.31594 41.2044 6.23346C41.193 6.14813 41.1816 6.07275 41.1703 6.00734C41.1589 5.94192 41.1532 5.87934 41.1532 5.81961C41.1532 5.72859 41.1916 5.66318 41.2684 5.62336C41.3452 5.58069 41.4675 5.55936 41.6353 5.55936C41.8486 5.55936 42.0136 5.60771 42.1302 5.70442C42.2497 5.80112 42.3094 5.94192 42.3094 6.1268C42.3094 6.63024 42.2596 7.08248 42.1601 7.48352C42.0634 7.88457 41.9226 8.22588 41.7377 8.50747C41.5557 8.78621 41.3338 9.00095 41.0721 9.1517C40.8105 9.30245 40.5175 9.37782 40.1932 9.37782C39.9629 9.37782 39.7495 9.32947 39.5533 9.23276C39.3599 9.1389 39.192 9.00664 39.0498 8.83599C38.9105 8.66248 38.801 8.45769 38.7213 8.22162C38.6417 7.9827 38.6019 7.72102 38.6019 7.43659C38.6019 7.32851 38.6047 7.21332 38.6104 7.09101C38.6161 6.96871 38.6246 6.83787 38.636 6.6985C38.6474 6.55628 38.6616 6.40269 38.6787 6.23772C38.6986 6.07275 38.7199 5.89356 38.7426 5.70015C38.7512 5.61767 38.7896 5.55225 38.8578 5.50389C38.929 5.4527 39.0185 5.4271 39.1266 5.4271C39.2233 5.4271 39.3144 5.43705 39.3997 5.45696C39.485 5.47687 39.5575 5.50389 39.6173 5.53803C39.6798 5.57216 39.7282 5.61198 39.7623 5.65749C39.7993 5.703 39.8178 5.75135 39.8178 5.80255C39.8178 5.85374 39.8064 5.93481 39.7837 6.04573C39.7638 6.15382 39.741 6.27897 39.7154 6.42118C39.6926 6.56055 39.6699 6.71272 39.6471 6.87769C39.6272 7.03981 39.6173 7.20052 39.6173 7.3598ZM44.3317 5.3503C44.4796 5.3503 44.6232 5.37164 44.7626 5.4143C44.902 5.45696 45.0243 5.51527 45.1295 5.58922C45.2376 5.66033 45.3243 5.74282 45.3898 5.83668C45.4552 5.92769 45.4879 6.02156 45.4879 6.11826C45.4879 6.18084 45.4751 6.24199 45.4495 6.30172C45.4239 6.35861 45.3898 6.4098 45.3471 6.45531C45.3044 6.49798 45.2561 6.53353 45.202 6.56197C45.148 6.58757 45.0911 6.60037 45.0314 6.60037C44.966 6.60037 44.9062 6.57619 44.8522 6.52784C44.7982 6.47664 44.7398 6.42118 44.6773 6.36145C44.6175 6.29888 44.5493 6.24341 44.4725 6.19506C44.3985 6.14386 44.3089 6.11826 44.2037 6.11826C44.1013 6.11826 44.0089 6.14244 43.9264 6.19079C43.8439 6.23915 43.7742 6.30741 43.7173 6.39558C43.6633 6.48091 43.6206 6.5833 43.5893 6.70276C43.5609 6.81938 43.5467 6.94737 43.5467 7.08674C43.5467 7.48495 43.622 7.78929 43.7728 7.99976C43.9235 8.2074 44.1397 8.31121 44.4213 8.31121C44.555 8.31121 44.6687 8.28988 44.7626 8.24722C44.8593 8.20455 44.9432 8.15762 45.0143 8.10642C45.0883 8.05523 45.1551 8.0083 45.2148 7.96563C45.2746 7.92297 45.3357 7.90164 45.3983 7.90164C45.4324 7.90164 45.4666 7.91301 45.5007 7.93577C45.5348 7.95568 45.5647 7.9827 45.5903 8.01683C45.6187 8.04812 45.6415 8.08367 45.6586 8.12349C45.6785 8.16331 45.6884 8.20313 45.6884 8.24295C45.6884 8.33681 45.6415 8.43352 45.5476 8.53307C45.4566 8.63262 45.3386 8.72364 45.1935 8.80612C45.0485 8.88576 44.8863 8.95118 44.7071 9.00238C44.5308 9.05357 44.3587 9.07917 44.1909 9.07917C43.9662 9.07917 43.76 9.03509 43.5723 8.94691C43.3845 8.86158 43.2224 8.74212 43.0859 8.58853C42.9494 8.4321 42.8427 8.24579 42.7659 8.02963C42.692 7.81346 42.655 7.57454 42.655 7.31287C42.655 7.02844 42.6962 6.76676 42.7787 6.52784C42.864 6.28892 42.9806 6.08271 43.1286 5.90921C43.2793 5.73286 43.4571 5.59633 43.6619 5.49963C43.8666 5.40008 44.0899 5.3503 44.3317 5.3503ZM46.0511 8.78479C46.0511 8.53733 46.044 8.26855 46.0297 7.97843C46.0155 7.68831 45.997 7.39535 45.9743 7.09954C45.9544 6.80089 45.9316 6.50935 45.906 6.22492C45.8833 5.94049 45.8605 5.68024 45.8377 5.44416C45.8178 5.20809 45.8008 5.00472 45.7865 4.83406C45.7723 4.66341 45.7652 4.54395 45.7652 4.47568C45.7652 4.36191 45.8079 4.27516 45.8932 4.21543C45.9785 4.1557 46.1023 4.12583 46.2644 4.12583C46.3355 4.12583 46.3952 4.13295 46.4436 4.14717C46.4948 4.16139 46.536 4.18556 46.5673 4.2197C46.5986 4.25383 46.6228 4.29934 46.6398 4.35622C46.6597 4.41026 46.674 4.47853 46.6825 4.56101C46.6939 4.67478 46.7038 4.79709 46.7124 4.92793C46.7209 5.05592 46.7294 5.2024 46.738 5.36737C46.7493 5.53234 46.7607 5.71864 46.7721 5.92627C46.7835 6.13391 46.7977 6.37283 46.8148 6.64303C46.8148 6.68285 46.8219 6.7113 46.8361 6.72836C46.8503 6.74543 46.866 6.75396 46.883 6.75396C46.9143 6.75396 46.9428 6.72836 46.9683 6.67717C47.2101 6.1851 47.4633 5.80966 47.7278 5.55083C47.9923 5.28915 48.2497 5.15831 48.5 5.15831C48.6479 5.15831 48.7645 5.2024 48.8499 5.29057C48.9352 5.37875 48.9778 5.49678 48.9778 5.64469C48.9778 5.80397 48.9423 5.95187 48.8712 6.0884C48.8029 6.22208 48.7162 6.34865 48.6109 6.46811C48.5085 6.58757 48.3962 6.69992 48.2739 6.80516C48.1544 6.9104 48.0421 7.01279 47.9368 7.11234C47.8344 7.21189 47.7477 7.31002 47.6766 7.40673C47.6083 7.50059 47.5742 7.59587 47.5742 7.69258C47.5742 7.78075 47.6254 7.87177 47.7278 7.96563C47.833 8.05665 47.9838 8.14767 48.18 8.23868C48.3763 8.32686 48.6166 8.41361 48.901 8.49894C49.1855 8.58142 49.5083 8.66106 49.8695 8.73786C49.9264 8.75208 49.9662 8.77483 49.989 8.80612C50.0146 8.83741 50.0274 8.87865 50.0274 8.92985C50.0274 8.99242 50.0132 9.05642 49.9847 9.12184C49.9563 9.1901 49.9207 9.25125 49.8781 9.30529C49.8354 9.36218 49.787 9.40769 49.733 9.44182C49.6818 9.4788 49.632 9.49728 49.5837 9.49728C49.487 9.49728 49.3718 9.48448 49.2381 9.45889C49.1044 9.43329 48.9594 9.39773 48.8029 9.35223C48.6493 9.30956 48.49 9.25836 48.3251 9.19863C48.1601 9.14175 47.9994 9.07917 47.843 9.01091C47.6894 8.94549 47.5429 8.87723 47.4035 8.80612C47.267 8.73217 47.149 8.65964 47.0494 8.58853C47.0181 8.57147 46.9925 8.55724 46.9726 8.54587C46.9556 8.53449 46.9399 8.5288 46.9257 8.5288C46.9086 8.5288 46.8987 8.53591 46.8958 8.55013C46.893 8.56151 46.8916 8.58711 46.8916 8.62693C46.8916 8.72648 46.883 8.80754 46.866 8.87012C46.8517 8.93269 46.8261 8.98104 46.7892 9.01518C46.7522 9.05215 46.701 9.07775 46.6356 9.09197C46.5701 9.10619 46.4891 9.1133 46.3924 9.1133C46.2644 9.1133 46.1748 9.08913 46.1236 9.04077C46.0752 8.99242 46.0511 8.90709 46.0511 8.78479Z" fill="#1E1E1E"/>
<path d="M33.9261 68.6736L35.1925 68.6737C35.1923 69.8107 35.4305 70.6074 35.907 71.0636C36.3835 71.513 37.1801 71.7378 38.2967 71.7379L41.5647 71.7383C42.5043 71.7385 43.3178 71.8305 44.0055 72.0144C44.6931 72.1915 45.2615 72.4843 45.7108 72.8929C46.1601 73.3015 46.4937 73.8462 46.7114 74.527C46.9292 75.2079 47.038 76.0488 47.0378 77.0496L45.0362 77.0493C45.0363 76.2596 44.9104 75.64 44.6586 75.1906C44.4136 74.7344 44.0357 74.4144 43.5251 74.2305C43.0145 74.0398 42.3609 73.9444 41.5644 73.9443L37.4793 73.9437C36.9483 73.9437 36.4649 73.8755 36.0292 73.7393C35.5934 73.5963 35.219 73.3375 34.9059 72.963C34.5928 72.5885 34.3511 72.0574 34.181 71.3697C34.0109 70.6753 33.926 69.7765 33.9261 68.6736ZM20.8936 77.0462C20.8937 76.0454 21.0028 75.2046 21.2208 74.5238C21.4387 73.843 21.7724 73.2983 22.2218 72.8899C22.6713 72.4814 23.2398 72.1888 23.9275 72.0118C24.6152 71.8281 25.4288 71.7363 26.3683 71.7364L29.6364 71.7368C30.7529 71.737 31.5496 71.5124 32.0262 71.0631C32.5029 70.607 32.7413 69.8104 32.7415 68.6734L34.0078 68.6736C34.0077 69.7765 33.9224 70.6752 33.7521 71.3697C33.5818 72.0573 33.34 72.5883 33.0268 72.9628C32.7135 73.3372 32.339 73.5959 31.9033 73.7388C31.4675 73.8749 30.9841 73.9429 30.453 73.9428L26.368 73.9423C25.5714 73.9422 24.9178 74.0374 24.4071 74.228C23.8897 74.4118 23.5083 74.7317 23.2632 75.1879C23.018 75.6372 22.8954 76.2567 22.8952 77.0465L20.8936 77.0462ZM32.7415 68.6734L35.1925 68.6737L35.1921 71.0839L32.7411 71.0836L32.7415 68.6734Z" fill="#1E1E1E"/>
<path d="M34.2468 67.4995C34.2083 66.1274 34.0832 62.829 34.7567 59.6275C35.4398 56.4171 38.2971 52.0721 38.326 48.2812C38.3548 44.4816 35.0646 40.3653 34.9202 36.8559C34.7759 33.3552 37.1138 28.8168 37.4794 27.2599M35.0742 66.9893C35.1511 65.6788 35.2377 63.4183 35.7284 60.1816C36.219 56.9448 38.1817 51.3949 38.0374 47.5512C37.893 43.7164 35.0261 40.5412 34.8433 37.1637C34.6605 33.795 36.4692 29.0103 36.931 27.3303" stroke="#1E1E1E" stroke-width="2" stroke-linecap="round"/>
<path d="M39.1651 19.3535C40.7333 19.2568 43.0038 19.6262 44.2737 20.5673C45.534 21.4996 46.5634 23.5666 46.7655 24.9826C46.9675 26.4075 46.2652 27.9028 45.4763 29.0814C44.6874 30.2512 43.5522 31.6409 42.0417 32.0279C40.5216 32.4149 37.8663 31.9047 36.3751 31.4034C34.8935 30.8932 33.7968 30.1104 33.1137 28.9846C32.4402 27.8588 32.0169 25.9853 32.2959 24.6308C32.5749 23.2763 33.4985 21.7547 34.7877 20.8663C36.0769 19.9692 39.2325 19.5558 40.0117 19.2655C40.8006 18.9753 39.6173 18.9753 39.4826 19.1248M38.5783 19.934C39.9925 19.5734 41.5126 19.3359 42.6959 19.8548C43.8793 20.365 45.0434 21.7547 45.6976 23.0036C46.3614 24.2526 47.0733 25.9677 46.6693 27.3398C46.2748 28.7031 44.8029 30.3655 43.2924 31.1923C41.7723 32.0279 39.1747 32.6347 37.5873 32.3181C35.9903 32.0015 34.8069 30.2775 33.7294 29.3012C32.6615 28.3249 31.1799 27.6477 31.1511 26.4515C31.1222 25.2465 32.344 23.3379 33.5563 22.1065C34.7685 20.8663 37.6739 19.4327 38.4243 19.0193C39.1747 18.6147 38.2319 19.3975 38.0587 19.6438" fill="white"/>
<path d="M39.3863 19.4679C40.8198 19.4591 42.9845 19.9076 44.2256 20.8224C45.4666 21.7371 46.6596 23.593 46.8328 24.9563C47.0156 26.3108 46.1689 27.8324 45.2935 28.967C44.418 30.1017 43.1192 31.3594 41.5799 31.7728C40.0405 32.1862 37.5103 31.9927 36.0768 31.4474C34.6337 30.8932 33.6428 29.5827 32.9405 28.4657C32.2285 27.3487 31.4396 26.0997 31.8148 24.7452C32.1997 23.3907 33.941 21.2094 35.211 20.321C36.4809 19.4239 38.6455 19.591 39.4344 19.4063C40.2233 19.2304 39.8289 19.0721 39.9636 19.2392M37.7989 19.8988C39.2805 19.503 41.9262 19.3359 43.3501 19.8549C44.7739 20.3738 45.8803 21.57 46.3421 23.0125C46.8039 24.4549 46.6307 27.2167 46.1305 28.5009C45.6302 29.785 44.62 30.2072 43.3501 30.7261C42.0801 31.2539 40.0502 31.72 38.4916 31.6233C36.9331 31.5353 35.1244 31.1219 33.9891 30.1808C32.8443 29.2397 31.7956 27.3311 31.6224 25.9678C31.4589 24.6044 31.9976 23.118 32.979 22.001C33.9699 20.8751 36.7022 19.6174 37.5392 19.248C38.3762 18.8698 37.8951 19.635 37.9913 19.7581" stroke="#1E1E1E" stroke-width="2" stroke-linecap="round"/>
<path d="M36.7253 25.5667C37.1678 26.0065 38.6109 27.4753 39.0631 27.8711M36.3405 25.4348C36.9177 25.9185 39.217 27.7128 39.7077 28.179" stroke="#1E1E1E" stroke-width="2" stroke-linecap="round"/>
<path d="M28.7151 37.2113C30.6585 37.1233 38.8649 37.3256 40.8179 37.3872M29.4944 38.1172C31.3704 38.3107 38.7495 37.9149 40.5004 37.9237" stroke="#1E1E1E" stroke-width="2" stroke-linecap="round"/>
<path d="M31.6548 42.6063C33.6078 42.6766 40.9291 42.9405 42.8437 42.9229M31.116 42.1049C33.0113 42.2808 40.3711 43.4506 42.3338 43.565" stroke="#1E1E1E" stroke-width="2" stroke-linecap="round"/>
<path d="M32.1603 48.2964C34.0748 48.27 42.0888 47.9357 44.013 47.9357M33.0261 47.9094C34.8637 47.9445 41.9542 48.1996 43.657 48.3491" stroke="#1E1E1E" stroke-width="2" stroke-linecap="round"/>
<path d="M31.4936 53.2625C33.4178 53.2625 40.8353 53.6846 42.7306 53.6934M30.9164 54.1068C32.7636 54.1772 40.2677 54.3707 42.2015 54.2915" stroke="#1E1E1E" stroke-width="2" stroke-linecap="round"/>
<path d="M30.5932 59.9898C32.4885 59.9986 40.3775 59.6291 42.292 59.6907M31.4398 59.55C33.2485 59.6379 40.1369 60.0865 41.8398 60.0865" stroke="#1E1E1E" stroke-width="2" stroke-linecap="round"/>
<path d="M29.7824 64.8429C31.697 64.9045 39.2684 65.5377 41.1637 65.5905M29.0994 65.6697C31.2159 65.5905 40.2882 64.8781 42.222 64.8605" stroke="#1E1E1E" stroke-width="2" stroke-linecap="round"/>
<path d="M19.8354 45.5429C21.3266 44.2588 27.3011 38.6912 28.8885 37.3983M20.3741 45.3582C21.9808 44.1356 28.0707 39.0606 29.5619 37.7325" stroke="#1E1E1E" stroke-width="2" stroke-linecap="round"/>
<path d="M21.356 50.8094C22.9434 49.5253 29.4182 44.7053 30.919 43.3772M21.8852 50.4752C23.4726 49.0943 29.2835 44.2216 30.8132 42.9814" stroke="#1E1E1E" stroke-width="2" stroke-linecap="round"/>
<path d="M23.6616 55.6944C25.1625 54.3575 30.704 48.6404 32.176 47.2683M23.4115 55.5713C25.0278 54.2783 31.3293 48.8251 32.8205 47.5322" stroke="#1E1E1E" stroke-width="2" stroke-linecap="round"/>
<path d="M27.5935 56.1795C28.2092 55.6869 31.1628 54.1301 31.8362 53.7783M28.0842 56.716C28.6325 56.4082 31.0666 54.6667 31.6053 54.1565" stroke="#1E1E1E" stroke-width="2" stroke-linecap="round"/>
<path d="M51.0901 45.2409C49.5893 44.0272 43.2396 39.0489 41.7676 37.7032M50.7149 44.9507C49.3488 43.6753 43.8553 38.5563 42.4411 37.3074" stroke="#1E1E1E" stroke-width="2" stroke-linecap="round"/>
<path d="M52.0704 51.027C50.5984 49.69 44.9511 44.0081 43.4983 42.6624M52.6091 50.9038C51.1083 49.6021 44.9703 44.36 43.3925 42.9527" stroke="#1E1E1E" stroke-width="2" stroke-linecap="round"/>
<path d="M53.6215 56.4644C52.1591 55.1275 45.9538 50.1756 44.3664 48.9355M53.381 57.0274C51.8994 55.7256 45.7614 49.859 44.174 48.4517" stroke="#1E1E1E" stroke-width="2" stroke-linecap="round"/>
<path d="M46.9428 56.362C46.2213 56.0014 43.4313 54.3478 42.7674 53.8641M46.6061 56.1509C45.798 55.7199 43.0753 53.8377 42.45 53.4419" stroke="#1E1E1E" stroke-width="2" stroke-linecap="round"/>
<path d="M36.9833 25.1749C37.6856 25.0694 40.7547 24.5768 41.4762 24.4361M37.5413 25.0254C38.2052 24.955 40.6777 24.8407 41.2742 24.7615" stroke="#1E1E1E" stroke-width="2" stroke-linecap="round"/>
<path d="M41.4492 24.5064C41.2183 24.9286 40.1311 26.8636 39.8521 27.4353M41.1028 25.1045C40.8334 25.5443 39.8425 27.3122 39.5731 27.708" stroke="#1E1E1E" stroke-width="2" stroke-linecap="round"/>
<path d="M11.1121 94.9476C11.1026 94.0965 11.0835 90.6829 11.0739 89.8318" stroke="#1E1E1E" stroke-linecap="round"/>
<path d="M11.0433 90.0236C11.282 89.6832 12.2463 88.3404 12.485 88" stroke="#1E1E1E" stroke-linecap="round"/>
<path d="M13.9102 95.0083C13.9198 94.1573 13.9389 90.7436 13.9484 89.8926" stroke="#1E1E1E" stroke-linecap="round"/>
<path d="M13.9789 90.0843C13.7402 89.7439 12.7759 88.4011 12.5372 88.0607" stroke="#1E1E1E" stroke-linecap="round"/>
<path d="M9 95.468C10.1266 95.4491 14.6138 95.3735 15.7309 95.3546" stroke="#1E1E1E" stroke-linecap="round"/>
<path d="M12.6838 95.5536C12.6933 96.1493 12.7315 98.5512 12.7411 99.1469" stroke="#1E1E1E" stroke-linecap="round"/>
<path d="M52.2205 90.9023C52.5642 90.5524 53.939 89.134 54.2827 88.7747" stroke="#1E1E1E" stroke-linecap="round"/>
<path d="M54.2784 88.7366C54.6603 89.0487 56.1688 90.2969 56.5507 90.6089" stroke="#1E1E1E" stroke-linecap="round"/>
<path d="M56.6365 90.8598C55.9777 91.8621 53.3522 95.881 52.6934 96.8928" stroke="#1E1E1E" stroke-linecap="round"/>
<path d="M52.2849 90.9023C51.9412 90.5524 50.5664 89.134 50.2227 88.7747" stroke="#1E1E1E" stroke-linecap="round"/>
<path d="M50.2269 88.7366C49.845 89.0487 48.3365 90.2969 47.9546 90.6089" stroke="#1E1E1E" stroke-linecap="round"/>
<path d="M47.8688 90.8598C48.5276 91.8621 51.1531 95.881 51.8119 96.8928" stroke="#1E1E1E" stroke-linecap="round"/>
</svg>
