<svg width="82" height="120" viewBox="0 0 82 120" fill="none" xmlns="http://www.w3.org/2000/svg">
<path d="M21.335 2.0132C32.2154 1.68993 47.3227 0.140142 60.8645 2.0132C77.3417 0.957822 83.5646 7.85106 80.6293 21.2192C79.8172 52.3861 83.8777 81.4043 80.6293 98.7562C78.6724 112.429 76.5393 115.462 60.8645 117.962C46.2268 115.309 34.3974 118.228 21.335 117.962C4.97526 119.094 1.60938 113.531 1.57025 98.7562C3.78155 81.3852 -0.699766 62.7212 1.57025 21.2192C3.67392 9.32478 9.3196 -0.953268 21.335 2.0132Z" fill="white"/>
<path d="M21.335 2.0132C33.3504 3.27775 44.7298 1.57583 60.8645 2.0132M21.335 2.0132C34.3778 1.56633 48.6436 2.31745 60.8645 2.0132M21.335 2.0132C7.81276 3.41086 1.17885 8.22186 1.57023 21.2192M21.335 2.0132C8.40962 1.26207 -0.298618 8.41202 1.57023 21.2192M60.8645 2.0132C73.1832 3.23021 81.5099 6.95731 80.6293 21.2192M60.8645 2.0132C75.1303 2.06074 79.9737 9.57199 80.6293 21.2192M80.6293 21.2192C81.9502 49.4292 78.8191 77.8958 80.6293 98.7562M80.6293 21.2192C80.0226 44.989 80.3749 70.28 80.6293 98.7562M80.6293 98.7562C80.1302 112.647 74.2106 118.447 60.8645 117.962M80.6293 98.7562C80.9032 113.712 73.1832 117.477 60.8645 117.962M60.8645 117.962C48.6436 117.553 37.7632 117.801 21.335 117.962M60.8645 117.962C49.8373 117.705 38.2035 118.171 21.335 117.962M21.335 117.962C8.43897 118.59 1.07122 112.932 1.57023 98.7562M21.335 117.962C10.2198 118.171 3.4195 112.172 1.57023 98.7562M1.57023 98.7562C1.17885 81.4328 1.19842 66.3627 1.57023 21.2192M1.57023 98.7562C1.13971 79.3981 0.90488 60.5154 1.57023 21.2192" stroke="#1E1E1E" stroke-width="2" stroke-linecap="round"/>
<path d="M10.1956 85.8945C20.9488 85.8945 63.9811 85.8945 74.7343 85.8945" stroke="#1E1E1E" stroke-width="2" stroke-linecap="round"/>
<path d="M22.6339 1.90558C35.3636 1.90558 48.0932 1.90558 58.2398 1.90558C60.6664 1.90558 61.8894 3.08456 61.8894 5.45203C61.8894 6.96379 61.8894 8.47555 61.8894 12.5354C61.8894 14.8934 60.6664 16.0724 58.2398 16.0724C46.2342 16.0724 34.2188 16.0724 22.6339 16.0724C20.1975 16.0724 18.9843 14.8934 18.9843 12.5354C18.9843 9.78764 18.9843 7.04936 18.9843 5.45203C18.9843 3.08456 20.1975 1.90558 22.6339 1.90558Z" fill="white"/>
<path d="M22.6339 1.90558C30.6181 1.90558 38.6022 1.90558 58.2398 1.90558M22.6339 1.90558C34.2188 1.90558 45.8134 1.90558 58.2398 1.90558M22.6339 1.90558C20.1975 1.90558 18.9843 3.08456 18.9843 5.45203M58.2398 1.90558C60.6664 1.90558 61.8894 3.08456 61.8894 5.45203M61.8894 5.45203C61.8894 7.88605 61.8894 10.3296 61.8894 12.5354M61.8894 5.45203C61.8894 8.08572 61.8894 10.7194 61.8894 12.5354M61.8894 12.5354C61.8894 14.8934 60.6664 16.0724 58.2398 16.0724M58.2398 16.0724C49.4141 16.0724 40.5983 16.0724 22.6339 16.0724M58.2398 16.0724C44.9426 16.0724 31.6454 16.0724 22.6339 16.0724M22.6339 16.0724C20.1975 16.0724 18.9843 14.8934 18.9843 12.5354M18.9843 12.5354C18.9843 10.5197 18.9843 8.51358 18.9843 5.45203M18.9843 12.5354C18.9843 10.0634 18.9843 7.60082 18.9843 5.45203" stroke="#1E1E1E" stroke-width="2" stroke-linecap="round"/>
<path d="M26.1969 6.19983C26.3932 6.19983 26.5953 6.2262 26.8033 6.27893C27.0114 6.32874 27.2018 6.39465 27.3746 6.47668C27.5475 6.55579 27.6896 6.64514 27.8009 6.74475C27.9122 6.84436 27.9679 6.94104 27.9679 7.03479C27.9679 7.08167 27.9474 7.1344 27.9064 7.19299C27.8654 7.24866 27.8156 7.30286 27.757 7.35559C27.6984 7.4054 27.6339 7.44788 27.5636 7.48303C27.4962 7.51526 27.4362 7.53137 27.3834 7.53137C27.3131 7.53137 27.234 7.50208 27.1461 7.44348C27.0612 7.38489 26.9659 7.32043 26.8605 7.25012C26.7579 7.17688 26.6451 7.11096 26.5221 7.05237C26.399 6.99377 26.2657 6.96448 26.1222 6.96448C26.0284 6.96448 25.9508 6.98792 25.8893 7.03479C25.8307 7.07874 25.8014 7.14172 25.8014 7.22375C25.8014 7.297 25.8365 7.3717 25.9069 7.44788C25.9772 7.52112 26.0695 7.59729 26.1837 7.67639C26.3009 7.75549 26.4327 7.83899 26.5792 7.92688C26.7257 8.01477 26.8751 8.10852 27.0275 8.20813C27.1827 8.30774 27.3336 8.41614 27.4801 8.53333C27.6266 8.65051 27.757 8.77795 27.8712 8.91565C27.9884 9.05334 28.0822 9.20422 28.1525 9.36829C28.2228 9.52942 28.2579 9.7052 28.2579 9.89563C28.2579 10.0597 28.2286 10.2091 28.17 10.3439C28.1115 10.4786 28.028 10.5944 27.9196 10.691C27.8112 10.7877 27.6823 10.8624 27.5328 10.9152C27.3834 10.9679 27.2194 10.9943 27.0406 10.9943C26.8151 10.9943 26.6071 10.9591 26.4166 10.8888C26.2262 10.8214 26.0621 10.7277 25.9244 10.6075C25.7867 10.4874 25.6783 10.3439 25.5992 10.1769C25.5231 10.0099 25.485 9.82678 25.485 9.62756C25.485 9.36975 25.5304 9.18225 25.6212 9.06506C25.715 8.94788 25.8615 8.88928 26.0607 8.88928C26.1837 8.88928 26.2819 8.91272 26.3551 8.95959C26.4283 9.00647 26.465 9.0636 26.465 9.13098C26.465 9.16614 26.4591 9.20276 26.4474 9.24084C26.4357 9.276 26.4225 9.31409 26.4078 9.3551C26.3961 9.39319 26.3844 9.4342 26.3727 9.47815C26.3639 9.52209 26.3595 9.56604 26.3595 9.60999C26.3595 9.68616 26.3771 9.7594 26.4122 9.82971C26.4474 9.90002 26.4943 9.96155 26.5529 10.0143C26.6144 10.0699 26.6847 10.1139 26.7638 10.1461C26.8429 10.1783 26.9264 10.1945 27.0143 10.1945C27.2487 10.1945 27.3658 10.0978 27.3658 9.90442C27.3658 9.75208 27.3058 9.60852 27.1857 9.47375C27.0656 9.33606 26.9147 9.20276 26.733 9.07385C26.5514 8.94202 26.3551 8.81018 26.1442 8.67834C25.9362 8.54651 25.7413 8.40881 25.5597 8.26526C25.3781 8.1217 25.2272 7.96936 25.1071 7.80823C24.9869 7.64417 24.9269 7.46692 24.9269 7.27649C24.9269 7.11829 24.9591 6.97327 25.0236 6.84143C25.0909 6.70959 25.1818 6.5968 25.296 6.50305C25.4103 6.40637 25.5436 6.33167 25.6959 6.27893C25.8512 6.2262 26.0182 6.19983 26.1969 6.19983ZM29.339 8.45862C29.339 8.8512 29.399 9.15442 29.5192 9.36829C29.6393 9.58215 29.8136 9.68909 30.0421 9.68909C30.1857 9.68909 30.3175 9.64661 30.4376 9.56165C30.5607 9.47668 30.6661 9.35803 30.754 9.20569C30.8419 9.05334 30.9093 8.87317 30.9562 8.66516C31.006 8.45422 31.0309 8.22571 31.0309 7.97961C31.0309 7.8302 31.025 7.70129 31.0133 7.5929C31.0016 7.48157 30.9884 7.38342 30.9738 7.29846C30.962 7.21057 30.9503 7.13293 30.9386 7.06555C30.9269 6.99817 30.921 6.93372 30.921 6.87219C30.921 6.77844 30.9606 6.71106 31.0397 6.67004C31.1188 6.6261 31.2448 6.60413 31.4176 6.60413C31.6373 6.60413 31.8073 6.65393 31.9274 6.75354C32.0504 6.85315 32.1119 6.99817 32.1119 7.1886C32.1119 7.70715 32.0607 8.17297 31.9581 8.58606C31.8585 8.99915 31.7135 9.35071 31.5231 9.64075C31.3356 9.92786 31.1071 10.149 30.8375 10.3043C30.568 10.4596 30.2662 10.5372 29.9323 10.5372C29.6949 10.5372 29.4752 10.4874 29.2731 10.3878C29.0739 10.2911 28.901 10.1549 28.7545 9.97913C28.611 9.80042 28.4982 9.58948 28.4161 9.34631C28.3341 9.10022 28.2931 8.83069 28.2931 8.53772C28.2931 8.42639 28.296 8.30774 28.3019 8.18176C28.3077 8.05579 28.3165 7.92102 28.3282 7.77747C28.34 7.63098 28.3546 7.47278 28.3722 7.30286C28.3927 7.13293 28.4147 6.94836 28.4381 6.74915C28.4469 6.66418 28.4865 6.5968 28.5568 6.547C28.63 6.49426 28.7223 6.4679 28.8336 6.4679C28.9332 6.4679 29.027 6.47815 29.1149 6.49866C29.2028 6.51917 29.2775 6.547 29.339 6.58215C29.4034 6.61731 29.4532 6.65833 29.4884 6.7052C29.5265 6.75208 29.5455 6.80188 29.5455 6.85461C29.5455 6.90735 29.5338 6.99084 29.5104 7.1051C29.4899 7.21643 29.4664 7.34534 29.4401 7.49182C29.4166 7.63538 29.3932 7.79211 29.3698 7.96204C29.3492 8.12903 29.339 8.29456 29.339 8.45862ZM32.8195 8.99915C32.7638 8.3136 32.6993 7.63245 32.6261 6.95569C32.5558 6.27893 32.4518 5.60364 32.3141 4.92981C32.3082 4.90637 32.3053 4.88586 32.3053 4.86829C32.3053 4.84778 32.3053 4.82874 32.3053 4.81116C32.3053 4.74377 32.3185 4.68518 32.3448 4.63538C32.3741 4.58557 32.4122 4.54456 32.4591 4.51233C32.506 4.47717 32.5587 4.45081 32.6173 4.43323C32.6788 4.41565 32.7433 4.40686 32.8107 4.40686C32.9894 4.40686 33.1124 4.49036 33.1798 4.65735C33.2091 4.74231 33.2384 4.86389 33.2677 5.02209C33.2999 5.1803 33.3322 5.3634 33.3644 5.57141C33.3995 5.77942 33.4332 6.00793 33.4655 6.25696C33.4977 6.50305 33.5284 6.75647 33.5577 7.01721C33.5665 7.09045 33.59 7.12708 33.6281 7.12708C33.6603 7.12708 33.694 7.1051 33.7291 7.06116C34.1569 6.49866 34.6637 6.21741 35.2496 6.21741C35.4694 6.21741 35.6744 6.26575 35.8649 6.36243C36.0553 6.45911 36.2208 6.59094 36.3615 6.75793C36.5021 6.92493 36.6119 7.12268 36.691 7.3512C36.7731 7.57971 36.8141 7.82581 36.8141 8.08948C36.8141 8.33557 36.7745 8.56409 36.6954 8.77502C36.6193 8.98596 36.5123 9.1676 36.3746 9.31995C36.2369 9.47229 36.0729 9.59241 35.8824 9.6803C35.6949 9.76526 35.4899 9.80774 35.2672 9.80774C34.9918 9.80774 34.7223 9.755 34.4586 9.64954C34.1949 9.54114 33.9459 9.39612 33.7115 9.21448C33.6852 9.19104 33.6573 9.17932 33.6281 9.17932C33.59 9.17932 33.5548 9.19983 33.5226 9.24084C33.4757 9.29358 33.4259 9.32874 33.3732 9.34631C33.3204 9.36096 33.256 9.36829 33.1798 9.36829C32.9484 9.36829 32.8282 9.24524 32.8195 8.99915ZM35.0958 7.03479C34.9786 7.03479 34.8615 7.06262 34.7443 7.11829C34.63 7.17102 34.5216 7.24719 34.4191 7.3468C34.3165 7.44641 34.2213 7.56653 34.1334 7.70715C34.0485 7.84485 33.9767 7.99866 33.9181 8.16858C33.9122 8.17737 33.9078 8.19055 33.9049 8.20813C33.902 8.22571 33.9005 8.24036 33.9005 8.25208C33.9005 8.30188 33.9181 8.33997 33.9532 8.36633C34.0587 8.45715 34.1671 8.54211 34.2784 8.62122C34.3927 8.70032 34.5055 8.76917 34.6168 8.82776C34.7281 8.88635 34.838 8.93323 34.9464 8.96838C35.0548 9.00061 35.1559 9.01672 35.2496 9.01672C35.4606 9.01672 35.6202 8.9552 35.7286 8.83215C35.84 8.70911 35.8956 8.5304 35.8956 8.29602C35.8956 8.11438 35.8751 7.94739 35.8341 7.79504C35.7931 7.63977 35.7374 7.50647 35.6671 7.39514C35.5968 7.28088 35.5118 7.19299 35.4122 7.13147C35.3156 7.06702 35.2101 7.03479 35.0958 7.03479ZM38.1676 6.36243C38.1442 6.36243 38.0988 6.36829 38.0314 6.38C37.9669 6.38879 37.8907 6.40051 37.8029 6.41516C37.715 6.42981 37.6227 6.44739 37.526 6.4679C37.4293 6.48547 37.3385 6.50159 37.2535 6.51624C37.1686 6.53088 37.0953 6.54407 37.0338 6.55579C36.9694 6.56458 36.9269 6.56897 36.9064 6.56897C36.7101 6.56897 36.6119 6.46643 36.6119 6.26135C36.6119 6.20569 36.6178 6.15149 36.6295 6.09875C36.6383 6.04309 36.6559 5.99329 36.6823 5.94934C36.7086 5.90247 36.7438 5.86292 36.7877 5.83069C36.8317 5.79846 36.8873 5.77649 36.9547 5.76477C37.2975 5.71204 37.6388 5.65637 37.9786 5.59778C38.3185 5.53918 38.6613 5.47766 39.007 5.41321C39.0831 5.39856 39.152 5.38538 39.2135 5.37366C39.275 5.35901 39.3439 5.33997 39.42 5.31653C39.5021 5.29309 39.5914 5.27112 39.6881 5.25061C39.7848 5.22717 39.8815 5.20667 39.9781 5.18909C40.0778 5.17151 40.173 5.15686 40.2638 5.14514C40.3575 5.13342 40.4425 5.12756 40.5187 5.12756C40.6124 5.12756 40.6827 5.15833 40.7296 5.21985C40.7794 5.27844 40.8043 5.36194 40.8043 5.47034C40.8043 5.526 40.7999 5.5802 40.7911 5.63293C40.7823 5.68274 40.7662 5.72815 40.7428 5.76917C40.7194 5.81018 40.6871 5.84387 40.6461 5.87024C40.6051 5.89661 40.5524 5.91272 40.4879 5.91858C40.3209 5.94202 40.1422 5.97131 39.9518 6.00647C39.7614 6.0387 39.5958 6.07532 39.4552 6.11633C39.3966 6.13391 39.3527 6.16321 39.3234 6.20422C39.2941 6.24231 39.275 6.29065 39.2662 6.34924C39.2574 6.40491 39.2516 6.46204 39.2487 6.52063C39.2487 6.57629 39.2487 6.63049 39.2487 6.68323C39.2487 6.80627 39.2531 6.92932 39.2618 7.05237C39.2736 7.17542 39.2838 7.29846 39.2926 7.42151C39.319 7.84338 39.3585 8.26086 39.4113 8.67395C39.4669 9.08704 39.527 9.50452 39.5914 9.92639C39.5973 9.94104 39.6002 9.95569 39.6002 9.97034C39.6002 9.98499 39.6002 9.99963 39.6002 10.0143C39.6002 10.1754 39.5094 10.2897 39.3278 10.3571L39.13 10.4186C39.0773 10.4362 39.026 10.4449 38.9762 10.4449C38.9 10.4449 38.8385 10.42 38.7916 10.3702C38.7448 10.3234 38.714 10.2531 38.6993 10.1593C38.6173 9.6554 38.5455 9.15442 38.484 8.65637C38.4225 8.1554 38.3829 7.65149 38.3654 7.14465C38.3595 7.06262 38.3551 6.97327 38.3522 6.87659C38.3492 6.77991 38.3478 6.6803 38.3478 6.57776C38.3478 6.4342 38.2877 6.36243 38.1676 6.36243ZM43.2433 6.72717C43.1349 6.72717 43.0397 6.75647 42.9576 6.81506C42.8756 6.87073 42.8053 6.94983 42.7467 7.05237C42.6881 7.15198 42.6398 7.27063 42.6017 7.40833C42.5636 7.54309 42.5328 7.69104 42.5094 7.85217C42.486 8.01331 42.4698 8.18176 42.4611 8.35754C42.4523 8.53333 42.4479 8.71057 42.4479 8.88928C42.4479 9.12366 42.4567 9.3551 42.4742 9.58362C42.4948 9.8092 42.505 10.0187 42.505 10.212C42.505 10.338 42.4581 10.4362 42.3644 10.5065C42.2706 10.5797 42.1373 10.6163 41.9645 10.6163C41.9323 10.6163 41.8956 10.6134 41.8546 10.6075C41.8136 10.6017 41.774 10.59 41.736 10.5724C41.7008 10.5548 41.6686 10.5299 41.6393 10.4977C41.6129 10.4684 41.5983 10.4274 41.5953 10.3746C41.569 10.1168 41.5309 9.85315 41.4811 9.58362C41.4313 9.31409 41.3683 9.04602 41.2921 8.77942C41.2189 8.50989 41.1295 8.24329 41.024 7.97961C40.9215 7.71594 40.8029 7.45813 40.6681 7.20618C40.6447 7.16223 40.6241 7.12122 40.6066 7.08313C40.5919 7.04504 40.5846 7.00842 40.5846 6.97327C40.5846 6.92932 40.6036 6.88245 40.6417 6.83264C40.6827 6.77991 40.7325 6.73157 40.7911 6.68762C40.8527 6.64368 40.9186 6.60852 40.9889 6.58215C41.0621 6.55286 41.1324 6.53821 41.1998 6.53821C41.3112 6.53821 41.4093 6.61584 41.4943 6.77112C41.5792 6.92346 41.6583 7.16809 41.7316 7.505C41.7462 7.5636 41.7579 7.60461 41.7667 7.62805C41.7755 7.65149 41.7872 7.66321 41.8019 7.66321C41.8341 7.66321 41.8546 7.6134 41.8634 7.51379C41.8986 7.23547 41.9586 6.9967 42.0436 6.79749C42.1285 6.59534 42.234 6.42981 42.36 6.3009C42.4889 6.16907 42.6354 6.07239 42.7994 6.01086C42.9664 5.94934 43.1495 5.91858 43.3488 5.91858C43.463 5.91858 43.5787 5.92883 43.6959 5.94934C43.8131 5.96985 43.9186 6.00061 44.0123 6.04163C44.1061 6.08264 44.1823 6.13245 44.2408 6.19104C44.2994 6.24963 44.3287 6.31555 44.3287 6.38879C44.3287 6.44153 44.317 6.50452 44.2936 6.57776C44.2731 6.64807 44.2452 6.71692 44.2101 6.7843C44.1749 6.84875 44.1339 6.90442 44.087 6.95129C44.0431 6.99524 43.9977 7.01721 43.9508 7.01721C43.8981 7.01721 43.8468 7.00256 43.797 6.97327C43.7472 6.94104 43.693 6.90735 43.6344 6.87219C43.5787 6.83704 43.5187 6.80481 43.4542 6.77551C43.3927 6.74329 43.3224 6.72717 43.2433 6.72717ZM44.7111 5.53186C44.6261 5.53186 44.5455 5.52014 44.4694 5.4967C44.3961 5.47034 44.3317 5.43518 44.276 5.39124C44.2233 5.34436 44.1808 5.29016 44.1486 5.22864C44.1163 5.16711 44.1002 5.09973 44.1002 5.02649C44.1002 4.90344 44.1486 4.80383 44.2452 4.72766C44.3448 4.65149 44.4767 4.6134 44.6407 4.6134C44.7169 4.6134 44.7902 4.62805 44.8605 4.65735C44.9308 4.68372 44.9923 4.72034 45.045 4.76721C45.1007 4.81409 45.1447 4.86975 45.1769 4.9342C45.2091 4.99573 45.2252 5.06018 45.2252 5.12756C45.2252 5.25354 45.1783 5.35315 45.0846 5.42639C44.9938 5.4967 44.8693 5.53186 44.7111 5.53186ZM44.109 6.87219C44.109 6.76965 44.153 6.68616 44.2408 6.6217C44.3317 6.55432 44.4503 6.52063 44.5968 6.52063C44.8605 6.52063 45.0011 6.61145 45.0187 6.79309C45.0304 6.91907 45.0421 7.06116 45.0538 7.21936C45.0685 7.37756 45.0817 7.54602 45.0934 7.72473C45.108 7.90051 45.1198 8.08362 45.1285 8.27405C45.1403 8.46155 45.1505 8.64758 45.1593 8.83215C45.1681 9.01379 45.1754 9.18958 45.1813 9.3595C45.1871 9.52942 45.1901 9.68469 45.1901 9.82532C45.1901 9.9718 45.1373 10.0817 45.0319 10.1549C44.9293 10.2281 44.7784 10.2648 44.5792 10.2648C44.4884 10.2648 44.4166 10.2428 44.3639 10.1989C44.3141 10.1578 44.2892 10.0963 44.2892 10.0143C44.2892 9.60999 44.2789 9.23206 44.2584 8.88049C44.2408 8.526 44.2203 8.21106 44.1969 7.93567C44.1764 7.66028 44.1559 7.43176 44.1354 7.25012C44.1178 7.06555 44.109 6.93958 44.109 6.87219ZM48.3278 6.58655C48.4684 6.58655 48.6017 6.59827 48.7277 6.6217C48.8536 6.64221 48.9679 6.66565 49.0704 6.69202C49.173 6.71545 49.2609 6.73889 49.3341 6.76233C49.4073 6.78284 49.4601 6.79309 49.4923 6.79309C49.5187 6.79309 49.5436 6.77991 49.567 6.75354C49.5905 6.72424 49.6198 6.69348 49.6549 6.66125C49.6901 6.62903 49.7369 6.59973 49.7955 6.57336C49.8541 6.54407 49.9318 6.52942 50.0284 6.52942C50.1398 6.52942 50.2277 6.55872 50.2921 6.61731C50.3566 6.67297 50.3888 6.74329 50.3888 6.82825C50.3888 7.90051 50.3522 8.81165 50.2789 9.56165C50.2057 10.3087 50.087 10.9166 49.923 11.3854C49.7589 11.8541 49.5465 12.194 49.2858 12.4049C49.025 12.6158 48.7086 12.7213 48.3365 12.7213C48.1666 12.7213 47.9894 12.6832 47.8048 12.6071C47.6232 12.5309 47.4562 12.4327 47.3038 12.3126C47.1515 12.1954 47.0255 12.0651 46.9259 11.9215C46.8292 11.778 46.7809 11.6403 46.7809 11.5084C46.7809 11.4645 46.8043 11.4132 46.8512 11.3546C46.8981 11.296 46.9552 11.2389 47.0226 11.1832C47.09 11.1276 47.1603 11.0807 47.2335 11.0426C47.3068 11.0045 47.3698 10.9855 47.4225 10.9855C47.4781 10.9855 47.525 11.0074 47.5631 11.0514C47.6012 11.0983 47.6364 11.1554 47.6686 11.2228C47.7037 11.2902 47.7389 11.3634 47.774 11.4425C47.8092 11.5245 47.8531 11.5992 47.9059 11.6666C47.9586 11.734 48.0231 11.7897 48.0992 11.8336C48.1754 11.8805 48.2706 11.9039 48.3849 11.9039C49.0236 11.9039 49.3986 10.9283 49.5099 8.97717C49.5099 8.88928 49.485 8.84534 49.4352 8.84534C49.3942 8.84534 49.3619 8.86584 49.3385 8.90686C49.0631 9.27893 48.7408 9.55872 48.3717 9.74622C48.0055 9.93079 47.5983 10.0231 47.15 10.0231C46.942 10.0231 46.7501 9.99231 46.5743 9.93079C46.3986 9.86633 46.2462 9.77844 46.1173 9.66711C45.9913 9.55286 45.8932 9.41809 45.8229 9.26282C45.7526 9.10461 45.7174 8.93176 45.7174 8.74426C45.7174 8.55969 45.7496 8.37805 45.8141 8.19934C45.8815 8.0177 45.9738 7.84778 46.0909 7.68958C46.2111 7.52844 46.3531 7.38049 46.5172 7.24573C46.6813 7.11096 46.86 6.99524 47.0533 6.89856C47.2467 6.79895 47.4503 6.72278 47.6642 6.67004C47.881 6.61438 48.1022 6.58655 48.3278 6.58655ZM47.2863 9.21448C47.6876 9.21448 48.0553 9.0885 48.3893 8.83655C48.7233 8.58167 49.0089 8.21252 49.2462 7.72913C49.2521 7.71155 49.2565 7.69836 49.2594 7.68958C49.2623 7.67786 49.2638 7.66614 49.2638 7.65442C49.2638 7.62512 49.233 7.59436 49.1715 7.56213C49.11 7.52991 49.0294 7.50208 48.9298 7.47864C48.8302 7.4552 48.7159 7.43616 48.587 7.42151C48.4611 7.40393 48.3336 7.39514 48.2047 7.39514C47.9967 7.39514 47.796 7.4303 47.6027 7.50061C47.4093 7.57092 47.2379 7.66467 47.0885 7.78186C46.9391 7.89905 46.819 8.03235 46.7281 8.18176C46.6373 8.33118 46.5919 8.48645 46.5919 8.64758C46.5919 8.82043 46.6549 8.95813 46.7809 9.06067C46.9098 9.16321 47.0782 9.21448 47.2863 9.21448Z" fill="#1E1E1E"/>
<path fill-rule="evenodd" clip-rule="evenodd" d="M30.231 43.2114L47.1981 31.2193L13.8411 23.3162L30.5758 43.5265" fill="white"/>
<path d="M30.3342 43.8691C35.8269 38.6571 40.585 35.296 47.2414 30.5548M30.3342 43.8691C36.0109 39.5585 41.2469 35.5656 47.2414 30.5548M30.3342 43.8691C24.9437 36.652 19.5473 30.1434 13.2764 24.0547M30.3342 43.8691C27.1827 39.5167 19.8887 32.0045 13.2764 24.0547M47.2414 30.5548C33.5958 28.5138 21.6074 27.0157 13.2764 24.0547M47.2414 30.5548C33.5726 28.3227 19.8113 25.1773 13.2764 24.0547" stroke="#1E1E1E" stroke-width="2" stroke-linecap="round"/>
<path fill-rule="evenodd" clip-rule="evenodd" d="M35.2039 61.0898L23.1243 76.8275L57.5287 77.0332L35.701 61.5204" fill="white"/>
<path d="M35.8586 60.7006C30.8491 65.3927 26.8848 72.0291 21.9266 76.9459M35.8586 60.7006C30.6685 66.3905 25.0965 72.5506 21.9266 76.9459M35.8586 60.7006C41.083 63.6371 48.8825 70.5764 56.544 76.9278M35.8586 60.7006C40.971 65.2904 48.8939 71.1497 56.544 76.9278M21.9266 76.9459C34.085 76.1015 45.6695 76.9492 56.544 76.9278M21.9266 76.9459C30.8361 76.4228 40.2889 77.103 56.544 76.9278" stroke="#1E1E1E" stroke-width="2" stroke-linecap="round"/>
<path fill-rule="evenodd" clip-rule="evenodd" d="M48.2122 51.039L69.9333 50.9219L47.2895 24.951L49.0213 51.5328" fill="white"/>
<path d="M48.2897 50.9713C55.7795 50.8276 64.0063 51.5971 70.0409 50.9204M48.2897 50.9713C55.729 50.7141 62.5829 51.2349 70.0409 50.9204M48.2897 50.9713C48.9141 42.6977 48.0745 33.2825 47.7912 25.1347M48.2897 50.9713C47.893 45.8306 48.1205 35.1177 47.7912 25.1347M70.0409 50.9204C60.9725 40.5835 52.2586 30.4229 47.7912 25.1347M70.0409 50.9204C63.6373 44.2969 57.963 36.7034 47.7912 25.1347" stroke="#1E1E1E" stroke-width="2" stroke-linecap="round"/>
<path d="M52.2182 42.7828C52.3397 42.4425 53.2357 42.3264 53.769 42.1307C54.3023 41.9349 54.8306 41.5162 55.4264 41.6189C56.014 41.7108 56.9159 42.3875 57.3097 42.713C57.7034 43.0385 57.7723 43.2316 57.7792 43.5706C57.7957 43.911 57.7059 44.4296 57.3926 44.7334C57.0683 45.0454 56.3933 45.3276 55.8553 45.4261C55.3187 45.5152 54.7247 45.5287 54.1604 45.2855C53.5961 45.0424 52.7477 44.4022 52.471 43.9578C52.2024 43.5243 52.4745 42.8477 52.5259 42.6424C52.5773 42.4371 52.7688 42.6667 52.7601 42.7235M52.1527 43.527C52.1616 43.2771 52.4762 42.6451 53.0004 42.3804C53.515 42.1144 54.6775 41.997 55.2855 41.9566C55.8854 41.9053 56.1988 41.9202 56.6047 42.1025C57.001 42.2835 57.4416 42.6252 57.6855 43.0264C57.9295 43.4275 58.1838 44.0812 58.0617 44.489C57.9396 44.8969 57.606 45.3331 56.9626 45.4748C56.311 45.6058 54.8054 45.453 54.1656 45.3152C53.5245 45.1869 53.4691 45.0343 53.1116 44.6656C52.7541 44.2968 52.1022 43.2785 52.0208 43.1029C51.9476 42.9381 52.5762 43.5959 52.6394 43.6337" fill="white"/>
<path d="M52.2483 43.2312C52.3414 42.8194 53.0743 42.0334 53.5497 41.8296C54.0362 41.6176 54.5183 41.9458 55.1422 41.9944C55.7564 42.0417 56.7436 41.9095 57.2944 42.1121C57.8355 42.3133 58.2952 42.8509 58.3987 43.2034C58.5021 43.5558 58.2796 43.911 57.9152 44.227C57.5604 44.5443 56.8718 44.9791 56.2507 45.1047C55.631 45.2207 54.7145 45.1504 54.2009 44.9627C53.6873 44.7749 53.4328 44.3144 53.1719 43.9592C52.911 43.604 52.743 43.0301 52.6177 42.8194C52.4909 42.6181 52.3894 42.7005 52.4318 42.7451M52.3943 42.6046C52.441 42.3021 53.0156 42.286 53.5624 42.1307C54.1092 41.9754 55.1715 41.6123 55.6863 41.665C56.1995 41.7271 56.3057 42.2538 56.6479 42.4659C56.9804 42.6766 57.6121 42.6104 57.7185 42.944C57.8152 43.2762 57.4754 44.1365 57.2587 44.4538C57.0338 44.7603 56.9325 44.6496 56.4021 44.8265C55.8621 45.002 54.5851 45.6055 54.0405 45.4907C53.5056 45.3772 53.4654 44.5507 53.1374 44.1186C52.8095 43.6864 52.1364 43.0611 52.1004 42.9112C52.0658 42.7518 52.8935 43.2056 52.9447 43.1935" stroke="#1E1E1E" stroke-linecap="round"/>
<path d="M55.252 43.959C55.3579 43.7813 55.6588 43.1017 55.6407 42.9644M54.9049 44.2375C54.9281 44.0868 55.0284 43.2443 55.1078 43.1111" stroke="#1E1E1E" stroke-linecap="round"/>
<path fill-rule="evenodd" clip-rule="evenodd" d="M47.3731 51.4991L48.7862 29.4403L21.8682 50.6001L48.6159 50.8367" fill="white"/>
<path d="M48.0122 51.0443C48.606 43.8451 47.7883 39.2321 47.951 29.8884M48.0122 51.0443C47.8914 43.8065 48.2365 37.01 47.951 29.8884M48.0122 51.0443C41.1473 50.5022 30.6599 51.1469 21.4402 51.4999M48.0122 51.0443C41.7821 51.1316 31.556 50.8694 21.4402 51.4999M47.951 29.8884C43.1122 34.3248 36.5446 40.3524 21.4402 51.4999M47.951 29.8884C38.452 36.8468 29.7991 44.1562 21.4402 51.4999" stroke="#1E1E1E" stroke-width="2" stroke-linecap="round"/>
<path fill-rule="evenodd" clip-rule="evenodd" d="M21.1368 51.0075L43.2942 50.3743L21.3168 77.5094L21.2077 51.6055" fill="white"/>
<path d="M21.5941 51.855C29.7713 51.9244 39.0237 51.0133 43.3311 51.2295M21.5941 51.855C30.0804 51.738 37.8355 51.7295 43.3311 51.2295M21.5941 51.855C20.917 57.0048 22.221 68.6448 21.9953 77.6965M21.5941 51.855C21.4292 62.4468 21.4859 69.9997 21.9953 77.6965M43.3311 51.2295C38.0516 56.0829 34.2803 62.4784 21.9953 77.6965M43.3311 51.2295C37.6641 57.6978 32.7898 64.1991 21.9953 77.6965" stroke="#1E1E1E" stroke-width="2" stroke-linecap="round"/>
<path d="M22.9977 27.9614C22.6441 27.6848 22.1662 27.0761 21.754 26.6301C22.2548 27.1385 22.6523 27.6245 22.9977 27.9614ZM22.9977 27.9614C22.7938 28.7435 22.5911 29.4718 22.2277 30.2705M22.9977 27.9614C22.7203 28.6276 22.5261 29.2821 22.2277 30.2705M22.2277 30.2705C23.3514 29.5019 24.4083 28.3083 25.1515 27.854M22.2277 30.2705C22.9766 29.5609 23.7783 28.96 25.1515 27.854M25.1515 27.854C28.0203 29.8461 30.0196 31.7385 34.6886 37.1378C30.3156 33.3852 27.7891 30.93 25.1515 27.854Z" stroke="#1E1E1E" stroke-width="2" stroke-linecap="round"/>
<path d="M24.188 32.0106C24.0886 31.9097 24.018 31.8 23.9761 31.6815C23.9349 31.5624 23.9277 31.4439 23.9547 31.3262C23.9823 31.2079 24.0494 31.0992 24.1559 31.0002C24.2496 30.913 24.3432 30.8603 24.4368 30.8421C24.5311 30.8232 24.6246 30.8283 24.7171 30.8573C24.8097 30.8864 24.8999 30.9296 24.9876 30.9869C25.0768 31.0443 25.1627 31.1053 25.2455 31.17C25.3535 31.2548 25.4403 31.3243 25.5059 31.3784C25.5729 31.4326 25.6281 31.4659 25.6717 31.4784C25.7159 31.4915 25.7583 31.4793 25.7987 31.4416L25.8072 31.4337C25.9123 31.336 25.9664 31.2321 25.9695 31.122C25.9733 31.0126 25.9197 30.9016 25.8088 30.789C25.6939 30.6722 25.5774 30.6051 25.4596 30.5877C25.3417 30.5703 25.2397 30.5758 25.1535 30.6043L25.0101 30.293C25.1503 30.242 25.2822 30.2253 25.4056 30.2428C25.5304 30.2604 25.6443 30.3001 25.7472 30.3618C25.8516 30.4236 25.9433 30.4945 26.0222 30.5747C26.0725 30.6258 26.124 30.6904 26.1765 30.7686C26.2304 30.8469 26.2689 30.9349 26.2918 31.0327C26.3153 31.1312 26.3088 31.2372 26.2723 31.3506C26.2357 31.464 26.1525 31.5812 26.0225 31.702L24.9448 32.7044L24.704 32.4598L24.9255 32.2538L24.9132 32.2414C24.8614 32.2578 24.7962 32.2655 24.7176 32.2645C24.6391 32.2634 24.5539 32.244 24.4623 32.2062C24.3706 32.1683 24.2792 32.1031 24.188 32.0106ZM24.4505 31.8379C24.5457 31.9346 24.6456 31.998 24.7499 32.028C24.855 32.0586 24.955 32.0622 25.0502 32.0386C25.1459 32.0157 25.2279 31.9725 25.2961 31.9091L25.5261 31.6952C25.5031 31.6967 25.4689 31.6848 25.4236 31.6595C25.3796 31.6342 25.3313 31.6024 25.2786 31.5641C25.2273 31.5258 25.1777 31.4878 25.1298 31.4503C25.0833 31.4128 25.0454 31.3826 25.016 31.3596C24.9449 31.304 24.8725 31.2575 24.7989 31.22C24.7267 31.1826 24.6551 31.1645 24.5841 31.1657C24.5146 31.1668 24.4478 31.1971 24.3839 31.2566C24.2966 31.3378 24.2615 31.4306 24.2787 31.5351C24.2973 31.6396 24.3546 31.7405 24.4505 31.8379ZM28.143 33.9045L27.9087 34.1224L26.9943 33.194L27.2286 32.9761L28.143 33.9045ZM21.9191 33.5728L21.6259 34.5761L22.6703 34.3354L22.9479 34.6172L21.6238 34.8639L21.3121 36.1385L21.0345 35.8567L21.2937 34.8851L20.2834 35.0941L20.0058 34.8123L21.3217 34.5573L21.6415 33.291L21.9191 33.5728Z" fill="#1E1E1E"/>
<path d="M25.7178 32.0543L25.7925 31.9848L26.3687 31.9721C26.4362 31.9707 26.4935 31.968 26.5405 31.964C26.5878 31.9598 26.6281 31.9517 26.6614 31.9398C26.6953 31.9279 26.7253 31.9098 26.7513 31.8856C26.7812 31.8578 26.8002 31.8267 26.8082 31.7924C26.8166 31.7583 26.8149 31.7238 26.8032 31.6887C26.7915 31.6537 26.7709 31.6212 26.7414 31.5913C26.7101 31.5596 26.676 31.5381 26.6391 31.527C26.6028 31.516 26.5662 31.5152 26.5294 31.5246C26.4928 31.5344 26.4584 31.5543 26.426 31.5844L26.3321 31.4891C26.3819 31.4428 26.4366 31.4133 26.4963 31.4006C26.556 31.388 26.6153 31.3911 26.6742 31.41C26.7335 31.4293 26.7868 31.463 26.8343 31.5112C26.8821 31.5596 26.9138 31.6124 26.9297 31.6694C26.9455 31.7264 26.9461 31.7821 26.9313 31.8366C26.9166 31.8911 26.8873 31.9386 26.8436 31.9793C26.8123 32.0084 26.7763 32.0313 26.7355 32.0481C26.6953 32.0649 26.6436 32.0768 26.5806 32.0838C26.5181 32.0909 26.4373 32.0951 26.3383 32.0963L25.951 32.1005L25.9444 32.1067L26.3232 32.4912L26.2318 32.5762L25.7178 32.0543Z" fill="#1E1E1E"/>
<path d="M31.1196 37.484L31.1943 37.4145L31.7705 37.4018C31.8381 37.4004 31.8954 37.3977 31.9424 37.3937C31.9896 37.3894 32.0299 37.3814 32.0633 37.3694C32.0972 37.3575 32.1271 37.3395 32.1531 37.3153C32.183 37.2875 32.202 37.2564 32.2101 37.2221C32.2184 37.188 32.2167 37.1535 32.205 37.1184C32.1933 37.0834 32.1727 37.0509 32.1433 37.021C32.112 36.9893 32.0779 36.9678 32.041 36.9567C32.0046 36.9457 31.968 36.9449 31.9312 36.9543C31.8947 36.9641 31.8602 36.984 31.8278 37.0141L31.7339 36.9188C31.7838 36.8725 31.8385 36.843 31.8982 36.8303C31.9578 36.8176 32.0171 36.8208 32.0761 36.8397C32.1353 36.8589 32.1887 36.8926 32.2362 36.9409C32.2839 36.9893 32.3157 37.0421 32.3315 37.0991C32.3474 37.1561 32.3479 37.2118 32.3332 37.2663C32.3184 37.3208 32.2892 37.3683 32.2454 37.409C32.2142 37.4381 32.1781 37.461 32.1374 37.4778C32.0971 37.4946 32.0455 37.5065 31.9824 37.5135C31.9199 37.5206 31.8392 37.5247 31.7402 37.526L31.3529 37.5302L31.3462 37.5363L31.725 37.9209L31.6337 38.0059L31.1196 37.484Z" fill="#1E1E1E"/>
</svg>
