<svg width="84" height="119" viewBox="0 0 84 119" fill="none" xmlns="http://www.w3.org/2000/svg">
<path d="M22.6262 1.94497C35.75 1.29437 54.7415 -0.902591 62.4011 1.94497C74.7176 -0.780013 82.8892 7.6401 82.2886 20.9916C80.1916 43.0838 83.726 68.759 82.2886 97.8853C84.2084 108.389 74.3829 117.733 62.4011 116.932C47.3772 119.233 36.6656 113.849 22.6262 116.932C8.20286 119.827 1.0355 109.992 2.73873 97.8853C1.38008 81.4788 2.39415 61.2912 2.73873 20.9916C5.67262 11.0157 6.72607 0.860636 22.6262 1.94497Z" fill="white"/>
<path d="M22.6262 1.94498C37.6107 2.51072 52.5263 0.379757 62.4011 1.94498M22.6262 1.94498C37.6796 2.66158 53.3631 1.11522 62.4011 1.94498M22.6262 1.94498C9.07905 2.64272 1.62618 8.6773 2.73869 20.9916M22.6262 1.94498C8.1536 1.90726 0.553039 6.67834 2.73869 20.9916M62.4011 1.94498C73.9988 3.42533 81.1367 8.84702 82.2886 20.9916M62.4011 1.94498C76.8343 0.917212 81.0678 9.35619 82.2886 20.9916M82.2886 20.9916C82.8793 43.1404 82.0424 68.6647 82.2886 97.8853M82.2886 20.9916C83.2436 43.7815 81.9735 67.4201 82.2886 97.8853M82.2886 97.8853C84.0903 111.586 73.9398 118.742 62.4011 116.932M82.2886 97.8853C84.3561 110.954 74.0776 118.431 62.4011 116.932M62.4011 116.932C52.6444 116.215 43.5966 117.111 22.6262 116.932M62.4011 116.932C54.9581 116.838 45.2999 117.45 22.6262 116.932M22.6262 116.932C9.32519 118.818 3.53616 110.68 2.73869 97.8853M22.6262 116.932C10.29 118.101 4.61914 112.038 2.73869 97.8853M2.73869 97.8853C0.425051 73.5678 2.48271 46.7611 2.73869 20.9916M2.73869 97.8853C3.35895 77.5563 2.84699 56.0298 2.73869 20.9916" stroke="#1E1E1E" stroke-width="2" stroke-linecap="round"/>
<path d="M23.6845 1.78113C34.2189 1.78113 44.7534 1.78113 59.5115 1.78113C61.9531 1.78113 63.1838 2.95033 63.1838 5.29815C63.1838 7.28768 63.1838 9.28663 63.1838 12.3228C63.1838 14.6612 61.9531 15.8304 59.5115 15.8304C49.5677 15.8304 39.6142 15.8304 23.6845 15.8304C21.233 15.8304 20.0122 14.6612 20.0122 12.3228C20.0122 10.1447 20.0122 7.96657 20.0122 5.29815C20.0122 2.95033 21.233 1.78113 23.6845 1.78113Z" fill="white"/>
<path d="M23.6845 1.78113C32.7126 1.78113 41.7506 1.78113 59.5115 1.78113M23.6845 1.78113C34.15 1.78113 44.6254 1.78113 59.5115 1.78113M23.6845 1.78113C21.233 1.78113 20.0122 2.95033 20.0122 5.29815M59.5115 1.78113C61.9531 1.78113 63.1838 2.95033 63.1838 5.29815M63.1838 5.29815C63.1838 6.85394 63.1838 8.40973 63.1838 12.3228M63.1838 5.29815C63.1838 7.08967 63.1838 8.88118 63.1838 12.3228M63.1838 12.3228C63.1838 14.6612 61.9531 15.8304 59.5115 15.8304M59.5115 15.8304C50.6803 15.8304 41.849 15.8304 23.6845 15.8304M59.5115 15.8304C47.1655 15.8304 34.8195 15.8304 23.6845 15.8304M23.6845 15.8304C21.233 15.8304 20.0122 14.6612 20.0122 12.3228M20.0122 12.3228C20.0122 10.8801 20.0122 9.44692 20.0122 5.29815M20.0122 12.3228C20.0122 9.75808 20.0122 7.19339 20.0122 5.29815" stroke="#1E1E1E" stroke-width="2" stroke-linecap="round"/>
<path d="M11.1275 101.058C11.1175 100.21 11.0975 96.806 11.0875 95.9574" stroke="#1E1E1E" stroke-linecap="round"/>
<path d="M11.056 96.1486C11.3022 95.8092 12.2965 94.4702 12.5427 94.1308" stroke="#1E1E1E" stroke-linecap="round"/>
<path d="M14.0123 101.119C14.0223 100.27 14.0423 96.8666 14.0523 96.0179" stroke="#1E1E1E" stroke-linecap="round"/>
<path d="M14.0832 96.2092C13.8371 95.8697 12.8427 94.5308 12.5966 94.1913" stroke="#1E1E1E" stroke-linecap="round"/>
<path d="M8.94885 101.578C10.1106 101.559 14.7379 101.483 15.8898 101.464" stroke="#1E1E1E" stroke-linecap="round"/>
<path d="M12.7476 101.663C12.7576 102.257 12.7976 104.652 12.8076 105.246" stroke="#1E1E1E" stroke-linecap="round"/>
<path d="M53.5182 97.0248C53.8726 96.6759 55.2903 95.2616 55.6448 94.9033" stroke="#1E1E1E" stroke-linecap="round"/>
<path d="M55.6404 94.8653C56.0342 95.1765 57.5897 96.4211 57.9836 96.7322" stroke="#1E1E1E" stroke-linecap="round"/>
<path d="M58.072 96.9825C57.3926 97.982 54.6852 101.989 54.0059 102.998" stroke="#1E1E1E" stroke-linecap="round"/>
<path d="M53.5845 97.0248C53.23 96.6759 51.8123 95.2616 51.4579 94.9033" stroke="#1E1E1E" stroke-linecap="round"/>
<path d="M51.4623 94.8653C51.0685 95.1765 49.513 96.4211 49.1191 96.7322" stroke="#1E1E1E" stroke-linecap="round"/>
<path d="M49.0308 96.9825C49.7101 97.982 52.4175 101.989 53.0969 102.998" stroke="#1E1E1E" stroke-linecap="round"/>
<path d="M23.9133 8.99963C23.9133 9.17542 23.9558 9.33948 24.0408 9.49182C24.1287 9.64124 24.2429 9.77307 24.3835 9.88733C24.5242 9.99866 24.6853 10.0865 24.8669 10.151C25.0486 10.2125 25.2346 10.2433 25.425 10.2433C25.4836 10.2433 25.5437 10.2389 25.6052 10.2301C25.6667 10.2184 25.7224 10.1993 25.7722 10.173C25.822 10.1466 25.863 10.1129 25.8953 10.0719C25.9275 10.028 25.9436 9.97375 25.9436 9.9093C25.9436 9.78625 25.8997 9.66467 25.8118 9.54456C25.7268 9.42444 25.614 9.30579 25.4734 9.1886C25.3328 9.06848 25.1716 8.94983 24.99 8.83264C24.8083 8.71252 24.6238 8.59387 24.4363 8.47668C24.2488 8.3595 24.0642 8.24231 23.8826 8.12512C23.7009 8.005 23.5398 7.88635 23.3992 7.76917C23.2585 7.64905 23.1443 7.52893 23.0564 7.40881C22.9714 7.28577 22.929 7.16272 22.929 7.03967C22.929 6.92249 22.9583 6.81409 23.0168 6.71448C23.0784 6.61194 23.1589 6.51965 23.2585 6.43762C23.3582 6.35559 23.4739 6.28235 23.6057 6.2179C23.7375 6.15344 23.8752 6.09924 24.0188 6.0553C24.1624 6.01135 24.3059 5.97913 24.4495 5.95862C24.5959 5.93518 24.7351 5.92346 24.8669 5.92346C24.9636 5.92346 25.0691 5.92639 25.1833 5.93225C25.3005 5.93518 25.4089 5.94836 25.5085 5.9718C25.6111 5.99231 25.696 6.02454 25.7634 6.06848C25.8308 6.11243 25.8645 6.17542 25.8645 6.25745C25.8645 6.28381 25.8601 6.3175 25.8513 6.35852C25.8425 6.39661 25.8176 6.46106 25.7766 6.55188C25.7356 6.63684 25.6873 6.70129 25.6316 6.74524C25.5789 6.78625 25.51 6.80676 25.425 6.80676C25.3049 6.80676 25.1775 6.79358 25.0427 6.76721C24.9109 6.73792 24.7776 6.72327 24.6428 6.72327C24.5696 6.72327 24.4949 6.72766 24.4187 6.73645C24.3455 6.74231 24.2781 6.75549 24.2166 6.776C24.155 6.79358 24.1052 6.82141 24.0671 6.8595C24.0291 6.89465 24.01 6.94006 24.01 6.99573C24.01 7.05139 24.0496 7.11438 24.1287 7.18469C24.2107 7.255 24.3176 7.33264 24.4495 7.4176C24.5842 7.50256 24.7366 7.59631 24.9065 7.69885C25.0764 7.79846 25.2493 7.90686 25.425 8.02405C25.6038 8.13831 25.7781 8.26135 25.948 8.39319C26.1179 8.52209 26.2688 8.65979 26.4006 8.80627C26.5354 8.94983 26.6423 9.10217 26.7214 9.26331C26.8035 9.42444 26.8445 9.59143 26.8445 9.76428C26.8445 9.97522 26.7961 10.1613 26.6995 10.3224C26.6028 10.4835 26.4783 10.6183 26.3259 10.7267C26.1736 10.8351 26.0051 10.9156 25.8206 10.9684C25.636 11.024 25.4558 11.0519 25.28 11.0519C25.1013 11.0519 24.9197 11.0299 24.7351 10.986C24.5535 10.9449 24.3777 10.8849 24.2078 10.8058C24.0378 10.7296 23.8782 10.6373 23.7288 10.5289C23.5823 10.4176 23.4548 10.2946 23.3464 10.1598C23.238 10.0221 23.1516 9.87415 23.0872 9.71594C23.0256 9.55774 22.9949 9.39221 22.9949 9.21936C22.9949 9.14612 22.9993 9.07288 23.0081 8.99963C23.0198 8.92346 23.0388 8.85754 23.0652 8.80188C23.0916 8.74329 23.1282 8.69641 23.175 8.66125C23.2219 8.62317 23.282 8.60413 23.3552 8.60413C23.3787 8.60413 23.405 8.60706 23.4343 8.61292C23.4636 8.61584 23.5149 8.62903 23.5881 8.65247C23.6731 8.67883 23.7478 8.72131 23.8123 8.77991C23.8796 8.83557 23.9133 8.90881 23.9133 8.99963ZM28.1321 9.24573C28.1321 9.63831 28.1921 9.94153 28.3123 10.1554C28.4324 10.3693 28.6067 10.4762 28.8352 10.4762C28.9788 10.4762 29.1106 10.4337 29.2307 10.3488C29.3538 10.2638 29.4592 10.1451 29.5471 9.9928C29.635 9.84045 29.7024 9.66028 29.7493 9.45227C29.7991 9.24133 29.824 9.01282 29.824 8.76672C29.824 8.61731 29.8181 8.4884 29.8064 8.38C29.7947 8.26868 29.7815 8.17053 29.7668 8.08557C29.7551 7.99768 29.7434 7.92004 29.7317 7.85266C29.72 7.78528 29.7141 7.72083 29.7141 7.6593C29.7141 7.56555 29.7537 7.49817 29.8328 7.45715C29.9119 7.41321 30.0378 7.39124 30.2107 7.39124C30.4304 7.39124 30.6003 7.44104 30.7205 7.54065C30.8435 7.64026 30.905 7.78528 30.905 7.97571C30.905 8.49426 30.8538 8.96008 30.7512 9.37317C30.6516 9.78625 30.5066 10.1378 30.3162 10.4279C30.1287 10.715 29.9001 10.9362 29.6306 11.0914C29.3611 11.2467 29.0593 11.3243 28.7253 11.3243C28.488 11.3243 28.2683 11.2745 28.0662 11.1749C27.8669 11.0782 27.6941 10.942 27.5476 10.7662C27.4041 10.5875 27.2913 10.3766 27.2092 10.1334C27.1272 9.88733 27.0862 9.6178 27.0862 9.32483C27.0862 9.2135 27.0891 9.09485 27.095 8.96887C27.1008 8.8429 27.1096 8.70813 27.1213 8.56458C27.1331 8.41809 27.1477 8.25989 27.1653 8.08997C27.1858 7.92004 27.2078 7.73547 27.2312 7.53625C27.24 7.45129 27.2795 7.38391 27.3499 7.33411C27.4231 7.28137 27.5154 7.255 27.6267 7.255C27.7263 7.255 27.8201 7.26526 27.908 7.28577C27.9958 7.30627 28.0706 7.33411 28.1321 7.36926C28.1965 7.40442 28.2463 7.44543 28.2815 7.49231C28.3196 7.53918 28.3386 7.58899 28.3386 7.64172C28.3386 7.69446 28.3269 7.77795 28.3035 7.89221C28.283 8.00354 28.2595 8.13245 28.2332 8.27893C28.2097 8.42249 28.1863 8.57922 28.1628 8.74915C28.1423 8.91614 28.1321 9.08167 28.1321 9.24573ZM31.8279 10.9904C31.8074 10.6007 31.7737 10.2418 31.7268 9.9137C31.6829 9.58264 31.636 9.29407 31.5862 9.04797C31.5393 8.80188 31.4968 8.60266 31.4587 8.45032C31.4236 8.29797 31.406 8.20276 31.406 8.16467C31.406 8.10901 31.4265 8.05481 31.4675 8.00208C31.5115 7.94934 31.5657 7.90393 31.6301 7.86584C31.6946 7.82483 31.7634 7.7926 31.8367 7.76917C31.9128 7.74573 31.9817 7.73401 32.0432 7.73401C32.093 7.73401 32.1355 7.7428 32.1707 7.76038C32.2087 7.77795 32.2351 7.80725 32.2498 7.84827C32.2644 7.89807 32.2776 7.95081 32.2893 8.00647C32.304 8.0592 32.3186 8.12366 32.3333 8.19983C32.3508 8.30823 32.3743 8.36243 32.4036 8.36243C32.4358 8.36243 32.4724 8.31409 32.5134 8.21741C32.572 8.08264 32.635 7.97131 32.7024 7.88342C32.7698 7.79553 32.8416 7.72668 32.9177 7.67688C32.9968 7.62415 33.0774 7.58752 33.1594 7.56702C33.2444 7.54651 33.3323 7.53625 33.4231 7.53625C33.6985 7.53625 33.9314 7.64465 34.1218 7.86145C34.3152 8.07825 34.4661 8.39172 34.5745 8.80188C34.5891 8.84875 34.6023 8.87952 34.614 8.89417C34.6257 8.90588 34.6389 8.91174 34.6536 8.91174C34.6682 8.91174 34.6829 8.90588 34.6975 8.89417C34.7151 8.87952 34.7312 8.85168 34.7458 8.81067C34.8162 8.62024 34.8982 8.45911 34.9919 8.32727C35.0857 8.1925 35.1824 8.08411 35.282 8.00208C35.3845 7.91711 35.4885 7.85559 35.594 7.8175C35.6995 7.77942 35.8005 7.76038 35.8972 7.76038C36.0759 7.76038 36.2371 7.82629 36.3806 7.95813C36.5271 8.08704 36.656 8.28772 36.7673 8.56018C36.8816 8.82971 36.9797 9.17249 37.0618 9.5885C37.1467 10.0016 37.217 10.4923 37.2727 11.0607C37.2727 11.2189 37.2244 11.3287 37.1277 11.3903C37.031 11.4547 36.8992 11.4869 36.7322 11.4869C36.6238 11.4869 36.5388 11.4635 36.4773 11.4166C36.4158 11.3698 36.3806 11.3082 36.3718 11.2321C36.3337 10.8248 36.2913 10.463 36.2444 10.1466C36.2004 9.82727 36.1521 9.5592 36.0994 9.34241C36.0466 9.12268 35.988 8.95569 35.9236 8.84143C35.8621 8.72717 35.7932 8.67004 35.717 8.67004C35.679 8.67004 35.6306 8.69788 35.572 8.75354C35.5164 8.8092 35.4563 8.91174 35.3918 9.06116C35.3274 9.20764 35.26 9.40979 35.1897 9.6676C35.1194 9.92249 35.052 10.2491 34.9875 10.6476C34.97 10.7589 34.9158 10.8439 34.825 10.9025C34.7371 10.9611 34.6287 10.9904 34.4998 10.9904C34.3503 10.9904 34.2463 10.9669 34.1877 10.92C34.1321 10.8732 34.1013 10.7941 34.0955 10.6827C34.0837 10.4894 34.0632 10.2975 34.0339 10.1071C34.0076 9.9137 33.9739 9.73059 33.9329 9.55774C33.8918 9.38196 33.8464 9.22083 33.7966 9.07434C33.7468 8.92493 33.6941 8.79602 33.6384 8.68762C33.5828 8.57629 33.5256 8.48987 33.467 8.42834C33.4084 8.36682 33.3513 8.33606 33.2957 8.33606C33.2224 8.33606 33.1506 8.38733 33.0803 8.48987C33.0129 8.59241 32.9514 8.73743 32.8958 8.92493C32.843 9.11243 32.8005 9.33801 32.7683 9.60168C32.7361 9.86536 32.72 10.1598 32.72 10.485C32.72 10.5406 32.7214 10.5963 32.7244 10.652C32.7273 10.7047 32.7288 10.7604 32.7288 10.819C32.7288 10.9069 32.7141 10.9786 32.6848 11.0343C32.6584 11.09 32.6189 11.1339 32.5662 11.1661C32.5164 11.1984 32.4578 11.2203 32.3904 11.2321C32.323 11.2438 32.2498 11.2496 32.1707 11.2496C32.0974 11.2496 32.0388 11.2438 31.9949 11.2321C31.9509 11.2233 31.9172 11.2086 31.8938 11.1881C31.8704 11.1676 31.8542 11.1398 31.8455 11.1046C31.8367 11.0724 31.8308 11.0343 31.8279 10.9904ZM38.4856 6.31897C38.4006 6.31897 38.3201 6.30725 38.2439 6.28381C38.1707 6.25745 38.1062 6.22229 38.0505 6.17834C37.9978 6.13147 37.9553 6.07727 37.9231 6.01575C37.8909 5.95422 37.8748 5.88684 37.8748 5.8136C37.8748 5.69055 37.9231 5.59094 38.0198 5.51477C38.1194 5.4386 38.2512 5.40051 38.4153 5.40051C38.4915 5.40051 38.5647 5.41516 38.635 5.44446C38.7053 5.47083 38.7668 5.50745 38.8196 5.55432C38.8752 5.6012 38.9192 5.65686 38.9514 5.72131C38.9836 5.78284 38.9998 5.84729 38.9998 5.91467C38.9998 6.04065 38.9529 6.14026 38.8591 6.2135C38.7683 6.28381 38.6438 6.31897 38.4856 6.31897ZM37.8835 7.6593C37.8835 7.55676 37.9275 7.47327 38.0154 7.40881C38.1062 7.34143 38.2249 7.30774 38.3713 7.30774C38.635 7.30774 38.7756 7.39856 38.7932 7.5802C38.8049 7.70618 38.8167 7.84827 38.8284 8.00647C38.843 8.16467 38.8562 8.33313 38.8679 8.51184C38.8826 8.68762 38.8943 8.87073 38.9031 9.06116C38.9148 9.24866 38.925 9.43469 38.9338 9.61926C38.9426 9.8009 38.95 9.97668 38.9558 10.1466C38.9617 10.3165 38.9646 10.4718 38.9646 10.6124C38.9646 10.7589 38.9119 10.8688 38.8064 10.942C38.7039 11.0153 38.553 11.0519 38.3538 11.0519C38.2629 11.0519 38.1912 11.0299 38.1384 10.986C38.0886 10.9449 38.0637 10.8834 38.0637 10.8014C38.0637 10.3971 38.0535 10.0192 38.033 9.6676C38.0154 9.31311 37.9949 8.99817 37.9714 8.72278C37.9509 8.44739 37.9304 8.21887 37.9099 8.03723C37.8923 7.85266 37.8835 7.72668 37.8835 7.6593ZM42.7175 7.58899C42.7292 7.59485 42.7468 7.59778 42.7703 7.59778C42.8347 7.59778 42.8669 7.5553 42.8669 7.47034V6.10364C42.8669 5.93079 42.905 5.80774 42.9812 5.7345C43.0603 5.66125 43.1907 5.62463 43.3723 5.62463C43.5569 5.62463 43.6873 5.66272 43.7634 5.73889C43.8396 5.81506 43.8777 5.94543 43.8777 6.13C43.8777 6.20032 43.8733 6.30432 43.8645 6.44202C43.8557 6.57678 43.8455 6.73059 43.8337 6.90344C43.825 7.07629 43.8162 7.26233 43.8074 7.46155C43.7986 7.65784 43.7942 7.85266 43.7942 8.04602C43.7942 8.34485 43.8147 8.60266 43.8557 8.81946C43.8967 9.03625 43.9553 9.21643 44.0315 9.35999C44.1077 9.50061 44.1985 9.60608 44.304 9.67639C44.4094 9.74377 44.5281 9.77747 44.6599 9.77747C44.7332 9.77747 44.7991 9.76868 44.8577 9.7511C44.9192 9.73059 44.991 9.72034 45.073 9.72034C45.1316 9.72034 45.1799 9.7511 45.218 9.81262C45.259 9.87122 45.2795 9.94299 45.2795 10.028C45.2795 10.1041 45.2561 10.1759 45.2092 10.2433C45.1653 10.3107 45.1038 10.3693 45.0247 10.4191C44.9485 10.4689 44.8591 10.5084 44.7566 10.5377C44.6541 10.5641 44.5471 10.5773 44.4358 10.5773C44.1956 10.5773 43.9758 10.504 43.7766 10.3575C43.5774 10.2081 43.428 9.98108 43.3284 9.67639C43.3196 9.62952 43.3049 9.60608 43.2844 9.60608C43.261 9.60608 43.2419 9.62952 43.2273 9.67639C43.1482 9.89026 43.0442 10.0836 42.9153 10.2565C42.7893 10.4264 42.6414 10.5729 42.4714 10.6959C42.3044 10.816 42.1199 10.9083 41.9177 10.9728C41.7185 11.0372 41.5076 11.0695 41.2849 11.0695C41.0505 11.0695 40.8352 11.0299 40.6389 10.9508C40.4456 10.8746 40.2786 10.7677 40.1379 10.63C39.9973 10.4894 39.8875 10.3253 39.8083 10.1378C39.7292 9.94739 39.6897 9.74231 39.6897 9.52258C39.6897 9.24133 39.7483 8.9762 39.8655 8.72717C39.9827 8.47815 40.1409 8.26135 40.3401 8.07678C40.5422 7.88928 40.7766 7.74133 41.0432 7.63293C41.3098 7.52454 41.594 7.47034 41.8958 7.47034C42.0188 7.47034 42.1492 7.48059 42.2869 7.5011C42.4246 7.51868 42.5681 7.54797 42.7175 7.58899ZM41.4563 10.2784C41.6233 10.2784 41.7712 10.2418 41.9001 10.1686C42.032 10.0953 42.1477 10.0031 42.2473 9.89172C42.3499 9.77747 42.4363 9.65295 42.5066 9.51819C42.5769 9.38049 42.634 9.24719 42.678 9.11829C42.7219 8.98938 42.7542 8.87366 42.7747 8.77112C42.7952 8.66858 42.8054 8.59534 42.8054 8.55139C42.8054 8.51917 42.7966 8.49133 42.7791 8.4679C42.7615 8.44153 42.7351 8.42102 42.7 8.40637C42.6208 8.38586 42.5388 8.36829 42.4539 8.35364C42.3689 8.33606 42.2854 8.32141 42.2034 8.30969C42.1213 8.29797 42.0422 8.28918 41.9661 8.28333C41.8928 8.27747 41.8254 8.27454 41.7639 8.27454C41.5881 8.27454 41.4285 8.3009 41.2849 8.35364C41.1414 8.40637 41.0183 8.48108 40.9158 8.57776C40.8162 8.67444 40.7385 8.79016 40.6829 8.92493C40.6272 9.05676 40.5994 9.20178 40.5994 9.35999C40.5994 9.50061 40.6199 9.62805 40.6609 9.74231C40.7048 9.85364 40.7634 9.94885 40.8367 10.028C40.9128 10.1071 41.0037 10.1686 41.1091 10.2125C41.2146 10.2565 41.3303 10.2784 41.4563 10.2784ZM45.1082 9.34241C45.1082 9.2926 45.114 9.23694 45.1257 9.17542C45.1375 9.11389 45.1433 9.04651 45.1433 8.97327C45.1433 8.92346 45.1213 8.88538 45.0774 8.85901C45.0364 8.83264 44.9895 8.80334 44.9368 8.77112C44.884 8.73889 44.8357 8.69788 44.7917 8.64807C44.7507 8.59827 44.7302 8.52649 44.7302 8.43274C44.7302 8.36536 44.7478 8.29797 44.783 8.23059C44.821 8.16321 44.8752 8.10168 44.9456 8.04602C45.1184 7.91711 45.2971 7.80139 45.4817 7.69885C45.6692 7.59631 45.8552 7.50989 46.0398 7.43958C46.2273 7.36926 46.4119 7.31506 46.5935 7.27698C46.7751 7.23889 46.9495 7.21985 47.1165 7.21985C47.3977 7.21985 47.6614 7.27258 47.9075 7.37805C48.1565 7.48059 48.3718 7.62268 48.5535 7.80432C48.738 7.98303 48.8831 8.19397 48.9885 8.43713C49.0969 8.67737 49.1511 8.93518 49.1511 9.21057C49.1511 9.4801 49.094 9.73645 48.9797 9.97961C48.8684 10.2198 48.7175 10.4308 48.5271 10.6124C48.3367 10.7941 48.1125 10.9376 47.8547 11.0431C47.5999 11.1515 47.3303 11.2057 47.0461 11.2057C46.7678 11.2057 46.51 11.1588 46.2727 11.0651C46.0354 10.9713 45.8303 10.8424 45.6575 10.6783C45.4846 10.5114 45.3499 10.3151 45.2532 10.0895C45.1565 9.86096 45.1082 9.61194 45.1082 9.34241ZM47.1428 10.4147C47.2659 10.4147 47.3933 10.3898 47.5251 10.34C47.657 10.2902 47.7771 10.2184 47.8855 10.1246C47.9968 10.028 48.0876 9.91077 48.158 9.77307C48.2312 9.63538 48.2678 9.4801 48.2678 9.30725C48.2678 9.13147 48.2356 8.96741 48.1711 8.81506C48.1067 8.66272 48.0173 8.53088 47.9031 8.41956C47.7917 8.3053 47.6584 8.21594 47.5032 8.15149C47.3508 8.08704 47.1853 8.05481 47.0066 8.05481C46.6814 8.05481 46.4324 8.13977 46.2595 8.30969C46.0867 8.47668 46.0002 8.7345 46.0002 9.08313C46.0002 9.27356 46.0281 9.45081 46.0837 9.61487C46.1423 9.776 46.2229 9.91663 46.3254 10.0367C46.428 10.1539 46.5481 10.2462 46.6858 10.3136C46.8264 10.381 46.9788 10.4147 47.1428 10.4147ZM50.6497 9.24573C50.6497 9.63831 50.7097 9.94153 50.8298 10.1554C50.95 10.3693 51.1243 10.4762 51.3528 10.4762C51.4963 10.4762 51.6282 10.4337 51.7483 10.3488C51.8713 10.2638 51.9768 10.1451 52.0647 9.9928C52.1526 9.84045 52.22 9.66028 52.2668 9.45227C52.3167 9.24133 52.3416 9.01282 52.3416 8.76672C52.3416 8.61731 52.3357 8.4884 52.324 8.38C52.3123 8.26868 52.2991 8.17053 52.2844 8.08557C52.2727 7.99768 52.261 7.92004 52.2493 7.85266C52.2375 7.78528 52.2317 7.72083 52.2317 7.6593C52.2317 7.56555 52.2712 7.49817 52.3503 7.45715C52.4294 7.41321 52.5554 7.39124 52.7283 7.39124C52.948 7.39124 53.1179 7.44104 53.238 7.54065C53.3611 7.64026 53.4226 7.78528 53.4226 7.97571C53.4226 8.49426 53.3713 8.96008 53.2688 9.37317C53.1692 9.78625 53.0242 10.1378 52.8337 10.4279C52.6462 10.715 52.4177 10.9362 52.1482 11.0914C51.8787 11.2467 51.5769 11.3243 51.2429 11.3243C51.0056 11.3243 50.7859 11.2745 50.5837 11.1749C50.3845 11.0782 50.2117 10.942 50.0652 10.7662C49.9216 10.5875 49.8088 10.3766 49.7268 10.1334C49.6448 9.88733 49.6038 9.6178 49.6038 9.32483C49.6038 9.2135 49.6067 9.09485 49.6125 8.96887C49.6184 8.8429 49.6272 8.70813 49.6389 8.56458C49.6506 8.41809 49.6653 8.25989 49.6829 8.08997C49.7034 7.92004 49.7253 7.73547 49.7488 7.53625C49.7576 7.45129 49.7971 7.38391 49.8674 7.33411C49.9407 7.28137 50.033 7.255 50.1443 7.255C50.2439 7.255 50.3376 7.26526 50.4255 7.28577C50.5134 7.30627 50.5881 7.33411 50.6497 7.36926C50.7141 7.40442 50.7639 7.44543 50.7991 7.49231C50.8372 7.53918 50.8562 7.58899 50.8562 7.64172C50.8562 7.69446 50.8445 7.77795 50.821 7.89221C50.8005 8.00354 50.7771 8.13245 50.7507 8.27893C50.7273 8.42249 50.7039 8.57922 50.6804 8.74915C50.6599 8.91614 50.6497 9.08167 50.6497 9.24573ZM56.3362 7.51428C56.2278 7.51428 56.1326 7.54358 56.0505 7.60217C55.9685 7.65784 55.8982 7.73694 55.8396 7.83948C55.781 7.93909 55.7327 8.05774 55.6946 8.19543C55.6565 8.3302 55.6257 8.47815 55.6023 8.63928C55.5789 8.80042 55.5627 8.96887 55.554 9.14465C55.5452 9.32043 55.5408 9.49768 55.5408 9.67639C55.5408 9.91077 55.5496 10.1422 55.5671 10.3707C55.5876 10.5963 55.5979 10.8058 55.5979 10.9991C55.5979 11.1251 55.551 11.2233 55.4573 11.2936C55.3635 11.3668 55.2302 11.4034 55.0574 11.4034C55.0251 11.4034 54.9885 11.4005 54.9475 11.3947C54.9065 11.3888 54.8669 11.3771 54.8289 11.3595C54.7937 11.3419 54.7615 11.317 54.7322 11.2848C54.7058 11.2555 54.6912 11.2145 54.6882 11.1617C54.6619 10.9039 54.6238 10.6403 54.574 10.3707C54.5242 10.1012 54.4612 9.83313 54.385 9.56653C54.3118 9.297 54.2224 9.0304 54.1169 8.76672C54.0144 8.50305 53.8958 8.24524 53.761 7.99329C53.7375 7.94934 53.717 7.90833 53.6995 7.87024C53.6848 7.83215 53.6775 7.79553 53.6775 7.76038C53.6775 7.71643 53.6965 7.66956 53.7346 7.61975C53.7756 7.56702 53.8254 7.51868 53.884 7.47473C53.9456 7.43079 54.0115 7.39563 54.0818 7.36926C54.155 7.33997 54.2253 7.32532 54.2927 7.32532C54.4041 7.32532 54.5022 7.40295 54.5872 7.55823C54.6721 7.71057 54.7512 7.9552 54.8245 8.29211C54.8391 8.35071 54.8508 8.39172 54.8596 8.41516C54.8684 8.4386 54.8801 8.45032 54.8948 8.45032C54.927 8.45032 54.9475 8.40051 54.9563 8.3009C54.9915 8.02258 55.0515 7.78381 55.1365 7.58459C55.2214 7.38245 55.3269 7.21692 55.4529 7.08801C55.5818 6.95618 55.7283 6.8595 55.8923 6.79797C56.0593 6.73645 56.2424 6.70569 56.4417 6.70569C56.5559 6.70569 56.6716 6.71594 56.7888 6.73645C56.906 6.75696 57.0115 6.78772 57.1052 6.82874C57.199 6.86975 57.2751 6.91956 57.3337 6.97815C57.3923 7.03674 57.4216 7.10266 57.4216 7.1759C57.4216 7.22864 57.4099 7.29163 57.3865 7.36487C57.366 7.43518 57.3381 7.50403 57.303 7.57141C57.2678 7.63586 57.2268 7.69153 57.1799 7.7384C57.136 7.78235 57.0906 7.80432 57.0437 7.80432C56.991 7.80432 56.9397 7.78967 56.8899 7.76038C56.8401 7.72815 56.7859 7.69446 56.7273 7.6593C56.6716 7.62415 56.6116 7.59192 56.5471 7.56262C56.4856 7.5304 56.4153 7.51428 56.3362 7.51428ZM57.2019 9.34241C57.2019 9.2926 57.2078 9.23694 57.2195 9.17542C57.2312 9.11389 57.2371 9.04651 57.2371 8.97327C57.2371 8.92346 57.2151 8.88538 57.1711 8.85901C57.1301 8.83264 57.0833 8.80334 57.0305 8.77112C56.9778 8.73889 56.9294 8.69788 56.8855 8.64807C56.8445 8.59827 56.824 8.52649 56.824 8.43274C56.824 8.36536 56.8416 8.29797 56.8767 8.23059C56.9148 8.16321 56.969 8.10168 57.0393 8.04602C57.2122 7.91711 57.3909 7.80139 57.5754 7.69885C57.7629 7.59631 57.949 7.50989 58.1335 7.43958C58.321 7.36926 58.5056 7.31506 58.6873 7.27698C58.8689 7.23889 59.0432 7.21985 59.2102 7.21985C59.4915 7.21985 59.7551 7.27258 60.0012 7.37805C60.2502 7.48059 60.4656 7.62268 60.6472 7.80432C60.8318 7.98303 60.9768 8.19397 61.0823 8.43713C61.1907 8.67737 61.2449 8.93518 61.2449 9.21057C61.2449 9.4801 61.1877 9.73645 61.0735 9.97961C60.9622 10.2198 60.8113 10.4308 60.6208 10.6124C60.4304 10.7941 60.2063 10.9376 59.9485 11.0431C59.6936 11.1515 59.4241 11.2057 59.1399 11.2057C58.8616 11.2057 58.6038 11.1588 58.3665 11.0651C58.1292 10.9713 57.9241 10.8424 57.7512 10.6783C57.5784 10.5114 57.4436 10.3151 57.3469 10.0895C57.2502 9.86096 57.2019 9.61194 57.2019 9.34241ZM59.2366 10.4147C59.3596 10.4147 59.4871 10.3898 59.6189 10.34C59.7507 10.2902 59.8708 10.2184 59.9792 10.1246C60.0906 10.028 60.1814 9.91077 60.2517 9.77307C60.325 9.63538 60.3616 9.4801 60.3616 9.30725C60.3616 9.13147 60.3293 8.96741 60.2649 8.81506C60.2004 8.66272 60.1111 8.53088 59.9968 8.41956C59.8855 8.3053 59.7522 8.21594 59.5969 8.15149C59.4446 8.08704 59.2791 8.05481 59.1003 8.05481C58.7751 8.05481 58.5261 8.13977 58.3533 8.30969C58.1804 8.47668 58.094 8.7345 58.094 9.08313C58.094 9.27356 58.1218 9.45081 58.1775 9.61487C58.2361 9.776 58.3167 9.91663 58.4192 10.0367C58.5217 10.1539 58.6418 10.2462 58.7795 10.3136C58.9202 10.381 59.0725 10.4147 59.2366 10.4147Z" fill="#1E1E1E"/>
<path d="M11.1689 85.0731C21.9889 85.0731 65.2885 85.0731 76.1084 85.0731" stroke="#1E1E1E" stroke-width="2" stroke-linecap="round"/>
<path d="M45.3252 45.1421C45.3252 45.1421 45.358 45.1893 45.4236 45.2836C45.4958 45.3716 45.5483 45.469 45.5811 45.5759C45.6205 45.689 45.6369 45.7959 45.6304 45.8964C45.6304 46.0096 45.6074 46.1196 45.5614 46.2265C45.5221 46.3333 45.4663 46.4308 45.3941 46.5188C45.3219 46.6068 45.2365 46.6822 45.1381 46.7451C45.0331 46.8079 44.9248 46.8519 44.8132 46.8771C44.7016 46.9022 44.59 46.9116 44.4785 46.9053C44.3603 46.8928 44.2455 46.8645 44.1339 46.8205C44.0289 46.7765 43.9304 46.7168 43.8385 46.6413C43.7532 46.5659 43.681 46.4779 43.6219 46.3773C43.5629 46.283 43.5235 46.1793 43.5038 46.0662C43.4841 45.953 43.4808 45.8462 43.4939 45.7456C43.5071 45.6324 43.5399 45.5256 43.5924 45.425C43.6449 45.3244 43.7138 45.2333 43.7991 45.1516C43.8845 45.0698 43.9796 45.0038 44.0847 44.9535C44.1897 44.9033 44.3012 44.8718 44.4194 44.8593C44.531 44.8467 44.6426 44.8498 44.7541 44.8687C44.8723 44.8875 44.9806 44.9253 45.079 44.9818C45.184 45.0384 45.2759 45.1075 45.3547 45.1893C45.4335 45.2773 45.4958 45.3716 45.5418 45.4721C45.5877 45.579 45.6172 45.689 45.6304 45.8022C45.6369 45.909 45.6271 46.0159 45.6008 46.1227C45.568 46.2296 45.5221 46.3333 45.463 46.4339C45.3974 46.5282 45.3186 46.6099 45.2267 46.6791C45.1348 46.7482 45.0331 46.8016 44.9215 46.8393C44.8099 46.8833 44.6951 46.9053 44.5769 46.9053C44.4653 46.9116 44.3538 46.8959 44.2422 46.8582C44.1306 46.8268 44.0289 46.7765 43.937 46.7073C43.8385 46.6445 43.7893 46.613 43.7893 46.613C43.7893 46.613 43.763 46.5785 43.7105 46.5093C43.6515 46.4465 43.6055 46.3773 43.5727 46.3019C43.5333 46.2265 43.5071 46.1447 43.4939 46.0567C43.4808 45.975 43.4742 45.8964 43.4742 45.821C43.4808 45.733 43.4972 45.6513 43.5235 45.5759C43.5497 45.4941 43.5858 45.4156 43.6318 45.3401C43.6777 45.271 43.7335 45.2081 43.7991 45.1516C43.8582 45.0887 43.9238 45.0353 43.996 44.9913C44.0748 44.9473 44.1568 44.9127 44.2422 44.8875C44.3209 44.8624 44.4063 44.8467 44.4982 44.8404C44.5769 44.8404 44.659 44.8467 44.7443 44.8593C44.8362 44.8718 44.9215 44.897 45.0003 44.9347C45.079 44.9661 45.1512 45.0101 45.2169 45.0667C45.2891 45.117 45.3252 45.1421 45.3252 45.1421Z" fill="#1E1E1E"/>
<path d="M44.4135 45.6824C45.4079 45.6164 46.6976 46.4462 47.5738 47.1911C48.4501 47.9454 49.3952 49.1711 49.661 50.1706C49.9269 51.1795 49.6315 52.2639 49.1786 53.2256C48.7257 54.178 47.9086 55.4603 46.9339 55.894C45.9494 56.3278 44.4529 56.1203 43.2911 55.828C42.1392 55.5357 40.6034 55.1303 39.9634 54.1591C39.3333 53.1785 39.3136 51.0664 39.4712 49.9915C39.6385 48.9166 40.1308 48.3791 40.9578 47.6908C41.7848 47.0025 43.8326 46.0879 44.4234 45.8427C45.0141 45.607 44.4529 46.1539 44.5021 46.2387M46.0281 46.531C47.0127 46.5782 47.3769 46.6819 48.1153 47.3419C48.8636 48.0114 50.3207 49.2749 50.4979 50.5101C50.685 51.7453 49.8973 53.8574 49.1983 54.7626C48.4993 55.6677 47.4065 55.8563 46.2841 55.9412C45.1716 56.026 43.5865 55.7337 42.5035 55.2812C41.4107 54.8286 40.3179 54.1308 39.7567 53.2256C39.1857 52.3204 38.7426 51.0287 39.0872 49.8406C39.4416 48.662 40.8003 46.6819 41.8537 46.1444C42.917 45.607 44.8959 46.597 45.4571 46.6347C46.0281 46.6725 45.2208 46.5122 45.2504 46.3802" fill="white"/>
<path d="M43.5176 45.7485C44.5415 45.5222 46.4121 45.8805 47.5148 46.484C48.6175 47.0969 49.8285 48.3226 50.1337 49.3881C50.4389 50.463 49.7399 51.8114 49.3264 52.9051C48.9129 53.9895 48.5781 55.4227 47.6428 55.9224C46.6977 56.4316 44.8172 56.1864 43.685 55.913C42.5528 55.649 41.4698 55.1021 40.8397 54.3289C40.2096 53.5463 39.9241 52.3017 39.8946 51.2362C39.865 50.1707 39.934 48.7658 40.6822 47.9455C41.4304 47.1346 43.7047 46.6537 44.384 46.352C45.0633 46.0502 44.7483 46.1917 44.768 46.1351M42.7989 45.8899C43.8228 45.6448 45.91 46.3143 47.1309 46.9366C48.3418 47.5589 49.6316 48.6432 50.1041 49.6238C50.5669 50.6139 50.3995 51.8585 49.9269 52.8297C49.4543 53.8009 48.2434 54.8758 47.2588 55.4698C46.2743 56.0639 45.2012 56.6296 44.0099 56.3939C42.8285 56.1487 40.9776 54.8758 40.1407 54.0272C39.3137 53.188 38.8707 52.4337 39.0183 51.3305C39.166 50.2179 40.2785 48.3132 41.0169 47.3797C41.7652 46.4368 43.0844 45.8334 43.4783 45.7014C43.8721 45.5788 43.4684 46.5028 43.3896 46.616" stroke="#1E1E1E" stroke-linecap="round"/>
<path fill-rule="evenodd" clip-rule="evenodd" d="M41.8044 50.5364C42.2967 50.1498 43.7833 48.2546 44.7777 48.2074C45.7819 48.1603 47.308 49.9046 47.8199 50.2441" fill="white"/>
<path d="M41.8044 50.5364C42.2967 50.1498 43.7833 48.2546 44.7777 48.2074C45.7819 48.1603 47.308 49.9046 47.8199 50.2441" stroke="#1E1E1E" stroke-width="0.5" stroke-linecap="round"/>
<path fill-rule="evenodd" clip-rule="evenodd" d="M41.9562 50.4196C42.4484 50.8061 43.9351 52.7014 44.9295 52.7485C45.9337 52.7957 47.4597 51.0513 47.9716 50.7119" fill="white"/>
<path d="M41.9562 50.4196C42.4484 50.8061 43.9351 52.7014 44.9295 52.7485C45.9337 52.7957 47.4597 51.0513 47.9716 50.7119" stroke="#1E1E1E" stroke-width="0.5" stroke-linecap="round"/>
<path d="M44.0582 50.4265C44.3733 50.4359 45.6138 50.4548 45.9288 50.4642" stroke="#1E1E1E" stroke-width="0.5" stroke-linecap="round"/>
<path d="M49.903 49.3741C51.3305 48.2803 56.1941 44.999 58.2911 42.5286C60.398 40.0488 61.7468 35.9283 62.5148 34.5328M50.8186 49.1195C52.1969 48.0635 56.0267 45.5271 57.9269 42.9435C59.827 40.3694 61.609 35.0514 62.2292 33.6465" stroke="#1E1E1E" stroke-linecap="round"/>
<path d="M44.7368 45.1234C44.2249 43.973 41.7832 41.4555 41.3894 39.0982C40.9858 36.7504 43.6046 33.1674 42.3346 31.027C41.0645 28.8866 35.1672 27.0008 33.7692 26.2653M44.1461 46.0003C43.5751 44.6708 41.3402 40.72 41.0251 38.3062C40.7101 35.8924 43.4668 33.4314 42.2558 31.5173C41.0547 29.6032 35.2755 27.8494 33.779 26.8311" stroke="#1E1E1E" stroke-linecap="round"/>
<path d="M39.4182 50.6557C38.1973 49.6562 35.677 44.8852 32.0539 44.0083C28.4308 43.1408 20.0525 45.1303 17.6896 45.4226M38.8274 50.3257C37.5672 49.4488 35.4899 45.564 31.8964 44.5929C28.293 43.6311 19.5701 44.4608 17.2466 44.5174" stroke="#1E1E1E" stroke-linecap="round"/>
<path d="M41.5442 53.8692C39.772 54.6423 33.3529 56.2453 30.0843 59.3474C26.8058 62.459 23.1631 70.4831 21.8832 72.5009M40.6975 52.7188C38.7088 53.1054 32.1813 54.5386 28.9225 57.5653C25.6539 60.6015 22.1195 68.3993 21.1152 70.8885" stroke="#1E1E1E" stroke-linecap="round"/>
<path d="M50.321 53.2144C51.8963 53.8462 57.0749 56.7692 60.5109 56.6655C63.9469 56.5618 69.1945 53.2333 70.9272 52.6016M51.2071 52.8656C52.6642 53.3747 56.8288 55.9677 60.0777 56.0243C63.3267 56.0809 68.8499 53.8651 70.7008 53.1767" stroke="#1E1E1E" stroke-linecap="round"/>
<path d="M46.1145 56.9371C46.3212 58.4175 47.4731 62.5568 47.1876 65.4893C46.9021 68.4217 44.8149 72.9948 44.3817 74.5128M45.4549 56.758C45.6222 58.3044 47.0892 63.3489 46.8726 66.1682C46.656 68.978 44.4703 72.4007 44.1553 73.6548" stroke="#1E1E1E" stroke-linecap="round"/>
<path fill-rule="evenodd" clip-rule="evenodd" d="M54.3618 55.8051L51.4347 53.8681L55.4658 52.2255L53.7234 56.1828" fill="#1E1E1E"/>
<path d="M54.1615 56.2168C53.5181 55.407 52.8952 54.5442 51.8318 53.4355M54.1615 56.2168C53.2313 55.2254 52.4562 54.1582 51.8318 53.4355M54.1615 56.2168C54.8416 54.5576 55.1882 53.7655 55.5674 52.8341M54.1615 56.2168C54.5523 55.3097 55.0463 54.1073 55.5674 52.8341M51.8318 53.4355C52.6939 53.2673 53.4003 53.0945 55.5674 52.8341M51.8318 53.4355C53.1305 53.2506 54.3358 53.0628 55.5674 52.8341" stroke="#1E1E1E" stroke-linecap="round"/>
<path fill-rule="evenodd" clip-rule="evenodd" d="M55.939 48.244L51.5258 47.4708L53.5655 44.8513L55.7113 47.4103" fill="#1E1E1E"/>
<path d="M55.815 47.6713C54.5985 47.5974 53.2537 47.6465 52.0931 47.762M55.815 47.6713C54.4739 47.6734 53.1525 47.7753 52.0931 47.762M55.815 47.6713C55.1984 46.8848 54.6051 45.7822 53.8562 44.551M55.815 47.6713C54.9278 46.2673 54.4139 45.407 53.8562 44.551M52.0931 47.762C52.5585 46.7067 53.0443 45.8401 53.8562 44.551M52.0931 47.762C52.6492 46.8079 53.2406 45.7315 53.8562 44.551" stroke="#1E1E1E" stroke-linecap="round"/>
<path fill-rule="evenodd" clip-rule="evenodd" d="M44.037 40.8568L44.2443 44.2291L40.6232 41.8152L44.4093 40.0152" fill="#1E1E1E"/>
<path d="M44.4203 40.3617C44.1811 41.5801 44.1002 42.9063 43.9723 43.9014M44.4203 40.3617C44.3925 41.0865 44.2157 41.7926 43.9723 43.9014M44.4203 40.3617C43.0428 41.0147 41.9116 41.4793 40.9118 41.7636M44.4203 40.3617C43.1844 40.9023 42.0331 41.3239 40.9118 41.7636M43.9723 43.9014C42.8346 43.222 41.7435 42.3884 40.9118 41.7636M43.9723 43.9014C42.9784 43.1603 41.8918 42.521 40.9118 41.7636" stroke="#1E1E1E" stroke-linecap="round"/>
<path fill-rule="evenodd" clip-rule="evenodd" d="M36.7566 45.2376L37.3906 48.5929L33.7116 47.535L36.3758 45.1486" fill="#1E1E1E"/>
<path d="M36.3532 45.0704C36.8856 46.4783 37.3864 47.5341 37.6237 48.4219M36.3532 45.0704C36.7111 46.1003 37.0658 47.1641 37.6237 48.4219M36.3532 45.0704C35.2797 46.3247 34.6798 47.1091 33.8849 47.8394M36.3532 45.0704C35.4919 46.0889 34.7392 46.949 33.8849 47.8394M37.6237 48.4219C36.4592 48.2709 35.3773 48.1719 33.8849 47.8394M37.6237 48.4219C36.7908 48.3582 35.9585 48.1738 33.8849 47.8394" stroke="#1E1E1E" stroke-linecap="round"/>
<path fill-rule="evenodd" clip-rule="evenodd" d="M33.6591 54.9029L36.9294 55.1506L35.0681 58.0383L33.3318 55.3007" fill="#1E1E1E"/>
<path d="M33.6027 54.629C34.7102 54.6943 36.0712 54.9235 37.2874 55.1394M33.6027 54.629C34.5864 54.826 35.6122 54.9242 37.2874 55.1394M33.6027 54.629C34.4267 56.5781 34.7216 57.2982 34.9854 58.0205M33.6027 54.629C34.2607 56.1029 34.6443 57.0736 34.9854 58.0205M37.2874 55.1394C36.8597 55.8436 36.1923 56.4397 34.9854 58.0205M37.2874 55.1394C36.6285 55.9981 35.8712 56.876 34.9854 58.0205" stroke="#1E1E1E" stroke-linecap="round"/>
<path fill-rule="evenodd" clip-rule="evenodd" d="M44.9237 61.9129L46.2906 58.1392L49.3736 61.3446L44.4695 61.4714" fill="#1E1E1E"/>
<path d="M44.9929 61.5726C45.245 60.7642 45.4877 60.1982 46.2463 58.2151M44.9929 61.5726C45.4531 60.3683 45.8669 59.1345 46.2463 58.2151M44.9929 61.5726C47.0565 61.1656 47.9388 61.0631 48.738 60.9476M44.9929 61.5726C47.0913 61.2359 47.9523 61.0316 48.738 60.9476M46.2463 58.2151C46.863 58.9523 47.6981 59.8687 48.738 60.9476M46.2463 58.2151C46.7799 58.8433 47.2651 59.3847 48.738 60.9476" stroke="#1E1E1E" stroke-linecap="round"/>
<path d="M27.2581 21.2224C27.8488 21.0433 30.2018 20.3361 30.7925 20.1664" stroke="#1E1E1E" stroke-linecap="round"/>
<path d="M30.788 20.1431C31.4181 20.3223 33.9188 21.0295 34.5489 21.1992" stroke="#1E1E1E" stroke-linecap="round"/>
<path d="M34.4923 21.2031C34.4923 21.9292 35.0535 24.3618 34.4726 25.5782C33.8917 26.7945 31.5683 28.0392 30.9775 28.5295" stroke="#1E1E1E" stroke-linecap="round"/>
<path d="M27.3205 21.2331C27.3205 21.9591 26.7593 24.3918 27.3402 25.6082C27.921 26.8245 30.2445 28.0691 30.8352 28.5594" stroke="#1E1E1E" stroke-linecap="round"/>
<path d="M59.582 26.5346C60.1727 26.3554 62.5258 25.6482 63.1165 25.4785" stroke="#1E1E1E" stroke-linecap="round"/>
<path d="M63.1118 25.4552C63.7419 25.6344 66.2426 26.3415 66.8727 26.5113" stroke="#1E1E1E" stroke-linecap="round"/>
<path d="M66.8162 26.5153C66.8162 27.2413 67.3773 29.674 66.7965 30.8903C66.2156 32.1067 63.8921 33.3513 63.3014 33.8416" stroke="#1E1E1E" stroke-linecap="round"/>
<path d="M59.6443 26.5451C59.6443 27.2711 59.0831 29.7038 59.664 30.9202C60.2449 32.1365 62.5684 33.3811 63.1591 33.8715" stroke="#1E1E1E" stroke-linecap="round"/>
<path d="M70.9513 48.3114C71.542 48.1322 73.895 47.425 74.4858 47.2553" stroke="#1E1E1E" stroke-linecap="round"/>
<path d="M74.481 47.232C75.1111 47.4111 77.6118 48.1183 78.2419 48.288" stroke="#1E1E1E" stroke-linecap="round"/>
<path d="M78.1853 48.2921C78.1853 49.0181 78.7465 51.4508 78.1656 52.6671C77.5847 53.8835 75.2612 55.1281 74.6705 55.6184" stroke="#1E1E1E" stroke-linecap="round"/>
<path d="M71.0135 48.322C71.0135 49.048 70.4523 51.4807 71.0331 52.697C71.614 53.9134 73.9375 55.158 74.5282 55.6483" stroke="#1E1E1E" stroke-linecap="round"/>
<path d="M38.1471 75.461C38.7304 75.261 41.0545 74.4708 41.6382 74.2803" stroke="#1E1E1E" stroke-linecap="round"/>
<path d="M41.6327 74.2572C42.2693 74.4139 44.7956 75.0318 45.4319 75.1791" stroke="#1E1E1E" stroke-linecap="round"/>
<path d="M45.3753 75.1807C45.4034 75.9062 46.0583 78.3173 45.5249 79.5535C44.9914 80.7896 42.7177 82.1158 42.1464 82.6267" stroke="#1E1E1E" stroke-linecap="round"/>
<path d="M38.2097 75.4738C38.2378 76.1993 37.7711 78.6502 38.3986 79.8451C39.0262 81.04 41.3962 82.2014 42.0055 82.6704" stroke="#1E1E1E" stroke-linecap="round"/>
<path d="M14.207 69.5763C14.8173 69.474 17.2477 69.0732 17.8568 68.9803" stroke="#1E1E1E" stroke-linecap="round"/>
<path d="M17.8553 68.9566C18.4549 69.2145 20.8351 70.2342 21.436 70.4828" stroke="#1E1E1E" stroke-linecap="round"/>
<path d="M21.3783 70.4951C21.2773 71.2147 21.4953 73.6973 20.7506 74.8288C20.0058 75.9602 17.53 76.8975 16.8763 77.3081" stroke="#1E1E1E" stroke-linecap="round"/>
<path d="M14.2682 69.5791C14.1673 70.2987 13.273 72.6382 13.6796 73.9177C14.0862 75.1973 16.216 76.7271 16.7333 77.2884" stroke="#1E1E1E" stroke-linecap="round"/>
<path d="M10.6339 42.357C11.2246 42.1778 13.5777 41.4706 14.1684 41.3009" stroke="#1E1E1E" stroke-linecap="round"/>
<path d="M14.1637 41.2776C14.7938 41.4568 17.2945 42.164 17.9246 42.3337" stroke="#1E1E1E" stroke-linecap="round"/>
<path d="M17.8679 42.3376C17.8679 43.0637 18.4291 45.4964 17.8482 46.7127C17.2674 47.9291 14.9439 49.1737 14.3531 49.664" stroke="#1E1E1E" stroke-linecap="round"/>
<path d="M10.6962 42.3675C10.6962 43.0935 10.135 45.5262 10.7159 46.7426C11.2968 47.9589 13.6202 49.2035 14.211 49.6938" stroke="#1E1E1E" stroke-linecap="round"/>
</svg>
