<svg width="84" height="118" viewBox="0 0 84 118" fill="none" xmlns="http://www.w3.org/2000/svg">
<path d="M22.372 2.66456C27.7105 -0.278715 41.189 -0.44637 61.9456 2.66456C73.2986 4.16415 79.597 7.72216 81.7325 21.4792C83.7993 49.4404 78.9114 76.5725 81.7325 97.4363C81.4386 110.169 75.0128 117.9 61.9456 116.251C55.3337 118.635 47.3602 116.605 22.372 116.251C9.85336 119.371 0.0383009 106.778 2.58512 97.4363C4.76951 74.5607 -0.588609 44.4666 2.58512 21.4792C1.52721 11.4571 9.82397 4.02443 22.372 2.66456Z" fill="white"/>
<path d="M22.372 2.66455C32.7258 2.00324 38.6325 2.9626 61.9457 2.66455M22.372 2.66455C33.1862 3.47488 43.5792 2.71112 61.9457 2.66455M22.372 2.66455C8.99139 3.53077 1.00808 8.68151 2.58515 21.4792M22.372 2.66455C8.20775 1.60273 1.36072 10.06 2.58515 21.4792M61.9457 2.66455C74.3271 2.39444 81.0958 9.81783 81.7325 21.4792M61.9457 2.66455C75.532 1.43508 82.4672 9.67812 81.7325 21.4792M81.7325 21.4792C81.037 46.1431 83.4957 70.3972 81.7325 97.4363M81.7325 21.4792C82.6239 38.8967 82.5259 55.2244 81.7325 97.4363M81.7325 97.4363C82.8394 109.563 73.3672 115.04 61.9457 116.251M81.7325 97.4363C83.8581 107.989 73.8863 116.018 61.9457 116.251M61.9457 116.251C48.0165 115.031 30.7765 115.133 22.372 116.251M61.9457 116.251C51.3959 116.661 40.2781 115.832 22.372 116.251M22.372 116.251C10.9113 115.822 4.52466 109.964 2.58515 97.4363M22.372 116.251C8.07061 115.776 0.968903 110.02 2.58515 97.4363M2.58515 97.4363C0.0873113 71.7757 2.19334 49.0771 2.58515 21.4792M2.58515 97.4363C2.2619 79.432 3.32961 60.5615 2.58515 21.4792" stroke="#1E1E1E" stroke-width="2" stroke-linecap="round"/>
<path d="M11.2201 84.8366C21.9853 84.8366 65.0657 84.8366 75.831 84.8366" stroke="#1E1E1E" stroke-width="2" stroke-linecap="round"/>
<path d="M20.3511 91.3389V102.975H18.942V92.8162H18.8738L16.0329 94.7026V93.2707L18.942 91.3389H20.3511ZM27.4932 103.134C26.6371 103.134 25.9079 102.901 25.3057 102.436C24.7034 101.966 24.2432 101.286 23.925 100.396C23.6068 99.5018 23.4477 98.4223 23.4477 97.1571C23.4477 95.8995 23.6068 94.8257 23.925 93.9355C24.247 93.0416 24.7091 92.3598 25.3113 91.8901C25.9174 91.4166 26.6447 91.1798 27.4932 91.1798C28.3416 91.1798 29.067 91.4166 29.6693 91.8901C30.2754 92.3598 30.7375 93.0416 31.0557 93.9355C31.3776 94.8257 31.5386 95.8995 31.5386 97.1571C31.5386 98.4223 31.3795 99.5018 31.0613 100.396C30.7432 101.286 30.2829 101.966 29.6807 102.436C29.0784 102.901 28.3492 103.134 27.4932 103.134ZM27.4932 101.884C28.3416 101.884 29.0007 101.475 29.4704 100.657C29.9401 99.8389 30.175 98.6723 30.175 97.1571C30.175 96.1495 30.067 95.2916 29.8511 94.5832C29.639 93.8749 29.3322 93.3351 28.9307 92.9639C28.5329 92.5927 28.0538 92.4071 27.4932 92.4071C26.6523 92.4071 25.9951 92.8219 25.5216 93.6514C25.0481 94.4772 24.8113 95.6457 24.8113 97.1571C24.8113 98.1647 24.9174 99.0207 25.1295 99.7253C25.3416 100.43 25.6466 100.966 26.0443 101.333C26.4458 101.701 26.9288 101.884 27.4932 101.884Z" fill="#1E1E1E"/>
<path d="M10.5046 99.3639C10.4946 98.5256 10.4746 95.1632 10.4646 94.325" stroke="#1E1E1E" stroke-linecap="round"/>
<path d="M10.4333 94.5139C10.6782 94.1786 11.6676 92.856 11.9125 92.5207" stroke="#1E1E1E" stroke-linecap="round"/>
<path d="M13.3748 99.4237C13.3848 98.5855 13.4048 95.223 13.4148 94.3848" stroke="#1E1E1E" stroke-linecap="round"/>
<path d="M13.4452 94.5737C13.2003 94.2384 12.211 92.9158 11.9661 92.5805" stroke="#1E1E1E" stroke-linecap="round"/>
<path d="M8.33679 99.8766C9.49266 99.858 14.0965 99.7835 15.2426 99.7648" stroke="#1E1E1E" stroke-linecap="round"/>
<path d="M12.1165 99.9609C12.1263 100.548 12.1654 102.913 12.1752 103.5" stroke="#1E1E1E" stroke-linecap="round"/>
<path d="M63.7852 90.9913V102.628H62.3761V92.4685H62.3079L59.467 94.3549V92.9231L62.3761 90.9913H63.7852ZM70.9272 102.787C70.0712 102.787 69.342 102.554 68.7397 102.088C68.1375 101.618 67.6772 100.938 67.3591 100.048C67.0409 99.1541 66.8818 98.0746 66.8818 96.8094C66.8818 95.5519 67.0409 94.478 67.3591 93.5879C67.681 92.6939 68.1432 92.0121 68.7454 91.5424C69.3515 91.0689 70.0788 90.8322 70.9272 90.8322C71.7757 90.8322 72.5011 91.0689 73.1034 91.5424C73.7094 92.0121 74.1716 92.6939 74.4897 93.5879C74.8117 94.478 74.9727 95.5519 74.9727 96.8094C74.9727 98.0746 74.8136 99.1541 74.4954 100.048C74.1772 100.938 73.717 101.618 73.1147 102.088C72.5125 102.554 71.7833 102.787 70.9272 102.787ZM70.9272 101.537C71.7757 101.537 72.4348 101.128 72.9045 100.309C73.3742 99.4913 73.6091 98.3246 73.6091 96.8094C73.6091 95.8019 73.5011 94.9439 73.2852 94.2356C73.0731 93.5272 72.7663 92.9875 72.3647 92.6163C71.967 92.245 71.4879 92.0594 70.9272 92.0594C70.0863 92.0594 69.4291 92.4742 68.9557 93.3038C68.4822 94.1295 68.2454 95.2981 68.2454 96.8094C68.2454 97.817 68.3515 98.6731 68.5636 99.3776C68.7757 100.082 69.0807 100.618 69.4784 100.986C69.8799 101.353 70.3629 101.537 70.9272 101.537Z" fill="#1E1E1E"/>
<path d="M52.6807 95.3794C53.0333 95.0348 54.4438 93.6376 54.7965 93.2837" stroke="#1E1E1E" stroke-linecap="round"/>
<path d="M54.7921 93.2462C55.1839 93.5536 56.7316 94.7831 57.1234 95.0904" stroke="#1E1E1E" stroke-linecap="round"/>
<path d="M57.2114 95.3375C56.5355 96.3248 53.8418 100.283 53.1659 101.28" stroke="#1E1E1E" stroke-linecap="round"/>
<path d="M52.7467 95.3794C52.394 95.0348 50.9835 93.6376 50.6309 93.2837" stroke="#1E1E1E" stroke-linecap="round"/>
<path d="M50.6353 93.2462C50.2435 93.5536 48.6958 94.7831 48.304 95.0904" stroke="#1E1E1E" stroke-linecap="round"/>
<path d="M48.2159 95.3375C48.8918 96.3248 51.5856 100.283 52.2615 101.28" stroke="#1E1E1E" stroke-linecap="round"/>
<path d="M23.6723 2.55914C30.9601 2.55914 38.2577 2.55914 59.3179 2.55914C61.7472 2.55914 62.9717 3.7141 62.9717 6.03333C62.9717 8.38982 62.9717 10.7556 62.9717 12.9724C62.9717 15.2823 61.7472 16.4373 59.3179 16.4373C47.3479 16.4373 35.3778 16.4373 23.6723 16.4373C21.2332 16.4373 20.0186 15.2823 20.0186 12.9724C20.0186 11.0257 20.0186 9.08838 20.0186 6.03333C20.0186 3.7141 21.2332 2.55914 23.6723 2.55914Z" fill="white"/>
<path d="M23.6723 2.55914C36.8863 2.55914 50.1102 2.55914 59.3179 2.55914M23.6723 2.55914C32.0572 2.55914 40.4519 2.55914 59.3179 2.55914M23.6723 2.55914C21.2332 2.55914 20.0186 3.7141 20.0186 6.03333M59.3179 2.55914C61.7472 2.55914 62.9717 3.7141 62.9717 6.03333M62.9717 6.03333C62.9717 7.98931 62.9717 9.9546 62.9717 12.9724M62.9717 6.03333C62.9717 8.11039 62.9717 10.1875 62.9717 12.9724M62.9717 12.9724C62.9717 15.2823 61.7472 16.4373 59.3179 16.4373M59.3179 16.4373C50.8253 16.4373 42.3424 16.4373 23.6723 16.4373M59.3179 16.4373C46.9561 16.4373 34.604 16.4373 23.6723 16.4373M23.6723 16.4373C21.2332 16.4373 20.0186 15.2823 20.0186 12.9724M20.0186 12.9724C20.0186 11.1375 20.0186 9.31192 20.0186 6.03333M20.0186 12.9724C20.0186 10.2061 20.0186 7.44909 20.0186 6.03333" stroke="#1E1E1E" stroke-width="2" stroke-linecap="round"/>
<path d="M30.6064 7.20331C30.8245 7.20331 31.0492 7.2326 31.2803 7.2912C31.5114 7.34654 31.723 7.41978 31.915 7.51093C32.1071 7.59882 32.265 7.6981 32.3887 7.80878C32.5124 7.91945 32.5742 8.02688 32.5742 8.13104C32.5742 8.18313 32.5514 8.24172 32.5059 8.30682C32.4603 8.36867 32.4049 8.42889 32.3398 8.48749C32.2747 8.54283 32.2031 8.59003 32.125 8.62909C32.0501 8.6649 31.9834 8.6828 31.9248 8.6828C31.8467 8.6828 31.7588 8.65025 31.6611 8.58514C31.5667 8.52004 31.4609 8.44843 31.3438 8.3703C31.2298 8.28892 31.1045 8.21568 30.9678 8.15057C30.8311 8.08547 30.6829 8.05292 30.5234 8.05292C30.4193 8.05292 30.333 8.07896 30.2646 8.13104C30.1995 8.17987 30.167 8.24986 30.167 8.341C30.167 8.42238 30.2061 8.50539 30.2842 8.59003C30.3623 8.67141 30.4648 8.75604 30.5918 8.84393C30.722 8.93182 30.8685 9.0246 31.0312 9.12225C31.194 9.21991 31.36 9.32408 31.5293 9.43475C31.7018 9.54543 31.8695 9.66587 32.0322 9.79608C32.195 9.92629 32.3398 10.0679 32.4668 10.2209C32.597 10.3739 32.7012 10.5415 32.7793 10.7238C32.8574 10.9029 32.8965 11.0982 32.8965 11.3098C32.8965 11.492 32.8639 11.6581 32.7988 11.8078C32.7337 11.9575 32.641 12.0861 32.5205 12.1935C32.4001 12.301 32.2568 12.384 32.0908 12.4426C31.9248 12.5012 31.7425 12.5305 31.5439 12.5305C31.2933 12.5305 31.0622 12.4914 30.8506 12.4133C30.639 12.3384 30.4567 12.2342 30.3037 12.1008C30.1507 11.9673 30.0303 11.8078 29.9424 11.6223C29.8577 11.4367 29.8154 11.2333 29.8154 11.0119C29.8154 10.7254 29.8659 10.5171 29.9668 10.3869C30.071 10.2567 30.2337 10.1916 30.4551 10.1916C30.5918 10.1916 30.7008 10.2176 30.7822 10.2697C30.8636 10.3218 30.9043 10.3853 30.9043 10.4601C30.9043 10.4992 30.8978 10.5399 30.8848 10.5822C30.8717 10.6213 30.8571 10.6636 30.8408 10.7092C30.8278 10.7515 30.8148 10.7971 30.8018 10.8459C30.792 10.8947 30.7871 10.9435 30.7871 10.9924C30.7871 11.077 30.8066 11.1584 30.8457 11.2365C30.8848 11.3146 30.9368 11.383 31.002 11.4416C31.0703 11.5034 31.1484 11.5523 31.2363 11.5881C31.3242 11.6239 31.417 11.6418 31.5146 11.6418C31.7751 11.6418 31.9053 11.5344 31.9053 11.3195C31.9053 11.1502 31.8385 10.9907 31.7051 10.841C31.5716 10.688 31.404 10.5399 31.2021 10.3967C31.0003 10.2502 30.7822 10.1037 30.5479 9.95721C30.3167 9.81073 30.1003 9.65774 29.8984 9.49823C29.6966 9.33872 29.529 9.16945 29.3955 8.99042C29.262 8.80813 29.1953 8.61119 29.1953 8.3996C29.1953 8.22382 29.2311 8.06268 29.3027 7.9162C29.3776 7.76971 29.4785 7.64439 29.6055 7.54022C29.7324 7.4328 29.8805 7.34979 30.0498 7.2912C30.2223 7.2326 30.4079 7.20331 30.6064 7.20331ZM36.1777 9.35175C36.1777 8.83742 36.2396 8.44191 36.3633 8.16522C36.487 7.88853 36.6644 7.75018 36.8955 7.75018C37.2633 7.75018 37.4473 8.06757 37.4473 8.70233C37.4473 8.92694 37.4342 9.13853 37.4082 9.3371C37.3854 9.53566 37.3512 9.72772 37.3057 9.91327C37.2992 9.93931 37.2943 9.96372 37.291 9.98651C37.2878 10.0093 37.2861 10.0305 37.2861 10.05C37.2861 10.1183 37.2992 10.1786 37.3252 10.2307C37.488 10.6441 37.7891 10.8508 38.2285 10.8508C38.3848 10.8508 38.5312 10.8166 38.668 10.7482C38.8047 10.6799 38.9235 10.5871 39.0244 10.4699C39.1253 10.3495 39.2035 10.2095 39.2588 10.05C39.3174 9.89048 39.3467 9.71796 39.3467 9.53241C39.3467 9.32408 39.3223 9.15155 39.2734 9.01483C39.2246 8.87486 39.1709 8.75604 39.1123 8.65839C39.0537 8.55747 39 8.46633 38.9512 8.38495C38.9023 8.30031 38.8779 8.20591 38.8779 8.10175C38.8779 8.05292 38.8991 8.00246 38.9414 7.95038C38.987 7.89504 39.0423 7.84458 39.1074 7.79901C39.1758 7.75344 39.249 7.716 39.3271 7.68671C39.4085 7.65741 39.485 7.64276 39.5566 7.64276C39.651 7.64276 39.7438 7.69484 39.835 7.79901C39.9294 7.90318 40.0124 8.0399 40.084 8.20917C40.1589 8.37518 40.2174 8.56561 40.2598 8.78046C40.3053 8.9953 40.3281 9.21177 40.3281 9.42987C40.3281 9.74563 40.2695 10.0435 40.1523 10.3234C40.0352 10.6034 39.8757 10.8491 39.6738 11.0607C39.472 11.2723 39.236 11.44 38.9658 11.5637C38.6989 11.6874 38.4157 11.7492 38.1162 11.7492C37.8623 11.7492 37.6361 11.7036 37.4375 11.6125C37.2422 11.5246 37.0615 11.3683 36.8955 11.1437C36.8695 11.1014 36.8434 11.0721 36.8174 11.0558C36.7913 11.0396 36.7653 11.0314 36.7393 11.0314C36.7067 11.0314 36.6774 11.0396 36.6514 11.0558C36.6253 11.0721 36.5977 11.1014 36.5684 11.1437C36.347 11.4335 36.1094 11.6402 35.8555 11.7639C35.6048 11.8876 35.3281 11.9494 35.0254 11.9494C34.6901 11.9494 34.3874 11.8566 34.1172 11.6711C33.8503 11.4888 33.6224 11.2284 33.4336 10.8898C33.2448 10.5513 33.0999 10.1411 32.999 9.65936C32.8981 9.17434 32.8477 8.63234 32.8477 8.03339C32.8477 7.78925 32.8574 7.58742 32.877 7.42792C32.8965 7.26516 32.9323 7.1382 32.9844 7.04706C33.0365 6.95266 33.1048 6.88755 33.1895 6.85175C33.2741 6.81268 33.3831 6.79315 33.5166 6.79315C33.6566 6.79315 33.7575 6.82082 33.8193 6.87616C33.8844 6.92824 33.917 7.01939 33.917 7.1496C33.917 7.25051 33.9072 7.36444 33.8877 7.49139C33.8682 7.61509 33.8584 7.72251 33.8584 7.81366C33.8584 8.28566 33.891 8.72024 33.9561 9.11737C34.0244 9.51451 34.1172 9.8563 34.2344 10.1428C34.3548 10.4292 34.4964 10.6522 34.6592 10.8117C34.8252 10.9712 35.0075 11.051 35.2061 11.051C35.6488 11.051 35.9759 10.8247 36.1875 10.3723C36.207 10.3364 36.2201 10.3039 36.2266 10.2746C36.2331 10.242 36.2363 10.2079 36.2363 10.1721C36.2363 10.1525 36.2363 10.133 36.2363 10.1135C36.2363 10.0907 36.2331 10.0663 36.2266 10.0402C36.2103 9.91652 36.1973 9.79934 36.1875 9.68866C36.181 9.57473 36.1777 9.46242 36.1777 9.35175ZM41.5586 6.46112C41.4642 6.46112 41.3747 6.4481 41.29 6.42206C41.2087 6.39276 41.137 6.3537 41.0752 6.30487C41.0166 6.25279 40.9694 6.19257 40.9336 6.12421C40.8978 6.05585 40.8799 5.98098 40.8799 5.8996C40.8799 5.76288 40.9336 5.6522 41.041 5.56757C41.1517 5.48293 41.2982 5.44061 41.4805 5.44061C41.5651 5.44061 41.6465 5.45689 41.7246 5.48944C41.8027 5.51874 41.8711 5.55943 41.9297 5.61151C41.9915 5.66359 42.0404 5.72544 42.0762 5.79706C42.112 5.86542 42.1299 5.93703 42.1299 6.0119C42.1299 6.15188 42.0778 6.26255 41.9736 6.34393C41.8727 6.42206 41.7344 6.46112 41.5586 6.46112ZM40.8896 7.95038C40.8896 7.83645 40.9385 7.74367 41.0361 7.67206C41.137 7.59719 41.2689 7.55975 41.4316 7.55975C41.7246 7.55975 41.8809 7.66066 41.9004 7.86249C41.9134 8.00246 41.9264 8.16034 41.9395 8.33612C41.9557 8.5119 41.9704 8.69908 41.9834 8.89764C41.9997 9.09296 42.0127 9.29641 42.0225 9.508C42.0355 9.71633 42.0469 9.92303 42.0566 10.1281C42.0664 10.3299 42.0745 10.5252 42.0811 10.7141C42.0876 10.9029 42.0908 11.0754 42.0908 11.2316C42.0908 11.3944 42.0322 11.5165 41.915 11.5978C41.8011 11.6792 41.6335 11.7199 41.4121 11.7199C41.3112 11.7199 41.2314 11.6955 41.1729 11.6467C41.1175 11.6011 41.0898 11.5327 41.0898 11.4416C41.0898 10.9924 41.0785 10.5724 41.0557 10.1818C41.0361 9.78794 41.0133 9.43801 40.9873 9.13202C40.9645 8.82603 40.9417 8.57212 40.9189 8.3703C40.8994 8.16522 40.8896 8.02525 40.8896 7.95038ZM43.4482 5.80194C43.4482 5.62941 43.4971 5.50897 43.5947 5.44061C43.6924 5.369 43.8535 5.33319 44.0781 5.33319C44.1595 5.33319 44.2279 5.34133 44.2832 5.3576C44.3418 5.37063 44.3906 5.39667 44.4297 5.43573C44.472 5.47479 44.5046 5.52688 44.5273 5.59198C44.5534 5.65383 44.5745 5.73358 44.5908 5.83124C44.6299 6.13397 44.6722 6.44647 44.7178 6.76874C44.7666 7.091 44.8171 7.4149 44.8691 7.74042C44.8887 7.8869 44.9652 7.96014 45.0986 7.96014C45.1344 7.96014 45.193 7.95689 45.2744 7.95038C45.359 7.94061 45.4583 7.93085 45.5723 7.92108C45.6862 7.90806 45.8083 7.89504 45.9385 7.88202C46.0719 7.869 46.2038 7.8576 46.334 7.84784C46.4674 7.83482 46.5928 7.82505 46.71 7.81854C46.8304 7.80878 46.9362 7.80389 47.0273 7.80389C47.099 7.80389 47.1559 7.81854 47.1982 7.84784C47.2406 7.87388 47.2731 7.90969 47.2959 7.95526C47.3219 7.99758 47.3382 8.04641 47.3447 8.10175C47.3545 8.15383 47.3594 8.20754 47.3594 8.26288C47.3594 8.31171 47.3496 8.36216 47.3301 8.41425C47.3138 8.46633 47.2894 8.51353 47.2568 8.55585C47.2275 8.59491 47.1901 8.62746 47.1445 8.6535C47.099 8.67955 47.0469 8.69257 46.9883 8.69257C46.7051 8.69257 46.4186 8.70233 46.1289 8.72186C45.8424 8.73814 45.556 8.76093 45.2695 8.79022C45.123 8.80975 45.0498 8.883 45.0498 9.00995C45.0498 9.01971 45.0514 9.03274 45.0547 9.04901C45.0579 9.06203 45.0596 9.07343 45.0596 9.08319C45.0986 9.36639 45.1344 9.63169 45.167 9.87909C45.2028 10.1265 45.2321 10.3478 45.2549 10.5432C45.2809 10.7352 45.3005 10.8963 45.3135 11.0266C45.3298 11.1535 45.3379 11.2381 45.3379 11.2805C45.3379 11.3976 45.3265 11.4953 45.3037 11.5734C45.2809 11.6548 45.2435 11.7199 45.1914 11.7687C45.1393 11.8208 45.0693 11.8566 44.9814 11.8762C44.8968 11.8989 44.7894 11.9103 44.6592 11.9103C44.5355 11.9103 44.4443 11.881 44.3857 11.8224C44.3271 11.7639 44.2946 11.6743 44.2881 11.5539C44.2686 11.1698 44.2376 10.784 44.1953 10.3967C44.153 10.006 44.1042 9.61705 44.0488 9.22968C44.0195 9.0897 43.9463 9.01971 43.8291 9.01971C43.8193 9.01971 43.8079 9.02134 43.7949 9.0246C43.7819 9.02785 43.7705 9.02948 43.7607 9.02948C43.5589 9.07505 43.3685 9.12063 43.1895 9.1662C43.0104 9.21177 42.8428 9.2606 42.6865 9.31268C42.5986 9.34198 42.5205 9.36314 42.4521 9.37616C42.3838 9.38593 42.3219 9.39081 42.2666 9.39081C42.1917 9.39081 42.1364 9.35826 42.1006 9.29315C42.0648 9.22479 42.0469 9.14016 42.0469 9.03925C42.0469 9.00344 42.0501 8.96275 42.0566 8.91718C42.0632 8.86835 42.0762 8.82115 42.0957 8.77557C42.112 8.72675 42.138 8.6828 42.1738 8.64374C42.2064 8.60142 42.252 8.56724 42.3105 8.5412C42.4473 8.48586 42.6296 8.42889 42.8574 8.3703C43.0853 8.30845 43.3424 8.25149 43.6289 8.1994C43.694 8.18313 43.7445 8.15708 43.7803 8.12128C43.8193 8.08221 43.8389 8.02525 43.8389 7.95038C43.8389 7.9341 43.8389 7.91783 43.8389 7.90155C43.8389 7.88202 43.8356 7.86249 43.8291 7.84296C43.777 7.54348 43.7266 7.27167 43.6777 7.02753C43.6322 6.78013 43.5915 6.56854 43.5557 6.39276C43.5231 6.21698 43.4971 6.07863 43.4775 5.97772C43.458 5.87681 43.4482 5.81822 43.4482 5.80194ZM48.7998 7.41327C48.9691 7.41327 49.1335 7.43768 49.293 7.48651C49.4525 7.53534 49.5924 7.60207 49.7129 7.68671C49.8366 7.76809 49.9359 7.86249 50.0107 7.96991C50.0856 8.07408 50.123 8.1815 50.123 8.29218C50.123 8.36379 50.1084 8.43378 50.0791 8.50214C50.0498 8.56724 50.0107 8.62583 49.9619 8.67792C49.9131 8.72675 49.8577 8.76744 49.7959 8.79999C49.734 8.82928 49.6689 8.84393 49.6006 8.84393C49.5257 8.84393 49.4574 8.81626 49.3955 8.76093C49.3337 8.70233 49.2669 8.63885 49.1953 8.5705C49.127 8.49888 49.0488 8.4354 48.9609 8.38007C48.8763 8.32147 48.7738 8.29218 48.6533 8.29218C48.5361 8.29218 48.4303 8.31984 48.3359 8.37518C48.2415 8.43052 48.1618 8.50865 48.0967 8.60956C48.0348 8.70721 47.986 8.8244 47.9502 8.96112C47.9176 9.09458 47.9014 9.24107 47.9014 9.40057C47.9014 9.8563 47.9876 10.2046 48.1602 10.4455C48.3327 10.6831 48.5801 10.8019 48.9023 10.8019C49.0553 10.8019 49.1855 10.7775 49.293 10.7287C49.4036 10.6799 49.4997 10.6262 49.5811 10.5676C49.6657 10.509 49.7422 10.4553 49.8105 10.4064C49.8789 10.3576 49.9489 10.3332 50.0205 10.3332C50.0596 10.3332 50.0986 10.3462 50.1377 10.3723C50.1768 10.395 50.2109 10.426 50.2402 10.465C50.2728 10.5008 50.2988 10.5415 50.3184 10.5871C50.3411 10.6327 50.3525 10.6782 50.3525 10.7238C50.3525 10.8312 50.2988 10.9419 50.1914 11.0558C50.0872 11.1698 49.9521 11.2739 49.7861 11.3683C49.6201 11.4595 49.4346 11.5344 49.2295 11.593C49.0277 11.6516 48.8307 11.6808 48.6387 11.6808C48.3815 11.6808 48.1455 11.6304 47.9307 11.5295C47.7158 11.4318 47.5303 11.2951 47.374 11.1193C47.2178 10.9403 47.0957 10.7271 47.0078 10.4797C46.9232 10.2323 46.8809 9.95884 46.8809 9.65936C46.8809 9.33384 46.9281 9.03436 47.0225 8.76093C47.1201 8.48749 47.2536 8.25149 47.4229 8.05292C47.5954 7.85109 47.7988 7.69484 48.0332 7.58417C48.2676 7.47024 48.5231 7.41327 48.7998 7.41327ZM50.3379 6.73944C50.3379 6.38788 50.5658 6.2121 51.0215 6.2121C51.0996 6.2121 51.168 6.23326 51.2266 6.27557C51.2852 6.31789 51.3193 6.37649 51.3291 6.45135C51.3584 6.64992 51.3844 6.84686 51.4072 7.04218C51.43 7.23749 51.4512 7.45721 51.4707 7.70135C51.4935 7.94224 51.5146 8.22219 51.5342 8.5412C51.557 8.85695 51.5814 9.23456 51.6074 9.67401C51.6074 9.71958 51.6139 9.75214 51.627 9.77167C51.6432 9.7912 51.6611 9.80096 51.6807 9.80096C51.71 9.80096 51.7393 9.77167 51.7686 9.71307C51.8792 9.46893 52.0029 9.25083 52.1396 9.05878C52.2764 8.86346 52.4229 8.69908 52.5791 8.56561C52.7354 8.42889 52.8997 8.32635 53.0723 8.258C53.248 8.18638 53.4271 8.15057 53.6094 8.15057C53.8503 8.15057 54.0684 8.21893 54.2637 8.35565C54.459 8.49237 54.625 8.68606 54.7617 8.93671C54.8984 9.18736 55.0042 9.49172 55.0791 9.84979C55.154 10.2046 55.1914 10.6017 55.1914 11.0412C55.1914 11.1616 55.1816 11.2609 55.1621 11.3391C55.1458 11.4139 55.1165 11.4741 55.0742 11.5197C55.0319 11.5653 54.9733 11.5962 54.8984 11.6125C54.8236 11.632 54.7308 11.6418 54.6201 11.6418C54.4671 11.6418 54.3564 11.6125 54.2881 11.5539C54.223 11.4953 54.1904 11.4042 54.1904 11.2805C54.1904 10.9745 54.1693 10.6864 54.127 10.4162C54.0879 10.1428 54.0326 9.9035 53.9609 9.69843C53.8893 9.49335 53.8047 9.33059 53.707 9.21014C53.6126 9.0897 53.5101 9.02948 53.3994 9.02948C53.1488 9.02948 52.8981 9.23293 52.6475 9.63983C52.4001 10.0467 52.1413 10.6603 51.8711 11.4807C51.8451 11.5555 51.8158 11.6174 51.7832 11.6662C51.7507 11.715 51.7116 11.7541 51.666 11.7834C51.6237 11.8127 51.5716 11.8322 51.5098 11.842C51.4479 11.855 51.3747 11.8615 51.29 11.8615C51.1175 11.8615 50.9938 11.829 50.9189 11.7639C50.8473 11.6988 50.8083 11.5913 50.8018 11.4416C50.7822 10.8752 50.7464 10.3348 50.6943 9.8205C50.6455 9.30292 50.5934 8.8358 50.5381 8.41913C50.486 7.99921 50.4388 7.64439 50.3965 7.35468C50.3574 7.06171 50.3379 6.85663 50.3379 6.73944Z" fill="#1E1E1E"/>
<path d="M30.7069 67.0298C29.8351 66.1729 25.4762 64.7199 24.7121 62.2702C23.9579 59.8113 27.4157 55.9925 26.1618 52.3227C24.908 48.6529 19.0797 42.5242 17.2088 40.2329M32.7248 66.2753C32.3232 65.4929 28.1209 66.1263 26.9945 63.4718C25.8582 60.8265 28.0132 54.5488 25.917 50.376C23.8305 46.2033 16.0333 40.3726 14.4661 38.4166" stroke="#1E1E1E" stroke-linecap="round"/>
<path d="M40.2459 58.9524C39.9912 57.2945 38.2966 52.3394 37.6893 49.1446C37.0722 45.9405 38.0224 41.8237 36.5922 39.7839C35.1523 37.7347 30.3917 37.4646 29.0791 36.8965M39.8737 58.4495C39.6092 56.8474 38.0028 52.7399 37.3661 49.6848C36.7392 46.6391 37.4444 42.4291 36.0927 40.1378C34.7409 37.8558 30.3721 36.5891 29.2848 35.9744" stroke="#1E1E1E" stroke-linecap="round"/>
<path d="M46.4353 59.1903C46.8075 56.7407 47.9438 48.1437 49.4327 43.9523C50.9216 39.7609 54.3696 35.7372 55.3492 34.0234M47.2385 58.9202C47.4932 56.3308 47.6597 47.3985 48.9821 43.0954C50.3045 38.8016 54.0856 34.6567 55.1827 33.1572" stroke="#1E1E1E" stroke-linecap="round"/>
<path d="M61.188 62.3739C61.8541 60.5856 64.685 55.528 65.6645 52.0631C66.644 48.5889 67.0065 43.2985 67.0652 41.566M60.5121 63.3426C61.0998 61.4052 64.3813 54.9878 65.4588 51.4111C66.5363 47.8252 66.9183 43.4475 66.9869 41.8641" stroke="#1E1E1E" stroke-linecap="round"/>
<path d="M61.3838 69.1322C63.1764 67.8655 72.678 65.1178 72.3057 61.6063C71.9335 58.0949 61.4034 50.3641 59.1798 48.0635M60.8059 68.7969C62.5005 67.586 72.198 65.5369 71.8845 62.1745C71.5711 58.8214 61.0801 50.9882 58.9349 48.6596" stroke="#1E1E1E" stroke-linecap="round"/>
<path d="M34.4726 58.9587C42.4951 61.6133 51.7225 62.0511 57.1198 58.9587C61.1947 59.1637 59.647 57.8317 61.0673 62.7217C60.7245 65.4973 61.1653 66.7454 61.0673 70.2382C58.4813 75.8174 57.5508 73.3119 57.1198 73.9918C47.7749 76.2179 43.2494 73.4516 34.4726 73.9918C31.7299 77.2238 32.6409 73.4702 30.5153 70.2382C29.7806 68.1518 31.9552 64.4355 30.5153 62.7217C32.1903 63.0849 31.3675 61.3991 34.4726 58.9587Z" fill="white"/>
<path d="M34.4726 58.9588C41.7702 60.1789 46.7268 57.9156 57.1197 58.9588M34.4726 58.9588C41.5352 59.9647 46.9129 58.3347 57.1197 58.9588M34.4726 58.9588C33.3755 58.9495 29.4965 59.9647 30.5153 62.7217M34.4726 58.9588C33.6792 60.1417 28.8108 58.3999 30.5153 62.7217M57.1197 58.9588C61.2338 60.0578 60.362 61.455 61.0673 62.7217M57.1197 58.9588C61.9881 60.8868 61.7334 61.6506 61.0673 62.7217M61.0673 62.7217C60.5384 64.8174 61.5767 67.593 61.0673 70.2382M61.0673 62.7217C61.0183 64.9478 61.0869 66.9038 61.0673 70.2382M61.0673 70.2382C62.517 71.6726 60.5775 75.361 57.1197 73.9918M61.0673 70.2382C61.5473 71.151 59.1278 73.3492 57.1197 73.9918M57.1197 73.9918C50.1552 73.2374 43.9448 72.8369 34.4726 73.9918M57.1197 73.9918C52.5942 73.6752 48.4018 75.0443 34.4726 73.9918M34.4726 73.9918C30.2214 74.1595 28.6247 72.8741 30.5153 70.2382M34.4726 73.9918C33.7576 73.8521 29.9177 73.4237 30.5153 70.2382M30.5153 70.2382C31.2695 68.5803 31.2107 66.4101 30.5153 62.7217M30.5153 70.2382C30.7112 67.742 30.6426 65.2645 30.5153 62.7217" stroke="#1E1E1E" stroke-linecap="round"/>
<path d="M27.6811 33.4141C28.6017 33.7329 30.1428 33.9205 31.1342 34.6848C31.6401 34.2418 31.0574 33.1185 31.7985 36.0978C31.4464 36.6274 31.4738 37.2567 30.9712 38.1304C30.0643 36.3585 28.1477 39.9577 29.4796 38.75C28.2779 38.6573 27.1866 37.5966 26.0265 37.4793C25.0128 37.9052 27.498 35.7736 25.3713 36.0696C25.7531 35.1315 26.107 34.7524 26.1986 34.037C25.537 32.3853 27.237 33.8599 27.6811 33.4141Z" fill="white"/>
<path d="M27.6812 33.414C28.882 33.8959 30.0878 34.3397 31.1343 34.6848M27.6812 33.414C29.0149 33.9049 30.445 34.3912 31.1343 34.6848M27.6812 33.414C26.9548 33.3665 26.0858 32.9468 26.1987 34.037M27.6812 33.414C27.1938 33.4244 25.9691 32.9238 26.1987 34.037M31.1343 34.6848C32.1041 35.3214 31.721 35.8495 31.7986 36.0978M31.1343 34.6848C32.17 34.7464 32.5022 35.9173 31.7986 36.0978M31.7986 36.0978C31.5463 36.6142 31.3445 37.2391 30.9712 38.1304M31.7986 36.0978C31.5148 36.8723 31.1966 37.654 30.9712 38.1304M30.9712 38.1304C30.7052 38.5518 30.6348 39.5247 29.4796 38.75M30.9712 38.1304C30.636 39.0058 31.075 38.598 29.4796 38.75M29.4796 38.75C28.5841 38.5503 28.1082 38.1454 26.0265 37.4792M29.4796 38.75C28.6772 38.4247 27.9358 38.1819 26.0265 37.4792M26.0265 37.4792C24.8343 37.2602 25.0234 36.9503 25.3714 36.0696M26.0265 37.4792C25.6514 37.6009 24.7959 36.1674 25.3714 36.0696M25.3714 36.0696C25.6121 35.3492 25.9633 34.5896 26.1987 34.037M25.3714 36.0696C25.6407 35.4596 25.8932 34.8135 26.1987 34.037" stroke="#1E1E1E" stroke-linecap="round"/>
<path d="M30.7244 33.6716C31.5884 34.1294 35.0701 36.1297 35.9153 36.5306M30.1657 34.1151C31.0215 34.49 34.9979 35.7137 35.879 36.0779" stroke="#1E1E1E" stroke-linecap="round"/>
<path d="M54.4866 31.691C55.3661 31.3029 55.8735 30.8507 57.1881 29.2833C57.9654 28.2331 58.899 30.5287 58.8152 29.3268C59.3864 30.056 59.728 30.4026 60.3827 30.917C62.0911 30.6071 62.2136 33.5235 60.3231 32.4637C59.5981 33.1992 58.1376 33.9647 57.6216 34.8714C56.1473 34.4109 54.4094 34.5683 56.0016 34.8215C55.5426 34.2605 54.8713 34.029 54.4341 33.2313C51.5368 33.0433 51.7437 32.4632 54.4866 31.691Z" fill="white"/>
<path d="M54.4865 31.6909C55.2611 30.924 55.8976 30.344 57.1881 29.2832M54.4865 31.6909C55.0793 31.1754 55.5934 30.73 57.1881 29.2832M54.4865 31.6909C53.5878 32.6451 54.1309 32.5696 54.4341 33.2313M54.4865 31.6909C53.0635 32.1677 53.3068 32.9594 54.4341 33.2313M57.1881 29.2832C58.0278 29.2498 57.9233 28.6535 58.8152 29.3267M57.1881 29.2832C57.5963 28.8938 58.6504 29.0778 58.8152 29.3267M58.8152 29.3267C59.1398 29.5608 59.4185 29.9252 60.3827 30.9169M58.8152 29.3267C59.1912 29.681 59.519 30.0271 60.3827 30.9169M60.3827 30.9169C61.0923 31.8547 61.0459 31.3854 60.3231 32.4636M60.3827 30.9169C61.5349 31.473 61.4919 32.3283 60.3231 32.4636M60.3231 32.4636C59.3542 33.442 58.2871 34.2527 57.6216 34.8714M60.3231 32.4636C59.3011 33.3745 58.2777 34.3248 57.6216 34.8714M57.6216 34.8714C56.8073 35.38 56.6795 35.6726 56.0016 34.8215M57.6216 34.8714C56.316 35.1541 56.3512 35.9525 56.0016 34.8215M56.0016 34.8215C55.576 34.4987 55.3005 34.0421 54.4341 33.2313M56.0016 34.8215C55.6814 34.4558 55.3527 34.136 54.4341 33.2313" stroke="#1E1E1E" stroke-linecap="round"/>
<path d="M54.7385 30.7709C53.989 31.4134 51.2329 34.2016 50.6201 34.901M55.5264 30.8347C54.8765 31.4012 52.0123 33.9027 51.2936 34.6582" stroke="#1E1E1E" stroke-linecap="round"/>
<path d="M68.6538 37.7272C68.4493 39.1325 69.0976 39.8563 69.0275 41.2299C69.8553 42.7136 68.329 41.419 68.004 42.4334C67.2392 42.6476 66.7077 42.4648 65.7235 42.6534C63.642 42.2456 64.5619 41.4547 64.4667 41.6699C64.0101 40.7122 64.1906 39.5433 64.093 38.1671C64.2954 37.2956 62.8915 35.7646 65.1175 36.9729C65.8195 37.0925 66.1651 36.8251 67.398 36.753C70.1429 36.2729 70.4806 37.8693 68.6538 37.7272Z" fill="white"/>
<path d="M68.6538 37.7271C68.8885 38.9122 69.0128 39.8926 69.0275 41.2299M68.6538 37.7271C68.8039 39.0421 68.8957 40.4562 69.0275 41.2299M68.6538 37.7271C68.2202 36.5238 67.7026 37.1167 67.3979 36.7529M68.6538 37.7271C69.1101 37.2057 68.1494 36.1374 67.3979 36.7529M69.0275 41.2299C69.4212 42.5213 68.7886 42.4981 68.0039 42.4334M69.0275 41.2299C68.9739 42.5738 68.9696 42.9019 68.0039 42.4334M68.0039 42.4334C67.3997 42.4916 66.7078 42.5584 65.7235 42.6533M68.0039 42.4334C67.4065 42.4629 66.8959 42.5683 65.7235 42.6533M65.7235 42.6533C64.4012 42.9026 65.1645 42.3047 64.4666 41.6699M65.7235 42.6533C64.3216 42.4328 64.6432 42.4018 64.4666 41.6699M64.4666 41.6699C64.2425 40.3995 64.2289 39.165 64.0929 38.1671M64.4666 41.6699C64.3101 40.6645 64.2734 39.582 64.0929 38.1671M64.0929 38.1671C64.6138 37.1432 63.9222 36.7512 65.1175 36.9729M64.0929 38.1671C63.9719 38.0477 64.1325 36.5998 65.1175 36.9729M65.1175 36.9729C65.9682 36.8253 66.8863 36.8491 67.3979 36.7529M65.1175 36.9729C65.6495 36.8841 66.2665 36.8527 67.3979 36.7529" stroke="#1E1E1E" stroke-linecap="round"/>
<path d="M69.2587 39.9831C69.2911 40.8412 69.0143 44.7063 69.0936 45.6349M69.6697 40.4209C69.8163 41.3336 69.6291 45.2088 69.614 46.1745" stroke="#1E1E1E" stroke-linecap="round"/>
<path d="M56.9894 49.2411C56.5859 48.6298 55.7887 47.9364 54.0831 47.0596C53.5268 49.1577 52.2982 46.2182 53.886 45.5232C54.5654 44.8703 54.9065 43.9634 55.3063 43.8125C53.9956 42.0692 57.4562 42.5308 56.9237 43.6382C57.6925 43.9899 58.6718 44.6893 59.8299 45.8197C62.0187 46.8813 60.0892 44.3649 60.0193 47.3503C59.4832 47.921 59.2319 48.5393 58.599 49.061C56.5216 48.8425 59.429 49.1738 56.9894 49.2411Z" fill="white"/>
<path d="M56.9895 49.2411C56.0624 48.5689 55.3069 47.9306 54.0832 47.0596M56.9895 49.2411C56.0669 48.5486 55.2207 47.8541 54.0832 47.0596M56.9895 49.2411C57.7526 49.6597 57.7931 49.9868 58.5991 49.061M56.9895 49.2411C57.5378 48.8813 58.5405 49.6578 58.5991 49.061M54.0832 47.0596C53.1307 46.9141 53.8157 46.4197 53.8861 45.5232M54.0832 47.0596C53.8364 47.2065 53.4997 46.7402 53.8861 45.5232M53.8861 45.5232C54.3369 44.9953 54.7051 44.4766 55.3064 43.8125M53.8861 45.5232C54.3033 45.0057 54.6885 44.5116 55.3064 43.8125M55.3064 43.8125C55.7588 42.6213 56.6077 43.5077 56.9238 43.6382M55.3064 43.8125C55.8179 43.2115 56.1788 43.1976 56.9238 43.6382M56.9238 43.6382C57.6898 44.2488 58.7099 44.884 59.83 45.8197M56.9238 43.6382C58.0127 44.4912 59.1057 45.2641 59.83 45.8197M59.83 45.8197C60.0813 46.1033 60.2719 47.1364 60.0194 47.3503M59.83 45.8197C60.4374 47.1775 60.63 47.3815 60.0194 47.3503M60.0194 47.3503C59.614 47.7936 59.2255 48.2614 58.5991 49.061M60.0194 47.3503C59.6431 47.8036 59.3202 48.2376 58.5991 49.061" stroke="#1E1E1E" stroke-linecap="round"/>
<path d="M59.3665 44.7698C60.084 45.4389 62.8943 47.9163 63.5871 48.555M59.5773 45.1773C60.4684 45.7274 63.3188 47.7959 64.0277 48.3399" stroke="#1E1E1E" stroke-linecap="round"/>
<path d="M46.8487 66.4242C47.5148 66.685 48.0731 67.5978 48.7686 68.7528C47.8674 70.5132 48.6902 69.5445 48.7686 71.0813C48.1417 71.3887 47.6029 71.5936 46.8487 71.6868C46.8389 74.1178 46.1042 70.8019 44.3998 71.6868C43.1558 71.3514 42.6954 70.9882 41.9509 71.0813C40.8538 70.4293 42.6268 70.9975 41.9509 68.7528C42.284 68.2591 43.1852 67.4302 44.3998 66.4242C45.1149 64.0026 47.025 67.2625 46.8487 66.4242Z" fill="white"/>
<path d="M46.8486 66.4243C47.4168 67.0111 47.9261 67.7189 48.7685 68.7528M46.8486 66.4243C47.3286 67.0576 47.9359 67.7189 48.7685 68.7528M46.8486 66.4243C45.2814 65.1948 45.5066 64.8874 44.3998 66.4243M46.8486 66.4243C44.8993 65.1482 46.2805 65.4835 44.3998 66.4243M48.7685 68.7528C50.4142 70.0195 49.6893 69.5445 48.7685 71.0814M48.7685 68.7528C50.1301 70.3921 50.3456 69.6656 48.7685 71.0814M48.7685 71.0814C48.3277 71.1838 47.9947 71.3049 46.8486 71.6868M48.7685 71.0814C48.2004 71.2863 47.6812 71.4074 46.8486 71.6868M46.8486 71.6868C46.0062 72.6555 45.9572 72.7672 44.3998 71.6868M46.8486 71.6868C45.5752 72.2177 44.9679 73.0373 44.3998 71.6868M44.3998 71.6868C43.8806 71.5843 43.3321 71.4167 41.9509 71.0814M44.3998 71.6868C43.7533 71.5471 43.048 71.3701 41.9509 71.0814M41.9509 71.0814C40.6089 69.647 40.2563 70.2431 41.9509 68.7528M41.9509 71.0814C40.6775 70.5039 40.0702 69.7494 41.9509 68.7528M41.9509 68.7528C42.8423 67.84 43.7435 67.039 44.3998 66.4243M41.9509 68.7528C42.7443 68.0263 43.5182 67.2253 44.3998 66.4243" stroke="#1E1E1E" stroke-linecap="round"/>
<path d="M43.2897 68.2043C43.3093 68.5862 43.2995 70.3093 43.182 70.7936M43.0449 68.8376C43.0253 69.2475 43.0351 70.8309 43.084 71.1103" stroke="#1E1E1E" stroke-linecap="round"/>
<path d="M45.1243 65.8266C45.1439 66.786 45.3985 70.9494 45.4965 71.946M45.663 66.3761C45.6434 67.3728 45.2516 71.3313 45.2418 72.272" stroke="#1E1E1E" stroke-linecap="round"/>
<path d="M47.1768 67.0889C47.167 67.7875 47.3335 70.8332 47.3531 71.5504M47.7645 67.713C47.7156 68.3184 47.3335 70.6097 47.2356 71.1313" stroke="#1E1E1E" stroke-linecap="round"/>
<path d="M37.103 62.4964C37.103 62.4964 37.1357 62.5429 37.201 62.6361C37.2728 62.723 37.3251 62.8192 37.3577 62.9248C37.3969 63.0366 37.4132 63.1421 37.4067 63.2415C37.4067 63.3533 37.3838 63.4619 37.3381 63.5675C37.2989 63.673 37.2434 63.7693 37.1716 63.8562C37.0998 63.9432 37.0149 64.0177 36.9169 64.0798C36.8124 64.1419 36.7047 64.1853 36.5937 64.2102C36.4826 64.235 36.3716 64.2443 36.2606 64.2381C36.1431 64.2257 36.0288 64.1977 35.9178 64.1543C35.8133 64.1108 35.7153 64.0518 35.6239 63.9773C35.539 63.9028 35.4672 63.8159 35.4084 63.7165C35.3496 63.6234 35.3105 63.5209 35.2909 63.4091C35.2713 63.2974 35.268 63.1918 35.2811 63.0925C35.2941 62.9807 35.3268 62.8751 35.379 62.7758C35.4313 62.6764 35.4998 62.5864 35.5847 62.5057C35.6696 62.4249 35.7643 62.3597 35.8688 62.3101C35.9733 62.2604 36.0843 62.2294 36.2018 62.2169C36.3129 62.2045 36.4239 62.2076 36.5349 62.2262C36.6524 62.2449 36.7602 62.2821 36.8581 62.338C36.9626 62.3939 37.054 62.4622 37.1324 62.5429C37.2108 62.6299 37.2728 62.723 37.3185 62.8224C37.3642 62.9279 37.3936 63.0366 37.4067 63.1483C37.4132 63.2539 37.4034 63.3595 37.3773 63.465C37.3446 63.5706 37.2989 63.673 37.2402 63.7724C37.1749 63.8655 37.0965 63.9463 37.0051 64.0146C36.9136 64.0829 36.8124 64.1357 36.7014 64.1729C36.5904 64.2164 36.4761 64.2381 36.3586 64.2381C36.2476 64.2443 36.1365 64.2288 36.0255 64.1915C35.9145 64.1605 35.8133 64.1108 35.7219 64.0425C35.6239 63.9804 35.5749 63.9494 35.5749 63.9494C35.5749 63.9494 35.5488 63.9152 35.4966 63.8469C35.4378 63.7848 35.3921 63.7165 35.3594 63.642C35.3202 63.5675 35.2941 63.4868 35.2811 63.3998C35.268 63.3191 35.2615 63.2415 35.2615 63.167C35.268 63.08 35.2843 62.9993 35.3105 62.9248C35.3366 62.8441 35.3725 62.7665 35.4182 62.692C35.4639 62.6237 35.5194 62.5616 35.5847 62.5057C35.6435 62.4436 35.7088 62.3908 35.7806 62.3473C35.859 62.3039 35.9406 62.2697 36.0255 62.2449C36.1039 62.22 36.1888 62.2045 36.2802 62.1983C36.3586 62.1983 36.4402 62.2045 36.5251 62.2169C36.6165 62.2294 36.7014 62.2542 36.7798 62.2914C36.8581 62.3225 36.93 62.366 36.9953 62.4218C37.0671 62.4715 37.103 62.4964 37.103 62.4964Z" fill="#1E1E1E"/>
<path d="M34.3097 62.5386C34.3097 62.5386 34.3423 62.5852 34.4076 62.6783C34.4795 62.7652 34.5317 62.8615 34.5644 62.967C34.6036 63.0788 34.6199 63.1844 34.6133 63.2837C34.6133 63.3955 34.5905 63.5042 34.5448 63.6097C34.5056 63.7153 34.4501 63.8115 34.3783 63.8985C34.3064 63.9854 34.2215 64.0599 34.1236 64.122C34.0191 64.1841 33.9113 64.2276 33.8003 64.2524C33.6893 64.2772 33.5783 64.2866 33.4673 64.2803C33.3497 64.2679 33.2355 64.24 33.1244 64.1965C33.02 64.153 32.922 64.0941 32.8306 64.0195C32.7457 63.945 32.6738 63.8581 32.6151 63.7587C32.5563 63.6656 32.5171 63.5632 32.4975 63.4514C32.4779 63.3396 32.4747 63.2341 32.4877 63.1347C32.5008 63.0229 32.5334 62.9174 32.5857 62.818C32.6379 62.7187 32.7065 62.6286 32.7914 62.5479C32.8763 62.4672 32.971 62.402 33.0755 62.3523C33.1799 62.3026 33.291 62.2716 33.4085 62.2592C33.5195 62.2467 33.6305 62.2499 33.7415 62.2685C33.8591 62.2871 33.9668 62.3244 34.0648 62.3803C34.1693 62.4361 34.2607 62.5044 34.3391 62.5852C34.4174 62.6721 34.4795 62.7652 34.5252 62.8646C34.5709 62.9701 34.6003 63.0788 34.6133 63.1906C34.6199 63.2961 34.6101 63.4017 34.584 63.5073C34.5513 63.6128 34.5056 63.7153 34.4468 63.8146C34.3815 63.9078 34.3032 63.9885 34.2117 64.0568C34.1203 64.1251 34.0191 64.1779 33.9081 64.2151C33.7971 64.2586 33.6828 64.2803 33.5652 64.2803C33.4542 64.2866 33.3432 64.271 33.2322 64.2338C33.1212 64.2027 33.02 64.1531 32.9285 64.0847C32.8306 64.0227 32.7816 63.9916 32.7816 63.9916C32.7816 63.9916 32.7555 63.9575 32.7032 63.8891C32.6445 63.8271 32.5987 63.7587 32.5661 63.6842C32.5269 63.6097 32.5008 63.529 32.4877 63.4421C32.4747 63.3613 32.4681 63.2837 32.4681 63.2092C32.4747 63.1223 32.491 63.0416 32.5171 62.967C32.5432 62.8863 32.5792 62.8087 32.6249 62.7342C32.6706 62.6659 32.7261 62.6038 32.7914 62.5479C32.8502 62.4858 32.9155 62.433 32.9873 62.3896C33.0657 62.3461 33.1473 62.3119 33.2322 62.2871C33.3105 62.2623 33.3954 62.2467 33.4869 62.2405C33.5652 62.2405 33.6469 62.2467 33.7318 62.2592C33.8232 62.2716 33.9081 62.2964 33.9864 62.3337C34.0648 62.3647 34.1366 62.4082 34.2019 62.4641C34.2738 62.5138 34.3097 62.5386 34.3097 62.5386Z" fill="#1E1E1E"/>
<path d="M40.1625 62.4121C40.1625 62.4121 40.1951 62.4587 40.2604 62.5518C40.3323 62.6388 40.3845 62.735 40.4172 62.8406C40.4563 62.9524 40.4727 63.0579 40.4661 63.1573C40.4661 63.269 40.4433 63.3777 40.3976 63.4833C40.3584 63.5888 40.3029 63.6851 40.231 63.772C40.1592 63.8589 40.0743 63.9334 39.9764 63.9955C39.8719 64.0576 39.7641 64.1011 39.6531 64.1259C39.5421 64.1508 39.4311 64.1601 39.3201 64.1539C39.2025 64.1415 39.0882 64.1135 38.9772 64.0701C38.8727 64.0266 38.7748 63.9676 38.6834 63.8931C38.5985 63.8186 38.5266 63.7316 38.4679 63.6323C38.4091 63.5391 38.3699 63.4367 38.3503 63.3249C38.3307 63.2131 38.3275 63.1076 38.3405 63.0082C38.3536 62.8965 38.3862 62.7909 38.4385 62.6916C38.4907 62.5922 38.5593 62.5022 38.6442 62.4214C38.7291 62.3407 38.8238 62.2755 38.9282 62.2258C39.0327 62.1762 39.1437 62.1451 39.2613 62.1327C39.3723 62.1203 39.4833 62.1234 39.5943 62.142C39.7119 62.1606 39.8196 62.1979 39.9176 62.2538C40.0221 62.3097 40.1135 62.378 40.1919 62.4587C40.2702 62.5456 40.3323 62.6388 40.378 62.7381C40.4237 62.8437 40.4531 62.9524 40.4661 63.0641C40.4727 63.1697 40.4629 63.2752 40.4367 63.3808C40.4041 63.4864 40.3584 63.5888 40.2996 63.6882C40.2343 63.7813 40.1559 63.862 40.0645 63.9303C39.9731 63.9986 39.8719 64.0514 39.7609 64.0887C39.6498 64.1321 39.5356 64.1539 39.418 64.1539C39.307 64.1601 39.196 64.1446 39.085 64.1073C38.974 64.0763 38.8727 64.0266 38.7813 63.9583C38.6834 63.8962 38.6344 63.8651 38.6344 63.8651C38.6344 63.8651 38.6083 63.831 38.556 63.7627C38.4972 63.7006 38.4515 63.6323 38.4189 63.5578C38.3797 63.4833 38.3536 63.4025 38.3405 63.3156C38.3275 63.2349 38.3209 63.1573 38.3209 63.0827C38.3275 62.9958 38.3438 62.9151 38.3699 62.8406C38.396 62.7599 38.4319 62.6822 38.4777 62.6077C38.5234 62.5394 38.5789 62.4773 38.6442 62.4214C38.7029 62.3593 38.7682 62.3066 38.8401 62.2631C38.9184 62.2196 39.0001 62.1855 39.085 62.1606C39.1633 62.1358 39.2482 62.1203 39.3397 62.1141C39.418 62.1141 39.4996 62.1203 39.5845 62.1327C39.676 62.1451 39.7609 62.17 39.8392 62.2072C39.9176 62.2383 39.9894 62.2817 40.0547 62.3376C40.1266 62.3873 40.1625 62.4121 40.1625 62.4121Z" fill="#1E1E1E"/>
<path d="M49.5131 63.011C50.1101 62.677 52.0634 60.9249 53.4122 60.8116C54.761 60.6983 56.9116 62.0715 57.5857 62.3131M49.0571 62.847C49.587 62.5615 51.7474 61.1576 53.1478 61.1267C54.558 61.0955 56.7466 62.4304 57.4987 62.6604" stroke="#1E1E1E" stroke-linecap="round"/>
<path d="M49.4874 62.3315C50.1997 62.544 52.3536 64.0197 53.6775 64.0468C55.0013 64.074 56.7911 62.7274 57.4498 62.4848M49.0951 62.9392C49.7793 63.1897 52.1625 64.4818 53.5338 64.461C54.9052 64.4402 56.7629 63.0729 57.3133 62.8149" stroke="#1E1E1E" stroke-linecap="round"/>
<path d="M53.6893 61.9207C53.7252 62.1247 53.6376 62.7608 53.6628 62.9372M53.3763 61.6315C53.3849 61.9015 53.4112 63.0376 53.4696 63.3341" stroke="#1E1E1E" stroke-linecap="round"/>
<path d="M54.3885 45.4126C54.8 45.72 56.4554 46.9494 56.8766 47.2568" stroke="#1E1E1E" stroke-width="0.5" stroke-linecap="round"/>
<path d="M65.6785 37.3726C65.7079 37.9128 65.8156 40.083 65.845 40.6233" stroke="#1E1E1E" stroke-width="0.5" stroke-linecap="round"/>
<path d="M59.6955 30.9887C59.3232 31.324 57.8539 32.6559 57.4817 32.9913" stroke="#1E1E1E" stroke-width="0.5" stroke-linecap="round"/>
<path d="M25.8422 36.0272C26.3515 36.2042 28.3694 36.9121 28.869 37.089" stroke="#1E1E1E" stroke-width="0.5" stroke-linecap="round"/>
<path d="M16.227 36.3327C17.4053 37.1531 18.1646 37.6767 18.9285 38.7405C17.0023 39.7684 21.0462 40.896 18.9881 40.2872C18.5616 40.5836 18.1307 41.3613 17.4206 41.8774C18.0271 41.5754 16.1278 39.9337 15.7935 41.9209C14.9086 41.3748 13.9366 39.8957 13.0919 39.5132C13.0515 41.175 12.3344 38.6337 13.0395 37.9728C13.6134 37.5268 13.9818 37.3573 14.607 36.3826C14.503 36.992 14.7836 37.4974 16.227 36.3327Z" fill="white"/>
<path d="M16.2268 36.3327C17.1448 37.2401 18.2601 38.0427 18.9283 38.7404M16.2268 36.3327C16.8772 36.9123 17.5986 37.5424 18.9283 38.7404M16.2268 36.3327C15.1915 35.8439 15.6501 35.6783 14.6069 36.3825M16.2268 36.3327C15.9212 35.7029 15.932 36.0188 14.6069 36.3825M18.9283 38.7404C19.701 38.6375 18.9512 39.8203 18.9879 40.2871M18.9283 38.7404C20.0454 39.3913 19.1147 39.7362 18.9879 40.2871M18.9879 40.2871C18.5061 40.7895 17.9934 41.2007 17.4204 41.8773M18.9879 40.2871C18.4261 40.8842 17.8165 41.5027 17.4204 41.8773M17.4204 41.8773C17.0167 42.0281 16.0516 42.585 15.7933 41.9208M17.4204 41.8773C16.6603 42.553 16.7625 41.8909 15.7933 41.9208M15.7933 41.9208C15.1751 41.2677 14.5426 40.8061 13.0918 39.5131M15.7933 41.9208C15.226 41.3386 14.5721 40.8579 13.0918 39.5131M13.0918 39.5131C12.8385 38.7894 12.809 38.9419 13.0394 37.9727M13.0918 39.5131C12.8287 39.5212 13.0185 38.9882 13.0394 37.9727M13.0394 37.9727C13.4618 37.5577 13.962 36.9822 14.6069 36.3825M13.0394 37.9727C13.5226 37.5098 14.0236 36.9606 14.6069 36.3825" stroke="#1E1E1E" stroke-linecap="round"/>
<path d="M18.4252 37.6603C19.13 38.4162 21.9286 41.4337 22.625 42.1437M18.4382 38.4506C19.0685 39.2549 21.5923 41.734 22.236 42.3204" stroke="#1E1E1E" stroke-linecap="round"/>
<path d="M14.0367 37.7566C14.3992 38.1478 15.8489 39.7033 16.2015 40.0944" stroke="#1E1E1E" stroke-width="0.5" stroke-linecap="round"/>
<path d="M34.9768 58.0737C34.5556 57.0026 35.2804 52.5597 32.4887 52.2989C29.6872 52.0474 21.6452 56.6393 18.1972 56.5276C14.7394 56.4251 12.7803 52.5132 11.7811 51.6562M35.829 58.9213C35.3392 57.8967 34.7417 53.3235 31.9794 52.7926C29.2268 52.271 22.6247 56.0991 19.2942 55.7545C15.954 55.4099 13.2113 51.4141 11.9574 50.7155" stroke="#1E1E1E" stroke-linecap="round"/>
<path d="M10.9235 46.7795C11.8276 48.096 12.6736 48.518 13.625 49.1872C14.1048 49.8446 11.9797 50.1209 13.6846 50.734C12.9026 51.1732 12.494 51.792 12.1171 52.3242C11.1093 51.2218 12.2793 53.4262 10.49 52.3677C9.88828 51.5888 9.40633 51.2742 7.78846 49.96C7.51917 50.1923 8.85222 48.8399 7.73603 48.4196C7.97357 47.8654 8.23126 47.6993 9.30353 46.8294C7.26855 45.8838 8.9439 46.0365 10.9235 46.7795Z" fill="white"/>
<path d="M10.9235 46.7795C11.611 47.2262 12.1336 47.9218 13.6251 49.1872M10.9235 46.7795C11.7093 47.467 12.5861 48.1846 13.6251 49.1872M10.9235 46.7795C9.94313 46.2759 10.1294 46.8632 9.30361 46.8294M10.9235 46.7795C10.4005 46.275 9.67966 46.6794 9.30361 46.8294M13.6251 49.1872C14.4456 49.8802 14.5023 49.7137 13.6847 50.7339M13.6251 49.1872C13.768 49.1103 15.1246 50.281 13.6847 50.7339M13.6847 50.7339C13.0603 51.3264 12.4722 51.9639 12.1172 52.3241M13.6847 50.7339C13.3511 51.1132 12.9496 51.5341 12.1172 52.3241M12.1172 52.3241C11.0966 52.6784 10.9867 52.5039 10.4901 52.3676M12.1172 52.3241C11.3749 52.5051 10.4838 52.5918 10.4901 52.3676M10.4901 52.3676C9.8732 51.754 9.03881 51.0614 7.78855 49.9599M10.4901 52.3676C9.88124 51.7867 9.30859 51.2508 7.78855 49.9599M7.78855 49.9599C6.67457 49.4011 7.07468 48.7364 7.73611 48.4196M7.78855 49.9599C7.16625 48.7798 6.294 49.0109 7.73611 48.4196M7.73611 48.4196C8.31576 47.7362 8.95393 47.1432 9.30361 46.8294M7.73611 48.4196C8.33095 47.7752 8.95573 47.1959 9.30361 46.8294" stroke="#1E1E1E" stroke-linecap="round"/>
<path d="M12.9312 48.001C13.5646 48.6932 16.5467 51.8105 17.2386 52.5931M12.8316 48.7421C13.3753 49.4436 16.0541 52.2013 16.8009 52.7647" stroke="#1E1E1E" stroke-linecap="round"/>
<path d="M8.73328 48.2034C9.09571 48.5946 10.5454 50.1501 10.8981 50.5413" stroke="#1E1E1E" stroke-width="0.5" stroke-linecap="round"/>
</svg>
