<svg width="83" height="119" viewBox="0 0 83 119" fill="none" xmlns="http://www.w3.org/2000/svg">
<path d="M21.5471 2.11581C32.0931 0.82844 46.5728 3.81663 61.4776 2.11581C78.1121 4.07975 79.5749 11.2119 81.4429 21.0974C80.1481 44.6929 80.9389 73.2499 81.4429 97.7286C80.1185 111.749 77.1435 113.731 61.4776 116.71C50.8328 118.984 40.692 118.627 21.5471 116.71C11.258 113.572 -0.533372 109.898 1.58176 97.7286C2.6591 82.7877 -1.24501 64.4169 1.58176 21.0974C-0.681629 8.41169 8.82659 5.35772 21.5471 2.11581Z" fill="white"/>
<path d="M21.5471 2.11581C38.0234 0.612317 52.4339 1.48622 61.4776 2.11581M21.5471 2.11581C32.8838 1.81511 44.3193 2.68902 61.4776 2.11581M21.5471 2.11581C7.51205 1.42984 1.562 8.35531 1.58177 21.0974M21.5471 2.11581C9.58765 1.91848 -0.483949 7.02096 1.58177 21.0974M61.4776 2.11581C75.8289 3.25283 81.4528 7.35925 81.4429 21.0974M61.4776 2.11581C74.4056 2.91454 82.3621 8.46808 81.4429 21.0974M81.4429 21.0974C81.4627 47.2864 79.565 72.5545 81.4429 97.7287M81.4429 21.0974C81.0772 40.1448 81.6703 59.5681 81.4429 97.7287M81.4429 97.7287C81.8383 111.307 76.0859 115.038 61.4776 116.71M81.4429 97.7287C82.4906 111.777 74.3266 118.627 61.4776 116.71M61.4776 116.71C51.5741 116.062 43.2025 117.603 21.5471 116.71M61.4776 116.71C52.5031 117.622 43.4792 116.757 21.5471 116.71M21.5471 116.71C9.27137 117.387 1.63119 110.414 1.58177 97.7287M21.5471 116.71C7.59112 116.428 2.48119 108.497 1.58177 97.7287M1.58177 97.7287C3.92423 74.9037 3.88469 54.2965 1.58177 21.0974M1.58177 97.7287C2.25387 70.0456 1.69049 41.996 1.58177 21.0974" stroke="#1E1E1E" stroke-width="2" stroke-linecap="round"/>
<path d="M10.2947 85.0172C21.157 85.0172 64.626 85.0172 75.4883 85.0172" stroke="#1E1E1E" stroke-width="2" stroke-linecap="round"/>
<path d="M22.8592 2.00952C31.7645 2.00952 40.6599 2.00952 58.8264 2.00952C61.2776 2.00952 62.513 3.17473 62.513 5.51454C62.513 7.37512 62.513 9.24509 62.513 12.5152C62.513 14.8456 61.2776 16.0108 58.8264 16.0108C45.8391 16.0108 32.8517 16.0108 22.8592 16.0108C20.3981 16.0108 19.1725 14.8456 19.1725 12.5152C19.1725 10.3163 19.1725 8.12686 19.1725 5.51454C19.1725 3.17473 20.3981 2.00952 22.8592 2.00952Z" fill="white"/>
<path d="M22.8592 2.00952C31.0133 2.00952 39.1675 2.00952 58.8264 2.00952M22.8592 2.00952C32.4959 2.00952 42.1326 2.00952 58.8264 2.00952M22.8592 2.00952C20.3981 2.00952 19.1725 3.17473 19.1725 5.51454M58.8264 2.00952C61.2776 2.00952 62.513 3.17473 62.513 5.51454M62.513 5.51454C62.513 8.05169 62.513 10.5982 62.513 12.5152M62.513 5.51454C62.513 7.76039 62.513 10.0062 62.513 12.5152M62.513 12.5152C62.513 14.8456 61.2776 16.0108 58.8264 16.0108M58.8264 16.0108C49.3478 16.0108 39.8594 16.0108 22.8592 16.0108M58.8264 16.0108C44.5245 16.0108 30.2226 16.0108 22.8592 16.0108M22.8592 16.0108C20.3981 16.0108 19.1725 14.8456 19.1725 12.5152M19.1725 12.5152C19.1725 10.6452 19.1725 8.77525 19.1725 5.51454M19.1725 12.5152C19.1725 10.1284 19.1725 7.74159 19.1725 5.51454" stroke="#1E1E1E" stroke-width="2" stroke-linecap="round"/>
<path d="M12.8011 34.6524C12.7813 32.5945 12.722 24.3722 12.7121 22.3237" stroke="#1E1E1E" stroke-width="2" stroke-linecap="round"/>
<path d="M12.6284 22.7762C13.2313 21.9587 15.643 18.7074 16.2459 17.8992" stroke="#1E1E1E" stroke-width="2" stroke-linecap="round"/>
<path d="M19.8318 34.7989C19.8516 32.741 19.9109 24.5187 19.9208 22.4702" stroke="#1E1E1E" stroke-width="2" stroke-linecap="round"/>
<path d="M20.0046 22.9227C19.4016 22.1052 16.99 18.8538 16.3871 18.0457" stroke="#1E1E1E" stroke-width="2" stroke-linecap="round"/>
<path d="M7.49402 35.9078C10.3109 35.889 21.5982 35.8044 24.4151 35.7856" stroke="#1E1E1E" stroke-width="2" stroke-linecap="round"/>
<path d="M16.7503 36.1141C16.7701 37.5612 16.8689 43.3309 16.8986 44.778" stroke="#1E1E1E" stroke-width="2" stroke-linecap="round"/>
<path d="M27.6786 31.7777C32.3635 31.7308 51.2119 30.9978 55.798 30.9978M27.0856 31.3455C31.6914 31.3925 50.5695 31.4958 55.4422 31.4207" stroke="#1E1E1E" stroke-width="2" stroke-linecap="round"/>
<path d="M26.3651 31.8211C27.9168 32.9299 34.8256 34.612 36.8122 37.9384C38.7989 41.2743 35.043 49.318 38.2849 51.8082C41.5367 54.3077 53.0217 52.8324 56.2833 52.9264M28.1738 30.9284C29.5476 31.7553 34.282 32.7044 35.9326 36.388C37.5832 40.0621 34.7564 50.5584 38.0971 52.9922C41.4379 55.4166 52.8833 50.9625 55.9868 50.9437" stroke="#1E1E1E" stroke-width="2" stroke-linecap="round"/>
<path d="M27.8129 31.3218C29.4932 32.3837 35.6409 30.5795 37.074 37.0821C38.4973 43.5847 33.1304 64.5208 36.3624 70.3563C39.6043 76.1917 53.0858 71.9349 56.4858 72.1041M26.9827 30.3257C28.4554 31.5473 34.5932 31.1245 36.056 37.956C37.5188 44.7781 32.2409 65.3947 35.7595 71.2866C39.2682 77.1784 53.7974 73.2505 57.148 73.2881" stroke="#1E1E1E" stroke-width="2" stroke-linecap="round"/>
<path fill-rule="evenodd" clip-rule="evenodd" d="M50.096 26.555C49.8686 28.6129 48.5739 35.8579 49.8489 36.7976C51.114 37.7372 57.3507 34.2604 57.7263 32.1931C58.1018 30.1258 53.4367 25.4462 52.0925 24.3843" fill="white"/>
<path d="M50.1849 26.1979C50.1948 28.0115 49.3349 36.3371 50.8372 37.0325C52.3395 37.7372 59.2088 32.3247 59.2088 30.3983C59.2187 28.4626 52.2407 26.1979 50.8767 25.4368M50.9855 25.9066C50.936 27.5417 49.2953 35.4256 50.6099 36.2431C51.9244 37.0513 58.8036 32.5314 58.8925 30.7648C58.9815 29.0076 52.5372 26.4704 51.1436 25.6811" stroke="#1E1E1E" stroke-width="2" stroke-linecap="round"/>
<path fill-rule="evenodd" clip-rule="evenodd" d="M51.7087 47.8066C51.3331 49.6108 48.0121 57.241 49.3465 57.8518C50.6907 58.4532 59.3588 53.1534 59.7245 51.462C60.0902 49.7611 53.2901 48.549 51.5505 47.6656" fill="white"/>
<path d="M50.7499 46.4817C50.8685 48.3141 49.1487 56.5833 50.4929 57.3538C51.847 58.1244 58.9337 52.9185 58.8645 51.0955C58.8052 49.2632 51.6395 47.1019 50.1174 46.3971M50.3645 46.04C50.4831 47.9758 48.9016 57.0813 50.2656 57.9928C51.6296 58.9137 58.5581 53.3884 58.5384 51.5372C58.5285 49.6766 51.5209 47.5623 50.1767 46.8388" stroke="#1E1E1E" stroke-width="2" stroke-linecap="round"/>
<path fill-rule="evenodd" clip-rule="evenodd" d="M51.6941 66.488C51.4964 68.0291 48.7191 76.8997 49.7766 78.0368C50.8441 79.1738 57.7726 74.9264 58.0691 73.3007C58.3657 71.6751 52.7516 69.3917 51.5656 68.2922" fill="white"/>
<path d="M51.0516 67.2397C51.0121 68.9124 49.1342 77.1816 50.4191 77.9897C51.6941 78.7979 58.6325 73.8269 58.7215 72.0885C58.8203 70.3595 52.2674 68.2922 50.9627 67.578M50.6168 68.2076C50.4883 69.8991 48.4127 77.6984 49.9348 78.4126C51.4569 79.1267 59.5418 74.2216 59.7593 72.4926C59.9767 70.773 52.811 68.809 51.2394 68.0761" stroke="#1E1E1E" stroke-width="2" stroke-linecap="round"/>
<path d="M66.1953 22.1814C67.2627 21.9089 68.2709 21.9653 71.6314 22.1814C74.3198 20.9598 75.3576 21.2605 74.3494 24.7656C74.7547 29.1351 73.4203 31.5877 74.3494 34.1342C74.6262 35.2618 74.5076 35.196 71.6314 36.7183C70.2476 37.1694 69.3779 37.0096 66.1953 36.7183C64.1296 34.4161 65.0883 37.7332 63.4772 34.1342C63.8034 31.5313 63.7639 28.4021 63.4772 24.7656C64.347 22.4915 65.9087 22.2942 66.1953 22.1814Z" fill="white"/>
<path d="M66.1953 22.1814C68.1128 22.172 69.8128 22.3412 71.6314 22.1814M66.1953 22.1814C68.2709 22.2566 70.5047 22.2848 71.6314 22.1814M66.1953 22.1814C64.5941 22.1156 63.2895 22.7264 63.4773 24.7655M66.1953 22.1814C63.4278 22.3787 62.7261 23.3842 63.4773 24.7655M71.6314 22.1814C72.7285 21.3639 74.0134 23.4876 74.3495 24.7655M71.6314 22.1814C73.9047 22.858 74.0529 22.6419 74.3495 24.7655M74.3495 24.7655C74.3495 27.7537 74.4878 30.1123 74.3495 34.1342M74.3495 24.7655C74.3099 27.9229 74.2506 31.5689 74.3495 34.1342M74.3495 34.1342C75.2884 35.0081 73.5093 36.4928 71.6314 36.7183M74.3495 34.1342C73.2919 36.5022 72.6297 37.3103 71.6314 36.7183M71.6314 36.7183C69.7535 36.7653 67.6087 36.8687 66.1953 36.7183M71.6314 36.7183C69.8029 36.6995 68.2116 36.6056 66.1953 36.7183M66.1953 36.7183C64.2779 36.3988 63.2203 35.8444 63.4773 34.1342M66.1953 36.7183C63.5563 37.6862 63.1808 36.3424 63.4773 34.1342M63.4773 34.1342C63.0424 31.7004 63.8529 29.2854 63.4773 24.7655M63.4773 34.1342C63.5366 31.8696 63.5069 29.464 63.4773 24.7655" stroke="#1E1E1E" stroke-width="2" stroke-linecap="round"/>
<path d="M66.1953 44.8041C68.2808 44.3907 69.625 44.5316 71.6314 44.8041C72.2047 43.5544 74.0036 46.8996 74.3495 47.3883C73.114 49.6905 74.6163 52.3592 74.3495 56.7569C75.585 60.1774 72.3628 61.6339 71.6314 59.341C70.8605 59.5478 69.6646 59.9236 66.1953 59.341C64.693 58.5799 63.3587 57.5744 63.4773 56.7569C63.4773 53.9003 64.7325 48.9293 63.4773 47.3883C60.9075 47.2191 63.5069 42.8496 66.1953 44.8041Z" fill="white"/>
<path d="M66.1953 44.8042C67.3023 44.7008 68.3796 44.7196 71.6314 44.8042M66.1953 44.8042C67.9151 44.8888 69.8622 44.8136 71.6314 44.8042M66.1953 44.8042C64.2087 44.0148 62.4889 45.2176 63.4773 47.3883M66.1953 44.8042C64.3866 45.7909 64.0209 45.1143 63.4773 47.3883M71.6314 44.8042C73.7367 45.4526 73.6082 45.4808 74.3495 47.3883M71.6314 44.8042C73.5686 44.5411 74.8239 44.9921 74.3495 47.3883M74.3495 47.3883C74.3297 50.0664 74.6756 52.3217 74.3495 56.757M74.3495 47.3883C74.4977 50.245 74.1814 52.7915 74.3495 56.757M74.3495 56.757C74.557 59.0592 73.6181 60.0928 71.6314 59.3411M74.3495 56.757C74.7349 58.2323 74.1221 59.3881 71.6314 59.3411M71.6314 59.3411C70.5739 59.5384 69.3977 59.1907 66.1953 59.3411M71.6314 59.3411C69.6547 59.3317 67.7372 59.2471 66.1953 59.3411M66.1953 59.3411C63.5662 58.5706 62.8843 59.078 63.4773 56.757M66.1953 59.3411C64.5546 59.5102 64.0407 58.58 63.4773 56.757M63.4773 56.757C63.1412 53.8721 62.993 50.5269 63.4773 47.3883M63.4773 56.757C63.5662 54.6239 63.6453 52.4626 63.4773 47.3883" stroke="#1E1E1E" stroke-width="2" stroke-linecap="round"/>
<path d="M65.9902 66.0247C68.0163 65.6207 68.9948 65.724 71.4262 66.0247C73.5117 68.233 72.5827 68.3176 74.1443 68.6089C74.9943 71.7568 72.9879 75.2994 74.1443 77.9775C72.4344 77.9211 73.3338 80.665 71.4262 80.5616C69.1925 80.4677 68.3623 79.9696 65.9902 80.5616C63.3116 82.9296 63.2326 80.1576 63.2721 77.9775C63.7564 76.1545 64.2704 72.969 63.2721 68.6089C65.3181 68.1954 62.9657 68.2424 65.9902 66.0247Z" fill="white"/>
<path d="M65.9901 66.0247C66.9785 66.2126 68.3326 66.0904 71.4262 66.0247M65.9901 66.0247C67.9175 65.9025 69.6966 66.0528 71.4262 66.0247M65.9901 66.0247C63.7465 65.7146 63.3314 66.4475 63.2721 68.6088M65.9901 66.0247C63.0447 66.4005 62.8273 66.4005 63.2721 68.6088M71.4262 66.0247C72.2861 65.5642 73.5018 67.4342 74.1443 68.6088M71.4262 66.0247C73.739 66.5415 74.4902 67.7349 74.1443 68.6088M74.1443 68.6088C74.0158 71.4372 74.3321 74.8013 74.1443 77.9774M74.1443 68.6088C74.1443 71.644 74.2332 74.1153 74.1443 77.9774M74.1443 77.9774C73.4425 79.3964 72.7605 80.0729 71.4262 80.5616M74.1443 77.9774C73.996 80.2421 72.9483 79.8944 71.4262 80.5616M71.4262 80.5616C69.5285 80.5146 67.6012 80.7307 65.9901 80.5616M71.4262 80.5616C69.9931 80.4206 68.6884 80.5804 65.9901 80.5616M65.9901 80.5616C64.4878 81.4637 63.3907 79.4058 63.2721 77.9774M65.9901 80.5616C64.1221 80.1575 64.211 78.9265 63.2721 77.9774M63.2721 77.9774C63.7267 74.557 62.7878 71.9353 63.2721 68.6088M63.2721 77.9774C63.1337 75.4685 63.2622 72.9595 63.2721 68.6088" stroke="#1E1E1E" stroke-width="2" stroke-linecap="round"/>
<path d="M28.1992 9.46039C28.1992 9.6557 28.2464 9.83799 28.3408 10.0073C28.4384 10.1733 28.5654 10.3198 28.7216 10.4467C28.8779 10.5704 29.0569 10.6681 29.2587 10.7397C29.4606 10.808 29.6673 10.8422 29.8788 10.8422C29.9439 10.8422 30.0107 10.8373 30.079 10.8276C30.1474 10.8146 30.2092 10.7934 30.2646 10.7641C30.3199 10.7348 30.3655 10.6974 30.4013 10.6518C30.4371 10.603 30.455 10.5427 30.455 10.4711C30.455 10.3344 30.4062 10.1993 30.3085 10.0659C30.2141 9.93239 30.0888 9.80056 29.9326 9.67035C29.7763 9.53689 29.5973 9.40505 29.3954 9.27484C29.1936 9.14138 28.9885 9.00954 28.7802 8.87933C28.5719 8.74913 28.3668 8.61892 28.165 8.48871C27.9632 8.35524 27.7841 8.22341 27.6279 8.0932C27.4716 7.95974 27.3447 7.82627 27.247 7.69281C27.1526 7.55609 27.1054 7.41937 27.1054 7.28265C27.1054 7.15245 27.138 7.032 27.2031 6.92133C27.2714 6.80739 27.3609 6.70485 27.4716 6.61371C27.5823 6.52256 27.7109 6.44118 27.8574 6.36957C28.0038 6.29795 28.1568 6.23773 28.3163 6.1889C28.4759 6.14008 28.6354 6.10427 28.7949 6.08148C28.9576 6.05544 29.1122 6.04242 29.2587 6.04242C29.3661 6.04242 29.4833 6.04567 29.6103 6.05219C29.7405 6.05544 29.8609 6.07009 29.9716 6.09613C30.0856 6.11892 30.18 6.15472 30.2548 6.20355C30.3297 6.25238 30.3671 6.32237 30.3671 6.41351C30.3671 6.44281 30.3622 6.48024 30.3525 6.52582C30.3427 6.56814 30.315 6.63975 30.2695 6.74066C30.2239 6.83506 30.1702 6.90668 30.1083 6.95551C30.0497 7.00108 29.9732 7.02386 29.8788 7.02386C29.7454 7.02386 29.6038 7.00922 29.454 6.97992C29.3076 6.94737 29.1594 6.93109 29.0097 6.93109C28.9283 6.93109 28.8453 6.93597 28.7607 6.94574C28.6793 6.95225 28.6044 6.9669 28.5361 6.98969C28.4677 7.00922 28.4124 7.04014 28.3701 7.08246C28.3277 7.12152 28.3066 7.17198 28.3066 7.23383C28.3066 7.29567 28.3505 7.36566 28.4384 7.44379C28.5296 7.52191 28.6484 7.60817 28.7949 7.70258C28.9446 7.79698 29.1139 7.90114 29.3027 8.01508C29.4915 8.12575 29.6835 8.2462 29.8788 8.3764C30.0774 8.50336 30.2711 8.64008 30.4599 8.78656C30.6487 8.92979 30.8163 9.08278 30.9628 9.24554C31.1126 9.40505 31.2314 9.57432 31.3193 9.75336C31.4104 9.93239 31.456 10.1179 31.456 10.31C31.456 10.5444 31.4023 10.7511 31.2949 10.9301C31.1874 11.1092 31.0491 11.2589 30.8798 11.3793C30.7106 11.4998 30.5234 11.5893 30.3183 11.6479C30.1132 11.7097 29.913 11.7407 29.7177 11.7407C29.5191 11.7407 29.3173 11.7162 29.1122 11.6674C28.9104 11.6218 28.7151 11.5551 28.5263 11.4672C28.3375 11.3826 28.1601 11.28 27.9941 11.1596C27.8313 11.0359 27.6897 10.8992 27.5693 10.7495C27.4488 10.5965 27.3528 10.4321 27.2812 10.2563C27.2128 10.0805 27.1786 9.89659 27.1786 9.70453C27.1786 9.62315 27.1835 9.54177 27.1933 9.46039C27.2063 9.37575 27.2275 9.30251 27.2568 9.24066C27.2861 9.17556 27.3268 9.12347 27.3788 9.08441C27.4309 9.04209 27.4977 9.02094 27.579 9.02094C27.6051 9.02094 27.6344 9.02419 27.6669 9.0307C27.6995 9.03396 27.7564 9.0486 27.8378 9.07465C27.9322 9.10394 28.0152 9.15114 28.0869 9.21625C28.1617 9.2781 28.1992 9.35948 28.1992 9.46039ZM34.9667 9.3725C34.9667 8.85817 35.0286 8.46267 35.1523 8.18597C35.276 7.90928 35.4534 7.77094 35.6845 7.77094C36.0523 7.77094 36.2363 8.08832 36.2363 8.72308C36.2363 8.94769 36.2232 9.15928 36.1972 9.35785C36.1744 9.55642 36.1402 9.74847 36.0947 9.93402C36.0882 9.96006 36.0833 9.98448 36.08 10.0073C36.0768 10.03 36.0751 10.0512 36.0751 10.0707C36.0751 10.1391 36.0882 10.1993 36.1142 10.2514C36.277 10.6648 36.5781 10.8715 37.0175 10.8715C37.1738 10.8715 37.3203 10.8373 37.457 10.769C37.5937 10.7006 37.7125 10.6078 37.8134 10.4907C37.9143 10.3702 37.9925 10.2302 38.0478 10.0707C38.1064 9.91123 38.1357 9.73871 38.1357 9.55316C38.1357 9.34483 38.1113 9.1723 38.0624 9.03558C38.0136 8.89561 37.9599 8.77679 37.9013 8.67914C37.8427 8.57823 37.789 8.48708 37.7402 8.4057C37.6913 8.32107 37.6669 8.22666 37.6669 8.1225C37.6669 8.07367 37.6881 8.02321 37.7304 7.97113C37.776 7.91579 37.8313 7.86534 37.8964 7.81976C37.9648 7.77419 38.038 7.73676 38.1161 7.70746C38.1975 7.67816 38.274 7.66351 38.3456 7.66351C38.44 7.66351 38.5328 7.7156 38.624 7.81976C38.7184 7.92393 38.8014 8.06065 38.873 8.22992C38.9479 8.39594 39.0064 8.58636 39.0488 8.80121C39.0943 9.01605 39.1171 9.23252 39.1171 9.45062C39.1171 9.76638 39.0585 10.0642 38.9413 10.3442C38.8242 10.6241 38.6647 10.8699 38.4628 11.0815C38.261 11.2931 38.025 11.4607 37.7548 11.5844C37.4879 11.7081 37.2047 11.77 36.9052 11.77C36.6513 11.77 36.4251 11.7244 36.2265 11.6332C36.0312 11.5453 35.8505 11.3891 35.6845 11.1645C35.6585 11.1222 35.6324 11.0929 35.6064 11.0766C35.5803 11.0603 35.5543 11.0522 35.5283 11.0522C35.4957 11.0522 35.4664 11.0603 35.4404 11.0766C35.4143 11.0929 35.3867 11.1222 35.3574 11.1645C35.136 11.4542 34.8984 11.6609 34.6445 11.7846C34.3938 11.9083 34.1171 11.9702 33.8144 11.9702C33.4791 11.9702 33.1764 11.8774 32.9062 11.6918C32.6393 11.5095 32.4114 11.2491 32.2226 10.9106C32.0338 10.572 31.8889 10.1619 31.788 9.68011C31.6871 9.19509 31.6367 8.6531 31.6367 8.05414C31.6367 7.81 31.6464 7.60817 31.666 7.44867C31.6855 7.28591 31.7213 7.15896 31.7734 7.06781C31.8255 6.97341 31.8938 6.9083 31.9785 6.8725C32.0631 6.83344 32.1721 6.8139 32.3056 6.8139C32.4456 6.8139 32.5465 6.84157 32.6083 6.89691C32.6734 6.94899 32.706 7.04014 32.706 7.17035C32.706 7.27126 32.6962 7.38519 32.6767 7.51215C32.6572 7.63584 32.6474 7.74327 32.6474 7.83441C32.6474 8.30642 32.68 8.74099 32.7451 9.13812C32.8134 9.53526 32.9062 9.87705 33.0234 10.1635C33.1438 10.45 33.2854 10.673 33.4482 10.8325C33.6142 10.992 33.7965 11.0717 33.9951 11.0717C34.4378 11.0717 34.7649 10.8455 34.9765 10.393C34.996 10.3572 35.0091 10.3246 35.0156 10.2953C35.0221 10.2628 35.0253 10.2286 35.0253 10.1928C35.0253 10.1733 35.0253 10.1537 35.0253 10.1342C35.0253 10.1114 35.0221 10.087 35.0156 10.061C34.9993 9.93728 34.9863 9.82009 34.9765 9.70941C34.97 9.59548 34.9667 9.48317 34.9667 9.3725ZM40.3476 6.48187C40.2532 6.48187 40.1637 6.46885 40.079 6.44281C39.9977 6.41351 39.926 6.37445 39.8642 6.32562C39.8056 6.27354 39.7584 6.21332 39.7226 6.14496C39.6868 6.0766 39.6689 6.00173 39.6689 5.92035C39.6689 5.78363 39.7226 5.67295 39.83 5.58832C39.9407 5.50368 40.0872 5.46136 40.2695 5.46136C40.3541 5.46136 40.4355 5.47764 40.5136 5.51019C40.5917 5.53949 40.6601 5.58018 40.7187 5.63226C40.7805 5.68435 40.8294 5.7462 40.8652 5.81781C40.901 5.88617 40.9189 5.95778 40.9189 6.03265C40.9189 6.17263 40.8668 6.2833 40.7626 6.36469C40.6617 6.44281 40.5234 6.48187 40.3476 6.48187ZM39.6786 7.97113C39.6786 7.8572 39.7275 7.76442 39.8251 7.69281C39.926 7.61794 40.0579 7.58051 40.2206 7.58051C40.5136 7.58051 40.6699 7.68142 40.6894 7.88324C40.7024 8.02321 40.7154 8.18109 40.7285 8.35687C40.7447 8.53265 40.7594 8.71983 40.7724 8.9184C40.7887 9.11371 40.8017 9.31716 40.8115 9.52875C40.8245 9.73708 40.8359 9.94379 40.8456 10.1489C40.8554 10.3507 40.8635 10.546 40.8701 10.7348C40.8766 10.9236 40.8798 11.0961 40.8798 11.2524C40.8798 11.4151 40.8212 11.5372 40.704 11.6186C40.5901 11.7 40.4225 11.7407 40.2011 11.7407C40.1002 11.7407 40.0204 11.7162 39.9619 11.6674C39.9065 11.6218 39.8788 11.5535 39.8788 11.4623C39.8788 11.0131 39.8675 10.5932 39.8447 10.2026C39.8251 9.8087 39.8023 9.45876 39.7763 9.15277C39.7535 8.84678 39.7307 8.59288 39.7079 8.39105C39.6884 8.18597 39.6786 8.046 39.6786 7.97113ZM42.2372 5.82269C42.2372 5.65017 42.2861 5.52972 42.3837 5.46136C42.4814 5.38975 42.6425 5.35394 42.8671 5.35394C42.9485 5.35394 43.0169 5.36208 43.0722 5.37836C43.1308 5.39138 43.1796 5.41742 43.2187 5.45648C43.261 5.49554 43.2936 5.54763 43.3163 5.61273C43.3424 5.67458 43.3635 5.75433 43.3798 5.85199C43.4189 6.15472 43.4612 6.46722 43.5068 6.78949C43.5556 7.11176 43.6061 7.43565 43.6581 7.76117C43.6777 7.90765 43.7542 7.9809 43.8876 7.9809C43.9234 7.9809 43.982 7.97764 44.0634 7.97113C44.1481 7.96136 44.2473 7.9516 44.3613 7.94183C44.4752 7.92881 44.5973 7.91579 44.7275 7.90277C44.8609 7.88975 44.9928 7.87836 45.123 7.86859C45.2564 7.85557 45.3818 7.8458 45.499 7.83929C45.6194 7.82953 45.7252 7.82465 45.8163 7.82465C45.888 7.82465 45.9449 7.83929 45.9872 7.86859C46.0296 7.89463 46.0621 7.93044 46.0849 7.97601C46.1109 8.01833 46.1272 8.06716 46.1337 8.1225C46.1435 8.17458 46.1484 8.22829 46.1484 8.28363C46.1484 8.33246 46.1386 8.38291 46.1191 8.435C46.1028 8.48708 46.0784 8.53428 46.0458 8.5766C46.0165 8.61566 45.9791 8.64821 45.9335 8.67426C45.888 8.7003 45.8359 8.71332 45.7773 8.71332C45.4941 8.71332 45.2076 8.72308 44.9179 8.74261C44.6314 8.75889 44.345 8.78168 44.0585 8.81097C43.912 8.83051 43.8388 8.90375 43.8388 9.0307C43.8388 9.04047 43.8404 9.05349 43.8437 9.06976C43.8469 9.08278 43.8486 9.09418 43.8486 9.10394C43.8876 9.38715 43.9234 9.65245 43.956 9.89984C43.9918 10.1472 44.0211 10.3686 44.0439 10.5639C44.0699 10.756 44.0895 10.9171 44.1025 11.0473C44.1188 11.1743 44.1269 11.2589 44.1269 11.3012C44.1269 11.4184 44.1155 11.5161 44.0927 11.5942C44.0699 11.6756 44.0325 11.7407 43.9804 11.7895C43.9283 11.8416 43.8583 11.8774 43.7704 11.8969C43.6858 11.9197 43.5784 11.9311 43.4482 11.9311C43.3245 11.9311 43.2333 11.9018 43.1747 11.8432C43.1161 11.7846 43.0836 11.6951 43.0771 11.5746C43.0576 11.1905 43.0266 10.8048 42.9843 10.4174C42.942 10.0268 42.8932 9.6378 42.8378 9.25043C42.8085 9.11045 42.7353 9.04047 42.6181 9.04047C42.6083 9.04047 42.5969 9.04209 42.5839 9.04535C42.5709 9.0486 42.5595 9.05023 42.5497 9.05023C42.3479 9.0958 42.1575 9.14138 41.9785 9.18695C41.7994 9.23252 41.6318 9.28135 41.4755 9.33344C41.3876 9.36273 41.3095 9.38389 41.2411 9.39691C41.1728 9.40668 41.1109 9.41156 41.0556 9.41156C40.9807 9.41156 40.9254 9.37901 40.8896 9.3139C40.8538 9.24554 40.8359 9.16091 40.8359 9.06C40.8359 9.02419 40.8391 8.9835 40.8456 8.93793C40.8522 8.8891 40.8652 8.8419 40.8847 8.79633C40.901 8.7475 40.927 8.70355 40.9628 8.66449C40.9954 8.62217 41.041 8.58799 41.0995 8.56195C41.2363 8.50661 41.4186 8.44965 41.6464 8.39105C41.8743 8.3292 42.1314 8.27224 42.4179 8.22015C42.483 8.20388 42.5335 8.17784 42.5693 8.14203C42.6083 8.10297 42.6279 8.046 42.6279 7.97113C42.6279 7.95485 42.6279 7.93858 42.6279 7.9223C42.6279 7.90277 42.6246 7.88324 42.6181 7.86371C42.566 7.56423 42.5156 7.29242 42.4667 7.04828C42.4212 6.80088 42.3805 6.58929 42.3447 6.41351C42.3121 6.23773 42.2861 6.09939 42.2665 5.99847C42.247 5.89756 42.2372 5.83897 42.2372 5.82269ZM47.5888 7.43402C47.7581 7.43402 47.9225 7.45844 48.082 7.50726C48.2415 7.55609 48.3814 7.62282 48.5019 7.70746C48.6256 7.78884 48.7249 7.88324 48.7997 7.99066C48.8746 8.09483 48.912 8.20225 48.912 8.31293C48.912 8.38454 48.8974 8.45453 48.8681 8.52289C48.8388 8.58799 48.7997 8.64659 48.7509 8.69867C48.7021 8.7475 48.6467 8.78819 48.5849 8.82074C48.5231 8.85004 48.4579 8.86469 48.3896 8.86469C48.3147 8.86469 48.2464 8.83702 48.1845 8.78168C48.1227 8.72308 48.0559 8.65961 47.9843 8.59125C47.916 8.51963 47.8378 8.45616 47.7499 8.40082C47.6653 8.34222 47.5628 8.31293 47.4423 8.31293C47.3251 8.31293 47.2193 8.3406 47.1249 8.39594C47.0305 8.45127 46.9508 8.5294 46.8857 8.63031C46.8238 8.72797 46.775 8.84515 46.7392 8.98187C46.7066 9.11534 46.6904 9.26182 46.6904 9.42133C46.6904 9.87705 46.7766 10.2254 46.9492 10.4662C47.1217 10.7039 47.3691 10.8227 47.6913 10.8227C47.8443 10.8227 47.9745 10.7983 48.082 10.7495C48.1926 10.7006 48.2887 10.6469 48.3701 10.5883C48.4547 10.5297 48.5312 10.476 48.5995 10.4272C48.6679 10.3784 48.7379 10.3539 48.8095 10.3539C48.8486 10.3539 48.8876 10.367 48.9267 10.393C48.9658 10.4158 48.9999 10.4467 49.0292 10.4858C49.0618 10.5216 49.0878 10.5623 49.1074 10.6078C49.1301 10.6534 49.1415 10.699 49.1415 10.7446C49.1415 10.852 49.0878 10.9627 48.9804 11.0766C48.8762 11.1905 48.7411 11.2947 48.5751 11.3891C48.4091 11.4802 48.2236 11.5551 48.0185 11.6137C47.8167 11.6723 47.6197 11.7016 47.4277 11.7016C47.1705 11.7016 46.9345 11.6511 46.7197 11.5502C46.5048 11.4526 46.3193 11.3159 46.163 11.1401C46.0068 10.961 45.8847 10.7478 45.7968 10.5004C45.7122 10.253 45.6699 9.97959 45.6699 9.68011C45.6699 9.35459 45.7171 9.05511 45.8115 8.78168C45.9091 8.50824 46.0426 8.27224 46.2119 8.07367C46.3844 7.87185 46.5878 7.7156 46.8222 7.60492C47.0566 7.49099 47.3121 7.43402 47.5888 7.43402ZM49.1269 6.76019C49.1269 6.40863 49.3548 6.23285 49.8105 6.23285C49.8886 6.23285 49.957 6.25401 50.0156 6.29633C50.0742 6.33864 50.1083 6.39724 50.1181 6.47211C50.1474 6.67067 50.1734 6.86761 50.1962 7.06293C50.219 7.25824 50.2402 7.47797 50.2597 7.72211C50.2825 7.96299 50.3036 8.24294 50.3232 8.56195C50.346 8.87771 50.3704 9.25531 50.3964 9.69476C50.3964 9.74034 50.4029 9.77289 50.416 9.79242C50.4322 9.81195 50.4501 9.82172 50.4697 9.82172C50.499 9.82172 50.5283 9.79242 50.5576 9.73383C50.6682 9.48969 50.7919 9.27159 50.9286 9.07953C51.0654 8.88422 51.2119 8.71983 51.3681 8.58636C51.5244 8.44965 51.6887 8.34711 51.8613 8.27875C52.037 8.20713 52.2161 8.17133 52.3984 8.17133C52.6393 8.17133 52.8574 8.23969 53.0527 8.3764C53.248 8.51312 53.414 8.70681 53.5507 8.95746C53.6874 9.20811 53.7932 9.51247 53.8681 9.87054C53.943 10.2254 53.9804 10.6225 53.9804 11.062C53.9804 11.1824 53.9706 11.2817 53.9511 11.3598C53.9348 11.4347 53.9055 11.4949 53.8632 11.5405C53.8209 11.586 53.7623 11.617 53.6874 11.6332C53.6126 11.6528 53.5198 11.6625 53.4091 11.6625C53.2561 11.6625 53.1454 11.6332 53.0771 11.5746C53.012 11.5161 52.9794 11.4249 52.9794 11.3012C52.9794 10.9952 52.9583 10.7071 52.916 10.437C52.8769 10.1635 52.8216 9.92426 52.7499 9.71918C52.6783 9.5141 52.5937 9.35134 52.496 9.2309C52.4016 9.11045 52.2991 9.05023 52.1884 9.05023C51.9378 9.05023 51.6871 9.25368 51.4365 9.66058C51.1891 10.0675 50.9303 10.6811 50.6601 11.5014C50.6341 11.5763 50.6048 11.6381 50.5722 11.687C50.5397 11.7358 50.5006 11.7748 50.455 11.8041C50.4127 11.8334 50.3606 11.853 50.2988 11.8627C50.2369 11.8758 50.1637 11.8823 50.079 11.8823C49.9065 11.8823 49.7828 11.8497 49.7079 11.7846C49.6363 11.7195 49.5973 11.6121 49.5908 11.4623C49.5712 10.8959 49.5354 10.3556 49.4833 9.84125C49.4345 9.32367 49.3824 8.85655 49.3271 8.43988C49.275 8.01996 49.2278 7.66514 49.1855 7.37543C49.1464 7.08246 49.1269 6.87738 49.1269 6.76019Z" fill="#1E1E1E"/>
<path d="M66.0684 21.6762C67.462 22.1366 67.9266 21.4412 71.0894 21.6762C73.165 20.9526 73.5504 24.7677 73.5999 24.063C72.5818 26.8914 73.3528 29.0151 73.5999 33.6947C73.5504 36.8333 71.2278 37.0776 71.0894 36.0815C69.4091 35.6963 67.3039 36.2413 66.0684 36.0815C66.5725 35.6117 61.2155 37.6884 63.5579 33.6947C63.5184 32.0879 64.0027 28.2634 63.5579 24.063C65.7521 24.1099 62.1445 21.9769 66.0684 21.6762Z" fill="white"/>
<path d="M66.0684 21.6762C67.1457 21.4788 67.9957 21.7795 71.0893 21.6762M66.0684 21.6762C67.4916 21.6198 68.5887 21.7137 71.0893 21.6762M66.0684 21.6762C63.7457 22.5313 63.5974 21.9299 63.5579 24.063M66.0684 21.6762C65.416 20.7553 63.1625 21.4036 63.5579 24.063M71.0893 21.6762C72.4731 22.1648 73.6591 22.5876 73.5998 24.063M71.0893 21.6762C73.8766 22.4561 74.0248 21.7795 73.5998 24.063M73.5998 24.063C73.4022 27.6807 73.5208 31.7214 73.5998 33.6947M73.5998 24.063C73.7382 26.7411 73.7184 29.8138 73.5998 33.6947M73.5998 33.6947C72.6609 35.6774 72.5324 35.5647 71.0893 36.0815M73.5998 33.6947C73.6493 34.578 73.8272 36.5983 71.0893 36.0815M71.0893 36.0815C69.3399 36.0157 67.037 35.9312 66.0684 36.0815M71.0893 36.0815C69.4091 36.0815 67.8475 36.1473 66.0684 36.0815M66.0684 36.0815C65.1986 36.3634 63.3503 34.4559 63.5579 33.6947M66.0684 36.0815C63.38 35.0291 62.6288 35.8466 63.5579 33.6947M63.5579 33.6947C63.1131 30.7253 63.5678 27.6525 63.5579 24.063M63.5579 33.6947C63.7358 30.2743 63.7061 26.4967 63.5579 24.063" stroke="#1E1E1E" stroke-width="0.5" stroke-linecap="round"/>
<path d="M66.4117 22.2752C67.914 22.3974 69.5053 22.1342 70.7408 22.2752M66.4117 22.2752C67.1826 22.3034 68.1216 22.341 70.7408 22.2752M66.4117 22.2752C64.6227 21.3543 63.6047 23.8163 64.2472 24.3331M66.4117 22.2752C64.3954 22.9988 65.2652 22.0403 64.2472 24.3331M70.7408 22.2752C72.2333 22.3974 73.874 23.6377 72.8955 24.3331M70.7408 22.2752C72.6089 21.5892 73.9036 22.7168 72.8955 24.3331M72.8955 24.3331C72.8164 26.8796 72.8955 29.1067 72.8955 33.4762M72.8955 24.3331C73.0339 26.5696 72.6978 29.0597 72.8955 33.4762M72.8955 33.4762C72.6682 34.3313 72.2234 34.9233 70.7408 35.5341M72.8955 33.4762C73.9629 35.365 73.103 35.8536 70.7408 35.5341M70.7408 35.5341C69.6437 35.4214 68.9914 35.6563 66.4117 35.5341M70.7408 35.5341C69.0309 35.5623 67.4199 35.5623 66.4117 35.5341M66.4117 35.5341C64.7611 34.6978 63.3675 33.9367 64.2472 33.4762M66.4117 35.5341C64.0396 36.0979 64.5931 34.4065 64.2472 33.4762M64.2472 33.4762C64.2768 30.723 64.6326 27.2367 64.2472 24.3331M64.2472 33.4762C64.3361 30.2343 64.2274 26.9548 64.2472 24.3331" stroke="#1E1E1E" stroke-width="0.5" stroke-linecap="round"/>
<path d="M68.0122 25.0684C68.6843 24.9086 69.6925 25.3033 70.3053 25.6604C70.9082 26.0174 71.4815 26.6188 71.6692 27.239C71.857 27.8498 71.6791 28.8083 71.4419 29.3627C71.1948 29.9077 70.8489 30.2554 70.2262 30.5185C69.6134 30.7722 68.4175 31.0729 67.7256 30.9038C67.0436 30.7346 66.5099 30.0205 66.1244 29.5037C65.7488 28.9868 65.4326 28.3291 65.4721 27.7934C65.5116 27.2578 65.8773 26.7034 66.3518 26.2993C66.8262 25.8953 67.9925 25.4818 68.2989 25.3503C68.6053 25.2281 68.2494 25.4912 68.2 25.557M68.3285 25.0684C69.0204 24.918 69.821 25.1247 70.4437 25.5476C71.0564 25.9705 71.7977 26.9759 72.0152 27.6149C72.2227 28.2445 72.1536 28.8271 71.7187 29.3533C71.2739 29.8795 70.0285 30.6501 69.3465 30.7816C68.6745 30.9132 68.2297 30.3588 67.6465 30.1614C67.0535 29.9641 66.1047 29.9265 65.818 29.5882C65.5314 29.2499 65.818 28.7425 65.907 28.1317C65.9861 27.5303 65.8773 26.4027 66.2925 25.9611C66.7175 25.51 67.9925 25.5476 68.4175 25.4724C68.8425 25.4066 68.8524 25.5664 68.8425 25.5194" stroke="#1E1E1E" stroke-width="0.5" stroke-linecap="round"/>
<path d="M67.6293 27.1029C67.8072 27.1593 68.0049 27.225 68.084 27.366C68.163 27.5069 68.0741 27.8452 68.0939 27.9674C68.1037 28.0802 68.2816 28.005 68.163 28.0802C68.0543 28.1553 67.57 28.4372 67.402 28.4184C67.234 28.3902 67.2537 28.0708 67.1648 27.958C67.0758 27.8546 66.8979 27.817 66.8584 27.7607C66.8287 27.7043 66.8683 27.7137 66.9276 27.6291C66.9869 27.5539 67.1351 27.319 67.2241 27.272C67.3031 27.225 67.4218 27.3472 67.4316 27.3566C67.4415 27.3754 67.2636 27.4224 67.2735 27.3472M67.5601 26.8774C67.7677 26.9619 68.1927 27.4036 68.3409 27.5445C68.4892 27.6949 68.588 27.6385 68.4497 27.7513C68.3113 27.8734 67.6491 28.2493 67.5008 28.2399C67.3427 28.2305 67.6293 27.7137 67.5502 27.7043C67.4712 27.7043 67.0462 28.1083 67.0066 28.2117C66.9572 28.3151 67.3427 28.4466 67.2933 28.3151C67.2438 28.1929 66.7398 27.6009 66.72 27.46C66.6904 27.3096 66.9473 27.4506 67.145 27.4318C67.3526 27.4036 67.8863 27.4412 67.9357 27.3284C67.9851 27.225 67.57 26.868 67.4316 26.7834" stroke="#1E1E1E" stroke-width="0.5" stroke-linecap="round"/>
<path d="M69.5917 27.1954C69.7004 27.2424 69.7202 27.4867 69.8289 27.5525C69.9475 27.6277 70.2638 27.5337 70.2638 27.6277C70.2539 27.7122 69.8981 28.0599 69.7993 28.1069C69.7103 28.1633 69.7795 27.9659 69.6905 27.9565C69.6016 27.9377 69.3743 28.0223 69.2655 28.0505C69.1568 28.0693 69.0777 28.1351 69.0283 28.0693C68.969 28.0035 68.969 27.7498 68.9591 27.6558C68.9394 27.5619 68.9097 27.5619 68.9394 27.5055C68.9591 27.4491 69.0382 27.4303 69.1074 27.327C69.1766 27.2236 69.2458 26.9229 69.3248 26.8947M69.908 27.4021C70.0859 27.4585 70.2737 27.327 70.2144 27.4021C70.1551 27.4773 69.6214 27.8344 69.5719 27.8344C69.5225 27.8438 69.9179 27.3739 69.8981 27.4397C69.8783 27.4961 69.5027 28.0129 69.4632 28.2009C69.4237 28.3888 69.7597 28.6237 69.651 28.5579C69.5423 28.5016 68.9295 27.9659 68.801 27.8344C68.6824 27.7028 68.8109 27.8344 68.9295 27.7686C69.0481 27.7028 69.4434 27.6277 69.5126 27.4585C69.5818 27.2894 69.4336 26.8853 69.3446 26.7631C69.2655 26.641 69.058 26.6128 69.0086 26.7256" stroke="#1E1E1E" stroke-width="0.5" stroke-linecap="round"/>
<path d="M68.5591 28.9758C68.7469 28.9758 69.2312 28.8442 69.34 28.9288C69.4586 29.0134 69.2411 29.3798 69.2312 29.4926C69.2214 29.596 69.3597 29.4926 69.2905 29.5678C69.2115 29.6429 68.9545 29.8403 68.7865 29.9436C68.6086 30.0376 68.4109 30.188 68.2429 30.1598C68.0847 30.1316 67.9266 29.8873 67.808 29.7651C67.6795 29.6523 67.5312 29.5772 67.5016 29.4456C67.4719 29.3235 67.4719 29.1731 67.6202 28.9946C67.7684 28.816 68.233 28.4308 68.4109 28.365C68.5888 28.2992 68.6876 28.5435 68.6778 28.6093M68.8557 28.8066C68.8853 28.7972 68.5196 29.0979 68.5987 29.0885C68.6778 29.0791 69.2411 28.6375 69.3301 28.7502C69.4092 28.863 69.1324 29.4738 69.1126 29.7557C69.1028 30.0376 69.419 30.4135 69.251 30.4417C69.083 30.4793 68.3417 30.047 68.0946 29.9624C67.8574 29.8779 67.808 30.0188 67.7981 29.9342C67.7981 29.8591 68.0551 29.7087 68.0551 29.4644C68.0551 29.2201 67.808 28.6751 67.7981 28.4683C67.7882 28.2522 67.976 28.1301 68.0155 28.2146C68.065 28.2898 67.9562 28.8724 68.0551 28.9288" stroke="#1E1E1E" stroke-width="0.5" stroke-linecap="round"/>
<path d="M69.1448 29.4859C69.1152 29.4765 68.7693 29.6832 68.7297 29.655C68.6902 29.6269 68.8681 29.3356 68.8879 29.2886C68.8978 29.251 68.8286 29.3356 68.8286 29.3825C68.8286 29.4389 68.8681 29.5893 68.878 29.6081C68.8879 29.6363 68.9274 29.5047 68.8978 29.5141C68.8681 29.5141 68.7594 29.6269 68.7001 29.6269C68.6408 29.6363 68.5222 29.655 68.5321 29.5611C68.5321 29.4671 68.6704 29.1288 68.7594 29.0818C68.8385 29.0349 69.046 29.2416 69.046 29.2886C69.0361 29.3449 68.7791 29.3168 68.7198 29.3825M68.453 29.6738C68.3739 29.5799 68.7989 28.9879 68.8385 28.9597C68.878 28.9409 68.621 29.3731 68.6902 29.5329C68.7594 29.6926 69.2437 29.9276 69.2437 29.9088C69.2437 29.89 68.7396 29.4483 68.6704 29.4013C68.6111 29.3543 68.7594 29.6081 68.8582 29.6456C68.9571 29.6738 69.2733 29.7114 69.2536 29.5987C69.2338 29.4953 68.8879 29.11 68.7495 28.9973C68.6111 28.8845 68.4728 28.8187 68.4332 28.9127C68.3937 29.0161 68.4036 29.5611 68.5024 29.6081C68.6111 29.6456 68.9571 29.2886 69.0559 29.1758" stroke="#1E1E1E" stroke-width="0.5" stroke-linecap="round"/>
<path d="M66.8016 25.4355C66.8708 25.3886 66.8411 25.4073 66.8708 25.4355C66.8905 25.4731 66.851 25.5201 66.94 25.6517C67.019 25.7926 67.4539 26.0369 67.3847 26.2531C67.3057 26.4786 66.6929 26.939 66.4952 26.9954C66.2975 27.0518 66.1987 26.6759 66.1789 26.582C66.1591 26.488 66.3963 26.4974 66.3963 26.4222C66.3963 26.3564 66.2481 26.3376 66.169 26.1591C66.0899 25.9806 65.8527 25.5201 65.9318 25.3604C66.0109 25.1912 66.5446 25.1442 66.6533 25.1818C66.7719 25.2194 66.6632 25.5671 66.6138 25.5859M66.6039 25.4543C66.7719 25.4825 66.9597 25.6986 66.9993 25.8208C67.0388 25.9524 66.7719 26.1497 66.8411 26.1967C66.9103 26.2437 67.4737 26.0087 67.4144 26.1309C67.3551 26.2531 66.7126 26.8263 66.4853 26.9202C66.2679 27.0142 66.1097 26.7323 66.0801 26.6947C66.0405 26.6571 66.2876 26.9202 66.2777 26.6947C66.2679 26.4786 65.9318 25.5859 66.0208 25.3604C66.1097 25.1348 66.7126 25.304 66.8214 25.3604C66.94 25.4167 66.7324 25.6329 66.7126 25.6986C66.683 25.7644 66.6533 25.802 66.683 25.755" fill="white"/>
<path d="M66.4952 25.5577C66.5446 25.5389 66.851 25.351 66.9399 25.4074C67.0289 25.4731 67.0091 25.7363 67.019 25.9336C67.019 26.1403 67.0289 26.4786 66.9795 26.6196C66.9301 26.7605 66.851 26.7417 66.7225 26.7793C66.594 26.8169 66.3568 26.9015 66.2085 26.8451C66.0504 26.7887 65.833 26.6572 65.8033 26.4316C65.7737 26.2061 65.8923 25.6611 66.001 25.4825C66.1196 25.2946 66.3963 25.3416 66.4853 25.304C66.5742 25.2758 66.5248 25.257 66.5248 25.304C66.5347 25.351 66.4458 25.5483 66.5051 25.5953M66.5347 24.853C66.6731 24.8154 66.5545 25.3322 66.7027 25.5765C66.851 25.8302 67.4045 26.2437 67.4242 26.3752C67.444 26.4974 66.9202 26.2437 66.8115 26.3377C66.7027 26.4222 66.7423 26.8075 66.7423 26.8921C66.7423 26.9766 66.9301 27.0142 66.8115 26.8545C66.6928 26.6947 66.2382 26.1873 66.0405 25.9524C65.8527 25.7081 65.6847 25.445 65.6649 25.398C65.6353 25.351 65.7045 25.7269 65.8923 25.6705C66.0801 25.6141 66.6335 25.2194 66.7917 25.0879C66.9399 24.9469 66.8016 24.8154 66.8115 24.8624" stroke="white" stroke-width="0.5" stroke-linecap="round"/>
<path fill-rule="evenodd" clip-rule="evenodd" d="M65.7119 25.2982C65.8945 25.2454 66.7945 25.518 67.1608 25.6482C67.5277 25.7691 68.1389 26.0584 67.8918 26.0499C67.6538 26.0515 65.8927 25.8861 65.7068 25.6088" fill="white"/>
<path d="M65.9195 26.1708C66.059 26.2845 66.2101 26.6253 66.4747 26.6634C66.7491 26.7021 67.4647 26.6786 67.5365 26.4011C67.6175 26.1337 67.0142 25.2512 66.9231 25.0278M65.6866 25.9842C65.7936 26.1334 65.9449 26.8417 66.2422 26.9669C66.5402 27.0828 67.3391 27.0088 67.4511 26.7247C67.5631 26.4407 66.884 25.515 66.9035 25.2714" stroke="#1E1E1E" stroke-width="0.5" stroke-linecap="round"/>
<path fill-rule="evenodd" clip-rule="evenodd" d="M65.7311 25.1701C65.8682 24.9522 66.7324 24.5222 67.0497 24.4413C67.3671 24.3605 67.8367 24.4299 67.6436 24.6743" fill="white"/>
<path d="M65.8483 25.553C65.9616 25.5092 66.6281 25.7608 66.8071 25.6892C66.9847 25.6082 66.8927 25.1935 66.9194 25.1045M65.5865 26.2053C65.655 26.1961 66.5747 26.2046 66.7565 26.0852C66.9369 25.9564 66.6255 25.5429 66.6703 25.4419" stroke="#1E1E1E" stroke-width="0.5" stroke-linecap="round"/>
<path d="M71.0248 25.0892C71.1039 25.1644 70.7481 25.5685 70.7382 25.6624C70.7283 25.7564 70.8469 25.5591 70.9556 25.6718C71.0644 25.7752 71.3905 26.1229 71.3905 26.3296C71.4004 26.5269 71.1632 26.8558 70.9655 26.884C70.7678 26.9216 70.3231 26.6491 70.2143 26.5363C70.1056 26.4236 70.3132 26.3014 70.3132 26.2262C70.3132 26.1605 70.2242 26.2638 70.1946 26.1135C70.1748 25.9631 70.0266 25.5215 70.1649 25.3241C70.3033 25.1362 70.9062 24.9953 71.0248 24.9671C71.1434 24.9389 70.926 25.108 70.8963 25.1644M71.1632 24.8449C71.2818 24.8449 70.8963 25.4181 70.8667 25.5967C70.8271 25.7658 70.8864 25.7094 70.9556 25.9068C71.0248 26.1041 71.3312 26.7337 71.2917 26.7901C71.262 26.8464 70.8074 26.2826 70.7481 26.245C70.6987 26.2168 71.0545 26.5269 70.9754 26.5927C70.8963 26.6679 70.3824 26.7337 70.2539 26.6679C70.1254 26.6021 70.1452 26.4142 70.2045 26.2075C70.2638 25.9913 70.4318 25.5309 70.5998 25.4181C70.758 25.3054 71.2423 25.5403 71.1928 25.5215C71.1533 25.5027 70.3824 25.3899 70.3428 25.2772" fill="white"/>
<path d="M70.6393 25.3242C70.7678 25.3148 70.9655 25.2584 71.0347 25.3618C71.1137 25.4651 71.1039 25.7658 71.0742 25.935C71.0446 26.1135 70.9161 26.3578 70.8666 26.4236C70.8271 26.4894 70.8469 26.3108 70.8172 26.339C70.7876 26.3672 70.8271 26.5927 70.7085 26.6021C70.5899 26.6021 70.2242 26.4518 70.1056 26.386C69.9771 26.3108 69.9079 26.2826 69.9771 26.1605C70.0463 26.0477 70.3725 25.8786 70.5108 25.6625C70.6492 25.4557 70.7283 24.9953 70.7975 24.9107C70.8568 24.8261 70.9853 25.1174 70.9259 25.155M70.4911 25.108C70.5504 25.0517 70.8568 25.3993 71.0446 25.5497C71.2422 25.6906 71.6376 25.9256 71.6376 25.9913C71.6475 26.0571 71.262 25.8974 71.0643 25.935C70.8568 25.9632 70.5998 26.0477 70.4416 26.2075C70.2835 26.3672 70.1254 26.9028 70.1155 26.884C70.1056 26.8747 70.3626 26.3578 70.4021 26.1041C70.4515 25.8504 70.3428 25.4933 70.3725 25.3618C70.412 25.2396 70.5009 25.3242 70.6097 25.3524C70.7283 25.3806 71.0643 25.5215 71.0643 25.5403C71.0643 25.5497 70.5998 25.4463 70.5998 25.4463" stroke="white" stroke-width="0.5" stroke-linecap="round"/>
<path fill-rule="evenodd" clip-rule="evenodd" d="M70.3402 26.517C70.0545 26.6449 70.5482 26.3013 70.4841 26.1463C70.4191 25.982 69.7835 25.6584 69.9447 25.5788C70.106 25.4991 71.234 25.6772 71.4604 25.658" fill="white"/>
<path d="M71.4397 25.7542C71.247 25.9214 71.0012 26.6875 70.7737 26.8011C70.556 26.9139 70.202 26.7363 70.0943 26.4341C69.9867 26.1319 70.0939 25.2643 70.1276 24.9879M71.9676 25.351C71.7022 25.5904 70.8208 26.9858 70.4963 27.2302C70.1612 27.4662 70.0231 27.1571 69.9817 26.821C69.9305 26.4857 70.2294 25.5453 70.2274 25.2058" stroke="#1E1E1E" stroke-width="0.5" stroke-linecap="round"/>
<path fill-rule="evenodd" clip-rule="evenodd" d="M70.0612 26.1621C69.7807 26.0992 70.4117 25.343 70.451 25.0541C70.4817 24.7546 70.1359 24.2195 70.2738 24.3785" fill="white"/>
<path d="M71.3464 25.7233C71.2617 25.7602 70.9973 25.9457 70.793 25.8353C70.5986 25.7261 70.2085 25.2234 70.1295 25.0716M71.9764 25.488C71.8534 25.5866 70.8843 26.2634 70.5302 26.2294C70.1846 26.2059 69.8897 25.5158 69.8856 25.3258" stroke="#1E1E1E" stroke-width="0.5" stroke-linecap="round"/>
<path d="M67.927 29.472C67.9468 29.3968 68.095 29.0774 68.184 29.0492C68.2729 29.0304 68.4706 29.2559 68.4607 29.3217C68.4509 29.3968 68.1939 29.3874 68.1346 29.4626C68.0654 29.5472 68.016 29.7351 68.0555 29.7821C68.095 29.8291 68.3323 29.8479 68.3718 29.7445C68.4113 29.6412 68.2729 29.2277 68.2729 29.1619C68.2729 29.0961 68.441 29.3311 68.3817 29.3311C68.3224 29.3311 67.9072 29.1431 67.8974 29.1807C67.8875 29.2089 68.2136 29.519 68.3224 29.519C68.4311 29.519 68.5793 29.2089 68.5596 29.1807M68.1445 28.9176C68.0259 28.8142 67.8974 28.7673 67.8578 28.8894C67.8183 29.0116 67.8183 29.5848 67.9171 29.6412C68.016 29.7069 68.3718 29.3593 68.4607 29.2653C68.5497 29.1619 68.441 29.021 68.441 29.0586C68.4311 29.0961 68.4212 29.3593 68.4311 29.472C68.441 29.5942 68.5596 29.7539 68.5003 29.7821C68.4311 29.8103 68.0259 29.6506 68.0259 29.6224C68.0259 29.6036 68.441 29.7069 68.52 29.6412C68.5991 29.5754 68.5398 29.3405 68.5003 29.2371C68.4607 29.1431 68.3619 28.974 68.2631 29.0586" stroke="#1E1E1E" stroke-width="0.5" stroke-linecap="round"/>
<path d="M66.0282 32.3875C66.0184 32.4439 66.0777 32.7352 66.0875 32.848M65.6131 33.0359C65.5637 33.1111 65.8503 33.0453 65.9096 33.1017" stroke="#1E1E1E" stroke-width="0.5" stroke-linecap="round"/>
<path fill-rule="evenodd" clip-rule="evenodd" d="M66.8767 32.7369C66.59 32.7369 65.404 33.1597 65.2952 32.9718C65.1865 32.7839 66.2935 31.5717 66.2243 31.5998C66.1551 31.6374 64.8406 32.7557 64.8702 33.1691" fill="white"/>
<path d="M65.9476 32.0227C66.1057 31.9945 66.6988 31.863 66.7383 32.0039C66.7778 32.1543 66.3726 32.8027 66.1749 32.9154C65.9674 33.0282 65.6313 32.7275 65.5424 32.6899M65.6214 32.5771C65.7499 32.6053 66.3429 32.408 66.5406 32.3704C66.7482 32.3328 67.0052 32.2482 66.8371 32.3422C66.679 32.4268 65.8389 32.8496 65.572 32.8966" stroke="#1E1E1E" stroke-width="0.5" stroke-linecap="round"/>
<path fill-rule="evenodd" clip-rule="evenodd" d="M66.6013 33.9456C66.3938 33.5603 67.5798 31.2299 67.738 31.1359C67.8961 31.0513 67.2932 33.0435 67.5502 33.4193C67.8071 33.7952 69.2205 33.6449 69.2502 33.3912" fill="white"/>
<path d="M68.0345 32.9871C67.9752 32.9308 67.649 32.4609 67.6886 32.4515C67.7182 32.4421 68.0938 33.0247 68.2223 32.9402C68.3508 32.8556 68.3705 32.0475 68.4595 31.9441M67.6984 32.6395C67.7182 32.5079 68.2519 31.8407 68.3014 31.9347C68.3409 32.0287 67.9159 33.1751 67.9554 33.2127C67.995 33.2502 68.4496 32.2542 68.5386 32.1414" stroke="#1E1E1E" stroke-width="0.5" stroke-linecap="round"/>
<path fill-rule="evenodd" clip-rule="evenodd" d="M69.2259 31.0252C69.2061 30.9689 67.941 32.1999 68.0991 32.7167C68.2573 33.2429 70.1945 34.1168 70.1648 34.145C70.1451 34.1638 68.2276 32.9798 67.9608 32.8764" fill="white"/>
<path d="M69.1765 32.3408C69.0282 32.369 68.7317 32.1811 68.7712 32.2375C68.8009 32.3032 69.3445 32.5194 69.3742 32.6979C69.4137 32.8764 69.048 33.2147 68.9689 33.3087M69.641 32.1247C69.4236 32.1999 68.534 32.4348 68.455 32.5663C68.3759 32.7073 69.216 32.9328 69.1666 32.9516C69.1073 32.9704 68.2375 32.6039 68.1486 32.6791" stroke="#1E1E1E" stroke-width="0.5" stroke-linecap="round"/>
<path fill-rule="evenodd" clip-rule="evenodd" d="M69.5395 32.4802C69.6383 32.9312 70.597 33.6736 70.597 33.7299C70.597 33.7863 69.7272 32.8184 69.5296 32.7997C69.322 32.7903 69.2034 33.5044 69.3714 33.636" fill="white"/>
<path d="M70.2116 32.0009C70.1819 32.0009 69.747 32.0855 69.8063 32.2828C69.8557 32.4896 70.5476 33.0534 70.5377 33.2319C70.518 33.401 69.9645 33.2883 69.7273 33.3165M70.8046 32.6305C70.7651 32.6493 69.5889 32.5929 69.5395 32.6023C69.4802 32.6023 70.4092 32.4896 70.4784 32.6681C70.5476 32.8466 70.093 33.5138 69.9447 33.6736" stroke="#1E1E1E" stroke-width="0.5" stroke-linecap="round"/>
<path fill-rule="evenodd" clip-rule="evenodd" d="M66.0741 33.3406C66.3212 33.585 67.8927 33.444 68.0113 33.35C68.1299 33.2561 66.8945 32.758 66.7956 32.7768" fill="white"/>
<path d="M66.8451 32.8332C66.9735 32.7298 67.3788 32.2318 67.527 32.2788C67.6852 32.3352 67.8235 32.9836 67.7642 33.1433M66.4299 33.4346C66.5485 33.2561 67.2108 31.9311 67.4183 31.7808C67.6358 31.6304 67.7445 32.401 67.6852 32.5513" stroke="#1E1E1E" stroke-width="0.5" stroke-linecap="round"/>
<path d="M67.2494 32.9918C67.3878 33.0012 67.7831 32.6911 67.7634 32.6535M66.9924 32.7851C67.111 32.7005 67.4965 32.2119 67.6349 32.1179" stroke="#1E1E1E" stroke-width="0.5" stroke-linecap="round"/>
<path fill-rule="evenodd" clip-rule="evenodd" d="M69.9279 32.8528C69.8489 32.5615 70.5309 32.4581 70.9657 32.5803C71.3907 32.7119 72.478 33.6985 72.4977 33.614" fill="white"/>
<path d="M70.8966 33.2193C70.857 33.069 70.6297 32.43 70.6989 32.383C70.7681 32.336 71.2326 32.7683 71.3117 32.928M70.6198 32.9844C70.6593 32.7307 71.2524 31.885 71.3216 31.9038C71.4006 31.9319 71.0844 32.8434 71.0547 33.1347" stroke="#1E1E1E" stroke-width="0.5" stroke-linecap="round"/>
<path d="M70.3885 32.9573C70.428 32.8728 71.1001 32.3653 71.2187 32.3184M70.8629 32.7788C70.8234 32.713 70.9222 32.5345 70.9024 32.5909" stroke="#1E1E1E" stroke-width="0.5" stroke-linecap="round"/>
<path d="M66.0686 45.0037C67.9762 44.9473 70.0715 44.797 71.0896 45.0037C71.1983 47.4469 73.7483 44.4211 73.6 47.3905C73.2146 51.4687 73.007 53.2635 73.6 57.0223C73.3529 60.0292 71.1884 61.2132 71.0896 59.409C69.6663 59.2399 67.5511 59.6628 66.0686 59.409C66.9384 59.3809 64.1511 60.7152 63.5581 57.0223C64.2203 54.72 63.0936 50.7358 63.5581 47.3905C64.1412 44.1016 65.7918 44.064 66.0686 45.0037Z" fill="white"/>
<path d="M66.0684 45.0037C67.976 44.9849 69.8737 45.2386 71.0894 45.0037M66.0684 45.0037C67.64 45.0789 69.1917 44.9379 71.0894 45.0037M66.0684 45.0037C64.744 45.2292 64.0027 46.1783 63.558 47.3905M66.0684 45.0037C64.0423 44.7312 63.983 46.0374 63.558 47.3905M71.0894 45.0037C71.9493 44.9567 72.9871 45.7273 73.5999 47.3905M71.0894 45.0037C71.8604 44.2238 74.3906 44.8721 73.5999 47.3905M73.5999 47.3905C73.1255 50.4727 73.4319 52.2487 73.5999 57.0223M73.5999 47.3905C73.8668 50.4727 73.8569 53.6018 73.5999 57.0223M73.5999 57.0223C73.7778 58.1405 72.7499 59.8225 71.0894 59.4091M73.5999 57.0223C74.183 58.5258 73.5307 59.0614 71.0894 59.4091M71.0894 59.4091C69.5673 59.3339 68.144 59.4936 66.0684 59.4091M71.0894 59.4091C69.6464 59.4091 68.4999 59.3715 66.0684 59.4091M66.0684 59.4091C65.258 59.9447 64.0027 57.6988 63.558 57.0223M66.0684 59.4091C64.6551 59.3527 63.7457 59.1741 63.558 57.0223M63.558 57.0223C63.5283 55.2651 63.3603 53.3199 63.558 47.3905M63.558 57.0223C63.4394 54.6543 63.3405 52.6621 63.558 47.3905" stroke="#1E1E1E" stroke-width="0.5" stroke-linecap="round"/>
<path d="M66.4117 45.6027C67.8053 45.8094 69.0111 45.5557 70.7408 45.6027M66.4117 45.6027C67.8251 45.5369 69.0111 45.5839 70.7408 45.6027M66.4117 45.6027C65.3442 45.8094 64.6029 46.5142 64.2471 47.6606M66.4117 45.6027C66.0855 45.7342 63.9012 46.0161 64.2471 47.6606M70.7408 45.6027C71.571 45.5369 72.1245 45.6121 72.8954 47.6606M70.7408 45.6027C72.9745 44.6724 72.5693 45.4523 72.8954 47.6606M72.8954 47.6606C72.7373 49.7091 73.0239 52.6597 72.8954 56.8037M72.8954 47.6606C73.1623 50.3011 72.9943 53.2705 72.8954 56.8037M72.8954 56.8037C72.8856 58.5891 72.6879 58.7864 70.7408 58.8616M72.8954 56.8037C73.6664 57.828 71.8873 59.3784 70.7408 58.8616M70.7408 58.8616C69.6733 58.9462 68.8727 59.012 66.4117 58.8616M70.7408 58.8616C69.2286 58.8146 67.6471 58.918 66.4117 58.8616M66.4117 58.8616C65.4134 57.9407 64.4744 58.1287 64.2471 56.8037M66.4117 58.8616C65.1564 59.4254 63.2686 57.4897 64.2471 56.8037M64.2471 56.8037C64.0297 53.8343 63.8913 50.489 64.2471 47.6606M64.2471 56.8037C64.0989 53.5054 64.3657 50.3575 64.2471 47.6606" stroke="#1E1E1E" stroke-width="0.5" stroke-linecap="round"/>
<path d="M68.6943 48.8657C69.2675 48.7436 69.8111 48.6684 70.2855 48.9503C70.76 49.2322 71.3826 50.0027 71.5507 50.5665C71.7088 51.1303 71.6001 51.7599 71.264 52.3331C70.928 52.9157 70.1669 53.7897 69.5245 54.034C68.882 54.2783 68.032 54.034 67.4094 53.799C66.7966 53.5735 66.1541 53.0661 65.8082 52.6526C65.4622 52.2298 65.225 51.8727 65.3338 51.2807C65.4524 50.6981 65.9367 49.5329 66.4902 49.1194C67.0535 48.706 68.3088 48.8281 68.6745 48.8093C69.0402 48.7905 68.7338 48.9409 68.6844 49.0067M68.121 48.8939C68.7536 48.7999 69.8012 48.7529 70.414 48.9879C71.0268 49.2228 71.6495 49.7114 71.7978 50.294C71.946 50.886 71.6693 51.9949 71.3135 52.5117C70.9478 53.0285 70.1867 53.2164 69.6332 53.4044C69.0698 53.5923 68.4669 53.7051 67.9431 53.6205C67.4192 53.5359 66.8163 53.2164 66.4902 52.8782C66.1541 52.5493 66.0454 52.1828 65.9564 51.619C65.8576 51.0552 65.4919 50.0215 65.9169 49.4953C66.3518 48.9785 68.0913 48.565 68.5361 48.4804C68.971 48.3959 68.5954 48.9973 68.5658 49.0067" stroke="#1E1E1E" stroke-width="0.5" stroke-linecap="round"/>
<path d="M67.3625 50.2612C67.4415 50.1955 67.7578 50.3834 67.8665 50.4586C67.9752 50.5337 68.0444 50.5243 68.0247 50.7029C67.995 50.872 67.827 51.3701 67.7183 51.4828C67.6095 51.5956 67.4811 51.3983 67.3625 51.3607C67.2438 51.3325 67.1252 51.2855 67.0165 51.3137C66.9078 51.3325 66.7497 51.6238 66.72 51.511C66.7002 51.3983 66.7892 50.7687 66.8781 50.6465C66.977 50.5243 67.1747 50.7311 67.2933 50.7593C67.4119 50.7969 67.5799 50.8157 67.5898 50.825C67.6095 50.8344 67.4316 50.8438 67.3723 50.8157M67.7084 50.4774C67.8764 50.4022 68.1136 50.3458 68.1532 50.4492C68.1828 50.5525 68.0049 51.013 67.9061 51.0976C67.7973 51.1727 67.5898 50.9284 67.5404 50.919C67.4909 50.919 67.6194 51.013 67.6194 51.0788C67.6293 51.1445 67.6095 51.2197 67.57 51.3043C67.5404 51.3889 67.5799 51.6614 67.4119 51.5862C67.234 51.5204 66.5322 51.06 66.5421 50.872C66.5619 50.6841 67.2933 50.468 67.5107 50.4492C67.738 50.4398 67.8566 50.8438 67.8863 50.7781C67.9061 50.7217 67.7282 50.1015 67.6688 50.0639" stroke="#1E1E1E" stroke-width="0.5" stroke-linecap="round"/>
<path d="M69.5422 50.3162C69.6806 50.3256 69.8288 50.2598 69.8783 50.4102C69.9178 50.5511 69.8486 51.0491 69.8091 51.1713C69.7794 51.3029 69.73 51.1525 69.6608 51.1807C69.5817 51.1995 69.4829 51.2371 69.3742 51.3311C69.2556 51.4156 69.048 51.7821 68.9788 51.7163C68.8998 51.6599 68.8899 51.0679 68.9096 50.9458C68.9294 50.8236 69.0283 51.0116 69.0876 51.0022C69.137 50.9928 69.1864 50.927 69.2358 50.8894C69.2951 50.8518 69.3841 50.8424 69.394 50.7954C69.394 50.7391 69.2753 50.6169 69.2753 50.5793M69.8783 50.3538C69.9178 50.4008 69.7992 50.8142 69.7597 50.8612C69.7102 50.9176 69.5719 50.6545 69.5916 50.6639C69.6015 50.6639 69.7992 50.7954 69.8486 50.8988C69.898 51.0022 69.898 51.1525 69.8684 51.2935C69.8288 51.4344 69.8486 51.7727 69.6312 51.7445C69.4236 51.7163 68.6428 51.2935 68.6033 51.1149C68.5538 50.927 69.2062 50.7015 69.3742 50.6639C69.5422 50.6169 69.5422 50.9646 69.6114 50.8612C69.6707 50.7578 69.7498 50.1095 69.7597 50.0437C69.7695 49.9873 69.6806 50.3632 69.6509 50.4853" stroke="#1E1E1E" stroke-width="0.5" stroke-linecap="round"/>
<path d="M68.4109 51.7489C68.5492 51.7959 68.6777 52.2093 68.8062 52.3221C68.9248 52.4255 69.083 52.3033 69.1324 52.3879C69.1917 52.4725 69.2115 52.6322 69.1423 52.8389C69.0731 53.0457 68.8458 53.5719 68.6975 53.6283C68.5591 53.6846 68.4109 53.2148 68.2824 53.1584C68.1539 53.102 68.0551 53.3182 67.9562 53.29C67.8574 53.2618 67.7388 53.102 67.6894 52.9799C67.6498 52.8483 67.6301 52.6604 67.6992 52.51C67.7684 52.3597 68.0353 52.1436 68.1341 52.059C68.233 51.9744 68.2231 51.9744 68.3022 52.0026M68.4208 52.2187C68.4702 52.1812 68.5196 51.8805 68.6777 51.8805C68.826 51.8805 69.1917 52.0402 69.34 52.2093C69.4882 52.3785 69.587 52.6416 69.5673 52.8859C69.5475 53.1302 69.5277 53.6095 69.2411 53.6753C68.9545 53.741 68.0353 53.4215 67.8574 53.2806C67.6795 53.149 68.144 52.9235 68.1835 52.8577C68.2231 52.7826 68.0946 53.0457 68.0946 52.8483C68.0946 52.6604 68.0946 51.8523 68.1835 51.7019C68.2824 51.5516 68.5888 51.8805 68.658 51.965C68.7272 52.059 68.7173 52.2845 68.6283 52.2469" stroke="#1E1E1E" stroke-width="0.5" stroke-linecap="round"/>
<path d="M68.6606 52.9074C68.6309 52.9356 68.6408 52.6631 68.6507 52.6067C68.6606 52.5597 68.7001 52.5409 68.7001 52.6161C68.71 52.7007 68.6507 53.0953 68.6803 53.0953C68.7001 53.0859 68.789 52.6067 68.8484 52.5879C68.8978 52.5691 68.9966 52.898 69.0065 52.9826C69.0164 53.0671 68.9571 53.0953 68.9077 53.1047C68.8484 53.1141 68.7199 53.0953 68.6606 53.039C68.6013 52.9826 68.5321 52.8322 68.542 52.7664C68.5617 52.7101 68.6507 52.6725 68.7297 52.6913C68.8187 52.7007 69.0263 52.8134 69.046 52.851M68.4431 52.4188C68.4629 52.3154 68.71 52.3248 68.8286 52.353C68.9571 52.3812 69.0954 52.4657 69.1745 52.5879C69.2536 52.7195 69.4216 53.0859 69.3129 53.1141C69.2042 53.1329 68.5222 52.8228 68.5222 52.7383C68.5222 52.6537 69.1646 52.5691 69.2931 52.6161C69.4216 52.6725 69.3228 53.1141 69.2832 53.0577C69.2536 53.0108 69.1251 52.353 69.0658 52.2872C69.0164 52.2308 68.9966 52.5785 68.9768 52.6819C68.967 52.7946 69.0658 52.9826 68.9867 52.9356C68.8978 52.8886 68.4332 52.4376 68.4728 52.3906" stroke="#1E1E1E" stroke-width="0.5" stroke-linecap="round"/>
<path d="M66.4161 48.3966C66.4853 48.453 66.8313 48.8288 66.9696 48.998C67.1179 49.1765 67.2464 49.2893 67.276 49.449C67.2958 49.5994 67.1871 49.8531 67.108 49.9377C67.0191 50.0316 66.9301 49.9283 66.7917 49.994C66.6534 50.0504 66.3865 50.3699 66.2778 50.3135C66.1789 50.2666 66.1987 49.8719 66.169 49.6652C66.1295 49.4678 66.0406 49.2611 66.0702 49.0919C66.0999 48.9134 66.2679 48.6409 66.3371 48.6127C66.4161 48.5845 66.4359 48.951 66.5051 48.9228C66.5644 48.904 66.6731 48.4812 66.7225 48.453M66.4656 48.3026C66.5842 48.312 66.9005 48.8946 66.9598 49.1295C67.0191 49.3551 66.772 49.5148 66.8411 49.6746C66.9005 49.8437 67.3551 49.9846 67.3551 50.1068C67.3452 50.2196 66.9795 50.3887 66.7917 50.3887C66.6039 50.3887 66.3074 50.1632 66.2284 50.1068C66.1493 50.0598 66.3371 50.2384 66.3173 50.0974C66.2975 49.9471 66.0406 49.449 66.1097 49.2235C66.1888 48.998 66.7028 48.7819 66.7621 48.7537C66.8214 48.7161 66.4359 49.0074 66.4656 49.0262C66.4853 49.045 66.9103 48.951 66.9103 48.8758" fill="white"/>
<path d="M66.258 48.5187C66.3667 48.4342 66.5446 48.4436 66.6435 48.5939C66.7324 48.7536 66.772 49.2987 66.8412 49.4302C66.9005 49.5712 66.9894 49.2893 67.0191 49.4114C67.0388 49.5336 67.0487 50.0128 66.9697 50.1726C66.8906 50.3417 66.7028 50.3981 66.5446 50.3887C66.3865 50.3793 66.1394 50.2665 66.0109 50.0974C65.8824 49.9283 65.7638 49.59 65.7737 49.3738C65.7836 49.1671 65.9022 48.9416 66.0603 48.8382C66.2185 48.7443 66.6237 48.7724 66.7028 48.7724C66.7819 48.7724 66.5743 48.857 66.5348 48.8288M66.5545 48.2556C66.772 48.2744 67.0388 48.4436 67.197 48.6691C67.3551 48.8946 67.5923 49.4302 67.5034 49.5994C67.4045 49.7685 66.7028 49.6463 66.6435 49.6933C66.5842 49.7403 67.1278 49.7685 67.1574 49.8719C67.1871 49.9658 66.9598 50.4075 66.8313 50.3041C66.6929 50.1914 66.4656 49.4114 66.3667 49.2141C66.258 49.0168 66.2185 49.1765 66.2185 49.1389C66.2284 49.1013 66.3865 49.1201 66.3964 48.9886C66.3964 48.8476 66.1295 48.3778 66.2284 48.3026C66.3272 48.2368 66.8708 48.5375 66.9894 48.5657" stroke="white" stroke-width="0.5" stroke-linecap="round"/>
<path fill-rule="evenodd" clip-rule="evenodd" d="M66.2703 49.4484C66.7957 49.4488 67.331 49.6949 67.719 49.5534C68.1071 49.4119 68.6336 48.9035 68.5773 48.6167C68.5104 48.3385 67.6238 47.7748 67.3601 47.8499" fill="white"/>
<path d="M65.3376 48.9661C65.5355 49.0935 66.2888 49.8361 66.5989 49.9246C66.8991 50.0123 67.084 49.8089 67.1467 49.5213C67.1995 49.233 66.8912 48.3814 66.935 48.2055M65.7822 49.6015C65.9779 49.757 66.242 50.172 66.4194 50.1849C66.5961 50.2071 66.7688 50.0311 66.8519 49.7356C66.9359 49.4307 66.8762 48.5687 66.9321 48.3655" stroke="#1E1E1E" stroke-width="0.5" stroke-linecap="round"/>
<path fill-rule="evenodd" clip-rule="evenodd" d="M66.4631 49.1864C66.9469 48.9502 67.4475 48.5598 67.7259 48.2185C68.0043 47.8771 68.2201 47.1836 68.1307 47.1197" fill="white"/>
<path d="M65.9546 48.7904C66.1042 48.7891 66.2117 48.9739 66.3781 48.885C66.5347 48.7974 66.7279 48.3537 66.9055 48.2727M65.7459 49.3975C65.8745 49.4561 65.9402 49.3618 66.0885 49.2184C66.2465 49.0736 66.5558 48.6047 66.6453 48.5357" stroke="#1E1E1E" stroke-width="0.5" stroke-linecap="round"/>
<path d="M70.837 48.6516C70.9359 48.6141 71.1039 48.5013 71.1632 48.6422C71.2126 48.7926 71.1533 49.3282 71.1632 49.5162C71.1632 49.6947 71.2521 49.6665 71.1928 49.7417C71.1335 49.8262 70.9359 49.9578 70.8173 49.9766C70.6987 49.9954 70.6295 49.8732 70.501 49.8638C70.3725 49.8544 70.0859 50.0706 70.0463 49.9202C69.9969 49.7605 70.1452 49.1121 70.2341 48.9148C70.3132 48.7174 70.4318 48.802 70.5702 48.7174C70.7085 48.6422 70.9853 48.4919 71.0545 48.4355C71.1237 48.3885 71.0545 48.3791 70.9655 48.4073M71.094 48.8208C71.262 48.8208 71.1632 48.9711 71.1632 49.0557C71.1632 49.1403 71.0742 49.1309 71.1039 49.3188C71.1335 49.5068 71.3806 50.0518 71.3411 50.1833C71.2917 50.3149 70.9161 50.1457 70.8469 50.1082C70.7777 50.08 71.0545 50.0048 70.9161 49.986C70.7777 49.9766 70.0957 50.1176 70.0167 50.0048C69.9376 49.892 70.4021 49.5725 70.4417 49.3282C70.4713 49.0745 70.155 48.7174 70.2242 48.5295C70.2934 48.3415 70.7481 48.2288 70.8864 48.21C71.0149 48.1818 71.1039 48.3228 71.0347 48.3697" fill="white"/>
<path d="M70.5998 48.304C70.7678 48.257 71.0347 48.6517 71.1434 48.8302C71.2521 49.0181 71.3015 49.2249 71.2719 49.4034C71.2521 49.5819 71.1137 49.7887 71.005 49.892C70.8963 49.9954 70.7085 50.0048 70.6096 50.0236C70.5108 50.0424 70.4317 50.0236 70.4021 49.9954C70.3724 49.9672 70.4713 49.9578 70.4317 49.8545C70.3922 49.7605 70.2044 49.6101 70.1748 49.4034C70.1451 49.2061 70.1352 48.849 70.2538 48.6517C70.3626 48.4637 70.8073 48.2664 70.8469 48.2382C70.8864 48.21 70.5701 48.3979 70.5108 48.4825M70.2835 48.4449C70.4021 48.3416 71.2126 48.3228 71.4399 48.4731C71.6672 48.6329 71.6672 49.2625 71.6573 49.3752C71.6573 49.488 71.5091 49.0651 71.4102 49.1591C71.3015 49.2531 71.1631 49.7605 71.0347 49.939C70.916 50.1176 70.8469 50.3337 70.6492 50.2397C70.4515 50.1458 69.8782 49.5725 69.8585 49.3846C69.8387 49.1967 70.4021 49.2718 70.5306 49.1309C70.669 48.9805 70.58 48.6798 70.6788 48.5201C70.7678 48.3604 71.0347 48.1254 71.1137 48.1724C71.1928 48.2288 71.2323 48.8114 71.1434 48.8208" stroke="white" stroke-width="0.5" stroke-linecap="round"/>
<path fill-rule="evenodd" clip-rule="evenodd" d="M71.7827 48.5055C71.481 48.9933 71.0914 50.5545 70.9004 50.7405C70.7184 50.9163 70.6485 50.0637 70.6647 49.6001C70.6808 49.1365 71.1446 48.05 71.0079 47.9673" fill="white"/>
<path d="M71.4248 48.9226C71.3824 49.1054 71.4855 49.8892 71.2033 50.0546C70.9203 50.2106 69.8734 50.1577 69.7209 49.9065C69.5675 49.6459 70.1812 48.7826 70.3044 48.508M72.0493 49.4452C72.004 49.7038 71.4209 50.4701 71.1399 50.4373C70.859 50.4045 70.4795 49.5309 70.3646 49.2576C70.2605 48.9929 70.5173 48.9805 70.4917 48.8129" stroke="#1E1E1E" stroke-width="0.5" stroke-linecap="round"/>
<path fill-rule="evenodd" clip-rule="evenodd" d="M71.7731 48.4777C71.3955 48.7629 70.7306 49.695 70.57 49.7037C70.4094 49.7124 70.7261 48.7754 70.8093 48.5298" fill="white"/>
<path d="M71.7828 49.0664C71.6243 49.1322 70.6453 49.2961 70.3968 49.2182C70.1483 49.1403 70.2505 48.7549 70.2597 48.6139M71.582 48.7101C71.5526 48.7065 71.3699 48.7314 71.1147 48.7758C70.8693 48.8215 70.3326 49.0303 70.0803 48.9803" stroke="#1E1E1E" stroke-width="0.5" stroke-linecap="round"/>
<path d="M68.0653 52.9405C68.0258 52.9029 67.9665 52.7714 67.9863 52.7432C67.9961 52.7056 68.0752 52.6962 68.1543 52.7244C68.2334 52.762 68.4409 52.8935 68.4508 52.9499C68.4706 52.9969 68.2927 53.0627 68.2432 53.0251C68.1839 52.9969 68.0851 52.8184 68.1049 52.7338C68.1147 52.6398 68.352 52.4989 68.3322 52.4801C68.3025 52.4707 68.0357 52.5928 67.9764 52.6492C67.9072 52.7056 67.9171 52.7714 67.9467 52.809C67.9764 52.8465 68.0554 52.9593 68.1444 52.8841C68.2334 52.8184 68.4706 52.3955 68.4804 52.4049M68.4607 52.1982C68.4211 52.1512 68.4113 52.5177 68.4014 52.6492C68.3915 52.7714 68.4903 52.9875 68.4014 52.9593C68.3223 52.9311 67.8578 52.5083 67.8874 52.4707C67.927 52.4425 68.5101 52.7338 68.6188 52.7526C68.7177 52.7714 68.5398 52.6586 68.5398 52.6022C68.5398 52.5458 68.5892 52.3673 68.6089 52.4331C68.6188 52.4989 68.7078 53.0251 68.6188 53.0063C68.52 52.9781 68.1741 52.3485 68.0554 52.2827C67.9368 52.2076 67.838 52.5083 67.8973 52.6022C67.9665 52.6962 68.3816 52.8184 68.4607 52.8465" stroke="#1E1E1E" stroke-width="0.5" stroke-linecap="round"/>
<path d="M66.1864 55.9218C66.2655 55.9688 66.2358 56.2695 66.2358 56.3071M65.8503 55.6493C65.9393 55.7339 66.0876 56.5138 66.137 56.636" stroke="#1E1E1E" stroke-width="0.5" stroke-linecap="round"/>
<path fill-rule="evenodd" clip-rule="evenodd" d="M65.404 56.2993C65.1767 56.2053 65.1668 54.8803 65.3052 54.683C65.4337 54.4857 66.0564 54.9367 66.2145 55.1153C66.3628 55.3032 66.1552 55.4535 66.2244 55.7824" fill="white"/>
<path d="M66.1058 55.4911C66.2639 55.3878 66.8174 55.0589 66.8965 55.1246C66.9755 55.1998 66.7877 55.726 66.5703 55.9328C66.3627 56.1395 65.7499 56.3087 65.6215 56.3462M65.8488 56.1113C65.9773 56.0361 66.6988 55.369 66.7779 55.3878C66.8668 55.4066 66.5604 56.1583 66.3825 56.2053C66.1947 56.2617 65.8389 55.7073 65.6906 55.7167" stroke="#1E1E1E" stroke-width="0.5" stroke-linecap="round"/>
<path fill-rule="evenodd" clip-rule="evenodd" d="M66.6014 55.6662C66.6409 55.2621 67.3427 54.5949 67.7281 54.6513C68.1037 54.7171 68.6177 55.7507 68.9043 56.0326C69.1909 56.3239 69.7148 56.5119 69.4479 56.3897" fill="white"/>
<path d="M68.1927 56.1078C68.1729 55.9762 68.0642 55.3842 68.0839 55.4688C68.1037 55.5534 68.2025 56.6058 68.3014 56.6058C68.3903 56.6058 68.5584 55.6661 68.6276 55.4688M67.9357 56.6622C67.8467 56.587 67.8171 55.9105 67.8368 55.8071C67.8665 55.7037 67.9159 56.042 68.0741 56.0326C68.2322 56.0232 68.7363 55.8541 68.7857 55.7601" stroke="#1E1E1E" stroke-width="0.5" stroke-linecap="round"/>
<path fill-rule="evenodd" clip-rule="evenodd" d="M69.216 54.5407C69.4236 54.6347 69.2654 54.8978 69.4532 55.33C69.641 55.7623 70.6887 56.9839 70.3625 57.1342C70.0462 57.294 67.6148 56.4577 67.516 56.2509" fill="white"/>
<path d="M69.5816 55.3583C69.4136 55.471 68.8502 55.7529 68.8502 55.9033C68.8404 56.0442 69.5322 56.1382 69.5421 56.2134C69.552 56.298 69.0479 56.298 68.8799 56.3637M69.1863 55.9879C68.9491 56.0348 68.534 55.2925 68.5735 55.3865C68.6031 55.4804 69.3247 56.3637 69.4136 56.5705C69.4927 56.7678 69.1171 56.5705 69.0677 56.6175" stroke="#1E1E1E" stroke-width="0.5" stroke-linecap="round"/>
<path fill-rule="evenodd" clip-rule="evenodd" d="M70.8935 55.0935C71.022 55.46 71.0912 56.55 70.7947 56.7286C70.4883 56.9071 69.1243 56.2963 69.0848 56.1741C69.0452 56.0426 70.3104 55.7983 70.5673 55.9768" fill="white"/>
<path d="M70.2906 55.6667C70.2215 55.7419 69.9447 55.7043 69.9645 55.8076C69.9941 55.911 70.5476 56.1365 70.4389 56.2869C70.3401 56.4372 69.5691 56.7003 69.3517 56.7097M69.8558 55.4506C69.7569 55.5915 69.7075 56.0238 69.7866 56.2211C69.8656 56.409 70.4093 56.6158 70.3401 56.597C70.2709 56.5782 69.4999 56.1177 69.3715 56.0801" stroke="#1E1E1E" stroke-width="0.5" stroke-linecap="round"/>
<path fill-rule="evenodd" clip-rule="evenodd" d="M67.4282 55.954C67.7049 56.1138 68.3869 56.3111 68.209 56.3393C68.0311 56.3769 66.2915 56.2359 66.3508 56.142" fill="white"/>
<path d="M67.0032 56.3487C67.1119 56.1514 67.3788 55.315 67.4381 55.3432C67.4974 55.3714 67.4381 56.3863 67.3886 56.5272M66.677 56.048C66.7561 55.8882 67.2107 55.7285 67.2799 55.7097C67.359 55.7003 67.1613 55.8507 67.1218 55.9634" stroke="#1E1E1E" stroke-width="0.5" stroke-linecap="round"/>
<path d="M67.1605 56.0468C67.2099 56.0374 67.3878 56.1032 67.3878 56.0374M66.8541 55.7086C66.8343 55.5958 66.9134 55.4924 67.0715 55.53" stroke="#1E1E1E" stroke-width="0.5" stroke-linecap="round"/>
<path fill-rule="evenodd" clip-rule="evenodd" d="M69.4832 56.2274C69.5721 55.8233 71.6378 54.7427 72.1518 54.9212C72.6756 55.0998 72.6064 57.2329 72.5867 57.2892" fill="white"/>
<path d="M70.521 56.6127C70.4913 56.4341 70.5704 55.3441 70.6989 55.2971C70.8373 55.2407 71.1733 56.1053 71.3117 56.3026M71.114 56.406C71.1733 56.2744 71.3315 55.5978 71.3216 55.6166C71.3117 55.6448 70.9954 56.359 71.0547 56.5375" stroke="#1E1E1E" stroke-width="0.5" stroke-linecap="round"/>
<path d="M70.3885 55.8715C70.4873 55.7869 71.0408 55.7023 71.2187 55.6929M70.8629 56.4917C70.9123 56.4259 70.8333 56.05 70.9024 55.9936" stroke="#1E1E1E" stroke-width="0.5" stroke-linecap="round"/>
<path d="M65.9726 66.0347C68.5918 66.6455 70.1633 66.2508 70.9935 66.0347C74.2453 66.1193 74.8581 64.3996 73.504 68.4215C73.0395 71.0526 74.6901 74.8207 73.504 78.0532C71.1418 81.2106 74.3145 81.3703 70.9935 80.44C69.8964 80.5622 67.2377 79.8856 65.9726 80.44C64.2725 78.4479 65.6167 79.5755 63.4621 78.0532C64.2034 73.5991 63.3237 70.3384 63.4621 68.4215C62.365 68.2335 61.8411 64.1553 65.9726 66.0347Z" fill="white"/>
<path d="M65.9725 66.0347C67.6231 65.9313 69.1748 65.9595 70.9935 66.0347M65.9725 66.0347C67.4452 65.9501 68.9969 66.0441 70.9935 66.0347M65.9725 66.0347C64.401 66.4011 63.1556 66.4669 63.462 68.4215M65.9725 66.0347C63.887 65.0856 64.1736 66.1098 63.462 68.4215M70.9935 66.0347C72.6836 66.4951 73.7016 66.8616 73.5039 68.4215M70.9935 66.0347C73.7115 65.9783 74.2848 67.5758 73.5039 68.4215M73.5039 68.4215C73.9092 71.2969 73.8005 74.2757 73.5039 78.0532M73.5039 68.4215C73.6028 70.4794 73.4644 72.9883 73.5039 78.0532M73.5039 78.0532C73.672 79.2936 72.901 81.2669 70.9935 80.44M73.5039 78.0532C72.5847 79.5661 71.9522 80.9193 70.9935 80.44M70.9935 80.44C69.5998 80.2427 68.3742 80.6374 65.9725 80.44M70.9935 80.44C68.8981 80.5528 66.9411 80.4494 65.9725 80.44M65.9725 80.44C64.737 80.6374 63.037 78.9835 63.462 78.0532M65.9725 80.44C64.0748 80.534 63.5707 79.2748 63.462 78.0532M63.462 78.0532C63.3039 74.6892 63.1358 71.3909 63.462 68.4215M63.462 78.0532C63.2742 75.6194 63.2643 72.6219 63.462 68.4215" stroke="#1E1E1E" stroke-width="0.5" stroke-linecap="round"/>
<path d="M66.3158 66.6338C67.9565 66.5868 69.2908 66.6526 70.6449 66.6338M66.3158 66.6338C67.8972 66.6619 69.3403 66.6995 70.6449 66.6338M66.3158 66.6338C65.4955 66.0042 64.2501 67.6862 64.1513 68.6917M66.3158 66.6338C65.9501 65.6847 63.746 66.3706 64.1513 68.6917M70.6449 66.6338C72.2856 66.6619 73.7188 67.2727 72.7996 68.6917M70.6449 66.6338C72.8688 67.3761 73.0072 66.9345 72.7996 68.6917M72.7996 68.6917C73.1356 70.7402 72.5229 73.0142 72.7996 77.8348M72.7996 68.6917C72.8194 70.6368 72.8688 72.3564 72.7996 77.8348M72.7996 77.8348C73.0368 80.0337 71.2874 79.8269 70.6449 79.8927M72.7996 77.8348C72.088 79.686 71.7223 79.4698 70.6449 79.8927M70.6449 79.8927C69.0141 80.0243 67.4525 79.9209 66.3158 79.8927M70.6449 79.8927C69.3403 79.9303 68.253 79.9397 66.3158 79.8927M66.3158 79.8927C64.4478 79.2349 63.9635 79.2819 64.1513 77.8348M66.3158 79.8927C64.9815 79.5168 64.596 78.3328 64.1513 77.8348M64.1513 77.8348C63.8251 74.0761 64.0425 70.5334 64.1513 68.6917M64.1513 77.8348C63.9931 75.5889 64.1117 73.5874 64.1513 68.6917" stroke="#1E1E1E" stroke-width="0.5" stroke-linecap="round"/>
<path d="M68.3415 69.8874C68.9345 69.8592 69.9723 69.9814 70.5258 70.3291C71.0793 70.6767 71.5537 71.3721 71.6624 71.9829C71.7613 72.6031 71.4944 73.4958 71.1287 74.0126C70.7729 74.5388 70.081 74.9617 69.5077 75.1121C68.9345 75.2718 68.3118 75.206 67.6891 74.9429C67.0664 74.6798 66.0781 74.069 65.7717 73.5428C65.4554 73.0072 65.6531 72.3306 65.8211 71.7574C65.9891 71.1842 66.3647 70.4982 66.7897 70.1223C67.2147 69.7371 68.1141 69.5209 68.3711 69.4833C68.6281 69.4458 68.3415 69.8216 68.3316 69.8968M68.7862 70.0941C69.32 70.1129 69.7746 70.0096 70.17 70.3666C70.5752 70.7237 71.0892 71.6916 71.2078 72.246C71.3264 72.791 71.1188 73.2045 70.8915 73.6368C70.674 74.069 70.5258 74.614 69.8537 74.8395C69.1915 75.0651 67.5013 75.1121 66.8885 74.9805C66.2757 74.8489 66.3943 74.5764 66.1868 74.0314C65.9891 73.477 65.6728 72.2366 65.6827 71.6822C65.6827 71.1184 65.7914 71.0056 66.2263 70.6861C66.6612 70.3573 67.8374 69.878 68.2822 69.7371C68.7269 69.5961 68.8653 69.8592 68.8851 69.8404" stroke="#1E1E1E" stroke-width="0.5" stroke-linecap="round"/>
<path d="M67.4544 71.5555C67.6224 71.5179 67.83 71.6118 67.9189 71.7246C67.998 71.8374 67.9683 72.1005 67.9584 72.232C67.9486 72.3542 67.8893 72.4294 67.8596 72.4857C67.8398 72.5327 67.9486 72.5609 67.8201 72.5327C67.6916 72.5045 67.1974 72.3918 67.0986 72.326C66.9898 72.2602 67.2073 72.2414 67.1974 72.1475C67.1974 72.0535 67.1282 71.8749 67.059 71.7622C66.9997 71.6494 66.8218 71.4709 66.8317 71.4615C66.8317 71.4521 67.0491 71.6964 67.0986 71.7058C67.1579 71.7152 67.0986 71.5555 67.1677 71.5461M66.9701 71.5085C67.0096 71.4615 67.2863 71.8092 67.4148 71.8468C67.5532 71.8843 67.6224 71.6776 67.7805 71.7246C67.9387 71.781 68.4526 71.9971 68.3439 72.1475C68.2451 72.2884 67.2962 72.4763 67.1677 72.6079C67.0491 72.7395 67.6323 72.9932 67.6125 72.9274C67.5927 72.8616 67.2567 72.2884 67.0491 72.2038C66.8515 72.1193 66.4561 72.5139 66.3869 72.4294C66.3177 72.3542 66.4363 71.8562 66.634 71.734C66.8317 71.6024 67.5038 71.734 67.5829 71.6494C67.6718 71.5648 67.2073 71.2266 67.1579 71.2266" stroke="#1E1E1E" stroke-width="0.5" stroke-linecap="round"/>
<path d="M69.6243 71.601C69.7331 71.6574 69.7627 71.8735 69.8121 71.9769C69.8616 72.0708 69.8912 72.1366 69.9406 72.2024C69.9802 72.2682 70.1581 72.3339 70.079 72.3527C69.99 72.3809 69.5255 72.3339 69.4168 72.3339C69.3081 72.3245 69.486 72.3715 69.4366 72.3245C69.3871 72.2776 69.229 72.1366 69.1005 72.0332C68.972 71.9205 68.7051 71.7232 68.6557 71.6856C68.6063 71.6386 68.6953 71.7983 68.7842 71.7701C68.8831 71.7513 69.0807 71.554 69.2092 71.5258C69.3476 71.4976 69.5552 71.5822 69.5848 71.601M69.1697 71.7513C69.3278 71.7325 69.4563 71.4788 69.654 71.507C69.8616 71.5352 70.4546 71.7513 70.4052 71.9111C70.3656 72.0614 69.4761 72.287 69.3871 72.4561C69.2982 72.6252 69.9011 72.9447 69.8813 72.9259C69.8517 72.9072 69.4959 72.3997 69.2488 72.3527C69.0115 72.3058 68.547 72.7286 68.4284 72.6534C68.2999 72.5783 68.3394 72.0708 68.4976 71.9111C68.6458 71.7607 69.2092 71.8265 69.3377 71.7044C69.4662 71.5916 69.2586 71.2345 69.2685 71.2063C69.2784 71.1875 69.3476 71.554 69.3871 71.5916" stroke="#1E1E1E" stroke-width="0.5" stroke-linecap="round"/>
<path d="M68.4732 73.3155C68.6313 73.3249 68.8488 73.3437 69.0267 73.4095C69.2145 73.4659 69.5703 73.5786 69.5802 73.6632C69.6 73.7572 69.2145 73.8324 69.1255 73.9357C69.0366 74.0297 69.1749 74.227 69.0465 74.274C68.918 74.321 68.6116 74.274 68.3546 74.2176C68.0877 74.1519 67.6331 73.9545 67.4552 73.8793C67.2773 73.8042 67.2278 73.8793 67.2575 73.7666C67.2871 73.6444 67.3959 73.2873 67.6133 73.1746C67.8406 73.0618 68.4633 73.09 68.5918 73.0806C68.7104 73.0712 68.3546 73.1558 68.3842 73.1088M68.2953 72.8363C68.6017 72.7799 69.3825 72.9397 69.4912 73.09C69.5901 73.2404 68.8784 73.5035 68.8982 73.7384C68.9279 73.9733 69.6197 74.4244 69.6197 74.5183C69.6098 74.6123 69.2145 74.2458 68.8883 74.3022C68.572 74.3586 67.9592 74.8848 67.6924 74.8566C67.4255 74.8284 67.2773 74.3304 67.297 74.1425C67.3069 73.9545 67.722 73.9263 67.7813 73.7102C67.8406 73.5035 67.5639 72.9773 67.6528 72.8645C67.7517 72.7611 68.2162 73.0618 68.3546 73.0618C68.493 73.0618 68.4534 72.9303 68.5028 72.8739" stroke="#1E1E1E" stroke-width="0.5" stroke-linecap="round"/>
<path d="M68.792 73.9384C68.8415 73.9008 69.0787 73.8445 69.0688 73.7975C69.0688 73.7411 68.7327 73.6471 68.7426 73.6283C68.7525 73.6189 69.0885 73.6941 69.1281 73.7035C69.1775 73.7129 69.1182 73.6847 69.0292 73.6753C68.9304 73.6659 68.6635 73.6001 68.5647 73.6565C68.4758 73.7035 68.456 73.9666 68.4461 73.976C68.4362 73.9948 68.4164 73.7975 68.4955 73.7599C68.5647 73.7317 68.8415 73.7881 68.8711 73.7881C68.9106 73.7975 68.6537 73.8445 68.6932 73.7975C68.7228 73.7411 69.0885 73.5156 69.1083 73.4686M69.2665 73.6283C69.2269 73.6847 68.4066 73.7787 68.3967 73.8821C68.3868 73.976 69.138 74.2485 69.2269 74.2203C69.3258 74.2015 69.1083 73.7223 68.9601 73.7411C68.8217 73.7505 68.456 74.2861 68.3571 74.3143C68.2682 74.3425 68.2978 73.9666 68.3967 73.9008C68.5054 73.8351 68.9502 73.9948 68.9798 73.9196C68.9996 73.8445 68.5845 73.4686 68.5351 73.4404C68.4856 73.4216 68.624 73.7505 68.6833 73.7693C68.7327 73.7881 68.8019 73.6283 68.8612 73.5626C68.9205 73.4874 68.9304 73.3464 69.0095 73.337" stroke="#1E1E1E" stroke-width="0.5" stroke-linecap="round"/>
<path d="M66.7651 69.3807C66.8738 69.3995 66.5773 69.5593 66.607 69.7096C66.6267 69.86 66.8244 70.0761 66.9134 70.2828C66.9924 70.4895 67.1802 70.8372 67.1011 70.95C67.032 71.0721 66.6564 70.903 66.4785 70.9782C66.3006 71.044 66.1721 71.4668 66.0535 71.3822C65.9349 71.3071 65.7273 70.6305 65.7767 70.4895C65.8163 70.3486 66.2314 70.6305 66.3203 70.5365C66.4093 70.4332 66.2215 70.0385 66.2907 69.8975C66.3599 69.7472 66.6564 69.7378 66.7256 69.6438C66.7947 69.5499 66.7453 69.3619 66.7058 69.3337M66.943 69.9351C66.9924 69.9727 66.2907 69.9915 66.3599 70.0573C66.4192 70.1325 67.2198 70.2828 67.3384 70.3486C67.457 70.4238 67.2296 70.3016 67.0715 70.4707C66.9134 70.6493 66.4884 71.3634 66.3895 71.401C66.3006 71.4292 66.6465 70.7714 66.5279 70.6775C66.4093 70.5835 65.8459 70.809 65.6878 70.8184C65.5296 70.8278 65.5197 70.8372 65.5889 70.7245C65.668 70.6211 65.9052 70.3674 66.1227 70.1513C66.35 69.9445 66.8244 69.6062 66.9331 69.4653C67.0418 69.3243 66.8639 69.2961 66.7849 69.2867" fill="white"/>
<path d="M66.8244 69.7002C66.9133 69.6532 66.7156 69.6532 66.7947 69.7378C66.8837 69.8317 67.2592 70.0855 67.3185 70.2452C67.3779 70.405 67.279 70.5647 67.1308 70.6775C66.9825 70.7902 66.597 70.8372 66.3994 70.9218C66.2017 71.0063 66.0633 71.2413 65.9546 71.1943C65.8459 71.1567 65.7371 70.809 65.7668 70.6399C65.7964 70.4707 66.0633 70.3298 66.1226 70.1982C66.1819 70.0573 65.9941 69.9539 66.1226 69.8129C66.2511 69.6814 66.8244 69.4465 66.9034 69.3901C66.9825 69.3337 66.6168 69.4277 66.597 69.4653M66.0337 69.7754C66.1226 69.8411 67.0122 70.1606 67.1901 70.217C67.3779 70.2734 67.2494 69.9539 67.1406 70.1136C67.022 70.2734 66.6563 71.0063 66.5278 71.1755C66.3895 71.3446 66.3302 71.1191 66.3401 71.1191C66.3598 71.1285 66.6761 71.307 66.5871 71.2037C66.5081 71.0909 65.9842 70.6117 65.8656 70.4707C65.7569 70.3298 65.8459 70.4707 65.9052 70.3392C65.9546 70.2076 66.0732 69.8599 66.2017 69.6814C66.3302 69.5029 66.5476 69.2867 66.6761 69.2491C66.8046 69.2209 67.022 69.4465 66.9726 69.4653" stroke="white" stroke-width="0.5" stroke-linecap="round"/>
<path fill-rule="evenodd" clip-rule="evenodd" d="M64.7301 68.9611C65.1047 69.1108 66.6304 69.8622 67.0165 70.2389C67.3928 70.6149 67.012 71.4072 67.0475 71.2118C67.083 71.0165 67.2136 69.1412 67.2302 69.0575" fill="white"/>
<path d="M65.8249 70.2656C65.9676 70.4645 66.2298 71.3976 66.4519 71.4703C66.6839 71.5436 67.155 70.9841 67.2072 70.7051C67.2494 70.4255 66.8314 69.9522 66.7646 69.7966M65.592 69.9566C65.7126 70.0596 66.1073 70.8233 66.3417 70.9911C66.5753 71.1682 66.9127 71.2869 66.986 70.9907C67.0692 70.6951 66.737 69.3988 66.7998 69.2337" stroke="#1E1E1E" stroke-width="0.5" stroke-linecap="round"/>
<path fill-rule="evenodd" clip-rule="evenodd" d="M64.6125 69.031C64.983 68.9715 66.5569 68.8821 66.9594 69.0365C67.352 69.1923 66.9587 69.9668 66.9895 69.9721" fill="white"/>
<path d="M65.9366 70.3422C66.0149 70.3316 66.3114 70.1112 66.4596 70.0342C66.6176 69.9559 66.791 69.9135 66.8637 69.8657M65.6068 70.2064C65.6347 70.2596 66.1293 70.5629 66.279 70.4288C66.4189 70.296 66.397 69.6156 66.4768 69.415" stroke="#1E1E1E" stroke-width="0.5" stroke-linecap="round"/>
<path d="M70.7313 69.7579C70.8202 69.7203 70.7016 69.4854 70.7214 69.5982C70.7411 69.7109 70.8301 70.3123 70.8499 70.4439C70.8597 70.566 70.751 70.2465 70.8004 70.3781C70.8499 70.5191 71.1859 71.158 71.1464 71.2802C71.1068 71.4024 70.7115 71.1956 70.583 71.1111C70.4545 71.0171 70.4347 70.9231 70.3853 70.7258C70.3359 70.5285 70.2964 70.1056 70.2766 69.9083C70.247 69.7109 70.2173 69.617 70.2371 69.5418C70.2568 69.4666 70.3359 69.4196 70.3853 69.476C70.4446 69.5324 70.494 69.8989 70.5632 69.8801M70.751 69.3538C70.7411 69.3914 70.5534 70.0586 70.6423 70.1338C70.7313 70.209 71.2848 69.7203 71.2749 69.8237C71.2749 69.9271 70.7906 70.4815 70.6423 70.7446C70.4842 71.0171 70.3853 71.346 70.3458 71.4305C70.3063 71.5151 70.3359 71.4399 70.3754 71.2708C70.4249 71.1017 70.6028 70.6976 70.6127 70.4439C70.6225 70.1808 70.494 69.9083 70.4446 69.7391C70.3952 69.5606 70.326 69.3914 70.326 69.4008C70.326 69.4196 70.4842 69.8613 70.4644 69.8331C70.4446 69.8049 70.1382 69.2787 70.2074 69.2223" fill="white"/>
<path d="M70.7807 69.382C70.8104 69.3538 70.7016 69.3538 70.7115 69.5042C70.7115 69.6545 70.8005 70.0962 70.8202 70.2841C70.84 70.4627 70.8202 70.4909 70.84 70.6224C70.8598 70.7446 71.0179 70.9607 70.9388 71.0453C70.8598 71.1298 70.4348 71.1956 70.3557 71.1016C70.2865 71.0077 70.5336 70.66 70.4842 70.4815C70.4348 70.3029 70.0888 70.1808 70.079 70.0398C70.0592 69.9082 70.3359 69.7109 70.3952 69.6733C70.4644 69.6451 70.4348 69.9082 70.4644 69.8519C70.4842 69.7861 70.4941 69.2881 70.5336 69.2881M70.2371 70.0304C70.2667 70.068 70.4447 69.8049 70.6324 69.8707C70.8202 69.927 71.3342 70.2935 71.3638 70.3969C71.4034 70.4909 70.9388 70.3405 70.8202 70.4533C70.6917 70.566 70.6917 71.0265 70.6324 71.0829C70.5633 71.1392 70.4644 70.9513 70.415 70.8009C70.3656 70.6506 70.2964 70.3499 70.326 70.1996C70.3656 70.0398 70.6226 70.021 70.6127 69.8801C70.6028 69.7391 70.2667 69.4008 70.2569 69.3256C70.2569 69.2599 70.5138 69.4572 70.583 69.4384C70.6522 69.429 70.7412 69.1471 70.6917 69.2411" stroke="white" stroke-width="0.5" stroke-linecap="round"/>
<path fill-rule="evenodd" clip-rule="evenodd" d="M71.6838 69.716C71.6403 69.9933 71.6817 72.1313 71.2027 72.3134C70.7137 72.4963 69.0806 71.1628 68.7582 70.7939C68.427 70.4351 69.0927 70.4448 69.2141 70.1515" fill="white"/>
<path d="M71.352 70.5176C71.2039 70.7377 70.9386 71.4017 70.6514 71.4071C70.3748 71.4211 69.7959 70.9607 69.6525 70.5954C69.4993 70.2311 69.6826 69.4325 69.7707 69.2081M71.8893 70.3212C71.6644 70.4629 70.69 70.8661 70.272 70.9581C69.844 71.0509 69.4358 71.1421 69.3504 70.8663C69.266 70.5999 69.6616 69.6324 69.7445 69.3518" stroke="#1E1E1E" stroke-width="0.5" stroke-linecap="round"/>
<path fill-rule="evenodd" clip-rule="evenodd" d="M71.6336 69.6835C71.5558 69.8161 71.1908 71.401 70.7301 71.3444C70.2792 71.2889 69.1871 69.5724 68.9086 69.3487" fill="white"/>
<path d="M71.1674 70.3273C71.0488 70.2464 70.6302 70.1002 70.4054 69.921C70.1806 69.7418 69.8465 69.3407 69.8199 69.2427M71.7613 70.2108C71.735 70.3307 71.2442 70.422 71.04 70.3117C70.8357 70.2013 70.6297 69.6643 70.5089 69.5263" stroke="#1E1E1E" stroke-width="0.5" stroke-linecap="round"/>
<path d="M67.8806 73.6803C67.9597 73.6615 68.2562 73.7367 68.2958 73.7555C68.3353 73.7837 68.0684 73.8589 68.0981 73.8213C68.1376 73.7837 68.5033 73.5769 68.5132 73.5488C68.5231 73.5206 68.1969 73.6145 68.1574 73.6427C68.1179 73.6803 68.3057 73.6709 68.276 73.7461C68.2365 73.8213 67.9993 74.1502 67.9498 74.1032C67.9103 74.0562 67.9597 73.5018 67.9993 73.483C68.0388 73.4548 68.1179 73.8964 68.187 73.9434C68.2661 73.9904 68.4638 73.8495 68.4539 73.7555C68.4341 73.6709 68.0783 73.4454 68.0783 73.3984M67.9399 73.3608C67.9004 73.3514 68.0487 73.7085 68.108 73.7461C68.1574 73.7837 68.2266 73.6521 68.276 73.5957C68.3254 73.5394 68.3452 73.4172 68.4144 73.4266C68.4737 73.436 68.7307 73.6427 68.6615 73.6615C68.6022 73.6709 68.1376 73.5018 68.0289 73.5112C67.9103 73.5112 67.9498 73.6991 67.9597 73.6803C67.9597 73.6615 68.0981 73.3514 68.0586 73.4172C68.019 73.4736 67.7818 74.0844 67.7324 74.0656C67.6731 74.0562 67.7126 73.4266 67.7522 73.3326C67.8016 73.2387 67.9301 73.4172 67.9993 73.5112" stroke="#1E1E1E" stroke-width="0.5" stroke-linecap="round"/>
<path d="M65.6952 76.5864C65.7347 76.6897 65.9621 77.0938 65.9818 77.2629M66.219 77.1502C66.2487 77.3005 65.9028 77.573 65.794 77.5542" stroke="#1E1E1E" stroke-width="0.5" stroke-linecap="round"/>
<path fill-rule="evenodd" clip-rule="evenodd" d="M65.2191 76.1934C65.7133 76.0148 67.7494 75.996 67.7296 76.2215C67.7198 76.4471 65.3575 77.1518 65.1598 77.5277C64.9523 77.8942 66.425 78.5426 66.5337 78.458" fill="white"/>
<path d="M65.8419 76.447C66.0099 76.4752 66.3558 76.494 66.4645 76.588C66.5733 76.6819 66.6128 76.8511 66.4744 77.0108C66.3262 77.1612 65.8122 77.4901 65.6046 77.5277M65.5157 77.0296C65.6541 76.9826 66.0593 76.0054 66.1878 76.0524C66.3163 76.0993 66.3558 77.1518 66.2767 77.3115C66.2076 77.4619 65.8122 76.9733 65.7232 76.9733" stroke="#1E1E1E" stroke-width="0.5" stroke-linecap="round"/>
<path fill-rule="evenodd" clip-rule="evenodd" d="M69.0357 77.1952C68.927 77.214 66.6439 76.81 66.6735 77.0637C66.7032 77.308 68.8875 78.8397 69.2136 78.7081C69.5497 78.5766 69.0061 76.4341 68.6503 76.2838" fill="white"/>
<path d="M67.7706 77.5617C67.7706 77.449 67.8991 76.5093 67.9781 76.5469C68.0671 76.5844 68.2746 77.7872 68.2845 77.7778C68.3043 77.7778 68.0869 76.6878 68.0671 76.4999M67.3357 77.3268C67.2863 77.2892 67.6124 76.9133 67.7409 76.9039C67.8694 76.8945 68.0671 77.308 68.1066 77.2892C68.1462 77.2704 67.8991 76.8664 67.988 76.7912" stroke="#1E1E1E" stroke-width="0.5" stroke-linecap="round"/>
<path fill-rule="evenodd" clip-rule="evenodd" d="M68.1614 76.9438C68.0131 77.2351 69.5254 77.9962 69.7626 78.0056C69.9998 78.0244 69.9899 76.9062 69.5649 77.0284C69.1498 77.1599 67.598 78.6822 67.2521 78.7856" fill="white"/>
<path d="M69.4759 76.4364C69.387 76.5021 68.9224 76.9438 68.8335 77.0754C68.7544 77.2163 69.0707 77.1599 68.9817 77.2539C68.8928 77.3479 68.4183 77.6298 68.3294 77.658M69.0806 76.0793C68.9521 76.0511 68.5073 76.3894 68.6061 76.6431C68.705 76.8968 69.7329 77.5358 69.6736 77.6016C69.6242 77.6674 68.3986 77.0566 68.2899 77.0284" stroke="#1E1E1E" stroke-width="0.5" stroke-linecap="round"/>
<path fill-rule="evenodd" clip-rule="evenodd" d="M71.2029 77.7691C71.3808 77.7221 70.3925 76.4629 69.9971 76.6226C69.5919 76.7824 69.0977 78.5208 68.811 78.7087C68.5244 78.8873 68.0796 77.863 68.2674 77.7221" fill="white"/>
<path d="M70.2739 76.8388C70.1355 76.9139 69.4733 76.7166 69.4041 76.8388C69.3448 76.9609 69.9181 77.4778 69.8884 77.5811C69.8588 77.6751 69.2657 77.459 69.2262 77.4496M69.8983 76.7072C69.8588 76.8388 69.9279 77.2052 70.0466 77.2522C70.1652 77.2992 70.7483 76.9327 70.6198 77.0079C70.4814 77.0737 69.4436 77.5905 69.246 77.6845" stroke="#1E1E1E" stroke-width="0.5" stroke-linecap="round"/>
<path fill-rule="evenodd" clip-rule="evenodd" d="M67.7376 78.6295C68.0637 78.3664 67.6783 76.2333 67.4114 76.2427C67.1347 76.2427 66.2649 78.4604 66.087 78.6765" fill="white"/>
<path d="M66.4427 77.3798C66.4526 77.2012 66.7491 76.6468 66.8875 76.628C67.0259 76.6092 67.1346 77.1542 67.273 77.267M66.9369 77.0791C67.0555 76.9475 67.5497 76.036 67.5596 76.1206C67.5695 76.1958 67.105 77.314 66.9864 77.5677" stroke="#1E1E1E" stroke-width="0.5" stroke-linecap="round"/>
<path d="M66.61 77.341C66.7286 77.2753 67.0943 76.8618 67.2722 76.7772M67.1338 77.1249C67.2228 77.1061 66.8571 77.1249 66.946 77.1343" stroke="#1E1E1E" stroke-width="0.5" stroke-linecap="round"/>
<path fill-rule="evenodd" clip-rule="evenodd" d="M69.2193 78.7619C69.0612 78.6679 69.4071 76.8167 69.8519 76.6664C70.3065 76.5161 71.7594 77.8598 71.8978 77.8598" fill="white"/>
<path d="M70.4053 77.3524C70.5635 77.155 71.1565 76.4033 71.2553 76.4597C71.3443 76.5161 70.9193 77.4463 70.9687 77.6813M70.9786 76.9953C71.1466 76.8355 71.028 76.8355 71.1466 76.8449C71.2553 76.8637 71.542 77.0047 71.6507 77.0893" stroke="#1E1E1E" stroke-width="0.5" stroke-linecap="round"/>
<path d="M70.9351 77.0341C71.0043 77.0528 70.7868 77.0341 70.8758 77.081M70.6781 76.7146C70.856 76.6394 71.3799 76.5266 71.4985 76.5454" stroke="#1E1E1E" stroke-width="0.5" stroke-linecap="round"/>
</svg>
