<svg version="1.1" xmlns="http://www.w3.org/2000/svg" viewBox="0 0 1313.1406762969646 1187.249767475896" width="1313.1406762969646" height="1187.249767475896" class="excalidraw-svg">
  <!-- svg-source:excalidraw -->
  
  <defs>
    <style class="style-fonts">
      
    </style>
    
  </defs>
  <rect x="0" y="0" width="1313.1406762969646" height="1187.249767475896" fill="#ffffff"/><g stroke-linecap="round" transform="translate(10 582.7647993412028) rotate(0 151.76944499951594 52.55568821836418)"><path d="M26.28 0 C96.45 1.59, 166.1 1.21, 277.26 0 M26.28 0 C94.67 1.28, 165.14 1.19, 277.26 0 M277.26 0 C293.39 -0.6, 305.23 7.56, 303.54 26.28 M277.26 0 C295.76 -1.63, 301.8 9.95, 303.54 26.28 M303.54 26.28 C304.03 40.3, 304.67 56.83, 303.54 78.83 M303.54 26.28 C304.01 47.38, 303.62 69.08, 303.54 78.83 M303.54 78.83 C303.9 97.3, 295.11 105.61, 277.26 105.11 M303.54 78.83 C302.74 98.19, 294.95 106.31, 277.26 105.11 M277.26 105.11 C178 102.43, 79.59 102.71, 26.28 105.11 M277.26 105.11 C209.02 105.9, 142.02 105.64, 26.28 105.11 M26.28 105.11 C8.08 106.87, -0.92 96.22, 0 78.83 M26.28 105.11 C10.7 104.48, 1.88 95.92, 0 78.83 M0 78.83 C0.74 60.45, -1.3 40.71, 0 26.28 M0 78.83 C0.42 67.23, -0.29 56.94, 0 26.28 M0 26.28 C-1.01 9.73, 9.44 -1.94, 26.28 0 M0 26.28 C-1.14 7.88, 10.26 -0.29, 26.28 0" stroke="#1e1e1e" stroke-width="4" fill="none"/></g><g stroke-linecap="round" transform="translate(43.39754336723581 997.8129257169326) rotate(0 181.0211485787671 89.71842087948181)"><path d="M32 0 C126.7 -0.96, 221.29 -1.36, 330.04 0 M32 0 C126.36 -0.36, 222.36 -0.58, 330.04 0 M330.04 0 C352.23 -1.41, 360.53 11.7, 362.04 32 M330.04 0 C350.91 -1.47, 362.56 11.62, 362.04 32 M362.04 32 C364.88 62.96, 362.2 94.33, 362.04 147.44 M362.04 32 C362.26 68.23, 362.24 103.76, 362.04 147.44 M362.04 147.44 C361.35 170.37, 351.52 180.48, 330.04 179.44 M362.04 147.44 C364.17 170.33, 349.41 178.41, 330.04 179.44 M330.04 179.44 C257.16 179.92, 185.28 177.79, 32 179.44 M330.04 179.44 C218.24 181.03, 106.6 180.33, 32 179.44 M32 179.44 C12.36 178.89, 1.64 168.4, 0 147.44 M32 179.44 C11.96 177.91, -1.4 169.22, 0 147.44 M0 147.44 C-0.79 110.56, -0.8 74.95, 0 32 M0 147.44 C-0.07 117.96, 0.77 86.54, 0 32 M0 32 C-0.99 9.9, 11.97 -0.26, 32 0 M0 32 C0.18 12.35, 10.83 1.37, 32 0" stroke="#1e1e1e" stroke-width="4" fill="none"/></g><g stroke-linecap="round" transform="translate(941.0983791394302 14.155174463777257) rotate(0 181.0211485787671 89.71842087948181)"><path d="M32 0 C119.36 0.12, 208.63 2.41, 330.04 0 M32 0 C123.91 0.21, 214.88 0.14, 330.04 0 M330.04 0 C349.86 1.04, 361.64 9.39, 362.04 32 M330.04 0 C351.89 0.95, 361.27 12.35, 362.04 32 M362.04 32 C362.5 74.12, 363.39 114.63, 362.04 147.44 M362.04 32 C362.42 76.07, 361.9 120.45, 362.04 147.44 M362.04 147.44 C362.19 169.81, 353.23 180.79, 330.04 179.44 M362.04 147.44 C360.08 167.75, 350.07 178.58, 330.04 179.44 M330.04 179.44 C252.71 180.7, 176.22 182.18, 32 179.44 M330.04 179.44 C227.5 181.31, 126.25 181.16, 32 179.44 M32 179.44 C12.3 179.06, 1.12 167.45, 0 147.44 M32 179.44 C9.27 179.88, 0.39 166.87, 0 147.44 M0 147.44 C-0.74 117.45, 0.2 85.36, 0 32 M0 147.44 C0.92 106.05, 0.09 66.22, 0 32 M0 32 C1.31 10.41, 10.82 1.46, 32 0 M0 32 C0.16 12.04, 8.94 1.12, 32 0" stroke="#1e1e1e" stroke-width="4" fill="none"/></g><g stroke-linecap="round" transform="translate(283.2639295788995 10) rotate(0 389.54337286106295 582.9678641525626)"><path d="M32 0 C274.59 -2.97, 515.69 -2.74, 747.09 0 C765.41 2.43, 775.71 9.71, 779.09 32 C780.79 429.59, 781.21 830.46, 779.09 1133.94 C779.16 1154.94, 769.74 1164.97, 747.09 1165.94 C483.15 1168.21, 220.11 1166.51, 32 1165.94 C8.09 1168.45, -1.04 1157.09, 0 1133.94 C-4.73 836.37, -7.42 539.78, 0 32 C0.29 7.85, 7.38 -1.34, 32 0" stroke="none" stroke-width="0" fill="#ffffff"/><path d="M32 0 C195.62 3.27, 359 2.26, 747.09 0 M32 0 C225.32 1.44, 418.01 1.93, 747.09 0 M747.09 0 C768.01 -1.28, 779.54 11.5, 779.09 32 M747.09 0 C767.65 1.69, 780.41 12.96, 779.09 32 M779.09 32 C777.65 374.28, 778.21 716.66, 779.09 1133.94 M779.09 32 C779.67 415.01, 779.83 797.6, 779.09 1133.94 M779.09 1133.94 C780.94 1156.62, 766.71 1165.05, 747.09 1165.94 M779.09 1133.94 C777.78 1154.41, 767.5 1165.25, 747.09 1165.94 M747.09 1165.94 C467.12 1164.84, 186.31 1164.18, 32 1165.94 M747.09 1165.94 C470.18 1165.64, 192.93 1165.67, 32 1165.94 M32 1165.94 C11.79 1164.61, -1.22 1155.66, 0 1133.94 M32 1165.94 C11.06 1164.04, -0.79 1153.27, 0 1133.94 M0 1133.94 C3.53 819.22, 4.25 504.7, 0 32 M0 1133.94 C-1.69 749.68, -1.23 365.68, 0 32 M0 32 C0.16 12.13, 10.81 1.19, 32 0 M0 32 C-1.72 11.79, 10.48 0.47, 32 0" stroke="#1e1e1e" stroke-width="4" fill="none"/></g><g stroke-linecap="round" transform="translate(463.3367966094508 1000.7117046135542) rotate(0 42.626085228899825 64.33308734320292)"><path d="M21.31 0 C30.03 -1.63, 37.89 1.45, 63.94 0 M21.31 0 C30.78 0.82, 41.56 -0.34, 63.94 0 M63.94 0 C78.6 0.83, 84.58 8.57, 85.25 21.31 M63.94 0 C79.47 2.29, 85.5 6.31, 85.25 21.31 M85.25 21.31 C86.93 51.05, 86.28 80.39, 85.25 107.35 M85.25 21.31 C85.03 49.78, 85.88 77.88, 85.25 107.35 M85.25 107.35 C83.54 120.67, 77.01 127.92, 63.94 128.67 M85.25 107.35 C84.33 120.88, 80.27 128.87, 63.94 128.67 M63.94 128.67 C54.23 128.2, 44.55 127.95, 21.31 128.67 M63.94 128.67 C52.25 128.36, 39.48 127.89, 21.31 128.67 M21.31 128.67 C5.89 129.05, 0.34 119.91, 0 107.35 M21.31 128.67 C6.31 126.67, -0.34 119.55, 0 107.35 M0 107.35 C1.35 77.6, 1.32 50.54, 0 21.31 M0 107.35 C1.08 89.74, 0.5 73.12, 0 21.31 M0 21.31 C0.14 8.3, 5.61 0.98, 21.31 0 M0 21.31 C-0.19 7.57, 8 -1.21, 21.31 0" stroke="#1e1e1e" stroke-width="4" fill="none"/></g><g stroke-linecap="round" transform="translate(579.8129932138406 1000.7117046135542) rotate(0 42.62608522889981 64.33308734320292)"><path d="M21.31 0 C35.94 1.99, 50.55 1.15, 63.94 0 M21.31 0 C30.88 -0.86, 41.09 0.19, 63.94 0 M63.94 0 C77.48 1.47, 86.41 9.1, 85.25 21.31 M63.94 0 C78.39 -0.79, 86.2 7.33, 85.25 21.31 M85.25 21.31 C86.88 47.69, 86.43 72.72, 85.25 107.35 M85.25 21.31 C86.24 54.69, 84.46 86.26, 85.25 107.35 M85.25 107.35 C84.11 120.81, 77.35 128.07, 63.94 128.67 M85.25 107.35 C87.38 121.77, 76.95 130.37, 63.94 128.67 M63.94 128.67 C50.82 127.6, 34.06 130.21, 21.31 128.67 M63.94 128.67 C52.88 127.92, 40.08 128.78, 21.31 128.67 M21.31 128.67 C7.44 127.02, -0.69 119.82, 0 107.35 M21.31 128.67 C6.77 126.66, 0.78 120.63, 0 107.35 M0 107.35 C0.54 85.41, -2.37 61.13, 0 21.31 M0 107.35 C-0.48 85.56, -0.49 62.9, 0 21.31 M0 21.31 C-1.5 8.08, 6.94 0.41, 21.31 0 M0 21.31 C0.9 5.89, 7.91 0.26, 21.31 0" stroke="#1e1e1e" stroke-width="4" fill="none"/></g><g stroke-linecap="round" transform="translate(811.0728124214759 1000.7117046135542) rotate(0 42.62608522889981 64.33308734320292)"><path d="M21.31 0 C29.94 0.49, 39.56 -1.87, 63.94 0 M21.31 0 C36.54 0.69, 50.98 1.01, 63.94 0 M63.94 0 C79.3 1.99, 85.46 6.42, 85.25 21.31 M63.94 0 C79.1 0.22, 85.32 8.94, 85.25 21.31 M85.25 21.31 C86.15 48, 87.26 76.21, 85.25 107.35 M85.25 21.31 C85.19 51.17, 85.48 81.55, 85.25 107.35 M85.25 107.35 C84.45 120.97, 79.99 128.84, 63.94 128.67 M85.25 107.35 C84.06 123.27, 79.27 129.65, 63.94 128.67 M63.94 128.67 C52.46 130.16, 40.71 130.11, 21.31 128.67 M63.94 128.67 C51.34 128.58, 40.13 127.56, 21.31 128.67 M21.31 128.67 C6.42 126.93, -0.29 119.81, 0 107.35 M21.31 128.67 C7.89 127.74, -0.85 122.71, 0 107.35 M0 107.35 C-2.35 84.88, -1.18 65.69, 0 21.31 M0 107.35 C0 83.24, -0.82 58.42, 0 21.31 M0 21.31 C-0.16 7.51, 7.88 -1.05, 21.31 0 M0 21.31 C0.81 7.36, 5.24 -1.87, 21.31 0" stroke="#1e1e1e" stroke-width="4" fill="none"/></g><g stroke-linecap="round" transform="translate(68.85482410143322 1033.6332076207286) rotate(0 42.6260852288998 58.03057034108866)"><path d="M21.31 0 C36.29 -1.69, 55.14 -0.59, 63.94 0 M21.31 0 C31.04 0.56, 42.03 0.82, 63.94 0 M63.94 0 C78.36 -0.69, 86.08 7.3, 85.25 21.31 M63.94 0 C78.21 1.83, 85.67 8.19, 85.25 21.31 M85.25 21.31 C87.03 44.68, 86.48 69.62, 85.25 94.75 M85.25 21.31 C84.05 47.95, 84.22 75.03, 85.25 94.75 M85.25 94.75 C87.1 109.13, 77.11 117.55, 63.94 116.06 M85.25 94.75 C86.38 109.94, 77.37 118.08, 63.94 116.06 M63.94 116.06 C52.57 118.06, 41.91 117.55, 21.31 116.06 M63.94 116.06 C54.14 115.32, 43.66 115.27, 21.31 116.06 M21.31 116.06 C6.81 114.31, 0.68 108.15, 0 94.75 M21.31 116.06 C6.25 117.21, -1.16 110.07, 0 94.75 M0 94.75 C-0.05 71.54, 0.46 45.87, 0 21.31 M0 94.75 C-0.8 67.83, -0.13 40.14, 0 21.31 M0 21.31 C0.78 6.05, 7.81 0.23, 21.31 0 M0 21.31 C-1.86 5.24, 5.61 -1.92, 21.31 0" stroke="#1e1e1e" stroke-width="4" fill="none"/></g><g stroke-linecap="round" transform="translate(180.0060792854672 1054.314541335388) rotate(0 38.169102194889604 38.16910219488962)"><path d="M43.2 0.82 C50.41 1.18, 59.59 5.09, 64.93 10.12 C70.27 15.14, 73.88 23.63, 75.22 30.95 C76.57 38.26, 75.92 47.23, 73.01 54 C70.1 60.77, 64.23 67.85, 57.78 71.56 C51.34 75.27, 41.87 77.19, 34.35 76.26 C26.83 75.33, 18.11 71.04, 12.65 65.98 C7.19 60.92, 3.02 52.99, 1.57 45.88 C0.12 38.76, 0.87 30.25, 3.95 23.29 C7.02 16.33, 13.29 7.99, 20.03 4.11 C26.76 0.23, 39.94 0.46, 44.36 0.01 C48.79 -0.44, 46.66 0.53, 46.57 1.41 M40.59 0.68 C47.76 0.52, 55.83 5.09, 61.44 9.63 C67.05 14.16, 71.98 20.98, 74.27 27.9 C76.56 34.82, 77.48 44.18, 75.18 51.15 C72.88 58.12, 66.75 65.71, 60.44 69.73 C54.13 73.76, 45.15 75.54, 37.32 75.31 C29.49 75.07, 19.42 73.02, 13.47 68.32 C7.53 63.62, 3.56 54.58, 1.63 47.11 C-0.29 39.63, -0.63 30.49, 1.91 23.47 C4.46 16.46, 10.49 9.02, 16.9 5.02 C23.31 1.01, 36.64 0.01, 40.37 -0.57 C44.1 -1.15, 39.51 0.69, 39.27 1.55" stroke="#1e1e1e" stroke-width="4" fill="none"/></g><g stroke-linecap="round" transform="translate(352.2684972419445 622.668896663941) rotate(0 324.5436358014781 165.54050212509688)"><path d="M32 0 C221.31 1.25, 410.24 0.87, 617.09 0 M32 0 C187.38 0.09, 342.81 -0.04, 617.09 0 M617.09 0 C638.75 0.5, 648.39 12.27, 649.09 32 M617.09 0 C638.59 1.2, 651.22 12.22, 649.09 32 M649.09 32 C647.56 88.65, 647.68 148.03, 649.09 299.08 M649.09 32 C648.38 114.83, 647.73 197.67, 649.09 299.08 M649.09 299.08 C648.17 320.28, 640.11 330.54, 617.09 331.08 M649.09 299.08 C650.97 319.98, 639.71 329.56, 617.09 331.08 M617.09 331.08 C476.55 331.2, 336.63 331.36, 32 331.08 M617.09 331.08 C492.55 330.34, 368.11 330.33, 32 331.08 M32 331.08 C11.34 329.15, -0.99 319.65, 0 299.08 M32 331.08 C12.17 330.79, 0.18 322.1, 0 299.08 M0 299.08 C-0.49 216.96, -0.94 135.7, 0 32 M0 299.08 C-1.38 232.4, -1.25 166.34, 0 32 M0 32 C1.35 8.79, 10.13 1.24, 32 0 M0 32 C0.44 9.38, 10.97 -1.92, 32 0" stroke="#1e1e1e" stroke-width="4" fill="none"/></g><g stroke-linecap="round" transform="translate(478.8846456646194 798.3810579830904) rotate(0 50.38829636625158 73.85708952502195)"><path d="M25.19 0 C40.61 -0.08, 51.35 0.54, 75.58 0 M25.19 0 C40.98 0.07, 56.57 -0.15, 75.58 0 M75.58 0 C91.68 1.6, 100.92 9.44, 100.78 25.19 M75.58 0 C94.51 1.56, 98.81 7.37, 100.78 25.19 M100.78 25.19 C99.82 50.7, 100.59 71.47, 100.78 122.52 M100.78 25.19 C100.91 62.5, 100.79 97.98, 100.78 122.52 M100.78 122.52 C102.47 138.77, 94.01 147.34, 75.58 147.71 M100.78 122.52 C102.07 137.79, 90.98 148.16, 75.58 147.71 M75.58 147.71 C57.88 147.25, 41.9 148.22, 25.19 147.71 M75.58 147.71 C62 148.45, 49.76 147, 25.19 147.71 M25.19 147.71 C7.41 146.95, 1.31 139.06, 0 122.52 M25.19 147.71 C8.58 149.4, 0.16 140.69, 0 122.52 M0 122.52 C-0.07 101.4, -1.53 79.41, 0 25.19 M0 122.52 C0.14 91.39, 1.46 60.99, 0 25.19 M0 25.19 C-0.53 9.64, 8.78 -1.11, 25.19 0 M0 25.19 C0.31 6.48, 9.36 1.38, 25.19 0" stroke="#1e1e1e" stroke-width="4" fill="none"/></g><g stroke-linecap="round"><g transform="translate(529.3771779165638 902.0200030870142) rotate(0 0.6065260742622627 -27.596300122322933)"><path d="M0.13 -0.41 C0.3 -0.29, 1.73 11.21, 1.71 1.94 C1.69 -7.34, 0.28 -46.33, 0.03 -56.06 M-1.27 -1.68 C-1.27 -0.83, 0.93 12.91, 1.02 3.54 C1.11 -5.84, -0.64 -47.52, -0.71 -57.9" stroke="#1e1e1e" stroke-width="4" fill="none"/></g><g transform="translate(529.3771779165638 902.0200030870142) rotate(0 0.6065260742622627 -27.596300122322933)"><path d="M8.45 -34.64 C4.25 -42.12, 1.86 -51.21, -0.71 -57.9 M8.45 -34.64 C5.09 -43.18, 1.1 -51.46, -0.71 -57.9" stroke="#1e1e1e" stroke-width="4" fill="none"/></g><g transform="translate(529.3771779165638 902.0200030870142) rotate(0 0.6065260742622627 -27.596300122322933)"><path d="M-8.64 -34.19 C-6.73 -41.85, -3.01 -51.1, -0.71 -57.9 M-8.64 -34.19 C-5.51 -42.98, -3.01 -51.43, -0.71 -57.9" stroke="#1e1e1e" stroke-width="4" fill="none"/></g></g><mask/><g stroke-linecap="round" transform="translate(480.98020294785914 632.637937750837) rotate(0 50.38829636625158 73.85708952502195)"><path d="M25.19 0 C41.04 -0.15, 58.09 0.16, 75.58 0 M25.19 0 C42.35 0.68, 60.27 0.4, 75.58 0 M75.58 0 C94.23 1.36, 99.07 7.51, 100.78 25.19 M75.58 0 C91.07 -0.86, 99.85 7.71, 100.78 25.19 M100.78 25.19 C102.35 64.36, 101.72 100.89, 100.78 122.52 M100.78 25.19 C101.17 62.66, 101.15 100.47, 100.78 122.52 M100.78 122.52 C101.9 137.99, 91.16 148.1, 75.58 147.71 M100.78 122.52 C101.17 137.42, 91.59 145.71, 75.58 147.71 M75.58 147.71 C60.4 147.14, 47.83 146.88, 25.19 147.71 M75.58 147.71 C57.52 146.84, 41.11 147.1, 25.19 147.71 M25.19 147.71 C8.55 149.18, 0.14 140.51, 0 122.52 M25.19 147.71 C6.67 148.84, -0.19 139.79, 0 122.52 M0 122.52 C0.74 87.91, -1.11 55.23, 0 25.19 M0 122.52 C-0.92 102.09, -0.47 79.86, 0 25.19 M0 25.19 C0.27 6.73, 9.24 1.2, 25.19 0 M0 25.19 C0.05 8.19, 9.24 -0.62, 25.19 0" stroke="#1e1e1e" stroke-width="4" fill="none"/></g><g stroke-linecap="round"><g transform="translate(500.8945555897407 683.2220726878134) rotate(0 15.281692029332504 -4.791891737126306)"><path d="M0.02 0.44 C5.09 -1.12, 25.56 -7.68, 30.66 -9.32 M-0.64 0.19 C4.35 -1.54, 25.12 -8.66, 30.28 -10.16" stroke="#1e1e1e" stroke-width="4" fill="none"/></g></g><mask/><g stroke-linecap="round"><g transform="translate(531.4579524605022 673.464034616658) rotate(0 16.289280131758233 4.791891737126306)"><path d="M0.1 0.26 C5.54 1.81, 27.29 8.09, 32.67 9.72 M-0.51 -0.08 C4.86 1.25, 26.87 7.28, 32.28 8.82" stroke="#1e1e1e" stroke-width="4" fill="none"/></g></g><mask/><g stroke-linecap="round"><g transform="translate(563.532728281878 683.0478180909108) rotate(0 -15.197734361690578 33.1076189618938)"><path d="M0.2 0.3 C0.06 6.96, 4.5 29.42, -0.58 40.51 C-5.67 51.61, -25.53 62.42, -30.31 66.84 M-1.16 -0.59 C-1.51 5.69, 3.23 27.99, -1.75 38.9 C-6.73 49.8, -25.97 60.49, -31.03 64.83" stroke="#1e1e1e" stroke-width="4" fill="none"/></g></g><mask/><g stroke-linecap="round"><g transform="translate(501.43341479957377 683.3180447202164) rotate(0 15.197734361690578 33.107618961893806)"><path d="M-0.42 0.96 C-0.41 7.61, -5.07 29.17, 0.25 40.18 C5.58 51.19, 26.65 62.78, 31.51 67.03 M1.56 0.42 C1.41 6.69, -5.61 27.61, -0.65 38.39 C4.31 49.17, 26.37 60.43, 31.32 65.11" stroke="#1e1e1e" stroke-width="4" fill="none"/></g></g><mask/><g stroke-linecap="round" transform="translate(635.1801370680253 632.637937750837) rotate(0 50.38829636625158 73.85708952502195)"><path d="M25.19 0 C39.6 1.82, 53.28 -1.75, 75.58 0 M25.19 0 C37.67 -0.11, 51.86 0.28, 75.58 0 M75.58 0 C91.34 1.49, 101.75 9.26, 100.78 25.19 M75.58 0 C91.6 2.02, 99.72 8.25, 100.78 25.19 M100.78 25.19 C100.14 63.74, 99.19 98.82, 100.78 122.52 M100.78 25.19 C100.6 55.41, 100.79 86.5, 100.78 122.52 M100.78 122.52 C101.46 138.51, 91.64 148.72, 75.58 147.71 M100.78 122.52 C99.62 140.43, 93.16 145.49, 75.58 147.71 M75.58 147.71 C62.7 148.2, 51.79 148.18, 25.19 147.71 M75.58 147.71 C57.37 148.16, 39.72 147.43, 25.19 147.71 M25.19 147.71 C9.1 147.94, -1.62 137.69, 0 122.52 M25.19 147.71 C6.91 145.79, 1.55 137.16, 0 122.52 M0 122.52 C-1.72 96.18, -2.27 70.15, 0 25.19 M0 122.52 C0.35 87.2, 0.67 51.78, 0 25.19 M0 25.19 C0.73 8.29, 8.93 1.04, 25.19 0 M0 25.19 C-2.11 6.75, 10 -0.66, 25.19 0" stroke="#1e1e1e" stroke-width="4" fill="none"/></g><g stroke-linecap="round"><g transform="translate(655.0944897099071 683.2220726878134) rotate(0 15.281692029332504 -4.791891737126306)"><path d="M0.51 0.37 C5.52 -1.31, 25.14 -8.13, 30.09 -9.83 M0.11 0.09 C5.28 -1.55, 26.15 -7.69, 31.09 -9.25" stroke="#1e1e1e" stroke-width="4" fill="none"/></g></g><mask/><g stroke-linecap="round"><g transform="translate(685.6578865806684 673.464034616658) rotate(0 16.289280131758233 4.791891737126306)"><path d="M-0.47 -0.24 C4.82 1.26, 26.79 7.77, 32.27 9.38 M0.29 0.82 C5.72 2.36, 28.07 8.45, 33.34 9.97" stroke="#1e1e1e" stroke-width="4" fill="none"/></g></g><mask/><g stroke-linecap="round"><g transform="translate(717.7326624020443 683.0478180909108) rotate(0 -15.197734361690593 33.1076189618938)"><path d="M-0.68 -0.45 C-0.62 6.17, 4.12 28.07, -0.65 39.2 C-5.42 50.33, -24.23 61.67, -29.29 66.32 M1.16 -1.73 C1.11 5.11, 3.26 28.98, -1.85 40.55 C-6.95 52.12, -24.6 63.62, -29.47 67.69" stroke="#1e1e1e" stroke-width="4" fill="none"/></g></g><mask/><g stroke-linecap="round"><g transform="translate(655.6333489197402 683.3180447202164) rotate(0 15.197734361690593 33.107618961893806)"><path d="M-0.48 -0.36 C-0.15 6.33, -3.77 28.42, 1.28 39.66 C6.32 50.91, 24.82 62.59, 29.77 67.11 M1.47 -1.59 C1.79 5.35, -3.63 30.12, 0.91 41.25 C5.44 52.39, 23.57 61.37, 28.68 65.23" stroke="#1e1e1e" stroke-width="4" fill="none"/></g></g><mask/><g stroke-linecap="round" transform="translate(789.3800711881916 632.637937750837) rotate(0 50.38829636625159 73.85708952502195)"><path d="M25.19 0 C38.47 -1.51, 52.87 0.51, 75.58 0 M25.19 0 C42.01 -0.51, 60.6 -0.71, 75.58 0 M75.58 0 C94.01 -0.37, 101.9 7.07, 100.78 25.19 M75.58 0 C90.98 0.45, 101.17 6.5, 100.78 25.19 M100.78 25.19 C98.18 51.73, 99.12 76.17, 100.78 122.52 M100.78 25.19 C100.63 58.3, 99.79 92.96, 100.78 122.52 M100.78 122.52 C102.08 139.06, 92.53 149.18, 75.58 147.71 M100.78 122.52 C100.94 140.69, 90.66 148.84, 75.58 147.71 M75.58 147.71 C59.83 148.61, 46.4 146.29, 25.19 147.71 M75.58 147.71 C65.23 146.35, 53.27 147.91, 25.19 147.71 M25.19 147.71 C8.78 146.6, 0.27 137.65, 0 122.52 M25.19 147.71 C9.36 149.1, 0.05 139.1, 0 122.52 M0 122.52 C-0.99 90.49, 0.16 57.51, 0 25.19 M0 122.52 C1.59 87.98, 1.4 53.72, 0 25.19 M0 25.19 C1.54 7.89, 10.31 0.16, 25.19 0 M0 25.19 C-2.1 10.33, 8.58 -1.8, 25.19 0" stroke="#1e1e1e" stroke-width="4" fill="none"/></g><g stroke-linecap="round"><g transform="translate(809.2944238300731 683.2220726878134) rotate(0 15.281692029332504 -4.791891737126306)"><path d="M-0.29 0.41 C4.77 -1.16, 25.72 -7.76, 30.83 -9.35 M0.57 0.14 C5.53 -1.59, 25.65 -8.51, 30.54 -10.19" stroke="#1e1e1e" stroke-width="4" fill="none"/></g></g><mask/><g stroke-linecap="round"><g transform="translate(839.8578207008345 673.464034616658) rotate(0 16.289280131758225 4.791891737126306)"><path d="M0.27 0.24 C5.72 1.85, 27.05 8.51, 32.39 10.07 M-0.26 -0.12 C5.13 1.31, 26.51 7.64, 31.87 9.35" stroke="#1e1e1e" stroke-width="4" fill="none"/></g></g><mask/><g stroke-linecap="round"><g transform="translate(871.9325965222104 683.0478180909108) rotate(0 -15.197734361690586 33.1076189618938)"><path d="M-0.41 1.05 C-0.62 7.55, 4.11 28.67, -0.72 39.48 C-5.55 50.28, -24.6 61.47, -29.38 65.89 M1.58 0.56 C1.11 7.21, 3.24 29.89, -1.96 40.97 C-7.16 52.05, -25.17 62.7, -29.61 67.03" stroke="#1e1e1e" stroke-width="4" fill="none"/></g></g><mask/><g stroke-linecap="round"><g transform="translate(809.8332830399063 683.3180447202164) rotate(0 15.197734361690593 33.107618961893806)"><path d="M-0.55 -0.08 C-0.29 6.28, -4.14 28.22, 1.18 39.23 C6.5 50.24, 26.4 61.63, 31.38 65.99 M1.36 -1.17 C1.59 5.89, -4.19 29.2, 0.77 40.59 C5.73 51.99, 25.98 62.94, 31.13 67.19" stroke="#1e1e1e" stroke-width="4" fill="none"/></g></g><mask/><g stroke-linecap="round" transform="translate(631.7201399960366 799.5009982688009) rotate(0 50.38829636625158 73.85708952502195)"><path d="M25.19 0 C37.45 1.21, 50.42 0.7, 75.58 0 M25.19 0 C37.14 -0.92, 48.41 -0.97, 75.58 0 M75.58 0 C92.09 -1.75, 101.46 7.59, 100.78 25.19 M75.58 0 C91.53 1.15, 99.62 9.52, 100.78 25.19 M100.78 25.19 C99.07 58.99, 99.58 90.33, 100.78 122.52 M100.78 25.19 C100.1 62, 100.76 98.04, 100.78 122.52 M100.78 122.52 C101.56 138.26, 93.08 147.94, 75.58 147.71 M100.78 122.52 C98.91 137.45, 90.89 145.79, 75.58 147.71 M75.58 147.71 C58.31 147.96, 37.44 147.85, 25.19 147.71 M75.58 147.71 C64.69 147.93, 54.13 147.75, 25.19 147.71 M25.19 147.71 C9.78 146.47, 0.73 139.21, 0 122.52 M25.19 147.71 C9.01 148.91, -2.11 137.67, 0 122.52 M0 122.52 C-0.32 88.06, -0.23 52.44, 0 25.19 M0 122.52 C0.97 91.78, -0.02 62.22, 0 25.19 M0 25.19 C-0.3 10.08, 8.47 0.34, 25.19 0 M0 25.19 C-0.98 9.78, 8.45 2.19, 25.19 0" stroke="#1e1e1e" stroke-width="4" fill="none"/></g><g stroke-linecap="round"><g transform="translate(682.2126722479807 903.1399433727242) rotate(0 0.6065260742622769 -27.596300122322933)"><path d="M0.98 -0.22 C1.13 0, 2.17 10.45, 1.89 1.03 C1.6 -8.4, -0.45 -46.94, -0.73 -56.78 M0.04 -1.39 C-0.01 -1, 1 11.14, 1.29 2.15 C1.58 -6.85, 1.9 -45.41, 1.78 -55.34" stroke="#1e1e1e" stroke-width="4" fill="none"/></g><g transform="translate(682.2126722479807 903.1399433727242) rotate(0 0.6065260742622769 -27.596300122322933)"><path d="M10.34 -31.85 C6.74 -39.69, 2.5 -51.06, 1.78 -55.34 M10.34 -31.85 C7.22 -40.29, 4.68 -47.8, 1.78 -55.34" stroke="#1e1e1e" stroke-width="4" fill="none"/></g><g transform="translate(682.2126722479807 903.1399433727242) rotate(0 0.6065260742622769 -27.596300122322933)"><path d="M-6.76 -31.84 C-3.79 -39.83, -1.45 -51.2, 1.78 -55.34 M-6.76 -31.84 C-4.42 -40.15, -1.49 -47.66, 1.78 -55.34" stroke="#1e1e1e" stroke-width="4" fill="none"/></g></g><mask/><g stroke-linecap="round" transform="translate(787.4575644117938 796.296575826377) rotate(0 50.38829636625159 73.85708952502195)"><path d="M25.19 0 C43.11 -1.5, 64.05 0.06, 75.58 0 M25.19 0 C36.01 -0.44, 47.45 0.03, 75.58 0 M75.58 0 C91.64 1, 99.77 9.37, 100.78 25.19 M75.58 0 C93.16 -2.23, 99.64 7.52, 100.78 25.19 M100.78 25.19 C102.12 60.88, 101.85 94.79, 100.78 122.52 M100.78 25.19 C101.09 58.62, 101.05 93.22, 100.78 122.52 M100.78 122.52 C99.16 137.69, 91.08 146.04, 75.58 147.71 M100.78 122.52 C102.33 137.16, 91.77 149.14, 75.58 147.71 M75.58 147.71 C57.83 148.62, 44.63 147.82, 25.19 147.71 M75.58 147.71 C61.62 146.95, 46.65 147.53, 25.19 147.71 M25.19 147.71 C8.93 148.75, -1.83 137.88, 0 122.52 M25.19 147.71 C10 147.05, 1.17 138.63, 0 122.52 M0 122.52 C0.4 84, 1.92 49.3, 0 25.19 M0 122.52 C0.74 101.78, 0.92 79.52, 0 25.19 M0 25.19 C-0.85 9.6, 8.44 1.91, 25.19 0 M0 25.19 C2.03 6.23, 10.62 -0.28, 25.19 0" stroke="#1e1e1e" stroke-width="4" fill="none"/></g><g stroke-linecap="round"><g transform="translate(837.9500966637381 899.9355209303008) rotate(0 0.6065260742622698 -27.596300122322933)"><path d="M-0.73 0.23 C-0.61 0.5, 1.36 10.54, 1.42 0.83 C1.47 -8.89, -0.15 -48.24, -0.41 -58.06 M1.09 -0.69 C1.01 -0.23, 0.99 11.28, 0.57 1.85 C0.16 -7.59, -1.29 -47.39, -1.39 -57.29" stroke="#1e1e1e" stroke-width="4" fill="none"/></g><g transform="translate(837.9500966637381 899.9355209303008) rotate(0 0.6065260742622698 -27.596300122322933)"><path d="M7.75 -34.02 C5.04 -42.02, -0.26 -51.34, -1.39 -57.29 M7.75 -34.02 C6.18 -39.46, 3.52 -43.51, -1.39 -57.29" stroke="#1e1e1e" stroke-width="4" fill="none"/></g><g transform="translate(837.9500966637381 899.9355209303008) rotate(0 0.6065260742622698 -27.596300122322933)"><path d="M-9.34 -33.58 C-5.97 -41.64, -5.17 -51.11, -1.39 -57.29 M-9.34 -33.58 C-7.27 -38.97, -6.29 -43.11, -1.39 -57.29" stroke="#1e1e1e" stroke-width="4" fill="none"/></g></g><mask/><g stroke-linecap="round"><g transform="translate(436.64596114985994 788.760064008678) rotate(0 247.7056687148291 -0.6408844884847547)"><path d="M0.2 -0.99 C82.82 -1.42, 412.49 -2.1, 495 -2.33 M-1.15 1.1 C81.34 0.77, 411.25 -0.89, 493.84 -1.34" stroke="#343a40" stroke-width="4" fill="none"/></g></g><mask/><g stroke-linecap="round" transform="translate(352.6571708780432 209.53386561500133) rotate(0 324.5436358014781 165.54050212509688)"><path d="M32 0 C216.72 0.69, 402.14 1.08, 617.09 0 M32 0 C183.68 -0.98, 335.89 -1.56, 617.09 0 M617.09 0 C637.43 -0.76, 650.39 10.41, 649.09 32 M617.09 0 C638.6 1.68, 649.25 12.04, 649.09 32 M649.09 32 C650.44 92.73, 649.29 152.77, 649.09 299.08 M649.09 32 C646.87 114.47, 647.91 197.52, 649.09 299.08 M649.09 299.08 C648.55 321.65, 638.8 329.97, 617.09 331.08 M649.09 299.08 C649.39 318.49, 639.39 332.47, 617.09 331.08 M617.09 331.08 C440.14 332.49, 263.12 332.23, 32 331.08 M617.09 331.08 C444.28 332.01, 272.48 332.18, 32 331.08 M32 331.08 C11.68 330.48, 1.54 319.91, 0 299.08 M32 331.08 C12.87 331.26, -2.1 322.34, 0 299.08 M0 299.08 C1.06 216.6, 2.98 134.65, 0 32 M0 299.08 C0.91 215.13, 1.59 128.94, 0 32 M0 32 C1.93 10.42, 12.13 1.4, 32 0 M0 32 C-0.87 8.98, 11.62 2.18, 32 0" stroke="#1e1e1e" stroke-width="4" fill="none"/></g><g stroke-linecap="round" transform="translate(479.75737668042274 387.1014171355396) rotate(0 50.38829636625158 73.85708952502193)"><path d="M25.19 0 C36.83 0.76, 51.16 -0.67, 75.58 0 M25.19 0 C43.17 -1.21, 59.98 -0.63, 75.58 0 M75.58 0 C93.68 -0.26, 100.93 9.86, 100.78 25.19 M75.58 0 C92.54 1.37, 99.05 9.52, 100.78 25.19 M100.78 25.19 C99.92 54.29, 101.2 80.37, 100.78 122.52 M100.78 25.19 C100.82 45.55, 99.88 68.4, 100.78 122.52 M100.78 122.52 C101.16 138.2, 92.65 146.04, 75.58 147.71 M100.78 122.52 C101.74 140.7, 92.43 147.5, 75.58 147.71 M75.58 147.71 C57.37 148.8, 41.55 148.59, 25.19 147.71 M75.58 147.71 C58.55 147.06, 40.62 147.06, 25.19 147.71 M25.19 147.71 C9.94 147.2, 1.91 139.47, 0 122.52 M25.19 147.71 C6.3 149.64, 0.18 137.52, 0 122.52 M0 122.52 C2.05 102.27, 0.71 81.04, 0 25.19 M0 122.52 C0.86 86.54, 0.95 52.33, 0 25.19 M0 25.19 C1.46 9.8, 7.64 -1.46, 25.19 0 M0 25.19 C0.95 10.57, 9.69 2.01, 25.19 0" stroke="#1e1e1e" stroke-width="4" fill="none"/></g><g stroke-linecap="round"><g transform="translate(499.67172932230443 437.6855520725162) rotate(0 15.281692029332504 -4.791891737126292)"><path d="M0.19 -0.22 C5.26 -1.69, 25.34 -7.79, 30.36 -9.31 M-0.38 -0.81 C4.61 -2.4, 24.79 -8.56, 29.82 -10.13" stroke="#1e1e1e" stroke-width="4" fill="none"/></g></g><mask/><g stroke-linecap="round"><g transform="translate(530.235126193066 427.9275140013608) rotate(0 16.289280131758233 4.791891737126292)"><path d="M-0.2 0.28 C5.15 1.95, 26.81 8.39, 32.3 9.85 M0.69 -0.06 C6.21 1.48, 28.09 7.45, 33.39 9.02" stroke="#1e1e1e" stroke-width="4" fill="none"/></g></g><mask/><g stroke-linecap="round"><g transform="translate(562.3099020144418 437.51129747561345) rotate(0 -15.197734361690578 33.10761896189379)"><path d="M-0.6 0.58 C-0.49 6.88, 5.3 27.53, 0.24 38.39 C-4.83 49.26, -26.01 61.15, -30.99 65.76 M1.28 -0.16 C1.31 6.19, 5.06 28.16, -0.5 39.32 C-6.05 50.49, -27.32 62.21, -32.07 66.83" stroke="#1e1e1e" stroke-width="4" fill="none"/></g></g><mask/><g stroke-linecap="round"><g transform="translate(500.2105885321375 437.7815241049191) rotate(0 15.197734361690578 33.10761896189382)"><path d="M0.41 -1.16 C0.44 5.26, -5.55 27.89, -0.43 39.1 C4.7 50.3, 26.03 61.4, 31.18 66.06 M-0.84 0.84 C-0.36 7.38, -3.3 29.32, 1.98 40.39 C7.25 51.47, 26.02 63.2, 30.82 67.3" stroke="#1e1e1e" stroke-width="4" fill="none"/></g></g><mask/><g stroke-linecap="round" transform="translate(633.9573108005891 387.1014171355396) rotate(0 50.38829636625158 73.85708952502193)"><path d="M25.19 0 C41.25 1.55, 58.58 0.4, 75.58 0 M25.19 0 C43.25 0.19, 62.72 -0.1, 75.58 0 M75.58 0 C93.16 -1.05, 101.48 8.62, 100.78 25.19 M75.58 0 C90.52 -1.87, 99.29 6.47, 100.78 25.19 M100.78 25.19 C101.1 61.33, 98.75 96.98, 100.78 122.52 M100.78 25.19 C101.21 46.17, 101.55 67.07, 100.78 122.52 M100.78 122.52 C102.16 138.07, 93.11 147.61, 75.58 147.71 M100.78 122.52 C101.39 140.51, 90.27 146.07, 75.58 147.71 M75.58 147.71 C56.35 149.51, 37.8 149.88, 25.19 147.71 M75.58 147.71 C60.15 147.35, 43.65 147.76, 25.19 147.71 M25.19 147.71 C8.1 149.4, 0.07 139.66, 0 122.52 M25.19 147.71 C7.42 149.09, 0.05 141.51, 0 122.52 M0 122.52 C0.67 86.21, 2.32 46.21, 0 25.19 M0 122.52 C0.16 101.32, 0.14 77.49, 0 25.19 M0 25.19 C-1.61 10.12, 8.52 -1.02, 25.19 0 M0 25.19 C1.72 10.29, 6.67 0.52, 25.19 0" stroke="#1e1e1e" stroke-width="4" fill="none"/></g><g stroke-linecap="round"><g transform="translate(653.8716634424709 437.6855520725162) rotate(0 15.281692029332504 -4.791891737126292)"><path d="M0.36 -0.07 C5.51 -1.57, 25.57 -7.65, 30.61 -9.18 M-0.12 -0.58 C4.98 -2.21, 25.13 -8.35, 30.2 -9.94" stroke="#1e1e1e" stroke-width="4" fill="none"/></g></g><mask/><g stroke-linecap="round"><g transform="translate(684.435060313232 427.9275140013608) rotate(0 16.289280131758233 4.791891737126292)"><path d="M0.04 0.4 C5.42 2.07, 27.26 8.34, 32.62 9.91 M-0.6 0.13 C4.68 1.65, 26.56 7.65, 32.21 9.12" stroke="#1e1e1e" stroke-width="4" fill="none"/></g></g><mask/><g stroke-linecap="round"><g transform="translate(716.5098361346079 437.51129747561345) rotate(0 -15.197734361690593 33.10761896189379)"><path d="M0.08 0.72 C-0.11 7.26, 4.03 29.18, -1.07 40.14 C-6.16 51.1, -25.68 62.22, -30.49 66.46 M-1.33 0.05 C-1.16 6.16, 6.17 27.02, 1.17 38.33 C-3.82 49.64, -26.21 63.24, -31.31 67.91" stroke="#1e1e1e" stroke-width="4" fill="none"/></g></g><mask/><g stroke-linecap="round"><g transform="translate(654.4105226523038 437.7815241049191) rotate(0 15.197734361690593 33.10761896189382)"><path d="M-0.9 0.59 C-0.9 7.1, -5.22 28.97, 0.07 39.8 C5.36 50.63, 25.74 61.16, 30.86 65.58 M0.83 -0.15 C0.65 5.92, -5.85 26.69, -0.93 37.81 C3.99 48.93, 24.97 61.61, 30.34 66.57" stroke="#1e1e1e" stroke-width="4" fill="none"/></g></g><mask/><g stroke-linecap="round" transform="translate(788.1572449207551 387.1014171355396) rotate(0 50.38829636625159 73.85708952502193)"><path d="M25.19 0 C36.94 0.82, 46.82 0.74, 75.58 0 M25.19 0 C40.23 -0.43, 57.24 -0.53, 75.58 0 M75.58 0 C91.85 1.24, 101.16 7.28, 100.78 25.19 M75.58 0 C92.69 -1.92, 101.74 9.78, 100.78 25.19 M100.78 25.19 C100.15 55.97, 99.44 84.73, 100.78 122.52 M100.78 25.19 C100.12 53.16, 101.73 82.28, 100.78 122.52 M100.78 122.52 C101.79 138.72, 93.92 147.2, 75.58 147.71 M100.78 122.52 C102.98 139.5, 90.28 149.64, 75.58 147.71 M75.58 147.71 C59.32 146.96, 46.24 147.32, 25.19 147.71 M75.58 147.71 C59.62 148.97, 44.5 147.07, 25.19 147.71 M25.19 147.71 C10.33 147.47, 1.46 140.72, 0 122.52 M25.19 147.71 C7.53 146.03, 0.95 141.49, 0 122.52 M0 122.52 C-2.6 86.23, 0.87 53.3, 0 25.19 M0 122.52 C-1.48 98.5, -1.44 74.8, 0 25.19 M0 25.19 C1.39 9.24, 9.81 0.29, 25.19 0 M0 25.19 C0.77 6.34, 7.74 1.83, 25.19 0" stroke="#1e1e1e" stroke-width="4" fill="none"/></g><g stroke-linecap="round"><g transform="translate(808.071597562637 437.6855520725162) rotate(0 15.281692029332504 -4.791891737126292)"><path d="M0.21 -0.29 C5.35 -1.9, 25.77 -7.9, 30.76 -9.52 M-0.34 0.75 C4.74 -0.77, 25.17 -7.06, 30.42 -8.79" stroke="#1e1e1e" stroke-width="4" fill="none"/></g></g><mask/><g stroke-linecap="round"><g transform="translate(838.6349944333982 427.9275140013608) rotate(0 16.289280131758225 4.791891737126292)"><path d="M0.19 0.06 C5.51 1.63, 26.8 7.63, 32.13 9.14 M-0.37 -0.38 C5.1 1.27, 27.52 7.96, 33.14 9.61" stroke="#1e1e1e" stroke-width="4" fill="none"/></g></g><mask/><g stroke-linecap="round"><g transform="translate(870.7097702547741 437.51129747561345) rotate(0 -15.197734361690586 33.10761896189379)"><path d="M-0.97 -0.97 C-1.2 5.43, 3.82 27.54, -0.95 38.55 C-5.71 49.56, -24.62 60.35, -29.59 65.09 M0.72 1.13 C0.84 7.64, 6.47 28.78, 1.36 39.56 C-3.75 50.34, -24.6 61.61, -29.93 65.82" stroke="#1e1e1e" stroke-width="4" fill="none"/></g></g><mask/><g stroke-linecap="round"><g transform="translate(808.6104567724699 437.7815241049191) rotate(0 15.197734361690593 33.10761896189382)"><path d="M-0.78 -1 C-0.45 5.56, -4.17 27.1, 0.98 38.43 C6.12 49.76, 25.13 62.44, 30.08 66.96 M1.02 1.08 C1.34 7.84, -4.23 28.72, 0.45 39.37 C5.14 50.03, 24.05 60.52, 29.14 65.01" stroke="#1e1e1e" stroke-width="4" fill="none"/></g></g><mask/><g stroke-linecap="round" transform="translate(783.0177225724258 220.03126384465963) rotate(180.64499126842787 50.38829636625159 73.85708952502193)"><path d="M25.19 0 C35.17 -0.87, 50.14 0.04, 75.58 0 M25.19 0 C37.92 1.02, 49.83 0.33, 75.58 0 M75.58 0 C93.11 -0.54, 102.16 7.15, 100.78 25.19 M75.58 0 C93.22 -0.12, 101.39 9.59, 100.78 25.19 M100.78 25.19 C99.5 46.49, 99.48 67.29, 100.78 122.52 M100.78 25.19 C100.79 52.75, 101.79 77.85, 100.78 122.52 M100.78 122.52 C98.95 138.57, 92.08 149.4, 75.58 147.71 M100.78 122.52 C100.86 139.71, 91.4 149.09, 75.58 147.71 M75.58 147.71 C58.47 150.09, 44.9 149.62, 25.19 147.71 M75.58 147.71 C57.35 148.29, 38.85 148.22, 25.19 147.71 M25.19 147.71 C9.48 145.96, -1.61 141.04, 0 122.52 M25.19 147.71 C8.54 146.54, 1.72 141.21, 0 122.52 M0 122.52 C1.33 102.04, 0.62 80.19, 0 25.19 M0 122.52 C-0.61 92.7, 0.1 61.51, 0 25.19 M0 25.19 C1.72 8.41, 9.49 -0.77, 25.19 0 M0 25.19 C-1.12 7.18, 9.82 0.23, 25.19 0" stroke="#1e1e1e" stroke-width="4" fill="none"/></g><g stroke-linecap="round"><g transform="translate(834.3534870741023 314.0227441105326) rotate(180.64499126842787 0.6065260742622698 -27.59630012232293)"><path d="M-0.32 0.74 C-0.21 1.12, 1.36 10.94, 1.44 1.15 C1.52 -8.64, 0.32 -48.44, 0.16 -58.01 M1.71 0.09 C1.61 0.71, 0.99 11.89, 0.61 2.34 C0.24 -7.21, -0.59 -47.09, -0.52 -57.22" stroke="#1e1e1e" stroke-width="4" fill="none"/></g><g transform="translate(834.3534870741023 314.0227441105326) rotate(180.64499126842787 0.6065260742622698 -27.59630012232293)"><path d="M8.25 -33.81 C6.48 -42.05, 0.91 -50.77, -0.52 -57.22 M8.25 -33.81 C6.27 -38.92, 4.72 -44.16, -0.52 -57.22" stroke="#1e1e1e" stroke-width="4" fill="none"/></g><g transform="translate(834.3534870741023 314.0227441105326) rotate(180.64499126842787 0.6065260742622698 -27.59630012232293)"><path d="M-8.85 -33.65 C-4.33 -41.91, -3.62 -50.68, -0.52 -57.22 M-8.85 -33.65 C-7.13 -38.9, -4.98 -44.18, -0.52 -57.22" stroke="#1e1e1e" stroke-width="4" fill="none"/></g></g><mask/><g stroke-linecap="round" transform="translate(630.2045193294571 217.19092787944032) rotate(180.64499126842787 50.38829636625158 73.85708952502193)"><path d="M25.19 0 C37.85 0.17, 51.07 0.74, 75.58 0 M25.19 0 C43.71 -0.22, 62.18 -0.58, 75.58 0 M75.58 0 C93.11 -0.11, 101.31 9.44, 100.78 25.19 M75.58 0 C90.27 -1.65, 102.38 7.73, 100.78 25.19 M100.78 25.19 C99.98 61.24, 100.64 91.63, 100.78 122.52 M100.78 25.19 C99.94 62.17, 100.7 100.74, 100.78 122.52 M100.78 122.52 C100.85 139.66, 91.53 148.91, 75.58 147.71 M100.78 122.52 C100.82 141.51, 94.41 145.54, 75.58 147.71 M75.58 147.71 C57 147.33, 34.14 148.91, 25.19 147.71 M75.58 147.71 C56.24 147.28, 35.01 149.02, 25.19 147.71 M25.19 147.71 C8.52 146.7, 1.5 140.96, 0 122.52 M25.19 147.71 C6.67 148.23, -1.63 141.09, 0 122.52 M0 122.52 C-0.12 87.23, -2.2 50.02, 0 25.19 M0 122.52 C0.44 85.58, 0.13 48.25, 0 25.19 M0 25.19 C-0.97 7.34, 9.63 0.2, 25.19 0 M0 25.19 C2.04 9.12, 8.11 0.84, 25.19 0" stroke="#1e1e1e" stroke-width="4" fill="none"/></g><g stroke-linecap="round"><g transform="translate(680.9148797715156 314.147523686966) rotate(180.64499126842787 0.6065260742622769 -27.59630012232293)"><path d="M0.16 -1 C0.41 -0.47, 1.74 11.9, 1.72 2.54 C1.69 -6.81, 0.24 -47.14, 0.02 -57.12 M-1.21 1.09 C-1.1 1.34, 0.95 10.29, 1.03 0.8 C1.11 -8.69, -0.71 -46.33, -0.73 -55.86" stroke="#1e1e1e" stroke-width="4" fill="none"/></g><g transform="translate(680.9148797715156 314.147523686966) rotate(180.64499126842787 0.6065260742622769 -27.59630012232293)"><path d="M8.47 -32.62 C3.99 -39.18, 3.93 -47.4, -0.73 -55.86 M8.47 -32.62 C6.4 -40.02, 3.4 -46.21, -0.73 -55.86" stroke="#1e1e1e" stroke-width="4" fill="none"/></g><g transform="translate(680.9148797715156 314.147523686966) rotate(180.64499126842787 0.6065260742622769 -27.59630012232293)"><path d="M-8.63 -32.14 C-7.64 -38.88, -2.25 -47.25, -0.73 -55.86 M-8.63 -32.14 C-5.73 -39.64, -3.75 -45.97, -0.73 -55.86" stroke="#1e1e1e" stroke-width="4" fill="none"/></g></g><mask/><g stroke-linecap="round" transform="translate(474.44089059383003 218.64201366361226) rotate(180.64499126842787 50.38829636625158 73.85708952502193)"><path d="M25.19 0 C42.19 -0.17, 56.59 0.52, 75.58 0 M25.19 0 C39.33 0.26, 52.99 0.83, 75.58 0 M75.58 0 C90.55 -1.43, 102.17 7.82, 100.78 25.19 M75.58 0 C93.54 -0.69, 102.55 7.81, 100.78 25.19 M100.78 25.19 C102.53 63.86, 99.29 100.38, 100.78 122.52 M100.78 25.19 C100.67 50.93, 100.21 76.92, 100.78 122.52 M100.78 122.52 C100.82 141.22, 94.14 145.83, 75.58 147.71 M100.78 122.52 C103 139.04, 94.06 149.33, 75.58 147.71 M75.58 147.71 C64.26 149.05, 50.91 149.01, 25.19 147.71 M75.58 147.71 C64.94 147.64, 54.92 148.97, 25.19 147.71 M25.19 147.71 C6.89 148.16, -1.42 140.86, 0 122.52 M25.19 147.71 C10 148.68, 1.62 139.65, 0 122.52 M0 122.52 C2.46 90.91, 1.3 59.31, 0 25.19 M0 122.52 C-1.02 92.76, 0.08 64.15, 0 25.19 M0 25.19 C1.77 9.03, 8.14 0.73, 25.19 0 M0 25.19 C2.3 8.59, 8.14 0.12, 25.19 0" stroke="#1e1e1e" stroke-width="4" fill="none"/></g><g stroke-linecap="round"><g transform="translate(524.2165007195142 314.8091956065414) rotate(180.64499126842787 0.6065260742622627 -27.59630012232293)"><path d="M0.02 -0.11 C0.22 0.02, 1.52 11.11, 1.65 1.5 C1.79 -8.11, 1.03 -48, 0.83 -57.76 M-1.42 -1.21 C-1.39 -0.97, 0.62 12.14, 0.94 2.87 C1.26 -6.4, 0.5 -47.03, 0.5 -56.84" stroke="#1e1e1e" stroke-width="4" fill="none"/></g><g transform="translate(524.2165007195142 314.8091956065414) rotate(180.64499126842787 0.6065260742622627 -27.59630012232293)"><path d="M9.28 -33.43 C5.95 -40.7, 2.6 -48.06, 0.5 -56.84 M9.28 -33.43 C7.38 -38.48, 4.11 -45.27, 0.5 -56.84" stroke="#1e1e1e" stroke-width="4" fill="none"/></g><g transform="translate(524.2165007195142 314.8091956065414) rotate(180.64499126842787 0.6065260742622627 -27.59630012232293)"><path d="M-7.82 -33.26 C-5.3 -40.59, -2.81 -48.01, 0.5 -56.84 M-7.82 -33.26 C-5.66 -38.34, -4.87 -45.17, 0.5 -56.84" stroke="#1e1e1e" stroke-width="4" fill="none"/></g></g><mask/><g stroke-linecap="round"><g transform="translate(437.03463478595853 375.6250329597383) rotate(0 247.7056687148291 -0.640884488484744)"><path d="M0.44 -0.32 C83.14 -0.64, 413.67 -1.86, 496.24 -2.03 M-0.79 -1.54 C81.83 -1.71, 413.04 -1.13, 495.73 -0.89" stroke="#343a40" stroke-width="4" fill="none"/></g></g><mask/><g stroke-linecap="round" transform="translate(1205.196703134214 42.27729567686845) rotate(0 42.6260852288998 58.03057034108866)"><path d="M21.31 0 C34.42 0.44, 49.91 0.24, 63.94 0 M21.31 0 C37.01 0.02, 51.82 0.01, 63.94 0 M63.94 0 C79.69 -0.51, 87.17 7.26, 85.25 21.31 M63.94 0 C76.05 1.93, 85.43 5.31, 85.25 21.31 M85.25 21.31 C86.66 36.71, 85.32 51.12, 85.25 94.75 M85.25 21.31 C86.15 46.8, 86.23 74.06, 85.25 94.75 M85.25 94.75 C86.72 110.36, 77.39 114.6, 63.94 116.06 M85.25 94.75 C86.2 111.13, 79.44 118.07, 63.94 116.06 M63.94 116.06 C50.56 115.84, 32.72 117.22, 21.31 116.06 M63.94 116.06 C46.93 116.93, 32.04 116.58, 21.31 116.06 M21.31 116.06 C8.52 116.35, 0.67 107.16, 0 94.75 M21.31 116.06 C6.44 117.89, 0.98 109.45, 0 94.75 M0 94.75 C-0.77 65.45, -1.06 39.32, 0 21.31 M0 94.75 C-0.78 72.36, 0.35 49.33, 0 21.31 M0 21.31 C-0.23 7.21, 6.53 -0.51, 21.31 0 M0 21.31 C-1.03 8.73, 6.45 1.57, 21.31 0" stroke="#1e1e1e" stroke-width="4" fill="none"/></g><g stroke-linecap="round" transform="translate(1093.1033539027862 61.41912059028584) rotate(0 38.16910219488963 38.169102194889604)"><path d="M21 4.44 C27.21 0.85, 36.96 -0.02, 44.33 1.32 C51.71 2.66, 59.97 7.41, 65.25 12.49 C70.54 17.57, 74.77 24.52, 76.02 31.78 C77.28 39.03, 76.41 49.4, 72.79 56.02 C69.16 62.64, 61.18 68.22, 54.27 71.49 C47.36 74.76, 38.43 76.75, 31.33 75.64 C24.23 74.53, 16.8 70.24, 11.67 64.84 C6.54 59.44, 1.68 50.63, 0.57 43.22 C-0.55 35.82, 0.23 27.25, 4.99 20.42 C9.75 13.58, 24.21 5.31, 29.14 2.21 C34.07 -0.89, 34.59 1.24, 34.57 1.82 M51.89 3.74 C58.97 6.09, 66.48 12.42, 70.68 18.17 C74.89 23.92, 77.74 30.76, 77.13 38.24 C76.52 45.71, 71.74 57.02, 67.01 63 C62.28 68.98, 55.54 72.07, 48.74 74.11 C41.94 76.15, 33.42 77.64, 26.19 75.26 C18.97 72.87, 9.91 66.03, 5.37 59.81 C0.83 53.59, -1.67 45.37, -1.04 37.95 C-0.41 30.53, 4.2 21.31, 9.16 15.26 C14.13 9.22, 21.65 4.07, 28.75 1.68 C35.85 -0.7, 48.13 0.55, 51.77 0.97 C55.41 1.4, 50.77 3.35, 50.58 4.23" stroke="#1e1e1e" stroke-width="4" fill="none"/></g><g stroke-linecap="round" transform="translate(348.52927208646497 1000.7360739095537) rotate(0 42.6260852288998 64.33308734320292)"><path d="M21.31 0 C29.62 0.72, 38.48 1.24, 63.94 0 M21.31 0 C32.1 0.8, 44.8 -0.82, 63.94 0 M63.94 0 C76.32 -0.75, 84.95 8.79, 85.25 21.31 M63.94 0 C78.23 0.39, 84.27 8.48, 85.25 21.31 M85.25 21.31 C84.18 49.23, 85.83 74.75, 85.25 107.35 M85.25 21.31 C85.34 54.1, 85.49 85.87, 85.25 107.35 M85.25 107.35 C86.34 119.81, 76.54 130.39, 63.94 128.67 M85.25 107.35 C85.4 120.39, 79.87 130.56, 63.94 128.67 M63.94 128.67 C55.91 129.75, 45.62 129.77, 21.31 128.67 M63.94 128.67 C50.25 129.08, 37.55 128.5, 21.31 128.67 M21.31 128.67 C8.82 128.67, 1.09 120.8, 0 107.35 M21.31 128.67 C5.99 127.45, 1.42 121.79, 0 107.35 M0 107.35 C0.46 75.92, -0.1 40.27, 0 21.31 M0 107.35 C-0.2 81.8, -0.04 55.52, 0 21.31 M0 21.31 C0.2 8.71, 6.15 -0.58, 21.31 0 M0 21.31 C0.18 8.81, 8.19 0.13, 21.31 0" stroke="#1e1e1e" stroke-width="4" fill="none"/></g><g stroke-linecap="round" transform="translate(696.26528789849 1000.7360739095537) rotate(0 42.62608522889981 64.33308734320292)"><path d="M21.31 0 C36.48 1.32, 52.34 1.7, 63.94 0 M21.31 0 C34.51 -1.14, 46.65 -0.73, 63.94 0 M63.94 0 C77.85 1.69, 85.32 7.45, 85.25 21.31 M63.94 0 C77.17 1.38, 85.3 9.3, 85.25 21.31 M85.25 21.31 C84.2 56.17, 85.84 87.35, 85.25 107.35 M85.25 21.31 C86.17 41.7, 86.15 59.47, 85.25 107.35 M85.25 107.35 C83.64 123.28, 78.27 127.65, 63.94 128.67 M85.25 107.35 C86.98 123.46, 76.42 129.18, 63.94 128.67 M63.94 128.67 C55.02 130.37, 44.7 129.63, 21.31 128.67 M63.94 128.67 C55.4 129.22, 46.86 129.01, 21.31 128.67 M21.31 128.67 C8.2 127.9, -0.97 120.5, 0 107.35 M21.31 128.67 C8.52 128.89, 2.04 122.29, 0 107.35 M0 107.35 C-0.14 82.41, -0.21 57.34, 0 21.31 M0 107.35 C0.1 84.41, 0.48 60.91, 0 21.31 M0 21.31 C-0.95 6.53, 7.26 1.48, 21.31 0 M0 21.31 C1.09 7.24, 7.96 -0.39, 21.31 0" stroke="#1e1e1e" stroke-width="4" fill="none"/></g><g stroke-linecap="round" transform="translate(926.7570586464944 999.8663071647811) rotate(0 42.62608522889981 64.33308734320292)"><path d="M21.31 0 C35.75 1.58, 51.37 -2.15, 63.94 0 M21.31 0 C36.76 -0.04, 53.88 1.18, 63.94 0 M63.94 0 C78.22 0.34, 84.4 8.3, 85.25 21.31 M63.94 0 C78.19 2.19, 87.28 4.93, 85.25 21.31 M85.25 21.31 C86.55 54.69, 83.68 90.4, 85.25 107.35 M85.25 21.31 C86.28 54.39, 84.93 90.07, 85.25 107.35 M85.25 107.35 C85.38 120.54, 79.65 130.31, 63.94 128.67 M85.25 107.35 C83.52 122.08, 76.52 130.44, 63.94 128.67 M63.94 128.67 C48.48 129.64, 30.64 128.39, 21.31 128.67 M63.94 128.67 C48.62 128.76, 32.13 128.37, 21.31 128.67 M21.31 128.67 C6.13 127.61, 1.23 121.76, 0 107.35 M21.31 128.67 C9.14 129.39, -0.29 122.4, 0 107.35 M0 107.35 C0.03 72.38, -0.58 37.65, 0 21.31 M0 107.35 C0.34 76.27, -0.23 43.29, 0 21.31 M0 21.31 C0.16 8.58, 8.05 0.12, 21.31 0 M0 21.31 C0.85 6.72, 6.5 0.87, 21.31 0" stroke="#1e1e1e" stroke-width="4" fill="none"/></g><g stroke-linecap="round" transform="translate(595.8781984380425 50.601505550720276) rotate(0 42.62608522889981 64.33308734320292)"><path d="M21.31 0 C37.54 -2.23, 55.13 -0.25, 63.94 0 M21.31 0 C30.62 1, 40.25 0.33, 63.94 0 M63.94 0 C77.3 1.2, 85.29 9.01, 85.25 21.31 M63.94 0 C80.17 -2.17, 87.48 6.82, 85.25 21.31 M85.25 21.31 C84.39 54.25, 87.75 86.66, 85.25 107.35 M85.25 21.31 C84.91 55.5, 85.78 87.46, 85.25 107.35 M85.25 107.35 C86.75 123.21, 76.64 129.11, 63.94 128.67 M85.25 107.35 C83.62 123.34, 79.75 129.64, 63.94 128.67 M63.94 128.67 C46.35 128.23, 33.94 129.66, 21.31 128.67 M63.94 128.67 C50.79 128.28, 36.05 128.14, 21.31 128.67 M21.31 128.67 C8.34 128.86, 1.77 122.19, 0 107.35 M21.31 128.67 C6.81 129.51, 2.3 121.76, 0 107.35 M0 107.35 C-0.55 81.63, 1.37 57.12, 0 21.31 M0 107.35 C-0.56 75.36, -0.01 44.69, 0 21.31 M0 21.31 C0.95 7.22, 7.85 -0.34, 21.31 0 M0 21.31 C-0.6 7.97, 5.24 -1.56, 21.31 0" stroke="#1e1e1e" stroke-width="4" fill="none"/></g><g stroke-linecap="round" transform="translate(712.3543950424325 50.601505550720276) rotate(0 42.62608522889981 64.33308734320292)"><path d="M21.31 0 C39.85 0.55, 53.48 -1.44, 63.94 0 M21.31 0 C32.54 -0.19, 43.28 0.24, 63.94 0 M63.94 0 C78.19 1.91, 87.01 5.22, 85.25 21.31 M63.94 0 C80.37 -0.28, 86.94 8.72, 85.25 21.31 M85.25 21.31 C86.51 45, 86.37 67.52, 85.25 107.35 M85.25 21.31 C84.62 39.08, 85.31 58.69, 85.25 107.35 M85.25 107.35 C83.75 122.01, 76.73 130.21, 63.94 128.67 M85.25 107.35 C86.85 122.53, 79.77 129, 63.94 128.67 M63.94 128.67 C51.31 129.39, 35.93 130.26, 21.31 128.67 M63.94 128.67 C50.65 127.97, 38.95 128.6, 21.31 128.67 M21.31 128.67 C8.87 129.3, -0.25 122.29, 0 107.35 M21.31 128.67 C9.4 128.86, -0.26 121.68, 0 107.35 M0 107.35 C1.63 83.44, 1.59 60.85, 0 21.31 M0 107.35 C0.49 75.37, 0.88 41.96, 0 21.31 M0 21.31 C0.74 6.77, 6.58 0.76, 21.31 0 M0 21.31 C-1.87 5.54, 5.54 -0.58, 21.31 0" stroke="#1e1e1e" stroke-width="4" fill="none"/></g><g stroke-linecap="round" transform="translate(829.1069076653987 50.601505550720276) rotate(0 42.62608522889981 64.33308734320292)"><path d="M21.31 0 C28.65 -1.86, 38.36 -0.33, 63.94 0 M21.31 0 C37.27 0.53, 54.09 0.88, 63.94 0 M63.94 0 C79.91 -1.89, 87.19 6.86, 85.25 21.31 M63.94 0 C79.83 1.61, 84.38 5.42, 85.25 21.31 M85.25 21.31 C87.81 51.77, 84.31 78.45, 85.25 107.35 M85.25 21.31 C86.06 55.36, 84.55 87.98, 85.25 107.35 M85.25 107.35 C83.83 123.11, 79.54 129.51, 63.94 128.67 M85.25 107.35 C86.87 121.9, 78.92 126.61, 63.94 128.67 M63.94 128.67 C52.8 130.56, 40.82 129.94, 21.31 128.67 M63.94 128.67 C53.4 128.54, 42.52 128.76, 21.31 128.67 M21.31 128.67 C6.85 129.4, 2 121.73, 0 107.35 M21.31 128.67 C6.84 128.79, -0.66 120.98, 0 107.35 M0 107.35 C0.76 85.58, 1 62.46, 0 21.31 M0 107.35 C0.41 84.08, 0.3 60.52, 0 21.31 M0 21.31 C-0.52 7.86, 5.48 -1.36, 21.31 0 M0 21.31 C-1.57 6.52, 4.96 -1.46, 21.31 0" stroke="#1e1e1e" stroke-width="4" fill="none"/></g><g stroke-linecap="round" transform="translate(943.6142142500678 50.601505550720276) rotate(0 42.62608522889981 64.33308734320292)"><path d="M21.31 0 C33.69 0.09, 49.25 0.46, 63.94 0 M21.31 0 C34.85 0.7, 49.23 -1.2, 63.94 0 M63.94 0 C80.08 -0.24, 86.72 8.51, 85.25 21.31 M63.94 0 C77.28 -1.68, 86.2 9.28, 85.25 21.31 M85.25 21.31 C84.25 50.35, 87.73 82.75, 85.25 107.35 M85.25 21.31 C85.14 42.97, 85.19 64.96, 85.25 107.35 M85.25 107.35 C86.64 122.4, 79.56 128.96, 63.94 128.67 M85.25 107.35 C86.02 119.5, 77.49 130.5, 63.94 128.67 M63.94 128.67 C49.35 130.13, 33.98 128.06, 21.31 128.67 M63.94 128.67 C54.3 129.02, 42.76 129.07, 21.31 128.67 M21.31 128.67 C9.1 128.84, -0.23 121.67, 0 107.35 M21.31 128.67 C6.45 128.08, -1.03 123.19, 0 107.35 M0 107.35 C1.02 83.02, -1.17 60.75, 0 21.31 M0 107.35 C-0.04 75.01, -0.67 43.38, 0 21.31 M0 21.31 C-1.62 5.75, 5.74 -0.51, 21.31 0 M0 21.31 C-2.15 5.65, 4.9 1.52, 21.31 0" stroke="#1e1e1e" stroke-width="4" fill="none"/></g><g stroke-linecap="round" transform="translate(361.42491523093986 51.39889264664134) rotate(0 42.6260852288998 64.33308734320292)"><path d="M21.31 0 C31.9 0.13, 39.45 -0.79, 63.94 0 M21.31 0 C37.54 -1.35, 52.97 -0.53, 63.94 0 M63.94 0 C79.61 1.4, 84.5 5.64, 85.25 21.31 M63.94 0 C79.1 2.18, 86.55 9.11, 85.25 21.31 M85.25 21.31 C86.22 51.92, 83.48 83.78, 85.25 107.35 M85.25 21.31 C83.89 54.99, 85.3 87.53, 85.25 107.35 M85.25 107.35 C86.66 121.85, 78.82 126.87, 63.94 128.67 M85.25 107.35 C84.59 123.39, 79.12 129.16, 63.94 128.67 M63.94 128.67 C46.73 127.93, 29.99 130.13, 21.31 128.67 M63.94 128.67 C50.61 129.17, 38.53 128.89, 21.31 128.67 M21.31 128.67 C6.88 128.77, -0.57 121.05, 0 107.35 M21.31 128.67 C6.08 130.29, -0.65 123.14, 0 107.35 M0 107.35 C-1.27 80.84, 0.79 54.96, 0 21.31 M0 107.35 C-0.58 81.42, -1.13 54.05, 0 21.31 M0 21.31 C-1.36 6.6, 5.24 -1.27, 21.31 0 M0 21.31 C-2.21 8.63, 6.81 0.12, 21.31 0" stroke="#1e1e1e" stroke-width="4" fill="none"/></g><g stroke-linecap="round" transform="translate(477.9011118353297 51.39889264664134) rotate(0 42.626085228899825 64.33308734320292)"><path d="M21.31 0 C33.81 -0.87, 46.81 0.03, 63.94 0 M21.31 0 C39.13 0.28, 55.75 1.1, 63.94 0 M63.94 0 C77.39 -1.46, 86.08 9, 85.25 21.31 M63.94 0 C79.44 2.01, 86.5 5.09, 85.25 21.31 M85.25 21.31 C84.98 41.69, 87.64 57.57, 85.25 107.35 M85.25 21.31 C85.34 49.48, 85.35 76.94, 85.25 107.35 M85.25 107.35 C85.92 119.77, 77.57 130.26, 63.94 128.67 M85.25 107.35 C86.23 122.05, 80.12 128.67, 63.94 128.67 M63.94 128.67 C47.76 129.69, 33.89 130.23, 21.31 128.67 M63.94 128.67 C50.81 128.91, 35.56 128.87, 21.31 128.67 M21.31 128.67 C6.53 128.16, -0.89 122.97, 0 107.35 M21.31 128.67 C6.45 130.24, 0.23 123.41, 0 107.35 M0 107.35 C1.73 86.59, 0.36 64.69, 0 21.31 M0 107.35 C-0.59 82.3, -0.46 58.36, 0 21.31 M0 21.31 C-1.87 5.84, 5.19 1.32, 21.31 0 M0 21.31 C-0.29 7.22, 6.09 0.1, 21.31 0" stroke="#1e1e1e" stroke-width="4" fill="none"/></g></svg>