<svg width="998" height="798" viewBox="0 0 998 798" fill="none" xmlns="http://www.w3.org/2000/svg">
<path d="M25.6164 658.69C91.0676 660.234 156.917 660.48 263.131 658.69ZM25.6164 658.69C91.0597 660.334 157.34 660.219 263.131 658.69ZM263.131 658.69C281.213 657.868 289.174 666.157 288.633 683.273ZM263.131 658.69C281.771 659.689 289.063 666.38 288.633 683.273ZM288.633 683.273C286.951 712.074 286.855 738.855 288.633 771.958ZM288.633 683.273C289.852 716.922 288.68 749.909 288.633 771.958ZM288.633 771.958C289.238 788.59 280.448 797.655 263.131 796.541ZM288.633 771.958C288.72 788.874 281.58 795.535 263.131 796.541ZM263.131 796.541C183.128 796.587 100.176 796.311 25.6164 796.541ZM263.131 796.541C204.757 794.92 147.29 795.028 25.6164 796.541ZM25.6164 796.541C8.06821 795.104 -1.0167 788.398 0.114932 771.958ZM25.6164 796.541C7.55818 798.031 -0.58636 787.845 0.114932 771.958ZM0.114932 771.958C1.18281 747.666 -0.426975 722.668 0.114932 683.273ZM0.114932 771.958C1.33422 751.346 0.6409 732.286 0.114932 683.273ZM0.114932 683.273C0.354008 667.747 8.68184 659.343 25.6164 658.69ZM0.114932 683.273C-0.873252 667.816 9.40704 660.449 25.6164 658.69Z" fill="white"/>
<path d="M25.6164 658.69C91.0676 660.234 156.917 660.48 263.131 658.69M25.6164 658.69C91.0597 660.334 157.34 660.219 263.131 658.69M25.6164 658.69C8.68184 659.343 0.354008 667.747 0.114932 683.273M25.6164 658.69C9.40704 660.449 -0.873252 667.816 0.114932 683.273M263.131 658.69C281.213 657.868 289.174 666.157 288.633 683.273M263.131 658.69C281.771 659.689 289.063 666.38 288.633 683.273M288.633 683.273C286.951 712.074 286.855 738.855 288.633 771.958M288.633 683.273C289.852 716.922 288.68 749.909 288.633 771.958M288.633 771.958C289.238 788.59 280.448 797.655 263.131 796.541M288.633 771.958C288.72 788.874 281.58 795.535 263.131 796.541M263.131 796.541C183.128 796.587 100.176 796.311 25.6164 796.541M263.131 796.541C204.757 794.92 147.29 795.028 25.6164 796.541M25.6164 796.541C8.06821 795.104 -1.0167 788.398 0.114932 771.958M25.6164 796.541C7.55818 798.031 -0.58636 787.845 0.114932 771.958M0.114932 771.958C1.18281 747.666 -0.426975 722.668 0.114932 683.273M0.114932 771.958C1.33422 751.346 0.6409 732.286 0.114932 683.273" stroke="#1E1E1E" stroke-width="4" stroke-linecap="round"/>
<path d="M734.345 656.806C794.728 656.683 853.644 654.878 971.86 656.806ZM734.345 656.806C814.523 655.669 893.976 654.916 971.86 656.806ZM971.86 656.806C988.954 656.46 997.895 665.103 997.361 681.39ZM971.86 656.806C987.567 657.728 997.879 664.919 997.361 681.39ZM997.361 681.39C995.927 701.425 998.174 724.019 997.361 770.074ZM997.361 681.39C998.046 703.207 998.365 723.834 997.361 770.074ZM997.361 770.074C997.002 786.529 988.954 795.917 971.86 794.657ZM997.361 770.074C996.995 788.012 989.32 795.971 971.86 794.657ZM971.86 794.657C898.049 794.842 822.325 794.127 734.345 794.657ZM971.86 794.657C895.634 796.401 820.548 796.509 734.345 794.657ZM734.345 794.657C716.048 794.604 710.366 786.276 708.843 770.074ZM734.345 794.657C715.984 794.242 707.927 785.777 708.843 770.074ZM708.843 770.074C708.939 748.026 710.19 728.421 708.843 681.39ZM708.843 770.074C709.338 748.418 708.764 726.17 708.843 681.39ZM708.843 681.39C709.672 664.773 717.912 655.4 734.345 656.806ZM708.843 681.39C710.389 664.634 717.012 655.37 734.345 656.806Z" fill="white"/>
<path d="M734.345 656.806C794.728 656.683 853.644 654.878 971.86 656.806M734.345 656.806C814.523 655.669 893.976 654.916 971.86 656.806M734.345 656.806C717.912 655.4 709.672 664.773 708.843 681.39M734.345 656.806C717.012 655.37 710.389 664.634 708.843 681.39M971.86 656.806C988.954 656.46 997.895 665.103 997.361 681.39M971.86 656.806C987.567 657.728 997.879 664.919 997.361 681.39M997.361 681.39C995.927 701.425 998.174 724.019 997.361 770.074M997.361 681.39C998.046 703.207 998.365 723.834 997.361 770.074M997.361 770.074C997.002 786.529 988.954 795.917 971.86 794.657M997.361 770.074C996.995 788.012 989.32 795.971 971.86 794.657M971.86 794.657C898.049 794.842 822.325 794.127 734.345 794.657M971.86 794.657C895.634 796.401 820.548 796.509 734.345 794.657M734.345 794.657C716.048 794.604 710.366 786.276 708.843 770.074M734.345 794.657C715.984 794.242 707.927 785.777 708.843 770.074M708.843 770.074C708.939 748.026 710.19 728.421 708.843 681.39M708.843 770.074C709.338 748.418 708.764 726.17 708.843 681.39" stroke="#1E1E1E" stroke-width="4" stroke-linecap="round"/>
<path d="M216.771 0.418332C413.945 -0.0592 611.638 -0.0523781 786.642 0.418332C805.489 0.745782 810.486 9.42321 812.143 22.2483C812.829 220.076 813.626 418.913 812.143 773.979C812.805 789.724 804.421 797.93 786.642 795.809C628.78 798.34 468.702 799.097 216.771 795.809C197.055 795.345 191.796 787.111 191.27 773.979C186.879 580.865 185.5 388.658 191.27 22.2483C189.03 8.359 197.988 -1.56001 216.771 0.418332Z" fill="white"/>
<path d="M216.771 0.418346C364.393 1.92598 512.772 1.50303 786.642 0.418346M216.771 0.418346C421.046 0.00903362 625.337 -0.270663 786.642 0.418346M216.771 0.418346C200.402 1.10053 189.684 8.02474 191.269 22.2484M216.771 0.418346C198.569 1.2779 192.09 7.01511 191.269 22.2484M786.642 0.418346C802.835 -0.611758 811.299 8.70011 812.143 22.2484M786.642 0.418346C802.317 -0.386635 813.211 8.14072 812.143 22.2484M812.143 22.2484C814.152 298.48 814.415 573.716 812.143 773.979M812.143 22.2484C811.617 319.669 811.091 617.294 812.143 773.979M812.143 773.979C812.048 788.052 805.106 796.416 786.642 795.809M812.143 773.979C812.932 789.144 802.66 794.328 786.642 795.809M786.642 795.809C605.828 794.247 426.616 794.124 216.771 795.809M786.642 795.809C587.419 794.015 388.292 793.967 216.771 795.809M216.771 795.809C200.02 794.69 190.433 789.833 191.269 773.979M216.771 795.809C199.478 796.832 190.202 788.98 191.269 773.979M191.269 773.979C193.325 545.268 193.078 315.296 191.269 22.2484M191.269 773.979C193.381 515.764 193.317 257.146 191.269 22.2484" stroke="#1E1E1E" stroke-width="4" stroke-linecap="round"/>
<path d="M37.3849 686.208C49.6336 686.277 59.619 686.124 71.3577 686.208ZM37.3849 686.208C45.8641 685.862 53.2835 687.015 71.3577 686.208ZM71.3577 686.208C83.9809 685.709 89.2725 692.17 88.3401 702.579ZM71.3577 686.208C81.0721 685.847 89.0334 691.947 88.3401 702.579ZM88.3401 702.579C89.2486 721.831 87.8619 739.277 88.3401 758.998ZM88.3401 702.579C88.5154 722.461 88.3162 743.418 88.3401 758.998ZM88.3401 758.998C86.8259 768.416 81.112 775.438 71.3577 775.369ZM88.3401 758.998C87.575 770.322 82.0444 773.725 71.3577 775.369ZM71.3577 775.369C64.9265 774.593 55.3395 774.908 37.3849 775.369ZM71.3577 775.369C62.8943 775.077 54.0724 774.931 37.3849 775.369ZM37.3849 775.369C24.666 775.83 21.2153 768.401 20.4025 758.998ZM37.3849 775.369C25.4151 775.469 20.6814 770.905 20.4025 758.998ZM20.4025 758.998C20.9922 742.496 21.7413 725.626 20.4025 702.579ZM20.4025 758.998C20.9045 744.97 21.1994 731.749 20.4025 702.579ZM20.4025 702.579C20.1953 691.155 27.1444 686.254 37.3849 686.208ZM20.4025 702.579C22.1477 690.625 27.4871 687.76 37.3849 686.208Z" fill="white"/>
<path d="M37.3849 686.208C49.6336 686.277 59.619 686.124 71.3577 686.208M37.3849 686.208C45.8641 685.862 53.2835 687.015 71.3577 686.208M37.3849 686.208C27.1444 686.254 20.1953 691.155 20.4025 702.579M37.3849 686.208C27.4871 687.76 22.1477 690.625 20.4025 702.579M71.3577 686.208C83.9809 685.709 89.2725 692.17 88.3401 702.579M71.3577 686.208C81.0721 685.847 89.0334 691.947 88.3401 702.579M88.3401 702.579C89.2486 721.831 87.8619 739.277 88.3401 758.998M88.3401 702.579C88.5154 722.461 88.3162 743.418 88.3401 758.998M88.3401 758.998C86.8259 768.416 81.112 775.438 71.3577 775.369M88.3401 758.998C87.575 770.322 82.0444 773.725 71.3577 775.369M71.3577 775.369C64.9265 774.593 55.3395 774.908 37.3849 775.369M71.3577 775.369C62.8943 775.077 54.0724 774.931 37.3849 775.369M37.3849 775.369C24.666 775.83 21.2153 768.401 20.4025 758.998M37.3849 775.369C25.4151 775.469 20.6814 770.905 20.4025 758.998M20.4025 758.998C20.9922 742.496 21.7413 725.626 20.4025 702.579M20.4025 758.998C20.9045 744.97 21.1994 731.749 20.4025 702.579" stroke="#1E1E1E" stroke-width="4" stroke-linecap="round"/>
<path d="M138.969 702.081C144.827 701.727 153.155 704.985 158.016 708.534C162.877 712.083 166.36 718.021 168.121 723.399C169.874 728.769 170.392 735.237 168.535 740.784C166.686 746.338 161.849 753.114 156.988 756.679C152.127 760.243 145.201 762.241 139.368 762.172C133.534 762.095 126.753 759.644 121.971 756.241C117.189 752.845 112.647 747.322 110.663 741.775C108.678 736.229 108.144 728.669 110.065 722.961C111.986 717.261 116.823 710.969 122.17 707.55C127.518 704.132 138.746 703.21 142.165 702.465C145.584 701.72 142.89 702.749 142.683 703.079M124.681 705.837C129.621 702.688 137.447 700.529 143.289 701.32C149.13 702.119 155.498 706.16 159.729 710.593C163.961 715.018 167.587 722.178 168.679 727.901C169.762 733.617 168.798 739.893 166.248 744.925C163.706 749.957 158.574 755.204 153.402 758.085C148.238 760.966 141.009 763.086 135.24 762.225C129.47 761.365 122.983 757.217 118.783 752.899C114.576 748.582 111.292 741.929 110.001 736.313C108.71 730.697 108.407 724.513 111.037 719.205C113.675 713.888 123.461 706.613 125.796 704.439C128.123 702.265 124.88 705.43 125.039 706.168" fill="white"/>
<path d="M138.969 702.081C144.827 701.727 153.155 704.985 158.016 708.534C162.877 712.083 166.36 718.021 168.121 723.399C169.874 728.769 170.392 735.237 168.535 740.784C166.686 746.338 161.849 753.114 156.988 756.679C152.127 760.243 145.201 762.241 139.368 762.172C133.534 762.095 126.753 759.644 121.971 756.241C117.189 752.845 112.647 747.322 110.663 741.775C108.678 736.229 108.144 728.669 110.065 722.961C111.986 717.261 116.823 710.969 122.17 707.55C127.518 704.132 138.746 703.21 142.165 702.465C145.584 701.72 142.89 702.749 142.683 703.079M124.681 705.837C129.621 702.688 137.447 700.529 143.289 701.32C149.13 702.119 155.498 706.16 159.729 710.593C163.961 715.018 167.587 722.178 168.679 727.901C169.762 733.617 168.798 739.893 166.248 744.925C163.706 749.957 158.574 755.204 153.402 758.085C148.238 760.966 141.009 763.086 135.24 762.225C129.47 761.365 122.983 757.217 118.783 752.899C114.576 748.582 111.292 741.929 110.001 736.313C108.71 730.697 108.407 724.513 111.037 719.205C113.675 713.888 123.461 706.613 125.796 704.439C128.123 702.265 124.88 705.43 125.039 706.168" stroke="#1E1E1E" stroke-width="4" stroke-linecap="round"/>
<path d="M271.762 368.956C392.783 370.186 513.389 370.516 738.034 368.956M271.762 368.956C386.894 369.978 501.523 369.717 738.034 368.956M271.762 368.956C253.274 367.796 247.249 376.308 246.261 393.54M271.762 368.956C255.338 369.871 246.157 376.685 246.261 393.54M738.034 368.956C755.247 367.942 763.551 376.109 763.535 393.54M738.034 368.956C756.227 367.658 763.503 378.506 763.535 393.54M763.535 393.54C763.4 470.724 762.73 550.497 763.535 598.719M763.535 393.54C763.894 458.54 764.356 522.833 763.535 598.719M763.535 598.719C764.181 616.119 754.665 624.47 738.034 623.302M763.535 598.719C764.236 613.369 755.287 622.303 738.034 623.302M738.034 623.302C642.546 621.282 547.147 621.32 271.762 623.302M738.034 623.302C641.423 623.625 545.067 623.279 271.762 623.302M271.762 623.302C254.477 622.687 246.444 615.789 246.261 598.719M271.762 623.302C255.625 622.288 247.138 613.761 246.261 598.719M246.261 598.719C244.532 554.761 245.831 511.84 246.261 393.54M246.261 598.719C245.854 525.967 246.46 453.185 246.261 393.54" stroke="#1E1E1E" stroke-width="4" stroke-linecap="round"/>
<path d="M367.238 503.944C378.156 503.667 392.636 504.943 407.395 503.944M367.238 503.944C377.279 503.66 389.026 503.944 407.395 503.944M367.238 503.944C352.838 503.998 346.973 511.91 347.164 523.296M367.238 503.944C352.583 504.558 346.184 510.95 347.164 523.296M407.395 503.944C421.094 505.058 427.549 510.858 427.478 523.296M407.395 503.944C422.226 502.937 428.219 511.557 427.478 523.296M427.478 523.296C426.489 544.222 427.159 563.267 427.478 598.067M427.478 523.296C426.378 538.637 426.434 552.895 427.478 598.067M427.478 598.067C426.346 611.02 419.859 618.725 407.395 617.419M427.478 598.067C426.768 610.474 420.457 616.72 407.395 617.419M407.395 617.419C393.967 618.341 381.153 616.251 367.238 617.419M407.395 617.419C393.871 617.089 381.033 617.473 367.238 617.419M367.238 617.419C353.922 618.072 346.303 611.78 347.164 598.067M367.238 617.419C354.647 619.186 348.303 609.998 347.164 598.067M347.164 598.067C347.331 583.102 348.574 566.969 347.164 523.296M347.164 598.067C347.395 577.648 347.259 558.811 347.164 523.296" stroke="#1E1E1E" stroke-width="4" stroke-linecap="round"/>
<path d="M387.387 584.269C387.57 584.561 389.052 592.028 389.148 584.661C389.244 577.294 388.391 547.578 387.961 540.065M386.215 583.839C386.287 584.323 388.558 593.25 388.797 585.683C389.036 578.116 388.056 545.981 387.65 538.421" stroke="#1E1E1E" stroke-width="4" stroke-linecap="round"/>
<path d="M395.165 556.206C393.778 550.966 389.291 544.121 387.65 538.421ZM395.165 556.206C393.132 550.398 390.487 544.92 387.65 538.421Z" stroke="#1E1E1E" stroke-width="4" stroke-linecap="round"/>
<path d="M381.545 556.705C385.132 551.281 385.618 544.252 387.65 538.421ZM381.545 556.705C384.04 550.759 385.928 545.112 387.65 538.421Z" stroke="#1E1E1E" stroke-width="4" stroke-linecap="round"/>
<path d="M368.909 376.615C380.368 377.199 393.382 374.948 409.066 376.615M368.909 376.615C380.297 377.114 391.414 376.784 409.066 376.615M368.909 376.615C354.421 377.153 347.981 383.552 348.834 395.967M368.909 376.615C354.803 377.568 350.006 381.601 348.834 395.967M409.066 376.615C423.713 375.739 429.793 384.074 429.148 395.967M409.066 376.615C422.031 377.959 429.849 381.324 429.148 395.967M429.148 395.967C427.156 417.93 428.781 442.26 429.148 470.738M429.148 395.967C428.311 420.151 428.415 444.934 429.148 470.738M429.148 470.738C428.534 483.207 422.167 489.483 409.066 490.09M429.148 470.738C429.363 484.421 423.315 489.084 409.066 490.09M409.066 490.09C395.574 490.543 379.564 489.207 368.909 490.09M409.066 490.09C396.825 490.636 384.09 490.712 368.909 490.09M368.909 490.09C356.214 491.627 349.822 482.8 348.834 470.738M368.909 490.09C353.815 488.761 348.731 483.176 348.834 470.738M348.834 470.738C347.91 446.992 348.476 422.624 348.834 395.967M348.834 470.738C348.133 453.476 347.726 434.732 348.834 395.967" stroke="#1E1E1E" stroke-width="4" stroke-linecap="round"/>
<path d="M364.959 415.614C368.896 414.392 384.635 409.268 388.676 408.023M364.561 415.322C368.601 414.177 385.384 409.629 389.465 408.523" stroke="#1E1E1E" stroke-width="4" stroke-linecap="round"/>
<path d="M388.678 407.894C392.99 409.108 410.785 414.117 415.192 415.408M389.276 407.487C393.524 408.763 410.666 414.732 414.929 415.984" stroke="#1E1E1E" stroke-width="4" stroke-linecap="round"/>
<path d="M414.981 415.487C415.132 420.696 418.766 437.897 414.678 446.401C410.59 454.898 394.364 463.271 390.443 466.49M414.008 414.765C414.128 419.736 418.049 436.775 414.016 445.118C409.992 453.461 393.575 461.312 389.862 464.831" stroke="#1E1E1E" stroke-width="4" stroke-linecap="round"/>
<path d="M365.325 416.217C365.293 421.303 361.181 437.935 365.317 446.217C369.445 454.491 386.037 462.426 390.109 465.891M364.257 415.764C364.074 420.55 360.312 436.253 364.584 444.726C368.855 453.208 385.639 463.187 389.894 466.629" stroke="#1E1E1E" stroke-width="4" stroke-linecap="round"/>
<path d="M491.794 376.615C505.118 377.806 516.57 377.222 531.951 376.615M491.794 376.615C506.792 375.562 521.28 375.885 531.951 376.615M491.794 376.615C478.621 376.584 470.731 381.831 471.719 395.967M491.794 376.615C480.143 378.159 471.512 384.474 471.719 395.967M531.951 376.615C543.825 375.117 550.463 383.137 552.033 395.967M531.951 376.615C544.566 377.022 551.395 381.416 552.033 395.967M552.033 395.967C553.404 412.507 551.603 429.953 552.033 470.738M552.033 395.967C552.495 414.973 552.503 434.278 552.033 470.738M552.033 470.738C550.63 484.098 546.152 488.584 531.951 490.09M552.033 470.738C551.379 483.745 545.618 491.089 531.951 490.09M531.951 490.09C520.578 490.551 509.111 490.835 491.794 490.09M531.951 490.09C522.069 489.599 512.53 490.198 491.794 490.09M491.794 490.09C478.198 489.583 472.803 483.683 471.719 470.738M491.794 490.09C480.159 489.053 473.146 485.197 471.719 470.738M471.719 470.738C471.01 448.383 471.456 426.611 471.719 395.967M471.719 470.738C470.906 446.109 471.592 420.043 471.719 395.967" stroke="#1E1E1E" stroke-width="4" stroke-linecap="round"/>
<path d="M487.932 415.237C492.02 414.031 508.142 409.522 512.127 408.392M487.582 416.028C491.622 414.692 507.879 409.168 511.872 407.793" stroke="#1E1E1E" stroke-width="4" stroke-linecap="round"/>
<path d="M512.121 408.255C516.377 409.577 533.479 414.555 537.806 415.661M511.683 408.033C515.843 409.262 533.048 413.894 537.415 415.085" stroke="#1E1E1E" stroke-width="4" stroke-linecap="round"/>
<path d="M537.284 416.04C537.26 420.857 541.723 436.544 537.738 444.818C533.762 453.092 517.648 462.273 513.416 465.691M538.926 415.61C538.774 420.442 541.524 437.052 537.181 445.525C532.837 453.991 517.058 463.064 512.875 466.429" stroke="#1E1E1E" stroke-width="4" stroke-linecap="round"/>
<path d="M488.386 414.642C488.465 419.498 484.465 436.936 488.282 445.41C492.107 453.891 507.496 462.012 511.329 465.522M487.421 416.171C487.405 421.08 483.309 438.004 487.597 446.324C491.892 454.637 509.257 462.557 513.162 466.06" stroke="#1E1E1E" stroke-width="4" stroke-linecap="round"/>
<path d="M614.679 376.615C627.374 375.102 640.324 375.048 654.836 376.615M614.679 376.615C626.633 375.808 638.579 376.554 654.836 376.615M614.679 376.615C602.407 376.738 595.147 381.808 594.605 395.967M614.679 376.615C601.514 376.753 594.39 383.176 594.605 395.967M654.836 376.615C667.3 377.913 674.305 382.63 674.919 395.967M654.836 376.615C667.898 375.908 675.134 383.844 674.919 395.967M674.919 395.967C673.261 420.573 674.95 448.66 674.919 470.738M674.919 395.967C674.759 411.485 674.671 426.473 674.919 470.738M674.919 470.738C674.058 484.451 668.91 491.627 654.836 490.09M674.919 470.738C676.05 482.669 666.511 488.761 654.836 490.09M654.836 490.09C643.839 490.013 630.665 491.258 614.679 490.09M654.836 490.09C643.297 490.536 630.426 490.62 614.679 490.09M614.679 490.09C600.279 490.152 593.752 484.121 594.605 470.738M614.679 490.09C600.024 490.712 595.776 482.177 594.605 470.738M594.605 470.738C592.931 450.319 592.907 432.012 594.605 395.967M594.605 470.738C595.449 449.136 595.083 425.943 594.605 395.967" stroke="#1E1E1E" stroke-width="4" stroke-linecap="round"/>
<path d="M610.061 415.06C614.037 413.877 630.302 409.276 634.399 408.131M610.642 415.767C614.738 414.676 631.227 409.852 635.164 408.676" stroke="#1E1E1E" stroke-width="4" stroke-linecap="round"/>
<path d="M634.401 408.002C638.768 409.308 656.237 414.278 660.612 415.438M634.975 407.641C639.302 408.855 655.95 413.487 660.174 414.747" stroke="#1E1E1E" stroke-width="4" stroke-linecap="round"/>
<path d="M659.994 415.556C660.074 420.465 664.011 436.422 659.93 444.872C655.842 453.315 639.545 462.557 635.489 466.244M661.532 414.865C661.54 419.859 663.014 436.867 658.998 445.602C654.981 454.337 641.354 463.963 637.441 467.266" stroke="#1E1E1E" stroke-width="4" stroke-linecap="round"/>
<path d="M610.578 414.689C610.554 419.72 606.362 437.213 610.362 445.963C614.363 454.721 630.509 463.832 634.573 467.197M612.156 416.248C612.466 421.426 608.577 438.903 612.164 447.162C615.75 455.428 629.911 462.526 633.672 465.807" stroke="#1E1E1E" stroke-width="4" stroke-linecap="round"/>
<path d="M489.036 504.804C499.755 504.19 511.709 504.489 529.193 504.804M489.036 504.804C500.042 505.296 511.238 504.52 529.193 504.804M489.036 504.804C476.07 504.105 469.775 510.719 468.962 524.156M489.036 504.804C477.21 504.52 468.5 512.387 468.962 524.156M529.193 504.804C543.346 503.636 547.873 511.711 549.276 524.156M529.193 504.804C543.522 503.068 548.622 511.357 549.276 524.156M549.276 524.156C550.383 546.895 550.551 571.963 549.276 598.928M549.276 524.156C549.013 553.464 549.714 583.724 549.276 598.928M549.276 598.928C549.778 612.625 542.366 617.772 529.193 618.279M549.276 598.928C550.519 611.88 544.327 617.242 529.193 618.279M529.193 618.279C515.598 617.258 498.918 617.411 489.036 618.279M529.193 618.279C516.403 617.78 502.265 618.832 489.036 618.279M489.036 618.279C476.397 617.073 467.974 610.597 468.962 598.928M489.036 618.279C475.895 618.249 468.755 613.24 468.962 598.928M468.962 598.928C467.782 569.958 466.985 541.011 468.962 524.156M468.962 598.928C469.145 575.973 468.46 553.318 468.962 524.156" stroke="#1E1E1E" stroke-width="4" stroke-linecap="round"/>
<path d="M508.651 585.206C508.858 585.391 509.735 593.05 509.798 585.56C509.862 578.069 509.113 547.678 509.025 540.257M510.109 584.807C510.229 585.122 509.153 593.895 508.85 586.605C508.555 579.314 508.213 548.961 508.332 541.072" stroke="#1E1E1E" stroke-width="4" stroke-linecap="round"/>
<path d="M515.146 559.117C514.931 554.362 511.568 550.536 508.332 541.071ZM515.146 559.117C513.727 554.016 511.958 549.176 508.332 541.071Z" stroke="#1E1E1E" stroke-width="4" stroke-linecap="round"/>
<path d="M501.518 559.125C504.419 554.439 504.18 550.621 508.332 541.071ZM501.518 559.125C503.646 553.962 505.423 549.122 508.332 541.071Z" stroke="#1E1E1E" stroke-width="4" stroke-linecap="round"/>
<path d="M613.147 502.342C622.431 502.212 631.97 502.673 653.304 502.342M613.147 502.342C627.356 501.981 640.091 502.796 653.304 502.342M613.147 502.342C601.114 502.097 592.666 509.779 593.073 521.694M613.147 502.342C598.061 502.496 592.746 510.163 593.073 521.694M653.304 502.342C667.505 500.837 672.821 508.88 673.386 521.694M653.304 502.342C666.971 503.333 673.458 509.541 673.386 521.694M673.386 521.694C675.379 541.038 672.916 557.048 673.386 596.466M673.386 521.694C673.594 538.887 673.235 555.028 673.386 596.466M673.386 596.466C674.462 609.411 668.206 614.911 653.304 615.818M673.386 596.466C674.813 610.924 666.469 617.569 653.304 615.818M653.304 615.818C644.323 614.542 634.895 616.594 613.147 615.818M653.304 615.818C644.968 615.426 635.389 615.411 613.147 615.818M613.147 615.818C599.974 615.787 592.889 610.594 593.073 596.466M613.147 615.818C601.496 617.37 593.973 608.811 593.073 596.466M593.073 596.466C593.83 571.306 593.806 546.692 593.073 521.694M593.073 596.466C594.061 573.196 593.862 550.111 593.073 521.694" stroke="#1E1E1E" stroke-width="4" stroke-linecap="round"/>
<path d="M633.136 581.592C633.383 581.938 634.283 591.095 634.387 583.766C634.49 576.437 633.861 545.355 633.757 537.634M631.885 580.594C632.044 580.686 633.446 589.39 633.694 582.353C633.941 575.308 633.303 545.77 633.391 538.372" stroke="#1E1E1E" stroke-width="4" stroke-linecap="round"/>
<path d="M640.324 556.379C637.925 551.831 637.447 547.667 633.391 538.372ZM640.324 556.379C637.845 552.184 637.272 546.83 633.391 538.372Z" stroke="#1E1E1E" stroke-width="4" stroke-linecap="round"/>
<path d="M626.697 556.456C627.86 551.915 630.952 547.729 633.391 538.372ZM626.697 556.456C627.525 552.346 630.259 546.968 633.391 538.372Z" stroke="#1E1E1E" stroke-width="4" stroke-linecap="round"/>
<path d="M313.615 496.959C379.52 496.767 642.903 495.393 708.76 495.039M312.515 496.368C378.341 496.322 642.257 496.092 708.234 495.946" stroke="#343A40" stroke-width="4" stroke-linecap="round"/>
<path d="M272.072 53.1104C423.073 53.5867 574.01 53.4253 738.343 53.1104M272.072 53.1104C452.67 53.3562 633.078 53.5252 738.343 53.1104M272.072 53.1104C254.611 51.5893 245.694 61.8375 246.571 77.6937M272.072 53.1104C256.389 54.2166 246.236 62.1063 246.571 77.6937M738.343 53.1104C753.979 53.4637 762.984 60.4777 763.845 77.6937M738.343 53.1104C753.62 52.0195 764.315 60.3317 763.845 77.6937M763.845 77.6937C763.374 135.349 763.295 190.347 763.845 282.873M763.845 77.6937C763.757 130.84 763.709 184.07 763.845 282.873M763.845 282.873C764.243 300.688 756.537 305.927 738.343 307.456M763.845 282.873C763.51 299.105 755.756 305.72 738.343 307.456M738.343 307.456C579.716 307.809 421.782 308.093 272.072 307.456M738.343 307.456C577.795 307.894 416.793 307.855 272.072 307.456M272.072 307.456C255.815 307.602 247.933 298.675 246.571 282.873M272.072 307.456C256.755 308.186 245.901 299.305 246.571 282.873M246.571 282.873C245.311 202.477 246.515 124.233 246.571 77.6937M246.571 282.873C247.981 240.059 247.758 195.594 246.571 77.6937" stroke="#1E1E1E" stroke-width="4" stroke-linecap="round"/>
<path d="M367.934 189.523C379.027 190.422 390.742 190.284 408.091 189.523M367.934 189.523C382.39 189.024 396.95 188.962 408.091 189.523M367.934 189.523C353.741 190.253 349.007 196.936 347.859 208.875M367.934 189.523C354.825 188.547 346.21 196.306 347.859 208.875M408.091 189.523C421.893 188.678 427.783 195.761 428.173 208.875M408.091 189.523C422.196 189.193 429.759 195.538 428.173 208.875M428.173 208.875C426.316 227.112 427.392 245.957 428.173 283.647M428.173 208.875C428.97 227.112 428.221 246.802 428.173 283.647M428.173 283.647C428.532 295.039 422.101 301.761 408.091 302.998M428.173 283.647C428.349 294.87 421.997 301.562 408.091 302.998M408.091 302.998C393.332 303.989 378.708 302.806 367.934 302.998M408.091 302.998C395.515 302.745 382.302 303.359 367.934 302.998M367.934 302.998C353.972 303.037 349.262 296.898 347.859 283.647M367.934 302.998C353.008 301.769 346.68 297.014 347.859 283.647M347.859 283.647C347.126 258.794 350.131 232.144 347.859 208.875M347.859 283.647C348.059 266.1 348.146 250.421 347.859 208.875" stroke="#1E1E1E" stroke-width="4" stroke-linecap="round"/>
<path d="M363.953 228.452C368.065 227.285 384.314 222.545 388.275 221.315M363.547 228.13C367.627 226.847 383.86 221.815 388.028 220.732" stroke="#1E1E1E" stroke-width="4" stroke-linecap="round"/>
<path d="M388.278 221.186C392.502 222.416 409.42 227.209 413.676 228.346M387.84 220.971C392.183 222.062 410.201 226.418 414.465 227.655" stroke="#1E1E1E" stroke-width="4" stroke-linecap="round"/>
<path d="M412.827 228.457C412.651 233.335 417.05 249.791 412.994 258.141C408.946 266.492 392.41 275.142 388.529 278.553M414.158 227.765C414.253 232.697 418.851 250.482 414.883 259.063C410.922 267.644 394.505 275.91 390.361 279.26" stroke="#1E1E1E" stroke-width="4" stroke-linecap="round"/>
<path d="M363.641 227.965C363.649 232.897 359.226 249.798 363.394 258.28C367.554 266.753 384.504 275.327 388.633 278.814M365.123 229.709C365.49 234.733 361.242 250.851 365.083 259.155C368.917 267.468 384.289 276.095 388.146 279.56" stroke="#1E1E1E" stroke-width="4" stroke-linecap="round"/>
<path d="M490.819 189.523C499.713 190.284 509.691 189.515 530.976 189.523M490.819 189.523C502.996 189.4 513.42 189.285 530.976 189.523M490.819 189.523C476.029 190.929 470.107 196.399 470.745 208.875M490.819 189.523C478.571 188.893 470.347 195.515 470.745 208.875M530.976 189.523C544.572 188.033 550.286 195.523 551.059 208.875M530.976 189.523C543.313 188.709 551.521 197.612 551.059 208.875M551.059 208.875C550.142 237.276 548.716 265.578 551.059 283.647M551.059 208.875C551.354 224.662 551.728 242.039 551.059 283.647M551.059 283.647C550.939 296.814 545.417 303.667 530.976 302.998M551.059 283.647C550.86 297.083 545.217 303.175 530.976 302.998M530.976 302.998C516.146 302.791 500.04 304.711 490.819 302.998M530.976 302.998C517.5 302.937 505.435 302.053 490.819 302.998M490.819 302.998C476.586 301.638 472.052 298.074 470.745 283.647M490.819 302.998C478.284 301.669 469.733 297.16 470.745 283.647M470.745 283.647C472.235 264.472 472.514 242.3 470.745 208.875M470.745 283.647C471.558 257.235 471.924 231.422 470.745 208.875" stroke="#1E1E1E" stroke-width="4" stroke-linecap="round"/>
<path d="M486.727 228.153C490.839 226.954 506.794 222.161 510.866 220.962M486.257 228.944C490.337 227.838 506.355 222.729 510.467 221.469" stroke="#1E1E1E" stroke-width="4" stroke-linecap="round"/>
<path d="M510.868 220.825C515.203 222.078 532.696 226.948 537.103 228.17M511.609 220.434C515.897 221.77 532.576 227.317 536.848 228.669" stroke="#1E1E1E" stroke-width="4" stroke-linecap="round"/>
<path d="M536.907 228.08C537.059 233.128 541.402 249.96 537.226 258.41C533.058 266.853 516.004 275.442 511.868 278.745M535.935 227.189C536.063 232.382 541.059 250.735 536.907 259.47C532.755 268.197 515.064 276.379 511.023 279.567" stroke="#1E1E1E" stroke-width="4" stroke-linecap="round"/>
<path d="M487.873 228.227C487.762 233.258 482.821 250.106 486.734 258.472C490.655 266.845 507.382 275.004 511.399 278.43M487.148 227.305C486.837 232.475 481.801 250.851 485.754 259.463C489.698 268.075 506.681 275.588 510.849 278.976" stroke="#1E1E1E" stroke-width="4" stroke-linecap="round"/>
<path d="M613.705 189.523C628.599 189.907 643.223 188.955 653.862 189.523M613.705 189.523C624.782 190.414 636.058 188.939 653.862 189.523M613.705 189.523C601.464 188.148 592.419 195.139 593.63 208.875M613.705 189.523C600.253 189.415 592.228 195.646 593.63 208.875M653.862 189.523C666.955 189.385 674.303 194.463 673.944 208.875M653.862 189.523C667.959 188.102 674.119 194.294 673.944 208.875M673.944 208.875C674.024 233.304 673.577 258.956 673.944 283.647M673.944 208.875C674.231 234.603 674.542 259.893 673.944 283.647M673.944 283.647C675.402 297.183 666.668 303.037 653.862 302.998M673.944 283.647C675.554 296.952 665.704 301.769 653.862 302.998M653.862 302.998C642.992 302.376 633.524 304.45 613.705 302.998M653.862 302.998C637.389 302.975 621.562 301.946 613.705 302.998M613.705 302.998C600.037 303.697 594.778 297.513 593.63 283.647M613.705 302.998C599.392 303.843 591.981 296.883 593.63 283.647M593.63 283.647C593.535 259.501 594.499 235.233 593.63 208.875M593.63 283.647C594.292 254.1 594.403 225.492 593.63 208.875" stroke="#1E1E1E" stroke-width="4" stroke-linecap="round"/>
<path d="M609.556 227.976C613.612 226.755 629.639 222.091 633.647 220.901M609.062 228.675C613.278 227.53 630.491 222.621 634.516 221.369" stroke="#1E1E1E" stroke-width="4" stroke-linecap="round"/>
<path d="M633.642 220.764C637.921 222.024 655.19 226.741 659.565 228.054M634.335 220.334C638.742 221.686 656.194 227.209 660.426 228.492" stroke="#1E1E1E" stroke-width="4" stroke-linecap="round"/>
<path d="M658.869 227.827C658.964 233.082 663.355 251.097 659.53 259.493C655.705 267.882 639.998 274.942 635.917 278.2M660.343 229.609C660.367 234.649 663.013 250.121 658.901 258.31C654.788 266.492 639.647 275.142 635.678 278.73" stroke="#1E1E1E" stroke-width="4" stroke-linecap="round"/>
<path d="M610.169 229.31C610.408 234.296 606.814 249.606 610.783 257.926C614.751 266.246 630.044 275.826 633.981 279.245M609.141 228.956C609.356 234.05 606.384 250.083 610.408 258.625C614.425 267.168 629.231 276.848 633.272 280.213" stroke="#1E1E1E" stroke-width="4" stroke-linecap="round"/>
<path d="M649.106 174.868C638.64 175.077 625.546 175.042 608.952 174.432M649.106 174.868C637.159 174.262 626.572 174.516 608.952 174.432M649.106 174.868C662.781 174.317 669.691 170.158 669.406 155.735M649.106 174.868C663.428 174.185 667.953 167.512 669.406 155.735M608.952 174.432C596.416 175.118 590.442 168.723 589.098 154.864M608.952 174.432C595.084 175.257 589.39 168.02 589.098 154.864M589.098 154.864C589.927 130.226 590.481 103.972 589.971 80.0963M589.098 154.864C590.107 140.047 589.636 123.8 589.971 80.0963M589.971 80.0963C588.909 68.7065 597.184 60.9521 610.278 60.9635M589.971 80.0963C589.687 68.9224 596.165 62.2317 610.278 60.9635M610.278 60.9635C624.031 59.8604 634.447 61.2257 650.432 61.3991M610.278 60.9635C623.096 60.703 635.358 60.9897 650.432 61.3991M650.432 61.3991C662.442 62.1132 668.979 67.4161 670.279 80.9674M650.432 61.3991C664.481 61.5054 668.825 67.645 670.279 80.9674M670.279 80.9674C669.143 96.3437 670.761 114.078 669.406 155.735M670.279 80.9674C670.351 97.3402 670.989 112.29 669.406 155.735" stroke="#1E1E1E" stroke-width="4" stroke-linecap="round"/>
<path d="M631.852 90.1908C631.752 89.9131 631.156 82.2776 630.958 89.6817C630.759 97.0858 630.695 127.209 630.656 134.623M633.115 90.5809C633.16 90.1281 632.21 81.4056 631.863 88.5622C631.509 95.7187 631.278 125.664 631.019 133.528" stroke="#1E1E1E" stroke-width="4" stroke-linecap="round"/>
<path d="M624.553 115.357C625.073 121.34 628.632 125.735 631.019 133.528ZM624.553 115.357C627.373 120.912 629.164 127.254 631.019 133.528Z" stroke="#1E1E1E" stroke-width="4" stroke-linecap="round"/>
<path d="M638.178 115.605C634.515 121.481 633.891 125.8 631.019 133.528ZM638.178 115.605C636.671 121.174 634.143 127.439 631.019 133.528Z" stroke="#1E1E1E" stroke-width="4" stroke-linecap="round"/>
<path d="M527.326 172.686C515.837 173.137 501.333 172.35 487.172 172.25M527.326 172.686C519.138 173.012 510.891 172.822 487.172 172.25M527.326 172.686C539.206 173.667 545.98 167.518 547.625 153.553M527.326 172.686C541.116 174.548 547.126 167.622 547.625 153.553M487.172 172.25C472.606 171.401 467.289 165.32 467.317 152.682M487.172 172.25C472.591 171.331 467.372 165.052 467.317 152.682M467.317 152.682C468.171 125.348 467.183 101.382 468.191 77.9142M467.317 152.682C467.567 130.604 467.681 107.265 468.191 77.9142M468.191 77.9142C467.545 66.36 475.947 60.0052 488.498 58.7815M468.191 77.9142C466.864 63.241 474.25 59.9561 488.498 58.7815M488.498 58.7815C499.905 59.2894 507.451 57.996 528.652 59.2171M488.498 58.7815C503.778 58.6169 517.493 59.3342 528.652 59.2171M528.652 59.2171C541.053 59.851 549.292 65.4719 548.499 78.7853M528.652 59.2171C543.676 57.7589 549.043 66.3451 548.499 78.7853M548.499 78.7853C547.085 106.997 548.477 131.804 547.625 153.553M548.499 78.7853C547.749 94.55 546.77 110.159 547.625 153.553" stroke="#1E1E1E" stroke-width="4" stroke-linecap="round"/>
<path d="M509.556 91.17C509.479 90.931 508.382 83.1672 508.208 90.5792C508.026 97.9834 508.399 128.089 508.487 135.619M510.797 92.0286C510.897 91.6378 509.168 82.7147 508.853 89.8794C508.539 97.044 508.965 127.419 508.908 135.001" stroke="#1E1E1E" stroke-width="4" stroke-linecap="round"/>
<path d="M502.025 116.979C504.572 123.407 508.577 129.934 508.908 135.001ZM502.025 116.979C503.318 121.618 504.479 124.604 508.908 135.001Z" stroke="#1E1E1E" stroke-width="4" stroke-linecap="round"/>
<path d="M515.654 116.927C513.085 123.345 511.98 129.894 508.908 135.001ZM515.654 116.927C513.96 121.457 512.124 124.449 508.908 135.001Z" stroke="#1E1E1E" stroke-width="4" stroke-linecap="round"/>
<path d="M403.195 173.8C393.455 173.188 381.856 173.507 363.041 173.365M403.195 173.8C394.374 173.044 386.793 173.177 363.041 173.365M403.195 173.8C416.932 175.44 423.037 168.584 423.494 154.668M403.195 173.8C416.188 174.295 422.596 167.404 423.494 154.668M363.041 173.365C348.61 172.548 343.216 166.235 343.186 153.796M363.041 173.365C348.803 173.041 341.458 167.353 343.186 153.796M343.186 153.796C343.186 123.15 343.17 96.5132 344.06 79.0291M343.186 153.796C343.491 137.251 344.505 120.037 344.06 79.0291M344.06 79.0291C342.929 64.5885 350.233 60.8955 364.367 59.8963M344.06 79.0291C345.23 65.5277 351.485 61.5006 364.367 59.8963M364.367 59.8963C374.68 60.5076 386.236 61.2322 404.521 60.3319M364.367 59.8963C376.681 60.4909 390.297 60.1776 404.521 60.3319M404.521 60.3319C419.327 59.0865 424.857 67.3979 424.368 79.9002M404.521 60.3319C416.761 61.087 423.134 66.0885 424.368 79.9002M424.368 79.9002C425.162 97.8482 423.848 113.484 423.494 154.668M424.368 79.9002C424.113 102.408 423.849 124.263 423.494 154.668" stroke="#1E1E1E" stroke-width="4" stroke-linecap="round"/>
<path d="M384.121 92.3331C383.989 92.0934 383.52 83.7602 383.451 91.0581C383.382 98.356 383.743 128.814 383.713 136.136M385.112 90.7227C385.109 90.3232 384.319 82.8777 384.16 90.3436C384.009 97.8097 384.432 127.792 384.191 135.519" stroke="#1E1E1E" stroke-width="4" stroke-linecap="round"/>
<path d="M377.492 117.438C380.757 123.105 383.147 128.662 384.191 135.519ZM377.492 117.438C379.153 121.228 380.042 124.979 384.191 135.519Z" stroke="#1E1E1E" stroke-width="4" stroke-linecap="round"/>
<path d="M391.12 117.516C389.985 123.205 387.984 128.738 384.191 135.519ZM391.12 117.516C389.8 121.351 387.708 125.085 384.191 135.519Z" stroke="#1E1E1E" stroke-width="4" stroke-linecap="round"/>
<path d="M313.909 179.831C379.695 179.662 642.982 178.924 708.887 178.97M312.793 181.382C378.443 181.367 642.225 180.23 708.274 179.761" stroke="#343A40" stroke-width="4" stroke-linecap="round"/>
<path d="M936.292 678.41C949.329 676.782 960.853 677.996 970.264 678.41ZM936.292 678.41C949.09 677.619 962.526 678.065 970.264 678.41ZM970.264 678.41C982.115 678.518 986.123 684.664 987.247 694.781ZM970.264 678.41C982.099 678.334 986.091 682.69 987.247 694.781ZM987.247 694.781C988.37 710.238 986.004 724.865 987.247 751.2ZM987.247 694.781C988.307 711.537 987.374 728.875 987.247 751.2ZM987.247 751.2C987.342 763.377 981.27 768.916 970.264 767.571ZM987.247 751.2C987.701 763.43 981.852 768.178 970.264 767.571ZM970.264 767.571C959.88 766.987 950.381 766.534 936.292 767.571ZM970.264 767.571C957.785 768.493 943.83 767.779 936.292 767.571ZM936.292 767.571C926.497 767.387 918.122 761.756 919.309 751.2ZM936.292 767.571C924.051 766.887 918.098 762.201 919.309 751.2ZM919.309 751.2C920.648 728.883 918.353 707.327 919.309 694.781ZM919.309 751.2C918.951 731.119 919.158 712.428 919.309 694.781ZM919.309 694.781C919.875 682.459 926.314 678.095 936.292 678.41ZM919.309 694.781C918.974 682.428 925.151 679.025 936.292 678.41Z" fill="white"/>
<path d="M936.292 678.41C949.329 676.782 960.853 677.996 970.264 678.41M936.292 678.41C949.09 677.619 962.526 678.065 970.264 678.41M936.292 678.41C926.314 678.095 919.875 682.459 919.309 694.781M936.292 678.41C925.151 679.025 918.974 682.428 919.309 694.781M970.264 678.41C982.115 678.518 986.123 684.664 987.247 694.781M970.264 678.41C982.099 678.334 986.091 682.69 987.247 694.781M987.247 694.781C988.37 710.238 986.004 724.865 987.247 751.2M987.247 694.781C988.307 711.537 987.374 728.875 987.247 751.2M987.247 751.2C987.342 763.377 981.27 768.916 970.264 767.571M987.247 751.2C987.701 763.43 981.852 768.178 970.264 767.571M970.264 767.571C959.88 766.987 950.381 766.534 936.292 767.571M970.264 767.571C957.785 768.493 943.83 767.779 936.292 767.571M936.292 767.571C926.497 767.387 918.122 761.756 919.309 751.2M936.292 767.571C924.051 766.887 918.098 762.201 919.309 751.2M919.309 751.2C920.648 728.883 918.353 707.327 919.309 694.781M919.309 751.2C918.951 731.119 919.158 712.428 919.309 694.781" stroke="#1E1E1E" stroke-width="4" stroke-linecap="round"/>
<path d="M866.327 693.869C871.842 694.767 878.927 699.169 882.991 703.472C887.055 707.766 890.052 713.812 890.729 719.65C891.398 725.481 890.068 733.417 887.031 738.487C883.995 743.558 878.13 747.798 872.503 750.065C866.885 752.323 859.179 753.314 853.298 752.047C847.416 750.779 840.961 746.754 837.216 742.459C833.47 738.165 831.414 732.004 830.832 726.28C830.251 720.549 830.801 713.144 833.709 708.096C836.618 703.057 841.71 697.971 848.269 696.012C854.828 694.053 868.272 695.889 873.085 696.358C877.899 696.819 877.428 698.463 877.15 698.808M872.838 696.465C878.257 698.217 883.82 703.226 886.784 708.281C889.749 713.336 891.199 721.056 890.641 726.795C890.076 732.534 887.454 738.434 883.421 742.728C879.389 747.022 872.464 751.094 866.463 752.554C860.454 754.006 852.923 753.706 847.4 751.463C841.878 749.22 836.1 744.126 833.327 739.087C830.546 734.055 830.187 727.217 830.745 721.233C831.295 715.241 832.61 707.766 836.65 703.172C840.69 698.586 849.138 694.99 854.971 693.684C860.805 692.378 868.862 694.998 871.651 695.336C874.44 695.674 871.882 695.198 871.699 695.705" fill="white"/>
<path d="M866.327 693.869C871.842 694.767 878.927 699.169 882.991 703.472C887.055 707.766 890.052 713.812 890.729 719.65C891.398 725.481 890.068 733.417 887.031 738.487C883.995 743.558 878.13 747.798 872.503 750.065C866.885 752.323 859.179 753.314 853.298 752.047C847.416 750.779 840.961 746.754 837.216 742.459C833.47 738.165 831.414 732.004 830.832 726.28C830.251 720.549 830.801 713.144 833.709 708.096C836.618 703.057 841.71 697.971 848.269 696.012C854.828 694.053 868.272 695.889 873.085 696.358C877.899 696.819 877.428 698.463 877.15 698.808M872.838 696.465C878.257 698.217 883.82 703.226 886.784 708.281C889.749 713.336 891.199 721.056 890.641 726.795C890.076 732.534 887.454 738.434 883.421 742.728C879.389 747.022 872.464 751.094 866.463 752.554C860.454 754.006 852.923 753.706 847.4 751.463C841.878 749.22 836.1 744.126 833.327 739.087C830.546 734.055 830.187 727.217 830.745 721.233C831.295 715.241 832.61 707.766 836.65 703.172C840.69 698.586 849.138 694.99 854.971 693.684C860.805 692.378 868.862 694.998 871.651 695.336C874.44 695.674 871.882 695.198 871.699 695.705" stroke="#1E1E1E" stroke-width="4" stroke-linecap="round"/>
</svg>
