<svg width="83" height="120" viewBox="0 0 83 120" fill="none" xmlns="http://www.w3.org/2000/svg">
<path d="M21.9439 2.48735C40.1965 3.51196 53.5096 4.63144 60.6936 2.48735C75.4454 1.273 79.5889 8.43578 80.0685 21.6513C83.2816 51.1658 83.6749 84.5889 80.0685 99.0188C82.1115 112.225 70.8222 114.777 60.6936 118.183C48.8864 116.124 41.031 117.196 21.9439 118.183C7.4415 119.511 5.0628 112.102 2.56901 99.0188C3.16368 73.9538 0.180718 54.3914 2.56901 21.6513C4.18997 11.3294 12.1413 3.23684 21.9439 2.48735Z" fill="white"/>
<path d="M21.9439 2.48735C32.2068 2.19325 43.8509 1.02633 60.6936 2.48735M21.9439 2.48735C33.0988 2.48735 44.5319 1.8612 60.6936 2.48735M21.9439 2.48735C10.7026 1.31095 3.75835 9.52679 2.569 21.6513M21.9439 2.48735C9.15838 3.55939 0.669883 10.5324 2.569 21.6513M60.6936 2.48735C74.8507 4.01478 79.0134 7.07912 80.0685 21.6513M60.6936 2.48735C73.575 1.5671 81.536 8.25552 80.0685 21.6513M80.0685 21.6513C81.5456 44.5722 82.4663 66.44 80.0685 99.0188M80.0685 21.6513C80.5001 39.8287 79.3875 57.9301 80.0685 99.0188M80.0685 99.0188C81.6798 113.316 74.4478 116.788 60.6936 118.183M80.0685 99.0188C78.1406 111.286 74.0642 119.767 60.6936 118.183M60.6936 118.183C45.6541 116.874 33.5688 119.824 21.9439 118.183M60.6936 118.183C49.4427 119.283 36.5709 118.562 21.9439 118.183M21.9439 118.183C10.5204 119.871 4.11324 111.02 2.569 99.0188M21.9439 118.183C11.2301 116.105 4.18997 113.022 2.569 99.0188M2.569 99.0188C1.67699 73.821 1.28374 45.0276 2.569 21.6513M2.569 99.0188C2.92389 73.9918 2.12779 46.9725 2.569 21.6513" stroke="#1E1E1E" stroke-width="2" stroke-linecap="round"/>
<path d="M11.0242 86.1852C21.5652 86.1852 63.7487 86.1852 74.2898 86.1852" stroke="#1E1E1E" stroke-width="2" stroke-linecap="round"/>
<path d="M23.217 2.38C34.8228 2.38 46.4381 2.38 58.1206 2.38C60.4993 2.38 61.6982 3.55641 61.6982 5.9187C61.6982 7.81613 61.6982 9.72304 61.6982 12.9866C61.6982 15.3394 60.4993 16.5158 58.1206 16.5158C50.2076 16.5158 42.2946 16.5158 23.217 16.5158C20.8288 16.5158 19.6394 15.3394 19.6394 12.9866C19.6394 11.4307 19.6394 9.88432 19.6394 5.9187C19.6394 3.55641 20.8288 2.38 23.217 2.38Z" fill="white"/>
<path d="M23.217 2.38C32.6647 2.38 42.1123 2.38 58.1206 2.38M23.217 2.38C33.0867 2.38 42.9564 2.38 58.1206 2.38M23.217 2.38C20.8288 2.38 19.6394 3.55641 19.6394 5.9187M58.1206 2.38C60.4993 2.38 61.6982 3.55641 61.6982 5.9187M61.6982 5.9187C61.6982 8.44228 61.6982 10.9753 61.6982 12.9866M61.6982 5.9187C61.6982 7.73074 61.6982 9.55227 61.6982 12.9866M61.6982 12.9866C61.6982 15.3394 60.4993 16.5158 58.1206 16.5158M58.1206 16.5158C50.6488 16.5158 43.1866 16.5158 23.217 16.5158M58.1206 16.5158C44.3855 16.5158 30.6601 16.5158 23.217 16.5158M23.217 16.5158C20.8288 16.5158 19.6394 15.3394 19.6394 12.9866M19.6394 12.9866C19.6394 10.3587 19.6394 7.73074 19.6394 5.9187M19.6394 12.9866C19.6394 10.2543 19.6394 7.52202 19.6394 5.9187" stroke="#1E1E1E" stroke-width="2" stroke-linecap="round"/>
<path d="M36.1244 8.46436C36.0983 8.46436 36.0479 8.47087 35.973 8.48389C35.9014 8.49365 35.8168 8.50667 35.7191 8.52295C35.6215 8.53923 35.5189 8.55876 35.4115 8.58154C35.3041 8.60107 35.2032 8.61898 35.1088 8.63525C35.0144 8.65153 34.933 8.66618 34.8646 8.6792C34.793 8.68896 34.7458 8.69385 34.723 8.69385C34.5049 8.69385 34.3959 8.57992 34.3959 8.35205C34.3959 8.2902 34.4024 8.22998 34.4154 8.17139C34.4252 8.10954 34.4447 8.0542 34.474 8.00537C34.5033 7.95329 34.5424 7.90934 34.5912 7.87354C34.64 7.83773 34.7019 7.81331 34.7767 7.80029C35.1576 7.7417 35.5368 7.67985 35.9144 7.61475C36.292 7.54964 36.6729 7.48128 37.057 7.40967C37.1416 7.39339 37.2181 7.37874 37.2865 7.36572C37.3549 7.34945 37.4314 7.32829 37.516 7.30225C37.6071 7.2762 37.7064 7.25179 37.8138 7.229C37.9213 7.20296 38.0287 7.18018 38.1361 7.16064C38.2468 7.14111 38.3526 7.12484 38.4535 7.11182C38.5577 7.0988 38.6521 7.09229 38.7367 7.09229C38.8409 7.09229 38.919 7.12646 38.9711 7.19482C39.0264 7.25993 39.0541 7.3527 39.0541 7.47314C39.0541 7.53499 39.0492 7.59521 39.0394 7.65381C39.0297 7.70915 39.0118 7.7596 38.9857 7.80518C38.9597 7.85075 38.9239 7.88818 38.8783 7.91748C38.8327 7.94678 38.7741 7.96468 38.7025 7.97119C38.517 7.99723 38.3184 8.02979 38.1068 8.06885C37.8952 8.10465 37.7113 8.14535 37.5551 8.19092C37.4899 8.21045 37.4411 8.243 37.4086 8.28857C37.376 8.33089 37.3549 8.3846 37.3451 8.44971C37.3353 8.51156 37.3288 8.57503 37.3256 8.64014C37.3256 8.70199 37.3256 8.76221 37.3256 8.8208C37.3256 8.95752 37.3304 9.09424 37.3402 9.23096C37.3532 9.36768 37.3646 9.50439 37.3744 9.64111C37.4037 10.1099 37.4476 10.5737 37.5062 11.0327C37.5681 11.4917 37.6348 11.9556 37.7064 12.4243C37.7129 12.4406 37.7162 12.4569 37.7162 12.4731C37.7162 12.4894 37.7162 12.5057 37.7162 12.522C37.7162 12.701 37.6153 12.828 37.4135 12.9028L37.1937 12.9712C37.1351 12.9907 37.0782 13.0005 37.0228 13.0005C36.9382 13.0005 36.8698 12.9728 36.8177 12.9175C36.7657 12.8654 36.7315 12.7873 36.7152 12.6831C36.6241 12.1232 36.5443 11.5666 36.476 11.0132C36.4076 10.4565 36.3636 9.89665 36.3441 9.3335C36.3376 9.24235 36.3327 9.14307 36.3295 9.03564C36.3262 8.92822 36.3246 8.81755 36.3246 8.70361C36.3246 8.54411 36.2579 8.46436 36.1244 8.46436ZM39.972 8.46436C39.946 8.46436 39.8955 8.47087 39.8207 8.48389C39.7491 8.49365 39.6644 8.50667 39.5668 8.52295C39.4691 8.53923 39.3666 8.55876 39.2592 8.58154C39.1517 8.60107 39.0508 8.61898 38.9564 8.63525C38.862 8.65153 38.7806 8.66618 38.7123 8.6792C38.6407 8.68896 38.5935 8.69385 38.5707 8.69385C38.3526 8.69385 38.2435 8.57992 38.2435 8.35205C38.2435 8.2902 38.25 8.22998 38.2631 8.17139C38.2728 8.10954 38.2924 8.0542 38.3217 8.00537C38.351 7.95329 38.39 7.90934 38.4388 7.87354C38.4877 7.83773 38.5495 7.81331 38.6244 7.80029C39.0052 7.7417 39.3845 7.67985 39.7621 7.61475C40.1397 7.54964 40.5205 7.48128 40.9047 7.40967C40.9893 7.39339 41.0658 7.37874 41.1342 7.36572C41.2025 7.34945 41.279 7.32829 41.3636 7.30225C41.4548 7.2762 41.5541 7.25179 41.6615 7.229C41.7689 7.20296 41.8763 7.18018 41.9838 7.16064C42.0944 7.14111 42.2002 7.12484 42.3011 7.11182C42.4053 7.0988 42.4997 7.09229 42.5844 7.09229C42.6885 7.09229 42.7666 7.12646 42.8187 7.19482C42.8741 7.25993 42.9017 7.3527 42.9017 7.47314C42.9017 7.53499 42.8969 7.59521 42.8871 7.65381C42.8773 7.70915 42.8594 7.7596 42.8334 7.80518C42.8073 7.85075 42.7715 7.88818 42.726 7.91748C42.6804 7.94678 42.6218 7.96468 42.5502 7.97119C42.3646 7.99723 42.1661 8.02979 41.9545 8.06885C41.7429 8.10465 41.559 8.14535 41.4027 8.19092C41.3376 8.21045 41.2888 8.243 41.2562 8.28857C41.2237 8.33089 41.2025 8.3846 41.1927 8.44971C41.183 8.51156 41.1765 8.57503 41.1732 8.64014C41.1732 8.70199 41.1732 8.76221 41.1732 8.8208C41.1732 8.95752 41.1781 9.09424 41.1879 9.23096C41.2009 9.36768 41.2123 9.50439 41.222 9.64111C41.2513 10.1099 41.2953 10.5737 41.3539 11.0327C41.4157 11.4917 41.4825 11.9556 41.5541 12.4243C41.5606 12.4406 41.5638 12.4569 41.5638 12.4731C41.5638 12.4894 41.5638 12.5057 41.5638 12.522C41.5638 12.701 41.4629 12.828 41.2611 12.9028L41.0414 12.9712C40.9828 12.9907 40.9258 13.0005 40.8705 13.0005C40.7858 13.0005 40.7175 12.9728 40.6654 12.9175C40.6133 12.8654 40.5791 12.7873 40.5629 12.6831C40.4717 12.1232 40.392 11.5666 40.3236 11.0132C40.2552 10.4565 40.2113 9.89665 40.1918 9.3335C40.1853 9.24235 40.1804 9.14307 40.1771 9.03564C40.1739 8.92822 40.1722 8.81755 40.1722 8.70361C40.1722 8.54411 40.1055 8.46436 39.972 8.46436ZM44.2299 12.854C44.1355 12.8703 44.0508 12.8882 43.976 12.9077C43.9011 12.9305 43.8083 12.9419 43.6976 12.9419C43.5772 12.9419 43.4844 12.9077 43.4193 12.8394C43.3542 12.771 43.3217 12.6945 43.3217 12.6099C43.3217 12.5415 43.333 12.4536 43.3558 12.3462C43.3786 12.2355 43.39 12.1248 43.39 12.0142C43.3672 11.5942 43.3363 11.1792 43.2972 10.769C43.2614 10.3556 43.2256 9.97803 43.1898 9.63623C43.154 9.29443 43.1231 9.00309 43.097 8.76221C43.071 8.51807 43.058 8.35205 43.058 8.26416C43.058 8.20557 43.0726 8.15186 43.1019 8.10303C43.1312 8.05094 43.1719 8.00537 43.224 7.96631C43.2761 7.92725 43.3363 7.89795 43.4047 7.87842C43.4763 7.85563 43.5511 7.84424 43.6293 7.84424C43.7823 7.84424 43.8946 7.86865 43.9662 7.91748C44.0378 7.96305 44.0817 8.03792 44.098 8.14209C44.1892 8.84196 44.2543 9.48486 44.2933 10.0708C44.3357 10.6535 44.3649 11.2004 44.3812 11.7114C44.3812 11.7863 44.4008 11.8433 44.4398 11.8823C44.4821 11.9214 44.5358 11.9409 44.601 11.9409C44.7312 11.9409 44.863 11.9344 44.9965 11.9214C45.1299 11.9051 45.2634 11.8888 45.3969 11.8726C45.5303 11.8563 45.6622 11.8416 45.7924 11.8286C45.9258 11.8123 46.0544 11.8042 46.1781 11.8042C46.2595 11.8042 46.3246 11.814 46.3734 11.8335C46.4255 11.853 46.4646 11.8791 46.4906 11.9116C46.5199 11.9442 46.5378 11.9816 46.5443 12.0239C46.5541 12.063 46.559 12.1021 46.559 12.1411C46.559 12.203 46.5524 12.2648 46.5394 12.3267C46.5264 12.3885 46.5036 12.4455 46.4711 12.4976C46.4385 12.5464 46.3946 12.5871 46.3392 12.6196C46.2839 12.6554 46.2139 12.6766 46.1293 12.6831C45.7289 12.7222 45.3627 12.7515 45.0306 12.771C44.7019 12.7905 44.4349 12.8182 44.2299 12.854Z" fill="#1E1E1E"/>
<g clip-path="url(#clip0_55_46)">
<path d="M42.4106 38.5963C44.4919 36.3763 53.1435 27.2307 55.3207 25.1341M41.7871 38.0935C43.7821 35.9399 52.7598 27.7241 55.0138 25.5705" stroke="#1E1E1E" stroke-width="2" stroke-linecap="round"/>
<path d="M55.5677 24.3499C58.4643 27.5375 69.9645 41.2559 72.5734 44.2349M54.4071 26.3327C57.2174 29.2262 69.437 39.9372 72.0555 42.6979" stroke="#1E1E1E" stroke-width="2" stroke-linecap="round"/>
<path d="M71.164 46.7636C66.5505 51.8298 47.7607 70.4435 43.2047 75.3009M70.1569 46.2513C65.8791 51.5072 49.9859 71.0886 45.4779 76.1927" stroke="#1E1E1E" stroke-width="2" stroke-linecap="round"/>
<path d="M42.4917 38.1884C40.3049 35.8925 32.0562 27.4775 30.042 25.3524M43.2974 39.0612C41.0242 36.8033 31.7972 28.0941 29.6295 25.9026" stroke="#1E1E1E" stroke-width="2" stroke-linecap="round"/>
<path d="M30.0348 24.8337C27.4355 27.7557 16.7122 38.7608 13.8539 41.7966M28.6249 23.5814C25.9968 26.769 16.1079 40.1364 13.3456 43.0869" stroke="#1E1E1E" stroke-width="2" stroke-linecap="round"/>
<path d="M13.8157 46.0099C18.6498 51.5219 37.2574 73.532 42.0819 78.9586M12.8086 44.843C17.4893 50.0988 36.1639 72.1279 41.0652 77.4217" stroke="#1E1E1E" stroke-width="2" stroke-linecap="round"/>
<path d="M42.2402 49.7549C43.0075 48.9864 46.3357 45.5616 47.1702 44.7552M41.799 49.6031C42.5183 48.7398 46.0864 45.0967 46.9784 44.2334" stroke="#1E1E1E" stroke-linecap="round"/>
<path d="M47.1773 44.654C48.0885 45.375 51.599 48.4583 52.4814 49.1129M46.832 44.4358C47.724 45.0525 51.388 47.946 52.3184 48.686" stroke="#1E1E1E" stroke-linecap="round"/>
<path d="M52.7873 49.8753C51.291 52.0953 45.3346 60.7096 43.7041 62.9675M52.3077 49.6666C50.7539 51.934 44.8263 61.3262 43.4547 63.4703" stroke="#1E1E1E" stroke-linecap="round"/>
<path d="M42.6571 49.29C41.7938 48.4362 38.245 45.5046 37.4777 44.6982M42.3502 49.9162C41.5828 49.1003 38.8492 45.0208 38.1203 44.1575" stroke="#1E1E1E" stroke-linecap="round"/>
<path d="M37.4799 44.597C36.6263 45.3275 33.6433 48.0124 32.7993 48.6575M37.9787 44.3599C37.0963 45.1473 33.6721 48.297 32.7034 49.018" stroke="#1E1E1E" stroke-linecap="round"/>
<path d="M32.7908 49.1732C34.3446 51.3742 39.7639 60.368 41.2697 62.7967M32.4167 48.604C33.9322 50.843 39.2651 60.8234 40.8093 63.2047" stroke="#1E1E1E" stroke-linecap="round"/>
<path d="M43.509 41.7877C45.9357 41.7782 48.8323 43.4384 50.7122 45.3169C52.5826 47.1953 54.4817 50.4684 54.7695 53.0868C55.0668 55.6958 54.0309 58.8929 52.4579 61.018C50.8849 63.1337 47.8156 65.1355 45.3218 65.809C42.828 66.4731 39.7971 66.2455 37.4759 65.0501C35.1548 63.8547 32.6226 61.0086 31.3949 58.6273C30.1576 56.246 29.4862 53.1437 30.0809 50.7814C30.6852 48.4192 32.6994 45.943 35.0013 44.4346C37.3033 42.9166 42.2237 42.0628 43.9023 41.6928C45.5712 41.3323 45.082 41.93 45.0341 42.2146M43.9982 42.3284C46.4248 42.5371 49.9161 43.742 51.5275 45.6774C53.1389 47.6128 53.6377 51.2179 53.6856 53.9596C53.7432 56.7109 53.2924 60.1737 51.8344 62.147C50.3765 64.1298 47.4607 65.439 44.9477 65.847C42.4348 66.2549 39.1928 66.0178 36.7374 64.6042C34.2724 63.1906 31.2127 59.8986 30.196 57.3655C29.1889 54.8419 29.6109 51.863 30.666 49.4438C31.721 47.034 34.2916 44.131 36.5168 42.8692C38.7324 41.6074 42.6458 41.9869 43.979 41.8825C45.3026 41.7782 44.4682 42.0912 44.4969 42.2525" fill="white"/>
<path d="M44.4394 41.7687C46.7989 42.1102 49.9833 44.501 51.7001 46.6261C53.4074 48.7512 54.7886 51.9294 54.7119 54.5383C54.6351 57.1473 53.1101 60.5057 51.2493 62.3083C49.3886 64.1108 46.1179 64.9931 43.5378 65.3347C40.9576 65.6762 37.8979 65.7331 35.7782 64.367C33.6585 63.0009 31.5484 59.576 30.8002 57.1473C30.0617 54.7091 30.2823 52.0812 31.3278 49.7663C32.3636 47.4609 34.7519 44.463 37.0443 43.2676C39.3367 42.0723 43.672 42.6605 45.1012 42.6035C46.5303 42.5466 45.6959 42.6889 45.6095 42.8976M39.7299 42.4802C42.0223 41.6548 45.4561 41.892 47.8156 42.9261C50.1655 43.9697 52.9087 46.2751 53.8678 48.7038C54.8174 51.1325 54.3378 55.0886 53.5417 57.5078C52.736 59.9175 51.1151 61.7201 49.0721 63.2001C47.0291 64.6801 43.9022 66.6154 41.2742 66.3972C38.6365 66.179 35.0301 63.7978 33.2652 61.8814C31.4908 59.965 30.6564 57.4793 30.6372 54.8989C30.618 52.3089 31.7977 48.3717 33.1501 46.351C34.5121 44.3397 37.7349 43.3815 38.7995 42.7933C39.8546 42.2146 39.2599 42.632 39.5189 42.8407" stroke="#1E1E1E" stroke-linecap="round"/>
<path d="M42.2558 54.6383C42.275 53.1678 42.1407 46.7356 42.0352 45.1797M41.9873 54.4866C41.9873 53.073 41.7954 46.9538 41.8434 45.4833" stroke="#1E1E1E" stroke-linecap="round"/>
<path d="M49.5745 56.9042C48.2797 56.2306 43.1674 53.8968 41.9589 53.3655M49.2388 57.5019C48.0207 56.8567 43.7525 54.4755 42.5727 53.745" stroke="#1E1E1E" stroke-linecap="round"/>
</g>
<defs>
<clipPath id="clip0_55_46">
<rect width="62.3449" height="61.6663" fill="white" transform="translate(11.5763 20.9623)"/>
</clipPath>
</defs>
</svg>
