<svg width="83" height="119" viewBox="0 0 83 119" fill="none" xmlns="http://www.w3.org/2000/svg">
<path d="M21.78 2.86601C35.9435 -0.560763 50.322 0.903832 61.2696 2.86601C76.1857 1.05405 79.1083 8.27375 81.0143 21.8306C78.2774 48.9726 79.4797 68.7822 81.0143 98.3933C82.1384 109.772 71.6404 120.118 61.2696 117.358C50.6641 117.02 40.5962 114.025 21.78 117.358C7.22559 116.363 -1.2588 111.368 2.03526 98.3933C1.31193 72.5845 -1.2197 47.6488 2.03526 21.8306C1.34126 6.89365 10.4903 0.922609 21.78 2.86601Z" fill="white"/>
<path d="M21.78 2.866C32.366 2.71578 43.3233 2.43413 61.2696 2.866M21.78 2.866C36.7939 2.41535 51.8566 1.85205 61.2696 2.866M21.78 2.866C7.07897 2.80028 3.53077 10.6866 2.03526 21.8306M21.78 2.866C9.66925 3.10071 3.4819 9.70077 2.03526 21.8306M61.2696 2.866C72.8036 1.26997 80.2226 9.95426 81.0143 21.8306M61.2696 2.866C76.518 3.11949 82.9008 8.49906 81.0143 21.8306M81.0143 21.8306C79.9196 41.5839 80.3399 60.0979 81.0143 98.3933M81.0143 21.8306C81.1609 45.9213 81.8354 67.9278 81.0143 98.3933M81.0143 98.3933C80.3399 112.035 73.6638 117.63 61.2696 117.358M81.0143 98.3933C79.0203 110.401 73.9375 117.283 61.2696 117.358M61.2696 117.358C51.3483 115.734 40.8308 116.982 21.78 117.358M61.2696 117.358C51.2603 117.236 41.6812 117.179 21.78 117.358M21.78 117.358C8.32035 118.053 3.57965 110.955 2.03526 98.3933M21.78 117.358C8.24215 117.771 1.65404 112.88 2.03526 98.3933M2.03526 98.3933C4.14658 74.1242 1.22396 51.3478 2.03526 21.8306M2.03526 98.3933C1.60517 81.2688 1.90818 65.5525 2.03526 21.8306" stroke="#1E1E1E" stroke-width="2" stroke-linecap="round"/>
<path d="M24.474 7.62603C36.1449 7.70114 46.7992 8.31139 58.4995 7.62603M24.474 7.62603C33.32 8.53671 42.4593 7.14722 58.4995 7.62603M24.474 7.62603C11.9624 8.74326 5.88262 13.8599 7.45633 23.9713M24.474 7.62603C15.3347 8.98736 5.36456 14.1134 7.45633 23.9713M58.4995 7.62603C70.9915 7.54154 75.4585 12.7427 75.5171 23.9713M58.4995 7.62603C68.9877 8.53671 76.5337 11.6724 75.5171 23.9713M75.5171 23.9713C74.0314 47.0574 75.8006 68.848 75.5171 96.6659M75.5171 23.9713C74.7645 40.8423 75.9863 58.2203 75.5171 96.6659M75.5171 96.6659C73.963 107.406 70.2877 111.425 58.4995 113.011M75.5171 96.6659C77.1984 107.247 72.0667 112.1 58.4995 113.011M58.4995 113.011C50.1031 114.401 40.9833 112.908 24.474 113.011M58.4995 113.011C46.418 112.157 35.1577 112.232 24.474 113.011M24.474 113.011C12.5 113.603 7.13377 108.411 7.45633 96.6659M24.474 113.011C12.5391 114.861 7.99394 109.171 7.45633 96.6659M7.45633 96.6659C5.80442 67.9561 6.42022 40.5888 7.45633 23.9713M7.45633 96.6659C6.41045 67.2613 7.10444 39.2557 7.45633 23.9713" stroke="#1E1E1E" stroke-width="2" stroke-linecap="round"/>
<path d="M37.0556 32.1943C41.7181 31.0113 48.2476 31.9689 52.6559 34.0907C57.0741 36.2219 61.5704 40.5969 63.5351 44.9438C65.4998 49.2812 65.9983 55.7592 64.4246 60.1248C62.8607 64.4905 58.4621 68.8185 54.1319 71.1375C49.8115 73.4564 43.4776 74.5924 38.4729 74.0291C33.4683 73.4658 27.5449 71.1656 24.1042 67.7482C20.6733 64.3402 17.956 58.2378 17.8582 53.5436C17.7605 48.84 20.1944 43.1975 23.5275 39.5642C26.8607 35.9309 35.2278 32.9641 37.8669 31.7436C40.5061 30.5137 39.294 31.8187 39.3527 32.2037M40.3106 31.5183C45.0513 30.7954 50.9747 32.8139 55.1387 35.4333C59.3027 38.0526 63.9065 42.8407 65.2848 47.2345C66.663 51.6377 65.5878 57.5712 63.4178 61.8335C61.2478 66.0959 57.0154 70.7619 52.2454 72.8086C47.4754 74.8647 39.9098 75.4374 34.7977 74.1324C29.6758 72.8368 24.4268 68.7904 21.5335 65.0162C18.6304 61.2421 16.7146 56.1066 17.4086 51.4875C18.1124 46.8684 22.0906 40.5406 25.7464 37.3016C29.4021 34.0626 36.8797 32.9547 39.3527 32.0534C41.8159 31.1615 40.4963 31.5089 40.5549 31.9314" stroke="#1E1E1E" stroke-width="2" stroke-linecap="round"/>
<path d="M32.5265 46.4916C33.3573 46.3696 34.5987 46.6606 35.3905 47.2051C36.1822 47.759 37.0424 48.9702 37.277 49.7776C37.5018 50.585 37.189 51.3924 36.7785 52.0589C36.3581 52.7349 35.625 53.4015 34.7942 53.7864C33.9731 54.1713 32.7318 54.5938 31.8129 54.3591C30.9039 54.1244 29.77 53.1292 29.3009 52.3688C28.8317 51.5989 28.9294 50.5756 29.0076 49.7588C29.0858 48.9514 29.1738 48.0219 29.77 47.4868C30.3663 46.961 32.116 46.7075 32.5851 46.5667C33.0641 46.4353 32.5851 46.5949 32.6145 46.6606M32.9859 46.4071C33.8852 46.3789 35.5957 46.7545 36.3386 47.299C37.0815 47.8435 37.3454 48.773 37.4627 49.6837C37.58 50.585 37.6582 51.9369 37.0521 52.7255C36.4461 53.5142 34.8724 54.2183 33.8363 54.4061C32.8002 54.5844 31.7152 54.1526 30.855 53.824C29.9851 53.486 28.9392 53.1949 28.6655 52.4157C28.3918 51.6459 28.9783 49.9747 29.2129 49.1485C29.4377 48.3317 29.3106 47.9656 30.0535 47.5056C30.7964 47.0455 33.1912 46.4728 33.6799 46.4071C34.1686 46.3414 33.1423 46.961 33.0054 47.13" stroke="#1E1E1E" stroke-width="2" stroke-linecap="round"/>
<path d="M48.4096 46.3771C49.3284 46.3677 50.7262 47.0625 51.4691 47.5789C52.2217 48.0952 52.6811 48.743 52.8766 49.4753C53.0721 50.217 53.0526 51.2122 52.642 51.9914C52.2315 52.7707 51.3029 53.8409 50.4134 54.1508C49.5337 54.4512 48.1652 54.1414 47.3246 53.8034C46.484 53.4654 45.9073 52.827 45.3892 52.1322C44.8614 51.4375 44.1674 50.4235 44.2065 49.6443C44.2554 48.8651 44.9396 47.9826 45.6434 47.4662C46.3472 46.9404 47.9306 46.64 48.4389 46.4992C48.9472 46.3584 48.6149 46.5086 48.6833 46.6118M48.6931 46.1706C49.6412 46.0392 50.5893 46.3208 51.3713 46.8841C52.1533 47.438 53.2187 48.6304 53.3751 49.5223C53.5315 50.4142 52.8277 51.5595 52.2999 52.2543C51.7721 52.949 51.039 53.3433 50.1886 53.6907C49.3284 54.0381 47.9502 54.5826 47.1878 54.3291C46.4253 54.0756 46.1517 52.8645 45.6238 52.1698C45.1058 51.4751 43.9719 50.9681 44.0501 50.1794C44.1283 49.3908 45.399 47.9732 46.0735 47.438C46.7479 46.9123 47.7645 47.0437 48.087 46.9686C48.4096 46.9029 47.96 47.0249 47.9991 46.9968" stroke="#1E1E1E" stroke-width="2" stroke-linecap="round"/>
<path d="M40.3881 58.7634C41.8347 58.5474 43.6137 58.5474 44.9138 59.0826C46.2138 59.6177 47.6702 60.7537 48.1883 61.9742C48.6965 63.2041 48.6086 65.3165 48.0025 66.4149C47.3965 67.5228 45.8326 68.1706 44.5521 68.6118C43.2716 69.0531 41.8543 69.3066 40.3197 69.0625C38.7851 68.809 36.4098 68.0298 35.3346 67.1379C34.2692 66.246 33.8293 64.8471 33.888 63.6829C33.9368 62.5281 34.5722 61.0448 35.6474 60.1622C36.7226 59.2797 39.4791 58.6132 40.349 58.3878C41.2189 58.1531 40.8671 58.7164 40.8671 58.7728M40.564 57.8996C42.0107 57.8058 44.6107 58.6695 45.7739 59.4581C46.9371 60.2561 47.2694 61.6081 47.5334 62.6783C47.7875 63.7486 47.9048 64.7814 47.3085 65.8892C46.7221 66.997 45.119 68.8372 43.9754 69.3347C42.8318 69.8229 41.9227 69.1376 40.4467 68.8465C38.9708 68.5649 36.0579 68.5086 35.1196 67.6073C34.1714 66.6966 34.6993 64.5466 34.7872 63.4106C34.8654 62.284 34.7775 61.5705 35.6181 60.8288C36.4489 60.0871 39.0099 59.3736 39.7918 58.9511C40.5738 58.5287 40.2122 58.2846 40.3001 58.294" stroke="#1E1E1E" stroke-width="2" stroke-linecap="round"/>
<path d="M43.911 63.841C43.999 63.7659 44.2727 63.7377 44.3704 63.8598C44.4779 63.9818 44.5268 64.4606 44.5268 64.5639C44.5268 64.6672 44.3704 64.47 44.3802 64.4888C44.3802 64.5076 44.6734 64.6296 44.5659 64.6766C44.4584 64.7329 43.8817 64.7798 43.7057 64.7798C43.5298 64.7892 43.5591 64.7705 43.5005 64.7047C43.4516 64.639 43.3636 64.4794 43.3832 64.3761C43.4125 64.2729 43.5396 64.1227 43.6666 64.0757C43.8035 64.0288 44.1358 64.1602 44.1749 64.1039C44.2042 64.0569 43.9305 63.7377 43.8817 63.7565M44.4388 64.0945C44.4388 64.179 43.9696 64.2823 43.911 64.301C43.8523 64.3104 44.0576 64.0569 44.0674 64.1696C44.0869 64.2729 43.911 64.8737 44.0185 64.9301C44.126 64.9958 44.7614 64.5076 44.693 64.5357C44.6245 64.5639 43.6862 65.1084 43.5982 65.1178C43.5005 65.1178 44.1554 64.6015 44.1163 64.5545C44.0772 64.517 43.4809 64.8737 43.3538 64.8549C43.2268 64.8362 43.2659 64.639 43.3734 64.4606C43.4711 64.2823 43.8719 63.8598 43.9599 63.7753C44.0478 63.6908 43.9696 63.9161 43.911 63.9537" stroke="#1E1E1E" stroke-width="2" stroke-linecap="round"/>
<path d="M25.3038 31.4136C26.1444 31.0662 27.2098 31.423 27.9625 32.1365C28.7151 32.85 29.4189 34.493 29.8294 35.6947C30.2302 36.8964 30.6212 38.0981 30.3768 39.3186C30.1324 40.5485 29.2136 42.4356 28.3828 43.0365C27.5422 43.6373 26.2812 43.2524 25.382 42.9426C24.4729 42.6421 23.5639 42.0976 22.9579 41.2245C22.342 40.3608 21.6578 39.0652 21.7067 37.732C21.7556 36.3894 22.5571 34.2958 23.2511 33.188C23.9353 32.0802 25.3917 31.376 25.8511 31.0944C26.3008 30.8221 25.9587 31.3291 25.9684 31.5356M25.1278 31.1695C25.9196 30.8315 26.5256 31.545 27.3467 32.0989C28.1775 32.6529 29.7317 33.2631 30.1031 34.493C30.4745 35.7323 29.761 38.3141 29.5655 39.5158C29.3602 40.7175 29.6633 41.0555 28.9302 41.7221C28.1873 42.3793 26.1151 43.5998 25.1278 43.4965C24.1308 43.4026 23.3684 41.9568 22.9676 41.1212C22.5571 40.2763 22.8112 39.7411 22.6744 38.4455C22.5375 37.1499 21.7067 34.4554 22.1466 33.3288C22.5962 32.2022 24.8932 31.9581 25.3331 31.6858C25.7827 31.4042 24.9323 31.4981 24.8444 31.6671" fill="white"/>
<path d="M24.9714 31.6671C25.8414 31.376 27.2489 31.6577 28.07 32.2398C28.8911 32.8218 29.5655 33.986 29.9174 35.1502C30.2595 36.3049 30.455 37.9291 30.1422 39.1872C29.8196 40.4452 28.7053 41.9943 28.0016 42.7172C27.2978 43.4402 26.7895 43.7594 25.9391 43.5246C25.0789 43.2899 23.5248 42.2666 22.8894 41.3184C22.2541 40.3701 22.2052 39.1309 22.1466 37.8353C22.0879 36.5397 21.9315 34.615 22.5375 33.526C23.1533 32.4369 25.3526 31.6295 25.812 31.2915C26.2715 30.9535 25.3917 31.3291 25.3038 31.5168M25.1376 31.8079C25.9684 31.6483 27.982 32.174 28.7835 32.8594C29.5851 33.5541 29.673 34.7652 29.9174 35.9482C30.1618 37.1405 30.6212 38.9525 30.2595 39.9758C29.8881 40.9992 28.5783 41.478 27.7279 42.0882C26.8873 42.6985 26.0564 43.6749 25.1669 43.6185C24.2872 43.5716 23.0361 42.7736 22.43 41.7784C21.8142 40.7832 21.4135 38.9806 21.4917 37.6569C21.5699 36.3331 22.2541 34.8591 22.8992 33.8452C23.5443 32.8312 24.8444 31.9487 25.3624 31.5638C25.8805 31.1883 25.9587 31.3854 26.0173 31.5826" stroke="white" stroke-width="2" stroke-linecap="round"/>
<path d="M17.7049 36.4783C18.7779 37.781 22.0157 43.1779 24.1723 43.9196C26.3394 44.6527 29.8529 43.1211 30.6857 40.9035C31.5283 38.6866 29.3356 32.3493 29.1995 30.6069M18.5473 36.1163C19.5926 37.5205 21.947 43.5495 23.8856 44.4448C25.8248 45.3306 29.327 43.6946 30.2003 41.4611C31.0729 39.237 29.2326 32.9067 29.1129 31.0807" stroke="#1E1E1E" stroke-width="2" stroke-linecap="round"/>
<path d="M19.6084 35.2485C20.6286 35.2705 23.4657 36.4287 25.1098 35.7301C26.7428 35.0235 28.6029 31.8488 29.4371 31.0142M19.053 34.7649C20.0372 34.8771 22.7644 37.0271 24.6973 36.4787C26.6192 35.9223 29.6725 32.3381 30.6339 31.4292" stroke="#1E1E1E" stroke-width="2" stroke-linecap="round"/>
<path d="M58.9181 30.7424C59.8369 30.8081 60.8046 31.578 61.3618 32.4417C61.9091 33.3054 62.1046 34.7325 62.2317 35.9436C62.3588 37.1547 62.5152 38.5254 62.1242 39.6896C61.7332 40.8631 60.746 42.5906 59.8858 42.9568C59.0256 43.3229 57.8527 42.4873 56.9729 41.8959C56.0835 41.3044 54.9691 40.4688 54.5586 39.4267C54.1578 38.3846 54.3631 36.9106 54.5586 35.6526C54.7541 34.4039 55.106 32.7328 55.7609 31.9066C56.406 31.071 57.8624 30.7612 58.4587 30.6767C59.0647 30.5828 59.2602 31.1837 59.3482 31.3902M59.0158 30.5922C59.6903 30.7518 60.5016 31.6906 61.0881 32.8548C61.6648 34.019 62.3783 36.291 62.5054 37.5866C62.6325 38.8822 62.5445 39.7271 61.8505 40.6284C61.1565 41.5391 59.3482 42.9098 58.3414 43.0225C57.3444 43.1445 56.4353 42.0461 55.8586 41.3419C55.2722 40.6472 55.0571 39.9337 54.8518 38.8165C54.6564 37.7086 54.2458 35.9248 54.627 34.6668C55.018 33.3993 56.318 31.8127 57.1684 31.2306C58.0286 30.6485 59.4948 31.1743 59.7587 31.1649C60.0226 31.1649 58.9376 31.0053 58.7519 31.1931" fill="white"/>
<path d="M58.0775 30.564C58.8203 30.3012 59.6805 30.9114 60.3452 31.6531C61.0098 32.3948 61.6941 33.7561 62.046 35.0142C62.3978 36.2722 62.7302 38.0184 62.4565 39.2108C62.1926 40.3937 61.3715 41.5391 60.4429 42.14C59.5143 42.7408 57.8135 43.1727 56.8947 42.8065C55.9857 42.4404 55.4285 40.957 54.9398 39.9337C54.4511 38.9197 53.8548 37.9246 53.9721 36.6947C54.0894 35.4648 54.8714 33.5402 55.6338 32.5638C56.3962 31.5874 58.0188 31.0616 58.5466 30.8363C59.0745 30.611 58.7812 31.1649 58.7812 31.2024M57.3639 30.395C58.1947 30.0664 59.0647 30.3669 59.8076 31.0241C60.5504 31.6719 61.5084 33.1365 61.8016 34.31C62.0948 35.4836 61.8309 36.7135 61.5865 38.056C61.3422 39.3892 60.9903 41.5391 60.3354 42.3371C59.6805 43.1351 58.4782 43.0976 57.6767 42.8535C56.8752 42.6188 56.0639 41.8208 55.536 40.8819C54.9984 39.9431 54.6466 38.5911 54.4706 37.2204C54.2849 35.8403 53.9526 33.7279 54.4511 32.6295C54.9496 31.5404 56.9729 30.8551 57.4617 30.6673C57.9504 30.4889 57.4421 31.3433 57.3835 31.5217" stroke="white" stroke-width="2" stroke-linecap="round"/>
<path d="M65.0138 36.2178C63.9696 37.5513 61.2551 43.2031 59.2218 43.9236C57.1877 44.6348 53.7774 42.6737 52.7913 40.5053C51.8052 38.337 53.2614 32.6608 53.3161 30.9218M65.851 35.7221C64.9536 37.1561 62.5109 43.6235 60.3154 44.4993C58.1296 45.3743 53.883 43.3905 52.6886 40.9854C51.4942 38.5803 52.9664 31.9131 53.1585 30.0681" stroke="#1E1E1E" stroke-width="2" stroke-linecap="round"/>
<path d="M63.6178 35.4597C62.7194 35.4712 60.124 36.2282 58.3519 35.5538C56.5884 34.89 53.8936 32.2835 53 31.4531M64.4898 35.1325C63.5547 35.1963 59.7711 36.7997 58.0538 36.0848C56.3365 35.3699 55.0564 31.6989 54.1885 30.8244" stroke="#1E1E1E" stroke-width="2" stroke-linecap="round"/>
<path d="M38.5499 63.4784C38.589 63.4878 38.9018 63.6004 39.0191 63.7037C39.1364 63.807 39.1853 63.9384 39.2439 64.0793C39.3026 64.2201 39.3612 64.3891 39.3807 64.5487C39.3905 64.7177 39.4394 65.0275 39.3026 65.065C39.1755 65.0932 38.7552 64.774 38.5695 64.7552C38.3935 64.7364 38.3055 64.9899 38.2078 64.9242C38.11 64.8585 37.983 64.5017 37.983 64.3797C37.9732 64.2576 38.0221 64.3234 38.1785 64.1637C38.3349 64.0041 38.7845 63.5535 38.9311 63.4315C39.068 63.3094 39.068 63.4221 39.0289 63.4315M38.5499 63.7976C38.677 63.8352 39.6056 63.4784 39.7131 63.6192C39.8304 63.7694 39.3416 64.4266 39.2341 64.6613C39.1168 64.896 39.068 65.0181 39.0289 65.0369C38.9898 65.0557 39.0777 64.7928 38.9995 64.774C38.9116 64.7458 38.6965 64.9242 38.5108 64.896C38.3349 64.8679 38.0025 64.7552 37.9243 64.5862C37.8364 64.4172 37.895 64.0605 38.0221 63.8821C38.1491 63.7037 38.4619 63.5253 38.677 63.5159C38.892 63.5066 39.2244 63.8352 39.3123 63.8258C39.4101 63.807 39.3514 63.3657 39.2439 63.4315" stroke="#1E1E1E" stroke-width="2" stroke-linecap="round"/>
<path d="M21.4078 89.5325C21.3101 90.3024 20.6063 93.2597 20.4695 94.0859M21.0364 89.3917C20.9191 90.1803 20.3131 93.6822 20.2153 94.4427" stroke="#1E1E1E" stroke-linecap="round"/>
<path fill-rule="evenodd" clip-rule="evenodd" d="M19.8233 87.8275C21.0451 87.574 25.5121 84.8889 26.4016 85.3583C27.2911 85.8183 26.4212 89.5549 25.1407 90.597C23.8602 91.6298 20.0676 91.1791 18.7285 91.5547" fill="white"/>
<path d="M19.4812 87.3956C20.576 87.1045 25.0234 85.0203 25.952 85.6775C26.8708 86.3347 26.2844 90.2872 25.0039 91.3387C23.7234 92.3902 19.403 91.8457 18.2692 91.9771M19.1293 87.9589C20.1948 87.7335 24.6716 85.5179 25.7663 85.9967C26.8708 86.4755 26.9588 89.9398 25.7174 90.8317C24.4858 91.7236 19.6669 91.2448 18.3376 91.3481" stroke="#1E1E1E" stroke-linecap="round"/>
<path d="M35.9433 93.5194C36.1974 92.4961 36.823 87.6329 37.3411 87.661C37.8591 87.6986 38.514 93.9137 39.0321 93.726C39.5404 93.5382 40.205 87.7925 40.4201 86.525M35.4937 93.1721C35.7478 92.0361 36.4809 87.079 37.1847 87.2198C37.8884 87.3606 39.1494 94.2236 39.6967 94.017C40.2441 93.8105 40.2637 87.2761 40.4592 85.9711" stroke="#1E1E1E" stroke-linecap="round"/>
<path d="M48.617 86.547C47.7275 86.8756 43.6124 87.1948 43.4365 88.143C43.2703 89.0912 47.8546 91.2881 47.6005 92.2364C47.3463 93.194 42.8207 93.532 41.9214 93.8512M49.1155 86.2935C48.3433 86.6972 44.3944 87.4389 44.1011 88.4998C43.8079 89.5513 47.708 91.7012 47.3463 92.6307C46.9846 93.5507 42.8402 93.7855 41.9409 94.0577" stroke="#1E1E1E" stroke-linecap="round"/>
<path d="M54.6494 86.187C53.8967 86.5625 50.7884 87.4356 50.759 88.6937C50.7297 89.9423 54.8546 92.7119 54.4734 93.6789C54.102 94.6553 49.5079 94.3643 48.4913 94.5145M55.1088 86.7972C54.4343 87.2103 51.5215 87.9238 51.3944 88.9941C51.2673 90.055 54.796 92.2143 54.3366 93.1719C53.8869 94.139 49.7132 94.5145 48.6673 94.768" stroke="#1E1E1E" stroke-linecap="round"/>
<path fill-rule="evenodd" clip-rule="evenodd" d="M26.4838 92.4238C26.8943 91.0718 28.771 86.218 29.9538 86.3307C31.1365 86.4527 33.2283 91.9262 33.5899 93.1373" fill="white"/>
<path d="M27.6079 93.5034C28.1064 92.3205 29.8952 86.1898 30.8042 86.1429C31.7133 86.0959 32.6809 92.0013 33.0622 93.203M28.1846 93.3438C28.6342 92.0764 29.7974 85.6547 30.5892 85.6922C31.3809 85.7298 32.4952 92.3862 32.9351 93.5785" stroke="#1E1E1E" stroke-linecap="round"/>
<path d="M28.5835 91.5704C29.297 91.1761 31.8482 89.4487 32.6106 89.045M28.212 91.3076C29.0429 90.9602 32.4347 89.6552 33.2362 89.336" stroke="#1E1E1E" stroke-linecap="round"/>
<path fill-rule="evenodd" clip-rule="evenodd" d="M56.9069 94.8211C57.3565 93.1687 60.2596 84.9726 61.2663 85.0008C62.2829 85.0289 62.4784 93.6006 62.9769 94.9995" fill="white"/>
<path d="M57.5618 93.9292C58.0603 92.5679 59.5167 85.8457 60.4844 85.9396C61.4521 86.0241 62.8987 93.0185 63.3777 94.4643M57.1805 93.6757C57.7768 92.3332 59.9565 86.0429 61.1002 86.2213C62.2536 86.3997 63.7198 93.3002 64.0814 94.7366" stroke="#1E1E1E" stroke-linecap="round"/>
<path d="M58.4833 90.783C59.1676 90.6234 61.8556 90.276 62.5789 90.1258M58.1412 90.4826C58.9232 90.2197 62.4714 89.7221 63.2143 89.6846" stroke="#1E1E1E" stroke-linecap="round"/>
</svg>
