<svg width="83" height="118" viewBox="0 0 83 118" fill="none" xmlns="http://www.w3.org/2000/svg">
<path d="M21.7803 9.99956C32.4974 9.78309 44.543 10.1641 61.5387 9.99956C74.9227 10.3979 80.0893 15.6191 81.4179 27.4902C78.5738 55.1203 83.642 79.6679 81.4179 98.1024C79.8137 107.696 76.763 116.823 61.5387 115.593C49.8277 118.035 45.7337 117.585 21.7803 115.593C6.96936 117.377 -0.244223 111.904 1.90115 98.1024C2.80654 81.1139 0.543071 66.5326 1.90115 27.4902C-1.60231 17.0651 5.12906 12.8916 21.7803 9.99956Z" fill="white"/>
<path d="M21.7803 9.99955C31.3066 10.3459 37.6049 11.6274 61.5387 9.99955M21.7803 9.99955C31.6412 9.73113 40.5081 10.0515 61.5387 9.99955M21.7803 9.99955C8.29792 10.0775 1.56656 17.1777 1.90116 27.4902M21.7803 9.99955C9.03601 8.64012 0.169113 16.5023 1.90116 27.4902M61.5387 9.99955C75.2474 11.4975 83.1597 16.7361 81.4179 27.4902M61.5387 9.99955C74.8439 9.98223 82.5988 16.3984 81.4179 27.4902M81.4179 27.4902C82.9334 52.9816 80.7683 80.1182 81.4179 98.1024M81.4179 27.4902C80.6502 45.1801 80.8963 63.9696 81.4179 98.1024M81.4179 98.1024C81.9394 109.904 76.2709 116.494 61.5387 115.593M81.4179 98.1024C82.9236 110.969 73.4563 113.636 61.5387 115.593M61.5387 115.593C45.4976 115.567 32.7926 115.186 21.7803 115.593M61.5387 115.593C54.0988 116.346 44.415 115.749 21.7803 115.593M21.7803 115.593C10.4728 116.476 2.5802 109.575 1.90116 98.1024M21.7803 115.593C7.07762 115.983 2.51131 109.722 1.90116 98.1024M1.90116 98.1024C1.29101 79.6679 2.8656 62.5322 1.90116 27.4902M1.90116 98.1024C1.73386 78.8713 1.78307 58.2029 1.90116 27.4902" stroke="#1E1E1E" stroke-width="2" stroke-linecap="round"/>
<path d="M10.5764 86.3893C21.3919 86.3893 64.6734 86.3893 75.4888 86.3893" stroke="#1E1E1E" stroke-width="2" stroke-linecap="round"/>
<path d="M23.0868 9.90158C32.8886 9.90158 42.6904 9.90158 58.8988 9.90158C61.3394 9.90158 62.5696 10.9753 62.5696 13.1313C62.5696 15.2614 62.5696 17.4001 62.5696 19.5821C62.5696 21.7294 61.3394 22.8031 58.8988 22.8031C45.8396 22.8031 32.7902 22.8031 23.0868 22.8031C20.6363 22.8031 19.416 21.7294 19.416 19.5821C19.416 17.9715 19.416 16.361 19.416 13.1313C19.416 10.9753 20.6363 9.90158 23.0868 9.90158Z" fill="white"/>
<path d="M23.0868 9.90158C34.5911 9.90158 46.1053 9.90158 58.8988 9.90158M23.0868 9.90158C33.1248 9.90158 43.1726 9.90158 58.8988 9.90158M23.0868 9.90158C20.6363 9.90158 19.416 10.9753 19.416 13.1313M58.8988 9.90158C61.3394 9.90158 62.5696 10.9753 62.5696 13.1313M62.5696 13.1313C62.5696 14.6985 62.5696 16.2744 62.5696 19.5821M62.5696 13.1313C62.5696 14.7938 62.5696 16.4649 62.5696 19.5821M62.5696 19.5821C62.5696 21.7294 61.3394 22.8031 58.8988 22.8031M58.8988 22.8031C48.3786 22.8031 37.8584 22.8031 23.0868 22.8031M58.8988 22.8031C45.8002 22.8031 32.7114 22.8031 23.0868 22.8031M23.0868 22.8031C20.6363 22.8031 19.416 21.7294 19.416 19.5821M19.416 19.5821C19.416 17.9802 19.416 16.3783 19.416 13.1313M19.416 19.5821C19.416 17.4347 19.416 15.2873 19.416 13.1313" stroke="#1E1E1E" stroke-width="2" stroke-linecap="round"/>
<path d="M27.1151 16.4903C27.1249 16.3992 27.1363 16.3243 27.1493 16.2657C27.1656 16.2039 27.1884 16.155 27.2177 16.1192C27.2502 16.0802 27.2909 16.0525 27.3397 16.0362C27.3885 16.0199 27.4504 16.0118 27.5253 16.0118C27.7629 16.0118 27.9371 16.0476 28.0477 16.1192C28.1617 16.1876 28.2186 16.2983 28.2186 16.4513C28.2186 16.4806 28.2121 16.5457 28.1991 16.6466C28.1893 16.7442 28.1747 16.8663 28.1552 17.0128C28.1356 17.156 28.1128 17.3155 28.0868 17.4913C28.064 17.6638 28.0412 17.8396 28.0184 18.0186C27.9598 18.4353 27.8931 18.9024 27.8182 19.42C27.7727 19.726 27.6815 19.9457 27.5448 20.0792C27.4113 20.2127 27.2128 20.2794 26.9491 20.2794C26.7505 20.2794 26.5455 20.2289 26.3339 20.128C26.1223 20.0271 25.9172 19.8904 25.7186 19.7179C25.5201 19.5453 25.3313 19.3451 25.1522 19.1173C24.9764 18.8862 24.8218 18.642 24.6884 18.3849C24.5549 18.1244 24.4491 17.8591 24.371 17.589C24.2961 17.3188 24.2587 17.0551 24.2587 16.7979C24.2587 16.5082 24.2994 16.2918 24.3807 16.1485C24.4654 16.002 24.6102 15.9288 24.8153 15.9288C24.9585 15.9288 25.0774 15.9386 25.1718 15.9581C25.2662 15.9744 25.341 16.0053 25.3964 16.0509C25.455 16.0932 25.4956 16.1502 25.5184 16.2218C25.5445 16.2934 25.5575 16.3829 25.5575 16.4903C25.5575 16.5619 25.5542 16.6336 25.5477 16.7052C25.5412 16.7768 25.538 16.8484 25.538 16.92C25.538 17.086 25.5542 17.2602 25.5868 17.4425C25.6226 17.6215 25.6698 17.7973 25.7284 17.9698C25.787 18.1423 25.8553 18.3067 25.9335 18.463C26.0116 18.616 26.0946 18.7511 26.1825 18.8683C26.2704 18.9854 26.3583 19.0782 26.4462 19.1466C26.5373 19.2149 26.6252 19.2491 26.7098 19.2491C26.7684 19.2491 26.8124 19.2296 26.8417 19.1905C26.8742 19.1515 26.8954 19.0847 26.9052 18.9903L27.1151 16.4903ZM33.0721 19.1905C33.1665 19.1091 33.2593 19.0685 33.3505 19.0685C33.4025 19.0685 33.4497 19.0815 33.4921 19.1075C33.5344 19.1336 33.5816 19.1742 33.6337 19.2296C33.6825 19.3045 33.7167 19.3663 33.7362 19.4151C33.759 19.4607 33.7704 19.5063 33.7704 19.5518C33.7704 19.6495 33.7216 19.7423 33.6239 19.8302C33.4677 19.9604 33.2984 20.0776 33.1161 20.1817C32.9338 20.2826 32.7434 20.3689 32.5448 20.4405C32.3462 20.5121 32.1412 20.5658 31.9296 20.6017C31.718 20.6407 31.508 20.6602 31.2997 20.6602C31.036 20.6602 30.7886 20.6261 30.5575 20.5577C30.3264 20.4926 30.1197 20.3982 29.9374 20.2745C29.7583 20.1508 29.607 20.0027 29.4833 19.8302C29.3596 19.6544 29.2717 19.4574 29.2196 19.2393C29.1903 19.1482 29.1626 19.0896 29.1366 19.0636C29.1138 19.0343 29.0747 19.0196 29.0194 19.0196C28.899 19.0196 28.8062 18.9903 28.7411 18.9317C28.676 18.8731 28.6434 18.7885 28.6434 18.6778C28.6434 18.6323 28.6467 18.603 28.6532 18.5899L28.663 18.4923C28.6792 18.3751 28.7102 18.2905 28.7557 18.2384C28.8046 18.1863 28.8794 18.1602 28.9803 18.1602H29.0536C29.1903 18.1602 29.2863 18.0968 29.3417 17.9698C29.4426 17.7452 29.5712 17.5401 29.7274 17.3546C29.8837 17.169 30.0594 17.0112 30.2548 16.881C30.4501 16.7475 30.6584 16.6449 30.8798 16.5733C31.1044 16.4985 31.3322 16.461 31.5634 16.461C31.8042 16.461 32.0288 16.4968 32.2372 16.5685C32.4488 16.6368 32.6327 16.7328 32.7889 16.8565C32.9452 16.9802 33.0673 17.1251 33.1552 17.2911C33.2463 17.4571 33.2919 17.6362 33.2919 17.8282C33.2919 17.9617 33.2658 18.0838 33.2137 18.1944C33.1617 18.3051 33.0868 18.4028 32.9891 18.4874C32.8915 18.5688 32.7727 18.6355 32.6327 18.6876C32.496 18.7397 32.3397 18.7739 32.1639 18.7901L30.4696 18.961C30.4045 18.961 30.3508 18.9773 30.3085 19.0099C30.2694 19.0424 30.2499 19.0864 30.2499 19.1417C30.2499 19.2263 30.2808 19.3077 30.3427 19.3858C30.4078 19.464 30.4924 19.5339 30.5966 19.5958C30.704 19.6544 30.826 19.7016 30.9628 19.7374C31.1027 19.7732 31.246 19.7911 31.3925 19.7911C31.5324 19.7911 31.6757 19.7781 31.8221 19.752C31.9719 19.7227 32.1184 19.6821 32.2616 19.63C32.4081 19.5779 32.5497 19.516 32.6864 19.4444C32.8231 19.3696 32.9517 19.2849 33.0721 19.1905ZM31.9833 17.9308C32.0321 17.921 32.0744 17.8982 32.1102 17.8624C32.146 17.8233 32.1639 17.7761 32.1639 17.7208C32.1639 17.672 32.146 17.6264 32.1102 17.5841C32.0744 17.5418 32.0256 17.5043 31.9637 17.4718C31.9019 17.436 31.8303 17.4083 31.7489 17.3888C31.6675 17.3692 31.5813 17.3595 31.4901 17.3595C31.3566 17.3595 31.2199 17.379 31.08 17.4181C30.94 17.4571 30.813 17.5092 30.6991 17.5743C30.5852 17.6362 30.4924 17.7061 30.4208 17.7843C30.3492 17.8591 30.3134 17.934 30.3134 18.0089C30.3134 18.0838 30.3589 18.1212 30.4501 18.1212C30.5054 18.1212 30.5949 18.1147 30.7186 18.1017C30.8423 18.0886 30.979 18.074 31.1288 18.0577C31.2785 18.0382 31.4299 18.017 31.5829 17.9942C31.7359 17.9714 31.8693 17.9503 31.9833 17.9308ZM34.537 14.6202C34.537 14.4477 34.5858 14.3272 34.6835 14.2589C34.7811 14.1873 34.9423 14.1515 35.1669 14.1515C35.2483 14.1515 35.3166 14.1596 35.3719 14.1759C35.4305 14.1889 35.4794 14.2149 35.5184 14.254C35.5608 14.2931 35.5933 14.3451 35.6161 14.4102C35.6421 14.4721 35.6633 14.5518 35.6796 14.6495C35.7186 14.9522 35.7609 15.2647 35.8065 15.587C35.8553 15.9093 35.9058 16.2332 35.9579 16.5587C35.9774 16.7052 36.0539 16.7784 36.1874 16.7784C36.2232 16.7784 36.2818 16.7752 36.3632 16.7686C36.4478 16.7589 36.5471 16.7491 36.661 16.7393C36.7749 16.7263 36.897 16.7133 37.0272 16.7003C37.1607 16.6873 37.2925 16.6759 37.4227 16.6661C37.5562 16.6531 37.6815 16.6433 37.7987 16.6368C37.9191 16.627 38.0249 16.6222 38.1161 16.6222C38.1877 16.6222 38.2447 16.6368 38.287 16.6661C38.3293 16.6921 38.3619 16.728 38.3846 16.7735C38.4107 16.8158 38.427 16.8647 38.4335 16.92C38.4432 16.9721 38.4481 17.0258 38.4481 17.0811C38.4481 17.13 38.4384 17.1804 38.4188 17.2325C38.4025 17.2846 38.3781 17.3318 38.3456 17.3741C38.3163 17.4132 38.2788 17.4457 38.2333 17.4718C38.1877 17.4978 38.1356 17.5108 38.077 17.5108C37.7938 17.5108 37.5074 17.5206 37.2177 17.5401C36.9312 17.5564 36.6447 17.5792 36.3583 17.6085C36.2118 17.628 36.1385 17.7013 36.1385 17.8282C36.1385 17.838 36.1402 17.851 36.1434 17.8673C36.1467 17.8803 36.1483 17.8917 36.1483 17.9015C36.1874 18.1847 36.2232 18.45 36.2557 18.6974C36.2915 18.9448 36.3208 19.1661 36.3436 19.3614C36.3697 19.5535 36.3892 19.7146 36.4022 19.8448C36.4185 19.9718 36.4266 20.0564 36.4266 20.0987C36.4266 20.2159 36.4152 20.3136 36.3925 20.3917C36.3697 20.4731 36.3322 20.5382 36.2802 20.587C36.2281 20.6391 36.1581 20.6749 36.0702 20.6944C35.9856 20.7172 35.8781 20.7286 35.7479 20.7286C35.6242 20.7286 35.5331 20.6993 35.4745 20.6407C35.4159 20.5821 35.3833 20.4926 35.3768 20.3722C35.3573 19.988 35.3264 19.6023 35.2841 19.2149C35.2417 18.8243 35.1929 18.4353 35.1376 18.0479C35.1083 17.908 35.035 17.838 34.9178 17.838C34.9081 17.838 34.8967 17.8396 34.8837 17.8429C34.8706 17.8461 34.8593 17.8477 34.8495 17.8477C34.6477 17.8933 34.4572 17.9389 34.2782 17.9845C34.0992 18.03 33.9315 18.0789 33.7753 18.131C33.6874 18.1602 33.6093 18.1814 33.5409 18.1944C33.4725 18.2042 33.4107 18.2091 33.3553 18.2091C33.2805 18.2091 33.2251 18.1765 33.1893 18.1114C33.1535 18.0431 33.1356 17.9584 33.1356 17.8575C33.1356 17.8217 33.1389 17.781 33.1454 17.7354C33.1519 17.6866 33.1649 17.6394 33.1844 17.5938C33.2007 17.545 33.2268 17.5011 33.2626 17.462C33.2951 17.4197 33.3407 17.3855 33.3993 17.3595C33.536 17.3041 33.7183 17.2472 33.9462 17.1886C34.174 17.1267 34.4312 17.0698 34.7177 17.0177C34.7828 17.0014 34.8332 16.9754 34.869 16.9395C34.9081 16.9005 34.9276 16.8435 34.9276 16.7686C34.9276 16.7524 34.9276 16.7361 34.9276 16.7198C34.9276 16.7003 34.9244 16.6808 34.9178 16.6612C34.8658 16.3617 34.8153 16.0899 34.7665 15.8458C34.7209 15.5984 34.6802 15.3868 34.6444 15.211C34.6119 15.0352 34.5858 14.8969 34.5663 14.796C34.5468 14.6951 34.537 14.6365 34.537 14.6202ZM38.2284 18.6388C38.2284 18.5834 38.2349 18.5216 38.2479 18.4532C38.2609 18.3849 38.2675 18.31 38.2675 18.2286C38.2675 18.1733 38.243 18.131 38.1942 18.1017C38.1486 18.0724 38.0966 18.0398 38.038 18.004C37.9794 17.9682 37.9257 17.9226 37.8768 17.8673C37.8313 17.8119 37.8085 17.7322 37.8085 17.628C37.8085 17.5532 37.828 17.4783 37.8671 17.4034C37.9094 17.3285 37.9696 17.2602 38.0477 17.1983C38.2398 17.0551 38.4384 16.9265 38.6434 16.8126C38.8518 16.6987 39.0585 16.6026 39.2635 16.5245C39.4719 16.4464 39.677 16.3862 39.8788 16.3438C40.0806 16.3015 40.2743 16.2804 40.4598 16.2804C40.7723 16.2804 41.0653 16.339 41.3387 16.4561C41.6154 16.5701 41.8547 16.728 42.0565 16.9298C42.2616 17.1283 42.4227 17.3627 42.5399 17.6329C42.6604 17.8998 42.7206 18.1863 42.7206 18.4923C42.7206 18.7918 42.6571 19.0766 42.5302 19.3468C42.4065 19.6137 42.2388 19.8481 42.0272 20.0499C41.8156 20.2517 41.5666 20.4112 41.2802 20.5284C40.9969 20.6489 40.6975 20.7091 40.3817 20.7091C40.0725 20.7091 39.786 20.657 39.5223 20.5528C39.2587 20.4487 39.0308 20.3054 38.8387 20.1231C38.6467 19.9376 38.4969 19.7195 38.3895 19.4688C38.2821 19.2149 38.2284 18.9382 38.2284 18.6388ZM40.4891 19.8302C40.6259 19.8302 40.7675 19.8025 40.9139 19.7472C41.0604 19.6918 41.1939 19.6121 41.3143 19.5079C41.438 19.4005 41.5389 19.2703 41.6171 19.1173C41.6984 18.9643 41.7391 18.7918 41.7391 18.5997C41.7391 18.4044 41.7033 18.2221 41.6317 18.0528C41.5601 17.8836 41.4608 17.7371 41.3339 17.6134C41.2102 17.4864 41.0621 17.3871 40.8895 17.3155C40.7203 17.2439 40.5363 17.2081 40.3378 17.2081C39.9764 17.2081 39.6997 17.3025 39.5077 17.4913C39.3156 17.6768 39.2196 17.9633 39.2196 18.3507C39.2196 18.5623 39.2505 18.7592 39.3124 18.9415C39.3775 19.1205 39.467 19.2768 39.5809 19.4102C39.6949 19.5405 39.8283 19.643 39.9813 19.7179C40.1376 19.7927 40.3068 19.8302 40.4891 19.8302ZM46.0067 16.6075C45.8863 16.6075 45.7805 16.6401 45.6893 16.7052C45.5982 16.767 45.5201 16.8549 45.455 16.9688C45.3899 17.0795 45.3361 17.2114 45.2938 17.3643C45.2515 17.5141 45.2173 17.6785 45.1913 17.8575C45.1652 18.0365 45.1473 18.2237 45.1376 18.419C45.1278 18.6143 45.1229 18.8113 45.1229 19.0099C45.1229 19.2703 45.1327 19.5274 45.1522 19.7813C45.175 20.032 45.1864 20.2647 45.1864 20.4796C45.1864 20.6196 45.1343 20.7286 45.0302 20.8067C44.926 20.8881 44.7779 20.9288 44.5858 20.9288C44.55 20.9288 44.5093 20.9255 44.4637 20.919C44.4182 20.9125 44.3742 20.8995 44.3319 20.88C44.2928 20.8604 44.257 20.8328 44.2245 20.797C44.1952 20.7644 44.1789 20.7188 44.1757 20.6602C44.1464 20.3738 44.104 20.0808 44.0487 19.7813C43.9934 19.4819 43.9234 19.184 43.8387 18.8878C43.7574 18.5883 43.6581 18.2921 43.5409 17.9991C43.427 17.7061 43.2951 17.4197 43.1454 17.1397C43.1193 17.0909 43.0966 17.0453 43.077 17.003C43.0608 16.9607 43.0526 16.92 43.0526 16.881C43.0526 16.8321 43.0738 16.78 43.1161 16.7247C43.1617 16.6661 43.217 16.6124 43.2821 16.5636C43.3505 16.5147 43.4237 16.4757 43.5018 16.4464C43.5832 16.4138 43.6613 16.3976 43.7362 16.3976C43.8599 16.3976 43.969 16.4838 44.0634 16.6563C44.1578 16.8256 44.2456 17.0974 44.327 17.4718C44.3433 17.5369 44.3563 17.5824 44.3661 17.6085C44.3759 17.6345 44.3889 17.6476 44.4052 17.6476C44.441 17.6476 44.4637 17.5922 44.4735 17.4815C44.5126 17.1723 44.5793 16.907 44.6737 16.6856C44.7681 16.461 44.8853 16.2771 45.0253 16.1339C45.1685 15.9874 45.3313 15.88 45.5135 15.8116C45.6991 15.7433 45.9025 15.7091 46.1239 15.7091C46.2509 15.7091 46.3794 15.7205 46.5096 15.7433C46.6399 15.766 46.757 15.8002 46.8612 15.8458C46.9654 15.8914 47.05 15.9467 47.1151 16.0118C47.1802 16.0769 47.2128 16.1502 47.2128 16.2315C47.2128 16.2901 47.1997 16.3601 47.1737 16.4415C47.1509 16.5196 47.12 16.5961 47.0809 16.671C47.0419 16.7426 46.9963 16.8045 46.9442 16.8565C46.8954 16.9054 46.8449 16.9298 46.7928 16.9298C46.7343 16.9298 46.6773 16.9135 46.6219 16.881C46.5666 16.8451 46.5064 16.8077 46.4413 16.7686C46.3794 16.7296 46.3127 16.6938 46.2411 16.6612C46.1727 16.6254 46.0946 16.6075 46.0067 16.6075ZM47.6376 15.2794C47.5432 15.2794 47.4537 15.2664 47.369 15.2403C47.2876 15.211 47.216 15.172 47.1542 15.1231C47.0956 15.0711 47.0484 15.0108 47.0126 14.9425C46.9768 14.8741 46.9589 14.7992 46.9589 14.7179C46.9589 14.5811 47.0126 14.4705 47.12 14.3858C47.2307 14.3012 47.3772 14.2589 47.5594 14.2589C47.6441 14.2589 47.7255 14.2752 47.8036 14.3077C47.8817 14.337 47.9501 14.3777 48.0087 14.4298C48.0705 14.4819 48.1193 14.5437 48.1552 14.6153C48.191 14.6837 48.2089 14.7553 48.2089 14.8302C48.2089 14.9701 48.1568 15.0808 48.0526 15.1622C47.9517 15.2403 47.8134 15.2794 47.6376 15.2794ZM46.9686 16.7686C46.9686 16.6547 47.0175 16.5619 47.1151 16.4903C47.216 16.4155 47.3479 16.378 47.5106 16.378C47.8036 16.378 47.9598 16.4789 47.9794 16.6808C47.9924 16.8207 48.0054 16.9786 48.0184 17.1544C48.0347 17.3302 48.0494 17.5173 48.0624 17.7159C48.0787 17.9112 48.0917 18.1147 48.1014 18.3263C48.1145 18.5346 48.1259 18.7413 48.1356 18.9464C48.1454 19.1482 48.1535 19.3435 48.16 19.5323C48.1665 19.7211 48.1698 19.8936 48.1698 20.0499C48.1698 20.2127 48.1112 20.3347 47.994 20.4161C47.8801 20.4975 47.7124 20.5382 47.4911 20.5382C47.3902 20.5382 47.3104 20.5138 47.2518 20.4649C47.1965 20.4194 47.1688 20.351 47.1688 20.2599C47.1688 19.8106 47.1574 19.3907 47.1346 19.0001C47.1151 18.6062 47.0923 18.2563 47.0663 17.9503C47.0435 17.6443 47.0207 17.3904 46.9979 17.1886C46.9784 16.9835 46.9686 16.8435 46.9686 16.7686ZM52.1395 15.9923C52.3186 15.9923 52.4911 16.0199 52.6571 16.0753C52.8231 16.1306 52.9696 16.2071 53.0966 16.3048C53.2235 16.4024 53.3244 16.5196 53.3993 16.6563C53.4774 16.7931 53.5165 16.9444 53.5165 17.1104C53.5165 17.1788 53.5002 17.2455 53.4677 17.3106C53.4384 17.3725 53.3977 17.4278 53.3456 17.4767C53.2935 17.5222 53.2333 17.5597 53.1649 17.589C53.0998 17.615 53.0315 17.628 52.9598 17.628C52.9533 17.628 52.9468 17.6296 52.9403 17.6329C52.9371 17.6329 52.9322 17.6329 52.9257 17.6329C52.9191 17.6362 52.9126 17.6378 52.9061 17.6378L52.9257 18.0284C52.9387 18.4939 53.0038 18.8341 53.121 19.0489C53.2414 19.2638 53.3977 19.3712 53.5897 19.3712C53.6581 19.3712 53.7183 19.3647 53.7704 19.3517C53.8257 19.3386 53.8762 19.324 53.9218 19.3077C53.9706 19.2882 54.0162 19.2719 54.0585 19.2589C54.1008 19.2459 54.1431 19.2393 54.1854 19.2393C54.2603 19.2393 54.3254 19.2719 54.3807 19.337C54.4393 19.4021 54.4686 19.4802 54.4686 19.5714C54.4686 19.6625 54.4328 19.7537 54.3612 19.8448C54.2928 19.936 54.2017 20.019 54.0878 20.0938C53.9738 20.1655 53.8453 20.224 53.702 20.2696C53.5588 20.3152 53.4139 20.338 53.2675 20.338C53.0135 20.338 52.7906 20.2338 52.5985 20.0255C52.4065 19.8139 52.2697 19.5046 52.1884 19.0977C52.1688 19.0326 52.1428 19.0001 52.1102 19.0001C52.0712 19.0001 52.037 19.0196 52.0077 19.0587C51.6854 19.4656 51.342 19.7716 50.9774 19.9767C50.6128 20.1785 50.2531 20.2794 49.8983 20.2794C49.7323 20.2794 49.5826 20.255 49.4491 20.2061C49.3156 20.1573 49.2017 20.089 49.1073 20.0011C49.0162 19.9099 48.9445 19.8009 48.8925 19.6739C48.8436 19.5437 48.8192 19.3989 48.8192 19.2393C48.8192 19.0147 48.868 18.7787 48.9657 18.5313C49.0666 18.2839 49.2017 18.0398 49.371 17.7989C49.5402 17.558 49.7356 17.3285 49.9569 17.1104C50.1815 16.8923 50.4159 16.7003 50.66 16.5343C50.9074 16.3683 51.1581 16.2364 51.412 16.1388C51.6659 16.0411 51.9084 15.9923 52.1395 15.9923ZM51.9784 17.6817C52.037 17.5711 52.0907 17.4913 52.1395 17.4425C52.1884 17.3904 52.2583 17.3562 52.3495 17.3399C52.4211 17.3302 52.4569 17.3074 52.4569 17.2716C52.4569 17.2455 52.4471 17.2179 52.4276 17.1886C52.3658 17.1039 52.3007 17.0307 52.2323 16.9688C52.1639 16.9037 52.0728 16.8712 51.9589 16.8712C51.8352 16.8712 51.6968 16.907 51.5438 16.9786C51.3908 17.0502 51.2346 17.1463 51.0751 17.2667C50.9188 17.3839 50.7642 17.519 50.6112 17.672C50.4615 17.8217 50.328 17.9763 50.2108 18.1358C50.0936 18.2953 49.9992 18.4532 49.9276 18.6095C49.856 18.7657 49.8202 18.9057 49.8202 19.0294C49.8202 19.1401 49.8495 19.2263 49.9081 19.2882C49.9699 19.35 50.0529 19.381 50.1571 19.381C50.424 19.381 50.7154 19.2393 51.0311 18.9561C51.3469 18.6729 51.6626 18.2481 51.9784 17.6817ZM54.3661 14.6983C54.3661 14.5291 54.4149 14.4086 54.5126 14.337C54.6102 14.2654 54.7714 14.2296 54.996 14.2296C55.0741 14.2296 55.1425 14.2377 55.201 14.254C55.2596 14.2703 55.3085 14.2979 55.3475 14.337C55.3866 14.3728 55.4175 14.4233 55.4403 14.4884C55.4663 14.5502 55.4875 14.63 55.5038 14.7276C55.5461 15.0173 55.5884 15.3217 55.6307 15.6407C55.6763 15.9565 55.7186 16.2722 55.7577 16.588C55.8 16.9005 55.8391 17.2065 55.8749 17.506C55.9107 17.8022 55.9416 18.0789 55.9677 18.336C55.9969 18.5899 56.0181 18.8162 56.0311 19.0147C56.0474 19.2101 56.0555 19.3647 56.0555 19.4786C56.0555 19.5958 56.0441 19.6951 56.0214 19.7765C56.0018 19.8578 55.966 19.9229 55.9139 19.9718C55.8651 20.0206 55.8 20.0564 55.7186 20.0792C55.6405 20.0987 55.5428 20.1085 55.4257 20.1085C55.3117 20.1085 55.2206 20.0792 55.1522 20.0206C55.0871 19.962 55.0546 19.8725 55.0546 19.752C55.0546 19.6283 55.0448 19.464 55.0253 19.2589C55.0057 19.0505 54.9797 18.8194 54.9471 18.5655C54.9146 18.3116 54.8772 18.0414 54.8348 17.755C54.7958 17.4685 54.7535 17.1853 54.7079 16.9054C54.6656 16.6254 54.6233 16.3569 54.5809 16.0997C54.5419 15.8393 54.5061 15.6098 54.4735 15.4112C54.441 15.2094 54.4149 15.045 54.3954 14.9181C54.3759 14.7879 54.3661 14.7146 54.3661 14.6983Z" fill="#1E1E1E"/>
<path d="M39.9346 39.495C44.0088 38.7157 49.51 39.6681 53.171 41.599C56.8319 43.5299 60.4731 47.4697 61.8902 51.0977C63.3074 54.7344 63.2778 59.895 61.6737 63.3845C60.0696 66.8826 56.0839 70.2682 52.2754 72.0432C48.4669 73.8269 43.1034 74.7534 38.8324 74.0521C34.5613 73.3507 29.3947 70.8137 26.649 67.8437C23.9131 64.8651 22.2795 60.0941 22.3878 56.2323C22.5058 52.3705 24.2969 47.461 27.3182 44.6556C30.3296 41.8501 38.1336 40.2483 40.466 39.3911C42.7885 38.5425 41.3123 39.2871 41.2631 39.5296M42.7491 38.6291C46.9021 38.5944 52.3246 41.3133 55.7001 43.9109C59.0855 46.5086 62.3921 50.6215 63.022 54.2148C63.6518 57.7996 61.8509 62.2761 59.5087 65.4539C57.1566 68.6317 52.9643 71.9653 48.9392 73.2814C44.9142 74.5889 39.3343 74.6755 35.3486 73.3334C31.3629 71.9826 27.1312 68.6403 25.0153 65.2028C22.9093 61.7653 21.9843 56.3795 22.6928 52.6996C23.4112 49.0109 25.8125 45.2617 29.3061 43.097C32.7997 40.941 41.5092 40.3695 43.6841 39.7374C45.8491 39.114 42.4736 39.1053 42.3457 39.3218" fill="white"/>
<path d="M44.4123 39.5209C48.4964 39.6162 54.0763 41.4345 57.1173 44.0495C60.1582 46.6557 62.3232 51.4181 62.648 55.1846C62.9629 58.9425 61.595 63.5923 59.0363 66.6142C56.4874 69.6361 51.5078 72.3723 47.3253 73.3074C43.1428 74.2425 37.8187 73.8875 33.9216 72.2424C30.0245 70.5885 25.7042 66.9086 23.9427 63.4278C22.1712 59.9469 22.0433 54.9682 23.3128 51.3574C24.5922 47.7554 27.8398 43.8157 31.5991 41.8068C35.3486 39.798 43.4577 39.5556 45.8491 39.2871C48.2405 39.0187 46.0853 39.85 45.9377 40.1876M42.3063 39.4776C46.3412 39.3045 51.9998 40.6812 55.2474 43.0624C58.5049 45.4435 60.975 50.1106 61.8509 53.7646C62.7169 57.4186 62.4118 61.7826 60.4829 64.9777C58.5442 68.1814 54.3814 71.5756 50.2481 72.961C46.1148 74.3464 39.9936 74.4244 35.6733 73.2814C31.3629 72.1385 26.6883 69.3244 24.3658 66.1206C22.0335 62.9169 21.0198 57.9554 21.7284 54.059C22.437 50.1625 25.3401 45.3136 28.6271 42.742C31.914 40.1703 39.2358 39.2525 41.4796 38.6291C43.7234 38.0056 41.9815 38.6724 42.0898 38.9927" stroke="#1E1E1E" stroke-width="2" stroke-linecap="round"/>
<path d="M42.2947 47.4654C42.2455 50.903 42.029 64.2721 41.842 67.6403M41.8814 47.1797C41.783 50.5047 41.8814 63.6833 41.6846 66.9823" stroke="#1E1E1E" stroke-width="2" stroke-linecap="round"/>
<path d="M29.3189 57.4962C33.5801 57.5049 50.999 57.0373 55.4079 57.0806M30.0472 57.1672C34.4757 57.2538 52.2193 57.5741 56.451 57.5568" stroke="#1E1E1E" stroke-width="2" stroke-linecap="round"/>
</svg>
