<svg width="84" height="119" viewBox="0 0 84 119" fill="none" xmlns="http://www.w3.org/2000/svg">
<path d="M22.2032 2.4228C31.1744 1.24452 41.7894 -0.700566 62.2073 2.4228C76.7336 4.29308 79.2091 6.43455 82.2094 21.3126C81.338 44.5134 80.7241 71.8289 82.2094 97.5733C81.942 112.994 77.1396 113.555 62.2073 116.463C46.9285 118.876 37.0958 113.517 22.2032 116.463C7.49869 119.343 -0.175374 112.339 2.20111 97.5733C3.01308 76.5607 4.25083 62.1502 2.20111 21.3126C0.260315 11.4843 10.0138 0.627332 22.2032 2.4228Z" fill="white"/>
<path d="M22.2032 2.42278C36.6502 3.94706 48.1266 2.60981 62.2073 2.42278M22.2032 2.42278C38.9178 2.2077 54.8996 2.29187 62.2073 2.42278M22.2032 2.42278C8.94436 4.2276 3.52795 8.85655 2.20108 21.3126M22.2032 2.42278C8.85524 3.74133 0.329602 7.85595 2.20108 21.3126M62.2073 2.42278C77.2584 1.43154 82.1103 9.39893 82.2094 21.3126M62.2073 2.42278C77.2187 4.35852 81.1994 10.0348 82.2094 21.3126M82.2094 21.3126C81.5459 42.3907 83.764 65.9936 82.2094 97.5732M82.2094 21.3126C82.2886 40.7729 82.0707 61.4301 82.2094 97.5732M82.2094 97.5732C81.0904 109.59 74.6046 116.145 62.2073 116.463M82.2094 97.5732C80.0012 110.403 77.4663 114.415 62.2073 116.463M62.2073 116.463C45.3046 118.277 29.6297 118.034 22.2032 116.463M62.2073 116.463C50.1763 116.529 37.68 115.481 22.2032 116.463M22.2032 116.463C7.45905 117.062 1.63667 111.161 2.20108 97.5732M22.2032 116.463C10.2712 114.761 2.38922 108.533 2.20108 97.5732M2.20108 97.5732C2.80511 82.5549 4.19139 66.0871 2.20108 21.3126M2.20108 97.5732C1.88422 78.9266 2.24069 59.9713 2.20108 21.3126" stroke="#1E1E1E" stroke-width="2" stroke-linecap="round"/>
<path d="M61.6677 69.8863C61.6875 69.3813 61.6083 68.7735 61.6677 68.2311C61.6776 68.7922 61.6479 69.3813 61.6677 69.8863ZM61.6677 69.8863C61.2914 70.9897 62.7371 71.981 63.4204 71.5415M61.6677 69.8863C62.2024 70.597 62.5589 71.2516 63.4204 71.5415M63.4204 71.5415C63.6679 71.5602 63.9254 71.5415 64.262 71.5415M63.4204 71.5415C63.757 71.5508 64.0739 71.5508 64.262 71.5415M64.262 71.5415C65.4404 71.5602 65.7869 72.4205 66.0147 73.1967M64.262 71.5415C64.7274 71.7846 66.4306 71.4947 66.0147 73.1967M66.0147 73.1967C65.9949 73.5894 65.9652 73.9635 66.0147 74.8612C66.0246 74.0009 66.0246 73.5801 66.0147 73.1967Z" stroke="#1E1E1E" stroke-linecap="round"/>
<path d="M65.9453 74.6929C65.9552 74.7771 66.084 74.749 66.1335 74.7677C66.183 74.7864 66.2622 74.7584 66.2622 74.8238C66.2523 74.8986 66.1929 75.0857 66.1137 75.1885C66.0345 75.2914 65.8562 75.4784 65.8067 75.4504C65.7572 75.4317 65.8265 75.1231 65.8364 75.0763C65.8364 75.0202 65.9255 75.2259 65.8562 75.1231C65.777 75.0202 65.3908 74.562 65.3908 74.4591C65.4007 74.3563 65.7572 74.562 65.9057 74.5246C66.0444 74.4778 66.2523 74.1973 66.2523 74.1786C66.2523 74.1599 65.9354 74.3188 65.9156 74.403M66.0246 74.3188C66.0047 74.2814 65.975 74.1973 66.1137 74.216C66.2523 74.2347 66.8068 74.3095 66.8266 74.4311C66.8464 74.5526 66.3909 74.908 66.2424 74.9641C66.084 75.0296 65.9849 74.8145 65.8958 74.8145C65.8067 74.8145 65.7374 74.9454 65.6879 74.9734C65.6285 74.9922 65.6285 74.9828 65.5691 74.9547C65.5096 74.936 65.371 74.9267 65.3314 74.8332C65.2918 74.7397 65.173 74.5059 65.3314 74.4217C65.4898 74.3376 66.2028 74.3843 66.3018 74.3469C66.3909 74.3095 66.0147 74.1505 65.9057 74.2066" fill="#1E1E1E"/>
<path d="M66.1335 74.6181C66.1633 74.6181 65.9949 74.5433 66.0048 74.5246C66.0147 74.4965 66.1732 74.4123 66.2029 74.4684C66.2326 74.5246 66.193 74.6835 66.193 74.8519C66.193 75.0202 66.2326 75.3662 66.2227 75.4784C66.2128 75.5813 66.2623 75.5345 66.1335 75.4971C66.0147 75.4597 65.579 75.3568 65.4602 75.2446C65.3414 75.1324 65.3711 74.936 65.4107 74.8332C65.4503 74.7396 65.6087 74.7116 65.688 74.6742C65.7672 74.6461 65.8365 74.6742 65.8959 74.6368C65.9454 74.5994 65.9256 74.5152 65.9949 74.4497M65.5889 74.6648C65.688 74.6087 66.1732 74.4684 66.292 74.5246C66.4108 74.5807 66.3415 74.8893 66.292 75.0015C66.2326 75.1137 65.9355 75.2259 65.9652 75.2072C65.9949 75.1792 66.5395 74.8144 66.4702 74.8612C66.4009 74.908 65.7573 75.4597 65.5493 75.4784C65.3414 75.4971 65.2028 75.1604 65.2127 74.9734C65.2226 74.7957 65.5295 74.5059 65.5988 74.3843C65.6681 74.2721 65.5988 74.1973 65.6582 74.2721C65.7078 74.3469 65.8563 74.8612 65.9454 74.8144C66.0345 74.777 66.1533 74.085 66.2029 74.0289" stroke="#1E1E1E" stroke-linecap="round"/>
<path d="M21.6204 2.9556C32.8196 2.9556 44.0188 2.9556 57.9707 2.9556M21.6204 2.9556C35.0674 2.9556 48.5143 2.9556 57.9707 2.9556M21.6204 2.9556C19.2737 2.9556 18.1052 4.05906 18.1052 6.27534M57.9707 2.9556C60.3076 2.9556 61.486 4.05906 61.486 6.27534M61.486 6.27534C61.486 8.26719 61.486 10.259 61.486 12.9242M61.486 6.27534C61.486 8.62254 61.486 10.9604 61.486 12.9242M61.486 12.9242C61.486 15.1405 60.3076 16.2439 57.9707 16.2439M57.9707 16.2439C45.4348 16.2439 32.9087 16.2439 21.6204 16.2439M57.9707 16.2439C43.8604 16.2439 29.7599 16.2439 21.6204 16.2439M21.6204 16.2439C19.2737 16.2439 18.1052 15.1405 18.1052 12.9242M18.1052 12.9242C18.1052 10.7173 18.1052 8.51033 18.1052 6.27534M18.1052 12.9242C18.1052 11.2596 18.1052 9.60444 18.1052 6.27534" stroke="#1E1E1E" stroke-width="2" stroke-linecap="round"/>
<path d="M36.7616 12.6257C36.69 12.7982 36.5809 12.8845 36.4344 12.8845C36.3759 12.8845 36.3091 12.8682 36.2343 12.8356L36.1024 12.7722C35.9429 12.694 35.8632 12.585 35.8632 12.445C35.8632 12.3734 35.8762 12.3067 35.9022 12.2448C36.0031 12.0072 36.1122 11.7614 36.2294 11.5075C36.3466 11.2503 36.4703 10.9883 36.6005 10.7214C36.6102 10.6953 36.62 10.6709 36.6298 10.6481C36.6395 10.6253 36.6444 10.6042 36.6444 10.5847C36.6444 10.5065 36.6037 10.4365 36.5223 10.3747C36.2489 10.1696 35.9771 9.96454 35.7069 9.75946C35.44 9.55113 35.1682 9.34605 34.8915 9.14423C34.771 9.05959 34.7108 8.96193 34.7108 8.85126C34.7108 8.80568 34.719 8.76174 34.7352 8.71942C34.7515 8.67385 34.7808 8.62828 34.8231 8.5827L34.9598 8.42157C35.0542 8.31089 35.1584 8.25555 35.2723 8.25555C35.3114 8.25555 35.3505 8.26532 35.3895 8.28485C35.4318 8.30113 35.4758 8.32391 35.5214 8.35321C35.7622 8.52899 35.9999 8.70477 36.2343 8.88055C36.4719 9.05308 36.7079 9.23049 36.9423 9.41278C36.9716 9.43231 36.9992 9.44859 37.0253 9.46161C37.0513 9.47463 37.0774 9.48114 37.1034 9.48114C37.175 9.48114 37.2385 9.43557 37.2938 9.34442C37.4501 9.04169 37.6112 8.74221 37.7772 8.44598C37.9432 8.14976 38.1141 7.85842 38.2899 7.57196C38.3778 7.4385 38.482 7.37177 38.6024 7.37177C38.6708 7.37177 38.7505 7.39943 38.8417 7.45477L38.9198 7.5036C39.0533 7.59149 39.12 7.69403 39.12 7.81122C39.12 7.85354 39.1135 7.89585 39.1005 7.93817C39.0874 7.97723 39.0679 8.01955 39.0419 8.06512C38.8498 8.37111 38.6675 8.68036 38.495 8.99286C38.3225 9.30536 38.1548 9.62274 37.9921 9.94501C37.9823 9.97105 37.9725 9.99384 37.9628 10.0134C37.9563 10.0329 37.953 10.0524 37.953 10.072C37.953 10.1533 37.9921 10.2233 38.0702 10.2819C38.4478 10.5749 38.8221 10.8695 39.1932 11.1657C39.5643 11.4587 39.9371 11.7484 40.3114 12.0349C40.4253 12.1227 40.4823 12.2188 40.4823 12.3229C40.4823 12.4206 40.4318 12.5134 40.3309 12.6013L40.16 12.7526C40.0656 12.8405 39.9696 12.8845 39.8719 12.8845C39.7841 12.8845 39.6945 12.847 39.6034 12.7722L37.6698 11.2634C37.6405 11.2438 37.6128 11.2276 37.5868 11.2145C37.564 11.2015 37.5396 11.195 37.5135 11.195C37.4354 11.195 37.3719 11.2438 37.3231 11.3415L36.7616 12.6257ZM40.6337 11.1022C40.6337 11.0469 40.6402 10.985 40.6532 10.9167C40.6662 10.8483 40.6727 10.7735 40.6727 10.6921C40.6727 10.6367 40.6483 10.5944 40.5995 10.5651C40.5539 10.5358 40.5018 10.5033 40.4432 10.4675C40.3846 10.4317 40.3309 10.3861 40.2821 10.3307C40.2365 10.2754 40.2137 10.1957 40.2137 10.0915C40.2137 10.0166 40.2333 9.94175 40.2723 9.86688C40.3147 9.79201 40.3749 9.72365 40.453 9.6618C40.6451 9.51858 40.8436 9.38999 41.0487 9.27606C41.257 9.16213 41.4637 9.0661 41.6688 8.98798C41.8772 8.90985 42.0822 8.84963 42.2841 8.80731C42.4859 8.76499 42.6796 8.74384 42.8651 8.74384C43.1776 8.74384 43.4706 8.80243 43.744 8.91962C44.0207 9.03355 44.26 9.19143 44.4618 9.39325C44.6669 9.59182 44.828 9.82619 44.9452 10.0964C45.0656 10.3633 45.1259 10.6498 45.1259 10.9557C45.1259 11.2552 45.0624 11.5401 44.9354 11.8102C44.8117 12.0772 44.6441 12.3115 44.4325 12.5134C44.2209 12.7152 43.9719 12.8747 43.6854 12.9919C43.4022 13.1123 43.1027 13.1725 42.787 13.1725C42.4777 13.1725 42.1913 13.1205 41.9276 13.0163C41.6639 12.9121 41.4361 12.7689 41.244 12.5866C41.052 12.4011 40.9022 12.183 40.7948 11.9323C40.6874 11.6784 40.6337 11.4017 40.6337 11.1022ZM42.8944 12.2936C43.0311 12.2936 43.1727 12.266 43.3192 12.2106C43.4657 12.1553 43.5992 12.0755 43.7196 11.9714C43.8433 11.864 43.9442 11.7337 44.0223 11.5807C44.1037 11.4278 44.1444 11.2552 44.1444 11.0632C44.1444 10.8679 44.1086 10.6856 44.037 10.5163C43.9654 10.347 43.8661 10.2005 43.7391 10.0768C43.6154 9.94989 43.4673 9.85061 43.2948 9.77899C43.1255 9.70738 42.9416 9.67157 42.743 9.67157C42.3817 9.67157 42.105 9.76597 41.913 9.95477C41.7209 10.1403 41.6249 10.4268 41.6249 10.8141C41.6249 11.0257 41.6558 11.2227 41.7177 11.405C41.7828 11.584 41.8723 11.7403 41.9862 11.8737C42.1001 12.0039 42.2336 12.1065 42.3866 12.1813C42.5428 12.2562 42.7121 12.2936 42.8944 12.2936ZM48.412 9.07098C48.2915 9.07098 48.1858 9.10354 48.0946 9.16864C48.0035 9.23049 47.9253 9.31838 47.8602 9.43231C47.7951 9.54299 47.7414 9.67483 47.6991 9.82782C47.6568 9.97756 47.6226 10.1419 47.5966 10.321C47.5705 10.5 47.5526 10.6872 47.5428 10.8825C47.5331 11.0778 47.5282 11.2748 47.5282 11.4733C47.5282 11.7337 47.538 11.9909 47.5575 12.2448C47.5803 12.4955 47.5917 12.7282 47.5917 12.9431C47.5917 13.083 47.5396 13.1921 47.4354 13.2702C47.3313 13.3516 47.1831 13.3923 46.9911 13.3923C46.9553 13.3923 46.9146 13.389 46.869 13.3825C46.8234 13.376 46.7795 13.363 46.7372 13.3434C46.6981 13.3239 46.6623 13.2962 46.6298 13.2604C46.6005 13.2279 46.5842 13.1823 46.5809 13.1237C46.5516 12.8373 46.5093 12.5443 46.454 12.2448C46.3986 11.9453 46.3287 11.6475 46.244 11.3513C46.1626 11.0518 46.0634 10.7556 45.9462 10.4626C45.8322 10.1696 45.7004 9.88316 45.5507 9.60321C45.5246 9.55438 45.5018 9.50881 45.4823 9.46649C45.466 9.42417 45.4579 9.38348 45.4579 9.34442C45.4579 9.29559 45.479 9.24351 45.5214 9.18817C45.5669 9.12958 45.6223 9.07587 45.6874 9.02704C45.7557 8.97821 45.829 8.93915 45.9071 8.90985C45.9885 8.8773 46.0666 8.86102 46.1415 8.86102C46.2652 8.86102 46.3742 8.94729 46.4686 9.11981C46.563 9.28908 46.6509 9.56089 46.7323 9.93524C46.7486 10.0003 46.7616 10.0459 46.7714 10.072C46.7811 10.098 46.7941 10.111 46.8104 10.111C46.8462 10.111 46.869 10.0557 46.8788 9.94501C46.9178 9.63576 46.9846 9.37046 47.079 9.14911C47.1734 8.9245 47.2906 8.74058 47.4305 8.59735C47.5738 8.45087 47.7365 8.34344 47.9188 8.27509C48.1044 8.20673 48.3078 8.17255 48.5292 8.17255C48.6561 8.17255 48.7847 8.18394 48.9149 8.20673C49.0451 8.22951 49.1623 8.26369 49.2665 8.30927C49.3706 8.35484 49.4553 8.41018 49.5204 8.47528C49.5855 8.54038 49.618 8.61363 49.618 8.69501C49.618 8.7536 49.605 8.82359 49.579 8.90497C49.5562 8.98309 49.5253 9.05959 49.4862 9.13446C49.4471 9.20608 49.4016 9.26792 49.3495 9.32001C49.3007 9.36884 49.2502 9.39325 49.1981 9.39325C49.1395 9.39325 49.0826 9.37697 49.0272 9.34442C48.9719 9.30861 48.9117 9.27118 48.8466 9.23212C48.7847 9.19305 48.718 9.15725 48.6464 9.12469C48.578 9.08889 48.4999 9.07098 48.412 9.07098Z" fill="#1E1E1E"/>
<path d="M10.0947 85.269C20.977 85.269 64.5261 85.269 75.4084 85.269" stroke="#1E1E1E" stroke-width="2" stroke-linecap="round"/>
<path d="M9.37093 100.063C9.36093 99.2214 9.34093 95.8455 9.33093 95.0039" stroke="#1E1E1E" stroke-linecap="round"/>
<path d="M9.29932 95.1936C9.54687 94.8569 10.547 93.529 10.7945 93.1924" stroke="#1E1E1E" stroke-linecap="round"/>
<path d="M12.2727 100.123C12.2827 99.2814 12.3027 95.9056 12.3127 95.064" stroke="#1E1E1E" stroke-linecap="round"/>
<path d="M12.344 95.2536C12.0964 94.917 11.0963 93.5891 10.8488 93.2524" stroke="#1E1E1E" stroke-linecap="round"/>
<path d="M7.18005 100.578C8.34849 100.559 13.0024 100.484 14.161 100.466" stroke="#1E1E1E" stroke-linecap="round"/>
<path d="M11.0007 100.662C11.0107 101.251 11.0507 103.627 11.0607 104.216" stroke="#1E1E1E" stroke-linecap="round"/>
<path d="M52.0062 96.0626C52.3627 95.7166 53.7886 94.3138 54.1451 93.9585" stroke="#1E1E1E" stroke-linecap="round"/>
<path d="M54.1406 93.9208C54.5367 94.2294 56.1012 95.4638 56.4973 95.7724" stroke="#1E1E1E" stroke-linecap="round"/>
<path d="M56.5862 96.0206C55.903 97.0118 53.1799 100.986 52.4967 101.987" stroke="#1E1E1E" stroke-linecap="round"/>
<path d="M52.0729 96.0626C51.7164 95.7166 50.2906 94.3138 49.9341 93.9585" stroke="#1E1E1E" stroke-linecap="round"/>
<path d="M49.9386 93.9209C49.5425 94.2295 47.978 95.4639 47.5819 95.7725" stroke="#1E1E1E" stroke-linecap="round"/>
<path d="M47.4929 96.0206C48.1762 97.0118 50.8992 100.986 51.5825 101.987" stroke="#1E1E1E" stroke-linecap="round"/>
<path d="M66.6666 39.0262C66.6666 39.0262 66.6996 39.0729 66.7657 39.1664C66.8383 39.2537 66.8911 39.3504 66.9241 39.4563C66.9637 39.5686 66.9802 39.6745 66.9736 39.7743C66.9736 39.8865 66.9505 39.9956 66.9043 40.1016C66.8647 40.2076 66.8086 40.3042 66.7359 40.3915C66.6633 40.4788 66.5775 40.5536 66.4785 40.6159C66.3729 40.6783 66.264 40.7219 66.1517 40.7468C66.0395 40.7718 65.9273 40.7811 65.8151 40.7749C65.6962 40.7624 65.5807 40.7344 65.4685 40.6907C65.3629 40.6471 65.2638 40.5879 65.1714 40.513C65.0856 40.4382 65.013 40.351 64.9536 40.2512C64.8942 40.1577 64.8546 40.0548 64.8348 39.9426C64.815 39.8304 64.8117 39.7244 64.8249 39.6247C64.8381 39.5124 64.8711 39.4065 64.9239 39.3067C64.9767 39.207 65.046 39.1166 65.1318 39.0355C65.2176 38.9545 65.3134 38.889 65.419 38.8391C65.5246 38.7893 65.6368 38.7581 65.7556 38.7456C65.8679 38.7332 65.9801 38.7363 66.0923 38.755C66.2111 38.7737 66.3201 38.8111 66.4191 38.8672C66.5247 38.9233 66.6171 38.9919 66.6963 39.0729C66.7756 39.1602 66.8383 39.2537 66.8845 39.3535C66.9307 39.4595 66.9604 39.5686 66.9736 39.6808C66.9802 39.7868 66.9703 39.8927 66.9439 39.9987C66.9109 40.1047 66.8647 40.2076 66.8053 40.3073C66.7392 40.4008 66.66 40.4819 66.5676 40.5505C66.4752 40.619 66.3729 40.672 66.2607 40.7094C66.1484 40.7531 66.0329 40.7749 65.9141 40.7749C65.8019 40.7811 65.6896 40.7655 65.5774 40.7281C65.4652 40.697 65.3629 40.6471 65.2704 40.5785C65.1714 40.5162 65.1219 40.485 65.1219 40.485C65.1219 40.485 65.0955 40.4507 65.0427 40.3821C64.9833 40.3198 64.9371 40.2512 64.9041 40.1764C64.8645 40.1016 64.8381 40.0205 64.8249 39.9333C64.8117 39.8522 64.8051 39.7743 64.8051 39.6995C64.8117 39.6122 64.8282 39.5311 64.8546 39.4563C64.881 39.3753 64.9173 39.2974 64.9635 39.2226C65.0097 39.154 65.0658 39.0916 65.1318 39.0355C65.1912 38.9732 65.2572 38.9202 65.3299 38.8766C65.4091 38.8329 65.4916 38.7986 65.5774 38.7737C65.6566 38.7487 65.7424 38.7332 65.8349 38.7269C65.9141 38.7269 65.9966 38.7332 66.0824 38.7456C66.1748 38.7581 66.2607 38.783 66.3399 38.8204C66.4191 38.8516 66.4917 38.8953 66.5577 38.9514C66.6303 39.0012 66.6666 39.0262 66.6666 39.0262Z" fill="#1E1E1E"/>
<g clip-path="url(#clip0_58_127)">
<path d="M45.4846 67.4967C45.6332 65.5983 43.3557 60.2119 44.742 57.3036C46.1283 54.4047 50.7129 50.6548 53.7924 50.0937C56.8819 49.5233 61.4368 51.0662 63.2489 53.9278C65.0609 56.78 64.3975 65.0746 64.6549 67.2255M44.4647 69.5446C44.5241 67.319 42.3061 58.9588 43.7815 55.9103C45.247 52.8617 49.9306 51.4497 53.2973 51.2626C56.6541 51.0756 62.2289 52.0949 63.9519 54.7975C65.6848 57.5 63.7935 65.1214 63.6548 67.4873" stroke="#1E1E1E" stroke-linecap="round"/>
<path d="M44.7444 68.8975C47.9526 68.8227 61.1124 67.8408 64.4197 67.607M44.071 68.7105C47.2001 68.7572 60.7163 68.3551 64.1127 68.2335" stroke="#1E1E1E" stroke-linecap="round"/>
<path d="M58.9214 59.9885C58.0578 60.5968 55.6432 63.0385 53.951 63.1024C52.259 63.1757 49.6452 60.8222 48.7688 60.4094M59.4717 60.4514C58.6343 60.7784 55.925 62.614 54.1615 62.5194C52.398 62.4247 49.8758 60.2671 48.9107 59.8927" stroke="#1E1E1E" stroke-linecap="round"/>
<path d="M59.1852 60.3651C58.3128 59.8708 55.7923 57.3308 54.1189 57.3149C52.4455 57.2896 49.8864 59.8288 49.1348 60.2322M59.6417 60.8788C58.8187 60.3002 56.0686 56.8814 54.3355 56.7065C52.6023 56.5224 50.034 59.3982 49.2329 59.8111" stroke="#1E1E1E" stroke-linecap="round"/>
<path d="M52.7915 59.7459C52.7915 59.7459 52.8407 59.7144 52.9391 59.6513C53.0308 59.582 53.1326 59.5314 53.2445 59.4994C53.3629 59.4611 53.4749 59.4447 53.5805 59.4501C53.6993 59.4493 53.815 59.4702 53.9275 59.5131C54.04 59.5497 54.1428 59.6019 54.2358 59.6699C54.3288 59.7378 54.4088 59.8183 54.4756 59.9114C54.5425 60.0107 54.5897 60.1133 54.6171 60.2191C54.6444 60.3249 54.6553 60.4309 54.6497 60.537C54.6376 60.6493 54.6089 60.7587 54.5637 60.865C54.5184 60.9652 54.4566 61.0592 54.3783 61.1471C54.2999 61.2287 54.2081 61.298 54.1031 61.3549C54.0046 61.4118 53.8961 61.45 53.7775 61.4696C53.659 61.4891 53.5468 61.4931 53.4411 61.4814C53.3223 61.4698 53.2098 61.4394 53.1038 61.3903C52.9977 61.3412 52.9015 61.2764 52.8149 61.1959C52.7284 61.1155 52.6583 61.0255 52.6046 60.9261C52.5508 60.8267 52.5169 60.7209 52.5026 60.6088C52.4884 60.5028 52.4907 60.3968 52.5095 60.2906C52.5283 60.1782 52.5669 60.075 52.6254 59.981C52.6839 59.8808 52.7556 59.793 52.8407 59.7175C52.9324 59.642 53.0308 59.582 53.136 59.5376C53.2477 59.4931 53.3629 59.4642 53.4816 59.4508C53.5937 59.4438 53.7059 59.4523 53.8183 59.4765C53.9308 59.5068 54.04 59.5497 54.1461 59.605C54.2457 59.6667 54.3322 59.7409 54.4055 59.8277C54.4789 59.9145 54.5359 60.0107 54.5765 60.1165C54.6237 60.2222 54.6478 60.3311 54.6488 60.4434C54.6564 60.5494 54.6409 60.6555 54.6023 60.7618C54.5703 60.8681 54.5184 60.9652 54.4467 61.053C54.3816 61.1471 54.349 61.1941 54.349 61.1941C54.349 61.1941 54.313 61.2193 54.2409 61.2697C54.1754 61.3263 54.1032 61.3705 54.0244 61.4023C53.9455 61.4403 53.86 61.4658 53.7677 61.479C53.6821 61.4921 53.5997 61.4989 53.5205 61.4995C53.4281 61.4939 53.3421 61.479 53.2627 61.4546C53.1767 61.4303 53.0939 61.3966 53.0143 61.3535C52.9414 61.3104 52.8749 61.2578 52.8149 61.1959C52.7484 61.1403 52.6918 61.0783 52.6449 61.01C52.598 60.9355 52.561 60.8578 52.5339 60.7769C52.5068 60.7023 52.4895 60.6213 52.4821 60.5341C52.4814 60.4592 52.4873 60.3812 52.4997 60.3C52.5121 60.2126 52.5378 60.1314 52.5766 60.0562C52.6089 59.9811 52.6545 59.9122 52.7133 59.8494C52.7654 59.7804 52.7915 59.7459 52.7915 59.7459Z" fill="#1E1E1E"/>
<path d="M24.9089 53.0137C24.4315 52.3229 22.1487 50.4867 22.2325 48.9247C22.3064 47.3627 24.87 44.4286 25.3622 43.651M25.9397 53.4037C25.3042 52.8162 21.6059 50.9464 21.3728 49.3478C21.1496 47.7399 24.0887 44.6271 24.5609 43.7841" stroke="#1E1E1E" stroke-linecap="round"/>
<path d="M25.2691 53.2848C25.9375 52.5029 28.7079 49.647 28.7883 48.1135C28.8687 46.5707 26.2806 44.7605 25.7615 44.0561M24.8986 53.9188C25.4478 53.2016 28.083 49.8867 28.0846 48.3154C28.0861 46.7441 25.4462 45.2516 24.8781 44.4908" stroke="#1E1E1E" stroke-linecap="round"/>
<path d="M25.4966 47.4663C25.4966 47.4663 25.5296 47.5131 25.5956 47.6066C25.6682 47.6938 25.721 47.7905 25.754 47.8965C25.7936 48.0087 25.8102 48.1147 25.8036 48.2144C25.8036 48.3266 25.7804 48.4357 25.7342 48.5417C25.6946 48.6477 25.6385 48.7443 25.5659 48.8316C25.4933 48.9189 25.4075 48.9937 25.3085 49.056C25.2028 49.1184 25.0939 49.162 24.9817 49.187C24.8695 49.2119 24.7572 49.2212 24.645 49.215C24.5262 49.2025 24.4107 49.1745 24.2984 49.1308C24.1928 49.0872 24.0938 49.028 24.0014 48.9532C23.9156 48.8784 23.843 48.7911 23.7835 48.6913C23.7241 48.5978 23.6845 48.495 23.6647 48.3827C23.6449 48.2705 23.6416 48.1645 23.6548 48.0648C23.668 47.9526 23.701 47.8466 23.7538 47.7468C23.8066 47.6471 23.876 47.5567 23.9618 47.4756C24.0476 47.3946 24.1433 47.3291 24.2489 47.2793C24.3546 47.2294 24.4668 47.1982 24.5856 47.1858C24.6978 47.1733 24.81 47.1764 24.9223 47.1951C25.0411 47.2138 25.15 47.2512 25.249 47.3073C25.3547 47.3634 25.4471 47.432 25.5263 47.5131C25.6055 47.6003 25.6682 47.6938 25.7144 47.7936C25.7606 47.8996 25.7903 48.0087 25.8036 48.1209C25.8102 48.2269 25.8003 48.3329 25.7738 48.4388C25.7408 48.5448 25.6946 48.6477 25.6352 48.7474C25.5692 48.841 25.49 48.922 25.3976 48.9906C25.3051 49.0592 25.2028 49.1121 25.0906 49.1495C24.9784 49.1932 24.8629 49.215 24.744 49.215C24.6318 49.2212 24.5196 49.2057 24.4074 49.1683C24.2951 49.1371 24.1928 49.0872 24.1004 49.0186C24.0014 48.9563 23.9519 48.9251 23.9519 48.9251C23.9519 48.9251 23.9255 48.8908 23.8727 48.8223C23.8132 48.7599 23.767 48.6913 23.734 48.6165C23.6944 48.5417 23.668 48.4607 23.6548 48.3734C23.6416 48.2923 23.635 48.2144 23.635 48.1396C23.6416 48.0523 23.6581 47.9713 23.6845 47.8965C23.7109 47.8154 23.7472 47.7375 23.7934 47.6627C23.8397 47.5941 23.8958 47.5318 23.9618 47.4756C24.0212 47.4133 24.0872 47.3603 24.1598 47.3167C24.239 47.273 24.3215 47.2387 24.4074 47.2138C24.4866 47.1889 24.5724 47.1733 24.6648 47.1671C24.744 47.1671 24.8266 47.1733 24.9124 47.1858C25.0048 47.1982 25.0906 47.2232 25.1698 47.2606C25.249 47.2917 25.3217 47.3354 25.3877 47.3915C25.4603 47.4414 25.4966 47.4663 25.4966 47.4663Z" fill="#1E1E1E"/>
<path d="M15.9206 57.9763C15.7819 55.8909 14.9106 49.0176 16.485 45.8008C18.0594 42.5745 22.5648 38.9555 25.3671 38.6376C28.1595 38.329 31.5856 41.0222 33.259 43.9211C34.9423 46.8201 34.9027 54.0767 35.4176 56.0218M17.8218 57.3591C17.4455 55.4327 14.3561 47.0819 15.5146 44.1082C16.6731 41.1438 21.8321 39.9281 24.7631 39.554C27.6842 39.18 31.5262 39.1052 33.0511 41.8732C34.576 44.6412 33.6353 53.5344 33.8828 56.1621" stroke="#1E1E1E" stroke-linecap="round"/>
<path d="M17.4872 57.5473C20.4776 57.3696 32.3699 56.6028 35.2415 56.528M16.8138 57.2293C19.7646 57.089 31.7164 57.2013 34.8751 57.0423" stroke="#1E1E1E" stroke-linecap="round"/>
<path d="M42.3651 31.4498C43.1771 31.7864 45.6031 33.4323 47.2171 33.479C48.841 33.5164 51.267 32.0109 52.079 31.721" stroke="#1E1E1E" stroke-width="0.5" stroke-linecap="round"/>
<path d="M47.3292 30.857C47.3292 31.0721 47.3492 31.9418 47.3592 32.1568" stroke="#1E1E1E" stroke-width="0.5" stroke-linecap="round"/>
<path d="M37.4595 42.2131C37.7467 39.9407 37.1327 32.6746 38.8557 29.065C40.5786 25.4647 46.3317 21.9392 47.7972 20.602M36.7664 41.6707C37.0535 39.417 36.8555 32.9645 38.618 29.5232C40.3707 26.0913 45.8267 22.6219 47.3219 21.0509" stroke="#1E1E1E" stroke-linecap="round"/>
<path d="M58.0377 41.7705C57.8396 39.6103 58.3248 32.4845 56.4434 28.9871C54.572 25.4803 48.3634 22.2073 46.7593 20.7766M57.5723 42.6869C57.2851 40.6109 57.503 33.3261 55.8889 29.5295C54.2749 25.7235 49.3932 21.347 47.8782 19.8882" stroke="#1E1E1E" stroke-linecap="round"/>
<path d="M37.1724 42.6675C38.6478 41.9381 43.2819 38.1602 46.6189 38.1228C49.9559 38.0853 55.4416 41.7324 57.214 42.4618M38.0338 42.1064C39.6479 41.2555 44.5296 37.1876 47.6487 37.3279C50.7579 37.4682 55.1148 42.0036 56.7189 42.9481" stroke="#1E1E1E" stroke-linecap="round"/>
<path d="M42.2091 31.8775C43.0112 31.5408 45.4768 29.6892 47.1007 29.6144C48.7345 29.5303 51.21 31.0919 51.9923 31.4099M42.724 31.6624C43.6548 31.3912 46.2986 29.9698 47.7938 29.9791C49.289 29.9978 51.0318 31.4379 51.6853 31.7465" stroke="#1E1E1E" stroke-width="0.5" stroke-linecap="round"/>
<path d="M47.2498 29.8227C47.5964 29.8695 47.8043 30.0004 48.1806 30.1874C48.5668 30.3745 49.3886 30.5428 49.5174 30.9262C49.6362 31.319 49.1906 32.0951 48.9431 32.4972C48.6856 32.8993 48.339 33.2173 48.0024 33.3389C47.6558 33.4604 47.2696 33.3389 46.8834 33.2173C46.4973 33.0957 45.913 32.9087 45.6754 32.6095C45.4377 32.3009 45.4675 31.8613 45.4774 31.4031C45.4774 30.9449 45.3684 30.1781 45.6754 29.8601C45.9923 29.5328 47.0518 29.4767 47.3488 29.4674C47.636 29.4487 47.5073 29.7292 47.4479 29.7853M46.8339 29.5703C47.3587 29.6077 48.3291 30.0004 48.7846 30.1687C49.2401 30.3464 49.4778 30.2997 49.5768 30.5989C49.6758 30.8888 49.5867 31.506 49.3688 31.9175C49.151 32.3289 48.6361 32.8713 48.2598 33.0677C47.8934 33.2641 47.4677 33.1799 47.1211 33.0957C46.7646 33.0116 46.418 32.7778 46.1408 32.5533C45.8536 32.3289 45.5368 32.1886 45.4278 31.7585C45.3288 31.3283 45.2397 30.2716 45.517 29.9537C45.8041 29.6357 46.9131 29.8695 47.1112 29.8508C47.3191 29.8321 46.725 29.8601 46.7349 29.8414" stroke="#1E1E1E" stroke-width="0.5" stroke-linecap="round"/>
<path d="M47.7887 31.4033C47.6006 31.4127 46.8481 31.4407 46.6599 31.4501" stroke="#1E1E1E" stroke-width="0.5" stroke-linecap="round"/>
<path d="M21.4972 60.1412C21.4279 59.1874 21.5072 58.6637 21.4972 58.0839C21.5369 58.8414 21.527 59.6456 21.4972 60.1412ZM21.4972 60.1412C21.5765 61.3663 21.1111 62.3108 19.3188 62.1985M21.4972 60.1412C21.9329 60.8332 20.2298 62.4323 19.3188 62.1985M19.3188 62.1985C18.9623 62.2079 18.6356 62.1705 18.1108 62.1985M19.3188 62.1985C19.0614 62.2172 18.7841 62.1892 18.1108 62.1985M18.1108 62.1985C16.9324 61.9461 15.9422 62.9186 15.9323 64.2558M18.1108 62.1985C16.9423 62.0489 16.4472 62.9373 15.9323 64.2558M15.9323 64.2558C15.9125 64.8824 15.9818 65.4528 15.9323 66.3132C15.9026 65.7147 15.9224 65.004 15.9323 64.2558Z" stroke="#1E1E1E" stroke-linecap="round"/>
<path d="M15.764 65.6773C15.8333 65.696 15.9125 65.6586 16.0214 65.7334C16.1304 65.8082 16.2789 65.9391 16.4175 66.1074C16.5561 66.2664 16.9324 66.5656 16.8631 66.7246C16.7839 66.8836 16.1403 67.0706 15.962 67.08C15.7838 67.0987 15.9026 66.8462 15.7838 66.8275C15.665 66.8088 15.2986 67.0987 15.259 66.9678C15.2095 66.8368 15.5065 66.1729 15.5164 66.0326C15.5263 65.8923 15.2689 66.1542 15.2887 66.1261C15.3085 66.0887 15.5857 65.9298 15.6452 65.8456C15.7046 65.7708 15.665 65.6586 15.6551 65.6492M15.556 66.0326C15.6749 65.9578 16.3581 65.4528 16.4571 65.4902C16.566 65.537 16.1502 66.0794 16.1799 66.2945C16.2096 66.5095 16.6849 66.7433 16.6354 66.7994C16.5859 66.8649 16.0214 66.6218 15.8729 66.6685C15.7244 66.7246 15.764 67.1454 15.7442 67.1174C15.7244 67.0987 15.7541 66.6779 15.7442 66.5189C15.7442 66.3599 15.7442 66.2945 15.6947 66.1635C15.6452 66.042 15.457 65.9017 15.4471 65.7708C15.4372 65.6399 15.5362 65.4341 15.6551 65.3687C15.7838 65.2939 16.1997 65.3032 16.1997 65.35" fill="#1E1E1E"/>
<path d="M16.2888 65.6492C16.4571 65.6586 16.2393 66.0233 16.269 66.1729C16.2987 66.3225 16.4175 66.4628 16.467 66.5563C16.5067 66.6592 16.6156 66.6779 16.5364 66.7714C16.4571 66.8649 16.1502 67.08 16.0017 67.1361C15.8531 67.1922 15.8333 67.2203 15.6551 67.0893C15.4868 66.9584 15.0115 66.5283 14.9619 66.3506C14.9124 66.1636 15.2392 66.0887 15.3679 66.0233C15.4967 65.9485 15.665 65.9952 15.7343 65.9391C15.8036 65.883 15.7739 65.7708 15.7838 65.6773C15.7937 65.5931 15.7937 65.4248 15.8036 65.4061M16.2789 65.3874C16.3977 65.2939 16.5265 65.4715 16.5859 65.6118C16.6453 65.7521 16.6156 66.07 16.6354 66.229C16.6552 66.3786 16.7542 66.4254 16.7344 66.5563C16.7047 66.6779 16.675 66.8462 16.5067 66.9865C16.3383 67.1267 15.9719 67.4821 15.7046 67.3979C15.4471 67.3138 14.9916 66.6124 14.9124 66.4628C14.8332 66.3132 15.1996 66.5563 15.2293 66.4909C15.259 66.416 14.9718 66.1823 15.0907 66.042C15.2095 65.9017 15.8333 65.6866 15.9422 65.6586C16.0512 65.6399 15.8432 65.8737 15.764 65.9017" stroke="#1E1E1E" stroke-linecap="round"/>
<path d="M25.7477 60.062C25.8072 58.7341 25.6685 58.3413 25.7477 57.8176C25.7873 58.3694 25.7576 58.9024 25.7477 60.062ZM25.7477 60.062C26.0943 61.6704 26.9261 61.7172 28.1242 62.3156M25.7477 60.062C25.2031 61.8013 26.3221 62.6991 28.1242 62.3156M28.1242 62.3156C28.9461 62.2502 29.8175 62.2689 30.5502 62.3156M28.1242 62.3156C28.8867 62.2876 29.5996 62.2969 30.5502 62.3156M30.5502 62.3156C32.1444 62.3437 33.1743 62.9328 32.9366 64.56M30.5502 62.3156C32.6494 62.3718 32.9564 63.7558 32.9366 64.56M32.9366 64.56C32.9762 64.9901 32.9663 65.5419 32.9366 66.8137C32.9465 65.8972 32.897 65.2613 32.9366 64.56Z" stroke="#1E1E1E" stroke-linecap="round"/>
<path d="M32.5207 66.0095C32.6692 65.9627 32.9267 66.0001 33.1742 66.1217C33.4218 66.2339 33.9466 66.5144 33.9862 66.7108C34.0258 66.8978 33.5208 67.1597 33.4119 67.2719C33.293 67.3841 33.4614 67.2719 33.3326 67.3654C33.2039 67.4589 32.7781 67.8891 32.6494 67.833C32.5306 67.7862 32.689 67.1877 32.5702 67.0568C32.4613 66.9259 32.0652 67.141 31.986 67.0475C31.9068 66.9539 31.9959 66.6547 32.1048 66.4864C32.2038 66.3087 32.5405 66.0749 32.6197 66.0095C32.6989 65.9533 32.5999 66.0656 32.59 66.103M33.1049 65.7757C33.2435 65.7289 32.9267 66.2152 33.0455 66.4116C33.1544 66.5986 33.7584 66.8324 33.7881 66.9259C33.8178 67.0288 33.3425 66.8511 33.2336 66.982C33.1346 67.1129 33.1841 67.6459 33.1445 67.7021C33.1148 67.7582 33.0851 67.4309 33.0059 67.328C32.9267 67.2158 32.8276 67.1877 32.689 67.0568C32.5504 66.9259 32.2434 66.7482 32.1741 66.5518C32.1048 66.3648 32.0553 66.0562 32.2533 65.9066C32.4415 65.7663 33.2336 65.6915 33.3128 65.7009C33.402 65.7102 32.8672 65.9627 32.7583 65.9627" fill="#1E1E1E"/>
<path d="M32.8673 66.3368C32.9663 66.3929 33.2237 66.477 33.3723 66.5612C33.5307 66.636 33.7782 66.6828 33.7981 66.8324C33.8179 66.9914 33.6 67.3186 33.4911 67.4683C33.3822 67.6272 33.3525 67.7956 33.1445 67.7675C32.9366 67.7395 32.3623 67.4028 32.2236 67.2812C32.0751 67.1503 32.2533 67.0942 32.2731 67.0007C32.2929 66.9165 32.3326 66.8885 32.3326 66.7482C32.3326 66.6079 32.1642 66.3274 32.2434 66.1591C32.3326 66.0001 32.7187 65.8131 32.8178 65.7663C32.9168 65.7196 32.788 65.7757 32.8277 65.8692M33.2336 65.8318C33.3426 65.8879 33.4218 66.1591 33.5307 66.2993C33.6495 66.4303 33.8674 66.4957 33.9367 66.6641C33.9961 66.8324 34.0555 67.0942 33.9268 67.3186C33.7881 67.5431 33.4317 68.0294 33.1346 68.0294C32.8475 68.0294 32.3127 67.4309 32.1543 67.328C31.9959 67.2251 32.2434 67.4963 32.1741 67.4122C32.1048 67.328 31.6988 67.0288 31.7582 66.823C31.8077 66.6173 32.3028 66.2619 32.491 66.1684C32.6692 66.0749 32.8475 66.2713 32.8574 66.2713C32.8673 66.2806 32.491 66.29 32.5702 66.1965" stroke="#1E1E1E" stroke-linecap="round"/>
<path d="M35.9788 58.2909C35.6322 58.3283 35.1668 58.2816 34.6024 58.2909C34.949 58.2816 35.2956 58.2909 35.9788 58.2909ZM35.9788 58.2909C37.2859 57.7018 36.8898 58.9268 37.3552 59.5908M35.9788 58.2909C36.6818 58.6743 37.8206 58.16 37.3552 59.5908M37.3552 59.5908C37.2958 60.208 37.3552 60.9561 37.3552 61.7229M37.3552 59.5908C37.375 60.3669 37.3651 61.1712 37.3552 61.7229M37.3552 61.7229C37.6027 62.4523 38.2662 63.0695 38.7415 63.0227M37.3552 61.7229C37.3849 63.2846 37.1967 62.7328 38.7415 63.0227M38.7415 63.0227C39.1771 63.0321 39.5633 63.0134 40.1178 63.0227C39.6921 63.0321 39.2366 63.004 38.7415 63.0227Z" stroke="#1E1E1E" stroke-linecap="round"/>
<path d="M39.9297 62.7889C40.0683 62.8076 40.5238 62.9385 40.5436 63.004C40.5733 63.0601 40.098 63.1536 40.0683 63.1536C40.0287 63.1536 40.3258 62.9385 40.3357 62.9946C40.3357 63.0508 40.0881 63.4809 40.0881 63.4809C40.0881 63.4809 40.3753 62.9946 40.3258 62.9853C40.2664 62.9666 39.8901 63.3594 39.7812 63.3968C39.6723 63.4342 39.6723 63.2752 39.6624 63.1817C39.6624 63.0882 39.7218 62.8918 39.7515 62.845C39.7812 62.7889 39.8505 62.845 39.8604 62.8731C39.8703 62.8918 39.7713 63.0227 39.8208 62.9853M39.7218 63.004C39.7515 63.0882 40.2961 63.1536 40.3357 63.1162C40.3753 63.0882 39.9693 62.7515 39.9495 62.7796C39.9396 62.8076 40.1575 63.2658 40.2565 63.3032C40.3456 63.3406 40.4941 63.0508 40.5337 63.0133C40.5733 62.9759 40.5733 63.0788 40.4743 63.0788C40.3852 63.0788 40.0683 63.0695 39.9396 63.004C39.8208 62.9292 39.6525 62.7515 39.7218 62.6673C39.7911 62.5925 40.3159 62.5084 40.3555 62.5271C40.3951 62.5364 40.0485 62.7609 39.9594 62.7328C39.8703 62.7048 39.8406 62.4055 39.8406 62.3681" fill="#1E1E1E"/>
<path d="M39.9396 63.0695C40.0288 63.0227 40.2565 62.8825 40.3159 62.9012C40.3654 62.9105 40.2565 63.0788 40.2664 63.1443C40.2763 63.2191 40.4446 63.3407 40.3753 63.3126C40.3159 63.2846 39.9198 63.0321 39.8802 63.004C39.8406 62.976 40.108 63.0882 40.1377 63.1349C40.1773 63.191 40.1773 63.35 40.0882 63.322C39.9991 63.3033 39.6822 63.1349 39.6228 63.0134C39.5634 62.8918 39.6723 62.658 39.7119 62.5926C39.7515 62.5271 39.8109 62.5552 39.8802 62.63C39.9495 62.7048 40.0486 62.976 40.1278 63.0414M40.0981 62.8357C40.1476 62.845 40.3357 62.7141 40.4347 62.7422C40.5338 62.7702 40.6922 62.8637 40.6724 63.004C40.6625 63.1349 40.4942 63.5651 40.3456 63.5651C40.207 63.5745 39.8604 63.0414 39.8109 63.0321C39.7614 63.0227 40.0981 63.4622 40.0486 63.5183C40.009 63.5838 39.5634 63.4716 39.5337 63.3874C39.504 63.3033 39.8505 63.0695 39.8901 63.0227C39.9297 62.976 39.8208 63.1256 39.7812 63.1162C39.7317 63.1069 39.5337 63.0788 39.6327 62.9666C39.7317 62.845 40.3456 62.4055 40.3654 62.4149" stroke="#1E1E1E" stroke-linecap="round"/>
<path d="M36.7743 51.3511C36.5466 53.1559 36.5268 55.9987 36.7743 58.4488C36.8634 56.2512 36.8833 53.8292 36.7743 51.3511ZM36.7743 51.3511C36.0713 50.8648 36.9031 50.6684 38.0319 50.1634M36.7743 51.3511C37.4774 49.7146 37.2892 49.3499 38.0319 50.1634M38.0319 50.1634C39.5271 50.2383 39.3191 50.6684 39.2795 48.9852M38.0319 50.1634C37.923 49.7333 39.2696 50.4253 39.2795 48.9852M39.2795 48.9852C39.2696 47.2832 39.4578 45.5065 39.2795 41.8781C39.1013 44.2066 39.131 46.6941 39.2795 48.9852Z" stroke="#1E1E1E" stroke-linecap="round"/>
<path d="M54.1495 46.2991C54.1792 47.8421 54.0901 49.0671 54.1495 50.0864C54.1792 48.983 54.0901 48.0104 54.1495 46.2991ZM54.1495 46.2991C53.9614 46.3178 54.3872 45.3359 53.6445 45.8222M54.1495 46.2991C54.2089 45.4388 53.3375 45.2985 53.6445 45.8222M53.6445 45.8222C53.3375 46.43 52.6048 45.4201 53.1494 45.3546M53.6445 45.8222C53.3078 46.2617 52.5454 46.0373 53.1494 45.3546M53.1494 45.3546C53.2187 44.0922 53.189 43.1384 53.1494 41.5673C53.1593 43.662 53.0999 44.5224 53.1494 45.3546Z" stroke="#1E1E1E" stroke-linecap="round"/>
<path d="M52.8524 41.0249C52.9614 40.9595 53.4862 40.7631 53.6446 40.8753C53.803 40.9875 53.7139 41.558 53.7832 41.6889C53.8625 41.8198 54.1793 41.5393 54.1001 41.6702C54.0209 41.8011 53.5258 42.3715 53.2881 42.5024C53.0505 42.624 52.8425 42.5399 52.6742 42.437C52.5059 42.3435 52.3672 42.0629 52.2781 41.9133C52.189 41.7637 52.1296 41.6328 52.1395 41.5205C52.1494 41.399 52.1692 41.3429 52.3474 41.2026C52.5257 41.0623 53.001 40.7257 53.1891 40.6883C53.3674 40.6509 53.4664 40.9782 53.4268 40.9688M52.8029 40.6228C52.9416 40.6041 53.3773 41.0904 53.6248 41.2026C53.8724 41.3055 54.1694 41.1652 54.2684 41.2681C54.3774 41.3709 54.3972 41.6795 54.2486 41.8291C54.11 41.9694 53.6644 42.1284 53.407 42.1471C53.1396 42.1564 52.7633 42.0255 52.6742 41.932C52.5752 41.8291 52.9119 41.6608 52.8326 41.558C52.7633 41.4551 52.2979 41.4831 52.2187 41.3148C52.1494 41.1465 52.2682 40.6789 52.397 40.548C52.5257 40.4264 52.8723 40.5199 53.001 40.548C53.1198 40.5854 53.1396 40.6602 53.1396 40.7257" fill="#1E1E1E"/>
<path d="M53.1792 41.0249C53.3277 41.0623 53.6941 41.2213 53.7634 41.268C53.8327 41.3242 53.5752 41.2119 53.595 41.3242C53.6049 41.427 53.8723 41.7263 53.8525 41.9133C53.8327 42.1003 53.704 42.3996 53.4762 42.4557C53.2584 42.5024 52.7435 42.3622 52.5256 42.2219C52.3177 42.0723 52.2484 41.745 52.189 41.5673C52.1394 41.3896 52.0899 41.2306 52.1791 41.1652C52.2682 41.1091 52.5256 41.2119 52.7435 41.1932C52.9613 41.1839 53.4366 41.1184 53.496 41.081C53.5554 41.053 53.1594 41.0343 53.0999 41.0062M53.4861 40.894C53.6148 40.9781 53.6545 41.4177 53.6545 41.4738C53.6545 41.5392 53.4663 41.1371 53.4861 41.2587C53.5158 41.3803 53.8723 42.0068 53.7931 42.2125C53.7139 42.4183 53.1594 42.465 53.0108 42.4744C52.8623 42.4837 53.0009 42.2967 52.892 42.2499C52.7732 42.1938 52.4761 42.2686 52.3177 42.1658C52.1592 42.0536 51.8424 41.8478 51.9414 41.5953C52.0503 41.3335 52.793 40.7163 52.9415 40.6228C53.09 40.5386 52.8524 41.0436 52.8128 41.0623C52.7831 41.081 52.6742 40.8379 52.7435 40.7444" stroke="#1E1E1E" stroke-linecap="round"/>
<path d="M49.1374 70.9955C49.1176 70.5653 49.1473 69.6208 49.1374 68.7044C49.1176 69.4432 49.1275 70.1726 49.1374 70.9955ZM49.1374 70.9955C49.5434 71.8184 48.4938 72.4917 47.0481 72.9686M49.1374 70.9955C48.4938 71.7717 48.0086 72.9686 47.0481 72.9686M47.0481 72.9686C45.1172 72.7162 44.9588 74.0066 44.9588 74.9324M47.0481 72.9686C45.0578 73.3333 44.9687 73.6419 44.9588 74.9324M44.9588 74.9324C44.9885 75.587 44.8994 76.1014 44.9588 77.2235C44.9489 76.4848 44.9588 75.6899 44.9588 74.9324Z" stroke="#1E1E1E" stroke-linecap="round"/>
<path d="M45.0283 76.3726C45.2164 76.3913 45.2263 76.8776 45.3947 76.9711C45.5531 77.0552 46.0086 76.756 46.0185 76.9056C46.0284 77.0646 45.6521 77.6911 45.4739 77.8875C45.2956 78.0932 45.1273 78.1119 44.9491 78.1119C44.7807 78.1026 44.5827 77.9436 44.4243 77.8595C44.2658 77.7753 44.0876 77.7005 44.0084 77.5976C43.9193 77.4947 43.8202 77.4106 43.9093 77.2236C43.9985 77.0365 44.3153 76.5783 44.5431 76.4754C44.7807 76.3726 45.256 76.6531 45.3055 76.6157C45.3649 76.5783 44.8996 76.2697 44.8797 76.2697M44.9788 76.6625C45.2659 76.6718 45.6719 76.438 45.8699 76.5035C46.0779 76.5596 46.2462 76.8589 46.2066 77.0272C46.167 77.1955 45.8402 77.4293 45.6422 77.5228C45.4343 77.6257 45.0976 77.6163 44.9986 77.6257C44.8896 77.6257 45.157 77.5789 45.0085 77.5509C44.85 77.5228 44.2559 77.607 44.0678 77.448C43.8895 77.289 43.8697 76.784 43.9093 76.597C43.949 76.41 44.1371 76.3726 44.3153 76.3352C44.4936 76.2978 44.8797 76.3352 44.959 76.3726C45.0481 76.4006 44.85 76.5316 44.8005 76.5503" fill="#1E1E1E"/>
<path d="M45.0281 76.6905C45.1469 76.6251 45.0182 76.41 45.1568 76.4661C45.2855 76.5222 45.7212 76.8027 45.8301 77.0272C45.9391 77.2422 45.949 77.635 45.8004 77.7846C45.6519 77.9343 45.1766 77.953 44.9489 77.9249C44.7211 77.8968 44.5825 77.7098 44.434 77.6257C44.2755 77.5321 44.0775 77.4386 44.0379 77.3919C43.9983 77.3358 44.0973 77.4012 44.2062 77.3171C44.3151 77.2329 44.6023 76.9991 44.7112 76.8869C44.8102 76.7747 44.7904 76.6999 44.8201 76.6438C44.8399 76.5783 44.8498 76.5222 44.8795 76.5315M44.9489 76.9617C44.9885 76.915 44.8993 76.41 45.0281 76.4754C45.1568 76.5409 45.6717 77.1394 45.7113 77.3638C45.7509 77.5789 45.3251 77.7098 45.2558 77.794C45.1766 77.8875 45.3746 77.8407 45.2558 77.8968C45.137 77.953 44.7904 78.168 44.5528 78.1493C44.3151 78.1213 43.8596 77.9904 43.8497 77.7566C43.8398 77.5228 44.4241 76.8775 44.4736 76.7279C44.5132 76.5877 44.0973 76.9617 44.1072 76.9056C44.1171 76.8495 44.3745 76.5222 44.5231 76.3913C44.6617 76.2604 44.9192 76.1201 44.9786 76.1014" stroke="#1E1E1E" stroke-linecap="round"/>
<path d="M56.5334 69.9667C56.068 70.0041 55.256 70.0041 54.4836 69.9667C54.8896 69.9854 55.3451 69.9386 56.5334 69.9667ZM56.5334 69.9667C57.9493 69.4898 58.0187 70.1444 58.5732 71.9024M56.5334 69.9667C57.4641 69.9667 59.1376 71.1169 58.5732 71.9024M58.5732 71.9024C58.5534 72.4542 58.5732 73.0246 58.5732 73.3987M58.5732 71.9024C58.5831 72.342 58.5633 72.7254 58.5732 73.3987M58.5732 73.3987C58.5732 75.0726 58.7415 75.6523 60.6229 75.3344M58.5732 73.3987C58.593 74.7079 58.999 75.7085 60.6229 75.3344M60.6229 75.3344C60.9893 75.2876 61.5042 75.2783 62.6726 75.3344C61.7418 75.3625 61.1774 75.3157 60.6229 75.3344Z" stroke="#1E1E1E" stroke-linecap="round"/>
<path d="M62.6231 74.9884C62.8013 74.9697 63.3261 74.5676 63.4153 74.6611C63.5143 74.7546 63.2568 75.3437 63.1875 75.5495C63.1083 75.7459 63.0687 75.8207 62.9796 75.8768C62.8805 75.9329 62.7617 75.8861 62.6231 75.8955C62.4845 75.9048 62.2765 75.9609 62.1379 75.9422C61.9993 75.9142 61.7913 75.9142 61.7814 75.7552C61.7715 75.6056 61.9498 75.138 62.0884 75.0071C62.2171 74.8668 62.4944 75.0258 62.5736 74.9416C62.6528 74.8481 62.5043 74.4928 62.5637 74.4647C62.6132 74.4367 62.8211 74.764 62.8805 74.7733M62.9796 74.5115C63.1974 74.446 63.4549 74.6143 63.5143 74.7079C63.5737 74.8014 63.4054 74.9697 63.336 75.0726C63.2667 75.1754 63.0885 75.2222 63.0885 75.297C63.0786 75.3812 63.4351 75.4653 63.3063 75.5588C63.1776 75.643 62.5538 75.8861 62.3161 75.83C62.0686 75.7739 61.9201 75.3718 61.8309 75.2315C61.7517 75.0913 61.7715 75.0539 61.8309 74.9697C61.8804 74.8949 62.0587 74.792 62.1577 74.7546C62.2468 74.7172 62.3755 74.7733 62.3953 74.7546C62.4152 74.7266 62.1676 74.6237 62.2567 74.6237" fill="#1E1E1E"/>
<path d="M62.4152 74.5115C62.5538 74.4741 63.0489 74.6611 63.2272 74.8201C63.4153 74.979 63.5341 75.325 63.4846 75.4747C63.4351 75.6149 63.0885 75.671 62.94 75.6991C62.7816 75.7272 62.7122 75.643 62.5835 75.643C62.4548 75.643 62.237 75.671 62.1577 75.6991C62.0686 75.7272 62.0686 75.8674 62.0884 75.8113C62.1082 75.7646 62.2766 75.5401 62.2766 75.3999C62.2865 75.2502 62.0686 75.0726 62.1181 74.9697C62.1775 74.8575 62.4944 74.7546 62.6033 74.7359C62.7122 74.7172 62.7519 74.8201 62.7618 74.8668M62.2667 74.5395C62.3954 74.5115 62.9796 75.0071 63.0885 75.1661C63.1974 75.3157 62.8905 75.3905 62.9103 75.4747C62.94 75.5588 63.2668 75.5401 63.2272 75.6523C63.1974 75.7646 62.9202 76.0732 62.7122 76.1386C62.5043 76.2134 62.0389 76.2041 61.9894 76.0451C61.93 75.8955 62.435 75.3344 62.3855 75.2315C62.336 75.1287 61.7914 75.5027 61.7022 75.4279C61.6131 75.3437 61.6824 74.9323 61.8508 74.7453C62.0191 74.5582 62.5934 74.3525 62.7222 74.3057C62.8608 74.259 62.6528 74.3244 62.6429 74.4647" stroke="#1E1E1E" stroke-linecap="round"/>
<path d="M54.4837 72.7257C54.2064 70.5562 54.5233 69.247 54.4837 67.4422C54.5629 69.0974 54.4837 70.8555 54.4837 72.7257ZM54.4837 72.7257C53.642 73.1372 53.335 74.3809 52.731 74.3809M54.4837 72.7257C55.3253 74.5867 54.7015 73.7918 52.731 74.3809M52.731 74.3809C50.7803 74.8672 50.9883 74.9701 50.9784 76.0455M52.731 74.3809C51.1665 74.9514 49.9188 75.2974 50.9784 76.0455M50.9784 76.0455C51.0774 77.7007 50.8793 79.8234 50.9784 81.329C51.0378 78.1402 50.9586 77.2612 50.9784 76.0455Z" stroke="#1E1E1E" stroke-linecap="round"/>
<path d="M51.226 79.4588C51.5428 79.412 51.5131 80.1788 51.6815 80.4687C51.8399 80.7586 52.1172 80.955 52.1964 81.1981C52.2756 81.4413 52.2855 81.647 52.137 81.9088C51.9884 82.1707 51.632 82.5821 51.3052 82.7785C50.9685 82.9655 50.4041 83.19 50.1367 83.0591C49.8793 82.9188 49.7902 82.2548 49.7308 81.9743C49.6714 81.6938 49.8001 81.7312 49.7704 81.3852C49.7407 81.0392 49.3248 80.1414 49.5426 79.8796C49.7605 79.6271 50.8002 79.9263 51.0774 79.8609C51.3547 79.7954 51.2755 79.4588 51.2062 79.4681M51.8102 79.6177C52.0577 79.6458 52.0874 79.8983 52.1766 80.0853C52.2657 80.2817 52.2162 80.4781 52.335 80.7493C52.4439 81.0205 53.0677 81.3852 52.8598 81.7031C52.6618 82.0211 51.6221 82.6102 51.1269 82.6663C50.6219 82.7224 50.1665 82.2268 49.8496 82.0398C49.5228 81.8527 49.305 81.7405 49.2159 81.5161C49.1267 81.301 49.2357 80.9643 49.3149 80.7306C49.3941 80.4968 49.4931 80.3004 49.7011 80.1227C49.909 79.9357 50.2556 79.6926 50.5625 79.6271C50.8794 79.5616 51.5131 79.73 51.5824 79.73" fill="#1E1E1E"/>
<path d="M51.3645 79.6926C51.82 79.8235 52.3052 80.3378 52.4439 80.609C52.5825 80.8802 52.2953 81.114 52.1963 81.3197C52.1072 81.5254 52.0775 81.6657 51.8695 81.8714C51.6616 82.0678 51.216 82.3577 50.9388 82.5447C50.6615 82.7318 50.3941 83.0591 50.206 83.0029C50.0278 82.9468 49.9981 82.5447 49.8198 82.2174C49.6515 81.8901 49.1564 81.4039 49.1663 81.0392C49.1861 80.6838 49.5624 80.2162 49.9188 80.0479C50.2753 79.8796 51.0972 79.9918 51.315 80.0199C51.5428 80.0479 51.2556 80.2069 51.2556 80.2069M51.3546 80.291C51.6814 80.45 51.4834 80.5996 51.6913 80.796C51.8992 80.983 52.5726 81.1233 52.6023 81.4506C52.632 81.7779 52.2359 82.4699 51.8794 82.7411C51.5329 83.0123 50.6912 83.19 50.4635 83.0684C50.2258 82.9375 50.7506 82.1613 50.4932 81.993C50.2357 81.8247 49.1861 82.3016 48.9187 82.0585C48.6514 81.8153 48.6415 80.983 48.8791 80.5342C49.1168 80.076 49.9287 79.5149 50.3347 79.3372C50.7407 79.1502 51.1467 79.253 51.3051 79.4494C51.4636 79.6364 51.2358 80.4874 51.2952 80.4781" stroke="#1E1E1E" stroke-linecap="round"/>
<path d="M27.5855 60.8521C27.6449 60.2443 27.6152 59.2717 27.5855 58.4488C27.536 58.9351 27.5459 59.5149 27.5855 60.8521ZM27.5855 60.8521C28.3182 63.1151 27.437 62.7504 25.0407 63.2648M27.5855 60.8521C28.0509 62.0117 26.7537 63.3209 25.0407 63.2648M25.0407 63.2648C24.9516 63.2648 24.8822 63.2554 24.7832 63.2648M25.0407 63.2648C24.9714 63.2648 24.912 63.2648 24.7832 63.2648M24.7832 63.2648C22.7434 63.751 21.3274 64.3776 22.2384 65.6681M24.7832 63.2648C23.7237 62.3577 21.4661 64.5366 22.2384 65.6681M22.2384 65.6681C22.1196 66.1824 22.1592 66.7061 22.2384 68.0714C22.2186 67.5009 22.278 66.5939 22.2384 65.6681Z" stroke="#1E1E1E" stroke-linecap="round"/>
<path d="M21.7235 67.529C21.8918 67.4168 22.2087 67.2391 22.377 67.2952C22.5355 67.3513 22.6741 67.6412 22.7335 67.8563C22.783 68.0807 22.6741 68.4922 22.6741 68.6138C22.684 68.726 22.8127 68.4735 22.783 68.5576C22.7533 68.6325 22.7533 69.1281 22.4959 69.072C22.2483 69.0252 21.4264 68.3987 21.2581 68.2397C21.0898 68.0807 21.4165 68.3145 21.4958 68.1368C21.575 67.9592 21.6938 67.3139 21.7532 67.1549C21.8225 66.996 21.7829 67.0988 21.8819 67.1736C21.981 67.2391 22.3572 67.4822 22.3572 67.5758M21.9215 66.7809C22.1889 66.7061 23.189 66.7341 23.3474 66.8931C23.5059 67.0614 22.991 67.5945 22.8721 67.7441C22.7533 67.8937 22.7236 67.6786 22.6345 67.7815C22.5454 67.8937 22.4464 68.2491 22.3275 68.3987C22.1988 68.5483 22.0899 68.6512 21.8819 68.6792C21.6839 68.7073 21.3076 68.726 21.1195 68.5857C20.9313 68.4361 20.6046 68.0059 20.763 67.8002C20.9214 67.5851 21.8522 67.4916 22.0602 67.342C22.278 67.183 22.1295 66.837 22.0602 66.8744C21.981 66.9118 21.7037 67.5851 21.6047 67.557" fill="#1E1E1E"/>
<path d="M21.783 67.2485C21.8622 67.1176 22.2484 66.9212 22.4167 66.9773C22.585 67.0334 22.6841 67.2952 22.793 67.5945C22.9019 67.9031 23.0603 68.5296 23.09 68.7915C23.1197 69.0627 23.2089 69.1375 22.9712 69.1842C22.7435 69.2403 21.9909 69.1936 21.7038 69.0907C21.4166 68.9878 21.3176 68.7166 21.2483 68.567C21.1889 68.4081 21.2879 68.2958 21.3275 68.1556C21.3572 68.0246 21.3176 67.9218 21.476 67.7722C21.6245 67.6132 22.0305 67.3888 22.2385 67.2298C22.4464 67.0802 22.7534 66.837 22.7138 66.8464M22.3969 67.2485C22.6445 67.2578 22.6742 67.6973 22.694 67.875C22.7138 68.0527 22.387 68.2678 22.4959 68.2865C22.6147 68.3145 23.4861 67.8657 23.3871 68.0246C23.298 68.1743 22.288 69.1281 21.9216 69.231C21.5453 69.3338 21.2483 68.8943 21.1691 68.6418C21.0799 68.3987 21.4067 67.9592 21.4265 67.7535C21.4463 67.5384 21.2384 67.3513 21.2879 67.3888C21.3275 67.4168 21.4562 68.0527 21.6939 67.9311C21.9315 67.8002 22.5355 66.7248 22.7138 66.6126C22.892 66.5097 22.892 67.1924 22.7732 67.2672" stroke="#1E1E1E" stroke-linecap="round"/>
<path d="M28.8432 38.7263C27.3282 38.7357 26.9123 38.8011 26.2489 38.7263C26.7935 38.7357 27.4569 38.7824 28.8432 38.7263ZM28.8432 38.7263C31.2593 38.212 31.8336 37.5293 31.4277 36.2763M28.8432 38.7263C30.5761 38.7824 31.8534 37.679 31.4277 36.2763M31.4277 36.2763C31.4871 35.8274 31.4079 35.472 31.4277 35.1728M31.4277 36.2763C31.4376 35.8835 31.4178 35.5001 31.4277 35.1728M31.4277 35.1728C30.5068 33.8542 32.8436 31.9466 34.022 32.7321M31.4277 35.1728C30.6553 34.0226 31.3385 32.4515 34.022 32.7321M34.022 32.7321C34.7448 32.7227 35.7251 32.7882 36.6064 32.7321C35.1805 32.7882 34.5369 32.7134 34.022 32.7321Z" stroke="#1E1E1E" stroke-linecap="round"/>
<path d="M61.1665 49.4583C61.0278 50.833 61.0179 51.8803 61.1665 52.7687C61.2457 52.0767 61.2358 51.2257 61.1665 49.4583ZM61.1665 49.4583C61.5724 48.1211 60.6813 48.0837 59.6614 48.0369M61.1665 49.4583C61.5922 48.2801 61.4338 48.1211 59.6614 48.0369M59.6614 48.0369C59.2059 47.2514 57.4829 47.9715 58.1562 46.6155M59.6614 48.0369C57.7107 47.7564 58.2652 46.5875 58.1562 46.6155M58.1562 46.6155C58.3147 45.7178 58.0176 44.7639 58.1562 43.3051C58.0968 44.5676 58.2355 45.6804 58.1562 46.6155Z" stroke="#1E1E1E" stroke-linecap="round"/>
<path d="M34.3971 42.1975C33.9515 42.1694 33.4267 42.16 32.9316 42.1975C33.3871 42.1788 33.8228 42.1881 34.3971 42.1975ZM34.3971 42.1975C35.3774 42.2349 36.1003 41.599 35.8527 40.8134M34.3971 42.1975C35.8824 42.2536 35.8824 42.4312 35.8527 40.8134M35.8527 40.8134C35.8824 40.4861 35.8824 40.2337 35.8527 39.4762M35.8527 40.8134C35.8329 40.4207 35.8725 39.9812 35.8527 39.4762M35.8527 39.4762C35.4071 38.831 35.7933 37.9332 37.3182 38.0922M35.8527 39.4762C35.932 37.9052 36.2884 37.6714 37.3182 38.0922M37.3182 38.0922C37.7044 38.1202 38.1797 38.0735 38.7837 38.0922C38.1203 38.0735 37.6846 38.0828 37.3182 38.0922Z" stroke="#1E1E1E" stroke-linecap="round"/>
</g>
<defs>
<clipPath id="clip0_58_127">
<rect width="53.4709" height="64.5246" fill="white" transform="translate(12.89 18.7504)"/>
</clipPath>
</defs>
</svg>
